<svg xmlns="http://www.w3.org/2000/svg" viewBox="0 0 24 24" id="3d-Print-Polygon-Shape--Streamline-Freehand">
  <desc>
    3d Print Polygon Shape Streamline Icon: https://streamlinehq.com
  </desc>
  <g>
    <path d="M10.48 14.28a2.75 2.75 0 0 0 -0.56 -0.1c-0.39 0.18 -0.67 0.84 -0.43 1s0.12 0.1 0.31 0.2l1.08 0.5c0.33 0.14 0.67 0.27 1 0.38 0.52 -0.13 0.74 -0.79 0.52 -0.9s-0.5 -0.34 -0.76 -0.5a7 7 0 0 0 -1.16 -0.58Z" fill="#4C57E6" stroke-width="1"></path>
    <path d="M9.41 4.33c-0.13 -0.25 -0.27 -0.5 -0.41 -0.74a8 8 0 0 0 -0.48 -0.71c-0.4 -0.53 -0.85 -1 -1.3 -1.51a0.35 0.35 0 0 0 -0.48 -0.1 0.36 0.36 0 0 0 -0.09 0.47c0.29 0.6 0.52 1.21 0.82 1.8 0.13 0.25 0.27 0.49 0.42 0.73s0.31 0.47 0.48 0.7 0.45 0.57 0.45 0.57a0.5 0.5 0 0 0 0.86 -0.39 1.85 1.85 0 0 0 -0.27 -0.82Z" fill="#4C57E6" stroke-width="1"></path>
    <path d="M14.64 13.26c-0.08 0.18 -0.1 0.37 -0.17 0.56 -0.23 0.67 1 0.94 1.17 0.38 0.09 -0.29 0.26 -0.55 0.33 -0.85a0.53 0.53 0 0 0 0.06 -0.27c-0.03 -0.32 -1.14 -0.58 -1.39 0.18Z" fill="#4C57E6" stroke-width="1"></path>
    <path d="M8.69 7.46a1.89 1.89 0 0 0 0.46 1.37 2.09 2.09 0 0 0 0.28 0.22 1.43 1.43 0 0 0 0.76 0.43 1.22 1.22 0 0 0 0.17 0.07 2.28 2.28 0 0 0 1.46 -0.09 2 2 0 0 0 1 -0.91 1.89 1.89 0 0 0 -0.06 -1.92 1.22 1.22 0 0 0 -0.15 -0.17 4.3 4.3 0 0 0 -0.91 -0.58 2.27 2.27 0 0 0 -2.7 0.75 1.5 1.5 0 0 0 -0.31 0.83Zm1.36 -0.61c2 -0.77 2.19 1.09 1.29 1.4a1.21 1.21 0 0 1 -0.68 0.05A1.38 1.38 0 0 1 10 8a0.72 0.72 0 0 1 -0.31 -0.56 0.71 0.71 0 0 1 0.36 -0.59Z" fill="#020202" stroke-width="1"></path>
    <path d="m13.39 10.16 0.38 0.09c0.32 0 0.48 -0.39 0.38 -0.8a0.81 0.81 0 0 0 -0.26 -0.45 0.86 0.86 0 0 0 -0.53 -0.28 0.68 0.68 0 0 0 -0.36 1.35c0.18 0.07 0.21 0.03 0.39 0.09Z" fill="#4C57E6" stroke-width="1"></path>
    <path d="M8.64 10.34a4.81 4.81 0 0 0 -0.22 0.46c-0.08 0.18 -0.14 0.35 -0.21 0.53a0.5 0.5 0 0 0 0.77 0.49c0.15 -0.16 0.3 -0.33 0.44 -0.51a4.78 4.78 0 0 0 0.29 -0.44 2.92 2.92 0 0 0 0.23 -0.47c0 -0.08 0.05 -0.16 0.07 -0.23a0.55 0.55 0 0 0 -0.92 -0.47 0.86 0.86 0 0 0 -0.18 0.2c-0.09 0.1 -0.19 0.29 -0.27 0.44Z" fill="#4C57E6" stroke-width="1"></path>
    <path d="M15.62 8.74s-0.64 0.44 -0.95 0.71a1.35 1.35 0 0 0 -0.31 0.65 2.38 2.38 0 0 0 0.38 1.59 4.11 4.11 0 0 0 1.18 0.82 1.08 1.08 0 0 0 0.31 0.07 2.94 2.94 0 0 0 1.17 -0.26 1.86 1.86 0 0 0 1.18 -2.13 3 3 0 0 0 -1.09 -1.49l-0.12 -0.06a2.41 2.41 0 0 0 -0.85 -0.15l-0.2 0a3.06 3.06 0 0 0 -0.7 0.25ZM17.35 10a0.76 0.76 0 0 1 -0.43 1.11 1.18 1.18 0 0 1 -0.67 0 1.34 1.34 0 0 1 -0.67 -0.31 0.72 0.72 0 0 1 -0.32 -0.56 0.71 0.71 0 0 1 0.38 -0.57l0.67 -0.27s0.62 -0.29 1.04 0.6Z" fill="#020202" stroke-width="1"></path>
    <path d="M13.65 15.2s-0.64 0.45 -1 0.71a1.5 1.5 0 0 0 -0.31 0.65 2.38 2.38 0 0 0 0.38 1.59A3.92 3.92 0 0 0 14 19a0.82 0.82 0 0 0 0.31 0.07 2.93 2.93 0 0 0 1.17 -0.25 1.87 1.87 0 0 0 1.18 -2.14 3 3 0 0 0 -1.08 -1.48l-0.12 -0.05a2.38 2.38 0 0 0 -0.85 -0.16l-0.19 0a2.9 2.9 0 0 0 -0.77 0.21Zm1.74 1.27a0.77 0.77 0 0 1 -0.39 1.11 1.13 1.13 0 0 1 -0.68 0 1.34 1.34 0 0 1 -0.67 -0.31 0.69 0.69 0 0 1 -0.31 -0.55 0.71 0.71 0 0 1 0.37 -0.58l0.68 -0.27s0.61 -0.29 1 0.6Z" fill="#020202" stroke-width="1"></path>
    <path d="M6.12 12s-0.64 0.45 -1 0.71a1.4 1.4 0 0 0 -0.31 0.65 2.44 2.44 0 0 0 0.37 1.59 4 4 0 0 0 1.19 0.82 0.82 0.82 0 0 0 0.3 0.07 2.94 2.94 0 0 0 1.18 -0.25 1.86 1.86 0 0 0 1.22 -2.19A2.9 2.9 0 0 0 8 11.92l-0.13 -0.05a2.32 2.32 0 0 0 -0.87 -0.18l-0.2 0a3.49 3.49 0 0 0 -0.68 0.31Zm1.73 1.27a0.76 0.76 0 0 1 -0.43 1.11 1.13 1.13 0 0 1 -0.68 0 1.51 1.51 0 0 1 -0.67 -0.3 0.75 0.75 0 0 1 -0.31 -0.56 0.7 0.7 0 0 1 0.38 -0.58l0.67 -0.27s0.62 -0.34 1.04 0.55Z" fill="#020202" stroke-width="1"></path>
    <g>
      <path d="m4 7.61 1.22 0 1.23 0 1.23 -0.08a0.51 0.51 0 0 0 -0.05 -1s-0.5 -0.08 -1.16 -0.12l-1.27 0c-0.42 0 -0.85 0 -1.28 0.09a9.6 9.6 0 0 0 -1.05 0.18c-0.26 0.08 -0.68 0.74 -0.44 0.86A4 4 0 0 0 4 7.61Z" fill="#4C57E6" stroke-width="1"></path>
      <path d="M10 21.56c0.08 0 0.34 -0.1 0.41 -0.15 0.28 -0.22 0.56 -0.43 0.84 -0.66s0.54 -0.46 0.8 -0.71a7 7 0 0 0 0.54 -0.55c0.55 -0.59 0 -1.06 -0.68 -0.85a6.87 6.87 0 0 0 -0.65 0.45 9.18 9.18 0 0 0 -0.85 0.66c-0.28 0.23 -0.54 0.48 -0.79 0.72a1.15 1.15 0 0 0 -0.41 0.69c-0.12 0.31 0.48 0.46 0.79 0.4Z" fill="#4C57E6" stroke-width="1"></path>
      <path d="M15.21 2.12a3.69 3.69 0 0 0 -0.92 0.84c-0.23 0.25 -0.45 0.51 -0.68 0.77s-0.43 0.52 -0.63 0.8 -0.31 0.32 -0.41 0.65c-0.15 0.55 0.2 0.79 0.83 0.62a3.65 3.65 0 0 0 0.51 -0.45 8.73 8.73 0 0 0 0.71 -0.79c0.22 -0.27 0.43 -0.55 0.63 -0.85l0.24 -0.39c0 0.3 -0.06 0.6 -0.05 0.9s0.06 0.76 0.1 1.13 0.12 0.75 0.2 1.12c0.12 0.52 0.19 0.77 0.34 1.28 0.09 0.27 0.29 0.23 0.41 0.23a0.62 0.62 0 0 0 0.59 -0.48c0.12 -0.59 -0.07 -0.63 -0.13 -1.22 0 -0.37 -0.07 -0.73 -0.12 -1.1s-0.09 -0.72 -0.14 -1.08 -0.16 -1 -0.24 -1.45 -0.45 -0.52 -0.73 -0.65 -0.35 0.05 -0.51 0.12Z" fill="#4C57E6" stroke-width="1"></path>
      <path d="M20.52 16.17a8.87 8.87 0 0 0 -1 0l-1 0c-0.31 0 -0.26 0 -0.69 0.08a0.75 0.75 0 0 0 -0.51 0.76c0 0.1 0.28 0.32 0.68 0.36a4.53 4.53 0 0 0 0.53 0.05l1 0 1 0 0.4 0c0.59 -0.32 0.43 -1.15 -0.41 -1.25Z" fill="#4C57E6" stroke-width="1"></path>
      <path d="M16.79 20.75a1.56 1.56 0 0 0 -0.42 -1c-0.74 -0.82 -1.32 -0.33 -1.25 0.28a1.91 1.91 0 0 0 0.25 0.66 2 2 0 0 0 0.49 0.62c0.22 0.17 0.93 -0.16 0.93 -0.56Z" fill="#4C57E6" stroke-width="1"></path>
      <path d="M7.9 20.53a3.08 3.08 0 0 0 0 -0.75c0 -0.59 -0.08 -1.18 -0.15 -1.76s-0.07 -0.74 -0.19 -1.33a0.54 0.54 0 0 0 -1 0 3.57 3.57 0 0 0 -0.07 1.09c0 0.37 0 0.74 0.07 1.11s0.09 0.74 0.16 1.11a1.21 1.21 0 0 0 0.21 0.57 0.79 0.79 0 0 0 0.8 0.24c0.09 -0.03 0.11 -0.02 0.17 -0.28Z" fill="#4C57E6" stroke-width="1"></path>
      <path d="M3.1 16.61a7.27 7.27 0 0 0 1.33 -0.54 2.66 2.66 0 0 0 0.4 -0.27c0.3 -0.42 0 -0.86 -0.66 -0.93a4.43 4.43 0 0 0 -0.44 0.14c-0.43 0.15 -0.83 0.3 -1.25 0.47a0.42 0.42 0 0 0 -0.16 0.65c0.39 0.48 0.68 0.52 0.78 0.48Z" fill="#4C57E6" stroke-width="1"></path>
      <path d="m1.85 9.22 0.3 0.38c0.23 0.29 0.47 0.56 0.71 0.84l0.76 0.8c0.34 0.34 0.43 0.48 0.78 0.81a0.59 0.59 0 0 0 0.86 -0.71c-0.28 -0.39 -0.43 -0.53 -0.72 -0.91s-0.46 -0.58 -0.7 -0.86 -0.5 -0.55 -0.78 -0.81 -0.49 -0.39 -0.83 -0.67c-0.23 0 -0.26 0.16 -0.39 0.28s-0.2 0.45 0.01 0.85Z" fill="#4C57E6" stroke-width="1"></path>
      <path d="M24 11.93a20.85 20.85 0 0 0 -0.73 -4.88 11.15 11.15 0 0 0 -1.92 -2.13c-1.53 -1.42 -3.61 -3.24 -4.6 -4a1.3 1.3 0 0 0 -0.54 -0.17c-0.59 -0.11 -1.78 -0.17 -3.12 -0.2A34.31 34.31 0 0 0 8 0.74a0.38 0.38 0 0 0 -0.31 0.44 0.38 0.38 0 0 0 0.44 0.32 23.87 23.87 0 0 1 3.31 -0.14c1.59 0 3.23 0.11 4.18 0.21a4.68 4.68 0 0 1 0.85 0.28c0.88 0.75 2.32 2 3.56 3.23 0.83 0.78 1.57 1.48 1.95 1.9a15.06 15.06 0 0 1 0.87 5 17.76 17.76 0 0 1 -0.32 4.14 1 1 0 0 1 -0.18 0.39 5.07 5.07 0 0 0 -0.39 0.67 1.12 1.12 0 0 1 -0.19 0.29c-0.51 0.56 -1.25 1.25 -2 1.95 -0.93 0.84 -1.87 1.65 -2.5 2.12a0.62 0.62 0 0 1 -0.22 0.1 7.33 7.33 0 0 0 -0.72 0.3 0.68 0.68 0 0 1 -0.33 0.06 20.72 20.72 0 0 1 -2.94 0.13c-1.25 0 -4.86 -0.29 -4.91 -0.23l-0.14 0c0 -0.09 -2.78 -2 -3.78 -2.89 -0.82 -0.74 -2.34 -2.45 -2.9 -3a0.46 0.46 0 0 1 -0.13 -0.27 23.17 23.17 0 0 1 -0.2 -4c0 -1.19 0.11 -2.33 0.22 -3.37a3 3 0 0 1 0.69 -1.65c0.37 -0.47 0.84 -1 1.4 -1.7C4.52 3.63 5.93 2 6.65 1.18a0.34 0.34 0 0 0 0 -0.48 0.32 0.32 0 0 0 -0.47 0c-1 1.09 -3.23 3.55 -4.55 5.1a12.46 12.46 0 0 0 -1 1.23s-0.05 0 -0.07 0a1 1 0 0 0 -0.11 0.31 37 37 0 0 0 -0.45 4.4 28.43 28.43 0 0 0 0.14 4.4c0.12 0.92 1.61 2.23 2.58 3.09A49 49 0 0 0 7.08 23a32.81 32.81 0 0 0 6 0.51 15 15 0 0 0 4 -0.32 23.73 23.73 0 0 0 4.19 -3.37 10.79 10.79 0 0 0 2.36 -2.87 17 17 0 0 0 0.37 -5.02Z" fill="#020202" stroke-width="1"></path>
      <path d="M21.17 7.36c-0.23 0.11 -0.3 0.14 -0.53 0.27a8 8 0 0 0 -0.7 0.41 8.55 8.55 0 0 0 -0.94 0.76c-0.41 0.55 -0.08 1 0.46 0.9a11.74 11.74 0 0 0 1.18 -0.57q0.33 -0.22 0.66 -0.48c0.2 -0.16 0.28 -0.23 0.47 -0.4a0.68 0.68 0 0 0 -0.06 -0.57c-0.07 -0.19 -0.13 -0.37 -0.54 -0.32Z" fill="#4C57E6" stroke-width="1"></path>
    </g>
  </g>
</svg>