<svg xmlns="http://www.w3.org/2000/svg" viewBox="0 0 24 24" id="Accessories-Cane--Streamline-Freehand">
  <desc>
    Accessories Cane Streamline Icon: https://streamlinehq.com
  </desc>
  <g>
    <path d="M5.23 20.24a1.19 1.19 0 0 0 -0.45 -0.3c-0.4 -0.19 -0.9 0.37 -0.73 0.56s0.1 0.17 0.24 0.37 0.19 0.25 0.3 0.37a3.7 3.7 0 0 0 0.33 0.36c0.19 0.2 0.28 0.25 0.47 0.44a0.45 0.45 0 0 0 0.61 -0.53 4 4 0 0 0 -0.27 -0.59 3 3 0 0 0 -0.5 -0.68Z" fill="#4C57E6" fill-rule="evenodd" stroke-width="1"></path>
    <path d="M20.9 2A6 6 0 0 0 15.33 0.08a6.06 6.06 0 0 0 -4.79 3.43A1.93 1.93 0 0 0 11 5.69a2.16 2.16 0 0 0 2.12 0.45 3.48 3.48 0 0 0 0.61 -0.35A4.62 4.62 0 0 1 15.42 5a1.64 1.64 0 0 1 1.74 0.79c0.37 0.54 0 1.2 -0.46 1.92A33.88 33.88 0 0 1 12.24 12c-2.4 2.25 -5 4.21 -7.45 6.38 -0.4 0.35 -0.78 0.71 -1.17 1.07 -0.64 0.59 -1.26 1.2 -1.86 1.84a0.35 0.35 0 0 0 0 0.49l0.07 0.05a0.33 0.33 0 0 0 0.11 0.22c0.26 0.22 0.73 1 1.21 1.42a1.36 1.36 0 0 0 0.92 0.48 1.85 1.85 0 0 0 0.82 -0.25 9.12 9.12 0 0 0 1.35 -1l3.37 -2.6c1.84 -1.56 3.42 -2.86 5 -4.24 1.09 -0.86 2.16 -1.86 3.31 -2.92 1.31 -1.23 3.71 -3.44 4.3 -6A5.49 5.49 0 0 0 20.9 2Zm0.23 4.71c-0.51 2.38 -2.71 4.41 -3.9 5.55s-2.16 2 -3.19 3C12.47 16.67 10.91 18 9.1 19.6c-4.73 3.71 -4.32 3.4 -4.37 3.46a1.37 1.37 0 0 1 -0.7 0.29c-0.14 0 -0.29 -0.13 -0.46 -0.29 -0.47 -0.43 -0.94 -1.12 -1.21 -1.38 0.76 -0.79 2.89 -2.68 2.91 -2.68 2.5 -2.14 5.14 -4.06 7.58 -6.28a34.28 34.28 0 0 0 4.66 -4.42c0.82 -1.16 1.08 -2.3 0.49 -3.12a2.62 2.62 0 0 0 -2.15 -1.31 4.47 4.47 0 0 0 -2.4 0.76c-0.29 0.17 -0.65 0.41 -0.7 0.44a1 1 0 0 1 -1 -0.2 0.83 0.83 0 0 1 -0.15 -0.94 4.87 4.87 0 0 1 3.9 -2.7A4.81 4.81 0 0 1 20 2.69a4.39 4.39 0 0 1 1.13 3.97Z" fill="#020202" fill-rule="evenodd" stroke-width="1"></path>
  </g>
</svg>