<svg xmlns="http://www.w3.org/2000/svg" viewBox="0 0 24 24" id="Accessories-Diamond--Streamline-Freehand">
  <desc>
    Accessories Diamond Streamline Icon: https://streamlinehq.com
  </desc>
  <g>
    <path d="M11.77 4.9 10.6 6.57c-0.17 0.27 -0.22 0.34 -0.39 0.63s0.28 0.68 0.47 0.53a8 8 0 0 1 0.63 -0.67l1.35 -1.55s0.08 -0.19 0.15 -0.31c0.09 0.16 0.19 0.41 0.22 0.47l1.23 1.82c0.28 0.32 0.79 0.24 0.7 -0.31l-1 -2a2.9 2.9 0 0 0 -0.3 -0.5A1.06 1.06 0 0 0 12 4.61Z" fill="#4C57E6" fill-rule="evenodd" stroke-width="1"></path>
    <path d="M16.25 3.35c-1 -0.1 -1.9 -0.28 -2.87 -0.39l-1.43 0c-1.07 0 -2.11 0.1 -3.18 0.08 -0.26 0 -0.5 0.61 -0.18 0.61 0.79 0.14 1.58 0.25 2.38 0.33 0.39 0 4.13 0.25 4.82 0.26l1 0c0.34 0 0.51 -0.69 0 -0.77a5.27 5.27 0 0 1 -0.54 -0.12Z" fill="#020202" fill-rule="evenodd" stroke-width="1"></path>
    <path d="M20.78 14.15a5.23 5.23 0 0 0 -0.29 -1.06 10.16 10.16 0 0 0 -2.35 -3.94 4.33 4.33 0 0 0 -2 -1l0.15 -0.18c0.43 -0.62 0.74 -1.43 1.09 -2l0.82 -1.23a3.93 3.93 0 0 0 0.35 -0.52 1.07 1.07 0 0 0 0.11 -0.46A2.06 2.06 0 0 0 18.5 3a6.12 6.12 0 0 0 -0.38 -0.77c-0.15 -0.31 -0.3 -0.74 -0.51 -1.09a2 2 0 0 0 -0.41 -0.5 2 2 0 0 0 -0.68 -0.37 6.74 6.74 0 0 0 -0.88 -0.15c-0.4 0 -0.8 -0.08 -1.2 -0.1l-1.76 0a16.67 16.67 0 0 0 -2 0 2.69 2.69 0 0 0 -0.92 0.28 3.61 3.61 0 0 0 -0.95 0.79c-0.55 0.65 -1 1.48 -1.47 2.11a0.33 0.33 0 0 0 -0.06 0.33 0.29 0.29 0 0 0 0 0.27c0.24 0.44 0.46 0.88 0.68 1.34 0.33 0.68 0.63 1.37 0.93 2.06 0.09 0.21 0.19 0.62 0.33 0.93a1.74 1.74 0 0 0 0.13 0.2 8.33 8.33 0 0 0 -2.77 1.4A11.25 11.25 0 0 0 4 12.49a4.49 4.49 0 0 0 -0.55 1.31 9.24 9.24 0 0 0 -0.27 2 14.84 14.84 0 0 0 0.1 2.47 5 5 0 0 0 0.5 1.73 7.42 7.42 0 0 0 2.41 2.58 8.51 8.51 0 0 0 3.28 1.31A10.09 10.09 0 0 0 17 22a9.36 9.36 0 0 0 3.84 -6.7 4.1 4.1 0 0 0 -0.06 -1.15ZM8.6 4.86c-0.22 -0.41 -0.45 -0.81 -0.69 -1.21C8 3.58 9 2.09 9.43 1.64a2.75 2.75 0 0 1 0.74 -0.58 2.2 2.2 0 0 1 0.89 -0.18c0.56 0 1.17 0.05 1.61 0.06s1.14 0 1.71 0.08c0.37 0 0.74 0.08 1.11 0.14a4.34 4.34 0 0 1 0.61 0.11 0.72 0.72 0 0 1 0.35 0.17 1.46 1.46 0 0 1 0.26 0.4c0.15 0.31 0.27 0.65 0.39 0.91a6 6 0 0 1 0.32 0.68 2.58 2.58 0 0 1 0.08 0.26c-0.07 0 -1 1.72 -1 1.72 -0.34 0.54 -0.76 1.28 -1.17 1.9 0 0 -0.21 0.49 -0.23 0.51l-0.57 0.08 -0.59 0 -1.87 0.1c-0.38 0 -0.85 0.11 -1.3 0.1l-0.26 0a4.75 4.75 0 0 0 -0.57 -0.44s-0.22 -0.56 -0.3 -0.72C9.3 6.22 9 5.54 8.6 4.86Zm11.32 10.32a8.48 8.48 0 0 1 -3.58 5.89 9.12 9.12 0 0 1 -6.69 1.68 7.61 7.61 0 0 1 -2.83 -1.11 6.31 6.31 0 0 1 -2.11 -2.16 3.87 3.87 0 0 1 -0.45 -1.33 14 14 0 0 1 -0.16 -2.29 8.26 8.26 0 0 1 0.11 -1.55 4.32 4.32 0 0 1 0.48 -1.39 10.28 10.28 0 0 1 2.36 -2.6 7 7 0 0 1 2.8 -1.43 0.3 0.3 0 0 0 0.19 0l0.4 0.1A11.08 11.08 0 0 0 12.1 9l1.81 0a11.57 11.57 0 0 0 1.69 -0.11l0.06 -0.05a3.51 3.51 0 0 1 2 0.94 9.4 9.4 0 0 1 2.05 3.68 4.92 4.92 0 0 1 0.22 0.9 3.75 3.75 0 0 1 -0.01 0.82Z" fill="#020202" fill-rule="evenodd" stroke-width="1"></path>
  </g>
</svg>