<svg xmlns="http://www.w3.org/2000/svg" viewBox="0 0 24 24" id="Accessories-Retro-Film-1--Streamline-Freehand">
  <desc>
    Accessories Retro Film 1 Streamline Icon: https://streamlinehq.com
  </desc>
  <g>
    <path d="M15.11 10.19c3 0.44 1.62 0.34 6.09 0.34 0.84 0 1.37 0 1.23 -0.4 0.14 -0.39 -0.37 -0.34 -1.23 -0.4a31.1 31.1 0 0 0 -6 -0.37 8.75 8.75 0 0 0 -0.94 -0.06 0.4 0.4 0 0 0 -0.17 0.78c0.47 0.07 0.91 0.09 1.02 0.11Z" fill="#4C57E6" fill-rule="evenodd" stroke-width="1"></path>
    <path d="M24 7.27a1.78 1.78 0 0 0 -1.1 -1.82 16.41 16.41 0 0 0 -4 -0.58 49.71 49.71 0 0 0 -5.52 0.13c-0.21 -1.09 -1.54 -1.2 -2.57 -1.32 -1.25 -0.14 -1 0 -1 -0.18a3.63 3.63 0 0 0 0 -1.88C9.21 0.3 6.94 0.46 5.6 0.6S4.34 1.68 4.18 2.71c0 0 -0.06 0.46 -0.07 0.77 -2 0.09 -3.26 0 -3 0.39 -0.39 0.66 3.19 0.12 7 0.39 5.63 0.4 4.14 0.73 4.43 2a13.31 13.31 0 0 1 0 2.9c0 3 0.16 6.14 -0.11 8.94 -0.1 1.07 0.29 4.18 -2.32 4.28 -0.85 0 -1.78 -0.08 -2.42 -0.1 -5.44 -0.15 -6.08 -0.31 -6.42 -1.37a11.15 11.15 0 0 1 -0.35 -4c0 -2.73 0.46 -9.33 0.34 -9.34 0.11 -1.71 0.26 -2.5 0.23 -2.63a0.28 0.28 0 0 0 -0.43 -0.21c-0.2 0.09 -0.21 0.4 -0.24 0.71C0.6 8.12 0 13.75 0 18.72c0 1.37 0.32 3.56 1.63 4.13s4.8 0.53 6.1 0.53a22.55 22.55 0 0 0 2.91 0.07c2 -0.23 2.78 -2.68 2.85 -3.24s0 -1.38 0.1 -2c0.23 -2.7 -0.19 -12.48 -0.18 -12.65 1.48 0.19 2.32 -0.12 5.45 0.2a22.59 22.59 0 0 1 3.45 0.59c0.62 0.24 0.62 0.55 0.58 1.21s-0.14 1.25 -0.15 1.65l-0.12 3.13c0 1 0.29 0.9 -1.63 1.57a4.9 4.9 0 0 0 -2.1 1.7c-1.06 1.42 -0.53 3.66 -1.18 5.05a1.82 1.82 0 0 1 -1.86 1c-0.74 -0.06 -1.56 -0.38 -1.56 0.19a0.34 0.34 0 0 0 0.33 0.34c0.35 0 0.75 0.14 1.17 0.18A2.53 2.53 0 0 0 18.44 21c0.75 -1.44 0.39 -3.74 1.24 -4.8 1.52 -1.9 2.53 -1.07 3.71 -2.24a2.11 2.11 0 0 0 0.37 -1.64C24 7 24 7.94 24 7.27ZM9.11 3.54a33.82 33.82 0 0 0 -4.28 -0.09 4.8 4.8 0 0 0 0.08 -0.58c0.29 -0.94 0.18 -1.17 0.8 -1.18S8.64 1.47 9 2s0 1.15 0.11 1.54Z" fill="#020202" fill-rule="evenodd" stroke-width="1"></path>
    <path d="M4.23 8.79c-0.06 0.53 -0.06 1.25 -0.11 2.07S3 18 3.54 21.51c0 0.36 0.92 0.27 0.79 -0.11a9.83 9.83 0 0 1 -0.11 -1.85c0 -2 0.89 -6.18 0.78 -8.68 -0.1 -2.2 -0.16 -1.45 0 -2 1.91 0.09 3.21 0 6.1 -0.09 0.47 0 1.14 0.15 1.27 -0.22 0.24 -0.66 -1 -0.52 -1.22 -0.55a41.9 41.9 0 0 0 -7.47 -0.16l-1.8 0c-0.36 0 -0.35 0.38 0 0.63a7.33 7.33 0 0 0 2.35 0.31Z" fill="#4C57E6" fill-rule="evenodd" stroke-width="1"></path>
    <path d="M15.62 8.37c0.15 0.31 0.32 0.4 0.4 0.37 0.28 0 0.36 -0.23 0.5 -1a1.56 1.56 0 0 0 -0.37 -1.21c-0.23 -0.13 -1.15 0.66 -0.53 1.84Z" fill="#4C57E6" fill-rule="evenodd" stroke-width="1"></path>
    <path d="M18.83 8.37c0.15 0.31 0.32 0.4 0.4 0.37 0.28 0 0.36 -0.23 0.49 -1a1.51 1.51 0 0 0 -0.36 -1.21c-0.23 -0.13 -1.13 0.66 -0.53 1.84Z" fill="#4C57E6" fill-rule="evenodd" stroke-width="1"></path>
  </g>
</svg>