<svg xmlns="http://www.w3.org/2000/svg" viewBox="0 0 24 24" id="Accounting-Cash-Calculator--Streamline-Freehand">
  <desc>
    Accounting Cash Calculator Streamline Icon: https://streamlinehq.com
  </desc>
  <g>
    <path d="M24 21.76a29.38 29.38 0 0 0 0 -3.39c0 -0.31 -0.36 -6.63 -0.54 -7.25A1.79 1.79 0 0 0 22.13 10c-1.53 -0.48 -9.18 0.23 -9.67 0.63a0.37 0.37 0 0 0 0.22 0.67c0.09 0 -0.3 0.06 1 -0.15 0.83 -0.09 2.13 0 7 -0.1 0.48 0 1.34 -0.12 1.74 0.28 0.13 0.12 1 2.13 -0.06 2.2 -2.6 0.18 -4.83 -0.14 -7 -0.09 -0.95 0 -1.79 0.11 -2.82 0.07l0 -0.9c-0.06 -1 0.15 -1.17 -0.24 -1.24a0.32 0.32 0 0 0 -0.31 0.11 1.08 1.08 0 0 0 -0.1 0.35c-0.12 10.67 -0.12 9.8 -0.08 10.09a1.54 1.54 0 0 0 0.45 1.08c2.11 1.53 10.85 0.74 11.61 -0.52a1.12 1.12 0 0 0 0.13 -0.72Zm-1 -7.51 0 1.94c-1.36 0.08 -2.15 0 -3.55 0 -0.07 -0.93 -0.09 -1.09 -0.1 -1.54 4.1 -0.42 2.65 -0.38 3.65 -0.4Zm-10.27 5.31 -0.1 -2.2a14.57 14.57 0 0 0 2.25 0.21 13.62 13.62 0 0 0 0 1.8c-0.05 0 -2.04 0.15 -2.15 0.19Zm3.34 -1.86c0 -0.19 -0.36 -0.05 2.3 -0.27a13.75 13.75 0 0 0 0 1.88 19.44 19.44 0 0 0 -2.29 0c0 -0.2 0.03 -0.69 -0.01 -1.61Zm2.59 -3c0 0.18 -0.18 1.55 -0.18 1.55 -1.64 0.08 -1.93 0.13 -2.51 0.2L15.84 15l0 -0.44a19.14 19.14 0 0 0 2.82 0.13Zm-3.54 -0.22c0 0.2 -0.13 1.57 -0.18 2.09a12.38 12.38 0 0 1 -2.34 0.12l-0.1 -2.53ZM13 22a5.3 5.3 0 0 1 -0.2 -1.9 19.13 19.13 0 0 0 2.25 0.35l0 2A5.15 5.15 0 0 1 13 22Zm3 0.53 0 -0.18c0.13 -1.52 0.08 -1 0.12 -1.9a20.09 20.09 0 0 0 2.38 -0.33c0 0.07 0.24 2.39 0.24 2.39a23.34 23.34 0 0 1 -2.81 0.06Zm7 -0.66c-0.23 0.05 -0.34 0.34 -3.56 0.59 -0.06 -1.06 0.18 -1.67 0.16 -5.17 1.44 -0.16 2.08 -0.16 3.49 -0.39 0.01 3.25 -0.16 4.24 -0.15 5.01Z" fill="#020202" fill-rule="evenodd" stroke-width="1"></path>
    <path d="M9.79 10.67 5.17 11 5 9.7a3.58 3.58 0 0 0 -1.81 -2 13 13 0 0 0 -1.93 -0.66c0 -0.37 0 -0.13 0.07 -1.08C3.88 6.39 5.14 4.14 4.58 2c3.31 -0.4 7.42 -0.34 10.59 -0.52 0.16 2 1.73 3.57 3.89 2.8A11.64 11.64 0 0 1 19.12 6a7 7 0 0 0 -1.53 0 2 2 0 0 0 -1.8 1.3 0.32 0.32 0 0 0 0.49 0.41 14.25 14.25 0 0 1 2.81 -1 8.67 8.67 0 0 1 -0.13 0.89 0.32 0.32 0 0 0 0.62 0.15 18.77 18.77 0 0 0 0.27 -5.13c0 -0.46 0.18 -1.38 -0.18 -1.88 -0.51 -0.74 -2.32 -0.56 -3.15 -0.52 -2.73 0.19 -9.34 0.15 -13.78 1.31 -1 0.35 -1.55 0.51 -1.67 0.57a0.37 0.37 0 0 0 0.18 0.7c0.09 0 1.59 -0.47 1.68 -0.5l0.94 -0.17a3.13 3.13 0 0 1 -2.55 3.16c0 -0.08 0.05 -2 0 -2.12C0.64 2.26 0.53 5.24 0.49 5.46c-0.52 2.93 -1 5.27 0.59 6.12 1.9 1 3.21 0.49 8.79 -0.19a0.36 0.36 0 0 0 -0.08 -0.72Zm9.11 -8.84 0 0.83c0 0.17 0 0.58 0.07 0.87a3.09 3.09 0 0 1 -3 -2.1c1.67 -0.12 2.9 -0.43 2.93 0.4ZM1.65 10.51c-0.65 -0.34 -0.52 -1.87 -0.47 -2.67 0.94 0.39 0.91 0.08 2.33 1.68 0.63 0.72 0.42 0.7 0.81 1.48a5.49 5.49 0 0 1 -2.67 -0.49Z" fill="#4C57E6" fill-rule="evenodd" stroke-width="1"></path>
    <path d="M1.52 14.12a9.19 9.19 0 0 0 5.34 0.12l2.19 -0.66a0.36 0.36 0 0 0 -0.05 -0.72l-5.4 0.64c-1.32 0.16 -1.94 -0.18 -2.21 0s-0.25 0.5 0.13 0.62Z" fill="#4C57E6" fill-rule="evenodd" stroke-width="1"></path>
    <path d="M9 15.38a5.4 5.4 0 0 1 -1.19 0.21l-5 0.29a5.49 5.49 0 0 1 -1.26 -0.15 0.32 0.32 0 0 0 -0.22 0.6 6.58 6.58 0 0 0 2.35 0.57 15.12 15.12 0 0 0 5.56 -0.84 0.36 0.36 0 0 0 -0.24 -0.68Z" fill="#4C57E6" fill-rule="evenodd" stroke-width="1"></path>
    <path d="M10.81 6.07c-0.48 -0.3 -1.65 -0.53 -2 -0.87s-0.32 -0.36 0 -0.63c0.62 -0.51 1.26 -0.38 1.31 -0.26a0.32 0.32 0 0 0 0.61 -0.18 1.05 1.05 0 0 0 -1 -0.66 1 1 0 0 0 -0.59 -1.29A0.93 0.93 0 0 0 9 3.55a1.67 1.67 0 0 0 -1.44 1.62 1.64 1.64 0 0 0 0.44 0.76c0.58 0.8 1.59 0.78 2.23 1.17 0.49 0.28 0.55 0.06 0.05 0.35s-1.6 0.64 -1.76 0a0.36 0.36 0 0 0 -0.71 0.16c0.09 0.55 0.46 0.94 1.28 1 -0.23 0.39 0.14 1.39 0.54 1.39s0.7 -1 0.41 -1.38c0.72 -0.18 1.49 -0.48 1.6 -1.21s-0.37 -1.04 -0.83 -1.34Z" fill="#020202" fill-rule="evenodd" stroke-width="1"></path>
  </g>
</svg>