<svg xmlns="http://www.w3.org/2000/svg" viewBox="0 0 24 24" id="Activities-Crosswords--Streamline-Freehand">
  <desc>
    Activities Crosswords Streamline Icon: https://streamlinehq.com
  </desc>
  <title>activities-crosswords</title>
  <g>
    <path d="M23.13 21a17.25 17.25 0 0 0 -1.57 -1.61l-1 -1a5.84 5.84 0 0 0 0.55 -1.84 5.38 5.38 0 0 0 -0.34 -3 4.46 4.46 0 0 0 -2.07 -2.17 0.33 0.33 0 0 0 -0.45 0.14 0.33 0.33 0 0 0 0.13 0.45 3.75 3.75 0 0 1 1.68 1.87 4.78 4.78 0 0 1 0.19 2.54 4.18 4.18 0 0 1 -2.33 3.25 5.31 5.31 0 0 1 -4.09 0 3.85 3.85 0 0 1 -2.15 -2.1 4.77 4.77 0 0 1 -0.25 -3.13 4.41 4.41 0 0 1 1 -1.8 5.05 5.05 0 0 1 1.7 -1.29 3.78 3.78 0 0 1 1.49 -0.3 3.88 3.88 0 0 1 1.52 0.24 0.3 0.3 0 0 0 0.39 -0.16 0.31 0.31 0 0 0 -0.16 -0.39 4.72 4.72 0 0 0 -1.74 -0.35 4.61 4.61 0 0 0 -1.78 0.27 6.23 6.23 0 0 0 -2 1.39 5.54 5.54 0 0 0 -1.35 2.12 5.64 5.64 0 0 0 0.17 3.83 4.88 4.88 0 0 0 2.78 2.73 6.35 6.35 0 0 0 4.93 -0.12l0.1 -0.06c0.06 0.11 0.85 1 0.85 1l0.59 0.6a7.13 7.13 0 0 0 1.8 1.61 1.46 1.46 0 0 0 1.45 -0.12 1.17 1.17 0 0 0 0.47 -0.74 2.41 2.41 0 0 0 0 -0.93 2.69 2.69 0 0 0 -0.51 -0.93Zm-0.64 1.81a0.5 0.5 0 0 1 -0.53 -0.1 8.37 8.37 0 0 1 -1.27 -1.24l-0.61 -0.6 -0.7 -0.69a0.48 0.48 0 0 1 -0.09 -0.13 4.13 4.13 0 0 0 0.65 -0.67c0.09 0.07 0.69 0.75 0.77 0.83 0.37 0.38 0.9 0.8 1.31 1.27a2.9 2.9 0 0 1 0.47 0.81c0.17 0.41 0 0.53 0 0.53Z" fill="#020202" stroke-width="1"></path>
    <path d="M16.16 13.54a3.2 3.2 0 0 1 0.52 0.27 3 3 0 0 1 0.72 0.71 7.06 7.06 0 0 1 0.52 1c0.07 0.16 0.16 0.29 0.23 0.44a0.42 0.42 0 0 0 0.82 -0.2 3.76 3.76 0 0 0 -0.1 -0.66 3.45 3.45 0 0 0 -0.45 -0.9 3.81 3.81 0 0 0 -1.21 -1.2 2.89 2.89 0 0 0 -1.21 -0.48 1.31 1.31 0 0 0 -0.76 0.06c-0.65 0.37 -0.09 0.77 0.28 0.83a4.16 4.16 0 0 1 0.64 0.13Z" fill="#4C57E6" stroke-width="1"></path>
    <path d="M9.88 22a16.32 16.32 0 0 1 -2.69 0.33 4.85 4.85 0 0 1 -1.33 -0.08 0.67 0.67 0 0 1 -0.17 -0.07l0 -4.16 0 -0.75 0.77 0.14a2 2 0 0 0 0.35 0 3.13 3.13 0 0 0 0.53 0c0.58 -0.07 1.09 -0.23 1.29 -0.26a0.34 0.34 0 1 0 0 -0.67 9.44 9.44 0 0 0 -1.33 -0.18 3.09 3.09 0 0 0 -0.53 0c-0.12 0 -0.24 0 -0.35 0.06 -0.31 0.07 -0.56 0.15 -0.73 0.2 0 -1.6 0 -3.38 0.05 -5.16l4.71 0a0.34 0.34 0 0 0 0.34 -0.34 0.33 0.33 0 0 0 -0.12 -0.25l0 -4.45H16l-0.07 0.33c0 0.13 -0.06 0.25 -0.08 0.37a3.75 3.75 0 0 0 0 0.58A11.93 11.93 0 0 0 16 9.07a0.34 0.34 0 1 0 0.67 0c0.08 -0.47 0.2 -0.92 0.27 -1.4a5.44 5.44 0 0 0 0 -0.57l0 -0.38c0 -0.13 0 -0.21 -0.08 -0.38l6 0a3.94 3.94 0 0 1 0.08 0.42 19.91 19.91 0 0 1 0 3.62l0 0.24 -2.3 0.06a0.3 0.3 0 0 0 0 0.59l2.36 0a1.38 1.38 0 0 0 0.39 0 0.38 0.38 0 0 0 0.19 -0.31c0 -0.06 0 -0.19 0.05 -0.37a21.73 21.73 0 0 0 0.12 -3.78 2 2 0 0 0 -0.31 -1 0.61 0.61 0 0 0 -0.46 -0.26c-0.5 0 -5.65 -0.2 -10.81 -0.25h-1.46l0 -2.49a17.3 17.3 0 0 0 -0.06 -2.34 0.47 0.47 0 0 0 -0.41 -0.27l-0.38 0a21 21 0 0 0 -3.8 -0.15A2.34 2.34 0 0 0 5 0.39a0.74 0.74 0 0 0 -0.3 0.61c0 0.28 0 2 -0.06 4.3 -1.82 0 -3.11 0.06 -3.35 0.09a0.87 0.87 0 0 0 -0.61 0.39 3.24 3.24 0 0 0 -0.4 1.45 16.87 16.87 0 0 0 0.12 3.34 1.72 1.72 0 0 0 0.18 0.59 0.66 0.66 0 0 0 0.38 0.18l0.9 0 2.79 0v0.21c0 5.08 0.17 10.17 0.25 10.69a0.72 0.72 0 0 0 0.38 0.52 3 3 0 0 0 1.41 0.24 14.61 14.61 0 0 0 3.78 -0.61 0.33 0.33 0 0 0 0 -0.47c-0.16 -0.15 -0.47 0.08 -0.59 0.08Zm0.18 -11.27 -4.32 -0.08 0 -1.13 0 -3.14H10ZM5.78 1.16l0.32 0a18.7 18.7 0 0 1 3.58 0h0.13l0.11 4.12 -4.16 0c0.01 -2.07 0.01 -3.61 0.02 -4.12ZM1.89 10.5a3.85 3.85 0 0 1 -0.58 -0.1 0.36 0.36 0 0 1 0 -0.1 17.11 17.11 0 0 1 -0.07 -2 7.61 7.61 0 0 1 0.17 -1.7c0 -0.09 0.11 -0.17 0.13 -0.23h3.1l0 4.24c-1.16 -0.04 -2.11 -0.08 -2.75 -0.11Z" fill="#020202" stroke-width="1"></path>
  </g>
</svg>