<svg xmlns="http://www.w3.org/2000/svg" viewBox="0 0 24 24" id="Add-Square--Streamline-Freehand">
  <desc>
    Add Square Streamline Icon: https://streamlinehq.com
  </desc>
  <g>
    <path d="M24 8.68a47.71 47.71 0 0 0 -0.25 -4.77A3.59 3.59 0 0 0 23 2.15a2.59 2.59 0 0 0 -1.73 -0.93 84 84 0 0 0 -11 -0.47A39.32 39.32 0 0 0 3 1.4a4.51 4.51 0 0 0 -2 1.12 2.75 2.75 0 0 0 -0.7 1.41 41 41 0 0 0 -0.3 6.82 81.27 81.27 0 0 0 0.75 10.13 2.28 2.28 0 0 0 1 1.43 5.07 5.07 0 0 0 2.25 0.78 29.56 29.56 0 0 0 4.25 0.16c3.17 0 7 -0.3 9.78 -0.37a0.33 0.33 0 0 0 0.33 -0.34 0.34 0.34 0 0 0 -0.36 -0.34c-2.8 0 -6.61 0.23 -9.78 0.23a29.52 29.52 0 0 1 -4.11 -0.21 4.35 4.35 0 0 1 -1.55 -0.49 1.55 1.55 0 0 1 -0.87 -1 74.58 74.58 0 0 1 -0.55 -8.31 49.24 49.24 0 0 1 0.3 -8.27 1.8 1.8 0 0 1 0.64 -1 3.39 3.39 0 0 1 1.17 -0.63 41 41 0 0 1 7.12 -0.61 86.64 86.64 0 0 1 10.82 0.35 1.61 1.61 0 0 1 1.09 0.55A2.5 2.5 0 0 1 22.75 4c0.16 1.15 0.27 2.81 0.33 4.66 0.14 4 0.11 8.72 0.14 11a3 3 0 0 1 -0.39 1.58 1.43 1.43 0 0 1 -1.17 0.82l-2 0.06a0.3 0.3 0 1 0 0 0.6l2 0a1.91 1.91 0 0 0 1.5 -0.72 3.68 3.68 0 0 0 0.76 -2.26c0.01 -2.33 0.13 -7.1 0.08 -11.06Z" fill="#4C57E6" stroke-width="1"></path>
    <path d="M19 11.92a29.45 29.45 0 0 0 -4.58 -0.2l-0.92 0 0 -0.37c-0.06 -1 -0.2 -1.89 -0.35 -2.84a11.07 11.07 0 0 0 -0.57 -2.2c-0.18 -0.38 -0.43 -0.58 -0.64 -0.56s-0.36 0.14 -0.31 0.3a4.58 4.58 0 0 1 0.5 1.25 8.2 8.2 0 0 1 0.12 1.32l0.12 3.17h-0.22c-0.82 0.07 -1.59 0.17 -2.25 0.24 -0.43 0.06 -0.87 0.11 -1.32 0.14l-2 0.11a0.34 0.34 0 0 0 -0.34 0.3 0.31 0.31 0 0 0 0.23 0.33 1.55 1.55 0 0 0 0.41 0l1.75 0.1 1.39 0c0.71 0 1.54 -0.07 2.43 -0.13l0.11 2.67c0 0.19 0.16 2.07 0.22 2.66a1.64 1.64 0 0 0 0 0.22c0 0.88 0.15 1.32 0.33 1.3 0.21 0.31 0.41 -0.19 0.36 -1.48a0.17 0.17 0 0 0 0 -0.07l0 -2.62c0 -0.71 0.08 -1.41 0.08 -2.12l0 -0.63c0.91 -0.08 1.84 -0.17 2.73 -0.23a24.68 24.68 0 0 1 2.67 -0.05 0.33 0.33 0 0 0 0.37 -0.31 0.34 0.34 0 0 0 -0.32 -0.3Z" fill="#020202" stroke-width="1"></path>
  </g>
</svg>