<svg xmlns="http://www.w3.org/2000/svg" viewBox="0 0 24 24" id="Advertising-Ad-Bubble-Money-1--Streamline-Freehand">
  <desc>
    Advertising Ad Bubble Money 1 Streamline Icon: https://streamlinehq.com
  </desc>
  <g>
    <path d="M21.33 11.22A5.23 5.23 0 0 0 19.83 8a0.33 0.33 0 0 0 -0.46 0.05 0.32 0.32 0 0 0 0.05 0.46 4.48 4.48 0 0 1 1.08 2.81 20.76 20.76 0 0 1 -0.07 4.87c-0.05 0.48 -0.06 1.26 -0.19 1.94a1.41 1.41 0 0 1 -0.33 0.85 5.74 5.74 0 0 1 -2.89 0.78 29.52 29.52 0 0 1 -4.94 0 0.29 0.29 0 0 0 -0.33 0.25 0.28 0.28 0 0 0 0.25 0.32 27.88 27.88 0 0 0 5.07 0.38 6.67 6.67 0 0 0 3.52 -0.84 2.16 2.16 0 0 0 0.66 -1.15 15 15 0 0 0 0.26 -2.39 22.36 22.36 0 0 0 -0.18 -5.11Z" fill="#020202" fill-rule="evenodd" stroke-width="1"></path>
    <path d="M11.42 20.26a0.33 0.33 0 0 0 -0.42 0.2l-0.53 1.31 -0.43 0.87a2.62 2.62 0 0 1 -0.37 0.52l-0.06 0 -0.06 -0.08a1.72 1.72 0 0 1 -0.14 -0.33c-0.2 -0.56 -0.34 -1.35 -0.52 -1.92 0 -0.09 -0.16 -0.66 -0.24 -0.88a0.57 0.57 0 0 0 -0.41 -0.38c-0.61 -0.1 -1.83 -0.1 -2.82 -0.23a2.84 2.84 0 0 1 -1 -0.25 0.85 0.85 0 0 1 -0.24 -0.34 4.58 4.58 0 0 1 -0.31 -0.93 19.83 19.83 0 0 1 -0.38 -4.13 22.26 22.26 0 0 1 0.31 -4.16c0.14 -0.68 0.26 -1.2 0.51 -1.37a4.33 4.33 0 0 1 2.11 -0.35c1.63 0 3.75 0.12 5.66 0a0.28 0.28 0 0 0 0.28 -0.29 0.28 0.28 0 0 0 -0.29 -0.28C9.85 7.31 7.31 7 5.62 7a3.8 3.8 0 0 0 -1.8 0.38A2.45 2.45 0 0 0 3 8.73a18.4 18.4 0 0 0 -0.61 5 16.75 16.75 0 0 0 0.61 5 2.25 2.25 0 0 0 1 1.32 3.81 3.81 0 0 0 1.35 0.33c0.82 0.09 1.79 0.07 2.45 0.11a4.73 4.73 0 0 0 0.31 0.66c0.24 0.67 0.44 1.66 0.72 2.22a1.08 1.08 0 0 0 0.63 0.61c0.31 0.08 0.8 -0.09 1.27 -1l0.44 -1 0.49 -1.34a0.34 0.34 0 0 0 -0.24 -0.38Z" fill="#020202" fill-rule="evenodd" stroke-width="1"></path>
    <path d="M11 16.51a0.32 0.32 0 0 0 0.26 0.38 0.33 0.33 0 0 0 0.38 -0.27 11.23 11.23 0 0 0 0.28 -2.88 6.38 6.38 0 0 0 -0.38 -2 2.87 2.87 0 0 0 -0.18 -0.4 3.09 3.09 0 0 0 -0.26 -0.37l-0.55 -0.49a1.69 1.69 0 0 0 -1.77 -0.21 3.21 3.21 0 0 0 -1.33 1.91l-0.33 1.58a9.41 9.41 0 0 0 0 1.4 12.67 12.67 0 0 0 0.11 1.36 0.3 0.3 0 0 0 0.31 0.26 0.29 0.29 0 0 0 0.27 -0.31 11.26 11.26 0 0 1 0 -1.3 5.82 5.82 0 0 1 0.08 -0.73c0.38 0.07 0.74 0.15 1.12 0.19a3.69 3.69 0 0 0 0.58 0 5.65 5.65 0 0 0 0.58 0c0.32 0 0.64 -0.08 1 -0.13a13 13 0 0 1 -0.17 2.01Zm-0.88 -2.89 -0.58 0 -0.57 0c-0.33 0 -0.64 0.1 -1 0.16l0.39 -1.25a2.84 2.84 0 0 1 0.69 -1.13c0.21 -0.17 0.48 -0.2 0.86 0l0.33 0.28 0.3 0.45a5.6 5.6 0 0 1 0.46 1.61c-0.32 -0.05 -0.62 -0.09 -0.92 -0.12Z" fill="#4C57E6" fill-rule="evenodd" stroke-width="1"></path>
    <path d="M12.58 15.23a6.32 6.32 0 0 1 -0.13 1 0.29 0.29 0 0 0 0.21 0.35 0.28 0.28 0 0 0 0.35 -0.21 7.3 7.3 0 0 0 0.22 -1c0.09 -0.51 0.14 -1 0.2 -1.52l0.16 -1.48c0 -0.08 0 -0.52 0.07 -0.8l0.63 0.08a3.49 3.49 0 0 1 1.27 0.47 3 3 0 0 1 1 0.88 1.11 1.11 0 0 1 0.12 1.19 3.49 3.49 0 0 1 -1 1.24 3.6 3.6 0 0 1 -1 0.65 2.62 2.62 0 0 1 -1.13 0.21 0.32 0.32 0 0 0 -0.35 0.3 0.33 0.33 0 0 0 0.3 0.35 3.23 3.23 0 0 0 1.45 -0.17 4.3 4.3 0 0 0 1.24 -0.77 4 4 0 0 0 1.5 -1.88 2.06 2.06 0 0 0 -0.26 -1.81 4.27 4.27 0 0 0 -1.3 -1.22 4.68 4.68 0 0 0 -1.66 -0.6 5.64 5.64 0 0 0 -0.94 -0.1 1.31 1.31 0 0 0 -0.6 0.12 0.8 0.8 0 0 0 -0.4 0.63 7.53 7.53 0 0 0 0.13 1.15l0 1.43a14.65 14.65 0 0 1 -0.08 1.51Z" fill="#4C57E6" fill-rule="evenodd" stroke-width="1"></path>
    <path d="M14.54 5.57a7.92 7.92 0 0 0 2.17 0c0.49 0 1 -0.06 1.13 0.43s-0.26 1 -0.84 1.26a3.59 3.59 0 0 1 -2 0.45 1.42 1.42 0 0 1 -0.58 -0.2 3.33 3.33 0 0 1 -0.56 -0.43 0.33 0.33 0 0 0 -0.46 0 0.32 0.32 0 0 0 0 0.46 4.36 4.36 0 0 0 0.78 0.64 2.6 2.6 0 0 0 0.68 0.26 3.84 3.84 0 0 0 0.77 0l0 0.15a1.82 1.82 0 0 0 0 0.33 1.45 1.45 0 0 0 0.06 0.3c0.24 1 0.34 1.06 0.55 1.05s0.36 -0.09 0.48 -1.11a1.82 1.82 0 0 0 0 -0.33 1.13 1.13 0 0 0 -0.05 -0.32 1.43 1.43 0 0 0 -0.08 -0.22 4.39 4.39 0 0 0 1.33 -0.55 1.88 1.88 0 0 0 0.95 -2.17 1.57 1.57 0 0 0 -1 -1.06 5.61 5.61 0 0 0 -2.25 0 3.42 3.42 0 0 1 -0.85 0 0.6 0.6 0 0 1 -0.47 -0.28c-0.36 -0.61 0 -1.07 0.54 -1.36A3.69 3.69 0 0 1 17 2.51a0.29 0.29 0 0 0 0.34 -0.23 0.3 0.3 0 0 0 -0.24 -0.34 4.09 4.09 0 0 0 -1.27 -0.05 1.6 1.6 0 0 0 0 -0.21l0 -0.32a2.84 2.84 0 0 0 -0.06 -0.31c-0.24 -1 -0.34 -1.06 -0.56 -1s-0.36 0.09 -0.47 1.11a1.88 1.88 0 0 0 0 0.33 1.65 1.65 0 0 0 0.06 0.32 2.09 2.09 0 0 0 0.11 0.3 3.3 3.3 0 0 0 -0.89 0.4 1.64 1.64 0 0 0 -0.6 2.24 1.59 1.59 0 0 0 1.12 0.82Z" fill="#020202" fill-rule="evenodd" stroke-width="1"></path>
  </g>
</svg>