<svg xmlns="http://www.w3.org/2000/svg" viewBox="0 0 24 24" id="Advertising-Target-Audience-1--Streamline-Freehand">
  <desc>
    Advertising Target Audience 1 Streamline Icon: https://streamlinehq.com
  </desc>
  <g>
    <path d="M23.67 11.89a11.78 11.78 0 0 0 -1.88 -0.07h-0.1a10 10 0 0 0 -2.77 -7 8.66 8.66 0 0 0 -5.73 -2.26l-0.85 0a1.7 1.7 0 0 0 0 -0.22c-0.05 -0.53 -0.14 -1 -0.19 -1.57a0.29 0.29 0 0 0 -0.27 -0.3 0.3 0.3 0 0 0 -0.31 0.27c-0.1 0.54 -0.22 1.06 -0.27 1.6l0 0.3a11.58 11.58 0 0 0 -4.1 1.27 10.9 10.9 0 0 0 -4.77 5.3 9.38 9.38 0 0 0 -0.69 3.27c-0.47 0 -0.92 0.08 -1.39 0.13a0.33 0.33 0 1 0 0 0.65c0.48 0.06 1 0.16 1.42 0.21a8.93 8.93 0 0 0 0.72 2.84 8.62 8.62 0 0 0 5.92 4.57 12 12 0 0 0 3 0.37l0 0.44c0.06 0.49 0.14 1 0.2 1.44a0.33 0.33 0 0 0 0.32 0.34 0.32 0.32 0 0 0 0.32 -0.33 14.6 14.6 0 0 0 0.19 -1.48 3.68 3.68 0 0 0 0 -0.47 8.57 8.57 0 0 0 3.32 -1 0.27 0.27 0 0 0 0.11 -0.38 0.28 0.28 0 0 0 -0.38 -0.11 8.17 8.17 0 0 1 -3.09 0.83 0.76 0.76 0 0 0 0 -0.15 11.53 11.53 0 0 0 -0.34 -1.38 0.28 0.28 0 1 0 -0.56 0.06c0 0.48 -0.1 1 -0.12 1.45v0.14a11.16 11.16 0 0 1 -2.8 -0.42A7.88 7.88 0 0 1 3.3 16a7.82 7.82 0 0 1 -0.57 -2.42H3a9.36 9.36 0 0 0 1.8 -0.38 0.29 0.29 0 0 0 0.2 -0.33 0.27 0.27 0 0 0 -0.31 -0.24c-0.52 0 -1 -0.09 -1.53 -0.14h-0.43a8.41 8.41 0 0 1 0.66 -2.84A9.88 9.88 0 0 1 7.71 4.9a10.5 10.5 0 0 1 3.6 -1.15c0 0.52 0.12 1 0.17 1.56a0.33 0.33 0 0 0 0.31 0.34 0.34 0.34 0 0 0 0.34 -0.32c0.07 -0.54 0.15 -1.06 0.19 -1.59a0.22 0.22 0 0 1 0 -0.08l0.82 0a7.7 7.7 0 0 1 5.1 1.89 9 9 0 0 1 2.62 6.4l-0.16 0c-0.54 0.08 -1.05 0.23 -1.6 0.27a0.3 0.3 0 0 0 -0.31 0.27 0.3 0.3 0 0 0 0.27 0.3 8.89 8.89 0 0 0 1.77 0.2 8.39 8.39 0 0 1 -3.53 6.54 0.32 0.32 0 0 0 -0.11 0.45 0.33 0.33 0 0 0 0.45 0.1 9.17 9.17 0 0 0 4 -7.16l0.43 -0.06c0.55 -0.1 1.06 -0.24 1.6 -0.32a0.32 0.32 0 1 0 0 -0.64Z" fill="#4C57E6" fill-rule="evenodd" stroke-width="1"></path>
    <path d="M12.68 15a4 4 0 0 1 0.7 0.05 3.11 3.11 0 0 1 0.67 0.16c0.1 0 0.37 0.2 0.56 0.26a0.68 0.68 0 0 0 0.43 0 0.54 0.54 0 0 0 0.36 -0.63c0 -0.11 -0.12 -0.39 -0.13 -0.41l-3.06 -7v-0.02a0.29 0.29 0 0 0 -0.21 -0.34 0.3 0.3 0 0 0 -0.34 0.23 5.3 5.3 0 0 1 -0.85 2 4.61 4.61 0 0 1 -1.54 1.4 12.05 12.05 0 0 0 -2.6 1.49A2 2 0 0 0 6 13.54a2.1 2.1 0 0 0 0.56 1.61 2.3 2.3 0 0 0 1.54 0.69h0.33a3.16 3.16 0 0 0 0.2 0.59 2.24 2.24 0 0 0 0.36 0.51 2.22 2.22 0 0 0 0.33 0.28 2.07 2.07 0 0 0 1.67 0.33 0.34 0.34 0 0 0 0.3 -0.35 0.33 0.33 0 0 0 -0.35 -0.3 1.53 1.53 0 0 1 -0.77 -0.32c-0.09 -0.08 -0.17 -0.18 -0.26 -0.26s-0.27 -0.3 -0.41 -0.46l-0.12 -0.15c0.7 -0.17 1.41 -0.45 2.09 -0.55Zm-5.4 -0.61A1.11 1.11 0 0 1 7 13.6a1.39 1.39 0 0 1 0.61 -1 5.62 5.62 0 0 1 0.5 -0.35c0.07 0.22 0.13 0.45 0.22 0.67a4.73 4.73 0 0 0 0.29 0.6c0.16 0.3 0.35 0.58 0.48 0.89a0.32 0.32 0 0 0 0.16 0.2l-0.26 0.05a3.2 3.2 0 0 1 -0.86 0.1 1.31 1.31 0 0 1 -0.86 -0.35Zm2.38 0.07a0.33 0.33 0 0 0 0 -0.24 4.62 4.62 0 0 0 -0.15 -1.1 3.26 3.26 0 0 0 -0.15 -0.44 2.38 2.38 0 0 0 -0.23 -0.41 4.31 4.31 0 0 0 -0.39 -0.46c0.32 -0.17 0.63 -0.33 0.88 -0.48a5.47 5.47 0 0 0 1.7 -1.72 5.53 5.53 0 0 0 0.54 -1.09l2.22 5.65 -0.53 -0.17a5.14 5.14 0 0 0 -0.88 -0.08l-1.4 0.12a13 13 0 0 0 -1.61 0.44Z" fill="#020202" fill-rule="evenodd" stroke-width="1"></path>
    <path d="M15.66 6.56c-0.24 0.18 -0.48 0.32 -0.73 0.5a3 3 0 0 0 -0.28 0.22 2 2 0 0 0 -0.26 0.24 8.36 8.36 0 0 1 -0.55 0.66 0.29 0.29 0 0 0 -0.1 0.39 0.28 0.28 0 0 0 0.39 0.11 4 4 0 0 0 0.92 -0.34 2.51 2.51 0 0 0 0.32 -0.25 2 2 0 0 0 0.28 -0.3 8.85 8.85 0 0 0 0.5 -0.79 0.34 0.34 0 0 0 0 -0.46 0.33 0.33 0 0 0 -0.49 0.02Z" fill="#020202" fill-rule="evenodd" stroke-width="1"></path>
    <path d="M18.29 13.32a0.32 0.32 0 0 0 -0.16 -0.43 3 3 0 0 0 -0.88 -0.47 2.22 2.22 0 0 0 -0.41 -0.1 2 2 0 0 0 -0.42 0 4.62 4.62 0 0 0 -0.92 0.25 0.3 0.3 0 0 0 -0.27 0.31 0.28 0.28 0 0 0 0.31 0.26c0.32 0.06 0.62 0.19 1 0.24a4.93 4.93 0 0 0 0.54 0 3.77 3.77 0 0 1 0.82 0.05 0.33 0.33 0 0 0 0.39 -0.11Z" fill="#020202" fill-rule="evenodd" stroke-width="1"></path>
    <path d="M15.66 9.47s-0.91 0.64 -0.77 0.93c0 0.1 0.1 0.28 1.19 0a1.92 1.92 0 0 0 0.31 -0.11 1.25 1.25 0 0 0 0.28 -0.15c0.9 -0.52 0.95 -0.61 0.89 -0.82s-0.07 -0.37 -1.25 -0.14l-0.34 0.1a1.82 1.82 0 0 0 -0.31 0.19Z" fill="#020202" fill-rule="evenodd" stroke-width="1"></path>
  </g>
</svg>