<svg xmlns="http://www.w3.org/2000/svg" viewBox="0 0 24 24" id="Adventure-Car-Offroad--Streamline-Freehand">
  <desc>
    Adventure Car Offroad Streamline Icon: https://streamlinehq.com
  </desc>
  <g>
    <path d="m3.44 9.79 -0.19 -0.1A5.66 5.66 0 0 0 2 9.5a4.28 4.28 0 0 0 -0.62 0L1 9.52a0.27 0.27 0 0 0 -0.26 -0.22 0.28 0.28 0 0 0 -0.33 0.24 6.7 6.7 0 0 0 -0.06 1.1c0 0.82 0.13 1.65 0.11 2.45l-0.16 7 -0.15 2.32a4.35 4.35 0 0 0 0 1.06 0.68 0.68 0 0 0 0.35 0.39 1.7 1.7 0 0 0 0.71 0.14 4.48 4.48 0 0 0 0.84 -0.11l2.31 -0.29c2.32 -0.21 4.66 -0.2 7 -0.33q0.88 0 1.77 -0.12l4.41 -0.43c1 -0.08 1.9 -0.08 2.83 -0.18a10 10 0 0 0 1.9 -0.38 0.32 0.32 0 1 0 -0.18 -0.62l-0.21 0a3.51 3.51 0 0 0 -1.33 -1c-0.89 -0.43 -2 -0.67 -2.85 -1.14l0.09 0a1.59 1.59 0 0 0 1.38 -0.54 1.77 1.77 0 0 0 0.44 -1.32A1.81 1.81 0 0 0 18.33 16a0.32 0.32 0 0 0 -0.33 0.08 1.42 1.42 0 0 0 -1.61 1.43 1.86 1.86 0 0 0 -0.29 -0.44 2.13 2.13 0 0 0 -0.64 -0.53 3 3 0 0 0 -0.61 -0.23c-0.51 -0.14 -1.08 -0.15 -1.58 -0.32a1.65 1.65 0 0 0 0.68 -0.63 1.8 1.8 0 0 0 0 -2 1.1 1.1 0 0 0 -0.38 -0.33 2.39 2.39 0 0 0 -0.37 -0.15 0.28 0.28 0 0 0 -0.2 -0.18 1.57 1.57 0 0 0 -1.53 0.39 2 2 0 0 0 -0.66 1.21l-0.59 -0.08c-0.61 -0.12 -1.31 -0.22 -2 -0.38a5.57 5.57 0 0 1 -1.15 -0.41 0.6 0.6 0 0 1 -0.26 -0.23 5.27 5.27 0 0 0 -0.53 -0.8 1.84 1.84 0 0 0 -0.41 -0.31 5.24 5.24 0 0 1 -1.25 -0.56 0.54 0.54 0 0 1 -0.15 -0.22 8.06 8.06 0 0 0 -0.37 -1 1.48 1.48 0 0 0 -0.27 -0.31M18 16.64a0.19 0.19 0 0 0 0.13 0 1.15 1.15 0 0 1 0.47 0.4 1 1 0 0 1 0.13 0.58 0.8 0.8 0 0 1 -0.3 0.55 0.54 0.54 0 0 1 -0.48 0.18 0.61 0.61 0 0 1 -0.47 -0.33 1.08 1.08 0 0 1 -0.18 -0.73 0.71 0.71 0 0 1 0.7 -0.65Zm-6 -3a1.07 1.07 0 0 1 0.6 -0.39 0.32 0.32 0 0 0 0.18 0.18 2.7 2.7 0 0 1 0.34 0.17 0.39 0.39 0 0 1 0.15 0.16 1 1 0 0 1 -0.14 1 0.65 0.65 0 0 1 -0.78 0.24 0.76 0.76 0 0 1 -0.18 -0.09l-0.17 -0.14 -0.13 -0.07a0.47 0.47 0 0 1 -0.11 -0.21 1 1 0 0 1 0.24 -0.83Zm8.32 8.17c-0.91 0.07 -1.83 0.05 -2.81 0.09l-4.43 0.29c-2 0.12 -4.08 0.1 -6.12 0.15 -0.89 0 -1.77 0.07 -2.65 0.13l-2.42 0.32a4.82 4.82 0 0 1 -0.57 0.1 4.08 4.08 0 0 0 -0.09 -0.46L1.29 20l-0.12 -6.95c0 -0.81 -0.17 -1.64 -0.21 -2.47l0 -0.51 1 0a5.55 5.55 0 0 1 1.04 0.28 0.79 0.79 0 0 1 0.44 0.33 5.82 5.82 0 0 1 0.26 0.93 1.37 1.37 0 0 0 0.32 0.51 1.57 1.57 0 0 0 0.38 0.3c0.39 0.23 0.91 0.3 1.17 0.62s0.31 0.6 0.51 0.86a1.73 1.73 0 0 0 0.47 0.41 5.87 5.87 0 0 0 1.45 0.56c0.67 0.19 1.4 0.31 2 0.44l1.13 0.19a0.17 0.17 0 0 1 0.08 0.06l0.21 0.17 0.13 0.18a4.44 4.44 0 0 0 0.42 0.55 1.85 1.85 0 0 0 0.44 0.34 3.07 3.07 0 0 0 0.59 0.2 9.65 9.65 0 0 1 2 0.39 1.56 1.56 0 0 1 0.74 0.91 5.32 5.32 0 0 0 0.51 1 2.24 2.24 0 0 0 0.59 0.55 25.66 25.66 0 0 0 3.44 1.29 3.27 3.27 0 0 1 0.85 0.55c-0.27 0.09 -0.54 0.12 -0.81 0.14Z" fill="#020202" fill-rule="evenodd" stroke-width="1"></path>
    <path d="m23.72 9.23 -1.17 -0.65c-0.52 -0.3 -1 -0.63 -1.53 -0.9S20 7.19 19.4 7s-0.85 -0.36 -1.29 -0.51a3.64 3.64 0 0 0 -0.63 -0.16 0.29 0.29 0 0 0 -0.13 0.57 2.09 2.09 0 0 1 0.48 0.22c0.15 0.08 0.28 0.18 0.42 0.27a1.41 1.41 0 0 0 -0.18 0.17 0.46 0.46 0 0 0 -0.09 0.17 1.06 1.06 0 0 0 0 0.19 2.08 2.08 0 0 0 0 0.25l-0.63 -0.36a5.22 5.22 0 0 0 -0.89 -0.41 1.71 1.71 0 0 0 -0.54 -0.07 2.52 2.52 0 0 0 -0.76 0.2 10.74 10.74 0 0 0 -1.34 0.74 5.5 5.5 0 0 0 -0.56 0.38l-0.63 0.51 -0.37 -0.27 -0.31 -0.19a3.13 3.13 0 0 0 -0.32 -0.15 4.71 4.71 0 0 1 -0.77 -0.29 0.29 0.29 0 0 0 -0.32 0 0.27 0.27 0 0 0 -0.32 0.13l-0.75 1.07c-0.13 0.23 -0.29 0.45 -0.4 0.67a1.67 1.67 0 0 0 -0.17 0.7 1.2 1.2 0 0 0 0.74 1.11l0.76 0.28 0.83 0.34a0.31 0.31 0 0 0 0.37 -0.08l0.07 0 0.32 -0.26c0.09 0 0.18 -0.13 0.29 -0.2a0.45 0.45 0 0 1 0.18 -0.07c0.08 0 0.16 0.06 0.24 0.1a2.62 2.62 0 0 1 0.43 0.28c0.19 0.14 0.39 0.27 0.55 0.37l0.44 0.18c0.8 0.27 0.34 0.08 0.86 1.36a0.43 0.43 0 0 0 0.09 0.1 0.28 0.28 0 0 0 0.12 0.28c0.18 0.12 0.42 0.41 0.65 0.61a1.41 1.41 0 0 0 0.52 0.26 2.35 2.35 0 0 0 0.53 0 5.26 5.26 0 0 0 0.88 -0.17 2 2 0 0 1 0.63 -0.08 1 1 0 0 1 0.29 0.08c0.21 0.09 0.41 0.21 0.6 0.31l0.51 0.26a2.43 2.43 0 0 1 0.2 0.61 10.85 10.85 0 0 1 0.16 1.08 0.33 0.33 0 1 0 0.65 0 11.22 11.22 0 0 0 0 -1.16 3.28 3.28 0 0 0 -0.15 -0.85 1 1 0 0 0 -0.25 -0.39 3.61 3.61 0 0 0 -0.58 -0.43 6.1 6.1 0 0 0 -0.7 -0.41 2.15 2.15 0 0 0 -0.65 -0.17 2.09 2.09 0 0 0 -0.56 0 7 7 0 0 0 -0.84 0.3 1.81 1.81 0 0 1 -0.63 0.18 0.62 0.62 0 0 1 -0.29 -0.11c-0.2 -0.13 -0.4 -0.28 -0.57 -0.38a0.39 0.39 0 0 0 0 -0.15c-0.07 -0.33 -0.06 -0.66 -0.11 -1a1.7 1.7 0 0 0 -0.15 -0.52 0.92 0.92 0 0 0 -0.3 -0.34 9.15 9.15 0 0 0 -0.82 -0.45 6.18 6.18 0 0 0 -1.2 -0.64 1.24 1.24 0 0 0 -0.83 0 1.53 1.53 0 0 0 -0.29 0.18 4.42 4.42 0 0 0 -0.37 0.41l-0.16 0.2 -0.63 -0.44 -0.59 -0.37c-0.11 -0.07 -0.16 -0.15 -0.15 -0.23a1.61 1.61 0 0 1 0.15 -0.51c0.06 -0.16 0.12 -0.33 0.17 -0.5l0.27 -0.93a2.65 2.65 0 0 0 0.56 0.6 2.13 2.13 0 0 0 0.59 0.28c0.31 0.1 0.62 0.13 0.92 0.2a0.32 0.32 0 0 0 0.43 -0.17 0.3 0.3 0 0 0 0 -0.29l0.43 -0.28a0.3 0.3 0 0 0 0.19 0.36 2.84 2.84 0 0 1 0.69 0.36c0.56 0.36 1.08 0.82 1.6 1.16s1.27 0.75 1.93 1.08 1.33 0.62 2 0.93l1.54 0.68h0.05c-0.08 0.21 -0.16 0.42 -0.22 0.63a1.17 1.17 0 0 0 0 0.32 2 2 0 0 0 0.06 0.34c0 0.07 0.07 0.13 0.07 0.19a3.57 3.57 0 0 1 -0.1 0.57 8.83 8.83 0 0 1 -0.35 0.9 0.33 0.33 0 0 0 0.12 0.45 0.32 0.32 0 0 0 0.44 -0.12 6.92 6.92 0 0 0 0.58 -0.9 3.61 3.61 0 0 0 0.3 -0.73 1.37 1.37 0 0 0 0 -0.29c0 -0.14 -0.09 -0.3 0 -0.44l0.85 -2.61a0.28 0.28 0 0 0 -0.16 -0.37 0.29 0.29 0 0 0 -0.38 0.15c-0.27 0.47 -0.59 0.92 -0.87 1.39 0 0 -0.05 -0.07 -0.1 -0.09l-1.38 -0.83 -0.8 -0.49 0.15 -0.11a1 1 0 0 0 0.14 -0.15 0.51 0.51 0 0 0 0.09 -0.18c0.3 -0.86 0.06 -0.92 0.05 -0.93 -0.2 -0.16 -0.84 0.27 -0.9 0.32a1.29 1.29 0 0 0 -0.16 0.17 1 1 0 0 0 -0.09 0.21 0.91 0.91 0 0 0 -0.05 0.21l-0.32 -0.18c-0.44 -0.25 -0.89 -0.47 -1.34 -0.7 0.06 -0.06 0.13 -0.12 0.19 -0.19a1.39 1.39 0 0 0 0.21 -0.27 1.64 1.64 0 0 0 0.16 -0.29 3.33 3.33 0 0 0 0.16 -0.51l1.31 0.69L21 11c0.26 0.14 0.56 0.26 0.84 0.42a1.62 1.62 0 0 1 0.43 0.29 0.32 0.32 0 0 0 0.46 0 0.33 0.33 0 0 0 0 -0.47 2.33 2.33 0 0 0 -0.4 -0.36c-0.27 -0.21 -0.59 -0.37 -0.86 -0.55a2.79 2.79 0 0 0 0.53 -0.42 0.58 0.58 0 0 0 0.08 -0.18 3.05 3.05 0 0 0 0.05 -0.41l0.06 0 1.2 0.43a0.34 0.34 0 0 0 0.46 -0.09 0.35 0.35 0 0 0 -0.13 -0.43Zm-7 0a1.86 1.86 0 0 0 -0.21 0.28 3 3 0 0 0 -0.16 0.31l-0.12 0.34c-0.5 -0.25 -1 -0.56 -1.55 -0.8a5.87 5.87 0 0 0 -0.86 -0.3l0.26 -0.13c0.3 -0.13 0.72 -0.33 1.13 -0.47a2 2 0 0 1 0.65 -0.13 1 1 0 0 1 0.37 0.14c0.19 0.09 0.37 0.2 0.52 0.29l0.32 0.17a3.27 3.27 0 0 0 -0.31 0.28Zm4.39 0a0.85 0.85 0 0 0 -0.14 0.19 1 1 0 0 0 -0.08 0.21l0 0.37 -1.29 -0.92 -1 -0.55a1.68 1.68 0 0 0 0.26 -0.27 1 1 0 0 0 0.14 -0.17 0.65 0.65 0 0 0 0 -0.19c0.5 0.26 1 0.54 1.48 0.78 0.27 0.13 0.56 0.25 0.84 0.37Z" fill="#020202" fill-rule="evenodd" stroke-width="1"></path>
    <path d="M7.77 5.4a0.28 0.28 0 0 0 0.37 -0.17l0.79 -1.7L9.64 2l0.09 0.3c0.25 0.8 0.5 1.59 0.77 2.37s0.58 1.57 0.92 2.33a0.34 0.34 0 0 0 0.43 0.19 0.34 0.34 0 0 0 0.15 -0.44c-0.21 -0.61 -0.39 -1.24 -0.56 -1.87C11.21 3.93 11 3 10.79 2L10.43 0.75a2.11 2.11 0 0 0 -0.22 -0.53 0.65 0.65 0 0 0 -0.55 -0.22 0.7 0.7 0 0 0 -0.51 0.29A1.11 1.11 0 0 0 9 0.64a1.24 1.24 0 0 1 0 0.27l-0.81 2.33L7.6 5a0.29 0.29 0 0 0 0.17 0.4Z" fill="#4C57E6" fill-rule="evenodd" stroke-width="1"></path>
    <path d="M6.84 6a8.1 8.1 0 0 0 -0.64 -1.55C5.77 3.5 5.39 2.52 5 1.57 4.79 1.18 4.62 0.8 4.43 0.43a0.31 0.31 0 0 0 -0.1 -0.36 0.29 0.29 0 0 0 -0.4 0.08l-0.08 0.1 -0.06 0.08a12.1 12.1 0 0 0 -0.67 1.11c-0.56 1 -1 2.14 -1.54 3.12 -0.13 0.26 -0.5 0.74 -0.71 1.18a1.71 1.71 0 0 0 -0.18 0.83 0.75 0.75 0 0 0 0.46 0.59 4 4 0 0 0 1.12 0.24l0.82 0.06 0.29 0a7.3 7.3 0 0 0 -0.18 0.81 1.9 1.9 0 0 0 0 0.34 1.86 1.86 0 0 0 0 0.33c0.06 0.27 0.13 0.51 0.19 0.78l0 0.07 0.39 0.23a0.29 0.29 0 0 0 0.24 -0.28 7 7 0 0 0 0.2 -0.82 2.17 2.17 0 0 0 0 -0.36 1.34 1.34 0 0 0 0 -0.35 5.48 5.48 0 0 0 -0.3 -0.8l0.48 0L6 7.36a3 3 0 0 0 0.54 -0.09 0.56 0.56 0 0 0 0.32 -0.35A1.72 1.72 0 0 0 6.84 6Zm-2.43 0.3 -0.56 0 -0.76 0.05 -0.71 -0.05a3.57 3.57 0 0 1 -0.62 0 1.4 1.4 0 0 1 0.13 -0.3c0.18 -0.4 0.45 -0.81 0.55 -1 0.42 -1 0.8 -2.16 1.28 -3.22q0.13 -0.3 0.3 -0.6l0.27 0.71c0.37 1 0.69 2 1.06 2.95A10.23 10.23 0 0 1 5.82 6a1.47 1.47 0 0 1 0 0.29Z" fill="#4C57E6" fill-rule="evenodd" stroke-width="1"></path>
  </g>
</svg>