<svg xmlns="http://www.w3.org/2000/svg" viewBox="0 0 24 24" id="Ai-Robot-Physical--Streamline-Freehand">
  <desc>
    Ai Robot Physical Streamline Icon: https://streamlinehq.com
  </desc>
  <g>
    <path d="M11.74 14.94a2.31 2.31 0 0 0 -0.69 -1.11 3.4 3.4 0 0 0 -1.57 -0.72 16.77 16.77 0 0 0 -3.09 0l0 -1.08 0.27 -0.08a1.77 1.77 0 0 0 0.41 -0.21 1.71 1.71 0 0 0 0.38 -0.38 2 2 0 0 0 0.35 -1 1.88 1.88 0 0 0 0 -0.53 1.6 1.6 0 0 0 -2.17 -1.39 1.93 1.93 0 0 0 -1.35 2.26 1.36 1.36 0 0 0 0.39 0.67 1.71 1.71 0 0 0 0.58 0.31c0.14 0 0.29 0.07 0.43 0.12l0 0.09 0.1 1.18a0.33 0.33 0 0 0 -0.34 0.28l-1.93 0.05a3.29 3.29 0 0 0 -1.2 0.24 1.65 1.65 0 0 0 -0.72 0.56 5 5 0 0 0 -0.86 2.58 21.37 21.37 0 0 0 0.27 3.9 8.3 8.3 0 0 0 0.25 1.83 2 2 0 0 0 0.54 0.85 2.53 2.53 0 0 0 1.15 0.53 9.82 9.82 0 0 0 1.59 0.11l1.64 0 1.21 -0.1c0.53 -0.09 1.06 -0.15 1.58 -0.23 0.37 -0.06 0.73 -0.13 1.1 -0.22a3.2 3.2 0 0 0 1 -0.43 1.76 1.76 0 0 0 0.56 -0.59 3.19 3.19 0 0 0 0.33 -0.86 8.29 8.29 0 0 0 0.13 -1.21l0 -1.11c0 -0.54 0 -1.09 -0.07 -1.63a11.16 11.16 0 0 0 -0.27 -2.68Zm-6.35 -4.2c-0.07 -0.05 -0.09 -0.14 -0.11 -0.26a0.9 0.9 0 0 1 0.7 -1 0.66 0.66 0 0 1 0.94 0.49 0.94 0.94 0 0 1 0 0.3 1.22 1.22 0 0 1 0 0.32 0.88 0.88 0 0 1 -0.1 0.27 0.72 0.72 0 0 1 -0.17 0.22 1.32 1.32 0 0 1 -0.29 0.19 0.41 0.41 0 0 0 -0.1 -0.09c-0.26 -0.18 -0.63 -0.25 -0.87 -0.44Zm5.68 9.52a7.14 7.14 0 0 1 -0.14 1 1.69 1.69 0 0 1 -0.23 0.55 0.92 0.92 0 0 1 -0.34 0.31 2.45 2.45 0 0 1 -0.57 0.21l-2.58 0.41 -1.1 0.08 -1.55 0.06a9.86 9.86 0 0 1 -1.41 -0.07 1.36 1.36 0 0 1 -0.65 -0.28 1.15 1.15 0 0 1 -0.32 -0.53A12.33 12.33 0 0 1 2 20.55a19.81 19.81 0 0 1 -0.38 -3.7 4.28 4.28 0 0 1 0.63 -2.21 1.06 1.06 0 0 1 0.55 -0.4 2.91 2.91 0 0 1 0.8 -0.16l2.83 -0.16a0.27 0.27 0 0 0 0.23 -0.16 20.34 20.34 0 0 1 2.21 0 2.81 2.81 0 0 1 1.66 0.66 1.71 1.71 0 0 1 0.47 1.07 15.68 15.68 0 0 1 0.08 2.11l0 1.61q0.02 0.53 -0.01 1.05Z" fill="#020202" fill-rule="evenodd" stroke-width="1"></path>
    <path d="M4.7 18a1.19 1.19 0 0 0 0.61 -0.33 1.21 1.21 0 0 0 0.2 -0.26 0.82 0.82 0 0 0 0.08 -0.35 1 1 0 0 0 -0.39 -0.79 1.08 1.08 0 0 0 -1.13 -0.12 1.29 1.29 0 0 0 -0.38 0.31 1.62 1.62 0 0 0 -0.27 0.56 0.33 0.33 0 0 0 0.18 0.43 1.25 1.25 0 0 0 0.35 0.38 1 1 0 0 0 0.75 0.17Z" fill="#4C57E6" fill-rule="evenodd" stroke-width="1"></path>
    <path d="M8.58 16a0.8 0.8 0 0 0 -0.53 0.16 0.69 0.69 0 0 0 -0.13 0.11 0.26 0.26 0 0 0 -0.17 0.09 1.6 1.6 0 0 0 -0.39 0.43 0.91 0.91 0 0 0 0.64 1.29 1.1 1.1 0 0 0 1 -0.29 1.15 1.15 0 0 0 0.29 -0.57 1.3 1.3 0 0 0 -0.11 -0.84 0.69 0.69 0 0 0 -0.6 -0.38Z" fill="#4C57E6" fill-rule="evenodd" stroke-width="1"></path>
    <path d="M8.43 19.84a2.39 2.39 0 0 1 -1.36 0.44 4.28 4.28 0 0 1 -0.62 0c-0.2 0 -0.41 -0.05 -0.61 -0.09a3.19 3.19 0 0 1 -1.41 -0.55A0.29 0.29 0 0 0 4 20a3.38 3.38 0 0 0 1.52 1.15 2.57 2.57 0 0 0 0.82 0.18 2.69 2.69 0 0 0 0.85 -0.05 2.87 2.87 0 0 0 1.67 -1 0.33 0.33 0 0 0 0 -0.46 0.32 0.32 0 0 0 -0.43 0.02Z" fill="#4C57E6" fill-rule="evenodd" stroke-width="1"></path>
    <path d="M23.16 9.87a4.43 4.43 0 0 0 -0.76 -1.48c-0.16 -0.2 -0.33 -0.38 -0.51 -0.57 0 -0.05 0.09 -0.1 0.13 -0.16a5.35 5.35 0 0 0 0.41 -0.66 4.57 4.57 0 0 0 0.35 -0.7 4.17 4.17 0 0 0 0.22 -0.55 3.4 3.4 0 0 0 0.09 -0.64 2 2 0 0 0 -1.25 -2A4.55 4.55 0 0 0 19.36 3s0 0 0 -0.05A6 6 0 0 0 19 1.67a3.6 3.6 0 0 0 -0.71 -1A2.1 2.1 0 0 0 16.37 0a3.44 3.44 0 0 0 -2.27 1.7 6.9 6.9 0 0 0 -0.43 0.91l-0.34 0a5.78 5.78 0 0 0 -2.64 0.15 1.74 1.74 0 0 0 -1.15 1.71l0.13 1a4.45 4.45 0 0 0 0.24 0.7 5 5 0 0 0 0.31 0.66 6.1 6.1 0 0 0 0.57 0.86c-0.16 0.2 -0.34 0.38 -0.49 0.59a5.81 5.81 0 0 0 -0.4 0.61 4 4 0 0 0 -0.24 0.46 4.11 4.11 0 0 0 -0.15 0.46 4.21 4.21 0 0 0 -0.09 0.49 1.89 1.89 0 0 0 1.28 2.05 5.89 5.89 0 0 0 2.39 0.39 4.55 4.55 0 0 0 1.06 1.69 2.08 2.08 0 0 0 2.65 0.26 3.13 3.13 0 0 0 0.42 -0.29 2.92 2.92 0 0 0 0.37 -0.34 4.58 4.58 0 0 0 0.44 -0.53 3.37 3.37 0 0 0 0.36 -0.61 3.05 3.05 0 0 0 0.13 -0.32 7.31 7.31 0 0 0 1.6 0.38 3.08 3.08 0 0 0 2.39 -0.68 2.29 2.29 0 0 0 0.65 -2.43ZM18 9.8c-0.45 0.28 -0.94 0.55 -1.43 0.79a22.12 22.12 0 0 1 -2.13 -1.21c-0.24 -0.15 -0.46 -0.32 -0.69 -0.49 0 -0.58 0.06 -1.17 0.11 -1.74 0 -0.41 0.07 -0.85 0.11 -1.28 0.36 -0.25 0.73 -0.48 1.11 -0.7l0.17 -0.09a0.34 0.34 0 0 0 0.37 0.09c0.44 -0.16 0.87 -0.35 1.3 -0.54l0.46 0.28c0.49 0.33 1 0.7 1.42 1.08a1.48 1.48 0 0 0 0 0.21c-0.08 1 -0.21 2 -0.38 3l-0.06 0.38Zm-5.3 -1.75c-0.1 -0.09 -0.21 -0.17 -0.31 -0.27a3.85 3.85 0 0 1 -0.27 -0.3c0.23 -0.24 0.46 -0.49 0.71 -0.71l0 0.28c-0.1 0.33 -0.13 0.67 -0.16 1ZM13.77 11l0 -0.74 0.09 0.06a16.74 16.74 0 0 0 1.49 0.84 9.08 9.08 0 0 1 -1.44 0.41c-0.08 -0.23 -0.12 -0.43 -0.14 -0.57Zm0.55 -7.32a6.23 6.23 0 0 1 1.49 0.43c-0.36 0.15 -0.72 0.32 -1.08 0.5l-0.66 0.39c0 -0.32 0.08 -0.64 0.15 -1 0.02 -0.11 0.07 -0.23 0.1 -0.35Zm4.49 0.22 0 1.23c-0.33 -0.28 -0.67 -0.57 -1 -0.82l0.12 0a8.07 8.07 0 0 1 0.88 -0.44Zm0.67 2.72 1.23 1.09c-0.21 0.21 -0.42 0.42 -0.64 0.61a8.12 8.12 0 0 1 -0.8 0.62c0.1 -0.79 0.17 -1.57 0.21 -2.35Zm2 -2.68a1.12 1.12 0 0 1 0.67 1.18 2 2 0 0 1 -0.07 0.42 3.29 3.29 0 0 1 -0.18 0.46 6.36 6.36 0 0 1 -0.3 0.58c-0.12 0.19 -0.25 0.37 -0.38 0.54l-0.44 -0.41a0.32 0.32 0 0 0 -0.29 -0.08c-0.31 -0.3 -0.63 -0.6 -1 -0.89l0 -2a3.64 3.64 0 0 1 1.97 0.17Zm-5.29 -3a1.45 1.45 0 0 1 1.59 0.23 3.06 3.06 0 0 1 0.72 1.08 4.82 4.82 0 0 1 0.29 0.91l-0.16 0a9.88 9.88 0 0 0 -1 0.39l-0.31 0.14a2.84 2.84 0 0 0 -0.31 0.06 8 8 0 0 0 -2.37 -1 5.52 5.52 0 0 1 0.27 -0.67 2.69 2.69 0 0 1 1.26 -1.2Zm-5.57 3.51a0.75 0.75 0 0 1 0.48 -0.77 4.73 4.73 0 0 1 2.14 -0.17l0.13 0 -0.09 0.27a17.8 17.8 0 0 0 -0.35 1.91c-0.2 0.14 -0.42 0.28 -0.61 0.44s-0.51 0.46 -0.76 0.69a5.31 5.31 0 0 1 -0.64 -1.1 3.65 3.65 0 0 1 -0.18 -0.56Zm0.49 6.92a1 1 0 0 1 -0.72 -1l0.15 -0.69a3.1 3.1 0 0 1 0.21 -0.45c0.09 -0.16 0.19 -0.31 0.29 -0.46s0.22 -0.29 0.33 -0.43c0.08 0.07 0.15 0.17 0.23 0.24 0.32 0.3 0.66 0.58 1 0.85a13 13 0 0 0 0.07 1.65c0 0.16 0.06 0.34 0.1 0.52a4.17 4.17 0 0 1 -1.66 -0.23Zm6.41 1.1a2.66 2.66 0 0 1 -0.29 0.45 3.7 3.7 0 0 1 -0.37 0.42l-0.56 0.43a1.12 1.12 0 0 1 -1.41 -0.15 3.33 3.33 0 0 1 -0.67 -1 8.72 8.72 0 0 0 1.66 -0.47 6.89 6.89 0 0 0 0.73 -0.34l1 0.46Zm4.48 -0.82a2.18 2.18 0 0 1 -1.72 0.41 6.92 6.92 0 0 1 -1.42 -0.38 1.66 1.66 0 0 0 0.06 -0.21c0.09 -0.37 0.15 -0.73 0.21 -1.1a14.33 14.33 0 0 0 1.33 -1 9.92 9.92 0 0 0 1 -1q0.19 0.23 0.36 0.45a3.44 3.44 0 0 1 0.6 1.25 1.51 1.51 0 0 1 -0.42 1.58Z" fill="#020202" fill-rule="evenodd" stroke-width="1"></path>
    <path d="M16.73 6.43a0.78 0.78 0 0 0 -0.43 0l-0.15 0.05a0.94 0.94 0 0 0 -0.73 1.22c0.11 0.4 0.52 0.69 1.18 0.6a1 1 0 0 0 0.79 -0.89 0.85 0.85 0 0 0 -0.66 -0.98Z" fill="#020202" fill-rule="evenodd" stroke-width="1"></path>
  </g>
</svg>