<svg xmlns="http://www.w3.org/2000/svg" viewBox="0 0 24 24" id="Ai-Robot-Half-Body-2--Streamline-Freehand">
  <desc>
    Ai Robot Half Body 2 Streamline Icon: https://streamlinehq.com
  </desc>
  <g>
    <path d="M22.44 16.07a2.1 2.1 0 0 0 -0.35 -0.81 8.11 8.11 0 0 0 -0.72 -0.85 7.8 7.8 0 0 0 -0.66 -0.78 1.13 1.13 0 0 0 -0.62 -0.32 7.29 7.29 0 0 0 -0.78 -0.42c-0.5 -0.22 -1 -0.41 -1.5 -0.63l-2.16 -0.85 0 -1.47 0 -0.91c0 -0.3 0 -0.61 -0.07 -0.91a1.09 1.09 0 0 0 -0.11 -0.5c-0.26 -0.53 -0.94 -0.16 -0.94 0.55l0 0.29a12.13 12.13 0 0 0 0.1 1.48c0 0.4 0.1 0.79 0.17 1.18s-0.24 0.25 -0.24 0.26a2.76 2.76 0 0 0 -2.67 0.41 1.49 1.49 0 0 0 -0.4 0.56c-0.21 -0.64 -0.18 -1.12 -0.59 -0.91 -0.59 0.3 -0.24 0.86 -0.14 1.33s0.19 0.92 0.33 1.37a4.2 4.2 0 0 0 0.41 0.95 2.11 2.11 0 0 0 2.92 0.89l0.8 0.22 2.17 0.46 0.87 0.22a16.24 16.24 0 0 0 0.22 2.12 2.93 2.93 0 0 0 0.52 1.16 0.58 0.58 0 0 0 0.51 0.22 2.42 2.42 0 0 0 0.62 -0.24 2.37 2.37 0 0 0 0.62 -0.56 7 7 0 0 0 0.58 -0.88l0.87 -1.7a4.3 4.3 0 0 0 0.22 -0.48 0.86 0.86 0 0 0 0.02 -0.45ZM13.89 15a1.13 1.13 0 0 1 -1.55 -0.47 1.84 1.84 0 0 1 -0.23 -1.79 0.77 0.77 0 0 1 0.26 -0.37 1.93 1.93 0 0 1 1.74 -0.2 1.09 1.09 0 0 1 0.82 1.16A2.1 2.1 0 0 1 13.89 15Zm5 -0.53 -0.2 0.74 -0.18 0.81 -1 -0.17 -2.19 -0.3a2.3 2.3 0 0 0 -0.28 -0.06 3.32 3.32 0 0 0 0.96 -2.07 2.21 2.21 0 0 0 -0.19 -0.95c0.14 0.1 0.28 0.2 0.43 0.29a9.09 9.09 0 0 0 1.18 0.55c0.6 0.17 1.24 0.29 1.85 0.47l0 0.05Zm2.31 2 -0.84 1.6a7.66 7.66 0 0 1 -0.5 0.76 1.42 1.42 0 0 1 -0.24 0.25 2.32 2.32 0 0 1 -0.13 -0.37c-0.21 -0.72 -0.25 -1.57 -0.38 -2.22l0.3 -1.13 0.22 -0.65 0.26 -0.48a0.31 0.31 0 0 1 0.09 -0.07l0.06 0 0.12 0.13c0.16 0.21 0.32 0.47 0.46 0.64a9.12 9.12 0 0 1 0.6 0.79 1.4 1.4 0 0 1 0.16 0.4c-0.05 0.21 -0.1 0.31 -0.15 0.4Z" fill="#4C57E6" stroke-width="1"></path>
    <g>
      <path d="m8.93 2.49 -0.5 -0.05 -0.73 0a6 6 0 0 0 -0.7 0.05 8.16 8.16 0 0 0 -1.72 0.42 0.32 0.32 0 0 0 -0.28 0.39 0.34 0.34 0 0 0 0.39 0.25 11.76 11.76 0 0 1 1.68 0l1.14 0 0.12 0 0.11 -0.12c0.25 -0.33 0.78 -0.83 0.49 -0.94Z" fill="#4C57E6" stroke-width="1"></path>
      <path d="M18.6 1.37a1.82 1.82 0 0 0 -0.38 -0.88 1 1 0 0 0 -0.56 -0.2C17 0.22 15.42 0.22 15.31 0.21L12.62 0c-1.12 0 -2.26 0 -3.4 0.07S6.93 0.26 5.83 0.41a14.32 14.32 0 0 0 -1.66 0.27A3.5 3.5 0 0 0 3 1.16a1.85 1.85 0 0 0 -0.74 1.34 7.87 7.87 0 0 0 0.38 2.94 4.92 4.92 0 0 0 0.44 1 0.85 0.85 0 0 0 0.6 0.44l2.81 -0.26 -1.66 2.12 -1.22 1.78 -0.35 0.7A5.49 5.49 0 0 0 1.92 13a1.87 1.87 0 0 0 0.19 1.74l0.12 0.15c0.1 0.56 0.2 1.11 0.32 1.67q0.11 0.46 0.24 0.93c0.09 0.31 0.19 0.61 0.29 0.92 0.25 0.71 0.53 1.4 0.8 2.11a0.15 0.15 0 0 0 0 0.07 1.57 1.57 0 0 0 -0.23 0.09 7.13 7.13 0 0 0 -1 0.54 6.79 6.79 0 0 0 -0.91 0.64 0.63 0.63 0 0 0 -0.17 0.69 2 2 0 0 0 1.06 1 7.34 7.34 0 0 0 2.73 0.45 4.68 4.68 0 0 0 0.84 0 1 1 0 0 0 0.55 -0.23 2.27 2.27 0 0 0 0.61 -1.52 7.46 7.46 0 0 0 -0.27 -2v-0.06l0 -1c0.09 -0.87 -0.14 -2.9 -0.18 -4.32l0 -0.72 1.64 -1.38 1.11 -1c0.23 -0.21 0.81 -0.7 0.87 -0.75S13.75 8 14 7.88a10.39 10.39 0 0 0 1.44 -1.6l2 0a1.49 1.49 0 0 0 1 -0.56 3.23 3.23 0 0 0 0.2 -1.56l0 -1a10.31 10.31 0 0 0 -0.04 -1.79ZM3 14.12a0.85 0.85 0 0 1 0 -0.78A4.6 4.6 0 0 1 4.05 12l0.11 -0.13a1.53 1.53 0 0 1 0.37 0 1.35 1.35 0 0 1 0.36 0.08 1.19 1.19 0 0 1 0.48 1.9 1.45 1.45 0 0 1 -1.94 0.66 0.81 0.81 0 0 1 -0.23 -0.17 0.82 0.82 0 0 1 -0.2 -0.22Zm0.83 3c-0.09 -0.31 -0.19 -0.62 -0.3 -0.92s-0.17 -0.44 -0.26 -0.65c1.17 0.37 2.75 -0.61 3 -0.82a1 1 0 0 1 0 0.17c0 1.37 0 3.36 -0.12 4.19a7.43 7.43 0 0 1 -0.1 0.77c-0.25 0 -0.68 0.17 -0.82 0.2l-0.74 0.23c-0.14 -0.74 -0.27 -1.48 -0.42 -2.21 -0.07 -0.32 -0.13 -0.63 -0.21 -0.94Zm2.74 5a1.47 1.47 0 0 1 -0.41 0.94l-0.79 0a7.49 7.49 0 0 1 -2 -0.39 1.91 1.91 0 0 1 -0.63 -0.35c0.2 -0.11 0.46 -0.2 0.51 -0.23a7 7 0 0 1 1.09 -0.56c0.4 -0.16 0.8 -0.29 1.21 -0.42 0.19 -0.06 0.63 -0.1 0.9 -0.18l0.07 0a4.85 4.85 0 0 1 0.08 1.24ZM8.94 11c-0.37 0.34 -0.74 0.68 -1.09 1s-0.95 1 -1.41 1.54a1.83 1.83 0 0 0 -1.3 -2.38 2.13 2.13 0 0 0 -0.56 -0.1l1.1 -1.76 2 -2.84 0.82 -1.16a4.09 4.09 0 0 0 0.14 1.57 2.55 2.55 0 0 0 2.1 1.83 3.87 3.87 0 0 0 0.76 0 2.3 2.3 0 0 0 0.26 0C9.53 10.43 9 11 8.94 11Zm4.89 -4.62a1.85 1.85 0 0 1 -0.73 0.76 3.67 3.67 0 0 1 -1.11 0.4 5.21 5.21 0 0 1 -0.55 0.08 3.41 3.41 0 0 1 -0.55 0 1.7 1.7 0 0 1 -1.47 -1.55 3.79 3.79 0 0 1 0.45 -2.56 1 1 0 0 1 0.43 -0.33 5 5 0 0 1 1 -0.31 0.33 0.33 0 0 0 0.22 0 2.06 2.06 0 0 1 2.23 1 2.68 2.68 0 0 1 0.08 2.52Zm3.92 -1.13c-0.08 0.13 -0.25 0.19 -0.55 0.26l-2.15 0.1a3.51 3.51 0 0 0 -0.54 -2.18 2.79 2.79 0 0 0 -3.09 -1.19l-0.11 0h-0.1a3.86 3.86 0 0 0 -1.16 0.27 4 4 0 0 0 -1 0.84L7 6l-3.19 0.18a3.35 3.35 0 0 1 -0.41 -1A8 8 0 0 1 3.13 3a1.18 1.18 0 0 1 0.42 -1 2.76 2.76 0 0 1 0.86 -0.31A14.17 14.17 0 0 1 6 1.47c1 -0.13 2.16 -0.22 3.28 -0.29s2.24 -0.09 3.33 -0.08l2.64 0.13 2.33 0a1.4 1.4 0 0 1 0.14 0.5 13.69 13.69 0 0 1 0 1.38v1c0.06 0.54 0.19 0.89 0.03 1.15Z" fill="#020202" stroke-width="1"></path>
    </g>
  </g>
</svg>