<svg xmlns="http://www.w3.org/2000/svg" viewBox="0 0 24 24" id="Ai-Robot-Military-1--Streamline-Freehand">
  <desc>
    Ai Robot Military 1 Streamline Icon: https://streamlinehq.com
  </desc>
  <g>
    <path d="M18.27 16.46a3.5 3.5 0 0 0 -1 -0.5l-0.09 -3.06a5.21 5.21 0 0 0 -0.11 -1.23 2 2 0 0 0 -0.48 -0.83 2 2 0 0 0 -1.09 -0.46 14.3 14.3 0 0 0 -2.2 -0.07l-4.44 0.07h-0.13l-0.08 -2.09a15.06 15.06 0 0 0 2.35 0.05 4.55 4.55 0 0 0 1.9 -0.5 1.25 1.25 0 0 0 0.51 -1 5 5 0 0 0 -0.28 -1.73 1.57 1.57 0 0 0 -0.27 -0.53 0.9 0.9 0 0 0 -0.35 -0.27 1.33 1.33 0 0 0 -0.51 -0.08c-0.27 0 -0.59 0.12 -0.75 0.13a12.23 12.23 0 0 0 -1.71 0.3c-0.39 0.09 -0.78 0.22 -1.17 0.34a2.83 2.83 0 0 0 -0.2 -0.43 1.41 1.41 0 0 0 -1 -0.62 8 8 0 0 0 -2 0.18c-0.23 0 -0.46 0.06 -0.69 0.1a5.12 5.12 0 0 0 -0.7 0.18l-0.82 0.31a2.48 2.48 0 0 0 -1.22 1 4.38 4.38 0 0 0 -0.4 2v1.62s0.15 2.81 0.25 3.53 0.18 1.21 0.31 1.82 0.24 1.05 0.37 1.58a4.66 4.66 0 0 0 -1 0.65 2.84 2.84 0 0 0 -0.84 3.59 3.9 3.9 0 0 0 3.18 2c1.54 0.13 3.07 0.2 4.6 0.21s3.05 -0.05 4.59 -0.13c0.85 0 1.85 0 2.76 -0.11a5.14 5.14 0 0 0 1.27 -0.32 4.49 4.49 0 0 0 2.57 -3.07 2.55 2.55 0 0 0 -1.13 -2.63Zm-8.64 -11a12.24 12.24 0 0 1 1.61 -0.07l0.81 0a1.36 1.36 0 0 1 0 0.17 5.25 5.25 0 0 1 0.2 1c0.19 0.76 -1.4 0.94 -1.4 0.94a15.4 15.4 0 0 1 -2.27 0.17L8.6 7a11.51 11.51 0 0 0 -0.12 -1.4c0.38 -0.05 0.76 -0.13 1.15 -0.18ZM2.16 7.8a5 5 0 0 1 0.28 -1.38 1.29 1.29 0 0 1 0.87 -0.69l0.75 -0.26 1.18 -0.23C5.52 5.2 6 5.07 6.51 5A2.14 2.14 0 0 1 7 5a0.4 0.4 0 0 1 0.22 0.09 2 2 0 0 1 0.27 0.67 10.14 10.14 0 0 1 0.18 1.3L8 10.37l-3.27 0a7.59 7.59 0 0 0 -1.73 0.21A3.31 3.31 0 0 0 2 11l0 -1.64Zm0.34 6.77c-0.09 -0.6 -0.16 -1.19 -0.2 -1.78 0 -0.18 -0.08 -0.44 -0.09 -0.68s0 -0.21 0.09 -0.27a2.11 2.11 0 0 1 0.88 -0.35 7.16 7.16 0 0 1 1.59 -0.13l4.13 0.14 4.46 -0.17c0.41 0 1.13 -0.08 1.77 -0.05a1.54 1.54 0 0 1 0.87 0.19 1.06 1.06 0 0 1 0.29 0.45 4.44 4.44 0 0 1 0.13 1l0.21 2.81a13.81 13.81 0 0 0 -2.48 -0.27c-1.54 -0.06 -3.1 0.09 -4.64 0.13a45.88 45.88 0 0 0 -5.64 0.16 7.58 7.58 0 0 0 -1.09 0.29c-0.11 -0.49 -0.21 -0.98 -0.28 -1.47Zm15.66 4.78a3.48 3.48 0 0 1 -1.86 1.78 4.44 4.44 0 0 1 -1.35 0.28c-0.78 0.05 -1.6 0 -2.31 0.05 -1.53 0.07 -3 0.12 -4.54 0.13s-3 0 -4.53 -0.12a2.91 2.91 0 0 1 -2.44 -1.39 2 2 0 0 1 0.56 -2.56A4.7 4.7 0 0 1 4 16.46a22.54 22.54 0 0 1 4.85 -0.16c1.74 0.05 3.52 -0.11 5.25 0a13.92 13.92 0 0 1 2.32 0.3 3.51 3.51 0 0 1 1.28 0.59 1.72 1.72 0 0 1 0.46 2.16Z" fill="#020202" fill-rule="evenodd" stroke-width="1"></path>
    <path d="M23.82 4.4a4.65 4.65 0 0 0 -1 -1.87 6 6 0 0 0 -0.74 -0.69 2.73 2.73 0 0 0 -0.64 -0.37 2.88 2.88 0 0 0 -0.44 -0.15 0.55 0.55 0 0 0 -0.66 0.37l-0.05 0.63A4.16 4.16 0 0 1 20 3a4.62 4.62 0 0 1 -0.41 0.67 1.07 1.07 0 0 1 -0.14 0.16 2.12 2.12 0 0 0 -0.38 -0.63 1.59 1.59 0 0 0 -0.86 -0.52 0.46 0.46 0 0 0 -0.29 0c-0.1 0 -0.26 0.45 -0.26 0.45a0.41 0.41 0 0 1 0 -0.07l-0.08 0.16 -0.45 0.8A4.2 4.2 0 0 1 16 5.25c-1.06 0.7 -1.86 0.29 -1.75 0.91a0.3 0.3 0 0 0 0.2 0.23 2.56 2.56 0 0 0 0.77 0.77 4.57 4.57 0 0 0 1.78 0.71l0.85 0.11c0 0.13 0.06 0.27 0.08 0.32a2.35 2.35 0 0 0 0.41 0.58 2.24 2.24 0 0 0 0.58 0.43 2 2 0 0 0 0.71 0.21 3.71 3.71 0 0 0 1 0 4.18 4.18 0 0 0 2.14 -0.91 3.46 3.46 0 0 0 1.17 -2.11 5 5 0 0 0 -0.12 -2.1Zm-1 1.93a2.39 2.39 0 0 1 -0.78 1.46 3.23 3.23 0 0 1 -1.6 0.76 4.62 4.62 0 0 1 -0.65 0.06 1.15 1.15 0 0 1 -0.52 -0.1 1.33 1.33 0 0 1 -0.36 -0.24 1.49 1.49 0 0 1 -0.27 -0.35c0 -0.07 -0.09 -0.36 -0.14 -0.47a0.48 0.48 0 0 0 -0.2 -0.22 0.77 0.77 0 0 0 -0.3 -0.12l-0.87 0a4 4 0 0 1 -1.24 -0.41 2.74 2.74 0 0 1 -0.61 -0.42 4.44 4.44 0 0 0 1.14 -0.47 4.82 4.82 0 0 0 1.36 -1.29l0.54 -0.83a1 1 0 0 1 0.18 0.22 3 3 0 0 1 0.28 0.77A0.43 0.43 0 0 0 19 5a0.5 0.5 0 0 0 0.3 0 0.87 0.87 0 0 0 0.25 -0.1 1.44 1.44 0 0 0 0.39 -0.2 2.33 2.33 0 0 0 0.42 -0.41 6.23 6.23 0 0 0 0.54 -0.8 4.74 4.74 0 0 0 0.37 -0.87l0.2 0.16a5.78 5.78 0 0 1 0.5 0.49 3.48 3.48 0 0 1 0.77 1.41 3.93 3.93 0 0 1 0.11 1.65Z" fill="#4C57E6" fill-rule="evenodd" stroke-width="1"></path>
    <path d="M3.68 18.34a1.41 1.41 0 0 0 -0.29 0l-0.34 0.09a0.37 0.37 0 0 0 -0.14 0.07 1.36 1.36 0 0 0 -0.28 0.11 0.82 0.82 0 0 0 -0.32 0.36 1 1 0 0 0 0.09 1 1 1 0 0 0 1 0.45 1.14 1.14 0 0 0 0.61 -0.36 1.33 1.33 0 0 0 0.34 -0.82c0.04 -0.42 -0.1 -0.85 -0.67 -0.9Z" fill="#4C57E6" fill-rule="evenodd" stroke-width="1"></path>
    <path d="M9.84 18.2a1.12 1.12 0 0 0 -0.62 -0.13l-0.17 0a0.37 0.37 0 0 0 -0.18 0 1 1 0 0 0 -0.69 1.18c0.09 0.53 0.6 0.9 1.37 0.75a1.2 1.2 0 0 0 0.73 -0.79 0.88 0.88 0 0 0 -0.44 -1.01Z" fill="#4C57E6" fill-rule="evenodd" stroke-width="1"></path>
    <path d="M15.39 17.79h-0.05a1.78 1.78 0 0 0 -0.52 0.21 1.39 1.39 0 0 0 -0.32 0.32 0.89 0.89 0 0 0 0.14 1.23 1.25 1.25 0 0 0 1.13 0.23 1.12 1.12 0 0 0 0.83 -1.26 0.91 0.91 0 0 0 -1.21 -0.73Z" fill="#4C57E6" fill-rule="evenodd" stroke-width="1"></path>
  </g>
</svg>