<svg xmlns="http://www.w3.org/2000/svg" viewBox="0 0 24 24" id="Ai-Robot-Coding--Streamline-Freehand">
  <desc>
    Ai Robot Coding Streamline Icon: https://streamlinehq.com
  </desc>
  <g>
    <path d="M11.81 13.41a2.45 2.45 0 0 0 -0.55 -1.17 2.4 2.4 0 0 0 -1.26 -0.71 12 12 0 0 0 -2.61 0H7l-0.3 0 -0.58 -0.06a0.25 0.25 0 0 0 0.07 -0.2l0 -1.45a1.35 1.35 0 0 1 0 -0.18l0.15 -0.06A3.47 3.47 0 0 0 7 9.12 2.1 2.1 0 0 0 7.73 7 1.91 1.91 0 0 0 6 5.44a2.51 2.51 0 0 0 -0.55 0 2 2 0 0 0 -0.57 0.15 3 3 0 0 0 -1.59 2A1.66 1.66 0 0 0 4 9.32a1.77 1.77 0 0 0 0.63 0.28c0.27 0.05 0.56 0 0.84 0.07l0 0.1 0.12 1.47a0.45 0.45 0 0 0 0.06 0.12l-0.47 0 -0.92 0 -1.33 0.08a7.44 7.44 0 0 0 -1.2 0.13 1.94 1.94 0 0 0 -0.85 0.42A2.57 2.57 0 0 0 0.2 13.2a14.4 14.4 0 0 0 -0.2 2.93l0 1.94 0 1.3a9 9 0 0 0 0.13 1.27 2.24 2.24 0 0 0 0.45 0.93 2.61 2.61 0 0 0 0.87 0.66 4.59 4.59 0 0 0 1.4 0.42c0.28 0.05 0.56 0.08 0.84 0.11s0.57 0 0.85 0l2.34 0 1.18 0c0.39 0 0.78 -0.06 1.18 -0.11a4.4 4.4 0 0 0 1 -0.23A1.86 1.86 0 0 0 11 22a2.91 2.91 0 0 0 0.51 -0.89 8.88 8.88 0 0 0 0.31 -1.31l0.18 -1.59 0 -2.2a17.18 17.18 0 0 0 -0.19 -2.6ZM4.86 8.68a0.61 0.61 0 0 1 -0.24 -0.15 0.74 0.74 0 0 1 -0.12 -0.95 1.92 1.92 0 0 1 0.89 -0.93 0.73 0.73 0 0 1 0.25 -0.08 1.56 1.56 0 0 1 0.31 0 0.91 0.91 0 0 1 0.86 0.7 1.27 1.27 0 0 1 -0.31 1.26c-0.12 0.1 -0.23 0.23 -0.35 0.32a0.38 0.38 0 0 1 -0.24 0.08 8.76 8.76 0 0 0 -1.05 -0.25ZM11 16.05l0 2.1 -0.18 1.41a7.74 7.74 0 0 1 -0.3 1.12 1.69 1.69 0 0 1 -0.32 0.55 0.82 0.82 0 0 1 -0.41 0.22 4.78 4.78 0 0 1 -0.66 0.11q-0.56 0.06 -1.11 0.09t-1.11 0l-2.33 0 -1.52 -0.13a4.63 4.63 0 0 1 -0.92 -0.24 1.78 1.78 0 0 1 -0.66 -0.44 1.09 1.09 0 0 1 -0.23 -0.47 6.38 6.38 0 0 1 -0.13 -1.07c0 -0.42 -0.05 -0.84 -0.07 -1.25l0 -1.9a23.3 23.3 0 0 1 0 -2.39 2 2 0 0 1 0.46 -1.23 1.18 1.18 0 0 1 0.48 -0.26A9 9 0 0 1 3 12.12L4.3 12a8.1 8.1 0 0 1 0.85 0c0.51 0 1 0.09 1.52 0.11h0.2a0.29 0.29 0 0 0 0.18 0.07c0.69 0.06 1.6 -0.07 2.42 0a1.84 1.84 0 0 1 1.19 0.57A2 2 0 0 1 11 13.9c0.11 0.75 0 1.58 0 2.15Z" fill="#020202" fill-rule="evenodd" stroke-width="1"></path>
    <path d="M4.54 16.13a0.82 0.82 0 0 0 0.25 -0.2 0.9 0.9 0 0 0 0.15 -0.19 1 1 0 0 0 -0.42 -1.44 0.93 0.93 0 0 0 -1.24 0.26 0.87 0.87 0 0 0 -0.16 1.3 1.07 1.07 0 0 0 1.42 0.27Z" fill="#4C57E6" fill-rule="evenodd" stroke-width="1"></path>
    <path d="M8.57 14.14a1.16 1.16 0 0 0 -0.49 0 1.24 1.24 0 0 0 -0.54 0.32 0.36 0.36 0 0 0 -0.13 0.32 0.94 0.94 0 0 0 0 0.7c0.17 0.48 0.73 0.7 1.38 0.36a1.1 1.1 0 0 0 0.47 -0.84 0.82 0.82 0 0 0 -0.69 -0.86Z" fill="#4C57E6" fill-rule="evenodd" stroke-width="1"></path>
    <path d="M7.91 18.43a1.91 1.91 0 0 1 -0.41 0.24 3.92 3.92 0 0 1 -0.5 0.13l-0.68 0.1a3.35 3.35 0 0 1 -0.71 0 6 6 0 0 1 -0.74 -0.13 3.2 3.2 0 0 1 -0.95 -0.45 0.29 0.29 0 0 0 -0.42 0 0.3 0.3 0 0 0 0 0.43 3.45 3.45 0 0 0 1.59 1.15 3.08 3.08 0 0 0 1.35 0.1 1.89 1.89 0 0 0 0.41 -0.1l0.48 -0.22a5.24 5.24 0 0 0 0.57 -0.32 2.47 2.47 0 0 0 0.5 -0.47 0.34 0.34 0 0 0 -0.49 -0.48Z" fill="#4C57E6" fill-rule="evenodd" stroke-width="1"></path>
    <path d="m13.17 1.64 -2.45 3.21A6.64 6.64 0 0 0 9.9 6a1.28 1.28 0 0 0 -0.07 0.94 3.42 3.42 0 0 0 0.74 1.15 15.33 15.33 0 0 0 2.23 1.7 0.35 0.35 0 0 0 0.48 0 0.34 0.34 0 0 0 0 -0.48c-0.49 -0.45 -1.15 -1 -1.67 -1.55a2.8 2.8 0 0 1 -0.66 -1.11c0 -0.13 0.09 -0.22 0.18 -0.34 0.19 -0.27 0.43 -0.52 0.57 -0.71 0.22 -0.35 0.44 -0.7 0.65 -1.06 0.47 -0.82 0.89 -1.66 1.37 -2.48a0.31 0.31 0 0 0 -0.08 -0.42 0.31 0.31 0 0 0 -0.47 0Z" fill="#020202" fill-rule="evenodd" stroke-width="1"></path>
    <path d="M18.4 1.19a0.3 0.3 0 0 0 -0.39 0.18c-0.47 1 -0.93 2 -1.31 3.08 -0.17 0.45 -0.31 0.9 -0.45 1.36s-0.25 0.92 -0.37 1.38c-0.26 1.07 -0.48 2.15 -0.73 3.24a0.33 0.33 0 0 0 0.23 0.42 0.34 0.34 0 0 0 0.42 -0.23c0.38 -1 0.76 -2.08 1.12 -3.13 0.15 -0.45 0.3 -0.89 0.44 -1.35s0.27 -0.9 0.39 -1.36c0.28 -1.06 0.51 -2.13 0.82 -3.2a0.3 0.3 0 0 0 -0.17 -0.39Z" fill="#4C57E6" fill-rule="evenodd" stroke-width="1"></path>
    <path d="M23.74 4.5a8.44 8.44 0 0 0 -1 -1l-0.6 -0.44 -0.67 -0.42c-0.35 -0.23 -0.68 -0.43 -1 -0.62a6.94 6.94 0 0 0 -0.72 -0.37 0.3 0.3 0 1 0 -0.28 0.54 6.06 6.06 0 0 1 0.62 0.41c0.31 0.23 0.59 0.47 0.89 0.73l0.6 0.52 0.42 0.45c1 0.8 0.87 1 0.87 1a1.39 1.39 0 0 1 -0.16 0.56 5.43 5.43 0 0 1 -0.43 0.75l-0.76 1.1L20.3 9.3a0.34 0.34 0 0 0 0 0.48 0.36 0.36 0 0 0 0.49 0l1.39 -1.51 0.89 -1a5 5 0 0 0 0.71 -1.09 2.29 2.29 0 0 0 0.19 -1 1.22 1.22 0 0 0 -0.23 -0.68Z" fill="#020202" fill-rule="evenodd" stroke-width="1"></path>
  </g>
</svg>