<svg xmlns="http://www.w3.org/2000/svg" viewBox="0 0 24 24" id="Ai-Robot-9--Streamline-Freehand">
  <desc>
    Ai Robot 9 Streamline Icon: https://streamlinehq.com
  </desc>
  <g>
    <path d="M7.86 11.34h-0.13a2.2 2.2 0 0 0 -0.44 0 1.38 1.38 0 0 0 -0.51 0.16A1.65 1.65 0 0 0 6 13.15a1.68 1.68 0 0 0 1.34 1.43 1.51 1.51 0 0 0 1.76 -1.49 1.58 1.58 0 0 0 -1.24 -1.75ZM8.19 13a0.55 0.55 0 0 1 -0.67 0.51A0.67 0.67 0 0 1 7 13a0.83 0.83 0 0 1 0.2 -0.87 0.79 0.79 0 0 1 0.27 -0.13l0.16 0a0.11 0.11 0 0 0 0.08 0 0.84 0.84 0 0 1 0.48 1Z" fill="#4C57E6" fill-rule="evenodd" stroke-width="1"></path>
    <path d="M17 11.28a1.87 1.87 0 0 0 -0.85 -0.1l-0.07 0a0.28 0.28 0 0 0 -0.18 0 2 2 0 0 0 -0.69 0.43 1.48 1.48 0 0 0 -0.44 0.78 1.69 1.69 0 0 0 0.41 1.42 1.6 1.6 0 0 0 1.48 0.53 1.64 1.64 0 0 0 1.24 -1.15 1.61 1.61 0 0 0 -0.37 -1.58 1.43 1.43 0 0 0 -0.53 -0.33Zm0 1.62a0.61 0.61 0 0 1 -0.49 0.39 0.57 0.57 0 0 1 -0.52 -0.17 0.84 0.84 0 0 1 -0.34 -0.59 0.75 0.75 0 0 1 0.13 -0.43 1.42 1.42 0 0 1 0.31 -0.29l0.15 0a1 1 0 0 1 0.44 0.09 0.68 0.68 0 0 1 0.28 0.23 0.75 0.75 0 0 1 0.04 0.77Z" fill="#4C57E6" fill-rule="evenodd" stroke-width="1"></path>
    <g>
      <path d="m24 12.53 0 -1.64q0 -0.56 -0.06 -1.11a4.71 4.71 0 0 0 -0.11 -0.84 2 2 0 0 0 -0.25 -0.62 0.63 0.63 0 0 0 -0.37 -0.27 2.42 2.42 0 0 0 -0.51 0 5.81 5.81 0 0 0 -0.83 0c-0.4 0 -0.79 0.09 -1.18 0.14 0 0 -0.06 0 -0.1 0.05a15 15 0 0 0 -0.22 -2.07 0.31 0.31 0 0 0 -0.37 -0.27 0.32 0.32 0 0 0 -0.14 0.08 0.31 0.31 0 0 0 -0.24 -0.2l-1.9 -0.28a4.91 4.91 0 0 0 -0.84 0 0.54 0.54 0 0 0 -0.38 0.22 8.87 8.87 0 0 0 -0.49 0.87c-0.06 0.11 -1.21 2.25 -1.19 2.27s-0.1 0.16 -0.16 0.22l-0.48 0 -2.86 0.18c-0.5 0 -1 0.07 -1.57 0.07a4.87 4.87 0 0 1 -1.16 -0.13A13.3 13.3 0 0 1 7 6.71a3.82 3.82 0 0 0 -0.56 -0.77 0.43 0.43 0 0 0 -0.35 -0.14c-0.16 0 -0.54 0.09 -0.58 0.09L4.8 6c-0.25 0.06 -1.06 0.18 -1.06 0.18a0.29 0.29 0 0 0 -0.26 -0.32 0.3 0.3 0 0 0 -0.31 0.26c-0.06 0.51 -0.09 1 -0.11 1.54l0 0.72 -0.33 -0.05a9.37 9.37 0 0 0 -1.44 -0.13 1.31 1.31 0 0 0 -0.8 0.29A1.19 1.19 0 0 0 0.2 9a3.71 3.71 0 0 0 -0.16 0.9l0 1.14c0 0.57 0 1.13 0.05 1.69s0 1.25 0.08 1.87 0.08 1.27 0.15 1.9a6.08 6.08 0 0 0 0.09 0.81 0.94 0.94 0 0 0 0.29 0.51 2 2 0 0 0 1 0.39 5.75 5.75 0 0 0 1.26 -0.05A10.25 10.25 0 0 0 3 20a3.16 3.16 0 0 0 0.5 1.44 2.57 2.57 0 0 0 1.36 1 12.26 12.26 0 0 0 2.1 0.35 22.66 22.66 0 0 0 3.85 0.21c1.89 -0.05 3.77 -0.26 5.67 -0.4 0.61 0 1.21 -0.06 1.8 -0.15a5.14 5.14 0 0 0 1.25 -0.33 3.94 3.94 0 0 0 0.83 -0.36 1.44 1.44 0 0 0 0.56 -0.59 3.69 3.69 0 0 0 0.27 -1.17 13 13 0 0 0 0 -1.64l0 -0.43 0.14 0a2.26 2.26 0 0 0 0.45 0 5.07 5.07 0 0 0 1.26 -0.12 1.37 1.37 0 0 0 0.6 -0.38 1.13 1.13 0 0 0 0.22 -0.54c0.05 -0.28 0 -0.65 0.06 -0.83a14.13 14.13 0 0 0 0.08 -1.42l0 -2.11ZM3 11.22l0 5.71 0 0.52a4.84 4.84 0 0 1 -1.19 0 1.14 1.14 0 0 1 -0.59 -0.26v-0.77l0 -3.75L1 9.86a4 4 0 0 1 0 -0.48c0 -0.11 0 -0.23 0.07 -0.3A0.81 0.81 0 0 1 1.53 9a9.93 9.93 0 0 1 1.16 0L3 9c0 0.73 0.05 1.48 0 2.22Zm13.35 10.29c-1.88 0.12 -3.74 0.32 -5.62 0.37A24.26 24.26 0 0 1 8 21.79c0 -0.16 0.05 -0.31 0.08 -0.47l0.21 -0.87c0.94 0 1.86 0.11 2.8 0.15l1.34 0c0.26 0 0.53 0 0.79 -0.06 1 -0.1 2 -0.28 3 -0.37l0 0.11c0.13 0.4 0.25 0.8 0.36 1.21Zm-5 -3.11 1.74 0c0.82 0 1.63 -0.06 2.44 -0.12L16 19.5h-3.57l-1.08 0c-0.37 0 -0.73 0 -1.1 0.07 -0.59 0 -1.18 0.12 -1.76 0.21l0.37 -1.43ZM9 17.73c0.06 -0.27 0.12 -0.54 0.19 -0.81 0.15 -0.65 0.37 -0.67 0.86 -0.69l2.71 0 1.41 -0.09c0.85 0 0.74 0.07 1.08 1.13l0.09 0.27c-0.87 -0.08 -1.74 -0.21 -2.62 -0.25l-1.37 0Zm11.22 2.13a2.61 2.61 0 0 1 -0.24 0.85 0.53 0.53 0 0 1 -0.27 0.22c-0.2 0.1 -0.42 0.15 -0.59 0.22a5.48 5.48 0 0 1 -1 0.24l-0.81 0.07a0.43 0.43 0 0 1 0 -0.05c-0.1 -0.45 -0.21 -0.9 -0.33 -1.34 -0.27 -1 -0.58 -2 -0.84 -3a9 9 0 0 0 -0.29 -1.35 1.13 1.13 0 0 0 -0.38 -0.51 1.12 1.12 0 0 0 -0.57 -0.17 3.65 3.65 0 0 0 -0.9 0.1l-1.25 0.05H10a3.6 3.6 0 0 0 -0.88 0.14 0.93 0.93 0 0 0 -0.54 0.41 2.85 2.85 0 0 0 -0.28 0.76c-0.13 0.53 -0.17 1.13 -0.26 1.59l-0.29 1.66 -0.29 2 -0.39 0a10.83 10.83 0 0 1 -1.93 -0.28 1.57 1.57 0 0 1 -0.86 -0.54 2.77 2.77 0 0 1 -0.4 -1.38c-0.07 -0.89 0 -1.87 0 -2.55l-0.14 -5.72c0 -1 -0.07 -2 -0.08 -3.05l0 -1.38 1.92 -0.2 0.42 0c0.02 0 0.2 0.32 0.29 0.49 0.33 0.62 0.61 1.32 0.94 1.87 0.09 0.16 0.19 0.44 0.32 0.65A1.15 1.15 0 0 0 8 10a3.34 3.34 0 0 0 1.33 0.37 24.75 24.75 0 0 0 2.79 -0.07c0.37 0 0.75 0 1.12 -0.07s0.73 -0.07 1.09 -0.12l0.55 0a0.91 0.91 0 0 0 0.37 -0.17 3.33 3.33 0 0 0 0.66 -0.9c0.35 -0.67 0.6 -1.51 0.88 -2.06s0.26 -0.76 1.15 -0.68c0.55 0 1.11 0.13 1.59 0.17a0.27 0.27 0 0 0 0.19 -0.06 16.61 16.61 0 0 1 0.17 2c0.05 1.74 0 3.71 0.1 5.09 0.09 1 0.2 2 0.27 2.94 0 0.64 0.07 1.28 0.06 1.93a11.2 11.2 0 0 1 -0.1 1.49ZM23 16.94a0.74 0.74 0 0 1 -0.32 0.19 7 7 0 0 1 -0.94 0.13h-0.3l-0.26 0c0 -0.29 0 -0.59 -0.05 -0.88 -0.09 -1 -0.22 -2 -0.33 -3 -0.15 -1.28 -0.14 -3.05 -0.22 -4.69l0.12 0 1.17 0a4.37 4.37 0 0 1 0.72 0.06l0.26 0a1.39 1.39 0 0 1 0.09 0.35 4.21 4.21 0 0 1 0 0.71l-0.06 2.72 0.12 3.52v0.89Z" fill="#020202" stroke-width="1"></path>
      <path d="M4.47 4.72c-0.08 -0.35 -0.14 -0.69 -0.19 -1 0 -0.13 -0.07 -0.43 -0.07 -0.61a1.1 1.1 0 0 1 0.42 -0.31 4 4 0 0 1 0.7 -0.22 12.19 12.19 0 0 1 1.84 -0.32 20.72 20.72 0 0 0 0.08 2.49 14.42 14.42 0 0 0 0.28 1.62c0.07 0.36 0.07 0.36 0.16 0.71s0.68 1.12 1 0.88 0 -1 -0.11 -1.69c0 -0.34 -0.08 -0.67 -0.13 -1s-0.11 -0.67 -0.18 -1c-0.14 -0.69 -0.31 -1.37 -0.45 -2a16.67 16.67 0 0 1 1.72 -0.06h1.73c0 0.91 -0.08 1.81 -0.05 2.73 0 0.63 0.08 1.25 0.14 1.88s0.11 1 0.19 1.7c0.14 0.38 0.68 0.51 0.82 -0.11s0 -0.9 0 -1.57l0 -1.19c0 -0.39 -0.06 -0.79 -0.11 -1.18 -0.09 -0.75 -0.21 -1.5 -0.32 -2.25l3.27 0c-0.15 0.67 -0.31 1.33 -0.42 2 0 0.35 -0.09 1 -0.12 1.34a6 6 0 0 0 0 1.48c0.08 0.51 0.68 0.07 0.89 -0.43 0 0 0.09 -0.56 0.1 -0.68 0.06 -0.54 0.08 -0.72 0.11 -1.26l0 -2.45h0.92l1.61 0c0.07 0 0.33 0.1 0.42 0a0.57 0.57 0 0 1 0 0.18 4.79 4.79 0 0 1 0 0.55 8.59 8.59 0 0 1 -0.14 1.82c-0.11 0.41 0.44 0.58 0.65 0.32 0 -0.07 0 -0.14 0.05 -0.21 0.11 -0.62 0.16 -1.26 0.23 -1.86a3.46 3.46 0 0 0 0 -1 1.15 1.15 0 0 0 -0.24 -0.51 0.64 0.64 0 0 0 -0.33 -0.2 3.45 3.45 0 0 0 -0.6 0l-1.55 -0.11c-1.21 -0.06 -2.43 -0.13 -3.64 -0.16S10.72 1 9.51 1a19 19 0 0 0 -2.23 0.18 13.27 13.27 0 0 0 -2.2 0.5 4 4 0 0 0 -1 0.42 1.57 1.57 0 0 0 -0.59 0.61 0.8 0.8 0 0 0 -0.07 0.46c0 0.21 0.11 0.48 0.13 0.6 0.05 0.28 0.12 0.55 0.19 0.82s0.13 0.47 0.23 0.84c0.25 0.35 0.76 0.26 0.61 -0.18 -0.05 -0.25 -0.05 -0.25 -0.11 -0.53Z" fill="#4C57E6" stroke-width="1"></path>
    </g>
  </g>
</svg>