<svg xmlns="http://www.w3.org/2000/svg" viewBox="0 0 24 24" id="Ai-Robot-3--Streamline-Freehand">
  <desc>
    Ai Robot 3 Streamline Icon: https://streamlinehq.com
  </desc>
  <g>
    <path d="M8.32 10.74a1.23 1.23 0 0 0 1.27 -0.18 1.3 1.3 0 0 0 0.08 -2 1.21 1.21 0 0 0 -1.05 -0.26 0.28 0.28 0 0 0 -0.25 0 1.64 1.64 0 0 0 -0.64 0.54 1.31 1.31 0 0 0 -0.16 0.93 1.24 1.24 0 0 0 0.75 0.97Z" fill="#020202" stroke-width="1"></path>
    <path d="M15.81 10.66a1.21 1.21 0 0 0 0.59 -1.72 1.54 1.54 0 0 0 -2.2 -0.42 0.31 0.31 0 0 0 -0.17 0.36 1.23 1.23 0 0 0 0 1.19 1.3 1.3 0 0 0 1.78 0.59Z" fill="#020202" stroke-width="1"></path>
    <path d="M23.92 6.91a2.34 2.34 0 0 0 -0.52 -1.27 1.25 1.25 0 0 0 -0.7 -0.34l-1.15 0 -1.85 -0.18a6.9 6.9 0 0 0 -1.21 -2.05A8.13 8.13 0 0 0 10.81 0.68a9.49 9.49 0 0 0 -6.59 4.64 5.92 5.92 0 0 0 -0.31 0.73L3 6.17c-0.46 0.08 -0.92 0.19 -1.39 0.31a5.65 5.65 0 0 0 -0.75 0.11 0.81 0.81 0 0 0 -0.51 0.41A4.11 4.11 0 0 0 0 8.46a17.33 17.33 0 0 0 0.33 3.19 0.33 0.33 0 1 0 0.66 0C1 10.81 1 9.86 1 9a4.52 4.52 0 0 1 0.34 -1.5c0.19 0 0.56 -0.12 0.63 -0.14 0.42 -0.19 0.77 -0.25 1.19 -0.4l0.51 -0.16a11.54 11.54 0 0 0 -0.33 2.54 28.58 28.58 0 0 0 0.37 4.72c0 0.46 0.64 0.51 0.64 0.14a30.38 30.38 0 0 1 -0.21 -4.83 8.08 8.08 0 0 1 0.91 -3.59 7.79 7.79 0 0 1 2.22 -2.42 11.71 11.71 0 0 0 0.93 1.29 4 4 0 0 0 0.93 0.81 5.13 5.13 0 0 0 1.72 0.67 5.3 5.3 0 0 0 2.74 -0.22A5.59 5.59 0 0 0 16.85 3a6.46 6.46 0 0 1 0.89 0.78 7 7 0 0 1 1.53 3 20 20 0 0 1 0.51 5.22l0 1.7a3.27 3.27 0 0 1 0 0.45c-0.08 0.27 0.63 0.39 0.66 0a3 3 0 0 0 0.07 -0.43c0.05 -0.59 0 -1.2 0.06 -1.73a20.69 20.69 0 0 0 -0.38 -5.49 5.6 5.6 0 0 0 -0.2 -0.7l1.5 0.36a5.87 5.87 0 0 1 1.13 0.22c0.07 0 0.08 0.1 0.12 0.19a3.42 3.42 0 0 1 0.13 0.53l0.12 1.08 0.01 1.25v2a0.33 0.33 0 0 0 0.29 0.37 0.32 0.32 0 0 0 0.37 -0.28l0.25 -2L24 8.13Zm-7.64 -4.28a5 5 0 0 1 -3 2.26 5.45 5.45 0 0 1 -2.28 0.16 4.84 4.84 0 0 1 -1.46 -0.41 3.15 3.15 0 0 1 -0.82 -0.54A9.18 9.18 0 0 1 7.77 3 9.27 9.27 0 0 1 11 1.78a7.62 7.62 0 0 1 5.31 0.82s-0.02 0.01 -0.03 0.03Z" fill="#020202" stroke-width="1"></path>
    <path d="m19.31 14.6 -0.9 0a8.27 8.27 0 0 0 -0.83 0 0.94 0.94 0 0 0 -0.51 0.19 0.57 0.57 0 0 0 -0.17 0.27 4 4 0 0 0 0 0.72c0 0.23 0 0.61 -0.07 1a0.81 0.81 0 0 1 -0.1 0.35l-1.4 -0.34 -0.09 0 0 -0.69a2.05 2.05 0 0 0 -0.82 -1.56 3.47 3.47 0 0 0 -1.57 -0.35 8.63 8.63 0 0 0 -2.3 0.08 2.91 2.91 0 0 0 -1.63 0.73 1.27 1.27 0 0 0 -0.29 0.64 11.18 11.18 0 0 0 0 1.16h-0.18c-0.32 0 -0.68 0.07 -1 0.06a1.55 1.55 0 0 1 -0.53 -0.07c-0.13 -0.05 -0.12 -0.19 -0.14 -0.32a6.67 6.67 0 0 0 -0.06 -0.92 1 1 0 0 0 -0.35 -0.58 0.68 0.68 0 0 0 -0.42 -0.15 5.73 5.73 0 0 0 -0.94 0.07l-0.56 0 -0.61 0 -1.37 -0.09a0.29 0.29 0 0 0 -0.32 0.26 0.28 0.28 0 0 0 0 0.15 0.3 0.3 0 0 0 -0.14 0.2 15.77 15.77 0 0 0 -0.19 3.44 5 5 0 0 0 0.68 2.33 3.18 3.18 0 0 0 1.15 1.07 8.45 8.45 0 0 0 2.05 0.72 19.62 19.62 0 0 0 3.3 0.4c1.61 0.11 3.24 0.05 4.83 0a26.74 26.74 0 0 0 5 -0.1 4 4 0 0 0 2.12 -1.07 5 5 0 0 0 1.21 -2.68 15.42 15.42 0 0 0 0 -4.19 0.33 0.33 0 0 0 -0.36 -0.3 0.32 0.32 0 0 0 -0.16 0.09 0.32 0.32 0 0 0 -0.29 -0.32l-1 -0.13s-0.93 -0.06 -1.04 -0.07Zm1.94 0.9a0.37 0.37 0 0 0 0.2 -0.07 14.46 14.46 0 0 1 -0.11 4 4.19 4.19 0 0 1 -1.07 2.19 3.64 3.64 0 0 1 -2.31 0.82 41.69 41.69 0 0 1 -4.18 -0.12c-1.57 0 -3.17 0.05 -4.76 0a20 20 0 0 1 -3.09 -0.35 7.18 7.18 0 0 1 -1.85 -0.54 2.49 2.49 0 0 1 -0.88 -0.74 4.34 4.34 0 0 1 -0.65 -1.94 14.39 14.39 0 0 1 0.05 -3.3s0 -0.05 0 -0.08l2.4 0.2 0.92 0a1 1 0 0 1 0 0.46 2.64 2.64 0 0 0 0.1 1 1 1 0 0 0 0.52 0.52 2.33 2.33 0 0 0 0.64 0.17c0.43 0.05 0.89 0 1.28 0l0.56 0a0.56 0.56 0 0 0 0.52 -0.36 2 2 0 0 0 0.09 -0.52l0 -0.92c0 -0.3 0.35 -0.57 1 -0.71a8 8 0 0 1 2 -0.06 2.32 2.32 0 0 1 1.06 0.18c0.2 0.12 0.27 0.36 0.35 0.79l0.09 1a0.55 0.55 0 0 0 0.36 0.42c0.13 0 0.46 0.1 0.5 0.11a12.6 12.6 0 0 0 1.58 0.22 1 1 0 0 0 0.73 -0.22 1.25 1.25 0 0 0 0.28 -0.68 9.34 9.34 0 0 0 0.07 -1.22s0 -0.4 0.05 -0.4l0.67 -0.06a7.48 7.48 0 0 1 0.82 0c0.73 0.08 1.41 0.17 2.06 0.21Z" fill="#4C57E6" stroke-width="1"></path>
  </g>
</svg>