<svg xmlns="http://www.w3.org/2000/svg" viewBox="0 0 24 24" id="Aircraft-Plane-2--Streamline-Freehand">
  <desc>
    Aircraft Plane 2 Streamline Icon: https://streamlinehq.com
  </desc>
  <g>
    <path d="m19 1.69 -0.05 0c-0.05 0 0.05 0.02 0.05 0Z" fill="#020202" stroke-width="1"></path>
    <path d="M22 19.65c-0.4 -0.4 -0.85 -0.74 -1.26 -1.13s-0.8 -0.8 -1.21 -1.18c-0.19 -0.18 -0.4 -0.34 -0.6 -0.5a14 14 0 0 0 -1.21 -0.79c-0.88 -0.51 -1.8 -0.94 -2.65 -1.48a0.42 0.42 0 0 0 0 -0.12 0.34 0.34 0 0 0 -0.28 -0.38 4.43 4.43 0 0 0 -3.12 0.48 5.09 5.09 0 0 0 -1.11 0.81 5.72 5.72 0 0 0 -0.87 1 9.07 9.07 0 0 0 -1.21 2.79 0.31 0.31 0 0 0 0 0.25 0.3 0.3 0 0 0 0.25 0.32c0.54 0.11 1.07 0.23 1.6 0.36 0.72 0.17 1.42 0.36 2.13 0.56a2.93 2.93 0 0 0 0.17 1.68 1.74 1.74 0 0 0 0.46 0.68 1.42 1.42 0 0 0 2 0.07 2.51 2.51 0 0 0 0.36 -0.37 4.36 4.36 0 0 0 0.35 -0.59 0.33 0.33 0 1 0 -0.56 -0.36 3.34 3.34 0 0 1 -0.32 0.33 1.6 1.6 0 0 1 -0.32 0.21 0.54 0.54 0 0 1 -0.54 0 1 1 0 0 1 -0.32 -0.28 2.94 2.94 0 0 1 -0.61 -1.19l0.44 0.12c1.08 0.28 2.15 0.51 3.23 0.76a22 22 0 0 0 2.66 0.56 3 3 0 0 0 1.32 -0.14 2.84 2.84 0 0 0 0.63 -0.36 7.76 7.76 0 0 0 0.73 -0.66 0.33 0.33 0 0 0 0.07 -0.34 0.3 0.3 0 0 0 0.22 -0.06 0.34 0.34 0 0 0 0.05 -0.47 5.57 5.57 0 0 0 -0.48 -0.58Zm-1 1.51a2.23 2.23 0 0 1 -0.47 0.22 2.65 2.65 0 0 1 -1.3 -0.06c-0.78 -0.19 -1.59 -0.52 -2.17 -0.68 -0.81 -0.19 -1.61 -0.4 -2.42 -0.58 -0.54 -0.12 -1.08 -0.22 -1.63 -0.32 -1.28 -0.23 -2.56 -0.42 -3.85 -0.55A10.67 10.67 0 0 1 10.59 17a8.92 8.92 0 0 1 1.32 -1.29 4.07 4.07 0 0 1 2.45 -0.93 0.3 0.3 0 0 0 0.1 0.18c0.36 0.31 0.74 0.61 1.12 0.9s1 0.79 1.59 1.17c0.34 0.25 0.7 0.49 1 0.75l1.88 1.51c0.39 0.28 0.8 0.53 1.18 0.81a4.28 4.28 0 0 1 0.55 0.49 0.25 0.25 0 0 0 -0.16 0.06 6.34 6.34 0 0 1 -0.62 0.51Z" fill="#4C57E6" stroke-width="1"></path>
    <path d="M22.86 9.82Z" fill="#020202" stroke-width="1"></path>
    <g>
      <path d="m23.68 9.06 -0.5 -0.5 -1.11 -0.78q-0.36 -0.24 -0.75 -0.45a7 7 0 0 0 -0.78 -0.33s0 0 0 -0.06l-0.08 -2.6 -0.09 -1.54 -0.14 -1a1.54 1.54 0 0 0 -0.8 -1.14 1.08 1.08 0 0 0 -0.81 0 3.45 3.45 0 0 0 -1 0.63L17 2a6.28 6.28 0 0 0 -0.85 1.91c-0.26 0.92 -0.4 1.9 -0.55 2.72l-5.32 2.84c-1.12 0.61 -2.38 1.17 -3.52 1.88a11 11 0 0 0 -2.16 1.7 6.65 6.65 0 0 0 -1.26 1.77 6 6 0 0 0 -0.65 2.28 8.09 8.09 0 0 0 -1.27 3.09 2.15 2.15 0 0 0 1.42 2.29 3.14 3.14 0 0 0 0.73 0.19 1.7 1.7 0 0 0 0.55 0 3.78 3.78 0 0 0 0.63 -0.19 8 8 0 0 0 0.77 -0.4 7.87 7.87 0 0 0 0.8 -0.52c0.37 -0.28 0.72 -0.57 1.07 -0.86a0.35 0.35 0 0 0 0.08 -0.47 0.34 0.34 0 0 0 -0.47 -0.09c-0.38 0.24 -0.74 0.49 -1.13 0.71a6 6 0 0 1 -0.76 0.39l-0.11 0.05a3.63 3.63 0 0 0 -0.27 -1.18 2.33 2.33 0 0 0 -0.63 -0.85 2.1 2.1 0 0 0 -1.37 -0.44c0.1 -0.33 0.22 -0.67 0.34 -1a3.94 3.94 0 0 0 1.33 0.62 2.78 2.78 0 0 0 0.76 0.05 2.76 2.76 0 0 0 0.76 -0.14 3.41 3.41 0 0 0 1.48 -1 4.34 4.34 0 0 0 0.57 -1 0.47 0.47 0 0 0 0 -0.17 0.51 0.51 0 0 0 0 -0.17s-0.56 -1 -1 -0.93 -0.72 -0.1 -1.07 -0.13a4.12 4.12 0 0 0 -0.7 0c-0.38 0 -0.75 0.08 -1.15 0.12a6.84 6.84 0 0 1 1.17 -1.35 12.43 12.43 0 0 1 2.09 -1.43c1.15 -0.67 2.35 -1.29 3.46 -1.9L16 7.15a0.26 0.26 0 0 0 0.12 0.34 2.74 2.74 0 0 0 1.35 0.63 2.09 2.09 0 0 0 0.66 0 2.75 2.75 0 0 0 0.62 -0.12A6.21 6.21 0 0 0 20 7.26s0.05 -0.06 0.08 -0.1a0.34 0.34 0 0 0 0.17 0.37 6.93 6.93 0 0 1 1.31 0.94l0.95 0.86 0.28 0.36a0.76 0.76 0 0 1 0.08 0.11s0 0.05 0 0.07a1.69 1.69 0 0 1 -0.34 0.08 8.28 8.28 0 0 1 -1 0.14l-0.51 0.07 -1.56 0.2 -0.56 0.12a0.34 0.34 0 0 0 -0.1 -0.16 0.29 0.29 0 0 0 -0.41 0.08c-0.38 0.39 -0.72 0.64 -1 0.93 -0.14 0.13 -0.27 0.28 -0.4 0.42s-0.26 0.31 -0.38 0.48a11.83 11.83 0 0 0 -0.74 1.25 0.35 0.35 0 0 0 0.08 0.47 0.34 0.34 0 0 0 0.47 -0.08c0.39 -0.4 0.73 -0.68 1 -1a7.3 7.3 0 0 0 0.65 -0.71 7.47 7.47 0 0 0 0.64 -1.16 0.37 0.37 0 0 0 0.15 0l0.64 0 1.55 0.06h0.51A5.68 5.68 0 0 0 22.8 11a1.64 1.64 0 0 0 1 -0.53 1.09 1.09 0 0 0 -0.12 -1.41Zm-20.36 11a4 4 0 0 1 0.45 0.55 5.82 5.82 0 0 1 0.52 0.9 2.06 2.06 0 0 1 -0.29 0.09 0.85 0.85 0 0 1 -0.32 0 1.71 1.71 0 0 1 -0.38 -0.13 1.2 1.2 0 0 1 -0.81 -1.2 4.65 4.65 0 0 1 0.08 -0.73 1.88 1.88 0 0 1 0.75 0.54Zm1.67 -4a2.63 2.63 0 0 0 0.48 0.06 3.91 3.91 0 0 0 0.49 0A6.22 6.22 0 0 0 7 15.83a1.39 1.39 0 0 0 -0.17 0.3 0.44 0.44 0 0 0 0 0.16 0.42 0.42 0 0 0 0 0.16 2.82 2.82 0 0 0 0.21 0.38 0.33 0.33 0 0 0 -0.16 0 3.14 3.14 0 0 1 -1.47 0.47 6.86 6.86 0 0 1 -0.91 0c-1.19 0 -1.71 0.12 -0.77 -1.78 0 0 0.08 0.07 0.13 0.07a8.42 8.42 0 0 0 1.14 0.46Zm14.67 -9.4a7.6 7.6 0 0 1 -1.43 0.3l-0.51 0.04 -0.34 0a2.74 2.74 0 0 1 -1 -0.1 0.31 0.31 0 0 0 -0.19 0 0.31 0.31 0 0 0 0 -0.33s0 0 -0.06 0c0.21 -0.74 0.44 -1.6 0.75 -2.39a5.64 5.64 0 0 1 0.86 -1.53l0.54 -0.51a4.22 4.22 0 0 1 0.47 -0.34 1.77 1.77 0 0 1 0.25 -0.12c0.07 -0.07 0.12 0.21 0.18 0.39l0.18 0.84 0.21 1.48q0.11 0.63 0.18 1.26c0 0.33 0.07 0.67 0.1 1a0.27 0.27 0 0 0 -0.19 0.01Z" fill="#020202" stroke-width="1"></path>
      <path d="M2.25 14.61c0.59 0.75 0.69 0.3 0.5 -0.83l-0.17 -0.45L2 11.57c-0.17 -0.49 -0.4 -1.09 -0.62 -1.71a9 9 0 0 1 -0.44 -1.64 2.42 2.42 0 0 1 0.23 -1.58s0 0 0 0.05C1.86 7.18 2.4 7.75 3 8.28c0.26 0.23 0.54 0.44 0.83 0.66a6.41 6.41 0 0 0 0.7 0.45c0.54 0.31 1.12 0.56 1.64 0.89a6.18 6.18 0 0 1 0.53 0.36 0.34 0.34 0 0 0 0.45 -0.5 8.62 8.62 0 0 0 -0.78 -0.71c-0.61 -0.49 -1.28 -0.9 -1.87 -1.4 -0.29 -0.2 -0.56 -0.42 -0.84 -0.61l-0.6 -0.37a17 17 0 0 0 -1.57 -0.87 0.33 0.33 0 0 0 0 -0.36 0.33 0.33 0 0 0 -0.47 0A2.89 2.89 0 0 0 0 8.3a7.47 7.47 0 0 0 0.35 1.91c0.2 0.64 0.45 1.23 0.62 1.72l0.79 1.75Z" fill="#4C57E6" stroke-width="1"></path>
    </g>
  </g>
</svg>