<svg xmlns="http://www.w3.org/2000/svg" viewBox="0 0 24 24" id="Aircraft-Propeller--Streamline-Freehand">
  <desc>
    Aircraft Propeller Streamline Icon: https://streamlinehq.com
  </desc>
  <g>
    <path d="M22.34 22.14a1.48 1.48 0 0 1 -1.25 0.71 2.82 2.82 0 0 1 -1.2 -0.5 1 1 0 0 0 -0.72 -0.15 1 1 0 0 0 -0.28 0.12c-0.18 0.11 -0.32 0.3 -0.51 0.41a1.45 1.45 0 0 1 -0.58 0.14 3.22 3.22 0 0 1 -0.69 -0.06 4.58 4.58 0 0 1 -0.85 -0.21 2.13 2.13 0 0 1 -0.49 -0.21c-0.17 -0.09 -0.32 -0.26 -0.49 -0.36a1.34 1.34 0 0 0 -0.28 -0.13 1.18 1.18 0 0 0 -0.28 0c-0.15 0 -0.34 0.05 -0.47 0.06a2 2 0 0 1 -0.59 -0.08 1 1 0 0 1 -0.44 -0.28 1.44 1.44 0 0 1 0 -1.75 1.51 1.51 0 0 1 1.78 -0.68 0.31 0.31 0 0 0 0.25 -0.57 2.22 2.22 0 0 0 -2.7 0.69 2.43 2.43 0 0 0 -0.19 2.93 1.89 1.89 0 0 0 0.69 0.6 2.57 2.57 0 0 0 1.25 0.28c0.1 0 0.36 0.07 0.4 0l0.49 0.36a4.25 4.25 0 0 0 0.88 0.35 6.87 6.87 0 0 0 0.86 0.17 3.6 3.6 0 0 0 1.18 0 2.23 2.23 0 0 0 0.79 -0.3l0.47 -0.41c0.08 0 0.24 0.05 0.35 0.1a2.68 2.68 0 0 0 1.82 0.3 2.38 2.38 0 0 0 1.38 -1.08 0.35 0.35 0 0 0 -0.08 -0.49 0.36 0.36 0 0 0 -0.5 0.04Z" fill="#4C57E6" stroke-width="1"></path>
    <path d="m2.18 5.16 0.28 0.21a3.83 3.83 0 0 0 0.65 0.26l0.63 0.12a3 3 0 0 0 0.89 0 2 2 0 0 0 0.61 -0.24l0.2 -0.2a2 2 0 0 0 1.61 0.17 1.74 1.74 0 0 0 1 -0.81 0.36 0.36 0 1 0 -0.58 -0.42 0.91 0.91 0 0 1 -0.79 0.44 2.56 2.56 0 0 1 -1 -0.43 0.61 0.61 0 0 0 -0.45 0 1 1 0 0 0 -0.24 0.1c-0.13 0.07 -0.22 0.2 -0.36 0.27a0.85 0.85 0 0 1 -0.35 0.08 2.28 2.28 0 0 1 -0.44 -0.05 3.21 3.21 0 0 1 -0.57 -0.15A1.44 1.44 0 0 1 3 4.32c-0.12 -0.07 -0.23 -0.18 -0.35 -0.26L2.47 4a1 1 0 0 0 -0.26 0l-0.33 0a0.89 0.89 0 0 1 -0.36 0 0.53 0.53 0 0 1 -0.23 -0.13 0.86 0.86 0 0 1 0 -1.06 1 1 0 0 1 1.11 -0.45 0.31 0.31 0 1 0 0.25 -0.57 1.66 1.66 0 0 0 -2 0.5 1.84 1.84 0 0 0 -0.24 2.15 1.44 1.44 0 0 0 0.59 0.49 2 2 0 0 0 1 0.22s0.12 0.04 0.18 0.01Z" fill="#4C57E6" stroke-width="1"></path>
    <path d="M23.63 19.54a2.66 2.66 0 0 0 -1.39 -1.12c-0.19 -0.07 -0.83 0 -0.74 -0.15a8.55 8.55 0 0 1 -0.77 -1 2.1 2.1 0 0 0 -0.33 -0.27 4 4 0 0 0 -2.62 -0.67 3.47 3.47 0 0 0 -2.35 1.21 0.35 0.35 0 0 0 0 0.5 0.36 0.36 0 0 0 0.5 0 2.71 2.71 0 0 1 1.88 -0.71 3 3 0 0 1 1.87 0.65 5.81 5.81 0 0 1 0.8 1 1.73 1.73 0 0 0 0.35 0.31 0.84 0.84 0 0 0 0.37 0.17c0.22 0.05 0.53 0 0.72 0.05a1.65 1.65 0 0 1 1 0.57 1.12 1.12 0 0 1 0.18 1.07 0.31 0.31 0 1 0 0.57 0.25 1.81 1.81 0 0 0 -0.04 -1.86Z" fill="#4C57E6" stroke-width="1"></path>
    <path d="M3.15 1.43A1.79 1.79 0 0 1 4.41 1a2 2 0 0 1 1.21 0.46c0.24 0.17 0.35 0.45 0.54 0.66a1.55 1.55 0 0 0 0.27 0.24 0.68 0.68 0 0 0 0.32 0.15l0.51 0a1.06 1.06 0 0 1 0.64 0.32 0.63 0.63 0 0 1 0.1 0.67 0.32 0.32 0 0 0 0.17 0.41 0.31 0.31 0 0 0 0.41 -0.16 1.38 1.38 0 0 0 0 -1.35 2 2 0 0 0 -1 -0.88C7.43 1.47 7 1.56 7 1.4a6.79 6.79 0 0 1 -0.4 -0.66L6.32 0.49a3.07 3.07 0 0 0 -2 -0.47 2.59 2.59 0 0 0 -1.68 0.92 0.35 0.35 0 1 0 0.51 0.49Z" fill="#4C57E6" stroke-width="1"></path>
    <path d="M13.12 14.86c0.14 -0.32 0.3 -0.64 0.41 -1a3 3 0 0 0 0.15 -0.59 0.29 0.29 0 0 0 0.27 0.12 2.55 2.55 0 0 0 0.51 -0.08l0.83 -0.24a6 6 0 0 0 1.25 -0.24 11.05 11.05 0 0 0 1.75 -0.65 9.53 9.53 0 0 0 1 -0.46 2.43 2.43 0 0 0 0.65 -0.53 0.93 0.93 0 0 0 0.22 -0.51 4.36 4.36 0 0 0 -0.07 -0.81 5.53 5.53 0 0 0 -0.37 -1.37l0.85 -0.07 0.13 0c0.09 0.22 0.19 0.44 0.29 0.67 0 0.06 0.17 0.48 0.26 0.63s0.37 0.28 0.48 0.23a0.35 0.35 0 0 0 0.27 -0.44 0.31 0.31 0 0 0 -0.05 -0.1c0.13 -0.06 0 -0.53 0 -0.59l-0.12 -0.77c0.15 -0.07 0.29 -0.14 0.43 -0.19s0.3 -0.1 0.45 -0.17a0.89 0.89 0 0 0 0.29 -0.17 0.36 0.36 0 0 0 0 -0.53 0.35 0.35 0 0 0 -0.5 0H22l-0.54 0c-0.06 -0.13 -0.13 -0.25 -0.19 -0.38s-0.17 -0.58 -0.32 -0.59 0 0 0 -0.08a0.33 0.33 0 0 0 -0.33 -0.3c-0.16 0 -0.29 0.1 -0.35 0.38a4.19 4.19 0 0 0 0.08 0.86l0 0.42 -0.15 0.06 -0.74 0.4 -0.11 0a3.68 3.68 0 0 0 -0.51 -0.74 1.9 1.9 0 0 0 -1.54 -0.61 4.65 4.65 0 0 0 -1.26 0.23c-0.06 -0.07 -0.11 -0.14 -0.19 -0.22a7 7 0 0 0 -0.93 -0.74 11 11 0 0 0 -1 -0.58 4.19 4.19 0 0 0 -0.75 -0.3 2.81 2.81 0 0 0 -2.08 0.26A6.62 6.62 0 0 0 9 7L8 8.72a8.29 8.29 0 0 0 -0.51 0.69l-0.19 0.09a5.24 5.24 0 0 1 -1.13 0.43 3.18 3.18 0 0 1 -1 0.15c-0.21 0.28 -0.7 -0.87 -0.81 -1.06a3.38 3.38 0 0 0 -0.24 -0.46 0.65 0.65 0 0 0 -0.21 -0.18 0.83 0.83 0 0 0 -0.49 -0.09 5.13 5.13 0 0 0 -0.87 0.26 2.72 2.72 0 0 0 -0.61 0.27 1.1 1.1 0 0 0 -0.36 0.35 1.27 1.27 0 0 0 -0.09 0.83A5.78 5.78 0 0 0 2 11.25l0.79 1.92a4.55 4.55 0 0 0 0.29 0.59 1 1 0 0 0 0.25 0.23 1.27 1.27 0 0 0 0.39 0.12 5.69 5.69 0 0 1 1.08 0.13c0.19 0.07 0.38 0.16 0.58 0.22a1.91 1.91 0 0 0 0.47 0.12l1.9 0.29c0.1 0 0.63 0.13 0.84 0.15h0.07l-0.51 1.43a6.37 6.37 0 0 0 -0.28 1.49 0.87 0.87 0 0 0 0.4 0.76 3.11 3.11 0 0 0 1.84 0.16 3.29 3.29 0 0 0 1.68 -0.76 3.7 3.7 0 0 0 0.63 -1c0.29 -0.74 0.41 -1.57 0.7 -2.24Zm-0.18 -8.94a5.61 5.61 0 0 1 0.62 0.18c0.33 0.12 0.63 0.27 1 0.43a4.08 4.08 0 0 1 0.61 0.37l0.09 0.06c-0.36 0.09 -0.74 0.13 -1.11 0.22a2.54 2.54 0 0 0 -0.61 0.19l-0.57 0.26c0 -0.18 0 -0.37 -0.09 -0.55a3.54 3.54 0 0 0 -0.14 -0.39c-0.07 -0.14 -0.15 -0.25 -0.22 -0.38s-0.11 -0.25 -0.18 -0.37a1.49 1.49 0 0 1 0.6 -0.02Zm-3.1 1.77a6.57 6.57 0 0 1 1.71 -1.42l0 0.32 0 0.43a2.6 2.6 0 0 0 0.1 0.4 4.68 4.68 0 0 0 0.3 0.64 3.89 3.89 0 0 1 -0.42 0.19 4.39 4.39 0 0 1 -0.78 0.24c-0.63 0.13 -1.32 0.25 -2 0.43Zm-1.42 7.16a0.25 0.25 0 0 1 0 -0.34 0.32 0.32 0 0 0 0 0.34Zm0.09 -0.4a4 4 0 0 1 -0.63 -0.22l-1.95 -0.37 -0.85 -0.33a2.47 2.47 0 0 0 -0.36 -0.11 4 4 0 0 1 -1 -0.14c0.1 -0.11 -0.16 -0.38 -0.21 -0.49l-0.71 -1.94c-0.09 -0.21 -0.22 -0.48 -0.31 -0.74a0.81 0.81 0 0 1 -0.07 -0.38s0.33 -0.15 0.42 -0.18 0.36 0 0.52 -0.05a6.41 6.41 0 0 0 0.88 1.28 1.17 1.17 0 0 0 0.59 0.37 3.47 3.47 0 0 0 1.29 -0.08 7.16 7.16 0 0 0 1.68 -0.58A6 6 0 0 1 9 10.1c0.67 -0.19 1.38 -0.31 2 -0.44a5.55 5.55 0 0 0 1 -0.3c0.66 -0.27 1.3 -0.64 1.94 -0.92L15.66 8a6.88 6.88 0 0 1 1.69 -0.45 0.92 0.92 0 0 1 0.77 0.25 3.58 3.58 0 0 1 0.65 1 4 4 0 0 1 0.37 1.2l0.09 0.66a1.73 1.73 0 0 1 -0.41 0.35 9.19 9.19 0 0 1 -0.88 0.45 12.25 12.25 0 0 1 -1.34 0.54 6.32 6.32 0 0 1 -1.38 0.34 1.14 1.14 0 0 0 -0.34 0.07c-0.21 0.06 -0.4 0.15 -0.63 0.23l-0.31 0 -0.09 0 -0.09 0a1.23 1.23 0 0 0 0 -0.26 0.62 0.62 0 0 0 -0.18 -0.4 0.84 0.84 0 0 0 -0.4 -0.23 2 2 0 0 0 -0.64 0l-2 0.28c-0.11 0 -0.48 0 -0.47 0.13a0.35 0.35 0 0 0 -0.38 0.18 0.11 0.11 0 0 0 0 0.08 1.83 1.83 0 0 0 -0.39 0.6 11.09 11.09 0 0 0 -0.43 1.31 0.26 0.26 0 0 0 -0.19 0s-0.09 0.13 -0.17 0.12ZM9 17.91c-0.08 0 -0.11 0 -0.11 -0.16 0.03 0.05 0.11 0.14 0.11 0.16Zm2.37 -1.3a2.8 2.8 0 0 1 -0.43 0.68 2 2 0 0 1 -1 0.4 2.4 2.4 0 0 1 -1 0.06 6 6 0 0 1 0.25 -1.09L9.51 15c0.08 -0.26 0.17 -0.9 0.32 -1.43a1.46 1.46 0 0 1 0.25 -0.62h0.08c0.13 0 0.32 -0.1 0.41 -0.1l2 -0.15a0.56 0.56 0 0 1 0.15 0 1.57 1.57 0 0 0 0 0.22 2.52 2.52 0 0 1 -0.17 0.53c-0.13 0.3 -0.3 0.59 -0.44 0.88 -0.3 0.74 -0.48 1.56 -0.79 2.28Z" fill="#020202" stroke-width="1"></path>
    <path d="m8.54 14.43 0.11 0c0 -0.09 -0.06 -0.04 -0.11 0Z" fill="#020202" stroke-width="1"></path>
    <path d="m16.17 10.49 0.3 0.45a1.8 1.8 0 0 0 0.19 0.21l0.07 0.08a0.33 0.33 0 0 0 0.22 0.09 0.36 0.36 0 0 0 0.29 -0.58s0 -0.13 0 -0.16l0 -0.39 0 -0.43a2.29 2.29 0 0 0 -0.24 -0.44 4.47 4.47 0 0 0 -0.27 -0.59s-0.05 -0.26 -0.14 -0.24a0.29 0.29 0 0 0 -0.05 -0.28 0.31 0.31 0 0 0 -0.43 -0.07c-0.07 0 -0.1 0.11 -0.15 0.2a1.74 1.74 0 0 0 -0.07 0.57 5.21 5.21 0 0 0 0 0.79 3.21 3.21 0 0 0 0.28 0.79Z" fill="#4C57E6" stroke-width="1"></path>
  </g>
</svg>