<svg xmlns="http://www.w3.org/2000/svg" viewBox="0 0 24 24" id="Aircraft-Hot-Air-Balloon--Streamline-Freehand">
  <desc>
    Aircraft Hot Air Balloon Streamline Icon: https://streamlinehq.com
  </desc>
  <g>
    <path d="m14.59 19.61 0 -0.06a0.38 0.38 0 0 0 0 -0.15c1 -1.19 2 -2.35 2.86 -3.57a21 21 0 0 0 1.73 -2.73 16.75 16.75 0 0 0 0.93 -2.1 10.64 10.64 0 0 0 0.57 -2.27 7.64 7.64 0 0 0 0 -1.27 8.4 8.4 0 0 0 -0.14 -1.24A7.09 7.09 0 0 0 16.35 0.91a10.41 10.41 0 0 0 -6.8 -0.6 7.54 7.54 0 0 0 -2.3 1.07 13 13 0 0 0 -2.66 2.53A8.14 8.14 0 0 0 3.33 6a5.93 5.93 0 0 0 -0.43 2.44 8.07 8.07 0 0 0 0.4 2.2 15.1 15.1 0 0 0 1.38 3 42.67 42.67 0 0 0 2.37 3.7A18.19 18.19 0 0 0 9 19.54a0.22 0.22 0 0 0 0.11 0.05s0 0.08 0 0.12a0.29 0.29 0 0 0 0.1 0.12A18.85 18.85 0 0 0 8.63 22a2.33 2.33 0 0 0 0.12 1.19 1.34 1.34 0 0 0 0.78 0.66 2.66 2.66 0 0 0 1.18 0.1c0.69 -0.1 1.38 -0.19 2.06 -0.3 0.47 -0.07 0.92 -0.16 1.39 -0.26a0.29 0.29 0 0 0 0.23 -0.22 0.3 0.3 0 0 0 0.38 0.05 1.54 1.54 0 0 0 0.67 -1.64 2.6 2.6 0 0 0 -0.23 -0.91 7.81 7.81 0 0 0 -0.62 -1.06Zm5.07 -13.24a8.52 8.52 0 0 1 0.15 1.13 6 6 0 0 1 0 1.12 9.65 9.65 0 0 1 -0.47 2.1 16.52 16.52 0 0 1 -0.85 2 21.87 21.87 0 0 1 -1.63 2.67l-0.31 0.42a2 2 0 0 0 -0.31 -1.71 1.46 1.46 0 0 0 -1.31 -0.45 1.92 1.92 0 0 0 -0.77 0.24 7.89 7.89 0 0 0 0.33 -0.72c0.23 -0.58 0.4 -1.19 0.57 -1.75a17.31 17.31 0 0 0 0.63 -2.58 12.71 12.71 0 0 0 0.13 -2.68 11.89 11.89 0 0 0 -1.37 -4.84 9.23 9.23 0 0 1 1.48 0.51 6.2 6.2 0 0 1 3.73 4.54ZM13.8 1.21a0.21 0.21 0 0 0 0 0.11 12.46 12.46 0 0 1 0.93 3.9 16.74 16.74 0 0 1 -0.05 3 22.39 22.39 0 0 1 -0.48 3c-0.13 0.56 -0.24 1.17 -0.42 1.74a5.85 5.85 0 0 1 -0.42 1l-0.11 -0.19a1.88 1.88 0 0 0 -1.5 -0.66 2 2 0 0 0 -1.47 0.67 2.44 2.44 0 0 0 -0.28 0.43A25.14 25.14 0 0 1 8.86 10a14.2 14.2 0 0 1 -0.2 -3 12.79 12.79 0 0 1 0.23 -2 9.44 9.44 0 0 1 0.67 -2.26 3.09 3.09 0 0 1 0.9 -1.18 0.28 0.28 0 0 0 0.08 -0.39 9.38 9.38 0 0 1 3.26 0.04Zm-9.56 9.68a7.91 7.91 0 0 1 -0.47 -2.48 5.09 5.09 0 0 1 0.43 -2 6.77 6.77 0 0 1 1.15 -1.86 13.59 13.59 0 0 1 2 -2 6.73 6.73 0 0 1 2.46 -1.21l0.12 0A4.09 4.09 0 0 0 9 2.46a9.82 9.82 0 0 0 -1 2.38 10.77 10.77 0 0 0 -0.34 1.71 10.34 10.34 0 0 0 0 2.61 17.54 17.54 0 0 0 1.38 4.63L9 13.73a1.62 1.62 0 0 0 -0.93 -0.09 1.57 1.57 0 0 0 -1.22 1 2.08 2.08 0 0 0 0 1.14c-0.52 -0.83 -1 -1.67 -1.46 -2.49a15.62 15.62 0 0 1 -1.15 -2.4ZM7.56 17a1.19 1.19 0 0 1 -0.09 -0.15 0.28 0.28 0 0 0 0.13 -0.36 2.39 2.39 0 0 1 -0.2 -1.35 0.82 0.82 0 0 1 0.79 -0.66 0.81 0.81 0 0 1 0.53 0.15 1.91 1.91 0 0 1 0.47 0.51c0.57 0.92 0.55 1.06 1 1a0.48 0.48 0 0 0 0.36 -0.31c0.12 -0.28 0.22 -0.57 0.35 -0.85a2.22 2.22 0 0 1 0.25 -0.42 0.9 0.9 0 0 1 0.68 -0.28 0.83 0.83 0 0 1 0.68 0.25 1.06 1.06 0 0 1 0.18 0.33c0.09 0.26 0.13 0.54 0.21 0.81a0.45 0.45 0 0 0 0.35 0.35 0.47 0.47 0 0 0 0.47 -0.13 2.33 2.33 0 0 0 0.14 -0.31l0.25 -0.43a1.73 1.73 0 0 1 0.42 -0.39 1.32 1.32 0 0 1 0.53 -0.2 0.68 0.68 0 0 1 0.78 0.28 1.57 1.57 0 0 1 0.1 1.08 0.31 0.31 0 0 0 0.23 0.38 0.27 0.27 0 0 0 0.13 0c-0.75 1 -1.53 2 -2.3 3l-1.94 -0.3 -0.66 0a4.18 4.18 0 0 0 -0.71 0 4.06 4.06 0 0 0 -1.27 0.31 0.35 0.35 0 0 0 -0.05 -0.13A16.18 16.18 0 0 1 7.56 17Zm6.86 5.78a0.29 0.29 0 0 0 -0.11 0.16 0.32 0.32 0 0 0 -0.25 -0.09l-3.44 0.14a2 2 0 0 1 -0.64 0c-0.12 0 -0.25 -0.05 -0.31 -0.16a1.85 1.85 0 0 1 -0.13 -1c0 -0.72 0.16 -1.5 0.19 -1.88l0 -0.06a2.5 2.5 0 0 1 0.47 0 6.42 6.42 0 0 1 0.88 0.12c0.31 0 0.63 0.05 1 0.07l2 -0.16c0 0.27 0.11 0.75 0.22 1.28 0.05 0.21 0.11 0.42 0.15 0.62a2.12 2.12 0 0 1 0.11 0.56 0.51 0.51 0 0 1 -0.14 0.35Z" fill="#020202" fill-rule="evenodd" stroke-width="1"></path>
    <path d="M23.35 19.38a1.28 1.28 0 0 0 -1.48 -0.59 1.8 1.8 0 0 0 -1.26 -1 2 2 0 0 0 -0.81 0 1.86 1.86 0 0 0 -0.76 0.33 1.52 1.52 0 0 0 -0.65 1.24 1.63 1.63 0 0 0 -1.07 0.78 1.19 1.19 0 0 0 0.24 1.45 1.59 1.59 0 0 0 0.77 0.43 5.05 5.05 0 0 0 1.08 0.1 14.38 14.38 0 0 0 2.05 -0.12 4.16 4.16 0 0 0 1.41 -0.45 1.48 1.48 0 0 0 0.48 -2.17Zm-0.91 1.34a3.75 3.75 0 0 1 -1.13 0.28c-0.64 0.08 -1.32 0.08 -1.92 0.1a4.12 4.12 0 0 1 -0.86 0 0.66 0.66 0 0 1 -0.37 -0.13 0.46 0.46 0 0 1 -0.09 -0.67c0.37 -0.52 1 0 1.2 -0.56a0.26 0.26 0 0 0 -0.16 -0.31 0.94 0.94 0 0 1 0.47 -0.45 2.71 2.71 0 0 1 0.43 -0.14 1.19 1.19 0 0 1 1.31 0.35l-0.06 0.06a0.32 0.32 0 0 0 0.47 0.42 0.56 0.56 0 0 1 0.95 0.14 0.61 0.61 0 0 1 -0.24 0.91Z" fill="#4C57E6" fill-rule="evenodd" stroke-width="1"></path>
    <path d="M5.32 16.53a10.83 10.83 0 0 1 -2.09 0.15c-0.28 0 -0.55 0 -0.8 -0.07a2.4 2.4 0 0 1 -1 -0.3c-0.18 -0.11 -0.21 -0.27 -0.11 -0.4a0.91 0.91 0 0 1 0.77 -0.4 0.28 0.28 0 0 0 0.33 -0.21 0.25 0.25 0 0 0 -0.06 -0.22 0.45 0.45 0 0 0 0 -0.11 1 1 0 0 1 0.19 -0.42c0 -0.05 0.07 -0.08 0.1 -0.13l0.13 -0.19a1.75 1.75 0 0 1 0.36 -0.42 0.27 0.27 0 1 0 -0.13 -0.53 1.46 1.46 0 0 0 -0.87 0.18 1 1 0 0 0 -0.31 0.29 0.82 0.82 0 0 0 -0.14 0.26 1.57 1.57 0 0 0 0 0.91 1.77 1.77 0 0 0 -1.23 0.74 1.07 1.07 0 0 0 0.32 1.47 3.32 3.32 0 0 0 2 0.54 8.91 8.91 0 0 0 2.69 -0.53 0.31 0.31 0 0 0 0.22 -0.39 0.31 0.31 0 0 0 -0.37 -0.22Z" fill="#4C57E6" fill-rule="evenodd" stroke-width="1"></path>
  </g>
</svg>