<svg xmlns="http://www.w3.org/2000/svg" viewBox="0 0 24 24" id="Aircraft-Propeller-3--Streamline-Freehand">
  <desc>
    Aircraft Propeller 3 Streamline Icon: https://streamlinehq.com
  </desc>
  <g>
    <path d="M22.49 15.49c-1.12 0.24 -2.29 0.47 -3.46 0.71l-1.12 0.25c-0.37 0.09 -0.74 0.19 -1.12 0.26a9.66 9.66 0 0 1 -1.42 0.17 0.29 0.29 0 0 0 -0.31 0.28 0.3 0.3 0 0 0 0.28 0.3 10.46 10.46 0 0 0 3.06 0 13.63 13.63 0 0 0 1.76 -0.46c0.86 -0.27 1.69 -0.62 2.51 -0.92a0.33 0.33 0 1 0 -0.18 -0.63Z" fill="#020202" fill-rule="evenodd" stroke-width="1"></path>
    <path d="M16.75 14.38a9.16 9.16 0 0 0 1.83 0.18 6.76 6.76 0 0 0 0.9 0c0.3 0 0.59 -0.06 0.88 -0.09l1.4 -0.31a0.62 0.62 0 0 0 0.23 0c0.08 0.16 0.14 0.33 0.21 0.49a0.33 0.33 0 0 0 0.62 -0.22c0 -0.17 -0.08 -0.36 -0.13 -0.53a1.84 1.84 0 0 0 -0.16 -0.41 0.52 0.52 0 0 0 -0.34 -0.24 1.84 1.84 0 0 0 -0.52 0l-1.46 0.1 -1.21 0.15c-0.4 0.07 -0.79 0.16 -1.19 0.22a8.76 8.76 0 0 1 -1 0.08 0.3 0.3 0 0 0 -0.32 0.27 0.28 0.28 0 0 0 0.26 0.31Z" fill="#020202" fill-rule="evenodd" stroke-width="1"></path>
    <path d="M0.94 13.72c0.53 0.11 1 0.28 1.58 0.4l0.68 0.12 0.7 0.07 1.66 0a0.33 0.33 0 0 0 0.08 -0.66c-0.53 -0.13 -1 -0.29 -1.59 -0.42 -0.23 0 -0.45 -0.1 -0.68 -0.13a5.88 5.88 0 0 0 -0.71 -0.07 13.41 13.41 0 0 0 -1.66 0.11 0.29 0.29 0 1 0 0 0.58Z" fill="#020202" fill-rule="evenodd" stroke-width="1"></path>
    <path d="M7.26 16.83a0.33 0.33 0 0 0 -0.26 -0.35c-0.47 -0.08 -0.93 -0.15 -1.39 -0.24S4.5 16 4 15.9s-1.06 -0.2 -1.6 -0.32a9.84 9.84 0 0 1 -1 -0.16 0.73 0.73 0 0 1 -0.4 -0.17 0.43 0.43 0 0 1 -0.1 -0.32 4.51 4.51 0 0 1 0.06 -0.58 0.29 0.29 0 0 0 -0.27 -0.35 0.3 0.3 0 0 0 -0.35 0.23 4 4 0 0 0 -0.19 0.94 1.08 1.08 0 0 0 0.17 0.56 1.47 1.47 0 0 0 0.56 0.47 7.4 7.4 0 0 0 1.25 0.43c0.63 0.14 1.26 0.28 1.89 0.36a27.26 27.26 0 0 0 2.88 0.13 0.33 0.33 0 0 0 0.36 -0.29Z" fill="#020202" fill-rule="evenodd" stroke-width="1"></path>
    <path d="M8.24 18.5a0.94 0.94 0 0 0 -0.48 -0.6 1.56 1.56 0 0 0 -0.47 -0.1l-0.81 0a4.65 4.65 0 0 0 -0.75 0 1.7 1.7 0 0 0 -0.54 0.17 0.3 0.3 0 0 0 -0.14 0.39 0.35 0.35 0 0 0 0.17 0.15 0.34 0.34 0 0 0 0 0.17l0 1.43a2 2 0 0 0 0.32 1.17c0.21 0.28 0.57 0.41 1.24 0.45a2.5 2.5 0 0 0 0.83 -0.08 1.43 1.43 0 0 0 0.58 -0.38 1.27 1.27 0 0 0 0.29 -0.71 6.57 6.57 0 0 0 0 -1.08 3.81 3.81 0 0 0 -0.24 -0.98Zm-1 2.14a0.23 0.23 0 0 1 -0.14 0.07 1.68 1.68 0 0 1 -0.4 0.06h-0.4l-0.15 0a1.35 1.35 0 0 1 -0.21 -0.65l-0.1 -1.33a0.33 0.33 0 0 0 -0.11 -0.25h0.07a4.6 4.6 0 0 1 0.64 0c0.18 0 0.43 0 0.66 0.08s0.27 0 0.22 0.9c-0.01 0.22 -0.06 0.74 -0.08 1.12Z" fill="#020202" fill-rule="evenodd" stroke-width="1"></path>
    <path d="M17.31 19.37c0 -0.68 -0.24 -1 -0.6 -1.15a4.14 4.14 0 0 0 -1.44 -0.11l-0.91 0.09a0.29 0.29 0 0 0 0 0.57L14.22 20a1.72 1.72 0 0 0 0.39 1.27 1.85 1.85 0 0 0 1.28 0.48 2.52 2.52 0 0 0 0.7 -0.06 1.3 1.3 0 0 0 0.41 -0.17 0.87 0.87 0 0 0 0.31 -0.55 6 6 0 0 0 0 -1Zm-1.41 1.3a1.06 1.06 0 0 1 -0.65 -0.09A1 1 0 0 1 15 20l0 -1.14h0.23a7 7 0 0 1 1 0.17c0.14 0.05 0.09 0.16 0.07 0.38l0 0.54c0 0.08 0.09 0.48 0.09 0.7Z" fill="#020202" fill-rule="evenodd" stroke-width="1"></path>
    <path d="M24 6.29a1.28 1.28 0 0 0 -0.37 -0.73 0.73 0.73 0 0 0 -0.32 -0.15 4.58 4.58 0 0 0 -0.65 -0.06l-2 -0.13 -2.3 0 -1.06 0.07c-1.15 0.1 -2.3 0.24 -3.44 0.3l-0.14 0 -0.34 -0.07c0 -0.57 0 -1.15 -0.1 -1.72a4.52 4.52 0 0 0 -0.28 -1 1.07 1.07 0 0 0 -1 -0.59 1.78 1.78 0 0 0 -1.28 0.58 2.21 2.21 0 0 0 -0.24 0.54c-0.05 0.22 -0.08 0.46 -0.11 0.65l-0.16 1.35H10a4 4 0 0 0 -0.79 0.2 0.31 0.31 0 0 0 -0.1 0 8.61 8.61 0 0 0 -1.68 -0.42c-0.84 -0.13 -1.69 -0.16 -2.51 -0.24l-1.18 0c-0.4 0 -0.82 0 -1.23 0.06a7 7 0 0 0 -1.65 0.31 0.31 0.31 0 0 0 -0.21 0.36 0.28 0.28 0 0 0 -0.19 -0.09 0.3 0.3 0 0 0 -0.32 0.27c0 0.14 -0.15 0.73 -0.18 1.1a0.9 0.9 0 0 0 0.08 0.51 1.7 1.7 0 0 0 0.92 0.7 3.66 3.66 0 0 0 1.15 0.21l1 0 3.94 0.7a0.35 0.35 0 0 0 0.31 -0.1 0.77 0.77 0 0 0 0 0.15 0.29 0.29 0 0 0 0.25 0.32 0.29 0.29 0 0 0 0.32 -0.26A3.9 3.9 0 0 1 8 8.67c0.09 -0.24 0.2 -0.48 0.3 -0.71A7.73 7.73 0 0 1 8.76 7a1.05 1.05 0 0 1 0.3 -0.37 2.24 2.24 0 0 1 1 -0.27 13.54 13.54 0 0 1 2 0.06 10.29 10.29 0 0 1 1.44 0.12 1.84 1.84 0 0 1 0.74 0.24 2.33 2.33 0 0 1 0.6 0.79 10.55 10.55 0 0 1 0.6 1.63 0.33 0.33 0 0 0 0.64 -0.17 11.91 11.91 0 0 0 -0.49 -1.8 3.59 3.59 0 0 0 -0.54 -0.91l1.84 0 1.9 0c0.63 0 1.25 -0.06 1.87 -0.07l1.92 0c0.27 0 0.64 -0.07 0.69 0.35a3.7 3.7 0 0 1 0 0.65 0.33 0.33 0 0 0 0.29 0.36 0.34 0.34 0 0 0 0.44 -0.32 3.35 3.35 0 0 0 0 -1Zm-15.88 0.2a8.26 8.26 0 0 0 -0.43 1.22c-0.08 0.25 -0.16 0.52 -0.22 0.79a0.09 0.09 0 0 0 0 0.05 0.4 0.4 0 0 0 -0.22 -0.18c-0.9 -0.27 -1.78 -0.63 -2.69 -0.89 -0.41 -0.12 -0.82 -0.21 -1.23 -0.29a5.77 5.77 0 0 0 -1 0 5.34 5.34 0 0 1 -0.8 0A1.21 1.21 0 0 1 0.8 7l0 -1.17a0.31 0.31 0 0 0 -0.06 -0.21 0.26 0.26 0 0 0 0.26 0.1 4.77 4.77 0 0 1 1.13 -0.06c0.54 0 1.08 0.11 1.62 0.18 0.38 0 0.76 0.07 1.12 0.09L6 6l1.71 0 0.69 0a1.93 1.93 0 0 0 -0.32 0.49Zm2.76 -1.2 0.34 -1.1c0.07 -0.16 0.13 -0.36 0.22 -0.55a0.9 0.9 0 0 1 0.14 -0.2 0.67 0.67 0 0 1 0.19 -0.09 1.53 1.53 0 0 1 0.23 -0.07 4 4 0 0 1 0.35 0.95c0.08 0.38 0.15 0.75 0.23 1.13l-0.5 -0.05c-0.33 0.02 -0.78 -0.01 -1.24 -0.02Z" fill="#020202" fill-rule="evenodd" stroke-width="1"></path>
    <path d="m23.3 7.59 -2.56 0a12.3 12.3 0 0 0 -1.74 0.26 13 13 0 0 0 -2.73 1 0.29 0.29 0 0 0 -0.18 0.37 0.31 0.31 0 0 0 0.38 0.18 11.94 11.94 0 0 1 1.35 -0.27L19 9l1 -0.19c1.11 -0.18 2.23 -0.4 3.32 -0.56a0.34 0.34 0 0 0 0.3 -0.36 0.34 0.34 0 0 0 -0.32 -0.3Z" fill="#020202" fill-rule="evenodd" stroke-width="1"></path>
    <path d="m12.04 3.32 -0.02 -0.04 0.01 0.03 0.01 0.01z" fill="#020202" fill-rule="evenodd" stroke-width="1"></path>
    <path d="M14.11 16.35a2.81 2.81 0 0 0 0.35 -0.34 2.65 2.65 0 0 0 0.46 -0.7 2.6 2.6 0 0 0 0.21 -0.83 2.79 2.79 0 0 0 0 -0.58c0 -0.22 -0.08 -0.44 -0.12 -0.65l0.25 -0.11a3.43 3.43 0 0 0 1.1 -0.93 1.69 1.69 0 0 0 0.33 -1.11 1.39 1.39 0 0 0 -0.29 -0.73 1 1 0 0 0 -0.62 -0.36 2.74 2.74 0 0 0 -1.55 0.32c-0.15 0.08 -0.3 0.18 -0.44 0.27a3.73 3.73 0 0 0 -2.27 -1.18 2.9 2.9 0 0 0 -0.93 0 2.55 2.55 0 0 0 -1.7 1.14 3.89 3.89 0 0 0 -1.21 -0.66 1.64 1.64 0 0 0 -1.49 0.23A1 1 0 0 0 6 11.37a3.06 3.06 0 0 0 0.55 0.81 4.82 4.82 0 0 0 0.87 0.73 3 3 0 0 0 -0.3 1.68 2.5 2.5 0 0 0 0.26 0.8 2.58 2.58 0 0 0 0.48 0.67 4.29 4.29 0 0 0 1.51 1 0.31 0.31 0 0 0 0.31 0 6.81 6.81 0 0 0 -0.1 1.23 2.49 2.49 0 0 0 0.26 1c0.41 0.73 0.92 0.74 1.37 0.51a2 2 0 0 0 0.71 -0.73 3.52 3.52 0 0 0 0.46 -1.23 3 3 0 0 0 0 -0.67 0.33 0.33 0 0 0 0.14 0 5.73 5.73 0 0 0 1.59 -0.82Zm-3.42 -5.85a3.8 3.8 0 0 1 0.67 0 5.5 5.5 0 0 1 0.69 0.11 4.15 4.15 0 0 1 1.1 0.44c-0.22 0.2 -0.42 0.39 -0.57 0.55a6 6 0 0 0 -0.56 0.69l-0.15 0.26a1.67 1.67 0 0 0 -0.9 -0.13 0.28 0.28 0 0 0 -0.37 -0.15 1.36 1.36 0 0 0 -0.28 0.11 8.06 8.06 0 0 0 -1 -1.4 2 2 0 0 1 1.37 -0.48Zm0.13 3.78c-0.35 0.06 -0.53 -0.12 -0.53 -0.37a1.28 1.28 0 0 1 0.32 -0.92 0.37 0.37 0 0 0 0.28 0.13c0.44 0 0.69 0.17 0.76 0.4a0.52 0.52 0 0 1 -0.13 0.4 0.94 0.94 0 0 1 -0.7 0.36ZM7 10.93h0.1a0.88 0.88 0 0 1 0.32 0 3.09 3.09 0 0 1 1.36 0.75 8.38 8.38 0 0 1 1.07 1.17 1.64 1.64 0 0 0 -0.27 0.46 0.29 0.29 0 0 0 -0.14 -0.15c-0.29 -0.16 -0.59 -0.3 -0.88 -0.47a5.62 5.62 0 0 1 -0.5 -0.35 4.43 4.43 0 0 1 -0.62 -0.66A2.36 2.36 0 0 1 7 11Zm2.76 5.64a0.48 0.48 0 0 0 -0.09 -0.11 3.78 3.78 0 0 1 -1.31 -1.57 3.08 3.08 0 0 1 -0.21 -0.53A2.79 2.79 0 0 1 8 13.23l0.26 0.12 0.95 0.35a0.3 0.3 0 0 0 0.26 0 1.49 1.49 0 0 0 0 0.66 1.13 1.13 0 0 0 0.63 0.87Zm1.65 1.12a2.63 2.63 0 0 1 -0.33 0.66c-0.13 0.2 -0.37 0.95 -0.49 -0.38a9.2 9.2 0 0 1 -0.05 -1l0 -0.9c0 -0.3 0 -0.47 0.07 -0.7a2.06 2.06 0 0 0 0.36 0l0.08 0c0.08 0 0 0.06 0 0.09a7.26 7.26 0 0 1 0.34 1.16 2.87 2.87 0 0 1 -0.02 1.07Zm0.28 -2.52a1.67 1.67 0 0 0 0.95 -1.4 1.32 1.32 0 0 0 -0.21 -0.77c0.06 -0.08 0.12 -0.17 0.19 -0.25a7 7 0 0 1 0.56 -0.52 8.73 8.73 0 0 1 1.28 -0.81 2.09 2.09 0 0 1 1.15 -0.3 0.44 0.44 0 0 1 0 0.1 0.78 0.78 0 0 1 -0.19 0.56 2.71 2.71 0 0 1 -0.62 0.6 2.62 2.62 0 0 1 -0.67 0.33c-0.4 0.13 -0.83 0.21 -1.23 0.31a0.33 0.33 0 0 0 0.12 0.65c0.44 -0.06 0.89 -0.1 1.32 -0.19l0 0.45a1.8 1.8 0 0 1 -0.08 0.39 2.87 2.87 0 0 1 -0.32 0.63c-0.14 0.2 -0.29 0.39 -0.45 0.58a6.9 6.9 0 0 1 -1.21 1.09 7 7 0 0 0 -0.63 -1.45Z" fill="#4C57E6" fill-rule="evenodd" stroke-width="1"></path>
  </g>
</svg>