<svg xmlns="http://www.w3.org/2000/svg" viewBox="0 0 24 24" id="Alerts-Warning-Circle--Streamline-Freehand">
  <desc>
    Alerts Warning Circle Streamline Icon: https://streamlinehq.com
  </desc>
  <g>
    <path d="M23.78 9.71a12.38 12.38 0 0 0 -0.71 -2.8 10.9 10.9 0 0 0 -3.47 -4.62A9.94 9.94 0 0 0 14.25 0.15a0.35 0.35 0 0 0 -0.37 0.32 0.35 0.35 0 0 0 0.32 0.37 9.25 9.25 0 0 1 4.92 2.06 10 10 0 0 1 3.14 4.32 11.65 11.65 0 0 1 0.62 2.61 18.78 18.78 0 0 1 0.12 2.72 18.38 18.38 0 0 1 -0.18 2.5 6.4 6.4 0 0 1 -0.45 1.52 11.48 11.48 0 0 1 -2.7 3.75 9 9 0 0 1 -4 2.24 11 11 0 0 1 -3 0.27 21.71 21.71 0 0 1 -3.06 -0.33 9.52 9.52 0 0 1 -4.91 -2.66 12.09 12.09 0 0 1 -3 -4.84c-0.15 -0.46 -0.33 -0.94 -0.46 -1.43a3.85 3.85 0 0 1 -0.15 -0.9 10.24 10.24 0 0 1 0.59 -4.08 13.42 13.42 0 0 1 2 -3.69 7.07 7.07 0 0 1 1.13 -1.14 16.47 16.47 0 0 1 1.39 -1 19.19 19.19 0 0 1 2 -1.09A9 9 0 0 1 10.32 1c0.46 -0.08 1 -0.23 1.69 -0.32a6.77 6.77 0 0 1 1.11 -0.06 0.31 0.31 0 0 0 0.32 -0.28 0.31 0.31 0 0 0 -0.29 -0.34 6.07 6.07 0 0 0 -1.21 0c-0.66 0.07 -1.27 0.22 -1.74 0.29a10 10 0 0 0 -1.85 0.58 18.3 18.3 0 0 0 -2.54 1.28A12.45 12.45 0 0 0 4 3.38a6.4 6.4 0 0 0 -1 1A14.46 14.46 0 0 0 0.81 8.31a11.55 11.55 0 0 0 -0.73 4.44 5.33 5.33 0 0 0 0.17 1.11c0.12 0.5 0.29 1 0.44 1.49a13.12 13.12 0 0 0 3.24 5.31 10.67 10.67 0 0 0 5.51 3 21.57 21.57 0 0 0 3.89 0.35 12.15 12.15 0 0 0 2.67 -0.33 10 10 0 0 0 4.42 -2.55A12.64 12.64 0 0 0 23.29 17a7.44 7.44 0 0 0 0.49 -1.77 20.6 20.6 0 0 0 0.15 -2.64 19.22 19.22 0 0 0 -0.15 -2.88Z" fill="#4C57E6" stroke-width="1"></path>
    <path d="M14.87 9a7.58 7.58 0 0 0 0.26 -1.45 2.62 2.62 0 0 0 -0.13 -1.2 3.23 3.23 0 0 0 -3 -1.69 2 2 0 0 0 -2 1.46 4.81 4.81 0 0 0 -0.16 1.37 13.15 13.15 0 0 0 0.1 1.91c0.15 1 0.38 2 0.55 3 0.29 1.67 0.4 2 1.11 2.54a1.09 1.09 0 0 0 1.4 -0.26 4.47 4.47 0 0 0 0.76 -1.53c0.19 -0.55 0.36 -1.11 0.52 -1.67 0.2 -0.84 0.4 -1.69 0.59 -2.48Zm-1 -0.21c-0.15 0.83 -0.3 1.68 -0.49 2.51 -0.12 0.55 -0.26 1.1 -0.41 1.64a3.71 3.71 0 0 1 -0.53 1.28 0.41 0.41 0 0 1 -0.52 0.13c-0.4 -0.28 -0.38 -0.27 -0.68 -2 -0.16 -1 -0.26 -2 -0.34 -3a13.05 13.05 0 0 1 -0.07 -1.78A3.82 3.82 0 0 1 11 6.44c0.17 -0.58 0.8 -0.69 1.4 -0.61a1.89 1.89 0 0 1 1.52 0.94 1.71 1.71 0 0 1 0.11 0.68 8.72 8.72 0 0 1 -0.2 1.29Z" fill="#020202" stroke-width="1"></path>
    <path d="M11.79 16.29a2.5 2.5 0 0 0 -1.23 0.45A1.71 1.71 0 0 0 9.84 18a1.64 1.64 0 0 0 0.61 1.41 2.19 2.19 0 0 0 2.06 0.25 1.84 1.84 0 0 0 1.26 -1.59 1.36 1.36 0 0 0 -0.09 -0.59 1.65 1.65 0 0 0 -1.89 -1.19ZM12.94 18a0.91 0.91 0 0 1 -0.76 0.68 1.07 1.07 0 0 1 -1 -0.16 0.55 0.55 0 0 1 -0.22 -0.46 0.74 0.74 0 0 1 0.21 -0.56 1.59 1.59 0 0 1 0.74 -0.44c0.81 -0.21 0.75 0.1 0.8 0.18a2.92 2.92 0 0 1 0.22 0.43 0.61 0.61 0 0 1 0.01 0.33Z" fill="#020202" stroke-width="1"></path>
  </g>
</svg>