<svg xmlns="http://www.w3.org/2000/svg" viewBox="0 0 24 24" id="Alert-Alarm-Bell-Notification-Dot--Streamline-Freehand">
  <desc>
    Alert Alarm Bell Notification Dot Streamline Icon: https://streamlinehq.com
  </desc>
  <g>
    <path d="M21.65 2.43a4.88 4.88 0 0 0 -4 -1.08A3.69 3.69 0 0 0 14.78 4a5.06 5.06 0 0 0 0.27 3.78 4.28 4.28 0 0 0 4.37 1.87c3.91 -0.65 4 -5.49 2.23 -7.22Zm-2.34 6.29A3.25 3.25 0 0 1 16 7.24a4 4 0 0 1 -0.16 -2.92 2.61 2.61 0 0 1 1.96 -1.91 3.53 3.53 0 0 1 3.28 0.59c1.27 1.4 1.5 5.38 -1.77 5.72Z" fill="#020202" stroke-width="1"></path>
    <path d="M9.39 3.85a0.29 0.29 0 0 0 0.38 -0.17c0.14 -0.38 -0.12 -0.4 0 -1.09a2.14 2.14 0 0 1 0.5 -0.75 1.72 1.72 0 0 1 0.63 -0.5c0.22 -0.08 0.45 0 0.64 0.31l0.38 0.68a0.34 0.34 0 1 0 0.67 0 1 1 0 0 0 -0.05 -0.4c-0.07 -0.22 -0.17 -0.48 -0.23 -0.64a1.36 1.36 0 0 0 -1.76 -1 2.28 2.28 0 0 0 -1.15 0.87 2.73 2.73 0 0 0 -0.48 1.3 3.36 3.36 0 0 0 0.08 0.91c0.07 0.25 0.19 0.44 0.39 0.48Z" fill="#4C57E6" stroke-width="1"></path>
    <g>
      <path d="M20.41 18.26c-0.13 -0.65 -1 -1.22 -1.43 -1.72l-0.36 -1.77a0.33 0.33 0 1 0 -0.65 0.12c0.1 0.68 0.2 1.23 0.27 1.58a1.43 1.43 0 0 0 0.19 0.53 9 9 0 0 1 1.16 1.23 0.54 0.54 0 0 1 -0.35 0.71 4.63 4.63 0 0 1 -0.56 0.11 7 7 0 0 1 -1.1 0.16c-0.57 0 -1.15 0.05 -1.75 0.09a36.85 36.85 0 0 1 -5 0.05 43.75 43.75 0 0 1 -5 -0.6c-0.53 -0.09 -1.62 0.11 -2.54 0.08 -0.38 0 -0.75 0 -0.86 -0.3a1.26 1.26 0 0 1 0.12 -0.86c0.41 -1 1.32 -1.92 1.55 -2.68 0.58 -2.1 0.77 -4.43 1.54 -6.47A6.88 6.88 0 0 1 8.12 5.2a6 6 0 0 1 1.68 -0.71 7 7 0 0 1 1.82 -0.29 0.3 0.3 0 0 0 0 -0.6 8.39 8.39 0 0 0 -2 0.26 6.89 6.89 0 0 0 -1.9 0.75A7.48 7.48 0 0 0 4.83 8.2C4 10.23 3.7 12.58 3 14.67c-0.23 0.73 -1.13 1.64 -1.54 2.55a2.28 2.28 0 0 0 -0.16 1.67 1.6 1.6 0 0 0 1.42 1c0.93 0.15 2.26 -0.16 2.87 -0.06 0.77 0.12 4.31 0.5 5.13 0.53a37.48 37.48 0 0 0 5.15 -0.18c0.71 -0.08 1.38 -0.09 2.06 -0.18a7.63 7.63 0 0 0 0.91 -0.17 4.34 4.34 0 0 0 0.75 -0.2 1.1 1.1 0 0 0 0.41 -0.23 1.23 1.23 0 0 0 0.41 -1.14Z" fill="#020202" stroke-width="1"></path>
      <path d="M7.87 20.64a3.74 3.74 0 0 0 0.19 0.67c0 0.15 0.13 0.59 0.17 0.7a2.51 2.51 0 0 0 0.53 0.82 3 3 0 0 0 0.78 0.6 3.59 3.59 0 0 0 1.5 0.31 3.08 3.08 0 0 0 1.49 -0.37 1.82 1.82 0 0 0 1.07 -1.82 0.34 0.34 0 0 0 -0.34 -0.34 0.34 0.34 0 0 0 -0.34 0.34 1.07 1.07 0 0 1 -0.79 0.94 2.72 2.72 0 0 1 -1.08 0.13 3.25 3.25 0 0 1 -1.05 -0.15 1.93 1.93 0 0 1 -0.6 -0.28 1.83 1.83 0 0 1 -0.49 -0.47c-0.05 -0.08 -0.19 -0.43 -0.25 -0.55a3.08 3.08 0 0 0 -0.1 -0.41c-0.11 -0.27 -0.63 -0.39 -0.69 -0.12Z" fill="#4C57E6" stroke-width="1"></path>
    </g>
  </g>
</svg>