<svg xmlns="http://www.w3.org/2000/svg" viewBox="0 0 24 24" id="Alerts-Question-Circle--Streamline-Freehand">
  <desc>
    Alerts Question Circle Streamline Icon: https://streamlinehq.com
  </desc>
  <g>
    <path d="M23.91 10.35A9.88 9.88 0 0 0 22 5.56 13 13 0 0 0 12.87 0.31a11.13 11.13 0 0 0 -9.75 3.91A12.92 12.92 0 0 0 0.69 16.65c1.38 3.7 4.82 6.59 10.29 7a16.38 16.38 0 0 0 2.89 0 12.35 12.35 0 0 0 2.84 -0.61 0.37 0.37 0 0 0 0.22 -0.45 0.35 0.35 0 0 0 -0.44 -0.22 11.25 11.25 0 0 1 -2.69 0.53 14.92 14.92 0 0 1 -2.75 0c-5 -0.5 -8.19 -3.17 -9.41 -6.6A11.87 11.87 0 0 1 4 5a10 10 0 0 1 8.72 -3.48 12.12 12.12 0 0 1 8.42 4.7A8.93 8.93 0 0 1 23 10.47a12.19 12.19 0 0 1 -0.3 4.77 12.38 12.38 0 0 1 -1.42 3.4 9.27 9.27 0 0 1 -2.51 2.66 0.29 0.29 0 0 0 -0.08 0.42 0.3 0.3 0 0 0 0.43 0.08A9.72 9.72 0 0 0 21.9 19a13 13 0 0 0 1.58 -3.57 13 13 0 0 0 0.43 -5.08Z" fill="#4C57E6" fill-rule="evenodd" stroke-width="1"></path>
    <path d="M13.59 18.2A0.3 0.3 0 0 0 14 18a1.55 1.55 0 0 0 0.16 -0.62 1.35 1.35 0 0 0 -0.17 -0.69 1.7 1.7 0 0 0 -1.11 -0.88 1.65 1.65 0 0 0 -1.51 0.41 1.76 1.76 0 0 0 -0.46 1.78 1.54 1.54 0 0 0 1.39 1 2.32 2.32 0 0 0 0.37 0 1.51 1.51 0 0 0 0.37 -0.07 0.35 0.35 0 0 0 -0.16 -0.68l-0.44 -0.05a0.76 0.76 0 0 1 -0.49 -0.39 0.64 0.64 0 0 1 0.24 -0.74 0.61 0.61 0 0 1 0.6 -0.15 0.9 0.9 0 0 1 0.48 0.27 0.51 0.51 0 0 1 0.15 0.25 1 1 0 0 1 0 0.36 0.31 0.31 0 0 0 0.17 0.4Z" fill="#020202" fill-rule="evenodd" stroke-width="1"></path>
    <path d="M15.69 8.63a3.54 3.54 0 0 0 -2.37 -3.37A4.2 4.2 0 0 0 9.75 6a2.65 2.65 0 0 0 -1.08 3.31 4.82 4.82 0 0 0 0.63 0.94 3 3 0 0 0 0.89 0.73 0.33 0.33 0 0 0 0.42 -0.14 0.29 0.29 0 0 0 -0.14 -0.41 2.2 2.2 0 0 1 -0.64 -0.62A3.88 3.88 0 0 1 9.38 9a1.8 1.8 0 0 1 1 -2.19 3.05 3.05 0 0 1 2.59 -0.43 2.45 2.45 0 0 1 1.63 2.29 3.13 3.13 0 0 1 -1.26 2.78 3.42 3.42 0 0 0 -0.79 0.63 1.12 1.12 0 0 0 -0.23 0.84c0 0.15 0.06 0.69 0.07 0.92s0.37 0.3 0.57 0.22c0.07 0 0.12 -0.07 0.12 -0.09a0.28 0.28 0 0 0 0 -0.09 0.13 0.13 0 0 0 0 -0.06l0 -1a0.4 0.4 0 0 1 0.16 -0.32 3.67 3.67 0 0 1 0.55 -0.34 4.05 4.05 0 0 0 1.9 -3.53Z" fill="#020202" fill-rule="evenodd" stroke-width="1"></path>
  </g>
</svg>