<svg xmlns="http://www.w3.org/2000/svg" viewBox="0 0 24 24" id="Allowances-No-Bicycles-Sign--Streamline-Freehand">
  <desc>
    Allowances No Bicycles Sign Streamline Icon: https://streamlinehq.com
  </desc>
  <g>
    <path d="M23.27 8.36a11.88 11.88 0 0 0 -6.56 -7.31 12.86 12.86 0 0 0 -2.6 -0.82 12.59 12.59 0 0 0 -8.39 2A11.53 11.53 0 0 0 1.17 7.1a14 14 0 0 0 -1 3.67 16 16 0 0 0 -0.11 3.81 9.27 9.27 0 0 0 1.43 4 10.51 10.51 0 0 0 7 5.09 16.18 16.18 0 0 0 4.61 0.17 14.71 14.71 0 0 0 6.5 -2.11 8.49 8.49 0 0 0 3.15 -3.44 13.35 13.35 0 0 0 0.52 -9.93ZM2.41 18a8.3 8.3 0 0 1 -1.33 -3.5 14.65 14.65 0 0 1 0 -3.56A13.89 13.89 0 0 1 2 7.43a10.86 10.86 0 0 1 4.11 -4.58C6.29 2.74 9.86 0.17 14 0.93a11.6 11.6 0 0 1 2.43 0.82 10.11 10.11 0 0 1 3.68 2.75 12.06 12.06 0 0 1 -1.05 1C18 6.34 16.88 7.11 15.9 8c-0.8 0.75 -1.6 1.48 -2.39 2.23 -1.19 1.13 -2.36 2.27 -3.51 3.44s-2.49 2.65 -3.71 4c-0.63 0.7 -1.3 1.36 -1.93 2.06l-0.21 0.27a11.79 11.79 0 0 1 -1.74 -2Zm19.43 -0.17a7.94 7.94 0 0 1 -3.7 3.47 14.21 14.21 0 0 1 -5.09 1.4 15 15 0 0 1 -4.29 -0.16A8.24 8.24 0 0 1 5 20.79l-0.36 -0.31c0.08 -0.08 0.14 -0.16 0.22 -0.23 0.67 -0.67 1.39 -1.29 2.06 -1.95 1 -1 1.95 -1.89 2.93 -2.84s1.95 -1.9 2.91 -2.86C14 11.32 15.3 10 16.58 8.72c0.92 -1 2 -1.77 3 -2.67a13.09 13.09 0 0 0 1 -1 12.44 12.44 0 0 1 1.29 12.73Z" fill="#4C57E6" fill-rule="evenodd" stroke-width="1"></path>
    <path d="M16.54 11a0.29 0.29 0 0 0 -0.33 0.27 0.3 0.3 0 0 0 0.27 0.33 1.49 1.49 0 0 1 1 0.79 3.2 3.2 0 0 1 0.43 2 2.87 2.87 0 0 1 -3.27 2.47 1.17 1.17 0 0 1 -0.67 -0.38 1.47 1.47 0 0 1 -0.37 -0.72 0.34 0.34 0 1 0 -0.67 0 2 2 0 0 0 0.45 1.18 2 2 0 0 0 1.07 0.74 3.63 3.63 0 0 0 3 -0.5A3.69 3.69 0 0 0 19 14.45a4.19 4.19 0 0 0 -0.87 -2.54 2.18 2.18 0 0 0 -1.59 -0.91Z" fill="#020202" fill-rule="evenodd" stroke-width="1"></path>
    <path d="M4.67 15.44a2.36 2.36 0 0 0 0.55 0.34 4.94 4.94 0 0 0 0.84 0.3 0.32 0.32 0 0 0 0.42 -0.23 0.34 0.34 0 0 0 -0.22 -0.43 4.92 4.92 0 0 1 -0.58 -0.26 2.17 2.17 0 0 1 -0.47 -0.33 3 3 0 0 1 -0.71 -1.08 2.12 2.12 0 0 1 -0.1 -1.18 2.46 2.46 0 0 1 1 -1.53 2.18 2.18 0 0 1 1.43 -0.47l-0.62 2a0.3 0.3 0 0 0 0.17 0.39 0.32 0.32 0 0 0 0.4 -0.17l0.86 -2 0.17 0.11a3 3 0 0 1 0.58 0.53 0.29 0.29 0 0 0 0.41 0.08 0.31 0.31 0 0 0 0.09 -0.42 3.6 3.6 0 0 0 -0.62 -0.73 3.56 3.56 0 0 0 -0.27 -0.18l0.13 -0.31 0.46 -1.08c0.14 0.18 0.3 0.38 0.47 0.56a5.59 5.59 0 0 0 0.55 0.52 6.17 6.17 0 0 1 0.82 0.68 3.29 3.29 0 0 1 0.46 0.52 0.35 0.35 0 0 0 0.46 0.16 0.36 0.36 0 0 0 0.16 -0.46 4.23 4.23 0 0 0 -0.51 -0.95 7.73 7.73 0 0 0 -0.64 -0.8s-0.29 -0.26 -0.62 -0.49A8.15 8.15 0 0 0 8.88 8l0 -0.13 1.92 0.39a4.61 4.61 0 0 0 1 0c0.57 0 1.25 -0.15 2 -0.15a0.34 0.34 0 1 0 0.07 -0.68 10.81 10.81 0 0 0 -1.47 -0.23c-0.56 0 -1 0 -1.36 -0.12a4.92 4.92 0 0 0 -0.5 0c-0.38 0 -0.87 0 -1.3 0.07l0.29 -0.68c0.14 -0.28 0.29 -0.76 0.48 -1.16 0.08 -0.17 0.14 -0.36 0.27 -0.41a2.2 2.2 0 0 1 0.72 -0.08 8.82 8.82 0 0 1 1.36 0.06 0.35 0.35 0 1 0 0.12 -0.68 11.48 11.48 0 0 0 -1.43 -0.2 3.07 3.07 0 0 0 -1.11 0.09 1.44 1.44 0 0 0 -0.69 0.58A11.78 11.78 0 0 0 8.54 6a9.05 9.05 0 0 0 -0.66 1.41c-0.25 0.69 -0.45 1.41 -0.71 2.09l-0.08 0.26a2.88 2.88 0 0 0 -2.31 0.39 3.34 3.34 0 0 0 -1.5 2.3 3.16 3.16 0 0 0 0.31 1.74 4 4 0 0 0 1.08 1.25Z" fill="#020202" fill-rule="evenodd" stroke-width="1"></path>
    <path d="M13.5 14.25a7.25 7.25 0 0 0 0.76 0.22 1.2 1.2 0 0 0 0.33 0 1.22 1.22 0 0 0 0.33 0 4.06 4.06 0 0 0 0.79 -0.26 0.3 0.3 0 0 0 0.29 -0.32 0.31 0.31 0 0 0 -0.32 -0.29c-0.26 -0.06 -0.47 -0.17 -0.74 -0.23l-0.32 0a1.84 1.84 0 0 0 -0.33 0 7.31 7.31 0 0 0 -0.78 0.18 0.32 0.32 0 0 0 -0.34 0.33 0.34 0.34 0 0 0 0.33 0.37Z" fill="#020202" fill-rule="evenodd" stroke-width="1"></path>
  </g>
</svg>