<svg xmlns="http://www.w3.org/2000/svg" viewBox="0 0 24 24" id="Alternative-Food-No-Alcohol-Glass-1--Streamline-Freehand">
  <desc>
    Alternative Food No Alcohol Glass 1 Streamline Icon: https://streamlinehq.com
  </desc>
  <g>
    <path d="M23.11 13.94a7.53 7.53 0 0 0 -4.71 -4.22 6.54 6.54 0 0 0 -6.28 1 8.27 8.27 0 0 0 -2.32 3.59 6.84 6.84 0 0 0 -0.12 4.26 7.43 7.43 0 0 0 4.19 4.29 7 7 0 0 0 5.92 0 6.53 6.53 0 0 0 3.45 -3.72 7.48 7.48 0 0 0 -0.13 -5.2Zm-12.45 4.32a5.7 5.7 0 0 1 0.21 -3.57 7.06 7.06 0 0 1 2 -3 5.44 5.44 0 0 1 5.18 -0.84 7.27 7.27 0 0 1 2.76 1.56L18 14.64c-0.84 0.78 -1.69 1.56 -2.5 2.37 -1.16 1.18 -2.25 2.41 -3.39 3.59a5.5 5.5 0 0 1 -1.45 -2.34Zm11.83 0.56a5.88 5.88 0 0 1 -3 3.42 6.21 6.21 0 0 1 -5.26 -0.13 7.43 7.43 0 0 1 -1.59 -1C13.87 20 15.1 19 16.29 17.83c0.83 -0.78 1.62 -1.61 2.44 -2.41l2.56 -2.57a5.56 5.56 0 0 1 0.94 1.45 6.64 6.64 0 0 1 0.26 4.52Z" fill="#020202" fill-rule="evenodd" stroke-width="1"></path>
    <path d="M5 10.09c0.79 0 1.52 0 2.33 -0.05 1 0 2 -0.12 3.51 -0.17a0.35 0.35 0 0 0 0.35 -0.34 0.34 0.34 0 0 0 -0.33 -0.35C9.47 9.06 8.41 9 7.47 8.94L6 8.94c-0.47 0 -1 0 -1.46 0.05 -0.81 0 -1.18 0 -2.33 0.13 -0.77 0 -0.83 0.67 -0.39 0.8 1.4 0.08 2.28 0.15 3.18 0.17Z" fill="#4C57E6" fill-rule="evenodd" stroke-width="1"></path>
    <path d="M14.05 4.48A41.2 41.2 0 0 0 12.9 0.42a0.44 0.44 0 0 0 -0.4 -0.3C11 0 9.16 0 7.36 0S3.78 0.05 2.23 0.09a0.58 0.58 0 0 0 -0.54 0.44c-0.38 1.61 -0.76 3.23 -1 4.86A28.42 28.42 0 0 0 0.4 8.71a16.39 16.39 0 0 0 0.06 2.53 7.36 7.36 0 0 0 0.4 1.7 7.31 7.31 0 0 0 2.65 3.41 7.5 7.5 0 0 0 3.72 1.34c-0.09 0.62 -0.18 1.18 -0.22 1.73l0 0.91 0 0.9c0 0.51 0.08 1 0.13 1.61h-0.75l-1.3 0c-1 0.05 -2 0.15 -3 0.17a0.31 0.31 0 1 0 0 0.61 31.91 31.91 0 0 0 3.5 0.35l2.1 0c1 -0.05 2.08 -0.16 3.13 -0.21a0.35 0.35 0 0 0 0.35 -0.34 0.35 0.35 0 0 0 -0.35 -0.35c-0.93 -0.08 -1.87 -0.15 -2.81 -0.19 0.06 -0.57 0.13 -1.11 0.16 -1.62l0 -0.91 0 -0.9c0 -0.63 -0.13 -1.27 -0.21 -2a0.36 0.36 0 0 0 -0.09 -0.24 0.27 0.27 0 0 0 -0.27 -0.21A6.66 6.66 0 0 1 4 15.69a6.42 6.42 0 0 1 -2.23 -3.07 6 6 0 0 1 -0.3 -1.49 14 14 0 0 1 0 -2.37c0.07 -1.08 0.2 -2.14 0.37 -3.19 0.24 -1.46 0.54 -2.9 0.89 -4.34C4.45 1.16 6.46 1.09 8.4 1l3.78 0c0.44 1.19 0.86 2.41 1.19 3.66a22.91 22.91 0 0 1 0.55 2.69 0.29 0.29 0 0 0 0.33 0.27 0.3 0.3 0 0 0 0.27 -0.34 20.57 20.57 0 0 0 -0.47 -2.8Z" fill="#020202" fill-rule="evenodd" stroke-width="1"></path>
  </g>
</svg>