<svg xmlns="http://www.w3.org/2000/svg" viewBox="0 0 24 24" id="Alternative-Food-No-Cafeine-1--Streamline-Freehand">
  <desc>
    Alternative Food No Cafeine 1 Streamline Icon: https://streamlinehq.com
  </desc>
  <g>
    <path d="M2.11 13.44a4.64 4.64 0 0 1 -0.88 -4 9.56 9.56 0 0 1 1.28 -3 14.19 14.19 0 0 1 2.1 -2.62 10.93 10.93 0 0 1 3.11 -2.2 5.66 5.66 0 0 1 3.66 -0.45 0.31 0.31 0 0 0 0.37 -0.17 0.31 0.31 0 0 0 -0.21 -0.37 6.08 6.08 0 0 0 -3.33 0 11 11 0 0 0 -4.29 2.49 14.8 14.8 0 0 0 -2.37 2.74 9.62 9.62 0 0 0 -1.43 3.4 5.57 5.57 0 0 0 1.21 4.82 8.33 8.33 0 0 0 1 1 11 11 0 0 0 1.12 0.81 12.35 12.35 0 0 0 1.28 0.72 7.3 7.3 0 0 0 1.4 0.51 5.15 5.15 0 0 0 1.4 0.13A6.34 6.34 0 0 0 8.89 17a0.34 0.34 0 0 0 0.24 -0.42 0.33 0.33 0 0 0 -0.41 -0.23 6.38 6.38 0 0 1 -1.22 0.16 4 4 0 0 1 -1.18 -0.16 6 6 0 0 1 -1.23 -0.51 9.59 9.59 0 0 1 -1.15 -0.71 10.66 10.66 0 0 1 -1.83 -1.69Z" fill="#020202" fill-rule="evenodd" stroke-width="1"></path>
    <path d="M12.64 4.09A5.46 5.46 0 0 1 11.28 6a5.85 5.85 0 0 1 -1.36 0.85c-1.25 0.58 -2.66 0.9 -3.87 1.56A6.34 6.34 0 0 0 3.68 11a8.8 8.8 0 0 0 -0.87 2.51c-0.05 0.52 0.28 0.67 0.45 0.41a7.51 7.51 0 0 1 1.16 -2.48 5.37 5.37 0 0 1 2.16 -2c1.19 -0.65 2.6 -0.92 3.82 -1.53A6 6 0 0 0 12 6.76a6.2 6.2 0 0 0 1.24 -1.85 7.36 7.36 0 0 0 0.62 -2.1c0.14 -0.58 -0.41 -0.85 -0.62 -0.51a7.2 7.2 0 0 1 -0.6 1.79Z" fill="#4C57E6" fill-rule="evenodd" stroke-width="1"></path>
    <path d="M17.2 4.63a4.5 4.5 0 0 0 -0.53 -1.26 4.86 4.86 0 0 0 -0.87 -1.05A5.8 5.8 0 0 0 13 0.92a0.34 0.34 0 0 0 -0.18 0.66A5.57 5.57 0 0 1 15 3.07 6 6 0 0 1 16.17 5a5.21 5.21 0 0 1 0.3 2.62 0.32 0.32 0 0 0 0.21 0.37 0.31 0.31 0 0 0 0.37 -0.22 5.41 5.41 0 0 0 0.15 -3.14Z" fill="#020202" fill-rule="evenodd" stroke-width="1"></path>
    <path d="M23.5 14.26a7.32 7.32 0 0 0 -4.6 -4.12 6.38 6.38 0 0 0 -6.13 1 8 8 0 0 0 -2.27 3.46 6.74 6.74 0 0 0 -0.11 4.16A7.18 7.18 0 0 0 14.48 23a6.79 6.79 0 0 0 5.78 0 6.36 6.36 0 0 0 3.37 -3.63 7.31 7.31 0 0 0 -0.13 -5.11Zm-12.16 4.22a5.6 5.6 0 0 1 0.2 -3.49 7 7 0 0 1 2 -3 5.33 5.33 0 0 1 5.06 -0.81 7 7 0 0 1 2.69 1.52l-2.79 2.24c-0.82 0.77 -1.65 1.52 -2.44 2.32 -1.13 1.15 -2.2 2.35 -3.32 3.51a5.68 5.68 0 0 1 -1.4 -2.29Zm11.55 0.52A5.66 5.66 0 0 1 20 22.36a6.05 6.05 0 0 1 -5.14 -0.12 7.33 7.33 0 0 1 -1.55 -1c1.21 -1 2.42 -2.08 3.58 -3.18 0.81 -0.77 1.58 -1.57 2.38 -2.35l2.5 -2.52a5.46 5.46 0 0 1 0.91 1.42 6.41 6.41 0 0 1 0.21 4.39Z" fill="#020202" fill-rule="evenodd" stroke-width="1"></path>
  </g>
</svg>