<svg xmlns="http://www.w3.org/2000/svg" viewBox="0 0 24 24" id="Alternative-Food-No-Alcohol-Beer-Mug-1--Streamline-Freehand">
  <desc>
    Alternative Food No Alcohol Beer Mug 1 Streamline Icon: https://streamlinehq.com
  </desc>
  <g>
    <path d="M23.21 14.64a7.32 7.32 0 0 0 -4.57 -4.09 6.34 6.34 0 0 0 -6.1 1A8.07 8.07 0 0 0 10.28 15a6.65 6.65 0 0 0 -0.11 4.13 7.17 7.17 0 0 0 4.07 4.17 6.76 6.76 0 0 0 5.75 0 6.39 6.39 0 0 0 3.35 -3.61 7.31 7.31 0 0 0 -0.13 -5.05Zm-12.1 4.2a5.61 5.61 0 0 1 0.21 -3.47 6.89 6.89 0 0 1 1.95 -2.95 5.29 5.29 0 0 1 5 -0.81A6.94 6.94 0 0 1 21 13.12l-2.75 2.21c-0.81 0.76 -1.64 1.51 -2.42 2.3 -1.13 1.14 -2.19 2.33 -3.3 3.49a5.58 5.58 0 0 1 -1.42 -2.28Zm11.5 0.55a5.68 5.68 0 0 1 -2.91 3.31 6 6 0 0 1 -5.11 -0.12 6.88 6.88 0 0 1 -1.54 -1c1.2 -1 2.4 -2.07 3.56 -3.16 0.8 -0.76 1.57 -1.56 2.37 -2.33l2.48 -2.51a5.4 5.4 0 0 1 0.89 1.42 6.47 6.47 0 0 1 0.26 4.39Z" fill="#020202" fill-rule="evenodd" stroke-width="1"></path>
    <path d="m10.58 23.25 -1.37 0c-0.69 0 -1.39 -0.07 -2.07 -0.11L5.89 23a7.74 7.74 0 0 1 -0.8 -0.12 4.14 4.14 0 0 1 -1.2 -0.4 1.81 1.81 0 0 1 -0.78 -0.77 3.14 3.14 0 0 1 -0.35 -1.35c-0.06 -0.83 0 -1.71 0 -2.43l0 -0.77a2.42 2.42 0 0 0 1.9 0.84 2.58 2.58 0 0 0 2 -1.2 6.25 6.25 0 0 0 0.79 -2.38 17.44 17.44 0 0 0 0.09 -3.12l3 0a0.3 0.3 0 0 0 0.3 -0.29 0.29 0.29 0 0 0 -0.28 -0.31l-3.49 -0.21a0.43 0.43 0 0 0 -0.42 0.43 21.87 21.87 0 0 1 -0.3 3.35 5.62 5.62 0 0 1 -0.68 2 1.45 1.45 0 0 1 -1.13 0.69 1.39 1.39 0 0 1 -1.22 -0.51 3.31 3.31 0 0 1 -0.64 -1.87l0 -0.85 0 -1.05c0 -0.63 0.1 -1.24 0.11 -1.77a0.32 0.32 0 0 0 -0.11 -0.27l-0.05 0a0.21 0.21 0 0 0 -0.1 -0.09 2.3 2.3 0 0 1 -1.36 -1.62 2.62 2.62 0 0 1 0.17 -2 3.14 3.14 0 0 1 1.18 -1.26 3.57 3.57 0 0 1 1.65 -0.5 0.52 0.52 0 0 0 0.37 -0.17 0.48 0.48 0 0 0 0.1 -0.4 4 4 0 0 1 0 -0.6 2.11 2.11 0 0 1 0.09 -0.55 2.25 2.25 0 0 1 2.56 -1.6 1.68 1.68 0 0 1 0.32 0.09l0.31 0.16s0.22 0.16 0.31 0.21a0.59 0.59 0 0 0 0.46 0A0.66 0.66 0 0 0 9 2.12a2.6 2.6 0 0 0 0.23 -0.35 1.53 1.53 0 0 1 1.2 -0.69 1.93 1.93 0 0 1 1.4 0.5 3.15 3.15 0 0 1 0.82 1.15A4 4 0 0 1 13 4.17a0.44 0.44 0 0 0 0.39 0.43 3.58 3.58 0 0 1 0.78 0.15 2.71 2.71 0 0 1 0.68 0.34 3.14 3.14 0 0 1 0.87 1 3.68 3.68 0 0 1 0.41 1.33 0.34 0.34 0 0 0 0.36 0.31 0.34 0.34 0 0 0 0.31 -0.37 4.28 4.28 0 0 0 -0.43 -1.6 4 4 0 0 0 -1 -1.34 3.1 3.1 0 0 0 -0.89 -0.5 4.18 4.18 0 0 0 -0.58 -0.16 4.88 4.88 0 0 0 -0.31 -1.41 4.1 4.1 0 0 0 -1 -1.55 3 3 0 0 0 -2.22 -0.8 2.55 2.55 0 0 0 -2 1A2.48 2.48 0 0 0 8 0.87a3.35 3.35 0 0 0 -0.54 -0.16 3.39 3.39 0 0 0 -2.38 0.48 3.29 3.29 0 0 0 -1.43 2 3.32 3.32 0 0 0 -0.09 0.81v0.27A4.18 4.18 0 0 0 2 4.89 4 4 0 0 0 0.59 6.58a3.38 3.38 0 0 0 -0.07 2.59 2.92 2.92 0 0 0 1.65 1.69 25.74 25.74 0 0 0 -0.31 3.84c-0.06 1 -0.11 2 -0.17 3.25 0 0.75 -0.12 1.67 -0.07 2.54a4.48 4.48 0 0 0 0.51 1.82 2.85 2.85 0 0 0 1 1 4.7 4.7 0 0 0 1.82 0.59 6.69 6.69 0 0 0 0.89 0.08l1.3 0h2.07c0.47 0 0.94 0 1.4 -0.07a0.34 0.34 0 0 0 0 -0.67Z" fill="#020202" fill-rule="evenodd" stroke-width="1"></path>
    <path d="M6.91 7.52a0.32 0.32 0 0 0 0.25 -0.35A1.45 1.45 0 0 1 7.56 6a1.17 1.17 0 0 1 1 -0.32 1.4 1.4 0 0 1 0.47 0.09 0.41 0.41 0 0 1 0.24 0.23l0.14 0.31a1 1 0 0 0 0.26 0.69 0.53 0.53 0 0 0 0.37 0.12 0.67 0.67 0 0 0 0.32 -0.12c0.12 -0.08 0.35 -0.35 0.44 -0.4a0.49 0.49 0 0 1 0.48 -0.09 0.94 0.94 0 0 1 0.46 0.48 0.36 0.36 0 0 0 0.46 0.18 0.35 0.35 0 0 0 0.17 -0.46 1.71 1.71 0 0 0 -0.71 -0.93 1.33 1.33 0 0 0 -1.25 0 1.36 1.36 0 0 0 -0.14 -0.33 1.54 1.54 0 0 0 -0.6 -0.59 2.21 2.21 0 0 0 -1 -0.24 2.13 2.13 0 0 0 -2.07 2.7 0.31 0.31 0 0 0 0.31 0.2Z" fill="#4C57E6" fill-rule="evenodd" stroke-width="1"></path>
  </g>
</svg>