<svg xmlns="http://www.w3.org/2000/svg" viewBox="0 0 24 24" id="American-Football-Score--Streamline-Freehand">
  <desc>
    American Football Score Streamline Icon: https://streamlinehq.com
  </desc>
  <title>american-football-score</title>
  <g>
    <path d="M21.79 0.25c0 0.19 0 0.6 -0.05 1.16 -0.11 2.51 -0.39 8 -0.63 10.43l0 0.76 -0.83 0c-1.21 0.05 -3.23 0.08 -5.46 0.12 -1.8 0 -3.72 0.08 -5.49 0.09l-3.09 0c-1.28 0 -2.27 0 -2.74 -0.11h-0.1a3.41 3.41 0 0 1 -0.27 -1.42l0 -2.48 0 -1.51 0 -2.26c0 -1.55 -0.05 -2.94 -0.05 -3.79l0 -0.81c0 -0.13 -0.57 -0.4 -0.62 0 0 0.12 0 0.39 -0.08 0.76C2.34 2 2.15 3.41 2.05 5 2 5.71 2 6.49 2 7.26c0 0.52 0 1 0.05 1.53a24.28 24.28 0 0 0 0.33 3 3.08 3.08 0 0 0 0.5 1.35c0.32 0.33 1.23 0.27 1.46 0.29 1.13 0.1 2.94 0.2 5 0.27l2.76 0.1c-0.1 0.42 -0.1 1.9 -0.1 2.2 0 0.74 -0.08 1.47 -0.08 2.21 0 0.56 0 1.11 0.05 1.66s0.03 1.07 0.03 1.63c0 0.37 0.14 1.49 0.21 2a1.41 1.41 0 0 0 0 0.23 0.37 0.37 0 0 0 0.4 0.3 0.32 0.32 0 0 0 0.27 -0.21 0.34 0.34 0 0 0 0 -0.22l0 -0.15 0 -1.91c0 -0.93 0.09 -1.85 0.09 -2.77 0 -0.56 0 -1.11 -0.05 -1.66 0 -0.36 -0.06 -0.73 -0.08 -1.09s-0.18 -2.13 -0.18 -2.18l1.45 0 4.9 0c1.07 0 1.87 -0.08 2.25 -0.13a1 1 0 0 0 0.74 -0.31 0.91 0.91 0 0 0 0.15 -0.34 10.22 10.22 0 0 0 0.13 -1.13c0.17 -2.42 0.22 -8 0.25 -10.5l0 -1.16c0 -0.16 -0.73 -0.35 -0.74 -0.02Z" fill="#020202" stroke-width="1"></path>
    <path d="M6 10.51a1.67 1.67 0 0 0 0.75 0.31 5.75 5.75 0 0 0 1.38 0 2.93 2.93 0 0 0 0.75 -0.15 7.69 7.69 0 0 0 0.95 -0.42c3.11 -1.58 3.39 -4.81 2.9 -5.25a5.11 5.11 0 0 0 -2 -0.56A4.39 4.39 0 0 0 7.38 5.7a6.7 6.7 0 0 0 -1.77 3.84 1.16 1.16 0 0 0 0.39 0.97Zm0.79 -1.3c0.06 -0.3 0.17 -0.61 0.22 -0.81a4.06 4.06 0 0 1 1 -2A3.86 3.86 0 0 1 10 5.22a3.89 3.89 0 0 1 1.7 0 0.42 0.42 0 0 1 0.23 0.15c0.4 0.48 -0.18 1.76 -0.31 2a2.18 2.18 0 0 1 -0.45 0.62 5.79 5.79 0 0 1 -0.84 0.68 6.82 6.82 0 0 1 -0.94 0.52c-0.25 0.1 -0.47 0.2 -0.7 0.27a1.85 1.85 0 0 1 -0.63 0.11c-0.8 0.11 -1.37 0.31 -1.23 -0.36Z" fill="#020202" stroke-width="1"></path>
    <path d="M5.41 14.49a0.34 0.34 0 0 0 -0.34 -0.34 0.69 0.69 0 0 0 -0.5 0.22 6.39 6.39 0 0 0 -0.72 0.92 11.93 11.93 0 0 0 -1.08 1.58c-0.3 0.55 -0.52 1.13 -0.77 1.7a4.89 4.89 0 0 0 -0.19 0.62c-0.07 0.29 -0.12 0.58 -0.18 0.89l-0.09 0.51a3.27 3.27 0 0 0 0 0.35 0.35 0.35 0 0 0 0.32 0.33c0.26 0 0.26 -0.29 0.34 -0.47l0.19 -0.51L3 19l1.6 -3.19c0.53 -0.81 0.81 -1.07 0.81 -1.32Z" fill="#4C57E6" stroke-width="1"></path>
    <path d="M6.75 17.27a7 7 0 0 0 -1.85 2.31 5.21 5.21 0 0 0 -0.33 0.82 13.39 13.39 0 0 0 -0.43 2 0.31 0.31 0 0 0 0.59 0.17c0.28 -0.65 0.65 -1.3 1 -2 0.16 -0.32 0.31 -0.65 0.46 -1s0.29 -0.66 0.47 -1a6.24 6.24 0 0 1 0.59 -0.89 0.35 0.35 0 0 0 -0.49 -0.49Z" fill="#4C57E6" stroke-width="1"></path>
  </g>
</svg>