<svg xmlns="http://www.w3.org/2000/svg" viewBox="0 0 24 24" id="Amphibian-Chameleon--Streamline-Freehand">
  <desc>
    Amphibian Chameleon Streamline Icon: https://streamlinehq.com
  </desc>
  <g>
    <path d="M13.14 11.67a0.32 0.32 0 0 0 0.44 -0.09 2.44 2.44 0 0 0 0.25 -2.35 2.7 2.7 0 0 0 -0.67 -1 2.64 2.64 0 0 0 -1.1 -0.63 3.27 3.27 0 0 0 -1.46 0 4.52 4.52 0 0 0 -1.8 0.95 0.29 0.29 0 0 0 0.33 0.45 4.15 4.15 0 0 1 1.34 -0.49 2.44 2.44 0 0 1 1.29 0.09 1.93 1.93 0 0 1 1.21 1 1.73 1.73 0 0 1 0.03 1.63 0.31 0.31 0 0 0 0.14 0.44Z" fill="#020202" fill-rule="evenodd" stroke-width="1"></path>
    <path d="M16.5 11.9a0.33 0.33 0 0 0 -0.07 0.45 0.32 0.32 0 0 0 0.44 0.07 3.92 3.92 0 0 0 1.33 -1.26 3.11 3.11 0 0 0 0.44 -1.89 1.81 1.81 0 0 0 -1.55 -1.66 2.25 2.25 0 0 0 -1.94 0.81 0.28 0.28 0 0 0 0.39 0.41 1.6 1.6 0 0 1 1.38 -0.32 0.92 0.92 0 0 1 0.65 0.9 2.11 2.11 0 0 1 -0.17 1.32 3.2 3.2 0 0 1 -0.9 1.17Z" fill="#020202" fill-rule="evenodd" stroke-width="1"></path>
    <path d="M1.64 7.53A5.76 5.76 0 0 0 0.7 9a2 2 0 0 0 0.1 1.64 2.53 2.53 0 0 0 1.31 0.89 8 8 0 0 0 2.14 0.47 5.05 5.05 0 0 0 2.19 -0.35s0.06 -0.05 0.09 -0.08a1.4 1.4 0 0 0 0.15 0.3 1.11 1.11 0 0 0 0.27 0.26 1.2 1.2 0 0 0 0.34 0.17l0.24 0a2.72 2.72 0 0 0 -0.34 0.59A2.33 2.33 0 0 0 7 14.14c-0.86 -0.09 -1.7 -0.17 -2.56 -0.19l-1.67 0C2 14 1.15 14.06 0.32 14a0.28 0.28 0 0 0 -0.32 0.25 0.3 0.3 0 0 0 0.25 0.32 19.34 19.34 0 0 0 2.82 0.4 15.69 15.69 0 0 0 1.68 0c0.83 0 1.65 -0.14 2.48 -0.18a2.92 2.92 0 0 0 0.22 0.43A0.28 0.28 0 1 0 8 15a1.83 1.83 0 0 1 0.21 -1.6 4.39 4.39 0 0 1 0.59 -0.86 8.27 8.27 0 0 1 1.2 -1.25 0.31 0.31 0 0 0 0.11 -0.44 0.31 0.31 0 0 0 -0.44 -0.1 6.75 6.75 0 0 0 -1.48 0.93l-1.22 -0.86c-0.22 -0.67 0 0.68 -2.6 0.3a7.28 7.28 0 0 1 -1.84 -0.55 1.63 1.63 0 0 1 -0.8 -0.48 1.09 1.09 0 0 1 -0.05 -0.83 11.06 11.06 0 0 1 0.62 -1.43c0.11 -0.3 -0.24 -0.74 -0.66 -0.3Z" fill="#020202" fill-rule="evenodd" stroke-width="1"></path>
    <path d="M23.69 13.59c-0.34 -0.07 -0.67 -0.15 -1 -0.19a3.24 3.24 0 0 0 -0.88 0 9.43 9.43 0 0 0 -0.62 -5.66 7.92 7.92 0 0 0 -5.65 -4.21 7.16 7.16 0 0 0 -1.92 -0.18 10.92 10.92 0 0 0 -1.72 0.2c0 -0.1 -0.16 -0.26 -0.22 -0.44 -0.24 -0.72 -0.59 -1.65 -1.48 -1.83 -0.6 -0.13 -1.24 0 -2.58 1 -0.27 0.18 0 0.52 0.16 0.52 1.08 -0.73 1.8 -1 2.28 -0.85 0.78 0.18 0.87 1.18 1.06 1.72s0.46 0.71 0.76 0.65a11.4 11.4 0 0 1 1.76 -0.16 6 6 0 0 1 1.7 0.2 7.11 7.11 0 0 1 5 3.85 8.69 8.69 0 0 1 0.33 5.67l0 0.14c0 0.19 -0.09 0.37 -0.15 0.56a15.66 15.66 0 0 1 -1.67 3.66 9.43 9.43 0 0 1 -2.62 2.91 3.91 3.91 0 0 1 -2.22 0.59 6.6 6.6 0 0 1 -2.39 -0.46 3 3 0 0 1 -1.06 -0.69 2.16 2.16 0 0 1 -0.59 -1.07 4.08 4.08 0 0 1 0.29 -2.64A3.36 3.36 0 0 1 11.94 15a2.83 2.83 0 0 1 1.32 -0.05 1.85 1.85 0 0 1 1.11 0.53 2.36 2.36 0 0 1 0.34 0.65 1.89 1.89 0 0 1 0.06 0.71 1.27 1.27 0 0 1 -0.53 0.85 0.88 0.88 0 0 1 -0.9 0.06 0.31 0.31 0 0 0 -0.44 0.11 0.32 0.32 0 0 0 0.11 0.44 1.48 1.48 0 0 0 1.59 -0.06 1.92 1.92 0 0 0 0.85 -1.29 2.29 2.29 0 0 0 -0.06 -1A2.65 2.65 0 0 0 15 15a2.21 2.21 0 0 0 -1.22 -0.76 3.88 3.88 0 0 0 -2.05 0 4.25 4.25 0 0 0 -2.37 2.26 5.1 5.1 0 0 0 -0.42 3.21 3.23 3.23 0 0 0 0.8 1.51 3.94 3.94 0 0 0 1.38 0.94 7.46 7.46 0 0 0 2.75 0.58 5 5 0 0 0 2.81 -0.74 10.55 10.55 0 0 0 3 -3.23 16.65 16.65 0 0 0 1.79 -3.92l0.12 -0.48 0.29 0a3 3 0 0 0 0.42 0 3 3 0 0 0 0.42 0c0.34 0 0.66 -0.12 1 -0.18a0.31 0.31 0 0 0 0.33 -0.31 0.33 0.33 0 0 0 -0.36 -0.29Z" fill="#020202" fill-rule="evenodd" stroke-width="1"></path>
    <path d="M5.56 2a3.2 3.2 0 0 0 -1 0.13c-0.22 0.07 -2.39 0.8 -2.74 2.55a3.41 3.41 0 0 0 2.39 4 3.29 3.29 0 0 0 2.33 -0.15 4.35 4.35 0 0 0 1.55 -1.18 3.2 3.2 0 0 0 0.7 -1.88 3.38 3.38 0 0 0 -1 -2.37A3.28 3.28 0 0 0 5.56 2Zm2.23 3.4a2.28 2.28 0 0 1 -0.55 1.26 3.22 3.22 0 0 1 -1.14 0.94 2.36 2.36 0 0 1 -1.57 0.12 2.67 2.67 0 0 1 -1.39 -0.87 2.74 2.74 0 0 1 -0.57 -2c0.17 -1.26 1 -1.7 2.2 -2a2.72 2.72 0 0 1 0.75 -0.06 2.53 2.53 0 0 1 1.66 0.92 2.47 2.47 0 0 1 0.61 1.72Z" fill="#4C57E6" fill-rule="evenodd" stroke-width="1"></path>
    <path d="M4.26 5a0.91 0.91 0 0 0 0.48 1.2 1 1 0 0 0 1.34 -0.58A1 1 0 1 0 4.26 5Z" fill="#020202" fill-rule="evenodd" stroke-width="1"></path>
  </g>
</svg>