<svg xmlns="http://www.w3.org/2000/svg" viewBox="0 0 24 24" id="Amusement-Park-Castle-1--Streamline-Freehand">
  <desc>
    Amusement Park Castle 1 Streamline Icon: https://streamlinehq.com
  </desc>
  <title>amusement-park-castle-1</title>
  <g>
    <path d="M18.05 15.91a0.48 0.48 0 0 0 0.25 -0.37 1.1 1.1 0 0 0 -0.3 -0.64 14.5 14.5 0 0 0 -1.17 -1.18c-0.65 -0.73 -1.3 -1.47 -2 -2.17 -0.47 -0.48 -1 -0.93 -1.45 -1.37a9.13 9.13 0 0 0 -1 -0.83 1.89 1.89 0 0 0 -0.64 -0.25l0 -0.42 1.93 -0.6a4.55 4.55 0 0 0 0.72 -0.26 1 1 0 0 0 0.39 -0.32 0.58 0.58 0 0 0 -0.12 -0.7c-0.14 -0.14 -0.53 -0.48 -0.57 -0.52l-0.8 -0.62 -0.84 -0.55a5.55 5.55 0 0 0 -0.57 -0.32 1.16 1.16 0 0 0 -0.46 -0.1 0.64 0.64 0 0 0 -0.55 0.58l0 1A11.15 11.15 0 0 0 11 7.51c0.06 0.59 0.15 1.17 0.24 1.76 -0.14 0.13 -0.36 0.39 -0.38 0.41l-1.51 1.57c-0.53 0.58 -1.08 1.16 -1.59 1.77a12.25 12.25 0 0 0 -1 1.32 6.48 6.48 0 0 0 -0.51 0.89 1 1 0 0 0 -0.09 0.64 0.38 0.38 0 0 0 0.39 0.27l0.49 0 0.66 0c-0.09 0.78 -0.2 1.5 -0.24 2.24l0 1.21c0 0.41 0.07 0.8 0.11 1.22 0 0.15 0 0.86 0.08 1.28a0.85 0.85 0 0 0 0.23 0.54 0.32 0.32 0 0 0 0.46 -0.07 0.33 0.33 0 0 0 0 -0.37 8.92 8.92 0 0 1 0.15 -1.37c0 -0.42 0.05 -0.82 0.06 -1.21s0 -0.8 0 -1.2c0 -0.72 -0.13 -1.43 -0.21 -2.2a0.34 0.34 0 0 0 0.22 0.09l5.09 0.27c0.25 0 0.74 -0.05 1.19 -0.07a0.26 0.26 0 0 0 0.17 0.05l0.36 0a8.69 8.69 0 0 1 -0.09 1 19.45 19.45 0 0 1 0.12 2l0 3.09a0.29 0.29 0 0 0 0.57 0c0.1 -1 0.26 -2.39 0.33 -3.63l0 -1.59 0 -1.06a6.66 6.66 0 0 0 0.89 -0.17 3.76 3.76 0 0 0 0.86 -0.28Zm-6.3 -8.13a10.8 10.8 0 0 1 0.1 -1.5l0 -0.24 1.56 1.06 0.08 0.08 -0.14 0.07 -1.6 0.75Zm3.68 8.64Zm-0.24 -1.11c-0.54 0 -1.21 0.1 -1.52 0.11 -1.65 0.05 -5 0 -6.61 0H7l0.07 -0.09c0.14 -0.23 0.31 -0.44 0.39 -0.55a9.86 9.86 0 0 1 1 -1.16c0.53 -0.57 1.1 -1.11 1.65 -1.63l1.51 -1.55s0.12 -0.08 0.21 -0.16l0.13 0.09c0.29 0.21 0.56 0.48 0.78 0.66 0.49 0.4 1 0.83 1.42 1.27 0.7 0.67 1.38 1.36 2.07 2 0.14 0.14 0.73 0.59 1.08 1a1.58 1.58 0 0 1 -0.2 0.12 14.64 14.64 0 0 1 -1.92 -0.11Z" fill="#020202" fill-rule="evenodd" stroke-width="1"></path>
    <path d="M24 18.29a9.39 9.39 0 0 0 -1.19 -2.09 14.22 14.22 0 0 0 -1.4 -1.58c-0.35 -0.34 -0.71 -0.64 -1 -0.92a8.21 8.21 0 0 0 -1.16 -0.88 0.72 0.72 0 0 0 -0.66 -0.11l-0.31 0.2c-0.12 0.09 -0.09 0.11 -0.26 0.25a0.28 0.28 0 0 0 -0.06 0.4 0.29 0.29 0 0 0 0.4 0.07 1.1 1.1 0 0 0 0.23 -0.19l0.17 -0.09c-0.12 0.33 0.93 0.88 1 1 0.28 0.32 0.57 0.67 0.89 1s0.88 1 1.3 1.52a13.52 13.52 0 0 1 1 1.27l-0.21 0a20.5 20.5 0 0 0 -3.42 0c-0.54 0 -0.75 0.07 -1.25 0.1a0.32 0.32 0 0 0 -0.33 0.32 0.32 0.32 0 0 0 0.26 0.44c0.49 0 0.72 0 1.25 0.07 0.29 0 0.66 0.07 1.23 0.15 0.09 0 0.66 -0.12 1 -0.12v1.21l0.21 2.35a0.29 0.29 0 1 0 0.58 0l0.2 -2.36c0 -0.25 0.12 -0.73 0.12 -1.12a0.49 0.49 0 0 0 0 -0.17h0.17l0.53 0 0.33 0 0.11 0a0.42 0.42 0 0 0 0.27 -0.72Z" fill="#020202" fill-rule="evenodd" stroke-width="1"></path>
    <path d="m5.93 18.25 -1 0 -3.72 0.1H1c0.06 -0.23 0.08 -0.51 0.09 -0.54a5.53 5.53 0 0 1 0.53 -0.91c0.31 -0.47 0.65 -0.92 1 -1.35l1.53 -2.11 0.38 -0.62a2.77 2.77 0 0 1 0.38 0.22l0.85 0.53a0.33 0.33 0 0 0 0.45 -0.1 0.35 0.35 0 0 0 -0.11 -0.46l-0.74 -0.56a3.07 3.07 0 0 0 -0.74 -0.4 0.64 0.64 0 0 0 -0.46 0 0.78 0.78 0 0 0 -0.27 0.2 7 7 0 0 0 -0.46 0.61l-1.68 2a14.78 14.78 0 0 0 -1 1.46 5.92 5.92 0 0 0 -0.51 1.15 10.44 10.44 0 0 0 -0.23 1 0.5 0.5 0 0 0 0.33 0.57 2.71 2.71 0 0 0 0.7 0l0.46 -0.08a2.84 2.84 0 0 0 -0.15 0.54 9.51 9.51 0 0 0 0.11 2.48c0 0.14 0.1 0.7 0.16 0.92a0.52 0.52 0 0 0 0.26 0.36 0.33 0.33 0 0 0 0.41 -0.22 0.28 0.28 0 0 0 0 -0.22l0 -0.89a12.29 12.29 0 0 1 0.07 -1.6 5.4 5.4 0 0 1 0.14 -0.74c0.26 -1 0.56 -0.37 1.5 -0.46l2 -0.36a0.29 0.29 0 0 0 0.25 -0.32 0.28 0.28 0 0 0 -0.32 -0.2Z" fill="#020202" fill-rule="evenodd" stroke-width="1"></path>
    <path d="M18.68 5.84a13.49 13.49 0 0 0 -0.19 1.54 4.85 4.85 0 0 0 0 0.66c0 0.22 0 0.43 0.06 0.65 0.07 0.51 0.17 1 0.25 1.51a0.32 0.32 0 0 0 0.33 0.32 0.33 0.33 0 0 0 0.32 -0.34c0.06 -0.52 0.12 -1 0.14 -1.54l0 -0.65a4.74 4.74 0 0 0 -0.05 -0.65c-0.07 -0.51 -0.2 -1 -0.28 -1.51a0.3 0.3 0 0 0 -0.3 -0.28 0.29 0.29 0 0 0 -0.28 0.29Z" fill="#020202" fill-rule="evenodd" stroke-width="1"></path>
    <path d="M20.13 6a6.57 6.57 0 0 1 1.26 0.14l0.61 0.08c0.21 0 0.42 0 0.63 0.06a4.66 4.66 0 0 1 0.62 0.15 0.33 0.33 0 1 0 0.3 -0.58 4.36 4.36 0 0 0 -1.16 -0.63 3.41 3.41 0 0 0 -0.55 -0.14 2.72 2.72 0 0 0 -0.57 0 3.79 3.79 0 0 0 -1.27 0.38 0.29 0.29 0 1 0 0.13 0.56Z" fill="#4C57E6" fill-rule="evenodd" stroke-width="1"></path>
    <path d="M20.29 4.35a8.72 8.72 0 0 1 1.26 -0.63c0.21 -0.09 0.41 -0.2 0.61 -0.3s0.4 -0.21 0.62 -0.3a5.16 5.16 0 0 1 0.66 -0.23 0.33 0.33 0 0 0 0.29 -0.36 0.32 0.32 0 0 0 -0.36 -0.29 4.76 4.76 0 0 0 -1.37 0.13 3.1 3.1 0 0 0 -0.58 0.21 2.54 2.54 0 0 0 -0.53 0.31 5.3 5.3 0 0 0 -1 1 0.29 0.29 0 0 0 0 0.41 0.3 0.3 0 0 0 0.4 0.05Z" fill="#4C57E6" fill-rule="evenodd" stroke-width="1"></path>
    <path d="M16 1.28a3.24 3.24 0 0 1 0.53 0.35c0.16 0.14 0.29 0.31 0.44 0.46l0.45 0.46c0.35 0.33 0.71 0.61 1 0.94a0.29 0.29 0 0 0 0.4 0.08 0.28 0.28 0 0 0 0.08 -0.4A6.8 6.8 0 0 0 18.38 2a2.61 2.61 0 0 0 -0.38 -0.46 2.89 2.89 0 0 0 -0.47 -0.38 3.38 3.38 0 0 0 -1.3 -0.51 0.33 0.33 0 0 0 -0.2 0.63Z" fill="#4C57E6" fill-rule="evenodd" stroke-width="1"></path>
    <path d="M15.5 5.58a5.29 5.29 0 0 1 0.69 0h0.28a1.4 1.4 0 0 0 0.28 -0.06c0.24 -0.06 0.43 -0.17 0.68 -0.24a0.29 0.29 0 0 0 0 -0.58 3.93 3.93 0 0 0 -0.79 -0.23 1.37 1.37 0 0 0 -0.35 0 1.89 1.89 0 0 0 -0.34 0.09 3.14 3.14 0 0 0 -0.72 0.41 0.33 0.33 0 0 0 -0.19 0.42 0.33 0.33 0 0 0 0.46 0.19Z" fill="#4C57E6" fill-rule="evenodd" stroke-width="1"></path>
    <path d="M5.89 10.09a0.32 0.32 0 0 0 0.34 0.31 0.33 0.33 0 0 0 0.32 -0.34c0 -0.35 0.11 -0.68 0.14 -1a3.23 3.23 0 0 0 0 -0.44 2.2 2.2 0 0 0 0 -0.44c-0.07 -0.34 -0.2 -0.65 -0.3 -1a0.29 0.29 0 1 0 -0.57 0 8.87 8.87 0 0 0 -0.18 1 3.09 3.09 0 0 0 0 0.43 3 3 0 0 0 0.06 0.43c0.02 0.39 0.12 0.71 0.19 1.05Z" fill="#020202" fill-rule="evenodd" stroke-width="1"></path>
    <path d="M8.16 6.21a0.57 0.57 0 0 0 -0.26 0c-0.08 0 -0.82 0.27 -0.78 0.58 0 0.06 0 0.2 0.74 0.47a0.37 0.37 0 0 0 0.14 0c1 0 1 -0.12 1 -0.19 0.18 -0.33 -0.47 -0.75 -0.6 -0.82a0.75 0.75 0 0 0 -0.24 -0.04Z" fill="#4C57E6" fill-rule="evenodd" stroke-width="1"></path>
    <path d="M6.84 5.08a0.28 0.28 0 0 0 0.34 -0.21A12.61 12.61 0 0 1 8 3.31c0.17 -0.32 0.32 -0.65 0.52 -1a4.64 4.64 0 0 1 0.74 -0.94 0.33 0.33 0 0 0 -0.42 -0.48 4.63 4.63 0 0 0 -1.3 1 3.37 3.37 0 0 0 -0.41 0.58 4.11 4.11 0 0 0 -0.28 0.65 6.78 6.78 0 0 0 -0.23 1.59 0.28 0.28 0 0 0 0.22 0.37Z" fill="#4C57E6" fill-rule="evenodd" stroke-width="1"></path>
    <path d="M2.19 3.87a2 2 0 0 1 0.57 0.13 3.47 3.47 0 0 1 0.52 0.3l0.51 0.31a9.36 9.36 0 0 1 1.13 0.67 0.29 0.29 0 0 0 0.41 0 0.29 0.29 0 0 0 0 -0.4 4.67 4.67 0 0 0 -0.79 -1.05 2 2 0 0 0 -0.46 -0.35 2.61 2.61 0 0 0 -0.54 -0.24 2.86 2.86 0 0 0 -1.39 -0.09 0.33 0.33 0 0 0 0 0.66Z" fill="#4C57E6" fill-rule="evenodd" stroke-width="1"></path>
    <path d="M3.23 6.85a2 2 0 0 0 -0.4 0.23 1.8 1.8 0 0 0 -0.36 0.32 2.75 2.75 0 0 0 -0.55 1 0.33 0.33 0 0 0 0.08 0.42 0.34 0.34 0 0 0 0.45 -0.13 3 3 0 0 1 0.69 -0.53c0.15 -0.1 0.32 -0.2 0.47 -0.31 0.3 -0.22 0.53 -0.48 0.82 -0.68a0.28 0.28 0 0 0 0.17 -0.37 0.3 0.3 0 0 0 -0.38 -0.17 5.25 5.25 0 0 0 -0.99 0.22Z" fill="#4C57E6" fill-rule="evenodd" stroke-width="1"></path>
  </g>
</svg>