<svg xmlns="http://www.w3.org/2000/svg" viewBox="0 0 24 24" id="Amusement-Park-Cup-Ride--Streamline-Freehand">
  <desc>
    Amusement Park Cup Ride Streamline Icon: https://streamlinehq.com
  </desc>
  <title>amusement-park-cup-ride</title>
  <g>
    <path d="M23.59 21.88a4.6 4.6 0 0 1 -0.83 0c-0.69 0 -1.39 -0.17 -2.06 -0.21l-0.7 0a3.89 3.89 0 0 0 0.81 -0.7c0.09 -0.12 0.17 -0.25 0.26 -0.38a0.32 0.32 0 0 0 0.3 0.25 2.41 2.41 0 0 0 1.46 -0.38 2.69 2.69 0 0 0 1 -1.16 1.81 1.81 0 0 0 -0.09 -1.56 1.21 1.21 0 0 0 -1 -0.62 1.71 1.71 0 0 0 -0.59 0 3.73 3.73 0 0 0 -0.56 0.2 0.13 0.13 0 0 0 0 -0.06 2.11 2.11 0 0 0 -0.28 -0.78 0.6 0.6 0 0 0 -0.37 -0.23 4 4 0 0 0 -0.55 0l-1.78 -0.09c-0.79 0 -1.82 -0.2 -2.77 -0.16a4.06 4.06 0 0 0 -2 0.55 0.83 0.83 0 0 0 -0.34 0.56 6.38 6.38 0 0 0 0 1.17 5.12 5.12 0 0 0 0.59 2.26 3.29 3.29 0 0 0 0.74 0.91l-1.91 0c-1.24 0 -2.47 0.08 -3.7 0.19l-0.54 0.06a4 4 0 0 0 0.36 -0.52c0 -0.08 0.07 -0.17 0.11 -0.26a0.31 0.31 0 0 0 0.29 0.15 2.49 2.49 0 0 0 1.14 -0.2 2.36 2.36 0 0 0 1 -0.78 1.92 1.92 0 0 0 0.26 -1.61 1.6 1.6 0 0 0 -1.25 -1.08 2 2 0 0 0 -0.59 0 4.42 4.42 0 0 0 -0.5 0.1 2.1 2.1 0 0 0 -0.06 -0.24 1.8 1.8 0 0 0 -0.4 -0.69 0.72 0.72 0 0 0 -0.48 -0.19c-0.34 0 -1.15 0.16 -1.31 0.16 -1 0.05 -1.95 0 -2.91 0.05a6.49 6.49 0 0 0 -1.34 0.15 1.52 1.52 0 0 0 -1 0.86 3.47 3.47 0 0 0 -0.1 1.63 4.59 4.59 0 0 0 1.1 2.6 4.22 4.22 0 0 0 0.46 0.38c-0.89 0.08 -1.78 0.15 -2.67 0.17a0.29 0.29 0 0 0 -0.29 0.3 0.3 0.3 0 0 0 0.29 0.3l3.69 0c1.42 -0.06 2.85 -0.14 4.27 -0.23s2.81 -0.2 4.23 -0.2l7.67 0c0.66 0 1.37 0.1 2.06 0.12a7.21 7.21 0 0 0 0.94 -0.05 0.34 0.34 0 0 0 0.29 -0.38 0.33 0.33 0 0 0 -0.35 -0.36ZM22.2 18a1.16 1.16 0 0 1 0.42 0.05c0.14 0.05 0.18 0.19 0.22 0.32a0.91 0.91 0 0 1 0 0.54 1.85 1.85 0 0 1 -0.53 0.82 1.62 1.62 0 0 1 -0.92 0.44s-0.06 0 -0.09 0a4.44 4.44 0 0 0 0.43 -1.91l0 -0.24c0.13 -0.02 0.27 -0.02 0.47 -0.02Zm-12.28 0.12a1.25 1.25 0 0 1 0.46 0.12 0.73 0.73 0 0 1 0.41 0.54 1 1 0 0 1 -0.09 0.73 1.42 1.42 0 0 1 -0.46 0.58 1.74 1.74 0 0 1 -0.77 0.29 5.32 5.32 0 0 0 0.22 -2.23 2.25 2.25 0 0 1 0.23 -0.08Zm-5.1 4a2 2 0 0 1 -1.48 -1 3.75 3.75 0 0 1 -0.51 -1.87 3.29 3.29 0 0 1 0.06 -1 0.54 0.54 0 0 1 0.44 -0.37 6.87 6.87 0 0 1 1.12 -0.16c1 -0.07 2 0 2.89 -0.06 0.69 -0.05 0.95 -0.71 1.21 0.06a4 4 0 0 1 0.16 0.64 4.33 4.33 0 0 1 -0.14 2.09 2.28 2.28 0 0 1 -1.13 1.41l-2.58 0.3Zm9.66 -3.81c0 -0.12 -0.17 -1.11 0.07 -1 0.07 0 -0.07 0.1 -0.12 0.12a3.15 3.15 0 0 1 1.5 -0.3c0.92 0 1.91 0.13 2.67 0.18l1.76 0a1.3 1.3 0 0 0 0.25 0.06c0 0.07 0 0.15 0.05 0.23a6.88 6.88 0 0 1 0.07 0.7 3.2 3.2 0 0 1 -0.57 2.14 3.13 3.13 0 0 1 -1.69 1.12c-0.77 0 -1.55 -0.08 -2.32 -0.1a2.46 2.46 0 0 1 -1.33 -1.28 4.24 4.24 0 0 1 -0.34 -1.94Z" fill="#020202" fill-rule="evenodd" stroke-width="1"></path>
    <path d="m9.93 3.82 0.3 -0.43c0.22 -0.5 -0.72 -0.51 -1.29 0.27 -0.6 1 -1.44 2 -2 3a16.59 16.59 0 0 0 -0.86 1.68c-0.2 0.4 0.21 0.65 0.42 0.27 0.38 -0.65 0.7 -0.91 1.12 -1.53C8.36 6 9.15 4.9 9.93 3.82Z" fill="#4C57E6" fill-rule="evenodd" stroke-width="1"></path>
    <path d="M22.3 7.91c-1.45 -1.19 -3.3 -2.38 -5.08 -3.55a36.28 36.28 0 0 0 -3.62 -2.09l-1.8 -0.92a4.39 4.39 0 0 0 -0.68 -0.35 0.93 0.93 0 0 0 -0.4 0 1.41 1.41 0 0 0 -0.46 0.18c-0.2 0.12 -0.41 0.31 -0.56 0.4L7.75 2.9c-0.7 0.51 -1.4 1 -2.08 1.55 -0.47 0.36 -0.92 0.72 -1.36 1.1 -0.81 0.7 -1.6 1.45 -2.44 2.14A13 13 0 0 1 0.15 8.9c-0.35 0.19 0.05 0.74 0.05 0.74a4.34 4.34 0 0 0 2.93 1.21 4.28 4.28 0 0 0 2.9 -1c0.12 0.07 0.27 0.2 0.29 0.21a7 7 0 0 0 1.49 0.55 3.94 3.94 0 0 0 1.19 0.1 4.41 4.41 0 0 0 1.27 -0.29 4 4 0 0 0 1 -0.6c0 0.65 0 1.29 0.08 1.94s0.07 1.25 0.16 1.87c0.13 1 0.37 2.06 0.59 3.09a0.3 0.3 0 0 0 0.59 -0.08c0 -0.91 0 -1.81 -0.05 -2.73q0 -0.59 -0.09 -1.17c0 -0.39 -0.09 -0.77 -0.15 -1.16 -0.11 -0.78 -0.26 -1.54 -0.41 -2.3l0.23 0c0.4 0.11 0.79 0.26 1.19 0.36a4.68 4.68 0 0 0 0.9 0.14 3.25 3.25 0 0 0 1.89 -0.46c0.37 -0.21 0.1 -0.61 0.84 -0.23 0.37 0.18 0.74 0.44 1.06 0.57a4.34 4.34 0 0 0 2.29 0.24 4.58 4.58 0 0 0 2.07 -1c0.33 -0.25 0.36 -0.57 -0.16 -0.99Zm-2 1.26a3.53 3.53 0 0 1 -1.85 -0.28c-0.35 -0.16 -0.76 -0.5 -1.17 -0.7 -1.06 -0.51 -1.24 0.12 -1.54 0.28a2.92 2.92 0 0 1 -0.66 0.24 1.88 1.88 0 0 1 -0.67 0 3.34 3.34 0 0 1 -0.7 -0.14c-0.39 -0.11 -0.77 -0.25 -1.15 -0.37 -0.59 -0.17 -0.93 -0.58 -1.52 0.11a6.55 6.55 0 0 1 -0.39 0.55 3 3 0 0 1 -0.82 0.48 3.25 3.25 0 0 1 -0.94 0.24 3.34 3.34 0 0 1 -1 -0.08 7 7 0 0 1 -1.09 -0.37c-0.28 -0.1 -0.85 -0.48 -1.21 -0.1a3.44 3.44 0 0 1 -2.38 1A3.62 3.62 0 0 1 0.7 9.27a13.59 13.59 0 0 0 1.6 -1c0.88 -0.64 1.71 -1.35 2.57 -2q0.67 -0.51 1.38 -1C6.76 4.89 9 3.4 10.14 2.62a1.46 1.46 0 0 1 1.48 -0.09c1.37 0.71 4.22 2.11 5.1 2.63 1.82 1.08 3.64 2.29 5.2 3.31a2.93 2.93 0 0 1 -1.65 0.7Z" fill="#020202" fill-rule="evenodd" stroke-width="1"></path>
    <path d="M12.06 5.74c0 -0.31 0 -0.62 -0.09 -0.93s-0.09 -0.6 -0.15 -0.9l-0.09 -0.36c-0.25 -0.95 -0.91 -1.24 -1 -0.59l0 1.41c0 0.48 0.14 1 0.22 1.44 0.13 0.72 0.35 1.27 0.51 1.87 0.08 0.24 0.51 0.32 0.56 0a10.1 10.1 0 0 0 0.04 -1.94Z" fill="#4C57E6" fill-rule="evenodd" stroke-width="1"></path>
    <path d="M16.54 7.41a10 10 0 0 0 -1.17 -1.69c-0.59 -0.72 -1.51 -1.44 -2.15 -2.12 -0.5 -0.52 -1.42 -0.47 -0.83 0.06a31.18 31.18 0 0 1 2.34 2.61A15.26 15.26 0 0 1 16 7.79c0.4 0.39 0.84 0.15 0.54 -0.38Z" fill="#4C57E6" fill-rule="evenodd" stroke-width="1"></path>
  </g>
</svg>