<svg xmlns="http://www.w3.org/2000/svg" viewBox="0 0 24 24" id="Android-Sync--Streamline-Freehand">
  <desc>
    Android Sync Streamline Icon: https://streamlinehq.com
  </desc>
  <g>
    <path d="M8.22 16.61a3.84 3.84 0 0 1 0.94 -1.42 4.2 4.2 0 0 1 2.48 -1 3.71 3.71 0 0 1 3.86 1.91 0.34 0.34 0 0 0 0.61 -0.28 4.49 4.49 0 0 0 -7.58 -1.22 4.75 4.75 0 0 0 -0.9 1.93 0.3 0.3 0 0 0 0.59 0.08Z" fill="#020202" fill-rule="evenodd" stroke-width="1"></path>
    <path d="M16.57 20.4a0.28 0.28 0 0 0 -0.35 0.22 2.13 2.13 0 0 1 -0.33 0.57 3.82 3.82 0 0 1 -3.29 1.52A3.74 3.74 0 0 1 9 20.47l1.71 0.71a0.3 0.3 0 0 0 0.33 -0.5 20.6 20.6 0 0 0 -2 -1.47 1.25 1.25 0 0 0 -1 -0.3c-0.46 0.12 -0.48 0.47 -0.88 2.05 -0.19 0.59 -0.57 1 0 1.12 0.33 0.21 0.4 -0.06 1.16 -1.4a4.51 4.51 0 0 0 7.44 1.91c0.4 -0.44 1.49 -2.04 0.81 -2.19Z" fill="#020202" fill-rule="evenodd" stroke-width="1"></path>
    <path d="M17.67 15.72c-0.29 -0.21 -0.43 0 -1.42 1.8l-2.15 -1.09a0.3 0.3 0 1 0 -0.35 0.48 14.49 14.49 0 0 0 2.44 1.9 0.68 0.68 0 0 0 0.78 -0.19 9.16 9.16 0 0 0 0.62 -1.78c0.21 -0.58 0.61 -0.95 0.08 -1.12Z" fill="#020202" fill-rule="evenodd" stroke-width="1"></path>
    <path d="M8.71 3.77a7.68 7.68 0 0 1 5.18 -0.45A6 6 0 0 1 18 6.21a3.58 3.58 0 0 1 0.57 2.35c0.07 0.31 0.92 0.44 0.92 -0.09v-0.53a5.91 5.91 0 0 0 -1.9 -4 7.36 7.36 0 0 0 -0.59 -0.48c0.31 -0.37 0.78 -1.06 0.82 -1.12a8 8 0 0 0 0.71 -1.83 0.34 0.34 0 0 0 -0.31 -0.36c-0.2 0 -1.32 1.51 -1.37 1.59A8.52 8.52 0 0 0 16.24 3a9 9 0 0 0 -8.31 -0.13c-0.07 -0.15 -0.13 -0.32 -0.2 -0.49C7.36 1.55 6.49 0.31 6 0.34a0.33 0.33 0 0 0 -0.36 0.31 19.91 19.91 0 0 0 1.11 2.23 3.09 3.09 0 0 0 0.37 0.43 5.16 5.16 0 0 0 -1.8 2 6.89 6.89 0 0 0 -0.93 3.6c0.12 0.42 0.81 0.54 0.92 0.12 0.2 -2.86 0.76 -4.23 3.4 -5.26Z" fill="#020202" fill-rule="evenodd" stroke-width="1"></path>
    <path d="M24 15.76c-0.23 -3.33 -0.93 -5.46 -3.71 -6.27a3.74 3.74 0 0 0 -1.82 0 29 29 0 0 1 -5.17 0.51c-1.65 0 -7.57 -0.62 -8.91 -0.42a4.36 4.36 0 0 0 -4 3.67 20.11 20.11 0 0 0 -0.35 5.68 0.34 0.34 0 0 0 0.67 -0.08 24 24 0 0 1 0.78 -5.3 3.45 3.45 0 0 1 2.82 -2.94 57.16 57.16 0 0 0 0.29 8.18 0.34 0.34 0 0 0 0.67 -0.08 56.61 56.61 0 0 1 0 -8.34 27.92 27.92 0 0 0 8.77 0.74 21.57 21.57 0 0 0 4.61 -0.83l0.35 8.37a0.3 0.3 0 1 0 0.59 0v-8.39A3.68 3.68 0 0 1 22.06 12a21.62 21.62 0 0 1 1.19 6.5 0.34 0.34 0 1 0 0.67 0.07 16.14 16.14 0 0 0 0.08 -2.81Z" fill="#4C57E6" fill-rule="evenodd" stroke-width="1"></path>
    <path d="M8.79 6.14A2 2 0 0 0 8 7.31a0.3 0.3 0 0 0 0.56 0.2 1.55 1.55 0 0 1 2 -0.1 0.34 0.34 0 0 0 0.58 -0.35 1.73 1.73 0 0 0 -2.35 -0.92Z" fill="#020202" fill-rule="evenodd" stroke-width="1"></path>
    <path d="M13.45 6.05a1.92 1.92 0 0 0 -0.8 1.17 0.3 0.3 0 0 0 0.56 0.2 1.56 1.56 0 0 1 2 -0.11 0.34 0.34 0 1 0 0.56 -0.31 1.72 1.72 0 0 0 -2.32 -0.95Z" fill="#020202" fill-rule="evenodd" stroke-width="1"></path>
  </g>
</svg>