<svg xmlns="http://www.w3.org/2000/svg" viewBox="0 0 24 24" id="Animal-Products-Cheese--Streamline-Freehand">
  <desc>
    Animal Products Cheese Streamline Icon: https://streamlinehq.com
  </desc>
  <g>
    <path d="M23.9 15.14a29.43 29.43 0 0 0 -0.29 -7.59A9.49 9.49 0 0 0 21.12 3a7.83 7.83 0 0 0 -0.88 -0.74c-0.45 -0.32 -0.94 -0.6 -1.41 -0.87a9.66 9.66 0 0 0 -1.55 -0.72 6.91 6.91 0 0 0 -1.7 -0.32 14.92 14.92 0 0 0 -2.12 0 15.23 15.23 0 0 0 -2.08 0.33 4.5 4.5 0 0 0 -1.49 0.58 5 5 0 0 0 -1.19 1 3.23 3.23 0 0 0 -0.51 0.74 1.31 1.31 0 0 0 -0.12 0.47 0.2 0.2 0 0 0 0 0.13l-0.25 2.26 0.08 1.57a2.65 2.65 0 0 1 -1.26 -0.22l-0.82 -0.43a2.51 2.51 0 0 0 -0.37 -0.19 0.49 0.49 0 0 0 -0.25 0 0.65 0.65 0 0 0 -0.23 0.2c-0.08 0.11 -0.17 0.31 -0.21 0.37l-0.8 1L0.45 12a0.33 0.33 0 0 0 -0.24 0.29A11.81 11.81 0 0 0 0 14a1.25 1.25 0 0 0 0.37 0.9 0.88 0.88 0 0 0 0.35 0.1 1.43 1.43 0 0 0 0.23 0 2.78 2.78 0 0 1 0.21 0.27 4.19 4.19 0 0 1 0.31 0.79 6 6 0 0 1 0.3 1.18 4.07 4.07 0 0 1 0.1 1.15 2.88 2.88 0 0 1 -0.44 1.33l-0.19 0a2.06 2.06 0 0 0 -0.44 0.08 0.56 0.56 0 0 0 -0.26 0.24 2.81 2.81 0 0 0 -0.27 1 8.17 8.17 0 0 0 0 1.36 3.16 3.16 0 0 0 0.03 0.6 1 1 0 0 0 0.24 0.42 1 1 0 0 0 0.67 0.26 4.5 4.5 0 0 0 1 -0.13L5.8 23l5.84 -0.65 3.26 -0.16c0.94 -0.09 1.87 -0.26 2.81 -0.39 0.39 -0.05 0.77 -0.09 1.16 -0.11l3.28 -0.06a3.28 3.28 0 0 0 0.94 -0.15 1.32 1.32 0 0 0 0.7 -0.54 1.23 1.23 0 0 0 0.16 -0.52c0 -0.35 -0.07 -0.85 -0.06 -1.1ZM8.67 5.9c0 -0.41 0.08 -0.83 0.09 -1.26l0.2 0.18a1.87 1.87 0 0 1 0.38 1.12A1.43 1.43 0 0 1 9 7a1.41 1.41 0 0 1 -0.35 0.23ZM4.46 8.62l0.88 -1 0.14 -0.16 0.84 0.46a3.29 3.29 0 0 0 1.62 0.31 2.46 2.46 0 0 0 1.59 -0.65 2.26 2.26 0 0 0 0.63 -1.62 2.75 2.75 0 0 0 -0.53 -1.62 9.24 9.24 0 0 0 -0.71 -0.7 0.52 0.52 0 0 1 0.08 -0.29 3.22 3.22 0 0 1 0.35 -0.44 4.47 4.47 0 0 1 1 -0.84 3.78 3.78 0 0 1 1.21 -0.44 17.23 17.23 0 0 1 2 -0.27 13 13 0 0 1 2 0 5.67 5.67 0 0 1 1.44 0.3 8.74 8.74 0 0 1 1.36 0.63 14.73 14.73 0 0 1 1.29 0.82 6.43 6.43 0 0 1 0.73 0.64 8.39 8.39 0 0 1 2.16 4.07c0 0.13 0 0.28 0.06 0.42l-1 0.15c-1.06 0.19 -2.1 0.43 -3.16 0.62l-7.74 1.42 -4.7 0.75c-1 0.21 -2.11 0.46 -3.17 0.66 -0.53 0.1 -1.07 0.17 -1.6 0.24Zm-1.67 8a4.6 4.6 0 0 0 -0.44 -0.89c-0.09 -0.14 -0.2 -0.26 -0.29 -0.4a4.84 4.84 0 0 1 1.35 0.77 1.16 1.16 0 0 1 0.52 0.93 3.1 3.1 0 0 1 -0.56 1.5 3.67 3.67 0 0 1 -0.66 0.7A3.5 3.5 0 0 0 3 18.1a3.91 3.91 0 0 0 -0.21 -1.51Zm20 3.77a0.45 0.45 0 0 1 -0.24 0.07 2.22 2.22 0 0 1 -0.43 0l-3.3 0.09c-0.42 0 -0.84 0.07 -1.25 0.13 -0.92 0.13 -1.84 0.32 -2.77 0.42l-3.25 0.19L5.7 22l-3.64 0.6 -0.88 0.14 -0.06 -0.35a8.11 8.11 0 0 1 0 -1.2 3.27 3.27 0 0 1 0.1 -0.54l0.13 0a5.61 5.61 0 0 0 0.65 -0.11 4.19 4.19 0 0 0 0.59 -0.22A4.17 4.17 0 0 0 4 19a3.8 3.8 0 0 0 0.67 -1.9 1.91 1.91 0 0 0 -0.81 -1.57 5.77 5.77 0 0 0 -2.12 -1l-0.95 -0.11a0.77 0.77 0 0 1 -0.12 -0.59 7.26 7.26 0 0 1 0.13 -1c0.7 0 1.4 -0.1 2.09 -0.19 1.08 -0.13 2.15 -0.31 3.22 -0.45s2.21 -0.21 3.32 -0.33c0.48 -0.06 1 -0.13 1.45 -0.22 1.29 -0.25 2.58 -0.49 3.86 -0.76s2.57 -0.59 3.84 -0.89c1.05 -0.25 2.08 -0.55 3.12 -0.79l0.92 -0.19a36 36 0 0 1 0.07 6.15v4.17c0.03 0.16 0.08 0.91 0.09 1.03Z" fill="#020202" fill-rule="evenodd" stroke-width="1"></path>
    <path d="M10.17 17.1a1.41 1.41 0 0 0 -0.39 -0.19 1.82 1.82 0 0 0 -0.4 -0.11 0.35 0.35 0 0 0 -0.25 0 4.76 4.76 0 0 0 -1.28 0.2 2.17 2.17 0 0 0 -0.86 0.62 1.64 1.64 0 0 0 -0.14 2.09 2.24 2.24 0 0 0 1.85 0.92 2.59 2.59 0 0 0 2.08 -1.26 1.63 1.63 0 0 0 -0.61 -2.27Zm-0.25 1.79a1.5 1.5 0 0 1 -1.23 0.62 1.19 1.19 0 0 1 -0.93 -0.42 0.72 0.72 0 0 1 0 -0.87 1.28 1.28 0 0 1 0.62 -0.54 3.65 3.65 0 0 1 0.85 -0.22l0.49 0.26a0.81 0.81 0 0 1 0.2 1.17Z" fill="#4C57E6" fill-rule="evenodd" stroke-width="1"></path>
    <path d="M18.4 11.44a3.45 3.45 0 0 0 -1.17 -0.27h-0.07a0.3 0.3 0 0 0 -0.32 -0.09 3.85 3.85 0 0 0 -1.55 0.88 3.27 3.27 0 0 0 -0.94 1.57 3.65 3.65 0 0 0 0.36 2.83 3.16 3.16 0 0 0 2.54 1.49 4.28 4.28 0 0 0 0.62 0 3.26 3.26 0 0 0 0.6 -0.14 4.15 4.15 0 0 0 1.86 -1.18 2.5 2.5 0 0 0 0.61 -1.46 3.25 3.25 0 0 0 -0.72 -2.27 4.65 4.65 0 0 0 -1.82 -1.36Zm0.89 4.5a3.16 3.16 0 0 1 -1.18 0.64 1.83 1.83 0 0 1 -0.39 0.09 2.68 2.68 0 0 1 -0.4 0 2.12 2.12 0 0 1 -1.72 -0.91 2.83 2.83 0 0 1 -0.41 -2.06 2.43 2.43 0 0 1 0.62 -1.25 2.71 2.71 0 0 1 0.61 -0.51 0.3 0.3 0 0 0 0.21 0 1.38 1.38 0 0 1 0.7 0 2.93 2.93 0 0 1 0.74 0.25 3.7 3.7 0 0 1 1.4 1.17 2.19 2.19 0 0 1 0.41 1.6 1.57 1.57 0 0 1 -0.59 0.98Z" fill="#4C57E6" fill-rule="evenodd" stroke-width="1"></path>
    <path d="M15.89 7.78a2.51 2.51 0 0 0 2.23 -1.18A1.59 1.59 0 0 0 18 4.82l-0.5 -0.52a2.06 2.06 0 0 0 -0.41 -0.23L16.76 4v-0.09a0.31 0.31 0 0 0 -0.32 -0.29A3.14 3.14 0 0 0 15 4a2.09 2.09 0 0 0 -0.8 0.73 1.9 1.9 0 0 0 0 2 2.18 2.18 0 0 0 1.69 1.05ZM15 5.16a1.45 1.45 0 0 1 0.57 -0.61 2.11 2.11 0 0 1 0.43 -0.21 0.34 0.34 0 0 0 0.25 0.23 2.26 2.26 0 0 1 0.39 0.15 1.49 1.49 0 0 1 0.31 0.2l0.27 0.37a0.73 0.73 0 0 1 -0.17 1 1.45 1.45 0 0 1 -1.05 0.32 1.06 1.06 0 0 1 -0.83 -0.49 1 1 0 0 1 -0.17 -0.96Z" fill="#4C57E6" fill-rule="evenodd" stroke-width="1"></path>
  </g>
</svg>