<svg xmlns="http://www.w3.org/2000/svg" viewBox="0 0 24 24" id="Antique-Scythe--Streamline-Freehand">
  <desc>
    Antique Scythe Streamline Icon: https://streamlinehq.com
  </desc>
  <title>antique-scythe</title>
  <g>
    <path d="M21.81 3.29A7.81 7.81 0 0 0 17.94 0.48a10.2 10.2 0 0 0 -4.71 -0.31 10.84 10.84 0 0 0 -2.07 0.5 3 3 0 0 0 -1.28 0.89 0.73 0.73 0 0 0 0 1 2.35 2.35 0 0 0 0.63 0.5 1.29 1.29 0 0 1 0.41 0.33 1.92 1.92 0 0 1 0.28 1c0 1.15 -0.42 1.23 -1.28 2.29 -1.23 1.47 -2.27 3.07 -3.46 4.56l-2.34 3c-0.82 1 -1.72 1.94 -2.54 3a16.8 16.8 0 0 0 -1 1.38 4.84 4.84 0 0 0 -0.45 0.79 1.39 1.39 0 0 0 -0.12 0.54A1.82 1.82 0 0 0 0.42 21a7.66 7.66 0 0 0 1.65 1.38 6.32 6.32 0 0 0 1 0.66 1.17 1.17 0 0 0 0.86 0.09 0.94 0.94 0 0 0 0.63 -0.78c0.06 -0.39 -0.09 -0.93 -0.06 -1.2a1.76 1.76 0 0 1 0.23 -0.69 10.37 10.37 0 0 1 0.74 -1.08c0.92 -1.31 1.7 -2.71 2.58 -4 0.22 -0.33 0.44 -0.65 0.67 -1 1 -1.4 2.15 -2.7 3.21 -4.06 1.89 -2.42 1.59 -2 1.67 -2.15a5.14 5.14 0 0 0 0.49 -0.92c0.1 -0.25 0.11 -0.51 0.21 -0.73a0.34 0.34 0 0 1 0.19 -0.16 0.84 0.84 0 0 1 0.45 0 3.16 3.16 0 0 1 0.57 0.16 6.14 6.14 0 0 1 1.39 0.66 4 4 0 0 1 1.05 1 15 15 0 0 1 1.4 2.32 11.41 11.41 0 0 1 0.92 2.5 13.2 13.2 0 0 1 0.3 2.08c0.07 1.07 0.06 2.16 0.09 3.23a0.31 0.31 0 0 0 0.3 0.31s0 0.06 0.05 0.08a0.32 0.32 0 0 0 0.44 -0.11A15.8 15.8 0 0 0 24 11a12 12 0 0 0 -2.19 -7.71ZM3.54 22.18l0 -0.05c0 -0.05 0.08 0 0.07 0s-0.01 0.07 -0.07 0.05Zm17.78 -4.67c0 -0.82 0.07 -1.65 0.06 -2.48a14.09 14.09 0 0 0 -0.19 -2.23 11 11 0 0 0 -0.88 -2.8 14 14 0 0 0 -1.5 -2.5 4.8 4.8 0 0 0 -1.38 -1.22 6.33 6.33 0 0 0 -1.65 -0.66 3.68 3.68 0 0 0 -0.91 -0.15 1.43 1.43 0 0 0 -0.71 0.16 1 1 0 0 0 -0.44 0.4 5 5 0 0 0 -0.27 1 4 4 0 0 1 -0.37 0.83s0.29 -0.34 -1.67 2c-1.11 1.34 -2.29 2.62 -3.35 4 -0.24 0.32 -0.48 0.65 -0.71 1 -0.91 1.3 -1.72 2.67 -2.67 3.94a12.54 12.54 0 0 0 -0.83 1.2 3 3 0 0 0 -0.37 1 2.73 2.73 0 0 0 0 0.67c0 0.17 -0.11 0.41 0 0.5a7.41 7.41 0 0 1 -0.81 -0.67 8.54 8.54 0 0 1 -1.28 -1 1 1 0 0 1 -0.34 -0.64 0.55 0.55 0 0 1 0.11 -0.28 4.24 4.24 0 0 1 0.28 -0.46c0.29 -0.45 0.61 -0.88 0.94 -1.31 0.8 -1 1.67 -2 2.46 -3l2.25 -3.08c1.14 -1.52 2.11 -3.16 3.28 -4.66 0.41 -0.53 2.23 -1.91 1.08 -4 -0.16 -0.3 -0.65 -0.56 -1 -0.84 -0.06 -0.05 -0.12 -0.11 0 -0.19a2.15 2.15 0 0 1 1 -0.6 10 10 0 0 1 1.9 -0.44 9.59 9.59 0 0 1 4.25 0.42 6.91 6.91 0 0 1 3.4 2.5A11.06 11.06 0 0 1 23.09 11a14.86 14.86 0 0 1 -1.77 6.51Z" fill="#020202" fill-rule="evenodd" stroke-width="1"></path>
    <path d="m2.1 24 0 -0.06c0 -0.01 0.07 0 0.07 0s-0.01 0.06 -0.07 0.06Z" fill="#020202" fill-rule="evenodd" stroke-width="1"></path>
    <path d="M16.19 3.32a6.44 6.44 0 0 1 3.36 2.17 12.94 12.94 0 0 1 2.36 4.24c0.17 0.21 0.31 0.25 0.38 0a10.82 10.82 0 0 0 -1.89 -4.59 7.73 7.73 0 0 0 -3.87 -2.8c-3.14 -1 -3.11 0.21 -2.55 0.41a8.76 8.76 0 0 1 2.21 0.57Z" fill="#4C57E6" fill-rule="evenodd" stroke-width="1"></path>
  </g>
</svg>