<svg xmlns="http://www.w3.org/2000/svg" viewBox="0 0 24 24" id="Antique-Hammer-1--Streamline-Freehand">
  <desc>
    Antique Hammer 1 Streamline Icon: https://streamlinehq.com
  </desc>
  <title>antique-hammer-1</title>
  <g>
    <path d="M20 5.33c-0.25 -0.08 -0.09 0 -0.21 -0.14a2.15 2.15 0 0 0 -0.35 -0.46 0.77 0.77 0 0 0 -0.21 -0.14 0.51 0.51 0 0 0 -0.23 -0.07 1.2 1.2 0 0 0 -0.63 0.11c-0.23 0 -0.25 -0.12 -0.41 0a4.59 4.59 0 0 0 -1.2 0.39l-2.45 -1.44c-0.26 -0.13 -0.51 -0.29 -0.77 -0.41a8.58 8.58 0 0 0 -0.82 -0.37A7.71 7.71 0 0 0 11 2.32 2.83 2.83 0 0 0 11 2a1.81 1.81 0 0 0 0 -0.23 1 1 0 0 0 -0.09 -0.21 4.83 4.83 0 0 0 -0.34 -0.45 0.28 0.28 0 1 0 -0.55 0.1 2.59 2.59 0 0 0 -0.1 0.61 1 1 0 0 0 0 0.24 1.07 1.07 0 0 0 0.1 0.22c0.09 0.16 0.19 0.28 0.29 0.43 -0.32 0.51 -0.66 1 -1 1.54A7.79 7.79 0 0 0 9 5c-0.11 0.25 -0.2 0.5 -0.29 0.75 -0.19 0.56 -0.33 1.12 -0.48 1.69l-0.07 0 -0.51 0 -0.22 0a0.83 0.83 0 0 0 -0.22 0.08 2.5 2.5 0 0 0 -0.46 0.39c-0.17 -0.13 -0.29 -0.26 -0.46 -0.39l-0.2 -0.13 -0.23 -0.09a2.13 2.13 0 0 0 -0.42 -0.06c0.15 -0.41 0.32 -0.81 0.5 -1.22 0.28 -0.62 0.61 -1.21 0.91 -1.83s0.58 -1.25 0.87 -1.88l0.48 -1.18c0.2 -0.39 0.25 -0.37 0.41 -0.31a3.69 3.69 0 0 0 1 0.37A0.32 0.32 0 0 0 10 0.9a0.32 0.32 0 0 0 -0.31 -0.34c-0.36 -0.05 -0.69 -0.4 -1 -0.51a1 1 0 0 0 -0.76 0.05 0.55 0.55 0 0 0 -0.21 0.17 2.52 2.52 0 0 0 -0.27 0.39l-0.67 1.22c-0.21 0.44 -0.44 0.88 -0.65 1.33s-0.4 0.91 -0.57 1.38a15.73 15.73 0 0 0 -0.81 2.91c-0.06 0.22 0 0.15 0.63 0.7a1.14 1.14 0 0 0 0.23 0.15 0.79 0.79 0 0 0 0.26 0.08 3.5 3.5 0 0 0 0.65 0.07 6 6 0 0 0 1 0 0.82 0.82 0 0 0 0.22 0 0.88 0.88 0 0 0 0.2 -0.09A3.14 3.14 0 0 0 8.4 8s0 0 0.08 -0.07c0.88 0.42 1.1 0.74 2 1.27 3.87 1.69 3.46 1.54 3.36 1.48a1.86 1.86 0 0 0 0 0.26 0.91 0.91 0 0 0 0 0.23 2 2 0 0 0 0.1 0.21c0.11 0.16 0.22 0.27 0.34 0.42a0.32 0.32 0 0 0 0.34 0.19l-0.05 0.05a0.29 0.29 0 0 0 0.16 0.36c0.3 0.14 0.61 0.3 0.93 0.44a4.71 4.71 0 0 0 0.7 0.22 0.4 0.4 0 0 0 0.29 -0.06 1.66 1.66 0 0 0 0.38 -0.36 6.4 6.4 0 0 0 0.41 -0.5c0.19 -0.26 0.36 -0.53 0.52 -0.8a12.36 12.36 0 0 0 0.6 -1.21c0.25 -0.6 0.45 -1.22 0.68 -1.83l0.9 -2.59a0.34 0.34 0 0 0 -0.14 -0.38Zm-5.57 3.13c-0.18 0.49 -0.34 1 -0.51 1.48 -0.7 -0.37 -1.33 -0.84 -2 -1.23a10.4 10.4 0 0 0 -1 -0.46c-0.4 -0.13 -0.92 -0.25 -1.32 -0.43a2.53 2.53 0 0 1 -0.6 -0.35l0.69 -1.33c0.12 -0.23 0.23 -0.47 0.34 -0.71a6.52 6.52 0 0 0 0.29 -0.73c0.21 -0.59 0.37 -1.18 0.56 -1.77a6.28 6.28 0 0 1 0.83 0.39c0.35 0.19 0.67 0.43 1 0.64s0.71 0.41 1.08 0.61l2.26 0.87c-0.31 0.49 -0.62 1 -0.91 1.49 -0.14 0.26 -0.27 0.51 -0.39 0.77s-0.21 0.49 -0.32 0.76Zm4.71 -2c-0.23 0.5 -0.49 1 -0.72 1.46l-1.33 2.91 -0.69 1.28a0.76 0.76 0 0 0 -0.13 0.13 2.41 2.41 0 0 1 -0.35 -0.07c-0.32 -0.08 -0.64 -0.2 -0.94 -0.3l-0.13 0a0.28 0.28 0 0 0 0.07 -0.29 4.33 4.33 0 0 0 0 -0.72 0.75 0.75 0 0 0 -0.08 -0.18 4.24 4.24 0 0 0 -0.31 -0.4s0 0 0 -0.05c0.35 -0.54 0.7 -1.07 1 -1.64 0.21 -0.41 0.39 -0.83 0.56 -1.25 0.24 -0.61 0.44 -1.22 0.69 -1.83a0.26 0.26 0 0 0 0.15 0c0.18 0 0.29 0.08 0.46 0.08a0.58 0.58 0 0 0 0.19 0 0.46 0.46 0 0 0 0.19 -0.08 2 2 0 0 0 0.43 -0.34 0.22 0.22 0 0 0 0.11 0.05c0.14 0.07 0.18 0.2 0.31 0.3a0.47 0.47 0 0 0 0.14 0.08c0.21 0.07 0.41 0 0.61 0.12l0.11 0c-0.1 0.28 -0.21 0.53 -0.34 0.78Z" fill="#020202" fill-rule="evenodd" stroke-width="1"></path>
    <path d="M11.85 10.38c-0.11 0.15 -0.37 0.52 -0.49 0.51a1.2 1.2 0 0 1 -0.43 -0.18l-0.6 -0.26c-1.05 -0.3 -0.71 -0.66 -0.55 -1.18l0 -0.24A0.38 0.38 0 0 0 9.17 9a2.27 2.27 0 0 0 -0.17 0.27 4.08 4.08 0 0 0 -0.35 1.26 0.79 0.79 0 0 0 0.25 0.39c-0.41 0.77 -0.39 0.76 -0.53 1.06 -0.4 0.84 -0.42 1 -0.81 1.83l-3 6.45 -0.26 0.6A3.91 3.91 0 0 0 3.85 23a1.29 1.29 0 0 0 0.8 0.92A1.69 1.69 0 0 0 5 24a1.48 1.48 0 0 0 0.36 0 1.65 1.65 0 0 0 1.14 -0.61 5.84 5.84 0 0 0 0.68 -1.31l0.72 -1.43c0.66 -1.6 1.31 -3.21 1.93 -4.82s0.89 -2.51 1.45 -4l0.08 0c0.62 0 1 -0.68 1.19 -1.06s-0.41 -0.97 -0.7 -0.39ZM6.22 21.63a4.92 4.92 0 0 1 -0.55 1.07 0.61 0.61 0 0 1 -0.41 0.23l-0.17 0c-0.23 -0.1 -0.24 -0.3 -0.21 -0.51a6.22 6.22 0 0 1 0.39 -1.13l0.1 -0.25s0 0.05 0.06 0.08a0.84 0.84 0 0 0 0.23 0.18 0.81 0.81 0 0 0 0.27 0.11 1.78 1.78 0 0 0 0.39 0.07Zm2.84 -6.11Q8 17.89 7 20.25l-0.27 0.5c-0.16 -0.12 -0.3 -0.28 -0.47 -0.41a0.72 0.72 0 0 0 -0.2 -0.09 1.34 1.34 0 0 0 -0.31 -0.09l2.48 -6.05c0.34 -0.84 0.62 -1.75 1 -2.6 0.12 -0.28 0 0 0.15 -0.27 0.23 0.1 0.49 0.16 0.66 0.23s0.43 0.13 0.64 0.19c-0.68 1.47 -1 2.4 -1.62 3.86Z" fill="#4C57E6" fill-rule="evenodd" stroke-width="1"></path>
  </g>
</svg>