<svg xmlns="http://www.w3.org/2000/svg" viewBox="0 0 24 24" id="Antique-Nunchucks--Streamline-Freehand">
  <desc>
    Antique Nunchucks Streamline Icon: https://streamlinehq.com
  </desc>
  <title>antique-nunchucks</title>
  <g>
    <path d="M17.84 16.7c0.32 -0.11 0.63 -0.22 0.94 -0.35a4.75 4.75 0 0 0 1 -0.57c0.34 -0.31 0.11 -0.74 -0.33 -0.7s-0.49 0.13 -0.89 0.24a6.8 6.8 0 0 0 -1 0.34 4.41 4.41 0 0 0 -1.05 0.71c-0.16 0.32 0 0.53 0.3 0.65 0.36 -0.12 0.69 -0.21 1.03 -0.32Z" fill="#4C57E6" fill-rule="evenodd" stroke-width="1"></path>
    <path d="M23.6 20a18.81 18.81 0 0 0 -1.72 -3.19l-1.8 -3.24a5.34 5.34 0 0 0 -0.6 -0.94 1 1 0 0 0 -0.6 -0.36 2.09 2.09 0 0 0 -0.79 0.06l-0.17 0.06a2.67 2.67 0 0 0 0.48 -2.57 1.28 1.28 0 0 0 -0.51 -0.59l-0.14 -0.08a2.16 2.16 0 0 0 2.45 -0.65c1 -1.17 0.75 -3.34 -1.69 -3l-0.1 0a3.64 3.64 0 0 0 0.34 -0.34 2.68 2.68 0 0 0 0.6 -1.65 1.77 1.77 0 0 0 -0.69 -1.34c-0.72 -0.56 -1.27 -0.57 -2.48 -0.16a1.9 1.9 0 0 0 -0.75 0.46 2.14 2.14 0 0 0 -0.16 -1.3 1.87 1.87 0 0 0 -1 -0.85 2.15 2.15 0 0 0 -3.18 1.78 2.36 2.36 0 0 0 0 0.46c-1 -1.66 -3 -0.79 -3.24 0.89a1.7 1.7 0 0 0 0.63 1.48C6.5 5 6.77 7.11 6.88 7.45a1.48 1.48 0 0 0 0.31 0.55L6 7.35a0.32 0.32 0 0 0 -0.44 0.11s0 0 0 0.06a0.29 0.29 0 0 0 -0.39 0.1l-2.81 4.57c-0.3 0.51 -0.6 1 -0.89 1.53 -0.2 0.35 -0.39 0.7 -0.56 1.07a9.33 9.33 0 0 0 -0.65 1.44 1.77 1.77 0 0 0 -0.07 0.87 4.16 4.16 0 0 0 2 2.12 2.26 2.26 0 0 0 2.1 0.23 3.59 3.59 0 0 0 1.19 -1.17 24.74 24.74 0 0 0 1.44 -3.09l1 -2.32a8.91 8.91 0 0 0 0.94 -2.65 1.72 1.72 0 0 0 -0.42 -1.38 3.24 3.24 0 0 0 -0.34 -0.29 2 2 0 0 0 0.73 0 1.75 1.75 0 0 0 1.47 -2.1 2 2 0 0 0 -0.65 -1.12 1.63 1.63 0 0 0 0.53 -0.08 1.74 1.74 0 0 0 1.2 -1.77 2.2 2.2 0 0 0 2.09 1 2.08 2.08 0 0 0 1.41 -0.75 2.17 2.17 0 0 0 0.19 1 2.23 2.23 0 0 0 2 1.23l0.13 0 -0.08 0a1.82 1.82 0 0 0 -0.65 1.39c0 0.85 0.21 1.1 0.54 1.34a1.92 1.92 0 0 0 -2.48 1.45A2.2 2.2 0 0 0 15.84 13a1.56 1.56 0 0 0 0.45 0.09l-0.31 0.14c-0.33 0.16 -0.65 0.33 -1 0.51a0.31 0.31 0 1 0 0.28 0.56l1 -0.46a6.26 6.26 0 0 1 0.65 -0.25c0.38 -0.13 0.78 -0.35 1.18 -0.48a1.32 1.32 0 0 1 0.65 -0.07c0.12 0 0.18 0.17 0.27 0.3s0.25 0.49 0.33 0.63L21 17.29a26.15 26.15 0 0 1 1.4 2.61 2.76 2.76 0 0 1 0.31 1.62c0 0.16 -0.26 0.23 -0.46 0.33s-0.71 0.3 -0.93 0.39l-1.1 0.5c-0.53 0.25 -0.86 0.31 -1.1 0.13 -0.47 -0.34 -0.61 -1.18 -1 -2l-0.7 -1.87c-0.08 -0.2 -1.25 -3 -1.6 -4a0.27 0.27 0 0 0 -0.34 -0.19 0.26 0.26 0 0 0 -0.19 0.34c0.15 0.57 0.34 1.13 0.53 1.69 0.29 0.83 0.6 1.64 0.89 2.46l0.66 1.88a6.28 6.28 0 0 0 1.17 2.49 2 2 0 0 0 2.11 0l1.12 -0.48a7.55 7.55 0 0 0 1.41 -0.66 1.43 1.43 0 0 0 0.6 -0.8A3.26 3.26 0 0 0 23.6 20ZM8 10.47c-0.12 0.46 0.06 -0.05 -0.9 2L6 14.75c-0.37 0.71 -0.73 1.72 -1.22 2.57a3 3 0 0 1 -1.07 1.19 0.63 0.63 0 0 1 -0.43 0 2.91 2.91 0 0 1 -0.94 -0.43c-0.55 -0.37 -1.06 -0.84 -1.13 -1.19a1.22 1.22 0 0 1 0.07 -0.58c0.14 -0.42 0.36 -0.84 0.49 -1.14l1.3 -2.6C3.69 11.4 4.93 9 5.56 7.85a0.34 0.34 0 0 0 0.09 0.08l1.21 0.74c0.21 0.14 0.44 0.27 0.65 0.42a2.22 2.22 0 0 1 0.33 0.28 1.2 1.2 0 0 1 0.16 1.1Zm0.66 -3a0.77 0.77 0 0 1 -1 -0.7C7.38 5 9.28 5.31 9.4 6.59a0.81 0.81 0 0 1 -0.77 0.93Zm1.16 -3.24a0.8 0.8 0 0 1 -0.74 -0.08 0.85 0.85 0 0 1 -0.44 -0.66c-0.05 -1.38 1.33 -1.37 1.69 -0.4a0.81 0.81 0 0 1 -0.51 1.14Zm4.49 -1.47a1.11 1.11 0 0 1 -0.91 0.65A1.2 1.2 0 0 1 12 2.15c0 -1 0.39 -0.89 1.26 -1.26A1.07 1.07 0 0 1 14 1a1 1 0 0 1 0.5 0.51 1.49 1.49 0 0 1 -0.19 1.25Zm4.34 3.41c1.77 -0.46 1.43 1.17 0.88 1.71a1.23 1.23 0 0 1 -1.66 0.12 0.82 0.82 0 0 1 -0.32 -0.6 1 1 0 0 1 0.24 -0.73 1.73 1.73 0 0 1 0.86 -0.5ZM17.1 4.93a1.23 1.23 0 0 1 -1.1 -0.62A1.21 1.21 0 0 1 16 3c0.62 -0.87 2.55 -0.78 2.46 0.52a1.76 1.76 0 0 1 -0.49 1 1.23 1.23 0 0 1 -0.87 0.41Zm0.22 6.63a0.94 0.94 0 0 1 -1.11 0.43 1.26 1.26 0 0 1 -0.77 -1.55c0 -0.18 0.34 -1.74 2 -0.7a0.67 0.67 0 0 1 0.28 0.34 1.78 1.78 0 0 1 -0.4 1.48Z" fill="#020202" fill-rule="evenodd" stroke-width="1"></path>
    <path d="M6.25 10.38a2.82 2.82 0 0 0 -0.39 -0.29c-0.32 -0.2 -0.59 -0.23 -0.92 -0.44s-0.39 0.23 -0.29 0.44a5.39 5.39 0 0 0 0.56 0.79 3 3 0 0 0 0.38 0.34 3.07 3.07 0 0 0 0.41 0.28c0.34 0.2 0.68 0.35 1 0.52a0.65 0.65 0 0 0 0.31 -0.59l-0.74 -0.74a3.57 3.57 0 0 0 -0.32 -0.31Z" fill="#4C57E6" fill-rule="evenodd" stroke-width="1"></path>
  </g>
</svg>