<svg xmlns="http://www.w3.org/2000/svg" viewBox="0 0 24 24" id="Antique-Catapult--Streamline-Freehand">
  <desc>
    Antique Catapult Streamline Icon: https://streamlinehq.com
  </desc>
  <title>antique-catapult</title>
  <g>
    <path d="M22.21 18.15c0 -0.27 0.05 -0.61 0 -0.92a1.78 1.78 0 0 0 -0.09 -0.48 0.49 0.49 0 0 0 -0.48 -0.28l-0.52 0c-0.41 -0.78 -0.83 -1.54 -1.29 -2.29 -0.2 -0.33 -0.42 -0.65 -0.62 -1s-0.64 -0.92 -1 -1.36a9.37 9.37 0 0 0 -1.17 -1.27c0 -0.56 0 -1.16 -0.07 -1.75a3.36 3.36 0 0 0 -0.37 -1.25 0.4 0.4 0 0 0 -0.35 -0.24l-0.46 0 -1.56 0.07a0.28 0.28 0 0 0 -0.26 0.29c0 0.11 -0.06 1.05 -0.12 1.48s-0.09 1 -0.11 1.45a0.26 0.26 0 0 0 -0.14 0.09A26.18 26.18 0 0 0 12 12.9c-0.17 0.26 -0.32 0.53 -0.47 0.8a7.24 7.24 0 0 0 -1.07 -1.34 8.58 8.58 0 0 0 -1.06 -0.85c-0.46 -0.32 -0.93 -0.58 -1.37 -0.85 0.16 -0.11 0.34 -0.21 0.49 -0.33a2.78 2.78 0 0 0 0.41 -0.43c0.23 -0.26 -0.39 -0.9 -0.4 -0.91 -0.42 -0.39 -0.79 -0.81 -1.19 -1.21s-0.58 -0.53 -0.87 -0.78c-0.5 -0.41 -1 -0.75 -1.56 -1.13a0.68 0.68 0 0 0 -0.65 0 3.86 3.86 0 0 0 -0.7 4 2.58 2.58 0 0 0 2.58 1.43 2.63 2.63 0 0 0 0.71 -0.15 3.25 3.25 0 0 0 0.54 -0.15 20.61 20.61 0 0 0 1.49 1.46c0.32 0.29 0.67 0.55 1 0.82a11.44 11.44 0 0 1 1.2 1.09c-0.37 0.68 -0.7 1.37 -1.07 2a0.3 0.3 0 0 0 0 0.35L7.39 17c-1.16 0.11 -2.38 0 -3.56 0.1 -2.17 0.12 -1.93 0.43 -1.92 0.47 -0.06 0.68 -0.19 1.35 -0.21 2A8.18 8.18 0 0 0 1.81 21a0.51 0.51 0 0 0 0.45 0.45l0.54 0 1.09 -0.11a2.3 2.3 0 0 0 0 0.45 2.12 2.12 0 0 0 0.44 0.84 4.21 4.21 0 0 0 1 0.78 3.84 3.84 0 0 0 0.53 0.28 1.74 1.74 0 0 0 0.5 0.12 2.21 2.21 0 0 0 2 -1 3.44 3.44 0 0 0 0.48 -1.31c0.51 0.05 1 0.17 1.5 0.23a10.49 10.49 0 0 0 1.12 0.05c0.42 0 0.85 -0.14 1.29 -0.18a2 2 0 0 1 0.49 0 0.41 0.41 0 0 0 0.22 0 2.85 2.85 0 0 0 0.87 1.62 2.91 2.91 0 0 0 2.21 0.8 3.07 3.07 0 0 0 2.25 -1.73 3.37 3.37 0 0 0 0.31 -1 4.86 4.86 0 0 0 0.55 0.11l0.4 0a2.83 2.83 0 0 0 0.41 0 8.35 8.35 0 0 0 1 -0.2 0.32 0.32 0 0 0 0 -0.64c-0.32 0 -0.62 -0.14 -0.95 -0.18a3.64 3.64 0 0 0 -0.66 0 3.84 3.84 0 0 0 -0.67 0.16 2.22 2.22 0 0 0 -0.43 -1 2.61 2.61 0 0 0 -1.29 -0.82 2.77 2.77 0 0 0 -3 0.59 2.67 2.67 0 0 0 -1 1.79l-0.05 -0.1a4.11 4.11 0 0 0 -0.61 -0.12c-0.43 -0.06 -0.87 -0.06 -1.29 -0.11s-0.72 0 -1.08 0a10.89 10.89 0 0 0 -1.52 0.19 2.63 2.63 0 0 0 -0.23 -1.13c-1 -2.11 -3.35 -1.06 -3.95 -0.51a2.61 2.61 0 0 0 -0.79 1.43l-1.07 -0.11h-0.08l0 -1c0 -0.59 -0.14 -1.17 -0.24 -1.75a9.8 9.8 0 0 1 1.33 -0.09c1.21 0 2.43 0.15 3.6 0.12l3.42 -0.13 3.39 -0.18c1 0 1.93 -0.08 2.9 -0.08l2.19 0 1.48 -0.06a5.93 5.93 0 0 0 0.65 0l0 0.77 0.19 2.24a0.32 0.32 0 0 0 0.34 0.3 0.33 0.33 0 0 0 0.29 -0.34ZM6.74 10.34a2.11 2.11 0 0 1 -0.62 0.07 2 2 0 0 1 -1 -0.26A1.81 1.81 0 0 1 4.31 9a3.35 3.35 0 0 1 0.32 -2.59c0.32 0.4 0.61 0.81 1 1.19a6.14 6.14 0 0 0 0.51 0.51c0.19 0.16 0.38 0.32 0.57 0.46a12.78 12.78 0 0 0 1.45 0.93 0.24 0.24 0 0 0 0.2 0.05 2.41 2.41 0 0 1 -0.36 0.29c-0.17 0.1 -0.36 0.18 -0.55 0.27a5.75 5.75 0 0 1 -0.71 0.23Zm8.18 9.39a1.82 1.82 0 0 1 2.28 -0.43 1.83 1.83 0 0 1 0.86 0.63 1.74 1.74 0 0 1 -0.06 1.83 2 2 0 0 1 -1.47 1.13 2 2 0 0 1 -1.42 -0.5 1.9 1.9 0 0 1 -0.77 -1.39 1.86 1.86 0 0 1 0.58 -1.27Zm-9.63 0.06c0.42 -0.46 2.09 -1.27 2.69 0.27a2.36 2.36 0 0 1 -0.18 1.86 1.35 1.35 0 0 1 -1.32 0.84 0.88 0.88 0 0 1 -0.23 -0.07 2.57 2.57 0 0 1 -0.33 -0.18 3 3 0 0 1 -0.64 -0.46 1.24 1.24 0 0 1 -0.37 -0.53 1.73 1.73 0 0 1 0.38 -1.73Zm5.29 -3.08c0.47 -0.61 0.94 -1.21 1.37 -1.84 0.2 -0.27 0.38 -0.56 0.56 -0.84a9.34 9.34 0 0 0 0.5 -0.87c0.26 -0.46 0.49 -0.94 0.74 -1.41l0 1.1c0.06 1.16 0.18 2.32 0.24 3.47a0.26 0.26 0 0 0 0.07 0.17l-0.85 0c-0.86 0.08 -1.75 0.15 -2.63 0.22Zm4 -0.23a0.41 0.41 0 0 0 0.07 -0.15c0.07 -1 0.14 -2 0.16 -3l0 -2c0 -0.67 -0.13 -1.36 -0.14 -2.05a8.24 8.24 0 0 1 0.08 -1.22l1.07 0.09 0.14 0a2.43 2.43 0 0 1 0.08 0.54c0.06 0.66 0 1.35 0 2 0.06 0.94 0.07 1.89 0.11 2.84s0.13 1.91 0.27 2.87c0 0 0 0.06 0.05 0.1 -0.65 -0.05 -1.27 -0.04 -1.89 -0.02Zm2.58 0H17a0.43 0.43 0 0 0 0 -0.18l0 -1.13c0 -0.91 0.07 -1.81 0.09 -2.72l0 -0.85 0.13 0.2c0.28 0.46 0.5 0.94 0.76 1.42 0.12 0.2 0.25 0.4 0.37 0.61s0.43 0.65 0.66 1c0.44 0.59 0.91 1.16 1.35 1.74l-0.65 0c-0.86 -0.04 -1.71 -0.09 -2.55 -0.11Z" fill="#020202" fill-rule="evenodd" stroke-width="1"></path>
    <path d="M15.76 5.06a2.45 2.45 0 0 0 2.76 -2.38c0.21 -2.86 -3.24 -3.19 -4.4 -2a2.88 2.88 0 0 0 -0.76 2.06 2.41 2.41 0 0 0 0.83 1.58 3 3 0 0 0 1.57 0.74Zm-1.07 -3.89a1.73 1.73 0 0 1 2.93 1.42A1.5 1.5 0 0 1 15.91 4a2.1 2.1 0 0 1 -1 -0.47 1.46 1.46 0 0 1 -0.58 -0.89 1.94 1.94 0 0 1 0.36 -1.47Z" fill="#020202" fill-rule="evenodd" stroke-width="1"></path>
    <path d="M8.51 4c0.38 -0.21 0.79 -0.41 1.19 -0.67 0.21 -0.13 0.42 -0.28 0.62 -0.42a3.78 3.78 0 0 1 0.92 -0.59 0.3 0.3 0 0 0 0.24 -0.32 0.29 0.29 0 0 0 -0.32 -0.24 3.13 3.13 0 0 0 -1.49 0.32 2.92 2.92 0 0 0 -0.7 0.51c-0.32 0.29 -0.58 0.62 -0.85 0.9a0.32 0.32 0 0 0 0.39 0.51Z" fill="#4C57E6" fill-rule="evenodd" stroke-width="1"></path>
    <path d="M9.62 5.28c0.23 -0.12 0.44 -0.21 0.66 -0.34a2.27 2.27 0 0 0 0.25 -0.18 1.34 1.34 0 0 0 0.21 -0.2c0.16 -0.19 0.26 -0.39 0.42 -0.59a0.29 0.29 0 0 0 0.09 -0.39 0.28 0.28 0 0 0 -0.39 -0.08 3.17 3.17 0 0 0 -0.75 0.26 1.67 1.67 0 0 0 -0.28 0.18 2.5 2.5 0 0 0 -0.22 0.24c-0.16 0.2 -0.27 0.41 -0.42 0.63a0.32 0.32 0 0 0 0.43 0.47Z" fill="#4C57E6" fill-rule="evenodd" stroke-width="1"></path>
    <path d="M11.21 5.24a3.34 3.34 0 0 0 -1 0.49 2.25 2.25 0 0 0 -0.41 0.46c-0.18 0.26 -0.3 0.52 -0.47 0.79a0.32 0.32 0 0 0 0 0.45 0.33 0.33 0 0 0 0.45 0c0.25 -0.18 0.49 -0.33 0.73 -0.52a3.07 3.07 0 0 0 0.26 -0.25 2 2 0 0 0 0.24 -0.26c0.17 -0.23 0.28 -0.47 0.47 -0.69a0.28 0.28 0 1 0 -0.31 -0.46Z" fill="#4C57E6" fill-rule="evenodd" stroke-width="1"></path>
  </g>
</svg>