<svg xmlns="http://www.w3.org/2000/svg" viewBox="0 0 24 24" id="App-Window-Bookmark--Streamline-Freehand">
  <desc>
    App Window Bookmark Streamline Icon: https://streamlinehq.com
  </desc>
  <g>
    <path d="M22 2.92a3.36 3.36 0 0 0 -0.72 -1.39C20.18 0.26 17.61 0 16.16 0.21a4.31 4.31 0 0 0 -3.32 2.2c-0.5 0.9 -0.35 7.52 -0.24 8.68 0 0.19 0.4 3.08 0.42 3.16a0.73 0.73 0 0 0 1 0.57 4.7 4.7 0 0 0 1.06 -1.17 30.06 30.06 0 0 0 1.27 -3.12c0.15 -0.35 -0.15 -0.77 0.54 0.56a8 8 0 0 0 1.39 2.46c0.54 0.37 1.06 0.09 1.33 -0.52 1 -2.88 -0.62 -7.27 -0.26 -9.59 0 -0.23 0.5 -0.14 0.58 -0.13a5.32 5.32 0 0 1 1.47 0.2c0.6 0.27 0.67 -0.26 0.6 -0.59Zm-2.44 -0.44a1 1 0 0 0 -0.76 0.52c-0.78 1.25 1 8.45 -0.13 9.77a6.94 6.94 0 0 1 -0.53 -1.41s-1.14 -2.55 -1.2 -2.6c-0.26 -0.43 -0.84 -0.48 -1.2 0.19A39.6 39.6 0 0 1 14 13.17c0 -0.26 -0.15 -0.54 -0.32 -2.19 -0.05 -0.47 -0.47 -7.37 -0.08 -8.15A3.51 3.51 0 0 1 16.28 1a7.25 7.25 0 0 1 4 0.55 2.67 2.67 0 0 1 0.94 1c0.37 0.65 -0.43 -0.23 -1.64 -0.07Z" fill="#4C57E6" fill-rule="evenodd" stroke-width="1"></path>
    <path d="M23.6 8.31c-0.13 -1.19 -0.15 -4.5 -1 -5.12 -0.26 -0.2 -0.42 0.6 -0.31 0.83s0.06 0.09 0.19 0.9 0.56 6.78 0.55 9.34c0 1 -0.29 6.33 -0.72 7.13 -2.62 1.47 -20.47 2 -20.93 0C0.86 19 0.47 6.32 1 3.34a0.3 0.3 0 0 0 -0.58 -0.11c-0.63 3 -0.54 15.85 0 18.42 0.11 0.53 0.71 1.05 1.75 1.39 4.53 1.49 20 0.83 21.08 -1.11 0.4 -0.72 0.39 -1.92 0.57 -3.69a50 50 0 0 0 -0.22 -9.93Z" fill="#020202" fill-rule="evenodd" stroke-width="1"></path>
    <path d="M2.23 3.08c1 0 4 0.14 6 0.08 1.28 0 2.64 -0.17 4 -0.23a0.3 0.3 0 0 0 0 -0.6 38.62 38.62 0 0 0 -10 0.08 0.34 0.34 0 0 0 0 0.67Z" fill="#020202" fill-rule="evenodd" stroke-width="1"></path>
    <path d="M3.43 5.66a0.84 0.84 0 0 0 1.23 0 0.8 0.8 0 0 0 -0.21 -1c-0.76 -0.47 -1.7 0.34 -1.02 1Z" fill="#020202" fill-rule="evenodd" stroke-width="1"></path>
    <path d="M6.06 5.38a0.82 0.82 0 0 0 1.22 0 0.81 0.81 0 0 0 -0.2 -1c-0.77 -0.47 -1.7 0.31 -1.02 1Z" fill="#020202" fill-rule="evenodd" stroke-width="1"></path>
    <path d="M8.92 5.38a0.84 0.84 0 0 0 1.23 0 0.81 0.81 0 0 0 -0.21 -1c-0.76 -0.47 -1.7 0.31 -1.02 1Z" fill="#020202" fill-rule="evenodd" stroke-width="1"></path>
    <path d="M1.21 7.85a44.78 44.78 0 0 0 9 0 0.34 0.34 0 0 0 0 -0.68 37 37 0 0 0 -9 0.06 0.3 0.3 0 0 0 0 0.62Z" fill="#020202" fill-rule="evenodd" stroke-width="1"></path>
  </g>
</svg>