<svg xmlns="http://www.w3.org/2000/svg" viewBox="0 0 24 24" id="App-Window-Search-Text--Streamline-Freehand">
  <desc>
    App Window Search Text Streamline Icon: https://streamlinehq.com
  </desc>
  <g>
    <path d="M1.35 1.14A0.3 0.3 0 0 0 0.77 1C0 4.22 0.09 14.57 0.75 17.3 1.18 19 6.19 19.05 8 19.06a0.34 0.34 0 0 0 0 -0.67c-1.45 -0.07 -4.7 -0.29 -6 -1 -0.38 -0.21 -0.44 0.19 -0.67 -5.83 -0.09 -2.35 -0.17 -4.07 -0.19 -6.18 0.05 -0.19 0.08 -3.52 0.21 -4.24Z" fill="#020202" fill-rule="evenodd" stroke-width="1"></path>
    <path d="M19.29 4.47c-4.77 0 -7.25 -0.54 -17.22 0a0.29 0.29 0 0 0 -0.25 0.24v0.11a0.28 0.28 0 0 0 0.29 0.23c3.25 -0.06 4.07 0.56 17.19 0a0.33 0.33 0 1 0 -0.01 -0.58Z" fill="#4C57E6" fill-rule="evenodd" stroke-width="1"></path>
    <path d="M2.41 0.94c2.82 -0.15 17.13 0.22 17.69 0.69 0.36 0.3 0.54 3.17 0.64 4 0.18 1.54 0.32 2.87 0.4 4.43a0.3 0.3 0 0 0 0.59 0c0 -1.42 -0.09 -3.09 -0.19 -4.49s0 -4 -0.75 -4.68C19.36 -0.46 4.62 0.07 2.36 0.27a0.34 0.34 0 0 0 0.05 0.67Z" fill="#020202" fill-rule="evenodd" stroke-width="1"></path>
    <path d="M3.48 3.18a0.76 0.76 0 0 0 1.09 0 0.7 0.7 0 0 0 -0.18 -0.91c-0.68 -0.39 -1.52 0.3 -0.91 0.91Z" fill="#020202" fill-rule="evenodd" stroke-width="1"></path>
    <path d="M5.82 2.94a0.76 0.76 0 0 0 1.1 0A0.71 0.71 0 0 0 6.74 2c-0.69 -0.37 -1.53 0.32 -0.92 0.94Z" fill="#020202" fill-rule="evenodd" stroke-width="1"></path>
    <path d="M8.38 2.94a0.76 0.76 0 0 0 1.1 0A0.7 0.7 0 0 0 9.3 2c-0.69 -0.37 -1.53 0.32 -0.92 0.94Z" fill="#020202" fill-rule="evenodd" stroke-width="1"></path>
    <path d="M23.62 21.9A28.54 28.54 0 0 0 21 18c3.15 -5 -3.46 -10.15 -8.42 -6.34a5.19 5.19 0 0 0 -1.47 6.73c1.5 2.43 4.44 3 4.39 2.17a0.29 0.29 0 0 0 -0.31 -0.27c-1.4 0.07 -2.79 -1.22 -3.39 -2.3a4.3 4.3 0 0 1 1.44 -5.45c2.88 -2.12 6.78 -0.83 7.52 2 0.65 2.47 -1.45 4.88 -3.59 5.63a0.33 0.33 0 0 0 0.21 0.63 5.9 5.9 0 0 0 1.22 -0.55c0.37 0.52 1.32 1.82 1.41 2 2.06 2.95 4.35 1.75 3.61 -0.35Zm-1 1c-0.74 0.38 -2.86 -2.2 -3.53 -2.95a6.71 6.71 0 0 0 1.43 -1.33c0.31 0.44 2.62 3.98 2.12 4.24Z" fill="#020202" fill-rule="evenodd" stroke-width="1"></path>
    <path d="M12.11 8.31c0.92 -0.13 2 0.66 3.28 0.28a5.19 5.19 0 0 1 2.12 -0.23c-0.08 0 0.91 0 0.86 -0.33s-1.08 -0.29 -1.48 -0.39a2.91 2.91 0 0 0 -0.72 0c-1.13 0 -1 0.37 -2.3 -0.07 -2.48 -0.83 -2.4 0.07 -3.23 0.23s-2.11 -0.91 -3.05 -0.4c-0.52 0.28 -0.92 1 -0.42 1.12s0.21 -0.31 0.7 -0.51 2 1.27 3.33 0.75a3.7 3.7 0 0 1 0.91 -0.45Z" fill="#020202" fill-rule="evenodd" stroke-width="1"></path>
    <path d="M10.06 11.34C8 11.62 7 10.79 5.26 11c0.18 0 -2.11 -0.06 -2.43 0.62a0.3 0.3 0 0 0 0.22 0.45c0.24 0 -0.19 -0.17 4.37 0.18l0.6 0a4.91 4.91 0 0 0 2 -0.27 0.34 0.34 0 0 0 0.04 -0.64Z" fill="#020202" fill-rule="evenodd" stroke-width="1"></path>
    <path d="M7 15.47a0.33 0.33 0 0 0 0 -0.66 12.63 12.63 0 0 0 -3.75 0.37c-0.2 0.19 -0.18 0.34 0 0.44s0.07 0.09 0.16 0.09A9 9 0 0 0 7 15.47Z" fill="#020202" fill-rule="evenodd" stroke-width="1"></path>
  </g>
</svg>