<svg xmlns="http://www.w3.org/2000/svg" viewBox="0 0 24 24" id="App-Window-Mail--Streamline-Freehand">
  <desc>
    App Window Mail Streamline Icon: https://streamlinehq.com
  </desc>
  <g>
    <path d="M23.62 7.29c-0.13 -1.27 -0.17 -4.48 -1 -5.19C21.23 0.86 4.29 1.24 2.15 1.41a0.35 0.35 0 0 0 -0.31 0.36c0.06 0.7 0.52 -0.08 12.46 0.33 0.67 0 7.22 0.27 7.71 0.72s0.51 3.67 0.59 4.57a50.71 50.71 0 0 1 0.1 9.7 16.66 16.66 0 0 1 -0.45 3.23c-2.6 1.49 -20.43 2.1 -20.89 0.07C0.79 17.93 0.43 5.31 1 2.34a0.3 0.3 0 0 0 -0.58 -0.11c-0.62 3 -0.49 15.83 0.05 18.36 0.7 3.32 17.69 2.12 21.22 1.16 1.48 -0.4 1.7 -0.82 1.88 -2.06a47.24 47.24 0 0 0 0.05 -12.4Z" fill="#020202" fill-rule="evenodd" stroke-width="1"></path>
    <path d="M4.62 4.61a0.8 0.8 0 0 0 -0.2 -1c-0.76 -0.4 -1.7 0.38 -1 1.07a0.83 0.83 0 0 0 1.2 -0.07Z" fill="#020202" fill-rule="evenodd" stroke-width="1"></path>
    <path d="M7.24 4.33a0.81 0.81 0 0 0 -0.2 -1c-0.77 -0.4 -1.7 0.38 -1 1.07a0.83 0.83 0 0 0 1.2 -0.07Z" fill="#020202" fill-rule="evenodd" stroke-width="1"></path>
    <path d="M10.1 4.33a0.8 0.8 0 0 0 -0.21 -1c-0.76 -0.4 -1.69 0.38 -1 1.07a0.84 0.84 0 0 0 1.21 -0.07Z" fill="#020202" fill-rule="evenodd" stroke-width="1"></path>
    <path d="M1.19 6.84c1.08 0 3.61 0.13 6.7 0.21 5.3 0.15 9.33 -0.12 12.48 -0.19a0.34 0.34 0 0 0 0 -0.67c-7.8 -0.19 -12.73 -0.43 -19.21 0.06a0.3 0.3 0 0 0 0.03 0.59Z" fill="#4C57E6" fill-rule="evenodd" stroke-width="1"></path>
    <path d="M6.21 11.22c0 -0.78 0.17 -1.09 -0.21 -1.09s-0.41 0.29 -0.42 1.09c-0.2 3.14 -0.67 6.66 -0.12 7.33 0.87 1.08 10.09 0.43 12.06 -0.06 0.82 -0.2 1 -0.45 1.07 -1a30.23 30.23 0 0 0 -0.43 -7.59c-0.61 -1 -4 -0.45 -10.43 -0.26a0.34 0.34 0 0 0 0 0.68c3.83 0 8 -0.31 9.47 0.1a2.71 2.71 0 0 1 -0.24 0.25c-5.44 4.38 -4.29 3.22 -4.69 3.53a29.6 29.6 0 0 1 -4.48 -2.57s-0.26 -0.31 -0.37 -0.32a0.38 0.38 0 0 0 -0.42 -0.05 0.34 0.34 0 0 0 0 0.51 33.33 33.33 0 0 0 3 2.39 5.65 5.65 0 0 0 -1.42 1 2.52 2.52 0 0 0 -0.81 1.48 0.3 0.3 0 0 0 0.35 0.23c0.17 0 -0.24 0.12 1 -0.77a9.27 9.27 0 0 0 1.51 -1.49 4.48 4.48 0 0 0 1.88 0.75 6.26 6.26 0 0 0 1.7 -1.14 6.4 6.4 0 0 0 0.85 1.23 13.06 13.06 0 0 0 1.45 1.15 0.36 0.36 0 0 0 0.36 -0.35 2.33 2.33 0 0 0 -0.6 -1.25 3.76 3.76 0 0 0 -1.5 -1.12c-0.17 -0.11 -0.32 0.34 2.64 -2.62a53.75 53.75 0 0 1 0.11 6.06c-1.92 0.57 -8.47 0.9 -10.5 0.76 -0.39 0 -0.76 -0.24 -0.89 -0.17 -0.23 -0.91 -0.03 -3.08 0.08 -6.69Z" fill="#020202" fill-rule="evenodd" stroke-width="1"></path>
  </g>
</svg>