<svg xmlns="http://www.w3.org/2000/svg" viewBox="0 0 24 24" id="Appliances-Microwave--Streamline-Freehand">
  <desc>
    Appliances Microwave Streamline Icon: https://streamlinehq.com
  </desc>
  <g>
    <path d="m24 16.61 -0.25 -4.53c-0.07 -1.43 -0.13 -2.86 -0.21 -4.28 -0.06 -1 -0.14 -1.92 -0.23 -2.87 0 -0.33 0 -1.07 -0.07 -1.61a1.36 1.36 0 0 0 -0.52 -0.95 2.36 2.36 0 0 0 -1 -0.32 11.45 11.45 0 0 0 -1.3 0l-2.29 0c-0.76 0 -1.52 0 -2.29 0.09l-4.61 0.21 -7.68 0.45 -1.95 0a6.56 6.56 0 0 0 -0.89 0.2 0.34 0.34 0 0 0 -0.27 0.4 0.36 0.36 0 0 0 0.41 0.28 4.91 4.91 0 0 1 0.78 -0.08l2 0 7.65 -0.33 4.63 -0.14 0.94 0c0.05 0.87 0.07 1.73 0.06 2.6 0 1.17 -0.08 2.34 -0.11 3.51s0 2.37 0 3.55c0 0.85 0.11 1.7 0.19 2.55 0.11 1.08 0.24 2.15 0.38 3.22 -1.08 0 -2.15 0.11 -3.23 0.17 -1.27 0.08 -2.54 0.12 -3.81 0.14l-5.74 0c-0.52 0 -1.31 0.1 -2 0.06a1.78 1.78 0 0 1 -1 -0.27 0.29 0.29 0 0 1 -0.09 -0.22l0 -0.54 -0.14 -2.64C1.06 13 0.83 10.69 0.71 8.43A41.84 41.84 0 0 1 0.71 4a0.3 0.3 0 0 0 -0.29 -0.32 0.3 0.3 0 0 0 -0.32 0.28 43.09 43.09 0 0 0 -0.1 4.5c0.06 2.27 0.25 4.55 0.39 6.78l0.09 2.62a3.3 3.3 0 0 0 0.09 0.93 1 1 0 0 0 0.33 0.49 2.29 2.29 0 0 0 1.16 0.46l0.35 0 0 0.91a2 2 0 0 0 0 0.42 0.62 0.62 0 0 0 0.18 0.37 1.59 1.59 0 0 0 0.94 0.43 10.94 10.94 0 0 0 1.76 0l1.45 0a4.29 4.29 0 0 0 0.63 0 0.9 0.9 0 0 0 0.5 -0.23 1.2 1.2 0 0 0 0.31 -0.64 4.13 4.13 0 0 0 0 -1.11l2.11 0c1.29 0 2.57 0 3.86 -0.09l1.18 -0.05c0 0.11 0.05 0.23 0.06 0.35a4.1 4.1 0 0 1 0 0.61 2.43 2.43 0 0 0 0 0.54 0.6 0.6 0 0 0 0.2 0.31 1.64 1.64 0 0 0 1.06 0.44 10.2 10.2 0 0 0 1.34 -0.1l1.87 -0.16a3.74 3.74 0 0 0 0.73 0 0.79 0.79 0 0 0 0.41 -0.24 1.4 1.4 0 0 0 0.35 -0.9 5 5 0 0 0 -0.06 -1 6.12 6.12 0 0 0 1.14 -0.13 2.17 2.17 0 0 0 1 -0.48 1.89 1.89 0 0 0 0.5 -1 6.06 6.06 0 0 0 0.07 -1.38Zm-16.59 4c-0.13 0.57 -0.3 0.21 -0.62 0.17L6 20.7h-0.77a13.39 13.39 0 0 1 -1.64 0.16c-0.36 0 -0.36 0 -0.38 -0.19l-0.12 -0.88 1.43 0 2.94 0.07a4.29 4.29 0 0 1 -0.07 0.76Zm13.13 -0.51c-0.07 0.63 -0.27 0.55 -0.62 0.52s-0.68 0 -1 0 -0.67 0.06 -1 0.09a8.38 8.38 0 0 1 -1.2 0.21c-0.46 0 -0.44 -0.16 -0.46 -0.29a4 4 0 0 0 -0.15 -0.69 1.83 1.83 0 0 0 -0.08 -0.25c0.64 0 1.29 -0.07 1.93 -0.09l2.49 0h0.11a3.15 3.15 0 0 1 -0.04 0.51Zm2.29 -2.54a0.86 0.86 0 0 1 -0.19 0.56 1.24 1.24 0 0 1 -0.67 0.22 9.24 9.24 0 0 1 -1.51 0.06l-2.39 0c-0.06 -1.08 -0.12 -2.16 -0.15 -3.25l0 -2.5 0 -3.63c0 -0.81 -0.05 -1.62 -0.09 -2.43 -0.07 -1.21 -0.19 -2.41 -0.37 -3.6l0.68 0 2.26 0 1.19 0a1.48 1.48 0 0 1 0.56 0.18s0 0.1 0 0.16a2.29 2.29 0 0 1 0 0.47l0 1.16c0.08 0.94 0.14 1.88 0.18 2.83 0.07 1.42 0.11 2.85 0.17 4.28l0.24 4.52a5.6 5.6 0 0 1 0.07 0.98Z" fill="#020202" stroke-width="1"></path>
    <path d="M19.75 8.18a2.08 2.08 0 0 0 1.61 -0.46 1.64 1.64 0 0 0 0.52 -1.64 1.89 1.89 0 0 0 -0.61 -1 1.38 1.38 0 0 0 -0.57 -0.28 0.32 0.32 0 0 0 -0.21 -0.12 1.78 1.78 0 0 0 -2.14 1.22 1.67 1.67 0 0 0 1.4 2.28Zm-0.37 -2.29a1 1 0 0 1 0.78 -0.59 0.34 0.34 0 0 0 0.29 0.19 0.54 0.54 0 0 1 0.37 0.25 1.17 1.17 0 0 1 0.18 0.5 0.71 0.71 0 0 1 -0.32 0.64 1 1 0 0 1 -0.78 0.12c-0.65 0 -0.75 -0.66 -0.52 -1.11Z" fill="#020202" stroke-width="1"></path>
    <path d="M19.8 10.82a8.52 8.52 0 0 0 -1 0.23 0.31 0.31 0 0 0 0.07 0.61l1 0c0.5 0 1 -0.13 1.48 -0.17a0.36 0.36 0 0 0 0.34 -0.36 0.35 0.35 0 0 0 -0.36 -0.33 9.9 9.9 0 0 0 -1.53 0.02Z" fill="#020202" stroke-width="1"></path>
    <path d="M21.65 13.23a4.75 4.75 0 0 0 -1.51 0 3.71 3.71 0 0 0 -0.58 0.11 8.76 8.76 0 0 0 -0.82 0.33 0.31 0.31 0 0 0 0.18 0.59c0.25 0 0.5 -0.05 0.77 -0.09s0.73 -0.14 1.1 -0.18a5 5 0 0 1 0.77 0 0.35 0.35 0 0 0 0.09 -0.69Z" fill="#020202" stroke-width="1"></path>
    <path d="M16.14 12.88c0 -0.7 -0.13 -1.4 -0.19 -2.09l-0.24 -3.92c0 -0.23 0.09 -0.81 0.06 -1.2a1.07 1.07 0 0 0 -0.18 -0.53 1 1 0 0 0 -0.44 -0.35 2.65 2.65 0 0 0 -0.81 -0.12l-1 0c-0.5 0 -1 0 -1.49 0.06s-1.06 0.07 -1.59 0.13C9 5 7.81 5.15 6.6 5.27c-1 0.09 -2.07 0.07 -3.1 0.19a9.77 9.77 0 0 0 -1.35 0.26 0.36 0.36 0 0 0 -0.24 0.28 0.3 0.3 0 0 0 -0.11 0.23l0.15 2 0.22 5.68a9.55 9.55 0 0 0 0.12 2 1.4 1.4 0 0 0 0.69 0.95A2.37 2.37 0 0 0 4 17a12.5 12.5 0 0 0 1.94 -0.25c0.52 -0.08 1.06 -0.14 1.59 -0.18 0.81 -0.06 1.63 -0.09 2.43 -0.1h4a5.31 5.31 0 0 0 1.13 0 1.2 1.2 0 0 0 0.73 -0.4 1.8 1.8 0 0 0 0.33 -0.76 5.15 5.15 0 0 0 0.09 -0.94 11.54 11.54 0 0 0 -0.1 -1.49Zm-1.18 2a0.8 0.8 0 0 1 -0.11 0.35c0.05 0.08 -0.2 0 -0.32 0l-0.65 0c-0.17 0 -3.56 -0.07 -6.1 0.15a20.78 20.78 0 0 0 -2.08 0.28 14.51 14.51 0 0 1 -1.51 0.34 1.59 1.59 0 0 1 -0.82 -0.08c-0.17 -0.08 -0.21 -0.32 -0.26 -0.56a12.5 12.5 0 0 1 -0.11 -1.6c-0.49 -6.55 -0.31 -4.51 -0.39 -5.65l-0.18 -1.74a7.26 7.26 0 0 1 1.15 -0.19A30 30 0 0 1 6.7 6c1.71 0 3.82 -0.37 5.16 -0.39l1.47 0 0.94 0 0.4 0a8.27 8.27 0 0 0 0 1.2c0.11 4.9 0.21 3.93 0.33 6l0 1.32 0 0.78Z" fill="#020202" stroke-width="1"></path>
    <path d="m12.93 12.43 1.58 -1.73c0.24 -0.42 0 -1 -0.37 -0.79l-2 1.71c-0.53 0.51 -1.07 1 -1.56 1.52a12.64 12.64 0 0 0 -1.09 1.33c-0.44 0.43 0.3 0.79 0.89 0.35l1 -0.88c0.52 -0.49 1.03 -1 1.55 -1.51Z" fill="#4C57E6" stroke-width="1"></path>
    <path d="M7.34 8.74c0.49 -0.51 1 -1 1.47 -1.53s0.43 -0.5 0.84 -0.87c0.25 -0.33 -0.36 -0.5 -1 -0.18s-1.19 0.91 -1.74 1.41 -0.8 0.74 -1.18 1.13 -0.73 0.79 -1.06 1.2 -0.87 1.1 -1.29 1.64c-0.23 0.47 -0.21 1.12 0.39 0.91 0.83 -0.82 1.27 -1.34 2.09 -2.17 0.5 -0.51 0.99 -1.03 1.48 -1.54Z" fill="#4C57E6" stroke-width="1"></path>
  </g>
</svg>