<svg xmlns="http://www.w3.org/2000/svg" viewBox="0 0 24 24" id="Aquascaping-Bubble--Streamline-Freehand">
  <desc>
    Aquascaping Bubble Streamline Icon: https://streamlinehq.com
  </desc>
  <g>
    <path d="M6.45 13.11a4.34 4.34 0 0 1 0.17 -1 12.66 12.66 0 0 0 0.24 -1.37 2.92 2.92 0 0 0 0.81 -0.35 1.81 1.81 0 0 0 0.3 -0.25 1.81 1.81 0 0 0 0.22 -0.32 3 3 0 0 0 0.25 -0.85 0.29 0.29 0 0 0 -0.12 -0.41 0.3 0.3 0 0 0 -0.41 0.12c-0.22 0.21 -0.46 0.32 -0.68 0.53s-0.2 0.23 -0.3 0.35l-0.12 0.17A3.62 3.62 0 0 0 6.67 9a8.31 8.31 0 0 0 -0.85 -1.54 0.35 0.35 0 0 0 -0.47 -0.13 0.34 0.34 0 0 0 -0.13 0.47A8.51 8.51 0 0 1 5.71 9a2.85 2.85 0 0 1 0.1 1.17c0 0.55 -0.23 1.12 -0.32 1.69a4.28 4.28 0 0 0 0 0.49 3.5 3.5 0 0 1 -0.33 -0.43c-0.1 -0.13 -0.19 -0.26 -0.29 -0.38s-0.47 -0.41 -0.66 -0.64a0.29 0.29 0 0 0 -0.4 -0.16 0.31 0.31 0 0 0 -0.16 0.4 3.55 3.55 0 0 0 0.21 0.93 1.46 1.46 0 0 0 0.22 0.35 1.76 1.76 0 0 0 0.31 0.3 2.19 2.19 0 0 0 1 0.4 0.29 0.29 0 0 0 0.16 0 0.31 0.31 0 0 0 0 0.1 2.12 2.12 0 0 0 0.71 1.28l0.91 -0.17a1.48 1.48 0 0 1 -0.72 -1.22Z" fill="#020202" stroke-width="1"></path>
    <path d="M16.74 15.16a8.48 8.48 0 0 1 0.79 -1.66 4 4 0 0 0 0.37 -1.44 1.87 1.87 0 0 0 0 -0.41 4.22 4.22 0 0 0 1.1 -0.73 2.17 2.17 0 0 0 0.36 -0.44 2.41 2.41 0 0 0 0.25 -0.51 2.37 2.37 0 0 0 0.1 -1.43 0.36 0.36 0 0 0 -0.39 -0.3 0.35 0.35 0 0 0 -0.3 0.39 1.62 1.62 0 0 1 -0.16 0.5 3.55 3.55 0 0 1 -0.32 0.47l-0.33 0.49 -0.39 0.67 0 -0.16a3.41 3.41 0 0 0 -0.59 -1.28 11.46 11.46 0 0 0 -1.75 -1.73 5 5 0 0 0 0.78 -0.43 2.6 2.6 0 0 0 0.45 -0.37 2.82 2.82 0 0 0 0.38 -0.46A3.86 3.86 0 0 0 17.67 5a0.35 0.35 0 1 0 -0.67 -0.23 4.35 4.35 0 0 1 -0.8 0.87c-0.19 0.18 -0.4 0.36 -0.58 0.55s-0.49 0.57 -0.72 0.86a2.28 2.28 0 0 1 -0.58 -1.12 3.67 3.67 0 0 1 0.21 -1.81 2 2 0 0 1 1.14 -1.28 0.3 0.3 0 0 0 0.23 -0.36 0.31 0.31 0 0 0 -0.37 -0.23 2.42 2.42 0 0 0 -1.5 1.15 4.89 4.89 0 0 0 -0.26 0.51 3.61 3.61 0 0 0 -0.23 -0.36 3 3 0 0 0 -0.35 -0.36 3.9 3.9 0 0 1 -0.56 -0.51A0.35 0.35 0 0 0 12 3a3.28 3.28 0 0 0 0.32 0.89 2.35 2.35 0 0 0 0.23 0.32 1.73 1.73 0 0 0 0.28 0.26 4.78 4.78 0 0 0 0.64 0.32 4.05 4.05 0 0 0 -0.12 1.31 3 3 0 0 0 0.45 1.33 7.17 7.17 0 0 0 1.4 1.52q-0.33 -0.06 -0.69 -0.09a5.43 5.43 0 0 0 -0.57 0 5.09 5.09 0 0 1 -0.55 0 2.1 2.1 0 0 1 -0.51 -0.1 0.34 0.34 0 0 0 -0.48 0.1 0.35 0.35 0 0 0 0.1 0.48 2.57 2.57 0 0 0 1.16 0.6 2.49 2.49 0 0 0 1 0 5.55 5.55 0 0 0 1.13 -0.36l0.05 0a2.78 2.78 0 0 1 0.83 1.31 4.43 4.43 0 0 1 0.21 1.11 3.69 3.69 0 0 1 -0.15 0.94 2.61 2.61 0 0 1 -0.56 -0.08 4.66 4.66 0 0 1 -0.49 -0.16l-0.48 -0.15a7.74 7.74 0 0 1 -1.51 -0.55 0.35 0.35 0 1 0 -0.41 0.57 5.54 5.54 0 0 0 1.08 0.85 2.27 2.27 0 0 0 0.55 0.25 2.55 2.55 0 0 0 0.61 0.13 3.11 3.11 0 0 0 0.91 -0.11A5.76 5.76 0 0 0 16 15a2.18 2.18 0 0 0 0 0.57l0.8 0.24a1.14 1.14 0 0 1 -0.06 -0.65Z" fill="#020202" stroke-width="1"></path>
    <path d="M19.82 16.26a9.63 9.63 0 0 1 -4.07 -0.26c-1.29 -0.26 -2.7 -0.68 -4.15 -1 -2.37 -0.49 -6.43 -1.32 -9.31 1.5 -0.35 0.33 -0.14 0.85 0.23 0.64a6.29 6.29 0 0 1 4.73 -1.57 20.22 20.22 0 0 1 4.11 0.57c1.45 0.31 2.88 0.65 4.19 0.89a11.46 11.46 0 0 0 4.44 0 5.61 5.61 0 0 0 1.49 -0.6c0.56 -0.39 0.64 -1 0 -0.91a3.78 3.78 0 0 1 -1.66 0.74Z" fill="#4C57E6" stroke-width="1"></path>
    <path d="M20.47 2.94C17.29 0 12.39 -0.42 8.85 0.33a0.36 0.36 0 0 0 -0.28 0.41A0.36 0.36 0 0 0 9 1c3.31 -0.63 7.92 -0.25 10.85 2.6 2.13 2.08 3.33 5.48 2.5 10.76a9.77 9.77 0 0 1 -8.59 8.36c-4.51 0.71 -9.47 -1 -11.28 -4.67a13.12 13.12 0 0 1 -1.28 -5.53 14.26 14.26 0 0 1 1 -5.63 0.29 0.29 0 0 0 -0.15 -0.4 0.32 0.32 0 0 0 -0.41 0.16 15.2 15.2 0 0 0 -1.19 5.88 14 14 0 0 0 1.24 5.91C3.6 22.53 9 24.59 13.93 23.85a10.73 10.73 0 0 0 9.53 -9.33c0.8 -5.73 -0.63 -9.37 -2.99 -11.58Z" fill="#020202" stroke-width="1"></path>
    <path d="M2 4.56a2.52 2.52 0 0 0 1.81 -0.28A3.22 3.22 0 0 0 5 3C5.6 1.9 5.48 0.54 3.91 0.12a0.35 0.35 0 0 0 -0.43 0.23 0.34 0.34 0 0 0 0.22 0.43c0.88 0.34 0.85 1.13 0.44 1.75a1.79 1.79 0 0 1 -1.87 0.89 1 1 0 0 1 -0.88 -1.36A1.48 1.48 0 0 1 3.05 1a0.31 0.31 0 0 0 0.37 -0.27 0.32 0.32 0 0 0 -0.24 -0.37 2.23 2.23 0 0 0 -2.7 1.38A2 2 0 0 0 2 4.56Z" fill="#4C57E6" stroke-width="1"></path>
    <path d="M8.31 6.77a1.75 1.75 0 0 0 2.32 -1.26 1.69 1.69 0 0 0 -1.4 -2 0.33 0.33 0 0 0 -0.43 0.23 0.34 0.34 0 0 0 0.2 0.38 0.9 0.9 0 0 1 0.61 1.13 0.73 0.73 0 0 1 -1 0.41 0.68 0.68 0 0 1 -0.56 -0.56c0 -0.17 -0.06 -0.35 0.06 -0.42a0.33 0.33 0 0 1 0.28 0 0.31 0.31 0 0 0 0.41 -0.15 0.3 0.3 0 0 0 -0.16 -0.4A1 1 0 0 0 7.8 4a1.16 1.16 0 0 0 -0.64 1.11 1.67 1.67 0 0 0 1.15 1.66Z" fill="#4C57E6" stroke-width="1"></path>
  </g>
</svg>