<svg xmlns="http://www.w3.org/2000/svg" viewBox="0 0 24 24" id="Aquascaping-Tweezer-Planting--Streamline-Freehand">
  <desc>
    Aquascaping Tweezer Planting Streamline Icon: https://streamlinehq.com
  </desc>
  <g>
    <path d="M23.69 2.87a0.32 0.32 0 0 0 -0.45 0.15c-1.68 3.21 -3.66 7 -5.28 9.75a29.66 29.66 0 0 1 -2 3.13 1.9 1.9 0 0 1 -0.49 0.5 6.85 6.85 0 0 1 -2.37 0.48c-1.35 0.08 -2.77 0 -3.93 0 -0.15 0 -0.85 0.12 -1.23 0.1l0.06 -0.1a64.62 64.62 0 0 1 6.18 -2.77 0.55 0.55 0 0 0 0.28 -0.26S17 8.5 19 4.45c0.84 -1.77 1.58 -3.29 1.94 -4a0.31 0.31 0 0 0 -0.17 -0.45 0.31 0.31 0 0 0 -0.41 0.13l-6.71 13.08c-0.77 0.29 -3.77 1.44 -5.5 2.31a5.59 5.59 0 0 0 -1.33 0.84 0.83 0.83 0 0 0 -0.22 0.49 1 1 0 0 0 0.8 1 5.77 5.77 0 0 0 1.78 0.15c1.17 0 2.61 0.08 4 0a8 8 0 0 0 2.75 -0.64 2.78 2.78 0 0 0 0.86 -0.82 31.39 31.39 0 0 0 2 -3.31c1.55 -2.8 3.45 -6.64 5.05 -9.9a0.34 0.34 0 0 0 -0.15 -0.46Z" fill="#020202" stroke-width="1"></path>
    <path d="M8.9 18.78a0.3 0.3 0 0 0 -0.3 0.3c-0.09 0.54 -0.21 1.05 -0.27 1.6l0 0.69 0 0.69c0.06 0.55 0.15 1.09 0.26 1.62A0.34 0.34 0 0 0 9 24a0.34 0.34 0 0 0 0.32 -0.36c0 -0.55 0.11 -1.08 0.14 -1.63a7.94 7.94 0 0 0 0 -1.09c0 -0.63 -0.16 -1.22 -0.24 -1.84a0.3 0.3 0 0 0 -0.32 -0.3Z" fill="#020202" stroke-width="1"></path>
    <path d="M6.68 19.62c-0.34 -0.05 -0.69 0 -1 -0.05a2.17 2.17 0 0 1 -0.35 -0.07c-0.39 -0.11 -0.73 -0.25 -1.07 -0.36A5 5 0 0 0 3.4 19a3.43 3.43 0 0 0 -1.49 0.17 2.8 2.8 0 0 0 -0.61 0.34c-0.35 0.27 -0.66 0.62 -1 0.86a0.3 0.3 0 0 0 -0.11 0.41 0.31 0.31 0 0 0 0.4 0.12c0.4 -0.17 0.77 -0.45 1.18 -0.63a1.57 1.57 0 0 1 0.42 -0.13 3 3 0 0 1 1.07 0c0.61 0.08 1.19 0.24 1.88 0.32a3 3 0 0 0 0.52 0c0.33 0 0.66 -0.11 1 -0.12a0.34 0.34 0 0 0 0 -0.68Z" fill="#4C57E6" stroke-width="1"></path>
    <path d="M23.48 20.12c-0.94 -0.24 -1.79 -0.68 -2.7 -0.95a5.87 5.87 0 0 0 -1.33 -0.17 2.79 2.79 0 0 0 -0.82 0.07 9.34 9.34 0 0 0 -1.38 0.47 3 3 0 0 1 -1.15 0.29 1.94 1.94 0 0 1 -0.59 -0.05 12.21 12.21 0 0 0 -1.77 -0.4 3.16 3.16 0 0 0 -1.05 0.13 12.58 12.58 0 0 0 -1.35 0.48 0.3 0.3 0 0 0 0.19 0.57 12 12 0 0 1 1.31 -0.32 2.39 2.39 0 0 1 0.8 0 11.15 11.15 0 0 1 1.59 0.57 3.32 3.32 0 0 0 0.89 0.15 3.24 3.24 0 0 0 0.82 -0.11 10.07 10.07 0 0 0 1.36 -0.49 3.28 3.28 0 0 1 1.15 -0.36 4.46 4.46 0 0 1 1.1 0.09c0.94 0.18 1.84 0.55 2.79 0.7a0.34 0.34 0 0 0 0.4 -0.27 0.34 0.34 0 0 0 -0.26 -0.4Z" fill="#4C57E6" stroke-width="1"></path>
    <path d="m1.6 5.3 0.33 0.53a14.49 14.49 0 0 0 2.5 3.52 4.43 4.43 0 0 0 2.75 1.2 4.75 4.75 0 0 0 0.93 0l0.42 -0.09a9.81 9.81 0 0 0 -0.26 1.07 3.91 3.91 0 0 0 0 0.48 3.62 3.62 0 0 0 0 0.47c0.06 0.39 0.17 0.74 0.25 1.1a0.29 0.29 0 0 0 0.3 0.3 0.3 0.3 0 0 0 0.3 -0.3c0.08 -0.36 0.19 -0.7 0.25 -1.09a3.55 3.55 0 0 0 0 -0.46c0 -0.36 -0.13 -1.92 -0.15 -2a0.28 0.28 0 0 0 -0.15 -0.2 0.33 0.33 0 0 0 0.19 -0.25 6.55 6.55 0 0 0 0.1 -0.89 6.18 6.18 0 0 1 1.47 -2.8 5.7 5.7 0 0 1 3 -1.83 9.32 9.32 0 0 1 0.92 -0.17c0.24 0 0.47 -0.06 0.7 -0.07L15 5.27a6.27 6.27 0 0 1 -2.06 2.87 6.58 6.58 0 0 1 -3.3 1.44 0.35 0.35 0 0 0 -0.31 0.37 0.35 0.35 0 0 0 0.37 0.31 7.39 7.39 0 0 0 3.78 -1.41A7.38 7.38 0 0 0 16 5.65l0.56 -1.58a3.59 3.59 0 0 0 0.22 -0.8 0.66 0.66 0 0 0 -0.55 -0.65 5.27 5.27 0 0 0 -0.59 0 9.3 9.3 0 0 0 -1.05 0.09c-0.35 0.06 -0.68 0.13 -1 0.21a6.74 6.74 0 0 0 -3.41 2.36 7.85 7.85 0 0 0 -0.9 1.5 7.32 7.32 0 0 0 -0.47 -1.66A5.89 5.89 0 0 0 5.58 2a6.91 6.91 0 0 0 -3.21 -0.4A3.09 3.09 0 0 0 0.29 2.7a1 1 0 0 0 0 1A12 12 0 0 0 1.6 5.3Zm0.95 -2.62a5.86 5.86 0 0 1 2.66 0.26A4.86 4.86 0 0 1 8 5.5a6.71 6.71 0 0 1 0.59 3.93 0.33 0.33 0 0 0 0.16 0.35c-0.25 0 -0.48 0.08 -0.71 0.1a3.6 3.6 0 0 1 -0.8 0A3.73 3.73 0 0 1 5 8.74a16.64 16.64 0 0 1 -2.47 -4c-0.12 -0.18 -0.49 -0.53 -0.84 -0.9 -0.17 -0.18 -0.23 -0.49 -0.37 -0.56a2.13 2.13 0 0 1 1.23 -0.6Z" fill="#020202" stroke-width="1"></path>
    <path d="m5.64 7.14 0.4 0.5c0.13 0.16 0.28 0.32 0.42 0.47 0.34 0.37 0.68 0.73 1 1.13a0.33 0.33 0 0 0 0.54 0.09 0.34 0.34 0 0 0 0.1 -0.47c-0.25 -0.49 -0.47 -0.95 -0.74 -1.39a3.78 3.78 0 0 0 -0.4 -0.56 4.51 4.51 0 0 0 -0.47 -0.51 8.13 8.13 0 0 0 -1.32 -0.92 0.3 0.3 0 0 0 -0.42 0 0.31 0.31 0 0 0 0 0.43c0.34 0.43 0.6 0.84 0.89 1.23Z" fill="#020202" stroke-width="1"></path>
  </g>
</svg>