<svg xmlns="http://www.w3.org/2000/svg" viewBox="0 0 24 24" id="Architecture-Door-Double-Lock--Streamline-Freehand">
  <desc>
    Architecture Door Double Lock Streamline Icon: https://streamlinehq.com
  </desc>
  <title>architecture-door-double-lock</title>
  <g>
    <path d="M23.59 1.17A0.71 0.71 0 0 0 23 0.71l-1.08 0 -4.3 -0.14c-1.93 0 -3.87 -0.06 -5.81 -0.06 -1.29 0 -2.59 0 -3.88 0.08C6.26 0.64 4.6 0.8 2.94 0.89L0.82 0.89a0.32 0.32 0 0 0 -0.32 0.31 0.31 0.31 0 0 0 0.31 0.32c-0.09 1 -0.17 2 -0.24 2.95C0.48 6 0.38 7.54 0.29 9.05c-0.06 1 -0.11 2 -0.18 3 0 0.72 -0.08 1.45 -0.09 2.18s0 1.45 0 2.17l0 1.21a2.43 2.43 0 0 0 0.12 0.66 1.13 1.13 0 0 0 0.52 0.55 5.37 5.37 0 0 0 1 0.41 8.52 8.52 0 0 0 1.21 0.29c0.39 0.06 0.8 0.1 1.2 0.13l1.68 0a0.35 0.35 0 0 0 0.36 -0.35 0.36 0.36 0 0 0 -0.35 -0.3l-1.62 -0.11c-0.37 -0.05 -0.75 -0.1 -1.11 -0.18a7.49 7.49 0 0 1 -1 -0.32c-0.18 -0.07 -0.69 -0.64 -0.93 -0.48a2.09 2.09 0 0 1 0 -0.44c0 -0.37 0.08 -0.77 0.09 -1l0.18 -4.29c0.06 -1.08 0.11 -2.17 0.12 -3.26 0 -2.43 0 -4.87 0.05 -7.3L3 1.59c1.65 0 3.31 -0.12 5 -0.11 1 0 1.93 0 2.89 0.05l0.72 0a19.65 19.65 0 0 0 -0.45 3 17.82 17.82 0 0 0 0 1.79c0.05 0.89 0.17 1.77 0.24 2.66a0.36 0.36 0 0 0 0.35 0.36 0.35 0.35 0 0 0 0.32 -0.34c0.07 -0.87 0.14 -1.73 0.18 -2.6l0 -1.1 0 -1.1c0 -0.85 -0.1 -1.7 -0.09 -2.56l5.41 0.19 4.26 0.11a4.94 4.94 0 0 1 0.67 -0.1 10.36 10.36 0 0 1 0.3 2c0.08 1.23 0 2.48 0 3.64 -0.06 2.66 -0.33 5.32 -0.45 8 0 1 -0.06 2.06 0 3.09 -0.29 0 -0.58 -0.06 -0.88 -0.07l-0.51 0a4.36 4.36 0 0 0 -0.52 0c-0.42 0.06 -0.8 0.18 -1.22 0.26a0.31 0.31 0 0 0 -0.32 0.31 0.33 0.33 0 0 0 0.31 0.32 10.63 10.63 0 0 0 1.25 0.25 4.87 4.87 0 0 0 0.54 0 5 5 0 0 0 0.54 -0.07 8.68 8.68 0 0 0 1.24 -0.32 0.36 0.36 0 0 0 0.31 -0.39s0 0 0 -0.05c0 -1.11 0.05 -2.22 0.13 -3.34 0.2 -2.66 0.55 -5.33 0.7 -8C23.94 6.28 24 5 24 3.73a11.3 11.3 0 0 0 -0.41 -2.56Z" fill="#020202" fill-rule="evenodd" stroke-width="1"></path>
    <path d="M17.91 6.78a7.82 7.82 0 0 0 -1.08 -0.06 5.62 5.62 0 0 0 -1.22 0.18c-0.3 0 -0.39 0.56 -0.19 0.78l1.16 0.2 0.65 0 0.67 0c0.45 0 0.75 -0.08 1.19 -0.14 0.24 0 0.26 -0.76 0 -0.81 -0.47 -0.03 -0.72 -0.09 -1.18 -0.15Z" fill="#4C57E6" fill-rule="evenodd" stroke-width="1"></path>
    <path d="M20.63 4.65a4.48 4.48 0 0 0 -0.07 -0.65 1.61 1.61 0 0 0 -0.18 -0.42 0.7 0.7 0 0 0 -0.53 -0.28 9.94 9.94 0 0 0 -1.25 0.1l-3.75 0.43a0.25 0.25 0 0 0 -0.14 -0.06 0.28 0.28 0 0 0 -0.27 0.2s0 0.06 0 0.1v0.12c-0.11 0.89 -0.22 1.58 -0.26 2.21l0 1 0 1c0 0.66 0.12 1.38 0.19 2.33a0.36 0.36 0 0 0 0.72 0c0.09 -0.95 0.18 -1.67 0.22 -2.33l0 -2c0 -0.57 -0.12 -1.19 -0.19 -1.95 0.4 0 0.81 0 1.22 -0.06l2.37 0a6.49 6.49 0 0 1 0.8 -0.13l0 0.49c-0.3 6.72 -0.25 6 -0.26 6.34 -0.06 2.41 0 3.9 0 3.94a0.36 0.36 0 0 0 0.71 0c0 -0.78 0.08 -1.56 0.14 -2.34 0.13 -1.82 0.32 -3.65 0.49 -5.45 0 -0.51 0.08 -1 0.09 -1.51a7.36 7.36 0 0 0 -0.05 -1.08Z" fill="#020202" fill-rule="evenodd" stroke-width="1"></path>
    <path d="M18.18 11.58h-0.46a2.76 2.76 0 0 0 -0.45 0.07c-0.26 0 -0.54 0.17 -1 0.32a0.32 0.32 0 0 0 0 0.63c0.51 0.09 0.81 0.17 1.08 0.19h0.46l0.44 -0.08c0.17 0 0.39 -0.09 0.65 -0.16a0.55 0.55 0 0 0 0 -0.88c-0.31 -0.05 -0.54 -0.08 -0.72 -0.09Z" fill="#4C57E6" fill-rule="evenodd" stroke-width="1"></path>
    <path d="M4.9 13.06a3.94 3.94 0 0 0 0.47 0 4.62 4.62 0 0 0 0.48 -0.06c0.27 0 0.59 -0.14 1.09 -0.27a0.36 0.36 0 0 0 0.34 -0.38 0.37 0.37 0 0 0 -0.38 -0.33c-0.53 -0.06 -0.85 -0.13 -1.12 -0.15a3.79 3.79 0 0 0 -0.75 0 4.35 4.35 0 0 0 -0.58 0.14c-0.38 0.29 -0.42 0.6 -0.07 0.94Z" fill="#4C57E6" fill-rule="evenodd" stroke-width="1"></path>
    <path d="M9.53 4.09a1 1 0 0 0 -0.18 -0.44 0.7 0.7 0 0 0 -0.56 -0.31c-0.33 0 -1.17 0.09 -1.25 0.09 -0.66 0.08 -1.31 0.14 -2 0.23s-1.2 0.15 -1.79 0.26c0 0 -0.08 -0.06 -0.13 -0.06a0.3 0.3 0 0 0 -0.27 0.2s0 0.06 0 0.1v0.08C3.21 5.71 3.06 7.1 3 8.5l0 2.17c0 0.72 0 1.45 0.06 2.18l0.08 1.82a2.43 2.43 0 0 0 0.06 0.81 0.86 0.86 0 0 0 0.3 0.41 0.36 0.36 0 0 0 0.5 -0.08 0.35 0.35 0 0 0 -0.07 -0.5s0 -0.1 0 -0.15l0 -0.45c0.33 -4.93 0.24 -3.68 0.25 -4l0 -2.17s0 0.11 -0.17 -4l1.25 0 2.37 0a6.8 6.8 0 0 1 0.76 -0.14l0 0.44c0 1.11 -0.13 4 -0.14 4.45l0 1.39a0.36 0.36 0 0 0 0.72 0c0 -0.74 0.06 -1.11 0.09 -1.34 0.06 -0.56 0.11 -0.17 0.33 -2 0.06 -0.51 0.13 -1 0.16 -1.51a9.19 9.19 0 0 0 0 -1 4.39 4.39 0 0 0 -0.02 -0.74Z" fill="#020202" fill-rule="evenodd" stroke-width="1"></path>
    <path d="M6.72 6.91a6.19 6.19 0 0 0 -1 -0.06 7.82 7.82 0 0 0 -1.45 0.23c-0.18 0.28 -0.21 0.52 0.05 0.71s0.81 0.21 1.2 0.21c0.2 0 0.4 0 0.6 0.05s0.4 0 0.6 0C7.14 8 7.55 8 8 7.9c0.32 -0.23 0.3 -0.49 0 -0.76 -0.42 -0.07 -0.84 -0.14 -1.28 -0.23Z" fill="#4C57E6" fill-rule="evenodd" stroke-width="1"></path>
    <path d="M16.63 16.35a0.72 0.72 0 0 0 -0.28 -0.54 2.26 2.26 0 0 0 -1 -0.23h-0.45A4.37 4.37 0 0 0 13.13 12a3.16 3.16 0 0 0 -3.16 0 3.11 3.11 0 0 0 -0.67 0.47 3.73 3.73 0 0 0 -0.52 0.61 3.43 3.43 0 0 0 -0.56 1.55 6.81 6.81 0 0 0 0.06 1.62l-0.65 0a0.42 0.42 0 0 0 -0.2 0.05h-0.07a0.31 0.31 0 0 0 -0.33 0.3l0 1.45 0 3.35c0 0.14 -0.06 0.83 0 1.24a0.91 0.91 0 0 0 0.3 0.61 1.67 1.67 0 0 0 0.77 0.25 7.32 7.32 0 0 0 1.43 0l4.3 -0.22a11.73 11.73 0 0 0 1.43 -0.1 2.23 2.23 0 0 0 0.78 -0.25 1 1 0 0 0 0.37 -0.42 4.9 4.9 0 0 0 0.26 -1 10.67 10.67 0 0 0 0.18 -2 15.38 15.38 0 0 0 -0.14 -1.93s-0.05 -0.91 -0.08 -1.23ZM9.1 14.73a2.61 2.61 0 0 1 0.54 -1.06 3.69 3.69 0 0 1 0.41 -0.38 2.18 2.18 0 0 1 0.46 -0.28 2 2 0 0 1 2.5 0.22 3.83 3.83 0 0 1 1.16 2.4l-0.58 0.06c-1.4 0.11 -2.79 0.33 -4.19 0.45l-0.43 0a6.09 6.09 0 0 1 0.13 -1.41Zm6.35 6.44c0 0.13 -0.3 0.55 -0.19 0.71a2.06 2.06 0 0 1 -0.4 0.07c-0.42 0.05 -0.88 0.05 -1.14 0.07 -0.73 0.05 -1.44 0.09 -2.16 0.15s-1.44 0.13 -2.17 0.22a9.29 9.29 0 0 1 -1.09 0.1H8c0.13 -0.26 -0.14 -1 -0.15 -1.14 0 -1 -0.13 -1.91 -0.17 -2.87l0 -1.54c1.08 0 3.79 -0.2 6 -0.29 0.33 0 0.92 -0.07 1.45 -0.05a3.54 3.54 0 0 1 0.48 0.05l0 1a15.22 15.22 0 0 1 0.07 1.79 10.18 10.18 0 0 1 -0.23 1.73Z" fill="#020202" fill-rule="evenodd" stroke-width="1"></path>
  </g>
</svg>