<svg xmlns="http://www.w3.org/2000/svg" viewBox="0 0 24 24" id="Architecture-Door-Frame--Streamline-Freehand">
  <desc>
    Architecture Door Frame Streamline Icon: https://streamlinehq.com
  </desc>
  <title>architecture-door-frame</title>
  <g>
    <path d="m16.32 18.59 0 -2.68 0.22 -7.7c0 -0.76 0.14 -1.76 0.1 -2.69a4.33 4.33 0 0 0 -0.49 -2 1.32 1.32 0 0 0 -0.78 -0.62 6.12 6.12 0 0 0 -1.6 0L9 3c-0.45 0.09 -0.36 0.61 0.28 0.64l4.44 0.25a7.88 7.88 0 0 1 1.19 0 0.34 0.34 0 0 1 0.28 0.18 3.19 3.19 0 0 1 0.26 1.48c0 0.92 -0.13 1.89 -0.15 2.64 0 1.56 -0.08 3.07 -0.08 4.63l0 3.09 0.17 2.75a6.58 6.58 0 0 0 0.11 1.14c0.08 0.47 0.75 0.63 0.79 -0.09a7.06 7.06 0 0 0 0.03 -1.12Z" fill="#4C57E6" fill-rule="evenodd" stroke-width="1"></path>
    <path d="M19.56 5.81c0 -0.71 0.05 -1.43 0.05 -2.14a14.72 14.72 0 0 0 -0.08 -1.49 6.21 6.21 0 0 0 -0.18 -1 1.91 1.91 0 0 0 -0.43 -0.76 1.22 1.22 0 0 0 -0.54 -0.34 3.6 3.6 0 0 0 -1 -0.08h-2.46l-7.3 0.37H5.2a0.31 0.31 0 0 0 -0.27 0.26 0.28 0.28 0 0 0 -0.18 0.27c-0.08 2.1 -0.22 4.19 -0.3 6.29q0 1.35 -0.06 2.7l0 2.7c0 2.1 0.14 4.2 0.27 6.31a0.36 0.36 0 0 0 0.37 0.35 0.37 0.37 0 0 0 0.35 -0.36A25.31 25.31 0 0 0 7.4 21c0.46 0.42 0.94 0.81 1.43 1.19 0.74 0.57 1.5 1.1 2.22 1.68a0.36 0.36 0 1 0 0.5 -0.52c-0.63 -0.68 -1.25 -1.35 -1.91 -2 -0.29 -0.27 -0.57 -0.53 -0.87 -0.78s-0.59 -0.5 -0.9 -0.74c-0.72 -0.54 -1.46 -1 -2.17 -1.61a0.29 0.29 0 0 0 -0.28 -0.07c0 -1.93 0.09 -3.86 0.14 -5.79 0 -1.43 0.07 -2.87 0.06 -4.31 0 -2.18 -0.11 -4.35 -0.21 -6.52 0.49 0.42 1 0.87 1.45 1.33 0.82 0.8 1.6 1.63 2.4 2.42l1.55 1.61 0.48 0.5a4.41 4.41 0 0 1 0.31 1.7l0 3c0.07 2.2 0.14 4.43 0.17 6.65l0 4.43a0.36 0.36 0 1 0 0.71 0c0.14 -1.84 0.22 -3.7 0.26 -5.56s0.05 -3.72 0.07 -5.56a34.76 34.76 0 0 0 0 -3.54 4.55 4.55 0 0 0 -0.44 -1.64 1.31 1.31 0 0 0 -0.24 -0.34c-0.15 -0.16 -0.34 -0.29 -0.49 -0.43L9.92 4.61C6.81 1.89 8.39 3.17 7 2c-0.4 -0.33 -0.79 -0.65 -1.18 -0.95l1.86 0.08H15l2.45 0.08 0.64 0.06a0.77 0.77 0 0 1 0.18 0.41 4 4 0 0 1 0.1 0.67 12.21 12.21 0 0 1 0.07 1.35l0 2.12 -0.05 13.79c0 0.06 0 0.1 0.06 0.15 -0.13 0 -0.26 0.05 -0.39 0.06a2.41 2.41 0 0 1 -0.38 0c-1.15 -0.13 -1.34 0.95 -0.05 0.76l0.51 0c0.17 0 0.47 -0.08 0.69 -0.13A0.36 0.36 0 0 0 19 20c0 -0.06 -0.06 -0.1 -0.1 -0.15a0.33 0.33 0 0 0 0.1 -0.23Z" fill="#020202" fill-rule="evenodd" stroke-width="1"></path>
  </g>
</svg>