<svg xmlns="http://www.w3.org/2000/svg" viewBox="0 0 24 24" id="Armchair-Modern-1--Streamline-Freehand">
  <desc>
    Armchair Modern 1 Streamline Icon: https://streamlinehq.com
  </desc>
  <g>
    <path d="M10.28 13.54a12 12 0 0 1 1.7 -0.23 9.65 9.65 0 0 1 1.7 0 6 6 0 0 1 2.18 0.56H16c0 0.2 0.06 0.41 0.08 0.59l0.26 1.54a0.31 0.31 0 0 0 0.35 0.24 0.29 0.29 0 0 0 0.26 -0.32l-0.06 -1.53 0 -2.45a9 9 0 0 1 0.25 -2.29A2.78 2.78 0 0 1 19 7.56a1.28 1.28 0 0 1 0.27 0c0.84 -0.24 0.41 -0.76 -0.22 -0.68a1.5 1.5 0 0 0 -0.29 0A3.61 3.61 0 0 0 16 9.38a7.46 7.46 0 0 0 -0.29 2.6 10.43 10.43 0 0 0 0.11 1.11 6.59 6.59 0 0 0 -2.67 -0.85 7.09 7.09 0 0 0 -1.95 0.07 8.87 8.87 0 0 0 -1.25 0.34 7.92 7.92 0 0 0 -1.29 0.58 3.19 3.19 0 0 0 -0.76 0.61s0 0 0 0.06C8 13 8 12 8 11.09a5.12 5.12 0 0 0 -0.7 -2.69 2.76 2.76 0 0 0 -1.74 -1.17 3.83 3.83 0 0 0 -0.69 -0.08c-0.94 0.08 -1.23 0.31 -0.2 0.76a2.44 2.44 0 0 1 0.62 0.09 1.91 1.91 0 0 1 1 0.88 4.56 4.56 0 0 1 0.46 2.2A30.48 30.48 0 0 1 7 14.25l0 0.69c-0.22 1.06 0.44 1.32 0.77 0.39a9.09 9.09 0 0 0 0.18 -1l0 -0.18c0 -0.06 0 0.08 0.05 0.11a0.31 0.31 0 0 0 0.43 0 3 3 0 0 1 0.68 -0.38 6.92 6.92 0 0 1 1.17 -0.34Z" fill="#020202" fill-rule="evenodd" stroke-width="1"></path>
    <path d="M15.54 21.11a4.68 4.68 0 0 1 -0.78 -1.17 7.1 7.1 0 0 1 -0.36 -1c-0.32 -0.65 -0.81 -0.53 -0.76 0.07a8 8 0 0 0 0.36 1.21 5.86 5.86 0 0 0 0.82 1.42c0.16 0.19 1 0.71 1.27 1 -0.07 0 -0.19 0.07 -0.29 0.08a8.35 8.35 0 0 1 -0.87 0.05l-4.26 0.16h-0.57l-0.28 0 0.77 -1.13a6.31 6.31 0 0 0 0.91 -1.89 3.9 3.9 0 0 0 0.13 -0.76c-0.14 -1.17 -0.58 -0.62 -0.71 0a3 3 0 0 1 -0.15 0.59 5 5 0 0 1 -0.94 1.6l-0.93 1.17a2 2 0 0 0 -0.26 0.48 0.57 0.57 0 0 0 0.09 0.47 1.25 1.25 0 0 0 0.68 0.44 4.47 4.47 0 0 0 1.29 0.1l4.3 -0.17a5.34 5.34 0 0 0 1.59 -0.27 0.85 0.85 0 0 0 0.52 -0.55 0.89 0.89 0 0 0 -0.2 -0.76 17.42 17.42 0 0 0 -1.37 -1.14Z" fill="#020202" fill-rule="evenodd" stroke-width="1"></path>
    <path d="M20.26 4.9a10.27 10.27 0 0 0 -4.57 -4A8.63 8.63 0 0 0 9.35 0.4 10.88 10.88 0 0 0 4.6 3.61a9.23 9.23 0 0 0 -2.14 5.05 9 9 0 0 0 3.13 7.41 9.45 9.45 0 0 0 5.07 2.23c0.24 0 0.78 0.05 1.39 0.07 1.45 -0.06 1.92 0 2.13 -0.22 0 -0.16 0 -0.15 -0.08 -0.31 -0.16 -0.73 -2.59 0.82 -6.07 -1H8a11.7 11.7 0 0 1 -2.14 -1.56 7.87 7.87 0 0 1 -0.38 -11 9.84 9.84 0 0 1 4.28 -2.87 7.48 7.48 0 0 1 5.43 0.41 9.36 9.36 0 0 1 4.17 3.54 7.33 7.33 0 0 1 0.85 6.76 10 10 0 0 1 -4.8 5.36 0.31 0.31 0 0 0 -0.14 0.44 0.37 0.37 0 0 0 0.47 0.13A10.88 10.88 0 0 0 21 12.38a8.49 8.49 0 0 0 -0.74 -7.48Z" fill="#4C57E6" fill-rule="evenodd" stroke-width="1"></path>
  </g>
</svg>