<svg xmlns="http://www.w3.org/2000/svg" viewBox="0 0 24 24" id="Army-Medal-1--Streamline-Freehand">
  <desc>
    Army Medal 1 Streamline Icon: https://streamlinehq.com
  </desc>
  <title>army-medal-1</title>
  <g>
    <path d="M18.79 12.66a9.94 9.94 0 0 0 -0.88 -1.17c-0.14 -0.15 -0.28 -0.3 -0.43 -0.44s-0.32 -0.26 -0.49 -0.38c-0.4 -0.27 -0.81 -0.48 -1.23 -0.72a0.29 0.29 0 0 0 -0.4 0 0.28 0.28 0 0 0 0 0.39c0.37 0.41 0.69 0.83 1.08 1.21a8.17 8.17 0 0 0 0.71 0.61c0.35 0.28 0.71 0.53 1 0.81a0.48 0.48 0 0 0 0.58 0 0.32 0.32 0 0 0 0.06 -0.31Z" fill="#4C57E6" fill-rule="evenodd" stroke-width="1"></path>
    <path d="M19.51 13.38a0.61 0.61 0 0 0 -0.31 -0.11 12.08 12.08 0 0 0 -1.26 0.15 11.65 11.65 0 0 0 -1.61 0.44c-0.79 0.28 -1.55 0.62 -2.29 1a0.28 0.28 0 0 0 -0.17 0.35 0.29 0.29 0 0 0 0.36 0.17c0.52 -0.14 1 -0.27 1.57 -0.39s0.79 -0.16 1.18 -0.25 0.77 -0.17 1.16 -0.23l0.29 -0.05c-0.09 0.16 -0.19 0.31 -0.29 0.46 -0.26 0.37 -0.54 0.73 -0.8 1.1l0 0.07a0.27 0.27 0 0 0 -0.05 0.34 7.35 7.35 0 0 0 0.27 0.79 2.29 2.29 0 0 0 0.18 0.29c0.07 0.08 0.14 0.17 0.22 0.25l0.32 0.28 -1.42 -0.32c-0.32 -0.06 -0.64 -0.16 -1 -0.2a6.43 6.43 0 0 0 -1.58 0 0.28 0.28 0 0 0 -0.3 0.26 0.29 0.29 0 0 0 0.27 0.3 16.29 16.29 0 0 1 1.63 0.53 6.8 6.8 0 0 0 0.76 0.15l0.56 0 1.23 0c0.26 0 0.2 -0.14 0.53 -0.35a0.31 0.31 0 0 0 0.1 -0.44 8.15 8.15 0 0 0 -0.3 -0.77 2.75 2.75 0 0 0 -0.17 -0.29 1.88 1.88 0 0 0 -0.22 -0.26 3.12 3.12 0 0 0 -0.41 -0.33l0.81 -0.87c0.21 -0.23 0.42 -0.48 0.61 -0.73a2.66 2.66 0 0 0 0.33 -0.64 0.59 0.59 0 0 0 -0.2 -0.7Z" fill="#020202" fill-rule="evenodd" stroke-width="1"></path>
    <path d="m15.09 22.15 -0.21 -0.93 -0.36 -1.22 -0.62 -1.85a0.31 0.31 0 0 0 -0.38 -0.24 0.3 0.3 0 0 0 -0.24 0.37l0.51 1.94 0.27 1.22 0.13 0.86 0 0.33 -0.15 -0.05 -1.19 -0.58a3.12 3.12 0 0 0 -0.6 -0.24 1 1 0 0 0 -0.39 0 3.32 3.32 0 0 0 -0.59 0.31c-0.3 0.21 -0.58 0.47 -0.88 0.66l0 -0.46 0.3 -1.9c0.07 -0.41 0.11 -0.83 0.21 -1.24a3.24 3.24 0 0 1 0.28 -0.73 0.28 0.28 0 0 0 -0.09 -0.38 0.29 0.29 0 0 0 -0.39 0.09 3.84 3.84 0 0 0 -0.39 0.85c-0.14 0.41 -0.23 0.84 -0.34 1.26l-0.47 1.91 -0.18 1 0 0.28a0.51 0.51 0 0 0 0.33 0.53 0.91 0.91 0 0 0 0.52 0 2.52 2.52 0 0 0 0.64 -0.28c0.37 -0.19 0.7 -0.5 1.06 -0.73l0.22 -0.13c0 0.08 0.27 0.08 0.33 0.11l1.22 0.57c0.15 0.06 0.34 0.18 0.51 0.25a0.82 0.82 0 0 0 0.55 0 0.68 0.68 0 0 0 0.49 -0.69v-0.38Z" fill="#020202" fill-rule="evenodd" stroke-width="1"></path>
    <path d="M7 13.59c0.2 -0.21 0.4 -0.41 0.58 -0.63s0.25 -0.32 0.37 -0.48l0.33 -0.5c0.12 -0.18 0.25 -0.46 0.41 -0.69a0.86 0.86 0 0 1 0.22 -0.24c0.2 -0.25 0.2 -0.44 -0.07 -0.56a1.32 1.32 0 0 0 -0.48 0.23c-0.27 0.19 -0.52 0.48 -0.72 0.65A6.76 6.76 0 0 0 7 12c-0.26 0.33 -0.46 0.69 -0.7 1l-0.72 1.06a0.35 0.35 0 0 0 0 0.14q0.24 0.27 0.75 0Z" fill="#4C57E6" fill-rule="evenodd" stroke-width="1"></path>
    <path d="m10.39 17.44 -2 0.57 -1.14 0.28 -0.71 0.19 0.46 -0.65 0.3 -0.34 0.38 -0.49a0.58 0.58 0 0 0 -0.06 -0.61 3.94 3.94 0 0 0 -0.4 -0.37 5.11 5.11 0 0 1 -0.45 -0.48l-0.12 -0.15 0.32 0 2 0.21 1.22 0.22a0.27 0.27 0 0 0 0.32 -0.23 0.28 0.28 0 0 0 -0.24 -0.32L9.08 15l-1.95 -0.41c-0.75 -0.14 -1.6 -0.45 -1.71 0.31a1.22 1.22 0 0 0 0.11 0.56 2.52 2.52 0 0 0 0.33 0.6 5.21 5.21 0 0 0 0.6 0.72l-0.31 0.36 -0.69 1a1.92 1.92 0 0 0 -0.3 0.56 0.63 0.63 0 0 0 0 0.41c0.07 0.2 0.26 0.49 0.84 0.45l0.31 -0.05 0.46 -0.13 0.7 -0.25 1.08 -0.35 2 -0.71a0.31 0.31 0 0 0 0.22 -0.39 0.33 0.33 0 0 0 -0.38 -0.24Z" fill="#020202" fill-rule="evenodd" stroke-width="1"></path>
    <path d="M19.55 3.8a0.3 0.3 0 0 0 0.08 -0.32l-1 -2.54a2.13 2.13 0 0 0 -0.23 -0.45 1.14 1.14 0 0 0 -0.3 -0.31l-0.21 -0.13a0.5 0.5 0 0 0 -0.4 0 2.22 2.22 0 0 0 -0.32 0.14c-0.17 0.1 -0.34 0.23 -0.5 0.33l-1.31 0.92 -1.15 0.93c-0.06 -0.06 -0.11 -0.13 -0.17 -0.18a2.16 2.16 0 0 0 -0.51 -0.34 0.69 0.69 0 0 0 -0.28 -0.06l-0.24 0 -0.58 0.06c-2.68 0.32 -2.26 0.15 -2.35 0.25l-0.1 0.1a0.12 0.12 0 0 0 -0.05 0l-0.2 0.2a6.74 6.74 0 0 0 -1.2 -0.83 6.33 6.33 0 0 0 -0.8 -0.36 10.82 10.82 0 0 1 -1.2 -0.37 0.24 0.24 0 0 0 -0.26 0A0.29 0.29 0 0 0 6 1a10.54 10.54 0 0 0 -0.86 1.24c-0.17 0.29 -0.29 0.59 -0.43 0.89L4.3 4.67a0.28 0.28 0 0 0 0.1 0.38c0.18 0.11 -0.33 -0.28 1 0.67 0.32 0.23 0.61 0.48 0.94 0.69A10.72 10.72 0 0 0 7.38 7l1.29 0.48a0.28 0.28 0 0 0 0.2 0l0.05 0.07 0.41 0.32 0.48 0.33a0.27 0.27 0 0 0 0.26 0.12l0.92 0 0.49 0a6 6 0 0 0 -0.12 0.61 3.69 3.69 0 0 0 0 0.58l0 0.55c0 0.18 0 0.39 0.06 0.6l-1.09 -0.6a3.35 3.35 0 0 0 -0.68 -0.23 0.56 0.56 0 0 0 -0.4 0.12c-0.42 0.29 0 1.14 0.1 1.64s0.31 1.14 0.49 1.71a15.88 15.88 0 0 0 0.66 1.7 0.3 0.3 0 0 0 0.36 0.17 0.29 0.29 0 0 0 0.14 -0.37c-0.09 -0.34 -0.16 -0.68 -0.23 -1s-0.14 -1 -0.22 -1.45c-0.06 -0.33 -0.13 -0.65 -0.2 -1l-0.06 -0.35c1.86 0.68 1.55 0.76 1.89 0.6a3.32 3.32 0 0 0 0.68 -0.34c0.32 -0.19 0.62 -0.41 0.91 -0.61l0.16 -0.15 0 0.39 -0.44 2.28 -0.16 1.3a0.31 0.31 0 0 0 0.22 0.39 0.33 0.33 0 0 0 0.39 -0.23l0.34 -1.26c0.17 -0.54 0.38 -1 0.53 -1.57 0.07 -0.24 0.12 -0.48 0.17 -0.72a3 3 0 0 0 0.05 -0.67 1.7 1.7 0 0 0 -0.08 -0.51 1.24 1.24 0 0 0 -0.33 -0.49 0.61 0.61 0 0 0 -0.38 -0.12 1 1 0 0 0 -0.51 0.2c-0.19 0.16 -0.39 0.4 -0.48 0.49s-0.48 0.49 -0.74 0.73l-0.26 0.18c0 -0.3 0.11 -0.59 0.16 -0.86s0 -0.61 0 -0.92 -0.07 -0.52 -0.11 -0.77h0.08a8.23 8.23 0 0 0 0.94 0.07 1.29 1.29 0 0 0 0.6 -0.18 1.77 1.77 0 0 0 0.51 -0.51 3.67 3.67 0 0 0 0.26 -0.48 0.22 0.22 0 0 0 0.19 0c0.63 -0.27 1.26 -0.52 1.86 -0.85 0.39 -0.22 0.76 -0.48 1.14 -0.72s0.7 -0.53 1 -0.81a6.55 6.55 0 0 0 0.66 -0.63 0.32 0.32 0 0 0 0.01 -0.43ZM9.2 3c-0.15 0.14 -0.35 0.27 -0.52 0.43a1.91 1.91 0 0 0 -0.25 0.33 1.22 1.22 0 0 0 -0.13 0.59 7.22 7.22 0 0 0 0.1 0.91l0.13 1.34 -0.68 -0.45c-0.19 -0.13 -0.37 -0.27 -0.57 -0.4s-0.4 -0.26 -0.6 -0.37 -0.59 -0.27 -0.89 -0.38L5 4.69a3.46 3.46 0 0 0 0.22 -0.31c0.19 -0.28 0.34 -0.57 0.52 -0.85s0.21 -0.44 0.3 -0.66c0.17 -0.44 0.31 -0.88 0.48 -1.31a4.71 4.71 0 0 0 0.93 0.72 4.6 4.6 0 0 0 0.82 0.35l1 0.34Zm4.61 4.1a1.14 1.14 0 0 1 -0.41 0.32l-1 -0.09a6.88 6.88 0 0 0 -1 0.09 7.78 7.78 0 0 0 -1.2 0.29l-0.36 -0.35c-0.5 -0.53 -0.34 -0.32 -0.36 -0.8l0 -1.39 -0.14 -1a0.62 0.62 0 0 1 0.1 -0.17c0.12 -0.16 0.26 -0.3 0.36 -0.45l0.56 -0.82 2.09 0.1 0.65 0h0.09l0.13 0.12c0.17 0.15 0.31 0.32 0.46 0.47 0.3 0.3 0.15 -0.34 0.42 1.43 0.08 0.37 0.15 0.73 0.21 1.09l0 0.38c-0.18 0.24 -0.41 0.53 -0.6 0.78Zm4.61 -2.88c-0.38 0.21 -0.76 0.39 -1.14 0.59s-0.77 0.46 -1.13 0.72 -0.69 0.53 -1 0.81a3.38 3.38 0 0 0 0 -0.45c0 -0.38 0 -0.76 -0.06 -1.14s0 -0.62 0 -0.93c0 -0.16 0 -0.32 -0.05 -0.47a0.88 0.88 0 0 0 -0.13 -0.28 1.71 1.71 0 0 0 -0.22 -0.25l1.13 -0.64 1.43 -0.78 0.36 -0.22 0.14 0.18L19 3.72l0.07 0.07a7 7 0 0 1 -0.65 0.43Z" fill="#020202" fill-rule="evenodd" stroke-width="1"></path>
    <path d="M18.36 19.06c-0.42 0.39 -0.84 0.75 -1.22 1.18a7.64 7.64 0 0 0 -0.58 0.79c-0.28 0.4 -0.52 0.82 -0.82 1.21a0.32 0.32 0 0 0 0 0.45 0.33 0.33 0 0 0 0.45 0 11.77 11.77 0 0 0 1.12 -1 4.81 4.81 0 0 0 0.42 -0.48 6 6 0 0 0 0.36 -0.52c0.25 -0.41 0.45 -0.85 0.69 -1.27a0.29 0.29 0 0 0 0 -0.4 0.29 0.29 0 0 0 -0.42 0.04Z" fill="#4C57E6" fill-rule="evenodd" stroke-width="1"></path>
    <path d="M8 21.33a4.6 4.6 0 0 0 -0.54 -0.45c-0.18 -0.14 -0.38 -0.25 -0.57 -0.37s-0.43 -0.21 -0.65 -0.35a1.07 1.07 0 0 1 -0.24 -0.24 0.28 0.28 0 1 0 -0.49 0.27 1.78 1.78 0 0 0 0.24 0.39 8.32 8.32 0 0 0 0.61 0.69c0.21 0.18 0.42 0.38 0.65 0.55l0.31 0.22a12.49 12.49 0 0 1 1.27 0.81 0.32 0.32 0 0 0 0.45 0 0.33 0.33 0 0 0 0 -0.45A6.71 6.71 0 0 0 8 21.33Z" fill="#4C57E6" fill-rule="evenodd" stroke-width="1"></path>
  </g>
</svg>