<svg xmlns="http://www.w3.org/2000/svg" viewBox="0 0 24 24" id="Arrow-Circle-Down--Streamline-Freehand">
  <desc>
    Arrow Circle Down Streamline Icon: https://streamlinehq.com
  </desc>
  <g>
    <path d="M23.9 10.39a13.36 13.36 0 0 0 -1.14 -3.72 9.44 9.44 0 0 0 -2.3 -3.17 13 13 0 0 0 -1.42 -1c-0.81 -0.5 -1.72 -1 -2.2 -1.23a0.35 0.35 0 0 0 -0.3 0.64c0.39 0.19 1.09 0.58 1.77 1A17.67 17.67 0 0 1 20 4.08 8.76 8.76 0 0 1 22 7a12.27 12.27 0 0 1 1 3.49 10.39 10.39 0 0 1 -4.08 9.26 10.77 10.77 0 0 1 -9.87 2.17c-0.66 -0.2 -1.33 -0.43 -2 -0.7a13.32 13.32 0 0 1 -1.84 -0.95 8.9 8.9 0 0 1 -3.71 -4.88 9.55 9.55 0 0 1 0.09 -6.2A13.41 13.41 0 0 1 6 3a10.14 10.14 0 0 1 7.27 -1.83 0.31 0.31 0 0 0 0.35 -0.27 0.31 0.31 0 0 0 -0.28 -0.34 10.78 10.78 0 0 0 -7.8 1.8 14.31 14.31 0 0 0 -4.83 6.5 10.58 10.58 0 0 0 -0.25 6.89 9.94 9.94 0 0 0 4.15 5.54 13.51 13.51 0 0 0 2 1 21.07 21.07 0 0 0 2.1 0.75 11.91 11.91 0 0 0 10.91 -2.45 11.39 11.39 0 0 0 4.28 -10.2Z" fill="#4C57E6" stroke-width="1"></path>
    <path d="M12.32 15.49c-0.14 0.12 -0.28 0.27 -0.39 0.36a2.94 2.94 0 0 1 -0.33 -0.23 29.17 29.17 0 0 1 -2 -2.23C8.14 11.67 6.53 9.66 6 8.94a0.3 0.3 0 0 0 -0.43 -0.06 0.31 0.31 0 0 0 -0.07 0.43c0.69 1 3 4.37 4.52 6.26a10.6 10.6 0 0 0 1.12 1.19 1.22 1.22 0 0 0 0.63 0.32 1 1 0 0 0 0.67 -0.17 12.24 12.24 0 0 0 2.27 -2.1 48.05 48.05 0 0 0 4.69 -6.18 0.35 0.35 0 0 0 -0.27 -0.42 0.34 0.34 0 0 0 -0.41 0.27 45.18 45.18 0 0 1 -3.41 4 37.31 37.31 0 0 1 -2.99 3.01Zm-0.58 0.42 0.12 0c0.04 0 -0.11 0.09 -0.12 0Z" fill="#020202" stroke-width="1"></path>
  </g>
</svg>