<svg xmlns="http://www.w3.org/2000/svg" viewBox="0 0 24 24" id="Arrow-Button-Right--Streamline-Freehand">
  <desc>
    Arrow Button Right Streamline Icon: https://streamlinehq.com
  </desc>
  <path d="M19.42 10.62a7.25 7.25 0 0 0 -1.17 -1.8c-0.67 -0.75 -1.44 -1.37 -2.14 -2.05 -0.91 -0.88 -1.82 -1.71 -2.76 -2.5S11.42 2.7 10.41 2a10.89 10.89 0 0 0 -1.6 -1A17 17 0 0 0 7.13 0.28 3.43 3.43 0 0 0 6.44 0a0.92 0.92 0 0 0 -0.57 0.06 1.55 1.55 0 0 0 -0.44 0.79c-0.28 1 -0.84 3.34 -1 4.39a1.91 1.91 0 0 0 0 0.71 0.46 0.46 0 0 0 0.39 0.33c1.06 0.77 5.34 3.64 7 5a3 3 0 0 1 0.31 0.29 0.27 0.27 0 0 1 -0.07 0.08 20.47 20.47 0 0 1 -1.77 1.41c-2.17 1.61 -5.22 3.66 -5.57 4a1.37 1.37 0 0 0 -0.34 0.9 19.47 19.47 0 0 0 0.32 4.41 2.89 2.89 0 0 0 0.59 1.38A0.82 0.82 0 0 0 6 24a7.64 7.64 0 0 0 2.56 -1.15 26.89 26.89 0 0 0 3.11 -2.33c1.17 -1 2.36 -2 3.51 -3.1a31.74 31.74 0 0 0 2.23 -2.26A12.39 12.39 0 0 0 19.3 13a2.59 2.59 0 0 0 0.12 -2.38ZM4.92 5.45a0.09 0.09 0 0 1 0.08 0.01ZM18 12.29a10.32 10.32 0 0 1 -1.71 1.86c-0.69 0.76 -1.41 1.46 -2.15 2.14 -1.14 1.05 -2.33 2 -3.5 3.07a25.91 25.91 0 0 1 -2.91 2.2 8.74 8.74 0 0 1 -1.53 0.83 17.65 17.65 0 0 1 -0.48 -3.77l0 -0.64c0.78 -0.63 4.09 -3 6 -4.56a5.82 5.82 0 0 0 1.56 -1.64 0.62 0.62 0 0 0 -0.07 -0.48 3.42 3.42 0 0 0 -0.76 -0.77c-1.7 -1.36 -6.13 -4.16 -7.13 -4.88a2 2 0 0 1 0 -0.26A40.38 40.38 0 0 1 6.4 1.15l0.33 0.14A16.55 16.55 0 0 1 8.31 2a10.2 10.2 0 0 1 1.43 0.9c1 0.74 1.9 1.5 2.81 2.31s1.78 1.63 2.64 2.51c0.66 0.67 1.39 1.28 2 2a5.38 5.38 0 0 1 0.91 1.46 1.23 1.23 0 0 1 -0.1 1.11Z" fill="#020202" stroke-width="1"></path>
</svg>