<svg xmlns="http://www.w3.org/2000/svg" viewBox="0 0 24 24" id="Arrow-Rectangle-Down-1--Streamline-Freehand">
  <desc>
    Arrow Rectangle Down 1 Streamline Icon: https://streamlinehq.com
  </desc>
  <g>
    <path d="M23.32 6.57c-0.07 -0.79 -0.1 -2.25 -0.27 -3.36a3.16 3.16 0 0 0 -0.6 -1.62A5 5 0 0 0 19.9 0.4a44.05 44.05 0 0 0 -6.06 -0.34c-1 -0.06 -2.08 -0.07 -3.12 0C8.3 0 5.86 0.22 3.51 0.29a0.37 0.37 0 0 0 -0.35 0.37 0.35 0.35 0 0 0 0.36 0.34c2 0 4.1 -0.15 6.18 -0.18 1.37 0 2.74 0 4.08 0.1s3.4 0 5.11 0.26a5 5 0 0 1 2.87 1.11 3.11 3.11 0 0 1 0.34 1.52c0.1 1 0.11 2.18 0.17 2.85 0.13 1.77 0.24 3.59 0.27 5.41a43.41 43.41 0 0 1 -0.18 5.37c-0.11 1.11 -0.16 2 -0.25 2.71a3.09 3.09 0 0 1 -0.22 0.94c0 0.08 -0.17 0.11 -0.33 0.18a8.79 8.79 0 0 1 -1.62 0.5 54.42 54.42 0 0 1 -10.2 1.07A23.7 23.7 0 0 1 3 22.27c-0.55 -0.18 -1 -0.36 -1.1 -0.66A30.59 30.59 0 0 1 1.26 16a47.79 47.79 0 0 1 -0.09 -5.77c0.11 -1.49 0.15 -3 0.24 -4.45q0.06 -0.94 0.15 -1.89c0 -0.34 0 -1.16 0.08 -1.79a1.36 1.36 0 0 1 0.13 -0.57 0.31 0.31 0 0 0 -0.05 -0.44 0.32 0.32 0 0 0 -0.44 0 2 2 0 0 0 -0.28 0.96C0.93 2.68 0.94 3.5 0.9 3.83 0.82 4.47 0.77 5.11 0.71 5.75 0.6 7.23 0.53 8.7 0.39 10.19a49.25 49.25 0 0 0 0 5.88A31.52 31.52 0 0 0 1 22a2.68 2.68 0 0 0 1.7 1.23 24.26 24.26 0 0 0 7 0.74c4.51 0 9.56 -0.66 11.77 -1.43a2.47 2.47 0 0 0 1.53 -0.92 4.07 4.07 0 0 0 0.33 -1.32c0.09 -0.7 0.14 -1.62 0.25 -2.74 0.13 -1.45 0.18 -2.93 0.17 -4.42 -0.07 -2.2 -0.23 -4.42 -0.43 -6.57Z" fill="#4C57E6" stroke-width="1"></path>
    <path d="M4.94 10.32a7.52 7.52 0 0 0 0.62 1q0.71 1 1.47 1.89c0.51 0.61 1 1.2 1.61 1.79s0.83 1 1.32 1.38a4.63 4.63 0 0 0 1.18 0.77 1.75 1.75 0 0 0 1.6 -0.08 8.26 8.26 0 0 0 1.42 -1.21c0.52 -0.47 1 -1 1.46 -1.45 0.68 -0.73 1.32 -1.5 2 -2.25a17.9 17.9 0 0 0 1.51 -2 5.12 5.12 0 0 0 0.75 -1.68 0.64 0.64 0 0 0 -0.18 -0.48 1.87 1.87 0 0 0 -0.94 -0.41 12.83 12.83 0 0 0 -2.86 -0.2 1 1 0 0 0 -0.65 0.25c-0.19 0.23 -1.51 2.19 -2.54 3.6a13.64 13.64 0 0 1 -0.89 1.12l-0.13 -0.14c-0.89 -1 -2.7 -3.72 -3.22 -4.44a0.35 0.35 0 0 0 -0.26 -0.3 1.14 1.14 0 0 0 -0.48 0 27.11 27.11 0 0 0 -2.84 0.63 1 1 0 0 0 -0.55 0.32 0.64 0.64 0 0 0 0 0.41 2.35 2.35 0 0 0 0.17 0.45c0.09 0.29 0.25 0.71 0.43 1.03Zm2.88 -2.19a0.74 0.74 0 0 1 0.15 0c0.51 0.74 2.24 3.5 3.09 4.56a2.1 2.1 0 0 0 0.52 0.51 0.45 0.45 0 0 0 0.36 0.06 3.75 3.75 0 0 0 1.1 -1C14 11 15.52 9 16 8.42h0.36a13.16 13.16 0 0 1 2.29 0.28 7.28 7.28 0 0 1 -0.49 0.86 16.29 16.29 0 0 1 -1.4 1.85c-0.66 0.75 -1.3 1.51 -2 2.25 -0.43 0.47 -0.88 0.93 -1.37 1.37a6.52 6.52 0 0 1 -1.17 1.09 0.72 0.72 0 0 1 -0.63 0.06 3.26 3.26 0 0 1 -0.91 -0.57c-0.47 -0.39 -0.86 -0.87 -1.29 -1.29s-1.1 -1.11 -1.61 -1.68 -1 -1.18 -1.49 -1.8a6.26 6.26 0 0 1 -0.57 -0.9c-0.18 -0.34 -0.34 -0.68 -0.47 -1 0 0 0 -0.08 -0.06 -0.14a23.85 23.85 0 0 1 2.63 -0.67Z" fill="#020202" stroke-width="1"></path>
  </g>
</svg>