<svg xmlns="http://www.w3.org/2000/svg" viewBox="0 0 24 24" id="Arrow-Rectangle-Down-2--Streamline-Freehand">
  <desc>
    Arrow Rectangle Down 2 Streamline Icon: https://streamlinehq.com
  </desc>
  <g>
    <path d="M22.57 2.47A2.47 2.47 0 0 0 21.62 1 4.07 4.07 0 0 0 20.3 0.71c-0.7 -0.09 -1.62 -0.14 -2.74 -0.25 -1.45 -0.13 -2.93 -0.18 -4.42 -0.17 -2.2 0 -4.42 0.19 -6.57 0.39 -0.79 0.07 -2.25 0.1 -3.36 0.32a3.16 3.16 0 0 0 -1.62 0.6A5 5 0 0 0 0.4 4.1a44.05 44.05 0 0 0 -0.34 6.06c-0.06 1 -0.07 2.08 0 3.12 0 2.42 0.21 4.86 0.28 7.21a0.36 0.36 0 0 0 0.37 0.35 0.35 0.35 0 0 0 0.29 -0.36c0 -2 -0.15 -4.1 -0.18 -6.18 0 -1.37 0 -2.74 0.1 -4.08s0 -3.4 0.26 -5.11a5 5 0 0 1 1.11 -2.87 3.23 3.23 0 0 1 1.52 -0.34c1 -0.1 2.18 -0.11 2.85 -0.16 1.77 -0.14 3.59 -0.25 5.41 -0.28a43.41 43.41 0 0 1 5.37 0.18c1.11 0.11 2 0.16 2.71 0.25a3.09 3.09 0 0 1 0.94 0.22c0.08 0 0.11 0.17 0.18 0.33a8.08 8.08 0 0 1 0.5 1.62 54.34 54.34 0 0 1 1.08 10.2 24 24 0 0 1 -0.58 6.74c-0.18 0.56 -0.36 1 -0.65 1.1a30.76 30.76 0 0 1 -5.6 0.67 45.81 45.81 0 0 1 -5.77 0.09c-1.49 -0.11 -3 -0.15 -4.45 -0.24q-0.94 -0.06 -1.89 -0.15c-0.34 0 -1.16 0 -1.79 -0.08a1.36 1.36 0 0 1 -0.57 -0.13 0.31 0.31 0 0 0 -0.39 0.49 2 2 0 0 0 0.89 0.27c0.63 0.08 1.45 0.07 1.78 0.11 0.64 0.08 1.28 0.14 1.92 0.19 1.48 0.11 2.95 0.18 4.44 0.32a49.25 49.25 0 0 0 5.88 0A31.52 31.52 0 0 0 22 23a2.68 2.68 0 0 0 1.23 -1.69 24.33 24.33 0 0 0 0.74 -7c0.03 -4.57 -0.63 -9.62 -1.4 -11.84Z" fill="#4C57E6" stroke-width="1"></path>
    <path d="M4.86 11.33a8.66 8.66 0 0 0 0.62 1q0.71 1 1.47 1.89c0.51 0.61 1 1.2 1.61 1.79s0.84 0.95 1.32 1.38a4.63 4.63 0 0 0 1.18 0.77 1.75 1.75 0 0 0 1.6 -0.08 7.89 7.89 0 0 0 1.42 -1.21c0.52 -0.47 1 -0.95 1.46 -1.45 0.68 -0.73 1.32 -1.5 2 -2.25a17.9 17.9 0 0 0 1.51 -2 5.12 5.12 0 0 0 0.75 -1.68 0.64 0.64 0 0 0 -0.18 -0.49 1.87 1.87 0 0 0 -0.94 -0.41 12.83 12.83 0 0 0 -2.86 -0.2 1 1 0 0 0 -0.64 0.25c-0.2 0.23 -1.51 2.19 -2.55 3.6a13.64 13.64 0 0 1 -0.89 1.12l-0.13 -0.14c-0.89 -1 -2.7 -3.72 -3.22 -4.44a0.35 0.35 0 0 0 -0.26 -0.3 1.35 1.35 0 0 0 -0.48 0 27.11 27.11 0 0 0 -2.84 0.63 1 1 0 0 0 -0.55 0.32 0.64 0.64 0 0 0 0 0.41 2.35 2.35 0 0 0 0.17 0.45c0.09 0.3 0.25 0.71 0.43 1.04Zm2.86 -2.54a0.17 0.17 0 0 0 0 0.07s-0.05 0 -0.05 -0.07Zm0 0.35h0.13c0.48 0.68 2.24 3.49 3.1 4.56a2.1 2.1 0 0 0 0.52 0.51 0.45 0.45 0 0 0 0.36 0.06 3.75 3.75 0 0 0 1.1 -1C14 12 15.44 10 15.87 9.43h0.36a13.16 13.16 0 0 1 2.29 0.28 6.56 6.56 0 0 1 -0.49 0.86 16.29 16.29 0 0 1 -1.4 1.85c-0.66 0.75 -1.3 1.51 -2 2.25 -0.43 0.47 -0.88 0.93 -1.37 1.37a6.18 6.18 0 0 1 -1.17 1.09 0.69 0.69 0 0 1 -0.63 0.06 3.26 3.26 0 0 1 -0.91 -0.57c-0.47 -0.39 -0.86 -0.87 -1.29 -1.28 -0.57 -0.56 -1.1 -1.12 -1.61 -1.69s-1 -1.18 -1.49 -1.8a6.26 6.26 0 0 1 -0.57 -0.9c-0.18 -0.34 -0.34 -0.68 -0.47 -1 0 0 0 -0.08 -0.06 -0.14a23.47 23.47 0 0 1 2.69 -0.67Z" fill="#020202" stroke-width="1"></path>
  </g>
</svg>