<svg xmlns="http://www.w3.org/2000/svg" viewBox="0 0 24 24" id="Arrow-Thick-Circle-Right--Streamline-Freehand">
  <desc>
    Arrow Thick Circle Right Streamline Icon: https://streamlinehq.com
  </desc>
  <g>
    <path d="M23.9 10.45a12.31 12.31 0 0 0 -1.15 -3.61 9.12 9.12 0 0 0 -2.29 -3A13 13 0 0 0 19 2.88c-0.81 -0.48 -1.73 -1 -2.2 -1.18a0.34 0.34 0 0 0 -0.29 0.62c0.39 0.18 1.09 0.56 1.77 1A14.8 14.8 0 0 1 20 4.38a8.27 8.27 0 0 1 2 2.81 11.57 11.57 0 0 1 1 3.37 9.88 9.88 0 0 1 -4.18 9 11.15 11.15 0 0 1 -9.82 2 20.19 20.19 0 0 1 -2 -0.68A13.23 13.23 0 0 1 5.2 20a8.59 8.59 0 0 1 -3.7 -4.66 8.84 8.84 0 0 1 0.08 -6A12.88 12.88 0 0 1 6 3.31a10.45 10.45 0 0 1 7.24 -1.72 0.3 0.3 0 0 0 0.06 -0.6 11.16 11.16 0 0 0 -7.69 1.69A13.82 13.82 0 0 0 0.71 9a9.81 9.81 0 0 0 -0.23 6.69A9.63 9.63 0 0 0 4.62 21a14.35 14.35 0 0 0 2 1 21.55 21.55 0 0 0 2.09 0.72 12.23 12.23 0 0 0 10.78 -2.27 10.81 10.81 0 0 0 4.41 -10Z" fill="#4C57E6" stroke-width="1"></path>
    <path d="M17.5 13.64a34.25 34.25 0 0 1 -3.12 3c-0.08 0.05 -0.34 0.27 -0.56 0.4 -0.26 -1 -0.48 -3.41 -0.5 -3.45a0.51 0.51 0 0 0 -0.52 -0.27l-0.65 0.07c-1.42 0.15 -4.53 0.47 -5.89 0.55 -0.26 0 -0.53 -0.08 -0.54 0a0.34 0.34 0 0 0 -0.32 0.06 0.34 0.34 0 0 0 0 0.48 0.44 0.44 0 0 0 0.28 0.13 4 4 0 0 0 0.65 0c1.37 -0.05 4.51 -0.29 5.94 -0.4l0.31 0c0 0.6 0.14 1.9 0.28 2.72a2 2 0 0 0 0.42 1 0.61 0.61 0 0 0 0.54 0.06 10.31 10.31 0 0 0 1.08 -0.5 33.71 33.71 0 0 0 4 -3.68 5.19 5.19 0 0 0 1.37 -2.18 2.3 2.3 0 0 0 -0.42 -1.33 10.79 10.79 0 0 0 -1.67 -2 17 17 0 0 0 -3.49 -2.68 2.81 2.81 0 0 0 -1.27 -0.41 0.57 0.57 0 0 0 -0.45 0.25 1.16 1.16 0 0 0 -0.15 0.42 16.52 16.52 0 0 0 -0.16 2.34l0 0.67 -0.68 -0.07c-1.77 -0.19 -4.62 -0.59 -5.08 -0.58a4.49 4.49 0 0 0 -1 0 0.61 0.61 0 0 0 -0.45 0.3A7.71 7.71 0 0 0 4.86 11a7.19 7.19 0 0 0 0.2 2.43 0.3 0.3 0 1 0 0.58 -0.14A6.59 6.59 0 0 1 5.53 11a6.81 6.81 0 0 1 0.53 -2c0.14 0.12 0.65 0 0.8 0 0.45 0 3.23 0.49 5 0.74 0.61 0.09 1.09 0.14 1.32 0.15a0.5 0.5 0 0 0 0.49 -0.5l0 -1.19c0 -0.41 0.07 -1.24 0.15 -1.8l0.55 0.3a17.22 17.22 0 0 1 2.37 1.81 13.41 13.41 0 0 1 2 2.17 1.58 1.58 0 0 1 0.38 0.84 1.39 1.39 0 0 1 -0.28 0.54 13.63 13.63 0 0 1 -1.34 1.58Zm-4 3.45c0 -0.11 0.1 0 0.21 0 -0.11 0.06 -0.19 0.07 -0.22 0Zm0.31 -10.9 0 -0.08 0 -0.09s0.11 0.11 -0.01 0.17Z" fill="#020202" stroke-width="1"></path>
  </g>
</svg>