<svg xmlns="http://www.w3.org/2000/svg" viewBox="0 0 24 24" id="Arrow-Thick-Circle-Down-1--Streamline-Freehand">
  <desc>
    Arrow Thick Circle Down 1 Streamline Icon: https://streamlinehq.com
  </desc>
  <g>
    <path d="M23.9 10.39a13.36 13.36 0 0 0 -1.14 -3.72 9.44 9.44 0 0 0 -2.3 -3.17 13 13 0 0 0 -1.42 -1c-0.81 -0.5 -1.72 -1 -2.2 -1.23a0.35 0.35 0 0 0 -0.3 0.64c0.39 0.19 1.09 0.58 1.77 1A17.67 17.67 0 0 1 20 4.08 8.76 8.76 0 0 1 22 7a12.27 12.27 0 0 1 1 3.49 10.42 10.42 0 0 1 -4.08 9.27 10.79 10.79 0 0 1 -9.87 2.16c-0.66 -0.2 -1.32 -0.43 -2 -0.7a15.89 15.89 0 0 1 -1.84 -0.94 9 9 0 0 1 -3.71 -4.89 9.55 9.55 0 0 1 0.09 -6.2A13.41 13.41 0 0 1 6 3a10.14 10.14 0 0 1 7.27 -1.83 0.31 0.31 0 0 0 0.35 -0.27 0.32 0.32 0 0 0 -0.28 -0.35 10.82 10.82 0 0 0 -7.8 1.81 14.31 14.31 0 0 0 -4.83 6.5 10.58 10.58 0 0 0 -0.25 6.89 9.94 9.94 0 0 0 4.15 5.54 13.51 13.51 0 0 0 2 1 21.07 21.07 0 0 0 2.1 0.75 11.92 11.92 0 0 0 10.91 -2.45 11.39 11.39 0 0 0 4.28 -10.2Z" fill="#4C57E6" stroke-width="1"></path>
    <path d="M10.34 4.76a16.08 16.08 0 0 0 -0.24 2.66c-0.07 2 0 4.51 0 5.54 -0.52 -0.45 -1 -0.79 -1.52 -1.27a2.79 2.79 0 0 0 -1 -0.54 2.19 2.19 0 0 0 -1.2 -0.15 2.16 2.16 0 0 0 -0.68 0.34 2.3 2.3 0 0 0 -0.55 0.51 1.29 1.29 0 0 0 -0.23 0.61 1.79 1.79 0 0 0 0.11 0.85 25.06 25.06 0 0 0 4.16 4.31A11 11 0 0 0 12.52 20a2.22 2.22 0 0 0 1.48 -0.8c1 -0.91 2.43 -2.61 3.84 -4a7.5 7.5 0 0 0 1.53 -1.9 1.4 1.4 0 0 0 0 -1.36 1.91 1.91 0 0 0 -1.54 -1A3.63 3.63 0 0 0 15.48 12c-0.22 0.19 -0.85 0.8 -1.37 1.28 0 -2.12 0.28 -6.83 0.23 -8.09a2 2 0 0 0 -1.83 -1.78 1.86 1.86 0 0 0 -2.17 1.35Zm2.82 0.48c0.06 1.28 -0.18 6.15 -0.14 8.19a6.4 6.4 0 0 0 0.07 0.92 0.76 0.76 0 0 0 0.2 0.37 0.53 0.53 0 0 0 0.55 0.11 1.33 1.33 0 0 0 0.38 -0.24c0.5 -0.42 1.61 -1.56 1.92 -1.85a3.34 3.34 0 0 1 1.35 -0.85 1 1 0 0 1 1.1 0.55c0.14 0.21 0 0.49 -0.18 0.78a7.84 7.84 0 0 1 -1.18 1.44c-1.16 1.18 -2.3 2.61 -3.24 3.58 -0.6 0.62 -1.06 1.08 -1.41 1.05a10.35 10.35 0 0 1 -2.88 -2.17 24.2 24.2 0 0 1 -3.82 -4 1.14 1.14 0 0 1 -0.07 -0.38 0.37 0.37 0 0 1 0.09 -0.25 1.3 1.3 0 0 1 0.32 -0.28A1.14 1.14 0 0 1 6.6 12a1.15 1.15 0 0 1 0.63 0.06 1.72 1.72 0 0 1 0.6 0.36c0.53 0.49 1 0.84 1.5 1.3 0.27 0.26 0.56 0.54 0.89 0.91a0.48 0.48 0 0 0 0.42 0.18 0.5 0.5 0 0 0 0.48 -0.31 3.79 3.79 0 0 0 0 -0.51v-0.55c0 -0.37 0 -3.53 0.12 -5.94a16.43 16.43 0 0 1 0.25 -2.5c0.09 -0.39 0.5 -0.48 0.87 -0.44s0.78 0.29 0.8 0.68Z" fill="#020202" stroke-width="1"></path>
  </g>
</svg>