<svg xmlns="http://www.w3.org/2000/svg" viewBox="0 0 24 24" id="Arrow-Thick-Right-Bottom-Corner--Streamline-Freehand">
  <desc>
    Arrow Thick Right Bottom Corner Streamline Icon: https://streamlinehq.com
  </desc>
  <path d="M21.77 7.53a4.87 4.87 0 0 0 -0.92 -2 0.6 0.6 0 0 0 -0.59 -0.18 1.85 1.85 0 0 0 -0.56 0.28 34.47 34.47 0 0 0 -3.11 2.57l-1.08 1.1 -0.78 -1c-1.47 -1.86 -3.66 -4.79 -4.61 -5.9L8 -0.07a7.43 7.43 0 0 0 -1 -1.07 0.79 0.79 0 0 0 -0.7 -0.13A13.89 13.89 0 0 0 2.56 0.86 13.66 13.66 0 0 0 -0.29 4a0.34 0.34 0 0 0 0.09 0.46 0.33 0.33 0 0 0 0.46 -0.09A12.77 12.77 0 0 1 3 1.44 13.08 13.08 0 0 1 6.38 -0.47c-0.06 0.33 0.79 0.79 1 1L9.41 3c0.93 1.12 3.05 4.09 4.48 6 0.52 0.68 0.95 1.22 1.2 1.5a0.55 0.55 0 0 0 0.78 0l1.5 -1.5a34.06 34.06 0 0 1 2.84 -2.28 5.7 5.7 0 0 1 0.28 0.83 30 30 0 0 1 0.86 6.23 25.68 25.68 0 0 1 -0.21 5.48 3.15 3.15 0 0 1 -0.69 1.8 2.61 2.61 0 0 1 -1.23 0.31 25.18 25.18 0 0 1 -3.72 0 73.89 73.89 0 0 1 -8 -0.86 9.66 9.66 0 0 1 -1.36 -0.25 1.17 1.17 0 0 1 0 -0.11 17.5 17.5 0 0 1 1.27 -1.7c1.22 -1.5 2.7 -3.16 2.73 -3.2a0.64 0.64 0 0 0 -0.23 -0.69l-1 -0.82C6.84 12 2.18 8 0.23 6.22c-0.39 -0.36 -0.64 -0.89 -0.78 -0.77a0.39 0.39 0 0 0 -0.3 -0.24 0.37 0.37 0 0 0 -0.43 0.31 0.52 0.52 0 0 0 0.12 0.38c0.09 0.12 0.33 0.36 0.66 0.69 1.32 1.27 4.33 3.94 6.7 6l2.86 2.5c-0.64 0.69 -2.34 2.54 -3.3 3.79A3.43 3.43 0 0 0 5 20.43a0.75 0.75 0 0 0 0.4 0.57 13.88 13.88 0 0 0 1.78 0.63 72.43 72.43 0 0 0 9.63 1.07c2.1 0.07 3.83 -0.15 4.43 -0.63A3.67 3.67 0 0 0 22.29 20a21.42 21.42 0 0 0 0.39 -4.64 35.68 35.68 0 0 0 -0.91 -7.83Zm-1.37 -0.94c0.07 0 0.14 -0.13 0.16 -0.09s-0.03 0.14 -0.16 0.09ZM5.9 20c0.06 -0.12 0.11 0.09 0.13 0.22 -0.12 -0.04 -0.17 -0.11 -0.13 -0.22Z" fill="#020202" stroke-width="1"></path>
</svg>