<svg xmlns="http://www.w3.org/2000/svg" viewBox="0 0 24 24" id="Arrow-Button-Right-2--Streamline-Freehand">
  <desc>
    Arrow Button Right 2 Streamline Icon: https://streamlinehq.com
  </desc>
  <path d="M2.87 23.27a0.38 0.38 0 0 1 0.38 -0.37 0.38 0.38 0 0 1 0.36 0.3l0.33 0c1.39 -0.28 4.49 -2 7.57 -4 6.92 -4.46 9.21 -7.18 9.28 -7.29 -0.12 -0.09 -0.25 -0.39 -0.46 -0.57A79.73 79.73 0 0 0 11 5C7.84 3.05 4.86 1.39 3.8 1.2c-0.36 -0.07 -0.5 0.16 -0.58 0.45a10.84 10.84 0 0 0 -0.09 2.43c-0.13 2.44 -0.22 4.85 -0.27 7.27l0 9.62 0 0.79c0 0.14 -0.53 0.69 -0.67 -0.3S2 13 2 11.34l0 -7.28A8.56 8.56 0 0 1 2.3 0.84 1.47 1.47 0 0 1 4 0a18.93 18.93 0 0 1 4.21 1.9C10.89 3.36 14.3 5.47 17 7.35a30.16 30.16 0 0 1 4.58 3.59 1.23 1.23 0 0 1 0.42 1.15 2.85 2.85 0 0 1 -0.57 0.87A60.67 60.67 0 0 1 8.63 22c-2.29 1.26 -4.23 2.09 -5 2 -0.53 0 -0.77 -0.29 -0.76 -0.73Z" fill="#020202" stroke-width="1"></path>
</svg>