<svg xmlns="http://www.w3.org/2000/svg" viewBox="0 0 24 24" id="Arrow-Thick-Dot-Down--Streamline-Freehand">
  <desc>
    Arrow Thick Dot Down Streamline Icon: https://streamlinehq.com
  </desc>
  <g>
    <path d="M13.17 21.07a0.22 0.22 0 0 0 -0.05 -0.08 2.92 2.92 0 0 0 -0.77 -0.7 1.31 1.31 0 0 0 -0.88 -0.2 2.33 2.33 0 0 0 -1.82 1.56 1.71 1.71 0 0 0 0.45 1.75 2 2 0 0 0 1.34 0.6 2.14 2.14 0 0 0 1.35 -0.43 1.76 1.76 0 0 0 0.38 -2.48Zm-0.92 1.7a1 1 0 0 1 -1.32 -0.19 0.7 0.7 0 0 1 -0.13 -0.84 1.34 1.34 0 0 1 0.84 -0.77 0.6 0.6 0 0 1 0.45 0.08 3.27 3.27 0 0 1 0.57 0.43 0.19 0.19 0 0 1 -0.06 -0.07 1 1 0 0 1 -0.35 1.36Z" fill="#020202" stroke-width="1"></path>
    <path d="M13.17 15.86a0.22 0.22 0 0 0 -0.05 -0.08 3.13 3.13 0 0 0 -0.77 -0.71 1.36 1.36 0 0 0 -0.88 -0.19 2.33 2.33 0 0 0 -1.82 1.56 1.71 1.71 0 0 0 0.45 1.75 2 2 0 0 0 1.34 0.6 2.14 2.14 0 0 0 1.35 -0.43 1.76 1.76 0 0 0 0.38 -2.48Zm-0.92 1.7a1 1 0 0 1 -1.32 -0.19 0.71 0.71 0 0 1 -0.13 -0.84 1.38 1.38 0 0 1 0.84 -0.78 0.61 0.61 0 0 1 0.45 0.09 3.27 3.27 0 0 1 0.57 0.43 0.19 0.19 0 0 1 -0.06 -0.07 1 1 0 0 1 -0.35 1.36Z" fill="#020202" stroke-width="1"></path>
    <path d="M13.17 11a0.22 0.22 0 0 0 -0.05 -0.08 2.92 2.92 0 0 0 -0.77 -0.7 1.31 1.31 0 0 0 -0.88 -0.2 2.33 2.33 0 0 0 -1.82 1.56 1.71 1.71 0 0 0 0.45 1.75 2 2 0 0 0 1.34 0.6 2.14 2.14 0 0 0 1.35 -0.43 1.76 1.76 0 0 0 0.38 -2.5Zm-0.92 1.7a1 1 0 0 1 -1.32 -0.19 0.7 0.7 0 0 1 -0.13 -0.84 1.34 1.34 0 0 1 0.84 -0.77 0.6 0.6 0 0 1 0.45 0.08 3.27 3.27 0 0 1 0.57 0.43 0.19 0.19 0 0 1 -0.06 -0.07 1 1 0 0 1 -0.35 1.35Z" fill="#020202" stroke-width="1"></path>
    <path d="M13.17 5.86a0.35 0.35 0 0 0 -0.05 -0.08 3.1 3.1 0 0 0 -0.77 -0.7 1.36 1.36 0 0 0 -0.88 -0.19 2.3 2.3 0 0 0 -1.82 1.55 1.73 1.73 0 0 0 0.45 1.76 2 2 0 0 0 1.34 0.59 2.08 2.08 0 0 0 1.35 -0.43 1.76 1.76 0 0 0 0.38 -2.48Zm-0.92 1.71a1.06 1.06 0 0 1 -1.32 -0.2 0.7 0.7 0 0 1 -0.13 -0.84 1.36 1.36 0 0 1 0.84 -0.77 0.61 0.61 0 0 1 0.45 0.09 3.24 3.24 0 0 1 0.57 0.42 0.13 0.13 0 0 1 -0.06 -0.07 1 1 0 0 1 -0.35 1.37Z" fill="#020202" stroke-width="1"></path>
    <path d="M13.17 1a0.22 0.22 0 0 0 -0.05 -0.08 3.13 3.13 0 0 0 -0.77 -0.72 1.36 1.36 0 0 0 -0.88 -0.2 2.33 2.33 0 0 0 -1.82 1.57 1.71 1.71 0 0 0 0.45 1.75 2 2 0 0 0 1.34 0.6 2.14 2.14 0 0 0 1.35 -0.43A1.76 1.76 0 0 0 13.17 1Zm-0.92 1.7a1.05 1.05 0 0 1 -1.32 -0.2 0.69 0.69 0 0 1 -0.13 -0.83 1.38 1.38 0 0 1 0.84 -0.78 0.61 0.61 0 0 1 0.45 0.09 3.27 3.27 0 0 1 0.57 0.43 0.16 0.16 0 0 1 -0.06 -0.08 1 1 0 0 1 -0.35 1.36Z" fill="#020202" stroke-width="1"></path>
    <path d="M18.13 17a0.22 0.22 0 0 0 -0.05 -0.08 3 3 0 0 0 -0.77 -0.71 1.36 1.36 0 0 0 -0.88 -0.19 2.34 2.34 0 0 0 -1.82 1.55 1.73 1.73 0 0 0 0.45 1.76 2.05 2.05 0 0 0 1.34 0.6 2.09 2.09 0 0 0 1.35 -0.44 1.75 1.75 0 0 0 0.38 -2.47Zm-0.91 1.7a1.06 1.06 0 0 1 -1.33 -0.2 0.72 0.72 0 0 1 -0.13 -0.84 1.36 1.36 0 0 1 0.84 -0.77 0.61 0.61 0 0 1 0.45 0.09 3.27 3.27 0 0 1 0.57 0.43 0.21 0.21 0 0 1 -0.06 -0.08 1 1 0 0 1 -0.34 1.4Z" fill="#020202" stroke-width="1"></path>
    <path d="M22.06 13.12A0.22 0.22 0 0 0 22 13a3.13 3.13 0 0 0 -0.77 -0.71 1.36 1.36 0 0 0 -0.88 -0.19 2.33 2.33 0 0 0 -1.82 1.56 1.71 1.71 0 0 0 0.47 1.77 2 2 0 0 0 1.34 0.6 2.09 2.09 0 0 0 1.35 -0.44 1.75 1.75 0 0 0 0.37 -2.47Zm-0.92 1.68a1.05 1.05 0 0 1 -1.32 -0.2 0.69 0.69 0 0 1 -0.13 -0.83 1.38 1.38 0 0 1 0.84 -0.78 0.61 0.61 0 0 1 0.45 0.09 3.27 3.27 0 0 1 0.57 0.43 0.16 0.16 0 0 1 -0.06 -0.08 1 1 0 0 1 -0.35 1.37Z" fill="#020202" stroke-width="1"></path>
    <path d="M5.19 13.12a0.22 0.22 0 0 0 -0.05 -0.12 3.13 3.13 0 0 0 -0.77 -0.71 1.35 1.35 0 0 0 -0.87 -0.19 2.33 2.33 0 0 0 -1.83 1.56 1.71 1.71 0 0 0 0.45 1.75 2.08 2.08 0 0 0 1.34 0.6 2.09 2.09 0 0 0 1.35 -0.44 1.75 1.75 0 0 0 0.38 -2.45Zm-0.91 1.68A1.06 1.06 0 0 1 3 14.6a0.69 0.69 0 0 1 -0.12 -0.83 1.34 1.34 0 0 1 0.78 -0.77 0.6 0.6 0 0 1 0.45 0.09 3.27 3.27 0 0 1 0.57 0.43 0.24 0.24 0 0 1 -0.06 -0.08 1 1 0 0 1 -0.34 1.36Z" fill="#020202" stroke-width="1"></path>
    <path d="m8.29 17.57 0 -0.09a3.1 3.1 0 0 0 -0.77 -0.7 1.36 1.36 0 0 0 -0.88 -0.19 2.29 2.29 0 0 0 -1.82 1.55 1.73 1.73 0 0 0 0.45 1.76 2 2 0 0 0 2.69 0.16 1.77 1.77 0 0 0 0.38 -2.48Zm-0.92 1.7a1.05 1.05 0 0 1 -1.32 -0.2 0.7 0.7 0 0 1 -0.13 -0.84 1.36 1.36 0 0 1 0.84 -0.77 0.62 0.62 0 0 1 0.45 0.09 3.71 3.71 0 0 1 0.56 0.42l-0.06 -0.07a1 1 0 0 1 -0.34 1.37Z" fill="#020202" stroke-width="1"></path>
  </g>
</svg>