<svg xmlns="http://www.w3.org/2000/svg" viewBox="0 0 24 24" id="Arrow-Thick-Right-Bottom-Corner-2--Streamline-Freehand">
  <desc>
    Arrow Thick Right Bottom Corner 2 Streamline Icon: https://streamlinehq.com
  </desc>
  <path d="M22.64 6.76a2.54 2.54 0 0 0 -1.43 -1.67 3 3 0 0 0 -3 0.24c-1.08 0.81 -1.42 2.59 -1.51 3.94 0 0.6 -0.06 2.54 -0.13 3.84l-0.05 0c-1.75 -1.94 -5.37 -6.45 -7.88 -9.48C7.68 2.4 6.87 1.45 6.39 0.94a3.17 3.17 0 0 0 -4 -0.4 2.84 2.84 0 0 0 -1.11 3.92 35.81 35.81 0 0 0 3 4c2.74 3.33 6.45 7.46 7.26 8.37l-0.62 -0.05c-1.21 -0.08 -2.22 -0.06 -3.49 -0.15a4.24 4.24 0 0 0 -1.77 0.26A3.06 3.06 0 0 0 4.13 18a3.32 3.32 0 0 0 -0.42 1.19 3.83 3.83 0 0 0 0 1.2 2.23 2.23 0 0 0 0.4 1 3.58 3.58 0 0 0 1.08 1c0.82 0.5 5.88 1.27 10.33 1.56a35.55 35.55 0 0 0 5.52 0.05 2.6 2.6 0 0 0 1.56 -0.52 5.55 5.55 0 0 0 0.51 -2.6c0.13 -2.44 0 -6.31 0.08 -9.67a13.72 13.72 0 0 0 -0.55 -4.45Zm-0.39 12.77c0 1.74 0 3 -0.3 3.32 -0.13 0.14 -0.5 0.17 -1 0.22a35 35 0 0 1 -5.36 -0.12c-4.22 -0.35 -9 -1.07 -9.81 -1.56a2.94 2.94 0 0 1 -0.66 -0.54 1.27 1.27 0 0 1 -0.29 -0.64 2.74 2.74 0 0 1 0 -0.83 2 2 0 0 1 0.25 -0.73A1.94 1.94 0 0 1 6 18a3.29 3.29 0 0 1 1.26 -0.16c1.28 0.11 2.29 0.1 3.5 0.2a21 21 0 0 1 2.25 0.3 0.62 0.62 0 0 0 0.71 -0.31 0.66 0.66 0 0 0 0 -0.62 6.49 6.49 0 0 0 -0.48 -0.54l-0.63 -0.87c-0.46 -0.52 -4.38 -5 -7.26 -8.53a33.94 33.94 0 0 1 -2.79 -3.72 1.43 1.43 0 0 1 0.57 -2 1.73 1.73 0 0 1 2.2 0.16c1.66 1.75 7.42 8.9 10 11.75a11.56 11.56 0 0 0 1.17 1.18 1 1 0 0 0 0.49 0.22 0.66 0.66 0 0 0 0.67 -0.38 2.48 2.48 0 0 0 0.15 -0.69c0.1 -1.14 0.08 -3.93 0.11 -4.68a5.5 5.5 0 0 1 0.68 -2.77c0.41 -0.59 1.11 -0.84 2.26 -0.45 0.52 0.17 0.77 0.81 1 1.52a15.45 15.45 0 0 1 0.33 3.44c-0.03 2.88 0.08 6.08 0.06 8.48Z" fill="#020202" stroke-width="1"></path>
</svg>