<svg xmlns="http://www.w3.org/2000/svg" viewBox="0 0 24 24" id="Arrow-Down-2--Streamline-Freehand">
  <desc>
    Arrow Down 2 Streamline Icon: https://streamlinehq.com
  </desc>
  <path d="m21.33 9.26 -0.18 -3.13 -0.13 -2a20 20 0 0 0 -0.08 -2.51 1.34 1.34 0 0 0 -0.43 -0.89 1.9 1.9 0 0 0 -0.74 -0.27C19.29 0.4 18.71 0.41 18.35 0.37L17 0.3 15.17 0.17 11.63 0.08l-1.81 0C8.43 0 7 0.05 5.64 0a10.17 10.17 0 0 0 -1.9 0 1.13 1.13 0 0 0 -0.82 0.57 6 6 0 0 0 -0.45 2.15 28.82 28.82 0 0 0 0.08 3c0.08 1.81 0 7.54 0 10a5.83 5.83 0 0 0 0.12 1.36 1.72 1.72 0 0 0 0.43 0.47c0.49 0.43 1.58 1.29 2.8 2.22 1.84 1.4 4 3 4.83 3.46a6 6 0 0 0 1.32 0.66 1.24 1.24 0 0 0 0.92 0c0.53 -0.3 4.27 -4 6.42 -6.25 0.65 -0.66 1.15 -1.19 1.38 -1.45a0.67 0.67 0 0 0 0.2 -0.53 0.34 0.34 0 0 0 -0.62 0c-0.11 0.12 -0.34 0.37 -0.67 0.7 -1.85 1.87 -6.55 6.4 -7.13 6.71 -0.13 0.07 -0.31 -0.07 -0.51 -0.16s-0.62 -0.37 -0.78 -0.47c-0.58 -0.36 -1.81 -1.29 -3.12 -2.3C6.5 18.89 4.78 17.5 4 16.82l-0.19 -0.17c0 -0.11 -0.06 -0.34 -0.06 -0.56 0 -1.42 0.06 -4.47 0.09 -7l0 -3.36c0 -0.69 -0.14 -1.88 -0.09 -2.88A5.35 5.35 0 0 1 4 1.41c0.31 0.27 1.42 -0.11 1.65 -0.11 1.39 0 2.78 -0.06 4.18 -0.07l1.76 0 3.53 0 1.82 0.09 1.34 0c0.3 0 0.75 0 1.15 0.05a1.63 1.63 0 0 1 0.48 0.1 13.52 13.52 0 0 1 0.16 2.61l0.18 2 0.23 3.1 0.3 4.92a0.39 0.39 0 0 0 0.77 0Z" fill="#020202" stroke-width="1"></path>
</svg>