<svg xmlns="http://www.w3.org/2000/svg" viewBox="0 0 24 24" id="Arrow-Thick-Left-Bottom-Corner--Streamline-Freehand">
  <desc>
    Arrow Thick Left Bottom Corner Streamline Icon: https://streamlinehq.com
  </desc>
  <path d="M23.55 6.51a0.37 0.37 0 0 0 -0.3 0.25c-0.15 -0.12 -0.4 0.41 -0.79 0.77 -1.94 1.8 -6.6 5.74 -8.73 7.53l-1 0.83a0.63 0.63 0 0 0 -0.22 0.68c0 0.05 1.51 1.71 2.73 3.21a16.78 16.78 0 0 1 1.26 1.69 0.61 0.61 0 0 1 0.05 0.12 11.29 11.29 0 0 1 -1.35 0.25 75.3 75.3 0 0 1 -8 0.85 25.32 25.32 0 0 1 -3.72 0 2.73 2.73 0 0 1 -1.23 -0.31 3.22 3.22 0 0 1 -0.7 -1.81 26.22 26.22 0 0 1 -0.21 -5.47 30.55 30.55 0 0 1 0.87 -6.23A5.31 5.31 0 0 1 2.49 8a32.31 32.31 0 0 1 2.83 2.28l1.5 1.47a0.55 0.55 0 0 0 0.78 0c0.26 -0.27 0.69 -0.81 1.21 -1.5 1.42 -1.88 3.55 -4.84 4.47 -6l2.07 -2.48c0.18 -0.2 1 -0.65 1 -1a13.3 13.3 0 0 1 3.36 1.9 13 13 0 0 1 2.75 2.89 0.33 0.33 0 1 0 0.54 -0.3 13.64 13.64 0 0 0 -2.84 -3.1A14.19 14.19 0 0 0 16.49 0a0.82 0.82 0 0 0 -0.7 0.13 7.57 7.57 0 0 0 -1.06 1.08L12.58 3.7C11.63 4.81 9.43 7.75 8 9.61c-0.29 0.37 -0.56 0.7 -0.78 1L6.11 9.48A31.4 31.4 0 0 0 3 6.91a1.72 1.72 0 0 0 -0.56 -0.28 0.64 0.64 0 0 0 -0.6 0.17 5 5 0 0 0 -0.91 2A35.61 35.61 0 0 0 0 16.66a20.19 20.19 0 0 0 0.39 4.63 3.77 3.77 0 0 0 1 2.07c0.6 0.48 2.34 0.69 4.43 0.63a73.85 73.85 0 0 0 9.64 -1.08 12.77 12.77 0 0 0 1.78 -0.62 0.75 0.75 0 0 0 0.43 -0.55 3.28 3.28 0 0 0 -0.8 -1.54c-0.87 -1.2 -2.59 -3.1 -3.23 -3.8 0.54 -0.46 1.61 -1.39 2.86 -2.49 2.36 -2.08 5.38 -4.74 6.7 -6a8.25 8.25 0 0 0 0.66 -0.69 0.5 0.5 0 0 0 0.14 -0.39 0.38 0.38 0 0 0 -0.45 -0.32ZM2.14 7.81s0.09 0 0.16 0.09c-0.13 0.1 -0.22 0.1 -0.16 -0.09Zm14.65 13.52c0.05 0.09 0 0.16 -0.12 0.22 0.02 -0.14 0.06 -0.35 0.12 -0.22Z" fill="#020202" stroke-width="1"></path>
</svg>