<svg xmlns="http://www.w3.org/2000/svg" viewBox="0 0 24 24" id="Arrow-Thick-Circle-Bottom-Left-Corner-2--Streamline-Freehand">
  <desc>
    Arrow Thick Circle Bottom Left Corner 2 Streamline Icon: https://streamlinehq.com
  </desc>
  <g>
    <path d="M23.9 10.39a13.36 13.36 0 0 0 -1.14 -3.72 9.44 9.44 0 0 0 -2.3 -3.17 12 12 0 0 0 -1.42 -1c-0.81 -0.5 -1.72 -1 -2.2 -1.23a0.36 0.36 0 0 0 -0.47 0.17 0.35 0.35 0 0 0 0.17 0.47c0.39 0.19 1.09 0.58 1.77 1A17.67 17.67 0 0 1 20 4.08 8.76 8.76 0 0 1 22 7a12.27 12.27 0 0 1 1 3.49 10.42 10.42 0 0 1 -4.08 9.27 10.79 10.79 0 0 1 -9.87 2.16c-0.66 -0.2 -1.33 -0.43 -2 -0.7a15.89 15.89 0 0 1 -1.84 -0.94 9 9 0 0 1 -3.71 -4.89 9.55 9.55 0 0 1 0.09 -6.2A13.41 13.41 0 0 1 6 3a10.14 10.14 0 0 1 7.27 -1.83 0.31 0.31 0 0 0 0.35 -0.27 0.32 0.32 0 0 0 -0.28 -0.35 10.82 10.82 0 0 0 -7.8 1.81 14.31 14.31 0 0 0 -4.83 6.5 10.58 10.58 0 0 0 -0.25 6.89 10 10 0 0 0 4.15 5.55 14.48 14.48 0 0 0 2 1 21.07 21.07 0 0 0 2.1 0.75 11.91 11.91 0 0 0 10.91 -2.45 11.39 11.39 0 0 0 4.28 -10.21Z" fill="#4C57E6" stroke-width="1"></path>
    <path d="M9.84 11.24v-0.07c-0.09 -0.67 -0.21 -1.24 -0.29 -1.95a2.74 2.74 0 0 0 -0.36 -1.05 2.13 2.13 0 0 0 -0.81 -0.82 2.16 2.16 0 0 0 -0.74 -0.2 2.5 2.5 0 0 0 -0.74 0 1.28 1.28 0 0 0 -0.59 0.3 1.91 1.91 0 0 0 -0.48 0.71 25.56 25.56 0 0 0 0.24 6 10.93 10.93 0 0 0 1 3.93 2.24 2.24 0 0 0 1.54 0.41c1.38 0 3.55 -0.32 5.51 -0.41a7.61 7.61 0 0 0 2.41 -0.4 1.4 1.4 0 0 0 0.92 -1 1.91 1.91 0 0 0 -0.45 -1.82 3.62 3.62 0 0 0 -2.43 -0.74l-1.88 0c1.41 -1.57 4.75 -4.91 5.56 -5.88A2 2 0 0 0 18 5.74a1.87 1.87 0 0 0 -2.51 -0.45 16.21 16.21 0 0 0 -1.95 1.83c-1.38 1.45 -3.02 3.34 -3.7 4.12Zm4.55 -3.3a16 16 0 0 1 1.78 -1.67 0.71 0.71 0 0 1 0.94 0.25c0.25 0.29 0.42 0.71 0.17 1 -0.8 1 -4.22 4.48 -5.54 6a6.22 6.22 0 0 0 -0.57 0.74 0.76 0.76 0 0 0 -0.1 0.4 0.53 0.53 0 0 0 0.34 0.45 1.44 1.44 0 0 0 0.45 0.08c0.65 0 2.23 -0.1 2.66 -0.1a3.32 3.32 0 0 1 1.58 0.26 1 1 0 0 1 0.45 1.14c0 0.25 -0.33 0.35 -0.65 0.46a7.49 7.49 0 0 1 -1.85 0.29c-1.64 0.12 -3.44 0.42 -4.79 0.52 -0.86 0.06 -1.52 0.1 -1.76 -0.15a10.61 10.61 0 0 1 -0.7 -3.54 25.36 25.36 0 0 1 -0.18 -5.54 1 1 0 0 1 0.21 -0.33 0.45 0.45 0 0 1 0.23 -0.13 1.59 1.59 0 0 1 0.43 0 1.12 1.12 0 0 1 0.39 0.11 1.09 1.09 0 0 1 0.43 0.47 1.69 1.69 0 0 1 0.21 0.66c0.07 0.72 0.18 1.29 0.25 2a11.76 11.76 0 0 1 0.06 1.27 0.52 0.52 0 0 0 0.19 0.42 0.51 0.51 0 0 0 0.57 0.08 2.42 2.42 0 0 0 0.41 -0.38l0.37 -0.41c0.23 -0.29 2.33 -2.62 4.02 -4.35Z" fill="#020202" stroke-width="1"></path>
  </g>
</svg>