<svg xmlns="http://www.w3.org/2000/svg" viewBox="0 0 24 24" id="Arrow-Circle-Up--Streamline-Freehand">
  <desc>
    Arrow Circle Up Streamline Icon: https://streamlinehq.com
  </desc>
  <g>
    <path d="M23.9 10.39a13.36 13.36 0 0 0 -1.14 -3.72 9.44 9.44 0 0 0 -2.3 -3.17 13 13 0 0 0 -1.42 -1c-0.81 -0.5 -1.72 -1 -2.2 -1.23a0.35 0.35 0 0 0 -0.3 0.64c0.39 0.19 1.09 0.58 1.77 1A17.67 17.67 0 0 1 20 4.08 8.66 8.66 0 0 1 22 7a12.27 12.27 0 0 1 1 3.49 10.39 10.39 0 0 1 -4.08 9.26 10.77 10.77 0 0 1 -9.87 2.17c-0.66 -0.2 -1.33 -0.43 -2 -0.7a13.32 13.32 0 0 1 -1.84 -0.95 8.9 8.9 0 0 1 -3.71 -4.88 9.55 9.55 0 0 1 0.09 -6.2A13.41 13.41 0 0 1 6 3a10.14 10.14 0 0 1 7.27 -1.83 0.31 0.31 0 0 0 0.35 -0.27 0.31 0.31 0 0 0 -0.28 -0.34 10.78 10.78 0 0 0 -7.8 1.8 14.31 14.31 0 0 0 -4.83 6.5 10.58 10.58 0 0 0 -0.25 6.89 9.94 9.94 0 0 0 4.15 5.54 13.51 13.51 0 0 0 2 1 21.07 21.07 0 0 0 2.1 0.75 11.91 11.91 0 0 0 10.91 -2.45 11.39 11.39 0 0 0 4.28 -10.2Z" fill="#4C57E6" stroke-width="1"></path>
    <path d="M11.87 7.29a1.07 1.07 0 0 0 -0.66 -0.17 1.37 1.37 0 0 0 -0.61 0.32 11.32 11.32 0 0 0 -1 1.12c-1.45 1.78 -3.55 5 -4.19 5.89a0.32 0.32 0 0 0 0.07 0.44 0.31 0.31 0 0 0 0.43 -0.07c0.46 -0.58 1.64 -2.06 2.82 -3.49 0.87 -1 1.74 -2.05 2.34 -2.65a2.58 2.58 0 0 1 0.4 -0.3c0.1 0.08 0.22 0.2 0.33 0.3a37.9 37.9 0 0 1 2.79 2.83 42.22 42.22 0 0 1 3.17 3.73 0.35 0.35 0 0 0 0.42 0.27 0.34 0.34 0 0 0 0.27 -0.41A43.42 43.42 0 0 0 14 9.28a11.49 11.49 0 0 0 -2.13 -1.99Zm-0.64 1c0 -0.05 0 0 0.11 0s-0.12 0.05 -0.11 0.01Z" fill="#020202" stroke-width="1"></path>
  </g>
</svg>