<svg xmlns="http://www.w3.org/2000/svg" viewBox="0 0 24 24" id="Artboard-Add--Streamline-Freehand">
  <desc>
    Artboard Add Streamline Icon: https://streamlinehq.com
  </desc>
  <g>
    <path d="M18.75 18.25c0 -0.19 0 0.05 0.1 -2 0.6 -5.79 0 -4.88 0.26 -7.6 0.12 -3 0.14 -3 0.06 -3.19a0.56 0.56 0 0 0 -0.33 -0.28c-4 -1.25 -8 -0.38 -10 -0.27 -2.29 0.12 -2.77 0 -3 0.29 0 0 -0.14 0.51 0.31 0.51 4.69 0 7.93 -1 12 0.25a11.64 11.64 0 0 1 -0.11 2.6c-0.15 1.44 0 2.89 -0.07 4.3 -0.07 1.76 -0.22 1.86 -0.39 4.9 -0.67 0 0.84 0.16 -4.42 0.39 -0.87 0.05 -7.58 0.65 -7.91 0a6.84 6.84 0 0 1 -0.39 -2.93 67.32 67.32 0 0 1 0.3 -9c0.13 -0.77 0.39 -1.12 0 -1.26 -0.53 -0.21 -0.55 0.75 -0.63 1.14a71.8 71.8 0 0 0 -0.56 9.09c-0.06 4.25 0.7 4 2.74 4.16a51 51 0 0 0 6.46 -0.16c1.28 -0.05 2.54 -0.08 3.82 -0.25 0.65 -0.03 1.61 0.13 1.76 -0.69Z" fill="#020202" fill-rule="evenodd" stroke-width="1"></path>
    <path d="M0 5.25c-0.41 0.85 3 0.71 3.36 0.38a0.32 0.32 0 0 0 0 -0.46C3.13 4.81 0.31 4.68 0 5.25Z" fill="#4C57E6" fill-rule="evenodd" stroke-width="1"></path>
    <path d="M23.86 5.6c0.09 -0.12 0.18 -0.21 0.12 -0.35s0 -0.12 -0.1 -0.17c-0.42 -0.27 -3 -0.29 -3.26 0.09a0.32 0.32 0 0 0 0 0.46c0.65 0.66 3.15 0.09 3.24 -0.03Z" fill="#4C57E6" fill-rule="evenodd" stroke-width="1"></path>
    <path d="M0.15 18.42c-0.09 0.12 -0.18 0.22 -0.12 0.35a0.34 0.34 0 0 0 0.1 0.17c0.39 0.26 3 0.25 3.26 -0.08a0.33 0.33 0 0 0 0 -0.47c-0.39 -0.45 -3.06 -0.2 -3.24 0.03Z" fill="#4C57E6" fill-rule="evenodd" stroke-width="1"></path>
    <path d="M20.62 18.39a0.33 0.33 0 0 0 0 0.47c0.15 0.2 0.73 0.21 0.84 0.23a5.12 5.12 0 0 0 1.91 0l0.22 0c0.38 -0.07 0.34 -0.17 0.39 -0.27s0 -0.23 -0.12 -0.35a10.07 10.07 0 0 0 -3.24 -0.08Z" fill="#4C57E6" fill-rule="evenodd" stroke-width="1"></path>
    <path d="M4.83 3.82c0.09 0.13 0.16 0.24 0.3 0.24a0.3 0.3 0 0 0 0.36 -0.21c0 -0.08 0.24 -1.33 0.25 -1.41A6.19 6.19 0 0 0 5.67 1C5.57 0 5.08 0.28 5 0.68a13.53 13.53 0 0 0 -0.35 1.67 6.14 6.14 0 0 0 0.18 1.47Z" fill="#4C57E6" fill-rule="evenodd" stroke-width="1"></path>
    <path d="M18.53 0.39c-0.21 0.18 -0.1 -0.07 -0.26 1.19a8.22 8.22 0 0 0 0 0.86c0 0.08 0.33 1.69 0.25 1.41a0.3 0.3 0 0 0 0.36 0.21c0.14 0 0.21 -0.11 0.3 -0.24a5.92 5.92 0 0 0 0.2 -1.47 6.45 6.45 0 0 0 -0.15 -0.86c-0.1 -0.19 -0.16 -1.49 -0.7 -1.1Z" fill="#4C57E6" fill-rule="evenodd" stroke-width="1"></path>
    <path d="M5.54 20.75a1.08 1.08 0 0 1 0 -0.57 0.3 0.3 0 0 0 -0.41 -0.18c-0.14 0 -0.21 0.12 -0.3 0.24a1.64 1.64 0 0 0 -0.12 0.6A6.52 6.52 0 0 0 5 23.51c0.18 0.22 0.34 0.21 0.45 0.12 0.42 -0.31 0.33 -1.8 0.09 -2.88Z" fill="#4C57E6" fill-rule="evenodd" stroke-width="1"></path>
    <path d="M19.18 20.2c-0.09 -0.12 -0.16 -0.23 -0.3 -0.24a0.3 0.3 0 0 0 -0.36 0.22 6.43 6.43 0 0 0 -0.18 2.8c0.11 1 0.59 0.76 0.69 0.37a13.53 13.53 0 0 0 0.35 -1.67 6 6 0 0 0 -0.2 -1.48Z" fill="#4C57E6" fill-rule="evenodd" stroke-width="1"></path>
    <path d="M9.81 16.08a5 5 0 0 0 2.11 0.23 4.49 4.49 0 0 0 3.3 -7.43 4.68 4.68 0 0 0 -7.51 0.47c-1.32 2 -0.64 4.83 0.68 5.68a0.24 0.24 0 0 0 0.28 -0.4c-1 -0.74 -1.52 -3.26 -0.34 -4.84a4 4 0 0 1 6.17 -0.32 3.73 3.73 0 0 1 -2.64 6.22 4.58 4.58 0 0 1 -1.86 -0.14 0.28 0.28 0 0 0 -0.19 0.53Z" fill="#020202" fill-rule="evenodd" stroke-width="1"></path>
    <path d="M11.89 9.5s0 -0.47 -0.2 -0.5 -0.34 0.1 -0.3 0.49c-0.09 1.11 -0.14 1 -0.17 1.94a8 8 0 0 0 -2 0.42 0.24 0.24 0 0 0 0.09 0.48l1.88 0a10.18 10.18 0 0 1 0 1.75 0.28 0.28 0 0 0 0.53 0.17 7 7 0 0 0 0.36 -1.95 10.64 10.64 0 0 1 1.72 0 0.28 0.28 0 0 0 0.12 -0.54 7.72 7.72 0 0 0 -1.66 -0.34c-0.2 0 -0.15 0 -0.15 -0.1 -0.01 -0.67 -0.21 -1.75 -0.22 -1.82Z" fill="#020202" fill-rule="evenodd" stroke-width="1"></path>
  </g>
</svg>