<svg xmlns="http://www.w3.org/2000/svg" viewBox="0 0 24 24" id="Artboard-Layers--Streamline-Freehand">
  <desc>
    Artboard Layers Streamline Icon: https://streamlinehq.com
  </desc>
  <g>
    <path d="M15 15c-0.6 0.61 -3.28 -0.12 -3.41 0.17 0 -0.1 0 0.28 -0.13 -4a0.3 0.3 0 0 0 -0.28 -0.3c-0.46 0 -0.33 0.83 -0.33 0.75 -0.2 3.91 -0.26 3.78 0 4.16 0.35 0.57 1.18 0.4 1.5 0.44 1.07 0.09 2.6 0.46 3.46 -0.4a2.33 2.33 0 0 0 0.59 -2.09 6.18 6.18 0 0 0 -0.1 -1.21 6.86 6.86 0 0 0 -0.39 -1.64c-0.26 -0.48 -0.43 -0.4 -4 -0.29a0.33 0.33 0 1 0 0 0.66c0.08 0 3.2 0.24 3.28 0.19a14 14 0 0 1 0.17 2.29c-0.02 0.66 0.04 0.92 -0.36 1.27Z" fill="#020202" fill-rule="evenodd" stroke-width="1"></path>
    <path d="M12.52 7.68c-0.65 0 -4.29 -0.14 -5.08 0.24s-0.54 2 -0.52 2.84 0 3 0.58 3.39a3 3 0 0 0 2.16 0 0.29 0.29 0 0 0 -0.11 -0.57c-2.1 0.34 -1.6 -0.18 -1.63 -0.6 0.14 -4.12 0.12 -3.88 0.19 -4.1 0.47 -0.13 3.3 -0.36 4.15 -0.4 0.05 0.59 0.06 1 0.42 0.94 0.37 0.08 0.34 -0.33 0.34 -0.61 0.03 -0.57 0.06 -1.11 -0.5 -1.13Z" fill="#020202" fill-rule="evenodd" stroke-width="1"></path>
    <path d="M18.75 18.25c0 -0.19 0 0.05 0.1 -2 0.6 -5.79 0 -4.88 0.26 -7.6 0.12 -3 0.14 -3 0.06 -3.19a0.56 0.56 0 0 0 -0.33 -0.28c-4 -1.25 -8 -0.38 -10 -0.27 -2.18 0.12 -2.77 0 -3 0.29 0 0 -0.14 0.51 0.31 0.51 4.69 0 7.93 -1 12 0.25a11.64 11.64 0 0 1 -0.11 2.6c-0.15 1.44 0 2.89 -0.07 4.3 -0.07 1.76 -0.22 1.86 -0.39 4.9 -0.67 0 0.84 0.16 -4.42 0.39 -0.87 0.05 -7.58 0.65 -7.91 0a6.84 6.84 0 0 1 -0.39 -2.93 67.32 67.32 0 0 1 0.3 -9c0.13 -0.77 0.39 -1.12 0 -1.26 -0.53 -0.21 -0.55 0.75 -0.63 1.14a71.8 71.8 0 0 0 -0.56 9.09c-0.06 4.25 0.7 4 2.74 4.16a51 51 0 0 0 6.46 -0.16c1.28 -0.05 2.54 -0.09 3.82 -0.25 0.65 -0.03 1.61 0.13 1.76 -0.69Z" fill="#020202" fill-rule="evenodd" stroke-width="1"></path>
    <path d="M0 5.25c-0.41 0.85 3 0.71 3.36 0.38a0.32 0.32 0 0 0 0 -0.46C3.13 4.81 0.31 4.68 0 5.25Z" fill="#4C57E6" fill-rule="evenodd" stroke-width="1"></path>
    <path d="M23.86 5.6c0.09 -0.12 0.18 -0.21 0.12 -0.35s0 -0.12 -0.1 -0.17c-0.42 -0.27 -3 -0.29 -3.26 0.09a0.32 0.32 0 0 0 0 0.46c0.65 0.66 3.15 0.09 3.24 -0.03Z" fill="#4C57E6" fill-rule="evenodd" stroke-width="1"></path>
    <path d="M0.15 18.42c-0.09 0.12 -0.18 0.22 -0.12 0.35a0.34 0.34 0 0 0 0.1 0.17c0.39 0.26 3 0.25 3.26 -0.08a0.33 0.33 0 0 0 0 -0.47c-0.39 -0.45 -3.06 -0.2 -3.24 0.03Z" fill="#4C57E6" fill-rule="evenodd" stroke-width="1"></path>
    <path d="M20.62 18.39a0.33 0.33 0 0 0 0 0.47c0.15 0.2 0.73 0.21 0.84 0.23a4.74 4.74 0 0 0 1.91 0l0.22 0c0.38 -0.07 0.34 -0.17 0.39 -0.27s0 -0.23 -0.12 -0.35a10.07 10.07 0 0 0 -3.24 -0.08Z" fill="#4C57E6" fill-rule="evenodd" stroke-width="1"></path>
    <path d="M4.83 3.82c0.09 0.13 0.16 0.24 0.3 0.24a0.3 0.3 0 0 0 0.36 -0.21c0 -0.08 0.24 -1.33 0.25 -1.41A6.19 6.19 0 0 0 5.67 1C5.57 0 5.08 0.28 5 0.68a13.53 13.53 0 0 0 -0.35 1.67 6.14 6.14 0 0 0 0.18 1.47Z" fill="#4C57E6" fill-rule="evenodd" stroke-width="1"></path>
    <path d="M18.53 0.39c-0.21 0.18 -0.1 -0.07 -0.26 1.19a8.22 8.22 0 0 0 0 0.86c0 0.07 0.25 1.29 0.26 1.43a0.3 0.3 0 0 0 0.35 0.19c0.14 0 0.21 -0.11 0.3 -0.24a5.92 5.92 0 0 0 0.2 -1.47 6.45 6.45 0 0 0 -0.15 -0.86c-0.1 -0.19 -0.16 -1.49 -0.7 -1.1Z" fill="#4C57E6" fill-rule="evenodd" stroke-width="1"></path>
    <path d="M18.53 3.87s0.01 0.02 0 0Z" fill="#020202" fill-rule="evenodd" stroke-width="1"></path>
    <path d="M5.49 20.17a0.3 0.3 0 0 0 -0.36 -0.17c-0.14 0 -0.21 0.12 -0.3 0.24a1.64 1.64 0 0 0 -0.12 0.6A6.52 6.52 0 0 0 5 23.51c0.18 0.22 0.34 0.21 0.45 0.12 0.39 -0.31 0.3 -1.8 0.06 -2.88a1.12 1.12 0 0 1 -0.02 -0.58Z" fill="#4C57E6" fill-rule="evenodd" stroke-width="1"></path>
    <path d="M19.18 20.2c-0.09 -0.12 -0.16 -0.23 -0.3 -0.24a0.3 0.3 0 0 0 -0.36 0.21 6.49 6.49 0 0 0 -0.18 2.83c0.1 1 0.59 0.76 0.69 0.37a13.53 13.53 0 0 0 0.35 -1.67 6 6 0 0 0 -0.2 -1.5Z" fill="#4C57E6" fill-rule="evenodd" stroke-width="1"></path>
  </g>
</svg>