<svg xmlns="http://www.w3.org/2000/svg" viewBox="0 0 24 24" id="Asian-Food-Fried-Prawn-Shrimp-Tempura--Streamline-Freehand">
  <desc>
    Asian Food Fried Prawn Shrimp Tempura Streamline Icon: https://streamlinehq.com
  </desc>
  <g>
    <path d="M23.45 1.09a2 2 0 0 0 -2 -0.79 3.92 3.92 0 0 0 -2.27 1.58 10.25 10.25 0 0 0 -1.29 2.34A8.64 8.64 0 0 0 17.48 3a5 5 0 0 0 -2.1 -2.48 3.79 3.79 0 0 0 -1.26 -0.44 2.51 2.51 0 0 0 -1 0.06A2.36 2.36 0 0 0 11.5 1.7a3.1 3.1 0 0 0 0.13 2.15 7.68 7.68 0 0 0 1.58 2.29A8.3 8.3 0 0 0 15 7.5a2.89 2.89 0 0 0 -0.94 1.86 3.62 3.62 0 0 0 0 0.87 5 5 0 0 0 0.07 0.52A3.21 3.21 0 0 0 13 12a3.38 3.38 0 0 0 -0.41 1.52 2.56 2.56 0 0 0 -0.79 0.1 3.3 3.3 0 0 0 -1.16 0.63 1.16 1.16 0 0 0 -0.24 -0.2 1.51 1.51 0 0 0 -0.28 -0.15 3 3 0 0 0 -1.67 -2.52 2.62 2.62 0 0 0 -3 0.61 2 2 0 0 0 -1.47 0 3.16 3.16 0 0 0 -1.67 1.61 2.83 2.83 0 0 0 -2 1.66 4.25 4.25 0 0 0 0.47 3.95 0.24 0.24 0 0 0 0.08 0.06 2.86 2.86 0 0 0 0.75 2.49 2.33 2.33 0 0 0 2.48 0.52A3.17 3.17 0 0 0 6 23.75a3.11 3.11 0 0 0 2.53 -0.33 3.23 3.23 0 0 0 2.32 0.47 2.79 2.79 0 0 0 1.92 -1.49 2.91 2.91 0 0 0 2.23 -0.66 2.71 2.71 0 0 0 0.57 -0.68 2.92 2.92 0 0 0 2.13 -1 5.13 5.13 0 0 0 1.2 -3.34 3.12 3.12 0 0 0 1 -1.66 5.54 5.54 0 0 0 -0.15 -2.77 3.89 3.89 0 0 0 0.36 -2.89 3.66 3.66 0 0 0 -0.33 -0.85A13.71 13.71 0 0 0 21 7.68a7.58 7.58 0 0 0 1 -0.88 7.85 7.85 0 0 0 1.48 -2.07A4.9 4.9 0 0 0 24 3a2.79 2.79 0 0 0 -0.55 -1.91Zm-10.9 2.39a2 2 0 0 1 0 -1.42 1.29 1.29 0 0 1 0.9 -0.84 1.38 1.38 0 0 1 0.67 0 2.87 2.87 0 0 1 0.76 0.27 4 4 0 0 1 1.77 1.86 11.32 11.32 0 0 1 1 3.45 2.83 2.83 0 0 0 -2.11 0.31 7.44 7.44 0 0 1 -1.73 -1.5 7.17 7.17 0 0 1 -1.26 -2.13Zm6.06 8.9a4.82 4.82 0 0 1 0.34 2 2.32 2.32 0 0 1 -0.79 1.71 0.49 0.49 0 0 0 -0.17 0.39 4.4 4.4 0 0 1 -0.56 2.59 2.55 2.55 0 0 1 -1.55 1.23 2.89 2.89 0 0 0 0.12 -1 0.32 0.32 0 0 0 -0.34 -0.32 0.33 0.33 0 0 0 -0.32 0.34 2.15 2.15 0 0 1 -0.84 1.79 2.11 2.11 0 0 1 -1.9 0.31 0.48 0.48 0 0 0 -0.56 0.27 1.9 1.9 0 0 1 -1.41 1.14 2.28 2.28 0 0 1 -1.78 -0.54 0.56 0.56 0 0 0 -0.7 0 2.12 2.12 0 0 1 -1.88 0.39 2.24 2.24 0 0 1 -1.51 -1.28 0.48 0.48 0 0 0 -0.28 -0.28 0.53 0.53 0 0 0 -0.41 0 1.59 1.59 0 0 1 -2 0 2.23 2.23 0 0 1 -0.6 -2.12 0.29 0.29 0 0 0 -0.22 -0.35h-0.06a3.59 3.59 0 0 1 -0.28 -2.6 2 2 0 0 1 1.8 -1.53 0.53 0.53 0 0 0 0.45 -0.36 2.15 2.15 0 0 1 0.91 -1.1 1 1 0 0 1 1.13 0A0.54 0.54 0 0 0 6 13a1.77 1.77 0 0 1 2.13 -0.8 2.12 2.12 0 0 1 1.26 1.53 2 2 0 0 0 -0.42 0 2.75 2.75 0 0 0 -1.39 0.8 0.3 0.3 0 0 0 -0.07 0.41 0.29 0.29 0 0 0 0.4 0.07A2.45 2.45 0 0 1 9 14.79a2.86 2.86 0 0 1 0.43 0 1.76 1.76 0 0 1 1.29 0.8 0.33 0.33 0 1 0 0.59 -0.29 2.7 2.7 0 0 0 -0.32 -0.66 3.21 3.21 0 0 1 0.7 -0.39 1.78 1.78 0 0 1 1.12 0 0.37 0.37 0 0 0 0.32 -0.06 0.39 0.39 0 0 0 0.13 -0.3 2.64 2.64 0 0 1 0.39 -1.51 2.43 2.43 0 0 1 1.15 -1 0.45 0.45 0 0 0 0.25 -0.51c0 -0.23 -0.07 -0.47 -0.09 -0.7a4 4 0 0 1 0 -0.69 2 2 0 0 1 1 -1.4 1.73 1.73 0 0 1 1.61 -0.14A2.48 2.48 0 0 1 19 9.65a2.81 2.81 0 0 1 -0.32 2.24 0.53 0.53 0 0 0 -0.07 0.49Zm3.81 -7.73a8.37 8.37 0 0 1 -1 1.58 7.81 7.81 0 0 1 -1.07 1.08c-0.31 0.24 -0.63 0.46 -0.95 0.68a3.33 3.33 0 0 0 -1 -0.88 16.88 16.88 0 0 0 -0.2 -1.69 11.14 11.14 0 0 1 1.75 -3 2.9 2.9 0 0 1 1.74 -1.1 0.91 0.91 0 0 1 0.9 0.41 1.74 1.74 0 0 1 0.32 1.17 4.63 4.63 0 0 1 -0.49 1.75Z" fill="#020202" fill-rule="evenodd" stroke-width="1"></path>
    <path d="M7.88 19.45a1.9 1.9 0 0 1 -1.8 0.17 3.77 3.77 0 0 1 -0.52 -0.21 2.5 2.5 0 0 1 -1.09 -0.86 0.3 0.3 0 0 0 -0.39 -0.15 0.3 0.3 0 0 0 -0.15 0.39A3 3 0 0 0 5 20.33a2.21 2.21 0 0 0 0.76 0.36 2.45 2.45 0 0 0 0.85 0.1 2.5 2.5 0 0 0 1.72 -0.85 0.33 0.33 0 0 0 0 -0.47 0.32 0.32 0 0 0 -0.45 -0.02Z" fill="#4C57E6" fill-rule="evenodd" stroke-width="1"></path>
  </g>
</svg>