<svg xmlns="http://www.w3.org/2000/svg" viewBox="0 0 24 24" id="Asian-Food-Chinese-Dumpling-Sauce-Tray--Streamline-Freehand">
  <desc>
    Asian Food Chinese Dumpling Sauce Tray Streamline Icon: https://streamlinehq.com
  </desc>
  <g>
    <path d="M18.49 16a7.34 7.34 0 0 0 -1.24 0 12.4 12.4 0 0 0 -2.76 0.69 0.29 0.29 0 0 0 -0.21 0.36 0.29 0.29 0 0 0 0.35 0.21 16.85 16.85 0 0 1 2.76 -0.2c0.6 0 1.2 0 1.79 0.07a8.1 8.1 0 0 1 1.76 0.3c0.47 0.24 1.35 -0.42 0.58 -0.72a4.82 4.82 0 0 0 -1.8 -0.58 7.4 7.4 0 0 0 -1.23 -0.13Z" fill="#4C57E6" fill-rule="evenodd" stroke-width="1"></path>
    <path d="M23.71 15.52a3.4 3.4 0 0 0 -1.32 -1.16 6.68 6.68 0 0 0 -2 -0.61 24.37 24.37 0 0 0 -6.36 0.08 5.2 5.2 0 0 0 -2.12 1 5.4 5.4 0 0 0 -0.75 0.71 2.09 2.09 0 0 0 -0.37 0.69 1.65 1.65 0 0 0 0.14 1.3c0.05 0.09 0.11 0.17 0.16 0.25a9.25 9.25 0 0 0 1.25 3.09 6.47 6.47 0 0 0 2.48 2.25 5.19 5.19 0 0 0 3.34 0.42A6.35 6.35 0 0 0 21.11 22a8.2 8.2 0 0 0 2.57 -4.54 1.6 1.6 0 0 0 0.3 -0.68 1.88 1.88 0 0 0 -0.27 -1.26Zm-3.24 5.74a6.1 6.1 0 0 1 -2 1.06 4.35 4.35 0 0 1 -3.19 -0.18 5.83 5.83 0 0 1 -2.63 -2.41 7.17 7.17 0 0 1 -0.46 -0.92 3.78 3.78 0 0 0 0.49 0.25q0.3 0.12 0.6 0.21a9 9 0 0 0 1.14 0.26c0.38 0.06 0.76 0.1 1.14 0.13a15 15 0 0 0 3.2 -0.1 11.71 11.71 0 0 0 3.09 -0.88c0.17 -0.08 0.46 -0.2 0.76 -0.36a7.32 7.32 0 0 1 -2.14 2.94ZM23 16.65c-0.16 0.78 -2.88 1.6 -4.41 1.81a14.7 14.7 0 0 1 -3 0.09c-0.35 0 -0.7 -0.06 -1.05 -0.11a8.62 8.62 0 0 1 -1 -0.21l-1 -0.36a2.43 2.43 0 0 1 -0.73 -0.65 0.82 0.82 0 0 1 -0.22 -0.72A1.38 1.38 0 0 1 12 16a4.9 4.9 0 0 1 0.51 -0.51 4.26 4.26 0 0 1 1.76 -0.93c2.29 -0.68 6 0 6 0a6 6 0 0 1 1.73 0.6 2.66 2.66 0 0 1 0.82 0.7 1.06 1.06 0 0 1 0.18 0.79Z" fill="#020202" fill-rule="evenodd" stroke-width="1"></path>
    <path d="M11.63 4.13c0.21 0.06 0.44 0.26 0.52 0.19s0 0.08 0 0.13a0.86 0.86 0 0 0 0.09 0.3 0.85 0.85 0 0 0 0.2 0.23 1.8 1.8 0 0 0 0.71 0.34 5.27 5.27 0 0 0 1 0.15 4.56 4.56 0 0 0 1.2 -0.1c0.28 0 0.85 -0.13 1.49 -0.2 -0.05 0.42 -0.1 0.84 -0.11 1.27l0 0.83a7.6 7.6 0 0 0 0.16 0.83 6.5 6.5 0 0 0 0.74 1.84 0.32 0.32 0 0 0 0.43 0.17 0.34 0.34 0 0 0 0.16 -0.44 6 6 0 0 1 -0.22 -1l0 -1.01c0 -0.34 -0.06 -0.68 -0.11 -1 -0.07 -0.52 -0.16 -1 -0.24 -1.55L20 4.83a4.19 4.19 0 0 0 1.07 -0.27c0 0.14 -0.05 0.28 -0.06 0.43a6.94 6.94 0 0 0 0.12 1.75c0.18 0.71 0.5 1.39 0.68 2.1a3.05 3.05 0 0 1 0.14 0.8 9.88 9.88 0 0 1 0 1.21 6.64 6.64 0 0 1 -0.2 1.15 0.33 0.33 0 1 0 0.62 0.21 7 7 0 0 0 0.38 -1.21A12.26 12.26 0 0 0 23 9.68a3.58 3.58 0 0 0 -0.07 -1.09c-0.15 -0.73 -0.49 -1.41 -0.69 -2.13A5.94 5.94 0 0 1 21.87 5a8.21 8.21 0 0 1 0 -1.11 0.6 0.6 0 0 0 0.06 -0.11 1.19 1.19 0 0 0 -0.28 -1.37 2.65 2.65 0 0 0 -1.23 -0.58 1.38 1.38 0 0 0 -0.63 -0.83 3.53 3.53 0 0 0 -1.67 -0.55h-0.6l-0.77 0.1 -0.56 0.19 -0.25 -0.12a3.28 3.28 0 0 0 -0.77 -0.21 3.69 3.69 0 0 0 -2 0.17 2.27 2.27 0 0 0 -1 0.71 4.34 4.34 0 0 0 -0.9 0.12 2.1 2.1 0 0 0 -0.58 0.29l-0.41 0.39c-0.51 0.66 -0.37 1.11 0 1.45a3.35 3.35 0 0 0 1.35 0.59Zm5.35 0.3c-0.75 0.07 -1.43 0.13 -1.76 0.19a3.63 3.63 0 0 1 -1 0 4.9 4.9 0 0 1 -0.69 -0.11 1.25 1.25 0 0 1 -0.48 -0.22s0 -0.05 0 -0.08A1 1 0 0 0 13 4a0.8 0.8 0 0 0 -0.12 -0.27 3.5 3.5 0 0 0 -1.28 -0.62 2.65 2.65 0 0 1 -0.45 -0.19 0.5 0.5 0 0 1 -0.07 -0.08 1 1 0 0 1 0.07 -0.1l0.23 -0.19a0.86 0.86 0 0 1 0.35 -0.12c0.27 -0.05 0.59 -0.05 0.87 -0.08a0.53 0.53 0 0 0 0.4 -0.25 1.38 1.38 0 0 1 0.82 -0.56 2.93 2.93 0 0 1 1.18 0 3.54 3.54 0 0 1 0.44 0.11 0.67 0.67 0 0 1 0.29 0.15 0.56 0.56 0 0 0 0.58 0.11l0.69 -0.3 0.58 -0.08 0.48 0a2.57 2.57 0 0 1 1 0.2c0.22 0.09 0.43 0.19 0.4 0.41a0.5 0.5 0 0 0 0.09 0.36 0.44 0.44 0 0 0 0.33 0.18 2.8 2.8 0 0 1 1 0.26 0.47 0.47 0 0 1 0.25 0.58l-0.12 0.21a2.37 2.37 0 0 1 -1.13 0.44c-0.38 0.06 -1.42 0.15 -2.45 0.24Z" fill="#020202" fill-rule="evenodd" stroke-width="1"></path>
    <path d="m6.44 8.28 0.49 0.12 0.57 -0.07 0.33 -0.15a0.87 0.87 0 0 0 0.44 -0.66 0.71 0.71 0 0 0 -0.41 -0.69 1.18 1.18 0 0 0 -0.35 -0.11 2.06 2.06 0 0 0 -0.43 0H7a1.88 1.88 0 0 0 -0.34 0 1.21 1.21 0 0 0 -0.42 0.13 0.8 0.8 0 0 0 -0.38 0.55 0.82 0.82 0 0 0 0.28 0.7Z" fill="#4C57E6" fill-rule="evenodd" stroke-width="1"></path>
    <path d="m15.56 3.59 0.43 0.1 0.48 -0.06 0.29 -0.13a0.8 0.8 0 0 0 0.39 -0.61 0.62 0.62 0 0 0 -0.37 -0.63 0.91 0.91 0 0 0 -0.31 -0.09 2 2 0 0 0 -0.35 0h-0.07a1.9 1.9 0 0 0 -0.34 0 1.06 1.06 0 0 0 -0.3 0.1c-0.23 0.09 -0.28 0.31 -0.34 0.5s0.07 0.41 0.25 0.64Z" fill="#4C57E6" fill-rule="evenodd" stroke-width="1"></path>
    <path d="m9.73 20.22 -1.09 0.23a8.33 8.33 0 0 1 -4.47 -0.64 4.93 4.93 0 0 1 -2.89 -3.06 4.28 4.28 0 0 1 -0.14 -1.88c0.12 -1 0.43 -2.1 0.61 -3.1A9.08 9.08 0 0 0 1.9 10a13 13 0 0 0 -0.09 -1.65 6.15 6.15 0 0 0 0.82 0.29c0.8 0.22 0.54 0.3 0.47 2.09l0 1.25 0 1.88a0.33 0.33 0 0 0 0.28 0.38 0.34 0.34 0 0 0 0.41 -0.24 13.46 13.46 0 0 0 0.38 -1.89c0 -0.28 0 -0.55 0.06 -0.83a5.64 5.64 0 0 0 -0.05 -0.82c0 -0.21 -0.06 -0.42 -0.1 -0.63l0.08 0a5.27 5.27 0 0 0 1 0.15 4.52 4.52 0 0 0 1.2 -0.1c0.28 -0.06 0.85 -0.13 1.49 -0.2a7.57 7.57 0 0 0 -0.09 1 5.83 5.83 0 0 0 0.06 0.73 6 6 0 0 0 0.17 0.73 6.51 6.51 0 0 0 0.75 1.57 0.32 0.32 0 0 0 0.44 0.16 0.34 0.34 0 0 0 0.15 -0.45c-0.09 -0.27 -0.16 -0.56 -0.23 -0.86s-0.1 -0.49 -0.1 -0.79 -0.07 -0.58 -0.13 -0.88 -0.16 -0.83 -0.24 -1.27L11 9.37A3.81 3.81 0 0 0 12.28 9a3.74 3.74 0 0 0 0 0.58 4.56 4.56 0 0 0 0.25 1 5.38 5.38 0 0 0 0.31 0.64l0.89 1.25a0.33 0.33 0 0 0 0.58 -0.32l-0.55 -1.36a9.57 9.57 0 0 1 -0.31 -1c-0.1 -0.35 -0.22 -0.67 -0.3 -1S13 8.3 13 8a1.18 1.18 0 0 0 -0.35 -1.11 2.67 2.67 0 0 0 -1.23 -0.59 1.38 1.38 0 0 0 -0.62 -0.84A3.67 3.67 0 0 0 9.12 5h-0.59l-0.78 0.1 -0.56 0.19a1.42 1.42 0 0 0 -0.25 -0.12A3.16 3.16 0 0 0 6.17 5a3.6 3.6 0 0 0 -2 0.17 2.47 2.47 0 0 0 -1 0.7 5.27 5.27 0 0 0 -0.9 0.13 1.76 1.76 0 0 0 -0.58 0.29l-0.41 0.39c-0.41 0.53 -0.39 0.93 -0.18 1.24 0 0.56 0.05 1.14 0 1.72a9.27 9.27 0 0 1 -0.28 2c-0.25 1 -0.66 2.08 -0.82 3.15a5.05 5.05 0 0 0 0.13 2.35 6 6 0 0 0 3.57 3.65 9.14 9.14 0 0 0 5 0.43l1.17 -0.31a0.33 0.33 0 1 0 -0.2 -0.63ZM8 9c-0.74 0.07 -1.43 0.13 -1.76 0.19a3.63 3.63 0 0 1 -1 0 4.9 4.9 0 0 1 -0.69 -0.11 1.41 1.41 0 0 1 -0.48 -0.22s0 -0.06 0 -0.08a1 1 0 0 0 0 -0.24 0.64 0.64 0 0 0 -0.12 -0.27 3.34 3.34 0 0 0 -1.28 -0.62 4.68 4.68 0 0 1 -0.45 -0.19l-0.07 -0.08a0.72 0.72 0 0 0 0.07 -0.11l0.23 -0.18A0.77 0.77 0 0 1 2.72 7c0.28 0 0.59 0 0.87 -0.08A0.56 0.56 0 0 0 4 6.64a1.34 1.34 0 0 1 0.82 -0.56A2.76 2.76 0 0 1 6 6.05a1.77 1.77 0 0 1 0.44 0.11 0.66 0.66 0 0 1 0.29 0.14 0.56 0.56 0 0 0 0.58 0.12L8 6.15l0.58 -0.09h0.52a2.55 2.55 0 0 1 1 0.2c0.22 0.09 0.43 0.19 0.4 0.41a0.56 0.56 0 0 0 0.09 0.36 0.48 0.48 0 0 0 0.33 0.18 2.75 2.75 0 0 1 1 0.26 0.48 0.48 0 0 1 0.26 0.57l-0.13 0.21a2.28 2.28 0 0 1 -1.13 0.45c-0.38 0.06 -1.42 0.15 -2.45 0.24Z" fill="#020202" fill-rule="evenodd" stroke-width="1"></path>
  </g>
</svg>