<svg xmlns="http://www.w3.org/2000/svg" viewBox="0 0 24 24" id="Asian-Food-Noodles--Streamline-Freehand">
  <desc>
    Asian Food Noodles Streamline Icon: https://streamlinehq.com
  </desc>
  <g>
    <path d="M2.77 8.7a2.12 2.12 0 0 1 -0.91 0 1.17 1.17 0 0 1 -0.55 -0.41c-0.13 0.05 -0.05 -0.38 -0.07 -0.67a12.62 12.62 0 0 1 -0.08 -1.38c0 -0.38 0 -0.7 0.1 -0.81A0.3 0.3 0 0 0 1.32 5a0.31 0.31 0 0 0 -0.42 -0.08 3.78 3.78 0 0 0 -0.8 2.27 4.52 4.52 0 0 0 0 1.08A1.31 1.31 0 0 0 0.45 9a2.18 2.18 0 0 0 1.24 0.6A2.83 2.83 0 0 0 3 9.36a0.34 0.34 0 0 0 0.23 -0.42 0.33 0.33 0 0 0 -0.46 -0.24Z" fill="#020202" stroke-width="1"></path>
    <path d="m1.26 8.19 0.05 0.07s-0.04 -0.05 -0.05 -0.07Z" fill="#020202" stroke-width="1"></path>
    <path d="M23.6 7.73c-0.4 -0.05 -1.15 -0.14 -2 -0.17h-0.86c-0.29 0 -0.58 0 -0.86 0.06 -0.76 0.1 -1.45 0.26 -2 0.36a0.31 0.31 0 0 0 -0.28 0.32 0.3 0.3 0 0 0 0.32 0.28c0.54 0 1.25 0.12 2 0.14l0.86 0 0.85 -0.07c0.85 -0.09 1.57 -0.2 2 -0.23a0.34 0.34 0 0 0 0.36 -0.32 0.35 0.35 0 0 0 -0.39 -0.37Z" fill="#020202" stroke-width="1"></path>
    <path d="M16.44 6.16A3 3 0 0 0 16 7.89a9.84 9.84 0 0 0 0.71 2.38 7.54 7.54 0 0 1 0.51 1.89 2.33 2.33 0 0 1 -0.12 1.11A24.4 24.4 0 0 0 16 16a3.8 3.8 0 0 0 -0.1 1.38 3.4 3.4 0 0 0 0.35 1.11c0.36 0.71 0.92 1.39 1.23 2a1.88 1.88 0 0 1 0.23 1.14 5.4 5.4 0 0 1 -0.67 1.87 0.34 0.34 0 1 0 0.59 0.33 6.33 6.33 0 0 0 0.87 -2.1 2.78 2.78 0 0 0 -0.2 -1.73c-0.25 -0.52 -0.66 -1.13 -1 -1.74a3 3 0 0 1 -0.3 -1.02 3.51 3.51 0 0 1 0.23 -1.36c0.27 -0.76 0.66 -1.5 0.93 -2.2a3.45 3.45 0 0 0 0.15 -1.68 9.19 9.19 0 0 0 -0.67 -2.14 8.63 8.63 0 0 1 -0.82 -2.08 2.25 2.25 0 0 1 0.27 -1.29 4.87 4.87 0 0 1 0.49 -0.7c0.11 -0.14 0.23 -0.29 0.37 -0.44 0.07 -0.35 -0.61 -0.42 -0.9 0a5 5 0 0 0 -0.61 0.81Z" fill="#4C57E6" stroke-width="1"></path>
    <path d="M12.54 5.93a5 5 0 0 0 -0.71 2 4 4 0 0 0 0.29 1.75c0.4 1.07 1.19 2 1.33 3.26a2.21 2.21 0 0 1 -0.17 0.81c-0.22 0.69 -0.58 1.54 -0.83 2.4a7.07 7.07 0 0 0 -0.29 1.65 2.57 2.57 0 0 0 0.37 1.36 10.17 10.17 0 0 1 1.36 2.18 1.38 1.38 0 0 1 0 0.78c-0.12 0.45 -0.38 0.85 -0.56 1.33a0.34 0.34 0 0 0 0.19 0.45 0.35 0.35 0 0 0 0.44 -0.2c0.21 -0.49 0.51 -0.9 0.66 -1.36a2.2 2.2 0 0 0 0.06 -1.18 11.1 11.1 0 0 0 -1.3 -2.45 1.68 1.68 0 0 1 -0.19 -0.85 17.69 17.69 0 0 1 1.2 -3.86 3.15 3.15 0 0 0 0.19 -1.26 5.92 5.92 0 0 0 -0.81 -2.15 9.11 9.11 0 0 1 -0.92 -1.78A2.88 2.88 0 0 1 12.7 8a4 4 0 0 1 0.47 -1.67 3.19 3.19 0 0 1 0.46 -0.71c0.17 -0.31 -0.46 -0.46 -0.71 -0.17s-0.27 0.3 -0.38 0.48Z" fill="#4C57E6" stroke-width="1"></path>
    <path d="M3.57 6.19a3.33 3.33 0 0 0 -0.23 1.4 4.69 4.69 0 0 0 0.24 1.3 11.42 11.42 0 0 0 1.2 2.21 4.51 4.51 0 0 1 0.75 2 2.64 2.64 0 0 1 -0.17 1.17c-0.39 1.1 -1.21 2 -1.44 3.14a3.17 3.17 0 0 0 0 1.41c0.21 0.9 0.79 1.64 1 2.62a2.57 2.57 0 0 1 0 1 4 4 0 0 1 -0.41 1 0.33 0.33 0 0 0 0.12 0.46 0.34 0.34 0 0 0 0.47 -0.12 4.6 4.6 0 0 0 0.54 -1.17 3.14 3.14 0 0 0 0.06 -1.35c-0.15 -1 -0.68 -1.76 -0.84 -2.67a2.24 2.24 0 0 1 0 -1 5.14 5.14 0 0 1 0.66 -1.38 9 9 0 0 0 0.85 -1.59A3.62 3.62 0 0 0 6.66 13a4.64 4.64 0 0 0 -0.33 -1.32 8.85 8.85 0 0 0 -1.08 -1.76 4.82 4.82 0 0 1 -1.1 -2.4 2.7 2.7 0 0 1 0.1 -1.1 4.06 4.06 0 0 1 0.28 -0.73c0.11 -0.31 -0.59 -0.42 -0.68 -0.13a4.34 4.34 0 0 0 -0.28 0.63Z" fill="#4C57E6" stroke-width="1"></path>
    <path d="m23.6 4.05 -1.06 0c-1.45 0 -3.45 -0.1 -4.38 0 -0.56 0 -1.48 0.08 -2.45 0.1l-3.71 0 -7.7 -0.03C3.76 4.06 3 4 2.32 3.85a2.32 2.32 0 0 1 -1 -0.34c-0.12 -0.11 -0.12 -0.4 -0.14 -0.7a3.06 3.06 0 0 1 0.07 -0.95c0.09 -0.3 0.44 -0.4 0.83 -0.49a7 7 0 0 1 1.47 -0.15c1.33 0 2.72 -0.11 4.13 -0.15l1.74 0 5 -0.06 4.35 -0.1 4.84 -0.05a0.3 0.3 0 0 0 0.3 -0.3 0.31 0.31 0 0 0 -0.31 -0.3L18.77 0.18 14.45 0.12l-5 -0.12 -1.79 0C6.25 0 4.87 0.09 3.54 0.09A6 6 0 0 0 1.09 0.5a1.64 1.64 0 0 0 -0.94 1 4.42 4.42 0 0 0 -0.09 1.65 2.1 2.1 0 0 0 0.5 1.22 3 3 0 0 0 1.18 0.52 19.46 19.46 0 0 0 4.83 0.35c0.73 0 8.59 -0.18 9.17 -0.21 2.5 -0.1 2.36 -0.13 6.81 -0.24 0.44 0 0.83 0 1.12 -0.06a0.34 0.34 0 0 0 0.3 -0.38 0.34 0.34 0 0 0 -0.37 -0.3Z" fill="#020202" stroke-width="1"></path>
    <path d="M7.9 6.72a3.66 3.66 0 0 0 -0.33 1.71c0.1 1.47 1 2.65 1.4 4a3.62 3.62 0 0 1 0.21 1.52 3 3 0 0 1 -0.72 1.56 5 5 0 0 0 -0.74 1.35 2.62 2.62 0 0 0 -0.09 1.06 3.34 3.34 0 0 0 0.23 0.89 24.31 24.31 0 0 1 1.39 2.73 1.66 1.66 0 0 1 0 0.73c-0.07 0.41 -0.23 0.78 -0.33 1.28a0.36 0.36 0 0 0 0.26 0.41 0.35 0.35 0 0 0 0.41 -0.26c0.12 -0.5 0.31 -0.88 0.4 -1.29a2.56 2.56 0 0 0 0 -1 15.15 15.15 0 0 0 -1.13 -2.58 2.93 2.93 0 0 1 -0.26 -1 2 2 0 0 1 0.44 -1.26 9 9 0 0 0 1 -1.52 2.89 2.89 0 0 0 0.26 -1 4.77 4.77 0 0 0 -0.29 -2c-0.47 -1.26 -1.42 -2.31 -1.6 -3.71A2.91 2.91 0 0 1 8.59 7a5.11 5.11 0 0 1 0.8 -1.39c0 -0.35 -0.5 -0.26 -0.79 0.13a3.75 3.75 0 0 0 -0.7 0.98Z" fill="#4C57E6" stroke-width="1"></path>
  </g>
</svg>