<svg xmlns="http://www.w3.org/2000/svg" viewBox="0 0 24 24" id="Asian-Food-Mooncake-1--Streamline-Freehand">
  <desc>
    Asian Food Mooncake 1 Streamline Icon: https://streamlinehq.com
  </desc>
  <g>
    <path d="M6.45 8.37c0.32 0.07 0.62 0.14 1 0.19l0.41 0a2.73 2.73 0 0 0 0.41 0 4 4 0 0 0 0.52 -0.13 1.69 1.69 0 0 0 0.74 1.05l-0.23 0.12a1.75 1.75 0 0 0 -0.23 0.24c-0.17 0.21 -0.3 0.42 -0.45 0.64a0.32 0.32 0 0 0 0 0.47 0.33 0.33 0 0 0 0.47 0l0.68 -0.33a2.4 2.4 0 0 0 0.26 -0.18 1 1 0 0 0 0.23 -0.22 2.18 2.18 0 0 0 0.22 -0.31l0.16 0.06a6.8 6.8 0 0 0 3.26 -0.1 2.63 2.63 0 0 0 0.28 0.4 1.37 1.37 0 0 0 0.25 0.23 1.61 1.61 0 0 0 0.28 0.17 7.71 7.71 0 0 0 0.73 0.32 0.34 0.34 0 0 0 0.41 -0.53c-0.18 -0.21 -0.32 -0.42 -0.5 -0.62l-0.23 -0.23a2.2 2.2 0 0 0 -0.25 -0.17 1.8 1.8 0 0 0 0.92 -1s0 -0.05 0 -0.07c0.27 0 0.54 0.1 0.82 0.13a3 3 0 0 0 0.52 0 4.55 4.55 0 0 0 0.52 0c0.41 -0.06 0.81 -0.15 1.21 -0.23a0.34 0.34 0 0 0 0.33 -0.34 0.33 0.33 0 0 0 -0.35 -0.32c-0.4 -0.06 -0.8 -0.13 -1.22 -0.17l-0.51 0a3.08 3.08 0 0 0 -0.53 0c-0.33 0 -0.64 0.13 -1 0.21a2.33 2.33 0 0 0 -0.53 -0.56l-0.34 -0.21 0.24 -0.1a2.39 2.39 0 0 0 0.34 -0.21 2.61 2.61 0 0 0 0.31 -0.27c0.23 -0.22 0.43 -0.46 0.64 -0.7a0.33 0.33 0 0 0 0.08 -0.46 0.33 0.33 0 0 0 -0.46 -0.08c-0.3 0.13 -0.59 0.24 -0.87 0.39l-0.35 0.2a1.94 1.94 0 0 0 -0.31 0.26c-0.2 0.2 -0.36 0.41 -0.54 0.62a5.51 5.51 0 0 0 -3.23 -0.17c-0.13 -0.17 -0.25 -0.34 -0.39 -0.5a3.44 3.44 0 0 0 -0.27 -0.27 2.34 2.34 0 0 0 -0.31 -0.24A7.38 7.38 0 0 0 8.76 5a0.29 0.29 0 0 0 -0.42 0 0.3 0.3 0 0 0 0 0.41c0.19 0.26 0.33 0.52 0.53 0.76a1.85 1.85 0 0 0 0.28 0.28 3.55 3.55 0 0 0 0.31 0.23l0.17 0.09a2.06 2.06 0 0 0 -0.81 0.86 5.88 5.88 0 0 0 -0.66 -0.14 1.73 1.73 0 0 0 -0.4 0 3 3 0 0 0 -0.41 0c-0.33 0 -0.62 0.13 -0.95 0.2a0.33 0.33 0 1 0 0 0.66ZM14 7.23l0.34 0.17 0.32 0.24a1.54 1.54 0 0 1 0.29 0.34 0.28 0.28 0 0 1 0.06 0.22 0.6 0.6 0 0 1 -0.32 0.33 3.64 3.64 0 0 1 -1.51 0.47 5.57 5.57 0 0 1 -2.27 -0.12l-0.75 -0.32c-0.77 -0.46 -0.15 -1.07 0.77 -1.39a5 5 0 0 1 3.07 0.06Z" fill="#4C57E6" fill-rule="evenodd" stroke-width="1"></path>
    <path d="M24 11.43q-0.06 -1.35 -0.15 -2.7a1.8 1.8 0 0 0 -0.48 -2A3.9 3.9 0 0 0 22 5.82a8.46 8.46 0 0 0 -1.74 -0.51 2.21 2.21 0 0 0 -0.87 -1.91 5.58 5.58 0 0 0 -3.29 -1.14 9.44 9.44 0 0 0 -2.2 0.15 11.9 11.9 0 0 0 -2 0.53 11.83 11.83 0 0 0 -2.13 -0.55 9.76 9.76 0 0 0 -2.23 -0.12 5.19 5.19 0 0 0 -3.22 1.22 2.12 2.12 0 0 0 -0.78 1.92 7.88 7.88 0 0 0 -1.68 0.52 4 4 0 0 0 -1.32 0.91A1.83 1.83 0 0 0 0.24 9l0 3.21 0 1.75A5.65 5.65 0 0 0 1 16.73a4.08 4.08 0 0 0 2 1.68 3.55 3.55 0 0 0 1 2.14 4.18 4.18 0 0 0 2.4 1.12 6.3 6.3 0 0 0 2.23 -0.11c1 -0.22 1.86 -0.62 2.94 -0.88a0.46 0.46 0 0 1 0.32 0.06c0.32 0.13 0.64 0.34 1 0.44a9.48 9.48 0 0 0 4.92 0.38 3.74 3.74 0 0 0 2.59 -2.32 3 3 0 0 0 0.19 -0.67 1.28 1.28 0 0 0 0.05 -0.27l0.8 -0.1a2.58 2.58 0 0 0 0.6 -0.16 2.85 2.85 0 0 0 1.51 -1.53 8.19 8.19 0 0 0 0.45 -2.93l0 -2.15Zm-22.71 -4a2.87 2.87 0 0 1 1 -0.71 8.19 8.19 0 0 1 1.92 -0.58 0.43 0.43 0 0 0 0.31 -0.23 0.42 0.42 0 0 0 0 -0.38c-0.31 -0.6 0 -1.27 0.77 -1.78A5.18 5.18 0 0 1 7.62 3a9.45 9.45 0 0 1 2.06 0.07 11.28 11.28 0 0 1 2 0.49 0.31 0.31 0 0 0 0.28 0A12.16 12.16 0 0 1 14 3a9.4 9.4 0 0 1 2 -0.06 4.73 4.73 0 0 1 2.82 1 1.29 1.29 0 0 1 0.5 1.5 0.41 0.41 0 0 0 0 0.36 0.44 0.44 0 0 0 0.29 0.21 7.85 7.85 0 0 1 2 0.57 3.27 3.27 0 0 1 1 0.7 1 1 0 0 1 0.08 1.36 4.1 4.1 0 0 1 -2.54 1.23 0.52 0.52 0 0 0 -0.39 0.72c0.26 0.64 -0.31 1.25 -1.22 1.7a6.07 6.07 0 0 1 -2.72 0.61 10.34 10.34 0 0 1 -1.75 -0.15 14.91 14.91 0 0 1 -1.72 -0.4 0.55 0.55 0 0 0 -0.31 0l-1.95 0.4c-0.39 0.06 -0.77 0.12 -1.15 0.16a6.82 6.82 0 0 1 -1.11 0 6 6 0 0 1 -2.51 -0.65c-0.81 -0.44 -1.33 -1 -1.12 -1.61a0.54 0.54 0 0 0 0 -0.43 0.49 0.49 0 0 0 -0.34 -0.22 4.37 4.37 0 0 1 -2.61 -1.2 1 1 0 0 1 0 -1.35Zm21.94 6.11a6.86 6.86 0 0 1 -0.38 2.6 2 2 0 0 1 -1.08 1 2.23 2.23 0 0 1 -0.37 0.07c-0.41 0.06 -0.92 0.08 -1.17 0.12a0.46 0.46 0 0 0 -0.4 0.43c0 0.18 -0.06 0.37 -0.1 0.54a2.88 2.88 0 0 1 -0.15 0.5 2.77 2.77 0 0 1 -1.94 1.66 8.42 8.42 0 0 1 -4.33 -0.42c-0.36 -0.11 -0.72 -0.37 -1.08 -0.48a1.42 1.42 0 0 0 -0.79 0c-1.08 0.26 -2 0.66 -2.94 0.88a4.92 4.92 0 0 1 -1.82 0.13 3.13 3.13 0 0 1 -1.84 -0.79A2.62 2.62 0 0 1 4 18a0.5 0.5 0 0 0 -0.34 -0.43 3.28 3.28 0 0 1 -1.88 -1.34A4.9 4.9 0 0 1 1 13.94c0 -0.57 -0.07 -1.14 -0.09 -1.71 0 -0.81 0 -1.62 -0.05 -2.43a5.53 5.53 0 0 0 2.32 1.12 1.67 1.67 0 0 0 0.07 0.54 9.42 9.42 0 0 0 -0.14 1.29c0 0.4 0 0.81 0.06 1.21 0.06 0.6 0.17 1.18 0.23 1.78a0.33 0.33 0 0 0 0.31 0.34 0.34 0.34 0 0 0 0.35 -0.33A17.58 17.58 0 0 0 4.23 14a6.26 6.26 0 0 0 0 -0.75l0 -0.41 0.11 0.09a6.59 6.59 0 0 0 3.5 1.17 8.85 8.85 0 0 0 1 0c0.49 0 1 -0.1 1.48 -0.18l1.46 -0.3c-0.07 0.36 -0.13 0.71 -0.18 1.08a5.83 5.83 0 0 0 -0.06 0.72l0 0.71c0 0.57 0.11 1.12 0.18 1.69a0.33 0.33 0 1 0 0.66 0c0.06 -0.55 0.16 -1.09 0.22 -1.65 0 -0.23 0.05 -0.47 0.06 -0.7s0 -0.48 0 -0.72 -0.07 -0.75 -0.12 -1.12c0.45 0.12 0.92 0.23 1.39 0.31a11.53 11.53 0 0 0 1.94 0.15 6.67 6.67 0 0 0 3.8 -1.11 2.31 2.31 0 0 0 0.24 -0.2 5.46 5.46 0 0 0 0 0.7l0 0.77c0 0.61 0.11 1.2 0.17 1.81a0.33 0.33 0 0 0 0.32 0.34 0.32 0.32 0 0 0 0.34 -0.32c0.08 -0.61 0.17 -1.21 0.22 -1.82l0 -0.78 0 -0.78c0 -0.41 -0.11 -0.8 -0.17 -1.2a1.82 1.82 0 0 0 0.08 -0.65 5.13 5.13 0 0 0 2.25 -1.17l0 1.81c0 0.6 0.1 1.37 0.07 2.07Z" fill="#020202" fill-rule="evenodd" stroke-width="1"></path>
  </g>
</svg>