<svg xmlns="http://www.w3.org/2000/svg" viewBox="0 0 24 24" id="Asian-Food-Samosa--Streamline-Freehand">
  <desc>
    Asian Food Samosa Streamline Icon: https://streamlinehq.com
  </desc>
  <g>
    <path d="M10.86 14.74a4.12 4.12 0 0 0 -1.07 -0.58 14.39 14.39 0 0 0 -5.19 -0.49 8.54 8.54 0 0 0 -3.36 1.17 3.48 3.48 0 0 0 -0.39 0.28 2.06 2.06 0 0 0 -0.26 0.25 2.08 2.08 0 0 0 -0.54 1.39 7.35 7.35 0 0 0 0.26 3 5.62 5.62 0 0 0 1.63 2.6 6 6 0 0 0 2 1.13 6.5 6.5 0 0 0 3.36 0.19 5.85 5.85 0 0 0 4.25 -3.39 5.38 5.38 0 0 0 0.36 -1.39 8.45 8.45 0 0 0 0 -1.67 2.05 2.05 0 0 0 0 -0.7 2.74 2.74 0 0 0 -1.05 -1.79ZM1.36 16l0.39 -0.35a7.56 7.56 0 0 1 3 -1.22 9.86 9.86 0 0 1 4.57 0.32 3.64 3.64 0 0 1 1.09 0.6 1.9 1.9 0 0 1 0.71 1.25 1.08 1.08 0 0 1 -0.61 1 8.87 8.87 0 0 1 -3.75 1 12.09 12.09 0 0 1 -3.91 -0.32 2.74 2.74 0 0 1 -1.47 -1A1.07 1.07 0 0 1 1.36 16Zm9.36 3.91A4.94 4.94 0 0 1 7 22.55a5.85 5.85 0 0 1 -2.79 -0.15 5.05 5.05 0 0 1 -1.67 -0.84 4.83 4.83 0 0 1 -1.52 -2.08 6.1 6.1 0 0 1 -0.31 -1.11 4.09 4.09 0 0 0 1.76 1.05 12.6 12.6 0 0 0 4.31 0.34A9.53 9.53 0 0 0 11 18.45a1.73 1.73 0 0 0 0.21 -0.17 0.91 0.91 0 0 1 0 0.17 4.8 4.8 0 0 1 -0.49 1.46Z" fill="#020202" fill-rule="evenodd" stroke-width="1"></path>
    <path d="M24 12.43a9.77 9.77 0 0 0 -1.14 -3.54 0.34 0.34 0 0 0 -0.61 0.3 9.17 9.17 0 0 1 1 3.29 2.93 2.93 0 0 1 -0.54 2 1.75 1.75 0 0 1 -0.79 0.58 5.55 5.55 0 0 1 -1.66 0.26h-1.57A12.6 12.6 0 0 1 14.8 15a2.61 2.61 0 0 1 -1.73 -1.33 2.37 2.37 0 0 1 -0.23 -1.21 6.49 6.49 0 0 1 0.21 -1.46A13.71 13.71 0 0 1 14 8.19a8.49 8.49 0 0 1 1.6 -2.43 3.44 3.44 0 0 1 1.94 -1 2.9 2.9 0 0 1 2.1 0.55 4.83 4.83 0 0 1 0.83 0.8c0.8 1 0.89 1.93 1.36 1.64a0.32 0.32 0 0 0 0.14 -0.4 10.76 10.76 0 0 0 -1 -1.65 5.18 5.18 0 0 0 -0.91 -1 3.68 3.68 0 0 0 -2.62 -0.79A4.36 4.36 0 0 0 15 5.1a9.38 9.38 0 0 0 -2 2.64 13.8 13.8 0 0 0 -1.08 3 7.6 7.6 0 0 0 -0.25 1.94 3.58 3.58 0 0 0 0.33 1.43A3.73 3.73 0 0 0 14.48 16a13.79 13.79 0 0 0 4.24 0.28l1.59 -0.05a6.55 6.55 0 0 0 1.92 -0.39 2.6 2.6 0 0 0 1.13 -0.84 3.71 3.71 0 0 0 0.64 -2.57Z" fill="#020202" fill-rule="evenodd" stroke-width="1"></path>
    <path d="M18.56 9.9c-0.25 -0.16 -0.5 -0.33 -0.74 -0.51s-0.55 -0.48 -0.85 -0.72 -0.55 -0.48 -0.84 -0.71a3.5 3.5 0 0 0 -0.92 -0.64c-0.41 0 -0.57 0.1 -0.47 0.57a1.77 1.77 0 0 0 0.43 0.68 5.43 5.43 0 0 0 0.65 0.62 7.57 7.57 0 0 0 0.74 0.52 9.51 9.51 0 0 0 1.31 0.67 16.61 16.61 0 0 1 -1.73 1 17.87 17.87 0 0 1 -2.94 1.18 0.36 0.36 0 0 0 0.12 0.69 14.23 14.23 0 0 0 3.18 -0.83 9.87 9.87 0 0 0 1.55 -0.8 8.31 8.31 0 0 0 1.41 -1.07 6.13 6.13 0 0 0 1.78 -2.49c0.16 -0.48 -0.35 -1 -0.54 -0.63a9.09 9.09 0 0 1 -2.14 2.47Z" fill="#4C57E6" fill-rule="evenodd" stroke-width="1"></path>
    <path d="M12.72 5a24.56 24.56 0 0 0 -1.39 -2.41A7.22 7.22 0 0 0 10.09 1 3.69 3.69 0 0 0 7.43 0.22 4.3 4.3 0 0 0 4.9 1.4 9.17 9.17 0 0 0 3 4.09a13.29 13.29 0 0 0 -1 3.06 7.46 7.46 0 0 0 -0.22 1.94 3.35 3.35 0 0 0 0.35 1.36A3.78 3.78 0 0 0 5 12.35a16.66 16.66 0 0 0 4.78 0A0.33 0.33 0 0 0 10 12a0.35 0.35 0 0 0 -0.37 -0.31 15.9 15.9 0 0 1 -4.54 -0.16A2.85 2.85 0 0 1 3 10a4.42 4.42 0 0 1 0 -2.63 14 14 0 0 1 1 -2.79 8.17 8.17 0 0 1 1.66 -2.39 3.26 3.26 0 0 1 1.88 -1 2.78 2.78 0 0 1 2.05 0.51A6.84 6.84 0 0 1 10.73 3a23.66 23.66 0 0 1 1.47 2.23 0.29 0.29 0 0 0 0.39 0.13 0.29 0.29 0 0 0 0.13 -0.36Z" fill="#020202" fill-rule="evenodd" stroke-width="1"></path>
    <path d="M8.55 6.27c-0.25 -0.17 -0.49 -0.33 -0.73 -0.52S7.26 5.27 7 5l-0.84 -0.7 -1 -0.81c-0.39 -0.22 -0.74 0.33 -0.47 0.79a4.32 4.32 0 0 0 0.5 0.63 6.35 6.35 0 0 0 0.65 0.62 8.86 8.86 0 0 0 0.73 0.52 12.46 12.46 0 0 0 1.31 0.67 15.49 15.49 0 0 1 -1.72 1 16.56 16.56 0 0 1 -2.77 1.16c-0.45 0.2 -0.45 0.74 -0.08 0.74a13.71 13.71 0 0 0 3.18 -0.83A11.41 11.41 0 0 0 8.05 8a10.67 10.67 0 0 0 1.41 -1.07 7.44 7.44 0 0 0 1.81 -2.55c0.12 -0.46 -0.39 -0.79 -0.62 -0.46a6.21 6.21 0 0 1 -2.1 2.35Z" fill="#4C57E6" fill-rule="evenodd" stroke-width="1"></path>
  </g>
</svg>