<svg xmlns="http://www.w3.org/2000/svg" viewBox="0 0 24 24" id="Asian-Food-Japanese-Sushi-Roll--Streamline-Freehand">
  <desc>
    Asian Food Japanese Sushi Roll Streamline Icon: https://streamlinehq.com
  </desc>
  <g>
    <path d="M23.87 6.84a1.34 1.34 0 0 0 0 -0.2 0.37 0.37 0 0 0 0 -0.15 3.41 3.41 0 0 0 -0.67 -1.43 10.34 10.34 0 0 0 -4.76 -2.96 0.36 0.36 0 0 0 -0.23 0.68 9.4 9.4 0 0 1 4.29 2.76 2.32 2.32 0 0 1 0 2.86c-0.13 0.18 -0.27 0.35 -0.41 0.52a4.89 4.89 0 0 1 -0.46 0.45c-0.37 0.31 -0.75 0.59 -1.13 0.85a12.68 12.68 0 0 1 -1.22 0.73 18.71 18.71 0 0 1 -6.71 2 17.61 17.61 0 0 1 -7 -0.58 7 7 0 0 1 -4.2 -3.3 3 3 0 0 1 0.43 -3.16A7.35 7.35 0 0 1 2.63 5a9.47 9.47 0 0 1 1 -0.8 14.83 14.83 0 0 1 6.25 -2.44 18 18 0 0 1 6.78 0.34 0.31 0.31 0 0 0 0.34 -0.23 0.3 0.3 0 0 0 -0.22 -0.38 18.81 18.81 0 0 0 -7 -0.52 15.71 15.71 0 0 0 -6.7 2.36 11.47 11.47 0 0 0 -1.14 0.87A7.51 7.51 0 0 0 1 5.26a4 4 0 0 0 -0.89 3.47L0 15.7a4.66 4.66 0 0 0 0.84 2.63A9.16 9.16 0 0 0 3.82 21a15.12 15.12 0 0 0 11 1.76 15.91 15.91 0 0 0 7 -3.56 5.52 5.52 0 0 0 2 -3c0.09 -1 0.19 -2.12 0.22 -3.85C24 11 24 9.2 23.87 6.84Zm-0.7 4.58a44.73 44.73 0 0 1 -0.34 4.73 4.61 4.61 0 0 1 -1.73 2.3 15.13 15.13 0 0 1 -6.57 3.19 14.26 14.26 0 0 1 -10.19 -1.55 8.12 8.12 0 0 1 -2.66 -2.31 3.64 3.64 0 0 1 -0.76 -2.08l-0.11 -5.37a8.74 8.74 0 0 0 4.49 3.22 18.26 18.26 0 0 0 7.42 0.57 19.35 19.35 0 0 0 7.07 -2.29c0.42 -0.25 0.87 -0.52 1.28 -0.81a12.3 12.3 0 0 0 1.19 -0.94 5.92 5.92 0 0 0 0.56 -0.56 5.86 5.86 0 0 0 0.37 -0.5c0 0.89 -0.01 1.69 -0.02 2.4Z" fill="#020202" fill-rule="evenodd" stroke-width="1"></path>
    <path d="M13.08 4.49a15.13 15.13 0 0 1 1.92 0.26 0.31 0.31 0 1 0 0.15 -0.6 14.87 14.87 0 0 0 -4.05 -0.47 9.8 9.8 0 0 0 -4 1 4 4 0 0 0 -2.26 2.66A2.31 2.31 0 0 0 6 9.6a4.64 4.64 0 0 0 0.92 0.51 5.84 5.84 0 0 0 1 0.34 15 15 0 0 0 4.74 0.4 14.3 14.3 0 0 0 4.62 -1.07 6 6 0 0 0 1.55 -1 2.23 2.23 0 0 0 0.72 -1.17A1.82 1.82 0 0 0 19 6a5.13 5.13 0 0 0 -1.9 -1.15 0.35 0.35 0 0 0 -0.23 0.67 4.2 4.2 0 0 1 1.56 1 1.26 1.26 0 0 1 0.31 0.53c-0.81 -0.06 -1.61 -0.18 -2.42 -0.26q-0.57 -0.06 -1.14 -0.09L14 6.71l-1.81 0 0.16 -0.32c0.26 -0.6 0.48 -1.25 0.73 -1.9ZM7.4 9a4.33 4.33 0 0 1 -0.73 -0.4 1.19 1.19 0 0 1 -0.6 -1.5 3.33 3.33 0 0 1 1.46 -1.54 8.83 8.83 0 0 1 3.61 -1.07 11.43 11.43 0 0 1 1.17 0c-0.34 0.47 -0.67 0.94 -1 1.44 -0.17 0.26 -0.31 0.53 -0.46 0.8s-0.28 0.55 -0.4 0.83c-0.29 0.66 -0.55 1.33 -0.83 2l0 0.06A9.92 9.92 0 0 1 8.2 9.3a6.27 6.27 0 0 1 -0.8 -0.3ZM14 7.84c0.61 0.07 1.22 0.13 1.83 0.14a20.3 20.3 0 0 0 2.7 -0.19 2.11 2.11 0 0 1 -0.32 0.35 4.79 4.79 0 0 1 -1.33 0.76 13.65 13.65 0 0 1 -4.31 0.82 17.48 17.48 0 0 1 -2.18 0c0.36 -0.54 0.73 -1.07 1.07 -1.62 0.11 -0.17 0.2 -0.34 0.3 -0.51 0.75 0.06 1.49 0.17 2.24 0.25Z" fill="#4C57E6" fill-rule="evenodd" stroke-width="1"></path>
  </g>
</svg>