<svg xmlns="http://www.w3.org/2000/svg" viewBox="0 0 24 24" id="Asian-Food-Dango--Streamline-Freehand">
  <desc>
    Asian Food Dango Streamline Icon: https://streamlinehq.com
  </desc>
  <g>
    <path d="M23.91 0.28a0.34 0.34 0 0 0 -0.48 0c-0.65 0.54 -1.32 1.06 -2 1.61 -0.27 0.23 -0.55 0.47 -0.81 0.72s-0.52 0.5 -0.77 0.76c-0.46 0.49 -0.59 0.69 -1 1.2a0.37 0.37 0 0 0 0.53 0.48c0.52 -0.4 0.74 -0.48 1.24 -0.89 0.28 -0.24 0.55 -0.48 0.8 -0.73s0.52 -0.51 0.77 -0.77c0.59 -0.62 1.15 -1.26 1.7 -1.9a0.34 0.34 0 0 0 0.02 -0.48Z" fill="#4C57E6" fill-rule="evenodd" stroke-width="1"></path>
    <path d="M17.82 4.65a6.41 6.41 0 0 0 -1.59 -0.5 0.34 0.34 0 0 0 -0.39 0.27 0.34 0.34 0 0 0 0.27 0.39 4.52 4.52 0 0 1 1.35 0.49 2.92 2.92 0 0 1 1 0.94 3.53 3.53 0 0 1 0.39 3.1 3.17 3.17 0 0 1 -2.15 2.1 4.5 4.5 0 0 1 -0.88 0.15 3.87 3.87 0 0 1 -0.9 0 3.34 3.34 0 0 1 -2.75 -3.69 3 3 0 0 1 3.29 -3.21 0.3 0.3 0 0 0 0.33 -0.26 0.29 0.29 0 0 0 -0.26 -0.33c-2.65 -0.37 -4.13 1.6 -4.29 3.75a5 5 0 0 0 0.26 2 5.4 5.4 0 0 0 -0.92 -0.24 0.35 0.35 0 0 0 -0.4 0.27 0.34 0.34 0 0 0 0.27 0.39 4.69 4.69 0 0 1 1.36 0.49c0.07 0.05 0.13 0.11 0.2 0.15a3.91 3.91 0 0 0 0.86 0.91 3.54 3.54 0 0 1 0.33 3 3.13 3.13 0 0 1 -2.14 2.1 4.63 4.63 0 0 1 -0.89 0.16 4.54 4.54 0 0 1 -0.9 0 3.34 3.34 0 0 1 -2.76 -3.67 3 3 0 0 1 3.3 -3.2 0.31 0.31 0 0 0 0.33 -0.27 0.29 0.29 0 0 0 -0.27 -0.32c-2.65 -0.38 -4.12 1.6 -4.29 3.74a4.94 4.94 0 0 0 0.29 2.09 7.71 7.71 0 0 0 -0.86 -0.2 0.34 0.34 0 0 0 -0.39 0.27 0.33 0.33 0 0 0 0.27 0.39 4.73 4.73 0 0 1 1.35 0.49l0.16 0.12a4.27 4.27 0 0 0 0.89 0.91 3.53 3.53 0 0 1 0.35 3 3.19 3.19 0 0 1 -2.15 2.1 5.36 5.36 0 0 1 -0.89 0.16 4.44 4.44 0 0 1 -0.89 0A3.33 3.33 0 0 1 1 19c0.05 -1.74 1.14 -3.39 3.29 -3.21a0.3 0.3 0 0 0 0.33 -0.26 0.28 0.28 0 0 0 -0.26 -0.32c-2.7 -0.4 -4.18 1.57 -4.36 3.72a4.32 4.32 0 0 0 3.53 4.84 5.45 5.45 0 0 0 1.14 0 5.18 5.18 0 0 0 1.11 -0.21 4.18 4.18 0 0 0 2.78 -2.88A4.46 4.46 0 0 0 8.52 18a5.84 5.84 0 0 0 0.6 0.15 5.36 5.36 0 0 0 1.13 0 6.12 6.12 0 0 0 1.12 -0.2 4.2 4.2 0 0 0 2.78 -2.88 4.5 4.5 0 0 0 0 -2.62 4.7 4.7 0 0 0 0.67 0.18 5.36 5.36 0 0 0 1.13 0 5.18 5.18 0 0 0 1.05 -0.12 4.18 4.18 0 0 0 2.79 -2.88c0.05 -0.11 0.82 -3.72 -1.97 -4.98Z" fill="#020202" fill-rule="evenodd" stroke-width="1"></path>
  </g>
</svg>