<svg xmlns="http://www.w3.org/2000/svg" viewBox="0 0 24 24" id="Asian-Food-Curry-Rice--Streamline-Freehand">
  <desc>
    Asian Food Curry Rice Streamline Icon: https://streamlinehq.com
  </desc>
  <g>
    <path d="M22.56 3.66a7.64 7.64 0 0 0 -3.23 -2.61 0.34 0.34 0 1 0 -0.26 0.62A7 7 0 0 1 22 4.08a6.73 6.73 0 0 1 1.22 3.54 7.81 7.81 0 0 1 -0.31 2.38 11.56 11.56 0 0 1 -0.86 2.23 16.5 16.5 0 0 1 -0.87 1.52c-0.32 0.49 -0.66 1 -1 1.45a20.57 20.57 0 0 1 -8.07 6.73 8.87 8.87 0 0 1 -6.68 0.28 9.21 9.21 0 0 1 -1.06 -0.47 6.64 6.64 0 0 1 -0.94 -0.62 6.18 6.18 0 0 1 -2.26 -4.21 10.45 10.45 0 0 1 0.68 -5 12.72 12.72 0 0 1 0.87 -1.78c0.28 -0.6 0.7 -1.13 1.08 -1.7a20.79 20.79 0 0 1 7.85 -6.64 9.5 9.5 0 0 1 6.66 -0.62 0.29 0.29 0 0 0 0.37 -0.17 0.29 0.29 0 0 0 -0.19 -0.37 10 10 0 0 0 -7.12 0.52A21.33 21.33 0 0 0 3 7.87a17.78 17.78 0 0 0 -1.15 1.74 13 13 0 0 0 -1 1.9A11.37 11.37 0 0 0 0.06 17a7.13 7.13 0 0 0 3.76 5.69 8.62 8.62 0 0 0 1.2 0.54 9.88 9.88 0 0 0 7.5 -0.33 21.31 21.31 0 0 0 8.41 -7.19c0.36 -0.49 0.69 -1 1 -1.52s0.62 -1.06 0.89 -1.61a11.85 11.85 0 0 0 0.88 -2.42 8.69 8.69 0 0 0 0.3 -2.58 7.55 7.55 0 0 0 -1.44 -3.92Z" fill="#020202" fill-rule="evenodd" stroke-width="1"></path>
    <path d="M11.45 19.62a5.33 5.33 0 0 1 -1.44 0.56 6 6 0 0 1 -4.11 -0.58 4.94 4.94 0 0 1 -2.54 -3.19 6.61 6.61 0 0 1 0.26 -3.54 4.25 4.25 0 0 1 0.21 -0.56c0.21 -0.53 -0.21 -0.87 -0.62 -0.54 -0.14 0.34 -0.14 0.34 -0.32 0.85a7.39 7.39 0 0 0 -0.41 4 5.8 5.8 0 0 0 2.92 3.9 7 7 0 0 0 4.85 0.76 6.74 6.74 0 0 0 1.75 -0.66 3.07 3.07 0 0 0 1 -0.62c0.4 -0.44 -0.2 -0.87 -1 -0.64 -0.39 0.24 -0.22 0.09 -0.55 0.26Z" fill="#020202" fill-rule="evenodd" stroke-width="1"></path>
    <path d="M15 16.81a1.74 1.74 0 0 0 -1.33 -1.5 2.21 2.21 0 0 0 -1.91 0.4 1.46 1.46 0 0 0 -0.46 0.83 4.34 4.34 0 0 0 0 1.13l0 0.08a1.29 1.29 0 0 0 0.76 1.05 1.92 1.92 0 0 0 0.42 0.16c2.3 0.69 2.9 -1.32 2.52 -2.15Zm-1.18 0.86a0.64 0.64 0 0 1 -0.3 0.4 1.69 1.69 0 0 1 -1 0.06c-0.29 -0.06 -0.57 -0.18 -0.61 -0.47a0.29 0.29 0 0 0 -0.07 -0.18 3.33 3.33 0 0 1 0.09 -0.61 0.71 0.71 0 0 1 0.3 -0.47 1.29 1.29 0 0 1 1.09 0 0.7 0.7 0 0 1 0.53 0.62 1.66 1.66 0 0 1 0 0.65Z" fill="#4C57E6" fill-rule="evenodd" stroke-width="1"></path>
    <path d="M20.53 6.35a0.34 0.34 0 0 0 -0.45 -0.16 0.34 0.34 0 0 0 -0.16 0.45 4.29 4.29 0 0 1 0.18 2.68 8.37 8.37 0 0 1 -0.75 1.94 20.55 20.55 0 0 1 -1.08 1.89 16 16 0 0 1 -1 1.62c-0.13 0.17 -0.26 0.34 -0.4 0.5a2.3 2.3 0 0 0 -0.31 -1c-0.56 -0.94 -1.87 -1.57 -2.53 -2.38a2.52 2.52 0 0 1 -0.33 -0.6 13.35 13.35 0 0 0 -0.7 -1.93 2.25 2.25 0 0 0 -0.55 -0.63c-0.39 -0.32 -0.88 -0.52 -1.26 -0.89a8 8 0 0 1 -0.83 -1.17 2.51 2.51 0 0 0 -0.54 -0.54 0.83 0.83 0 0 0 -0.18 -0.13c0.15 -0.11 0.29 -0.24 0.44 -0.34 0.31 -0.19 0.63 -0.36 1 -0.52a14.46 14.46 0 0 1 2.6 -0.9A9 9 0 0 1 16.3 4a4.27 4.27 0 0 1 3.08 1.4 0.35 0.35 0 0 0 0.48 0 0.33 0.33 0 0 0 0.05 -0.4 5 5 0 0 0 -3.51 -2 7.75 7.75 0 0 0 -3 0.26 10.86 10.86 0 0 0 -2.72 1.23 11.3 11.3 0 0 0 -1 0.69 8.45 8.45 0 0 0 -0.68 0.6 2 2 0 0 0 -1.11 0.07C7.06 6.12 6 7.28 5 8.86c0 0.35 0.45 0.5 0.72 0.09C7 7 7.44 6.85 7.77 6.68a1.41 1.41 0 0 1 1.92 0.46 9.64 9.64 0 0 0 0.89 1.3c0.38 0.39 0.89 0.61 1.29 1a1.64 1.64 0 0 1 0.33 0.4 11.87 11.87 0 0 1 0.57 1.78 3.32 3.32 0 0 0 0.46 0.87c0.53 0.69 1.53 1.26 2.15 2a1.32 1.32 0 0 1 0.32 1.3l-0.25 0.53c-0.33 0.32 0.21 1.56 0.75 0.79 0.08 -0.13 0.33 -0.45 0.39 -0.59a2 2 0 0 0 0.1 -0.26 0.38 0.38 0 0 0 0.1 0 8.82 8.82 0 0 0 1 -0.92 19.77 19.77 0 0 0 1.32 -1.54 14 14 0 0 0 1.24 -2 7.6 7.6 0 0 0 0.72 -2.27 5.06 5.06 0 0 0 -0.54 -3.18Z" fill="#020202" fill-rule="evenodd" stroke-width="1"></path>
    <path d="M3.94 11.48c0 0.07 0.12 0.44 0.13 0.51a1.2 1.2 0 0 0 0.35 0.61 1.7 1.7 0 0 0 1.78 0.28 1.81 1.81 0 0 0 1.11 -1.51 3.09 3.09 0 0 0 -0.12 -1 1.55 1.55 0 0 0 -0.49 -0.69c-0.12 -0.08 -1.86 -0.68 -2.5 0.11a1.65 1.65 0 0 0 -0.26 1.69Zm0.8 -0.92a0.71 0.71 0 0 1 0.64 -0.3 1 1 0 0 1 0.71 0.2c0.08 0.06 0.07 0.19 0.08 0.31a1.26 1.26 0 0 1 0 0.51 0.73 0.73 0 0 1 -0.43 0.6 0.77 0.77 0 0 1 -0.8 0 0.61 0.61 0 0 1 -0.22 -0.39c-0.06 -0.27 -0.08 -0.54 -0.11 -0.73a0.22 0.22 0 0 0 0 -0.08 0.28 0.28 0 0 0 0.13 -0.12Z" fill="#4C57E6" fill-rule="evenodd" stroke-width="1"></path>
    <path d="M12.76 5.27c-0.28 0 -0.39 1 -0.39 1a1.22 1.22 0 0 0 0 0.27l0.09 0.27c0.4 1 0.62 0.86 0.71 0.84s0.29 -0.1 0.33 -1a1.13 1.13 0 0 0 0 -0.26 1.1 1.1 0 0 0 -0.06 -0.26s-0.44 -0.9 -0.68 -0.86Z" fill="#020202" fill-rule="evenodd" stroke-width="1"></path>
    <path d="M15 8.79a0.65 0.65 0 0 0 -0.24 0 0.67 0.67 0 0 0 -0.24 0.07c-0.08 0 -0.81 0.45 -0.74 0.71 0 0 0 0.28 0.94 0.35a0.58 0.58 0 0 0 0.23 0 0.78 0.78 0 0 0 0.23 -0.07c0.83 -0.36 0.83 -0.53 0.8 -0.69s-0.11 -0.31 -0.98 -0.37Z" fill="#020202" fill-rule="evenodd" stroke-width="1"></path>
    <path d="M17.55 12c0.17 0 0.32 0 0.55 -0.89a1 1 0 0 0 0 -0.24 1.07 1.07 0 0 0 0 -0.25c0 -0.08 -0.3 -0.85 -0.57 -0.84 -0.09 0 -0.28 0 -0.51 0.86a2.08 2.08 0 0 0 0 0.23 2 2 0 0 0 0 0.24c0.21 0.89 0.37 0.89 0.53 0.89Z" fill="#020202" fill-rule="evenodd" stroke-width="1"></path>
    <path d="m16.57 6.28 0.23 -0.08c0.74 -0.32 0.83 -0.39 0.81 -0.61s-0.07 -0.37 -1 -0.43a0.82 0.82 0 0 0 -0.27 0 1 1 0 0 0 -0.24 0.08c-0.09 0 -0.8 0.47 -0.73 0.75 0 0.08 0 0.28 1 0.3a0.53 0.53 0 0 0 0.2 -0.01Z" fill="#020202" fill-rule="evenodd" stroke-width="1"></path>
    <path d="M18.34 8.54a0.76 0.76 0 0 0 0.18 0.06c0.71 0.16 0.81 0.15 0.93 0s0.18 -0.32 -0.42 -0.93a0.75 0.75 0 0 0 -0.18 -0.13 0.57 0.57 0 0 0 -0.22 -0.07c-0.08 0 -0.83 -0.06 -0.94 0.16s0.43 0.76 0.48 0.81a0.62 0.62 0 0 0 0.17 0.1Z" fill="#020202" fill-rule="evenodd" stroke-width="1"></path>
    <path d="M9 11.53a0.33 0.33 0 0 0 0 0.24 3.14 3.14 0 0 0 -0.28 0.67 1.09 1.09 0 0 0 0 0.67 1.44 1.44 0 0 0 1.42 0.78 1.59 1.59 0 0 0 1.41 -1 3.55 3.55 0 0 0 0.17 -1.08 1.55 1.55 0 0 0 -0.25 -0.85 1.63 1.63 0 0 0 -0.93 -0.6 1.31 1.31 0 0 0 -1.1 0.2 1.1 1.1 0 0 0 -0.3 0.38 2.44 2.44 0 0 0 -0.14 0.59Zm0.56 0.46a0.36 0.36 0 0 0 0 -0.14 0.37 0.37 0 0 0 0.05 -0.11 2.48 2.48 0 0 1 0.17 -0.32 0.46 0.46 0 0 1 0.17 -0.17c0.1 -0.07 0.24 0 0.37 0a0.59 0.59 0 0 1 0.31 0.27 0.74 0.74 0 0 1 0 0.42 2.45 2.45 0 0 1 -0.13 0.59c0 0.18 -0.24 0.27 -0.44 0.31a0.58 0.58 0 0 1 -0.61 -0.14 0.36 0.36 0 0 1 0 -0.27 2.68 2.68 0 0 1 0.12 -0.43Z" fill="#4C57E6" fill-rule="evenodd" stroke-width="1"></path>
    <path d="M8.49 15.19a1.77 1.77 0 0 0 -0.93 -0.55 1.86 1.86 0 0 0 -1.41 0.36 1.28 1.28 0 0 0 -0.51 1.37 0.34 0.34 0 0 0 0.28 0.27 0.14 0.14 0 0 0 0 0.09 4.53 4.53 0 0 0 0.4 1.11 1.57 1.57 0 0 0 0.73 0.67 1.18 1.18 0 0 0 0.56 0.05 2 2 0 0 0 0.64 -0.21 2.21 2.21 0 0 0 0.83 -0.68 1.43 1.43 0 0 0 0.12 -1.24 3 3 0 0 0 -0.71 -1.24Zm-0.37 1.87a1.06 1.06 0 0 1 -0.38 0.38l-0.42 0.2a0.84 0.84 0 0 1 -0.46 -0.36 5.09 5.09 0 0 1 -0.37 -0.74 0.32 0.32 0 0 0 -0.19 -0.2 0.25 0.25 0 0 0 0 -0.12 0.59 0.59 0 0 1 0.33 -0.57 0.94 0.94 0 0 1 0.72 -0.07c0.18 0.06 0.31 0.26 0.44 0.44a2.4 2.4 0 0 1 0.34 0.71c0.03 0.14 0.05 0.27 -0.01 0.33Z" fill="#4C57E6" fill-rule="evenodd" stroke-width="1"></path>
  </g>
</svg>