<svg xmlns="http://www.w3.org/2000/svg" viewBox="0 0 24 24" id="Asian-Food-Roasted-Pork-Whole--Streamline-Freehand">
  <desc>
    Asian Food Roasted Pork Whole Streamline Icon: https://streamlinehq.com
  </desc>
  <g>
    <path d="m23.63 20.09 -3.71 0c-1.74 0 -3.48 -0.13 -5.21 -0.18 -3.67 -0.12 -5.56 0 -6.56 0 -1.52 0.07 -3.05 0.18 -4.57 0.23h-0.52l0 -0.06c-0.31 -0.24 -0.62 -0.49 -0.91 -0.75s-0.5 -0.45 -0.74 -0.69l0 -1.92a5.15 5.15 0 0 0 1.11 0 2.41 2.41 0 0 0 1.13 -0.38 2 2 0 0 0 0.58 -0.64c0.26 -0.42 0.39 -1 0.66 -1.35a3.33 3.33 0 0 1 1.15 -1 4.35 4.35 0 0 1 1.5 -0.56 0.59 0.59 0 0 0 0.46 -0.62l0 -1.67 0.51 0.45a4.55 4.55 0 0 1 1 1.38 0.54 0.54 0 0 0 0.44 0.34 14 14 0 0 0 2.36 0.13l0.26 0c0.15 0.24 0.28 0.5 0.44 0.74s0.26 0.33 0.4 0.5a9.56 9.56 0 0 1 0.66 0.75 0.35 0.35 0 1 0 0.63 -0.29 4.88 4.88 0 0 0 -0.35 -1.06A2.7 2.7 0 0 0 14 13a2.15 2.15 0 0 0 -0.32 -0.35 7.12 7.12 0 0 0 0.94 -0.2c0.49 -0.14 1 -0.33 1.49 -0.51 0.25 0.32 0.45 0.66 0.68 1 0.12 0.18 0.26 0.36 0.4 0.55s0.29 0.35 0.43 0.55 0.26 0.39 0.38 0.6a0.35 0.35 0 1 0 0.65 -0.24 6.33 6.33 0 0 0 -0.41 -1.34 2.37 2.37 0 0 0 -0.31 -0.53 2.5 2.5 0 0 0 -0.39 -0.46 3.49 3.49 0 0 0 -0.54 -0.41l0.14 -0.05a4.63 4.63 0 0 1 1.61 -0.2 3 3 0 0 1 1.55 0.59 5 5 0 0 1 1.21 1.25 0.35 0.35 0 1 0 0.58 -0.39 5.88 5.88 0 0 0 -1.34 -1.47 3.9 3.9 0 0 0 -1.91 -0.8 5 5 0 0 0 -1.45 0.06c-1 0.18 -2 0.61 -3 0.86a9.27 9.27 0 0 1 -2.13 0.23 12.79 12.79 0 0 1 -1.88 -0.14 5.58 5.58 0 0 0 -1.08 -1.47 7.86 7.86 0 0 0 -1.68 -1.26 0.59 0.59 0 0 0 -0.88 0.54l0.1 2.33a5.13 5.13 0 0 0 -1.39 0.63A4.53 4.53 0 0 0 4 13.81c-0.26 0.42 -0.37 1 -0.62 1.43a1 1 0 0 1 -0.28 0.35 1.53 1.53 0 0 1 -0.69 0.26 6.36 6.36 0 0 1 -1.38 0 0.39 0.39 0 0 0 -0.32 0.15 0.37 0.37 0 0 0 -0.13 0.31l0.08 2.5a0.41 0.41 0 0 0 0.11 0.19c0.3 0.28 0.61 0.54 0.92 0.79l0.43 0.33 -1.8 0a0.32 0.32 0 0 0 -0.32 0.29 0.3 0.3 0 0 0 0.29 0.32l0.58 0a8 8 0 0 0 1 1.88 2.87 2.87 0 0 0 1.32 0.93 8.34 8.34 0 0 0 2.32 0.34c1.13 0 2.3 -0.07 3.34 -0.07l7.5 -0.09a21.71 21.71 0 0 0 3.78 0 3.3 3.3 0 0 0 2.31 -1.45 4.14 4.14 0 0 0 0.37 -0.69c0.12 -0.27 0.22 -0.54 0.31 -0.81l0.5 0a0.35 0.35 0 1 0 0 -0.69Zm-1.44 1.21a3.58 3.58 0 0 1 -0.34 0.57 2.51 2.51 0 0 1 -1.82 1 21.58 21.58 0 0 1 -3.61 -0.17c-1.26 0 -2.52 -0.07 -3.78 -0.06s-2.51 0 -3.76 0.08c-1 0.06 -2.19 0.23 -3.32 0.26a7.44 7.44 0 0 1 -2.08 -0.18 2.06 2.06 0 0 1 -1 -0.62 6.5 6.5 0 0 1 -0.87 -1.35c1 0.06 2.06 0.11 3.09 0.12C6 21 7.3 21 8.61 21l2.61 0 6.21 0c1.65 0 3.3 -0.07 5 -0.16 -0.11 0.16 -0.16 0.31 -0.24 0.46Z" fill="#020202" fill-rule="evenodd" stroke-width="1"></path>
    <path d="M12 19.14a1.19 1.19 0 0 1 0.75 -0.43 0.91 0.91 0 0 1 0.75 0.17 0.44 0.44 0 0 0 0.44 0.07 0.43 0.43 0 0 0 0.27 -0.35 3.59 3.59 0 0 1 0.26 -0.85 1.2 1.2 0 0 1 0.44 -0.53 1.26 1.26 0 0 1 1.09 0 1 1 0 0 1 0.65 0.72 0.58 0.58 0 0 0 0.41 0.46 0.58 0.58 0 0 0 0.59 -0.18 1.15 1.15 0 0 1 0.77 -0.42 0.53 0.53 0 0 1 0.5 0.38 0.58 0.58 0 0 0 1.11 -0.2 5.17 5.17 0 0 1 0.11 -1 1.46 1.46 0 0 1 0.23 -0.51 1 1 0 0 1 0.83 -0.4 1.2 1.2 0 0 1 0.9 0.48 2.93 2.93 0 0 1 0.5 1.33 8.45 8.45 0 0 1 0 1.59 0.37 0.37 0 0 0 0.73 0.06 9.26 9.26 0 0 0 0.05 -1.75 3.75 3.75 0 0 0 -0.57 -1.77A2.19 2.19 0 0 0 21.28 15a2 2 0 0 0 -1.77 0.74 2.62 2.62 0 0 0 -0.45 0.88l0 0.09a1.81 1.81 0 0 0 -0.65 -0.11 2 2 0 0 0 -0.94 0.29 2.09 2.09 0 0 0 -1.06 -0.76 2.32 2.32 0 0 0 -2 0.25 2 2 0 0 0 -0.68 0.8 3.48 3.48 0 0 0 -0.25 0.75 2 2 0 0 0 -2 0.83c-0.18 0.28 -0.24 0.27 -0.28 0.58s0.67 0.37 0.69 0.14 0.01 -0.19 0.11 -0.34Z" fill="#4C57E6" fill-rule="evenodd" stroke-width="1"></path>
    <path d="M5.92 16.39a0.31 0.31 0 1 0 0.53 0.31 3.92 3.92 0 0 1 0.5 -0.33c0.19 0.12 0.38 0.2 0.57 0.34a0.35 0.35 0 1 0 0.54 -0.44 3.68 3.68 0 0 0 -0.38 -0.71 0.48 0.48 0 0 1 0.09 -0.11 0.35 0.35 0 1 0 -0.32 -0.62 2.83 2.83 0 0 0 -0.56 0.19 3.81 3.81 0 0 0 -0.51 -0.12 0.31 0.31 0 0 0 -0.38 0.1 0.33 0.33 0 0 0 0.11 0.43 1.58 1.58 0 0 1 0.12 0.15 2.68 2.68 0 0 0 -0.31 0.81Z" fill="#020202" fill-rule="evenodd" stroke-width="1"></path>
    <path d="M7.81 4.66a4.88 4.88 0 0 1 0.68 0.85 1.06 1.06 0 0 1 0 1.14 0.34 0.34 0 0 0 0.08 0.48 0.35 0.35 0 0 0 0.5 -0.13 1.82 1.82 0 0 0 0.42 -1.43 3.37 3.37 0 0 0 -0.67 -1.49 9.25 9.25 0 0 1 -0.73 -1.07A1.44 1.44 0 0 1 8 1.94a4.3 4.3 0 0 1 0.6 -1.3 0.29 0.29 0 0 0 0 -0.43 0.3 0.3 0 0 0 -0.43 0A4.27 4.27 0 0 0 7 2a2.28 2.28 0 0 0 0.09 1.6 5.14 5.14 0 0 0 0.72 1.06Z" fill="#4C57E6" fill-rule="evenodd" stroke-width="1"></path>
    <path d="M18.12 4.57a5.89 5.89 0 0 1 0.68 0.85 1.06 1.06 0 0 1 0 1.14 0.35 0.35 0 0 0 0.57 0.39 1.83 1.83 0 0 0 0.43 -1.43A3.48 3.48 0 0 0 19.13 4a8.26 8.26 0 0 1 -0.74 -1 1.43 1.43 0 0 1 -0.11 -1.11 4.39 4.39 0 0 1 0.61 -1.33 0.31 0.31 0 0 0 0 -0.44 0.3 0.3 0 0 0 -0.43 0 4.27 4.27 0 0 0 -1.16 1.72 2.27 2.27 0 0 0 0.08 1.6 5.6 5.6 0 0 0 0.74 1.13Z" fill="#4C57E6" fill-rule="evenodd" stroke-width="1"></path>
    <path d="M13.26 7.1a4.45 4.45 0 0 1 0.82 1.06 1 1 0 0 1 0.05 0.78 0.34 0.34 0 0 0 0.18 0.46 0.35 0.35 0 0 0 0.46 -0.17 1.82 1.82 0 0 0 0.15 -1.34 4.51 4.51 0 0 0 -0.77 -1.51 6.64 6.64 0 0 1 -0.54 -0.75 1.86 1.86 0 0 1 -0.32 -1.12 3.73 3.73 0 0 1 0.27 -1.35 0.3 0.3 0 0 0 -0.13 -0.41 0.31 0.31 0 0 0 -0.42 0.13 4.07 4.07 0 0 0 -0.72 1.88 2.81 2.81 0 0 0 0.3 1.45 7.15 7.15 0 0 0 0.67 0.89Z" fill="#4C57E6" fill-rule="evenodd" stroke-width="1"></path>
  </g>
</svg>