<svg xmlns="http://www.w3.org/2000/svg" viewBox="0 0 24 24" id="Astrology-Taurus--Streamline-Freehand">
  <desc>
    Astrology Taurus Streamline Icon: https://streamlinehq.com
  </desc>
  <path d="M20.19 13.5a8.52 8.52 0 0 0 -3.45 -5 7.57 7.57 0 0 0 -2.32 -0.91c0.22 -0.09 0.44 -0.17 0.67 -0.29a7.33 7.33 0 0 0 2.64 -2.38 17.48 17.48 0 0 0 2 -4.72 0.33 0.33 0 0 0 -0.21 -0.41 0.32 0.32 0 0 0 -0.4 0.21A16.52 16.52 0 0 1 17 4.42a6.26 6.26 0 0 1 -2.38 2 6.3 6.3 0 0 1 -3.43 0.6 8 8 0 0 1 -3.34 -1.2A9 9 0 0 1 3.63 0.09a0.28 0.28 0 0 0 -0.31 -0.25 0.29 0.29 0 0 0 -0.25 0.32 9.67 9.67 0 0 0 4.25 6.5 8.59 8.59 0 0 0 2.2 1.06 8.26 8.26 0 0 0 -5.78 5.34 10.18 10.18 0 0 0 -0.56 4.23 6.44 6.44 0 0 0 3.15 4.89 10.2 10.2 0 0 0 5.61 1.6 10.25 10.25 0 0 0 4.38 -1.13 8.27 8.27 0 0 0 3.38 -3.06 8 8 0 0 0 0.49 -6.09Zm-1.4 5.55a7.28 7.28 0 0 1 -3 2.64 9.36 9.36 0 0 1 -3.92 1 9.32 9.32 0 0 1 -5 -1.37A5.58 5.58 0 0 1 4 17.21a9.34 9.34 0 0 1 0.41 -3.9c1.7 -5 6.37 -5.26 8.25 -5.18a7.2 7.2 0 0 1 3.6 1.1 7.55 7.55 0 0 1 3 4.52 7 7 0 0 1 -0.47 5.3Z" fill="#020202" fill-rule="evenodd" stroke-width="1"></path>
</svg>