<svg xmlns="http://www.w3.org/2000/svg" viewBox="0 0 24 24" id="Astrology-Libra--Streamline-Freehand">
  <desc>
    Astrology Libra Streamline Icon: https://streamlinehq.com
  </desc>
  <g>
    <path d="M0.32 15.67c0.8 -0.08 1.6 -0.16 2.4 -0.22s1.61 -0.1 2.41 -0.11h2a5.24 5.24 0 0 0 0.53 0.05 0.43 0.43 0 0 0 0.4 -0.39 0.72 0.72 0 0 0 -0.15 -0.49c-0.16 -0.22 -0.58 -0.36 -0.78 -0.58a6.92 6.92 0 0 1 -0.9 -1.21 7 7 0 0 1 -0.66 -1.35 4.19 4.19 0 0 1 0.95 -4.17A5.86 5.86 0 0 1 10.39 5a6.67 6.67 0 0 1 4.41 1.5 5.64 5.64 0 0 1 2.42 3.92 3.58 3.58 0 0 1 -0.18 1.4 6.21 6.21 0 0 1 -0.65 1.32l-0.52 0.66c-0.08 0.08 -0.29 0.19 -0.35 0.27a0.47 0.47 0 0 0 -0.11 0.31 0.45 0.45 0 0 0 0.24 0.39 3.47 3.47 0 0 0 1.38 0.36 17.13 17.13 0 0 0 1.93 0c0.52 0 0.94 0 1.31 -0.06 1 -0.07 1.63 -0.19 3 -0.28a0.33 0.33 0 0 0 0 -0.65c-1.36 0.06 -2 0.17 -3 0.22l-1.28 0 -1.85 0a2.83 2.83 0 0 1 -0.52 -0.08l0.53 -0.64a7 7 0 0 0 0.79 -1.5 4.68 4.68 0 0 0 0.27 -1.74 6.63 6.63 0 0 0 -2.72 -4.71 7.7 7.7 0 0 0 -5.16 -1.75 7 7 0 0 0 -4.6 2.62 5.19 5.19 0 0 0 -1 5.18 9.72 9.72 0 0 0 0.79 1.49 8 8 0 0 0 1 1.31l0.11 0.12 -1.54 0c-0.81 0 -1.62 0.11 -2.43 0.19s-1.62 0.18 -2.42 0.29a0.28 0.28 0 1 0 0.07 0.56Z" fill="#020202" fill-rule="evenodd" stroke-width="1"></path>
    <path d="M23.57 18.75a8.72 8.72 0 0 1 -2.26 0.35c-1.2 0 -2.41 -0.07 -3.58 0l-2.52 0c-2 0 -3.93 0 -5.91 -0.07 -1.8 0 -3.61 0.32 -5.42 0.33a10.1 10.1 0 0 1 -3.45 -0.53 0.28 0.28 0 0 0 -0.36 0.17 0.27 0.27 0 0 0 0.16 0.36 10.27 10.27 0 0 0 3.63 0.77c1.8 0.09 3.63 -0.12 5.43 0s3.39 0.09 5.08 0.07c1.14 0 2.27 -0.08 3.41 -0.16s2.37 0 3.58 -0.14a9.62 9.62 0 0 0 2.42 -0.48A0.32 0.32 0 0 0 24 19a0.33 0.33 0 0 0 -0.43 -0.25Z" fill="#020202" fill-rule="evenodd" stroke-width="1"></path>
  </g>
</svg>