<svg xmlns="http://www.w3.org/2000/svg" viewBox="0 0 24 24" id="Athletics-Javelin-Throwing--Streamline-Freehand">
  <desc>
    Athletics Javelin Throwing Streamline Icon: https://streamlinehq.com
  </desc>
  <title>athletics-javelin-throwing</title>
  <g>
    <path d="M5.36 9C6.94 8.11 9 7.21 10.59 6.34s3.25 -1.74 4.89 -2.54c1.33 -0.67 2.73 -1.24 4.08 -1.89q0.9 -0.42 1.74 -0.9a0.34 0.34 0 0 0 0.13 -0.46 0.33 0.33 0 0 0 -0.43 -0.13c-0.55 0.29 -1.13 0.55 -1.72 0.8 -1.39 0.59 -2.82 1.09 -4.19 1.69 -1.68 0.77 -3.36 1.55 -5 2.43S6.83 7.18 5.26 8.15C4 9 2.69 9.5 1.45 10.44A5.72 5.72 0 0 0 0 11.85a0.29 0.29 0 0 0 0.06 0.41 0.3 0.3 0 0 0 0.42 -0.06 5.45 5.45 0 0 1 1.56 -1.33Z" fill="#4C57E6" stroke-width="1"></path>
    <path d="M23.83 19.59a9.28 9.28 0 0 0 -1.25 -2.45 7.9 7.9 0 0 0 -1.39 -1.83 3.13 3.13 0 0 0 -1.55 -0.67c-0.84 -0.14 -1.69 0 -2.43 -0.14a1.61 1.61 0 0 1 -1.08 -0.63l-0.36 -0.43a0.45 0.45 0 0 1 0.19 -0.26 1.62 1.62 0 0 1 0.52 -0.27c0.46 -0.16 0.94 -0.28 1.42 -0.4 0.74 -0.17 1.49 -0.3 2.21 -0.41a3.12 3.12 0 0 0 1.59 -0.56 0.92 0.92 0 0 0 0.26 -1 1.5 1.5 0 0 0 -1 -1 6.52 6.52 0 0 0 -2.64 -0.21 20.19 20.19 0 0 0 -2.59 0.3 8.33 8.33 0 0 0 -1.26 0.35 3.37 3.37 0 0 0 -0.32 -0.85 3 3 0 0 0 -1.3 -1.3 2.6 2.6 0 0 0 -1.42 -0.17 3.18 3.18 0 0 0 -1.27 0.49 0.3 0.3 0 0 0 -0.09 0.41 0.29 0.29 0 0 0 0.41 0.09 2.38 2.38 0 0 1 1 -0.29 1.74 1.74 0 0 1 1 0.2 2.17 2.17 0 0 1 0.8 1 2.18 2.18 0 0 1 0.18 1.25 1.73 1.73 0 0 1 -0.24 0.61 2.08 2.08 0 0 1 -0.47 0.51 2.89 2.89 0 0 1 -1.12 0.53 1.94 1.94 0 0 1 -1.16 -0.08 2 2 0 0 1 -0.65 -0.38 1.52 1.52 0 0 1 -0.42 -0.63 2.28 2.28 0 0 1 -0.09 -1 1.65 1.65 0 0 1 0.43 -0.91 0.34 0.34 0 0 0 -0.46 -0.5 2.41 2.41 0 0 0 -0.72 1.25 3 3 0 0 0 0 1.43 2.47 2.47 0 0 0 0.58 1.05 3.17 3.17 0 0 0 0.95 0.69 2.9 2.9 0 0 0 1.77 0.23 3.86 3.86 0 0 0 1.59 -0.71 3.11 3.11 0 0 0 0.75 -0.82 2.68 2.68 0 0 0 0.38 -1.08 2.72 2.72 0 0 0 0 -0.28 7.64 7.64 0 0 1 1.31 -0.37 20.74 20.74 0 0 1 2.5 -0.25 7.22 7.22 0 0 1 2 0.1c0.37 0.1 0.69 0.24 0.77 0.57s-0.11 0.27 -0.27 0.33a5.12 5.12 0 0 1 -0.93 0.19c-0.74 0.1 -1.52 0.22 -2.27 0.38a13.89 13.89 0 0 0 -1.51 0.4 2.34 2.34 0 0 0 -1 0.54 1.21 1.21 0 0 0 -0.4 0.8 0.83 0.83 0 0 0 0.13 0.51c0.11 0.19 0.31 0.38 0.4 0.51a2.55 2.55 0 0 0 1.18 0.88 19.44 19.44 0 0 0 2.91 0.3 2.26 2.26 0 0 1 1.06 0.47 7.3 7.3 0 0 1 1.18 1.64 7.91 7.91 0 0 1 1.16 2.18 1.88 1.88 0 0 1 0 1.3 0.37 0.37 0 0 1 -0.38 0.17 1 1 0 0 1 -0.59 -0.25c-0.48 -0.61 -0.91 -1.24 -1.39 -1.85 -0.21 -0.27 -0.44 -0.53 -0.67 -0.78a8.07 8.07 0 0 0 -0.64 -0.67 2.3 2.3 0 0 0 -0.65 -0.43 2.65 2.65 0 0 0 -1 -0.14 6.93 6.93 0 0 0 -1.28 0.15 1.79 1.79 0 0 0 -0.86 0.45 6.06 6.06 0 0 0 -0.94 1.44 11.86 11.86 0 0 1 -1 1.45A8 8 0 0 1 12.18 22a3.22 3.22 0 0 1 -0.64 0.42 1.15 1.15 0 0 1 -0.57 0.12s0 0 0 -0.07a1 1 0 0 1 0 -0.23 2.56 2.56 0 0 1 0.23 -0.65c0.3 -0.58 1 -1.22 1.32 -1.89a2.36 2.36 0 0 0 0.34 -1.21 1.76 1.76 0 0 0 -0.14 -0.57 8.91 8.91 0 0 0 -0.49 -0.88 8.3 8.3 0 0 0 -0.66 -1.09 1.58 1.58 0 0 0 -0.58 -0.48 1.49 1.49 0 0 0 -0.79 0.05c-0.59 0.17 -1.54 0.58 -1.76 0.63a2.88 2.88 0 0 1 -0.86 0.13 3.78 3.78 0 0 1 -0.9 -0.2 4.4 4.4 0 0 1 -1.76 -1.58c-0.35 -0.43 -0.71 -0.86 -1 -1.3A3.45 3.45 0 0 1 3.2 12c-0.14 -0.62 0.3 -1 0.85 -1.19a0.67 0.67 0 0 1 0.86 0.35 24.33 24.33 0 0 0 1.65 2 5.79 5.79 0 0 0 0.74 0.84 0.61 0.61 0 0 0 0.48 0.1 1.93 1.93 0 0 0 0.63 -0.29 0.32 0.32 0 0 0 0.11 -0.45 0.3 0.3 0 0 0 -0.42 -0.05l-0.44 0.21a5.77 5.77 0 0 1 -0.85 -1c-0.28 -0.35 -0.54 -0.71 -0.81 -1.07a5.82 5.82 0 0 0 -0.79 -1 1.59 1.59 0 0 0 -1.86 -0.09 1.74 1.74 0 0 0 -0.5 0.44 1.65 1.65 0 0 0 -0.18 0.32c0 0.07 -0.08 0.38 -0.13 0.41s0 0.25 0 0.25c0 0.17 0 0.69 1.72 3.2a5 5 0 0 0 2.19 1.9 5 5 0 0 0 1.08 0.24A3.81 3.81 0 0 0 8.67 17c0.24 -0.06 1.44 -0.54 2 -0.65a1.23 1.23 0 0 1 0.22 0.27c0.21 0.31 0.37 0.7 0.47 0.87s0.27 0.42 0.38 0.66a0.77 0.77 0 0 1 0.09 0.31 1.24 1.24 0 0 1 -0.22 0.67c-0.38 0.67 -1.06 1.31 -1.37 1.9a2.78 2.78 0 0 0 -0.32 1.83 1 1 0 0 0 0.92 0.72 2 2 0 0 0 1 -0.12 3.82 3.82 0 0 0 1.09 -0.64 9.67 9.67 0 0 0 1.41 -1.38 12.84 12.84 0 0 0 1.12 -1.6 9.88 9.88 0 0 1 0.64 -1.08 0.76 0.76 0 0 1 0.43 -0.28 7.23 7.23 0 0 1 0.88 -0.12 2 2 0 0 1 0.72 0.05 1.19 1.19 0 0 1 0.33 0.22c0.21 0.19 0.39 0.41 0.57 0.6s0.42 0.47 0.62 0.72c0.48 0.6 0.91 1.23 1.4 1.84a2.16 2.16 0 0 0 1.69 0.65 1.39 1.39 0 0 0 1.13 -0.77 2.86 2.86 0 0 0 -0.04 -2.08Z" fill="#020202" stroke-width="1"></path>
  </g>
</svg>