<svg xmlns="http://www.w3.org/2000/svg" viewBox="0 0 24 24" id="Audio-File-Mp3--Streamline-Freehand">
  <desc>
    Audio File Mp3 Streamline Icon: https://streamlinehq.com
  </desc>
  <g>
    <g>
      <path d="M8.11 10.58c-0.62 0.11 -1 0.93 -1.24 1.37 -0.16 -0.25 -0.31 -0.86 -0.4 -1 -0.45 -0.63 -0.92 -0.56 -1.16 -0.24A2 2 0 0 0 5 11.83a30.27 30.27 0 0 0 -0.17 3.24c0 0.42 0.46 0.43 0.55 0.17A21.51 21.51 0 0 0 5.87 12a4 4 0 0 0 0.32 0.59 0.83 0.83 0 0 0 1.38 0.06A4.32 4.32 0 0 0 8 12a24.71 24.71 0 0 1 0.14 3.2 0.31 0.31 0 0 0 0.62 0 20.24 20.24 0 0 0 0 -4.26 0.57 0.57 0 0 0 -0.65 -0.36Z" fill="#020202" stroke-width="1"></path>
      <path d="M12.78 11.12a2.47 2.47 0 0 0 -1.78 -0.33c-1.54 0.47 -1.18 2.64 -1.13 4.35 0 0.29 -0.07 0.68 0.21 0.74 0.56 0.13 0.39 -0.9 0.58 -2.49a0.32 0.32 0 0 0 0.25 0.17c1.91 0.3 3.24 -1.47 1.87 -2.44Zm-0.88 1.64c-0.73 0.32 -1 0.07 -1.22 0.29 0.07 -0.43 0.2 -1.16 0.58 -1.27s1.26 0.08 1.17 0.44a0.91 0.91 0 0 1 -0.53 0.54Z" fill="#020202" stroke-width="1"></path>
      <path d="M16.82 13.27a3 3 0 0 0 0.61 -0.56c0.53 -0.69 0.26 -1.33 -0.38 -1.51a4 4 0 0 0 -1.45 0c-0.07 0 -0.79 0.22 -0.86 0.27 -0.39 0.28 -0.37 0.73 0.29 0.46a2.6 2.6 0 0 1 1.8 0.1c-0.27 0.36 -1.26 0.81 -1.53 1.15a0.63 0.63 0 0 0 0 0.88c0.44 0.37 1.72 0 1.51 0.3a2.34 2.34 0 0 1 -0.91 0.75 2.29 2.29 0 0 1 -1.52 0.06 0.31 0.31 0 0 0 -0.26 0.56 3.37 3.37 0 0 0 2.39 0c1.38 -0.52 1.94 -2.11 0.31 -2.46Z" fill="#020202" stroke-width="1"></path>
      <path d="M19.84 9.58c-0.84 -5.78 0.74 -4.38 -1.09 -6.44S16.84 0.94 14.93 0.05a0.34 0.34 0 0 0 -0.52 0.29c0 0.72 0.81 -0.32 3.69 3.35 0 0 0.28 0.33 0.49 0.61a11 11 0 0 1 -1.8 0.49c-2 0.39 -2.23 0.21 -2.3 0.21 0.28 -0.85 -0.37 -4.57 -0.37 -4.57 0 -0.5 -5.17 0.15 -5.77 0.23A30.87 30.87 0 0 1 5 1.05l-1.93 0c-0.39 0.1 -0.3 0.17 -0.21 2.31 -0.1 7.89 -0.16 6.09 -1 14a7.76 7.76 0 0 0 -0.27 2.59c0.43 1.44 2.36 0.94 5.07 1.14s5.77 0.84 8.72 0.37c1.17 -0.19 3.42 -0.27 4.07 -1.38 0.79 -1.31 1.05 -6.19 0.39 -10.5Zm-1.11 10c-0.42 0.69 -2.74 0.8 -3.46 0.9 -2.7 0.4 -5.69 -0.22 -8.5 -0.42 -1.23 -0.09 -2.65 0 -3.83 -0.16 -0.86 -0.13 -0.22 -1.51 -0.14 -2.5 0.28 -3.53 0.72 -7 0.67 -10.58a50.64 50.64 0 0 1 -0.07 -5.25c0.53 0.07 0.86 0.14 1.57 0.22 2.71 0.29 5.69 -0.77 8.42 -0.92 -0.15 0.35 0.5 1.71 -0.05 4 -0.45 1.86 3.76 1 5.53 0.28a0.27 0.27 0 0 0 0 0.15c0.17 1.9 0 2 0.28 4.34 0.44 3.19 0.41 8.61 -0.42 9.96Z" fill="#020202" stroke-width="1"></path>
    </g>
    <path d="M21.31 7.62c-0.09 1.39 0.78 14.29 -0.24 14.79 -1.43 0.69 -3.49 0.4 -5 0.53a40 40 0 0 1 -4.13 0.18c-4.63 -0.16 -4.63 0 -5.76 -0.51 -0.65 -0.26 -0.82 0.38 -0.41 0.65a3.44 3.44 0 0 0 1.51 0.49 51.76 51.76 0 0 0 8.86 0.11c1.52 -0.13 3.81 0.25 5.47 -0.55 1.51 -0.74 0.44 -14 0.51 -15.56 0.05 -0.75 -0.71 -0.93 -0.81 -0.13Z" fill="#4C57E6" fill-rule="evenodd" stroke-width="1"></path>
  </g>
</svg>