<svg xmlns="http://www.w3.org/2000/svg" viewBox="0 0 24 24" id="Audio-File-Home--Streamline-Freehand">
  <desc>
    Audio File Home Streamline Icon: https://streamlinehq.com
  </desc>
  <g>
    <path d="M23.89 19c-1.81 -1.77 -4.93 -6.72 -6.4 -6.32a3.63 3.63 0 0 0 -1.26 0.82 55.24 55.24 0 0 0 -4.75 5.61c0 0.17 0.17 0.56 0.55 0.22 0.16 -0.14 0.53 -0.56 1.3 -1.37 -0.06 0.59 -0.36 3.84 -0.36 3.84 -0.08 0.8 -0.08 1.38 0.79 1.56 2.22 0.22 2.12 0.27 2.41 0.06 0.46 -0.33 0.25 -1.14 0.26 -1.4 0 -0.7 0.28 -1.79 1 -1.87a0.23 0.23 0 0 1 0.22 0.14A2.72 2.72 0 0 1 18 22c0 0.26 -0.15 0.73 0.08 1.06s0.85 0.29 1.14 0.32c2.19 0.26 2.09 -0.7 2.48 -4.75a0.33 0.33 0 0 0 -0.65 -0.14c-0.77 5.21 -0.62 3.85 -2 4l0 -0.41a3.18 3.18 0 0 0 -0.82 -2.73c-1.28 -1 -3.3 0.8 -2.74 3.16a0.47 0.47 0 0 1 -0.15 0c-1.8 -0.07 -1.55 0.13 -1.52 -0.64 0.09 -4.08 0.16 -3.61 0.19 -4.6a29.08 29.08 0 0 1 3.68 -3.44c0 0.05 0.2 0.08 0.32 0.16 1.21 0.91 4.23 4.4 5.45 5.51a0.33 0.33 0 1 0 0.43 -0.5Z" fill="#020202" fill-rule="evenodd" stroke-width="1"></path>
    <path d="M12.44 12.47a6.54 6.54 0 0 0 0.19 -3.17c-0.1 -0.74 -0.06 -1.71 -0.71 -1.86 -0.23 -0.05 -2.77 0.15 -2.85 0.16 -3.72 0.34 -2.73 0.89 -2.58 4.33 -1.93 -0.47 -2.49 2.67 -0.62 2.83 1 0.08 1.47 -0.84 1.56 -1.86a23.46 23.46 0 0 0 -0.07 -3.6c0 -0.7 0.25 -0.36 0.87 -0.46l3.31 -0.3a6.42 6.42 0 0 1 0 0.92c0 0.18 0.07 0.42 0.1 0.67a1.7 1.7 0 0 0 -1.76 2.74 1.46 1.46 0 0 0 2.56 -0.4Zm-6.52 1.47c-0.36 0 -0.49 -0.31 -0.47 -0.61 0.08 -1.25 1 -0.67 1 -0.64 0.04 0.5 -0.03 1.31 -0.53 1.25Zm5.75 -2.17c-0.2 0.93 -0.89 1 -1.17 0.45a0.92 0.92 0 0 1 1.24 -1.32 4.09 4.09 0 0 1 -0.07 0.87Z" fill="#4C57E6" fill-rule="evenodd" stroke-width="1"></path>
    <g>
      <path d="M10.11 18.5c-6.88 -0.17 -6.92 -0.14 -7.66 -0.28a2.15 2.15 0 0 1 -1.16 -0.49A7 7 0 0 0 2 16.36c2.37 -6.27 1.77 -9.69 2 -12.91l0 -2.19a0.29 0.29 0 0 0 -0.39 -0.15c-0.31 0.13 -0.23 0.6 -0.23 0.76C3 9 2.69 10.3 1.7 13.75a20.6 20.6 0 0 1 -0.93 2.71c-0.32 0.61 -0.72 1.1 -0.76 1.31a0.79 0.79 0 0 0 0.45 0.8 6.31 6.31 0 0 0 1.82 0.63c0.82 0.13 1 0.09 7.86 0a0.34 0.34 0 0 0 -0.03 -0.7Z" fill="#020202" fill-rule="evenodd" stroke-width="1"></path>
      <path d="M13 2.87c0.22 1.3 -1.79 3.41 0.26 3.58A6.87 6.87 0 0 0 16 6l1.18 -0.53c0.25 -0.12 0.3 -0.33 0.2 -0.49 -0.23 -0.38 -1.09 0 -1.7 0.24a8.63 8.63 0 0 1 -2.29 0.18 4.9 4.9 0 0 0 0.21 -3.32c-0.33 -0.3 -0.76 -0.08 -0.6 0.79Z" fill="#020202" fill-rule="evenodd" stroke-width="1"></path>
      <path d="M14 0.45c-1.06 -0.08 -0.37 -0.06 -8.63 0.14a0.34 0.34 0 0 0 0 0.68s8.35 0.27 8.55 0.29c0.92 0.08 4 2.92 4 3.49 0 1.44 -0.3 3.77 -0.44 5.17a0.3 0.3 0 0 0 0.59 0.08c0.18 -1.19 0.65 -3.61 0.81 -5.2S15.34 0.56 14 0.45Z" fill="#020202" fill-rule="evenodd" stroke-width="1"></path>
      <path d="M19.21 1.93a6.05 6.05 0 0 1 1.9 3.12c0 1.44 -0.88 5.3 -1 6.7a0.29 0.29 0 0 0 0.58 0.08c0.18 -1.19 1.25 -5.14 1.4 -6.73a4.94 4.94 0 0 0 -2.24 -3.89c-0.98 -0.51 -1.11 0.44 -0.64 0.72Z" fill="#4C57E6" fill-rule="evenodd" stroke-width="1"></path>
    </g>
  </g>
</svg>