<svg xmlns="http://www.w3.org/2000/svg" viewBox="0 0 24 24" id="Audio-File-Equalizer--Streamline-Freehand">
  <desc>
    Audio File Equalizer Streamline Icon: https://streamlinehq.com
  </desc>
  <g>
    <g>
      <path d="M7.84 7.25a4.47 4.47 0 0 0 -1 -0.26 3.41 3.41 0 0 0 -1.57 0.37c-0.13 0.14 -0.16 0.24 -0.09 0.33s0 0.12 0.13 0.14a7.1 7.1 0 0 0 2.47 0 0.31 0.31 0 0 0 0.06 -0.58Z" fill="#020202" stroke-width="1"></path>
      <path d="M7.76 10.12a4.33 4.33 0 0 0 -1 -0.26 3.35 3.35 0 0 0 -1.56 0.37c-0.13 0.14 -0.17 0.24 -0.1 0.33s0 0.12 0.14 0.14a7.1 7.1 0 0 0 2.47 0 0.31 0.31 0 0 0 0.05 -0.58Z" fill="#020202" stroke-width="1"></path>
      <path d="M7.76 13.56a4.88 4.88 0 0 0 -1 -0.25 3.52 3.52 0 0 0 -1.56 0.36c-0.13 0.14 -0.17 0.25 -0.1 0.34s0 0.12 0.14 0.13a6.64 6.64 0 0 0 2.47 0 0.31 0.31 0 0 0 0.05 -0.58Z" fill="#020202" stroke-width="1"></path>
      <path d="M7.76 16.64a4.88 4.88 0 0 0 -1 -0.25 3.52 3.52 0 0 0 -1.56 0.36c-0.13 0.14 -0.17 0.25 -0.1 0.34s0 0.12 0.14 0.13a6.64 6.64 0 0 0 2.47 0 0.31 0.31 0 0 0 0.05 -0.58Z" fill="#020202" stroke-width="1"></path>
      <path d="M17.17 10.12a4.33 4.33 0 0 0 -1 -0.26 3.41 3.41 0 0 0 -1.57 0.37c-0.12 0.14 -0.16 0.24 -0.09 0.33s0 0.12 0.14 0.14a7 7 0 0 0 2.46 0 0.31 0.31 0 1 0 0.06 -0.58Z" fill="#020202" stroke-width="1"></path>
      <path d="M17.17 13.56a4.88 4.88 0 0 0 -1 -0.25 3.57 3.57 0 0 0 -1.57 0.36c-0.12 0.14 -0.16 0.25 -0.09 0.34s0 0.12 0.14 0.13a6.59 6.59 0 0 0 2.46 0 0.31 0.31 0 1 0 0.06 -0.58Z" fill="#020202" stroke-width="1"></path>
      <path d="M17.17 16.64a4.88 4.88 0 0 0 -1 -0.25 3.57 3.57 0 0 0 -1.57 0.36c-0.12 0.14 -0.16 0.25 -0.09 0.34s0 0.12 0.14 0.13a6.59 6.59 0 0 0 2.46 0 0.31 0.31 0 1 0 0.06 -0.58Z" fill="#020202" stroke-width="1"></path>
      <path d="M12.35 13.56a4.88 4.88 0 0 0 -1 -0.25 3.57 3.57 0 0 0 -1.57 0.36c-0.12 0.14 -0.16 0.25 -0.09 0.34s0 0.12 0.14 0.13a6.59 6.59 0 0 0 2.46 0 0.31 0.31 0 1 0 0.06 -0.58Z" fill="#020202" stroke-width="1"></path>
      <path d="M12.35 16.64a4.88 4.88 0 0 0 -1 -0.25 3.57 3.57 0 0 0 -1.57 0.36c-0.12 0.14 -0.16 0.25 -0.09 0.34s0 0.12 0.14 0.13a6.59 6.59 0 0 0 2.46 0 0.31 0.31 0 1 0 0.06 -0.58Z" fill="#020202" stroke-width="1"></path>
      <path d="M19.76 9.57c-0.88 -5.77 0.74 -4.37 -1.09 -6.43S16.77 0.94 14.85 0.05a0.33 0.33 0 0 0 -0.51 0.29c0 0.72 0.81 -0.32 3.68 3.34l0.49 0.61a10.24 10.24 0 0 1 -1.79 0.49c-2 0.4 -2.23 0.22 -2.3 0.22 0.27 -0.85 -0.37 -4.57 -0.37 -4.57 0 -0.5 -5.17 0.15 -5.76 0.23A31.16 31.16 0 0 1 5 1.05l-1.93 0c-0.39 0.1 -0.29 0.17 -0.21 2.3 -0.09 7.88 -0.15 6.09 -1 14a8 8 0 0 0 -0.27 2.59c0.41 1.41 2.34 0.9 5.05 1.06s5.76 0.85 8.71 0.38c1.17 -0.19 3.41 -0.28 4.06 -1.39 0.75 -1.24 1.01 -6.12 0.35 -10.42Zm-1.11 10c-0.41 0.68 -2.73 0.79 -3.45 0.89 -2.7 0.41 -5.69 -0.22 -8.49 -0.42 -1.23 -0.08 -2.65 0 -3.82 -0.15 -0.86 -0.14 -0.22 -1.51 -0.15 -2.5 0.28 -3.53 0.72 -7 0.67 -10.57 -0.13 -5.65 -0.07 -5.25 -0.07 -5.26 0.53 0.06 0.86 0.14 1.57 0.22 2.71 0.29 5.68 -0.77 8.41 -0.92 -0.15 0.34 0.5 1.71 -0.05 4 -0.45 1.86 3.76 1 5.53 0.29a0.2 0.2 0 0 0 0 0.15c0.18 1.89 0 2 0.29 4.32 0.42 3.19 0.39 8.61 -0.44 9.96Z" fill="#020202" stroke-width="1"></path>
    </g>
    <path d="M21.37 7.64c-0.09 1.39 0.78 14.28 -0.24 14.77 -1.43 0.69 -3.49 0.4 -5 0.53 -0.93 0.08 -2.92 0.23 -4.12 0.19 -4.63 -0.17 -4.62 0 -5.75 -0.52 -0.66 -0.26 -0.83 0.38 -0.42 0.65a3.48 3.48 0 0 0 1.52 0.49 51.59 51.59 0 0 0 8.85 0.11c1.52 -0.13 3.8 0.25 5.46 -0.55s0.43 -14 0.51 -15.54c0.05 -0.77 -0.71 -0.93 -0.81 -0.13Z" fill="#4C57E6" fill-rule="evenodd" stroke-width="1"></path>
  </g>
</svg>