<svg xmlns="http://www.w3.org/2000/svg" viewBox="0 0 24 24" id="Auto-Pilot-Car-Wheel-Disable--Streamline-Freehand">
  <desc>
    Auto Pilot Car Wheel Disable Streamline Icon: https://streamlinehq.com
  </desc>
  <g>
    <path d="M12.32 18.82a0.29 0.29 0 0 0 -0.41 0.05 0.28 0.28 0 0 0 0.05 0.4 1.11 1.11 0 0 1 0.09 0.19 2.34 2.34 0 0 1 0.09 0.54c0 0.13 0 0.25 0.07 0.38 0.11 0.38 0.25 0.74 0.34 1.08a0.32 0.32 0 0 0 0.1 0.18c-0.27 0 -0.5 -0.11 -0.76 -0.13a1.63 1.63 0 0 0 -0.54 0 2.43 2.43 0 0 0 -0.78 0.32 1.27 1.27 0 0 0 -0.28 -0.43 2.13 2.13 0 0 0 -0.73 -0.4 0.39 0.39 0 0 0 -0.24 0 0.31 0.31 0 0 0 -0.26 -0.07 1.19 1.19 0 0 0 -1.14 1 6.17 6.17 0 0 0 -0.62 -0.11 3 3 0 0 0 -0.42 0l-0.42 0 -0.33 0.09a1.08 1.08 0 0 0 -0.58 -0.91 0.88 0.88 0 0 0 -0.42 -0.11 1.79 1.79 0 0 0 -0.55 0.11 0.29 0.29 0 0 0 -0.34 -0.14 1.3 1.3 0 0 0 -1 1.25L1.67 22l-0.54 0 -0.09 0a1.3 1.3 0 0 0 0 -0.21l0.07 -1.48a7.75 7.75 0 0 0 1.16 0.09 9.71 9.71 0 0 0 1.29 -0.1 3.58 3.58 0 0 0 0.7 -0.13 0.92 0.92 0 0 0 0.47 -0.4A2.75 2.75 0 0 0 5 18.56c0 -0.76 -0.21 -1.58 -0.25 -2.28A0.33 0.33 0 0 0 4.4 16a0.33 0.33 0 0 0 -0.33 0.33c-0.06 0.57 0 1.26 -0.08 1.9 -0.09 0.87 -0.43 0.93 -0.71 1a10.78 10.78 0 0 1 -1.13 0.32c-0.32 0.06 -0.65 0.1 -1 0.13a4.7 4.7 0 0 1 0.57 -1.41 5.28 5.28 0 0 1 4.22 -2.67 0.28 0.28 0 0 0 0.29 -0.28A0.29 0.29 0 0 0 6 15a5.75 5.75 0 0 0 -4 1.31 5.18 5.18 0 0 0 -1.22 1.33A5 5 0 0 0 0 20.18l0.05 1.61a3 3 0 0 0 0.05 0.42 0.65 0.65 0 0 0 0.19 0.32 1.21 1.21 0 0 0 0.47 0.23 4.17 4.17 0 0 0 0.86 0l1.64 0a1.42 1.42 0 0 0 1.73 1 1.77 1.77 0 0 0 1 -1l0.47 0.08a1.89 1.89 0 0 0 0.41 0 2.71 2.71 0 0 0 0.41 0c0.23 0 0.45 -0.1 0.67 -0.15a1.45 1.45 0 0 0 0.43 0.59 1.48 1.48 0 0 0 0.77 0.31 1.36 1.36 0 0 0 1.14 -0.44 1.31 1.31 0 0 0 0.31 -0.66c0.24 0 0.44 0.09 0.67 0.12h0.31a1.26 1.26 0 0 0 0.33 -0.05 4.46 4.46 0 0 0 0.78 -0.26 0.32 0.32 0 0 0 0.28 -0.37 0.3 0.3 0 0 0 -0.1 -0.17 0.33 0.33 0 0 0 0.3 -0.35 7 7 0 0 0 0.11 -1 2 2 0 0 0 -0.13 -0.69 1.69 1.69 0 0 0 -0.83 -0.9ZM4.7 22.76a0.37 0.37 0 0 1 -0.36 -0.07 0.85 0.85 0 0 1 -0.29 -0.53 0.72 0.72 0 0 1 0.2 -0.61 0.35 0.35 0 0 0 0.37 0.16 2.07 2.07 0 0 1 0.38 -0.05 0.19 0.19 0 0 1 0.14 0c0.18 0.14 0.1 0.38 0 0.59a0.75 0.75 0 0 1 -0.44 0.51Zm4.94 -0.39a0.33 0.33 0 0 1 -0.32 0.1 0.5 0.5 0 0 1 -0.32 -0.16 0.6 0.6 0 0 1 -0.2 -0.37 0.57 0.57 0 0 1 0.39 -0.5 0.26 0.26 0 0 0 0.14 0.11 1.52 1.52 0 0 1 0.33 0.3 0.6 0.6 0 0 1 0.12 0.29 0.32 0.32 0 0 1 -0.14 0.23Z" fill="#020202" fill-rule="evenodd" stroke-width="1"></path>
    <g>
      <path d="M14.75 3.07a8.12 8.12 0 0 0 -1.46 0.31 3.54 3.54 0 0 0 -0.94 0.43 0.3 0.3 0 0 0 -0.4 -0.12 3 3 0 0 0 -0.78 0.6 5.69 5.69 0 0 0 -0.82 1.16 8.71 8.71 0 0 0 -1 3.43 6.17 6.17 0 0 0 0.7 3.59 1 1 0 0 0 0.09 0.13c0.85 0.36 1.09 0.13 0.64 -0.76a4.8 4.8 0 0 1 -0.59 -1.91A1.66 1.66 0 0 1 11 10a2.46 2.46 0 0 1 0.86 0.53c0.8 0.2 1.08 0 0.69 -0.81a3.26 3.26 0 0 0 -1.34 -0.49 2.52 2.52 0 0 0 -1 0.06l0 -0.35a8.77 8.77 0 0 1 0.12 -1 3.93 3.93 0 0 1 0.58 -0.19c0.44 -0.09 0.88 -0.12 1.31 -0.2a19 19 0 0 1 2 -0.27l0.57 0c1.48 -0.36 1.6 -0.75 1 -1.15l-1.15 0a11.85 11.85 0 0 0 -1.33 0.2 9.25 9.25 0 0 0 -1.3 0.37c-0.5 0.17 -1 0.28 -1.5 0.48a6.94 6.94 0 0 1 0.51 -1.37 5.47 5.47 0 0 1 0.55 -0.89 2.45 2.45 0 0 1 0.74 -0.66l0 0.09a0.33 0.33 0 0 0 0.46 0.08 2.91 2.91 0 0 1 0.72 -0.43 8.42 8.42 0 0 1 1.34 -0.24 4.09 4.09 0 0 1 2.32 0.5c1.33 0.34 1.39 0.07 0.55 -0.64a4.93 4.93 0 0 0 -2.95 -0.55Z" fill="#020202" fill-rule="evenodd" stroke-width="1"></path>
      <path d="M23.18 0.68a0.33 0.33 0 0 0 0 -0.47 0.34 0.34 0 0 0 -0.48 0l-1.2 1.17s-5.45 6 -7.12 7.89C12.87 11 9.29 15.18 8.55 16c-0.28 0.37 -0.57 0.73 -0.85 1.11a0.29 0.29 0 0 0 0.06 0.41 0.31 0.31 0 0 0 0.42 -0.06C8.34 17.31 22.94 1 23.18 0.68Z" fill="#4C57E6" fill-rule="evenodd" stroke-width="1"></path>
      <path d="M8.92 14a5.5 5.5 0 0 1 -0.79 -1.28 9.41 9.41 0 0 1 0.09 -7.5A6.56 6.56 0 0 1 14 1a0.29 0.29 0 0 0 0.2 0.05 9.09 9.09 0 0 1 4.59 0.74l0.34 0.18c1.05 0.29 1.17 0.06 0.5 -0.59a5.28 5.28 0 0 0 -0.53 -0.27 9.67 9.67 0 0 0 -5 -0.71l-0.1 0.04a7.19 7.19 0 0 0 -6.49 4.42 10.38 10.38 0 0 0 -0.3 8.23 6.94 6.94 0 0 0 1 1.68c1.05 0.23 1.14 -0.1 0.71 -0.77Z" fill="#020202" fill-rule="evenodd" stroke-width="1"></path>
      <path d="M22.82 4.54A6.69 6.69 0 0 0 22 3.35c-0.61 0 -0.95 0.11 -0.56 0.64a6.44 6.44 0 0 1 0.61 1 9.26 9.26 0 0 1 0.74 6.2 7.3 7.3 0 0 1 -3.5 5 6.06 6.06 0 0 1 -1.77 0.6 8.11 8.11 0 0 1 -1.93 0.16 10.58 10.58 0 0 1 -4.3 -1c-1.41 -0.12 -1.62 0.18 -0.71 0.86l0.09 0.06A11.56 11.56 0 0 0 15.58 18a9.71 9.71 0 0 0 2.17 -0.19 7.24 7.24 0 0 0 2.1 -0.73 8.35 8.35 0 0 0 3.95 -5.71 10.2 10.2 0 0 0 -0.98 -6.83Z" fill="#020202" fill-rule="evenodd" stroke-width="1"></path>
      <path d="M19.76 7a6 6 0 0 1 0.28 0.77 4.43 4.43 0 0 1 0.11 0.73 5.23 5.23 0 0 0 -1.34 0.23 3.41 3.41 0 0 0 -1 0.49 3.09 3.09 0 0 0 -0.8 0.94 5.8 5.8 0 0 0 -0.52 1.62 13.27 13.27 0 0 0 -0.16 1.38l0 0.62a6 6 0 0 1 -1.89 0.12 3.84 3.84 0 0 0 -0.15 -1.68c-0.58 -0.1 -1 0 -0.67 0.8a2.63 2.63 0 0 1 0.15 0.79c-0.22 -0.05 -0.43 -0.12 -0.65 -0.19 -1.12 -0.08 -1.34 0.22 -0.72 0.87a6 6 0 0 0 1.4 0.44 6.86 6.86 0 0 0 4.5 -0.71 5.07 5.07 0 0 0 2 -2.07 7.88 7.88 0 0 0 0.78 -2.23A5.32 5.32 0 0 0 21 7.53a5 5 0 0 0 -1 -1.64c-2.54 0.38 -1.15 1.17 -0.24 1.11Zm0.32 2.74a6.81 6.81 0 0 1 -0.71 1.9 4.47 4.47 0 0 1 -0.68 0.92 4.16 4.16 0 0 1 -0.91 0.7 4.5 4.5 0 0 1 -0.74 0.33c0 -0.11 0 -0.22 0.05 -0.32 0.11 -0.43 0.26 -0.83 0.4 -1.24a6.91 6.91 0 0 1 0.51 -1.32 2.38 2.38 0 0 1 0.5 -0.7 2.44 2.44 0 0 1 0.82 -0.54 3.91 3.91 0 0 1 0.82 -0.26c-0.01 0.18 -0.03 0.37 -0.06 0.55Z" fill="#020202" fill-rule="evenodd" stroke-width="1"></path>
    </g>
  </g>
</svg>