<svg xmlns="http://www.w3.org/2000/svg" viewBox="0 0 24 24" id="Auto-Pilot-Car-Radius-1--Streamline-Freehand">
  <desc>
    Auto Pilot Car Radius 1 Streamline Icon: https://streamlinehq.com
  </desc>
  <g>
    <path d="m9.93 11.78 0 -0.16a0.29 0.29 0 0 0 0.22 0c0 0.08 0.2 0 0.23 0l0.78 0.15 0.33 0H12l0.89 0a0.73 0.73 0 0 0 0.3 0c0.11 0 0.19 -0.13 0.29 -0.14a0.34 0.34 0 0 0 0.26 -0.12 1.52 1.52 0 0 0 0.38 0.82 1.36 1.36 0 0 0 1.07 0.44 1.44 1.44 0 0 0 1.35 -1 1.49 1.49 0 0 0 -0.45 -1.55 1.29 1.29 0 0 0 -0.72 -0.35 1.36 1.36 0 0 0 -0.74 0.1 0.32 0.32 0 0 0 -0.19 0.15 1.07 1.07 0 0 0 -0.54 0.53 1.12 1.12 0 0 0 -0.14 0.46 0.35 0.35 0 0 0 -0.27 -0.14 2.06 2.06 0 0 0 -0.42 0l-0.05 0a7 7 0 0 0 -0.95 -0.25 3.11 3.11 0 0 0 -0.61 0 3 3 0 0 0 -0.41 0.08l-0.65 0.2a2.58 2.58 0 0 0 -0.34 0.07 0.41 0.41 0 0 0 -0.11 0.07 1.49 1.49 0 0 0 -0.48 -0.89 1.29 1.29 0 0 0 -0.72 -0.35A1.36 1.36 0 0 0 8 10a0.32 0.32 0 0 0 -0.19 0.15 1.09 1.09 0 0 0 -0.55 0.53 1.49 1.49 0 0 0 -0.16 0.71 1.45 1.45 0 0 0 0.39 1 1.37 1.37 0 0 0 1.08 0.44 1.45 1.45 0 0 0 1.36 -1.05Zm4.63 -0.85a0.49 0.49 0 0 1 0.17 -0.28l0.09 0a0.67 0.67 0 0 1 0.38 0 0.45 0.45 0 0 1 0.24 0.21 0.59 0.59 0 0 1 0.09 0.48 0.42 0.42 0 0 1 -0.43 0.34 0.37 0.37 0 0 1 -0.29 -0.06 0.57 0.57 0 0 1 -0.25 -0.32 0.71 0.71 0 0 1 0 -0.37Zm-6.35 0.68a0.59 0.59 0 0 1 -0.21 -0.32 0.85 0.85 0 0 1 0 -0.36 0.49 0.49 0 0 1 0.17 -0.28l0.08 0a0.67 0.67 0 0 1 0.38 0 0.45 0.45 0 0 1 0.24 0.21 0.59 0.59 0 0 1 0.09 0.48 0.42 0.42 0 0 1 -0.43 0.34 0.34 0.34 0 0 1 -0.32 -0.07Z" fill="#020202" stroke-width="1"></path>
    <path d="M4.49 11a0.79 0.79 0 0 0 0.31 0.32 1.48 1.48 0 0 0 0.63 0.19 7.24 7.24 0 0 1 1.15 0 0.3 0.3 0 0 0 0.38 -0.2 0.3 0.3 0 0 0 -0.2 -0.37 7.26 7.26 0 0 0 -1.25 -0.12 0.87 0.87 0 0 1 -0.36 -0.13 0.23 0.23 0 0 1 -0.08 -0.16 3.27 3.27 0 0 1 -0.07 -0.34 5 5 0 0 1 0 -0.91 0.93 0.93 0 0 1 0.17 -0.63c0.15 -0.13 0.35 -0.06 0.55 -0.05a2.09 2.09 0 0 0 0.79 -0.06A1.14 1.14 0 0 0 7 8.17c0.39 -0.45 0.77 -1.17 1.24 -1.74a1.48 1.48 0 0 1 0.82 -0.6c0.44 -0.08 0.9 -0.14 1.36 -0.18l0.48 0c0 0.18 -0.1 0.64 -0.1 0.7a2.77 2.77 0 0 0 0.06 1.27 1.13 1.13 0 0 0 0.56 0.58 2.32 2.32 0 0 0 1.15 0.2A11 11 0 0 0 14 8.1l0.68 -0.1 0.21 -0.06A0.31 0.31 0 0 0 15 8a13.78 13.78 0 0 1 2.51 0.68 1.53 1.53 0 0 1 0.78 1.15c0 0.14 0.08 0.3 0.1 0.46s0.06 0.16 0 0.18l-0.9 0.17a2.86 2.86 0 0 0 -0.43 0.08 0.36 0.36 0 0 0 -0.22 0.34 0.34 0.34 0 0 0 0.34 0.34 0.42 0.42 0 0 0 0.15 0c0 0.06 0.22 0 0.25 0l1 -0.14a0.74 0.74 0 0 0 0.54 -0.41 2 2 0 0 0 0 -1.07A2.35 2.35 0 0 0 18 7.89 13.89 13.89 0 0 0 15.36 7c0.09 -0.1 -0.13 -0.26 -0.18 -0.37 -0.15 -0.3 -0.26 -0.78 -0.43 -1.15a2 2 0 0 0 -0.39 -0.61 1.39 1.39 0 0 0 -0.63 -0.37 4.52 4.52 0 0 0 -1.21 -0.09c-0.61 0 -1.22 0 -1.84 0.05a14 14 0 0 0 -1.85 0.25 2.27 2.27 0 0 0 -1.19 0.71c-0.57 0.62 -1 1.56 -1.41 2.12 -0.11 0.15 -0.28 0.13 -0.44 0.13a2.93 2.93 0 0 0 -0.73 0 1.14 1.14 0 0 0 -0.54 0.31 1.37 1.37 0 0 0 -0.33 0.77 5.16 5.16 0 0 0 0.09 1.5 2.37 2.37 0 0 0 0.21 0.75Zm6.69 -5.15a0.29 0.29 0 0 0 0.26 -0.11 0.21 0.21 0 0 1 -0.26 0.15Zm2.05 -0.33a0.58 0.58 0 0 1 0.35 0.11 1 1 0 0 1 0.18 0.28c0.19 0.38 0.33 0.86 0.49 1.16l0.06 0.11h-0.43l-1.55 0a1.46 1.46 0 0 1 -0.48 -0.08c-0.13 0 -0.17 -0.17 -0.2 -0.29a4.91 4.91 0 0 1 -0.1 -0.54c0 -0.06 0.1 -0.62 -0.06 -0.62a0.4 0.4 0 0 0 0 -0.11l1 0c0.31 0 0.51 0 0.74 0.02Z" fill="#020202" stroke-width="1"></path>
    <path d="M4.78 12.73c0.08 0 0.12 0 0 -0.08Z" fill="#4C57E6" stroke-width="1"></path>
    <path d="M4.73 12.3a0.32 0.32 0 0 0 -0.49 0.19 1.66 1.66 0 0 0 0 0.79 4.51 4.51 0 0 0 2.47 1.86 15.65 15.65 0 0 0 4.4 0.82 17.92 17.92 0 0 0 2.54 -0.05 12.62 12.62 0 0 0 2.52 -0.49 6.67 6.67 0 0 0 1.49 -0.61 4.65 4.65 0 0 0 1.29 -1 1 1 0 0 0 0.25 -0.42 1.74 1.74 0 0 0 0.07 -0.62 1.19 1.19 0 0 0 -0.13 -0.53 0.38 0.38 0 0 0 -0.28 -0.12 0.34 0.34 0 0 0 -0.34 0.34 0.42 0.42 0 0 0 0 0.16l0 0.15a1.16 1.16 0 0 1 0 0.33 0.38 0.38 0 0 1 -0.13 0.19 4 4 0 0 1 -1.14 0.77 6.81 6.81 0 0 1 -1.34 0.45 13.23 13.23 0 0 1 -1.89 0.27 19.76 19.76 0 0 1 -2.88 0.05A15.64 15.64 0 0 1 7 14.3 3.94 3.94 0 0 1 4.8 13a0.62 0.62 0 0 0 0 -0.23h-0.07l0 -0.06 0 -0.05a0.31 0.31 0 0 0 0 -0.36Z" fill="#4C57E6" stroke-width="1"></path>
    <path d="M23.93 12.83a4.94 4.94 0 0 0 -0.23 -0.68 4.18 4.18 0 0 0 -0.87 -1.26 3.45 3.45 0 0 0 -1.29 -0.83 0.35 0.35 0 0 0 -0.44 0.21 0.34 0.34 0 0 0 0.21 0.43 2.93 2.93 0 0 1 1 0.69 3.42 3.42 0 0 1 0.67 1 3.68 3.68 0 0 1 0.15 0.47 1.72 1.72 0 0 1 0.06 0.44 3.29 3.29 0 0 1 -1.07 2.48 7.07 7.07 0 0 1 -2.56 1.37 15.86 15.86 0 0 1 -2.55 0.64 33.12 33.12 0 0 1 -4 0.4c-0.85 0 -1.71 0.15 -2.57 0.18a9.19 9.19 0 0 1 -1.05 0A19.84 19.84 0 0 1 6.66 18 15.71 15.71 0 0 1 4 17.22a7.12 7.12 0 0 1 -1.69 -0.94 4.48 4.48 0 0 1 -1.23 -1.43 3 3 0 0 1 -0.27 -2A2.66 2.66 0 0 1 2 11.16l0.64 -0.37a0.3 0.3 0 0 0 0.23 -0.35 0.29 0.29 0 0 0 -0.35 -0.23 0.94 0.94 0 0 0 -0.31 0.1 5.5 5.5 0 0 0 -0.54 0.32 3.35 3.35 0 0 0 -1.5 2 3.76 3.76 0 0 0 0.24 2.55A5.19 5.19 0 0 0 1.75 17a8 8 0 0 0 1.86 1.15 16.71 16.71 0 0 0 2.81 1 19.2 19.2 0 0 0 2.93 0.45l1.17 0c0.87 0 1.74 -0.14 2.6 -0.19a33 33 0 0 0 3.42 -0.41 17.88 17.88 0 0 0 3.38 -0.88A7 7 0 0 0 23.21 16a4.13 4.13 0 0 0 0.79 -2.6 2.49 2.49 0 0 0 -0.07 -0.57Z" fill="#4C57E6" stroke-width="1"></path>
  </g>
</svg>