<svg xmlns="http://www.w3.org/2000/svg" viewBox="0 0 24 24" id="Award-Star--Streamline-Freehand">
  <desc>
    Award Star Streamline Icon: https://streamlinehq.com
  </desc>
  <g>
    <path d="M15.52 20.9a1.61 1.61 0 0 0 -0.19 -0.77 1.28 1.28 0 0 0 -0.67 -0.23c-0.65 -0.08 -2.05 -0.2 -3.45 -0.25l-1.72 0c-0.73 0 -1.35 0.07 -1.73 0.11a1.28 1.28 0 0 0 -0.67 0.2 0.48 0.48 0 0 0 -0.14 0.28 3.89 3.89 0 0 0 0 0.84 7.44 7.44 0 0 0 0.16 1.51c0.2 0.29 0.58 0.27 0.63 0s0 -0.45 0 -0.71a6.31 6.31 0 0 1 0.07 -1.14c0.36 0 1 0 1.68 0.06l1.7 0.05 3.38 0h0.09l0.19 1.63a0.28 0.28 0 1 0 0.56 0c0.02 -0.58 0.13 -1.05 0.11 -1.58Z" fill="#4C57E6" fill-rule="evenodd" stroke-width="1"></path>
    <path d="M21.51 8.62a2.08 2.08 0 0 0 -0.51 -0.49c-1 -0.75 -3.75 -2.05 -4.95 -2.93l0 -0.5c0 -0.86 0.1 -2.23 0.1 -3.16A3.88 3.88 0 0 0 16 0.47a0.67 0.67 0 0 0 -0.31 -0.37 0.64 0.64 0 0 0 -0.39 -0.1 1.81 1.81 0 0 0 -0.7 0.28c-0.94 0.59 -3 2.38 -3.72 2.53a23.16 23.16 0 0 1 -3.77 -0.68A4.77 4.77 0 0 0 6 2a0.57 0.57 0 0 0 -0.45 0.78l0.22 0.44c0.32 0.63 0.94 1.83 1.34 2.79a3.25 3.25 0 0 1 0.35 1 2.92 2.92 0 0 1 -0.54 1.1c-0.63 1 -1.57 2.14 -2 2.79a1.38 1.38 0 0 0 -0.28 0.64 0.49 0.49 0 0 0 0.07 0.31 1 1 0 0 0 0.78 0.26c0.92 0 3.1 -0.31 3.76 0a2.91 2.91 0 0 1 1.12 1.25 6.21 6.21 0 0 1 0.69 1.7 0.34 0.34 0 1 0 0.66 -0.14 7 7 0 0 0 -0.93 -2.27 3.22 3.22 0 0 0 -1.25 -1.23 4 4 0 0 0 -1.44 -0.18c-0.81 0 -1.76 0.07 -2.39 0.08l0 -0.07c0.48 -0.61 1.29 -1.57 1.87 -2.42a4.24 4.24 0 0 0 0.82 -1.67 16 16 0 0 0 -1.52 -4c0.89 0.17 2.12 0.51 3 0.67a3.65 3.65 0 0 0 1.21 0.08 7.19 7.19 0 0 0 2 -1.16c0.65 -0.47 1.33 -1 1.82 -1.33 0 1 -0.09 2.71 -0.07 3.54a1.88 1.88 0 0 0 0.07 0.6 0.64 0.64 0 0 0 0.2 0.31c1 0.82 3.84 2.11 5.1 2.9a0.88 0.88 0 0 1 -0.23 0.07c-1.17 0.24 -3.08 0.51 -4.36 0.75a4.74 4.74 0 0 0 -1.52 0.43 10.24 10.24 0 0 0 -1.33 3.28 14.15 14.15 0 0 0 -0.49 2.9h-1.05a25.27 25.27 0 0 0 -3.43 0.27 5.81 5.81 0 0 0 -2.38 0.75 3.23 3.23 0 0 0 -0.91 1.86 24.77 24.77 0 0 0 -0.25 3.93l-1.58 0.07a0.31 0.31 0 0 0 -0.31 0.3 0.3 0.3 0 0 0 0.3 0.3c0.69 0 3.18 0.19 6.08 0.26l2.61 0c0.88 0 1.76 0.06 2.64 0.06 2.91 -0.07 5.41 -0.2 6.09 -0.24a0.34 0.34 0 0 0 0.33 -0.35A0.34 0.34 0 0 0 20 23l-1.68 0 0 -0.08A16.38 16.38 0 0 0 18 18.8a3.35 3.35 0 0 0 -0.9 -1.79 5.67 5.67 0 0 0 -2.42 -0.64c-0.53 -0.05 -1.13 -0.09 -1.75 -0.12a12.57 12.57 0 0 1 0.54 -2.73 9.1 9.1 0 0 1 1.16 -2.86 4.09 4.09 0 0 1 1 -0.22c1.46 -0.23 3.82 -0.49 5 -0.73a2.35 2.35 0 0 0 0.75 -0.26 0.51 0.51 0 0 0 0.22 -0.26 0.58 0.58 0 0 0 -0.09 -0.57Zm-6.39 8.87a3.85 3.85 0 0 1 1.4 0.29 3.41 3.41 0 0 1 0.77 1.78 16.57 16.57 0 0 1 0.4 3.34 0.19 0.19 0 0 0 0 0.07c-6 -0.17 -7.88 -0.17 -12.83 0.05a28.28 28.28 0 0 1 0.34 -3.16A3.06 3.06 0 0 1 6 18a5.57 5.57 0 0 1 2 -0.4 32.56 32.56 0 0 1 3.31 -0.21 31.14 31.14 0 0 1 3.81 0.1Z" fill="#020202" fill-rule="evenodd" stroke-width="1"></path>
  </g>
</svg>