<svg xmlns="http://www.w3.org/2000/svg" viewBox="0 0 24 24" id="Award-Medal-Star-3--Streamline-Freehand">
  <desc>
    Award Medal Star 3 Streamline Icon: https://streamlinehq.com
  </desc>
  <g>
    <path d="M18.15 14a31.47 31.47 0 0 0 -3.2 -0.27c-0.58 -0.05 -0.37 0.19 -0.87 -0.59s-1.41 -2.38 -1.91 -3.05a1.45 1.45 0 0 0 -0.64 -0.56 0.57 0.57 0 0 0 -0.57 0.14 2.68 2.68 0 0 0 -0.35 0.48c-0.38 0.61 -1 1.81 -1.58 2.69a3.28 3.28 0 0 1 -0.66 0.88 25.73 25.73 0 0 1 -3.58 0.78 0.88 0.88 0 0 0 -0.67 0.54 0.46 0.46 0 0 0 0.1 0.38 2.83 2.83 0 0 0 0.32 0.33c0.66 0.6 2.31 1.93 2.54 2.59a7.59 7.59 0 0 1 -0.41 1.91c-0.31 1.16 -0.73 2.47 -0.93 3.12a0.3 0.3 0 0 0 0.57 0.19l0.11 -0.32a0.35 0.35 0 0 0 0.48 0.09c0.43 -0.31 1.33 -0.88 2.21 -1.4a18.58 18.58 0 0 1 1.81 -1c0.12 0 0.28 0 0.3 -0.08 1.22 0.51 3.61 2.34 4.76 2.89a1.16 1.16 0 0 0 1.09 0.08 0.77 0.77 0 0 0 0.28 -0.5 2.92 2.92 0 0 0 -0.13 -1.08c-0.38 -1.36 -1.47 -3.58 -1.52 -4.08 0 -0.21 0.23 -0.43 0.49 -0.71a26.54 26.54 0 0 1 2.27 -2 2.21 2.21 0 0 0 0.44 -0.5 0.6 0.6 0 0 0 0 -0.57 1.14 1.14 0 0 0 -0.75 -0.38Zm-2.65 2.67a2.51 2.51 0 0 0 -0.84 1.67c0.06 0.57 1.47 3.28 1.73 4.59a1.24 1.24 0 0 1 -0.31 -0.1c-0.93 -0.49 -2.33 -1.45 -3.46 -2.09a6.85 6.85 0 0 0 -1.2 -0.59 0.48 0.48 0 0 0 -0.3 0 3.72 3.72 0 0 0 -1 0.42 39.3 39.3 0 0 0 -3.55 2.24c0.28 -0.83 0.64 -1.94 0.9 -2.86a5.31 5.31 0 0 0 0.31 -1.8 5.09 5.09 0 0 0 -1.12 -1.5c-0.47 -0.48 -1 -1 -1.36 -1.32 0.58 -0.11 1.45 -0.2 2.18 -0.32a5.14 5.14 0 0 0 1.38 -0.38c0.54 -0.3 1.84 -2.53 2.54 -3.63 0.47 0.72 1.14 1.91 1.64 2.7a3.82 3.82 0 0 0 0.76 1 2.91 2.91 0 0 0 1.12 0.24c0.69 0.06 1.65 0.08 2.37 0.15a22 22 0 0 0 -1.79 1.58Z" fill="#020202" fill-rule="evenodd" stroke-width="1"></path>
    <path d="M14.31 4c0 0.46 -0.08 0.93 -0.11 1.42s0 1 0 1.42l0 3.33a0.36 0.36 0 0 0 0.33 0.35 0.35 0.35 0 0 0 0.36 -0.33c0.08 -0.89 0.25 -2.11 0.38 -3.38 0.07 -0.76 0.13 -1.53 0.16 -2.27a18.68 18.68 0 0 0 -0.14 -2.77c-0.07 -0.63 -0.59 -0.45 -0.69 0 -0.09 0.62 -0.16 1.1 -0.29 2.23Z" fill="#4C57E6" fill-rule="evenodd" stroke-width="1"></path>
    <path d="m8.28 3.86 0 1.41 0 1.41c0.08 1.32 0.17 2.45 0.2 3.32a0.35 0.35 0 0 0 0.34 0.35 0.34 0.34 0 0 0 0.34 -0.35c0.07 -0.83 0.17 -2 0.22 -3.3l0 -1.41 0 -1.4c-0.06 -1 -0.11 -1.24 -0.19 -1.95 0 -0.53 -0.61 -0.5 -0.71 0 -0.05 0.68 -0.16 0.93 -0.2 1.92Z" fill="#4C57E6" fill-rule="evenodd" stroke-width="1"></path>
    <path d="M20.9 0.91a0.8 0.8 0 0 0 -0.31 -0.58 4.25 4.25 0 0 0 -1.25 -0.17C17.58 0.08 13.78 0 10.37 0c-2.55 0 -4.89 0 -6 0.09a5.13 5.13 0 0 0 -0.65 0.05 0.55 0.55 0 0 0 -0.4 0.2 1.08 1.08 0 0 0 -0.18 0.45 13.35 13.35 0 0 0 -0.09 2.35 48.72 48.72 0 0 0 0.47 5.91A5.35 5.35 0 0 0 4 10c0.69 1.09 1.92 2.81 2 3.1a0.29 0.29 0 0 0 0.38 0.18 0.31 0.31 0 0 0 0.19 -0.38c-0.1 -0.3 -1.31 -2.12 -2 -3.28a5.33 5.33 0 0 1 -0.4 -0.76 37 37 0 0 1 -0.21 -4l0 -3.27a1.72 1.72 0 0 1 0.09 -0.36H5.4c2.88 0 8.89 0 11.92 0.05l2.53 0c0 0.14 0.07 0.32 0.08 0.5 0 1 -0.09 2.52 -0.22 3.93a21.19 21.19 0 0 1 -0.39 3.1c-0.24 0.35 -1.57 2.11 -2.35 3.18a9.51 9.51 0 0 0 -0.61 0.88 0.34 0.34 0 1 0 0.63 0.27l3 -3.87a36.25 36.25 0 0 0 0.88 -6A13.69 13.69 0 0 0 20.9 0.91Z" fill="#020202" fill-rule="evenodd" stroke-width="1"></path>
  </g>
</svg>