<svg xmlns="http://www.w3.org/2000/svg" viewBox="0 0 24 24" id="Award-Medal-Star-1--Streamline-Freehand">
  <desc>
    Award Medal Star 1 Streamline Icon: https://streamlinehq.com
  </desc>
  <g>
    <path d="M14.88 15.08a13.76 13.76 0 0 0 -1.5 -0.14h-0.26c-0.07 0 -0.11 -0.12 -0.16 -0.19 -0.3 -0.47 -0.74 -1.23 -1 -1.58a1 1 0 0 0 -0.48 -0.39 0.53 0.53 0 0 0 -0.54 0.13 1.66 1.66 0 0 0 -0.23 0.3c-0.19 0.32 -0.51 0.94 -0.79 1.39 -0.11 0.18 -0.16 0.32 -0.28 0.4a15 15 0 0 1 -1.75 0.39 0.68 0.68 0 0 0 -0.5 0.45 0.76 0.76 0 0 0 0.29 0.55 7.26 7.26 0 0 1 1.26 1.2c0 0.24 -0.09 0.54 -0.19 0.92 -0.15 0.59 -0.35 1.27 -0.45 1.6a0.3 0.3 0 0 0 0.55 0.23 0.34 0.34 0 0 0 0.29 -0.05 17.25 17.25 0 0 1 2 -1.18h0.06c0.63 0.29 1.8 1.21 2.37 1.49a0.79 0.79 0 0 0 0.79 0 0.74 0.74 0 0 0 0.24 -0.71 21.64 21.64 0 0 0 -0.81 -2.33 1.44 1.44 0 0 1 0.32 -0.38c0.34 -0.32 0.78 -0.65 1 -0.85a1 1 0 0 0 0.29 -0.34 0.58 0.58 0 0 0 0 -0.55 0.87 0.87 0 0 0 -0.52 -0.36ZM13 16.81a1.21 1.21 0 0 0 -0.27 0.79c0 0.23 0.52 1.19 0.79 1.91a20.83 20.83 0 0 0 -2.12 -1.19 1.28 1.28 0 0 0 -0.82 0.22c-0.42 0.23 -1 0.61 -1.44 0.9 0.15 -0.43 0.31 -0.92 0.41 -1.28a2 2 0 0 0 0.08 -0.75 4.77 4.77 0 0 0 -1 -1.25 6.77 6.77 0 0 0 1.5 -0.3 7.09 7.09 0 0 0 1.18 -1.57c0.22 0.35 0.46 0.78 0.65 1.08a2.35 2.35 0 0 0 0.45 0.55 2 2 0 0 0 0.66 0.16l0.6 0a4.79 4.79 0 0 0 -0.67 0.73Z" fill="#020202" fill-rule="evenodd" stroke-width="1"></path>
    <path d="M15.93 11.61a11.16 11.16 0 0 0 -1.75 -1 4.18 4.18 0 0 0 -0.86 -0.19 0.4 0.4 0 0 0 -0.43 0.12 0.34 0.34 0 0 0 -0.22 -0.23 6.21 6.21 0 0 0 -2 -0.3 5.19 5.19 0 0 0 -1.38 0.18 5 5 0 0 0 -2.66 1.4A5.32 5.32 0 0 0 4.77 14a7.07 7.07 0 0 0 -0.46 3.7 7.8 7.8 0 0 0 1.3 3.48 6.41 6.41 0 0 0 3.32 2.42 8.12 8.12 0 0 0 4.05 0.22A6.07 6.07 0 0 0 16 22.3a7.32 7.32 0 0 0 1.84 -2.89 9.49 9.49 0 0 0 0.47 -2.75 5.32 5.32 0 0 0 -0.46 -2.83 16.41 16.41 0 0 0 -1.92 -2.22Zm0.9 7.44a6.11 6.11 0 0 1 -1.5 2.51 5 5 0 0 1 -2.54 1.35 7.15 7.15 0 0 1 -3.57 -0.19 5.47 5.47 0 0 1 -2.8 -2.07 6.79 6.79 0 0 1 -1.11 -3 6.62 6.62 0 0 1 0.42 -3.21 5.24 5.24 0 0 1 1.54 -2 6.85 6.85 0 0 1 2.27 -1.27 7.53 7.53 0 0 1 1.76 -0.23 5.45 5.45 0 0 1 1.18 0 0.33 0.33 0 0 0 0.29 -0.05 0.44 0.44 0 0 0 0.3 0.37c0.18 0.08 0.33 0.21 0.52 0.32a11.5 11.5 0 0 1 2 1.29 4.86 4.86 0 0 1 1.22 1.47 5.64 5.64 0 0 1 0.36 2.31 8.92 8.92 0 0 1 -0.34 2.4Z" fill="#4C57E6" fill-rule="evenodd" stroke-width="1"></path>
    <path d="M21.87 3.91A5.27 5.27 0 0 0 18.5 1a19 19 0 0 0 -6.3 -1 21.89 21.89 0 0 0 -6.86 0.82c-1.76 0.62 -3.06 1.7 -3.28 3.47a9.12 9.12 0 0 0 0.79 3.88A18.61 18.61 0 0 0 5 12.3c0.18 0.26 0.78 0.06 0.63 -0.32A18.4 18.4 0 0 1 4 8.75a9.76 9.76 0 0 1 -1 -4.33C3.21 3 4.3 2.28 5.68 1.82a14.89 14.89 0 0 1 3.61 -0.61 6 6 0 0 0 -1.8 1.52 4.79 4.79 0 0 0 -0.84 1.62 5.37 5.37 0 0 0 -0.21 1.8A8.4 8.4 0 0 0 7 8.79a4.48 4.48 0 0 0 0.85 1.37c0.29 0.25 1 0 0.69 -0.39a3.44 3.44 0 0 1 -0.67 -1.3 7.58 7.58 0 0 1 -0.29 -2.36l0 -0.2a13.39 13.39 0 0 1 2 -0.71 9.3 9.3 0 0 1 2.26 -0.39 8.45 8.45 0 0 1 2.35 0.13 14.23 14.23 0 0 1 2.07 0.57 6.32 6.32 0 0 1 0.06 1 5.79 5.79 0 0 1 -0.54 2.38 8 8 0 0 1 -0.78 1.42c-0.24 0.28 0.43 0.67 0.79 0.22a6.19 6.19 0 0 0 1.13 -1.77 6.45 6.45 0 0 0 0.58 -2.25 7.34 7.34 0 0 0 -0.16 -1.69 8.74 8.74 0 0 0 -0.54 -1.59 7.87 7.87 0 0 0 -1.14 -1.79 13.51 13.51 0 0 1 2.45 0.6A4.34 4.34 0 0 1 21 4.23c0.28 0.75 -0.14 2.19 -0.74 3.7a22.71 22.71 0 0 1 -2.46 4.67c-0.3 0.4 0.16 0.71 0.45 0.44A23.13 23.13 0 0 0 21 8.24c0.74 -1.74 1.17 -3.44 0.87 -4.33ZM15.68 3a9 9 0 0 1 0.48 1.62 10.9 10.9 0 0 0 -2.22 -0.8 9 9 0 0 0 -2.14 -0.19 9.4 9.4 0 0 0 -2.49 0.64 11.09 11.09 0 0 0 -1.67 0.85 4.45 4.45 0 0 1 0.19 -0.78 4.28 4.28 0 0 1 0.48 -1.06 5.8 5.8 0 0 1 2.27 -2c0.06 0 0.09 -0.08 0.12 -0.13l1.49 0a21.86 21.86 0 0 1 2.43 0.15A5.46 5.46 0 0 1 15.68 3Z" fill="#020202" fill-rule="evenodd" stroke-width="1"></path>
  </g>
</svg>