<svg xmlns="http://www.w3.org/2000/svg" viewBox="0 0 24 24" id="Baby-Mother--Streamline-Freehand">
  <desc>
    Baby Mother Streamline Icon: https://streamlinehq.com
  </desc>
  <title>baby-mother</title>
  <g>
    <path d="M23.87 14.74a4.19 4.19 0 0 0 -1.5 -2.44 3.22 3.22 0 0 0 -1.7 -0.59h-0.11a5.59 5.59 0 0 0 -2.23 -0.5 3.77 3.77 0 0 0 -1.95 0.59 5 5 0 0 0 -0.64 0.47 5.58 5.58 0 0 0 -0.56 0.53l-0.15 0.13a3.44 3.44 0 0 0 -0.42 0 2.26 2.26 0 0 0 -1 0.12 2.11 2.11 0 0 0 -0.86 0.59 1.94 1.94 0 0 0 -0.44 1.14 2.16 2.16 0 0 0 0.22 1.13c0.06 0.13 0.51 0.43 0.34 0.52a10.49 10.49 0 0 0 -0.18 1.85 4.18 4.18 0 0 0 0.25 1.5 4.56 4.56 0 0 0 3.13 2.89 4.87 4.87 0 0 0 4.06 -0.83 0.27 0.27 0 0 0 0.18 0.13 1.94 1.94 0 0 0 1.81 -0.39 2.48 2.48 0 0 0 0.88 -1.67 2.33 2.33 0 0 0 0 -0.46c0 -0.19 -0.09 -0.36 -0.13 -0.54a1.32 1.32 0 0 0 0.21 -0.32l0.62 -1a4.35 4.35 0 0 0 0.17 -2.85Zm-1.17 2.38 -0.47 0.92a2.73 2.73 0 0 0 -0.3 0.4 0.57 0.57 0 0 0 -0.08 0.34l0.24 1.08A1.59 1.59 0 0 1 21.6 21a1.21 1.21 0 0 1 -1.12 0.31 0.31 0.31 0 0 0 -0.25 0 0.35 0.35 0 0 0 -0.48 -0.08 4.07 4.07 0 0 1 -3.43 0.55A3.63 3.63 0 0 1 14 19.39a3.22 3.22 0 0 1 -0.13 -1.12c0 -0.65 0.14 -1.33 0.18 -1.95a0.88 0.88 0 0 0 -0.1 -0.45c-0.09 -0.17 -0.28 -0.37 -0.34 -0.49a1 1 0 0 1 -0.1 -0.55 0.67 0.67 0 0 1 0.15 -0.46 0.88 0.88 0 0 1 0.38 -0.28 1.08 1.08 0 0 1 0.5 -0.09c0.14 0 0.34 0.08 0.51 0.09a1 1 0 0 0 0.3 0 0.62 0.62 0 0 0 0.3 -0.17c0.09 -0.1 0.25 -0.36 0.3 -0.42s0.3 -0.34 0.46 -0.49a3.21 3.21 0 0 1 0.49 -0.42 3 3 0 0 1 1.89 -0.59 2 2 0 0 1 0.34 0.06 1.8 1.8 0 0 0 -0.21 0.08 2.65 2.65 0 0 0 -1.12 1.49 1.89 1.89 0 0 0 0.41 1.86 1.59 1.59 0 0 0 1.22 0.53 1.64 1.64 0 0 0 1.16 -0.54 1.22 1.22 0 0 0 0.31 -1.15 1.28 1.28 0 0 0 -0.78 -0.86 0.32 0.32 0 0 0 -0.41 0.17 0.31 0.31 0 0 0 0.17 0.4 0.63 0.63 0 0 1 0.36 0.44 0.54 0.54 0 0 1 -0.18 0.49 0.85 0.85 0 0 1 -0.63 0.24 0.76 0.76 0 0 1 -0.55 -0.29 1 1 0 0 1 -0.13 -1 1.62 1.62 0 0 1 0.73 -0.84 2 2 0 0 1 1.12 -0.22 2.2 2.2 0 0 1 1.08 0.38A3.13 3.13 0 0 1 22.74 15a3.36 3.36 0 0 1 -0.04 2.12Z" fill="#020202" fill-rule="evenodd" stroke-width="1"></path>
    <path d="M17 16.76a4 4 0 0 1 -1.08 -1.15 0.31 0.31 0 0 0 -0.3 -0.32 0.31 0.31 0 0 0 -0.31 0.31 1.56 1.56 0 0 0 0 1 1.1 1.1 0 0 0 0.26 0.41 1.34 1.34 0 0 0 0.38 0.28 1.9 1.9 0 0 0 1 0.14 0.34 0.34 0 0 0 0.39 -0.3 0.34 0.34 0 0 0 -0.34 -0.37Z" fill="#020202" fill-rule="evenodd" stroke-width="1"></path>
    <path d="M20 19.34A3.77 3.77 0 0 1 18.55 18a0.31 0.31 0 0 0 -0.29 -0.33 0.32 0.32 0 0 0 -0.33 0.3 1.71 1.71 0 0 0 0.1 1.22 1.37 1.37 0 0 0 0.34 0.42 1.33 1.33 0 0 0 0.43 0.28A2.12 2.12 0 0 0 20 20a0.35 0.35 0 0 0 0.37 -0.33 0.35 0.35 0 0 0 -0.37 -0.33Z" fill="#020202" fill-rule="evenodd" stroke-width="1"></path>
    <path d="M6.66 9.35a8 8 0 0 0 2 -1.27 4.57 4.57 0 0 0 0.44 -0.44A6 6 0 0 0 9.55 7l0 0.07c0.23 0.3 0.46 0.6 0.72 0.88a4.94 4.94 0 0 0 0.57 0.55 6.58 6.58 0 0 0 1.72 1 12.29 12.29 0 0 0 2.79 0.77 0.35 0.35 0 0 0 0.42 -0.27 0.36 0.36 0 0 0 -0.27 -0.42 14 14 0 0 1 -2.15 -0.73 6.27 6.27 0 0 1 -1.78 -1.2l-1.02 -1.26c-0.11 -0.15 -0.22 -0.37 -0.35 -0.54a1.6 1.6 0 0 0 -0.3 -0.33 0.56 0.56 0 0 0 -0.49 -0.12c-0.48 0.09 -0.47 0.41 -0.77 0.88l-0.76 1a6.67 6.67 0 0 1 -1.6 1.29 3.6 3.6 0 0 1 -1.47 0.55c-0.35 0.15 -0.3 0.53 0.09 0.65a6 6 0 0 0 1.76 -0.42Z" fill="#4C57E6" fill-rule="evenodd" stroke-width="1"></path>
    <path d="M18 6.56a7.68 7.68 0 0 0 -1.25 -2.46 7.62 7.62 0 0 0 -4.55 -2.71 9.19 9.19 0 0 0 -5.3 0.51 9 9 0 0 0 -2.42 1.59 9.33 9.33 0 0 0 -1.8 2.23 7.56 7.56 0 0 0 -0.91 2.71c-0.2 1.32 -0.15 2.66 -0.31 4A5.39 5.39 0 0 1 1 14.35a2 2 0 0 1 -0.66 0.77 0.27 0.27 0 0 0 -0.24 0.09c-0.41 0.46 1.14 1.4 1.64 1.57a3.06 3.06 0 0 0 0.85 0.17 4 4 0 0 0 0.85 -0.05 5.23 5.23 0 0 0 1.73 -0.67 5.14 5.14 0 0 0 0.59 0.72 5.84 5.84 0 0 0 1.49 1 5.56 5.56 0 0 0 4.38 0.28 0.36 0.36 0 0 0 0.23 -0.44 0.35 0.35 0 0 0 -0.44 -0.23A4.77 4.77 0 0 1 7.73 17a5.77 5.77 0 0 1 -1.18 -0.92 5 5 0 0 1 -1.2 -1.84 7 7 0 0 1 -0.43 -1.7c-0.17 -1.22 -0.15 -3 -0.56 -3s-0.5 0.46 -0.36 3.61a6.2 6.2 0 0 0 0.26 1.49 6.52 6.52 0 0 0 0.46 1 5.79 5.79 0 0 1 -1.43 0.19l-0.66 0c-0.22 0 -0.44 0 -0.65 -0.07a4.56 4.56 0 0 1 -1 -0.29 3 3 0 0 0 0.6 -0.73 6.53 6.53 0 0 0 0.66 -2.09c0.22 -1.35 0.24 -2.69 0.5 -4a6.51 6.51 0 0 1 0.89 -2.31 8.58 8.58 0 0 1 1.64 -1.98A8.34 8.34 0 0 1 7.37 3 8.12 8.12 0 0 1 12 2.46a6.65 6.65 0 0 1 4.05 2.21 6.65 6.65 0 0 1 1.17 2.14 10.46 10.46 0 0 1 0.5 2.45 0.35 0.35 0 0 0 0.37 0.33 0.35 0.35 0 0 0 0.33 -0.37A11.12 11.12 0 0 0 18 6.56Z" fill="#020202" fill-rule="evenodd" stroke-width="1"></path>
  </g>
</svg>