<svg xmlns="http://www.w3.org/2000/svg" viewBox="0 0 24 24" id="Bag-Backpack--Streamline-Freehand">
  <desc>
    Bag Backpack Streamline Icon: https://streamlinehq.com
  </desc>
  <g>
    <path d="M23.94 8.51c0 -0.57 -0.05 -1.17 -0.13 -1.75a7.88 7.88 0 0 0 -0.26 -1.19 4.54 4.54 0 0 0 -1.68 -2.28 1.65 1.65 0 0 0 -2 -0.06 0.31 0.31 0 0 0 -0.07 0.42 0.31 0.31 0 0 0 0.42 0.08 1 1 0 0 1 1.24 0.15 3.64 3.64 0 0 1 1.2 1.94 5.92 5.92 0 0 1 0.14 1l0 1.67v2.34l0 1.15a5.52 5.52 0 0 1 -0.05 0.71l-0.19 1.58a7 7 0 0 1 -1.22 3.34 2 2 0 0 1 -1.17 0.94c-0.47 0.09 -0.75 0.88 -0.23 0.9A3.07 3.07 0 0 0 22 18.18a8.07 8.07 0 0 0 1.63 -3.73l0.26 -1.56a7.93 7.93 0 0 0 0.07 -0.84l0 -1.19Z" fill="#4C57E6" fill-rule="evenodd" stroke-width="1"></path>
    <path d="M19.76 18.46A15.17 15.17 0 0 0 20 15c0 -1.84 -0.06 -3.93 -0.17 -5.06a3.2 3.2 0 0 0 -0.33 -1A20.06 20.06 0 0 0 18.33 7a0.32 0.32 0 0 0 -0.19 -0.15 11 11 0 0 0 0.25 -1.32 4.61 4.61 0 0 0 -0.06 -1.44 2.69 2.69 0 0 0 -1.64 -1.91 10.19 10.19 0 0 0 -3.42 -0.63l-2.67 -0.12a6.69 6.69 0 0 0 -1.28 0.07c-0.6 0.08 -1.18 0.22 -1.82 0.37a4.52 4.52 0 0 0 -1 0.24 1.27 1.27 0 0 0 -0.5 0.34 5.26 5.26 0 0 0 -0.83 1.65 6 6 0 0 0 -0.34 1.83l0 1a0.3 0.3 0 0 0 -0.32 0.07 15 15 0 0 0 -1.13 2.91A16.46 16.46 0 0 0 2.81 13a17.64 17.64 0 0 0 0 4.7 6.46 6.46 0 0 0 1.34 3 4.09 4.09 0 0 0 2 1.43 10 10 0 0 0 3.5 0.48c0.76 0 1.52 0 2.28 -0.06a21.94 21.94 0 0 0 2.29 -0.24 13.75 13.75 0 0 0 2.27 -0.5A4.63 4.63 0 0 0 18 21a5.77 5.77 0 0 0 1.76 -2.54ZM6 4.38A4.32 4.32 0 0 1 6.7 3a0.59 0.59 0 0 1 0.3 -0.17 7.22 7.22 0 0 1 0.74 -0.18c0.6 -0.16 1.16 -0.33 1.74 -0.43a6.91 6.91 0 0 1 1.14 -0.1l2.64 0.07a9.66 9.66 0 0 1 3.14 0.66 1.92 1.92 0 0 1 1.15 1.37 3.76 3.76 0 0 1 0 1.16 11.25 11.25 0 0 1 -0.45 1.84 14.79 14.79 0 0 1 -0.77 2 7.55 7.55 0 0 1 -1.13 1.76 5.65 5.65 0 0 1 -2.73 1.75 5.1 5.1 0 0 1 -1.23 0.2v-0.17c0 -0.45 -0.1 -0.88 -0.09 -1.32a0.3 0.3 0 0 0 -0.24 -0.35 0.3 0.3 0 0 0 -0.36 0.23 7 7 0 0 0 -0.48 1.68 5.6 5.6 0 0 1 -0.86 -0.2 4 4 0 0 1 -2.22 -2 11.29 11.29 0 0 1 -1.18 -4.89A5.26 5.26 0 0 1 6 4.38Zm13.1 10.55a13.56 13.56 0 0 1 -0.31 3.13 6.55 6.55 0 0 1 -0.63 1.17 4.13 4.13 0 0 1 -0.86 0.92 3.7 3.7 0 0 1 -1.14 0.57 12.72 12.72 0 0 1 -2.09 0.43c-0.72 0.11 -1.45 0.18 -2.18 0.22s-1.47 0.06 -2.21 0.05a9.36 9.36 0 0 1 -3.11 -0.37A3.86 3.86 0 0 1 5 20a5.55 5.55 0 0 1 -1.2 -2.5 17.13 17.13 0 0 1 -0.19 -4.5 15.51 15.51 0 0 1 0.44 -2.92 14.9 14.9 0 0 1 0.88 -2.51A10.74 10.74 0 0 0 6 11.27a5.1 5.1 0 0 0 2.86 2.58 7.18 7.18 0 0 0 1.25 0.27c0.05 0.4 0.13 0.79 0.18 1.19a0.35 0.35 0 0 0 0.69 0c0.06 -0.39 0.12 -0.77 0.17 -1.15A6.59 6.59 0 0 0 16 11.74a8.34 8.34 0 0 0 1 -1.61 14.36 14.36 0 0 0 0.92 -2.49c0.26 0.41 0.57 0.85 0.81 1.29a2.6 2.6 0 0 1 0.36 1c0.09 1.14 0.11 3.2 0.05 5Z" fill="#020202" fill-rule="evenodd" stroke-width="1"></path>
    <path d="M2 17.15a4.66 4.66 0 0 1 -0.63 -1.88c-0.07 -1 -0.1 -2 -0.12 -3s-0.06 -2 -0.05 -3c0 -0.74 -0.06 -1.5 0 -2.25a6.52 6.52 0 0 1 0.18 -1.32A3.85 3.85 0 0 1 2.27 4a0.87 0.87 0 0 1 1 -0.23 0.3 0.3 0 0 0 0.39 -0.17 0.29 0.29 0 0 0 -0.16 -0.39 1.48 1.48 0 0 0 -1.65 0.25A4.94 4.94 0 0 0 0.54 5.4 6.62 6.62 0 0 0 0.14 7 23.12 23.12 0 0 0 0 9.33c0 1 0 2 0.06 3s0.17 2 0.29 3a5.72 5.72 0 0 0 0.9 2.23 2.53 2.53 0 0 0 1.26 1.2c0.45 0.18 0.65 -0.43 0.13 -0.79a2.47 2.47 0 0 1 -0.64 -0.82Z" fill="#4C57E6" fill-rule="evenodd" stroke-width="1"></path>
  </g>
</svg>