<svg xmlns="http://www.w3.org/2000/svg" viewBox="0 0 24 24" id="Baggage-Check--Streamline-Freehand">
  <desc>
    Baggage Check Streamline Icon: https://streamlinehq.com
  </desc>
  <g>
    <path d="M16.26 19.69Z" fill="#020202" fill-rule="evenodd" stroke-width="1"></path>
    <path d="M20 15.88a10.19 10.19 0 0 0 -1.66 1.39c-0.49 0.5 -0.93 1.05 -1.4 1.58 -0.1 0.13 -0.29 0.4 -0.5 0.63 -0.05 0.06 -0.12 0.17 -0.16 0.21a1.21 1.21 0 0 1 -0.46 -0.3 11.48 11.48 0 0 1 -0.88 -1 0.3 0.3 0 1 0 -0.48 0.36 9.47 9.47 0 0 0 0.9 1.39 1.85 1.85 0 0 0 0.74 0.54 1.07 1.07 0 0 0 0.9 -0.19 5.44 5.44 0 0 0 0.87 -0.91l0.62 -0.79c0.29 -0.4 0.57 -0.81 0.87 -1.19a9.35 9.35 0 0 1 1.1 -1.17 0.34 0.34 0 0 0 0.06 -0.48 0.35 0.35 0 0 0 -0.52 -0.07Z" fill="#020202" fill-rule="evenodd" stroke-width="1"></path>
    <path d="M22.14 14.22a5.09 5.09 0 0 0 -1.42 -1.05 5.65 5.65 0 0 0 -0.67 -0.29 0.3 0.3 0 0 0 -0.17 -0.16 5.32 5.32 0 0 0 -4.81 0.49 6.78 6.78 0 0 0 -3 3.91 6.36 6.36 0 0 0 -0.13 3 4.49 4.49 0 0 0 1.65 2.64 5 5 0 0 0 0.73 0.47 6 6 0 0 0 0.77 0.36 6.57 6.57 0 0 0 1.58 0.35 7 7 0 0 0 1.59 -0.06 8.36 8.36 0 0 0 1.94 -0.54 5.48 5.48 0 0 0 3.4 -5.13 5.81 5.81 0 0 0 -1.46 -3.99Zm-0.92 7.25a4.83 4.83 0 0 1 -1.43 0.86 7.21 7.21 0 0 1 -1.68 0.45 5.82 5.82 0 0 1 -1.32 0 4.68 4.68 0 0 1 -1.27 -0.29 4.46 4.46 0 0 1 -0.63 -0.28 4.38 4.38 0 0 1 -0.58 -0.37 3.46 3.46 0 0 1 -1.28 -2 5.37 5.37 0 0 1 0 -2.52 5.91 5.91 0 0 1 2.43 -3.5 4.8 4.8 0 0 1 3.22 -0.81 0.37 0.37 0 0 0 0.21 0.18 7.2 7.2 0 0 1 1.45 0.58 4 4 0 0 1 1.18 0.93 4.87 4.87 0 0 1 1.14 3.46 4.73 4.73 0 0 1 -1.44 3.31Z" fill="#020202" fill-rule="evenodd" stroke-width="1"></path>
    <path d="M14.14 6.13c0 0.49 0 1 -0.08 1.47l0 0.92c0 0.83 0.12 2.53 0.16 3.16a0.34 0.34 0 1 0 0.68 0l0.3 -4 0 -0.94c0 -0.31 -0.11 -0.86 -0.17 -1.28s-0.69 -0.39 -0.82 0.12c-0.04 0.2 -0.05 0.32 -0.07 0.55Z" fill="#4C57E6" fill-rule="evenodd" stroke-width="1"></path>
    <path d="M19.85 6.81a3.27 3.27 0 0 0 -0.42 -1.65 2.6 2.6 0 0 0 -1.38 -0.73 14.49 14.49 0 0 0 -3 -0.34l-1.39 0 0.07 -2.18A4 4 0 0 0 13.6 0.87a1.28 1.28 0 0 0 -0.34 -0.56 0.94 0.94 0 0 0 -0.49 -0.23 5.24 5.24 0 0 0 -0.66 0l-1.37 0 -1 0L8.55 0.2l-1 0.13a3.91 3.91 0 0 0 -0.85 0.21 1.53 1.53 0 0 0 -0.4 0.29 0.72 0.72 0 0 0 -0.2 0.44 2.6 2.6 0 0 0 0 0.5l0.11 1.71c0 0.3 0.06 0.62 0.11 0.93 0 0.11 0 0.23 0.08 0.34h-0.26a0.43 0.43 0 0 0 -0.14 0.07 0.29 0.29 0 0 0 -0.24 -0.13 0.3 0.3 0 0 0 -0.3 0.29 0.32 0.32 0 0 0 -0.28 -0.17L2.81 5a5.73 5.73 0 0 0 -1 0 1.18 1.18 0 0 0 -0.53 0.25 1.81 1.81 0 0 0 -0.58 0.93 6.34 6.34 0 0 0 -0.18 1.41c-0.05 0.9 -0.11 1.8 -0.13 2.71s0 1.82 0 2.72v3.07a4.22 4.22 0 0 0 0.06 1.22A1.42 1.42 0 0 0 0.8 18a1.78 1.78 0 0 0 0.75 0.46 4.5 4.5 0 0 0 1.07 0.17l2.12 0c1.83 0 4.2 -0.1 4.87 -0.12a0.34 0.34 0 0 0 0 -0.68c-2.88 -0.07 0 0 -4.87 -0.11 -0.93 0 -1.71 -0.06 -2.05 -0.09a3.48 3.48 0 0 1 -0.69 -0.18 0.76 0.76 0 0 1 -0.41 -0.23 0.6 0.6 0 0 1 -0.1 -0.38l0 -0.7c0 -0.53 0.05 -1.05 0.05 -1.58l0 -1.58 -0.1 -5.36a5.46 5.46 0 0 1 0.07 -1.19 1 1 0 0 1 0.26 -0.53 0.58 0.58 0 0 1 0.29 -0.13 6.93 6.93 0 0 1 0.77 0l2.32 -0.31a0.29 0.29 0 0 0 0.25 -0.16 0.59 0.59 0 0 0 0.34 0.17C6.87 5.68 14 4.59 16.39 5a7 7 0 0 1 2.15 0.59A4.18 4.18 0 0 1 19 7.34c0.1 1.11 0 3.45 0.06 3.92a0.31 0.31 0 0 0 0.31 0.3 0.29 0.29 0 0 0 0.29 -0.31c0.05 -0.55 0.25 -3.25 0.19 -4.44ZM8.55 4.62l-1.49 0.09A2.66 2.66 0 0 1 7 4.32l0 -0.87 0 -1.67c0 -0.07 0.08 -0.21 0.06 -0.3l0.16 0a4.7 4.7 0 0 1 0.5 -0.05l0.9 -0.07 1.27 -0.12 2.18 -0.07c0.13 0 0.46 0.13 0.52 0a0.92 0.92 0 0 1 0.08 0.25c0 0.21 0.05 0.44 0.07 0.61l0.1 2.19c-1.41 0.07 -2.84 0.28 -4.29 0.4Z" fill="#020202" fill-rule="evenodd" stroke-width="1"></path>
    <path d="m5.39 8.68 0 3.12c0 0.71 0 1.41 0.08 2.11 0.07 0.92 0 1.13 0 2.05l0 1.14c0.06 0.59 0.68 0.6 0.76 0 0 -0.29 0.09 -1.2 0.11 -1.49 0.07 -0.94 0.11 -1.41 0.13 -2.35s0 -1.52 0 -2.57c0 -0.7 -0.07 -1.41 -0.12 -2.11 -0.09 -0.85 -0.24 -2.34 -0.25 -2.51 -0.09 -0.66 -0.74 -0.54 -0.77 -0.07Z" fill="#4C57E6" fill-rule="evenodd" stroke-width="1"></path>
  </g>
</svg>