<svg xmlns="http://www.w3.org/2000/svg" viewBox="0 0 24 24" id="Bathroom-Soap--Streamline-Freehand">
  <desc>
    Bathroom Soap Streamline Icon: https://streamlinehq.com
  </desc>
  <g>
    <path d="M16.91 7.57a6.59 6.59 0 0 0 -2 -1.27 1.41 1.41 0 0 0 -0.91 -0.06 9.33 9.33 0 0 0 -1.7 0.93C11.16 8 9.84 9 8.91 9.74a0.31 0.31 0 0 0 -0.07 0.43 0.31 0.31 0 0 0 0.42 0.07c0.83 -0.55 2 -1.33 3.05 -2a9.47 9.47 0 0 1 2 -1c0 -0.1 0.23 0.07 0.39 0.15a7 7 0 0 1 1.41 1 6.43 6.43 0 0 1 1 1.08c0.16 0.23 0.29 0.42 0.27 0.59 -0.07 0.46 -0.68 1 -1.39 1.66 -1 0.87 -2.27 1.76 -3 2.35a0.35 0.35 0 0 0 -0.07 0.48 0.34 0.34 0 0 0 0.48 0.07c0.92 -0.62 2.6 -1.62 3.7 -2.55a3.89 3.89 0 0 0 1.37 -1.77 1.87 1.87 0 0 0 -0.23 -1.14 6.11 6.11 0 0 0 -1.33 -1.59Z" fill="#020202" fill-rule="evenodd" stroke-width="1"></path>
    <path d="M14.37 7.28Z" fill="#020202" fill-rule="evenodd" stroke-width="1"></path>
    <path d="M2.68 8.44A1.68 1.68 0 0 0 3.6 6.3a1.46 1.46 0 0 0 -1.82 -0.93 0.39 0.39 0 0 0 -0.21 0 2.85 2.85 0 0 0 -0.75 0.51 1.42 1.42 0 0 0 -0.36 0.63 1.63 1.63 0 0 0 2.22 1.9ZM1.45 6.31a1.52 1.52 0 0 1 0.22 -0.22 0.38 0.38 0 0 0 0.15 0 0.68 0.68 0 0 1 0.86 0.52 0.66 0.66 0 0 1 -0.46 0.78 0.58 0.58 0 0 1 -0.68 -0.16 0.75 0.75 0 0 1 -0.24 -0.53 0.67 0.67 0 0 1 0.15 -0.39Z" fill="#4C57E6" fill-rule="evenodd" stroke-width="1"></path>
    <path d="M4.42 4.26A2.67 2.67 0 0 0 7.2 3.14 1.72 1.72 0 0 0 6.45 0.43 0.33 0.33 0 0 0 6 0.57 0.22 0.22 0 0 0 6 0.7a0.3 0.3 0 0 0 -0.33 -0.32A2.55 2.55 0 0 0 3 2.23c-0.21 0.77 0.16 1.65 1.42 2.03Zm-0.35 -2.19A1.78 1.78 0 0 1 5.62 1 0.3 0.3 0 0 0 6 0.71a0.32 0.32 0 0 0 0.13 0.29 1 1 0 0 1 0.28 1.54 1.62 1.62 0 0 1 -1.69 0.57C4 3 3.87 2.51 4.07 2.07Z" fill="#4C57E6" fill-rule="evenodd" stroke-width="1"></path>
    <g>
      <path d="M23.91 12.31a5.48 5.48 0 0 0 -0.67 -2.3A13.82 13.82 0 0 0 22 8.49c-0.44 -0.49 -0.91 -0.94 -1.37 -1.37a14.77 14.77 0 0 0 -4 -2.85 4.91 4.91 0 0 0 -4.39 0.1 10.43 10.43 0 0 0 -1.27 0.8C9.91 6 8.86 6.76 7.83 7.59c-0.57 0.46 -1.12 0.93 -1.68 1.4 -1.11 0.89 -0.41 1.17 0.56 0.39 0.52 -0.41 1 -0.83 1.56 -1.23 1.05 -0.79 2.11 -1.55 3.19 -2.29a8.78 8.78 0 0 1 1 -0.59 4 4 0 0 1 3.78 -0.06A13.93 13.93 0 0 1 19.84 8c0.44 0.41 0.88 0.85 1.31 1.32a13.79 13.79 0 0 1 1.14 1.41 5.19 5.19 0 0 1 0.52 2.27 9.52 9.52 0 0 1 -0.07 2.5 2.86 2.86 0 0 1 -0.84 1.15 20.26 20.26 0 0 1 -1.9 1.63c-0.61 0.47 -1.24 0.92 -1.88 1.36s-1.3 0.86 -1.95 1.28a20.26 20.26 0 0 1 -2.63 1.54 3.72 3.72 0 0 1 -1.82 0.37 3 3 0 0 1 -0.84 -0.21 9.2 9.2 0 0 1 -1.56 -0.84c-0.83 -0.47 -1.13 -0.11 -0.55 0.5a10 10 0 0 0 1.82 1 4.23 4.23 0 0 0 1.05 0.29 4.51 4.51 0 0 0 2.22 -0.38 20.19 20.19 0 0 0 2.79 -1.53c0.81 -0.49 1.62 -1 2.41 -1.51 0.53 -0.35 1.06 -0.71 1.57 -1.09A17.82 17.82 0 0 0 23 17.05a3.21 3.21 0 0 0 0.84 -1.37 11.93 11.93 0 0 0 0.07 -3.37Z" fill="#020202" fill-rule="evenodd" stroke-width="1"></path>
      <path d="M7.33 21.66a7.28 7.28 0 0 0 1.56 -0.81 1.87 1.87 0 0 0 0.33 -0.45 1.42 1.42 0 0 0 0.16 -0.61 2.67 2.67 0 0 0 -0.13 -0.79c0 -0.12 -0.14 -0.24 0 -0.35l0.39 -0.39 0.05 -0.05 1.2 -1.21a5.76 5.76 0 0 0 1.21 -1.91 3.48 3.48 0 0 0 -0.25 -2.91 2.74 2.74 0 0 0 -1.75 -1.38 2.8 2.8 0 0 0 -2.17 0.3 2.59 2.59 0 0 0 -0.63 0.54 3.71 3.71 0 0 0 -0.23 0.32 7 7 0 0 0 -1.13 -1.31A3.1 3.1 0 0 0 4.31 10a1.87 1.87 0 0 0 -0.67 0.16 1.72 1.72 0 0 0 -0.73 0.63A2.66 2.66 0 0 0 2.52 12c0 0.12 -0.12 0.5 0 0.52 -0.18 0.24 -0.57 0.32 -0.86 0.49a2.1 2.1 0 0 0 -0.33 0.26 2 2 0 0 0 -0.53 1.65 3.09 3.09 0 0 0 1.1 1.85 2.61 2.61 0 0 0 -1.29 0.9A2.41 2.41 0 0 0 0.14 20a1.82 1.82 0 0 0 0.66 0.81 3.13 3.13 0 0 0 1.37 0.51c0.05 0 0.27 -0.06 0.45 -0.08 -0.07 0.15 0.11 0.48 0.15 0.61a2.18 2.18 0 0 0 0.57 1 2 2 0 0 0 1.07 0.52 1.84 1.84 0 0 0 0.33 0 2.38 2.38 0 0 0 0.46 0 3 3 0 0 0 0.9 -0.25 1.38 1.38 0 0 0 0.59 -0.58l0.21 -0.71c0.09 -0.05 0.19 -0.08 0.28 -0.12a0.42 0.42 0 0 1 0.15 -0.05Zm-1 -0.68a1 1 0 0 0 -0.39 0.47 5.33 5.33 0 0 1 -0.17 0.66 0.38 0.38 0 0 1 -0.22 0.19 2.63 2.63 0 0 1 -0.53 0.15l-0.47 0a1.11 1.11 0 0 1 -0.55 -0.23 1.22 1.22 0 0 1 -0.36 -0.58 5.68 5.68 0 0 0 -0.15 -0.71 0.69 0.69 0 0 0 -0.21 -0.32 0.53 0.53 0 0 0 -0.31 -0.12c-0.18 0 -0.58 0.05 -0.68 0a2.46 2.46 0 0 1 -0.87 -0.24 1.22 1.22 0 0 1 -0.57 -0.55 1.71 1.71 0 0 1 0.32 -1.66 1.59 1.59 0 0 1 1.52 -0.74 0.3 0.3 0 0 0 0.31 -0.19 0.29 0.29 0 0 0 -0.23 -0.36l-0.1 0a0.33 0.33 0 0 0 -0.13 -0.32 2.66 2.66 0 0 1 -1 -1.28 1.28 1.28 0 0 1 0.34 -1.32c0.26 -0.26 0.73 -0.35 1 -0.57a1.07 1.07 0 0 0 0.33 -0.34c0.26 -0.42 -0.13 -0.81 0.27 -1.55a0.94 0.94 0 0 1 0.52 -0.44 1 1 0 0 1 1 0.15c0.86 0.55 1.28 1.72 1.89 2.14a0.53 0.53 0 0 0 0.76 -0.17 4.81 4.81 0 0 1 0.35 -0.63 1.46 1.46 0 0 1 0.45 -0.4 1.75 1.75 0 0 1 1.34 -0.15 1.62 1.62 0 0 1 1 0.82 2.39 2.39 0 0 1 0.17 2 7.22 7.22 0 0 1 -2.13 2.71l-0.51 0.52a1.24 1.24 0 0 0 -0.27 0.66 2.38 2.38 0 0 0 0.13 0.82 0.64 0.64 0 0 1 0.05 0.49 1.13 1.13 0 0 1 -0.48 0.44c-0.46 0.24 -1 0.38 -1.41 0.67Z" fill="#4C57E6" fill-rule="evenodd" stroke-width="1"></path>
      <path d="M13.16 18.61a11 11 0 0 0 2.29 -1.52L19.21 14c0.44 -0.37 0.86 -0.77 1.31 -1.14a7.19 7.19 0 0 1 0.89 -0.64 0.34 0.34 0 0 0 -0.33 -0.6 8.27 8.27 0 0 0 -1 0.62c-0.48 0.34 -0.94 0.7 -1.4 1 -0.67 0.47 -1.34 0.93 -2 1.42s-1.3 1 -1.94 1.54a10.54 10.54 0 0 1 -2 1.52 2.38 2.38 0 0 1 -1.59 0.36c-0.9 -0.32 -1.19 0.28 -0.41 0.65a3 3 0 0 0 2.42 -0.12Z" fill="#020202" fill-rule="evenodd" stroke-width="1"></path>
    </g>
  </g>
</svg>