<svg xmlns="http://www.w3.org/2000/svg" viewBox="0 0 24 24" id="Beach-Swim--Streamline-Freehand">
  <desc>
    Beach Swim Streamline Icon: https://streamlinehq.com
  </desc>
  <title>beach-swim</title>
  <g>
    <path d="M0.72 20.19a0.3 0.3 0 0 0 0.3 -0.31c0 -0.7 0 -1.4 0.05 -2.1 0 -0.33 0 -0.66 0.08 -1l1.09 0V17a0.53 0.53 0 0 0 0.52 0.5c1 0 2.09 0.09 3.13 0.1S8 17.58 9 17.52a0.51 0.51 0 0 0 0.4 -0.19 0.56 0.56 0 0 0 0.14 -0.41l0 -0.27 0.16 0c0.5 0 1 0 1.52 0.09l0 1.08 0 2.25a0.35 0.35 0 0 0 0.35 0.35 0.35 0.35 0 0 0 0.43 -0.32c0 -0.88 0.11 -1.75 0.12 -2.63l0 -1.16a0.44 0.44 0 0 0 -0.38 -0.41l-2.64 -0.4a0.55 0.55 0 0 0 -0.45 0.11 0.53 0.53 0 0 0 -0.2 0.42v0.38H8l0.1 -2.53c0 -0.16 0.1 -0.62 0 -0.73a0.56 0.56 0 0 0 -0.45 -0.15l-1.69 0v-0.94l2.27 -0.86 2.18 -0.86a0.53 0.53 0 0 0 0.36 -0.47 0.52 0.52 0 0 0 -0.3 -0.51c-0.33 -0.18 -0.67 -0.36 -1 -0.52 -0.5 -0.23 -1 -0.45 -1.53 -0.67s-0.88 -0.39 -1.33 -0.56 -0.64 -0.22 -1 -0.31a0.55 0.55 0 0 0 -0.48 0.1 0.57 0.57 0 0 0 -0.23 0.44l0.24 3.3 0.05 0.63a0.35 0.35 0 0 0 0 0.2l0.09 1h-0.02c-0.29 0 -1 0 -1.26 0.07a0.56 0.56 0 0 0 -0.5 0.55l0.26 2.82h-0.48l0 -0.26a0.51 0.51 0 0 0 -0.17 -0.35 0.53 0.53 0 0 0 -0.38 -0.13l-2 0.22a0.44 0.44 0 0 0 -0.39 0.39 13.84 13.84 0 0 0 0 1.44c0 0.71 0 1.42 0.09 2.12a0.3 0.3 0 0 0 0.29 0.35ZM6 11.12l0 -2.45 1.44 0.58 1.44 0.61 -1 0.54 -1.88 0.88Zm-1.41 3 1.77 0h0.81l0.07 2.26h-2.8Z" fill="#020202" fill-rule="evenodd" stroke-width="1"></path>
    <path d="M16.42 5.33a2.26 2.26 0 0 0 1.92 0.21 2.41 2.41 0 0 0 1.21 -1.19 2.8 2.8 0 0 0 0.28 -1.58 0.29 0.29 0 0 0 0 -0.09 0.35 0.35 0 0 0 0 -0.14 4.17 4.17 0 0 0 -0.61 -1.06 2 2 0 0 0 -0.75 -0.55 2.71 2.71 0 0 0 -1 -0.2 2.22 2.22 0 0 0 -1.13 0.27 2.33 2.33 0 0 0 -1.07 1.24 2.57 2.57 0 0 0 -0.07 1.64 2.68 2.68 0 0 0 1.22 1.45Zm-0.06 -2.71a1.33 1.33 0 0 1 0.5 -0.74 1.4 1.4 0 0 1 0.59 -0.21 1.85 1.85 0 0 1 0.7 0.05 1.37 1.37 0 0 1 0.6 0.38 3 3 0 0 1 0.41 0.59 0.39 0.39 0 0 0 0 0.15A2 2 0 0 1 18.82 4a1.47 1.47 0 0 1 -0.8 0.68 1.25 1.25 0 0 1 -1 -0.25 1.58 1.58 0 0 1 -0.68 -0.86 1.46 1.46 0 0 1 0.02 -0.95Z" fill="#020202" fill-rule="evenodd" stroke-width="1"></path>
    <path d="M23.13 9.8a4 4 0 0 0 -0.23 -0.51 3.46 3.46 0 0 0 -0.32 -0.46 4.22 4.22 0 0 0 -0.58 -0.57 8.08 8.08 0 0 0 -0.92 -0.65A5.35 5.35 0 0 0 19.3 7a9.46 9.46 0 0 0 -2.76 0 8.89 8.89 0 0 0 -1.85 0.43 4.54 4.54 0 0 0 -1.17 0.57 4.83 4.83 0 0 0 -1.11 1.1 4.11 4.11 0 0 0 -0.68 1.43A3.44 3.44 0 0 0 12 13a3.58 3.58 0 0 0 1.58 1.5c0 0.2 0 0.4 -0.07 0.61l0 1.44a25.14 25.14 0 0 0 0.33 3.37 0.35 0.35 0 0 0 0.38 0.31 0.35 0.35 0 0 0 0.31 -0.39c0 -0.93 0 -1.86 0.05 -2.8 0 -0.64 0.49 -6.46 0.5 -6.52a0.31 0.31 0 1 0 -0.6 -0.13 27.94 27.94 0 0 0 -0.78 3.28l0 0.15a2.79 2.79 0 0 1 -1 -1.15 2.59 2.59 0 0 1 -0.12 -1.88 3.27 3.27 0 0 1 0.6 -1.06 4.33 4.33 0 0 1 0.94 -0.82 4.12 4.12 0 0 1 1.2 -0.52 8.83 8.83 0 0 1 1.36 -0.26 9.2 9.2 0 0 1 2 -0.07 4.36 4.36 0 0 1 1.84 0.52 5.43 5.43 0 0 1 0.68 0.42 3.28 3.28 0 0 1 0.56 0.49 2.43 2.43 0 0 1 0.24 0.31 2.37 2.37 0 0 1 0.19 0.35 2.23 2.23 0 0 1 -0.11 2.11 4.38 4.38 0 0 1 -1.25 1.25 1.49 1.49 0 0 1 0 -0.21c-0.06 -0.3 -0.13 -0.6 -0.2 -0.9 -0.18 -0.67 -0.39 -1.32 -0.57 -2a0.31 0.31 0 0 0 -0.6 0.11c0.06 0.59 0.15 1.17 0.22 1.76 0 0.1 0.19 3.39 0.2 3.6 0.07 1.26 0.2 2.51 0.33 3.76a0.35 0.35 0 0 0 0.37 0.33 0.35 0.35 0 0 0 0.33 -0.36c0 -1.26 0.13 -2.51 0.12 -3.77 0 -0.52 -0.05 -1 -0.1 -1.56a4.71 4.71 0 0 0 2.15 -2.1 3.05 3.05 0 0 0 0.05 -2.37Z" fill="#020202" fill-rule="evenodd" stroke-width="1"></path>
    <path d="m16.77 13.49 1.23 0c0.41 0 1.36 -0.08 1.46 -0.07 0.29 0 0.28 -0.62 -0.11 -0.86 0 0 -0.87 -0.16 -1.34 -0.21a10.83 10.83 0 0 0 -1.51 0.06 6.26 6.26 0 0 0 -1.29 0.33c-0.33 0.31 -0.31 0.7 -0.07 0.79s0.21 0 0.39 0c0.41 -0.06 0.82 -0.03 1.24 -0.04Z" fill="#020202" fill-rule="evenodd" stroke-width="1"></path>
    <path d="M18.59 14.77a7.39 7.39 0 0 0 -1.16 0.58 4 4 0 0 0 -2.29 -0.65c-0.32 0.16 -0.44 0.62 -0.14 0.76a3.89 3.89 0 0 1 0.76 0.28 3.89 3.89 0 0 1 0.54 0.27 3 3 0 0 1 0.66 0.45 0.78 0.78 0 0 0 0.84 0 7.68 7.68 0 0 1 1.47 -1 3.36 3.36 0 0 1 0.43 -0.2c0.21 -0.27 0.09 -0.88 -0.25 -0.79a2.92 2.92 0 0 0 -0.86 0.3Z" fill="#020202" fill-rule="evenodd" stroke-width="1"></path>
    <path d="M16.83 17.64a5.56 5.56 0 0 0 0 0.58c0 0.19 0 0.39 0.05 0.58 0.06 0.46 0.16 0.9 0.24 1.35a0.32 0.32 0 0 0 0.35 0.31 0.33 0.33 0 0 0 0.34 -0.32c0.06 -0.46 0.13 -0.9 0.17 -1.36a3.88 3.88 0 0 0 0 -0.59 3.86 3.86 0 0 0 0 -0.58c-0.2 -1.18 -0.98 -1.26 -1.15 0.03Z" fill="#020202" fill-rule="evenodd" stroke-width="1"></path>
    <path d="M23.85 21.08a0.34 0.34 0 0 0 -0.48 0.09 2 2 0 0 1 -1.73 0.86 2.12 2.12 0 0 1 -1.64 -0.94 0.45 0.45 0 0 0 -0.36 -0.18 0.4 0.4 0 0 0 -0.36 0.18 2.75 2.75 0 0 1 -2 1 1.85 1.85 0 0 1 -1.77 -0.87 0.59 0.59 0 0 0 -0.44 -0.27 0.57 0.57 0 0 0 -0.47 0.2 3.1 3.1 0 0 1 -2.11 1 2 2 0 0 1 -1.91 -0.89 0.58 0.58 0 0 0 -0.86 -0.15l-0.8 0.62a3.54 3.54 0 0 1 -1.92 0.4 1.52 1.52 0 0 1 -1.42 -1 0.45 0.45 0 0 0 -0.34 -0.3 0.47 0.47 0 0 0 -0.43 0.15 3.26 3.26 0 0 1 -2 1.09 2.7 2.7 0 0 1 -2.29 -0.57 0.32 0.32 0 0 0 -0.44 0 0.31 0.31 0 0 0 0.02 0.5 3.42 3.42 0 0 0 2.72 0.9A4.12 4.12 0 0 0 5 22.05a2.33 2.33 0 0 0 1.34 1 4.47 4.47 0 0 0 3.16 -0.35l0.5 -0.37a3.14 3.14 0 0 0 2.59 1 4.24 4.24 0 0 0 2.42 -1 3 3 0 0 0 2.38 0.76 3.84 3.84 0 0 0 2.27 -1 2.93 2.93 0 0 0 2 0.79 2.76 2.76 0 0 0 2.31 -1.26 0.34 0.34 0 0 0 -0.12 -0.54Z" fill="#4C57E6" fill-rule="evenodd" stroke-width="1"></path>
  </g>
</svg>