<svg xmlns="http://www.w3.org/2000/svg" viewBox="0 0 24 24" id="Beanie-1--Streamline-Freehand">
  <desc>
    Beanie 1 Streamline Icon: https://streamlinehq.com
  </desc>
  <g>
    <path d="M23.07 8.1a2.74 2.74 0 0 0 -2 -0.3 0.33 0.33 0 0 0 0.11 0.66 2 2 0 0 1 1.44 0.31A1.25 1.25 0 0 1 23 10a1.37 1.37 0 0 1 -0.07 0.29c-0.1 0.3 -0.34 0.35 -0.43 0.55a1.3 1.3 0 0 0 0 0.58c0 0.18 -0.2 0.48 -0.33 0.63a1.62 1.62 0 0 1 -0.49 0.38 0.9 0.9 0 0 1 -0.57 0.11 0.65 0.65 0 0 1 -0.45 -0.25l-0.09 -0.29a0.47 0.47 0 1 0 -0.49 -0.81l-0.17 0.08a1 1 0 0 1 -0.37 0.09 0.37 0.37 0 0 1 -0.25 -0.07 0.54 0.54 0 0 1 -0.15 -0.29 1.18 1.18 0 0 1 0 -0.42 1.69 1.69 0 0 1 0.34 -0.29 1.7 1.7 0 0 0 0.62 -0.11 0.73 0.73 0 0 0 0.31 -0.45 2.15 2.15 0 0 0 -0.06 -1 5.75 5.75 0 0 0 -1 -2.18 19 19 0 0 0 -2.76 -2.7A5.76 5.76 0 0 0 14 2.76a12.14 12.14 0 0 0 -5.86 0.59A9.1 9.1 0 0 0 3.5 6.92a8.77 8.77 0 0 0 -1.23 3.2 11.32 11.32 0 0 0 0 3.39l0 0.06a3.75 3.75 0 0 0 -2 2 4.7 4.7 0 0 0 -0.21 2.76 2.83 2.83 0 0 0 0.46 1 1.49 1.49 0 0 0 0.61 0.53 0.36 0.36 0 0 0 0.25 0c2 -0.78 5.18 -0.81 8.21 -0.51 3.62 0.37 7 1.21 7.9 1.9 0.46 0.36 1.12 0.2 1.68 -0.47a6.13 6.13 0 0 0 1.21 -2.64 7.42 7.42 0 0 0 0.08 -1.26 2.69 2.69 0 0 0 -0.22 -0.94 3.25 3.25 0 0 0 -1.77 -1.57 5.59 5.59 0 0 0 -0.15 -1.73 10.58 10.58 0 0 0 -1 -2.46l1.2 0.12c0 0.06 -0.06 0.11 -0.07 0.14a1.73 1.73 0 0 0 -0.07 0.85 1.21 1.21 0 0 0 0.28 0.58 1.11 1.11 0 0 0 0.58 0.34l0.28 0 0 0.1a1.79 1.79 0 0 0 0.26 0.6 1.75 1.75 0 0 0 1.11 0.73 2 2 0 0 0 1.27 -0.2 2.8 2.8 0 0 0 0.82 -0.64 2.41 2.41 0 0 0 0.52 -0.92 1.32 1.32 0 0 0 0.07 -0.65 0.19 0.19 0 0 0 0 -0.08 1.6 1.6 0 0 0 0.23 -0.52A2.09 2.09 0 0 0 24 10a2.12 2.12 0 0 0 -0.93 -1.9ZM3.91 14.25a6.29 6.29 0 0 0 -0.63 1.57 5 5 0 0 0 -0.11 1 5.05 5.05 0 0 0 0.06 0.67 6.16 6.16 0 0 0 0.22 1.1 11.8 11.8 0 0 0 -2.11 0.54 1.24 1.24 0 0 1 -0.31 -0.38 2.33 2.33 0 0 1 -0.25 -0.6A4 4 0 0 1 1 15.86a3 3 0 0 1 1.62 -1.54 5.48 5.48 0 0 1 1.44 -0.39c-0.06 0.12 -0.06 0.24 -0.15 0.32Zm3.5 4.11a25.19 25.19 0 0 0 -3.31 0.17s0.05 -0.91 0.06 -1c0 -0.28 0.09 -0.55 0.13 -0.83s0.11 -0.81 0.19 -1.21 0.12 -0.58 0.21 -0.87c0 0 0.26 -0.7 0.29 -0.74s2.33 0.1 3.38 0.22a7.52 7.52 0 0 0 -0.71 1.35 8.81 8.81 0 0 0 -0.32 1.25l0 1.15a4 4 0 0 0 0.08 0.51Zm4.2 0.11a0.53 0.53 0 0 0 0 0.16c-0.61 -0.07 -1.24 -0.13 -1.88 -0.18s-1.14 -0.06 -1.73 -0.08l0 -0.48 0.32 -1c0.08 -0.34 0.2 -0.68 0.28 -1s0.15 -0.69 0.24 -1 0.15 -0.49 0.23 -0.73h0.09c1.24 0.12 2.49 0.18 3.73 0.26 -0.19 0.5 -0.38 1 -0.53 1.5s-0.21 0.82 -0.35 1.23c-0.01 0.2 -0.33 1.05 -0.4 1.32Zm3.66 0.8a29.75 29.75 0 0 0 -3 -0.56c0.26 0 0.72 -1 0.82 -1.21a8.77 8.77 0 0 0 0.44 -1.31c0.12 -0.57 0.15 -1.14 0.22 -1.72 0.52 0 1 0.09 1.55 0.16a13.26 13.26 0 0 1 2.06 0.41 5.28 5.28 0 0 1 -0.24 0.77 10.25 10.25 0 0 1 -0.5 1.06c-0.17 0.36 -0.31 0.73 -0.5 1.06s-0.53 0.89 -0.71 1.18Zm2.78 -3.95a2.26 2.26 0 0 1 1.21 1 1.56 1.56 0 0 1 0.12 0.56 7.29 7.29 0 0 1 -0.06 1.06 4.26 4.26 0 0 1 -0.42 1.23 5.54 5.54 0 0 1 -0.3 0.53c-0.17 0.26 -0.37 0.35 -0.52 0.54a8.6 8.6 0 0 0 -2.15 -0.8c0.3 -0.28 0.86 -0.78 1 -1a5.92 5.92 0 0 0 0.51 -0.79 5.13 5.13 0 0 0 0.35 -0.89 6 6 0 0 0 0.21 -1.45Zm0.22 -6c-0.81 -0.06 -1.61 -0.15 -1.61 -0.15a0.44 0.44 0 0 0 -0.42 0.2c-0.21 0.34 0.93 1.58 1.41 3.39a5.16 5.16 0 0 1 0.19 1.24 16.56 16.56 0 0 0 -4.29 -0.67l-4.25 -0.2A36.61 36.61 0 0 0 5.13 13a8.2 8.2 0 0 0 -2.28 0.4A10.21 10.21 0 0 1 3 10.26a8.19 8.19 0 0 1 1.21 -2.88 8.25 8.25 0 0 1 4.32 -3 9.14 9.14 0 0 1 4.14 -0.67 8.4 8.4 0 0 1 3.24 1.08c0.37 0.18 0.8 0.43 2.65 2.5a4.56 4.56 0 0 1 0.93 2.08h-0.12c-0.3 -0.02 -0.7 -0.03 -1.1 -0.06Z" fill="#020202" stroke-width="1"></path>
    <path d="M7.5 9.18a8.54 8.54 0 0 1 1.14 -1.54 9.15 9.15 0 0 1 2.23 -1.78c1.38 -0.79 3.41 -1.05 3.41 -1.27s-0.28 -0.6 -1 -0.54a7.88 7.88 0 0 0 -2.91 0.87 8.49 8.49 0 0 0 -2.56 2 8 8 0 0 0 -1.19 1.79 6.91 6.91 0 0 0 -0.5 1.71 15.08 15.08 0 0 0 -0.22 2.15 0.31 0.31 0 0 0 0.61 0 16.28 16.28 0 0 1 0.42 -2 6 6 0 0 1 0.57 -1.39Z" fill="#4C57E6" stroke-width="1"></path>
    <path d="M12.57 9a7.25 7.25 0 0 1 1.3 -1.07 6.07 6.07 0 0 1 1.48 -0.75 6.47 6.47 0 0 1 2.17 -0.26c0.37 -0.13 0 -0.63 -0.65 -0.82a3.69 3.69 0 0 0 -1.8 0.12 6.18 6.18 0 0 0 -1.81 0.78 7.61 7.61 0 0 0 -1.5 1.25 6.45 6.45 0 0 0 -1.11 1.94A13.13 13.13 0 0 0 10 12.8c0 0.32 0.48 0.41 0.56 0.16a15.47 15.47 0 0 1 0.76 -2A6.42 6.42 0 0 1 12.57 9Z" fill="#4C57E6" stroke-width="1"></path>
    <path d="M15.5 10.89a8.81 8.81 0 0 0 -0.39 0.94 5.54 5.54 0 0 0 -0.25 1.17c0 0.34 0.49 0.56 0.68 0.27s0.31 -0.46 0.51 -0.83a6 6 0 0 0 0.26 -0.58 3.84 3.84 0 0 0 0.13 -0.41c0.06 -0.22 0.1 -0.38 0.14 -0.57 0.09 -0.49 -0.46 -1.27 -0.67 -0.82 -0.02 0.02 -0.15 0.29 -0.41 0.83Z" fill="#4C57E6" stroke-width="1"></path>
  </g>
</svg>