<svg xmlns="http://www.w3.org/2000/svg" viewBox="0 0 24 24" id="Begging-Bowl--Streamline-Freehand">
  <desc>
    Begging Bowl Streamline Icon: https://streamlinehq.com
  </desc>
  <g>
    <path d="M12.92 12a1.34 1.34 0 0 0 1.26 -1.11 1.15 1.15 0 0 0 -0.33 -1 3.62 3.62 0 0 0 -1.32 -0.65A2.14 2.14 0 0 1 12.1 9c-0.1 0 -0.1 -0.06 -0.1 -0.13 0 -0.33 0.2 -0.45 0.49 -0.48a3 3 0 0 1 1.23 0.29 0.28 0.28 0 0 0 0.39 -0.06 0.28 0.28 0 0 0 -0.11 -0.39 2 2 0 0 0 -0.51 -0.31 0.56 0.56 0 0 0 0.09 -0.17 1.42 1.42 0 0 0 0 -0.2l0 -0.48a0.32 0.32 0 1 0 -0.58 -0.26 3.24 3.24 0 0 0 -0.36 0.38 0.64 0.64 0 0 0 -0.1 0.18 0.49 0.49 0 0 0 0 0.2v0.1a2.44 2.44 0 0 0 -0.47 0A1.16 1.16 0 0 0 11 8.91a1.11 1.11 0 0 0 0.46 0.92 5.07 5.07 0 0 0 1.26 0.59c0.2 0.08 0.43 0.11 0.41 0.33s-0.31 0.34 -0.61 0.37a2.07 2.07 0 0 1 -1.18 -0.23 0.73 0.73 0 0 1 -0.24 -0.22 2.08 2.08 0 0 1 -0.2 -0.36 0.32 0.32 0 0 0 -0.41 -0.18 0.34 0.34 0 0 0 -0.18 0.42 3.19 3.19 0 0 0 0.28 0.59 1.43 1.43 0 0 0 0.34 0.36 1.48 1.48 0 0 0 0.25 0.14 0.72 0.72 0 0 0 -0.12 0.36 3.84 3.84 0 0 0 0 0.48 0.32 0.32 0 1 0 0.58 0.26 3.15 3.15 0 0 0 0.35 -0.38 0.67 0.67 0 0 0 0.11 -0.18 0.73 0.73 0 0 0 0.05 -0.2 2.8 2.8 0 0 0 0.77 0.02Z" fill="#020202" fill-rule="evenodd" stroke-width="1"></path>
    <path d="M9 13.78a4.06 4.06 0 0 0 0.94 0.55 4.33 4.33 0 0 0 1.23 0.29 9 9 0 0 0 1.8 -0.07 0.27 0.27 0 0 0 0.25 -0.31A0.3 0.3 0 0 0 13 14a7.86 7.86 0 0 1 -1.68 0 3.35 3.35 0 0 1 -1.77 -0.78 7.06 7.06 0 0 1 -0.67 -0.67 3.78 3.78 0 0 1 -0.66 -4.25 4.83 4.83 0 0 1 3.51 -2.66 4.88 4.88 0 0 1 2.77 0.41 4.25 4.25 0 0 1 2.1 1.8 4.12 4.12 0 0 1 0.09 3.5 4.09 4.09 0 0 1 -2.62 2.4 0.32 0.32 0 0 0 0.16 0.61 4.75 4.75 0 0 0 3.17 -2.7 5 5 0 0 0 0 -4.23 5.2 5.2 0 0 0 -2.52 -2.32 5.8 5.8 0 0 0 -3.38 -0.53 5.82 5.82 0 0 0 -4.2 3.3 4.58 4.58 0 0 0 1 5.19 5.94 5.94 0 0 0 0.7 0.71Z" fill="#020202" fill-rule="evenodd" stroke-width="1"></path>
    <path d="M21.11 15.32a2 2 0 0 0 0.42 -1.62c-0.22 -0.95 -1.42 -1.64 -2.78 -1.94a0.33 0.33 0 0 0 -0.39 0.23 0.32 0.32 0 0 0 0.24 0.39 3.54 3.54 0 0 1 2 1.13c0.32 0.48 0.17 1.07 -0.63 1.81a2.53 2.53 0 0 1 -0.93 0.36 27.13 27.13 0 0 1 -4.76 0.49 52.29 52.29 0 0 1 -5.43 -0.1 31 31 0 0 1 -3.57 -0.42c-1.6 -0.3 -2.29 -1.26 -2.11 -2.19S4.41 11.7 6 11.69a0.3 0.3 0 0 0 0.29 -0.28 0.29 0.29 0 0 0 -0.29 -0.29c-2 -0.07 -3.25 1 -3.53 2.19s0.47 2.69 2.66 3.25a26.45 26.45 0 0 0 3.69 0.57 41.49 41.49 0 0 0 5.56 0.08c6.21 -0.33 6.32 -1.29 6.73 -1.89Z" fill="#4C57E6" fill-rule="evenodd" stroke-width="1"></path>
    <path d="m20.06 16.89 -0.78 2.65a10.1 10.1 0 0 1 -0.51 1.46 2 2 0 0 1 -0.54 0.69 5.71 5.71 0 0 1 -2.54 1 22.62 22.62 0 0 1 -4.38 0.19c-0.54 0 -1.07 0 -1.6 -0.07a11.89 11.89 0 0 1 -1.54 -0.22c-0.57 -0.13 -1.24 -0.23 -1.84 -0.43a2.46 2.46 0 0 1 -1 -0.51 1.32 1.32 0 0 1 -0.29 -0.42c-0.13 -0.29 -0.22 -0.62 -0.31 -0.89 -0.2 -0.63 -0.36 -1.23 -0.49 -1.84s-0.19 -1.19 -0.24 -1.85a0.28 0.28 0 0 0 -0.55 0.06c0 0.67 0.13 1.31 0.23 1.95s0.24 1.26 0.42 1.92a8.52 8.52 0 0 0 0.29 1 2.27 2.27 0 0 0 0.42 0.68A3.4 3.4 0 0 0 6 23a19.09 19.09 0 0 0 1.91 0.54 10.75 10.75 0 0 0 1.35 0.27c0.66 0.08 1.32 0.11 2 0.13a21.84 21.84 0 0 0 4.59 -0.23 6.49 6.49 0 0 0 2.93 -1.31 2.82 2.82 0 0 0 0.76 -1 10.1 10.1 0 0 0 0.49 -1.64l0.68 -3c0.03 -0.36 -0.52 -0.33 -0.65 0.13Z" fill="#020202" fill-rule="evenodd" stroke-width="1"></path>
    <path d="M15.08 3.89a0.28 0.28 0 0 0 0.36 -0.18 7.52 7.52 0 0 1 1.17 -1.45c0.29 -0.3 0.56 -0.62 0.86 -0.88a4.42 4.42 0 0 1 1.06 -0.76 0.32 0.32 0 0 0 0.21 -0.4 0.31 0.31 0 0 0 -0.4 -0.2 4.42 4.42 0 0 0 -1.67 0.74 4.24 4.24 0 0 0 -1.08 1.1 5.26 5.26 0 0 0 -0.68 1.67 0.3 0.3 0 0 0 0.17 0.36Z" fill="#4C57E6" fill-rule="evenodd" stroke-width="1"></path>
    <path d="M18.4 4.75a1.27 1.27 0 0 0 -0.2 0.31 3.8 3.8 0 0 0 -0.25 0.81 0.28 0.28 0 0 0 0.1 0.38 0.28 0.28 0 0 0 0.39 -0.1c0.21 -0.21 0.45 -0.35 0.66 -0.56a3.47 3.47 0 0 0 0.29 -0.38c0.14 -0.2 0.24 -0.42 0.4 -0.61a0.32 0.32 0 0 0 0.08 -0.45 0.33 0.33 0 0 0 -0.45 -0.07 3.33 3.33 0 0 0 -0.76 0.42 3.07 3.07 0 0 0 -0.26 0.25Z" fill="#4C57E6" fill-rule="evenodd" stroke-width="1"></path>
    <path d="M5.85 20.21a0.28 0.28 0 0 0 0 0.4 0.28 0.28 0 0 0 0.39 0c0.34 -0.25 0.7 -0.43 1 -0.69l0.18 -0.16c0.1 0.1 0.22 0.19 0.33 0.28a5.26 5.26 0 0 0 -0.5 0.76 0.29 0.29 0 0 0 0 0.4 0.28 0.28 0 0 0 0.4 0c0.26 -0.16 0.52 -0.25 0.77 -0.4l0.17 -0.11c0.31 0.21 0.63 0.42 0.94 0.65a0.32 0.32 0 0 0 0.44 -0.46c-0.23 -0.28 -0.48 -0.54 -0.72 -0.81l0.35 -0.37a0.32 0.32 0 0 0 -0.36 -0.53l-0.61 0.26 -0.2 -0.19 -0.22 -0.24c0.11 -0.11 0.21 -0.21 0.33 -0.31a0.32 0.32 0 0 0 0.12 -0.44 0.32 0.32 0 0 0 -0.43 -0.12 5.46 5.46 0 0 0 -0.78 0.35c-0.25 -0.16 -0.5 -0.31 -0.74 -0.48a0.28 0.28 0 0 0 -0.4 0 0.29 0.29 0 0 0 0 0.4l0.43 0.54a3.06 3.06 0 0 0 -0.3 0.32 6.52 6.52 0 0 0 -0.59 0.95Z" fill="#020202" fill-rule="evenodd" stroke-width="1"></path>
  </g>
</svg>