<svg xmlns="http://www.w3.org/2000/svg" viewBox="0 0 24 24" id="Bicycle-Lock--Streamline-Freehand">
  <desc>
    Bicycle Lock Streamline Icon: https://streamlinehq.com
  </desc>
  <g>
    <path d="M5.61 17.74a2.55 2.55 0 0 0 0.64 2.74 3.08 3.08 0 0 0 1.75 0.76 3.92 3.92 0 0 0 2.6 -0.7 2.67 2.67 0 0 0 0.45 -0.44 2 2 0 0 0 0.31 -0.58 4.33 4.33 0 0 0 0.18 -0.81l0.83 -0.06a2.74 2.74 0 0 0 3.09 1.82 3.66 3.66 0 0 0 1.93 -1.14 2.74 2.74 0 0 0 0.74 -2.17 2.28 2.28 0 0 0 -0.23 -0.68 3.26 3.26 0 0 0 -0.59 -0.79 3 3 0 0 0 -0.59 -0.47 1.87 1.87 0 0 0 -0.51 -0.2 2.7 2.7 0 0 0 -0.9 0 4.16 4.16 0 0 0 -0.59 0.13l-0.81 -1.45a7.32 7.32 0 0 1 -0.36 -0.66 1.38 1.38 0 0 1 -0.13 -0.28l0.08 0 1.14 -0.32a0.27 0.27 0 0 0 0.2 -0.33 0.26 0.26 0 0 0 -0.33 -0.2l-1.1 0.11a1.91 1.91 0 0 0 -0.4 0 0.51 0.51 0 0 0 -0.29 0.22 1.1 1.1 0 0 0 -0.16 0.75 4.12 4.12 0 0 0 0.42 1.2 9.12 9.12 0 0 0 0.58 1l0.06 0.07a2.39 2.39 0 0 0 -1 1.06 3.09 3.09 0 0 0 -0.25 0.62c-0.18 -0.32 -0.36 -0.63 -0.57 -0.94s-0.51 -0.68 -0.76 -1l-1 -1a3.32 3.32 0 0 1 0.81 -0.16 0.31 0.31 0 0 0 0.13 -0.61 2.4 2.4 0 0 0 -0.8 -0.19l-0.68 0L8.42 13a0.28 0.28 0 0 0 -0.28 0.27 0.27 0.27 0 0 0 0.27 0.28c0.29 0.08 0.53 0.23 0.83 0.31l0.12 0 0 0.05c0 0.05 0.18 0.28 0.27 0.43l0.14 0.28 -0.69 -0.1 -0.51 0a4.92 4.92 0 0 0 -0.93 0.11 0.27 0.27 0 0 0 -0.28 0.26s0 0 0 0.05 -0.06 0 -0.08 0a0.28 0.28 0 0 0 -0.13 0.37l0.25 0.69a3 3 0 0 0 -1.79 1.74Zm7.63 -1.17a1.75 1.75 0 0 1 0.68 -0.85 0.35 0.35 0 0 0 0.19 0.17c0.15 0.19 0.3 0.39 0.44 0.59l0.65 1.17a0.31 0.31 0 1 0 0.54 -0.3l-0.49 -1.28 -0.2 -0.35 0.15 0a2.1 2.1 0 0 1 0.83 0.06 0.86 0.86 0 0 1 0.35 0.19 2.42 2.42 0 0 1 0.33 0.31 2.27 2.27 0 0 1 0.34 0.51 1.32 1.32 0 0 1 0.16 0.51 1.82 1.82 0 0 1 -0.58 1.37 2.68 2.68 0 0 1 -1.38 0.8 1.8 1.8 0 0 1 -1.32 -0.26 1.86 1.86 0 0 1 -0.84 -1.1 2.5 2.5 0 0 1 0.15 -1.54Zm-1 1.38 -1.14 -0.08 -0.8 0 -0.72 0 -0.2 0h-0.12a7.73 7.73 0 0 0 0.59 -0.87 6.3 6.3 0 0 0 0.4 -0.72c0.07 -0.16 0.13 -0.31 0.2 -0.46a7.64 7.64 0 0 0 0.54 0.73c0.39 0.5 0.83 0.94 1.25 1.45ZM9.11 15.6l0.57 -0.15a2.74 2.74 0 0 0 -0.38 0.45 4.66 4.66 0 0 0 -0.41 0.76c-0.05 0.12 -0.09 0.24 -0.13 0.35l-0.43 -0.77 -0.56 -1a5.66 5.66 0 0 0 0.68 0.27 2.84 2.84 0 0 0 0.66 0.09ZM6.42 18a2.33 2.33 0 0 1 1.17 -1.5l0 0.06 0.32 0.94a3.16 3.16 0 0 0 0.45 1 1.36 1.36 0 0 0 0.86 0.36l0.29 0 0.8 0 0.54 -0.06c0 0.12 -0.06 0.25 -0.11 0.37a1.36 1.36 0 0 1 -0.29 0.47 1.58 1.58 0 0 1 -0.42 0.31 3.23 3.23 0 0 1 -1.92 0.3A2.27 2.27 0 0 1 7 19.7a1.64 1.64 0 0 1 -0.58 -1.7Z" fill="#4C57E6" fill-rule="evenodd" stroke-width="1"></path>
    <path d="M21.45 10.44a2.15 2.15 0 0 0 -0.75 -1.09 2.24 2.24 0 0 0 -1 -0.35l-0.3 0a25.3 25.3 0 0 0 0.18 -3.43 4.92 4.92 0 0 0 -0.76 -2.48A6.33 6.33 0 0 0 16 0.84 13.36 13.36 0 0 0 10.72 0a10.32 10.32 0 0 0 -3.64 0.77A5.64 5.64 0 0 0 5 2.28a4.53 4.53 0 0 0 -0.84 1.62 11.52 11.52 0 0 0 -0.3 2.56l0 1.87c0 0.62 0.05 1.08 0.1 1.63a10.8 10.8 0 0 0 -1.15 0.31 0.27 0.27 0 0 0 -0.18 0.35c-0.08 0.85 -0.13 1.71 -0.16 2.57s-0.06 1.72 -0.07 2.58l0.08 2.79v2.55a3.77 3.77 0 0 0 0.14 1.73 1.64 1.64 0 0 0 1.13 0.79l1 0.2 1.44 0.09 3 0.07c0.51 0 1 0 1.52 -0.05 1.15 -0.07 2.3 -0.2 3.46 -0.26s2.34 -0.16 3.49 -0.26 2.32 -0.21 3.49 -0.34a0.32 0.32 0 0 0 0.28 -0.34 0.31 0.31 0 0 0 -0.34 -0.28c-1.17 0.09 -2.32 0.16 -3.48 0.22s-2.3 0.11 -3.48 0.14 -2.31 0.11 -3.47 0.14l-1.46 0 -2.93 -0.1 -1.37 -0.06 -0.9 -0.17c-0.32 -0.08 -0.48 -0.19 -0.53 -0.38a5.14 5.14 0 0 1 0 -1.11l-0.11 -2.61 -0.21 -2.76 0 -2.56c0 -0.86 0 -1.64 0.06 -2.46a14.3 14.3 0 0 1 2.73 -0.48c1.52 -0.13 3.08 -0.11 4.54 -0.15l7.31 -0.06c0.39 0 1 -0.08 1.6 -0.05a1.61 1.61 0 0 1 0.78 0.18 1.34 1.34 0 0 1 0.47 0.84A11.21 11.21 0 0 1 20.7 13c0.06 1.76 0.12 3.53 0.1 5.3 0 1.17 -0.08 2.34 -0.19 3.5a0.31 0.31 0 0 0 0.27 0.35 0.3 0.3 0 0 0 0.34 -0.27c0.16 -1.18 0.26 -2.37 0.32 -3.56 0.09 -1.78 0.09 -3.57 0.09 -5.34a8.73 8.73 0 0 0 -0.18 -2.54Zm-11.08 -1.2c-1 0.07 -2.1 0.14 -3.17 0.23a14.42 14.42 0 0 1 0.27 -2.59 3.22 3.22 0 0 1 0.72 -1.47 3 3 0 0 1 1.5 -1 9.82 9.82 0 0 1 3 -0.22 5.2 5.2 0 0 1 1.5 0.13 1.38 1.38 0 0 1 0.71 0.41 3.27 3.27 0 0 1 0.64 1.51A17.85 17.85 0 0 1 15.66 9c-0.79 0 -1.58 0 -2.36 0.05 -0.97 0.06 -1.95 0.12 -2.93 0.19ZM17.7 9l-1.42 0a17.41 17.41 0 0 0 0 -2.89 4.13 4.13 0 0 0 -0.71 -2 2.36 2.36 0 0 0 -1.13 -0.77 6.26 6.26 0 0 0 -1.79 -0.24 9.74 9.74 0 0 0 -3.28 0.29 3.91 3.91 0 0 0 -1.89 1.45 4.25 4.25 0 0 0 -0.75 1.89 17.46 17.46 0 0 0 -0.09 2.79l-0.85 0.08c-0.44 0.06 -0.88 0.14 -1.32 0.23l0 -1.5c0 -0.5 0.06 -1.21 0.12 -1.81A10.78 10.78 0 0 1 5 4.15a3.73 3.73 0 0 1 0.76 -1.28A5 5 0 0 1 8 1.51a9.76 9.76 0 0 1 2.75 -0.45 12.52 12.52 0 0 1 4.84 0.68 5.53 5.53 0 0 1 2.53 1.81 4.19 4.19 0 0 1 0.7 2.06A24.64 24.64 0 0 1 18.76 9Z" fill="#020202" fill-rule="evenodd" stroke-width="1"></path>
  </g>
</svg>