<svg xmlns="http://www.w3.org/2000/svg" viewBox="0 0 24 24" id="Bicycle-Parking--Streamline-Freehand">
  <desc>
    Bicycle Parking Streamline Icon: https://streamlinehq.com
  </desc>
  <g>
    <path d="M20.75 4.85a1.26 1.26 0 0 0 -1.21 -0.21 2 2 0 0 0 -0.37 0.21l-0.07 0.06a0.26 0.26 0 0 0 -0.22 -0.26 0.27 0.27 0 0 0 -0.3 0.24 7.29 7.29 0 0 0 -0.29 1.59 5.94 5.94 0 0 0 0.06 0.94c0 0.45 0.15 0.9 0.2 1.36a0.3 0.3 0 0 0 0.29 0.32 0.32 0.32 0 0 0 0.32 -0.3 11 11 0 0 0 0.16 -1.38v-0.1a1.38 1.38 0 0 0 0.2 0 1.7 1.7 0 0 0 0.39 0 1.82 1.82 0 0 0 1 -0.53 1.36 1.36 0 0 0 0.36 -0.79 1.32 1.32 0 0 0 -0.52 -1.15Zm-0.63 1.43a1.15 1.15 0 0 1 -0.41 0.33 0.86 0.86 0 0 1 -0.21 0.07h-0.18l0 -0.42c0 -0.14 -0.06 -0.45 -0.1 -0.67a1.28 1.28 0 0 1 0.25 -0.15 0.71 0.71 0 0 1 0.28 -0.06c0.13 0 0.22 0.07 0.32 0.15a0.43 0.43 0 0 1 0.2 0.4 0.5 0.5 0 0 1 -0.15 0.35Z" fill="#020202" fill-rule="evenodd" stroke-width="1"></path>
    <path d="M9.9 14.21c0.26 0.31 0.53 0.6 0.79 0.9 -0.07 0.08 -0.14 0.14 -0.21 0.23a4.38 4.38 0 0 0 -0.63 1.26 3.82 3.82 0 0 0 0 2 1.82 1.82 0 0 0 0.92 1.11 0.3 0.3 0 0 0 0.41 -0.12 0.29 0.29 0 0 0 -0.12 -0.41 1.2 1.2 0 0 1 -0.47 -0.78 2.88 2.88 0 0 1 0.19 -1.53 3.37 3.37 0 0 1 0.56 -1l1 1.2a0.31 0.31 0 1 0 0.47 -0.4L12 15.26a2.66 2.66 0 0 1 0.46 -0.35 2.09 2.09 0 0 1 1.67 -0.2 0.27 0.27 0 0 0 0.2 -0.5 2.77 2.77 0 0 0 -2.75 0.17 0.39 0.39 0 0 0 -0.1 0.08 3.81 3.81 0 0 0 -0.24 -0.32c-0.34 -0.41 -0.72 -0.77 -1 -1.19L9 11.36c0.27 0 0.51 0.09 0.78 0.12h0.35a2.2 2.2 0 0 0 0.36 0c0.29 -0.06 0.55 -0.14 0.84 -0.21a0.32 0.32 0 0 0 0.3 -0.32 0.31 0.31 0 0 0 -0.32 -0.29c-0.3 0 -0.56 -0.12 -0.85 -0.15a1.56 1.56 0 0 0 -0.37 0 2.33 2.33 0 0 0 -0.38 0 5.53 5.53 0 0 0 -0.85 0.33 0.26 0.26 0 0 0 -0.22 0.3 0.28 0.28 0 0 0 -0.13 0 0.27 0.27 0 0 0 -0.05 0.38q0.16 0.27 0.3 0.54c0.23 0.46 0.41 0.94 0.66 1.4 0 0.09 0.12 0.17 0.17 0.25a3.19 3.19 0 0 0 -1.11 0.87 2.89 2.89 0 0 0 -0.56 1.24 4.45 4.45 0 0 0 -0.1 0.72c-0.4 -0.64 -0.72 -1.41 -1.17 -2.06a4.25 4.25 0 0 0 -0.54 -0.64l0.45 -1.1a0.28 0.28 0 0 0 0 -0.29c0.24 0 0.47 -0.08 0.72 -0.09a0.3 0.3 0 0 0 0.34 -0.27 0.3 0.3 0 0 0 -0.26 -0.34 5.09 5.09 0 0 0 -0.84 -0.26 2.33 2.33 0 0 0 -0.37 0 2.17 2.17 0 0 0 -0.36 0 7.24 7.24 0 0 0 -0.83 0.24 0.27 0.27 0 0 0 -0.27 0.27 0.28 0.28 0 0 0 0.28 0.27c0.28 0.07 0.53 0.16 0.82 0.21a1.23 1.23 0 0 0 0.27 0l-0.59 0.9 -0.15 0 -0.66 0 -2.66 0.11a0.27 0.27 0 0 0 -0.05 0.53l0.18 0a0.25 0.25 0 0 0 -0.09 0.24H2a3 3 0 0 0 -0.59 0.35 4.29 4.29 0 0 0 -0.49 0.46 3.69 3.69 0 0 0 -0.82 1.64 3.28 3.28 0 0 0 0.08 1.86 3.72 3.72 0 0 0 2.3 2.14 3.41 3.41 0 0 0 3.09 -0.44 4 4 0 0 0 0.73 -0.68 6.69 6.69 0 0 0 0.78 -1.2 0.26 0.26 0 0 0 0 -0.15l0.94 0a0.3 0.3 0 0 0 0.34 -0.27 0.28 0.28 0 0 0 -0.18 -0.28 0.28 0.28 0 0 0 0.19 -0.24 6.82 6.82 0 0 1 0.52 -1.52c0.08 -0.19 0.16 -0.37 0.25 -0.55s0.11 -0.24 0.18 -0.36a3.23 3.23 0 0 1 0.58 -0.81Zm-2.42 3a0.3 0.3 0 0 0 0.3 0.08v0.07a0.35 0.35 0 0 0 0.06 0.17c-0.41 -0.09 -0.82 -0.19 -1.24 -0.26L6 17.2l-0.64 0 -1 0A10.88 10.88 0 0 0 5 16.14a6.19 6.19 0 0 0 0.3 -0.57c0.11 -0.22 0.2 -0.46 0.3 -0.69l0.18 0.21c0.62 0.69 1.11 1.52 1.7 2.13Zm-3 -2.84a1.34 1.34 0 0 0 0.25 0c-0.12 0.26 -0.26 0.53 -0.36 0.81 -0.22 0.57 -0.37 1.16 -0.6 1.71 -0.07 -0.24 -0.14 -0.48 -0.23 -0.73s-0.12 -0.33 -0.19 -0.48 -0.15 -0.31 -0.23 -0.46c-0.2 -0.36 -0.42 -0.68 -0.59 -1.05l0 -0.06ZM5.91 19a3.29 3.29 0 0 1 -0.78 0.66 2.63 2.63 0 0 1 -2.32 0.14 2.85 2.85 0 0 1 -1.71 -1.6 2.43 2.43 0 0 1 -0.18 -1.33 3 3 0 0 1 0.53 -1.33 2.05 2.05 0 0 1 0.36 -0.42 2 2 0 0 1 0.29 -0.22 4.29 4.29 0 0 0 0.2 0.86 4 4 0 0 0 0.38 0.78c0.21 0.37 0.47 0.7 0.7 1.06a0.3 0.3 0 0 0 0.38 0.16 12.17 12.17 0 0 0 1.68 0.43 6.37 6.37 0 0 0 1 0.06 5.24 5.24 0 0 1 -0.53 0.75Z" fill="#020202" fill-rule="evenodd" stroke-width="1"></path>
    <g>
      <path d="M24 4.89a7.26 7.26 0 0 0 -0.14 -1.49 1.78 1.78 0 0 0 -0.41 -0.74 0.67 0.67 0 0 0 -0.45 -0.18 7.16 7.16 0 0 0 -1 0.02l-3.36 0.23c-0.59 0 -1.28 0 -1.92 0.06a4.9 4.9 0 0 0 -0.88 0.14 0.27 0.27 0 0 0 -0.17 0.2 0.26 0.26 0 0 0 -0.18 0.22c-0.05 0.57 -0.09 1.13 -0.12 1.7s0 1.13 0 1.7v2.93l0 0.8a1.33 1.33 0 0 0 0.16 0.56 1.2 1.2 0 0 0 0.91 0.49c0.93 0.1 6.09 -0.6 6.89 -0.49a0.32 0.32 0 0 0 0.35 -0.27c0.15 -0.87 0.26 -2.27 0.32 -3.17a24.54 24.54 0 0 0 0 -2.71Zm-1 5.05a0.27 0.27 0 0 0 -0.21 -0.06l-5 0.56a8.48 8.48 0 0 1 -1 0.08 1.58 1.58 0 0 1 -0.39 0 0.19 0.19 0 0 1 -0.09 0v-0.88l-0.2 -2.93c-0.05 -0.56 -0.09 -1.11 -0.11 -1.66s0 -1.05 0 -1.6a3.91 3.91 0 0 1 0.7 -0.05c0.65 0 1.33 0.1 1.93 0.11l3.36 0c0.65 0 0.8 -0.1 0.88 0.31A10 10 0 0 1 23 5a25.06 25.06 0 0 1 0.14 2.61c0 0.75 -0.04 1.54 -0.14 2.33Z" fill="#4C57E6" fill-rule="evenodd" stroke-width="1"></path>
      <path d="M20.28 11.61c-0.09 -0.25 -0.66 -0.1 -0.64 0.08l0 1.1c-0.07 0.05 -0.15 0.09 -0.22 0.15 -0.31 0.25 -0.6 0.54 -0.89 0.77s-0.83 0.66 -1.23 1l-0.8 0.71c-0.5 0.58 -1.07 1.06 -1.56 1.58 -0.74 0.84 -1.41 1.73 -2.11 2.59l-0.79 0.82a0.31 0.31 0 0 0 -0.06 0.16l-2.49 0.18a0.26 0.26 0 0 0 -0.28 0.26 0.28 0.28 0 0 0 0.27 0.28l3.55 0.2 2.61 0c1.32 0 2.62 -0.13 3.93 -0.2a0.34 0.34 0 0 0 0.23 -0.11 0.3 0.3 0 0 0 0.24 0.25 0.32 0.32 0 0 0 0.34 -0.28 10.48 10.48 0 0 0 0.11 -1.14c0.05 -0.86 0 -1.74 0.07 -2.6s0 -1.75 0 -2.62c-0.04 -1.04 -0.15 -2.11 -0.28 -3.18Zm-4.64 8.91 -2.62 0h-0.17l0.51 -0.44 2.79 -2.89a0.27 0.27 0 0 0 0.06 0.17c0.38 0.52 0.7 1.06 1.11 1.55a6.09 6.09 0 0 0 0.65 0.69 8.54 8.54 0 0 0 0.73 0.62l0.47 0.44c-1.17 -0.03 -2.35 -0.11 -3.53 -0.14Zm4.13 -0.15 -0.48 -0.7c-0.21 -0.25 -0.39 -0.5 -0.59 -0.74s-0.41 -0.46 -0.64 -0.68c-0.46 -0.44 -1 -0.82 -1.45 -1.23a0.27 0.27 0 0 0 -0.19 -0.08l0.78 -0.81 1.8 -1.87 0.6 -0.66 0 1.24 0 2.61c0 0.87 0.16 1.73 0.19 2.6 -0.01 0.11 -0.02 0.21 -0.02 0.32Z" fill="#020202" fill-rule="evenodd" stroke-width="1"></path>
    </g>
  </g>
</svg>