<svg xmlns="http://www.w3.org/2000/svg" viewBox="0 0 24 24" id="Bicycle-1--Streamline-Freehand">
  <desc>
    Bicycle 1 Streamline Icon: https://streamlinehq.com
  </desc>
  <g>
    <path d="M23 14.39a4.71 4.71 0 0 0 -3.72 -1.49 4.2 4.2 0 0 0 -0.62 0.08l-0.44 -2a95.51 95.51 0 0 0 -0.89 -3.6C17 6.13 16.68 5.22 16.62 5s-0.05 -0.56 -0.11 -0.75a0.62 0.62 0 0 0 -0.16 -0.3 17.66 17.66 0 0 0 -2.87 -1.22l-0.14 0c-0.05 0 -0.08 0 -0.07 -0.05a0.3 0.3 0 0 0 -0.18 -0.06 0.28 0.28 0 0 0 -0.26 0.12 0.3 0.3 0 0 0 0.06 0.44 2.21 2.21 0 0 0 0.33 0.18 25.9 25.9 0 0 1 2.36 1.17c-0.11 0.13 0.07 0.65 0.08 0.72 0.06 0.31 0.36 1.81 0.8 3.65 0.13 0.52 0.28 1.07 0.42 1.63a4.25 4.25 0 0 0 -0.94 -0.28 14.51 14.51 0 0 0 -1.62 -0.25 14.26 14.26 0 0 0 -4.64 0.37 7.76 7.76 0 0 0 -0.9 0.28l0 -0.07 -0.83 -1.3a0.31 0.31 0 0 0 -0.4 -0.16 0.32 0.32 0 0 0 -0.16 0.4L8 11a9 9 0 0 0 -2.52 1.6c-0.12 0.12 -0.23 0.25 -0.34 0.37A4.49 4.49 0 0 0 4 12.9a4.36 4.36 0 0 0 -3.39 2A3.87 3.87 0 0 0 0 16.64a4.72 4.72 0 0 0 0.14 1.79 4 4 0 0 0 0.54 1.17 2.27 2.27 0 0 0 0.65 0.62 0.3 0.3 0 1 0 0.34 -0.5 1.59 1.59 0 0 1 -0.52 -0.62 3.93 3.93 0 0 1 -0.3 -2.34 3.05 3.05 0 0 1 0.57 -1.31A3.42 3.42 0 0 1 4.09 14h0.18s-0.06 0.07 -0.08 0.11A7.7 7.7 0 0 0 3.31 16a5.33 5.33 0 0 0 -0.24 0.9 0.83 0.83 0 0 0 0.23 0.67 0.81 0.81 0 0 0 0.51 0.19 4 4 0 0 0 0.73 -0.08 4.25 4.25 0 0 1 0.8 -0.06 5.69 5.69 0 0 1 0.83 0.06c0.32 0 0.86 0.08 1.48 0.12a3.44 3.44 0 0 1 -0.2 0.78 3.44 3.44 0 0 1 -2.91 2.06 5 5 0 0 1 -0.86 0 3.6 3.6 0 0 1 -0.82 -0.14 0.35 0.35 0 0 0 -0.44 0.22 0.34 0.34 0 0 0 0.22 0.43 4 4 0 0 0 1 0.21 4.67 4.67 0 0 0 1 0A4.29 4.29 0 0 0 8.36 19a3.7 3.7 0 0 0 0.33 -1.12c1.29 0.07 2.56 0.1 2.74 0.1a0.51 0.51 0 0 0 0.49 -0.38l0.08 -0.4a13.58 13.58 0 0 1 1.62 -3.48 3.84 3.84 0 0 1 0.83 -0.83 14.43 14.43 0 0 1 1.63 -1l1 -0.48c0.17 0.65 0.35 1.29 0.52 1.9a4.5 4.5 0 0 0 -1.87 1.54 3.62 3.62 0 0 0 -0.64 1.68 4.5 4.5 0 0 0 0.14 1.74 3.57 3.57 0 0 0 0.53 1.14 2.2 2.2 0 0 0 0.65 0.59 0.31 0.31 0 0 0 0.33 -0.52 1.59 1.59 0 0 1 -0.54 -0.59 3.54 3.54 0 0 1 -0.28 -0.81 3.9 3.9 0 0 1 0 -1.43 2.85 2.85 0 0 1 0.57 -1.23 3.57 3.57 0 0 1 1.51 -1.1 28.87 28.87 0 0 1 0.72 2.8 0.34 0.34 0 0 0 0.34 0.34 0.35 0.35 0 0 0 0.35 -0.34 27.94 27.94 0 0 0 -0.52 -3.05l0.44 0a3.67 3.67 0 0 1 2.81 1.12 3 3 0 0 1 0.59 3.27 3.56 3.56 0 0 1 -2.95 1.94 5.25 5.25 0 0 1 -0.88 0 3.78 3.78 0 0 1 -0.84 -0.13 0.34 0.34 0 0 0 -0.21 0.65 4.67 4.67 0 0 0 1 0.21 6.63 6.63 0 0 0 1 0 4.38 4.38 0 0 0 3.78 -2.27 4 4 0 0 0 -0.63 -4.47ZM13.14 3.16a0.3 0.3 0 0 0 0.25 -0.22c-0.01 0.06 -0.07 0.2 -0.25 0.22ZM4.23 17c-0.08 0 -0.08 -0.08 0 -0.18 0.03 0.1 0.1 0.18 0 0.18Zm1.12 -0.54a6.54 6.54 0 0 0 -1 0.07l0.1 -0.21a6.56 6.56 0 0 1 0.73 -1.57c0.11 -0.17 0.23 -0.33 0.36 -0.5a3.18 3.18 0 0 1 1.32 0.92 3.53 3.53 0 0 1 0.76 1.49c-0.52 -0.05 -1 -0.09 -1.27 -0.13a6.14 6.14 0 0 0 -1 -0.06Zm5.64 0.71 0 0.08c0 -0.01 -0.07 -0.13 0.07 -0.19Zm-2.12 -0.4h-0.16a4.66 4.66 0 0 0 -1 -2.31 4.31 4.31 0 0 0 -1.44 -1.1 7.87 7.87 0 0 1 2 -1.42c0 0.11 0.09 0.23 0.14 0.34q0.17 0.44 0.36 0.84c0.32 0.7 0.69 1.38 1 2.06a5.79 5.79 0 0 0 0.38 0.58c0.14 0.18 0.28 0.35 0.44 0.52s0.23 0.44 0.33 0.41a0.36 0.36 0 0 0 0.07 0.1l0.06 0 0 0.12Zm6.9 -5.55a14.3 14.3 0 0 0 -1.75 1 4.54 4.54 0 0 0 -1.06 1A13.54 13.54 0 0 0 11.42 16l-0.16 -0.26a5 5 0 0 1 -0.31 -0.49 3.43 3.43 0 0 1 -0.23 -0.52c-0.17 -0.42 -0.32 -0.86 -0.5 -1.28s-0.35 -0.85 -0.56 -1.27c-0.12 -0.24 -0.26 -0.47 -0.39 -0.71 0.22 -0.08 0.43 -0.17 0.66 -0.24a13.67 13.67 0 0 1 4.35 -0.53 13.51 13.51 0 0 1 1.57 0.09 3.48 3.48 0 0 1 0.56 0.12Z" fill="#020202" stroke-width="1"></path>
    <path d="M13.34 2.68c0 -0.05 0 -0.09 -0.06 -0.06a0.17 0.17 0 0 1 0.06 0.06Z" fill="#020202" stroke-width="1"></path>
    <path d="m5.22 8.66 0 -0.08a0.35 0.35 0 0 0 0.18 0.05c0.38 0 1.3 0.06 1.49 0 0.41 0 1.64 -0.05 2.64 -0.14a8 8 0 0 0 1.21 -0.2A1 1 0 0 0 11.39 7a2.39 2.39 0 0 0 -1.1 -1.33 3.13 3.13 0 0 0 -0.84 -0.16l-1.63 0a0.54 0.54 0 0 1 -0.22 0 2.22 2.22 0 0 1 -0.27 -0.19A2 2 0 0 0 6 4.82a2 2 0 0 0 -1.31 0.48 3.28 3.28 0 0 0 -0.53 2.15c0.05 0.7 0.39 1.23 1.06 1.21Zm0 -0.65Zm-0.35 -0.89A2.11 2.11 0 0 1 5.31 6 1 1 0 0 1 6 5.82a1 1 0 0 1 0.61 0.18 2.27 2.27 0 0 0 0.59 0.44 1.71 1.71 0 0 0 0.54 0.14l1.4 0a3.12 3.12 0 0 1 0.73 0.1c0.16 0.06 0.69 0.62 0.45 0.63l0 -0.07A8.51 8.51 0 0 1 9 7.61c-0.9 0.15 -1.87 0.27 -2.23 0.33C6.6 8 5.74 8 5.39 8a0.24 0.24 0 0 0 -0.15 0c-0.38 0 -0.36 -0.47 -0.33 -0.88Z" fill="#4C57E6" stroke-width="1"></path>
  </g>
</svg>