<svg xmlns="http://www.w3.org/2000/svg" viewBox="0 0 24 24" id="Bicycle-Sports--Streamline-Freehand">
  <desc>
    Bicycle Sports Streamline Icon: https://streamlinehq.com
  </desc>
  <g>
    <path d="M9.28 17.36a6.29 6.29 0 0 1 -1.13 1.06 4 4 0 0 1 -1.34 0.65 3.11 3.11 0 0 1 -1 0.07A6.84 6.84 0 0 1 4.66 19a4.57 4.57 0 0 1 -3 -2.15 4.5 4.5 0 0 1 -0.39 -3.66 5.68 5.68 0 0 1 1.82 -2.81 3.1 3.1 0 0 1 3.1 -0.67 0.28 0.28 0 1 0 0.21 -0.51 3.56 3.56 0 0 0 -3.11 0.15 6.48 6.48 0 0 0 -3 3.54 5.44 5.44 0 0 0 0.44 4.5 5.46 5.46 0 0 0 3.75 2.5A7.56 7.56 0 0 0 6 20a3.84 3.84 0 0 0 1 -0.17A4.66 4.66 0 0 0 8.58 19a7.18 7.18 0 0 0 1.18 -1.22 0.33 0.33 0 0 0 0 -0.45 0.31 0.31 0 0 0 -0.48 0.03Z" fill="#4C57E6" fill-rule="evenodd" stroke-width="1"></path>
    <g>
      <path d="M15.59 16.22c0.59 0 1.19 0 1.78 -0.09s1.2 -0.09 1.79 -0.16a0.32 0.32 0 0 0 -0.05 -0.63l-1.76 0 -1.76 0 -2.22 -0.08 -1.14 0 -0.42 -0.06c0.6 -0.85 1.21 -1.7 1.79 -2.58 0.3 -0.45 0.58 -0.91 0.86 -1.38s0.54 -0.94 0.79 -1.42a3.76 3.76 0 0 1 0.49 0.55c0.56 0.7 1 1.56 1.52 2.24 0.3 0.44 0.64 0.91 0.92 1.4a5.79 5.79 0 0 1 0.47 1 0.32 0.32 0 0 0 0.4 0.2 0.33 0.33 0 0 0 0.2 -0.4 6.57 6.57 0 0 0 -0.44 -1.11c-0.25 -0.53 -0.56 -1 -0.83 -1.51s-0.73 -1.4 -1.16 -2.08a5.76 5.76 0 0 0 -1.07 -1.25q0.54 -1.09 1.05 -2.22c0.48 0 1 -0.11 1.44 -0.17a0.32 0.32 0 0 0 0 -0.63c-0.49 -0.06 -1 -0.16 -1.46 -0.2a4.68 4.68 0 0 0 -1 0 5.87 5.87 0 0 0 -1.64 0.36 0.28 0.28 0 0 0 -0.2 0.34 0.27 0.27 0 0 0 0.33 0.2 13.27 13.27 0 0 1 1.41 0l0.34 0c-0.36 0.61 -0.72 1.21 -1.09 1.81 -0.46 -0.1 -1 -0.07 -1.37 -0.13l-2 -0.15 -2.5 -0.42a0.27 0.27 0 1 0 -0.1 0.54l2.51 0.74 1.89 0.33c0.26 0.06 0.62 0.08 1 0.12 -0.45 0.74 -0.9 1.47 -1.33 2.21 -0.64 1.11 -1.22 2.25 -1.81 3.37l-0.11 -0.07 -0.47 -0.89 -1.18 -2.35c-0.21 -0.46 -0.4 -0.92 -0.57 -1.4s-0.33 -0.95 -0.47 -1.44a0.28 0.28 0 0 0 -0.34 -0.2 0.22 0.22 0 0 0 -0.16 0.12c0.08 -0.24 0.18 -0.48 0.28 -0.73 0.23 -0.65 0.6 -1.4 0.83 -2.16a5.25 5.25 0 0 0 0.25 -1.67 0.52 0.52 0 0 0 -0.13 -0.32 0.47 0.47 0 0 0 -0.25 -0.14 2.06 2.06 0 0 0 -0.33 0l-0.9 0.11c-0.44 0.07 -0.86 0.13 -1.29 0.16a11.38 11.38 0 0 1 -1.31 0 0.27 0.27 0 0 0 -0.29 0.25 0.27 0.27 0 0 0 0.25 0.3 12.6 12.6 0 0 0 1.37 0.09l1.36 0 0.54 0a4 4 0 0 1 -0.15 0.57c-0.26 0.84 -0.69 1.72 -1 2.44 -0.39 1.14 -0.78 2.3 -1.12 3.48s-0.64 2.37 -0.88 3.55a0.32 0.32 0 0 0 0.62 0.14c0.25 -0.91 0.54 -1.83 0.86 -2.74 0.38 -1.12 0.8 -2.23 1.23 -3.32a0.25 0.25 0 0 0 0 0.19c0.11 0.52 0.23 1 0.36 1.52s0.29 1 0.47 1.5 0.31 0.85 0.47 1.27 0.35 0.83 0.54 1.24c0.1 0.21 0.21 0.54 0.35 0.8a1.63 1.63 0 0 0 0.33 0.43 2 2 0 0 0 0.71 0.39 4.55 4.55 0 0 0 1 0.18c0.42 0.01 1.91 0.06 3.5 -0.04Z" fill="#020202" fill-rule="evenodd" stroke-width="1"></path>
      <path d="M23.27 12.14a6.1 6.1 0 0 0 -1 -1 8.24 8.24 0 0 0 -1.18 -0.77 5.13 5.13 0 0 0 -1.79 -0.57 7.56 7.56 0 0 0 -1.84 0 0.32 0.32 0 0 0 -0.28 0.35 0.32 0.32 0 0 0 0.35 0.28 6.57 6.57 0 0 1 1.66 0 4.24 4.24 0 0 1 1.51 0.55 9 9 0 0 1 1 0.75 5.44 5.44 0 0 1 0.83 0.9 2.63 2.63 0 0 1 0.47 1.72 4.24 4.24 0 0 1 -0.44 1.77 6.49 6.49 0 0 1 -1.45 2A4.27 4.27 0 0 1 19 19.27a4.76 4.76 0 0 1 -3.13 -0.49A3.26 3.26 0 0 1 14.29 17c-0.17 -0.6 -0.67 -0.6 -0.62 0a3.89 3.89 0 0 0 1.85 2.43 5.66 5.66 0 0 0 3.69 0.79 5.25 5.25 0 0 0 2.61 -1.32 7.49 7.49 0 0 0 1.68 -2.32 5.23 5.23 0 0 0 0.5 -2.22 3.59 3.59 0 0 0 -0.73 -2.22Z" fill="#4C57E6" fill-rule="evenodd" stroke-width="1"></path>
    </g>
  </g>
</svg>