<svg xmlns="http://www.w3.org/2000/svg" viewBox="0 0 24 24" id="Biking-Bicycle--Streamline-Freehand">
  <desc>
    Biking Bicycle Streamline Icon: https://streamlinehq.com
  </desc>
  <title>biking-bicycle</title>
  <g>
    <path d="M24 15.59a3.62 3.62 0 0 0 -0.5 -1.41c-0.54 -0.91 -2.09 -2.7 -4.19 -2.58 -0.15 -0.71 -0.3 -1.42 -0.45 -2.1 -0.39 -1.73 -0.78 -3.25 -1 -4.24a7.05 7.05 0 0 0 -0.2 -0.68l0.2 0a23.24 23.24 0 0 1 2.54 -0.11c0.09 0 0.3 0.07 0.37 0.07a0.34 0.34 0 0 0 0.35 -0.34c0 -0.2 -0.05 -0.29 -0.29 -0.38a3.49 3.49 0 0 0 -0.74 -0.1c-0.81 -0.06 -2.08 -0.07 -2.66 0a1.12 1.12 0 0 0 -0.58 0.18 0.54 0.54 0 0 0 -0.15 0.35 2.29 2.29 0 0 0 0 0.54c0.08 0.71 0.32 2.15 0.71 3.88h-0.19c-1.71 0.05 -5.78 0.21 -6.85 0.31l-1 0.1s-0.29 -0.63 -0.37 -0.82a0.34 0.34 0 0 0 -0.46 -0.18 0.35 0.35 0 0 0 -0.18 0.45c0.08 0.25 0.16 0.55 0.25 0.86l-0.71 0.88 -1.5 1.82a3.75 3.75 0 0 0 -3 -0.33 4.86 4.86 0 0 0 -3 2.51 5.18 5.18 0 0 0 -0.14 3.9 3.31 3.31 0 0 0 2 1.87 6.41 6.41 0 0 0 2.19 0.33 5.37 5.37 0 0 0 2.19 -0.49 4.39 4.39 0 0 0 1.79 -1.83 4.45 4.45 0 0 0 0.55 -1.84c0.35 0 0.57 -0.06 0.86 -0.08s0.17 -0.73 -0.3 -0.68H9a3.68 3.68 0 0 0 -0.47 -1.27 6.09 6.09 0 0 0 -1.21 -1.43L8.76 11l0.23 -0.3c0.16 0.48 0.33 1 0.54 1.46a11.58 11.58 0 0 0 0.74 1.45c0.18 0.34 0.85 0.19 0.75 -0.4s-0.15 -0.63 -0.32 -1.16c-0.09 -0.31 -0.2 -0.61 -0.32 -0.91s-0.25 -0.61 -0.38 -0.89L9.88 10l0.63 0c1.06 -0.17 5.07 -0.59 6.76 -0.74l0.3 0 0.06 0.25c-0.29 0.25 -1.16 0.9 -1.89 1.49 -0.33 0.28 -0.62 0.55 -0.84 0.74s-0.45 0.43 -0.7 0.71a6.86 6.86 0 0 0 -1 1.26c-0.18 0.34 0.09 0.7 0.47 0.45 0.53 -0.4 0.83 -0.53 1.31 -0.92l0.75 -0.64c0.21 -0.2 0.51 -0.46 0.81 -0.77 0.48 -0.49 1 -1.05 1.35 -1.46 0.08 0.28 0.15 0.56 0.24 0.85s0.11 0.4 0.17 0.6a4.85 4.85 0 0 0 -2.89 2.48 5.23 5.23 0 0 0 -0.15 3.9 3.36 3.36 0 0 0 2 1.87 6.35 6.35 0 0 0 2.18 0.33 5.38 5.38 0 0 0 2.2 -0.49 4.39 4.39 0 0 0 1.79 -1.83 4.12 4.12 0 0 0 0.57 -2.49Zm-16.27 2a3.43 3.43 0 0 1 -1.42 1.34 4.27 4.27 0 0 1 -1.75 0.31 5.42 5.42 0 0 1 -1.79 -0.29 2.32 2.32 0 0 1 -1.52 -1.7 4.52 4.52 0 0 1 0.2 -2.59 3.81 3.81 0 0 1 2.27 -2.11 3 3 0 0 1 2.28 0.06l-0.25 0.3L4.1 15s-0.35 0.5 -0.45 0.69a0.58 0.58 0 0 0 0.05 0.68 0.52 0.52 0 0 0 0.4 0.16l0.6 0 3.49 -0.21a3.6 3.6 0 0 1 -0.49 1.26Zm0 -3.28a3.14 3.14 0 0 1 0.46 1.16L5 15.5l1.56 -1.82 0.31 -0.38a6 6 0 0 1 0.86 1Zm14.88 3.28a3.43 3.43 0 0 1 -1.42 1.34 4.3 4.3 0 0 1 -1.75 0.31 5.42 5.42 0 0 1 -1.79 -0.29 2.32 2.32 0 0 1 -1.52 -1.7 4.52 4.52 0 0 1 0.2 -2.59 3.79 3.79 0 0 1 2.17 -2.07c0.36 1.19 0.76 2.38 1.14 3.5a0.32 0.32 0 0 0 0.38 0.21 0.31 0.31 0 0 0 0.21 -0.38c-0.28 -1.13 -0.54 -2.35 -0.79 -3.55a4 4 0 0 1 3.2 1.94 2.91 2.91 0 0 1 0.49 1.38 3.19 3.19 0 0 1 -0.52 1.89Z" fill="#020202" stroke-width="1"></path>
    <path d="M11.41 13.68c-0.35 0.08 -0.71 0.07 -1.18 0.92a1.86 1.86 0 0 0 0.77 2.32 1.69 1.69 0 0 0 0.82 0.11 1.93 1.93 0 0 0 0.84 -0.21 1.83 1.83 0 0 0 0.69 -0.74 1.66 1.66 0 0 0 0.17 -1 1.88 1.88 0 0 0 -2.11 -1.4Zm1.13 1.93a0.78 0.78 0 0 1 -0.32 0.25 1 1 0 0 1 -0.39 0 1.22 1.22 0 0 1 -0.43 -0.08 0.33 0.33 0 0 1 -0.22 -0.24 1.08 1.08 0 0 1 0 -0.59 0.81 0.81 0 0 1 0.46 -0.52c0.49 -0.21 0.73 0 1 0.43a0.69 0.69 0 0 1 0.09 0.31 0.84 0.84 0 0 1 -0.19 0.44Z" fill="#4C57E6" stroke-width="1"></path>
    <path d="M5.13 8.82a1.42 1.42 0 0 0 0.87 0.31 3 3 0 0 0 1.08 -0.23l0.39 -0.18c0.43 -0.24 0.58 -0.56 1.06 -0.68S9.8 8 10.38 7.88a1.81 1.81 0 0 0 1 -0.4 1.13 1.13 0 0 0 0.44 -1.37c-0.28 -0.61 -1 -0.78 -1.8 -1a3.45 3.45 0 0 0 -0.57 -0.15 16.71 16.71 0 0 0 -3.09 -0.4 2.19 2.19 0 0 0 -1.56 0.61A2.58 2.58 0 0 0 4.21 7a2.55 2.55 0 0 0 0.92 1.82Zm0.49 -3a1.59 1.59 0 0 1 1.19 -0.35 22.41 22.41 0 0 1 2.54 0.15 2.51 2.51 0 0 1 0.45 0.08c0.1 0 1.15 0.29 1.3 0.7 0.06 0.15 -0.07 0.28 -0.27 0.43a1.08 1.08 0 0 1 -0.55 0.16 16.44 16.44 0 0 0 -2 0 1.75 1.75 0 0 0 -0.44 0.14 5.78 5.78 0 0 1 -1.14 0.64 2.76 2.76 0 0 1 -0.57 0.23 0.39 0.39 0 0 1 -0.29 -0.07 1.41 1.41 0 0 1 -0.47 -1 1.44 1.44 0 0 1 0.25 -1.1Z" fill="#020202" stroke-width="1"></path>
  </g>
</svg>