<svg xmlns="http://www.w3.org/2000/svg" viewBox="0 0 24 24" id="Bird-Parrot--Streamline-Freehand">
  <desc>
    Bird Parrot Streamline Icon: https://streamlinehq.com
  </desc>
  <g>
    <path d="m14 3.37 -0.12 -0.07c-0.91 -0.56 -2.06 1.18 -0.54 1.57 1.15 0.32 1.42 -0.99 0.66 -1.5Z" fill="#020202" fill-rule="evenodd" stroke-width="1"></path>
    <path d="M7.78 8.37a37.11 37.11 0 0 0 -2 3.24A16.23 16.23 0 0 0 5 13.23c-0.35 0.83 -0.64 1.68 -0.91 2.52 -0.13 0.44 -0.26 0.87 -0.38 1.31s-0.22 0.88 -0.31 1.33 -0.29 1.18 -0.4 1.77a10.38 10.38 0 0 0 -0.11 1.24 3 3 0 0 0 0 0.72 0.67 0.67 0 0 0 0.38 0.44 1.07 1.07 0 0 0 0.5 0.08 2.52 2.52 0 0 0 0.69 -0.15 5.24 5.24 0 0 0 1.22 -0.58 14.68 14.68 0 0 0 1.52 -1.18c0.29 -0.25 2.38 -2.44 2.86 -3.1A24.67 24.67 0 0 0 12.23 14c0.14 -0.27 0.26 -0.55 0.38 -0.82 0.17 -0.42 0.33 -0.83 0.49 -1.25 0.07 -0.21 0.21 -0.48 0.28 -0.73a1.64 1.64 0 0 0 0 -0.43 0.31 0.31 0 0 0 -0.34 -0.29 0.3 0.3 0 0 0 -0.29 0.34 1.07 1.07 0 0 1 -0.06 0.29c-0.08 0.2 -0.19 0.41 -0.26 0.58q-0.24 0.6 -0.51 1.2c-0.12 0.26 -0.25 0.52 -0.38 0.77a24.57 24.57 0 0 1 -2.22 3.4A18.14 18.14 0 0 1 6.54 20a12.6 12.6 0 0 1 -1.43 1 4.46 4.46 0 0 1 -1 0.46H4v-0.06a10.59 10.59 0 0 1 0.1 -1.12c0.08 -0.58 0.19 -1.16 0.3 -1.72q0.09 -0.53 0.21 -1c0.12 -0.52 0.25 -1 0.4 -1.53 0.23 -0.83 0.47 -1.66 0.78 -2.48A12 12 0 0 1 6.47 12a33 33 0 0 1 1.84 -3.25c0.46 -0.69 1.5 -1.87 1.5 -1.93 0 -0.34 -0.39 -0.47 -0.59 -0.13a8.71 8.71 0 0 0 -1.44 1.68Z" fill="#4C57E6" fill-rule="evenodd" stroke-width="1"></path>
    <path d="M20.32 4.26a2.44 2.44 0 0 0 -2.26 -1.39l-0.08 0a5 5 0 0 0 -0.38 -0.6 8.84 8.84 0 0 0 -0.78 -0.91 5.9 5.9 0 0 0 -0.64 -0.57 4.85 4.85 0 0 0 -0.74 -0.47A3.52 3.52 0 0 0 12 0.55a5.46 5.46 0 0 0 -2 2.59 8.5 8.5 0 0 0 -0.37 1.31c-0.12 0.63 -0.12 0.81 -0.2 1.46 -0.1 0.4 0.53 0.57 0.63 0.18 0.14 -0.63 0.17 -0.86 0.34 -1.46a6.73 6.73 0 0 1 0.43 -1.13 4.76 4.76 0 0 1 1.81 -2 2.68 2.68 0 0 1 2.48 -0.28 4.18 4.18 0 0 1 0.64 0.31 4.25 4.25 0 0 1 0.59 0.43c0.23 0.19 0.47 0.4 0.69 0.62a4.72 4.72 0 0 1 0.41 0.5 2.27 2.27 0 0 0 -1.25 1.56 2.38 2.38 0 0 0 -0.11 0.7l0 1.12a0.27 0.27 0 0 0 0.3 0.25l2.08 0a10 10 0 0 0 1.37 0.07 1.12 1.12 0 0 0 0.59 -0.21 1.19 1.19 0 0 0 0.33 -0.87 3.55 3.55 0 0 0 -0.44 -1.44ZM18.37 5.9l-1.64 0.18a0.31 0.31 0 0 0 0 -0.23 1.46 1.46 0 0 1 0 -0.51 2.27 2.27 0 0 1 0.12 -0.5 1.4 1.4 0 0 1 1.25 -1 1.51 1.51 0 0 1 1.28 0.93 2.85 2.85 0 0 1 0.2 0.54c0.3 1.11 -0.18 0.5 -1.21 0.59Z" fill="#020202" fill-rule="evenodd" stroke-width="1"></path>
    <path d="M20.82 22.56c-1.63 -0.07 -3.27 -0.08 -4.91 0 -0.23 -0.25 -0.43 -0.52 -0.66 -0.77a7.18 7.18 0 0 0 -0.6 -0.63 8.4 8.4 0 0 0 -0.94 -0.66 8.7 8.7 0 0 0 0.86 -0.63 12.23 12.23 0 0 0 2.53 -2.93 10.12 10.12 0 0 0 1.32 -3.66 18.3 18.3 0 0 0 0.15 -2.77 23.14 23.14 0 0 0 -0.21 -2.75 0.28 0.28 0 1 0 -0.55 0.06 21.79 21.79 0 0 1 0 2.68 16.74 16.74 0 0 1 -0.33 2.63 9.6 9.6 0 0 1 -1.32 3.25 12.19 12.19 0 0 1 -2.26 2.74 7.18 7.18 0 0 1 -1.3 1 3.34 3.34 0 0 1 -1.45 0.47 3.42 3.42 0 0 1 -1.41 -0.28 6.43 6.43 0 0 1 -1.06 -0.58c-0.2 -0.22 -0.66 0.23 -0.47 0.45a6.51 6.51 0 0 0 1.56 0.93q0.3 0.11 0.6 0.18c-0.05 0.15 -0.11 0.31 -0.15 0.47a2.5 2.5 0 0 0 -0.06 0.38 2.54 2.54 0 0 0 0 0.39c0 0.17 0 0.33 0.06 0.5 -0.72 0.06 -1.45 0.13 -2.17 0.22a12.71 12.71 0 0 0 -1.5 0.26 0.27 0.27 0 1 0 0.1 0.54c0.48 -0.06 1 -0.09 1.46 -0.11 1.16 -0.05 2.34 0 3.49 0l3.22 -0.22c1.07 -0.09 2.14 -0.21 3.21 -0.29s1.84 -0.12 2.76 -0.15a0.32 0.32 0 0 0 0.32 -0.32 0.31 0.31 0 0 0 -0.29 -0.4Zm-9.27 0.27 -0.46 0.05c0 -0.11 0.07 -0.22 0.1 -0.33a2.5 2.5 0 0 0 0.06 -0.38 2.44 2.44 0 0 0 0 -0.38 3.4 3.4 0 0 0 -0.07 -0.46 3.85 3.85 0 0 0 1.5 -0.32l0.42 -0.19c0.23 0.3 0.43 0.62 0.67 0.92a3.6 3.6 0 0 0 0.37 0.41 5 5 0 0 0 0.43 0.37l0.09 0.07c-1.03 0.06 -2.07 0.16 -3.11 0.24Z" fill="#020202" fill-rule="evenodd" stroke-width="1"></path>
  </g>
</svg>