<svg xmlns="http://www.w3.org/2000/svg" viewBox="0 0 24 24" id="Bird-House--Streamline-Freehand">
  <desc>
    Bird House Streamline Icon: https://streamlinehq.com
  </desc>
  <g>
    <path d="M22.46 9.28A7.7 7.7 0 0 0 20.73 7l-3 -3.09a12.39 12.39 0 0 0 -1.12 -0.94c-0.57 -0.43 -1.16 -0.83 -1.73 -1.25s-1 -0.78 -1.5 -1.15c-0.23 -0.16 -0.46 -0.32 -0.7 -0.47a0.33 0.33 0 0 0 -0.45 0.1s0 0.05 0 0.08l0 -0.12a0.28 0.28 0 0 0 -0.4 0c-1.17 0.78 -2.25 1.68 -3.31 2.6S6.41 4.63 5.39 5.6A31.54 31.54 0 0 0 3 8.09a11.05 11.05 0 0 0 -1.34 2 2.75 2.75 0 0 0 -0.3 0.89 1.64 1.64 0 0 0 0.07 0.73 2 2 0 0 0 1.22 1.19 2 2 0 0 0 1.73 -0.08 4.26 4.26 0 0 0 0.62 -0.49A14 14 0 0 0 5.29 14c0.22 1 0.52 2 0.81 3l0.22 1c0 0.09 0 0.36 0.09 0.48a0.51 0.51 0 0 0 0.14 0.21 1.53 1.53 0 0 0 0.68 0.36 6.28 6.28 0 0 0 1.34 0.18l1 0a7.07 7.07 0 0 0 -0.23 1.52 6.07 6.07 0 0 0 0.07 1.13c0.08 0.56 0.22 1.09 0.31 1.65a0.32 0.32 0 0 0 0.34 0.3 0.32 0.32 0 0 0 0.31 -0.34c0 -0.55 0.07 -1.09 0.08 -1.63l0 -0.69c0 -0.23 0 -0.45 -0.05 -0.68 0 -0.42 -0.1 -0.82 -0.14 -1.24h0.07c0.77 0 1.55 -0.06 2.32 -0.11 -0.06 0.39 -0.12 0.78 -0.15 1.17a6.79 6.79 0 0 0 0 0.78l0 0.78c0 0.61 0.12 1.2 0.18 1.81a0.33 0.33 0 0 0 0.66 0c0.06 -0.6 0.14 -1.2 0.19 -1.8l0 -0.78a6.77 6.77 0 0 0 0 -0.78c0 -0.41 -0.08 -0.82 -0.14 -1.23l2.31 -0.14a4.41 4.41 0 0 0 0.89 -0.1 1.34 1.34 0 0 0 0.5 -0.29 2.67 2.67 0 0 0 0.69 -1.15c0.17 -0.54 0.21 -1.14 0.33 -1.68l0.66 -2.67 0.23 -1.48a4.29 4.29 0 0 0 2 0.67 1.46 1.46 0 0 0 1.29 -0.77 2.45 2.45 0 0 0 0.17 -2.2Zm-4.37 3.6 -0.79 2.63c-0.13 0.51 -0.2 1.08 -0.38 1.58a1.68 1.68 0 0 1 -0.47 0.73 0.37 0.37 0 0 1 -0.23 0.07h-0.57l-2.72 0.11q-1.08 0.07 -2.16 0.12l-2.14 0a7.47 7.47 0 0 1 -1 0c-0.58 -0.1 -0.34 -0.11 -0.4 -0.34l-0.31 -1c-0.33 -0.93 -0.69 -1.89 -1 -2.87a11.91 11.91 0 0 1 -0.39 -1.94s0 -0.06 0 -0.1c0.29 -0.33 0.57 -0.69 0.84 -1l2.1 -2.5c0.79 -0.88 1.66 -1.68 2.49 -2.52q0.47 -0.48 0.9 -1 0.39 0.48 0.81 0.93c0.48 0.52 1 1 1.45 1.54a35.73 35.73 0 0 0 2.51 2.56 13.65 13.65 0 0 0 1.81 1.37Zm3.3 -1.94c-0.19 0.32 -0.54 0.25 -0.88 0.15a7.28 7.28 0 0 1 -1.42 -0.67 13.27 13.27 0 0 1 -1.88 -1.29c-0.9 -0.73 -1.73 -1.55 -2.59 -2.38L13.1 5.29c-0.33 -0.33 -0.65 -0.66 -0.95 -1a0.35 0.35 0 0 0 -0.2 -0.1 0.34 0.34 0 0 0 -0.46 0c-0.33 0.37 -0.69 0.72 -1.05 1.07 -0.86 0.82 -1.78 1.59 -2.6 2.45l-2.23 2.47c-0.33 0.38 -0.66 0.8 -1 1.16a2.93 2.93 0 0 1 -0.72 0.55 1 1 0 0 1 -0.81 0 1 1 0 0 1 -0.59 -0.56 0.58 0.58 0 0 1 0 -0.32 1.92 1.92 0 0 1 0.17 -0.44 11.49 11.49 0 0 1 1.17 -1.79 32 32 0 0 1 2.25 -2.49c1 -1 1.94 -2 2.95 -3s2.05 -1.9 3.1 -2.82a0.53 0.53 0 0 0 0.06 -0.1 0.35 0.35 0 0 0 0.13 0.19 7.36 7.36 0 0 1 0.63 0.47c0.5 0.38 1 0.81 1.47 1.2s1.11 0.86 1.66 1.31a12.38 12.38 0 0 1 1 0.91L20 7.7a6.49 6.49 0 0 1 1.46 2 1.46 1.46 0 0 1 -0.07 1.24Z" fill="#020202" fill-rule="evenodd" stroke-width="1"></path>
    <path d="M14.2 9.45a4.41 4.41 0 0 0 -4.1 -0.08 3.82 3.82 0 0 0 -1.67 1.93 3.76 3.76 0 0 0 0.07 2.78A3.31 3.31 0 0 0 10.61 16a3.8 3.8 0 0 0 2.63 -0.28 4.26 4.26 0 0 0 1.87 -1.79 3.92 3.92 0 0 0 0.36 -2.39 3 3 0 0 0 -1.27 -2.09Zm0.05 4a3.33 3.33 0 0 1 -1.47 1.28 2.7 2.7 0 0 1 -1.87 0.2 2.3 2.3 0 0 1 -1.46 -1.28 2.83 2.83 0 0 1 -0.18 -2 2.89 2.89 0 0 1 1.2 -1.65 3.42 3.42 0 0 1 3.31 0.07 2.22 2.22 0 0 1 0.84 1.58 3 3 0 0 1 -0.37 1.79Z" fill="#4C57E6" fill-rule="evenodd" stroke-width="1"></path>
  </g>
</svg>