<svg xmlns="http://www.w3.org/2000/svg" viewBox="0 0 24 24" id="Blog-Wordpress--Streamline-Freehand">
  <desc>
    Blog Wordpress Streamline Icon: https://streamlinehq.com
  </desc>
  <g>
    <path d="M23.23 7.94a6.53 6.53 0 0 0 -0.52 -1.14c-0.29 -0.53 -0.64 -1 -0.95 -1.54A12.49 12.49 0 0 0 19.3 2.2 13.65 13.65 0 0 0 8.41 0.5 10.85 10.85 0 0 0 2 5.83a14.12 14.12 0 0 0 -1.74 7.22 11.6 11.6 0 0 0 2.65 7 15.72 15.72 0 0 0 1.83 2 5.26 5.26 0 0 0 1.67 1 15.37 15.37 0 0 0 8.77 0.63A10.6 10.6 0 0 0 22 18.15a14.94 14.94 0 0 0 1.6 -5 11.46 11.46 0 0 0 -0.37 -5.21ZM22.74 13a14.52 14.52 0 0 1 -1.58 4.65 9.6 9.6 0 0 1 -6.25 4.88 14.3 14.3 0 0 1 -8.13 -0.63 4.24 4.24 0 0 1 -1.34 -0.75 14.05 14.05 0 0 1 -1.68 -1.87A10.6 10.6 0 0 1 1.28 13a13.24 13.24 0 0 1 1.48 -6.77 10 10 0 0 1 5.87 -5c3 -1 9.21 -1 12.48 4.48 0.3 0.5 0.63 1 0.9 1.51a6.24 6.24 0 0 1 0.46 1 10.76 10.76 0 0 1 0.27 4.78Z" fill="#4C57E6" fill-rule="evenodd" stroke-width="1"></path>
    <path d="M16.78 6.21a0.33 0.33 0 0 0 -0.42 0.21 0.32 0.32 0 0 0 0.21 0.41 1.57 1.57 0 0 1 1 1.71 12.72 12.72 0 0 1 -1.07 3.6l-0.46 1.26 -0.5 1.6c-0.16 0.51 -0.29 1.06 -0.47 1.59l-0.33 -0.7L13 12.65c-0.25 -0.44 -0.48 -0.89 -0.68 -1.34s-0.39 -0.93 -0.58 -1.41h0.06c0.34 0 0.66 -0.1 1 -0.15a0.33 0.33 0 1 0 0 -0.65c-0.34 -0.08 -0.66 -0.19 -1 -0.24a2.48 2.48 0 0 0 -0.72 0 3.53 3.53 0 0 0 -1.17 0.4 0.29 0.29 0 1 0 0.09 0.54c0.33 0 0.62 0.08 0.94 0.11h0.09c0.19 0.56 0.37 1.12 0.58 1.67a2 2 0 0 0 0.11 0.26c-0.05 0 -0.1 0.06 -0.12 0.11 -0.4 0.85 -0.81 1.7 -1.25 2.53 -0.29 0.55 -0.59 1.08 -0.92 1.59l-0.27 0.37 -0.43 -1.15c-0.48 -1.16 -0.93 -2.36 -1.36 -3.55L6.8 10c0.39 -0.07 0.77 -0.17 1.17 -0.24a0.32 0.32 0 0 0 0.31 -0.33 0.32 0.32 0 0 0 -0.28 -0.29A10.71 10.71 0 0 0 6.68 9a3.25 3.25 0 0 0 -0.54 0 3.07 3.07 0 0 0 -0.53 0.07c-0.42 0.07 -0.82 0.21 -1.23 0.31a0.29 0.29 0 0 0 -0.27 0.3 0.28 0.28 0 0 0 0.3 0.27c0.43 0.07 0.84 0.14 1.27 0.17a3.65 3.65 0 0 0 0.47 0c0.25 1 0.5 2.08 0.8 3.11 0.24 0.83 0.5 1.64 0.77 2.45l0.58 1.54a3.47 3.47 0 0 0 0.17 0.52 0.83 0.83 0 0 0 0.24 0.25 0.56 0.56 0 0 0 0.6 0 3.05 3.05 0 0 0 0.36 -0.38l0.65 -1c0.3 -0.56 0.57 -1.13 0.83 -1.73s0.62 -1.49 0.92 -2.24c0.06 0.14 0.11 0.28 0.17 0.41l1.55 3.29 0.51 1.16 0.12 0.31c0 0.07 0 0.21 0.05 0.28a0.61 0.61 0 0 0 0.16 0.26 0.58 0.58 0 0 0 0.42 0.14 0.56 0.56 0 0 0 0.43 -0.24 4.92 4.92 0 0 0 0.6 -1.19c0.21 -0.57 0.34 -1.18 0.5 -1.74l0.48 -1.57 0.39 -1.26a13.83 13.83 0 0 0 0.92 -3.91 2.23 2.23 0 0 0 -1.59 -2.37Z" fill="#020202" fill-rule="evenodd" stroke-width="1"></path>
  </g>
</svg>