<svg xmlns="http://www.w3.org/2000/svg" viewBox="0 0 24 24" id="Blood-Drop-Type-Positive--Streamline-Freehand">
  <desc>
    Blood Drop Type Positive Streamline Icon: https://streamlinehq.com
  </desc>
  <g>
    <path d="M21.27 15.31a14.5 14.5 0 0 0 -1.47 -4.71 39.44 39.44 0 0 0 -3.25 -5.07C15.42 4 14.17 2.53 12.73 0.9a0.35 0.35 0 0 0 -0.48 0 0.34 0.34 0 0 0 0 0.48C13.61 3 14.82 4.46 15.92 6A39.21 39.21 0 0 1 19 11a13.19 13.19 0 0 1 1.27 4.39 5.94 5.94 0 0 1 -0.27 2.9c-1.24 2.89 -4.72 4.47 -8.14 4.55S5.12 21.55 4 18.26c-0.79 -2.33 -0.13 -5 1.1 -7.54C6.92 6.93 10 3.19 11.78 0.47a0.3 0.3 0 0 0 -0.08 -0.42 0.31 0.31 0 0 0 -0.42 0.08c-1.9 2.7 -5 6.4 -6.95 10.2C2.91 13.15 2.19 16 3 18.6c1.23 3.77 5 5.49 8.88 5.4s7.71 -2 9.08 -5.3a6.92 6.92 0 0 0 0.31 -3.39Z" fill="#020202" stroke-width="1"></path>
    <path d="M15.62 19.4a3.75 3.75 0 0 0 1.16 -1.4 3.06 3.06 0 0 0 0.25 -0.93 8.1 8.1 0 0 0 0 -1.3 6.06 6.06 0 0 0 -0.94 -3.3 4.8 4.8 0 0 0 -2.95 -1.88 5.19 5.19 0 0 0 -1.09 -0.15 4.58 4.58 0 0 0 -1.14 0.15 8.63 8.63 0 0 0 -3 1.66A5.55 5.55 0 0 0 6 15.17 3.77 3.77 0 0 0 7.39 19c2.21 1.78 6.05 2.05 8.23 0.4Zm-7 -0.58A3 3 0 0 1 7 15.4a4.52 4.52 0 0 1 1.65 -2.26 7.57 7.57 0 0 1 2.56 -1.42 2.89 2.89 0 0 1 0.81 -0.12 4.24 4.24 0 0 1 0.85 0.12 3.75 3.75 0 0 1 2.36 1.38 5 5 0 0 1 0.87 2.73 7.59 7.59 0 0 1 0 1.17 2.18 2.18 0 0 1 -0.15 0.67A3 3 0 0 1 14.84 19c-1.54 1.06 -4.7 0.72 -6.2 -0.18Z" fill="#4C57E6" stroke-width="1"></path>
    <path d="M14.41 15.93a0.34 0.34 0 0 0 0.43 -0.22 0.35 0.35 0 0 0 -0.23 -0.43 4 4 0 0 0 -0.82 -0.23 9.88 9.88 0 0 0 -1.22 -0.11h-0.45c-0.06 -0.52 -0.16 -1 -0.17 -1.53a0.3 0.3 0 1 0 -0.59 -0.08 7.71 7.71 0 0 0 -0.36 1.73c-0.16 0 -0.33 0 -0.49 0.08a13.38 13.38 0 0 0 -1.92 0.7 0.31 0.31 0 0 0 -0.2 0.39 0.31 0.31 0 0 0 0.38 0.19c0.25 -0.05 0.51 -0.09 0.77 -0.12 0.51 -0.07 1 -0.07 1.52 -0.12l0 0.09c0.07 0.53 0.21 1.05 0.3 1.6a0.34 0.34 0 0 0 0.36 0.32 0.33 0.33 0 0 0 0.32 -0.35c0 -0.54 0.09 -1.07 0.1 -1.61a1.08 1.08 0 0 0 0 -0.18l0.45 -0.05a6.85 6.85 0 0 1 1.1 -0.12 3.21 3.21 0 0 1 0.72 0.05Z" fill="#020202" stroke-width="1"></path>
  </g>
</svg>