<svg xmlns="http://www.w3.org/2000/svg" viewBox="0 0 24 24" id="Bluetooth-Symbol--Streamline-Freehand">
  <desc>
    Bluetooth Symbol Streamline Icon: https://streamlinehq.com
  </desc>
  <path d="M20.1 17a3.35 3.35 0 0 0 -0.62 -0.63c-0.31 -0.25 -0.65 -0.47 -0.94 -0.68l-2.71 -2c-0.92 -0.63 -1.87 -1.25 -2.84 -1.86 0.82 -0.51 1.63 -1 2.43 -1.54S17 9.21 17.8 8.64a7.34 7.34 0 0 0 1.53 -1.4 2.47 2.47 0 0 0 0.56 -1.45 2 2 0 0 0 -0.22 -1 3.85 3.85 0 0 0 -0.75 -1 9.17 9.17 0 0 0 -1.14 -1c-0.9 -0.67 -1.92 -1.26 -2.8 -1.88a5.81 5.81 0 0 0 -1.9 -0.84 2.17 2.17 0 0 0 -1.61 0.18 1.62 1.62 0 0 0 -0.53 1.15 20.19 20.19 0 0 0 0 3.39c0.15 2 0.25 4 0.38 6 -0.39 -0.24 -0.79 -0.47 -1.19 -0.7A58.41 58.41 0 0 0 4.16 7a0.34 0.34 0 1 0 -0.28 0.62 60.4 60.4 0 0 1 5.88 3.11l1.65 1v0.15L7 14.84c-0.54 0.35 -1.06 0.74 -1.6 1.09a7.77 7.77 0 0 1 -1.09 0.61 0.3 0.3 0 0 0 -0.15 0.4 0.3 0.3 0 0 0 0.4 0.15 11 11 0 0 0 1.17 -0.63c0.55 -0.35 1.08 -0.73 1.62 -1.07l4.15 -2.62c0.07 0.82 0.14 1.64 0.23 2.47 0.12 1 0.19 2 0.24 3.09s0.07 2.07 0.08 3.1a6.06 6.06 0 0 0 0.15 1.86 1 1 0 0 0 0.59 0.63 1.87 1.87 0 0 0 1.21 -0.07 5.36 5.36 0 0 0 1.29 -0.77c0.92 -0.71 1.63 -1.24 2.33 -1.85 0.46 -0.41 0.92 -0.85 1.44 -1.4a5 5 0 0 0 1.16 -1.71A1.34 1.34 0 0 0 20.1 17Zm-8 -12.24c0 -0.54 -0.09 -1.3 -0.09 -2l0 -1.57a2.18 2.18 0 0 1 1.12 0.07 4.83 4.83 0 0 1 1.26 0.57c0.76 0.52 1.62 1 2.42 1.56a9 9 0 0 1 1.42 1.14 3.37 3.37 0 0 1 0.52 0.65 1.25 1.25 0 0 1 0.21 0.65 1.56 1.56 0 0 1 -0.36 0.93A6.59 6.59 0 0 1 17.29 8q-1.15 0.8 -2.29 1.59c-0.81 0.55 -1.63 1.08 -2.44 1.62 -0.19 -2.16 -0.3 -4.32 -0.47 -6.5Zm7.06 13.5a5.86 5.86 0 0 1 -0.79 0.94A16.28 16.28 0 0 1 17 20.46c-0.69 0.59 -1.39 1.1 -2.3 1.78a4.42 4.42 0 0 1 -0.86 0.53 1.13 1.13 0 0 1 -0.57 0.15c0 -0.55 -0.1 -1.3 -0.1 -1.49 0 -1.05 0 -2.1 -0.06 -3.16s-0.11 -2.1 -0.22 -3.16c-0.1 -0.85 -0.17 -1.7 -0.24 -2.55 0.92 0.6 1.82 1.22 2.71 1.84l2.65 2c0.28 0.21 0.61 0.42 0.9 0.66a2.23 2.23 0 0 1 0.42 0.45c0.13 0.2 -0.02 0.49 -0.18 0.7Z" fill="#020202" stroke-width="1"></path>
</svg>