<svg xmlns="http://www.w3.org/2000/svg" viewBox="0 0 24 24" id="Board-Game-Chess--Streamline-Freehand">
  <desc>
    Board Game Chess Streamline Icon: https://streamlinehq.com
  </desc>
  <title>board-game-chess</title>
  <g>
    <path d="M15.21 19.26c-0.07 -0.1 -0.14 -0.21 -0.23 -0.32a0.33 0.33 0 0 0 -0.45 -0.06 0.32 0.32 0 0 0 -0.06 0.45l0.26 0.51a1.41 1.41 0 0 1 -0.21 1.29 4.61 4.61 0 0 1 -1.9 1.27 5.69 5.69 0 0 1 -1.8 0.46 13.58 13.58 0 0 1 -2.92 0c-0.49 0 -1 -0.07 -1.48 -0.12a7 7 0 0 1 -0.92 -0.14 2.94 2.94 0 0 1 -1.72 -0.85 1.18 1.18 0 0 1 -0.19 -1.09l0.2 -0.46a2.82 2.82 0 0 1 0.21 -0.39q0.21 -0.25 0.45 -0.51a0.35 0.35 0 0 0 0.07 -0.15 5.74 5.74 0 0 0 3.08 1.51 7.4 7.4 0 0 0 2.3 0 7.92 7.92 0 0 0 1.49 -0.37 5.45 5.45 0 0 0 1.87 -0.92 1.71 1.71 0 0 0 0.46 -0.72 0.31 0.31 0 0 0 0.45 0 0.33 0.33 0 0 0 0 -0.45 5.08 5.08 0 0 0 -0.52 -0.51 3.63 3.63 0 0 1 -0.28 -0.27 1.45 1.45 0 0 1 -0.23 -0.31 6.57 6.57 0 0 1 -0.54 -1.38 1.93 1.93 0 0 1 0 -0.86 18.44 18.44 0 0 1 1 -2.43 5.73 5.73 0 0 0 0.23 -0.7 7.34 7.34 0 0 0 0.21 -2 9.74 9.74 0 0 0 -0.28 -2A7.06 7.06 0 0 0 12.48 5a6.22 6.22 0 0 0 -2.41 -1.81A5.65 5.65 0 0 0 9 2.76a1.07 1.07 0 0 0 -0.69 0.05 0.37 0.37 0 0 0 -0.22 0.29 4.12 4.12 0 0 0 0 0.5l0.08 1.61A4.48 4.48 0 0 0 6.11 6a6.13 6.13 0 0 0 -0.69 0.57 9.86 9.86 0 0 0 -0.85 1 10.53 10.53 0 0 1 -2 2.22 3 3 0 0 0 -0.26 0.81l0.17 0.64a3.35 3.35 0 0 0 0.25 0.62c0.13 0.29 0.28 0.56 0.43 0.84a2 2 0 0 0 0.33 0.44 1.15 1.15 0 0 0 0.44 0.23 2.69 2.69 0 0 0 1 0.07 4.78 4.78 0 0 0 0.94 -0.23 7.41 7.41 0 0 0 -1.13 1.27A4.37 4.37 0 0 0 4 17c0 0.1 0.24 1.81 0.25 1.82a0.25 0.25 0 0 0 -0.14 0.06 6.53 6.53 0 0 0 -0.53 0.52 2.51 2.51 0 0 0 -0.32 0.41l-0.31 0.59a1.89 1.89 0 0 0 0.2 1.77 3.86 3.86 0 0 0 2.13 1.33 7.26 7.26 0 0 0 1 0.22c0.5 0.08 1 0.11 1.51 0.16a13.28 13.28 0 0 0 3.15 0 6.71 6.71 0 0 0 2.06 -0.63 5.62 5.62 0 0 0 2.13 -1.68 2.11 2.11 0 0 0 0.21 -1.93 1.84 1.84 0 0 0 -0.13 -0.38ZM5.1 16.19A5.45 5.45 0 0 1 5.65 15a13.61 13.61 0 0 1 2.13 -2.65 0.38 0.38 0 0 0 0.13 -0.18 0.29 0.29 0 0 0 0 -0.32 0.27 0.27 0 0 0 -0.32 0H7.5l-1.5 0.33a7.67 7.67 0 0 1 -1.11 0.13 2.1 2.1 0 0 1 -0.62 0l-0.2 -0.2c-0.2 -0.23 -0.4 -0.46 -0.58 -0.69a4.35 4.35 0 0 1 -0.32 -0.47l-0.26 -0.55 -0.06 -0.07c-0.06 -0.07 0.08 0 0.11 0a10.72 10.72 0 0 0 2.72 -2.45c0.25 -0.28 0.5 -0.57 0.76 -0.83a5.43 5.43 0 0 1 0.79 -0.73 3.32 3.32 0 0 1 1.23 -0.57c0.25 0 0.28 -0.52 0.28 -0.53l0 -1.63a0.87 0.87 0 0 1 0 -0.14l0.15 0.06c0.29 0.11 0.59 0.32 0.8 0.42a5.37 5.37 0 0 1 0.9 0.59 0.33 0.33 0 0 0 -0.31 0.11 2.69 2.69 0 0 0 -0.4 0.37 0.62 0.62 0 0 0 -0.14 0.18 0.58 0.58 0 0 0 -0.08 0.22c0 0.07 -0.11 0.84 0.12 0.94 0 0 0.18 0.2 0.8 -0.48a0.66 0.66 0 0 0 0.12 -0.17 0.7 0.7 0 0 0 0.06 -0.19c0.05 -0.17 0.05 -0.32 0.1 -0.49a0.37 0.37 0 0 0 0 -0.27 6.19 6.19 0 0 1 0.8 0.89 6.89 6.89 0 0 1 0.4 0.64 1.85 1.85 0 0 0 -0.39 0.15 0.59 0.59 0 0 0 -0.19 0.13 0.76 0.76 0 0 0 -0.13 0.17c0 0.07 -0.33 0.75 -0.15 0.91 0 0 0.13 0.24 0.89 -0.19a0.61 0.61 0 0 0 0.16 -0.12 0.83 0.83 0 0 0 0.11 -0.15 1.39 1.39 0 0 0 0.1 -0.17 6.17 6.17 0 0 1 0.3 1c0.07 0.3 0.13 0.61 0.17 0.91a2.15 2.15 0 0 0 -0.44 -0.09 0.49 0.49 0 0 0 -0.17 0l-0.16 0.07s-0.55 0.48 -0.48 0.7 0.76 0.3 0.78 0.3a0.39 0.39 0 0 0 0.15 0 2.73 2.73 0 0 0 0.39 -0.36l0 0.24a6.68 6.68 0 0 1 -0.12 1.67 1.79 1.79 0 0 0 -0.32 -0.13 0.57 0.57 0 0 0 -0.18 0l-0.17 0s-0.66 0.35 -0.62 0.6 0.69 0.43 0.71 0.43a0.38 0.38 0 0 0 0.15 0 0.48 0.48 0 0 0 0.18 -0.07c-0.21 0.58 -0.48 1.13 -0.68 1.71a6.15 6.15 0 0 0 -0.18 0.71 2.81 2.81 0 0 0 0 1.23 7.81 7.81 0 0 0 0.68 1.52 2 2 0 0 0 0.38 0.47 2.75 2.75 0 0 0 0.26 0.22 0.94 0.94 0 0 1 -0.38 0.65 4.62 4.62 0 0 1 -1.65 0.58 8.79 8.79 0 0 1 -2 0.28 8.59 8.59 0 0 1 -2 -0.1 2.34 2.34 0 0 1 -2 -1.53 2.43 2.43 0 0 1 -0.12 -1 2.91 2.91 0 0 1 0.16 -0.82Z" fill="#020202" fill-rule="evenodd" stroke-width="1"></path>
    <path d="M8.91 8.75a0.33 0.33 0 0 0 0.24 -0.39 0.32 0.32 0 0 0 -0.39 -0.24 3.37 3.37 0 0 0 -0.71 0 1.55 1.55 0 0 0 -0.31 0.07 1 1 0 0 0 -0.28 0.16 2.18 2.18 0 0 0 -0.5 0.58 0.28 0.28 0 0 0 0.34 0.45c0.22 -0.07 0.41 -0.05 0.62 -0.1a1 1 0 0 0 0.22 -0.08c0.27 -0.13 0.48 -0.31 0.77 -0.45Z" fill="#020202" fill-rule="evenodd" stroke-width="1"></path>
    <path d="m21 13.32 -0.09 0a0.33 0.33 0 0 0 0 -0.17 10.49 10.49 0 0 1 -0.83 -2.22c-0.2 -0.72 -0.32 -1.44 -0.45 -2.18 -0.2 -1.1 -0.4 -2.22 -0.53 -3.37l0 -0.07a2.89 2.89 0 0 0 1.18 -1.67A2.82 2.82 0 0 0 19.55 1a3.08 3.08 0 0 0 -0.88 -0.63 4.17 4.17 0 0 0 -1 -0.32 3.16 3.16 0 0 0 -3.2 1.53 2.4 2.4 0 0 0 0.56 3.33 2.22 2.22 0 0 0 0.39 0.23l0.25 0.08a0.26 0.26 0 0 0 -0.05 0.12 14.24 14.24 0 0 0 -0.31 1.41 7.52 7.52 0 0 0 0 0.82 10 10 0 0 1 0 1.23 0.33 0.33 0 0 0 0.23 0.4 0.31 0.31 0 0 0 0.34 -0.2 6.28 6.28 0 0 0 0.44 -1.26 3.31 3.31 0 0 0 0.08 -0.55 3.37 3.37 0 0 0 0 -0.55c0 -0.4 -0.11 -0.78 -0.17 -1.17a2.57 2.57 0 0 0 1.5 0.33 2.21 2.21 0 0 0 0.79 -0.18c0 0.92 0.26 2.37 0.3 3.27a10.66 10.66 0 0 0 1.84 5 2.65 2.65 0 0 1 0.17 1.54 2.14 2.14 0 0 1 -1.2 1.12 4.54 4.54 0 0 1 -1.43 0.38 7 7 0 0 1 -1 0 18.3 18.3 0 0 1 -2.7 -0.39 0.29 0.29 0 0 0 -0.35 0.2 0.28 0.28 0 0 0 0.2 0.35 11.76 11.76 0 0 0 3.35 0.91 4.9 4.9 0 0 0 2.41 -0.52 3.09 3.09 0 0 0 1.52 -1.85 2.81 2.81 0 0 0 -0.63 -2.31ZM18.21 4.9a1.47 1.47 0 0 1 -0.53 0.16 2.84 2.84 0 0 1 -2 -0.48 1.77 1.77 0 0 1 -0.24 -0.17 1.69 1.69 0 0 1 -0.19 -2.34 2.15 2.15 0 0 1 2.2 -1 3.17 3.17 0 0 1 0.72 0.23 1.86 1.86 0 0 1 0.57 0.39 1.84 1.84 0 0 1 0.57 1.68 2.1 2.1 0 0 1 -1.1 1.53Z" fill="#020202" fill-rule="evenodd" stroke-width="1"></path>
    <path d="M18.65 14.15a6.21 6.21 0 0 1 -0.73 0.13 6.13 6.13 0 0 1 -0.74 0.05 4.5 4.5 0 0 1 -1.75 -0.23 0.28 0.28 0 0 0 -0.39 0.11 0.3 0.3 0 0 0 0.12 0.39 4.3 4.3 0 0 0 2 0.76 4.13 4.13 0 0 0 0.93 0 4.32 4.32 0 0 0 0.89 -0.24 4.39 4.39 0 0 0 1.46 -1c0.14 -0.39 0 -0.57 -0.38 -0.58a4.31 4.31 0 0 1 -1.41 0.61Z" fill="#4C57E6" fill-rule="evenodd" stroke-width="1"></path>
  </g>
</svg>