<svg xmlns="http://www.w3.org/2000/svg" viewBox="0 0 24 24" id="Board-Game-Dice-1--Streamline-Freehand">
  <desc>
    Board Game Dice 1 Streamline Icon: https://streamlinehq.com
  </desc>
  <title>board-game-dice-1</title>
  <g>
    <path d="M23 14.74c-0.06 -1.74 -0.1 -3.51 0 -5.26 0 -1.16 0.11 -2.32 0.23 -3.49 0 -0.26 -0.12 -0.16 -0.37 -0.54a0.94 0.94 0 0 0 -0.32 -0.3c-0.2 -0.12 -0.54 -0.23 -0.68 -0.3l-2.44 -1.09c-1.87 -0.87 -3.81 -1.61 -5.64 -2.58C12.26 0.38 11.85 -0.06 11.6 0.07 11.32 0 10.89 0.21 8.27 2 6.7 3 5.14 4.07 3.54 5.07l-1.9 1.16a4.43 4.43 0 0 0 -0.52 0.34 0.71 0.71 0 0 0 -0.2 0.35c-0.16 0.8 -0.1 0.58 0.09 8.28L0.86 18l0 0.67a1.6 1.6 0 0 0 0.06 0.46 1.86 1.86 0 0 0 0.78 0.87 12.33 12.33 0 0 0 1.8 0.84c1.49 0.65 3.06 1.34 4.65 1.92a29.15 29.15 0 0 0 3.24 1c0.35 0.09 0.33 0.35 0.63 0.24 0.8 -0.28 1.58 -0.6 2.34 -0.95 1.13 -0.52 2.24 -1.1 3.36 -1.66 0.88 -0.43 1.78 -0.9 2.66 -1.41a24.11 24.11 0 0 0 2.52 -1.7 0.67 0.67 0 0 0 0.25 -0.42 6.65 6.65 0 0 0 0 -0.79ZM2.25 7.2 4.15 6C6 4.74 7.68 3.34 9.49 2.09c0.68 -0.47 1.38 -0.91 2.09 -1.32q1.3 0.78 2.64 1.5c1.57 0.84 3.15 1.63 4.71 2.47l2.38 1.14a3.78 3.78 0 0 0 0.38 0.1 6.79 6.79 0 0 1 -1 0.69A15.73 15.73 0 0 1 19 7.86c-1 0.55 -2 1.06 -2.9 1.59 -4.64 2.55 -2.94 2.67 -8.94 0.44 -1.06 -0.4 -2.11 -0.83 -3.1 -1.32a10.07 10.07 0 0 1 -1.32 -0.77 3.27 3.27 0 0 1 -0.61 -0.53Zm6.17 14.72c-1.54 -0.65 -3.06 -1.41 -4.5 -2.12 -0.3 -0.14 -0.93 -0.38 -1.44 -0.67 -0.23 -0.13 -0.48 -0.25 -0.48 -0.42L2 18l0.09 -2.76c0 -1.83 -0.18 -3.69 -0.21 -5.54l0 -1.11a10.31 10.31 0 0 0 1.73 1 34 34 0 0 0 3.25 1.21c1.64 0.52 3.32 1 4.93 1.46h0.08a0.31 0.31 0 0 0 0.09 0.07c-0.18 1.27 -0.34 2.53 -0.42 3.81l0 2.66c0 1.26 0 2.94 -0.05 4.24a25.46 25.46 0 0 1 -3.07 -1.12ZM22 17.59c-0.09 0 0 -0.1 0.05 -0.17 -0.05 0.1 -0.05 0.18 -0.05 0.17Zm-0.07 -2.84L22 17c0 0.06 0.06 0.25 0.08 0.39 -0.56 0.43 -1.16 0.84 -1.77 1.24 -1 0.64 -2 1.26 -3 1.81S15.07 21.7 14 22.27c-0.6 0.31 -1.21 0.6 -1.84 0.86 0.14 -1.28 0.35 -3 0.43 -4.22 0 -0.56 0.07 -1.11 0.08 -1.66s0 -1.11 0 -1.66l0 -3.44 3.89 -1.91 2.94 -1.47a16.6 16.6 0 0 0 1.91 -1.21 12.9 12.9 0 0 0 1.11 -1c-0.18 1.24 -0.32 2.49 -0.41 3.73 -0.11 1.5 -0.18 2.97 -0.2 4.46Z" fill="#020202" fill-rule="evenodd" stroke-width="1"></path>
    <path d="M9.36 8a3.87 3.87 0 0 0 0.43 0.27 3.71 3.71 0 0 0 0.46 0.19 3.32 3.32 0 0 0 0.62 0.16 4.34 4.34 0 0 0 0.63 0.07 5.13 5.13 0 0 0 1.58 -0.21 3.67 3.67 0 0 0 1.45 -0.8A1.52 1.52 0 0 0 15 6.05a2.57 2.57 0 0 0 -1.48 -1.55L13 4.35a4 4 0 0 0 -1.89 0.13 4.43 4.43 0 0 0 -2.18 1 1.35 1.35 0 0 0 -0.13 1.94Zm0.44 -2.12a4 4 0 0 1 1.44 -0.75C12.63 5 12 4.84 12.71 5a3.24 3.24 0 0 1 0.52 0.19 1.72 1.72 0 0 1 0.82 0.86 0.62 0.62 0 0 1 -0.19 0.79 2.82 2.82 0 0 1 -1.08 0.5 4.18 4.18 0 0 1 -1.25 0.14 2.59 2.59 0 0 1 -0.47 0 2.28 2.28 0 0 1 -0.45 -0.11L10 7.05l-0.37 -0.29c-0.32 -0.32 -0.12 -0.63 0.17 -0.88Z" fill="#020202" fill-rule="evenodd" stroke-width="1"></path>
    <path d="M3.69 13.57a2.82 2.82 0 0 0 0.22 1 1.29 1.29 0 0 0 1.26 0.8 1.45 1.45 0 0 0 1.18 -0.87A2.48 2.48 0 0 0 6 12.28c-0.35 -0.41 -2.3 -1.36 -2.31 1.29Zm1.65 0.43c-0.07 0.14 -0.15 0.24 -0.26 0.25a0.28 0.28 0 0 1 -0.26 -0.16 1.87 1.87 0 0 1 -0.31 -0.84c-0.09 -0.77 0.65 -0.94 0.88 -0.3A1.35 1.35 0 0 1 5.34 14Z" fill="#4C57E6" fill-rule="evenodd" stroke-width="1"></path>
    <path d="M9.79 16.61a1.41 1.41 0 0 0 -0.74 -0.92c-1.59 -0.56 -1.86 1.08 -1.91 1.31a2.55 2.55 0 0 0 0.1 1.42 1.88 1.88 0 0 0 1 1 1.08 1.08 0 0 0 1.22 -0.34 2 2 0 0 0 0.5 -1 3.07 3.07 0 0 0 -0.17 -1.47Zm-0.88 1.12a1.16 1.16 0 0 1 -0.3 0.64c0 0.05 -0.1 0 -0.14 0a1.28 1.28 0 0 1 -0.31 -0.37c-0.31 -0.54 -0.45 -1.78 0.53 -1.61 0.15 0 0.17 0.21 0.21 0.45a2.36 2.36 0 0 1 0.01 0.89Z" fill="#4C57E6" fill-rule="evenodd" stroke-width="1"></path>
    <path d="M19.79 10.21c-1.06 -0.09 -1.22 0.56 -1.3 0.74a2.46 2.46 0 0 0 -0.14 0.38 3.54 3.54 0 0 0 -0.08 0.45 2 2 0 0 0 0 0.49l0.16 0.57a1 1 0 0 0 0.74 0.56 1.37 1.37 0 0 0 1.08 -0.34 1.78 1.78 0 0 0 0.45 -0.72 2.08 2.08 0 0 0 0.08 -1.13 1.12 1.12 0 0 0 -0.99 -1Zm0 1.29a1.08 1.08 0 0 1 -0.33 0.7 0.45 0.45 0 0 1 -0.14 0.1l-0.13 -0.23a1.29 1.29 0 0 1 -0.08 -0.28 3 3 0 0 1 0 -0.31c0.06 -0.78 0.8 -0.7 0.72 0.02Z" fill="#020202" fill-rule="evenodd" stroke-width="1"></path>
    <path d="m19.36 12.28 0 0.02 0 -0.01 0 -0.01z" fill="#020202" fill-rule="evenodd" stroke-width="1"></path>
    <path d="M16.78 13.46a1.29 1.29 0 0 0 -2.42 -0.18 2 2 0 0 0 -0.13 0.41 1.81 1.81 0 0 0 0 0.4 2.82 2.82 0 0 0 0 0.41 1.42 1.42 0 0 0 0.77 1.11 1.24 1.24 0 0 0 1.45 -0.42 1.89 1.89 0 0 0 0.33 -1.73Zm-1.16 1c-0.08 0.1 -0.16 0.15 -0.23 0.1a0.49 0.49 0 0 1 -0.24 -0.27l-0.15 -0.54c0 -1 0.79 -0.48 0.87 0a0.82 0.82 0 0 1 -0.25 0.69Z" fill="#020202" fill-rule="evenodd" stroke-width="1"></path>
    <path d="M18.51 15.57s-1.63 -0.23 -1.85 1.7a2.24 2.24 0 0 0 0.06 0.72 1.1 1.1 0 0 0 1 0.89 1.4 1.4 0 0 0 1.15 -0.63 2.22 2.22 0 0 0 0.25 -0.42 3.93 3.93 0 0 0 0.18 -0.43 2.22 2.22 0 0 0 0.1 -0.4 1.41 1.41 0 0 0 0 -0.29c-0.09 -0.71 -0.4 -1.06 -0.89 -1.14ZM18.25 17l-0.3 0.58a0.42 0.42 0 0 1 -0.18 0.19s0 0.06 -0.06 0a0.39 0.39 0 0 1 -0.15 -0.14 1.49 1.49 0 0 1 -0.14 -0.54c0 -0.71 0.74 -0.73 0.76 -0.73s0.16 0.15 0.15 0.36Z" fill="#020202" fill-rule="evenodd" stroke-width="1"></path>
  </g>
</svg>