<svg xmlns="http://www.w3.org/2000/svg" viewBox="0 0 24 24" id="Body-Care-Cream--Streamline-Freehand">
  <desc>
    Body Care Cream Streamline Icon: https://streamlinehq.com
  </desc>
  <g>
    <path d="m9.24 4.69 -0.42 0.14c-0.43 0.18 -0.88 0.34 -1.31 0.54a5.16 5.16 0 0 0 -0.9 0.55 6.36 6.36 0 0 0 -1.1 1.16 4.27 4.27 0 0 0 -0.69 1.48 5.42 5.42 0 0 0 -0.1 0.65l0 0.63a1.21 1.21 0 0 0 0.07 0.4 0.66 0.66 0 0 0 0.15 0.23 0.34 0.34 0 0 0 0.49 0 0.35 0.35 0 0 0 0 -0.46l0 -0.17a4.91 4.91 0 0 1 0 -0.55c0 -0.17 0.07 -0.34 0.12 -0.53a3.4 3.4 0 0 1 0.63 -1.15 5.08 5.08 0 0 1 1 -0.92 3.51 3.51 0 0 1 0.72 -0.37c0.43 -0.17 0.88 -0.3 1.31 -0.45 0.16 0 0.42 -0.09 0.63 -0.16a1.18 1.18 0 0 0 0.45 -0.27 0.58 0.58 0 0 0 0.18 -0.33c0 -0.12 0.15 -0.5 0 -0.57a0.8 0.8 0 0 1 0.23 -0.22 2.54 2.54 0 0 1 0.61 -0.32 11.36 11.36 0 0 1 2 -0.22 2.51 2.51 0 0 0 0.69 -0.23 3.29 3.29 0 0 0 0.85 -0.73 4.9 4.9 0 0 0 0.59 -0.89c0.11 -0.24 0 -0.79 0.23 -0.68 0 0 0 0.05 -0.06 0.05a1.46 1.46 0 0 1 1.05 0.28 1.34 1.34 0 0 1 0.57 0.91 5 5 0 0 1 -0.11 0.87 1.29 1.29 0 0 0 0 0.39 0.7 0.7 0 0 0 0.21 0.37 3 3 0 0 0 0.4 0.24l0.59 0.56a2 2 0 0 1 0.34 1 2.79 2.79 0 0 1 -0.11 1.17 3.45 3.45 0 0 0 -0.19 0.47 0.65 0.65 0 0 0 0 0.41 8.74 8.74 0 0 1 0.45 0.84 2.56 2.56 0 0 1 0.14 0.53 0.39 0.39 0 0 0 0.43 0.36 0.41 0.41 0 0 0 0.35 -0.43 3.09 3.09 0 0 0 -0.16 -0.75c-0.1 -0.26 -0.22 -0.49 -0.35 -0.75 0.08 -0.05 0.1 -0.31 0.12 -0.35a3.71 3.71 0 0 0 0.25 -1.57 3.19 3.19 0 0 0 -0.46 -1.58 4.66 4.66 0 0 0 -0.37 -0.46 4.11 4.11 0 0 0 -0.46 -0.4l-0.13 -0.12c0 -0.2 0.13 -0.4 0.16 -0.6a1.61 1.61 0 0 0 0 -0.38 2.5 2.5 0 0 0 -1 -1.77 2.77 2.77 0 0 0 -2 -0.58 1.22 1.22 0 0 0 -0.73 0.33c-0.25 0.23 -0.29 0.63 -0.48 1a2.66 2.66 0 0 1 -0.41 0.62 2.13 2.13 0 0 1 -0.51 0.44c-0.55 0.33 -1.25 0.15 -1.88 0.26a2.38 2.38 0 0 0 -0.68 0.19 3.49 3.49 0 0 0 -1 0.62 2 2 0 0 0 -0.48 0.75 1.92 1.92 0 0 0 0.08 0.52Z" fill="#020202" fill-rule="evenodd" stroke-width="1"></path>
    <path d="M12.39 5.84a4.86 4.86 0 0 0 1.66 0.68 2.9 2.9 0 0 0 0.93 0 4.06 4.06 0 0 0 0.88 -0.27l1.06 -0.58a0.39 0.39 0 0 0 0.23 -0.51 0.39 0.39 0 0 0 -0.5 -0.23l-1.1 0.23a5.49 5.49 0 0 1 -1 0.06l-0.49 0 -0.51 0a5.85 5.85 0 0 1 -0.92 -0.09 0.34 0.34 0 0 0 -0.44 0.2 0.34 0.34 0 0 0 0.2 0.51Z" fill="#020202" fill-rule="evenodd" stroke-width="1"></path>
    <path d="M2.73 12.74Zm0 0Zm0 0Zm0 0Zm0.5 0.07 0 0.11a0.39 0.39 0 0 0 -0.07 -0.07Zm0.06 0.11s0 -0.07 -0.06 -0.11a1.17 1.17 0 0 0 0 -0.15l0.13 -0.83a1.25 1.25 0 0 1 0.5 -0.72 3.21 3.21 0 0 1 0.94 -0.43 10.74 10.74 0 0 1 2.85 -0.46c1.49 -0.07 3 0 4.52 0.06H17a12.68 12.68 0 0 1 1.46 0.07 2.15 2.15 0 0 1 0.79 0.23 2.5 2.5 0 0 1 0.82 0.69 3 3 0 0 1 0.45 1l0.18 0.8 0.09 0.33a0.38 0.38 0 0 0 0.35 0.28 0.37 0.37 0 0 0 0.42 -0.39 0.59 0.59 0 0 0 0 -0.13c0.07 0 -0.05 -0.23 -0.07 -0.29l-0.13 -0.8a4.42 4.42 0 0 0 -0.5 -1.34 3.71 3.71 0 0 0 -1.06 -1 3.29 3.29 0 0 0 -1.14 -0.42 10.63 10.63 0 0 0 -1.58 -0.18c-0.84 -0.04 -1.67 -0.13 -2.49 -0.13l-2.45 0c-1.55 0 -3.09 -0.07 -4.61 0.09a10.89 10.89 0 0 0 -3.09 0.74 3.59 3.59 0 0 0 -1.35 0.86 2 2 0 0 0 -0.53 1l-0.08 1a2.2 2.2 0 0 0 0.06 0.5 0.37 0.37 0 0 0 0.26 0.21 0.35 0.35 0 0 0 0.37 -0.16 0.38 0.38 0 0 0 0.05 -0.24Z" fill="#020202" fill-rule="evenodd" stroke-width="1"></path>
    <path d="m1.25 13.81 -0.09 2.23a7.87 7.87 0 0 0 0.19 3.15 3.72 3.72 0 0 0 1.72 2.34 5.92 5.92 0 0 0 1.63 0.59c0.88 0.19 1.79 0.25 2.73 0.36a42.11 42.11 0 0 0 5 0.27c1.67 0 3.33 -0.11 5 -0.26a8.21 8.21 0 0 0 3.32 -0.79 2.47 2.47 0 0 0 1.2 -1.5 8.62 8.62 0 0 0 0.19 -0.91c0.07 -0.49 0.11 -1 0.16 -1.47a14.6 14.6 0 0 0 0.11 -1.82 6.57 6.57 0 0 0 -0.15 -1.18l-0.1 -0.43c-0.26 0.15 -1 -0.16 -1.23 -0.19 -0.82 -0.11 -1.65 -0.17 -2.48 -0.21 -1.27 0 -2.54 0 -3.81 -0.07Zm0 -0.79a0.37 0.37 0 0 0 -0.25 -0.1 0.36 0.36 0 0 0 -0.29 0.13 0.38 0.38 0 0 0 -0.2 0.34 0.39 0.39 0 0 0 0.06 0.21l0 0.11L0.4 16a8.27 8.27 0 0 0 0.34 4.17 4.38 4.38 0 0 0 1.86 2.21 7 7 0 0 0 1.86 0.74 28.11 28.11 0 0 0 2.82 0.46 37.34 37.34 0 0 0 5.14 0.41c1.71 0 3.41 0 5.14 -0.17a9.55 9.55 0 0 0 3.87 -0.95 3.78 3.78 0 0 0 1.81 -2.29 7.24 7.24 0 0 0 0.22 -1.07c0.08 -0.52 0.12 -1 0.17 -1.54a15.65 15.65 0 0 0 0.08 -2.07 8.47 8.47 0 0 0 -0.2 -1.44c-0.07 -0.24 -0.11 -0.5 -0.19 -0.72a1.36 1.36 0 0 0 -0.3 -0.46 1.12 1.12 0 0 0 -0.63 -0.29c-0.41 -0.07 -1.09 0 -1.31 -0.06 -0.86 -0.1 -1.72 -0.15 -2.59 -0.17l-3.85 0Z" fill="#020202" fill-rule="evenodd" stroke-width="1"></path>
    <path d="m18.56 16.43 0 -0.14c0 0.01 -0.05 0.08 0 0.14Zm0 0a1.83 1.83 0 0 0 -0.28 -0.1 3.84 3.84 0 0 0 -0.64 -0.1L15 16c-0.88 -0.07 -1.76 -0.17 -2.64 -0.22a14.13 14.13 0 0 0 -1.72 0l-3.11 0.15 -1.9 0a0.42 0.42 0 0 1 0 0.22c0 0.33 -0.09 1.14 -0.09 1.31l0 1.38a3.61 3.61 0 0 0 0.11 0.82c0 0.09 0.05 0.29 0.07 0.38a2.59 2.59 0 0 0 0.83 0.2c0.81 0.09 1.66 0 2.51 0s1.82 0.06 2.73 0c1.38 0 2.75 -0.12 4.12 -0.26a8.08 8.08 0 0 0 1.1 -0.15 4.43 4.43 0 0 0 1 -0.3c0.2 -0.09 0.82 -0.08 0.67 -0.26v-1.09l0 -1.51a1.15 1.15 0 0 1 -0.12 -0.22Zm-13.48 -0.65a0.42 0.42 0 0 0 -0.22 0.32c-0.06 0.35 -0.15 1.23 -0.16 1.41 0 0.51 -0.07 1.09 -0.06 1.64a4 4 0 0 0 0.09 0.77 3.71 3.71 0 0 0 0.08 0.54 0.73 0.73 0 0 0 0.35 0.4 3.55 3.55 0 0 0 1.17 0.37c0.82 0.13 1.7 0 2.55 0.13a34.92 34.92 0 0 0 3.53 0.18c1.17 0 2.34 -0.07 3.52 -0.15a10.83 10.83 0 0 0 1.5 -0.21 6.27 6.27 0 0 0 1 -0.33 3.78 3.78 0 0 0 1 -0.47 1.27 1.27 0 0 0 0.41 -0.71 2.32 2.32 0 0 0 0.05 -0.53l0 -1 -0.08 -1.67a3 3 0 0 0 0 -0.51 0.82 0.82 0 0 0 -0.21 -0.39 2.05 2.05 0 0 0 -0.8 -0.44 5.34 5.34 0 0 0 -1 -0.15l-2.8 -0.13c-0.88 0 -1.77 -0.1 -2.66 -0.12l-1.83 0 -3.09 0.27c-0.68 0 -1.36 0.09 -2 0.1a0.38 0.38 0 0 0 -0.39 0.39 0.41 0.41 0 0 0 0.05 0.29Z" fill="#4C57E6" fill-rule="evenodd" stroke-width="1"></path>
  </g>
</svg>