<svg xmlns="http://www.w3.org/2000/svg" viewBox="0 0 24 24" id="Body-Care-Sun-Lotion--Streamline-Freehand">
  <desc>
    Body Care Sun Lotion Streamline Icon: https://streamlinehq.com
  </desc>
  <g>
    <path d="m3.29 14 0 0.09 0 -0.07Zm6.72 4c0.05 0 0.08 0 0.07 -0.06s-0.08 -0.04 -0.08 0Zm-6.62 -0.1c0 0.07 0 0.13 0.06 0.11s-0.03 -0.14 -0.06 -0.17ZM3.3 14c0.11 0 0 0.06 0 0.1l0 0.18 0 1.07c0.06 0.52 0 1 0 1.57a2.79 2.79 0 0 0 0.07 0.58 2.73 2.73 0 0 1 0 0.36 1 1 0 0 0 0.47 0.18 3.16 3.16 0 0 0 0.66 0.07l1 0c0.79 0 1.56 -0.06 2.36 -0.08l1.14 0a6.21 6.21 0 0 0 0.73 -0.07l0.27 0a1.7 1.7 0 0 0 0.18 -0.58 4.92 4.92 0 0 0 0 -1.15l0 -1.63 0 -0.33L3.46 14a0.41 0.41 0 0 1 -0.16 0Zm-0.17 -0.39a0.29 0.29 0 0 0 -0.42 0.2 2.28 2.28 0 0 0 0 0.47l0 1.13c0 0.5 0 1 -0.06 1.52a4.4 4.4 0 0 0 0.05 0.73l0 0.47a0.64 0.64 0 0 0 0.16 0.33 1.81 1.81 0 0 0 0.69 0.41 4.57 4.57 0 0 0 1 0.19c0.47 0.05 0.93 0.08 1.39 0.09l2 0 1.2 0c0.4 0 0.55 0 0.83 -0.07a2.58 2.58 0 0 0 0.68 -0.15 0.89 0.89 0 0 0 0.4 -0.37 2.68 2.68 0 0 0 0.34 -1 6 6 0 0 0 0 -1.41l-0.08 -1.53a3.8 3.8 0 0 0 0 -0.58 1 1 0 0 0 -0.09 -0.29 0.78 0.78 0 0 0 -0.34 -0.33 1.58 1.58 0 0 0 -0.52 -0.13l-6.82 0.07a0.34 0.34 0 0 0 -0.41 0.23Z" fill="#020202" fill-rule="evenodd" stroke-width="1"></path>
    <path d="M7.94 6.09C7.93 6 7.9 6 7.86 6Zm0 0.09a1.44 1.44 0 0 0 0 0.24l0.31 1a4.67 4.67 0 0 0 0.12 0.47 0.59 0.59 0 0 0 0.14 0.21 0.33 0.33 0 0 0 0.48 0 0.33 0.33 0 0 0 0 -0.44c0.1 0 0 -0.29 0 -0.38l-0.1 -1.04c0 -0.14 0 -0.35 -0.05 -0.53a0.94 0.94 0 0 0 -0.22 -0.39 0.71 0.71 0 0 0 -0.31 -0.19A2.41 2.41 0 0 0 8 5.06L7.12 5l-1 0a1.28 1.28 0 0 0 -0.83 0.49A4.6 4.6 0 0 0 4.81 7l-0.2 0.74a0.31 0.31 0 0 0 0.22 0.37 0.3 0.3 0 0 0 0.36 -0.22l0.29 -0.6c0.15 -0.26 0.27 -0.6 0.45 -0.89a0.44 0.44 0 0 1 0.38 -0.26H7l0.81 0.06Z" fill="#020202" fill-rule="evenodd" stroke-width="1"></path>
    <path d="M2 7.93a2.39 2.39 0 0 0 -0.48 0.28 1 1 0 0 0 -0.3 0.36 9.93 9.93 0 0 0 -0.7 2.52A27.69 27.69 0 0 0 0.29 15l0 2.17 0 1.48c0 0.48 0 1.27 0.11 1.89a6.73 6.73 0 0 0 0.27 1.32 4.06 4.06 0 0 0 0.29 0.69 2 2 0 0 0 0.38 0.47 3.31 3.31 0 0 0 1.14 0.64 7.43 7.43 0 0 0 1.76 0.28 30.77 30.77 0 0 0 3.82 0.06 13.93 13.93 0 0 0 2.6 -0.38 2.77 2.77 0 0 0 1.59 -1.08 4.76 4.76 0 0 0 0.83 -2.54c0 -0.84 0.09 -1.69 0.11 -2.53l0 -1.72 -0.27 -3.36a14.25 14.25 0 0 0 -0.23 -2.5 2.77 2.77 0 0 0 -1 -1.63 3.54 3.54 0 0 0 -1.57 -0.67 11.65 11.65 0 0 0 -2.37 -0.09l-2.62 0c-0.6 0 -1.22 0 -1.78 0.11a0.34 0.34 0 0 0 0.07 0.68c0.54 0 1.14 -0.07 1.72 -0.07 1.27 0 2.43 0.06 2.63 0.06A10.62 10.62 0 0 1 10 8.4a2.88 2.88 0 0 1 1.2 0.53 2 2 0 0 1 0.6 1.15 13.07 13.07 0 0 1 0.15 2.35l0.19 3.36 0 1.63c0 0.84 -0.1 1.68 -0.15 2.51a3.93 3.93 0 0 1 -0.44 1.63 1.8 1.8 0 0 1 -1.13 0.92 13.37 13.37 0 0 1 -2.42 0.35 32.73 32.73 0 0 1 -3.71 0 6.32 6.32 0 0 1 -1.51 -0.21 2 2 0 0 1 -0.78 -0.4 0.93 0.93 0 0 1 -0.21 -0.27c-0.07 -0.14 -0.13 -0.29 -0.18 -0.42a5.51 5.51 0 0 1 -0.26 -1.12c-0.08 -0.6 -0.11 -1.21 -0.16 -1.83 0 -0.47 -0.06 -0.95 -0.07 -1.42l0 -2.17a26.21 26.21 0 0 1 0.12 -3.76 9.22 9.22 0 0 1 0.56 -2.42 0.49 0.49 0 0 1 0.2 -0.16 2.23 2.23 0 0 1 0.32 -0.19 0.3 0.3 0 0 0 0.13 -0.4 0.29 0.29 0 0 0 -0.45 -0.13Z" fill="#020202" fill-rule="evenodd" stroke-width="1"></path>
    <path d="M1 4.61a0.4 0.4 0 0 1 0 0.15 0.28 0.28 0 0 0 0 0.2c0 0.1 0.09 0.19 0.16 0.2s0.27 -0.13 0.41 -0.25a4.17 4.17 0 0 0 0.42 -0.52c0.24 -0.38 0.41 -0.73 0.6 -1a4.21 4.21 0 0 1 0.35 -0.48 1.14 1.14 0 0 1 0.54 -0.34 6.28 6.28 0 0 1 1 -0.15l1.44 -0.07 3.43 -0.25a5.21 5.21 0 0 0 1 -0.13c0.14 0 0.28 -0.1 0.31 -0.27l0 -0.18 -0.11 -0.28c-0.06 -0.07 -0.18 -0.05 -0.29 -0.06 -0.4 0 -0.85 0.06 -1.14 0L8 1.09l-0.82 0c-0.81 0.06 -1.74 0 -2.63 0.1a3.62 3.62 0 0 0 -1.55 0.5 4 4 0 0 0 -1 0.93 12.4 12.4 0 0 0 -1 1.89 0.27 0.27 0 0 1 0 0.1Zm-0.48 -0.3a0.33 0.33 0 0 0 -0.17 0.16 1 1 0 0 0 0 0.86 0.93 0.93 0 0 0 0.74 0.55 1.28 1.28 0 0 0 0.79 -0.3 3.27 3.27 0 0 0 0.71 -0.75c0.27 -0.36 0.45 -0.71 0.66 -1a2.53 2.53 0 0 1 0.28 -0.35 0.39 0.39 0 0 1 0.25 -0.1c0.27 0 0.57 0 0.8 -0.06H6c0.81 -0.05 1.61 0 2.42 -0.06 0.35 0 0.71 0 1.07 -0.07a3.75 3.75 0 0 0 1.71 -0.42 1.32 1.32 0 0 0 0.56 -0.89 1.09 1.09 0 0 0 0 -0.36 1.49 1.49 0 0 0 -0.1 -0.44c0 -0.13 -0.1 -0.27 -0.16 -0.39a1.38 1.38 0 0 0 -0.17 -0.25 1.43 1.43 0 0 0 -0.89 -0.44C10 0 9.42 0.08 9.08 0.06L8 0l-0.94 0.08c-0.82 0.1 -1.77 0.09 -2.66 0.25A4.27 4.27 0 0 0 2.59 1a4.35 4.35 0 0 0 -1.08 1.22 12.9 12.9 0 0 0 -1 2s-0.02 0.07 -0.02 0.09Z" fill="#020202" fill-rule="evenodd" stroke-width="1"></path>
    <path d="M12.85 6.07A2.5 2.5 0 0 1 14 5.56a4.31 4.31 0 0 1 1.35 -0.06 3.43 3.43 0 0 1 2.74 2.05 3.76 3.76 0 0 1 0 3.44 3.21 3.21 0 0 1 -1.48 1.28 4.24 4.24 0 0 1 -2 0.42 0.34 0.34 0 0 0 -0.37 0.31 0.35 0.35 0 0 0 0.31 0.37A5.06 5.06 0 0 0 17 13a4.2 4.2 0 0 0 2 -1.53 4.65 4.65 0 0 0 0.17 -4.46 4.27 4.27 0 0 0 -3.71 -2.41 5.21 5.21 0 0 0 -1.89 0.4 3.08 3.08 0 0 0 -1.13 0.68 0.29 0.29 0 0 0 0 0.42 0.3 0.3 0 0 0 0.41 -0.03Z" fill="#4C57E6" fill-rule="evenodd" stroke-width="1"></path>
    <path d="M14.82 3.43Zm0 -2.56c-0.1 0 -0.08 0.34 -0.08 0.34 0 0.15 -0.07 0.28 -0.09 0.44a2 2 0 0 0 0 0.43c0 0.29 0.08 0.57 0.11 0.87 0 0.09 0.09 0.38 0.11 0.5 0.16 0.63 0.73 0.28 0.69 0V3.4c0.09 0 0.05 -0.34 0.07 -0.41a6.93 6.93 0 0 0 0.16 -0.91 3.55 3.55 0 0 0 0 -0.46 3.33 3.33 0 0 0 -0.13 -0.45 3.44 3.44 0 0 0 -0.13 -0.43c-0.12 -0.26 -0.29 -0.32 -0.35 -0.31s-0.4 0 -0.33 0.35Z" fill="#4C57E6" fill-rule="evenodd" stroke-width="1"></path>
    <path d="M22.15 3.83a0.3 0.3 0 0 0 0.05 -0.58c-0.09 0 -0.23 0 -0.4 0.06a5.68 5.68 0 0 0 -0.52 0.32c-0.15 0.1 -0.32 0.17 -0.48 0.27a3.73 3.73 0 0 0 -0.46 0.35 5.17 5.17 0 0 0 -0.81 1 0.34 0.34 0 0 0 0.48 0.48c0.36 -0.26 0.8 -0.4 1.19 -0.66a2.39 2.39 0 0 0 0.46 -0.38 2.85 2.85 0 0 0 0.25 -0.33c0.05 -0.07 0.39 -0.34 0.26 -0.46Z" fill="#4C57E6" fill-rule="evenodd" stroke-width="1"></path>
    <path d="M23.12 9.56Zm-1.75 0.33h0.08a4.62 4.62 0 0 0 0.65 0 1.49 1.49 0 0 0 0.36 0c0.18 0 0.34 -0.1 0.52 -0.13s0.25 0 0.26 -0.07a0.41 0.41 0 0 0 0.18 0.05 0.34 0.34 0 0 0 0.34 -0.34c0 -0.18 -0.09 -0.29 -0.22 -0.39a1.36 1.36 0 0 0 -0.54 -0.13 3.92 3.92 0 0 0 -0.84 -0.08 1.58 1.58 0 0 0 -0.38 0c-0.13 0 -0.24 0.08 -0.37 0.12a0.48 0.48 0 0 0 -0.21 0.07l-0.09 0s-0.2 0 -0.2 0.06a0.32 0.32 0 0 0 -0.19 0c-0.27 0.08 -0.37 0.4 0.12 0.58l0.27 0.06 0.12 0a0.33 0.33 0 0 0 0.14 0.2Z" fill="#4C57E6" fill-rule="evenodd" stroke-width="1"></path>
    <path d="m19 14 0.05 0Zm0 0.25a0.61 0.61 0 0 0 0.43 0.54l0.16 0.15a1.73 1.73 0 0 0 0.28 0.19c0.14 0.09 0.29 0.14 0.43 0.22s0.29 0.28 0.37 0.18a0.34 0.34 0 0 0 0.66 -0.12 0.52 0.52 0 0 0 -0.12 -0.33 4.51 4.51 0 0 0 -0.32 -0.42 4.34 4.34 0 0 0 -0.51 -0.54 1.85 1.85 0 0 0 -0.27 -0.19 2.49 2.49 0 0 0 -0.28 -0.15c-0.09 -0.05 -0.57 -0.42 -0.63 -0.29a0.3 0.3 0 0 0 -0.11 -0.06c-0.11 -0.06 -0.56 0.15 -0.27 0.56Z" fill="#4C57E6" fill-rule="evenodd" stroke-width="1"></path>
    <path d="M15.5 17.63a0.33 0.33 0 0 0 -0.17 0 0.19 0.19 0 0 1 0.17 0Zm0.15 0.18 0 -0.06 0.11 -0.5a3 3 0 0 0 0 -0.6 3.18 3.18 0 0 0 -0.24 -0.53s0 -0.19 -0.09 -0.18a0.27 0.27 0 0 0 0 -0.23 0.29 0.29 0 0 0 -0.39 -0.15c-0.08 0 -0.12 0.1 -0.19 0.22a1.24 1.24 0 0 0 -0.11 0.42 2.34 2.34 0 0 0 -0.09 0.59c0 0.17 0.08 0.34 0.1 0.51l0.16 0.46a1.92 1.92 0 0 0 0.14 0.36c0.26 0.23 0.43 0.2 0.54 0.05a0.35 0.35 0 0 0 0.09 -0.25 0.25 0.25 0 0 0 -0.03 -0.11Z" fill="#4C57E6" fill-rule="evenodd" stroke-width="1"></path>
    <path d="M6.65 3.58a0.49 0.49 0 0 1 0 -0.12s-0.06 0.07 0 0.08Zm0.75 1.34a1.76 1.76 0 0 0 0.08 -0.37 1.63 1.63 0 0 0 0 -0.38 5.56 5.56 0 0 0 -0.22 -0.77 0.09 0.09 0 0 1 0 0.1 0.83 0.83 0 0 0 0 -0.25c0 -0.07 -0.07 -0.1 -0.09 -0.12s-0.25 -0.07 -0.37 -0.06 -0.13 0.08 -0.21 0.33a5.56 5.56 0 0 0 -0.22 0.77 1.34 1.34 0 0 0 0 0.4c0 0.14 0.09 0.26 0.11 0.4 0.06 0.42 0.57 1.25 0.92 -0.05Z" fill="#020202" fill-rule="evenodd" stroke-width="1"></path>
  </g>
</svg>