<svg xmlns="http://www.w3.org/2000/svg" viewBox="0 0 24 24" id="Bomb-Tear-Gas--Streamline-Freehand">
  <desc>
    Bomb Tear Gas Streamline Icon: https://streamlinehq.com
  </desc>
  <title>bomb-tear-gas</title>
  <g>
    <path d="M23.56 12.26a0.31 0.31 0 0 0 -0.45 0c-0.51 0.42 -1 0.91 -1.52 1.34l-0.07 0.05a5.08 5.08 0 0 0 -0.45 -1.75 2.56 2.56 0 0 0 -0.85 -1 2.23 2.23 0 0 0 -1.42 -0.34l0.15 -0.12c0.42 -0.32 0.88 -0.58 1.3 -0.86a1 1 0 0 1 1.35 0.12 2.81 2.81 0 0 1 0.89 1.56 0.32 0.32 0 0 0 0.63 -0.05 3.47 3.47 0 0 0 -1.35 -2.42 1.81 1.81 0 0 0 -2.07 0c-0.45 0.27 -0.94 0.53 -1.38 0.85a3.59 3.59 0 0 0 -0.87 0.87 11.71 11.71 0 0 0 -0.65 1.44 1.64 1.64 0 0 1 -0.27 0.46 4.17 4.17 0 0 1 -0.34 0.38c-0.45 0.43 -1 0.81 -1.4 1.26 0 0 -0.09 -0.08 -0.15 -0.08a4.48 4.48 0 0 0 -2.45 0.28 6.94 6.94 0 0 0 -1.59 0.89 14.3 14.3 0 0 0 -1.32 1.15c-0.33 0.33 -0.64 0.66 -0.95 1a8.72 8.72 0 0 0 -0.84 1.13s0 0 -0.17 0.28a2.9 2.9 0 0 0 -0.46 2.17 3.79 3.79 0 0 0 1.43 2.3 3.76 3.76 0 0 0 2.6 0.87s0.86 0.14 4 -2.34A4.28 4.28 0 0 0 16 20.41a4 4 0 0 0 0.4 -1.15c0.13 -0.7 0.13 -1.44 0.2 -2.13a11.14 11.14 0 0 1 1.34 -1.2 2.39 2.39 0 0 1 1.18 -0.64c0.41 -0.09 1 0.09 1.41 0a1.49 1.49 0 0 0 0.52 -0.15 4.59 4.59 0 0 0 0.91 -0.68c0.59 -0.54 1.08 -1.21 1.62 -1.78a0.33 0.33 0 0 0 -0.02 -0.42ZM12 21a4.29 4.29 0 0 1 -0.21 1 0.3 0.3 0 0 0 -0.28 -0.23 2.53 2.53 0 0 1 -1.94 -1.24 2.28 2.28 0 0 1 -0.28 -0.59 1.92 1.92 0 0 1 0.17 -1.57 0.29 0.29 0 0 0 0.16 0 2.18 2.18 0 0 1 1.81 0.74A2.47 2.47 0 0 1 12 21Zm-1.21 2a2.81 2.81 0 0 1 -1.88 -0.63 3 3 0 0 1 -1.21 -1.64A2.12 2.12 0 0 1 7.9 19a1.49 1.49 0 0 1 0.77 -0.6 2.38 2.38 0 0 0 -0.36 1.65 2.26 2.26 0 0 0 0.37 1 2.66 2.66 0 0 0 0.7 0.72 3.25 3.25 0 0 0 2.14 0.57 0.33 0.33 0 0 0 0.16 -0.07s0 0.05 0 0.07a1 1 0 0 1 -0.88 0.59Zm3 -1.76c-0.35 0.29 -0.7 0.59 -1 0.9a5.38 5.38 0 0 0 0.15 -1.14 3.32 3.32 0 0 0 -0.94 -2.44 3.29 3.29 0 0 0 -3.13 -0.78c0.34 -0.28 0.68 -0.56 1 -0.82s0.88 -0.7 1.33 -1l0.61 -0.46a3.08 3.08 0 0 1 1.42 0.48 4.91 4.91 0 0 1 0.75 0.63 4.65 4.65 0 0 1 0.62 0.77 3.3 3.3 0 0 1 0.57 2.2 2.8 2.8 0 0 1 -0.15 0.3 5.54 5.54 0 0 1 -1.18 1.29Zm6.72 -6.94a0.87 0.87 0 0 1 -0.46 0l-0.74 0a1.86 1.86 0 0 0 -0.48 0 3.28 3.28 0 0 0 -1.3 0.82c-1.02 1.03 -1.53 1.47 -1.53 1.5 -0.08 0.29 -0.15 0.6 -0.21 0.92a3.79 3.79 0 0 0 -0.28 -0.7 4 4 0 0 0 -0.72 -1 3.89 3.89 0 0 0 -1 -0.76 4 4 0 0 0 -0.73 -0.26 3.51 3.51 0 0 1 1.41 -0.27c0.28 0.07 0.41 0.2 2.25 -1.2a4.25 4.25 0 0 0 0.46 -0.4 2.49 2.49 0 0 0 0.47 -0.61c0.2 -0.35 0.36 -0.74 0.57 -1.08a1.9 1.9 0 0 1 1.39 0.48 3.32 3.32 0 0 1 0.6 0.68 6.42 6.42 0 0 1 0.71 1.38 0.31 0.31 0 0 0 0.14 0.2 4.52 4.52 0 0 1 -0.5 0.23Z" fill="#020202" fill-rule="evenodd" stroke-width="1"></path>
    <path d="M5.6 15.91a4.37 4.37 0 0 1 -0.7 -0.61A6.82 6.82 0 0 1 3.13 10a0.69 0.69 0 0 0 0 -0.13 12.12 12.12 0 0 1 1.22 -0.07 0.32 0.32 0 0 0 0.36 -0.26 0.32 0.32 0 0 0 -0.26 -0.37 9.66 9.66 0 0 0 -1.16 -0.26 8.63 8.63 0 0 1 2.2 -4.13 6.71 6.71 0 0 1 4 -2.05A9.22 9.22 0 0 1 9.78 4a0.32 0.32 0 0 0 0.63 0.05 7.09 7.09 0 0 0 0.13 -1.38A7.58 7.58 0 0 1 15.6 4.4 6 6 0 0 1 17 6.1a9.66 9.66 0 0 1 0.81 2.08 0.33 0.33 0 0 0 0.39 0.23 0.31 0.31 0 0 0 0.17 -0.41 10.74 10.74 0 0 0 -0.8 -2.25 6.58 6.58 0 0 0 -1.44 -2 8.44 8.44 0 0 0 -5.72 -2.16l0 -0.14c-0.14 -0.38 -0.31 -0.77 -0.41 -1.19A0.28 0.28 0 0 0 9.71 0a0.29 0.29 0 0 0 -0.27 0.29 9.86 9.86 0 0 0 0 1.44 7.69 7.69 0 0 0 -4.73 2.33 9.57 9.57 0 0 0 -2.35 4.75l-0.43 0a12.66 12.66 0 0 0 -1.32 0.32 0.28 0.28 0 1 0 0.05 0.55c0.51 0 1 0.13 1.51 0.15h0.06a7.56 7.56 0 0 0 2.23 5.86 4.5 4.5 0 0 0 0.82 0.65 8.45 8.45 0 0 0 0.89 0.49 0.28 0.28 0 0 0 0.38 -0.13 0.26 0.26 0 0 0 -0.13 -0.36 7.9 7.9 0 0 1 -0.82 -0.43Z" fill="#4C57E6" fill-rule="evenodd" stroke-width="1"></path>
    <path d="M6.38 10.12a5.83 5.83 0 0 0 3.62 3 4 4 0 0 0 2 0 4.31 4.31 0 0 0 2.39 -1.76 5.14 5.14 0 0 0 0.46 -0.78 4 4 0 0 0 0.3 -0.86 6.19 6.19 0 0 0 -1.34 -2.51A4.53 4.53 0 0 0 12.05 6a4 4 0 0 0 -2.92 0.27 5.83 5.83 0 0 0 -2.75 3.07 5.06 5.06 0 0 0 0 0.78Zm2.71 -2.55a5.48 5.48 0 0 1 1.05 -0.42 2.93 2.93 0 0 1 1.58 0 3.46 3.46 0 0 1 1.46 0.78 5.32 5.32 0 0 1 1.11 1.4 0.33 0.33 0 0 0 0.26 0.18l-0.05 0.06a3.55 3.55 0 0 1 -0.32 0.68 4.35 4.35 0 0 1 -0.46 0.6 3.48 3.48 0 0 1 -2 1.16 3.61 3.61 0 0 1 -1.5 0A5.2 5.2 0 0 1 6.93 9.8c-0.12 -0.2 0 0 0 -0.21a5.12 5.12 0 0 1 2.16 -2.02Z" fill="#020202" fill-rule="evenodd" stroke-width="1"></path>
    <path d="M10.66 11.24a1.67 1.67 0 0 0 1.67 -1.45A1.65 1.65 0 0 0 11.26 8a0.36 0.36 0 1 0 -0.31 0.65 0.84 0.84 0 0 1 0.41 0.93 0.64 0.64 0 0 1 -0.72 0.42c-0.5 0 -0.72 -0.25 -0.71 -0.6a1.5 1.5 0 0 1 0.77 -1.29 0.32 0.32 0 1 0 -0.2 -0.6 2.28 2.28 0 0 0 -1.63 2.38c0.13 0.74 0.64 1.34 1.79 1.35Z" fill="#020202" fill-rule="evenodd" stroke-width="1"></path>
  </g>
</svg>