<svg xmlns="http://www.w3.org/2000/svg" viewBox="0 0 24 24" id="Bomb-Grenade--Streamline-Freehand">
  <desc>
    Bomb Grenade Streamline Icon: https://streamlinehq.com
  </desc>
  <title>bomb-grenade</title>
  <g>
    <path d="M20.48 7.44a1.33 1.33 0 0 0 -0.35 -0.59c-0.35 -0.38 -1 -0.62 -1.35 -1a2.3 2.3 0 0 1 -0.34 -0.66 10.66 10.66 0 0 0 -0.69 -2.09 0.81 0.81 0 0 0 -0.31 -0.3 3.16 3.16 0 0 0 -0.73 -0.19 3.17 3.17 0 0 1 -0.5 -0.15 11.94 11.94 0 0 0 -1.37 -0.57 6.27 6.27 0 0 0 -1.51 -0.28 1.19 1.19 0 0 0 -0.85 0.27 6.34 6.34 0 0 0 -0.88 1.1c-0.13 0.2 -0.25 0.41 -0.37 0.63l-0.05 -0.06a3.82 3.82 0 0 0 -0.45 -0.45 0.79 0.79 0 0 0 -0.23 -0.14 0.73 0.73 0 0 0 -0.25 -0.08h-0.17a2.23 2.23 0 0 0 -0.26 -1.48C8.52 -1 4.28 0 5.76 2.89A2.76 2.76 0 0 0 7 4.08a2.37 2.37 0 0 0 1.75 0.15 2.15 2.15 0 0 0 1 -0.62 1 1 0 0 0 0.18 0.17l0.2 0.11 0.23 0.07c0.2 0 0.38 0 0.58 0.1H11c-0.29 0.55 -0.56 1.1 -0.83 1.59a0.29 0.29 0 0 0 -0.14 0.13 0.27 0.27 0 0 0 0.14 0.37l0.83 0.46a0.29 0.29 0 0 0 -0.18 0.11 2.57 2.57 0 0 1 -0.49 0.38 3.29 3.29 0 0 1 -0.42 0.21l-0.42 0.22a7.48 7.48 0 0 1 -1.37 0.64 0.32 0.32 0 0 0 -0.26 0.37 0.32 0.32 0 0 0 0.37 0.26 5.88 5.88 0 0 0 1.27 -0.14 2.74 2.74 0 0 0 0.5 -0.2 1.83 1.83 0 0 0 0.48 -0.32A3.07 3.07 0 0 0 11.26 7a0.3 0.3 0 0 0 0 -0.26c0.71 0.4 1.42 0.79 2.15 1.17s1.34 0.65 2 1l0.29 0.12 -0.05 0.05a4 4 0 0 0 -0.56 1.05 1.64 1.64 0 0 0 -0.08 0.54 2.16 2.16 0 0 0 0.08 0.56 3 3 0 0 0 0.64 1.07 0.31 0.31 0 0 0 0.53 -0.34 3.14 3.14 0 0 1 -0.18 -0.8l0 -0.34 0 -0.52a7.58 7.58 0 0 1 0.08 -1c0.77 0.35 1.54 0.69 2.3 1a0.32 0.32 0 1 0 0.3 -0.56c-0.92 -0.58 -1.85 -1.15 -2.83 -1.68 -0.41 -0.23 -0.82 -0.45 -1.24 -0.65s-0.85 -0.4 -1.28 -0.59c-0.9 -0.38 -1.82 -0.7 -2.72 -1 0.4 -0.66 0.78 -1.4 1.23 -2.09A6.27 6.27 0 0 1 13 2.42c0.14 -0.12 0.39 0 0.65 0s0.73 0.22 0.92 0.28a13 13 0 0 1 1.25 0.59c1.7 0.81 0.58 -0.8 1.6 2.2a3.4 3.4 0 0 0 0.5 1 7.58 7.58 0 0 0 1.32 1 0.58 0.58 0 0 1 0.21 0.26 3.79 3.79 0 0 1 0.11 1.43 19 19 0 0 1 -0.47 2.34 33.12 33.12 0 0 1 -1 3.91 8.89 8.89 0 0 1 -1.22 2.32 0.31 0.31 0 0 0 0.05 0.44 0.33 0.33 0 0 0 0.45 -0.05 10 10 0 0 0 1.42 -2.44 33.63 33.63 0 0 0 1.23 -4 15.52 15.52 0 0 0 0.59 -2.46 4.69 4.69 0 0 0 -0.13 -1.8ZM8.41 3.2a1.46 1.46 0 0 1 -1.2 -0.2 2.16 2.16 0 0 1 -0.67 -0.6C5.3 0.53 8.2 -0.07 9 1.74a1 1 0 0 1 -0.59 1.46Z" fill="#020202" fill-rule="evenodd" stroke-width="1"></path>
    <path d="m8 13.94 -0.69 1.16c-0.23 0.41 -0.45 0.83 -0.66 1.25a9.64 9.64 0 0 1 -1.2 -0.74 0.29 0.29 0 0 0 -0.4 0 0.3 0.3 0 0 0 0 0.4 15.68 15.68 0 0 0 1.23 1 12.1 12.1 0 0 0 -0.44 1.24 9.28 9.28 0 0 0 -0.38 2.62c0.09 0.46 0.52 0.46 0.64 0.3a8.91 8.91 0 0 1 0.41 -2 12.52 12.52 0 0 1 0.65 -1.56c0.29 0.18 0.58 0.35 0.89 0.51a15.71 15.71 0 0 0 2 0.86l-0.2 0.44c-0.3 0.63 -0.57 1.29 -0.89 1.93a6.59 6.59 0 0 1 -0.44 0.72c-0.17 0.28 0.15 0.53 0.53 0.36a8 8 0 0 0 0.56 -0.71c0.39 -0.61 0.73 -1.25 1.08 -1.86 0.11 -0.19 0.21 -0.38 0.31 -0.57 0.67 0.21 1.33 0.4 2 0.58 0.35 -0.07 0.43 -0.28 0.25 -0.61 -0.58 -0.24 -1.17 -0.5 -1.78 -0.77l0.06 -0.11c0.36 -0.72 0.69 -1.46 1 -2.22l1.55 0.73a0.32 0.32 0 0 0 0.3 -0.56l-1.58 -1c0.36 -1 0.66 -2.09 0.94 -3.16 0.2 0.09 0.4 0.16 0.6 0.26 0.54 0.3 0.83 0.44 1.35 0.72 0.34 0 0.54 -0.06 0.32 -0.57 -0.57 -0.4 -0.9 -0.68 -1.51 -1.08a9.09 9.09 0 0 0 -0.9 -0.52c-0.69 -0.29 -1.37 -0.59 -2.07 -0.86s-1.39 -0.46 -2.06 -0.76A8.88 8.88 0 0 1 8.5 9a0.29 0.29 0 0 0 -0.31 0.48A16.53 16.53 0 0 0 10.63 11c0.42 0.21 0.86 0.4 1.29 0.58l1.29 0.5c-0.29 0.75 -0.59 1.48 -0.91 2.21 -0.1 0.23 -0.21 0.46 -0.32 0.7l-0.46 -0.29 -1.24 -0.7c-0.32 -0.17 -0.64 -0.33 -1 -0.48 0.06 -0.12 0.12 -0.25 0.19 -0.36a18.37 18.37 0 0 1 0.95 -1.58 0.31 0.31 0 0 0 -0.06 -0.44 0.32 0.32 0 0 0 -0.44 0.06c-0.41 0.5 -0.78 1 -1.14 1.54l-0.27 0.43c-0.81 -0.35 -1.64 -0.67 -2.46 -1 -0.34 0.07 -0.51 0.21 -0.27 0.52 0.77 0.4 1.5 0.83 2.22 1.25Zm0.81 0.46 1 0.52 1.27 0.64 0.55 0.25 -0.25 0.54 -0.72 1.58c0 0.07 -0.07 0.14 -0.1 0.22L10 17.9c-0.45 -0.2 -0.91 -0.4 -1.35 -0.61s-0.61 -0.26 -0.9 -0.4l-0.13 -0.06c0.2 -0.41 0.4 -0.83 0.62 -1.22Z" fill="#4C57E6" fill-rule="evenodd" stroke-width="1"></path>
    <path d="M17 12.39a0.27 0.27 0 0 0 -0.36 0.15c-1.49 3 -1.53 3.1 -1.6 3.25 -0.22 0.48 -0.43 0.95 -0.64 1.43 -1.65 4.27 -2 4.44 -2.13 4.62a4.05 4.05 0 0 1 -2.57 1.47s0 0 -0.06 0a2.58 2.58 0 0 1 -0.41 -0.2c-0.11 -0.07 -2.09 -0.83 -2.52 -1 -0.69 -0.27 -1.25 -0.53 -1.25 -0.53a12.86 12.86 0 0 1 -0.83 -2.25 8.25 8.25 0 0 1 -0.28 -1.71A9.36 9.36 0 0 1 5 14a28.07 28.07 0 0 1 2.54 -5.27 0.3 0.3 0 0 0 -0.07 -0.39 0.28 0.28 0 0 0 -0.39 0.08A21.86 21.86 0 0 0 4 13.58a9.44 9.44 0 0 0 -0.62 4.08 9.36 9.36 0 0 0 0.45 1.88A18 18 0 0 0 5 22.09c0.14 0.29 0.71 0.4 1.55 0.67 0.43 0.14 0.84 0.35 1.25 0.53s0.73 0.32 1.12 0.45c0.65 0.22 0.47 0.25 0.64 0.24A4.67 4.67 0 0 0 13 22.43a8.39 8.39 0 0 0 1.49 -2.35c0.37 -0.83 0.64 -1.7 0.94 -2.49s0.56 -1.62 0.85 -2.42 0.62 -1.6 0.93 -2.4a0.29 0.29 0 0 0 -0.21 -0.38Z" fill="#020202" fill-rule="evenodd" stroke-width="1"></path>
  </g>
</svg>