<svg xmlns="http://www.w3.org/2000/svg" viewBox="0 0 24 24" id="Bomb-Pin-Point-Rocket--Streamline-Freehand">
  <desc>
    Bomb Pin Point Rocket Streamline Icon: https://streamlinehq.com
  </desc>
  <title>bomb-pin-point-rocket</title>
  <g>
    <path d="M12.35 11.24c-0.62 -0.49 -1.25 -1 -1.92 -1.4 -0.27 -0.18 -0.54 -0.35 -0.83 -0.51a9.13 9.13 0 0 0 -0.89 -0.43 4.45 4.45 0 0 0 -0.52 -0.2 0.61 0.61 0 0 0 -0.54 0.09 30.77 30.77 0 0 0 -2.77 2.44c-1.3 1.3 -2.49 2.67 -3.72 4a0.31 0.31 0 0 0 0 0.42 0.31 0.31 0 0 0 0.42 0l0.57 -0.54 0 3.75c0 0.66 0 1.31 0.11 2 0 0.4 0 1.09 0.07 1.64a2 2 0 0 0 0.35 0.88 1.56 1.56 0 0 0 0.78 0.49 4 4 0 0 0 1.11 0.13l1 0L8 23.87c0.9 0 1.81 -0.05 2.71 -0.09 0.61 0 1.22 -0.07 1.83 -0.13 0.35 0 0.84 0 1.26 -0.11a1.79 1.79 0 0 0 1.54 -1.41 7.89 7.89 0 0 0 0.19 -1.78c0.06 -1.08 0.07 -2.18 0.05 -3.28 0 -0.82 -0.08 -1.63 -0.13 -2.45 0.27 0.19 0.53 0.39 0.81 0.57a0.32 0.32 0 0 0 0.46 -0.08 0.33 0.33 0 0 0 -0.08 -0.47c-1.49 -1.1 -2.85 -2.29 -4.29 -3.4Zm-4.42 11.5 -1.2 0.06c0 -0.41 -0.09 -0.83 -0.11 -1.25l0 -1.73a9.78 9.78 0 0 1 0 -1.42 2.71 2.71 0 0 1 0.22 -0.8 2.08 2.08 0 0 1 1.86 -1.25 2 2 0 0 1 1.93 1.08 2.86 2.86 0 0 1 0.27 0.74 9.67 9.67 0 0 1 0.18 1.3l0.2 3.13Zm6.82 -5.67c0 1.08 -0.06 2.15 -0.17 3.21a6.63 6.63 0 0 1 -0.22 1.55 1 1 0 0 1 -0.42 0.59 1.17 1.17 0 0 1 -0.48 0.1l-1.06 0H12v-3.1a8.79 8.79 0 0 0 -0.1 -1.44 3.56 3.56 0 0 0 -0.3 -1 3.07 3.07 0 0 0 -2.91 -1.76 3.16 3.16 0 0 0 -2.78 2 3.5 3.5 0 0 0 -0.23 1.13 11.49 11.49 0 0 0 0.07 1.56c0 0.58 0.12 1.17 0.19 1.75 0.06 0.41 0.13 0.81 0.2 1.21l-1.51 0.08a4.23 4.23 0 0 1 -0.7 0 0.63 0.63 0 0 1 -0.39 -0.16 1.25 1.25 0 0 1 -0.2 -0.6c-0.07 -0.49 -0.06 -1 -0.11 -1.38 -0.13 -0.7 -0.23 -1.33 -0.23 -1.96 -0.1 -1.43 -0.13 -2.86 -0.25 -4.28 0.93 -0.88 1.86 -1.76 2.82 -2.61a18.74 18.74 0 0 1 2.71 -2c0.27 0.11 0.54 0.24 0.79 0.37s0.53 0.3 0.78 0.46c0.66 0.4 1.3 0.82 1.93 1.26 1 0.68 2 1.39 2.94 2.09 0.02 0.96 0.05 1.95 0.03 2.93Z" fill="#020202" fill-rule="evenodd" stroke-width="1"></path>
    <path d="M18.53 2.28c0.26 -0.14 0.51 -0.23 0.76 -0.39l0.28 -0.22a2.85 2.85 0 0 0 0.23 -0.26c0.18 -0.23 0.32 -0.46 0.48 -0.7a0.34 0.34 0 0 0 0 -0.48 0.33 0.33 0 0 0 -0.47 0c-0.26 0.14 -0.51 0.25 -0.75 0.41a1.54 1.54 0 0 0 -0.29 0.21 2.16 2.16 0 0 0 -0.25 0.27 6.09 6.09 0 0 0 -0.43 0.75 0.29 0.29 0 0 0 0 0.42 0.31 0.31 0 0 0 0.44 -0.01Z" fill="#4C57E6" fill-rule="evenodd" stroke-width="1"></path>
    <path d="M19.64 2.67a0.29 0.29 0 0 0 0 0.42 0.29 0.29 0 0 0 0.41 0c0.36 -0.26 0.73 -0.48 1.08 -0.75a4.71 4.71 0 0 0 0.43 -0.34l0.37 -0.39c0.29 -0.33 0.55 -0.66 0.85 -1a0.33 0.33 0 0 0 0 -0.47 0.34 0.34 0 0 0 -0.47 -0.06c-0.39 0.23 -0.77 0.45 -1.14 0.72a4.94 4.94 0 0 0 -0.44 0.36 3.78 3.78 0 0 0 -0.39 0.41 11.38 11.38 0 0 0 -0.7 1.1Z" fill="#4C57E6" fill-rule="evenodd" stroke-width="1"></path>
    <path d="M22.86 2.65a0.34 0.34 0 0 0 -0.47 -0.08 5.77 5.77 0 0 0 -0.76 0.35 1.87 1.87 0 0 0 -0.29 0.2 1.36 1.36 0 0 0 -0.24 0.24c-0.17 0.24 -0.27 0.47 -0.41 0.71a0.31 0.31 0 0 0 0 0.43 0.3 0.3 0 0 0 0.42 0c0.25 -0.12 0.49 -0.2 0.74 -0.34l0.26 -0.2a1.7 1.7 0 0 0 0.22 -0.24c0.18 -0.2 0.3 -0.41 0.47 -0.61a0.33 0.33 0 0 0 0.06 -0.46Z" fill="#4C57E6" fill-rule="evenodd" stroke-width="1"></path>
    <path d="M21 6.88a5.63 5.63 0 0 0 -0.5 -0.58l-0.82 -0.86a0.35 0.35 0 0 0 -0.48 0 0.31 0.31 0 0 0 -0.08 0.29 33.07 33.07 0 0 1 -2.4 2.34 3.79 3.79 0 0 1 -1.85 0.81L14 9l0.12 -0.84a4.74 4.74 0 0 1 0.7 -2 13.62 13.62 0 0 1 2.25 -2.53 0.31 0.31 0 0 0 0.3 -0.12 0.34 0.34 0 0 0 -0.06 -0.51c-0.28 -0.25 -0.53 -0.54 -0.83 -0.79A3.52 3.52 0 0 0 16 1.9a2.42 2.42 0 0 0 -0.74 -0.18 0.69 0.69 0 0 0 -0.53 0.25 1 1 0 0 0 -0.13 0.25 2.45 2.45 0 0 0 -0.06 0.34 5 5 0 0 0 -0.07 0.52 3.39 3.39 0 0 0 0 0.55l0.15 1.29a6.86 6.86 0 0 0 -0.56 0.65 5.77 5.77 0 0 0 -1 2.32c0 0.22 -0.16 0.7 -0.2 1.1a1.55 1.55 0 0 0 0.1 0.73 0.67 0.67 0 0 0 0.44 0.37 2.43 2.43 0 0 0 0.53 0l1.12 -0.09a4.68 4.68 0 0 0 2.27 -1.18 6.25 6.25 0 0 0 0.57 -0.58 0.28 0.28 0 0 0 0.24 0.11l2.06 0.19a5.34 5.34 0 0 0 0.62 0 0.67 0.67 0 0 0 0.43 -0.23 0.65 0.65 0 0 0 0.14 -0.35 1.51 1.51 0 0 0 -0.09 -0.54 2.22 2.22 0 0 0 -0.29 -0.54Zm-5.39 -4a2 2 0 0 1 0.48 0.18l0.41 0.25c-0.43 0.33 -0.85 0.66 -1.24 1l0.11 -0.59Zm2.74 4.8c0.37 -0.45 0.74 -0.9 1.11 -1.33l0.31 0.49c0.09 0.16 0.19 0.33 0.28 0.51l0 0.06Z" fill="#020202" fill-rule="evenodd" stroke-width="1"></path>
  </g>
</svg>