<svg xmlns="http://www.w3.org/2000/svg" viewBox="0 0 24 24" id="Book-Image--Streamline-Freehand">
  <desc>
    Book Image Streamline Icon: https://streamlinehq.com
  </desc>
  <g>
    <path d="M17.6 8.84c-2.33 0.2 -7.34 -0.74 -8.29 2.5a29.89 29.89 0 0 0 -0.52 6.53c0.42 2.16 5.13 0.45 7.88 0.17a8.24 8.24 0 0 0 1.65 -0.28c1.41 -0.51 1 -1.57 0.93 -3.75a17.87 17.87 0 0 0 -0.11 -3.7c-0.31 -1.28 -1.3 -1.18 -1.3 -0.68a0.35 0.35 0 0 0 0.34 0.35c0.07 0 0.1 0.06 0.14 0.13a8 8 0 0 1 0.14 2.9 3.21 3.21 0 0 0 -2.25 -0.12 3.08 3.08 0 0 0 -1.68 1.16c-0.9 -0.93 -2 -1.32 -3 -0.54A8.26 8.26 0 0 0 10 15.42c0 -0.95 0 -3.94 0.6 -4.54a4.4 4.4 0 0 1 2.72 -1.17 3 3 0 0 0 -0.24 0.51c-0.9 2.61 2.24 3.31 3.46 1.12a1.85 1.85 0 0 0 0 -1.81c0.39 0 0.76 0 1.1 -0.08a0.31 0.31 0 0 0 -0.04 -0.61ZM10 16.58c0.39 -0.11 0.89 -1.35 2.13 -2.14a0.87 0.87 0 0 1 0.79 -0.14c1.7 0.64 2 2.33 2.39 2.63a0.35 0.35 0 0 0 0.47 -0.52 13.19 13.19 0 0 0 -0.69 -1.61 3.82 3.82 0 0 1 3.32 -0.94c-0.09 3.77 0.68 2.76 -2.9 3.26 -0.95 0.13 -4.91 0.95 -5.56 0.56a4.44 4.44 0 0 0 0.05 -1.1ZM15.85 10c0.19 0.67 -0.88 1.66 -1.76 1.32 -0.25 -0.08 -0.21 -0.85 -0.12 -1.13s1.64 -1.08 1.88 -0.19Z" fill="#020202" fill-rule="evenodd" stroke-width="1"></path>
    <path d="M22.37 5.67a0.29 0.29 0 0 0 -0.31 -0.29 0.33 0.33 0 0 0 -0.34 0.31c0 14.3 0.05 12.58 -0.14 13.5 -0.13 0.67 -2.48 0.91 -3.32 1.19A72.07 72.07 0 0 1 10 22.44c-2.28 0.48 -4.81 0.77 -7.14 -0.38a1.6 1.6 0 0 1 -0.28 -0.77C2 18.27 2.44 9 2.69 6.93A0.34 0.34 0 0 0 2 6.84C1.7 9.05 0.94 18.9 1.66 21.83A1.73 1.73 0 0 0 2.35 23a9.67 9.67 0 0 0 5.09 1 60.12 60.12 0 0 0 11.19 -2.55 28.77 28.77 0 0 0 2.82 -0.83c1.07 -0.51 1.21 -1.12 1.19 -2.26 -0.02 -0.74 -0.1 1.7 -0.27 -12.69Z" fill="#020202" fill-rule="evenodd" stroke-width="1"></path>
    <path d="M17.82 2.12c-3.9 0.07 -11.94 1.29 -11.47 2.11 0.11 0.23 0.05 0.19 3.7 -0.18 3.4 -0.35 6.75 -1.17 7.8 -1.24a0.35 0.35 0 0 0 -0.03 -0.69Z" fill="#4C57E6" fill-rule="evenodd" stroke-width="1"></path>
    <g>
      <path d="M6.8 8.16c-0.11 -1.29 -0.67 -0.72 -0.72 0 -0.16 1.42 -0.39 3.62 -0.44 4.22a60.32 60.32 0 0 0 -0.19 6.35c0.1 3.55 0.11 3.69 0.45 3.79s0.6 0 0.5 -3.78c0.06 -1.3 0.23 -3.21 0.32 -5.39 0.01 -0.43 0.06 -3.42 0.08 -5.19Z" fill="#020202" fill-rule="evenodd" stroke-width="1"></path>
      <path d="M21.78 4.12c-1 -0.24 -3.71 0.25 -5 0.35 -3.34 0.24 -7 1 -10.32 1.29 -0.78 0.08 -2.9 -0.56 -3 -1.14C3.18 2 13.71 0.52 17.06 0.83c1.22 0.11 1.67 1.25 3.15 2.68a0.3 0.3 0 1 0 0.43 -0.43c-1 -1 -1.48 -1.84 -2.1 -2.37C17.67 0 16.86 0 14.92 0 11.8 0 5.88 0.59 3.46 2.54c-1.46 1.2 -1.62 2.91 0.42 3.8 3.18 1.38 5.27 -0.25 13 -1 1.2 -0.12 3.93 -0.68 4.74 -0.5a0.34 0.34 0 0 0 0.16 -0.72Z" fill="#4C57E6" fill-rule="evenodd" stroke-width="1"></path>
    </g>
  </g>
</svg>