<svg xmlns="http://www.w3.org/2000/svg" viewBox="0 0 24 24" id="Book-Phonebook-1--Streamline-Freehand">
  <desc>
    Book Phonebook 1 Streamline Icon: https://streamlinehq.com
  </desc>
  <g>
    <path d="M17.22 12.19c-0.59 0.3 -1.29 -0.26 -1.81 -0.69 -0.76 -0.61 -2 -1 -0.83 0.13a9.77 9.77 0 0 0 1.53 1.15c1.75 0.93 3.19 -1.47 2.53 -2.93a5.24 5.24 0 0 0 -3.25 -2.23c-2.32 -0.55 -4 2.14 -5.17 4.25 -0.86 1.62 -1.15 2.91 -0.17 4.52a5.1 5.1 0 0 0 1.25 1.49c0.66 0.49 2.34 1.32 3.19 0.89a2.91 2.91 0 0 0 0.95 -1.13 1.8 1.8 0 0 0 0.34 -1.56c-0.72 -1.93 -1.26 -1 -2.15 -1.71 -0.08 -0.06 -0.17 -0.12 -0.18 -0.2a3.34 3.34 0 0 1 1 -2.12 0.34 0.34 0 0 0 -0.48 -0.49c-0.79 0.76 -1.78 2.49 -0.9 3.34a2.66 2.66 0 0 0 1.44 0.64c0.24 0.11 0.39 0.59 0.47 0.84s-0.16 0.57 -0.28 0.75c-0.52 0.76 -0.46 1 -1.4 0.61a3.66 3.66 0 0 1 -2.3 -1.93c-0.74 -1.23 -0.44 -2.15 0.23 -3.4a14.75 14.75 0 0 1 1.32 -2.15c0.67 -0.91 1.47 -1.87 2.61 -1.65a4.44 4.44 0 0 1 2.68 1.61 1.71 1.71 0 0 1 -0.62 1.97Z" fill="#020202" fill-rule="evenodd" stroke-width="1"></path>
    <path d="M22.37 5.67a0.29 0.29 0 0 0 -0.31 -0.29 0.33 0.33 0 0 0 -0.34 0.31c0 14.3 0.05 12.58 -0.14 13.5 -0.13 0.67 -2.48 0.91 -3.32 1.19A72.07 72.07 0 0 1 10 22.44c-2.28 0.48 -4.81 0.77 -7.14 -0.38a1.6 1.6 0 0 1 -0.28 -0.77C2 18.27 2.44 9 2.69 6.93A0.34 0.34 0 0 0 2 6.84C1.7 9.05 0.94 18.9 1.66 21.83A1.73 1.73 0 0 0 2.35 23a9.67 9.67 0 0 0 5.09 1 60.12 60.12 0 0 0 11.19 -2.55 28.77 28.77 0 0 0 2.82 -0.83c1.07 -0.51 1.21 -1.12 1.19 -2.26 -0.02 -0.74 -0.1 1.7 -0.27 -12.69Z" fill="#020202" fill-rule="evenodd" stroke-width="1"></path>
    <path d="M17.82 2.12c-3.9 0.07 -11.94 1.29 -11.47 2.11 0.11 0.23 0.05 0.19 3.7 -0.18 3.4 -0.35 6.75 -1.17 7.8 -1.24a0.35 0.35 0 0 0 -0.03 -0.69Z" fill="#4C57E6" fill-rule="evenodd" stroke-width="1"></path>
    <g>
      <path d="M7.1 8.16c-0.1 -1.29 -0.67 -0.72 -0.72 0 -0.15 1.42 -0.39 3.62 -0.44 4.22a60.32 60.32 0 0 0 -0.19 6.35c0.11 3.55 0.11 3.69 0.45 3.79s0.61 0 0.5 -3.78c0.06 -1.3 0.24 -3.21 0.32 -5.39 -0.02 -0.43 0.07 -3.42 0.08 -5.19Z" fill="#020202" fill-rule="evenodd" stroke-width="1"></path>
      <path d="M22.09 4.12c-1 -0.24 -3.72 0.25 -5 0.35 -3.34 0.24 -7 1 -10.31 1.29 -0.79 0.08 -2.91 -0.56 -3 -1.14C3.48 2 14 0.52 17.37 0.83c1.21 0.11 1.63 1.25 3.15 2.68a0.3 0.3 0 1 0 0.42 -0.43c-1 -1 -1.48 -1.84 -2.09 -2.37C18 0 17.17 0 15.22 0 12.1 0 6.18 0.59 3.76 2.54c-1.48 1.2 -1.62 2.91 0.43 3.8 3.17 1.38 5.27 -0.25 13 -1 1.19 -0.12 3.92 -0.68 4.73 -0.5a0.34 0.34 0 0 0 0.17 -0.72Z" fill="#4C57E6" fill-rule="evenodd" stroke-width="1"></path>
    </g>
  </g>
</svg>