<svg xmlns="http://www.w3.org/2000/svg" viewBox="0 0 24 24" id="Book-Location-Pin--Streamline-Freehand">
  <desc>
    Book Location Pin Streamline Icon: https://streamlinehq.com
  </desc>
  <g>
    <path d="M8.55 18.18a1.49 1.49 0 0 0 0.6 1.82c2.22 1.35 6.74 -0.32 8.85 -1.89s0.51 -3.09 -1.57 -2.73c-0.5 0.08 -0.46 0.71 0 0.71a2.16 2.16 0 0 1 1.54 0.31c0.63 0.52 -1.27 1.34 -1.71 1.55 -1.59 0.82 -4.64 1.81 -6.43 1.26a0.61 0.61 0 0 1 -0.35 -0.17 0.76 0.76 0 0 1 0 -0.82A2.08 2.08 0 0 1 11.35 17c0.21 -0.31 -0.2 -0.66 -0.8 -0.56a3.3 3.3 0 0 0 -2 1.74Z" fill="#020202" fill-rule="evenodd" stroke-width="1"></path>
    <path d="M14.66 16.86c0.42 -0.27 3 -4.59 1.9 -7.44s-5.62 -2.8 -6.31 0.2a7.72 7.72 0 0 0 1.18 5.14c0.28 0.43 0.61 0.82 0.88 1.26s0.59 0.9 1 0.95a0.34 0.34 0 0 0 0.38 -0.48c-0.19 -0.48 0 0.71 -1.62 -2.14a6.83 6.83 0 0 1 -0.76 -4.46c0.64 -2.35 6.57 -2.21 3.79 4.68 -0.77 1.91 -1.34 1.88 -1 2.26a0.38 0.38 0 0 0 0.56 0.03Z" fill="#020202" fill-rule="evenodd" stroke-width="1"></path>
    <path d="M14.21 10.77c-0.45 -0.88 -1.76 -0.34 -1.58 0.67a0.82 0.82 0 0 0 1.31 0.36 1 1 0 0 0 0.27 -1.03Z" fill="#020202" fill-rule="evenodd" stroke-width="1"></path>
    <path d="M22.37 5.67a0.29 0.29 0 0 0 -0.31 -0.29 0.33 0.33 0 0 0 -0.34 0.31c0 14.3 0.05 12.58 -0.14 13.5 -0.13 0.67 -2.48 0.91 -3.32 1.19A72.07 72.07 0 0 1 10 22.44c-2.28 0.48 -4.81 0.77 -7.14 -0.38a1.6 1.6 0 0 1 -0.28 -0.77C2 18.27 2.44 9 2.69 6.93A0.34 0.34 0 0 0 2 6.84C1.7 9.05 0.94 18.9 1.66 21.83A1.73 1.73 0 0 0 2.35 23a9.67 9.67 0 0 0 5.09 1 60.12 60.12 0 0 0 11.19 -2.55 28.77 28.77 0 0 0 2.82 -0.83c1.07 -0.51 1.21 -1.12 1.19 -2.26 -0.02 -0.74 -0.1 1.7 -0.27 -12.69Z" fill="#020202" fill-rule="evenodd" stroke-width="1"></path>
    <path d="M17.82 2.12c-3.9 0.07 -11.94 1.29 -11.47 2.11 0.11 0.23 0.05 0.19 3.7 -0.18 3.4 -0.35 6.75 -1.17 7.8 -1.24a0.35 0.35 0 0 0 -0.03 -0.69Z" fill="#4C57E6" fill-rule="evenodd" stroke-width="1"></path>
    <g>
      <path d="M6.8 8.16c-0.11 -1.29 -0.67 -0.72 -0.72 0 -0.16 1.42 -0.39 3.62 -0.44 4.22a60.32 60.32 0 0 0 -0.19 6.35c0.1 3.55 0.11 3.69 0.45 3.79s0.6 0 0.5 -3.78c0.06 -1.3 0.23 -3.21 0.32 -5.39 0.01 -0.43 0.06 -3.42 0.08 -5.19Z" fill="#020202" fill-rule="evenodd" stroke-width="1"></path>
      <path d="M21.78 4.12c-1 -0.24 -3.71 0.25 -5 0.35 -3.34 0.24 -7 1 -10.32 1.29 -0.78 0.08 -2.9 -0.56 -3 -1.14C3.18 2 13.71 0.52 17.06 0.83c1.22 0.11 1.67 1.25 3.15 2.68a0.3 0.3 0 1 0 0.43 -0.43c-1 -1 -1.48 -1.84 -2.1 -2.37C17.67 0 16.86 0 14.92 0 11.8 0 5.88 0.59 3.46 2.54c-1.46 1.2 -1.62 2.91 0.42 3.8 3.18 1.38 5.27 -0.25 13 -1 1.2 -0.12 3.93 -0.68 4.74 -0.5a0.34 0.34 0 0 0 0.16 -0.72Z" fill="#4C57E6" fill-rule="evenodd" stroke-width="1"></path>
    </g>
  </g>
</svg>