<svg xmlns="http://www.w3.org/2000/svg" viewBox="0 0 24 24" id="Bread-Free--Streamline-Freehand">
  <desc>
    Bread Free Streamline Icon: https://streamlinehq.com
  </desc>
  <g>
    <path d="M18.66 8.83a0.34 0.34 0 0 0 -0.22 0.43 2.6 2.6 0 0 1 -0.27 1.8A2.38 2.38 0 0 1 17 12.3a5.44 5.44 0 0 1 -0.61 0.19 4.34 4.34 0 0 1 -0.59 0.11 1.93 1.93 0 0 0 -0.56 0.13 0.66 0.66 0 0 0 -0.3 0.38 1.15 1.15 0 0 0 0 0.38c0 0.25 0.11 0.59 0.12 0.78l0.24 3.26a5.34 5.34 0 0 1 0 0.79 0.79 0.79 0 0 1 -0.08 0.32s-0.48 0.09 -0.66 0.1l-1.78 0 -1.17 0 -2.62 -0.18a0.32 0.32 0 0 0 -0.34 0.27 0.3 0.3 0 0 0 0.28 0.33l2.6 0.38c0.51 0.07 1 0.12 1.52 0.15s1 0.06 1.51 0.08a3.2 3.2 0 0 0 1 -0.11 1 1 0 0 0 0.56 -0.4 1.71 1.71 0 0 0 0.29 -0.78 6.25 6.25 0 0 0 0 -0.95c0 -0.46 0 -0.92 -0.06 -1.37 -0.06 -0.67 -0.15 -1.33 -0.21 -2l-0.14 -0.55 0.51 -0.12c0.28 -0.09 0.56 -0.2 0.82 -0.31a3.28 3.28 0 0 0 1.61 -1.79 3.38 3.38 0 0 0 0.19 -2.34 0.35 0.35 0 0 0 -0.47 -0.22Z" fill="#020202" stroke-width="1"></path>
    <path d="M5.68 12a3.07 3.07 0 0 0 1.15 0.94l0.83 0.28a4 4 0 0 0 -0.33 0.64 1.59 1.59 0 0 0 -0.09 0.33 2.07 2.07 0 0 0 0 0.35l0 0.82a0.36 0.36 0 0 0 0.26 0.42 0.34 0.34 0 0 0 0.41 -0.26 7.05 7.05 0 0 0 0.37 -0.77 1.93 1.93 0 0 0 0.11 -0.34 2 2 0 0 0 0 -0.35l0 -0.85a0.77 0.77 0 0 0 -0.55 -0.64l-0.74 -0.29a2.36 2.36 0 0 1 -0.81 -0.76 2.45 2.45 0 0 1 -0.39 -1 4.69 4.69 0 0 1 0.12 -1.73 2.42 2.42 0 0 1 0.76 -1.35 3.24 3.24 0 0 1 0.82 -0.49 11.24 11.24 0 0 1 1.53 -0.48A10.58 10.58 0 0 1 12.7 6a8.52 8.52 0 0 1 3.41 0.91 0.31 0.31 0 0 0 0.31 -0.53 9.22 9.22 0 0 0 -3.63 -1.28 11.21 11.21 0 0 0 -3.88 0.16 11.56 11.56 0 0 0 -1.71 0.53 4.41 4.41 0 0 0 -1.1 0.68 3.38 3.38 0 0 0 -0.94 1.57 5.6 5.6 0 0 0 -0.1 2.53A3.36 3.36 0 0 0 5.68 12Z" fill="#020202" stroke-width="1"></path>
    <path d="M23.27 8.36A12 12 0 0 0 14.11 0.23a12.59 12.59 0 0 0 -8.39 2A11.62 11.62 0 0 0 1.16 7.1a14.4 14.4 0 0 0 -1 3.67 16 16 0 0 0 -0.11 3.81 9.27 9.27 0 0 0 1.43 4 10.47 10.47 0 0 0 7 5.09 16.18 16.18 0 0 0 4.61 0.17 14.79 14.79 0 0 0 6.51 -2.11 8.53 8.53 0 0 0 3.14 -3.44 13.35 13.35 0 0 0 0.53 -9.93ZM2.41 18a8.3 8.3 0 0 1 -1.33 -3.5 14.65 14.65 0 0 1 0 -3.56A13.47 13.47 0 0 1 2 7.43a10.82 10.82 0 0 1 4.11 -4.58C6.28 2.74 9.86 0.17 14 0.94a11 11 0 0 1 2.43 0.81 10.18 10.18 0 0 1 4 3.1A16.66 16.66 0 0 1 19.17 6c-1.3 1.13 -2.73 2.16 -4 3.28s-2.61 2.46 -3.86 3.72 -2.45 2.6 -3.67 3.91c-0.71 0.78 -1.53 1.58 -2.26 2.44a12.87 12.87 0 0 0 -0.82 1A12.12 12.12 0 0 1 2.41 18Zm19.43 -0.17a7.94 7.94 0 0 1 -3.7 3.47 14.21 14.21 0 0 1 -5.09 1.4 15 15 0 0 1 -4.29 -0.16 8.32 8.32 0 0 1 -3.7 -1.66c0.27 -0.34 0.55 -0.66 0.86 -1 0.77 -0.8 1.64 -1.55 2.39 -2.27s1.55 -1.49 2.31 -2.24l3.17 -3.18c0.7 -0.71 1.39 -1.42 2.11 -2.11 1.2 -1.19 2.57 -2.28 3.8 -3.47a15.39 15.39 0 0 0 1.12 -1.17 12.42 12.42 0 0 1 1.58 3.21 12.26 12.26 0 0 1 -0.56 9.14Z" fill="#4C57E6" stroke-width="1"></path>
  </g>
</svg>