<svg xmlns="http://www.w3.org/2000/svg" viewBox="0 0 24 24" id="Breakup-Couple-Man-Man--Streamline-Freehand">
  <desc>
    Breakup Couple Man Man Streamline Icon: https://streamlinehq.com
  </desc>
  <g>
    <path d="M9.32 21.27a6.29 6.29 0 0 0 -1 -1.15 7 7 0 0 0 -1.65 -1 2.93 2.93 0 0 0 0.46 -0.4 3.73 3.73 0 0 0 0.29 -4.8 3.37 3.37 0 0 0 -2.51 -1.48 2.64 2.64 0 0 0 -1 0.16c-1.82 0.59 -2.45 1.23 -2.92 2.22a4.1 4.1 0 0 0 -0.19 3.12 3 3 0 0 0 1.36 1.54 4.06 4.06 0 0 0 -1 0.86A4 4 0 0 0 0.7 21a4.82 4.82 0 0 0 -0.31 0.7A7 7 0 0 0 0 23.4a0.36 0.36 0 0 0 0.27 0.43 0.37 0.37 0 0 0 0.43 -0.27 10.38 10.38 0 0 1 1 -1.91c0.12 -0.2 0.23 -0.41 0.35 -0.6s0.21 -0.43 0.34 -0.62a3.05 3.05 0 0 1 0.54 -0.64 4.65 4.65 0 0 0 2.37 0 4.62 4.62 0 0 0 0.76 -0.3c0.26 0.22 0.51 0.45 0.76 0.7s0.52 0.58 0.79 0.87 0.56 0.54 0.8 0.83l1.09 1.39a0.36 0.36 0 1 0 0.55 -0.47ZM5 18.64a3.38 3.38 0 0 1 -1.89 0 2.12 2.12 0 0 1 -1.35 -1.1 3.14 3.14 0 0 1 0 -2.39c0.16 -0.41 0.41 -1.22 2.2 -1.73a2.18 2.18 0 0 1 0.93 -0.14 2.55 2.55 0 0 1 1.77 1.2 2.75 2.75 0 0 1 -0.34 3.42 2.77 2.77 0 0 1 -1.32 0.74Z" fill="#020202" fill-rule="evenodd" stroke-width="1"></path>
    <path d="M24 22.39a7.36 7.36 0 0 0 -0.76 -1.51 3.6 3.6 0 0 0 -0.45 -0.58 3.64 3.64 0 0 0 -0.55 -0.49 7 7 0 0 0 -1 -0.55 3.55 3.55 0 0 0 1.45 -2.34A3.76 3.76 0 0 0 22 14a3.4 3.4 0 0 0 -2.52 -1.48c-0.1 0 -2.91 0.16 -4 2.38a4.12 4.12 0 0 0 -0.19 3.11 2.89 2.89 0 0 0 1 1.3 5.39 5.39 0 0 0 -1.23 0.8 4.45 4.45 0 0 0 -0.56 0.59 6 6 0 0 0 -0.45 0.67 7.54 7.54 0 0 0 -0.68 1.75 0.37 0.37 0 0 0 0.2 0.47 0.37 0.37 0 0 0 0.47 -0.21 10.43 10.43 0 0 1 1.35 -1.86c0.16 -0.18 0.31 -0.38 0.47 -0.58s0.3 -0.42 0.46 -0.6a4.86 4.86 0 0 1 0.66 -0.63 1.6 1.6 0 0 0 0.23 0.1 4.42 4.42 0 0 0 2.57 0.08 5.32 5.32 0 0 0 0.64 -0.24c0.41 0.38 0.74 0.77 1.08 1.14 0.19 0.21 0.39 0.41 0.59 0.61s0.41 0.39 0.61 0.61 0.38 0.44 0.56 0.69a0.36 0.36 0 1 0 0.62 -0.35Zm-4.42 -3.63a3.38 3.38 0 0 1 -1.89 0 2.08 2.08 0 0 1 -1.35 -1.1 3.11 3.11 0 0 1 0 -2.38c0.58 -1.5 2.69 -1.91 3.13 -1.87a2.53 2.53 0 0 1 1.76 1.2 2.71 2.71 0 0 1 -0.39 3.39 2.86 2.86 0 0 1 -1.31 0.76Z" fill="#020202" fill-rule="evenodd" stroke-width="1"></path>
    <path d="m10.85 6.37 -1.38 -0.79 -0.08 0a4 4 0 0 0 0.07 -0.46c0.15 -0.53 0.29 -1.08 0.49 -1.61a6.93 6.93 0 0 1 0.45 -1c0.16 -0.25 -0.28 -0.71 -0.29 -0.72A5.51 5.51 0 0 0 6.64 0.81a3.77 3.77 0 0 0 -3.13 2.05 4.09 4.09 0 0 0 -0.31 0.75 4.14 4.14 0 0 0 -0.2 0.79 5.07 5.07 0 0 0 0 0.87 4.4 4.4 0 0 0 0.15 0.87A6.86 6.86 0 0 0 5.2 9.25a16.12 16.12 0 0 0 4.24 2.55c0.69 0.24 0.92 -1 1.77 -3.3 0.08 -0.21 0.24 -0.51 0.33 -0.79a1.3 1.3 0 0 0 0.07 -0.57 0.61 0.61 0 0 0 -0.22 -0.42 4.8 4.8 0 0 0 -0.54 -0.35Zm-0.67 1.83L9.45 11a15.79 15.79 0 0 1 -3.52 -2.51 6 6 0 0 1 -1.65 -2.68 3.34 3.34 0 0 1 -0.1 -0.62 2.66 2.66 0 0 1 0 -0.63A4.13 4.13 0 0 1 4.33 4a3 3 0 0 1 0.21 -0.57 2.78 2.78 0 0 1 2.2 -1.65 4.75 4.75 0 0 1 3 0.64 8.78 8.78 0 0 0 -0.49 0.79c-0.27 0.52 -0.51 1.06 -0.74 1.6 0 0.07 -0.3 0.56 -0.37 0.77a0.59 0.59 0 0 0 0.07 0.59 0.84 0.84 0 0 0 0.21 0.21 4.45 4.45 0 0 0 0.49 0.29l1.3 0.76a0.59 0.59 0 0 0 0.19 0.06Z" fill="#4C57E6" fill-rule="evenodd" stroke-width="1"></path>
    <path d="M13.61 12.09a14.36 14.36 0 0 0 2.7 -1.49 15 15 0 0 0 2.33 -2A9.25 9.25 0 0 0 20 6.75a4.9 4.9 0 0 0 0.51 -1.51 4.87 4.87 0 0 0 -1 -3.64 3.68 3.68 0 0 0 -4.7 -1C13 1.63 13.47 1.8 12.57 3.5a4.41 4.41 0 0 0 -0.34 0.59 0.47 0.47 0 0 0 0 0.42 1 1 0 0 0 0.25 0.31c0.14 0.12 0.32 0.23 0.44 0.32a10 10 0 0 0 0.87 0.57c0.29 0.17 0.6 0.32 0.91 0.47l0.32 0.15 -0.35 0.88c-0.41 1 -0.72 2 -1.1 3a12 12 0 0 1 -0.51 1.22c-0.06 0.23 0.11 0.85 0.55 0.66Zm2.15 -4.37c0.11 -0.22 0.22 -0.44 0.32 -0.67a4.4 4.4 0 0 0 0.18 -0.51 3 3 0 0 0 0.08 -0.46 0.63 0.63 0 0 0 -0.13 -0.4 1.17 1.17 0 0 0 -0.37 -0.32 5.21 5.21 0 0 0 -0.61 -0.27l-1.71 -0.82 -0.25 -0.13a2.2 2.2 0 0 0 0.07 -0.28L14 2.12A0.27 0.27 0 0 0 14 2a6.37 6.37 0 0 1 1.09 -0.67 2.58 2.58 0 0 1 1 -0.25 2.84 2.84 0 0 1 2.49 1.23 3.75 3.75 0 0 1 0.31 3.92 8.45 8.45 0 0 1 -1.11 1.64 13.57 13.57 0 0 1 -2 2A12.92 12.92 0 0 1 14.16 11c0.08 -0.14 0.16 -0.28 0.23 -0.42 0.46 -0.98 0.87 -1.95 1.37 -2.86Z" fill="#4C57E6" fill-rule="evenodd" stroke-width="1"></path>
  </g>
</svg>