<svg xmlns="http://www.w3.org/2000/svg" viewBox="0 0 24 24" id="Bug-Service-Chat--Streamline-Freehand">
  <desc>
    Bug Service Chat Streamline Icon: https://streamlinehq.com
  </desc>
  <g>
    <path d="M13.21 15c0.09 -0.25 0.17 -0.51 0.24 -0.77s0.14 -0.8 0.19 -1.2a3.23 3.23 0 0 0 3.48 -2.6 4.61 4.61 0 0 0 -1 -4.5c-0.33 -0.33 -0.87 -0.34 -1.37 0.25a11.29 11.29 0 0 0 -1 1.67 9.19 9.19 0 0 1 -1.11 -0.5 4.47 4.47 0 0 0 0.19 -0.46c0.24 -0.66 0.57 -1.38 0.63 -1.64a0.8 0.8 0 0 0 -0.61 -0.86 3.47 3.47 0 0 0 -2.17 0.16A4.19 4.19 0 0 0 8.42 7a4.42 4.42 0 0 0 -0.14 3.51 2.65 2.65 0 0 0 1.45 1.34c-0.35 0.65 -0.72 1.28 -1 2 -0.21 0.48 -0.38 1 -0.55 1.49s-0.21 0.7 -0.4 1.27 0.7 0.66 1 0.24 0.31 -0.54 0.52 -1 0.28 -0.62 0.4 -0.93a8.37 8.37 0 0 0 0.33 -1c0.22 -0.75 0.36 -1.51 0.56 -2.28s-1.37 0 -1.69 -1.91a3.87 3.87 0 0 1 0.44 -2.33A2.85 2.85 0 0 1 12 5.54 11.37 11.37 0 0 0 11.42 7a1.72 1.72 0 0 0 0 0.92 0.72 0.72 0 0 0 0.36 0.41 6.53 6.53 0 0 0 0.59 0.29 5.44 5.44 0 0 0 1.76 0.55 1 1 0 0 0 0.7 -0.54c0.15 -0.28 0.39 -0.8 0.64 -1.24a1.09 1.09 0 0 1 0.21 -0.26 3.58 3.58 0 0 1 0.52 3c-0.82 3.28 -2.87 1.29 -3.08 2s-0.58 1.09 -0.84 1.67c-0.11 0.24 -0.2 0.49 -0.29 0.74s-0.16 0.5 -0.23 0.76c-0.15 0.56 -0.18 0.75 -0.32 1.3 -0.07 0.36 0.84 0.44 1 0.05s0.3 -0.54 0.48 -0.93c0.08 -0.23 0.2 -0.48 0.29 -0.72Z" fill="#020202" fill-rule="evenodd" stroke-width="1"></path>
    <path d="M22.38 5.56A12.43 12.43 0 0 0 16.06 1 13.56 13.56 0 0 0 8.25 0.66 12.23 12.23 0 0 0 2.16 4.8 9.11 9.11 0 0 0 0.1 11.85a7.66 7.66 0 0 0 5 5.78A10.8 10.8 0 0 0 12 18a17.3 17.3 0 0 0 0.55 1.92c0.24 0.69 0.5 1.39 0.76 2.06 0.18 0.45 0.37 0.88 0.52 1.31a0.64 0.64 0 0 0 0.4 0.42 0.62 0.62 0 0 0 0.5 0 0.75 0.75 0 0 0 0.33 -0.25c0.08 -0.1 0.18 -0.36 0.26 -0.47l0.83 -1.38 2.12 -3.88a0.37 0.37 0 0 0 0.38 0.14 7 7 0 0 0 5.08 -5.12 8.91 8.91 0 0 0 -1.35 -7.19Zm0.45 7a6.16 6.16 0 0 1 -4.39 4.59 0.43 0.43 0 0 0 -0.22 0.17s0 -0.08 -0.08 -0.1a0.38 0.38 0 0 0 -0.53 0.14L15.1 21l-0.49 0.73 -0.12 -0.24c-0.49 -1 -1.08 -2 -1.53 -3 -0.09 -0.21 -0.16 -0.43 -0.24 -0.64a0.36 0.36 0 0 0 0.2 -0.45 0.35 0.35 0 0 0 -0.45 -0.2h-0.05a3.94 3.94 0 0 0 -1 0.2l-0.55 0.15a9.49 9.49 0 0 1 -2.5 0 15.6 15.6 0 0 1 -2.91 -0.74 6.65 6.65 0 0 1 -4.26 -5.12 8 8 0 0 1 2 -6.09 11 11 0 0 1 5.41 -3.66 12.44 12.44 0 0 1 7.06 0.25 11.37 11.37 0 0 1 5.8 4 7.89 7.89 0 0 1 1.36 6.34Z" fill="#4C57E6" fill-rule="evenodd" stroke-width="1"></path>
  </g>
</svg>