<svg xmlns="http://www.w3.org/2000/svg" viewBox="0 0 24 24" id="Building-Flag-1--Streamline-Freehand">
  <desc>
    Building Flag 1 Streamline Icon: https://streamlinehq.com
  </desc>
  <title>building-flag-1</title>
  <g>
    <path d="M22 11.26a0.64 0.64 0 0 0 -0.56 -0.47l-0.44 0h-0.7c-0.34 0 -0.66 0.06 -1 0.1l-0.53 0.06 -7.29 0.7c-0.12 -1.44 -0.26 -2.88 -0.39 -4.32a0.32 0.32 0 0 0 -0.2 -0.25 0.34 0.34 0 0 0 -0.26 -0.17l-0.36 0a0.32 0.32 0 0 0 0.1 -0.58c-0.57 -0.5 -1.14 -1 -1.74 -1.49a14.08 14.08 0 0 0 -1.27 -0.94 0.56 0.56 0 0 1 -0.13 -0.07l1.55 -0.05a4 4 0 0 0 0.83 0 1.17 1.17 0 0 0 0.54 -0.24 0.76 0.76 0 0 0 0.22 -0.47 6.83 6.83 0 0 0 -0.09 -1.14 6.72 6.72 0 0 0 -0.34 -1.5 0.72 0.72 0 0 0 -0.53 -0.43 8.77 8.77 0 0 0 -1.36 0c-0.68 0.05 -1.36 0.14 -2 0.23l-0.06 0A0.31 0.31 0 0 0 5.77 0a0.32 0.32 0 0 0 -0.33 0.29 9.35 9.35 0 0 0 -0.32 1.29 3.51 3.51 0 0 0 0 0.56 5.27 5.27 0 0 0 0 0.56q0.08 0.43 0.18 0.87a3 3 0 0 0 -0.54 0.43c-0.45 0.44 -0.84 1 -1.19 1.42s-0.51 0.6 -0.74 0.91 -0.47 0.62 -0.68 1a0.29 0.29 0 0 0 0 0.35 0.28 0.28 0 0 0 -0.06 0.15c-0.18 2 -0.33 4 -0.34 5.94 0 1.18 0.05 2.37 0.1 3.55 0.09 1.78 0.25 3.55 0.35 5.31a0.34 0.34 0 0 0 0.36 0.35 0.35 0.35 0 0 0 0.35 -0.36c0 -2 0.09 -3.94 0.07 -5.92l0 -1.87c0.93 0.06 1.85 0.13 2.77 0.1 0.63 0 1.27 -0.09 1.89 -0.16 0.94 -0.11 1.86 -0.27 2.8 -0.38l0.08 0c0 0.86 0 1.73 0.07 2.59 0.07 1.79 0.16 3.58 0.18 5.37a0.35 0.35 0 0 0 0.7 0c0.13 -1.75 0.22 -3.5 0.25 -5.26l0 -1.23a30.88 30.88 0 0 0 3.6 0c0.82 0 1.63 -0.15 2.45 -0.24 1.12 -0.12 2.24 -0.24 3.37 -0.26v0.47c0 1.34 0.07 2.7 0.07 4.06 0 0.9 0 1.8 -0.06 2.69a0.37 0.37 0 0 0 0.33 0.38 0.36 0.36 0 0 0 0.38 -0.33c0.09 -0.9 0.16 -1.81 0.2 -2.72 0.07 -1.36 0.11 -2.72 0.16 -4.06 0 -0.88 0.1 -1.78 0.07 -2.67a9.64 9.64 0 0 0 -0.29 -1.92ZM7.72 0.94a9.41 9.41 0 0 1 1.34 0.18 5.74 5.74 0 0 1 0 0.95c0 0.1 0.27 0.65 0.2 0.73s-0.46 0 -0.57 0l-2 0.32a0.35 0.35 0 0 0 -0.28 0.32l-0.1 0a1.37 1.37 0 0 0 -0.19 0c0 -0.23 0.06 -0.46 0.08 -0.69a4.89 4.89 0 0 0 0 -0.54 4.84 4.84 0 0 0 0 -0.53 6.83 6.83 0 0 0 -0.07 -0.81c0.5 0.01 1.04 0.02 1.59 0.07ZM3.41 6.87a9.85 9.85 0 0 1 0.83 -0.75c0.38 -0.34 0.85 -0.83 1.32 -1.24A2.92 2.92 0 0 1 6 4.56c0 -0.27 0.71 0.28 0.88 0.37a10.26 10.26 0 0 1 1.27 0.67c0.63 0.39 1.24 0.82 1.83 1.23a21.39 21.39 0 0 0 -2.41 -0.1c-0.69 0 -1.37 0.11 -2 0.16s-1.32 0.11 -1.94 0.27a4.74 4.74 0 0 0 -0.63 0.16c0.13 -0.15 0.26 -0.32 0.41 -0.45Zm-0.49 7.22 0 -1c-0.06 -1.68 -0.16 -3.35 -0.18 -5A5.52 5.52 0 0 1 3.43 8a10.26 10.26 0 0 1 1.24 0c-0.08 0.76 -0.16 1.49 -0.17 2.25l0 1c0 0.32 0.06 0.64 0.11 0.95 0.08 0.55 0.18 1.09 0.28 1.63 -0.64 0.08 -1.3 0.17 -1.97 0.26Zm4.68 -0.48c-0.4 0 -0.79 0 -1.18 0.05l-0.7 0.07 0 -1.62 0 -0.95c0 -0.31 0 -0.63 -0.09 -0.94 -0.09 -0.74 -0.24 -1.46 -0.33 -2.2h0.27c0.67 0 1.35 -0.09 2 -0.16 0 0.71 -0.15 1.4 -0.18 2.12l0 0.91c0 0.3 0 0.62 0.07 0.92a17.57 17.57 0 0 0 0.29 1.79Zm2.85 -0.28 0 0.35 -0.09 0 -1.84 0c0 -0.63 0.05 -1.26 0.06 -1.9a14.23 14.23 0 0 0 0 -1.46c-0.05 -0.82 -0.21 -1.62 -0.34 -2.43 0.47 -0.06 0.94 -0.12 1.4 -0.15l0.88 0c-0.05 1.77 -0.1 3.68 -0.07 5.59Zm1.22 1.77v-0.31c0 -0.75 -0.05 -1.5 -0.1 -2.25l0 -0.28 2.19 0 0 0.07c0 0.3 -0.09 0.56 -0.1 0.87l0 0.36a3.21 3.21 0 0 0 0.08 0.36 8.82 8.82 0 0 0 0.31 0.86c-0.79 0.12 -1.58 0.22 -2.38 0.32Zm5.73 -3a6.13 6.13 0 0 0 -0.29 0.92 1.42 1.42 0 0 0 0 0.41 1.75 1.75 0 0 0 0.05 0.4 3.82 3.82 0 0 0 0.19 0.6h-0.1q-1.24 0.08 -2.46 0.24c0 -0.31 0.09 -0.58 0.1 -0.89a2.41 2.41 0 0 0 0 -0.38 2.33 2.33 0 0 0 -0.08 -0.38 4.24 4.24 0 0 0 -0.39 -0.8l3 -0.08Zm0.75 2.32c0 -0.21 0.07 -0.42 0.1 -0.64s0 -0.25 0 -0.37a2.22 2.22 0 0 0 0 -0.37c0 -0.32 -0.16 -0.58 -0.22 -0.89l0 -0.07 0.87 0 0.57 -0.05 1.5 -0.06a11.61 11.61 0 0 1 0.12 1.2l0 1.39a26.28 26.28 0 0 0 -2.94 -0.13Z" fill="#020202" fill-rule="evenodd" stroke-width="1"></path>
    <path d="M21 22.74a0.36 0.36 0 0 0 -0.41 -0.28 5.7 5.7 0 0 1 -0.92 0.07l-2.27 0c-0.93 0.06 -1.88 0.11 -2.82 0.21s-1.85 0.24 -2.78 0.29h-0.94a0.33 0.33 0 0 0 -0.3 -0.18l-4 -0.05c-0.36 0 -3.22 0.18 -4 0.2a0.31 0.31 0 0 0 -0.34 0.28 0.32 0.32 0 0 0 0.3 0.34c0.93 0.15 1.86 0.3 2.81 0.36l1.21 0c0.41 0 0.8 0 1.21 -0.08 0.82 -0.07 1.63 -0.19 2.44 -0.31l0.09 0a18 18 0 0 0 3.6 0.28c0.72 0 1.44 -0.08 2.14 -0.15 0.47 -0.05 0.94 -0.13 1.41 -0.19 0.73 -0.1 1.49 -0.14 2.23 -0.25a8.37 8.37 0 0 0 1 -0.18 0.36 0.36 0 0 0 0.34 -0.36Z" fill="#020202" fill-rule="evenodd" stroke-width="1"></path>
    <path d="M5.52 20.69A4 4 0 0 1 6 19.35a0.7 0.7 0 0 1 0.57 -0.35 0.91 0.91 0 0 1 0.73 0.36 2.89 2.89 0 0 1 0.53 1.23c0.13 0.6 0.19 1.22 0.27 1.82 0.05 0.37 0.65 0.37 0.75 0A15.29 15.29 0 0 0 8.72 20a3.77 3.77 0 0 0 -0.49 -1.28 2 2 0 0 0 -1.68 -0.91 1.81 1.81 0 0 0 -1.63 1.08 4.6 4.6 0 0 0 -0.34 1.76 10.6 10.6 0 0 0 0.16 1.88c0.15 0.31 0.71 0.33 0.71 -0.1a9.72 9.72 0 0 1 0.07 -1.74Z" fill="#4C57E6" fill-rule="evenodd" stroke-width="1"></path>
  </g>
</svg>