<svg xmlns="http://www.w3.org/2000/svg" viewBox="0 0 24 24" id="Building-House--Streamline-Freehand">
  <desc>
    Building House Streamline Icon: https://streamlinehq.com
  </desc>
  <title>building-house</title>
  <g>
    <path d="M23.15 1.58a2.48 2.48 0 0 0 -0.32 -1.06 1.06 1.06 0 0 0 -0.68 -0.52 4.77 4.77 0 0 0 -1.06 0l-4 0.12 -2.62 0.09 -1.63 0 -1.06 0.16 -0.58 0.17a1.07 1.07 0 0 0 -0.71 0.66 2.92 2.92 0 0 0 -0.06 1.05l0 1 0.05 1.61 0 2.49c0 0.79 0 1.59 0.05 2.39 0 0.41 0.06 0.81 0.11 1.22l-1.49 -1A0.39 0.39 0 0 0 9 9.83a0.31 0.31 0 0 0 -0.43 -0.06c-1.58 1.15 -3 2.08 -4.5 3.13l-0.29 0.21a2.58 2.58 0 0 1 0 -0.29l0 -0.65 0 -1s0 0.06 0 0 0.36 -0.11 0.5 -0.13a8.41 8.41 0 0 1 1.12 -0.14 9.36 9.36 0 0 1 1.18 0 0.35 0.35 0 0 0 0.09 -0.69 12.34 12.34 0 0 0 -1.5 -0.21 7.15 7.15 0 0 0 -1 0 2.45 2.45 0 0 0 -0.95 0.23 1 1 0 0 0 -0.45 0.47 1.29 1.29 0 0 0 -0.11 0.65 6.13 6.13 0 0 0 0.18 1l0.37 1.31c-0.35 0.25 -0.68 0.49 -1 0.76 -0.68 0.52 -1.13 0.76 -1.26 1.13a1.67 1.67 0 0 0 0.23 1.3 3.47 3.47 0 0 0 0.31 0.6 0.71 0.71 0 0 0 0.45 0.26 3.57 3.57 0 0 0 1.72 -0.19l-0.35 4.15c0 0.38 -0.17 1.42 -0.18 1.51a0.68 0.68 0 0 0 0 0.35 0.65 0.65 0 0 0 0.39 0.37 2.69 2.69 0 0 0 0.84 0.13c0.56 0 1.24 0 1.62 -0.06l5.51 -0.12 1.89 0h0.3s0.08 0.07 0.13 0.07a12.28 12.28 0 0 0 2 0.24l1 0 1 0c0.77 -0.08 1.55 -0.08 2.33 -0.15a8.68 8.68 0 0 0 1 -0.15 0.35 0.35 0 0 0 0.3 -0.39A0.34 0.34 0 0 0 21 23l-1 0c-0.79 0 -1.58 -0.15 -2.36 -0.17 -0.43 0 -0.84 0 -1.26 0.08 -0.61 0.07 -1.2 0.19 -1.82 0.24a1.74 1.74 0 0 0 0.08 -0.42 9 9 0 0 0 -0.12 -1.24l-0.36 -3.73a1.63 1.63 0 0 0 0.66 0 2.68 2.68 0 0 0 1.33 -0.68c0.36 -0.35 0.72 -0.6 0.83 -0.86a0.8 0.8 0 0 0 -0.15 -0.92 7.88 7.88 0 0 0 -1.49 -1.35c-0.76 -0.55 -1.59 -1 -2.42 -1.53l-1.6 -1 0 -0.1c-0.06 -0.52 -0.08 -1 -0.09 -1.56l0 -2.38 0.05 -2.47V2.25a3.56 3.56 0 0 1 0 -0.66c0 -0.07 0.07 -0.11 0.17 -0.15l0.45 -0.1 0.9 -0.08 1.6 0h2.66l4 -0.07c0.21 0 0.9 -0.24 0.79 0 0 0.06 0.06 0.1 0.1 0.5a7.79 7.79 0 0 1 0 1.19l0 4.43 -0.04 6.69c-0.07 1.72 -0.1 4.24 -0.19 6.46 0 1 -0.08 2 -0.14 2.74a0.35 0.35 0 0 0 0.69 0.07c0.08 -0.79 0.15 -1.75 0.22 -2.78 0.13 -2.21 0.24 -4.72 0.35 -6.44l0.26 -6.72 0 -4.42a9.86 9.86 0 0 0 0.05 -1.33Zm-9.48 21.13 -0.34 -0.07c-0.15 0 -2.44 -0.08 -4.1 -0.05 -1.09 0 0.42 0 -3.33 0.11 -0.36 0 -1 0.12 -1.57 0.13h-0.17v-1.25l0.08 -4.46a3 3 0 0 0 0.32 -0.12c1.52 -0.88 2.85 -2.57 4.33 -3.18A18.27 18.27 0 0 1 10.4 15c0.74 0.57 1.47 1.21 2.22 1.79 0.26 0.2 0.53 0.38 0.79 0.55l0.19 4.13c0 0.18 0.06 0.52 0.07 0.86a2.15 2.15 0 0 1 0 0.38Zm-1.21 -9.62c0.79 0.55 1.59 1 2.33 1.57A6.88 6.88 0 0 1 16 15.78c-0.15 0.06 -0.32 0.35 -0.52 0.54a1.73 1.73 0 0 1 -0.66 0.35 0.61 0.61 0 0 1 -0.53 0c-0.32 -0.21 -0.63 -0.45 -0.94 -0.7 -0.74 -0.59 -1.46 -1.24 -2.19 -1.82a15.88 15.88 0 0 0 -1.75 -1.4 0.93 0.93 0 0 0 -0.69 -0.1C7.07 13.19 5.62 15 4 16a3.35 3.35 0 0 1 -1.81 0.56L2 16.27c-0.14 -0.27 -0.25 -0.41 -0.2 -0.54s0.11 -0.12 0.19 -0.2 0.44 -0.3 0.71 -0.53c0.63 -0.52 1.23 -1 1.83 -1.46 1.38 -1 2.73 -2 4.19 -3.14l0.06 0.06Z" fill="#020202" fill-rule="evenodd" stroke-width="1"></path>
    <path d="M11.21 20.4a4.32 4.32 0 0 0 -0.4 -1.55 2.48 2.48 0 0 0 -2.23 -1.34 2.59 2.59 0 0 0 -2.22 1.32 3.64 3.64 0 0 0 -0.4 1.7 8.88 8.88 0 0 0 0.19 1.84 0.33 0.33 0 0 0 0.64 -0.09 8 8 0 0 1 0.06 -1.68 2.87 2.87 0 0 1 0.43 -1.2 1.6 1.6 0 0 1 1.32 -0.72 1.46 1.46 0 0 1 1.3 0.69 3.09 3.09 0 0 1 0.41 1.15c0.12 0.65 0.15 1.08 0.21 1.69a0.37 0.37 0 0 0 0.68 0.07c-0.01 -0.64 0.07 -1.19 0.01 -1.88Z" fill="#4C57E6" fill-rule="evenodd" stroke-width="1"></path>
    <path d="M14.73 7.2c0 0.12 -0.09 0.45 -0.09 0.6a0.59 0.59 0 0 0 0.12 0.31 0.82 0.82 0 0 0 0.32 0.24 3.36 3.36 0 0 0 0.48 0.16 3.43 3.43 0 0 0 0.9 0.13 10.26 10.26 0 0 0 1.25 -0.06 4.53 4.53 0 0 0 0.75 -0.07 0.7 0.7 0 0 0 0.35 -0.25 1.92 1.92 0 0 0 0.31 -0.71 7.57 7.57 0 0 0 0.1 -0.89l0 -1.37a3.09 3.09 0 0 0 0 -0.52 0.61 0.61 0 0 0 -0.14 -0.28 1.26 1.26 0 0 0 -0.63 -0.37 3.55 3.55 0 0 0 -0.78 -0.1l-1.27 0a12.57 12.57 0 0 0 -1.25 0.14 0.35 0.35 0 0 0 -0.31 0.38 0.37 0.37 0 0 0 0.26 0.3 0.31 0.31 0 0 0 -0.11 0.2Zm1.65 -2.37c0.4 0 0.79 0 1.17 0.1a2.92 2.92 0 0 1 0.5 0.09l0.06 0 0 0.27 -0.07 1.26a5.12 5.12 0 0 1 -0.07 0.62s0 0.09 0 0.13a3.21 3.21 0 0 0 -0.4 0.1 10.2 10.2 0 0 1 -1.11 0.14 3 3 0 0 1 -0.67 0l-0.17 -0.07 0 -0.27 0 -1 0 -1a0.31 0.31 0 0 0 -0.12 -0.28Z" fill="#020202" fill-rule="evenodd" stroke-width="1"></path>
  </g>
</svg>