<svg xmlns="http://www.w3.org/2000/svg" viewBox="0 0 24 24" id="Bus-Time--Streamline-Freehand">
  <desc>
    Bus Time Streamline Icon: https://streamlinehq.com
  </desc>
  <g>
    <path d="M23.74 16.75a0.32 0.32 0 0 0 -0.38 0.26 9 9 0 0 1 -0.55 1.76 5.33 5.33 0 0 1 -1 1.47 5 5 0 0 1 -1.26 0.93 5 5 0 0 1 -1.49 0.49 5.8 5.8 0 0 1 -3.65 -0.52 5.5 5.5 0 0 1 -2.49 -2.67 5.25 5.25 0 0 1 -0.27 -0.82 5.36 5.36 0 0 1 -0.14 -0.87 5.93 5.93 0 0 1 1.35 -4.15 4.47 4.47 0 0 1 3.94 -1.71 0.29 0.29 0 0 0 0.33 -0.25 0.29 0.29 0 0 0 -0.25 -0.32 5.11 5.11 0 0 0 -4.63 1.75 6.84 6.84 0 0 0 -1.79 4.73 5.72 5.72 0 0 0 0.15 1.06 5.5 5.5 0 0 0 0.31 1 6.46 6.46 0 0 0 3 3.18 6.61 6.61 0 0 0 4.32 0.48 6 6 0 0 0 1.76 -0.61 5.88 5.88 0 0 0 1.44 -1.15 6 6 0 0 0 1.07 -1.74 9 9 0 0 0 0.49 -1.92 0.33 0.33 0 0 0 -0.26 -0.38Z" fill="#020202" fill-rule="evenodd" stroke-width="1"></path>
    <path d="M17.87 11.74a0.28 0.28 0 0 0 -0.28 0.29l-0.2 3.2a6.16 6.16 0 0 0 -0.08 0.93 0.7 0.7 0 0 0 0.24 0.49 1.17 1.17 0 0 0 0.54 0.2 4.21 4.21 0 0 0 0.82 0c0.5 0 1 -0.1 1.56 -0.19a8.6 8.6 0 0 0 1 -0.25 0.32 0.32 0 1 0 -0.15 -0.63 7.6 7.6 0 0 1 -1 0.09l-1.49 0 -0.38 0a4 4 0 0 1 0 -0.55c0 -0.33 0 -0.65 -0.06 -1 -0.06 -0.75 -0.16 -1.49 -0.25 -2.24a0.28 0.28 0 0 0 -0.27 -0.34Z" fill="#4C57E6" fill-rule="evenodd" stroke-width="1"></path>
    <path d="M20.17 12.31s0.17 0.13 0.7 -0.37a0.26 0.26 0 0 0 0.08 -0.11s0.15 -0.82 -0.11 -1 -0.26 -0.12 -0.78 0.35a0.64 0.64 0 0 0 -0.1 0.13 0.42 0.42 0 0 0 0 0.16s-0.02 0.75 0.21 0.84Z" fill="#4C57E6" fill-rule="evenodd" stroke-width="1"></path>
    <path d="M22 13.18a0.39 0.39 0 0 0 0.14 -0.08s0.54 -0.72 0.38 -1 -0.2 -0.23 -0.91 0a0.56 0.56 0 0 0 -0.17 0.09 0.47 0.47 0 0 0 -0.13 0.15s-0.34 0.68 -0.14 0.87c0.05 0.07 0.13 0.27 0.83 -0.03Z" fill="#4C57E6" fill-rule="evenodd" stroke-width="1"></path>
    <path d="M22.11 14.53c0.05 0.22 0.76 0.36 0.78 0.36a0.5 0.5 0 0 0 0.17 0 0.46 0.46 0 0 0 0.16 -0.07c0.63 -0.38 0.62 -0.53 0.59 -0.68s-0.07 -0.25 -0.82 -0.32h-0.17a0.52 0.52 0 0 0 -0.16 0.06c-0.06 0.03 -0.6 0.43 -0.55 0.65Z" fill="#4C57E6" fill-rule="evenodd" stroke-width="1"></path>
    <path d="m10.85 11.16 -0.43 0s0.06 -0.07 0.06 -0.12c0.08 -0.56 0.16 -1.11 0.19 -1.67l0 -0.71 0 -0.69c-0.06 -0.49 -0.14 -1 -0.19 -1.44l1.87 -0.15c0.49 0 1.27 -0.23 2 -0.26a1.79 1.79 0 0 1 1.09 0.18 0.33 0.33 0 0 0 0.39 -0.52 2.15 2.15 0 0 0 -1.12 -0.4 6.54 6.54 0 0 0 -0.77 0 1.74 1.74 0 0 0 0.77 -0.93 1.19 1.19 0 0 0 0 -0.45 1.25 1.25 0 0 0 -0.1 -0.51 5.67 5.67 0 0 1 0.8 0.45 11.79 11.79 0 0 1 1.28 1 6.68 6.68 0 0 1 0.55 0.5 1.67 1.67 0 0 1 0.18 0.28 3.4 3.4 0 0 0 -0.23 0.94 3.31 3.31 0 0 0 0 0.89c0.07 0.43 0.21 0.83 0.31 1.24a0.33 0.33 0 1 0 0.65 0c0 -0.47 0.08 -0.93 0.08 -1.41l0 -0.79a6.57 6.57 0 0 1 -0.07 -1.17 0.29 0.29 0 0 0 -0.38 -0.42 7.94 7.94 0 0 0 -0.57 -0.59 13.93 13.93 0 0 0 -1.31 -1.17 7.56 7.56 0 0 0 -1.55 -0.92 12 12 0 0 0 -4.2 -1.06 9.75 9.75 0 0 0 -4.29 0.86A7.71 7.71 0 0 0 4.35 3a5.21 5.21 0 0 0 -1.17 1.36c-0.18 0.29 -0.41 0.62 -0.59 1a4.27 4.27 0 0 0 -0.24 0.61 0.29 0.29 0 0 0 -0.28 0.22 7.35 7.35 0 0 0 -0.13 1.5c0 1.13 0.18 2.31 0.21 3.37l0 1.33a1.67 1.67 0 0 0 -0.23 -0.23 0.92 0.92 0 0 0 -0.2 -0.16l-0.24 -0.11 -0.24 0a3.63 3.63 0 0 0 0 -0.57 4.21 4.21 0 0 0 -0.12 -0.71 14.83 14.83 0 0 0 -0.55 -1.68 0.29 0.29 0 0 0 -0.34 -0.23A0.28 0.28 0 0 0 0 9c0 0.59 0 1.21 0.06 1.86 0 0.37 0.09 0.73 0.15 1.09 0.08 0.57 0.2 1.11 0.24 1.62a0.32 0.32 0 0 0 0.32 0.43 0.32 0.32 0 0 0 0.34 -0.31c0 -0.23 0.07 -0.48 0.09 -0.73l0.23 0.1c0.2 0.06 0.38 0.08 0.58 0.15a0.25 0.25 0 0 0 0.17 0v0.38c0 0.76 -0.06 1.54 0 2.31a8.93 8.93 0 0 0 0.07 1 3.42 3.42 0 0 0 0.23 1.16 1.19 1.19 0 0 0 0.52 0.54 3.08 3.08 0 0 0 0.87 0.21l-0.09 2a2.55 2.55 0 0 0 0 0.54 0.79 0.79 0 0 0 0.18 0.38 1.06 1.06 0 0 0 0.44 0.29 2.66 2.66 0 0 0 0.76 0.09l0.62 0c0.43 0 0.86 -0.14 1.29 -0.18l0.75 0a0.61 0.61 0 0 0 0.48 -0.3 3.06 3.06 0 0 0 0.18 -1.1A11.18 11.18 0 0 0 8.33 19s0 -0.07 -0.05 -0.11l1.28 0c0.33 0 0.65 0 1 0.07a0.33 0.33 0 0 0 0.09 -0.65L7.32 18l0.42 -0.87c0.1 -0.19 0.29 -0.5 0.48 -0.83 0.09 -0.18 0.19 -0.35 0.29 -0.51a0.94 0.94 0 0 1 0.28 -0.35 2 2 0 0 1 0.79 -0.31 4.49 4.49 0 0 1 1 -0.09 0.33 0.33 0 0 0 0.36 -0.29 0.32 0.32 0 0 0 -0.28 -0.36 5.46 5.46 0 0 0 -1.39 -0.12 2.83 2.83 0 0 0 -1 0.25 2.19 2.19 0 0 0 -0.79 0.91 7.88 7.88 0 0 0 -0.47 1.4l-0.22 1a0.25 0.25 0 0 0 0 0.12l-1.25 -0.09c-0.42 0 -0.89 0 -1.34 -0.06a2.13 2.13 0 0 1 -0.71 -0.19 0.21 0.21 0 0 1 -0.09 -0.18c0 -0.22 0 -0.45 -0.06 -0.66s0 -0.41 0 -0.62a0.35 0.35 0 0 0 0.2 0c0.48 -0.08 1.06 0 1.6 0a2.66 2.66 0 0 0 0.74 -0.15 1.24 1.24 0 0 0 0.67 -1.44 1.57 1.57 0 0 0 -1 -1.08 2.25 2.25 0 0 0 -0.55 -0.12c-0.57 0 -1.13 0.23 -1.7 0.19l-0.09 -1.22a5.2 5.2 0 0 1 1.39 -0.28l1.18 0H7c0.89 -0.06 1.8 -0.16 2.7 -0.21l1.15 0a0.31 0.31 0 0 0 0.34 -0.3 0.32 0.32 0 0 0 -0.34 -0.38Zm-5.39 7.67 1.78 0 0.5 0a0.27 0.27 0 0 0 0 0.18 10.59 10.59 0 0 1 0 1.37c0 0.34 0 0.43 -0.64 0.43L5.16 21c-0.7 0 -0.42 0.27 -0.51 -0.29l-0.22 -1.9c0.36 0.03 0.71 0.01 1.03 0.02ZM3.76 4.75a4.21 4.21 0 0 1 1.08 -1.07 5.82 5.82 0 0 1 0.6 -0.34 1.74 1.74 0 0 0 -0.2 0.49 1.25 1.25 0 0 0 0 0.43 1.44 1.44 0 0 0 1 1.19 0.33 0.33 0 0 0 0.29 -0.59 0.72 0.72 0 0 1 -0.26 -0.65 1.37 1.37 0 0 1 0.09 -0.4 1.41 1.41 0 0 1 0.44 -0.67 0.28 0.28 0 0 0 0.2 -0.37 9.48 9.48 0 0 1 3.14 -0.4 11.72 11.72 0 0 1 3.05 0.54s0 0.08 0.08 0.1a1.14 1.14 0 0 1 0.35 0.7 1.23 1.23 0 0 1 0 0.27 1 1 0 0 1 -0.38 0.94 0.32 0.32 0 0 0 -0.12 0.44l-0.86 0 -3.42 0c-0.75 0 -1.51 0.08 -2.27 0.11s-1.5 0.07 -2.27 0.19a5.76 5.76 0 0 0 -1.4 0.36 3.12 3.12 0 0 1 0.23 -0.49c0.2 -0.22 0.44 -0.53 0.63 -0.78Zm0.92 9.53a1.55 1.55 0 0 1 0.51 0.14 0.53 0.53 0 0 1 0.29 0.36 0.24 0.24 0 0 1 -0.09 0.28 1.48 1.48 0 0 1 -0.48 0.2c-0.54 0.13 -1.15 0.15 -1.62 0.32l0 -1.44a11.18 11.18 0 0 0 1.39 0.14ZM9.26 11l-2.33 0 -1.24 0a7.9 7.9 0 0 0 -0.85 0.12 6.08 6.08 0 0 0 -1.72 0.55L3.06 11c-0.11 -1 -0.38 -2.2 -0.45 -3.32a6.19 6.19 0 0 1 0 -1.14 0.29 0.29 0 0 0 0.39 0.16 4.69 4.69 0 0 1 1.38 -0.22c0.76 0 1.54 0 2.21 0.06l2.87 0 0.35 0a10.48 10.48 0 0 0 -0.23 1.67 10.51 10.51 0 0 0 0.06 1.12c0 0.56 0.16 1.1 0.2 1.66a0.29 0.29 0 0 0 0 0.1Z" fill="#020202" fill-rule="evenodd" stroke-width="1"></path>
  </g>
</svg>