<svg xmlns="http://www.w3.org/2000/svg" viewBox="0 0 24 24" id="Bus-Destination--Streamline-Freehand">
  <desc>
    Bus Destination Streamline Icon: https://streamlinehq.com
  </desc>
  <g>
    <path d="M10.7 5.75a0.27 0.27 0 0 0 -0.3 -0.26 0.28 0.28 0 0 0 -0.25 0.3l-0.15 0.84 0 0.53a0.59 0.59 0 0 1 -0.19 0.32l-0.07 0.06 0 -1.14a4.22 4.22 0 0 0 -0.44 -2 4.47 4.47 0 0 0 -2.13 -1.69 4.23 4.23 0 0 0 -1.79 -0.27 3.5 3.5 0 0 0 -3.17 2.27 0.19 0.19 0 0 0 -0.1 0 0.29 0.29 0 0 0 -0.28 0.29l-0.1 3.12c-1 -0.47 -0.56 0 -0.81 -1.9a0.28 0.28 0 0 0 -0.21 -0.33 0.27 0.27 0 0 0 -0.34 0.21 4.06 4.06 0 0 0 -0.25 0.84c0 0.18 -0.06 0.36 -0.09 0.54s0 0.27 0 0.4a1 1 0 0 0 0.07 0.28 1.08 1.08 0 0 0 0.57 0.46 5.37 5.37 0 0 0 1 0.15h0.03v0.47c0 0.25 -0.05 0.7 0 1.07a1.5 1.5 0 0 0 0.17 0.68 1.35 1.35 0 0 0 0.61 0.55c0 0.15 -0.06 0.31 -0.08 0.47a4.73 4.73 0 0 0 0 0.52 2.5 2.5 0 0 0 0 0.38 0.46 0.46 0 0 0 0.15 0.25 0.76 0.76 0 0 0 0.28 0.16 2.58 2.58 0 0 0 0.45 0.05h0.58l0.57 -0.08c0.05 0 0.48 -0.09 0.45 -0.5 0 -0.12 -0.07 -0.39 -0.07 -0.42l-0.07 -0.63 0.62 0a7.59 7.59 0 0 0 1.42 -0.28L7 11.3l-0.13 1.07a3.15 3.15 0 0 0 0 0.39 0.47 0.47 0 0 0 0.21 0.36 0.7 0.7 0 0 0 0.43 0.13 3.24 3.24 0 0 0 0.49 -0.07l0.67 -0.12A1.12 1.12 0 0 0 9 13a0.51 0.51 0 0 0 0.36 -0.32 1.79 1.79 0 0 0 0 -0.57c0 -0.34 -0.15 -0.7 -0.2 -1A0.33 0.33 0 0 0 9.1 11l0.06 0a0.32 0.32 0 0 0 0.32 -0.32c0 -0.49 0.1 -1.29 0.17 -2.15a5.15 5.15 0 0 0 0.91 -0.4 1.34 1.34 0 0 0 0.4 -0.51 1.19 1.19 0 0 0 0.04 -0.57 3.93 3.93 0 0 0 0 -0.46ZM6.12 6 6 5.78l0.55 -0.07c0.4 -0.09 0.83 -0.19 1.26 -0.25a5.23 5.23 0 0 1 0.78 0A6.57 6.57 0 0 1 8.82 7s0 0.1 0 0.15 -0.06 0 -0.09 0A26.42 26.42 0 0 1 6.05 7a4 4 0 0 0 0.11 -0.5 0.7 0.7 0 0 0 0 -0.25A1.84 1.84 0 0 0 6.12 6Zm-3.51 -0.75A2.8 2.8 0 0 1 5.4 3.38a3.74 3.74 0 0 1 1.38 0.31 3.6 3.6 0 0 1 1.38 1l-0.38 0 -1.36 0 -0.92 0.07c-0.32 0 -0.63 0.07 -0.94 0.12a15.21 15.21 0 0 0 -1.89 0.43 0.28 0.28 0 0 0 -0.23 0.32 0.3 0.3 0 0 0 0.33 0.23l2.24 0h0.15a2.16 2.16 0 0 0 0 0.27 0.65 0.65 0 0 0 0 0.24 1.05 1.05 0 0 0 0.06 0.24 2.66 2.66 0 0 0 0.11 0.39h-0.59c-0.56 0.06 -1.1 0.21 -1.66 0.29a3 3 0 0 1 -0.52 0l-0.14 -1.88a0.24 0.24 0 0 0 0.19 -0.16Zm1.29 7 -0.66 0c0 -0.14 -0.07 -0.28 -0.1 -0.43s0 -0.12 0 -0.18a7.78 7.78 0 0 0 0.78 0H4Zm2.59 -1.72a6.77 6.77 0 0 1 -1.27 0.14 11.39 11.39 0 0 1 -1.31 0 6 6 0 0 1 -0.8 -0.06c-0.15 0 -0.3 -0.06 -0.37 -0.19l0 -0.54 0.08 0H3c0.29 -0.05 0.55 -0.17 0.82 -0.24a0.32 0.32 0 1 0 0 -0.63 4.4 4.4 0 0 0 -0.62 -0.18 1 1 0 0 0 -0.29 0 0.82 0.82 0 0 0 -0.27 0.06l-0.07 -1a4.34 4.34 0 0 0 0.55 0.11l1.62 0 1.19 0 0.82 0a14.76 14.76 0 0 0 2.06 -0.2l0 0.94 -0.23 -0.1 -0.2 0a0.37 0.37 0 0 0 -0.21 0s-0.75 0.3 -0.69 0.61c0 0.06 0 0.2 0.73 0.4l0.17 0a1.72 1.72 0 0 0 0.42 -0.13v0.85c-0.54 0.08 -1.23 0.06 -1.83 0.11a4 4 0 0 0 -0.48 0.08Zm2 1.43v0.07l-0.63 0.06 -0.14 0.06 -0.18 -1c0.34 0 0.68 -0.07 1 -0.12l0 0.06c-0.02 0.31 0 0.61 -0.02 0.91Z" fill="#020202" fill-rule="evenodd" stroke-width="1"></path>
    <path d="M23.47 8.11a4.23 4.23 0 0 0 -4 -1.44 3.83 3.83 0 0 0 -3.33 2.6 3.94 3.94 0 0 0 0.17 2.28 22.41 22.41 0 0 0 1.47 2.75 10.09 10.09 0 0 0 1.14 1.7A4.39 4.39 0 0 0 20 17a0.32 0.32 0 0 0 0.21 0 0.36 0.36 0 0 0 0.11 0.14 0.32 0.32 0 0 0 0.44 -0.07c0.41 -0.55 0.78 -1.11 1.13 -1.69s0.64 -1.18 0.93 -1.8A12.35 12.35 0 0 0 24 10.49a3.17 3.17 0 0 0 -0.53 -2.38ZM23 10.37a11.08 11.08 0 0 1 -0.93 2.9 17.88 17.88 0 0 1 -0.81 1.73c-0.27 0.51 -0.57 1 -0.9 1.51l-0.06 -0.05a3.61 3.61 0 0 1 -0.89 -0.85 8.89 8.89 0 0 1 -0.95 -1.61 21.13 21.13 0 0 1 -1.27 -2.71 2.91 2.91 0 0 1 -0.06 -1.73 2.8 2.8 0 0 1 2.51 -1.79 3.2 3.2 0 0 1 3 1 2.2 2.2 0 0 1 0.36 1.6Z" fill="#020202" fill-rule="evenodd" stroke-width="1"></path>
    <path d="M21.24 9.64a2.14 2.14 0 0 0 -0.24 -0.32 0.32 0.32 0 0 0 -0.45 0 0.3 0.3 0 0 0 0 0.44l0.13 0.21a0.89 0.89 0 0 1 0 0.14c0 0.29 -0.2 0.41 -0.41 0.46a0.74 0.74 0 0 1 -0.42 0 0.25 0.25 0 0 1 -0.17 -0.32l0.08 -0.3a1.84 1.84 0 0 1 0.24 -0.29 1.17 1.17 0 0 1 0.26 -0.17 0.27 0.27 0 0 0 0.18 -0.35 0.27 0.27 0 0 0 -0.39 -0.14 1.65 1.65 0 0 0 -0.44 0.16 1.78 1.78 0 0 0 -0.39 0.24 1 1 0 0 0 -0.22 0.23 1.68 1.68 0 0 0 -0.2 0.34 1.19 1.19 0 0 0 1.31 1.69A1.32 1.32 0 0 0 21.39 10a1.33 1.33 0 0 0 -0.15 -0.36Z" fill="#020202" fill-rule="evenodd" stroke-width="1"></path>
    <path d="M22.68 17.84a0.32 0.32 0 0 0 -0.44 -0.08c-0.55 0.3 -1.14 0.57 -1.7 0.9l-0.28 0.18 -0.41 -0.23 -1.41 -0.86a0.28 0.28 0 0 0 -0.39 0.05 0.27 0.27 0 0 0 0 0.39c0.28 0.29 0.52 0.6 0.8 0.89a5 5 0 0 0 0.41 0.38l0.07 0.05A7 7 0 0 0 18 21.12a0.28 0.28 0 0 0 0.05 0.39 0.27 0.27 0 0 0 0.39 -0.05 10.79 10.79 0 0 1 1.46 -1.11l0.39 -0.28a16 16 0 0 1 1.79 0.81 0.33 0.33 0 0 0 0.45 -0.07 0.32 0.32 0 0 0 -0.07 -0.44 9.17 9.17 0 0 0 -1.28 -1c0.47 -0.36 0.94 -0.74 1.38 -1.12a0.32 0.32 0 0 0 0.12 -0.41Z" fill="#020202" fill-rule="evenodd" stroke-width="1"></path>
    <path d="M5.54 15.86c0.07 0 0.32 0.06 0.5 -0.85a0.85 0.85 0 0 0 0 -0.23 0.87 0.87 0 0 0 -0.04 -0.22c0 -0.08 -0.34 -0.76 -0.58 -0.74s-0.43 0.81 -0.43 0.83a0.45 0.45 0 0 0 0 0.2 1.55 1.55 0 0 0 0 0.21c0.29 0.79 0.4 0.79 0.55 0.8Z" fill="#4C57E6" fill-rule="evenodd" stroke-width="1"></path>
    <path d="M6.88 18.64a1.69 1.69 0 0 1 -0.45 -0.33s-0.06 -0.1 -0.1 -0.14A1.07 1.07 0 0 1 6.2 18a3.17 3.17 0 0 1 -0.28 -0.63 0.27 0.27 0 0 0 -0.27 -0.28 0.28 0.28 0 0 0 -0.29 0.27 2.36 2.36 0 0 0 -0.14 0.93 1.1 1.1 0 0 0 0.19 0.46 1 1 0 0 0 0.23 0.26 1.9 1.9 0 0 0 1.1 0.29 0.32 0.32 0 0 0 0.38 -0.3 0.3 0.3 0 0 0 -0.24 -0.36Z" fill="#4C57E6" fill-rule="evenodd" stroke-width="1"></path>
    <path d="M9.3 18.75a0.57 0.57 0 0 0 -0.18 0 0.65 0.65 0 0 0 -0.2 0s-0.72 0.27 -0.71 0.54c0 0 -0.06 0.23 0.71 0.48a0.57 0.57 0 0 0 0.18 0l0.18 0c0.66 -0.19 0.75 -0.3 0.76 -0.49S10 19 9.3 18.75Z" fill="#4C57E6" fill-rule="evenodd" stroke-width="1"></path>
    <path d="m13 18.87 -0.25 0a0.72 0.72 0 0 0 -0.25 0s-0.88 0.26 -0.83 0.58c0 0.08 0 0.22 0.84 0.44l0.22 0 0.23 0c0.86 -0.17 0.9 -0.32 0.9 -0.48s0.01 -0.31 -0.86 -0.54Z" fill="#4C57E6" fill-rule="evenodd" stroke-width="1"></path>
    <path d="M16.79 18.83a0.74 0.74 0 0 0 -0.33 0c-0.25 0.06 -0.86 0.41 -0.74 0.72 0 0.06 0 0.14 0.74 0.32a0.41 0.41 0 0 0 0.16 0c0.17 0 1 -0.24 0.95 -0.62 -0.01 -0.06 0.01 -0.25 -0.78 -0.42Z" fill="#4C57E6" fill-rule="evenodd" stroke-width="1"></path>
  </g>
</svg>