<svg xmlns="http://www.w3.org/2000/svg" viewBox="0 0 24 24" id="Bus-School--Streamline-Freehand">
  <desc>
    Bus School Streamline Icon: https://streamlinehq.com
  </desc>
  <g>
    <path d="M24 13.45a15.81 15.81 0 0 0 -0.26 -2 0.33 0.33 0 0 0 -0.31 -0.29V11a16.66 16.66 0 0 0 0.21 -3.22 3.68 3.68 0 0 0 -0.86 -2.18 2 2 0 0 0 -0.78 -0.5 6.21 6.21 0 0 0 -1.14 -0.26c-0.5 -0.08 -1 -0.13 -1.49 -0.17 -0.74 -0.06 -1.48 -0.07 -2.21 -0.09l-1.7 0c-1.29 0.06 -2.57 0.21 -3.87 0.25l-4.34 0c-0.9 0 -1.76 0.23 -2.64 0.27h-0.37a0.29 0.29 0 0 0 -0.24 0.04 2 2 0 0 1 -0.36 0H3.5a0.31 0.31 0 0 0 -0.19 0l-0.16 0a1 1 0 0 0 -0.49 0.22 1.47 1.47 0 0 0 -0.42 0.66 3.87 3.87 0 0 0 -0.19 1l-0.19 3.36c0 0.49 0 1 -0.05 1.47a1.27 1.27 0 0 0 -0.12 -0.1l-0.16 -0.09 -0.18 0 -0.19 0 0 -0.71c0 -0.24 0 -0.73 -0.07 -1.09A7.78 7.78 0 0 1 1 8.33a0.29 0.29 0 1 0 -0.56 -0.16 5.31 5.31 0 0 0 -0.45 2 6.38 6.38 0 0 0 0.1 1.15c0.09 0.58 0.25 1.12 0.32 1.65a0.34 0.34 0 0 0 0.34 0.33 0.33 0.33 0 0 0 0.33 -0.34 1.09 1.09 0 0 0 0 -0.18 0.18 0.18 0 0 0 0.09 0 0.4 0.4 0 0 0 0.19 0 2.7 2.7 0 0 0 0.41 -0.05l0 0.49a10.93 10.93 0 0 0 0.19 2 8.62 8.62 0 0 0 0.21 1.09 1.39 1.39 0 0 0 0.33 0.57 2.11 2.11 0 0 0 0.93 0.52 3.48 3.48 0 0 0 1.07 0.1 2.12 2.12 0 0 0 0.5 1.18 1.89 1.89 0 0 0 1.73 0.65 2.07 2.07 0 0 0 1.56 -1.19 2.29 2.29 0 0 0 0.18 -0.56c0.92 0.08 1.83 0.22 2.76 0.3 0.41 0 0.82 0.06 1.23 0.07s0.83 0 1.24 0c1 0 1.93 -0.11 2.9 -0.22a0.33 0.33 0 0 0 0.23 -0.12 2 2 0 0 0 0.25 0.71 2.16 2.16 0 0 0 1.16 1 1.75 1.75 0 0 0 2.16 -0.84 2.24 2.24 0 0 0 0.26 -1.17 0.34 0.34 0 0 0 0.19 0.07c0.4 0 1 0.13 1.45 0.14a2.12 2.12 0 0 0 0.78 -0.15 1.38 1.38 0 0 0 0.7 -0.71 3.1 3.1 0 0 0 0.22 -1.17l0 -2.04Zm-1.2 -5.3a17.11 17.11 0 0 1 -0.1 2.81 0.41 0.41 0 0 0 -0.16 0l-2 0h-1.12l0.25 -0.91a5.08 5.08 0 0 0 0 -0.87 6 6 0 0 0 -0.14 -0.85h0.66c0.82 0 1.63 -0.13 2.45 -0.19ZM7.33 17.64a1.09 1.09 0 0 1 -0.77 0.57 0.9 0.9 0 0 1 -0.78 -0.21 1.26 1.26 0 0 1 -0.38 -0.9 1.08 1.08 0 0 1 0.21 -0.68 0.61 0.61 0 0 1 0.58 -0.27 0.29 0.29 0 0 0 0.27 -0.15 0.63 0.63 0 0 1 0.56 0.12 1.09 1.09 0 0 1 0.46 0.47 1.22 1.22 0 0 1 -0.15 1.05ZM23 13.07c0 0.47 -0.07 0.94 -0.1 1.42 0 0.31 0 0.63 -0.06 0.95a3.37 3.37 0 0 1 -0.06 0.7 0.57 0.57 0 0 1 -0.2 0.38 1.37 1.37 0 0 1 -0.57 0.18c-0.43 0.05 -0.9 0 -1.24 0.09a0.27 0.27 0 0 0 -0.21 0.13 1.74 1.74 0 0 0 -0.3 -0.61A1.21 1.21 0 0 0 20 16a3.68 3.68 0 0 0 -0.49 -0.23 0.35 0.35 0 0 0 -0.44 0.16 0.34 0.34 0 0 0 0.15 0.45l0.32 0.18a0.69 0.69 0 0 1 0.16 0.18 1.15 1.15 0 0 1 -0.17 1.26 0.74 0.74 0 0 1 -0.91 0.3 1.21 1.21 0 0 1 -0.61 -0.5 1.23 1.23 0 0 1 -0.23 -0.78 1.67 1.67 0 0 1 0.31 -0.88 0.81 0.81 0 0 1 0.72 -0.36 0.3 0.3 0 0 0 0.34 -0.25 0.29 0.29 0 0 0 -0.24 -0.34 1.46 1.46 0 0 0 -1.16 0.25 2.51 2.51 0 0 0 -0.92 1.42l0 0.33a0.35 0.35 0 0 0 -0.24 -0.1A51.15 51.15 0 0 0 8.48 17a1.88 1.88 0 0 0 -0.19 -0.73 2 2 0 0 0 -1.15 -0.88 1.22 1.22 0 0 0 -1 0.1 1.33 1.33 0 0 0 -1 0.39 1.83 1.83 0 0 0 -0.48 0.91 2.63 2.63 0 0 1 -0.74 -0.09 1.4 1.4 0 0 1 -0.74 -0.43 0.6 0.6 0 0 1 -0.18 -0.34c-0.06 -0.3 0 -0.64 -0.08 -0.88a12.09 12.09 0 0 1 0 -1.34l0 -1.78L3 12c0.48 0 0.91 0.14 1.38 0.18a8 8 0 0 0 1 0l1.58 -0.4a0.33 0.33 0 0 0 0.35 -0.31 0.29 0.29 0 0 0 0 -0.16 0.21 0.21 0 0 0 0.11 0 0.32 0.32 0 0 0 0.32 -0.31 4.52 4.52 0 0 0 0.12 -0.64c0 -0.31 0 -0.62 0.07 -0.92a6 6 0 0 0 0 -1.75 1.73 1.73 0 0 0 -0.48 -0.84 1.14 1.14 0 0 0 -0.62 -0.28 3.84 3.84 0 0 0 -0.93 0.08c-0.6 0.17 -1.2 0.25 -1.78 0.35a8.08 8.08 0 0 0 -1.21 0.37v-0.28a3 3 0 0 1 0 -0.66 0.86 0.86 0 0 1 0.22 -0.43 0.61 0.61 0 0 1 0.27 -0.12 2.35 2.35 0 0 1 0.37 0 7.86 7.86 0 0 0 0.83 0c0.88 0 1.75 -0.13 2.65 -0.12l4.35 0.18 5.52 -0.18 1.8 0c0.6 0 1.19 0 1.77 0.12a5.79 5.79 0 0 1 0.8 0.13 1.14 1.14 0 0 1 0.55 0.27 2.56 2.56 0 0 1 0.63 1.22c-0.81 -0.09 -1.61 -0.2 -2.42 -0.24l-1.62 0c-0.54 0 -1 0 -1.52 0.07a5.36 5.36 0 0 0 -0.7 0.09 0.33 0.33 0 0 0 -0.21 0.13s-0.06 0 -0.09 0a0.29 0.29 0 0 0 -0.31 0.29l-0.35 2.34c0 0.17 -0.1 0.47 -0.12 0.72a1 1 0 0 0 0.1 0.55 1.18 1.18 0 0 0 0.7 0.56 4.83 4.83 0 0 0 1.35 0.13c0.67 0 1.36 0 2.05 -0.09 1 -0.08 2 -0.22 3 -0.37l0.06 0 -0.06 0.93a0.33 0.33 0 0 0 0.46 0.36 1.2 1.2 0 0 1 0.01 0.1ZM7 8.39c0.06 0.38 0.06 0.77 0.09 1.09s0 0.59 0.06 0.88a5 5 0 0 1 0 0.55 0.3 0.3 0 0 0 0 0.21 0.44 0.44 0 0 0 -0.15 -0.06L5.28 11l-0.92 0a7 7 0 0 0 -1.41 0.3l0 -0.92L2.93 8a0.25 0.25 0 0 0 0.17 0 5.66 5.66 0 0 1 0.84 -0.12c0.69 -0.06 1.39 0 2.08 -0.06 0.18 0 0.74 -0.25 0.68 0a1.18 1.18 0 0 1 0.3 0.57ZM18.66 11l-1.17 0 -0.65 0c-0.67 0 -0.47 -0.14 -0.47 -0.76l0 -2.21 0.08 0a4.07 4.07 0 0 1 0.61 0c0.51 0.07 1 0.21 1.52 0.28h0.2a7.7 7.7 0 0 0 -0.18 0.86l0 0.79Z" fill="#020202" fill-rule="evenodd" stroke-width="1"></path>
    <path d="M14.33 11.83a15.16 15.16 0 0 0 0.09 -2.16 3.19 3.19 0 0 0 -0.27 -1 1.29 1.29 0 0 0 -1 -0.64A7.52 7.52 0 0 0 11.5 8l-0.75 0.05a2 2 0 0 0 -0.75 0.35 1 1 0 0 0 -0.31 0.42 2.52 2.52 0 0 0 -0.16 0.79l0 1.54 0 2.4c0 0.8 0.07 1.36 0.11 2 0.12 1 0.56 0.91 0.7 0l0 -2c0 -0.64 0.08 -1.55 0.17 -2.31 0 -0.47 0 -1 0.07 -1.53a2.07 2.07 0 0 1 0.1 -0.43c-0.07 -0.06 0.19 -0.08 0.27 -0.1l0.57 0c0.22 0 0.66 -0.08 1.08 -0.08a1.78 1.78 0 0 1 0.41 0h0.09a2.33 2.33 0 0 1 0.21 0.9l0 1.75c0 0.72 0 1.45 0.06 2.17 0 0.54 0.06 1.07 0.09 1.61 0.15 1 0.56 1.08 0.75 0v-1.02c0.06 -0.9 0.08 -1.79 0.12 -2.68Z" fill="#4C57E6" fill-rule="evenodd" stroke-width="1"></path>
  </g>
</svg>