<svg xmlns="http://www.w3.org/2000/svg" viewBox="0 0 24 24" id="Business-Workflow-Data-Table-Disable--Streamline-Freehand">
  <desc>
    Business Workflow Data Table Disable Streamline Icon: https://streamlinehq.com
  </desc>
  <g>
    <path d="M23.55 15.47A5.09 5.09 0 0 0 21.36 13a6.07 6.07 0 0 0 -3.17 -0.85 8.29 8.29 0 0 0 -3.51 0.86A6 6 0 0 0 12 15.55a6.39 6.39 0 0 0 -0.4 4.29 5.13 5.13 0 0 0 2.49 3.46 5.69 5.69 0 0 0 1.76 0.51 6.09 6.09 0 0 0 1.81 0 0.27 0.27 0 0 0 0.24 -0.32 0.28 0.28 0 0 0 -0.32 -0.24 5.68 5.68 0 0 1 -1.64 0 5.22 5.22 0 0 1 -1.53 -0.52 3 3 0 0 1 -0.88 -0.71c1.08 -0.86 2.16 -1.74 3.17 -2.7 0.67 -0.62 1.3 -1.27 1.93 -1.93 0.94 -1 1.84 -2 2.78 -3a4.11 4.11 0 0 1 1.2 1.51 4.9 4.9 0 0 1 0.13 3.66 5.25 5.25 0 0 1 -2.41 2.84 6.91 6.91 0 0 1 -1 0.45 2.18 2.18 0 0 1 -0.65 0.12 0.32 0.32 0 0 0 0 0.64 2.88 2.88 0 0 0 0.85 -0.13 6.49 6.49 0 0 0 1.18 -0.48 6 6 0 0 0 2.86 -3.16 5.76 5.76 0 0 0 -0.02 -4.37ZM18 16.53c-0.42 0.39 -0.83 0.78 -1.23 1.18s-0.81 0.8 -1.2 1.21c-0.81 0.86 -1.59 1.72 -2.4 2.56a5.11 5.11 0 0 1 -0.72 -1.82 5.45 5.45 0 0 1 0.48 -3.66 5 5 0 0 1 2.23 -2 7.25 7.25 0 0 1 3.06 -0.74 5.18 5.18 0 0 1 2.7 0.72C20 14.8 19 15.65 18 16.53Z" fill="#020202" stroke-width="1"></path>
    <g>
      <path d="m1.07 6.36 0 -1c1 -0.08 2 -0.15 3 -0.2S6 5.1 7 5.06L9.66 5l0.62 0 4 -0.19 0.64 0c1.18 -0.06 2.37 -0.11 3.55 -0.15a0.32 0.32 0 1 0 0 -0.64c-2.18 0 -4.35 -0.11 -6.52 -0.09 -1.45 0 -2.9 0 -4.34 0.14 -2.2 0.15 -4.38 0.43 -6.57 0.77a13.08 13.08 0 0 1 0.09 -1.42c0 -0.2 0.09 -0.52 0.18 -0.82a1.14 1.14 0 0 1 0.3 -0.6 3.26 3.26 0 0 1 1.53 -0.46c1 -0.14 2.22 -0.15 2.82 -0.19 1.76 -0.1 3.56 -0.19 5.34 -0.2 1.19 0 2.37 0 3.55 0.11 0.5 0 1.45 0 2.29 0.09a1.89 1.89 0 0 1 1.17 0.37 6.16 6.16 0 0 1 0.53 2.69c0.09 1.07 0.14 2.28 0.16 3.41v0.64l0 2a0.32 0.32 0 0 0 0.64 0c0 -0.77 0.11 -3.42 -0.07 -6.14a7 7 0 0 0 -0.69 -3.23 2.32 2.32 0 0 0 -1.23 -0.57c-0.93 -0.19 -5.13 -0.38 -6.34 -0.39C9.5 0.11 7.69 0.18 5.9 0.26a27 27 0 0 0 -3.41 0.27 3.46 3.46 0 0 0 -1.58 0.62 1.62 1.62 0 0 0 -0.44 0.65 6.58 6.58 0 0 0 -0.35 1.35A23 23 0 0 0 0 6.37c0.05 2.72 0.26 6.24 0.28 7.29A4.49 4.49 0 0 0 0.72 16a2.08 2.08 0 0 0 1.5 0.84 24.94 24.94 0 0 0 2.8 0c1.69 -0.05 4.22 -0.2 4.39 -0.21a0.27 0.27 0 0 0 0.27 -0.29 0.29 0.29 0 0 0 -0.29 -0.27l-0.77 0 -0.67 0 -2.94 0A22.79 22.79 0 0 1 2.36 16a1.36 1.36 0 0 1 -0.95 -0.52Z" fill="#020202" stroke-width="1"></path>
      <path d="M13.12 11.54c-0.42 -0.37 -1.58 -0.15 -2.53 -0.17l0 -0.38 0 -1.5 0 -0.68 1.68 0c0.7 0 1.39 -0.07 2.09 -0.11l0 0.28c0.06 0.67 0.15 1.31 0.2 1.89s1 0.48 0.8 -0.6a12.64 12.64 0 0 0 0 -1.63l2.35 -0.17c0.91 -0.18 1.06 -0.39 0 -0.68h-2.4c0 -0.29 0 -0.59 -0.05 -0.87s-0.1 -0.83 -0.14 -1.22c-0.37 -0.91 -0.64 -0.92 -0.82 0a14.85 14.85 0 0 0 -0.06 1.52l0 0.53 -3.36 0h-0.38c0 -0.63 -0.07 -1.25 -0.1 -1.88 -0.45 -0.69 -0.69 -0.62 -0.76 0s-0.1 1.24 -0.12 1.87l-1.3 0c-1.52 0.08 -3 0.09 -4.57 0.17 -0.49 0 -1 0.08 -1.45 0.13 -0.85 0.17 -0.69 0.4 0 0.65l0.68 0c1.78 0 3.57 0.1 5.34 0.12l1.27 0 0 0.68c0 0.5 0 1 0.07 1.51l0 0.35c-1 0 -2 0 -2.94 0.06 -1.42 0.07 -2.86 0.24 -4.34 0.42 -0.68 0.21 -0.78 0.44 0 0.69l3.78 -0.06c1.14 0 2.27 -0.05 3.41 -0.09h0.14c0.06 0.71 0.13 1.42 0.18 2.13a0.31 0.31 0 0 0 0.33 0.3 0.31 0.31 0 0 0 0.3 -0.32l0 -2.15c0.68 0 1 -0.09 1.72 -0.12s1.4 -0.3 0.98 -0.67Z" fill="#4C57E6" stroke-width="1"></path>
    </g>
  </g>
</svg>