<svg xmlns="http://www.w3.org/2000/svg" viewBox="0 0 24 24" id="Business-Coaching-Target--Streamline-Freehand">
  <desc>
    Business Coaching Target Streamline Icon: https://streamlinehq.com
  </desc>
  <g>
    <g>
      <path d="M17.06 17.7a0.29 0.29 0 1 0 -0.57 0 10.84 10.84 0 0 0 -0.25 1.13 2.63 2.63 0 0 0 0 0.49 4 4 0 0 0 0 0.49c0.05 0.39 0.14 0.74 0.21 1.13a0.31 0.31 0 0 0 0.33 0.31 0.32 0.32 0 0 0 0.31 -0.33c0.05 -0.37 0.12 -0.74 0.16 -1.12l0 -0.48a3.87 3.87 0 0 0 0 -0.48c-0.03 -0.41 -0.13 -0.76 -0.19 -1.14Z" fill="#020202" stroke-width="1"></path>
      <path d="M23.93 10.62a2.17 2.17 0 0 0 -1.5 -0.9 1.42 1.42 0 0 0 -0.46 0 2.06 2.06 0 0 0 -0.63 0.18 3 3 0 0 0 -0.79 0.57A4 4 0 0 0 16.78 8a4.51 4.51 0 0 0 -4.66 4.24 3.83 3.83 0 0 0 2.36 3.71 11.33 11.33 0 0 0 -1.76 1.24 6.21 6.21 0 0 0 -1.24 1.42 4.13 4.13 0 0 0 -0.66 3.13 0.32 0.32 0 1 0 0.63 -0.09 3.68 3.68 0 0 1 0.9 -2.45 13 13 0 0 1 1.08 -1.27 23.58 23.58 0 0 1 1.79 -1.73 5.38 5.38 0 0 0 1.32 0.19 0.27 0.27 0 0 0 0.3 -0.26 0.28 0.28 0 0 0 -0.26 -0.3c-2.58 -0.24 -3.67 -1.9 -3.58 -3.55a3.17 3.17 0 0 1 0.17 -0.8l0.44 0.2a8.65 8.65 0 0 0 1.55 0.41c0.42 0.06 0.85 0.12 1.29 0.15a8.34 8.34 0 0 0 1.32 -0.06 7.18 7.18 0 0 0 2.23 -0.56 5.4 5.4 0 0 1 0.1 0.58 3.26 3.26 0 0 1 -2.66 3.8 0.33 0.33 0 0 0 -0.28 0.36 0.31 0.31 0 0 0 0.35 0.28 3.57 3.57 0 0 0 1.49 -0.43 8.46 8.46 0 0 1 1 1.28c0.17 0.25 0.33 0.5 0.48 0.77s0.3 0.52 0.43 0.8a12 12 0 0 1 0.79 2.07 0.33 0.33 0 0 0 0.38 0.25 0.32 0.32 0 0 0 0.25 -0.37 10.92 10.92 0 0 0 -0.48 -2.33 6 6 0 0 0 -0.43 -1 4.63 4.63 0 0 0 -0.61 -0.86 6.44 6.44 0 0 0 -1.23 -1.07c1.58 -0.95 1.35 -3.75 1.35 -3.79l0.15 0.16 0.46 0.48 0.31 0.31a2.51 2.51 0 0 1 0.51 0.77 0.32 0.32 0 0 0 0.64 -0.08 3 3 0 0 0 -0.44 -1.36 2.74 2.74 0 0 0 -0.36 -0.48 2.38 2.38 0 0 0 -0.45 -0.39 3.32 3.32 0 0 0 -0.68 -0.34c0.21 -0.07 0.43 -0.12 0.64 -0.17a3.17 3.17 0 0 1 0.68 -0.09 1.64 1.64 0 0 1 1.1 0.3 0.33 0.33 0 0 0 0.45 0 0.31 0.31 0 0 0 -0.01 -0.45Zm-5.71 0.57 -1.45 0 -1.47 -0.09a10.25 10.25 0 0 1 -1.45 -0.1 2.36 2.36 0 0 1 -0.38 -0.1 3.71 3.71 0 0 1 3.33 -1.83A3 3 0 0 1 19.72 11a7.55 7.55 0 0 1 -1.5 0.19Z" fill="#020202" stroke-width="1"></path>
      <path d="M6.91 6.93a5.12 5.12 0 0 1 1.42 -0.65 2.88 2.88 0 0 1 2.16 0.26 2.48 2.48 0 0 1 1.26 1.76 0.31 0.31 0 0 0 0.36 0.27 0.32 0.32 0 0 0 0.27 -0.36 3.19 3.19 0 0 0 -1.49 -2.34 3.79 3.79 0 0 0 -2.77 -0.49 5.83 5.83 0 0 0 -1.78 0.73c-0.8 0.72 -0.56 0.97 0.57 0.82ZM4 9a3.43 3.43 0 0 0 -0.08 0.56 3.14 3.14 0 0 0 0.1 1 5.91 5.91 0 0 0 0.52 1.23 4.07 4.07 0 0 0 0.63 0.85 2.93 2.93 0 0 0 0.87 0.64 3.52 3.52 0 0 0 1.15 0.32 4.35 4.35 0 0 0 1.14 0 8.43 8.43 0 0 0 1.34 -0.31 7.5 7.5 0 0 0 1.25 -0.59 0.28 0.28 0 0 0 0.1 -0.38 0.27 0.27 0 0 0 -0.38 -0.11 5.5 5.5 0 0 1 -1.16 0.46 6.31 6.31 0 0 1 -1.23 0.2 4.38 4.38 0 0 1 -1 -0.06 3 3 0 0 1 -0.85 -0.31 2.29 2.29 0 0 1 -0.58 -0.49 3.4 3.4 0 0 1 -0.43 -0.68 6 6 0 0 1 -0.35 -0.86 2.41 2.41 0 0 1 -0.1 -0.8 1.24 1.24 0 0 1 0 -0.27C5.05 8.23 4.29 8.14 4 9Z" fill="#4C57E6" stroke-width="1"></path>
      <path d="M11.48 15.22a0.29 0.29 0 0 0 -0.31 -0.25A17.37 17.37 0 0 1 7 15a4.9 4.9 0 0 1 -2.32 -1 5.7 5.7 0 0 1 -1.9 -2.26 5.68 5.68 0 0 1 -0.43 -3 0.33 0.33 0 0 0 -0.27 -0.37 0.32 0.32 0 0 0 -0.36 0.28A6.31 6.31 0 0 0 2 12.12a6.56 6.56 0 0 0 2.07 2.77A5.44 5.44 0 0 0 6.92 16a16 16 0 0 0 4.31 -0.46 0.28 0.28 0 0 0 0.25 -0.32Z" fill="#4C57E6" stroke-width="1"></path>
      <path d="M5.52 3.9A7.78 7.78 0 0 1 8.1 3a7.2 7.2 0 0 1 2.65 0.1 6.76 6.76 0 0 1 1.83 0.66A5.22 5.22 0 0 1 14.12 5a2.37 2.37 0 0 1 0.58 2.27 0.33 0.33 0 0 0 0.2 0.41 0.33 0.33 0 0 0 0.41 -0.21 3.1 3.1 0 0 0 -0.51 -3 5.5 5.5 0 0 0 -1.72 -1.52A7.06 7.06 0 0 0 11 2.09a7.82 7.82 0 0 0 -3 0.11 7.94 7.94 0 0 0 -2.7 1.22 0.28 0.28 0 0 0 -0.1 0.39 0.29 0.29 0 0 0 0.32 0.09Z" fill="#4C57E6" stroke-width="1"></path>
    </g>
    <path d="M8.43 10A18.93 18.93 0 0 0 7 8.37a7.92 7.92 0 0 0 -0.69 -0.61l-0.21 -0.19L5.22 7c-0.31 -0.2 -0.63 -0.39 -1 -0.57a0.35 0.35 0 0 1 0 -0.07v-0.8c0 -0.1 0.09 -0.27 0.11 -0.4a0.76 0.76 0 0 0 0 -0.3 0.89 0.89 0 0 0 -0.22 -0.43 3.06 3.06 0 0 0 -0.48 -0.38L2.6 3.41 1.89 3a0.5 0.5 0 0 0 -0.49 0.09 4 4 0 0 0 -0.4 0.52L0.09 5.27c-0.31 0.37 0.09 0.64 0.21 0.7a5.87 5.87 0 0 1 0.79 0.47c0.4 0.26 0.77 0.56 1.14 0.85a0.57 0.57 0 0 0 0.48 0c0.15 -0.06 0.49 -0.26 0.55 -0.29l0.39 -0.16 0.93 0.81 0.82 0.71 0.25 0.21c0.22 0.19 0.45 0.38 0.69 0.55 0.55 0.43 1.12 0.83 1.67 1.28a0.28 0.28 0 1 0 0.4 -0.38Zm-5.2 -4s-0.6 0.41 -0.7 0.5c-0.36 -0.21 -0.72 -0.41 -1.1 -0.6s-0.49 -0.28 -0.74 -0.38c0 0 1.06 -1.47 1.11 -1.5l0.27 0.19 1.26 0.84 -0.1 0.95Z" fill="#020202" stroke-width="1"></path>
  </g>
</svg>