<svg xmlns="http://www.w3.org/2000/svg" viewBox="0 0 24 24" id="Business-Product-Supply-Chain--Streamline-Freehand">
  <desc>
    Business Product Supply Chain Streamline Icon: https://streamlinehq.com
  </desc>
  <g>
    <path d="m16.76 20 -0.1 0c-0.14 -0.36 -0.26 -0.71 -0.4 -1.06a4.25 4.25 0 0 0 -0.21 -0.49 4.45 4.45 0 0 0 -0.26 -0.48c-0.22 -0.37 -0.47 -0.7 -0.7 -1.07a0.28 0.28 0 0 0 -0.36 -0.16 0.29 0.29 0 0 0 -0.16 0.36 9 9 0 0 0 0.31 1.29 4 4 0 0 0 0.21 0.52 4.85 4.85 0 0 0 0.29 0.49 8.4 8.4 0 0 0 0.67 0.9 1.57 1.57 0 0 0 -0.63 1.48c0.21 1.61 2.12 1.51 2.82 0.91a1.41 1.41 0 0 0 0.38 -0.53 1.57 1.57 0 0 0 -0.32 -1.58 1.75 1.75 0 0 0 -1.54 -0.58Zm1.09 2a0.61 0.61 0 0 1 -0.19 0.33 0.77 0.77 0 0 1 -1.36 -0.52 0.72 0.72 0 0 1 0.66 -0.71 0.71 0.71 0 0 1 0.62 0.24 0.69 0.69 0 0 1 0.27 0.66Z" fill="#4C57E6" stroke-width="1"></path>
    <path d="M22.64 9.78a1.75 1.75 0 0 0 -1.54 0.62 1.81 1.81 0 0 0 -0.33 0.61 2.94 2.94 0 0 0 -1.51 0c-0.84 0.37 -0.7 0.63 0 0.84a4.06 4.06 0 0 0 1.47 -0.1c0 0.07 0 0.15 0.05 0.23a1.52 1.52 0 0 0 0.38 0.53c0.71 0.6 2.61 0.7 2.83 -0.91a1.66 1.66 0 0 0 -1.35 -1.82Zm-0.91 2.28a0.69 0.69 0 0 1 -0.19 -0.33 0.89 0.89 0 0 1 0.9 -0.9 0.74 0.74 0 0 1 0.67 0.71 0.78 0.78 0 0 1 -1.38 0.52Z" fill="#4C57E6" stroke-width="1"></path>
    <path d="M3.27 11.53a1.81 1.81 0 0 0 -0.36 -0.72 1.72 1.72 0 0 0 -1.55 -0.62A1.65 1.65 0 0 0 0 12c0.24 1.62 2.12 1.51 2.83 0.91a1.36 1.36 0 0 0 0.38 -0.53 0.79 0.79 0 0 1 0 -0.13c0.21 0 0.54 0.11 0.94 0.16a1.71 1.71 0 0 0 0.9 0 0.48 0.48 0 0 0 -0.05 -0.94c-0.45 -0.1 -0.28 -0.17 -1.73 0.06Zm-0.81 0.61a0.7 0.7 0 0 1 -0.19 0.32 0.78 0.78 0 0 1 -1.38 -0.52 0.74 0.74 0 0 1 0.67 -0.71 0.71 0.71 0 0 1 0.62 0.24 0.73 0.73 0 0 1 0.28 0.67Z" fill="#4C57E6" stroke-width="1"></path>
    <path d="m6.24 4 0.11 0A7.71 7.71 0 0 1 7 5a6 6 0 0 0 0.48 0.72 6.61 6.61 0 0 0 1.09 1A0.28 0.28 0 0 0 9 6.36c-0.23 -0.38 -0.36 -0.79 -0.57 -1.18a4.94 4.94 0 0 0 -0.51 -0.75A5 5 0 0 0 7 3.59a1.41 1.41 0 0 0 0.37 -0.53A1.53 1.53 0 0 0 7 1.49 1.72 1.72 0 0 0 5.49 0.87a1.64 1.64 0 0 0 -1.34 1.81C4.37 4.24 6.19 4 6.24 4ZM5.7 1.91a0.69 0.69 0 0 1 0.61 0.24 0.73 0.73 0 0 1 0.28 0.67 0.7 0.7 0 0 1 -0.19 0.32 0.78 0.78 0 0 1 -1.4 -0.52 0.73 0.73 0 0 1 0.7 -0.71Z" fill="#4C57E6" stroke-width="1"></path>
    <path d="M15.42 6.81a6.21 6.21 0 0 0 1 -0.95 7.4 7.4 0 0 0 0.44 -0.65 8.1 8.1 0 0 1 0.58 -0.86 2.13 2.13 0 0 0 2 -0.25 1.41 1.41 0 0 0 0.37 -0.53A1.53 1.53 0 0 0 19.56 2 1.73 1.73 0 0 0 18 1.37a1.67 1.67 0 0 0 -1.35 1.82 1.67 1.67 0 0 0 0.28 0.72 4.3 4.3 0 0 0 -1 0.79 4.57 4.57 0 0 0 -0.47 0.68c-0.19 0.35 -0.31 0.72 -0.51 1.07a0.28 0.28 0 0 0 0 0.39 0.27 0.27 0 0 0 0.47 -0.03Zm2.8 -4.39a0.73 0.73 0 0 1 0.62 0.24 0.73 0.73 0 0 1 0.27 0.67 0.63 0.63 0 0 1 -0.19 0.32 0.78 0.78 0 0 1 -1.37 -0.52 0.72 0.72 0 0 1 0.67 -0.71Z" fill="#4C57E6" stroke-width="1"></path>
    <path d="M9.59 16.42a9.47 9.47 0 0 0 -1.26 1.35c-0.21 0.28 -0.39 0.58 -0.58 0.88s-0.38 0.59 -0.59 0.87a1.69 1.69 0 0 0 -1 -0.17 1.64 1.64 0 0 0 -1.34 1.81c0.23 1.62 2.12 1.51 2.82 0.91a1.18 1.18 0 0 0 0.38 -0.53A1.54 1.54 0 0 0 7.76 20a5.6 5.6 0 0 0 0.92 -0.9 6.28 6.28 0 0 0 0.61 -0.91c0.26 -0.47 0.44 -1 0.72 -1.41a0.28 0.28 0 1 0 -0.42 -0.36Zm-2.3 4.88a0.7 0.7 0 0 1 -0.19 0.32 0.78 0.78 0 0 1 -1.37 -0.52 0.73 0.73 0 0 1 0.67 -0.71 0.72 0.72 0 0 1 0.62 0.24 0.75 0.75 0 0 1 0.27 0.67Z" fill="#4C57E6" stroke-width="1"></path>
    <path d="M16.86 15.59a0.32 0.32 0 0 0 -0.17 -0.26 0.29 0.29 0 0 0 0.14 -0.25c0.09 -1 0.16 -1.48 0.18 -2.48a6.77 6.77 0 0 0 0 -0.78c0 -0.42 0 -0.84 -0.07 -1.27 -0.08 -1 -0.22 -2 -0.32 -2.94a0.28 0.28 0 0 0 -0.28 -0.28 0.29 0.29 0 0 0 -0.27 0.29c-0.07 1.13 -0.16 2.25 -0.15 3.38 0 0.68 0.05 0.86 0.09 1.53 0.06 1 0.16 1.52 0.19 2.53a0.31 0.31 0 0 0 0.09 0.22c-1 0 -2 -0.09 -3 -0.15 -0.73 0 -1 -0.09 -1.71 -0.08a23.28 23.28 0 0 0 -3.71 0.35 0.28 0.28 0 1 0 0.06 0.55c1.1 0 2.18 0.07 3.27 0.13 0.73 0 1 0.06 1.7 0.06a30.66 30.66 0 0 0 3.71 -0.23 0.31 0.31 0 0 0 0.25 -0.32Z" fill="#020202" stroke-width="1"></path>
    <path d="M15.45 7.38c-3.14 -0.13 -2.55 -0.31 -4.49 -0.3a17.52 17.52 0 0 0 -3.36 0.23 0.27 0.27 0 0 0 -0.27 0.29A22.22 22.22 0 0 0 7 11a13 13 0 0 0 0.09 1.53c0.07 1 0.19 1.51 0.23 2.52a0.32 0.32 0 0 0 0.31 0.32 0.31 0.31 0 0 0 0.37 -0.32 28 28 0 0 0 0.14 -2.9c0 -0.68 0 -0.85 -0.06 -1.52C8 9.71 7.91 8.8 7.9 7.89c0.75 0 1.5 0.11 2.25 0.18 0 0.1 -0.05 2.22 0 3a0.51 0.51 0 0 0 0.28 0.45 0.67 0.67 0 0 0 0.3 0.06 3.12 3.12 0 0 0 0.51 -0.14c1 -0.24 1.45 0.06 1.93 -0.11a0.51 0.51 0 0 0 0.39 -0.46 9.19 9.19 0 0 0 0 -1c0 -0.56 -0.08 -1.12 -0.13 -1.68 0.68 0 1.36 -0.06 2.05 -0.12a0.32 0.32 0 0 0 0.31 -0.32 0.33 0.33 0 0 0 -0.34 -0.37Zm-2.77 2.1c0 0.27 0 0.54 -0.06 0.8a4.41 4.41 0 0 0 -1.56 0.11c0 -0.1 -0.3 -2.17 -0.28 -2.07l0 -0.21c0.6 0 1.17 0.07 1.77 0.06h0.19Z" fill="#020202" stroke-width="1"></path>
  </g>
</svg>