<svg xmlns="http://www.w3.org/2000/svg" viewBox="0 0 24 24" id="Business-Coaching-Target-Explain--Streamline-Freehand">
  <desc>
    Business Coaching Target Explain Streamline Icon: https://streamlinehq.com
  </desc>
  <g>
    <path d="M12.12 14.85a13.92 13.92 0 0 0 -3.2 0.32c-0.11 0 -0.66 0.2 -1 0.24 0 -0.47 0.19 -1.2 0.19 -1.35A3.55 3.55 0 0 0 7 11.55a3.68 3.68 0 0 0 -2.58 -0.86 3 3 0 0 0 -3 2.49 3.14 3.14 0 0 0 1.21 3.07 3.24 3.24 0 0 0 -2.14 1.86A6.2 6.2 0 0 0 0 20.25a16.91 16.91 0 0 0 0.22 3.12 0.33 0.33 0 0 0 0.34 0.29 0.31 0.31 0 0 0 0.29 -0.34 22.78 22.78 0 0 1 0.16 -3 7.38 7.38 0 0 1 0.44 -1.81 2.64 2.64 0 0 1 2.11 -1.86 0.28 0.28 0 0 0 0.25 -0.3c0 -0.55 -2.2 -0.85 -1.72 -3.05a2.18 2.18 0 0 1 2.29 -1.75 2.78 2.78 0 0 1 1.91 0.7 2.59 2.59 0 0 1 0.75 1.84c0 0.16 -0.2 1.06 -0.23 1.43a1 1 0 0 0 0.11 0.52 1 1 0 0 0 0.73 0.3 8.08 8.08 0 0 0 1.39 -0.14 23 23 0 0 1 2.57 -0.35 2.2 2.2 0 0 1 1 0.14c0 0.26 -0.39 0.74 -0.45 0.81a4.83 4.83 0 0 1 -1.07 0.91 5.42 5.42 0 0 1 -1.29 0.6c-0.25 0.07 -1 0.14 -1.37 0.28a0.94 0.94 0 0 0 -0.5 0.32 2.75 2.75 0 0 0 -0.33 1.4c0 1 0.18 2.28 0.17 2.9a0.31 0.31 0 0 0 0.31 0.33 0.31 0.31 0 0 0 0.32 -0.3c0 -0.63 -0.13 -1.9 -0.07 -2.9a2.16 2.16 0 0 1 0.23 -1l1.44 -0.21a6 6 0 0 0 2.83 -1.67 6.21 6.21 0 0 0 0.8 -1.07 0.77 0.77 0 0 0 0 -0.8 2.21 2.21 0 0 0 -1.51 -0.74Z" fill="#020202" stroke-width="1"></path>
    <path d="M24 3.7a3.84 3.84 0 0 0 -0.61 -1.87A2.93 2.93 0 0 0 21.76 0.7a11.33 11.33 0 0 0 -2.58 -0.22c-2 -0.09 -6.56 -0.22 -10 -0.06a20.93 20.93 0 0 0 -3.43 0.37 2 2 0 0 0 -1 0.45 1.27 1.27 0 0 0 -0.3 0.72 6.76 6.76 0 0 0 0.08 1.39c0.07 1.16 0.07 2.18 0.15 3.25 0 0.46 0.07 0.92 0.14 1.41a0.29 0.29 0 0 0 0.31 0.25 0.28 0.28 0 0 0 0.28 -0.26c0 -0.49 -0.08 -0.93 -0.1 -1.38 0 -1.07 0 -2.09 -0.06 -3.25a9.05 9.05 0 0 1 -0.06 -1.11 0.68 0.68 0 0 1 0.14 -0.46 1.21 1.21 0 0 1 0.59 -0.21 20.31 20.31 0 0 1 3.32 -0.26c3.38 -0.07 7.88 0.14 9.89 0.26a10.35 10.35 0 0 1 2.33 0.18 1.89 1.89 0 0 1 1 0.73A3.29 3.29 0 0 1 23 4.32c0 1.19 -0.2 2.47 -0.22 3.38l0 5.71c0 0.26 0.08 0.79 0.08 1.27a1.06 1.06 0 0 1 -0.06 0.57 1.93 1.93 0 0 1 -1.1 0.64 9.68 9.68 0 0 1 -2.23 0.26l-4 0.16a0.31 0.31 0 0 0 -0.31 0.32 0.31 0.31 0 0 0 0.32 0.31l4.05 -0.07a10.53 10.53 0 0 0 2.41 -0.22 2.8 2.8 0 0 0 1.55 -0.92 1.56 1.56 0 0 0 0.24 -0.82c0 -0.53 -0.05 -1.19 -0.05 -1.5l0.11 -5.68A32.49 32.49 0 0 0 24 3.7Z" fill="#020202" stroke-width="1"></path>
    <path d="M19.8 6.31a0.31 0.31 0 1 0 -0.56 0.28 4.23 4.23 0 0 1 -2 5.82 5.81 5.81 0 0 1 -3.32 0.69 3.77 3.77 0 0 1 -2.79 -1.54 4.9 4.9 0 0 1 -0.86 -3.38 4.26 4.26 0 0 1 1.54 -3.08 4.58 4.58 0 0 1 2.57 -0.68A4.17 4.17 0 0 1 17 5a0.28 0.28 0 0 0 0.4 0 0.29 0.29 0 0 0 0 -0.4 4.8 4.8 0 0 0 -3 -0.89 5.55 5.55 0 0 0 -3 0.69 5.13 5.13 0 0 0 -2.17 3.67 6 6 0 0 0 1 4.11 4.75 4.75 0 0 0 3.56 2 6.67 6.67 0 0 0 3.87 -0.94c2.27 -1.37 3.72 -3.96 2.14 -6.93Z" fill="#4C57E6" stroke-width="1"></path>
    <path d="M17.21 5.72c-0.24 0.25 -0.47 0.51 -0.69 0.79a20.42 20.42 0 0 0 -1.33 2 0.33 0.33 0 0 0 0.08 0.45 0.32 0.32 0 0 0 0.44 -0.08c0.6 -0.74 1.25 -1.39 1.89 -2l0.78 -0.77c0.17 -0.18 0.33 -0.36 0.5 -0.53s0.58 -0.57 0.88 -0.84a3.4 3.4 0 0 0 0.42 0l1.33 -0.14a0.32 0.32 0 0 0 0 -0.64s-1.29 -0.27 -1.35 -0.25 -0.55 -1.41 -0.55 -1.41a0.28 0.28 0 0 0 -0.35 -0.17c-0.15 0 -0.17 0.17 -0.18 0.35l0.06 1.32a4.22 4.22 0 0 0 0.06 0.42A9.89 9.89 0 0 0 18 5a7.26 7.26 0 0 0 -0.79 0.72Z" fill="#020202" stroke-width="1"></path>
    <path d="M13.08 8a1.59 1.59 0 0 1 0.15 -0.29 2.43 2.43 0 0 1 0.4 -0.45 6.36 6.36 0 0 1 0.55 -0.4A1.72 1.72 0 0 1 15 6.5a2.16 2.16 0 0 1 0.91 0A0.28 0.28 0 1 0 16 6a2.89 2.89 0 0 0 -1.12 -0.13 2.62 2.62 0 0 0 -1.11 0.33 5.44 5.44 0 0 0 -0.79 0.49 2.79 2.79 0 0 0 -0.5 0.47 2.2 2.2 0 0 0 -0.28 0.44 2.72 2.72 0 0 0 -0.19 0.47 2.5 2.5 0 0 0 1.42 3 3.43 3.43 0 0 0 3.22 -0.12 3.15 3.15 0 0 0 1.25 -1.31 1.6 1.6 0 0 0 0 -1.29 0.31 0.31 0 0 0 -0.59 0.22 1 1 0 0 1 -0.19 0.92 2.53 2.53 0 0 1 -0.9 0.68 2.56 2.56 0 0 1 -2.33 -0.09A1.55 1.55 0 0 1 13 8.29a1.41 1.41 0 0 1 0.08 -0.29Z" fill="#4C57E6" stroke-width="1"></path>
  </g>
</svg>