<svg xmlns="http://www.w3.org/2000/svg" viewBox="0 0 24 24" id="Business-Workflow-Kanban--Streamline-Freehand">
  <desc>
    Business Workflow Kanban Streamline Icon: https://streamlinehq.com
  </desc>
  <g>
    <path d="M10.54 0.81a1.91 1.91 0 0 0 -0.95 -0.43A13.88 13.88 0 0 0 6.41 0.25 27.23 27.23 0 0 0 1.22 1a1.43 1.43 0 0 0 -0.74 0.41 5.28 5.28 0 0 0 -0.41 2.08 24.41 24.41 0 0 0 0.1 3 0.27 0.27 0 0 0 0.3 0.25 0.26 0.26 0 0 0 0.25 -0.3 22.68 22.68 0 0 1 0 -2.61c1.14 0 2.28 0.06 3.44 0 0.74 0 1.49 0 2.24 -0.07 1.13 0 2.24 -0.12 3.36 -0.13a0.31 0.31 0 0 0 0.32 -0.27l0 1.05 0 1.33c-0.08 0 -0.2 0.11 -0.32 0.14a20.6 20.6 0 0 1 -2.83 0.28c-2.18 0.1 -4.69 0.09 -5.46 0.1a0.32 0.32 0 0 0 0 0.63c1 0 5 0.19 7.33 0a7.33 7.33 0 0 0 1.55 -0.23 1 1 0 0 0 0.58 -0.38 1.45 1.45 0 0 0 0.07 -0.46c0.05 -0.46 0.07 -1.21 0.07 -1.35a13.39 13.39 0 0 0 0 -2.45 2.13 2.13 0 0 0 -0.53 -1.21ZM9.8 3c-1.09 -0.11 -2.19 -0.21 -3.31 -0.24l-1.41 0c-0.47 0 -1 0 -1.42 0.07 -1 0.08 -1.92 0.22 -2.87 0.35a4.2 4.2 0 0 1 0.31 -1.29 4.25 4.25 0 0 1 0.9 -0.23 34.79 34.79 0 0 1 4.48 -0.38A18.51 18.51 0 0 1 9 1.36a1.55 1.55 0 0 1 0.77 0.21 1.53 1.53 0 0 1 0.26 0.92 7.58 7.58 0 0 1 0 0.83A0.31 0.31 0 0 0 9.8 3Z" fill="#4C57E6" stroke-width="1"></path>
    <path d="M23.93 2a2.19 2.19 0 0 0 -0.52 -1.19 2 2 0 0 0 -1 -0.43 13.82 13.82 0 0 0 -3.13 -0.13 27.1 27.1 0 0 0 -5.19 0.75 1.38 1.38 0 0 0 -0.74 0.41 5.28 5.28 0 0 0 -0.41 2.08 20.91 20.91 0 0 0 0.1 3 0.27 0.27 0 0 0 0.3 0.25 0.27 0.27 0 0 0 0.25 -0.3 20.59 20.59 0 0 1 0 -2.61c1.13 0 2.28 0.06 3.43 0 0.75 0 1.5 0 2.24 -0.07 1.13 0 2.25 -0.12 3.36 -0.13a0.32 0.32 0 0 0 0.38 -0.24l0 1.05 0 1.33c-0.08 0 -0.19 0.11 -0.32 0.14a20.43 20.43 0 0 1 -2.82 0.28c-2.18 0.1 -4.7 0.09 -5.46 0.1a0.32 0.32 0 1 0 0 0.63c1 0 5 0.19 7.33 0a7.44 7.44 0 0 0 1.55 -0.23 1 1 0 0 0 0.57 -0.38 1.62 1.62 0 0 0 0.13 -0.53c0 -0.46 0.06 -1.21 0.07 -1.35A13.46 13.46 0 0 0 23.93 2Zm-1.27 1c-1.09 -0.11 -2.19 -0.21 -3.3 -0.24l-1.42 0c-0.47 0 -0.94 0 -1.41 0.07 -1 0.08 -1.93 0.22 -2.87 0.35A3.93 3.93 0 0 1 14 1.89a4.88 4.88 0 0 1 0.86 -0.23 34.8 34.8 0 0 1 4.49 -0.38 18.36 18.36 0 0 1 2.57 0.08 1.63 1.63 0 0 1 0.78 0.21 1.6 1.6 0 0 1 0.26 0.92l0 0.83a0.32 0.32 0 0 0 -0.3 -0.32Z" fill="#4C57E6" stroke-width="1"></path>
    <path d="M10.54 9.5a2 2 0 0 0 -0.95 -0.43 13.88 13.88 0 0 0 -3.18 -0.13 27.23 27.23 0 0 0 -5.19 0.75 1.43 1.43 0 0 0 -0.74 0.41 5.28 5.28 0 0 0 -0.41 2.08 24.41 24.41 0 0 0 0.1 3 0.29 0.29 0 0 0 0.3 0.26 0.27 0.27 0 0 0 0.25 -0.31 23.72 23.72 0 0 1 0 -2.88 4.91 4.91 0 0 1 0.35 -1.65 4.4 4.4 0 0 1 0.93 -0.24A32.92 32.92 0 0 1 6.45 10a18.51 18.51 0 0 1 2.55 0.05 1.55 1.55 0 0 1 0.77 0.21 1.53 1.53 0 0 1 0.26 0.92 15.77 15.77 0 0 1 0 2l0 1.33a2.52 2.52 0 0 1 -0.32 0.14 20.6 20.6 0 0 1 -2.83 0.28C4.71 15 2.2 15 1.43 15a0.32 0.32 0 0 0 -0.31 0.32 0.31 0.31 0 0 0 0.31 0.31c1 0 5 0.19 7.33 0a7.33 7.33 0 0 0 1.55 -0.23 1 1 0 0 0 0.58 -0.38 1.45 1.45 0 0 0 0.12 -0.53c0.05 -0.45 0.07 -1.21 0.07 -1.35a13.39 13.39 0 0 0 0 -2.45 2.13 2.13 0 0 0 -0.54 -1.19Z" fill="#020202" stroke-width="1"></path>
    <path d="M23.11 9.5a2 2 0 0 0 -1 -0.43A13.82 13.82 0 0 0 19 8.94a27.23 27.23 0 0 0 -5.19 0.75 1.38 1.38 0 0 0 -0.74 0.41 5.28 5.28 0 0 0 -0.41 2.08 20.91 20.91 0 0 0 0.1 3 0.28 0.28 0 1 0 0.55 -0.05 20.2 20.2 0 0 1 0 -2.88 4.91 4.91 0 0 1 0.35 -1.65c0.41 -0.08 0.46 -0.15 0.87 -0.22A32.62 32.62 0 0 1 19 10a18.51 18.51 0 0 1 2.58 0.08 1.59 1.59 0 0 1 0.77 0.21 1.6 1.6 0 0 1 0.26 0.92 18 18 0 0 1 0 2l0 1.33a2.52 2.52 0 0 1 -0.32 0.14 20.77 20.77 0 0 1 -2.83 0.28c-2.18 0.1 -4.69 0.09 -5.46 0.1a0.32 0.32 0 0 0 -0.32 0.32 0.31 0.31 0 0 0 0.32 0.31c1 0 5 0.19 7.33 0a7.44 7.44 0 0 0 1.55 -0.23 1 1 0 0 0 0.57 -0.38 1.62 1.62 0 0 0 0.13 -0.53c0.05 -0.45 0.06 -1.21 0.07 -1.35a13.39 13.39 0 0 0 0 -2.45 2.19 2.19 0 0 0 -0.54 -1.25Z" fill="#020202" stroke-width="1"></path>
    <path d="M10.64 18a0.75 0.75 0 0 0 -0.32 -0.26 2.25 2.25 0 0 0 -0.65 -0.07l-1.89 0 -2.51 0.17c-1.11 0.08 -2.22 0.25 -3.33 0.34 -0.47 0 -0.94 0.05 -1.4 0.05a0.27 0.27 0 0 0 -0.29 0.26 0.27 0.27 0 0 0 0.27 0.29 14 14 0 0 0 1.45 0c1.12 0 2.23 -0.14 3.34 -0.17l2.5 0h2a2.57 2.57 0 0 1 0.05 0.4 4.92 4.92 0 0 1 0 0.67l-0.07 1.12 0 1.19 0 0.22a13.49 13.49 0 0 1 -1.92 0.45 16.21 16.21 0 0 1 -2 0.11 29.46 29.46 0 0 1 -3.43 0.1 4.57 4.57 0 0 1 -1.24 -0.23c-0.21 -0.08 -0.38 -0.15 -0.41 -0.31l-0.06 -0.59 0 -0.93 0 -1.61a0.31 0.31 0 0 0 -0.31 -0.32 0.3 0.3 0 0 0 -0.32 0.31L0 20.78l0 1 0 0.68c0.08 0.58 0.75 1 1.71 1.17a24 24 0 0 0 4.1 0.14l1.74 0a11.22 11.22 0 0 0 1.74 -0.25 3.85 3.85 0 0 0 1 -0.33 0.82 0.82 0 0 0 0.37 -0.43 2.35 2.35 0 0 0 0.12 -0.64l0 -1.19 0.08 -1.17a6.19 6.19 0 0 0 -0.05 -1.12 1.82 1.82 0 0 0 -0.17 -0.64Z" fill="#020202" stroke-width="1"></path>
  </g>
</svg>