<svg xmlns="http://www.w3.org/2000/svg" viewBox="0 0 24 24" id="Business-Workflow-Data-Table-Desktop--Streamline-Freehand">
  <desc>
    Business Workflow Data Table Desktop Streamline Icon: https://streamlinehq.com
  </desc>
  <g>
    <path d="M23.77 10a12.26 12.26 0 0 0 -0.45 -2.57 2 2 0 0 0 -0.7 -1.13 1.12 1.12 0 0 0 -0.49 -0.19 13.73 13.73 0 0 0 -1.56 0.06 0.28 0.28 0 0 0 -0.27 0.29 0.27 0.27 0 0 0 0.28 0.27l1.3 0a0.51 0.51 0 0 1 0.34 0.12 1.4 1.4 0 0 1 0.29 0.75 14.94 14.94 0 0 1 0.22 2.41c0 1 0.06 2.19 0.07 3.33l0 5a0.17 0.17 0 0 0 0 0.07h-0.08l-9.39 0.15c-1.66 0.05 -3.31 0.17 -5 0.2l-2.11 0c-0.9 0 -1.8 0 -2.71 -0.06 -0.38 0 -0.75 0 -1.13 -0.06a6.77 6.77 0 0 1 -0.73 -0.08 0.6 0.6 0 0 1 -0.36 -0.16 0.88 0.88 0 0 1 -0.1 -0.5c0 -0.43 0.06 -0.9 0.05 -1.22l0.07 -5.43c0 -0.75 -0.07 -1.79 -0.06 -2.77a10.6 10.6 0 0 1 0.15 -1.73 0.68 0.68 0 0 1 0.52 -0.5 2.46 2.46 0 0 1 1 0A0.28 0.28 0 0 0 3.21 6 0.27 0.27 0 0 0 3 5.69a2.86 2.86 0 0 0 -1.47 0.07 1.17 1.17 0 0 0 -0.74 0.85 10.51 10.51 0 0 0 -0.23 1.9c-0.05 1 0 2 -0.05 2.79l-0.27 5.44c0 0.38 -0.11 1 -0.07 1.49a1.77 1.77 0 0 0 0.27 0.83 1.47 1.47 0 0 0 0.6 0.47 4.16 4.16 0 0 0 1.25 0.22c0.39 0 0.79 0.06 1.18 0.08 0.91 0 1.81 0 2.71 0.05s1.93 0 2.89 0c0.3 0 0.59 0 0.89 -0.06l-0.2 0.4c-0.32 0.71 -0.61 1.42 -0.93 2.12a9.48 9.48 0 0 0 -0.41 0.87 0.66 0.66 0 0 0 0 0.43 0.58 0.58 0 0 0 0.34 0.31 2.8 2.8 0 0 0 0.38 0.06 3.38 3.38 0 0 0 0.55 0c0.26 0 0.51 0 0.77 -0.07a23.1 23.1 0 0 1 2.73 -0.33 14.23 14.23 0 0 1 1.6 0s0 0 0 0.08a0.32 0.32 0 0 0 0.38 0.24 0.3 0.3 0 0 0 0.24 -0.37 11.07 11.07 0 0 0 -0.27 -1.68 5 5 0 0 0 -0.2 -0.69 4.48 4.48 0 0 0 -0.28 -0.67 9.63 9.63 0 0 0 -0.57 -1l8.59 -0.39a0.32 0.32 0 0 0 0.3 -0.33 0.32 0.32 0 0 0 0.34 -0.29c0.12 -1 0.35 -3 0.42 -5.05a31.85 31.85 0 0 0 0.03 -3.46Zm-9.23 12.91c-0.61 -0.08 -5 0 -5 0s0.57 -1.75 0.81 -2.49c0.07 -0.22 0.15 -0.46 0.24 -0.69l2.78 -0.19c0.18 0.51 1.06 3.11 1.17 3.37Z" fill="#020202" stroke-width="1"></path>
    <g>
      <path d="m17.72 10.81 -1.72 -0.1 0 -1.51 0 -1.54c0.51 0 1 0 1.51 0.09 0.73 -0.11 0.91 -0.31 0 -0.69q-0.79 -0.13 -1.59 -0.21c0 -0.49 -0.06 -1 -0.08 -1.45 -0.22 -0.58 -0.45 -0.7 -0.74 0 0 0.46 -0.07 0.91 -0.1 1.36 -0.8 0 -1.6 -0.06 -2.39 -0.08 0 -0.43 -0.05 -0.85 -0.08 -1.28 -0.35 -0.55 -0.6 -0.65 -0.7 0l-0.09 1.27c-0.62 0 -1.25 0 -1.88 0.06 -0.45 0 -0.91 0.08 -1.36 0.14a17 17 0 0 0 -1.89 0.35c-0.92 0.12 -0.85 0.66 0 0.7 0.43 -0.06 0.87 -0.1 1.3 -0.13l2 0 1.76 0 0 0.38c-0.05 0.8 -0.07 1.6 -0.07 2.39h-0.28l-1.92 0 -2.75 0c-0.87 0.24 -0.91 0.49 0 0.75 0.91 0.08 1.81 0.16 2.72 0.22 0.64 0 1.28 0.06 1.93 0.06h0.33c0 0.67 0.09 1.32 0.17 2s0.44 0.59 0.79 0l0 -2h0.61l1.83 0 0.15 2c0.16 0.77 0.41 0.7 0.72 0l0.06 -2 1.74 -0.06a0.32 0.32 0 0 0 0.32 -0.32 0.31 0.31 0 0 0 -0.3 -0.4Zm-4.49 -0.25 -0.6 0 0 -2 0 -0.87 2.32 0 0 1.55c0 0.55 0 1 0.05 1.45Z" fill="#4C57E6" stroke-width="1"></path>
      <path d="M19.34 1.35a1.33 1.33 0 0 0 -0.85 -0.66A26.18 26.18 0 0 0 12 0a39.52 39.52 0 0 0 -6.59 0.36 1.62 1.62 0 0 0 -0.91 0.43 0.62 0.62 0 0 0 -0.11 0.52l0.22 9.52 0.08 3.69a0.59 0.59 0 0 0 0.39 0.51 7 7 0 0 0 2.13 0.27c1.38 0 8.68 0 8.93 -0.12a0.32 0.32 0 0 0 0.22 -0.38 0.39 0.39 0 0 0 -0.36 -0.25c-1.77 -0.17 -7.18 0.24 -9.94 -0.13a3.75 3.75 0 0 1 -0.54 -0.18c-0.12 -7.23 0.07 8 0 -10.11l4.4 0.21 3.67 0c4.79 -0.1 4.21 -0.17 5.06 -0.2l0 1.21c0 1.4 -0.4 6.83 -0.55 9.06a0.32 0.32 0 0 0 0.3 0.34 0.31 0.31 0 0 0 0.33 -0.29c0.17 -1.91 0.59 -6 0.73 -9.08a15.19 15.19 0 0 0 -0.12 -4.03Zm-5.71 2c-1.22 0 -2.44 0 -3.67 0.06 -1 0.05 -2.05 0.14 -3.07 0.18l-1.31 0h-0.06c0 -1 0 -1.76 -0.06 -2.2l0.43 0a53.17 53.17 0 0 1 8.88 -0.26 21.15 21.15 0 0 1 3.74 0.6c0.2 0.06 0.16 1 0.18 1.8 -1.69 -0.1 -3.38 -0.19 -5.06 -0.21Z" fill="#020202" stroke-width="1"></path>
    </g>
  </g>
</svg>