<svg xmlns="http://www.w3.org/2000/svg" viewBox="0 0 24 24" id="Business-Management-Teamwork-Hands-Action-3--Streamline-Freehand">
  <desc>
    Business Management Teamwork Hands Action 3 Streamline Icon: https://streamlinehq.com
  </desc>
  <g>
    <path d="M23.27 21.26c-1 -1.35 -2.12 -2.52 -3 -3.84a6.91 6.91 0 0 1 -1.13 -2.79c-0.15 -0.83 -0.24 -1.72 -0.45 -2.56a7.34 7.34 0 0 0 -0.65 -1.73 2.36 2.36 0 0 0 -1.11 -1 0.89 0.89 0 0 0 -0.91 0.16 1.62 1.62 0 0 0 -0.37 0.55l-0.09 -0.05a0.67 0.67 0 0 0 -0.31 -0.1 1.08 1.08 0 0 0 -0.31 0s-0.94 0.25 -0.85 0.65 0.84 0.22 1.4 0.41a0.66 0.66 0 0 0 0 0.14 10.41 10.41 0 0 0 0.81 3.18 0.33 0.33 0 0 0 0.43 0.17 0.32 0.32 0 0 0 0.18 -0.42 10 10 0 0 1 -0.58 -2.51c0 -0.17 0 -1.5 0.39 -1.22a1.26 1.26 0 0 1 0.24 0.22 1.2 1.2 0 0 1 0.2 0.3 6 6 0 0 1 0.49 1.5c0.19 0.83 0.29 1.7 0.43 2.51A7.73 7.73 0 0 0 19.52 18c0.95 1.28 2.21 2.37 3.3 3.65a0.29 0.29 0 0 0 0.41 0.05 0.29 0.29 0 0 0 0.04 -0.44Z" fill="#4C57E6" fill-rule="evenodd" stroke-width="1"></path>
    <path d="M16.8 21.35a6 6 0 0 0 -0.7 -0.72 4.93 4.93 0 0 0 -1.85 -0.91 8.47 8.47 0 0 0 -2.95 -0.13 0.29 0.29 0 0 0 -0.28 0.29 0.28 0.28 0 0 0 0.29 0.28 10.29 10.29 0 0 1 2.22 0.42c0.28 0.09 0.55 0.2 0.82 0.31a4.93 4.93 0 0 1 1.09 0.58 7 7 0 0 1 0.89 0.74c0.45 0.44 0.86 0.9 1.32 1.32a0.33 0.33 0 1 0 0.48 -0.45c-0.47 -0.56 -0.86 -1.17 -1.33 -1.73Z" fill="#4C57E6" fill-rule="evenodd" stroke-width="1"></path>
    <path d="M13.39 16.72a7.77 7.77 0 0 0 1.48 -1 2.44 2.44 0 0 0 0.65 -1.3 0.92 0.92 0 0 0 -0.4 -0.83 2.43 2.43 0 0 0 -1.4 -0.38 7.18 7.18 0 0 0 0.36 -0.95 1.2 1.2 0 0 0 0 -1 1 1 0 0 0 -0.7 -0.48 2.73 2.73 0 0 0 -1.13 0.11 2.09 2.09 0 0 0 0.14 -0.77A1.4 1.4 0 0 0 11.81 9a2 2 0 0 0 -2.38 0 12.14 12.14 0 0 0 -2.6 2.52 2.6 2.6 0 0 0 -0.21 -0.55 1.33 1.33 0 0 0 -1.12 -0.75 1.69 1.69 0 0 0 -1.17 0.4 2.48 2.48 0 0 0 -0.94 1.83c-0.11 1.3 0.5 2.91 0.29 4.07A3.91 3.91 0 0 1 3 17.74a32.33 32.33 0 0 0 -2.3 3.13 0.32 0.32 0 1 0 0.58 0.28 32.79 32.79 0 0 1 2.31 -3 4.36 4.36 0 0 0 0.81 -1.59c0.24 -1.18 -0.33 -2.83 -0.19 -4.14a1.67 1.67 0 0 1 0.63 -1.23 0.9 0.9 0 0 1 0.59 -0.2 0.47 0.47 0 0 1 0.38 0.29 1.12 1.12 0 0 1 0.12 0.35A2.57 2.57 0 0 1 6 12l0 0.49a0.49 0.49 0 0 0 0.1 0.27 0.45 0.45 0 0 0 0.36 0.21 0.49 0.49 0 0 0 0.39 -0.15 32.5 32.5 0 0 1 2.64 -2.73c0.59 -0.45 1.17 -0.76 1.7 -0.34 0.23 0.18 0.17 0.44 0.09 0.69a4.78 4.78 0 0 1 -0.51 1c-0.31 0.17 -0.75 0.45 -1.15 0.72s-0.6 0.35 -0.78 0.47l-0.24 0.15a0.41 0.41 0 0 0 -0.12 0.13 0.49 0.49 0 0 0 0.06 0.73 0.53 0.53 0 0 0 0.62 0.09l0.27 -0.15 1 -0.64 0.79 -0.49 0.08 0 0.1 -0.05a5.18 5.18 0 0 1 1.47 -0.53l0.23 0 0 0.06a4.67 4.67 0 0 1 -0.43 1 2.71 2.71 0 0 1 -0.77 0.71l-1.42 0.7a4.73 4.73 0 0 0 -1.15 0.61 0.62 0.62 0 0 0 -0.2 0.31 0.49 0.49 0 0 0 0.36 0.66 0.84 0.84 0 0 0 0.51 0 9.47 9.47 0 0 0 1.14 -0.71l1.38 -0.66 0.15 -0.11a3.86 3.86 0 0 1 0.73 -0.23 1.7 1.7 0 0 1 1.27 0.16s0 0 0 0.07a0.79 0.79 0 0 1 -0.08 0.26 1.54 1.54 0 0 1 -0.28 0.41A6.74 6.74 0 0 1 13 16c-0.74 0.44 -1.53 0.79 -2.27 1.18a7.77 7.77 0 0 0 -2.56 2.22c-1 1.26 -1.69 2.75 -2.63 4.14a0.29 0.29 0 1 0 0.47 0.33c1 -1.36 1.71 -2.83 2.7 -4.05a7 7 0 0 1 2.37 -2c0.73 -0.33 1.55 -0.67 2.31 -1.1Z" fill="#020202" fill-rule="evenodd" stroke-width="1"></path>
    <path d="M4.06 2.86c0.17 0.37 0.3 0.75 0.44 1.13l0.42 1.14c0.44 1.18 0.88 2.37 1.35 3.52a0.34 0.34 0 0 0 0.42 0.21 0.33 0.33 0 0 0 0.2 -0.42c-0.25 -0.9 -0.41 -1.83 -0.66 -2.75a13.14 13.14 0 0 0 -0.62 -1.83 8.82 8.82 0 0 0 -1.87 -2.68 0.28 0.28 0 0 0 -0.4 0 0.29 0.29 0 0 0 0 0.41 7.68 7.68 0 0 1 0.72 1.27Z" fill="#020202" fill-rule="evenodd" stroke-width="1"></path>
    <path d="M10.45 3.17a4.68 4.68 0 0 0 0.81 1.13 5.73 5.73 0 0 0 1.53 1 12.47 12.47 0 0 1 2.1 1.05 1.66 1.66 0 0 1 0.75 1.09 1 1 0 0 1 -0.08 0.62 0.55 0.55 0 0 1 -0.48 0.25 1.6 1.6 0 0 1 -0.39 0 2.86 2.86 0 0 1 -0.41 -0.15l-0.48 -0.22 -0.26 0.52 0.46 0.26a5.11 5.11 0 0 0 0.48 0.22A2.1 2.1 0 0 0 15 9a1.27 1.27 0 0 0 1.19 -0.47 1.89 1.89 0 0 0 0.34 -1.2 2.52 2.52 0 0 0 -1 -1.85 8.05 8.05 0 0 0 -1.93 -1 6.38 6.38 0 0 1 -1.67 -0.87 3.92 3.92 0 0 1 -0.73 -0.85C10.69 1.9 10.34 1 9.79 0.15a0.31 0.31 0 0 0 -0.44 -0.1 0.33 0.33 0 0 0 -0.11 0.45c0.49 0.84 0.76 1.81 1.21 2.67Z" fill="#020202" fill-rule="evenodd" stroke-width="1"></path>
  </g>
</svg>