<svg xmlns="http://www.w3.org/2000/svg" viewBox="0 0 24 24" id="Business-Network-User--Streamline-Freehand">
  <desc>
    Business Network User Streamline Icon: https://streamlinehq.com
  </desc>
  <g>
    <path d="M16.27 18a5.79 5.79 0 0 0 -2.76 -2.53 0.28 0.28 0 0 0 -0.29 0.49 5.52 5.52 0 0 1 2.09 2.49 7.24 7.24 0 0 1 0.51 1.88 26.68 26.68 0 0 1 0.23 3.12 0.32 0.32 0 0 0 0.31 0.33 0.32 0.32 0 0 0 0.33 -0.31 18.46 18.46 0 0 0 0.15 -3.26 5.82 5.82 0 0 0 -0.57 -2.21Z" fill="#020202" fill-rule="evenodd" stroke-width="1"></path>
    <path d="M12 15.87a0.33 0.33 0 0 0 -0.43 -0.16 0.34 0.34 0 0 0 -0.15 0.44 18.46 18.46 0 0 1 0.63 1.85 19.6 19.6 0 0 1 0.66 2.69 1.07 1.07 0 0 1 -0.17 0.31c-0.16 0.22 -0.35 0.44 -0.49 0.61 -0.42 0.76 -0.42 0.51 -0.88 0.14a2.63 2.63 0 0 1 -0.51 -0.73 2.57 2.57 0 0 1 -0.2 -0.85 8.3 8.3 0 0 1 0.2 -1.28c0.26 -1.25 0.68 -2.86 0.75 -3.2a0.3 0.3 0 0 0 0 -0.16 3.89 3.89 0 0 0 0.95 -0.1 0.27 0.27 0 0 0 0.22 -0.33 0.28 0.28 0 0 0 -0.33 -0.22A3.28 3.28 0 0 1 9 13.6a2.49 2.49 0 0 1 0.33 -3.16 3.09 3.09 0 0 1 0.54 -0.44 3.64 3.64 0 0 1 0.65 -0.34 2.9 2.9 0 0 1 2.53 0.06 2.74 2.74 0 0 1 1.39 2.13 3.89 3.89 0 0 1 0 0.69 1.7 1.7 0 0 1 -0.14 0.6 1.74 1.74 0 0 1 -0.36 0.45 5.49 5.49 0 0 1 -0.79 0.6 0.33 0.33 0 0 0 0.35 0.55 8.73 8.73 0 0 0 0.91 -0.63 2.35 2.35 0 0 0 0.52 -0.62 2.11 2.11 0 0 0 0.26 -0.7 5.05 5.05 0 0 0 0 -1 3.58 3.58 0 0 0 -1.72 -2.91 4.07 4.07 0 0 0 -4.29 0.26 3.57 3.57 0 0 0 -0.73 0.67 3.36 3.36 0 0 0 -0.21 4.34A3.73 3.73 0 0 0 10 15.28a0.35 0.35 0 0 0 -0.11 0 9.64 9.64 0 0 0 -2.51 2 4.89 4.89 0 0 0 -0.75 1.23 5.9 5.9 0 0 0 -0.36 1.39A13.72 13.72 0 0 0 6.3 23a0.32 0.32 0 0 0 0.64 0 14.75 14.75 0 0 1 0.28 -3 6.09 6.09 0 0 1 0.36 -1.14 5.4 5.4 0 0 1 0.57 -1 10.48 10.48 0 0 1 2 -2.13 0.28 0.28 0 0 0 0.07 -0.39 3 3 0 0 0 0.68 0.14s0 0 0 0.05c-0.1 0.34 -0.65 1.91 -1 3.13a7.94 7.94 0 0 0 -0.35 1.48 3.22 3.22 0 0 0 0.19 1.26 3.85 3.85 0 0 0 0.68 1.06 7 7 0 0 0 0.7 0.73 0.86 0.86 0 0 0 0.57 0.23 1 1 0 0 0 0.56 -0.27 6.1 6.1 0 0 0 0.7 -0.93 6.31 6.31 0 0 0 0.57 -0.83 1.38 1.38 0 0 0 0.2 -0.54 7.06 7.06 0 0 0 -0.4 -1.67A31.17 31.17 0 0 0 12 15.87Z" fill="#020202" fill-rule="evenodd" stroke-width="1"></path>
    <path d="M21.33 4.55a10.81 10.81 0 0 0 -8.5 -4.28 17 17 0 0 0 -4.54 0.78A11.25 11.25 0 0 0 4.22 3.3c-3.94 3.63 -7 11.64 0.12 16.17a0.28 0.28 0 0 0 0.39 -0.08 0.3 0.3 0 0 0 -0.08 -0.39 8.68 8.68 0 0 1 -2.59 -2.61 5.89 5.89 0 0 0 1 0.27 4.74 4.74 0 0 0 0.75 0.06 4.58 4.58 0 0 0 0.74 0 16.59 16.59 0 0 0 1.7 -0.25 0.33 0.33 0 0 0 0.31 -0.34 0.32 0.32 0 0 0 -0.34 -0.3c-0.64 0 -1.27 -0.11 -1.91 -0.14l-1.12 0 -1.6 0a7.88 7.88 0 0 1 -0.73 -4l0 -0.29a7.72 7.72 0 0 0 1.67 0.33 9 9 0 0 0 1.47 0c0.26 0 0.52 0 0.79 -0.07a12.83 12.83 0 0 0 0.2 2.9 0.32 0.32 0 0 0 0.36 0.27 0.33 0.33 0 0 0 0.28 -0.36 12.23 12.23 0 0 1 0 -2.9l0.5 0a0.32 0.32 0 0 0 0.33 -0.31 0.31 0.31 0 0 0 -0.31 -0.33l-0.42 0c0.08 -0.45 0.17 -0.9 0.29 -1.34a15.89 15.89 0 0 1 0.67 -1.86c0.12 -0.28 0.26 -0.55 0.4 -0.82 0.95 0 1.91 0.07 2.87 0.07 1.48 0 3 0 4.46 -0.12l2 -0.11c0.1 0.24 0.21 0.47 0.3 0.71a8 8 0 0 1 0.37 1.11 12 12 0 0 1 0.36 2.52c-0.37 0.07 -0.75 0.14 -1.12 0.23a0.28 0.28 0 1 0 0.09 0.56l1.05 0 0 0.48a11.85 11.85 0 0 1 -0.72 3.76 0.32 0.32 0 0 0 0.17 0.42 0.32 0.32 0 0 0 0.42 -0.18 12 12 0 0 0 1 -3.93l0 -0.52 0.52 0 1.67 0a22.1 22.1 0 0 0 2.45 -0.25 8.38 8.38 0 0 1 -0.19 2 7.08 7.08 0 0 1 -1.33 2.71l-1 -0.15c-0.33 0 -0.65 -0.08 -1 -0.1 -0.57 0 -1.12 0 -1.68 0.06a0.28 0.28 0 0 0 -0.31 0.25 0.27 0.27 0 0 0 0.24 0.31c0.48 0.14 0.94 0.3 1.43 0.41l0.64 0.08 0.64 0 0.29 0a14.69 14.69 0 0 1 -3 2.37 0.32 0.32 0 0 0 -0.11 0.44 0.31 0.31 0 0 0 0.44 0.11c2.9 -1.67 4.94 -3.86 5.56 -6.29a10.67 10.67 0 0 0 -2.27 -9.31Zm-0.76 0.64c0.13 0.16 0.25 0.33 0.38 0.5l-3.7 0c-0.07 -0.17 -0.15 -0.33 -0.22 -0.49a10.38 10.38 0 0 0 -2.21 -3.27 5.83 5.83 0 0 0 -0.55 -0.46 10.42 10.42 0 0 1 6.3 3.72ZM4.9 4.05a10.25 10.25 0 0 1 3.72 -2 15.59 15.59 0 0 1 1.6 -0.4c-0.39 0.29 -0.78 0.59 -1.15 0.91a12.91 12.91 0 0 0 -1.7 1.77 13.23 13.23 0 0 0 -1 1.5c-1.08 0 -2.15 0.05 -3.23 0.05A13.09 13.09 0 0 1 4.9 4.05Zm0.86 3.08a13.44 13.44 0 0 0 -0.62 2.05 12.31 12.31 0 0 0 -0.23 1.48c-0.37 0 -0.73 -0.06 -1.11 -0.07s-0.94 0 -1.41 0l-1.38 0a11 11 0 0 1 1.74 -4.11c1.08 0.09 2.15 0.16 3.23 0.21Zm8 -1.47c-1.48 0 -3 0 -4.44 0.1l-1.61 0c0.18 -0.28 0.34 -0.57 0.54 -0.85a14.14 14.14 0 0 1 1.81 -2.11c0.51 -0.48 1.06 -0.93 1.61 -1.36 0.41 0 0.81 -0.08 1.2 -0.1a5 5 0 0 1 1.39 1.07 9.35 9.35 0 0 1 1.78 3.13l0 0.1Zm5.52 5c-0.26 0 -0.51 0.06 -0.76 0.09a13.11 13.11 0 0 0 -0.26 -2.63 8.17 8.17 0 0 0 -0.41 -1.27l-0.16 -0.37c1.17 -0.06 2.35 -0.13 3.52 -0.17a0.28 0.28 0 0 0 0.19 -0.09 10.32 10.32 0 0 1 1.6 4.56c-0.7 0 -1.4 -0.06 -2.12 -0.09 -0.53 -0.02 -1.09 -0.03 -1.65 0Z" fill="#4C57E6" fill-rule="evenodd" stroke-width="1"></path>
  </g>
</svg>