<svg xmlns="http://www.w3.org/2000/svg" viewBox="0 0 24 24" id="Business-Management-Maraketing-Automation-2--Streamline-Freehand">
  <desc>
    Business Management Maraketing Automation 2 Streamline Icon: https://streamlinehq.com
  </desc>
  <g>
    <path d="M13.12 6.57a0.27 0.27 0 0 0 -0.32 0.21 5.16 5.16 0 0 1 -0.8 1.84 4.41 4.41 0 0 1 -1.46 1.32 11.48 11.48 0 0 0 -2.45 1.4 2 2 0 0 0 -0.65 1.32A1.94 1.94 0 0 0 8 14.17a2.14 2.14 0 0 0 1.45 0.66h0.31a2.79 2.79 0 0 0 0.2 0.55 1.78 1.78 0 0 0 0.33 0.48 1.58 1.58 0 0 0 0.31 0.27 2 2 0 0 0 1.58 0.31 0.31 0.31 0 0 0 0.29 -0.33 0.3 0.3 0 0 0 -0.33 -0.29 1.47 1.47 0 0 1 -0.72 -0.31 3 3 0 0 1 -0.25 -0.25 5.14 5.14 0 0 1 -0.38 -0.42 1.34 1.34 0 0 0 -0.11 -0.14c0.66 -0.16 1.32 -0.42 1.95 -0.51l1.18 -0.12a4.63 4.63 0 0 1 0.65 0 4.14 4.14 0 0 1 0.63 0.15c0.1 0 0.36 0.19 0.53 0.25a0.69 0.69 0 0 0 0.41 0 0.51 0.51 0 0 0 0.35 -0.61c0 -0.1 -0.12 -0.36 -0.12 -0.38 -0.47 -0.91 -2.49 -6.07 -3.14 -6.91Zm-4.42 6.9a1 1 0 0 1 -0.29 -0.76 1.3 1.3 0 0 1 0.57 -1 3.28 3.28 0 0 1 0.47 -0.33 5 5 0 0 0 0.19 0.63 5.85 5.85 0 0 0 0.28 0.56c0.15 0.29 0.33 0.54 0.45 0.83a0.32 0.32 0 0 0 0.14 0.2l-0.23 0.06a3.68 3.68 0 0 1 -0.8 0.08 1.18 1.18 0 0 1 -0.78 -0.27Zm6.42 -0.22a4.39 4.39 0 0 0 -0.52 -0.13 4.58 4.58 0 0 0 -0.83 -0.08l-1.32 0.11a12.84 12.84 0 0 0 -1.51 0.38 0.26 0.26 0 0 0 0 -0.21 4.64 4.64 0 0 0 -0.14 -1 2.18 2.18 0 0 0 -0.36 -0.8 3 3 0 0 0 -0.36 -0.43c0.3 -0.16 0.59 -0.31 0.82 -0.45A5.15 5.15 0 0 0 12.54 9a6.07 6.07 0 0 0 0.51 -1Z" fill="#020202" fill-rule="evenodd" stroke-width="1"></path>
    <path d="M5.67 3.34z" fill="#020202" fill-rule="evenodd" stroke-width="1"></path>
    <path d="M5.67 3.34z" fill="#020202" fill-rule="evenodd" stroke-width="1"></path>
    <path d="M23.83 10.21a2 2 0 0 0 -0.24 -0.6 1 1 0 0 0 -0.35 -0.35 2.42 2.42 0 0 0 -0.85 -0.1 10.21 10.21 0 0 0 -1.11 0.15 4.14 4.14 0 0 0 0 -0.93 2.14 2.14 0 0 0 -0.13 -0.48 2.06 2.06 0 0 0 -0.23 -0.44 2.39 2.39 0 0 0 -0.5 -0.46 11.27 11.27 0 0 0 1.19 -1A1.29 1.29 0 0 0 22 5a0.9 0.9 0 0 0 -0.12 -0.32 4.24 4.24 0 0 0 -0.43 -0.52 6.43 6.43 0 0 0 -0.77 -0.8 7.32 7.32 0 0 0 -0.89 -0.66 2.35 2.35 0 0 0 -0.59 -0.26 0.9 0.9 0 0 0 -0.49 0 2.25 2.25 0 0 0 -0.68 0.53 7.68 7.68 0 0 0 -0.6 0.78 4.76 4.76 0 0 0 -1.08 -0.78 2.87 2.87 0 0 0 -0.55 -0.22 2.77 2.77 0 0 0 -0.57 -0.13 3.76 3.76 0 0 0 -1 0 7.72 7.72 0 0 0 0.14 -1.2 1.27 1.27 0 0 0 -0.41 -1 1.06 1.06 0 0 0 -0.32 -0.14 4.35 4.35 0 0 0 -0.64 0.1 8.14 8.14 0 0 0 -1.11 0 10 10 0 0 0 -1.1 0.16 2.49 2.49 0 0 0 -0.6 0.24 0.83 0.83 0 0 0 -0.34 0.36 2.35 2.35 0 0 0 -0.09 0.86 10.25 10.25 0 0 0 0.15 1.13 3.64 3.64 0 0 0 -0.91 0.02 2.3 2.3 0 0 0 -0.49 0.15 2.38 2.38 0 0 0 -0.45 0.23 5.33 5.33 0 0 0 -0.62 0.52 12.17 12.17 0 0 0 -0.8 -1A2.35 2.35 0 0 0 6 2.47a0.94 0.94 0 0 0 -0.5 0 2.17 2.17 0 0 0 -0.59 0.26 8.19 8.19 0 0 0 -0.91 0.65 8.29 8.29 0 0 0 -0.77 0.8 5.49 5.49 0 0 0 -0.42 0.52 0.77 0.77 0 0 0 -0.15 0.3 1.29 1.29 0 0 0 0.39 1 7.52 7.52 0 0 0 1 0.81 4.89 4.89 0 0 0 -0.5 0.52 2.51 2.51 0 0 0 -0.26 0.45 2.88 2.88 0 0 0 -0.18 0.49 4.16 4.16 0 0 0 -0.1 1.18 11.37 11.37 0 0 0 -1.44 -0.2 2.21 2.21 0 0 0 -0.85 0.1 0.94 0.94 0 0 0 -0.35 0.34 2.14 2.14 0 0 0 -0.24 0.6A6.78 6.78 0 0 0 0 11.38a8.17 8.17 0 0 0 0 1.11 4.63 4.63 0 0 0 0.07 0.67 0.89 0.89 0 0 0 0.14 0.31 1.27 1.27 0 0 0 1 0.41 7.13 7.13 0 0 0 1.37 -0.17 3.54 3.54 0 0 0 0.05 0.79 2.29 2.29 0 0 0 0.15 0.51 2.65 2.65 0 0 0 0.23 0.48 8.2 8.2 0 0 0 0.61 0.89 11.29 11.29 0 0 0 -1.16 0.87 2.3 2.3 0 0 0 -0.52 0.67 0.85 0.85 0 0 0 0 0.5 2.18 2.18 0 0 0 0.25 0.59 7.14 7.14 0 0 0 0.67 0.89 8.29 8.29 0 0 0 0.8 0.77 5.49 5.49 0 0 0 0.52 0.42 0.77 0.77 0 0 0 0.32 0.13 1.27 1.27 0 0 0 1 -0.39 7.78 7.78 0 0 0 0.83 -1 3.85 3.85 0 0 0 0.61 0.6 2.64 2.64 0 0 0 0.46 0.27 3 3 0 0 0 0.5 0.17 5 5 0 0 0 1.22 0.11 0.31 0.31 0 0 0 0.35 -0.27 0.32 0.32 0 0 0 -0.28 -0.35 4.25 4.25 0 0 1 -0.56 -0.21c-0.18 -0.08 -0.34 -0.19 -0.53 -0.28l-0.52 -0.25C6.2 19 6.22 18.85 6 19.07s-0.55 0.65 -0.94 1 -0.26 0.34 -0.76 -0.16c-0.24 -0.22 -0.46 -0.46 -0.68 -0.7a8.46 8.46 0 0 1 -0.62 -0.76c-0.2 -0.25 -0.45 -0.13 0.14 -0.82 0.33 -0.36 0.72 -0.7 1 -0.95a0.27 0.27 0 0 0 0.08 -0.17 0.29 0.29 0 0 0 0 -0.32c-0.14 -0.35 -0.22 -0.72 -0.35 -1.09a4 4 0 0 0 -0.15 -0.45c-0.05 -0.15 -0.1 -0.3 -0.16 -0.44a7.47 7.47 0 0 1 -0.44 -1 0.26 0.26 0 0 0 -0.29 -0.25 0.27 0.27 0 0 0 -0.2 0.11 10.66 10.66 0 0 1 -1.18 0c-0.45 -0.07 -0.4 0.07 -0.45 -0.64l0 -1c0 -0.35 0.05 -0.66 0.1 -1s-0.22 -0.4 0.68 -0.47l1.35 0c0.35 0 0.57 -0.77 0.69 -1a5 5 0 0 1 0.27 -0.51 4.9 4.9 0 0 0 0.3 -0.45c0.54 -1.18 0.61 -1.37 0.43 -1.51a0.26 0.26 0 0 0 -0.19 -0.06 9.48 9.48 0 0 1 -0.82 -0.78c-0.11 -0.14 -0.24 -0.26 -0.24 -0.38 0.14 0.06 0.32 -0.3 0.4 -0.38 0.22 -0.24 0.46 -0.46 0.7 -0.68s0.5 -0.43 0.76 -0.61a2.73 2.73 0 0 1 0.24 -0.22 1.48 1.48 0 0 1 0.57 0.37c0.3 0.26 0.59 0.57 0.82 0.81a0.22 0.22 0 0 0 0 0.17 0.27 0.27 0 0 0 0.38 0.07c0.37 -0.15 0.77 -0.23 1.16 -0.39 0.22 -0.08 0.43 -0.18 0.64 -0.28 1.06 -0.47 1.29 -0.17 1.27 -0.56v-0.18l0 -1.19c0.06 -0.87 -0.06 -0.68 1.44 -0.78a7.85 7.85 0 0 1 1 0c0.72 0 0.61 0 0.66 0.42s0 1.12 0 1.37c0 0.47 0.24 0.1 1.61 0.55l0.64 0.19c1.61 0.46 1.26 1.22 1.65 0.79 0.24 -0.23 0.59 -0.63 1 -1 0.69 -0.59 0.57 -0.34 0.81 -0.15a8.82 8.82 0 0 1 0.76 0.61 7.53 7.53 0 0 1 0.7 0.68c0.5 0.51 0.45 0.42 0.16 0.77s-0.82 0.75 -1 0.94a0.29 0.29 0 0 0 -0.23 0.07 0.28 0.28 0 0 0 0 0.39 2.69 2.69 0 0 1 0.24 0.48A3 3 0 0 1 20 8c0.06 0.13 0.1 0.26 0.16 0.39 0.62 1.39 0.22 1.62 0.65 1.59s0.87 0 1.35 0c0.9 0.07 0.64 0.17 0.68 0.48s0.08 0.64 0.1 1 0 0.65 0 1c0 0.71 0 0.61 -0.43 0.65a7.49 7.49 0 0 1 -1 0l-0.09 0a1.5 1.5 0 0 0 -0.29 0c-0.51 0 0 0.24 -0.62 1.67 -0.1 0.23 -0.18 0.48 -0.27 0.72s-0.15 0.48 -0.26 0.71c-0.44 1 -1.08 0.78 -0.68 1.13 0.23 0.25 0.63 0.6 1 1 0.59 0.68 0.34 0.57 0.14 0.81a7.25 7.25 0 0 1 -0.61 0.76 9 9 0 0 1 -0.68 0.7c-0.5 0.5 -0.41 0.45 -0.76 0.16s-0.76 -0.82 -0.94 -1c-0.35 -0.39 -0.1 0.2 -1.55 0.45 -0.21 0 -0.42 0.06 -0.63 0.11 -0.43 0.09 -0.86 0.23 -1.31 0.3a0.25 0.25 0 0 0 -0.21 0.11 0.27 0.27 0 0 0 -0.14 0.25c0 0.25 0.07 0.85 0 1.37s0.06 0.42 -0.65 0.42a7.85 7.85 0 0 1 -1 0 7.57 7.57 0 0 1 -1 -0.11c-0.31 0 -0.41 0.23 -0.48 -0.67l0 -1.35a0.27 0.27 0 1 0 -0.54 0c0 0.4 -0.2 1 -0.23 1.61a2.14 2.14 0 0 0 0.11 0.84 0.83 0.83 0 0 0 0.34 0.36 2.34 2.34 0 0 0 0.6 0.24 10 10 0 0 0 1.1 0.16 8 8 0 0 0 1.1 0 4.47 4.47 0 0 0 0.67 -0.06 1.06 1.06 0 0 0 0.32 -0.14 1.23 1.23 0 0 0 0.4 -1 7.24 7.24 0 0 0 -0.17 -1.39 6 6 0 0 0 0.94 0.12 2.69 2.69 0 0 0 0.57 -0.06 2.57 2.57 0 0 0 0.61 -0.33 4.14 4.14 0 0 0 1 -0.54 7.1 7.1 0 0 0 0.74 0.92 1.27 1.27 0 0 0 1 0.39 1 1 0 0 0 0.33 -0.12 6.65 6.65 0 0 0 0.51 -0.43 7.24 7.24 0 0 0 0.8 -0.77 7.14 7.14 0 0 0 0.67 -0.89 2.18 2.18 0 0 0 0.25 -0.59 0.81 0.81 0 0 0 0 -0.49 2.21 2.21 0 0 0 -0.52 -0.68c-0.26 -0.23 -0.57 -0.45 -0.84 -0.65a4.6 4.6 0 0 0 0.85 -1.15 2.69 2.69 0 0 0 0.29 -0.59 3.31 3.31 0 0 0 0.19 -0.61 8.19 8.19 0 0 0 0.14 -1.08 5.68 5.68 0 0 0 1.09 0.12 1.23 1.23 0 0 0 1 -0.4 0.94 0.94 0 0 0 0.14 -0.32 4.63 4.63 0 0 0 0.07 -0.67 8.05 8.05 0 0 0 0 -1.1 6.78 6.78 0 0 0 -0.18 -1.14Z" fill="#020202" fill-rule="evenodd" stroke-width="1"></path>
    <path d="M12.36 5.16c-3.5 -0.65 -6.16 1.7 -7.18 4.64s-0.35 6.54 2.72 8.33a8.2 8.2 0 0 0 7.77 0 7.45 7.45 0 0 0 4.18 -6.47 7.52 7.52 0 0 0 -1.39 -4.46 5.56 5.56 0 0 0 -4.1 -2.13 0.31 0.31 0 1 0 -0.06 0.62 4.85 4.85 0 0 1 3.58 2 6.51 6.51 0 0 1 -2.67 9.58 7.24 7.24 0 0 1 -6.8 0C5.72 15.75 5.14 12.66 6 10.06s3.15 -4.84 6.3 -4.36a0.29 0.29 0 0 0 0.32 -0.23 0.27 0.27 0 0 0 -0.26 -0.31Z" fill="#4C57E6" fill-rule="evenodd" stroke-width="1"></path>
  </g>
</svg>