<svg xmlns="http://www.w3.org/2000/svg" viewBox="0 0 24 24" id="Business-Workflow-Data-Table-Search-2--Streamline-Freehand">
  <desc>
    Business Workflow Data Table Search 2 Streamline Icon: https://streamlinehq.com
  </desc>
  <g>
    <path d="M22 20.32a4.1 4.1 0 0 0 2 -3.05 6 6 0 0 0 -0.66 -3.58 5.47 5.47 0 0 0 -2.38 -2.36 5 5 0 0 0 -3.42 -0.33 8.91 8.91 0 0 0 -2.65 1 5.43 5.43 0 0 0 -1.47 1.32 5.52 5.52 0 0 0 -0.85 4.19A5 5 0 0 0 14.9 21a7.12 7.12 0 0 0 2.65 0.73 7.76 7.76 0 0 0 3 -0.67 9.85 9.85 0 0 0 0.57 0.86 5.25 5.25 0 0 0 0.33 0.49c0.12 0.16 0.25 0.3 0.38 0.45 0.32 0.33 0.66 0.64 1 0.95a0.33 0.33 0 0 0 0.45 0 0.32 0.32 0 0 0 0 -0.44c-0.25 -0.39 -0.46 -0.78 -0.7 -1.16 -0.1 -0.16 -0.2 -0.32 -0.32 -0.48s-0.23 -0.3 -0.36 -0.45 -0.46 -0.47 -0.7 -0.69l0.13 0a3.47 3.47 0 0 0 0.67 -0.27Zm-4.81 0.58a4.16 4.16 0 0 1 -1.87 -0.56 4.13 4.13 0 0 1 -1.8 -3 4.51 4.51 0 0 1 0.73 -3.34 4.44 4.44 0 0 1 1.55 -1.3 9 9 0 0 1 2 -0.72 3.94 3.94 0 0 1 2.68 0.25 4.63 4.63 0 0 1 2 1.9 5 5 0 0 1 0.66 3 3.34 3.34 0 0 1 -1.54 2.57 3.07 3.07 0 0 1 -0.6 0.3c-1.18 0.42 -1.35 1.09 -3.84 0.9Z" fill="#020202" stroke-width="1"></path>
    <g>
      <path d="M1.05 6.29v-1c1 -0.08 2 -0.15 3 -0.2S6 5 7 5l2.67 -0.1 0.62 0 4 -0.19 0.64 0 3.55 -0.15a0.32 0.32 0 1 0 0 -0.63c-2.16 0 -4.33 -0.12 -6.5 -0.09 -1.44 0 -2.89 0 -4.34 0.13 -2.19 0.15 -4.37 0.43 -6.55 0.77a10.6 10.6 0 0 1 0.09 -1.41 8 8 0 0 1 0.18 -0.83 1.29 1.29 0 0 1 0.25 -0.54 3.42 3.42 0 0 1 1.53 -0.46c1 -0.14 2.22 -0.14 2.82 -0.18 1.76 -0.11 3.55 -0.2 5.33 -0.21 1.19 0 2.37 0 3.54 0.12 0.51 0 1.45 0 2.29 0.08a2 2 0 0 1 1.17 0.37 6.36 6.36 0 0 1 0.53 2.69c0.09 1.07 0.13 2.28 0.16 3.41v0.64c0 1.43 0.06 0.92 0.05 1.33a0.32 0.32 0 0 0 0.32 0.32 0.31 0.31 0 0 0 0.32 -0.31c0 -0.77 0.08 -2.72 -0.09 -5.44A7 7 0 0 0 18.87 1 2.32 2.32 0 0 0 17.6 0.46c-0.92 -0.19 -5.12 -0.38 -6.33 -0.39 -1.81 0 -3.62 0 -5.4 0.13a26.45 26.45 0 0 0 -3.4 0.26 3.69 3.69 0 0 0 -1.58 0.62 1.73 1.73 0 0 0 -0.44 0.66A6.42 6.42 0 0 0 0.1 3.09 22.74 22.74 0 0 0 0 6.3c0 2.72 0.26 6.23 0.28 7.28A4.49 4.49 0 0 0 0.7 15.9a2.08 2.08 0 0 0 1.49 0.83 22.62 22.62 0 0 0 2.8 0c1.69 -0.05 4.21 -0.2 4.38 -0.21a0.27 0.27 0 0 0 0.27 -0.29 0.28 0.28 0 0 0 -0.29 -0.23l-0.77 0 -0.66 0 -2.94 0a24.43 24.43 0 0 1 -2.65 0 1.3 1.3 0 0 1 -0.94 -0.51Z" fill="#020202" stroke-width="1"></path>
      <path d="M13.07 11.46c-0.41 -0.37 -1.57 -0.15 -2.51 -0.17v-0.38l0 -1.5 0 -0.68 1.68 0c0.7 0 1.39 -0.07 2.09 -0.12l0 0.29c0.07 0.66 0.16 1.3 0.21 1.88s1 0.48 0.8 -0.59a14.87 14.87 0 0 0 0 -1.63l2.35 -0.17c0.9 -0.18 1.06 -0.4 0 -0.68h-2.4c0 -0.29 0 -0.59 -0.06 -0.87 0 -0.43 -0.09 -0.83 -0.14 -1.22 -0.36 -0.91 -0.64 -0.92 -0.82 0a14.94 14.94 0 0 0 -0.05 1.52l0 0.53h-3.73c0 -0.63 -0.06 -1.26 -0.1 -1.88 -0.45 -0.69 -0.68 -0.62 -0.75 0s-0.1 1.24 -0.13 1.86l-1.3 0c-1.51 0.08 -3 0.09 -4.56 0.18 -0.48 0 -1 0.07 -1.45 0.12 -0.84 0.18 -0.68 0.4 0 0.65l0.68 0c1.78 0 3.55 0.1 5.33 0.12l1.26 0 0 0.68c0 0.51 0 1 0.07 1.51l0 0.35c-1 0 -2 0 -2.93 0.06 -1.42 0.07 -2.86 0.24 -4.33 0.42 -0.69 0.21 -0.78 0.44 0 0.69l3.77 -0.06c1.15 0 2.28 -0.05 3.42 -0.09h0.13c0.06 0.71 0.13 1.42 0.19 2.12a0.32 0.32 0 0 0 0.32 0.31 0.31 0.31 0 0 0 0.3 -0.33l0 -2.14c0.67 0 1 -0.09 1.71 -0.12s1.37 -0.29 0.95 -0.66Z" fill="#4C57E6" stroke-width="1"></path>
    </g>
  </g>
</svg>