<svg xmlns="http://www.w3.org/2000/svg" viewBox="0 0 24 24" id="Business-Workflow-Data-Table-Share--Streamline-Freehand">
  <desc>
    Business Workflow Data Table Share Streamline Icon: https://streamlinehq.com
  </desc>
  <g>
    <path d="M22.72 19.32a2.92 2.92 0 0 0 -1.42 -0.27 2.33 2.33 0 0 0 -1.17 0.44 3 3 0 0 0 -0.72 0.7l-0.67 -0.48a4.4 4.4 0 0 0 -0.51 -0.29c-0.24 -0.11 -0.48 -0.19 -0.71 -0.3s-0.74 -0.28 -1.13 -0.39l-0.14 0a1.74 1.74 0 0 0 -0.1 -1.87l0.92 -0.34c0.23 -0.09 0.45 -0.2 0.67 -0.31l0.64 -0.37c0.36 -0.22 0.7 -0.47 1.05 -0.71l0.16 0.15a3 3 0 0 0 0.38 0.24 2.74 2.74 0 0 0 0.4 0.15 2.47 2.47 0 0 0 0.53 0.1 4.35 4.35 0 0 0 0.51 0 0.29 0.29 0 0 0 0.26 -0.31 0.27 0.27 0 0 0 -0.3 -0.25 2.73 2.73 0 0 1 -0.41 0 1.58 1.58 0 0 1 -0.37 -0.11 1.91 1.91 0 0 1 -0.28 -0.15 1 1 0 0 1 -0.4 -1.21 2.22 2.22 0 0 1 0.64 -0.73 1.62 1.62 0 0 1 0.82 -0.37 2.1 2.1 0 0 1 0.93 0.16 1.28 1.28 0 0 1 0.67 0.52 1.34 1.34 0 0 1 0.07 1.2 1.29 1.29 0 0 1 -0.91 0.82 0.32 0.32 0 0 0 0.08 0.63 2 2 0 0 0 1.54 -1.12 2.18 2.18 0 0 0 0.06 -1.95 2.25 2.25 0 0 0 -1.09 -1.06 3 3 0 0 0 -1.42 -0.27 2.43 2.43 0 0 0 -1.17 0.44 2.94 2.94 0 0 0 -1.13 1.3 1.71 1.71 0 0 0 0 1.16c-0.36 0.15 -0.73 0.29 -1.09 0.45s-0.45 0.19 -0.67 0.3a6.6 6.6 0 0 0 -0.64 0.36c-0.35 0.21 -0.67 0.45 -1 0.68a3.54 3.54 0 0 0 -1.2 -0.59 3.08 3.08 0 0 0 -1.93 0.1 2.16 2.16 0 0 0 -1.27 1.47 2.08 2.08 0 0 0 0.48 1.85 3 3 0 0 0 1.37 0.91 2.71 2.71 0 0 0 2.5 -0.44c0.09 -0.07 0.16 -0.17 0.25 -0.25l0.1 0.05c0.27 0.16 0.51 0.35 0.78 0.52s0.24 0.14 0.37 0.21a3.44 3.44 0 0 0 0.53 0.21c0.24 0.08 0.49 0.13 0.72 0.22l0.74 0.29 0 0.05a1.62 1.62 0 0 0 0.55 1.94 2.42 2.42 0 0 0 1.82 0.47 0.28 0.28 0 0 0 0 -0.56c-1 0 -1.84 -0.66 -1.46 -1.5a2.22 2.22 0 0 1 0.64 -0.73 1.71 1.71 0 0 1 0.82 -0.37 2.1 2.1 0 0 1 0.93 0.16 1.3 1.3 0 0 1 0.67 0.53A1.32 1.32 0 0 1 23 22a1.29 1.29 0 0 1 -0.91 0.82 0.32 0.32 0 0 0 -0.27 0.36 0.31 0.31 0 0 0 0.35 0.27 2 2 0 0 0 1.54 -1.11 2.15 2.15 0 0 0 -1 -3Zm-9.4 0a1.76 1.76 0 0 1 -0.94 -0.8 1.18 1.18 0 0 1 -0.16 -1 1.16 1.16 0 0 1 0.68 -0.74 2.21 2.21 0 0 1 1.28 -0.08 2.28 2.28 0 0 1 1.17 0.58c0.73 0.72 -0.35 2.41 -2.03 2.06Z" fill="#020202" stroke-width="1"></path>
    <path d="M1 6.78v-1q1.51 -0.13 3 -0.21c1 -0.04 2 -0.05 3 -0.09l2.67 -0.1 0.62 0 4 -0.19 0.64 0L18.47 5a0.34 0.34 0 0 0 0.31 -0.33 0.31 0.31 0 0 0 -0.32 -0.31c-2.17 0 -4.34 -0.11 -6.51 -0.09 -1.45 0 -2.89 0 -4.34 0.13 -2.2 0.15 -4.38 0.43 -6.56 0.77a12.67 12.67 0 0 1 0.09 -1.41c0 -0.21 0.09 -0.52 0.18 -0.83a1.29 1.29 0 0 1 0.25 -0.54 3.46 3.46 0 0 1 1.53 -0.46c1.05 -0.14 2.22 -0.14 2.82 -0.18 1.77 -0.11 3.56 -0.2 5.34 -0.21 1.19 0 2.37 0 3.54 0.12 0.51 0 1.46 0 2.29 0.08a2 2 0 0 1 1.18 0.37 6.42 6.42 0 0 1 0.52 2.7C19 6.7 19 10 19 10.12a0.32 0.32 0 1 0 0.64 0 53.35 53.35 0 0 0 -0.06 -5.39 6.81 6.81 0 0 0 -0.7 -3.22 2.36 2.36 0 0 0 -1.27 -0.57c-0.93 -0.18 -5.13 -0.37 -6.34 -0.38 -1.81 0 -3.62 0 -5.4 0.13A24.88 24.88 0 0 0 2.46 1a3.69 3.69 0 0 0 -1.58 0.62 1.73 1.73 0 0 0 -0.44 0.66 6.42 6.42 0 0 0 -0.35 1.3A22.83 22.83 0 0 0 0 6.8c0.05 2.72 0.26 6.2 0.28 7.28a4.49 4.49 0 0 0 0.41 2.32 2.09 2.09 0 0 0 1.49 0.84 25.9 25.9 0 0 0 2.8 0C6.67 17.2 9.81 17 10 17a0.29 0.29 0 0 0 0.27 -0.29 0.28 0.28 0 0 0 -0.29 -0.27l-0.77 0h-0.69l-3.55 0a24.43 24.43 0 0 1 -2.65 -0.08 1.32 1.32 0 0 1 -0.94 -0.36Z" fill="#020202" stroke-width="1"></path>
    <path d="m17.84 11.75 -2.54 0.19A20.07 20.07 0 0 0 15.43 9l2.37 -0.18c0.9 -0.17 1.06 -0.39 0 -0.68h-2.42c0 -0.29 0 -0.59 -0.06 -0.87 0 -0.43 -0.09 -0.84 -0.14 -1.23 -0.36 -0.91 -0.64 -0.92 -0.82 0a15.24 15.24 0 0 0 0 1.53l0 0.53 -3.37 0h-0.38c0 -0.63 -0.07 -1.26 -0.1 -1.89 -0.45 -0.69 -0.69 -0.62 -0.76 0s-0.1 1.24 -0.12 1.87l-1.31 0c-1.52 0.08 -3.06 0.09 -4.59 0.17 -0.48 0 -1 0.08 -1.45 0.13 -0.85 0.17 -0.69 0.4 0 0.65l0.69 0c1.78 0 3.57 0.1 5.35 0.12l1.27 0V10c0 0.5 0 1 0.08 1.51l0 0.35c-1 0 -2 0 -2.94 0.06 -1.43 0.08 -2.88 0.24 -4.36 0.43 -0.68 0.21 -0.78 0.44 0 0.69l3.79 -0.06c1.15 0 2.29 0 3.43 -0.09h0.14L10 15a0.33 0.33 0 0 0 0.33 0.31 0.32 0.32 0 0 0 0.3 -0.33c0 -0.71 0 -1.43 0.05 -2.15l4 -0.2c0.13 0 -0.21 2 0.41 2s0.2 -1.66 0.23 -2c0.36 0 2.51 -0.22 2.54 -0.22a0.32 0.32 0 1 0 0 -0.63Zm-3.17 0.17c-1.38 0 -2.71 -0.09 -4 -0.1l0 -0.39 0 -1.51 0 -0.68 1.69 0c0.7 0 1.4 -0.07 2.09 -0.12l0 0.29c0.09 0.93 0.23 1.8 0.24 2.54Z" fill="#4C57E6" stroke-width="1"></path>
  </g>
</svg>