<svg xmlns="http://www.w3.org/2000/svg" viewBox="0 0 24 24" id="Business-Management-List--Streamline-Freehand">
  <desc>
    Business Management List Streamline Icon: https://streamlinehq.com
  </desc>
  <g>
    <path d="M16.63 18.29a3.71 3.71 0 0 0 -0.65 0.12l-0.2 0.06a1.74 1.74 0 0 0 -0.7 -2.18 1.63 1.63 0 0 0 -2.31 0.24A5.61 5.61 0 0 1 11 18.08a9.34 9.34 0 0 1 -2.31 0.86c-0.47 -0.06 -0.9 -0.13 -1.24 -0.21 0 0 -0.06 -0.06 -0.09 -0.11a2.59 2.59 0 0 1 -0.11 -0.46 6.75 6.75 0 0 0 -0.34 -1.83 1.3 1.3 0 0 0 -0.69 -0.73 1.12 1.12 0 0 0 -1.37 0.11 2.69 2.69 0 0 0 -0.6 1.22 2 2 0 0 1 -0.33 0.88 2.71 2.71 0 0 1 -0.69 0.38c-0.67 0.24 -1.45 0.34 -2.07 0.59a0.31 0.31 0 0 0 -0.19 0.41 0.32 0.32 0 0 0 0.42 0.18c0.62 -0.22 1.4 -0.3 2.07 -0.52a3.22 3.22 0 0 0 0.92 -0.48 1.57 1.57 0 0 0 0.42 -0.66 9.72 9.72 0 0 1 0.45 -1.25c0.12 -0.2 0.3 -0.27 0.62 -0.12s0.36 0.53 0.4 0.92a14.8 14.8 0 0 0 0.18 1.52 1.12 1.12 0 0 0 0.77 0.86 20.93 20.93 0 0 0 3.36 0.51 16.52 16.52 0 0 0 3.42 0c0.78 -0.13 1.51 -0.47 2.27 -0.66a4.26 4.26 0 0 1 0.49 -0.1 0.32 0.32 0 0 1 0.2 0c0.08 0.06 0 0.17 0 0.3a1.71 1.71 0 0 1 -0.78 1.27 6 6 0 0 1 -2.59 0.84c-0.85 0.11 -2.33 0.26 -3.82 0.39s-2.94 0.23 -3.83 0.26a6.41 6.41 0 0 0 -2.3 0.38 1.53 1.53 0 0 0 -0.82 0.78A0.29 0.29 0 0 0 3 24a0.28 0.28 0 0 0 0.38 -0.13 1.13 1.13 0 0 1 0.81 -0.57A7.38 7.38 0 0 1 6 23.11c0.9 0 2.39 -0.05 3.88 -0.13s3 -0.16 3.87 -0.25a6.94 6.94 0 0 0 3.08 -0.93 2.7 2.7 0 0 0 1.25 -2 1.42 1.42 0 0 0 -0.26 -1.08 1.19 1.19 0 0 0 -1.19 -0.43Zm-5.95 0.83a6.46 6.46 0 0 0 1.2 -0.51 6.3 6.3 0 0 0 1.75 -1.45 0.64 0.64 0 0 1 0.88 0c0.32 0.2 0.63 0.53 0.47 0.85a1.94 1.94 0 0 1 -0.64 0.86l-0.23 0.14 -0.3 0.07a15.57 15.57 0 0 1 -3.13 0.04Z" fill="#020202" fill-rule="evenodd" stroke-width="1"></path>
    <path d="M22.82 10.11c-0.34 -1 -0.72 -2 -1.05 -3.07 -0.13 -0.43 -0.25 -0.86 -0.35 -1.31a19.78 19.78 0 0 0 -1.11 -4A3.37 3.37 0 0 0 19 0.23 2 2 0 0 0 18 0a10.31 10.31 0 0 0 -1.87 0.33c-1.29 0.26 -2.64 0.38 -3.94 0.68a10.22 10.22 0 0 0 -1.71 0.52 5.08 5.08 0 0 0 -1.3 0.71 2.07 2.07 0 0 0 -0.7 0.9 1.55 1.55 0 0 0 -0.07 0.61 3.68 3.68 0 0 0 0.14 0.72c0.05 0.24 0.73 -0.07 0.72 -0.29s0.07 -0.13 0 -0.36a0.85 0.85 0 0 1 0 -0.36 1.38 1.38 0 0 1 0.57 -0.58 4.75 4.75 0 0 1 0.92 -0.44A10.52 10.52 0 0 1 12.39 2c1.3 -0.26 2.65 -0.38 3.93 -0.63 0.38 -0.07 0.94 -0.24 1.46 -0.29a1.25 1.25 0 0 1 0.68 0.08 2.87 2.87 0 0 1 1.09 1.54 24.69 24.69 0 0 1 0.86 3.3c0.12 0.46 0.26 0.92 0.41 1.37 0.35 1 0.76 2 1.12 3.05a4.33 4.33 0 0 1 0.22 0.77 0.72 0.72 0 0 1 -0.08 0.52 2.08 2.08 0 0 1 -0.83 0.58 15.28 15.28 0 0 1 -1.71 0.55l-2.46 0.66c-0.71 0.22 -1.5 0.53 -2.28 0.75a6.24 6.24 0 0 1 -1.5 0.27 0.32 0.32 0 0 0 -0.32 0.33 0.33 0.33 0 0 0 0.33 0.31 7.68 7.68 0 0 0 1.69 -0.27c0.79 -0.21 1.58 -0.5 2.31 -0.71l2.48 -0.6a15.11 15.11 0 0 0 1.82 -0.53 3 3 0 0 0 1.17 -0.81 1.46 1.46 0 0 0 0.31 -1 4.34 4.34 0 0 0 -0.27 -1.13Z" fill="#020202" fill-rule="evenodd" stroke-width="1"></path>
    <path d="M11.56 5.89a2.07 2.07 0 0 0 -2.13 -1.37l-0.82 0.29a1.91 1.91 0 0 0 -0.61 0.55 2.48 2.48 0 0 0 -0.38 2.16 0.28 0.28 0 1 0 0.56 -0.09A1.86 1.86 0 0 1 8.73 6s0.1 -0.06 0.15 -0.1a1.33 1.33 0 0 1 0.76 -0.38 1.29 1.29 0 0 1 1.36 0.67 0.31 0.31 0 0 0 0.43 0.13 0.32 0.32 0 0 0 0.13 -0.43Z" fill="#4C57E6" fill-rule="evenodd" stroke-width="1"></path>
    <path d="M9.79 6.39c0 -0.16 -0.09 -0.34 -0.12 -0.51 -0.18 -0.28 -0.77 0.12 -0.67 0.33s0 0.08 0 0.21c0.13 0.44 0.19 0.6 0.34 1s0.77 0.2 0.68 -0.22 -0.12 -0.39 -0.23 -0.81Z" fill="#020202" fill-rule="evenodd" stroke-width="1"></path>
    <path d="M12.53 8.34a2.43 2.43 0 0 0 -1.9 -0.77 2.22 2.22 0 0 0 -0.44 0.06 7.19 7.19 0 0 0 -0.7 0.32A1.82 1.82 0 0 0 9 8.4a2.4 2.4 0 0 0 -0.42 2 0.28 0.28 0 1 0 0.56 -0.05 1.79 1.79 0 0 1 0.63 -1.26L9.85 9a1.24 1.24 0 0 1 0.65 -0.36 1.7 1.7 0 0 1 1.62 0.18 0.33 0.33 0 0 0 0.45 0 0.32 0.32 0 0 0 -0.04 -0.48Z" fill="#4C57E6" fill-rule="evenodd" stroke-width="1"></path>
    <path d="M10.66 9.19c-0.2 -0.31 -0.72 0 -0.67 0.29 0.18 0.51 0.17 0.47 0.35 1a0.33 0.33 0 1 0 0.66 -0.28c-0.21 -0.52 -0.18 -0.49 -0.34 -1.01Z" fill="#020202" fill-rule="evenodd" stroke-width="1"></path>
    <path d="M11.81 14.16a0.27 0.27 0 0 0 0.37 0.13 0.28 0.28 0 0 0 0.13 -0.38 17.66 17.66 0 0 1 -0.68 -1.67c-0.2 -0.36 -0.65 0 -0.56 0.27a14.33 14.33 0 0 0 0.74 1.65Z" fill="#020202" fill-rule="evenodd" stroke-width="1"></path>
    <path d="M13.59 11.93a2.34 2.34 0 0 0 -2.07 -1.23 1.65 1.65 0 0 0 -0.38 0.05 1.31 1.31 0 0 0 -0.61 0.24 2.21 2.21 0 0 0 -0.47 0.33 2.89 2.89 0 0 0 -0.84 1.89 0.29 0.29 0 0 0 0.56 0.11 2.38 2.38 0 0 1 0.94 -1.2 0.91 0.91 0 0 1 0.17 -0.09 5.24 5.24 0 0 1 0.58 -0.24 1.51 1.51 0 0 1 1.6 0.52 0.32 0.32 0 1 0 0.52 -0.38Z" fill="#4C57E6" fill-rule="evenodd" stroke-width="1"></path>
    <path d="M16.18 4.7c0.53 -0.12 1 -0.28 1.6 -0.37a0.34 0.34 0 0 0 0.3 -0.34 0.32 0.32 0 0 0 -0.34 -0.3 11.77 11.77 0 0 0 -1.68 0 5.52 5.52 0 0 0 -0.71 0.1 3.88 3.88 0 0 0 -0.69 0.18c-0.52 0.17 -1 0.4 -1.54 0.63a0.29 0.29 0 0 0 -0.2 0.35 0.29 0.29 0 0 0 0.35 0.2c0.64 -0.09 1.24 -0.12 1.85 -0.22a9.52 9.52 0 0 0 1.06 -0.23Z" fill="#020202" fill-rule="evenodd" stroke-width="1"></path>
    <path d="M13.85 7.89c0.58 -0.17 1.21 -0.3 1.85 -0.48l0.87 -0.28c0.29 -0.09 0.57 -0.2 0.86 -0.27a5.52 5.52 0 0 1 0.89 -0.15 0.32 0.32 0 0 0 0.34 -0.3 0.32 0.32 0 0 0 -0.3 -0.34 6 6 0 0 0 -1.8 0 5.06 5.06 0 0 0 -0.75 0.17 4.59 4.59 0 0 0 -0.7 0.27 14.22 14.22 0 0 0 -1.49 0.87 0.28 0.28 0 0 0 -0.14 0.37 0.27 0.27 0 0 0 0.37 0.14Z" fill="#020202" fill-rule="evenodd" stroke-width="1"></path>
    <path d="M17.05 8.91a5.4 5.4 0 0 0 -0.67 0.25c-0.51 0.22 -1 0.5 -1.48 0.76a0.29 0.29 0 0 0 -0.17 0.36 0.27 0.27 0 0 0 0.36 0.17c0.63 -0.13 1.24 -0.21 1.84 -0.37 0.36 -0.1 0.7 -0.22 1.05 -0.35 0.52 -0.18 1 -0.4 1.56 -0.56a0.32 0.32 0 1 0 -0.12 -0.63 13.13 13.13 0 0 0 -1.67 0.2c-0.24 0.05 -0.47 0.1 -0.7 0.17Z" fill="#020202" fill-rule="evenodd" stroke-width="1"></path>
  </g>
</svg>