<svg xmlns="http://www.w3.org/2000/svg" viewBox="0 0 24 24" id="Business-Management-Agreement--Streamline-Freehand">
  <desc>
    Business Management Agreement Streamline Icon: https://streamlinehq.com
  </desc>
  <g>
    <path d="M8 19.68a3.57 3.57 0 0 0 -0.47 -0.68 4.76 4.76 0 0 0 -0.84 -0.69 3.42 3.42 0 0 0 0.95 -2.67 3.15 3.15 0 0 0 -3.16 -3.13A3.4 3.4 0 0 0 1 15.77a2.9 2.9 0 0 0 1.65 2.7 7.58 7.58 0 0 0 -1.19 0.78 4.87 4.87 0 0 0 -0.92 1.06 3.08 3.08 0 0 0 -0.44 2.37 0.32 0.32 0 0 0 0.34 0.32 0.33 0.33 0 0 0 0.28 -0.36 2.24 2.24 0 0 1 0.4 -1.3A7.51 7.51 0 0 1 2 20.23c0.49 -0.54 1 -1.08 1.42 -1.49a4.44 4.44 0 0 0 0.93 0.13 0.29 0.29 0 0 0 0 -0.57c-1.77 -0.18 -2.54 -1.3 -2.45 -2.49a2.45 2.45 0 0 1 2.61 -2.18 2.19 2.19 0 0 1 2.23 2.13A2.28 2.28 0 0 1 5 18.44a0.33 0.33 0 0 0 -0.29 0.36 0.34 0.34 0 0 0 0.36 0.28 2.9 2.9 0 0 0 1 -0.3 8.5 8.5 0 0 1 0.66 0.89c0.12 0.18 0.23 0.37 0.33 0.55s0.22 0.37 0.32 0.56A9.82 9.82 0 0 1 8 22.25a0.33 0.33 0 0 0 0.38 0.25 0.31 0.31 0 0 0 0.25 -0.38 7.62 7.62 0 0 0 -0.3 -1.72 4.6 4.6 0 0 0 -0.33 -0.72Z" fill="#020202" fill-rule="evenodd" stroke-width="1"></path>
    <path d="M23.69 20.4a4.6 4.6 0 0 0 -0.31 -0.72 3.57 3.57 0 0 0 -0.46 -0.64 4.76 4.76 0 0 0 -0.84 -0.69 3.42 3.42 0 0 0 1 -2.67 3.15 3.15 0 0 0 -3.16 -3.13 3.4 3.4 0 0 0 -3.5 3.22 2.88 2.88 0 0 0 1.58 2.7 7.15 7.15 0 0 0 -1.19 0.78 4.62 4.62 0 0 0 -0.92 1.06 3.08 3.08 0 0 0 -0.44 2.37 0.32 0.32 0 0 0 0.63 -0.09 2.33 2.33 0 0 1 0.41 -1.3 7.51 7.51 0 0 1 0.84 -1.06c0.49 -0.54 1 -1.08 1.42 -1.49a4.44 4.44 0 0 0 0.93 0.13 0.29 0.29 0 0 0 0 -0.57c-1.68 -0.18 -2.48 -1.3 -2.39 -2.49a2.45 2.45 0 0 1 2.61 -2.18 2.19 2.19 0 0 1 2.23 2.13 2.28 2.28 0 0 1 -1.78 2.68 0.32 0.32 0 1 0 0.07 0.64 2.9 2.9 0 0 0 1 -0.3 8.5 8.5 0 0 1 0.66 0.89c0.12 0.18 0.23 0.37 0.33 0.55s0.22 0.37 0.32 0.56a9.82 9.82 0 0 1 0.61 1.47 0.33 0.33 0 0 0 0.38 0.25 0.32 0.32 0 0 0 0.25 -0.38 7.62 7.62 0 0 0 -0.28 -1.72Z" fill="#020202" fill-rule="evenodd" stroke-width="1"></path>
    <path d="M12.93 6.45c-0.15 0.3 -0.28 0.6 -0.44 1l-0.33 0.87 -0.23 0.68 -0.15 0.5 -0.64 -0.57 -0.8 -0.7 -1.27 -1.17a0.28 0.28 0 0 0 -0.4 0 0.28 0.28 0 0 0 0 0.4l1.18 1.3 0.73 0.76 0.72 0.77c0.1 0.1 0.2 0.36 0.29 0.44a0.58 0.58 0 0 0 0.35 0.14 0.55 0.55 0 0 0 0.43 -0.21 1.73 1.73 0 0 0 0.27 -0.45c0.13 -0.29 0.22 -0.64 0.3 -0.86l0.24 -0.68 0.33 -0.82 0.84 -1.85a18.82 18.82 0 0 1 1.44 -2.36 11.91 11.91 0 0 1 1.84 -2 0.32 0.32 0 0 0 -0.4 -0.5 12.17 12.17 0 0 0 -2.1 2 18.86 18.86 0 0 0 -1.69 2.37c-0.2 0.35 -0.36 0.64 -0.51 0.94Z" fill="#020202" fill-rule="evenodd" stroke-width="1"></path>
    <path d="M19.81 6.59a6.06 6.06 0 0 0 -0.73 -1.34 20.05 20.05 0 0 0 -1.39 -1.7 0.28 0.28 0 1 0 -0.43 0.36 19.39 19.39 0 0 1 1.29 1.7 5.2 5.2 0 0 1 0.62 1.22 3.6 3.6 0 0 1 -0.82 3.91 8 8 0 0 1 -6.13 1.86c-2.94 -0.15 -4.93 -0.89 -6.13 -1.93a3.34 3.34 0 0 1 -1.16 -3.58c0.75 -2.54 4.21 -4.69 9.24 -3.92a0.32 0.32 0 1 0 0.11 -0.64C8.73 1.53 4.91 4 4 6.8c-0.62 1.91 0 4 2.39 5.41a12.7 12.7 0 0 0 5.76 1.46A9 9 0 0 0 19 11.33a4.33 4.33 0 0 0 0.81 -4.74Z" fill="#4C57E6" fill-rule="evenodd" stroke-width="1"></path>
  </g>
</svg>