<svg xmlns="http://www.w3.org/2000/svg" viewBox="0 0 24 24" id="Business-Management-Forecasating--Streamline-Freehand">
  <desc>
    Business Management Forecasating Streamline Icon: https://streamlinehq.com
  </desc>
  <g>
    <path d="M24 11.63a12.12 12.12 0 0 0 -0.19 -1.76c-0.31 -1.32 -0.71 -2.66 -0.92 -3.87a0.32 0.32 0 0 0 -0.32 -0.28 0.32 0.32 0 0 0 -0.33 -0.11c-0.33 0.1 -0.7 0.18 -1.07 0.26 -0.84 0.19 -1.76 0.32 -2.63 0.49 -0.61 0.12 -1.22 0.27 -1.76 0.4a7.1 7.1 0 0 0 -1.2 0.41 1.13 1.13 0 0 0 -0.62 0.63 0.5 0.5 0 0 0 0.12 0.48 3.63 3.63 0 0 0 0.34 0.28 3.26 3.26 0 0 0 0.42 0.32c0.47 0.32 1.1 0.68 1.47 1a0.31 0.31 0 0 0 -0.22 0.15c-0.57 0.92 -1.12 1.86 -1.72 2.78 -0.38 0.6 -0.78 1.19 -1.22 1.76 0 0.06 -0.47 0.63 -0.78 1 -0.45 -0.31 -0.88 -0.64 -1.34 -0.95a9 9 0 0 0 -0.78 -0.47 8.22 8.22 0 0 0 -0.86 -0.45 0.67 0.67 0 0 0 -0.53 0 2.33 2.33 0 0 0 -0.63 0.54c-0.31 0.39 -0.62 0.91 -0.86 1.21s-0.86 1.24 -1.46 2.18c-1.16 1.86 -2.57 4.24 -3.14 5.14 -0.27 0.4 0.58 0.68 0.74 0.52a12.12 12.12 0 0 1 1.82 -1.39c1.52 -0.94 3.31 -1.82 4.57 -2.66 0.13 0.08 0.3 0.23 0.33 0.25 0.46 0.25 0.93 0.67 1.43 1a3.68 3.68 0 0 0 0.8 0.39 0.63 0.63 0 0 0 0.44 0 3.74 3.74 0 0 0 0.6 -0.44 8.37 8.37 0 0 0 0.62 -0.57c0.3 -0.29 0.57 -0.6 0.85 -0.9 0.77 -0.87 1.48 -1.77 2.19 -2.69 1 -1.34 1.95 -2.72 2.89 -4.1 0.14 0.18 0.3 0.35 0.46 0.53a9.33 9.33 0 0 0 1 0.93c0.14 0.11 0.34 0.37 0.47 0.45a0.51 0.51 0 0 0 0.77 -0.26A2 2 0 0 0 24 13l0 -1.37Zm-2 0.48a5.92 5.92 0 0 1 -0.91 -0.88 0.27 0.27 0 0 0 -0.39 -0.06 0.28 0.28 0 0 0 -0.08 0.39s0 0 -0.05 0c-1 1.36 -2.07 2.72 -3.16 4 -0.72 0.87 -1.47 1.72 -2.25 2.53l-1.4 1.35a1.24 1.24 0 0 0 -0.28 0.16l-0.29 -0.16c-0.52 -0.32 -1 -0.74 -1.51 -1a4 4 0 0 0 -0.79 -0.35 0.57 0.57 0 0 0 -0.48 0.1c-1.19 0.93 -3 1.95 -4.5 3 -0.37 0.26 -0.72 0.52 -1 0.79 0.76 -1.09 1.85 -2.67 2.78 -4 0.63 -0.88 1.18 -1.64 1.51 -2s0.47 -0.68 0.75 -1a2.2 2.2 0 0 1 0.2 -0.23 4.74 4.74 0 0 0 0.58 0.22l2.44 1.53a0.66 0.66 0 0 0 0.76 -0.2c0.29 -0.33 0.9 -1.24 1 -1.32 0.42 -0.61 0.8 -1.24 1.16 -1.88 0.55 -0.95 1.06 -1.92 1.59 -2.88a0.33 0.33 0 0 0 0 -0.34 0.23 0.23 0 0 0 0.18 -0.08 0.27 0.27 0 0 0 0 -0.4L16.17 8c0.33 -0.1 0.69 -0.18 0.84 -0.21 0.8 -0.23 1.76 -0.44 2.69 -0.7a25.75 25.75 0 0 0 2.52 -0.82c0.1 1.19 0.31 2.49 0.45 3.75a16.26 16.26 0 0 1 0.14 1.64c0 0.28 0.07 0.71 0.08 1.11a7 7 0 0 1 -0.89 -0.66Z" fill="#4C57E6" fill-rule="evenodd" stroke-width="1"></path>
    <path d="M7.48 11.63A9.07 9.07 0 0 0 9.92 11a7.61 7.61 0 0 0 1.9 -1.14 4.11 4.11 0 0 0 1 -1.16 0.33 0.33 0 0 0 -0.11 -0.45 0.32 0.32 0 0 0 -0.44 0.12 3.62 3.62 0 0 1 -1.16 1.07 7.45 7.45 0 0 1 -1.5 0.69l-0.31 0.08a3.51 3.51 0 0 0 0.54 -1.55 3.12 3.12 0 0 0 -1 -2.7 7.36 7.36 0 0 1 1.65 0.46 14.63 14.63 0 0 1 1.35 0.6 2.9 2.9 0 0 1 0.71 0.54 0.32 0.32 0 0 0 0.5 -0.4 3.16 3.16 0 0 0 -0.83 -0.76 11.43 11.43 0 0 0 -1.36 -0.76 8.09 8.09 0 0 0 -2.45 -0.84 7.76 7.76 0 0 0 -2.59 0A8.77 8.77 0 0 0 1.3 7.12a0.28 0.28 0 0 0 0.37 0.43A8.35 8.35 0 0 1 5.15 6a3.77 3.77 0 0 0 -1 0.92 2.8 2.8 0 0 0 -0.11 3.14 3.71 3.71 0 0 0 0.23 0.32A6.39 6.39 0 0 1 1 8.7a0.29 0.29 0 0 0 -0.4 0 0.28 0.28 0 0 0 0 0.4 7.16 7.16 0 0 0 4.32 2.49 8.32 8.32 0 0 0 2.56 0.04ZM4.87 7.37a2.94 2.94 0 0 1 0.88 -1c2.08 -1.37 3.42 0.5 3.16 2.15a2.12 2.12 0 0 1 -2 1.93A2.16 2.16 0 0 1 5 9.5a1.93 1.93 0 0 1 -0.13 -2.13Z" fill="#020202" fill-rule="evenodd" stroke-width="1"></path>
    <path d="M1.05 4.35c0.27 0.29 0.57 0.52 0.87 0.79a0.29 0.29 0 0 0 0.46 -0.35c-0.17 -0.35 -0.3 -0.7 -0.49 -1a4.5 4.5 0 0 0 -0.25 -0.41L1.34 3c-0.24 -0.34 -0.5 -0.6 -0.73 -0.9A0.34 0.34 0 0 0 0.17 2a0.32 0.32 0 0 0 -0.17 0.41 7.59 7.59 0 0 0 0.49 1.11A2.3 2.3 0 0 0 0.74 4a2.38 2.38 0 0 0 0.31 0.35Z" fill="#020202" fill-rule="evenodd" stroke-width="1"></path>
    <path d="M6.09 2.94c0.09 0.34 0.23 0.64 0.35 1a0.28 0.28 0 0 0 0.32 0.25 0.27 0.27 0 0 0 0.24 -0.34c0 -0.35 0.11 -0.67 0.12 -1l0 -0.43c0 -0.14 -0.06 -0.3 -0.12 -0.42 -0.07 -0.33 -0.17 -0.64 -0.24 -1a0.32 0.32 0 0 0 -0.31 -0.29 0.31 0.31 0 0 0 -0.31 0.29 9.06 9.06 0 0 0 -0.13 1l0 0.44a3 3 0 0 0 0.08 0.5Z" fill="#020202" fill-rule="evenodd" stroke-width="1"></path>
    <path d="M12.07 4.57c0.21 -0.23 0.43 -0.42 0.62 -0.67a1.85 1.85 0 0 0 0.21 -0.33c0 -0.12 0.1 -0.24 0.14 -0.37a5.57 5.57 0 0 0 0.2 -0.92 0.33 0.33 0 1 0 -0.61 -0.23c-0.16 0.26 -0.36 0.47 -0.53 0.72a3.74 3.74 0 0 0 -0.28 0.52 7.26 7.26 0 0 0 -0.26 1 0.28 0.28 0 0 0 0.12 0.38 0.28 0.28 0 0 0 0.39 -0.1Z" fill="#020202" fill-rule="evenodd" stroke-width="1"></path>
  </g>
</svg>