<svg xmlns="http://www.w3.org/2000/svg" viewBox="0 0 24 24" id="Business-Card-3--Streamline-Freehand">
  <desc>
    Business Card 3 Streamline Icon: https://streamlinehq.com
  </desc>
  <g>
    <path d="M23.94 11.52c-0.07 -1.17 -0.19 -2.35 -0.36 -3.48a10.88 10.88 0 0 0 -0.49 -2.4 2 2 0 0 0 -0.81 -1 4.4 4.4 0 0 0 -1.41 -0.45 16.15 16.15 0 0 0 -2 -0.14c-1.61 0 -2.62 -0.11 -3.77 -0.12 -0.73 0 -1.51 0 -2.53 0.09 -2 0.13 -4.11 0.25 -6.18 0.5a31.9 31.9 0 0 0 -4.1 0.72 0.32 0.32 0 1 0 0.15 0.63 31.07 31.07 0 0 1 4 -0.65c2.06 -0.22 4.15 -0.3 6.14 -0.39 1 0 1.77 -0.06 2.48 0 1.14 0 2.14 0.1 3.74 0.18a16.2 16.2 0 0 1 1.92 0.16 3.62 3.62 0 0 1 1.11 0.36 1.33 1.33 0 0 1 0.45 0.83 13.31 13.31 0 0 1 0.31 1.91c0.14 1.11 0.24 2.25 0.3 3.4s0.06 2.29 0 3.41a6.77 6.77 0 0 1 -0.33 2A2.33 2.33 0 0 1 22 18a1.53 1.53 0 0 1 -0.83 0.35c-0.61 0.11 -1.3 0.09 -1.8 0.14s-1 0.08 -1.38 0.1c-1.09 0 -1.79 0 -3.35 0.11s-3 0.28 -4.52 0.37 -3 0.16 -4.52 0.16a16.92 16.92 0 0 1 -2.24 0 2.9 2.9 0 0 1 -1.26 -0.42 1.61 1.61 0 0 1 -0.53 -0.88 14.82 14.82 0 0 1 -0.36 -1.91 41.39 41.39 0 0 1 -0.5 -5 32.41 32.41 0 0 1 0.18 -5 0.27 0.27 0 0 0 -0.29 -0.46 0.28 0.28 0 0 0 -0.31 0.24A33.45 33.45 0 0 0 0 10.93a41 41 0 0 0 0.41 5.12 10.55 10.55 0 0 0 0.46 2.38 2.1 2.1 0 0 0 0.71 1A3.9 3.9 0 0 0 3.2 20a19.12 19.12 0 0 0 2.36 0.09c1.52 0 3.05 0 4.58 -0.08s3 -0.18 4.56 -0.31 2.21 -0.06 3.28 -0.09c0.41 0 0.88 0 1.46 -0.1a14.11 14.11 0 0 0 2.23 -0.22 2.39 2.39 0 0 0 1 -0.56 3.58 3.58 0 0 0 0.89 -1.43A8 8 0 0 0 24 15c0 -1.12 0 -2.3 -0.06 -3.48Z" fill="#020202" fill-rule="evenodd" stroke-width="1"></path>
    <path d="M6.82 9.93c0.28 -0.34 0.57 -0.68 0.88 -1a9.05 9.05 0 0 1 1 -0.9 0.29 0.29 0 0 0 -0.35 -0.46c-0.3 0.22 -0.58 0.46 -0.86 0.71S6.65 9 6.27 9.44a17.7 17.7 0 0 0 -1.5 1.46 1.91 1.91 0 0 0 -0.45 1 1.27 1.27 0 0 0 0.21 0.73 2.9 2.9 0 0 0 0.59 0.66 5.56 5.56 0 0 0 1.09 0.78c0.55 0.31 1.12 0.56 1.68 0.84a5.83 5.83 0 0 0 0.91 0.47 1.12 1.12 0 0 0 0.76 0 2.32 2.32 0 0 0 0.83 -0.58 14.25 14.25 0 0 0 1.06 -1.55c0.3 -0.41 0.27 -0.32 0.46 -0.15l0.82 0.82a5.21 5.21 0 0 0 0.87 0.72 1.26 1.26 0 0 0 0.61 0.18 1.41 1.41 0 0 0 0.58 -0.27 23.13 23.13 0 0 0 2.72 -2.32 5.94 5.94 0 0 0 0.92 -1.15 1.27 1.27 0 0 0 0.17 -0.58 0.82 0.82 0 0 0 -0.1 -0.37 2.12 2.12 0 0 0 -0.5 -0.36 7.93 7.93 0 0 0 -0.71 -0.59c-0.24 -0.18 -0.48 -0.35 -0.74 -0.52l-1 -0.72 -0.81 -0.57a2.57 2.57 0 0 0 -0.74 -0.28 0.92 0.92 0 0 0 -0.53 0.06 1.54 1.54 0 0 0 -0.34 0.26 6.48 6.48 0 0 0 -0.5 0.62l-1 1.27c-0.14 -0.08 -0.27 -0.18 -0.41 -0.25 -0.62 -0.32 -1.28 -0.56 -1.88 -0.91a0.32 0.32 0 0 0 -0.44 0.11 0.31 0.31 0 0 0 0.1 0.44c0.6 0.39 1.25 0.66 1.86 1a5.35 5.35 0 0 1 0.7 0.47l0.35 0.36a0.63 0.63 0 0 1 0 0.76 19.11 19.11 0 0 1 -1.29 1.46c-0.26 0.35 -0.54 0.83 -0.87 1.22a1.53 1.53 0 0 1 -0.52 0.44c0 0.28 -0.67 -0.34 -0.87 -0.44 -0.54 -0.27 -1.11 -0.51 -1.65 -0.8a5.91 5.91 0 0 1 -1 -0.61 3.2 3.2 0 0 1 -0.39 -0.36 0.46 0.46 0 0 1 -0.06 -0.19 1.32 1.32 0 0 1 0.37 -0.75c0.37 -0.55 0.95 -1.03 1.19 -1.32Zm5.74 0.09 -0.43 -0.4 1.06 -1.14c0.11 -0.13 0.25 -0.3 0.4 -0.45a0.84 0.84 0 0 1 0.24 -0.16l0.5 0.26 0.65 0.55 1 0.84 1.31 1.05 0.12 0.06a1 1 0 0 1 -0.1 0.24 10.17 10.17 0 0 1 -0.93 1.13 26 26 0 0 1 -2.14 2l-0.15 0.08a0.72 0.72 0 0 1 -0.22 -0.1 4.42 4.42 0 0 1 -0.66 -0.51c-1.91 -1.69 -0.83 -0.32 -0.34 -2.12a1.37 1.37 0 0 0 -0.31 -1.35Z" fill="#4C57E6" fill-rule="evenodd" stroke-width="1"></path>
    <path d="M13.07 16.15c-0.6 0 -1.21 0 -1.81 0.07a20.72 20.72 0 0 0 -3 0.57 0.3 0.3 0 0 0 -0.24 0.33 0.28 0.28 0 0 0 0.33 0.23c0.9 -0.07 1.78 0 2.67 -0.05 0.6 0 1.19 0 1.79 -0.09 1 -0.08 2 -0.23 3 -0.41a0.33 0.33 0 0 0 0.29 -0.35 0.33 0.33 0 0 0 -0.36 -0.29c-0.89 0.03 -1.74 -0.01 -2.67 -0.01Z" fill="#020202" fill-rule="evenodd" stroke-width="1"></path>
  </g>
</svg>