<svg xmlns="http://www.w3.org/2000/svg" viewBox="0 0 24 24" id="Business-User-Network-1--Streamline-Freehand">
  <desc>
    Business User Network 1 Streamline Icon: https://streamlinehq.com
  </desc>
  <g>
    <path d="M7.91 4.07c0.06 0.28 0.11 0.56 0.19 0.84a5.53 5.53 0 0 0 0.31 0.86A7.61 7.61 0 0 0 9.33 7a0.28 0.28 0 0 0 0.38 0.12 0.3 0.3 0 0 0 0.12 -0.39c-0.14 -0.42 -0.2 -0.82 -0.33 -1.24 -0.05 -0.18 -0.11 -0.35 -0.17 -0.52s-0.15 -0.34 -0.23 -0.5 -0.29 -0.47 -0.44 -0.76l0.07 0a1.39 1.39 0 0 0 0.44 -0.56 1.52 1.52 0 0 0 -0.41 -1.7A2 2 0 0 0 7.11 0.83 1.73 1.73 0 0 0 5.6 2.72c0.24 1.59 2.26 1.37 2.31 1.35ZM7.3 1.91a1 1 0 0 1 0.78 0.24 0.72 0.72 0 0 1 0.32 0.68 1.12 1.12 0 0 1 -1 0.61 0.84 0.84 0 0 1 -0.92 -0.79c0.01 -0.35 0.3 -0.65 0.82 -0.74Z" fill="#4C57E6" fill-rule="evenodd" stroke-width="1"></path>
    <path d="M24 8.47a1.44 1.44 0 0 0 -0.32 -0.64 1.53 1.53 0 0 0 -1.71 -0.34 2 2 0 0 0 -1.22 1.25 2.62 2.62 0 0 0 -0.05 0.55l-0.72 0.24 -0.53 0.25a4.94 4.94 0 0 0 -0.49 0.3c-0.37 0.26 -0.69 0.56 -1.05 0.85a0.28 0.28 0 0 0 -0.12 0.38 0.3 0.3 0 0 0 0.39 0.12c0.49 -0.18 1 -0.3 1.46 -0.52a7.52 7.52 0 0 0 0.78 -0.45c0.17 -0.1 0.32 -0.21 0.48 -0.32a1.51 1.51 0 0 0 0.92 0.77c1.59 0.47 2.33 -1.56 2.18 -2.44Zm-1.87 1.59a0.8 0.8 0 0 1 -0.33 -1 1 1 0 0 1 0.55 -0.6 0.68 0.68 0 0 1 0.75 0 0.73 0.73 0 0 1 0.21 0.35 1 1 0 0 1 -1.22 1.25Z" fill="#4C57E6" fill-rule="evenodd" stroke-width="1"></path>
    <path d="M17.55 18.41a6.11 6.11 0 0 0 -0.68 -1 7.59 7.59 0 0 0 -1.43 -1.25A5 5 0 0 0 17 12a4.64 4.64 0 0 0 -4.67 -4.61C9 7.54 7.19 9.84 7.12 12.15a4.3 4.3 0 0 0 2.71 4.2 13.71 13.71 0 0 0 -2 1.45 7.59 7.59 0 0 0 -1.4 1.6 4.67 4.67 0 0 0 -0.76 3.51 0.32 0.32 0 1 0 0.64 -0.09 4.23 4.23 0 0 1 1 -2.82 14.17 14.17 0 0 1 1.24 -1.45 28 28 0 0 1 2.08 -2 6.65 6.65 0 0 0 1.49 0.23 0.28 0.28 0 0 0 0.3 -0.26 0.29 0.29 0 0 0 -0.27 -0.31C9.32 16 8 14.25 8 12.44a3.58 3.58 0 0 0 1.27 0.35 2.18 2.18 0 0 0 0.57 0 3 3 0 0 0 1.71 -0.92 0.35 0.35 0 0 0 0.12 -0.22 5.05 5.05 0 0 0 0.51 0.28 5.65 5.65 0 0 0 1.28 0.42 7.89 7.89 0 0 0 2.62 0.08 3.67 3.67 0 0 1 -3 4.08 0.33 0.33 0 0 0 -0.28 0.36 0.32 0.32 0 0 0 0.36 0.28 4 4 0 0 0 1.68 -0.53A10.51 10.51 0 0 1 16 18.07c0.2 0.29 0.39 0.58 0.56 0.88s0.34 0.6 0.49 0.92a14.26 14.26 0 0 1 0.95 2.36 0.31 0.31 0 0 0 0.37 0.25 0.32 0.32 0 0 0 0.26 -0.38 12.4 12.4 0 0 0 -0.63 -2.62 6.85 6.85 0 0 0 -0.45 -1.07Zm-6.38 -7a2 2 0 0 1 -0.54 0.21c-0.19 0 -0.39 0 -0.6 0.08l-0.61 0.08a4.85 4.85 0 0 1 -1.24 0.15s-0.06 0 -0.09 0a3.87 3.87 0 0 1 1.56 -2.58 6 6 0 0 0 1.43 1.83 1.49 1.49 0 0 0 0.2 0.15 0.35 0.35 0 0 0 -0.11 0.03Zm2.58 0a6.87 6.87 0 0 1 -1.06 -0.42 7.3 7.3 0 0 1 -1 -0.56A6.44 6.44 0 0 1 10.25 9a4.91 4.91 0 0 1 2.12 -0.5A3.6 3.6 0 0 1 16 11.71a8.19 8.19 0 0 1 -2.25 -0.37Z" fill="#020202" fill-rule="evenodd" stroke-width="1"></path>
    <path d="M12.63 18.34a0.29 0.29 0 0 0 -0.28 -0.29 0.27 0.27 0 0 0 -0.29 0.27c-0.1 0.44 -0.21 0.85 -0.27 1.29a3.37 3.37 0 0 0 0 0.55 4.93 4.93 0 0 0 0 0.55c0 0.44 0.14 0.86 0.21 1.29a0.31 0.31 0 0 0 0.33 0.31 0.32 0.32 0 0 0 0.32 -0.33c0.05 -0.43 0.12 -0.84 0.16 -1.27a5.21 5.21 0 0 0 0 -0.55 3.25 3.25 0 0 0 0 -0.54c-0.02 -0.44 -0.12 -0.84 -0.18 -1.28Z" fill="#4C57E6" fill-rule="evenodd" stroke-width="1"></path>
    <path d="M6.38 11.54a0.28 0.28 0 0 0 -0.18 -0.36c-0.36 -0.21 -0.65 -0.46 -1 -0.69l-0.43 -0.27 -0.43 -0.22 -0.73 -0.35A1.52 1.52 0 0 0 3.19 8a2 2 0 0 0 -1.65 -0.58A1.73 1.73 0 0 0 0 9.3c0.25 1.67 2.39 1.49 3.12 0.95a7 7 0 0 0 0.63 0.59 4.16 4.16 0 0 0 0.45 0.32 3.33 3.33 0 0 0 0.5 0.25 6.08 6.08 0 0 0 1.3 0.31 0.28 0.28 0 0 0 0.38 -0.18ZM0.93 9.22c0 -0.35 0.28 -0.67 0.8 -0.74a1 1 0 0 1 0.77 0.25 0.7 0.7 0 0 1 0.33 0.68 0.71 0.71 0 0 1 -0.23 0.34 1 1 0 0 1 -1.67 -0.53Z" fill="#4C57E6" fill-rule="evenodd" stroke-width="1"></path>
    <path d="M16 7a11.34 11.34 0 0 0 0.94 -1.25 7.71 7.71 0 0 0 0.39 -0.82c0.13 -0.3 0.23 -0.6 0.34 -0.9 0.94 0.05 1.15 0.06 1.71 -0.36a1.33 1.33 0 0 0 0.44 -0.56 1.52 1.52 0 0 0 -0.41 -1.69 2 2 0 0 0 -1.66 -0.59 1.73 1.73 0 0 0 -1.51 1.89 1.52 1.52 0 0 0 0.67 1 7.89 7.89 0 0 0 -0.49 0.65c-0.1 0.16 -0.2 0.32 -0.29 0.49s-0.16 0.35 -0.23 0.53c-0.16 0.42 -0.26 0.84 -0.4 1.27a0.28 0.28 0 0 0 0.11 0.39A0.29 0.29 0 0 0 16 7Zm2 -5.09a1 1 0 0 1 0.77 0.25 0.68 0.68 0 0 1 0.33 0.67 0.79 0.79 0 0 1 -0.23 0.35 1 1 0 0 1 -1.67 -0.53c-0.07 -0.36 0.22 -0.65 0.74 -0.75Z" fill="#4C57E6" fill-rule="evenodd" stroke-width="1"></path>
  </g>
</svg>