<svg xmlns="http://www.w3.org/2000/svg" viewBox="0 0 24 24" id="Business-Cash-Location-Pin-2--Streamline-Freehand">
  <desc>
    Business Cash Location Pin 2 Streamline Icon: https://streamlinehq.com
  </desc>
  <g>
    <path d="M11.52 20a0.4 0.4 0 0 0 0 0.56 0.91 0.91 0 0 1 0.18 1 1.55 1.55 0 0 1 -0.9 0.74 5 5 0 0 1 -2.13 0.35 5.53 5.53 0 0 1 -2.12 -0.51 1.7 1.7 0 0 1 -1 -0.92 0.6 0.6 0 0 1 0.27 -0.66 0.35 0.35 0 0 0 0.1 -0.48 0.36 0.36 0 0 0 -0.52 -0.08 1.34 1.34 0 0 0 -0.73 1.41A2.75 2.75 0 0 0 6 23.18a5.76 5.76 0 0 0 2.6 0.82 5.4 5.4 0 0 0 2.66 -0.6 2.65 2.65 0 0 0 1.34 -1.46 1.73 1.73 0 0 0 -0.53 -1.94 0.38 0.38 0 0 0 -0.55 0Z" fill="#4C57E6" fill-rule="evenodd" stroke-width="1"></path>
    <path d="M4.42 11.35a0.4 0.4 0 0 0 0 0.56A4.53 4.53 0 0 0 7.24 13c0 0.35 0 0.7 0.08 1a0.4 0.4 0 0 0 0.42 0.37 0.38 0.38 0 0 0 0.37 -0.37l0 -1a5.28 5.28 0 0 0 1.28 -0.24 2.52 2.52 0 0 0 1.9 -3.14 1.77 1.77 0 0 0 -1.26 -1.3 5.13 5.13 0 0 0 -1.74 -0.1l0 -1.08 0 -0.83a4.59 4.59 0 0 1 1.7 0.33 0.35 0.35 0 0 0 0.47 -0.14 0.34 0.34 0 0 0 -0.15 -0.47 5.27 5.27 0 0 0 -2 -0.59l0 -2A0.34 0.34 0 0 0 8 3.1a0.35 0.35 0 0 0 -0.38 0.31c-0.12 0.67 -0.2 1.36 -0.31 2a4.45 4.45 0 0 0 -0.85 0.13A2 2 0 0 0 4.87 8 1.7 1.7 0 0 0 6 9.42a3.36 3.36 0 0 0 1 0.16l0 0.73c0 0.59 0.09 1.16 0.14 1.74A3.47 3.47 0 0 1 5 11.34a0.4 0.4 0 0 0 -0.58 0.01Zm5.09 -1.77a0.61 0.61 0 0 1 0.57 0.42c0.35 1.12 -0.6 1.74 -1.7 2a1.1 1.1 0 0 1 -0.18 0l0.06 -1.66 0 -0.76h0.38a3.82 3.82 0 0 1 0.87 0ZM6 7.79c-0.15 -0.79 0.45 -1.21 1.19 -1.38 0 0.24 -0.09 0.46 -0.11 0.7 0 0.4 0 0.8 -0.06 1.21 -0.47 0.01 -0.88 -0.04 -1.02 -0.53Z" fill="#020202" fill-rule="evenodd" stroke-width="1"></path>
    <path d="M15.76 8a9.32 9.32 0 0 0 0 -1.67 6.49 6.49 0 0 0 -0.4 -1.66A7.58 7.58 0 0 0 8.4 0 8.43 8.43 0 0 0 0.86 3.8a5.79 5.79 0 0 0 -0.73 2.13 11.09 11.09 0 0 0 0 3.21 16.62 16.62 0 0 0 0.68 2.74A13.24 13.24 0 0 0 2 14.45a17.26 17.26 0 0 0 2.12 2.81 49.09 49.09 0 0 0 3.76 3.6 0.36 0.36 0 0 0 0.49 0 0.35 0.35 0 0 0 0 -0.49 47.44 47.44 0 0 1 -3.6 -3.63A16.83 16.83 0 0 1 2.85 14a13.09 13.09 0 0 1 -1 -2.42A15.37 15.37 0 0 1 1.29 9a9.92 9.92 0 0 1 0 -2.38 5.09 5.09 0 0 1 0.67 -2.12 7.2 7.2 0 0 1 6.4 -3.15 6.38 6.38 0 0 1 5.87 3.84 5.4 5.4 0 0 1 0.36 1.35 7.66 7.66 0 0 1 0 1.44 13.72 13.72 0 0 1 -0.31 2.28 9.4 9.4 0 0 1 -0.73 2.15c-0.79 1.63 -1.63 3.33 -2.57 5a31.6 31.6 0 0 1 -2 3.1 0.4 0.4 0 0 0 0.07 0.55 0.4 0.4 0 0 0 0.56 -0.08 32.41 32.41 0 0 0 2.13 -3.13c1 -1.62 1.88 -3.32 2.72 -4.94a10.28 10.28 0 0 0 0.87 -2.36A16.07 16.07 0 0 0 15.76 8Z" fill="#020202" fill-rule="evenodd" stroke-width="1"></path>
    <path d="M21.12 2.81A6.27 6.27 0 0 0 16 2.48a0.35 0.35 0 0 0 -0.22 0.44 0.34 0.34 0 0 0 0.43 0.22 5.46 5.46 0 0 1 4.43 0.53 4.5 4.5 0 0 1 2.06 3.71 7.47 7.47 0 0 1 -0.55 3A39.79 39.79 0 0 1 20 14.79a7.21 7.21 0 0 1 -0.85 1.21 8.4 8.4 0 0 1 -0.78 0.87 7.77 7.77 0 0 1 -2.58 -3 0.39 0.39 0 0 0 -0.48 -0.27 0.39 0.39 0 0 0 -0.28 0.48 6.58 6.58 0 0 0 1.64 2.54A12.34 12.34 0 0 0 18 17.85a0.69 0.69 0 0 0 0.78 0.08A11.08 11.08 0 0 0 20 16.75a8.6 8.6 0 0 0 1.06 -1.4 34.8 34.8 0 0 0 2.31 -4.53A8.28 8.28 0 0 0 24 7.28a5.6 5.6 0 0 0 -2.88 -4.47Z" fill="#4C57E6" fill-rule="evenodd" stroke-width="1"></path>
    <path d="M18.59 8.88A2.16 2.16 0 0 1 17 8.55a0.39 0.39 0 1 0 -0.49 0.61 3 3 0 0 0 2.25 0.77 3.11 3.11 0 0 0 2.21 -1.16 3 3 0 0 0 0.44 -2.61 2.71 2.71 0 0 0 -1.91 -1.79 4.24 4.24 0 0 0 -0.78 -0.13 4 4 0 0 0 -0.77 0 0.35 0.35 0 0 0 -0.34 0.36 0.35 0.35 0 0 0 0.36 0.33 3.3 3.3 0 0 1 0.63 0.07 3.19 3.19 0 0 1 0.59 0.21 1.77 1.77 0 0 1 0.95 1.26A1.79 1.79 0 0 1 19.87 8a1.94 1.94 0 0 1 -1.28 0.88Z" fill="#4C57E6" fill-rule="evenodd" stroke-width="1"></path>
  </g>
</svg>