<svg xmlns="http://www.w3.org/2000/svg" viewBox="0 0 24 24" id="Camera-2--Streamline-Freehand">
  <desc>
    Camera 2 Streamline Icon: https://streamlinehq.com
  </desc>
  <g>
    <path d="M19.25 10.56c-1.13 -1.73 -1.76 -0.57 -1.25 -0.3a3.37 3.37 0 0 1 1 3.66 5.85 5.85 0 0 1 -1.55 2.61c-1.39 1.21 -4.72 0 -5.22 -0.6a3.67 3.67 0 0 1 -0.71 -2c-0.21 -2.63 0.86 -3.88 2.56 -4.25 1.92 -0.46 2.8 0.22 2.92 -0.37a0.29 0.29 0 0 0 -0.29 -0.31 8.94 8.94 0 0 0 -2.78 -0.05 3.79 3.79 0 0 0 -2.67 1.61 5.85 5.85 0 0 0 0.06 6.08c0.9 1.17 3.76 1.71 5.05 1.51a3.83 3.83 0 0 0 2.82 -2.3 5.12 5.12 0 0 0 0.06 -5.29Z" fill="#020202" stroke-width="1"></path>
    <path d="M15.32 10.22a0.34 0.34 0 0 0 0.1 0.67 2.5 2.5 0 0 1 1.82 0.91 2.24 2.24 0 0 1 -0.92 2.88 3.3 3.3 0 0 1 -1.68 0.06 1.64 1.64 0 0 1 -1.21 -2.49c0.57 -1.21 1.3 -1.05 1.07 -1.5 -0.44 -0.85 -3.6 2.28 -1.41 4.35a3.7 3.7 0 0 0 3.64 0.64c1.88 -0.78 2.5 -4.15 0.28 -5.17a3.64 3.64 0 0 0 -1.69 -0.35Z" fill="#4C57E6" stroke-width="1"></path>
    <path d="M24 8.19A1.55 1.55 0 0 0 23.31 7a13.85 13.85 0 0 0 -4.75 -1c-0.66 -0.66 -1 -1.92 -1.91 -2.6s-2.51 -0.62 -3.74 -0.6c-0.51 0 -1.83 -0.22 -2.31 0.27C9.72 4 9.37 5.16 8.53 6a14 14 0 0 1 -2.64 0.36 1.4 1.4 0 0 0 -1.38 -1c-1.73 -0.06 -3.46 0 -3.6 2.17A45.88 45.88 0 0 0 0 14.4c0 2.85 0.42 7.1 3.25 6.84A5.83 5.83 0 0 0 5 20.88 1.79 1.79 0 0 0 6 20c14.35 0.63 -6.06 -0.4 6.4 0.34a69.57 69.57 0 0 0 9.49 -0.1 1.28 1.28 0 0 0 1 -0.5c0.6 -1.13 1.3 -9.74 1.11 -11.55ZM5.18 18.75c-0.7 0.68 0.42 1.12 -2 1.38 -1 0.1 -1.46 -1 -1.73 -1.94 -1 -3.76 -0.28 -7.65 0.35 -11.56 0 -0.13 2.77 -1.06 3.35 -0.26 0.27 0.36 -0.06 0.85 0.39 1.31s1.29 0.3 1.57 0.67a17.83 17.83 0 0 1 0.09 3.92c0 1.45 0.1 3.12 -0.06 4.48 0 0.28 0 1 -0.12 1.16 -0.47 0.44 -1.23 0.24 -1.84 0.84Zm17.37 -4.09c-0.44 4.77 -0.74 4.31 -0.69 4.5 -0.08 0 -3.15 0.38 -6.15 0.42 -6.22 0.1 -6.27 -0.45 -9.42 -0.19 0.84 -0.27 1.63 -0.39 1.85 -1.39a25.84 25.84 0 0 0 0.14 -3c0 -0.91 -0.1 -1.83 -0.12 -2.72A22.12 22.12 0 0 0 8 8.3a1.19 1.19 0 0 0 -0.84 -0.89c-0.49 -0.17 -1 -0.09 -1.11 -0.36C6.18 7 7.52 7 8.33 6.83c0.58 -0.11 0.74 -0.23 1.22 -0.87a19.82 19.82 0 0 1 1.63 -2.31 35.87 35.87 0 0 1 3.8 0.09 2 2 0 0 1 1.62 1c0.78 1.2 0.93 2.05 1.78 2.26a14.52 14.52 0 0 1 4.35 0.9c0.38 0.79 -0.09 5.72 -0.18 6.76Z" fill="#020202" stroke-width="1"></path>
    <path d="M16.07 13.25c-0.22 0.52 0.15 0.78 0.62 0.17a1 1 0 0 0 -0.55 -1.74 0.3 0.3 0 1 0 -0.37 0.46 1.23 1.23 0 0 1 0.3 1.11Z" fill="#4C57E6" stroke-width="1"></path>
    <path d="M5.3 9.53c-0.11 -0.11 -0.45 -0.11 -0.56 0.31a14.3 14.3 0 0 0 -0.22 1.53 13.07 13.07 0 0 0 -0.12 3.45c0 0.08 0.07 1.69 0.08 1.77a0.33 0.33 0 0 0 0.57 0.17 17 17 0 0 0 0.4 -3 25 25 0 0 0 -0.15 -4.23Z" fill="#020202" stroke-width="1"></path>
    <path d="M11 6.88a2.61 2.61 0 0 0 1.33 0.34 7.75 7.75 0 0 0 2.08 0.16C15 7.3 15.63 7 15.7 6.4a4.31 4.31 0 0 0 0 -0.68c0 -0.72 0.17 -1.69 -1.14 -1.65 -3.47 0.11 -2.29 0 -2.53 0s-0.26 0.1 -0.51 0.54a4.93 4.93 0 0 0 -0.69 1.59 0.64 0.64 0 0 0 0.17 0.68Zm1.38 -2c2.77 0.29 2.23 0 2.2 0.34s0 0.35 0 0.55c0 0.92 -2.94 0.49 -3 0.46 0.01 -0.31 0.42 -1.49 0.83 -1.4Z" fill="#4C57E6" stroke-width="1"></path>
  </g>
</svg>