<svg xmlns="http://www.w3.org/2000/svg" viewBox="0 0 24 24" id="Camera-4k--Streamline-Freehand">
  <desc>
    Camera 4k Streamline Icon: https://streamlinehq.com
  </desc>
  <g>
    <path d="M17.34 22.73a93.94 93.94 0 0 1 -9.54 0.06 34.26 34.26 0 0 1 -5 -0.45c-0.35 -0.08 -0.64 -0.34 -0.75 -0.26a2.68 2.68 0 0 1 -0.05 -0.56c0 -0.77 0.08 -1.7 0.06 -2.19 -0.08 -1.93 -0.23 -3.87 -0.29 -5.8l0 -2.47a0.35 0.35 0 0 0 -0.31 -0.36 0.34 0.34 0 0 0 -0.36 0.3c-0.1 0.85 -0.1 1.69 -0.1 2.53 0 1.94 0 3.88 -0.06 5.81 0 0.49 -0.17 1.44 -0.16 2.22a2.72 2.72 0 0 0 0.22 1.2 1.93 1.93 0 0 0 1.24 0.75 20.34 20.34 0 0 0 3.92 0.49 82.11 82.11 0 0 0 11.26 -0.49 0.38 0.38 0 0 0 0.34 -0.42 0.37 0.37 0 0 0 -0.42 -0.36Z" fill="#020202" fill-rule="evenodd" stroke-width="1"></path>
    <path d="m17.52 9.93 0.01 0.01 -0.01 -0.01z" fill="#020202" fill-rule="evenodd" stroke-width="1"></path>
    <path d="m17.51 9.91 0.01 0.02 0 -0.01 -0.01 -0.01z" fill="#020202" fill-rule="evenodd" stroke-width="1"></path>
    <path d="m17.49 9.88 0.02 0.03 -0.01 -0.03 -0.01 0z" fill="#020202" fill-rule="evenodd" stroke-width="1"></path>
    <path d="M5.17 8.05c1.83 0.31 2.36 -0.28 2.69 -0.76a2.84 2.84 0 0 0 0.42 -2.1A2.47 2.47 0 0 0 7 3.65a3 3 0 0 0 -1.9 -0.31 2.29 2.29 0 0 0 -1.8 1.77 2.57 2.57 0 0 0 0.7 2.3 2.11 2.11 0 0 0 1.17 0.64Zm-0.69 -2.64a1.1 1.1 0 0 1 0.87 -0.81 1.89 1.89 0 0 1 1.12 0.15 1.4 1.4 0 0 1 0.78 0.75 1.65 1.65 0 0 1 0 1.11s-0.25 1.15 -1.9 0.66a1.25 1.25 0 0 1 -0.66 -0.48 1.53 1.53 0 0 1 -0.21 -1.38Z" fill="#4C57E6" fill-rule="evenodd" stroke-width="1"></path>
    <path d="M9.93 7.08a4.12 4.12 0 0 0 1.62 0.6c1.64 0.22 4.07 -0.21 4.8 -2.86A3.78 3.78 0 0 0 14.57 0.45a3.58 3.58 0 0 0 -0.89 -0.35 2.68 2.68 0 0 0 -1 -0.09 7.83 7.83 0 0 0 -2.51 0.58 3.59 3.59 0 0 0 -1.5 1.16 3.58 3.58 0 0 0 -0.4 3 4.08 4.08 0 0 0 1.66 2.33Zm-0.24 -4.6A2.66 2.66 0 0 1 11 1.64a7.32 7.32 0 0 1 1.77 -0.36 2 2 0 0 1 0.6 0.05 2.3 2.3 0 0 1 0.58 0.22 2.68 2.68 0 0 1 1.4 3 3.06 3.06 0 0 1 -3.69 2.34 2.94 2.94 0 0 1 -1.24 -0.56 3.11 3.11 0 0 1 -1.1 -1.88 2.42 2.42 0 0 1 0.37 -1.97Z" fill="#4C57E6" fill-rule="evenodd" stroke-width="1"></path>
    <path d="M7.74 13.88a0.35 0.35 0 0 0 0 -0.47 0.34 0.34 0 0 0 -0.47 0.05c-0.65 0.7 -1.32 1.39 -1.94 2.1l-0.78 1a4.68 4.68 0 0 0 -0.65 1 0.73 0.73 0 0 0 0.08 0.65 3 3 0 0 0 1.83 0.9 14.6 14.6 0 0 0 2 0.18c0 0.55 0.1 1.11 0.2 1.64a0.38 0.38 0 1 0 0.76 -0.08c0 -0.51 0.06 -1 0.1 -1.57l0.79 0a0.39 0.39 0 0 0 0.36 -0.4 0.4 0.4 0 0 0 -0.39 -0.37l-0.71 0c0.05 -0.52 0.09 -1 0.11 -1.55l0 -2.7a0.34 0.34 0 0 0 -0.3 -0.37 0.32 0.32 0 0 0 -0.37 0.29c-0.19 0.75 -0.41 1.52 -0.54 2.34 0 0.34 -0.08 0.69 -0.1 1a7.12 7.12 0 0 0 0 0.8l-0.72 -0.2a9.59 9.59 0 0 1 -1.46 -0.39 3.22 3.22 0 0 1 -0.41 -0.15c0.15 -0.15 0.33 -0.3 0.36 -0.34Z" fill="#020202" fill-rule="evenodd" stroke-width="1"></path>
    <path d="M14.46 15.39c0.4 -0.4 0.75 -0.82 1.13 -1.25a0.38 0.38 0 1 0 -0.5 -0.57c-0.48 0.31 -0.95 0.58 -1.4 0.9a6.27 6.27 0 0 0 -0.59 0.42c-0.18 0.16 -0.35 0.31 -0.52 0.49l-0.06 0.06c-0.13 -0.73 -0.33 -1.42 -0.47 -2.14a0.34 0.34 0 0 0 -0.68 0c0 0.75 -0.09 1.48 -0.07 2.24 0 0.31 0 0.63 0.08 0.94 0.14 1 0.41 2 0.65 3.08a0.38 0.38 0 0 0 0.76 -0.09c0 -0.74 0 -1.47 -0.06 -2.21a5.65 5.65 0 0 0 0 -0.58l0.05 0a9.19 9.19 0 0 0 0.36 0.86c0.1 0.18 0.22 0.35 0.33 0.51s0.27 0.33 0.4 0.48c0.33 0.35 0.69 0.66 1.05 1a0.37 0.37 0 0 0 0.54 0.06 0.38 0.38 0 0 0 0.06 -0.53c-0.24 -0.42 -0.44 -0.83 -0.69 -1.25a5.19 5.19 0 0 0 -0.31 -0.5c-0.12 -0.16 -0.24 -0.32 -0.37 -0.47s-0.42 -0.41 -0.63 -0.61a5.37 5.37 0 0 0 0.45 -0.35 6.15 6.15 0 0 0 0.49 -0.49Z" fill="#020202" fill-rule="evenodd" stroke-width="1"></path>
    <path d="m23.4 14.92 0 -1.95a10 10 0 0 0 -0.4 -2.54 1.57 1.57 0 0 0 -1 -1.11 0.82 0.82 0 0 0 -0.55 0.1 4.82 4.82 0 0 0 -0.72 0.62c-0.54 0.45 -1.05 1 -1.58 1.42l0 -0.5a4.53 4.53 0 0 0 -0.49 -1.74 1.6 1.6 0 0 0 -1.28 -0.63A17.54 17.54 0 0 0 13.7 9a51.82 51.82 0 0 1 -6.35 0.56A50.2 50.2 0 0 1 1 9.33a0.35 0.35 0 0 0 -0.38 0.3 0.34 0.34 0 0 0 0.3 0.37 48 48 0 0 0 6.47 0.56 48.54 48.54 0 0 0 6.5 -0.3c0.31 0 1.24 -0.24 2.15 -0.34a6.14 6.14 0 0 1 1.19 -0.05h0.29s0.06 0 0 0.06a4 4 0 0 1 0.32 1.16c0.09 0.78 0.08 1.62 0.11 2.28 0.15 2.49 -0.17 5 -0.15 7.47 0 0.63 0.05 1.27 0.11 1.9a0.38 0.38 0 1 0 0.75 -0.06 23.11 23.11 0 0 1 0 -2.76c0 -0.59 0.1 -1.18 0.15 -1.78a12.53 12.53 0 0 0 1.2 1 7.21 7.21 0 0 0 1.26 0.7 3.48 3.48 0 0 0 1.07 0.26 0.76 0.76 0 0 0 0.66 -0.3 1.3 1.3 0 0 0 0.23 -0.58 10.45 10.45 0 0 0 0 -1.44c0.08 -0.96 0.15 -1.91 0.17 -2.86Zm-1.74 4a7.18 7.18 0 0 1 -1.13 -0.53 15.65 15.65 0 0 1 -1.61 -1.11 36.38 36.38 0 0 0 0.2 -3.9l0 -1 0.31 -0.2c0.61 -0.45 1.19 -0.94 1.82 -1.38a3 3 0 0 0 0.56 -0.29 3.25 3.25 0 0 1 0.19 0.84c0.08 0.66 0.07 1.37 0.08 1.66l0 4.71 0.06 1.14c-0.14 0 -0.42 0.04 -0.48 0.02Z" fill="#020202" fill-rule="evenodd" stroke-width="1"></path>
  </g>
</svg>