<svg xmlns="http://www.w3.org/2000/svg" viewBox="0 0 24 24" id="Camera-Settings-Lock-1--Streamline-Freehand">
  <desc>
    Camera Settings Lock 1 Streamline Icon: https://streamlinehq.com
  </desc>
  <g>
    <path d="M13.5 14.79c0 -0.92 -0.33 -1.43 -1.14 -1.41 -0.43 0 -1.42 0 -1.29 1.46s2.44 1.16 2.43 -0.05Z" fill="#4C57E6" fill-rule="evenodd" stroke-width="1"></path>
    <path d="m16.2 17.46 0 0.05Z" fill="#020202" fill-rule="evenodd" stroke-width="1"></path>
    <path d="M7.54 18c1.28 1.48 8.91 1.26 9.62 0.14s0 -5.69 -0.32 -7.1c-0.18 -0.84 -0.21 -0.78 -1.86 -0.76a5.89 5.89 0 0 0 -0.07 -1.57C14.15 5.24 8 5.16 8.55 10.55h-0.13a0.34 0.34 0 0 0 0 0.68c2.49 0.06 5 -0.21 7.49 0 0 0.2 0.77 5.26 0.31 6.24 0 0 0.05 -0.07 0.06 0s0 0.07 -0.08 0.09c-0.14 0 -0.42 0.07 -0.64 0.11a20.33 20.33 0 0 1 -6.6 0.09c-1.18 -0.29 -0.94 -0.71 -1 -1.92a33.37 33.37 0 0 1 -0.11 -4.36 0.3 0.3 0 1 0 -0.59 -0.05 32.88 32.88 0 0 0 -0.09 4.44A3.06 3.06 0 0 0 7.54 18Zm1.63 -7.42a3.72 3.72 0 0 1 1.12 -2.67c0.85 -0.79 3.26 -0.63 3.79 1a5.27 5.27 0 0 1 0.19 1.37c-1.98 0.03 -3.27 0.18 -5.1 0.25Z" fill="#4C57E6" fill-rule="evenodd" stroke-width="1"></path>
    <path d="M23.88 13.46c-0.07 -1.45 0.23 -4.78 -1 -5.82 -1.55 -1.36 -2.78 -0.85 -4.08 -1.87 -1.14 -0.88 -1.48 -3 -3.17 -3.28 -2.52 -0.4 -5.54 -0.69 -7.8 0.55 -1.22 0.66 -1.19 2.6 -2 3.31S4.4 6.46 3.12 7a0.34 0.34 0 0 0 0.28 0.62c1.32 -0.53 1.6 0.31 2.88 -0.72 0.81 -0.65 1.12 -2.74 2 -3.17 2.08 -1.1 5 -0.75 7.28 -0.35 1.1 0.2 1.63 2.29 2.71 3.16 1.34 1.08 2.76 0.77 4 1.88 0.75 0.67 0.5 4.06 0.54 5.09 0.08 2 0.57 5.53 -1.16 6.28 -1.94 0.85 -18.11 1.43 -19.4 0.79S1.11 17.92 1 16.6C0.68 13.35 0.05 9.7 2.73 7.76a0.3 0.3 0 0 0 -0.35 -0.49C-0.57 9.33 -0.06 13.11 0.2 16.67c0.12 1.68 -0.06 3.84 1.6 4.7s17.91 0.48 20.26 -0.53 1.94 -4.63 1.82 -7.38Z" fill="#020202" fill-rule="evenodd" stroke-width="1"></path>
  </g>
</svg>