<svg xmlns="http://www.w3.org/2000/svg" viewBox="0 0 24 24" id="Camping-Tent-Forest-2--Streamline-Freehand">
  <desc>
    Camping Tent Forest 2 Streamline Icon: https://streamlinehq.com
  </desc>
  <title>camping-tent-forest-2</title>
  <g>
    <path d="M13.51 20.8a23.24 23.24 0 0 0 -0.81 -2.35c-0.26 -0.62 -0.53 -1.25 -0.83 -1.86a13 13 0 0 0 -0.68 -1.21 9.6 9.6 0 0 0 -0.7 -1 4.69 4.69 0 0 0 -0.63 -0.63 5.67 5.67 0 0 0 -0.76 -0.52 3.47 3.47 0 0 0 -0.59 -0.23 3.2 3.2 0 0 0 -0.65 -0.15l0.5 -0.9c0.32 -0.59 0.62 -1.19 0.89 -1.8a0.35 0.35 0 0 0 -0.15 -0.46 0.33 0.33 0 0 0 -0.45 0.14l-1.74 2.48 -0.22 -0.31c-0.56 -0.76 -1.16 -1.5 -1.75 -2.24a0.31 0.31 0 0 0 -0.42 -0.09 0.3 0.3 0 0 0 -0.08 0.41c0.45 0.85 0.86 1.7 1.34 2.53 0.09 0.15 0.19 0.3 0.29 0.45a3.57 3.57 0 0 0 -0.45 0.19 7.86 7.86 0 0 0 -2.81 2.9l-0.66 1.28L1.46 19l-0.64 1.9 -0.62 2.43a0.31 0.31 0 0 0 0.21 0.37s0.07 0 0.1 0a14.21 14.21 0 0 0 2.3 0.3c1.11 0.05 2.24 0 3.33 0s2 0 3 -0.09c1.52 -0.06 3 -0.18 4.55 -0.3h0.06a0.33 0.33 0 0 0 0.27 -0.4 22.07 22.07 0 0 0 -0.51 -2.41Zm-5.12 2 -2.27 0 -1.26 0.2c0.08 -0.25 0.15 -0.51 0.24 -0.76a9.11 9.11 0 0 1 0.35 -0.86l0.7 -1.27a2.32 2.32 0 0 1 0.9 -0.86 0.89 0.89 0 0 1 0.92 0.09l0.32 0.3a2.57 2.57 0 0 1 0.36 0.62c0.16 0.38 0.28 0.78 0.4 1.16l0.46 1.46Zm1.89 0 -0.38 -1.7a12.77 12.77 0 0 0 -0.3 -1.3 4.26 4.26 0 0 0 -0.42 -0.8 2.6 2.6 0 0 0 -0.26 -0.32 1.69 1.69 0 0 0 -0.32 -0.28A2 2 0 0 0 7 18a3 3 0 0 0 -1.7 1.49c-0.13 0.25 -0.25 0.5 -0.35 0.75s-0.18 0.49 -0.26 0.74a8.36 8.36 0 0 0 -0.27 1c-0.08 0.34 -0.14 0.69 -0.21 1 -0.63 0.06 -1.27 0.11 -1.9 0.13l-1.37 0 0.63 -2.05 0.71 -1.76 0.72 -1.45 0.69 -1.18a7 7 0 0 1 2.47 -2.41 2.43 2.43 0 0 1 2 -0.24 2.76 2.76 0 0 1 0.52 0.25c0.18 0.11 0.36 0.23 0.52 0.35a2.62 2.62 0 0 1 0.48 0.46 9.16 9.16 0 0 1 0.67 0.87 14.84 14.84 0 0 1 0.83 1.38c0.26 0.49 0.5 1 0.73 1.48a20.5 20.5 0 0 1 0.85 2.19c0.21 0.62 0.38 1.26 0.53 1.9 -1.01 0.02 -2.01 -0.01 -3.01 -0.03Z" fill="#020202" fill-rule="evenodd" stroke-width="1"></path>
    <path d="m13.62 11.13 0 -0.48a3.71 3.71 0 0 0 0 -0.47c0 -0.13 0 -0.26 -0.08 -0.39a21.85 21.85 0 0 0 2.36 -0.2 0.57 0.57 0 0 0 0.41 -0.26 0.6 0.6 0 0 0 0 -0.49l-1 -2.54 0.51 -0.3a0.46 0.46 0 0 0 0.26 -0.51 11.24 11.24 0 0 0 -0.76 -2.13 24.45 24.45 0 0 0 -1.59 -2.8 0.3 0.3 0 0 0 -0.15 -0.24 0.31 0.31 0 0 0 -0.41 0.11 0.29 0.29 0 0 0 -0.08 0.14L9.84 6.06a0.45 0.45 0 0 0 0 0.42 0.49 0.49 0 0 0 0.33 0.28l0.69 0.19 -0.85 2a0.58 0.58 0 0 0 0 0.5 0.54 0.54 0 0 0 0.43 0.26c0.66 0.07 1.39 0.1 2.12 0.11a2.32 2.32 0 0 0 -0.07 0.38 2.68 2.68 0 0 0 0 0.49 2.61 2.61 0 0 0 0.05 0.48c0 0.13 0 0.26 0.08 0.39 0.14 0.46 0.81 0.36 0.94 -0.1a3.06 3.06 0 0 0 0.06 -0.33Zm-2.29 -2.5 0.67 -1.8a0.51 0.51 0 0 0 -0.37 -0.72L11 6l2.41 -4.64a19.83 19.83 0 0 1 1.19 2.4 10.34 10.34 0 0 1 0.53 1.63l-0.61 0.28a0.48 0.48 0 0 0 -0.24 0.63l0.82 2.31c-0.62 0.06 -1.26 0.09 -1.91 0.1s-1.27 -0.04 -1.86 -0.08Z" fill="#4C57E6" fill-rule="evenodd" stroke-width="1"></path>
    <path d="m17.77 11.66 -1.81 0c-0.82 0.08 -4.18 0.44 -4.65 0.45a0.3 0.3 0 1 0 0 0.59c0.64 0.07 1.27 0.1 1.9 0.11l2.81 0 1.8 -0.07c1.4 -0.08 2.79 -0.19 4.19 -0.27a0.34 0.34 0 0 0 0 -0.68Z" fill="#020202" fill-rule="evenodd" stroke-width="1"></path>
    <path d="M23.77 5.39c-0.28 -0.65 -0.55 -1.32 -0.84 -2 -0.2 -0.45 -0.41 -0.89 -0.65 -1.32L21 0.16a0.33 0.33 0 0 0 -0.46 -0.11 0.34 0.34 0 0 0 -0.16 0.35c-0.42 0.65 -0.81 1.33 -1.19 2 -0.62 1.1 -1.2 2.22 -1.77 3.34a0.47 0.47 0 0 0 0.23 0.63l0.53 0.25 -0.86 1.92a0.57 0.57 0 0 0 0.06 0.52 0.58 0.58 0 0 0 0.47 0.24l2.1 0a6.23 6.23 0 0 0 -0.13 0.65 3.87 3.87 0 0 0 0 0.48l0 0.47c0 0.15 0.05 0.24 0.07 0.35a0.49 0.49 0 0 0 0.95 0l0.06 -0.38a3.78 3.78 0 0 0 0 -1c0 -0.23 -0.09 -0.45 -0.14 -0.66l2.32 -0.11a0.54 0.54 0 0 0 0.43 -0.23 0.55 0.55 0 0 0 0.08 -0.48c-0.14 -0.43 -0.29 -0.86 -0.46 -1.28q-0.15 -0.4 -0.33 -0.81l0.73 -0.3a0.47 0.47 0 0 0 0.24 -0.61Zm-2.09 1c0.16 0.4 0.32 0.8 0.46 1.21l0.17 0.53 -3.64 0.1 0.63 -1.6a0.47 0.47 0 0 0 0 -0.4 0.46 0.46 0 0 0 -0.3 -0.32l-0.53 -0.21c0.43 -1 0.87 -2 1.34 -2.95 0.29 -0.58 0.59 -1.16 0.9 -1.73l0.87 1.44a13.38 13.38 0 0 1 0.56 1.28c0.2 0.52 0.39 1 0.59 1.58l-0.81 0.37a0.51 0.51 0 0 0 -0.24 0.65Z" fill="#020202" fill-rule="evenodd" stroke-width="1"></path>
  </g>
</svg>