<svg xmlns="http://www.w3.org/2000/svg" viewBox="0 0 24 24" id="Campaign-Parade-Car--Streamline-Freehand">
  <desc>
    Campaign Parade Car Streamline Icon: https://streamlinehq.com
  </desc>
  <title>campaign-parade-car</title>
  <g>
    <path d="M12.54 20.66a9.52 9.52 0 0 0 -1.31 0 4.84 4.84 0 0 0 -1.3 0.31c-0.31 0.2 -0.44 0.71 0 0.79a10.78 10.78 0 0 1 1.14 0c0.42 0 0.84 0 1.25 -0.05a8.41 8.41 0 0 0 1.5 -0.17c0.63 0 0.68 -0.66 0 -0.72s-0.71 -0.13 -1.28 -0.16Z" fill="#020202" stroke-width="1"></path>
    <path d="M17.44 18.61a2.68 2.68 0 0 0 -2.08 0.68 2.49 2.49 0 0 0 -0.13 3.71 2.54 2.54 0 0 0 2.43 0.69 2.6 2.6 0 0 0 -0.22 -5.08Zm-0.08 4.05a1.51 1.51 0 0 1 -1.42 -0.39 1.68 1.68 0 0 1 -0.59 -1.45 1.65 1.65 0 0 1 3.29 0.22 1.68 1.68 0 0 1 -1.28 1.62Z" fill="#4C57E6" stroke-width="1"></path>
    <path d="M9.87 6.13a6.27 6.27 0 0 1 1.23 -0.45 6.19 6.19 0 0 1 1.83 -0.12c1.23 0.09 2.4 0.48 3.6 0.62a7.35 7.35 0 0 0 1.69 0 5.32 5.32 0 0 0 1.22 -0.31A7.65 7.65 0 0 0 21.06 5a6.64 6.64 0 0 0 0.61 -0.38 0.8 0.8 0 0 0 0.24 -0.33 1 1 0 0 0 0 -0.37 7.28 7.28 0 0 0 -0.2 -0.78q-0.09 -0.42 -0.21 -0.84c-0.19 -0.63 -0.4 -1.25 -0.59 -1.88a0.32 0.32 0 0 0 -0.1 -0.13s0 -0.08 0 -0.11a0.31 0.31 0 0 0 -0.4 -0.18 8.59 8.59 0 0 1 -1.82 0.59 6 6 0 0 1 -1.85 0.09C15.88 0.64 15 0.42 14.11 0.26A13.34 13.34 0 0 0 11.32 0a5.24 5.24 0 0 0 -3.51 1.36 0.3 0.3 0 0 0 -0.19 0.36c0.18 0.87 0.35 1.73 0.58 2.59q0.15 0.56 0.33 1.08c0.12 0.36 0.26 0.72 0.4 1.07s0.38 0.91 0.58 1.36 0.91 0.37 0.82 -0.06c-0.2 -0.66 -0.28 -0.99 -0.46 -1.63ZM9.53 5c-0.11 -0.36 -0.24 -0.71 -0.38 -1.06 -0.29 -0.75 -0.62 -1.47 -0.92 -2.21A4.47 4.47 0 0 1 10.47 1a11.59 11.59 0 0 1 3 0.29 23.72 23.72 0 0 0 3.19 0.44 7 7 0 0 0 2.11 -0.27 9.48 9.48 0 0 0 1.6 -0.69c0.12 0.49 0.25 1 0.36 1.45s0.16 0.71 0.21 1.07a4.37 4.37 0 0 0 0 0.61c-0.15 0.07 -0.33 0.27 -0.4 0.3a9 9 0 0 1 -1.21 0.59 5.28 5.28 0 0 1 -1.26 0.31 7 7 0 0 1 -1.45 0c-1.2 -0.1 -2.4 -0.4 -3.62 -0.42a6.72 6.72 0 0 0 -2.09 0.32 8.35 8.35 0 0 0 -1.23 0.54c-0.05 -0.17 -0.09 -0.34 -0.15 -0.54Z" fill="#4C57E6" stroke-width="1"></path>
    <path d="m22.81 19 0 -2.24c0 -0.51 0 -1 -0.06 -1.53 0 -0.28 -0.05 -0.61 -0.11 -0.93a2.26 2.26 0 0 0 -0.24 -0.72 0.61 0.61 0 0 0 -0.43 -0.31l-0.16 0A3.6 3.6 0 0 0 21 11.1a2.56 2.56 0 0 0 -0.48 -0.39 2.15 2.15 0 0 0 0.86 -1.82 1.88 1.88 0 0 0 -3.25 -1.32 2.34 2.34 0 0 0 -0.7 1.18 2 2 0 0 0 0.41 1.73 1.42 1.42 0 0 0 0.13 0.12c-0.25 0.13 -0.49 0.28 -0.72 0.43a0.28 0.28 0 0 0 -0.12 0.38 0.28 0.28 0 0 0 0.38 0.13 6.26 6.26 0 0 1 0.61 -0.21 1.78 1.78 0 0 1 0.56 -0.06 2.63 2.63 0 0 1 0.71 0.13 2.25 2.25 0 0 1 0.88 0.46 3.27 3.27 0 0 1 0.9 1.3L20 13.07l-0.87 0 -2 0.08a0.32 0.32 0 0 0 0.05 -0.34 3.44 3.44 0 0 0 -1.52 -1.7 2.43 2.43 0 0 0 0.67 -2.43c-0.59 -2.15 -3 -2.11 -4 -0.46a2.08 2.08 0 0 0 -0.31 1.11 2.42 2.42 0 0 0 0.98 1.81 3.41 3.41 0 0 0 -0.69 0.54 2.85 2.85 0 0 0 -0.46 0.72 6.41 6.41 0 0 0 -0.3 1l-0.53 0 -0.19 -2.94c0 -0.33 0 -0.7 -0.06 -1a4 4 0 0 0 -0.16 -0.78c-0.15 -0.46 -0.77 -0.43 -1.66 -0.46a11.75 11.75 0 0 0 -2 0.15 10.08 10.08 0 0 0 -2 0.55 8.84 8.84 0 0 0 -1.51 0.75 4.77 4.77 0 0 0 -0.91 0.76 5.35 5.35 0 0 0 -1.28 2.93 17.22 17.22 0 0 0 0.17 4.51 21.87 21.87 0 0 0 0.32 2.38 2.82 2.82 0 0 0 0.47 1 0.39 0.39 0 0 0 0.25 0.15l0.48 0 1 0c0.4 0.06 0.44 -0.58 0 -0.62L3 20.74a1.65 1.65 0 0 0 -0.34 -0.07 3.06 3.06 0 0 1 -0.26 -1c-0.09 -0.7 -0.08 -1.47 -0.12 -2s-0.11 -1.41 -0.12 -2.17c0.56 0.06 1.11 0.1 1.67 0.11s1.21 0 1.83 0a10 10 0 0 0 1.13 0 1.06 1.06 0 0 0 0.51 -0.22 1.06 1.06 0 0 0 0.28 -0.62 8.78 8.78 0 0 0 0 -1.38c0 -0.6 -0.07 -1.2 -0.13 -1.8q-0.12 -1.14 -0.27 -2.28A11.17 11.17 0 0 1 8.93 9c0.09 0 0.74 0.22 1 0.12a1.65 1.65 0 0 1 0.06 0.32c0.05 0.34 0.07 0.7 0.11 1l0.3 2.9s0.17 0.6 0.43 0.58l2.5 0c2 0 3.92 0.11 5.87 0.13l0.79 0c0.41 0 0.81 0.06 1.21 0.11 0 0 0.26 0.07 0.43 0.09l0 0.1c0.06 0.28 0.08 0.59 0.11 0.84 0.06 0.48 0.1 1 0.12 1.45 0 0.74 0.06 1.48 0.09 2.22 0 0.28 0.1 0.71 0.13 1.11a2.25 2.25 0 0 1 0 0.36 3.07 3.07 0 0 0 -0.37 0.15 7.14 7.14 0 0 1 -0.77 0.18l-0.89 0.15c-0.36 0.2 -0.47 0.68 0 0.67l1 -0.12a8.46 8.46 0 0 0 0.85 -0.16 3.86 3.86 0 0 0 0.63 -0.14 0.5 0.5 0 0 0 0.23 -0.23 1.78 1.78 0 0 0 0.13 -0.7c0 -0.34 -0.08 -0.87 -0.08 -1.13Zm-3.43 -8.89a0.91 0.91 0 0 1 -0.79 -0.28 1.1 1.1 0 0 1 -0.34 -0.88 1.63 1.63 0 0 1 0.35 -0.83 1 1 0 0 1 1.83 0.82 1.19 1.19 0 0 1 -1.05 1.12ZM5.51 14.6c-0.71 0.12 -1.41 0.23 -2.11 0.29 -0.42 0 -0.84 0 -1.27 0.06a12.13 12.13 0 0 1 0.13 -1.5 4.44 4.44 0 0 1 1 -2.37A3.23 3.23 0 0 1 4 10.5a8 8 0 0 1 1.33 -0.69 8.36 8.36 0 0 1 1.13 -0.39l0 1.71 0 2.21c0.01 1.95 0.62 1.07 -0.95 1.26Zm7.4 -5.33a1.37 1.37 0 0 1 0.19 -0.9 1.27 1.27 0 0 1 2.4 0.49 1.4 1.4 0 0 1 -0.77 1.62 1.12 1.12 0 0 1 -1.1 -0.16 1.55 1.55 0 0 1 -0.72 -1.05Zm1.21 4c-0.64 0 -1.29 0.07 -1.93 0.11a3.74 3.74 0 0 1 0.22 -0.45 2 2 0 0 1 0.48 -0.53 3.15 3.15 0 0 1 0.77 -0.4 2.41 2.41 0 0 1 1.21 -0.11 2.72 2.72 0 0 1 1.79 1.24s0.05 0 0.07 0.05Z" fill="#020202" stroke-width="1"></path>
    <path d="M7.49 19a2.85 2.85 0 0 0 -2 0.49 2.48 2.48 0 0 0 -0.66 3.4A2.31 2.31 0 0 0 6.52 24c3.25 0.28 4.23 -4.58 0.97 -5Zm1.07 2.5a1.71 1.71 0 0 1 -1.91 1.4 1.46 1.46 0 0 1 -1.27 -1.77c0.25 -2.31 3.69 -1.83 3.18 0.37Z" fill="#4C57E6" stroke-width="1"></path>
  </g>
</svg>