<svg xmlns="http://www.w3.org/2000/svg" viewBox="0 0 24 24" id="Camping-Tent-Forest-1--Streamline-Freehand">
  <desc>
    Camping Tent Forest 1 Streamline Icon: https://streamlinehq.com
  </desc>
  <title>camping-tent-forest-1</title>
  <g>
    <path d="M13.1 18.33c-0.27 -0.64 -0.54 -1.28 -0.85 -1.91a13.39 13.39 0 0 0 -0.69 -1.23 12.05 12.05 0 0 0 -0.72 -1 4.91 4.91 0 0 0 -0.65 -0.64 5.84 5.84 0 0 0 -0.77 -0.55 3.62 3.62 0 0 0 -0.6 -0.28 3.38 3.38 0 0 0 -0.67 -0.15l0.51 -0.92c0.33 -0.61 0.63 -1.22 0.91 -1.84a0.35 0.35 0 0 0 -0.15 -0.47 0.35 0.35 0 0 0 -0.42 0.12l-1.82 2.59a3.46 3.46 0 0 0 -0.18 -0.31c-0.58 -0.79 -1.19 -1.54 -1.8 -2.3a0.3 0.3 0 1 0 -0.51 0.33c0.46 0.86 0.88 1.74 1.37 2.58 0.09 0.16 0.2 0.31 0.3 0.46 -0.16 0.07 -0.31 0.12 -0.46 0.2A8 8 0 0 0 3 16l-0.68 1.31 -0.7 1.58L1 20.8l-0.68 2.51a0.31 0.31 0 0 0 0.21 0.38s0.07 0 0.11 0A14.85 14.85 0 0 0 3 24c1.14 0.05 2.28 0 3.4 0s2.07 0 3.1 -0.09c1.55 -0.06 3.1 -0.18 4.65 -0.31h0.07a0.34 0.34 0 0 0 0.27 -0.41 20 20 0 0 0 -0.56 -2.47 24 24 0 0 0 -0.83 -2.39ZM2.43 23.14l-1.41 0L1.67 21l0.73 -1.81 0.77 -1.49 0.71 -1.21A7.14 7.14 0 0 1 6.41 14a2.47 2.47 0 0 1 2 -0.24 2.84 2.84 0 0 1 0.53 0.25 4.1 4.1 0 0 1 0.53 0.36 3.71 3.71 0 0 1 0.5 0.47 9.53 9.53 0 0 1 0.68 0.89 15.41 15.41 0 0 1 0.84 1.41c0.27 0.5 0.51 1 0.75 1.51a21.44 21.44 0 0 1 0.9 2.27c0.21 0.64 0.39 1.29 0.54 1.94 -1 0 -2 0 -3.08 -0.06l-0.38 -1.73a12.78 12.78 0 0 0 -0.31 -1.33 4.45 4.45 0 0 0 -0.43 -0.91 2.91 2.91 0 0 0 -0.26 -0.33 1.81 1.81 0 0 0 -0.34 -0.28 2 2 0 0 0 -1.68 -0.36 3.12 3.12 0 0 0 -1.74 1.53 7.59 7.59 0 0 0 -0.35 0.77q-0.15 0.38 -0.27 0.75c-0.11 0.33 -0.2 0.67 -0.28 1s-0.14 0.7 -0.21 1.05c-0.62 0.11 -1.28 0.16 -1.92 0.18Zm6.27 -0.34 -2.33 0 -1.29 0.2c0.08 -0.26 0.16 -0.52 0.25 -0.78a7.39 7.39 0 0 1 0.36 -0.88L6.41 20a2.33 2.33 0 0 1 0.91 -0.88 0.91 0.91 0 0 1 0.94 0.1l0.33 0.3a3.06 3.06 0 0 1 0.37 0.63 11.18 11.18 0 0 1 0.41 1.19l0.47 1.5Z" fill="#020202" fill-rule="evenodd" stroke-width="1"></path>
    <path d="M15.22 11.52a0.3 0.3 0 0 0 0.33 -0.28 0.3 0.3 0 0 0 -0.27 -0.33 4.86 4.86 0 0 1 -3.39 -2.28 4.48 4.48 0 0 1 -0.55 -3.92 4.62 4.62 0 0 1 1.55 -1.94 6.87 6.87 0 0 1 2.27 -1.21 8.53 8.53 0 0 1 2.58 -0.39 5 5 0 0 1 2.41 0.58 5 5 0 0 1 2.17 2.61 4.59 4.59 0 0 1 0 3.4 5.19 5.19 0 0 1 -1.14 1.64 7.11 7.11 0 0 1 -1.68 1.17 0.35 0.35 0 0 0 -0.15 0.47 0.34 0.34 0 0 0 0.46 0.15A7.6 7.6 0 0 0 21.7 10a6.08 6.08 0 0 0 1.39 -1.85A5.53 5.53 0 0 0 23.25 4 6 6 0 0 0 20.72 0.79a6 6 0 0 0 -3 -0.79 9.6 9.6 0 0 0 -2.94 0.44 8 8 0 0 0 -2.64 1.45 5.65 5.65 0 0 0 -1.81 2.49 5.42 5.42 0 0 0 0.85 4.7 5.54 5.54 0 0 0 4.04 2.44Z" fill="#020202" fill-rule="evenodd" stroke-width="1"></path>
    <path d="m17.8 10.33 0 -2.1c0.25 -0.16 0.51 -0.32 0.75 -0.49a5.89 5.89 0 0 0 0.73 -0.59 9.38 9.38 0 0 0 1 -1.26 0.31 0.31 0 0 0 0 -0.44 0.3 0.3 0 0 0 -0.43 0c-0.38 0.26 -0.78 0.46 -1.16 0.71a5.19 5.19 0 0 0 -0.46 0.36 3.25 3.25 0 0 0 -0.42 0.41c0 -1 -0.1 -2 -0.11 -3.06a0.31 0.31 0 1 0 -0.61 0c-0.14 1.12 -0.29 2.24 -0.36 3.39l-0.3 -0.26a7 7 0 0 0 -0.67 -0.52 10.4 10.4 0 0 0 -1.33 -0.68 0.32 0.32 0 0 0 -0.43 0.08 0.3 0.3 0 0 0 0.07 0.42c0.3 0.32 0.55 0.66 0.85 1a4.82 4.82 0 0 0 0.43 0.36 3.88 3.88 0 0 0 0.48 0.3 6.12 6.12 0 0 0 0.83 0.36l0 0.61c0 0.51 0 1 0.06 1.52 0.06 0.94 0.16 1.87 0.27 2.8 0.06 0.49 0.62 0.38 0.79 0 -0.02 -1 0.01 -1.95 0.02 -2.92Z" fill="#4C57E6" fill-rule="evenodd" stroke-width="1"></path>
    <path d="M23.34 13.72c-1.32 -0.05 -2.45 -0.12 -3.52 -0.13h-1.51a44.46 44.46 0 0 0 -5 0.55 0.32 0.32 0 0 0 -0.28 0.33 0.3 0.3 0 0 0 0.33 0.28c1.31 0 2.44 0.05 3.51 0l1.5 0c0.5 0 1 0 1.49 -0.08 1.07 -0.07 2.2 -0.17 3.51 -0.27a0.35 0.35 0 0 0 0.34 -0.35 0.35 0.35 0 0 0 -0.37 -0.33Z" fill="#020202" fill-rule="evenodd" stroke-width="1"></path>
  </g>
</svg>