<svg xmlns="http://www.w3.org/2000/svg" viewBox="0 0 24 24" id="Candle-Table--Streamline-Freehand">
  <desc>
    Candle Table Streamline Icon: https://streamlinehq.com
  </desc>
  <g>
    <path d="M8.06 10.29c4.78 0.3 4.16 -0.18 7.08 -0.16a0.34 0.34 0 0 0 0.06 -0.68c-0.4 -0.07 -0.78 -0.12 -1.16 -0.16 0 -0.46 0.05 -1.08 0.09 -1.74 0.08 -1.19 0.19 -2.48 0.25 -3.14a6.93 6.93 0 0 0 0 -1.3 2.3 2.3 0 0 0 -0.3 -1 0.9 0.9 0 0 0 -0.45 -0.4 2.18 2.18 0 0 0 -0.89 -0.09l-0.44 0a1.21 1.21 0 0 0 0 -0.19l0 -0.21c0 -0.07 -0.14 -0.31 -0.18 -0.48a0.33 0.33 0 0 0 -0.29 -0.38 0.34 0.34 0 0 0 -0.39 0.29 2.78 2.78 0 0 0 -0.23 0.59 0.71 0.71 0 0 0 0 0.25 0.76 0.76 0 0 0 0 0.21c-0.2 0 -0.41 0 -0.61 0.08A3.24 3.24 0 0 0 10 2a1.25 1.25 0 0 0 -0.47 0.41 1.75 1.75 0 0 0 -0.24 0.74 9.88 9.88 0 0 0 0 1.26l0 4.09 0 1L8 9.69a0.3 0.3 0 0 0 -0.29 0.31 0.29 0.29 0 0 0 0.35 0.29Zm2 -1.76c0.11 -1.45 0.32 -3.21 0.36 -4.11l0 -1a0.81 0.81 0 0 1 0.08 -0.37l0.4 -0.12a6 6 0 0 1 0.74 -0.1c0.4 0 0.81 -0.05 1.21 -0.06 0.13 0 0.34 0.09 0.39 0a1.23 1.23 0 0 1 0.14 0.46 5.2 5.2 0 0 1 0 1.11l0 3.18 0 1.71a13.45 13.45 0 0 0 -2.84 0.07l-0.54 0.09 0 -0.86Z" fill="#020202" fill-rule="evenodd" stroke-width="1"></path>
    <path d="m23.66 12.63 -0.87 -0.1a0.24 0.24 0 0 0 0 -0.08c0 -0.5 0.06 -1 0.11 -1.49 0.13 -1.19 0.33 -2.37 0.41 -3.56 0 -0.3 0.13 -0.85 0.15 -1.31a1.8 1.8 0 0 0 -0.12 -0.78 1.21 1.21 0 0 0 -0.5 -0.53 2.75 2.75 0 0 0 -0.73 -0.25l-0.86 -0.07h-0.14a1.29 1.29 0 0 0 0 -0.33 1 1 0 0 0 -0.06 -0.3 1.48 1.48 0 0 1 -0.2 -0.55 0.34 0.34 0 0 0 -0.27 -0.41 0.34 0.34 0 0 0 -0.4 0.27A1.46 1.46 0 0 0 20 4a1.21 1.21 0 0 0 0.09 0.41 5 5 0 0 0 -1 0.07 1.57 1.57 0 0 0 -1.09 0.7 2.59 2.59 0 0 0 -0.27 1 13.43 13.43 0 0 0 0.09 1.92c0.06 1.15 0 2.33 0.09 3.5 0 0.38 0.06 0.76 0.1 1.13l-1 0.23a0.3 0.3 0 0 0 -0.28 0.32 0.32 0.32 0 0 0 0.33 0.28c1.71 0 6.51 -0.2 6.61 -0.2A0.35 0.35 0 0 0 24 13a0.35 0.35 0 0 0 -0.34 -0.37Zm-1.32 -5.26 -0.13 5.08 -1.21 -0.14a12.75 12.75 0 0 0 -1.63 0.11c-0.22 0 -0.44 0.09 -0.66 0.13l0 -1c0 -1.17 0.11 -2.34 0.12 -3.5 0 -0.48 -0.05 -1 0 -1.55a1.67 1.67 0 0 1 0.17 -0.78c0 -0.07 0.14 -0.06 0.24 -0.08a3.92 3.92 0 0 1 0.61 -0.07l1.43 0 0.67 0 0.43 0.12a1.27 1.27 0 0 1 0.05 0.47c-0.03 0.5 -0.09 0.95 -0.09 1.21Z" fill="#020202" fill-rule="evenodd" stroke-width="1"></path>
    <path d="M6.21 11.45a0.34 0.34 0 1 0 0 -0.68l-0.37 0L6 7.47A8.88 8.88 0 0 0 6 6.2a2.3 2.3 0 0 0 -0.3 -1 1.86 1.86 0 0 0 -1 -0.69 5.28 5.28 0 0 0 -0.91 -0.24A1.57 1.57 0 0 0 4 4a0.93 0.93 0 0 0 0 -0.29 1.08 1.08 0 0 0 0 -0.31 3.71 3.71 0 0 0 -0.18 -0.73 0.35 0.35 0 1 0 -0.69 0c-0.05 0.24 -0.16 0.42 -0.21 0.65a1.3 1.3 0 0 0 -0.06 0.44 1.28 1.28 0 0 0 0.06 0.34l-0.2 0a2.48 2.48 0 0 0 -0.92 0.07 1 1 0 0 0 -0.54 0.45 1.5 1.5 0 0 0 -0.14 0.63l0 1v2.09c0 0.48 -0.06 1 0 1.46a4.2 4.2 0 0 0 0.13 1l-0.94 0.14a0.3 0.3 0 1 0 0 0.6 20.27 20.27 0 0 0 5.9 -0.09Zm-4 -6.23s-0.06 0.1 -0.07 0.06 0.04 -0.06 0.09 -0.06Zm-0.42 4.59c0 -0.47 0.13 -0.94 0.19 -1.41l0.19 -2.05 0.08 -1.13c0.1 0 0.27 0.06 0.33 0.07a11.74 11.74 0 0 1 1.31 0.19c0.35 0.08 0.72 0.13 0.86 0.34a1.37 1.37 0 0 1 0.2 0.52A8.53 8.53 0 0 1 5 7.45l0.08 3.24 -1 -0.07 -0.88 0c-0.3 0 -0.59 0 -0.88 0.05s-0.35 0 -0.52 0.06a2.83 2.83 0 0 1 -0.01 -0.92Z" fill="#020202" fill-rule="evenodd" stroke-width="1"></path>
    <path d="M20.15 14.3a5 5 0 0 1 -0.08 0.77 1.42 1.42 0 0 1 -0.43 0.89 2.6 2.6 0 0 1 -1.06 0.36c-0.69 0.12 -1.45 0.13 -2 0.19a23 23 0 0 1 -3.32 0.11l-0.92 0 0 -2.56c0 -0.84 -0.1 -1.86 -0.21 -2.89 -0.12 -0.8 -0.72 -0.63 -0.8 0 0 1 -0.05 1.84 -0.08 2.7s-0.07 1.76 -0.08 2.69c-1 -0.06 -2 -0.14 -3 -0.23S6 16.46 5 16.31a2.36 2.36 0 0 1 -1.11 -0.4 0.81 0.81 0 0 1 -0.27 -0.47 4 4 0 0 1 -0.09 -0.77c0 -0.7 -0.07 -1.41 -0.12 -2.12 -0.11 -0.86 -0.63 -0.83 -0.66 0s0 1.44 0 2.15a4.73 4.73 0 0 0 0.11 1.12 1.55 1.55 0 0 0 0.49 0.78 3.12 3.12 0 0 0 1.5 0.67c1.08 0.21 2.36 0 3.34 0.14s2 0.19 3.08 0.26l0 1c0 0.87 -0.07 1.89 0 2.85a6 6 0 0 0 0.12 1l-1.43 0c-0.89 0 -1.79 0.09 -2.59 0.18a0.3 0.3 0 0 0 -0.29 0.32 0.32 0.32 0 0 0 0.31 0.29l4.25 0.33 1.58 0c1.21 -0.05 2.43 -0.19 3.6 -0.19a0.34 0.34 0 0 0 0 -0.68c-0.84 -0.11 -1.73 -0.17 -2.62 -0.2 -0.72 0 -1.44 0 -2.14 -0.06a5.23 5.23 0 0 1 -0.05 -1c0 -0.95 0.22 -2 0.26 -2.84l0 -0.93 1 0a22.43 22.43 0 0 0 3.47 -0.26 20.84 20.84 0 0 0 2.34 -0.38 3 3 0 0 0 1.06 -0.5 2.26 2.26 0 0 0 0.67 -1.41 5.45 5.45 0 0 0 0.06 -0.9c-0.16 -1.13 -0.69 -1 -0.72 0.01Z" fill="#4C57E6" fill-rule="evenodd" stroke-width="1"></path>
  </g>
</svg>