<svg xmlns="http://www.w3.org/2000/svg" viewBox="0 0 24 24" id="Cannabis-For-Dog--Streamline-Freehand">
  <desc>
    Cannabis For Dog Streamline Icon: https://streamlinehq.com
  </desc>
  <g>
    <path d="M23.8 13.92c-0.32 -0.35 -2.05 -0.38 -2.91 -0.2a3.74 3.74 0 0 0 -1.23 0.46 5.15 5.15 0 0 0 -1.2 -3.18 2.17 2.17 0 0 0 -0.32 -0.36c-0.43 -0.42 -0.51 -0.44 -0.54 -0.45 -0.8 -0.37 -2 1.68 -2.25 2.52a4.77 4.77 0 0 0 -0.27 1.45 6.16 6.16 0 0 0 -4.15 -0.28c-0.49 0.51 0.06 2 0.49 2.58a4.6 4.6 0 0 0 1.43 1.36 2.48 2.48 0 0 0 0.43 0.16 10.53 10.53 0 0 0 -1.11 2c-0.15 0.36 -0.28 0.72 -0.16 0.95a0.73 0.73 0 0 0 0.48 0.36 4.3 4.3 0 0 0 1.87 0.07 4.86 4.86 0 0 0 1.73 -0.6 3.74 3.74 0 0 0 0.49 -0.32l0.28 -0.22a6.15 6.15 0 0 0 -0.15 2.36c0.11 0.82 0.08 1.48 0.49 1.33s0.23 -0.25 0.46 -1.29c0 -0.23 0.11 -0.49 0.15 -0.79a7.27 7.27 0 0 0 0 -0.82c0 -0.31 0 -0.61 -0.06 -0.89a0.32 0.32 0 0 0 0.37 -0.09 0.35 0.35 0 0 0 0 -0.49c-0.32 -0.32 -0.63 -1 -1.08 -0.53a6.92 6.92 0 0 1 -1.34 1.1 4.38 4.38 0 0 1 -2.89 0.41A15.67 15.67 0 0 1 14 18.59c0.07 -0.11 0.34 -0.41 0.44 -0.55a0.56 0.56 0 0 0 0 -0.67c-0.36 -0.37 -1.16 0 -2.14 -1.5a2.58 2.58 0 0 1 -0.43 -1.15h0.34a9.12 9.12 0 0 1 1.48 0.09 2.32 2.32 0 0 1 0.8 0.28l0.9 0.53a0.57 0.57 0 0 0 0.58 0c0.45 -0.26 0.24 -0.76 0.31 -1.57a5.19 5.19 0 0 1 0.21 -1 4.08 4.08 0 0 1 0.43 -0.89l0.52 -0.64 0.49 0.64a3.31 3.31 0 0 1 0.42 0.89 5.39 5.39 0 0 1 0.22 1v1.07a0.55 0.55 0 0 0 0.28 0.49c0.71 0.42 0.94 -1 3.73 -1l0.42 0.07a2.38 2.38 0 0 1 -0.5 1.2A4 4 0 0 1 21.31 17l-0.94 0.45c-0.37 0.36 0.24 0.85 0.45 1.16s0.48 0.66 0.68 1a2.38 2.38 0 0 1 0.45 1 3.39 3.39 0 0 1 -1.5 0.07 4.07 4.07 0 0 1 -1.5 -0.48c-0.41 -0.24 -1.21 0.69 1.41 1.13a4.3 4.3 0 0 0 1.83 -0.05 0.64 0.64 0 0 0 0.52 -0.52 3.34 3.34 0 0 0 -0.55 -1.53c-0.21 -0.36 -0.44 -0.7 -0.68 -1.06a2.56 2.56 0 0 0 -0.16 -0.23 4.71 4.71 0 0 0 2.12 -1.78c0.37 -0.62 0.75 -1.81 0.36 -2.24Z" fill="#020202" stroke-width="1"></path>
    <path d="M7.76 17.38a1.8 1.8 0 0 0 -1 1.75 2 2 0 0 0 1.3 1.55 1.93 1.93 0 0 0 2.65 -1c0.86 -1.98 -1.24 -3.3 -2.95 -2.3Zm1.09 0.37a1 1 0 0 1 1 1.5 0.94 0.94 0 0 1 -1.32 0.38 1.06 1.06 0 0 1 -0.7 -0.67 0.9 0.9 0 0 1 0.38 -0.88 1.76 1.76 0 0 1 0.64 -0.33Z" fill="#4C57E6" stroke-width="1"></path>
    <path d="M15.39 6.44a7.41 7.41 0 0 0 -1 -1 7.59 7.59 0 0 0 -1.14 -0.77l-1 -0.46 -0.17 -0.78 -0.3 -0.74 -0.3 -0.64 -0.28 -0.48A3.78 3.78 0 0 0 10 0.26a1.32 1.32 0 0 0 -1.56 0.18 3.17 3.17 0 0 0 -0.82 1.09 6.81 6.81 0 0 0 -0.52 1.81A3.61 3.61 0 0 0 7 4l-0.38 0.12a9.82 9.82 0 0 0 -1.24 0.56 4.29 4.29 0 0 0 -0.77 0.55 3.49 3.49 0 0 0 -0.79 1 7.68 7.68 0 0 0 -0.6 1.65s-0.06 0.47 -0.11 0.89c-0.16 0.26 -1.3 0.46 -1.56 0.61a2.73 2.73 0 0 0 -1.18 1.16A3.31 3.31 0 0 0 0 12.07a7.71 7.71 0 0 0 0.24 2.26 1.76 1.76 0 0 0 0.69 1 3.49 3.49 0 0 0 1.41 0.44c1.21 0.16 2.64 -0.07 2.93 0 0.08 0 0.91 0.67 1.89 1.2l0.32 0.15c0.48 0.09 0.8 0 0.7 -0.44a7.17 7.17 0 0 1 -0.67 -0.35c-1 -0.58 -1.87 -1.27 -1.95 -1.3 -0.28 -0.11 -1.52 0 -2.69 -0.12a3.17 3.17 0 0 1 -1.43 -0.4 1.11 1.11 0 0 1 -0.36 -0.74A5.83 5.83 0 0 1 1 13a2.67 2.67 0 0 0 2 -0.38 2 2 0 0 0 0.84 -1.67 1.4 1.4 0 0 0 -0.58 -1l0.13 -0.05A1.3 1.3 0 0 0 4 9.45a1.26 1.26 0 0 0 0.21 -0.53c0.06 -0.25 0 -0.55 0.11 -0.76A5.87 5.87 0 0 1 4.7 7a2.8 2.8 0 0 1 0.63 -0.91 4.2 4.2 0 0 1 0.76 -0.51A7.19 7.19 0 0 1 7 5.17c0.2 -0.07 0.71 -0.2 0.79 -0.23a0.56 0.56 0 0 0 0.3 -0.26 1.12 1.12 0 0 0 0.12 -0.39l0 -0.78A6.5 6.5 0 0 1 8.58 2a2.31 2.31 0 0 1 0.53 -0.76 0.42 0.42 0 0 1 0.58 0 3.3 3.3 0 0 1 0.76 0.85l0.27 0.43 0.3 0.57 0.29 0.65a5.77 5.77 0 0 0 0.2 0.76 0.92 0.92 0 0 0 0.38 0.44l1 0.43A6.64 6.64 0 0 1 14 6a7.17 7.17 0 0 1 0.91 0.83c0.13 0.16 0.42 0.58 0.65 0.93 0.37 0.13 0.5 0 0.46 -0.44 -0.24 -0.32 -0.5 -0.72 -0.63 -0.88ZM2.53 11.53a1.31 1.31 0 0 1 -0.36 0.34 2.29 2.29 0 0 1 -1.12 0.32 0.34 0.34 0 0 0 0 -0.1A2.3 2.3 0 0 1 1.31 11a1.77 1.77 0 0 1 0.73 -0.7l0.15 -0.06a1.17 1.17 0 0 1 0.44 0.2 0.52 0.52 0 0 1 0.16 0.47 1 1 0 0 1 -0.26 0.62Z" fill="#020202" stroke-width="1"></path>
    <path d="M19.38 9a4.44 4.44 0 0 0 -1.1 -1.05 3.54 3.54 0 0 0 -1 -0.65 0.89 0.89 0 0 0 -0.81 0c-0.56 0.4 -0.77 1.06 -1.79 2.46 -0.57 0.78 -1.08 1.78 -1.78 2.7a0.3 0.3 0 0 0 0 0.42 0.29 0.29 0 0 0 0.42 0 21.41 21.41 0 0 0 2.07 -2.29c0.61 -0.8 1.08 -1.53 1.39 -2 0.11 -0.16 0.18 -0.39 0.23 -0.33l0.23 0.14a5.1 5.1 0 0 1 0.45 0.29 3.48 3.48 0 0 1 1 0.7 0.59 0.59 0 0 1 0.08 0.55 0.33 0.33 0 0 0 0.2 0.43 0.33 0.33 0 0 0 0.43 -0.2A1.23 1.23 0 0 0 19.38 9Z" fill="#4C57E6" stroke-width="1"></path>
    <path d="M8.07 7.26c-0.38 -0.25 -0.88 -0.07 -1.28 0.36s-0.11 1.25 0.6 1.5c1.07 0.39 1.84 -1.12 0.68 -1.86Z" fill="#020202" stroke-width="1"></path>
  </g>
</svg>