<svg xmlns="http://www.w3.org/2000/svg" viewBox="0 0 24 24" id="Cannabis-Book--Streamline-Freehand">
  <desc>
    Cannabis Book Streamline Icon: https://streamlinehq.com
  </desc>
  <g>
    <path d="M23.74 13.37c-0.07 -0.34 -0.33 -0.4 -0.63 -0.44a5.18 5.18 0 0 0 -3.77 0.48 4.66 4.66 0 0 0 -0.27 -1.56 5.35 5.35 0 0 0 -1.68 -2.48c-0.57 -0.47 -1 0.11 -1.48 0.72a5.55 5.55 0 0 0 -1.24 3v0.26l-0.11 -0.06a3.34 3.34 0 0 0 -1.2 -0.4 9.75 9.75 0 0 0 -1.71 -0.06l-0.75 0a2.37 2.37 0 0 0 -0.31 0.06 1 1 0 0 0 -0.21 0.13 0.66 0.66 0 0 0 -0.15 0.28 2.4 2.4 0 0 0 0 0.37 3.59 3.59 0 0 0 0.68 2 4.6 4.6 0 0 0 1.47 1.39 2.76 2.76 0 0 0 0.46 0.18l-0.1 0.14a10.38 10.38 0 0 0 -0.57 0.95 10.2 10.2 0 0 0 -0.47 1 1.36 1.36 0 0 0 -0.17 1 0.77 0.77 0 0 0 0.49 0.37 4.54 4.54 0 0 0 1.92 0.06 5.06 5.06 0 0 0 2.28 -0.95 3.73 3.73 0 0 0 0.3 -0.26 7.25 7.25 0 0 0 -0.15 2.48c0.11 0.77 0 1.38 0.49 1.36 0.28 -0.06 0.26 -0.33 0.46 -1.32a6.3 6.3 0 0 0 0.19 -1.67c0 -0.33 0 -0.65 -0.07 -0.95a0.34 0.34 0 0 0 0.38 -0.56s-0.34 -0.4 -0.48 -0.54c-0.41 -0.43 -0.72 0.12 -1.14 0.53l-0.86 0.61a4.45 4.45 0 0 1 -1.52 0.49 3.82 3.82 0 0 1 -1.49 0.02c0.05 -0.07 0.44 -0.84 0.61 -1.13a7.73 7.73 0 0 1 0.54 -0.86c0.08 -0.12 0.35 -0.44 0.46 -0.58a0.54 0.54 0 0 0 0 -0.67 0.85 0.85 0 0 0 -0.3 -0.16 6.46 6.46 0 0 1 -0.78 -0.25 3.77 3.77 0 0 1 -1.12 -1.13 2.62 2.62 0 0 1 -0.46 -1.22h0.37a9.75 9.75 0 0 1 1.53 0.09 2.47 2.47 0 0 1 0.83 0.28l0.92 0.55a0.55 0.55 0 0 0 0.58 0 0.57 0.57 0 0 0 0.29 -0.5v-1.17a5.14 5.14 0 0 1 0.23 -1 3.19 3.19 0 0 1 0.44 -0.93l0.53 -0.72 0.54 0.68a3.71 3.71 0 0 1 0.43 0.92 4.5 4.5 0 0 1 0.23 1.05l0 1.11a0.59 0.59 0 0 0 0.28 0.49c0.46 0.26 0.78 -0.21 1.48 -0.56a3.48 3.48 0 0 1 1.09 -0.39 3.9 3.9 0 0 1 1.7 0 3.51 3.51 0 0 1 -1.7 2.39l-1 0.47a0.5 0.5 0 0 0 0 0.61c0.11 0.14 0.38 0.46 0.46 0.57 0.25 0.35 0.49 0.68 0.71 1a2.83 2.83 0 0 1 0.49 1 3.6 3.6 0 0 1 -1.58 0.09 4.48 4.48 0 0 1 -1.55 -0.49 0.3 0.3 0 0 0 -0.42 0.11 0.31 0.31 0 0 0 0.11 0.41 5.15 5.15 0 0 0 3.65 0.56 0.66 0.66 0 0 0 0.52 -0.53 3.48 3.48 0 0 0 -0.57 -1.57c-0.22 -0.37 -0.46 -0.73 -0.7 -1.09l-0.19 -0.26 0.47 -0.2a5.19 5.19 0 0 0 1.72 -1.65 3.09 3.09 0 0 0 0.51 -1.63 1.49 1.49 0 0 0 0.06 -0.32Zm-6.34 -4c0.07 0.07 0.1 0.11 0.1 0.14a0.71 0.71 0 0 0 -0.1 -0.12Z" fill="#020202" stroke-width="1"></path>
    <path d="M11.15 22.16c-1.05 0.34 -2.09 0.66 -3 0.86a3.47 3.47 0 0 1 -1.8 0.13 2.29 2.29 0 0 1 -0.91 -0.89 2.65 2.65 0 0 1 -0.19 -1.1 1.29 1.29 0 0 1 0.35 -0.92 3.18 3.18 0 0 1 0.83 -0.64 5.42 5.42 0 0 1 1 -0.47l2.31 -0.82a0.34 0.34 0 0 0 0.26 -0.41 0.35 0.35 0 0 0 -0.41 -0.26l-2.44 0.48a5.46 5.46 0 0 0 -1.32 0.47 3.94 3.94 0 0 0 -1.12 0.93 1.9 1.9 0 0 0 -0.2 0.37c-0.11 -0.46 -0.19 -0.86 -0.27 -1.14l-2 -7.75c-0.23 -0.81 -0.54 -1.76 -0.72 -2.7a5.5 5.5 0 0 1 -0.09 -1.7 2.06 2.06 0 0 1 0.64 -1.29 3.4 3.4 0 0 1 1.42 -0.71c0.63 -0.22 7.82 -2.6 10.73 -3.49l0.94 -0.27a1.74 1.74 0 0 1 0.1 0.19A16.41 16.41 0 0 1 16 3.15c0.45 1.55 0.89 3.36 1.11 4.15a0.3 0.3 0 0 0 0.36 0.22 0.31 0.31 0 0 0 0.22 -0.37c-0.26 -1.06 -0.86 -3.9 -1.38 -5.59a6.66 6.66 0 0 0 -0.46 -1.15 0.79 0.79 0 0 0 -0.37 -0.41 0.9 0.9 0 0 0 -0.48 0c-0.38 0.08 -1.19 0.29 -2.2 0.58 -3.35 1 -9 2.7 -9.59 2.85a4.63 4.63 0 0 0 -1.89 0.95 3.21 3.21 0 0 0 -1 2 6.42 6.42 0 0 0 0.1 2.08c0.19 1 0.52 2 0.76 2.8L3.4 19a18.05 18.05 0 0 0 1 3.12 3.53 3.53 0 0 0 1.63 1.73 3.17 3.17 0 0 0 1.78 0 29.64 29.64 0 0 0 3.55 -1.06 0.35 0.35 0 0 0 0.21 -0.44 0.35 0.35 0 0 0 -0.42 -0.19Z" fill="#020202" stroke-width="1"></path>
    <path d="M5.61 9.92a37.5 37.5 0 0 0 -1.52 -4.27 0.3 0.3 0 0 0 -0.42 -0.07 0.29 0.29 0 0 0 -0.07 0.42c0.06 0.11 0.33 1.74 0.78 3.68 0.12 0.52 0.26 1.07 0.41 1.61s0.31 1.07 0.47 1.58c0.55 1.75 1.07 3.24 1.24 3.69a0.34 0.34 0 1 0 0.65 -0.22c-0.12 -0.46 -0.43 -2.05 -0.86 -3.86 -0.21 -0.84 -0.43 -1.72 -0.68 -2.56Z" fill="#4C57E6" stroke-width="1"></path>
  </g>
</svg>