<svg xmlns="http://www.w3.org/2000/svg" viewBox="0 0 24 24" id="Car-Repair-Fluid--Streamline-Freehand">
  <desc>
    Car Repair Fluid Streamline Icon: https://streamlinehq.com
  </desc>
  <g>
    <path d="M23.67 2.62A3.84 3.84 0 0 0 23.1 2a6.23 6.23 0 0 0 -0.62 -0.51L21.7 1a4.94 4.94 0 0 0 -0.78 -0.33 2 2 0 0 0 -0.69 -0.08 1.65 1.65 0 0 0 -0.92 0.48c-0.41 0.39 -0.81 1 -1.06 1.27s-0.76 0.7 -1.12 1.07a6 6 0 0 0 -0.47 0.55A4.59 4.59 0 0 0 16 5.37a14.54 14.54 0 0 0 -0.36 1.71 3.74 3.74 0 0 0 -0.77 0.56 0.82 0.82 0 0 0 -0.22 0.44 2.22 2.22 0 0 0 0.57 1.25 1.28 1.28 0 0 0 0.86 0.54 1 1 0 0 0 0.59 -0.17 9.35 9.35 0 0 0 0.73 -0.65 0.36 0.36 0 0 0 0.11 -0.42 1.22 1.22 0 0 0 0.33 0 1.4 1.4 0 0 0 0.53 -0.14c0.26 -0.11 0.53 -0.3 0.74 -0.38 0.38 -0.14 0.79 -0.21 1.19 -0.32a3.89 3.89 0 0 0 0.6 -0.22 1 1 0 0 0 0.25 -0.18 5.71 5.71 0 0 0 0.42 -0.47l1.17 -1.22a5.31 5.31 0 0 0 1.12 -1.47 1.56 1.56 0 0 0 -0.19 -1.61ZM17 8.48c-0.2 0.14 -0.39 0.37 -0.61 0.53a0.33 0.33 0 0 1 -0.24 0.1c-0.14 0 -0.25 -0.22 -0.37 -0.4a2.13 2.13 0 0 1 -0.24 -0.43c0.15 0 0.37 -0.27 0.49 -0.37a1.92 1.92 0 0 0 0.35 0.23 3.41 3.41 0 0 0 0.63 0.34Zm5.68 -4.54a6.18 6.18 0 0 1 -0.8 0.95l-1.14 1.25 -0.32 0.43 -1.68 0.58 -0.94 0.51a1.08 1.08 0 0 1 -0.43 -0.07 2.78 2.78 0 0 1 -0.49 -0.23c-0.24 -0.15 -0.36 -0.31 -0.51 -0.37a13.16 13.16 0 0 1 0.38 -1.39 3.78 3.78 0 0 1 0.59 -1.17 5.66 5.66 0 0 1 0.39 -0.43c0.38 -0.35 0.81 -0.66 1.19 -1 0.23 -0.22 0.57 -0.68 0.94 -1 0.16 -0.15 0.3 -0.3 0.45 -0.3a0.8 0.8 0 0 1 0.36 0.09 3.21 3.21 0 0 1 0.49 0.25l0.61 0.42c0.18 0.14 0.36 0.29 0.52 0.44a4.69 4.69 0 0 1 0.42 0.47 0.56 0.56 0 0 1 -0.04 0.57Z" fill="#4C57E6" fill-rule="evenodd" stroke-width="1"></path>
    <path d="M16.16 16.11a2.11 2.11 0 0 0 1.3 -2.1 4.62 4.62 0 0 0 -0.06 -0.65 2.64 2.64 0 0 0 -0.17 -0.67 6.94 6.94 0 0 0 -0.39 -0.83c-0.22 -0.4 -0.47 -0.78 -0.71 -1.14a0.36 0.36 0 0 0 -0.38 -0.16 0.31 0.31 0 0 0 -0.59 -0.13c-0.28 0.48 -0.57 1 -0.83 1.45a8.4 8.4 0 0 0 -0.5 1 3 3 0 0 0 -0.24 1.23 2.12 2.12 0 0 0 2.57 1.95Zm-1.4 -2.88a7.26 7.26 0 0 1 0.32 -1c0.14 -0.37 0.3 -0.74 0.46 -1.1 0.16 0.29 0.32 0.59 0.46 0.9a5.73 5.73 0 0 1 0.35 1 2.65 2.65 0 0 1 0.07 0.48 4.47 4.47 0 0 1 0 0.52 1 1 0 0 1 -0.62 1c-0.32 0.1 -0.67 -0.08 -0.94 -0.51a1 1 0 0 1 -0.18 -0.52 2.82 2.82 0 0 1 0.08 -0.77Z" fill="#020202" fill-rule="evenodd" stroke-width="1"></path>
    <path d="M17.24 19.8a3.71 3.71 0 0 0 -0.41 -0.28 0.35 0.35 0 0 0 -0.49 0.09 0.34 0.34 0 0 0 0.08 0.49l0.28 0.22a1.33 1.33 0 0 1 0.14 0.19c0.35 0.7 -0.21 1.26 -0.83 1.52a1 1 0 0 1 -1.5 -0.51l-0.14 -0.52a1.85 1.85 0 0 1 0.07 -0.41 1.22 1.22 0 0 1 0.16 -0.37 1.46 1.46 0 0 1 0.4 -0.42 2.5 2.5 0 0 1 0.57 -0.27 0.31 0.31 0 0 0 0.23 -0.37 0.31 0.31 0 0 0 -0.38 -0.23 3.06 3.06 0 0 0 -0.78 0.24 2.27 2.27 0 0 0 -1.07 1.07 3.39 3.39 0 0 0 -0.21 0.61v0.07l-1.55 -0.12a12.71 12.71 0 0 0 -1.38 0c-0.72 0 -1.41 0.14 -2.13 0.22a2 2 0 0 0 -0.14 -0.53 2.08 2.08 0 0 0 -0.59 -0.74 3.13 3.13 0 0 0 -1.13 -0.55 0.32 0.32 0 0 0 -0.44 -0.32A2.35 2.35 0 0 0 4 21s0 0.07 0 0.11H2.81l-0.78 0 -0.38 0c-0.15 0 -0.24 -0.06 -0.29 -0.13s0 -0.15 0 -0.25 0 -0.32 -0.06 -0.52l0 -0.68a0.82 0.82 0 0 0 0.21 0.11 0.27 0.27 0 0 0 0.18 0 0.63 0.63 0 0 0 0.19 0c0.76 -0.27 0.77 -0.46 0.76 -0.6s0 -0.28 -0.78 -0.53a0.86 0.86 0 0 0 -0.17 0 0.32 0.32 0 0 0 -0.17 0l-0.22 0.12v-0.12a1 1 0 0 1 0.05 -0.51 3.17 3.17 0 0 1 0.65 -0.75c0.72 -0.61 1.65 -1.11 2.27 -1.66a0.31 0.31 0 0 0 0.06 -0.44 0.32 0.32 0 0 0 -0.14 -0.08l0.45 -0.81a7.19 7.19 0 0 1 0.84 -1.42 1.34 1.34 0 0 1 1.16 -0.41l1.18 0 1.63 -0.11 2.73 -0.24a0.36 0.36 0 0 0 0.37 -0.34 0.37 0.37 0 0 0 -0.35 -0.37l-2.79 -0.07 -1.64 0H6.65a2.54 2.54 0 0 0 -1.65 0.5 5.25 5.25 0 0 0 -1.1 2.12l-0.58 1.48c-0.59 0.31 -1.28 0.61 -1.87 1a4.18 4.18 0 0 0 -1 0.91 1.88 1.88 0 0 0 -0.33 0.78 5.15 5.15 0 0 0 -0.07 1l0.1 1.21a2.68 2.68 0 0 0 0.43 1.27 1.36 1.36 0 0 0 1 0.44H2l0.82 -0.01L4 21.88a2.16 2.16 0 0 0 3.87 0.61 2.38 2.38 0 0 0 0.35 -0.84c0.63 0.09 1.25 0.21 1.87 0.26A8.44 8.44 0 0 0 11 22l0.88 0c0.51 0 1 -0.11 1.53 -0.19l0 0.17a2.08 2.08 0 0 0 3 1.17 2 2 0 0 0 1.05 -3 1.22 1.22 0 0 0 -0.22 -0.35ZM7 21.83a1.09 1.09 0 0 1 -0.92 0.43A1.12 1.12 0 0 1 5 21.09a1.59 1.59 0 0 1 1 -1.54 0.34 0.34 0 0 0 0.25 0.29 2.6 2.6 0 0 1 0.68 0.39 1.24 1.24 0 0 1 0.39 0.55A1.18 1.18 0 0 1 7 21.83Z" fill="#020202" fill-rule="evenodd" stroke-width="1"></path>
    <path d="M20.5 17.73a4 4 0 0 0 -0.27 -1.38 2 2 0 0 0 -1.48 -1.29 0.31 0.31 0 1 0 -0.21 0.59 1.27 1.27 0 0 1 0.79 1 4.47 4.47 0 0 1 0 1.1v0.08l-0.1 0a0.44 0.44 0 0 0 -0.2 0l-0.19 0.05c-0.77 0.33 -0.77 0.48 -0.76 0.63s0.05 0.32 0.87 0.49l0.2 0 0.17 0a0.34 0.34 0 0 1 0 0.1c0 0.12 0.06 0.38 0.12 0.67 0.16 0.75 0.69 0.77 -1.19 1.11a0.35 0.35 0 0 0 -0.31 0.39 0.35 0.35 0 0 0 0.38 0.31 5.89 5.89 0 0 0 1.37 -0.11 1.63 1.63 0 0 0 0.67 -0.37 1 1 0 0 0 0.24 -0.65 9 9 0 0 0 -0.09 -1.43c-0.02 -0.48 0.01 -0.89 -0.01 -1.29Z" fill="#020202" fill-rule="evenodd" stroke-width="1"></path>
    <path d="M9.6 13.34a1.92 1.92 0 0 0 -0.46 -0.1 5.43 5.43 0 0 0 -1 0 3.67 3.67 0 0 0 -0.88 0.13 0.31 0.31 0 0 0 -0.44 0l-1.15 1.51a6.52 6.52 0 0 0 -0.4 0.53 0.9 0.9 0 0 0 -0.1 0.38 0.7 0.7 0 0 0 0.4 0.57 3.52 3.52 0 0 0 0.89 0.24 5.24 5.24 0 0 0 1 0 6.63 6.63 0 0 0 1.38 -0.23 5.46 5.46 0 0 0 0.58 -0.1 0.8 0.8 0 0 0 0.38 -0.24 1.42 1.42 0 0 0 0.25 -0.47 3 3 0 0 0 0.05 -0.56 3.31 3.31 0 0 0 0 -0.94 1.1 1.1 0 0 0 -0.2 -0.51 0.54 0.54 0 0 0 -0.3 -0.21Zm-0.51 1a5 5 0 0 1 -0.07 0.5c-0.13 0.39 0.13 0.37 -1.49 0.57a5 5 0 0 1 -1 0l-0.2 0c0 -0.08 0 -0.15 0.06 -0.19L7.14 14a0.44 0.44 0 0 0 0.2 0 3.13 3.13 0 0 1 0.81 0 5.4 5.4 0 0 1 0.82 0.13l0.14 0.08a1.11 1.11 0 0 1 -0.02 0.17Z" fill="#020202" fill-rule="evenodd" stroke-width="1"></path>
    <path d="M11.46 14s0.13 -0.1 0.2 -0.11c0.29 -0.07 0.6 -0.09 0.77 -0.14a0.31 0.31 0 0 0 0.27 -0.35 0.32 0.32 0 0 0 -0.35 -0.27c-0.24 0 -0.72 -0.09 -1 -0.08a1 1 0 0 0 -0.45 0.15 1.12 1.12 0 0 0 -0.38 0.45 2.28 2.28 0 0 0 -0.2 0.61 5.25 5.25 0 0 0 -0.08 0.93 1.13 1.13 0 0 0 0.21 0.69 1.74 1.74 0 0 0 0.92 0.5 4.34 4.34 0 0 0 1.23 0.06 0.36 0.36 0 0 0 0.38 -0.33 0.35 0.35 0 0 0 -0.33 -0.37 5.73 5.73 0 0 1 -0.84 -0.21c-0.76 -0.28 -0.39 -0.67 -0.32 -1.11Z" fill="#020202" fill-rule="evenodd" stroke-width="1"></path>
  </g>
</svg>