<svg xmlns="http://www.w3.org/2000/svg" viewBox="0 0 24 24" id="Car-Repair-Wheels--Streamline-Freehand">
  <desc>
    Car Repair Wheels Streamline Icon: https://streamlinehq.com
  </desc>
  <g>
    <path d="M23.92 13.39a6.32 6.32 0 0 0 -1.59 -3.32 5.65 5.65 0 0 0 -3.18 -1.83 3.84 3.84 0 0 0 -1.12 0 6.84 6.84 0 0 0 -1.57 0.4 0.3 0.3 0 0 0 -0.18 0.17 6.61 6.61 0 0 0 -4.05 2.58 6.58 6.58 0 0 0 -1 6.45A5.77 5.77 0 0 0 14 20.65a7.89 7.89 0 0 0 3.8 0.87 4.61 4.61 0 0 0 1.47 -0.32 7.33 7.33 0 0 0 1.28 -0.65 7.41 7.41 0 0 0 2.77 -3.06 7.15 7.15 0 0 0 0.6 -4.1ZM22.44 17A6.37 6.37 0 0 1 20 19.59a6.85 6.85 0 0 1 -1.08 0.55 3.86 3.86 0 0 1 -1.12 0.24 7 7 0 0 1 -3.27 -0.74 4.77 4.77 0 0 1 -2.32 -2.24 5.64 5.64 0 0 1 0.65 -5.57A5.57 5.57 0 0 1 18 9.33a0.3 0.3 0 0 0 0.29 -0.44A3.12 3.12 0 0 1 19 9a4.83 4.83 0 0 1 2.69 1.66A5.51 5.51 0 0 1 23 13.5a6.28 6.28 0 0 1 -0.56 3.5Z" fill="#020202" fill-rule="evenodd" stroke-width="1"></path>
    <path d="M20.22 12a4.32 4.32 0 0 0 -2.47 -1.16 0.33 0.33 0 0 0 -0.36 0.29 3.23 3.23 0 0 0 -1.73 0.52A3.93 3.93 0 0 0 14 13.52a4 4 0 0 0 2.81 5.18 3.72 3.72 0 0 0 3.39 -1 4.1 4.1 0 0 0 1.3 -3.23A3.9 3.9 0 0 0 20.22 12Zm-1.94 -0.34a3.73 3.73 0 0 1 1.38 0.91 3.28 3.28 0 0 1 0.48 0.63 0.29 0.29 0 0 0 -0.31 0c-0.5 0.28 -1 0.51 -1.55 0.76 -0.06 -0.72 -0.15 -1.43 -0.23 -2.14a0.27 0.27 0 0 0 0.23 -0.18Zm-2.23 0.59a2.48 2.48 0 0 1 1.4 -0.51c-0.08 0.72 -0.18 1.44 -0.22 2.18V14l-0.23 -0.12a16.34 16.34 0 0 0 -2.06 -0.26 3.1 3.1 0 0 1 1.11 -1.39Zm-1.29 2c0.59 0.2 1.18 0.44 1.79 0.65 -0.51 0.33 -1 0.69 -1.48 1a3 3 0 0 1 -0.31 -1.66Zm0.64 2.25c0.55 -0.23 1.1 -0.43 1.64 -0.67l0.25 -0.13 0 0.16c0.07 0.62 0.18 1.22 0.3 1.82a2.47 2.47 0 0 1 -0.54 -0.05 2.88 2.88 0 0 1 -1.65 -1.14Zm4.08 0.41a3 3 0 0 1 -1.14 0.66l0 -1.82v-0.38c0.35 0.06 0.7 0.1 1 0.19a2.51 2.51 0 0 1 0.46 0.16 0.33 0.33 0 0 0 0.46 -0.09 0.34 0.34 0 0 0 -0.1 -0.46 2.86 2.86 0 0 0 -0.55 -0.33 5.83 5.83 0 0 0 -0.58 -0.23c0.39 -0.28 0.77 -0.57 1.14 -0.88a0.31 0.31 0 0 0 0.13 -0.19 2.57 2.57 0 0 1 0.24 1 3.16 3.16 0 0 1 -1.06 2.36Z" fill="#4C57E6" fill-rule="evenodd" stroke-width="1"></path>
    <path d="M10.89 11.37a0.32 0.32 0 0 0 -0.38 -0.26l-1.08 0.1 -0.79 0 -0.29 0c-0.17 0.1 -0.1 -0.54 -0.13 -0.66a2.63 2.63 0 0 0 -0.41 -0.8 2 2 0 0 0 -0.81 -0.6 2.41 2.41 0 0 0 -2.39 0.3 2.48 2.48 0 0 0 -0.92 1.84 3 3 0 0 1 -0.41 0 7.48 7.48 0 0 1 -0.82 0h-0.74c-0.67 0 -0.63 0.09 -0.65 -0.23 0 -0.13 0 -0.26 -0.05 -0.4L0.9 10l-0.08 -0.8c0.55 -0.41 1.3 -0.7 1.91 -1.13a3 3 0 0 0 0.78 -0.77A6.46 6.46 0 0 0 4 6.36c0.19 -0.45 0.35 -0.92 0.52 -1.34l0.24 -0.66a1.36 1.36 0 0 1 0.41 -0.17l0.56 -0.13a10.6 10.6 0 0 1 1.08 -0.16c0.59 -0.06 1.19 -0.09 1.77 -0.13l3.54 -0.29a6 6 0 0 1 1 0 1.84 1.84 0 0 1 0.56 0.14 2.81 2.81 0 0 1 0.62 0.38c0.31 0.27 0.6 0.58 0.89 0.83s0.57 0.45 0.84 0.7a2.76 2.76 0 0 1 0.3 0.29 0.32 0.32 0 0 0 0.46 0.06 0.33 0.33 0 0 0 0.05 -0.47A4 4 0 0 0 16.5 5c-0.26 -0.26 -0.55 -0.49 -0.8 -0.74s-0.65 -0.72 -1 -1a3.54 3.54 0 0 0 -0.58 -0.4 2.67 2.67 0 0 0 -0.84 -0.27 9 9 0 0 0 -1.16 -0.07l-1.46 0 -2.16 0.15c-0.6 0 -1.2 0.06 -1.8 0.13a10.66 10.66 0 0 0 -1.24 0.2 6.12 6.12 0 0 0 -0.78 0.22 1.82 1.82 0 0 0 -0.56 0.31 1.12 1.12 0 0 0 -0.34 0.47 6.51 6.51 0 0 0 -0.21 0.74c-0.13 0.42 -0.25 0.9 -0.4 1.35a4.83 4.83 0 0 1 -0.35 0.8 1.93 1.93 0 0 1 -0.53 0.61c-0.53 0.44 -1.2 0.76 -1.72 1.17a0.29 0.29 0 0 0 -0.31 0.27L0.07 10l0 0.78 0 0.64a1.3 1.3 0 0 0 0.12 0.47 1.05 1.05 0 0 0 1 0.54l0.7 -0.07 0.66 -0.11c0.31 -0.05 0.6 -0.09 0.89 -0.16A3.32 3.32 0 0 0 4 11.9a0.29 0.29 0 0 0 0.21 -0.23 0.26 0.26 0 0 0 0 -0.12 1.83 1.83 0 0 1 0.88 -1.37 1.46 1.46 0 0 1 1.45 0 1 1 0 0 1 0.35 0.27 1.84 1.84 0 0 1 0.26 0.48 6.2 6.2 0 0 0 0.23 0.7 0.85 0.85 0 0 0 0.26 0.32 1 1 0 0 0 0.47 0.19 2.1 2.1 0 0 0 0.56 0l0.87 -0.14 1.1 -0.23a0.33 0.33 0 0 0 0.25 -0.4Z" fill="#020202" fill-rule="evenodd" stroke-width="1"></path>
    <path d="m8.7 5.86 0.07 -0.57a0.88 0.88 0 0 0 -0.57 -0.8 1.69 1.69 0 0 0 -0.76 -0.13c-0.21 0 -0.41 0 -0.55 0.06s-0.48 0.06 -0.74 0.11a2.22 2.22 0 0 0 -0.55 0.18 0.26 0.26 0 0 0 -0.17 0.29 0.29 0.29 0 0 0 -0.43 0.17l-0.4 1.09c0 0.09 -0.1 0.26 -0.14 0.4a0.77 0.77 0 0 0 0.54 0.93 2.37 2.37 0 0 0 0.85 0.08c0.35 0 0.71 0 1.06 -0.1a9.86 9.86 0 0 0 1.55 -0.37 0.32 0.32 0 0 0 0.25 -0.39 0.3 0.3 0 0 0 -0.22 -0.23 0.28 0.28 0 0 0 0.09 -0.16Zm-2.86 0.7c-0.4 0 -0.39 0 -0.37 -0.11l0.14 -1.16a0.23 0.23 0 0 0 0.2 0 1.25 1.25 0 0 1 0.38 0c0.24 0 0.47 0.11 0.67 0.15a3.23 3.23 0 0 0 0.49 0c0.46 0 0.44 -0.23 0.55 0.36l0 0.54a0.38 0.38 0 0 0 0.1 0.23l-0.66 0a14.75 14.75 0 0 1 -1.5 -0.01Z" fill="#020202" fill-rule="evenodd" stroke-width="1"></path>
    <path d="m13.83 5.26 -0.21 -0.37 -0.23 -0.37a1.3 1.3 0 0 0 -0.68 -0.47 2.71 2.71 0 0 0 -1 0l-0.64 0.1 -1.3 0.26s-0.05 0 -0.08 0.05a0.29 0.29 0 0 0 -0.27 0.3l-0.1 1.53a3.36 3.36 0 0 0 -0.07 0.38 0.48 0.48 0 0 0 0.1 0.31 0.94 0.94 0 0 0 0.63 0.39 3.16 3.16 0 0 0 0.93 0c0.37 0 0.73 -0.1 1.09 -0.17 0.54 -0.1 1.07 -0.23 1.6 -0.35a0.33 0.33 0 0 0 0.27 -0.33 0.28 0.28 0 0 0 0.28 0 0.32 0.32 0 0 0 0.1 -0.45Zm-3.53 1L10.08 5l1.06 0.09 0.68 0a5 5 0 0 1 0.55 0 0.34 0.34 0 0 1 0.23 0.08l0.26 0.27 0.32 0.33 0.35 0.37 -2.67 0.08Z" fill="#020202" fill-rule="evenodd" stroke-width="1"></path>
    <path d="M10 17.71a4 4 0 0 1 -2.17 0.07 3 3 0 0 1 -0.76 -0.29 1.46 1.46 0 0 1 -0.74 -0.73 2.44 2.44 0 0 1 -0.22 -0.91l0 -1c0.1 0.08 0.19 0.17 0.29 0.24a2.56 2.56 0 0 0 0.85 0.44 0.32 0.32 0 0 0 0.43 -0.17 0.32 0.32 0 0 0 -0.16 -0.43 2.24 2.24 0 0 1 -0.41 -0.35 6.12 6.12 0 0 1 -0.5 -0.64l-0.37 -0.46a0.62 0.62 0 0 0 -0.81 0 3.92 3.92 0 0 0 -0.35 0.34L4.14 15a0.29 0.29 0 1 0 0.35 0.46l0.94 -0.62a9.33 9.33 0 0 0 -0.19 1.29 3.31 3.31 0 0 0 0.13 1 2.56 2.56 0 0 0 1.79 1.53 4.65 4.65 0 0 0 3.15 -0.37 0.33 0.33 0 0 0 -0.27 -0.6Z" fill="#4C57E6" fill-rule="evenodd" stroke-width="1"></path>
  </g>
</svg>