<svg xmlns="http://www.w3.org/2000/svg" viewBox="0 0 24 24" id="Car-Repair-Smoke--Streamline-Freehand">
  <desc>
    Car Repair Smoke Streamline Icon: https://streamlinehq.com
  </desc>
  <g>
    <path d="M17.72 16a2.25 2.25 0 0 0 -0.72 -0.5c-0.49 -0.22 -1.08 -0.32 -1.5 -0.5l-0.24 -0.1a0.33 0.33 0 0 0 0 -0.24c-0.39 -0.9 -0.67 -2.16 -1.21 -3.14A3.6 3.6 0 0 0 13 10.25a3.19 3.19 0 0 0 -1.54 -0.49 11 11 0 0 0 -2.18 0.07L7 10.22a10 10 0 0 0 -1.05 0.17 2.67 2.67 0 0 0 -0.79 0.29A3.18 3.18 0 0 0 4 12a8.14 8.14 0 0 0 -0.68 2.23l-0.11 1.32 -0.42 0.28c-0.28 0.21 -0.56 0.37 -0.81 0.56a3.57 3.57 0 0 0 -0.8 0.8 2.46 2.46 0 0 0 -0.42 1.58L1 19.93 1.08 21a0.35 0.35 0 0 0 0.23 0.3 0.31 0.31 0 0 0 0.2 0.11c0.25 0 0.5 0.08 0.76 0.12l0 1.18a1.49 1.49 0 0 0 0.16 0.66 0.77 0.77 0 0 0 0.47 0.36 3.19 3.19 0 0 0 0.69 0.13 12.42 12.42 0 0 0 1.25 0.14 2.86 2.86 0 0 0 1 -0.19 0.57 0.57 0 0 0 0.35 -0.29 1.54 1.54 0 0 0 0.05 -0.52 2.81 2.81 0 0 0 0 -0.5c0 -0.22 -0.07 -0.45 -0.11 -0.68H7c0.58 0 1.16 -0.07 1.72 -0.1 1.19 -0.11 2.39 -0.16 3.58 -0.25a9.77 9.77 0 0 0 -0.11 1.06c0 0.08 -0.05 0.32 -0.05 0.43a0.51 0.51 0 0 0 0.34 0.46 1.73 1.73 0 0 0 0.44 0.14c0.13 0 0.26 0 0.39 0.05a6.92 6.92 0 0 0 1.11 0 9 9 0 0 0 1.06 -0.2c0.12 0 0.38 -0.08 0.54 -0.15a0.86 0.86 0 0 0 0.29 -0.19 1.35 1.35 0 0 0 0.28 -0.68 4 4 0 0 0 -0.06 -1.39 0.2 0.2 0 0 0 0 -0.11l0.49 -0.08a0.34 0.34 0 0 0 0.3 -0.21 0.37 0.37 0 0 0 0.14 0.07 0.34 0.34 0 0 0 0.36 -0.32l0.28 -2.75a4.28 4.28 0 0 0 0 -1.07 1.27 1.27 0 0 0 -0.38 -0.53ZM4.06 14.37a7.29 7.29 0 0 1 0.76 -1.93 2.31 2.31 0 0 1 0.8 -0.86 2.21 2.21 0 0 1 0.52 -0.14c0.34 -0.06 0.69 -0.08 1 -0.12L9.36 11a11 11 0 0 1 2 -0.14 2.44 2.44 0 0 1 1.1 0.26 3 3 0 0 1 1.05 1.25c0.36 0.68 0.63 1.44 0.92 2.1a9 9 0 0 0 -1.73 -0.1c-1 0 -2 0.15 -2.94 0.17 -0.7 0.06 -1.42 0.06 -2.15 0.11 -0.48 0 -1 0.08 -1.45 0.13s-1.09 0.15 -1.62 0.25a0.27 0.27 0 0 0 -0.25 0l-0.2 0.1 -0.13 0Zm-1.93 3.48a5.43 5.43 0 0 1 0.57 -0.62c0.23 -0.22 0.47 -0.45 0.71 -0.71l0.18 -0.18a0.26 0.26 0 0 0 0.14 -0.15c0.11 -0.11 0.21 -0.23 0.33 -0.34l0.22 -0.16c0.23 0 0.47 0 0.71 -0.06l2.87 0c0.67 0 1.32 0 2 -0.07 1.06 -0.12 2.25 -0.38 3.39 -0.48l0.73 0 0.18 0.09c0.34 0.18 0.64 0.41 1 0.61s1 0.43 1.44 0.69a1.42 1.42 0 0 1 0.39 0.27 0.42 0.42 0 0 1 0.01 0.26l0 0.54a5.38 5.38 0 0 0 -1.52 -0.24 1.89 1.89 0 0 0 -0.82 0.22 1.6 1.6 0 0 0 -0.6 0.56 2.37 2.37 0 0 0 -0.3 1 5 5 0 0 0 0 0.67 2 2 0 0 0 0.11 0.47 0.54 0.54 0 0 0 0 0.11h-0.67l0 -0.11c-0.41 -0.55 -0.79 -1.19 -1.26 -1.71a4.07 4.07 0 0 0 -0.76 -0.68 1.72 1.72 0 0 0 -0.62 -0.23c-0.35 -0.05 -0.73 0 -1.07 0H8.4a2.81 2.81 0 0 0 -1.57 0.58 2.53 2.53 0 0 0 -0.69 1.49l-0.14 0.97a0.27 0.27 0 0 0 0 0.13c-0.45 0.05 -0.89 0.08 -1.34 0.11a0.26 0.26 0 0 0 0 -0.12c0 -0.35 0.13 -0.73 0.14 -1.1a2.24 2.24 0 0 0 -0.06 -0.58A1.62 1.62 0 0 0 3.46 18a3.5 3.5 0 0 0 -1.51 0.2 2.48 2.48 0 0 1 0.18 -0.35Zm-0.38 3 0 -1v-0.95A5.48 5.48 0 0 1 3 19a2.44 2.44 0 0 1 0.56 0.17 0.57 0.57 0 0 1 0.3 0.25 1.33 1.33 0 0 1 0.14 0.44c0 0.3 0 0.62 0.08 0.9a0.42 0.42 0 0 0 0 0.15 16.88 16.88 0 0 1 -2.33 -0.06Zm1.89 1.94c-0.43 0 -0.53 0 -0.63 -0.32a6.37 6.37 0 0 1 -0.14 -0.84c0.51 0.06 1 0.1 1.54 0.12l1 0 0 1.09h-0.56c-0.41 0.03 -0.85 -0.02 -1.21 -0.05Zm5 -2.26L7 20.68l-0.35 0 0.23 -0.79a1.81 1.81 0 0 1 0.54 -0.89 2 2 0 0 1 1.08 -0.21h1l0.89 0a0.69 0.69 0 0 1 0.32 0 3.62 3.62 0 0 1 0.84 0.63c0.32 0.31 0.62 0.66 0.92 1h-1.35c-0.82 0.01 -1.64 0.06 -2.46 0.11Zm7.18 1.34c-0.09 0.69 0.11 0.41 -2.45 0.57h-0.26c0 -0.33 -0.09 -0.66 -0.1 -1l0 -0.09 1.79 -0.16 1.08 -0.19a0.19 0.19 0 0 0 0 0.08 5.34 5.34 0 0 1 -0.04 0.79Zm1.18 -1.7 -2.2 0.19h-0.28a0.37 0.37 0 0 0 0 -0.27 1.28 1.28 0 0 1 0 -0.39 2.75 2.75 0 0 1 0.11 -0.41 1.19 1.19 0 0 1 0.57 -0.78 2.19 2.19 0 0 1 0.41 -0.16 7.07 7.07 0 0 1 1.4 -0.19l0.06 2a0.34 0.34 0 0 0 -0.07 0.01Z" fill="#020202" stroke-width="1"></path>
    <path d="M9.54 6.58a0.89 0.89 0 0 1 0.17 1.11l-0.39 0.45a0.29 0.29 0 0 0 0 0.42 0.3 0.3 0 0 0 0.41 0l0.57 -0.54a1.42 1.42 0 0 0 0.32 -1A3 3 0 0 0 10 5.67c-0.26 -0.4 -0.59 -0.8 -0.33 -1.31a0.85 0.85 0 0 1 0.5 -0.43 4.14 4.14 0 0 1 1.42 -0.23 7.3 7.3 0 0 0 1.21 -0.21A5 5 0 0 0 13.92 3c0.5 -0.29 0.65 -0.57 0.67 -0.83a1.23 1.23 0 0 0 -0.09 -0.48 2.12 2.12 0 0 1 -0.21 -0.56 0.32 0.32 0 0 1 0.08 -0.23 1 1 0 0 1 0.39 -0.25 0.34 0.34 0 0 0 0.24 -0.43 0.35 0.35 0 0 0 -0.44 -0.2 1.76 1.76 0 0 0 -0.78 0.49 1.07 1.07 0 0 0 -0.22 0.72 5.26 5.26 0 0 0 0.21 0.85 0.75 0.75 0 0 1 -0.2 0.1 3.89 3.89 0 0 1 -1 0.29 5 5 0 0 1 -1 0.1 5.45 5.45 0 0 0 -1.81 0.3 1.91 1.91 0 0 0 -1.07 1 1.72 1.72 0 0 0 -0.07 1.15 5.33 5.33 0 0 0 0.92 1.56Z" fill="#4C57E6" stroke-width="1"></path>
    <path d="M22.83 2.21a19.4 19.4 0 0 0 -3.83 0.38 3.13 3.13 0 0 0 -1.56 1.06 1.94 1.94 0 0 0 -0.32 0.72 11.49 11.49 0 0 0 -0.11 1.18 0.79 0.79 0 0 1 -0.26 0.61 4.51 4.51 0 0 1 -0.8 0.51c-0.48 0.24 -1 0.43 -1.45 0.66a2.5 2.5 0 0 0 -0.79 0.5 1 1 0 0 0 -0.34 0.67 0.3 0.3 0 0 0 0.27 0.33 0.28 0.28 0 0 0 0.36 -0.27 0.53 0.53 0 0 1 0.28 -0.31 2.63 2.63 0 0 1 0.54 -0.25c0.51 -0.17 1 -0.3 1.54 -0.48A6.4 6.4 0 0 0 17.41 7a1.72 1.72 0 0 0 0.69 -1 6.26 6.26 0 0 0 0.12 -1 1.24 1.24 0 0 1 0.17 -0.65 2.48 2.48 0 0 1 1.45 -0.92c1 -0.29 2.2 -0.33 3.1 -0.51a0.34 0.34 0 0 0 0.28 -0.39 0.33 0.33 0 0 0 -0.39 -0.32Z" fill="#4C57E6" stroke-width="1"></path>
  </g>
</svg>