<svg xmlns="http://www.w3.org/2000/svg" viewBox="0 0 24 24" id="Car-Retro-1--Streamline-Freehand">
  <desc>
    Car Retro 1 Streamline Icon: https://streamlinehq.com
  </desc>
  <g>
    <path d="M23.69 15.36a0.34 0.34 0 0 0 -0.46 -0.2 8.61 8.61 0 0 0 0 -2.21 4.73 4.73 0 0 0 -0.57 -1.71 3.89 3.89 0 0 0 -2.41 -1.79 0.2 0.2 0 0 0 0 -0.07c-0.14 -0.5 -0.24 -1 -0.41 -1.51a4.26 4.26 0 0 0 -0.5 -1 5 5 0 0 0 -0.83 -0.87 10.93 10.93 0 0 0 -1.37 -1c-0.45 -0.28 -0.93 -0.61 -1.43 -0.86a4.15 4.15 0 0 0 -1.16 -0.42 7.14 7.14 0 0 0 -3.74 0.28 7.73 7.73 0 0 0 -2.17 1.22 8.51 8.51 0 0 0 -3.05 5 7.14 7.14 0 0 0 -2.69 1 5.05 5.05 0 0 0 -1 0.85 4.54 4.54 0 0 0 -0.73 1.11 4.6 4.6 0 0 0 -0.22 3l0 0.05A1.93 1.93 0 0 0 0 17.58a1.67 1.67 0 0 0 1 1.9 4.14 4.14 0 0 0 1.67 0.29A29.6 29.6 0 0 0 6 19.21a3.46 3.46 0 0 0 0.22 0.31 2.56 2.56 0 0 0 1.55 0.86 2.47 2.47 0 0 0 2.63 -1.7l1.65 0c0.28 0 0.56 0 0.85 -0.05s0.56 -0.06 0.84 -0.11c0.67 -0.1 1.33 -0.24 2 -0.37a0.35 0.35 0 0 0 0.32 -0.38 0.36 0.36 0 0 0 -0.38 -0.33l-1 0a10.71 10.71 0 0 0 0.16 -1.78 6.85 6.85 0 0 0 0 -0.79 5.26 5.26 0 0 0 -0.12 -0.78c-0.12 -0.6 -0.31 -1.16 -0.44 -1.75a0.32 0.32 0 1 0 -0.63 0.05 18.35 18.35 0 0 0 0 2.1c0 0.4 0.09 0.81 0.15 1.21 0.09 0.58 0.2 1.14 0.24 1.72h-0.27l-0.86 0c-0.28 0 -0.57 0.06 -0.86 0.11 -0.46 0.09 -0.91 0.21 -1.36 0.33a1.92 1.92 0 0 0 -1.86 -2.35 0.33 0.33 0 0 0 -0.27 0.1 0.31 0.31 0 0 0 -0.18 -0.09 1.75 1.75 0 0 0 -1.46 0.38 3.08 3.08 0 0 0 -1.11 1.89 1.88 1.88 0 0 0 0 0.67c-0.8 0 -1.73 0.1 -2.62 0.12a4.26 4.26 0 0 1 -1.7 -0.21 0.67 0.67 0 0 1 -0.49 -0.67 1.15 1.15 0 0 1 0.59 -1 0.34 0.34 0 0 0 0.15 -0.14 6.66 6.66 0 0 0 0.76 0.12 1 1 0 0 0 0.3 0 1.46 1.46 0 0 0 0.3 -0.07c1 -0.32 1 -0.43 1 -0.65s-0.1 -0.39 -1.1 -0.47a1.22 1.22 0 0 0 -0.33 0 1.14 1.14 0 0 0 -0.32 0.07 4.76 4.76 0 0 0 -0.69 0.4 4.14 4.14 0 0 1 0.61 -2.23 6.89 6.89 0 0 1 0.61 -0.84 8.85 8.85 0 0 1 0.76 -0.74 7.07 7.07 0 0 1 2.25 -1.28 0.33 0.33 0 0 0 0.25 -0.26 0.28 0.28 0 0 0 0.09 -0.13 7.83 7.83 0 0 1 3.05 -4.4 7.32 7.32 0 0 1 1.92 -1 6.41 6.41 0 0 1 3.15 -0.26 3.74 3.74 0 0 1 0.88 0.28c0.48 0.22 0.95 0.5 1.39 0.74a10.32 10.32 0 0 1 1.3 0.8 3.64 3.64 0 0 1 0.69 0.67 3.07 3.07 0 0 1 0.44 0.79c0.2 0.46 0.32 1 0.48 1.44s1.19 0.4 2.06 2.21a8.13 8.13 0 0 1 0.39 1 2.12 2.12 0 0 0 -0.55 -0.14 0.7 0.7 0 0 0 -0.25 0 1 1 0 0 0 -0.24 0.05c-0.93 0.38 -0.82 0.62 -0.81 0.64 0 0.3 0.84 0.48 0.94 0.5h0.25a1 1 0 0 0 0.23 -0.07c0.19 -0.07 0.33 -0.17 0.52 -0.24l0.1 0a12.52 12.52 0 0 1 0.31 2 0.35 0.35 0 0 0 0.34 0.37 0.36 0.36 0 0 0 0.24 -0.09 0.7 0.7 0 0 1 -0.16 0.67 1.05 1.05 0 0 1 -0.34 0.14l-0.51 0.13c-0.58 0.14 -1.2 0.27 -1.65 0.42a1.41 1.41 0 0 0 0 -0.29A2.09 2.09 0 0 0 18 14.8a0.37 0.37 0 0 0 -0.35 0.37 0.29 0.29 0 0 0 0 0.09 2.29 2.29 0 0 0 -1.62 1.9 1.86 1.86 0 0 0 2.14 2.18 2.38 2.38 0 0 0 2 -1.52c0.41 0 1 0.11 1.65 0.09a2.76 2.76 0 0 0 1.25 -0.33 1.45 1.45 0 0 0 0.62 -2.22ZM7.17 16.7a1.19 1.19 0 0 1 1 -0.55 0.29 0.29 0 0 0 0.24 -0.06 0.34 0.34 0 0 0 0.26 0.15c0.93 0.1 1.11 1 0.88 1.75A1.46 1.46 0 0 1 8 19.2a1.53 1.53 0 0 1 -0.86 -0.45 1.2 1.2 0 0 1 -0.38 -0.86 2.13 2.13 0 0 1 0.41 -1.19Zm11 1.45a0.85 0.85 0 0 1 -1.05 -0.9 1.48 1.48 0 0 1 1.2 -1.44 0.29 0.29 0 0 0 0.26 -0.21 1.26 1.26 0 0 1 0.86 1.27 1.3 1.3 0 0 1 -1.32 1.28Z" fill="#020202" fill-rule="evenodd" stroke-width="1"></path>
    <path d="M7.69 11.26a0.31 0.31 0 0 0 0.38 0.23l1.42 0 0.6 0a6 6 0 0 0 0.61 -0.1c0.46 -0.09 1.83 -0.19 1.73 -0.79a0.32 0.32 0 0 0 -0.1 -0.19c0.05 -0.28 0.1 -0.56 0.13 -0.85s0 -0.41 0 -0.61a4.09 4.09 0 0 0 -0.07 -0.6c-0.09 -0.47 -0.24 -0.9 -0.35 -1.35a0.3 0.3 0 0 0 -0.56 -0.16 4.22 4.22 0 0 0 -1.89 0.65 3.54 3.54 0 0 0 -0.7 0.58 3.41 3.41 0 0 0 -0.54 0.71 6.12 6.12 0 0 0 -0.67 1.91 0.3 0.3 0 0 0 0.09 0.31 0.29 0.29 0 0 0 -0.08 0.26Zm1.64 -1.88a7.86 7.86 0 0 1 0.78 -0.85 4.52 4.52 0 0 1 1.23 -0.88 6.12 6.12 0 0 0 -0.08 1 7 7 0 0 0 0.06 0.91c0 0.26 0.07 0.51 0.11 0.75l-0.88 0a5.44 5.44 0 0 0 -1 0.08 5.87 5.87 0 0 0 -1.17 0.36 9.22 9.22 0 0 1 0.95 -1.37Z" fill="#4C57E6" fill-rule="evenodd" stroke-width="1"></path>
    <path d="M14.52 10.33c0.4 0 0.76 0.08 1.16 0.06a6.71 6.71 0 0 0 0.78 -0.15c0.37 -0.15 1.51 -0.51 1.38 -1.05a2.82 2.82 0 0 0 -0.74 -1.61 3 3 0 0 0 -0.57 -0.49 2.46 2.46 0 0 0 -0.67 -0.33 3.78 3.78 0 0 0 -1.4 -0.18 0.27 0.27 0 0 0 -0.24 -0.13c-0.13 0 -0.38 0 -0.52 1.44a4 4 0 0 0 0 0.49 2.42 2.42 0 0 0 0.07 0.47 10.06 10.06 0 0 0 0.3 1.11 0.34 0.34 0 0 0 0.06 0.15 0.32 0.32 0 0 0 0.39 0.22Zm0.87 -2.53c0.23 0.13 0.45 0.27 0.67 0.42a3.93 3.93 0 0 1 0.42 0.29 2.49 2.49 0 0 1 0.59 0.71L17 9.2l-0.62 0 -0.41 0a2.59 2.59 0 0 0 -0.61 0.1 2.75 2.75 0 0 0 -0.5 0.2c0 -0.22 0 -0.45 0.07 -0.68s0 -0.31 0 -0.47a3.75 3.75 0 0 0 -0.05 -0.47c0 -0.14 -0.07 -0.27 -0.11 -0.4a7 7 0 0 1 0.62 0.32Z" fill="#4C57E6" fill-rule="evenodd" stroke-width="1"></path>
    <path d="M11.61 14.73a0.28 0.28 0 0 0 0.15 0l0.16 0c0.7 -0.3 0.71 -0.43 0.71 -0.58 0 -0.33 -0.84 -0.58 -0.86 -0.59l-0.15 0s-0.67 0.33 -0.67 0.56 0.65 0.61 0.66 0.61Z" fill="#020202" fill-rule="evenodd" stroke-width="1"></path>
  </g>
</svg>