<svg xmlns="http://www.w3.org/2000/svg" viewBox="0 0 24 24" id="Car-Actions-Check-1--Streamline-Freehand">
  <desc>
    Car Actions Check 1 Streamline Icon: https://streamlinehq.com
  </desc>
  <g>
    <path d="M5.11 9a1.7 1.7 0 0 0 -0.85 0.11 0.37 0.37 0 0 0 -0.2 0.15H4a1.26 1.26 0 0 0 -0.63 0.59 1.87 1.87 0 0 0 -0.19 0.82 1.65 1.65 0 0 0 0.49 1.12 1.63 1.63 0 0 0 1.2 0.48 1.67 1.67 0 0 0 1.58 -1.07 1.63 1.63 0 0 0 -0.51 -1.76A1.45 1.45 0 0 0 5.11 9Zm0.27 1.76a0.61 0.61 0 0 1 -0.55 0.34 0.53 0.53 0 0 1 -0.41 -0.1 0.74 0.74 0 0 1 -0.32 -0.4 0.93 0.93 0 0 1 0 -0.44 0.58 0.58 0 0 1 0.23 -0.33l0.1 0a1 1 0 0 1 0.48 0 0.68 0.68 0 0 1 0.33 0.26 0.67 0.67 0 0 1 0.14 0.71Z" fill="#4C57E6" stroke-width="1"></path>
    <path d="M17.33 9a1.7 1.7 0 0 0 -0.85 0.12 0.31 0.31 0 0 0 -0.2 0.15 1.35 1.35 0 0 0 -0.63 0.59 1.7 1.7 0 0 0 -0.18 0.82 1.64 1.64 0 0 0 0.48 1.12 1.59 1.59 0 0 0 1.21 0.47 1.62 1.62 0 0 0 1 -2.88 1.58 1.58 0 0 0 -0.83 -0.39Zm0.26 1.77a0.6 0.6 0 0 1 -0.55 0.34 0.54 0.54 0 0 1 -0.41 -0.1 0.67 0.67 0 0 1 -0.31 -0.41 0.81 0.81 0 0 1 0 -0.44 0.56 0.56 0 0 1 0.23 -0.33h0.1a1 1 0 0 1 0.49 0 0.63 0.63 0 0 1 0.33 0.26 0.69 0.69 0 0 1 0.12 0.72Z" fill="#4C57E6" stroke-width="1"></path>
    <path d="M13.69 14.69a0.36 0.36 0 0 0 -0.35 -0.36c-1.57 -0.05 -3.27 -0.14 -4.89 -0.23s-3.15 -0.22 -4.4 -0.31c-1.53 -0.11 -2.59 -0.16 -2.73 -0.22s-0.16 -0.28 -0.16 -0.47a7.15 7.15 0 0 1 0.09 -1.1 8 8 0 0 1 0.67 -3 3.21 3.21 0 0 1 1.3 -1.39 2.75 2.75 0 0 1 0.7 -0.26 7.7 7.7 0 0 1 1.2 -0.19 0.31 0.31 0 1 0 0 -0.62 8.08 8.08 0 0 0 -1.31 0.13 2.44 2.44 0 0 0 -0.26 0.06A10.28 10.28 0 0 1 4 4.67a4.71 4.71 0 0 1 1.27 -2.1 4.84 4.84 0 0 1 2 -0.42c1 -0.1 2.25 -0.15 3.48 -0.16a32.56 32.56 0 0 1 4.06 0.2 3.51 3.51 0 0 1 1.44 0.36 4.89 4.89 0 0 1 1.25 2.1 10.27 10.27 0 0 1 0.5 1.82 6 6 0 0 0 -1 -0.22c-0.32 0 -1.53 -0.07 -2.87 0 -1.79 0 -3.81 0.11 -4.25 0.13l-3.13 0.06a0.35 0.35 0 0 0 -0.35 0.36 0.35 0.35 0 0 0 0.35 0.35l3.13 0.16c0.38 0 2 0.08 3.54 0.11s3.12 0 3.49 0a3.69 3.69 0 0 1 1.8 0.51A3.42 3.42 0 0 1 20 9.34a5 5 0 0 1 0.32 0.79c0.09 0.27 0.16 0.56 0.23 0.84a0.32 0.32 0 0 0 0.36 0.26 0.32 0.32 0 0 0 0.25 -0.36 9 9 0 0 0 -0.16 -0.93 6.08 6.08 0 0 0 -0.33 -0.94 4.38 4.38 0 0 0 -1.28 -1.8 4.73 4.73 0 0 0 0.44 -0.29l0.32 -0.29c0.1 -0.11 0.19 -0.22 0.28 -0.34a9 9 0 0 0 0.57 -0.87 0.35 0.35 0 0 0 0 -0.5 0.34 0.34 0 0 0 -0.49 0c-0.23 0.17 -0.53 0.34 -0.85 0.58a3 3 0 0 0 -0.33 0.29 1.87 1.87 0 0 0 -0.29 0.34 3.89 3.89 0 0 0 -0.3 0.5 10.86 10.86 0 0 0 -0.56 -2.79 5.11 5.11 0 0 0 -1.23 -2A4.23 4.23 0 0 0 15 1.12 26.14 26.14 0 0 0 10.77 0.8a26.67 26.67 0 0 0 -3.62 0.2 5.45 5.45 0 0 0 -2.52 0.81 5 5 0 0 0 -1.21 2.08A10.46 10.46 0 0 0 2.87 7l-0.08 0a4.51 4.51 0 0 0 -0.46 -0.85A1.87 1.87 0 0 0 2 5.81a3 3 0 0 0 -0.33 -0.29c-0.32 -0.24 -0.62 -0.41 -0.84 -0.58a0.35 0.35 0 0 0 -0.53 0.47c0.15 0.25 0.33 0.56 0.57 0.89 0.09 0.12 0.18 0.23 0.28 0.34l0.32 0.29c0.24 0.18 0.47 0.32 0.68 0.45a4.27 4.27 0 0 0 -1.02 1.19 9 9 0 0 0 -1 3.28 5 5 0 0 0 -0.07 1.91 1.32 1.32 0 0 0 0.79 0.9 13.25 13.25 0 0 0 1.9 0.22 8.38 8.38 0 0 0 -0.18 0.87 2.5 2.5 0 0 0 0 0.72A1.86 1.86 0 0 0 4 17.67a3 3 0 0 0 1.46 0 2.26 2.26 0 0 0 1 -0.44 1.32 1.32 0 0 0 0.41 -0.65 3.77 3.77 0 0 0 0 -1.25l0 -0.33 6.54 0a0.36 0.36 0 0 0 0.28 -0.31ZM6 15.38a5.24 5.24 0 0 1 -0.1 0.71 0.52 0.52 0 0 1 -0.19 0.31 1.89 1.89 0 0 1 -1.21 0.18c-0.4 0 -0.81 -0.11 -0.94 -0.43a1.17 1.17 0 0 1 -0.09 -0.52l0 -0.7c0.38 0 0.77 0.05 1.2 0.06L6 15l0 0.38Z" fill="#020202" stroke-width="1"></path>
    <path d="M22.77 14.73a5.58 5.58 0 0 0 -4.47 -1.88 5.3 5.3 0 0 0 -4.12 2.42 4.7 4.7 0 0 0 -0.77 2.1 5.91 5.91 0 0 0 0.16 2.17 4.64 4.64 0 0 0 0.62 1.46 2.8 2.8 0 0 0 0.78 0.75 0.31 0.31 0 0 0 0.35 -0.51 2.18 2.18 0 0 1 -0.68 -0.79 4.25 4.25 0 0 1 -0.35 -1.06 5 5 0 0 1 0 -1.87 3.74 3.74 0 0 1 0.71 -1.69A4.34 4.34 0 0 1 18.35 14a4.46 4.46 0 0 1 3.5 1.47 4.16 4.16 0 0 1 0.76 4.32 4.38 4.38 0 0 1 -3.7 2.59 5.53 5.53 0 0 1 -1.07 0 4.44 4.44 0 0 1 -1 -0.18 0.35 0.35 0 0 0 -0.22 0.67 5.81 5.81 0 0 0 1.2 0.26 7 7 0 0 0 1.21 0 5.1 5.1 0 0 0 3.78 -8.44Z" fill="#020202" stroke-width="1"></path>
    <path d="M17.41 20.23a1.09 1.09 0 0 0 0.81 -0.42 10.55 10.55 0 0 0 0.84 -1.12c0.25 -0.4 0.43 -0.82 0.63 -1.22l0.48 -1s0.24 -0.27 0.17 -0.32a0.39 0.39 0 0 0 0.09 -0.24c0 -0.15 -0.34 -0.58 -0.67 -0.18l-0.22 0.29 -0.72 1 -1.45 2.18 0 0.14c0 0.05 -0.18 -0.09 -0.27 -0.18s-0.35 -0.33 -0.45 -0.44a0.3 0.3 0 0 0 -0.08 -0.08s-0.6 0.17 -0.38 0.51l0.34 0.52a1.24 1.24 0 0 0 0.88 0.56Zm2.7 -4Z" fill="#020202" stroke-width="1"></path>
  </g>
</svg>