<svg xmlns="http://www.w3.org/2000/svg" viewBox="0 0 24 24" id="Car-Sun--Streamline-Freehand">
  <desc>
    Car Sun Streamline Icon: https://streamlinehq.com
  </desc>
  <g>
    <path d="M13.18 19.08a1.46 1.46 0 0 0 -1.15 0.76 1.39 1.39 0 0 0 -0.19 0.62 1.8 1.8 0 0 0 0.09 0.58 1.23 1.23 0 0 0 0.19 0.38 0.74 0.74 0 0 0 0.24 0.22 0.33 0.33 0 0 0 0.16 0.05 0.35 0.35 0 0 0 0.23 0.27 1.57 1.57 0 0 0 0.31 0.08 1.62 1.62 0 0 0 0.31 0 1.44 1.44 0 0 0 1.3 -0.8 1.52 1.52 0 0 0 -1.49 -2.18Zm0.54 1.9a0.61 0.61 0 0 1 -0.42 0.32H13a0.26 0.26 0 0 0 -0.15 0 0.31 0.31 0 0 0 -0.12 -0.16l-0.08 -0.27a0.77 0.77 0 0 1 0 -0.3 0.57 0.57 0 0 1 0.13 -0.2 0.52 0.52 0 0 1 0.44 -0.16 0.47 0.47 0 0 1 0.37 0.16 0.5 0.5 0 0 1 0.13 0.63Z" fill="#020202" stroke-width="1"></path>
    <path d="M4.43 6.15a2.8 2.8 0 0 0 0.1 0.95 2.4 2.4 0 0 0 0.28 0.61 1.38 1.38 0 0 0 0.37 0.35 0.29 0.29 0 0 0 0.41 -0.06 0.3 0.3 0 0 0 -0.07 -0.42 0.53 0.53 0 0 1 -0.19 -0.26 1.66 1.66 0 0 1 -0.11 -0.38 1.9 1.9 0 0 1 0 -0.65 1.17 1.17 0 0 1 0.26 -0.54 1.37 1.37 0 0 1 1.12 -0.57A1.4 1.4 0 0 1 8 7a1.45 1.45 0 0 1 -1.22 1L6.4 8a2 2 0 0 1 -0.35 -0.05 0.33 0.33 0 0 0 -0.43 0.21 0.34 0.34 0 0 0 0.22 0.43 2 2 0 0 0 0.5 0.12 2.18 2.18 0 0 0 0.51 0 2.28 2.28 0 0 0 2 -1.3 2.43 2.43 0 0 0 -0.31 -2.48 2.45 2.45 0 0 0 -2 -0.87 2.29 2.29 0 0 0 -1.8 1.14 2.16 2.16 0 0 0 -0.31 0.95Z" fill="#020202" stroke-width="1"></path>
    <path d="M19.88 19.08a1.48 1.48 0 0 0 -1.15 0.76 1.37 1.37 0 0 0 -0.18 0.62 1.89 1.89 0 0 0 0.08 0.58 1.5 1.5 0 0 0 0.19 0.38 0.9 0.9 0 0 0 0.25 0.22 0.3 0.3 0 0 0 0.16 0.05 0.33 0.33 0 0 0 0.23 0.27 1.41 1.41 0 0 0 0.31 0.08 1.56 1.56 0 0 0 0.31 0 1.41 1.41 0 0 0 1.29 -0.8 1.56 1.56 0 0 0 -0.17 -1.61 1.59 1.59 0 0 0 -1.32 -0.55Zm0.55 1.9a0.66 0.66 0 0 1 -0.43 0.32h-0.33a0.26 0.26 0 0 0 -0.15 0 0.36 0.36 0 0 0 -0.11 -0.16l-0.08 -0.27a0.77 0.77 0 0 1 0 -0.3 0.46 0.46 0 0 1 0.13 -0.2 0.52 0.52 0 0 1 0.44 -0.16 0.49 0.49 0 0 1 0.37 0.16 0.52 0.52 0 0 1 0.16 0.63Z" fill="#020202" stroke-width="1"></path>
    <path d="M24 19.44a5.21 5.21 0 0 0 -0.5 -2 2.92 2.92 0 0 0 -1 -1.07 3.15 3.15 0 0 0 -0.75 -0.34 2.88 2.88 0 0 0 -0.82 -0.14l-0.31 0c0 -0.24 -0.08 -0.49 -0.09 -0.57a3.29 3.29 0 0 0 -0.35 -1.07 6.62 6.62 0 0 0 -0.92 -1.22 5.39 5.39 0 0 0 -0.39 -0.43 2.18 2.18 0 0 0 -0.38 -0.3 5.23 5.23 0 0 0 -3.32 -0.77 5.63 5.63 0 0 0 -3.07 1.34 3.26 3.26 0 0 0 -0.66 0.78 6.78 6.78 0 0 0 -0.6 1.28 5.34 5.34 0 0 0 -0.31 1 2.71 2.71 0 0 0 0 0.56 1.14 1.14 0 0 0 -0.41 0.21 2.8 2.8 0 0 0 -0.64 0.87 4.18 4.18 0 0 0 -0.38 1.13 5.15 5.15 0 0 0 0 1.11c0 0.12 0 0.29 0.06 0.43a0.9 0.9 0 0 0 0.17 0.37 0.79 0.79 0 0 0 0.44 0.25 3.45 3.45 0 0 0 0.85 -0.08 4 4 0 0 0 0.49 0 0.52 0.52 0 0 0 0.23 -0.06 0.3 0.3 0 0 0 -0.25 -0.55l-0.47 -0.17 -0.44 0s-0.18 0 -0.18 -0.07 0.11 0 0.13 0.07c0 -0.08 0.07 -0.22 0.07 -0.29a6.89 6.89 0 0 1 0 -0.91 6.88 6.88 0 0 1 0.09 -0.89 2.45 2.45 0 0 1 0.13 -0.38 0.82 0.82 0 0 1 0.17 -0.29s0 -0.06 0 -0.06a0.32 0.32 0 0 0 0.21 -0.08 0.34 0.34 0 0 0 0.13 0.1 2.54 2.54 0 0 0 0.47 0.09 5.32 5.32 0 0 0 0.56 0.06l1.21 0 1.51 0c1.15 -0.05 2.3 -0.17 3.45 -0.24l1.37 -0.25c0.07 0 0.41 0 0.55 -0.05a0.66 0.66 0 0 0 0.32 -0.17 0.21 0.21 0 0 0 0 -0.06l0.36 0.05a2.3 2.3 0 0 1 0.57 0.21 2.74 2.74 0 0 1 0.48 0.36 2.44 2.44 0 0 1 0.69 1 6.35 6.35 0 0 1 0.4 1.33l0.07 0.57 -0.61 0a0.33 0.33 0 0 0 -0.24 0 0.39 0.39 0 0 0 0.21 0.69 7.28 7.28 0 0 0 1.18 0.05 0.43 0.43 0 0 0 0.35 -0.33 2.22 2.22 0 0 0 0.07 -0.49 4.67 4.67 0 0 0 0.1 -0.58ZM13.24 16.6l-1 0a3.33 3.33 0 0 1 -0.63 0s-0.27 -0.12 -0.32 0a0.27 0.27 0 0 0 -0.16 0 2.7 2.7 0 0 1 0.07 -0.41 5.86 5.86 0 0 1 0.33 -0.88 6.32 6.32 0 0 1 0.6 -1.12 2.6 2.6 0 0 1 0.54 -0.56 5 5 0 0 1 2.3 -0.92 1.94 1.94 0 0 0 0 0.22l-0.1 1.23c0 0.25 0 0.5 0.05 0.75s0.11 0.75 0.16 1.14l0 0.49c-0.64 -0.01 -1.24 0.04 -1.84 0.06Zm6.15 -0.81 -1.27 0.3 -2.37 0.29c0.08 -0.06 0.06 -0.37 0.07 -0.4 0 -0.4 0.11 -0.78 0.12 -1.17s0 -0.52 0 -0.78l-0.24 -1.22v-0.21a4.23 4.23 0 0 1 2.19 0.7l0.52 0.53a6.41 6.41 0 0 1 0.67 0.83 2.25 2.25 0 0 1 0.34 0.86s-0.03 0.15 -0.03 0.27Zm0.32 0c0.06 -0.07 0.14 -0.15 0.16 -0.07s-0.07 0.08 -0.16 0.08Z" fill="#020202" stroke-width="1"></path>
    <path d="M5.66 17.32a0.49 0.49 0 0 1 0 0.11c0.14 0.01 0.08 -0.05 0 -0.11Z" fill="#4C57E6" stroke-width="1"></path>
    <path d="m5.66 17.34 0 -0.23a1.26 1.26 0 0 0 -0.17 -0.35 2.31 2.31 0 0 0 -0.24 -0.29 1.35 1.35 0 0 0 -0.45 -0.27 0.93 0.93 0 0 0 -0.29 -0.05l0 -0.15a2.64 2.64 0 0 0 -0.42 -1.05 3.27 3.27 0 0 0 -0.77 -0.8 2.06 2.06 0 0 0 -1.76 -0.28A2.26 2.26 0 0 0 0.22 15 2.35 2.35 0 0 0 0 16.23a2.5 2.5 0 0 0 0.43 1.16 2.09 2.09 0 0 0 0.42 0.42 1.46 1.46 0 0 0 0.56 0.27 1.86 1.86 0 0 0 0.08 0.41 2 2 0 0 0 0.6 0.89 1.81 1.81 0 0 0 1 0.43 2.58 2.58 0 0 0 1 -0.09 1.43 1.43 0 0 0 0.65 -0.43l0.34 -0.49 0.11 -0.2a0.28 0.28 0 0 0 0.06 -0.18s-0.43 -0.53 -0.65 -0.15a2.06 2.06 0 0 1 -0.11 0.18l-0.3 0.37a0.73 0.73 0 0 1 -0.39 0.18 1.46 1.46 0 0 1 -0.59 0 0.94 0.94 0 0 1 -0.49 -0.26 1.11 1.11 0 0 1 -0.27 -0.5v-0.4a0.52 0.52 0 0 0 -0.06 -0.67 0.5 0.5 0 0 0 -0.5 -0.14l-0.11 0 -0.06 0a0.45 0.45 0 0 1 -0.18 -0.1 1.06 1.06 0 0 1 -0.17 -0.2 1.31 1.31 0 0 1 -0.21 -0.62 1.16 1.16 0 0 1 0.1 -0.62 1.14 1.14 0 0 1 0.66 -0.58 1 1 0 0 1 0.86 0.07 2 2 0 0 1 0.57 0.49 1.79 1.79 0 0 1 0.35 0.65l0 0.52a0.38 0.38 0 0 0 0.18 0.34 0.39 0.39 0 0 0 0.27 0.06l0.2 -0.08 0.22 -0.1a0.21 0.21 0 0 1 0.11 0 0.56 0.56 0 0 1 0.17 0.09l0.27 0.33 0 0.25a0.33 0.33 0 0 0 0.27 0.3 0.3 0.3 0 0 0 0.34 -0.26v-0.09s-0.08 -0.08 -0.07 -0.14Zm-4.1 -0.08 0 -0.07 -0.05 0.07Z" fill="#4C57E6" stroke-width="1"></path>
    <path d="M6.75 18c0.09 0.1 0.26 0.32 0.33 0.41a2 2 0 0 0 0.42 0.21l0.32 0c0.1 0 0.09 -0.05 0.11 0a0.35 0.35 0 0 0 0.46 0.15 0.34 0.34 0 0 0 0.15 -0.46c0 -0.24 -0.24 -0.43 -0.51 -0.64a0.82 0.82 0 0 0 -0.25 -0.16c-0.08 0 -0.16 0 -0.22 -0.05l-0.52 0c-0.44 0 -0.39 0.5 -0.36 0.51Z" fill="#4C57E6" stroke-width="1"></path>
    <path d="M8.32 20c-0.23 -0.06 -0.48 -0.15 -0.77 -0.22a1.86 1.86 0 0 0 -0.33 0 1.15 1.15 0 0 0 -0.32 0c-0.3 0 -0.52 0.15 -0.7 0.14a0.29 0.29 0 0 0 -0.38 0.17 0.3 0.3 0 0 0 0.17 0.39 2.29 2.29 0 0 0 1 0.41 1.69 1.69 0 0 0 0.55 0c0.31 0 0.57 -0.14 0.81 -0.19a0.33 0.33 0 0 0 0.35 -0.32 0.35 0.35 0 0 0 -0.38 -0.38Z" fill="#4C57E6" stroke-width="1"></path>
    <path d="m10.15 20.04 0.03 0 -0.03 -0.02 0 -0.01 0 0.02 0 0.01z" fill="#020202" stroke-width="1"></path>
    <path d="M17.83 20c-0.27 -0.07 -0.52 -0.22 -0.82 -0.29a1.94 1.94 0 0 0 -0.72 0l-0.63 0.27a0.3 0.3 0 0 0 -0.41 0.12 0.31 0.31 0 0 0 0.12 0.41 1 1 0 0 0 0.49 0.22 2.79 2.79 0 0 0 0.63 0.08 3.1 3.1 0 0 1 0.43 0 4.44 4.44 0 0 0 0.91 -0.13 0.34 0.34 0 1 0 0 -0.68Z" fill="#020202" stroke-width="1"></path>
    <path d="M6.79 3.9a0.34 0.34 0 0 0 0.34 -0.34 3.62 3.62 0 0 0 0.24 -0.43 1.58 1.58 0 0 0 0 -0.38 2.4 2.4 0 0 1 -0.12 -0.22c0 -0.08 -0.07 -0.17 -0.12 -0.16A0.3 0.3 0 0 0 7 2c-0.11 -0.12 -0.2 0 -0.36 0.09s0 0.09 -0.09 0.16a2.59 2.59 0 0 0 -0.25 0.51 2.44 2.44 0 0 0 0 0.27 1.78 1.78 0 0 0 0.17 0.54 0.34 0.34 0 0 0 0.32 0.33Zm0.32 -1.44a0.12 0.12 0 0 1 -0.11 0.1 0.31 0.31 0 0 0 0.11 -0.1Z" fill="#020202" stroke-width="1"></path>
    <path d="M9.1 4.68a3.79 3.79 0 0 0 0.48 -0.14 1.32 1.32 0 0 0 0.28 -0.25s0 -0.12 0.07 -0.25 0.07 -0.16 0 -0.19a0.31 0.31 0 0 0 0.14 -0.41c0 -0.15 -0.15 -0.12 -0.32 -0.18s-0.08 0 -0.17 0.06a3.14 3.14 0 0 0 -0.54 0.2 1.62 1.62 0 0 0 -0.19 0.18 2 2 0 0 0 -0.25 0.51 0.36 0.36 0 0 0 0 0.49 0.34 0.34 0 0 0 0.5 -0.02Zm0.74 -0.81c-0.08 0.06 -0.13 0 -0.18 0a0.28 0.28 0 0 0 0.18 0Z" fill="#020202" stroke-width="1"></path>
    <path d="M9.27 6.48a0.34 0.34 0 0 0 0.34 0.34c0.17 0.07 0.26 0.19 0.43 0.24a1.2 1.2 0 0 0 0.38 0l0.22 -0.06c0.08 0 0.17 -0.07 0.16 -0.12a0.29 0.29 0 0 0 0.38 -0.18c0.12 -0.1 0 -0.19 -0.09 -0.35s-0.09 0 -0.16 -0.09a2.59 2.59 0 0 0 -0.51 -0.26 2.44 2.44 0 0 0 -0.27 0 1.78 1.78 0 0 0 -0.54 0.17 0.34 0.34 0 0 0 -0.34 0.31Zm1.44 0.31c-0.1 0 -0.11 -0.08 -0.1 -0.16a0.25 0.25 0 0 0 0.1 0.16Z" fill="#020202" stroke-width="1"></path>
    <path d="M9.48 9.6a0.29 0.29 0 0 0 0.4 0.14c0.16 0 0.12 -0.15 0.18 -0.32s0 -0.08 -0.05 -0.17a4.29 4.29 0 0 0 -0.2 -0.54c-0.07 -0.06 -0.12 -0.14 -0.19 -0.19a2 2 0 0 0 -0.51 -0.25 0.34 0.34 0 0 0 -0.48 0 0.34 0.34 0 0 0 0 0.48c0.07 0.17 0.06 0.32 0.14 0.48a1.37 1.37 0 0 0 0.26 0.28l0.24 0.07c0.1 0.03 0.19 0.06 0.21 0.02Zm0 -0.29a0.28 0.28 0 0 0 0 0.18c-0.07 -0.08 -0.04 -0.13 0.02 -0.18Z" fill="#020202" stroke-width="1"></path>
    <path d="M7 9.29c-0.11 -0.11 -0.2 0 -0.36 0.09s0 0.09 -0.09 0.16a2.59 2.59 0 0 0 -0.25 0.51 2.44 2.44 0 0 0 0 0.27 1.7 1.7 0 0 0 0.17 0.54 0.34 0.34 0 0 0 0.68 0 3.62 3.62 0 0 0 0.24 -0.43 1.58 1.58 0 0 0 0 -0.38 2.4 2.4 0 0 1 -0.12 -0.22c0 -0.08 -0.07 -0.17 -0.12 -0.16A0.3 0.3 0 0 0 7 9.29Zm0.12 0.48a0.12 0.12 0 0 1 -0.12 0.09 0.37 0.37 0 0 0 0.16 -0.09Z" fill="#020202" stroke-width="1"></path>
    <path d="M5.05 8.73c0 -0.16 -0.16 -0.13 -0.33 -0.18s-0.08 0 -0.17 0A3.14 3.14 0 0 0 4 8.8l-0.18 0.2a1.73 1.73 0 0 0 -0.25 0.51 0.34 0.34 0 0 0 0.5 0.47c0.16 -0.07 0.31 -0.06 0.47 -0.14a1.37 1.37 0 0 0 0.28 -0.26 2.15 2.15 0 0 0 0.07 -0.24c0 -0.08 0.07 -0.17 0 -0.19a0.3 0.3 0 0 0 0.16 -0.42Zm-0.25 0.43c-0.08 0.05 -0.13 0 -0.18 0a0.39 0.39 0 0 0 0.18 0Z" fill="#020202" stroke-width="1"></path>
    <path d="M2.31 6.82a3.62 3.62 0 0 0 0.43 0.24 1.2 1.2 0 0 0 0.38 0L3.34 7c0.08 0 0.17 -0.07 0.16 -0.12a0.29 0.29 0 0 0 0.38 -0.18c0.12 -0.1 0 -0.19 -0.09 -0.35s-0.09 0 -0.16 -0.09A2.59 2.59 0 0 0 3.12 6a2.44 2.44 0 0 0 -0.27 0 1.7 1.7 0 0 0 -0.54 0.17 0.34 0.34 0 1 0 0 0.68Zm1.09 0c-0.09 0 -0.1 -0.08 -0.09 -0.16a0.28 0.28 0 0 0 0.09 0.13Z" fill="#020202" stroke-width="1"></path>
    <path d="M3.51 4.19a1.32 1.32 0 0 0 0.25 0.28l0.24 0.07c0.09 0 0.17 0.07 0.2 0a0.3 0.3 0 0 0 0.4 0.14c0.16 0 0.13 -0.16 0.18 -0.33s0 -0.08 0 -0.17a3.14 3.14 0 0 0 -0.2 -0.54c-0.07 -0.06 -0.11 -0.13 -0.19 -0.19a1.73 1.73 0 0 0 -0.51 -0.25 0.34 0.34 0 1 0 -0.47 0.49 3.82 3.82 0 0 0 0.1 0.5Zm0.71 0.08a0.31 0.31 0 0 0 0 0.18c-0.1 -0.08 -0.06 -0.13 0 -0.18Z" fill="#020202" stroke-width="1"></path>
  </g>
</svg>