<svg xmlns="http://www.w3.org/2000/svg" viewBox="0 0 24 24" id="Car-Actions-Search--Streamline-Freehand">
  <desc>
    Car Actions Search Streamline Icon: https://streamlinehq.com
  </desc>
  <g>
    <path d="M14.88 8.65a5.43 5.43 0 0 0 -1.25 -1.07l-0.07 0c-0.1 -0.41 -0.1 -0.93 -0.23 -1.37a1.64 1.64 0 0 0 -0.4 -0.72 1.27 1.27 0 0 0 -0.37 -0.25 2.24 2.24 0 0 0 -0.5 -0.16A8.83 8.83 0 0 0 11 4.86a6 6 0 0 0 -0.74 0l-1 0.07a4.33 4.33 0 0 0 -1.71 0.37 2 2 0 0 0 -0.85 1l-0.29 0.8L6 8.41a0.32 0.32 0 0 0 0.06 0.24A3.6 3.6 0 0 0 5 9.56a2.5 2.5 0 0 0 -0.47 1.57 3.52 3.52 0 0 0 0.13 0.87 1 1 0 0 0 0.4 0.54 1.07 1.07 0 0 0 0.52 0.17 3.27 3.27 0 0 0 0.79 -0.12l0.78 -0.09 0 0.11a1.38 1.38 0 0 0 0.45 0.63 2 2 0 0 0 1 0.4 1.26 1.26 0 0 0 1.19 -0.47 2 2 0 0 0 0.33 -0.66 0.41 0.41 0 0 0 0.12 0.09 0.42 0.42 0 0 0 0.15 0 2.55 2.55 0 0 0 0.79 -0.35 1.76 1.76 0 0 0 0.1 0.3 1.53 1.53 0 0 0 1.13 0.84 1.49 1.49 0 0 0 1.23 -0.35 1.92 1.92 0 0 0 0.59 -0.95c0.21 -0.8 0 -1.68 -0.93 -1.86a0.34 0.34 0 0 0 -0.42 0.24s0 0 0 0.05a0.29 0.29 0 0 0 -0.24 -0.21 1 1 0 0 0 -0.73 0.15 1.55 1.55 0 0 0 -0.65 0.79 1.49 1.49 0 0 0 -0.1 0.51l-0.55 -0.29a0.37 0.37 0 0 0 -0.14 0 0.41 0.41 0 0 0 -0.16 0l-0.17 0.09a1.24 1.24 0 0 0 -0.31 -0.5 2 2 0 0 0 -0.67 -0.43 0.4 0.4 0 0 0 -0.24 0 0.29 0.29 0 0 0 -0.28 -0.11 1.6 1.6 0 0 0 -1.16 0.64 1.44 1.44 0 0 0 -0.28 0.55l-0.89 0c-0.86 0 -0.54 0.09 -0.57 -0.61A1.7 1.7 0 0 1 6 9.88a4.51 4.51 0 0 1 1.09 -1 0.3 0.3 0 0 0 0.12 -0.35l2.24 0 2.06 0 1.08 0a1.1 1.1 0 0 1 0.49 0.11 5.17 5.17 0 0 1 1.08 0.78 5.39 5.39 0 0 1 0.84 0.99 1 1 0 0 1 0.2 0.53 0.35 0.35 0 0 1 -0.26 0.3 0.36 0.36 0 0 0 -0.21 0.45 0.34 0.34 0 0 0 0.45 0.2 1.12 1.12 0 0 0 0.72 -0.6 1.57 1.57 0 0 0 -0.14 -1.3 6.29 6.29 0 0 0 -0.88 -1.34Zm-2.68 2.49c0.08 -0.09 0.16 -0.19 0.28 -0.19a0.3 0.3 0 0 0 0.34 -0.25 0.36 0.36 0 0 0 0.25 0.24 0.5 0.5 0 0 1 0.25 0.64 1.07 1.07 0 0 1 -0.35 0.56 0.47 0.47 0 0 1 -0.41 0.14 0.5 0.5 0 0 1 -0.42 -0.3 0.81 0.81 0 0 1 -0.09 -0.46 0.82 0.82 0 0 1 0.15 -0.38Zm-4.09 0.48a1 1 0 0 1 0.52 -0.49 0.46 0.46 0 0 0 0.16 0.15 1.15 1.15 0 0 1 0.32 0.27 0.47 0.47 0 0 1 0.11 0.26 0.78 0.78 0 0 1 -0.15 0.46c-0.07 0.13 -0.18 0.25 -0.33 0.22a1.07 1.07 0 0 1 -0.38 -0.13 0.49 0.49 0 0 1 -0.22 -0.18 0.62 0.62 0 0 1 -0.03 -0.56Zm3.36 -4.29 -0.66 0c-0.48 0.06 -1 0.16 -1.44 0.23L7 7.88s-0.09 0 -0.13 0.07l0.24 -0.58 0.37 -0.68A1.22 1.22 0 0 1 8 6.22a3.6 3.6 0 0 1 1.3 -0.15l1 -0.07a4.92 4.92 0 0 1 0.77 0c0.26 0 0.53 0 0.79 0.06l0.42 0.1a1 1 0 0 1 0.29 0.48 5.68 5.68 0 0 1 0.18 0.71 9.4 9.4 0 0 0 -1.28 -0.02Z" fill="#020202" fill-rule="evenodd" stroke-width="1"></path>
    <path d="M23.38 21.61h-0.05a0.34 0.34 0 0 0 0 -0.46 27.89 27.89 0 0 0 -1.92 -2.28c-0.39 -0.42 -0.8 -0.83 -1.21 -1.24l-0.82 -0.8c-0.28 -0.29 -0.61 -0.56 -0.89 -0.87a3.68 3.68 0 0 1 -0.3 -0.39 11.42 11.42 0 0 0 1.67 -4.5 10.41 10.41 0 0 0 -2.41 -8.42 7.11 7.11 0 0 0 -3.08 -2A13.63 13.63 0 0 0 9.07 0a3.18 3.18 0 0 0 -0.62 0 7.58 7.58 0 0 0 -1.86 0.42 7.39 7.39 0 0 0 -3.06 1.92 10.77 10.77 0 0 0 -2 3 11.26 11.26 0 0 0 -0.78 7.24 9.47 9.47 0 0 0 4.24 6 8.86 8.86 0 0 0 1.65 0.77 13.44 13.44 0 0 0 1.73 0.47 12.69 12.69 0 0 0 1.75 0.23 9.83 9.83 0 0 0 1.8 -0.06 7.62 7.62 0 0 0 1.79 -0.48 8.34 8.34 0 0 0 1.61 -0.86c0.12 -0.08 0.22 -0.18 0.33 -0.26a6.62 6.62 0 0 0 0.44 0.69c0.59 0.8 1.39 1.53 2 2.24 0.34 0.39 0.67 0.79 1 1.18s0.49 0.51 0.75 0.76a5.26 5.26 0 0 0 0.63 0.56A1.34 1.34 0 0 0 21 24a1.82 1.82 0 0 0 1 -0.22 4.07 4.07 0 0 0 0.93 -0.73 2.89 2.89 0 0 0 0.38 -0.47 5 5 0 0 0 0.29 -0.5 0.35 0.35 0 0 0 -0.22 -0.47Zm-8.74 -4a7.88 7.88 0 0 1 -1.4 0.75 6.24 6.24 0 0 1 -1.5 0.39 8.33 8.33 0 0 1 -1.58 0.05 11.91 11.91 0 0 1 -1.59 -0.2A12.75 12.75 0 0 1 7 18.21a7.47 7.47 0 0 1 -1.44 -0.65 8.4 8.4 0 0 1 -3.83 -5.25 10.4 10.4 0 0 1 0.54 -6.64 9.9 9.9 0 0 1 1.81 -2.8 6.75 6.75 0 0 1 2.73 -1.81A6.11 6.11 0 0 1 8.48 0.64a2.28 2.28 0 0 1 0.37 0 0.34 0.34 0 0 0 0.25 0.09h0.17l0.24 0.1a0.29 0.29 0 0 0 0.4 -0.11 13.33 13.33 0 0 1 3.42 0.41 6.81 6.81 0 0 1 3.5 2.08 9.53 9.53 0 0 1 2 7.71 9.94 9.94 0 0 1 -4.19 6.73Zm8 4.49a3.14 3.14 0 0 1 -0.31 0.32 4.7 4.7 0 0 1 -0.66 0.43 1 1 0 0 1 -0.56 0.12l-0.52 -0.57 -1.71 -1.93c-0.66 -0.63 -1.53 -1.25 -2.22 -2a5.69 5.69 0 0 1 -0.49 -0.61 11.17 11.17 0 0 0 1.63 -1.74 2.25 2.25 0 0 0 0.12 0.21c0.22 0.37 0.49 0.71 0.73 1.05a14 14 0 0 0 1.15 1.4c0.29 0.3 0.6 0.57 0.91 0.85 0.71 0.63 1.45 1.22 2.13 1.89a0.31 0.31 0 0 0 0.15 0.08 0.3 0.3 0 0 0 -0.08 0.08 2.09 2.09 0 0 1 -0.28 0.46Z" fill="#4C57E6" fill-rule="evenodd" stroke-width="1"></path>
  </g>
</svg>