<svg xmlns="http://www.w3.org/2000/svg" viewBox="0 0 24 24" id="Card-Game-Diamond--Streamline-Freehand">
  <desc>
    Card Game Diamond Streamline Icon: https://streamlinehq.com
  </desc>
  <title>card-game-diamond</title>
  <g>
    <path d="M19 3.17a4.78 4.78 0 0 0 -0.57 -1.77 2.4 2.4 0 0 0 -1.33 -1 11.64 11.64 0 0 0 -3.32 -0.3q-3.14 -0.17 -6.24 0t-6 0.58C1 0.85 1.16 0.87 0.92 9.21c0 1.7 -0.11 3.4 -0.13 5.09l0 3.42a10.77 10.77 0 0 0 0 2.33 1.84 1.84 0 0 0 0.69 1.09 4.18 4.18 0 0 0 1.7 0.71 28.92 28.92 0 0 0 3.87 0.21c0.66 0 1.32 0.07 2 0.06a18.75 18.75 0 0 0 2 -0.1c0.62 -0.06 1.25 -0.1 1.88 -0.13 5.05 -0.24 4.86 0.06 4.91 -0.34 0.15 -1.15 0.26 -2.31 0.35 -3.47 0.13 -1.74 0.22 -3.49 0.3 -5.21l0.51 -7.1a15.09 15.09 0 0 0 0 -2.6Zm-1 2.55 -0.34 7.12c0 1.71 -0.08 3.46 -0.16 5.19 0 1 -0.12 2 -0.22 3.06 -1.44 0.05 -2.9 0 -4.35 0.05 -0.64 0 -1.28 0 -1.92 0.08s-1.27 0.05 -1.9 0 -1.28 -0.06 -1.92 -0.12c-0.95 -0.08 -2.14 0 -3.23 -0.2a4 4 0 0 1 -1.79 -0.63 1 1 0 0 1 -0.33 -0.76 18.47 18.47 0 0 1 0 -1.87c0 -0.84 -0.05 -1.68 -0.06 -2.52l0 -5.95 -0.07 -8C3.67 1 5.62 0.9 7.57 0.86s4.09 0 6.16 0.17a16.77 16.77 0 0 1 2.65 0.19 1.64 1.64 0 0 1 1.15 0.7A3.77 3.77 0 0 1 18 3.31a15 15 0 0 1 0 2.41Z" fill="#020202" fill-rule="evenodd" stroke-width="1"></path>
    <path d="M12.81 9c-0.05 -0.08 -3 -4.4 -3.55 -3.58 -0.47 0.62 -1 1.38 -1.55 2.15s-1 1.56 -1.43 2.24c-0.06 0.11 -0.43 0.6 -0.59 0.92a0.89 0.89 0 0 0 -0.09 0.58 3.2 3.2 0 0 0 0.43 0.87c0.38 0.56 0.9 1.09 1.22 1.56S8 15 8.38 15.6a4.93 4.93 0 0 0 0.66 0.82 0.57 0.57 0 0 0 0.69 0.12 2.66 2.66 0 0 0 0.47 -0.43 6 6 0 0 0 0.63 -0.7c0.27 -0.35 0.51 -0.73 0.76 -1.08L13.14 12a3.94 3.94 0 0 0 0.39 -0.61 0.88 0.88 0 0 0 0.06 -0.51A5.11 5.11 0 0 0 12.81 9Zm-0.44 2.46 -1.62 2.27c-0.24 0.34 -0.48 0.69 -0.75 1a5.71 5.71 0 0 1 -0.51 0.58 3.71 3.71 0 0 1 -0.23 -0.31c-0.42 -0.62 -0.78 -1.33 -1.18 -1.88s-0.89 -1 -1.28 -1.48c-0.23 -0.32 -0.39 -0.28 0.2 -1.45 0.35 -0.68 0.8 -1.48 1.28 -2.26s1 -1.54 1.41 -2.17a0.14 0.14 0 0 0 0 0.06c0.59 1.25 1.7 2.36 2.42 3.59a4.35 4.35 0 0 1 0.61 1.59Z" fill="#020202" fill-rule="evenodd" stroke-width="1"></path>
    <path d="M22.71 3.77a4.26 4.26 0 0 0 -1.58 -1 7.54 7.54 0 0 0 -1.2 -0.32c-0.79 0 -0.85 0.51 -0.37 0.8a2.28 2.28 0 0 0 0.73 0.32 3.78 3.78 0 0 1 1.71 0.94 1 1 0 0 1 0.22 0.79c0 0.65 -0.27 1.35 -0.32 1.85 -0.09 0.83 -0.21 1.67 -0.32 2.5 -0.28 2 -0.59 3.92 -0.85 5.88l-1.13 7.91c-2 -0.09 -3.94 -0.31 -5.87 -0.56 -0.74 -0.1 -2.37 -0.56 -2.91 -0.54 -0.85 0 -0.88 0.73 0.07 0.92s2 0.35 2.78 0.43c2 0.19 4 0.29 6 0.31 0.81 -0.05 0.42 -0.12 1.9 -8.34 0.28 -1.67 0.61 -3.34 0.89 -5q0.29 -1.7 0.48 -3.39A11.19 11.19 0 0 0 23.23 5a1.88 1.88 0 0 0 -0.52 -1.23Z" fill="#4C57E6" fill-rule="evenodd" stroke-width="1"></path>
  </g>
</svg>