<svg xmlns="http://www.w3.org/2000/svg" viewBox="0 0 24 24" id="Card-Game-Card-Spade--Streamline-Freehand">
  <desc>
    Card Game Card Spade Streamline Icon: https://streamlinehq.com
  </desc>
  <title>card-game-card-spade</title>
  <g>
    <path d="M19 3.2a4.59 4.59 0 0 0 -0.57 -1.79 2.4 2.4 0 0 0 -1.3 -1.06 12.15 12.15 0 0 0 -3.34 -0.3q-3.18 -0.12 -6.3 0.05C-0.93 0.55 1.12 -1.21 0.82 9.28 0.79 11 0.71 12.7 0.68 14.41l0 3.45a10.87 10.87 0 0 0 0 2.34 1.87 1.87 0 0 0 0.69 1.1 4.21 4.21 0 0 0 1.79 0.7 27.74 27.74 0 0 0 3.9 0.22c0.66 0 1.32 0.06 2 0.06a19.27 19.27 0 0 0 2 -0.1c0.62 -0.06 1.26 -0.1 1.89 -0.14 5 -0.23 4.55 -0.07 4.6 -0.07a0.31 0.31 0 0 0 0.35 -0.27c0.14 -1.15 0.25 -2.32 0.34 -3.5 0.14 -1.75 0.23 -3.51 0.31 -5.24l0.52 -7.15A14.36 14.36 0 0 0 19 3.2Zm-1 2.56 -0.35 7.18c0 1.72 -0.07 3.48 -0.16 5.23 -0.05 1 -0.12 2.06 -0.21 3.08 -1.46 0.05 -2.93 0 -4.39 0.05 -0.64 0 -1.29 0 -1.93 0.08s-1.28 0.05 -1.92 0 -1.29 -0.06 -1.93 -0.12c-1 -0.09 -2.16 -0.05 -3.26 -0.2a3.88 3.88 0 0 1 -1.8 -0.64 1 1 0 0 1 -0.34 -0.76c-0.07 -0.65 0.06 -1.39 0 -1.89 0 -0.84 0 -1.69 -0.05 -2.54l0 -6 -0.06 -8q3 -0.31 5.89 -0.37c2.07 0 4.13 0 6.22 0.17a17.18 17.18 0 0 1 2.67 0.19 1.65 1.65 0 0 1 1.16 0.71A3.69 3.69 0 0 1 18 3.34a14 14 0 0 1 0 2.42Z" fill="#020202" stroke-width="1"></path>
    <path d="M13.34 8.55a13.51 13.51 0 0 0 -1.65 -1.14 7.55 7.55 0 0 1 -1.3 -1A5.09 5.09 0 0 1 9.43 5a0.28 0.28 0 0 0 -0.37 -0.14 2.52 2.52 0 0 0 -0.33 0.29c-0.19 0.35 -0.37 0.73 -0.58 1.08a3.28 3.28 0 0 1 -0.45 0.59c-0.53 0.57 -1.16 1 -1.71 1.5a6.56 6.56 0 0 0 -0.73 0.76 4.39 4.39 0 0 0 -1 2.24 3.26 3.26 0 0 0 0.88 2.56 2.31 2.31 0 0 0 2.53 0.61l0 0.12a5.3 5.3 0 0 1 -0.41 0.78c-0.55 0.7 -0.62 0.48 -0.63 0.87a0.49 0.49 0 0 0 0.23 0.4 1.36 1.36 0 0 0 0.51 0.2 4.66 4.66 0 0 0 0.9 0c0.44 0 0.89 0 1.34 -0.06s0.61 -0.07 0.91 -0.12a6.57 6.57 0 0 0 1.29 -0.31 0.44 0.44 0 0 0 0.09 -0.35 2 2 0 0 0 -0.18 -0.59c-0.19 -0.4 -0.49 -0.77 -0.7 -1.17a3.65 3.65 0 0 0 0.5 0.13 1.94 1.94 0 0 0 0.48 0 2.63 2.63 0 0 0 2.26 -1.77 4.19 4.19 0 0 0 0 -2.88 3.3 3.3 0 0 0 -0.92 -1.19Zm0 3.81a1.87 1.87 0 0 1 -1.48 1.38 1 1 0 0 1 -0.3 0c-1.17 -0.12 -0.9 -0.28 -1.15 -0.23a0.31 0.31 0 0 0 -0.26 0.36 7.75 7.75 0 0 0 0.7 1.78l-0.54 0 -2.13 0.14h-0.27l0.06 -0.1a6.51 6.51 0 0 0 0.32 -0.94 7.6 7.6 0 0 0 0.19 -1 0.28 0.28 0 0 0 -0.22 -0.33 1.79 1.79 0 0 1 -2.48 -0.22 2.28 2.28 0 0 1 -0.48 -1.86 3.6 3.6 0 0 1 0.78 -1.72c0.65 -0.85 1.51 -1.53 2.21 -2.42a4.74 4.74 0 0 0 0.36 -0.58c0.18 -0.35 0.32 -0.73 0.47 -1.09a6.73 6.73 0 0 0 0.72 1.19 8.59 8.59 0 0 0 1.31 1.32 15.6 15.6 0 0 1 1.48 1.18 2.36 2.36 0 0 1 0.62 0.85 3.16 3.16 0 0 1 0.13 2.29Z" fill="#020202" stroke-width="1"></path>
    <path d="M22.81 3.62a4.4 4.4 0 0 0 -1.59 -1A9.35 9.35 0 0 0 20 2.33c-0.8 0 -0.86 0.53 -0.37 0.81a2 2 0 0 0 0.73 0.32 3.87 3.87 0 0 1 1.69 0.9 1.06 1.06 0 0 1 0.22 0.8C22.25 5.81 22 6.52 22 7c-0.09 0.84 -0.21 1.68 -0.32 2.52 -0.28 2 -0.59 4 -0.86 5.93l-1.13 8c-2 -0.09 -4 -0.3 -5.92 -0.56 -0.74 -0.1 -2.39 -0.56 -2.93 -0.54 -0.85 0 -0.89 0.73 0.07 0.93s2 0.35 2.8 0.43q3 0.28 6 0.31c0.82 -0.05 0.43 -0.12 1.92 -8.4 0.28 -1.69 0.62 -3.37 0.9 -5q0.28 -1.71 0.48 -3.42a11.3 11.3 0 0 0 0.32 -2.32 1.9 1.9 0 0 0 -0.52 -1.26Z" fill="#4C57E6" fill-rule="evenodd" stroke-width="1"></path>
  </g>
</svg>