<svg xmlns="http://www.w3.org/2000/svg" viewBox="0 0 24 24" id="Card-Game-Switch--Streamline-Freehand">
  <desc>
    Card Game Switch Streamline Icon: https://streamlinehq.com
  </desc>
  <title>card-game-switch</title>
  <g>
    <path d="M13.41 15.44a0.34 0.34 0 0 0 -0.37 -0.29l-4.45 0.2 -2.75 0.18 -1.84 0.04 -1.32 0c-1 -0.12 -0.54 -0.47 -0.58 -1.1l-0.14 -3.87 -0.15 -3.5c0 -1.16 -0.1 -2.33 -0.11 -3.5 0 -0.73 0 -1.46 0.07 -2.2 1.57 0 3.14 -0.12 4.72 -0.19l2.08 -0.09 1.73 0 1.94 0a1 1 0 0 0 0.3 0 2 2 0 0 1 0.08 0.22 5.2 5.2 0 0 1 0.13 0.84 5.57 5.57 0 0 0 0.15 0.82l0 0.54a0.34 0.34 0 0 0 0.67 0 5.51 5.51 0 0 0 0 -0.6c0 -0.23 0 -0.08 -0.08 -0.83a6.39 6.39 0 0 0 -0.07 -1 2 2 0 0 0 -0.26 -0.71 0.65 0.65 0 0 0 -0.31 -0.22 1.84 1.84 0 0 0 -0.61 0L10.35 0a22.64 22.64 0 0 0 -3.59 0.11C5 0.28 3.26 0.63 1.51 0.82a0.29 0.29 0 0 0 -0.27 0.32s-0.05 0.06 -0.05 0.09A23.45 23.45 0 0 0 1 3.59C1 4.76 1 5.93 0.91 7.1l-0.06 3.48 0 2c0 0.69 0 1.31 0.08 2a7.23 7.23 0 0 0 0.07 0.99 1.14 1.14 0 0 0 0.38 0.67 1.75 1.75 0 0 0 0.88 0.36 9.48 9.48 0 0 0 1.67 0l2 -0.12 2.74 -0.31 4.46 -0.39a0.34 0.34 0 0 0 0.28 -0.34Z" fill="#020202" fill-rule="evenodd" stroke-width="1"></path>
    <path d="M18.26 13.33a18.29 18.29 0 0 1 -1.68 1.19 0.33 0.33 0 0 0 0.32 0.58 14.65 14.65 0 0 0 2 -1A3.53 3.53 0 0 0 20 13a0.59 0.59 0 0 0 -0.11 -0.69 5.87 5.87 0 0 0 -0.55 -0.5l-2.12 -1.61a0.3 0.3 0 0 0 -0.42 0.05 0.29 0.29 0 0 0 0.05 0.41l1.38 1.54c-0.86 -0.11 -1.72 -0.2 -2.58 -0.23l-2.06 0c-0.69 0 -1.45 0.07 -2.17 0.12a12.68 12.68 0 0 0 -1.49 0.2 0.29 0.29 0 1 0 0.07 0.58 9.35 9.35 0 0 1 1.06 0c0.85 0 1.69 0.16 2.55 0.21l5.07 -0.15a5.75 5.75 0 0 1 -0.42 0.4Z" fill="#4C57E6" fill-rule="evenodd" stroke-width="1"></path>
    <path d="m11.37 7.42 1.57 -1.79a0.29 0.29 0 1 0 -0.4 -0.42l-2 1.59a3.64 3.64 0 0 0 -0.66 0.56 0.72 0.72 0 0 0 -0.17 0.64 1.67 1.67 0 0 0 0.65 0.91 5.88 5.88 0 0 0 1.13 0.63l1.64 0.72a0.33 0.33 0 0 0 0.29 -0.6l-1.48 -1a7.21 7.21 0 0 1 -0.72 -0.51c0.73 0 1.45 0.08 2.18 0.08 0.57 0 1.15 0 1.72 -0.09C16 8.12 16.83 8 17.7 8a0.33 0.33 0 0 0 0.3 -0.36 0.33 0.33 0 0 0 -0.33 -0.34c-0.85 -0.09 -1.69 -0.16 -2.55 -0.18h-1.05c-0.36 0 -0.72 0 -1.08 0.08 -0.55 0.05 -1.08 0.14 -1.62 0.22Z" fill="#4C57E6" fill-rule="evenodd" stroke-width="1"></path>
    <path d="M23.09 18.49c-0.05 -1 -0.1 -2.11 -0.16 -3.16s-0.15 -2.12 -0.26 -3.17l-0.26 -2.41a4.77 4.77 0 0 0 -0.08 -0.9 0.89 0.89 0 0 0 -0.3 -0.49 2.36 2.36 0 0 0 -0.75 -0.4 8.91 8.91 0 0 0 -1.11 -0.26 0.35 0.35 0 0 0 -0.4 0.26 0.34 0.34 0 0 0 0.26 0.4 7.5 7.5 0 0 1 1 0.26 1.83 1.83 0 0 1 0.53 0.29 0.4 0.4 0 0 1 0.07 0.29l0 0.6 0.18 2.43c0.06 0.84 0.09 1.67 0.12 2.51 0 1.26 0.07 2.52 0.08 3.78a13.31 13.31 0 0 1 -0.01 2.42 2.23 2.23 0 0 1 -0.49 1.23l-1 0 -2.27 0.15c-0.51 0.05 -1 0.1 -1.53 0.17 -0.92 0.14 -1.87 0.39 -2.81 0.5a6.34 6.34 0 0 1 -1.15 0.06 3.25 3.25 0 0 1 -0.57 -0.06c-0.11 0 -0.23 0 -0.29 -0.11a0.91 0.91 0 0 1 -0.09 -0.4l0 -0.95 -0.57 -4.07a0.31 0.31 0 0 0 -0.34 -0.25 0.29 0.29 0 0 0 -0.24 0.34c0.08 0.53 0.14 1.07 0.19 1.61 0.08 0.82 0.14 1.64 0.21 2.45 0 0.28 -0.05 0.72 0 1.08a1.5 1.5 0 0 0 0.18 0.63 1.07 1.07 0 0 0 0.48 0.4 3.15 3.15 0 0 0 1 0.21 8.06 8.06 0 0 0 1.3 0c1 -0.07 1.92 -0.28 2.86 -0.38l3.73 -0.26a7 7 0 0 0 1.09 0 1.23 1.23 0 0 0 0.69 -0.35 3.28 3.28 0 0 0 0.78 -1.83 14.35 14.35 0 0 0 -0.07 -2.62Z" fill="#020202" fill-rule="evenodd" stroke-width="1"></path>
  </g>
</svg>