<svg xmlns="http://www.w3.org/2000/svg" viewBox="0 0 24 24" id="Card-Game-Attack--Streamline-Freehand">
  <desc>
    Card Game Attack Streamline Icon: https://streamlinehq.com
  </desc>
  <title>card-game-attack</title>
  <g>
    <path d="M15.54 20.12a0.33 0.33 0 0 0 -0.33 0.32A19 19 0 0 1 15 23a10.66 10.66 0 0 1 -1.25 0.09c-1.17 0 -2.33 -0.17 -3.54 -0.13 -0.72 0 -1.44 0.06 -2.16 0.07l-1.41 0c-0.24 0 -0.48 0 -0.73 -0.07s-0.74 -0.12 -1.11 -0.19l-1 -0.25c-0.64 -0.21 -1 -0.46 -1.11 -0.86a11 11 0 0 1 -0.14 -2.73l0 -2.53V12l0.1 -7.42c1.16 0 2.29 0.12 3.44 0.22l2.29 0.2c1.33 0.09 2.65 0.12 4 0.16a0.33 0.33 0 0 0 0.35 -0.3 0.33 0.33 0 0 0 -0.3 -0.35c-1.2 -0.19 -2.37 -0.41 -3.56 -0.51 -0.79 -0.1 -1.59 -0.19 -2.4 -0.22 -0.09 0 -4.44 0 -4.46 0.46L1.59 12l-0.17 4.38v2.52a11.36 11.36 0 0 0 0.2 3.1 2.48 2.48 0 0 0 1.8 1.52l1.14 0.27 1 0.15a8.74 8.74 0 0 0 1 0.07l1.48 0c0.72 0 1.44 -0.09 2.16 -0.14 1.2 -0.07 2.35 0.06 3.52 0a8.49 8.49 0 0 0 1.57 -0.18 0.68 0.68 0 0 0 0.38 -0.56 22.06 22.06 0 0 0 0.19 -2.64 0.33 0.33 0 0 0 -0.32 -0.37Z" fill="#020202" fill-rule="evenodd" stroke-width="1"></path>
    <path d="M22.25 13c-1.77 0 -1.57 0.09 -1.54 -0.25 0.25 -1.9 0.52 -3.82 0.69 -5.75 0.08 -0.77 0.13 -1.54 0.17 -2.31l0 -1.54a0.62 0.62 0 0 0 -0.12 -0.39 5.62 5.62 0 0 0 -0.64 -0.57c-0.47 -0.46 -0.94 -0.9 -1.44 -1.31a10.29 10.29 0 0 0 -1.01 -0.83 0.27 0.27 0 0 0 -0.33 0 0.3 0.3 0 0 0 -0.21 0.08c-0.37 0.33 -0.73 0.67 -1.07 1s-0.69 0.7 -1 1.07c-0.17 0.19 -0.37 0.37 -0.53 0.57a1.76 1.76 0 0 0 -0.23 0.37 4.2 4.2 0 0 0 -0.32 1.54 16.24 16.24 0 0 0 0.18 2.13c0.11 0.8 0.23 1.59 0.36 2.38 0.2 1.18 0.42 2.36 0.65 3.53 -0.6 0 -1.19 0 -1.78 0.06a0.28 0.28 0 0 0 -0.29 0.28 0.28 0.28 0 0 0 0.28 0.29c0.81 0.08 1.61 0.22 2.41 0.34l0 3.27 0 0.94a2 2 0 0 0 0.24 0.75 1.55 1.55 0 0 0 1.63 0.78 2 2 0 0 0 1.41 -1 4.77 4.77 0 0 0 0.49 -2 19.61 19.61 0 0 0 -0.15 -2.68l2.17 -0.28a0.33 0.33 0 0 0 0 -0.65Zm-6.32 -6.26c-0.07 -0.63 -0.18 -1.33 -0.19 -2a3.54 3.54 0 0 1 0.15 -1.18 0.94 0.94 0 0 1 0.11 -0.27c0.12 -0.17 0.27 -0.34 0.39 -0.51 0.27 -0.39 0.56 -0.77 0.86 -1.14s0.57 -0.68 0.88 -1c0.27 0.23 0.54 0.47 0.79 0.72 0.44 0.44 0.84 0.92 1.25 1.4 0.57 0.7 0.43 0.37 0.28 1.83 -0.07 0.76 -0.11 1.53 -0.16 2.3 -0.1 1.93 -0.15 3.86 -0.26 5.77 0 0.38 0.05 0.31 -0.67 0.29 -0.31 0 -0.61 0 -0.92 -0.06 0.05 -0.86 0.11 -1.71 0.15 -2.57l0 -1.16 0 -1.17c0 -0.92 -0.13 -1.82 -0.19 -2.73a0.29 0.29 0 1 0 -0.57 0c-0.1 0.92 -0.23 1.82 -0.29 2.74l0 1.17 0 1.18c0.05 0.84 0.13 1.68 0.2 2.52l-1 0h-0.32l0 -0.13Zm3.42 9.75a3.87 3.87 0 0 1 -0.52 1.51 0.87 0.87 0 0 1 -0.64 0.41 0.5 0.5 0 0 1 -0.54 -0.24 1 1 0 0 1 -0.13 -0.37 8.34 8.34 0 0 1 -0.1 -0.84l-0.31 -3.1h0.11a17.35 17.35 0 0 0 2.16 0.1h0.05a21.35 21.35 0 0 1 -0.08 2.53Z" fill="#020202" fill-rule="evenodd" stroke-width="1"></path>
    <path d="M5.55 7.07c0.37 0 0.77 0.16 1 0.18s0.69 0 1.15 0l4.47 0a0.29 0.29 0 1 0 0.05 -0.57c-0.84 -0.09 -2.53 -0.15 -3.93 -0.24 -0.66 -0.05 -1.24 -0.1 -1.63 -0.16s-0.9 -0.21 -1.33 -0.28a1.19 1.19 0 0 0 -0.56 0.08 1 1 0 0 0 -0.47 0.65 7.12 7.12 0 0 0 -0.12 1.6c0 0.4 0 0.8 0.05 1.19 0.08 0.89 0.22 1.76 0.29 2.66l0 1.13a1.88 1.88 0 0 0 0.16 0.66 0.53 0.53 0 0 0 0.35 0.28c0.12 0 0.43 0.07 0.48 0.08l1.34 0.1 2.63 0 2.63 0a0.33 0.33 0 1 0 0 -0.65c-0.76 0 -1.68 -0.06 -2.6 -0.12s-1.84 -0.12 -2.6 -0.19l-1.25 -0.16 -0.11 0v-0.21l0 -1c-0.06 -0.89 -0.18 -1.77 -0.26 -2.66 0 -0.37 -0.06 -0.74 -0.06 -1.11 0.01 -1.33 -0.3 -1.33 0.32 -1.26Z" fill="#020202" fill-rule="evenodd" stroke-width="1"></path>
    <path d="M12.73 17.8a0.33 0.33 0 0 0 -0.36 -0.3c-0.82 0 -1.62 -0.1 -2.43 -0.17 -0.54 0 -1.08 -0.1 -1.63 -0.12 -0.92 0 -1.84 0 -2.78 0.07a0.29 0.29 0 1 0 0 0.58c0.8 0.1 1.58 0.27 2.38 0.39 0.34 0 0.68 0.08 1 0.1s0.7 0 1.05 0a17.16 17.16 0 0 0 2.46 -0.22 0.33 0.33 0 0 0 0.31 -0.33Z" fill="#4C57E6" fill-rule="evenodd" stroke-width="1"></path>
    <path d="M12.11 20.22A22.74 22.74 0 0 1 9.78 20c-0.53 -0.06 -1.06 -0.13 -1.59 -0.15a12.48 12.48 0 0 0 -2.72 0.15 0.29 0.29 0 0 0 0 0.57 20.25 20.25 0 0 1 2.33 0.26c0.52 0.07 1.05 0.12 1.58 0.15a15.5 15.5 0 0 0 2.72 -0.13 0.33 0.33 0 0 0 0 -0.65Z" fill="#4C57E6" fill-rule="evenodd" stroke-width="1"></path>
  </g>
</svg>