<svg xmlns="http://www.w3.org/2000/svg" viewBox="0 0 24 24" id="Cash-Payment-Receive-Bag--Streamline-Freehand">
  <desc>
    Cash Payment Receive Bag Streamline Icon: https://streamlinehq.com
  </desc>
  <g>
    <path d="M13.38 11.48a6.14 6.14 0 0 0 -2 -0.22 2.26 2.26 0 0 1 -0.53 -0.09l0.18 -0.29a1.36 1.36 0 0 1 1 -0.48 2.23 2.23 0 0 1 1.25 0.4 0.33 0.33 0 0 0 0.46 -0.06 0.32 0.32 0 0 0 -0.05 -0.46 3 3 0 0 0 -1.5 -0.7 0.46 0.46 0 0 0 0.1 -0.21 0.3 0.3 0 0 0 0 -0.16s-0.32 -0.74 -0.55 -0.76 -0.62 0.63 -0.65 0.71a0.34 0.34 0 0 0 0 0.18 0.58 0.58 0 0 0 0 0.18 0.6 0.6 0 0 0 0.06 0.11 2.38 2.38 0 0 0 -0.88 0.48 2.27 2.27 0 0 0 -0.44 0.49 1.23 1.23 0 0 0 -0.18 0.61 1 1 0 0 0 0.37 0.8 2.39 2.39 0 0 0 1.22 0.5 13.86 13.86 0 0 1 1.45 0.05c0.12 0 0.24 0.07 0.28 0.22s0 0.19 -0.1 0.25a1.5 1.5 0 0 1 -0.4 0.25 2.61 2.61 0 0 1 -1.06 0.2 1.78 1.78 0 0 1 -1 -0.39 0.38 0.38 0 0 0 -0.53 0 0.37 0.37 0 0 0 0 0.53 2.6 2.6 0 0 0 1.35 0.68 0.42 0.42 0 0 0 0 0.16 0.83 0.83 0 0 0 0.06 0.21c0.37 0.87 0.62 0.78 0.7 0.77 0.38 -0.05 0.49 -1.08 0.49 -1.1a0.3 0.3 0 0 0 0 -0.1l0.25 0a2.14 2.14 0 0 0 1.1 -0.68 1.27 1.27 0 0 0 0.22 -1.13 1.41 1.41 0 0 0 -0.67 -0.95Z" fill="#020202" fill-rule="evenodd" stroke-width="1"></path>
    <path d="M23.83 12a1.19 1.19 0 0 0 -1.54 -0.64 7.48 7.48 0 0 0 0.25 -1.49 7 7 0 0 0 -0.25 -2.27A1.89 1.89 0 0 0 21 6.48a1.2 1.2 0 0 0 -1.28 0.52s0 0.06 0 0.08A1.31 1.31 0 0 0 18.34 7a1.4 1.4 0 0 0 -0.32 0.28 2 2 0 0 0 -0.2 -0.22 1 1 0 0 0 -0.33 -0.06 0.66 0.66 0 0 0 -0.24 0c-0.74 0.07 -1.32 0.51 -1.1 0.91 0.14 0.24 0.13 0.1 0.92 0.29a2.45 2.45 0 0 0 0.29 0.08 1.38 1.38 0 0 0 0.29 0 4 4 0 0 0 0 0.72l0 0.48a0.37 0.37 0 0 0 0.33 0.41 0.38 0.38 0 0 0 0.42 -0.32l0.1 -0.57a4.81 4.81 0 0 1 0.34 -0.73A1.43 1.43 0 0 1 19 8.1s0 0 0.06 -0.07a0.81 0.81 0 0 1 0.4 0l0 0.9c0 0.65 0 1.28 -0.1 1.92 0 0.43 -0.07 0.85 -0.12 1.28a0.37 0.37 0 0 0 0.3 0.43 0.39 0.39 0 0 0 0.44 -0.31c0.12 -0.53 0.23 -1.07 0.33 -1.6s0.19 -1.08 0.27 -1.62c0 -0.22 0 -0.52 0.07 -0.81a0.77 0.77 0 0 1 0.1 -0.42c0 -0.06 0.1 0 0.16 0a0.6 0.6 0 0 1 0.24 0.26 5.51 5.51 0 0 1 0.45 1.86 7.35 7.35 0 0 1 -0.1 2l-0.25 0.2c-1 1 -2.26 2.73 -2.62 3.14a0.37 0.37 0 1 0 0.54 0.51c0.3 -0.28 1.22 -1.33 2.1 -2.19a4.25 4.25 0 0 1 1.31 -1.07c0.25 -0.06 0.21 0.21 0.21 0.44a3.89 3.89 0 0 1 -0.28 1.39 11.65 11.65 0 0 1 -1.61 2.89 17.92 17.92 0 0 1 -2.26 2.53 0.34 0.34 0 0 0 -0.05 0.47 0.33 0.33 0 0 0 0.47 0 16.54 16.54 0 0 0 3.1 -2.95 12.05 12.05 0 0 0 1.52 -2.49 4.48 4.48 0 0 0 0.15 -2.79Z" fill="#020202" fill-rule="evenodd" stroke-width="1"></path>
    <path d="M6.34 9a3.58 3.58 0 0 0 -0.06 -1 0.58 0.58 0 0 0 0.19 0c0.94 0 0.92 0 1 -0.16 0.28 -0.36 -0.29 -0.89 -0.84 -1.08a0.59 0.59 0 0 0 -0.26 0 1 1 0 0 0 -0.38 0.1 1.59 1.59 0 0 0 -0.24 0.2A1.17 1.17 0 0 0 4.32 7s0 -0.07 0 -0.09A1.2 1.2 0 0 0 3 6.38a1.89 1.89 0 0 0 -1.29 1.14 7 7 0 0 0 -0.25 2.27 7.48 7.48 0 0 0 0.25 1.49 1.19 1.19 0 0 0 -1.54 0.64 4.48 4.48 0 0 0 0.17 2.81 12.05 12.05 0 0 0 1.52 2.49 16.54 16.54 0 0 0 3.1 3 0.33 0.33 0 0 0 0.47 0 0.34 0.34 0 0 0 0 -0.47 17.38 17.38 0 0 1 -2.26 -2.53 11.65 11.65 0 0 1 -1.61 -2.89 3.89 3.89 0 0 1 -0.28 -1.39c0 -0.23 0 -0.5 0.21 -0.44a4.25 4.25 0 0 1 1.31 1.07c0.88 0.86 1.8 1.91 2.1 2.19a0.37 0.37 0 1 0 0.54 -0.51C5 14.75 3.73 13 2.77 12l-0.25 -0.2a7.35 7.35 0 0 1 -0.1 -2 5.51 5.51 0 0 1 0.45 -1.86 0.6 0.6 0 0 1 0.24 -0.26c0.06 0 0.12 -0.08 0.16 0a0.77 0.77 0 0 1 0.1 0.42c0 0.29 0 0.59 0.07 0.81q0.12 0.81 0.27 1.62c0.1 0.53 0.21 1.07 0.33 1.6a0.39 0.39 0 0 0 0.44 0.31 0.37 0.37 0 0 0 0.3 -0.43c0 -0.43 -0.09 -0.85 -0.12 -1.28 -0.06 -0.64 -0.08 -1.27 -0.1 -1.92l0 -0.89c0.29 -0.07 0.3 -0.1 0.51 0.3a6 6 0 0 1 0.37 0.91l0.13 0.51A0.37 0.37 0 0 0 6 10a0.38 0.38 0 0 0 0.34 -0.41Z" fill="#020202" fill-rule="evenodd" stroke-width="1"></path>
    <path d="M14.77 17.58c-0.38 -0.12 -0.95 1.05 -1 1.07a3.31 3.31 0 0 0 -0.14 0.41 3.42 3.42 0 0 0 0 0.44c0 1.43 0.34 1.42 0.47 1.43s0.32 -0.09 0.7 -1.24a4.31 4.31 0 0 0 0.2 -0.59c0.18 -1.54 -0.2 -1.51 -0.23 -1.52Z" fill="#020202" fill-rule="evenodd" stroke-width="1"></path>
    <path d="M9.41 19a3.23 3.23 0 0 0 0.16 0.59c0.37 1.15 0.43 1.25 0.69 1.24s0.51 0 0.48 -1.43a2.28 2.28 0 0 0 -0.05 -0.44 2.16 2.16 0 0 0 -0.13 -0.41 1.4 1.4 0 0 0 -0.18 -0.32c-0.23 -0.29 -1 -0.29 -1 0.08a2.6 2.6 0 0 0 0.03 0.69Z" fill="#020202" fill-rule="evenodd" stroke-width="1"></path>
    <path d="M17.77 11.55A8.09 8.09 0 0 0 17 9.89a8.71 8.71 0 0 0 -1.31 -1.74 7.16 7.16 0 0 0 -1.38 -1.05 3.84 3.84 0 0 0 0.52 -0.9 3.93 3.93 0 0 0 0.22 -1.39 3.57 3.57 0 0 0 -0.14 -0.95 0.59 0.59 0 0 0 -0.33 -0.32 0.57 0.57 0 0 0 -0.58 0.16 1.86 1.86 0 0 0 -0.25 0.26c-0.19 0.17 -0.4 0.37 -0.62 0.54l-0.66 -0.88s-0.22 -0.27 -0.3 -0.35a0.67 0.67 0 0 0 -0.76 -0.14 0.79 0.79 0 0 0 -0.29 0.24 3.54 3.54 0 0 0 -0.23 0.39l-0.49 0.79a0.43 0.43 0 0 0 -0.15 -0.06c-0.41 -0.07 -0.87 -0.31 -1.3 -0.42A2.41 2.41 0 0 0 8.51 4s-0.58 0.07 -0.58 0.56l0 0.78a4.76 4.76 0 0 0 0.38 1.4 5.33 5.33 0 0 0 0.54 0.88 4.83 4.83 0 0 0 -0.85 0.71A6.94 6.94 0 0 0 6.91 9.9a5 5 0 0 0 -0.48 1.32 7.88 7.88 0 0 0 -0.17 1.4A5.39 5.39 0 0 0 11.92 18a8 8 0 0 0 4.45 -1.69A4.43 4.43 0 0 0 18 13.46a4.72 4.72 0 0 0 -0.23 -1.91Zm-0.88 1.75a3.62 3.62 0 0 1 -1.83 2.5 7.17 7.17 0 0 1 -3.24 1 4 4 0 0 1 -3.1 -1.12 4.36 4.36 0 0 1 -1.46 -3 6.11 6.11 0 0 1 0.07 -1.22 4.55 4.55 0 0 1 0.34 -1.13 5.94 5.94 0 0 1 0.87 -1.44s1.31 -0.94 0.93 -1.56a4.19 4.19 0 0 1 -0.39 -0.83 3.48 3.48 0 0 1 -0.19 -1.16v-0.13l1.1 0.45s0.4 0.13 0.54 0.16a0.67 0.67 0 0 0 0.62 -0.2l0.3 -0.38c0.11 -0.16 0.21 -0.33 0.3 -0.49l0.46 0.57s0.19 0.25 0.27 0.32a0.66 0.66 0 0 0 0.61 0.18 2.31 2.31 0 0 0 0.73 -0.41l0.28 -0.27A3.2 3.2 0 0 1 14 6a2.8 2.8 0 0 1 -0.46 1s-0.07 0 -0.09 0.07a0.38 0.38 0 0 0 0.14 0.51A6.31 6.31 0 0 1 15.1 8.8a7.78 7.78 0 0 1 1.11 1.61 6.42 6.42 0 0 1 0.58 1.48 3.94 3.94 0 0 1 0.1 1.41Z" fill="#4C57E6" fill-rule="evenodd" stroke-width="1"></path>
  </g>
</svg>