<svg xmlns="http://www.w3.org/2000/svg" viewBox="0 0 24 24" id="Cash-Payment-Bag--Streamline-Freehand">
  <desc>
    Cash Payment Bag Streamline Icon: https://streamlinehq.com
  </desc>
  <g>
    <path d="M23.87 9.91a12.51 12.51 0 0 0 -2.36 -4.74 0.35 0.35 0 1 0 -0.51 0.43 11.76 11.76 0 0 1 2 4.4c0.24 2.09 -1.59 4.09 -5.31 3.78 -2.35 -0.17 -4.79 -1.79 -4.39 -4a8.68 8.68 0 0 1 2.26 -3.87 0.3 0.3 0 0 0 -0.43 -0.43 9.55 9.55 0 0 0 -2.73 4.16c-0.9 3.82 4.27 6.36 8.28 5a4.31 4.31 0 0 0 3.19 -4.73Z" fill="#4C57E6" fill-rule="evenodd" stroke-width="1"></path>
    <path d="M16.14 4.34a6.86 6.86 0 0 0 2.7 0.62 10.53 10.53 0 0 0 1.3 -0.12 0.34 0.34 0 0 0 0 -0.69 6.53 6.53 0 0 0 -3.55 -0.23c-2.17 -2.54 0 -3.12 0.77 -1.8 0.37 0.59 0.82 1.35 1.36 0.79S20.51 1.05 21.38 1c0.35 0 0.45 0.23 0.47 0.5a6.62 6.62 0 0 1 -0.64 2.42 0.38 0.38 0 0 0 0.66 0.29c0.34 -0.36 2 -4.13 -0.49 -4.23a5 5 0 0 0 -3 1.58c-1.66 -2.2 -3.93 -0.89 -3.57 0.71a5.12 5.12 0 0 0 1.33 2.07Z" fill="#4C57E6" fill-rule="evenodd" stroke-width="1"></path>
    <path d="M18 17.92a1.86 1.86 0 0 0 -2.59 -2.14A8.92 8.92 0 0 0 13 17.71c-0.42 0.38 -1.87 1.56 -1.9 1.59a5.93 5.93 0 0 1 -2 -0.42c-0.2 -0.09 -0.39 -0.05 0 -0.58 1.21 -1.83 2.7 -2.42 1.64 -4.23 -0.82 -1.4 -3 -0.14 -4.28 0.86a5.6 5.6 0 0 1 -1.67 1.13c-1.07 0.24 -4.18 0 -4.49 0.18a0.34 0.34 0 0 0 -0.13 0.47c0.15 0.25 0.42 0.15 0.61 0.15 2.83 0 3.88 0.28 4.91 -0.31a14.38 14.38 0 0 1 3.3 -2.06c0.39 -0.13 0.76 -0.25 0.92 0a1 1 0 0 1 0.16 0.86c-0.36 1 -3 2.66 -2 4a3.86 3.86 0 0 0 1.88 0.88 10.71 10.71 0 0 0 4.57 -0.23c3.06 -0.8 3.37 -1.28 3.72 -0.55 0.15 0.31 -0.06 0.59 -0.3 0.85C14 24.62 6 22.39 5.79 22.42c-1 0.17 -3.74 0.71 -4.69 1a0.31 0.31 0 0 0 0.16 0.59c1 -0.25 3.58 -0.67 4.57 -0.82 3.6 1 8.49 1.18 11.61 -1 1.15 -0.83 2.48 -1.88 1.85 -3.22A1.55 1.55 0 0 0 18 17.92Zm-5.24 1.23c-0.42 0.06 -0.21 0.09 0.91 -0.63s2.24 -2.14 3 -1.81a1.11 1.11 0 0 1 0.6 1.3 43.1 43.1 0 0 1 -4.56 1.14Z" fill="#020202" fill-rule="evenodd" stroke-width="1"></path>
    <path d="M20.41 11.3a1 1 0 0 0 0.17 -1.3C20 9.11 18 9 17.48 8.5c0 -0.05 -0.13 -0.23 -0.21 -0.24 0.2 -0.63 2 -0.88 2.11 -0.58a0.32 0.32 0 0 0 0.38 0.21c0.43 -0.13 0.27 -0.93 -1 -1.06a1.05 1.05 0 0 0 -0.53 -1.27 0.89 0.89 0 0 0 -0.23 1.32c-1.52 0.31 -2 1.27 -1.65 1.91a2.63 2.63 0 0 0 0.36 0.46c0.64 0.77 1.86 0.8 2.59 1.19 0.47 0.24 0.75 0 0 0.33 -0.62 0.28 -2.15 0.65 -2.29 0a0.35 0.35 0 0 0 -0.68 0.13c0.13 0.72 0.78 1 1.51 1 -0.18 0.34 0.16 1.27 0.51 1.27s0.72 -0.9 0.45 -1.33a4 4 0 0 0 1.61 -0.54Z" fill="#020202" fill-rule="evenodd" stroke-width="1"></path>
  </g>
</svg>