<svg xmlns="http://www.w3.org/2000/svg" viewBox="0 0 24 24" id="Cash-Payment-Bills--Streamline-Freehand">
  <desc>
    Cash Payment Bills Streamline Icon: https://streamlinehq.com
  </desc>
  <g>
    <path d="M9 5.64Z" fill="#020202" fill-rule="evenodd" stroke-width="1"></path>
    <path d="M21 4.72a2.39 2.39 0 0 0 -1.35 -1.48 6.76 6.76 0 0 0 -2.65 -0.5 3.05 3.05 0 0 0 -0.08 -0.82 3.09 3.09 0 0 0 -0.16 -1.23c-0.5 -1.16 -2.28 -0.53 -3.31 -0.42 -1.78 0.2 -6.26 0.23 -8.34 1.52a1.08 1.08 0 0 0 -0.43 1.09c0.15 1.6 1.5 4.9 2 6.39 0.24 0.39 0.84 0.16 0.63 -0.39a50.66 50.66 0 0 1 -1.38 -4.94c0 -0.21 -0.21 -1 -0.21 -1.19 0.11 0 1 -0.5 7.85 -1.57 0.37 -0.06 1 -0.25 1.54 -0.33 1.38 -0.2 1 0.3 1.1 1.9a11.72 11.72 0 0 0 -4.75 1C9.6 4.71 9.07 4.82 9 5.63c0 0 0.05 0.32 0.43 5.29a2.23 2.23 0 0 0 0.13 0.86 0.28 0.28 0 0 0 0.39 0.12c0.22 -0.11 0.13 -0.26 0.08 -1.05L10 8.72c1.39 0.38 3.64 -2 3.29 -4.5a11.73 11.73 0 0 1 2.94 -0.37 1.65 1.65 0 0 0 0.07 0.26 6.51 6.51 0 0 0 2.15 3.56 1.63 1.63 0 0 0 1.24 0.33 3.37 3.37 0 0 1 -0.18 0.85c0 0.07 -0.69 2.18 -0.76 2.35 -0.23 0.61 -0.39 0.92 -0.54 1.26 -0.33 0.55 0.29 0.82 0.56 0.42a24.46 24.46 0 0 0 1.55 -3.77 13.6 13.6 0 0 0 0.52 -2.73A5.46 5.46 0 0 0 21 4.72ZM10.38 8.06a0.56 0.56 0 0 1 -0.39 0s0 0.06 -0.09 -2.23c0 -0.47 2.41 -1.35 2.67 -1.43a6.55 6.55 0 0 1 -2.19 3.66Zm9.51 -1.78 -0.12 1c-0.59 0.1 -0.76 -0.27 -2.85 -3.49a4.62 4.62 0 0 1 2.72 0.6c0.69 0.53 0.36 0.9 0.25 1.89Z" fill="#4C57E6" fill-rule="evenodd" stroke-width="1"></path>
    <path d="M17.93 13.12a2.54 2.54 0 0 0 -1.8 0c-1.3 0.42 -1.77 1.29 -4.34 1.31 -0.55 0 -1.95 0.06 -2.17 -0.44a21.8 21.8 0 0 0 -1.71 -3.42A1.14 1.14 0 0 0 7 10c-2 -0.32 -1.65 2.57 -1.76 3.83 0 0.15 -0.1 0.28 -0.07 0.34a13.28 13.28 0 0 1 -1.89 0.18 0.29 0.29 0 0 0 0 0.58 15.33 15.33 0 0 0 2.11 -0.12c1.22 -0.15 0 -4.41 1.66 -3.87 0.43 0.14 1.49 3.17 1.72 3.69 0.16 0.35 0.34 0.66 0.68 0.72 5.69 0.9 6.08 -1.52 7.9 -1.4 1.11 0.08 1.44 1.8 0.78 2.55a1.81 1.81 0 0 1 -0.94 0.35 17.18 17.18 0 0 1 -2.58 0.33 0.33 0.33 0 0 0 0 0.66 19.91 19.91 0 0 0 3 -0.29s0 0.09 0 0.1a1 1 0 0 1 0 0.39 1.36 1.36 0 0 1 -0.47 1.06 3.76 3.76 0 0 1 -2 0.82c-1.79 0.23 -2.14 -0.33 -2.25 0.23a0.27 0.27 0 0 0 0.11 0.27 6.57 6.57 0 0 0 2.42 0.49 3.85 3.85 0 0 0 0.9 -0.15l0.24 -0.1a1.62 1.62 0 0 1 -0.37 0.87c-1.37 1.75 -3.79 1.55 -5.95 1L8.78 22c-0.25 -0.08 -0.67 -0.39 -1.08 -0.25 -1 0.37 -0.82 0.48 -3.54 1.7a0.29 0.29 0 0 0 0 0.58 20.26 20.26 0 0 0 3.1 -1.13c0.89 -0.38 0.56 -0.21 2.11 0.46a9.63 9.63 0 0 0 4.69 0.52 4.39 4.39 0 0 0 2.94 -2 3 3 0 0 0 0.39 -1.62 3.78 3.78 0 0 0 0.33 -0.22 2.27 2.27 0 0 0 0.7 -2.17 1.45 1.45 0 0 0 -0.18 -0.53c1.24 -0.56 1.44 -2.76 0.32 -3.83a2.37 2.37 0 0 0 -0.63 -0.39Z" fill="#020202" fill-rule="evenodd" stroke-width="1"></path>
    <path d="M17 10.15c-0.18 -0.87 -0.64 -1.67 -1.5 -1.66a1.36 1.36 0 0 0 -0.75 0.43c-0.73 0.61 -0.75 1.76 -1.12 2.46 -0.23 0.45 0 0.7 -0.32 0s-0.62 -2 0 -2.17a0.34 0.34 0 0 0 0.26 -0.39c-0.1 -0.52 -1.29 -0.31 -1.36 1.17 -0.33 -0.16 -1.21 0.16 -1.21 0.49s0.85 0.68 1.26 0.43a5.42 5.42 0 0 0 0.19 0.81c0.18 0.54 0.37 1 0.9 1.08s1 -0.36 1.26 -0.88 0.53 -1.86 0.87 -2.2c0.05 0 0.22 -0.12 0.23 -0.2 0.59 0.19 0.83 1.9 0.55 2a0.29 0.29 0 0 0 0.16 0.56c0.43 -0.11 0.6 -0.67 0.65 -1.1a1 1 0 0 0 1.2 -0.5 0.83 0.83 0 0 0 -1.27 -0.33Z" fill="#020202" fill-rule="evenodd" stroke-width="1"></path>
  </g>
</svg>