<svg xmlns="http://www.w3.org/2000/svg" viewBox="0 0 24 24" id="Casino-Asset-Diamond-Hand--Streamline-Freehand">
  <desc>
    Casino Asset Diamond Hand Streamline Icon: https://streamlinehq.com
  </desc>
  <title>casino-asset-diamond-hand</title>
  <g>
    <path d="M8.78 17a3.69 3.69 0 0 0 -1.32 -1A1.77 1.77 0 0 0 6 15.9l0 -2.16a5.92 5.92 0 0 0 -0.57 -2.44 1.89 1.89 0 0 0 -1.11 -1 1.55 1.55 0 0 0 -1.45 0.55 3.76 3.76 0 0 0 -0.84 1.82 21.75 21.75 0 0 0 -0.21 4.1 7.31 7.31 0 0 0 0.74 3.07 18 18 0 0 0 2.59 3.72 0.29 0.29 0 0 0 0.42 0.06 0.29 0.29 0 0 0 0 -0.41 18 18 0 0 1 -2.25 -3.72 6.56 6.56 0 0 1 -0.47 -2.71A28.69 28.69 0 0 1 3 13.42a3.27 3.27 0 0 1 0.61 -1.81c0.17 -0.19 0.3 -0.32 0.45 -0.29s0.33 0.21 0.48 0.45a4.66 4.66 0 0 1 0.56 2A24.16 24.16 0 0 1 5.27 17a2.5 2.5 0 0 0 0.18 1.39 2.77 2.77 0 0 0 0.29 0.54 8 8 0 0 0 0.5 0.69 0.33 0.33 0 0 0 0.55 -0.38 6.82 6.82 0 0 1 -0.41 -0.68 2.17 2.17 0 0 1 -0.19 -0.44 1.4 1.4 0 0 1 0 -1.17c0.14 -0.22 0.41 -0.21 0.77 0a2.8 2.8 0 0 1 0.89 0.77 4.19 4.19 0 0 1 0.62 1.08 4.9 4.9 0 0 1 0.24 1.82c0 1.1 -0.18 2.26 -0.21 3.06a0.29 0.29 0 0 0 0.26 0.32 0.3 0.3 0 0 0 0.33 -0.26c0.14 -0.94 0.53 -2.34 0.61 -3.6a5 5 0 0 0 -0.18 -1.72A4.83 4.83 0 0 0 8.78 17Z" fill="#020202" fill-rule="evenodd" stroke-width="1"></path>
    <path d="M22.09 13.79c0 -0.41 0 -0.85 -0.09 -1.27a3.69 3.69 0 0 0 -0.25 -0.92 2.36 2.36 0 0 0 -1.45 -1.32 1.35 1.35 0 0 0 -1.41 0.49 2.42 2.42 0 0 0 -0.44 0.82 4.66 4.66 0 0 0 -0.17 1.22 6.14 6.14 0 0 0 0 0.86c0.05 0.78 0.2 1.54 0.28 2.31l-0.14 -0.11a1.85 1.85 0 0 0 -1.73 0 3.06 3.06 0 0 0 -0.83 0.67 6.56 6.56 0 0 0 -0.82 1.17 4.11 4.11 0 0 0 -0.41 1 5.32 5.32 0 0 0 -0.16 1.06 14.6 14.6 0 0 0 0 1.62c0.07 0.8 0.19 1.59 0.32 2.36a0.29 0.29 0 0 0 0.32 0.26 0.29 0.29 0 0 0 0.26 -0.32c0 -0.64 -0.07 -1.29 -0.07 -1.94a13.14 13.14 0 0 1 0.14 -1.89 4.68 4.68 0 0 1 0.2 -0.84 3.12 3.12 0 0 1 0.34 -0.77 7.2 7.2 0 0 1 0.56 -0.84 2.34 2.34 0 0 1 0.63 -0.59 0.79 0.79 0 0 1 0.74 -0.06 0.63 0.63 0 0 1 0.37 0.59 2.42 2.42 0 0 1 -0.28 1 3.8 3.8 0 0 1 -0.69 0.94 0.34 0.34 0 0 0 0 0.48 0.33 0.33 0 0 0 0.47 0 4.59 4.59 0 0 0 0.91 -1 3.22 3.22 0 0 0 0.48 -1.37 1.48 1.48 0 0 0 0 -0.3 0.44 0.44 0 0 0 0.09 -0.18c0.07 -1.1 -0.14 -2.2 -0.17 -3.3l0 -0.76a4.8 4.8 0 0 1 0.21 -0.86 1.51 1.51 0 0 1 0.33 -0.61 0.41 0.41 0 0 1 0.54 -0.09 1.38 1.38 0 0 1 0.56 0.68 2.89 2.89 0 0 1 0.16 0.66c0.05 0.39 0.05 0.79 0.07 1.18 0.05 0.79 0.08 1.59 0.1 2.39l0 1.58a10 10 0 0 1 -0.11 1.43 4.36 4.36 0 0 1 -0.22 0.88 5.56 5.56 0 0 1 -0.81 1.35c-0.54 0.68 -1.18 1.31 -1.66 1.94a0.29 0.29 0 0 0 0 0.42 0.3 0.3 0 0 0 0.41 0c0.62 -0.7 1.43 -1.4 2.07 -2.18a5.53 5.53 0 0 0 0.75 -1.15 5.27 5.27 0 0 0 0.34 -1 10.33 10.33 0 0 0 0.22 -1.55c0.06 -0.68 0.09 -1.37 0.09 -2.06s-0.01 -1.4 -0.05 -2.08Z" fill="#020202" fill-rule="evenodd" stroke-width="1"></path>
    <path d="M13.61 4.23c0.8 -0.85 1.54 -2 2.23 -2.84a0.35 0.35 0 0 0 -0.6 -0.25c-0.64 0.66 -1.36 1.44 -2 2.16a4.26 4.26 0 0 1 -1.36 1 1.3 1.3 0 0 0 -0.15 -0.23 1.63 1.63 0 0 0 -0.4 -0.39L8.31 2c-0.36 -0.15 -0.92 0 -0.76 0.21l3.11 2.22a1.09 1.09 0 0 1 0.18 0.19c0.87 0.79 1.7 0.48 2.51 -0.2a2.85 2.85 0 0 0 0.26 -0.19Z" fill="#4C57E6" fill-rule="evenodd" stroke-width="1"></path>
    <path d="m20 5.38 -2.68 -3.83c-0.1 -0.13 -0.48 -0.8 -0.76 -1.16A1 1 0 0 0 16 0a3.41 3.41 0 0 0 -0.78 0c-0.51 0.06 -1 0.21 -1.51 0.26 -0.93 0.11 -1.84 0.17 -2.76 0.28 -0.41 0 -0.81 0.1 -1.21 0.17 -0.62 0.12 -1.32 0.12 -1.95 0.29a3.3 3.3 0 0 0 -0.9 0.31 0.84 0.84 0 0 0 -0.31 0.29c-0.15 0.22 -0.28 0.6 -0.37 0.76 -0.34 0.62 -0.66 1.23 -1 1.86s-0.62 1.24 -0.91 1.9 4.74 5 4.84 5.09a17.05 17.05 0 0 0 2.34 1.65 1 1 0 0 0 0.74 0 6.43 6.43 0 0 0 1.2 -0.58A15.28 15.28 0 0 0 15.23 11a13.25 13.25 0 0 0 1.57 -1.52c0.52 -0.58 1.06 -1.15 1.57 -1.74 2.12 -2.39 1.69 -2.32 1.63 -2.36ZM9.1 9.79c-1.24 -1 -2.45 -2 -3.65 -3 1.69 -0.12 3.37 -0.16 5.06 -0.27l1 -0.09c0 0.54 -0.1 1.06 -0.12 1.6l0 0.86 0 0.86c0.05 0.63 0.13 1.25 0.21 1.88a23.7 23.7 0 0 1 -2.5 -1.84Zm0.31 -4.3c-1.49 0.17 -3 0.4 -4.45 0.66 0.23 -0.43 0.45 -0.85 0.69 -1.26 0.42 -0.71 1.27 -2.38 1.64 -2.89 0 0 7.87 -1.11 8.54 -1 0.2 0.32 0.69 1.12 0.75 1.2 0.58 0.73 1.19 1.45 1.77 2.18l0.44 0.57a10.52 10.52 0 0 0 -1.49 0c-1 0 -2 0.2 -2.87 0.25 -0.75 -0.07 -1.3 -0.13 -5.02 0.29Zm8.41 1.73c-0.55 0.56 -1.12 1.09 -1.67 1.64a14.3 14.3 0 0 1 -1.56 1.34 14.71 14.71 0 0 1 -1.71 1.11c-0.07 0 -0.3 0.22 -0.53 0.36 0.05 -0.67 0.14 -1.34 0.17 -2a12.91 12.91 0 0 0 0 -1.39 15.77 15.77 0 0 0 -0.29 -1.93c0.76 -0.07 1.53 -0.15 2.29 -0.24 0.92 -0.12 1.88 -0.35 2.84 -0.47a8.05 8.05 0 0 1 1.83 0c-0.31 0.36 -1.02 1.23 -1.37 1.58Z" fill="#020202" fill-rule="evenodd" stroke-width="1"></path>
  </g>
</svg>