<svg xmlns="http://www.w3.org/2000/svg" viewBox="0 0 24 24" id="Casino-Coin-Drinks--Streamline-Freehand">
  <desc>
    Casino Coin Drinks Streamline Icon: https://streamlinehq.com
  </desc>
  <title>casino-coin-drinks</title>
  <g>
    <path d="M10.35 6.52c0.06 -0.35 -0.61 -0.43 -0.82 0.1a6.67 6.67 0 0 0 -0.37 1c0 0.27 0.32 0.46 0.62 0.21 0.2 -0.41 0.21 -0.42 0.38 -0.79a4.45 4.45 0 0 0 0.19 -0.52Z" fill="#4C57E6" fill-rule="evenodd" stroke-width="1"></path>
    <path d="M11.51 3.58a1.71 1.71 0 0 0 0.83 -0.08A2 2 0 0 0 13.56 2a1.67 1.67 0 0 0 -0.69 -1.74 1.72 1.72 0 0 0 -0.63 -0.26 1.91 1.91 0 0 0 -1.84 0.75 1.67 1.67 0 0 0 -0.37 1 1.83 1.83 0 0 0 0.66 1.43c0.06 0 0.13 0.08 0.2 0.13 -0.29 0.56 -0.58 1.21 -0.59 1.25 -0.2 0.54 0.45 0.72 0.66 0.28 0.32 -0.65 0.36 -0.79 0.55 -1.26ZM11 1.15c0.26 -0.44 0.48 -0.51 1 -0.4a0.7 0.7 0 0 1 0.38 0.17 0.78 0.78 0 0 1 0.19 0.86 1 1 0 0 1 -0.62 0.67 0.61 0.61 0 0 1 -0.6 -0.09 0.91 0.91 0 0 1 -0.44 -0.62 0.9 0.9 0 0 1 0.09 -0.59Z" fill="#4C57E6" fill-rule="evenodd" stroke-width="1"></path>
    <path d="M14.4 5.16c-0.51 -0.07 -1.65 0 -2.2 0 -0.36 0 -3.17 0.12 -3.61 0.12 -0.75 0 -1.49 0 -2.23 0.06l-1.5 0.07c-2.71 0.15 -4.81 0.34 -4.19 1 1.07 1.22 2.12 2.47 3.19 3.69l1.41 1.56c0.42 0.44 0.81 0.94 1.24 1.39a5.17 5.17 0 0 0 0.64 0.6 0.73 0.73 0 0 0 0.34 0.14 14.09 14.09 0 0 0 -0.27 2.35 13.58 13.58 0 0 0 0.08 1.56c0.07 0.71 0.19 1.41 0.28 2.11h-0.26l-1 0L4 20.3a0.3 0.3 0 1 0 0 0.59l2.39 0.11c0.53 -0.06 1 -0.08 1.55 -0.14a9.31 9.31 0 0 0 1.59 -0.36 0.33 0.33 0 1 0 -0.13 -0.65l-0.61 0a4.34 4.34 0 0 1 -0.51 0c0 -0.81 0.09 -1.62 0.09 -2.44 0 -0.51 0 -1 -0.07 -1.54 -0.06 -0.75 -0.16 -1.48 -0.17 -2.23l0.1 0a4.57 4.57 0 0 0 0.82 -0.64 11 11 0 0 0 1 -0.94c0.88 -1 1.74 -2 2.55 -3.06a37.39 37.39 0 0 0 2.25 -3.28c0.23 -0.36 -0.39 -0.56 -0.45 -0.56Zm-5.16 6.18a10.14 10.14 0 0 1 -0.89 0.83 4.56 4.56 0 0 1 -0.61 0.4l-0.08 0c-0.12 -0.11 -0.24 -0.22 -0.35 -0.34 -0.44 -0.45 -0.85 -0.94 -1.28 -1.36l-1.85 -1.8c0.66 0 1.32 0.06 2 0.07h1.27l1.29 -0.06 2.82 -0.21c-0.74 0.85 -1.56 1.69 -2.32 2.47Zm2.77 -3a0.3 0.3 0 0 0 -0.26 -0.17s-1.35 -0.11 -3 -0.16l-1.3 0c-0.44 0 -0.86 0 -1.29 0.06 -0.88 0.07 -1.75 0.2 -2.63 0.33L1.42 6.33c1.66 0 3.3 0.1 5 0.12 0.76 0 1.51 0 2.27 -0.07 0.3 0 3.12 -0.39 3.6 -0.43s1.17 -0.11 1.72 -0.13c-0.66 0.86 -1.31 1.71 -2.01 2.53Z" fill="#020202" fill-rule="evenodd" stroke-width="1"></path>
    <path d="M23.44 16.33a3.69 3.69 0 0 0 -0.2 -1.28 6.86 6.86 0 0 0 -3.82 -3.89 7.35 7.35 0 0 0 -6.8 0.76 7.13 7.13 0 0 0 -2.19 3.28 10.07 10.07 0 0 0 -0.43 2.08 5.86 5.86 0 0 0 0.08 1.46 6.87 6.87 0 0 0 2.6 4 5.72 5.72 0 0 0 4.73 1.09 7.39 7.39 0 0 0 3.66 -2.08 8.08 8.08 0 0 0 0.78 -1s0 0 0.05 0 0 -0.05 0 -0.08a8.88 8.88 0 0 0 1.19 -2.57 6.77 6.77 0 0 0 0.35 -1.77ZM19.1 11.9a6.37 6.37 0 0 1 1.38 0.86 5.89 5.89 0 0 0 -0.53 0.48 2.08 2.08 0 0 0 -0.27 0.32 1.9 1.9 0 0 0 -0.2 0.37 3.31 3.31 0 0 0 -0.19 0.61 3.57 3.57 0 0 0 -2.93 -1.07 3.7 3.7 0 0 0 0.06 -0.48 2.59 2.59 0 0 0 -0.05 -0.85 5.67 5.67 0 0 0 -0.24 -0.73 5.51 5.51 0 0 1 2.97 0.49ZM17 20a3.47 3.47 0 0 1 -0.55 0.08 2.6 2.6 0 0 1 -0.56 0 2.81 2.81 0 0 1 -2.37 -2.86c-0.2 -3.89 4.34 -3.65 5.51 -1.54a2.92 2.92 0 0 1 -0.57 3.62 2.49 2.49 0 0 1 -0.65 0.44A4.56 4.56 0 0 1 17 20Zm-4 -7.61a2.71 2.71 0 0 1 2.28 -0.85l0.08 0c0 0.22 -0.08 0.44 -0.1 0.68a2.8 2.8 0 0 0 0 0.41c0 0.14 0 0.28 0.07 0.41a2 2 0 0 0 0.06 0.26A3.56 3.56 0 0 0 13 15.47c-0.2 -0.12 -0.35 -0.28 -0.56 -0.4a1.78 1.78 0 0 0 -0.43 -0.18 2.36 2.36 0 0 0 -0.65 0 6.32 6.32 0 0 1 1.69 -2.47Zm-2 6.12a4.9 4.9 0 0 1 -0.1 -1.54 9.62 9.62 0 0 1 0.24 -1.44 4.31 4.31 0 0 0 0.4 0.32 1.23 1.23 0 0 0 0.26 0.12 1 1 0 0 0 0.29 0.07 4.11 4.11 0 0 0 0.7 0 4.87 4.87 0 0 0 -0.14 1.14 4.25 4.25 0 0 0 0.82 2.58 0.45 0.45 0 0 0 -0.12 0.06c-0.19 0.11 -0.38 0.18 -0.56 0.3l-0.22 0.16 -0.17 0.21a2.49 2.49 0 0 0 -0.16 0.33A5.63 5.63 0 0 1 11 18.54Zm2.33 3.36c-0.18 -0.12 -0.34 -0.28 -0.51 -0.42a2.49 2.49 0 0 0 0.33 -0.16 1.29 1.29 0 0 0 0.38 -0.38c0.12 -0.2 0.2 -0.39 0.31 -0.59l0 -0.07a3.62 3.62 0 0 0 1.88 0.91 4.08 4.08 0 0 0 0.78 0h0.08c0 0.12 0 0.24 -0.05 0.37a1.46 1.46 0 0 0 0 0.36 2 2 0 0 0 0.09 0.35c0.07 0.19 0.16 0.35 0.24 0.52a4.73 4.73 0 0 1 -3.5 -0.86Zm4.36 0.71 0 -0.5 0 -0.34a1.83 1.83 0 0 0 -0.07 -0.32 3.34 3.34 0 0 0 -0.16 -0.38 5.35 5.35 0 0 0 1.05 -0.42 3.31 3.31 0 0 0 0.74 -0.55 4.52 4.52 0 0 0 0.45 -0.55 4.28 4.28 0 0 0 0.48 0.64 1.27 1.27 0 0 0 0.25 0.21 1.74 1.74 0 0 0 0.26 0.15c-0.13 0.15 -0.25 0.31 -0.39 0.46a6.44 6.44 0 0 1 -2.58 1.63Zm4.71 -6.05a6.87 6.87 0 0 1 -0.27 1.29 8 8 0 0 1 -0.83 1.84l-0.23 -0.2a1.69 1.69 0 0 0 -0.29 -0.17c-0.25 -0.12 -0.49 -0.16 -0.76 -0.26a3.83 3.83 0 0 0 -0.17 -3.81 0.5 0.5 0 0 0 -0.08 -0.12c0.21 -0.22 0.43 -0.4 0.62 -0.63a2.17 2.17 0 0 0 0.23 -0.3c0.07 -0.11 0.13 -0.23 0.19 -0.34s0.18 -0.37 0.27 -0.56a5.34 5.34 0 0 1 1.27 2.06 3.08 3.08 0 0 1 0.08 1.23Z" fill="#020202" fill-rule="evenodd" stroke-width="1"></path>
  </g>
</svg>