<svg xmlns="http://www.w3.org/2000/svg" viewBox="0 0 24 24" id="Casino-777--Streamline-Freehand">
  <desc>
    Casino 777 Streamline Icon: https://streamlinehq.com
  </desc>
  <title>casino-777</title>
  <g>
    <path d="M23.75 9.21A22.88 22.88 0 0 0 22 3.51a1.1 1.1 0 0 0 -0.8 -0.42l-0.84 0c-0.7 0 -1.4 -0.17 -2.09 -0.21 -1.16 -0.07 -2.32 -0.11 -3.49 -0.12s-2.31 0 -3.46 0c-0.57 0 -1.14 0 -1.7 0.07 -1.3 0.1 -2.58 0.29 -3.88 0.37a27.47 27.47 0 0 1 -2.87 0s-0.52 0.09 -0.61 0.21A13 13 0 0 0 0.11 9.6 16.56 16.56 0 0 0 0 12.42a18.57 18.57 0 0 0 0.41 2.78c0.73 3.43 1.8 4.59 1.89 5.63a0.29 0.29 0 0 0 0.32 0.26C4.06 21 5.17 21 5.2 21c1.41 0 2.82 0.1 4.24 0.14l1.83 0q0.78 0 1.56 -0.06c1.18 -0.08 2.35 -0.24 3.53 -0.28s2.65 0 4 0c0.58 0 1.16 0 1.74 -0.1 0.25 0 1.47 -3 1.82 -6.44a20 20 0 0 0 0.08 -2.49 18.31 18.31 0 0 0 -0.25 -2.56Zm-0.89 5a23.09 23.09 0 0 1 -1 5.66 0.3 0.3 0 0 0 0 0.21l-1.54 0c-1.33 -0.05 -2.66 -0.2 -4 -0.22 -2 0 -3.35 0.22 -5.08 0.21 -0.61 0 -4.28 0.08 -5.22 0.12s-2 0.12 -3 0.23A22.26 22.26 0 0 1 1.44 15a26.39 26.39 0 0 1 -0.3 -2.66 21.46 21.46 0 0 1 0 -2.66A12.6 12.6 0 0 1 2.85 3.8 26.54 26.54 0 0 0 5.8 4c2 0 12.36 -0.24 12.49 -0.24 0.69 0 1.4 0.1 2.1 0.09 0.95 0 1.57 -1.58 2.32 5.52 0.09 0.82 0.15 1.63 0.17 2.45s0.02 1.62 -0.02 2.44Z" fill="#020202" fill-rule="evenodd" stroke-width="1"></path>
    <path d="M16.7 11.82c0 -0.83 -0.09 -1.67 -0.2 -2.5a35.13 35.13 0 0 0 -1.1 -5.22c-0.26 -0.28 -0.47 -0.3 -0.64 0a41.89 41.89 0 0 1 0.7 5.32c0.06 0.82 0.11 1.63 0.14 2.45s0.06 1.63 0.06 2.45c0 1.71 -0.06 3.44 -0.21 5.16 0.18 0.32 0.41 0.36 0.7 0a44.32 44.32 0 0 0 0.55 -5.11c0.03 -0.87 0.04 -1.71 0 -2.55Z" fill="#4C57E6" fill-rule="evenodd" stroke-width="1"></path>
    <path d="m8.36 11.8 0 -2.46a45.83 45.83 0 0 1 0.31 -5.07C8.49 4 8.28 4 8 4.27a35.09 35.09 0 0 0 -0.72 5c-0.06 0.85 -0.07 1.7 0 2.55s0.1 1.69 0.21 2.54a29.74 29.74 0 0 0 1.26 5.4c0.32 0.28 0.58 0.35 0.69 0a31.68 31.68 0 0 1 -0.92 -5.48c-0.1 -0.83 -0.14 -1.65 -0.16 -2.48Z" fill="#4C57E6" fill-rule="evenodd" stroke-width="1"></path>
    <path d="M4.89 9.39c-0.34 0 0.35 0 -2.14 0.4a0.29 0.29 0 0 0 -0.27 0.3 0.3 0.3 0 0 0 0.3 0.28l1.52 0.09 0 0.16c0 0.27 -0.13 0.55 -0.21 0.83a16.77 16.77 0 0 0 -0.55 2.13 0.33 0.33 0 0 0 0.64 0.15c0.24 -0.76 0.82 -1.61 1.1 -2.47a3.67 3.67 0 0 0 0.16 -1.33 0.6 0.6 0 0 0 -0.19 -0.39 0.59 0.59 0 0 0 -0.36 -0.15Z" fill="#020202" fill-rule="evenodd" stroke-width="1"></path>
    <path d="M13.46 9.31a5 5 0 0 0 -0.74 0.12l-2.26 0.22a0.29 0.29 0 0 0 0 0.58l2.17 0.2c0 0.07 -0.1 0.11 -0.1 0.13 -0.25 0.55 -0.52 1.1 -0.77 1.66 -0.17 0.38 -0.32 0.77 -0.45 1.16a0.32 0.32 0 0 0 0.17 0.43 0.33 0.33 0 0 0 0.43 -0.18c0.13 -0.26 0.28 -0.51 0.43 -0.77 0.37 -0.61 0.77 -1.19 1.14 -1.79a9.12 9.12 0 0 0 0.5 -0.88 0.63 0.63 0 0 0 -0.12 -0.72 0.59 0.59 0 0 0 -0.4 -0.16Z" fill="#020202" fill-rule="evenodd" stroke-width="1"></path>
    <path d="M20.85 9.68c-0.18 0 -0.62 0.08 -0.64 0.08l-2 0.37a0.28 0.28 0 0 0 -0.25 0.32 0.29 0.29 0 0 0 0.32 0.25l0.77 0a11 11 0 0 1 1.14 0.06h0.06l-0.15 0.47a7.62 7.62 0 0 1 -0.33 0.91c-0.19 0.47 -0.41 0.93 -0.61 1.4a0.32 0.32 0 0 0 0.13 0.44 0.32 0.32 0 0 0 0.44 -0.13c0.33 -0.51 0.69 -1 1 -1.51 0.14 -0.24 0.26 -0.48 0.38 -0.73a5.5 5.5 0 0 0 0.31 -0.9 1.24 1.24 0 0 0 0 -0.64 0.6 0.6 0 0 0 -0.57 -0.39Z" fill="#020202" fill-rule="evenodd" stroke-width="1"></path>
  </g>
</svg>