<svg xmlns="http://www.w3.org/2000/svg" viewBox="0 0 24 24" id="Casino-777-Slot-Machine--Streamline-Freehand">
  <desc>
    Casino 777 Slot Machine Streamline Icon: https://streamlinehq.com
  </desc>
  <title>casino-777-slot-machine</title>
  <g>
    <path d="M23.84 6.44c-0.44 -1.64 -2.43 -2.12 -3.43 -0.22a2.55 2.55 0 0 0 -0.29 1.19A2.06 2.06 0 0 0 20.93 9a1.63 1.63 0 0 0 0.71 0.28 43 43 0 0 1 -0.3 4.37 4.15 4.15 0 0 1 -0.57 1.64 3 3 0 0 1 -0.62 0.62c-0.55 0.42 -1.22 0.83 -1.69 1.17 0 -2.8 -0.16 -5.63 0 -8.4A27.16 27.16 0 0 0 18.7 5a5 5 0 0 0 -0.81 -2.61 0.79 0.79 0 0 0 -0.35 -0.25 5.83 5.83 0 0 0 -1 -0.11c-0.54 -0.03 -1.1 -0.13 -1.66 -0.16L13.2 1.8c-2.5 -0.07 -5.21 -0.19 -7.85 0 -5.84 0.34 -4.83 0.46 -4.94 4.4l0 4.55c0 1.82 -0.17 3.63 -0.22 5.45l0 2.38C0.17 19 0 19.82 0.09 20.47a2.14 2.14 0 0 0 0.31 1.05 2.21 2.21 0 0 0 1.6 0.76 20.48 20.48 0 0 0 3.28 -0.16c2.42 -0.14 4.87 -0.23 7.31 -0.4 0.45 0 5.55 -0.47 5.56 -0.55a28.38 28.38 0 0 0 0.26 -3.32c0.49 -0.32 1.44 -0.7 2.17 -1.12a3.81 3.81 0 0 0 1 -0.76 5.34 5.34 0 0 0 0.89 -2.8 38.41 38.41 0 0 0 -0.19 -3.87 2.09 2.09 0 0 0 0.54 -0.23 2.41 2.41 0 0 0 1.02 -2.63Zm-6.3 7.29c-1.82 0 -3.64 0.07 -5.46 0.13 0.05 -0.86 0.15 -1.7 0.2 -2.55 0 -0.58 0.08 -1.15 0.07 -1.73 0 -0.9 -0.09 -1.79 -0.16 -2.69 1 -0.11 2.21 -0.25 3.36 -0.31a12.38 12.38 0 0 1 2 0c0 0.73 -0.1 1.44 -0.13 2 -0.04 1.76 0.04 3.42 0.12 5.15Zm-10.27 -4C7.23 8.85 7.1 7.94 7 7h0.62c1.32 0 2.64 0 4 -0.1 -0.09 0.75 -0.2 1.49 -0.28 2.25q0 0.54 -0.06 1.08l0 1.09c0 0.84 0.1 1.68 0.19 2.52h-0.33c-1.33 0 -2.65 0.15 -4 0.23 0 -0.84 0.13 -1.68 0.16 -2.53 -0.01 -0.54 0 -1.16 -0.03 -1.77ZM5.38 2.56c2.62 -0.07 5.3 0.16 7.78 0.32l3.27 0.24c0.08 0 0.52 0.19 0.68 0.12a4.26 4.26 0 0 1 0.47 1.82l0 0.85a13.86 13.86 0 0 0 -2.07 -0.18c-1.38 0 -2.8 0.09 -4 0.11 -1.33 0.07 -2.66 0.07 -4 0.12 -2 0.07 -3.66 0.22 -5.67 0.39a0.3 0.3 0 0 0 0 0.59c1.58 0 2.81 0 4.38 0.08 0 0.8 -0.11 1.59 -0.14 2.39l0 1.13 0 1.13c0 0.84 0.14 1.66 0.22 2.49 -1.39 0.1 -2.79 0.05 -4.18 0.12 -0.32 0 -0.65 0 -1 0.07v-3.61c-0.05 -1.51 -0.13 -3 -0.15 -4.53 0 -1 0 -2 0.07 -3A0.37 0.37 0 0 0 1.11 3a24 24 0 0 1 4.27 -0.44Zm12 18c-1.6 0.17 -3.21 0.28 -4.83 0.34 -2.44 0.09 -4.89 0.1 -7.31 0.16 -0.53 0 -1.69 0.18 -2.7 0.14 -0.54 0 -1 0 -1.24 -0.32a1.32 1.32 0 0 1 -0.12 -0.72c0 -0.6 0.08 -1.25 0.06 -1.63V15h1c1.53 0 3.05 0.26 4.59 0.25s2.87 -0.12 4.3 -0.23c2.15 -0.15 4.29 -0.39 6.43 -0.58 0.05 1 0.09 2 0.11 3s0 2.12 -0.12 3.17a0.38 0.38 0 0 0 -0.14 -0.05ZM22.29 8.1a0.67 0.67 0 0 1 -0.74 0 1.07 1.07 0 0 1 -0.48 -0.78 1.71 1.71 0 0 1 0.15 -1c0.49 -1 1.56 -0.62 1.72 0.29a1.42 1.42 0 0 1 -0.65 1.49Z" fill="#020202" fill-rule="evenodd" stroke-width="1"></path>
    <path d="M5.11 17.76a1.13 1.13 0 0 0 -0.26 0 0.9 0.9 0 0 0 -0.23 0.08c-0.84 0.39 -0.78 0.54 -0.77 0.63 0 0.37 1 0.42 1.06 0.42a1.12 1.12 0 0 0 0.39 -0.1c0.83 -0.33 0.83 -0.5 0.82 -0.64s0.02 -0.35 -1.01 -0.39Z" fill="#020202" fill-rule="evenodd" stroke-width="1"></path>
    <path d="M4.26 12.49c0.23 0 0.33 -0.09 0.44 -1.22a2.17 2.17 0 0 0 0 -0.36 2 2 0 0 0 0 -0.36c-0.3 -1.16 -0.5 -1.13 -0.62 -1.13s-0.34 0 -0.49 1.18a2.28 2.28 0 0 0 0 0.37 1.57 1.57 0 0 0 0.05 0.37c0.25 1.09 0.36 1.17 0.62 1.15Z" fill="#4C57E6" fill-rule="evenodd" stroke-width="1"></path>
    <path d="M9.3 12c0.21 0 0.33 -0.06 0.6 -1.06 0 -0.1 0 -0.21 0.07 -0.31a1.82 1.82 0 0 0 0 -0.33c-0.09 -1.1 -0.3 -1.1 -0.41 -1.11 -0.31 0 -0.65 1 -0.65 1a1.3 1.3 0 0 0 -0.07 0.33 2 2 0 0 0 0 0.34c0.1 0.98 0.25 1.07 0.46 1.14Z" fill="#4C57E6" fill-rule="evenodd" stroke-width="1"></path>
    <path d="M15 8.75c-0.13 0 -0.35 -0.05 -0.62 1.24a2.7 2.7 0 0 0 -0.05 0.41l0 0.43c0.11 1.17 0.2 1.32 0.46 1.33s0.37 -0.12 0.6 -1.28a3 3 0 0 0 0.06 -0.42 2 2 0 0 0 0 -0.42c-0.09 -1.3 -0.29 -1.29 -0.45 -1.29Z" fill="#4C57E6" fill-rule="evenodd" stroke-width="1"></path>
  </g>
</svg>