<svg xmlns="http://www.w3.org/2000/svg" viewBox="0 0 24 24" id="Cat-Scratcher--Streamline-Freehand">
  <desc>
    Cat Scratcher Streamline Icon: https://streamlinehq.com
  </desc>
  <g>
    <path d="M21.5 20.21a2.56 2.56 0 0 0 -1.34 -1.33 3.87 3.87 0 0 0 -0.77 -0.26c-0.37 -0.09 -0.75 -0.14 -1.13 -0.2a0.32 0.32 0 0 0 -0.1 0.63c0.35 0.06 0.72 0.13 1.07 0.22a3.51 3.51 0 0 1 0.64 0.24 1.81 1.81 0 0 1 0.93 1 1 1 0 0 1 -0.23 1.13 1.78 1.78 0 0 1 -0.31 0.23c-0.13 0.08 -0.27 0.14 -0.41 0.21l-1.06 0.35a15 15 0 0 1 -2.4 0.36c-1.23 0.1 -2.47 0.1 -3.71 0.1l-3.21 0c-0.7 0 -1.4 -0.05 -2.1 -0.12a10.12 10.12 0 0 1 -1.8 -0.31 7.62 7.62 0 0 1 -1.68 -0.66 2.34 2.34 0 0 1 -0.47 -0.3 0.77 0.77 0 0 1 -0.26 -0.33 0.39 0.39 0 0 1 0.09 -0.39 1.91 1.91 0 0 1 0.5 -0.44 7.73 7.73 0 0 1 1.77 -0.9 4.33 4.33 0 0 1 1.91 -0.29 0.28 0.28 0 0 0 0.31 -0.24 0.27 0.27 0 0 0 -0.24 -0.31 4.62 4.62 0 0 0 -1.76 0.11 8.67 8.67 0 0 0 -2.4 1 2.62 2.62 0 0 0 -0.83 0.76 1.14 1.14 0 0 0 -0.12 0.93 1.41 1.41 0 0 0 0.36 0.61 3.7 3.7 0 0 0 0.71 0.54 9 9 0 0 0 1.84 0.82 12.12 12.12 0 0 0 2 0.42q1.1 0.12 2.19 0.15l3.24 0c1.27 0 2.55 0 3.8 -0.18a15.77 15.77 0 0 0 2.47 -0.48 6.21 6.21 0 0 0 0.61 -0.2 4.41 4.41 0 0 0 0.59 -0.26 5.39 5.39 0 0 0 0.58 -0.32 2.83 2.83 0 0 0 0.37 -0.33 1.77 1.77 0 0 0 0.35 -1.96Z" fill="#020202" fill-rule="evenodd" stroke-width="1"></path>
    <path d="M14.8 15.89a11 11 0 0 1 -1.5 0.51l-1.59 0.43a8.13 8.13 0 0 1 -2.05 0.42 1.81 1.81 0 0 1 -0.57 0c-0.23 -0.05 -0.36 0.5 0 0.73a2.37 2.37 0 0 0 0.58 0.11 8.65 8.65 0 0 0 2.33 -0.25c0.57 -0.13 1.13 -0.26 1.66 -0.43a6.83 6.83 0 0 0 1.03 -0.41 6 6 0 0 0 1.5 -1.07c0.17 -0.31 0.1 -1 -0.19 -0.76a5 5 0 0 1 -1.2 0.72Z" fill="#4C57E6" fill-rule="evenodd" stroke-width="1"></path>
    <path d="M17.59 7.23c-0.07 -1.24 -0.26 -2.51 -0.35 -3.77 0 -0.53 0.17 -1.16 0 -1.59 -0.39 -0.71 -2.9 -2.87 -7.37 -1.21a4.86 4.86 0 0 0 -1.82 1.41C8 2.55 8 3 8 3.52c0 1.11 0.05 2.22 0 3.33 0 1.39 -0.1 2.77 -0.14 4.15l0 2.78c0 1.27 -0.2 2.69 -0.13 4a6.44 6.44 0 0 0 0.33 1.82 1.32 1.32 0 0 0 0.54 0.68 4.82 4.82 0 0 0 1.39 0.56 7.83 7.83 0 0 0 3.6 0.12 3.68 3.68 0 0 0 2.17 -1.18 0.31 0.31 0 0 0 0 -0.44 0.31 0.31 0 0 0 -0.44 0 3.08 3.08 0 0 1 -1.83 0.88 7.13 7.13 0 0 1 -3.2 -0.24 6.34 6.34 0 0 1 -0.85 -0.33c-0.19 -0.09 -0.58 -0.36 -0.63 -0.53 -0.44 -1.47 0.14 -6.17 0.06 -12.34 0 -1.12 -0.17 -2.23 -0.22 -3.34a2.13 2.13 0 0 0 0.56 0.44 5 5 0 0 0 1.42 0.45 14.71 14.71 0 0 0 2.32 0.26 9.19 9.19 0 0 0 2.36 -0.29l0.49 -0.16a4.81 4.81 0 0 0 0.43 -0.14 1.61 1.61 0 0 0 0.34 -0.24c0 0.39 0.06 3.05 0.05 3.52 -0.07 1.67 -0.2 5 -0.27 6.68l0 3.55a12.28 12.28 0 0 1 -0.11 1.49 0.32 0.32 0 0 0 0.26 0.36 0.32 0.32 0 0 0 0.37 -0.26c0.1 -0.51 0.16 -1 0.21 -1.54 0.11 -1.18 0.12 -2.37 0.22 -3.55 0.08 -1.34 0.23 -2.68 0.29 -4 0.04 -1.01 0.03 -1.87 0 -2.78ZM16.3 2.58a1 1 0 0 1 -0.51 0.54l-0.79 0.26a8.06 8.06 0 0 1 -2.09 0.19 12.63 12.63 0 0 1 -2.14 -0.24 4.71 4.71 0 0 1 -1 -0.25 1.11 1.11 0 0 1 -0.61 -0.46c-0.13 -0.21 0 -0.4 0.12 -0.56a3.07 3.07 0 0 1 0.86 -0.61 7.44 7.44 0 0 1 5.33 0.15 2.51 2.51 0 0 1 0.6 0.4 0.54 0.54 0 0 1 0.23 0.58Z" fill="#020202" fill-rule="evenodd" stroke-width="1"></path>
    <path d="M15.6 5.92a4.92 4.92 0 0 1 -0.71 0.57 6.07 6.07 0 0 1 -1 0.54 6.51 6.51 0 0 1 -1.73 0.41 11.52 11.52 0 0 1 -2.93 -0.11c-0.33 0 -0.38 0.33 -0.19 0.63a10.13 10.13 0 0 0 3.89 0.44 5.12 5.12 0 0 0 1.33 -0.4 4.93 4.93 0 0 0 1.2 -0.78 5.21 5.21 0 0 0 0.71 -0.78c0.11 -0.14 0.2 -0.28 0.3 -0.41 0.13 -0.36 0.09 -0.92 -0.18 -0.79Z" fill="#4C57E6" fill-rule="evenodd" stroke-width="1"></path>
    <path d="M13.72 11.22a10.17 10.17 0 0 1 -1.42 0.55 8.46 8.46 0 0 1 -2.28 0.4c-0.27 0 -0.65 0 -0.83 0.05s-0.41 0.33 -0.19 0.67l0.29 0 0.7 0a8 8 0 0 0 2.58 -0.17 7.1 7.1 0 0 0 1.63 -0.61 7.12 7.12 0 0 0 2.09 -1.77c0.28 -0.48 0.09 -0.84 -0.27 -0.7a14.66 14.66 0 0 1 -2.3 1.58Z" fill="#4C57E6" fill-rule="evenodd" stroke-width="1"></path>
  </g>
</svg>