<svg xmlns="http://www.w3.org/2000/svg" viewBox="0 0 24 24" id="Cd-Disc-Listen--Streamline-Freehand">
  <desc>
    Cd Disc Listen Streamline Icon: https://streamlinehq.com
  </desc>
  <g>
    <path d="M10.78 11.87a2.21 2.21 0 0 0 1.51 -2 1.91 1.91 0 0 0 -0.21 -0.87q0 -0.33 -0.09 -0.69c-0.17 -1.25 -0.41 -2.68 -0.53 -3.62l-0.25 -1.21s3.42 -1.72 3.56 -1.8a2.68 2.68 0 0 1 0.93 1.55 10.3 10.3 0 0 1 0.37 2.22 1.68 1.68 0 0 0 -0.89 -0.29 0.32 0.32 0 0 0 -0.35 0.21 0.31 0.31 0 0 0 -0.28 0 3.14 3.14 0 0 0 -1 0.63 2 2 0 0 0 -0.49 0.73 1.61 1.61 0 0 0 0.41 1.74 1.88 1.88 0 0 0 1.75 0.43 2.21 2.21 0 0 0 1.52 -2 1.62 1.62 0 0 0 0 -0.31A11.83 11.83 0 0 0 16.53 3 3.49 3.49 0 0 0 15.18 0.7a0.74 0.74 0 0 0 -0.57 0 6.71 6.71 0 0 0 -0.72 0.32c-0.62 0.3 -1.25 0.55 -1.87 0.85q-0.42 0.19 -0.81 0.42a4.19 4.19 0 0 0 -0.77 0.49 0.86 0.86 0 0 0 -0.27 0.43 1.54 1.54 0 0 0 0 0.67c0.08 0.34 0.25 0.73 0.3 1 0.19 0.9 0.54 2.25 0.8 3.46a2 2 0 0 0 -0.58 -0.12 0.32 0.32 0 0 0 -0.34 0.21 0.28 0.28 0 0 0 -0.28 0 3.12 3.12 0 0 0 -1 0.63 2 2 0 0 0 -0.48 0.73A1.59 1.59 0 0 0 9 11.45a1.85 1.85 0 0 0 1.78 0.42Zm4.16 -4.1a0.82 0.82 0 0 1 -0.76 -0.16 0.71 0.71 0 0 1 -0.29 -0.71 1.28 1.28 0 0 1 0.3 -0.59 2.53 2.53 0 0 1 0.61 -0.49 0.25 0.25 0 0 0 0.13 -0.14 0.36 0.36 0 0 0 0.17 0.07 0.86 0.86 0 0 1 0.74 1 1.18 1.18 0 0 1 -0.9 1.02ZM9.43 10a1.31 1.31 0 0 1 0.3 -0.6 2.58 2.58 0 0 1 0.61 -0.49 0.25 0.25 0 0 0 0.13 -0.14 0.33 0.33 0 0 0 0.16 0.07 0.86 0.86 0 0 1 0.75 1 1.18 1.18 0 0 1 -0.89 1 0.84 0.84 0 0 1 -0.76 -0.15 0.72 0.72 0 0 1 -0.3 -0.69Z" fill="#020202" stroke-width="1"></path>
    <path d="m23.38 5.66 -0.78 -0.75 -0.22 -0.18a0.53 0.53 0 0 0 -0.7 0.1 2 2 0 0 0 -0.24 0.46c-0.1 0.29 -0.17 0.63 -0.24 0.86l-0.5 2a0.31 0.31 0 0 0 -0.13 -0.06 2.85 2.85 0 0 0 -0.4 0 1.84 1.84 0 0 0 -0.41 0 1.07 1.07 0 0 0 -0.83 1.42 1.18 1.18 0 0 0 1.5 0.93 1.36 1.36 0 0 0 0.63 -0.47 4.5 4.5 0 0 0 0.6 -1.23c0.13 -0.39 0.22 -0.68 0.28 -0.94 0.09 -0.41 0.15 -0.77 0.3 -1.36l0.11 -0.49 0.42 0.33c0.27 0.26 0.46 0.45 0.48 0.7a1.58 1.58 0 0 1 -0.28 0.88 0.31 0.31 0 0 0 0.1 0.44 0.33 0.33 0 0 0 0.45 -0.1A2.24 2.24 0 0 0 24 6.92a2 2 0 0 0 -0.62 -1.26Zm-3.06 3.59c-0.06 0.12 -0.11 0.25 -0.22 0.29s-0.43 -0.19 -0.45 -0.43a0.37 0.37 0 0 1 0.25 -0.42l0.58 0h0.08a2.86 2.86 0 0 1 -0.24 0.56Z" fill="#020202" stroke-width="1"></path>
    <path d="M10.74 16.05a2.1 2.1 0 0 0 -0.06 -2.38 2.51 2.51 0 0 0 -1 -0.84 2.67 2.67 0 0 0 -1.05 -0.27 2.54 2.54 0 0 0 -1.52 0.4 2.73 2.73 0 0 0 -1.19 1.78 2.66 2.66 0 0 0 0 0.69 2.4 2.4 0 0 0 2.17 2.09 2.67 2.67 0 0 0 1.35 -0.33 2.58 2.58 0 0 0 1.3 -1.14Zm-0.74 -0.47a2.33 2.33 0 0 1 -0.92 0.92c-1.79 1 -2.5 -0.68 -2.28 -1.59a1.65 1.65 0 0 1 1.78 -1.26 1.76 1.76 0 0 1 1.28 0.66 1.11 1.11 0 0 1 0.14 1.27Z" fill="#020202" stroke-width="1"></path>
    <path d="M13.12 18.54c-0.34 -0.33 -0.68 -0.64 -1 -0.94a10.11 10.11 0 0 0 -1.37 -0.85c-0.26 -0.12 -0.6 0.38 -0.29 0.66s0.37 0.39 0.78 0.81a13.3 13.3 0 0 0 1 1 7.39 7.39 0 0 0 1.25 0.84c0.39 0.1 0.55 -0.23 0.35 -0.58a4 4 0 0 0 -0.72 -0.94Z" fill="#4C57E6" stroke-width="1"></path>
    <path d="M15.74 11.57a0.32 0.32 0 0 0 -0.45 -0.09 0.33 0.33 0 0 0 -0.08 0.46A6.07 6.07 0 0 1 15.9 17a7.69 7.69 0 0 1 -3.06 4.18 7.61 7.61 0 0 1 -4 1.11 8.1 8.1 0 0 1 -4 -0.94A10.13 10.13 0 0 1 2.88 20 5.73 5.73 0 0 1 1 16.58a8.25 8.25 0 0 1 0 -1.79 7.79 7.79 0 0 1 2.18 -4.58 7.2 7.2 0 0 1 4.67 -2 0.29 0.29 0 0 0 0.35 -0.31 0.29 0.29 0 0 0 -0.29 -0.28 7.87 7.87 0 0 0 -5.18 2.05 7.73 7.73 0 0 0 -1.62 2.05 9 9 0 0 0 -1 2.93 8.26 8.26 0 0 0 -0.07 2.43 5.41 5.41 0 0 0 0.47 1.61 7.69 7.69 0 0 0 1.63 2.11 11.94 11.94 0 0 0 2.1 1.53 9.14 9.14 0 0 0 4.61 1A8.48 8.48 0 0 0 13.37 22a8.3 8.3 0 0 0 2.41 -2.63 8.15 8.15 0 0 0 0.89 -2.14 7.25 7.25 0 0 0 0.08 -3.37 6.41 6.41 0 0 0 -1.01 -2.29Z" fill="#020202" stroke-width="1"></path>
    <path d="m14.54 14.39 -0.92 0c-0.31 0 -0.6 0 -0.91 0.05 -0.49 0 -0.56 0.1 -1.05 0.17s-0.5 0.76 0 0.76 0.6 0.07 1.11 0.09l0.88 0 0.88 0a3.44 3.44 0 0 0 1 -0.09c0.5 -0.11 0.53 -0.66 0.08 -0.77a6.52 6.52 0 0 0 -1.07 -0.21Z" fill="#4C57E6" stroke-width="1"></path>
    <path d="M3.22 18.19c0.45 -0.17 0.88 -0.38 1.31 -0.59s0.61 -0.35 1.19 -0.6 0.21 -0.74 -0.2 -0.78a9.23 9.23 0 0 0 -1.62 0.51c-0.45 0.17 -0.88 0.36 -1.3 0.56l-0.6 0.28c-0.41 0.3 -0.13 1 0.31 0.88a5.47 5.47 0 0 0 0.91 -0.26Z" fill="#4C57E6" stroke-width="1"></path>
    <path d="M2.93 13.49c0.26 0.11 0.51 0.21 0.77 0.3l0.79 0.27 1 0.3c0.38 0.09 0.67 -0.51 0.32 -0.71s-0.51 -0.34 -0.93 -0.54a7 7 0 0 0 -0.79 -0.34 5.62 5.62 0 0 0 -0.82 -0.27 7.31 7.31 0 0 0 -1.06 -0.15 0.4 0.4 0 0 0 -0.1 0.79Z" fill="#4C57E6" stroke-width="1"></path>
  </g>
</svg>