<svg xmlns="http://www.w3.org/2000/svg" viewBox="0 0 24 24" id="Cellar-3--Streamline-Freehand">
  <desc>
    Cellar 3 Streamline Icon: https://streamlinehq.com
  </desc>
  <title>cellar-3</title>
  <g>
    <path d="M21.67 22.57c-2.76 -0.18 -12.09 -0.1 -13.48 -0.09 -0.28 0 -5.18 0.19 -7.17 0.19 -0.66 0 -0.58 0.56 0 0.78a7 7 0 0 0 2 0.1h1.52c3.77 0 10.67 0 14.82 0.11 0.14 0 2.37 0.06 2.64 0 0.64 0 1.4 -0.12 1.52 -0.52 0.28 -0.86 -1.62 -0.56 -1.85 -0.57Z" fill="#4C57E6" stroke-width="1"></path>
    <path d="M19.7 11.14A8.78 8.78 0 0 0 17 5.86a8.69 8.69 0 0 0 -5.72 -1.63 6.93 6.93 0 0 0 -5.66 2.92 11.41 11.41 0 0 0 -1.95 6c0 0.63 -0.08 1.31 -0.1 2 -0.08 2.8 0.1 6 -0.11 7.1 0 0.31 0.58 0.43 0.67 0.06 0.25 -1.61 0.08 -6.07 0.35 -9.1a10.69 10.69 0 0 1 1.86 -5.54 6 6 0 0 1 4.9 -2.49 7.78 7.78 0 0 1 5.08 1.47 6.85 6.85 0 0 1 2.16 4h-0.88c-1 0 -2.05 0.06 -3 0.13a9.43 9.43 0 0 0 -3 0.56 2.64 2.64 0 0 0 -1 2 5.92 5.92 0 0 0 0.05 1.5 4.58 4.58 0 0 0 -1.51 0.4 2.56 2.56 0 0 0 -1 2 5.84 5.84 0 0 0 0.07 1.58 4.49 4.49 0 0 0 -1.21 0.26 2.87 2.87 0 0 0 -1 2.35 5 5 0 0 0 0.06 0.83 0.44 0.44 0 0 0 0.83 -0.14A4.33 4.33 0 0 1 7 21a1.52 1.52 0 0 1 0.56 -1.07 11.58 11.58 0 0 1 3.3 -0.38c1.86 -0.09 4.1 -0.11 5.85 -0.1l2.59 0c0.05 0.9 0.24 2.43 0.26 2.59 0.08 0.36 0.88 0.5 1 -0.06 -0.19 -1.28 -0.15 -3.78 -0.31 -6.11a36.15 36.15 0 0 0 -0.55 -4.73Zm-8 2.1a1.53 1.53 0 0 1 0.55 -1.06 6.66 6.66 0 0 1 1.75 -0.29c1 -0.09 2.19 -0.16 3.38 -0.22l1.27 -0.08c0.14 0.76 0.25 1.84 0.34 3 0 0 -1.48 -0.13 -2.11 -0.13 -1.58 0 -3.28 0 -4.66 0.13l-0.64 0.06a8.18 8.18 0 0 1 0.09 -1.41Zm7.59 5.3c-0.05 0 -1.36 -0.11 -2.17 -0.14l-5.07 0c-1 0 -2 0.11 -2.83 0.2a6.83 6.83 0 0 1 0.11 -1.79 1.28 1.28 0 0 1 0.46 -0.81 8.55 8.55 0 0 1 2.54 -0.34c1.37 -0.09 3 -0.13 4.6 -0.16 0.62 0 2.1 -0.1 2.15 -0.13 0.07 1 0.13 2.13 0.18 3.14Z" fill="#020202" stroke-width="1"></path>
    <path d="M0.77 15.23a34.59 34.59 0 0 1 1 -7 9.14 9.14 0 0 1 3.48 -5.14 10.22 10.22 0 0 1 6 -1.83A10.68 10.68 0 0 1 17.73 3a11.56 11.56 0 0 1 4 5.48 32.32 32.32 0 0 1 1 7.07 51.8 51.8 0 0 1 0.12 5.78 5.63 5.63 0 0 1 0 0.68c0 0.39 1 0.69 1.1 0.22a33.11 33.11 0 0 0 0.06 -5.29c-0.17 -3.47 -0.62 -7.43 -1.19 -8.87a12.63 12.63 0 0 0 -4.4 -5.94A11.68 11.68 0 0 0 11.2 0.29a11.16 11.16 0 0 0 -6.47 2.09A10 10 0 0 0 1 8.05a36.38 36.38 0 0 0 -0.92 7.15c-0.19 4.22 0 6.22 0.28 7.19 0.09 0.43 0.75 0.32 0.73 0 -0.29 -0.62 -0.6 -2.39 -0.32 -7.16Z" fill="#020202" stroke-width="1"></path>
  </g>
</svg>