<svg xmlns="http://www.w3.org/2000/svg" viewBox="0 0 24 24" id="Characteristic-Product-Water-Proof-Symbol--Streamline-Freehand">
  <desc>
    Characteristic Product Water Proof Symbol Streamline Icon: https://streamlinehq.com
  </desc>
  <g>
    <path d="M22.38 8.49a22.14 22.14 0 0 0 -0.14 -3.21 6.7 6.7 0 0 0 -0.61 -2.15 2.07 2.07 0 0 0 -0.78 -0.74 7.22 7.22 0 0 0 -1.3 -0.61 0.33 0.33 0 0 0 -0.42 0.2 0.32 0.32 0 0 0 0.2 0.42 7.88 7.88 0 0 1 1.16 0.6 1.39 1.39 0 0 1 0.52 0.5 5.87 5.87 0 0 1 0.51 1.91 22.72 22.72 0 0 1 0.08 3.11c0 1.32 0.09 2.79 0 4.22a9.26 9.26 0 0 1 -0.45 2.65 3.22 3.22 0 0 1 -0.5 0.88 13.75 13.75 0 0 1 -1.12 1.26c-0.58 0.63 -1.16 1.26 -1.76 1.86 -0.39 0.41 -0.8 0.8 -1.22 1.18a12.59 12.59 0 0 1 -2.66 2 3 3 0 0 1 -1.88 0.38 10 10 0 0 1 -3 -1.16 25.71 25.71 0 0 1 -4 -2.9 16.35 16.35 0 0 1 -1.51 -1.33 3 3 0 0 1 -0.63 -1 3 3 0 0 1 -0.15 -0.79l0 -1.43 -0.13 -4.66c0 -0.89 -0.08 -1.8 -0.07 -2.7a17.34 17.34 0 0 1 0.09 -1.77 5.56 5.56 0 0 1 0.18 -1 1.78 1.78 0 0 1 0.41 -0.78 5.19 5.19 0 0 1 1.5 -1 16.68 16.68 0 0 1 2.7 -1 18.06 18.06 0 0 1 5.41 -0.72 16.72 16.72 0 0 1 5.32 1.18 0.29 0.29 0 0 0 0.38 -0.16 0.3 0.3 0 0 0 -0.17 -0.38A17.21 17.21 0 0 0 12.84 0a19.3 19.3 0 0 0 -5.63 0.68 16.86 16.86 0 0 0 -2.87 1 6 6 0 0 0 -1.8 1.14 2.68 2.68 0 0 0 -0.54 0.89 6.09 6.09 0 0 0 -0.34 1.39c-0.07 0.61 -0.11 1.23 -0.13 1.86l0 2.75 0.13 4.64 0 1.73a3.71 3.71 0 0 0 0.18 0.83 4.2 4.2 0 0 0 0.86 1.34 20.37 20.37 0 0 0 1.6 1.43 27.47 27.47 0 0 0 4.17 3A11.22 11.22 0 0 0 11.83 24a4.06 4.06 0 0 0 2.57 -0.5 13.85 13.85 0 0 0 2.87 -2.18c0.43 -0.4 0.84 -0.81 1.24 -1.23 0.6 -0.62 1.17 -1.27 1.75 -1.91a15.61 15.61 0 0 0 1.16 -1.36 4.27 4.27 0 0 0 0.58 -1.18 8.67 8.67 0 0 0 0.41 -2.18c0.16 -1.66 -0.04 -3.46 -0.03 -4.97Z" fill="#4C57E6" stroke-width="1"></path>
    <path d="M11.83 3.71a6.42 6.42 0 0 0 -1.62 1.49 24.84 24.84 0 0 0 -1.77 2.68c-0.37 0.62 -0.75 1.26 -1.07 1.93a9 9 0 0 0 -0.57 1.41 6.73 6.73 0 0 0 -0.27 1.26 8 8 0 0 0 0 1.3 5.13 5.13 0 0 0 2.37 4 5.67 5.67 0 0 0 4.59 0.78 5.87 5.87 0 0 0 3.35 -2.46 6.41 6.41 0 0 0 1 -4 6.84 6.84 0 0 0 -0.37 -1.67 10.28 10.28 0 0 0 -0.71 -1.5 23.56 23.56 0 0 0 -2.1 -2.75 29.52 29.52 0 0 0 -2.38 -2.47 0.39 0.39 0 0 0 -0.45 0Zm2.19 3a19.67 19.67 0 0 1 1.92 2.68 8.51 8.51 0 0 1 0.61 1.38 5.32 5.32 0 0 1 0.27 1.43 5.4 5.4 0 0 1 -0.92 3.34 4.9 4.9 0 0 1 -2.76 2 4.65 4.65 0 0 1 -3.69 -0.64 4.11 4.11 0 0 1 -2 -3.13 6 6 0 0 1 0 -1.12 6.1 6.1 0 0 1 0.19 -1.12 9.53 9.53 0 0 1 0.46 -1.3c0.29 -0.66 0.63 -1.29 1 -1.91a24.48 24.48 0 0 1 1.63 -2.72 6 6 0 0 1 1.21 -1.24A28.39 28.39 0 0 1 14 6.67Z" fill="#020202" stroke-width="1"></path>
    <path d="M13.69 15.07a3.25 3.25 0 0 0 1.1 -1.28 2.72 2.72 0 0 0 0.26 -1.44 4.84 4.84 0 0 0 -0.48 -1.56 0.3 0.3 0 0 0 -0.37 -0.19 0.3 0.3 0 0 0 -0.2 0.4 6.19 6.19 0 0 1 0 1.43 4.85 4.85 0 0 1 -0.13 0.85 3.12 3.12 0 0 1 -0.61 1.34 0.31 0.31 0 0 0 0 0.46 0.33 0.33 0 0 0 0.43 -0.01Z" fill="#020202" stroke-width="1"></path>
  </g>
</svg>