<svg xmlns="http://www.w3.org/2000/svg" viewBox="0 0 24 24" id="Characteristic-Product-Scratch-Proof--Streamline-Freehand">
  <desc>
    Characteristic Product Scratch Proof Streamline Icon: https://streamlinehq.com
  </desc>
  <g>
    <path d="m22.75 21.77 -6.6 -0.19q-0.81 0 -1.62 0.06c-1.24 0.08 -2.47 0.21 -3.71 0.24l-10.09 0.36a0.32 0.32 0 0 0 -0.3 0.32 0.31 0.31 0 0 0 0.32 0.3c2.7 0 5.38 0.18 8.08 0.22l2 0c0.55 0 1.09 0 1.63 -0.09 1.24 -0.1 2.47 -0.27 3.71 -0.33 0.65 0 1.3 -0.07 1.95 -0.08 1.54 0 3.08 0 4.61 -0.09a0.35 0.35 0 0 0 0.35 -0.36 0.34 0.34 0 0 0 -0.33 -0.36Z" fill="#020202" stroke-width="1"></path>
    <path d="M23.23 1.21a2.1 2.1 0 0 0 -1.82 -0.15 3.47 3.47 0 0 0 -0.84 0.46 8.54 8.54 0 0 0 -1 0.84c-0.32 0.32 -0.64 0.66 -0.94 1s-0.6 0.68 -0.89 1l-2.69 3.45a0.21 0.21 0 0 0 0 0.06 0.2 0.2 0 0 0 -0.09 0.09 0.31 0.31 0 0 0 0.08 0.43l1.86 1.52a3.71 3.71 0 0 0 0.54 0.47 0.78 0.78 0 0 0 0.56 0.08 2.24 2.24 0 0 0 0.76 -0.4 9.12 9.12 0 0 0 1.2 -1.21c0.63 -0.7 1.26 -1.42 1.84 -2.17 0.4 -0.51 0.77 -1 1.13 -1.54a8.16 8.16 0 0 0 0.7 -1.14A3.23 3.23 0 0 0 24 3a1.72 1.72 0 0 0 -0.77 -1.79Zm-0.65 2.23a12.22 12.22 0 0 1 -0.66 1c-0.5 0.77 -1.05 1.53 -1.6 2.27 -0.38 0.5 -0.75 1 -1.14 1.48a12.07 12.07 0 0 1 -0.85 1 1.68 1.68 0 0 1 -0.55 0.41 17.24 17.24 0 0 1 -2.08 -1.47L18.45 5c0.29 -0.32 0.6 -0.64 0.91 -1s0.63 -0.61 0.95 -0.9a7.3 7.3 0 0 1 0.88 -0.7 2.15 2.15 0 0 1 0.59 -0.29 0.94 0.94 0 0 1 0.81 0.06 0.56 0.56 0 0 1 0.21 0.61 2 2 0 0 1 -0.22 0.66Z" fill="#020202" stroke-width="1"></path>
    <path d="M8.46 20.62a7.44 7.44 0 0 0 3 -0.92c0.37 -0.25 1.54 -1.32 2.81 -2.53 1.77 -1.69 3.74 -3.64 4 -4a3 3 0 0 0 0.73 -1.3 1.24 1.24 0 0 0 -0.46 -1.1 0.36 0.36 0 0 0 -0.5 0 0.35 0.35 0 0 0 0 0.49 0.56 0.56 0 0 1 0.18 0.64 3 3 0 0 1 -0.57 0.8c-0.22 0.26 -1.78 1.68 -3.37 3.09s-3 2.67 -3.46 2.94a6.17 6.17 0 0 1 -2.07 0.64 3.21 3.21 0 0 1 -1.68 -0.06c0.16 -0.27 1 -1.43 1.19 -1.77C8.66 17 9 16.52 9.4 16l2 -2.73c0.8 -1 1.57 -2 2.39 -3 0.35 -0.42 0.71 -0.84 1.08 -1.23a0.31 0.31 0 0 0 -0.44 -0.44c-0.4 0.39 -0.78 0.8 -1.16 1.22 -0.87 1 -1.69 2 -2.55 2.92l-2.16 2.62c-0.34 0.42 -0.68 0.85 -1 1.29A15.49 15.49 0 0 0 6.65 18a6 6 0 0 0 -0.72 1.41 0.71 0.71 0 0 0 0.24 0.69 3.22 3.22 0 0 0 2.29 0.52Z" fill="#020202" stroke-width="1"></path>
    <path d="M12.6 13.24c-0.24 0.28 -0.48 0.57 -0.7 0.86 -0.53 0.69 -1 1.41 -1.49 2.14a0.34 0.34 0 0 0 0.07 0.49 0.35 0.35 0 0 0 0.49 -0.06c0.59 -0.66 1.22 -1.26 1.83 -1.9 0.4 -0.42 0.8 -0.85 1.17 -1.31A29.46 29.46 0 0 0 15.65 11a0.3 0.3 0 0 0 -0.05 -0.43 0.31 0.31 0 0 0 -0.44 0.05c-0.59 0.62 -1.22 1.19 -1.82 1.8 -0.26 0.27 -0.5 0.58 -0.74 0.82Z" fill="#020202" stroke-width="1"></path>
    <path d="M1 16.55a5.57 5.57 0 0 0 0.37 0.57 14.28 14.28 0 0 0 1 1.27A0.35 0.35 0 0 0 3 18c-0.19 -0.37 -0.38 -0.91 -0.66 -1.48a6.26 6.26 0 0 0 -0.53 -0.94 9.53 9.53 0 0 0 -1.25 -1.43 0.31 0.31 0 0 0 -0.43 -0.07 0.31 0.31 0 0 0 -0.07 0.43c0.18 0.36 0.35 0.88 0.61 1.44a4.3 4.3 0 0 0 0.33 0.6Z" fill="#4C57E6" stroke-width="1"></path>
    <path d="M3.53 14.49a4.49 4.49 0 0 0 0.24 0.42c0.19 0.31 0.41 0.6 0.63 0.93a0.35 0.35 0 1 0 0.65 -0.27c-0.09 -0.4 -0.16 -0.77 -0.27 -1.12 0 -0.16 -0.11 -0.32 -0.17 -0.46a4.16 4.16 0 0 0 -0.23 -0.42c-0.23 -0.35 -0.48 -0.61 -0.67 -0.91a0.31 0.31 0 1 0 -0.58 0.22A8.06 8.06 0 0 0 3.35 14a4.22 4.22 0 0 0 0.18 0.49Z" fill="#4C57E6" stroke-width="1"></path>
    <path d="M17.62 16.71c-0.18 0.14 -0.44 0.3 -0.72 0.53a3.19 3.19 0 0 0 -0.26 0.26 1.91 1.91 0 0 0 -0.22 0.3 7.05 7.05 0 0 0 -0.37 0.83 0.31 0.31 0 0 0 0.48 0.4 7.06 7.06 0 0 0 0.75 -0.49 1.66 1.66 0 0 0 0.26 -0.27 3.46 3.46 0 0 0 0.22 -0.31c0.18 -0.31 0.3 -0.6 0.4 -0.8a0.35 0.35 0 0 0 -0.05 -0.49 0.34 0.34 0 0 0 -0.49 0.04Z" fill="#4C57E6" stroke-width="1"></path>
    <path d="M22.63 15.21c-0.34 0.4 -0.84 0.88 -1.34 1.45a12 12 0 0 0 -0.84 1c-0.45 0.64 -0.8 1.33 -1.14 1.92a0.3 0.3 0 0 0 0.06 0.43 0.31 0.31 0 0 0 0.43 -0.01c0.42 -0.42 0.92 -0.86 1.38 -1.36 0.19 -0.2 0.37 -0.42 0.54 -0.63s0.33 -0.45 0.48 -0.68c0.42 -0.63 0.76 -1.23 1 -1.69a0.35 0.35 0 1 0 -0.58 -0.4Z" fill="#4C57E6" stroke-width="1"></path>
  </g>
</svg>