<svg xmlns="http://www.w3.org/2000/svg" viewBox="0 0 24 24" id="Chef-Gear-Apron--Streamline-Freehand">
  <desc>
    Chef Gear Apron Streamline Icon: https://streamlinehq.com
  </desc>
  <g>
    <path d="M23.52 6.06a1.29 1.29 0 0 0 -1.72 -0.61 2.27 2.27 0 0 0 -0.92 0.79 8.16 8.16 0 0 0 -0.72 1.34c-0.23 0.51 -0.42 1 -0.64 1.51a15 15 0 0 0 -1.43 -5.15A14.79 14.79 0 0 0 16.49 1a0.92 0.92 0 0 0 -0.75 -0.39 0.56 0.56 0 0 0 -0.39 0.22 2.09 2.09 0 0 0 -0.27 0.62c-0.35 1.1 -0.88 3.8 -1.24 4.67a2.51 2.51 0 0 1 -1 1.21 1.36 1.36 0 0 1 -1.37 0 2.05 2.05 0 0 1 -0.7 -0.68 1.78 1.78 0 0 1 -0.37 -0.86 13.89 13.89 0 0 1 0 -1.6 6.65 6.65 0 0 1 0.36 -1.53 7.72 7.72 0 0 0 0.51 -1.6 0.82 0.82 0 0 0 -0.48 -1C10.51 0 9.79 0.32 9 0.91a15.2 15.2 0 0 0 -2.83 2.92 0.3 0.3 0 1 0 0.55 0.25A13 13 0 0 1 9 1.79a7.17 7.17 0 0 1 1.24 -0.86c0.16 -0.08 0.28 -0.16 0.36 -0.12s0 0.07 0 0.13a2.41 2.41 0 0 1 -0.1 0.46c-0.12 0.38 -0.31 0.79 -0.41 1a7.49 7.49 0 0 0 -0.43 1.69 15.54 15.54 0 0 0 -0.1 1.7 2.76 2.76 0 0 0 0.5 1.34 2.88 2.88 0 0 0 1 1 2.21 2.21 0 0 0 2.23 0A3.48 3.48 0 0 0 14.7 6.5c0.35 -0.8 0.88 -3.11 1.25 -4.37l0.06 0.09A24.43 24.43 0 0 1 17.69 6a8.67 8.67 0 0 1 0.68 3.19c-0.18 1.4 -0.32 2.42 -0.5 3.42s-0.39 2 -0.72 3.38a15.75 15.75 0 0 1 -1 3.27 6.39 6.39 0 0 1 -1.24 1.79 6.06 6.06 0 0 1 -3.57 1.73 5.54 5.54 0 0 1 -3.85 -0.92A5.89 5.89 0 0 1 6 20.37a11.65 11.65 0 0 1 -1 -1.92 8.72 8.72 0 0 1 -0.7 -3.1 27.48 27.48 0 0 1 0.36 -4.93A10.22 10.22 0 0 1 5 8.6c0.18 -0.6 0.4 -1.15 0.65 -1.77l0.75 -2.12a0.35 0.35 0 0 0 -0.18 -0.45 0.34 0.34 0 0 0 -0.45 0.19L5 6.56a18.79 18.79 0 0 0 -0.7 1.82 11.05 11.05 0 0 0 -0.44 1.93c0 0.34 -0.09 0.67 -0.13 1a3.22 3.22 0 0 1 -1.82 0.14c-0.46 -0.14 -0.74 -0.53 -0.77 -1.27l0.07 -0.8a4.76 4.76 0 0 1 0.71 -1.47 19.86 19.86 0 0 0 1.5 -2.4 3.64 3.64 0 0 0 0.36 -2.15 0.35 0.35 0 1 0 -0.69 0.07 3 3 0 0 1 -0.44 1.68C2.2 5.87 1.52 6.52 1 7.27a5.51 5.51 0 0 0 -0.91 1.84A2.94 2.94 0 0 0 0 10.29a2.21 2.21 0 0 0 1.15 1.83A3.19 3.19 0 0 0 3.63 12a21.39 21.39 0 0 0 -0.21 3.38 9.56 9.56 0 0 0 0.71 3.42 11.71 11.71 0 0 0 1.38 2.48 6.28 6.28 0 0 0 1.38 1.39 6.56 6.56 0 0 0 4.54 1.17 7.05 7.05 0 0 0 5.71 -4.09 16.77 16.77 0 0 0 1.14 -3.49c0.33 -1.4 0.55 -2.42 0.74 -3.44 0.12 -0.69 0.22 -1.39 0.33 -2.2a5.67 5.67 0 0 0 0.6 -0.79c0.37 -0.59 0.64 -1.24 1 -1.88a6.86 6.86 0 0 1 0.72 -1.11 1.26 1.26 0 0 1 0.52 -0.42c0.27 -0.1 0.37 0.17 0.47 0.41a3 3 0 0 1 0.19 1.24 7.2 7.2 0 0 1 -0.92 2.39 15.73 15.73 0 0 0 -1.74 3.94 3.28 3.28 0 0 0 0.88 3.11 0.34 0.34 0 0 0 0.48 0 0.35 0.35 0 0 0 0 -0.49A2.54 2.54 0 0 1 21 14.6a16 16 0 0 1 1.9 -3.6A7.73 7.73 0 0 0 24 8.21a4 4 0 0 0 -0.48 -2.15Z" fill="#020202" fill-rule="evenodd" stroke-width="1"></path>
    <path d="M7.92 13a0.31 0.31 0 0 0 -0.17 -0.39 0.31 0.31 0 0 0 -0.4 0.18A6.37 6.37 0 0 0 7 14a12.26 12.26 0 0 0 -0.21 1.93 12.65 12.65 0 0 0 0 1.63A4.44 4.44 0 0 0 7 18.72a3.71 3.71 0 0 0 4.3 2.49 5 5 0 0 0 3.88 -3.27 13 13 0 0 0 0.75 -2.19 1.22 1.22 0 0 0 -0.19 -0.94 3.14 3.14 0 0 0 -0.92 -0.71 7 7 0 0 0 -1.48 -0.56l-4.6 -0.94a0.35 0.35 0 0 0 -0.42 0.25 0.36 0.36 0 0 0 0.25 0.42c1.06 0.29 2.13 0.5 3.19 0.77 0.45 0.11 0.89 0.23 1.33 0.36a8.14 8.14 0 0 1 1.06 0.43 2.71 2.71 0 0 1 0.77 0.59s0 0.11 0 0.17a3 3 0 0 1 -0.22 0.69c-0.21 0.54 -0.49 1.07 -0.57 1.29a4 4 0 0 1 -3 2.51 2.76 2.76 0 0 1 -3.23 -1.71 3.42 3.42 0 0 1 -0.24 -0.9A9.68 9.68 0 0 1 7.55 16a12.73 12.73 0 0 1 0 -1.52A6.26 6.26 0 0 1 7.92 13Z" fill="#4C57E6" fill-rule="evenodd" stroke-width="1"></path>
  </g>
</svg>