<svg xmlns="http://www.w3.org/2000/svg" viewBox="0 0 24 24" id="Chicken-Hatch--Streamline-Freehand">
  <desc>
    Chicken Hatch Streamline Icon: https://streamlinehq.com
  </desc>
  <g>
    <path d="M21.56 12.43s-0.36 1.64 -0.46 2.14a8.62 8.62 0 0 1 -0.35 1.3 10.94 10.94 0 0 1 -2.18 3.53 11.65 11.65 0 0 1 -3.26 2.53 8.18 8.18 0 0 1 -1.22 0.53 8 8 0 0 1 -1.28 0.34 9 9 0 0 1 -2.55 0.1 7.69 7.69 0 0 1 -2.43 -0.67 9.11 9.11 0 0 1 -3.16 -2.66 11.57 11.57 0 0 1 -1.92 -3.76 3.89 3.89 0 0 1 -0.15 -1.07c0 -0.2 -0.09 -0.75 -0.08 -1 0 0 -0.27 -0.39 -0.54 0.09a4.27 4.27 0 0 0 0 0.88A5.09 5.09 0 0 0 2.11 16 12.2 12.2 0 0 0 4 20.07a9.82 9.82 0 0 0 3.39 3.07 8.36 8.36 0 0 0 2.77 0.8 9.7 9.7 0 0 0 2.85 -0.1 10.24 10.24 0 0 0 1.44 -0.4 11.64 11.64 0 0 0 1.35 -0.61A12.61 12.61 0 0 0 19.23 20a11.63 11.63 0 0 0 2.21 -3.87 8.88 8.88 0 0 0 0.34 -1.42c0.11 -0.69 0.17 -1.39 0.27 -2.09 0.02 -0.18 -0.18 -0.52 -0.49 -0.19Z" fill="#020202" fill-rule="evenodd" stroke-width="1"></path>
    <path d="m3.32 14.55 1.37 0.67c0.09 0 0.31 0.18 0.48 0.25a0.92 0.92 0 0 0 0.25 0 1.62 1.62 0 0 0 0.47 -0.09 3.87 3.87 0 0 0 0.5 -0.25 8.65 8.65 0 0 0 0.76 -0.47 7.87 7.87 0 0 0 0.71 -0.55l0.8 -0.68 0.08 -0.06 0.48 0.32 2 1.38c0.49 0.35 0.92 0.68 1 0.71a0.63 0.63 0 0 0 0.31 0 1.74 1.74 0 0 0 0.58 -0.2 3.54 3.54 0 0 0 0.64 -0.46l1.72 -1.71a3.13 3.13 0 0 0 0.47 -0.34l0.65 0.36a9.27 9.27 0 0 1 1 0.64c0.32 0.24 0.62 0.48 0.91 0.73l0.48 0.48a0.53 0.53 0 0 0 0.37 0.06 1.78 1.78 0 0 0 0.41 -0.19 2 2 0 0 0 0.37 -0.32 4.48 4.48 0 0 0 0.39 -0.53l0.5 -0.84 0.35 -0.6c0.29 -0.34 0 -1.54 -0.9 0.21l-0.55 0.82a4.5 4.5 0 0 1 -0.28 0.37 1 1 0 0 1 -0.29 0.24l-0.35 -0.23c-0.29 -0.27 -0.59 -0.55 -0.91 -0.81a12.3 12.3 0 0 0 -1 -0.74l-0.89 -0.53a1.3 1.3 0 0 0 -0.28 -0.15 0.66 0.66 0 0 0 -0.28 0 1 1 0 0 0 -0.31 0.17 6.57 6.57 0 0 0 -0.57 0.52l-1.71 1.63a2.51 2.51 0 0 1 -0.38 0.29l-0.15 0.08 -0.73 -0.52 -2 -1.34a4.92 4.92 0 0 0 -0.64 -0.38 1.23 1.23 0 0 0 -0.47 -0.11 0.48 0.48 0 0 0 -0.26 0.07 2.12 2.12 0 0 0 -0.34 0.27l-0.81 0.76c-0.19 0.18 -0.39 0.36 -0.6 0.53a5.29 5.29 0 0 1 -0.67 0.49 1.91 1.91 0 0 1 -0.33 0.2 0.53 0.53 0 0 1 -0.24 0.08l-0.48 -0.21L3.6 14c-0.43 -0.29 -0.44 -0.4 -0.75 -0.42s-0.34 0.36 -0.08 0.65Z" fill="#4C57E6" fill-rule="evenodd" stroke-width="1"></path>
    <path d="M6 13.21a0.26 0.26 0 0 0 0.26 -0.28l0 -1.73c0.06 -0.87 0.14 -1.74 0.22 -2.61a11.44 11.44 0 0 1 0.31 -2.1 4 4 0 0 1 0.54 -1.2A5 5 0 0 1 10 3.42a6.51 6.51 0 0 1 3.27 -0.29 5.65 5.65 0 0 1 1.2 0.34c1.68 0.73 2.12 3 2.13 3.11a28.9 28.9 0 0 1 0.27 4.42 0.32 0.32 0 0 0 0.63 0l0 -2a0.38 0.38 0 0 0 0.18 0l1.05 -0.47 0.65 -0.3 0.43 -0.27c0.59 -0.46 0.53 -0.9 0.3 -1.26s-1.32 -0.82 -1.79 -1c0.09 -0.15 0.18 -0.3 0.26 -0.46a2.33 2.33 0 0 0 0.21 -0.49 2.56 2.56 0 0 0 0.11 -0.46 2.5 2.5 0 0 0 0 -0.47 2.76 2.76 0 0 0 -0.21 -1.19 0.65 0.65 0 0 0 -0.56 -0.37 2 2 0 0 0 -0.95 0.3 7 7 0 0 0 -1 0.73l-0.18 0.09a3.6 3.6 0 0 0 -0.84 -0.66 5.77 5.77 0 0 0 -1.7 -0.61 7.56 7.56 0 0 0 -3 0.09l0 -0.33a2 2 0 0 1 0.26 -0.72 1.55 1.55 0 0 1 0.54 -0.55 0.32 0.32 0 0 0 0.16 -0.42A0.32 0.32 0 0 0 11 0a2.17 2.17 0 0 0 -0.91 0.63 2.21 2.21 0 0 0 -0.46 0.68A1.72 1.72 0 0 0 9.09 1 2.83 2.83 0 0 0 7.87 0.91a0.26 0.26 0 0 0 -0.28 0.26 0.28 0.28 0 0 0 0.26 0.29 2.55 2.55 0 0 1 0.78 0.2 0.91 0.91 0 0 1 0.42 0.46 4.64 4.64 0 0 1 0.19 0.49A5.75 5.75 0 0 0 6.6 4.77a5.07 5.07 0 0 0 -0.6 1.5 13.31 13.31 0 0 0 -0.21 2.27c0 0.89 -0.07 1.76 -0.08 2.63l0 1.77a0.29 0.29 0 0 0 0.29 0.27Zm13.06 -6.3a1.27 1.27 0 0 1 0.26 0.15s0 0.09 -0.09 0.14l-0.23 0.25 -0.55 0.31 -0.93 0.52a11.27 11.27 0 0 0 -0.13 -1.85 0.7 0.7 0 0 0 0 -0.14 5.14 5.14 0 0 0 0.51 0.19 9.38 9.38 0 0 1 1.19 0.43Zm-1.45 -3.77a1.29 1.29 0 0 1 0.44 -0.14 2.63 2.63 0 0 1 -0.08 0.6l-0.15 0.68 -0.47 0.88s-0.14 0.19 -0.2 0.29a5.64 5.64 0 0 0 -0.77 -1.58l0.25 -0.19a6 6 0 0 1 0.98 -0.54Z" fill="#020202" fill-rule="evenodd" stroke-width="1"></path>
    <path d="M10.76 6.71a0.87 0.87 0 0 0 0.94 0.93 0.84 0.84 0 0 0 0.69 -1.07c-0.23 -0.86 -1.58 -1.12 -1.63 0.14Z" fill="#020202" fill-rule="evenodd" stroke-width="1"></path>
  </g>
</svg>