<svg xmlns="http://www.w3.org/2000/svg" viewBox="0 0 24 24" id="Circus-Ball-Juggling-2--Streamline-Freehand">
  <desc>
    Circus Ball Juggling 2 Streamline Icon: https://streamlinehq.com
  </desc>
  <title>circus-ball-juggling-2</title>
  <g>
    <path d="M12.38 13.47A3.9 3.9 0 0 1 12 14a0.92 0.92 0 0 1 -0.26 0.22 0.94 0.94 0 0 1 -0.53 0.16 1.68 1.68 0 0 1 -0.63 -0.05 2.1 2.1 0 0 1 -0.88 -0.45 0.3 0.3 0 0 0 -0.41 -0.07 0.3 0.3 0 0 0 -0.06 0.4 2.49 2.49 0 0 0 1.23 1.14 1.66 1.66 0 0 0 0.45 0.12A1.79 1.79 0 0 0 12.4 15a2.28 2.28 0 0 0 0.33 -0.5c0.1 -0.23 0.17 -0.47 0.25 -0.71a0.33 0.33 0 0 0 -0.17 -0.43 0.33 0.33 0 0 0 -0.43 0.11Z" fill="#020202" fill-rule="evenodd" stroke-width="1"></path>
    <path d="M14.12 11.35a1.59 1.59 0 0 0 -1 -0.87 1 1 0 0 0 -0.39 0 1.16 1.16 0 0 0 -0.56 0.18 1.38 1.38 0 0 0 -0.57 1 0.28 0.28 0 0 0 0.17 0.37 0.27 0.27 0 0 0 0.36 -0.17 0.73 0.73 0 0 1 0.68 -0.31 0.94 0.94 0 0 1 0.77 0.2 0.33 0.33 0 1 0 0.52 -0.39Z" fill="#020202" fill-rule="evenodd" stroke-width="1"></path>
    <path d="M9.39 11.89a1 1 0 0 1 0.51 0.1 0.33 0.33 0 0 0 0.46 0 0.32 0.32 0 0 0 0 -0.46 1.54 1.54 0 0 0 -1.06 -0.64 0.77 0.77 0 0 0 -0.37 0 1.09 1.09 0 0 0 -0.47 0.26 1.7 1.7 0 0 0 -0.45 0.93 0.29 0.29 0 0 0 0.13 0.39 0.28 0.28 0 0 0 0.38 -0.13A1.68 1.68 0 0 1 9 12a0.68 0.68 0 0 1 0.2 -0.07 0.66 0.66 0 0 1 0.19 -0.04Z" fill="#020202" fill-rule="evenodd" stroke-width="1"></path>
    <path d="M20.88 16.13a1.79 1.79 0 0 0 -1.37 -0.13c-0.73 0.21 -1.43 0.9 -2.09 1.13a3.51 3.51 0 0 1 -1.74 0.15 6.14 6.14 0 0 1 -1.56 -0.47 5.55 5.55 0 0 0 1.72 -2.7 4.74 4.74 0 0 0 -1.05 -4.71 4.52 4.52 0 0 0 -2.13 -1.19 4.66 4.66 0 0 0 -4.74 1.13 4.38 4.38 0 0 0 -1.21 1.81 6.75 6.75 0 0 0 -0.35 1.65 4.88 4.88 0 0 0 0.16 1.74 4.33 4.33 0 0 0 1.33 2.08 6.6 6.6 0 0 1 -1.08 0.46 3.37 3.37 0 0 1 -1.24 0.09 18.22 18.22 0 0 0 -2 -0.37 1.86 1.86 0 0 0 -1.09 0.39A2.1 2.1 0 0 0 1.62 19a2.72 2.72 0 0 0 0.67 1.73 4.61 4.61 0 0 0 2 1.23 5 5 0 0 0 2.3 0.16 0.33 0.33 0 0 0 -0.09 -0.65 4.16 4.16 0 0 1 -1.93 -0.29 3.75 3.75 0 0 1 -1.52 -1.11A1.75 1.75 0 0 1 2.71 19a1.08 1.08 0 0 1 0.35 -0.9 1.07 1.07 0 0 1 0.72 -0.21c0.56 0 1.16 0.19 1.71 0.19A4.22 4.22 0 0 0 7 17.75a6.46 6.46 0 0 0 1.28 -0.7s0 0 0.05 -0.07a4.42 4.42 0 0 0 0.54 0.34 5.15 5.15 0 0 0 3.63 0.35 3.92 3.92 0 0 0 1.1 -0.5 7 7 0 0 0 2.33 0.85A4.24 4.24 0 0 0 17.7 18c0.58 -0.16 1.21 -0.63 1.83 -0.88a0.91 0.91 0 0 1 0.82 0 1.14 1.14 0 0 1 0.55 1.15 2.27 2.27 0 0 1 -0.6 1.43 3.9 3.9 0 0 1 -1.92 1 7.06 7.06 0 0 1 -2.33 0.12 0.32 0.32 0 0 0 -0.37 0.27 0.33 0.33 0 0 0 0.28 0.37 7.69 7.69 0 0 0 2.58 0A4.85 4.85 0 0 0 21 20.39a3.28 3.28 0 0 0 1 -2.57 2.1 2.1 0 0 0 -1.12 -1.69Zm-8.68 0.48a4.19 4.19 0 0 1 -2.88 -0.24 3.59 3.59 0 0 1 -1.92 -2.1 4 4 0 0 1 -0.21 -1.42 6.11 6.11 0 0 1 0.25 -1.47 3.71 3.71 0 0 1 0.94 -1.57c0.47 -0.49 1.48 -1.6 4.08 -0.87a3.64 3.64 0 0 1 1.71 1 3.84 3.84 0 0 1 0.67 3.82 4.06 4.06 0 0 1 -2.64 2.85Z" fill="#020202" fill-rule="evenodd" stroke-width="1"></path>
    <path d="M3.63 13.25a3 3 0 0 0 1.26 -1.08 2.69 2.69 0 0 0 0.43 -1.62 2.52 2.52 0 0 0 -1.25 -2.14C2.55 7.6 0 9.05 0 11a2.49 2.49 0 0 0 1.2 2.06 2.54 2.54 0 0 0 2.43 0.19ZM0.87 11a2 2 0 0 1 2.79 -1.89 1.65 1.65 0 0 1 0.68 1.45 1.8 1.8 0 0 1 -0.34 1 2 2 0 0 1 -0.85 0.69 1.51 1.51 0 0 1 -1.41 -0.11A1.58 1.58 0 0 1 0.87 11Z" fill="#020202" fill-rule="evenodd" stroke-width="1"></path>
    <path d="M11.4 6.35a3 3 0 0 0 1.89 0.25 2.29 2.29 0 0 0 1.52 -3.2c-1.06 -2.88 -3.92 -1.08 -4.34 -0.49a2.53 2.53 0 0 0 -0.29 2 2.37 2.37 0 0 0 1.22 1.44ZM11 3.48c0.23 -0.7 2.36 -1.8 2.95 0.21 0.21 0.74 0 1.66 -0.88 1.83a1.88 1.88 0 0 1 -1.19 -0.13A1.42 1.42 0 0 1 11 4.6a1.72 1.72 0 0 1 0 -1.12Z" fill="#020202" fill-rule="evenodd" stroke-width="1"></path>
    <path d="M23.9 10.39c-0.94 -3 -5.84 -2.49 -4.47 0.87a2.53 2.53 0 0 0 3.05 1.51 1.82 1.82 0 0 0 1.42 -2.38Zm-1.74 1.33a1.39 1.39 0 0 1 -1.25 -0.17 2 2 0 0 1 -0.64 -0.67c-1.05 -2 1.51 -2.52 2.54 -0.65a0.94 0.94 0 0 1 -0.65 1.49Z" fill="#020202" fill-rule="evenodd" stroke-width="1"></path>
    <path d="M13 18.31a1.33 1.33 0 0 0 -1.05 0.18l-0.75 0.57 0 0.05a3.09 3.09 0 0 0 -0.77 -0.28 1.4 1.4 0 0 0 -0.83 0.07 1.66 1.66 0 0 0 -0.88 1.45A2 2 0 0 0 9.24 22a0.88 0.88 0 0 0 0.92 0.11 3.43 3.43 0 0 0 1 -0.71 0.16 0.16 0 0 0 0 -0.06l0.16 0.18a1.4 1.4 0 0 0 0.48 0.29 1.24 1.24 0 0 0 0.84 0 2.27 2.27 0 0 0 1.09 -2.6 1.19 1.19 0 0 0 -0.73 -0.9Zm-0.7 2.46c-0.14 0.05 -0.2 -0.05 -0.26 -0.11a2.92 2.92 0 0 0 -0.38 -0.32 1.29 1.29 0 0 0 -0.54 -0.2 0.58 0.58 0 0 0 -0.47 0.17 2.82 2.82 0 0 0 -0.26 0.32c-0.19 0.18 -0.81 1.17 -0.83 -0.24 0 -0.34 0 -0.69 0.3 -0.82a0.71 0.71 0 0 1 0.42 -0.09 3.45 3.45 0 0 1 0.83 0.25c0.16 0.07 0.19 0 1.18 -0.6a0.62 0.62 0 0 1 0.46 -0.07c0.19 0.08 0.2 0.35 0.2 0.61a1.15 1.15 0 0 1 -0.65 1.1Z" fill="#4C57E6" fill-rule="evenodd" stroke-width="1"></path>
  </g>
</svg>