<svg xmlns="http://www.w3.org/2000/svg" viewBox="0 0 24 24" id="Circus-Ball-Juggling-1--Streamline-Freehand">
  <desc>
    Circus Ball Juggling 1 Streamline Icon: https://streamlinehq.com
  </desc>
  <title>circus-ball-juggling-1</title>
  <g>
    <path d="M10.51 18.86a2.13 2.13 0 0 0 -1.2 -0.43l-0.34 0 -0.08 0c0 -0.06 0 -0.12 -0.05 -0.18a2 2 0 0 0 -0.17 -0.4 1.94 1.94 0 0 0 -1 -0.93 1.7 1.7 0 0 0 -1.42 0.11 1.07 1.07 0 0 0 -0.25 0.17l0 -0.09a2 2 0 0 0 -0.55 -0.8 1.54 1.54 0 0 0 -0.93 -0.39 1.91 1.91 0 0 0 -1.36 0.48 2.42 2.42 0 0 0 -0.29 -0.58 2 2 0 0 0 -0.55 -0.52 1.2 1.2 0 0 0 -1.51 0A2.21 2.21 0 0 0 0 17.1a3 3 0 0 0 0.36 1.09A13.59 13.59 0 0 0 1.82 20l0.08 0a4.6 4.6 0 0 0 1.31 1.77A6.05 6.05 0 0 0 5.59 23a5.77 5.77 0 0 0 0.83 0.15c0.58 0.07 1.18 0.09 1.76 0.2a2.57 2.57 0 0 0 2.46 -0.87 2.86 2.86 0 0 0 0.59 -2.48 2 2 0 0 0 -0.72 -1.14ZM1.09 17a1.3 1.3 0 0 1 0.22 -0.85 0.36 0.36 0 0 1 0.5 -0.13 1.16 1.16 0 0 1 0.49 0.36 3.23 3.23 0 0 1 0.31 0.54 4.08 4.08 0 0 0 -0.28 0.44 3.59 3.59 0 0 0 -0.4 1.66 11.41 11.41 0 0 1 -0.58 -1A2.35 2.35 0 0 1 1.09 17Zm8.74 4.79a1.62 1.62 0 0 1 -1.48 0.6c-0.61 -0.1 -1.23 -0.09 -1.84 -0.14a5.67 5.67 0 0 1 -0.72 -0.09 5.26 5.26 0 0 1 -2.1 -1 2.51 2.51 0 0 1 -0.76 -3.48 1.62 1.62 0 0 1 1.47 -1 0.73 0.73 0 0 1 0.45 0.21 1.29 1.29 0 0 1 0.27 0.47l0.09 0.41c0.09 0 0 0.22 0 0.29a0.49 0.49 0 0 0 0.13 0.3 0.44 0.44 0 0 0 0.64 0.07l0.68 -0.54a0.75 0.75 0 0 1 0.62 0 1 1 0 0 1 0.47 0.46l0.12 0.44a1.76 1.76 0 0 0 0 0.32 0.67 0.67 0 0 0 0.1 0.32 0.55 0.55 0 0 0 0.63 0.23l0.28 -0.1 0.4 -0.08a1.08 1.08 0 0 1 0.58 0.21 1 1 0 0 1 0.33 0.49 1.8 1.8 0 0 1 -0.36 1.64Z" fill="#020202" fill-rule="evenodd" stroke-width="1"></path>
    <path d="M9 13.92a3.53 3.53 0 0 0 1.56 -1.85 3 3 0 0 0 -0.16 -2.42A4 4 0 0 0 8.52 8a3.17 3.17 0 0 0 -4.08 4.42A3.21 3.21 0 0 0 9 13.92Zm-0.82 -5.19a3.14 3.14 0 0 1 1.41 1.32 2.13 2.13 0 0 1 0 1.66A2.49 2.49 0 0 1 8.48 13a2.26 2.26 0 0 1 -3.22 -1 2.25 2.25 0 0 1 2.92 -3.27Z" fill="#4C57E6" fill-rule="evenodd" stroke-width="1"></path>
    <path d="M14.31 3.64A2.83 2.83 0 0 0 13 1.12 3 3 0 0 0 8.26 3.8a2.68 2.68 0 0 0 3.08 2.91 3.88 3.88 0 0 0 2 -1 3.1 3.1 0 0 0 0.97 -2.07Zm-1.7 1.29a2.74 2.74 0 0 1 -1.44 0.69c-1.29 0.24 -1.95 -0.78 -2 -1.85a2.08 2.08 0 0 1 3.41 -2 2 2 0 0 1 0.78 1.79 2.11 2.11 0 0 1 -0.75 1.37Z" fill="#4C57E6" fill-rule="evenodd" stroke-width="1"></path>
    <path d="M17 12.11a3.29 3.29 0 0 0 0.77 -0.24 4.79 4.79 0 0 0 0.68 -0.42 5 5 0 0 0 0.59 -0.54 4 4 0 0 0 0.52 -0.65 3.35 3.35 0 0 0 0.29 -2.77 2.64 2.64 0 0 0 -2.12 -1.79 3.38 3.38 0 0 0 -2.12 0.3c-2.93 1.42 -2.33 3.22 -2.18 3.76A3.19 3.19 0 0 0 17 12.11Zm-2.76 -2.64c-0.55 -1.59 1.43 -3.37 3.32 -2.93a1.75 1.75 0 0 1 1.31 1.27 2.23 2.23 0 0 1 -0.27 1.87 2.86 2.86 0 0 1 -0.38 0.48 3.89 3.89 0 0 1 -0.48 0.43 2.74 2.74 0 0 1 -0.46 0.29 1.72 1.72 0 0 1 -0.5 0.16 2.23 2.23 0 0 1 -2.54 -1.57Z" fill="#4C57E6" fill-rule="evenodd" stroke-width="1"></path>
    <path d="M23.85 11.69a2.5 2.5 0 0 0 -1.2 -1.29 1.13 1.13 0 0 0 -1.41 0.32 1.34 1.34 0 0 0 -0.25 0.49 5 5 0 0 0 -0.09 0.9v0.27a1.43 1.43 0 0 0 -1.79 0.3l-0.4 0.56a2.86 2.86 0 0 0 -0.21 0.58 2.53 2.53 0 0 0 -0.06 0.61 0.44 0.44 0 0 0 0 0.09h-0.62a2.51 2.51 0 0 0 -1.38 0.53 2.25 2.25 0 0 0 -0.74 1.34 2 2 0 0 0 0 0.55 3.18 3.18 0 0 0 0.06 0.43l-0.32 0.1a1.59 1.59 0 0 0 -0.41 0.21 1.7 1.7 0 0 0 -0.76 1.32 3.78 3.78 0 0 0 0.39 1.86 1.5 1.5 0 0 0 1.08 0.8 5.3 5.3 0 0 0 2.32 -0.35l0.78 -0.27A16.82 16.82 0 0 0 20.91 20a9 9 0 0 0 1.8 -1.55 4.76 4.76 0 0 0 0.77 -1.14 2.31 2.31 0 0 0 0.2 -1 2.16 2.16 0 0 0 -0.17 -0.75 6 6 0 0 0 -0.28 -0.57 4.72 4.72 0 0 0 0.77 -1.8 3 3 0 0 0 -0.15 -1.5Zm-2.07 0a0.67 0.67 0 0 1 0.16 -0.29c0.13 -0.13 0.27 0 0.39 0.06a1.6 1.6 0 0 1 0.52 0.63 2.29 2.29 0 0 1 0.17 1.3 3.79 3.79 0 0 1 -0.27 1 2.9 2.9 0 0 0 -0.19 -0.29 7.16 7.16 0 0 0 -1 -1.24l0.11 -0.63a5.18 5.18 0 0 1 0.11 -0.55Zm0.94 5.44a3.76 3.76 0 0 1 -0.59 0.76 7.34 7.34 0 0 1 -1.69 1.33 14 14 0 0 1 -2 0.95l-0.66 0.21a7.73 7.73 0 0 1 -1.39 0.28c-0.32 0 -0.65 0 -0.79 -0.27a2.63 2.63 0 0 1 -0.26 -1.07 0.79 0.79 0 0 1 0.23 -0.73l0.67 -0.24a1.92 1.92 0 0 0 0.43 -0.16 0.67 0.67 0 0 0 0.21 -0.25 0.64 0.64 0 0 0 0 -0.36c0 -0.1 -0.13 -0.36 -0.14 -0.41a0.92 0.92 0 0 1 -0.05 -0.28 1.22 1.22 0 0 1 0 -0.33 1.15 1.15 0 0 1 0.38 -0.71 1.43 1.43 0 0 1 0.8 -0.35l0.86 0a1.64 1.64 0 0 0 0.35 -0.08 0.56 0.56 0 0 0 0.28 -0.57c0 -0.12 -0.08 -0.42 -0.08 -0.44a1.36 1.36 0 0 1 0 -0.4 1.29 1.29 0 0 1 0.12 -0.38l0.22 -0.36a0.71 0.71 0 0 1 0.88 -0.2 5.2 5.2 0 0 1 1.5 1.39q0.27 0.36 0.51 0.72l0.19 0.29c0.05 0.11 0.1 0.21 0.14 0.32a1.55 1.55 0 0 1 0.1 0.52 1.67 1.67 0 0 1 -0.22 0.81Z" fill="#020202" fill-rule="evenodd" stroke-width="1"></path>
  </g>
</svg>