<svg xmlns="http://www.w3.org/2000/svg" viewBox="0 0 24 24" id="Cleaning-Scrubing-Sponge--Streamline-Freehand">
  <desc>
    Cleaning Scrubing Sponge Streamline Icon: https://streamlinehq.com
  </desc>
  <title>cleaning-scrubing-sponge</title>
  <g>
    <path d="M0.48 18.43a2.58 2.58 0 0 0 0.71 1.07 6.81 6.81 0 0 0 2.88 1 37.39 37.39 0 0 0 6.57 0.51c4.16 0 8.3 -0.61 9.35 -1.65a3.28 3.28 0 0 0 0.81 -1.45 7.64 7.64 0 0 0 0.2 -2.24 8.48 8.48 0 0 0 -0.06 -1.34c-0.05 -0.43 -0.13 -0.85 -0.22 -1.29a0.34 0.34 0 0 0 -0.41 -0.27 0.35 0.35 0 0 0 -0.28 0.41 10.73 10.73 0 0 1 0.18 1.23 8.32 8.32 0 0 1 0 1.23 6.87 6.87 0 0 1 -0.2 2.07l0 0.09a2.37 2.37 0 0 0 -1.42 -1.67 2.42 2.42 0 0 0 -1.28 -0.13 2.79 2.79 0 0 0 -1.62 0.89 2.94 2.94 0 0 0 -0.53 1.58 2 2 0 0 0 0.37 1.3 44.65 44.65 0 0 1 -4.88 0.17 47.19 47.19 0 0 1 -5.52 -0.41 0.35 0.35 0 0 0 0.12 -0.17 2.57 2.57 0 0 1 0.67 -1 1.28 1.28 0 0 1 0.91 -0.36 1.45 1.45 0 0 1 1.17 0.28 1.76 1.76 0 0 1 0.54 1.21 0.35 0.35 0 0 0 0.34 0.35 0.34 0.34 0 0 0 0.36 -0.34 2.48 2.48 0 0 0 -0.51 -1.93 2.37 2.37 0 0 0 -2 -0.73 2.28 2.28 0 0 0 -1.3 0.61 3.07 3.07 0 0 0 -0.79 1.74 0.3 0.3 0 0 0 0.06 0.26l-0.42 -0.07A5.86 5.86 0 0 1 2 18.61a1.53 1.53 0 0 1 -0.44 -0.77 6.33 6.33 0 0 1 -0.17 -1.12 8 8 0 0 1 0.18 -2.86 3.67 3.67 0 0 1 1.5 -2.16 2.78 2.78 0 0 1 0.42 -0.22l0 0.06a1.83 1.83 0 0 0 -0.17 1.17 1.57 1.57 0 0 0 0.78 1.07 2.37 2.37 0 0 0 1.74 0.14 3.41 3.41 0 0 0 1.41 -0.83 1.74 1.74 0 0 0 0.48 -1.27 1.6 1.6 0 0 0 -0.39 -1c0.67 0 1.33 -0.07 2 -0.06a17.06 17.06 0 0 1 2.57 0.24 4.13 4.13 0 0 0 -0.32 0.75 2.36 2.36 0 0 0 0.41 2.53 2.2 2.2 0 0 0 2.84 0.39 7.89 7.89 0 0 0 2.51 -2.89l0.27 -0.71 1 0.11a8.74 8.74 0 0 0 2 -0.21 15.14 15.14 0 0 0 1.86 -0.53c0.06 0 0.73 -0.22 1 -0.34a0.47 0.47 0 0 0 0.29 -0.38 0.35 0.35 0 0 0 -0.35 -0.35c-0.09 0 -2.33 0.66 -2.94 0.75a8.05 8.05 0 0 1 -1.77 0.08l-0.77 -0.13 -0.28 -0.13A0.56 0.56 0 0 0 17 10a1.16 1.16 0 0 0 -0.24 0.32c-0.14 0.26 -0.23 0.64 -0.36 0.86a6.92 6.92 0 0 1 -2.11 2.43 1.19 1.19 0 0 1 -1.5 -0.17 1.36 1.36 0 0 1 -0.31 -1.43 6.86 6.86 0 0 1 1.43 -2.58l0.88 -0.88s0.21 -0.1 0.21 -0.15a0.39 0.39 0 0 0 0.14 -0.31 0.32 0.32 0 0 0 -0.35 -0.26c-0.04 0.01 -1.4 1.17 -1.4 1.17a9.3 9.3 0 0 0 -1.17 1.47 17.44 17.44 0 0 0 -2.89 -0.37l-1.32 0 0.45 -1a9.44 9.44 0 0 1 1.19 -1.72 4 4 0 0 1 1 -0.83 8.46 8.46 0 0 1 2.25 -0.86 13 13 0 0 1 2.43 -0.36c0.69 0 1.48 0 2.23 -0.14a6 6 0 0 0 1.56 -0.41 2.93 2.93 0 0 0 0.52 -0.42C20.38 3.65 22 2 22.72 1.21l0.33 -0.34A0.29 0.29 0 0 0 23.2 0.6s-0.2 -0.45 -0.55 -0.2l-0.38 0.33c-1 0.85 -3.32 3 -3.52 3.1a4.8 4.8 0 0 1 -1 0.21c-0.84 0.11 -1.74 0.09 -2.51 0.12a13 13 0 0 0 -2.66 0.42 8.93 8.93 0 0 0 -2.5 1.1A5.3 5.3 0 0 0 9 6.78a10.16 10.16 0 0 0 -1.19 2L7.27 10l0 0.1 -1.15 0a13.14 13.14 0 0 0 -2.12 0.26 5.15 5.15 0 0 0 -1.41 0.53 4.58 4.58 0 0 0 -1.81 2 8.2 8.2 0 0 0 -0.55 3.89 6.54 6.54 0 0 0 0.25 1.65Zm15.7 1.14a1.16 1.16 0 0 1 -0.16 -1 1.82 1.82 0 0 1 0.51 -0.92 1.78 1.78 0 0 1 1 -0.5 1.75 1.75 0 0 1 0.72 0 1.72 1.72 0 0 1 1.18 1.47 0.38 0.38 0 0 0 0 0.1l0 0.06a5.17 5.17 0 0 1 -2.37 0.8l-0.8 0.11a0.21 0.21 0 0 0 -0.08 -0.12Zm-10 -8.63 0.41 0a0.31 0.31 0 0 0 0.1 0.24 0.87 0.87 0 0 1 0.2 0.66 0.74 0.74 0 0 1 -0.31 0.52 2.81 2.81 0 0 1 -1 0.46 1.47 1.47 0 0 1 -1 0 0.6 0.6 0 0 1 -0.37 -0.32 1 1 0 0 1 -0.05 -0.65 1.57 1.57 0 0 1 0.09 -0.23 0.55 0.55 0 0 1 0.15 -0.19 0.3 0.3 0 0 0 0.12 -0.21 15 15 0 0 1 1.61 -0.28Z" fill="#020202" stroke-width="1"></path>
    <path d="M23.65 22.59c-1.25 0 -4.61 -0.12 -8.4 -0.12 -1.83 0 -3.76 0 -5.6 0.05 -3.6 0.1 -6.86 0.31 -8.4 0.4L0.4 23H0.29l-0.14 0a0.27 0.27 0 0 0 -0.07 0.44 0.3 0.3 0 0 0 0.3 0.12H1l6.3 0.08 2.61 0c1.29 0 2.62 0 3.92 -0.06 4.34 -0.11 8.39 -0.3 9.79 -0.33a0.35 0.35 0 0 0 0 -0.7Z" fill="#4C57E6" stroke-width="1"></path>
  </g>
</svg>