<svg xmlns="http://www.w3.org/2000/svg" viewBox="0 0 24 24" id="Cleaning-Vacuum-1--Streamline-Freehand">
  <desc>
    Cleaning Vacuum 1 Streamline Icon: https://streamlinehq.com
  </desc>
  <g>
    <path d="M12.83 10.16a8 8 0 0 0 -1.33 3.19 25.2 25.2 0 0 0 -0.5 3.75c0 0.61 0.71 0.11 0.83 -0.35s0.15 -0.46 0.29 -1.11l3.19 -2.36 1.67 -1.64c0.46 -0.57 0.52 -0.86 0 -0.87s-0.72 0.55 -1.31 0.9c-0.36 0.21 -0.71 0.45 -1 0.69s-0.67 0.52 -1 0.81 -0.84 0.84 -1.24 1.28q0.09 -0.43 0.21 -0.84a7.67 7.67 0 0 1 1.15 -2.72 9.39 9.39 0 0 1 2 -2 12.39 12.39 0 0 1 1.73 -1.11c0.43 -0.22 0.5 -0.75 0.11 -0.75a12.67 12.67 0 0 0 -2.86 1.43 10.46 10.46 0 0 0 -1.94 1.7Z" fill="#4C57E6" fill-rule="evenodd" stroke-width="1"></path>
    <path d="M24 1.87A2.1 2.1 0 0 0 22.83 0.23a3.79 3.79 0 0 0 -2.64 0 42 42 0 0 0 -4.86 1.7 16.57 16.57 0 0 0 -3 1.73c-1.23 0.91 -2.46 1.82 -3.63 2.8a25.09 25.09 0 0 0 -2.3 2.11 24.92 24.92 0 0 0 -3.14 3.94 14.31 14.31 0 0 0 -2 4.67 4.27 4.27 0 0 0 -0.08 0.87c0 0.62 0.08 1.25 0 1.85a0.34 0.34 0 0 0 0 0.17c-0.13 0.18 -0.28 0.41 -0.43 0.66A11.62 11.62 0 0 0 0 22.32a1.11 1.11 0 0 0 0.46 1A2.91 2.91 0 0 0 2 24a4.79 4.79 0 0 0 1.49 -0.46 28.58 28.58 0 0 0 2.91 -1.66c0.5 -0.28 1.04 -0.56 1.6 -0.88a12.31 12.31 0 0 0 1 -0.67c1.51 -1.1 3.13 -2 4.67 -3a21.28 21.28 0 0 0 1.95 -1.48A12.51 12.51 0 0 0 17 14.42a5.66 5.66 0 0 0 0.76 -1.16 10.63 10.63 0 0 0 0.73 -2 12.05 12.05 0 0 0 0.39 -2.07A10.39 10.39 0 0 0 19 8.1a4.17 4.17 0 0 0 2.3 -1.25 3 3 0 0 0 0.7 -1.3 3.18 3.18 0 0 0 0.05 -1.07 4.4 4.4 0 0 0 1.25 -0.69 2 2 0 0 0 0.7 -1.92ZM3.43 22.54a5.73 5.73 0 0 1 -1.4 0.33 1.35 1.35 0 0 1 -0.51 -0.22c-0.47 -0.26 -0.59 0.06 0 -1.58a3.62 3.62 0 0 1 0.39 -0.83l1.89 1.54c0.16 0.12 0.34 0.3 0.53 0.43 -0.25 0.11 -0.57 0.22 -0.9 0.33Zm2.81 -2.8c-0.91 1.94 -0.8 2 -1.35 2a0.5 0.5 0 0 1 -0.21 -0.1c-0.17 -0.12 -0.33 -0.28 -0.47 -0.38 -0.56 -0.4 -1.07 -0.87 -1.6 -1.3 -0.22 -0.17 -0.44 -0.34 -0.67 -0.49l0 -1.4a3.45 3.45 0 0 1 0.06 -0.73c0.26 -1.16 1.42 -4.54 3.43 -5.76A3.7 3.7 0 0 1 7.25 11a1.66 1.66 0 0 1 1.24 0.56 1.85 1.85 0 0 1 0.56 1.24 3.53 3.53 0 0 1 -0.18 1.2 11.35 11.35 0 0 1 -0.81 1.83ZM21.11 5.28a3.24 3.24 0 0 1 -0.5 1A3.6 3.6 0 0 1 19 7.44a2.58 2.58 0 0 1 0.24 -0.87 3.63 3.63 0 0 1 0.8 -1 4.57 4.57 0 0 1 1.09 -0.72l0.14 -0.06c-0.06 0.21 -0.11 0.34 -0.16 0.49Zm1.44 -2.35a8.27 8.27 0 0 1 -1.92 0.9 5.53 5.53 0 0 0 -1.37 0.91 4 4 0 0 0 -1.05 1.31 6.6 6.6 0 0 0 -0.39 3.06 11.21 11.21 0 0 1 -0.94 3.7 4.93 4.93 0 0 1 -0.62 1A12.17 12.17 0 0 1 15 15.1a21.17 21.17 0 0 1 -1.83 1.45c-0.48 0.34 -3.85 2.58 -4.61 3.16 -0.31 0.24 -0.63 0.45 -1 0.66s-0.75 0.43 -1.13 0.65l0.5 -0.91L9 16.34a11.34 11.34 0 0 0 1 -2 4.76 4.76 0 0 0 0.23 -1.58 3 3 0 0 0 -0.95 -2 2.7 2.7 0 0 0 -2.07 -0.72 4.42 4.42 0 0 0 -1.28 0.37C6.28 10 6.66 9.59 7 9.2a28 28 0 0 1 2.23 -2c1.18 -1 2.41 -1.82 3.64 -2.7a15.15 15.15 0 0 1 2.86 -1.57 41.32 41.32 0 0 1 4.74 -1.6 3.4 3.4 0 0 1 1.58 -0.16 1 1 0 0 1 0.72 0.88 0.88 0.88 0 0 1 -0.22 0.88Z" fill="#020202" fill-rule="evenodd" stroke-width="1"></path>
    <path d="M15.79 4.52a14.37 14.37 0 0 0 -3.09 1.69 10.76 10.76 0 0 0 -1.1 0.9 12.88 12.88 0 0 0 -1.4 1.58 0.3 0.3 0 0 0 0 0.43 0.31 0.31 0 0 0 0.43 0c0.49 -0.45 1 -0.86 1.57 -1.29s1 -0.85 1.58 -1.25a17.2 17.2 0 0 1 2.28 -1.42 0.34 0.34 0 1 0 -0.28 -0.62Z" fill="#4C57E6" fill-rule="evenodd" stroke-width="1"></path>
  </g>
</svg>