<svg xmlns="http://www.w3.org/2000/svg" viewBox="0 0 24 24" id="Cleaning-Scrubing-Brush--Streamline-Freehand">
  <desc>
    Cleaning Scrubing Brush Streamline Icon: https://streamlinehq.com
  </desc>
  <title>cleaning-scrubing-brush</title>
  <g>
    <path d="M22.46 10.08a4.8 4.8 0 0 1 -1.17 0.14 23.67 23.67 0 0 1 -2.61 -0.08 1.16 1.16 0 0 0 -0.69 0.12 21.91 21.91 0 0 1 -3.24 3.19 4.26 4.26 0 0 1 -1.17 0.64 0.86 0.86 0 0 1 -0.88 -0.09 1.38 1.38 0 0 1 -0.32 -1.47 7.12 7.12 0 0 1 1.47 -2.66l0.91 -0.92 0.24 -0.2a0.39 0.39 0 0 0 0.14 -0.31 0.31 0.31 0 0 0 -0.36 -0.27 13.3 13.3 0 0 0 -1.48 1.15 9.39 9.39 0 0 0 -1.16 1.44 18.39 18.39 0 0 0 -2.39 -0.26 38.31 38.31 0 0 0 -4 0l-0.41 0 0.45 -0.95A9.29 9.29 0 0 1 7 7.79a4.54 4.54 0 0 1 1 -0.87A8.64 8.64 0 0 1 10.38 6a13.81 13.81 0 0 1 2.51 -0.36c0.69 0 2.3 -0.08 3.75 -0.22A10.15 10.15 0 0 0 19.23 5c0.22 -0.1 2.71 -2.66 3.72 -3.67l0.34 -0.34a0.32 0.32 0 0 0 0.15 -0.28c0 -0.05 -0.24 -0.46 -0.57 -0.2 -0.07 0 -0.2 0.18 -0.39 0.34 -1 0.88 -3.42 3.15 -3.64 3.22a7.63 7.63 0 0 1 -1.7 0.25c-1.56 0.13 -3.54 0.17 -4.33 0.21a13.76 13.76 0 0 0 -2.73 0.45 9.38 9.38 0 0 0 -2.57 1.08 5.23 5.23 0 0 0 -1.22 1.13 10.23 10.23 0 0 0 -1.23 2l-0.51 1.28 -0.07 0.14a8.87 8.87 0 0 0 -0.9 0.14 5 5 0 0 0 -1.45 0.55 4.23 4.23 0 0 0 -1.79 2.6 14.1 14.1 0 0 0 -0.29 4.44 0.67 0.67 0 0 0 0.25 0.45c-0.07 0.33 -0.14 0.67 -0.2 1s0 0.42 -0.06 0.64 0 0.43 0 0.65a8.86 8.86 0 0 0 0.33 1.5 0.31 0.31 0 0 0 0.34 0.29 0.32 0.32 0 0 0 0.29 -0.32c0 -0.47 0.14 -0.94 0.2 -1.44l0 -0.62 0 -0.62c0 -0.2 0 -0.48 -0.06 -0.73l0.36 0.08c0.38 0.07 0.86 0.14 1.41 0.21 -0.05 0.24 -0.09 0.47 -0.13 0.72a3.79 3.79 0 0 0 0 0.58 3.88 3.88 0 0 0 0 0.59 11.26 11.26 0 0 0 0.3 1.36 0.32 0.32 0 0 0 0.34 0.29 0.31 0.31 0 0 0 0.3 -0.33c0 -0.44 0.16 -0.86 0.22 -1.32a5.44 5.44 0 0 0 0 -0.57 3.46 3.46 0 0 0 0 -0.56c0 -0.22 0 -0.44 -0.07 -0.65 0.57 0.06 1.2 0.12 1.87 0.17 0 0.25 -0.1 0.51 -0.14 0.78a5.42 5.42 0 0 0 -0.06 0.58 3.76 3.76 0 0 0 0 0.58A9.77 9.77 0 0 0 5.89 23a0.32 0.32 0 0 0 0.34 0.29 0.31 0.31 0 0 0 0.29 -0.29c0.06 -0.43 0.17 -0.85 0.23 -1.31a5.44 5.44 0 0 0 0 -0.57l0 -0.57c0 -0.19 0 -0.5 -0.09 -0.74l1.76 0.1c0 0.19 -0.08 0.39 -0.11 0.6a5.42 5.42 0 0 0 -0.06 0.58 3.76 3.76 0 0 0 0 0.58A9.77 9.77 0 0 0 8.59 23a0.32 0.32 0 0 0 0.34 0.29 0.31 0.31 0 0 0 0.29 -0.29c0.06 -0.43 0.17 -0.85 0.23 -1.32a5.12 5.12 0 0 0 0 -0.56l0 -0.57c0 -0.19 0 -0.39 -0.07 -0.59 0.62 0 1.25 0 1.88 0.06 -0.06 0.27 -0.12 0.54 -0.16 0.83a3.79 3.79 0 0 0 0 0.58 3.84 3.84 0 0 0 0 0.59 11.26 11.26 0 0 0 0.3 1.36 0.32 0.32 0 0 0 0.64 0c0.05 -0.44 0.16 -0.86 0.22 -1.32a5.4 5.4 0 0 0 0 -0.56 3.62 3.62 0 0 0 0 -0.57c0 -0.3 -0.06 -0.58 -0.09 -0.85l1.86 0c0 0.25 -0.1 0.51 -0.14 0.77a3.79 3.79 0 0 0 -0.05 0.58 3.84 3.84 0 0 0 0 0.59 11.26 11.26 0 0 0 0.3 1.36 0.33 0.33 0 0 0 0.34 0.3 0.32 0.32 0 0 0 0.3 -0.34c0.05 -0.44 0.16 -0.86 0.22 -1.32a5.25 5.25 0 0 0 0 -0.56 3.62 3.62 0 0 0 0 -0.57c0 -0.28 -0.06 -0.56 -0.09 -0.82 0.7 0 1.37 0 2 -0.08 -0.06 0.28 -0.12 0.57 -0.16 0.86a5.9 5.9 0 0 0 -0.06 0.59 3.76 3.76 0 0 0 0 0.58 9.63 9.63 0 0 0 0.3 1.36 0.32 0.32 0 1 0 0.63 0c0.06 -0.44 0.17 -0.86 0.23 -1.32a5.12 5.12 0 0 0 0 -0.56l0 -0.57c0 -0.19 -0.07 -0.64 -0.11 -0.95 0.49 0 1 -0.07 1.39 -0.12l0.48 -0.06c-0.07 0.32 -0.14 0.65 -0.19 1s-0.05 0.39 -0.06 0.58a3.82 3.82 0 0 0 0 0.59 9.63 9.63 0 0 0 0.3 1.36 0.32 0.32 0 1 0 0.63 0c0.06 -0.44 0.17 -0.86 0.23 -1.32a5.25 5.25 0 0 0 0 -0.56l0 -0.57c0 -0.4 -0.09 -0.78 -0.14 -1.15a8.13 8.13 0 0 0 1.56 -0.4c0 0.25 -0.1 0.51 -0.14 0.78a3.68 3.68 0 0 0 -0.05 0.58 3.75 3.75 0 0 0 0 0.58 11.26 11.26 0 0 0 0.3 1.36 0.33 0.33 0 0 0 0.34 0.3 0.32 0.32 0 0 0 0.3 -0.34c0.05 -0.43 0.16 -0.86 0.22 -1.32a5.12 5.12 0 0 0 0 -0.56 3.62 3.62 0 0 0 0 -0.57c0 -0.47 -0.11 -0.91 -0.16 -1.34a0.16 0.16 0 0 0 0 -0.1 1.85 1.85 0 0 0 0.16 -0.44 9.13 9.13 0 0 0 0.19 -2.45 5.59 5.59 0 0 0 -0.85 -3 4.1 4.1 0 0 0 -2 -1.39 3.18 3.18 0 0 0 -0.33 -0.09h0.38a8.76 8.76 0 0 0 2.21 -0.31 9.41 9.41 0 0 0 1 -0.36 0.48 0.48 0 0 0 0.3 -0.39c0.19 -0.99 -1.33 -0.19 -1.35 -0.19Zm-0.71 3.07a4 4 0 0 1 0.57 2 9.22 9.22 0 0 1 -0.16 2.63 1.15 1.15 0 0 1 -0.14 0.37c-0.85 0.51 -3.27 0.66 -6.16 0.71a102.15 102.15 0 0 1 -13.69 -0.7c-0.36 -0.05 -0.76 -0.07 -1 -0.11a12.24 12.24 0 0 1 0.15 -3.85 3.32 3.32 0 0 1 1.28 -2.06 4 4 0 0 1 1.17 -0.48 13.59 13.59 0 0 1 2 -0.3 36.24 36.24 0 0 1 3.92 -0.13 19.85 19.85 0 0 1 2.06 0.15 5 5 0 0 0 -0.37 0.87 2.41 2.41 0 0 0 0.48 2.58 2.28 2.28 0 0 0 2.86 0.09A9.85 9.85 0 0 0 17 13.08c0.45 -0.47 0.83 -0.93 1.13 -1.3h0.05a5 5 0 0 1 2 0.19 3.34 3.34 0 0 1 1.57 1.18Z" fill="#020202" stroke-width="1"></path>
    <path d="M3.55 15.5a3.24 3.24 0 0 1 1.28 -2.06A3.88 3.88 0 0 1 6 13l0.69 -0.16c0.7 -0.2 0.55 -0.59 0.05 -0.77a4.45 4.45 0 0 0 -1 0.06 5 5 0 0 0 -1.45 0.55 4.23 4.23 0 0 0 -1.79 2.59c0 0.13 0 0.27 -0.08 0.4 0 0.89 0.81 0.83 1 0.49a6.17 6.17 0 0 1 0.13 -0.66Z" fill="#4C57E6" stroke-width="1"></path>
  </g>
</svg>