<svg xmlns="http://www.w3.org/2000/svg" viewBox="0 0 24 24" id="Clean-Car-Solar-Powered-Car-Sun--Streamline-Freehand">
  <desc>
    Clean Car Solar Powered Car Sun Streamline Icon: https://streamlinehq.com
  </desc>
  <g>
    <path d="M14.34 14.37a1.56 1.56 0 0 0 0.48 1.16 2.37 2.37 0 0 0 1.74 0.5l1.17 -0.12 0.88 -0.19c0.5 -0.11 0.21 -0.67 -0.15 -0.7l-0.79 0 -1.09 -0.05a2.21 2.21 0 0 1 -0.72 -0.13 0.45 0.45 0 0 1 -0.32 -0.23 5.45 5.45 0 0 1 -0.2 -1.57l-0.23 -1.34a0.32 0.32 0 0 0 -0.6 0.09c0 0.35 -0.06 1.29 -0.06 1.29 -0.02 0.45 -0.12 0.92 -0.11 1.29Z" fill="#4C57E6" stroke-width="1"></path>
    <path d="M23.61 18.12a3.18 3.18 0 0 0 -1 -2.31l-2.73 -1a17.84 17.84 0 0 1 -0.53 -3 2.45 2.45 0 0 0 -0.54 -1.19 1.62 1.62 0 0 0 -0.92 -0.38 11.15 11.15 0 0 0 -1.56 0l-3.74 0a24.27 24.27 0 0 0 -2.54 0.18 3.53 3.53 0 0 0 -0.83 0.18 1.72 1.72 0 0 0 -0.6 0.35 1.53 1.53 0 0 0 -0.36 0.5 4.51 4.51 0 0 0 -0.28 1c-0.09 0.42 -0.2 1 -0.35 1.56a3.44 3.44 0 0 1 -0.34 0.88l-0.53 0.31c-0.46 0.27 -1.18 0.54 -1.72 0.92a2.35 2.35 0 0 0 -0.71 0.69 1.48 1.48 0 0 0 -0.13 0.35 5.44 5.44 0 0 0 0 0.57l0 1.86A7.48 7.48 0 0 0 4.24 21a1.25 1.25 0 0 0 0.33 0.66 1 1 0 0 0 0.54 0.15 6 6 0 0 0 0.84 0 2.32 2.32 0 0 0 0.22 0.59 2.74 2.74 0 0 0 0.87 0.92 3.9 3.9 0 0 0 1.64 0.55 6.55 6.55 0 0 0 0.89 0 3.62 3.62 0 0 0 0.92 -0.16 1.62 1.62 0 0 0 0.92 -0.72 2.8 2.8 0 0 0 0.29 -1.24c0.35 0 0.82 0.1 1.42 0.14a5.2 5.2 0 0 0 0.69 0 5.32 5.32 0 0 0 0.69 0c0.33 0 0.66 -0.1 1 -0.16a2.3 2.3 0 0 0 0.24 0.77 2.56 2.56 0 0 0 0.88 0.91 3.82 3.82 0 0 0 1.63 0.56 5.26 5.26 0 0 0 0.89 0 3.47 3.47 0 0 0 0.92 -0.15 1.64 1.64 0 0 0 0.92 -0.73 2.77 2.77 0 0 0 0.3 -1.3 10 10 0 0 0 1.22 0.05 2.08 2.08 0 0 0 0.85 -0.15 0.87 0.87 0 0 0 0.28 -0.54 11.33 11.33 0 0 0 -0.02 -3.03Zm-12.78 4.31a0.86 0.86 0 0 1 -0.58 0.46 2.28 2.28 0 0 1 -0.69 0.06 4.41 4.41 0 0 1 -0.73 -0.09 3.1 3.1 0 0 1 -1 -0.37 1.72 1.72 0 0 1 -0.65 -0.66 1.39 1.39 0 0 1 0 -1.21 1.73 1.73 0 0 1 0.88 -0.94 2.11 2.11 0 0 1 2 0 2.18 2.18 0 0 1 0.77 2.75Zm9.55 0.12a0.86 0.86 0 0 1 -0.58 0.46 2.65 2.65 0 0 1 -0.69 0.06 6.06 6.06 0 0 1 -0.73 -0.09 3.13 3.13 0 0 1 -1 -0.38 1.65 1.65 0 0 1 -0.65 -0.66 1.37 1.37 0 0 1 0 -1.2 1.76 1.76 0 0 1 0.88 -0.94 2.11 2.11 0 0 1 2 0 2.18 2.18 0 0 1 0.77 2.75Zm2.51 -1.81c0 0.14 0 0.29 -0.05 0.37a4.53 4.53 0 0 1 -0.81 0l-0.83 0a3 3 0 0 0 -1.11 -2 3 3 0 0 0 -2.84 -0.31 2.79 2.79 0 0 0 -1.57 1.49 3 3 0 0 0 -0.19 0.65c-0.33 -0.06 -0.67 -0.12 -1 -0.15a5.48 5.48 0 0 0 -0.7 0 5.09 5.09 0 0 0 -0.69 0c-0.62 0.07 -1.1 0.16 -1.45 0.21a3 3 0 0 0 -1.11 -2 3 3 0 0 0 -2.84 -0.31 2.84 2.84 0 0 0 -1.57 1.5 2.66 2.66 0 0 0 -0.23 1 5.12 5.12 0 0 1 -0.89 0H5a0.87 0.87 0 0 1 -0.11 -0.42l0 -1.05L5 17.9l0 -0.52a1.75 1.75 0 0 1 0.69 -0.54c0.5 -0.28 1 -0.45 1.33 -0.7a3.27 3.27 0 0 0 1.49 -1.67c0.2 -0.87 0.35 -1.15 0.47 -1.66 0.05 -0.17 0.09 -0.39 0.16 -0.59a0.71 0.71 0 0 1 0.18 -0.32 0.73 0.73 0 0 1 0.32 -0.15 3.15 3.15 0 0 1 0.52 -0.09c0.23 0 0.26 -0.26 5.8 -0.26l1.59 0c0.17 0 0.34 0 0.43 0.08a1.88 1.88 0 0 1 0.32 0.93c0.16 0.75 0.25 1.6 0.36 2 0.27 1 0.42 1.26 1.28 1.51s2 0.6 2.23 0.69 0.2 0.22 0.28 0.42a5.53 5.53 0 0 1 0.3 1.17 11.73 11.73 0 0 1 0.14 2.54Z" fill="#020202" stroke-width="1"></path>
    <path d="M11.71 16.22a2 2 0 0 0 0.91 -1.39 14.76 14.76 0 0 0 0 -3 0.32 0.32 0 0 0 -0.61 0.05c-0.15 0.29 -0.18 1.42 -0.4 2.36a3.53 3.53 0 0 1 -0.22 0.65 0.75 0.75 0 0 1 -0.27 0.35 2.08 2.08 0 0 1 -1.08 0.15c-0.62 0 -1.11 0 -1.61 -0.06s-0.68 0.45 -0.4 0.58a15.62 15.62 0 0 0 2.3 0.55 2.56 2.56 0 0 0 1.38 -0.24Z" fill="#4C57E6" stroke-width="1"></path>
    <path d="M7.37 7a2.5 2.5 0 0 0 0.24 -2.94 1.82 1.82 0 0 0 -0.68 -0.58 3.87 3.87 0 0 0 -2.75 -0.15 2.41 2.41 0 0 0 -1.44 1.5A2.38 2.38 0 0 0 3 6.74 2.85 2.85 0 0 0 4.49 8a2.67 2.67 0 0 0 2.88 -1ZM4 6.14a1.4 1.4 0 0 1 -0.3 -1.07 1.5 1.5 0 0 1 0.8 -1 2.1 2.1 0 0 1 2.39 0.45 1.58 1.58 0 0 1 -0.33 1.82 1.59 1.59 0 0 1 -1.69 0.55A1.73 1.73 0 0 1 4 6.14Z" fill="#020202" stroke-width="1"></path>
    <path d="M5.14 1.91a0.36 0.36 0 0 0 0.42 0.26c0.21 0 0.23 -0.14 0.4 -0.89a0.76 0.76 0 0 0 0 -0.21A0.5 0.5 0 0 0 6 0.86S5.73 0 5.45 0s-0.56 0.74 -0.59 0.82a1 1 0 0 0 0 0.25 0.73 0.73 0 0 0 0 0.25 2.43 2.43 0 0 0 0.28 0.59Z" fill="#020202" stroke-width="1"></path>
    <path d="M5.51 8.83s-0.29 0 -0.36 0.94a0.87 0.87 0 0 0 0 0.23 1.8 1.8 0 0 0 0.08 0.21c0.32 0.73 0.42 0.82 0.64 0.8s0.35 0 0.44 -1a1.07 1.07 0 0 0 0 -0.25 0.88 0.88 0 0 0 -0.07 -0.23c-0.04 -0.06 -0.47 -0.76 -0.73 -0.7Z" fill="#020202" stroke-width="1"></path>
    <path d="M1.63 2.67a0.54 0.54 0 0 0 -0.14 -0.16 0.66 0.66 0 0 0 -0.17 -0.12c-0.08 0 -0.81 -0.27 -1 -0.06 0 0 -0.23 0.15 0.25 0.92l0.14 0.15 0.18 0.11c0.79 0.34 0.91 0.21 1 0.09s0.21 -0.22 -0.26 -0.93Z" fill="#020202" stroke-width="1"></path>
    <path d="M0.89 7.71a0.56 0.56 0 0 0 -0.17 0.09 0.38 0.38 0 0 0 -0.11 0.14s-0.33 0.71 -0.13 0.9c0 0 0.1 0.22 0.87 -0.07a0.3 0.3 0 0 0 0.13 -0.09s0.54 -0.74 0.33 -1c-0.04 -0.06 -0.12 -0.26 -0.92 0.03Z" fill="#020202" stroke-width="1"></path>
    <path d="M9.85 3a1.09 1.09 0 0 0 0.15 -0.17 0.62 0.62 0 0 0 0.14 -0.18s0.33 -0.8 0.09 -1c0 0 -0.12 -0.22 -0.91 0.23L9.18 2a1 1 0 0 0 -0.11 0.17c-0.37 0.68 -0.34 0.85 -0.19 1s0.21 0.21 0.97 -0.17Z" fill="#020202" stroke-width="1"></path>
    <path d="M9.21 7.8a1 1 0 0 0 0.28 0.2s0.94 0.34 1.12 0c0 0 0.18 -0.13 -0.41 -0.87A0.8 0.8 0 0 0 10 7a1.06 1.06 0 0 0 -0.21 -0.11c-1 -0.33 -1.05 0 -1.09 0s-0.07 0.3 0.51 0.91Z" fill="#020202" stroke-width="1"></path>
  </g>
</svg>