<svg xmlns="http://www.w3.org/2000/svg" viewBox="0 0 24 24" id="Cleaning-Mopping-2--Streamline-Freehand">
  <desc>
    Cleaning Mopping 2 Streamline Icon: https://streamlinehq.com
  </desc>
  <title>cleaning-mopping-2</title>
  <g>
    <path d="M12.21 19.86a20.73 20.73 0 0 0 -2.28 -0.14 6 6 0 0 0 -0.66 -2.15 0.37 0.37 0 0 0 0.13 -0.12L17.4 4a5.13 5.13 0 0 0 0.89 -2.21A1.38 1.38 0 0 0 17.6 0.52 1.79 1.79 0 0 0 16 0.27a4.16 4.16 0 0 0 -1.53 1.32 39.38 39.38 0 0 0 -3.65 5.8 101.1 101.1 0 0 0 -4.47 9.1 2.26 2.26 0 0 0 -1.24 1.24 5.68 5.68 0 0 0 -0.44 2 10.32 10.32 0 0 0 -3 0.21A3.74 3.74 0 0 0 0.15 22c-0.28 0.66 -0.14 1.21 0.23 1.36a37.75 37.75 0 0 0 6.91 0.46 41.48 41.48 0 0 0 6.94 -0.38c0.59 -0.2 0.83 -0.93 0.34 -1.79a4 4 0 0 0 -2.36 -1.79ZM10.83 9.32a52.22 52.22 0 0 1 4.5 -7 4.27 4.27 0 0 1 0.9 -0.9 0.67 0.67 0 0 1 0.77 0.08c0.24 0.15 0.15 0.42 0.06 0.67a6.76 6.76 0 0 1 -0.63 1.22L8.84 17l-0.08 -0.1a2.64 2.64 0 0 0 -1.7 -0.54c0.67 -1.36 2.17 -4.23 3.77 -7.04Zm-5 9.18a3 3 0 0 1 0.57 -0.76 0.58 0.58 0 0 1 0.33 -0.18 1.7 1.7 0 0 1 1.64 0.44 4.58 4.58 0 0 1 0.83 1.7l-3.26 0 -0.57 0a5.4 5.4 0 0 1 0.45 -1.2Zm0.1 4.28a37.94 37.94 0 0 1 -5.17 -0.09 5.57 5.57 0 0 1 0.46 -1.22 2 2 0 0 1 0.85 -0.79A23.16 23.16 0 0 1 7 20.59a42.13 42.13 0 0 1 5 0.32A2.76 2.76 0 0 1 13.46 22l0.23 0.35a34.53 34.53 0 0 1 -3.71 0.27c-1.28 0.08 -2.71 0.13 -4.06 0.16Z" fill="#020202" stroke-width="1"></path>
    <path d="M17.79 19.58c0.62 0 1.24 -0.14 1.85 -0.22A0.35 0.35 0 0 0 20 19a0.35 0.35 0 0 0 -0.35 -0.34c-0.62 -0.05 -1.23 -0.13 -1.85 -0.18l-0.79 0 -0.8 0c-0.7 0.07 -1.31 0.2 -1.86 0.3a0.3 0.3 0 0 0 -0.28 0.32 0.29 0.29 0 0 0 0.31 0.29c0.54 0 1.16 0.15 1.85 0.2l0.79 0c0.27 0 0.5 0.02 0.77 -0.01Z" fill="#4C57E6" stroke-width="1"></path>
    <path d="M23.18 21.5c-0.69 -0.08 -1.53 -0.2 -2.4 -0.25a14.55 14.55 0 0 0 -1.61 0 11.56 11.56 0 0 0 -2.75 0.38 0.3 0.3 0 1 0 0.18 0.58c0.2 0 1.1 0.09 2.24 0.16l1 0 1 0c0.84 0 1.66 -0.12 2.33 -0.16a0.34 0.34 0 1 0 0 -0.68Z" fill="#4C57E6" stroke-width="1"></path>
    <path d="M23.74 18.65a3.28 3.28 0 0 0 -0.95 -0.31 1.53 1.53 0 0 0 -0.37 0c-0.08 0 -0.78 0.06 -0.86 0.08s-0.8 0.36 0 0.78a4.48 4.48 0 0 0 0.58 0.23 1.68 1.68 0 0 0 0.24 0.06 1.37 1.37 0 0 0 0.35 0c0.4 0 0.72 -0.16 0.84 -0.16a0.36 0.36 0 0 0 0.42 -0.25 0.34 0.34 0 0 0 -0.25 -0.43Z" fill="#4C57E6" stroke-width="1"></path>
  </g>
</svg>