<svg xmlns="http://www.w3.org/2000/svg" viewBox="0 0 24 24" id="Cleaning-Pressure-Wash-2--Streamline-Freehand">
  <desc>
    Cleaning Pressure Wash 2 Streamline Icon: https://streamlinehq.com
  </desc>
  <title>cleaning-pressure-wash-2</title>
  <g>
    <path d="M13.93 15.26c-0.2 -1.13 -0.45 -2.31 -0.71 -3.41 -0.31 -1.29 -0.65 -2.47 -0.93 -3.36a5.6 5.6 0 0 0 -0.82 -1.84 5 5 0 0 0 -1.79 -0.55 24.5 24.5 0 0 0 -3.31 -0.27 9.39 9.39 0 0 0 -0.27 -3A1.83 1.83 0 0 0 5 1.61a2.67 2.67 0 0 0 0 -0.85 0.8 0.8 0 0 0 -0.3 -0.45A3.62 3.62 0 0 0 3.39 0.06C2.44 0 1.18 0 0.87 0A0.55 0.55 0 0 0 0.4 0.57c0 0.24 -0.14 0.83 -0.14 1.3a1.34 1.34 0 0 0 0.22 0.81 3 3 0 0 0 1.63 0.53A12.56 12.56 0 0 0 4 3.29a1 1 0 0 0 0.53 -0.14 1 1 0 0 0 0.32 -0.5A2.61 2.61 0 0 0 5 2.28a1.64 1.64 0 0 1 0.51 1.21 16.44 16.44 0 0 1 -0.15 3l-0.51 7.4c0 0.91 -0.12 1.84 -0.15 2.76l0 0.81a0.86 0.86 0 0 0 -0.17 0 3.45 3.45 0 0 0 -1.06 0.41 3.54 3.54 0 0 0 -1.28 1.66A3.27 3.27 0 0 0 2 21.65a3.41 3.41 0 0 0 1.67 2 4 4 0 0 0 2.47 0.32A3 3 0 0 0 7.7 23a1.47 1.47 0 0 0 0.32 0 18.39 18.39 0 0 0 3.57 -0.49 4.72 4.72 0 0 0 2.63 -1.27 3 3 0 0 0 0.24 -1.38 28.11 28.11 0 0 0 -0.53 -4.6ZM3.83 2.12a19.66 19.66 0 0 1 -2.08 0c-0.28 0 -0.38 0 -0.64 -0.07A1 1 0 0 1 1 1.67l0 -0.95c0.39 0 1.19 0.13 1.9 0.24a5.92 5.92 0 0 1 1.1 0.23Zm7 5.23s0.06 0.09 0.08 0.16a12.73 12.73 0 0 1 0.38 1.27c0.19 0.73 0.41 1.66 0.63 2.68a9.55 9.55 0 0 1 -1.85 0c-0.25 -0.06 -0.42 -0.24 -0.51 -0.61l-0.13 -0.75 -0.14 -1.2c-0.06 -0.37 -0.09 -0.68 -0.12 -1s0 -0.7 -0.07 -1.08a5.65 5.65 0 0 1 1.75 0.53ZM7.59 21.79A2.19 2.19 0 0 1 6 22.93a3.12 3.12 0 0 1 -1.81 -0.32 2.38 2.38 0 0 1 -1.09 -1.33 2.14 2.14 0 0 1 0.08 -1.36A2.51 2.51 0 0 1 4 18.73a2.54 2.54 0 0 1 0.74 -0.33 3.35 3.35 0 0 1 0.84 -0.18 2.36 2.36 0 0 1 1.42 0.29 2.51 2.51 0 0 1 0.59 3.28Zm5.77 -1c-0.2 0.37 -1 0.65 -2 0.91a17.68 17.68 0 0 1 -3.18 0.6 1.13 1.13 0 0 0 0.12 -0.18 3.77 3.77 0 0 0 -0.86 -4.31 3.17 3.17 0 0 0 -1.9 -0.54h-0.16l0 -0.65c0.09 -0.91 0.24 -1.83 0.35 -2.74 0.15 -1.47 0.38 -2.95 0.5 -4.44 0.08 -1 0.1 -2 0.09 -3 0.67 0 1.38 0.13 2.05 0.23 -0.06 0.53 -0.12 1 -0.16 1.46l0 0.81 0 1.27 0.19 0.95a1.75 1.75 0 0 0 1 1.14 2.36 2.36 0 0 0 1.25 0.09c0.47 -0.08 1 -0.23 1.4 -0.27 0.14 0.63 0.28 1.28 0.41 1.94h-0.73a3.39 3.39 0 0 0 -0.55 0 4.86 4.86 0 0 0 -0.55 0.11 11 11 0 0 0 -1.24 0.46 0.31 0.31 0 0 0 0.12 0.6c0.25 0 0.73 0.07 1.29 0a3.41 3.41 0 0 0 0.55 0l0.54 -0.12c0.28 -0.07 0.53 -0.15 0.75 -0.22 0 0.16 0.07 0.34 0.1 0.5 0.08 0.41 0.15 0.8 0.22 1.19l-0.86 0a3.55 3.55 0 0 0 -0.46 0 2.56 2.56 0 0 0 -0.48 0.1c-0.28 0.08 -0.5 0.2 -0.69 0.26s-0.44 0.05 -0.54 0.23a0.31 0.31 0 0 0 0.12 0.42 3.51 3.51 0 0 0 1.45 0.19 3.73 3.73 0 0 0 0.73 -0.13 7.7 7.7 0 0 0 0.86 -0.29 20.48 20.48 0 0 1 0.29 2.5 2 2 0 0 1 -0.02 0.96Z" fill="#020202" stroke-width="1"></path>
    <path d="M20.39 6.15a13.29 13.29 0 0 0 -0.06 -2 3.36 3.36 0 0 0 -0.69 -2C18.91 1.3 18 1.07 16.14 0.87A14.8 14.8 0 0 0 14.4 0.76a1.24 1.24 0 0 0 -1 1 3.19 3.19 0 0 0 0.06 1.8 1.22 1.22 0 0 0 0.84 0.66c0.62 0.19 1.66 0.15 2.31 0.41 0.25 0.56 0.4 1.89 0.64 2.41a1 1 0 0 0 0.8 0.44 3 3 0 0 0 0.52 0c0 0.58 0 1.68 -0.06 3l0 1.28c0 0.62 0 1.27 0.08 1.91 0.13 2 0.33 3.86 0.37 4.76a0.35 0.35 0 0 0 0.7 0c0 -0.91 0.12 -2.81 0.09 -4.81 0 -0.64 0 -1.28 -0.07 -1.91 0 -0.44 -0.07 -0.87 -0.11 -1.28 -0.13 -1.34 -0.27 -2.46 -0.33 -3a1.86 1.86 0 0 0 0.65 -0.18 1.6 1.6 0 0 0 0.5 -1.1Zm-1 -0.63a3.72 3.72 0 0 1 -0.13 0.8 5.45 5.45 0 0 1 -1.05 0.14c-0.17 -0.5 -0.28 -1.43 -0.46 -2a1.31 1.31 0 0 0 -0.58 -0.83 2.82 2.82 0 0 0 -0.76 -0.23c-0.5 -0.09 -1.07 -0.1 -1.54 -0.16a2.21 2.21 0 0 1 -0.4 -0.07s-0.08 -0.07 -0.1 0a2.15 2.15 0 0 1 -0.13 -0.94c0 -0.27 0 -0.56 0.25 -0.59a10.71 10.71 0 0 1 1.58 0c0.05 0 2.46 0.21 2.93 1.06a3.15 3.15 0 0 1 0.39 1.52c0.03 0.23 0.06 0.78 0.03 1.3Z" fill="#020202" stroke-width="1"></path>
    <path d="M16.26 20a3.42 3.42 0 0 0 -0.94 1.34 0.35 0.35 0 0 0 0 0.5 0.36 0.36 0 0 0 0.49 0c0.31 -0.24 0.63 -0.41 0.92 -0.67a7.4 7.4 0 0 0 0.89 -1.17c0.13 -0.4 -0.34 -0.8 -1.36 0Z" fill="#4C57E6" stroke-width="1"></path>
    <path d="M18.93 20.11s-0.23 0 -0.42 0.27l-0.39 0.56a3.74 3.74 0 0 0 -0.12 0.45 5.88 5.88 0 0 0 0 0.73 0.36 0.36 0 0 0 0.24 0.44 0.35 0.35 0 0 0 0.43 -0.24 4.09 4.09 0 0 0 0.4 -0.62 2.54 2.54 0 0 0 0.13 -0.45c-0.08 -1.16 -0.12 -1.1 -0.27 -1.14Z" fill="#4C57E6" stroke-width="1"></path>
    <path d="M21.43 21.3a2.92 2.92 0 0 0 -0.25 -0.54l-0.4 -0.42a1.77 1.77 0 0 0 -0.19 -0.18c-0.08 -0.05 -0.12 -0.09 -0.14 -0.09 -0.66 0 -0.17 1.51 -0.08 1.67a3.68 3.68 0 0 0 0.57 0.73 0.35 0.35 0 0 0 0.62 -0.32c-0.06 -0.29 -0.05 -0.56 -0.13 -0.85Z" fill="#4C57E6" stroke-width="1"></path>
    <path d="M23.56 19.83a5.14 5.14 0 0 0 -0.55 -0.5 1.8 1.8 0 0 0 -0.4 -0.23 2.13 2.13 0 0 0 -1.14 -0.1c-0.12 0.09 -0.09 0.23 0 0.49a1.73 1.73 0 0 0 0.58 0.66 1.75 1.75 0 0 0 0.44 0.2 5 5 0 0 0 0.72 0.12 0.35 0.35 0 0 0 0.47 -0.14 0.35 0.35 0 0 0 -0.12 -0.5Z" fill="#4C57E6" stroke-width="1"></path>
  </g>
</svg>