<svg xmlns="http://www.w3.org/2000/svg" viewBox="0 0 24 24" id="Clean-Car-Electric-Powered-Car-1--Streamline-Freehand">
  <desc>
    Clean Car Electric Powered Car 1 Streamline Icon: https://streamlinehq.com
  </desc>
  <g>
    <path d="M23.87 13.2c-0.17 -1.34 -0.62 -2.47 -1.21 -2.76l-3.44 -1.2 -0.22 -0.89c-0.14 -0.56 -0.22 -1.85 -0.45 -2.84a3 3 0 0 0 -0.63 -1.4 1.84 1.84 0 0 0 -1.06 -0.43 12.88 12.88 0 0 0 -1.91 0l-4.63 0c-1.11 0 -2.19 0.1 -3.13 0.22a5.29 5.29 0 0 0 -1 0.22 2.23 2.23 0 0 0 -0.7 0.41 1.65 1.65 0 0 0 -0.41 0.58 5.86 5.86 0 0 0 -0.35 1.21c-0.11 0.53 -0.24 1.27 -0.43 1.94a4.27 4.27 0 0 1 -0.45 1.14 0.43 0.43 0 0 1 -0.15 0.15c-0.17 0.11 -0.37 0.18 -0.55 0.28 -0.56 0.32 -1.45 0.66 -2.15 1.17a2.77 2.77 0 0 0 -0.84 0.83 0.93 0.93 0 0 0 -0.15 0.39 4 4 0 0 0 0 0.69l0 2.29a10 10 0 0 0 0.07 1.6 1.41 1.41 0 0 0 0.39 0.77 1 1 0 0 0 0.62 0.17c0.34 0 0.79 0 1.16 -0.05a2.57 2.57 0 0 0 0.26 0.75 3.14 3.14 0 0 0 1 1.08 4.73 4.73 0 0 0 2 0.68 5.65 5.65 0 0 0 1.09 0.05A4.08 4.08 0 0 0 7.71 20a1.9 1.9 0 0 0 1.09 -0.85 3.22 3.22 0 0 0 0.36 -1.57c0.44 0 1.06 0.1 1.84 0.14l0.85 0 0.85 0c0.44 0 0.89 -0.12 1.34 -0.19a2.68 2.68 0 0 0 0.29 1 3.11 3.11 0 0 0 1 1.09 4.64 4.64 0 0 0 2 0.68 7.67 7.67 0 0 0 1.08 0.05 4 4 0 0 0 1.1 -0.19 1.89 1.89 0 0 0 1.09 -0.84 3.22 3.22 0 0 0 0.4 -1.64c0.49 0 1.1 0.06 1.59 0.05a2.35 2.35 0 0 0 1 -0.18 1 1 0 0 0 0.3 -0.61 14 14 0 0 0 -0.02 -3.74ZM8.24 18.56a1.11 1.11 0 0 1 -0.77 0.63 3.65 3.65 0 0 1 -0.88 0.09 5.64 5.64 0 0 1 -0.92 -0.11 3.89 3.89 0 0 1 -1.28 -0.47 2.29 2.29 0 0 1 -0.86 -0.86 1.86 1.86 0 0 1 0 -1.61A2.33 2.33 0 0 1 4.72 15a2.69 2.69 0 0 1 2.55 0 2.82 2.82 0 0 1 0.97 3.56Zm11.81 0.14a1.06 1.06 0 0 1 -0.77 0.63 2.83 2.83 0 0 1 -0.87 0.09 7 7 0 0 1 -0.92 -0.1 4 4 0 0 1 -1.28 -0.47 2.12 2.12 0 0 1 -0.86 -0.87 1.8 1.8 0 0 1 0 -1.6 2.21 2.21 0 0 1 1.17 -1.23 2.66 2.66 0 0 1 2.55 0 2.81 2.81 0 0 1 0.98 3.55Zm3.12 -2.26c0 0.2 -0.06 0.43 -0.08 0.52A5.16 5.16 0 0 1 22 17l-1.09 0a3.6 3.6 0 0 0 -1.36 -2.5 3.61 3.61 0 0 0 -3.41 -0.34 3.34 3.34 0 0 0 -1.86 1.78 3.59 3.59 0 0 0 -0.24 0.85c-0.46 -0.06 -0.92 -0.13 -1.36 -0.16a8.29 8.29 0 0 0 -0.86 0l-0.86 0.05c-0.8 0.08 -1.42 0.18 -1.86 0.24a3.57 3.57 0 0 0 -1.37 -2.55 3.6 3.6 0 0 0 -3.4 -0.37 3.42 3.42 0 0 0 -1.85 1.78A3.2 3.2 0 0 0 2.2 17L0.93 17a1 1 0 0 1 -0.19 -0.61l0 -1.3 0.06 -2.18 0 -0.51a0.48 0.48 0 0 1 0.06 -0.18 2.55 2.55 0 0 1 0.88 -0.71c0.63 -0.34 1.35 -0.6 1.84 -0.85 0.23 -0.13 0.49 -0.22 0.71 -0.37a1.3 1.3 0 0 0 0.35 -0.35 4.92 4.92 0 0 0 0.6 -1.36c0.22 -0.69 0.38 -1.45 0.51 -2A7.64 7.64 0 0 1 6 5.85a1 1 0 0 1 0.25 -0.45 1.26 1.26 0 0 1 0.45 -0.22 5.41 5.41 0 0 1 0.66 -0.12c0.9 -0.11 1.94 -0.16 3 -0.18l4.6 0c0.34 0 1 -0.1 1.55 -0.07 0.26 0 0.5 0 0.63 0.13a1.85 1.85 0 0 1 0.34 0.84c0.25 1 0.36 2.29 0.52 2.85a6.15 6.15 0 0 0 0.27 1 1.13 1.13 0 0 0 0.45 0.53 4.52 4.52 0 0 0 0.78 0.3c1 0.31 2.53 0.75 2.77 0.86a0.76 0.76 0 0 1 0.31 0.38 6 6 0 0 1 0.42 1.62 14.4 14.4 0 0 1 0.17 3.12Z" fill="#020202" stroke-width="1"></path>
    <path d="M14.79 9.47a1.76 1.76 0 0 0 -0.59 -0.15l-0.93 0 0.16 -0.22 0.57 -0.91 0.34 -0.64a1 1 0 0 0 0.12 -1 0.69 0.69 0 0 0 -0.58 -0.31c-0.31 0 -0.81 0.13 -1.16 0.15l-1.22 0.06h-1.45a0.3 0.3 0 0 0 -0.34 0.27 0.32 0.32 0 0 0 0.27 0.33l1.53 0.08 1.24 0c0.21 0 0.61 -0.14 0.86 -0.17a0.42 0.42 0 0 1 0 0.12l-0.38 0.6 -0.57 0.77 -0.53 0.65s-0.15 0.14 -0.19 0.19a0.55 0.55 0 0 0 -0.12 0.41 0.61 0.61 0 0 0 0.21 0.39 2 2 0 0 0 0.71 0.24l0.91 0.07a0.83 0.83 0 0 1 -0.15 0.22c-0.5 0.51 -1 1.06 -1.54 1.57a8 8 0 0 1 -1.07 0.87l-0.06 0 0.17 -1.15c0 -0.18 0.15 -0.39 0.2 -0.59a1.12 1.12 0 0 0 0.06 -0.43 0.62 0.62 0 0 0 -0.25 -0.48 1.46 1.46 0 0 0 -0.53 -0.22L9.24 10a5.5 5.5 0 0 1 0.65 -1.87 0.34 0.34 0 0 0 -0.56 -0.4 3.69 3.69 0 0 0 -0.4 0.64 7.85 7.85 0 0 1 -0.34 0.95 2.55 2.55 0 0 0 -0.23 0.68 0.64 0.64 0 0 0 0.18 0.56 1.06 1.06 0 0 0 0.45 0.25c0.38 0.12 1 0.12 1.24 0.21l0.06 0 -0.22 0.59 -0.36 1.59a2.64 2.64 0 0 0 0 0.86 0.66 0.66 0 0 0 0.52 0.51 0.79 0.79 0 0 0 0.55 -0.12 8.12 8.12 0 0 0 0.69 -0.46 9.53 9.53 0 0 0 1.25 -1c0.55 -0.51 1.07 -1.08 1.58 -1.6a4.12 4.12 0 0 0 0.69 -0.78 1.13 1.13 0 0 0 0.14 -0.77 0.67 0.67 0 0 0 -0.34 -0.37Z" fill="#4C57E6" stroke-width="1"></path>
  </g>
</svg>