<svg xmlns="http://www.w3.org/2000/svg" viewBox="0 0 24 24" id="Cleaning-Vacuum-2--Streamline-Freehand">
  <desc>
    Cleaning Vacuum 2 Streamline Icon: https://streamlinehq.com
  </desc>
  <g>
    <path d="M13.15 14a0.35 0.35 0 0 0 -0.48 -0.08 6.75 6.75 0 0 1 -1.88 1 1.39 1.39 0 0 1 -1.12 -0.15 1.66 1.66 0 0 1 -0.81 -1.24 7.78 7.78 0 0 1 0.25 -2.72c0.24 -1.29 1.14 -2.31 1.64 -3.47a4.64 4.64 0 0 0 0.41 -1.86A5.44 5.44 0 0 0 10 2.45a2.39 2.39 0 0 0 -2 -1 0.34 0.34 0 0 0 -0.67 0C7.2 2 7.1 2.55 7 3.12c-0.31 1.34 -0.74 2.65 -1.07 4 -0.07 0.35 -0.16 0.7 -0.22 1 -0.25 1.36 -0.38 2.75 -0.7 4.1 -0.15 0.75 -0.27 1.48 -0.37 2.22 -0.23 1.68 -0.37 3.36 -0.65 5.14a0.31 0.31 0 0 0 0.25 0.36 0.29 0.29 0 0 0 0.34 -0.24c0.07 -0.3 0.12 -0.58 0.19 -0.87a0.17 0.17 0 0 0 0.12 0 4.85 4.85 0 0 1 1 0.12 8.14 8.14 0 0 1 1 0.3l0.33 0.15a0.3 0.3 0 0 1 0.11 0.14l0 0.26a7.44 7.44 0 0 1 -0.23 0.71c-0.12 0.39 -0.14 0.76 -0.26 1s-0.21 0.15 -0.47 0.15a10.6 10.6 0 0 1 -1.4 0c-0.65 -0.06 -1.31 -0.16 -2.15 -0.27a7.59 7.59 0 0 1 -1.17 -0.18A1.22 1.22 0 0 1 1 21c-0.08 -0.07 0 -0.2 0 -0.32a5.24 5.24 0 0 1 0.19 -0.7l0.3 -0.72a1.43 1.43 0 0 1 0.64 -0.76 1.74 1.74 0 0 1 1 0 0.29 0.29 0 0 0 0.37 -0.2 0.29 0.29 0 0 0 -0.2 -0.37 2.25 2.25 0 0 0 -1.46 -0.12 2 2 0 0 0 -1.11 1l-0.41 0.8A4.17 4.17 0 0 0 0 20.89a1.17 1.17 0 0 0 0.25 0.79 2.24 2.24 0 0 0 0.93 0.62 6.51 6.51 0 0 0 1.36 0.29c0.86 0.12 1.53 0.23 2.22 0.28a11 11 0 0 0 1.53 0 1.53 1.53 0 0 0 1.2 -0.55 4.6 4.6 0 0 0 0.41 -1.49 7.69 7.69 0 0 0 0.23 -1 1.35 1.35 0 0 0 -0.1 -0.61 1.16 1.16 0 0 0 -0.38 -0.44 2.19 2.19 0 0 0 -0.6 -0.28A8.54 8.54 0 0 0 6 18.3a5.12 5.12 0 0 0 -1.09 -0.07c0.25 -1.21 0.48 -2.39 0.71 -3.56 0.15 -0.71 0.3 -1.42 0.5 -2.13 0.12 -0.53 0.23 -1 0.31 -1.58 0.2 -1.21 0.31 -2.42 0.53 -3.62 0.24 -1.38 0.57 -2.71 0.81 -4.07 0.07 -0.42 0.12 -0.84 0.16 -1.27L8 2a1.78 1.78 0 0 1 1.39 0.87 4.31 4.31 0 0 1 0.79 2.58 3.35 3.35 0 0 1 -0.21 1A9.2 9.2 0 0 1 9.16 8 8.41 8.41 0 0 0 8 10.63a9.07 9.07 0 0 0 -0.13 3.12 2.57 2.57 0 0 0 1.37 1.85 2.2 2.2 0 0 0 1.79 0.12 7.53 7.53 0 0 0 2 -1.22 0.36 0.36 0 0 0 0.12 -0.5Z" fill="#020202" fill-rule="evenodd" stroke-width="1"></path>
    <path d="M20.39 10.28a8.05 8.05 0 0 1 -1 0.56 6.88 6.88 0 0 1 -2.48 0.67 7.06 7.06 0 0 1 -2.59 -0.19 5.77 5.77 0 0 1 -1.26 -0.46c-0.23 -0.13 -0.26 -0.09 -0.44 -0.28 -0.42 -0.3 -0.47 0.29 -0.37 0.5a2.21 2.21 0 0 0 0.43 0.38 6.21 6.21 0 0 0 1.36 0.69 7 7 0 0 0 3 0.5 7 7 0 0 0 2.9 -0.87 12.05 12.05 0 0 0 1 -0.72c0.6 -0.47 0.94 -0.8 1.53 -1.28 0.34 -0.38 0.08 -0.9 -0.37 -0.68 -0.68 0.45 -1.02 0.74 -1.71 1.18Z" fill="#4C57E6" fill-rule="evenodd" stroke-width="1"></path>
    <path d="M23.75 9.32a4.15 4.15 0 0 0 -0.89 -1.77 4.6 4.6 0 0 0 -1.56 -1.2 7.57 7.57 0 0 0 -2.13 -0.57 7.75 7.75 0 0 0 -2.2 0.1 7.64 7.64 0 0 0 -4.31 2.34A6.91 6.91 0 0 0 11 12.74a0.31 0.31 0 0 0 0.29 0.32 0.3 0.3 0 0 0 0.31 -0.29 5.54 5.54 0 0 1 1.7 -4.11A6.37 6.37 0 0 1 17.17 7a6.58 6.58 0 0 1 1.88 -0.07 6.2 6.2 0 0 1 1.8 0.46 4.1 4.1 0 0 1 1.15 0.87c1.15 1.08 1.16 2.73 1.09 3.93a3.94 3.94 0 0 1 -0.48 1.65 2.49 2.49 0 0 1 -0.25 0.38 7.27 7.27 0 0 1 -0.55 0.56 0.36 0.36 0 0 0 0 0.49 0.34 0.34 0 0 0 0.48 0c0.21 -0.19 0.41 -0.37 0.6 -0.57a3 3 0 0 0 0.37 -0.49 4.53 4.53 0 0 0 0.74 -1.94 10.62 10.62 0 0 0 -0.25 -2.95Z" fill="#020202" fill-rule="evenodd" stroke-width="1"></path>
    <path d="M15.93 16.67a4.68 4.68 0 0 1 -0.78 0.16 4.55 4.55 0 0 1 -0.79 0.07 4.07 4.07 0 0 1 -1 0c-0.39 -0.05 -0.75 -0.13 -1.15 -0.2a0.3 0.3 0 0 0 -0.38 0.2 0.31 0.31 0 0 0 0.2 0.38c0.47 0.2 0.89 0.41 1.34 0.56a4.82 4.82 0 0 0 1 0.21 4.49 4.49 0 0 0 1.6 -0.24 5 5 0 0 0 1.3 -0.73c0.42 -0.28 0.14 -0.95 -0.5 -0.69a6.73 6.73 0 0 1 -0.84 0.28Z" fill="#020202" fill-rule="evenodd" stroke-width="1"></path>
    <path d="M21.71 15.2c-0.32 -1.61 -2 -2.38 -3.65 -0.77a2.06 2.06 0 0 0 -0.58 1.12 1.92 1.92 0 0 0 0.62 1.83 2.06 2.06 0 0 0 1.91 0.51 2.29 2.29 0 0 0 1.7 -2.69Zm-2 1.57a1 1 0 0 1 -0.9 -0.22 1.07 1.07 0 0 1 -0.43 -0.89c0.09 -1.43 2.17 -2 2.35 -0.31a1.27 1.27 0 0 1 -0.99 1.42Z" fill="#4C57E6" fill-rule="evenodd" stroke-width="1"></path>
  </g>
</svg>