<svg xmlns="http://www.w3.org/2000/svg" viewBox="0 0 24 24" id="Climbing-Sports--Streamline-Freehand">
  <desc>
    Climbing Sports Streamline Icon: https://streamlinehq.com
  </desc>
  <title>climbing-sports</title>
  <g>
    <path d="m11.48 19 0 1.85c0 1.05 0.08 2 0.09 2.76a0.33 0.33 0 0 0 0.31 0.35 0.34 0.34 0 0 0 0.35 -0.31c0.09 -0.71 0.22 -1.67 0.3 -2.7 0 -0.38 0.05 -0.76 0.06 -1.15s0 -0.78 0 -1.15c0 -0.86 -0.09 -1.62 -0.12 -2.22 0 -0.38 -0.58 -0.23 -0.7 0.13 -0.12 0.71 -0.24 1.55 -0.29 2.44Z" fill="#4C57E6" stroke-width="1"></path>
    <path d="M8 12.12a0.88 0.88 0 0 0 -0.29 -0.38 1.49 1.49 0 0 0 -0.71 -0.18 11.35 11.35 0 0 1 -1.68 -0.17 1.21 1.21 0 0 1 -0.86 -0.5c-2.5 -4.37 -0.8 -5.33 0 -3.68 0.67 1.43 0.76 2.53 1.47 2.5 1.54 -0.07 6.52 0.28 7.84 -0.94 1.8 -1.67 1.23 -5.53 2.39 -5.69a0.64 0.64 0 0 1 0.7 0.4c0.36 1.07 -0.33 3.87 -0.88 4.94 -0.89 1.76 -2.22 2.22 -3 2.87 -0.18 0.2 -0.05 0.73 0.06 1.16 0.14 0.27 0.57 0.11 0.53 -0.25a4.74 4.74 0 0 1 -0.06 -0.53 8 8 0 0 0 3.09 -2.93c1.16 -2.17 2.07 -6.79 -0.54 -6.49 -2.37 0.28 -1.1 5.4 -3.58 6.1 1.88 -1.91 -0.71 -4.83 -3.07 -3.67a2.35 2.35 0 0 0 -0.52 4l-2.71 0c-0.34 -0.79 -0.77 -2.36 -1.39 -2.82 -1.4 -1 -2.8 -0.21 -2.74 1.48a5.77 5.77 0 0 0 0.31 1.8 14.65 14.65 0 0 0 1.13 2.36 2.12 2.12 0 0 0 1.16 0.91 10 10 0 0 0 2.35 0.26c0.35 0.8 0.62 1.7 0.66 1.81A30.65 30.65 0 0 0 6 19.59a1.78 1.78 0 0 0 0.06 1.09 1.3 1.3 0 0 0 0.92 0.73c2.37 0.67 3.45 -4 4.32 -4.93a6 6 0 0 1 1.77 -0.54 1.08 1.08 0 0 1 0.89 0.53 5.75 5.75 0 0 1 0.66 1.85 1.43 1.43 0 0 0 1.38 1.2 1.7 1.7 0 0 0 1.61 -0.8 7.34 7.34 0 0 0 0.06 -3.35c-0.42 -2 -1.63 -2.23 -1.73 -1.67a0.33 0.33 0 0 0 0.27 0.38c0.46 0.08 0.65 0.72 0.79 1.43a6.43 6.43 0 0 1 -0.06 2.91 0.91 0.91 0 0 1 -0.88 0.34 0.69 0.69 0 0 1 -0.63 -0.6 6.62 6.62 0 0 0 -0.77 -2.16c-0.7 -1.11 -1.57 -1 -2.71 -0.64a7.09 7.09 0 0 0 -1.25 0.47 4.67 4.67 0 0 0 -0.51 0.78c-0.51 0.89 -1.26 2.37 -1.53 2.82 -0.87 1.45 -1.87 1.23 -1.67 0.35a28.67 28.67 0 0 1 1.73 -5 0.58 0.58 0 0 0 0 -0.42c0.03 -0.06 -0.62 -1.98 -0.72 -2.24Zm1.5 -6.26c1.77 -1.41 4 1.67 1.52 2.53a1.48 1.48 0 0 1 -1.54 -2.53Z" fill="#020202" stroke-width="1"></path>
    <path d="M21.47 0.3a0.34 0.34 0 0 0 -0.36 -0.3 0.34 0.34 0 0 0 -0.3 0.36c0.2 3.47 1.1 8.85 -2.23 10.9 -1.66 1 -4 0.32 -4.59 0.92 -1.64 1.74 -4.54 1.18 -5.05 1.29 -0.34 0.07 -0.32 0.43 0 0.64 0.86 0.16 3.7 0.56 5.63 -1.16l2.58 0a4.69 4.69 0 0 0 2 -0.69C23.09 9.82 21.83 3.79 21.47 0.3Z" fill="#4C57E6" stroke-width="1"></path>
  </g>
</svg>