<svg xmlns="http://www.w3.org/2000/svg" fill="none" viewBox="0 0 24 24" id="Close-Eyes--Streamline-Freehand">
  <desc>
    Close Eyes Streamline Icon: https://streamlinehq.com
  </desc>
  <path fill="#020202" fill-rule="evenodd" d="M9.313 6.452a12.947 12.947 0 0 1 5.318 -0.064c0.412 -0.996 1.227 -3.054 1.336 -3.439a0.409 0.409 0 0 1 0.812 0.086 5.313 5.313 0 0 1 -1.089 3.613 14.03 14.03 0 0 1 3.414 1.524c0.268 0.164 0.548 0.356 0.831 0.569a0.614 0.614 0 0 1 0.01 -0.006c0.26 -0.257 1.938 -2.08 2.075 -2.268a0.409 0.409 0 0 1 0.742 0.34 3.316 3.316 0 0 1 -2.114 2.505c1.846 1.572 3.61 3.777 3.32 4.724 -2.358 8.203 -16.02 10.022 -22.12 3.15a10.194 10.194 0 0 1 -1.715 -2.71c-0.013 -0.261 0.47 -0.448 0.635 -0.308a17.638 17.638 0 0 0 1.728 2.426c4.782 5.077 15.933 5.562 20.222 -2.706 -0.12 -0.122 -0.179 -0.229 -0.093 -0.229l0.032 0.068 0.02 0.044 0.03 0.066 0.016 0.038 0.021 0.023 -0.015 -0.036c0.08 -0.138 0.106 -0.216 -0.104 -0.203a12.731 12.731 0 0 0 -17 -4.82c-2.71 1.409 -3.834 3.038 -4.485 3.981 -0.41 0.596 -0.633 0.918 -0.948 0.74 -0.671 -0.381 0.46 -2.268 2.715 -4.043a3.585 3.585 0 0 1 -1.882 -2.085 0.392 0.392 0 1 1 0.63 -0.467c0.143 0.136 0.2 0.178 0.292 0.246 0.131 0.097 0.333 0.245 0.952 0.792 0.51 0.45 0.764 0.697 0.92 0.847a16.164 16.164 0 0 1 4.476 -2.138 5.002 5.002 0 0 1 -0.763 -3.594 0.384 0.384 0 0 1 0.366 -0.41l0.03 -0.002c0.052 -0.003 0.094 -0.006 0.132 0.005 0.162 0.048 0.25 0.348 0.717 1.933 0.14 0.477 0.315 1.07 0.536 1.808Z" clip-rule="evenodd" stroke-width="1"></path>
  <path fill="#4C57E6" fill-rule="evenodd" d="M11.377 9.595A4 4 0 0 0 7.9 12.668a4.465 4.465 0 0 0 6.037 4.956 4.151 4.151 0 0 0 1.354 -6.639c-0.925 -0.987 -2.557 -1.534 -3.915 -1.39Zm3.396 2.12a3.113 3.113 0 0 1 -2.622 5.009 3.452 3.452 0 0 1 -3.114 -3.835c0.234 -1.52 1.557 -2.191 2.567 -2.412 1.097 -0.24 2.47 0.328 3.17 1.237Z" clip-rule="evenodd" stroke-width="1"></path>
</svg>