<svg xmlns="http://www.w3.org/2000/svg" viewBox="0 0 24 24" id="Close-Up-Single-Neutral-Id-Card--Streamline-Freehand">
  <desc>
    Close Up Single Neutral Id Card Streamline Icon: https://streamlinehq.com
  </desc>
  <g>
    <path d="M12.05 3.26a1 1 0 0 0 -1.21 1 1 1 0 0 0 1.94 0.3 1 1 0 0 0 -0.73 -1.3Z" fill="#020202" fill-rule="evenodd" stroke-width="1"></path>
    <path d="M11.93 16.89a3.53 3.53 0 0 0 3.22 -1.23 4.62 4.62 0 0 0 1.32 -3.23 4.47 4.47 0 0 0 -1.4 -3.15A4.83 4.83 0 0 0 11.88 8a4.91 4.91 0 0 0 -3.21 1 5 5 0 0 0 -1.76 2.84 4.39 4.39 0 0 0 0.33 2.67 4 4 0 0 0 1.77 2 2.83 2.83 0 0 0 0.87 0.26 5 5 0 0 0 1.28 0 0.34 0.34 0 1 0 -0.07 -0.68 4 4 0 0 1 -0.91 0 2.1 2.1 0 0 1 -0.79 -0.26 3.06 3.06 0 0 1 -1.25 -1.64 3.32 3.32 0 0 1 -0.14 -2A4.07 4.07 0 0 1 9.44 10a3.81 3.81 0 0 1 2.4 -0.74 3.72 3.72 0 0 1 2.39 0.92 3.39 3.39 0 0 1 1.13 2.29 3.61 3.61 0 0 1 -0.9 2.55 2.67 2.67 0 0 1 -2.39 1.08 0.4 0.4 0 0 0 -0.45 0.32 0.39 0.39 0 0 0 0.31 0.47Z" fill="#4C57E6" fill-rule="evenodd" stroke-width="1"></path>
    <path d="M11 14.67a1.4 1.4 0 0 0 0.57 0.13 1.08 1.08 0 0 0 0.4 0 2.13 2.13 0 0 0 1.29 -0.8 0.39 0.39 0 1 0 -0.52 -0.58 1.5 1.5 0 0 1 -0.68 0.15l-0.29 0 -0.45 0a2.75 2.75 0 0 1 -0.9 -0.16 0.34 0.34 0 0 0 -0.43 0.53 2.47 2.47 0 0 0 1.01 0.73Z" fill="#4C57E6" fill-rule="evenodd" stroke-width="1"></path>
    <path d="M10.57 12a0.39 0.39 0 0 0 0.46 -0.3c0.1 -0.47 -0.66 -0.66 -0.94 -0.7a0.3 0.3 0 0 0 -0.16 0 0.47 0.47 0 0 0 -0.2 0.1c-0.06 0.07 -0.55 0.67 -0.35 0.95a0.34 0.34 0 0 0 0.47 0.09 6.36 6.36 0 0 0 0.72 -0.14Z" fill="#4C57E6" fill-rule="evenodd" stroke-width="1"></path>
    <path d="M13.48 12.13A0.35 0.35 0 0 0 14 12c0.19 -0.28 -0.3 -0.88 -0.36 -0.95a0.42 0.42 0 0 0 -0.2 -0.1 0.27 0.27 0 0 0 -0.15 0c-0.29 0 -1 0.23 -0.94 0.7a0.39 0.39 0 0 0 0.46 0.3 6.17 6.17 0 0 0 0.67 0.18Z" fill="#4C57E6" fill-rule="evenodd" stroke-width="1"></path>
    <path d="M23.92 12.08c-0.39 -6 -0.5 -5.58 -1.33 -5.82a6.55 6.55 0 0 0 -1.14 -0.17l-3.77 -0.27L16 5.75a5.73 5.73 0 0 0 -0.62 -2.61 3.9 3.9 0 0 0 -1.67 -1.64A3.74 3.74 0 0 0 11 1.18a3.68 3.68 0 0 0 -1.59 1A5 5 0 0 0 8 5.85C-0.44 6.37 0.89 4.78 0.15 12c-0.07 0.76 -0.15 1.5 -0.15 2.25l0 2.23a33.14 33.14 0 0 0 0.62 5.19 0.4 0.4 0 0 0 0.44 0.33 0.39 0.39 0 0 0 0.33 -0.44 39.63 39.63 0 0 1 -0.18 -4.36c0 -1.36 0.08 -2.72 0.13 -4.08 0.07 -2 0.1 -4.09 0.21 -6.1l7.85 0L13.54 7c1.36 0 2.73 -0.06 4.1 0l3.73 0a7 7 0 0 1 1 0.08 0.94 0.94 0 0 1 0.3 0.15l0 5.66 0 2.93c0 0.93 0.05 2 0.05 2.92s0 1.87 -0.05 2.8c-2 0.1 -4 0.13 -6 0.15s-3.81 0 -5.72 0c-2.85 0 -5.7 0 -8.6 -0.12a0.34 0.34 0 0 0 -0.37 0.31 0.35 0.35 0 0 0 0.31 0.37c2.42 0.3 4.8 0.56 7.19 0.68 1 0.05 2.07 0.08 3.1 0.08s2.07 0 3.1 -0.08c2.39 -0.11 4.78 -0.34 7.2 -0.61a0.39 0.39 0 0 0 0.31 -0.28 0.33 0.33 0 0 0 0.24 -0.3c0.23 -1.7 0.41 -3.43 0.48 -5.17 0 -0.74 0.05 -1.48 0.05 -2.22s0.04 -1.53 -0.04 -2.27ZM11 5.71c-0.66 0 -1.33 0 -2 0.07l-0.33 0A4.12 4.12 0 0 1 10.17 3a2.94 2.94 0 0 1 1.14 -0.58 2.68 2.68 0 0 1 1.85 0.21 3 3 0 0 1 1.51 1.44 5.08 5.08 0 0 1 0.49 1.64l-0.8 0c-1.11 -0.04 -2.22 -0.03 -3.36 0Z" fill="#020202" fill-rule="evenodd" stroke-width="1"></path>
    <path d="M5.72 19.28a0.35 0.35 0 0 0 0.34 0.35c1.17 0.13 2.34 0.26 3.53 0.31l1.51 0c0.51 0 1 -0.05 1.51 -0.09 1.17 -0.1 2.34 -0.26 3.5 -0.4a0.39 0.39 0 1 0 -0.05 -0.78l-3.5 0h-1.49q-0.75 0 -1.5 0.06c-1.17 0.07 -2.33 0.2 -3.49 0.26a0.37 0.37 0 0 0 -0.36 0.29Z" fill="#020202" fill-rule="evenodd" stroke-width="1"></path>
  </g>
</svg>