<svg xmlns="http://www.w3.org/2000/svg" viewBox="0 0 24 24" id="Clothes-Design-Sewing-Machine--Streamline-Freehand">
  <desc>
    Clothes Design Sewing Machine Streamline Icon: https://streamlinehq.com
  </desc>
  <g>
    <path d="m6.27 10.25 0 -1.89 0 -1.9c0 -0.63 -0.07 -1.1 -0.08 -1.65a8.91 8.91 0 0 0 -0.16 -1.37c-0.11 -0.77 -0.75 -0.56 -0.79 -0.16a10.77 10.77 0 0 0 0 1.54c0 0.43 -0.06 0.86 -0.08 1.3l0 2c0 0.69 0 1.47 0.1 2.2s0.27 2 0.27 2.05a0.41 0.41 0 0 0 0.75 0.1c-0.01 -0.09 -0.02 -1.47 -0.01 -2.22Z" fill="#4C57E6" fill-rule="evenodd" stroke-width="1"></path>
    <path d="M23.9 4.76a1.81 1.81 0 0 0 -0.47 -0.9 0.77 0.77 0 0 0 -0.43 -0.22 2.46 2.46 0 0 0 -0.61 0l-1.18 0a2.39 2.39 0 0 0 -0.57 -1.37A2.27 2.27 0 0 0 19 1.52l-3 -0.3c-0.88 -0.07 -1.61 -0.11 -2.31 -0.12l-3.43 0 -5.89 0.19a13.84 13.84 0 0 0 -2.82 0.09A1.66 1.66 0 0 0 0.35 2.5a7.3 7.3 0 0 0 -0.33 2l0 2.89v3.85a2.86 2.86 0 0 0 0.24 1.12 3.11 3.11 0 0 0 0.61 0.94A2.17 2.17 0 0 0 2 14a5.37 5.37 0 0 0 0.89 0.09c0 0.54 -0.11 1 -0.13 1.54a8.42 8.42 0 0 0 0 0.87c0 0.29 0 0.58 0.07 0.88 0.07 0.64 0.19 1.3 0.31 2a0.34 0.34 0 1 0 0.68 -0.05c0 -0.62 0.06 -1.19 0.08 -1.74 0.29 0.05 0.54 0.11 0.8 0.13a2 2 0 0 0 0.42 0 3 3 0 0 0 0.42 -0.06 7 7 0 0 0 1 -0.32 0.34 0.34 0 0 0 0.28 -0.39 0.33 0.33 0 0 0 -0.39 -0.28c-0.38 0 -0.68 -0.08 -1 -0.1a3.73 3.73 0 0 0 -0.67 0 4.62 4.62 0 0 0 -0.86 0.26l0 -0.43a8.46 8.46 0 0 0 0 -0.87c-0.05 -0.48 -0.14 -1 -0.22 -1.49 0.79 0 1.44 0 2.06 -0.05 1.65 -0.12 1.39 -0.2 4.95 -0.49h0.52a1.18 1.18 0 0 1 0.28 0.64 8.82 8.82 0 0 1 0.1 1.39 16 16 0 0 1 0 1.83c-0.06 0.94 -0.17 1.9 -0.23 2.81 0 0.36 -0.11 0.75 -0.13 1.14l0 0.31 -0.66 0c-0.49 0 -1 0.05 -1.5 0.07 -2 0.09 -4.14 0.08 -6.11 0.15l-2.26 0a0.29 0.29 0 0 0 -0.29 0.31 0.3 0.3 0 0 0 0.32 0.29l2.27 0.22c1.48 0.05 3 0.19 4.58 0.24 1.06 0 2.1 0 3.11 -0.07 1.18 -0.11 2 -0.13 2.94 -0.13l3 0.06c0.58 0 1.56 -0.05 2.39 -0.06a7 7 0 0 1 1 0 0.33 0.33 0 0 0 0.39 -0.28 0.34 0.34 0 0 0 -0.22 -0.37 9.83 9.83 0 0 0 0.19 -1.21c0.07 -0.71 0.09 -1.43 0.16 -2.13 0.1 -1 0.2 -2.08 0.28 -3.12q0.08 -1 0.09 -2.1l0 -3.63 0.11 0a2.22 2.22 0 0 0 0.45 0l0.61 0a5.72 5.72 0 0 0 0.9 -0.07 1.59 1.59 0 0 0 0.71 -0.32 0.89 0.89 0 0 0 0.28 -0.41A2.42 2.42 0 0 0 24 8.5l0 -1.89a9.24 9.24 0 0 0 -0.1 -1.85ZM20 7.7l0 1.76c0 1.35 0.05 2.68 0.06 4.06 0 0.68 0 1.37 -0.05 2.06 -0.06 1 -0.14 2.07 -0.22 3.1 -0.05 0.7 -0.06 1.42 -0.12 2.13a9.3 9.3 0 0 1 -0.19 1.19L19 22c-0.82 0 -1.78 0 -2.35 -0.08 -1.49 -0.13 -2.51 -0.24 -3.61 -0.27h-1.15a1.85 1.85 0 0 1 0 -0.23c0 -0.38 0.12 -0.78 0.15 -1.14 0.08 -1.07 0.23 -2.19 0.3 -3.28l0 -1.45a8 8 0 0 0 -0.15 -1.77 1.7 1.7 0 0 0 -0.46 -0.82 0.93 0.93 0 0 0 -0.4 -0.22 2.45 2.45 0 0 0 -0.71 0l-2 0.13a30 30 0 0 1 -5 0.29A6.63 6.63 0 0 1 2.25 13a1.2 1.2 0 0 1 -0.64 -0.33 2.28 2.28 0 0 1 -0.4 -0.65 1.68 1.68 0 0 1 -0.14 -0.72l0.07 -3.9 0 -2.81a6.24 6.24 0 0 1 0.27 -1.7c0.12 -0.32 0.4 -0.39 0.73 -0.43 0.63 -0.07 1.43 0 2.25 0l5.87 -0.2c1.36 0 2.34 -0.06 3.41 0 0.67 0 1.38 0 2.23 0.1l3.1 0.2a1.27 1.27 0 0 1 0.91 0.43 1.35 1.35 0 0 1 0.35 1Zm2.93 1.18a0.82 0.82 0 0 1 -0.26 0.14 5.66 5.66 0 0 1 -0.76 0.15l-0.91 0.08a0.36 0.36 0 0 0 -0.18 0c0 -0.5 0 -1 0.07 -1.52l0.26 -3.43 1.19 0.14c0.11 0 0.33 0.14 0.41 0.06a1.37 1.37 0 0 1 0.11 0.63c0 0.51 0 1.07 -0.05 1.46l0.09 1.91c0 0.12 0.15 0.4 0.04 0.38Z" fill="#020202" fill-rule="evenodd" stroke-width="1"></path>
    <path d="M10.1 6.36a22.44 22.44 0 0 0 -0.42 -3.44C9.53 2.59 9 2.67 9 3c0.05 1.12 0 1.8 0 2.92L9 8.7c0 1.23 0.08 2.21 0.18 3.44 0.09 0.5 0.75 0.35 0.75 0.06 0 -1 0.13 -2 0.17 -3s0.03 -1.9 0 -2.84Z" fill="#4C57E6" fill-rule="evenodd" stroke-width="1"></path>
    <path d="M22.93 8.88s-0.02 0 0 0Z" fill="#020202" fill-rule="evenodd" stroke-width="1"></path>
    <path d="M16.87 6a1.47 1.47 0 0 0 -1.05 -0.38l-0.11 0a1.76 1.76 0 0 0 -1.71 0.45 2.77 2.77 0 0 0 -0.82 1.65 2.13 2.13 0 0 0 0.55 1.55 2.5 2.5 0 0 0 1.43 0.78 2.25 2.25 0 0 0 2 -0.66 2.21 2.21 0 0 0 0.55 -2A2.68 2.68 0 0 0 16.87 6Zm-0.51 2.65a1.18 1.18 0 0 1 -1 0.29 1.47 1.47 0 0 1 -0.79 -0.41 1.14 1.14 0 0 1 -0.38 -0.76 1.86 1.86 0 0 1 0.4 -1.13 1.12 1.12 0 0 1 0.92 -0.5 0.34 0.34 0 0 0 0.32 0.17 0.81 0.81 0 0 1 0.68 0.4 1.87 1.87 0 0 1 0.31 0.87 1.24 1.24 0 0 1 -0.46 1.04Z" fill="#020202" fill-rule="evenodd" stroke-width="1"></path>
  </g>
</svg>