<svg xmlns="http://www.w3.org/2000/svg" viewBox="0 0 24 24" id="Clothes-Design-Knitting-Stick--Streamline-Freehand">
  <desc>
    Clothes Design Knitting Stick Streamline Icon: https://streamlinehq.com
  </desc>
  <g>
    <path d="M20.33 0a3.69 3.69 0 0 0 -1.85 0.7 3.43 3.43 0 0 0 -1.19 1.6 2 2 0 0 0 0.51 2.2 12.18 12.18 0 0 1 -1.43 1.75c-0.9 1 -1.93 1.84 -2.83 2.7l-1.81 1.74c-0.89 0.88 -1.78 1.75 -2.69 2.62S7 15.2 6 16.09L3.05 18.4c-0.38 0.28 -0.85 0.54 -1.24 0.85a2.48 2.48 0 0 0 -0.52 0.5 0.34 0.34 0 0 0 0 0.48 0.36 0.36 0 0 0 0.49 0 2.14 2.14 0 0 1 0.42 -0.37c0.41 -0.29 0.89 -0.52 1.27 -0.78l3.06 -2.19c1.13 -0.86 2.22 -1.76 3.26 -2.71s1.83 -1.74 2.71 -2.65c0.59 -0.6 1.16 -1.22 1.73 -1.83 0.85 -0.93 1.82 -1.89 2.68 -2.9a14.3 14.3 0 0 0 1.37 -1.91 2.68 2.68 0 0 0 1.61 0.25 0.37 0.37 0 0 0 0.29 -0.22 3.05 3.05 0 0 0 2.58 -3C22.78 0.81 22.05 -0.11 20.33 0Zm1.43 2.46a2.16 2.16 0 0 1 -1.9 1.81 0.31 0.31 0 0 0 -0.25 0.14 1.71 1.71 0 0 1 -1.2 -0.49 1.1 1.1 0 0 1 -0.19 -1.26 2.47 2.47 0 0 1 0.91 -1 2.73 2.73 0 0 1 1.31 -0.47c1.11 -0.19 1.47 0.53 1.32 1.28Z" fill="#020202" fill-rule="evenodd" stroke-width="1"></path>
    <path d="M7.5 12.53a0.33 0.33 0 0 0 0.44 -0.19c0.3 -0.61 0.76 -1.58 1.22 -2.67 0.16 -0.38 0.32 -0.77 0.47 -1.16s0.29 -0.8 0.41 -1.18c0.35 -1.09 0.61 -2.08 0.83 -2.7l0.53 0a0.33 0.33 0 0 0 0.37 -0.3 3.35 3.35 0 0 0 0.73 -0.28 2 2 0 0 0 0.75 -0.62 1.8 1.8 0 0 0 -0.14 -2.37A2.91 2.91 0 0 0 10.94 0.2 2.78 2.78 0 0 0 8.8 1.45 2 2 0 0 0 9 3.94a2.09 2.09 0 0 0 1 0.57l0.26 0a24.56 24.56 0 0 0 -1.41 2.81c-0.25 0.62 -0.48 1.27 -0.68 1.89 -0.37 1.15 -0.65 2.22 -0.86 2.88a0.33 0.33 0 0 0 0.19 0.44Zm2.13 -9.17a1.05 1.05 0 0 1 0.07 -1.3 1.67 1.67 0 0 1 1.3 -0.7 1.86 1.86 0 0 1 1.37 0.46 0.93 0.93 0 0 1 0.18 1.18 1.43 1.43 0 0 1 -0.56 0.53 4.08 4.08 0 0 1 -0.85 0.34l-0.1 0a4.17 4.17 0 0 1 -0.85 -0.19 1.13 1.13 0 0 1 -0.56 -0.32Z" fill="#4C57E6" fill-rule="evenodd" stroke-width="1"></path>
    <path d="M6.57 19.32a0.31 0.31 0 0 0 -0.39 0.18c-0.35 0.69 -0.62 1.13 -0.81 1.56s-0.23 0.62 -0.35 1 -0.26 0.86 -0.47 1.49a0.34 0.34 0 0 0 0.15 0.45 0.34 0.34 0 0 0 0.46 -0.15c0.37 -0.55 0.63 -0.95 0.84 -1.32a5.75 5.75 0 0 0 0.29 -0.62 5.34 5.34 0 0 0 0.21 -0.64c0.09 -0.41 0.15 -0.88 0.25 -1.53a0.29 0.29 0 0 0 -0.18 -0.42Z" fill="#4C57E6" fill-rule="evenodd" stroke-width="1"></path>
  </g>
</svg>