<svg xmlns="http://www.w3.org/2000/svg" fill="none" viewBox="0 0 24 24" id="Cloud-Mist-1--Streamline-Freehand">
  <desc>
    Cloud Mist 1 Streamline Icon: https://streamlinehq.com
  </desc>
  <path fill="#020202" fill-rule="evenodd" d="M12.53 12.144a43.72 43.72 0 0 1 -9.786 -0.3c-2.084 -0.398 -1.514 -3.797 0.658 -3.306a0.728 0.728 0 0 0 0.882 -0.767 2.9 2.9 0 0 1 5.613 -1.436c0.3 0.852 0.974 0.175 1.574 0.18a1.452 1.452 0 0 1 1.258 2.074 0.516 0.516 0 0 0 0.553 0.685c2.081 -0.319 1.79 2.198 0.51 2.538a0.397 0.397 0 0 0 0.188 0.77 2.213 2.213 0 0 0 -0.106 -4.328 2.488 2.488 0 0 0 -3.03 -2.867A4.209 4.209 0 0 0 2.81 7.04a3.085 3.085 0 0 0 -0.29 6.093 41.3 41.3 0 0 0 10.06 -0.199 0.396 0.396 0 0 0 -0.05 -0.791Z" clip-rule="evenodd" stroke-width="1"></path>
  <path fill="#020202" fill-rule="evenodd" d="M17.572 2.418A2.771 2.771 0 0 0 14.47 0.361c-2.05 0.265 -3.247 2.182 -2.594 2.517a0.404 0.404 0 0 0 0.53 -0.178c0.826 -1.492 3.614 -1.938 3.901 0.34 0.337 2.472 1.426 -0.308 3.236 1.197 0.906 0.757 0.112 0.932 0.47 1.54 0.266 0.43 2.966 0.797 1.328 2.39a7.684 7.684 0 0 1 -4.346 0.796 0.4 0.4 0 0 0 -0.059 0.797c6.94 0.841 7.54 -3.412 4.471 -4.811a3.072 3.072 0 0 0 -3.834 -2.53Z" clip-rule="evenodd" stroke-width="1"></path>
  <path fill="#4C57E6" fill-rule="evenodd" d="M9.55 22.262a3.515 3.515 0 0 0 5.722 -0.218 4.46 4.46 0 0 0 1.457 1.094 3.508 3.508 0 0 0 4.182 -1.184 2.984 2.984 0 0 0 2.692 1.593 0.4 0.4 0 0 0 -0.05 -0.797c-1.017 0.038 -1.81 -0.99 -2.124 -1.972a0.502 0.502 0 0 0 -0.913 -0.077 2.562 2.562 0 0 1 -3.26 1.293 3.643 3.643 0 0 1 -1.466 -1.519 0.675 0.675 0 0 0 -1.185 0.048c-0.634 1.232 -1.826 2.063 -3.111 1.428a4.577 4.577 0 0 1 -1.532 -1.486 0.721 0.721 0 0 0 -1.275 0.207l-0.164 0.475c-0.882 1.997 -3.187 1.208 -4.034 -0.502a0.554 0.554 0 0 0 -0.998 -0.024 4.039 4.039 0 0 1 -3.143 2.106 0.398 0.398 0 0 0 -0.2 0.702 0.393 0.393 0 0 0 0.29 0.084 5.238 5.238 0 0 0 3.483 -1.607 3.303 3.303 0 0 0 5.629 0.356Z" clip-rule="evenodd" stroke-width="1"></path>
  <path fill="#4C57E6" fill-rule="evenodd" d="M9.099 17.59a3.627 3.627 0 0 0 5.73 -0.386 3.656 3.656 0 0 0 5.761 -0.042 2.534 2.534 0 0 0 3.186 0.892 0.396 0.396 0 0 0 -0.345 -0.714 1.81 1.81 0 0 1 -2.347 -1.328 0.505 0.505 0 0 0 -0.922 -0.053 2.554 2.554 0 0 1 -4.142 0.608 5.416 5.416 0 0 1 -0.607 -0.895 0.683 0.683 0 0 0 -1.171 0 3.775 3.775 0 0 1 -1.694 1.527c-1.238 0.515 -2.252 -0.229 -2.982 -1.352a0.72 0.72 0 0 0 -1.282 0.154c-0.335 0.983 -0.866 1.633 -1.811 1.216a4.513 4.513 0 0 1 -1.72 -1.478 0.565 0.565 0 0 0 -0.988 0.076 4.67 4.67 0 0 1 -3.229 2.632 0.395 0.395 0 0 0 0.165 0.772 5.73 5.73 0 0 0 3.613 -2.156c1.452 1.729 3.372 2.406 4.785 0.526Z" clip-rule="evenodd" stroke-width="1"></path>
</svg>