<svg xmlns="http://www.w3.org/2000/svg" viewBox="0 0 24 24" id="Cloud-Lock-1--Streamline-Freehand">
  <desc>
    Cloud Lock 1 Streamline Icon: https://streamlinehq.com
  </desc>
  <g>
    <path d="M23.28 15a4.68 4.68 0 0 0 -0.5 -1.71 5 5 0 0 0 -1.13 -1.4 4 4 0 0 0 -2 -0.76 4.7 4.7 0 0 0 -2.41 -3 5.14 5.14 0 0 0 -3.32 -0.54 4.56 4.56 0 0 0 -3.16 2.19 0.32 0.32 0 0 0 -0.05 0.23 5.94 5.94 0 0 0 -2.51 -0.48A9.05 9.05 0 0 1 8.26 8a5.49 5.49 0 0 1 0.76 -2 3.58 3.58 0 0 1 0.9 -1 4.69 4.69 0 0 1 1.85 -0.83A3.38 3.38 0 0 1 14.9 5a3.84 3.84 0 0 1 0.64 0.82 2.91 2.91 0 0 1 0.34 0.94 0.38 0.38 0 0 0 0.76 0 3.39 3.39 0 0 0 -0.34 -1.28 5 5 0 0 0 -0.69 -1.09A4.29 4.29 0 0 0 11.54 3 5 5 0 0 0 8 5.47a6.2 6.2 0 0 0 -0.59 1.93 9.92 9.92 0 0 0 0 2.18 5.93 5.93 0 0 0 -1.68 0.42 1.48 1.48 0 0 1 -0.21 0.13c0.05 -3 0.63 -5.17 1.6 -6.57a5.21 5.21 0 0 1 4.05 -2.26 8.15 8.15 0 0 1 4.52 0.6 5.8 5.8 0 0 1 3 3.34 8 8 0 0 1 0.41 1.62 13.12 13.12 0 0 1 0.16 1.7 0.39 0.39 0 0 0 0.38 0.39 0.38 0.38 0 0 0 0.36 -0.34 13 13 0 0 0 -0.09 -1.82 9 9 0 0 0 -0.4 -1.79A6.75 6.75 0 0 0 16.22 0.89 9.22 9.22 0 0 0 11 0.06 6.31 6.31 0 0 0 6.16 3c-1 1.64 -1.56 4.13 -1.34 7.67a4.79 4.79 0 0 0 -1 1A5.08 5.08 0 0 0 3 14.15a5.7 5.7 0 0 0 0.13 1.36 3.54 3.54 0 0 0 -1.84 1.42 4.22 4.22 0 0 0 -0.56 2.7C0.86 21.28 3 22.68 6 23.4a24.85 24.85 0 0 0 5.72 0.6 23.83 23.83 0 0 0 3.83 -0.33C19.82 23 23 21.05 22.15 18a3.47 3.47 0 0 0 1.13 -3Zm-1.48 2.2c-0.1 -0.2 -0.14 -0.39 -0.26 -0.59a0.38 0.38 0 0 0 -0.53 -0.14 0.39 0.39 0 0 0 -0.14 0.52c1.82 3.32 -1.37 4.94 -5.48 5.5a26.74 26.74 0 0 1 -3.64 0.23 27.61 27.61 0 0 1 -5.45 -0.53A11.34 11.34 0 0 1 2.93 21a2.28 2.28 0 0 1 -1.29 -1.51A3.45 3.45 0 0 1 2 17.34a2.72 2.72 0 0 1 1.24 -1.14 10.49 10.49 0 0 0 0.53 1.55 0.34 0.34 0 0 0 0.44 0.19 0.35 0.35 0 0 0 0.2 -0.43A8 8 0 0 1 4 14.78a4.17 4.17 0 0 1 0.85 -2.39 3.92 3.92 0 0 1 1.47 -1.2 5.54 5.54 0 0 1 1.91 -0.56 4.53 4.53 0 0 1 3.73 1.17 0.38 0.38 0 0 0 0.54 0 0.37 0.37 0 0 0 0 -0.54 4.64 4.64 0 0 0 -1.36 -1.09 0.31 0.31 0 0 0 0.14 -0.09 4 4 0 0 1 2.78 -1.36 5.93 5.93 0 0 1 1.33 0.05 5.6 5.6 0 0 1 1.29 0.36 4 4 0 0 1 2.13 2 2.52 2.52 0 0 0 -1.5 0.72 0.33 0.33 0 0 0 0 0.47 0.35 0.35 0 0 0 0.48 0 2 2 0 0 1 1.6 -0.33 2.77 2.77 0 0 1 1.46 0.77 4.15 4.15 0 0 1 1 1.3 4.28 4.28 0 0 1 0.36 1 2.71 2.71 0 0 1 -0.41 2.14Z" fill="#020202" fill-rule="evenodd" stroke-width="1"></path>
    <path d="M13.4 13.61a3 3 0 0 0 -1.57 -0.39 2.62 2.62 0 0 0 -0.63 0.14 2.65 2.65 0 0 0 -0.55 0.3 2.14 2.14 0 0 0 -0.48 0.47 2.35 2.35 0 0 0 -0.33 0.57 1.69 1.69 0 0 0 0.53 2.2 2 2 0 0 0 1.35 0.22 6.63 6.63 0 0 0 -0.25 1.09 3.76 3.76 0 0 0 0 0.67 4.91 4.91 0 0 0 0.06 0.67 10.51 10.51 0 0 0 0.39 1.54 0.38 0.38 0 1 0 0.75 -0.12c0 -0.49 0 -1 0.07 -1.49l0 -0.63 0 -0.63c0 -0.21 -0.09 -0.66 -0.13 -1a1.68 1.68 0 0 0 1.39 -0.65 2 2 0 0 0 0.45 -1.6 2.09 2.09 0 0 0 -1.05 -1.36ZM13.29 16c-0.55 0.84 -2.14 0.32 -2.36 0.13s-0.25 -0.55 0 -0.94a2.1 2.1 0 0 1 0.22 -0.3 1.38 1.38 0 0 1 0.26 -0.22 1 1 0 0 1 0.53 -0.2 1.94 1.94 0 0 1 0.91 0.19c0.26 0.13 0.52 0.27 0.59 0.53a1 1 0 0 1 -0.15 0.81Z" fill="#4C57E6" fill-rule="evenodd" stroke-width="1"></path>
  </g>
</svg>