<svg xmlns="http://www.w3.org/2000/svg" viewBox="0 0 24 24" id="Coding-File-Hqx-Tag--Streamline-Freehand">
  <desc>
    Coding File Hqx Tag Streamline Icon: https://streamlinehq.com
  </desc>
  <g>
    <path d="M21.29 10.43c-0.12 -0.85 -0.13 -2.67 -0.9 -3.1C19.16 6.62 4 7 2.23 7.08a0.29 0.29 0 0 0 -0.29 0.28C2 7.88 2.8 8 13 7.59a58.28 58.28 0 0 1 6.91 0.41c0.41 0.23 0.69 5.38 0.69 5.88a17.15 17.15 0 0 1 -0.56 4s-0.11 0.06 -0.2 0.08c-2.42 0.71 -16.15 1.29 -18.31 0.25 -0.07 0 -0.13 -0.05 -0.15 -0.09 -0.48 -1.43 -0.71 -8.69 -0.2 -10.39 0.09 -0.3 -0.42 -0.43 -0.51 -0.13 -0.56 1.74 -0.5 9.17 0 10.67 0.67 2.09 16 1.16 18.76 0.67 1.33 -0.23 1.56 -0.51 1.75 -1.27a18.39 18.39 0 0 0 0.11 -7.24Z" fill="#4C57E6" fill-rule="evenodd" stroke-width="1"></path>
    <path d="M23.43 8.33c-0.11 -0.85 -0.13 -2.68 -0.89 -3.1 -1.23 -0.71 -16.26 -1.06 -18 -0.59 -0.69 0.18 -0.48 0.47 -0.47 0.62 0 0.51 0 0 11.06 0.23 0.53 0 6.46 0.14 6.91 0.41s0.86 5.44 0.86 5.95a17.28 17.28 0 0 1 -0.3 3.28c-0.18 0.68 -0.29 1.09 -0.15 1.36a0.25 0.25 0 0 0 0.33 0.08c0.37 -0.24 0.6 -1.23 0.71 -1.81a12.62 12.62 0 0 0 0.21 -2.3 23.77 23.77 0 0 0 -0.27 -4.13Z" fill="#020202" fill-rule="evenodd" stroke-width="1"></path>
    <path d="M13.52 15.47a11.06 11.06 0 0 0 1.4 -1.68 15.34 15.34 0 0 0 1.7 1.7c0.25 0 0.34 -0.13 0.36 -0.36a14.16 14.16 0 0 0 -1.54 -2l0.48 -0.64 1 -1.29a0.28 0.28 0 0 0 -0.07 -0.38c-0.24 -0.18 -0.32 0 -1.54 1.05a6.54 6.54 0 0 0 -0.46 0.59l-0.26 -0.32 -1 -1.29a0.28 0.28 0 0 0 -0.38 0c-0.23 0.19 -0.09 0.31 0.67 1.74a6.75 6.75 0 0 0 0.49 0.61 15.62 15.62 0 0 0 -1.26 2c0.01 0.25 0.18 0.3 0.41 0.27Z" fill="#020202" fill-rule="evenodd" stroke-width="1"></path>
    <path d="M6.48 10.72a9 9 0 0 0 -0.15 2.17c-0.93 -0.28 -1.62 0.09 -1.63 -0.31 0 -0.06 -0.08 -1.83 -0.14 -1.88s-0.26 -0.12 -0.37 0.1 -0.09 0.94 -0.2 1.75a6.33 6.33 0 0 0 0 2.51 2.73 2.73 0 0 0 0.17 0.65c0.19 0.29 0.51 0.16 0.51 -0.08a5 5 0 0 1 0 -1.61l0 -0.47a4.9 4.9 0 0 0 1.65 -0.07s0.16 2 0.23 2.11A0.26 0.26 0 0 0 7 15.5c0 -0.07 0 -0.29 0.11 -1.52a7.31 7.31 0 0 0 -0.08 -1.62 7.6 7.6 0 0 1 -0.19 -1.47 0.21 0.21 0 0 0 -0.36 -0.17Z" fill="#020202" fill-rule="evenodd" stroke-width="1"></path>
    <path d="M11.14 10.59c-1.23 -0.53 -3.42 1 -3.3 3.12a2.22 2.22 0 0 0 3.49 1.59 3.34 3.34 0 0 0 0.58 0.61 0.27 0.27 0 0 0 0.38 -0.38 2.79 2.79 0 0 1 -0.34 -0.74 2.66 2.66 0 0 0 -0.81 -4.2Zm0.49 3.59c-0.42 -0.57 -1.12 -1 -1.3 -0.92 -0.4 0.21 0.19 0.82 0.63 1.52a1.47 1.47 0 0 1 -2.3 -1.37 2.67 2.67 0 0 1 1.13 -2.05c0.09 0 1.58 -0.28 2 0.64a2.06 2.06 0 0 1 -0.16 2.18Z" fill="#020202" fill-rule="evenodd" stroke-width="1"></path>
  </g>
</svg>