<svg xmlns="http://www.w3.org/2000/svg" viewBox="0 0 24 24" id="Collaboration-Team-Approve-Disapprove--Streamline-Freehand">
  <desc>
    Collaboration Team Approve Disapprove Streamline Icon: https://streamlinehq.com
  </desc>
  <g>
    <path d="M14.4 2.26a0.29 0.29 0 0 0 0.26 0.3 3.21 3.21 0 0 1 0.92 0.33 2.37 2.37 0 0 1 0.68 0.6 2.14 2.14 0 0 1 0.27 0.68 10.1 10.1 0 0 1 0.22 1.27c0.15 1.28 0.21 2.7 0.22 3.45a0.32 0.32 0 1 0 0.64 0 22.21 22.21 0 0 0 0.19 -3.57 5.19 5.19 0 0 0 -0.2 -1.23 2.87 2.87 0 0 0 -0.6 -1.21 3.14 3.14 0 0 0 -1.07 -0.66A4 4 0 0 0 14.7 2a0.28 0.28 0 0 0 -0.3 0.26Z" fill="#4C57E6" fill-rule="evenodd" stroke-width="1"></path>
    <path d="M9.05 14.62A9.16 9.16 0 0 0 8 14.54a1.2 1.2 0 0 0 -0.61 0.23 0.75 0.75 0 0 0 -0.21 0.29c-0.11 0.21 -0.17 0.55 -0.24 0.7a5.26 5.26 0 0 1 -0.45 0.84c-0.25 0.39 -0.54 0.77 -0.8 1.12l-0.27 -1.31c-0.07 -0.3 -0.14 -0.6 -0.22 -0.89 0 -0.11 -0.08 -0.23 -0.11 -0.34a0.29 0.29 0 0 0 0.22 -0.3c-0.08 -0.57 -1.2 0.07 -2.49 -0.2a2.91 2.91 0 0 1 -1.21 -0.58 1.15 1.15 0 0 1 -0.32 -0.7c-0.1 -0.54 -0.08 -1.17 -0.12 -1.55A19.55 19.55 0 0 1 1 9.56c0 -1.17 0.09 -2.33 0.15 -3.5a9.4 9.4 0 0 1 0.21 -1.7 2.08 2.08 0 0 1 0.35 -0.86 6.45 6.45 0 0 1 2.83 -0.71A26.69 26.69 0 0 1 9.4 2.6a0.32 0.32 0 0 0 0.36 -0.28 0.31 0.31 0 0 0 -0.28 -0.32 28.47 28.47 0 0 0 -5.82 0A5.46 5.46 0 0 0 1 2.8a3.08 3.08 0 0 0 -0.61 1.31A10.52 10.52 0 0 0 0.12 6C0.07 7.2 0 8.38 0 9.56A17.94 17.94 0 0 0 0.2 12a11 11 0 0 0 0.32 1.91 1.65 1.65 0 0 0 0.59 0.84 3.68 3.68 0 0 0 1.54 0.63 5.9 5.9 0 0 0 1.77 -0.07 2.53 2.53 0 0 1 0.07 0.38c0 0.29 0.07 0.57 0.1 0.86l0.12 1.8s0.07 0.4 0.11 0.54a0.56 0.56 0 0 0 0.59 0.4 1 1 0 0 0 0.51 -0.29 3.14 3.14 0 0 0 0.5 -0.57c0.25 -0.36 0.51 -0.72 0.74 -1.12a5.83 5.83 0 0 0 0.57 -1.28c0.25 -0.87 0.16 -0.78 0.44 -0.8s0.63 0 0.88 0a0.32 0.32 0 0 0 0 -0.64Z" fill="#4C57E6" fill-rule="evenodd" stroke-width="1"></path>
    <path d="M23.85 14a6.23 6.23 0 0 0 -0.59 -2.51 2.19 2.19 0 0 0 -1.59 -1.07 28 28 0 0 0 -3.82 -0.45A23 23 0 0 0 14 10c-0.46 0.06 -0.93 0.21 -1.4 0.29a2.55 2.55 0 0 1 -0.55 0 0.32 0.32 0 0 0 -0.32 0.31 0.32 0.32 0 0 0 0.27 0.4 2.94 2.94 0 0 0 0.66 -0.05c0.46 -0.06 0.92 -0.2 1.37 -0.25a22.14 22.14 0 0 1 3.73 0 29.35 29.35 0 0 1 3.71 0.52 1.38 1.38 0 0 1 1 0.68 5.29 5.29 0 0 1 0.41 2.15c0.05 0.65 0.1 1.28 0.1 1.93l0 1.26a5.64 5.64 0 0 1 -0.22 1.27 1.68 1.68 0 0 1 -0.35 0.61 0.51 0.51 0 0 1 -0.35 0.13l-0.71 0a16.43 16.43 0 0 0 -2.1 0 3.6 3.6 0 0 0 -1 0.25 0.66 0.66 0 0 0 -0.33 0.55l0 0.8 0 1.35a2.79 2.79 0 0 1 -0.12 0.55 5.33 5.33 0 0 0 -0.46 -0.31 14.26 14.26 0 0 1 -1.14 -2.24 3.14 3.14 0 0 0 -0.84 -1 0.63 0.63 0 0 0 -0.43 -0.13 3.27 3.27 0 0 0 -0.6 0.15l-1.14 0.23a5.83 5.83 0 0 1 -0.72 0.06l-0.61 -0.08a1.09 1.09 0 0 1 -0.8 -0.78 7.49 7.49 0 0 1 0 -2.22l0 -2.16a14 14 0 0 1 0 -1.45 8.63 8.63 0 0 1 0.23 -1.41 0.28 0.28 0 0 0 -0.54 -0.14 8.44 8.44 0 0 0 -0.28 1.5 12.62 12.62 0 0 0 -0.07 1.51l0 2.11a8.23 8.23 0 0 0 0 2.47 1.86 1.86 0 0 0 1.3 1.36 3.2 3.2 0 0 0 0.42 0.1 3.28 3.28 0 0 0 0.43 0 6.06 6.06 0 0 0 0.85 -0.05c0.4 0 0.8 -0.13 1.19 -0.2 0.05 0 0.21 -0.11 0.33 -0.15a2.41 2.41 0 0 1 0.52 0.7 15.26 15.26 0 0 0 1.2 2.43 3.4 3.4 0 0 0 0.84 0.78 0.8 0.8 0 0 0 0.61 0.08 1.34 1.34 0 0 0 0.84 -1 8.69 8.69 0 0 0 0.07 -2 4.09 4.09 0 0 0 0.09 -0.53 3.18 3.18 0 0 1 0.55 -0.07l1.72 0a5.55 5.55 0 0 0 1 0 1.5 1.5 0 0 0 0.81 -0.43 2.66 2.66 0 0 0 0.58 -1 6.63 6.63 0 0 0 0.25 -1.56A12.38 12.38 0 0 0 24 16c0 -0.71 -0.08 -1.37 -0.15 -2Zm-9.09 6" fill="#020202" fill-rule="evenodd" stroke-width="1"></path>
    <path d="M7.42 9.7c-0.82 -0.89 -2.21 -2.57 -2.49 -2.87a0.28 0.28 0 1 0 -0.42 0.37c0.28 0.35 1.82 2.54 2.5 3.37a2.79 2.79 0 0 0 0.38 0.39 0.45 0.45 0 0 0 0.47 0 0.45 0.45 0 0 0 0.27 -0.4A14.6 14.6 0 0 1 9.27 8c0.6 -1.18 1.35 -2.57 2.18 -3.86A11.52 11.52 0 0 1 14.61 0.6a0.32 0.32 0 0 0 0.13 -0.43 0.31 0.31 0 0 0 -0.43 -0.17C12.89 0.75 11.26 2.66 10 4.7A28.67 28.67 0 0 0 8.1 8a13.14 13.14 0 0 0 -0.68 1.7Z" fill="#020202" fill-rule="evenodd" stroke-width="1"></path>
    <path d="M19.56 13.21a0.31 0.31 0 0 0 0.16 -0.41 0.31 0.31 0 0 0 -0.41 -0.17A9.76 9.76 0 0 0 17 13.81c-0.08 0 -0.15 0.12 -0.23 0.18l-0.06 0a12 12 0 0 0 -2.58 -1.22 0.27 0.27 0 0 0 -0.37 0.14 0.28 0.28 0 0 0 0.14 0.37 16.92 16.92 0 0 1 2 1.41 8.21 8.21 0 0 0 -0.59 0.59 18.08 18.08 0 0 0 -1.52 2.05 0.28 0.28 0 1 0 0.43 0.35c0.66 -0.69 1.42 -1.34 2.17 -2l0.38 -0.34 0.41 0.3c0.75 0.54 1.52 1 2.32 1.55a0.31 0.31 0 1 0 0.38 -0.5c-0.64 -0.56 -1.22 -1.15 -1.85 -1.69l-0.46 -0.37 0.27 -0.23a11.18 11.18 0 0 1 1.72 -1.19Z" fill="#020202" fill-rule="evenodd" stroke-width="1"></path>
  </g>
</svg>