<svg xmlns="http://www.w3.org/2000/svg" viewBox="0 0 24 24" id="Collaboration-Meeting-Team-File--Streamline-Freehand">
  <desc>
    Collaboration Meeting Team File Streamline Icon: https://streamlinehq.com
  </desc>
  <g>
    <path d="M9.05 10.27a3.86 3.86 0 0 0 1.35 0.27 8.93 8.93 0 0 0 1.16 0c0.8 -0.06 1.39 -0.24 2.48 -0.29 0.22 0 0.86 0.07 1.27 0a1.36 1.36 0 0 0 0.61 -0.2A2 2 0 0 0 16.65 9a7.27 7.27 0 0 0 0.17 -2.32c0 -0.57 0.08 -1.64 0 -2.51a3.27 3.27 0 0 0 -0.32 -1.26 7.5 7.5 0 0 0 -0.89 -1.22A17.15 17.15 0 0 0 14.09 0.16a0.63 0.63 0 0 0 -0.44 -0.16c-0.33 0 -1.12 0.15 -1.25 0.16L9.49 0.55a0.39 0.39 0 0 0 -0.32 0.26 0.35 0.35 0 0 0 -0.33 -0.23 0.34 0.34 0 0 0 -0.33 0.35l-0.1 5.94c0 0.44 -0.14 1.17 -0.15 1.79a2.71 2.71 0 0 0 0.12 0.95 1.18 1.18 0 0 0 0.67 0.66Zm5.76 -7.9a6.27 6.27 0 0 1 0.72 1.07 1.77 1.77 0 0 1 0.13 0.57L15.6 4a15 15 0 0 0 -1.71 -0.23 1.77 1.77 0 0 1 -0.6 -0.2c0 -0.17 0.08 -0.44 0.08 -0.63l0 -0.95 -0.06 -0.86c0.14 0 0.26 0 0.31 -0.1a16.42 16.42 0 0 1 1.19 1.34Zm-5.23 -1 2.87 -0.26 -0.15 0.85c0 0.08 -0.11 0.42 -0.18 0.81a7.38 7.38 0 0 0 -0.06 0.89 1.16 1.16 0 0 0 0.38 0.94 2.5 2.5 0 0 0 1.05 0.31c0.66 0 1.35 -0.16 2 -0.12a0.32 0.32 0 0 0 0.19 0c0 0.76 -0.11 1.56 -0.11 2a8.64 8.64 0 0 1 0 1.41c-0.2 1.57 -0.91 0.79 -1.55 0.82 -1.11 0.07 -1.71 0.25 -2.53 0.33a7.63 7.63 0 0 1 -1 0 3.94 3.94 0 0 1 -0.77 -0.06c-0.09 0 -0.19 -0.14 -0.24 -0.09a2.4 2.4 0 0 1 -0.08 -0.74c0 -0.57 0.07 -1.18 0.05 -1.56L9.2 1.12a0.38 0.38 0 0 0 0.38 0.2Z" fill="#020202" fill-rule="evenodd" stroke-width="1"></path>
    <path d="M21.8 19.15a1.84 1.84 0 0 0 -0.47 -0.36 2.71 2.71 0 0 0 -0.43 -0.14 2.47 2.47 0 0 0 0.67 -2.6A2.93 2.93 0 0 0 19 14a2.15 2.15 0 0 0 -1.48 0.45 2.88 2.88 0 0 0 -1 1.8 2.18 2.18 0 0 0 0.74 2.18 3.51 3.51 0 0 0 -0.75 0.27 1.89 1.89 0 0 0 -0.44 0.35 2.49 2.49 0 0 0 -0.33 0.47 3.31 3.31 0 0 0 -0.37 1.24 3.13 3.13 0 0 0 -0.62 -0.58 4.9 4.9 0 0 0 -0.76 -0.38 2.78 2.78 0 0 0 0.54 -2.76 3.08 3.08 0 0 0 -3.79 -1.95A3 3 0 0 0 9.44 20c-0.14 0.06 -0.29 0.11 -0.42 0.18a3.91 3.91 0 0 0 -0.67 0.53c0 0.06 -0.08 0.13 -0.13 0.18a3.43 3.43 0 0 0 -0.4 -1.27 2.07 2.07 0 0 0 -0.37 -0.47A2.08 2.08 0 0 0 7 18.8a3.88 3.88 0 0 0 -0.45 -0.14 2.47 2.47 0 0 0 0.67 -2.61 2.93 2.93 0 0 0 -2.53 -2 2.12 2.12 0 0 0 -1.47 0.45 2.84 2.84 0 0 0 -1 1.8 2.16 2.16 0 0 0 0.74 2.18 3.61 3.61 0 0 0 -0.76 0.28 2.23 2.23 0 0 0 -0.44 0.36 2.49 2.49 0 0 0 -0.33 0.47A3.41 3.41 0 0 0 1 20.81a0.38 0.38 0 0 0 0.25 0.48 0.39 0.39 0 0 0 0.49 -0.24 2.72 2.72 0 0 1 0.33 -0.48 4.93 4.93 0 0 1 0.4 -0.39l0.37 -0.39a7.82 7.82 0 0 1 0.8 -0.89 0.31 0.31 0 0 0 0.14 -0.16l0.17 0a0.35 0.35 0 0 0 0.36 -0.33 0.33 0.33 0 0 0 -0.31 -0.31c-0.86 -0.11 -1 -0.9 -0.81 -1.6s0.67 -1.27 1.38 -1.18a1.72 1.72 0 0 1 1.5 1.12 1.48 1.48 0 0 1 -0.46 1.81 1.06 1.06 0 0 1 -0.43 0.2 4.17 4.17 0 0 1 -0.59 0.08 0.39 0.39 0 0 0 -0.37 0.4 0.38 0.38 0 0 0 0.4 0.37 3.6 3.6 0 0 0 0.86 -0.06l0.14 0c0.26 0.23 0.47 0.48 0.69 0.7l0.4 0.4a5.23 5.23 0 0 1 0.42 0.39 2.69 2.69 0 0 1 0.34 0.49 0.37 0.37 0 0 0 0.35 0.25 5.09 5.09 0 0 0 -0.62 1.79 0.39 0.39 0 1 0 0.74 0.22 5.47 5.47 0 0 1 1.32 -1.78l0.47 -0.44a6.89 6.89 0 0 1 0.77 -0.61 0.93 0.93 0 0 0 0.1 0 4.47 4.47 0 0 0 1.55 0 0.16 0.16 0 0 0 0.09 0 0.39 0.39 0 0 0 0.46 0.14 2.86 2.86 0 0 0 0.42 -0.24 9.37 9.37 0 0 1 0.85 0.72c0.16 0.16 0.3 0.32 0.43 0.47a5.8 5.8 0 0 1 1.11 2A0.39 0.39 0 0 0 16 24a0.4 0.4 0 0 0 0.29 -0.46 7.17 7.17 0 0 0 -0.4 -1.91 2.6 2.6 0 0 0 -0.21 -0.36 0.38 0.38 0 0 0 0.44 -0.24 3.21 3.21 0 0 1 0.34 -0.48c0.11 -0.14 0.26 -0.24 0.39 -0.38s0.25 -0.24 0.37 -0.38a7.78 7.78 0 0 1 0.8 -0.88 0.29 0.29 0 0 0 0.15 -0.16l0.17 0a0.34 0.34 0 1 0 0 -0.68c-0.85 -0.11 -1 -0.9 -0.81 -1.6s0.68 -1.27 1.39 -1.18a1.71 1.71 0 0 1 1.49 1.12 1.48 1.48 0 0 1 -0.41 1.84 1.17 1.17 0 0 1 -0.44 0.2 4 4 0 0 1 -0.58 0.08 0.39 0.39 0 0 0 -0.37 0.4 0.37 0.37 0 0 0 0.39 0.37 3.68 3.68 0 0 0 0.87 -0.06l0.14 0c0.26 0.23 0.47 0.47 0.69 0.69s0.27 0.26 0.4 0.39 0.29 0.24 0.42 0.39a3.43 3.43 0 0 1 0.34 0.48 0.38 0.38 0 0 0 0.48 0.26 0.39 0.39 0 0 0 0.26 -0.48 3.31 3.31 0 0 0 -0.42 -1.3 2.07 2.07 0 0 0 -0.38 -0.52Zm-11.59 0.34a1.9 1.9 0 0 1 -0.29 -1.83 1.74 1.74 0 0 1 1.17 -1.26 1.93 1.93 0 0 1 2.43 1.07c1.13 2.7 -2.65 2.75 -3.31 2.02Z" fill="#020202" fill-rule="evenodd" stroke-width="1"></path>
    <path d="M2.51 13.13c0.15 0 0.2 0.14 0.88 -1.34 0.09 -0.19 0.16 -0.4 0.23 -0.59 0.46 -1.2 0.61 -1.26 0.38 -1.49 -0.45 -0.4 -1.41 0.85 -1.42 0.88a2.07 2.07 0 0 0 -0.27 0.45 2.46 2.46 0 0 0 -0.15 0.51c-0.06 0.3 -0.11 1.54 0.35 1.58Z" fill="#4C57E6" fill-rule="evenodd" stroke-width="1"></path>
    <path d="M22.81 11a2 2 0 0 0 -0.26 -0.45s-1 -1.28 -1.42 -0.88c-0.25 0.23 -0.11 0.31 0.35 1.49 0.08 0.19 0.15 0.4 0.23 0.59 0.69 1.48 0.73 1.35 0.89 1.34 0.46 0 0.4 -1.28 0.36 -1.58a2 2 0 0 0 -0.15 -0.51Z" fill="#4C57E6" fill-rule="evenodd" stroke-width="1"></path>
    <path d="M6 8.72a1.48 1.48 0 0 0 0.27 -0.16 1.12 1.12 0 0 0 0.24 -0.19c0.76 -0.67 0.9 -0.72 0.79 -1 0 -0.11 -0.16 -0.48 -1.4 -0.05a1.62 1.62 0 0 0 -0.35 0.17 1.68 1.68 0 0 0 -0.29 0.24c-0.16 0.18 -0.75 1 -0.51 1.24 0.09 0.08 0.15 0.25 1.25 -0.25Z" fill="#4C57E6" fill-rule="evenodd" stroke-width="1"></path>
    <path d="M18.58 8.37a2 2 0 0 0 0.24 0.19 1.56 1.56 0 0 0 0.28 0.16c1.11 0.5 1.17 0.33 1.25 0.24 0.24 -0.26 -0.36 -1.06 -0.51 -1.24a1.76 1.76 0 0 0 -0.3 -0.24 1.42 1.42 0 0 0 -0.35 -0.17c-1.23 -0.43 -1.36 -0.06 -1.4 0.05 -0.1 0.29 0.04 0.34 0.79 1.01Z" fill="#4C57E6" fill-rule="evenodd" stroke-width="1"></path>
  </g>
</svg>