<svg xmlns="http://www.w3.org/2000/svg" viewBox="0 0 24 24" id="Collaboration-Meeting-Message-Men-Lock--Streamline-Freehand">
  <desc>
    Collaboration Meeting Message Men Lock Streamline Icon: https://streamlinehq.com
  </desc>
  <g>
    <path d="M9.71 21.6a4.16 4.16 0 0 0 -2.42 -2.16c3 -1.48 1.91 -6 -1.41 -5.85 -4.42 0.25 -4.49 4.82 -2.15 5.94a5.76 5.76 0 0 0 -3.13 3.8 0.29 0.29 0 0 0 0.2 0.36c0.5 0.15 0.26 -0.69 1.4 -1.88 2.49 -2.61 6.42 -2 7.6 1.79a0.33 0.33 0 0 0 0.64 -0.19 8.08 8.08 0 0 0 -0.73 -1.81Zm-6.48 -3.83c1.53 0.27 2 -0.22 3 -0.89l0 -0.05a9.19 9.19 0 0 0 0.78 0.84 0.34 0.34 0 0 0 0.48 -0.47C7 16.59 7 15.93 6.46 15.72c-0.35 -0.15 -0.76 0.22 -0.85 0.27 -1.18 0.79 -1.36 1.07 -2.47 1.14 0 -1.24 0.75 -2.29 2.81 -2.43a2 2 0 0 1 2.16 2.06c0.07 2.5 -3.19 2.73 -4.21 2a1.63 1.63 0 0 1 -0.67 -0.99Z" fill="#020202" fill-rule="evenodd" stroke-width="1"></path>
    <path d="M23.39 23.1a6.85 6.85 0 0 0 -2.19 -3.23 3.69 3.69 0 0 0 -1 -0.46c2.91 -1.53 1.8 -6 -1.48 -5.82 -4.3 0.24 -4.45 4.56 -2.39 5.82 0.43 0.26 0.4 0 -0.32 0.5a5.81 5.81 0 0 0 -2.46 3.74 0.3 0.3 0 0 0 0.58 0.12 5 5 0 0 1 4.4 -3.54 5.74 5.74 0 0 1 2.09 0.45 5.76 5.76 0 0 1 2.13 2.65 0.34 0.34 0 0 0 0.64 -0.23Zm-4.6 -8.4a2.05 2.05 0 0 1 2.14 2.49c-1.93 -0.13 -2.4 -1.66 -3.22 -1.08a8 8 0 0 0 -1.2 1.15 0.34 0.34 0 0 0 0.48 0.47 5.78 5.78 0 0 1 1 -0.65 2.9 2.9 0 0 0 2.69 0.77 2.27 2.27 0 0 1 -2.17 1.26 2.63 2.63 0 0 1 -1.8 -0.33c-1.16 -0.84 -1.38 -3.85 2.08 -4.08Z" fill="#020202" fill-rule="evenodd" stroke-width="1"></path>
    <path d="M18.46 12.38a2.89 2.89 0 0 0 1.89 -0.74c0.74 -1.08 1.24 -10 0.69 -10.72C20.76 0.57 19.11 0.36 19 0.35 16.54 0.18 7.92 -0.34 5.57 0.34a0.33 0.33 0 0 0 0.18 0.66c2.26 -0.61 10.84 0.1 13.16 0.3a11 11 0 0 1 1.3 0.28c0.19 0.88 -0.25 8.7 -0.78 9.45 0 0.06 -0.14 0.06 -0.25 0.1a7.55 7.55 0 0 1 -1.37 0.22c-3.2 0.26 -3.21 -0.14 -3.76 0.36 -0.24 0.23 -0.52 0.64 -0.66 0.79 -1.87 2 -1.7 1.85 -2 2.13 0 -0.08 -0.11 -0.15 -0.13 -0.2 -0.62 -1.64 0.19 -2.86 -0.77 -3.17 -0.48 -0.15 -4.39 0.06 -5.45 -0.45 -0.55 -1.12 -0.3 -6.7 -0.22 -8 0.06 -1 0.17 -1.12 -0.09 -1.22a0.32 0.32 0 0 0 -0.41 0.27c-0.18 0.92 -0.62 7.5 -0.1 9.08a1 1 0 0 0 0.39 0.54c1.19 0.66 4.39 0.52 5.39 0.64a2.19 2.19 0 0 0 0 0.47 6.41 6.41 0 0 0 0.28 2.18c0.14 0.39 0.26 0.81 0.72 0.93 0.82 0.22 1.2 -0.38 3.17 -2.48 1.41 -1.49 -0.56 -0.22 4.29 -0.84Z" fill="#020202" fill-rule="evenodd" stroke-width="1"></path>
    <path d="M9.56 5.8a7.31 7.31 0 0 0 -0.16 2 1.63 1.63 0 0 0 0.81 1.38c1 0.58 3.81 0.16 4.11 0.06 0.86 -0.31 1 -1.14 1 -2a7.83 7.83 0 0 0 -0.14 -1.39 22.51 22.51 0 0 0 -0.87 -2.68c-1.38 -2.07 -4.9 -0.62 -4.52 2.39a0.37 0.37 0 0 0 -0.23 0.24Zm4.59 2c-0.08 0.61 -0.26 0.4 -1.2 0.55 -0.46 0.09 -2.17 0.4 -2.53 -0.09a2.74 2.74 0 0 1 -0.27 -1.63c0.1 -0.87 -0.28 -0.75 1.66 -0.81A1.26 1.26 0 0 0 12 7a0.33 0.33 0 0 0 0.66 -0.08c0.09 -0.38 0.33 -0.6 0.09 -1.11l1.38 0a9.45 9.45 0 0 1 0.02 2Zm-0.57 -4.09a2 2 0 0 1 0.5 1.09c0 0.27 0.45 -0.1 -3.21 0.45a1.42 1.42 0 0 0 -0.52 0.12c0.24 -1.84 2.36 -2.61 3.23 -1.65Z" fill="#4C57E6" fill-rule="evenodd" stroke-width="1"></path>
  </g>
</svg>