<svg xmlns="http://www.w3.org/2000/svg" viewBox="0 0 24 24" id="Color-Rolling-Brush--Streamline-Freehand">
  <desc>
    Color Rolling Brush Streamline Icon: https://streamlinehq.com
  </desc>
  <g>
    <path d="M11.74 1.88a19.57 19.57 0 0 1 -2.54 0l-1.74 0a12.27 12.27 0 0 0 -2.94 0.59 0.34 0.34 0 0 0 -0.26 0.4 0.33 0.33 0 0 0 0.4 0.26 19.74 19.74 0 0 1 2.55 0l1.73 0a13.9 13.9 0 0 0 2.94 -0.49 0.37 0.37 0 0 0 0.31 -0.44 0.39 0.39 0 0 0 -0.45 -0.32Z" fill="#4C57E6" fill-rule="evenodd" stroke-width="1"></path>
    <path d="m14.65 1.65 -0.23 0a0.59 0.59 0 0 0 -0.23 0s-0.85 0.37 -0.84 0.65 0.81 0.56 0.9 0.58a0.86 0.86 0 0 0 0.23 0l0.23 -0.05c0.9 -0.32 0.89 -0.5 0.88 -0.66s-0.01 -0.3 -0.94 -0.52Z" fill="#4C57E6" fill-rule="evenodd" stroke-width="1"></path>
    <g>
      <path d="M11.19 15.64a0.39 0.39 0 0 0 -0.75 0.18c0.23 1.05 0.78 4.7 1 6.25a1.61 1.61 0 0 1 0 0.31l-0.42 0.27a4.07 4.07 0 0 1 -0.89 0.06 4.72 4.72 0 0 1 -0.88 -0.16c-0.13 0 -0.58 -0.09 -0.46 -0.2a2.51 2.51 0 0 1 0 -0.68c0 -0.47 0.09 -1 0.13 -1.36 0.08 -0.93 0.2 -1.85 0.35 -2.76 0.09 -0.52 0.2 -1 0.31 -1.57s-0.74 -0.45 -1.19 1.39c-0.23 0.92 -0.44 1.84 -0.6 2.79 -0.08 0.41 -0.19 0.93 -0.24 1.43a3.26 3.26 0 0 0 0.07 1.14 1.15 1.15 0 0 0 0.38 0.6 2.5 2.5 0 0 0 1 0.45 5.17 5.17 0 0 0 1 0.22 4.85 4.85 0 0 0 1.16 -0.08 1.28 1.28 0 0 0 0.54 -0.21 7.29 7.29 0 0 0 0.72 -0.54 0.67 0.67 0 0 0 0.23 -0.59c0 -0.11 0 -0.35 -0.1 -0.68 -0.26 -1.56 -1.07 -5.22 -1.36 -6.26Z" fill="#4C57E6" fill-rule="evenodd" stroke-width="1"></path>
      <path d="M22.15 8.57a19.88 19.88 0 0 0 -0.07 -3.5 2.74 2.74 0 0 0 -0.75 -1.52 1.15 1.15 0 0 0 -0.61 -0.26 5.43 5.43 0 0 0 -1 0c0 -0.33 0 -0.64 -0.07 -0.9l-0.13 -1.22c0 -0.05 0 -0.34 -0.07 -0.45a0.66 0.66 0 0 0 -0.33 -0.4c-0.6 -0.3 -4.53 -0.42 -8.5 -0.28a47.08 47.08 0 0 0 -8.3 0.77 0.37 0.37 0 0 0 -0.2 0.19 0.28 0.28 0 0 0 -0.12 0.2 8.87 8.87 0 0 0 -0.17 1c-0.06 0.51 -0.08 1 -0.1 1.52s0 2.2 0.11 3.17a2.9 2.9 0 0 0 0.22 1 1.49 1.49 0 0 0 0.9 0.34 50 50 0 0 0 5.79 0.19c3.27 0 6.92 -0.18 8.61 -0.32a3.84 3.84 0 0 0 1.28 -0.27 2.83 2.83 0 0 0 1 -1.67A8.41 8.41 0 0 0 19.78 4l0.46 0c0.15 0 0.44 0 0.52 0.08a2.42 2.42 0 0 1 0.45 1.55c0 1 -0.17 2.13 -0.2 2.89 0 0.36 0.06 0.87 0 1.32a0.57 0.57 0 0 1 -0.1 0.38 3.61 3.61 0 0 1 -2.58 0.79c-1.65 0 -3.48 -0.37 -4.84 -0.35a4.79 4.79 0 0 0 -3.17 0.84 2.83 2.83 0 0 0 -0.8 2.14c0 0.7 -0.12 2 0.55 1.86a0.38 0.38 0 0 0 0.31 -0.44 5.07 5.07 0 0 1 0 -0.68l0 -0.7A1.75 1.75 0 0 1 11.3 12a5.1 5.1 0 0 1 2.22 -0.23c0.81 0 1.77 0.22 2.76 0.35a12 12 0 0 0 3 0.13 4.33 4.33 0 0 0 2.57 -1.13 1.58 1.58 0 0 0 0.43 -1 11.57 11.57 0 0 0 -0.13 -1.55Zm-3.7 -3.14c-0.27 2 0.21 1.52 -9.73 1.87a56.33 56.33 0 0 1 -5.65 0 2.75 2.75 0 0 1 -0.3 -0.07l0 -0.08c-0.06 -0.36 -0.12 -0.93 -0.16 -1.52 -0.07 -0.76 -0.11 -1.54 -0.11 -1.92l0 -1.46c0 -0.24 0.05 -0.49 0.09 -0.73a46.6 46.6 0 0 1 8 -0.5 55.39 55.39 0 0 1 7.65 0.29l0.1 1.14a14.83 14.83 0 0 1 0.11 2.98Z" fill="#020202" fill-rule="evenodd" stroke-width="1"></path>
    </g>
  </g>
</svg>