<svg xmlns="http://www.w3.org/2000/svg" viewBox="0 0 24 24" id="Common-File-Favorite-Heart--Streamline-Freehand">
  <desc>
    Common File Favorite Heart Streamline Icon: https://streamlinehq.com
  </desc>
  <g>
    <g>
      <path d="M12.49 15.68a0.31 0.31 0 1 0 0.4 0.47c2 -1.62 4.37 -4 3.43 -6.17a2.38 2.38 0 0 0 -4.11 -0.5c-0.08 0.1 -0.26 0.43 -0.42 0.71a6.42 6.42 0 0 0 -0.46 -0.77c-1.48 -1.36 -3.78 -1.23 -4.41 0.79s0.86 3.86 2.85 4.92a19.72 19.72 0 0 0 1.93 0.93 0.27 0.27 0 0 0 0.21 -0.5c-2.22 -1.1 -5 -2.7 -4.1 -5.06 0.44 -1.25 1.89 -1.19 2.8 -0.32 0.42 0.39 0.77 1.28 1.34 1.28s0.75 -0.94 1.07 -1.34a1.42 1.42 0 0 1 2.48 0.23c0.82 1.72 -1.58 4.07 -3.01 5.33Z" fill="#020202" stroke-width="1"></path>
      <g>
        <path d="M21.21 5.51c0 -1.44 -0.88 -1.68 -1.91 -2.56S17.54 1.22 16.6 0.49a0.31 0.31 0 0 0 -0.38 0.49c0.89 0.71 1.75 1.7 2.64 2.48s1.62 1 1.63 2.06c0 0.67 -0.15 1.45 -0.15 1.9a59.48 59.48 0 0 1 -0.44 9 19.58 19.58 0 0 1 -0.72 3.18 2.58 2.58 0 0 1 -0.63 0.71 3.9 3.9 0 0 1 -1.85 0.3c-0.69 0 -6.95 -0.07 -9.14 -0.23 -1.74 -0.13 -3.44 -0.32 -5.34 -0.5 1.94 -5 1.58 -15.1 2.09 -18.1 0.44 -0.41 7.69 -1.19 8.07 -1.2A4.26 4.26 0 0 1 14 0.75a0.28 0.28 0 0 0 0.18 -0.52A5.32 5.32 0 0 0 12.36 0c-0.74 0 -7 0.66 -7.95 0.92a1 1 0 0 0 -0.8 0.62C3 3.07 3.14 16.25 1 20a0.51 0.51 0 0 0 0.4 0.77 91.65 91.65 0 0 0 10.17 0.72c2.24 0 6.54 0.35 7.57 -0.51a3.13 3.13 0 0 0 1.22 -2.2c1 -4.52 0.69 -7.73 0.71 -11.39 0.01 -0.39 0.15 -1.21 0.14 -1.88Z" fill="#020202" stroke-width="1"></path>
        <path d="M15.26 6.44a8.62 8.62 0 0 0 4.14 -0.51c1.09 -0.57 0.31 -1.22 0 -0.8a0.71 0.71 0 0 1 -0.28 0.18c-0.45 0.17 -3.46 0.39 -3.64 0.08s0.07 -1.91 0.13 -2.57c0.12 -1.19 0.14 -1.2 0 -1.26 -0.37 -0.16 -0.5 0.64 -0.63 1.14 -0.22 0.78 -1.35 3.18 0.28 3.74Z" fill="#020202" stroke-width="1"></path>
      </g>
    </g>
    <path d="M23.06 9c0 -0.71 -0.67 -0.69 -0.69 -0.06s-0.12 1.06 -0.13 1.4a57.38 57.38 0 0 1 -0.37 8.66 19.39 19.39 0 0 1 -0.68 3 2.41 2.41 0 0 1 -0.61 0.68 3.75 3.75 0 0 1 -1.78 0.3c-0.66 0 -6.69 0 -8.8 -0.18 -1.43 -0.1 -2.85 -0.24 -4.38 -0.38 -1.11 -0.17 -1.57 0.7 -0.68 0.93a77.3 77.3 0 0 0 8.94 0.57c2.15 0 6.3 0.31 7.29 -0.53a3.07 3.07 0 0 0 1.16 -2.13c0.91 -4.35 0.63 -7.45 0.63 -11C23 10 23 9.5 23.06 9Z" fill="#4C57E6" stroke-width="1"></path>
  </g>
</svg>