<svg xmlns="http://www.w3.org/2000/svg" viewBox="0 0 24 24" id="Common-File-Give-Hand-1--Streamline-Freehand">
  <desc>
    Common File Give Hand 1 Streamline Icon: https://streamlinehq.com
  </desc>
  <g>
    <path d="M20.48 19.37c-0.53 -0.44 -1.27 -0.78 -1.84 -1.24a2.28 2.28 0 0 1 -0.55 -0.57 2 2 0 0 1 0 -0.93 2.93 2.93 0 0 0 -0.2 -1.43 1.26 1.26 0 0 0 -1.4 -0.58 1.52 1.52 0 0 0 -1 0.53 7.9 7.9 0 0 0 -0.93 1.7 2.17 2.17 0 0 1 -0.19 0.34s-0.05 0.11 -0.1 0.1a8.54 8.54 0 0 1 -0.88 -0.13 0.37 0.37 0 0 0 0 -0.39 6.61 6.61 0 0 1 -0.36 -1.51 5.15 5.15 0 0 1 0 -1.51 1 1 0 0 0 -0.73 -1.24 1.28 1.28 0 0 0 -0.83 0.07 2.21 2.21 0 0 0 -1.08 0.94l-0.33 0.87c-0.17 -0.31 -0.3 -0.66 -0.5 -1a2.47 2.47 0 0 0 -0.56 -0.64 1.4 1.4 0 0 0 -1.61 -0.1 1.79 1.79 0 0 0 -0.63 1.93l0.12 0.28c-0.27 -0.2 -0.54 -0.41 -0.82 -0.58a5.76 5.76 0 0 0 -0.6 -0.33 1.37 1.37 0 0 0 -1.35 0 1.62 1.62 0 0 0 -0.64 1 2.85 2.85 0 0 0 0.61 2.47 7.34 7.34 0 0 0 2.77 1.91c0.81 0.35 2.26 0.91 3.73 1.46s2.89 1.05 3.77 1.33a7.35 7.35 0 0 1 1.71 0.72 1.06 1.06 0 0 1 0.59 0.77 0.36 0.36 0 0 0 0.35 0.39 0.36 0.36 0 0 0 0.3 -0.39 1.65 1.65 0 0 0 -0.57 -1.07 6.74 6.74 0 0 0 -2.16 -1.11c-0.85 -0.31 -2.27 -0.89 -3.67 -1.48s-2.82 -1.22 -3.61 -1.6a6.19 6.19 0 0 1 -2.24 -1.63 1.61 1.61 0 0 1 -0.34 -1.4c0 -0.06 0.07 -0.12 0.09 -0.17h0.1a3.75 3.75 0 0 1 0.44 0.24c0.69 0.43 1.3 1 2 1.37a17.35 17.35 0 0 0 3.38 1.11 20.94 20.94 0 0 0 3.47 0.56 1.24 1.24 0 0 0 1.11 -0.65 12.44 12.44 0 0 0 0.7 -1.43c0.16 -0.34 0.3 -0.68 0.62 -0.73s0.45 0.05 0.49 0.25a8.62 8.62 0 0 1 0.05 1.35 1.73 1.73 0 0 0 0.22 0.82 3.13 3.13 0 0 0 0.77 0.77c0.59 0.43 1.33 0.75 1.87 1.17a0.39 0.39 0 0 0 0.55 -0.06 0.39 0.39 0 0 0 -0.09 -0.55Zm-9.21 -5.3a1.64 1.64 0 0 1 0.51 -0.35 6 6 0 0 0 0.2 1.76 6.26 6.26 0 0 0 0.7 1.56c-0.49 -0.09 -1 -0.21 -1.51 -0.34a3.89 3.89 0 0 1 -0.25 -0.42c-0.16 -0.35 -0.31 -0.73 -0.45 -1.08a0.34 0.34 0 0 0 0.17 -0.2ZM7.82 15.5l0 -0.1 -0.2 -1a0.92 0.92 0 0 1 0.19 -0.6c0.09 -0.13 0.24 -0.12 0.41 0a1.34 1.34 0 0 1 0.32 0.35c0.19 0.28 0.35 0.59 0.54 0.87s0.5 0.81 0.8 1.29A11.32 11.32 0 0 1 8 15.6Z" fill="#020202" fill-rule="evenodd" stroke-width="1"></path>
    <path d="M8.67 11.28a7.74 7.74 0 0 0 1.81 0.3 22.42 22.42 0 0 0 2.72 0s5 -0.36 5 -0.38l0.49 -7.13A9.63 9.63 0 0 0 18.55 2a2.74 2.74 0 0 0 -0.77 -1.46 1.52 1.52 0 0 0 -0.65 -0.31 8.78 8.78 0 0 0 -1 -0.14A16.61 16.61 0 0 0 14.36 0c-0.86 0 -1.73 0.06 -2.57 0.13L9.67 0.29c-0.48 0.05 -1 0.1 -1.43 0.18a0.36 0.36 0 0 0 -0.3 0.39 0.34 0.34 0 0 0 0.13 0.22 0.31 0.31 0 0 0 -0.15 0.24c-0.09 0.62 -0.16 1.24 -0.22 1.87s-0.1 1.25 -0.14 1.88a36.87 36.87 0 0 0 -0.35 3.74 3.35 3.35 0 0 0 0.56 1.85 1.85 1.85 0 0 0 0.9 0.62Zm1 -10.19 2.12 0c0.7 0 1.38 0 2.08 0.06a19.19 19.19 0 0 1 2 0.21c0.47 0.07 1 -0.36 1.33 0.93a9 9 0 0 1 0.16 1.78v6.54a0.42 0.42 0 0 0 -0.26 -0.1c-1.3 0 -2.63 0.05 -4 0a21.73 21.73 0 0 1 -2.56 -0.22c-0.28 -0.05 -0.72 -0.08 -1.14 -0.17 -0.26 -0.06 -0.53 -0.11 -0.65 -0.28a2.24 2.24 0 0 1 -0.32 -1.16c-0.11 -1.25 0.1 -2.78 0.07 -3.65l0 -1.84c0 -0.61 0 -1.23 0.06 -1.85a0.31 0.31 0 0 0 -0.08 -0.23c0.44 0.01 0.84 -0.01 1.23 -0.02Z" fill="#020202" fill-rule="evenodd" stroke-width="1"></path>
    <path d="m10.69 3.85 1.61 0 0.67 0 0.67 -0.08c0.54 -0.07 1.06 -0.16 1.6 -0.2a0.39 0.39 0 0 0 0.41 -0.37 0.38 0.38 0 0 0 -0.37 -0.41 13.19 13.19 0 0 0 -1.67 -0.26 5.93 5.93 0 0 0 -0.73 0 4.3 4.3 0 0 0 -0.72 0.09 10 10 0 0 0 -1.62 0.56 0.35 0.35 0 0 0 0.15 0.68Z" fill="#4C57E6" fill-rule="evenodd" stroke-width="1"></path>
    <path d="M13.32 5a4.42 4.42 0 0 0 -0.63 0 3.19 3.19 0 0 0 -0.62 0.08 8.54 8.54 0 0 0 -1.4 0.48 0.35 0.35 0 0 0 -0.28 0.4 0.34 0.34 0 0 0 0.4 0.28c0.52 0 1 0.1 1.59 0.1 0.31 0 0.62 0 0.92 -0.08 0.48 0 0.94 -0.15 1.39 -0.17a0.39 0.39 0 1 0 0.1 -0.77A7.66 7.66 0 0 0 13.32 5Z" fill="#4C57E6" fill-rule="evenodd" stroke-width="1"></path>
    <path d="M10.49 8.57a13.86 13.86 0 0 0 1.83 0.22 9.59 9.59 0 0 0 1.07 -0.06c0.53 -0.06 1 -0.17 1.58 -0.2a0.39 0.39 0 0 0 0.03 -0.78 9.9 9.9 0 0 0 -1.63 -0.27 5.3 5.3 0 0 0 -0.69 0 5.05 5.05 0 0 0 -0.68 0.07c-0.54 0.09 -1 0.24 -1.56 0.35a0.36 0.36 0 0 0 -0.34 0.36 0.35 0.35 0 0 0 0.39 0.31Z" fill="#4C57E6" fill-rule="evenodd" stroke-width="1"></path>
  </g>
</svg>