<svg xmlns="http://www.w3.org/2000/svg" viewBox="0 0 24 24" id="Common-File-Text-Settings--Streamline-Freehand">
  <desc>
    Common File Text Settings Streamline Icon: https://streamlinehq.com
  </desc>
  <g>
    <g>
      <path d="M18.19 18.29c-0.66 0.13 -1.16 0.91 -0.62 1.44a1.47 1.47 0 0 0 0.59 0.34c1.75 0.37 1.53 -2.07 0.03 -1.78Z" fill="#020202" stroke-width="1"></path>
      <path d="M23.73 20.25a9.48 9.48 0 0 0 -1.9 -1.25c1 -0.64 1.63 -0.88 1.63 -1.6a3.43 3.43 0 0 0 -1 -2.05c-0.69 -0.48 -1.15 -0.09 -2.19 0.5 0 -0.79 0.12 -1.52 -0.56 -1.93a4.47 4.47 0 0 0 -2.32 -0.43c-1.05 0.23 -1 1.13 -1 2.42l-1.15 -0.69c-1.09 -0.54 -1.9 0.57 -2.23 1.73 -0.24 0.86 0.11 1.17 0.87 1.64s0.27 0.1 0.44 1c-1.85 1.2 -1.6 1 -0.71 2.68a3.4 3.4 0 0 0 0.79 0.76 1.38 1.38 0 0 0 1.4 -0.19c0.84 -0.5 0.72 -0.71 0.73 -0.27s-0.06 1 0.29 1.18a2.81 2.81 0 0 0 0.81 0.15 5.13 5.13 0 0 0 0.85 0.13c0.4 -0.06 1.07 0 1.36 -0.49a1 1 0 0 0 0.18 -0.92 0.3 0.3 0 0 0 -0.59 0.05c0 0.47 0 0.33 -0.11 0.55s-0.62 0.14 -0.86 0.16c-0.86 -0.17 -0.52 -0.11 -1.16 -0.21 0.06 -0.13 -0.05 -0.46 0 -0.59l0 -1a0.38 0.38 0 0 0 -0.6 -0.32c-0.5 0.32 -1.29 1 -1.77 1.06 -0.14 0 -0.38 -0.31 -0.53 -0.48l-0.25 -0.52a2.11 2.11 0 0 0 -0.14 -0.44c0.14 -0.06 0.33 -0.12 0.4 -0.16l0.77 -0.46a0.51 0.51 0 0 0 0.2 -0.59c-0.22 -0.69 0.26 -1 -0.18 -1.37l-1.2 -0.93a3.1 3.1 0 0 1 0.34 -0.83c0.07 -0.12 0.25 -0.39 0.37 -0.33 2.06 1.26 1.75 1.18 2.4 0.92s0.24 -0.93 0.45 -2.54a3.34 3.34 0 0 1 1.55 0.26c0 0.63 0 0.22 0.12 1.86a0.55 0.55 0 0 0 0.32 0.48c0.34 0.16 0.4 0 2.17 -1 0.11 -0.05 0.4 -0.05 0.8 1.24 -1.23 0.92 -1.49 1 -1.54 1.27 -0.12 1 -0.3 0.67 2 2a2.46 2.46 0 0 1 -0.68 1.3c-0.11 0.1 0 0.23 -0.85 -0.27 -0.39 -0.22 -0.78 -0.47 -1.09 -0.67a0.34 0.34 0 0 0 -0.37 0.56 13.2 13.2 0 0 0 1.91 1.14c0.9 0.43 2.26 -1.76 1.83 -2.51Z" fill="#020202" stroke-width="1"></path>
      <g>
        <path d="M5.06 5.2a9.87 9.87 0 0 0 1.51 0.36 10.65 10.65 0 0 0 3 0 0.34 0.34 0 0 0 0.05 -0.67 10.27 10.27 0 0 0 -3 -0.37A4.73 4.73 0 0 0 5 4.64c-0.18 0.1 -0.23 0.36 0.06 0.56Z" fill="#020202" stroke-width="1"></path>
        <path d="M4.74 9.11a0.29 0.29 0 1 0 0.48 0.33 19.1 19.1 0 0 1 2.87 0.16c2.39 0.06 4.07 -0.25 5.8 -0.34a0.34 0.34 0 0 0 0 -0.68 41.79 41.79 0 0 0 -6.9 0c-0.43 0.07 -1.94 -0.01 -2.25 0.53Z" fill="#020202" stroke-width="1"></path>
        <path d="M10.79 13.07a13.66 13.66 0 0 0 -5 0c-0.81 0.13 -0.92 0.12 -1 0.22a0.31 0.31 0 0 0 0.13 0.55s0.29 0 0.39 0a19.1 19.1 0 0 0 5.49 -0.05 0.34 0.34 0 0 0 -0.01 -0.72Z" fill="#020202" stroke-width="1"></path>
        <path d="M10.15 17.38c-2.82 0 -5.9 -0.37 -8.72 -0.68C2.89 13 2.74 7.83 3.18 2c0 -0.09 0.19 -0.42 0.28 -0.44 1 -0.24 5.74 -0.88 6.36 -0.91a3.62 3.62 0 0 1 1.33 0.12C11.54 0.91 12.23 0 9.8 0c-0.57 0 -5.86 0.48 -6.69 0.7 -0.99 0.3 -0.86 0.78 -1.11 3.05 -0.48 6.71 -0.51 8.46 -1 10.83s-1 2.34 -0.75 2.76a0.49 0.49 0 0 0 0.39 0.27c3 0.23 6.53 0.51 9.52 0.45a0.34 0.34 0 0 0 -0.01 -0.68Z" fill="#020202" stroke-width="1"></path>
        <path d="M15.1 3.14c0.36 0.34 1 0.78 1.17 1.15l-0.1 6.28a0.3 0.3 0 1 0 0.59 0c0 -0.54 1 -5.75 0.52 -6.78 -0.35 -0.68 -0.42 -0.45 -3.89 -3.35A0.34 0.34 0 1 0 13 1Z" fill="#020202" stroke-width="1"></path>
        <path d="M11.54 5.09c0.53 1 2.33 0.59 3.49 0.28 2 -0.55 1 -1.54 0.6 -1a6 6 0 0 1 -3.1 0.2 6.56 6.56 0 0 1 0.09 -2.08c0.07 -1.09 0.09 -1.07 -0.1 -1.13 -0.38 -0.16 -0.49 0.44 -0.64 1 -0.2 0.73 -0.8 1.82 -0.34 2.73Z" fill="#020202" stroke-width="1"></path>
      </g>
    </g>
    <path d="M18.11 3a8.46 8.46 0 0 1 1.28 1.47l-1.15 7.26c0 0.39 0.22 0.57 0.45 0.26 0.37 -0.86 2.08 -7.21 1.5 -8.18a13.31 13.31 0 0 0 -2.65 -2.51 0.33 0.33 0 0 0 -0.45 0.49Z" fill="#4C57E6" stroke-width="1"></path>
  </g>
</svg>