<svg xmlns="http://www.w3.org/2000/svg" viewBox="0 0 24 24" id="Common-File-Text-Home--Streamline-Freehand">
  <desc>
    Common File Text Home Streamline Icon: https://streamlinehq.com
  </desc>
  <g>
    <path d="M23.39 19c-0.83 -1.1 -5.18 -6 -6.5 -5.6 -2 0.69 -4.22 4 -5.9 5.82a0.29 0.29 0 0 0 0.43 0.4c0.68 -0.64 0.36 -0.34 1.37 -1.34 -0.07 5.48 0.09 5.59 0.75 5.72a15.85 15.85 0 0 0 2.09 -0.08c0.92 -0.15 0.4 -1.33 0.78 -2.89 0.08 -0.35 0.21 -0.62 0.58 -0.64a1.09 1.09 0 0 1 1.09 0.55 4.74 4.74 0 0 1 0.44 2.43 0.5 0.5 0 0 0 0.41 0.54c0.89 0.16 2 0.25 2.37 -0.13 0.77 -0.77 0.33 -3.57 0.35 -5.66 0.48 0.48 0.93 0.92 1.23 1.29a0.33 0.33 0 1 0 0.51 -0.41ZM21 17.62c-0.16 1 0.11 5.06 -0.25 5.48a2.75 2.75 0 0 1 -1.2 -0.1c0.06 -2 -0.61 -3.92 -2.63 -3.79 -1.74 0.11 -1.67 1.92 -1.75 3.53 -0.34 0 -1 0.28 -1.35 0.34a44.83 44.83 0 0 1 -0.44 -5.46c1.92 -1.93 2.57 -2.55 3.84 -3.15a22.49 22.49 0 0 1 3.39 2.61c0.57 0.54 0.39 0.34 0.39 0.54Z" fill="#020202" stroke-width="1"></path>
    <g>
      <path d="M5.38 5.18a10.87 10.87 0 0 0 1.51 0.36 10.56 10.56 0 0 0 3 0 0.34 0.34 0 0 0 0 -0.67 10.2 10.2 0 0 0 -3 -0.37 4.68 4.68 0 0 0 -1.63 0.14c-0.11 0.08 -0.16 0.36 0.12 0.54Z" fill="#020202" stroke-width="1"></path>
      <path d="M5.06 9.07a0.3 0.3 0 0 0 0.49 0.34 17.29 17.29 0 0 1 2.86 0.15c2.38 0.06 4 -0.25 5.77 -0.34a0.34 0.34 0 0 0 0 -0.67 41.44 41.44 0 0 0 -6.87 0c-0.43 0.07 -1.93 -0.01 -2.25 0.52Z" fill="#020202" stroke-width="1"></path>
      <path d="M11.09 13a13.55 13.55 0 0 0 -5 0c-0.8 0.13 -0.91 0.12 -1 0.22a0.3 0.3 0 0 0 0.14 0.54 2.69 2.69 0 0 0 0.39 0 18.9 18.9 0 0 0 5.46 -0.05 0.34 0.34 0 1 0 0.01 -0.71Z" fill="#020202" stroke-width="1"></path>
      <path d="M10.46 17.31a84.51 84.51 0 0 1 -8.69 -0.68C3.23 13 3.08 7.8 3.51 2c0 -0.09 0.2 -0.41 0.29 -0.43 1 -0.24 5.71 -0.88 6.33 -0.91a3.54 3.54 0 0 1 1.32 0.12C11.84 0.9 12.53 0 10.11 0c-0.57 0 -5.84 0.48 -6.67 0.69 -1 0.26 -0.85 0.78 -1.11 3.05 -0.47 6.68 -0.5 8.42 -1 10.78s-0.96 2.33 -0.74 2.75a0.52 0.52 0 0 0 0.39 0.27c3 0.23 6.51 0.51 9.48 0.45a0.34 0.34 0 0 0 0 -0.68Z" fill="#020202" stroke-width="1"></path>
      <path d="M15.39 3.13c0.35 0.34 1 0.77 1.16 1.14l-0.1 6.25a0.3 0.3 0 1 0 0.59 0c0 -0.54 1 -5.72 0.52 -6.75 -0.35 -0.68 -0.42 -0.45 -3.87 -3.35a0.34 0.34 0 0 0 -0.42 0.53Z" fill="#020202" stroke-width="1"></path>
      <path d="M11.84 5.07c0.53 1 2.33 0.59 3.48 0.27 2 -0.53 1 -1.53 0.59 -1a6.05 6.05 0 0 1 -3.08 0.2c-0.2 -0.32 0 -1.53 0.08 -2.08 0.08 -1.08 0.09 -1.07 -0.09 -1.13 -0.38 -0.16 -0.49 0.45 -0.64 1 -0.18 0.74 -0.79 1.83 -0.34 2.74Z" fill="#020202" stroke-width="1"></path>
    </g>
    <path d="M18.32 2.19a8.51 8.51 0 0 1 1.28 1.48l-1 8.58c0 0.39 0.22 0.57 0.46 0.26C19.46 11.65 21 4 20.41 3A13.69 13.69 0 0 0 17.75 0.45a0.33 0.33 0 0 0 -0.45 0.49Z" fill="#4C57E6" stroke-width="1"></path>
  </g>
</svg>