<svg xmlns="http://www.w3.org/2000/svg" viewBox="0 0 24 24" id="Common-File-Text-Sync--Streamline-Freehand">
  <desc>
    Common File Text Sync Streamline Icon: https://streamlinehq.com
  </desc>
  <g>
    <g>
      <path d="M14.48 14.73a4.71 4.71 0 0 0 -0.91 1.93 0.3 0.3 0 0 0 0.59 0.08 3.86 3.86 0 0 1 0.95 -1.42 4.21 4.21 0 0 1 2.49 -1 3.71 3.71 0 0 1 3.87 1.92 0.34 0.34 0 0 0 0.61 -0.28 4.5 4.5 0 0 0 -7.6 -1.23Z" fill="#020202" stroke-width="1"></path>
      <path d="M22.54 20.54a0.3 0.3 0 0 0 -0.36 0.23 1.86 1.86 0 0 1 -0.33 0.56 3.8 3.8 0 0 1 -3.29 1.53 3.6 3.6 0 0 1 -2.17 -0.54 4.07 4.07 0 0 1 -1.54 -1.78c1.91 0.84 2 1 2.18 0.69a0.3 0.3 0 0 0 -0.09 -0.41 14.43 14.43 0 0 0 -2.54 -1.76 0.67 0.67 0 0 0 -0.77 0.23 8.94 8.94 0 0 0 -0.53 1.82c0 0.13 -0.3 0.78 -0.3 0.79 0 0.18 0.12 0.27 0.27 0.31s0.3 0.29 1.15 -1.5c0.52 3 5 4.53 7.47 2 0.44 -0.42 1.53 -2.01 0.85 -2.17Z" fill="#020202" stroke-width="1"></path>
      <path d="M23.9 16.17c0 -0.17 -0.1 -0.27 -0.26 -0.32 -0.34 -0.25 -0.54 0.19 -1.42 1.81l-2.16 -1.1a0.3 0.3 0 0 0 -0.35 0.48 19.47 19.47 0 0 0 1.92 1.58 1.21 1.21 0 0 0 0.94 0.36c0.41 -0.08 0.48 -0.42 0.62 -0.81a11.9 11.9 0 0 1 0.72 -2Z" fill="#020202" stroke-width="1"></path>
      <g>
        <path d="M5 5.21a9.68 9.68 0 0 0 1.52 0.37 10.85 10.85 0 0 0 3 0 0.34 0.34 0 1 0 0.05 -0.67 10.33 10.33 0 0 0 -3 -0.37 4.65 4.65 0 0 0 -1.63 0.14c-0.2 0.07 -0.25 0.32 0.06 0.53Z" fill="#020202" stroke-width="1"></path>
        <path d="M4.65 9.13a0.3 0.3 0 0 0 0.49 0.34A17.89 17.89 0 0 1 8 9.63c2.39 0.06 4.07 -0.26 5.81 -0.35a0.34 0.34 0 0 0 0 -0.67 40.85 40.85 0 0 0 -6.91 0c-0.42 0.07 -1.9 -0.01 -2.25 0.52Z" fill="#020202" stroke-width="1"></path>
        <path d="M10.72 13.11a13.71 13.71 0 0 0 -5 0c-0.81 0.13 -0.92 0.12 -1 0.22a0.31 0.31 0 0 0 0.14 0.55s0.29 0 0.39 0a19.19 19.19 0 0 0 5.5 -0.06 0.34 0.34 0 1 0 -0.03 -0.71Z" fill="#020202" stroke-width="1"></path>
        <path d="M10.09 17.43c-2.84 0 -5.93 -0.37 -8.76 -0.69C2.81 13.08 2.65 7.85 3.09 2c0 -0.1 0.2 -0.42 0.29 -0.44 1 -0.24 5.75 -0.89 6.37 -0.92a4.08 4.08 0 0 1 1.33 0.12c0.4 0.14 1.09 -0.8 -1.35 -0.77C9.16 0 3.85 0.48 3 0.7c-1 0.3 -0.84 0.78 -1.1 3.06 -0.47 6.73 -0.51 8.48 -1 10.86S-0.07 17 0.15 17.39a0.52 0.52 0 0 0 0.4 0.27c3 0.23 6.54 0.51 9.54 0.45a0.34 0.34 0 0 0 0 -0.68Z" fill="#020202" stroke-width="1"></path>
        <path d="M15.05 3.15c0.35 0.34 1 0.78 1.17 1.15l-0.1 6.3a0.3 0.3 0 1 0 0.59 0c0 -0.54 1 -5.76 0.52 -6.8 -0.35 -0.68 -0.42 -0.45 -3.9 -3.36a0.34 0.34 0 1 0 -0.41 0.53Z" fill="#020202" stroke-width="1"></path>
        <path d="M11.48 5.1c0.53 1 2.34 0.59 3.5 0.28 2.05 -0.54 1 -1.54 0.6 -1a6.18 6.18 0 0 1 -3.11 0.2 6.3 6.3 0 0 1 0.08 -2.09c0.08 -1.09 0.1 -1.08 -0.09 -1.14 -0.38 -0.16 -0.49 0.45 -0.64 1 -0.2 0.75 -0.82 1.84 -0.34 2.75Z" fill="#020202" stroke-width="1"></path>
      </g>
    </g>
    <path d="M18.51 2.28a8.51 8.51 0 0 1 1.28 1.48L18.64 11c0 0.38 0.22 0.56 0.45 0.26 0.37 -0.87 2.08 -7.22 1.5 -8.18A13.32 13.32 0 0 0 17.94 0.54a0.33 0.33 0 0 0 -0.45 0.49Z" fill="#4C57E6" stroke-width="1"></path>
  </g>
</svg>