<svg xmlns="http://www.w3.org/2000/svg" viewBox="0 0 24 24" id="Command-Access-Siri-Approve--Streamline-Freehand">
  <desc>
    Command Access Siri Approve Streamline Icon: https://streamlinehq.com
  </desc>
  <g>
    <path d="M22.38 14.88a0.32 0.32 0 0 0 -0.46 0 0.34 0.34 0 0 0 0 0.46 3.54 3.54 0 0 1 0.65 4.78 5.52 5.52 0 0 1 -4.65 2.21 5.68 5.68 0 0 1 -2.58 -0.72 3.57 3.57 0 0 1 -1.69 -1.92 4 4 0 0 1 1.1 -4.61 6 6 0 0 1 4.77 -0.91c-0.48 0.84 -0.93 1.7 -1.4 2.56 -0.66 1.41 -0.31 2.08 -1.5 1.17 -0.52 -0.4 -1.06 -0.9 -1.33 -1.1a0.29 0.29 0 0 0 -0.4 0.05 0.27 0.27 0 0 0 0 0.39c0.29 0.26 0.88 1 1.42 1.43a2.06 2.06 0 0 0 1 0.54 1 1 0 0 0 0.74 -0.4 10.29 10.29 0 0 0 1 -1.58c0.36 -0.71 0.74 -1.42 1.09 -2.13s0.68 -1.43 1.05 -2.14 0.64 -1.19 1 -1.77a0.32 0.32 0 0 0 -0.54 -0.36c-0.66 0.91 -1.27 1.83 -1.84 2.8a6.7 6.7 0 0 0 -5.58 0.79A4.85 4.85 0 0 0 12.66 20a4.45 4.45 0 0 0 2.15 2.52 6.62 6.62 0 0 0 3.19 0.88 6.46 6.46 0 0 0 5.35 -2.8 4.26 4.26 0 0 0 -0.97 -5.72Z" fill="#020202" fill-rule="evenodd" stroke-width="1"></path>
    <g>
      <path d="M14.25 14a0.3 0.3 0 0 0 0.14 -0.42 8 8 0 0 1 -0.14 -2c0.27 -0.51 0.52 -1 0.74 -1.45A5 5 0 0 1 17.45 8a4.84 4.84 0 0 1 2.44 -0.4c0.29 0 0.17 -0.64 -0.26 -0.68a5.74 5.74 0 0 0 -2.45 0.38 6 6 0 0 0 -2.94 2.34c-0.05 0.08 -0.09 0.17 -0.14 0.26a6.23 6.23 0 0 0 -0.1 -0.62 4.17 4.17 0 0 0 -0.44 -1 5.22 5.22 0 0 0 -0.41 -0.57 3.5 3.5 0 0 0 -0.53 -0.49 1.65 1.65 0 0 0 -2.35 -0.09 4 4 0 0 0 -0.88 1.43C9.22 8.28 9.08 8 9 7.83a4.06 4.06 0 0 0 -1.41 -1.31 1.26 1.26 0 0 0 -1.1 0 3.07 3.07 0 0 0 -1.44 1.42 11 11 0 0 0 -0.72 2.12 2.05 2.05 0 0 0 -2.11 -0.44 2.46 2.46 0 0 0 -0.43 0.26c-0.45 0.39 -0.43 0.93 -0.09 0.92s0.44 -0.41 0.77 -0.53a1.42 1.42 0 0 1 1.53 0.48c0 0.05 0.09 0.12 0.14 0.18a8.49 8.49 0 0 1 -0.35 1c-0.28 0.63 -0.63 1.27 -1.14 1.37 -0.2 0 -0.54 -0.11 -0.89 0a0.39 0.39 0 0 0 0 0.66 1.6 1.6 0 0 0 1.18 0 3.45 3.45 0 0 0 1.56 -1.65c0.06 -0.13 0.11 -0.27 0.16 -0.41 0.07 0.16 0.15 0.31 0.22 0.47a8 8 0 0 0 1 1.76 1.34 1.34 0 0 0 1.31 0.53c1 -0.23 1.64 -1.33 2.14 -2.7 0.08 -0.21 0.15 -0.44 0.23 -0.66a8.69 8.69 0 0 0 0.63 1A2.51 2.51 0 0 0 12 13.5a1.89 1.89 0 0 0 1.46 -0.75s0.06 -0.09 0.1 -0.13a3.16 3.16 0 0 0 0.25 1.25 0.31 0.31 0 0 0 0.44 0.13Zm-6 -2.49a6.81 6.81 0 0 1 -0.73 1.53 1.26 1.26 0 0 1 -0.66 0.54c-0.08 0 -0.15 0 -0.22 -0.09a2.09 2.09 0 0 1 -0.39 -0.43c-0.47 -0.66 -0.91 -1.62 -1.32 -2.29a12.74 12.74 0 0 1 0.9 -2.39 2.15 2.15 0 0 1 1 -1c0.19 -0.08 0.35 0.09 0.53 0.24a4.32 4.32 0 0 1 0.66 0.79 12.15 12.15 0 0 1 0.77 1.47c-0.12 0.55 -0.31 1.12 -0.5 1.64Zm4.71 0.3c-0.28 0.37 -0.57 0.68 -0.95 0.67s-0.74 -0.39 -1.06 -0.84a12.64 12.64 0 0 1 -1 -1.83c0.06 -0.18 0.12 -0.38 0.18 -0.55a4.07 4.07 0 0 1 0.76 -1.42c0.28 -0.26 0.63 -0.24 1.12 0.11a2.18 2.18 0 0 1 0.4 0.35 3.84 3.84 0 0 1 0.35 0.43 3.37 3.37 0 0 1 0.37 0.79 4.94 4.94 0 0 1 0.22 0.9 6.62 6.62 0 0 1 0.08 0.66c-0.12 0.26 -0.27 0.52 -0.43 0.74Z" fill="#020202" stroke-width="1"></path>
      <path d="M1 12.7a5.8 5.8 0 0 1 0 -0.59 8.31 8.31 0 0 1 1 -4.4 11.49 11.49 0 0 1 6.11 -5.6 9.8 9.8 0 0 1 6.73 0.05A9.08 9.08 0 0 1 20.1 6.4a7.43 7.43 0 0 1 0.45 1.45 9 9 0 0 1 0.21 1.51 0.31 0.31 0 0 0 0.31 0.32 0.32 0.32 0 0 0 0.32 -0.31 7.9 7.9 0 0 0 -0.19 -1.66 10.73 10.73 0 0 0 -0.47 -1.61 9.84 9.84 0 0 0 -5.58 -4.75 10.7 10.7 0 0 0 -7.39 -0.18 12.38 12.38 0 0 0 -6.69 6.08 10.67 10.67 0 0 0 -0.18 9 7.82 7.82 0 0 0 2 2.69 8.26 8.26 0 0 0 2.84 1.68 12.34 12.34 0 0 0 3.05 0.63 18.64 18.64 0 0 0 3.08 0 0.27 0.27 0 0 0 0.25 -0.3 0.27 0.27 0 0 0 -0.29 -0.25 18.64 18.64 0 0 1 -3 -0.08A11.82 11.82 0 0 1 5.94 20a7.59 7.59 0 0 1 -2.55 -1.59 7.26 7.26 0 0 1 -1.67 -2.51 9.77 9.77 0 0 1 -0.65 -2.36S1 12.71 1 12.7Z" fill="#4C57E6" stroke-width="1"></path>
    </g>
  </g>
</svg>