<svg xmlns="http://www.w3.org/2000/svg" viewBox="0 0 24 24" id="Common-File-Empty--Streamline-Freehand">
  <desc>
    Common File Empty Streamline Icon: https://streamlinehq.com
  </desc>
  <g>
    <g>
      <path d="M20.55 5.37c0 -1.41 -0.86 -1.64 -1.86 -2.49S17 1.18 16.05 0.48a0.3 0.3 0 0 0 -0.37 0.48c0.87 0.68 1.72 1.66 2.58 2.42 1 0.89 1.58 1 1.59 2 0 0.65 -0.14 1.42 -0.15 1.85a59.6 59.6 0 0 1 -0.43 8.77 18.72 18.72 0 0 1 -0.7 3.11 2.63 2.63 0 0 1 -0.62 0.69 3.85 3.85 0 0 1 -1.8 0.29c-0.68 0 -6.77 -0.07 -8.91 -0.23 -1.69 -0.12 -3.35 -0.31 -5.2 -0.49 1.89 -4.84 1.54 -14.73 2 -17.65 0.47 -0.38 7.46 -1.14 7.9 -1.16a4.49 4.49 0 0 1 1.58 0.17 0.27 0.27 0 0 0 0.17 -0.51A5.28 5.28 0 0 0 11.92 0c-0.71 0 -6.84 0.64 -7.75 0.89 -0.52 0.15 -0.69 0.36 -0.78 0.61 -0.52 1.39 -0.48 14.39 -2.54 18a0.51 0.51 0 0 0 0.39 0.76 89.73 89.73 0 0 0 9.92 0.7c1.71 0 6.38 0.35 7.39 -0.5a3.1 3.1 0 0 0 1.18 -2.14c0.94 -4.39 0.67 -7.55 0.69 -11.11 0.01 -0.41 0.14 -1.21 0.13 -1.84Z" fill="#020202" stroke-width="1"></path>
      <path d="M14.75 6.28a8.36 8.36 0 0 0 4 -0.5c1.06 -0.55 0.29 -1.18 0 -0.78a0.61 0.61 0 0 1 -0.27 0.18c-0.42 0.16 -3.37 0.39 -3.55 0.07 -0.34 -0.6 0.38 -3.29 0.25 -3.57a0.28 0.28 0 0 0 -0.16 -0.16c-0.36 -0.15 -0.49 0.63 -0.61 1.12 -0.14 0.74 -1.23 3.1 0.34 3.64Z" fill="#020202" stroke-width="1"></path>
    </g>
    <path d="M22.38 6.21c-0.09 1.4 -0.55 10.87 -0.71 11.7 -0.06 0.32 -0.47 4.16 -1.5 4.66 -1.44 0.69 -3.05 0.23 -4.56 0.36 -0.94 0.08 -2.94 0.23 -4.15 0.19 -4.66 -0.17 -4.66 0 -5.8 -0.52 -0.65 -0.26 -0.82 0.38 -0.41 0.66a3.54 3.54 0 0 0 1.52 0.48 50.92 50.92 0 0 0 8.92 0.12c1.52 -0.13 3.22 0.35 4.89 -0.46s1.87 -4.75 2 -5.32c0.15 -0.83 0.57 -10.17 0.65 -11.74 0.02 -0.8 -0.75 -0.93 -0.85 -0.13Z" fill="#4C57E6" fill-rule="evenodd" stroke-width="1"></path>
  </g>
</svg>