<svg xmlns="http://www.w3.org/2000/svg" viewBox="0 0 24 24" id="Common-File-Share-Arrow--Streamline-Freehand">
  <desc>
    Common File Share Arrow Streamline Icon: https://streamlinehq.com
  </desc>
  <g>
    <g>
      <path d="M19.53 4.82a3.3 3.3 0 0 0 -0.82 -1c-0.67 -0.62 -1.59 -1.27 -2 -1.66s-1 -1 -1.54 -1.44a3.15 3.15 0 0 0 -0.91 -0.54A4.34 4.34 0 0 0 13.05 0c-0.87 0 -1.86 0.14 -2.55 0.18L1.89 0.91a0.25 0.25 0 0 0 -0.24 0.27 0.26 0.26 0 0 0 0.27 0.24l0.37 0a0.22 0.22 0 0 0 0 0.14c0.16 2.58 0.37 5.21 0.41 7.83a37.22 37.22 0 0 1 -0.23 5.18L1.83 19c0 0.24 -0.2 0.77 -0.26 1.19a1.45 1.45 0 0 0 0.07 0.78 1.91 1.91 0 0 0 1.57 0.76 19.62 19.62 0 0 0 3.17 -0.11c1.24 -0.12 2.47 -0.19 3.71 -0.23 2.9 -0.09 5.81 0 8.72 -0.2a0.28 0.28 0 0 0 0.28 -0.3 0.27 0.27 0 0 0 -0.08 -0.16s0.07 0.07 0.12 0.08a0.3 0.3 0 0 0 0.34 -0.24 19.48 19.48 0 0 0 0.28 -2.42c0.07 -1.2 0.07 -2.4 0.12 -3.6 0.07 -1.67 0.38 -3.79 0.36 -5.8a10.07 10.07 0 0 0 -0.7 -3.93Zm-4.76 -3.19c0.47 0.42 0.93 0.92 1.27 1.24s1.34 1 2 1.65a2.38 2.38 0 0 1 0.6 0.7 0.36 0.36 0 0 1 0 0.11l-0.61 0c-1.1 0 -2.23 0.14 -3.3 0.15a6 6 0 0 1 -0.84 0c-0.19 0 -0.39 0 -0.48 -0.14a1.29 1.29 0 0 1 -0.06 -0.76c0 -0.63 0.2 -1.33 0.23 -1.65s0.09 -0.74 0.15 -1.11 0.09 -0.48 0.13 -0.72a2.69 2.69 0 0 1 0.91 0.53Zm4.35 12.94 0 3.59a20.51 20.51 0 0 1 -0.21 2.35 0.24 0.24 0 0 0 0 0.2 0.28 0.28 0 0 0 -0.15 -0.06c-2.92 0.08 -5.81 0 -8.72 0 -1.25 0 -2.51 0 -3.76 0.12a20.11 20.11 0 0 1 -2.59 0.1 4.63 4.63 0 0 1 -0.93 -0.13c-0.12 0 -0.23 0 -0.27 -0.1a0.81 0.81 0 0 1 0 -0.39c0.08 -0.4 0.21 -0.82 0.24 -1 0.13 -0.91 0.26 -1.82 0.37 -2.72 0.07 -0.61 0.13 -1.22 0.19 -1.83a40.56 40.56 0 0 0 0.07 -5.29C3.3 6.72 3 4.08 2.75 1.5a0.2 0.2 0 0 0 -0.06 -0.12C4.45 1.3 6.2 1.18 8 1.09L10.53 1c0.59 0 1.4 -0.1 2.15 -0.1l0.69 0 -0.48 1.83a13 13 0 0 0 -0.45 2 1.75 1.75 0 0 0 0.23 1.13 1.31 1.31 0 0 0 0.72 0.46 4.74 4.74 0 0 0 1.43 0.07C15.88 6.3 17 6.05 18.08 6a7.85 7.85 0 0 1 0.84 0 11.1 11.1 0 0 1 0.4 2.82c0.06 1.98 -0.18 4.09 -0.2 5.75Z" fill="#020202" fill-rule="evenodd" stroke-width="1"></path>
      <path d="M15.44 12c-0.42 -0.42 -0.85 -0.83 -1.28 -1.23 -0.65 -0.6 -1.31 -1.18 -2 -1.76 -0.15 -0.11 -0.58 -0.58 -0.9 -0.8a0.93 0.93 0 0 0 -0.6 -0.19 0.53 0.53 0 0 0 -0.49 0.54c0 0.17 0.14 0.47 0.14 0.65l0.15 1.95 0 0.21a5.12 5.12 0 0 0 -4.12 2.18 6.21 6.21 0 0 0 -0.56 5 0.25 0.25 0 0 0 0.32 0.18 0.26 0.26 0 0 0 0.17 -0.32c0 -0.14 -0.07 -0.28 -0.1 -0.42a0.33 0.33 0 0 0 0.13 0.09 0.3 0.3 0 0 0 0.39 -0.08 5.08 5.08 0 0 1 1.66 -2.32 5.51 5.51 0 0 1 2.28 -0.93v0.32a8.62 8.62 0 0 0 0.22 2 1 1 0 0 0 0.49 0.61 0.48 0.48 0 0 0 0.39 0 2.73 2.73 0 0 0 0.49 -0.46c0.22 -0.22 1 -0.83 1.75 -1.42s1.52 -1.15 1.81 -1.33a3.91 3.91 0 0 0 0.64 -0.39 0.53 0.53 0 0 0 0.2 -0.36 1 1 0 0 0 -0.22 -0.72 10.09 10.09 0 0 0 -0.96 -1Zm-0.17 1.55c-0.3 0.2 -1.09 0.8 -1.87 1.43s-1.55 1.29 -1.78 1.54a3 3 0 0 1 -0.09 -0.45c-0.07 -0.45 -0.09 -0.93 -0.1 -1.11l0 -0.49a2.83 2.83 0 0 0 0 -0.29 0.39 0.39 0 0 0 -0.47 -0.32 6.62 6.62 0 0 0 -3 1.22 5.55 5.55 0 0 0 -1.8 2.63A5.37 5.37 0 0 1 6.92 14 4.55 4.55 0 0 1 11 12.24a0.45 0.45 0 0 0 0.44 -0.46 4.82 4.82 0 0 0 -0.06 -0.65l-0.08 -1.51 0.24 0.16c0.66 0.58 1.31 1.16 2 1.75 0.42 0.39 0.85 0.79 1.25 1.2 0.08 0.08 0.56 0.38 0.82 0.62 -0.17 0.08 -0.31 0.22 -0.34 0.24Z" fill="#020202" fill-rule="evenodd" stroke-width="1"></path>
    </g>
    <path d="M22.11 9.79c0 -0.65 -0.64 -0.59 -0.63 0s-0.05 1 0 1.28a52.12 52.12 0 0 1 0.16 7.83 17.56 17.56 0 0 1 -0.43 2.83 2.19 2.19 0 0 1 -0.51 0.65 3.26 3.26 0 0 1 -1.59 0.37c-0.6 0.07 -6.06 0.37 -8 0.36 -1.3 0 -2.6 -0.05 -4 -0.1 -1 -0.08 -1.38 0.73 -0.56 0.89a68.93 68.93 0 0 0 8.13 0c1.94 -0.15 5.72 -0.09 6.56 -0.91a2.72 2.72 0 0 0 0.93 -2c0.57 -4 0.13 -6.77 -0.08 -10 -0.01 -0.27 0.02 -0.74 0.02 -1.2Z" fill="#4C57E6" stroke-width="1"></path>
  </g>
</svg>