<svg xmlns="http://www.w3.org/2000/svg" viewBox="0 0 24 24" id="Composition-Window-Human--Streamline-Freehand">
  <desc>
    Composition Window Human Streamline Icon: https://streamlinehq.com
  </desc>
  <g>
    <path d="M11.09 9.29a4.86 4.86 0 0 1 -2.67 0.71 0.31 0.31 0 0 0 -0.05 0.61 5 5 0 0 0 3.27 -0.27l1.62 -1c0.83 0.81 1.32 1.58 1.7 1.15a0.35 0.35 0 0 0 0 -0.49c-0.91 -0.93 -1 -2 -2 -1.77a15.15 15.15 0 0 0 -1.87 1.06Z" fill="#020202" stroke-width="1"></path>
    <path d="M23.71 4c-0.29 -1.36 -1.06 -1 -8.21 -1.23 -4 -0.1 -8 0.2 -12 0.32a0.35 0.35 0 0 0 0 0.7c3.89 -0.07 8 -0.31 11.91 -0.14 2.58 0.11 6.27 0.09 7.21 0.41 0.49 2 0.1 13.41 -0.22 15.29 -2.33 1.06 -18.92 0.86 -21.12 0.13 0 -0.08 -0.13 -0.27 -0.16 -0.46a60.73 60.73 0 0 1 -0.42 -7.26c-0.13 -9 0.38 -8.06 0.14 -8.33s-0.47 -0.18 -0.57 0.23C0 5.08 -0.22 17 0.35 19.53a1.12 1.12 0 0 0 0.44 0.75c2 1 21.26 1.65 22.65 -0.22 0.56 -0.8 0.78 -13.62 0.27 -16.06Z" fill="#4C57E6" stroke-width="1"></path>
    <path d="M6.57 18a13 13 0 0 1 3.56 -3.15 8.31 8.31 0 0 0 1.16 0.14 10 10 0 0 0 -0.23 3.43c0.07 0.66 0 1.41 0.53 1.27 0.28 0 0.32 -0.18 0.4 -1.27 0 -0.47 0.15 -0.93 0.18 -1.4A13.16 13.16 0 0 0 12 15a5.76 5.76 0 0 0 1.22 -0.2c0.09 0.23 0.27 0.13 1.51 0.89a7.44 7.44 0 0 1 2.83 3.76c0.19 0.43 0.88 0.35 0.8 -0.08a7.37 7.37 0 0 0 -0.84 -2.41 5.39 5.39 0 0 0 -1.36 -1.6 3.76 3.76 0 0 0 -0.78 -0.4c-1.83 -0.73 -1.64 -0.17 -0.69 -0.89C17.37 12 17 7 13.49 6.27a0.34 0.34 0 0 0 -0.42 0.26c-0.13 0.64 0.86 0.19 1.85 1.45 1.59 2 0.36 6.83 -4.63 5.67 -3.88 -0.79 -3.41 -7.59 1.92 -7.23a0.31 0.31 0 0 0 0.06 -0.61c-6 -0.75 -7.3 6.8 -3 8.71 -3.12 1.27 -4.06 3.59 -4.17 4.9a0.31 0.31 0 0 0 0.61 0.13A3.77 3.77 0 0 1 6.57 18Z" fill="#020202" stroke-width="1"></path>
  </g>
</svg>