<svg xmlns="http://www.w3.org/2000/svg" viewBox="0 0 24 24" id="Compass--Streamline-Freehand">
  <desc>
    Compass Streamline Icon: https://streamlinehq.com
  </desc>
  <title>compass</title>
  <g>
    <path d="M23.79 9.62a15.28 15.28 0 0 0 -0.92 -2.95 9.45 9.45 0 0 0 -1.17 -2.09A9 9 0 0 0 20 2.86a12.81 12.81 0 0 0 -2.93 -1.72 15.91 15.91 0 0 0 -3.23 -1 8.12 8.12 0 0 0 -2.25 -0.07A12.86 12.86 0 0 0 1.15 7.46 12.52 12.52 0 0 0 1 17.7a10.38 10.38 0 0 0 3.39 4 12.94 12.94 0 0 0 4.81 2.02 13.17 13.17 0 0 0 2.32 0.25 9 9 0 0 0 2.35 -0.3 14.66 14.66 0 0 0 6.65 -4 12.13 12.13 0 0 0 3.43 -7 10.65 10.65 0 0 0 -0.16 -3.05Zm-0.93 3a10.93 10.93 0 0 1 -3.19 6.24 13.58 13.58 0 0 1 -6.11 3.63 7.93 7.93 0 0 1 -2 0.26 11.3 11.3 0 0 1 -2.08 -0.22 11.81 11.81 0 0 1 -4.35 -1.84A9.17 9.17 0 0 1 2 17.24 11.64 11.64 0 0 1 11.13 0.89a7.31 7.31 0 0 1 2.59 0.11 14.8 14.8 0 0 1 3 1 11.33 11.33 0 0 1 2.69 1.64 7.79 7.79 0 0 1 1.47 1.57A8.63 8.63 0 0 1 22 7a15 15 0 0 1 0.8 2.78 9.25 9.25 0 0 1 0.06 2.86Z" fill="#4C57E6" fill-rule="evenodd" stroke-width="1"></path>
    <path d="M20.32 11.67a9.17 9.17 0 0 0 -1.4 -0.66 10.85 10.85 0 0 1 -1.56 -0.92l1.27 -3.24a5.25 5.25 0 0 0 0.23 -1.13 2.05 2.05 0 0 0 -0.17 -1 0.7 0.7 0 0 0 -0.69 -0.29c-0.24 0 -0.82 0.21 -0.86 0.22 -0.36 0.1 -0.72 0.22 -1.08 0.34 -0.74 0.26 -1.47 0.55 -2.21 0.82a7.43 7.43 0 0 0 -0.32 -0.94 3.12 3.12 0 0 0 -1.21 -1.54 0.42 0.42 0 0 0 -0.32 -0.07c-0.13 0 -0.4 0.36 -0.4 0.36l-0.32 0.53 -0.79 1.31 -0.74 1.4L8.81 9c-0.23 0.08 -0.88 0.31 -1.51 0.55 -0.4 0.16 -0.79 0.33 -1.06 0.47l-0.34 0.17c-0.06 -0.44 -0.12 -0.88 -0.16 -1.32s-0.1 -1.05 -0.11 -1.59c0 -0.09 -0.13 -0.36 -0.17 -0.57 0.23 0 0.62 0.06 0.75 0l1.24 -0.06 1.93 0a0.35 0.35 0 0 0 0.38 -0.33 0.34 0.34 0 0 0 -0.33 -0.32c-0.77 -0.11 -1.5 -0.24 -2.25 -0.32 -0.33 0 -0.66 -0.06 -1 -0.07a4.92 4.92 0 0 0 -1 0 1.3 1.3 0 0 0 -0.67 0.3 0.72 0.72 0 0 0 -0.21 0.52 9.52 9.52 0 0 0 0.18 1c0.06 0.34 0.12 0.67 0.2 1 0.17 0.71 0.39 1.4 0.6 2.1l-0.51 0.26c-0.35 0.17 -0.9 0.39 -1.33 0.64a2.29 2.29 0 0 0 -0.59 0.47 0.48 0.48 0 0 0 0.13 0.66l0.29 0.17 1 0.58 1.42 0.64a5.82 5.82 0 0 0 -0.35 1c-0.14 0.54 -0.22 1.09 -0.34 1.64a6.06 6.06 0 0 1 -0.29 0.82 1.72 1.72 0 0 0 -0.07 1c0.12 0.38 0.45 0.77 1.35 0.92l0.75 0 1.13 -0.17a5.56 5.56 0 0 0 0.7 -0.19c0.34 -0.1 0.67 -0.23 1 -0.35l0.13 -0.07a6.16 6.16 0 0 0 0.29 0.78 4.32 4.32 0 0 0 0.82 1.28 1.48 1.48 0 0 0 0.81 0.42 0.64 0.64 0 0 0 0.56 -0.2s1.32 -2.66 2 -4.29 0.7 -1.8 0.75 -1.81c0.24 -0.07 0.61 -0.08 0.65 -0.1l1.59 -0.55 0 1.9c0 0.63 0.08 1 0.15 1.52 0 0 0.11 0.26 0.18 0.49h-0.3l-2.86 -0.68a0.37 0.37 0 0 0 -0.45 0.25 0.36 0.36 0 0 0 0.25 0.44l2.78 1a3 3 0 0 0 0.82 0.15 1.68 1.68 0 0 0 0.71 -0.12 0.69 0.69 0 0 0 0.37 -0.65 8.86 8.86 0 0 0 -0.19 -1.17c-0.17 -0.59 -0.29 -1.18 -0.41 -1.77l-0.3 -1.64 1.21 -0.42a5.85 5.85 0 0 0 1.25 -0.59 0.69 0.69 0 0 0 0.27 -0.65 0.79 0.79 0 0 0 -0.33 -0.47ZM15.93 6c0.47 -0.1 0.93 -0.18 1.41 -0.25l0.32 -0.13 0 0.15a5.16 5.16 0 0 1 -0.14 0.76l-0.84 3.15a4.79 4.79 0 0 0 -0.57 -0.21 6.17 6.17 0 0 1 -0.78 -0.32 5 5 0 0 1 -0.71 -0.38l-0.39 -1.36c-0.08 -0.29 -0.15 -0.63 -0.24 -1 0.64 -0.1 1.28 -0.25 1.94 -0.41ZM9.4 17.9c-0.28 0.07 -0.55 0.14 -0.83 0.19a6.7 6.7 0 0 1 -0.8 0.11h-1l-0.52 -0.08c-0.21 0 -0.5 -0.08 -0.42 -0.16a0.14 0.14 0 0 1 0 -0.06 1.6 1.6 0 0 1 0.05 -0.21 4.64 4.64 0 0 0 0.22 -1c0 -0.55 0 -1.1 0.06 -1.65a4.21 4.21 0 0 1 0.15 -0.85l1.69 0.73a4.49 4.49 0 0 0 0.92 0.43 19.5 19.5 0 0 1 0.68 2.55Zm9.3 -5.6 -3.44 1.17a8.55 8.55 0 0 0 -0.93 0.3 0.77 0.77 0 0 0 -0.4 0.39c-0.23 0.63 -0.49 1.25 -0.76 1.86 -0.41 0.93 -0.85 1.85 -1.28 2.79l-0.39 0.79 0 -0.06a4 4 0 0 1 -0.41 -0.71 6.52 6.52 0 0 1 -0.29 -0.73c-0.37 -1.1 -0.53 -2.27 -1 -3.31a0.94 0.94 0 0 0 -0.43 -0.4c-0.3 -0.15 -0.81 -0.3 -1 -0.37l-3.69 -1.56 -0.68 -0.38L4 12c0.37 -0.21 0.79 -0.4 1.08 -0.54l1.48 -0.78c0.25 -0.13 0.61 -0.3 1 -0.45l1.18 -0.43a1.19 1.19 0 0 0 0.58 -0.34 4.8 4.8 0 0 0 0.61 -1.34c0.14 -0.31 0.28 -0.62 0.43 -0.93l0.8 -1.4 0.84 -1.27 0.17 -0.25a2.68 2.68 0 0 1 0.54 0.93 19.23 19.23 0 0 1 0.61 2.47 10.9 10.9 0 0 0 0.35 1.4 1.1 1.1 0 0 0 0.31 0.5 6.45 6.45 0 0 0 0.9 0.53c0.61 0.31 1.26 0.55 1.86 0.88s1.12 0.79 1.75 1.07l0.43 0.12Z" fill="#020202" fill-rule="evenodd" stroke-width="1"></path>
    <path d="M14.42 11.41c-0.64 -0.05 -1.27 -0.11 -1.91 -0.13h-0.3l0 -0.3c-0.06 -0.83 -0.18 -1.64 -0.27 -2.47a0.33 0.33 0 0 0 -0.32 -0.31 0.3 0.3 0 0 0 -0.31 0.32c-0.08 0.82 -0.2 1.63 -0.25 2.46l0 0.35h-0.15c-0.62 0.07 -1.23 0.2 -1.86 0.26a0.31 0.31 0 0 0 -0.33 0.3 0.32 0.32 0 0 0 0.3 0.33 18 18 0 0 0 2 0.25l0 0.61c0 0.83 0.15 1.64 0.23 2.47a0.35 0.35 0 0 0 0.36 0.35 0.34 0.34 0 0 0 0.35 -0.36c0.06 -0.82 0.14 -1.64 0.19 -2.46l0 -0.65 0.29 0c0.65 -0.07 1.28 -0.21 1.93 -0.29a0.37 0.37 0 0 0 0.35 -0.37 0.37 0.37 0 0 0 -0.3 -0.36Z" fill="#020202" fill-rule="evenodd" stroke-width="1"></path>
  </g>
</svg>