<svg xmlns="http://www.w3.org/2000/svg" viewBox="0 0 24 24" id="Concert-Beach--Streamline-Freehand">
  <desc>
    Concert Beach Streamline Icon: https://streamlinehq.com
  </desc>
  <title>concert-beach</title>
  <g>
    <path d="M18.38 23a19.57 19.57 0 0 1 -2.17 0c-1.73 -0.06 -3.49 -0.26 -5.18 -0.29 -0.76 0 -1.52 0.06 -2.29 0.1 0 -1 0.13 -2.06 0.25 -3.11 0.09 -0.79 0.2 -1.59 0.33 -2.38a22 22 0 0 1 0.74 -3.26c0.24 0.28 0.48 0.57 0.73 0.85A11.89 11.89 0 0 0 11.86 16a6.31 6.31 0 0 0 0.62 0.52 2.75 2.75 0 0 0 0.52 0.31 2.94 2.94 0 0 0 0.37 0.13 0.53 0.53 0 0 0 0.39 -0.09 0.73 0.73 0 0 0 0.22 -0.26c0.08 -0.12 0.14 -0.33 0.2 -0.42l0.65 -0.84a0.93 0.93 0 0 1 0.15 -0.1c0.33 0.12 0.62 0.34 1 0.47a2.56 2.56 0 0 0 0.76 0.17 3.32 3.32 0 0 0 0.76 -0.08 0.74 0.74 0 0 0 0.46 -0.39 1.5 1.5 0 0 0 0.08 -0.67c0 -0.33 -0.15 -0.72 -0.18 -0.94a6.28 6.28 0 0 0 -1.27 -3 3.87 3.87 0 0 0 -1.91 -1.24 4.74 4.74 0 0 0 -1.11 -0.17l1.08 -0.68a4.67 4.67 0 0 0 0.65 -0.44 1 1 0 0 0 0.31 -0.45 0.5 0.5 0 0 0 -0.1 -0.42 2.47 2.47 0 0 0 -0.4 -0.4 2.08 2.08 0 0 0 -0.48 -0.34 3 3 0 0 0 -0.41 -0.19c0.3 -0.28 0.63 -0.54 0.93 -0.83a7.57 7.57 0 0 0 0.6 -0.65 4.18 4.18 0 0 0 0.43 -0.71 0.76 0.76 0 0 0 0 -0.66 0.83 0.83 0 0 0 -0.37 -0.29 4 4 0 0 0 -0.54 -0.14 4.85 4.85 0 0 0 -1 -0.2 5.27 5.27 0 0 0 -1.05 0 6.39 6.39 0 0 0 -3.68 1.8A5.37 5.37 0 0 0 8 7.36c-0.06 -0.05 -0.1 -0.11 -0.15 -0.16A4.29 4.29 0 0 0 4.7 6.08a5.14 5.14 0 0 0 -2.05 0.54A5.24 5.24 0 0 0 1 8a5.5 5.5 0 0 0 -0.68 1 0.64 0.64 0 0 0 0 0.64 0.87 0.87 0 0 0 0.32 0.27 2.62 2.62 0 0 0 0.7 0.17l2.32 0.26 0.17 0a2.53 2.53 0 0 0 -0.37 0.67 3.55 3.55 0 0 0 -0.15 0.46 0.49 0.49 0 0 0 0 0.34 0.79 0.79 0 0 0 0.43 0.36 3.41 3.41 0 0 0 0.68 0.15A19.15 19.15 0 0 0 8 12.21h0.11a18.45 18.45 0 0 0 -2.36 3.4 15.92 15.92 0 0 0 -0.8 1.73 15.36 15.36 0 0 0 -0.58 1.82A18.93 18.93 0 0 0 3.84 23a15 15 0 0 1 -1.63 -0.17 0.29 0.29 0 0 0 -0.13 0.57 16.12 16.12 0 0 0 3.61 0.6c0.89 0 1.8 0.05 2.7 0s1.77 -0.08 2.65 -0.09c1.69 -0.07 3.44 0 5.17 0a18.62 18.62 0 0 0 2.25 -0.18 0.33 0.33 0 0 0 0.29 -0.37 0.34 0.34 0 0 0 -0.37 -0.36ZM16 11.88a5.74 5.74 0 0 1 0.7 2.12l0.14 0.74 -0.11 0a1.67 1.67 0 0 1 -0.4 -0.08 7.26 7.26 0 0 0 -1.33 -0.5 0.68 0.68 0 0 0 -0.48 0.1 2.24 2.24 0 0 0 -0.44 0.41c-0.13 0.16 -0.26 0.33 -0.38 0.5a4.32 4.32 0 0 0 -0.34 0.53 0.75 0.75 0 0 0 -0.06 0.22 2 2 0 0 1 -0.25 -0.14c-0.2 -0.13 -0.39 -0.28 -0.58 -0.43a11.58 11.58 0 0 1 -1 -0.95c-0.41 -0.41 -0.8 -0.84 -1.19 -1.26l-0.69 -0.75s-0.62 -0.79 2 -1.79a4.13 4.13 0 0 1 2.86 -0.06A3 3 0 0 1 16 11.88Zm-5.88 -6.45a5.47 5.47 0 0 1 3.13 -1.35 4.63 4.63 0 0 1 0.83 0 4.93 4.93 0 0 1 0.8 0.16c-0.11 0.14 -0.24 0.28 -0.37 0.42 -0.32 0.35 -0.67 0.67 -1 1 0 0 -0.42 0.38 -0.55 0.54a0.58 0.58 0 0 0 -0.13 0.6 0.56 0.56 0 0 0 0.17 0.3 3.72 3.72 0 0 0 0.54 0.2 5 5 0 0 1 0.61 0.22 1.23 1.23 0 0 1 0.31 0.19l0.1 0.12 -0.41 0.23 -2 1.45 0 0.05a5.14 5.14 0 0 0 -0.91 0.31 6.35 6.35 0 0 0 -1.24 0.76A9.28 9.28 0 0 0 8.54 8a4.51 4.51 0 0 1 1.58 -2.57Zm-5.45 6a2.07 2.07 0 0 1 -0.25 -0.13 1.26 1.26 0 0 1 0.35 -0.49 1.49 1.49 0 0 1 0.56 -0.33 0.48 0.48 0 0 0 0.35 -0.48 0.51 0.51 0 0 0 -0.26 -0.44 3.35 3.35 0 0 0 -0.48 -0.12l-1.09 -0.2 -2.23 -0.32c0.12 -0.11 0.24 -0.21 0.26 -0.24A4.43 4.43 0 0 1 3.17 7.6a4 4 0 0 1 1.6 -0.49 3.37 3.37 0 0 1 2.54 0.74 8.21 8.21 0 0 1 2.14 3.22c-0.17 0.17 -0.33 0.34 -0.48 0.52a6.66 6.66 0 0 0 -1 -0.11 19.28 19.28 0 0 1 -3.3 -0.05Zm0.15 11.65 -0.32 0a23.24 23.24 0 0 1 0.89 -3.59c0.19 -0.57 0.38 -1.14 0.6 -1.71s0.44 -1.12 0.69 -1.67a20.53 20.53 0 0 1 2 -3.55l0.81 1a17.75 17.75 0 0 0 -1.18 3.17c-0.13 0.51 -0.23 1 -0.31 1.55a13.87 13.87 0 0 0 -0.14 1.57 20.19 20.19 0 0 0 0.17 3.12H7.9c-1.03 0.03 -2.06 0.11 -3.08 0.11Z" fill="#020202" fill-rule="evenodd" stroke-width="1"></path>
    <path d="M23.85 7.81a2.73 2.73 0 0 0 -0.91 -0.55 10.78 10.78 0 0 0 -1.4 -0.39c-0.07 0 -0.48 -0.1 -0.64 -0.12a0.5 0.5 0 0 0 -0.56 0.47 23.87 23.87 0 0 0 0.45 2.57 2.37 2.37 0 0 0 -1.24 0.18 1.65 1.65 0 0 0 -0.84 0.9 1.68 1.68 0 0 0 0.2 1.51 1.39 1.39 0 0 0 1.56 0.58A2 2 0 0 0 22 11.31a5.36 5.36 0 0 0 -0.22 -2.24c-0.13 -0.48 -0.3 -1 -0.4 -1.35a8.07 8.07 0 0 1 1.31 0.28 2.12 2.12 0 0 1 0.71 0.33 0.33 0.33 0 1 0 0.45 -0.49Zm-3.7 4.12a0.4 0.4 0 0 1 -0.47 -0.13 0.75 0.75 0 0 1 -0.17 -0.66 0.88 0.88 0 0 1 0.54 -0.6 1.94 1.94 0 0 1 0.82 -0.13 1.93 1.93 0 0 1 0 0.24c0.03 0.57 -0.09 1.07 -0.72 1.28Z" fill="#020202" fill-rule="evenodd" stroke-width="1"></path>
    <path d="M23.12 15a0.33 0.33 0 0 0 -0.44 0.17l-1.13 2.52 -0.18 0.41a1.68 1.68 0 0 0 -0.32 -0.09 3.4 3.4 0 0 0 -0.65 -0.01 2.19 2.19 0 0 0 -0.51 0 2.14 2.14 0 0 0 -0.48 0.13 1.65 1.65 0 0 0 -0.94 2.5 1.61 1.61 0 0 0 2.75 0.21 2.82 2.82 0 0 0 0.29 -0.39 6.54 6.54 0 0 0 0.3 -0.59l0.61 -1.8 0.87 -2.57a0.33 0.33 0 0 0 -0.17 -0.49Zm-2.29 4.35 -0.45 0.69a0.58 0.58 0 0 1 -1 0 0.74 0.74 0 0 1 0.33 -1.13 2.33 2.33 0 0 1 0.33 -0.14 1.43 1.43 0 0 1 0.35 -0.06 2.15 2.15 0 0 1 0.51 0l0.19 0Z" fill="#020202" fill-rule="evenodd" stroke-width="1"></path>
    <path d="M5.71 2.76a1.89 1.89 0 0 0 0.11 0.24 1.37 1.37 0 0 0 0.18 0.24s0.71 0.7 1 0.55 0 -1.08 0 -1.1a0.91 0.91 0 0 0 -0.13 -0.26 1.37 1.37 0 0 0 -0.18 -0.24c-0.69 -0.71 -0.86 -0.65 -1 -0.55s-0.31 0.21 0.02 1.12Z" fill="#4C57E6" fill-rule="evenodd" stroke-width="1"></path>
    <path d="M8 2.44c0 0.1 0.5 0.93 0.8 0.85 0.09 0 0.3 0 0.24 -1.12a1 1 0 0 0 0 -0.3 1.42 1.42 0 0 0 -0.1 -0.29C8.46 0.63 8.33 0.63 8.15 0.66s-0.35 0.15 -0.31 1.17l0 0.31a1.33 1.33 0 0 0 0.16 0.3Z" fill="#4C57E6" fill-rule="evenodd" stroke-width="1"></path>
    <path d="M11.29 2.56c0.1 0 0.28 0.09 0.71 -0.86a1.43 1.43 0 0 0 0.09 -0.27l0 -0.28c0.06 -0.92 0 -1 -0.18 -1.12s-0.37 -0.03 -0.81 0.83a1.57 1.57 0 0 0 -0.12 0.3 1.55 1.55 0 0 0 0 0.31c-0.04 0.1 0.02 1.04 0.31 1.09Z" fill="#4C57E6" fill-rule="evenodd" stroke-width="1"></path>
    <path d="M1.25 15.23a2.8 2.8 0 0 0 0.41 0.13 2.83 2.83 0 0 0 0.42 0.07 9.2 9.2 0 0 0 1 0 0.29 0.29 0 0 0 0.35 -0.22 0.3 0.3 0 0 0 -0.23 -0.35 9.94 9.94 0 0 0 -0.92 -0.47l-0.41 -0.13a3.32 3.32 0 0 0 -0.44 -0.06 9.17 9.17 0 0 0 -1 0 0.34 0.34 0 0 0 -0.39 0.27 0.34 0.34 0 0 0 0.28 0.39c0.32 0.14 0.61 0.25 0.93 0.37Z" fill="#4C57E6" fill-rule="evenodd" stroke-width="1"></path>
    <path d="M2.71 17.4c0 -0.29 -0.92 -0.51 -0.94 -0.51a1.14 1.14 0 0 0 -0.52 0c-0.92 0.22 -0.95 0.35 -1 0.53s0 0.34 1 0.54a2.4 2.4 0 0 0 0.28 0l0.27 0s0.91 -0.27 0.91 -0.56Z" fill="#4C57E6" fill-rule="evenodd" stroke-width="1"></path>
  </g>
</svg>