<svg xmlns="http://www.w3.org/2000/svg" viewBox="0 0 24 24" id="Concert-Drummer--Streamline-Freehand">
  <desc>
    Concert Drummer Streamline Icon: https://streamlinehq.com
  </desc>
  <title>concert-drummer</title>
  <g>
    <path d="M9.49 10.88a4.66 4.66 0 0 0 -1 1.12 0.28 0.28 0 0 0 0 0.4 0.29 0.29 0 0 0 0.4 0 4.09 4.09 0 0 1 2 -1.11 4.36 4.36 0 0 1 1 -0.14 5.38 5.38 0 0 1 1 0 5.57 5.57 0 0 1 2.24 0.81 0.34 0.34 0 0 0 0.46 -0.07 0.33 0.33 0 0 0 -0.07 -0.46 6.12 6.12 0 0 0 -1.86 -1.11 5.43 5.43 0 0 0 1 -0.74A4.52 4.52 0 0 0 16 6.82a4.51 4.51 0 0 0 -1.58 -3.88C11.36 0.27 7.08 2.5 6.63 6.33a4 4 0 0 0 2.86 4.55Zm-2 -4.47c0.27 -3.88 4.13 -5 6.39 -2.87A3.62 3.62 0 0 1 15 6.7a3.57 3.57 0 0 1 -1.15 2.09 4.52 4.52 0 0 1 -2.18 1.12 5.29 5.29 0 0 1 -0.8 0.09 4.25 4.25 0 0 1 -0.8 -0.07 3.08 3.08 0 0 1 -2.58 -3.52Z" fill="#020202" fill-rule="evenodd" stroke-width="1"></path>
    <path d="M9.73 7.37a0.28 0.28 0 0 0 -0.4 0.06 0.3 0.3 0 0 0 0.06 0.4 3.67 3.67 0 0 0 1.13 0.83 1.94 1.94 0 0 0 0.62 0.15 1.69 1.69 0 0 0 0.45 0 2 2 0 0 0 1.46 -0.92 0.33 0.33 0 0 0 -0.48 -0.44 1.5 1.5 0 0 1 -1 0.29 3.07 3.07 0 0 1 -0.67 -0.08 4.69 4.69 0 0 1 -1.17 -0.29Z" fill="#020202" fill-rule="evenodd" stroke-width="1"></path>
    <path d="M12.07 6a3.15 3.15 0 0 1 0.61 -0.13c0.09 0 0.17 -0.07 0.27 -0.09a1.27 1.27 0 0 1 0.48 -0.14 0.33 0.33 0 0 0 0.41 -0.21 0.32 0.32 0 0 0 -0.2 -0.41 1.53 1.53 0 0 0 -0.8 -0.27 1.08 1.08 0 0 0 -0.7 0.2 1.64 1.64 0 0 0 -0.49 0.66 0.28 0.28 0 0 0 0 0.4 0.28 0.28 0 0 0 0.42 -0.01Z" fill="#020202" fill-rule="evenodd" stroke-width="1"></path>
    <path d="M8.88 5.58a1.53 1.53 0 0 1 0.37 0c0.09 0 0.17 0.07 0.26 0.08l0.23 0a2.43 2.43 0 0 1 0.83 0.18 0.32 0.32 0 0 0 0.46 0 0.33 0.33 0 0 0 0 -0.46 2.15 2.15 0 0 0 -0.68 -0.63 1.38 1.38 0 0 0 -0.4 -0.15 1.24 1.24 0 0 0 -0.43 0 1.68 1.68 0 0 0 -0.85 0.45 0.28 0.28 0 0 0 -0.14 0.38 0.29 0.29 0 0 0 0.35 0.15Z" fill="#020202" fill-rule="evenodd" stroke-width="1"></path>
    <path d="M13.7 13.18c-4.76 -0.91 -6 2.09 -6.1 2.18a4.45 4.45 0 0 0 -0.13 4.32 5.08 5.08 0 0 0 2.9 2.24A6.52 6.52 0 0 0 14 22a5.55 5.55 0 0 0 1.32 -0.57 2.92 2.92 0 0 0 0.79 -0.68A5.51 5.51 0 0 0 17.18 18a4.38 4.38 0 0 0 -0.59 -2.94 4.5 4.5 0 0 0 -2.89 -1.88Zm2.5 4.68a4.74 4.74 0 0 1 -0.92 2.23 2.28 2.28 0 0 1 -0.69 0.52 5 5 0 0 1 -0.89 0.35 5.52 5.52 0 0 1 -3 -0.07 4.09 4.09 0 0 1 -2.38 -1.7 3.54 3.54 0 0 1 0 -3.47c1.29 -2.54 5.2 -1.8 5.27 -1.78a3.61 3.61 0 0 1 2.3 1.6 3.53 3.53 0 0 1 0.31 2.32Z" fill="#020202" fill-rule="evenodd" stroke-width="1"></path>
    <path d="m21 7.65 0.07 0s-0.07 -0.05 -0.07 0Z" fill="#020202" fill-rule="evenodd" stroke-width="1"></path>
    <path d="M4.43 14.51a1.34 1.34 0 0 0 0.56 0 1 1 0 0 0 0.39 -0.2c0.14 -0.13 0.33 -0.38 0.41 -0.46 0.35 -0.32 0.84 -0.68 1.22 -1.08a3.17 3.17 0 0 0 0.49 -0.65c0.36 -0.65 -0.41 -0.87 -0.9 -1.32 -0.33 -0.29 -0.72 -0.6 -1.13 -0.92 -0.89 -0.68 -1.91 -1.4 -2.65 -2a0.27 0.27 0 0 0 -0.36 0A8 8 0 0 0 0.63 9.54 2.64 2.64 0 0 0 0 11.26a0.71 0.71 0 0 0 0.16 0.37 2.9 2.9 0 0 0 0.5 0.37l1.21 0.92c-0.06 0.89 -0.1 1.78 -0.09 2.67 0 0.68 0.05 1.35 0.07 2l0.09 1.55a1.82 1.82 0 0 1 0.07 0.32H2l0 0.12a7.89 7.89 0 0 1 -0.53 0.85c-0.23 0.34 -0.47 0.66 -0.7 0.95a0.34 0.34 0 0 0 0 0.46 0.32 0.32 0 0 0 0.46 0c0.33 -0.33 0.67 -0.7 1 -1.09 0.13 -0.14 0.23 -0.29 0.35 -0.44a6.13 6.13 0 0 0 0.7 0.74 6.54 6.54 0 0 0 0.69 0.48c0.36 0.22 0.74 0.39 1.1 0.61a0.34 0.34 0 0 0 0.46 0 0.33 0.33 0 0 0 0 -0.46 10.89 10.89 0 0 0 -0.88 -0.92 3.26 3.26 0 0 0 -0.4 -0.34 4.17 4.17 0 0 0 -0.44 -0.29c-0.28 -0.16 -0.56 -0.28 -0.84 -0.42l0 -0.47 0 -1.63c0 -0.51 0 -1 -0.1 -1.53 -0.08 -0.89 -0.2 -1.77 -0.28 -2.65l1.11 0.75a3.58 3.58 0 0 0 0.73 0.33ZM0.88 11a1.94 1.94 0 0 1 0.39 -1 7.38 7.38 0 0 1 1.38 -1.45c0.68 0.6 1.54 1.31 2.3 2 0.37 0.34 0.71 0.66 1 1l0.42 0.45 -0.26 0.25c-0.35 0.31 -0.75 0.61 -1.05 0.87 -0.45 0.42 0.07 0.55 -0.85 0.12l-1 -0.62 0 -0.05a1.74 1.74 0 0 0 0.11 -0.18c0.08 -0.17 0.11 -0.33 0.19 -0.5a0.33 0.33 0 1 0 -0.46 -0.46 2.78 2.78 0 0 0 -0.53 0.3 1.45 1.45 0 0 0 -0.18 0.17 0.64 0.64 0 0 0 -0.08 0.14l-1.12 -0.75C1.13 11.2 1 11 0.88 11Z" fill="#020202" fill-rule="evenodd" stroke-width="1"></path>
    <path d="M23.23 19.05c-0.08 -0.13 -0.17 -0.25 -0.26 -0.37a3.52 3.52 0 0 0 -0.31 -0.35c-0.26 -0.27 -0.55 -0.48 -0.82 -0.74a0.29 0.29 0 0 0 -0.12 -0.07c0.08 -0.49 0.15 -1 0.19 -1.47 0.11 -1.37 0.09 -2.74 0.24 -4.1l0.28 -0.21a7.39 7.39 0 0 0 0.89 -0.8 3.34 3.34 0 0 0 0.5 -0.67 1.76 1.76 0 0 0 0.18 -0.68 0.75 0.75 0 0 0 -0.11 -0.39c-0.08 -0.14 -0.26 -0.33 -0.29 -0.39a6.44 6.44 0 0 0 -0.6 -0.69c-0.3 -0.3 -0.63 -0.58 -0.95 -0.86a6.53 6.53 0 0 0 -0.51 -0.44 1.34 1.34 0 0 0 -0.35 -0.14 1.21 1.21 0 0 0 -0.55 0.1 4.72 4.72 0 0 0 -0.66 0.37 5.71 5.71 0 0 0 -0.72 0.49c-0.22 0.18 -0.43 0.38 -0.63 0.58a10.38 10.38 0 0 0 -0.92 1.07c-1.32 1.74 -0.83 2 -0.81 2 0.55 0.47 0.92 1 1.45 1.41a3.41 3.41 0 0 0 0.84 0.48 1.34 1.34 0 0 0 0.91 0.07 3.91 3.91 0 0 0 0.95 -0.58l0.37 -0.25c-0.12 0.54 -0.22 1.08 -0.31 1.63s-0.2 1.23 -0.28 1.85 -0.13 1.16 -0.22 1.74c0.24 0.14 -0.57 0.63 -0.7 0.8L18.09 21a0.31 0.31 0 0 0 0 0.45 0.32 0.32 0 0 0 0.46 0l2.08 -2.3c0.14 -0.16 0.54 -0.46 0.75 -0.7a1.1 1.1 0 0 0 0.09 -0.14 4.43 4.43 0 0 0 0.32 0.7 2.37 2.37 0 0 0 0.28 0.4 3.89 3.89 0 0 0 0.34 0.36 10.4 10.4 0 0 0 0.9 0.71 0.33 0.33 0 1 0 0.47 -0.45c-0.17 -0.36 -0.34 -0.67 -0.55 -0.98Zm-0.29 -9.3c-0.05 0 -0.05 -0.06 0 -0.14s0.06 0.11 0 0.14Zm-3.11 2.7a0.5 0.5 0 0 1 -0.36 0 2.61 2.61 0 0 1 -0.87 -0.45c-0.44 -0.34 -0.8 -0.76 -1.28 -1.13a0.23 0.23 0 0 0 0.07 -0.07c0.27 -0.36 0.55 -0.71 0.85 -1a9.18 9.18 0 0 1 0.94 -0.93 6.8 6.8 0 0 1 0.6 -0.46 5.19 5.19 0 0 1 0.64 -0.41c0.14 -0.07 0.64 -0.49 0.67 -0.29 0.09 0.1 0.21 0.32 0.27 0.37 0.29 0.27 0.59 0.54 0.87 0.83a4.26 4.26 0 0 1 0.48 0.57l0.2 0.16a0.92 0.92 0 0 1 -0.09 0.23 2.79 2.79 0 0 1 -0.3 0.38 7 7 0 0 1 -0.73 0.71l-0.34 0.28 -0.23 -0.45a1.66 1.66 0 0 0 -0.19 -0.3 1.94 1.94 0 0 0 -0.23 -0.27c-0.22 -0.21 -0.45 -0.35 -0.69 -0.54a0.29 0.29 0 0 0 -0.4 -0.06 0.28 0.28 0 0 0 -0.06 0.4 5.89 5.89 0 0 0 0.31 0.83 1.49 1.49 0 0 0 0.2 0.31 1.6 1.6 0 0 0 0.25 0.27c0.13 0.12 0.26 0.22 0.39 0.32l-0.3 0.24a2.86 2.86 0 0 1 -0.67 0.46Z" fill="#020202" fill-rule="evenodd" stroke-width="1"></path>
    <path d="M2 19.49s-0.1 0.1 -0.07 0.12H2Z" fill="#020202" fill-rule="evenodd" stroke-width="1"></path>
    <path d="M13.22 17c-0.09 -0.05 -0.34 -0.15 -0.36 -0.16l-0.81 -0.24c0.06 -0.22 0.13 -0.43 0.21 -0.64s0.18 -0.42 0.29 -0.62a0.29 0.29 0 1 0 -0.47 -0.33c-0.17 0.2 -0.32 0.39 -0.46 0.59s-0.28 0.41 -0.42 0.64c0 0 -0.17 0.27 -0.21 0.38A0.49 0.49 0 0 0 11 17a1.13 1.13 0 0 0 0.5 0.54 3.18 3.18 0 0 0 0.79 0.26l-0.6 1.36a0.33 0.33 0 0 0 0.11 0.45 0.32 0.32 0 0 0 0.45 -0.11l0.86 -1.24c0.06 -0.09 0.18 -0.22 0.27 -0.34a1 1 0 0 0 0.15 -0.35 0.59 0.59 0 0 0 -0.31 -0.57Z" fill="#4C57E6" fill-rule="evenodd" stroke-width="1"></path>
  </g>
</svg>