<svg xmlns="http://www.w3.org/2000/svg" viewBox="0 0 24 24" id="Connect-Flash--Streamline-Freehand">
  <desc>
    Connect Flash Streamline Icon: https://streamlinehq.com
  </desc>
  <path d="M20.77 6.42a4.74 4.74 0 0 0 -1.51 -0.3C17.6 6 14.94 6 13.75 6c0.41 -0.91 1.22 -2.7 1.61 -3.52 0.05 -0.12 0.26 -0.39 0.26 -0.6s-0.41 -0.62 -0.69 -0.13c0 0.06 -0.11 0.21 -0.21 0.42 -0.56 1.13 -1.93 4.06 -1.93 4.06a0.42 0.42 0 0 0 0 0.38 0.37 0.37 0 0 0 0.33 0.17 59.83 59.83 0 0 1 6.74 0.32l0.14 0a2.53 2.53 0 0 1 -0.13 0.22 30 30 0 0 1 -2 2.31c-1.27 1.35 -2.82 2.9 -4.12 4.17 -1.11 1.13 -6.75 6.4 -9.23 8.39l-0.39 0.3a9.68 9.68 0 0 1 1 -2.27c1.13 -2.08 2.94 -4.81 4.57 -7.5a0.76 0.76 0 0 0 0 -0.93 0.93 0.93 0 0 0 -0.53 -0.32 5 5 0 0 0 -1.15 0l-3.27 0.08 -0.65 0c0.08 -0.18 0.2 -0.4 0.28 -0.62 0.9 -2.53 3.31 -8.46 4.08 -10C8.89 0.82 9.91 0.8 10 0.79c0.75 -0.06 1.52 -0.09 2.29 -0.11l3.5 0a0.31 0.31 0 0 0 0.31 -0.34 0.31 0.31 0 0 0 -0.31 -0.34l-4.1 0c-0.58 0 -1.17 0 -1.77 0.07l-1.61 0a0.68 0.68 0 0 0 -0.46 0.24c-0.72 1.29 -3.41 7.56 -4.42 10.2a9.82 9.82 0 0 0 -0.38 1.1 0.6 0.6 0 0 0 0.14 0.61 1.25 1.25 0 0 0 0.58 0.27 5.32 5.32 0 0 0 1 0L8 12.5a2.29 2.29 0 0 1 0.42 0.09c-1.91 3.07 -4 6.14 -4.94 8.21a5.47 5.47 0 0 0 -0.57 1.89 1.29 1.29 0 0 0 0.49 1.19 0.71 0.71 0 0 0 0.73 0 7.35 7.35 0 0 0 1.14 -0.81c2.48 -2 8.12 -7.41 9.24 -8.54 1.79 -1.8 4 -4.17 5.38 -5.75a5.06 5.06 0 0 0 1.2 -1.9 0.56 0.56 0 0 0 -0.32 -0.46Z" fill="#020202" fill-rule="evenodd" stroke-width="1"></path>
</svg>