<svg xmlns="http://www.w3.org/2000/svg" viewBox="0 0 24 24" id="Construction-Pipe-1--Streamline-Freehand">
  <desc>
    Construction Pipe 1 Streamline Icon: https://streamlinehq.com
  </desc>
  <title>construction-pipe-1</title>
  <g>
    <path d="m14.52 6.11 0 0.11Z" fill="#020202" fill-rule="evenodd" stroke-width="1"></path>
    <path d="M15.78 2.24A1.88 1.88 0 0 0 14.7 0.43a3.19 3.19 0 0 0 -0.64 -0.21c-0.21 0 -0.41 -0.07 -0.62 -0.09a0.34 0.34 0 0 0 -0.2 -0.09 8.71 8.71 0 0 0 -2.58 0.13 6.11 6.11 0 0 0 -2.47 1 2.92 2.92 0 0 0 -0.63 0.65 1.76 1.76 0 0 0 -0.32 1.65l0 1.11a4.21 4.21 0 0 0 0.22 1.72A1.9 1.9 0 0 0 8 7a0.14 0.14 0 0 0 0 0.06 11.24 11.24 0 0 1 -0.18 1.45 3.3 3.3 0 0 1 -0.43 1.21 3.33 3.33 0 0 1 -0.63 0.89c-0.21 0.22 -0.43 0.42 -0.66 0.62a2.13 2.13 0 0 0 -0.72 -0.23 3.73 3.73 0 0 0 -2 0.42 2.67 2.67 0 0 0 -0.65 0.34c-0.44 0.25 -0.13 0.77 0.64 0.55 0.17 -0.07 0.46 -0.14 0.62 -0.21a1.81 1.81 0 0 1 1.22 -0.1 1.63 1.63 0 0 1 0.53 0.26 4.54 4.54 0 0 1 0.77 0.74 7.29 7.29 0 0 1 1.14 1.71 6 6 0 0 1 0.57 1.94 7.91 7.91 0 0 1 0.11 1 1.24 1.24 0 0 1 -0.08 0.52 0.44 0.44 0 0 1 -0.15 0.18c-0.2 0.15 -0.44 0.25 -0.62 0.37 -0.5 0.32 -0.71 0.5 -1 0.7 -0.84 0.58 -0.59 1.21 0.2 0.82 0.57 -0.29 0.71 -0.41 1.29 -0.73a6.11 6.11 0 0 0 0.82 -0.45 1.33 1.33 0 0 0 0.38 -0.44 2.25 2.25 0 0 0 0.23 -0.89c1 -0.87 2.17 -1.58 3.13 -2.5a7.35 7.35 0 0 0 1.3 -1.66 4.67 4.67 0 0 0 0.43 -1 11 11 0 0 0 0.27 -1.57c0.08 -0.57 0.13 -1.13 0.17 -1.7 0.05 -0.73 0.06 -1.46 0.07 -2.2a2.43 2.43 0 0 0 0.36 -0.2 0.78 0.78 0 0 0 0.3 -0.35 2.56 2.56 0 0 0 0.16 -0.7 13.33 13.33 0 0 0 0 -1.41L15.67 3a2.45 2.45 0 0 0 0.11 -0.76Zm-1.94 6.59c-0.1 0.68 -0.22 1.35 -0.37 2 -0.1 0.47 -0.21 0.94 -0.35 1.39a5.05 5.05 0 0 1 -0.34 0.8 7.45 7.45 0 0 1 -1.07 1.45c-0.73 0.81 -1.57 1.52 -2.34 2.3l0 -0.25a6.94 6.94 0 0 0 -0.62 -2.33 7.78 7.78 0 0 0 -1.37 -2 7.15 7.15 0 0 0 -0.56 -0.52 5.13 5.13 0 0 0 0.81 -0.49 3.73 3.73 0 0 0 0.81 -0.87A3.66 3.66 0 0 0 8.84 9a6.72 6.72 0 0 0 -0.09 -1.56l0.16 0.06 1 0.29a5.93 5.93 0 0 0 0.72 0.1l1 0a6.11 6.11 0 0 0 1.42 -0.13 5.36 5.36 0 0 0 0.95 -0.27c-0.06 0.44 -0.1 0.89 -0.16 1.34Zm0.91 -4.39c0 0.34 0 0.75 -0.09 1.14a2 2 0 0 1 -0.12 0.49s0 0.07 -0.07 0.1a4 4 0 0 1 -0.53 0.13 5.16 5.16 0 0 1 -1.13 0.32 5.76 5.76 0 0 1 -1.18 0.09l-1.53 -0.08 -0.91 -0.18a1.41 1.41 0 0 1 -1 -0.56 3.39 3.39 0 0 1 -0.29 -1.32v-0.12a5.05 5.05 0 0 0 2.34 1 7.92 7.92 0 0 0 2.45 -0.11 4.81 4.81 0 0 0 2 -1Zm-0.46 -1a3.42 3.42 0 0 1 -1.39 0.68 6.83 6.83 0 0 1 -2.48 0.14 3.34 3.34 0 0 1 -2 -0.86 0.76 0.76 0 0 1 0 -1l0.39 -0.4a5.27 5.27 0 0 1 2 -1 7.89 7.89 0 0 1 1.61 -0.32l0.12 0c0.38 0.08 0.77 0.12 1.16 0.21a2.85 2.85 0 0 1 0.64 0.22 1.07 1.07 0 0 1 0.52 1.06 1.84 1.84 0 0 1 -0.57 1.25Z" fill="#020202" fill-rule="evenodd" stroke-width="1"></path>
    <path d="M6 18.2a7.88 7.88 0 0 0 -0.47 -2.94A4.57 4.57 0 0 0 3.9 13c-0.7 -0.47 -1.84 -1.16 -3 0.06 -0.79 0.82 -1.12 2.45 -0.43 4.55a5.4 5.4 0 0 0 1.62 2.51c0.65 0.51 3.83 1.99 3.91 -1.92Zm-1.68 1.38a1.86 1.86 0 0 1 -1.66 -0.31 4.43 4.43 0 0 1 -1.47 -2c-0.27 -0.65 -0.64 -2.83 0.27 -3.65 0.44 -0.41 1.12 -0.41 1.85 0.14a4.32 4.32 0 0 1 1.3 2 7.2 7.2 0 0 1 0.44 2.49 1.23 1.23 0 0 1 -0.73 1.33Z" fill="#4C57E6" fill-rule="evenodd" stroke-width="1"></path>
    <path d="M23.63 11.21a5.18 5.18 0 0 0 -1 -1.28 0.31 0.31 0 0 0 -0.44 0 0.25 0.25 0 0 0 -0.1 0.21 0.35 0.35 0 0 0 -0.19 0.17 8.3 8.3 0 0 1 -1 1.47 2.38 2.38 0 0 1 -0.82 0.6 0.45 0.45 0 0 1 -0.48 -0.11 0.81 0.81 0 0 1 -0.32 -0.56 2.14 2.14 0 0 1 0.17 -1c0.23 -0.6 0.57 -1.19 0.79 -1.68a0.31 0.31 0 0 0 -0.13 -0.42s0 0 -0.07 0a0.29 0.29 0 0 0 -0.21 -0.22 3.59 3.59 0 0 0 -1.51 -0.14 3 3 0 0 0 -1.51 0.62 4 4 0 0 0 -0.93 1.19 3.55 3.55 0 0 0 -0.4 1.46 2.57 2.57 0 0 0 1 2.38c-0.53 0.49 -1 1 -1.5 1.54 -0.75 0.82 -1.45 1.68 -2.15 2.55a15.21 15.21 0 0 0 -1 1.36 3.67 3.67 0 0 0 -0.52 1.21 3 3 0 0 0 1.27 2.86 2.53 2.53 0 0 0 3.16 0.06 4.32 4.32 0 0 0 0.82 -0.89 10 10 0 0 0 0.83 -1.47c0.23 -0.48 0.44 -1 0.63 -1.48 0.44 -1.14 0.82 -2.3 1.32 -3.42a0.34 0.34 0 0 0 0 -0.1 3.16 3.16 0 0 0 3.21 -0.72 4.32 4.32 0 0 0 1 -1.33 3.8 3.8 0 0 0 0.45 -1.7 2.74 2.74 0 0 0 -0.37 -1.16Zm-1.26 2.53a4.21 4.21 0 0 1 -1 1.18 2.18 2.18 0 0 1 -1.86 0.52 0.34 0.34 0 0 0 -0.45 0.22s0 0.05 0 0.07a0.34 0.34 0 0 0 -0.4 0.17c-0.57 1.1 -1 2.25 -1.51 3.38 -0.22 0.46 -0.44 0.93 -0.69 1.37a9.25 9.25 0 0 1 -0.81 1.28 3.69 3.69 0 0 1 -0.66 0.65 1.42 1.42 0 0 1 -1.74 -0.13 1.85 1.85 0 0 1 -0.83 -1.7 2.5 2.5 0 0 1 0.32 -0.83c0.27 -0.48 0.63 -0.93 0.91 -1.33 0.62 -0.91 1.25 -1.81 1.92 -2.67 0.45 -0.57 0.92 -1.12 1.42 -1.66a0.26 0.26 0 0 0 0.05 -0.12 0.33 0.33 0 0 0 0.31 -0.18 0.35 0.35 0 0 0 -0.17 -0.47 1.5 1.5 0 0 1 -0.69 -1.42 3.22 3.22 0 0 1 0.32 -1.28 3.5 3.5 0 0 1 0.74 -1.1 2.07 2.07 0 0 1 0.91 -0.6 3.26 3.26 0 0 1 1 -0.11 13.42 13.42 0 0 0 -1.08 1.62 2.83 2.83 0 0 0 -0.3 1.11 2 2 0 0 0 0.73 1.47 1.52 1.52 0 0 0 1.73 0.19 3.52 3.52 0 0 0 1.06 -1 8.74 8.74 0 0 0 0.81 -1.58 3.91 3.91 0 0 1 0.31 0.57 1.82 1.82 0 0 1 0.13 1 3.18 3.18 0 0 1 -0.48 1.38Z" fill="#020202" fill-rule="evenodd" stroke-width="1"></path>
  </g>
</svg>