<svg xmlns="http://www.w3.org/2000/svg" viewBox="0 0 24 24" id="Construction-Paint--Streamline-Freehand">
  <desc>
    Construction Paint Streamline Icon: https://streamlinehq.com
  </desc>
  <title>construction-paint</title>
  <g>
    <path d="M8 19.7c-0.49 0.49 -1 1 -1.52 1.44a20.09 20.09 0 0 1 -1.61 1.28 4 4 0 0 1 -0.77 0.43 1.28 1.28 0 0 1 -0.28 0.07c0 -0.15 -0.1 -0.36 -0.1 -0.39l-0.37 -2.89c-0.13 -1.19 -0.23 -2.24 -0.33 -3.23s-0.24 -2.14 -0.33 -3.22c-0.11 -1.3 -0.2 -2.65 -0.28 -4.26a39.3 39.3 0 0 1 3.27 -2.42c1 -0.63 1.93 -1.22 2.89 -1.82s1.94 -1.22 2.91 -1.81l2.44 -1.48 0.35 -0.16c0.09 0.15 0.2 0.31 0.21 0.35a5.26 5.26 0 0 1 0.23 0.92c0.06 0.43 0 0.77 0 1.5a0.37 0.37 0 1 0 0.73 0c0 -0.76 0.06 -1.12 0 -1.56a5.7 5.7 0 0 0 -0.18 -1.08 5.42 5.42 0 0 0 -0.3 -1 0.72 0.72 0 0 0 -0.4 -0.37 0.83 0.83 0 0 0 -0.49 0.1c-0.22 0.11 -0.53 0.34 -0.65 0.4l-2.56 1.36c-1 0.59 -2 1.17 -2.94 1.81C7.27 4.09 6.64 4.53 6 5a38 38 0 0 0 -4.4 3.75 0.33 0.33 0 0 0 0 0.45 0.31 0.31 0 0 0 0.18 0.09c-0.05 2.35 -0.07 4.19 0 6.13 0.06 1.33 0.19 2.71 0.35 4.35l0.45 2.91a4.25 4.25 0 0 0 0.11 0.76 0.73 0.73 0 0 0 0.44 0.49 1.79 1.79 0 0 0 1.12 0 4 4 0 0 0 1.19 -0.69 20.07 20.07 0 0 0 1.61 -1.45c0.51 -0.5 1 -1 1.47 -1.55A0.36 0.36 0 1 0 8 19.7Z" fill="#4C57E6" fill-rule="evenodd" stroke-width="1"></path>
    <path d="M22.31 17.52a2.6 2.6 0 0 0 -0.6 -0.82 7.26 7.26 0 0 0 -1.08 -0.76l-1.35 -0.81c-0.16 -0.1 -0.32 -0.2 -0.47 -0.31a0.29 0.29 0 0 0 0 -0.09 0.32 0.32 0 0 0 -0.28 -0.36l-1.32 -0.2a1.79 1.79 0 0 0 -1.13 0.31l-0.19 -0.18a5.26 5.26 0 0 1 -0.4 -0.47c-0.06 -0.08 -0.18 -0.37 -0.29 -0.54a0.73 0.73 0 0 0 -0.34 -0.28 0.51 0.51 0 0 0 -0.52 0.16 3 3 0 0 0 -0.21 0.26l-0.74 0.84a11.69 11.69 0 0 1 -1.61 1.62 2.26 2.26 0 0 1 -1.13 0.53 1.35 1.35 0 0 1 -1 -0.34 1.85 1.85 0 0 1 -0.46 -0.58 0.31 0.31 0 0 1 0.1 0.05 1.73 1.73 0 0 0 1.46 -0.13 2.88 2.88 0 0 0 1 -1.1l0.43 -0.44c1 -1 1.93 -2.09 2.91 -3.11a12.07 12.07 0 0 0 1.34 -1.4 2.28 2.28 0 0 0 0.4 -1 1.85 1.85 0 0 0 -0.45 -1.54 2.77 2.77 0 0 0 -1.94 -0.93 3.13 3.13 0 0 0 -1.77 0.56 14.38 14.38 0 0 0 -1.78 1.62L9.67 9.33c-0.26 0.27 -0.52 0.55 -0.76 0.85s-0.32 0.41 -0.47 0.63a0.32 0.32 0 0 0 0 0.25 2.62 2.62 0 0 0 -0.59 1.13 3.36 3.36 0 0 0 0.13 2 2.72 2.72 0 0 0 0.33 0.57c0 0.1 -0.07 0.19 -0.09 0.29a2.37 2.37 0 0 0 0.72 1.83 2.44 2.44 0 0 0 1.89 0.76 3.27 3.27 0 0 0 1.76 -0.77 10.54 10.54 0 0 0 1.69 -1.91l0.53 -0.74a1.43 1.43 0 0 0 0.1 0.19l0.4 0.4 0.3 0.24a1.58 1.58 0 0 0 0.1 1.78 5.56 5.56 0 0 0 1.09 1.13c0.58 0.45 1.23 0.83 1.83 1.21 0.31 0.2 0.61 0.44 0.93 0.62a2.45 2.45 0 0 0 0.56 0.23 1.91 1.91 0 0 0 2 -0.48 1.82 1.82 0 0 0 0.19 -2.02ZM9.54 14.35a1.65 1.65 0 0 1 -0.27 -0.19c0.12 -0.28 0.26 -0.55 0.39 -0.8a0.33 0.33 0 0 0 -0.12 -0.44 0.32 0.32 0 0 0 -0.44 0.08l-0.27 0.42a2.27 2.27 0 0 1 -0.19 -1.11 1.87 1.87 0 0 1 0.66 -1.24 0.28 0.28 0 0 0 0.2 0 1 1 0 0 1 1 0.19 1.82 1.82 0 0 1 0.56 1 1.87 1.87 0 0 1 -0.16 1.2 1.82 1.82 0 0 1 -0.74 0.89 0.59 0.59 0 0 1 -0.62 0Zm1.94 -5.55a14.38 14.38 0 0 1 1.75 -1.36 2.12 2.12 0 0 1 1.15 -0.31 1.54 1.54 0 0 1 0.91 0.39 0.76 0.76 0 0 1 0.32 0.7 1.58 1.58 0 0 1 -0.33 0.66c-0.32 0.43 -0.75 0.81 -1 1.14 -0.73 0.86 -1.43 1.74 -2.14 2.61A2.93 2.93 0 0 0 12 12a2.79 2.79 0 0 0 -1 -1.39 1.77 1.77 0 0 0 -1.17 -0.31l0.4 -0.39Zm9.74 9.92a0.78 0.78 0 0 1 -0.8 0.11 1.53 1.53 0 0 1 -0.41 -0.19c-0.27 -0.17 -0.52 -0.37 -0.78 -0.53 -0.58 -0.34 -1.21 -0.69 -1.79 -1.09a5.13 5.13 0 0 1 -1 -0.83 0.68 0.68 0 0 1 -0.11 -0.79 1 1 0 0 1 0.85 -0.48l0.66 0.05a0.36 0.36 0 0 0 0.11 0.14c0.2 0.18 0.41 0.35 0.63 0.52 0.5 0.37 1 0.72 1.52 1.07a6 6 0 0 1 0.87 0.71 1.52 1.52 0 0 1 0.32 0.51 0.76 0.76 0 0 1 -0.07 0.8Z" fill="#020202" fill-rule="evenodd" stroke-width="1"></path>
  </g>
</svg>