<svg xmlns="http://www.w3.org/2000/svg" viewBox="0 0 24 24" id="Console-Table-1--Streamline-Freehand">
  <desc>
    Console Table 1 Streamline Icon: https://streamlinehq.com
  </desc>
  <g>
    <path d="M20.72 11.05c-0.32 0 -0.64 -0.05 -1 -0.06 -1.05 0 -2.11 0 -3.14 -0.07l-4.37 0c-1 0 -2 0.07 -3.05 0.12l-0.8 0c0 -0.42 0.08 -0.84 0.08 -1.27a4 4 0 0 0 0 -0.6 3.78 3.78 0 0 0 -0.08 -0.6l0 -0.11c-0.22 -0.35 -1 -0.54 -1 0l0 0.21 0 0.6a5.81 5.81 0 0 0 0.09 0.58c0.07 0.42 0.17 0.82 0.24 1.23 -1.62 0.09 -3.23 0.18 -4.85 0.22 -0.6 0.28 -0.78 0.51 0 0.62q3.25 0.15 6.52 0.11c1.21 0 2.42 -0.05 3.63 -0.09l2.14 -0.09A11.06 11.06 0 0 0 15 13a5.62 5.62 0 0 0 0 0.82 7.72 7.72 0 0 0 0.06 0.82c0 0.2 0.06 0.4 0.09 0.61 0.35 0.77 0.77 0.67 0.9 0l0 -0.66 0 -0.79 0 -0.78c0 -0.26 -0.06 -0.79 -0.08 -1.18l0.69 0c1 0 2.09 -0.1 3.13 -0.12l1 0c0.49 -0.09 0.44 -0.52 -0.07 -0.67Z" fill="#4C57E6" fill-rule="evenodd" stroke-width="1"></path>
    <path d="M23.83 5.5a3.78 3.78 0 0 0 -1.71 -1.09c-0.87 -0.31 -4.47 -0.47 -8.49 -0.46a119.54 119.54 0 0 0 -12.56 0.55 0.29 0.29 0 0 0 0.09 0.57 102.8 102.8 0 0 1 10.38 -0.23c2.21 0 4.42 0.1 6.23 0.19a21.18 21.18 0 0 1 4 0.4A6.37 6.37 0 0 1 22.9 6s0 0.07 0 0.09l0 -0.06c0 -0.06 -0.17 0.07 -0.25 0.11a2.9 2.9 0 0 1 -0.9 0.22c-0.86 0.12 -1.85 0.09 -2.58 0.21a28.56 28.56 0 0 1 -3.81 0.36c-3 0.11 -6.07 -0.11 -9.09 0a20 20 0 0 1 -4.85 -0.13C1 6.69 0.73 6.58 0.67 6.34a0.71 0.71 0 0 1 0.16 -0.54 0.32 0.32 0 0 0 -0.09 -0.45 0.31 0.31 0 0 0 -0.44 0.09 1.32 1.32 0 0 0 -0.27 1c0.1 0.44 0.54 0.78 1.21 1l0.23 0c-0.05 0.53 -0.08 1.06 -0.1 1.6l0 4.31a11.79 11.79 0 0 0 0 1.58 2.12 2.12 0 0 0 0.47 1.18 2.86 2.86 0 0 0 1 0.68l0.12 0.94 0.24 0.92c0.08 0.21 0.15 0.48 0.26 0.71a1.63 1.63 0 0 0 0.24 0.38 0.69 0.69 0 0 0 0.65 0.23 2.22 2.22 0 0 0 0.86 -0.57 4.22 4.22 0 0 0 0.56 -0.9c0.19 -0.39 0.33 -0.8 0.5 -1.21h0.21c1.1 0 2.2 0.05 3.3 0 2.27 -0.06 4.55 -0.24 6.82 -0.32a0.22 0.22 0 0 0 0 0.16c0.19 0.45 0.34 0.9 0.54 1.34a4.27 4.27 0 0 0 0.57 0.9 2.22 2.22 0 0 0 0.86 0.57 0.68 0.68 0 0 0 0.64 -0.23 1.67 1.67 0 0 0 0.25 -0.38c0.11 -0.23 0.17 -0.5 0.25 -0.71l0.25 -0.92 0.11 -0.93 0.13 0a3.09 3.09 0 0 0 1.8 -1.03 2.6 2.6 0 0 0 0.43 -1.2 9.62 9.62 0 0 0 0 -1.68l-0.27 -5.47a4.1 4.1 0 0 0 1 -0.26 1.42 1.42 0 0 0 0.84 -0.89 1 1 0 0 0 -0.17 -0.74ZM5 18.13a3.22 3.22 0 0 1 -0.54 0.63l-0.07 0.07 -0.23 -0.5 -0.39 -0.78a4 4 0 0 1 -0.17 -0.44l0.08 0a10.34 10.34 0 0 0 1.82 0.2c-0.18 0.29 -0.34 0.57 -0.5 0.82Zm14.14 -0.58 -0.39 0.78 -0.23 0.5 -0.07 -0.07a3.66 3.66 0 0 1 -0.55 -0.63c-0.24 -0.34 -0.44 -0.72 -0.66 -1.08h0.13c0.61 0 1.31 0 2 -0.06 -0.1 0.18 -0.17 0.37 -0.25 0.56Zm2.43 -3.14a1.82 1.82 0 0 1 -0.3 0.78 2.14 2.14 0 0 1 -1.29 0.73c-0.1 0 0.61 0.07 -10.24 0.39 -1.08 0 -2.16 0.05 -3.23 0a15.62 15.62 0 0 1 -2.65 -0.13 2.45 2.45 0 0 1 -1.37 -0.62 1.24 1.24 0 0 1 -0.3 -0.69c-0.09 -0.64 -0.23 -5.33 -0.13 -7.28a28.63 28.63 0 0 0 4.23 0.08c3 0 5.93 0.3 9.11 0.25a29.07 29.07 0 0 0 3.95 -0.31c0.61 -0.1 1.41 -0.1 2.16 -0.16 0.07 3 0.12 5.57 0.12 5.42a9 9 0 0 1 -0.08 1.54Z" fill="#020202" fill-rule="evenodd" stroke-width="1"></path>
  </g>
</svg>