<svg xmlns="http://www.w3.org/2000/svg" viewBox="0 0 24 24" id="Controls-Slider-Toggle-Left--Streamline-Freehand">
  <desc>
    Controls Slider Toggle Left Streamline Icon: https://streamlinehq.com
  </desc>
  <g>
    <path d="M23.93 11.16a5 5 0 0 0 -2.84 -4 7.94 7.94 0 0 0 -2.43 -0.53 35.26 35.26 0 0 0 -3.56 0c-1.86 0 -3.72 0.11 -5.58 0.25 -6.8 0.52 -6.67 0.66 -7.34 1.05A4.24 4.24 0 0 0 0.79 9.22a4.32 4.32 0 0 0 -0.62 1.3A4 4 0 0 0 0 12a7.43 7.43 0 0 0 0.64 2.54 4.65 4.65 0 0 0 1.77 2 4 4 0 0 0 1.18 0.46c0.85 0.19 1.72 0.12 2.64 0.24 0.72 0.09 1.43 0.13 2.14 0.15 1.62 0 3.24 -0.09 4.87 -0.07l3 0 1.31 0a13 13 0 0 0 3 -0.39 4.6 4.6 0 0 0 1.93 -1.07 5.45 5.45 0 0 0 1.45 -4.7ZM21.71 15a3.26 3.26 0 0 1 -1.46 0.79 12.29 12.29 0 0 1 -2.76 0.36l-4.24 0c-1.64 0 -3.25 0.16 -4.87 0.16a17.33 17.33 0 0 1 -2 -0.09c-0.77 -0.09 -1.51 0 -2.23 -0.12a3.12 3.12 0 0 1 -1.23 -0.4 3.82 3.82 0 0 1 -1.47 -1.62 6.37 6.37 0 0 1 -0.6 -2.23 3.09 3.09 0 0 1 0.1 -1.17 3.81 3.81 0 0 1 0.49 -1.09 3.63 3.63 0 0 1 1.1 -1.03c0.33 -0.2 0.52 -0.6 7 -0.94 1.84 -0.09 3.69 -0.12 5.54 -0.1 1.1 0 2.3 0 3.46 0.1a7.1 7.1 0 0 1 2.11 0.52 3.91 3.91 0 0 1 2.14 3.18A4.36 4.36 0 0 1 21.71 15Z" fill="#4C57E6" stroke-width="1"></path>
    <path d="M4.86 9a3.2 3.2 0 0 0 -1.72 1.19 2.84 2.84 0 0 0 -0.57 2.1 3.56 3.56 0 0 0 1.26 2.17 3.39 3.39 0 0 0 2.4 0.86 3.6 3.6 0 0 0 2.26 -1.12 3 3 0 0 0 0.88 -2.37 3.59 3.59 0 0 0 -1.19 -2.22A4 4 0 0 0 4.86 9Zm2.84 4.45a2.49 2.49 0 0 1 -1.56 0.74 2.34 2.34 0 0 1 -1.59 -0.58 2.63 2.63 0 0 1 -1 -1.45 2 2 0 0 1 0.28 -1.46 2.44 2.44 0 0 1 1.23 -1 3 3 0 0 1 2.55 0.53 2.66 2.66 0 0 1 0.78 1.71 2.07 2.07 0 0 1 -0.69 1.51Z" fill="#020202" stroke-width="1"></path>
  </g>
</svg>