<svg xmlns="http://www.w3.org/2000/svg" viewBox="0 0 24 24" id="Controls-Volume-Knob--Streamline-Freehand">
  <desc>
    Controls Volume Knob Streamline Icon: https://streamlinehq.com
  </desc>
  <g>
    <path d="M18 8.51A8.77 8.77 0 0 0 11.93 5a7.5 7.5 0 0 0 -6.58 2.61A8.62 8.62 0 0 0 3.75 16c0.94 2.48 3.24 4.42 6.91 4.7a10.22 10.22 0 0 0 1.92 0 7.65 7.65 0 0 0 1.89 -0.41 0.37 0.37 0 0 0 -0.23 -0.7 7 7 0 0 1 -1.73 0.33 9.7 9.7 0 0 1 -1.78 0c-3.2 -0.33 -5.21 -2 -6 -4.23a7.55 7.55 0 0 1 1.58 -7.31 6.35 6.35 0 0 1 5.51 -2.2 7.74 7.74 0 0 1 5.38 3 5.6 5.6 0 0 1 1.2 2.71 7.77 7.77 0 0 1 -0.17 3.06 7.5 7.5 0 0 1 -0.9 2.19 5.75 5.75 0 0 1 -1.6 1.72 0.33 0.33 0 0 0 -0.08 0.45 0.32 0.32 0 0 0 0.45 0.08 6.52 6.52 0 0 0 1.84 -1.86A8.2 8.2 0 0 0 19 15.14a8.61 8.61 0 0 0 0.31 -3.4A6.58 6.58 0 0 0 18 8.51Z" fill="#4C57E6" fill-rule="evenodd" stroke-width="1"></path>
    <path d="M16 10.12a2.07 2.07 0 0 0 -0.31 -0.89A2.39 2.39 0 0 0 14 8.08a2.21 2.21 0 0 0 -2 0.8 2.47 2.47 0 0 0 -0.39 2.39 2.12 2.12 0 0 0 2 1.28 2.8 2.8 0 0 0 0.51 0 2.3 2.3 0 0 0 1.45 -0.88 2.2 2.2 0 0 0 0.43 -1.55Zm-0.88 0.69c-0.18 0.92 -0.71 0.88 -0.72 0.89a1.27 1.27 0 0 1 -0.34 0 2.17 2.17 0 0 1 -0.36 0 1.19 1.19 0 0 1 -1 -0.81 1.33 1.33 0 0 1 0.3 -1.23 1 1 0 0 1 0.87 -0.36 1.4 1.4 0 0 1 1 0.54 1.14 1.14 0 0 1 0.25 0.43 1.45 1.45 0 0 1 0 0.54Z" fill="#4C57E6" fill-rule="evenodd" stroke-width="1"></path>
    <path d="M23.65 11.68c-0.37 -0.09 -0.68 -0.19 -1 -0.24l-0.22 0a13.47 13.47 0 0 0 -0.61 -2.28 10.57 10.57 0 0 0 -1.11 -2.26 11.44 11.44 0 0 0 -8.5 -5.14A10.77 10.77 0 0 0 2.9 5.44 13.08 13.08 0 0 0 0 13.36a10 10 0 0 0 3 7.37 10.37 10.37 0 0 0 -0.67 1 0.32 0.32 0 0 0 0 0.45 0.32 0.32 0 0 0 0.46 0 9.71 9.71 0 0 0 0.94 -0.5 2.68 2.68 0 0 0 0.35 -0.28 2.38 2.38 0 0 0 0.3 -0.36 4.34 4.34 0 0 0 0.53 -1 0.38 0.38 0 0 0 -0.1 -0.51 0.38 0.38 0 0 0 -0.52 0.1 7.15 7.15 0 0 1 -0.7 0.56A9.18 9.18 0 0 1 1 13.38a12.05 12.05 0 0 1 2.84 -7.17 9.73 9.73 0 0 1 8.26 -3.28A10.64 10.64 0 0 1 20 7.35a10 10 0 0 1 1.1 2.06 12.72 12.72 0 0 1 0.62 2 10 10 0 0 0 -1 0.24 0.32 0.32 0 0 0 -0.33 0.32 0.31 0.31 0 0 0 0.31 0.33 9.92 9.92 0 0 0 1 0.29 3.11 3.11 0 0 0 0.43 0 3 3 0 0 0 0.43 0c0.33 0 0.65 -0.13 1 -0.19a0.37 0.37 0 0 0 0 -0.74Z" fill="#020202" fill-rule="evenodd" stroke-width="1"></path>
  </g>
</svg>