<svg xmlns="http://www.w3.org/2000/svg" viewBox="0 0 24 24" id="Content-Pens-Pocket--Streamline-Freehand">
  <desc>
    Content Pens Pocket Streamline Icon: https://streamlinehq.com
  </desc>
  <g>
    <path d="M21.58 8.57a1.26 1.26 0 0 0 -0.52 -0.92 2.73 2.73 0 0 0 -1.31 -0.25c-0.89 0 -2 0.2 -2.56 0.18l-0.64 0c0.12 -0.74 0.39 -2 0.49 -2.86A2 2 0 0 0 17 3.6a2.88 2.88 0 0 0 -1.13 -3 2.73 2.73 0 0 0 -1.8 -0.6 2.55 2.55 0 0 0 -1.62 0.76 2.28 2.28 0 0 0 -0.6 1.16 6.92 6.92 0 0 0 0 1.7 0.27 0.27 0 0 0 0 0.12 0.12 0.12 0 0 0 -0.05 0 2.5 2.5 0 0 0 0 1 24.41 24.41 0 0 0 0.58 2.51c-0.77 0 -1.55 -0.07 -2.32 -0.08H10c0.06 -0.55 0.15 -1.14 0.2 -1.75a0.57 0.57 0 0 0 0 -0.13l0 -0.84a5 5 0 0 0 -0.35 -2.05A2.3 2.3 0 0 0 8 1a1.66 1.66 0 0 0 -1.47 0.81A3.41 3.41 0 0 0 6.08 3s0 0.11 0 0.17H6a2.8 2.8 0 0 0 -0.5 0 2.27 2.27 0 0 0 -2.06 1.8 4.87 4.87 0 0 0 -0.08 2c0 0.29 0.1 0.56 0.16 0.83a2.33 2.33 0 0 0 -0.52 0.03 0.77 0.77 0 0 0 -0.42 0.33 2.24 2.24 0 0 0 -0.21 0.89c0 0.62 0.06 1.36 0.07 1.77 0 1.09 0.07 2.16 0.14 3.24 0 0 0.2 2.63 0.26 3.44a0.62 0.62 0 0 0 0.18 0.41c0.36 0.39 0.74 0.75 1.13 1.11 0.66 0.62 1.36 1.2 2 1.78a22.89 22.89 0 0 0 3.09 2.33 6.25 6.25 0 0 0 2.59 0.86 3.71 3.71 0 0 0 1.69 -0.29 9.61 9.61 0 0 0 2 -1.24 26.3 26.3 0 0 0 2.34 -2c0.1 -0.09 3.26 -2.86 3.29 -3.23 0 -0.7 0 -1.39 0.08 -2.09 0.09 -1.63 0.23 -3.26 0.32 -4.89a8.49 8.49 0 0 0 0.03 -1.68Zm-6.9 -1.1a0.28 0.28 0 0 0 0 -0.13c0 -0.39 0.12 -0.77 0.17 -1.16a4.36 4.36 0 0 0 0 -0.51 2.83 2.83 0 0 0 0 -0.5c0 -0.32 -0.11 -0.62 -0.18 -0.93l0.84 0 0.66 0c0 0.26 -0.11 0.75 -0.14 1.13 -0.06 0.75 -0.15 1.59 -0.18 2.13 -0.37 0.01 -0.77 0 -1.17 -0.03Zm-2 -5.33a1.43 1.43 0 0 1 0.49 -0.65 1.7 1.7 0 0 1 1 -0.4 2 2 0 0 1 1.11 0.24 2.09 2.09 0 0 1 1 1.94l-0.7 0c-0.51 0 -1 -0.08 -1.53 -0.08a6.54 6.54 0 0 0 -1.05 0.03 3.6 3.6 0 0 0 -0.54 0.12 4.73 4.73 0 0 1 0.17 -1.2Zm0.2 3.73c-0.06 -0.48 -0.09 -1 -0.1 -1.3l0 -0.25c0.3 0 1 -0.1 1.29 -0.1 -0.06 0.32 -0.14 0.62 -0.18 0.94a4.36 4.36 0 0 0 0 0.51l0 0.51c0.05 0.4 0.13 0.78 0.21 1.18l0 0.08 -1 -0.06c-0.1 -0.38 -0.21 -0.97 -0.27 -1.51ZM7 7.4h-0.08c0 -0.53 -0.06 -1 -0.08 -1.58v-0.18c0.32 0 0.63 0.06 1 0.07s0.52 0 0.79 0h0.79c0 0.55 0 1.09 -0.06 1.58 -0.83 0.01 -1.6 0.04 -2.36 0.11Zm0 -4a2.67 2.67 0 0 1 0.42 -1 0.63 0.63 0 0 1 0.71 -0.32 1.41 1.41 0 0 1 0.79 0.72 4.23 4.23 0 0 1 0.43 1.71l0 0.31a5.27 5.27 0 0 0 -0.68 -0.19 3.63 3.63 0 0 0 -1.14 0 6.29 6.29 0 0 0 -0.71 0.2l0 -0.26A6 6 0 0 1 7 3.43ZM4.5 5.18a1.5 1.5 0 0 1 1.17 -1.3L6 3.82l0 0.78c0 0.33 0 0.65 0.09 1 0.07 0.63 0.18 1.26 0.26 1.89l-1.83 0.15 0 -0.83a6.49 6.49 0 0 1 -0.02 -1.63Zm12.81 14.66a27.56 27.56 0 0 1 -2.31 1.8 9.34 9.34 0 0 1 -1.8 1.06 2.65 2.65 0 0 1 -1.19 0.21 5.52 5.52 0 0 1 -2.18 -0.7 25.67 25.67 0 0 1 -3.07 -2.07c-0.71 -0.52 -1.43 -1.05 -2.13 -1.62 -0.43 -0.35 -0.84 -0.72 -1.23 -1.1 0 -0.45 0 -1.34 -0.1 -3.39l0 -3.21 0 -1.47a5.45 5.45 0 0 1 0.15 -0.75 1.72 1.72 0 0 1 0.4 0s0.3 1.27 0.3 1.27a0.28 0.28 0 1 0 0.56 -0.08l-0.15 -1.22 2.53 -0.13a29.77 29.77 0 0 1 3 -0.09c2.36 0 4.74 0.22 7.09 0.25 0.59 0 1.69 -0.22 2.59 -0.25a1.94 1.94 0 0 1 0.85 0.1c0.05 0 0.05 0.11 0.07 0.19a3.31 3.31 0 0 1 0.06 0.48l0 1.11c-0.05 1.64 -0.13 3.27 -0.18 4.9l0 1.73c-1.1 1.02 -2.15 2.03 -3.26 2.98Z" fill="#020202" stroke-width="1"></path>
    <path d="M5 14a0.31 0.31 0 0 0 0.29 -0.35c0 -0.23 0.12 -0.43 0.16 -0.67a1.35 1.35 0 0 0 0 -0.28 2.81 2.81 0 0 0 0 -0.29c0 -0.25 -0.13 -0.45 -0.18 -0.7a0.29 0.29 0 0 0 -0.57 -0.05 4.26 4.26 0 0 0 -0.28 0.7 1.06 1.06 0 0 0 0 0.31 1.55 1.55 0 0 0 0 0.31 4.71 4.71 0 0 0 0.22 0.73A0.31 0.31 0 0 0 5 14Z" fill="#4C57E6" stroke-width="1"></path>
    <path d="M5.63 16.28a3 3 0 0 0 0 -0.42c0 -0.29 -0.16 -0.54 -0.21 -0.82a0.29 0.29 0 1 0 -0.57 0 4.43 4.43 0 0 0 -0.27 0.8 1.61 1.61 0 0 0 0 0.38 1.34 1.34 0 0 0 0.11 0.39 1.71 1.71 0 0 0 0.61 0.75 0.31 0.31 0 0 0 0.45 0 0.33 0.33 0 0 0 0 -0.46 1.72 1.72 0 0 1 -0.12 -0.62Z" fill="#4C57E6" stroke-width="1"></path>
    <path d="M9.1 19.58c-0.18 -0.18 -0.32 -0.37 -0.5 -0.54l-0.23 -0.2a1.91 1.91 0 0 0 -0.27 -0.16 6.25 6.25 0 0 0 -0.74 -0.21 0.28 0.28 0 0 0 -0.31 0.47 6.75 6.75 0 0 0 0.47 0.59 1.16 1.16 0 0 0 0.24 0.2 1.25 1.25 0 0 0 0.28 0.15c0.24 0.1 0.47 0.17 0.72 0.25a0.32 0.32 0 0 0 0.34 -0.55Z" fill="#4C57E6" stroke-width="1"></path>
    <path d="M13.68 20.41a2.68 2.68 0 0 1 -1.22 0.23 4.05 4.05 0 0 1 -0.7 -0.07 6.33 6.33 0 0 1 -1.2 -0.29 0.28 0.28 0 0 0 -0.39 0.1 0.28 0.28 0 0 0 0.1 0.38 4.16 4.16 0 0 0 1.17 0.79 2 2 0 0 0 0.63 0.15 1.88 1.88 0 0 0 0.67 -0.05 3 3 0 0 0 1.26 -0.71 0.32 0.32 0 1 0 -0.35 -0.53Z" fill="#4C57E6" stroke-width="1"></path>
    <path d="M16.74 18.06a4 4 0 0 0 -0.61 0.21 1.09 1.09 0 0 0 -0.23 0.14 1.07 1.07 0 0 0 -0.19 0.18 5.89 5.89 0 0 0 -0.32 0.54 0.29 0.29 0 0 0 -0.05 0.4 0.27 0.27 0 0 0 0.39 0 4 4 0 0 0 0.62 -0.18 1.64 1.64 0 0 0 0.22 -0.14l0.18 -0.18c0.13 -0.17 0.22 -0.33 0.35 -0.5a0.32 0.32 0 0 0 0.08 -0.45 0.31 0.31 0 0 0 -0.44 -0.02Z" fill="#4C57E6" stroke-width="1"></path>
    <path d="M19.59 14.67a0.29 0.29 0 0 0 -0.57 0 8.34 8.34 0 0 1 -0.26 0.85c0 0.12 -0.06 0.25 -0.09 0.38a1.76 1.76 0 0 1 -0.06 0.38 1.44 1.44 0 0 1 -0.15 0.37 0.32 0.32 0 0 0 0 0.45 0.33 0.33 0 0 0 0.45 0 2.21 2.21 0 0 0 0.69 -0.74 1.84 1.84 0 0 0 0.16 -0.41 1.39 1.39 0 0 0 0 -0.41 3.11 3.11 0 0 0 -0.17 -0.87Z" fill="#4C57E6" stroke-width="1"></path>
    <path d="M19.15 11.07a0.28 0.28 0 0 0 -0.26 0.3 3.86 3.86 0 0 0 -0.2 0.66 0.88 0.88 0 0 0 0 0.28 1.28 1.28 0 0 0 0.05 0.27c0.05 0.23 0.14 0.41 0.21 0.63a0.32 0.32 0 0 0 0.32 0.32 0.33 0.33 0 0 0 0.32 -0.33c0.06 -0.23 0.12 -0.43 0.16 -0.67a2.46 2.46 0 0 0 0 -0.28 1.35 1.35 0 0 0 0 -0.28c-0.07 -0.23 -0.18 -0.41 -0.27 -0.63a0.28 0.28 0 0 0 -0.33 -0.27Z" fill="#4C57E6" stroke-width="1"></path>
    <path d="M19 10.49a0.28 0.28 0 0 0 0.23 -0.51 2.86 2.86 0 0 0 -0.83 -0.52 1.5 1.5 0 0 0 -0.4 -0.09 2 2 0 0 0 -0.42 0 4.64 4.64 0 0 0 -0.9 0.24 0.32 0.32 0 1 0 0.08 0.64 9.22 9.22 0 0 1 1.13 0.18l0.32 0a5.61 5.61 0 0 1 0.79 0.06Z" fill="#4C57E6" stroke-width="1"></path>
    <path d="M8.47 10.42a0.32 0.32 0 0 0 0.25 -0.42 0.31 0.31 0 0 0 -0.37 -0.25c-0.34 0 -0.62 -0.09 -0.93 -0.1a2.35 2.35 0 0 0 -0.7 0.08 2 2 0 0 0 -1 0.73 0.28 0.28 0 1 0 0.34 0.44 2.65 2.65 0 0 1 0.81 -0.12l0.54 -0.08a5.65 5.65 0 0 0 1.06 -0.28Z" fill="#4C57E6" stroke-width="1"></path>
    <path d="M14.14 9.58c-0.4 -0.05 -0.77 -0.13 -1.16 -0.17l-0.5 0 -0.51 0a7.72 7.72 0 0 0 -1.17 0.3 0.3 0.3 0 0 0 -0.26 0.31 0.29 0.29 0 0 0 0.31 0.26c0.39 0 0.76 0.12 1.15 0.16a4 4 0 0 0 0.49 0l0.49 0c0.4 -0.05 0.78 -0.13 1.17 -0.2a0.31 0.31 0 0 0 0.31 -0.32 0.32 0.32 0 0 0 -0.32 -0.34Z" fill="#4C57E6" stroke-width="1"></path>
  </g>
</svg>