<svg xmlns="http://www.w3.org/2000/svg" viewBox="0 0 24 24" id="Controls-Record--Streamline-Freehand">
  <desc>
    Controls Record Streamline Icon: https://streamlinehq.com
  </desc>
  <g>
    <path d="M22.07 5.7A10.83 10.83 0 0 0 12.7 1a0.31 0.31 0 0 0 -0.3 0.32 0.32 0.32 0 0 0 0.32 0.31 10.12 10.12 0 0 1 8.7 4.53 9.8 9.8 0 0 1 0.77 9.67 11.79 11.79 0 0 1 -4.42 4.92 11.74 11.74 0 0 1 -6.32 1.88A11 11 0 0 1 3.93 20a9.91 9.91 0 0 1 -3 -7.32 11.58 11.58 0 0 1 3 -7.82A11.79 11.79 0 0 1 11.38 0.87a0.28 0.28 0 0 0 0.25 -0.3 0.3 0.3 0 0 0 -0.31 -0.25 12.43 12.43 0 0 0 -7.95 4A12.41 12.41 0 0 0 0 12.64a10.8 10.8 0 0 0 3.23 8.07 11.94 11.94 0 0 0 8.2 3 12.68 12.68 0 0 0 6.9 -2.07 12.74 12.74 0 0 0 4.73 -5.4 10.69 10.69 0 0 0 -0.99 -10.54Z" fill="#020202" stroke-width="1"></path>
    <path d="M13.71 17a0.3 0.3 0 0 0 -0.29 0.34 0.31 0.31 0 0 0 0.34 0.28 4 4 0 0 0 3.48 -2.73 6.76 6.76 0 0 0 0.18 -4.51 5.09 5.09 0 0 0 -2.35 -2.76 7.07 7.07 0 0 0 -3.47 -0.9 5.84 5.84 0 0 0 -4.93 3.14 4.83 4.83 0 0 0 0.41 5.71A6.46 6.46 0 0 0 9 17.06a5.26 5.26 0 0 0 2.36 0.6 0.29 0.29 0 0 0 0.29 -0.27 0.28 0.28 0 0 0 -0.28 -0.28 4.73 4.73 0 0 1 -2.07 -0.62 5.88 5.88 0 0 1 -1.67 -1.4 4.07 4.07 0 0 1 -0.12 -4.75 4.91 4.91 0 0 1 4.07 -2.59 6.23 6.23 0 0 1 3 0.73 4.25 4.25 0 0 1 2 2.19 5.74 5.74 0 0 1 0 3.9A3.39 3.39 0 0 1 13.71 17Z" fill="#4C57E6" stroke-width="1"></path>
  </g>
</svg>