<svg xmlns="http://www.w3.org/2000/svg" viewBox="0 0 24 24" id="Content-Notebook-Pencil-Alternate--Streamline-Freehand">
  <desc>
    Content Notebook Pencil Alternate Streamline Icon: https://streamlinehq.com
  </desc>
  <g>
    <path d="M24 7.08c-0.72 -2 -1.05 -2.92 -1.43 -3.09 -0.8 -0.36 -2.75 1 -3.11 1.47S16 15 15.8 15.73c-1.17 3.52 -1.34 4.06 -1 5.05a2.64 2.64 0 0 0 3.36 1.16 2 2 0 0 0 1 -1.13 0.3 0.3 0 1 0 -0.51 -0.32c-0.39 0.51 -0.43 0.51 -0.81 0.62a2.73 2.73 0 0 1 -2.07 -0.75A1.76 1.76 0 0 1 15.6 19c0.82 0.3 2.81 0.92 3.34 1.13a0.35 0.35 0 0 0 0.26 -0.64l-3.33 -1.22c0.07 -0.22 3.79 -10.2 4 -10.72a4 4 0 0 0 2.72 1.08c-0.77 2.62 -2.43 7.63 -3.28 10.19 0.7 0.25 0.33 0.84 1 -1C22.65 11.56 24.17 7.6 24 7.08Zm-3.85 -0.32c0.13 -0.35 0.21 -0.56 0.23 -0.59a5.33 5.33 0 0 1 1.63 -1c0.27 0.58 0.72 1.71 0.9 2.17 -0.08 0 -0.09 0.26 -0.13 0.52a11.72 11.72 0 0 0 -2.65 -1.1Z" fill="#020202" fill-rule="evenodd" stroke-width="1"></path>
    <path d="M13.88 17a8.21 8.21 0 0 0 -1.48 1.52 7.44 7.44 0 0 0 -2.27 -0.92 9.34 9.34 0 0 0 -7.78 1.61c-0.48 -3.1 -0.42 -5 -1.09 -8.32C0.75 8.45 0.71 5.52 0.51 5.31c0 0 -0.53 0 -0.51 0.4 0.15 2.69 0.13 2.76 0.22 3.8 0.11 1.38 0.23 1.6 0.43 3.67 0.15 1.63 0.41 6.42 0.73 7.58a0.6 0.6 0 0 0 1.11 0.17c1.57 -2.33 5.79 -3.2 8.43 -2.21 0.59 0.23 1.51 0.87 1.85 0.55a15 15 0 0 1 1.42 -1.63 0.35 0.35 0 0 0 -0.31 -0.64Z" fill="#020202" fill-rule="evenodd" stroke-width="1"></path>
    <path d="M2.25 4.9A13.67 13.67 0 0 1 10 4.47a3.6 3.6 0 0 1 1.26 0.53 62.85 62.85 0 0 0 0.48 10.05 0.34 0.34 0 1 0 0.68 0 50.1 50.1 0 0 0 -0.09 -6.7c-0.41 -4.09 -0.65 -3.08 0 -3.65a5.36 5.36 0 0 1 1.82 -1.28 8.08 8.08 0 0 1 2.07 -0.72 7.37 7.37 0 0 1 3.44 0.32 0.3 0.3 0 0 0 0.23 -0.56 7.66 7.66 0 0 0 -6.16 0 7.15 7.15 0 0 0 -2.28 1.43 2 2 0 0 0 -1.26 -0.59A13.92 13.92 0 0 0 2 4.21c-0.23 0.11 -1 0.56 -1.06 0.57a0.41 0.41 0 0 0 -0.18 0.32c-0.04 0.74 0.84 0.06 1.49 -0.2Z" fill="#020202" fill-rule="evenodd" stroke-width="1"></path>
    <path d="M17.22 6.88a4.31 4.31 0 0 0 -3.39 1 0.41 0.41 0 0 0 -0.13 0.2c0 0.64 0.43 0.35 3.59 -0.57a0.34 0.34 0 1 0 -0.07 -0.63Z" fill="#4C57E6" fill-rule="evenodd" stroke-width="1"></path>
    <path d="M13.83 11.57c-0.09 0.12 -0.14 0.17 -0.13 0.21s0 0.26 0.12 0.31 0.08 0.08 0.16 0.06c0.29 -0.05 2.51 -0.29 2.3 -1a1.58 1.58 0 0 0 -2.45 0.42Z" fill="#4C57E6" fill-rule="evenodd" stroke-width="1"></path>
    <path d="M3.88 13.06a0.41 0.41 0 0 0 -0.08 0.33 0.35 0.35 0 0 0 0.54 0.15 3.85 3.85 0 0 1 2.21 -0.81c1.21 0 2.57 0.21 2.66 0.19a0.34 0.34 0 0 0 0.3 -0.38c-0.08 -0.68 -4.4 -1.38 -5.63 0.52Z" fill="#4C57E6" fill-rule="evenodd" stroke-width="1"></path>
    <path d="M3.88 8.75a0.38 0.38 0 0 0 -0.08 0.32 0.34 0.34 0 0 0 0.54 0.16 3.84 3.84 0 0 1 2.21 -0.82c1.21 0 2.57 0.21 2.66 0.2a0.34 0.34 0 0 0 0.3 -0.38c-0.08 -0.68 -4.4 -1.38 -5.63 0.52Z" fill="#4C57E6" fill-rule="evenodd" stroke-width="1"></path>
    <path d="M10.32 21.07c-0.24 -0.19 -0.9 -0.55 -1 -0.61a3.85 3.85 0 0 0 -4.48 -0.3 7.31 7.31 0 0 0 -1.64 1.13 0.31 0.31 0 0 0 0 0.34c0.28 0.33 0.24 -0.09 2 -0.58a4.55 4.55 0 0 1 3.64 0.15c0.08 0 1.29 0.6 1.38 0.6 0.3 0 0.53 -0.4 0.1 -0.73Z" fill="#020202" fill-rule="evenodd" stroke-width="1"></path>
  </g>
</svg>