<svg xmlns="http://www.w3.org/2000/svg" viewBox="0 0 24 24" id="Controls-Pause--Streamline-Freehand">
  <desc>
    Controls Pause Streamline Icon: https://streamlinehq.com
  </desc>
  <g>
    <path d="M8.75 4a6.55 6.55 0 0 0 -1.31 -2.77 3.59 3.59 0 0 0 -2 -1.2 1.77 1.77 0 0 0 -1.66 0.59A4.93 4.93 0 0 0 2.71 3a30.47 30.47 0 0 0 -0.29 3.5C2.26 8.93 2 11.45 2 13.94a26.9 26.9 0 0 0 0.36 5 9.27 9.27 0 0 0 1.18 3.43A4 4 0 0 0 5.46 24a0.28 0.28 0 0 0 0.37 -0.16 0.29 0.29 0 0 0 -0.16 -0.38A3.41 3.41 0 0 1 4.07 22a8.38 8.38 0 0 1 -1 -3.2 28.12 28.12 0 0 1 -0.21 -4.8c0.1 -2.48 0.41 -5 0.63 -7.37a28.32 28.32 0 0 1 0.3 -3.4 3.9 3.9 0 0 1 0.82 -1.82 0.78 0.78 0 0 1 0.9 -0.19A2.7 2.7 0 0 1 6.6 2a5.43 5.43 0 0 1 1.1 2.22 21 21 0 0 1 0.48 4.06c0.05 1.05 0.09 2.11 0.11 3.17s0 2.12 0 3.18a39.5 39.5 0 0 1 -0.11 5.59 5.77 5.77 0 0 1 -1.35 3.22 0.32 0.32 0 0 0 0 0.47 0.33 0.33 0 0 0 0.46 0 6.47 6.47 0 0 0 1.61 -3.57 42.11 42.11 0 0 0 0.25 -5.68c0 -1.07 0.05 -2.14 0.05 -3.21s0 -2.14 -0.05 -3.2A20.71 20.71 0 0 0 8.75 4Z" fill="#020202" stroke-width="1"></path>
    <path d="M22 8.24A20.71 20.71 0 0 0 21.54 4a6.56 6.56 0 0 0 -1.32 -2.73 3.57 3.57 0 0 0 -2 -1.2 1.78 1.78 0 0 0 -1.69 0.59A4.92 4.92 0 0 0 15.5 3a26.61 26.61 0 0 0 -0.29 3.53c-0.16 2.43 -0.41 4.95 -0.44 7.44a28.73 28.73 0 0 0 0.36 5 9.11 9.11 0 0 0 1.19 3.43 4 4 0 0 0 1.92 1.6 0.29 0.29 0 0 0 0.38 -0.16 0.29 0.29 0 0 0 -0.16 -0.38 3.32 3.32 0 0 1 -1.6 -1.46 8.21 8.21 0 0 1 -1 -3.2 27.16 27.16 0 0 1 -0.21 -4.8c0.09 -2.48 0.4 -5 0.62 -7.37a28.42 28.42 0 0 1 0.31 -3.4 3.79 3.79 0 0 1 0.81 -1.82 0.79 0.79 0 0 1 0.91 -0.19 2.66 2.66 0 0 1 1.08 0.78 5.45 5.45 0 0 1 1.11 2.26A20.17 20.17 0 0 1 21 8.28c0.05 1.05 0.09 2.11 0.12 3.17s0 2.12 0 3.18a41 41 0 0 1 -0.12 5.59 5.78 5.78 0 0 1 -1.36 3.22 0.33 0.33 0 0 0 0.48 0.46 6.53 6.53 0 0 0 1.6 -3.57 40.53 40.53 0 0 0 0.28 -5.68c0 -1.07 0.05 -2.14 0.05 -3.21S22 9.3 22 8.24Z" fill="#020202" stroke-width="1"></path>
  </g>
</svg>