<svg xmlns="http://www.w3.org/2000/svg" viewBox="0 0 24 24" id="Controls-Switch-Down--Streamline-Freehand">
  <desc>
    Controls Switch Down Streamline Icon: https://streamlinehq.com
  </desc>
  <g>
    <path d="M23.89 6.91a40.29 40.29 0 0 0 -0.38 -5.15 1.72 1.72 0 0 0 -0.32 -0.76 2.66 2.66 0 0 0 -1.27 -0.53A59.8 59.8 0 0 0 11.86 0a76.14 76.14 0 0 0 -10 0.68 2.45 2.45 0 0 0 -1.25 0.52C0.2 1.79 0 5.58 0 9.84c0 5.69 0.37 12.21 0.72 12.89a1.65 1.65 0 0 0 1.09 0.59 49.75 49.75 0 0 0 7.87 0.62c3.74 0.09 7.85 0 10.46 -0.2a9 9 0 0 0 2.8 -0.5 1.83 1.83 0 0 0 0.75 -1 7.46 7.46 0 0 0 0.31 -2.12c0 -1.26 0.06 -8.12 -0.11 -13.21ZM22.82 20.1a7 7 0 0 1 -0.09 1.33c-0.06 0.33 -0.13 0.68 -0.37 0.82a7 7 0 0 1 -1.89 0.32c-2.08 0.2 -5.35 0.3 -8.61 0.3a68.81 68.81 0 0 1 -9.64 -0.45 4.84 4.84 0 0 1 -0.69 -0.19c-0.34 -0.94 -0.7 -7 -0.8 -12.4 -0.08 -4.07 0 -7.7 0.39 -8.24 0.07 -0.1 0.38 -0.13 0.83 -0.21a76.38 76.38 0 0 1 9.92 -0.52 74.89 74.89 0 0 1 8.8 0.37 5.22 5.22 0 0 1 1.8 0.4 7.26 7.26 0 0 1 0.15 0.84c0.12 1 0.19 2.62 0.23 4.47 0.15 5.06 0.01 11.9 -0.03 13.16Z" fill="#4C57E6" fill-rule="evenodd" stroke-width="1"></path>
    <path d="M15.22 5.19a8.1 8.1 0 0 0 -2.54 -0.43A15.55 15.55 0 0 0 9 4.93a1.34 1.34 0 0 0 -0.64 0.32A1.47 1.47 0 0 0 8 6a6.34 6.34 0 0 0 0 1.09l0 7.34a20 20 0 0 0 0.22 3.34 1.18 1.18 0 0 0 0.72 0.47 9 9 0 0 0 2.26 0.23 15.4 15.4 0 0 0 3.73 -0.36c0.64 -0.21 0.7 -0.15 0.82 -5.22 0.08 -3.17 0.06 -6.81 0 -7.19a0.83 0.83 0 0 0 -0.53 -0.51ZM9.09 7.12c0 -1.33 0.13 -1.22 2.26 -1.26a15.94 15.94 0 0 1 3 0.18l0.32 0.08c0.1 0.79 0.21 4 0.25 6.76l0 0.76c-0.44 0 -1.17 -0.09 -2 -0.11H12c-0.33 0 -0.66 0 -1 0.06l-2 0.2c0 -2.73 0.07 -6.03 0.09 -6.67Zm5.37 10.39a14.43 14.43 0 0 1 -2.61 0.18 11.36 11.36 0 0 1 -2.58 -0.24c-0.13 0 -0.25 -0.17 -0.31 -0.15 -0.06 -0.28 0 -1.4 0 -2.79 0.56 0.06 1.27 0.13 2.05 0.16l1 0c0.35 0 0.66 0 1 -0.06a19 19 0 0 0 2 -0.32c-0.01 3.15 -0.01 3.11 -0.55 3.22Z" fill="#020202" fill-rule="evenodd" stroke-width="1"></path>
    <path d="m3.63 4.59 0.22 -0.1A0.89 0.89 0 0 0 4.23 4a0.81 0.81 0 0 0 -0.14 -0.76 1.07 1.07 0 0 0 -1.65 -0.14 0.91 0.91 0 0 0 0.68 1.57 1.39 1.39 0 0 0 0.51 -0.08Z" fill="#4C57E6" fill-rule="evenodd" stroke-width="1"></path>
    <path d="m20.31 4.57 0.21 -0.1a0.89 0.89 0 0 0 0.38 -0.53 0.81 0.81 0 0 0 -0.14 -0.76A1.06 1.06 0 0 0 19.11 3a0.91 0.91 0 0 0 0.68 1.57 1.47 1.47 0 0 0 0.52 0Z" fill="#4C57E6" fill-rule="evenodd" stroke-width="1"></path>
    <path d="M3.06 19.2a0.92 0.92 0 0 0 0.69 1.58 1.41 1.41 0 0 0 0.51 -0.05l0.22 -0.1a0.91 0.91 0 0 0 0.38 -0.52 0.84 0.84 0 0 0 -0.15 -0.77 1.07 1.07 0 0 0 -1.65 -0.14Z" fill="#4C57E6" fill-rule="evenodd" stroke-width="1"></path>
    <path d="M19.74 19.18a0.91 0.91 0 0 0 0.68 1.58 1.38 1.38 0 0 0 0.51 -0.05l0.22 -0.1a0.86 0.86 0 0 0 0.38 -0.52 0.83 0.83 0 0 0 -0.14 -0.77 1.07 1.07 0 0 0 -1.65 -0.14Z" fill="#4C57E6" fill-rule="evenodd" stroke-width="1"></path>
  </g>
</svg>