<svg xmlns="http://www.w3.org/2000/svg" viewBox="0 0 24 24" id="Controls-Switch-Vertical--Streamline-Freehand">
  <desc>
    Controls Switch Vertical Streamline Icon: https://streamlinehq.com
  </desc>
  <g>
    <path d="M8.34 19.67A2.29 2.29 0 0 1 7.52 21a2.16 2.16 0 0 1 -1.52 0.34 2.51 2.51 0 0 1 -1.77 -1.25 1.82 1.82 0 0 1 0.33 -2.22 2.42 2.42 0 0 1 1.28 -0.67 1.63 1.63 0 0 1 1.39 0.42 0.3 0.3 0 0 1 0.05 0.42 0.29 0.29 0 0 1 -0.42 0A1 1 0 0 0 6 18a1.56 1.56 0 0 0 -0.72 0.58 0.84 0.84 0 0 0 -0.05 1 1.53 1.53 0 0 0 1 0.75 1.1 1.1 0 0 0 0.86 -0.1 1.47 1.47 0 0 0 0.62 -0.74l0 -0.46a0.33 0.33 0 1 1 0.66 -0.11 1.77 1.77 0 0 1 0.05 0.45 0.91 0.91 0 0 1 -0.08 0.3Z" fill="none" stroke-width="1"></path>
    <path d="m5.14 6.78 2 0c0.93 0 1.53 -0.17 2.15 -0.23 0.46 -0.08 0.47 -0.76 -0.12 -0.8s-1.12 -0.07 -2 -0.08l-2 0a20.3 20.3 0 0 0 -2 0.33c-0.43 0.07 -0.26 0.53 0 0.57 0.52 0.05 1.03 0.19 1.97 0.21Z" fill="#4C57E6" stroke-width="1"></path>
    <path d="M10.7 1.22a1.25 1.25 0 0 0 -0.7 -0.64 6 6 0 0 0 -1.52 -0.4 18.15 18.15 0 0 0 -5.06 0.11 0.33 0.33 0 0 0 -0.27 0.39 0.33 0.33 0 0 0 0.39 0.32A17.18 17.18 0 0 1 7.69 0.86a7.07 7.07 0 0 1 1.83 0.37c0.21 0.08 0.38 0.15 0.43 0.27s0.11 5.32 0.11 5.47c0 5.05 -0.08 11.85 -0.1 13.1 0 0.32 0 1 -0.05 1.55a2.18 2.18 0 0 1 -0.12 0.74 1.82 1.82 0 0 1 -0.41 0.16 12.82 12.82 0 0 1 -3.16 0.29 12.91 12.91 0 0 1 -2.77 -0.27c-0.29 -0.07 -0.53 -0.35 -0.65 -0.27 -0.13 -1 -0.33 -7.09 -0.41 -12.42 0 -1.13 0 -8 0.08 -8.33a0.31 0.31 0 0 0 -0.2 -0.37 0.3 0.3 0 0 0 -0.37 0.21 80.61 80.61 0 0 0 -0.3 8.49c-0.05 5.62 0 12 0.14 12.73a1.26 1.26 0 0 0 0.8 0.83 9.36 9.36 0 0 0 2.81 0.51 16.45 16.45 0 0 0 4.14 -0.25 2 2 0 0 0 1.24 -0.67 2.66 2.66 0 0 0 0.27 -1c0.08 -0.67 0.07 -1.53 0.08 -1.92 0 -1.25 0 -8.06 -0.12 -13.12a49.72 49.72 0 0 0 -0.26 -5.74Z" fill="#020202" stroke-width="1"></path>
    <path d="M8 18.6a0.34 0.34 0 0 0 -0.28 0.39l0 0.46a1.47 1.47 0 0 1 -0.62 0.74 1.1 1.1 0 0 1 -0.86 0.1 1.53 1.53 0 0 1 -1 -0.75 0.84 0.84 0 0 1 0.05 -1A1.56 1.56 0 0 1 6 18a1 1 0 0 1 0.86 0.13 0.29 0.29 0 0 0 0.42 0 0.3 0.3 0 0 0 -0.05 -0.42 1.63 1.63 0 0 0 -1.39 -0.42 2.42 2.42 0 0 0 -1.28 0.67 1.82 1.82 0 0 0 -0.33 2.22A2.51 2.51 0 0 0 6 21.34 2.16 2.16 0 0 0 7.52 21a2.29 2.29 0 0 0 0.82 -1.28 0.91 0.91 0 0 0 0 -0.34 1.77 1.77 0 0 0 -0.05 -0.45 0.34 0.34 0 0 0 -0.29 -0.33Z" fill="#020202" stroke-width="1"></path>
    <path d="M19.67 19.67a2.36 2.36 0 0 1 -0.83 1.33 2.13 2.13 0 0 1 -1.56 0.39 2.49 2.49 0 0 1 -1.77 -1.25 1.81 1.81 0 0 1 0.32 -2.22 2.42 2.42 0 0 1 1.28 -0.67 1.63 1.63 0 0 1 1.39 0.42 0.3 0.3 0 0 1 0.05 0.42 0.29 0.29 0 0 1 -0.42 0 1 1 0 0 0 -0.85 -0.13 1.54 1.54 0 0 0 -0.73 0.58 0.84 0.84 0 0 0 -0.05 1 1.53 1.53 0 0 0 1 0.75 1.1 1.1 0 0 0 0.86 -0.1 1.47 1.47 0 0 0 0.62 -0.74L19 19a0.34 0.34 0 1 1 0.67 -0.11 2.38 2.38 0 0 1 0.05 0.45 1.67 1.67 0 0 1 -0.05 0.33Z" fill="none" stroke-width="1"></path>
    <path d="m16.46 15.27 2 0c0.94 -0.05 1.54 -0.17 2.16 -0.23 0.45 -0.08 0.47 -0.76 -0.13 -0.8s-1.11 -0.07 -2.05 -0.09c-0.67 0 -1.36 0 -2 0.05a17.76 17.76 0 0 0 -2 0.33c-0.43 0.07 -0.26 0.53 0 0.56 0.56 0.02 1.08 0.15 2.02 0.18Z" fill="#4C57E6" stroke-width="1"></path>
    <path d="M22 1.22a1.24 1.24 0 0 0 -0.67 -0.64 6.06 6.06 0 0 0 -1.55 -0.4 18.21 18.21 0 0 0 -5.07 0.11 0.34 0.34 0 0 0 -0.27 0.39 0.33 0.33 0 0 0 0.39 0.27A17.2 17.2 0 0 1 19 0.86a7.25 7.25 0 0 1 1.84 0.37c0.21 0.08 0.38 0.15 0.42 0.27s0.11 5.32 0.11 5.47c0 5.05 -0.07 11.85 -0.09 13.1 0 0.32 0 1 -0.05 1.55a2.41 2.41 0 0 1 -0.13 0.74 1.63 1.63 0 0 1 -0.41 0.16 12.82 12.82 0 0 1 -3.16 0.29 12.91 12.91 0 0 1 -2.77 -0.27c-0.29 -0.07 -0.52 -0.35 -0.64 -0.27 -0.14 -1 -0.33 -7.09 -0.42 -12.42 0 -1.13 0 -8 0.08 -8.33a0.3 0.3 0 0 0 -0.2 -0.37 0.31 0.31 0 0 0 -0.37 0.21 80.61 80.61 0 0 0 -0.3 8.49c-0.05 5.62 0 12 0.14 12.73a1.26 1.26 0 0 0 0.8 0.83 9.36 9.36 0 0 0 2.81 0.51 16.56 16.56 0 0 0 4.15 -0.25 2 2 0 0 0 1.25 -0.67 2.68 2.68 0 0 0 0.28 -1 17.82 17.82 0 0 0 0.08 -1.92c0 -1.25 0 -8.06 -0.11 -13.12A52.41 52.41 0 0 0 22 1.22Z" fill="#020202" stroke-width="1"></path>
    <path d="M19.27 18.6a0.35 0.35 0 0 0 -0.27 0.4l0 0.46a1.47 1.47 0 0 1 -0.62 0.74 1.1 1.1 0 0 1 -0.86 0.1 1.53 1.53 0 0 1 -1 -0.75 0.84 0.84 0 0 1 0.05 -1 1.54 1.54 0 0 1 0.73 -0.58 1 1 0 0 1 0.85 0.13 0.29 0.29 0 0 0 0.42 0 0.3 0.3 0 0 0 -0.05 -0.42 1.63 1.63 0 0 0 -1.39 -0.42 2.42 2.42 0 0 0 -1.28 0.67 1.81 1.81 0 0 0 -0.32 2.22 2.49 2.49 0 0 0 1.77 1.25 2.13 2.13 0 0 0 1.54 -0.4 2.36 2.36 0 0 0 0.83 -1.28 1.67 1.67 0 0 0 0 -0.34 2.38 2.38 0 0 0 -0.05 -0.45 0.35 0.35 0 0 0 -0.35 -0.33Z" fill="#020202" stroke-width="1"></path>
  </g>
</svg>