<svg xmlns="http://www.w3.org/2000/svg" viewBox="0 0 24 24" id="Couple-Users-2--Streamline-Freehand">
  <desc>
    Couple Users 2 Streamline Icon: https://streamlinehq.com
  </desc>
  <path d="M22.06 11.11a6 6 0 0 0 -0.88 -2.74A4.42 4.42 0 0 0 19 6.5a3.26 3.26 0 0 0 -0.6 -0.14 4 4 0 0 0 0.93 -1.24 3.52 3.52 0 0 0 -0.05 -3.28A3.26 3.26 0 0 0 17.5 0.35a3 3 0 0 0 -3.82 1 4 4 0 0 0 -1 2.47 3.48 3.48 0 0 0 1.25 2.63c0.07 0.06 0.15 0.1 0.22 0.15a3.28 3.28 0 0 0 -1 0.94 0.33 0.33 0 0 0 0.47 0.47 3.53 3.53 0 0 1 0.86 -0.41c0.14 0 0.28 -0.07 0.41 -0.11l0.63 -0.16 0.2 -0.06a3 3 0 0 0 1.11 0 3.3 3.3 0 0 0 0.87 -0.35l0.47 0.06a3 3 0 0 1 0.6 0.18 3.65 3.65 0 0 1 1.69 1.67 5 5 0 0 1 0.54 2.31 3.85 3.85 0 0 1 -0.14 1.36 1.75 1.75 0 0 1 -0.78 0.89l-0.63 0.3a2.59 2.59 0 0 1 -0.48 0.12 7.54 7.54 0 0 1 -0.81 0.12 8.25 8.25 0 0 1 -2.49 0.05 2 2 0 0 1 -1.25 -0.62 0.59 0.59 0 0 1 -0.09 -0.69 1.54 1.54 0 0 1 0.77 -0.6 2.87 2.87 0 0 1 0.86 -0.18 14.26 14.26 0 0 1 1.46 0 0.34 0.34 0 0 0 0.35 -0.33 0.33 0.33 0 0 0 -0.32 -0.34c-0.51 0 -1 -0.1 -1.52 -0.09a2.32 2.32 0 0 0 -1.11 0.17 3.2 3.2 0 0 0 -1.38 1.22 1.29 1.29 0 0 0 0.24 1.37 2.86 2.86 0 0 0 1.8 1.11 9.26 9.26 0 0 0 2.82 0c0.29 0 0.59 -0.06 0.89 -0.12l0.1 0c-0.08 0.56 -0.15 1.11 -0.2 1.68 -0.08 1 -0.13 2 -0.23 2.93 0 0.47 0 1 -0.05 1.5a3.36 3.36 0 0 1 -0.14 0.84 1.07 1.07 0 0 1 -0.6 0.58 1.16 1.16 0 0 1 -0.89 0.06 0.77 0.77 0 0 1 -0.35 -0.34 1.55 1.55 0 0 1 -0.08 -0.23v-0.51c0 -0.3 0 -0.59 -0.06 -0.88 -0.06 -0.68 -0.15 -1.35 -0.25 -2a0.29 0.29 0 0 0 -0.31 -0.28 0.3 0.3 0 0 0 -0.28 0.31l-0.19 2.85 0 0.64a1 1 0 0 1 -0.1 0.41 0.66 0.66 0 0 1 -0.51 0.3 0.71 0.71 0 0 1 -0.92 -0.46 1.82 1.82 0 0 1 -0.13 -0.51 0.35 0.35 0 0 0 -0.37 -0.31 0.33 0.33 0 0 0 -0.3 0.36 2.91 2.91 0 0 0 0.11 0.83 1.94 1.94 0 0 0 0.31 0.56 1.77 1.77 0 0 0 1.38 0.54 1.72 1.72 0 0 0 1.35 -0.75s0 0 0 -0.05a1.18 1.18 0 0 0 0.31 0.24 2 2 0 0 0 1.59 0.1 2.05 2.05 0 0 0 1.26 -1.07 4.25 4.25 0 0 0 0.28 -1.13l0 -1.55 -0.07 -4.83a2.87 2.87 0 0 0 0.37 -0.15 3.62 3.62 0 0 0 0.43 -0.24 2.76 2.76 0 0 0 1.21 -1.48 4.89 4.89 0 0 0 0.2 -1.73Zm-5.51 -5a2.31 2.31 0 0 1 -1.91 -0.56 2.55 2.55 0 0 1 -1 -1.8 3.1 3.1 0 0 1 0.65 -2c0.41 -0.55 1.09 -1.49 2.95 -0.72a2.47 2.47 0 0 1 1.26 1.23 2.65 2.65 0 0 1 -0.12 2.39 2.82 2.82 0 0 1 -1.83 1.5Z" fill="#4C57E6" fill-rule="evenodd" stroke-width="1"></path>
  <path d="M13.43 9.52a4.91 4.91 0 0 0 -0.83 -0.94 5.29 5.29 0 0 0 -1 -0.69 5.85 5.85 0 0 0 -1.43 -0.47 4.39 4.39 0 0 0 1.61 -4.15 3.37 3.37 0 0 0 -3.6 -3 3.86 3.86 0 0 0 -1.1 0.23 4.57 4.57 0 0 0 -2.57 2.17 3.82 3.82 0 0 0 -0.36 2.89 3.46 3.46 0 0 0 1.73 2A4.7 4.7 0 0 0 4 8.8a6.87 6.87 0 0 0 -1.57 2.68 10.14 10.14 0 0 0 -0.49 3 3.69 3.69 0 0 0 0.3 1.74 2.09 2.09 0 0 0 1.48 1.1 2.15 2.15 0 0 0 0.62 0.08c0 0.73 0.08 1.46 0.15 2.18a16.43 16.43 0 0 0 0.3 1.82 7.26 7.26 0 0 0 0.4 1.22 2.25 2.25 0 0 0 2 1.29 2 2 0 0 0 1.47 -0.63 1.8 1.8 0 0 0 2 0.56 2.79 2.79 0 0 0 1.77 -1.77 5.38 5.38 0 0 0 0.2 -1.2l0 -1.68c0 -0.55 0 -1.18 -0.08 -1.77 -0.1 -1.36 -0.24 -2.72 -0.33 -4.08a0.33 0.33 0 0 0 -0.35 -0.32 0.34 0.34 0 0 0 -0.32 0.35c0 1.35 0.06 2.72 0.06 4.08l0 1.73c0 0.57 0 1.07 -0.06 1.61a4.41 4.41 0 0 1 -0.17 1 1.6 1.6 0 0 1 -1 1 0.84 0.84 0 0 1 -1.1 -0.44 3.14 3.14 0 0 1 -0.35 -1.16c-0.14 -1.08 0 -2.29 -0.07 -3.24a0.28 0.28 0 0 0 -0.3 -0.28 0.29 0.29 0 0 0 -0.29 0.3c0 1 -0.24 2.19 -0.19 3.29a4.33 4.33 0 0 0 0.27 1.36 1.14 1.14 0 0 1 -1.05 0.45 1.28 1.28 0 0 1 -1.12 -0.82 8 8 0 0 1 -0.27 -1.07c-0.11 -0.57 -0.19 -1.16 -0.25 -1.73l-0.74 -5.8a0.29 0.29 0 0 0 -0.31 -0.28 0.29 0.29 0 0 0 -0.28 0.31l0 3a1.58 1.58 0 0 1 -0.36 -0.09 1.33 1.33 0 0 1 -0.97 -0.72 2.71 2.71 0 0 1 -0.09 -1.32 11.19 11.19 0 0 1 0.56 -2.71 7.29 7.29 0 0 1 1.26 -2.38 3.87 3.87 0 0 1 2.44 -1.4A4.1 4.1 0 0 0 9.11 8a7 7 0 0 1 1.89 0.83 8.3 8.3 0 0 1 0.82 0.61 5.44 5.44 0 0 1 0.72 0.72 4.23 4.23 0 0 1 0.88 1.66c0.09 0.39 0.84 0 0.67 -0.61a4.66 4.66 0 0 0 -0.66 -1.69ZM9.18 6.71a3 3 0 0 1 -2.37 0.14A2.69 2.69 0 0 1 5 5.28 3 3 0 0 1 5.18 3a3.64 3.64 0 0 1 1.08 -1.35 5 5 0 0 1 0.81 -0.39A3 3 0 0 1 8.17 1a2.54 2.54 0 0 1 2.57 2.37 3.28 3.28 0 0 1 -1.56 3.34Z" fill="#020202" fill-rule="evenodd" stroke-width="1"></path>
</svg>