<svg xmlns="http://www.w3.org/2000/svg" viewBox="0 0 24 24" id="Couple-Man-Woman-1--Streamline-Freehand">
  <desc>
    Couple Man Woman 1 Streamline Icon: https://streamlinehq.com
  </desc>
  <g>
    <path d="M6.19 11.25a4 4 0 0 0 -4.64 2.87A3.87 3.87 0 0 0 4.27 19a4.79 4.79 0 0 0 4 -0.67 4.23 4.23 0 0 0 1.52 -3.73A3.29 3.29 0 0 0 9 12.68a3.16 3.16 0 0 0 -1.77 -1 0.35 0.35 0 0 0 -0.15 0.68 2.43 2.43 0 0 1 1.32 0.86 2.49 2.49 0 0 1 0.51 1.47 3.31 3.31 0 0 1 -1.26 2.85 3.78 3.78 0 0 1 -3.13 0.39 2.81 2.81 0 0 1 -2 -3.53 3.21 3.21 0 0 1 3.63 -2.49 0.3 0.3 0 0 0 0.33 -0.28 0.29 0.29 0 0 0 -0.29 -0.38Z" fill="#020202" fill-rule="evenodd" stroke-width="1"></path>
    <path d="M0.64 23.38a3.48 3.48 0 0 1 0.77 -1.69 8.93 8.93 0 0 1 1 -1.08 9.54 9.54 0 0 1 1.12 -1l0.74 -0.47a0.33 0.33 0 0 0 0.2 -0.44 0.35 0.35 0 0 0 -0.47 -0.2l-0.94 0.37a7.17 7.17 0 0 0 -1.44 0.89 4.53 4.53 0 0 0 -0.8 0.84A3.89 3.89 0 0 0 0 23.4a0.32 0.32 0 0 0 0.31 0.3 0.31 0.31 0 0 0 0.33 -0.32Z" fill="#020202" fill-rule="evenodd" stroke-width="1"></path>
    <path d="M7.13 19.11a1.87 1.87 0 0 1 0.41 0.34c0.27 0.26 0.52 0.57 0.63 0.68a8.42 8.42 0 0 1 0.77 0.8 5.15 5.15 0 0 1 0.64 0.84 4.11 4.11 0 0 1 0.52 1.36 0.33 0.33 0 0 0 0.37 0.32 0.34 0.34 0 0 0 0.32 -0.37 4.42 4.42 0 0 0 -0.45 -2.17 4 4 0 0 0 -0.84 -1.08 5.31 5.31 0 0 0 -0.7 -0.5c-0.16 -0.1 -0.58 -0.38 -1 -0.57a2.14 2.14 0 0 0 -0.51 -0.23 0.31 0.31 0 0 0 -0.21 0.58Z" fill="#020202" fill-rule="evenodd" stroke-width="1"></path>
    <path d="M6.87 14.26s-0.04 -0.01 0 0Zm0.16 0.15a8.71 8.71 0 0 0 1 0.94 0.34 0.34 0 0 0 0.49 0 0.36 0.36 0 0 0 0 -0.49c-0.33 -0.35 -0.71 -1 -1 -1.31a0.8 0.8 0 0 0 -0.36 -0.25 0.64 0.64 0 0 0 -0.43 0 2.78 2.78 0 0 0 -0.49 0.25l-1.11 0.63a3 3 0 0 1 -1 0.46 6 6 0 0 1 -1.21 0.16 0.3 0.3 0 0 0 -0.33 0.28 0.31 0.31 0 0 0 0.28 0.33 5.62 5.62 0 0 0 1.68 0.11 3.81 3.81 0 0 0 1.14 -0.31l1.15 -0.69a1.54 1.54 0 0 1 0.16 -0.11Z" fill="#020202" fill-rule="evenodd" stroke-width="1"></path>
    <path d="M5.21 22.83a0.13 0.13 0 0 0 0 0.06c0.06 0.23 0.21 0.28 0.35 0.24a0.27 0.27 0 0 0 0.32 -0.23 0.17 0.17 0 0 0 0 -0.07 1.81 1.81 0 0 0 0 -0.19l0.12 -0.41c0 -0.24 0.11 -0.46 0.13 -0.71a6 6 0 0 0 -0.06 -0.73L6 20.24s0 -0.17 -0.06 -0.23a0.25 0.25 0 0 0 0 -0.12c0 -0.06 -0.49 -0.3 -0.6 0.12 0 0.06 0 0.22 -0.06 0.25l-0.14 0.53a5.9 5.9 0 0 0 -0.09 0.72 4.7 4.7 0 0 0 0.1 0.74l0.09 0.43a1.24 1.24 0 0 0 0 0.16Z" fill="#4C57E6" fill-rule="evenodd" stroke-width="1"></path>
    <path d="M18.16 13.44s-0.01 -0.02 0 0Zm0.8 0.45c0.16 0 0.26 0 0.13 -0.15s-0.09 0.08 -0.09 0.15Zm-0.39 0.42a2.59 2.59 0 0 0 0.27 0.32 6 6 0 0 0 0.8 0.6 2.7 2.7 0 0 0 1 0.35 0.34 0.34 0 0 0 0.42 -0.25 0.35 0.35 0 0 0 -0.26 -0.42 1.83 1.83 0 0 1 -0.54 -0.28 3.2 3.2 0 0 1 -0.67 -0.7 1.49 1.49 0 0 1 -0.18 -0.36 1.12 1.12 0 0 1 -0.1 -0.33 0.56 0.56 0 0 0 -0.26 -0.42 0.59 0.59 0 0 0 -0.71 0l-0.24 0.27 -0.69 0.67c-0.21 0.18 -0.42 0.36 -0.66 0.53a2.57 2.57 0 0 1 -0.44 0.29l-0.54 0.24 -0.47 0.16a0.3 0.3 0 0 0 -0.14 0.4 0.3 0.3 0 0 0 0.41 0.15l0.38 0 0.64 -0.13a3.58 3.58 0 0 0 0.79 -0.3 7.62 7.62 0 0 0 0.69 -0.38 3.79 3.79 0 0 0 0.4 -0.3Z" fill="#020202" fill-rule="evenodd" stroke-width="1"></path>
    <path d="M13.14 23.41a2.79 2.79 0 0 1 0.23 -0.78A8.21 8.21 0 0 1 14 21.5a4.38 4.38 0 0 1 0.65 -0.94 6.88 6.88 0 0 1 0.53 -0.55 4.78 4.78 0 0 1 1.1 -0.73l0.51 -0.2a0.35 0.35 0 0 0 -0.15 -0.68l-0.63 0.13a4.78 4.78 0 0 0 -1.8 0.86A4.57 4.57 0 0 0 13 21a10 10 0 0 0 -0.4 1.38 3.46 3.46 0 0 0 -0.06 1 0.31 0.31 0 1 0 0.61 0Z" fill="#020202" fill-rule="evenodd" stroke-width="1"></path>
    <path d="M20.53 19.14a5.48 5.48 0 0 1 1.28 1.22 11.1 11.1 0 0 1 0.7 0.92A4.42 4.42 0 0 1 23.3 23a0.35 0.35 0 0 0 0.36 0.33A0.34 0.34 0 0 0 24 23a4.39 4.39 0 0 0 -0.37 -2 4.56 4.56 0 0 0 -0.45 -0.77 4.13 4.13 0 0 0 -0.6 -0.65 4.45 4.45 0 0 0 -1.82 -1 0.3 0.3 0 0 0 -0.39 0.18 0.3 0.3 0 0 0 0.16 0.38Z" fill="#020202" fill-rule="evenodd" stroke-width="1"></path>
    <path d="m18.18 21.81 -0.09 0c0.01 0 0.04 0.04 0.09 0Zm0.12 -0.14c-0.42 -0.5 -1.16 -1.36 -1.64 -1.89a0.3 0.3 0 0 0 -0.42 -0.07 0.31 0.31 0 0 0 -0.07 0.43c0.3 0.52 0.69 1.34 1 1.92a4.8 4.8 0 0 0 0.31 0.47 1 1 0 0 0 0.69 0.45 1 1 0 0 0 0.49 -0.17 2.57 2.57 0 0 0 0.48 -0.42 5.54 5.54 0 0 0 0.5 -0.63c0.32 -0.45 0.66 -1 1 -1.42a0.36 0.36 0 0 0 0 -0.49 0.35 0.35 0 0 0 -0.49 0l-1.75 1.7Z" fill="#4C57E6" fill-rule="evenodd" stroke-width="1"></path>
    <path d="M22.61 17.67Zm-4 -6.1a1.94 1.94 0 0 0 -0.4 -0.12 0.78 0.78 0 0 0 -0.34 0 0.31 0.31 0 0 0 0.15 0.6l0.62 0.17 0.57 -0.14a1.66 1.66 0 0 1 0.32 0 2.46 2.46 0 0 1 0.33 0.07A1.7 1.7 0 0 1 21 13.31c0.32 0.94 0.21 2.14 0.44 3.1a1.73 1.73 0 0 0 0.49 0.79c0.13 0.14 0.26 0.39 0.39 0.54a3.66 3.66 0 0 1 -0.6 0.07 4.87 4.87 0 0 1 -1.28 -0.1 0.57 0.57 0 0 0 -0.53 0.1 3 3 0 0 1 -1.69 0.47 2 2 0 0 1 -1.55 -0.4 0.65 0.65 0 0 0 -0.54 -0.21c-0.16 0 -0.76 0.11 -0.67 0.29a2 2 0 0 1 -0.78 0 0.9 0.9 0 0 1 -0.45 -0.16 1.1 1.1 0 0 1 0.09 -0.14c0.16 -0.16 0.36 -0.33 0.53 -0.51a1.67 1.67 0 0 0 0.45 -0.74 22.41 22.41 0 0 1 0.55 -3.07 1.83 1.83 0 0 1 1.28 -1.14 0.35 0.35 0 0 0 -0.17 -0.67 2.51 2.51 0 0 0 -1.82 1.5 23.63 23.63 0 0 0 -0.73 3.15 1 1 0 0 1 -0.37 0.42 5.41 5.41 0 0 0 -0.68 0.65 0.85 0.85 0 0 0 -0.12 0.91 1.57 1.57 0 0 0 1 0.77 3.09 3.09 0 0 0 1.59 0 3 3 0 0 0 0.34 -0.08 3.34 3.34 0 0 0 1.62 0.51 4.82 4.82 0 0 0 2.64 -0.55 6.29 6.29 0 0 0 2 0 1.56 1.56 0 0 0 1.14 -0.71 0.88 0.88 0 0 0 -0.12 -1 4 4 0 0 0 -0.69 -0.65c-0.14 -0.13 -0.31 -0.25 -0.35 -0.41 -0.29 -1 -0.26 -2.2 -0.64 -3.13A2.41 2.41 0 0 0 20 11.47a2.82 2.82 0 0 0 -0.44 -0.07 1.91 1.91 0 0 0 -0.47 0Z" fill="#020202" fill-rule="evenodd" stroke-width="1"></path>
    <path d="M12.1 10.65a2.13 2.13 0 0 0 -0.31 -0.18A13.32 13.32 0 0 1 7.7 7.35a5.84 5.84 0 0 1 -1.1 -3.08A2.23 2.23 0 0 1 8 1.92a3.63 3.63 0 0 1 1.33 -0.27 1.54 1.54 0 0 1 1.05 0.35 2.54 2.54 0 0 1 0.41 0.55 9.91 9.91 0 0 1 0.56 1 0.61 0.61 0 0 0 0.5 0.33 0.56 0.56 0 0 0 0.54 -0.28s0.41 -0.69 0.85 -1.28a2.94 2.94 0 0 1 0.55 -0.64 1.82 1.82 0 0 1 1.73 -0.19 2.48 2.48 0 0 1 1.3 1.36 4 4 0 0 1 -0.45 3.6 13.24 13.24 0 0 1 -3.83 3.88c-0.21 0.19 -0.47 0.25 -0.44 0.32Zm-0.13 0.59a0.37 0.37 0 0 0 0.42 0 5.19 5.19 0 0 0 0.53 -0.31 14 14 0 0 0 4.21 -4 5 5 0 0 0 0.66 -4.43A3.51 3.51 0 0 0 16 0.54a2.88 2.88 0 0 0 -2.78 0.23 3.17 3.17 0 0 0 -0.7 0.69 7.77 7.77 0 0 0 -0.54 0.74l-0.16 -0.26a4.3 4.3 0 0 0 -0.6 -0.77A2.46 2.46 0 0 0 9.7 0.52a4.52 4.52 0 0 0 -2.14 0.35 3.11 3.11 0 0 0 -1.94 2.64A6.33 6.33 0 0 0 7 7.85a11.57 11.57 0 0 0 3.41 2.62 14.09 14.09 0 0 0 1.47 0.74Z" fill="#020202" fill-rule="evenodd" stroke-width="1"></path>
  </g>
</svg>