<svg xmlns="http://www.w3.org/2000/svg" viewBox="0 0 24 24" id="Crafts-Sewing-Tools-Rotary-Cutter--Streamline-Freehand">
  <desc>
    Crafts Sewing Tools Rotary Cutter Streamline Icon: https://streamlinehq.com
  </desc>
  <title>crafts-sewing-tools-rotary-cutter</title>
  <g>
    <path d="M21.83 0.72a4 4 0 0 0 -4.4 -0.13 13.26 13.26 0 0 0 -2.55 3.27c-1.1 1.73 -2.19 3.7 -2.69 4.62 -0.13 0.23 -0.21 0.39 -0.26 0.47a0.47 0.47 0 0 0 0 0.43 1.68 1.68 0 0 0 0.28 0.34c0.19 0.19 0.43 0.37 0.59 0.51l1.86 1.6a0.34 0.34 0 0 0 0.47 0 0.32 0.32 0 0 0 0 -0.47l-1.8 -1.65c-0.13 -0.13 -0.32 -0.28 -0.49 -0.44l-0.07 -0.08 0.22 -0.38c0.64 -1.07 2.07 -3.4 3.33 -5.18A8.91 8.91 0 0 1 18 1.53a3 3 0 0 1 3.19 0.1 2.72 2.72 0 0 1 1 3 12.07 12.07 0 0 1 -2.54 4c-1.43 1.68 -3 3.18 -3.47 3.3a0.3 0.3 0 1 0 0.12 0.58c0.54 -0.11 2.33 -1.6 3.95 -3.35a13.19 13.19 0 0 0 2.94 -4.3A3.7 3.7 0 0 0 21.83 0.72Z" fill="#020202" stroke-width="1"></path>
    <path d="M9.65 15.53a13.42 13.42 0 0 1 1.88 -1 4.3 4.3 0 0 0 0.52 -0.35 5.84 5.84 0 0 0 0.92 -0.94 11.53 11.53 0 0 0 1 -1.59 0.3 0.3 0 0 0 -0.5 -0.32 10.27 10.27 0 0 1 -0.93 1.14 5.46 5.46 0 0 1 -1.09 0.88 16.15 16.15 0 0 1 -1.69 0.79 4.06 4.06 0 0 0 -0.8 0.52c-0.14 0.12 -1.51 1.58 -1.76 1.93l-0.7 1.09a0.33 0.33 0 0 0 0 0.47 0.34 0.34 0 0 0 0.47 0l0.85 -1a12.69 12.69 0 0 1 1.83 -1.62Z" fill="#4C57E6" stroke-width="1"></path>
    <path d="M9.49 18.15a2.84 2.84 0 0 1 -2.35 2.4 2.13 2.13 0 0 1 -2.23 -0.78 3 3 0 0 1 -0.75 -2.47 2.82 2.82 0 0 1 1.3 -1.64 2 2 0 0 1 2.33 -0.22c0.28 0.07 0.69 -0.33 0.47 -0.52a3.49 3.49 0 0 0 -1.17 -0.38c0 -0.21 0.1 -0.44 0.13 -0.71a2.41 2.41 0 0 0 0 -0.38 2.32 2.32 0 0 0 -0.07 -0.38c-0.08 -0.36 -0.19 -0.66 -0.26 -0.88a0.33 0.33 0 0 0 -0.36 -0.3 0.32 0.32 0 0 0 -0.3 0.36c0 0.23 -0.1 0.53 -0.12 0.89a2.54 2.54 0 0 0 0 0.39 2.65 2.65 0 0 0 0.05 0.38 5.45 5.45 0 0 0 0.22 0.65 3.75 3.75 0 0 0 -1.3 0.46 3.84 3.84 0 0 0 -0.54 0.35 4.16 4.16 0 0 0 -0.34 -0.52 1.86 1.86 0 0 0 -0.27 -0.29l-0.31 -0.25c-0.31 -0.21 -0.6 -0.36 -0.8 -0.49a0.33 0.33 0 0 0 -0.46 0.48c0.14 0.2 0.31 0.48 0.54 0.78a2.44 2.44 0 0 0 0.27 0.29 1.87 1.87 0 0 0 0.3 0.26 3.45 3.45 0 0 0 0.53 0.27 3 3 0 0 0 -0.71 1.19 3 3 0 0 0 -0.08 0.52 3.71 3.71 0 0 0 -0.55 -0.13 1.58 1.58 0 0 0 -0.38 0 2.34 2.34 0 0 0 -0.38 0c-0.36 0.06 -0.66 0.15 -0.89 0.19a0.34 0.34 0 0 0 0 0.67c0.23 0.05 0.54 0.14 0.9 0.19a2.33 2.33 0 0 0 0.38 0 2.34 2.34 0 0 0 0.38 0 3.81 3.81 0 0 0 0.56 -0.14 4.22 4.22 0 0 0 0.89 2.08c-0.07 0 -0.14 0.08 -0.2 0.13a2.09 2.09 0 0 0 -0.28 0.24 2.92 2.92 0 0 0 -0.23 0.29c-0.2 0.29 -0.34 0.56 -0.46 0.75a0.33 0.33 0 0 0 0.47 0.47c0.19 -0.12 0.46 -0.27 0.74 -0.48a3.48 3.48 0 0 0 0.28 -0.24 2.17 2.17 0 0 0 0.24 -0.29 2.53 2.53 0 0 0 0.13 -0.22 3.05 3.05 0 0 0 2 0.56l0 0.4a1.69 1.69 0 0 0 0 0.38 2.24 2.24 0 0 0 0.1 0.37c0.11 0.35 0.25 0.63 0.33 0.85a0.34 0.34 0 0 0 0.36 0.32 0.34 0.34 0 0 0 0.28 -0.38l0 -0.93a2.53 2.53 0 0 0 0 -0.38 2.34 2.34 0 0 0 -0.09 -0.38 3.52 3.52 0 0 0 -0.17 -0.39 4.67 4.67 0 0 0 1.51 -0.84 4.83 4.83 0 0 0 0.32 0.45 3.58 3.58 0 0 0 0.26 0.29 2.42 2.42 0 0 0 0.31 0.25c0.31 0.21 0.61 0.33 0.83 0.46a0.3 0.3 0 0 0 0.42 0 0.29 0.29 0 0 0 0 -0.41 9 9 0 0 0 -0.51 -0.82 2.44 2.44 0 0 0 -0.27 -0.29 3.24 3.24 0 0 0 -0.31 -0.24 4.31 4.31 0 0 0 -0.47 -0.29 3.4 3.4 0 0 0 0.65 -1.55c0.18 0.07 0.37 0.15 0.61 0.22a2.5 2.5 0 0 0 0.38 0.06h0.39c0.37 0 0.68 -0.08 0.92 -0.11a0.33 0.33 0 0 0 0.35 -0.31 0.32 0.32 0 0 0 -0.3 -0.35c-0.22 -0.07 -0.52 -0.19 -0.87 -0.28a2.32 2.32 0 0 0 -0.38 -0.07 1.63 1.63 0 0 0 -0.38 0 3.53 3.53 0 0 0 -0.71 0.11A3.29 3.29 0 0 0 9.61 16c-0.13 -0.18 -0.67 0.17 -0.46 0.48a2.33 2.33 0 0 1 0.34 1.67Z" fill="#020202" stroke-width="1"></path>
  </g>
</svg>