<svg xmlns="http://www.w3.org/2000/svg" viewBox="0 0 24 24" id="Crafts-Painting--Streamline-Freehand">
  <desc>
    Crafts Painting Streamline Icon: https://streamlinehq.com
  </desc>
  <title>crafts-painting</title>
  <g>
    <path d="M16.54 13.42a7.8 7.8 0 0 0 -0.63 -1.08 2.83 2.83 0 0 0 -1 -0.92 1.83 1.83 0 0 0 -1.31 -0.15c-0.26 0.23 -0.27 0.55 0 0.58s0.56 0.18 0.82 0.37A3.25 3.25 0 0 1 15 13c0.22 0.31 0.44 0.63 0.64 0.94a3.5 3.5 0 0 0 0.83 0.81c0.29 0.17 0.79 -0.32 0.5 -0.5a4.48 4.48 0 0 1 -0.43 -0.83Z" fill="#4C57E6" fill-rule="evenodd" stroke-width="1"></path>
    <path d="M22.74 1.64a0.32 0.32 0 0 0 -0.43 0.16l-2.86 6a12.45 12.45 0 0 1 -0.76 1.49c-0.61 0.94 -0.6 0.41 -1 0.32A11.45 11.45 0 0 1 16 9.08a1.93 1.93 0 0 1 -0.56 -0.33 1.29 1.29 0 0 0 0 -0.3l0.49 -1.83c0.33 -1.26 0.67 -2.53 1.06 -3.78 0.27 -0.82 0.56 -1.64 0.9 -2.43a0.29 0.29 0 0 0 -0.16 -0.41 0.29 0.29 0 0 0 -0.38 0.15C17 1 16.62 1.77 16.29 2.6c-0.47 1.24 -0.89 2.49 -1.29 3.74l-0.6 1.83a4.15 4.15 0 0 0 -0.16 0.52 0.57 0.57 0 0 0 0.06 0.38s0 0 0.06 0.08a2.57 2.57 0 0 0 -1.29 1A8.3 8.3 0 0 0 12.2 13a3.74 3.74 0 0 1 -1 2.22 0.56 0.56 0 0 0 -0.18 0.64 0.65 0.65 0 0 0 0.28 0.33c0.13 0.07 0.45 0.13 0.59 0.19a6.5 6.5 0 0 0 0.84 0.22c0.39 0.07 0.79 0.11 1.19 0.16a4.74 4.74 0 0 0 2.88 -0.62 4.55 4.55 0 0 0 1.91 -2.19 3.44 3.44 0 0 0 0.25 -1.39 11.45 11.45 0 0 0 -0.28 -1.79 2 2 0 0 0 0.75 -0.66 11.68 11.68 0 0 0 0.93 -1.91l2.54 -6.13a0.32 0.32 0 0 0 -0.16 -0.43Zm-4.81 12a6.16 6.16 0 0 1 -1.64 1.66 3.62 3.62 0 0 1 -2.26 0.4c-0.38 -0.05 -0.76 -0.09 -1.13 -0.16a4.31 4.31 0 0 1 -0.49 -0.11 4.58 4.58 0 0 0 0.59 -2.2 6.44 6.44 0 0 1 0.66 -2.7 1.83 1.83 0 0 1 1.11 -0.88 3.67 3.67 0 0 0 0.38 0.27 9.1 9.1 0 0 0 2.22 0.7c0.13 0 0.39 0.15 0.59 0.2a10.15 10.15 0 0 1 0.18 1.72 2.57 2.57 0 0 1 -0.21 1.06Z" fill="#020202" fill-rule="evenodd" stroke-width="1"></path>
    <path d="M16.53 18.09a13.71 13.71 0 0 1 -2.6 1.46 14.43 14.43 0 0 1 -2.85 0.89 3.19 3.19 0 0 1 -1.94 -0.18 0.61 0.61 0 0 1 -0.25 -0.78 0.49 0.49 0 0 1 0.11 -0.2 6.69 6.69 0 0 0 0.63 -0.76 0.46 0.46 0 0 0 0 -0.42 0.5 0.5 0 0 0 -0.3 -0.32 0.62 0.62 0 0 0 -0.29 0l-0.24 0.07 -0.54 0.15 -1.35 0.3a20.15 20.15 0 0 1 -2.41 0.47 4.3 4.3 0 0 1 -1.5 -0.12 1.66 1.66 0 0 1 -0.66 -0.31 0.41 0.41 0 0 1 -0.2 -0.36 0.51 0.51 0 0 1 0.25 -0.38 7.53 7.53 0 0 1 1.08 -0.48 1.93 1.93 0 0 0 0.91 -0.7 0.53 0.53 0 0 0 0 -0.58 0.56 0.56 0 0 0 -0.31 -0.27 1.52 1.52 0 0 0 -0.37 -0.07c-0.06 0 -0.17 -0.07 -0.19 0l-0.32 -0.26a1.4 1.4 0 0 1 0.7 -0.53 14.12 14.12 0 0 1 1.66 -0.47 26.94 26.94 0 0 0 2.93 -1.07c0.94 -0.41 1.87 -0.87 2.78 -1.38a0.29 0.29 0 0 0 -0.28 -0.51 28.54 28.54 0 0 1 -2.76 1.26 25.54 25.54 0 0 1 -2.89 0.91A10.75 10.75 0 0 0 3.3 14a2.13 2.13 0 0 0 -0.85 0.72 0.89 0.89 0 0 0 -0.06 0.94 1.72 1.72 0 0 0 0.52 0.59 6 6 0 0 0 -1.09 0.48 1.57 1.57 0 0 0 -0.73 1.12A1.38 1.38 0 0 0 1.47 19a2.75 2.75 0 0 0 1.28 0.74 5.48 5.48 0 0 0 1.86 0.1 18.41 18.41 0 0 0 2.54 -0.51L8 19.1l0 0.12a1.44 1.44 0 0 0 0.74 1.84 4.14 4.14 0 0 0 2.56 0.2 15 15 0 0 0 3 -1 14 14 0 0 0 2.69 -1.63 0.32 0.32 0 1 0 -0.39 -0.51Z" fill="#020202" fill-rule="evenodd" stroke-width="1"></path>
    <path d="M3.75 21.1a2.91 2.91 0 0 0 -0.9 0.62 1.18 1.18 0 0 0 -0.29 1.43A1.89 1.89 0 0 0 4.3 24a2.94 2.94 0 0 0 2 -1.14c0.54 -0.99 -0.58 -2.64 -2.55 -1.76Zm1.76 1.25a1.8 1.8 0 0 1 -1.28 0.56 0.91 0.91 0 0 1 -0.68 -0.21c-0.09 -0.08 -0.1 -0.21 0 -0.36 1.15 -1.56 2.24 -0.34 1.96 0.01Z" fill="#020202" fill-rule="evenodd" stroke-width="1"></path>
  </g>
</svg>