<svg xmlns="http://www.w3.org/2000/svg" viewBox="0 0 24 24" id="Crafts-Wood-Carving-2--Streamline-Freehand">
  <desc>
    Crafts Wood Carving 2 Streamline Icon: https://streamlinehq.com
  </desc>
  <title>crafts-wood-carving-2</title>
  <g>
    <path d="M23.89 2a0.35 0.35 0 0 0 -0.49 0c-0.9 0.9 -2.85 2.9 -4.4 4.37 -0.77 0.74 -1.71 1.54 -1.72 1.56A4 4 0 0 1 16 7.18a5.27 5.27 0 0 1 -0.66 -0.63c0 -0.06 0.07 -0.24 0.15 -0.41a22.24 22.24 0 0 1 1.38 -2.49 33.72 33.72 0 0 1 2 -3 0.3 0.3 0 0 0 0 -0.43 0.3 0.3 0 0 0 -0.43 0 40.12 40.12 0 0 0 -3.15 4.09A11.31 11.31 0 0 0 14.31 6a1.33 1.33 0 0 0 -0.13 0.76A2.71 2.71 0 0 0 15 7.85a14.76 14.76 0 0 0 -1.73 1.78 16.88 16.88 0 0 0 -1 1.43c-0.56 0.87 -1 1.71 -1.31 2.26a0.36 0.36 0 0 0 0.09 0.48 0.35 0.35 0 0 0 0.49 -0.09c0.39 -0.48 1 -1.17 1.59 -2 0.22 -0.28 0.44 -0.56 0.66 -0.86l0.61 -0.87c0.42 -0.63 0.79 -1.23 1.14 -1.73l0.32 0.23a4.1 4.1 0 0 0 1.14 0.6 1 1 0 0 0 0.64 0 11.41 11.41 0 0 0 2.14 -1.91c1.47 -1.55 3.3 -3.68 4.15 -4.64a0.36 0.36 0 0 0 -0.04 -0.53Z" fill="#020202" stroke-width="1"></path>
    <path d="M0.44 1.31a6.09 6.09 0 0 1 3.22 0.52 1.78 1.78 0 0 1 0.52 0.41A3.53 3.53 0 0 0 2 2.82a1.92 1.92 0 0 0 -0.75 1.83 2.1 2.1 0 0 0 1 1.43A2.18 2.18 0 0 0 4 6.41a2.74 2.74 0 0 0 1.78 -2.73 1.84 1.84 0 0 1 0.57 0.7 4.86 4.86 0 0 1 0.31 2.52 0.35 0.35 0 0 0 0.34 0.38 0.36 0.36 0 0 0 0.36 -0.28 5 5 0 0 0 -0.56 -3.54 2.74 2.74 0 0 0 -1.35 -1 2.82 2.82 0 0 0 -1.39 -1.4A6.93 6.93 0 0 0 0.39 0.7a0.31 0.31 0 0 0 -0.28 0.3 0.3 0.3 0 0 0 0.33 0.31Zm4.24 2 0 0.09a1.75 1.75 0 0 1 -0.21 1.18 1.66 1.66 0 0 1 -0.88 0.77c-0.17 0.06 -0.44 -0.08 -0.69 -0.24a0.89 0.89 0 0 1 -0.48 -0.57 0.89 0.89 0 0 1 0.51 -1 2.86 2.86 0 0 1 1.53 -0.28Z" fill="#4C57E6" stroke-width="1"></path>
    <path d="m7.92 3.88 0.21 0a2.48 2.48 0 0 0 0.59 -1.06c0.07 -0.22 0.17 -0.44 0.23 -0.67C9.28 0.7 9 0.62 8.87 0.58s-0.4 -0.15 -1 1.16a3.12 3.12 0 0 0 -0.25 1.4 2.51 2.51 0 0 0 0 0.42c0.09 0.24 0.23 0.32 0.3 0.32Z" fill="#4C57E6" stroke-width="1"></path>
    <path d="M10.25 7.34c0.07 0 0.23 0 0.25 -0.23a1.33 1.33 0 0 1 0.11 -0.67 3.33 3.33 0 0 1 0.33 -0.58 2.38 2.38 0 0 1 0.39 -0.45 1.2 1.2 0 0 1 0.53 -0.31 1.31 1.31 0 0 1 0.62 -0.1 0.46 0.46 0 0 1 0.43 0.43 0.34 0.34 0 0 0 0.34 0.34 0.35 0.35 0 0 0 0.35 -0.34A1.2 1.2 0 0 0 12.69 4a2.19 2.19 0 0 0 -1.4 0.07 2.06 2.06 0 0 0 -0.81 0.54 3 3 0 0 0 -0.46 0.79 3.4 3.4 0 0 0 -0.18 0.84 1.67 1.67 0 0 0 0.06 0.86 0.34 0.34 0 0 0 0.35 0.24Z" fill="#4C57E6" stroke-width="1"></path>
    <path d="M23.54 19c-0.09 -0.65 -0.07 -1.67 -0.26 -2.51a2.62 2.62 0 0 0 -0.53 -1.14 0.88 0.88 0 0 0 -0.56 -0.23c-0.49 -0.06 -1.54 -0.09 -2.79 -0.1 -2.4 0 -5.58 0.06 -7.14 0.23a0.35 0.35 0 1 0 0.07 0.69c0.93 -0.08 2.45 -0.13 4 -0.14 2.15 0 4.84 0 5.88 0.11 0.12 0 0.19 0.71 0.24 1.09 0.11 0.74 0.08 1.56 0.14 2.11s0.12 1 0.14 1.51a6.18 6.18 0 0 1 0 1 4.12 4.12 0 0 1 0 0.45 0.34 0.34 0 0 1 -0.09 0.19 0.87 0.87 0 0 1 -0.4 0.17 5.76 5.76 0 0 1 -0.62 0.13 10.32 10.32 0 0 1 -1.23 0.15c-0.63 0.05 -1.25 0.06 -1.9 0.07l-5.52 -0.14c-1.61 0 -3.22 0.06 -4.84 0.06l-2 0 -3.63 -0.33a6.16 6.16 0 0 1 -0.76 -0.06 0.47 0.47 0 0 1 -0.32 -0.19 1.71 1.71 0 0 1 -0.25 -0.78 9.1 9.1 0 0 1 0 -1.57l0 -2a7.34 7.34 0 0 1 0.05 -0.81l0.12 -0.69a1.4 1.4 0 0 1 0.71 -0.27c0.5 -0.07 1.05 0 1.47 -0.06A8.49 8.49 0 0 0 7.41 15 3.17 3.17 0 0 0 9 12.73a4.14 4.14 0 0 0 0.05 -0.86 4.64 4.64 0 0 0 -0.12 -0.87A3.39 3.39 0 0 0 7 8.79 3.11 3.11 0 0 0 4.12 9a3.28 3.28 0 0 0 -0.84 0.73 2.21 2.21 0 0 0 -0.36 0.7 2.11 2.11 0 0 0 0 1.22 2.79 2.79 0 0 0 0.57 1s0.4 0.44 0.56 0.58a0.36 0.36 0 0 0 0.5 0c0.11 -0.13 0.08 -0.21 0 -0.34a10.4 10.4 0 0 1 -1 -1.43 1.53 1.53 0 0 1 0 -0.85 1.52 1.52 0 0 1 0.35 -0.57 2.32 2.32 0 0 1 0.58 -0.45 2.35 2.35 0 0 1 2.23 -0.15 2.55 2.55 0 0 1 1.41 1.76 3 3 0 0 1 0.1 0.67 3.67 3.67 0 0 1 -0.05 0.66A2.32 2.32 0 0 1 7 14.24a7.57 7.57 0 0 1 -3.46 0.67 9.45 9.45 0 0 0 -1.93 0.09 2.34 2.34 0 0 0 -0.91 0.4 1.14 1.14 0 0 0 -0.35 0.49 3.53 3.53 0 0 0 -0.18 0.88c0 0.31 -0.06 0.61 -0.08 0.92l0 2a10.15 10.15 0 0 0 0 1.75 2.92 2.92 0 0 0 0.44 1.3 1.49 1.49 0 0 0 0.82 0.62 5.44 5.44 0 0 0 1.12 0.14l3.6 0.26 2.09 0c1.61 0 3.22 -0.08 4.83 -0.08l5.54 0.07c0.67 0 1.32 0 2 -0.11a12.52 12.52 0 0 0 1.33 -0.19 4.78 4.78 0 0 0 1 -0.26 1.69 1.69 0 0 0 0.5 -0.31 1.18 1.18 0 0 0 0.28 -0.44 2.94 2.94 0 0 0 0.15 -0.86 7.92 7.92 0 0 0 0 -1.09c-0.11 -0.49 -0.19 -0.97 -0.25 -1.49Z" fill="#020202" stroke-width="1"></path>
    <path d="M7.23 17.47a7.78 7.78 0 0 0 -1.18 -0.06 11.25 11.25 0 0 0 -2 0.27 0.3 0.3 0 0 0 -0.29 0.32 0.31 0.31 0 0 0 0.33 0.29c0.5 0 1.06 0.17 1.69 0.24a5.84 5.84 0 0 0 0.73 0l0.74 0c0.6 0 1.19 -0.09 1.74 -0.15a0.35 0.35 0 0 0 0.35 -0.34 0.35 0.35 0 0 0 -0.34 -0.31c-0.57 -0.07 -1.16 -0.19 -1.77 -0.26Z" fill="#4C57E6" stroke-width="1"></path>
    <path d="M6.79 20.84a0.3 0.3 0 0 0 0.33 0.28c0.78 0 3.47 0.13 5.68 0.18l2.45 0a0.79 0.79 0 0 0 0.58 -0.31 4.37 4.37 0 0 1 1 -1.15 2.52 2.52 0 0 1 1.52 -0.41 3 3 0 0 1 1.36 0.43 2 2 0 0 1 0.87 1.06 0.35 0.35 0 1 0 0.67 -0.17 2.64 2.64 0 0 0 -1.08 -1.56 3.77 3.77 0 0 0 -1.75 -0.7 3.44 3.44 0 0 0 -2.17 0.42 4.65 4.65 0 0 0 -1.09 1.22c-0.1 0.11 -2 0 -3.23 0.07 -2 0.07 -4.22 0.22 -4.91 0.31a0.3 0.3 0 0 0 -0.23 0.33Z" fill="#020202" stroke-width="1"></path>
  </g>
</svg>