<svg xmlns="http://www.w3.org/2000/svg" viewBox="0 0 24 24" id="Crafts-Embroidery-Hoop-2--Streamline-Freehand">
  <desc>
    Crafts Embroidery Hoop 2 Streamline Icon: https://streamlinehq.com
  </desc>
  <title>crafts-embroidery-hoop-2</title>
  <g>
    <path d="M22.54 13.38a10.49 10.49 0 0 0 -5.84 -8.5 8.45 8.45 0 0 0 -1.87 -0.59c0.05 -0.31 0.1 -0.63 0.14 -1s0 -0.45 0 -0.68v-0.06l1.84 -0.14a2.57 2.57 0 0 0 0 0.48 1.67 1.67 0 0 0 0.39 1 1.49 1.49 0 0 0 0.53 0.39 2.62 2.62 0 0 0 0.78 0.19 3.1 3.1 0 0 0 0.43 0 1.51 1.51 0 0 0 0.37 -0.06 1 1 0 0 0 0.69 -0.6 3.33 3.33 0 0 0 0.2 -1.26l-0.07 -0.79 -0.13 -0.53a1.76 1.76 0 0 0 -0.15 -0.35 1.34 1.34 0 0 0 -1 -0.55 3.33 3.33 0 0 0 -1.11 0 1.13 1.13 0 0 0 -0.57 0.48 2.05 2.05 0 0 0 -0.29 0.84l-2 -0.11c-0.05 -0.43 -0.11 -0.84 -0.15 -1.21a0.3 0.3 0 0 0 -0.6 0c-0.08 0.37 -0.17 0.78 -0.25 1.21h-0.22l-2.34 0 -0.79 0.05c0 -0.48 -0.13 -0.92 -0.18 -1.28a0.31 0.31 0 0 0 -0.61 0c-0.06 0.38 -0.17 0.85 -0.25 1.36l-1.59 0.15 -0.36 0a0.38 0.38 0 0 0 -0.31 0.19 0.3 0.3 0 0 0 0.17 0.39s0 0 0.51 0l1.59 0.11a5.81 5.81 0 0 0 0 0.59c0 0.37 0.05 0.71 0.07 1a10 10 0 0 0 -3 1.06C4.11 6.63 2 9.23 1.49 13.93s2.14 7.55 5.58 9c8.75 3.69 15.93 -2.82 15.47 -9.55ZM18 1.34a0.39 0.39 0 0 1 0.15 -0.23 2 2 0 0 1 0.56 -0.11c0.21 0 0.42 0 0.52 0.05l0.08 0.36 0.05 0.43 0 0.64c0 0.13 -0.05 0.34 -0.1 0.54a1.12 1.12 0 0 1 -0.1 0.31l-0.46 -0.03a1.25 1.25 0 0 1 -0.37 -0.09 0.5 0.5 0 0 1 -0.21 -0.13 0.8 0.8 0 0 1 -0.12 -0.48 8 8 0 0 1 0 -0.81 1.71 1.71 0 0 1 0 -0.45Zm-7.4 1.89c0 -0.19 0 -0.39 0.05 -0.58l0.78 0 2.35 0h0.09l0 0.67c0 0.22 0 0.57 0.08 0.84a13.68 13.68 0 0 0 -3.52 0c0.06 -0.35 0.12 -0.63 0.16 -0.93ZM7.41 22.15c-3 -1.36 -5.35 -4 -4.82 -8.1 0.5 -4.21 2.34 -6.55 4.55 -7.77a11.27 11.27 0 0 1 9.1 -0.43 9.48 9.48 0 0 1 5.43 7.59c0.55 6.18 -5.89 12.47 -14.26 8.71Z" fill="#020202" stroke-width="1"></path>
    <path d="M15.65 7a9.54 9.54 0 0 0 -7.78 0.38C6 8.39 4.44 10.39 4.08 14a6.47 6.47 0 0 0 0.33 3 6.07 6.07 0 0 0 1.69 2.37 0.3 0.3 0 0 0 0.42 0 0.29 0.29 0 0 0 0 -0.43 5.45 5.45 0 0 1 -1.46 -2.24 6 6 0 0 1 -0.21 -2.65c0.43 -3.16 1.84 -4.91 3.52 -5.81A8.4 8.4 0 0 1 15.15 8a7 7 0 0 1 4 5.61 6.84 6.84 0 0 1 -3.15 6.2 6.06 6.06 0 0 1 -3.19 1.06 9.27 9.27 0 0 1 -3.45 -0.39 0.34 0.34 0 0 0 -0.43 0.23 0.33 0.33 0 0 0 0.22 0.43 10.09 10.09 0 0 0 3.71 0.5 7 7 0 0 0 3.66 -1.11 7.75 7.75 0 0 0 3.68 -7A8.12 8.12 0 0 0 15.65 7Z" fill="#4C57E6" stroke-width="1"></path>
  </g>
</svg>