<svg xmlns="http://www.w3.org/2000/svg" viewBox="0 0 24 24" id="Crafts-Cutting--Streamline-Freehand">
  <desc>
    Crafts Cutting Streamline Icon: https://streamlinehq.com
  </desc>
  <title>crafts-cutting</title>
  <g>
    <path d="m4.73 14.34 -0.27 0.11 -0.23 0.17s-0.7 0.68 -0.56 0.93 1 0 1.09 0a1.23 1.23 0 0 0 0.24 -0.14 1.12 1.12 0 0 0 0.22 -0.16c0.74 -0.64 0.7 -0.77 0.62 -0.92s-0.18 -0.33 -1.11 0.01Z" fill="#4C57E6" fill-rule="evenodd" stroke-width="1"></path>
    <path d="M10 18a1.17 1.17 0 0 0 0 0.32 1.55 1.55 0 0 0 0 0.31c0.21 1 0.36 1 0.56 1s0.32 -0.07 0.48 -1.06a3 3 0 0 0 0 -0.31 1.6 1.6 0 0 0 0 -0.3c-0.22 -1 -0.42 -1 -0.51 -1 -0.28 0.04 -0.53 0.97 -0.53 1.04Z" fill="#4C57E6" fill-rule="evenodd" stroke-width="1"></path>
    <path d="M23.88 10.63a2.07 2.07 0 0 0 -0.32 -0.28l-0.41 -0.68L22 7.21a8.89 8.89 0 0 0 -2 -2.34 10.58 10.58 0 0 0 -2.57 -1.62 7.83 7.83 0 0 0 -2.76 -0.48 5.84 5.84 0 0 0 -2.18 0.36c0.12 -1 0.21 -0.83 0.14 -1.11a0.6 0.6 0 0 0 -0.42 -0.43 1.68 1.68 0 0 0 -1.33 0.23A6.11 6.11 0 0 0 9.09 3.5a7.66 7.66 0 0 0 -0.51 1.17 6.47 6.47 0 0 1 -1.68 0.42 8 8 0 0 1 -1.47 0A13.37 13.37 0 0 1 3.91 5a3.1 3.1 0 0 1 -0.51 -0.11c-0.45 -0.13 -0.88 -0.32 -1.35 -0.41a0.32 0.32 0 0 0 -0.4 0.22 0.33 0.33 0 0 0 0.22 0.41c0.43 0.15 0.81 0.4 1.22 0.59a4.29 4.29 0 0 0 0.63 0.23 7.41 7.41 0 0 0 1.37 0.28 5.26 5.26 0 0 0 1.43 0 5.69 5.69 0 0 0 1.83 -0.63L8.26 6a21 21 0 0 0 -0.2 2.87 6.63 6.63 0 0 1 -2.87 0.47 15.52 15.52 0 0 1 -1.92 -0.15 13.2 13.2 0 0 1 -2.86 -0.67 0.28 0.28 0 0 0 -0.41 0.14 0.28 0.28 0 0 0 0.16 0.34A10.9 10.9 0 0 0 3 10.2a8.27 8.27 0 0 0 1.31 0.19 7.49 7.49 0 0 0 1.34 0A6.86 6.86 0 0 0 8 9.67c0 0.62 0 1.22 -0.12 1.79l-0.83 0.36a0.32 0.32 0 0 0 -0.13 0.1 7.79 7.79 0 0 0 -3.26 0.15 3.86 3.86 0 0 0 -2 1.38 3.56 3.56 0 0 0 -0.4 3.15 2.88 2.88 0 0 0 2.53 2.06 4.29 4.29 0 0 0 2.73 -0.87A8.74 8.74 0 0 0 8 16.46a20 20 0 0 0 -0.27 2.26 7.86 7.86 0 0 0 0.1 2.22 2.25 2.25 0 0 0 2.57 1.5 4.24 4.24 0 0 0 3.37 -2.58 3.74 3.74 0 0 0 -0.11 -2.33c-0.53 -1.44 -1.85 -2.64 -2 -4.15 0.47 -0.29 0.95 -0.59 1.43 -0.92a16.13 16.13 0 0 0 1.52 -1.21 12 12 0 0 0 1.69 -1.9c0.6 0.85 1 1.9 1.62 2.92a8 8 0 0 0 1.38 1.8 2.16 2.16 0 0 0 1.65 0.66 0.52 0.52 0 0 0 0.4 -0.25 0.55 0.55 0 0 0 0.09 -0.37c0 -0.1 -0.13 -0.29 -0.16 -0.41l-0.12 -0.58 -0.35 -2 0.05 0a9.61 9.61 0 0 0 1.76 0.51 1.93 1.93 0 0 0 1 -0.11A0.59 0.59 0 0 0 24 11a0.62 0.62 0 0 0 -0.12 -0.37ZM9.25 6.17A6.87 6.87 0 0 1 10 4.06a4.87 4.87 0 0 1 1 -1 3.16 3.16 0 0 1 0.52 -0.35L11.42 4q-0.15 1.32 -0.21 2.67l0 2.08c-0.26 0.23 -0.52 0.45 -0.78 0.7 -0.57 0.54 -1.09 1.14 -1.61 1.74l-0.25 0c0.26 -1.55 0.31 -3.36 0.68 -5.02ZM5.93 16.89a3.33 3.33 0 0 1 -2.06 0.66 1.83 1.83 0 0 1 -1.59 -1.31A2.58 2.58 0 0 1 2.42 14a3 3 0 0 1 1.52 -1.18 7.35 7.35 0 0 1 3.13 -0.27c0.38 0 1.77 -1.3 2.56 0 0 0.05 0.22 0.23 0.3 0.36 -0.1 0.14 -0.22 0.27 -0.33 0.4 -0.34 0.36 -0.71 0.69 -1 1.05a15 15 0 0 1 -2.67 2.53Zm6.83 0.94a2.77 2.77 0 0 1 0 1.73 3 3 0 0 1 -2 1.67c-0.81 0.28 -1.69 0.24 -2 -0.64a8.45 8.45 0 0 1 -0.2 -2.36 11.77 11.77 0 0 1 0.24 -2.48 0.41 0.41 0 0 0 0 -0.16l0.54 -0.67c0.29 -0.36 0.63 -0.7 0.94 -1.07a0.28 0.28 0 0 0 0 0.13 0.3 0.3 0 0 0 0.41 0l0.35 -0.23c0.22 1.44 1.3 2.68 1.72 4.08Zm2.37 -8.38c-0.39 0.34 -0.81 0.65 -1.22 1s-0.83 0.65 -1.23 1c-0.71 0.59 -1.37 1.2 -2 1.8a0.59 0.59 0 0 0 0 -0.44 2.85 2.85 0 0 0 -0.42 -0.7 2.5 2.5 0 0 0 -0.64 -0.68c0.6 -0.47 1.21 -0.93 1.8 -1.42 0.34 -0.28 0.65 -0.58 1 -0.88l1.26 -1.43a3.59 3.59 0 0 1 2.14 1c-0.21 0.3 -0.44 0.53 -0.69 0.75Zm6.09 0.63s-0.55 -0.25 -0.77 -0.32a0.64 0.64 0 0 0 -0.69 0.13 0.62 0.62 0 0 0 -0.15 0.39 3.72 3.72 0 0 0 0.09 0.78l0.45 2.28 0.05 0.21 -0.27 -0.21a6.73 6.73 0 0 1 -1.25 -1.53c-0.06 -0.09 -3.37 -6.37 -5 -5l-1.76 1.3c0 -0.47 0 -0.94 0.09 -1.41 0.09 -0.87 0.22 -1.74 0.37 -2.59l0 -0.32a4.71 4.71 0 0 1 2.24 -0.37 6.68 6.68 0 0 1 2.5 0.58 9.47 9.47 0 0 1 2.29 1.58 8.09 8.09 0 0 1 1.69 2.13l1.09 2.48 0.15 0.26c-0.42 -0.11 -0.85 -0.28 -1.12 -0.37Z" fill="#020202" fill-rule="evenodd" stroke-width="1"></path>
  </g>
</svg>