<svg xmlns="http://www.w3.org/2000/svg" viewBox="0 0 24 24" id="Crafts-Knitting-Hook--Streamline-Freehand">
  <desc>
    Crafts Knitting Hook Streamline Icon: https://streamlinehq.com
  </desc>
  <title>crafts-knitting-hook</title>
  <g>
    <path d="M23.45 1A2.88 2.88 0 0 0 22 0.07a2.64 2.64 0 0 0 -1.7 0.18 5.91 5.91 0 0 0 -1.67 1.18 17.45 17.45 0 0 0 -1.78 2.26l-0.7 1s-1.66 0.19 -2.79 0.42a6.31 6.31 0 0 0 -1.23 0.35 10.41 10.41 0 0 0 -1.78 1.84C9.16 8.74 7.67 10.72 7 11.69a5.49 5.49 0 0 0 -0.39 3 5.76 5.76 0 0 0 0.18 1c-0.12 0.11 -0.38 0.28 -0.7 0.55a2.91 2.91 0 0 0 -0.27 0.24 4.78 4.78 0 0 0 -0.34 0.42c-0.58 0.85 0.39 1.59 1.27 0.29a6.05 6.05 0 0 0 0.5 -1 2.71 2.71 0 0 0 1.28 0.08 15.61 15.61 0 0 0 2.93 -0.81 25.05 25.05 0 0 0 2.82 -2.88 22.2 22.2 0 0 0 2.44 -3.12A4 4 0 0 0 16.88 8c0 -1.18 -0.23 -2.84 -0.23 -2.87l0.81 -0.93a22.12 22.12 0 0 1 1.94 -1.94 6 6 0 0 1 1.39 -0.94 1.65 1.65 0 0 1 1 -0.15 1.84 1.84 0 0 1 0.93 0.47 1.2 1.2 0 0 1 0.27 1 3 3 0 0 1 -0.51 1.25 0.34 0.34 0 0 0 0.05 0.49 0.35 0.35 0 0 0 0.49 0 3.75 3.75 0 0 0 0.86 -1.89A2 2 0 0 0 23.45 1Zm-7.73 8A17.08 17.08 0 0 1 14 11.31c-1 1.22 -2.09 2.52 -2.65 3.1l-0.23 0.23a15.36 15.36 0 0 1 -2.3 0.78c-1.63 0.38 -1.61 0.09 -1.52 -1.16a9.67 9.67 0 0 1 0.36 -2.12c0.58 -0.8 1.83 -2.3 3 -3.57a15.71 15.71 0 0 1 2 -2.08A8.13 8.13 0 0 1 14 6.2l1.61 -0.26c0 0.46 0.11 1.11 0.14 1.71A5.14 5.14 0 0 1 15.72 9Z" fill="#020202" stroke-width="1"></path>
    <path d="M3.38 17.44a4.68 4.68 0 0 0 -2.6 1.92 3.31 3.31 0 0 0 -0.4 3.26A2.15 2.15 0 0 0 2.45 24c2.36 -0.05 3.71 -2.8 3.92 -3.56a2.61 2.61 0 0 0 0 -1.54c-0.6 -1.9 -2.84 -1.49 -2.99 -1.46Zm2.17 3.1a3.56 3.56 0 0 1 -2.67 2.53 1.29 1.29 0 0 1 -1.53 -0.87 2.31 2.31 0 0 1 0.4 -2.2 3.65 3.65 0 0 1 1.91 -1.47 1.79 1.79 0 0 1 1.07 0 1.26 1.26 0 0 1 0.79 0.62 1.94 1.94 0 0 1 0.03 1.39Z" fill="#4C57E6" stroke-width="1"></path>
  </g>
</svg>