<svg xmlns="http://www.w3.org/2000/svg" viewBox="0 0 24 24" id="Crafts-Bottle-Art-Plant--Streamline-Freehand">
  <desc>
    Crafts Bottle Art Plant Streamline Icon: https://streamlinehq.com
  </desc>
  <title>crafts-bottle-art-plant</title>
  <g>
    <path d="M15.35 19.82c0.07 0.16 0.14 0.32 0.22 0.47l0.34 0.62c-1.7 0.07 -3.4 0.16 -5.11 0.27l-2.67 0.17c-0.89 0.06 -1.77 0.13 -2.65 0.16l-1.18 0s0.06 0 0.07 -0.08c0.19 -0.34 0.38 -0.66 0.55 -1A3.38 3.38 0 0 0 5.1 20c0.41 -1.32 -0.83 -1.38 -1.06 -0.36 0 0.16 -0.08 0.32 -0.12 0.48 -0.07 0.37 -0.11 0.74 -0.17 1.12a0.32 0.32 0 0 0 0.07 0.31c-0.56 0 -1.12 0 -1.67 -0.05a0.29 0.29 0 1 0 0 0.58 39.84 39.84 0 0 0 6.76 0.33c1.34 0 2.69 -0.16 4 -0.3 2 -0.2 4 -0.48 6 -0.65a0.33 0.33 0 0 0 0.31 -0.35 0.32 0.32 0 0 0 -0.34 -0.31l-2.11 0.08c-0.06 -0.32 -0.13 -0.63 -0.2 -0.95 -0.44 -2.01 -1.77 -1.32 -1.22 -0.11Z" fill="#4C57E6" fill-rule="evenodd" stroke-width="1"></path>
    <path d="M24 11.3c0 -0.49 -0.05 -1 -0.1 -1.42s-0.11 -1 -0.18 -1.42a0.9 0.9 0 0 0 -0.47 -0.67 2.77 2.77 0 0 0 -1.07 -0.23 1.84 1.84 0 0 1 -0.73 -0.11 1.11 1.11 0 0 1 -0.37 -0.4c-0.53 -0.86 -0.94 -2.28 -1.5 -2.74a4.23 4.23 0 0 0 -1.46 -0.78 7.2 7.2 0 0 0 -2.37 -0.27 0.32 0.32 0 0 0 -0.32 0.33 0.33 0.33 0 0 0 0.33 0.33 6.67 6.67 0 0 1 1.8 0.18 3.83 3.83 0 0 1 1.55 0.77c0.51 0.44 0.82 1.79 1.29 2.59a1.92 1.92 0 0 0 0.64 0.7 5.34 5.34 0 0 0 1.49 0.28c0.15 0 0.31 0 0.33 0.15 0.06 0.45 0.11 0.9 0.15 1.36s0.05 0.91 0.06 1.37c0 0.13 -0.16 0.62 -0.08 0.81a17.83 17.83 0 0 0 -1.79 0.43 1.93 1.93 0 0 0 -0.92 0.73 24.49 24.49 0 0 1 -1.89 3 2.91 2.91 0 0 1 -1.73 1c-0.72 0.12 -1.45 0.19 -2.18 0.25 -1.12 0.08 -2.25 0.11 -3.35 0.18s-2 0.17 -3 0.23c-0.65 0 -1.29 0.05 -1.94 0a17.83 17.83 0 0 1 -2.48 -0.22 4.27 4.27 0 0 1 -1.42 -0.54 2.09 2.09 0 0 1 -0.76 -1.29 24.78 24.78 0 0 1 -0.35 -2.74C1 12.08 0.88 11 0.79 10a16.48 16.48 0 0 1 -0.05 -2.15A4.41 4.41 0 0 1 1 6.47a1.87 1.87 0 0 1 0.45 -0.72 2.26 2.26 0 0 1 0.72 -0.39c0.47 -0.15 1 -0.24 1.38 -0.37a0.29 0.29 0 1 0 -0.16 -0.55c-0.48 0.13 -1.12 0.22 -1.65 0.42a2.44 2.44 0 0 0 -0.74 0.42 2.42 2.42 0 0 0 -0.64 1A5.37 5.37 0 0 0 0 7.82 17.78 17.78 0 0 0 0 10c0.06 1.08 0.19 2.16 0.31 3.23a15.47 15.47 0 0 0 0.46 3.37 2.64 2.64 0 0 0 1 1.38 3.71 3.71 0 0 0 1.75 0.72c1.35 0.13 1.6 0.21 2.64 0.3a15.59 15.59 0 0 0 2.05 0c1 0 2 -0.15 3 -0.21s2.24 -0.1 3.36 -0.19c0.16 0 2 -0.21 2.29 -0.27A3.94 3.94 0 0 0 19.18 17a25 25 0 0 0 1.93 -3.13 1 1 0 0 1 0.46 -0.37c0.64 -0.28 1.47 -0.29 2 -0.56a0.74 0.74 0 0 0 0.37 -0.54 4.91 4.91 0 0 0 0.06 -1.1Z" fill="#020202" fill-rule="evenodd" stroke-width="1"></path>
    <path d="M5.36 11.4a2.76 2.76 0 0 0 1.94 1.9 4 4 0 0 0 2.27 -0.14 5.36 5.36 0 0 0 1.54 2.11 0.33 0.33 0 0 0 0.46 0 0.32 0.32 0 0 0 0 -0.47 4.68 4.68 0 0 1 -0.9 -1.61 3.71 3.71 0 0 0 0.47 0.16 4.09 4.09 0 0 0 0.88 0.1 3.37 3.37 0 0 0 2.53 -1.18 3.44 3.44 0 0 0 0.75 -2.71 5.17 5.17 0 0 0 -0.66 -2C13.92 6.34 12.77 5.4 12 4.05a3.77 3.77 0 0 1 -0.28 -0.57 2.78 2.78 0 0 1 -0.17 -0.56l0 -0.68a1.25 1.25 0 0 0 -0.09 -0.37 0.66 0.66 0 0 0 -0.85 -0.21l-0.54 0.34A12.75 12.75 0 0 0 9 2.85c-0.34 0.3 -0.67 0.61 -1 0.94a11.84 11.84 0 0 0 -2.26 3.06 6.37 6.37 0 0 0 -0.66 2.53 5.81 5.81 0 0 0 0 1 5.39 5.39 0 0 0 0.28 1.02Zm1.25 -4.11a11.65 11.65 0 0 1 2.17 -2.73q0.45 -0.45 0.93 -0.87c0.24 -0.21 0.5 -0.41 0.75 -0.6a4.22 4.22 0 0 0 0.23 0.79 7.86 7.86 0 0 0 0.36 0.71c0.8 1.32 2 2.24 2.73 3.48a4.47 4.47 0 0 1 0.61 1.59 2.6 2.6 0 0 1 -0.49 2.06 2.56 2.56 0 0 1 -1.92 1 2.66 2.66 0 0 1 -0.7 -0.05 8.06 8.06 0 0 1 -0.87 -0.29l0 -0.12a16 16 0 0 1 -0.25 -1.71c-0.1 -0.92 -0.17 -1.83 -0.2 -2.71a0.29 0.29 0 0 0 -0.58 0 18.32 18.32 0 0 0 -0.29 2.81 7.3 7.3 0 0 0 0.27 1.92l0 0.09a3.26 3.26 0 0 1 -1.88 0 2.07 2.07 0 0 1 -1.38 -1.48 5 5 0 0 1 -0.1 -0.87 4.31 4.31 0 0 1 0 -0.88 5.62 5.62 0 0 1 0.61 -2.14Z" fill="#020202" fill-rule="evenodd" stroke-width="1"></path>
  </g>
</svg>