<svg xmlns="http://www.w3.org/2000/svg" viewBox="0 0 24 24" id="Creativity-Laptop-Idea--Streamline-Freehand">
  <desc>
    Creativity Laptop Idea Streamline Icon: https://streamlinehq.com
  </desc>
  <g>
    <path d="M3.24 15.42c0.06 -1.27 0.15 -2.54 0.24 -3.8l0 -1.93 0 -0.25 0.27 0 1.84 -0.2 4.73 -0.35a0.33 0.33 0 0 0 0 -0.65l-4.78 0 -1.8 0.09 -0.58 0a0.62 0.62 0 0 0 -0.57 0.33 2.79 2.79 0 0 0 -0.21 1c-0.05 0.69 0 1.51 0 2 0 1.27 0 2.55 0.06 3.83 0 0.71 0.09 1.08 0.1 1.28s0.68 0.47 0.63 -0.21 0.05 -0.47 0.07 -1.14Z" fill="#4C57E6" fill-rule="evenodd" stroke-width="1"></path>
    <path d="M20.94 20.9c-0.12 -0.83 -1.23 -1.81 -1.78 -2.19l-0.41 -0.28a6.41 6.41 0 0 0 -0.75 -0.68 0.63 0.63 0 0 0 -0.36 -0.1l-2.05 0c-1.06 -0.05 -2.11 -0.16 -3.17 -0.23q-1.06 -0.06 -2.13 -0.09c-0.86 0 -1.71 0 -2.55 0.1 -1.27 0.09 -2.52 0.25 -3.79 0.41a0.29 0.29 0 0 0 -0.27 0.3 0.29 0.29 0 0 0 0.31 0.27l3.15 0c1.05 0 2.08 0 3.13 0.06 0.75 0 1.5 0.05 2.26 0.06s1.52 0 2.29 0 1.8 -0.06 2.69 -0.15l0.65 0.52 0.59 0.45a6.59 6.59 0 0 1 0.88 0.81L16 19.9l-3.58 0c-1.78 0 -3.55 0.11 -5.33 0.1 -1.47 0.05 -3 0.25 -4.44 0.3a14.73 14.73 0 0 1 -1.63 0 4.78 4.78 0 0 1 0.72 -1.09l0.6 -0.53c0.65 -0.43 1.17 -0.63 1 -1a0.38 0.38 0 0 0 -0.14 -0.11c-0.35 -0.09 -1.22 0.58 -1.22 0.58l-0.7 0.57a4.85 4.85 0 0 0 -1.22 2 1.5 1.5 0 0 0 0.55 1.73 2.35 2.35 0 0 0 1 0.37 8.73 8.73 0 0 0 1.35 0.07l2.83 0.11c2.51 0 5 0.14 7.5 0.15 1.09 0 2.17 0 3.25 -0.11q0.45 0 0.9 -0.09c0.3 0 0.6 -0.09 0.89 -0.15l1.12 -0.29 0.75 -0.31a1.18 1.18 0 0 0 0.74 -1.3Zm-1.12 0.55 -0.62 0.23 -1 0.23 -1.68 0.16 -2.12 0c-2.87 0 -5.72 -0.18 -8.59 -0.15h-2.9a8 8 0 0 1 -1.2 0 1.47 1.47 0 0 1 -0.64 -0.21 0.75 0.75 0 0 1 -0.27 -0.87 0.14 0.14 0 0 0 0 -0.07 16.12 16.12 0 0 0 1.86 0.23c1.48 0.05 3 0 4.43 0l3.58 0c1.79 0 3.56 -0.16 5.34 -0.22h4l0.06 0a0.48 0.48 0 0 1 -0.25 0.67Z" fill="#020202" fill-rule="evenodd" stroke-width="1"></path>
    <path d="M19 16.67q0.06 -0.44 0.09 -0.84l0 -0.84c0 -1.2 -0.07 -2 -0.07 -2a0.29 0.29 0 1 0 -0.57 -0.05 17.28 17.28 0 0 0 -0.4 2q-0.06 0.39 -0.09 0.84a7.91 7.91 0 0 0 0 0.85 4 4 0 0 0 0 0.49c0 0.4 0.67 0.67 1 -0.05 0.04 -0.48 0.04 0.03 0.04 -0.4Z" fill="#4C57E6" fill-rule="evenodd" stroke-width="1"></path>
    <path d="M12.18 7.63a2.36 2.36 0 0 0 0.09 1c0.19 0.53 0.64 0.8 0.8 1.2a0.6 0.6 0 0 1 0 0.4 0.27 0.27 0 0 0 0.17 0.36l0.15 0.06a8.86 8.86 0 0 0 1.14 0.69 4.81 4.81 0 0 0 0.53 0.2 5.41 5.41 0 0 0 0.55 0.12c0.41 0.07 0.82 0.1 1.23 0.13 -0.1 0.23 -0.19 0.5 -0.29 0.75 -0.23 0.56 -0.93 0.48 -1.37 0.36a5.65 5.65 0 0 1 -1.77 -0.88c0.14 -0.17 0.11 -0.8 0.15 -1a0.31 0.31 0 0 0 -0.25 -0.38 0.33 0.33 0 0 0 -0.39 0.24c-0.05 0.22 -0.25 0.82 -0.29 1.08a0.47 0.47 0 0 0 0.14 0.43A6.67 6.67 0 0 0 15 13.7a2.51 2.51 0 0 0 1.87 -0.08 1.23 1.23 0 0 0 0.42 -0.47c0.13 -0.24 0.25 -0.57 0.38 -0.85 0 -0.11 0.19 -0.21 0.16 -0.27l1.27 -0.51a3.08 3.08 0 0 0 1.49 -2.07A4.86 4.86 0 0 0 20.41 7a4.3 4.3 0 0 0 -8 -0.3 3.19 3.19 0 0 0 -0.23 0.93Zm0.71 0.11a2.51 2.51 0 0 1 0.24 -0.74 3.4 3.4 0 0 1 3.3 -1.85 3.18 3.18 0 0 1 2.94 2.17 3.77 3.77 0 0 1 0.14 1.89 2.13 2.13 0 0 1 -1 1.44l-1.24 0.54 -0.11 0.09a0.27 0.27 0 0 0 -0.15 -0.1l-1.17 -0.49 -0.51 -0.18 -0.51 -0.14c-0.41 -0.09 -0.8 -0.13 -1.21 -0.22a1.07 1.07 0 0 0 0 -0.51c-0.13 -0.4 -0.56 -0.68 -0.72 -1.2a1.55 1.55 0 0 1 0 -0.7Z" fill="#020202" fill-rule="evenodd" stroke-width="1"></path>
    <path d="M15.66 15a7.87 7.87 0 0 1 -1.1 -0.41l-0.7 -0.28c-0.42 -0.14 -0.83 -0.22 -1.29 -0.38a0.28 0.28 0 0 0 -0.39 0.09 0.29 0.29 0 0 0 0.1 0.4 7.78 7.78 0 0 0 1 0.79 2.3 2.3 0 0 0 0.5 0.24 3.18 3.18 0 0 0 0.53 0.14 6 6 0 0 0 1.29 0.06 0.33 0.33 0 1 0 0.07 -0.65Z" fill="#020202" fill-rule="evenodd" stroke-width="1"></path>
    <path d="M11.53 3.8c0.05 0.09 0.09 0.18 0.15 0.27l0.18 0.24c0.18 0.19 0.37 0.31 0.53 0.51a0.29 0.29 0 1 0 0.53 -0.21 3.38 3.38 0 0 0 -0.16 -0.84 1.34 1.34 0 0 0 -0.17 -0.31 1.38 1.38 0 0 0 -0.22 -0.26 7.28 7.28 0 0 0 -0.62 -0.51 0.33 0.33 0 0 0 -0.52 0.4c0.11 0.24 0.19 0.47 0.3 0.71Z" fill="#4C57E6" fill-rule="evenodd" stroke-width="1"></path>
    <path d="M15.36 2.67c0.09 0.26 0.21 0.47 0.31 0.73a0.29 0.29 0 0 0 0.31 0.27 0.28 0.28 0 0 0 0.26 -0.31 4.83 4.83 0 0 0 0.16 -0.81 1.9 1.9 0 0 0 0 -0.34 2.66 2.66 0 0 0 -0.08 -0.33c-0.08 -0.27 -0.19 -0.49 -0.29 -0.75a0.33 0.33 0 1 0 -0.65 0.09c0 0.27 -0.07 0.52 -0.08 0.79l0 0.33a1.91 1.91 0 0 0 0.06 0.33Z" fill="#4C57E6" fill-rule="evenodd" stroke-width="1"></path>
    <path d="M19.29 4.75a0.28 0.28 0 0 0 0.37 -0.16 3.67 3.67 0 0 0 0.49 -0.54 1.58 1.58 0 0 0 0.14 -0.36 4.9 4.9 0 0 1 0.13 -0.55 0.33 0.33 0 1 0 -0.5 -0.42 2.42 2.42 0 0 0 -0.54 0.48 1.28 1.28 0 0 0 -0.15 0.25 0.72 0.72 0 0 0 -0.09 0.27 3.66 3.66 0 0 0 0 0.66 0.28 0.28 0 0 0 0.15 0.37Z" fill="#4C57E6" fill-rule="evenodd" stroke-width="1"></path>
    <path d="M23.74 7.63A8.15 8.15 0 0 0 23 7.3a2.25 2.25 0 0 0 -0.35 -0.09 1.45 1.45 0 0 0 -0.36 0 3.16 3.16 0 0 0 -0.84 0.22 0.29 0.29 0 1 0 0 0.57c0.26 0.06 0.47 0.18 0.72 0.25l0.31 0.06h0.32l0.79 0A0.32 0.32 0 0 0 24 8a0.32 0.32 0 0 0 -0.26 -0.37Z" fill="#4C57E6" fill-rule="evenodd" stroke-width="1"></path>
  </g>
</svg>