<svg xmlns="http://www.w3.org/2000/svg" viewBox="0 0 24 24" id="Crime-Tool-Lockpicking-Set-1--Streamline-Freehand">
  <desc>
    Crime Tool Lockpicking Set 1 Streamline Icon: https://streamlinehq.com
  </desc>
  <title>crime-tool-lockpicking-set-1</title>
  <g>
    <path d="M4 1a0.29 0.29 0 0 1 0.16 -0.1 0.33 0.33 0 0 1 0.16 -0.05l2 0.05a0.35 0.35 0 0 0 0.34 -0.3 0.35 0.35 0 0 0 -0.3 -0.38L4.34 0a1.24 1.24 0 0 0 -0.51 0.08 1.3 1.3 0 0 0 -0.43 0.27 1.39 1.39 0 0 0 -0.31 0.42 1.31 1.31 0 0 0 -0.09 0.52c0 0.82 -0.07 1.65 -0.07 2.48l0 2.48c0.07 1.56 0.21 3.11 0.32 4.67l-0.16 0a2.72 2.72 0 0 0 -1.72 1.44 6.14 6.14 0 0 0 -0.48 1.54 20 20 0 0 0 -0.19 2.29c0 1 -0.1 1.94 -0.08 2.91a14.81 14.81 0 0 0 0.15 2 4.66 4.66 0 0 0 0.4 1.35 2.65 2.65 0 0 0 0.62 0.82 2.84 2.84 0 0 0 2.44 0.73 2.67 2.67 0 0 0 1.93 -1.56 4.36 4.36 0 0 0 0.33 -1.3 14.59 14.59 0 0 0 0 -1.86c0 -0.89 0 -1.79 -0.09 -2.69a11.83 11.83 0 0 0 -0.65 -4.11 3.08 3.08 0 0 0 -0.53 -0.89 2.07 2.07 0 0 0 -1.36 -0.65c0 -1.56 0.13 -3.1 0.16 -4.66l0 -0.89 0.29 0.07 0.36 0a2.11 2.11 0 0 0 0.35 -0.05c1.13 -0.26 1.1 -0.49 1.09 -0.6s0 -0.32 -1.14 -0.49a1.29 1.29 0 0 0 -0.34 0 1.86 1.86 0 0 0 -0.34 0l-0.27 0.07 0 -0.64C4 2.93 4 2.11 4 1.28a0.76 0.76 0 0 1 0 -0.15A0.35 0.35 0 0 1 4 1Zm1.29 11.9c0.27 0.62 0.32 0.61 0.38 3.67l0 2.65A13 13 0 0 1 5.54 21a3.39 3.39 0 0 1 -0.29 1 1.64 1.64 0 0 1 -1.25 0.88 1.72 1.72 0 0 1 -1.85 -1.08 3.4 3.4 0 0 1 -0.22 -0.86 14.26 14.26 0 0 1 -0.15 -1.84l0 -2.86a17.64 17.64 0 0 1 0.08 -2.17 4.82 4.82 0 0 1 0.33 -1.32 1.85 1.85 0 0 1 1.12 -1 1.41 1.41 0 0 1 1.46 0.25 2.75 2.75 0 0 1 0.52 0.9Z" fill="#020202" fill-rule="evenodd" stroke-width="1"></path>
    <path d="M23.33 5c-0.22 -0.44 -0.45 -0.88 -0.69 -1.31 -0.35 -0.65 -0.71 -1.29 -1.09 -1.93a0.29 0.29 0 0 0 -0.4 -0.13A0.31 0.31 0 0 0 21 2c0.26 0.55 0.52 1.1 0.75 1.66 0.15 0.33 0.29 0.67 0.42 1l-2.37 0a0.59 0.59 0 0 0 -0.48 0.29 0.54 0.54 0 0 0 0 0.55L20 6.85c-0.37 0.62 -0.75 1.26 -1.11 1.91 -0.48 0.85 -1 1.71 -1.41 2.57 -0.1 0.43 0.13 0.56 0.61 0.45l3 -4.59a0.56 0.56 0 0 0 0.05 -0.52c-0.12 -0.29 -0.24 -0.58 -0.37 -0.87l2.17 -0.1a0.49 0.49 0 0 0 0.38 -0.22 0.48 0.48 0 0 0 0.01 -0.48Z" fill="#020202" fill-rule="evenodd" stroke-width="1"></path>
    <path d="M16.91 11.58a2.73 2.73 0 0 0 -2.21 0.42 5.84 5.84 0 0 0 -1.18 1.1 17.77 17.77 0 0 0 -1.32 1.88c-0.52 0.83 -1 1.64 -1.52 2.49a13.59 13.59 0 0 0 -0.87 1.8 4.43 4.43 0 0 0 -0.32 1.37 2.72 2.72 0 0 0 0.12 1 2.83 2.83 0 0 0 1.76 1.78 2.66 2.66 0 0 0 2.46 -0.42 4.47 4.47 0 0 0 0.93 -1 14 14 0 0 0 1 -1.58c0.44 -0.78 0.87 -1.58 1.27 -2.38a12.07 12.07 0 0 0 1.5 -3.88 2.36 2.36 0 0 0 0 -1c-0.53 -1.16 -1.11 -1.44 -1.62 -1.58Zm0.91 2.78c-0.09 0.68 0 0.69 -1.51 3.37 -0.43 0.78 -0.87 1.54 -1.34 2.29a13.08 13.08 0 0 1 -1 1.45 3.4 3.4 0 0 1 -0.75 0.72 1.64 1.64 0 0 1 -1.52 0.19 1.74 1.74 0 0 1 -1 -1.12 1.62 1.62 0 0 1 0 -0.76 3.94 3.94 0 0 1 0.23 -0.85 14.23 14.23 0 0 1 0.8 -1.67c0.45 -0.84 1 -1.65 1.44 -2.47a20.14 20.14 0 0 1 1.16 -1.84 5.09 5.09 0 0 1 0.94 -1 1.86 1.86 0 0 1 1.5 -0.34 1.39 1.39 0 0 1 1.07 1 2.7 2.7 0 0 1 -0.02 1.03Z" fill="#4C57E6" fill-rule="evenodd" stroke-width="1"></path>
  </g>
</svg>