<svg xmlns="http://www.w3.org/2000/svg" viewBox="0 0 24 24" id="Crime-Taser--Streamline-Freehand">
  <desc>
    Crime Taser Streamline Icon: https://streamlinehq.com
  </desc>
  <title>crime-taser</title>
  <g>
    <path d="M3.76 4.62A1.54 1.54 0 0 0 4 4.14a0.31 0.31 0 0 0 0 0.09l1 1.31a0.34 0.34 0 0 0 0.45 0.11 0.32 0.32 0 0 0 0.11 -0.44l-0.74 -1.54a2.08 2.08 0 0 0 -0.56 -0.62 0.67 0.67 0 0 0 -0.6 0 0.9 0.9 0 0 0 -0.4 0.38 0.42 0.42 0 0 0 -0.06 0.18C3 3.4 2.82 3.19 2.61 3a4.57 4.57 0 0 0 -0.55 -0.45 0.28 0.28 0 0 0 -0.4 0.05 0.27 0.27 0 0 0 0.05 0.4 5.64 5.64 0 0 1 0.36 0.47c0.19 0.29 0.37 0.61 0.49 0.82a2.92 2.92 0 0 0 0.25 0.38 0.5 0.5 0 0 0 0.33 0.16 0.73 0.73 0 0 0 0.62 -0.21Z" fill="#4C57E6" fill-rule="evenodd" stroke-width="1"></path>
    <path d="M6.6 2.51a1 1 0 0 0 0.45 0l0.17 0v0.14a3.08 3.08 0 0 1 0.08 0.73 5.44 5.44 0 0 1 -0.09 0.8 0.32 0.32 0 0 0 0.62 0.17 8.13 8.13 0 0 0 0.32 -1 3.87 3.87 0 0 0 0.08 -0.77 2.35 2.35 0 0 0 -0.08 -0.59 0.8 0.8 0 0 0 -0.31 -0.44 0.66 0.66 0 0 0 -0.35 -0.11 2 2 0 0 0 -0.36 0.1L6.6 0.2a0.29 0.29 0 0 0 -0.36 -0.2 0.28 0.28 0 0 0 -0.18 0.36c0.22 1.74 -0.06 1.9 0.54 2.15Z" fill="#4C57E6" fill-rule="evenodd" stroke-width="1"></path>
    <path d="M21.7 15.14a10.24 10.24 0 0 0 -0.95 -2.22 6.78 6.78 0 0 0 -1.38 -1.71 6.25 6.25 0 0 0 -2.95 -1.44 5.82 5.82 0 0 0 -1.29 -0.13 3.48 3.48 0 0 0 -1 0.15 1.84 1.84 0 0 0 0.4 -0.86 5.53 5.53 0 0 0 -0.16 -2.18 7.89 7.89 0 0 0 -0.82 -2 4.53 4.53 0 0 0 -0.95 -1.32 1.61 1.61 0 0 0 -1.31 -0.33l-0.8 0.2c-0.16 0.06 -0.42 0.13 -0.63 0.22a1.34 1.34 0 0 0 -0.37 0.26 0.85 0.85 0 0 0 -0.23 0.66 3 3 0 0 0 0.23 0.78 2.33 2.33 0 0 0 0.14 0.33A10.53 10.53 0 0 0 8.49 6q-0.32 0.13 -0.63 0.3c-0.2 0.11 -0.39 0.23 -0.58 0.36 -0.45 0.31 -0.84 0.66 -1.28 1a0.31 0.31 0 0 0 -0.07 0.09 1.27 1.27 0 0 0 -0.26 -0.33 0.94 0.94 0 0 0 -1.13 0l-0.38 0.24c-1.34 1 -1.4 0.69 -1.33 1a5.2 5.2 0 0 0 0.3 1 11.08 11.08 0 0 0 0.7 1.31l1 2a5.72 5.72 0 0 0 0.35 0.6 1.37 1.37 0 0 0 0.32 0.28 1.13 1.13 0 0 0 0.58 0.14 3 3 0 0 0 0.78 -0.15s0.15 0.75 0.18 0.83a1.12 1.12 0 0 0 0.11 0.25 1.77 1.77 0 0 0 0.16 0.22c0.15 0.17 0.3 0.3 0.46 0.46l-0.06 0a1.91 1.91 0 0 0 -0.56 0.72 1.07 1.07 0 0 0 -0.07 0.55 3.67 3.67 0 0 0 0.19 0.76l0.8 2.37a13.36 13.36 0 0 0 0.47 1.52A11.84 11.84 0 0 0 9.21 23a4.85 4.85 0 0 0 0.45 0.7 0.83 0.83 0 0 0 0.55 0.3 1.25 1.25 0 0 0 0.56 -0.14 6.15 6.15 0 0 0 0.84 -0.53c0.37 -0.26 0.77 -0.51 1.17 -0.74s0.81 -0.45 1.22 -0.65a0.28 0.28 0 0 0 -0.23 -0.52c-0.44 0.19 -0.87 0.4 -1.3 0.61s-0.84 0.46 -1.25 0.7a6.81 6.81 0 0 1 -0.66 0.39s-0.21 0.28 -0.6 -0.51a8.86 8.86 0 0 1 -0.54 -1.37A11.73 11.73 0 0 1 9 19.8a7.55 7.55 0 0 0 -0.15 -0.8c-0.16 -0.58 -0.36 -1.15 -0.52 -1.74 -0.22 -0.75 0 -0.8 0.24 -1a9.56 9.56 0 0 1 1.11 -0.6c0.65 -0.37 1.3 -0.74 1.94 -1.14s1.26 -0.81 1.87 -1.24l1.21 -0.83 0.06 0c0.17 0.2 0.4 0.48 0.64 0.79 0.8 1 1.79 2.38 2.06 2.73a0.32 0.32 0 0 0 0.45 0.06 0.31 0.31 0 0 0 0.06 -0.44c-0.25 -0.37 -1.19 -1.77 -1.94 -2.82a10.32 10.32 0 0 0 -1 -1.21 0.46 0.46 0 0 0 -0.55 0l-0.21 0.15a4 4 0 0 0 -0.14 -0.57 1.51 1.51 0 0 0 -0.13 -0.29 2.14 2.14 0 0 0 -0.19 -0.26c0 -0.07 0 -0.07 0.17 -0.14a3.23 3.23 0 0 1 1.1 -0.12 4.68 4.68 0 0 1 1.11 0.23A5.63 5.63 0 0 1 18.66 12a7.42 7.42 0 0 1 1.16 1.5 11.53 11.53 0 0 1 0.91 2 21.44 21.44 0 0 1 1 5.17 0.32 0.32 0 0 0 0.34 0.3 0.32 0.32 0 0 0 0.3 -0.34 20.68 20.68 0 0 0 -0.67 -5.49Zm-15.42 -7c0.58 -0.22 1.15 -0.41 1.71 -0.68 0.33 -0.16 0.63 -0.35 0.94 -0.54s0.73 -0.47 1.1 -0.69c0.12 0.22 0.24 0.44 0.34 0.66a1.46 1.46 0 0 1 0.15 0.52s-0.21 0.26 -0.28 0.33a3.64 3.64 0 0 1 -0.61 0.49c-0.37 0.25 -0.77 0.45 -1.14 0.65l-1.36 0.88s-0.08 0.08 -0.14 0.12a0.77 0.77 0 0 1 -0.16 -0.19c-0.12 -0.18 -0.21 -0.38 -0.28 -0.5a7.78 7.78 0 0 1 -0.44 -1 0.25 0.25 0 0 0 0.17 -0.04Zm0.61 4.75a4.09 4.09 0 0 1 -0.59 0.19 0.64 0.64 0 0 1 -0.41 0 0.62 0.62 0 0 1 -0.14 -0.08c-0.11 -0.15 -0.2 -0.34 -0.28 -0.45l-1.09 -1.99a9.24 9.24 0 0 1 -0.7 -1.21c-0.38 -0.81 -0.19 -0.45 0 -0.62l0.84 -0.58 0.31 -0.15c0.25 -0.11 0.39 -0.06 0.48 0.1 0.23 0.38 0.32 1 0.58 1.48a4.18 4.18 0 0 0 0.48 0.81 1 1 0 0 0 0.51 0.31 0.55 0.55 0 0 0 0.3 0 2.89 2.89 0 0 0 0.33 -0.18l1.38 -0.83A12.9 12.9 0 0 0 10.1 9a4.28 4.28 0 0 0 0.79 -0.59 3.12 3.12 0 0 0 0.43 -0.49 0.89 0.89 0 0 0 0.15 -0.47 2.42 2.42 0 0 0 -0.22 -0.92c-0.22 -0.54 -0.6 -1.1 -0.75 -1.58 0 -0.08 0 -0.32 -0.07 -0.45l0.46 -0.16 0.6 -0.14a0.66 0.66 0 0 1 0.6 0.23 5.25 5.25 0 0 1 0.57 0.91A7.13 7.13 0 0 1 13.38 7a4.54 4.54 0 0 1 0.14 1.76 0.9 0.9 0 0 1 -0.37 0.55 11 11 0 0 1 -1.32 0.84l-1.37 1a14.51 14.51 0 0 1 -1.72 1 12.85 12.85 0 0 1 -1.85 0.75Zm6.81 -0.84 -0.74 0.46 -1.49 0.92c-0.76 0.44 -1.53 0.87 -2.31 1.28l-0.8 0.42c0 -0.2 -0.07 -0.39 -0.13 -0.59a1.19 1.19 0 0 0 -0.11 -0.26 1 1 0 0 0 -0.12 -0.23 3.26 3.26 0 0 0 -0.55 -0.43A15.86 15.86 0 0 0 9.12 13 15.74 15.74 0 0 0 11 12l1.4 -0.92 0.5 -0.29a2.42 2.42 0 0 0 0.1 0.36 1.34 1.34 0 0 0 0.13 0.27 1.3 1.3 0 0 0 0.18 0.23c0.11 0.12 0.26 0.26 0.39 0.41Z" fill="#020202" fill-rule="evenodd" stroke-width="1"></path>
    <path d="M18.16 22.91a2.45 2.45 0 0 1 -0.85 -0.15 2.25 2.25 0 0 1 -0.72 -0.44 6.41 6.41 0 0 1 -1.17 -1.7 3.31 3.31 0 0 0 -0.74 -0.77c-0.66 -0.48 -1.36 -0.75 -2 -1.2a3 3 0 0 1 -0.9 -1 0.69 0.69 0 0 1 0.1 -0.77 1.81 1.81 0 0 1 0.88 -0.65 6 6 0 0 1 1.73 0.38c1.22 0.36 2.58 0.84 2.87 1a0.28 0.28 0 0 0 0.38 -0.12 0.27 0.27 0 0 0 -0.12 -0.38 32.85 32.85 0 0 0 -3.36 -1.41 4.45 4.45 0 0 0 -1.76 -0.38 2.74 2.74 0 0 0 -1.68 1.29 1.64 1.64 0 0 0 0 1.63 3.94 3.94 0 0 0 1.21 1.28c0.65 0.44 1.38 0.66 2 1.11a2.5 2.5 0 0 1 0.58 0.52 7.3 7.3 0 0 0 1.4 1.75 3.11 3.11 0 0 0 1 0.51 2.9 2.9 0 0 0 1.1 0.13 0.32 0.32 0 0 0 0.31 -0.33 0.32 0.32 0 0 0 -0.26 -0.3Z" fill="#020202" fill-rule="evenodd" stroke-width="1"></path>
  </g>
</svg>