<svg xmlns="http://www.w3.org/2000/svg" viewBox="0 0 24 24" id="Crime-Tool-Face-Mask-Whole-1--Streamline-Freehand">
  <desc>
    Crime Tool Face Mask Whole 1 Streamline Icon: https://streamlinehq.com
  </desc>
  <title>crime-tool-face-mask-whole-1</title>
  <g>
    <path d="M13.75 12.44c-0.67 0.05 -1.45 0.19 -1.94 0.18a15.85 15.85 0 0 0 -2.07 -0.08 2.76 2.76 0 0 0 -1 0.3 2.08 2.08 0 0 0 -1.17 2 3.3 3.3 0 0 0 2 2.63 6.89 6.89 0 0 0 3.17 0.42 4.37 4.37 0 0 0 2.91 -1.47 3.08 3.08 0 0 0 0.69 -2.87c-0.55 -1.35 -2.55 -1.11 -2.59 -1.11ZM15 15.86a3.47 3.47 0 0 1 -2.34 1 6.22 6.22 0 0 1 -2.66 -0.4 2.27 2.27 0 0 1 -1.27 -1.31 1.14 1.14 0 0 1 0.5 -1.43 1.84 1.84 0 0 1 0.88 -0.26l1.7 0c0.55 0 1.31 -0.21 2 -0.29 0.36 -0.05 1.9 -0.27 1.94 1a2.55 2.55 0 0 1 -0.75 1.69Z" fill="#020202" fill-rule="evenodd" stroke-width="1"></path>
    <path d="M9.84 11a2.75 2.75 0 0 0 1.36 -1.5 3 3 0 0 0 0.08 -1.71s0 -1 -2.73 -1.54a2.39 2.39 0 0 0 -1.5 0.17A2.34 2.34 0 0 0 5.83 8a2.65 2.65 0 0 0 0.27 2 2.82 2.82 0 0 0 0.76 0.78 3.13 3.13 0 0 0 0.93 0.42 2.83 2.83 0 0 0 2.05 -0.2ZM7.07 9.42a1.6 1.6 0 0 1 -0.19 -1.16 1.44 1.44 0 0 1 0.61 -1 1.56 1.56 0 0 1 1 -0.2c2.26 0.17 2.11 0.91 2.13 1.14a2.29 2.29 0 0 1 -0.18 1 2 2 0 0 1 -1 0.92 1.87 1.87 0 0 1 -1.3 0 2.37 2.37 0 0 1 -0.62 -0.3 1.36 1.36 0 0 1 -0.45 -0.4Z" fill="#4C57E6" fill-rule="evenodd" stroke-width="1"></path>
    <path d="M17.43 6.48a2.4 2.4 0 0 0 -1.5 -0.16c-2.71 0.48 -2.72 1.49 -2.73 1.53a3 3 0 0 0 0.08 1.72 2.78 2.78 0 0 0 1.36 1.5 2.83 2.83 0 0 0 2.05 0.18 3.43 3.43 0 0 0 0.93 -0.43 2.57 2.57 0 0 0 0.76 -0.78 2.68 2.68 0 0 0 0.27 -2 2.38 2.38 0 0 0 -1.22 -1.56Zm0 3a1.33 1.33 0 0 1 -0.42 0.43 2.37 2.37 0 0 1 -0.62 0.3 1.82 1.82 0 0 1 -1.3 0 1.89 1.89 0 0 1 -1 -0.91 2.32 2.32 0 0 1 -0.18 -1c0 -0.44 0.07 -1 2.13 -1.14a1.58 1.58 0 0 1 1 0.2 1.42 1.42 0 0 1 0.61 1 1.62 1.62 0 0 1 -0.25 1.09Z" fill="#4C57E6" fill-rule="evenodd" stroke-width="1"></path>
    <path d="M22.08 8a2 2 0 0 0 -1.78 -0.51 14.16 14.16 0 0 0 -0.41 -3C18.78 0.26 13.85 0 12.15 0a8.23 8.23 0 0 0 -6.38 3 7.27 7.27 0 0 0 -0.9 1.64 11.15 11.15 0 0 0 -0.51 1.77 14.86 14.86 0 0 0 -0.22 1.49A2.24 2.24 0 0 0 2 8.4a2.83 2.83 0 0 0 -0.76 1.29 3.8 3.8 0 0 0 -0.09 1.44 3.49 3.49 0 0 0 1.25 2.23 3.43 3.43 0 0 0 1.81 0.71 11.28 11.28 0 0 0 0.31 1.83 6.86 6.86 0 0 0 1.34 2.7 5.64 5.64 0 0 0 1.35 1.14 8.19 8.19 0 0 0 1.19 0.58l-0.24 1.77c-0.35 0.1 -0.69 0.21 -1 0.34a18.82 18.82 0 0 0 -2 0.92 0.34 0.34 0 0 0 -0.19 0.44 0.35 0.35 0 0 0 0.43 0.21l3.42 -0.9a0.57 0.57 0 0 0 0.42 -0.53l-0.14 -2a11.1 11.1 0 0 0 5 0.32 8.93 8.93 0 0 0 1.9 -0.54c-0.05 0.39 -0.09 0.78 -0.11 1.18s0 0.55 0 0.83a0.58 0.58 0 0 0 0.39 0.53c0.3 0.09 0.59 0.19 0.9 0.26s0.88 0.2 1.32 0.33a8 8 0 0 1 0.9 0.31 0.34 0.34 0 0 0 0.45 -0.14 0.33 0.33 0 0 0 -0.14 -0.46 9.21 9.21 0 0 0 -1.52 -0.81c-0.39 -0.16 -0.79 -0.3 -1.18 -0.44l0 -0.16c-0.06 -0.6 -0.15 -1.18 -0.23 -1.77a6 6 0 0 0 2.12 -1.79 6.44 6.44 0 0 0 1 -1.95 11.89 11.89 0 0 0 0.43 -2.44 3.7 3.7 0 0 0 1.83 -1.3 4.54 4.54 0 0 0 0.83 -2.43 3 3 0 0 0 -0.91 -2.1ZM3 12.65A2.54 2.54 0 0 1 2.25 11a3.1 3.1 0 0 1 0.1 -1.23 2.06 2.06 0 0 1 0.33 -0.7 1.47 1.47 0 0 1 1.4 -0.5c-0.06 1 0 2 0 3 0 0.54 0 1.1 0.08 1.67A2.67 2.67 0 0 1 3 12.65ZM18.92 16a5.28 5.28 0 0 1 -0.85 1.65A6.31 6.31 0 0 1 14 19.81a10 10 0 0 1 -4.82 -0.42 7 7 0 0 1 -1.33 -0.62 4.7 4.7 0 0 1 -1.08 -0.91 5.76 5.76 0 0 1 -1.15 -2.26 18.33 18.33 0 0 1 -0.45 -4c0 -1 -0.07 -2 0 -3a14.78 14.78 0 0 1 0.21 -2 11.6 11.6 0 0 1 0.4 -1.6 6.32 6.32 0 0 1 0.74 -1.44 7.33 7.33 0 0 1 5.66 -2.8c6.27 -0.37 6.83 3.15 7 3.9a15.83 15.83 0 0 1 0.34 3.49l0 2.48c0 0.82 -0.06 1.64 -0.12 2.47a12.68 12.68 0 0 1 -0.48 2.9Zm2.85 -5.92a3.77 3.77 0 0 1 -0.51 1.92 3.16 3.16 0 0 1 -1 1c0 -0.79 0.06 -1.57 0.07 -2.35s0 -1.65 -0.05 -2.48a1.29 1.29 0 0 1 1.08 0.48 2 2 0 0 1 0.41 1.41Z" fill="#020202" fill-rule="evenodd" stroke-width="1"></path>
  </g>
</svg>