<svg xmlns="http://www.w3.org/2000/svg" viewBox="0 0 24 24" id="Crime-Money-Stamp-Fake--Streamline-Freehand">
  <desc>
    Crime Money Stamp Fake Streamline Icon: https://streamlinehq.com
  </desc>
  <title>crime-money-stamp-fake</title>
  <g>
    <path d="M23.91 12.64a5.54 5.54 0 0 0 -0.49 -1.1c-0.48 -0.86 -1.38 -1.69 -1.94 -2.62a2.67 2.67 0 0 1 -0.41 -1.11c0 -0.11 0.09 -0.16 0.18 -0.22A11.49 11.49 0 0 0 22.43 7a3.6 3.6 0 0 0 1.06 -2.29 3.41 3.41 0 0 0 -0.63 -2.48A4 4 0 0 0 19.71 1a3.5 3.5 0 0 0 -3 1.55 3 3 0 0 0 -0.29 1 5.56 5.56 0 0 1 -0.21 1.12 0.56 0.56 0 0 1 -0.33 0.36 0.69 0.69 0 0 1 -0.32 0c-0.26 0 -0.52 -0.1 -0.75 -0.14 -1.1 -0.21 -2.34 -1 -3.53 -1.16a2.47 2.47 0 0 0 -1.74 0.43 3.78 3.78 0 0 0 -0.54 0.52 9.43 9.43 0 0 0 -0.63 0.82c-0.52 0.72 -0.4 0.58 -0.48 0.73a0.28 0.28 0 0 0 0.5 0.26c0.08 -0.14 0.24 -0.3 0.48 -0.61a8.67 8.67 0 0 1 0.62 -0.74 2.6 2.6 0 0 1 0.45 -0.37 1.81 1.81 0 0 1 1.28 -0.26c1.16 0.16 2.35 1 3.42 1.3a6.45 6.45 0 0 0 1 0.2 1.6 1.6 0 0 0 0.58 -0.08 1.55 1.55 0 0 0 0.91 -0.88c0.26 -0.59 0.2 -1.45 0.5 -2a2.45 2.45 0 0 1 2.12 -1 3 3 0 0 1 2.3 0.8 2.27 2.27 0 0 1 0.39 1.68 2.56 2.56 0 0 1 -0.67 1.66c-0.29 0.27 -0.92 0.42 -1.26 0.73a1.07 1.07 0 0 0 -0.36 1 3.55 3.55 0 0 0 0.59 1.46c0.58 0.9 1.5 1.7 2 2.54a5.62 5.62 0 0 1 0.45 0.92 1.25 1.25 0 0 1 0.07 0.57 2.59 2.59 0 0 1 -0.14 0.45 6.43 6.43 0 0 1 -0.37 0.69 5.21 5.21 0 0 1 -0.36 0.55 3.28 3.28 0 0 1 -0.43 0.48s0 0.05 0 0.08c-0.34 -0.24 -0.69 -0.46 -1.05 -0.67 -0.87 -0.51 -1.77 -0.95 -2.63 -1.51s-1.57 -1.05 -2.28 -1.6l-2.33 -1.64c-0.68 -0.46 -1.37 -0.9 -2.07 -1.33s-1.47 -0.83 -2.19 -1.28A10.33 10.33 0 0 1 8.49 7a0.29 0.29 0 0 0 -0.4 0 0.28 0.28 0 0 0 0 0.4c0.27 0.25 0.56 0.47 0.85 0.69a6 6 0 0 0 -0.87 0.91 1.93 1.93 0 0 0 -0.42 0.91 1 1 0 0 0 0.19 0.64 3.74 3.74 0 0 0 0.85 0.8c0.62 0.51 1.19 1.05 1.81 1.55a9 9 0 0 0 0.85 0.64c0.89 0.57 1.68 1.27 2.53 1.89 0.22 0.16 0.45 0.32 0.68 0.46s0.72 0.41 1.1 0.6c0.54 0.27 1.1 0.51 1.64 0.76a13.84 13.84 0 0 0 1.6 0.81 1.64 1.64 0 0 0 1 0.06 1.88 1.88 0 0 0 0.65 -0.36c0.35 -0.31 0.6 -0.76 0.91 -1.09a0.33 0.33 0 0 0 0 -0.46 0.32 0.32 0 0 0 -0.45 0c-0.28 0.27 -0.5 0.61 -0.79 0.88a0.85 0.85 0 0 1 -1.2 0.12c-0.49 -0.24 -1 -0.61 -1.28 -0.77 -0.52 -0.28 -1 -0.55 -1.58 -0.85a9.89 9.89 0 0 1 -1 -0.6c-0.88 -0.57 -1.68 -1.27 -2.54 -1.89 -0.22 -0.16 -0.45 -0.31 -0.68 -0.45s-0.56 -0.36 -0.82 -0.54c-0.65 -0.47 -1.26 -1 -1.92 -1.42 -0.16 -0.11 -0.39 -0.25 -0.58 -0.41s-0.25 -0.21 -0.25 -0.36a1.21 1.21 0 0 1 0.25 -0.56 4.59 4.59 0 0 1 0.73 -0.86s0 -0.07 0.05 -0.11c0.55 0.39 1.11 0.76 1.65 1.16s1.29 1 1.94 1.47 1.31 1 2 1.43c0.91 0.63 1.84 1.21 2.79 1.77s1.85 0.88 2.77 1.34a12.07 12.07 0 0 1 1.11 0.62c0.17 0.12 0.73 -0.18 0.74 -0.19a4.42 4.42 0 0 0 0.52 -0.54q0.22 -0.3 0.42 -0.6a5.68 5.68 0 0 0 0.43 -0.77 2.72 2.72 0 0 0 0.2 -0.61 1.86 1.86 0 0 0 -0.06 -0.83Z" fill="#020202" fill-rule="evenodd" stroke-width="1"></path>
    <path d="M22.32 20.94a2.34 2.34 0 0 0 -0.27 -0.49 4.93 4.93 0 0 0 -0.74 -0.71 0.29 0.29 0 0 0 -0.4 -0.07 0.28 0.28 0 0 0 -0.06 0.39c0.09 0.27 0.13 0.53 0.24 0.82a1.91 1.91 0 0 0 0.16 0.32 3.55 3.55 0 0 0 0.23 0.31 0.8 0.8 0 0 1 0.13 0.13c-3.26 0 -6.52 -0.15 -9.79 -0.18l-2.69 0c-0.37 0 -0.73 0 -1.1 0.08 -0.8 0.1 -1.6 0.24 -2.41 0.29s-1.59 0.1 -2.4 0.11l-1.57 0c-0.12 0 -0.36 -0.13 -0.55 -0.15l0.74 -1.31c0.54 -0.84 1.09 -1.68 1.65 -2.5s1.15 -1.64 1.75 -2.44l0 -0.08c0.56 0.06 1.11 0.15 1.69 0.21l0.82 0.05 0.82 0 1.92 0a0.32 0.32 0 0 0 0.36 -0.28 0.31 0.31 0 0 0 -0.28 -0.35c-0.64 -0.15 -1.27 -0.28 -1.93 -0.37q-0.42 -0.06 -0.84 -0.09l-0.85 0c-0.66 0 -1.31 0.14 -2 0.22 -0.07 0 -0.59 0.72 -2.08 2.72 -0.6 0.81 -1.19 1.62 -1.77 2.45l-0.83 1.39A2.57 2.57 0 0 0 0 22a0.61 0.61 0 0 0 0 0.31 0.88 0.88 0 0 0 0.56 0.48 3.77 3.77 0 0 0 1 0.15c0.54 0.06 1.1 0.06 1.67 0.06 0.82 0 1.66 0 2.45 -0.08l3.48 -0.37 13.4 -0.26c0.56 -0.01 0.16 -0.54 -0.24 -1.35Z" fill="#020202" fill-rule="evenodd" stroke-width="1"></path>
    <path d="M9.29 16.89a0.27 0.27 0 0 0 -0.39 0 2 2 0 0 0 -0.66 1.58 2.12 2.12 0 0 0 1 1.52 4 4 0 0 0 1.69 0.53 3.9 3.9 0 0 0 1.74 -0.25 2.17 2.17 0 0 0 1.49 -1.84 0.33 0.33 0 0 0 -0.27 -0.36 0.32 0.32 0 0 0 -0.37 0.27 1.43 1.43 0 0 1 -1.15 1.06 3.33 3.33 0 0 1 -1.34 0.05 3.26 3.26 0 0 1 -1.27 -0.36 1.17 1.17 0 0 1 -0.76 -0.71 1.25 1.25 0 0 1 0.28 -1.09 0.29 0.29 0 0 0 0.01 -0.4Z" fill="#4C57E6" fill-rule="evenodd" stroke-width="1"></path>
  </g>
</svg>