<svg xmlns="http://www.w3.org/2000/svg" viewBox="0 0 24 24" id="Crime-Tool-Face-Mask-Whole--Streamline-Freehand">
  <desc>
    Crime Tool Face Mask Whole Streamline Icon: https://streamlinehq.com
  </desc>
  <title>crime-tool-face-mask-whole</title>
  <g>
    <path d="M21.15 7.15a8.93 8.93 0 0 0 -1.69 -3.57 9.86 9.86 0 0 0 -2.91 -2.37 0.34 0.34 0 0 0 -0.12 -0.12A7.79 7.79 0 0 0 14.15 0.2a8.49 8.49 0 0 0 -2.46 -0.2 10.37 10.37 0 0 0 -5.62 2.25A9.34 9.34 0 0 0 2.78 7.4a9.87 9.87 0 0 0 0 3.87 11.16 11.16 0 0 0 1.35 3.6 21 21 0 0 0 2.33 2.69 4.23 4.23 0 0 1 0.76 1.13 2.36 2.36 0 0 1 0.18 0.68l0 1.21a4.1 4.1 0 0 1 -0.09 1 1.73 1.73 0 0 1 -0.4 0.8 3.28 3.28 0 0 1 -0.57 0.46c-0.35 0.22 -0.73 0.41 -1.06 0.6a0.3 0.3 0 0 0 0.29 0.53c0.35 -0.18 0.75 -0.36 1.11 -0.58a4.06 4.06 0 0 0 0.73 -0.54 2.38 2.38 0 0 0 0.52 -0.85 4.71 4.71 0 0 0 0.23 -1.39 11.29 11.29 0 0 0 0 -1.3 3.1 3.1 0 0 0 -0.2 -0.95 5.3 5.3 0 0 0 -0.53 -1c-0.69 -1.02 -1.79 -1.9 -2.43 -3.02a10.77 10.77 0 0 1 -1.14 -3.27 9 9 0 0 1 0 -3.43 8.32 8.32 0 0 1 2.87 -4.59 9.39 9.39 0 0 1 5 -2.19A7.51 7.51 0 0 1 14 1a7.19 7.19 0 0 1 2.1 0.74 0.23 0.23 0 0 0 0.14 0 9.14 9.14 0 0 1 2.59 2.34 8 8 0 0 1 1.33 3.32 7 7 0 0 1 -0.07 3.34A15.27 15.27 0 0 1 18.82 14c-0.36 0.75 -1.32 1.87 -2 2.89a4.71 4.71 0 0 0 -0.69 1.57 5.81 5.81 0 0 0 0.15 3.4A4.28 4.28 0 0 0 19 23.92a0.36 0.36 0 0 0 0.45 -0.21 0.35 0.35 0 0 0 -0.21 -0.44 3.52 3.52 0 0 1 -2.2 -1.76 4.93 4.93 0 0 1 0.06 -2.89 3.61 3.61 0 0 1 0.6 -1.17c0.71 -1 1.72 -2.18 2.12 -2.95a14.05 14.05 0 0 0 1.51 -4.26 7.81 7.81 0 0 0 -0.18 -3.09Z" fill="#020202" fill-rule="evenodd" stroke-width="1"></path>
    <path d="M16.24 13.1c-0.57 -1.37 -2.54 -1.1 -2.59 -1.1 -0.66 0 -1.42 0.18 -1.9 0.18a15.4 15.4 0 0 0 -2 -0.08 2.48 2.48 0 0 0 -1 0.3 2 2 0 0 0 -1.16 2 3.26 3.26 0 0 0 2 2.6 7 7 0 0 0 3.13 0.42 4.33 4.33 0 0 0 2.86 -1.46 3 3 0 0 0 0.66 -2.86Zm-1.36 2.23a3.45 3.45 0 0 1 -2.29 1 6 6 0 0 1 -2.6 -0.4 2.15 2.15 0 0 1 -1.24 -1.28 1.09 1.09 0 0 1 0.48 -1.38 2 2 0 0 1 0.85 -0.26l1.68 0c0.54 0 1.28 -0.2 2 -0.29 0.35 0 1.85 -0.27 1.89 1a2.46 2.46 0 0 1 -0.77 1.61Z" fill="#020202" fill-rule="evenodd" stroke-width="1"></path>
    <path d="M9.12 11.16a3.52 3.52 0 0 0 1.58 -0.75c0.25 -0.21 0.49 -0.53 0.78 -0.76a0.53 0.53 0 0 1 0.35 -0.17 0.94 0.94 0 0 1 0.51 0.14 11 11 0 0 1 1 0.72 4.42 4.42 0 0 0 1.18 0.57 3.68 3.68 0 0 0 1.33 0.15 2.49 2.49 0 0 0 2 -1.28 4.14 4.14 0 0 0 0.37 -3.26 3.08 3.08 0 0 0 -0.66 -1.15 1.79 1.79 0 0 0 -0.81 -0.5 0.3 0.3 0 0 0 -0.21 0 0.3 0.3 0 0 0 -0.17 -0.08 6.38 6.38 0 0 0 -1.48 -0.07c-1.35 0.09 -2.23 0.63 -3.16 0.53a26.64 26.64 0 0 0 -3.12 -0.61 3.1 3.1 0 0 0 -1.5 0.43 3.55 3.55 0 0 0 -1.58 3 3 3 0 0 0 1.85 3 3.21 3.21 0 0 0 1.74 0.09ZM6.64 8.1A2.42 2.42 0 0 1 7.61 6 2.22 2.22 0 0 1 9 5.6c0.82 0.06 1.65 0.4 2.62 0.46s1.88 -0.52 3.29 -0.68a6 6 0 0 1 1.34 0h0.08a0.3 0.3 0 0 0 0.18 0.13 1.22 1.22 0 0 1 0.59 0.46 2.57 2.57 0 0 1 0.36 0.77 3.28 3.28 0 0 1 -0.18 2.19 1.74 1.74 0 0 1 -1.5 1.18 2.57 2.57 0 0 1 -1 -0.15 3.21 3.21 0 0 1 -0.89 -0.48 8.5 8.5 0 0 0 -1.28 -0.92 2 2 0 0 0 -0.86 -0.2 1.57 1.57 0 0 0 -0.8 0.25 9.22 9.22 0 0 0 -1 0.92 2.45 2.45 0 0 1 -1.06 0.47 2.09 2.09 0 0 1 -1.14 0 1.9 1.9 0 0 1 -1.11 -1.9Z" fill="#4C57E6" fill-rule="evenodd" stroke-width="1"></path>
  </g>
</svg>