<svg xmlns="http://www.w3.org/2000/svg" viewBox="0 0 24 24" id="Crm-Asset-Management--Streamline-Freehand">
  <desc>
    Crm Asset Management Streamline Icon: https://streamlinehq.com
  </desc>
  <g>
    <path d="M9.59 12.4c-0.71 0.4 -0.87 1.59 -0.9 2.58a9.53 9.53 0 0 0 0.58 2.34 4.12 4.12 0 0 0 0.82 1.48 0.12 0.12 0 0 1 0 0.19 1.59 1.59 0 0 1 -0.29 0.29 6 6 0 0 1 -1 0.59 0.32 0.32 0 1 0 0.23 0.59 4.91 4.91 0 0 0 1.66 -1.06 0.75 0.75 0 0 0 -0.12 -1.16 4.16 4.16 0 0 1 -0.66 -1.52A6.81 6.81 0 0 1 9.54 15a3.66 3.66 0 0 1 0.56 -1.75c0.2 -0.31 -0.1 -1.08 -0.51 -0.85Z" fill="#020202" fill-rule="evenodd" stroke-width="1"></path>
    <path d="M13.49 14a2.59 2.59 0 0 0 1 -0.3 10.87 10.87 0 0 0 1.68 -1.22c0.71 -0.56 2.66 -2.35 2.94 -2.67a10.32 10.32 0 0 0 1.5 -2.24c0.12 -0.24 0.35 -0.56 0.5 -0.86a1.45 1.45 0 0 0 0.18 -0.53 1.1 1.1 0 0 0 -0.08 -0.51c-0.1 -0.26 -0.29 -0.55 -0.37 -0.72 -1.88 -3.4 1 -2.88 -4.56 -3.29 -0.52 0 -1 -0.06 -1.55 -0.07s-1 0 -1.55 0c-1.18 0.08 -2.36 0.26 -3.59 0.45a0.29 0.29 0 0 0 -0.25 0.31 0.23 0.23 0 0 0 0.08 0.16 0.28 0.28 0 0 0 -0.42 0.14c-0.39 0.72 -1.17 1.61 -1.63 2.51A3 3 0 0 0 7 6.54a3 3 0 0 0 0.18 1 7.27 7.27 0 0 0 0.6 1.22 13.29 13.29 0 0 0 1.51 2.09c0.29 0.34 3.59 3.09 3.59 3.09a1.78 1.78 0 0 0 0.61 0.06Zm-0.11 -2c-0.36 -0.73 -0.73 -1.65 -1 -2.12l-0.78 -1.67a8.89 8.89 0 0 1 -0.46 -1 2 2 0 0 1 -0.14 -0.58l1 0.08 1.71 0c0.57 0 1.14 0 1.7 -0.08 0.35 0 0.7 -0.06 1 -0.09a1.61 1.61 0 0 1 -0.11 0.59l-0.27 0.6L15 9.57l-1.48 2.67c-0.05 -0.08 -0.1 -0.16 -0.14 -0.24Zm2.38 -9.29 2 0c1.41 0 0.88 -0.45 2.42 2.59 0.05 0.13 0.16 0.31 0.24 0.5a0.55 0.55 0 0 1 0.1 0.31 0.77 0.77 0 0 1 -0.11 0.27c-0.16 0.3 -0.41 0.61 -0.54 0.85a9.7 9.7 0 0 1 -1.46 2 19.32 19.32 0 0 1 -2.88 2.45c-0.37 0.27 -0.83 0.69 -1.32 1l-0.24 0.12 1.77 -2.63c0.22 -0.3 0.45 -0.6 0.66 -0.91s0.42 -0.64 0.61 -1l0.34 -0.75a2.63 2.63 0 0 0 0.17 -1.06l1.85 -0.21a0.33 0.33 0 0 0 0.3 -0.35 0.34 0.34 0 0 0 -0.35 -0.3l-2 0A12.17 12.17 0 0 0 16.24 4l-0.8 -1.28Zm-2.5 0h1.43l0.84 1.73c0.24 0.43 0.49 0.81 0.68 1.19h-2.48L12 5.64h-0.56l0.13 -0.21ZM8 5.46c0.41 -0.9 1.14 -1.82 1.5 -2.55a0.26 0.26 0 0 0 -0.06 -0.31 0.31 0.31 0 0 0 0.19 0.06l2.83 0 -1.66 2.26c-0.15 0.22 -0.36 0.49 -0.53 0.77l-2.17 0a0.23 0.23 0 0 0 -0.18 0.06C8 5.68 8 5.57 8 5.46Zm2 4.7a13.23 13.23 0 0 1 -1.5 -1.89 5.93 5.93 0 0 1 -0.59 -1 2.12 2.12 0 0 1 -0.17 -0.69 2.2 2.2 0 0 1 0 -0.44 0.29 0.29 0 0 0 0.24 0.2l1.9 0.22a0.5 0.5 0 0 0 0 0.12 2.74 2.74 0 0 0 0.17 0.94 7.19 7.19 0 0 0 0.53 1.12l0.95 1.64c0.29 0.44 0.73 1.3 1.14 2l0.3 0.47 -0.18 -0.1A30.06 30.06 0 0 1 10 10.16Z" fill="#4C57E6" fill-rule="evenodd" stroke-width="1"></path>
    <path d="M21.53 16.13a1.84 1.84 0 0 0 -0.53 -1.19 1.28 1.28 0 0 0 -0.85 -0.34 3.52 3.52 0 0 0 -1 -3.3 1.11 1.11 0 0 0 -1.48 0l-0.34 0.3a1.79 1.79 0 0 0 -0.52 1.84 2.14 2.14 0 0 1 0.08 0.44 1.7 1.7 0 0 1 -0.5 1.44 2.38 2.38 0 0 1 -1.52 0.59 1.82 1.82 0 0 1 -1.37 -0.37 1.54 1.54 0 0 1 -0.5 -1.17c0 -0.31 -0.48 -0.48 -0.48 -0.48 -0.35 -0.11 -0.49 0.38 -0.48 0.66a2.15 2.15 0 0 0 0.73 1.77 2.74 2.74 0 0 0 2.16 0.69 3.5 3.5 0 0 0 2.23 -0.89 2.68 2.68 0 0 0 0.79 -2.32 2.46 2.46 0 0 0 -0.1 -0.5c-0.15 -0.52 -0.2 -0.9 0.06 -1.06a0.39 0.39 0 0 1 0.25 -0.05 2.29 2.29 0 0 1 1.24 2.5c-0.24 1.45 -1.15 2.87 -2.39 3.06a0.28 0.28 0 0 0 0.08 0.56c1.36 -0.15 2.49 -1.54 2.94 -3.1a0.69 0.69 0 0 1 0.52 0.2 1.18 1.18 0 0 1 0.24 0.77 2.67 2.67 0 0 1 -0.31 1.19 3.19 3.19 0 0 1 -0.77 1 13.49 13.49 0 0 1 -1.82 1.4 14.39 14.39 0 0 1 -2 1.13 13.32 13.32 0 0 1 -1.39 0.47 3.45 3.45 0 0 0 -0.67 0.32 4.39 4.39 0 0 0 -0.63 0.51c-0.4 0.4 -0.76 0.87 -1.15 1.27a0.33 0.33 0 0 0 0 0.45 0.32 0.32 0 0 0 0.45 0c0.36 -0.31 0.69 -0.68 1.05 -1a3.55 3.55 0 0 1 0.71 -0.51 2.67 2.67 0 0 1 0.52 -0.2c0.5 -0.14 1 -0.21 1.52 -0.39a14 14 0 0 0 2.21 -1.14 11.92 11.92 0 0 0 1.95 -1.56 4.31 4.31 0 0 0 0.88 -1.36 3.38 3.38 0 0 0 0.19 -1.63Z" fill="#020202" fill-rule="evenodd" stroke-width="1"></path>
    <path d="M7.59 3.24c0 -0.57 -0.49 -0.46 -1.06 -0.86a1 1 0 0 1 -0.25 -0.22A2 2 0 0 1 6 1.69a4.44 4.44 0 0 1 -0.19 -0.62c0 -0.14 -0.05 -0.41 -0.1 -0.59a1 1 0 0 0 -0.14 -0.3 0.48 0.48 0 0 0 -0.32 -0.18 0.42 0.42 0 0 0 -0.36 0.13 0.42 0.42 0 0 0 -0.14 0.22l0 0.19 -0.07 0.23 -0.31 0.81a1.83 1.83 0 0 1 -0.62 0.79 1.4 1.4 0 0 1 -1 0.2 0.28 0.28 0 0 0 -0.33 0.22 0.28 0.28 0 0 0 0.15 0.31 0.35 0.35 0 0 0 -0.06 0.14 0.32 0.32 0 0 0 0.26 0.37 2.71 2.71 0 0 1 1 0.45 1.65 1.65 0 0 1 0.6 0.79l0.1 0.83 0 0.36a2 2 0 0 0 0.06 0.32 0.47 0.47 0 0 0 0.82 0 2.44 2.44 0 0 0 0.19 -0.44A4.38 4.38 0 0 1 6 4.62a1.26 1.26 0 0 1 0.27 -0.29c0.34 -0.27 0.76 -0.42 1.12 -0.71a0.51 0.51 0 0 0 0.2 -0.38Zm-2 0.26a2.24 2.24 0 0 0 -0.49 0.56l-0.1 0.18a2.56 2.56 0 0 0 -0.79 -0.78 3.43 3.43 0 0 0 -0.67 -0.32 2.49 2.49 0 0 0 0.54 -0.2A2.6 2.6 0 0 0 5 2a1.72 1.72 0 0 0 0.07 0.21 2.53 2.53 0 0 0 0.35 0.62 1.75 1.75 0 0 0 0.36 0.36l0.11 0.09a2.44 2.44 0 0 0 -0.3 0.22Z" fill="#020202" fill-rule="evenodd" stroke-width="1"></path>
  </g>
</svg>