<svg xmlns="http://www.w3.org/2000/svg" viewBox="0 0 24 24" id="Crypto-Currency-Bitcoin-Monitor-Mining--Streamline-Freehand">
  <desc>
    Crypto Currency Bitcoin Monitor Mining Streamline Icon: https://streamlinehq.com
  </desc>
  <g>
    <path d="M16.29 14.07a2.44 2.44 0 0 0 -1.47 -2.51A2.17 2.17 0 0 0 16 9.13c-0.19 -1.39 -1.6 -1.84 -3 -1.93 0.39 -1.67 0.06 -1.19 0.07 -2.44a0.3 0.3 0 0 0 -0.29 -0.3c-0.18 0 -0.3 0.09 -0.42 0.26a4.21 4.21 0 0 0 -0.18 2.46c-0.37 0 -0.72 0 -1 0.06a6.92 6.92 0 0 0 0.09 -2.6 0.31 0.31 0 0 0 -0.3 -0.18c-0.65 -0.13 -0.79 2.08 -0.58 2.92 -1.7 0.07 -1.61 0.44 -1.61 0.53l0 2.35c0 0.88 -0.38 2.51 -0.35 3.81 0 1.76 0.7 2.27 2.44 2.58 -0.37 1.08 0 1.26 0.13 1.89a0.33 0.33 0 0 0 0.66 0 2.17 2.17 0 0 0 0 -1.79l0.49 0c0.6 0 0.09 -0.42 0.53 1.81a0.33 0.33 0 0 0 0.66 0c0.14 -0.71 0.44 -1.19 0.13 -1.92 1.53 -0.23 2.69 -0.94 2.82 -2.57ZM11 8c1.35 -0.12 4 -0.1 4.13 1.25s-1 1.79 -2.38 1.83a10.28 10.28 0 0 0 -3.37 0 22.43 22.43 0 0 0 0 -2.7c0.37 -0.21 -0.21 -0.09 1.62 -0.38Zm3.6 7.14c-1.27 0.91 -4.42 0.75 -5 0.15s-0.35 -2.62 -0.28 -3.45a9.79 9.79 0 0 0 2.53 0.26 7.14 7.14 0 0 1 2.93 0.71 1.55 1.55 0 0 1 -0.22 2.31Z" fill="#020202" fill-rule="evenodd" stroke-width="1"></path>
    <path d="M1 5.55c0.27 0.07 1.79 0.19 2.27 0.21a1 1 0 0 0 0.05 0.76l-1.17 0.1A0.29 0.29 0 0 0 2 7c0.06 0.28 0.74 0.39 0.88 0.45a3.4 3.4 0 0 0 2.27 0 0.33 0.33 0 0 0 0 -0.66l-0.94 -0.18a1.38 1.38 0 0 0 0.12 -0.8h1.34c0.54 0 2 0.42 2.11 -0.78a7.87 7.87 0 0 0 0 -0.95c0 -1.07 0.39 -3.19 -1 -3.74A8.35 8.35 0 0 0 3.21 0.05C0.48 0.13 0.74 0.48 0.69 1.43l0 0.86 -0.3 1.65c-0.15 0.82 -0.18 1.4 0.61 1.61Zm0.16 -1.49A17.27 17.27 0 0 0 1.34 1 14.66 14.66 0 0 1 5.19 0.88a4 4 0 0 1 1.17 0.31c0.65 0.3 0.29 2.18 0.27 2.88 0 0 0.3 0.72 -0.23 0.68a37.46 37.46 0 0 0 -4.47 0c-1.02 0.19 -0.81 -0.15 -0.76 -0.69Z" fill="#020202" fill-rule="evenodd" stroke-width="1"></path>
    <path d="M16.93 5.75c0.27 0.07 1.79 0.19 2.27 0.21a1 1 0 0 0 0.05 0.76l-1.17 0.1a0.29 0.29 0 0 0 -0.15 0.39c0.06 0.28 0.74 0.39 0.88 0.45a3.47 3.47 0 0 0 2.27 0 0.33 0.33 0 1 0 0 -0.66l-0.95 -0.18a1.33 1.33 0 0 0 0.13 -0.8h1.33c0.54 0 2 0.42 2.11 -0.78a8.17 8.17 0 0 0 0 -1c0 -1.06 0.39 -3.18 -1 -3.73a8.35 8.35 0 0 0 -3.57 -0.26c-2.73 0.08 -2.47 0.43 -2.52 1.38l0 0.85 -0.29 1.66c-0.16 0.86 -0.19 1.39 0.61 1.61Zm0.16 -1.49a16.46 16.46 0 0 0 0.16 -3.06 14.77 14.77 0 0 1 3.86 -0.12 4 4 0 0 1 1.17 0.31c0.64 0.3 0.29 2.18 0.27 2.87 0 0 0.3 0.73 -0.23 0.69a37.46 37.46 0 0 0 -4.47 0c-1.02 0.19 -0.85 -0.15 -0.76 -0.69Z" fill="#020202" fill-rule="evenodd" stroke-width="1"></path>
    <path d="M16.93 21.9c0.27 0.07 1.79 0.19 2.27 0.21a1 1 0 0 0 0.05 0.76l-1.17 0.1a0.29 0.29 0 0 0 -0.15 0.39c0.06 0.28 0.74 0.39 0.88 0.45a3.4 3.4 0 0 0 2.27 0 0.33 0.33 0 1 0 0 -0.66l-0.95 -0.18a1.33 1.33 0 0 0 0.13 -0.8h1.33c0.54 0 2 0.42 2.11 -0.78a7.87 7.87 0 0 0 0 -0.95c0 -1.07 0.39 -3.19 -1 -3.74a8.52 8.52 0 0 0 -3.52 -0.28c-2.73 0.08 -2.47 0.43 -2.52 1.38l0 0.86 -0.29 1.65c-0.21 0.8 -0.24 1.38 0.56 1.59Zm0.16 -1.49a16.41 16.41 0 0 0 0.16 -3.06 14.77 14.77 0 0 1 3.86 -0.12 3.7 3.7 0 0 1 1.17 0.32c0.64 0.29 0.29 2.17 0.27 2.87 0 0 0.3 0.72 -0.23 0.68a37.46 37.46 0 0 0 -4.47 -0.05c-1.02 0.24 -0.85 -0.05 -0.76 -0.64Z" fill="#020202" fill-rule="evenodd" stroke-width="1"></path>
    <path d="M1 21.61c0.26 0.07 1.79 0.19 2.27 0.21a1 1 0 0 0 0 0.76l-1.17 0.1a0.29 0.29 0 0 0 -0.15 0.39c0.06 0.28 0.74 0.39 0.88 0.45a3.4 3.4 0 0 0 2.27 0 0.33 0.33 0 0 0 0 -0.66l-1 -0.18a1.41 1.41 0 0 0 0.13 -0.8l1.33 0c0.54 0 2 0.41 2.11 -0.79a7.87 7.87 0 0 0 0 -0.95c0 -1.07 0.39 -3.19 -1 -3.74a8.52 8.52 0 0 0 -3.52 -0.28C0.42 16.2 0.68 16.55 0.63 17.5l0 0.86L0.38 20c-0.15 0.82 -0.18 1.4 0.62 1.61Zm0.16 -1.49a17.26 17.26 0 0 0 0.16 -3.06 14.75 14.75 0 0 1 3.86 -0.12 3.7 3.7 0 0 1 1.17 0.32c0.64 0.29 0.29 2.17 0.27 2.87 0 0 0.3 0.72 -0.23 0.68a37.62 37.62 0 0 0 -4.47 0c-1.02 0.19 -0.81 -0.15 -0.76 -0.69Z" fill="#020202" fill-rule="evenodd" stroke-width="1"></path>
    <path d="M8.63 2.53a30.53 30.53 0 0 0 4.37 0.12c0.93 0 1.78 -0.11 2.41 -0.09a0.33 0.33 0 1 0 0.07 -0.66A16.72 16.72 0 0 0 8.6 2a0.29 0.29 0 1 0 0.03 0.53Z" fill="#4C57E6" fill-rule="evenodd" stroke-width="1"></path>
    <path d="M15.42 20.56a16.55 16.55 0 0 0 -6.83 0.05 0.29 0.29 0 1 0 0 0.58 31.91 31.91 0 0 0 4.32 0.13c0.94 0 1.78 -0.12 2.41 -0.1a0.33 0.33 0 1 0 0.1 -0.66Z" fill="#4C57E6" fill-rule="evenodd" stroke-width="1"></path>
    <path d="M19.68 9.22a15 15 0 0 0 -0.05 5.57 0.33 0.33 0 1 0 0.66 0 15.35 15.35 0 0 0 0 -5.57 0.3 0.3 0 0 0 -0.61 0Z" fill="#4C57E6" fill-rule="evenodd" stroke-width="1"></path>
    <path d="M3.48 9a15 15 0 0 0 0 5.57 0.33 0.33 0 0 0 0.66 0A15.57 15.57 0 0 0 4.07 9a0.3 0.3 0 0 0 -0.59 0Z" fill="#4C57E6" fill-rule="evenodd" stroke-width="1"></path>
  </g>
</svg>