<svg xmlns="http://www.w3.org/2000/svg" viewBox="0 0 24 24" id="Crypto-Currency-Megacoin--Streamline-Freehand">
  <desc>
    Crypto Currency Megacoin Streamline Icon: https://streamlinehq.com
  </desc>
  <g>
    <g>
      <path d="M4.13 13.08a0.27 0.27 0 0 0 0.28 0.28 0.28 0.28 0 0 0 0.28 -0.27l0 -3.06c0 -0.42 0 -0.84 0.08 -1.25l0.31 -0.51c0.1 -0.16 0.22 -0.39 0.35 -0.59l0.13 -0.17a10.76 10.76 0 0 0 1.64 -0.07l0.23 0.39a3.19 3.19 0 0 1 0.37 1.22c0.08 0.71 0 1.45 0.05 2.21l0 1.07a1 1 0 0 1 -0.12 0.49 1.21 1.21 0 0 1 -0.78 0.42 9 9 0 0 1 -1.73 0 0.31 0.31 0 0 0 -0.33 0.3 0.33 0.33 0 0 0 0.29 0.34A11 11 0 0 0 7 14a2 2 0 0 0 1.3 -0.64 1.52 1.52 0 0 0 0.31 -0.69 7.55 7.55 0 0 0 0.1 -1.37 20.38 20.38 0 0 0 0.1 -2.3 4.12 4.12 0 0 0 -0.48 -1.7c-0.09 -0.15 -0.21 -0.39 -0.34 -0.58a1.49 1.49 0 0 0 -0.34 -0.33 1 1 0 0 0 -0.5 -0.1c-0.25 0 -0.63 0.15 -0.78 0.17s-0.66 0 -1 0a1 1 0 0 0 -0.49 0.21 1.54 1.54 0 0 0 -0.31 0.38c-0.14 0.24 -0.28 0.54 -0.38 0.73a5.25 5.25 0 0 0 -0.19 0.55 0.93 0.93 0 0 0 -0.1 0.37 12.16 12.16 0 0 0 0 1.35c0.1 1.02 0.2 2.04 0.23 3.03Z" fill="#020202" stroke-width="1"></path>
      <path d="M9.55 13.08a0.28 0.28 0 0 0 0.56 0l0 -3.06a10.36 10.36 0 0 1 0.07 -1.25l0.32 -0.51c0.09 -0.16 0.21 -0.39 0.35 -0.59a1.09 1.09 0 0 1 0.15 -0.16 10.76 10.76 0 0 0 1.64 -0.07l0.22 0.39a3 3 0 0 1 0.37 1.22 20.09 20.09 0 0 1 0.05 2.21 7.49 7.49 0 0 1 0 1.07 0.91 0.91 0 0 1 -0.12 0.49 1.17 1.17 0 0 1 -0.78 0.42 8.83 8.83 0 0 1 -1.72 0 0.32 0.32 0 0 0 -0.34 0.3 0.33 0.33 0 0 0 0.3 0.34 10.84 10.84 0 0 0 1.86 0.12 2 2 0 0 0 1.31 -0.64 1.63 1.63 0 0 0 0.31 -0.69 9.93 9.93 0 0 0 0.1 -1.37 22.9 22.9 0 0 0 0.03 -2.3 4 4 0 0 0 -0.48 -1.65 4.76 4.76 0 0 0 -0.34 -0.58 1.17 1.17 0 0 0 -0.34 -0.33 1 1 0 0 0 -0.5 -0.1c-0.25 0 -0.63 0.15 -0.77 0.17s-0.66 0 -1 0a1 1 0 0 0 -0.49 0.21 1.53 1.53 0 0 0 -0.3 0.38c-0.15 0.24 -0.28 0.54 -0.39 0.73a5.25 5.25 0 0 0 -0.28 0.54 1.47 1.47 0 0 0 -0.1 0.37 12.17 12.17 0 0 0 0 1.35c0.13 0.98 0.28 2 0.31 2.99Z" fill="#020202" stroke-width="1"></path>
      <path d="M15 13.08a0.27 0.27 0 0 0 0.27 0.28 0.28 0.28 0 0 0 0.29 -0.27l0 -3.06c0 -0.42 0 -0.84 0.08 -1.25l0.31 -0.51c0.1 -0.16 0.22 -0.39 0.35 -0.59l0.13 -0.17 1 0a2.09 2.09 0 0 0 0.57 -0.07l0.23 0.39a3.19 3.19 0 0 1 0.37 1.22c0.08 0.71 0 1.45 0.05 2.21l0 1.07a1 1 0 0 1 -0.12 0.49 1.21 1.21 0 0 1 -0.78 0.42 8.94 8.94 0 0 1 -1.73 0 0.31 0.31 0 0 0 -0.33 0.3 0.33 0.33 0 0 0 0.29 0.34 10.91 10.91 0 0 0 1.86 0.12 2 2 0 0 0 1.31 -0.64 1.52 1.52 0 0 0 0.31 -0.69 7.55 7.55 0 0 0 0.1 -1.37 20.38 20.38 0 0 0 0.1 -2.3 4.12 4.12 0 0 0 -0.48 -1.65c-0.09 -0.15 -0.21 -0.39 -0.34 -0.58a1.49 1.49 0 0 0 -0.34 -0.33 1 1 0 0 0 -0.5 -0.1c-0.25 0 -0.63 0.15 -0.78 0.17s-0.66 0 -0.95 0a1 1 0 0 0 -0.49 0.21 1.54 1.54 0 0 0 -0.31 0.38c-0.14 0.24 -0.28 0.54 -0.38 0.73a5.25 5.25 0 0 0 -0.28 0.54 0.93 0.93 0 0 0 -0.1 0.37 12.16 12.16 0 0 0 0 1.35c0.09 0.98 0.29 2 0.29 2.99Z" fill="#020202" stroke-width="1"></path>
    </g>
    <path d="M23.26 14.58c-0.16 2.46 -1.5 3.78 -2.45 4.93 -2.34 2.8 -5.86 3.4 -8.66 3.37a12.69 12.69 0 0 1 -6 -1.45 10.43 10.43 0 0 1 -3.23 -2.63 10.18 10.18 0 0 1 -2.19 -6.3c0 -1.18 -0.77 -1.11 -0.77 -0.06a9.63 9.63 0 0 0 2.24 6.91 11.08 11.08 0 0 0 3.41 3A13.51 13.51 0 0 0 12.14 24c3 0 6.87 -0.77 9.36 -3.88 1.32 -1.7 2.5 -2.96 2.5 -6.21 -0.17 -0.59 -0.51 -0.5 -0.74 0.67Z" fill="#4C57E6" stroke-width="1"></path>
    <path d="M3.39 16.6A10.86 10.86 0 0 0 5.06 18a13 13 0 0 0 1.87 1 11.36 11.36 0 0 0 2.69 0.84 13.91 13.91 0 0 0 2.79 0.24 24 24 0 0 0 4.4 -0.59c3.43 -0.73 6.34 -4.59 6.67 -7.68 0.08 -3.7 -0.69 -7.35 -4.8 -9.84a12.13 12.13 0 0 0 -14.37 0.92A8.76 8.76 0 0 0 0.93 11.4a9.44 9.44 0 0 0 2.46 5.2ZM5 3.7a11.2 11.2 0 0 1 13.2 -0.91A9.41 9.41 0 0 1 22.85 10c0.39 4.66 -3.84 8.4 -6.91 9a17.78 17.78 0 0 1 -3.53 0.33 13 13 0 0 1 -2.63 -0.27 11 11 0 0 1 -2.49 -0.82 12.26 12.26 0 0 1 -1.74 -1A9.64 9.64 0 0 1 4 16C0.12 11.93 1.41 6.76 5 3.7Z" fill="#020202" stroke-width="1"></path>
  </g>
</svg>