<svg xmlns="http://www.w3.org/2000/svg" viewBox="0 0 24 24" id="Crypto-Currency-Bitcoin-Mining--Streamline-Freehand">
  <desc>
    Crypto Currency Bitcoin Mining Streamline Icon: https://streamlinehq.com
  </desc>
  <g>
    <path d="M11.55 12.86a6.47 6.47 0 0 0 -6.16 -2.64A6.44 6.44 0 0 0 0 16.28c0 1.8 0.65 4.34 2.31 5.25A0.3 0.3 0 1 0 2.6 21C1.22 20.19 0.7 17.9 0.82 16.33a5.52 5.52 0 0 1 4.72 -5 5.4 5.4 0 0 1 5.53 2.89 5.36 5.36 0 0 1 -3.9 7.94 6.14 6.14 0 0 1 -2.63 0 0.34 0.34 0 0 0 -0.16 0.66 6.9 6.9 0 0 0 2.93 0.07 6.32 6.32 0 0 0 4.24 -10.03Z" fill="#020202" fill-rule="evenodd" stroke-width="1"></path>
    <path d="M3.62 6.75c0.16 0 0.3 0 0.37 -0.13a0.31 0.31 0 0 0 0.06 -0.19A8.5 8.5 0 0 0 3 3.68 2 2 0 0 0 2.39 3a0.34 0.34 0 0 0 -0.39 0.05c-0.55 0.36 1.3 3.66 1.62 3.7Z" fill="#4C57E6" fill-rule="evenodd" stroke-width="1"></path>
    <path d="M7.16 4.86c0.3 0 1 -1.25 0.46 -2.4a0.3 0.3 0 0 0 -0.33 -0.27 2.32 2.32 0 0 0 -0.47 2.34 0.34 0.34 0 0 0 0.34 0.33Z" fill="#4C57E6" fill-rule="evenodd" stroke-width="1"></path>
    <path d="M16.1 17.66a7.37 7.37 0 0 0 1.9 -0.37c0.27 -0.08 0.43 -0.54 -0.07 -0.7 -0.09 0 -1.48 -0.09 -1.73 -0.07s-0.51 0.12 -0.78 0.16c-0.08 0 -0.79 0 -0.92 0.28 -0.08 0.11 -0.05 0.33 0.27 0.46a7.41 7.41 0 0 0 1.33 0.24Z" fill="#4C57E6" fill-rule="evenodd" stroke-width="1"></path>
    <path d="M16.14 20.84c-2.66 -1.9 -2.8 -0.6 -2.34 -0.44a3 3 0 0 0 2.08 1.07 0.34 0.34 0 0 0 0.26 -0.63Z" fill="#4C57E6" fill-rule="evenodd" stroke-width="1"></path>
    <path d="M23.73 13.11c-3.44 -3 -2.87 -2.29 -7.59 -6.5a1.07 1.07 0 0 0 0 -1.43 4.06 4.06 0 0 1 1 -0.7 18.28 18.28 0 0 1 3.45 -1 0.67 0.67 0 0 0 0.24 -1.18 5.28 5.28 0 0 0 -1.26 -0.89 4.18 4.18 0 0 0 -4.1 0.15 6 6 0 0 0 -1.4 0.91 0.58 0.58 0 0 0 -0.74 -0.15A14 14 0 0 0 10.3 5a0.35 0.35 0 0 0 0 0.48c0.48 0.52 1.27 -1.09 3.17 -2.11a16.25 16.25 0 0 0 1.66 2.34c0.11 0.12 0.27 0.06 0 0.45a4.27 4.27 0 0 1 -0.61 0.59c-0.11 0.1 -0.3 0.32 -0.51 0.52s0.08 0.41 -1.77 -0.79c-1.87 -0.91 -1.84 -0.89 -2 -0.79a0.29 0.29 0 0 0 -0.09 0.41s0.07 0.07 0.11 0.11a3.08 3.08 0 0 0 -1.4 2.54 0.34 0.34 0 0 0 0.65 0.19 10.57 10.57 0 0 0 1.35 -2.35l0.91 0.55c1 0.78 0.82 0.62 0.74 0.69 -0.65 0.38 -0.9 0.44 -1.28 1.1L11 10a0.3 0.3 0 0 0 0.54 0.27l0.69 -0.76 0.77 -1.27c0.44 0.47 0.92 0.32 1.43 -0.07 1.24 1.64 4.72 5.84 5.7 6.74 0.52 0.46 1.24 1.41 2 0.88 0.98 -0.68 2.48 -1.91 1.6 -2.68ZM14.44 3a5.24 5.24 0 0 1 1.36 -0.69 3.63 3.63 0 0 1 3.36 0.17 1.63 1.63 0 0 1 0.31 0.17 14 14 0 0 0 -2.64 1.08 4.39 4.39 0 0 0 -1.12 0.91A13.6 13.6 0 0 1 14.44 3Zm7.11 11.81a8.67 8.67 0 0 1 -0.64 -0.75c-0.92 -0.76 -4.82 -5 -5.95 -6.3 0.23 -0.2 0.39 -0.3 0.73 -0.63 5.09 4.93 4.24 4.08 7.1 6.64a12.84 12.84 0 0 1 -1.24 1.05Z" fill="#020202" fill-rule="evenodd" stroke-width="1"></path>
    <path d="M5.61 20.6c0.3 0 0.53 -0.78 0.37 -1.08a4.88 4.88 0 0 0 0.65 0c0 0.3 0.08 1.16 0.44 1.16s0.62 -0.86 0.42 -1.31a2.58 2.58 0 0 0 0.61 -0.23 1.48 1.48 0 0 0 0.05 -2.58 1.24 1.24 0 0 0 0.49 -1.29c-0.12 -0.67 -0.73 -0.95 -1.41 -1.06 0.27 -0.72 0 -0.66 0 -1.17a0.25 0.25 0 0 0 -0.23 -0.26c-0.14 0 -0.21 0.07 -0.31 0.16a2.45 2.45 0 0 0 -0.25 0.68c-0.12 0.73 0.51 0.44 -0.74 0.55a1.51 1.51 0 0 0 0.11 -0.6c-0.12 -0.93 -0.22 -0.78 -0.34 -0.85s-0.67 0.54 -0.61 1.11a0.91 0.91 0 0 0 0.05 0.17l0 0.28c-0.9 0.17 -0.75 0.08 -0.86 0.17a0.26 0.26 0 0 0 -0.1 0.21c0 0.07 -0.25 3.24 -0.25 3.3 0 1 0.51 1.29 1.48 1.47 -0.18 0.57 0.22 1.17 0.43 1.17Zm-1 -5.68a6.64 6.64 0 0 1 2.57 0c0.33 0.09 0.62 0.19 0.65 0.47a0.57 0.57 0 0 1 -0.46 0.64c-0.85 0.31 -1.58 0 -2.92 0.12l0 -1.15Zm-0.07 3.55c-0.28 -0.24 -0.21 -1.07 -0.17 -1.51 0.59 0.1 2.79 0.05 3.29 0.44a0.56 0.56 0 0 1 -0.09 0.93 4.29 4.29 0 0 1 -2.98 0.14Z" fill="#020202" fill-rule="evenodd" stroke-width="1"></path>
  </g>
</svg>