<svg xmlns="http://www.w3.org/2000/svg" viewBox="0 0 24 24" id="Crypto-Currency-Tether--Streamline-Freehand">
  <desc>
    Crypto Currency Tether Streamline Icon: https://streamlinehq.com
  </desc>
  <g>
    <path d="M7.23 7.5a3.94 3.94 0 0 0 1.45 0.24 9.85 9.85 0 0 0 1.89 -0.29c-0.09 0.36 -0.2 0.68 -0.26 1a3.67 3.67 0 0 0 0 0.46 3.42 3.42 0 0 0 0 0.46 10.16 10.16 0 0 0 0.25 1.06 0.31 0.31 0 0 0 0.34 0.29 0.32 0.32 0 0 0 0.29 -0.35c0 -0.35 0.09 -0.68 0.13 -1l0 -0.44a3.24 3.24 0 0 0 0 -0.44c0 -0.35 -0.13 -0.68 -0.2 -1a0.27 0.27 0 0 0 -0.18 -0.27 0.26 0.26 0 0 0 0 -0.15 0.28 0.28 0 0 0 -0.33 -0.22 10.28 10.28 0 0 1 -2 0.21 3.28 3.28 0 0 1 -1.19 -0.26C7.08 6.65 7 6.4 7 6.15a1.15 1.15 0 0 1 0.71 -0.72 8.12 8.12 0 0 1 1.89 -0.15c1.7 0 3.9 0 4.62 0.1a10.57 10.57 0 0 1 2.24 0.2c0.36 0.1 0.69 0.25 0.75 0.61s-0.24 0.56 -0.61 0.7a8 8 0 0 1 -2.33 0.35l-0.69 0a1 1 0 0 0 -0.44 0.11 1.45 1.45 0 0 0 -0.56 1 9.28 9.28 0 0 0 -0.07 2 0.31 0.31 0 0 0 0.34 0.29 0.31 0.31 0 0 0 0.29 -0.33 8.91 8.91 0 0 1 0.09 -1.6c0.06 -0.33 0.1 -0.64 0.26 -0.72l0.79 0a7.45 7.45 0 0 0 3.09 -0.5 1.39 1.39 0 0 0 0.8 -1.49 1.62 1.62 0 0 0 -1 -1.26 8.08 8.08 0 0 0 -2.91 -0.45c-0.65 0 -2.45 -0.12 -4 -0.07a10.79 10.79 0 0 0 -2.79 0.33A2.06 2.06 0 0 0 6.24 6a1.26 1.26 0 0 0 0.99 1.5Z" fill="#020202" stroke-width="1"></path>
    <path d="M7.18 12.55a16 16 0 0 0 3.17 0.52h0.05l-0.19 1.6c0 0.28 -0.13 0.77 -0.13 1.18a1.5 1.5 0 0 0 0.19 0.72 1.46 1.46 0 0 0 1.32 0.65 1.38 1.38 0 0 0 1.21 -0.86 3.07 3.07 0 0 0 0.17 -1 15.29 15.29 0 0 0 -0.23 -2.12 0.27 0.27 0 0 0 0 -0.12q0.49 0 1 -0.09A8.79 8.79 0 0 0 16.93 12a1.11 1.11 0 0 0 0.6 -0.9 1.49 1.49 0 0 0 -0.69 -1.23 2.5 2.5 0 0 0 -1 -0.43 7.5 7.5 0 0 0 -1.49 -0.09 0.31 0.31 0 0 0 -0.32 0.31 0.31 0.31 0 0 0 0.31 0.32 7 7 0 0 1 1.35 0.15 1.66 1.66 0 0 1 0.71 0.33 0.93 0.93 0 0 1 0.35 0.51c0 0.12 -0.07 0.21 -0.22 0.29a7.41 7.41 0 0 1 -2.32 0.72 14.3 14.3 0 0 1 -3.74 0.07 16.48 16.48 0 0 1 -3 -0.41A2.43 2.43 0 0 1 6 10.73c0 -0.07 0 -0.11 0.1 -0.16a2 2 0 0 1 0.38 -0.24 4.85 4.85 0 0 1 1.57 -0.49 5.32 5.32 0 0 1 1.68 0.1 0.28 0.28 0 1 0 0.14 -0.54A5.77 5.77 0 0 0 8 9.18a5.55 5.55 0 0 0 -1.85 0.44 2 2 0 0 0 -1 0.77 0.85 0.85 0 0 0 0 0.77 3.21 3.21 0 0 0 2.03 1.39Zm5 0.58a0.5 0.5 0 0 0 0 0.12l0 1.75a2.52 2.52 0 0 1 -0.23 1 0.38 0.38 0 0 1 -0.34 0.18 0.4 0.4 0 0 1 -0.37 -0.15 0.77 0.77 0 0 1 -0.08 -0.36l0 -1c0 -0.26 -0.16 -0.67 -0.16 -1.02l0 -0.54c0.35 0.02 0.73 0.03 1.13 0.02Z" fill="#020202" stroke-width="1"></path>
    <path d="M23.26 14.58c-0.16 2.46 -1.5 3.78 -2.45 4.93 -2.34 2.8 -5.86 3.4 -8.66 3.37a12.69 12.69 0 0 1 -6 -1.45 10.43 10.43 0 0 1 -3.23 -2.63 10.18 10.18 0 0 1 -2.19 -6.3c0 -1.18 -0.77 -1.11 -0.77 -0.06a9.63 9.63 0 0 0 2.24 6.91 11.08 11.08 0 0 0 3.41 3A13.51 13.51 0 0 0 12.14 24c3 0 6.87 -0.77 9.36 -3.88 1.32 -1.7 2.5 -2.96 2.5 -6.21 -0.17 -0.59 -0.51 -0.5 -0.74 0.67Z" fill="#4C57E6" stroke-width="1"></path>
    <path d="M3.39 16.6A10.86 10.86 0 0 0 5.06 18a13 13 0 0 0 1.87 1 11.36 11.36 0 0 0 2.69 0.84 13.91 13.91 0 0 0 2.79 0.24 24 24 0 0 0 4.4 -0.59c3.43 -0.73 6.34 -4.59 6.67 -7.68 0.08 -3.7 -0.69 -7.35 -4.8 -9.84a12.13 12.13 0 0 0 -14.37 0.92A8.76 8.76 0 0 0 0.93 11.4a9.44 9.44 0 0 0 2.46 5.2ZM5 3.7a11.2 11.2 0 0 1 13.2 -0.91A9.41 9.41 0 0 1 22.85 10c0.39 4.66 -3.84 8.4 -6.91 9a17.78 17.78 0 0 1 -3.53 0.33 13 13 0 0 1 -2.63 -0.27 11 11 0 0 1 -2.49 -0.82 12.26 12.26 0 0 1 -1.74 -1A9.64 9.64 0 0 1 4 16C0.12 11.93 1.41 6.76 5 3.7Z" fill="#020202" stroke-width="1"></path>
  </g>
</svg>