<svg xmlns="http://www.w3.org/2000/svg" fill="none" viewBox="0 0 24 24" id="Crypto-Transaction-Monitor--Streamline-Freehand">
  <desc>
    Crypto Transaction Monitor Streamline Icon: https://streamlinehq.com
  </desc>
  <path fill="#4C57E6" fill-rule="evenodd" d="M5.22346 2.5832c0.22155 -0.12394 0.43182 -0.21929 0.63044 -0.28933 -0.09315 -0.37795 -0.05462 -0.77257 0.23657 -1.09441 0.0682 -0.07538 0.16357 -0.12054 0.26509 -0.12562 0.10152 -0.00507 0.20086 0.03036 0.27623 0.09856 0.30338 0.27448 0.36358 0.63503 0.29508 0.98134 1.15988 0.15459 1.57054 1.42677 1.05779 2.26378 0.04768 0.04062 0.09332 0.08383 0.1367 0.1295 0.21679 0.22819 0.36946 0.50959 0.4425 0.81575s0.06386 0.62618 -0.02656 0.92766c-0.09041 0.30149 -0.25889 0.57373 -0.48836 0.78916 -0.22331 0.16874 -0.47858 0.29034 -0.75034 0.35734 -0.06698 0.01651 -0.13462 0.02963 -0.20266 0.03933 0.02191 0.2881 -0.05454 0.57619 -0.27977 0.82347 -0.06843 0.07514 -0.16396 0.12002 -0.26548 0.12476 -0.10152 0.00474 -0.2007 -0.03105 -0.27584 -0.09949 -0.30807 -0.2806 -0.37013 -0.64928 -0.3034 -1.00355 -0.09656 -0.04258 -0.18994 -0.0926 -0.27928 -0.14973 -0.23581 -0.15079 -0.43845 -0.34796 -0.59568 -0.57952 -0.05125 -0.05238 -0.08601 -0.11796 -0.10093 -0.18864 -0.05413 -0.06965 -0.08281 -0.15623 -0.08043 -0.24517 -0.28432 -1.00343 -0.26742 -2.06829 0.04851 -3.06222 -0.0059 -0.04766 -0.00276 -0.09551 0.00876 -0.1412 -0.00207 -0.0597 0.00989 -0.11962 0.03566 -0.17474 0.04283 -0.09165 0.12031 -0.16251 0.2154 -0.19703Zm0.7896 1.48741c-0.03323 -0.27567 -0.09574 -0.54727 -0.18662 -0.81014 0.4887 -0.0298 1.13683 0.03117 1.0966 0.3792 -0.00632 0.15681 -0.16844 0.28366 -0.37629 0.37628 -0.17879 0.00645 -0.35708 0.0247 -0.53369 0.05466Zm0.75559 1.06049c-0.1267 0.01593 -0.25481 0.02131 -0.38304 0.01591 -0.12969 -0.00546 -0.25836 -0.02188 -0.38466 -0.04894 -0.04966 0.34372 -0.14496 0.67993 -0.28386 0.99958 0.38562 0.21437 1.1839 0.36086 1.48463 0.05307 0.05623 -0.07257 0.09604 -0.15649 0.11658 -0.24597 0.02055 -0.08947 0.02135 -0.18235 0.00242 -0.27218 -0.01894 -0.08983 -0.05715 -0.17447 -0.11207 -0.24803 -0.05491 -0.07357 -0.12524 -0.13429 -0.20598 -0.17799 -0.07742 -0.02713 -0.15546 -0.05228 -0.23402 -0.07545Z" clip-rule="evenodd" stroke-width="1"></path>
  <path fill="#4C57E6" fill-rule="evenodd" d="M17.6603 11.9319c-0.0775 -0.0661 -0.1781 -0.0986 -0.2797 -0.0905 -0.1015 0.0082 -0.1957 0.0563 -0.2617 0.1338 -0.1462 0.1716 -0.2528 0.6111 -0.3022 0.8283 -0.0454 0.1168 -0.0301 0.3233 0.0184 0.5305 -0.1835 0.065 -0.376 0.1478 -0.5774 0.2503 -0.0961 0.0315 -0.1757 0.0998 -0.2214 0.19 -0.0263 0.0519 -0.0401 0.1086 -0.0411 0.1656 -0.0127 0.0475 -0.0163 0.0974 -0.0102 0.1471 -0.3138 0.9944 -0.3298 2.0589 -0.046 3.0622 -0.0023 0.0869 0.025 0.1715 0.0767 0.2402 0.0125 0.0774 0.0486 0.1496 0.1041 0.2064 0.157 0.2315 0.3595 0.4286 0.5951 0.5793 0.1231 0.0788 0.2539 0.1441 0.3901 0.1949 -0.0247 0.3805 0.0848 0.7793 0.3236 0.9968 0.0751 0.0685 0.1743 0.1043 0.2758 0.0995 0.1015 -0.0047 0.197 -0.0496 0.2655 -0.1247 0.2385 -0.2619 0.2971 -0.5701 0.263 -0.8817 0.0292 -0.0059 0.0583 -0.0124 0.0872 -0.0195 0.2715 -0.067 0.5266 -0.1885 0.7497 -0.3572 0.2295 -0.2154 0.398 -0.4877 0.4884 -0.7892 0.0904 -0.3014 0.0996 -0.6215 0.0265 -0.9276 -0.0728 -0.3052 -0.2247 -0.5858 -0.4404 -0.8136 0.7071 -0.8592 0.2553 -2.3278 -1.1746 -2.4071 0.0259 -0.4381 -0.1144 -0.9149 -0.3094 -1.2138Zm-0.6203 3.1415c-0.0317 -0.2721 -0.092 -0.5405 -0.1799 -0.8004 0.5606 -0.0286 1.3659 0.0302 1.3294 0.3652 -0.0066 0.1523 -0.2126 0.2825 -0.4723 0.3786 -0.2268 -0.0001 -0.4533 0.0188 -0.6772 0.0566Zm0.8009 1.076c-0.273 0.0207 -0.5478 0.0001 -0.8151 -0.0611 -0.0505 0.3477 -0.1476 0.6877 -0.2894 1.0107 0.3837 0.2156 1.1846 0.3644 1.4888 0.0579 0.0562 -0.0728 0.096 -0.1569 0.1165 -0.2466 0.0206 -0.0897 0.0215 -0.1827 0.0025 -0.2728 -0.0189 -0.09 -0.0571 -0.1748 -0.112 -0.2486 -0.055 -0.0738 -0.1253 -0.1348 -0.2061 -0.1788 -0.0613 -0.0215 -0.1231 -0.0417 -0.1852 -0.0607Z" clip-rule="evenodd" stroke-width="1"></path>
  <path fill="#4C57E6" fill-rule="evenodd" d="M3.79479 0.605605c-2.18184 0 -3.281661 0.538435 -3.626161 3.062215 -0.359354 1.87405 -0.1413531 3.81304 0.625192 5.56049 0.351129 0.3746 0.782149 0.66526 1.261049 0.85039 0.4789 0.1851 0.99333 0.2599 1.50512 0.2188 0.40146 0.0313 1.35059 0.0361 2.40366 0.0228 -0.00841 0.3845 0.01874 0.769 0.08114 1.1486 -0.58408 0.0022 -1.16587 0.0946 -1.72448 0.2754 -0.52568 -0.0382 -1.09726 1.0234 1.98538 1.0489 0.79307 0.0971 2.63477 0.2542 3.27938 -0.361 0.07346 -0.0701 0.116 -0.1665 0.11837 -0.2681 0.00237 -0.1015 -0.03565 -0.1998 -0.10576 -0.2732 -0.43706 -0.458 -1.548 -0.479 -2.31842 -0.422 0.024 -0.3911 0.01667 -0.7834 -0.02181 -1.173 1.02428 -0.0256 1.97941 -0.065 2.47042 -0.1106 1.85523 -0.19399 2.94743 -0.76561 3.17703 -2.99848C13.5378 0.870985 12.1904 0.511158 8.90612 0.728066c-0.10152 0 -0.19883 0.040357 -0.27062 0.112142 -0.07178 0.071785 -0.11214 0.169142 -0.11214 0.270662 0 0.10152 0.04036 0.19887 0.11214 0.27066 0.07179 0.07178 0.1691 0.1121 0.27062 0.1121 2.82388 0.08236 2.82668 0.48157 2.83808 2.10014 0.0009 0.13661 0.0019 0.28189 0.0047 0.43641 0.12 4.03703 -0.1378 4.6903 -2.16144 4.89445 -1.08709 0.10973 -5.15726 0.15565 -5.94578 0.09696 -1.53111 -0.12249 -2.11802 -0.18373 -2.29665 -2.10017 -0.370515 -5.25731 0.59008 -5.35695 2.37349 -5.54196l0.1043 -0.01086c0.10118 -0.00372 0.1968 -0.04751 0.26572 -0.12168 0.06891 -0.07418 0.1055 -0.17267 0.10178 -0.273855C4.1866 0.871884 4.14286 0.776303 4.06868 0.70739 3.9945 0.638476 3.89597 0.601883 3.79479 0.605605Z" clip-rule="evenodd" stroke-width="1"></path>
  <path fill="#4C57E6" fill-rule="evenodd" d="M14.6966 11.673c-2.1614 0 -3.2689 0.4593 -3.6262 3.0622 -0.3776 3.4629 0.0281 6.4945 3.4144 6.6348 0.474 0.0193 1.4289 0.0296 2.4686 0.0256 -0.0005 0.21 0.0168 0.4197 0.0516 0.6267 -0.5793 0.0051 -1.156 0.1005 -1.7088 0.2842 -0.5002 -0.0178 -1.0923 1.031 2.0006 1.0539 0.7835 0.0947 2.7595 0 3.287 -0.3673 0.0718 -0.0718 0.1121 -0.1691 0.1121 -0.2706s-0.0403 -0.1989 -0.1121 -0.2707c-0.4496 -0.4496 -1.547 -0.4784 -2.3159 -0.4258 0.0084 -0.2145 0.0016 -0.4293 -0.0202 -0.6428 1.0165 -0.0161 1.9593 -0.0478 2.461 -0.0999 1.8756 -0.1965 2.95 -0.8064 3.1746 -2.9985 0.3057 -1.9845 0.0078 -4.0152 -0.8549 -5.8284 -0.6686 -0.8906 -2.0823 -0.8574 -3.2357 -0.7809 -0.1015 0.0021 -0.1981 0.0443 -0.2685 0.1176 -0.0703 0.0732 -0.1087 0.1714 -0.1067 0.2729 0.0021 0.1015 0.0443 0.198 0.1176 0.2684 0.0732 0.0703 0.1713 0.1087 0.2728 0.1067 2.2329 0.0664 2.7893 0.3317 2.8556 2.6616 0.1199 3.9681 0.1225 4.7056 -2.09 4.9199 -1.036 0.1047 -5.0501 0.1072 -6.0402 0.069 -1.7046 -0.0689 -2.0925 -0.9698 -2.2456 -2.7637 -0.377 -4.5846 0.6232 -4.6914 2.4087 -4.8819l0.0461 -0.0049c0.0505 -0.003 0.0998 -0.016 0.1453 -0.038 0.0454 -0.0221 0.086 -0.0529 0.1195 -0.0907 0.0336 -0.0378 0.0594 -0.0819 0.0759 -0.1296 0.0165 -0.0478 0.0234 -0.0983 0.0204 -0.1487 -0.003 -0.0505 -0.0159 -0.0998 -0.038 -0.1453 -0.0221 -0.0454 -0.053 -0.086 -0.0907 -0.1196 -0.0378 -0.0335 -0.0818 -0.0593 -0.1296 -0.0758 -0.0477 -0.0165 -0.0983 -0.0234 -0.1487 -0.0204Z" clip-rule="evenodd" stroke-width="1"></path>
  <path fill="#020202" fill-rule="evenodd" d="M16.7947 4.65505c0.2713 0.24457 0.692 0.6657 1.2524 1.48291 0.0609 0.0694 0.0944 0.15855 0.0944 0.25084 0 0.0923 -0.0336 0.18142 -0.0946 0.25077 -0.0609 0.06934 -0.1449 0.11418 -0.2365 0.12612 -0.0915 0.01194 -0.1842 -0.00982 -0.2608 -0.06121 -0.8141 -0.44913 -2.7204 -1.76846 -2.7459 -2.40642 -0.0255 -0.63797 1.9598 -2.04147 2.5748 -2.40128 0.0756 -0.05415 0.1683 -0.07877 0.2608 -0.06919 0.0924 0.00957 0.1782 0.05265 0.241 0.12113s0.0984 0.15765 0.1 0.25057c0.0016 0.09292 -0.0309 0.1832 -0.0914 0.2538 -0.4258 0.60622 -0.7553 0.99394 -0.9923 1.25324 0.4405 -0.04328 0.8868 -0.01905 1.3234 0.07344 0.7324 0.15521 1.4123 0.49738 1.9734 0.9932 0.5611 0.49582 0.9842 1.12841 1.2284 1.83624 0.2441 0.70784 0.3009 1.46681 0.1648 2.20309 -0.0051 0.05004 -0.0201 0.0986 -0.044 0.14282 -0.024 0.04422 -0.0565 0.08323 -0.0957 0.11479 -0.0391 0.03157 -0.0841 0.05508 -0.1324 0.06912 -0.0484 0.01404 -0.099 0.01835 -0.1489 0.01269 -0.2876 -0.03058 -0.3274 -0.27135 -0.3917 -0.65979 -0.0162 -0.0977 -0.0339 -0.20474 -0.0575 -0.32013 -0.2191 -1.03531 -0.799 -1.95907 -1.6361 -2.60644 -0.665 -0.51418 -1.4578 -0.82742 -2.2856 -0.91031Z" clip-rule="evenodd" stroke-width="1"></path>
  <path fill="#020202" fill-rule="evenodd" d="M7.64554 20.4152c-1.73816 0.1565 -5.71866 -1.3593 -5.53829 -5.4136 -0.01236 -0.0996 0.0149 -0.2002 0.07601 -0.2799 0.0611 -0.0798 0.15113 -0.1323 0.2506 -0.1462 0.30474 -0.0394 0.37202 0.1401 0.61364 0.7848 0.05581 0.1489 0.12092 0.3227 0.2004 0.5243 1.12524 2.7897 3.01466 3.1985 4.17675 3.45 0.01666 0.0036 0.03316 0.0072 0.04952 0.0107 -0.31561 -0.2611 -0.73773 -0.6674 -1.26325 -1.3274 -0.42105 -0.3674 -0.16589 -1.6791 3.40671 1.4188 0.14153 0.124 0.22323 0.3105 0.21836 0.4985 -0.00487 0.1881 -0.09615 0.3701 -0.24391 0.4865 -0.83728 0.8125 -1.77148 1.5188 -2.78151 2.1028 -0.15388 0.1237 -0.39815 0.1011 -0.52675 -0.0487 -0.12861 -0.1498 -0.11391 -0.3947 0.03169 -0.528 0.58228 -0.7787 1.02429 -1.2429 1.33003 -1.5326Z" clip-rule="evenodd" stroke-width="1"></path>
</svg>