<svg xmlns="http://www.w3.org/2000/svg" viewBox="0 0 24 24" id="Crypto-Currency-Huobi-Token--Streamline-Freehand">
  <desc>
    Crypto Currency Huobi Token Streamline Icon: https://streamlinehq.com
  </desc>
  <g>
    <path d="M10.82 16a4.9 4.9 0 0 0 5.87 -2 4.32 4.32 0 0 0 0.57 -2.57 10 10 0 0 0 -1.07 -3.63 8.22 8.22 0 0 0 -1.05 -1.65 7.33 7.33 0 0 0 -1.46 -1.32 8.21 8.21 0 0 0 -1.9 -0.94 5.88 5.88 0 0 0 -2.1 -0.36 0.27 0.27 0 0 0 -0.28 0.28 0.28 0.28 0 0 0 0.28 0.28 5.7 5.7 0 0 1 1.89 0.39 7.86 7.86 0 0 1 1.71 0.94 5.74 5.74 0 0 1 1.23 1.23 5 5 0 0 1 0.41 0.61 8.25 8.25 0 0 0 -2.37 2.08 6.22 6.22 0 0 0 -0.74 1.21 7 7 0 0 0 -0.5 1.32 7.43 7.43 0 0 0 -0.19 3.07A4.35 4.35 0 0 1 7.93 11a4.08 4.08 0 0 1 0.93 -2.4 12.24 12.24 0 0 0 1.57 -2.51 3.77 3.77 0 0 0 0.25 -1.55 0.31 0.31 0 0 0 -0.33 -0.3 0.31 0.31 0 0 0 -0.3 0.33A4 4 0 0 1 9.11 7a15.39 15.39 0 0 0 -1.68 2.45A3.89 3.89 0 0 0 7.06 11a5.28 5.28 0 0 0 3.76 5Zm1.44 -3.78c0.15 -0.39 0.32 -0.77 0.51 -1.15a10 10 0 0 1 0.62 -1.1 9 9 0 0 1 1.81 -2.2c0.07 0.13 0.14 0.26 0.2 0.39a9.17 9.17 0 0 1 0.85 3.23 3.43 3.43 0 0 1 -0.46 2 3.81 3.81 0 0 1 -4 1.75 7.52 7.52 0 0 1 0.47 -2.97Z" fill="#020202" stroke-width="1"></path>
    <path d="M23.26 14.58c-0.16 2.46 -1.5 3.78 -2.45 4.93 -2.34 2.8 -5.86 3.4 -8.66 3.37a12.69 12.69 0 0 1 -6 -1.45 10.43 10.43 0 0 1 -3.23 -2.63 10.18 10.18 0 0 1 -2.19 -6.3c0 -1.18 -0.77 -1.11 -0.77 -0.06a9.63 9.63 0 0 0 2.24 6.91 11.08 11.08 0 0 0 3.41 3A13.51 13.51 0 0 0 12.14 24c3 0 6.87 -0.77 9.36 -3.88 1.32 -1.7 2.5 -2.96 2.5 -6.21 -0.17 -0.59 -0.51 -0.5 -0.74 0.67Z" fill="#4C57E6" stroke-width="1"></path>
    <path d="M3.39 16.6a11 11 0 0 0 2.06 1.62 14.43 14.43 0 0 0 6.1 1.9 15.78 15.78 0 0 0 2.48 0.05 10.06 10.06 0 0 0 6.56 -2.75 10.12 10.12 0 0 0 2.89 -5.61c0.08 -3.7 -0.69 -7.35 -4.8 -9.84a12.13 12.13 0 0 0 -14.37 0.92A8.76 8.76 0 0 0 0.93 11.4a7.68 7.68 0 0 0 0.5 2 9.54 9.54 0 0 0 1 2 8.41 8.41 0 0 0 0.96 1.2Zm1.52 -13a11.18 11.18 0 0 1 13.2 -0.91 9.39 9.39 0 0 1 4.65 7.21c0.39 4.65 -3.84 8.4 -6.91 9a17.76 17.76 0 0 1 -3.53 0.32A12.35 12.35 0 0 1 9.69 19a11 11 0 0 1 -2.49 -0.82 12.31 12.31 0 0 1 -1.74 -1A9.57 9.57 0 0 1 4 15.89c-4 -4.03 -2.68 -9.2 0.91 -12.26Z" fill="#020202" stroke-width="1"></path>
  </g>
</svg>