<svg xmlns="http://www.w3.org/2000/svg" viewBox="0 0 24 24" id="Currency-Bag-Hand-Dollar--Streamline-Freehand">
  <desc>
    Currency Bag Hand Dollar Streamline Icon: https://streamlinehq.com
  </desc>
  <g>
    <path d="M20.34 18.07a4.53 4.53 0 0 0 -0.74 0.09c-0.86 0.17 -1.7 0.52 -2.58 0.62a23.37 23.37 0 0 1 -3.53 0.06 20.24 20.24 0 0 1 -2.5 -0.26 4.82 4.82 0 0 0 1.19 -0.86 1.69 1.69 0 0 0 0.19 -2.27A2 2 0 0 0 10 14.8a15 15 0 0 0 -4.24 2.39 1.91 1.91 0 0 1 -1 0.26 5.09 5.09 0 0 0 -1.76 0.61A10.52 10.52 0 0 0 0.55 20a0.33 0.33 0 0 0 0.46 0.46 9.8 9.8 0 0 1 2.31 -1.76 4.56 4.56 0 0 1 1.89 -0.52 2.14 2.14 0 0 0 1 -0.34 16.78 16.78 0 0 1 3.4 -2c0.8 -0.29 1.56 -0.49 1.9 0.08a0.86 0.86 0 0 1 -0.23 1.21 11.52 11.52 0 0 1 -1.73 1 0.75 0.75 0 0 0 -0.4 0.57c0 0.19 0.05 0.51 0.54 0.67a15.71 15.71 0 0 0 3.71 0.56 23.07 23.07 0 0 0 3.7 -0.06c0.91 -0.11 1.78 -0.47 2.67 -0.65a4 4 0 0 1 0.59 -0.08c0.15 0 0.25 0 0.3 0.05a0.57 0.57 0 0 1 0 0.42c-0.1 0.76 -0.88 1.41 -1.82 2a12.14 12.14 0 0 1 -4.33 1.54c-1.21 0.09 -3 0.19 -4.78 0.14A23.53 23.53 0 0 1 6.66 23a0.29 0.29 0 1 0 -0.1 0.57 25.77 25.77 0 0 0 3.23 0.35c1.81 0.1 3.63 0.06 4.85 0a13.05 13.05 0 0 0 4.77 -1.51 4.31 4.31 0 0 0 2.38 -2.66 1.66 1.66 0 0 0 -0.22 -1.21 1.31 1.31 0 0 0 -1.23 -0.47Z" fill="#020202" fill-rule="evenodd" stroke-width="1"></path>
    <path d="M23.2 12.13a8 8 0 0 0 -2 -2.85C20.14 8.23 19 7.34 18.44 6a0.32 0.32 0 0 0 0.17 -0.19 0.3 0.3 0 0 0 -0.15 -0.37 5.09 5.09 0 0 0 1.78 -2.19A2.47 2.47 0 0 0 20 0.6a0.64 0.64 0 0 0 -0.63 -0.18A4.77 4.77 0 0 0 18.2 1a1.45 1.45 0 0 1 -0.46 0.19c-0.13 0 -0.17 -0.2 -0.26 -0.32a1.91 1.91 0 0 0 -0.57 -0.65 1.11 1.11 0 0 0 -0.74 -0.22 1.27 1.27 0 0 0 -0.71 0.31 5.25 5.25 0 0 0 -0.56 0.69c-0.12 0.16 -0.21 0.36 -0.42 0.35a1.06 1.06 0 0 1 -0.5 -0.19 8.53 8.53 0 0 0 -1.73 -1c-1 -0.25 -1.6 0.06 -1.88 0.54a1.92 1.92 0 0 0 0 1.87 1.37 1.37 0 0 0 0.44 0.43 4.71 4.71 0 0 1 1.24 1 1.86 1.86 0 0 1 0.37 1.12 10.17 10.17 0 0 0 -1.37 -1 3.48 3.48 0 0 0 -0.69 -0.29 3.61 3.61 0 0 0 -0.74 -0.16 7.2 7.2 0 0 0 -1.73 0 0.33 0.33 0 0 0 0 0.66 8.19 8.19 0 0 1 1.31 0.27c0.4 0.1 0.76 0.24 1.14 0.37l0.88 0.29a3.85 3.85 0 0 0 -0.89 0.38 4.4 4.4 0 0 0 -0.9 0.71c-0.39 0.39 -0.71 0.83 -1.08 1.25a0.33 0.33 0 0 0 0 0.46 0.32 0.32 0 0 0 0.46 0c0.58 -0.43 1.17 -0.83 1.74 -1.25 0.19 -0.13 0.36 -0.26 0.54 -0.4s0.34 -0.28 0.52 -0.4a4.37 4.37 0 0 1 0.43 -0.22 0.23 0.23 0 0 0 0.12 0.06 6.59 6.59 0 0 1 -1.93 2.82c-0.41 0.4 -0.82 0.78 -1.18 1.18a8 8 0 0 0 -0.73 0.92 4.68 4.68 0 0 0 -0.86 3 0.28 0.28 0 0 0 0.29 0.29 0.29 0.29 0 0 0 0.29 -0.29 4.73 4.73 0 0 1 1.72 -3.12c0.46 -0.46 0.93 -0.91 1.38 -1.4a8.22 8.22 0 0 0 1.2 -1.71A5.58 5.58 0 0 0 12.89 6l2 0c0.65 0 1.07 -0.11 1.61 -0.1a7.49 7.49 0 0 1 1.3 0.12A9.12 9.12 0 0 0 20.43 10a8.75 8.75 0 0 1 1.78 2.5 5.76 5.76 0 0 1 0.35 3.2 2.51 2.51 0 0 1 -0.14 0.5 5.73 5.73 0 0 1 -0.42 0.8 0.33 0.33 0 0 0 0.54 0.38 6.18 6.18 0 0 0 0.53 -0.84 3.22 3.22 0 0 0 0.26 -0.66 6.26 6.26 0 0 0 -0.13 -3.75Zm-7.3 -7.37a6.59 6.59 0 0 0 -1.52 0.12c-0.44 0.07 -0.88 0.19 -1.35 0.31a2.43 2.43 0 0 0 -0.4 -1.57 4.87 4.87 0 0 0 -1.15 -1.16c-0.16 -0.14 -0.31 -0.22 -0.35 -0.3a1.09 1.09 0 0 1 0 -1c0.14 -0.2 0.42 -0.21 0.85 -0.07a2.53 2.53 0 0 1 0.75 0.47 5.89 5.89 0 0 0 1 0.67 1.93 1.93 0 0 0 0.71 0.2 1.25 1.25 0 0 0 0.76 -0.19 3.3 3.3 0 0 0 0.78 -0.8c0.11 -0.14 0.18 -0.31 0.34 -0.33s0.17 0.15 0.25 0.26a2.5 2.5 0 0 0 0.53 0.63 1.26 1.26 0 0 0 0.68 0.23 1.75 1.75 0 0 0 0.78 -0.28c0.25 -0.14 0.62 -0.49 0.84 -0.6a2 2 0 0 1 -0.11 2.08 4 4 0 0 1 -1.58 1.67 5.94 5.94 0 0 0 -1.81 -0.34Z" fill="#4C57E6" fill-rule="evenodd" stroke-width="1"></path>
    <path d="M16.48 14.09a2.82 2.82 0 0 1 -1.61 0.24 1.25 1.25 0 0 1 -0.44 -0.19 2.37 2.37 0 0 1 -0.41 -0.37 0.33 0.33 0 0 0 -0.49 0.45 3.53 3.53 0 0 0 0.59 0.57 1.62 1.62 0 0 0 0.56 0.27 2.58 2.58 0 0 0 0.51 0.09 1.15 1.15 0 0 0 0 0.26 1.9 1.9 0 0 0 0 0.25c0.05 0.22 0.12 0.39 0.17 0.61a0.32 0.32 0 0 0 0.31 0.34 0.32 0.32 0 0 0 0.35 -0.31 4 4 0 0 0 0.21 -0.61 1.26 1.26 0 0 0 0 -0.27 1.23 1.23 0 0 0 0 -0.27 1 1 0 0 0 0 -0.1 3.92 3.92 0 0 0 1 -0.34 1.62 1.62 0 0 0 1 -1.79 1.35 1.35 0 0 0 -0.78 -1 4.53 4.53 0 0 0 -1.85 -0.19 2.73 2.73 0 0 1 -0.66 0 0.41 0.41 0 0 1 -0.3 -0.21c-0.23 -0.46 0.06 -0.77 0.47 -0.95a3 3 0 0 1 1.69 -0.18 0.29 0.29 0 0 0 0.36 -0.2 0.3 0.3 0 0 0 -0.2 -0.36A3.42 3.42 0 0 0 16 9.7s0 -0.07 0 -0.11a0.74 0.74 0 0 0 0 -0.26 1.13 1.13 0 0 0 0 -0.25c0 -0.21 -0.11 -0.38 -0.16 -0.6a0.33 0.33 0 0 0 -0.66 0 6.5 6.5 0 0 0 -0.22 0.62 1.24 1.24 0 0 0 0 0.27 0.74 0.74 0 0 0 0 0.26c0 0.07 0 0.14 0.07 0.2a2.73 2.73 0 0 0 -0.68 0.24 1.41 1.41 0 0 0 -0.68 1.87 1.37 1.37 0 0 0 0.9 0.84 6.74 6.74 0 0 0 1.78 0.14c0.35 0 0.69 0 0.78 0.34s-0.23 0.64 -0.65 0.83Z" fill="#020202" fill-rule="evenodd" stroke-width="1"></path>
  </g>
</svg>