<svg xmlns="http://www.w3.org/2000/svg" viewBox="0 0 24 24" id="Currency-Dollar-Increase--Streamline-Freehand">
  <desc>
    Currency Dollar Increase Streamline Icon: https://streamlinehq.com
  </desc>
  <g>
    <path d="M6 15.85a0.38 0.38 0 0 0 0 0.53 4.2 4.2 0 0 0 2.75 1c0 0.32 0 0.65 0.09 1a0.36 0.36 0 0 0 0.39 0.36 0.38 0.38 0 0 0 0.36 -0.39l0 -0.94a4.36 4.36 0 0 0 1 -0.18 2.31 2.31 0 0 0 1.75 -2.9 1.62 1.62 0 0 0 -1.16 -1.21A4.17 4.17 0 0 0 9.76 13l0 -0.93v-0.77a4.13 4.13 0 0 1 1.35 0.3 0.32 0.32 0 0 0 0.45 -0.14 0.33 0.33 0 0 0 -0.14 -0.44 4.82 4.82 0 0 0 -1.67 -0.53l0 -1.8a0.32 0.32 0 0 0 -0.3 -0.36 0.31 0.31 0 0 0 -0.35 0.29c-0.12 0.6 -0.19 1.22 -0.29 1.82a3.63 3.63 0 0 0 -1 0.14 1.88 1.88 0 0 0 -1.5 2.25 1.56 1.56 0 0 0 1 1.3 3.05 3.05 0 0 0 1.13 0.17l0 0.66c0 0.52 0.09 1 0.13 1.56a3.29 3.29 0 0 1 -2.15 -0.66 0.38 0.38 0 0 0 -0.42 -0.01Zm4.68 -1.59a0.54 0.54 0 0 1 0.5 0.37c0.32 1 -0.53 1.55 -1.51 1.77 0 -0.49 0 -1 0.06 -1.46l0 -0.7h0.15a3.23 3.23 0 0 1 0.76 0.02Zm-3.21 -1.67c-0.18 -0.77 0.42 -1.13 1.14 -1.27h0.06c0 0.23 -0.08 0.45 -0.1 0.68s-0.05 0.7 -0.06 1.05c-0.51 0.03 -0.92 0.04 -1.04 -0.46Z" fill="#020202" fill-rule="evenodd" stroke-width="1"></path>
    <path d="M15.24 21.58a6.71 6.71 0 0 1 -2.7 1 10.26 10.26 0 0 1 -2.95 0.29 20.68 20.68 0 0 1 -2.38 -0.39 8.88 8.88 0 0 1 -1.48 -0.4 6 6 0 0 1 -3.29 -3s0 -0.08 0 -0.12l0 0.05a8.91 8.91 0 0 0 1.29 1 10.1 10.1 0 0 0 1.45 0.79 9.53 9.53 0 0 0 2.07 0.62 10.21 10.21 0 0 0 2.13 0.17A11.29 11.29 0 0 0 13.2 21a6.26 6.26 0 0 0 2.21 -1.46 0.39 0.39 0 0 0 0 -0.53 0.37 0.37 0 0 0 -0.53 0 5.63 5.63 0 0 1 -2.53 1.39 11.37 11.37 0 0 1 -3 0.29 9 9 0 0 1 -1.92 -0.21 7.82 7.82 0 0 1 -1.82 -0.62 7.72 7.72 0 0 1 -1.25 -0.73 6.45 6.45 0 0 1 -1.09 -0.94c-2.8 -2.86 -1.76 -6.7 0.79 -9a7.52 7.52 0 0 1 9.67 -0.64 4.08 4.08 0 0 1 0.83 0.83 6.81 6.81 0 0 1 0.66 1 0.32 0.32 0 0 0 0.44 0.16 0.34 0.34 0 0 0 0.16 -0.44A8.3 8.3 0 0 0 15 8.72a4.33 4.33 0 0 0 -0.8 -0.8 8.39 8.39 0 0 0 -10.92 0.34A7.65 7.65 0 0 0 0.67 16.1 10 10 0 0 0 2 20.5a7 7 0 0 0 3.28 2.75A9.53 9.53 0 0 0 7 23.7a20.64 20.64 0 0 0 2.54 0.3 11.93 11.93 0 0 0 3.25 -0.51 7.68 7.68 0 0 0 3 -1.4 0.36 0.36 0 0 0 0 -0.53 0.38 0.38 0 0 0 -0.55 0.02Z" fill="#4C57E6" fill-rule="evenodd" stroke-width="1"></path>
    <path d="M21.29 11.06c-0.31 0 -0.45 0.17 -0.63 1.77a3.9 3.9 0 0 0 0 0.59l0 0.6c0.17 1.75 0.37 1.73 0.54 1.73s0.41 0.05 0.67 -1.71a4.52 4.52 0 0 0 0 -1.2c-0.17 -1.55 -0.25 -1.77 -0.58 -1.78Z" fill="#020202" fill-rule="evenodd" stroke-width="1"></path>
    <path d="M23.44 5.61a12.5 12.5 0 0 0 -0.89 -1.2L19.11 0.25s-0.51 -0.48 -0.8 -0.1c-0.9 1.06 -1.79 2.12 -2.63 3.22 -0.36 0.47 -0.7 1 -1 1.43a5.37 5.37 0 0 0 -0.35 0.53 4.2 4.2 0 0 0 -0.3 0.6 2.73 2.73 0 0 0 -0.15 0.46 0.64 0.64 0 0 0 0.25 0.69 0.88 0.88 0 0 0 0.45 0.1c0.21 0 0.54 -0.1 0.67 -0.11 0.44 0 0.88 -0.08 1.32 -0.14l0.09 0c0 0.34 -0.05 0.68 -0.07 1v0.71c0 0.23 0 0.47 0.08 0.7 0.08 0.56 0.21 1.08 0.29 1.63a0.34 0.34 0 1 0 0.67 0 15.62 15.62 0 0 0 0.24 -1.69 5.77 5.77 0 0 0 0 -0.72q0 -0.36 -0.09 -0.72c-0.06 -0.37 -0.14 -0.73 -0.22 -1.1l0.33 -0.06a0.33 0.33 0 0 0 -0.16 -0.68 16.15 16.15 0 0 1 -2.4 0l0.32 -0.51c0.34 -0.48 0.69 -1 1 -1.46 0.68 -1 1.33 -2.08 2 -3.12 0.5 0.87 1 1.7 1.56 2.5 0.42 0.59 0.88 1.15 1.33 1.74 0.09 0.11 0.32 0.35 0.55 0.59l0.05 0 -1.49 0.26s-0.72 0.31 -0.71 0.61 -0.12 0.73 -0.16 1.12a3.65 3.65 0 0 0 0 0.47 2.5 2.5 0 0 0 0.05 0.47c0.07 0.37 0.19 0.7 0.28 1.08a0.34 0.34 0 0 0 0.34 0.33 0.32 0.32 0 0 0 0.33 -0.32 9 9 0 0 0 0.22 -1.1 2.57 2.57 0 0 0 0 -0.48 4 4 0 0 0 0 -0.48c-0.06 -0.34 -0.17 -0.66 -0.25 -1l1.85 0 0.52 0a0.53 0.53 0 0 0 0.5 -0.45 1.13 1.13 0 0 0 -0.18 -0.64Z" fill="#020202" fill-rule="evenodd" stroke-width="1"></path>
    <path d="M19.3 11.47a0.37 0.37 0 0 0 -0.4 0.35c-0.12 0.86 -0.24 1.72 -0.3 2.59 0 0.37 -0.06 0.74 -0.06 1.1l0 1.1c0.05 0.86 0.14 1.7 0.16 2.56a0.33 0.33 0 0 0 0.31 0.36 0.33 0.33 0 0 0 0.35 -0.3 24.81 24.81 0 0 0 0.42 -3 17.42 17.42 0 0 0 0 -1.77c0 -0.88 -0.12 -1.75 -0.14 -2.63a0.38 0.38 0 0 0 -0.34 -0.36Z" fill="#020202" fill-rule="evenodd" stroke-width="1"></path>
    <path d="M17.41 12.94a0.37 0.37 0 1 0 -0.74 0c-0.1 0.91 -0.21 1.82 -0.26 2.74l0 1.18c0 0.4 0 0.78 0.06 1.18 0.09 0.92 0.26 1.82 0.42 2.73a0.34 0.34 0 0 0 0.36 0.3 0.33 0.33 0 0 0 0.3 -0.35c0 -0.91 0.1 -1.81 0.13 -2.72l0 -1.16 0 -1.16c-0.13 -0.94 -0.21 -1.84 -0.27 -2.74Z" fill="#020202" fill-rule="evenodd" stroke-width="1"></path>
  </g>
</svg>