<svg xmlns="http://www.w3.org/2000/svg" viewBox="0 0 24 24" id="Currency-Bag-Nagras--Streamline-Freehand">
  <desc>
    Currency Bag Nagras Streamline Icon: https://streamlinehq.com
  </desc>
  <g>
    <path d="M21.79 15.48a13.52 13.52 0 0 0 -0.29 -2.2 9.47 9.47 0 0 0 -0.72 -2.12 14.93 14.93 0 0 0 -1.44 -2.38 11 11 0 0 0 -1.75 -1.85c0.2 -0.09 0.4 -0.16 0.59 -0.26a0.32 0.32 0 0 0 0.17 -0.42 0.33 0.33 0 0 0 -0.43 -0.17 5.79 5.79 0 0 1 -0.77 0.25A10.12 10.12 0 0 0 18 4.81a5.23 5.23 0 0 0 0.47 -2 3.85 3.85 0 0 0 -0.23 -1.28 1.9 1.9 0 0 0 -0.57 -0.82 1.15 1.15 0 0 0 -1.09 0c-0.49 0.18 -1.14 0.56 -1.67 0.8 -0.18 0.07 -0.31 0.16 -0.41 0.14s-0.18 -0.2 -0.27 -0.35a5.36 5.36 0 0 0 -0.55 -0.77 1.59 1.59 0 0 0 -0.53 -0.37 1.56 1.56 0 0 0 -0.93 0A4.31 4.31 0 0 0 11 0.73a8 8 0 0 1 -0.78 0.47c-0.11 0 -0.37 -0.14 -0.61 -0.26A3.59 3.59 0 0 0 8 0.36c-0.46 0 -0.91 0.32 -0.83 1.32l0.08 0.76 0.22 1.06a6.18 6.18 0 0 0 0.23 0.73 5.56 5.56 0 0 0 0.3 0.71 8.12 8.12 0 0 0 0.6 1.13c0.08 0.13 0.17 0.24 0.26 0.36l-0.36 0A4.83 4.83 0 0 1 7.38 6a0.27 0.27 0 0 0 -0.38 0.15 0.28 0.28 0 0 0 0.11 0.38 4.23 4.23 0 0 0 0.42 0.22A24.7 24.7 0 0 0 5.39 9a19.72 19.72 0 0 0 -1.88 2.6 7.81 7.81 0 0 0 -0.7 1.4 9.15 9.15 0 0 0 -0.44 1.55 6.75 6.75 0 0 0 1.41 6 10.2 10.2 0 0 0 5.43 3 13.24 13.24 0 0 0 8.69 -0.69 7 7 0 0 0 3.64 -4.65 8.28 8.28 0 0 0 0.23 -1.38 8.05 8.05 0 0 0 0.02 -1.35ZM9.14 5.75a7.69 7.69 0 0 1 -0.52 -1.08c-0.08 -0.22 -0.16 -0.44 -0.23 -0.66s-0.12 -0.46 -0.17 -0.69l-0.15 -1 0 -0.69 0 -0.34a0.56 0.56 0 0 1 0.15 0l0.34 0.15c0.35 0.19 0.72 0.44 1 0.59a1.41 1.41 0 0 0 0.78 0.17 2.48 2.48 0 0 0 1 -0.42 7.66 7.66 0 0 1 1 -0.65 0.58 0.58 0 0 1 0.44 -0.07c0.15 0.06 0.24 0.22 0.35 0.37a6.39 6.39 0 0 0 0.52 0.74 1.23 1.23 0 0 0 0.61 0.4 1.65 1.65 0 0 0 1 -0.16c0.5 -0.22 1.13 -0.63 1.63 -0.87a1 1 0 0 1 0.35 -0.1 1.26 1.26 0 0 1 0.28 0.49 3.57 3.57 0 0 1 0.16 0.83 4.29 4.29 0 0 1 -0.33 1.72 9.5 9.5 0 0 1 -1.06 2c-0.41 0.06 -0.84 0.11 -1.27 0.14l-2.3 0c-0.76 0 -1.6 0 -2.33 -0.12l-0.68 0c-0.25 -0.24 -0.42 -0.5 -0.57 -0.75Zm11.75 11a6.63 6.63 0 0 1 -0.24 1.25 6.09 6.09 0 0 1 -3.23 4 12.19 12.19 0 0 1 -8 0.57 9.24 9.24 0 0 1 -4.92 -2.63 5.88 5.88 0 0 1 -1.35 -5.2 8.56 8.56 0 0 1 1 -2.79 19.9 19.9 0 0 1 1.73 -2.59A24.14 24.14 0 0 1 8 7.08S8 7 8.05 7s0.18 0.07 0.27 0.09a14.9 14.9 0 0 0 1.87 0.43c0.51 0.08 1.05 0.17 1.6 0.21a14.2 14.2 0 0 0 2.44 0 12.38 12.38 0 0 0 2.69 -0.53 0.25 0.25 0 0 0 0.08 0.1 10.48 10.48 0 0 1 1.78 1.92 13.84 13.84 0 0 1 1.32 2.29 8.56 8.56 0 0 1 0.61 2 13.11 13.11 0 0 1 0.23 2.08 8.74 8.74 0 0 1 -0.05 1.19Z" fill="#4C57E6" stroke-width="1"></path>
    <path d="m16.42 15.76 -1.11 -0.13 0 -0.67 0 -1 1 -0.09a0.32 0.32 0 0 0 0 -0.64l-1 -0.06c0 -0.22 0 -0.44 -0.05 -0.67 0 -0.48 -0.1 -1 -0.17 -1.43a0.31 0.31 0 0 0 -0.35 -0.28 0.32 0.32 0 0 0 -0.28 0.36c0 0.46 0.08 0.93 0.1 1.4l0 0.57 -0.92 -0.08 -1.17 0a13.2 13.2 0 0 0 -0.93 -1.84 0.67 0.67 0 0 0 -0.84 -0.29A1.63 1.63 0 0 0 10 12a7.13 7.13 0 0 0 -0.09 1.23c-0.38 0.07 -0.75 0.15 -1.13 0.25a0.28 0.28 0 0 0 -0.22 0.33 0.27 0.27 0 0 0 0.32 0.23 9 9 0 0 1 1 0v0.2L10 16l-0.93 0.27a0.28 0.28 0 0 0 -0.22 0.33 0.28 0.28 0 0 0 0.33 0.22c0.3 0 0.61 -0.05 0.91 -0.07l0.23 2.05a0.28 0.28 0 0 0 0.32 0.25 0.3 0.3 0 0 0 0.25 -0.31l-0.13 -2 1.29 0 0.57 0c0.12 0.34 0.25 0.69 0.39 1a4.63 4.63 0 0 0 0.53 1 1 1 0 0 0 0.67 0.43 0.6 0.6 0 0 0 0.61 -0.43 11.83 11.83 0 0 0 0.32 -1.5l0.08 -0.72 1.13 0a0.32 0.32 0 0 0 0.34 -0.3 0.32 0.32 0 0 0 -0.27 -0.46Zm-5.52 -3.28a1.55 1.55 0 0 1 0 -0.21c0.12 0.25 0.24 0.54 0.35 0.79l-0.47 0c0.06 -0.16 0.08 -0.38 0.12 -0.58Zm0.72 3.18c-0.3 0.05 -0.59 0.12 -0.87 0.19l0 -1.6V14l0.74 0h0.19c0.11 0.26 0.22 0.51 0.31 0.77s0.18 0.5 0.27 0.75ZM14.27 17c0 0.06 0 0.5 -0.07 0.86 -0.08 -0.22 -0.15 -0.49 -0.19 -0.6s-0.18 -0.48 -0.26 -0.72l0.6 -0.06Zm0.25 -2.07 0 0.62 -0.63 0h-0.45c-0.12 -0.36 -0.23 -0.71 -0.36 -1.07 0 -0.12 -0.11 -0.24 -0.16 -0.37h0.4c0.42 0 0.84 0 1.26 -0.05 -0.05 0.28 -0.05 0.58 -0.06 0.88Z" fill="#020202" stroke-width="1"></path>
  </g>
</svg>