<svg xmlns="http://www.w3.org/2000/svg" viewBox="0 0 24 24" id="Currency-Rand-Symbol--Streamline-Freehand">
  <desc>
    Currency Rand Symbol Streamline Icon: https://streamlinehq.com
  </desc>
  <path d="M20 21.32c-2.71 -2.43 -4.93 -4.93 -8.07 -6.54l-0.31 -0.15a12.72 12.72 0 0 0 3.16 -0.78 6.67 6.67 0 0 0 4.28 -4.63A8.09 8.09 0 0 0 17.82 3c-1.31 -2 -4 -3.06 -6.67 -3S5.84 1.27 4.92 3.65a17.5 17.5 0 0 0 -1 6.06c-0.05 4.44 1 9.24 1 14a0.28 0.28 0 0 0 0.28 0.29 0.29 0.29 0 0 0 0.29 -0.28c0.08 -3.29 -0.36 -6.6 -0.59 -9.8l0.09 0c0.15 0 0.74 0.19 1 0.25s0.75 0.17 1.13 0.24 0.75 0.13 1.14 0.18 1 0.09 1.52 0.1a13.8 13.8 0 0 1 1.89 0.76c3.09 1.53 5.3 4 8 6.32a0.34 0.34 0 0 0 0.46 0 0.33 0.33 0 0 0 -0.13 -0.45Zm-8.61 -7.67a15.4 15.4 0 0 1 -2 0.1 24.33 24.33 0 0 0 -4.56 -0.59c-0.07 -1.17 -0.1 -2.32 -0.07 -3.44A16.37 16.37 0 0 1 5.8 4c0.81 -2 3.07 -2.92 5.37 -2.94s4.61 0.83 5.73 2.55A6.94 6.94 0 0 1 18 9a5.63 5.63 0 0 1 -3.61 3.92 12 12 0 0 1 -3 0.73Z" fill="#020202" stroke-width="1"></path>
</svg>