<svg xmlns="http://www.w3.org/2000/svg" viewBox="0 0 24 24" id="Currency-Won-Symbol--Streamline-Freehand">
  <desc>
    Currency Won Symbol Streamline Icon: https://streamlinehq.com
  </desc>
  <path d="m23.71 8.73 -2.33 -0.26A39 39 0 0 0 20.72 1a0.33 0.33 0 0 0 -0.38 -0.25 0.33 0.33 0 0 0 -0.25 0.38 38.4 38.4 0 0 1 0.56 7.28c-1.71 -0.16 -3.43 -0.28 -5.16 -0.33l-2.87 0c-0.24 -2.2 -0.26 -3.49 -0.27 -3.64a0.35 0.35 0 0 0 0 -0.07c-0.18 -0.88 -0.94 -1.45 -1.07 0.06v0.71l-0.12 1.4L11 8.1a62.65 62.65 0 0 0 -7.52 0.73C3.35 6.42 3.32 4 3.39 1.62a0.29 0.29 0 0 0 -0.57 0c-0.1 2.43 -0.11 4.88 0 7.33 -0.82 0.11 -1.73 0.25 -2.58 0.41a0.29 0.29 0 0 0 -0.24 0.32 0.29 0.29 0 0 0 0.32 0.24c0.84 -0.11 1.68 -0.19 2.52 -0.27 0.08 1.53 0.17 2.87 0.4 4.87l-2.7 0.4a0.29 0.29 0 0 0 -0.25 0.32 0.28 0.28 0 0 0 0.32 0.24l2.71 -0.23c0.11 0.85 0.22 1.7 0.35 2.54A12.26 12.26 0 0 0 5 22.11a2.21 2.21 0 0 0 2 1.14 2.45 2.45 0 0 0 1.76 -1.05A8 8 0 0 0 10 19.68a50.55 50.55 0 0 0 1.3 -4.93l1.43 -0.06c0.86 3.58 1.52 6.83 2.89 7.78a2.26 2.26 0 0 0 2.75 -0.26c1.92 -1.31 2.43 -5.17 2.72 -7.64 0.68 0 1.37 0.06 2.05 0.13a0.33 0.33 0 0 0 0.36 -0.27 0.32 0.32 0 0 0 -0.28 -0.36c-0.68 -0.11 -1.37 -0.18 -2.06 -0.23 0.13 -1.29 0.22 -2.63 0.25 -4v-0.61c0.76 0 1.52 0.08 2.28 0.14a0.32 0.32 0 1 0 0.06 -0.64Zm-20.19 0.86c2.78 -0.24 5 -0.32 7.37 -0.4 -0.12 1.12 -0.22 2.67 -0.52 4.54 -1.48 0.09 -2.94 0.2 -6.38 0.68 -0.24 -1.87 -0.41 -3.76 -0.47 -4.82ZM9 19.4a7.1 7.1 0 0 1 -1 2.22 1.56 1.56 0 0 1 -1.1 0.71c-0.65 0 -1.08 -0.52 -1.43 -1.2a13.7 13.7 0 0 1 -1 -3.48c-0.14 -0.81 -0.27 -1.64 -0.39 -2.46 2.48 -0.19 4.26 -0.29 6.08 -0.38A46.79 46.79 0 0 1 9 19.4Zm2.44 -5.74c0.24 -1.51 0.38 -3.05 0.39 -3.16 0.31 2 0.56 3 0.58 3.13 -0.31 0.01 -0.64 0.01 -0.96 0.03Zm8.05 4.8c-0.68 2.56 -2.62 4.47 -3.81 2.78a14.47 14.47 0 0 1 -1.42 -4.34l-0.53 -2.25 0.56 0c1.14 0 2.28 -0.07 3.42 -0.07h2.51a33.21 33.21 0 0 1 -0.72 3.88Zm0.82 -4.67 -2.58 -0.12c-1.42 -0.07 -2.83 -0.1 -4.25 -0.08 0 -0.1 -0.41 -1.74 -0.76 -4.45l2.75 -0.05c1.72 0 3.44 0 5.15 0.1a44.41 44.41 0 0 1 -0.3 4.6Z" fill="#020202" stroke-width="1"></path>
</svg>