<svg xmlns="http://www.w3.org/2000/svg" viewBox="0 0 24 24" id="Currency-Yen-Circle--Streamline-Freehand">
  <desc>
    Currency Yen Circle Streamline Icon: https://streamlinehq.com
  </desc>
  <g>
    <path d="M7.73 5.3c1.4 0.7 1.78 2.53 3.4 3.7 0.18 0.11 0.41 0.35 0.65 0.49 0.56 0.33 0.45 0 0.34 0.33a4.82 4.82 0 0 0 -0.07 0.86 7.14 7.14 0 0 0 -1.34 0.16c-0.7 0.12 -2 0.26 -1.86 0.78a0.31 0.31 0 0 0 0.12 0.21c0.28 0.28 1.71 0 1.8 0l1.26 0a5.24 5.24 0 0 0 0 0.72c-0.53 0 -3.25 0.41 -3.37 0.88 0 0.12 -0.07 0.37 0.25 0.43a12.12 12.12 0 0 1 2 -0.12l1.21 0 0.06 0.46a4 4 0 0 0 0.15 1.63 0.33 0.33 0 0 0 0.49 0.22c0.38 -0.12 0.39 -1.46 0.41 -2.37a24 24 0 0 1 2.63 -0.1 0.36 0.36 0 0 0 0.09 -0.72 15.09 15.09 0 0 0 -2.75 -0.34c0 -0.24 -0.06 -0.49 -0.11 -0.74l1.29 -0.08a5.54 5.54 0 0 0 1.63 -0.06 0.39 0.39 0 0 0 0.05 -0.78A25.61 25.61 0 0 0 13 10.6a2.78 2.78 0 0 0 -0.29 -1 1 1 0 0 0 0.41 -0.25c0.44 -0.44 2.86 -4.85 2 -5.23a0.39 0.39 0 0 0 -0.51 0.28c0 0.06 -0.06 0.31 -0.09 0.4A21.6 21.6 0 0 1 12.6 8c-0.58 1 -2.73 -2 -3.66 -2.69A3.77 3.77 0 0 0 8 4.72a0.32 0.32 0 0 0 -0.27 0.58Z" fill="#020202" fill-rule="evenodd" stroke-width="1"></path>
    <g>
      <path d="M7.66 18.86a20 20 0 0 0 10.1 -0.58c2.26 -0.84 5.21 -3.21 5.92 -5.79a8.1 8.1 0 0 0 -1.58 -7C15.77 -3 -2.77 2.06 0.28 12.61c0.77 3.39 4.17 5.67 7.38 6.25ZM4.2 4.52C8.84 1.06 17.46 0.48 21.39 6 26 12.4 20 19.84 7.87 17.67 1.1 16.51 -1.54 8.79 4.2 4.52Z" fill="#020202" fill-rule="evenodd" stroke-width="1"></path>
      <path d="M23.28 15c-0.26 3 -3.08 4.73 -6 5.74a20.1 20.1 0 0 1 -9.51 0.47 7.93 7.93 0 0 1 -6.84 -6.27c0 -0.64 -0.8 -1.61 -0.81 -0.77 0 3.7 2.83 7.3 7.48 8.22 11 2 16.82 -3.05 16.44 -8.24 -0.29 -0.73 -0.66 -0.06 -0.76 0.85Z" fill="#4C57E6" fill-rule="evenodd" stroke-width="1"></path>
    </g>
  </g>
</svg>