<svg xmlns="http://www.w3.org/2000/svg" viewBox="0 0 24 24" id="Customer-Action-Complaint--Streamline-Freehand">
  <desc>
    Customer Action Complaint Streamline Icon: https://streamlinehq.com
  </desc>
  <g>
    <path d="M6.45 4.27a0.73 0.73 0 0 0 -0.77 0.56c-0.15 0.4 0.08 0.93 0.78 0.9s0.9 -1.42 -0.01 -1.46Z" fill="#020202" fill-rule="evenodd" stroke-width="1"></path>
    <path d="M19.45 5.67a0.79 0.79 0 0 0 -0.83 0.6c-0.17 0.43 0.09 1 0.85 1s0.97 -1.56 -0.02 -1.6Z" fill="#020202" fill-rule="evenodd" stroke-width="1"></path>
    <path d="M15.74 5.89a0.79 0.79 0 0 0 -0.83 0.6c-0.16 0.43 0.09 1 0.85 1s0.97 -1.56 -0.02 -1.6Z" fill="#020202" fill-rule="evenodd" stroke-width="1"></path>
    <path d="M22.11 2.13a5.83 5.83 0 0 0 -4.7 -1.88A7.92 7.92 0 0 0 13.36 2a6.21 6.21 0 0 0 -2.21 3.85 5.37 5.37 0 0 0 2 4.81c3.68 3.14 8 0.48 8.9 -0.33a5.5 5.5 0 0 0 2 -3.55 6.19 6.19 0 0 0 -1.94 -4.65Zm-0.71 7.5c-1.11 1 -4.56 3.23 -7.65 0.33A4.34 4.34 0 0 1 12.31 6a5.07 5.07 0 0 1 1.89 -3 6.71 6.71 0 0 1 3.36 -1.42A4.62 4.62 0 0 1 21.23 3a5.12 5.12 0 0 1 1.68 3.68 4.51 4.51 0 0 1 -1.51 2.95Z" fill="#020202" fill-rule="evenodd" stroke-width="1"></path>
    <path d="M19.63 3.62a1.61 1.61 0 0 0 -0.39 0.16 1.72 1.72 0 0 0 -0.33 0.26c-0.18 0.19 -0.85 1 -0.57 1.32 0 0 0.08 0.34 1.4 -0.31a3.46 3.46 0 0 0 0.45 -0.29c0.89 -0.64 1 -0.66 0.94 -1 -0.13 -0.49 -1.24 -0.22 -1.5 -0.14Z" fill="#020202" fill-rule="evenodd" stroke-width="1"></path>
    <path d="M15.53 5c1.24 0.65 1.33 0.35 1.35 0.33 0.27 -0.28 -0.31 -1.11 -0.48 -1.31a1.1 1.1 0 0 0 -0.31 -0.25 1.41 1.41 0 0 0 -0.37 -0.18c-0.34 -0.11 -1.34 -0.34 -1.45 0.17 -0.06 0.27 0 0.27 0.86 1a3.6 3.6 0 0 0 0.4 0.24Z" fill="#020202" fill-rule="evenodd" stroke-width="1"></path>
    <path d="M18.37 8.1a2.87 2.87 0 0 0 -0.83 -0.1 2.73 2.73 0 0 0 -0.85 0.12 2.54 2.54 0 0 0 -1.54 1.24 0.35 0.35 0 1 0 0.55 0.42 2.11 2.11 0 0 1 1.3 -0.43 5.49 5.49 0 0 1 0.58 0 5.82 5.82 0 0 1 0.59 0 2.53 2.53 0 0 1 1.32 0.39 0.4 0.4 0 0 0 0.56 0 0.39 0.39 0 0 0 0 -0.57 3.12 3.12 0 0 0 -1.68 -1.07Z" fill="#020202" fill-rule="evenodd" stroke-width="1"></path>
    <path d="M18.26 15.65c-0.11 -0.29 -0.21 -0.57 -0.34 -0.84 -0.32 -0.66 -0.7 -1.25 -1 -1.85a0.36 0.36 0 0 0 -0.46 -0.2 0.35 0.35 0 0 0 -0.2 0.45c0.18 0.76 0.33 1.55 0.57 2.34 0.14 0.44 0.32 0.88 0.49 1.32 0.26 0.66 0.56 1.3 0.76 1.95a0.4 0.4 0 0 0 -0.48 -0.1 43 43 0 0 1 -4.41 2.18 24.41 24.41 0 0 1 -4.64 1.43 11.82 11.82 0 0 1 -2 0.25 1.81 1.81 0 0 1 -1 -0.22l-0.67 -1.55a22.59 22.59 0 0 1 -1.09 -2.47c-0.47 -1.29 -0.85 -2.61 -1.22 -3.93 -0.26 -0.93 -0.52 -1.87 -0.74 -2.82 -0.13 -0.62 -0.26 -1.25 -0.35 -1.88a5.08 5.08 0 0 1 -0.11 -1.18A1.26 1.26 0 0 1 1.41 8a1 1 0 0 1 0.74 -0.39c0.47 -0.1 1 -0.14 1.4 -0.26a2 2 0 0 0 0.85 -0.47 0.75 0.75 0 0 0 0.19 -0.44c0 -0.29 -0.1 -1 -0.06 -1.16a2.31 2.31 0 0 1 2.21 -2 1.07 1.07 0 0 1 0.69 0.13 3.41 3.41 0 0 1 0.68 0.78A2 2 0 0 0 9.26 5a0.8 0.8 0 0 0 0.48 0c0.19 -0.06 0.47 -0.2 1.06 -0.38a0.35 0.35 0 0 0 0.2 -0.48 0.34 0.34 0 0 0 -0.43 -0.24l-1.15 0.35a1.45 1.45 0 0 1 -0.85 -0.7 3.22 3.22 0 0 0 -0.7 -0.81 2 2 0 0 0 -1.17 -0.32 3.37 3.37 0 0 0 -2 0.74 3.32 3.32 0 0 0 -1.18 1.89c0 0.16 -0.25 0.94 -0.09 1.17a3.55 3.55 0 0 1 -0.78 0.12 5.2 5.2 0 0 0 -1.53 0.34 1.75 1.75 0 0 0 -0.77 0.68A2.57 2.57 0 0 0 0 8.46a7 7 0 0 0 0.1 1.45c0.08 0.66 0.2 1.33 0.34 2 0.21 1 0.47 1.94 0.73 2.89 0.38 1.36 0.77 2.72 1.28 4a23.6 23.6 0 0 0 1.2 2.61c0.18 0.29 0.41 1 0.67 1.43a1.69 1.69 0 0 0 0.42 0.5 2.66 2.66 0 0 0 1.35 0.4 10.56 10.56 0 0 0 2.66 -0.34 23.89 23.89 0 0 0 3.87 -1.24A41.64 41.64 0 0 0 18 19.44a0.38 0.38 0 0 0 0.15 -0.48 0.39 0.39 0 0 0 0.38 0.18 0.39 0.39 0 0 0 0.32 -0.47 12.45 12.45 0 0 0 -0.32 -2.14c-0.09 -0.29 -0.17 -0.59 -0.27 -0.88Z" fill="#020202" fill-rule="evenodd" stroke-width="1"></path>
    <path d="M3.21 8.8a2 2 0 0 0 -0.45 1.7l0.16 1.11 0.43 1.6 0.79 2.67 1.38 3.56a8.26 8.26 0 0 0 0.38 1 0.81 0.81 0 0 0 0.43 0.38 1.46 1.46 0 0 0 0.56 0.07 4.28 4.28 0 0 0 0.85 -0.16A11.82 11.82 0 0 0 9 20.37c0.56 -0.23 1.13 -0.5 1.68 -0.75s1 -0.41 1.51 -0.59 1.05 -0.34 1.57 -0.5a5.1 5.1 0 0 0 1.06 -0.28 0.82 0.82 0 0 0 0.42 -0.45 2 2 0 0 0 0 -1.16 6.88 6.88 0 0 0 -0.52 -1.31L14 13.9l-0.95 -2a0.4 0.4 0 0 0 -0.52 -0.21 0.41 0.41 0 0 0 -0.21 0.53l0.87 2.08 0.63 1.45c0.78 1.88 0.72 1.39 -2 2.21 -0.55 0.17 -1.1 0.35 -1.63 0.56s-1.11 0.46 -1.68 0.67a10.39 10.39 0 0 1 -1.08 0.34l-0.34 0.06c-0.08 -0.23 -0.29 -0.54 -0.31 -0.61L5.4 15.46l-0.89 -2.63 -0.51 -1.5 -0.19 -0.92c-0.06 -0.47 -0.07 -0.73 0.08 -0.91A3.36 3.36 0 0 1 5 9l2 -0.85 2.39 -0.9a0.35 0.35 0 0 0 0.24 -0.44 0.36 0.36 0 0 0 -0.44 -0.24l-2.47 0.81 -2 0.75a4.07 4.07 0 0 0 -1.51 0.67Z" fill="#4C57E6" fill-rule="evenodd" stroke-width="1"></path>
    <path d="M8.19 9.18a3.86 3.86 0 0 0 -0.6 0.32 7.72 7.72 0 0 0 -1.2 1 0.34 0.34 0 0 0 -0.11 0.48 0.36 0.36 0 0 0 0.49 0.11c0.46 -0.19 0.92 -0.3 1.39 -0.46l0.57 -0.23c0.19 -0.08 0.37 -0.18 0.55 -0.27 0.44 -0.22 0.85 -0.45 1.31 -0.64a0.42 0.42 0 0 0 0.3 -0.48 0.41 0.41 0 0 0 -0.49 -0.3A10.13 10.13 0 0 0 8.84 9c-0.22 0 -0.44 0.1 -0.65 0.18Z" fill="#4C57E6" fill-rule="evenodd" stroke-width="1"></path>
    <path d="M10.69 11.33a10.52 10.52 0 0 0 -1.93 0.41A8.21 8.21 0 0 0 8 12a7.09 7.09 0 0 0 -0.72 0.38c-0.56 0.33 -1 0.73 -1.56 1.08a0.35 0.35 0 1 0 0.3 0.63c0.68 -0.21 1.37 -0.38 2.06 -0.65 0.39 -0.16 0.76 -0.35 1.14 -0.54a18.59 18.59 0 0 1 1.68 -0.82 0.4 0.4 0 0 0 -0.19 -0.78Z" fill="#4C57E6" fill-rule="evenodd" stroke-width="1"></path>
    <path d="M11.89 13.84a11.47 11.47 0 0 0 -1.82 0.4 7.61 7.61 0 0 0 -0.75 0.28 6.66 6.66 0 0 0 -0.69 0.38 12.26 12.26 0 0 0 -1.45 1.19 0.35 0.35 0 0 0 0.39 0.59c0.59 -0.28 1.24 -0.46 1.88 -0.73 0.36 -0.16 0.71 -0.34 1.06 -0.52 0.56 -0.29 1.07 -0.6 1.6 -0.82a0.4 0.4 0 1 0 -0.22 -0.77Z" fill="#4C57E6" fill-rule="evenodd" stroke-width="1"></path>
  </g>
</svg>