<svg xmlns="http://www.w3.org/2000/svg" viewBox="0 0 24 24" id="Dahsboard-Gauge-Dashboard--Streamline-Freehand">
  <desc>
    Dahsboard Gauge Dashboard Streamline Icon: https://streamlinehq.com
  </desc>
  <g>
    <path d="M24 15a8.72 8.72 0 0 0 -0.45 -2.57 12.89 12.89 0 0 0 -7.12 -6.87 11.81 11.81 0 0 0 -9.94 0.35 11.57 11.57 0 0 0 -5.4 5.46A12.71 12.71 0 0 0 0.26 19a0.56 0.56 0 0 0 0.54 0.42l22.71 -0.34a0.33 0.33 0 0 0 0.34 -0.26A23.86 23.86 0 0 0 24 15Zm-0.75 3.42 -22 -0.08a11.67 11.67 0 0 1 0.87 -6.48A10.53 10.53 0 0 1 7 6.9a10.73 10.73 0 0 1 9.05 -0.46 12 12 0 0 1 6.78 6.23 7.77 7.77 0 0 1 0.46 2.33 21.26 21.26 0 0 1 -0.06 3.38Z" fill="#020202" fill-rule="evenodd" stroke-width="1"></path>
    <path d="m15.54 10.69 -0.94 0.88c-0.2 0.2 -0.43 0.39 -0.64 0.63a6.08 6.08 0 0 0 -0.54 0.69 14.69 14.69 0 0 0 -0.78 1.36 1.43 1.43 0 0 0 -0.34 -0.14 1.53 1.53 0 0 0 -0.64 0 1.91 1.91 0 0 0 -1.36 1.18 1.74 1.74 0 0 0 2.9 1.82 2 2 0 0 0 0.54 -2.26 8.52 8.52 0 0 1 1.12 -1.91c0.19 -0.24 0.34 -0.49 0.5 -0.72l0.63 -1a0.34 0.34 0 1 0 -0.45 -0.52Zm-3 5.67a0.74 0.74 0 0 1 -1 0 0.69 0.69 0 0 1 -0.19 -0.7 1 1 0 0 1 0.56 -0.73 0.7 0.7 0 0 1 0.36 -0.06c1.73 0.31 0.4 1.41 0.29 1.49Z" fill="#4C57E6" fill-rule="evenodd" stroke-width="1"></path>
    <path d="M5 15.71a4.13 4.13 0 0 0 -0.92 -0.16 2 2 0 0 0 -0.43 0c-0.15 0 -0.27 0.1 -0.41 0.14 -0.73 0.26 -0.56 0.13 -0.68 0.22a0.3 0.3 0 0 0 -0.07 0.42c0 0.07 0.11 0.1 0.24 0.16a4.24 4.24 0 0 0 0.55 0.15l0.3 0.07a1.55 1.55 0 0 0 0.43 0c0.35 -0.06 0.65 -0.23 1 -0.3a0.35 0.35 0 0 0 0 -0.7Z" fill="#020202" fill-rule="evenodd" stroke-width="1"></path>
    <path d="M12 8.9a0.35 0.35 0 0 0 0.32 -0.37c0.05 -0.18 0.13 -0.35 0.17 -0.56a1 1 0 0 0 0 -0.24 0.83 0.83 0 0 0 0 -0.22c-0.26 -1 -0.46 -0.86 -0.47 -0.86a0.31 0.31 0 0 0 -0.36 0.25 1.93 1.93 0 0 0 -0.29 0.61 0.74 0.74 0 0 0 0 0.26 1.09 1.09 0 0 0 0 0.25c0.3 0.85 0.47 0.89 0.63 0.88Z" fill="#020202" fill-rule="evenodd" stroke-width="1"></path>
    <path d="M6.27 11.72a1.86 1.86 0 0 0 -0.75 -0.35 1.11 1.11 0 0 0 -0.36 0 2.87 2.87 0 0 0 -0.31 0.05c-0.08 0 -1 0.31 -0.88 0.46 -0.1 0.21 0.48 0.45 0.86 0.61a2.57 2.57 0 0 0 0.4 0.05 1.91 1.91 0 0 0 0.33 -0.06 1.78 1.78 0 0 1 0.44 -0.12 0.34 0.34 0 0 0 0.46 -0.18 0.36 0.36 0 0 0 -0.19 -0.46Z" fill="#020202" fill-rule="evenodd" stroke-width="1"></path>
    <path d="M8.43 8.79c-0.06 -0.14 -0.16 -0.27 -0.23 -0.4s-0.7 -0.84 -0.94 -0.5c-0.19 0.13 -0.12 0.3 -0.08 0.64l0 0.4a2.19 2.19 0 0 0 0.21 0.4 2.71 2.71 0 0 0 0.61 0.52 0.35 0.35 0 0 0 0.48 0.1 0.34 0.34 0 0 0 0.1 -0.48c-0.08 -0.24 -0.07 -0.47 -0.15 -0.68Z" fill="#020202" fill-rule="evenodd" stroke-width="1"></path>
    <path d="M17.09 8.34A1.8 1.8 0 0 0 16 9.85c0.06 0.22 0.72 0.16 1.43 -0.51 0.15 -0.13 0.11 -0.33 0.19 -0.51a0.36 0.36 0 0 0 0 -0.49 0.34 0.34 0 0 0 -0.53 0Z" fill="#020202" fill-rule="evenodd" stroke-width="1"></path>
    <path d="M20 12.31a2.38 2.38 0 0 0 0.49 -0.56 0.35 0.35 0 1 0 -0.39 -0.57c-0.22 0.06 -0.43 0 -0.65 0.12a3 3 0 0 0 -0.38 0.24l-0.36 0.48 -0.11 0.11s0 0.48 0.45 0.41l0.17 0 0.39 0a2.46 2.46 0 0 0 0.39 -0.23Z" fill="#020202" fill-rule="evenodd" stroke-width="1"></path>
    <path d="M21.82 15.89c-0.29 -0.08 -0.55 -0.19 -0.85 -0.25a1.62 1.62 0 0 0 -0.38 0 6 6 0 0 0 -1 0.27c-0.09 0 -0.61 0.54 0.8 0.86a1.39 1.39 0 0 0 0.41 0 5.53 5.53 0 0 0 1.06 -0.21 0.35 0.35 0 0 0 0.35 -0.35 0.34 0.34 0 0 0 -0.39 -0.32Z" fill="#020202" fill-rule="evenodd" stroke-width="1"></path>
  </g>
</svg>