<svg xmlns="http://www.w3.org/2000/svg" viewBox="0 0 24 24" id="Dancing-Ballet-Dress--Streamline-Freehand">
  <desc>
    Dancing Ballet Dress Streamline Icon: https://streamlinehq.com
  </desc>
  <title>dancing-ballet-dress</title>
  <g>
    <path d="M5.65 12.7c-0.17 0.11 -0.31 0.23 -0.47 0.34l-0.56 0.33a1.15 1.15 0 0 0 -0.41 0.28 0.26 0.26 0 0 0 0 0.31c0 0.08 0.11 0.17 0.3 0.19l0.1 0 0.27 -0.08 0.76 -0.16c0.23 -0.07 0.46 -0.14 0.7 -0.23l0.66 -0.36a5.41 5.41 0 0 1 0.71 -0.32c0.56 -0.21 -0.13 -1.13 -1.25 -0.7a5.13 5.13 0 0 0 -0.81 0.4Z" fill="#4C57E6" stroke-width="1"></path>
    <path d="M8.27 14.77a3.15 3.15 0 0 0 -0.54 0.49c-0.11 0.12 -0.2 0.25 -0.3 0.38s-0.51 0.7 -0.67 0.91l-0.12 0.14c-0.1 0.22 0 0.36 0 0.4s0.14 0.15 0.29 0.09 1.16 -0.75 1.26 -0.83l1.56 -1.41a2.4 2.4 0 0 0 0.44 -0.34c0.29 -0.38 -0.28 -0.69 -0.71 -0.51l-0.18 0.09a5.28 5.28 0 0 0 -1.03 0.59Z" fill="#4C57E6" stroke-width="1"></path>
    <path d="M11.36 18.2a0.35 0.35 0 0 0 0.7 0c0.07 -0.48 0.21 -0.94 0.27 -1.44l0 -0.62a5.13 5.13 0 0 0 -0.08 -0.61 6.5 6.5 0 0 0 -0.2 -0.77c-0.13 -0.25 -0.55 -0.17 -0.67 0.11a9.25 9.25 0 0 0 -0.23 2 11.1 11.1 0 0 0 0.21 1.33Z" fill="#4C57E6" stroke-width="1"></path>
    <path d="M14 14.26c0.2 0.12 0.39 0.29 0.59 0.42a2.63 2.63 0 0 1 0.51 0.34l0.86 0.83a0.34 0.34 0 0 0 0.46 0.16 0.36 0.36 0 0 0 0.16 -0.47 5.74 5.74 0 0 0 -0.29 -0.65 5.16 5.16 0 0 0 -0.36 -0.62 2.43 2.43 0 0 0 -0.88 -0.65 3.62 3.62 0 0 0 -0.87 -0.23c-0.65 -0.08 -1 0.38 -0.72 0.6a2.31 2.31 0 0 1 0.54 0.27Z" fill="#4C57E6" stroke-width="1"></path>
    <path d="M23.1 12a4.76 4.76 0 0 0 -1.41 -1 8.81 8.81 0 0 0 -2.39 -0.59 8.34 8.34 0 0 0 -1.43 -0.06 6.49 6.49 0 0 0 -1.43 0.2l-0.16 0.05 0 -0.11c0.28 -0.73 0.46 -1.91 0.64 -2.26a12.88 12.88 0 0 0 1.38 -2.47 3.08 3.08 0 0 0 -0.19 -2.07 3.11 3.11 0 0 0 -2.84 -2.06 4.23 4.23 0 0 0 -3.24 1.42 4 4 0 0 0 -0.53 0.77l0 0.18a1.74 1.74 0 0 0 -0.11 -0.18 5.63 5.63 0 0 0 -0.54 -0.72 3.53 3.53 0 0 0 -2.09 -1.39 4.43 4.43 0 0 0 -2.4 0.47A3.56 3.56 0 0 0 5.14 3a2.88 2.88 0 0 0 -0.72 1.4 3.21 3.21 0 0 0 0.27 1.93A7.91 7.91 0 0 0 6.2 8.47a7.41 7.41 0 0 1 0.73 2.26l-0.22 -0.1a6.25 6.25 0 0 0 -0.71 -0.21 5.29 5.29 0 0 0 -0.77 -0.11 5.49 5.49 0 0 0 -2.42 0.44 5 5 0 0 0 -2 1.43c-0.11 0.15 -0.22 0.29 -0.31 0.44s-0.25 0.44 -0.37 0.67a0.68 0.68 0 0 0 -0.13 0.31 3.34 3.34 0 0 0 0.08 0.4 3.26 3.26 0 0 0 0.38 1.14 2.42 2.42 0 0 0 0.84 0.92c0.2 0.12 0.4 0.24 0.61 0.34a4.69 4.69 0 0 0 0.67 0.27l0.29 0.07c-0.15 0.21 -0.36 0.55 0 1.29a3.42 3.42 0 0 0 0.58 0.82 5.73 5.73 0 0 0 1.13 0.9 3.42 3.42 0 0 0 1 0.41 2.63 2.63 0 0 0 0.55 0.09l0.62 0.1 0.48 0.7a3.55 3.55 0 0 0 1.56 1 4.66 4.66 0 0 0 1.77 0.22 4.32 4.32 0 0 0 0.93 -0.16 3.78 3.78 0 0 0 0.9 -0.37l0.48 -0.43a1.64 1.64 0 0 0 0.22 0.14 3.52 3.52 0 0 0 0.39 0.17 3.67 3.67 0 0 0 1.39 0.17 4.31 4.31 0 0 0 1.32 -0.31 3.28 3.28 0 0 0 1 -0.62 3.92 3.92 0 0 0 0.75 -0.85c0 -0.06 0.07 -0.16 0.11 -0.26a3.25 3.25 0 0 0 1.87 -0.34 3.31 3.31 0 0 0 0.85 -0.74c0.71 -0.85 0.55 -1.23 0.54 -1.44a9.06 9.06 0 0 0 1 -0.24 2.85 2.85 0 0 0 1.64 -1.72A3.43 3.43 0 0 0 23.1 12ZM5.73 5.88a2.19 2.19 0 0 1 -0.18 -1.25A1.75 1.75 0 0 1 6 3.82a2.33 2.33 0 0 1 0.82 -0.56 3.48 3.48 0 0 1 1.77 -0.39 2.41 2.41 0 0 1 1.39 1 3.59 3.59 0 0 1 0.44 0.57 5.58 5.58 0 0 1 0.35 0.63l0.3 0.87a0.69 0.69 0 0 0 0.17 0.24 0.51 0.51 0 0 0 0.77 0 0.74 0.74 0 0 0 0.18 -0.35c0 -0.08 0.07 -0.7 0.08 -0.75a2.78 2.78 0 0 1 0.24 -0.64 3.42 3.42 0 0 1 0.38 -0.58 3.21 3.21 0 0 1 2.4 -1.14 2.21 2.21 0 0 1 2.05 1.38 2.34 2.34 0 0 1 0.19 1.51 11.69 11.69 0 0 1 -1.25 2.33c-0.16 0.33 -0.31 1.33 -0.53 2.09s-0.62 1.3 -2.55 2.76c-0.67 0.51 -1.23 1 -1.47 1a3.07 3.07 0 0 1 -1.58 -0.79A15.1 15.1 0 0 1 8 10.89a18.53 18.53 0 0 1 -0.63 -2.38A2.27 2.27 0 0 0 7 7.76a7.34 7.34 0 0 1 -1.27 -1.88ZM23 15a1.93 1.93 0 0 1 -1.15 1.11c-0.14 0.06 -0.72 0.14 -1 0.19a0.72 0.72 0 0 0 -0.37 0.17 0.67 0.67 0 0 0 -0.16 0.31c0 0.15 0 0.51 -0.06 0.6a1.94 1.94 0 0 1 -0.39 0.64 2.44 2.44 0 0 1 -0.58 0.49 1.5 1.5 0 0 1 -0.56 0.17 2.91 2.91 0 0 1 -0.91 -0.05 0.7 0.7 0 0 0 -0.61 0.14 0.81 0.81 0 0 0 -0.19 0.27 2 2 0 0 1 -0.14 0.39 2.69 2.69 0 0 1 -0.53 0.6 2.24 2.24 0 0 1 -0.65 0.4 3.25 3.25 0 0 1 -1 0.22 2.53 2.53 0 0 1 -0.94 -0.11l-0.38 -0.21a1.49 1.49 0 0 0 -0.34 -0.3 0.6 0.6 0 0 0 -0.51 0 1.87 1.87 0 0 0 -0.29 0.2c-0.19 0.15 -0.32 0.39 -0.53 0.51a2.62 2.62 0 0 1 -0.62 0.26 4.27 4.27 0 0 1 -0.7 0.12A3.58 3.58 0 0 1 9.1 21a2.32 2.32 0 0 1 -1 -0.66s-0.41 -0.77 -0.47 -0.87a0.72 0.72 0 0 0 -0.26 -0.24 0.78 0.78 0 0 0 -0.37 -0.09l-1.2 0a2.93 2.93 0 0 1 -0.8 -0.39 6.13 6.13 0 0 1 -0.77 -0.62 2.33 2.33 0 0 1 -0.35 -0.44 0.82 0.82 0 0 1 -0.15 -0.4c0 -0.08 0.12 -0.55 0.14 -0.74a0.59 0.59 0 0 0 -0.18 -0.55 0.53 0.53 0 0 0 -0.26 -0.15c-0.14 0 -0.5 -0.09 -0.56 -0.11a2.83 2.83 0 0 1 -0.55 -0.21c-0.19 -0.08 -0.38 -0.18 -0.55 -0.27a1.64 1.64 0 0 1 -0.54 -0.57 4 4 0 0 1 -0.41 -1.07c0 -0.06 0.56 -1 0.56 -1a4.28 4.28 0 0 1 1.69 -1.25A4.79 4.79 0 0 1 5.16 11a4.06 4.06 0 0 1 0.68 0.08 4.69 4.69 0 0 1 0.67 0.17c0.12 0 0.28 0.14 0.42 0.19a0.93 0.93 0 0 0 0.32 0.05 10.53 10.53 0 0 0 2.37 2.19 4.75 4.75 0 0 0 1.38 0.82 1.58 1.58 0 0 0 1.45 -0.15 21.09 21.09 0 0 0 3.28 -3 0.39 0.39 0 0 0 0.21 0.08l0.7 -0.17a5.83 5.83 0 0 1 1.28 -0.15 6.7 6.7 0 0 1 1.29 0.09 9.56 9.56 0 0 1 1.84 0.43 4 4 0 0 1 1.47 1c0.08 0.09 0.19 0.2 0.29 0.33a0.64 0.64 0 0 1 0.12 0.25A2.93 2.93 0 0 1 23 15Z" fill="#020202" stroke-width="1"></path>
    <path d="M16.67 13.45c0.28 0.11 0.57 0.19 0.85 0.27 0.09 0 0.3 0.18 0.42 0.22a0.59 0.59 0 0 0 0.21 0 0.34 0.34 0 0 0 0.34 -0.35s0.05 -0.25 -0.59 -0.69c-0.3 -0.2 -0.58 -0.44 -0.9 -0.61a3.18 3.18 0 0 0 -0.77 -0.26c-0.05 0 -0.23 0 -0.48 -0.05 -0.86 -0.1 -1.2 0.51 -0.84 0.8a5 5 0 0 1 1 0.34 5.42 5.42 0 0 1 0.76 0.33Z" fill="#4C57E6" stroke-width="1"></path>
  </g>
</svg>