<svg xmlns="http://www.w3.org/2000/svg" viewBox="0 0 24 24" id="Dashboard-Pie-Line-Graph-Desktop--Streamline-Freehand">
  <desc>
    Dashboard Pie Line Graph Desktop Streamline Icon: https://streamlinehq.com
  </desc>
  <g>
    <path d="M24 8.78c-0.06 -1.33 -0.18 -2.67 -0.3 -4a10 10 0 0 0 -0.22 -1.92A2 2 0 0 0 23 2a1.56 1.56 0 0 0 -0.52 -0.34 6.9 6.9 0 0 0 -1.1 -0.29 14.62 14.62 0 0 0 -1.61 -0.27c-0.8 -0.1 -1.6 -0.15 -2.41 -0.19C15.7 0.81 14.08 0.8 12.45 0.85 9.7 0.93 9.78 1 2.93 1.51c-0.7 0.06 -1.2 0.11 -1.27 0.13A2 2 0 0 0 1 2a2.64 2.64 0 0 0 -0.45 0.56A4.22 4.22 0 0 0 0.11 4 15.33 15.33 0 0 0 0 6.13l0 3.32c0.07 1.64 0.19 3.29 0.27 4.93a25.11 25.11 0 0 0 0.06 2.85 3.6 3.6 0 0 0 0.46 1.3 1.2 1.2 0 0 0 0.51 0.46 3.41 3.41 0 0 0 1.09 0.26c0.49 0.06 1 0.1 1.48 0.12 0.73 0 1.47 0 2.19 0.05l3.81 0 -0.15 0.58c-0.05 0.29 -0.12 0.58 -0.15 0.87a12.52 12.52 0 0 0 0 1.37l-0.74 0.07 -0.34 0a0.19 0.19 0 0 0 -0.15 0 0.3 0.3 0 0 0 -0.2 0.37s0.07 0.18 0.29 0.23l0.39 0c0.53 0.05 1.49 0.16 2.58 0.2h1.11c0.37 0 0.74 0 1.1 -0.05 1.08 -0.07 2 -0.19 2.56 -0.24l0.38 0a0.4 0.4 0 0 0 0.36 -0.34 0.34 0.34 0 0 0 -0.34 -0.34h-0.07c0 -0.06 -0.18 0 -0.35 0l-1 0a9.71 9.71 0 0 0 0 -1.2 4.63 4.63 0 0 0 -0.06 -0.55 4 4 0 0 0 -0.09 -0.59c-0.07 -0.21 -0.16 -0.4 -0.24 -0.58l3.79 -0.2c0.71 0 2 0.05 3 -0.1a2.91 2.91 0 0 0 1.45 -0.57 2.1 2.1 0 0 0 0.63 -1 6 6 0 0 0 0.2 -1.48l0.17 -4.39 0 -2.7ZM0.85 4.12a3.44 3.44 0 0 1 0.36 -1.18 1.4 1.4 0 0 1 0.3 -0.39 1.3 1.3 0 0 1 0.39 -0.25c2.44 -0.22 6.77 -0.65 10.57 -0.71 1.6 0 3.2 0 4.79 0.13 0.79 0.05 1.57 0.11 2.35 0.22 0.51 0.07 1 0.16 1.52 0.28a7.21 7.21 0 0 1 0.83 0.21 0.91 0.91 0 0 1 0.35 0.19 1.39 1.39 0 0 1 0.3 0.71 12.6 12.6 0 0 1 0.1 1.53c0.11 1.32 0.2 2.64 0.24 4l0 2.62 -0.15 3.26h-0.46c-1.21 0.06 -2.42 0.23 -3.64 0.24l-10.28 -0.21 -5 0.24a8.47 8.47 0 0 0 -0.88 0.07 8.7 8.7 0 0 0 -0.87 0.13l-0.41 0.1 0 -1C1.17 12.69 1 11 0.91 9.4 0.85 8.31 0.8 7.22 0.8 6.13a15.2 15.2 0 0 1 0.05 -2.01ZM13.9 20c0 0.17 0 0.35 0.08 0.53s0.08 0.34 0.13 0.52 0.2 0.64 0.29 1l-0.82 0 -1.1 0 -1.09 0c-0.35 0 -0.76 0.06 -1.1 0.09 0.12 -0.38 0.27 -0.75 0.37 -1.14a8.7 8.7 0 0 0 0.15 -0.89l0 -0.75h0.32l2.77 -0.12c-0.03 0.25 -0.02 0.51 0 0.76Zm8.69 -3a1.06 1.06 0 0 1 -0.31 0.5 2.38 2.38 0 0 1 -1.28 0.33c-0.92 0.07 -1.95 0 -2.54 0 -2.48 0.13 -4.94 0.27 -7.4 0.36 -1.64 0.06 -3.28 0.09 -4.92 0.08l-2.17 0c-0.47 0 -0.94 0 -1.4 -0.09a4.46 4.46 0 0 1 -0.57 -0.06c-0.1 0 -0.21 -0.05 -0.26 -0.13a2.91 2.91 0 0 1 -0.39 -1.29l0 -0.83a3.66 3.66 0 0 1 0.52 0c0.27 0 0.54 -0.06 0.81 -0.08h0.82l5 0.07c2.07 0 4.12 0.15 6.18 0.15 1.38 0 2.76 -0.05 4.14 -0.13 1.08 -0.07 2.14 -0.26 3.21 -0.38l0.83 -0.06 0 0.4a4.69 4.69 0 0 1 -0.27 1.16Z" fill="#020202" stroke-width="1"></path>
    <path d="M3.86 8.09c0.48 0.13 0.45 0.07 2 -1.12 0 0 2 -1.37 2.58 -1.88 0.2 0.06 0.49 0.22 0.61 0.26 0.56 0.15 1.1 0.34 1.63 0.53s1.07 0.41 1.57 0.62a11.31 11.31 0 0 0 1.09 0.5 2.45 2.45 0 0 0 0.79 0.12 1.57 1.57 0 0 0 0.78 -0.22 3.86 3.86 0 0 0 0.63 -0.55c2.09 -1.61 2.46 -1.97 2.79 -2.44 0.11 -0.17 -0.11 -0.59 -0.44 -0.59a1.46 1.46 0 0 0 -0.67 0.18 5.75 5.75 0 0 0 -0.84 0.57C14 5.9 14.22 5.92 13.43 5.54c-0.53 -0.24 -1.09 -0.48 -1.68 -0.7s-1.21 -0.42 -1.83 -0.59A8.69 8.69 0 0 0 8.72 4a2.82 2.82 0 0 0 -0.92 0 1.91 1.91 0 0 0 -0.74 0.29 4.81 4.81 0 0 0 -0.55 0.51L4.78 6.52l-0.71 0.7 -0.3 0.3a1.06 1.06 0 0 0 -0.16 0.15c-0.16 0.25 0.11 0.38 0.25 0.42Z" fill="#4C57E6" stroke-width="1"></path>
    <path d="M6.1 13.25c0.27 0 0.45 -0.21 0.41 -0.41s0.23 -0.42 0.29 -0.66a2.77 2.77 0 0 0 0 -0.5c-0.07 -0.11 -0.08 -0.85 -0.63 -0.92a0.59 0.59 0 0 0 -0.63 0.3l-0.09 0.2 -0.24 0.44a3.44 3.44 0 0 0 0 0.46 2 2 0 0 0 0.37 0.78c-0.01 0.2 0.25 0.34 0.52 0.31Z" fill="#4C57E6" stroke-width="1"></path>
    <path d="M8.8 8.32c-0.2 0.11 -0.2 1.31 -0.27 1.78a11.64 11.64 0 0 0 0.05 1.18A14.35 14.35 0 0 0 9 13.05c0 0.2 0.25 0.35 0.52 0.34S10 13.2 10 13c0.06 -0.6 0.19 -1.18 0.19 -1.78a9.62 9.62 0 0 0 -0.12 -1.22c-0.61 -1.87 -0.95 -2.19 -1.27 -1.68Z" fill="#4C57E6" stroke-width="1"></path>
    <path d="M12.51 10.74c-0.38 0.42 -0.21 0.54 -0.31 0.88a2.53 2.53 0 0 0 0 0.55s0.34 1.23 0.94 1.19c0.27 0 0.47 -0.19 0.44 -0.39a5.35 5.35 0 0 0 0.24 -0.87c0.08 -0.88 -0.95 -1.77 -1.31 -1.36Z" fill="#4C57E6" stroke-width="1"></path>
    <path d="M17.23 8.82c-0.13 -0.28 -0.72 -0.46 -0.91 -0.13a11.6 11.6 0 0 0 -0.2 1.4 7.08 7.08 0 0 0 0 0.92c0 0.31 0.14 0.6 0.21 0.91s0.06 0.38 0.12 0.57a1.16 1.16 0 0 0 0.14 0.34 0.6 0.6 0 0 0 0.64 0.21c0.81 -0.2 0.53 -2 0.53 -2.08a7.52 7.52 0 0 0 -0.11 -0.94c-0.08 -0.35 -0.34 -0.9 -0.42 -1.2Z" fill="#4C57E6" stroke-width="1"></path>
  </g>
</svg>