<svg xmlns="http://www.w3.org/2000/svg" viewBox="0 0 24 24" id="Dashboard-Corners-Circles--Streamline-Freehand">
  <desc>
    Dashboard Corners Circles Streamline Icon: https://streamlinehq.com
  </desc>
  <g>
    <path d="M10.28 3.2a3.71 3.71 0 0 0 -0.28 -0.53 0.36 0.36 0 0 0 -0.62 0.33l0.35 1A4 4 0 0 1 7.2 8.66 4.26 4.26 0 0 1 2 7.46a3.66 3.66 0 0 1 -0.63 -3.14 4.21 4.21 0 0 1 2 -2.7A4.37 4.37 0 0 1 5.86 1a5.55 5.55 0 0 1 2.53 0.81 0.32 0.32 0 0 0 0.45 -0.09 0.33 0.33 0 0 0 -0.1 -0.45A6.36 6.36 0 0 0 5.93 0.24a5.28 5.28 0 0 0 -3 0.53A5.22 5.22 0 0 0 0.27 4a4.76 4.76 0 0 0 0.8 4.19 5.38 5.38 0 0 0 6.57 1.45 4.9 4.9 0 0 0 2.84 -5.88 5.31 5.31 0 0 0 -0.2 -0.56Z" fill="#4C57E6" fill-rule="evenodd" stroke-width="1"></path>
    <path d="M15.37 9.08a5.63 5.63 0 0 0 1.28 0.63 0.38 0.38 0 0 0 0.47 -0.23 0.37 0.37 0 0 0 -0.23 -0.48A4 4 0 0 1 15 7.58a3.75 3.75 0 0 1 -0.56 -3.28 4.2 4.2 0 0 1 2.09 -2.58 4.33 4.33 0 0 1 2.78 -0.42 4.78 4.78 0 0 1 2.52 1.16 4.58 4.58 0 0 1 0.5 0.74 3.69 3.69 0 0 1 0.34 0.79A3.81 3.81 0 0 1 22 7.5a4.93 4.93 0 0 1 -3.34 1.78 0.32 0.32 0 0 0 -0.29 0.35 0.31 0.31 0 0 0 0.34 0.29 5.71 5.71 0 0 0 4 -1.86 4.78 4.78 0 0 0 1.05 -4.34 4.88 4.88 0 0 0 -0.39 -1.07 5 5 0 0 0 -0.59 -0.93A5.86 5.86 0 0 0 19.51 0.08 5.42 5.42 0 0 0 16 0.67 5.3 5.3 0 0 0 13.45 4a4.65 4.65 0 0 0 0.88 4.06 5.05 5.05 0 0 0 1.04 1.02Z" fill="#020202" fill-rule="evenodd" stroke-width="1"></path>
    <path d="M10.14 16.66a6.71 6.71 0 0 0 -0.57 -0.92 5.89 5.89 0 0 0 -3.17 -1.67 5.46 5.46 0 0 0 -3.55 0.53A5.34 5.34 0 0 0 0.25 18a4.74 4.74 0 0 0 0.88 4.14A5 5 0 0 0 4.72 24a5.82 5.82 0 0 0 3.81 -1.11 0.36 0.36 0 0 0 0.09 -0.51 0.38 0.38 0 0 0 -0.51 -0.09 5 5 0 0 1 -3.31 0.82A4 4 0 0 1 2 21.46a3.65 3.65 0 0 1 -0.55 -3.19 4.17 4.17 0 0 1 2 -2.59 4.38 4.38 0 0 1 2.78 -0.49 4.91 4.91 0 0 1 2.61 1.15 5.47 5.47 0 0 1 0.52 0.74 4 4 0 0 1 0.36 0.82 4.32 4.32 0 0 1 0.15 1.65 3.82 3.82 0 0 1 -0.54 1.56 0.33 0.33 0 0 0 0.55 0.35 4.51 4.51 0 0 0 0.72 -1.81 5.19 5.19 0 0 0 -0.07 -1.95 4.59 4.59 0 0 0 -0.39 -1.04Z" fill="#020202" fill-rule="evenodd" stroke-width="1"></path>
    <path d="M23.77 17.66a4.88 4.88 0 0 0 -0.39 -1.07 5.68 5.68 0 0 0 -0.6 -0.93A5.9 5.9 0 0 0 19.51 14a5.39 5.39 0 0 0 -3.53 0.6 5.26 5.26 0 0 0 -2.51 3.4 4.62 4.62 0 0 0 0.87 4 5.12 5.12 0 0 0 0.73 0.74 4.34 4.34 0 0 0 0.87 0.57 0.36 0.36 0 1 0 0.34 -0.64 3.86 3.86 0 0 1 -0.71 -0.51 4.61 4.61 0 0 1 -0.59 -0.65 3.78 3.78 0 0 1 -0.55 -3.3 4.19 4.19 0 0 1 2.09 -2.59 4.36 4.36 0 0 1 2.79 -0.41 4.76 4.76 0 0 1 2.51 1.18 4.49 4.49 0 0 1 0.5 0.73 3.66 3.66 0 0 1 0.33 0.79 3.83 3.83 0 0 1 -0.88 3.78 5 5 0 0 1 -3.85 1.5 0.32 0.32 0 0 0 -0.35 0.29 0.31 0.31 0 0 0 0.29 0.35 5.76 5.76 0 0 0 4.54 -1.51 4.79 4.79 0 0 0 1.37 -4.66Z" fill="#4C57E6" fill-rule="evenodd" stroke-width="1"></path>
  </g>
</svg>