<svg xmlns="http://www.w3.org/2000/svg" viewBox="0 0 24 24" id="Data-Transfer-Square-Horizontal--Streamline-Freehand">
  <desc>
    Data Transfer Square Horizontal Streamline Icon: https://streamlinehq.com
  </desc>
  <g>
    <path d="M23.64 6.42c-0.12 -1.37 -0.09 -4.14 -0.88 -4.88C20.86 -0.24 16.71 0.21 14 0.06 10.5 -0.13 6.87 0.19 3.44 0.29a0.34 0.34 0 0 0 0 0.68c3.46 -0.06 7 -0.34 10.49 -0.1 2.53 0.18 6.6 -0.17 8.18 1.35 1 1 0.64 17.92 0.39 19.51 -2.21 1.36 -17.71 1.54 -20.67 0.42 -0.39 -0.15 -0.57 0.24 -0.82 -4.79a104.25 104.25 0 0 1 0.4 -13.53 10.48 10.48 0 0 1 0.22 -2.31 0.3 0.3 0 0 0 -0.46 -0.38C0.79 1.61 0.87 3.19 0.8 3.75 0.54 5.79 0.47 7.92 0.28 10 0 13 0.07 21.44 0.71 22.5c1.26 2.07 21.67 2 22.82 -0.23 0.47 -0.97 0.38 -12.92 0.11 -15.85Z" fill="#4C57E6" fill-rule="evenodd" stroke-width="1"></path>
    <path d="M7.68 11.38a14.77 14.77 0 0 0 -3.17 1.79c-0.41 0.32 -0.82 0.73 -0.73 1.17 0.34 1.45 2.46 2.38 3.2 3a0.3 0.3 0 0 0 0.41 -0.43 30.47 30.47 0 0 1 -2.31 -2.35c0.12 0 2.65 0.37 3.93 0.44a31 31 0 0 0 3.53 -0.06c0.29 0 0.59 0.06 0.56 -0.22s0.08 -0.35 -0.17 -0.39a29.53 29.53 0 0 0 -7.55 -0.44c2.06 -1.89 2.44 -1.68 2.36 -1.84a0.34 0.34 0 0 0 -0.06 -0.67Z" fill="#020202" fill-rule="evenodd" stroke-width="1"></path>
    <path d="M16.15 8.83a31.69 31.69 0 0 0 -4.21 0.05 0.3 0.3 0 0 0 -0.17 0.57 17.58 17.58 0 0 0 2.91 0.44 35.74 35.74 0 0 0 3.71 -0.09 1.37 1.37 0 0 0 -0.18 0.16c-2.41 2.48 -2.29 2.17 -2.33 2.37s0.07 0.5 0.48 0.31 3.4 -2.29 3.58 -3a1 1 0 0 0 -0.35 -0.8c-0.42 -0.41 -3.33 -2.67 -3.79 -2.64a0.34 0.34 0 0 0 -0.33 0.34c0 0.34 0.09 0 2.74 2.52 -0.81 -0.06 -1.32 -0.17 -2.06 -0.23Z" fill="#020202" fill-rule="evenodd" stroke-width="1"></path>
  </g>
</svg>