<svg xmlns="http://www.w3.org/2000/svg" viewBox="0 0 24 24" id="Database-Breach-User-Profile--Streamline-Freehand">
  <desc>
    Database Breach User Profile Streamline Icon: https://streamlinehq.com
  </desc>
  <g>
    <path d="M21.17 4.69a0.31 0.31 0 0 0 -0.43 0.15 12 12 0 0 1 -1.1 1.81 2.66 2.66 0 0 1 -1 0.8 3.54 3.54 0 0 1 -0.55 0.18 9.35 9.35 0 0 1 -0.92 0.18c-0.08 0 -0.43 0 -0.64 0.07a0.89 0.89 0 0 0 -0.41 0.21c-0.39 0.41 -0.67 0.91 -1 1.33a1.83 1.83 0 0 1 -0.67 0.52l-0.42 0.12a0.85 0.85 0 0 1 -0.65 -0.24 1 1 0 0 1 -0.13 -0.74 10.15 10.15 0 0 1 1.25 -3 0.28 0.28 0 0 0 -0.11 -0.39 0.29 0.29 0 0 0 -0.39 0.1c-0.11 0.18 -0.31 0.48 -0.53 0.84l-3.86 0a21.86 21.86 0 0 1 1.46 -2 5 5 0 0 1 1.42 -1.2 4.29 4.29 0 0 1 1 -0.42 15.38 15.38 0 0 1 1.72 -0.42c0.23 0 0.65 -0.07 1 -0.13a2 2 0 0 0 0.56 -0.17 3.3 3.3 0 0 0 0.62 -0.51c0.39 -0.41 0.71 -0.92 1 -1.28a0.32 0.32 0 0 0 0 -0.46 0.33 0.33 0 0 0 -0.39 0.06c-0.3 0.28 -0.61 0.67 -1 1a2.72 2.72 0 0 1 -0.63 0.47l-1.3 0.08a12.42 12.42 0 0 0 -1.89 0.35 4.72 4.72 0 0 0 -1.25 0.54 5.87 5.87 0 0 0 -1.59 1.56 27.12 27.12 0 0 0 -1.46 2.56H6.8a17 17 0 0 0 -2 0.06 3.08 3.08 0 0 0 -1.39 0.49 1.58 1.58 0 0 0 -0.56 0.83 5 5 0 0 0 -0.2 1.21 10.77 10.77 0 0 0 0 1.39c0 1 0.18 2.06 0.23 3.1 0.07 1.55 0 3.1 0 4.64 0 0.68 0 1.36 0.07 2a7.26 7.26 0 0 0 0.24 1.73A2.26 2.26 0 0 0 4 23.32a3.72 3.72 0 0 0 2.25 0.68 29.14 29.14 0 0 0 3.12 -0.35l4.53 -0.45a7.2 7.2 0 0 0 1.55 -0.13 1.6 1.6 0 0 0 0.76 -0.41 2.73 2.73 0 0 0 0.65 -1.29 9.78 9.78 0 0 0 0.14 -1.89c0 -1.11 0 -2.54 -0.11 -4 -0.1 -2.14 -0.27 -4.4 -0.42 -6 0.67 -1 0.33 -0.48 0.93 -0.62a8.48 8.48 0 0 0 1 -0.26 3.38 3.38 0 0 0 1.89 -1.42 11.31 11.31 0 0 0 1 -2 0.32 0.32 0 0 0 -0.12 -0.49Zm-5 10.8c0 1.46 0.05 2.87 0 4a8.05 8.05 0 0 1 -0.17 1.67 1.73 1.73 0 0 1 -0.43 0.84 0.89 0.89 0 0 1 -0.5 0.19 10 10 0 0 1 -1.2 0l-1.39 0.09c-1.06 0.08 -2.13 0.2 -3.19 0.28a27.05 27.05 0 0 1 -3 0.32 2.7 2.7 0 0 1 -1.62 -0.47 1.12 1.12 0 0 1 -0.37 -0.62 6.48 6.48 0 0 1 -0.2 -1.47l-0.2 -6.62c-0.07 -1 -0.24 -2.07 -0.31 -3.1a10.9 10.9 0 0 1 0 -1.28 4.66 4.66 0 0 1 0.13 -1 0.74 0.74 0 0 1 0.24 -0.41 2.19 2.19 0 0 1 1 -0.37 16.2 16.2 0 0 1 1.88 -0.11l6.3 -0.2a5 5 0 0 0 -0.79 2.4c0 0.74 0.47 1.32 1.57 1.5a1.44 1.44 0 0 0 0.46 0 2.5 2.5 0 0 0 0.51 -0.16 2.59 2.59 0 0 0 0.86 -0.57c0.06 -0.06 0.1 -0.13 0.16 -0.19 0.09 1.48 0.18 3.42 0.23 5.28Z" fill="#020202" fill-rule="evenodd" stroke-width="1"></path>
    <path d="M13 16.66a2.41 2.41 0 0 0 -0.41 -0.64 3.58 3.58 0 0 0 -1.23 -0.8 2.5 2.5 0 0 0 0.72 -1.14 2.27 2.27 0 0 0 -0.76 -2.51 1.94 1.94 0 0 0 -0.87 -0.37 3.57 3.57 0 0 0 -1.27 0.06 0.23 0.23 0 0 0 -0.14 0.07 2 2 0 0 0 -0.52 0.19 2.13 2.13 0 0 0 -1 2.69 2.37 2.37 0 0 0 0.82 1.13A3.14 3.14 0 0 0 7 16.42a2.92 2.92 0 0 0 -0.44 1.19s-0.19 1.68 0.27 1.72a10.89 10.89 0 0 0 1.41 0.09 11.19 11.19 0 0 0 1.43 -0.05l2.41 0a7.6 7.6 0 0 0 0.84 -0.1 0.58 0.58 0 0 0 0.43 -0.43 1.35 1.35 0 0 0 0 -0.45 5.23 5.23 0 0 0 -0.15 -0.75 4 4 0 0 0 -0.2 -0.98Zm-4.15 -4.55a1.73 1.73 0 0 1 0.41 -0.2l0.06 0a2.76 2.76 0 0 1 0.81 0 1.28 1.28 0 0 1 0.66 0.29 1.43 1.43 0 0 1 0.33 1.58 1.47 1.47 0 0 1 -1.22 1 1.44 1.44 0 0 1 -1.52 -0.89 1.36 1.36 0 0 1 0.47 -1.78ZM12 18.33l-2.43 0.21a11.09 11.09 0 0 1 -1.32 0.15l-1.1 0a3.43 3.43 0 0 1 0.08 -1 2.22 2.22 0 0 1 0.4 -0.87A2.64 2.64 0 0 1 9.72 16a2.66 2.66 0 0 1 2 0.82 1.19 1.19 0 0 1 0.27 0.44 3.84 3.84 0 0 1 0.17 0.62l0.08 0.4Z" fill="#4C57E6" fill-rule="evenodd" stroke-width="1"></path>
  </g>
</svg>