<svg xmlns="http://www.w3.org/2000/svg" viewBox="0 0 24 24" id="Data-File-Bars-Question--Streamline-Freehand">
  <desc>
    Data File Bars Question Streamline Icon: https://streamlinehq.com
  </desc>
  <g>
    <path d="M13.19 20.33s-3.2 0.06 -5.94 0a23.69 23.69 0 0 1 -3.1 -0.33 1.34 1.34 0 0 1 -0.34 -0.13l0.24 -1.13c0.07 -0.45 0.14 -1 0.2 -1.7 0.13 -1.36 0.23 -3 0.33 -3.9a35.23 35.23 0 0 0 0 -4.82C4.51 6 4.23 3.71 4 1.43l7.23 -0.3c0.52 0 1.23 -0.09 1.89 -0.09l0.53 0 -0.42 1.56a12.36 12.36 0 0 0 -0.41 1.8A1.71 1.71 0 0 0 13 5.49a1.22 1.22 0 0 0 0.69 0.45A4.21 4.21 0 0 0 15 6c0.93 -0.1 1.91 -0.33 2.88 -0.4a5.21 5.21 0 0 1 0.79 0 9.47 9.47 0 0 1 0.57 2.1 25.78 25.78 0 0 1 0.19 3.06 0.31 0.31 0 0 0 0.31 0.31 0.33 0.33 0 0 0 0.31 -0.32A21 21 0 0 0 19.93 7a12 12 0 0 0 -0.72 -2.48 3.34 3.34 0 0 0 -0.72 -0.93C17.91 3 17.11 2.38 16.74 2s-0.86 -0.9 -1.36 -1.31a2.59 2.59 0 0 0 -0.83 -0.51 3.62 3.62 0 0 0 -1.1 -0.18c-0.77 0 -1.65 0.12 -2.27 0.16L3.57 0.89a0.27 0.27 0 0 0 -0.26 0.29 0.25 0.25 0 0 0 0.13 0.21c0.12 2.31 0.29 4.65 0.31 7a36.72 36.72 0 0 1 -0.21 4.7L3 18.63c0 0.26 -0.21 0.86 -0.23 1.28a1.23 1.23 0 0 0 0.08 0.54 0.8 0.8 0 0 0 0.4 0.36 7 7 0 0 0 1.93 0.28c2.89 0.14 8 -0.14 8 -0.14a0.31 0.31 0 1 0 0 -0.62ZM14.9 1.66c0.42 0.37 0.83 0.82 1.13 1.11s1.21 0.93 1.81 1.48a2.27 2.27 0 0 1 0.53 0.6s0 0 0 0.05a4.07 4.07 0 0 0 -0.5 0c-1 0 -2 0.11 -2.92 0.11a4.53 4.53 0 0 1 -0.73 0c-0.14 0 -0.29 0 -0.36 -0.09s-0.06 -0.38 0 -0.64c0 -0.57 0.16 -1.21 0.19 -1.5l0.21 -1.55a2.62 2.62 0 0 1 0.64 0.43Z" fill="#020202" fill-rule="evenodd" stroke-width="1"></path>
    <path d="M18.59 11.65a3.13 3.13 0 0 0 -3.75 1.59 1.88 1.88 0 0 0 1 2.71 2.16 2.16 0 0 0 2.68 -0.82 0.28 0.28 0 0 0 -0.46 -0.31 1.52 1.52 0 0 1 -1.93 0.47 1.11 1.11 0 0 1 -0.48 -1.64 2.23 2.23 0 0 1 2.68 -1 2.35 2.35 0 0 1 1.88 2.18 2.45 2.45 0 0 1 -0.49 1.64c-0.95 1.27 -2.72 1.89 -3.34 3.53a0.31 0.31 0 1 0 0.58 0.24 4 4 0 0 1 1.5 -1.61A9.66 9.66 0 0 0 20.4 17a3.3 3.3 0 0 0 -1.81 -5.37Z" fill="#020202" fill-rule="evenodd" stroke-width="1"></path>
    <path d="M14.52 22a1.47 1.47 0 0 0 1.15 2 1.55 1.55 0 0 0 1.93 -1.11c0.51 -2.08 -2.45 -2.42 -3.08 -0.89Zm2.24 0.6a0.65 0.65 0 0 1 -0.84 0.36c-0.45 -0.09 -0.64 -0.39 -0.57 -0.68 0.26 -0.99 1.79 -0.68 1.41 0.3Z" fill="#020202" fill-rule="evenodd" stroke-width="1"></path>
    <path d="M17 9.74a6.34 6.34 0 0 0 0 -1l0 -0.66a1.4 1.4 0 0 0 -0.12 -0.46 0.73 0.73 0 0 0 -0.57 -0.33 13.12 13.12 0 0 0 -1.63 0l-7.28 0.5 -0.08 -1a0.28 0.28 0 0 0 -0.27 -0.29 0.28 0.28 0 0 0 -0.28 0.27l-0.15 3.48 0 6.67a0.3 0.3 0 0 0 0.28 0.33 0.31 0.31 0 0 0 0.36 -0.25c0.06 -0.48 0.11 -1 0.17 -1.46a0.26 0.26 0 0 0 0.23 0.1c0.71 0 2.74 0.14 4 0.07a3.23 3.23 0 0 0 1.2 -0.23 0.54 0.54 0 0 0 0.25 -0.33c0 -0.1 0 -0.38 0.05 -0.43a3.73 3.73 0 0 0 0 -1.22 1.17 1.17 0 0 0 -0.42 -0.7 1.1 1.1 0 0 0 -0.4 -0.12l-1.39 0a28.35 28.35 0 0 0 -3.33 0.32s0 -0.06 0 -0.09l0 -2.24a0.31 0.31 0 0 0 0.16 0.06c0.36 0 3.68 0.23 6.15 0.07a5.66 5.66 0 0 0 2.83 -0.7 0.75 0.75 0 0 0 0.24 -0.36Zm-8 3.79c1 0 2.05 0.06 2.74 0.11l0.42 0a0.34 0.34 0 0 1 0 0.1 2.35 2.35 0 0 1 0 0.26c0 0.22 0 0.42 -0.06 0.56a0.23 0.23 0 0 0 0 0.07 8.25 8.25 0 0 1 -1 0.14c-1.23 0.11 -2.85 0.16 -3.47 0.22a0.3 0.3 0 0 0 -0.15 0.07c0 -0.48 0.08 -1 0.1 -1.47 0.36 -0.05 0.87 -0.06 1.42 -0.06Zm6.32 -3.9A15 15 0 0 1 13 10c-2.3 0.18 -4.94 0.13 -5.26 0.17 -0.05 0 -0.08 0 -0.13 0.06l-0.16 -1.87h7.23a11.1 11.1 0 0 1 1.18 0l0 0.4c0 0.06 0.11 0.4 0.12 0.61a2.24 2.24 0 0 1 -0.64 0.26Z" fill="#4C57E6" fill-rule="evenodd" stroke-width="1"></path>
  </g>
</svg>