<svg xmlns="http://www.w3.org/2000/svg" viewBox="0 0 24 24" id="Data-File-Bars-Search--Streamline-Freehand">
  <desc>
    Data File Bars Search Streamline Icon: https://streamlinehq.com
  </desc>
  <g>
    <path d="M11.68 20.78s-3.55 0.07 -6.6 0a29.69 29.69 0 0 1 -3.46 -0.25 1.77 1.77 0 0 1 -0.39 -0.14l0.24 -1.14c0.06 -0.46 0.13 -1.07 0.2 -1.74 0.12 -1.4 0.23 -3 0.32 -4A37 37 0 0 0 2 8.56c-0.12 -2.38 -0.4 -4.75 -0.63 -7.1l7.43 -0.28c0.54 0 1.26 -0.1 1.95 -0.11l0.54 0 -0.43 1.59a12.58 12.58 0 0 0 -0.43 1.85 1.71 1.71 0 0 0 0.22 1.09 1.23 1.23 0 0 0 0.71 0.46 4.1 4.1 0 0 0 1.33 0.07c1 -0.09 2 -0.34 3 -0.4a7.51 7.51 0 0 1 0.82 0 7.7 7.7 0 0 1 0.36 1.41 7.1 7.1 0 0 1 0 2.27 0.31 0.31 0 0 0 0.24 0.38 0.32 0.32 0 0 0 0.38 -0.24 8 8 0 0 0 0.09 -2.51A9.83 9.83 0 0 0 17 4.61a3.54 3.54 0 0 0 -0.72 -1c-0.59 -0.59 -1.41 -1.21 -1.79 -1.58s-0.87 -1 -1.38 -1.37a3.1 3.1 0 0 0 -0.85 -0.53A3.82 3.82 0 0 0 11.08 0c-0.79 0 -1.69 0.11 -2.32 0.15L1 0.92a0.28 0.28 0 0 0 -0.26 0.3 0.26 0.26 0 0 0 0.14 0.21c0.12 2.36 0.29 4.76 0.32 7.15a36.64 36.64 0 0 1 -0.22 4.81l-0.56 5.69c0 0.22 -0.18 0.71 -0.22 1.1a1.47 1.47 0 0 0 0.07 0.76 0.81 0.81 0 0 0 0.44 0.38 8 8 0 0 0 2.13 0.28c3.21 0.13 8.86 -0.18 8.86 -0.18a0.32 0.32 0 0 0 0.31 -0.33 0.32 0.32 0 0 0 -0.33 -0.31Zm0.89 -19.08c0.43 0.38 0.85 0.84 1.16 1.13s1.24 0.94 1.86 1.5a2.53 2.53 0 0 1 0.56 0.63l0 0.06 -0.55 0c-1 0 -2 0.12 -3 0.12a4.67 4.67 0 0 1 -0.74 0c-0.15 0 -0.3 0 -0.37 -0.09a1.14 1.14 0 0 1 0 -0.66c0 -0.58 0.16 -1.23 0.19 -1.53l0.22 -1.59a2.51 2.51 0 0 1 0.67 0.43Z" fill="#020202" fill-rule="evenodd" stroke-width="1"></path>
    <path d="M21.76 20.34a4.16 4.16 0 0 0 2 -3.09 6.17 6.17 0 0 0 -0.67 -3.63 5.59 5.59 0 0 0 -2.41 -2.38 5 5 0 0 0 -3.41 -0.38 9.3 9.3 0 0 0 -2.69 1.05 5.51 5.51 0 0 0 -1.48 1.33 5.57 5.57 0 0 0 -0.86 4.24A5 5 0 0 0 14.61 21a5 5 0 0 0 2.25 0.58 11.6 11.6 0 0 0 3.3 -0.47 0.26 0.26 0 0 0 0.18 -0.24c0.18 0.37 0.34 0.72 0.54 1.07a4.32 4.32 0 0 0 0.33 0.5q0.18 0.23 0.39 0.45c0.32 0.34 0.66 0.65 1 1a0.32 0.32 0 0 0 0.49 -0.41c-0.25 -0.39 -0.46 -0.79 -0.7 -1.18q-0.15 -0.24 -0.33 -0.48a3.94 3.94 0 0 0 -0.36 -0.45c-0.23 -0.25 -0.47 -0.48 -0.72 -0.71l0.14 0a4 4 0 0 0 0.64 -0.32Zm-1.76 -0.1a0.3 0.3 0 0 0 -0.25 0.37 10.25 10.25 0 0 1 -2.89 0.27 4.16 4.16 0 0 1 -1.86 -0.52 4.21 4.21 0 0 1 -1.82 -3 4.59 4.59 0 0 1 0.82 -3.47 4.59 4.59 0 0 1 1.57 -1.27 9.1 9.1 0 0 1 2 -0.72 4.06 4.06 0 0 1 2.72 0.25 4.72 4.72 0 0 1 2.05 1.92 5.18 5.18 0 0 1 0.66 3.08 3.4 3.4 0 0 1 -1.56 2.6 3.45 3.45 0 0 1 -0.65 0.3 6 6 0 0 1 -0.79 0.19Z" fill="#020202" fill-rule="evenodd" stroke-width="1"></path>
    <path d="M11.57 11.07a5.63 5.63 0 0 0 2.9 -0.72 0.82 0.82 0 0 0 0.21 -0.38 6.6 6.6 0 0 0 0 -1l0 -0.68a1.3 1.3 0 0 0 -0.12 -0.47 0.78 0.78 0 0 0 -0.56 -0.34 16.2 16.2 0 0 0 -1.67 0L4.9 8l-0.09 -1a0.28 0.28 0 0 0 -0.56 0l-0.16 3.57 0 6.82a0.32 0.32 0 0 0 0.3 0.34 0.31 0.31 0 0 0 0.34 -0.29c0.06 -0.48 0.12 -1 0.17 -1.48a0.33 0.33 0 0 0 0.23 0.1c0.73 0 2.81 0.13 4.1 0.07a3.27 3.27 0 0 0 1.22 -0.24 0.62 0.62 0 0 0 0.27 -0.34l0 -0.43a4 4 0 0 0 0 -1.26 1.15 1.15 0 0 0 -0.44 -0.71A0.8 0.8 0 0 0 10 13a13.84 13.84 0 0 0 -1.43 0 29.49 29.49 0 0 0 -3.43 0.36s0 -0.06 0 -0.09l0 -2.29a0.24 0.24 0 0 0 0.16 0.05c0.35 -0.03 3.7 0.21 6.27 0.04Zm-5 2.79c1 0 2.11 0.06 2.81 0.11l0.43 0a0.33 0.33 0 0 1 0 0.1 2.44 2.44 0 0 1 0 0.27c0 0.22 0 0.43 -0.06 0.57a0.23 0.23 0 0 0 0 0.07 8.66 8.66 0 0 1 -1.06 0.14c-1.27 0.12 -2.92 0.17 -3.56 0.23a0.3 0.3 0 0 0 -0.15 0.07c0 -0.5 0.08 -1 0.11 -1.5a12.23 12.23 0 0 1 1.45 -0.06ZM5.1 10.42 5 8.56h7.39a9.66 9.66 0 0 1 1.24 0V9c0 0.06 0.11 0.41 0.12 0.63a2.29 2.29 0 0 1 -0.7 0.26 15.46 15.46 0 0 1 -2.4 0.33c-2.36 0.19 -5.06 0.13 -5.38 0.17 -0.09 -0.03 -0.13 0.01 -0.17 0.03Z" fill="#4C57E6" fill-rule="evenodd" stroke-width="1"></path>
  </g>
</svg>