<svg xmlns="http://www.w3.org/2000/svg" viewBox="0 0 24 24" id="Database-Network--Streamline-Freehand">
  <desc>
    Database Network Streamline Icon: https://streamlinehq.com
  </desc>
  <g>
    <path d="M7.68 21.37a22.06 22.06 0 0 0 -2.75 0.06 31.52 31.52 0 0 1 -3.47 0.06c-0.47 0 -1.33 0.11 -1.19 0.56a0.3 0.3 0 0 0 0.37 0.2c1.17 -0.25 -1.53 0.43 7 -0.21a0.34 0.34 0 0 0 0.04 -0.67Z" fill="#020202" fill-rule="evenodd" stroke-width="1"></path>
    <path d="M11.47 19.61A2.14 2.14 0 0 0 8.77 22a2.57 2.57 0 0 0 3.76 1.73 2.07 2.07 0 0 0 0.72 -3.14 5.42 5.42 0 0 0 -1.78 -0.98Zm-0.66 3.17c-1 -0.39 -1.43 -1.68 -0.45 -2.28a1.68 1.68 0 0 1 0.81 -0.23 4.38 4.38 0 0 1 1.48 0.76c0.64 0.86 -0.46 2.27 -1.84 1.75Z" fill="#020202" fill-rule="evenodd" stroke-width="1"></path>
    <path d="M23.41 21c-3.89 -0.24 -6.85 0.66 -9 0.3 -0.3 -0.05 -0.52 0.35 -0.2 0.63 0.15 0.13 0.47 0.14 2.34 0.38 3.2 0.15 4.3 -0.48 6.83 -0.63a0.34 0.34 0 0 0 0.03 -0.68Z" fill="#020202" fill-rule="evenodd" stroke-width="1"></path>
    <path d="M4 4.32a6.31 6.31 0 0 0 2 1.31c2.14 1 5.05 0.93 7.42 0.73 11.58 -1 6.51 -6 4 -5.94a0.34 0.34 0 0 0 0 0.68c1.14 0 3.3 1.59 2.17 2.64C18.11 5 15.2 5.2 13.3 5.31c-2.05 0.13 -5 0.19 -6.87 -0.7 -2.26 -1.06 -2.52 -1.9 -0.06 -3S13.2 0.74 16 0.93a0.3 0.3 0 0 0 0.13 -0.58A6.41 6.41 0 0 0 15 0.22c-3.6 -0.25 -6.78 -0.6 -9.84 0.88a2.36 2.36 0 0 0 -1.64 2.13c-0.01 0.48 0.19 0.49 0.48 1.09Z" fill="#020202" fill-rule="evenodd" stroke-width="1"></path>
    <path d="M5.54 9.67a14.79 14.79 0 0 0 6.28 0.86 20.5 20.5 0 0 0 4.71 -0.4 8.42 8.42 0 0 0 2.19 -0.73 0.34 0.34 0 0 0 -0.31 -0.6c-1.73 0.87 -5.93 0.61 -6.59 0.6 -1.28 0 -3.69 -0.14 -4.91 -0.31a3.47 3.47 0 0 1 -0.72 -0.19 7.38 7.38 0 0 0 -1.43 -0.47c-0.3 -0.09 -0.49 0.65 0 0.89a7.7 7.7 0 0 0 0.78 0.35Z" fill="#4C57E6" fill-rule="evenodd" stroke-width="1"></path>
    <path d="M20.61 5.39a0.34 0.34 0 1 0 -0.67 0c0.09 7.26 0.14 7.65 -0.09 8.59a3 3 0 0 1 -1.79 2.13 18.76 18.76 0 0 1 -6.19 1.34A14.59 14.59 0 0 1 7.65 17a7.88 7.88 0 0 1 -2.64 -1C4 15.24 4 6.68 4 5.28c0.06 -0.63 -0.62 -1.13 -0.68 -0.59a35.47 35.47 0 0 0 0 3.64c-0.07 0.82 -0.08 2.07 -0.06 3.28 0.05 2.54 0 4.17 1.17 5.29a6 6 0 0 0 2.86 1.23 15.41 15.41 0 0 0 4.54 0.45A18.64 18.64 0 0 0 18.51 17a3.93 3.93 0 0 0 2.24 -2.83c0.25 -1.17 0.13 -2 -0.14 -8.78Z" fill="#020202" fill-rule="evenodd" stroke-width="1"></path>
    <path d="M14.51 14.78a10.78 10.78 0 0 0 4.62 -1.6 0.34 0.34 0 0 0 -0.34 -0.58 9.77 9.77 0 0 1 -4.35 1.17c-4.93 0.22 -6.71 -0.14 -9.57 -1.28 -0.37 -0.16 -0.51 0.58 0 0.7 3.72 1.91 5.62 1.91 9.64 1.59Z" fill="#4C57E6" fill-rule="evenodd" stroke-width="1"></path>
  </g>
</svg>