<svg xmlns="http://www.w3.org/2000/svg" viewBox="0 0 24 24" id="Database--Streamline-Freehand">
  <desc>
    Database Streamline Icon: https://streamlinehq.com
  </desc>
  <g>
    <path d="M14.26 19.84a10.23 10.23 0 0 0 5 -2 0.33 0.33 0 0 0 0.08 -0.47c-0.33 -0.48 -0.56 0.28 -2.71 1a8.59 8.59 0 0 1 -2.4 0.44c-5.13 0.3 -7.08 -0.14 -9.86 -1.49 -0.29 -0.25 -0.48 0.33 0.06 0.78 3.73 2.22 5.93 2.1 9.83 1.74Z" fill="#4C57E6" fill-rule="evenodd" stroke-width="1"></path>
    <path d="M21.06 6a0.34 0.34 0 0 0 -0.68 0s0.08 7.07 0.08 7.54c0 1.06 0.23 5.82 -0.39 6.53 -1.79 2.08 -7.16 3.8 -12.92 2.05a9.09 9.09 0 0 1 -2.82 -1.33c-1 -0.86 -1.06 -15 -1 -16.33a6.4 6.4 0 0 0 2.04 1.43c2.29 1.08 5.37 0.86 7.91 0.77 2.73 -0.12 7.83 -0.8 7.78 -3.52 0 -1.45 -2.2 -2.72 -3.5 -2.7a0.34 0.34 0 0 0 0 0.68c1 0 2.72 1.07 2.71 2 0 0.64 -0.59 1.3 -2.09 1.8a16.36 16.36 0 0 1 -4.93 0.66c-2.19 0.05 -5.41 0.2 -7.4 -0.74 -1.27 -0.59 -2.6 -1.34 -1.59 -2.31C5.2 2 6 1.11 9.71 0.84a55.61 55.61 0 0 1 6.46 0.1 0.29 0.29 0 0 0 0.35 -0.23c0.08 -0.37 -0.39 -0.4 -0.77 -0.44C15.65 0.26 11.52 0 9.67 0a14.74 14.74 0 0 0 -3.59 0.5c-1.35 0.39 -3.42 1.34 -3.3 2.84 -0.3 2.23 0 4.95 -0.11 6.43a87.65 87.65 0 0 0 0.07 9.48A4.23 4.23 0 0 0 4.1 22a6.78 6.78 0 0 0 2.72 1.2c6.27 1.92 12 0 14 -2.49 0.97 -1.11 0.55 -4.99 0.24 -14.71Z" fill="#020202" fill-rule="evenodd" stroke-width="1"></path>
    <path d="M17.82 14.6a4.63 4.63 0 0 0 2 -1c0.44 -0.51 0 -0.84 -0.35 -0.6s-0.1 0.23 -1.89 0.78c-4.39 1.34 -11 0.67 -13.36 -0.53 -0.41 -0.28 -0.53 0.48 0 0.74 2.69 1.5 8.45 2.5 13.6 0.61Z" fill="#4C57E6" fill-rule="evenodd" stroke-width="1"></path>
    <path d="M7.72 11a29.9 29.9 0 0 0 8.84 -0.31 7.71 7.71 0 0 0 2.35 -0.91 0.34 0.34 0 1 0 -0.36 -0.57c-1.87 1.08 -5.46 0.86 -7 0.82 -2.12 0 -5.28 0.56 -7.43 -1.12 -0.43 -0.11 -0.36 0.45 -0.07 0.82 1.01 0.89 2.31 0.99 3.67 1.27Z" fill="#4C57E6" fill-rule="evenodd" stroke-width="1"></path>
  </g>
</svg>