<svg xmlns="http://www.w3.org/2000/svg" viewBox="0 0 24 24" id="Database-Connect--Streamline-Freehand">
  <desc>
    Database Connect Streamline Icon: https://streamlinehq.com
  </desc>
  <g>
    <path d="M17.84 8.84c2.23 0.67 4.79 -0.32 5.36 -1.06s0.37 -1.28 0.33 -2.09c-0.28 -4.61 -0.17 -3.28 -0.21 -3.51a1.28 1.28 0 0 0 -0.09 -0.88C22.66 0.1 21.09 0 18.93 0c-1.43 0 -3.14 0.85 -2.78 2.2a34.34 34.34 0 0 1 0 3.44c0 1.17 -0.08 2.08 0.65 2.7a2.78 2.78 0 0 0 1.04 0.5ZM22 7.34a6 6 0 0 1 -3.87 0.4 1.83 1.83 0 0 1 -0.72 -0.25c-0.38 -0.29 -0.38 -1 -0.45 -2.06A5 5 0 0 0 20.8 6c0.45 -0.08 1.63 -0.44 1.8 -0.82 0 1.44 0.16 1.82 -0.6 2.16Zm-4.7 -5.71c0.19 -0.22 0.06 -0.11 0.6 -0.47 1 -0.5 4 -0.63 4.53 0.31C23.14 2.66 20 3 18.65 2.73c-0.65 -0.1 -1.65 -0.64 -1.35 -1.1Zm-0.13 1.78a4.66 4.66 0 0 0 3.15 0.44 4.78 4.78 0 0 0 2.29 -0.74v1.8c-0.37 -0.43 -0.39 0 -1.73 0.08s-2.83 0.22 -3.93 -0.46v-0.31c0.05 -1.22 -0.27 -1.14 0.22 -0.81Z" fill="#020202" fill-rule="evenodd" stroke-width="1"></path>
    <path d="M23.92 20.62c-0.27 -4.61 -0.16 -3.28 -0.2 -3.51a1.28 1.28 0 0 0 -0.09 -0.88c-0.57 -1.2 -2.14 -1.34 -4.3 -1.29 -1.43 0 -3.14 0.84 -2.78 2.2a34.34 34.34 0 0 1 -0.05 3.44c0 1.17 -0.08 2.08 0.65 2.7a5.14 5.14 0 0 0 3 0.71 7.51 7.51 0 0 0 2.8 -0.75c1.25 -0.69 1.05 -1.64 0.97 -2.62Zm-6.23 -4.06c0.2 -0.22 0.07 -0.11 0.61 -0.48 1 -0.49 4 -0.62 4.53 0.32 0.71 1.19 -2.43 1.48 -3.79 1.26 -0.61 -0.1 -1.67 -0.66 -1.35 -1.1Zm4.75 5.71a6 6 0 0 1 -3.88 0.39 1.61 1.61 0 0 1 -0.71 -0.24c-0.38 -0.29 -0.38 -1 -0.45 -2.07a5 5 0 0 0 3.8 0.58c0.45 -0.08 1.63 -0.44 1.8 -0.82 0 1.44 0.16 1.82 -0.56 2.16Zm0.56 -2.43c-0.37 -0.44 -0.39 0 -1.73 0.08s-2.83 0.22 -3.93 -0.47v-0.3c0 -0.22 0 -0.6 -0.06 -1a3 3 0 0 0 1.58 0.68A7.06 7.06 0 0 0 23 18Z" fill="#020202" fill-rule="evenodd" stroke-width="1"></path>
    <path d="M1.77 8.84c2.23 0.67 4.79 -0.32 5.36 -1.06s0.38 -1.28 0.33 -2.09c-0.27 -4.61 -0.16 -3.28 -0.21 -3.51a1.22 1.22 0 0 0 -0.09 -0.88C6.59 0.1 5 0 2.86 0 1.43 0 -0.28 0.86 0.08 2.21A31.58 31.58 0 0 1 0 5.65c0 1.17 0 2.08 0.68 2.7a2.84 2.84 0 0 0 1.09 0.49ZM6 7.34a6 6 0 0 1 -3.87 0.4 1.83 1.83 0 0 1 -0.72 -0.25C1 7.2 1 6.46 0.93 5.43a5 5 0 0 0 3.8 0.57c0.45 -0.08 1.64 -0.44 1.81 -0.82C6.54 6.62 6.7 7 6 7.34ZM1.23 1.63c0.2 -0.22 0.07 -0.11 0.6 -0.47 1 -0.5 4 -0.63 4.53 0.31C7.07 2.66 3.94 3 2.58 2.73 2 2.63 0.9 2.09 1.23 1.63ZM1.1 3.41a4.66 4.66 0 0 0 3.15 0.44 4.81 4.81 0 0 0 2.3 -0.74v1.8c-0.38 -0.43 -0.4 0 -1.73 0.08S2 5.21 0.88 4.53v-0.31C0.9 3 0.61 3.08 1.1 3.41Z" fill="#020202" fill-rule="evenodd" stroke-width="1"></path>
    <path d="M7.65 17.12a1.35 1.35 0 0 0 -0.09 -0.89C7 15 5.42 14.89 3.26 14.94c-1.43 0 -3.14 0.84 -2.78 2.2 0.16 0.58 -0.16 3.52 0 4.93a1.73 1.73 0 0 0 0.61 1.21 5.59 5.59 0 0 0 4.82 0.35 3.49 3.49 0 0 0 1.63 -0.92c0.54 -0.71 0.39 -0.81 0.11 -5.59Zm-6 -0.56c0.2 -0.22 0.07 -0.11 0.6 -0.48 1 -0.49 4 -0.62 4.53 0.32 0.71 1.19 -2.42 1.48 -3.78 1.26 -0.64 -0.1 -1.7 -0.66 -1.37 -1.1Zm4.74 5.71a6 6 0 0 1 -3.87 0.39 1.65 1.65 0 0 1 -0.72 -0.24c-0.38 -0.29 -0.38 -1 -0.45 -2.07a5 5 0 0 0 3.8 0.58c0.45 -0.08 1.64 -0.44 1.8 -0.82 -0.02 1.44 0.14 1.82 -0.58 2.16ZM7 19.84c-0.38 -0.44 -0.4 0 -1.74 0.08s-2.83 0.22 -3.93 -0.47v-0.3c0 -0.22 0 -0.6 -0.06 -1a3 3 0 0 0 1.58 0.68A7.11 7.11 0 0 0 7 18Z" fill="#020202" fill-rule="evenodd" stroke-width="1"></path>
    <path d="M13.67 11.54c-0.85 -0.91 -0.84 -0.73 -0.73 -0.85A24.19 24.19 0 0 1 15.54 8a0.34 0.34 0 0 0 -0.4 -0.56A18 18 0 0 0 12.05 10a32 32 0 0 0 -3.21 -2.38 0.31 0.31 0 0 0 -0.38 0.48c0.83 0.77 1.66 1.64 2.79 2.72a29.9 29.9 0 0 0 -2.7 3.58 0.31 0.31 0 1 0 0.48 0.38c1.16 -1.25 1.54 -1.52 3.07 -3.18a28.7 28.7 0 0 1 3.1 3 0.34 0.34 0 0 0 0.56 -0.4 18.18 18.18 0 0 0 -2.09 -2.66Z" fill="#4C57E6" fill-rule="evenodd" stroke-width="1"></path>
  </g>
</svg>