<svg xmlns="http://www.w3.org/2000/svg" viewBox="0 0 24 24" id="Database-Network-1--Streamline-Freehand">
  <desc>
    Database Network 1 Streamline Icon: https://streamlinehq.com
  </desc>
  <g>
    <path d="M5.46 10.39a15 15 0 0 0 6.4 0.88 20.69 20.69 0 0 0 4.8 -0.41 8.31 8.31 0 0 0 2.24 -0.74 0.34 0.34 0 0 0 -0.32 -0.61c-1.74 0.87 -6 0.63 -6.72 0.61A22.4 22.4 0 0 1 7 9.92a5.6 5.6 0 0 1 -2.33 -0.79c-0.53 0 -0.53 0.49 0 0.86 0.33 0.19 0.11 0.09 0.79 0.4Z" fill="#4C57E6" fill-rule="evenodd" stroke-width="1"></path>
    <path d="M20.82 6a0.34 0.34 0 1 0 -0.68 0c0.08 7.4 0.14 7.79 -0.1 8.76A3 3 0 0 1 18.22 17a19.16 19.16 0 0 1 -6.31 1.37 14.79 14.79 0 0 1 -4.3 -0.42A11.24 11.24 0 0 1 4.79 17c-1.13 -0.73 -0.9 -10.47 -0.86 -12a8.05 8.05 0 0 0 5 2.12 29.68 29.68 0 0 0 8.75 -0.7c2.14 -0.63 4.11 -2 2.78 -3.8a4.26 4.26 0 0 0 -3 -1.59 0.35 0.35 0 0 0 0 0.69A3.41 3.41 0 0 1 19.81 3c2 3 -10.06 3.84 -13.44 2.23C5.15 4.66 3.94 4 4.87 3 7.74 1 11.46 1.3 15 1.41c1.18 0.08 1.43 0.17 1.5 -0.16s-0.37 -0.4 -0.74 -0.44c-0.12 0 -4 -0.32 -5.79 -0.26a12.86 12.86 0 0 0 -4.08 0.7c-1.14 0.47 -2.63 1.23 -2.49 2.58 -0.25 0.68 -0.07 4.47 -0.12 5.2s-0.08 2.11 -0.06 3.34c0 2.59 0 4.25 1.2 5.39A6 6 0 0 0 7.33 19a15.75 15.75 0 0 0 3.69 0.48 4.93 4.93 0 0 0 0.17 2.41c0.06 0.2 0.1 0.13 -0.13 0.15l-3.61 0.39a0.31 0.31 0 0 0 0 0.61 55.31 55.31 0 0 0 8.94 -0.04 0.35 0.35 0 0 0 0 -0.69c-1.63 -0.09 -2.72 -0.24 -4.31 -0.24 -0.05 -0.32 -0.07 0 0.06 -1a3.25 3.25 0 0 0 -0.21 -1.21c-0.12 -0.4 -0.15 -0.33 0 -0.33a19.18 19.18 0 0 0 6.72 -1.6A4 4 0 0 0 21 15c0.21 -1.2 0.1 -2 -0.18 -9Z" fill="#020202" fill-rule="evenodd" stroke-width="1"></path>
    <path d="M14.6 15.6a10.88 10.88 0 0 0 4.71 -1.6 0.34 0.34 0 0 0 -0.35 -0.59 10 10 0 0 1 -4.43 1.19c-5.07 0.22 -7 -0.15 -9.82 -1.24 -0.47 -0.11 -0.48 0.38 0 0.72 3.69 1.85 5.8 1.85 9.89 1.52Z" fill="#4C57E6" fill-rule="evenodd" stroke-width="1"></path>
    <path d="M5.25 22.35c-0.6 0 -1.9 0.24 -1.44 0.64 1.56 1.31 4.05 -0.5 1.44 -0.64Z" fill="#020202" fill-rule="evenodd" stroke-width="1"></path>
    <path d="M1.54 22.35c-0.6 0 -1.9 0.24 -1.44 0.64 1.56 1.31 4.05 -0.5 1.44 -0.64Z" fill="#020202" fill-rule="evenodd" stroke-width="1"></path>
    <path d="M22.86 22.07c-0.6 0 -1.9 0.24 -1.44 0.63 1.58 1.3 4.05 -0.49 1.44 -0.63Z" fill="#020202" fill-rule="evenodd" stroke-width="1"></path>
    <path d="M19.15 22.07c-0.6 0 -1.9 0.24 -1.44 0.63 1.56 1.3 4.05 -0.49 1.44 -0.63Z" fill="#020202" fill-rule="evenodd" stroke-width="1"></path>
  </g>
</svg>