<svg xmlns="http://www.w3.org/2000/svg" viewBox="0 0 24 24" id="Dating-Rose-1--Streamline-Freehand">
  <desc>
    Dating Rose 1 Streamline Icon: https://streamlinehq.com
  </desc>
  <g>
    <path d="M19.88 16.92a0.91 0.91 0 0 0 -0.52 -0.32 4.92 4.92 0 0 0 -1.07 -0.08 11 11 0 0 0 -1.79 0.23 8.9 8.9 0 0 0 -1.72 0.57 15.93 15.93 0 0 0 -1.48 0.76c-0.5 0.29 -1 0.6 -1.47 0.9s-0.42 0.88 0.08 0.69 0.65 -0.35 1.76 -0.9a15.41 15.41 0 0 1 1.45 -0.62 9 9 0 0 1 1.57 -0.4 8.64 8.64 0 0 1 1.6 -0.09c0.17 0 1.31 -0.05 0.72 1.46a6.46 6.46 0 0 1 -1.68 2.35 5.3 5.3 0 0 1 -3.26 1.47 4.47 4.47 0 0 1 -3.18 -1.28c-0.56 -0.3 -0.75 0.39 -0.38 0.63a5.18 5.18 0 0 0 3.57 1.57 6.3 6.3 0 0 0 4 -1.51 7.21 7.21 0 0 0 2.09 -2.82 2.71 2.71 0 0 0 -0.29 -2.61Z" fill="#4C57E6" stroke-width="1"></path>
    <path d="M11.44 18.71a9.33 9.33 0 0 0 -0.08 -3 4.48 4.48 0 0 0 1.16 -0.2 5.88 5.88 0 0 0 2.05 -1.21 8.76 8.76 0 0 0 1.49 -1.76 8.88 8.88 0 0 0 1.2 -3.16C18.74 1.47 15.17 0.64 15 0.59A8.41 8.41 0 0 0 11.23 0a13.07 13.07 0 0 0 -3.69 0.86A7.41 7.41 0 0 0 5 2.36a3.88 3.88 0 0 0 -1.07 1.79 13.7 13.7 0 0 0 0 5.53 7.94 7.94 0 0 0 1.18 2.8 8.25 8.25 0 0 0 3.22 2.58 7 7 0 0 0 2.33 0.61 10.81 10.81 0 0 1 -0.34 2.81 12.17 12.17 0 0 1 -0.4 1.3A8.92 8.92 0 0 1 9.37 21a6.49 6.49 0 0 1 -2.09 2.34 0.35 0.35 0 0 0 0.35 0.61 6.89 6.89 0 0 0 3.81 -5.24ZM5 4.47A3 3 0 0 1 6.14 3 6.88 6.88 0 0 1 8 2a11.48 11.48 0 0 1 3.35 -0.79 7.35 7.35 0 0 1 3.31 0.39 2.24 2.24 0 0 1 1.61 2.5 4.14 4.14 0 0 1 -2.11 2.76 8.48 8.48 0 0 1 -1.34 0.62 8 8 0 0 1 -1.3 0.31 1 1 0 0 0 0 -0.16 0.32 0.32 0 0 0 -0.31 -0.31c1.16 -0.68 1.54 -1.45 1.5 -2.11a2.28 2.28 0 0 0 -2 -1.89 0.32 0.32 0 0 0 -0.36 0.25 0.32 0.32 0 0 0 0.26 0.37A1.56 1.56 0 0 1 12 5.24c0 0.49 -0.39 1 -1.34 1.47a6.12 6.12 0 0 1 -4.61 -0.11A1.66 1.66 0 0 1 5 4.47Zm4.17 9.46a0.4 0.4 0 0 0 -0.13 0.16L8.8 14a7.36 7.36 0 0 1 -2.87 -2.11 7.25 7.25 0 0 1 -1.33 -3.1 13.12 13.12 0 0 1 -0.25 -2.16 3.36 3.36 0 0 0 1.27 0.92 7.16 7.16 0 0 0 5.32 -0.08 0.27 0.27 0 0 0 -0.06 0.17c-0.08 0.88 -0.2 1.91 -0.34 2.93a9.4 9.4 0 0 1 -0.34 1.8 3.24 3.24 0 0 1 -0.99 1.56Zm0.64 0.41A4.11 4.11 0 0 0 11.48 12a6.69 6.69 0 0 0 0.26 -1.8 12.25 12.25 0 0 0 -0.13 -1.73 9.42 9.42 0 0 0 1.44 -0.31 8 8 0 0 0 1.49 -0.62 5.4 5.4 0 0 0 2.26 -2.2 21.28 21.28 0 0 1 -0.43 3.82 7.87 7.87 0 0 1 -1.19 2.76 7.86 7.86 0 0 1 -1.36 1.48 4.8 4.8 0 0 1 -1.65 0.94 4.25 4.25 0 0 1 -2.32 0Z" fill="#020202" stroke-width="1"></path>
  </g>
</svg>