<svg xmlns="http://www.w3.org/2000/svg" viewBox="0 0 24 24" id="Day-Sun-Horizon--Streamline-Freehand">
  <desc>
    Day Sun Horizon Streamline Icon: https://streamlinehq.com
  </desc>
  <g>
    <path d="M1.73 17.87a1.78 1.78 0 0 0 1.82 -0.41c0.07 -0.06 0.29 -0.56 0.48 -0.76 0.66 0.07 1.1 0.6 1.68 0.76a1.75 1.75 0 0 0 1.08 0 1.8 1.8 0 0 0 0.47 -0.27 3.68 3.68 0 0 0 0.39 -0.4c0.12 0.07 0.33 0.11 0.37 0.14a4.64 4.64 0 0 0 1.25 0.6 2.27 2.27 0 0 0 1.07 0 2 2 0 0 0 0.69 -0.31 4.2 4.2 0 0 0 0.72 -0.67l0.1 -0.19 0.39 0.27a3.46 3.46 0 0 0 1.19 0.42 3.67 3.67 0 0 0 1.28 0 2.13 2.13 0 0 0 0.56 -0.23 2.22 2.22 0 0 0 0.44 -0.37s0.08 -0.07 0.14 -0.14l0.26 0.11a4.41 4.41 0 0 0 0.77 0.47 2.64 2.64 0 0 0 0.64 0.19 1.94 1.94 0 0 0 0.85 -0.09 2.78 2.78 0 0 0 1 -0.6 1.47 1.47 0 0 0 0.36 -0.38l0.16 0a9.85 9.85 0 0 0 1.06 0.41 2 2 0 0 0 1.35 -0.19 4.09 4.09 0 0 0 1.28 -1.33 0.32 0.32 0 0 0 -0.06 -0.45 0.33 0.33 0 0 0 -0.46 0.06 4.43 4.43 0 0 1 -0.89 1 1.27 1.27 0 0 1 -1.07 0.19c-0.33 -0.07 -0.75 -0.38 -1.12 -0.48a1.15 1.15 0 0 0 -0.48 0 0.74 0.74 0 0 0 -0.32 0.16c-0.13 0.11 -0.28 0.33 -0.37 0.41a2.13 2.13 0 0 1 -0.57 0.33 1.09 1.09 0 0 1 -0.55 0.08 1.92 1.92 0 0 1 -0.49 -0.19c-0.17 -0.1 -0.32 -0.22 -0.49 -0.34a3.05 3.05 0 0 0 -0.52 -0.38 1 1 0 0 0 -0.52 -0.12 0.61 0.61 0 0 0 -0.33 0.17 5.49 5.49 0 0 0 -0.37 0.43 1 1 0 0 1 -0.22 0.18 0.63 0.63 0 0 1 -0.23 0.08 2.37 2.37 0 0 1 -0.88 0 2.45 2.45 0 0 1 -0.83 -0.31c-0.17 -0.1 -0.33 -0.25 -0.5 -0.36a1.84 1.84 0 0 0 -0.38 -0.17 0.59 0.59 0 0 0 -0.6 0.18c-0.12 0.12 -0.35 0.45 -0.4 0.51a4 4 0 0 1 -0.41 0.42 1 1 0 0 1 -0.4 0.21 1.26 1.26 0 0 1 -0.72 -0.05 4.79 4.79 0 0 1 -0.82 -0.4 3 3 0 0 0 -0.7 -0.35 0.66 0.66 0 0 0 -0.62 0.1c-0.21 0.19 -0.35 0.41 -0.53 0.6a0.67 0.67 0 0 1 -0.25 0.18 0.92 0.92 0 0 1 -0.53 0.06c-0.63 -0.14 -1.15 -0.66 -1.85 -0.69a0.51 0.51 0 0 0 -0.39 0.17c-0.19 0.19 -0.54 0.75 -0.63 0.84a1.14 1.14 0 0 1 -1.13 0.34 1.91 1.91 0 0 1 -1 -0.88 0.28 0.28 0 0 0 -0.39 -0.11 0.29 0.29 0 0 0 -0.11 0.39 2.56 2.56 0 0 0 1.28 1.16Z" fill="#020202" stroke-width="1"></path>
    <path d="M23.85 17.3a0.33 0.33 0 0 0 -0.45 0.1 3.84 3.84 0 0 1 -1.23 1.3 1.42 1.42 0 0 1 -1 0.15c-0.24 0 -0.72 -0.39 -1.08 -0.52a0.87 0.87 0 0 0 -0.57 0 0.79 0.79 0 0 0 -0.26 0.15c-0.16 0.13 -0.34 0.36 -0.45 0.44a1.63 1.63 0 0 1 -0.57 0.26 1.65 1.65 0 0 1 -0.63 0 1.77 1.77 0 0 1 -0.51 -0.15 2.87 2.87 0 0 1 -0.49 -0.31c-0.08 -0.06 -0.31 -0.28 -0.47 -0.38a0.67 0.67 0 0 0 -0.85 0.1c-0.13 0.11 -0.28 0.34 -0.36 0.4a1.42 1.42 0 0 1 -0.44 0.23 1.07 1.07 0 0 1 -0.47 0.06 2.14 2.14 0 0 1 -0.57 -0.12 2.25 2.25 0 0 1 -0.53 -0.28c-0.17 -0.11 -0.42 -0.37 -0.64 -0.5a1 1 0 0 0 -0.41 -0.13 0.68 0.68 0 0 0 -0.54 0.31L11 19a3.51 3.51 0 0 1 -0.6 0.48 1.82 1.82 0 0 1 -0.67 0.25 0.93 0.93 0 0 1 -0.5 -0.07 1.12 1.12 0 0 1 -0.42 -0.33 5.53 5.53 0 0 0 -0.36 -0.57 0.81 0.81 0 0 0 -0.45 -0.31 0.62 0.62 0 0 0 -0.53 0.14 0.94 0.94 0 0 0 -0.2 0.26s0 0.13 -0.07 0.17a2.06 2.06 0 0 1 -0.43 0.35 1.26 1.26 0 0 1 -0.46 0.2 0.9 0.9 0 0 1 -0.58 -0.1 4.65 4.65 0 0 1 -0.73 -0.41 4 4 0 0 0 -0.62 -0.39 0.5 0.5 0 0 0 -0.43 0 1.34 1.34 0 0 0 -0.26 0.27 4.91 4.91 0 0 1 -0.48 0.78 1.53 1.53 0 0 1 -1.33 0.43 3.19 3.19 0 0 1 -1.44 -0.68 0.3 0.3 0 0 0 -0.41 0 0.28 0.28 0 0 0 0.05 0.4 3.49 3.49 0 0 0 2.09 0.93 2.22 2.22 0 0 0 1.53 -0.57l0.54 -0.72 0.27 0.15a5.47 5.47 0 0 0 1 0.61 1.7 1.7 0 0 0 0.92 0.13 2.25 2.25 0 0 0 0.8 -0.28 3.16 3.16 0 0 0 0.58 -0.44l0.1 0.16a2.07 2.07 0 0 0 0.82 0.68 2 2 0 0 0 1.08 0.17 2.8 2.8 0 0 0 0.89 -0.28 4.32 4.32 0 0 0 1 -0.77s0.09 -0.12 0.18 -0.26c0.13 0.08 0.29 0.14 0.37 0.19a3.71 3.71 0 0 0 0.77 0.39 3.37 3.37 0 0 0 0.85 0.17 2.07 2.07 0 0 0 0.89 -0.13 2.3 2.3 0 0 0 0.76 -0.44l0.27 -0.19a0.68 0.68 0 0 1 0.17 0.08 4.18 4.18 0 0 0 0.68 0.38 2.7 2.7 0 0 0 0.8 0.21 2.76 2.76 0 0 0 1 -0.09 2.51 2.51 0 0 0 0.86 -0.44l0.48 -0.5a7.07 7.07 0 0 0 1.22 0.52 2.06 2.06 0 0 0 1.51 -0.29A4.68 4.68 0 0 0 24 17.75a0.33 0.33 0 0 0 -0.15 -0.45Z" fill="#020202" stroke-width="1"></path>
    <path d="M5.36 15.16a0.29 0.29 0 0 0 0.21 -0.35 2.38 2.38 0 0 1 0 -0.92 5.67 5.67 0 0 1 0.5 -1.38A6.19 6.19 0 0 1 8.69 9.8a6.26 6.26 0 0 1 3.64 -0.8 5.72 5.72 0 0 1 3.6 1.67 10.07 10.07 0 0 1 2.34 3.49 0.32 0.32 0 1 0 0.6 -0.23 10.23 10.23 0 0 0 -3 -4.53A6.47 6.47 0 0 0 12.43 8a7 7 0 0 0 -4.25 1 6.73 6.73 0 0 0 -2.77 3.3A6.26 6.26 0 0 0 5 13.79 2.82 2.82 0 0 0 5 15a0.29 0.29 0 0 0 0.36 0.16Z" fill="#020202" stroke-width="1"></path>
    <path d="M10.65 4.92c0.08 0.27 0.18 0.5 0.28 0.76a0.31 0.31 0 0 0 0.35 0.29 0.32 0.32 0 0 0 0.29 -0.35 7.78 7.78 0 0 0 0.1 -0.81 2 2 0 0 0 0 -0.35c0 -0.11 0 -0.23 -0.07 -0.34a7.19 7.19 0 0 0 -0.34 -0.75 0.29 0.29 0 1 0 -0.57 0.08c0 0.28 -0.11 0.52 -0.13 0.81a1.83 1.83 0 0 0 0 0.33 1.94 1.94 0 0 0 0.09 0.33Z" fill="#4C57E6" stroke-width="1"></path>
    <path d="M17.1 7c0.23 -0.22 0.44 -0.43 0.65 -0.67A3.62 3.62 0 0 0 18 6a1.68 1.68 0 0 0 0.16 -0.33c0.11 -0.28 0.16 -0.56 0.26 -0.84a0.28 0.28 0 0 0 -0.06 -0.4 0.29 0.29 0 0 0 -0.4 0.07 4.15 4.15 0 0 0 -0.77 0.74 2.73 2.73 0 0 0 -0.29 0.53c-0.12 0.28 -0.19 0.57 -0.3 0.85a0.31 0.31 0 0 0 0.08 0.45 0.32 0.32 0 0 0 0.42 -0.07Z" fill="#4C57E6" stroke-width="1"></path>
    <path d="M19.62 11.4c0.29 -0.12 0.57 -0.21 0.85 -0.34a2.21 2.21 0 0 0 0.34 -0.18 3.3 3.3 0 0 0 0.3 -0.22c0.24 -0.21 0.41 -0.43 0.64 -0.65a0.29 0.29 0 0 0 -0.28 -0.5 6.8 6.8 0 0 0 -0.91 0.26 2.37 2.37 0 0 0 -0.35 0.19 2.34 2.34 0 0 0 -0.31 0.24c-0.23 0.21 -0.42 0.44 -0.64 0.66a0.32 0.32 0 0 0 0.36 0.54Z" fill="#4C57E6" stroke-width="1"></path>
    <path d="M5.45 6.5a2.19 2.19 0 0 0 0.34 0.34 6.17 6.17 0 0 1 0.55 0.43 0.32 0.32 0 0 0 0.44 0.13 0.32 0.32 0 0 0 0.13 -0.4 3.1 3.1 0 0 0 -0.33 -0.78 1.79 1.79 0 0 0 -0.2 -0.28 1.27 1.27 0 0 0 -0.25 -0.21 7.3 7.3 0 0 0 -0.66 -0.37 0.3 0.3 0 0 0 -0.41 0A0.29 0.29 0 0 0 5 5.7a4 4 0 0 0 0.45 0.8Z" fill="#4C57E6" stroke-width="1"></path>
    <path d="M1.79 11.07a3.79 3.79 0 0 0 0.73 0.5 1.48 1.48 0 0 0 0.35 0.13 1.5 1.5 0 0 0 0.37 0.05 5 5 0 0 0 0.86 0 0.32 0.32 0 0 0 0.13 -0.63c-0.27 -0.12 -0.5 -0.25 -0.76 -0.35a1.75 1.75 0 0 0 -0.32 -0.12l-0.33 -0.07 -0.83 0a0.28 0.28 0 1 0 -0.2 0.53Z" fill="#4C57E6" stroke-width="1"></path>
  </g>
</svg>