<svg xmlns="http://www.w3.org/2000/svg" viewBox="0 0 24 24" id="Day-Sunrise-1--Streamline-Freehand">
  <desc>
    Day Sunrise 1 Streamline Icon: https://streamlinehq.com
  </desc>
  <g>
    <path d="M15.11 17.05c1.86 0.39 2.94 -1.2 1.72 -2.75l-3.64 -4.22a0.34 0.34 0 1 0 -0.53 0.41c3.67 4.51 3.84 4.56 3.82 5.17s-0.69 0.59 -1.17 0.48c-0.67 -0.16 -0.79 -0.56 -1.29 -0.87s-1 -0.11 -1 0.34c-0.19 2.28 0.33 4.76 -0.48 5.18a2.25 2.25 0 0 1 -1 0.07c-0.94 -0.27 -0.67 0.23 -0.62 -1.16a18 18 0 0 0 -0.18 -4.2c-0.63 -1.64 -1.92 0.08 -2.93 0.48a2.16 2.16 0 0 1 -0.78 0.15c-0.27 0 -0.44 0.08 -0.33 -0.34 0.4 -1.47 3.5 -4.3 5.25 -5.51a0.3 0.3 0 1 0 -0.33 -0.49 23.25 23.25 0 0 0 -5 4.33c-1.09 1.4 -1.4 2.91 0.37 3a3.1 3.1 0 0 0 1.64 -0.41 6.2 6.2 0 0 0 1.12 -0.47l0 0.45c0.18 3.62 -0.56 4.62 0.61 5.13a3.91 3.91 0 0 0 2.64 0c1.45 -0.82 1 -2.82 1 -5.32a2.56 2.56 0 0 0 1.11 0.55Z" fill="#020202" fill-rule="evenodd" stroke-width="1"></path>
    <path d="M4.56 9.93a7 7 0 0 0 0.65 3.77 0.3 0.3 0 0 0 0.51 -0.31 6 6 0 0 1 -0.4 -3.14C5.55 8.1 8 6 9.63 5.66c6 -1.17 9.53 3.49 8.23 7.45a0.34 0.34 0 0 0 0.63 0.23C20.27 8.6 16 3.18 9.4 4.56 7.44 5 4.79 7.44 4.56 9.93Z" fill="#020202" fill-rule="evenodd" stroke-width="1"></path>
    <path d="M11.52 2.94a0.34 0.34 0 0 0 0.67 0c0.06 -0.39 0.21 -0.85 0.24 -1.27a4.26 4.26 0 0 0 -0.22 -1.36 0.3 0.3 0 0 0 -0.59 0 3.27 3.27 0 0 0 -0.1 2.63Z" fill="#4C57E6" fill-rule="evenodd" stroke-width="1"></path>
    <path d="M5.05 5.78a0.34 0.34 0 0 0 0.46 -0.49C5 4.56 5 3.89 3.6 3.34a0.29 0.29 0 0 0 -0.34 0.48c0.43 0.5 0.35 1.07 1.79 1.96Z" fill="#4C57E6" fill-rule="evenodd" stroke-width="1"></path>
    <path d="M3.34 12.28a0.34 0.34 0 0 0 -0.14 -0.66c-0.79 0 -1.14 -0.46 -2.91 -0.06a0.3 0.3 0 1 0 0 0.59 3.89 3.89 0 0 0 3.05 0.13Z" fill="#4C57E6" fill-rule="evenodd" stroke-width="1"></path>
    <path d="M5.15 17.87A3.08 3.08 0 0 0 3.48 20a0.3 0.3 0 0 0 0.48 0.35 5.38 5.38 0 0 0 1 -0.87c0.25 -0.32 0.46 -0.78 0.67 -1.1a0.34 0.34 0 0 0 -0.48 -0.51Z" fill="#4C57E6" fill-rule="evenodd" stroke-width="1"></path>
    <path d="M18.26 6.16a7.18 7.18 0 0 0 2.61 -2.5 0.34 0.34 0 0 0 -0.51 -0.44c-1 0.84 -1.54 0.75 -2.56 2.56a0.3 0.3 0 0 0 0.46 0.38Z" fill="#4C57E6" fill-rule="evenodd" stroke-width="1"></path>
    <path d="M23.57 11.28a4.83 4.83 0 0 1 -1.06 -0.08 6.21 6.21 0 0 0 -2.05 0.06 0.3 0.3 0 0 0 -0.06 0.59 3.79 3.79 0 0 0 3.36 0.07 0.33 0.33 0 1 0 -0.19 -0.64Z" fill="#4C57E6" fill-rule="evenodd" stroke-width="1"></path>
    <path d="M18.79 17.12a1.44 1.44 0 0 1 -0.27 -0.22 0.3 0.3 0 0 0 -0.41 -0.1c-0.52 0.32 0.75 1.66 1.22 2s0.79 0.56 1.18 0.86a0.33 0.33 0 0 0 0.49 -0.45c-1.37 -2 -1.44 -1.51 -2.21 -2.09Z" fill="#4C57E6" fill-rule="evenodd" stroke-width="1"></path>
    <path d="M22.84 23.24a42 42 0 0 1 -5.23 -0.32c-3 -0.14 -11.94 -0.12 -13.37 0a14.68 14.68 0 0 1 -3.5 0.08 0.29 0.29 0 1 0 -0.14 0.57 15 15 0 0 0 3.66 0.16c10.27 0.5 8 0.13 13.33 0.17a42.91 42.91 0 0 0 5.32 0.05 0.34 0.34 0 0 0 -0.07 -0.71Z" fill="#020202" fill-rule="evenodd" stroke-width="1"></path>
  </g>
</svg>