<svg xmlns="http://www.w3.org/2000/svg" viewBox="0 0 24 24" id="Day-Afternoon--Streamline-Freehand">
  <desc>
    Day Afternoon Streamline Icon: https://streamlinehq.com
  </desc>
  <g>
    <path d="M8.19 7.89a0.48 0.48 0 0 0 -0.19 0.39 0.29 0.29 0 0 0 0.39 0.09l2.18 -0.44c0.47 -0.15 0.35 -0.9 0 -1a2.88 2.88 0 0 0 -2.38 0.96Z" fill="#020202" stroke-width="1"></path>
    <path d="M13.1 9.4c0.2 -0.1 0.1 -0.29 0 -0.39A1.15 1.15 0 0 0 12 9c-0.17 0.24 -0.21 0.43 0.05 0.55a1.89 1.89 0 0 0 1.05 -0.15Z" fill="#020202" stroke-width="1"></path>
    <path d="M23.23 18h-1c-0.68 0 -1.36 0.1 -2.14 0.1 0 0 -7.53 0.31 -8 0.31 0.1 -1.55 -0.14 -3.42 -0.14 -5 0 -1.27 -0.29 -7.68 -0.29 -7.68a1.4 1.4 0 0 0 -0.18 -0.73c-0.1 -0.19 -0.2 -0.19 -0.39 -0.19s-0.19 0.19 -0.19 0.39a1.31 1.31 0 0 1 0.09 0.58v1s-0.09 5.54 -0.09 6.8c0 1.55 0.09 3.11 0.19 4.76H8.47c-1.56 0 -6 0.39 -6.7 0.48 -0.49 0.1 -0.88 0.1 -1.36 0.2 -0.2 0 -0.49 0.1 -0.39 0.39 0.12 0.49 -0.44 0 13.21 0 1.36 0 2.81 -0.1 4.17 -0.1 1 0 1.85 -0.1 2.82 -0.1a16.94 16.94 0 0 0 2.14 -0.21h0.87c0.19 0 0.84 -0.07 0.76 -0.5 0.01 -0.5 -0.57 -0.5 -0.76 -0.5Z" fill="#4C57E6" stroke-width="1"></path>
    <path d="M1.57 17.57a0.25 0.25 0 0 0 0.29 -0.29 5.8 5.8 0 0 0 0.68 -2.62c0.1 -0.2 0 -0.39 -0.19 -0.39s-0.39 0.19 -0.68 0.49a2.43 2.43 0 0 0 -0.39 2.52 0.31 0.31 0 0 0 0.29 0.29Z" fill="#020202" stroke-width="1"></path>
    <path d="M3.32 12c0.2 0.09 0.29 0 0.39 -0.2s0.39 -0.29 0.58 -0.48a3.28 3.28 0 0 0 0.78 -1.17 0.43 0.43 0 0 0 0.1 -0.48 0.43 0.43 0 0 0 -0.49 -0.1 2.51 2.51 0 0 0 -1.55 1.94 0.75 0.75 0 0 0 0.19 0.49Z" fill="#020202" stroke-width="1"></path>
    <path d="M13.61 8.83a1.53 1.53 0 0 0 1.27 1.56 2.24 2.24 0 0 0 1.84 -0.68 1.81 1.81 0 0 0 0.2 -1.85 2.33 2.33 0 0 0 -0.39 -0.49 2.46 2.46 0 0 0 -0.68 -0.37 1.83 1.83 0 0 0 -2.24 1.83Zm2.53 -0.68a0.79 0.79 0 0 1 -0.29 0.88 0.84 0.84 0 0 1 -0.78 0.29c-0.39 -0.1 -0.58 -0.39 -0.48 -0.68 0.19 -0.78 1.06 -1.46 1.55 -0.49Z" fill="#020202" stroke-width="1"></path>
    <path d="M15.27 5.72a0.3 0.3 0 0 0 0.29 0.29 0.31 0.31 0 0 0 0.29 -0.29V4.66c0 -0.2 -0.2 -0.3 -0.39 -0.3a0.26 0.26 0 0 0 -0.29 0.3 1.86 1.86 0 0 0 0.1 1.06Z" fill="#020202" stroke-width="1"></path>
    <path d="M17.4 7.18a1.86 1.86 0 0 0 0.68 -0.49 0.41 0.41 0 0 0 0.1 -0.48 0.42 0.42 0 0 0 -0.49 -0.1 1.42 1.42 0 0 0 -0.68 0.58 0.32 0.32 0 0 0 0 0.39 0.24 0.24 0 0 0 0.39 0.1Z" fill="#020202" stroke-width="1"></path>
    <path d="M17.79 8.35a0.35 0.35 0 0 0 -0.19 0.48c0.19 0.29 1.26 0.1 1.36 -0.19s-0.1 -0.29 -0.3 -0.39a3.25 3.25 0 0 0 -0.87 0.1Z" fill="#020202" stroke-width="1"></path>
    <path d="M17.4 9.71c-0.19 -0.1 -0.29 0 -0.39 0.19 -0.19 0.49 1 1.07 1.17 0.58 0 0 0.29 -0.48 -0.78 -0.77Z" fill="#020202" stroke-width="1"></path>
    <path d="M15.65 12.13c0.2 0 0.3 -0.19 0.3 -0.39a1.21 1.21 0 0 0 -0.2 -0.77c-0.19 -0.2 -0.29 -0.29 -0.48 -0.2 -0.49 0 -0.1 1.36 0.38 1.36Z" fill="#020202" stroke-width="1"></path>
    <path d="M14.1 10.48a0.32 0.32 0 0 0 -0.39 0c-0.19 0 -0.48 0.29 -0.58 0.49a0.31 0.31 0 0 0 0 0.48 0.42 0.42 0 0 0 0.48 0c0.2 0 0.49 -0.39 0.49 -0.48a0.43 0.43 0 0 0 0 -0.49Z" fill="#020202" stroke-width="1"></path>
    <path d="M13.52 7.18A0.57 0.57 0 0 0 14 7c0.1 -0.1 0 -0.3 -0.09 -0.39a1.58 1.58 0 0 0 -0.68 -0.39c-0.2 -0.1 -0.49 -0.1 -0.49 0.1a0.9 0.9 0 0 0 0.78 0.86Z" fill="#020202" stroke-width="1"></path>
    <path d="M18.66 11.84a4.55 4.55 0 0 0 1.07 1.36 0.43 0.43 0 0 0 0.49 0c0.19 -0.1 -0.1 -1.55 -1.26 -1.94 -0.3 0 -0.49 0.19 -0.3 0.58Z" fill="#020202" stroke-width="1"></path>
    <path d="M21.29 17.09c0 0.19 0.19 0.29 0.39 0.29s0.29 -0.2 0.29 -0.39a2.36 2.36 0 0 0 -0.29 -2c-0.3 -0.49 -0.59 -0.29 -0.68 0.19 0 0.64 -0.2 0.35 0.29 1.91Z" fill="#020202" stroke-width="1"></path>
  </g>
</svg>