<svg xmlns="http://www.w3.org/2000/svg" viewBox="0 0 24 24" id="Debate-Talk--Streamline-Freehand">
  <desc>
    Debate Talk Streamline Icon: https://streamlinehq.com
  </desc>
  <title>debate-talk</title>
  <g>
    <path d="m8.73 19.32 -0.4 0L7 19.17c-0.8 0 -1.61 -0.11 -2.41 -0.13C4 19 3.46 19 2.92 19a10.21 10.21 0 0 0 -1.07 0 1.64 1.64 0 0 0 -0.58 0.16 0.53 0.53 0 0 0 -0.26 0.55c0 0.2 0.17 0.69 0.17 0.72l0.64 2.58a0.28 0.28 0 0 0 0.33 0.22 0.27 0.27 0 0 0 0.23 -0.23L2 20.38A2.86 2.86 0 0 0 2 20c0.31 0 0.63 0 0.87 0.05l4 0.1h1.31l0 0.29L8 22.62a0.32 0.32 0 0 0 0.29 0.35 0.33 0.33 0 0 0 0.36 -0.29L9 20.61a6.91 6.91 0 0 0 0.12 -0.78 0.58 0.58 0 0 0 -0.09 -0.32 0.53 0.53 0 0 0 -0.3 -0.19Z" fill="#020202" fill-rule="evenodd" stroke-width="1"></path>
    <path d="M22.79 20.53a0.58 0.58 0 0 0 -0.41 -0.25c-0.25 -0.05 -0.9 0 -1 -0.05 -0.46 0 -0.91 -0.06 -1.37 -0.07l-2 0 -1.34 0c-0.45 0 -0.63 0 -0.95 0.07a5.08 5.08 0 0 0 -0.73 0.09 0.73 0.73 0 0 0 -0.43 0.27 0.61 0.61 0 0 0 -0.08 0.39 4.46 4.46 0 0 0 0.12 0.54 7.63 7.63 0 0 0 0.2 1c0.13 0.45 0.28 0.9 0.42 1.35a0.29 0.29 0 0 0 0.35 0.2 0.3 0.3 0 0 0 0.21 -0.35c-0.1 -0.45 -0.21 -0.9 -0.28 -1.35a6.42 6.42 0 0 1 -0.09 -0.87 2.39 2.39 0 0 1 0 -0.31l0.36 0.06 2.2 0.08 3.35 -0.07a2.64 2.64 0 0 0 0.8 0.05 1.65 1.65 0 0 1 0.06 0.46 9.64 9.64 0 0 1 -0.12 1.41 0.34 0.34 0 0 0 0.28 0.38 0.34 0.34 0 0 0 0.37 -0.28 8.51 8.51 0 0 0 0.29 -1.86 2 2 0 0 0 -0.21 -0.89Z" fill="#020202" fill-rule="evenodd" stroke-width="1"></path>
    <path d="M2.15 17.94a0.29 0.29 0 0 0 0.38 -0.16 5.19 5.19 0 0 1 0.81 -1.27 2.84 2.84 0 0 1 1.13 -0.79 1.81 1.81 0 0 1 1.15 -0.14 2.38 2.38 0 0 1 0.77 0.28 3.49 3.49 0 0 1 1.44 1.72 0.33 0.33 0 0 0 0.63 -0.19 4.07 4.07 0 0 0 -2 -2.66 2.29 2.29 0 0 0 1.3 -1.84c0.12 -1.12 -0.62 -2.26 -2.39 -2.29a2.42 2.42 0 0 0 -1.88 1 2.31 2.31 0 0 0 -0.39 2.07 2.26 2.26 0 0 0 0.75 1l0.12 0.08a3.75 3.75 0 0 0 -1.06 0.9A5.62 5.62 0 0 0 2 17.57a0.29 0.29 0 0 0 0.15 0.37Zm2.15 -5.67a1.43 1.43 0 0 1 1.06 -0.58c1 0 1.47 0.5 1.46 1.13 0 1.38 -2.48 2.55 -2.91 0.63a1.4 1.4 0 0 1 0.39 -1.18Z" fill="#020202" fill-rule="evenodd" stroke-width="1"></path>
    <path d="M16.74 12.6a2 2 0 0 0 -0.48 1.91 2.24 2.24 0 0 0 0.57 0.92 3.65 3.65 0 0 0 0.48 0.38l-0.26 0.1a2.62 2.62 0 0 0 -0.9 1 9.11 9.11 0 0 0 -0.6 1.64 0.3 0.3 0 0 0 0.16 0.37 0.29 0.29 0 0 0 0.38 -0.16 8 8 0 0 1 0.78 -1.38 1.79 1.79 0 0 1 0.67 -0.53 1.71 1.71 0 0 1 1.09 -0.18 2.48 2.48 0 0 1 0.76 0.23 3.36 3.36 0 0 1 1.51 1.52 0.32 0.32 0 0 0 0.42 0.19 0.32 0.32 0 0 0 0.19 -0.42 4.11 4.11 0 0 0 -1.59 -2.13 2.4 2.4 0 0 0 1 -2.35 2.31 2.31 0 0 0 -2.36 -1.89 2.42 2.42 0 0 0 -1.82 0.78ZM20 13.9c0.34 1.29 -1 2.74 -2.48 1.19a1.58 1.58 0 0 1 -0.41 -0.8 1.08 1.08 0 0 1 0.4 -1 1.45 1.45 0 0 1 1 -0.42A1.38 1.38 0 0 1 20 13.9Z" fill="#020202" fill-rule="evenodd" stroke-width="1"></path>
    <path d="M15.41 11.86a0.47 0.47 0 0 0 0.17 -0.38 0.46 0.46 0 0 0 -0.13 -0.32c-0.11 -0.13 -0.42 -0.39 -0.44 -0.43a1.8 1.8 0 0 1 -0.3 -0.66 1.06 1.06 0 0 1 0 -0.47l0.48 -0.11c0.3 -0.11 0.61 -0.24 0.9 -0.38A8.69 8.69 0 0 0 17 8.6a3.87 3.87 0 0 0 1.71 -3.44 4.69 4.69 0 0 0 -1.82 -3.4 6.1 6.1 0 0 0 -1.53 -0.85A14 14 0 0 0 13 0.19a7 7 0 0 0 -3.38 0 6.47 6.47 0 0 0 -2.94 1.7 6.73 6.73 0 0 0 -0.68 0.75 7.81 7.81 0 0 0 -0.53 0.83 4.46 4.46 0 0 0 -0.28 0.63 5.53 5.53 0 0 0 -0.2 0.66 3.29 3.29 0 0 0 0.41 2.58 5.39 5.39 0 0 0 3.06 2.12 9.57 9.57 0 0 0 1.44 0.32l0.36 0a3 3 0 0 0 1.3 1.69 4.59 4.59 0 0 0 2 0.65 3.86 3.86 0 0 0 0.68 0 2.73 2.73 0 0 0 0.7 -0.15 1.6 1.6 0 0 0 0.47 -0.11Zm-1.26 -0.42a3.37 3.37 0 0 1 -0.55 0 3.73 3.73 0 0 1 -1.66 -0.5c-0.43 -0.26 -0.78 -1.69 -1.95 -1.78a5.24 5.24 0 0 1 -1.32 -0.34 5.17 5.17 0 0 1 -2.29 -1.45A2.55 2.55 0 0 1 5.86 5a3.86 3.86 0 0 1 0.19 -0.54 4 4 0 0 1 0.25 -0.51 5.51 5.51 0 0 1 0.49 -0.7 6.75 6.75 0 0 1 0.57 -0.63 5.61 5.61 0 0 1 2.52 -1.37 6.19 6.19 0 0 1 2.87 0 15.19 15.19 0 0 1 2.18 0.66 5.4 5.4 0 0 1 1.25 0.72 3.63 3.63 0 0 1 1.45 2.59 2.92 2.92 0 0 1 -1.23 2.61 5.88 5.88 0 0 1 -0.72 0.46 4.91 4.91 0 0 1 -0.78 0.35 5.93 5.93 0 0 0 -0.65 0.19 0.56 0.56 0 0 0 -0.26 0.25 1.7 1.7 0 0 0 -0.14 0.94 2.54 2.54 0 0 0 0.49 1.19 2.32 2.32 0 0 0 0.21 0.14 2.59 2.59 0 0 1 -0.4 0.09Z" fill="#4C57E6" fill-rule="evenodd" stroke-width="1"></path>
  </g>
</svg>