<svg xmlns="http://www.w3.org/2000/svg" viewBox="0 0 24 24" id="Decoration-Flowers--Streamline-Freehand">
  <desc>
    Decoration Flowers Streamline Icon: https://streamlinehq.com
  </desc>
  <g>
    <path d="M19.54 3.24a2.17 2.17 0 0 0 -1.25 0.66 7.81 7.81 0 0 0 -1.23 2.22c-0.28 0.59 -0.61 1.12 -1.34 1.21a1.33 1.33 0 0 1 -1.46 -0.59 1.46 1.46 0 0 1 0.29 -1.6 5.25 5.25 0 0 1 2.26 -1.59 6 6 0 0 1 2.85 -0.39 0.3 0.3 0 0 0 0.34 -0.24 0.31 0.31 0 0 0 -0.24 -0.36 6.39 6.39 0 0 0 -2.1 -0.06 0.29 0.29 0 0 0 0 -0.24 6.44 6.44 0 0 0 -1 -1.47 2.72 2.72 0 0 0 -1.12 -0.67 2.16 2.16 0 0 0 -0.85 -0.12 1.08 1.08 0 0 0 -0.73 0.4 1.19 1.19 0 0 0 -0.24 0.52 2.48 2.48 0 0 0 -0.05 0.62 1 1 0 0 1 -0.05 0.46c-0.22 0.4 -0.51 0.75 -0.75 1.13a3.91 3.91 0 0 0 -0.32 0.61A2.65 2.65 0 0 0 12.37 5a4.83 4.83 0 0 0 0.46 1.61 0.3 0.3 0 0 0 0.22 0.19 2.4 2.4 0 0 0 -0.7 0.72A5.18 5.18 0 0 0 12 9c0 0.42 0.19 0.44 0.76 0a6 6 0 0 1 0.29 -0.88c0.1 -0.18 0.18 -0.36 0.29 -0.52l0.05 -0.08a2.43 2.43 0 0 0 2.49 0.88 2.29 2.29 0 0 0 1.34 -0.73 7.74 7.74 0 0 0 1.11 -2.33c0.25 -0.65 0.57 -1.26 1.33 -1.43a0.34 0.34 0 0 0 0.27 -0.4 0.34 0.34 0 0 0 -0.39 -0.27Zm-6.31 1.89a1.85 1.85 0 0 1 0.21 -1l1.18 -1.58a1.43 1.43 0 0 0 0.17 -0.49 4.35 4.35 0 0 0 0 -0.72l0 -0.28h0.44a1.86 1.86 0 0 1 0.81 0.32 6.25 6.25 0 0 1 1 1.17 5.63 5.63 0 0 0 -0.59 0.14 6.28 6.28 0 0 0 -2.85 1.7 3.38 3.38 0 0 0 -0.37 0.74Z" fill="#4C57E6" fill-rule="evenodd" stroke-width="1"></path>
    <path d="M9.64 8.29a2.33 2.33 0 0 0 0.14 0.33 2.28 2.28 0 0 1 0.14 0.38c0.27 0.53 0.55 0.33 0.84 0a3 3 0 0 0 -0.2 -0.86 1.74 1.74 0 0 0 -0.25 -0.29 3.4 3.4 0 0 0 1 -1.33 5.3 5.3 0 0 0 -0.8 -5.21 0.37 0.37 0 0 0 -0.34 -0.11 1.27 1.27 0 0 0 -0.48 -0.27 1.7 1.7 0 0 0 -1 0 0.17 0.17 0 0 0 -0.1 0 3.93 3.93 0 0 0 -1.08 0.25 12.57 12.57 0 0 0 -1.45 0.6 6.27 6.27 0 0 0 -0.62 0.36 5.84 5.84 0 0 0 -0.56 0.42A2.54 2.54 0 0 0 4 4.76a1.44 1.44 0 0 0 0.33 0.65A6.34 6.34 0 0 0 6 7.79a3.93 3.93 0 0 0 2.08 0.77 3.31 3.31 0 0 0 1.56 -0.27ZM5 4.32a1.62 1.62 0 0 1 0.46 -1.14 5.72 5.72 0 0 1 0.46 -0.4 4.46 4.46 0 0 1 0.5 -0.35l0.46 -0.26c-0.09 0.11 -0.17 0.24 -0.25 0.36A2.3 2.3 0 0 0 6.34 4 0.34 0.34 0 1 0 7 3.93a1.63 1.63 0 0 1 0.28 -1 2.77 2.77 0 0 1 0.81 -0.76l0.63 -0.36a0.81 0.81 0 0 1 0.51 0 0.39 0.39 0 0 1 0.29 0.19 0.63 0.63 0 0 1 0 0.52 1.85 1.85 0 0 1 -0.42 0.6 6.89 6.89 0 0 1 -1.7 1.22 3.5 3.5 0 0 1 -1.84 0.48c-0.37 -0.03 -0.56 -0.23 -0.56 -0.5ZM5.45 6a4.17 4.17 0 0 0 2 -0.37 7.48 7.48 0 0 0 2.42 -1.72 2.92 2.92 0 0 0 0.61 -1 4.85 4.85 0 0 1 0 2.51 3.28 3.28 0 0 1 -0.62 1.27 2 2 0 0 1 -1.72 0.77 2.82 2.82 0 0 1 -1.95 -0.66 4.34 4.34 0 0 1 -0.74 -0.8Z" fill="#4C57E6" fill-rule="evenodd" stroke-width="1"></path>
    <path d="M15.51 14.87a4.2 4.2 0 0 1 -0.33 -1.42 3.07 3.07 0 0 1 0.32 -1.37c0.17 -0.38 0.76 -0.92 1 -1.41a1.25 1.25 0 0 0 0.15 -0.65 0.48 0.48 0 0 0 -0.42 -0.43c-0.17 0 -0.62 -0.05 -0.65 -0.05 -9.34 0.14 -6.1 0.1 -6.81 0.12a8.93 8.93 0 0 0 -1.37 0.1 0.3 0.3 0 0 0 -0.26 0.34 0.3 0.3 0 0 0 0.34 0.26h0.08a0.39 0.39 0 0 0 0 0.21 11.1 11.1 0 0 1 1.13 2.13 2.43 2.43 0 0 1 -0.05 1.43 3.38 3.38 0 0 1 -0.34 0.75c-0.23 0.4 -0.51 0.78 -0.74 1.17a7.33 7.33 0 0 0 -1.3 2.68 4.38 4.38 0 0 0 0.23 2.41 4.28 4.28 0 0 0 2.54 2.41 8.35 8.35 0 0 0 5.06 0.13 4.38 4.38 0 0 0 2.65 -2.07 4.65 4.65 0 0 0 0.44 -3.34c-0.03 -0.27 -1.18 -2.05 -1.67 -3.4Zm0.27 6.13a3.29 3.29 0 0 1 -2 1.54 7.23 7.23 0 0 1 -4.34 0 3.28 3.28 0 0 1 -2 -1.78 3.55 3.55 0 0 1 -0.22 -1.89 6.41 6.41 0 0 1 1.12 -2.4c0.25 -0.47 0.58 -0.92 0.82 -1.4a4.48 4.48 0 0 0 0.28 -0.72 3.34 3.34 0 0 0 0 -1.86 11.14 11.14 0 0 0 -1.2 -2.18h0.52c0.66 0 1.33 0 2 0.07l2.23 0h2.6c-0.31 0.44 -0.8 0.91 -1 1.24a4.13 4.13 0 0 0 -0.47 1.8 5.38 5.38 0 0 0 0.35 1.78 29.12 29.12 0 0 0 1.6 3.29 3.49 3.49 0 0 1 -0.29 2.51Z" fill="#020202" fill-rule="evenodd" stroke-width="1"></path>
  </g>
</svg>