<svg xmlns="http://www.w3.org/2000/svg" viewBox="0 0 24 24" id="Deer-Hunt-Target--Streamline-Freehand">
  <desc>
    Deer Hunt Target Streamline Icon: https://streamlinehq.com
  </desc>
  <g>
    <path d="M23.35 11.2c-0.53 -0.11 -1.07 -0.23 -1.62 -0.3l-0.45 0a9.24 9.24 0 0 0 -0.79 -2.95A8.74 8.74 0 0 0 16.77 4c-1.91 -1.09 -2.7 -1 -4.49 -1.69l0 -0.36c0 -0.54 -0.12 -1.06 -0.13 -1.6A0.27 0.27 0 0 0 11.9 0a0.29 0.29 0 0 0 -0.32 0.24 9.36 9.36 0 0 0 -0.35 1.9v0.1a6.82 6.82 0 0 0 -1.84 0.41 9.79 9.79 0 0 0 -2.46 1.4 11.46 11.46 0 0 0 -3 3.39 8.93 8.93 0 0 0 -1.13 3.47l-0.39 0c-0.36 0 -0.71 0.11 -1.07 0.13a4.52 4.52 0 0 1 -0.64 0 0.28 0.28 0 1 0 -0.09 0.55 6.35 6.35 0 0 0 1.15 0.24c0.33 0 0.66 0.05 1 0.08a11.77 11.77 0 0 0 0.37 2.71 8.34 8.34 0 0 0 1.15 2.63 10 10 0 0 0 3.22 2.83 10.5 10.5 0 0 0 4.05 1.38h0.12l0 0.47c0.06 0.57 0.17 1.12 0.23 1.7a0.31 0.31 0 0 0 0.31 0.32 0.33 0.33 0 0 0 0.32 -0.31c0.07 -0.57 0.12 -1.13 0.15 -1.7v-0.44a11.33 11.33 0 0 0 1.43 -0.11 8 8 0 0 0 2.5 -0.84 6.92 6.92 0 0 0 1.54 -1.16 10.42 10.42 0 0 0 1.2 -1.39 11 11 0 0 0 1.92 -4.9 9.66 9.66 0 0 0 0.07 -1.2h0.34c0.55 0 1.08 -0.06 1.61 -0.07a0.32 0.32 0 0 0 0.34 -0.29 0.31 0.31 0 0 0 -0.28 -0.34Zm-4.83 6.22a8.86 8.86 0 0 1 -1.1 1.28 5.81 5.81 0 0 1 -1.32 1 6.72 6.72 0 0 1 -2.15 0.71 9.76 9.76 0 0 1 -1.32 0.09c-0.06 -0.52 -0.15 -1 -0.19 -1.57a0.28 0.28 0 1 0 -0.55 0 14.56 14.56 0 0 0 -0.24 1.57A9.65 9.65 0 0 1 8 19.21a9.2 9.2 0 0 1 -2.92 -2.5A7.52 7.52 0 0 1 4 14.42 10.9 10.9 0 0 1 3.63 12h0.06c0.64 0 1.27 -0.13 1.91 -0.23a0.32 0.32 0 1 0 0 -0.63c-0.62 0 -1.24 -0.13 -1.87 -0.17a8.16 8.16 0 0 1 0.94 -3.1 10.91 10.91 0 0 1 2.67 -3.29 8.69 8.69 0 0 1 2.27 -1.35 6.11 6.11 0 0 1 1.63 -0.42l0 0.46c0.05 0.56 0.15 1.1 0.2 1.66a0.33 0.33 0 0 0 0.31 0.32 0.31 0.31 0 0 0 0.32 -0.31c0.08 -0.55 0.14 -1.09 0.17 -1.65a0.81 0.81 0 0 0 0 -0.16 11.77 11.77 0 0 1 4.13 1.45 8 8 0 0 1 3.33 3.67 8.37 8.37 0 0 1 0.66 2.6h-0.08a14.6 14.6 0 0 0 -1.63 0.28 0.27 0.27 0 0 0 -0.26 0.3 0.28 0.28 0 0 0 0.3 0.26c0.52 0 1.05 0.13 1.59 0.18h0.12a8.29 8.29 0 0 1 -0.04 1.13 10.14 10.14 0 0 1 -1.84 4.42Z" fill="#4C57E6" fill-rule="evenodd" stroke-width="1"></path>
    <path d="M17.9 7.92a0.32 0.32 0 0 0 -0.27 0.36A1.59 1.59 0 0 1 17 9.44a3.87 3.87 0 0 1 -0.59 0.46 3.05 3.05 0 0 0 0 -0.43 0.59 0.59 0 0 0 -0.05 -0.23 0.67 0.67 0 0 0 -0.07 -0.24 5.2 5.2 0 0 0 -0.37 -0.43 0.28 0.28 0 1 0 -0.54 0.13 2.6 2.6 0 0 0 -0.05 0.62 0.54 0.54 0 0 0 0.05 0.22 0.81 0.81 0 0 0 0.1 0.21c0.1 0.16 0.22 0.27 0.31 0.43a4.75 4.75 0 0 1 -0.71 0.36 3.94 3.94 0 0 1 -0.49 0.14 2.12 2.12 0 0 1 -0.5 0h-0.06a2 2 0 0 0 -0.43 -0.43 1.77 1.77 0 0 0 -1.32 -0.25h-0.08c-0.28 0 -0.54 0.06 -0.79 0.11a2.07 2.07 0 0 0 -0.57 0.21 1.48 1.48 0 0 0 -0.36 0.29 3.08 3.08 0 0 0 -0.3 0.41c-0.37 -0.14 -0.76 -0.19 -1.14 -0.31a1.22 1.22 0 0 1 -0.36 -0.18 2.75 2.75 0 0 1 -0.44 -0.32 3.18 3.18 0 0 0 0.47 -0.37 2.35 2.35 0 0 0 0.19 -0.24 2.29 2.29 0 0 0 0.1 -0.27c0.11 -0.23 0.17 -0.45 0.26 -0.69a0.31 0.31 0 0 0 -0.07 -0.44 0.32 0.32 0 0 0 -0.44 0.07 5.37 5.37 0 0 0 -0.57 0.5A1.21 1.21 0 0 0 8 9a1.73 1.73 0 0 0 -0.15 0.27 4 4 0 0 0 -0.13 0.42 4.13 4.13 0 0 1 -0.31 -0.42 1.65 1.65 0 0 1 -0.24 -0.5 1.76 1.76 0 0 1 -0.07 -0.45l0 -0.84a0.28 0.28 0 0 0 -0.56 -0.06c-0.07 0.32 -0.19 0.64 -0.25 1a2.19 2.19 0 0 0 0 0.51A2.72 2.72 0 0 0 7 10.44a3.73 3.73 0 0 0 1.29 0.94 3.33 3.33 0 0 0 0.6 0.16c0.34 0.05 0.69 0 1 0.09a2.89 2.89 0 0 0 -0.15 0.87 4.91 4.91 0 0 0 0.46 2A5.62 5.62 0 0 0 11 16a1.52 1.52 0 0 0 1.39 0.51 1.82 1.82 0 0 0 0.87 -0.35 2.94 2.94 0 0 0 0.76 -1 5.94 5.94 0 0 0 0.62 -1.82 3.82 3.82 0 0 0 -0.17 -2l0.21 0a3.64 3.64 0 0 0 0.66 0 3.86 3.86 0 0 0 1.13 -0.32 3.59 3.59 0 0 0 1 -0.66 2.45 2.45 0 0 0 0.85 -2.26 0.33 0.33 0 0 0 -0.42 -0.18Zm-4.19 5.31a5.14 5.14 0 0 1 -0.61 1.49 2.34 2.34 0 0 1 -0.41 0.54 0.82 0.82 0 0 1 -0.45 0.21 0.54 0.54 0 0 1 -0.5 -0.17 4.81 4.81 0 0 1 -0.64 -1.23 4.4 4.4 0 0 1 -0.49 -1.32 2 2 0 0 1 0.16 -1.28 3.9 3.9 0 0 1 0.19 -0.35 1 1 0 0 1 0.22 -0.23 1.88 1.88 0 0 1 0.38 -0.18 1.66 1.66 0 0 1 1.64 0.19 1.58 1.58 0 0 1 0.5 0.79 3.09 3.09 0 0 1 0.01 1.54Z" fill="#020202" fill-rule="evenodd" stroke-width="1"></path>
  </g>
</svg>