<svg xmlns="http://www.w3.org/2000/svg" viewBox="0 0 24 24" id="Delete-Bin-Recovery-2--Streamline-Freehand">
  <desc>
    Delete Bin Recovery 2 Streamline Icon: https://streamlinehq.com
  </desc>
  <g>
    <path d="M12.57 5.62a43.27 43.27 0 0 0 4.18 -2.26 1.77 1.77 0 0 0 0.52 -0.48 0.59 0.59 0 0 0 0.09 -0.44l-0.31 -0.7c-0.05 -0.11 -0.19 -0.5 -0.3 -0.74a1 1 0 0 0 -0.19 -0.31 1.09 1.09 0 0 0 -1 -0.18 29.92 29.92 0 0 0 -4.28 1.56A9.31 9.31 0 0 0 10 0.7a2.36 2.36 0 0 0 -0.82 -0.55 2.51 2.51 0 0 0 -0.73 0.15C8 0.44 7.44 0.66 7.21 0.75 6.66 1 6 1.2 5.47 1.47a6.75 6.75 0 0 0 -1.17 0.68 2 2 0 0 0 -0.7 0.85 2.68 2.68 0 0 0 -0.07 1.48l0.12 0.69a3.41 3.41 0 0 1 0.1 0.43C-0.37 7.7 0 7.92 0 8.09s0 0.12 0.07 0.23A16.7 16.7 0 0 0 0.77 10a1.23 1.23 0 0 0 0.44 0.51 0.65 0.65 0 0 0 0.33 0 11.06 11.06 0 0 0 1.06 -0.39c2.07 -0.84 6.55 -2.82 9.97 -4.5ZM4.26 5v-0.6a2.4 2.4 0 0 1 0.09 -0.91c0.07 -0.21 0.25 -0.34 0.52 -0.5a7 7 0 0 1 0.78 -0.38c0.67 -0.3 1.38 -0.56 2 -0.86L9 1.11a3.75 3.75 0 0 1 1 0.69c0.27 0.23 0.51 0.43 0.6 0.53 -2.07 0.89 -4.39 2 -6.34 3 0.02 -0.13 0.01 -0.27 0 -0.33ZM1.45 9.83l-0.1 -0.12a12.17 12.17 0 0 1 -0.69 -1.59 48.35 48.35 0 0 1 6 -3 80.92 80.92 0 0 1 8.66 -3.4l0.39 -0.12a4.69 4.69 0 0 0 0.36 0.61l0.14 0.29c-0.23 0.14 -0.67 0.32 -1.05 0.53 -0.93 0.52 -2.25 1.21 -3.7 2 -3.13 1.54 -6.83 3.38 -8.83 4.29 -0.53 0.25 -0.94 0.42 -1.18 0.51Z" fill="#4C57E6" stroke-width="1"></path>
    <path d="M17.3 15.9a0.34 0.34 0 0 0 -0.36 0.31l-0.64 4.24a5.58 5.58 0 0 1 -0.15 0.86 0.86 0.86 0 0 1 -0.17 0.36 3.89 3.89 0 0 1 -1.25 0.37 41.08 41.08 0 0 1 -6.07 0.66 17.62 17.62 0 0 1 -3.48 -0.14 2.57 2.57 0 0 1 -0.75 -0.22c-0.08 0 -0.16 -0.06 -0.19 -0.11a13.88 13.88 0 0 1 -0.84 -3.33C3.13 17 3.08 15 3 13.59c0 -0.69 0 -2.07 -0.06 -2.67v-0.34c0 -0.28 -0.53 -0.65 -0.58 0 0 0 -0.07 2.54 -0.07 3 0 1.44 0 3.45 0.15 5.41a13.82 13.82 0 0 0 0.79 3.62 1.72 1.72 0 0 0 1.18 0.89 14.48 14.48 0 0 0 4.3 0.29 35.92 35.92 0 0 0 6.23 -0.79 4.3 4.3 0 0 0 1.66 -0.66 1.63 1.63 0 0 0 0.33 -0.58 6.06 6.06 0 0 0 0.19 -1.16l0.48 -4.28a0.33 0.33 0 0 0 -0.3 -0.42Z" fill="#4C57E6" stroke-width="1"></path>
    <path d="M24 9.1a5 5 0 0 0 -2.39 -2.61 16.33 16.33 0 0 0 -4.58 -2 0.89 0.89 0 0 0 -1.09 0.86 8 8 0 0 0 0.41 2.49l-0.73 0.16a8.1 8.1 0 0 0 -5.12 3.36 8.08 8.08 0 0 0 -0.87 6 0.29 0.29 0 0 0 0.34 0.24 0.29 0.29 0 0 0 0.24 -0.34 7.43 7.43 0 0 1 0.93 -5.47A7.24 7.24 0 0 1 15.82 9L17 8.75a0.51 0.51 0 0 0 0.44 -0.55A12 12 0 0 1 17 5.62a16.56 16.56 0 0 1 4 1.82c0.93 0.59 1.75 1.23 1.91 1.9l0 0.11a3.08 3.08 0 0 1 -0.27 0.48A13.91 13.91 0 0 1 21 11.82a15.35 15.35 0 0 1 -2.28 2 10.72 10.72 0 0 0 -0.38 -1.49 0.46 0.46 0 0 0 -0.19 -0.34 0.46 0.46 0 0 0 -0.38 -0.06c-0.76 0.22 -3.44 0.12 -5.28 1.75a5.52 5.52 0 0 0 -1.77 3.4 0.34 0.34 0 0 0 0.27 0.39 0.34 0.34 0 0 0 0.39 -0.27 4.64 4.64 0 0 1 2.29 -3.42 9.17 9.17 0 0 1 3.81 -0.91 6.31 6.31 0 0 0 0.22 1.45c0.17 0.49 0.51 0.66 0.82 0.61A12.29 12.29 0 0 0 22.26 12a8.9 8.9 0 0 0 1.55 -2 1.36 1.36 0 0 0 0.19 -0.9Z" fill="#020202" stroke-width="1"></path>
  </g>
</svg>