<svg xmlns="http://www.w3.org/2000/svg" viewBox="0 0 24 24" id="Delivery-Drone-Package--Streamline-Freehand">
  <desc>
    Delivery Drone Package Streamline Icon: https://streamlinehq.com
  </desc>
  <g>
    <path d="M15.47 13.83c-0.42 -0.55 -0.76 -1.15 -1.12 -1.73s-0.82 -1.35 -1.21 -2a4.73 4.73 0 0 0 2.46 -1.71 0.39 0.39 0 0 0 0 -0.53 0.37 0.37 0 0 0 -0.54 0 4 4 0 0 1 -2.16 1 4.81 4.81 0 0 1 -1 0.07 4.53 4.53 0 0 1 -1 -0.09A2.72 2.72 0 0 1 9 7.61a0.33 0.33 0 0 0 -0.44 -0.17 0.34 0.34 0 0 0 -0.17 0.44A3.32 3.32 0 0 0 10.54 10l0.17 0c-0.5 0.69 -1 1.33 -1.5 2S8.44 13.13 8 13.65c-2 2.4 -1.46 1.16 -1.57 2.82 -0.07 0.92 0 1.86 -0.11 2.79l-0.08 1.33 0 0.4a0.69 0.69 0 0 0 0.06 0.28 1.73 1.73 0 0 0 0.64 0.65 11 11 0 0 0 1.53 0.67l2.14 1c0.12 0 0.44 0.25 0.66 0.33a0.83 0.83 0 0 0 0.4 0.07 9.75 9.75 0 0 0 1.33 -0.38c1.13 -0.39 2.54 -1 2.87 -1a2.86 2.86 0 0 0 0.5 -0.13 0.61 0.61 0 0 0 0.32 -0.24 1.63 1.63 0 0 0 0.17 -0.54 8.12 8.12 0 0 0 0 -0.95 11.81 11.81 0 0 0 0.14 -1.22l0 -2.68a0.35 0.35 0 0 0 -0.34 -0.36 0.35 0.35 0 0 0 -0.36 0.35l0 2.68c0 0.37 0 0.75 -0.06 1.12 -0.26 1.27 0.49 0.53 -3.57 2.06 -0.26 0.09 -0.49 0.18 -0.7 0.24 0.08 -0.54 0.17 -1.07 0.23 -1.62l0 -0.79a7 7 0 0 0 0 -0.78c-0.05 -0.57 -0.17 -1.12 -0.26 -1.69l0.12 0c0.26 -0.08 0.51 -0.2 0.74 -0.29l1.91 -0.77 1.36 -0.49 0.36 -0.15c0.59 -0.24 0.55 -0.26 0.57 -0.29a0.38 0.38 0 0 0 -0.07 -0.53 10.4 10.4 0 0 1 -1.46 -1.71Zm-5.58 -0.56a8.9 8.9 0 0 0 0.64 -1 18.74 18.74 0 0 0 1 -2.12 3.43 3.43 0 0 0 0.34 0.06c0.14 0 0.29 -0.05 0.43 -0.06a14.27 14.27 0 0 0 0.7 2.09 7.72 7.72 0 0 0 0.58 1 9.37 9.37 0 0 0 0.65 0.87l-1.48 -0.67a0.38 0.38 0 0 0 -0.49 0.22 0.33 0.33 0 0 0 -0.39 -0.15l-2.1 0.63a9.67 9.67 0 0 0 -0.95 0.33l-0.28 0.12c0.19 -0.17 0.43 -0.32 0.6 -0.5a7.81 7.81 0 0 0 0.75 -0.82Zm-1.1 8.55a13.07 13.07 0 0 1 -1.24 -0.52 1.22 1.22 0 0 1 -0.46 -0.3l0 -0.32 0.1 -1.29a17.72 17.72 0 0 0 0.16 -2.82c0.23 0.09 0.52 0.15 0.72 0.21l2 0.73 0.68 0.4c0.78 0.65 0.49 -0.49 0.26 1.89l0 0.78 0 0.77c0 0.53 0.1 1.05 0.16 1.58l-0.24 -0.1Zm5.52 -6 -2 0.72a6.82 6.82 0 0 1 -0.65 0.25l-0.16 0 -0.11 -0.08 -0.84 -0.48c-0.28 -0.12 -0.57 -0.24 -0.87 -0.34s-0.71 -0.21 -1.07 -0.31l0.54 -0.28 0.86 -0.4 2 -0.78a0.32 0.32 0 0 0 0.2 -0.18 0.31 0.31 0 0 0 0.19 0.18l1.62 0.86 1 0.57Z" fill="#020202" fill-rule="evenodd" stroke-width="1"></path>
    <path d="M23.15 3.57a5.29 5.29 0 0 0 -2.07 -0.2l-1.89 0.12 -2.9 0.23a4.65 4.65 0 0 0 -2.75 -2.11A5.62 5.62 0 0 0 12 1.43a5.53 5.53 0 0 0 -1.51 0.29 5 5 0 0 0 -2.45 2l-3.15 -0.23L3 3.36a5.84 5.84 0 0 0 -2.1 0.2A1.16 1.16 0 0 0 0.22 4.9l0.17 0.51a2.12 2.12 0 0 0 0.21 0.36 1.94 1.94 0 0 0 0.26 0.31 3.47 3.47 0 0 0 0.47 0.39 4.57 4.57 0 0 0 0.47 0.29 9.35 9.35 0 0 0 1.59 0.62 20.27 20.27 0 0 0 2.41 0.51c0.2 0 0.41 0.05 0.61 0.08a4.44 4.44 0 0 0 -0.62 0.41 4 4 0 0 0 -0.64 0.62 3.92 3.92 0 0 0 -0.47 0.79 6.51 6.51 0 0 0 -0.5 2 0.38 0.38 0 0 0 0.3 0.45 0.37 0.37 0 0 0 0.45 -0.24 6.47 6.47 0 0 1 0.8 -1.6l0.43 -0.59c0.15 -0.19 0.31 -0.38 0.47 -0.56a9.31 9.31 0 0 1 1.22 -1.2h0.06a0.37 0.37 0 0 0 0.35 -0.4 0.38 0.38 0 0 0 -0.4 -0.36 4.59 4.59 0 0 1 -0.74 0c-0.38 -0.1 -0.76 -0.2 -1.12 -0.29 -0.63 -0.16 -1.25 -0.33 -1.87 -0.55a8.43 8.43 0 0 1 -1.7 -0.77l-0.66 -0.48 -0.22 -0.32 -0.06 -0.17a0.75 0.75 0 0 0 0.12 -0.07 2 2 0 0 1 0.37 0l1 0 1.87 0 3 -0.08a0.34 0.34 0 0 0 0.46 -0.1A4.49 4.49 0 0 1 10.77 3a6.09 6.09 0 0 1 1.2 -0.17 4.9 4.9 0 0 1 1.21 0.07 3.79 3.79 0 0 1 2.4 1.37 0.32 0.32 0 0 0 0.33 0.25l3.2 0.08 1.84 0 1 0a2 2 0 0 1 0.36 0 0.26 0.26 0 0 1 0.1 0.07l-0.05 0.17 -0.23 0.32 -0.62 0.48a8.61 8.61 0 0 1 -1.51 0.82c-0.61 0.21 -1.23 0.38 -1.84 0.54 -0.37 0.09 -0.74 0.19 -1.12 0.25a4.23 4.23 0 0 1 -0.72 0 0.39 0.39 0 0 0 -0.21 0.08 0.3 0.3 0 0 0 -0.24 0.15A0.34 0.34 0 0 0 16 8a8.31 8.31 0 0 1 1.3 1.28c0.16 0.18 0.32 0.37 0.47 0.56s0.29 0.39 0.43 0.59A6.85 6.85 0 0 1 19 12a0.37 0.37 0 0 0 0.45 0.29 0.38 0.38 0 0 0 0.29 -0.45 6.24 6.24 0 0 0 -0.5 -2 3.51 3.51 0 0 0 -0.5 -0.84 3.58 3.58 0 0 0 -0.63 -0.66 4.56 4.56 0 0 0 -0.59 -0.34l0.79 -0.11a19.08 19.08 0 0 0 2.36 -0.51 9.56 9.56 0 0 0 1.56 -0.62 4.43 4.43 0 0 0 0.46 -0.29 3.47 3.47 0 0 0 0.47 -0.39l0.45 -0.67 0.17 -0.51a1.17 1.17 0 0 0 -0.63 -1.33Z" fill="#020202" fill-rule="evenodd" stroke-width="1"></path>
    <path d="m18.56 1.4 0 0.07a0.57 0.57 0 0 0 0 0.26 0.88 0.88 0 0 0 0 0.27c0.21 0.85 0.33 1 0.58 1s0.38 0 0.61 -1a0.8 0.8 0 0 0 0.05 -0.26 1.12 1.12 0 0 0 0 -0.27l0.16 0c1.68 -0.31 1.64 -0.7 1.6 -0.87s-0.23 -0.35 -1.79 -0.39a7.69 7.69 0 0 0 -0.83 0c-1.76 0.13 -1.79 0.32 -1.81 0.52s0.17 0.4 1.43 0.67Z" fill="#4C57E6" fill-rule="evenodd" stroke-width="1"></path>
    <path d="M4.25 1.16c0 0.05 0 0.1 -0.07 0.16a1.37 1.37 0 0 0 0 0.28 0.9 0.9 0 0 0 0 0.28c0.24 1 0.42 1 0.6 1s0.37 0 0.6 -1a1.27 1.27 0 0 0 0 -0.28 1.31 1.31 0 0 0 0 -0.27h0.08c0.16 0 1.64 -0.24 1.56 -0.72C7 0.28 6.9 0.32 5.5 0.06L5 0h-0.5C3.07 0 2.88 0.11 2.85 0.42s0.08 0.4 1.4 0.74Z" fill="#4C57E6" fill-rule="evenodd" stroke-width="1"></path>
    <path d="M11.08 7.54a2.38 2.38 0 0 0 0.37 0.06 2.86 2.86 0 0 0 0.51 0 0.34 0.34 0 0 0 0.27 -0.17 0.35 0.35 0 0 0 0.42 0.25 1.1 1.1 0 0 0 0.35 -0.11 2.56 2.56 0 0 0 0.48 -0.22 1.81 1.81 0 0 0 0.92 -1.44 2.12 2.12 0 0 0 -0.61 -1.64 2.44 2.44 0 0 0 -1 -0.57 2.76 2.76 0 0 0 -1.09 -0.11 2.43 2.43 0 0 0 -1.83 1.78 1.67 1.67 0 0 0 1.21 2.17Zm0.18 -2.32a1 1 0 0 1 0.66 -0.35 1.45 1.45 0 0 1 0.58 0 1.19 1.19 0 0 1 0.51 0.23 1 1 0 0 1 0.41 0.73 0.91 0.91 0 0 1 -0.36 0.76l-0.54 0.29a0.37 0.37 0 0 0 -0.27 0.2 0.35 0.35 0 0 0 -0.34 -0.21l-0.57 -0.11a0.77 0.77 0 0 1 -0.49 -0.76 1.35 1.35 0 0 1 0.41 -0.78Z" fill="#4C57E6" fill-rule="evenodd" stroke-width="1"></path>
  </g>
</svg>