<svg xmlns="http://www.w3.org/2000/svg" viewBox="0 0 24 24" id="Dentistry-Tooth-Brush--Streamline-Freehand">
  <desc>
    Dentistry Tooth Brush Streamline Icon: https://streamlinehq.com
  </desc>
  <g>
    <path d="M18.75 20.72a4.15 4.15 0 0 0 -2.57 -1.16 2.59 2.59 0 0 0 -1.88 0.44 4.57 4.57 0 0 0 -1.3 1.67c-0.18 0.36 -0.35 0.72 -0.54 1l-0.12 -0.26a11.4 11.4 0 0 0 -0.9 -2.47l-0.79 -0.93a0.31 0.31 0 0 0 -0.45 0 0.32 0.32 0 0 0 0 0.45l0.68 0.92a10.79 10.79 0 0 1 0.64 2.37 2.46 2.46 0 0 0 0.7 1.13 0.49 0.49 0 0 0 0.67 -0.05 5.57 5.57 0 0 0 0.8 -1.15 8.62 8.62 0 0 1 0.94 -1.52 1.6 1.6 0 0 1 1.45 -0.6 3.26 3.26 0 0 1 2.11 0.71 5.28 5.28 0 0 1 1.21 2.07 0.29 0.29 0 0 0 0.36 0.17 0.3 0.3 0 0 0 0.17 -0.36 6.06 6.06 0 0 0 -1.18 -2.43Z" fill="#020202" stroke-width="1"></path>
    <path d="M23.46 14.76a9.18 9.18 0 0 0 -0.74 -2.49 4.64 4.64 0 0 0 -1 -1.51 3 3 0 0 0 -1.87 -0.76 5.27 5.27 0 0 0 -2.69 0.76 0.28 0.28 0 0 0 0.26 0.5 4.85 4.85 0 0 1 2 -0.51 2.23 2.23 0 0 1 1.69 0.64 5.06 5.06 0 0 1 0.8 1.61 8.31 8.31 0 0 1 0.48 1.83 3.75 3.75 0 0 1 -0.25 1.88c-0.37 0.92 -1 1.74 -1.45 2.92a7.07 7.07 0 0 0 -0.32 1.23 15.88 15.88 0 0 0 -0.24 1.81 0.32 0.32 0 0 0 0.28 0.35 0.31 0.31 0 0 0 0.35 -0.28 17.28 17.28 0 0 1 0.34 -1.72 5.27 5.27 0 0 1 0.35 -1.02c0.54 -1.16 1.23 -1.93 1.64 -2.85a4.61 4.61 0 0 0 0.37 -2.39Z" fill="#020202" stroke-width="1"></path>
    <path d="M7 12.39c0.37 0.42 1.38 0.52 2.59 0.24a14.65 14.65 0 0 0 4.87 -2.22c0.27 -0.24 0.94 -0.61 1.32 -1a1.38 1.38 0 0 0 0.35 -0.41A2.61 2.61 0 0 0 16 7.15a12.87 12.87 0 0 0 -1.55 -2.74l1.67 -0.77c2.09 -1 4.15 -2 6.22 -3a0.32 0.32 0 0 0 0.15 -0.43 0.32 0.32 0 0 0 -0.39 -0.21c-2.17 0.94 -4.37 1.83 -6.54 2.76 -1.45 0.62 -2.9 1.25 -4.33 1.92C8.84 5.82 6.5 7 4.16 8.26a0.28 0.28 0 0 0 -0.16 0.37 0.29 0.29 0 0 0 0.38 0.14l0.72 -0.32a19.74 19.74 0 0 0 0.9 2.31 7.21 7.21 0 0 0 1 1.63Zm3.78 -6.33c0.9 -0.38 1.8 -0.78 2.7 -1.19l0.41 -0.18A15.35 15.35 0 0 1 15.08 7a2.21 2.21 0 0 1 0.19 1.63c0 0.12 -0.24 0.22 -0.42 0.35l-0.74 0.45c-0.08 -0.25 -0.16 -0.49 -0.25 -0.74s-0.13 -0.34 -0.2 -0.5 -0.15 -0.32 -0.23 -0.48c-0.21 -0.38 -0.44 -0.71 -0.62 -1.1a0.28 0.28 0 0 0 -0.34 -0.2 0.28 0.28 0 0 0 -0.21 0.34 7.74 7.74 0 0 0 0.21 1.35 4 4 0 0 0 0.21 0.54c0.08 0.17 0.17 0.33 0.27 0.5s0.34 0.49 0.52 0.73a12.6 12.6 0 0 1 -1.32 0.73c-0.15 -0.35 -0.28 -0.69 -0.43 -1 -0.06 -0.14 -0.12 -0.29 -0.19 -0.42s-0.14 -0.27 -0.22 -0.4a7.78 7.78 0 0 1 -0.56 -0.92 0.28 0.28 0 1 0 -0.55 0.13 4.48 4.48 0 0 0 0.17 1.21 2.76 2.76 0 0 0 0.2 0.47 2.44 2.44 0 0 0 0.28 0.43 9.17 9.17 0 0 0 0.7 0.82c-0.51 0.22 -1.05 0.43 -1.56 0.6l-0.17 0.05c-0.09 -0.27 -0.17 -0.55 -0.27 -0.84a6 6 0 0 0 -0.27 -0.7c-0.19 -0.41 -0.44 -0.76 -0.64 -1.15a0.28 0.28 0 1 0 -0.54 0.16 8.34 8.34 0 0 0 0.14 1.2 3.17 3.17 0 0 0 0.17 0.49 3.29 3.29 0 0 0 0.23 0.46 6.42 6.42 0 0 0 0.42 0.6 4.43 4.43 0 0 1 -0.93 0.16c-0.22 0 -0.4 0 -0.5 -0.07a5.72 5.72 0 0 1 -1 -1.36 18.7 18.7 0 0 1 -1 -2.2c1.73 -0.83 3.43 -1.53 5.13 -2.26Z" fill="#020202" stroke-width="1"></path>
    <path d="M13.14 16.71a1.56 1.56 0 0 0 0.75 -0.79c0.13 -0.33 0.09 -0.68 0.24 -1a2.2 2.2 0 0 0 0.5 -0.3 3.43 3.43 0 0 0 1.13 -1.08 1.51 1.51 0 0 0 0.24 -1.16 0.32 0.32 0 0 0 -0.37 -0.26 0.32 0.32 0 0 0 -0.26 0.37 0.87 0.87 0 0 1 -0.17 0.65 2.62 2.62 0 0 1 -0.94 0.74c-0.11 0.06 -0.4 0.15 -0.56 0.25a0.7 0.7 0 0 0 -0.26 0.25 9.49 9.49 0 0 0 -0.44 1.13 0.65 0.65 0 0 1 -0.34 0.27 1.05 1.05 0 0 1 -0.83 0.05c-0.57 -0.16 -1.11 -0.55 -1.67 -0.75a0.58 0.58 0 0 0 -0.6 0.19l-0.18 0.23a1.71 1.71 0 0 1 -0.25 0.22 1 1 0 0 1 -0.26 0.15 1.23 1.23 0 0 1 -1.3 -0.24 2.17 2.17 0 0 1 -0.7 -1.4 0.29 0.29 0 0 0 -0.57 0 2.83 2.83 0 0 0 1.08 2.21 2 2 0 0 0 1.78 0.31 2.41 2.41 0 0 0 0.5 -0.21 3.25 3.25 0 0 0 0.42 -0.31l0.05 -0.05a6.1 6.1 0 0 0 1.8 0.75 2.08 2.08 0 0 0 1.21 -0.22Z" fill="#4C57E6" stroke-width="1"></path>
    <path d="M4.51 5.28a2.18 2.18 0 0 0 -1.36 -1.39A1.92 1.92 0 0 0 1 4.41a2.41 2.41 0 0 0 -0.49 2 2 2 0 0 0 2.8 1.35 2.19 2.19 0 0 0 0.78 -0.57 2 2 0 0 0 0.42 -1.91Zm-1 1.35c-0.5 0.7 -2.08 0.6 -2.11 -0.33a1.63 1.63 0 0 1 0.4 -1.19 1 1 0 0 1 1 -0.19 1.17 1.17 0 0 1 0.74 0.68 1.08 1.08 0 0 1 -0.07 1.03Z" fill="#020202" stroke-width="1"></path>
    <path d="M3.82 3.1a3.3 3.3 0 0 0 0.32 0.4 3.05 3.05 0 0 0 0.38 0.32 0.28 0.28 0 0 0 0.4 0 0.27 0.27 0 0 0 0 -0.39l-0.24 -0.31a2.52 2.52 0 0 1 -0.15 -0.33c-0.06 -0.19 0 -0.21 0 -0.25a0.43 0.43 0 0 1 0.47 -0.3 1.09 1.09 0 0 1 0.47 0.23 0.8 0.8 0 0 1 0.29 0.36l0 0.17a0.75 0.75 0 0 1 -0.49 0.27 0.32 0.32 0 0 0 -0.28 0.36 0.33 0.33 0 0 0 0.36 0.28 1.24 1.24 0 0 0 1.22 -0.73 1.48 1.48 0 0 0 -0.4 -1.44 1.66 1.66 0 0 0 -0.7 -0.48 1.34 1.34 0 0 0 -1.82 0.85 1 1 0 0 0 -0.06 0.56 1.37 1.37 0 0 0 0.23 0.43Z" fill="#020202" stroke-width="1"></path>
    <path d="M12.26 12.77a7.52 7.52 0 0 1 -1.11 0.36c-0.34 0.1 -0.68 0.14 -1 0.21a8.22 8.22 0 0 1 -1.61 0.23 0.29 0.29 0 0 0 -0.32 0.24 0.28 0.28 0 0 0 0.24 0.32 5.27 5.27 0 0 0 1.52 0.28 2.58 2.58 0 0 0 0.68 -0.07 3 3 0 0 0 0.64 -0.21 5.28 5.28 0 0 0 1.31 -0.82 0.32 0.32 0 1 0 -0.33 -0.54Z" fill="#4C57E6" stroke-width="1"></path>
  </g>
</svg>