<svg xmlns="http://www.w3.org/2000/svg" viewBox="0 0 24 24" id="Dentistry-Tooth-Mirror--Streamline-Freehand">
  <desc>
    Dentistry Tooth Mirror Streamline Icon: https://streamlinehq.com
  </desc>
  <g>
    <path d="m11.47 12 0.89 0.66a7.74 7.74 0 0 0 0.69 0.57c0.38 0.28 0.77 0.54 1.14 0.8a2.5 2.5 0 0 0 0.4 0.25 0.33 0.33 0 0 0 0.23 0.06 2.41 2.41 0 0 0 1 -0.69c0.77 -0.79 1.39 -1.95 2 -2.62 0.3 -0.33 0.69 -0.83 1.11 -1.38 1 -1.36 2.22 -3 2.5 -3.43a7.82 7.82 0 0 0 1.31 -2.32 1.38 1.38 0 0 0 -0.14 -1.3 1.4 1.4 0 0 0 -1.45 -0.6 3.75 3.75 0 0 0 -1.63 1.15c-1.29 1.4 -2.27 2.45 -3.26 3.54 -0.67 0.75 -1.34 1.51 -2.11 2.41 -0.48 0.56 -1.75 2.05 -2.33 2.66a1.88 1.88 0 0 1 -0.35 0.24Zm-0.36 -0.56a0.34 0.34 0 0 0 0 0.58 0.29 0.29 0 0 0 0 0.42l0.81 0.64a7.67 7.67 0 0 0 0.73 0.65l1.12 0.85a2.6 2.6 0 0 0 0.75 0.44 1 1 0 0 0 0.52 0 3.27 3.27 0 0 0 1.37 -0.84c0.8 -0.76 1.47 -1.89 2.12 -2.54a24.12 24.12 0 0 0 1.62 -1.89c1 -1.23 1.95 -2.57 2.21 -2.9a9 9 0 0 0 1.51 -2.69 2.49 2.49 0 0 0 -0.37 -2.26 2.6 2.6 0 0 0 -2 -1.09 4 4 0 0 0 -2.74 1.62C17.49 3.86 16.54 5 15.58 6.08c-0.65 0.77 -1.3 1.55 -2.05 2.49 -0.45 0.57 -1.66 2.09 -2.22 2.7 -0.09 0.1 -0.22 0.16 -0.2 0.2Z" fill="#4C57E6" fill-rule="evenodd" stroke-width="1"></path>
    <path d="M7.4 19.86a0.62 0.62 0 0 1 -0.26 -0.17c-0.08 -0.09 -0.14 -0.22 -0.21 -0.31L6.44 19a2.21 2.21 0 0 0 -0.5 -0.15 8.91 8.91 0 0 0 -0.89 -0.08 13.57 13.57 0 0 0 -1.41 -0.05 3.21 3.21 0 0 0 -0.84 0.14 2.25 2.25 0 0 0 -0.81 0.43 2.67 2.67 0 0 0 -0.62 0.71 1.43 1.43 0 0 0 -0.19 0.44 0.56 0.56 0 0 0 0 0.34 1.24 1.24 0 0 0 0.42 0.55 3.92 3.92 0 0 0 0.74 0.46 3.66 3.66 0 0 0 2.07 0.28 4.51 4.51 0 0 0 2 -0.82 3 3 0 0 0 0.92 -1 0.57 0.57 0 0 0 0.07 -0.39Zm0.09 -0.72L7.41 19a1.32 1.32 0 0 0 -0.3 -0.33 2 2 0 0 0 -0.35 -0.25 2.67 2.67 0 0 0 -0.66 -0.26c-0.32 -0.08 -0.64 -0.12 -1 -0.17 -0.52 -0.07 -1 -0.16 -1.5 -0.18a5 5 0 0 0 -1.08 0.09 3.25 3.25 0 0 0 -1.24 0.55 3.68 3.68 0 0 0 -0.91 1 2.48 2.48 0 0 0 -0.39 0.95 1.83 1.83 0 0 0 0.06 0.8 2.26 2.26 0 0 0 0.6 0.91 4.4 4.4 0 0 0 1.19 0.77 4.73 4.73 0 0 0 2.71 0.24A5.4 5.4 0 0 0 7 21.94a4 4 0 0 0 1 -1.37 1.09 1.09 0 0 0 -0.27 -1.35 0.31 0.31 0 0 0 -0.24 -0.08Z" fill="#020202" fill-rule="evenodd" stroke-width="1"></path>
    <path d="m11.38 14.68 -0.09 0.09 -0.51 0.49c-0.4 0.46 -0.88 0.88 -1.31 1.34 -0.29 0.31 -0.55 0.65 -0.82 1L8 18.63l-0.28 0.37 -0.08 0.07c-0.08 0 -0.11 0.08 -0.11 0.13 -0.22 0.31 -0.22 0.85 0.44 0.38H8l0.14 -0.06 1.25 -1.19c0.37 -0.37 0.77 -0.74 1.12 -1.16a12.44 12.44 0 0 0 0.93 -1.35l0.37 -0.54A1.27 1.27 0 0 0 12 15a0.39 0.39 0 0 0 0.06 -0.24 0.34 0.34 0 0 0 -0.66 -0.1Z" fill="#020202" fill-rule="evenodd" stroke-width="1"></path>
    <path d="M13.67 9.46a0.37 0.37 0 0 1 -0.07 0.2 0.23 0.23 0 0 0 0.07 -0.2Zm3.13 3.32a0.35 0.35 0 0 0 0.65 -0.19 0.57 0.57 0 0 0 -0.14 -0.29c-0.14 -0.18 -0.55 -0.51 -0.63 -0.61a12.7 12.7 0 0 0 -1 -1.06 6.26 6.26 0 0 0 -0.57 -0.45c-0.2 -0.14 -0.41 -0.25 -0.61 -0.37s-0.7 -0.68 -0.84 -0.49a0.3 0.3 0 0 0 -0.39 -0.15c-0.1 0 -0.29 0.28 -0.05 0.59s0.57 0.6 0.69 0.74 0.52 0.56 0.81 0.82 0.44 0.36 0.66 0.53 0.47 0.32 0.69 0.49 0.61 0.6 0.75 0.43Z" fill="#4C57E6" fill-rule="evenodd" stroke-width="1"></path>
  </g>
</svg>