<svg xmlns="http://www.w3.org/2000/svg" viewBox="0 0 24 24" id="Dentistry-Tooth-Equipment--Streamline-Freehand">
  <desc>
    Dentistry Tooth Equipment Streamline Icon: https://streamlinehq.com
  </desc>
  <g>
    <path d="M17.51 7.09A3.3 3.3 0 0 0 21 4.26a3.49 3.49 0 0 0 -2.34 -4 4.24 4.24 0 0 0 -3.66 0.3 3.63 3.63 0 0 0 -1.5 3.28 3.38 3.38 0 0 0 0.81 2 2.83 2.83 0 0 0 1.87 1 0.36 0.36 0 0 0 0.39 -0.31 0.34 0.34 0 0 0 -0.3 -0.39 2.09 2.09 0 0 1 -1.34 -0.82 2.43 2.43 0 0 1 -0.49 -1.48 2.71 2.71 0 0 1 1.17 -2.33 3.24 3.24 0 0 1 2.66 -0.13A2.45 2.45 0 0 1 20 4.12a2.57 2.57 0 0 1 -2.52 2.35 0.3 0.3 0 0 0 -0.3 0.31 0.31 0.31 0 0 0 0.33 0.31Z" fill="#020202" fill-rule="evenodd" stroke-width="1"></path>
    <path d="M6.64 0.66a0.29 0.29 0 0 0 0.24 0.1 0.31 0.31 0 0 1 -0.24 -0.1Zm0 -0.47c-0.09 0 -0.35 0.25 -0.36 0.26l-0.81 0.66c-0.43 0.35 -0.86 0.69 -1.26 1.07A7 7 0 0 0 3.4 3a2.09 2.09 0 0 0 -0.4 0.66 1.05 1.05 0 0 0 0 0.5 1.48 1.48 0 0 0 0.37 0.65 6.79 6.79 0 0 0 0.91 0.72c0.24 0.19 0.49 0.39 0.72 0.61a8.36 8.36 0 0 1 0.67 0.66c0.07 0.07 0.24 0.31 0.35 0.34l0 0.68 0.12 2.7 0.07 0.81 0 0.35v0.1a0.09 0.09 0 0 0 0 0.05 0.16 0.16 0 0 0 0.12 0.09c0.17 0.08 0.43 0.12 0.47 -0.18a3.51 3.51 0 0 0 0 -0.41l0 -0.81 0.17 -2.7c0 -0.22 0.07 -0.54 0.06 -0.81A1.25 1.25 0 0 0 7 6.48a0.69 0.69 0 0 0 -0.16 -0.21c-0.08 -0.08 -0.27 -0.36 -0.35 -0.27a8.25 8.25 0 0 0 -0.72 -0.73C5.55 5 5.28 4.8 5 4.59l-0.63 -0.43a0.82 0.82 0 0 1 -0.26 -0.22c0.08 0 0.09 -0.22 0.14 -0.3a6.65 6.65 0 0 1 0.61 -0.79c0.36 -0.39 0.74 -0.75 1.14 -1.12l0.68 -0.67A5.33 5.33 0 0 0 7.12 0.7a0.4 0.4 0 0 0 0.09 -0.44 0.33 0.33 0 0 0 -0.33 -0.2 0.34 0.34 0 0 0 -0.27 0.13Z" fill="#020202" fill-rule="evenodd" stroke-width="1"></path>
    <path d="M4.94 23 5 23l0.78 0.12c0.41 0 1 0.07 1.54 0a1.26 1.26 0 0 0 0.77 -0.12c0.17 -0.13 0.18 -0.38 0.19 -0.63a12.19 12.19 0 0 0 -0.13 -1.55c-0.08 -1.18 0 -2.43 -0.07 -3.64a8.7 8.7 0 0 0 -0.16 -1.46 3 3 0 0 0 -0.35 -1 1.11 1.11 0 0 0 -0.57 -0.54 0.89 0.89 0 0 0 -0.86 0.17 2.53 2.53 0 0 0 -0.65 1A7.82 7.82 0 0 0 5 17.5c-0.12 1.12 -0.09 2.24 -0.12 3.45Zm0 0.4a0.34 0.34 0 0 1 -0.07 0.11 0.28 0.28 0 0 0 0.03 -0.13Zm-0.62 -0.4a0.33 0.33 0 0 0 -0.06 0.43 0.4 0.4 0 0 0 0.2 0.18c0.09 0 0.31 0.06 0.41 0.09s0.36 0.1 0.54 0.13a1.78 1.78 0 0 0 0.41 0 14.73 14.73 0 0 0 1.85 0.17 1.88 1.88 0 0 0 0.95 -0.3 1.48 1.48 0 0 0 0.55 -1 9.16 9.16 0 0 0 0 -2c0 -1.17 0.11 -2.42 0.08 -3.63a10 10 0 0 0 -0.16 -1.65 4.17 4.17 0 0 0 -0.66 -1.61 2 2 0 0 0 -1.1 -0.81 2 2 0 0 0 -1.61 0.2A3.21 3.21 0 0 0 4.47 15 9.52 9.52 0 0 0 4 17.42c-0.06 1.15 0 2.3 0.09 3.53Z" fill="#4C57E6" fill-rule="evenodd" stroke-width="1"></path>
    <path d="m15.54 22.66 0.1 0 0.78 0.12c0.41 0 1 0.06 1.54 0a1.31 1.31 0 0 0 0.73 -0.19c0.17 -0.13 0.18 -0.38 0.19 -0.64a10.44 10.44 0 0 0 -0.13 -1.54c-0.08 -1.18 0 -2.43 -0.06 -3.65a11.85 11.85 0 0 0 -0.16 -1.46 3.29 3.29 0 0 0 -0.36 -1 1.05 1.05 0 0 0 -0.56 -0.54 0.9 0.9 0 0 0 -0.87 0.17 2.49 2.49 0 0 0 -0.65 1 8.35 8.35 0 0 0 -0.51 2.13c-0.13 1.11 -0.09 2.24 -0.13 3.44Zm0 0.4a0.44 0.44 0 0 1 -0.08 0.11 0.28 0.28 0 0 0 0.05 -0.11Zm-0.59 -0.37a0.35 0.35 0 0 0 -0.06 0.44 0.43 0.43 0 0 0 0.21 0.18 2.57 2.57 0 0 0 0.4 0.08 4.32 4.32 0 0 0 0.54 0.14 2.59 2.59 0 0 0 0.41 0c0.49 0 1.23 0.15 1.85 0.11a2 2 0 0 0 0.95 -0.3 1.48 1.48 0 0 0 0.55 -1 9.16 9.16 0 0 0 0 -2c0 -1.18 0.11 -2.42 0.08 -3.64a9.8 9.8 0 0 0 -0.15 -1.64 4.29 4.29 0 0 0 -0.73 -1.51 2 2 0 0 0 -1.09 -0.81 1.92 1.92 0 0 0 -1.62 0.2 3.26 3.26 0 0 0 -1.24 1.76 9 9 0 0 0 -0.43 2.41c-0.07 1.15 0 2.29 0.08 3.52Z" fill="#4C57E6" fill-rule="evenodd" stroke-width="1"></path>
    <path d="M17 11.55c0.08 0.22 0.29 0.22 0.46 0.16a0.25 0.25 0 0 0 0.18 -0.1 0.12 0.12 0 0 0 0.06 -0.09 0.13 0.13 0 0 0 0 -0.06 0.43 0.43 0 0 0 0 -0.05c0 -0.18 0.05 -0.61 0.07 -0.74a6.68 6.68 0 0 0 0.16 -1.26l0 -0.72c0 -0.24 -0.06 -0.31 -0.08 -0.47l-0.22 -0.83a0.85 0.85 0 0 0 -0.07 -0.21 0.3 0.3 0 0 0 -0.15 -0.3 0.32 0.32 0 0 0 -0.27 -0.06c-0.13 0 -0.22 0.12 -0.27 0.31a1.61 1.61 0 0 0 0 0.46l-0.06 0.63a8.07 8.07 0 0 0 -0.07 1 5.15 5.15 0 0 0 0 0.56c0 0.28 0.07 0.55 0.08 0.83s0.1 0.66 0.14 0.88c-0.02 0.02 0.04 0.04 0.04 0.06Z" fill="#020202" fill-rule="evenodd" stroke-width="1"></path>
  </g>
</svg>