<svg xmlns="http://www.w3.org/2000/svg" viewBox="0 0 24 24" id="Design-Tool-Quill-3--Streamline-Freehand">
  <desc>
    Design Tool Quill 3 Streamline Icon: https://streamlinehq.com
  </desc>
  <g>
    <path d="M10.93 10.82c0.06 -1.32 0.88 -2.53 1.16 -4.26 0.27 -1 -1.19 -0.54 -1.39 1a8.68 8.68 0 0 0 -0.45 3.3 0.34 0.34 0 0 0 0.68 -0.04Z" fill="#4C57E6" stroke-width="1"></path>
    <path d="M14.16 15.19c1.33 -0.12 1.54 -0.5 1.29 -0.66 -1.82 -0.5 -4 -1 -5 -1.13l2.09 -2a17.06 17.06 0 0 0 3.28 0.78 12 12 0 0 0 2.39 0.21 0.34 0.34 0 0 0 0 -0.67 14.16 14.16 0 0 0 -5 -0.93l7.52 -7a0.34 0.34 0 0 0 -0.44 -0.51l-5 4.33a25.15 25.15 0 0 0 1 -4c0 -0.6 -1 -0.36 -1.31 0.92a14 14 0 0 0 -0.4 2.35c0 0.24 -0.29 1.51 -0.29 1.59a123.58 123.58 0 0 0 -9.83 9.3c-0.43 0.46 -5.34 5.9 -4.24 6 0.32 0 1.32 -1.84 4.92 -5.37L9.8 14a9.26 9.26 0 0 0 4.36 1.19Z" fill="#4C57E6" stroke-width="1"></path>
    <path d="M14.93 1.62C9.8 4.87 3.1 11.75 3.66 17.64a0.3 0.3 0 0 0 0.32 0.27c0.78 -0.07 -0.58 -1 1.32 -4.93C10.66 1.9 27 -3.27 22.23 7.4 20 12.49 13.39 17.9 7.35 18.84c-0.47 0.09 -0.9 -0.13 -0.84 0.32 -0.12 0.49 0.42 0.45 1 0.35a12.89 12.89 0 0 0 3.71 -0.77C16.49 16.62 24.42 9.86 24 4.09 23.67 0 19 -1 14.93 1.62Z" fill="#020202" stroke-width="1"></path>
  </g>
</svg>