<svg xmlns="http://www.w3.org/2000/svg" viewBox="0 0 24 24" id="Design-Tool-Pencil-Cog--Streamline-Freehand">
  <desc>
    Design Tool Pencil Cog Streamline Icon: https://streamlinehq.com
  </desc>
  <g>
    <path d="M22.39 9.43a2.2 2.2 0 0 0 -2.11 -1.21 2.78 2.78 0 0 0 0 -0.5 1.54 1.54 0 0 0 -0.1 -0.35 2 2 0 0 0 -0.18 -0.32 4.07 4.07 0 0 0 -0.6 -0.66 0.38 0.38 0 1 0 -0.65 0.4c0.08 0.28 0.08 0.53 0.15 0.78a2 2 0 0 0 0.17 0.48c1 1.79 1.64 0.4 2.16 1.86a1.12 1.12 0 0 1 -0.05 0.86 1.52 1.52 0 0 1 -0.41 0.53 1.12 1.12 0 0 1 -0.46 0.26 4.52 4.52 0 0 1 -0.53 0.06h-0.1a0.34 0.34 0 0 0 -0.37 0.29 0.35 0.35 0 0 0 0 0.11 7.54 7.54 0 0 1 -0.49 1.18 2.2 2.2 0 0 0 -0.13 0.36 5.51 5.51 0 0 1 -0.31 0.89 0.31 0.31 0 0 0 -0.1 0.24 0.39 0.39 0 0 0 0.11 0.27 1.78 1.78 0 0 1 0.33 0.95 1.6 1.6 0 0 1 -0.22 0.91 0.92 0.92 0 0 1 -0.35 0.4 0.78 0.78 0 0 1 -0.32 0.15 0.94 0.94 0 0 1 -0.65 -0.12l-0.35 -0.36a0.37 0.37 0 0 0 -0.06 -0.35 0.38 0.38 0 0 0 -0.53 0 6 6 0 0 1 -0.9 0.32c-0.19 0.06 -0.38 0.12 -0.57 0.2a9.7 9.7 0 0 1 -1 0.48 0.34 0.34 0 0 0 -0.32 0.36 0.31 0.31 0 0 0 0.12 0.23 0.58 0.58 0 0 0 -0.06 0.17 1.07 1.07 0 0 1 -0.49 0.69 1.59 1.59 0 0 1 -0.6 0.25 0.69 0.69 0 0 1 -0.47 0 0.92 0.92 0 0 1 -0.53 -0.42 2.78 2.78 0 0 1 -0.29 -0.73 0.36 0.36 0 0 0 0.11 -0.2 0.39 0.39 0 0 0 -0.35 -0.42A6.9 6.9 0 0 1 10 17c-0.19 -0.08 -0.38 -0.17 -0.58 -0.24 -1.34 -0.44 -1.44 -0.4 -1.57 -0.22a0.31 0.31 0 0 0 0 0.32 2.43 2.43 0 0 1 -0.49 0.42 2 2 0 0 1 -0.93 0.23 0.89 0.89 0 0 1 -0.69 -0.27 1 1 0 0 1 -0.37 -0.68 1.74 1.74 0 0 1 0.2 -0.89 5 5 0 0 1 0.49 -0.67 0.32 0.32 0 0 0 0.35 0 0.33 0.33 0 0 0 0.11 -0.46c-0.11 -0.37 -0.14 -0.74 -0.26 -1.12A4.35 4.35 0 0 0 6 12.9c-0.15 -0.31 -0.34 -0.56 -0.46 -0.87a0.38 0.38 0 0 0 -0.43 -0.32 0.33 0.33 0 0 0 -0.3 -0.08 4.18 4.18 0 0 1 -0.89 0.1 1.29 1.29 0 0 1 -0.67 -0.17 0.88 0.88 0 0 1 -0.5 -0.77 1.08 1.08 0 0 1 0.45 -0.88 2.24 2.24 0 0 1 0.78 -0.44 4.81 4.81 0 0 1 0.92 -0.17s0.06 0 0.1 0a0.34 0.34 0 0 0 0.36 -0.31c0.1 -0.32 0.31 -0.64 0.45 -1a5.72 5.72 0 0 0 0.17 -0.59 2.42 2.42 0 0 1 0.28 -0.81 0.38 0.38 0 0 0 0.06 -0.54s-0.06 0 -0.09 0a0.34 0.34 0 0 0 -0.1 -0.16 2.17 2.17 0 0 1 -0.58 -1A1.55 1.55 0 0 1 5.44 4a1.12 1.12 0 0 1 0.74 -0.84 1.17 1.17 0 0 1 1.15 0.25 2.36 2.36 0 0 1 0.36 0.42 2 2 0 0 1 0.16 0.28 0.33 0.33 0 0 0 0.06 0.47 0.32 0.32 0 0 0 0.39 0c0.41 0.06 0 0 1 -0.42A3.69 3.69 0 0 0 9.68 4a8.68 8.68 0 0 1 1.12 -0.52 0.38 0.38 0 0 0 0.34 -0.48 0.42 0.42 0 0 0 -0.14 -0.19 2.06 2.06 0 0 1 0.5 -1.19 1.15 1.15 0 0 1 0.41 -0.26 1 1 0 0 1 0.69 -0.05 1.48 1.48 0 0 1 0.84 0.45 0.81 0.81 0 0 1 0.24 0.82 0.39 0.39 0 0 0 0.16 0.52 0.4 0.4 0 0 0 0.52 -0.18 1.65 1.65 0 0 0 -0.08 -1.76A2.65 2.65 0 0 0 13 0.08a2.08 2.08 0 0 0 -2 0.45 2.64 2.64 0 0 0 -0.69 2.16 3.88 3.88 0 0 0 -0.68 0 2.17 2.17 0 0 0 -0.5 0.13 1.79 1.79 0 0 0 -0.46 0.27c-0.08 0.06 -0.11 0.17 -0.18 0.24s0 0 0 -0.08A3.47 3.47 0 0 0 8 2.72a2.17 2.17 0 0 0 -2.2 -0.79 2.24 2.24 0 0 0 -1.55 1.78 2.42 2.42 0 0 0 0.24 1.36 3.54 3.54 0 0 0 1 1.17 2.58 2.58 0 0 0 -0.63 0.68 2.86 2.86 0 0 0 -0.22 0.47 2 2 0 0 0 -0.1 0.49 3 3 0 0 0 0.08 0.68 5.14 5.14 0 0 0 -1.11 0 3.3 3.3 0 0 0 -1 0.39 2.18 2.18 0 0 0 -1.07 1.87 2 2 0 0 0 1.35 1.72 2.05 2.05 0 0 0 1 0.08 4.84 4.84 0 0 0 1 -0.31 4.76 4.76 0 0 0 0 0.92 2.44 2.44 0 0 0 0.14 0.46 2.1 2.1 0 0 0 0.22 0.42 3.83 3.83 0 0 0 0.28 0.29 5.44 5.44 0 0 0 -0.86 1 2.65 2.65 0 0 0 -0.41 1.19 2.18 2.18 0 0 0 0.69 1.62 2 2 0 0 0 1.73 0.49 3.19 3.19 0 0 0 1.3 -0.65 3.48 3.48 0 0 0 0.46 -0.61 3.78 3.78 0 0 0 0.4 0.4 1.91 1.91 0 0 0 0.45 0.23 2.07 2.07 0 0 0 0.49 0.12 4.33 4.33 0 0 0 0.72 0 3.39 3.39 0 0 0 0.21 1.25 1.9 1.9 0 0 0 0.86 0.93 1.83 1.83 0 0 0 1.13 0.1 2.25 2.25 0 0 0 0.9 -0.48 2.05 2.05 0 0 0 0.79 -1.76 3.25 3.25 0 0 0 0.7 0.05 2.14 2.14 0 0 0 0.48 -0.13 2.11 2.11 0 0 0 0.44 -0.24 3.85 3.85 0 0 0 0.41 -0.4 2 2 0 0 0 0.26 0.38 1.79 1.79 0 0 0 1.67 0.63 2 2 0 0 0 1.41 -1.17 2.58 2.58 0 0 0 -0.51 -2.67 2.91 2.91 0 0 0 0.63 -0.54 2 2 0 0 0 0.24 -0.46 2.15 2.15 0 0 0 0.12 -0.5 3.8 3.8 0 0 0 0 -0.83 3.42 3.42 0 0 0 0.45 0 2.33 2.33 0 0 0 0.72 -0.19 2.23 2.23 0 0 0 1.11 -1.12 2 2 0 0 0 -0.03 -1.61Z" fill="#4C57E6" fill-rule="evenodd" stroke-width="1"></path>
    <path d="M13.54 5.21C12.8 6 12 6.79 11.31 7.6c-0.52 0.57 -1 1.15 -1.5 1.76s-1 1.53 -1.53 2.31c0 -0.1 -0.11 -0.18 -0.15 -0.28a3.83 3.83 0 0 1 -0.05 -2.23A6.75 6.75 0 0 1 9 6.94a3.83 3.83 0 0 1 1.26 -1.17A4.34 4.34 0 0 1 12 5.21a0.34 0.34 0 1 0 0 -0.67 4.82 4.82 0 0 0 -2 0.54A4.63 4.63 0 0 0 8.26 6.4a7.67 7.67 0 0 0 -1.39 3A4.61 4.61 0 0 0 7 11.81a5.83 5.83 0 0 0 3.32 3.32 7.59 7.59 0 0 0 4.6 0.37 5.47 5.47 0 0 0 2.82 -2.2 3.77 3.77 0 0 0 0.63 -3.48 0.39 0.39 0 0 0 -0.5 -0.21 0.37 0.37 0 0 0 -0.21 0.49 2.92 2.92 0 0 1 -0.68 2.66 4.37 4.37 0 0 1 -2.32 1.66 5.44 5.44 0 0 1 -1.85 0.07c0.53 -0.68 1.07 -1.36 1.55 -2.08s0.81 -1.28 1.18 -1.94c0.55 -1 1.05 -1.94 1.59 -2.9a0.37 0.37 0 0 0 0.45 -0.29c0.23 -0.76 0.51 -1.49 0.74 -2.25 0.1 -0.34 0.2 -0.67 0.27 -1a6.17 6.17 0 0 0 0.16 -1.25 0.72 0.72 0 0 0 -0.38 -0.61 0.74 0.74 0 0 0 -0.64 0 7.14 7.14 0 0 0 -0.94 0.55l-0.95 0.59c-0.73 0.47 -1.43 1 -2.14 1.48a0.33 0.33 0 0 0 -0.16 0.42Zm1 4.54c-0.27 0.39 -0.53 0.78 -0.79 1.18s-0.49 0.81 -0.72 1.22c-0.39 0.72 -0.75 1.45 -1.13 2.17a6.09 6.09 0 0 1 -1.11 -0.32 5.25 5.25 0 0 1 -2 -1.53c0.57 -0.64 1.16 -1.26 1.74 -1.9 0.32 -0.35 0.63 -0.72 0.93 -1.09s0.6 -0.75 0.89 -1.13C12.87 7.54 13.41 6.77 14 6c0.17 0.19 0.33 0.38 0.53 0.57a2 2 0 0 0 0.35 0.29 2.65 2.65 0 0 0 0.4 0.24 8.93 8.93 0 0 0 1 0.39c-0.65 0.74 -1.22 1.51 -1.76 2.26Zm2.8 -5.95 -0.52 3.1h-0.11l0 -0.07c-0.28 -0.25 -0.49 -0.52 -0.76 -0.77a3.18 3.18 0 0 0 -0.59 -0.45 3.88 3.88 0 0 0 -1 -0.37s0 0 0 -0.06Z" fill="#020202" fill-rule="evenodd" stroke-width="1"></path>
    <path d="M8.65 19.64a0.39 0.39 0 0 0 -0.5 0.21 13.43 13.43 0 0 1 -0.81 1.52c-0.35 -0.34 -0.68 -0.69 -1 -1a8.74 8.74 0 0 0 -0.88 -0.73A15.37 15.37 0 0 0 4 18.82l0.24 -0.43a0.34 0.34 0 0 0 -0.1 -0.47 0.33 0.33 0 0 0 -0.46 0.1 11 11 0 0 0 -1.08 1.61 3 3 0 0 0 -0.39 1.44 3.32 3.32 0 0 0 1.4 2.27 3 3 0 0 0 2.68 0.53 3.25 3.25 0 0 0 1.52 -1.31 10.7 10.7 0 0 0 1 -2.43 0.38 0.38 0 0 0 -0.16 -0.49Zm-2.74 3.08a1.89 1.89 0 0 1 -1.55 -0.43 2.26 2.26 0 0 1 -1.06 -1.35 2 2 0 0 1 0.14 -1c0.05 -0.14 0.13 -0.28 0.19 -0.42 0.26 0.29 0.52 0.6 0.81 0.88a6.19 6.19 0 0 0 0.55 0.47c0.19 0.15 0.39 0.29 0.59 0.42 0.42 0.26 0.85 0.49 1.28 0.72a2.06 2.06 0 0 1 -0.95 0.71Z" fill="#020202" fill-rule="evenodd" stroke-width="1"></path>
  </g>
</svg>