<svg xmlns="http://www.w3.org/2000/svg" viewBox="0 0 24 24" id="Design-File-Max--Streamline-Freehand">
  <desc>
    Design File Max Streamline Icon: https://streamlinehq.com
  </desc>
  <g>
    <path d="M7.59 16.46a3.76 3.76 0 0 0 -0.3 -1.23c-0.25 -0.56 -0.92 -0.45 -1.33 0a5.51 5.51 0 0 0 -0.6 1.13A10.09 10.09 0 0 0 4.65 15c-0.34 -0.44 -0.86 -0.65 -1.21 -0.28A2.27 2.27 0 0 0 3.08 16c0 0.08 -0.33 3 -0.32 3.34 0 0.53 0.27 0.78 0.46 0.49s0.17 -1.12 0.27 -1.58c0.49 -2 0.51 -2 0.52 -2.09l0.47 1a2.38 2.38 0 0 0 0.59 0.62c1 0.51 1.35 -1.12 1.54 -1.54 0.28 0.94 0.14 2.18 0.34 3 0.09 0.36 0.42 0.46 0.62 0.25a19.68 19.68 0 0 0 0.02 -3.03Z" fill="#020202" fill-rule="evenodd" stroke-width="1"></path>
    <path d="m9.35 19.48 0.35 -1a3.59 3.59 0 0 0 1 0.22l1.1 -0.12a7.28 7.28 0 0 1 0.22 0.85c0.19 0.43 0.71 0.14 0.66 -0.32s-0.24 -1.39 -0.26 -1.53c-0.12 -1 -0.35 -2.32 -1.23 -2.87 -0.72 -0.43 -1.19 0.31 -1.46 1.11l-1 3.41a0.3 0.3 0 0 0 0.62 0.25Zm1.51 -3.57a8 8 0 0 1 0.76 2 2.35 2.35 0 0 0 -1.55 -0.21l-0.1 0a10.38 10.38 0 0 1 0.89 -1.79Z" fill="#020202" fill-rule="evenodd" stroke-width="1"></path>
    <path d="M16.93 15.42c0.33 -0.57 0.28 -1.5 -1.51 0.56 0 0 0 0.07 -0.07 0.1a14.69 14.69 0 0 0 -1.45 -0.94c-0.46 -0.41 -1.25 -0.53 -0.34 0.53A16.61 16.61 0 0 1 14.75 17c-0.41 0.77 -0.53 1.22 -1 1.91a0.3 0.3 0 0 0 0.45 0.39 6.68 6.68 0 0 0 1.32 -1.46A10.58 10.58 0 0 1 17 19.19a0.34 0.34 0 0 0 0.61 -0.31 7.93 7.93 0 0 0 -1.42 -2.08c0.14 -0.4 0.42 -0.8 0.74 -1.38Z" fill="#020202" fill-rule="evenodd" stroke-width="1"></path>
    <path d="M24 11.12a2.23 2.23 0 0 0 -2.63 -1.63c-1 -1.12 -0.8 -1.22 -2.13 -2l-0.08 -0.06c0.95 -1.4 -1 -3.72 -2.71 -2.44a8.88 8.88 0 0 0 -1.15 -1.53c-0.24 -0.25 -0.64 -0.56 -0.79 -0.69a1.74 1.74 0 0 0 -1.12 -2.5A2.74 2.74 0 0 0 12.18 0c-1.39 0.17 -2.26 2.43 -0.92 3.4A2.4 2.4 0 0 0 14 3.27 2.89 2.89 0 0 0 15.5 5c0.12 0.06 0.43 0.32 0.48 0.34l-0.09 0.11a2.43 2.43 0 0 0 -1.23 -0.36 4.79 4.79 0 0 0 -4.43 1.52c-0.08 0.07 -0.64 0.36 -0.55 0.68a0.37 0.37 0 0 0 0.54 0.17c0.21 -0.1 -0.09 0 1.51 -0.82 0.82 -0.4 3.75 -0.88 3.81 -0.49 -0.41 1.43 1 2.27 2.38 2l0 0.05c-0.19 0.1 0 0.66 0 0.78a16.1 16.1 0 0 1 -1.09 3.36s-0.24 0.32 -0.27 0.4c-0.23 0.47 0.32 0.68 0.52 0.37A5.21 5.21 0 0 0 18.86 9a4.85 4.85 0 0 0 -0.15 -0.92 6.29 6.29 0 0 0 1.94 1.86 2 2 0 0 0 0.79 2.89A1.79 1.79 0 0 0 24 11.12ZM13.8 2.05c-0.33 0.67 -2.45 1 -2.11 -0.41 0.42 -1.8 2.48 -0.33 2.11 0.41ZM18.21 7a1.27 1.27 0 0 1 -1 0.12c-0.55 -0.14 -0.9 -0.28 -0.52 -1 0.99 -1.84 2.36 0.26 1.52 0.88Zm4.45 4.8a0.92 0.92 0 0 1 -1.34 -0.83c-0.08 -1.22 1.7 -0.81 1.75 0.29a0.6 0.6 0 0 1 -0.41 0.5Z" fill="#4C57E6" fill-rule="evenodd" stroke-width="1"></path>
    <path d="M19.54 13.75c0 1 0.58 8.79 -0.17 9.06a78.38 78.38 0 0 1 -9.06 0.14c-8.77 -0.15 -8.54 -0.49 -8.8 -0.52C0.88 19.3 1 5.17 1.5 2.29A26 26 0 0 1 9 2a0.3 0.3 0 1 0 0 -0.59c-0.59 0 -6.07 -0.67 -8 0.26 -0.43 0.21 -0.39 1 -0.46 1.28C0.3 4 -0.43 19 0.35 22.52c0.19 0.82 0.42 1 1.41 1.17 3.76 0.51 16.88 0.31 17.9 -0.07 1.55 -0.58 0.67 -6.36 0.55 -9.89a0.34 0.34 0 0 0 -0.67 0.02Z" fill="#020202" fill-rule="evenodd" stroke-width="1"></path>
  </g>
</svg>