<svg xmlns="http://www.w3.org/2000/svg" viewBox="0 0 24 24" id="Design-Process-Paint-Screen--Streamline-Freehand">
  <desc>
    Design Process Paint Screen Streamline Icon: https://streamlinehq.com
  </desc>
  <g>
    <path d="M13.8 8.36a3.45 3.45 0 0 0 -0.32 1 9 9 0 0 1 -0.28 1.91 1.86 1.86 0 0 1 -0.6 0.91 0.69 0.69 0 0 1 -0.72 0 0.92 0.92 0 0 0 -0.43 -0.07 0.59 0.59 0 0 0 -0.38 0.25 0.56 0.56 0 0 0 -0.06 0.53 3.32 3.32 0 0 0 2.7 1.91 5.53 5.53 0 0 0 4.49 -1.07 4.82 4.82 0 0 0 1.36 -2.42 3.69 3.69 0 0 0 -0.31 -2.54c0.46 -0.64 0.94 -1.27 1.35 -1.94 0.27 -0.44 0.5 -0.89 0.73 -1.34 0.36 -0.67 0.67 -1.36 1.06 -2a0.34 0.34 0 0 0 -0.08 -0.49 0.33 0.33 0 0 0 -0.47 0.08 18.84 18.84 0 0 0 -1.4 1.8c-0.18 0.27 -0.36 0.54 -0.52 0.82s-0.31 0.57 -0.44 0.86c-0.25 0.54 -0.47 1.09 -0.7 1.64 -0.4 -0.32 -1.1 -0.85 -1.1 -0.85a2.86 2.86 0 0 0 -1.18 -0.46 9.4 9.4 0 0 0 0.56 -1.15c0.11 -0.29 0.19 -0.58 0.27 -0.87s0.12 -0.6 0.17 -0.9c0.1 -0.69 0.14 -1.38 0.19 -2.09a0.34 0.34 0 0 0 -0.69 -0.15c-0.18 0.67 -0.38 1.32 -0.57 2 -0.08 0.28 -0.16 0.55 -0.23 0.83l-0.2 0.82c-0.11 0.49 -0.22 1 -0.35 1.48l-0.17 0a2.6 2.6 0 0 0 -1.68 1.5Zm3.43 -0.44 1.38 1a0.32 0.32 0 0 0 0.11 0.12 3.06 3.06 0 0 1 0.13 2.08A4.08 4.08 0 0 1 17.59 13a4.31 4.31 0 0 1 -3 0.72 4.36 4.36 0 0 1 -1.72 -0.45 2.47 2.47 0 0 0 1.38 -1.69 10.3 10.3 0 0 0 0.25 -2.12 2.12 2.12 0 0 1 0.18 -0.71 1.74 1.74 0 0 1 2.57 -0.86Z" fill="#020202" stroke-width="1"></path>
    <path d="M8.68 8.81a4.05 4.05 0 0 0 -1.16 1.07 1.45 1.45 0 0 0 -0.17 0.9 2.39 2.39 0 0 0 0.43 1 2.16 2.16 0 0 0 1 0.79 3.24 3.24 0 0 0 1.69 0.09 0.3 0.3 0 1 0 0 -0.59 2.79 2.79 0 0 1 -1.11 -0.15 1.23 1.23 0 0 1 -0.66 -0.65 1.52 1.52 0 0 1 -0.17 -0.52 0.45 0.45 0 0 1 0.05 -0.32 3.35 3.35 0 0 1 0.85 -0.73 3.11 3.11 0 0 0 1.08 -1.2 1.44 1.44 0 0 0 -0.42 -1.5 2 2 0 0 0 -0.3 -0.28 1.94 1.94 0 0 0 -0.33 -0.2 3.38 3.38 0 0 0 -0.52 -0.22l-0.52 -0.13a0.34 0.34 0 0 0 -0.42 0.21 0.34 0.34 0 0 0 0.25 0.41l0.43 0.21a2.82 2.82 0 0 1 0.38 0.21l0.34 0.33a0.58 0.58 0 0 1 0.1 0.62 2.42 2.42 0 0 1 -0.82 0.65Z" fill="#4C57E6" stroke-width="1"></path>
    <path d="M4.41 9.91a2.07 2.07 0 0 0 -0.34 1.55 3.8 3.8 0 0 0 2.2 2.59 9.58 9.58 0 0 0 4.68 0.67 0.35 0.35 0 0 0 0.33 -0.35 0.35 0.35 0 0 0 -0.36 -0.33 9.19 9.19 0 0 1 -4.18 -0.92 2.83 2.83 0 0 1 -1.56 -1.91 1.32 1.32 0 0 1 0.31 -1 5.09 5.09 0 0 0 0.75 -1.49 1.46 1.46 0 0 0 -0.62 -1.54A1.63 1.63 0 0 0 5.27 7a2.21 2.21 0 0 0 -0.35 -0.16 2.75 2.75 0 0 0 -0.47 -0.13c-0.22 0 -0.44 -0.08 -0.66 -0.11a0.3 0.3 0 0 0 -0.11 0.59l1 0.29 0.46 0.32a0.72 0.72 0 0 1 0.25 0.75 7.46 7.46 0 0 1 -0.98 1.36Z" fill="#4C57E6" stroke-width="1"></path>
    <path d="m23.94 14.41 -0.49 -4.15c-0.13 -1.17 -0.15 -2.52 -0.24 -3.59 0 -0.34 -0.07 -0.66 -0.12 -0.93a0.34 0.34 0 0 0 -0.39 -0.28 0.36 0.36 0 0 0 -0.28 0.4 6.58 6.58 0 0 1 0.1 0.86c0.07 1.08 0.07 2.43 0.18 3.62l0.4 4.13a7.61 7.61 0 0 1 0 1.35 2 2 0 0 1 -0.23 0.75 1.38 1.38 0 0 1 -1.09 0.54 21.38 21.38 0 0 1 -2.49 0c-2.46 0.12 -13.5 0.27 -15.19 0.21a7.1 7.1 0 0 1 -1.59 -0.17 2 2 0 0 1 -0.81 -0.41 2.46 2.46 0 0 1 -0.58 -1.69c-0.09 -1.21 0.1 -2.58 0.08 -3.39l0 -2.23a22 22 0 0 1 -0.07 -3.76A2 2 0 0 1 2.21 4a3.84 3.84 0 0 1 1.12 -0.28c1 -0.11 2.09 0 3 -0.12S8 3.48 8.86 3.45c2 -0.07 4 0 6 -0.13a0.29 0.29 0 0 0 0.26 -0.32 0.3 0.3 0 0 0 -0.31 -0.29c-2 0.08 -4 0 -6 0 -0.87 0 -1.73 0 -2.59 0.13s-2 -0.05 -3 0a4.56 4.56 0 0 0 -1.38 0.32 2.63 2.63 0 0 0 -1.48 1.7C-0.13 6.25 0.17 8.19 0.16 9.47l0 2.26a28.22 28.22 0 0 0 0 4.06A3 3 0 0 0 1 17.65a3.13 3.13 0 0 0 1.24 0.64 8.33 8.33 0 0 0 1.85 0.21l5.6 0 -1 2.28a7.55 7.55 0 0 0 -0.43 0.89 0.67 0.67 0 0 0 0 0.46 0.59 0.59 0 0 0 0.36 0.33 3.32 3.32 0 0 0 0.39 0.07 3.62 3.62 0 0 0 0.57 0c0.26 0 0.52 0 0.78 -0.07a22.35 22.35 0 0 1 2.79 -0.34 14.76 14.76 0 0 1 1.63 0s0.25 0.37 0.43 0.33a0.33 0.33 0 0 0 0.26 -0.4 13 13 0 0 0 -0.26 -1.72c-0.06 -0.24 -0.13 -0.48 -0.21 -0.71a5.28 5.28 0 0 0 -0.29 -0.69 6 6 0 0 0 -0.31 -0.55c2.06 -0.07 3.93 -0.17 5 -0.27a17 17 0 0 0 3 -0.21 1.93 1.93 0 0 0 1.26 -0.9 2.8 2.8 0 0 0 0.34 -1.08 8.45 8.45 0 0 0 -0.06 -1.51Zm-10.2 5.16c0.11 0.36 0.26 0.71 0.4 1.06s0.21 0.5 0.32 0.75a16.1 16.1 0 0 0 -1.83 -0.14c-0.81 0 -1.62 0 -2.44 0.11l-0.72 0c0.07 -0.11 0.56 -1.75 0.79 -2.5 0.05 -0.13 0.1 -0.26 0.14 -0.39l1.34 0 1.69 0c0.1 0.34 0.19 0.72 0.31 1.11Z" fill="#020202" stroke-width="1"></path>
  </g>
</svg>