<svg xmlns="http://www.w3.org/2000/svg" viewBox="0 0 24 24" id="Design-Process-Layout--Streamline-Freehand">
  <desc>
    Design Process Layout Streamline Icon: https://streamlinehq.com
  </desc>
  <g>
    <path d="M23.45 13.42c0.15 -2.78 -0.14 -5.63 0.11 -8.35 0 -3.3 0.12 -2.54 0.12 -3.16 0 -1.56 -1.61 -1.4 -5.88 -1.75C12.29 -0.28 7.41 0.34 2 0.37A0.33 0.33 0 0 0 2 1C7.4 1 12.28 0.47 17.73 1c5.86 0.57 5.09 0.28 4.92 1.78L22.59 5c-0.29 2.78 0 5.62 -0.21 8.38 -0.12 2.06 0.37 7.5 0.21 9 -3 0.49 -19.21 0.81 -21.33 0.36 -0.39 -1.79 -0.05 -20 0 -21.82a0.29 0.29 0 1 0 -0.58 0C0.19 21.78 0.13 22.88 0.53 23.32c1 1.13 21.61 0.66 22.78 0 0.39 -0.23 0.41 -0.77 0.42 -1.39 0.04 -2.01 -0.38 -6.62 -0.28 -8.51Z" fill="#020202" fill-rule="evenodd" stroke-width="1"></path>
    <path d="M21.11 4a14 14 0 0 0 -1.54 -0.18 4.25 4.25 0 0 0 -1.57 0.54c-0.18 0.18 -0.17 0.32 -0.1 0.4 0.19 0.32 3.48 0.32 3.48 -0.36 0.05 -0.14 -0.04 -0.27 -0.27 -0.4Z" fill="#020202" fill-rule="evenodd" stroke-width="1"></path>
    <path d="M21.12 7.07a14.66 14.66 0 0 0 -1.54 -0.18c-0.53 0 -2 0.5 -1.64 0.91 0.12 0.2 1.48 0.21 1.68 0.2a13.76 13.76 0 0 0 1.47 -0.24c0.33 0 0.54 -0.48 0.03 -0.69Z" fill="#020202" fill-rule="evenodd" stroke-width="1"></path>
    <path d="M21.18 10.37a2.89 2.89 0 0 0 -0.58 -0.07c-1.59 -0.3 -3 0.4 -2.6 0.79a5.81 5.81 0 0 0 2 0.18l1.11 -0.21c0.37 0 0.58 -0.49 0.07 -0.69Z" fill="#020202" fill-rule="evenodd" stroke-width="1"></path>
    <path d="M6.2 18.18C6.92 18.13 7.59 18 8 18a0.33 0.33 0 1 0 0 -0.65c-0.36 -0.05 -1 -0.17 -1.75 -0.21 -0.54 0 -2.49 0.1 -2.5 0.48 -0.18 0.6 1.85 0.6 2.45 0.56Z" fill="#020202" fill-rule="evenodd" stroke-width="1"></path>
    <path d="M4.32 20.77c0.67 0 1.51 0.15 2.5 0.15 1.7 0 4.11 -0.05 4.11 -0.59s-1.26 -0.4 -1.63 -0.43 -1.17 -0.1 -2 -0.1a24.85 24.85 0 0 0 -3.72 0.39c-0.24 0.15 -0.2 0.32 -0.11 0.43s0.66 0.13 0.85 0.15Z" fill="#020202" fill-rule="evenodd" stroke-width="1"></path>
    <path d="M4 3.25c-0.15 -0.25 -0.5 -0.2 -0.59 0.14s0 0.21 -0.29 3.5c-0.24 5.7 -0.5 7.64 0.28 8 0.53 0.27 10.51 0.56 11.3 0.16a1.15 1.15 0 0 0 0.43 -0.81 78.57 78.57 0 0 0 0.34 -9.85c0 -0.39 0 -0.84 -0.28 -1 -0.83 -0.54 -10.29 -0.5 -10.71 -0.46a0.35 0.35 0 0 0 -0.33 0.34l0 0.74 2.18 2.5a4 4 0 0 0 -0.12 5c-2.3 2.66 -2.21 2.61 -2.29 2.61 -0.22 -0.72 -0.16 -1.52 -0.1 -7.2 0.18 -4.37 0.27 -3.55 0.18 -3.67Zm0.9 10.86 2 -2a5.11 5.11 0 0 0 4.59 0.06l2 1.94c-0.96 0.07 -5.96 0.08 -8.58 0Zm6.82 -7.23a3 3 0 0 1 -0.14 4L9.92 9ZM9.19 8.17c-0.81 -0.88 -1 -1.1 -1.58 -1.65a3.39 3.39 0 0 1 3.32 -0.17c-0.73 0.73 -1.04 1.05 -1.74 1.82Zm0 1.65c0.87 1 1.1 1.18 1.57 1.65a4.75 4.75 0 0 1 -3 -0.14c0.3 -0.33 0.54 -0.53 1.43 -1.51Zm5.28 -5.71c0 0.15 0.07 0.4 0.07 0.65 0 2.08 -0.22 7.34 -0.45 9l-1.88 -2.13c1.47 -1.66 1.23 -4.28 -0.06 -5.23l2 -2.32ZM4.59 3.6c1.82 0 6.59 0.17 8.8 0.38 -0.42 0.41 -1.21 1.15 -2.15 2.07 0 -0.52 -1.73 -0.86 -2.69 -0.72a3.87 3.87 0 0 0 -1.55 0.6c-0.06 -0.08 -2.33 -2.28 -2.41 -2.33Zm2.34 3.61L8.45 9 7 10.71a3.28 3.28 0 0 1 -0.07 -3.5Z" fill="#4C57E6" fill-rule="evenodd" stroke-width="1"></path>
    <path d="M13.08 17.19a17.09 17.09 0 0 0 -0.21 3 0.53 0.53 0 0 0 0.27 0.3 10.77 10.77 0 0 0 3.18 0.1c0.4 -0.21 0.37 -0.8 0.39 -1.28s0 -1.4 0 -1.76a0.83 0.83 0 0 0 -0.23 -0.56c-0.39 -0.24 -3.25 -0.26 -3.4 0.2Zm2.65 0.53c0 0.48 -0.08 1.31 -0.14 1.82l-1.87 0c-0.05 -0.36 -0.07 -1.43 -0.07 -2a14.14 14.14 0 0 1 2.08 0.18Z" fill="#020202" fill-rule="evenodd" stroke-width="1"></path>
    <path d="M17.9 20.13a0.47 0.47 0 0 0 0.27 0.3 10.46 10.46 0 0 0 3.18 0.1c0.4 -0.21 0.37 -0.8 0.39 -1.28s0 -1.4 0 -1.76a0.78 0.78 0 0 0 -0.24 -0.56c-0.36 -0.21 -3.21 -0.23 -3.36 0.23a16.94 16.94 0 0 0 -0.24 2.97Zm2.86 -2.44c0 0.48 -0.08 1.31 -0.14 1.82l-1.87 0c-0.05 -0.36 -0.07 -1.43 -0.07 -2a14.14 14.14 0 0 1 2.08 0.18Z" fill="#020202" fill-rule="evenodd" stroke-width="1"></path>
  </g>
</svg>