<svg xmlns="http://www.w3.org/2000/svg" viewBox="0 0 24 24" id="Design-Process-Smartphone-Touch--Streamline-Freehand">
  <desc>
    Design Process Smartphone Touch Streamline Icon: https://streamlinehq.com
  </desc>
  <g>
    <path d="M21.63 18.44a2.68 2.68 0 0 0 -0.39 -0.68 2.35 2.35 0 0 0 -1.1 -0.85 2.41 2.41 0 0 0 -1.37 -0.06 3.82 3.82 0 0 0 -0.6 0.19l-0.34 0.16a14.79 14.79 0 0 0 -1.09 -2.08 9.47 9.47 0 0 0 -1.55 -1.87 3.18 3.18 0 0 0 -1.59 -0.72 1.09 1.09 0 0 0 -1.06 0.57 1.64 1.64 0 0 0 -0.19 0.83 5.25 5.25 0 0 0 0.29 1.37 10.82 10.82 0 0 0 0.89 1.92c0.13 0.22 0.29 0.43 0.43 0.65a2.7 2.7 0 0 0 -1.11 2.62 3.85 3.85 0 0 0 0.77 1.75 6.13 6.13 0 0 0 2.09 1.7 0.31 0.31 0 0 0 0.45 -0.09 0.31 0.31 0 0 0 -0.09 -0.45 7.42 7.42 0 0 1 -1.45 -1.83 4.79 4.79 0 0 1 -0.56 -1.31 1.93 1.93 0 0 1 0.36 -1.71c0.27 0.4 0.52 0.81 0.81 1.21a0.32 0.32 0 0 0 0.45 0.11 0.35 0.35 0 0 0 0.11 -0.46 28.82 28.82 0 0 1 -1.36 -2.65 10.17 10.17 0 0 1 -0.62 -1.76c-0.05 -0.19 -0.13 -0.48 -0.18 -0.77a1.26 1.26 0 0 1 0 -0.43 2.36 2.36 0 0 1 0.28 0.12 2.2 2.2 0 0 1 0.54 0.28A8.74 8.74 0 0 1 16 15.67c1.65 2.12 1.15 2.56 1.66 2.36l0.65 -0.17a3 3 0 0 1 0.6 -0.05 1.71 1.71 0 0 1 0.79 0.21 1.75 1.75 0 0 1 0.58 0.5 5.91 5.91 0 0 1 1.05 2.76 0.38 0.38 0 0 0 0.4 0.34 0.37 0.37 0 0 0 0.35 -0.39 7.09 7.09 0 0 0 -0.45 -2.79Z" fill="#020202" fill-rule="evenodd" stroke-width="1"></path>
    <path d="M7.27 7a0.37 0.37 0 0 0 0.1 -0.74A5.47 5.47 0 0 0 6 6a1.21 1.21 0 0 0 -1 0.41 1.41 1.41 0 0 0 -0.19 0.87A8.45 8.45 0 0 0 5.2 8.6a0.32 0.32 0 0 0 0.34 0.31 0.32 0.32 0 0 0 0.32 -0.34C6.14 6.64 5.76 7 7.27 7Z" fill="#4C57E6" fill-rule="evenodd" stroke-width="1"></path>
    <path d="M11.44 10.84a0.33 0.33 0 0 0 -0.32 0.34c-0.28 1.93 0.1 1.58 -1.41 1.62a0.38 0.38 0 0 0 -0.42 0.33 0.36 0.36 0 0 0 0.32 0.41 5.08 5.08 0 0 0 1.39 0.26 1.18 1.18 0 0 0 0.92 -0.46 1.39 1.39 0 0 0 0.19 -0.87 8.6 8.6 0 0 0 -0.36 -1.31 0.33 0.33 0 0 0 -0.31 -0.32Z" fill="#4C57E6" fill-rule="evenodd" stroke-width="1"></path>
    <path d="M11.43 8.86a0.36 0.36 0 0 0 0.41 -0.32 4.73 4.73 0 0 0 0.26 -1.41 1.21 1.21 0 0 0 -0.45 -0.93 1.41 1.41 0 0 0 -0.87 -0.2 8.45 8.45 0 0 0 -1.32 0.36 0.34 0.34 0 0 0 -0.32 0.34 0.33 0.33 0 0 0 0.34 0.3c1.93 0.29 1.58 -0.09 1.62 1.42a0.37 0.37 0 0 0 0.33 0.44Z" fill="#4C57E6" fill-rule="evenodd" stroke-width="1"></path>
    <path d="M6.21 13.75a7.46 7.46 0 0 0 1.31 -0.37 0.33 0.33 0 0 0 0.32 -0.38 0.34 0.34 0 0 0 -0.34 -0.32c-1.94 -0.28 -1.58 0.1 -1.62 -1.41a0.38 0.38 0 0 0 -0.33 -0.42 0.37 0.37 0 0 0 -0.41 0.33 4.73 4.73 0 0 0 -0.26 1.41 1.19 1.19 0 0 0 0.45 0.92 1.42 1.42 0 0 0 0.88 0.24Z" fill="#4C57E6" fill-rule="evenodd" stroke-width="1"></path>
    <path d="M10.94 18.33c-0.94 0.07 -1.85 0.12 -2.76 0.13s-1.81 0 -2.74 -0.08c-0.33 0 -0.82 0 -1.26 -0.05a1.07 1.07 0 0 1 -0.56 -0.19 1.54 1.54 0 0 1 -0.43 -0.85 7.15 7.15 0 0 1 -0.1 -1.77l0.09 -7.18 0.15 -5.43c0 -0.27 -0.05 -0.76 -0.05 -1.19 0 -0.7 0 -0.29 0.71 -0.34l1.77 -0.09 0.23 1 0 0.51a0.73 0.73 0 0 0 0.15 0.32 0.94 0.94 0 0 0 0.45 0.28 4.88 4.88 0 0 0 1 0.1l1.76 0c0.39 0 0.79 0 1.18 -0.08a5.39 5.39 0 0 0 1 -0.1 0.73 0.73 0 0 0 0.37 -0.23 1 1 0 0 0 0.1 -0.31c0.05 -0.16 0.06 -0.4 0.09 -0.53l0.19 -0.95a6.79 6.79 0 0 1 0.78 0 2.6 2.6 0 0 1 1.29 0.43 1 1 0 0 1 0.24 0.56 8.61 8.61 0 0 1 0.09 1.35l0.14 7.46a0.37 0.37 0 1 0 0.74 0l0.06 -7.45a7.37 7.37 0 0 0 -0.13 -1.81A1.7 1.7 0 0 0 15 1a3.2 3.2 0 0 0 -1.34 -0.62 18 18 0 0 0 -3 -0.23L7.67 0 3.9 0.14a5.24 5.24 0 0 0 -1.08 0.1 1.06 1.06 0 0 0 -0.55 0.36 1.92 1.92 0 0 0 -0.27 0.89c0 0.47 0.06 1.07 0 1.38l0 5.47 0.11 7.19a9.29 9.29 0 0 0 0.19 2 2.48 2.48 0 0 0 0.7 1.3 1.77 1.77 0 0 0 0.8 0.34 13.94 13.94 0 0 0 1.55 0 26.5 26.5 0 0 0 2.82 0c0.92 0 1.84 -0.12 2.79 -0.21a0.34 0.34 0 0 0 0.3 -0.36 0.33 0.33 0 0 0 -0.32 -0.27ZM7.69 1.19l2.94 0.07h0.81l-0.26 0.74c0 0.08 -0.13 0.22 -0.16 0.33 -0.2 0 -0.46 -0.11 -0.51 -0.11l-2.9 0c-0.1 0 -0.38 0.11 -0.57 0.14A2.53 2.53 0 0 0 6.88 2l-0.33 -0.79Z" fill="#020202" fill-rule="evenodd" stroke-width="1"></path>
  </g>
</svg>