<svg xmlns="http://www.w3.org/2000/svg" viewBox="0 0 24 24" id="Design-Process-Paint-Brush--Streamline-Freehand">
  <desc>
    Design Process Paint Brush Streamline Icon: https://streamlinehq.com
  </desc>
  <g>
    <path d="M11.17 16.81c-2 -0.07 -7 -0.23 -9.13 -0.35h-0.37c0 -0.19 -0.1 -0.43 -0.11 -0.53L1.43 13c-0.22 -2.31 -0.35 -4.61 -0.4 -6.92A0.57 0.57 0 0 1 1 6a32.53 32.53 0 0 1 3.8 -0.56c1.2 -0.11 2.31 -0.14 3.45 -0.18l3.44 -0.09c3.33 -0.09 6.66 -0.2 9.92 -0.56 0.16 3.61 0.06 9.08 0.22 11.4a0.4 0.4 0 0 0 0.41 0.37 0.38 0.38 0 0 0 0.37 -0.41c-0.09 -2.41 0.26 -8.23 0.19 -11.82A8.52 8.52 0 0 0 22.35 0.9a1.51 1.51 0 0 0 -0.6 -0.52 4 4 0 0 0 -1.26 -0.26l-1.15 0c-0.85 0 -1.7 0.06 -2.55 0.07 -1.15 0 -2.31 0 -3.46 0.11 -1.72 0.03 -3.44 0.17 -5.16 0.26 -1.5 0.09 -3 0.16 -4.51 0.31 -0.92 0.08 -1.84 0.2 -2.74 0.36a0.38 0.38 0 0 0 -0.2 -0.1 0.35 0.35 0 0 0 -0.37 0.32C0.17 3.4 0.05 5.34 0 7.28s0 3.9 0.11 5.85l0.14 2.92 0 0.87a1.11 1.11 0 0 0 0.17 0.46 0.72 0.72 0 0 0 0.56 0.29l1 0c2.16 0 7.19 -0.08 9.17 -0.11a0.39 0.39 0 0 0 0.39 -0.38 0.4 0.4 0 0 0 -0.37 -0.37ZM3.71 1.67c1.5 -0.07 3 -0.07 4.49 -0.08l8.6 -0.14c0.85 0 1.7 -0.07 2.54 -0.07l1 0a5.38 5.38 0 0 1 0.66 0.12 0.38 0.38 0 0 1 0.25 0.11 6.51 6.51 0 0 1 0.3 2.19c-2.42 0.13 -4.86 0.07 -7.31 0.06 -1.74 0 -3.48 0 -5.21 0.08A38.79 38.79 0 0 0 1 5.25l0 -3.33c0.92 -0.12 1.82 -0.2 2.71 -0.25Z" fill="#020202" fill-rule="evenodd" stroke-width="1"></path>
    <path d="M23.84 20.36c-0.35 -0.35 -0.68 -0.7 -1.05 -1a4.3 4.3 0 0 0 -0.49 -0.36 4.25 4.25 0 0 0 -0.54 -0.32c-0.93 -0.45 -1 -0.05 -1.13 -1.55a2.35 2.35 0 0 0 -0.92 -1.82c-1 -0.81 -2.78 -0.82 -4 -1.26a1.53 1.53 0 0 1 -0.42 -0.22 8.17 8.17 0 0 0 -1.36 -1s-0.77 -0.12 -0.92 0.51c0 0.18 -0.14 0.61 -0.14 0.66a7 7 0 0 0 -0.09 1.12 8.1 8.1 0 0 0 0 1.1 7.91 7.91 0 0 0 1.82 4.15 2.7 2.7 0 0 0 2.69 0.9 5.85 5.85 0 0 0 0.28 0.9 3.23 3.23 0 0 0 0.22 0.41 2.72 2.72 0 0 0 0.29 0.38c0.25 0.29 0.51 0.54 0.78 0.81a0.39 0.39 0 0 0 0.66 -0.42c-0.14 -0.36 -0.24 -0.7 -0.4 -1a4.11 4.11 0 0 0 -0.21 -0.42c-0.09 -0.13 -0.18 -0.26 -0.28 -0.38s-0.4 -0.55 -0.63 -0.75c0.31 -0.17 0.62 -0.34 0.93 -0.53a4.81 4.81 0 0 0 0.49 -0.34 3.38 3.38 0 0 0 0.44 -0.4c0.17 -0.18 0.31 -0.39 0.46 -0.58 0.25 0.25 0.49 0.51 0.77 0.74a4.41 4.41 0 0 0 0.49 0.36l0.52 0.31 1.29 0.63a0.39 0.39 0 0 0 0.46 -0.63Zm-4.78 -1.8a3.91 3.91 0 0 0 -0.48 0.35 5.36 5.36 0 0 0 -0.43 0.4c-0.34 0.34 -0.63 0.69 -0.95 1.06 0 0 0 0.08 -0.06 0.12a1.9 1.9 0 0 1 -1.74 -0.78 6.75 6.75 0 0 1 -1.3 -3.61l0 -1 0 -0.62a3.68 3.68 0 0 0 0.44 0.34 2.75 2.75 0 0 0 0.77 0.37c1 0.27 2.37 0.2 3.39 0.59a1.58 1.58 0 0 1 1.12 1.36v0.94c-0.22 0.18 -0.49 0.31 -0.76 0.48Z" fill="#020202" fill-rule="evenodd" stroke-width="1"></path>
    <path d="M19 8.16c0 0.39 0.07 0.8 0.1 1.15 0.08 0.69 0.14 1.37 0.18 2.06s0.07 1.38 0.09 2.07a0.39 0.39 0 1 0 0.77 0c0 -0.7 0.09 -1.4 0.11 -2.11s0 -1.4 0 -2.12a14.07 14.07 0 0 0 0 -1.44 2.93 2.93 0 0 0 -0.21 -0.73A1.37 1.37 0 0 0 19 6.33a5.11 5.11 0 0 0 -2 0.16 1.83 1.83 0 0 0 -0.61 0.3 1.26 1.26 0 0 0 -0.35 0.5 1.9 1.9 0 0 0 -0.08 0.65c0 0.36 0.1 0.77 0.12 1.06l0.35 3.73a0.35 0.35 0 1 0 0.69 0L17.21 9l0 -0.91a0.92 0.92 0 0 1 0 -0.29s0.08 0 0.13 0a4.36 4.36 0 0 1 1.11 -0.14c0.18 0 0.52 0 0.44 0.06a2.17 2.17 0 0 1 0.11 0.44Z" fill="#4C57E6" fill-rule="evenodd" stroke-width="1"></path>
    <path d="M4.75 8.21a0.35 0.35 0 1 0 -0.69 0l-0.33 3.61a9.21 9.21 0 0 0 -0.14 1.07 0.91 0.91 0 0 0 0.26 0.67 2.6 2.6 0 0 0 1 0.62 6.23 6.23 0 0 0 1.52 0.27 14.24 14.24 0 0 0 1.46 0c1.1 0 2.17 -0.2 3.29 -0.28a0.39 0.39 0 0 0 0 -0.78c-1 0 -1.88 0 -2.81 -0.06a15.62 15.62 0 0 1 -1.8 -0.16c-2.53 -0.3 -1.63 -0.66 -1.63 -1.3Z" fill="#4C57E6" fill-rule="evenodd" stroke-width="1"></path>
    <path d="M13.46 11.59a14.54 14.54 0 0 0 0.12 -1.59 12.94 12.94 0 0 0 -0.05 -1.65 7.62 7.62 0 0 0 -0.12 -0.93 0.66 0.66 0 0 0 -0.61 -0.52 27.38 27.38 0 0 0 -3.14 0.06c-1.54 0.14 -3.06 0.42 -4.59 0.51a0.34 0.34 0 1 0 0 0.68c1.3 0.1 2.6 0.13 3.9 0.11l1.92 -0.06c0.51 0 1 -0.05 1.52 -0.06l0 0.37c0.1 0.5 0.18 1 0.23 1.52a13.26 13.26 0 0 1 0 1.54 0.39 0.39 0 0 0 0.78 0.06Z" fill="#4C57E6" fill-rule="evenodd" stroke-width="1"></path>
  </g>
</svg>