<svg xmlns="http://www.w3.org/2000/svg" viewBox="0 0 24 24" id="Design-Tool-Compass--Streamline-Freehand">
  <desc>
    Design Tool Compass Streamline Icon: https://streamlinehq.com
  </desc>
  <g>
    <path d="M23.13 14.38a2.17 2.17 0 0 0 -0.24 -0.29 1.57 1.57 0 0 0 -0.25 -0.2 2 2 0 0 0 0.07 -1.32A5.06 5.06 0 0 0 22 11c-0.68 -1 -1.69 -2.05 -2.26 -2.82 -0.46 -0.59 -1 -1.34 -1.62 -2.08s-1 -1.22 -1.44 -1.74a2.64 2.64 0 0 0 -0.37 -1A3.14 3.14 0 0 0 13 2.07a2.1 2.1 0 0 0 0 -0.44 1.28 1.28 0 0 0 -0.06 -0.33 1.79 1.79 0 0 0 -0.15 -0.3c-0.53 -1 -0.74 -1 -1 -0.95s-0.32 0.14 -0.22 1.29c0 0.11 0 0.23 0.06 0.34a1.75 1.75 0 0 0 0.12 0.32 2.83 2.83 0 0 0 0.32 0.43 3 3 0 0 0 -1.57 3.41 2.54 2.54 0 0 0 0.44 0.74l0 2.07c0 0.95 0 1.89 0.07 2.64 0 1 -0.09 2.38 0 3.61a5.17 5.17 0 0 0 0.44 1.69 2.07 2.07 0 0 0 0.88 1 0.52 0.52 0 0 0 -0.06 0.13 0.86 0.86 0 0 0 -0.05 0.32 1.63 1.63 0 0 0 0 0.31c0.18 1.08 0.35 1.13 0.55 1.14s0.38 0 0.66 -1.09a1.55 1.55 0 0 0 0.06 -0.31 1.1 1.1 0 0 0 0 -0.31 0.88 0.88 0 0 0 0 -0.15A2.57 2.57 0 0 0 15 15.72a20.51 20.51 0 0 0 -0.15 -3.62c-0.24 -2.14 -0.65 -4.31 -0.78 -5a0.87 0.87 0 0 0 0.22 -0.05 0.34 0.34 0 1 0 -0.22 -0.64c-1.45 0.41 -2.32 -0.09 -2.52 -0.9a1.58 1.58 0 0 1 0.16 -1A2.24 2.24 0 0 1 13 3.35a2 2 0 0 1 2.4 0.65 1.44 1.44 0 0 1 -0.55 2.19s-0.08 0 -0.12 0a0.39 0.39 0 0 0 -0.15 0.53s1.27 2.39 2.68 4.56a19.14 19.14 0 0 0 2.18 2.88 2.53 2.53 0 0 0 2.25 0.53l0 0.09A2 2 0 0 0 22 15l0.28 0.22c1 0.68 1.11 0.64 1.29 0.47s0.22 -0.33 -0.44 -1.31Zm-9.82 -7.09c0.1 0.73 0.37 2.83 0.48 4.91a17.53 17.53 0 0 1 0 3.37 1.17 1.17 0 0 1 -0.61 0.82c-0.19 0.09 -0.34 -0.05 -0.49 -0.38a4.07 4.07 0 0 1 -0.34 -1.26c-0.18 -1.2 -0.15 -2.6 -0.25 -3.54s-0.22 -2 -0.31 -3.12c0 -0.33 -0.05 -0.64 -0.07 -1a2.78 2.78 0 0 0 1.59 0.2Zm4.83 3.35c-1.16 -1.58 -2.24 -3.28 -2.68 -4a2.46 2.46 0 0 0 1.09 -1.24c0.19 0.26 0.37 0.49 0.56 0.77 0.63 0.91 1.26 1.87 1.74 2.61s1.43 1.85 2.06 2.89a4.28 4.28 0 0 1 0.54 1.19c0.08 0.35 0.05 0.56 -0.14 0.61a1.18 1.18 0 0 1 -1 -0.25 17.67 17.67 0 0 1 -2.17 -2.58Z" fill="#020202" fill-rule="evenodd" stroke-width="1"></path>
    <path d="M21.32 16.39a0.38 0.38 0 0 0 -0.29 0.46 10.78 10.78 0 0 1 -0.15 3.59c-0.17 0.82 -0.41 1.56 -0.88 1.77a10.94 10.94 0 0 1 -3.48 0.47c-1.64 0.06 -3.52 0 -5.19 0l-3.52 0c-1.33 0.05 -3.24 0.37 -4.62 -0.11a2 2 0 0 1 -1.36 -1.32A0.57 0.57 0 0 0 2 21a1.78 1.78 0 0 1 1.14 -1.5c1.85 -0.56 3.12 0.83 3.11 -0.1s0.25 -2 0.4 -3.07c0.09 -0.68 0.19 -1.37 0.26 -2l0 -0.74a5.09 5.09 0 0 0 0.59 0.14l0.51 0a4.4 4.4 0 0 0 0.51 -0.05c0.41 -0.06 0.79 -0.17 1.19 -0.25a0.39 0.39 0 0 0 0.37 -0.4 0.38 0.38 0 0 0 -0.4 -0.37c-0.4 -0.07 -0.77 -0.15 -1.18 -0.2a4.19 4.19 0 0 0 -0.5 0 2.91 2.91 0 0 0 -0.51 0c-0.18 0 -0.35 0.08 -0.52 0.12 0 -0.59 0.07 -1.19 0.1 -1.77a0.33 0.33 0 0 0 -0.28 -0.38 4.2 4.2 0 0 0 -2 -0.87 3.86 3.86 0 0 0 -1 0 3.32 3.32 0 0 0 -0.93 0.27 4.21 4.21 0 0 0 -1.66 1.4 0.3 0.3 0 0 0 -0.07 0.31 0.32 0.32 0 0 0 -0.12 0.21 44.09 44.09 0 0 0 -0.68 5.17c0 0.82 -0.06 1.6 0 2.26a4.45 4.45 0 0 0 2.54 4.2c1.45 0.59 3.51 0.43 4.94 0.46 0.85 0 2.09 0.1 3.48 0.14 1.7 0.06 3.61 0.08 5.29 0a11.44 11.44 0 0 0 3.87 -0.75 3.46 3.46 0 0 0 1.35 -2.57 11.43 11.43 0 0 0 0 -3.92 0.39 0.39 0 0 0 -0.48 -0.35ZM3.33 11a5.44 5.44 0 0 1 0.7 -0.15 3.83 3.83 0 0 1 2.33 0.15c-0.22 0.87 -0.46 1.74 -0.64 2.64 -0.08 0.43 -0.15 0.86 -0.2 1.3s-0.08 0.88 -0.1 1.32a22.58 22.58 0 0 0 0 2.47 5 5 0 0 0 -3.19 0 2.62 2.62 0 0 0 -0.64 0.44l0 -2.43c0 -1.87 0 -3.89 0.1 -4.94l0 -0.13A4.3 4.3 0 0 1 3.33 11Z" fill="#4C57E6" fill-rule="evenodd" stroke-width="1"></path>
  </g>
</svg>