<svg xmlns="http://www.w3.org/2000/svg" viewBox="0 0 24 24" id="Design-Process-Shape-Monitor--Streamline-Freehand">
  <desc>
    Design Process Shape Monitor Streamline Icon: https://streamlinehq.com
  </desc>
  <g>
    <path d="M23.68 17.75c0 -0.74 -0.06 -1.48 -0.05 -2.22 0 -3.19 0.48 -6.36 0.35 -9.55 0 -0.85 0 -1.86 -0.16 -2.8a6.17 6.17 0 0 0 -0.56 -2 1 1 0 0 0 -0.58 -0.44 7 7 0 0 0 -1.07 -0.19A15 15 0 0 0 20 0.33c-0.8 -0.06 -1.61 -0.06 -2.4 -0.06 -1.11 0 -2.22 0 -3.33 0.11 -4.39 0.24 -8.77 0.79 -13.17 0.92a0.33 0.33 0 0 0 -0.34 0.34 0.44 0.44 0 0 0 0.07 0.19 0.32 0.32 0 0 0 -0.25 0.28c-0.2 2 -0.35 4 -0.45 6.06S0 12.23 0 14.28a24.19 24.19 0 0 0 0 3 1.79 1.79 0 0 0 0.49 1.1 4.36 4.36 0 0 0 2.11 0.71c1.54 0.16 3.44 -0.09 4.48 -0.06l2.29 0c-0.45 0.68 -0.94 1.4 -1.34 2.14a8.47 8.47 0 0 0 -0.58 1.38 0.77 0.77 0 0 0 0.58 0.86 12.86 12.86 0 0 0 1.77 0.33 21.34 21.34 0 0 0 2.25 -0.06c1.11 -0.09 2.22 -0.27 3.29 -0.43a0.4 0.4 0 0 0 0.35 -0.43 0.36 0.36 0 0 0 -0.19 -0.28c-0.07 -0.47 -0.13 -0.94 -0.21 -1.41 0 -0.22 -0.08 -0.45 -0.13 -0.67s-0.12 -0.44 -0.2 -0.66a8.67 8.67 0 0 0 -0.36 -0.83h0.66c2.74 -0.1 5.47 -0.27 8.15 -0.5a0.38 0.38 0 0 0 0.2 -0.69Zm-9.87 2.33q0.06 0.34 0.15 0.69a5.25 5.25 0 0 0 0.22 0.67c0.13 0.35 0.3 0.69 0.46 1 -0.67 0 -1.34 0.05 -2 0.06a23.43 23.43 0 0 1 -2.64 -0.09 6.47 6.47 0 0 1 -1.08 0 10.07 10.07 0 0 1 0.43 -1.19c0.32 -0.77 0.7 -1.51 1 -2.21l3.43 0a10.65 10.65 0 0 0 0.03 1.07Zm1.49 -2.19c-2.72 0 -5.45 0 -8.11 -0.15 -0.89 0 -2.41 0.15 -3.79 0.09a4.07 4.07 0 0 1 -2 -0.42 17.4 17.4 0 0 1 -0.18 -3.15c-0.13 -2 -0.18 -4 -0.17 -6s0.09 -4 0.2 -6A0.3 0.3 0 0 0 1.19 2l3.22 0c4.39 -0.11 8.78 -0.45 13.18 -0.38 0.76 0 1.53 0 2.3 0.07a12.45 12.45 0 0 1 1.48 0.18c0.76 0.14 0.86 -0.56 1.19 1.53 0.14 0.91 0.17 1.87 0.23 2.69 0.24 3.16 -0.08 6.32 0 9.48 0 0.72 0.06 1.44 0.13 2.15 -2.52 0.08 -5.07 0.16 -7.62 0.17Z" fill="#020202" fill-rule="evenodd" stroke-width="1"></path>
    <path d="M15.67 5.18c-0.46 -0.3 -0.85 -0.65 -1.29 -0.95a5.07 5.07 0 0 0 -0.67 -0.39 6.53 6.53 0 0 0 -1 -0.42 1.5 1.5 0 0 0 -0.75 0 2.45 2.45 0 0 0 -0.56 0.23c-0.32 0.17 -0.62 0.42 -0.9 0.58C9.64 4.78 8.83 5.42 8 6c-0.35 0.25 -0.7 0.49 -1.08 0.71 0 0 0 0.06 -0.06 0.08a0.35 0.35 0 0 0 -0.12 0.21s0 0 0 0.06c-0.13 0.67 -0.3 1.32 -0.4 2a6.36 6.36 0 0 0 -0.06 0.87l0 0.87a20.17 20.17 0 0 0 0.27 2.05 0.36 0.36 0 0 0 0.29 0.31 0.3 0.3 0 0 0 0.19 0.29c0.93 0.46 1.56 0.89 2.34 1.32 0.33 0.18 0.68 0.35 1.08 0.53 0.2 0.08 0.67 0.32 1.07 0.45a2 2 0 0 0 0.73 0.11 5.61 5.61 0 0 0 1.51 -0.42 14.82 14.82 0 0 0 1.95 -1l1.68 -1.11 0.09 0a0.39 0.39 0 0 0 0.38 -0.4c0.06 -0.78 0.16 -1.55 0.21 -2.34l0 -1 0 -1c-0.28 -3.75 -0.01 -1.99 -2.4 -3.41ZM8.43 6.75c0.91 -0.47 1.78 -1 2.71 -1.44l0.4 -0.23 0 0.12c0.28 1 0.49 1 0.68 1s0.35 -0.14 0.55 -1a1.17 1.17 0 0 0 0 -0.26 0.59 0.59 0 0 0 0 -0.13c0.17 0.09 0.32 0.19 0.4 0.22a5.38 5.38 0 0 1 0.55 0.24c0.47 0.26 0.91 0.56 1.4 0.81l1.55 0.7 -1.5 0.75c-0.34 0.16 -1 0.39 -1.58 0.61a9.34 9.34 0 0 1 -0.91 0.28c-0.28 -1.12 -0.32 -1.2 -0.57 -1.21s-0.35 0.16 -0.57 1.15l-0.72 -0.25L7.91 7Zm6.78 6.79c-0.34 0.16 -1 0.39 -1.58 0.61 -0.32 0.11 -0.64 0.21 -0.93 0.28 0 -0.1 0 -0.2 0.06 -0.3a3.71 3.71 0 0 0 0 -0.47 3.55 3.55 0 0 0 0 -0.46c-0.24 -1.47 -0.45 -1.42 -0.6 -1.43s-0.42 0 -0.65 1.43a1.89 1.89 0 0 0 0 0.47 3.57 3.57 0 0 0 0 0.47 2.25 2.25 0 0 1 0.05 0.22l-0.71 -0.24 -2.54 -0.93 0.13 0a1.15 1.15 0 0 0 0.27 -0.19c0.08 -0.07 0.77 -0.81 0.59 -1.09 -0.05 -0.09 -0.15 -0.31 -1.22 0a1.39 1.39 0 0 0 -0.28 0.09 2 2 0 0 0 -0.24 0.19 2.13 2.13 0 0 0 -0.21 0.22c0 -0.55 0.11 -1.09 0.15 -1.65a12.21 12.21 0 0 0 0.07 -1.36c0 -0.6 -0.08 -1.18 -0.14 -1.76 0.7 0.37 1.28 0.73 1.92 1.08 0.33 0.18 0.68 0.36 1.08 0.54 0.2 0.07 0.67 0.31 1.07 0.44l0.09 0 0.12 0.52a2.93 2.93 0 0 0 -0.41 0.07 1.63 1.63 0 0 0 -0.34 0.14 1.49 1.49 0 0 0 -0.31 0.2c-1 0.71 -1 0.93 -0.84 1.14s0.2 0.29 1.38 0a2.06 2.06 0 0 0 0.35 -0.12 1.81 1.81 0 0 0 0.33 -0.2 2.69 2.69 0 0 0 0.37 -0.39 2 2 0 0 0 0.35 0.36 1 1 0 0 0 0.23 0.13 1 1 0 0 0 0.25 0.05c1 0.15 1.08 0 1.15 -0.16s0.13 -0.36 -0.68 -1a0.79 0.79 0 0 0 -0.23 -0.14 0.84 0.84 0 0 0 -0.26 -0.07 2.1 2.1 0 0 0 -0.44 0c0 -0.18 0.08 -0.36 0.11 -0.54a6.68 6.68 0 0 0 1 -0.33 15 15 0 0 0 1.95 -1l1.25 -0.83c0 0.33 -0.09 0.66 -0.12 1s0 0.67 0 1 0 0.67 0.05 1c0 0.48 0.09 0.94 0.14 1.41a0.86 0.86 0 0 0 -0.13 -0.14l-0.29 -0.2a1.24 1.24 0 0 0 -0.32 -0.12c-0.11 0 -1.16 -0.22 -1.3 0.09 0 0.1 -0.18 0.29 0.75 1a1.53 1.53 0 0 0 0.27 0.17 1.66 1.66 0 0 0 0.31 0.12l0.1 0Z" fill="#4C57E6" fill-rule="evenodd" stroke-width="1"></path>
  </g>
</svg>