<svg xmlns="http://www.w3.org/2000/svg" viewBox="0 0 24 24" id="Desktop-Action-Monitor-Upload--Streamline-Freehand">
  <desc>
    Desktop Action Monitor Upload Streamline Icon: https://streamlinehq.com
  </desc>
  <g>
    <path d="M11.1 4.08a6.39 6.39 0 0 0 -2.32 1.15A5.47 5.47 0 0 0 10.26 15a5.7 5.7 0 0 0 7.4 -5.4c0.08 -2.87 -2.5 -5.38 -4.42 -5.39a0.3 0.3 0 0 0 0 0.6c1.56 0.07 3.7 2.34 3.52 4.74a4.82 4.82 0 0 1 -6.13 4.37C7.09 12.84 6 8.5 9.25 5.83a5.56 5.56 0 0 1 2 -1.09 0.34 0.34 0 0 0 -0.15 -0.66Z" fill="#4C57E6" fill-rule="evenodd" stroke-width="1"></path>
    <path d="M12 12c0.1 0.44 0 0.66 0.29 0.72 0.52 0.1 0.42 -0.86 0.46 -1.49a8 8 0 0 0 -0.12 -2.32 5.06 5.06 0 0 0 0 -0.81A5.67 5.67 0 0 1 14 9.72a0.3 0.3 0 1 0 0.54 -0.24 6.3 6.3 0 0 0 -1.34 -2.27c-0.46 -0.43 -1.25 -0.77 -1.78 -0.4a1.72 1.72 0 0 0 -0.52 0.68 6.8 6.8 0 0 0 -0.81 2 1.17 1.17 0 0 0 -0.09 0.41 0.34 0.34 0 0 0 0.68 0 5 5 0 0 1 1 -1.7A7.43 7.43 0 0 0 12 12Z" fill="#020202" fill-rule="evenodd" stroke-width="1"></path>
    <path d="M23.64 5.8c-0.13 -1.09 -0.07 -3.27 -0.92 -3.87C20.82 0.57 16.66 0.94 13.91 0.84c-3.5 -0.12 -7.15 0.16 -10.62 0.25a0.34 0.34 0 1 0 0 0.67c3.45 0 7.06 -0.26 10.58 -0.08 2.43 0.13 6.68 -0.13 8.26 1 0.39 0.29 0.39 2.44 0.47 3.2a34.85 34.85 0 0 1 0.07 8.1 11.87 11.87 0 0 1 -0.44 2.64c-2.49 1.26 -19.73 2.21 -20.75 0.56a17.26 17.26 0 0 1 -0.64 -4.15 58.41 58.41 0 0 1 0.6 -10.88 0.3 0.3 0 0 0 -0.44 -0.4C0.61 2.14 0.69 3.38 0.62 3.82A43.55 43.55 0 0 0 0.11 14a13.89 13.89 0 0 0 0.61 3.68c0.83 1.41 6.3 1.46 8 1.47a4.32 4.32 0 0 0 -0.89 3c-0.77 0 -1.49 0.12 -2.16 0.15a0.3 0.3 0 0 0 0 0.6c2 0.07 3.52 0.27 6 0.25s4 -0.23 6.07 -0.38a0.34 0.34 0 1 0 0 -0.67l-1.84 0a8.72 8.72 0 0 0 -1 -3.15c1.34 -0.1 7.55 -0.53 8.29 -1.63a8.68 8.68 0 0 0 0.64 -3.16 33.53 33.53 0 0 0 -0.19 -8.36Zm-8.52 16.3c-2.73 -0.06 -4.18 -0.09 -6.55 0 0.16 -0.39 0.4 -0.91 0.52 -1.29a12.27 12.27 0 0 0 0.29 -1.65c0 -0.14 -0.32 0.12 4.68 -0.19a6.72 6.72 0 0 0 1.06 3.13Z" fill="#020202" fill-rule="evenodd" stroke-width="1"></path>
  </g>
</svg>