<svg xmlns="http://www.w3.org/2000/svg" viewBox="0 0 24 24" id="Desktop-Computer--Streamline-Freehand">
  <desc>
    Desktop Computer Streamline Icon: https://streamlinehq.com
  </desc>
  <g>
    <path d="M22.77 1.28A1.1 1.1 0 0 0 22 0.61C19 -0.37 4.44 -0.06 3.25 0.8a0.34 0.34 0 0 0 0.39 0.56C4.73 0.6 18 0.67 21.33 1.47c0.2 0.06 0.38 0.22 0.48 0.22 0.55 2.67 0.63 2.92 -0.07 9.92 -10.23 -0.29 -12.44 -0.35 -18.23 -0.17 -1.15 -0.06 -1.16 -0.19 -1.33 0 -0.07 -0.67 -0.16 -3.63 -0.1 -5.59 0.1 -3.45 0.52 -3.77 0 -3.85a0.31 0.31 0 0 0 -0.34 0.26 51.69 51.69 0 0 0 -0.39 8.91 8.48 8.48 0 0 0 0.78 3.46c0.91 1.25 16.44 1 18.71 0.85 0.56 -0.05 1.26 -0.07 1.43 -0.57a20.44 20.44 0 0 0 0.7 -4.55c0.37 -4.81 0.69 -5.19 -0.2 -9.08Zm-1.51 13.06c-2.62 0.2 -15.88 0.4 -18.46 -0.29a8.12 8.12 0 0 1 -0.57 -2.19c0.13 0.11 0.25 0.14 1.22 0.25a134.47 134.47 0 0 0 18.21 0.19 12.91 12.91 0 0 1 -0.4 2.04Z" fill="#020202" fill-rule="evenodd" stroke-width="1"></path>
    <path d="M19.76 17c-0.67 -0.33 -13.11 -0.18 -13.88 -0.17a0.34 0.34 0 0 0 0 0.68c1.27 0 12.17 0.19 13.3 0.36 0.05 0.13 0.28 0.43 0.43 0.77A24.89 24.89 0 0 1 21 22.71c-1.73 0.2 -15.23 0.25 -18.71 0 -0.38 0 -0.72 -0.19 -0.89 -0.19 0.12 -1.17 2.58 -4.74 2.8 -4.86a0.3 0.3 0 0 0 -0.28 -0.53 22.05 22.05 0 0 0 -2.7 3.77A3.11 3.11 0 0 0 0.71 23c0.13 0.33 0.65 0.39 1.1 0.46 3.9 0.55 19 0.78 20 0.26a0.69 0.69 0 0 0 0.36 -0.5c0.19 -1.03 -1.78 -5.97 -2.41 -6.22Z" fill="#020202" fill-rule="evenodd" stroke-width="1"></path>
    <path d="M7.48 21.8c5 0.55 5.52 0 7.77 0.1a0.34 0.34 0 0 0 0.06 -0.68 26.46 26.46 0 0 0 -7.81 0 0.3 0.3 0 0 0 -0.02 0.58Z" fill="#4C57E6" fill-rule="evenodd" stroke-width="1"></path>
    <path d="M18.09 21c-0.35 0 -1.3 0.29 -1.3 0.58 0 0.58 1.54 0.55 2.3 0.34a0.34 0.34 0 0 0 0.34 -0.34c0 -0.4 -1.07 -0.58 -1.34 -0.58Z" fill="#4C57E6" fill-rule="evenodd" stroke-width="1"></path>
    <path d="M4.79 21c-0.36 0 -1.3 0.29 -1.3 0.58 0 0.58 1.54 0.55 2.3 0.34a0.35 0.35 0 0 0 0.34 -0.34c0 -0.4 -1.07 -0.58 -1.34 -0.58Z" fill="#4C57E6" fill-rule="evenodd" stroke-width="1"></path>
    <path d="M17.38 18.82c-0.35 0 -1.3 0.29 -1.3 0.58 0 0.58 1.54 0.55 2.3 0.33a0.34 0.34 0 0 0 0.34 -0.34c0 -0.39 -1.07 -0.57 -1.34 -0.57Z" fill="#4C57E6" fill-rule="evenodd" stroke-width="1"></path>
    <path d="M13.59 18.82c-0.35 0 -1.3 0.29 -1.3 0.58 0 0.58 1.54 0.55 2.3 0.33a0.34 0.34 0 0 0 0.34 -0.34c0 -0.39 -1.07 -0.57 -1.34 -0.57Z" fill="#4C57E6" fill-rule="evenodd" stroke-width="1"></path>
    <path d="M9.8 18.82c-0.35 0 -1.3 0.29 -1.3 0.58 0 0.58 1.54 0.55 2.3 0.33a0.34 0.34 0 0 0 0.34 -0.34c0 -0.39 -1.07 -0.57 -1.34 -0.57Z" fill="#4C57E6" fill-rule="evenodd" stroke-width="1"></path>
    <path d="M6 18.82c-0.35 0 -1.3 0.29 -1.3 0.58 0 0.58 1.54 0.55 2.3 0.33a0.34 0.34 0 0 0 0.34 -0.34c0.01 -0.39 -1.06 -0.57 -1.34 -0.57Z" fill="#4C57E6" fill-rule="evenodd" stroke-width="1"></path>
  </g>
</svg>