<svg xmlns="http://www.w3.org/2000/svg" viewBox="0 0 24 24" id="Diagram-Dash-Circle--Streamline-Freehand">
  <desc>
    Diagram Dash Circle Streamline Icon: https://streamlinehq.com
  </desc>
  <g>
    <path d="M3.26 12.87c0.59 0.3 1.19 0.5 1.76 0.77a4.76 4.76 0 0 1 0.67 0.35s0.13 0.19 0.21 0.26a0.43 0.43 0 0 0 0.42 0.4 0.57 0.57 0 0 0 0.36 -0.12 0.47 0.47 0 0 0 0.15 -0.53 2.24 2.24 0 0 0 -0.57 -0.8 5.24 5.24 0 0 0 -0.71 -0.53c-0.51 -0.34 -1.06 -0.62 -1.59 -1a5.63 5.63 0 0 0 -1 -0.67 0.8 0.8 0 0 0 -0.78 0.2 7.19 7.19 0 0 0 -0.87 1.13c-0.34 0.56 -0.61 1.19 -0.91 1.75 -0.11 0.2 -0.42 0.85 -0.54 1.12a0.39 0.39 0 0 0 0.58 0.51 0.31 0.31 0 0 0 0 -0.1c0.15 -0.23 0.55 -0.78 0.68 -0.95l1.78 -2.15c0.16 0.15 0.31 0.33 0.36 0.36Zm-0.72 -0.48c0 -0.1 0.15 -0.06 0.27 0 -0.18 0.12 -0.34 0.15 -0.27 0Z" fill="#020202" stroke-width="1"></path>
    <path d="M4 14.52c-0.06 -0.1 -0.16 -0.16 -0.2 -0.25s-0.07 -0.43 -0.23 -0.38a0.32 0.32 0 0 0 0 -0.14 0.36 0.36 0 0 0 -0.35 -0.38c-0.18 -0.06 -0.27 0.08 -0.4 0.18s-0.16 0.78 -0.18 0.9a1.51 1.51 0 0 0 0.06 0.58 1.28 1.28 0 0 0 0.18 0.44 6.07 6.07 0 0 0 0.46 0.61c0.08 0.13 0.19 0.2 0.22 0.3a0.42 0.42 0 0 0 0.83 0 2.52 2.52 0 0 0 -0.17 -1.31 3.15 3.15 0 0 0 -0.22 -0.55Z" fill="#020202" stroke-width="1"></path>
    <path d="M7.71 20.21c-0.22 0 -0.45 -0.39 -0.8 -0.7s-0.41 -0.38 -0.62 -0.54 -0.6 -0.35 -0.79 -0.53 -0.19 -0.12 -0.22 -0.19a0.37 0.37 0 0 0 -0.73 0.12 2.68 2.68 0 0 0 0.67 1.47 2.5 2.5 0 0 0 0.43 0.43 2.83 2.83 0 0 0 0.51 0.34 2.91 2.91 0 0 0 1.55 0.44 0.42 0.42 0 0 0 0 -0.84Z" fill="#4C57E6" stroke-width="1"></path>
    <path d="M14.6 22c-0.5 -0.08 -1 -0.17 -1.58 -0.22l-0.82 -0.07a4.36 4.36 0 0 1 -0.51 0c-0.11 0 -0.76 -0.34 -0.82 -0.14a0.37 0.37 0 0 0 -0.52 0.06c-0.1 0.08 -0.15 0.35 0.15 0.63s0.66 0.45 0.77 0.53A2.88 2.88 0 0 0 12 23a2.84 2.84 0 0 0 0.72 0.09 14.39 14.39 0 0 0 1.93 -0.32 0.42 0.42 0 1 0 0 -0.84Z" fill="#4C57E6" stroke-width="1"></path>
    <path d="M21.61 18c-0.49 0.36 -0.95 0.72 -1.41 1.12l-0.73 0.65c-0.16 0.15 -0.29 0.31 -0.46 0.46a0.5 0.5 0 0 1 -0.13 0.12 3.76 3.76 0 0 0 -0.89 0.36 0.37 0.37 0 0 0 0.36 0.64 3.19 3.19 0 0 1 0.75 0 1.72 1.72 0 0 0 0.54 -0.14 3.87 3.87 0 0 0 0.7 -0.37 3.23 3.23 0 0 0 0.59 -0.51c0.5 -0.55 0.83 -1.18 1.27 -1.76a0.42 0.42 0 0 0 0 -0.59 0.41 0.41 0 0 0 -0.59 0.02Z" fill="#4C57E6" stroke-width="1"></path>
    <path d="M24.23 13.61c-0.06 -0.47 -0.23 -0.9 -0.31 -1.33a0.42 0.42 0 1 0 -0.84 0c-0.08 0.44 -0.16 0.88 -0.2 1.35a6.16 6.16 0 0 1 -0.06 0.76 8.23 8.23 0 0 0 0 1.2 1 1 0 0 0 0.16 0.47 0.37 0.37 0 0 0 0.5 0.13 0.36 0.36 0 0 0 0.14 -0.5l0.54 -1.07a3.77 3.77 0 0 0 0.07 -1.01Z" fill="#4C57E6" stroke-width="1"></path>
    <path d="M23 10.24a0.36 0.36 0 0 0 0.17 -0.49c-0.1 -0.41 -0.07 -0.86 -0.17 -1.34a3.6 3.6 0 0 0 -0.3 -0.91 3.53 3.53 0 0 0 -1.13 -1.36 0.42 0.42 0 0 0 -0.59 0 0.43 0.43 0 0 0 0 0.6 3.81 3.81 0 0 1 0.4 1.12 6.18 6.18 0 0 0 0.27 0.83 6.3 6.3 0 0 0 0.86 1.39 0.36 0.36 0 0 0 0.49 0.16Z" fill="#4C57E6" stroke-width="1"></path>
    <path d="M18.39 3.88a2.44 2.44 0 0 0 0.37 0.3 2.3 2.3 0 0 0 0.29 0.16c0.25 0.11 0.65 0.54 0.79 0.54s0.48 0 0.5 -0.33a0.38 0.38 0 0 0 -0.13 -0.41c0 -0.08 -0.1 -0.28 -0.14 -0.43a1.44 1.44 0 0 0 -0.2 -0.33 3.54 3.54 0 0 0 -0.36 -0.4 2.55 2.55 0 0 0 -0.51 -0.31 2.36 2.36 0 0 0 -1.32 -0.35 0.42 0.42 0 1 0 0 0.83c0.05 0 0.07 0.1 0.13 0.15s0.38 0.39 0.58 0.58Z" fill="#4C57E6" stroke-width="1"></path>
    <path d="M15.84 1.68c0.13 -0.11 -0.25 -0.33 -0.35 -0.42a1.54 1.54 0 0 0 -0.8 -0.33 4.64 4.64 0 0 0 -0.93 0l-1.17 0.25c-1 -0.11 -1.44 0.15 -1.17 0.42 -0.27 0.27 0.18 0.52 1.17 0.42l1.17 0.25a6.4 6.4 0 0 0 0.76 0c0.12 0 0.24 -0.06 0.35 -0.07s0.11 0 0.16 0 0.33 0.16 0.46 0.18a0.5 0.5 0 0 0 0.25 0A0.38 0.38 0 0 0 16.1 2a0.35 0.35 0 0 0 -0.26 -0.32Z" fill="#4C57E6" stroke-width="1"></path>
  </g>
</svg>