<svg xmlns="http://www.w3.org/2000/svg" viewBox="0 0 24 24" id="Diagram-Dash-Fast-Up--Streamline-Freehand">
  <desc>
    Diagram Dash Fast Up Streamline Icon: https://streamlinehq.com
  </desc>
  <g>
    <path d="M3.72 20.45a4.1 4.1 0 0 0 -0.72 -0.14c-0.17 0 -0.33 -0.08 -0.51 -0.1a3 3 0 0 0 -0.52 0 5.82 5.82 0 0 0 -0.73 0.09 3.18 3.18 0 0 0 -0.76 0.32 0.13 0.13 0 0 0 -0.08 0.07c-0.62 0.46 -0.16 0.83 0.33 0.5a2.09 2.09 0 0 1 0.54 0c0.14 0 0.27 0.08 0.42 0.1a3.13 3.13 0 0 0 0.43 0 6.84 6.84 0 0 0 0.88 -0.04s0.54 0 0.58 -0.11a0.35 0.35 0 0 0 0.42 -0.31c0 -0.13 0 -0.27 -0.28 -0.38Z" fill="#4C57E6" stroke-width="1"></path>
    <path d="M8.56 20.9a9 9 0 0 0 -1.16 -0.18h-0.65c-0.35 0 -0.64 0.16 -0.83 0.07a0.29 0.29 0 0 0 -0.42 0 0.3 0.3 0 0 0 0 0.42 2 2 0 0 0 1.28 0.61 3 3 0 0 0 0.73 0c0.42 -0.06 0.77 -0.19 1 -0.24a0.35 0.35 0 0 0 0 -0.69Z" fill="#4C57E6" stroke-width="1"></path>
    <path d="M14.91 18.72a7.69 7.69 0 0 0 -0.91 1.21 1.5 1.5 0 0 1 -0.35 0.31 6.37 6.37 0 0 1 -0.66 0.4 5.66 5.66 0 0 1 -1 0.52 4 4 0 0 1 -0.85 0.05 1.7 1.7 0 0 0 -0.34 0.07 0.31 0.31 0 0 0 0.19 0.58c0.25 -0.05 0.54 0.13 0.83 0.19a2 2 0 0 0 0.35 0 4.51 4.51 0 0 0 1.19 -0.3 4.2 4.2 0 0 0 1 -0.65 2.29 2.29 0 0 0 0.48 -0.64 7.1 7.1 0 0 1 0.61 -1.27 0.34 0.34 0 0 0 0 -0.48 0.36 0.36 0 0 0 -0.54 0.01Z" fill="#4C57E6" stroke-width="1"></path>
    <path d="M17.65 13.89a0.34 0.34 0 0 0 -0.34 0.34 2 2 0 0 1 -0.41 0.65c-0.11 0.17 -0.24 0.33 -0.35 0.51a3.14 3.14 0 0 0 -0.29 0.68l-0.09 0.72c-0.06 0 -0.11 0.25 -0.12 0.32s0 0.28 0.06 0.33a0.28 0.28 0 0 0 0.43 0 0.34 0.34 0 0 0 0.12 -0.12c0.08 0 0.19 -0.23 0.19 -0.23l0.42 -0.68c0.07 -0.15 0.19 -0.32 0.29 -0.52a4.47 4.47 0 0 0 0.25 -0.64 2.29 2.29 0 0 0 0.19 -1.02 0.34 0.34 0 0 0 -0.35 -0.34Z" fill="#4C57E6" stroke-width="1"></path>
    <path d="M18.64 12.72Z" fill="#4C57E6" stroke-width="1"></path>
    <path d="M19.84 8.92a0.33 0.33 0 0 0 -0.38 0 0.46 0.46 0 0 0 -0.17 0.19l-0.14 0.31 -0.32 0.62c-0.07 0.16 -0.16 0.32 -0.24 0.49a4.15 4.15 0 0 0 -0.2 0.53 7.25 7.25 0 0 0 -0.17 0.78c0 0.08 -0.1 0.49 -0.14 0.66s0 0.09 0 0.11l0 0.19c0 0.02 0.19 0.24 0.34 0.18a0.22 0.22 0 0 0 0.17 -0.1 0.3 0.3 0 0 0 0.06 -0.11 0.37 0.37 0 0 0 0 -0.11 0.31 0.31 0 0 0 0 0.08c0.1 -0.16 0.34 -0.51 0.38 -0.59s0.21 -0.31 0.31 -0.49a2.21 2.21 0 0 0 0.16 -0.35 6.07 6.07 0 0 0 0.27 -1l0.1 -0.64c0 -0.05 0.09 -0.26 0.05 -0.3a0.51 0.51 0 0 0 0 -0.13 0.31 0.31 0 0 0 -0.08 -0.32Zm-1.52 3.43Zm0.22 0.06a0.2 0.2 0 0 1 0.1 0.17 0.33 0.33 0 0 0 -0.1 -0.17Z" fill="#4C57E6" stroke-width="1"></path>
    <path d="M20.42 7.35c0.14 0 0.11 0 0 -0.06Z" fill="#020202" stroke-width="1"></path>
    <path d="M23.84 5.5c-0.21 -0.68 -0.62 -1.36 -0.84 -1.95 -0.07 -0.17 -0.15 -0.72 -0.28 -1A1 1 0 0 0 22.3 2a0.67 0.67 0 0 0 -0.45 0 7.24 7.24 0 0 0 -0.87 0.36 6 6 0 0 0 -0.69 0.42c-0.47 0.33 -0.88 0.7 -1.38 1l-0.61 0.42c-0.15 0.11 -0.31 0.27 -0.29 0.33a0.28 0.28 0 0 0 -0.06 0.25 0.3 0.3 0 0 0 0.13 0.19 0.3 0.3 0 0 0 0.44 -0.09 0.23 0.23 0 0 1 0.11 -0.12l0.63 -0.3 1.8 -0.88c-0.08 0.23 -0.13 0.48 -0.16 0.54s-0.2 0.38 -0.3 0.59 -0.18 0.4 -0.26 0.61 -0.18 0.57 -0.28 0.85c0 0.13 -0.17 0.73 -0.21 1a0.49 0.49 0 0 0 0 0.12 0.4 0.4 0 0 0 0 0.18c0.11 0.2 0.23 0.28 0.41 0.17a0.3 0.3 0 0 0 0.17 -0.21 0.13 0.13 0 0 0 0 -0.06c0.11 -0.21 0.38 -0.68 0.46 -0.79a10 10 0 0 0 0.58 -1 7.73 7.73 0 0 0 0.37 -1.12c0 -0.08 0.07 -0.34 0.13 -0.61A1.18 1.18 0 0 0 22 4c0.3 0.55 0.79 1.15 1.08 1.79a2.07 2.07 0 0 1 0.21 0.74 0.35 0.35 0 0 0 0.69 0 2.79 2.79 0 0 0 -0.14 -1.03ZM18.3 4.37a0.27 0.27 0 0 1 0.2 0.13 0.39 0.39 0 0 0 -0.2 -0.13Zm3.48 -1Zm0 0Zm0 0Z" fill="#020202" stroke-width="1"></path>
  </g>
</svg>