<svg xmlns="http://www.w3.org/2000/svg" viewBox="0 0 24 24" id="Diagram-Lower-Steady--Streamline-Freehand">
  <desc>
    Diagram Lower Steady Streamline Icon: https://streamlinehq.com
  </desc>
  <g>
    <path d="M21.73 7.19a0.42 0.42 0 0 0 -0.42 -0.42c-1.44 0 -2.9 -0.06 -4.39 0A23.38 23.38 0 0 0 14 7a12.65 12.65 0 0 0 -2.13 0.39 3.58 3.58 0 0 0 -1.38 0.85 2.84 2.84 0 0 0 -0.69 1.31 13 13 0 0 0 -0.2 2.89c0 2 0.39 4.27 0 6.23a4 4 0 0 1 -1.91 2.95A5.06 5.06 0 0 1 4 22a2.91 2.91 0 0 1 -2.4 -2.18 35.89 35.89 0 0 1 -0.37 -5.54c0 -2.86 0.23 -5.75 0.41 -8.45 0.06 -0.94 -0.14 -2.36 -0.09 -3.57A3.55 3.55 0 0 1 1.81 0.92a0.37 0.37 0 0 0 -0.67 -0.33 4.49 4.49 0 0 0 -0.38 1.62c-0.09 1.2 0.07 2.61 0 3.55 -0.29 2.71 -0.63 5.62 -0.76 8.5A36.55 36.55 0 0 0 0.24 20a3.94 3.94 0 0 0 2.52 3.1 6.61 6.61 0 0 0 5.66 -0.24A5.33 5.33 0 0 0 11 18.93c0.33 -2 -0.14 -4.43 -0.17 -6.47a16.09 16.09 0 0 1 0 -2.28 1.94 1.94 0 0 1 0.42 -1.12 2.44 2.44 0 0 1 0.94 -0.62A11.64 11.64 0 0 1 14.13 8 21.7 21.7 0 0 1 17 7.71c1.47 -0.09 2.91 -0.08 4.34 -0.09a0.42 0.42 0 0 0 0.39 -0.43Z" fill="#020202" stroke-width="1"></path>
    <path d="M23.75 6.82a11.15 11.15 0 0 0 -1 -0.8c-0.5 -0.35 -1 -0.65 -1.54 -1 -0.22 -0.13 -0.91 -0.6 -1.19 -0.78 -0.58 -0.37 -0.81 0.31 -0.63 0.48l0.11 0.08 1.05 1 1.75 1.62a6 6 0 0 0 -0.68 0.66c-0.45 0.5 -0.83 1.07 -1.26 1.57l-0.8 1.07c0 0.07 -0.22 0.24 -0.21 0.32a0.39 0.39 0 0 0 -0.16 0.33 0.4 0.4 0 0 0 0.3 0.42 0.46 0.46 0 0 0 0.44 -0.11 3.5 3.5 0 0 0 0.39 -0.46l0.81 -0.8 2 -1.89a3.29 3.29 0 0 0 0.74 -0.73 0.81 0.81 0 0 0 -0.12 -0.98Zm-3.9 4.25a0.37 0.37 0 0 1 0.15 0.32 0.42 0.42 0 0 0 -0.15 -0.32Zm2.67 -3.76c0 -0.16 0 -0.27 0.12 -0.17s-0.01 0.12 -0.12 0.17Z" fill="#020202" stroke-width="1"></path>
  </g>
</svg>