<svg xmlns="http://www.w3.org/2000/svg" viewBox="0 0 24 24" id="Diagram-Curve-Up--Streamline-Freehand">
  <desc>
    Diagram Curve Up Streamline Icon: https://streamlinehq.com
  </desc>
  <path d="M23.82 6.93a10.61 10.61 0 0 0 -1 -0.91c-0.21 -0.19 -0.73 -0.62 -1.3 -1.08s-1.05 -1.11 -1.4 -1.4a0.36 0.36 0 0 0 -0.24 -0.44 0.77 0.77 0 0 0 -0.61 0c-0.21 0.09 -0.31 0.28 -0.23 0.6A11.52 11.52 0 0 0 20.93 6a18.62 18.62 0 0 0 -5.76 0.54 4 4 0 0 0 -2.41 1.83 4.79 4.79 0 0 0 -0.47 1.63c-0.13 1.17 0.07 2.43 0 3.56 -0.21 2.29 -0.8 5 -2.29 6.75a4.32 4.32 0 0 1 -4 1.52c-1.92 -0.18 -3 -1.51 -3.73 -3.19 -1.1 -2.64 -1.17 -6.31 -1.21 -8.52L1 7C1 6.25 0.76 4.31 0.85 2.82a2.72 2.72 0 0 1 0.36 -1.49 0.37 0.37 0 0 0 -0.55 -0.5 3.51 3.51 0 0 0 -0.6 1.93C-0.08 4.26 0.08 6.24 0.07 7L0 10.12c0 2.33 -0.1 6.17 1 9.05a5.76 5.76 0 0 0 4.84 4.09 5.65 5.65 0 0 0 5.16 -2c1.63 -1.94 2.27 -5 2.45 -7.56 0.08 -1.12 -0.16 -2.38 -0.07 -3.55a3.71 3.71 0 0 1 0.32 -1.28 3.57 3.57 0 0 1 2.58 -1.61 24.64 24.64 0 0 1 5.29 -0.4l0.09 0 0.17 0.19c0.05 0 0.37 0.22 0.6 0.39a2.11 2.11 0 0 0 -0.72 0.22 8.58 8.58 0 0 0 -0.85 1c-0.54 0.72 -1 1.52 -1.58 2.2a0.4 0.4 0 0 0 0 0.59 0.42 0.42 0 0 0 0.59 0c0.69 -0.61 1.25 -1.36 1.89 -2a6.68 6.68 0 0 1 0.8 -0.7c0.09 -0.07 0.25 -0.06 0.38 -0.09a1.83 1.83 0 0 0 0.66 -0.3 0.94 0.94 0 0 0 0.4 -0.89 0.93 0.93 0 0 0 -0.18 -0.54Zm-1.15 0.82c-0.09 0.07 -0.08 -0.13 -0.07 -0.23 0.1 0.09 0.15 0.18 0.07 0.23Zm-0.06 -0.39c0 -0.14 0.1 -0.31 0.15 -0.21s-0.02 0.17 -0.15 0.21Z" fill="#020202" fill-rule="evenodd" stroke-width="1"></path>
</svg>