<svg xmlns="http://www.w3.org/2000/svg" viewBox="0 0 24 24" id="Diagram-Arrow-Dash-Up--Streamline-Freehand">
  <desc>
    Diagram Arrow Dash Up Streamline Icon: https://streamlinehq.com
  </desc>
  <g>
    <path d="M18.8 21.73c-1.3 -0.07 -3.07 -0.16 -5 -0.22l-2.13 0 -2.13 0c-1.93 0.06 -3.71 0.18 -4.95 0.19a0.32 0.32 0 1 0 0 0.64c1.39 0.13 3.47 0.32 5.69 0.37l3.41 0c2 -0.06 3.78 -0.18 5.11 -0.21a0.37 0.37 0 0 0 0.37 -0.36 0.38 0.38 0 0 0 -0.37 -0.41Z" fill="#020202" stroke-width="1"></path>
    <path d="M23.68 21.87a4.84 4.84 0 0 0 -1 -0.23 2.6 2.6 0 0 0 -0.4 0 2.31 2.31 0 0 0 -0.37 0 3.57 3.57 0 0 1 -0.79 0.15 0.31 0.31 0 0 0 -0.43 0.15 0.31 0.31 0 0 0 0.16 0.43 2.17 2.17 0 0 0 1.17 0.47 2.42 2.42 0 0 0 0.66 0c0.36 -0.05 0.65 -0.18 0.89 -0.2a0.39 0.39 0 0 0 0.42 -0.32 0.38 0.38 0 0 0 -0.31 -0.45Z" fill="#4C57E6" stroke-width="1"></path>
    <path d="M3.1 21.87a5 5 0 0 0 -1 -0.23 2.56 2.56 0 0 0 -0.39 0 2.34 2.34 0 0 0 -0.38 0 3.47 3.47 0 0 1 -0.79 0.15 0.32 0.32 0 0 0 -0.43 0.15 0.33 0.33 0 0 0 0.16 0.43 2.24 2.24 0 0 0 1.18 0.47 2.47 2.47 0 0 0 0.66 0c0.35 -0.05 0.64 -0.18 0.89 -0.2a0.38 0.38 0 0 0 0.41 -0.32 0.36 0.36 0 0 0 -0.31 -0.45Z" fill="#4C57E6" stroke-width="1"></path>
    <path d="M20.77 18.18a2.24 2.24 0 0 0 1.18 0.47 2.42 2.42 0 0 0 0.66 0c0.35 -0.05 0.65 -0.18 0.89 -0.2a0.37 0.37 0 0 0 0.41 -0.32 0.36 0.36 0 0 0 -0.31 -0.41 5 5 0 0 0 -1 -0.23 2.56 2.56 0 0 0 -0.39 0 2.22 2.22 0 0 0 -0.37 0 3.54 3.54 0 0 1 -0.8 0.15 0.31 0.31 0 0 0 -0.42 0.15 0.31 0.31 0 0 0 0.15 0.39Z" fill="#4C57E6" stroke-width="1"></path>
    <path d="M0.19 18.18a2.21 2.21 0 0 0 1.18 0.47 2.47 2.47 0 0 0 0.66 0c0.35 -0.05 0.64 -0.18 0.89 -0.2a0.38 0.38 0 0 0 0.41 -0.32 0.36 0.36 0 0 0 -0.33 -0.45 5 5 0 0 0 -1 -0.23 2.6 2.6 0 0 0 -0.4 0 2.31 2.31 0 0 0 -0.37 0 3.57 3.57 0 0 1 -0.79 0.15 0.32 0.32 0 0 0 -0.43 0.15 0.33 0.33 0 0 0 0.18 0.43Z" fill="#4C57E6" stroke-width="1"></path>
    <path d="m19.25 17.49 -3.05 0a12.07 12.07 0 0 1 -1.56 -0.1l-0.16 0 -0.15 -1a8.78 8.78 0 0 1 -0.2 -1.49c-0.09 -1.22 0 -2.52 -0.14 -3.7 0 -0.16 0.2 -1.3 -0.05 -1.63a18.62 18.62 0 0 1 2 -0.09A4.19 4.19 0 0 0 17.85 9c0.53 -0.38 0.78 -1.16 -0.6 -2.33l-1.17 -1c-0.28 -0.33 -0.55 -0.66 -0.84 -1A8 8 0 0 0 14.6 4c-0.55 -0.49 -1.19 -1.41 -1.89 -2a3.22 3.22 0 0 0 -1.27 -0.74 1.79 1.79 0 0 0 -1.62 0.37 5.48 5.48 0 0 0 -1.14 1.54 6.71 6.71 0 0 1 -0.6 0.9c-0.56 0.74 -1.21 1.42 -1.75 2.15a15.83 15.83 0 0 0 -1.17 1.69 0.73 0.73 0 0 0 0.07 0.85 2 2 0 0 0 1 0.49 13.93 13.93 0 0 0 2 0.09 1.44 1.44 0 0 1 0.75 0.15c-0.27 0.14 0 1 0 1.29l0 3c0 0.42 0.09 1.13 0.09 1.78a2.46 2.46 0 0 1 -0.14 1c-0.08 0.16 -0.14 0.44 -0.25 0.68 0 0.08 0 0.16 -0.11 0.19a2.7 2.7 0 0 1 -1.1 0.2c-1 0 -2.27 -0.19 -3 -0.19a0.33 0.33 0 0 0 0 0.65c0.74 0 2 0.25 3 0.26a3.5 3.5 0 0 0 1.43 -0.24 1 1 0 0 0 0.41 -0.41c0.15 -0.25 0.23 -0.6 0.33 -0.79a2.84 2.84 0 0 0 0.24 -1c0.06 -0.73 0 -1.61 0 -2.11l0 -3A10.81 10.81 0 0 0 10 9.43a1 1 0 0 0 -0.24 -0.6 1.79 1.79 0 0 0 -1 -0.48 10.71 10.71 0 0 0 -1.65 -0.11 2 2 0 0 1 -0.93 -0.16 6.9 6.9 0 0 1 1.1 -1.15c0.54 -0.72 1.2 -1.39 1.77 -2.11a8.09 8.09 0 0 0 0.7 -1.06 5.66 5.66 0 0 1 0.7 -1.08 0.69 0.69 0 0 1 0.69 -0.27 1.78 1.78 0 0 1 0.75 0.46c0.7 0.62 1.34 1.53 1.89 2l1.41 1.53a6.26 6.26 0 0 0 0.52 0.51c0.26 0.23 0.53 0.43 0.79 0.65a2.32 2.32 0 0 1 0.43 0.53 0.88 0.88 0 0 1 -0.28 0.12 24 24 0 0 0 -3.46 0.42 1 1 0 0 0 -0.42 0.83 11.18 11.18 0 0 0 0.23 1.78c0.13 1.17 0.11 2.46 0.22 3.67a9.24 9.24 0 0 0 0.27 1.63c0.07 0.27 0 0.61 0.12 0.88a1.1 1.1 0 0 0 0.28 0.56 2.52 2.52 0 0 0 1.26 0.29c1.4 0.08 3.79 -0.05 4.1 -0.05a0.37 0.37 0 0 0 0 -0.73ZM6.18 8.41c-0.1 -0.05 -0.09 -0.15 0 -0.27s0.1 0.31 0 0.27Z" fill="#020202" stroke-width="1"></path>
  </g>
</svg>