<svg xmlns="http://www.w3.org/2000/svg" viewBox="0 0 24 24" id="Diagram-Dash-Rise-Steady--Streamline-Freehand">
  <desc>
    Diagram Dash Rise Steady Streamline Icon: https://streamlinehq.com
  </desc>
  <g>
    <path d="M3.15 17.48a4.44 4.44 0 0 0 -1 -0.12 1.86 1.86 0 0 0 -0.33 0 1.29 1.29 0 0 0 -0.21 0.06l-0.62 0.2H1c-1.12 -0.31 -1.12 0 -0.67 0.31 -0.45 0.3 -0.45 0.61 0.67 0.31l0.62 0.2a1.54 1.54 0 0 0 0.3 0 1.51 1.51 0 0 0 0.41 -0.06c0.3 -0.08 0.54 -0.24 0.85 -0.32a0.34 0.34 0 0 0 0 -0.68Z" fill="#4C57E6" stroke-width="1"></path>
    <path d="M6.84 17.56a5 5 0 0 0 -0.84 -0.22 4.87 4.87 0 0 0 -0.54 0c-0.16 0.06 -0.61 0.14 -0.61 0.24h-0.09a0.25 0.25 0 0 0 -0.22 0.15c-0.1 0.08 -0.11 0.32 0.26 0.49 0.1 0.05 0.5 0.15 0.68 0.21a4.87 4.87 0 0 0 0.54 0 5 5 0 0 0 0.82 -0.22 0.34 0.34 0 0 0 0 -0.68Z" fill="#4C57E6" stroke-width="1"></path>
    <path d="M10.7 15.79a0.35 0.35 0 0 0 -0.49 0.49c-0.17 0 -0.21 0.34 -0.28 0.44l-0.27 0.28q-0.15 0.18 -0.33 0.36a1.81 1.81 0 0 1 -0.33 0.34 0.86 0.86 0 0 1 -0.5 0.17 0.3 0.3 0 0 0 -0.14 0.59 1.63 1.63 0 0 0 1.57 -0.13 2.09 2.09 0 0 0 0.55 -0.52 2.44 2.44 0 0 0 0.34 -0.66 2.11 2.11 0 0 0 0.14 -0.84 0.76 0.76 0 0 0 -0.26 -0.52Z" fill="#4C57E6" stroke-width="1"></path>
    <path d="M11.26 12.34a0.34 0.34 0 0 0 -0.68 0 7.2 7.2 0 0 0 -0.23 0.7 1.69 1.69 0 0 0 0 0.5 1.46 1.46 0 0 0 0.48 1.06 0.31 0.31 0 0 0 0.42 -0.11 0.29 0.29 0 0 0 0 -0.31c0.13 0 0.17 -0.32 0.22 -0.62a1.48 1.48 0 0 0 0 -0.47 4.89 4.89 0 0 0 -0.21 -0.75Z" fill="#4C57E6" stroke-width="1"></path>
    <path d="M14.11 8.85a4.87 4.87 0 0 0 -1.56 -0.09 2.54 2.54 0 0 0 -1.05 0.5 1.07 1.07 0 0 0 -0.23 0.34 3.12 3.12 0 0 0 -0.24 1c0 0.34 0.18 0.48 0.42 0.41a0.3 0.3 0 0 0 0.25 -0.34c0.15 -0.05 0.33 -0.7 0.46 -0.57s0 0.05 0 0.05a3.06 3.06 0 0 1 0.51 -0.21c0.2 -0.07 0.38 -0.15 0.57 -0.2s0.59 -0.13 0.91 -0.18a0.35 0.35 0 0 0 0 -0.69Z" fill="#4C57E6" stroke-width="1"></path>
    <path d="M18 8.58a4.57 4.57 0 0 0 -1 -0.17 1.71 1.71 0 0 0 -0.39 0l-0.24 0.09a4.71 4.71 0 0 1 -0.52 0.15l-0.14 0c-0.26 0.15 -0.3 0.29 -0.21 0.41s0 0.14 0.16 0.16a0.25 0.25 0 0 0 0.17 0c-0.06 0.16 0.54 0.2 0.67 0.23a1.9 1.9 0 0 0 0.25 0 2.2 2.2 0 0 0 0.36 0c0.31 -0.07 0.58 -0.2 0.88 -0.28a0.34 0.34 0 0 0 0 -0.68Z" fill="#4C57E6" stroke-width="1"></path>
    <path d="M23.78 8.27c-0.23 -0.28 -0.75 -0.82 -1.3 -1.35s-1.09 -1 -1.33 -1.26l-0.06 -0.06a0.28 0.28 0 0 0 -0.26 -0.15 0.32 0.32 0 0 0 -0.23 0.51l0.23 0.32c0.32 0.44 0.89 1.22 1.39 1.87 0.15 0.19 0.28 0.36 0.41 0.51a0.37 0.37 0 0 0 -0.2 -0.07c-0.39 -0.07 -0.75 -0.23 -1.14 -0.3a2.13 2.13 0 0 0 -0.5 0 2.11 2.11 0 0 0 -0.35 0 5.51 5.51 0 0 1 -0.67 0.11h-0.06a0.38 0.38 0 0 0 -0.15 0s-0.29 0.46 0.11 0.62c0.19 0.08 0.63 0.24 0.77 0.28l0.3 0.06a2.27 2.27 0 0 0 0.45 0 6.37 6.37 0 0 0 1.24 -0.15l-0.06 0.07c-0.6 0.66 -1.41 1.46 -1.86 1.85 -0.13 0.11 -0.29 0.17 -0.27 0.22a0.34 0.34 0 0 0 -0.21 0.31 0.37 0.37 0 0 0 0.56 0.28l0.36 -0.22a19.59 19.59 0 0 0 2.2 -1.65A3.76 3.76 0 0 0 24 9a0.77 0.77 0 0 0 -0.22 -0.73ZM21.09 5.7a0.24 0.24 0 0 1 -0.23 0.29 0.3 0.3 0 0 0 0.23 -0.29Zm-0.7 5.64a0.29 0.29 0 0 1 0.29 0.33 0.33 0.33 0 0 0 -0.29 -0.33Zm2.33 -2.49a0.15 0.15 0 0 0 0 -0.09l0.05 0.06Zm0.1 0.05c0.07 0.07 0.14 0.13 0.11 0.15s-0.13 -0.05 -0.11 -0.15Z" fill="#020202" stroke-width="1"></path>
    <path d="M21.08 5.6s0 -0.07 0 0Z" fill="#020202" stroke-width="1"></path>
  </g>
</svg>