<svg xmlns="http://www.w3.org/2000/svg" viewBox="0 0 24 24" id="Diet-Waist--Streamline-Freehand">
  <desc>
    Diet Waist Streamline Icon: https://streamlinehq.com
  </desc>
  <g>
    <path d="M12.44 8.69a1.49 1.49 0 0 0 1.34 -1.56c-0.11 -1.84 -2.1 -1.13 -2.28 -1.08a1.62 1.62 0 0 0 -0.63 0.68 1.27 1.27 0 0 0 0.24 1.52 1.77 1.77 0 0 0 1.33 0.44ZM12 6.7a0.49 0.49 0 0 1 0.83 0.26 0.43 0.43 0 0 1 -0.41 0.5 0.72 0.72 0 0 1 -0.47 -0.09c-0.08 -0.07 -0.16 -0.15 -0.13 -0.25A0.91 0.91 0 0 1 12 6.7Z" fill="#020202" fill-rule="evenodd" stroke-width="1"></path>
    <path d="M3.65 11a2.5 2.5 0 0 0 -0.06 0.38c0 1.31 0.29 1.3 0.4 1.31s0.3 0 0.74 -1.07a3 3 0 0 0 0.11 -0.32 1.91 1.91 0 0 0 0.06 -0.3 4.09 4.09 0 0 0 0 -0.5c-0.22 -0.43 -0.52 -0.48 -0.87 -0.18a1.51 1.51 0 0 0 -0.24 0.36 1.14 1.14 0 0 0 -0.14 0.32Z" fill="#4C57E6" fill-rule="evenodd" stroke-width="1"></path>
    <path d="m6.69 11.51 0 0.35c0.06 1.13 0.24 1.24 0.46 1.25s0.36 0 0.7 -1.12a2.11 2.11 0 0 0 0.09 -0.56 1.35 1.35 0 0 0 -0.08 -0.4c-0.15 -0.55 -0.5 -0.81 -0.92 -0.26a3.89 3.89 0 0 0 -0.17 0.41c-0.04 0.11 -0.06 0.22 -0.08 0.33Z" fill="#4C57E6" fill-rule="evenodd" stroke-width="1"></path>
    <path d="M13.64 17.3a1.61 1.61 0 0 0 0.31 0c0.61 -0.13 0.69 0 0.82 -0.26 0.22 -0.4 -0.28 -0.56 -0.82 -0.84 -0.07 0 -0.13 -0.09 -0.2 -0.12l-0.1 0c-0.91 -0.16 -1.09 0.89 -0.24 1.18Z" fill="#4C57E6" fill-rule="evenodd" stroke-width="1"></path>
    <path d="M23.91 16.58a9.62 9.62 0 0 0 -0.22 -1.17c-0.21 -0.8 -0.51 -1.58 -0.8 -2.41a8.74 8.74 0 0 0 0.14 -0.87 4.51 4.51 0 0 0 -0.07 -1 4.13 4.13 0 0 0 -0.8 -1.61s-0.05 0 -0.07 -0.06a2.48 2.48 0 0 0 -0.09 -0.85c-0.14 -0.59 -0.45 -1.16 -0.6 -1.69s-0.31 -1 -0.44 -1.5A9.41 9.41 0 0 1 20.65 4a5.41 5.41 0 0 1 0.1 -2 0.33 0.33 0 0 0 -0.2 -0.42 0.31 0.31 0 0 0 -0.4 0.2 5.62 5.62 0 0 0 -0.56 2.85A6.46 6.46 0 0 0 19.86 6a11.7 11.7 0 0 0 0.5 1.31c0.25 0.49 0.63 1 0.86 1.55a2.33 2.33 0 0 1 0.08 0.36c-0.63 0.14 -1.24 0.32 -1.88 0.47a8.06 8.06 0 0 1 -0.88 0.16 34.81 34.81 0 0 1 -3.87 0.24 34.87 34.87 0 0 1 -3.85 -0.09c-2 -0.13 -3.94 -0.65 -5.91 -0.84a14.43 14.43 0 0 0 -2.18 0l0 -0.22c0.23 -0.55 0.61 -1.06 0.86 -1.55A11.7 11.7 0 0 0 4.14 6a6.46 6.46 0 0 0 0.27 -1.42 5.62 5.62 0 0 0 -0.56 -2.85 0.31 0.31 0 0 0 -0.4 -0.2 0.33 0.33 0 0 0 -0.2 0.42 5.41 5.41 0 0 1 0.1 2A9.41 9.41 0 0 1 3 5.42c-0.13 0.49 -0.26 1 -0.44 1.5S2.13 8 2 8.61a2.23 2.23 0 0 0 -0.08 0.89 3.23 3.23 0 0 0 -1.14 1.18 2.5 2.5 0 0 0 -0.25 0.64 3.26 3.26 0 0 0 -0.09 0.68c0 1.68 0.68 0.35 -0.13 3.4A10.77 10.77 0 0 0 0 17.79a10.63 10.63 0 0 0 0.38 2.79 0.36 0.36 0 0 0 0.43 0.29 0.36 0.36 0 0 0 0.29 -0.42 11.84 11.84 0 0 1 0 -2.23c0.06 -0.7 0.19 -1.37 0.28 -2.06s0.19 -1.45 0.28 -2.18c0.41 0.06 0.83 0.1 1.24 0.19 0.74 0.18 1.46 0.42 2.2 0.63s1.5 0.39 2.29 0.55a12.7 12.7 0 0 0 2.13 0.13 24.33 24.33 0 0 0 2.56 -0.22 11.45 11.45 0 0 0 -0.26 6.57 0.37 0.37 0 0 0 0.44 0.28 0.36 0.36 0 0 0 0.28 -0.43 23.92 23.92 0 0 1 -0.21 -3.34 16.08 16.08 0 0 1 1.16 -4.2c0.19 -0.56 0.68 -1.43 0.94 -2a5.7 5.7 0 0 1 0.52 -0.9l0.82 -0.08a23.62 23.62 0 0 0 -0.42 3.34 16 16 0 0 0 0 1.83 16.25 16.25 0 0 0 0.24 1.84A14.64 14.64 0 0 0 17 22.26a0.36 0.36 0 0 0 0.66 -0.3 16.88 16.88 0 0 1 -0.95 -4.54c-0.08 -0.83 -0.12 -1.69 -0.15 -2.53 0.72 0 1.42 0.09 2.12 0.13a9.5 9.5 0 0 0 1.6 0 6.73 6.73 0 0 0 2.12 -0.56c0.06 0.57 0.13 1.15 0.21 1.7s0.22 1.36 0.28 2.06a11.84 11.84 0 0 1 0 2.23 0.36 0.36 0 0 0 0.29 0.42 0.36 0.36 0 0 0 0.43 -0.29 10.63 10.63 0 0 0 0.39 -2.79 9.71 9.71 0 0 0 -0.09 -1.21Zm-10.18 -4.81c-0.34 0.55 -0.62 1.13 -0.89 1.68 -0.17 0.34 -0.31 0.69 -0.46 1l-2.32 0a13.26 13.26 0 0 1 -2.43 -0.32c-0.79 -0.15 -1.55 -0.36 -2.3 -0.51 -0.54 -0.12 -1.07 -0.2 -1.6 -0.27 -1.6 -0.22 -2.45 0.2 -2.06 -1.54 0.06 -0.23 0.12 -0.46 0.19 -0.69A3.48 3.48 0 0 1 2.32 10a0.28 0.28 0 0 0 0.11 -0.23 37.3 37.3 0 0 1 5.79 0.82 24.15 24.15 0 0 0 5.86 0.7 4.66 4.66 0 0 0 -0.35 0.48Zm6.38 2.05H19c-0.24 0 -0.49 0 -0.73 0.05a10.81 10.81 0 0 0 -1.77 0.33l0 -3.11c0.56 -0.07 2.88 -0.5 3.1 -0.57 0.66 -0.2 1.3 -0.44 2 -0.62a3.46 3.46 0 0 1 0.12 0.61l0 0.6a5.87 5.87 0 0 0 0.05 0.59c0.09 0.63 0.2 1.25 0.27 1.89l0 0.07a9.44 9.44 0 0 1 -1.93 0.16Z" fill="#020202" fill-rule="evenodd" stroke-width="1"></path>
    <path d="M13.4 20.41a0.83 0.83 0 0 0 0.27 -0.07c1 -0.37 0.9 -0.62 0.89 -0.71 0 -0.3 -0.83 -0.42 -1.17 -0.44 -0.91 0.12 -1.14 1.1 -0.06 1.22Z" fill="#4C57E6" fill-rule="evenodd" stroke-width="1"></path>
    <path d="M18 11.92a1.86 1.86 0 0 0 0.06 0.34c0.33 1 0.55 1.1 0.76 1.06s0.32 -0.08 0.39 -1.18a1.69 1.69 0 0 0 0 -0.32 1.92 1.92 0 0 0 0 -0.32 2.92 2.92 0 0 0 -0.19 -0.44 0.48 0.48 0 0 0 -0.89 0.2c0 0.11 -0.07 0.21 -0.09 0.32a1.93 1.93 0 0 0 -0.04 0.34Z" fill="#4C57E6" fill-rule="evenodd" stroke-width="1"></path>
    <path d="M9.65 12a1.58 1.58 0 0 0 0 0.38c0 1.15 0.21 1.27 0.44 1.29s0.32 0 0.7 -1.11c0 -0.11 0.07 -0.22 0.1 -0.33a1.24 1.24 0 0 0 0 -0.33 1.2 1.2 0 0 0 0 -0.19c-0.07 -0.73 -0.88 -0.76 -1.12 -0.11a2.38 2.38 0 0 0 -0.12 0.4Z" fill="#4C57E6" fill-rule="evenodd" stroke-width="1"></path>
  </g>
</svg>