<svg xmlns="http://www.w3.org/2000/svg" viewBox="0 0 24 24" id="Disability-Oc-Line--Streamline-Freehand">
  <desc>
    Disability Oc Line Streamline Icon: https://streamlinehq.com
  </desc>
  <g>
    <path d="M7.41 6.48a0.34 0.34 0 0 0 -0.34 0.34 0.35 0.35 0 0 0 0.34 0.35 3.37 3.37 0 0 1 3 2.11 6.57 6.57 0 0 1 0.5 3.92 5.19 5.19 0 0 1 -2.59 3.23 5.23 5.23 0 0 1 -4.05 0.72 5 5 0 0 1 -3 -3.62 4.91 4.91 0 0 1 0.84 -4.72 6.35 6.35 0 0 1 1.52 -1.18 9.65 9.65 0 0 1 1.86 -0.75 3.59 3.59 0 0 1 0.62 -0.12 0.75 0.75 0 0 1 0.46 0.06 0.3 0.3 0 0 0 0.43 -0.05 0.31 0.31 0 0 0 0 -0.43 1.19 1.19 0 0 0 -0.71 -0.2 3.77 3.77 0 0 0 -0.91 0.11 9.84 9.84 0 0 0 -2 0.73 7.13 7.13 0 0 0 -1.8 1.24A5.8 5.8 0 0 0 0.21 13.8a6.05 6.05 0 0 0 3.72 4.45 6.28 6.28 0 0 0 5 -0.87 6.16 6.16 0 0 0 3 -4 7.23 7.23 0 0 0 -1.21 -5.23 3.9 3.9 0 0 0 -3.31 -1.67Z" fill="#020202" fill-rule="evenodd" stroke-width="1"></path>
    <path d="M23.25 14.54c-0.16 0.3 -0.28 0.51 -0.39 0.7a2.48 2.48 0 0 1 -0.28 0.36 5.89 5.89 0 0 1 -1.37 1 6 6 0 0 1 -1.59 0.58 3.72 3.72 0 0 1 -3.49 -1 5.16 5.16 0 0 1 -1.54 -3.43 6.24 6.24 0 0 1 1.76 -4.9 5.18 5.18 0 0 1 5 -1.33 2.78 2.78 0 0 1 1.28 0.58 4.53 4.53 0 0 1 0.82 1.22 0.3 0.3 0 1 0 0.55 -0.23 4.89 4.89 0 0 0 -0.9 -1.44 3.27 3.27 0 0 0 -1.55 -0.82 6 6 0 0 0 -5.9 1.29 7.19 7.19 0 0 0 -2.17 5.74 6.24 6.24 0 0 0 2 4.13 4.67 4.67 0 0 0 4.41 1.07 7.1 7.1 0 0 0 1.79 -0.74 6.69 6.69 0 0 0 1.5 -1.22 2.4 2.4 0 0 0 0.28 -0.37c0.14 -0.22 0.27 -0.48 0.46 -0.86a0.33 0.33 0 0 0 -0.14 -0.46 0.34 0.34 0 0 0 -0.53 0.13Z" fill="#020202" fill-rule="evenodd" stroke-width="1"></path>
  </g>
</svg>