<svg xmlns="http://www.w3.org/2000/svg" viewBox="0 0 24 24" id="Disability-Blind-Read-Finger--Streamline-Freehand">
  <desc>
    Disability Blind Read Finger Streamline Icon: https://streamlinehq.com
  </desc>
  <g>
    <path d="M23.72 18.83a3.71 3.71 0 0 0 -2.15 -2.38 5.7 5.7 0 0 0 -1.07 -0.31c-0.34 -0.07 -0.71 -0.11 -1.07 -0.15a8.49 8.49 0 0 1 -1.07 -0.19 5.83 5.83 0 0 1 -0.73 -0.19 1.9 1.9 0 0 0 0 -0.25l-0.06 -1.57c-0.11 -1.37 0.09 -3.26 -0.57 -4.47A2.54 2.54 0 0 0 15.13 8a2.3 2.3 0 0 0 -2.63 1.33 9.52 9.52 0 0 0 -0.78 3.81l0 1.34c0 0.35 0.16 0.85 0.18 1.32a1.57 1.57 0 0 1 0 0.44c-0.23 -0.22 -1.13 0.12 -1.32 0.13a2.8 2.8 0 0 0 -1.6 0.54 2 2 0 0 0 -0.84 1.54 4.18 4.18 0 0 0 0.78 2.45 10.8 10.8 0 0 0 2.53 2.63 0.29 0.29 0 0 0 0.42 -0.05 0.3 0.3 0 0 0 -0.05 -0.42 10 10 0 0 1 -2.29 -2.54 3.42 3.42 0 0 1 -0.58 -2 1.19 1.19 0 0 1 0.54 -0.9 1.84 1.84 0 0 1 1.1 -0.32 8.94 8.94 0 0 0 1.46 0 0.9 0.9 0 0 0 0.61 -0.36 1.61 1.61 0 0 0 0.26 -0.89 12.71 12.71 0 0 0 -0.14 -1.62V13.2a8.55 8.55 0 0 1 0.72 -3.33 1.23 1.23 0 0 1 1.39 -0.75 1.56 1.56 0 0 1 1.25 1.21 19.6 19.6 0 0 1 0.3 3.56l0.09 1.48a2.5 2.5 0 0 0 0 0.54 0.72 0.72 0 0 0 0.26 0.42 2.53 2.53 0 0 0 0.84 0.35 10.63 10.63 0 0 0 1.68 0.27 7.84 7.84 0 0 1 1 0.11 5.06 5.06 0 0 1 0.93 0.23A2.89 2.89 0 0 1 23 19.1a4.69 4.69 0 0 1 0.15 2.66 2.1 2.1 0 0 1 -0.26 0.64c-0.19 0.33 -0.44 0.65 -0.65 1a0.36 0.36 0 0 0 0.12 0.47 0.35 0.35 0 0 0 0.47 -0.12c0.26 -0.41 0.56 -0.76 0.78 -1.17a2.44 2.44 0 0 0 0.25 -0.63 5.38 5.38 0 0 0 -0.14 -3.12Z" fill="#020202" fill-rule="evenodd" stroke-width="1"></path>
    <path d="M1.28 4.51A3.46 3.46 0 0 0 3 5.07a1.78 1.78 0 0 0 1.51 -0.62A2.42 2.42 0 0 0 5 2.33 2.21 2.21 0 0 0 4.05 1 2.34 2.34 0 0 0 1 1.14a2.64 2.64 0 0 0 -0.47 2.31 1.94 1.94 0 0 0 0.75 1.06Zm0.2 -2.68C2 0.64 3.22 1.36 3.56 1.64a1.43 1.43 0 0 1 0.52 0.87 1.45 1.45 0 0 1 -0.3 1 0.76 0.76 0 0 1 -0.73 0.39 2.58 2.58 0 0 1 -1 -0.25 1.11 1.11 0 0 1 -0.6 -0.55 1.79 1.79 0 0 1 0.03 -1.27Z" fill="#4C57E6" fill-rule="evenodd" stroke-width="1"></path>
    <path d="M11.83 4.78a1.82 1.82 0 0 0 1 -0.34 2.33 2.33 0 0 0 0.81 -1.16A2.55 2.55 0 0 0 13.48 1c-1 -1.48 -4.76 -1.31 -4.6 1.46a2.65 2.65 0 0 0 2.95 2.32Zm0.93 -3.32a1.67 1.67 0 0 1 0 1.43 1.69 1.69 0 0 1 -0.43 0.55 0.69 0.69 0 0 1 -0.49 0.19 1.65 1.65 0 0 1 -1.97 -1.26C9.6 0.52 12.23 0.51 12.76 1.46Z" fill="#4C57E6" fill-rule="evenodd" stroke-width="1"></path>
    <path d="M18.89 5a3.29 3.29 0 0 0 1.68 0 2.71 2.71 0 0 0 1.48 -0.91A2.08 2.08 0 0 0 22.26 2c-0.2 -0.46 -0.74 -1.87 -3.44 -1.34a2.12 2.12 0 0 0 -1 0.49 2.08 2.08 0 0 0 -0.58 2.22A2.44 2.44 0 0 0 18.89 5Zm-0.47 -3.24a1.49 1.49 0 0 1 0.79 -0.43c1.45 -0.33 2 0 2.26 1a1.19 1.19 0 0 1 -0.18 1.17 1.85 1.85 0 0 1 -1 0.47 2.51 2.51 0 0 1 -1.13 0 1.39 1.39 0 0 1 -1 -0.86 1.19 1.19 0 0 1 0.26 -1.37Z" fill="#4C57E6" fill-rule="evenodd" stroke-width="1"></path>
    <path d="M1.44 11.76a2.9 2.9 0 0 0 0.87 0.16 3 3 0 0 0 0.88 -0.1 3.09 3.09 0 0 0 1.29 -0.71 2.22 2.22 0 0 0 0.72 -1.38 2.11 2.11 0 0 0 -0.77 -1.84 2.94 2.94 0 0 0 -4.13 0.88 2 2 0 0 0 1.14 2.99Zm-0.31 -2.59c0.69 -1.6 3.38 -1.28 3.1 0.42a1.26 1.26 0 0 1 -0.47 0.71 2.1 2.1 0 0 1 -0.85 0.41 2.2 2.2 0 0 1 -0.56 0 1.71 1.71 0 0 1 -0.55 -0.09 1 1 0 0 1 -0.67 -1.45Z" fill="#4C57E6" fill-rule="evenodd" stroke-width="1"></path>
    <path d="M0.76 15.59A2.71 2.71 0 0 0 0.64 18a2.09 2.09 0 0 0 1.43 1.08A2.78 2.78 0 0 0 4 18.76a2.61 2.61 0 0 0 1.2 -1.52 2.78 2.78 0 0 0 -0.2 -1.95c-1 -1.71 -3.55 -1.1 -4.24 0.3ZM4.23 17a1.56 1.56 0 0 1 -0.79 0.81 1.59 1.59 0 0 1 -1.12 0.19 1 1 0 0 1 -0.82 -0.68c-0.71 -2 2 -3.3 2.7 -1.61A1.74 1.74 0 0 1 4.23 17Z" fill="#4C57E6" fill-rule="evenodd" stroke-width="1"></path>
    <path d="M19.74 7.57a0.31 0.31 0 0 0 -0.12 0.41 0.29 0.29 0 0 0 0.41 0.11c0.67 -0.28 1.16 0.32 1.46 0.94a2.1 2.1 0 0 1 0.22 0.92 0.7 0.7 0 0 1 -0.35 0.64 1.21 1.21 0 0 1 -0.35 0.12 3.15 3.15 0 0 1 -0.43 0 0.34 0.34 0 0 0 -0.36 0.33 0.35 0.35 0 0 0 0.34 0.35 4.54 4.54 0 0 0 0.63 0 2.11 2.11 0 0 0 0.49 -0.09 1.62 1.62 0 0 0 1.15 -1.65 2.53 2.53 0 0 0 -0.33 -1.15 2 2 0 0 0 -2.76 -0.93Z" fill="#4C57E6" fill-rule="evenodd" stroke-width="1"></path>
    <path d="M10.4 9.07a2.23 2.23 0 0 1 1 -0.74 0.3 0.3 0 1 0 0 -0.6 2.55 2.55 0 0 0 -1.72 0.5 2 2 0 0 0 -0.54 0.62 1.74 1.74 0 0 0 0.79 2.47 0.34 0.34 0 1 0 0.4 -0.55A1 1 0 0 1 10 9.68a1.73 1.73 0 0 1 0.4 -0.61Z" fill="#4C57E6" fill-rule="evenodd" stroke-width="1"></path>
  </g>
</svg>