<svg xmlns="http://www.w3.org/2000/svg" viewBox="0 0 24 24" id="Disability-Cane-1--Streamline-Freehand">
  <desc>
    Disability Cane 1 Streamline Icon: https://streamlinehq.com
  </desc>
  <g>
    <path d="M17.88 13.51a1.73 1.73 0 0 0 -0.64 -1.79c-0.41 -0.28 -2.59 -0.72 -3.56 -1.75 -0.47 -0.49 -0.56 -1.13 0.1 -2l0 -0.05A3.32 3.32 0 0 0 16 7.9a5.26 5.26 0 0 0 2.7 -2.5C21.05 1 16.93 -0.57 14.37 0.18a4.45 4.45 0 0 0 -2.55 2 4.44 4.44 0 0 0 -0.38 3.06 10.51 10.51 0 0 0 -4.65 2.65A12.13 12.13 0 0 0 3.72 13a16.45 16.45 0 0 0 -0.38 2.7c-0.15 1.78 -0.24 3.77 -0.23 4a7.83 7.83 0 0 0 0.43 3.11 2 2 0 0 0 1.23 1.11 2 2 0 0 0 2.23 -0.6 5.06 5.06 0 0 0 1 -2.78c0.15 -1.76 0 -3.68 0.13 -5.29A11.79 11.79 0 0 1 8.25 14a4.29 4.29 0 0 1 0.64 -1.48 7.72 7.72 0 0 1 0.65 -0.88 16.5 16.5 0 0 0 2 2.54A4.92 4.92 0 0 0 14 15.34a4.65 4.65 0 0 0 2.77 -0.34 2.1 2.1 0 0 0 1.11 -1.49Zm-5.19 -10.9A3.49 3.49 0 0 1 14.62 0.93c2.23 -0.82 5.16 0.79 3.23 4a4.53 4.53 0 0 1 -1.8 1.73 2.34 2.34 0 0 1 -2.2 0.07A2.61 2.61 0 0 1 12.54 5a3.45 3.45 0 0 1 0.15 -2.39ZM16.4 14.2a3.77 3.77 0 0 1 -2.2 0.21 4 4 0 0 1 -2 -0.95 16.44 16.44 0 0 1 -2 -2.66 3.19 3.19 0 0 0 -0.26 -0.36 0.52 0.52 0 0 0 -0.78 0 8.36 8.36 0 0 0 -1.47 1.85 4.8 4.8 0 0 0 -0.61 1.55 14 14 0 0 0 -0.18 2c0 1.44 0 3.07 -0.12 4.58a4.46 4.46 0 0 1 -0.52 1.83 1 1 0 0 1 -1.21 0.52 1.13 1.13 0 0 1 -0.63 -0.77 9 9 0 0 1 -0.25 -2.33c0 -0.22 0 -2.16 0.14 -3.89a17.19 17.19 0 0 1 0.27 -2.51 11.31 11.31 0 0 1 2.74 -4.86 9.81 9.81 0 0 1 4.33 -2.6 3.55 3.55 0 0 0 1.52 1.84 2 2 0 0 0 0 2.82c1 1.09 3.21 1.63 3.64 1.93a0.89 0.89 0 0 1 0.26 0.94 1.19 1.19 0 0 1 -0.67 0.86Z" fill="#020202" fill-rule="evenodd" stroke-width="1"></path>
    <path d="M20.88 19.91a7.35 7.35 0 0 0 -0.52 -2.34 2.84 2.84 0 0 0 -1.73 -1.73 2.61 2.61 0 0 0 -2.23 0.79 0.3 0.3 0 0 0 -0.07 0.42 0.31 0.31 0 0 0 0.43 0.07 1.88 1.88 0 0 1 1.61 -0.4c0.41 0.15 0.68 0.6 0.92 1.29a7.45 7.45 0 0 1 0.51 2 25.88 25.88 0 0 1 0.2 3.29 0.35 0.35 0 0 0 0.69 0 20.68 20.68 0 0 0 0.19 -3.39Z" fill="#4C57E6" fill-rule="evenodd" stroke-width="1"></path>
  </g>
</svg>