<svg xmlns="http://www.w3.org/2000/svg" viewBox="0 0 24 24" id="Disability-Heart-Plus-Health-Care--Streamline-Freehand">
  <desc>
    Disability Heart Plus Health Care Streamline Icon: https://streamlinehq.com
  </desc>
  <g>
    <path d="M8 19.67a4.09 4.09 0 0 0 -0.29 -1 1.63 1.63 0 0 0 -0.55 -0.67 4.88 4.88 0 0 0 -1.73 -0.63c-0.86 -0.16 -1.79 -0.18 -2.51 -0.25A6.66 6.66 0 0 1 1.71 17a1 1 0 0 1 -0.49 -0.22c-0.11 -0.12 -0.09 -0.32 -0.08 -0.53 0 -0.36 0.07 -0.73 0.09 -1 0 -0.64 0.09 -1.29 0.13 -1.94l0 -1.32a2.85 2.85 0 0 0 -0.2 -0.99 1.35 1.35 0 0 0 -0.49 -0.63 0.3 0.3 0 0 0 -0.42 0.07 0.31 0.31 0 0 0 0.07 0.42 0.86 0.86 0 0 1 0.28 0.5 2 2 0 0 1 0.05 0.64c0 0.42 -0.07 0.84 -0.12 1.26 -0.09 0.64 -0.2 1.27 -0.3 1.91a7.54 7.54 0 0 0 -0.17 1.48 1.37 1.37 0 0 0 0.34 0.88 1.71 1.71 0 0 0 0.78 0.49 6.15 6.15 0 0 0 1.65 0.24c0.7 0.05 1.59 0.05 2.43 0.17a4 4 0 0 1 1.4 0.39 0.81 0.81 0 0 1 0.31 0.37 2.7 2.7 0 0 1 0.2 0.65 10.29 10.29 0 0 1 0.23 1.3 10.82 10.82 0 0 1 0 1.32 0.34 0.34 0 0 0 0.32 0.36 0.34 0.34 0 0 0 0.36 -0.32 10.21 10.21 0 0 0 0.05 -1.41A12.13 12.13 0 0 0 8 19.67Z" fill="#4C57E6" fill-rule="evenodd" stroke-width="1"></path>
    <path d="M5 6.87a3.86 3.86 0 0 0 1.26 -0.1 3.38 3.38 0 0 0 1.18 -0.52A3.75 3.75 0 0 0 8.77 2.7 2.94 2.94 0 0 0 6.2 0.06c-2 -0.22 -2.61 0.2 -3.14 0.6a3.45 3.45 0 0 0 -1.34 2.12 3.58 3.58 0 0 0 0.69 2.75A3.59 3.59 0 0 0 5 6.87ZM3.54 1.24c0.13 -0.11 0.64 -0.78 2.55 -0.45a2.15 2.15 0 0 1 1.75 2 2.69 2.69 0 0 1 -1.1 2.51 2.21 2.21 0 0 1 -0.74 0.36 3.07 3.07 0 0 1 -0.9 0.07 2.63 2.63 0 0 1 -2.46 -2.84 2.61 2.61 0 0 1 0.9 -1.65Z" fill="#020202" fill-rule="evenodd" stroke-width="1"></path>
    <path d="M13 13.46a9 9 0 0 0 -2.14 -0.89 9.06 9.06 0 0 0 -2.27 -0.38 2 2 0 0 1 -1.06 -0.34A1.28 1.28 0 0 1 7 11a16 16 0 0 0 -0.21 -2.51C6.27 7.22 4 6.92 3.1 8.8a8.47 8.47 0 0 0 -0.51 3.37 3.46 3.46 0 0 0 1 2.25 5.64 5.64 0 0 0 1.94 1.35c0.88 0.38 2.2 0.13 3.18 0.46a1.17 1.17 0 0 1 0.73 0.59 5.88 5.88 0 0 1 0.56 2.06 11 11 0 0 1 0 2.22 3.08 3.08 0 0 0 0.62 2.2 2 2 0 0 0 1.52 0.7 2.49 2.49 0 0 0 1.74 -0.64 2.83 2.83 0 0 0 0.91 -1.57 14.28 14.28 0 0 0 0 -5.17A4.67 4.67 0 0 0 13 13.46Zm0.62 8.12a1.62 1.62 0 0 1 -0.54 0.91 1.31 1.31 0 0 1 -0.93 0.36 0.94 0.94 0 0 1 -0.83 -0.47 2.07 2.07 0 0 1 -0.23 -1.18 11.21 11.21 0 0 0 0 -2.45 6.74 6.74 0 0 0 -0.72 -2.42A2.15 2.15 0 0 0 9 15.26c-1 -0.3 -2.26 0 -3.13 -0.35a4.78 4.78 0 0 1 -1.66 -1.08 2.68 2.68 0 0 1 -0.78 -1.67 7.74 7.74 0 0 1 0.33 -3.06c0.58 -1.3 2.1 -1.19 2.37 -0.41a14 14 0 0 1 0.1 2.38 2 2 0 0 0 0.83 1.39 2.73 2.73 0 0 0 1.48 0.54 8.83 8.83 0 0 1 2 0.42 8.09 8.09 0 0 1 1.88 0.85 3.73 3.73 0 0 1 1.27 2.55 13.34 13.34 0 0 1 -0.09 4.76Z" fill="#020202" fill-rule="evenodd" stroke-width="1"></path>
    <path d="M23.91 2.8a3.68 3.68 0 0 0 -0.74 -1.62 2.6 2.6 0 0 0 -1.55 -1 3.82 3.82 0 0 0 -2.05 0.12 3.58 3.58 0 0 0 -1.52 1.36 0.34 0.34 0 1 0 0.53 0.41A3.08 3.08 0 0 1 19.83 1a3.27 3.27 0 0 1 1.65 0 1.77 1.77 0 0 1 1 0.7A2.64 2.64 0 0 1 23 2.91a4.06 4.06 0 0 1 -0.23 1.64 7.66 7.66 0 0 1 -0.74 1.58 9.68 9.68 0 0 1 -1 1.39c-0.38 0.44 -0.8 0.85 -1.24 1.27s-1.76 1.58 -2.38 2L15.56 9.3a20.34 20.34 0 0 1 -2.71 -3.08A5.54 5.54 0 0 1 12 3.81a3 3 0 0 1 0.57 -2.17A2.21 2.21 0 0 1 14.5 0.75a3.46 3.46 0 0 1 1.37 0.45 4.1 4.1 0 0 1 1.1 1 0.3 0.3 0 1 0 0.47 -0.36A4.43 4.43 0 0 0 16.22 0.65 4.08 4.08 0 0 0 14.59 0a3 3 0 0 0 -2.68 1.08 3.85 3.85 0 0 0 -0.86 2.77A6.43 6.43 0 0 0 12 6.76a20.49 20.49 0 0 0 2.77 3.33 19.58 19.58 0 0 0 1.61 1.36 4.87 4.87 0 0 0 0.94 0.6 1.17 1.17 0 0 0 0.77 -0.28c0.62 -0.47 2 -1.68 2.5 -2.18s0.88 -0.9 1.28 -1.37a11.88 11.88 0 0 0 1.1 -1.57 8.83 8.83 0 0 0 0.87 -2.2 4.42 4.42 0 0 0 0.07 -1.65Z" fill="#020202" fill-rule="evenodd" stroke-width="1"></path>
    <path d="M17.13 5.22h-0.27c-0.6 0 -1.33 0.1 -1.59 0.14a0.3 0.3 0 0 0 0 0.6c0.25 0 0.94 0.26 1.51 0.36l0.28 0c0 0.58 0.14 1.47 0.18 1.74a0.34 0.34 0 0 0 0.35 0.33 0.34 0.34 0 0 0 0.33 -0.35l0.25 -1.84 1.41 -0.21a0.35 0.35 0 0 0 0.34 -0.35 0.33 0.33 0 0 0 -0.34 -0.33 12.48 12.48 0 0 0 -1.28 -0.14h-0.08A15.52 15.52 0 0 0 18 3.64a0.3 0.3 0 0 0 -0.6 0c-0.04 0.36 -0.19 1.01 -0.27 1.58Z" fill="#020202" fill-rule="evenodd" stroke-width="1"></path>
  </g>
</svg>