<svg xmlns="http://www.w3.org/2000/svg" viewBox="0 0 24 24" id="Disability-Braille-1--Streamline-Freehand">
  <desc>
    Disability Braille 1 Streamline Icon: https://streamlinehq.com
  </desc>
  <g>
    <path d="M3.38 20a1.41 1.41 0 0 0 -0.12 -2.26 2.11 2.11 0 0 0 -2.48 -0.1 2.15 2.15 0 0 0 -0.6 1 13.25 13.25 0 0 0 -0.13 2.23l0 1.32a9.58 9.58 0 0 0 0.09 1.33 0.3 0.3 0 0 0 0.33 0.27 0.3 0.3 0 0 0 0.26 -0.33 8.6 8.6 0 0 1 0 -1.24A12.35 12.35 0 0 1 0.86 21c0.09 -0.53 0.07 -1.21 0.21 -1.81a1.29 1.29 0 0 1 0.42 -0.75c0.22 -0.19 0.6 -0.09 0.89 0.06s0.46 0.29 0.34 0.53a0.52 0.52 0 0 1 -0.22 0.19c-0.26 0.17 -0.58 0.3 -0.79 0.43a0.51 0.51 0 0 0 -0.28 0.62 0.52 0.52 0 0 0 0.36 0.4 4.24 4.24 0 0 0 0.52 0l0.4 0.1a1.35 1.35 0 0 1 0.52 0.37 0.73 0.73 0 0 1 0.21 0.49c0 0.41 -0.4 0.64 -0.8 0.78a2.86 2.86 0 0 1 -1.47 0.13 0.33 0.33 0 0 0 -0.41 0.23 0.34 0.34 0 0 0 0.23 0.42A3.7 3.7 0 0 0 3.24 23a1.67 1.67 0 0 0 1.1 -1.32A1.63 1.63 0 0 0 4 20.54a2.39 2.39 0 0 0 -0.62 -0.54Z" fill="#020202" fill-rule="evenodd" stroke-width="1"></path>
    <path d="M7.34 21.91a5.09 5.09 0 0 0 -0.46 -0.58c0 -0.06 -0.15 -0.4 -0.27 -0.56a2.91 2.91 0 0 0 0.32 -0.12 2.35 2.35 0 0 0 1 -1.18 1.48 1.48 0 0 0 -0.16 -1.24 1.4 1.4 0 0 0 -1.7 -0.7 1.85 1.85 0 0 0 -1.17 1.23 3.23 3.23 0 0 0 -0.11 0.94c0 0.64 0.13 1.31 0.12 1.9L5 23.48a0.3 0.3 0 1 0 0.6 0l0.12 -1.82a2.64 2.64 0 0 0 0 -0.29 5.52 5.52 0 0 0 0.51 0.59 6.33 6.33 0 0 1 0.44 0.46c0.35 0.42 0.66 0.88 1 1.27a0.34 0.34 0 0 0 0.48 0 0.33 0.33 0 0 0 0 -0.47c-0.23 -0.39 -0.5 -0.87 -0.81 -1.31Zm-1.56 -1.69 0 -0.47a2.84 2.84 0 0 1 0.22 -0.67 0.75 0.75 0 0 1 0.48 -0.47 0.35 0.35 0 0 1 0.39 0.2 0.42 0.42 0 0 1 0 0.43 1.63 1.63 0 0 1 -0.52 0.56 5 5 0 0 0 -0.57 0.42Z" fill="#020202" fill-rule="evenodd" stroke-width="1"></path>
    <path d="M11.09 18.12a1.45 1.45 0 0 0 -0.88 -0.59 1 1 0 0 0 -0.91 0.31 2.62 2.62 0 0 0 -0.52 1.23 8.27 8.27 0 0 0 -0.07 1.11c0 0.53 0 1.06 0.09 1.58l0.11 1.57a0.31 0.31 0 0 0 0.31 0.29 0.32 0.32 0 0 0 0.29 -0.31l0.07 -1.5a2.39 2.39 0 0 0 0.38 0.13 1 1 0 0 0 0.25 0 3.35 3.35 0 0 0 0.66 -0.13l0 1.5a0.34 0.34 0 0 0 0.34 0.34 0.34 0.34 0 0 0 0.34 -0.34c0 -0.85 0.19 -1.88 0.17 -2.84a6.1 6.1 0 0 0 -0.18 -1.32 3.46 3.46 0 0 0 -0.45 -1.03Zm-0.61 2.75a1.13 1.13 0 0 0 -0.45 0 1.49 1.49 0 0 0 -0.39 0.12c0 -0.24 0 -0.49 0.06 -0.73a6.08 6.08 0 0 1 0.16 -0.95 2.43 2.43 0 0 1 0.15 -0.62c0.11 0 0.18 0.13 0.25 0.24a3.42 3.42 0 0 1 0.3 0.61 5.33 5.33 0 0 1 0.28 1.46 2.22 2.22 0 0 0 -0.36 -0.13Z" fill="#020202" fill-rule="evenodd" stroke-width="1"></path>
    <path d="M13.27 18.24c-0.06 -0.48 -0.48 -0.77 -0.62 0l-0.12 1.69 0 1.41c0 0.47 0.05 0.66 0.08 1l0.16 0.92a0.34 0.34 0 0 0 0.33 0.35 0.34 0.34 0 0 0 0.34 -0.33l0.05 -0.94c0 -0.49 0.14 -1 0.16 -1.46a7 7 0 0 0 -0.07 -1Z" fill="#020202" fill-rule="evenodd" stroke-width="1"></path>
    <path d="M16.79 23.05a7.8 7.8 0 0 0 -1.32 -0.05l-0.16 0c0 -0.09 0.07 -0.26 0.09 -0.36 0 -0.26 0.1 -0.52 0.12 -0.63a5.52 5.52 0 0 0 0.06 -1.22 14.06 14.06 0 0 1 -0.22 -2.56 0.29 0.29 0 0 0 -0.23 -0.35 0.3 0.3 0 0 0 -0.35 0.23 5.84 5.84 0 0 0 -0.21 1.18c0 0.45 -0.08 0.89 -0.09 1.33a8 8 0 0 1 -0.08 1.21 5.09 5.09 0 0 0 0 1.34 0.84 0.84 0 0 0 0.34 0.57 1.24 1.24 0 0 0 0.55 0.19c0.45 0 1 -0.2 1.41 -0.14a0.33 0.33 0 0 0 0.41 -0.24 0.33 0.33 0 0 0 -0.32 -0.5Z" fill="#020202" fill-rule="evenodd" stroke-width="1"></path>
    <path d="M15.31 22.93Z" fill="#020202" fill-rule="evenodd" stroke-width="1"></path>
    <path d="m20.17 23 -0.64 0a2.16 2.16 0 0 0 -0.48 0 1.61 1.61 0 0 1 -0.34 0l-0.16 0a2.34 2.34 0 0 0 0 -0.26l0 -0.55 0 -1.35c0 -0.45 -0.13 -0.88 -0.21 -1.32 -0.05 -0.28 -0.13 -0.55 -0.18 -0.84a1.55 1.55 0 0 1 0 -0.48 0.3 0.3 0 0 0 -0.23 -0.35 0.29 0.29 0 0 0 -0.35 0.24 1.93 1.93 0 0 0 -0.08 0.49l0 1 0 2.61a4.85 4.85 0 0 0 0.1 1.11 0.76 0.76 0 0 0 0.39 0.52 1.48 1.48 0 0 0 0.53 0.12 2.51 2.51 0 0 0 0.72 -0.06l0.34 -0.09 0.63 -0.06a0.34 0.34 0 0 0 0.32 -0.36 0.34 0.34 0 0 0 -0.36 -0.37Zm-1.59 0 0 -0.06c0 -0.06 0.03 0.06 0 0.06Z" fill="#020202" fill-rule="evenodd" stroke-width="1"></path>
    <path d="M23.65 23c-0.36 0 -0.86 0.09 -1.32 0.05a0.81 0.81 0 0 1 -0.46 -0.15c0 -0.08 0.07 -0.18 0.08 -0.23l0.15 -1.5 0 -0.48 0.2 0.09a1 1 0 0 0 0.3 0 1 1 0 0 0 0.3 0 6.29 6.29 0 0 0 0.68 -0.16 0.33 0.33 0 0 0 0.36 -0.31 0.34 0.34 0 0 0 -0.31 -0.36 5.77 5.77 0 0 0 -0.67 -0.23 1.27 1.27 0 0 0 -0.28 -0.06h-0.27a3 3 0 0 0 -0.37 0.08c0 -0.35 -0.08 -0.7 -0.09 -1.06 0 -0.12 -0.14 -0.47 -0.06 -0.52a0.44 0.44 0 0 1 0.21 -0.07c0.17 0 0.35 0 0.48 -0.05l0.92 0a0.3 0.3 0 0 0 0.39 -0.17 0.3 0.3 0 0 0 -0.17 -0.38 2.67 2.67 0 0 0 -0.48 -0.13c-0.24 0 -0.5 -0.07 -0.65 -0.08a3.79 3.79 0 0 0 -0.83 0 1.16 1.16 0 0 0 -0.47 0.19 0.89 0.89 0 0 0 -0.29 0.53 3.39 3.39 0 0 0 -0.09 0.74l0 0.77c0 0.56 0.08 1.12 0.07 1.68l0 1.5a2.64 2.64 0 0 0 0 0.54 0.68 0.68 0 0 0 0.2 0.32 1.52 1.52 0 0 0 0.86 0.35 9.5 9.5 0 0 0 1.63 -0.21 0.34 0.34 0 1 0 0 -0.67Zm-1.74 0s-0.05 0 0 -0.09 0.09 0.09 0 0.09Z" fill="#020202" fill-rule="evenodd" stroke-width="1"></path>
    <path d="M21.9 18.18s0.01 0.01 0 0Z" fill="#020202" fill-rule="evenodd" stroke-width="1"></path>
    <path d="M7 4.05a4.2 4.2 0 0 0 0.78 0 3.19 3.19 0 0 0 1.76 -0.54 1.83 1.83 0 0 0 0.75 -1.16A2.07 2.07 0 0 0 9.72 0.79 1.6 1.6 0 0 0 7.48 0.42 3.85 3.85 0 0 0 5.93 2a1.41 1.41 0 0 0 0.39 1.79 1.48 1.48 0 0 0 0.68 0.26Zm0 -1.93C7.09 1.86 8.18 0 9.09 1.3a1.1 1.1 0 0 1 0.23 0.9 0.93 0.93 0 0 1 -0.57 0.56 2.26 2.26 0 0 1 -1 0.2 4.27 4.27 0 0 1 -0.49 0A0.5 0.5 0 0 1 7 2.88c-0.25 -0.2 -0.18 -0.49 0 -0.76Z" fill="#4C57E6" fill-rule="evenodd" stroke-width="1"></path>
    <path d="M7.75 9.78A1.86 1.86 0 0 0 10 7.91c0 -2.09 -2.16 -2.36 -3.25 -1.81a1.71 1.71 0 0 0 -0.93 2.21 2.43 2.43 0 0 0 1.93 1.47Zm-0.59 -3A1.14 1.14 0 0 1 9 7.86a0.9 0.9 0 0 1 -1.12 0.8 1.35 1.35 0 0 1 -1.06 -0.76 0.84 0.84 0 0 1 0.34 -1.11Z" fill="#4C57E6" fill-rule="evenodd" stroke-width="1"></path>
    <path d="M6.18 12.24A2 2 0 0 0 6 14.05a2 2 0 0 0 1.43 1.27 2.55 2.55 0 0 0 1.62 -0.43 2.4 2.4 0 0 0 1.06 -1.28 1.7 1.7 0 0 0 -0.38 -1.52 2.51 2.51 0 0 0 -3.55 0.15Zm3 1.09c-0.09 0.25 -0.4 0.44 -0.71 0.61a1.43 1.43 0 0 1 -0.87 0.25 0.87 0.87 0 0 1 -0.6 -0.55 1.08 1.08 0 0 1 -0.09 -1c0.48 -0.94 1.94 -0.44 2.18 -0.1a0.81 0.81 0 0 1 0.13 0.79Z" fill="#4C57E6" fill-rule="evenodd" stroke-width="1"></path>
    <path d="M13.16 14.86a2.76 2.76 0 0 0 2.05 0.21 2.4 2.4 0 0 0 1.56 -1.34 1.88 1.88 0 0 0 -0.11 -1.62c-0.95 -1.68 -3.4 -0.66 -4.05 0.56a1.54 1.54 0 0 0 0.55 2.19Zm0.46 -2.1c0.66 -1.06 2 -0.94 2.31 -0.29a1 1 0 0 1 0 0.84 1.45 1.45 0 0 1 -1 0.68 1.72 1.72 0 0 1 -1.22 -0.13c-0.47 -0.21 -0.33 -0.71 -0.09 -1.1Z" fill="#4C57E6" fill-rule="evenodd" stroke-width="1"></path>
    <path d="M13.54 9a3.08 3.08 0 0 0 2.29 -0.17 1.46 1.46 0 0 0 0.86 -1.53 1.9 1.9 0 0 0 -0.47 -1 1.88 1.88 0 0 0 -2.64 -0.41 2.39 2.39 0 0 0 -0.92 1.75A1.36 1.36 0 0 0 13.54 9Zm2.22 -1.62c0 0.34 -0.32 0.46 -0.64 0.55a2.07 2.07 0 0 1 -1.18 0 0.44 0.44 0 0 1 -0.26 -0.51c0.15 -1.83 2.05 -1.16 2.08 -0.01Z" fill="#4C57E6" fill-rule="evenodd" stroke-width="1"></path>
    <path d="M14.74 4a2.49 2.49 0 0 0 1.77 -0.9 1.57 1.57 0 0 0 0.32 -1.43A2.38 2.38 0 0 0 15.67 0.29a3.48 3.48 0 0 0 -2.13 0.17A1.77 1.77 0 0 0 12.78 2a1.94 1.94 0 0 0 1.96 2Zm0.7 -2.93a1.46 1.46 0 0 1 0.45 0.82 0.74 0.74 0 0 1 -0.34 0.64 1.48 1.48 0 0 1 -0.84 0.33 1 1 0 0 1 -1 -0.92C13.52 0.4 15.31 1 15.44 1.1Z" fill="#4C57E6" fill-rule="evenodd" stroke-width="1"></path>
  </g>
</svg>