<svg xmlns="http://www.w3.org/2000/svg" viewBox="0 0 24 24" id="Disability-Sit-Cane--Streamline-Freehand">
  <desc>
    Disability Sit Cane Streamline Icon: https://streamlinehq.com
  </desc>
  <g>
    <path d="M12.43 5.81a3.13 3.13 0 0 0 2.4 -0.2 4 4 0 0 0 1 -0.71 2.67 2.67 0 0 0 0.5 -0.72 2.94 2.94 0 0 0 -1 -3.51 3 3 0 0 0 -3 -0.44 0.27 0.27 0 0 0 -0.17 0 3 3 0 0 0 -1.46 1.68 3.23 3.23 0 0 0 0 2.29 2.9 2.9 0 0 0 1.73 1.61Zm-1.06 -3.64A2.52 2.52 0 0 1 12 1.1a0.32 0.32 0 0 0 0.19 -0.05 2.24 2.24 0 0 1 2.61 0.3 2 2 0 0 1 0.53 2.38 1.7 1.7 0 0 1 -0.41 0.49 3.29 3.29 0 0 1 -0.59 0.41 2.11 2.11 0 0 1 -1.56 0.14 1.92 1.92 0 0 1 -1.25 -0.93 2.33 2.33 0 0 1 -0.15 -1.67Z" fill="#020202" fill-rule="evenodd" stroke-width="1"></path>
    <path d="M12 21.84a3.21 3.21 0 0 1 -0.6 0.83c-0.08 -0.07 -2.38 0.11 -2.38 0.11 -1.43 0.06 -1.78 0 -2.74 0l-1.21 0c-0.51 0 -1.11 0.14 -1.7 0.14a2.31 2.31 0 0 1 -0.61 -0.08 2.08 2.08 0 0 0 -0.1 -0.53l-0.25 -2.06c-0.15 -1.42 -0.26 -3.24 -0.33 -5.07 -0.03 -1.67 -0.08 -3.33 -0.08 -4.69a6.33 6.33 0 0 1 0.74 -0.12c0.62 -0.08 1.24 -0.1 1.87 -0.15 0 0 0.66 -0.1 0.75 0.46a10.38 10.38 0 0 1 0.1 1.26c0.1 1.17 0.1 2.34 0.15 3.51 0 0.43 0 0.85 0.09 1.27a0.34 0.34 0 0 0 -0.19 0.35 0.33 0.33 0 0 0 0.38 0.27 12.24 12.24 0 0 1 1.27 -0.09l1.3 0c0.43 0 0 -0.73 -0.42 -0.71l-0.92 0 -0.73 0.06 0.18 -4.71a8 8 0 0 0 -0.18 -1.67A2 2 0 0 0 6 9.4a0.82 0.82 0 0 0 -0.55 -0.27 4.49 4.49 0 0 0 -1 0.14c-0.62 0.13 -1.24 0.23 -1.86 0.38a8.08 8.08 0 0 0 -1.21 0.35 0.29 0.29 0 0 0 -0.19 0.37 0.28 0.28 0 0 0 0.22 0.17c0 1.64 -0.07 3.67 0 5.64 0 1.5 0.06 2.94 0.13 4.11l0.18 2.11a4.77 4.77 0 0 0 0.08 0.84 0.7 0.7 0 0 0 0.2 0.36 2.28 2.28 0 0 0 1.05 0.4 14.17 14.17 0 0 0 2.12 -0.09l1.15 0c1 0 1.34 0.11 2.79 0l2 -0.08 0.56 0a0.82 0.82 0 0 0 0.36 -0.15 3.18 3.18 0 0 0 0.81 -1 10 10 0 0 0 0.68 -1.5c0.26 -0.87 -0.68 -1.16 -1 -0.38a11 11 0 0 1 -0.52 1.04Z" fill="#4C57E6" fill-rule="evenodd" stroke-width="1"></path>
    <path d="M22.75 7.3a2 2 0 0 0 -1.69 -0.75 2.13 2.13 0 0 0 -1.66 0.93 1.78 1.78 0 0 0 -0.19 0.36 3 3 0 0 0 -0.45 -0.31A6.25 6.25 0 0 0 16 7l-0.77 0 -1.13 0.12 -1.21 0.13 -1 0.07a2.52 2.52 0 0 0 -1.42 0.68 4.73 4.73 0 0 0 -1.13 1.63l-0.52 1.17c-0.15 0.37 -0.32 0.74 -0.47 1.11a7.52 7.52 0 0 0 -0.27 0.8 4.9 4.9 0 0 0 0.05 3.1c0.67 1.58 1.47 1.41 2.09 1.36l1.78 -0.12 1.21 0c0.54 0 0.32 0.77 0.41 1.93 0 0.66 0.12 1.56 0.12 1.57a3.76 3.76 0 0 0 0.39 1.58 2.33 2.33 0 0 0 1.33 1.13 2.15 2.15 0 0 0 1.07 0.11 1.33 1.33 0 0 0 0.77 -0.45 2.84 2.84 0 0 0 0.53 -1.12 13.81 13.81 0 0 0 0.17 -2.45l0.06 -1.1a9.64 9.64 0 0 0 -0.17 -2.8 2.48 2.48 0 0 0 -1.26 -1.65 2.23 2.23 0 0 0 -0.69 -0.22 5.3 5.3 0 0 0 -1 -0.07 2.72 2.72 0 0 0 -0.64 0.05l-0.39 0.09 0.53 -1.53c0 -0.12 0.12 -0.32 0.21 -0.51s0.07 -0.19 0.14 -0.22l0.91 0c0.45 0 0.91 -0.06 1.37 -0.12 0.31 0 0.62 -0.08 0.93 -0.13a3.87 3.87 0 0 0 0.92 -0.27l0 0.87c0 1 0.08 2.09 0.17 3.13 0.22 2.6 0.61 5.18 1 7.76a0.33 0.33 0 0 0 0.37 0.28 0.32 0.32 0 0 0 0.28 -0.37c-0.13 -1.29 -0.24 -2.58 -0.35 -3.87 -0.12 -1.51 -0.19 -3 -0.28 -4.52S20 11.11 20 9.6a8 8 0 0 1 0 -1.1 1.34 1.34 0 0 1 0.17 -0.58 1.39 1.39 0 0 1 2.21 -0.24 0.3 0.3 0 0 0 0.41 0 0.29 0.29 0 0 0 -0.04 -0.38Zm-4.06 2.53a0.43 0.43 0 0 1 -0.25 0.21 2.7 2.7 0 0 1 -0.58 0.17c-0.28 0.07 -0.57 0.12 -0.86 0.17l-1.32 0.16 -0.72 0a1.3 1.3 0 0 0 -0.42 0.09 1 1 0 0 0 -0.41 0.39 5.8 5.8 0 0 0 -0.33 0.78l-0.67 2.2a0.33 0.33 0 0 0 0.2 0.42 0.3 0.3 0 0 0 0.35 -0.12l0.75 -0.12a3 3 0 0 1 0.52 0 5.2 5.2 0 0 1 0.84 0.13A1.51 1.51 0 0 1 17 15.68a9.22 9.22 0 0 1 0 2.52l-0.07 1.09c0 0.56 0 1.29 -0.08 2a2.16 2.16 0 0 1 -0.33 1 0.31 0.31 0 0 1 -0.24 0.12 1.05 1.05 0 0 1 -0.47 -0.05 1.45 1.45 0 0 1 -0.88 -0.64 2.86 2.86 0 0 1 -0.36 -1.21 3.81 3.81 0 0 1 0 -0.59 18.25 18.25 0 0 0 -0.2 -3.17 1 1 0 0 0 -1.1 -0.55l-1.27 0.01 -1.8 0.18a1.55 1.55 0 0 1 -1.51 -1.24A4.6 4.6 0 0 1 8.86 13c0.08 -0.24 0.18 -0.47 0.28 -0.7l0.52 -1.08 0.56 -1.09A4.73 4.73 0 0 1 11 9a1.45 1.45 0 0 1 1 -0.46l1 -0.05 1.28 -0.13 1.09 -0.12 0.71 0a5 5 0 0 1 2.26 0.33 0.84 0.84 0 0 1 0.55 0.85Z" fill="#020202" fill-rule="evenodd" stroke-width="1"></path>
  </g>
</svg>