<svg xmlns="http://www.w3.org/2000/svg" viewBox="0 0 24 24" id="Disability-Wheelchair-3--Streamline-Freehand">
  <desc>
    Disability Wheelchair 3 Streamline Icon: https://streamlinehq.com
  </desc>
  <g>
    <path d="m20.66 12.16 0.11 -2.25c0 -0.88 0 -1.79 -0.05 -2.71s-0.12 -1.74 -0.1 -2.59a8 8 0 0 1 0.29 -2.12 4 4 0 0 1 0.63 -1.37 1.22 1.22 0 0 1 0.71 -0.46 0.32 0.32 0 0 0 0.28 -0.37 0.34 0.34 0 0 0 -0.37 -0.29A1.92 1.92 0 0 0 21 0.62a4.76 4.76 0 0 0 -0.92 1.57 8.66 8.66 0 0 0 -0.55 3.16 18.07 18.07 0 0 0 0.15 2.32 1.49 1.49 0 0 0 0 0.21 0.3 0.3 0 0 0 -0.26 -0.14c-1.1 0 -3.8 -0.09 -6 -0.09a21.84 21.84 0 0 0 -2.62 0.11A12.58 12.58 0 0 0 9.08 8a1.24 1.24 0 0 0 -0.65 0.39 3.57 3.57 0 0 0 -0.52 1.09c-0.23 0.76 -0.34 1.7 -0.49 2.33 -0.33 1.45 -0.67 2.89 -1 4.34 -0.18 0.84 -0.34 1.69 -0.49 2.55a3.37 3.37 0 0 0 -1 0.6 0.3 0.3 0 0 0 -0.12 0.21 0.69 0.69 0 0 0 -0.11 0.13 2.66 2.66 0 0 0 -0.59 1.2 3 3 0 0 0 0 1.07l-1 -0.17 -0.46 0a3.71 3.71 0 0 0 -0.47 0 8.33 8.33 0 0 0 -1.1 0.25 0.3 0.3 0 0 0 0 0.59c0.37 0.06 0.7 0.17 1.07 0.23a3.71 3.71 0 0 0 0.47 0 3.55 3.55 0 0 0 0.46 0c0.38 -0.05 0.73 -0.13 1.11 -0.21l0.09 0a2.53 2.53 0 0 0 1 1 3 3 0 0 0 3 -0.09 2.81 2.81 0 0 0 -0.17 -4.68 2.47 2.47 0 0 0 -1.49 -0.28c0.19 -0.75 0.37 -1.49 0.58 -2.22 0.1 -0.36 0.21 -0.72 0.31 -1.08l1.24 0 0.64 0 0.64 -0.08L11 15a7 7 0 0 0 -0.53 3.92 6.11 6.11 0 0 0 2.32 3.77A6.25 6.25 0 0 0 17 24a7.06 7.06 0 0 0 5.86 -5 5.73 5.73 0 0 0 -2.2 -6.84Zm-13 7.4a1.78 1.78 0 0 1 0.75 1.54 1.66 1.66 0 0 1 -0.73 1.45 1.88 1.88 0 0 1 -1.9 0.09A1.56 1.56 0 0 1 5 21a2 2 0 0 1 0.49 -1.09 2.31 2.31 0 0 1 0.36 -0.34 2.14 2.14 0 0 1 0.73 -0.23 1.64 1.64 0 0 1 1.08 0.22ZM10 14.1l-0.67 0 -0.66 0.09c-0.3 0.07 -0.59 0.15 -0.89 0.24 0.24 -0.79 0.47 -1.59 0.71 -2.38 0.16 -0.62 0.3 -1.53 0.53 -2.27 0 0 0.08 -1 2 -0.95a24.35 24.35 0 0 1 2.48 -0.21c2.16 -0.11 4.86 -0.16 6 -0.23a0.31 0.31 0 0 0 0.28 -0.22c0.07 0.58 0.15 1.17 0.19 1.73l0.03 1.87c-0.28 -0.14 -0.56 -0.28 -0.84 -0.39a6.32 6.32 0 0 0 -1.29 -0.38 9.57 9.57 0 0 0 -1.68 -0.12 5 5 0 0 0 -1.14 0.16 0.32 0.32 0 0 0 -0.23 0.22 5.82 5.82 0 0 0 -3.12 2.35 6.42 6.42 0 0 0 -0.34 0.56c-0.47 -0.02 -0.93 -0.06 -1.36 -0.07Zm11.9 4.57a6 6 0 0 1 -5 4.2 5.28 5.28 0 0 1 -3.52 -1.06 5.18 5.18 0 0 1 -2 -3.09 6.37 6.37 0 0 1 0.95 -4.65 4.61 4.61 0 0 1 4 -2.34 0.29 0.29 0 0 0 0.26 -0.12 9.45 9.45 0 0 1 1.16 0.15 4.77 4.77 0 0 1 1.13 0.34 7.4 7.4 0 0 1 1.08 0.56 4.84 4.84 0 0 1 1.94 6.01Z" fill="#020202" fill-rule="evenodd" stroke-width="1"></path>
    <path d="M18.2 14.61a2.34 2.34 0 0 0 -1 -0.3 2.82 2.82 0 0 0 -0.71 0h-0.09a5.63 5.63 0 0 0 -0.68 0.17 0.32 0.32 0 0 0 -0.22 0.2 3.91 3.91 0 0 0 -0.87 0.64 3.41 3.41 0 0 0 -1 1.89 3.06 3.06 0 0 0 0.93 2.67 2.8 2.8 0 0 0 2.84 0.67 3.62 3.62 0 0 0 2.16 -2.81 2.88 2.88 0 0 0 -1.36 -3.13Zm0.38 3A2.58 2.58 0 0 1 17 19.53a1.75 1.75 0 0 1 -1.74 -0.41 2.13 2.13 0 0 1 -0.78 -1.77 2.53 2.53 0 0 1 0.62 -1.49 3.33 3.33 0 0 1 1 -0.75 3.71 3.71 0 0 1 0.81 -0.08 1.89 1.89 0 0 1 0.89 0.28 2 2 0 0 1 0.78 2.28Z" fill="#4C57E6" fill-rule="evenodd" stroke-width="1"></path>
  </g>
</svg>