<svg xmlns="http://www.w3.org/2000/svg" viewBox="0 0 24 24" id="Disability-Handcycle-2--Streamline-Freehand">
  <desc>
    Disability Handcycle 2 Streamline Icon: https://streamlinehq.com
  </desc>
  <g>
    <path d="M19.58 14.36a0.31 0.31 0 0 0 0.46 0 0.32 0.32 0 0 0 0 -0.45c-2 -2.16 -4 -3.9 -4.2 -4.09a6.24 6.24 0 0 1 2 -1.68 0.28 0.28 0 0 0 0.16 -0.37 0.28 0.28 0 0 0 -0.38 -0.15 6.22 6.22 0 0 0 -2.53 1.51l-0.05 0c-0.5 -0.39 -1 -0.78 -1.49 -1.18a1.56 1.56 0 0 0 -0.19 -2.42 1.94 1.94 0 0 0 -1.72 -0.33 0.3 0.3 0 0 0 -0.37 0 2.39 2.39 0 0 0 -0.83 0.9 1.78 1.78 0 0 0 -0.17 0.89 1.8 1.8 0 0 0 1.09 1.56A1.89 1.89 0 0 0 13 8.44c0.46 0.51 0.94 1 1.43 1.5l-0.15 0.22a5.81 5.81 0 0 0 -0.53 1.16 12.25 12.25 0 0 0 -0.57 2.82h-0.69a10.3 10.3 0 0 0 -1.83 -0.14s-1.06 0 -1.34 0 -0.68 -1.37 -0.68 -1.37c-0.23 -0.51 -0.46 -1 -0.71 -1.52 -0.38 -0.74 -0.79 -1.46 -1.23 -2.17a0.28 0.28 0 0 0 -0.39 -0.12 0.29 0.29 0 0 0 -0.12 0.39c0.28 0.62 0.54 1.25 0.78 1.88s0.46 1.27 0.65 1.91c0.08 0.22 0.19 0.74 0.32 1.16l-0.88 -0.11c-0.26 0 -0.51 0 -0.76 -0.05a6.6 6.6 0 0 0 -0.77 0c-0.6 0 -1.19 0.12 -1.79 0.2a0.29 0.29 0 1 0 0 0.57c0.6 0.09 1.18 0.21 1.78 0.28l0.76 0a6.6 6.6 0 0 0 0.77 0c0.47 0 0.94 -0.07 1.41 -0.13a1.49 1.49 0 0 0 0.82 0.19c0.52 0 1.19 -0.18 1.45 -0.21a8.76 8.76 0 0 1 1.78 0c0.18 0 0.43 0 0.8 -0.08a0.33 0.33 0 0 0 0.29 -0.32 0.29 0.29 0 0 0 0.23 -0.23 14.7 14.7 0 0 1 0.88 -2.55c0.16 -0.34 0.34 -0.66 0.53 -1a31.44 31.44 0 0 1 4.34 3.64Zm-7 -6.94a0.91 0.91 0 0 1 -0.87 0.17 0.93 0.93 0 0 1 -0.61 -1.21 0.42 0.42 0 0 0 0.17 -0.1 1.05 1.05 0 0 1 1.48 0c0.31 0.29 0.34 0.72 -0.17 1.14Z" fill="#020202" fill-rule="evenodd" stroke-width="1"></path>
    <path d="M24 13.82a3.91 3.91 0 0 0 -3.87 -3.72 4.71 4.71 0 0 0 -1.15 0.09 5.38 5.38 0 0 0 -1.1 0.35 0.33 0.33 0 0 0 -0.17 0.43 0.65 0.65 0 0 0 0.7 0.39 9.85 9.85 0 0 1 1.52 -0.19 0.29 0.29 0 0 0 0.31 -0.27v-0.05a3.1 3.1 0 0 1 2.78 3 3.11 3.11 0 0 1 -2.44 3.35 3 3 0 0 1 -2.37 -0.5 3.26 3.26 0 0 1 -1.44 -2 2.52 2.52 0 0 1 0.33 -2c0.14 -0.37 -0.39 -0.61 -0.65 -0.32a2.91 2.91 0 0 0 -0.58 2.47 4.17 4.17 0 0 0 1.74 2.73 4 4 0 0 0 3.22 0.71A4.11 4.11 0 0 0 24 13.82Z" fill="#4C57E6" fill-rule="evenodd" stroke-width="1"></path>
    <path d="M7.12 16.56a4.42 4.42 0 0 1 -0.69 0.68 3.65 3.65 0 0 1 -0.82 0.47 3.21 3.21 0 0 1 -2.75 -0.2 3.45 3.45 0 0 1 -1.68 -2.17 3.51 3.51 0 0 1 0.27 -2.5 2.7 2.7 0 0 1 1.93 -1.55 3.21 3.21 0 0 1 0.76 0 7 7 0 0 1 0.8 0.14 0.28 0.28 0 0 0 0.35 -0.21 0.29 0.29 0 0 0 -0.2 -0.35 7.28 7.28 0 0 0 -1 -0.24 3.76 3.76 0 0 0 -0.75 0 3.45 3.45 0 0 0 -2.7 1.79 4.51 4.51 0 0 0 -0.47 3.25 4.43 4.43 0 0 0 2.27 2.78 4 4 0 0 0 3.53 0 4.16 4.16 0 0 0 1 -0.63 6.14 6.14 0 0 0 0.67 -0.82 0.33 0.33 0 1 0 -0.52 -0.4Z" fill="#4C57E6" fill-rule="evenodd" stroke-width="1"></path>
  </g>
</svg>