<svg xmlns="http://www.w3.org/2000/svg" viewBox="0 0 24 24" id="Dog-Stand--Streamline-Freehand">
  <desc>
    Dog Stand Streamline Icon: https://streamlinehq.com
  </desc>
  <g>
    <path d="M22.64 4.67A1.81 1.81 0 0 0 21 4.06a0.67 0.67 0 0 0 -0.52 0.33 0.6 0.6 0 0 0 -0.09 0.36 2.27 2.27 0 0 0 0.09 0.38 3.31 3.31 0 0 1 0.08 0.55 3.22 3.22 0 0 1 -0.36 1.77 5.8 5.8 0 0 1 -0.76 1.14A2.45 2.45 0 0 1 19 9a3.78 3.78 0 0 0 -0.75 -0.38 10.85 10.85 0 0 0 -3.14 -0.49l-2.39 -0.27c-0.39 0 -0.78 0 -1.17 -0.07a2.22 2.22 0 0 1 -0.61 -0.17 1.55 1.55 0 0 1 -0.55 -0.43c-0.29 -0.32 -0.51 -0.72 -0.77 -1.07L7 2.35l-0.64 -0.78L6 1.18 5.67 0.94c-0.5 -0.35 -0.81 -0.2 -1 0.09a3.87 3.87 0 0 0 -0.21 1.53c0 0.26 -0.06 0.53 -0.07 0.79a2.67 2.67 0 0 0 0 0.4 2.79 2.79 0 0 0 -0.39 0.1c-0.31 0.11 -0.61 0.26 -0.88 0.37a4.22 4.22 0 0 0 -0.92 0.4 1.36 1.36 0 0 0 -0.46 0.71l-0.4 1.46 -1.22 0.98a3.12 3.12 0 0 0 -0.43 0.34 0.76 0.76 0 0 0 -0.21 0.41 1.42 1.42 0 0 0 0.12 0.7 5.65 5.65 0 0 0 0.67 1 4.16 4.16 0 0 0 1.29 1.23 1.85 1.85 0 0 0 1.3 0.12l0.74 -0.21 0.73 -0.19a0.32 0.32 0 0 0 0.19 -0.17 1.34 1.34 0 0 1 0.57 0.85 7.79 7.79 0 0 1 0.1 2l0 5.45 0 2.28a7.12 7.12 0 0 0 -0.06 0.78 0.51 0.51 0 0 0 0.11 0.32 1.07 1.07 0 0 0 0.63 0.35 4.87 4.87 0 0 0 1.2 0l1 0c0.18 0 0.4 -0.08 0.42 -0.33s0.09 -0.79 0.15 -1.19c0 -0.25 0.09 -0.51 0.15 -0.75s0.15 -0.58 0.22 -0.86c0.1 -0.45 0.2 -0.89 0.27 -1.34a10.56 10.56 0 0 0 0.13 -1.68h0.13a1.39 1.39 0 0 1 0.41 0c0.38 0 0.77 0.16 1.12 0.2s0.77 0 1.15 0a14.42 14.42 0 0 0 1.7 -0.3 0.3 0.3 0 0 0 0.23 -0.14 8.42 8.42 0 0 0 0.57 1.07l1 1a0.88 0.88 0 0 1 0 0.33l0 0.52 -0.17 2a2.51 2.51 0 0 0 0 1.25 0.86 0.86 0 0 0 0.54 0.49l0.54 0.12 1.09 -0.07c0.06 0 0.63 -0.4 0.6 -0.64a1.49 1.49 0 0 1 0.07 -0.69c0.18 -0.61 0.57 -1.22 0.74 -1.78l0.33 -1.66 0.51 -1.13a14 14 0 0 0 0.64 -2.43 10.35 10.35 0 0 0 0.08 -2.55c0 -0.24 -0.06 -0.5 -0.11 -0.76a3.61 3.61 0 0 0 2.18 -1.77 5.52 5.52 0 0 0 0.75 -2.92 3.84 3.84 0 0 0 -0.87 -2.35Zm-2.95 10.07a12.35 12.35 0 0 1 -0.53 2.3l-0.47 1.18 -0.28 1.66c-0.16 0.57 -0.53 1.19 -0.69 1.81a2.38 2.38 0 0 0 -0.08 0.87l-1 0 -0.32 -0.1c-0.1 0 -0.09 -0.13 -0.09 -0.22a4.4 4.4 0 0 1 0.14 -0.65c0.08 -0.34 0.15 -0.68 0.2 -1s0.1 -0.68 0.14 -1a4.52 4.52 0 0 0 0 -0.75 1.87 1.87 0 0 0 -0.14 -0.63 1.31 1.31 0 0 0 -0.26 -0.37c-0.25 -0.27 -0.64 -0.49 -0.85 -0.75a7.15 7.15 0 0 1 -1 -1.61 6.69 6.69 0 0 1 -0.46 -1.9 0.28 0.28 0 1 0 -0.55 0 7 7 0 0 0 0.33 2.07c0 0.13 0.09 0.25 0.13 0.38h-0.09c-0.56 0 -1.11 -0.09 -1.68 -0.1l-1.12 0c-0.38 0 -0.77 0.06 -1.15 0.14a2.15 2.15 0 0 0 -0.51 0.15v-0.11a0.28 0.28 0 1 0 -0.56 0 16.73 16.73 0 0 1 -0.54 2.11c-0.09 0.31 -0.17 0.61 -0.24 0.92 -0.1 0.46 -0.16 0.92 -0.22 1.38l0 0.85 0 0.94h-0.72c-0.23 0 -0.59 0 -0.9 -0.05l-0.14 0a2.39 2.39 0 0 0 0 -0.63l0.13 -2.34 0 -2.74c0 -0.91 -0.09 -1.83 -0.16 -2.75a9 9 0 0 0 -0.32 -2.15 1.9 1.9 0 0 0 -1 -1.19c-0.09 0 -0.07 -0.06 -0.55 0.1l-0.69 0.11 -0.73 0.15a1.11 1.11 0 0 1 -0.72 -0.16 3 3 0 0 1 -0.94 -1.06 6.34 6.34 0 0 1 -0.45 -0.69l0 -0.08c0.08 -0.06 0.16 -0.18 0.2 -0.21l1.3 -1.07a0.72 0.72 0 0 0 0.17 -0.22A2.51 2.51 0 0 0 2.34 7l0.28 -1.51a0.55 0.55 0 0 1 0.2 -0.36 5.23 5.23 0 0 1 0.63 -0.32c0.25 -0.13 0.52 -0.31 0.81 -0.44a1.54 1.54 0 0 1 0.5 -0.16A0.27 0.27 0 0 0 5 4a0.21 0.21 0 0 0 0 -0.12 1.77 1.77 0 0 1 0 -0.46 6.39 6.39 0 0 1 0.09 -0.75c0 -0.17 0 -0.6 0.06 -1a1.12 1.12 0 0 1 0.1 -0.22l0.2 0.18 0.32 0.37 0.59 0.79L8.81 6.7c0.27 0.38 0.49 0.81 0.79 1.16a2.67 2.67 0 0 0 0.85 0.71 3.32 3.32 0 0 0 0.69 0.24c0.47 0.09 1 0.09 1.44 0.14l2.42 0.28a9.5 9.5 0 0 1 2.83 0.41 2.65 2.65 0 0 1 1.33 1 2.28 2.28 0 0 1 0.29 0.63 7.15 7.15 0 0 1 0.24 1.15 9.4 9.4 0 0 1 0 2.32ZM22 9.39a2.88 2.88 0 0 1 -1.6 1.54 3.14 3.14 0 0 0 -0.38 -0.85 3.75 3.75 0 0 0 -0.56 -0.67 3.82 3.82 0 0 0 0.41 -0.41 6.29 6.29 0 0 0 1 -1.2 4.3 4.3 0 0 0 0.6 -1.5 4 4 0 0 0 0 -0.7 4.36 4.36 0 0 0 0 -0.51 1.12 1.12 0 0 1 0.53 0.51 3 3 0 0 1 0.45 1.34A4.57 4.57 0 0 1 22 9.39Z" fill="#020202" fill-rule="evenodd" stroke-width="1"></path>
    <path d="M20 3a0.26 0.26 0 0 0 0 -0.34 0.28 0.28 0 0 0 -0.39 0.07 7.14 7.14 0 0 0 -1 1.84c-0.22 0.57 0.19 1 0.53 0.71a1.07 1.07 0 0 0 0.22 -0.47A6.72 6.72 0 0 1 20 3Z" fill="#4C57E6" fill-rule="evenodd" stroke-width="1"></path>
    <path d="M22.74 3.12a0.28 0.28 0 0 1 0.34 -0.44 2.26 2.26 0 0 1 1.44 1.66c0 0.48 -0.45 0.69 -0.53 0.22a2 2 0 0 0 -1.25 -1.44Z" fill="#4C57E6" fill-rule="evenodd" stroke-width="1"></path>
  </g>
</svg>