<svg xmlns="http://www.w3.org/2000/svg" viewBox="0 0 24 24" id="Dog-Allowed--Streamline-Freehand">
  <desc>
    Dog Allowed Streamline Icon: https://streamlinehq.com
  </desc>
  <g>
    <path d="M15.84 8.43c-0.45 -0.6 -0.88 -1.12 -1.26 -1.69A5.76 5.76 0 0 1 14 5.59c-0.23 -0.51 -0.42 -1 -0.66 -1.5a6.16 6.16 0 0 0 -0.59 -1 3.19 3.19 0 0 0 -0.49 -0.59 0.83 0.83 0 0 0 -0.51 -0.22 0.48 0.48 0 0 0 -0.39 0.15 4.93 4.93 0 0 0 -0.52 0.79c-0.17 0.34 -0.33 0.69 -0.47 1.05s-0.41 1 -0.61 1.56A0.23 0.23 0 0 0 9.7 6c-0.52 0.26 -1.07 0.46 -1.59 0.72a4.31 4.31 0 0 0 -0.87 0.53c-0.17 0.14 -0.38 0.28 -0.55 0.45a1.41 1.41 0 0 0 -0.22 0.34 1.57 1.57 0 0 0 -0.12 0.57 7.19 7.19 0 0 0 0.06 0.91 0.79 0.79 0 0 1 -0.07 0.53 2.22 2.22 0 0 1 -0.41 0.46c-0.42 0.39 -0.94 0.73 -1.33 1.09 -0.1 0.1 -0.42 0.28 -0.57 0.45a0.76 0.76 0 0 0 -0.2 0.5 1.51 1.51 0 0 0 0.12 0.61c0.13 0.31 0.36 0.61 0.48 0.87L5 15c0.2 0.26 0.36 0.56 0.57 0.83a2.34 2.34 0 0 0 0.38 0.39 2.7 2.7 0 0 0 1.69 0.57c1.07 0 2.27 -0.5 3.27 -0.13a1.21 1.21 0 0 1 0.5 0.37 3.56 3.56 0 0 1 0.42 0.62l1.28 2.77a0.32 0.32 0 0 0 0.44 0.15 0.32 0.32 0 0 0 0.14 -0.43l-0.52 -1.28a5.86 5.86 0 0 0 0.55 -0.3c0.35 -0.23 0.67 -0.51 1 -0.77 0.54 -0.43 1.09 -0.85 1.6 -1.32q0.39 -0.36 0.75 -0.75c0.23 -0.26 0.45 -0.54 0.66 -0.81l1 -1.44 0.43 0.51a0.33 0.33 0 0 0 0.46 0.05 0.32 0.32 0 0 0 0.06 -0.45Zm-4.6 7.38c-1.06 -0.45 -2.39 0 -3.55 -0.1a1.69 1.69 0 0 1 -1.05 -0.36 1.64 1.64 0 0 1 -0.27 -0.35c-0.17 -0.24 -0.31 -0.5 -0.48 -0.73l-0.48 -0.74c-0.11 -0.21 -0.28 -0.46 -0.41 -0.71a0.73 0.73 0 0 1 -0.09 -0.23c0.13 -0.1 0.38 -0.19 0.43 -0.24 0.37 -0.38 0.87 -0.74 1.27 -1.15a3 3 0 0 0 0.53 -0.67 1.45 1.45 0 0 0 0.19 -0.6 4.64 4.64 0 0 0 -0.11 -1 1.22 1.22 0 0 1 0 -0.63 0.58 0.58 0 0 1 0.11 -0.18l0.39 -0.34a3.8 3.8 0 0 1 0.71 -0.5c0.65 -0.38 1.13 -0.48 1.74 -0.91 0.35 -0.25 0.17 -0.24 0.78 -1.88a5.22 5.22 0 0 1 0.53 -0.95 2.7 2.7 0 0 0 0.22 -0.21 1.5 1.5 0 0 1 0.22 0.22 6.76 6.76 0 0 1 0.45 0.89c0.2 0.49 0.38 1 0.57 1.49a7 7 0 0 0 0.73 1.35c0.4 0.59 0.86 1.11 1.34 1.72l1.27 1.5c-0.49 0.61 -1 1.16 -1.58 1.74s-0.81 0.88 -1.21 1.33c-0.67 0.77 -1.31 1.57 -1.94 2.34a3.07 3.07 0 0 0 -0.31 -0.1Zm5.84 -1.54c-0.23 0.22 -0.48 0.42 -0.72 0.64l-1.07 1c-0.4 0.38 -0.78 0.78 -1.17 1.16s-0.54 0.6 -0.85 0.86l-0.35 0.26 -0.38 -0.92a4.16 4.16 0 0 0 -0.52 -0.84c0.66 -0.61 1.36 -1.19 2 -1.84a17.68 17.68 0 0 0 1.26 -1.34 15.1 15.1 0 0 0 1.41 -2.16L18.32 13Z" fill="#020202" fill-rule="evenodd" stroke-width="1"></path>
    <path d="M23.59 8.37a11.47 11.47 0 0 0 -2.53 -5.07 7.3 7.3 0 0 0 -1.24 -1.12 11.64 11.64 0 0 0 -1.38 -0.85 15.15 15.15 0 0 0 -1.81 -0.88A5.41 5.41 0 0 0 15.29 0.1a12 12 0 0 0 -1.8 -0.1c-3.33 0.07 -2.78 -0.21 -4.36 0.14a12.46 12.46 0 0 0 -1.79 0.62 11.42 11.42 0 0 0 -1.89 0.93A10.31 10.31 0 0 0 3.76 3a9 9 0 0 0 -1.17 1.3 15.39 15.39 0 0 0 -0.93 1.44 13.26 13.26 0 0 0 -0.84 1.53 8.84 8.84 0 0 0 -0.41 1.16 10.59 10.59 0 0 0 -0.31 2.83 13.6 13.6 0 0 0 0.4 2.81 13.37 13.37 0 0 0 4.33 7.09A11.93 11.93 0 0 0 12.67 24a9.33 9.33 0 0 0 5.39 -1.9 13.78 13.78 0 0 0 3.73 -4.24c0.41 -0.72 0.82 -1.45 1.16 -2.2a9.09 9.09 0 0 0 0.58 -1.61 12 12 0 0 0 0.06 -5.68Zm-1 5.43a8.43 8.43 0 0 1 -0.54 1.45c-0.34 0.72 -0.75 1.41 -1.15 2.09a12.56 12.56 0 0 1 -3.47 3.89 8.32 8.32 0 0 1 -4.77 1.68 11 11 0 0 1 -7.14 -2.57 12.46 12.46 0 0 1 -4.1 -6.5A13.26 13.26 0 0 1 1 11.23a9.24 9.24 0 0 1 0.24 -2.6 6.21 6.21 0 0 1 0.34 -1c0.22 -0.52 0.49 -1 0.76 -1.52a14 14 0 0 1 0.87 -1.41 8.52 8.52 0 0 1 1 -1.21 10.1 10.1 0 0 1 1.6 -1.22 12.33 12.33 0 0 1 1.77 -0.91A11.76 11.76 0 0 1 9 0.87c1.59 -0.45 0.44 -0.09 4.52 -0.15A12 12 0 0 1 15.2 0.8a5 5 0 0 1 1.17 0.32 15.07 15.07 0 0 1 1.7 0.87 10.37 10.37 0 0 1 1.29 0.82 7 7 0 0 1 1.09 1 10.74 10.74 0 0 1 2.28 4.74 11.18 11.18 0 0 1 -0.14 5.25Z" fill="#4C57E6" fill-rule="evenodd" stroke-width="1"></path>
  </g>
</svg>