<svg xmlns="http://www.w3.org/2000/svg" viewBox="0 0 24 24" id="Dog-Walk--Streamline-Freehand">
  <desc>
    Dog Walk Streamline Icon: https://streamlinehq.com
  </desc>
  <g>
    <path d="M13.2 21.13a10.59 10.59 0 0 0 -0.58 -3.28c-0.28 -0.9 -0.54 -1.83 -0.89 -2.73a10.76 10.76 0 0 0 -0.87 -1.77l-1.16 -2c-0.42 -0.73 -0.8 -1.49 -1.25 -2.2a8.88 8.88 0 0 0 -1.07 -1.44 4.35 4.35 0 0 0 -1 -0.8 0.45 0.45 0 0 0 -0.5 0.07 3.18 3.18 0 0 0 -0.65 1.18 13.46 13.46 0 0 0 -0.36 1.46 10.91 10.91 0 0 0 -1.15 0.38 1.87 1.87 0 0 0 -0.61 0.37 1.42 1.42 0 0 0 -0.33 0.53c-0.13 0.31 -0.12 0.67 -0.33 0.93a3.92 3.92 0 0 1 -0.9 0.71 2.5 2.5 0 0 0 -0.73 0.76 1.51 1.51 0 0 0 -0.08 1.27l0.29 0.59a2.44 2.44 0 0 0 0.86 0.69 7.8 7.8 0 0 0 1.31 0.49c0.5 0.13 0.91 -0.41 1 1.11 0 0.63 -0.07 1.29 -0.1 1.82s0 1 0 1.51c0 0.74 0.08 1.48 0.13 2.22a0.31 0.31 0 0 0 0.32 0.31 0.33 0.33 0 0 0 0.27 -0.31l0 -2.21c0 -0.48 0 -1 0.08 -1.44a16.42 16.42 0 0 0 0.21 -2.22 3.14 3.14 0 0 0 -0.2 -1.13 1 1 0 0 0 -0.54 -0.5 9 9 0 0 0 -0.88 -0.21 5.82 5.82 0 0 1 -1.11 -0.42 1.33 1.33 0 0 1 -0.51 -0.36l-0.15 -0.3a0.61 0.61 0 0 1 0.07 -0.65c0.36 -0.44 1 -0.76 1.34 -1.28a1.53 1.53 0 0 0 0.18 -0.39c0.1 -0.35 0 -0.76 0.3 -1.07a1.67 1.67 0 0 1 0.55 -0.34 2 2 0 0 1 0.89 -0.25 0.28 0.28 0 0 0 0.34 -0.2 14.7 14.7 0 0 1 0.49 -1.68 2.81 2.81 0 0 1 0.43 -0.77 5.35 5.35 0 0 1 0.48 0.62 9.47 9.47 0 0 1 0.88 1.32c0.41 0.73 0.74 1.49 1.13 2.23l1.2 2.16a11.94 11.94 0 0 1 0.8 1.6c0.36 0.87 0.65 1.76 1 2.64a9.26 9.26 0 0 1 0.69 3 1.85 1.85 0 0 1 -0.67 1.58 2.4 2.4 0 0 1 -0.27 0.16 9 9 0 0 1 -2.44 0A1.85 1.85 0 0 1 7.58 22a1.94 1.94 0 0 1 -0.14 -1.48 3.49 3.49 0 0 1 0.8 -1.45 2.12 2.12 0 0 1 0.69 -0.53 1.14 1.14 0 0 1 0.77 -0.09 0.26 0.26 0 0 0 0.35 -0.16 0.28 0.28 0 0 0 -0.17 -0.29 1.66 1.66 0 0 0 -1 0 2.87 2.87 0 0 0 -1.17 0.68 4.19 4.19 0 0 0 -1.22 2.12 2.7 2.7 0 0 0 0.18 1.75 2.62 2.62 0 0 0 2.13 1.46c3.62 0.29 4.28 -0.7 4.4 -2.88Z" fill="#020202" fill-rule="evenodd" stroke-width="1"></path>
    <path d="M17 18.65a0.32 0.32 0 0 0 -0.37 0.25 8.15 8.15 0 0 1 -0.47 1.74 3 3 0 0 1 -0.64 0.91 3.19 3.19 0 0 1 -0.66 0.48 6.26 6.26 0 0 1 -0.8 0.35 3.44 3.44 0 0 1 -0.55 0.15l-0.11 0c-0.57 0.24 -0.87 0.9 -0.41 1.06 0.24 0 0.49 -0.08 0.73 -0.14a4 4 0 0 0 0.69 -0.23 5.23 5.23 0 0 0 1.06 -0.58 3.14 3.14 0 0 0 0.64 -0.56 3.87 3.87 0 0 0 0.73 -1.18 9.34 9.34 0 0 0 0.41 -1.9 0.32 0.32 0 0 0 -0.25 -0.35Z" fill="#4C57E6" fill-rule="evenodd" stroke-width="1"></path>
    <path d="M23.16 9a4.61 4.61 0 0 0 -1 -2 2.75 2.75 0 0 0 -0.55 -0.48c-0.4 -0.27 -0.85 -0.46 -1.24 -0.76a4.46 4.46 0 0 0 0.33 -0.43 3.66 3.66 0 0 0 0.56 -2.94A3.06 3.06 0 0 0 19.57 0.42a4.24 4.24 0 0 0 -4 0.18A3.47 3.47 0 0 0 14.23 3a3.6 3.6 0 0 0 1.07 2.75l0.08 0.07a3.86 3.86 0 0 0 -1.93 1.87 7.89 7.89 0 0 0 -0.74 2.31 16.31 16.31 0 0 0 -0.19 2.31 11.17 11.17 0 0 0 0 1.52A2.69 2.69 0 0 0 13 14.9a1.89 1.89 0 0 0 1.39 0.83 1.32 1.32 0 0 0 0.67 -0.15 2.62 2.62 0 0 1 0 0.28 0.32 0.32 0 0 0 0.29 0.35 0.32 0.32 0 0 0 0.34 -0.28c0.11 -0.5 0.22 -1 0.3 -1.5 0 -0.21 0.06 -0.42 0.08 -0.63s0 -0.42 0 -0.63l0 -0.68a0.14 0.14 0 0 0 0 -0.07 5.32 5.32 0 0 1 0 -0.69 0.28 0.28 0 0 0 -0.54 -0.14 8.13 8.13 0 0 0 -0.53 1.68 7.31 7.31 0 0 0 0 1.05l0 0.13a2.7 2.7 0 0 1 -0.18 0.25 0.43 0.43 0 0 1 -0.49 0.13 1 1 0 0 1 -0.53 -0.46 1.77 1.77 0 0 1 -0.19 -0.71 12.63 12.63 0 0 1 0 -1.38c0 -0.65 0.05 -1.41 0.14 -2.18a8.24 8.24 0 0 1 0.44 -2.1 3.16 3.16 0 0 1 1.7 -1.8 3.61 3.61 0 0 0 2.19 0.68 3.19 3.19 0 0 0 1.85 -0.83l0.05 0.06c0.36 0.35 0.8 0.58 1.17 0.91a1.78 1.78 0 0 1 0.37 0.4 4.39 4.39 0 0 1 0.65 1.76 12.7 12.7 0 0 1 0.12 3 7.54 7.54 0 0 1 -0.08 2.07 0.9 0.9 0 0 1 -0.74 0.67l-0.26 0h-0.05c-0.09 -1.11 -0.21 -2.22 -0.35 -3.33a0.27 0.27 0 0 0 -0.3 -0.26 0.29 0.29 0 0 0 -0.25 0.3l0 4.45 0 1.11 0 2.22 0 1.49a3.81 3.81 0 0 1 -0.26 1.8 0.53 0.53 0 0 1 -0.73 0.2 0.3 0.3 0 0 0 -0.41 0.16 0.31 0.31 0 0 0 0.16 0.41 1.14 1.14 0 0 0 1.6 -0.38 4.61 4.61 0 0 0 0.55 -2.09c0 -0.78 0.09 -1.55 0.1 -2.33s0 -1.56 0 -2.34l0 -0.67a1.53 1.53 0 0 0 0.37 0A1.62 1.62 0 0 0 23 14.57a8.73 8.73 0 0 0 0.31 -2.29A11 11 0 0 0 23.16 9Zm-3.35 -4.29A2.46 2.46 0 0 1 18 5.86 2.78 2.78 0 0 1 16 5a2.67 2.67 0 0 1 -0.92 -2 2.58 2.58 0 0 1 0.94 -1.87 3.28 3.28 0 0 1 3.18 -0.08 2.23 2.23 0 0 1 1.13 1.49 2.68 2.68 0 0 1 -0.52 2.17Z" fill="#020202" fill-rule="evenodd" stroke-width="1"></path>
  </g>
</svg>