<svg xmlns="http://www.w3.org/2000/svg" viewBox="0 0 24 24" id="Dog-Poop-Bag--Streamline-Freehand">
  <desc>
    Dog Poop Bag Streamline Icon: https://streamlinehq.com
  </desc>
  <g>
    <path d="M19.57 12a6.83 6.83 0 0 0 -2.25 -2.41 14.7 14.7 0 0 0 -3.77 -1.71c-0.35 0.07 -0.39 0.29 -0.2 0.5a12.26 12.26 0 0 1 3.55 1.8 6.17 6.17 0 0 1 2 2.19 6.56 6.56 0 0 1 0.71 3.1 8 8 0 0 1 -0.72 3.13 9 9 0 0 1 -1 1.78 5.46 5.46 0 0 1 -1.39 1.36 6.94 6.94 0 0 1 -2.52 1 10.65 10.65 0 0 1 -2.78 0.19 8.87 8.87 0 0 1 -1.35 -0.16 5.77 5.77 0 0 1 -1.26 -0.39 6.46 6.46 0 0 1 -0.9 -0.49 8.71 8.71 0 0 1 -0.83 -0.64A9 9 0 0 1 5.68 20a5.66 5.66 0 0 1 -0.84 -1.41 7.45 7.45 0 0 1 -0.33 -4.13 9.66 9.66 0 0 1 1.72 -3.88A15.65 15.65 0 0 1 7.57 9 1.83 1.83 0 0 1 8 8.63a0.3 0.3 0 0 0 -0.44 -0.37 2 2 0 0 0 -0.4 0.31 17 17 0 0 0 -1.43 1.66 10.26 10.26 0 0 0 -2 4.11A8.31 8.31 0 0 0 4 19a6.74 6.74 0 0 0 0.94 1.67A10.45 10.45 0 0 0 6.2 22a9.21 9.21 0 0 0 0.92 0.73 6.74 6.74 0 0 0 1 0.59 6.62 6.62 0 0 0 1.47 0.46 11.08 11.08 0 0 0 1.49 0.2 11.54 11.54 0 0 0 3.06 -0.22 7.87 7.87 0 0 0 2.9 -1.17A6.63 6.63 0 0 0 18.71 21a10.29 10.29 0 0 0 1 -2 9.06 9.06 0 0 0 0.72 -3.5 7.34 7.34 0 0 0 -0.86 -3.5Z" fill="#020202" fill-rule="evenodd" stroke-width="1"></path>
    <path d="M8.9 8.67a7.28 7.28 0 0 0 2.52 0.1c0.19 0 1.82 -0.51 1.86 -1.25a2.35 2.35 0 0 0 -0.16 -0.52c-0.1 -0.33 -0.31 -1.75 -1.19 -1.57 -0.47 0.11 0 0 -1 0.39A3.33 3.33 0 0 1 9.56 6c-1 -0.13 -1.34 0.08 -1.46 0.39s-0.51 1.97 0.8 2.28Zm-0.23 -2a0.27 0.27 0 0 0 0 -0.12 4 4 0 0 0 0.85 0.17 6.89 6.89 0 0 0 1.58 -0.1l0.51 -0.08a1.4 1.4 0 0 0 0.29 -0.09l0 0.15c0.07 0.23 0.1 0.49 0.15 0.68a0.19 0.19 0 0 1 0 0.08 3.74 3.74 0 0 1 -1 0.45A4 4 0 0 1 9.7 8a1.36 1.36 0 0 1 -1 -0.35 1.08 1.08 0 0 1 -0.03 -1Z" fill="#4C57E6" fill-rule="evenodd" stroke-width="1"></path>
    <path d="M8.25 5.56c-0.41 -0.25 -0.59 -0.2 -0.94 -0.53a3.43 3.43 0 0 1 -0.82 -1.19 1.62 1.62 0 0 1 -0.1 -0.84 0.91 0.91 0 0 1 0.35 -0.59 0.85 0.85 0 0 1 0.64 -0.12 1.63 1.63 0 0 1 0.73 0.29l0.44 0.42 0.2 0.26a0.49 0.49 0 0 0 0.49 0.08 0.46 0.46 0 0 0 0.34 -0.52 2.3 2.3 0 0 1 0.34 -1.21c0.18 -0.29 0.42 -0.55 0.77 -0.51a0.66 0.66 0 0 1 0.36 0.19 1.76 1.76 0 0 1 0.33 0.49l0.12 0.22a2.61 2.61 0 0 0 0.06 0.32 0.51 0.51 0 0 0 0.24 0.24 0.51 0.51 0 0 0 0.5 0 6.66 6.66 0 0 0 1 -0.94 1 1 0 0 1 0.31 -0.19 0.6 0.6 0 0 1 0.71 0.33 1.39 1.39 0 0 1 0.15 1.06 2.63 2.63 0 0 1 -0.54 0.92c-0.5 0.6 -0.8 0.69 -1.3 1.32 -0.39 0.21 0 0.65 0.37 0.5 0.52 -0.59 1 -0.76 1.49 -1.32a3.62 3.62 0 0 0 0.74 -1.14 2.28 2.28 0 0 0 -0.3 -2.1 1.39 1.39 0 0 0 -1.52 -0.5 1.79 1.79 0 0 0 -0.67 0.35 5.51 5.51 0 0 0 -0.43 0.41 2.35 2.35 0 0 0 -0.68 -0.91 1.61 1.61 0 0 0 -0.82 -0.35 1.73 1.73 0 0 0 -1.56 0.7 3.37 3.37 0 0 0 -0.56 1.12l-0.06 -0.05a2.62 2.62 0 0 0 -1.41 -0.39 1.66 1.66 0 0 0 -1.57 1.29 2.31 2.31 0 0 0 0.18 1.46 3.82 3.82 0 0 0 1.06 1.38c0.64 0.5 0.91 0.62 1 0.61s0.78 -0.31 0.36 -0.56Z" fill="#020202" fill-rule="evenodd" stroke-width="1"></path>
    <path d="M17.43 15.33a1.35 1.35 0 0 0 -1.23 -0.08l-0.17 0.07a1.06 1.06 0 0 0 0.06 -0.34 1.48 1.48 0 0 0 -0.73 -1.3 1.37 1.37 0 0 0 -0.38 -0.15 1.21 1.21 0 0 0 -0.38 0 2.17 2.17 0 0 0 -0.42 0.11 1.33 1.33 0 0 0 -0.24 0.1 4.23 4.23 0 0 0 0 -0.48 3.39 3.39 0 0 0 -0.11 -0.43 2.09 2.09 0 0 0 -0.17 -0.41 2 2 0 0 0 -0.21 -0.35 1.56 1.56 0 0 0 -0.33 -0.29l-0.24 -0.15a1 1 0 0 0 -0.87 -0.11 0.94 0.94 0 0 0 -0.49 0.49 1.48 1.48 0 0 1 -0.3 0.5c-0.34 0.33 -0.84 0.59 -1.17 1a1.87 1.87 0 0 0 -0.4 0.73 1.12 1.12 0 0 0 0.24 1.21 2.16 2.16 0 0 0 -1.22 0.92 1 1 0 0 0 0.3 1.32 1.74 1.74 0 0 0 -0.47 0.38 2 2 0 0 0 -0.5 1 1.83 1.83 0 0 0 0.74 1.71 4.78 4.78 0 0 0 2.25 0.95 6.29 6.29 0 0 0 3.76 -0.86 7.5 7.5 0 0 0 2.73 -2.66 2.92 2.92 0 0 0 0.23 -0.47 3.05 3.05 0 0 0 0.17 -0.51l0.09 -0.79a1.37 1.37 0 0 0 -0.54 -1.11Zm-0.36 1.72a1.66 1.66 0 0 1 -0.14 0.37l-0.2 0.37A6.84 6.84 0 0 1 14.25 20a5.41 5.41 0 0 1 -3.15 0.71 3.77 3.77 0 0 1 -1.48 -0.52c-0.39 -0.24 -0.75 -0.53 -0.7 -1a1.11 1.11 0 0 1 0.24 -0.6 0.92 0.92 0 0 1 0.52 -0.33l0.55 -0.06h0.26l0.21 0a0.37 0.37 0 0 0 0.31 -0.34 0.39 0.39 0 0 0 -0.06 -0.27 0.41 0.41 0 0 0 -0.23 -0.16c-0.33 -0.07 -0.63 -0.06 -0.93 -0.12a1 1 0 0 1 -0.41 -0.2 0.46 0.46 0 0 1 -0.09 -0.7 4.53 4.53 0 0 1 1.92 -0.94 0.27 0.27 0 0 0 0.18 -0.34A0.27 0.27 0 0 0 11 15a0.82 0.82 0 0 1 -0.68 -0.05c-0.11 -0.09 0 -0.24 0 -0.47a0.9 0.9 0 0 1 0.28 -0.33c0.35 -0.32 0.84 -0.55 1.19 -0.83a1.68 1.68 0 0 0 0.42 -0.57c0.12 -0.24 -0.06 -0.31 0.13 -0.21l0.15 0.06 0.28 0.27 0.27 0.58a1.66 1.66 0 0 1 0.08 0.61c0 0.44 -0.45 0.76 -0.1 1a0.31 0.31 0 0 0 0.43 -0.08c0.05 -0.07 0.1 -0.14 0.14 -0.21l0.1 -0.06a1.4 1.4 0 0 1 0.34 -0.13l0.54 0 0.15 0.06a0.6 0.6 0 0 1 0.34 0.61 2.53 2.53 0 0 1 -0.72 1.43 0.31 0.31 0 1 0 0.46 0.42 6.61 6.61 0 0 1 0.73 -0.68 2.71 2.71 0 0 1 0.81 -0.42 0.64 0.64 0 0 1 0.66 0 0.6 0.6 0 0 1 0.18 0.52Z" fill="#020202" fill-rule="evenodd" stroke-width="1"></path>
  </g>
</svg>