<svg xmlns="http://www.w3.org/2000/svg" viewBox="0 0 24 24" id="Donation-Charity-Donate-Gift-Hand--Streamline-Freehand">
  <desc>
    Donation Charity Donate Gift Hand Streamline Icon: https://streamlinehq.com
  </desc>
  <g>
    <path d="M18.3 18.16a4.41 4.41 0 0 0 -0.73 0.09c-0.85 0.17 -1.68 0.51 -2.54 0.61a23.79 23.79 0 0 1 -3.47 0.07A22.5 22.5 0 0 1 9 18.67a4.75 4.75 0 0 0 1.21 -0.86 1.65 1.65 0 0 0 0.18 -2.22A1.9 1.9 0 0 0 8.15 15 14.67 14.67 0 0 0 4 17.32a9.18 9.18 0 0 1 -1.31 0.73c-1 0.48 -2.15 0.91 -2.15 0.91a0.32 0.32 0 0 0 0.23 0.6s1.13 -0.41 2.23 -0.88a8.53 8.53 0 0 0 1.45 -0.77A16 16 0 0 1 7.77 16c0.8 -0.3 1.55 -0.48 1.89 0.09a0.86 0.86 0 0 1 -0.23 1.21 10.29 10.29 0 0 1 -1.71 1 0.76 0.76 0 0 0 -0.38 0.55c0 0.19 0 0.49 0.52 0.65a16.22 16.22 0 0 0 3.64 0.5 25 25 0 0 0 3.65 -0.06c0.9 -0.11 1.75 -0.46 2.63 -0.64a3.85 3.85 0 0 1 0.58 -0.08c0.14 0 0.25 0 0.3 0.05a0.63 0.63 0 0 1 0 0.42c-0.09 0.74 -0.86 1.38 -1.79 1.93a11.9 11.9 0 0 1 -4.26 1.52c-1.19 0.09 -3 0.19 -4.7 0.15A24.65 24.65 0 0 1 4.83 23a0.28 0.28 0 1 0 -0.1 0.55 23.43 23.43 0 0 0 3.18 0.35c1.78 0.09 3.57 0.06 4.78 0a12.59 12.59 0 0 0 4.69 -1.49 4.24 4.24 0 0 0 2.35 -2.61 1.59 1.59 0 0 0 -0.22 -1.19 1.28 1.28 0 0 0 -1.21 -0.45Z" fill="#020202" fill-rule="evenodd" stroke-width="1"></path>
    <path d="M15.51 16.06a0.32 0.32 0 0 0 -0.17 0.42 0.3 0.3 0 0 0 0.41 0.17 5.5 5.5 0 0 0 2.39 -1.78 4.69 4.69 0 0 0 1 -2.86 2.5 2.5 0 0 0 -1.54 -2.43 1.83 1.83 0 0 0 -2 0.71 2.78 2.78 0 0 0 -0.41 0.69q0 0.11 -0.09 0.24l-0.05 -0.08a3.69 3.69 0 0 0 -0.43 -0.53 2 2 0 0 0 -1.47 -0.61 1.83 1.83 0 0 0 -1.43 0.83 2.63 2.63 0 0 0 0 2.91 14 14 0 0 0 2.67 3 0.28 0.28 0 0 0 0.4 0 0.28 0.28 0 0 0 0 -0.4 13.75 13.75 0 0 1 -2.37 -2.94 1.82 1.82 0 0 1 0.07 -2 0.88 0.88 0 0 1 0.69 -0.36 1 1 0 0 1 0.72 0.34 3 3 0 0 1 0.3 0.4 3.47 3.47 0 0 1 0.27 0.46l0.18 0.35s0.05 0.19 0.07 0.24a0.54 0.54 0 0 0 0.21 0.25 0.52 0.52 0 0 0 0.45 0.08 0.56 0.56 0 0 0 0.35 -0.29 13.83 13.83 0 0 0 0.5 -1.45 1.51 1.51 0 0 1 0.23 -0.4c0.37 -0.45 0.78 -0.53 1.11 -0.32a1.71 1.71 0 0 1 0.69 1.3 3.91 3.91 0 0 1 -0.74 2.4 4.85 4.85 0 0 1 -2.01 1.66Z" fill="#020202" fill-rule="evenodd" stroke-width="1"></path>
    <path d="M23.67 14.19c0 -0.65 0 -1.32 -0.07 -2 -0.1 -2.19 -0.25 -4.19 -0.16 -4.51a0.31 0.31 0 0 0 0 -0.19 0.26 0.26 0 0 0 -0.12 -0.11s0 0 -0.06 -0.06A18.18 18.18 0 0 0 19.71 7a5.65 5.65 0 0 0 1.61 -1.3 4.19 4.19 0 0 0 1 -2.82A3.11 3.11 0 0 0 20.84 0.36a2.46 2.46 0 0 0 -3 0.29 5.53 5.53 0 0 0 -0.8 0.94 17.44 17.44 0 0 0 -0.91 1.49c-0.31 0.52 -0.58 1.06 -0.84 1.61 -0.13 0.29 -0.24 0.57 -0.36 0.86 -0.12 -0.29 -0.23 -0.57 -0.37 -0.86 -0.25 -0.55 -0.53 -1.09 -0.83 -1.61s-0.58 -1 -0.91 -1.49a5.58 5.58 0 0 0 -0.81 -0.94 2.45 2.45 0 0 0 -3 -0.29 3.11 3.11 0 0 0 -1.43 2.52 4.19 4.19 0 0 0 1 2.82 5.44 5.44 0 0 0 1.85 1.4c-0.55 0 -1.1 0.1 -1.65 0.17 -1.55 0.2 -1.35 -0.24 -1.58 0.17a5.12 5.12 0 0 0 -0.2 0.49l-0.29 1.53a8.44 8.44 0 0 0 -0.09 1.68c0 0.56 0.15 1.11 0.23 1.62 0 0.23 0.08 0.55 0.15 0.82a1.74 1.74 0 0 0 0.17 0.41 0.32 0.32 0 0 0 0.44 0.12 0.31 0.31 0 0 0 0.12 -0.43 0.85 0.85 0 0 1 -0.05 -0.33l0 -0.66 0 -3.1C7.73 8.22 7.43 8 8.88 8l1.62 0 2.43 0 4.09 0c1.43 0 2.91 -0.11 4.07 -0.12l1.74 0c-0.1 0.77 -0.19 2.56 -0.23 4.45l0 2.36c0 0.91 0 1.74 0.06 2.35a11.12 11.12 0 0 1 0 1.75 1.58 1.58 0 0 1 -0.28 0.9 0.66 0.66 0 0 1 -0.45 0.18 10.62 10.62 0 0 1 -1.12 0 0.32 0.32 0 0 0 0 0.64 8 8 0 0 0 1.41 0 1.3 1.3 0 0 0 0.72 -0.33 2.16 2.16 0 0 0 0.52 -1 10.73 10.73 0 0 0 0.2 -2.2c0.02 -0.66 0.04 -1.68 0.01 -2.79Zm-3.09 -9.08a4.36 4.36 0 0 1 -1.94 1.46 5.86 5.86 0 0 1 -1.23 0.32h-1.24a15.8 15.8 0 0 1 1.51 -1.22l2.82 -1.79 0.78 -0.38a3.33 3.33 0 0 1 -0.7 1.61ZM9.64 1.3a1.45 1.45 0 0 1 1.75 0.11 5.11 5.11 0 0 1 0.73 0.74c0.35 0.43 0.65 0.9 1 1.36S13.7 4.5 14 5c0.92 1.53 1.15 1.53 1.94 0a12.62 12.62 0 0 1 0.91 -1.49c0.31 -0.46 0.62 -0.93 1 -1.36a5 5 0 0 1 0.72 -0.74 1.45 1.45 0 0 1 1.75 -0.11 2.05 2.05 0 0 1 1 1.48l-1.12 0.34a12.86 12.86 0 0 0 -1.61 0.73c-0.51 0.29 -1 0.64 -1.46 1 -0.6 0.5 -1.08 1.18 -1.64 1.74a3.8 3.8 0 0 1 -0.37 0.33h-0.19a3.9 3.9 0 0 1 -0.38 -0.33c-0.56 -0.56 -1 -1.24 -1.64 -1.74 -0.48 -0.34 -0.95 -0.69 -1.46 -1a12.86 12.86 0 0 0 -1.61 -0.73l-1.17 -0.34a2.07 2.07 0 0 1 0.97 -1.48Zm-0.29 3.81a3.35 3.35 0 0 1 -0.69 -1.62l0.78 0.39 2.82 1.79a14.82 14.82 0 0 1 1.53 1.24l-0.55 0h-0.1l-0.61 0a6.11 6.11 0 0 1 -1.24 -0.32 4.41 4.41 0 0 1 -1.94 -1.48Z" fill="#4C57E6" fill-rule="evenodd" stroke-width="1"></path>
  </g>
</svg>