<svg xmlns="http://www.w3.org/2000/svg" viewBox="0 0 24 24" id="Donation-Charity-Giving-Heart--Streamline-Freehand">
  <desc>
    Donation Charity Giving Heart Streamline Icon: https://streamlinehq.com
  </desc>
  <g>
    <path d="m23.75 3.89 -2.52 -1.35c-0.72 -0.44 -1.4 -1.09 -2.13 -1.61a5.1 5.1 0 0 0 -1.79 -0.86 3.47 3.47 0 0 0 -3.17 1 13.25 13.25 0 0 0 -1.44 1.76c-0.39 0.55 -0.58 0.48 -0.65 0.87s0.42 0.5 0.71 0.14a7.27 7.27 0 0 0 0.49 -0.59 13.53 13.53 0 0 1 1.48 -1.46 2.61 2.61 0 0 1 2.34 -0.66 5.74 5.74 0 0 1 1.81 0.92 19.6 19.6 0 0 0 1.93 1.24l2.66 1.18a0.32 0.32 0 0 0 0.28 -0.58Z" fill="#020202" fill-rule="evenodd" stroke-width="1"></path>
    <path d="M11.45 4.71a1.94 1.94 0 0 0 -0.36 0.35c-0.18 0.22 -0.37 0.52 -0.56 0.76l-0.09 0.18A8.39 8.39 0 0 0 10 4.83a2.46 2.46 0 0 0 -2 -0.52 3.27 3.27 0 0 0 -1.77 0.82 2.75 2.75 0 0 0 -0.77 3.08A10.24 10.24 0 0 0 8 11.72c0.2 0.21 0.64 0.77 1.05 1.14a1.68 1.68 0 0 0 0.78 0.45 1.23 1.23 0 0 0 0.88 -0.19 4.3 4.3 0 0 0 0.77 -0.69c0.53 -0.54 1.12 -1.13 1.64 -1.75a8.42 8.42 0 0 0 1 -1.33 0.32 0.32 0 0 0 -0.12 -0.44 0.3 0.3 0 0 0 -0.43 0.12 8.52 8.52 0 0 1 -0.93 1.19c-0.54 0.58 -1.14 1.13 -1.68 1.64a6.19 6.19 0 0 1 -0.53 0.48 0.57 0.57 0 0 1 -0.41 0.12c-0.13 0 -0.28 -0.21 -0.45 -0.39 -0.34 -0.37 -0.67 -0.82 -0.83 -1A9.6 9.6 0 0 1 6.5 7.88a1.79 1.79 0 0 1 0.49 -2 2.18 2.18 0 0 1 1.18 -0.56 1.47 1.47 0 0 1 1.18 0.23A11.28 11.28 0 0 1 10 6.69a0.55 0.55 0 0 0 0.64 0.24 1.25 1.25 0 0 0 0.48 -0.39 7.33 7.33 0 0 1 0.82 -1.18c1.13 -0.85 1.85 0.38 2.15 0.92 0.28 0.35 0.8 0.17 0.65 -0.24 -0.39 -0.73 -1.59 -2.46 -3.29 -1.33Z" fill="#4C57E6" fill-rule="evenodd" stroke-width="1"></path>
    <path d="M23.33 6.68a0.32 0.32 0 0 0 -0.43 0.12 2.09 2.09 0 0 1 -0.56 0.62 2 2 0 0 1 -0.74 0.33 1.7 1.7 0 0 1 -0.39 0 11.6 11.6 0 0 0 -2 -0.24c-0.74 0.09 -2 0.87 -3.09 1.07a1 1 0 0 1 -1.25 -0.55c-0.17 -0.33 0.14 -0.48 0.44 -0.67a6.6 6.6 0 0 0 2.18 -1.66 1.59 1.59 0 0 0 0.12 -1.41c-0.42 -1.2 -1.16 -1.53 -1.92 -1.41A2.32 2.32 0 0 0 13.88 4c-0.19 0.28 0 0.71 0.28 0.67a2.32 2.32 0 0 1 1.2 -0.94c0.56 -0.21 1.11 0 1.36 0.84 0.16 0.58 -0.27 0.88 -0.73 1.16S14.17 6.87 14.09 7a1.27 1.27 0 0 0 -0.21 1.59 1.93 1.93 0 0 0 1.75 1.14 4.77 4.77 0 0 0 2 -0.57 9 9 0 0 1 1.63 -0.72 10.86 10.86 0 0 1 1.89 0.14 1.92 1.92 0 0 0 0.58 -0.07 2.51 2.51 0 0 0 1 -0.5 2.68 2.68 0 0 0 0.69 -0.84 0.32 0.32 0 0 0 -0.09 -0.49Z" fill="#020202" fill-rule="evenodd" stroke-width="1"></path>
    <path d="M14.14 15.32a1.87 1.87 0 0 0 -2.17 0.31 6.61 6.61 0 0 1 -2.2 1.43 6.7 6.7 0 0 1 -3.44 0.36c0.12 -0.37 0.36 -0.86 0.47 -1.25a2 2 0 0 0 0.1 -0.62c-0.08 -0.92 -0.38 -1.36 -0.71 -1.53A1.24 1.24 0 0 0 5 14.2a4.58 4.58 0 0 0 -1.07 1.46c-0.62 1.15 -1.28 2.68 -1.55 3.3a2.74 2.74 0 0 0 -0.92 0.16 1.73 1.73 0 0 0 -0.33 0.17l-0.29 0.23a5.19 5.19 0 0 0 -0.57 0.63 0.32 0.32 0 0 0 -0.07 0.45 0.32 0.32 0 0 0 0.45 0.06 7.53 7.53 0 0 0 0.77 -0.31 2 2 0 0 0 0.29 -0.15 1.85 1.85 0 0 0 0.19 -0.2c0.46 -0.36 0.78 -0.42 0.88 -0.64 0.18 -0.39 0.81 -1.75 1.46 -2.91a5.53 5.53 0 0 1 1.13 -1.61c0.19 -0.11 0.37 -0.23 0.48 -0.08a1.52 1.52 0 0 1 0.15 0.84 7.1 7.1 0 0 1 -0.61 1.59 2 2 0 0 0 -0.14 0.6 0.51 0.51 0 0 0 0.36 0.48l0.29 0.08a7.47 7.47 0 0 0 2.74 0.09 7.3 7.3 0 0 0 4.05 -2 0.76 0.76 0 0 1 0.88 -0.16c0.22 0.12 0.26 0.4 0.1 0.82a6 6 0 0 1 -1.07 1.74A4.08 4.08 0 0 1 11.05 20a55 55 0 0 0 -5.72 2 7.3 7.3 0 0 0 -2.23 1.46 0.32 0.32 0 0 0 0.47 0.44 7.73 7.73 0 0 1 2.83 -1.61c1.7 -0.63 3.61 -1 4.93 -1.44a4.85 4.85 0 0 0 2 -1.38 6.94 6.94 0 0 0 1.32 -2 1.56 1.56 0 0 0 -0.51 -2.15Z" fill="#020202" fill-rule="evenodd" stroke-width="1"></path>
  </g>
</svg>