<svg xmlns="http://www.w3.org/2000/svg" viewBox="0 0 24 24" id="Download-Laptop--Streamline-Freehand">
  <desc>
    Download Laptop Streamline Icon: https://streamlinehq.com
  </desc>
  <g>
    <path d="M3.55 16.41c0.2 1 0.5 2.07 0.76 3a0.3 0.3 0 1 0 0.59 -0.13c-0.14 -1 -0.2 -2.26 -0.32 -3.42a25.9 25.9 0 0 1 -0.23 -3.37 2.3 2.3 0 0 1 1.26 -0.73 0.34 0.34 0 0 0 -0.16 -0.67 3 3 0 0 0 -1.84 0.87c-0.61 0.72 -0.26 3.46 -0.06 4.45Z" fill="#4C57E6" fill-rule="evenodd" stroke-width="1"></path>
    <path d="M18 11.37a2 2 0 0 1 0.79 0.27c0.72 0.34 0.62 0.62 0.62 1.41a40.41 40.41 0 0 1 -0.63 6.46 0.34 0.34 0 0 0 0.66 0.18A19.63 19.63 0 0 0 20.52 13c-0.09 -1.18 -0.37 -1.79 -1.44 -2.11a2.8 2.8 0 0 0 -1 -0.13 0.3 0.3 0 0 0 -0.08 0.61Z" fill="#4C57E6" fill-rule="evenodd" stroke-width="1"></path>
    <path d="M21.22 21.19c-0.17 -0.56 -1.76 -0.59 -2.15 -0.47a0.34 0.34 0 1 0 0.18 0.65c0.26 -0.06 1 0.34 1.27 0.21a1.71 1.71 0 0 1 -0.89 1.42C17 23 6.32 23 4.32 22.6a1.58 1.58 0 0 1 -0.45 -1.16l0.89 0c2.88 -0.23 9.87 -0.16 12.73 -0.1a0.3 0.3 0 0 0 0 -0.6c-2.94 -0.18 -9.89 -0.52 -12.83 -0.4 -0.55 0 -1.44 0 -1.72 0.44a2.34 2.34 0 0 0 0.78 2.85c1.13 0.73 15.77 0.27 16.17 0.11a2.43 2.43 0 0 0 1.33 -2.55Z" fill="#020202" fill-rule="evenodd" stroke-width="1"></path>
    <path d="M6.45 10.38a18.26 18.26 0 0 0 2.79 4.46c0.52 0.58 0.9 1.3 1.92 1.23 2.54 -0.18 8 -6.56 6.53 -8.38 -0.72 -0.87 -3.56 1 -4.3 1.8 -0.12 -1.24 -0.81 -8.38 -1.11 -9.27a0.3 0.3 0 0 0 -0.58 0.18c0.32 1 0.77 9.14 0.86 9.84s0.88 0.66 1.35 0.06a7.87 7.87 0 0 1 3 -1.76 2 2 0 0 1 -0.22 0.75c-0.75 1.75 -3.89 5.51 -5.59 5.63 -0.82 0.06 -3.66 -4.5 -4.17 -6.11 1.45 0.61 2.77 2.25 3.33 2.24a0.56 0.56 0 0 0 0.45 -0.58c-0.15 -1.43 -0.31 1 0.85 -10.13a0.35 0.35 0 0 0 -0.69 0c0 -0.08 -1.36 7 -1.17 9.26 -0.8 -0.6 -1.89 -1.76 -3.13 -1.8 -0.54 0 -0.91 0.38 -0.66 1.27a10.35 10.35 0 0 0 0.54 1.31Z" fill="#020202" fill-rule="evenodd" stroke-width="1"></path>
  </g>
</svg>