<svg xmlns="http://www.w3.org/2000/svg" viewBox="0 0 24 24" id="Drawer-Cash--Streamline-Freehand">
  <desc>
    Drawer Cash Streamline Icon: https://streamlinehq.com
  </desc>
  <g>
    <path d="M23.86 17.56a7.28 7.28 0 0 0 -0.13 -1.44 1 1 0 0 0 -0.45 -0.61 6.61 6.61 0 0 0 -2.84 -0.51 5.88 5.88 0 0 0 -2.87 0.59 1.24 1.24 0 0 0 -0.48 0.69 8.28 8.28 0 0 0 -0.17 1l-0.06 0.27a0.66 0.66 0 0 1 0 0.11 3.57 3.57 0 0 1 -0.73 0.09c-1 0.09 -2.45 0.12 -4 0.11a28 28 0 0 1 -4.86 -0.29 0.63 0.63 0 0 1 -0.38 -0.22 1.74 1.74 0 0 1 -0.2 -0.67 1.51 1.51 0 0 0 -0.67 -1 5.31 5.31 0 0 0 -1.67 -0.14 32.65 32.65 0 0 0 -3.46 0.22c-0.47 0.13 -0.78 0.62 -0.86 1.4 -0.14 1.39 0.31 3.75 0.31 5.22a0.32 0.32 0 0 0 0.31 0.32 0.31 0.31 0 0 0 0.35 -0.39c0 -1.25 -0.3 -3.15 -0.28 -4.53a3.8 3.8 0 0 1 0.13 -1.05c0.05 -0.15 0.11 -0.27 0.23 -0.3s1.27 -0.09 2.32 -0.11l1.88 0 0.3 0c0.2 0.15 0.2 0.37 0.24 0.58a2.22 2.22 0 0 0 0.3 0.84 1.55 1.55 0 0 0 0.86 0.61 35 35 0 0 0 6.14 0.48 17.23 17.23 0 0 0 4.28 -0.29 1.24 1.24 0 0 0 0.54 -0.66 5.8 5.8 0 0 0 0.21 -1c0 -0.15 0.09 -0.38 0.1 -0.43a4.75 4.75 0 0 1 2.18 -0.37 5.94 5.94 0 0 1 2.16 0.35c0 0.2 0.08 1 0.09 1.15 0 0.36 0.17 1.91 0.16 3.26a7.92 7.92 0 0 1 -0.12 1.42 1 1 0 0 1 0 0.14c-0.15 0 -0.48 0.12 -0.81 0.14 -1.86 0.13 -5.84 0.23 -9.81 0.29 -5.23 0.08 -10.46 0.1 -10.87 0a0.35 0.35 0 1 0 -0.13 0.69c0.53 0.1 9.1 0.23 15.38 0.2 2.64 0 4.88 0 5.94 -0.13a2.5 2.5 0 0 0 0.9 -0.17 2 2 0 0 0 0.64 -1.43 27.28 27.28 0 0 0 -0.1 -4.43Z" fill="#020202" stroke-width="1"></path>
    <path d="M2.39 14.39a0.31 0.31 0 0 0 0.29 -0.33c-0.07 -1.48 0 -4.68 0.16 -7.48 0.09 -1.58 0.21 -3 0.34 -3.95 0.07 -0.41 0 -0.71 1.19 -0.86s3.46 -0.27 5.76 -0.34c3.72 -0.1 7.86 -0.11 9.77 0.06 0.92 0.09 0.81 0.26 1 1a47.92 47.92 0 0 1 0.58 5 43.79 43.79 0 0 1 0.13 6.27 0.35 0.35 0 1 0 0.7 0.09 50.23 50.23 0 0 0 0 -7.69 37.23 37.23 0 0 0 -0.42 -4.1 3.43 3.43 0 0 0 -0.46 -1.2 2.21 2.21 0 0 0 -1.24 -0.42A75.9 75.9 0 0 0 11.93 0.2a59.15 59.15 0 0 0 -8.27 0.58 2.21 2.21 0 0 0 -1.17 0.49 1.47 1.47 0 0 0 -0.22 0.57A29.17 29.17 0 0 0 2 5.29c-0.1 3.05 -0.08 7.1 0.06 8.81a0.31 0.31 0 0 0 0.33 0.29Z" fill="#4C57E6" stroke-width="1"></path>
    <path d="M10.89 12.49a2.6 2.6 0 0 1 -0.55 -0.21 3.21 3.21 0 0 1 -0.72 -0.55 1.23 1.23 0 0 1 -0.39 -0.68 0.36 0.36 0 0 0 -0.38 -0.32 0.34 0.34 0 0 0 -0.32 0.38 1.73 1.73 0 0 0 0.38 0.94 3.63 3.63 0 0 0 1 0.92 3 3 0 0 0 1 0.38l0 1.85a0.37 0.37 0 0 0 0.34 0.37 0.36 0.36 0 0 0 0.37 -0.34c0.05 -0.6 0.1 -1.19 0.16 -1.78a4.31 4.31 0 0 0 1.22 -0.16 3.34 3.34 0 0 0 2.31 -2.2 2.15 2.15 0 0 0 -1 -2.61 6.57 6.57 0 0 0 -2.07 -0.75v-0.12l0.14 -2.83a2.31 2.31 0 0 1 0.79 0.27 1.26 1.26 0 0 1 0.66 0.91 0.31 0.31 0 1 0 0.62 -0.1 1.93 1.93 0 0 0 -0.63 -1.2A3 3 0 0 0 12.43 4l0.14 -1.34a0.31 0.31 0 0 0 -0.22 -0.39 0.32 0.32 0 0 0 -0.38 0.22l-0.32 1.44a3.51 3.51 0 0 0 -1.81 0.76 2.84 2.84 0 0 0 -1.23 2.08 1.57 1.57 0 0 0 0.54 1.15 3.17 3.17 0 0 0 1.42 0.68l0.42 0.08q-0.06 1 -0.09 1.92c-0.01 0.63 -0.01 1.26 -0.01 1.89ZM10 7.16c-0.16 -0.11 -0.32 -0.23 -0.33 -0.42a1.84 1.84 0 0 1 0.75 -1.34 3.05 3.05 0 0 1 1 -0.62c-0.07 0.36 -0.14 0.72 -0.19 1.08 -0.09 0.55 -0.16 1.09 -0.22 1.64l-0.28 0a2.43 2.43 0 0 1 -0.73 -0.34Zm3.65 2.32a1.11 1.11 0 0 1 0.59 1.32 2.31 2.31 0 0 1 -1.54 1.58 3.2 3.2 0 0 1 -0.86 0.17c0.08 -0.88 0.17 -1.77 0.23 -2.66 0 -0.32 0.05 -0.65 0.06 -1a5.5 5.5 0 0 1 1.54 0.59Z" fill="#020202" stroke-width="1"></path>
  </g>
</svg>