<svg xmlns="http://www.w3.org/2000/svg" viewBox="0 0 24 24" id="Dresser-Drawers-2--Streamline-Freehand">
  <desc>
    Dresser Drawers 2 Streamline Icon: https://streamlinehq.com
  </desc>
  <g>
    <path d="M22.23 14.67c0 -1.11 0 -2.26 -0.1 -3.65V8l0 -1.36 0 -2.08a27.53 27.53 0 0 0 0.06 -3.09 1.56 1.56 0 0 0 -0.41 -1A2 2 0 0 0 21 0.1a5.63 5.63 0 0 0 -1 -0.1l-3.3 0.05L6.34 0.19 2.8 0.35a0.34 0.34 0 0 0 -0.35 0.33 0.35 0.35 0 0 0 0.34 0.32L6.36 0.92h6.69c-0.11 2.66 -0.21 5.33 -0.25 8 0 1.85 0 3.7 -0.09 5.55l0 5.91 0 1.93 0 0.51 -8.16 0.11 -1.08 0a2 2 0 0 1 -0.45 -0.06l-0.12 0 0 -0.76 0 -2.33 -0.2 -8.29L2.44 5l0 -1.61 0 -1.61a0.29 0.29 0 0 0 -0.28 -0.31 0.3 0.3 0 0 0 -0.32 0.29l0 1.63 0 1.63 0.16 6.49 0 8.29 0 2.37 0 0.68a1.49 1.49 0 0 0 0.1 0.44 1.19 1.19 0 0 0 0.9 0.6 8.77 8.77 0 0 0 1.62 0.11l5.54 0c1.4 0 2.72 0 3.71 -0.05s2.13 -0.06 3.21 -0.07l2.12 0c0.39 0 1.33 0.09 1.74 0.09a1.06 1.06 0 0 0 0.5 -0.1 1.08 1.08 0 0 0 0.39 -0.43 2.71 2.71 0 0 0 0.21 -0.85c0.05 -0.44 0.09 -0.84 0.11 -1.24s0.05 -0.81 0.05 -1.25c0.01 -2.1 0.04 -3.73 0.03 -5.43ZM3 22.85s-0.06 0.01 0 0ZM21.09 8.06l0 2.44 -2.44 -0.17c-0.65 0 -1.31 -0.08 -2 -0.08 -0.91 0 -1.82 0.07 -2.74 0.14l0 -1.46c0 -0.94 0 -1.87 -0.07 -2.8 1 0 1.94 0.22 2.92 0.31a14.25 14.25 0 0 0 1.46 0c0.91 0 1.78 -0.29 2.68 -0.38l0.18 0 0 0.55c-0.02 0.5 -0.01 0.97 0.01 1.45Zm-7.27 6.46c0 -1.14 0.07 -2.28 0.08 -3.43 0.77 0.09 1.53 0.19 2.3 0.26 0.41 0 0.82 0.06 1.23 0.07h1.24c0.79 0 1.58 -0.09 2.38 -0.16 0 1.28 0.05 2.37 0.05 3.41v0.71c-0.84 -0.06 -1.68 -0.12 -2.53 -0.16l-1.21 0 -1.22 0c-0.79 0 -1.57 0.13 -2.36 0.2ZM16.75 0.93H20a5.87 5.87 0 0 1 0.82 0.09 1.1 1.1 0 0 1 0.33 0.14 1.56 1.56 0 0 1 0.05 0.16 4.67 4.67 0 0 1 0.05 1c0 0.94 -0.13 2 -0.14 2.28s0 0.53 0 0.79h-0.58c-0.76 0 -1.53 0.09 -2.3 0 -0.46 0 -0.92 0 -1.39 -0.05h-0.95a15.48 15.48 0 0 0 -2.06 0.16c-0.06 -1.51 -0.11 -3 -0.15 -4.54ZM21 21.3c0 0.39 -0.06 0.77 -0.11 1.2a2.58 2.58 0 0 1 -0.07 0.34c-0.44 0 -1.22 -0.07 -1.56 -0.08l-2.19 0c-1.09 0 -2.2 0.06 -3.24 0.09h-0.33a4.22 4.22 0 0 1 0 -0.52c0 -0.64 0.09 -1.34 0.11 -1.91l0.18 -4.27c0.8 0.08 1.59 0.17 2.39 0.21l1.22 0 1.22 0c0.84 0 1.68 -0.13 2.52 -0.2 0 1.21 0 2.46 -0.05 4 -0.04 0.38 -0.09 0.76 -0.09 1.14Z" fill="#020202" fill-rule="evenodd" stroke-width="1"></path>
    <path d="M11.2 12.45a1.3 1.3 0 0 0 -0.55 -1.6 0.35 0.35 0 0 0 -0.33 0 0.3 0.3 0 0 0 -0.3 -0.24 1.48 1.48 0 1 0 -0.32 2.93 1.44 1.44 0 0 0 1.5 -1.09Zm-1.78 -0.35a0.56 0.56 0 0 1 -0.06 -0.38 0.79 0.79 0 0 1 0.67 -0.53 0.18 0.18 0 0 0 0.1 0 0.35 0.35 0 0 0 0.16 0.26c0.17 0.13 0.15 0.34 0.1 0.54s-0.26 0.48 -0.51 0.42a0.55 0.55 0 0 1 -0.46 -0.31Z" fill="#4C57E6" fill-rule="evenodd" stroke-width="1"></path>
    <path d="M18.16 17.79a3.39 3.39 0 0 0 -0.95 -0.08 4.4 4.4 0 0 0 -0.89 0.29 0.31 0.31 0 0 0 0.11 0.6l0.88 0c0.3 0 0.54 -0.13 0.83 -0.16a0.33 0.33 0 0 0 0.35 -0.33 0.34 0.34 0 0 0 -0.33 -0.32Z" fill="#4C57E6" fill-rule="evenodd" stroke-width="1"></path>
  </g>
</svg>