<svg xmlns="http://www.w3.org/2000/svg" viewBox="0 0 24 24" id="Drone-Ground-Armed-Anti-Air--Streamline-Freehand">
  <desc>
    Drone Ground Armed Anti Air Streamline Icon: https://streamlinehq.com
  </desc>
  <title>drone-ground-armed-anti-air</title>
  <g>
    <path d="M17.3 14.15c0.58 0 1.17 0.11 1.69 0.2a0.77 0.77 0 0 1 0.63 0.38 2.73 2.73 0 0 1 0.19 0.95 0.33 0.33 0 0 0 0.35 0.33 0.36 0.36 0 0 0 0.34 -0.36 2.51 2.51 0 0 0 -0.36 -1.5 1.53 1.53 0 0 0 -1 -0.59 14.32 14.32 0 0 0 -1.42 -0.27c-0.73 -0.11 -1.49 -0.18 -2.13 -0.23s-1.49 -0.08 -2.24 -0.12a11.8 11.8 0 0 0 0.23 -1.18c0 -0.22 0 -0.44 0.05 -0.66s0 -0.44 0 -0.66c0 -0.46 -0.09 -0.87 -0.14 -1.22l1.1 -0.44a0.48 0.48 0 0 0 0.2 -0.17l3 -0.92c0.54 -0.15 1.1 -0.3 1.64 -0.49a8.87 8.87 0 0 0 1.1 -0.47 2.23 2.23 0 0 0 1 -1.32c0.07 -0.48 -0.09 -1 -0.92 -1.17a2.79 2.79 0 0 0 -1.08 0 8.83 8.83 0 0 0 -1.32 0.4l-1.68 0.65 -2.37 1 -0.61 -1.77 3 -0.91c0.54 -0.15 1.1 -0.3 1.64 -0.48a8.93 8.93 0 0 0 1.1 -0.48 2.24 2.24 0 0 0 1 -1.31c0.07 -0.49 -0.09 -1 -0.92 -1.18a2.79 2.79 0 0 0 -1.08 0A7.81 7.81 0 0 0 17 0.48l-1.68 0.64 -2.69 1.08a0.33 0.33 0 0 0 -0.17 0c-1 0.36 -2.05 0.52 -3.64 1a13.53 13.53 0 0 0 -2.4 1A6.11 6.11 0 0 0 5 5.35a4.12 4.12 0 0 0 -1 1.57 2.79 2.79 0 0 0 0.31 2.3 3.06 3.06 0 0 0 1.87 1.34 5 5 0 0 0 1.34 0.13 11.63 11.63 0 0 0 1.89 -0.22l0.42 -0.09a8.41 8.41 0 0 0 -0.17 0.87l0 0.49 0 0.48c0 0.16 0.09 0.45 0.14 0.64q-1.18 0 -2.37 0.09a20.34 20.34 0 0 0 -2.66 0.1 3 3 0 0 0 -0.85 0.34 24.11 24.11 0 0 0 -0.92 -2.3 16.22 16.22 0 0 0 -0.8 -1.47c-0.43 -0.72 -0.91 -1.4 -1.36 -2.11a0.34 0.34 0 0 0 -0.46 -0.15 0.35 0.35 0 0 0 -0.15 0.46c0.32 0.76 0.63 1.52 1 2.26 0.15 0.32 0.3 0.63 0.47 0.94s0.34 0.61 0.52 0.91c0.4 0.64 0.83 1.25 1.24 1.89a2 2 0 0 0 -0.36 0.54 3.3 3.3 0 0 0 -0.1 1.25 0.3 0.3 0 0 0 0.6 0 4.48 4.48 0 0 1 0 -0.87 1.14 1.14 0 0 1 0.43 -0.57 2 2 0 0 1 1.18 -0.33c0.76 0 1.6 0.13 2.23 0.13l8.06 0.12c0.59 0.01 1.19 0.02 1.8 0.06Zm-0.45 -8 1.72 -0.48a8.34 8.34 0 0 1 1.17 -0.28c0.48 -0.07 1.11 -0.11 0.25 0.39a8.93 8.93 0 0 1 -0.93 0.46c-0.51 0.22 -1 0.4 -1.54 0.59l-2.76 1.04 -0.35 -1ZM15.6 2l1.72 -0.49a9.72 9.72 0 0 1 1.18 -0.31c0.48 -0.06 1.1 -0.1 0.24 0.39a6.19 6.19 0 0 1 -0.93 0.46c-0.51 0.22 -1 0.41 -1.54 0.59l-2.91 1.14 -0.36 -1ZM9.27 9.35a12.07 12.07 0 0 1 -1.72 0.19 4.12 4.12 0 0 1 -1 -0.11 1.87 1.87 0 0 1 -1.21 -0.83 1.68 1.68 0 0 1 -0.24 -1.37A3.21 3.21 0 0 1 5.78 6 5.05 5.05 0 0 1 6.9 5a12.71 12.71 0 0 1 2.19 -1c1.07 -0.41 2.19 -0.74 3.24 -1.07l1.52 5.12c-0.8 0.29 -1.7 0.59 -2.58 0.84a16.71 16.71 0 0 1 -2 0.46Zm1.42 3.49c0 -0.18 0.09 -0.4 0.12 -0.63a3.75 3.75 0 0 0 0 -0.48l0 -0.47c-0.05 -0.45 -0.14 -0.82 -0.16 -1.07 0.31 -0.08 0.62 -0.17 0.94 -0.28s0.73 -0.24 1.08 -0.38c0 0.27 -0.08 0.57 -0.12 0.88s0 0.44 0 0.66l0 0.65c0 0.45 0.1 0.84 0.15 1.19 -0.63 0 -1.27 -0.06 -1.9 -0.07Z" fill="#020202" fill-rule="evenodd" stroke-width="1"></path>
    <path d="M6.18 18a0.3 0.3 0 0 0 -0.08 -0.27 3.35 3.35 0 0 0 -2.3 -1.09 3.44 3.44 0 0 0 -2.49 0.8A3.91 3.91 0 0 0 0 19.84a3.77 3.77 0 0 0 0.63 2.69 3.12 3.12 0 0 0 0.54 0.6 3.32 3.32 0 0 0 0.69 0.46 3.1 3.1 0 0 0 0.6 0.23 4.42 4.42 0 0 0 0.61 0.13 3.79 3.79 0 0 0 3.68 -1.89 3.2 3.2 0 0 0 -0.49 -4 0.34 0.34 0 0 0 -0.08 -0.06ZM6 21.59a2.81 2.81 0 0 1 -2.75 1.25 3.69 3.69 0 0 1 -0.45 -0.11 2 2 0 0 1 -0.4 -0.17 2 2 0 0 1 -0.4 -0.29 2.35 2.35 0 0 1 -0.36 -0.41A2.7 2.7 0 0 1 1.15 20 2.93 2.93 0 0 1 2 18.14a2.62 2.62 0 0 1 1.81 -0.72 2.67 2.67 0 0 1 1.89 0.73 0.18 0.18 0 0 0 0.07 0.05 0.34 0.34 0 0 0 0.07 0.36A2.46 2.46 0 0 1 6 21.59Z" fill="#020202" fill-rule="evenodd" stroke-width="1"></path>
    <path d="M14.57 18a0.29 0.29 0 0 0 -0.07 -0.27 3.39 3.39 0 0 0 -2.31 -1.09 3.45 3.45 0 0 0 -2.49 0.8 3.91 3.91 0 0 0 -1.27 2.39 3.78 3.78 0 0 0 0.64 2.69 3.12 3.12 0 0 0 0.54 0.6 3 3 0 0 0 0.68 0.46 3.1 3.1 0 0 0 0.6 0.23 4.26 4.26 0 0 0 0.62 0.13 3.8 3.8 0 0 0 3.68 -1.89 3.22 3.22 0 0 0 -0.49 -4 0.38 0.38 0 0 0 -0.13 -0.05Zm-0.16 3.58a2.79 2.79 0 0 1 -2.75 1.25 3.15 3.15 0 0 1 -0.44 -0.11 2.09 2.09 0 0 1 -0.41 -0.17 2.23 2.23 0 0 1 -0.44 -0.29 2.86 2.86 0 0 1 -0.36 -0.41A2.75 2.75 0 0 1 9.54 20a3 3 0 0 1 0.81 -1.84 2.72 2.72 0 0 1 3.7 0l0.07 0.05a0.37 0.37 0 0 0 0.07 0.36 2.46 2.46 0 0 1 0.22 3.02Z" fill="#020202" fill-rule="evenodd" stroke-width="1"></path>
    <path d="M23.05 18.1a0.38 0.38 0 0 0 -0.13 -0.09 0.27 0.27 0 0 0 -0.08 -0.27 3.35 3.35 0 0 0 -2.3 -1.09 3.44 3.44 0 0 0 -2.49 0.8 3.91 3.91 0 0 0 -1.27 2.39 3.77 3.77 0 0 0 0.63 2.69 3.49 3.49 0 0 0 0.54 0.6 3.32 3.32 0 0 0 0.69 0.46 3.1 3.1 0 0 0 0.6 0.23 4.42 4.42 0 0 0 0.61 0.13 3.79 3.79 0 0 0 3.68 -1.89 3.21 3.21 0 0 0 -0.48 -3.96Zm-0.29 3.49A2.81 2.81 0 0 1 20 22.84a3.69 3.69 0 0 1 -0.45 -0.11 2 2 0 0 1 -0.4 -0.17 2 2 0 0 1 -0.44 -0.29 2.35 2.35 0 0 1 -0.36 -0.41 2.7 2.7 0 0 1 -0.46 -1.86 2.93 2.93 0 0 1 0.81 -1.84 2.62 2.62 0 0 1 1.81 -0.72 2.67 2.67 0 0 1 1.89 0.73 0.18 0.18 0 0 0 0.07 0.05 0.37 0.37 0 0 0 0.07 0.36 2.46 2.46 0 0 1 0.22 3.01Z" fill="#020202" fill-rule="evenodd" stroke-width="1"></path>
    <path d="M4.21 19.67a0.75 0.75 0 0 0 -0.48 -0.27 0.84 0.84 0 0 0 -0.64 0.14 0.88 0.88 0 0 0 -0.37 0.58 0.9 0.9 0 0 0 0.16 0.72l0.35 0.3 0.33 0.09a1 1 0 0 0 0.91 -0.54 0.76 0.76 0 0 0 -0.18 -1Z" fill="#4C57E6" fill-rule="evenodd" stroke-width="1"></path>
    <path d="M12.57 19.7a0.75 0.75 0 0 0 -0.45 -0.26 0.85 0.85 0 0 0 -0.61 0.13 0.88 0.88 0 0 0 -0.36 0.55 0.91 0.91 0 0 0 0.16 0.69l0.34 0.29 0.31 0.09a0.94 0.94 0 0 0 0.87 -0.52c0.1 -0.31 0.16 -0.68 -0.18 -0.91a0.16 0.16 0 0 0 -0.08 -0.06Z" fill="#4C57E6" fill-rule="evenodd" stroke-width="1"></path>
    <path d="M20.92 19.69a0.83 0.83 0 0 0 -0.45 -0.25 0.8 0.8 0 0 0 -0.61 0.13 0.81 0.81 0 0 0 -0.36 0.55 0.88 0.88 0 0 0 0.15 0.7l0.34 0.28 0.31 0.09a1 1 0 0 0 0.88 -0.52c0.1 -0.31 0.16 -0.68 -0.18 -0.91a0.27 0.27 0 0 0 -0.08 -0.07Z" fill="#4C57E6" fill-rule="evenodd" stroke-width="1"></path>
  </g>
</svg>