<svg xmlns="http://www.w3.org/2000/svg" viewBox="0 0 24 24" id="E-Commerce-Shopping-Bag-Laptop--Streamline-Freehand">
  <desc>
    E Commerce Shopping Bag Laptop Streamline Icon: https://streamlinehq.com
  </desc>
  <g>
    <path d="M11.57 7.75a1.36 1.36 0 0 0 -0.26 -1.32 4.46 4.46 0 0 0 -2.17 -1c-0.26 -0.07 -0.76 0 -0.79 -0.29 -0.07 -0.52 1 -0.84 1.48 -0.85a1.08 1.08 0 0 1 0.93 0.5 0.3 0.3 0 0 0 0.54 -0.24 1.77 1.77 0 0 0 -1.52 -1 1.56 1.56 0 0 0 -0.43 -1.45c-0.28 0 -0.82 0.78 -0.52 1.57C7 4.09 7 5.61 7.76 6.21c0.56 0.44 3 0.45 2.82 1.3 0.19 0.12 -0.53 0.34 -0.73 0.35a3.25 3.25 0 0 1 -2 -0.5 0.34 0.34 0 1 0 -0.44 0.51 3.48 3.48 0 0 0 1.44 0.71c-0.39 0.62 0.07 1.5 0.38 1.5s0.72 -0.85 0.48 -1.35c0.71 0.01 1.67 -0.31 1.86 -0.98Z" fill="#4C57E6" fill-rule="evenodd" stroke-width="1"></path>
    <path d="M1.1 9.9a0.3 0.3 0 1 0 0.58 -0.11 28 28 0 0 1 -0.31 -3.89 10.73 10.73 0 0 1 0.32 -3.64C2.53 1 9.39 1.18 12.18 1.11c1 -0.05 3.84 -0.12 4.4 0.71s0.37 4.61 0.23 5.82a0.34 0.34 0 0 0 0.67 0.09c0.19 -1.26 0.52 -5.32 -0.14 -6.4C16.55 0.05 13.68 0 12.16 0 9.19 0.1 2.13 -0.31 0.88 1.74a8.92 8.92 0 0 0 -0.32 3.39A29.37 29.37 0 0 0 1.1 9.9Z" fill="#020202" fill-rule="evenodd" stroke-width="1"></path>
    <path d="M7.45 14.67a49 49 0 0 1 -5.87 -0.49 3.56 3.56 0 0 1 -0.38 -0.71c-0.26 -0.9 -0.07 -0.65 0.81 -0.71 1.54 -0.15 6.5 -0.28 7.54 -0.27a0.3 0.3 0 0 0 0 -0.59C6 11.74 0.81 11.19 0.21 12.13S0.3 15 1.4 15.23a53 53 0 0 0 6.05 0.11 0.34 0.34 0 0 0 0 -0.67Z" fill="#020202" fill-rule="evenodd" stroke-width="1"></path>
    <path d="M23.29 12.92a0.33 0.33 0 0 0 -0.54 -0.16 5.16 5.16 0 0 0 -1 0.48c-0.05 -0.49 0 -1 -0.09 -1.51 -0.23 -1.15 -1.14 -1.86 -2.79 -1.47a0.34 0.34 0 0 0 0.07 0.67c1.92 0 1.53 1.42 2.28 2.67a5.45 5.45 0 0 0 -0.76 0.8 0.52 0.52 0 0 0 -0.24 -0.13 13.75 13.75 0 0 0 -1.7 -0.17 7.63 7.63 0 0 0 -0.55 -2.62 2.58 2.58 0 0 0 -4.4 -0.29 6.58 6.58 0 0 0 -1 2.92c-1.48 0.06 -1.92 0 -2.31 1.38a44.78 44.78 0 0 0 -0.86 5.17c-0.07 0.77 -0.23 1.56 0.34 2.13a6 6 0 0 0 2.25 0.77 16.76 16.76 0 0 0 6.41 0.21 4.07 4.07 0 0 0 2.15 -0.77 10.92 10.92 0 0 0 2.7 -1.67 3.24 3.24 0 0 0 0.75 -1.61 22.69 22.69 0 0 0 -0.71 -6.8Zm-9.18 -0.72c0.89 -1.31 2.4 -1.2 2.89 -0.27a6.72 6.72 0 0 1 0.64 2.13c-2.24 -0.07 -3.58 0 -4.28 0a6.81 6.81 0 0 1 0.75 -1.86Zm5.73 10c-0.31 0.51 -4.85 1.2 -8.93 0.18 -0.49 -0.12 -0.7 -0.15 -0.76 -0.6a38.59 38.59 0 0 1 0.62 -5.85c0.19 -1 0.18 -1.09 1.71 -1.06L12.42 16a0.3 0.3 0 0 0 0.59 0l0.19 -1.23c1 0 2.56 0 4.54 0.13 0 0.39 0.07 0.77 0.08 1.12a0.34 0.34 0 0 0 0.67 0l0 -1.06c2 0.18 1.51 0 1.67 1.95 0.14 1.56 0.45 3.99 -0.32 5.26Zm3 -2.5a2.49 2.49 0 0 1 -0.56 1.48 4.28 4.28 0 0 1 -1.18 0.84 12 12 0 0 0 0.07 -5.12 10.51 10.51 0 0 0 -0.35 -1.9 3.71 3.71 0 0 0 1.91 -1.35c0.13 1.35 0.17 5.54 0.15 6.02Z" fill="#020202" fill-rule="evenodd" stroke-width="1"></path>
  </g>
</svg>