<svg xmlns="http://www.w3.org/2000/svg" viewBox="0 0 24 24" id="E-Commerce-Cart-Monitor-Keyboard--Streamline-Freehand">
  <desc>
    E Commerce Cart Monitor Keyboard Streamline Icon: https://streamlinehq.com
  </desc>
  <g>
    <path d="M19.66 17.34c-0.3 -0.68 -1.32 -0.75 -2.33 -0.78a51.84 51.84 0 0 0 -6.41 0.28l-2.24 0.06a25.36 25.36 0 0 1 -3.14 -0.12 0.34 0.34 0 0 0 0 0.68 24.21 24.21 0 0 0 3.23 0.18H11a50.77 50.77 0 0 1 6.27 -0.11c1.67 0.09 1.27 0.43 1.45 0.25a10 10 0 0 0 0.65 1c1.15 2.06 1.45 4 1.28 3.84s2.44 0.2 -10.89 0.35c-6.73 0.07 -7.72 0.1 -7.26 -0.72A17.59 17.59 0 0 1 5 18.16c0.41 -0.18 0 -0.9 -0.44 -0.41a17.91 17.91 0 0 0 -2.65 4.12 1.13 1.13 0 0 0 0.47 1.71c1.85 0.57 15.15 0.51 18.49 0.12 2 -0.24 0.47 -3.74 -0.54 -5.45Z" fill="#020202" fill-rule="evenodd" stroke-width="1"></path>
    <path d="M8.56 21.32c0.82 0 2 0.17 3.55 0.14 1.24 0 3.17 -0.23 3.56 -0.26a0.34 0.34 0 0 0 0 -0.67 21 21 0 0 0 -7.17 0.2 0.3 0.3 0 0 0 0.06 0.59Z" fill="#4C57E6" fill-rule="evenodd" stroke-width="1"></path>
    <path d="M11.62 19.2a0.34 0.34 0 0 0 -0.34 -0.34 6.73 6.73 0 0 0 -2.28 0.05c-0.26 0.12 -0.28 0.46 0.12 0.59 0.88 0.26 2.5 0.39 2.5 -0.3Z" fill="#4C57E6" fill-rule="evenodd" stroke-width="1"></path>
    <path d="M15 19.2a0.34 0.34 0 0 0 -0.33 -0.34 6.72 6.72 0 0 0 -2.32 0.05c-0.26 0.12 -0.29 0.46 0.12 0.59 0.85 0.26 2.53 0.39 2.53 -0.3Z" fill="#4C57E6" fill-rule="evenodd" stroke-width="1"></path>
    <path d="M18.38 18.58a6.73 6.73 0 0 0 -2.32 0.05c-0.26 0.12 -0.28 0.46 0.12 0.58 0.9 0.27 2.54 0.4 2.54 -0.3a0.34 0.34 0 0 0 -0.34 -0.33Z" fill="#4C57E6" fill-rule="evenodd" stroke-width="1"></path>
    <path d="M16.9 20.47c-0.26 0.12 -0.28 0.46 0.12 0.59 0.9 0.26 2.54 0.39 2.54 -0.3a0.34 0.34 0 0 0 -0.34 -0.34 6.73 6.73 0 0 0 -2.32 0.05Z" fill="#4C57E6" fill-rule="evenodd" stroke-width="1"></path>
    <path d="M8 19.2c0 -0.65 -2.45 -0.38 -2.66 -0.29 -1.23 0.58 2.66 1.33 2.66 0.29Z" fill="#4C57E6" fill-rule="evenodd" stroke-width="1"></path>
    <path d="M4.56 20.56c-0.26 0.12 -0.28 0.46 0.12 0.58 0.9 0.27 2.54 0.4 2.54 -0.3a0.34 0.34 0 0 0 -0.34 -0.33 6.73 6.73 0 0 0 -2.32 0.05Z" fill="#4C57E6" fill-rule="evenodd" stroke-width="1"></path>
    <path d="M20.06 13c-0.31 0 -2 0 -2.44 -0.83a2.3 2.3 0 0 1 -0.11 -0.95c0 -0.08 1.44 -0.18 1.82 -0.72s0.57 -3.5 0.57 -4.2c0 -1 -0.12 -2.08 -0.24 -3.09 -0.09 -0.72 -0.05 -2.1 -0.68 -2.52C17.72 -0.18 15.11 0.07 13.3 0c-2.21 0 -4.55 0.13 -6.75 0.2a0.34 0.34 0 0 0 0 0.67c2.21 0 4.44 -0.14 6.7 0 1.68 0.1 4.19 0 5.15 0.64a38.59 38.59 0 0 1 0.37 4.82 13.84 13.84 0 0 1 -0.13 1.94c-0.22 1.47 0.13 1.53 -1.48 1.8 -2.47 0.42 -8.59 0.81 -10.92 0.35 -0.36 -0.07 -0.63 -0.1 -0.72 -0.23a11.48 11.48 0 0 1 -0.39 -2.48 24.58 24.58 0 0 1 0.22 -5.6A8.49 8.49 0 0 0 5.48 0.67a0.3 0.3 0 0 0 -0.42 0c-0.32 0.28 -0.25 1 -0.31 1.34a25.48 25.48 0 0 0 -0.36 6.29 8 8 0 0 0 0.4 2.34c0.55 0.91 3.71 1 4.85 1a2.37 2.37 0 0 0 -0.4 1.82l-1 0.1a0.29 0.29 0 0 0 -0.3 0.29c0 0.4 0.32 0.3 3.25 0.55a10.68 10.68 0 0 0 1.6 0c2.22 -0.17 2.54 -0.14 2.54 -0.53s-0.37 -0.35 -0.73 -0.38a4.45 4.45 0 0 0 -0.46 -2c1 -0.07 1.94 -0.17 2.72 -0.28 -0.07 0.81 -0.28 1.49 1.21 2.38 0.8 0.47 1.37 0.27 2.07 0.53 1.15 0.44 1.53 2 0.9 2.36 -0.39 0.21 -0.88 0.22 -1.14 0.5a0.34 0.34 0 0 0 0.47 0.48c0.23 -0.21 1.07 0 1.58 -0.73A2.61 2.61 0 0 0 20.06 13Zm-10 0.46a3 3 0 0 0 0.37 -1.75c0.93 0 1.81 0 2.76 -0.08a3.33 3.33 0 0 0 0.52 1.83 14.37 14.37 0 0 0 -3.61 -0.05Zm6.8 -2.14Z" fill="#020202" fill-rule="evenodd" stroke-width="1"></path>
    <path d="M14.76 3.09a13.23 13.23 0 0 0 1.58 -0.5 0.25 0.25 0 0 0 0.05 -0.29c-0.08 -0.23 -0.31 -0.22 -1.73 0.06 -0.21 0 -0.38 0 -0.6 0.2s-0.12 0.38 -0.44 1.35a11.66 11.66 0 0 0 -1.86 0c-0.18 0 -2.66 -0.1 -3.16 0.27 -0.32 0.25 -0.22 0.68 -0.17 1A14 14 0 0 0 8.9 7.3a1.18 1.18 0 0 0 0.21 2 1.22 1.22 0 0 0 1.54 -1.67l1.33 0c-0.54 1.06 0.83 1.88 1.71 1.38a1.12 1.12 0 0 0 0 -2c0.49 -2.2 0.62 -2.01 1.07 -3.92Zm-4.71 5c-0.1 0.46 -0.81 0.49 -0.78 0 0.05 -0.7 0.93 -0.66 0.78 0.03Zm-0.4 -1.27c0 -0.08 -0.08 -0.18 -0.08 -0.22l-0.25 -1.49c0 -0.23 -0.34 -0.1 1.08 -0.37 2.7 -0.25 2 -0.27 3.08 -0.32a10.71 10.71 0 0 0 -0.32 2.45 1.07 1.07 0 0 0 -0.71 0.2c-0.64 -0.07 -2.63 -0.21 -2.8 -0.22Zm3.17 1.29c-0.6 -0.25 0.79 -1.37 0.75 -0.22 -0.01 0.27 -0.33 0.48 -0.75 0.25Z" fill="#020202" fill-rule="evenodd" stroke-width="1"></path>
  </g>
</svg>