<svg xmlns="http://www.w3.org/2000/svg" viewBox="0 0 24 24" id="E-Commerce-Cart-Vr--Streamline-Freehand">
  <desc>
    E Commerce Cart Vr Streamline Icon: https://streamlinehq.com
  </desc>
  <g>
    <path d="M24.22 0.21C24.08 -0.14 23.47 0 23 0.1c-2.62 0.49 -1.85 -0.1 -2.69 2.4l-1 0c-4.58 0.18 -6.37 -0.17 -6.54 1a17.23 17.23 0 0 0 0.74 3.77 1.89 1.89 0 0 0 -0.61 1.66 1.59 1.59 0 0 0 2.47 0.93 1.67 1.67 0 0 0 0.57 -2.18l2 0c-0.79 1.47 1.11 2.62 2.37 1.93a1.51 1.51 0 0 0 -0.06 -2.72c0.65 -2.68 1.17 -3.62 1.59 -5.55 0.15 0 0 0 1.31 -0.4 0.56 -0.15 1.29 -0.2 1.07 -0.73Zm-9.08 8.18c-0.14 0.67 -1.15 0.71 -1.21 0.13 -0.11 -1.21 1.43 -1.15 1.21 -0.13Zm-0.68 -1.75a2.1 2.1 0 0 0 -0.11 -0.33 11.27 11.27 0 0 0 -0.45 -2.39 12.19 12.19 0 0 1 1.69 -0.31c4.46 -0.4 2.57 -0.37 4.53 -0.45a15.62 15.62 0 0 0 -0.5 3.5 1.55 1.55 0 0 0 -1 0.28c-0.95 -0.12 -3.38 -0.26 -4.16 -0.3Zm5.39 1.92a1.25 1.25 0 0 1 -0.78 -0.1c-0.94 -0.4 1.2 -2 1.16 -0.35a0.5 0.5 0 0 1 -0.38 0.45Z" fill="#020202" fill-rule="evenodd" stroke-width="1"></path>
    <path d="M6.15 21.32a2 2 0 0 0 2.71 -1.21 0.35 0.35 0 0 0 -0.65 -0.27 1.22 1.22 0 0 1 -1.27 0.45c-0.47 0 -1.09 -0.12 -1.34 -0.52A0.31 0.31 0 0 0 5 20a1.89 1.89 0 0 0 1.15 1.32Z" fill="#020202" fill-rule="evenodd" stroke-width="1"></path>
    <path d="M12.37 19.4c-0.72 0 0.2 1.09 -1.64 2.42 -2 1.47 -5.78 1.1 -7 0.24s-1 -1.45 -1.36 -2.32a0.31 0.31 0 0 0 -0.6 0 3.2 3.2 0 0 0 0.33 1.62c0.94 2.34 4 2.9 6.44 2.5 4.04 -0.78 4.8 -4.46 3.83 -4.46Z" fill="#020202" fill-rule="evenodd" stroke-width="1"></path>
    <path d="M3.08 2c0.41 0 0.83 -1.46 0.19 -1.79S2.12 2 3.08 2Z" fill="#020202" fill-rule="evenodd" stroke-width="1"></path>
    <path d="M3 3.76c-0.41 0 -0.74 1.47 -0.08 1.76S4 3.7 3 3.76Z" fill="#020202" fill-rule="evenodd" stroke-width="1"></path>
    <path d="M4 2.87c0 0.41 1.42 0.83 1.76 0.19S4 1.91 4 2.87Z" fill="#020202" fill-rule="evenodd" stroke-width="1"></path>
    <path d="M2.18 2.79c0 -0.4 -1.47 -0.74 -1.77 -0.07s1.83 1.03 1.77 0.07Z" fill="#020202" fill-rule="evenodd" stroke-width="1"></path>
    <path d="M20.87 18.69c0.41 0 0.83 -1.43 0.18 -1.76s-1.14 1.76 -0.18 1.76Z" fill="#020202" fill-rule="evenodd" stroke-width="1"></path>
    <path d="M20.79 20.48c-0.41 0 -0.74 1.47 -0.07 1.76s1.03 -1.82 0.07 -1.76Z" fill="#020202" fill-rule="evenodd" stroke-width="1"></path>
    <path d="M21.75 19.59c0 0.41 1.42 0.83 1.76 0.19s-1.76 -1.15 -1.76 -0.19Z" fill="#020202" fill-rule="evenodd" stroke-width="1"></path>
    <path d="M20 19.52c0 -0.41 -1.47 -0.74 -1.76 -0.08s1.76 1.03 1.76 0.08Z" fill="#020202" fill-rule="evenodd" stroke-width="1"></path>
    <g>
      <path d="M11.79 12.07h1.05a6.94 6.94 0 0 0 -0.68 -1.48 3 3 0 0 0 -1.68 -1.11v1a8.12 8.12 0 0 1 0.74 0.78 7.79 7.79 0 0 1 0.57 0.81Z" fill="#020202" fill-rule="evenodd" stroke-width="1"></path>
      <path d="M2 12.31c0 -0.06 0.08 -0.13 0.13 -0.21a9.06 9.06 0 0 1 1 -1 3.65 3.65 0 0 1 1.51 -1 0.35 0.35 0 0 0 -0.08 -0.7 3.65 3.65 0 0 0 -3.25 2.35s-0.07 0.31 -0.12 0.59Z" fill="#020202" fill-rule="evenodd" stroke-width="1"></path>
      <path d="M14.89 15.59c-0.12 -1.14 -0.08 -2.18 -1.45 -2.68 -1.07 -0.39 -2.61 -0.07 -4.66 -0.07 0.08 -0.21 0.16 -0.7 0.19 -0.78 0.34 -1.28 1.95 -4.24 -1.72 -4.34C6.1 7.69 5.19 7.85 5.08 9a8.84 8.84 0 0 0 0.44 2.37c0 0.09 0.29 1.43 0.31 1.51s-1 0.09 -1.95 0.11L1.05 13c-0.35 -0.09 -0.79 0.61 -0.08 0.7a10.29 10.29 0 0 0 1.59 0c1.68 0.15 0.73 0 7.13 0.11 1.33 0 3.74 -0.44 4 0.82 0.13 1.62 0.3 2.5 -1.17 3.2a3.36 3.36 0 0 1 -2.34 0.24c-0.17 0 -0.32 -0.06 -0.53 -0.49 -0.32 -0.65 -0.13 -0.9 -0.25 -1.28a0.7 0.7 0 0 0 -0.51 -0.46l-1.59 -0.17a6.94 6.94 0 0 0 -1.39 0.18c-1.16 0.36 -0.91 1.33 -1.23 1.69a3.06 3.06 0 0 1 -3.22 0.57c-0.93 -0.28 -1.08 -1.38 -1 -2.33a8.54 8.54 0 0 0 0.28 -1.68 0.35 0.35 0 0 0 -0.49 0.05c-0.28 0.27 -1.38 3.91 0.92 4.72a3.91 3.91 0 0 0 4.17 -0.67c0.37 -0.37 0.38 -0.82 0.55 -1.18a0.42 0.42 0 0 1 0.27 -0.17 4.57 4.57 0 0 1 2 0c0 0.13 0.08 0.27 0.09 0.32a2.84 2.84 0 0 0 0.83 1.64 2.52 2.52 0 0 0 1.35 0.46c1.72 0.25 3.89 -0.74 4.32 -2.4a5 5 0 0 0 0.14 -1.28Zm-6.84 -2.74H6.53c0 -0.78 -0.68 -3.85 -0.23 -3.85a4 4 0 0 1 2.05 0.15c0.65 0.46 -0.35 2.93 -0.3 3.7Z" fill="#4C57E6" fill-rule="evenodd" stroke-width="1"></path>
    </g>
  </g>
</svg>