<svg xmlns="http://www.w3.org/2000/svg" viewBox="0 0 24 24" id="E-Learning-Monitor-Certificate--Streamline-Freehand">
  <desc>
    E Learning Monitor Certificate Streamline Icon: https://streamlinehq.com
  </desc>
  <g>
    <path d="M22.2 15a1.55 1.55 0 0 0 -0.19 -0.72 2.69 2.69 0 0 0 -0.56 -0.69l-0.22 -0.22 0.07 -0.11a1.77 1.77 0 0 0 0 -1 2.33 2.33 0 0 0 -0.47 -0.78 1.39 1.39 0 0 0 -0.9 -0.47 4.66 4.66 0 0 0 -0.86 0.08 2.3 2.3 0 0 0 -0.35 -0.48 1.79 1.79 0 0 0 -1.28 -0.61 1.72 1.72 0 0 0 -1.32 0.48 1 1 0 0 0 -0.25 0.3 2.71 2.71 0 0 0 -0.2 0.42 2.11 2.11 0 0 0 -1 0.29 1.56 1.56 0 0 0 -0.62 0.73c0 0.05 -0.17 0.51 -0.26 0.79a1.25 1.25 0 0 0 -1 1 3 3 0 0 0 0.67 1.78c-0.08 0.15 -0.16 0.33 -0.17 0.35a1.83 1.83 0 0 0 0 0.87 1.62 1.62 0 0 0 0.43 0.79 1.51 1.51 0 0 0 0.62 0.38 2.38 2.38 0 0 0 0.37 0.06v3.42l0 1.79a0.56 0.56 0 0 0 0.18 0.34 0.5 0.5 0 0 0 0.5 0.11 2.24 2.24 0 0 0 0.77 -0.39 15 15 0 0 0 1.13 -1.12l0.06 -0.09 0.06 0 1.12 1c0.11 0.11 0.69 0.66 0.92 0.64a0.47 0.47 0 0 0 0.43 -0.26 0.71 0.71 0 0 0 0.09 -0.29l0 -0.43 0 -1.15 -0.06 -3.49a1.83 1.83 0 0 0 0.93 -0.58 1.44 1.44 0 0 0 0.29 -0.49 2.24 2.24 0 0 0 0.13 -0.73 0.43 0.43 0 0 0 0 -0.1 2.84 2.84 0 0 0 0.72 -0.51 1.36 1.36 0 0 0 0.22 -0.91Zm-3.33 7.34 -0.82 -0.81c-0.05 0 -0.31 -0.33 -0.43 -0.42a0.61 0.61 0 0 0 -0.53 -0.11 0.91 0.91 0 0 0 -0.32 0.17c-0.13 0.11 -0.29 0.32 -0.38 0.4 -0.25 0.25 -0.53 0.6 -0.82 0.89l-0.08 -0.86 -0.24 -3 0.07 0.1a1.87 1.87 0 0 0 0.81 0.66 2 2 0 0 0 1.05 0.13 1.85 1.85 0 0 0 0.61 -0.24 8 8 0 0 0 0.87 -0.7l0.13 -0.1 0.27 0 -0.17 3.44Zm2.07 -7a4 4 0 0 1 -0.66 0.39 0.58 0.58 0 0 0 -0.29 0.46l0 0.41a1.26 1.26 0 0 1 -0.05 0.33 0.54 0.54 0 0 1 -0.1 0.2 0.77 0.77 0 0 1 -0.42 0.25 1.09 1.09 0 0 1 -0.56 0 0.6 0.6 0 0 0 -0.43 0 3 3 0 0 0 -0.48 0.34c-0.19 0.15 -0.41 0.38 -0.65 0.55a0.71 0.71 0 0 1 -0.31 0.16c-0.81 0.15 -0.82 -0.73 -1.27 -0.95a8.42 8.42 0 0 0 -1.2 -0.22 0.54 0.54 0 0 1 -0.23 -0.11 0.73 0.73 0 0 1 -0.19 -0.33 0.94 0.94 0 0 1 0 -0.41l0.18 -0.38a0.56 0.56 0 0 0 0 -0.5c-0.32 -0.43 -0.78 -1 -0.73 -1.38 0 -0.2 0.21 -0.32 0.6 -0.42a0.5 0.5 0 0 0 0.32 -0.34c0.07 -0.23 0.21 -0.8 0.23 -0.86a1 1 0 0 1 0.46 -0.51 2.43 2.43 0 0 1 0.84 -0.22 0.32 0.32 0 0 0 0.32 -0.33s-0.11 -0.27 0.25 -0.58a1.12 1.12 0 0 1 0.85 -0.27 1.1 1.1 0 0 1 0.74 0.46c0.06 0.09 0.18 0.43 0.25 0.55a0.49 0.49 0 0 0 0.36 0.26c0.42 0 0.76 -0.08 1.07 0a0.61 0.61 0 0 1 0.36 0.24 1.16 1.16 0 0 1 0.25 0.46 0.86 0.86 0 0 1 -0.22 0.81 0.66 0.66 0 0 0 0 0.29 0.64 0.64 0 0 0 0.19 0.33c0.1 0.1 0.38 0.27 0.43 0.32a2.33 2.33 0 0 1 0.31 0.38 0.62 0.62 0 0 1 0.09 0.29 0.43 0.43 0 0 1 -0.31 0.28Z" fill="#020202" fill-rule="evenodd" stroke-width="1"></path>
    <path d="M18.52 12.76a2.24 2.24 0 0 0 -3.1 1.17 2 2 0 0 0 0.75 2.64 2.59 2.59 0 0 0 0.38 0.17 2.73 2.73 0 0 0 0.41 0.1 2.38 2.38 0 0 0 2.23 -1.08 2.1 2.1 0 0 0 0 -2.42 1.84 1.84 0 0 0 -0.67 -0.58Zm-0.17 2.41a1.32 1.32 0 0 1 -1.25 0.56l-0.4 -0.13a1.07 1.07 0 0 1 -0.47 -1.37 1.31 1.31 0 0 1 1.31 -1h0.1a1.74 1.74 0 0 1 0.38 0.14 1.15 1.15 0 0 1 0.47 0.46 1.22 1.22 0 0 1 -0.14 1.34Z" fill="#020202" fill-rule="evenodd" stroke-width="1"></path>
    <path d="M7.52 16.92a5.42 5.42 0 0 0 -0.22 0.56c-0.06 0.18 -0.11 0.37 -0.16 0.56s-0.15 0.66 -0.22 1c-0.61 0.1 -1.22 0.22 -1.81 0.36a0.29 0.29 0 0 0 -0.25 0.33 0.29 0.29 0 0 0 0.32 0.25l2.38 0 1 0 1 -0.07c0.8 -0.06 1.6 -0.15 2.39 -0.23a0.32 0.32 0 0 0 0.32 -0.33A0.33 0.33 0 0 0 12 19c-0.8 -0.05 -1.6 -0.12 -2.41 -0.15l-1 0c-0.31 0 -0.47 0 -0.7 0.05 0.09 -0.18 0.2 -0.35 0.28 -0.53a3.88 3.88 0 0 0 0.23 -0.56 4.23 4.23 0 0 0 0.17 -0.58 8.29 8.29 0 0 0 0.15 -1c-0.13 -0.37 -0.73 -0.24 -0.85 0a6.54 6.54 0 0 0 -0.35 0.69Z" fill="#020202" fill-rule="evenodd" stroke-width="1"></path>
    <path d="M21.19 4A7.87 7.87 0 0 0 21 2.28a3.3 3.3 0 0 0 -0.55 -1.13 1.91 1.91 0 0 0 -0.61 -0.49 3.78 3.78 0 0 0 -1 -0.3 11.93 11.93 0 0 0 -1.2 -0.16C17 0.15 16.45 0.13 15.86 0.12 14 0.07 12.11 0 10.24 0a32.16 32.16 0 0 0 -3.79 0.26A14.54 14.54 0 0 0 4.1 0.68a3.74 3.74 0 0 0 -1.54 0.87 2 2 0 0 0 -0.55 1 7.59 7.59 0 0 0 -0.08 1.36l-0.12 3.36 0 1.34c0 0.66 0.05 1.32 0.08 2a28.35 28.35 0 0 0 0.16 2.93 4 4 0 0 0 0.77 2 1.4 1.4 0 0 0 0.83 0.5 7 7 0 0 0 1.77 0c2.23 -0.06 2.46 0 4.09 0a15 15 0 0 0 1.77 -0.04 0.31 0.31 0 0 0 0.27 -0.32 0.28 0.28 0 0 0 -0.31 -0.26l-1.73 0c-1.36 0 -2.73 -0.16 -4.1 -0.16a9 9 0 0 1 -1.38 0 0.81 0.81 0 0 1 -0.57 -0.26 3.29 3.29 0 0 1 -0.55 -1.61 28 28 0 0 1 -0.06 -2.85l0 -2 0 -1.28L3 3.94a6.24 6.24 0 0 1 0.06 -1.15 0.94 0.94 0 0 1 0.24 -0.45 2.81 2.81 0 0 1 1.1 -0.6 12.21 12.21 0 0 1 2.2 -0.38 34.67 34.67 0 0 1 3.66 -0.28c1.86 -0.06 3.72 0 5.58 0l1.73 0a10.19 10.19 0 0 1 1.11 0.13 3.63 3.63 0 0 1 0.65 0.16 1 1 0 0 1 0.43 0.29 2.28 2.28 0 0 1 0.42 0.82A6.92 6.92 0 0 1 20.41 4l0 2.16c0 1.11 -0.12 2.21 -0.16 3.3a0.33 0.33 0 0 0 0.66 0c0.06 -1.09 0.17 -2.19 0.22 -3.29 0.06 -0.69 0.08 -1.44 0.06 -2.17Z" fill="#4C57E6" fill-rule="evenodd" stroke-width="1"></path>
    <path d="m11.4 5.15 0.93 0a13.32 13.32 0 0 1 1.41 0 0.32 0.32 0 0 0 0.39 -0.25 0.32 0.32 0 0 0 -0.25 -0.39 7.54 7.54 0 0 0 -1.45 -0.39 4.74 4.74 0 0 0 -0.65 0 4.6 4.6 0 0 0 -0.64 0 8.17 8.17 0 0 0 -1.43 0.42 0.29 0.29 0 0 0 -0.23 0.34 0.28 0.28 0 0 0 0.33 0.23c0.52 -0.05 1.04 0.03 1.59 0.04Z" fill="#020202" fill-rule="evenodd" stroke-width="1"></path>
    <path d="M16.26 7.24a0.33 0.33 0 0 0 -0.33 -0.33c-1.12 0 -2.23 -0.13 -3.35 -0.15h-1.44c-0.48 0 -1 0 -1.44 0.07 -1.13 0.1 -2.23 0.26 -3.35 0.42a0.29 0.29 0 0 0 0.05 0.58c1.11 0 2.22 0 3.34 0.06l1.43 0 1.43 -0.09 3.33 -0.23a0.33 0.33 0 0 0 0.33 -0.33Z" fill="#020202" fill-rule="evenodd" stroke-width="1"></path>
    <path d="M12.15 9.79h-0.57l-0.58 0.07c-0.44 0.08 -0.85 0.21 -1.3 0.31a0.29 0.29 0 0 0 -0.28 0.3 0.3 0.3 0 0 0 0.3 0.28c0.46 0.06 0.89 0.15 1.35 0.17a5.43 5.43 0 0 0 0.57 0 5 5 0 0 0 0.56 -0.07c0.44 -0.07 0.86 -0.17 1.3 -0.25a0.32 0.32 0 0 0 0.32 -0.34 0.32 0.32 0 0 0 -0.33 -0.32c-0.49 -0.07 -0.88 -0.13 -1.34 -0.15Z" fill="#020202" fill-rule="evenodd" stroke-width="1"></path>
  </g>
</svg>