<svg xmlns="http://www.w3.org/2000/svg" viewBox="0 0 24 24" id="E-Learning-Global-Anywhere-Course--Streamline-Freehand">
  <desc>
    E Learning Global Anywhere Course Streamline Icon: https://streamlinehq.com
  </desc>
  <g>
    <path d="M24.75 16.46a1.55 1.55 0 0 0 -0.58 -0.71 12 12 0 0 0 -1.34 -0.75c-0.79 -0.43 -1.56 -0.87 -2.37 -1.25 -2.28 -1.08 -3 -1.61 -3.06 -1.55 -1.23 0.74 -2.51 1.43 -3.75 2.17 -0.53 0.32 -1.07 0.65 -1.58 1l-1.14 0.77a5 5 0 0 0 -0.46 0.25c-0.18 0.17 -0.07 0 -0.45 1.57a4.85 4.85 0 0 0 -0.09 0.55l0 0.55c0 0.45 0.05 0.88 0.09 1.32a0.32 0.32 0 0 0 0.31 0.36 0.33 0.33 0 0 0 0.37 -0.31c0.1 -0.43 0.22 -0.83 0.31 -1.26a5.94 5.94 0 0 0 0.13 -1.09 2.83 2.83 0 0 1 0 -0.29 6.24 6.24 0 0 0 1.23 0.73c0.26 0.12 0.52 0.22 0.79 0.32 0 0.35 -0.08 0.71 -0.1 1.06s0 0.68 0 1c0 0.09 -0.06 0.4 -0.06 0.59a0.65 0.65 0 0 0 0.11 0.37 2.28 2.28 0 0 0 0.67 0.64 5.43 5.43 0 0 0 1.11 0.5 7 7 0 0 0 2.46 0.3 6.67 6.67 0 0 0 2.42 -0.59l1.17 -0.7c0.07 -0.05 0.22 -0.12 0.32 -0.2a0.79 0.79 0 0 0 0.18 -0.2 1.91 1.91 0 0 0 0.18 -0.47c0.08 -0.31 0.11 -0.67 0.16 -0.95s0.14 -0.78 0.2 -1.18 0.06 -0.52 0.08 -0.77l1.69 -0.82s0.56 -0.25 0.76 -0.36a0.58 0.58 0 0 0 0.24 -0.6Zm-3.59 2.44c-0.09 0.39 -0.2 0.77 -0.29 1.14s-0.1 0.5 -0.18 0.75 0 0.23 -0.36 0.42l-1.07 0.53a6.47 6.47 0 0 1 -2.06 0.43 7 7 0 0 1 -2.1 -0.2 5.19 5.19 0 0 1 -0.77 -0.24 1.86 1.86 0 0 1 -0.47 -0.29c0.08 -0.1 0 -0.47 0 -0.55q0 -0.62 -0.06 -1.23l0 -0.61c0.57 0.19 1.12 0.36 1.59 0.55 0.24 0.09 0.83 0.53 1.25 0.71a1.27 1.27 0 0 0 0.69 0.12 5.73 5.73 0 0 0 1.19 -0.43c0.83 -0.37 1.67 -0.91 2.42 -1.27l0.27 -0.13c-0.02 0.11 -0.03 0.21 -0.05 0.3Zm2.09 -2.38 -2.79 1.23c-0.74 0.35 -1.58 0.86 -2.41 1.22 -1.84 0.8 -1.28 -0.07 -2.29 -0.44 -0.86 -0.33 -2 -0.59 -3 -1a4.94 4.94 0 0 1 -1.2 -0.66l1 -0.78c0.65 -0.48 1.33 -0.94 2 -1.38 1 -0.64 2 -1.26 3 -1.9a0.35 0.35 0 0 0 0.18 0.4c0.79 0.39 1.57 0.81 2.35 1.23s1.53 0.87 2.29 1.33a11.43 11.43 0 0 1 1.06 0.63l0.05 0Z" fill="#020202" fill-rule="evenodd" stroke-width="1"></path>
    <g>
      <path d="M18.24 7.15a5.1 5.1 0 0 0 -0.52 -1.34A14.45 14.45 0 0 0 16.6 4a6.58 6.58 0 0 0 -1 -1 8.84 8.84 0 0 0 -2 -1.27A10.68 10.68 0 0 0 11.35 1a15.39 15.39 0 0 0 -2.5 -0.32 10.53 10.53 0 0 0 -2.55 0.2 7.75 7.75 0 0 0 -4.16 2.45A11.17 11.17 0 0 0 -0.15 7.55a13.13 13.13 0 0 0 -0.39 6.26 7.82 7.82 0 0 0 4.72 5.86 13.56 13.56 0 0 0 1.92 0.65 8.82 8.82 0 0 0 1.57 0.29 8.78 8.78 0 0 0 1.45 0 0.38 0.38 0 0 0 -0.06 -0.75 8 8 0 0 1 -2.73 -0.3c-0.51 -0.16 -1 -0.33 -1.51 -0.53a8.24 8.24 0 0 1 -1.38 -0.73 7.17 7.17 0 0 1 -3 -4.68A12.82 12.82 0 0 1 0.9 7.86 10.62 10.62 0 0 1 3 4.06a6.7 6.7 0 0 1 3.52 -2.19 12.25 12.25 0 0 1 4.67 0 9.49 9.49 0 0 1 2.08 0.59 8.06 8.06 0 0 1 1.85 1.1 5 5 0 0 1 0.93 0.91S17.1 6 17.16 6.13a3.93 3.93 0 0 1 0.49 1.16 5.78 5.78 0 0 1 0.16 1.27 0.28 0.28 0 0 0 0.28 0.28 0.29 0.29 0 0 0 0.29 -0.29 6.43 6.43 0 0 0 -0.14 -1.4Z" fill="#020202" fill-rule="evenodd" stroke-width="1"></path>
      <path d="M11.19 4.55c-0.12 -0.21 -0.23 -0.42 -0.36 -0.62 -0.46 -0.76 -1.2 -1.22 -1.71 -1.93a0.86 0.86 0 0 0 -1.23 0 10.07 10.07 0 0 0 -2.2 3c-1.14 0.13 -2.1 0.3 -3.24 0.44 -0.58 0.1 -0.67 0.54 -0.37 0.69l3.22 -0.19c-0.08 0.22 -0.18 0.43 -0.25 0.66a12.93 12.93 0 0 0 -0.57 3.4l0 0.27c-1.33 0.06 -2.38 0.11 -3.72 0.08 -0.32 0.07 -0.3 0.57 0 0.61a37.14 37.14 0 0 0 3.77 0.33 13.67 13.67 0 0 0 0.31 2.13 10.22 10.22 0 0 0 0.34 1.07c0.11 0.29 0.23 0.57 0.36 0.86h-1c-1.09 0 -1.84 0.08 -2.91 0.13 -0.34 0.09 -0.22 0.54 0.33 0.68 0.81 0.09 1.29 0.19 2.11 0.24l1.39 0 0.55 0a18.72 18.72 0 0 0 1 2.08 5.61 5.61 0 0 0 0.68 1c0.3 0.31 0.81 0.21 0.73 -0.1a5.1 5.1 0 0 1 -0.76 -1.24 16.06 16.06 0 0 1 -0.73 -1.77c1 -0.09 2.07 -0.22 3.07 -0.37a0.33 0.33 0 0 0 0.3 -0.35 0.33 0.33 0 0 0 -0.35 -0.29l-3.3 0H6.5c-0.14 -0.4 -0.29 -0.79 -0.42 -1.19a7.51 7.51 0 0 1 -0.25 -1 13.32 13.32 0 0 1 -0.23 -1.9c1 0 2 -0.06 3 -0.13s2.18 -0.19 3.27 -0.29a17.43 17.43 0 0 1 0.13 2 0.33 0.33 0 0 0 0.31 0.34 0.34 0.34 0 0 0 0.34 -0.32c0.06 -0.69 0.09 -1.41 0.08 -2.13l0.61 0a0.32 0.32 0 0 0 0.32 -0.33 0.34 0.34 0 0 0 -0.34 -0.32h-0.62c0 -0.47 -0.07 -0.94 -0.13 -1.41a13.53 13.53 0 0 0 -0.73 -2.78 3.78 3.78 0 0 0 -0.17 -0.35l4.33 -0.2c0.58 -0.13 0.15 -0.65 -0.35 -0.69ZM8.56 2.4c0.44 0.83 1 1.13 1.46 2l0.1 0.21c-1.07 0 -2.14 0.11 -3.2 0.21l-0.16 0a7.47 7.47 0 0 1 1.8 -2.42Zm3.16 7.1c0 0.2 0 0.39 0.07 0.58l-3.75 0 -2.46 0.09V10A14.58 14.58 0 0 1 6 6.87c0.09 -0.33 0.21 -0.65 0.32 -1l0.66 0c1.19 -0.08 2.38 -0.19 3.58 -0.27 0.09 0.23 0.19 0.45 0.27 0.68a15 15 0 0 1 0.89 3.22Z" fill="#4C57E6" fill-rule="evenodd" stroke-width="1"></path>
    </g>
  </g>
</svg>