<svg xmlns="http://www.w3.org/2000/svg" viewBox="0 0 24 24" id="E-Transport-Battery-Life-100-Km--Streamline-Freehand">
  <desc>
    E Transport Battery Life 100 Km Streamline Icon: https://streamlinehq.com
  </desc>
  <g>
    <path d="M20.66 14.89c-0.09 -1.29 -0.15 -2.61 -0.21 -3.94S20.37 8.3 20.34 7a19.9 19.9 0 0 0 0.11 -2.07 1.51 1.51 0 0 0 -0.39 -1.09 3.43 3.43 0 0 0 -1.84 -0.68 14 14 0 0 0 -2.34 0 17.31 17.31 0 0 0 0.12 -1.8 2 2 0 0 0 -0.29 -1 0.77 0.77 0 0 0 -0.49 -0.26A16.17 16.17 0 0 0 13.5 0l-2.26 0A15.93 15.93 0 0 0 9 0.29a9.17 9.17 0 0 0 -1.32 0.29 2.05 2.05 0 0 0 -0.61 0.32 0.68 0.68 0 0 0 -0.26 0.53c0 0.17 0.1 0.38 0.1 0.56L7 3.59a5.18 5.18 0 0 0 -2.55 0.31 2.4 2.4 0 0 0 -1.14 2l-0.1 1.62v2.77l0 3.89c0 0.87 0 1.73 0.07 2.6l0 3.5a5.29 5.29 0 0 0 0.32 2.43 2.24 2.24 0 0 0 1.54 1.05l1.08 0.15C7.62 24 9 24 10.36 24c2 -0.06 4.08 -0.2 6.05 -0.32a17.82 17.82 0 0 0 2.49 -0.12 2 2 0 0 0 1.25 -0.67 5.75 5.75 0 0 0 0.58 -2.52 47.48 47.48 0 0 0 -0.07 -5.48Zm-0.92 4.64a6.63 6.63 0 0 1 -0.46 2.71c-0.15 0.21 -0.51 0.23 -0.89 0.28 -0.74 0.08 -1.6 0 -2 0 -2 0.11 -4 0.25 -6 0.31l-4 0 -0.89 -0.11a1.24 1.24 0 0 1 -0.85 -0.53 4.26 4.26 0 0 1 -0.24 -1.92l-0.11 -3.53c-0.06 -0.86 -0.1 -1.72 -0.13 -2.57 0 -1.3 -0.08 -2.59 -0.12 -3.88L4 7.54 4 6a1.81 1.81 0 0 1 0.76 -1.54 6.53 6.53 0 0 1 3 -0.27 0.29 0.29 0 0 0 0.24 -0.28 0.3 0.3 0 0 0 -0.29 -0.3h-0.09l0 -1.6c0 -0.16 -0.2 -0.56 0 -0.54s0 0.08 0 0.1a1.4 1.4 0 0 1 0.51 -0.15c0.36 -0.07 0.75 -0.08 1 -0.12 0.58 -0.08 1.16 -0.11 1.73 -0.15 0.87 0 1.75 -0.08 2.63 -0.08 0.14 0 1.12 -0.11 1.58 -0.08a1.85 1.85 0 0 1 0.14 0.7l0 1.67a0.42 0.42 0 0 0 0 0.16 0.33 0.33 0 0 0 0.34 0.32 19.28 19.28 0 0 1 2.63 0 2.73 2.73 0 0 1 1.44 0.55c0.16 0.13 0.14 0.47 0.13 0.82 0 0.69 -0.15 1.47 -0.15 1.77l0 4c0 1.36 0.07 2.67 0.13 4 0.03 0.7 0.11 2.74 0.01 4.55Z" fill="#4C57E6" fill-rule="evenodd" stroke-width="1"></path>
    <path d="M6.58 7.82v0.74l0 1.15c0 0.6 0.11 1.18 0.2 1.77a0.33 0.33 0 1 0 0.66 0c0 -0.68 0.16 -1.34 0.21 -2l0 -0.88a3.42 3.42 0 0 0 0 -0.46 3.45 3.45 0 0 0 -0.12 -0.46 1.76 1.76 0 0 0 -0.12 -0.34 0.58 0.58 0 0 0 -0.27 -0.34 1.18 1.18 0 0 0 -0.51 0c-0.28 0.06 -0.62 0.17 -0.77 0.2a0.29 0.29 0 0 0 0.07 0.58l0.64 0Z" fill="#020202" fill-rule="evenodd" stroke-width="1"></path>
    <path d="M13 10.64a4.75 4.75 0 0 0 -0.07 -2.22 2.42 2.42 0 0 0 -0.81 -1.21 0.23 0.23 0 0 0 -0.15 -0.12 4.2 4.2 0 0 0 -0.5 -0.17 1.75 1.75 0 0 0 -0.4 0 1.41 1.41 0 0 0 -1.32 0.89 4.78 4.78 0 0 0 -0.35 2.08 3.73 3.73 0 0 0 0.22 1.25 1.69 1.69 0 0 0 0.68 0.8 1.72 1.72 0 0 0 1.76 0.15 2 2 0 0 0 0.94 -1.45Zm-1 -0.22a1 1 0 0 1 -0.47 0.66 0.73 0.73 0 0 1 -0.69 -0.12 0.82 0.82 0 0 1 -0.29 -0.42 3.28 3.28 0 0 1 -0.14 -0.76 4.05 4.05 0 0 1 0.05 -1.69 0.73 0.73 0 0 1 0.6 -0.54 1.14 1.14 0 0 1 0.32 0l0.14 0a0.27 0.27 0 0 0 0.07 0.08 1.67 1.67 0 0 1 0.54 1 3.81 3.81 0 0 1 -0.13 1.79Z" fill="#020202" fill-rule="evenodd" stroke-width="1"></path>
    <path d="M15.3 12.09a1.77 1.77 0 0 0 1.47 -0.22 2.19 2.19 0 0 0 0.85 -1.09 3.78 3.78 0 0 0 -0.11 -2.58 2.1 2.1 0 0 0 -0.51 -0.8 0.3 0.3 0 0 0 -0.17 -0.25L16.41 7l-0.29 -0.07a1.52 1.52 0 0 0 -1.6 0.62 4.11 4.11 0 0 0 -0.52 2.3 3.31 3.31 0 0 0 0.28 1.49 1.56 1.56 0 0 0 1.02 0.75ZM15.19 8a0.82 0.82 0 0 1 0.64 -0.4 0.32 0.32 0 0 0 0.18 0.1 1.28 1.28 0 0 1 0.84 1.14 2.81 2.81 0 0 1 -0.16 1.6 1.27 1.27 0 0 1 -0.5 0.55 0.7 0.7 0 0 1 -0.59 0.07 0.54 0.54 0 0 1 -0.39 -0.34 3.68 3.68 0 0 1 -0.15 -0.89A3.33 3.33 0 0 1 15.19 8Z" fill="#020202" fill-rule="evenodd" stroke-width="1"></path>
    <path d="m9 17.75 -0.49 -0.27 0.16 -0.21c0.3 -0.4 0.59 -0.81 0.9 -1.2s0.47 -0.56 0.71 -0.81a0.3 0.3 0 0 0 0 -0.41 0.29 0.29 0 0 0 -0.41 0 15.89 15.89 0 0 0 -1.72 1.43c-0.2 0.2 -0.38 0.4 -0.55 0.6v-0.09c-0.07 -0.63 -0.17 -1.23 -0.2 -1.85a0.29 0.29 0 0 0 -0.27 -0.31 0.29 0.29 0 0 0 -0.31 0.27 14.9 14.9 0 0 0 -0.29 1.91l0 0.82c0 0.27 0 0.54 0.09 0.81 0.1 0.64 0.25 1.26 0.39 1.87a0.33 0.33 0 0 0 0.66 -0.08l0 -1.83c0.26 0.07 0.67 0.19 0.85 0.26l2 1a0.33 0.33 0 0 0 0.46 -0.1 0.32 0.32 0 0 0 -0.09 -0.45Z" fill="#020202" fill-rule="evenodd" stroke-width="1"></path>
    <path d="M17.61 16.76a1.7 1.7 0 0 0 -1 -0.78 1.38 1.38 0 0 0 -1.25 0.24l-0.23 0.23a1.09 1.09 0 0 0 -0.74 -0.47 1.61 1.61 0 0 0 -1.39 0.6l-0.09 -0.4a0.29 0.29 0 0 0 -0.27 -0.31 0.31 0.31 0 0 0 -0.31 0.28 10.35 10.35 0 0 0 -0.24 1.21 3 3 0 0 0 0 0.52 3 3 0 0 0 0 0.52c0.07 0.4 0.17 0.79 0.26 1.18a0.33 0.33 0 1 0 0.66 0c0 -0.4 0.1 -0.78 0.12 -1.19l0 -0.51 0 -0.33 0.32 -0.31A1.2 1.2 0 0 1 14 17c0.15 0 0.26 0.06 0.32 0.24a2.75 2.75 0 0 1 0.24 0.86c0.09 0.52 0.12 1.07 0.2 1.56a0.33 0.33 0 1 0 0.66 0c0 -0.6 0.15 -1.26 0.12 -1.9a2.63 2.63 0 0 0 -0.07 -0.49s0 -0.09 0.08 -0.14a0.68 0.68 0 0 1 0.26 -0.18 0.55 0.55 0 0 1 0.38 0 0.73 0.73 0 0 1 0.45 0.35 1.63 1.63 0 0 1 0.2 0.74l0 1.51a0.33 0.33 0 0 0 0.66 0.08 9 9 0 0 0 0.33 -1.88 2.24 2.24 0 0 0 -0.22 -0.99Z" fill="#020202" fill-rule="evenodd" stroke-width="1"></path>
  </g>
</svg>