<svg xmlns="http://www.w3.org/2000/svg" viewBox="0 0 24 24" id="E-Transport-Automatic-Navigation-System--Streamline-Freehand">
  <desc>
    E Transport Automatic Navigation System Streamline Icon: https://streamlinehq.com
  </desc>
  <g>
    <path d="M14.7 8.22A0.3 0.3 0 0 0 15 8c0.14 -0.7 0.31 -1.37 0.5 -2l0 -0.11h0.05a17.24 17.24 0 0 1 1.76 0h0.75l0.75 0 1.78 -0.12q0.28 0.83 0.48 1.62a0.33 0.33 0 1 0 0.64 -0.14 19.76 19.76 0 0 0 -0.78 -3 12.84 12.84 0 0 0 -1.38 -2.86A2.18 2.18 0 0 0 17.52 0a2.5 2.5 0 0 0 -1.66 1.72c-0.09 0.26 -0.18 0.51 -0.26 0.77s-0.21 0.77 -0.31 1.16c-0.18 0.71 -0.34 1.4 -0.48 2.1s-0.25 1.39 -0.34 2.12a0.29 0.29 0 0 0 0.23 0.35Zm1.48 -4.28 0.68 -1.8c0.24 -0.59 0.51 -1 0.87 -1s0.67 0.21 1 0.71a12.2 12.2 0 0 1 1.44 2.56c0.08 0.17 0.13 0.35 0.2 0.53a15.23 15.23 0 0 0 -1.47 -0.24 7.06 7.06 0 0 0 -0.8 0 4.33 4.33 0 0 0 -0.8 0.07 7.89 7.89 0 0 0 -1.51 0.43c0.13 -0.44 0.21 -0.85 0.39 -1.26Z" fill="#020202" fill-rule="evenodd" stroke-width="1"></path>
    <path d="M22.53 10.45a0.32 0.32 0 0 0 -0.38 -0.26 0.32 0.32 0 0 0 -0.26 0.38 15.67 15.67 0 0 1 0.26 2.33 8.57 8.57 0 0 1 -0.26 2.29 10.26 10.26 0 0 1 -5.35 6.64 9.92 9.92 0 0 1 -8.43 0.37 9.23 9.23 0 0 1 -1.76 -0.93A10.86 10.86 0 0 1 4.81 20 9.46 9.46 0 0 1 3.05 9.26a10 10 0 0 1 9.12 -6.36 0.29 0.29 0 0 0 0 -0.57A10.73 10.73 0 0 0 2.23 8.9 10.42 10.42 0 0 0 4 20.79a11.19 11.19 0 0 0 1.71 1.39 11.37 11.37 0 0 0 2 1 11 11 0 0 0 9.29 -0.51 11.17 11.17 0 0 0 5.65 -7.31 9.12 9.12 0 0 0 0.21 -2.48 15.69 15.69 0 0 0 -0.33 -2.43Z" fill="#020202" fill-rule="evenodd" stroke-width="1"></path>
    <path d="M7.84 8.42A8.15 8.15 0 0 1 9.74 7 7.3 7.3 0 0 1 12 6.24a0.28 0.28 0 0 0 0.24 -0.33 0.27 0.27 0 0 0 -0.32 -0.24 8.16 8.16 0 0 0 -2.49 0.72A8.92 8.92 0 0 0 7.3 7.87 8.52 8.52 0 0 0 6 9.4a9.5 9.5 0 0 0 -0.92 1.76 7 7 0 0 0 1 6.71 7.1 7.1 0 0 0 6.13 2.95A7.28 7.28 0 0 0 16.47 19 9 9 0 0 0 19 15.16a5.86 5.86 0 0 0 0.33 -2 6.9 6.9 0 0 0 -0.27 -1.95 0.32 0.32 0 0 0 -0.36 -0.21 0.34 0.34 0 0 0 -0.24 0.4 6.4 6.4 0 0 1 0.2 1.78l0 0.27a4 4 0 0 0 -2.77 0.39 3.84 3.84 0 0 0 -1 0.76 3.64 3.64 0 0 0 -0.89 1.65 5 5 0 0 0 -0.07 1.4 11.53 11.53 0 0 0 0.3 1.64 6 6 0 0 1 -2.1 0.48 5.48 5.48 0 0 1 -1.58 -0.14s0 0 0 -0.06a9.43 9.43 0 0 0 -0.39 -4.57 3.39 3.39 0 0 0 -1 -1.32A3.81 3.81 0 0 0 7.64 13a5.9 5.9 0 0 0 -1 -0.11l-1 0a5.77 5.77 0 0 1 0.36 -1.4 1 1 0 0 1 0 -0.1l4.39 -0.63a15.82 15.82 0 0 1 2.39 -0.13 21.71 21.71 0 0 1 2.43 0.17 0.33 0.33 0 0 0 0.38 -0.27 0.33 0.33 0 0 0 -0.26 -0.38 18.79 18.79 0 0 0 -3 -0.5 12.87 12.87 0 0 0 -2.06 0 12.09 12.09 0 0 0 -1.46 0.27c-0.85 0.21 -1.67 0.48 -2.51 0.72a9 9 0 0 1 0.43 -0.81 7.62 7.62 0 0 1 1.11 -1.41Zm7 9.52a4.61 4.61 0 0 1 0.16 -1.43 3.07 3.07 0 0 1 0.65 -1.19 4.07 4.07 0 0 1 0.68 -0.63 3.35 3.35 0 0 1 2.18 -0.58 6.48 6.48 0 0 1 -0.23 0.8 8.1 8.1 0 0 1 -2.43 3.38 7.67 7.67 0 0 1 -1.05 0.7c0.01 -0.35 -0.01 -0.7 -0.01 -1.05Zm-8.29 -4.26a4 4 0 0 1 0.83 0.21 3.55 3.55 0 0 1 0.88 0.5 3.1 3.1 0 0 1 0.92 1.12 9.38 9.38 0 0 1 0.74 3.94 6.57 6.57 0 0 1 -4.29 -5.86c0.31 0.02 0.62 0.04 0.92 0.09Z" fill="#4C57E6" fill-rule="evenodd" stroke-width="1"></path>
    <path d="M12.1 11.76a0.29 0.29 0 0 0 -0.27 0.31 4.67 4.67 0 0 0 -0.19 0.71 1 1 0 0 0 0 0.3 1.59 1.59 0 0 0 0.06 0.3c0.06 0.24 0.16 0.44 0.24 0.67a0.32 0.32 0 0 0 0.34 0.31 0.33 0.33 0 0 0 0.31 -0.35c0.05 -0.24 0.11 -0.46 0.14 -0.71s0 -0.2 0 -0.3a1.35 1.35 0 0 0 -0.05 -0.29 5.72 5.72 0 0 0 -0.28 -0.71 0.28 0.28 0 0 0 -0.3 -0.24Z" fill="#4C57E6" fill-rule="evenodd" stroke-width="1"></path>
  </g>
</svg>