<svg xmlns="http://www.w3.org/2000/svg" viewBox="0 0 24 24" id="E-Transport-Hybrid-Car--Streamline-Freehand">
  <desc>
    E Transport Hybrid Car Streamline Icon: https://streamlinehq.com
  </desc>
  <g>
    <path d="M11.53 5.41 11.45 1a0.29 0.29 0 0 0 -0.58 0l-0.2 4.4c0 1.2 -0.06 2.4 -0.05 3.6 0 1.79 0.08 3.58 0.1 5.38L11 23a0.33 0.33 0 0 0 0.66 0l0.13 -8.57c0 -1.5 0 -3 -0.08 -4.5s-0.14 -3.03 -0.18 -4.52Z" fill="#4C57E6" fill-rule="evenodd" stroke-width="1"></path>
    <path d="M22.15 13.47c-0.36 -0.45 -0.72 -0.89 -1.12 -1.3A11.05 11.05 0 0 0 19.75 11a6.35 6.35 0 0 0 -0.66 -0.53 1.56 1.56 0 0 0 -0.43 -0.21 0.32 0.32 0 0 0 0.18 -0.37L18.47 8c-0.06 -0.25 -0.12 -0.5 -0.2 -0.75a5.49 5.49 0 0 0 -0.21 -0.51 2.47 2.47 0 0 0 -1.86 -1.3 13.47 13.47 0 0 0 -2.91 0.25 0.28 0.28 0 0 0 -0.29 0.28 0.28 0.28 0 0 0 0.28 0.3 19 19 0 0 1 2.72 0.17 1.57 1.57 0 0 1 1.11 0.78l0.47 1 0.64 1.85a0.25 0.25 0 0 0 0.1 0.15s-0.09 0 -0.13 0c-0.27 0 -0.57 0.07 -0.81 0.06l-2.21 0c-0.49 0 -1 0 -1.48 0.07a0.28 0.28 0 0 0 -0.27 0.3 0.28 0.28 0 0 0 0.3 0.28l1.44 0c0.73 0 1.45 0.09 2.18 0.15l1.08 0a1.06 1.06 0 0 1 0.23 0.16c0.18 0.15 0.35 0.34 0.49 0.46 0.33 0.29 0.62 0.6 0.91 0.91 0.44 0.49 0.85 1 1.24 1.52a2.49 2.49 0 0 1 0.51 1 6.6 6.6 0 0 1 0 2c-0.05 1.14 -0.62 1.1 -0.62 1.1a9.59 9.59 0 0 1 -1.52 0l-2.62 0c-0.87 0 -1.74 0.09 -2.61 0.19a0.33 0.33 0 1 0 0.06 0.65l1.46 0 0 0.57 0 1.23a3.53 3.53 0 0 0 0 0.86 1.15 1.15 0 0 0 0.26 0.5 1.54 1.54 0 0 0 0.56 0.35 3.52 3.52 0 0 0 0.71 0.18 6.21 6.21 0 0 0 1.78 0 2 2 0 0 0 1.27 -0.67 2 2 0 0 0 0.4 -1.09 6.24 6.24 0 0 0 -0.29 -1.77l0.6 0a2.22 2.22 0 0 0 1.26 -0.46 0.86 0.86 0 0 0 0.29 -0.52 10 10 0 0 0 0.05 -1 7.51 7.51 0 0 0 0 -2.31 3.47 3.47 0 0 0 -0.69 -1.47Zm-2.07 7.22a1.26 1.26 0 0 1 -0.31 0.81 1.06 1.06 0 0 1 -0.66 0.22 6 6 0 0 1 -1.47 0l-0.64 -0.19a0.3 0.3 0 0 1 -0.08 -0.18c0 -0.18 0 -0.37 -0.05 -0.52 -0.05 -0.42 -0.1 -0.83 -0.18 -1.25 0 -0.17 -0.07 -0.35 -0.1 -0.52H17c0.85 0 1.7 0.06 2.55 0.13l0.38 0a10 10 0 0 1 0.15 1.5Z" fill="#020202" fill-rule="evenodd" stroke-width="1"></path>
    <path d="M9.47 11.16a0.29 0.29 0 0 0 0.26 -0.32 0.28 0.28 0 0 0 -0.31 -0.26L8 10.66c-0.27 0 -0.53 0 -1.39 -0.05 -0.41 0 -1 -0.16 -1.5 -0.16l-0.28 0 0.82 -1.84 0.8 -1.34a1.09 1.09 0 0 1 0.81 -0.45c0.56 -0.11 1.26 -0.16 2.09 -0.33a0.29 0.29 0 1 0 -0.07 -0.57 24.44 24.44 0 0 0 -2.54 0 1.82 1.82 0 0 0 -1.21 0.75c-0.16 0.24 -0.32 0.49 -0.46 0.75a7.21 7.21 0 0 0 -0.35 0.82l-0.62 2.27a0.34 0.34 0 0 0 0 0.2 6 6 0 0 0 -0.76 0.52c-0.4 0.34 -0.78 0.72 -1.14 1.07a13.46 13.46 0 0 0 -1.43 1.41 2.77 2.77 0 0 0 -0.51 0.93 3.7 3.7 0 0 0 -0.13 0.74l0 1a6.68 6.68 0 0 0 0.05 1.72 1.42 1.42 0 0 0 0.59 0.84 2 2 0 0 0 0.93 0.3 5 5 0 0 0 0.77 0 8.78 8.78 0 0 0 -0.13 1.67 2.2 2.2 0 0 0 0.28 1 2.77 2.77 0 0 0 2 0.94A2.22 2.22 0 0 0 6.73 22 2.51 2.51 0 0 0 7 20.66a11.33 11.33 0 0 0 -0.24 -1.58c0.93 0 1 0.09 1.44 0.11l1.13 0a0.33 0.33 0 1 0 0 -0.65c-0.57 0 -0.87 0 -1.08 -0.05 -0.43 0 -0.51 -0.11 -1.66 -0.2 -0.51 0 -1 -0.06 -1.51 -0.07l-2.25 0a7.12 7.12 0 0 1 -1 0 1 1 0 0 1 -0.45 -0.15c-0.17 -0.12 -0.17 -0.36 -0.18 -0.58l0 -1.07 0 -0.93a2.54 2.54 0 0 1 0.09 -0.54 2.05 2.05 0 0 1 0.46 -0.74c0.39 -0.44 0.88 -0.86 1.18 -1.17s0.67 -0.74 1 -1.08a3.78 3.78 0 0 1 0.72 -0.56 1.28 1.28 0 0 1 0.61 -0.11c0.45 0 0.92 0.08 1.27 0.07l1.44 0c0.27 0 0.62 -0.11 1.5 -0.2Zm-4.38 7.92h1a11.71 11.71 0 0 1 0.07 1.58 1.75 1.75 0 0 1 -0.27 0.87 0.58 0.58 0 0 1 -0.33 0.17 2.35 2.35 0 0 1 -0.85 0.07 3.06 3.06 0 0 1 -0.88 -0.19 0.91 0.91 0 0 1 -0.39 -0.22 1.61 1.61 0 0 1 -0.27 -0.8 11.1 11.1 0 0 1 -0.06 -1.36c0.65 -0.06 1.32 -0.1 1.98 -0.12Z" fill="#020202" fill-rule="evenodd" stroke-width="1"></path>
    <path d="M6.36 15.28c-0.36 -0.07 -0.71 -0.15 -1.08 -0.2a3.71 3.71 0 0 0 -0.47 0l-0.46 0c-0.37 0.05 -0.7 0.16 -1.07 0.24a0.29 0.29 0 1 0 0 0.58 10.46 10.46 0 0 0 1.08 0.24 3.62 3.62 0 0 0 0.46 0 3.42 3.42 0 0 0 0.46 0c0.36 -0.05 0.71 -0.13 1.07 -0.18a0.33 0.33 0 0 0 0.33 -0.33 0.32 0.32 0 0 0 -0.32 -0.35Z" fill="#020202" fill-rule="evenodd" stroke-width="1"></path>
    <path d="M17.27 16.37a2.37 2.37 0 0 0 0.46 0 3.57 3.57 0 0 0 0.46 0c0.35 -0.05 0.69 -0.14 1 -0.22a0.33 0.33 0 0 0 0.32 -0.34 0.34 0.34 0 0 0 -0.34 -0.32c-0.35 -0.05 -0.69 -0.12 -1 -0.16a3.25 3.25 0 0 0 -0.44 0 3 3 0 0 0 -0.43 0c-0.36 0 -0.68 0.14 -1 0.18a0.29 0.29 0 0 0 -0.06 0.58 6.7 6.7 0 0 0 1.03 0.28Z" fill="#020202" fill-rule="evenodd" stroke-width="1"></path>
    <path d="m0.54 5.06 0.76 0.08 1.8 0 -0.1 0.16 -2 2.48a0.34 0.34 0 0 0 0 0.47 0.34 0.34 0 0 0 0.47 -0.05L3.7 5.88A9 9 0 0 0 4.39 5a0.59 0.59 0 0 0 -0.15 -0.78 0.94 0.94 0 0 0 -0.38 -0.12 5.12 5.12 0 0 0 -0.57 0L1.45 4l0.12 -0.18c0.33 -0.47 0.66 -0.92 1 -1.36s0.72 -0.84 1.13 -1.26a0.31 0.31 0 0 0 0 -0.41 0.3 0.3 0 0 0 -0.42 0C2.85 1.2 2.43 1.59 2 2s-0.8 0.82 -1.19 1.26a7.72 7.72 0 0 0 -0.57 0.64 1.38 1.38 0 0 0 -0.24 0.51 0.65 0.65 0 0 0 0.54 0.65Z" fill="#4C57E6" fill-rule="evenodd" stroke-width="1"></path>
    <path d="M23.56 4.05a14.73 14.73 0 0 0 -1.83 -2.45 0.33 0.33 0 0 0 -0.4 -0.09 0.3 0.3 0 0 0 -0.27 0.14 18 18 0 0 0 -1.82 3A3.11 3.11 0 0 0 19 6.37a2.23 2.23 0 0 0 2.47 1.71 2.68 2.68 0 0 0 2.4 -1.77 3.06 3.06 0 0 0 -0.31 -2.26ZM22.94 6a1.65 1.65 0 0 1 -1.51 1A1.23 1.23 0 0 1 20 6.12a2.58 2.58 0 0 1 0.2 -1.61 16.83 16.83 0 0 1 1.2 -2.25 12 12 0 0 1 1.37 2.17A2.11 2.11 0 0 1 22.94 6Z" fill="#4C57E6" fill-rule="evenodd" stroke-width="1"></path>
  </g>
</svg>