<svg xmlns="http://www.w3.org/2000/svg" viewBox="0 0 24 24" id="E-Transport-Rental-Bicycle-Application--Streamline-Freehand">
  <desc>
    E Transport Rental Bicycle Application Streamline Icon: https://streamlinehq.com
  </desc>
  <g>
    <path d="M23.87 17.64a4.58 4.58 0 0 0 -1.79 -2.53A6.49 6.49 0 0 0 19.27 14a0.36 0.36 0 0 0 -0.21 0 3.57 3.57 0 0 0 -1.1 0.15L17.1 12c-0.09 -0.22 -0.33 -0.68 -0.52 -1.13a4.29 4.29 0 0 1 -0.18 -0.59s0 0 0 -0.06c0.2 0 0.43 0.08 0.47 0.08l2.83 0.13a0.29 0.29 0 0 0 0.32 -0.25 0.28 0.28 0 0 0 -0.25 -0.32l-2.83 -0.41a8.37 8.37 0 0 0 -0.85 -0.1 0.53 0.53 0 0 0 -0.44 0.19 1.37 1.37 0 0 0 -0.2 1.14 10.77 10.77 0 0 0 0.64 1.73A26.46 26.46 0 0 0 13.55 14c-0.18 -0.45 -0.37 -0.9 -0.58 -1.35s-0.33 -0.68 -0.5 -1l-0.67 -0.93 1 -0.15a0.28 0.28 0 1 0 0 -0.56L11.55 10c-0.8 -0.1 -0.69 -0.12 -0.91 0a0.44 0.44 0 0 0 -0.1 0.56 3.38 3.38 0 0 0 0.27 0.58c0.22 0.37 0.51 0.71 0.73 1.08L13 14.44l-0.88 0.7a5.42 5.42 0 0 0 -1.85 -1.29 3.16 3.16 0 0 0 -0.59 -0.2l-0.14 0h-0.13a3.32 3.32 0 0 0 -0.94 0.05 5.14 5.14 0 0 0 -2.91 1.81A4.48 4.48 0 0 0 9 22.72a4.37 4.37 0 0 0 3.14 -1.24 4.48 4.48 0 0 0 1.46 -3 4.57 4.57 0 0 0 -0.82 -2.48q0.78 -0.59 1.53 -1.2c0.68 -0.56 1.35 -1.13 2 -1.68 0.19 0.45 0.37 0.89 0.57 1.33 0 0.08 0.07 0.15 0.11 0.22a4.75 4.75 0 0 0 -1.93 3.16c-0.4 2.27 0.62 4.77 3.34 5.29a5 5 0 0 0 4.13 -1.36 4.16 4.16 0 0 0 1.34 -4.12Zm-12.48 3.08a3.23 3.23 0 0 1 -2.36 0.9 3.55 3.55 0 0 1 -3.07 -2A3.67 3.67 0 0 1 6.24 16a4.46 4.46 0 0 1 1.91 -1.5 2.94 2.94 0 0 1 1.22 -0.23 4.52 4.52 0 0 1 2.15 1.38c-0.81 0.69 -1.6 1.42 -2.43 2.1a0.32 0.32 0 0 0 0.38 0.52c0.9 -0.58 1.79 -1.17 2.66 -1.8a3.84 3.84 0 0 1 0.51 2 3.55 3.55 0 0 1 -1.25 2.25Zm10.46 0.28a4 4 0 0 1 -3.23 1c-2.12 -0.34 -2.87 -2.31 -2.64 -4.09a4 4 0 0 1 1.38 -2.62c0.57 1.19 1.17 2.36 1.77 3.54a0.33 0.33 0 0 0 0.43 0.16 0.33 0.33 0 0 0 0.16 -0.43l-1.5 -3.73a2.75 2.75 0 0 1 1 -0.17 5.52 5.52 0 0 1 2.39 1A3.71 3.71 0 0 1 23 17.85 3.25 3.25 0 0 1 21.85 21Z" fill="#020202" fill-rule="evenodd" stroke-width="1"></path>
    <path d="m4.35 21.69 -1.89 0a2.37 2.37 0 0 1 -1.06 -0.24 1.18 1.18 0 0 1 -0.4 -0.63 4.13 4.13 0 0 1 -0.18 -1.3l0 -1.55c0 -1.21 0.11 -2.34 0.14 -3.66l0.1 -3.11 0.16 -5.09 0 -2.08A2.13 2.13 0 0 1 1.6 3a1.56 1.56 0 0 1 0.46 -0.43c0.07 0.1 0.13 0.2 0.21 0.3s0.39 0.44 0.62 0.66a2.39 2.39 0 0 0 0.32 0.32 0.66 0.66 0 0 0 0.31 0.13A7.79 7.79 0 0 0 5 4.12l2.11 0 1.85 0a3.57 3.57 0 0 0 0.89 -0.16 2.55 2.55 0 0 0 1 -0.57 7.44 7.44 0 0 0 0.9 -1.19s0 0 0 -0.06a1.13 1.13 0 0 1 0.46 0.35 1.56 1.56 0 0 1 0.25 0.5 5.1 5.1 0 0 1 0.16 1c0.06 0.82 0 1.66 0 2.49a8.42 8.42 0 0 0 0.07 1.12 0.34 0.34 0 0 0 0.37 0.28 0.33 0.33 0 0 0 0.28 -0.37 7 7 0 0 1 -0.05 -1c0 -0.85 0.13 -1.7 0.08 -2.55a5.41 5.41 0 0 0 -0.16 -1.11 2.65 2.65 0 0 0 -0.35 -0.76 2.3 2.3 0 0 0 -1.27 -0.82 10.3 10.3 0 0 0 -2 -0.23C8.84 0.84 8.09 0.83 7.34 0.85 6.23 0.86 5.12 0.94 4 1a6.63 6.63 0 0 0 -2 0.35 2.76 2.76 0 0 0 -1.23 0.95 3 3 0 0 0 -0.5 1.19 15 15 0 0 0 -0.1 2.57c0 1 -0.08 2 -0.1 3.06l0 2.07v3.1C0 15.62 0 16.76 0 18c0 0.51 0 1 0.06 1.58a5 5 0 0 0 0.27 1.52A1.82 1.82 0 0 0 1 22a2.49 2.49 0 0 0 1.06 0.29c0.79 0.07 1.79 0 2.25 0a0.29 0.29 0 1 0 0 -0.57ZM4.09 2c1.1 -0.1 2.18 -0.2 3.28 -0.25 0.72 0 1.45 -0.05 2.17 0a12.54 12.54 0 0 1 1.55 0.1 4.67 4.67 0 0 1 -0.78 0.85 1.82 1.82 0 0 1 -0.7 0.32 3.24 3.24 0 0 1 -0.67 0C8.31 3.07 7.56 3 7.12 3c-0.77 0 -1.64 0.1 -2.47 0.12a8.3 8.3 0 0 1 -1 0l-0.26 -0.22a6.6 6.6 0 0 1 -0.63 -0.5l-0.1 -0.12A8.21 8.21 0 0 1 4.09 2Z" fill="#020202" fill-rule="evenodd" stroke-width="1"></path>
    <path d="M9 9.66a1.4 1.4 0 0 0 -0.66 -0.93 5.06 5.06 0 0 0 -1.58 -0.51c-0.31 -0.08 -0.64 -0.11 -0.68 -0.45s0.3 -0.57 0.7 -0.64a2.72 2.72 0 0 1 1.52 0.19 0.29 0.29 0 1 0 0.29 -0.5 3.2 3.2 0 0 0 -1.19 -0.4 0.75 0.75 0 0 0 0 -0.16 0.62 0.62 0 0 0 0 -0.19c0 -0.2 -0.43 -0.84 -0.67 -0.8 0 0 -0.25 0 -0.41 0.76a0.91 0.91 0 0 0 0 0.17 0.52 0.52 0 0 0 0.06 0.16h-0.11a1.33 1.33 0 0 0 -1.19 1.49 1.27 1.27 0 0 0 0.52 1 4.51 4.51 0 0 0 1.6 0.58c0.33 0.08 0.68 0.12 0.76 0.44a0.62 0.62 0 0 1 -0.17 0.67 1.36 1.36 0 0 1 -0.9 0.28 1.49 1.49 0 0 1 -0.62 -0.15 2.06 2.06 0 0 1 -0.56 -0.42 0.33 0.33 0 0 0 -0.48 0.44 3 3 0 0 0 0.68 0.61 2.34 2.34 0 0 0 0.78 0.29 2 2 0 0 0 -0.09 0.29 0.74 0.74 0 0 0 0 0.21 0.73 0.73 0 0 0 0.06 0.21c0.28 0.68 0.4 0.76 0.6 0.74s0.3 -0.05 0.42 -0.86a1.62 1.62 0 0 0 0 -0.22 0.67 0.67 0 0 0 -0.05 -0.19 1.45 1.45 0 0 0 -0.1 -0.18 1.94 1.94 0 0 0 1.08 -0.56A1.58 1.58 0 0 0 9 9.66Z" fill="#4C57E6" fill-rule="evenodd" stroke-width="1"></path>
    <path d="m15.71 2.47 0.77 0a2.4 2.4 0 0 1 0.46 0 8.27 8.27 0 0 1 0.83 0.19 2.08 2.08 0 0 1 0.43 0.19A1.81 1.81 0 0 1 19.06 4a8.25 8.25 0 0 1 0.42 2.26l-0.27 -0.18c-0.45 -0.27 -0.9 -0.51 -1.36 -0.77a0.28 0.28 0 0 0 -0.4 0 0.29 0.29 0 0 0 0.06 0.41l1.59 1.55a4.18 4.18 0 0 0 0.54 0.47 0.69 0.69 0 0 0 0.44 0.1 0.88 0.88 0 0 0 0.38 -0.2 4.36 4.36 0 0 0 0.35 -0.45L22 5.5a0.32 0.32 0 1 0 -0.49 -0.42l-1.34 1.28a7.78 7.78 0 0 0 -0.11 -2.71 2.66 2.66 0 0 0 -1.39 -1.72 2.88 2.88 0 0 0 -0.7 -0.18 7.63 7.63 0 0 0 -0.95 0 2.78 2.78 0 0 0 -0.58 0.05c-0.27 0 -0.53 0.09 -0.79 0.14a0.3 0.3 0 0 0 -0.26 0.32 0.28 0.28 0 0 0 0.32 0.21Z" fill="#4C57E6" fill-rule="evenodd" stroke-width="1"></path>
  </g>
</svg>