<svg xmlns="http://www.w3.org/2000/svg" viewBox="0 0 24 24" id="E-Transport-Car-Electric--Streamline-Freehand">
  <desc>
    E Transport Car Electric Streamline Icon: https://streamlinehq.com
  </desc>
  <g>
    <path d="M23.7 18.73a9.91 9.91 0 0 0 -0.28 -2.14 2.25 2.25 0 0 0 -0.55 -0.94A3.56 3.56 0 0 0 22 15a5.66 5.66 0 0 0 -1 -0.34l-0.7 -0.18a21.62 21.62 0 0 1 -1.2 -2.35 5.17 5.17 0 0 0 -0.74 -1.06 3.61 3.61 0 0 0 -0.81 -0.69 1.83 1.83 0 0 0 -0.82 -0.25 20.55 20.55 0 0 0 -2.22 0c-0.73 0 -1.47 0.09 -2.2 0.18a13.75 13.75 0 0 0 -1.53 0.22 3.51 3.51 0 0 0 -1.04 0.47 4 4 0 0 0 -1.11 1.2c-0.6 0.93 -1 2.12 -1.53 3l-0.63 0.37c-0.37 0.23 -0.82 0.47 -1.2 0.76a2.87 2.87 0 0 0 -0.74 0.78 1.82 1.82 0 0 0 -0.22 0.67 9.24 9.24 0 0 0 0 1.27l0 0.38a2.44 2.44 0 0 0 0 0.32c0 0.23 0.07 0.47 0.12 0.7s0.09 0.31 0.14 0.47a1.85 1.85 0 0 0 1 1.05 7.58 7.58 0 0 0 2.54 0.29A2.86 2.86 0 0 0 9 23.51a2.19 2.19 0 0 0 2.21 0.32 2.6 2.6 0 0 0 1.31 -1.5c0.35 0.05 0.7 0.1 1.06 0.12a4 4 0 0 0 0.6 0c0.2 0 0.4 0 0.6 -0.07 0.38 -0.06 0.75 -0.14 1.12 -0.22a2.26 2.26 0 0 0 2.55 1.58 2.47 2.47 0 0 0 0.47 -0.11 2.5 2.5 0 0 0 1.53 -1.73s0 0 0.06 0l2 -0.13a1.43 1.43 0 0 0 1.31 -1 7.23 7.23 0 0 0 -0.12 -2.04Zm-12.9 4.1a1.15 1.15 0 0 1 -1.15 -0.18 1.81 1.81 0 0 1 -0.83 -1.07 1.46 1.46 0 0 1 0.25 -1.12 1.87 1.87 0 0 1 0.26 -0.3l0.1 0a3.49 3.49 0 0 1 0.48 -0.23 1.34 1.34 0 0 1 0.46 -0.08 1.31 1.31 0 0 1 1.36 1.3 1.67 1.67 0 0 1 -0.93 1.68Zm8.75 -1.35a1.49 1.49 0 0 1 -0.95 1.11l-0.58 0.09a1.23 1.23 0 0 1 -1.29 -1.33 2 2 0 0 1 0.7 -1.6 2.6 2.6 0 0 1 0.73 -0.08 1.65 1.65 0 0 1 1 0.39 1.41 1.41 0 0 1 0.39 1.42Zm3.58 -0.85c-0.07 0.24 -0.28 0.39 -0.73 0.48l-1.82 0.16a2.24 2.24 0 0 0 -0.94 -1.9 2.39 2.39 0 0 0 -1.47 -0.44H18a0.34 0.34 0 0 0 -0.2 0 2.16 2.16 0 0 0 -0.43 0.14 3.37 3.37 0 0 0 -0.6 0.23 0.32 0.32 0 0 0 -0.2 0.34 2.84 2.84 0 0 0 -0.71 1.71 0.41 0.41 0 0 0 0 0.11c-0.37 0 -0.74 -0.07 -1.11 -0.08h-0.6a5.63 5.63 0 0 0 -0.59 0.05c-0.29 0.05 -0.58 0.11 -0.86 0.18a2.32 2.32 0 0 0 0 -0.59 2.11 2.11 0 0 0 -2.37 -1.93l-0.21 0a0.36 0.36 0 0 0 -0.23 0A3 3 0 0 0 8.3 20.3a2.1 2.1 0 0 0 -0.3 1.35 8.93 8.93 0 0 1 -1.8 -0.17 1.25 1.25 0 0 1 -1 -0.82 1.88 1.88 0 0 1 -0.12 -0.48c0 -0.17 0 -0.35 -0.07 -0.52l0 -0.59 0 -1a1.14 1.14 0 0 1 0.13 -0.49 2.31 2.31 0 0 1 0.64 -0.58 12.74 12.74 0 0 1 1.16 -0.67c0.17 -0.1 0.42 -0.19 0.61 -0.31a1.16 1.16 0 0 0 0.34 -0.32c0.59 -0.83 1 -2 1.62 -2.92a2.81 2.81 0 0 1 0.83 -0.88 2.18 2.18 0 0 1 0.74 -0.3 12 12 0 0 1 1.41 -0.2c0.7 -0.08 1.41 -0.14 2.12 -0.17s1.42 0 2.12 0a0.76 0.76 0 0 1 0.43 0.16 3.28 3.28 0 0 1 0.48 0.42 4.5 4.5 0 0 1 0.61 0.84 23.53 23.53 0 0 0 1.32 2.42 1.12 1.12 0 0 0 0.47 0.34 7.68 7.68 0 0 0 0.78 0.18 4.42 4.42 0 0 1 0.8 0.25 2.49 2.49 0 0 1 0.65 0.44 1.53 1.53 0 0 1 0.42 0.82 11.21 11.21 0 0 1 0.22 1.69 6.12 6.12 0 0 1 0.22 1.84Z" fill="#020202" fill-rule="evenodd" stroke-width="1"></path>
    <path d="M3.32 16.2c-0.32 -0.07 -0.81 -0.1 -1.22 -0.2a1.36 1.36 0 0 1 -0.6 -0.33 0.94 0.94 0 0 1 -0.23 -0.48 4.61 4.61 0 0 1 -0.06 -1l-0.12 -3.33 0 -3.15c0 -1.05 0 -2.1 0.1 -3.14a8.92 8.92 0 0 1 0.16 -1.9 1.88 1.88 0 0 1 0.47 -0.92L2 1.63a3.64 3.64 0 0 0 0.3 0.63 1.58 1.58 0 0 0 0.58 0.57 3.58 3.58 0 0 0 1.29 0.34 9.5 9.5 0 0 0 1.41 0c0.49 0 1 -0.09 1.33 -0.11C7 3 7.72 3 8 3a0.85 0.85 0 0 0 0.32 -0.1 2.29 2.29 0 0 0 0.52 -0.51 7.54 7.54 0 0 0 0.54 -0.94 1.69 1.69 0 0 1 0.68 1 7.45 7.45 0 0 1 0.17 0.82c0 0.28 0.08 0.56 0.1 0.84 0.08 0.94 0.17 1.91 0.22 2.87l0 1.9a0.33 0.33 0 0 0 0.31 0.34 0.34 0.34 0 0 0 0.34 -0.32l0 -1.95c0 -1 -0.07 -1.95 -0.12 -2.89 0 -0.3 0 -0.61 -0.08 -0.91a8.89 8.89 0 0 0 -0.15 -0.9A2.6 2.6 0 0 0 9 0.24 13.5 13.5 0 0 0 5.28 0a13.48 13.48 0 0 0 -2.47 0.15 3.25 3.25 0 0 0 -1.72 0.76 2.93 2.93 0 0 0 -0.78 1.45 9.84 9.84 0 0 0 -0.18 2.13l0 3.17c0 1.06 0.05 2.12 0.1 3.18l0.26 3.33a6 6 0 0 0 0.13 1.16 1.66 1.66 0 0 0 0.44 0.8 2 2 0 0 0 0.89 0.45 13 13 0 0 0 1.29 0.19 0.29 0.29 0 1 0 0.09 -0.57ZM3 1.22a13.54 13.54 0 0 1 2.29 -0.14 12.77 12.77 0 0 1 3.48 0.06 5.9 5.9 0 0 1 -0.42 0.6A1.48 1.48 0 0 1 8 2.1c-0.34 0 -1 -0.1 -1.14 -0.1L5.48 2c-0.51 0 -0.88 0.05 -1.29 0.06a3.24 3.24 0 0 1 -1 -0.09 1 1 0 0 1 -0.42 -0.37 2.39 2.39 0 0 1 -0.21 -0.34A2.58 2.58 0 0 1 3 1.22Z" fill="#020202" fill-rule="evenodd" stroke-width="1"></path>
    <path d="M6.21 8.52a1 1 0 0 1 -0.08 0.2c-0.15 0.32 -0.32 0.62 -0.49 0.93 -0.26 0.47 -0.54 0.92 -0.81 1.38a0.33 0.33 0 0 0 0.09 0.45 0.32 0.32 0 0 0 0.45 -0.09L7 9.19a3.6 3.6 0 0 0 0.39 -0.81 0.94 0.94 0 0 0 -0.07 -0.71 0.63 0.63 0 0 0 -0.51 -0.26l-0.53 0c-0.3 0 -0.71 0.05 -1.1 0.05 0.23 -0.38 0.45 -0.74 0.69 -1.1s0.5 -0.7 0.78 -1A0.28 0.28 0 1 0 6.2 5c-0.33 0.31 -0.65 0.63 -1 1s-0.6 0.67 -0.88 1l-0.47 0.57 0 0.07a0.51 0.51 0 0 0 0.24 0.73 2.22 2.22 0 0 0 0.75 0.19 10.56 10.56 0 0 0 1.37 -0.04Z" fill="#4C57E6" fill-rule="evenodd" stroke-width="1"></path>
  </g>
</svg>