<svg xmlns="http://www.w3.org/2000/svg" viewBox="0 0 24 24" id="Earpods-Bluetooth-2--Streamline-Freehand">
  <desc>
    Earpods Bluetooth 2 Streamline Icon: https://streamlinehq.com
  </desc>
  <g>
    <path d="m14.29 19.7 -0.7 -0.43 -1.16 -0.6c-0.11 -0.06 -0.22 -0.14 -0.34 -0.22 0.45 -0.27 1.08 -0.55 1.59 -0.87a3.27 3.27 0 0 0 0.73 -0.61 0.53 0.53 0 0 0 0.1 -0.47 1.8 1.8 0 0 0 -0.29 -0.59 6 6 0 0 0 -0.78 -0.84 8.17 8.17 0 0 0 -0.89 -0.69l-0.69 -0.44a0.62 0.62 0 0 0 -0.61 0 1.27 1.27 0 0 0 -0.47 0.48 2.68 2.68 0 0 0 -0.26 0.73 5.46 5.46 0 0 0 -0.1 1.07l0 1c-0.59 -0.48 -1.16 -1 -1.62 -1.25a0.33 0.33 0 0 0 -0.46 0.08 0.34 0.34 0 0 0 0.09 0.46c0.56 0.4 1.31 1.08 2 1.71l0 0.48c-0.48 0.39 -0.94 0.78 -1.44 1.15a12.42 12.42 0 0 1 -1.1 0.74 0.29 0.29 0 0 0 0.28 0.5c0.42 -0.22 0.81 -0.47 1.19 -0.72s0.75 -0.54 1.11 -0.82l0 0.34a9.49 9.49 0 0 1 0 1.41l0 0.71 0 1 0 0.43A0.59 0.59 0 0 0 11 24a0.72 0.72 0 0 0 0.31 0 3 3 0 0 0 0.49 -0.3l1.27 -1 0.94 -0.88c0.45 -0.41 0.81 -0.75 0.84 -1.09a1.11 1.11 0 0 0 -0.56 -1.03Zm-2.72 -4.38a1.92 1.92 0 0 1 0.08 -0.3l0.36 0.22a6.07 6.07 0 0 1 0.8 0.56 4.76 4.76 0 0 1 0.68 0.66l0 0.14a3.19 3.19 0 0 1 -0.33 0.27c-0.52 0.35 -1.17 0.68 -1.62 1v-0.27c0 -0.47 -0.06 -1 -0.07 -1.43a4.73 4.73 0 0 1 0.1 -0.85Zm2.25 5.34c-0.12 0.12 -0.29 0.24 -0.46 0.39l-0.95 0.83 -0.83 0.61V22c0 -0.2 0 -0.4 0.05 -0.6a11.71 11.71 0 0 0 0.06 -1.57l0 -0.7a3 3 0 0 0 0.35 0.23l1.18 0.67 0.54 0.35a0.92 0.92 0 0 1 0.14 0.2 0.22 0.22 0 0 1 -0.08 0.08Z" fill="#020202" stroke-width="1"></path>
    <path d="M23.69 4.17a6.67 6.67 0 0 0 -2.41 -3.11 6 6 0 0 0 -3.84 -1 8.81 8.81 0 0 0 -2.51 0.43 2 2 0 0 0 -1.06 0.88c-0.24 0.45 -0.5 0.92 -0.72 1.42a8.1 8.1 0 0 0 -0.37 1.05A6.52 6.52 0 0 0 12.71 8a3.58 3.58 0 0 0 2.14 2 7.23 7.23 0 0 0 2.81 0.52 5.79 5.79 0 0 0 2.05 -0.52c-0.28 1.23 -1.15 3.64 -1.79 5.68a13.69 13.69 0 0 0 -0.73 2.92 0.68 0.68 0 0 0 0.36 0.68 9.18 9.18 0 0 0 1.63 0.43 1.38 1.38 0 0 0 2 -1.24 0.32 0.32 0 0 0 -0.31 -0.34 0.32 0.32 0 0 0 -0.34 0.32 0.81 0.81 0 0 1 -0.35 0.65 1 1 0 0 1 -0.8 -0.05 11.46 11.46 0 0 0 -1.49 -0.43 12.35 12.35 0 0 1 0.39 -1.59l0.48 0.18a2.93 2.93 0 0 0 0.37 0.1 2.63 2.63 0 0 0 0.39 0.06l0.94 0a0.35 0.35 0 0 0 0.18 0l-0.09 0.34a0.29 0.29 0 0 0 0.19 0.36 0.29 0.29 0 0 0 0.36 -0.2c0.55 -1.83 1.13 -3.66 1.63 -5.5 0.34 -1.23 0.64 -2.48 0.87 -3.75A15.07 15.07 0 0 0 24 6a4.63 4.63 0 0 0 -0.31 -1.83Zm-0.86 4.31c-0.2 1.25 -0.46 2.48 -0.75 3.7 -0.39 1.59 -0.84 3.16 -1.28 4.74a0.33 0.33 0 0 0 -0.15 -0.11c-0.32 -0.17 -0.57 -0.33 -0.86 -0.45a2.42 2.42 0 0 0 -0.81 -0.15 2.54 2.54 0 0 0 -0.39 0c0.67 -2 1.64 -4.52 2 -5.86a2.52 2.52 0 0 0 0.12 -1.09 0.57 0.57 0 0 0 -0.27 -0.38 0.82 0.82 0 0 0 -0.69 0.06 5.11 5.11 0 0 1 -2.12 0.52A6.27 6.27 0 0 1 15.24 9a2.58 2.58 0 0 1 -1.68 -2 6.48 6.48 0 0 1 0.28 -2.91 7.31 7.31 0 0 1 0.33 -0.9c0.21 -0.48 0.45 -0.92 0.68 -1.35a1.21 1.21 0 0 1 0.77 -0.47 8.56 8.56 0 0 1 1.9 -0.27 5 5 0 0 1 3.19 0.78 5.76 5.76 0 0 1 2.11 2.61A3.94 3.94 0 0 1 23.11 6a15.83 15.83 0 0 1 -0.28 2.48Z" fill="#020202" stroke-width="1"></path>
    <path d="M6.84 6.72a3.89 3.89 0 0 0 0.94 1.45 0.81 0.81 0 0 0 0.67 0.09A1 1 0 0 0 9 7.78l0.18 -0.37 0.15 -0.55 0.07 -1a5.39 5.39 0 0 0 -0.08 -0.56 7.44 7.44 0 0 0 -0.2 -0.78 4.16 4.16 0 0 0 -0.43 -0.93 4.93 4.93 0 0 0 -0.62 -0.78 0.3 0.3 0 0 0 -0.34 -0.1 0.26 0.26 0 0 0 -0.1 -0.13 0.28 0.28 0 0 0 -0.4 0.06 3.21 3.21 0 0 0 -0.71 1.74 4.73 4.73 0 0 0 0.18 1.93Zm0.74 -3.46a3.92 3.92 0 0 1 0.47 0.74 3.27 3.27 0 0 1 0.27 0.78 5.81 5.81 0 0 1 0.09 0.58 3.5 3.5 0 0 1 0 0.56l-0.12 0.7 -0.1 0.38s0 -0.1 -0.07 -0.14c-0.13 -0.23 -0.23 -0.47 -0.3 -0.6L7.66 6a4.15 4.15 0 0 1 -0.33 -1.49 2.78 2.78 0 0 1 0.25 -1.25Z" fill="#4C57E6" stroke-width="1"></path>
    <path d="M16.64 2.4a0.28 0.28 0 0 0 -0.4 0 0.26 0.26 0 0 0 -0.1 0.13 0.32 0.32 0 0 0 -0.34 0.09 5.13 5.13 0 0 0 -0.62 0.79 4.16 4.16 0 0 0 -0.43 0.93 7.44 7.44 0 0 0 -0.2 0.78 5.39 5.39 0 0 0 -0.08 0.56l0.07 1 0.15 0.55 0.18 0.37a1.06 1.06 0 0 0 0.57 0.48 0.81 0.81 0 0 0 0.67 -0.09 3.85 3.85 0 0 0 0.94 -1.45l0.14 -0.54a4.92 4.92 0 0 0 0.17 -1.88 3.28 3.28 0 0 0 -0.72 -1.72Zm-0.41 3.28 -0.15 0.32c-0.07 0.13 -0.17 0.38 -0.3 0.61l-0.07 0.14 -0.12 -0.39 -0.12 -0.69a3.5 3.5 0 0 1 0 -0.56 5.81 5.81 0 0 1 0.09 -0.58 3.27 3.27 0 0 1 0.27 -0.78 3.92 3.92 0 0 1 0.46 -0.75 2.78 2.78 0 0 1 0.25 1.22 3.86 3.86 0 0 1 -0.31 1.46Z" fill="#4C57E6" stroke-width="1"></path>
    <path d="M6.08 15.7c-0.64 -2 -1.51 -4.45 -1.79 -5.68a5.79 5.79 0 0 0 2.05 0.45A7.23 7.23 0 0 0 9.15 10a3.58 3.58 0 0 0 2.14 -2 6.52 6.52 0 0 0 -0.07 -4.14 8.1 8.1 0 0 0 -0.37 -1.05c-0.22 -0.5 -0.48 -1 -0.72 -1.42A2 2 0 0 0 9.07 0.48 8.81 8.81 0 0 0 6.56 0.05a6 6 0 0 0 -3.84 1A6.67 6.67 0 0 0 0.31 4.17 4.63 4.63 0 0 0 0 6a15.07 15.07 0 0 0 0.36 2.6c0.23 1.27 0.53 2.52 0.87 3.75 0.5 1.84 1.08 3.67 1.63 5.5a0.29 0.29 0 0 0 0.36 0.2 0.29 0.29 0 0 0 0.19 -0.36l-0.09 -0.34a0.35 0.35 0 0 0 0.18 0l0.94 0a2.63 2.63 0 0 0 0.39 -0.06 2.93 2.93 0 0 0 0.37 -0.1l0.48 -0.18a12.35 12.35 0 0 1 0.39 1.59 11.46 11.46 0 0 0 -1.49 0.43 1 1 0 0 1 -0.8 0.05 0.81 0.81 0 0 1 -0.35 -0.65 0.32 0.32 0 0 0 -0.34 -0.32 0.32 0.32 0 0 0 -0.31 0.34 1.58 1.58 0 0 0 0.68 1.22 1.59 1.59 0 0 0 1.36 0 9.18 9.18 0 0 0 1.63 -0.43 0.68 0.68 0 0 0 0.36 -0.68 13.53 13.53 0 0 0 -0.73 -2.86ZM5 16.21a1.84 1.84 0 0 0 -0.41 0 1.82 1.82 0 0 0 -0.4 0.11c-0.29 0.12 -0.54 0.28 -0.86 0.45a0.33 0.33 0 0 0 -0.15 0.11c-0.44 -1.58 -0.89 -3.15 -1.28 -4.74 -0.29 -1.22 -0.55 -2.45 -0.75 -3.7A15.83 15.83 0 0 1 0.89 6a3.94 3.94 0 0 1 0.29 -1.48 5.76 5.76 0 0 1 2.11 -2.6 5 5 0 0 1 3.19 -0.78 8.56 8.56 0 0 1 1.9 0.27 1.21 1.21 0 0 1 0.77 0.47c0.23 0.43 0.47 0.87 0.68 1.35a7.31 7.31 0 0 1 0.33 0.9A6.48 6.48 0 0 1 10.44 7a2.58 2.58 0 0 1 -1.68 2 6.27 6.27 0 0 1 -2.39 0.5A5.11 5.11 0 0 1 4.25 9a0.82 0.82 0 0 0 -0.69 -0.06 0.57 0.57 0 0 0 -0.27 0.38 2.52 2.52 0 0 0 0.12 1.09c0.36 1.34 1.33 3.83 2 5.86a2.54 2.54 0 0 0 -0.41 -0.06Z" fill="#020202" stroke-width="1"></path>
  </g>
</svg>