<svg xmlns="http://www.w3.org/2000/svg" viewBox="0 0 24 24" id="Eco-House--Streamline-Freehand">
  <desc>
    Eco House Streamline Icon: https://streamlinehq.com
  </desc>
  <g>
    <path d="M12.78 13.79a0.34 0.34 0 0 0 -0.37 -0.58c-3.08 1.7 -5.06 3.63 -5.52 7.17a0.3 0.3 0 0 0 0.59 0.13c0.75 -2.51 3.15 -5.16 5.3 -6.72Z" fill="#4C57E6" fill-rule="evenodd" stroke-width="1"></path>
    <path d="M13.28 10.57c-2.21 0.31 -4 0.7 -5.6 2.33 -1.06 1.1 -1.59 2.42 -0.81 3.72a0.3 0.3 0 0 0 0.53 -0.3c-0.56 -1.05 0 -2 0.85 -2.82a8.31 8.31 0 0 1 5.16 -1.79c2.45 -0.33 1.7 -0.24 2 -0.24a5.17 5.17 0 0 1 -0.38 2 8 8 0 0 1 -2.83 4.33 2.08 2.08 0 0 1 -1.81 0.38 0.34 0.34 0 0 0 -0.29 0.62 2.78 2.78 0 0 0 2.52 -0.33 8.74 8.74 0 0 0 3.42 -4.64c0.4 -1.07 0.89 -2.51 0.08 -3.33 -0.34 -0.4 -0.75 -0.21 -2.84 0.07Z" fill="#020202" fill-rule="evenodd" stroke-width="1"></path>
    <path d="M21.91 8.5C21 7.56 19.29 5.74 17.55 4c0.24 -0.17 0.17 -1.14 0.58 -1.73 0.31 -0.44 0.86 -0.33 2.15 -0.15S21.8 2 21.8 3.66a23.31 23.31 0 0 1 -0.34 3.54 0.35 0.35 0 0 0 0.68 0.12c0.3 -1.44 1.21 -4.38 0.42 -5.57 -0.48 -0.7 -1.55 -0.64 -2.12 -0.72 -2.24 -0.1 -3.15 -0.1 -3.35 2.56 -0.7 -0.68 -3.68 -3.59 -4.7 -3.59a3.65 3.65 0 0 0 -2.22 0.71 144.41 144.41 0 0 0 -10 10.72 0.3 0.3 0 0 0 0.46 0.39A140.05 140.05 0 0 1 10.7 1.49 2.65 2.65 0 0 1 12.34 1c1 0.06 7.79 7.28 8.72 8.3 0.68 0.73 2.14 1.75 1.51 2.46s-1.87 -1.13 -2.45 -1.69C18 8 13.31 2.45 12.17 2.31c-0.82 -0.1 -2.39 1.43 -3 2C7.22 6.17 4.86 8.8 3.8 10c-0.54 0.61 -1.19 1.74 -2 1.76a0.34 0.34 0 0 0 0 0.68 1.55 1.55 0 0 0 0.43 -0.07A57.2 57.2 0 0 0 2 20.14c0 0.77 -0.31 2 0.47 2.74C3.81 24.15 6.43 24 8.27 24c11.66 -0.69 11.43 -0.25 12.09 -0.86s0.77 -2 0.93 -2.92c0.44 -2.45 0.1 -4.85 0.29 -7.31a1.44 1.44 0 0 0 1.84 -0.36c1.38 -1.55 -0.51 -2.96 -1.51 -4.05Zm-1.23 9.31a27.91 27.91 0 0 1 -0.58 3.83c-0.26 0.87 -0.57 0.8 -0.81 0.82l-6.29 0.08c-4.24 0.26 -8.49 0.82 -9.88 -0.4 -0.4 -0.34 -0.22 -1.48 -0.24 -2a54.27 54.27 0 0 1 0 -7.86 0.22 0.22 0 0 0 0 -0.16 9.48 9.48 0 0 0 1.5 -1.6c1.46 -1.59 5.39 -5.8 7.21 -7 0.54 -0.35 0.43 -0.33 0.8 0 1.6 1.3 7.09 7.78 8.56 9 -0.26 1.72 -0.16 3.48 -0.27 5.29Z" fill="#020202" fill-rule="evenodd" stroke-width="1"></path>
  </g>
</svg>