<svg xmlns="http://www.w3.org/2000/svg" viewBox="0 0 24 24" id="Ecology-Leaf-Shield--Streamline-Freehand">
  <desc>
    Ecology Leaf Shield Streamline Icon: https://streamlinehq.com
  </desc>
  <g>
    <path d="M22.16 12.87C20.8 11.74 21.3 12 20 11.48c-3 -1.26 -8.38 -0.19 -8.93 2.24a10.92 10.92 0 0 0 0 1.64c-0.05 1.11 0 3.88 0.69 4.8a16.21 16.21 0 0 0 2.71 2.64c1.7 1.31 2.88 2 5.55 -0.25a7.5 7.5 0 0 0 2.17 -2.79c0.13 -1 0 -0.17 0.39 -4.36 0.09 -1.02 0.23 -1.72 -0.42 -2.53Zm-0.63 2.45 -0.16 4.15A6.68 6.68 0 0 1 19.55 22c-2.24 2 -2.92 1.59 -4.6 0.21a14.82 14.82 0 0 1 -2.45 -2.53c-0.5 -0.68 -0.5 -3.42 -0.4 -4.26s-0.15 -1.35 0.24 -1.8a3.89 3.89 0 0 1 1.67 -1 8.84 8.84 0 0 1 5.58 0c2.21 1.07 2.04 1.12 1.94 2.7Z" fill="#020202" fill-rule="evenodd" stroke-width="1"></path>
    <path d="M19.75 16.5c-0.26 0 -1 -0.16 -2.12 -0.23 -0.05 -0.6 -0.17 -1.17 -0.24 -1.75a0.36 0.36 0 1 0 -0.71 0 16.48 16.48 0 0 0 -0.35 1.78 20.5 20.5 0 0 0 -2.14 0.32 0.36 0.36 0 0 0 0 0.72 20.47 20.47 0 0 0 2.13 0.29c0.06 0.86 0.12 1 0.25 2A0.41 0.41 0 0 0 17 20c0.41 0 0.45 -0.32 0.63 -2.18l0 -0.22c1.16 -0.1 1.94 -0.25 2.12 -0.27a0.41 0.41 0 0 0 0 -0.83Z" fill="#020202" fill-rule="evenodd" stroke-width="1"></path>
    <path d="M12.84 10.87c1.12 0.32 1.43 0.07 0.63 -1a5.43 5.43 0 0 0 -1.37 -0.76c-0.77 0.06 -0.93 0.45 -0.61 0.74a14.38 14.38 0 0 1 1.35 1.02Z" fill="#4C57E6" fill-rule="evenodd" stroke-width="1"></path>
    <path d="M8.38 9.9C4.56 13 1 19.13 1.37 19.82a0.37 0.37 0 0 0 0.67 0c0.84 -1.4 -0.2 -0.43 2.33 -3.89 2.93 1.66 2.81 2.17 5 2.11a0.31 0.31 0 0 0 0.09 -0.61c-1.1 -0.39 -1.31 -0.72 -4.64 -2.09a25.81 25.81 0 0 1 3.8 -4.07 22.13 22.13 0 0 1 2.94 -2.11c2.2 -1.34 4.13 -2 5.52 -2.9a7.21 7.21 0 0 0 2 -1.75 0.31 0.31 0 0 0 -0.49 -0.37C16.66 6.55 13.21 6 8.38 9.9Z" fill="#020202" fill-rule="evenodd" stroke-width="1"></path>
    <path d="m13.14 6 0 0.42c0.15 0.41 0.56 0.27 0.86 -0.21a17.92 17.92 0 0 0 0.62 -2.91c0 -0.56 -0.54 -0.52 -0.66 -0.25A6.24 6.24 0 0 0 13.14 6Z" fill="#4C57E6" fill-rule="evenodd" stroke-width="1"></path>
    <path d="M21.66 0c-0.89 0 -5.93 1.66 -8 1.83 -1.53 0.17 -4.38 -0.09 -7.28 1.75a7.8 7.8 0 0 0 -3.52 4.6c-0.16 0.68 -0.46 2.92 -0.5 3.58A4.42 4.42 0 0 0 2.44 13a0.31 0.31 0 0 0 0.6 -0.12 17.37 17.37 0 0 1 0.6 -4.49c1.65 -5.89 9.81 -5.6 11.26 -5.75C17.55 2.1 21.52 0.91 21.6 0.9a30.53 30.53 0 0 1 -1.44 8.17 0.35 0.35 0 0 0 0.65 0.26 17.79 17.79 0 0 0 0.88 -2.74c0.27 -1.15 0.92 -4.95 0.91 -5.51S22.34 0 21.66 0Z" fill="#020202" fill-rule="evenodd" stroke-width="1"></path>
    <path d="M7.38 4.71c-0.23 -0.44 -0.67 0 -0.75 0.52s-1 4.28 -0.48 6c0.17 0.17 0.37 0.17 0.48 -0.21a38.05 38.05 0 0 0 0.75 -6.31Z" fill="#4C57E6" fill-rule="evenodd" stroke-width="1"></path>
  </g>
</svg>