<svg xmlns="http://www.w3.org/2000/svg" viewBox="0 0 24 24" id="Ecology-Leaf-Search--Streamline-Freehand">
  <desc>
    Ecology Leaf Search Streamline Icon: https://streamlinehq.com
  </desc>
  <g>
    <path d="M14.53 9c-0.56 2.25 -1.79 4.78 -4.09 5.21A2.86 2.86 0 0 1 8.52 14a0.45 0.45 0 0 0 -0.49 0.39c-0.1 0.87 3.25 1.76 5.45 -0.81 1.65 -1.93 3.32 -7.56 2.4 -8.77 -0.54 -0.7 -1.36 -0.18 -4.31 1 -0.74 0.37 -6.31 0.17 -6 6.29 0.09 1.53 1 0.92 0.86 0.46a1.85 1.85 0 0 1 0 -0.49c0 -1.66 0.23 -2.8 1.57 -3.76a10.53 10.53 0 0 1 3.83 -1.51l3.12 -1a19.91 19.91 0 0 1 -0.42 3.2Z" fill="#020202" fill-rule="evenodd" stroke-width="1"></path>
    <path d="M5.5 16.41c0.09 0.12 0.57 0.52 0.81 -0.09a16.22 16.22 0 0 1 3.22 -4.81 16.19 16.19 0 0 1 3.14 -2.65 0.39 0.39 0 0 0 0.33 -0.47c-0.3 -1.05 -3.8 1.39 -4.52 2.08 -1.74 1.66 -3.35 5.43 -2.98 5.94Z" fill="#4C57E6" fill-rule="evenodd" stroke-width="1"></path>
    <path d="M23.76 20.8c-0.67 -1.48 -2.77 -2.93 -4.18 -4l-0.44 -0.25A9.71 9.71 0 0 0 21 12.33c0.53 -2.95 -0.49 -7 -2.72 -9.16C10.58 -4.08 -2.57 2.45 0.44 14c0.83 3.19 4.7 5.53 7.86 6.36a0.36 0.36 0 0 0 0.2 -0.7c-2.86 -0.81 -6.48 -3 -7.16 -5.89C-1.16 3.27 10.64 -2.32 17.5 4c1.95 1.78 3 5.51 2.56 8.13A9.54 9.54 0 0 1 10.88 20a0.32 0.32 0 0 0 0 0.64 10 10 0 0 0 5.35 -1.5 18.61 18.61 0 0 0 4.5 4.31 2 2 0 0 0 2.42 0 2.1 2.1 0 0 0 0.61 -2.65Zm-2.54 1.86a18.73 18.73 0 0 1 -4.55 -3.79 10.13 10.13 0 0 0 2.1 -1.87c0.62 0.37 3.54 2.7 4.13 4.16 0.42 1.06 -0.43 2.23 -1.68 1.5Z" fill="#020202" fill-rule="evenodd" stroke-width="1"></path>
  </g>
</svg>