<svg xmlns="http://www.w3.org/2000/svg" viewBox="0 0 24 24" id="Ecology-Globe-Hand-1--Streamline-Freehand">
  <desc>
    Ecology Globe Hand 1 Streamline Icon: https://streamlinehq.com
  </desc>
  <g>
    <path d="M13.91 0.12C8.36 -0.83 1.72 4 2.42 10.11a11.34 11.34 0 0 0 0.41 2 0.31 0.31 0 0 0 0.37 0.21c0.47 -0.13 0 -0.55 -0.12 -2.27A7.16 7.16 0 0 1 5 4.72C8.7 0.43 11.88 0.9 13.72 1.23c2.17 0.36 5.16 2.54 6.49 5.59a7.66 7.66 0 0 1 0.29 5.6 0.34 0.34 0 1 0 0.64 0.22C23.08 7.32 19 1.08 13.91 0.12Z" fill="#020202" fill-rule="evenodd" stroke-width="1"></path>
    <path d="m19.1 11.28 -0.31 -1c-0.1 -0.38 0.2 -1 0.19 -1.68s-0.32 -1.18 -0.92 -1.18a7.91 7.91 0 0 1 -3.18 -0.86c-1.08 -0.68 -0.78 -2 -0.3 -2.12 0.67 -0.15 1.78 0.45 2.56 0.34 0.33 -0.05 0.5 -0.27 0.8 -0.7s-0.15 -0.57 -0.32 -0.43c-0.2 0.3 -0.36 0.44 -0.55 0.45 -0.76 0.05 -1.75 -0.68 -2.66 -0.55s-1.59 1.6 -1.22 2.67c0.76 2.05 2.76 1.9 4 2.17a6.08 6.08 0 0 0 0.8 0.14c0.15 0.54 -0.21 1.4 0 2l0.38 0.94c0.29 0.86 1.57 0.71 2 0.75s0.38 -0.67 0.07 -0.69c-0.55 0.03 -1.27 0.03 -1.34 -0.25Z" fill="#4C57E6" fill-rule="evenodd" stroke-width="1"></path>
    <path d="M6.35 4.08c0.32 0.13 0.33 0 0.57 0.2 0.58 0.6 -1 3 0.21 4s2.39 -0.6 3.18 -0.72c0.57 -0.09 0.75 0.88 0.83 1a2.26 2.26 0 0 1 -0.29 1.85 3.57 3.57 0 0 1 -0.54 0.81 0.34 0.34 0 0 0 0.48 0.47 4.73 4.73 0 0 0 0.72 -0.92c1.35 -2.28 0.11 -4.44 -1.33 -4.3a4.45 4.45 0 0 0 -1.58 0.72c-1.6 0.94 -0.46 -0.97 -0.6 -2.52 -0.1 -0.86 -0.52 -1.26 -1.19 -1.32s-0.68 0.65 -0.46 0.73Z" fill="#4C57E6" fill-rule="evenodd" stroke-width="1"></path>
    <path d="M12.74 12.51c-0.76 -0.62 -1.83 -0.49 -2.56 0.91a3.74 3.74 0 0 0 -0.7 -1.07A1.49 1.49 0 0 0 7 13a2.88 2.88 0 0 0 -0.45 -0.7c-0.46 -0.5 -1.74 -0.86 -2.26 -0.11 -1.7 2.56 0.49 6.36 3 7.72A9.71 9.71 0 0 1 9.22 21c-0.05 3 -0.09 2.58 -0.06 2.69a0.32 0.32 0 0 0 0.62 0.05c0 -0.08 0.2 -2.51 0.2 -2.59 0 -0.79 -0.3 -0.94 -2.22 -2.13C6 18 4 14.75 5.17 12.82c0.1 0.18 0.58 0 0.7 0.15 0.73 0.7 0.66 2.19 1.26 3.17a9.94 9.94 0 0 0 1.63 1.74c0.37 0.25 0.73 0.08 0.49 -0.37 -0.46 -1.07 -1.32 -0.38 -1.89 -3.4 0.28 -0.17 0 -0.87 0.62 -1.17 1 -0.51 1.44 1.88 2.1 3.27 0.1 0.22 0.45 1 0.6 1.32s0.73 0.08 0.73 0a27.82 27.82 0 0 1 -0.85 -3.06c0.17 -0.5 1 -1.56 1.45 -1.1s0.53 2.45 2 3.75a0.33 0.33 0 0 0 0.48 -0.46c-1.19 -1.37 -0.74 -3.32 -1.75 -4.15Z" fill="#020202" fill-rule="evenodd" stroke-width="1"></path>
    <path d="M19 13.43a2.1 2.1 0 0 0 -1.59 1.42 5.61 5.61 0 0 1 -0.91 2.06 1.14 1.14 0 0 1 -1.25 0.37 0.29 0.29 0 0 0 -0.4 0.13c-0.3 0.61 1.69 1.18 2.82 -0.85 0.62 -1.11 0.53 -1.77 1.32 -2a0.43 0.43 0 0 1 0.55 0.21 2.49 2.49 0 0 1 0 2.37C19 18.5 18.17 19 16.69 20.27a0.72 0.72 0 0 0 -0.21 0.52 8.45 8.45 0 0 0 0.52 2.26c0.09 0.23 0.2 0.47 0.46 0.44a0.35 0.35 0 0 0 0.32 -0.33 8.4 8.4 0 0 1 -0.43 -1.91c-0.08 -0.81 -0.24 0 1.13 -1.24a5.8 5.8 0 0 0 2.4 -3.1c0.42 -1.56 -0.27 -3.74 -1.88 -3.48Z" fill="#020202" fill-rule="evenodd" stroke-width="1"></path>
  </g>
</svg>