<svg xmlns="http://www.w3.org/2000/svg" viewBox="0 0 24 24" id="Edit-Pen-Write--Streamline-Freehand">
  <desc>
    Edit Pen Write Streamline Icon: https://streamlinehq.com
  </desc>
  <g>
    <path d="M20.28 13.33a0.34 0.34 0 1 0 -0.67 0l0.1 7.82a3.17 3.17 0 0 1 -0.12 1.24 0.67 0.67 0 0 1 -0.69 0.46H3.81l-1.7 0a0.84 0.84 0 0 1 -0.39 -0.24 1.11 1.11 0 0 1 -0.26 -0.48A77.37 77.37 0 0 1 1.25 14c0 -3.77 0.05 -7.54 0.18 -8.15A2.12 2.12 0 0 1 1.82 5a0.9 0.9 0 0 1 0.72 -0.4l7.88 0a0.3 0.3 0 0 0 0.3 -0.3 0.31 0.31 0 0 0 -0.29 -0.3l-7.92 -0.24a1.66 1.66 0 0 0 -1.13 0.46A2.86 2.86 0 0 0 0.6 5.69c-0.17 0.7 -0.38 5.64 -0.43 10a50.3 50.3 0 0 0 0.19 6.74 2.24 2.24 0 0 0 0.54 1 1.89 1.89 0 0 0 1 0.58l1.9 0.05c1.51 0 3.75 0 6 -0.07 4.2 -0.06 8.59 -0.15 9.08 -0.17a1.51 1.51 0 0 0 1.37 -0.82 3.45 3.45 0 0 0 0.29 -1.91Z" fill="#4C57E6" fill-rule="evenodd" stroke-width="1"></path>
    <path d="M22.84 0.55A2.74 2.74 0 0 0 21.06 0a2.53 2.53 0 0 0 -0.68 0.19 3.45 3.45 0 0 0 -0.79 0.59 0.33 0.33 0 1 0 0.41 0.52 4.6 4.6 0 0 1 0.55 -0.41 1.38 1.38 0 0 1 0.57 -0.16 1.91 1.91 0 0 1 1.24 0.44 1.39 1.39 0 0 1 0.64 1 2.07 2.07 0 0 1 -0.23 0.94 3.54 3.54 0 0 1 -0.6 0.85c-0.29 0.31 -0.7 0.78 -1.16 1.33 -0.3 -0.31 -0.6 -0.63 -0.92 -0.92L19.63 4c-0.11 -0.09 -0.22 -0.16 -0.32 -0.25l-0.81 -0.47 -0.16 -0.12 0.26 -0.34 0.66 -0.82a0.27 0.27 0 0 0 0.05 -0.22c0 -0.15 -0.15 -0.37 -0.44 -0.2 -0.28 -0.21 -0.52 -0.47 -0.8 -0.68a2.82 2.82 0 0 0 -0.53 -0.31 1.27 1.27 0 0 0 -0.92 0 3.44 3.44 0 0 0 -0.83 0.56c-0.32 0.3 -0.62 0.6 -0.9 0.92a17.71 17.71 0 0 0 -1.14 1.52 0.34 0.34 0 0 0 0.05 0.48 0.33 0.33 0 0 0 0.48 -0.07c0.29 -0.29 0.59 -0.57 0.88 -0.84A17.11 17.11 0 0 1 16.53 2c0.14 -0.11 0.3 -0.27 0.48 -0.39s0.16 -0.16 0.26 -0.14a1.56 1.56 0 0 1 0.37 0.1c0.28 0.13 0.54 0.29 0.81 0.43l-0.34 0.4c-1.35 1.6 -4.32 5.08 -5.53 6.66a3.29 3.29 0 0 0 -0.64 1.07c0 0.28 -0.13 2.24 -0.1 3a1.32 1.32 0 0 0 0 0.3 2.81 2.81 0 0 0 -0.42 0.3 1.31 1.31 0 0 0 -0.23 0.24 2.22 2.22 0 0 0 -0.19 0.27c-0.53 0.88 -0.43 1 -0.42 1a0.44 0.44 0 0 0 0.12 0.18 0.32 0.32 0 0 0 0.21 0.08s0.14 0.09 0.92 -0.59l0.23 -0.23a1.57 1.57 0 0 0 0.19 -0.26 3 3 0 0 0 0.2 -0.4 1.74 1.74 0 0 0 0.65 0 18.32 18.32 0 0 0 2.47 -0.76A1 1 0 0 0 16 13c0.24 -0.26 0.72 -0.81 1.31 -1.54 1.69 -2.1 4.46 -5.6 5.56 -6.88a4.39 4.39 0 0 0 0.7 -1.07 2.88 2.88 0 0 0 0.27 -1.31 2.22 2.22 0 0 0 -1 -1.65Zm-7.53 11.53 -0.17 0.2a13.29 13.29 0 0 1 -2.2 0.69c-0.08 -2.41 0 -2.74 0.43 -3.32 1 -1.37 3.12 -4.14 4.54 -5.95l0.12 0.13 0.53 0.63a4.84 4.84 0 0 0 0.86 0.83 9.83 9.83 0 0 0 1.09 0.62l-2.65 3.14c-1.09 1.31 -2.06 2.49 -2.55 3.03Z" fill="#020202" fill-rule="evenodd" stroke-width="1"></path>
  </g>
</svg>