<svg xmlns="http://www.w3.org/2000/svg" viewBox="0 0 24 24" id="Edit-Quill-Feather--Streamline-Freehand">
  <desc>
    Edit Quill Feather Streamline Icon: https://streamlinehq.com
  </desc>
  <g>
    <path d="M15.46 9.75c0.39 -0.44 0.8 -0.85 1.23 -1.26 1 -1 2.12 -1.87 3.1 -2.88a0.35 0.35 0 0 0 -0.48 -0.5c-1 0.9 -2.11 1.7 -3.17 2.57 0 -0.18 0.08 -0.37 0.11 -0.56 0.05 -0.35 0.08 -0.72 0.11 -1.1 0.05 -0.55 0.05 -1.1 0.14 -1.63a0.33 0.33 0 0 0 0 -0.26 10.4 10.4 0 0 1 1.44 -0.84c0.65 -0.3 1.35 -0.68 2.1 -1a10 10 0 0 1 1.42 -0.51 0.29 0.29 0 0 0 0.23 -0.36 0.3 0.3 0 0 0 -0.37 -0.23 11.72 11.72 0 0 0 -1.54 0.43c-0.78 0.27 -1.52 0.59 -2.19 0.85a13 13 0 0 0 -3 1.65 14.3 14.3 0 0 0 -1.71 1.48 14.54 14.54 0 0 0 -3.25 4.63 28.51 28.51 0 0 0 -0.9 3 13.73 13.73 0 0 0 -0.35 2.11 0.36 0.36 0 0 0 0.33 0.37 0.35 0.35 0 0 0 0.37 -0.33 11 11 0 0 1 0.44 -1.94 25.48 25.48 0 0 1 1 -2.87 9.76 9.76 0 0 1 1.19 -2s0 0.07 0 0.1a8.27 8.27 0 0 0 -0.08 0.87 6.43 6.43 0 0 0 0 0.88 8.85 8.85 0 0 0 0.37 1.75c-0.32 0.46 -0.63 0.94 -0.91 1.43A22.49 22.49 0 0 0 8.9 19a0.3 0.3 0 0 0 0.2 0.38 0.31 0.31 0 0 0 0.39 -0.2 22.58 22.58 0 0 1 2 -4c0.47 -0.76 1 -1.5 1.5 -2.23a31 31 0 0 1 2.47 -3.2Zm-2.66 0.44 0 -1.09 0 -1.09c0 -0.35 0 -0.51 0.07 -0.74 0.25 -0.28 0.52 -0.56 0.8 -0.84 0.5 -0.49 1 -1 1.58 -1.41l0.33 -0.26a7.53 7.53 0 0 0 -0.33 1 6.35 6.35 0 0 0 -0.14 0.71 6.09 6.09 0 0 0 -0.05 0.72c0 0.48 0.06 0.91 0.1 1.28 -0.17 0.16 -0.36 0.31 -0.53 0.48a23.73 23.73 0 0 0 -1.92 2.18c0.05 -0.27 0.08 -0.6 0.09 -0.94Z" fill="#020202" fill-rule="evenodd" stroke-width="1"></path>
    <path d="m21.3 8 -0.05 0.06Z" fill="#020202" fill-rule="evenodd" stroke-width="1"></path>
    <path d="M23.81 1.88a1.85 1.85 0 0 0 -0.46 -0.88 0.35 0.35 0 1 0 -0.47 0.51 1.58 1.58 0 0 1 0.26 0.82 7.28 7.28 0 0 1 0.05 1.57 6.09 6.09 0 0 1 -0.57 2.24A10.64 10.64 0 0 1 21.3 8s0 0 -0.06 0l-0.24 0.11c-0.58 0.2 -1.55 0.45 -2 0.58a1.39 1.39 0 0 0 -0.52 0.24 0.55 0.55 0 0 0 0.12 0.89 1.55 1.55 0 0 0 0.29 0.14 10.5 10.5 0 0 1 1.65 0.78 6.09 6.09 0 0 1 -0.67 0.54 1.71 1.71 0 0 1 -0.81 0.15c-0.61 0.05 -1.31 0 -1.7 0a1.11 1.11 0 0 0 -0.73 0.21 0.61 0.61 0 0 0 -0.11 0.69 15 15 0 0 0 1.57 1.72 1.29 1.29 0 0 1 -0.19 0.21c-0.19 0.18 -0.41 0.34 -0.58 0.5A13.65 13.65 0 0 1 15.77 16a7.47 7.47 0 0 1 -1.69 0.86 18.1 18.1 0 0 1 -1.91 0.36l-0.23 0 -0.14 0.07a0.31 0.31 0 0 0 -0.11 0.24 0.33 0.33 0 0 0 0.29 0.31 19.18 19.18 0 0 0 2.32 -0.34 7.6 7.6 0 0 0 1.91 -0.84 15 15 0 0 0 1.67 -1.18c0.23 -0.18 0.51 -0.36 0.75 -0.58a2.91 2.91 0 0 0 0.33 -0.37 0.91 0.91 0 0 0 0.06 -0.89 4.25 4.25 0 0 0 -0.89 -1 9.46 9.46 0 0 0 1.19 0 2.57 2.57 0 0 0 1.22 -0.35 5.05 5.05 0 0 0 1.07 -1.13 0.83 0.83 0 0 0 -0.05 -1 4.63 4.63 0 0 0 -1.13 -0.69c0.31 -0.1 0.62 -0.2 0.86 -0.3a2 2 0 0 0 0.77 -0.45 11.48 11.48 0 0 0 1.38 -2.17A6.8 6.8 0 0 0 24 3.91a9 9 0 0 0 -0.19 -2.03Z" fill="#020202" fill-rule="evenodd" stroke-width="1"></path>
    <path d="M8.27 20.52a3.07 3.07 0 0 0 -0.92 0.2c-0.38 0.12 -0.75 0.25 -1.12 0.39s-0.7 0.27 -1.05 0.42a6.73 6.73 0 0 0 0.18 -1.21 2 2 0 0 0 -0.23 -1.11 1.23 1.23 0 0 0 -1.36 -0.55 3.23 3.23 0 0 0 -1.5 0.81 11 11 0 0 0 -1.45 1.7 8 8 0 0 0 -0.56 0.83 2 2 0 0 0 -0.26 0.8 0.32 0.32 0 0 0 0.28 0.33 0.3 0.3 0 0 0 0.33 -0.27 1.2 1.2 0 0 1 0.23 -0.47 7.07 7.07 0 0 1 0.6 -0.73 10.26 10.26 0 0 1 1.49 -1.39 2.22 2.22 0 0 1 1 -0.47l0.19 0c0.04 0 0.06 0.18 0.07 0.3A5.1 5.1 0 0 1 4 21.41a3.37 3.37 0 0 0 0 0.83 0.61 0.61 0 0 0 0.18 0.36 0.63 0.63 0 0 0 0.45 0.18 3.33 3.33 0 0 0 1 -0.33c0.34 -0.18 0.67 -0.36 1 -0.52 1.51 -0.7 1.56 -0.49 1.87 -0.49a0.35 0.35 0 0 0 0.35 -0.34 0.51 0.51 0 0 0 -0.58 -0.58Z" fill="#4C57E6" fill-rule="evenodd" stroke-width="1"></path>
  </g>
</svg>