<svg xmlns="http://www.w3.org/2000/svg" viewBox="0 0 24 24" id="Educative-Toys-Counting--Streamline-Freehand">
  <desc>
    Educative Toys Counting Streamline Icon: https://streamlinehq.com
  </desc>
  <title>educative-toys-counting</title>
  <g>
    <path d="m23.65 19.63 -1.36 0h-0.37l0.07 0a1.54 1.54 0 0 0 0.44 -1.77A2.27 2.27 0 0 0 21 16.67c-0.32 -0.09 -0.67 -0.17 -1 -0.24a23.91 23.91 0 0 0 0 -2.4 4.59 4.59 0 0 0 -0.25 -1.11 3.89 3.89 0 0 0 -0.49 -0.95A3.67 3.67 0 0 0 18 11a4.91 4.91 0 0 0 -0.62 -0.28l-0.15 0a0.45 0.45 0 0 0 -0.52 0.55 2.9 2.9 0 0 1 0.34 0.19 2.81 2.81 0 0 1 0.44 0.33 3.39 3.39 0 0 1 0.63 0.76 3.78 3.78 0 0 1 0.43 0.88 6.55 6.55 0 0 1 0.27 0.89c0.17 0.68 0.28 1.39 0.41 2.1a6.46 6.46 0 0 0 -1.39 0 4.86 4.86 0 0 0 -2.14 0.72 1.66 1.66 0 0 0 -0.57 2.64h-0.45c-1 0 -2 0 -3 0.09l-1.77 0.08a1.75 1.75 0 0 0 0.09 -1.62A2.38 2.38 0 0 0 8.61 17a8.17 8.17 0 0 0 -3 -0.5 9 9 0 0 0 -3 0.6 0.62 0.62 0 0 1 0 -0.72 1.75 1.75 0 0 1 0.8 -0.77 7.23 7.23 0 0 1 2.37 -0.53 8.21 8.21 0 0 1 2.45 0.09 1.76 1.76 0 0 1 1 0.52 0.77 0.77 0 0 1 0 0.92 0.36 0.36 0 0 0 0.1 0.5 0.36 0.36 0 0 0 0.51 -0.1 1.54 1.54 0 0 0 0.16 -1.47 2.45 2.45 0 0 0 -1.61 -1.38 7.56 7.56 0 0 0 -2.78 -0.3l0 -1.32c0 -0.44 0 -0.68 0.06 -1l0.27 -1.94 0.28 -1.38a8 8 0 0 1 1.71 -3.5 1.81 1.81 0 0 1 2 -0.56 2.07 2.07 0 0 1 1 0.69c0.74 0.87 1.2 2.09 2.13 2.8l0.13 0a0.55 0.55 0 0 0 0.41 -0.47 0.24 0.24 0 0 0 -0.09 -0.14c-0.84 -0.73 -1.18 -1.94 -1.83 -2.82a3 3 0 0 0 -1.35 -1.09 2.82 2.82 0 0 0 -3.21 0.69 8.76 8.76 0 0 0 -2 4.1l-0.2 1.56 0 2L5 14a7 7 0 0 0 -2.15 0.71 2.63 2.63 0 0 0 -1.17 1.75 1.24 1.24 0 0 0 0.3 1 1.43 1.43 0 0 0 -0.58 1.21 2 2 0 0 0 1.05 1.54c-0.71 0 -1.42 0.07 -2.14 0.09a0.32 0.32 0 0 0 0 0.64c3.15 0.11 6.3 0.17 9.46 0.1 1.57 0 3.15 -0.1 4.72 -0.17s3.14 -0.18 4.71 -0.25c1 0 2.07 -0.16 3.11 -0.22l1.31 0a0.37 0.37 0 0 0 0 -0.73Zm-14.59 0.08a0.34 0.34 0 0 0 -0.05 0.17l-0.78 0 -4.64 0.25a0.3 0.3 0 0 0 -0.22 -0.29 1.52 1.52 0 0 1 -1 -1c-0.09 -0.33 0.12 -0.62 0.62 -0.77a9.23 9.23 0 0 1 2.67 -0.41 8.46 8.46 0 0 1 2.62 0.34 1.38 1.38 0 0 1 0.89 0.7 1 1 0 0 1 -0.11 1.01Zm12.42 -0.09c-0.77 0 -1.54 0.05 -2.32 0s-1.84 0 -2.76 0a1.14 1.14 0 0 1 -0.8 -0.75c-0.08 -0.35 0.15 -0.69 0.63 -0.94a4.58 4.58 0 0 1 2.13 -0.48 9.21 9.21 0 0 1 2.34 0.17 1.29 1.29 0 0 1 0.91 0.52c0.14 0.25 0.09 0.56 -0.2 0.92a0.36 0.36 0 0 0 0.07 0.56Z" fill="#020202" fill-rule="evenodd" stroke-width="1"></path>
    <path d="M13.07 7.94c-0.19 0.23 -0.37 0.46 -0.55 0.7a7.52 7.52 0 0 0 -0.5 0.75 3.74 3.74 0 0 0 -0.37 0.75 1.77 1.77 0 0 0 -0.11 0.68 1.8 1.8 0 0 0 1 1.6 2 2 0 0 0 1.61 0 7.65 7.65 0 0 0 3.94 -3.72 2.31 2.31 0 0 0 0 -2.15 2 2 0 0 0 -2 -0.71 0.36 0.36 0 0 0 -0.33 0.39 0.37 0.37 0 0 0 0.4 0.33 1.24 1.24 0 0 1 1.2 0.44 1.44 1.44 0 0 1 -0.14 1.31 6.77 6.77 0 0 1 -1.38 1.84 4.88 4.88 0 0 1 -1.84 1.2 1.24 1.24 0 0 1 -0.89 0 0.69 0.69 0 0 1 -0.42 -0.59 0.9 0.9 0 0 1 0.05 -0.36 4.7 4.7 0 0 1 0.21 -0.5 8 8 0 0 1 0.38 -0.71c0.14 -0.24 0.29 -0.46 0.45 -0.69 0.3 -0.42 0.61 -0.84 1 -1.23a6.88 6.88 0 0 1 0.73 -0.7 0.32 0.32 0 0 0 0.06 -0.45 0.31 0.31 0 0 0 -0.51 -0.12 6.58 6.58 0 0 0 -0.87 0.71C14 7 13.14 7.87 13.07 7.94Z" fill="#4C57E6" fill-rule="evenodd" stroke-width="1"></path>
  </g>
</svg>