<svg xmlns="http://www.w3.org/2000/svg" viewBox="0 0 24 24" id="Electronic-E-Sport-Games-Fortnite--Streamline-Freehand">
  <desc>
    Electronic E Sport Games Fortnite Streamline Icon: https://streamlinehq.com
  </desc>
  <title>electronic-e-sport-games-fortnite</title>
  <path d="M19.3 0.32a0.57 0.57 0 0 0 -0.39 -0.22C17.66 0 16.42 0 15.2 0c-1.83 0 -3.65 0.18 -5.51 0.34 -1 0.08 -1.92 0.13 -2.87 0.21 -0.65 0.07 -1.29 0.14 -1.93 0.25a0.35 0.35 0 0 0 -0.29 0.39 0.33 0.33 0 0 0 0.05 0.12c0.14 2.17 0.2 4.34 0.21 6.52 0 2.59 -0.07 5.19 -0.12 7.79s0 5.22 0 7.82a0.57 0.57 0 0 0 0.26 0.47 0.59 0.59 0 0 0 0.53 0.05l6 -2.54a0.52 0.52 0 0 0 0.31 -0.51c-0.13 -1.34 -0.23 -2.37 -0.31 -3.41s-0.13 -1.87 -0.19 -3l1.7 -0.16c1 -0.08 2.09 -0.13 3.14 -0.19a0.35 0.35 0 0 0 0.33 -0.36 0.24 0.24 0 0 0 0 -0.08q0.09 -0.64 0.21 -1.29c0.21 -1.11 0.47 -2.22 0.69 -3.33a0.42 0.42 0 0 0 -0.09 -0.32 0.4 0.4 0 0 0 -0.32 -0.16c-1.36 0 -2.74 0.3 -4.12 0.39l-1.24 0 -0.09 -2.74A15.85 15.85 0 0 1 13.63 6c1.29 -0.1 2.6 -0.09 3.88 -0.07a0.57 0.57 0 0 0 0.56 -0.4c0.33 -1.09 0.6 -2 0.84 -2.84 0.17 -0.63 0.33 -1.25 0.48 -1.94a0.58 0.58 0 0 0 -0.09 -0.43Zm-1.11 0.8c-0.12 0.44 -0.24 0.85 -0.36 1.27 -0.21 0.75 -0.45 1.51 -0.73 2.4a35.25 35.25 0 0 0 -3.56 0.08 17 17 0 0 0 -2.68 0.44 0.55 0.55 0 0 0 -0.42 0.57l0.23 3.62a0.51 0.51 0 0 0 0.47 0.49A12.45 12.45 0 0 0 13 9.92c1.2 -0.13 2.41 -0.38 3.6 -0.5 -0.16 0.95 -0.34 1.9 -0.48 2.86 -0.06 0.39 -0.11 0.78 -0.16 1.17 -1 0 -1.95 0.05 -2.92 0.1 -0.71 0 -1.41 0.08 -2.12 0.15a0.41 0.41 0 0 0 -0.37 0.42c0 1.35 0.06 2.4 0.11 3.44s0.11 1.89 0.18 3.05l-4.93 2 0 -5.85q0 -3.34 -0.09 -6.7c-0.07 -2.87 -0.21 -5.74 -0.49 -8.59 0.53 -0.07 1.07 -0.13 1.6 -0.16 1 -0.06 1.91 -0.08 2.87 -0.13 1.85 -0.1 3.65 -0.19 5.47 -0.17 1 0 2 0 3 0.13Z" fill="#020202" fill-rule="evenodd" stroke-width="1"></path>
</svg>