<svg xmlns="http://www.w3.org/2000/svg" viewBox="0 0 24 24" id="Elephant-Body--Streamline-Freehand">
  <desc>
    Elephant Body Streamline Icon: https://streamlinehq.com
  </desc>
  <g>
    <path d="M6.81 12.1c-0.51 -0.54 -0.87 -1 -1.31 -1.6a0.28 0.28 0 0 0 -0.39 0c-0.62 0.44 -1.2 0.88 -1.83 1.26a5 5 0 0 1 -2.39 0.94 3.82 3.82 0 0 0 -0.49 0.07 0.59 0.59 0 0 0 -0.31 0.23 0.7 0.7 0 0 0 -0.07 0.5 1.67 1.67 0 0 0 0.41 0.71 2.26 2.26 0 0 0 1 0.58 4.53 4.53 0 0 0 2 0.19 3.51 3.51 0 0 0 0.8 -0.12A6.89 6.89 0 0 0 7 13.16c0.46 -0.56 -0.06 -0.92 -0.19 -1.06Zm-1.7 1.63a4.14 4.14 0 0 1 -1.11 0.41 2.77 2.77 0 0 1 -0.76 0 7 7 0 0 1 -0.82 -0.12 3.12 3.12 0 0 1 -0.72 -0.21 2.14 2.14 0 0 1 -0.38 -0.23l0.27 -0.08a6.88 6.88 0 0 0 0.74 -0.32 8.05 8.05 0 0 0 1.35 -0.84c0.53 -0.4 1 -0.85 1.53 -1.3 0.33 0.5 0.67 1 1 1.44 0.07 0.09 0.16 0.16 0.23 0.25a12.93 12.93 0 0 1 -1.33 1Z" fill="#4C57E6" fill-rule="evenodd" stroke-width="1"></path>
    <path d="M23.47 8.3a6.12 6.12 0 0 0 -0.88 -1.4 9.36 9.36 0 0 0 -1.14 -1.13 7.14 7.14 0 0 0 -1.62 -1 4.32 4.32 0 0 0 -1.29 -0.35 5.52 5.52 0 0 0 -1.67 0.12 29.72 29.72 0 0 1 -3.52 0.8 0.24 0.24 0 0 0 -0.21 0.15 2.61 2.61 0 0 0 -1 -0.25 2.85 2.85 0 0 0 -0.59 0l-0.3 0.08A4.09 4.09 0 0 0 9 3.66a3.59 3.59 0 0 0 -3.05 0.55 5.63 5.63 0 0 0 -0.95 0.84c-0.38 0.43 -0.71 0.9 -1.09 1.33s-0.66 0.64 -1 1a4.23 4.23 0 0 0 -0.44 0.51 4.7 4.7 0 0 0 -0.92 2.32A4.61 4.61 0 0 0 1.63 12c0.07 0.35 0.58 0.27 0.62 0a4.57 4.57 0 0 1 0 -1.65 3.78 3.78 0 0 1 0.92 -1.84l1.54 -1.43c0.43 -0.5 0.81 -1 1.26 -1.53A4 4 0 0 1 6.53 5a2.71 2.71 0 0 1 2.25 -0.56 3.37 3.37 0 0 1 2.05 1.38c0.25 0.39 0.27 -0.13 1.21 0a1.83 1.83 0 0 1 1.53 1.25 4 4 0 0 1 0.23 1.32 8.17 8.17 0 0 1 -0.19 2.09l-0.4 1.64 0 0.23a2.74 2.74 0 0 1 -0.42 -0.21 4.36 4.36 0 0 1 -0.75 -0.52 7.12 7.12 0 0 1 -0.69 -0.66 0.31 0.31 0 0 0 -0.44 0 0.31 0.31 0 0 0 0 0.44 8.32 8.32 0 0 0 0.68 0.77 5.39 5.39 0 0 0 0.82 0.68 3.39 3.39 0 0 0 0.65 0.36 1.12 1.12 0 0 0 0.7 0 0.53 0.53 0 0 0 0.3 -0.35c0.05 -0.13 0.11 -0.47 0.12 -0.49l0.5 -1.62a7.76 7.76 0 0 0 0.22 -2.4 4.31 4.31 0 0 0 -0.42 -1.62 3 3 0 0 0 -0.7 -0.91c1.09 -0.07 2.18 -0.42 3.27 -0.57a4.64 4.64 0 0 1 1.44 0 3.56 3.56 0 0 1 1.24 0.46 7.59 7.59 0 0 1 1.11 0.85 8.84 8.84 0 0 1 1 1 5.35 5.35 0 0 1 0.72 1.16 6 6 0 0 1 0.44 2.35 11.06 11.06 0 0 1 -0.22 2.48 6.09 6.09 0 0 1 -0.25 0.86c-0.26 0.71 -0.59 1.39 -0.79 2.13a5.72 5.72 0 0 0 -0.19 1.25 17.92 17.92 0 0 0 0 1.8l0 0.09 -1.15 -0.11 -0.56 0 0 -0.62a7.16 7.16 0 0 0 -0.12 -0.93 6.72 6.72 0 0 0 -0.28 -0.9 6.25 6.25 0 0 0 -0.71 -1.23c-0.38 -0.53 -0.84 -1 -1.18 -1.54a3.65 3.65 0 0 1 -0.55 -1.22 0.27 0.27 0 0 0 -0.31 -0.23 0.28 0.28 0 0 0 -0.24 0.31 4.12 4.12 0 0 0 0.42 1.46c0.11 0.25 0.25 0.49 0.38 0.73a12.29 12.29 0 0 1 -1.48 -0.06c-0.39 0 -0.77 -0.08 -1.16 -0.1l-1.76 0a0.32 0.32 0 0 0 -0.15 -0.42 0.31 0.31 0 0 0 -0.42 0.15l-0.79 1.17a5 5 0 0 0 -0.41 0.88 8.75 8.75 0 0 0 -0.28 0.91l-0.22 1.47v0.11l-1.15 -0.06 -0.17 -0.06 -0.22 -0.7a7.65 7.65 0 0 1 -0.21 -1.24 14.1 14.1 0 0 1 0 -2c0 -0.29 0.09 -0.72 0.08 -1.09a1.45 1.45 0 0 0 -0.11 -0.61 0.55 0.55 0 0 0 -0.19 -0.24c-0.08 -0.06 -0.23 -0.13 -0.27 -0.16l-0.71 -0.52c-0.31 -0.2 -0.68 0.33 -0.49 0.57l0.69 0.62a1 1 0 0 0 0.18 0.17 1.32 1.32 0 0 1 0 0.28c0 0.32 -0.11 0.66 -0.14 0.9a12.89 12.89 0 0 0 -0.08 1.75A7.82 7.82 0 0 0 8 19a5.7 5.7 0 0 0 0.23 0.81 1.69 1.69 0 0 0 0.25 0.44 0.65 0.65 0 0 0 0.35 0.21 3.28 3.28 0 0 0 0.47 0.05h1.29l0.37 0a0.53 0.53 0 0 0 0.32 -0.15 0.68 0.68 0 0 0 0.15 -0.28 2.76 2.76 0 0 0 0.07 -0.53l0.13 -1.43a7.68 7.68 0 0 1 0.19 -0.83 4.37 4.37 0 0 1 0.31 -0.78l0.41 -0.69c0.57 0.15 1.13 0.34 1.72 0.46a6.48 6.48 0 0 0 0.77 0.1 6.6 6.6 0 0 0 0.77 0 7.4 7.4 0 0 0 1.85 -0.38l0.25 0.41a6.38 6.38 0 0 1 0.56 1.07 6 6 0 0 1 0.25 0.75 6.6 6.6 0 0 1 0.17 0.77l0.12 0.77 0 0.21a0.47 0.47 0 0 0 0.35 0.38 1.51 1.51 0 0 0 0.37 0c0.24 0 0.49 -0.05 0.71 -0.06l1.21 0c0.28 0 0.52 -0.72 0.52 -0.74a14.37 14.37 0 0 1 0 -1.73 5.44 5.44 0 0 1 0.22 -1.08c0.23 -0.71 0.59 -1.35 0.87 -2a6.64 6.64 0 0 0 0.33 -1 11.08 11.08 0 0 0 0.36 -2.7 6.81 6.81 0 0 0 -0.47 -2.75Z" fill="#020202" fill-rule="evenodd" stroke-width="1"></path>
    <path d="M5.05 14.8a3.93 3.93 0 0 1 0 1.64 3.16 3.16 0 0 1 -0.67 1.43 2.69 2.69 0 0 1 -0.39 0.36c-0.24 0.18 -0.5 0.33 -0.75 0.49l-0.55 0.28a3 3 0 0 1 -0.56 0.24l-0.7 -0.88 0.06 0a3.13 3.13 0 0 0 0.49 -0.41 4.31 4.31 0 0 0 0.39 -0.46 2.71 2.71 0 0 0 0.46 -1.08 6.19 6.19 0 0 0 0.1 -1.08 0.31 0.31 0 0 0 -0.61 0 5 5 0 0 1 -0.16 0.89 2.06 2.06 0 0 1 -0.42 0.74 2.73 2.73 0 0 1 -0.35 0.33 2.45 2.45 0 0 1 -0.37 0.26l-0.23 0.07 -0.14 0a0.5 0.5 0 0 0 -0.4 0.39 0.81 0.81 0 0 0 0 0.34 3.06 3.06 0 0 0 0.24 0.45l0.79 1.08a2.21 2.21 0 0 0 0.25 0.33 0.87 0.87 0 0 0 0.28 0.17 0.66 0.66 0 0 0 0.37 0c0.11 0 0.28 -0.11 0.35 -0.13a5.55 5.55 0 0 0 0.7 -0.32c0.22 -0.12 0.43 -0.26 0.64 -0.4s0.54 -0.38 0.79 -0.6a4.18 4.18 0 0 0 0.5 -0.53 4.08 4.08 0 0 0 0.71 -1.88 4.46 4.46 0 0 0 -0.17 -1.94 0.24 0.24 0 0 0 -0.07 -0.12c-0.25 -0.09 -0.42 0 -0.53 0.29Z" fill="#020202" fill-rule="evenodd" stroke-width="1"></path>
    <path d="M5.8 8.68c0.1 0.32 0.46 0.54 1 0.38a0.74 0.74 0 0 0 0.45 -1c-0.33 -0.85 -1.75 -0.29 -1.45 0.62Z" fill="#020202" fill-rule="evenodd" stroke-width="1"></path>
  </g>
</svg>