<svg xmlns="http://www.w3.org/2000/svg" viewBox="0 0 24 24" id="Email-Action-Read--Streamline-Freehand">
  <desc>
    Email Action Read Streamline Icon: https://streamlinehq.com
  </desc>
  <g>
    <path d="M11.93 13.72a2.57 2.57 0 0 0 -1 -0.22 2.82 2.82 0 0 0 -1.21 0.5 27.49 27.49 0 0 0 -3.28 2.62 54.18 54.18 0 0 0 -4.68 4.76c-0.78 1.13 -0.56 1.28 0.24 0.86a49 49 0 0 1 4.17 -4c1.24 -1.07 2.49 -2.07 3.46 -2.75A4.1 4.1 0 0 1 11 14.7a3.2 3.2 0 0 1 1.25 0.46c0.9 0.44 2.05 1.13 3.27 1.89 1.91 1.2 4.65 3.06 6 4 0.9 0.35 0.75 -0.06 0.11 -0.79 -1.71 -1.34 -4.41 -3.42 -6.69 -4.9a15.3 15.3 0 0 0 -3.01 -1.64Z" fill="#4C57E6" stroke-width="1"></path>
    <path d="M23.49 8.42A2.65 2.65 0 0 0 22.78 7c-0.26 -0.21 -4.34 -3.3 -7.56 -5.28A10.22 10.22 0 0 0 11.37 0a8.93 8.93 0 0 0 -3.84 2 62.11 62.11 0 0 0 -7 6.38A1.34 1.34 0 0 0 0.27 9a29.5 29.5 0 0 0 -0.17 3.9 92.68 92.68 0 0 0 0.43 10 0.31 0.31 0 0 0 0.37 0.25 1 1 0 0 0 0.29 -0.15c-0.06 -1.23 -0.29 -0.33 -0.31 -7.24 0 -2 0 -3.9 0.13 -5.24 0.59 0.34 1.56 1 2.68 1.76 0.65 0.42 1.33 0.87 2 1.27 0.52 0.3 1 0.57 1.52 0.82 1 0.34 1.21 0.09 0.8 -0.65q-0.6 -0.43 -1.29 -0.9c-0.4 -0.28 -0.83 -0.55 -1.26 -0.81s-0.87 -0.52 -1.3 -0.75a25.44 25.44 0 0 0 -3.08 -1.54l0 -0.3c0 -0.19 0.08 -0.4 0.09 -0.46a64.36 64.36 0 0 1 5.95 -5.29c1.73 -1.35 3.37 -2.48 4.29 -2.51a9.48 9.48 0 0 1 3.18 1.58c3.16 2 7.18 5 7.43 5.21s0.21 0.39 0.3 0.75c0 0.08 0 0.16 0.05 0.24a32.42 32.42 0 0 0 -3.54 1.71c-0.47 0.25 -1 0.52 -1.44 0.81s-0.95 0.58 -1.41 0.87c-0.66 0.44 -1.27 0.87 -1.81 1.24 -0.63 0.73 -0.38 0.93 0.88 0.55 0.62 -0.32 1.3 -0.67 2 -1.07s1.53 -0.91 2.26 -1.37c1.4 -0.88 2.59 -1.7 3.18 -2a32.63 32.63 0 0 1 0.23 3.72 61.49 61.49 0 0 1 -0.38 8.4l0 0.18 -0.75 0.1c-1.77 0.18 -5.57 0.45 -9.42 0.69 -4.37 0.27 -8.81 0.5 -10.5 0.53a0.34 0.34 0 0 0 -0.35 0.36 0.36 0.36 0 0 0 0.36 0.35c2.26 0 9.4 -0.29 14.74 -0.58 2.55 -0.13 4.68 -0.27 5.7 -0.37a2.68 2.68 0 0 0 0.85 -0.18 0.69 0.69 0 0 0 0.24 -0.31 4 4 0 0 0 0.22 -0.93 62.58 62.58 0 0 0 0.47 -8.25 24.9 24.9 0 0 0 -0.41 -4.97Z" fill="#020202" stroke-width="1"></path>
  </g>
</svg>