<svg xmlns="http://www.w3.org/2000/svg" viewBox="0 0 24 24" id="Email-Action-Read-Document--Streamline-Freehand">
  <desc>
    Email Action Read Document Streamline Icon: https://streamlinehq.com
  </desc>
  <g>
    <path d="M23 16.13a21 21 0 0 0 -0.58 -4.95A0.35 0.35 0 0 0 22 11a29.25 29.25 0 0 0 -3.33 1.41c-0.44 0.22 -0.9 0.44 -1.36 0.69s-0.9 0.49 -1.33 0.74c-1.09 0.65 -2.05 1.29 -2.7 1.68a5.34 5.34 0 0 0 -2 -0.79 2.7 2.7 0 0 0 -1.14 0.41c-0.18 0.1 -0.38 0.23 -0.6 0.37 -0.55 -0.41 -1.27 -1 -2.06 -1.54 -0.37 -0.26 -0.75 -0.52 -1.14 -0.76s-0.79 -0.49 -1.18 -0.72A23.81 23.81 0 0 0 2.26 11a3 3 0 0 1 0 -0.36c0 -0.16 0.12 -0.3 0.06 -0.33a0.34 0.34 0 0 0 -0.5 -0.46 3.29 3.29 0 0 0 -0.42 1.44c-0.14 0.89 -0.29 2.18 -0.39 3.58q0 0.75 -0.06 1.53l0 1.92a31.67 31.67 0 0 0 0.37 4.5 0.28 0.28 0 0 0 0.34 0.25c0.69 -0.11 0.59 -0.77 5 -4.22 1.18 -0.92 2.37 -1.77 3.3 -2.35a4.07 4.07 0 0 1 1.27 -0.67 3.28 3.28 0 0 1 1.13 0.45c0.82 0.43 1.86 1.07 3 1.79 2.38 1.56 5 3.45 6.19 4.3a1.62 1.62 0 0 0 0 0.2l-0.24 0c-0.86 0.06 -2.68 0.11 -4.88 0.18 -2.52 0.09 -5.53 0.21 -8.17 0.29s-4.78 0.13 -5.84 0.13a0.33 0.33 0 0 0 -0.34 0.33 0.34 0.34 0 0 0 0.33 0.35c2.09 0.08 8.71 0.15 13.66 0.06 2.36 -0.05 4.35 -0.14 5.29 -0.21a2.52 2.52 0 0 0 0.82 -0.16 0.69 0.69 0 0 0 0.25 -0.26 3.28 3.28 0 0 0 0.22 -0.77 39.73 39.73 0 0 0 0.35 -6.38Zm-21.09 6c0 -1 0.11 -2.63 0.18 -4.43 0 -0.84 0 -1.71 0.05 -2.54s0 -1.77 0 -2.53l0 -0.87c0.54 0.33 1.4 1 2.41 1.66 0.58 0.4 1.21 0.82 1.83 1.2 0.86 0.52 1.71 1 2.39 1.31 -0.57 0.4 -1.2 0.89 -1.85 1.42a43.52 43.52 0 0 0 -4.99 4.79Zm19.75 -0.44c-1.41 -1.15 -4.34 -3.57 -6.77 -5.21 -0.31 -0.21 -0.62 -0.4 -0.91 -0.58 0.79 -0.34 1.86 -0.8 3 -1.36 0.72 -0.36 1.45 -0.77 2.13 -1.16 1.07 -0.61 2 -1.19 2.64 -1.53a6.18 6.18 0 0 1 0.47 3.15 43 43 0 0 1 -0.54 6.7Z" fill="#020202" stroke-width="1"></path>
    <path d="M3.41 9.63a0.3 0.3 0 0 0 0.31 -0.29c0 -0.65 0.14 -1.93 0.28 -3.3 0.17 -1.72 0.39 -3.57 0.54 -4.42 0.06 -0.29 0.21 -0.17 0.57 -0.17 1.63 0 5.19 -0.21 8 -0.28 1.91 0 3.44 -0.11 3.62 0a9.8 9.8 0 0 1 1.56 1 8.23 8.23 0 0 1 1.37 1.13 13.39 13.39 0 0 1 0.19 2.89c0 1.78 0 3.81 -0.1 4.64a0.34 0.34 0 0 0 0.3 0.37 0.35 0.35 0 0 0 0.38 -0.31c0.11 -1 0.25 -3.53 0.27 -5.48a9.3 9.3 0 0 0 -0.19 -2.53 8.31 8.31 0 0 0 -1.61 -1.53A9.74 9.74 0 0 0 17.06 0.1a8.67 8.67 0 0 0 -1.71 -0.1c-1.52 0 -3.92 0.05 -6.11 0.16 -2 0.09 -3.76 0.23 -4.6 0.33a1.62 1.62 0 0 0 -0.77 0.22 0.7 0.7 0 0 0 -0.2 0.4c0 0.27 -0.12 0.83 -0.18 1.54 -0.17 2.07 -0.36 5.47 -0.37 6.67a0.32 0.32 0 0 0 0.29 0.31Z" fill="#020202" stroke-width="1"></path>
    <path d="M10.13 4.5h1.31l1.32 0c1.48 -0.06 2.73 -0.13 3 -0.09a0.33 0.33 0 0 0 0.4 -0.27 0.34 0.34 0 0 0 -0.26 -0.4 25.72 25.72 0 0 0 -3.15 -0.32l-1.32 0 -1.33 0a19.56 19.56 0 0 0 -3.1 0.43 0.31 0.31 0 0 0 -0.24 0.36 0.29 0.29 0 0 0 0.35 0.23c0.55 -0.06 1.71 0.02 3.02 0.06Z" fill="#4C57E6" stroke-width="1"></path>
    <path d="M17.82 7.07a0.35 0.35 0 0 0 -0.38 -0.31l-4.11 0 -1.78 0c-0.59 0 -1.19 0 -1.77 0.08 -1.95 0.13 -3.63 0.32 -4.12 0.35a0.3 0.3 0 0 0 0 0.6c0.49 0 2.19 0.13 4.16 0.14l1.77 0 1.77 -0.1c2 -0.14 3.77 -0.32 4.15 -0.38a0.34 0.34 0 0 0 0.31 -0.38Z" fill="#4C57E6" stroke-width="1"></path>
    <path d="m12.32 10.47 -2.1 0c-1.61 0.07 -3.06 0.26 -3.49 0.3a0.31 0.31 0 0 0 0 0.61c0.4 0 1.62 0.15 3.06 0.21h1.31c0.45 0 0.89 0 1.32 -0.06a26.43 26.43 0 0 0 3.09 -0.35 0.33 0.33 0 0 0 0.29 -0.38 0.34 0.34 0 0 0 -0.39 -0.29c-0.41 0.07 -1.66 -0.01 -3.09 -0.04Z" fill="#4C57E6" stroke-width="1"></path>
  </g>
</svg>