<svg xmlns="http://www.w3.org/2000/svg" viewBox="0 0 24 24" id="Email-Action-Search--Streamline-Freehand">
  <desc>
    Email Action Search Streamline Icon: https://streamlinehq.com
  </desc>
  <g>
    <path d="M23.71 23.43a10 10 0 0 0 -3 -3.33 4.16 4.16 0 0 0 -1.93 -7.22 4.61 4.61 0 0 0 -5.52 4.75c0.1 2.27 2.26 4 3.76 3.83a0.31 0.31 0 0 0 -0.05 -0.62 3.26 3.26 0 0 1 -2.76 -3.21A3.71 3.71 0 0 1 18.56 14c2.63 0.52 3.63 3.57 1.36 5.76a4.41 4.41 0 0 1 -1.44 1 0.35 0.35 0 0 0 0.23 0.66 4.75 4.75 0 0 0 1.46 -0.82 13.47 13.47 0 0 0 3 3.27 0.35 0.35 0 0 0 0.54 -0.44Z" fill="#020202" fill-rule="evenodd" stroke-width="1"></path>
    <path d="M11.07 14.64a41.67 41.67 0 0 0 -6.22 -0.05c-1.51 0.1 -2.73 0.24 -3.47 0.26a0.35 0.35 0 0 0 0 0.7 42.35 42.35 0 0 0 9.73 -0.29 0.31 0.31 0 0 0 -0.04 -0.62Z" fill="#020202" fill-rule="evenodd" stroke-width="1"></path>
    <g>
      <path d="M6.64 8a36.83 36.83 0 0 0 -5.27 5.5 0.35 0.35 0 0 0 0.53 0.5c1.3 -1.35 3.15 -2.54 5.5 -5.46 0.25 -1.06 -0.07 -1.1 -0.76 -0.54Z" fill="#4C57E6" fill-rule="evenodd" stroke-width="1"></path>
      <path d="M13.84 7.86c-1 -0.51 -1.34 -0.34 -0.88 0.71a15.63 15.63 0 0 0 2.22 2.22 0.35 0.35 0 0 0 0.54 -0.46 13.37 13.37 0 0 0 -1.88 -2.47Z" fill="#4C57E6" fill-rule="evenodd" stroke-width="1"></path>
      <path d="M19.05 0.82C18.21 0 3.44 -0.64 0.86 1.19a1 1 0 0 0 -0.32 0.52C0.06 3.47 0.17 12.8 0.41 14.47a0.31 0.31 0 0 0 0.59 -0.08 86.41 86.41 0 0 1 0.46 -11.66C2.85 3.85 8.6 8.55 10.4 8.51c2.19 -0.06 8.13 -6.76 8.23 -6.25a41.26 41.26 0 0 1 0.09 7.94 0.35 0.35 0 0 0 0.7 0.05c0.14 -1.54 0.73 -8.34 -0.37 -9.43Zm-7.61 6c-1.1 0.69 -1 0.71 -2 0.19 -1.89 -1 -6 -3.72 -7.77 -4.92C1.58 1.16 15.87 0.86 18 1.53a41.47 41.47 0 0 1 -6.56 5.25Z" fill="#020202" fill-rule="evenodd" stroke-width="1"></path>
    </g>
  </g>
</svg>