<svg xmlns="http://www.w3.org/2000/svg" viewBox="0 0 24 24" id="Email-Action-Favorite-Heart--Streamline-Freehand">
  <desc>
    Email Action Favorite Heart Streamline Icon: https://streamlinehq.com
  </desc>
  <g>
    <path d="M23.13 14.35a3.17 3.17 0 0 0 -3.74 -0.14A4.11 4.11 0 0 0 18 15.34a3.72 3.72 0 0 0 -0.52 -0.59 2.43 2.43 0 0 0 -2.18 -0.87 4.64 4.64 0 0 0 -2.11 0.75c-1.66 1.17 -1.2 3.61 0.19 5.3a15.79 15.79 0 0 0 4.23 3.21 0.28 0.28 0 0 0 0.28 -0.48 16.48 16.48 0 0 1 -3.89 -3.2 3.85 3.85 0 0 1 -0.84 -3.23 2.22 2.22 0 0 1 2 -1.28 1.51 1.51 0 0 1 1.66 0.56c0.63 0.6 0.5 0.78 0.8 1.09a0.58 0.58 0 0 0 1 -0.09c0.09 -0.13 0.16 -0.33 0.22 -0.41a3.49 3.49 0 0 1 1.83 -1.29 1.77 1.77 0 0 1 2.46 2.1c-0.5 2.15 -2.36 3.91 -4.18 5.13a0.31 0.31 0 0 0 0.34 0.53A12.76 12.76 0 0 0 23 19.18c1 -1.61 1.58 -3.56 0.13 -4.83Z" fill="#020202" fill-rule="evenodd" stroke-width="1"></path>
    <path d="M10.77 15.33a42.39 42.39 0 0 0 -6.17 -0.06c-1.49 0.1 -2.7 0.24 -3.44 0.27a0.35 0.35 0 1 0 0 0.69 42.18 42.18 0 0 0 9.64 -0.29 0.31 0.31 0 0 0 -0.03 -0.61Z" fill="#020202" fill-rule="evenodd" stroke-width="1"></path>
    <g>
      <path d="M6.39 8.75a37.82 37.82 0 0 0 -5.24 5.46 0.35 0.35 0 0 0 0.53 0.45 52 52 0 0 0 5.46 -5.42c0.48 -1.02 0.07 -1 -0.75 -0.49Z" fill="#4C57E6" fill-rule="evenodd" stroke-width="1"></path>
      <path d="M18.67 1.63C17.84 0.8 3.2 0.18 0.65 2a1 1 0 0 0 -0.32 0.52C-0.15 4.26 0 13.5 0.2 15.15a0.31 0.31 0 0 0 0.61 -0.07 86.7 86.7 0 0 1 0.43 -11.56c1.35 1.09 7.12 5.77 8.86 5.74 2.11 -0.06 8.06 -6.65 8.15 -6.2a41.34 41.34 0 0 1 0.1 7.87 0.35 0.35 0 0 0 0.65 0.07c0.18 -1.55 0.76 -8.29 -0.33 -9.37Zm-7.54 5.91c-1.09 0.68 -1 0.7 -2 0.18a90.7 90.7 0 0 1 -7.7 -4.87C1.36 2 15.52 1.67 17.65 2.33a40.6 40.6 0 0 1 -6.52 5.21Z" fill="#020202" fill-rule="evenodd" stroke-width="1"></path>
      <path d="M13.48 8.58c-0.75 -0.48 -1.16 -0.43 -0.87 0.7a14.78 14.78 0 0 0 2.23 2.23 0.35 0.35 0 0 0 0.53 -0.45 13.05 13.05 0 0 0 -1.89 -2.48Z" fill="#4C57E6" fill-rule="evenodd" stroke-width="1"></path>
    </g>
  </g>
</svg>