<svg xmlns="http://www.w3.org/2000/svg" viewBox="0 0 24 24" id="Email-Action-Receive--Streamline-Freehand">
  <desc>
    Email Action Receive Streamline Icon: https://streamlinehq.com
  </desc>
  <g>
    <path d="M22.31 10.36a0.68 0.68 0 0 0 -0.26 -0.35 8.7 8.7 0 0 0 -1.45 -0.79 16 16 0 0 0 -1.48 -0.61 0.6 0.6 0 0 0 -0.51 0 0.36 0.36 0 0 0 0 0.49 0.42 0.42 0 0 0 0.25 0.12s0.12 0 0.22 0.08a18.34 18.34 0 0 1 2.17 1.09 2.89 2.89 0 0 1 -0.37 0.31c-1.41 1 -4.36 2.82 -6.24 3.87a9.85 9.85 0 0 1 -1.37 0.7 16.45 16.45 0 0 1 -2 -0.85c-2.42 -1.12 -6.11 -2.94 -7.74 -3.81a5.61 5.61 0 0 1 -0.48 -0.33 13.7 13.7 0 0 1 2.5 -1.63 0.3 0.3 0 1 0 -0.26 -0.55 15.68 15.68 0 0 0 -2.6 1.51 1.45 1.45 0 0 0 -0.51 0.54c-0.18 0.51 -0.48 4.91 -0.59 6.61a6.44 6.44 0 0 0 0.06 1.87 3.83 3.83 0 0 0 0.86 0.52c1.16 0.58 3.69 1.81 6 2.86 1.72 0.79 3.31 1.48 4.07 1.78a1.76 1.76 0 0 0 0.84 0.16c0.24 -0.07 3.72 -2.2 6.22 -3.83 1 -0.67 1.91 -1.26 2.31 -1.56a1.18 1.18 0 0 0 0.41 -0.48c0.14 -0.77 -0.03 -7.66 -0.05 -7.72Zm-0.82 7.37c-0.22 0.15 -0.37 0.31 -0.67 0.51 -5.12 3.3 -6.66 4.35 -7.53 4.47a1.83 1.83 0 0 1 -0.95 -0.25l-4.53 -2 -4.54 -2 -0.75 -0.33a3.17 3.17 0 0 1 -0.06 -0.35c0 -0.6 0 -1.54 0.06 -2.57 0.06 -1.4 0.15 -3 0.23 -4.1l0.18 0.12c1.09 0.66 3.49 2 5.69 3.18 1.59 0.82 3.08 1.52 3.93 1.85 -0.07 0.39 -0.15 0.85 -0.19 1.34a5.93 5.93 0 0 0 0 0.73 6 6 0 0 0 0.05 0.74c0.1 1 0.25 1.7 0.25 1.7a0.35 0.35 0 0 0 0.36 0.33 0.33 0.33 0 0 0 0.33 -0.35s0.1 -0.75 0.16 -1.71l0 -0.73 0 -0.73c-0.05 -0.4 -0.11 -0.78 -0.17 -1.12a1.89 1.89 0 0 0 0.67 -0.21 43.14 43.14 0 0 0 4 -2.45c1.44 -1 2.83 -2 3.59 -2.53v0.18c0 1.55 0.04 5.11 -0.11 6.28Z" fill="#020202" stroke-width="1"></path>
    <path d="M6.74 0.92A10.09 10.09 0 0 1 11 1a5.11 5.11 0 0 1 3.05 2.64 3.24 3.24 0 0 1 0.37 1.14 12.88 12.88 0 0 1 0.09 1.61 1.36 1.36 0 0 0 0.18 0.64 0.93 0.93 0 0 0 0.54 0.31c0.31 0.08 0.9 0.17 1.41 0.26 -1 1 -3 3 -4 3.77a1.43 1.43 0 0 1 -0.22 0.15l-0.18 -0.15A51.36 51.36 0 0 1 8.1 7.34a12.7 12.7 0 0 0 2 0 0.75 0.75 0 0 0 0.56 -0.73 6.23 6.23 0 0 0 -0.25 -1.93A4.59 4.59 0 0 0 9 2.6a4.08 4.08 0 0 0 -2.3 -0.87 0.3 0.3 0 1 0 -0.06 0.6 3.4 3.4 0 0 1 1.91 0.8 3.78 3.78 0 0 1 1.1 1.78 5.78 5.78 0 0 1 0.26 1.57c-0.64 0.06 -1.86 -0.09 -2.4 -0.1a0.86 0.86 0 0 0 -0.66 0.23 0.61 0.61 0 0 0 0 0.64 6.79 6.79 0 0 0 0.9 1.19 47.66 47.66 0 0 0 3.88 3.9 2.11 2.11 0 0 0 0.8 0.49 0.76 0.76 0 0 0 0.47 -0.12 7.07 7.07 0 0 0 1.1 -0.88c1.21 -1.08 3 -2.88 3.78 -3.71a4.44 4.44 0 0 0 0.52 -0.64 0.56 0.56 0 0 0 -0.3 -0.69 1.62 1.62 0 0 0 -0.41 -0.13c-0.48 -0.08 -1.54 -0.2 -2.05 -0.3l0 -0.21a10 10 0 0 0 -0.13 -1.5 4.4 4.4 0 0 0 -0.51 -1.45A6 6 0 0 0 11.25 0.25a11 11 0 0 0 -4.61 0 0.36 0.36 0 0 0 -0.3 0.39 0.37 0.37 0 0 0 0.4 0.28Z" fill="#4C57E6" stroke-width="1"></path>
  </g>
</svg>