<svg xmlns="http://www.w3.org/2000/svg" viewBox="0 0 24 24" id="Email-Action-Subtract--Streamline-Freehand">
  <desc>
    Email Action Subtract Streamline Icon: https://streamlinehq.com
  </desc>
  <g>
    <path d="M22.51 14.44a6 6 0 0 0 -9.63 0.61c-1.7 2.5 -0.82 6.19 0.88 7.28a0.31 0.31 0 0 0 0.35 -0.52c-1.35 -0.95 -1.95 -4.18 -0.43 -6.2a5.06 5.06 0 0 1 7.9 -0.41c2.5 3 1 7.45 -3.38 8a5.71 5.71 0 0 1 -2.4 -0.2 0.36 0.36 0 0 0 -0.23 0.68 6.53 6.53 0 0 0 2.71 0.29 5.76 5.76 0 0 0 4.23 -9.53Z" fill="#020202" fill-rule="evenodd" stroke-width="1"></path>
    <path d="M17.28 18.89a33.69 33.69 0 0 1 3.45 0 0.36 0.36 0 0 0 0.15 -0.7 9 9 0 0 0 -6 0.09 0.31 0.31 0 0 0 0.11 0.62c0.65 -0.07 1.45 -0.01 2.29 -0.01Z" fill="#020202" fill-rule="evenodd" stroke-width="1"></path>
    <path d="M10.82 14.44a40.48 40.48 0 0 0 -6.13 0c-1.49 0.09 -2.69 0.23 -3.43 0.26a0.35 0.35 0 0 0 0 0.69 41.65 41.65 0 0 0 9.59 -0.3 0.3 0.3 0 1 0 -0.03 -0.65Z" fill="#020202" fill-rule="evenodd" stroke-width="1"></path>
    <g>
      <path d="M13.52 7.72c-0.86 -0.43 -1.15 -0.2 -0.86 0.7a15.11 15.11 0 0 0 2.22 2.22 0.34 0.34 0 0 0 0.52 -0.45 12.85 12.85 0 0 0 -1.88 -2.47Z" fill="#4C57E6" fill-rule="evenodd" stroke-width="1"></path>
      <path d="M6.5 7.87a36.8 36.8 0 0 0 -5.25 5.46 0.34 0.34 0 0 0 0.53 0.44c1.28 -1.34 3.1 -2.48 5.46 -5.42 0.34 -0.89 0.13 -1.1 -0.74 -0.48Z" fill="#4C57E6" fill-rule="evenodd" stroke-width="1"></path>
      <path d="M18.69 0.8C17.83 0 3.25 -0.61 0.76 1.18a0.85 0.85 0 0 0 -0.32 0.51C0 3.44 0.08 12.64 0.31 14.27a0.3 0.3 0 0 0 0.6 -0.08 86.58 86.58 0 0 1 0.43 -11.5c1.37 1.1 7.07 5.74 8.82 5.71 1.56 -0.05 7 -5.16 8.05 -6.45a14.61 14.61 0 0 1 0.28 2.73c0.15 4.91 -0.47 5.7 0.19 5.75a0.36 0.36 0 0 0 0.38 -0.32c0.13 -1.53 0.72 -8.23 -0.37 -9.31Zm-8.56 6.43c-0.9 0 -8.52 -5.05 -8.61 -5.26C3.71 0.88 16.19 1 17.68 1.51c-1.68 1.9 -6.92 5.71 -7.55 5.72Z" fill="#020202" fill-rule="evenodd" stroke-width="1"></path>
    </g>
  </g>
</svg>