<svg xmlns="http://www.w3.org/2000/svg" viewBox="0 0 24 24" id="Envelope-Back-Front--Streamline-Freehand">
  <desc>
    Envelope Back Front Streamline Icon: https://streamlinehq.com
  </desc>
  <g>
    <path d="M23.62 2.51a7.5 7.5 0 0 0 -2.21 -0.77c-2 -0.46 -5.11 -1.06 -8 -1.42 -3.12 -0.38 -6 -0.46 -7 0A0.76 0.76 0 0 0 6 0.64a8 8 0 0 0 -0.48 1.7c-0.42 2 -0.86 5.28 -1 7.21a0.33 0.33 0 0 0 0.29 0.36 0.32 0.32 0 0 0 0.35 -0.29c0.16 -1.18 0.43 -2.86 0.74 -4.44a33.65 33.65 0 0 1 0.8 -3.46C7.84 2.78 9.9 4.69 11.65 6a8.68 8.68 0 0 0 2.87 1.68 2.69 2.69 0 0 0 1 -0.14 20 20 0 0 0 2.76 -1.19 33.9 33.9 0 0 0 4.67 -2.76l0 0.54a17.92 17.92 0 0 1 -0.27 3A42.73 42.73 0 0 1 21.39 13c-0.07 0.22 -0.24 0.4 -0.18 0.46a0.35 0.35 0 0 0 -0.09 0.39 0.37 0.37 0 0 0 0.48 0.21 1.61 1.61 0 0 0 0.5 -0.81 45.24 45.24 0 0 0 1.51 -5.88A17.78 17.78 0 0 0 24 3.69a2 2 0 0 0 -0.38 -1.18Zm-7.91 3.71a3.66 3.66 0 0 1 -1 0.27 4 4 0 0 1 -1.18 -0.63c-0.57 -0.37 -1.25 -0.84 -2 -1.36C9.92 3.33 8.14 2 7.11 1.15a25.76 25.76 0 0 1 6.12 0.4c2.87 0.38 6 0.92 7.92 1.34 0.46 0.1 0.85 0.18 1.15 0.26A33.81 33.81 0 0 1 18.62 5c-1.05 0.52 -2.1 0.94 -2.91 1.22Z" fill="#4C57E6" stroke-width="1"></path>
    <path d="M17.78 11.78a2 2 0 0 0 -0.66 -1.07 3.37 3.37 0 0 0 -1.31 -0.2 75.3 75.3 0 0 0 -8.89 0.57c-3 0.36 -5.74 0.92 -6.58 1.54a0.78 0.78 0 0 0 -0.26 0.45A9.19 9.19 0 0 0 0 15a65.3 65.3 0 0 0 0.86 8.14 0.32 0.32 0 0 0 0.64 -0.14 47.36 47.36 0 0 1 -0.5 -5c-0.09 -1.52 -0.14 -3 -0.09 -4l0 -0.11c1.31 0.75 3.69 2.1 5.65 3l0.17 0.07c-0.46 0.41 -1 0.88 -1.61 1.41 -0.29 0.26 -0.58 0.53 -0.85 0.82s-0.56 0.58 -0.81 0.87c-0.78 0.87 -1.42 1.68 -1.78 2.18a0.39 0.39 0 0 0 0.05 0.52 0.38 0.38 0 0 0 0.52 -0.05c0.43 -0.44 1.24 -1.1 2.09 -1.89a18.89 18.89 0 0 0 1.36 -1.33 21.69 21.69 0 0 0 1.76 -2.23 6.21 6.21 0 0 0 2.2 0.56 2.4 2.4 0 0 0 0.89 -0.35c0.24 -0.14 0.52 -0.34 0.83 -0.56 0.35 0.34 0.8 0.79 1.32 1.27 0.24 0.23 0.5 0.45 0.77 0.67s0.55 0.42 0.82 0.62c0.82 0.6 1.57 1.1 2 1.38a0.37 0.37 0 1 0 0.48 -0.55c-0.33 -0.35 -0.95 -1 -1.7 -1.73 -0.24 -0.23 -0.5 -0.46 -0.77 -0.68a9.55 9.55 0 0 0 -0.83 -0.63c-0.5 -0.35 -1 -0.64 -1.38 -0.87 0.28 -0.21 0.56 -0.44 0.85 -0.68a34.71 34.71 0 0 0 3.69 -3.6c0 0.12 0.07 0.27 0.11 0.43a19.57 19.57 0 0 1 0.38 2.91 43.8 43.8 0 0 1 0.07 5.75l0 0.23 -0.39 0.07c-1.33 0.21 -4.16 0.58 -7 0.92 -3.26 0.39 -6.59 0.76 -7.86 0.86a0.36 0.36 0 0 0 -0.34 0.39 0.37 0.37 0 0 0 0.39 0.34c1.7 -0.09 7.06 -0.58 11.07 -1 1.91 -0.2 3.51 -0.38 4.27 -0.49a2.12 2.12 0 0 0 0.69 -0.19 0.71 0.71 0 0 0 0.24 -0.3 3.34 3.34 0 0 0 0.13 -0.73 41.78 41.78 0 0 0 0 -6 16.65 16.65 0 0 0 -0.61 -3.52Zm-4.86 2.53c-0.88 0.69 -1.78 1.33 -2.47 1.78a3.18 3.18 0 0 1 -0.91 0.49 4 4 0 0 1 -1.25 -0.33c-0.62 -0.21 -1.37 -0.51 -2.15 -0.83 -1.82 -0.75 -3.84 -1.66 -5 -2.18A23.67 23.67 0 0 1 7 12.2c3.34 -0.33 7 -0.49 8.75 -0.45h0.11a31.61 31.61 0 0 1 -2.94 2.56Z" fill="#020202" stroke-width="1"></path>
  </g>
</svg>