<svg xmlns="http://www.w3.org/2000/svg" viewBox="0 0 24 24" id="Equalizer-Phone-Application-1--Streamline-Freehand">
  <desc>
    Equalizer Phone Application 1 Streamline Icon: https://streamlinehq.com
  </desc>
  <g>
    <path d="M17.73 3.51a6 6 0 0 0 -0.45 -2 1.56 1.56 0 0 0 -0.78 -0.57 12 12 0 0 0 -2.11 -0.53s0 0 -0.05 0l-0.13 0A30.62 30.62 0 0 0 10.5 0a22 22 0 0 0 -4.74 0.39 4.65 4.65 0 0 0 -2 1 2.46 2.46 0 0 0 -0.48 1.18 46 46 0 0 0 -0.3 8.18A57.66 57.66 0 0 0 3.57 18a4.09 4.09 0 0 0 0.72 2 1.88 1.88 0 0 0 0.86 0.39 8 8 0 0 0 1.76 0c0.92 0 2.35 -0.1 3.71 -0.14l0 0.07A7.33 7.33 0 0 0 11 21a3.42 3.42 0 0 0 0.39 0.48 4.15 4.15 0 0 0 0.43 0.4 6 6 0 0 0 0.67 0.44 6.2 6.2 0 0 1 1 0.61 1.67 1.67 0 0 1 0.54 0.71 0.39 0.39 0 0 0 0.47 0.31 0.4 0.4 0 0 0 0.31 -0.46 2.59 2.59 0 0 0 -0.8 -1.64 5 5 0 0 0 -1 -0.77c-0.32 -0.18 -0.67 -0.3 -1 -0.49a1.77 1.77 0 0 1 -0.43 -0.28l-0.13 -0.13c0.73 0 1.43 0 1.94 0.05a0.36 0.36 0 0 0 0.38 -0.32 0.35 0.35 0 0 0 -0.31 -0.38c-0.53 -0.06 -1.24 -0.1 -2 -0.12l-4.62 0a10.21 10.21 0 0 1 -1.35 0 1.1 1.1 0 0 1 -0.49 -0.2 0.65 0.65 0 0 1 -0.13 -0.21 7.69 7.69 0 0 1 -0.23 -1.15 67 67 0 0 1 -0.4 -7.07 67.24 67.24 0 0 1 0.18 -7.07 8.15 8.15 0 0 1 0.19 -1.13 2 2 0 0 1 0.07 -0.22 3.7 3.7 0 0 1 1.75 -0.79 7.28 7.28 0 0 0 0.09 1 2.08 2.08 0 0 0 0.49 1 1.74 1.74 0 0 0 0.51 0.31 4.15 4.15 0 0 0 1 0.24l1.08 0.07L11.11 4c0.35 0 1 0.05 1.57 0a1.86 1.86 0 0 0 0.91 -0.25 0.63 0.63 0 0 0 0.26 -0.29 6.8 6.8 0 0 0 0.15 -0.75l0.38 -1.24c0.32 0.05 0.64 0.1 0.91 0.16a4.85 4.85 0 0 1 1 0.29c0.08 0 0.15 0 0.17 0.07a7.09 7.09 0 0 1 0.44 2.23c0.17 1.73 0.19 3.69 0.19 3.69a0.4 0.4 0 0 0 0.4 0.4 0.39 0.39 0 0 0 0.39 -0.4s0.03 -2.51 -0.15 -4.4ZM13.06 2.4a4.05 4.05 0 0 0 -0.21 0.45 2.93 2.93 0 0 1 -0.41 0c-0.51 0 -1.08 -0.12 -1.4 -0.12l-1.45 0.08h-0.93a4 4 0 0 1 -0.59 0 0.78 0.78 0 0 1 -0.35 -0.08A1.36 1.36 0 0 1 7.38 2q-0.08 -0.3 -0.12 -0.6a18.67 18.67 0 0 1 1.94 -0.2 28.89 28.89 0 0 1 4.32 0.16Z" fill="#020202" fill-rule="evenodd" stroke-width="1"></path>
    <path d="M14 10.59a1.73 1.73 0 0 0 0 -0.32c0 -0.27 -0.33 -1.39 -0.7 -1.39s-0.59 1 -0.62 1.11a1.83 1.83 0 0 0 0 0.33 1.88 1.88 0 0 0 0.05 0.33 2.92 2.92 0 0 0 0.14 0.38c0.18 0.36 0.9 0.33 1 0s0.13 -0.19 0.13 -0.44Z" fill="#4C57E6" fill-rule="evenodd" stroke-width="1"></path>
    <path d="M21.07 22.77a17 17 0 0 1 -0.29 -5.68 15 15 0 0 0 -0.05 -2.42 10.81 10.81 0 0 0 -0.32 -1.67 6.49 6.49 0 0 0 -2.49 -3.55 0.4 0.4 0 0 0 -0.32 -0.16 0.38 0.38 0 0 0 -0.33 0.38c0 0.66 0.05 1.55 0 2.3l0 0.74 -0.53 -0.3 -0.74 -0.51c-1 -0.7 -3.1 -1 -3.81 0.58a1.91 1.91 0 0 0 0.19 1.88 6.38 6.38 0 0 0 1.19 1.26 5.82 5.82 0 0 1 1 0.93 0.48 0.48 0 0 1 0.08 0.31c0 0.35 -0.07 0.73 0 1.06a3.73 3.73 0 0 0 0.23 0.93 6 6 0 0 0 0.65 1.15 4.36 4.36 0 0 0 0.92 0.95 3.83 3.83 0 0 0 1.15 0.6 0.33 0.33 0 0 0 0.44 -0.2 0.35 0.35 0 0 0 -0.19 -0.45 3.18 3.18 0 0 1 -0.91 -0.57 3.49 3.49 0 0 1 -0.67 -0.81 6.21 6.21 0 0 1 -0.4 -0.82 2.22 2.22 0 0 1 -0.15 -0.8c0 -0.39 0.15 -0.81 0.14 -1.21a1.63 1.63 0 0 0 -0.22 -0.77 25.61 25.61 0 0 0 -1.88 -2c-0.24 -0.28 -0.46 -0.57 -0.31 -0.91a0.75 0.75 0 0 1 0.73 -0.4 2.29 2.29 0 0 1 1.21 0.29l0.63 0.44s0.82 0.43 1.14 0.59a0.77 0.77 0 0 0 0.72 0 1.76 1.76 0 0 0 0.33 -1.09 21.21 21.21 0 0 0 -0.11 -2.12 5.8 5.8 0 0 1 1.14 2.61 11.8 11.8 0 0 1 0.17 1.47c0.05 0.75 0.05 1.52 0.06 2.29a16 16 0 0 0 0.86 6 0.41 0.41 0 0 0 0.52 0.23 0.39 0.39 0 0 0 0.22 -0.55Z" fill="#020202" fill-rule="evenodd" stroke-width="1"></path>
    <path d="M10.55 11.23a0.4 0.4 0 0 0 -0.42 -0.38c-0.54 0 -1.08 -0.11 -1.63 -0.12h-0.15c0 -0.38 0.07 -0.84 0.11 -1.41a7.24 7.24 0 0 0 0 -0.81 7 7 0 0 0 0 -0.8c-0.08 -0.83 -0.23 -1.53 -0.28 -1.88a0.37 0.37 0 0 0 -0.34 -0.36 0.34 0.34 0 0 0 -0.35 0.34 12.8 12.8 0 0 0 -0.3 1.91 4.48 4.48 0 0 0 0 0.82l0 0.82c0.08 0.57 0.16 1 0.24 1.41l-0.31 0c-0.54 0.09 -1 0.25 -1.59 0.35a0.36 0.36 0 0 0 -0.34 0.36 0.35 0.35 0 0 0 0.36 0.34 15.36 15.36 0 0 0 1.64 0.22l0.7 0c0.23 0 0.47 -0.05 0.69 -0.09 0.54 -0.1 1.06 -0.23 1.59 -0.34a0.39 0.39 0 0 0 0.38 -0.38Z" fill="#4C57E6" fill-rule="evenodd" stroke-width="1"></path>
    <path d="M7.9 13a0.35 0.35 0 0 0 -0.34 0.36c-0.12 0.67 -0.22 1.06 -0.24 1.36a4 4 0 0 0 0 0.55l0 0.56c0 0.25 0.09 0.69 0.18 1.36a0.39 0.39 0 0 0 0.38 0.41 0.39 0.39 0 0 0 0.41 -0.38c0.14 -0.66 0.23 -1.05 0.28 -1.34a2.94 2.94 0 0 0 0.06 -0.6 3.63 3.63 0 0 0 0 -0.6c-0.05 -0.29 -0.17 -0.67 -0.33 -1.34a0.34 0.34 0 0 0 -0.4 -0.34Z" fill="#4C57E6" fill-rule="evenodd" stroke-width="1"></path>
    <path d="M11.3 7.25a0.35 0.35 0 0 0 0 0.7 8.78 8.78 0 0 0 1.61 0.22 4.91 4.91 0 0 0 0.94 -0.09c0.46 -0.07 0.9 -0.2 1.37 -0.27a0.4 0.4 0 1 0 0 -0.8 12.31 12.31 0 0 0 -1.34 -0.18l0 -0.22a1 1 0 0 0 0 -0.3c0 -0.1 0 -0.19 -0.06 -0.29 -0.42 -1.08 -0.63 -1 -0.74 -1 -0.31 0 -0.53 1.08 -0.53 1.1a0.76 0.76 0 0 0 0 0.3 1.55 1.55 0 0 0 0.07 0.31 0.52 0.52 0 0 1 0.06 0.13l-0.13 0c-0.37 0.14 -0.79 0.29 -1.25 0.39Z" fill="#4C57E6" fill-rule="evenodd" stroke-width="1"></path>
  </g>
</svg>