<svg xmlns="http://www.w3.org/2000/svg" viewBox="0 0 24 24" id="Equalizer-Line-Graph--Streamline-Freehand">
  <desc>
    Equalizer Line Graph Streamline Icon: https://streamlinehq.com
  </desc>
  <g>
    <path d="M16.79 1.67c-0.52 -0.94 -1.25 -1.39 -2 -1.18a1.42 1.42 0 0 0 -0.9 1 13.61 13.61 0 0 0 -0.37 3.41c0 2 0.1 2.55 0 4.73a12.31 12.31 0 0 1 -0.63 3.51h1.42a12.82 12.82 0 0 0 0.45 -2.33 55.36 55.36 0 0 0 0.06 -5.88c0 -0.41 0 -1.22 0.06 -2a4.83 4.83 0 0 1 0.19 -1c0 -0.1 0.16 -0.18 0.13 -0.24 0.13 0 0.22 0.11 0.33 0.23a3.32 3.32 0 0 1 0.49 0.84 12.79 12.79 0 0 1 0.84 3.17 15.21 15.21 0 0 1 0.33 2.71l0 4.52h1c0.09 -3.74 0.16 -8.69 -1.4 -11.49Z" fill="#4C57E6" fill-rule="evenodd" stroke-width="1"></path>
    <path d="M20.44 13.12a38.31 38.31 0 0 1 -0.44 4.81 6.94 6.94 0 0 1 -0.4 1.15c-0.09 0.17 -0.17 0.33 -0.26 0.48l-0.14 0.19a0.69 0.69 0 0 1 -0.11 0.13 0.53 0.53 0 0 1 -0.1 0.06 3.48 3.48 0 0 1 -0.58 -1.61 20.38 20.38 0 0 1 -0.17 -2.95l0 -2.26h-1l0 2.28a20.15 20.15 0 0 0 0.23 3.1 4.22 4.22 0 0 0 0.85 2.09c0.5 0.55 1.05 0.43 1.54 -0.16a6.29 6.29 0 0 0 1 -2.32 46.19 46.19 0 0 0 0.39 -5Z" fill="#020202" fill-rule="evenodd" stroke-width="1"></path>
    <path d="M6.94 9a11.38 11.38 0 0 0 -0.07 -2 10.27 10.27 0 0 0 -0.7 -3.24 1.83 1.83 0 0 0 -1.31 -1.23c-0.71 -0.08 -1.23 0.47 -1.47 1.39a15.07 15.07 0 0 0 -0.23 3.74 6 6 0 0 1 -0.24 2.88c-0.63 1.35 -1.07 2 -2.46 1.61a0.36 0.36 0 1 0 -0.21 0.68 2.4 2.4 0 0 0 3.08 -1.33A7.89 7.89 0 0 0 4 7.65a23.66 23.66 0 0 1 0.15 -3 3.1 3.1 0 0 1 0.25 -0.87c0.08 -0.17 0.16 -0.31 0.32 -0.29 0.37 0 0.53 0.5 0.7 1A10.53 10.53 0 0 1 5.86 7a8.71 8.71 0 0 1 0 1.91c-0.07 1.4 -0.18 2.8 -0.28 4.2h1.14c0.08 -1.37 0.17 -2.76 0.22 -4.11Z" fill="#4C57E6" fill-rule="evenodd" stroke-width="1"></path>
    <path d="M7.91 16.76a19.85 19.85 0 0 1 -0.43 3.44c-0.09 0.37 -0.2 0.88 -0.35 1.35l0 0.14a32.91 32.91 0 0 1 -0.44 -4.11c-0.06 -1.48 0 -3 0.08 -4.46H5.59c-0.1 1.5 -0.18 3 -0.16 4.5A30.6 30.6 0 0 0 6 22.73c0.24 0.73 0.77 0.89 1.08 0.82a1.7 1.7 0 0 0 1 -1 10 10 0 0 0 0.41 -2.13A17.79 17.79 0 0 0 8.91 17C9 15.74 9 14.55 9 13.12H7.93c0.01 1.25 0.07 2.45 -0.02 3.64Z" fill="#020202" fill-rule="evenodd" stroke-width="1"></path>
    <path d="M21.69 11.2a2 2 0 0 1 1.9 -0.95 0.4 0.4 0 1 0 0 -0.8A2.7 2.7 0 0 0 21 10.78a6 6 0 0 0 -0.53 2.34h0.82a5 5 0 0 1 0.4 -1.92Z" fill="#4C57E6" fill-rule="evenodd" stroke-width="1"></path>
    <path d="M12.3 13c-0.38 -1.72 -0.74 -4.15 -1.41 -5.22a1.52 1.52 0 0 0 -1.37 -0.83C9.15 7 8.7 7.29 8.44 8a13.06 13.06 0 0 0 -0.53 3.44l0 1.69H9l0 -1.66c0 -1.52 0.59 -3.36 0.78 -3.22s0.39 1.12 0.45 1.32c0.32 1.07 0.55 2.44 0.79 3.56h1.38a0.57 0.57 0 0 1 -0.1 -0.13Z" fill="#4C57E6" fill-rule="evenodd" stroke-width="1"></path>
    <path d="M12.68 13.58a2.24 2.24 0 0 0 -0.12 0.29 6.69 6.69 0 0 1 -0.22 -0.75H11a8.18 8.18 0 0 0 0.53 1.79 1.05 1.05 0 0 0 1.17 0.67c0.3 -0.07 0.79 -0.43 1.25 -1.44a7.65 7.65 0 0 0 0.36 -1h-1.46c-0.06 0.14 -0.11 0.3 -0.17 0.44Z" fill="#020202" fill-rule="evenodd" stroke-width="1"></path>
  </g>
</svg>