<svg xmlns="http://www.w3.org/2000/svg" viewBox="0 0 24 24" id="Equipment-Wagon-Shiny-Stone--Streamline-Freehand">
  <desc>
    Equipment Wagon Shiny Stone Streamline Icon: https://streamlinehq.com
  </desc>
  <g>
    <path d="M5.37 3.51h0.11a0.36 0.36 0 0 0 0.22 0.27 4.06 4.06 0 0 1 0.86 0.58 2.21 2.21 0 0 1 0.56 0.64l0.25 0.64 0.14 0.36a0.9 0.9 0 0 0 0.07 0.11 0.93 0.93 0 0 0 1 0.14 1.19 1.19 0 0 0 0.3 -0.47c0.08 -0.19 0.11 -0.44 0.19 -0.59a2.61 2.61 0 0 1 0.6 -1 2 2 0 0 1 1 -0.59 0.34 0.34 0 0 0 0.31 -0.38 0.35 0.35 0 0 0 -0.25 -0.28 0.38 0.38 0 0 0 -0.16 -0.12 2.59 2.59 0 0 1 -0.8 -0.5 2.12 2.12 0 0 1 -0.47 -0.74c-0.08 -0.27 -0.2 -1 -0.24 -1.08A0.71 0.71 0 0 0 8.7 0a0.66 0.66 0 0 0 -0.61 0.08 1.26 1.26 0 0 0 -0.41 0.44c-0.17 0.3 -0.28 0.81 -0.42 1a1.9 1.9 0 0 1 -0.75 0.79 4.53 4.53 0 0 1 -1.22 0.45 0.35 0.35 0 0 0 -0.29 0.43 0.36 0.36 0 0 0 0.37 0.32Zm3 -1.21a0.64 0.64 0 0 0 0.06 -0.14 2.9 2.9 0 0 0 0.82 0.84c0.06 0 0.16 0 0.23 0.09a4.28 4.28 0 0 0 -0.43 0.2 3.7 3.7 0 0 0 -1 1 3 3 0 0 0 -0.72 -0.65 4.69 4.69 0 0 0 -0.72 -0.33 3.54 3.54 0 0 0 0.58 -0.17 3 3 0 0 0 1.15 -0.84Z" fill="#4C57E6" stroke-width="1"></path>
    <path d="M4.56 9a9 9 0 0 1 1 -1.23 5.08 5.08 0 0 1 0.56 0.47 10.35 10.35 0 0 1 1.27 1l0.13 0.12c0.55 0.5 1.07 1 1.63 1.52 0.3 0.21 0.53 0.18 0.7 0a0.38 0.38 0 0 0 -0.07 -0.46c-0.44 -0.5 -0.85 -1 -1.28 -1.53l1.2 -1.06 1.8 -1.4c0.57 -0.5 0.42 -0.3 1.16 0.6a8.3 8.3 0 0 1 0.59 0.77C14 8.86 14.53 10 15.29 11c0.35 0.25 1 0.18 0.92 0a0.14 0.14 0 0 0 0 -0.06 11.64 11.64 0 0 1 -1 -1.84c0.18 -0.14 0.35 -0.28 0.54 -0.41 0.52 -0.32 1.06 -0.59 1.6 -0.92s0.45 -0.32 0.9 0.27A14.76 14.76 0 0 1 19.4 9.5c0.32 0.5 0.48 0.71 0.76 1.22s1.12 0.54 1 0.12a20.08 20.08 0 0 0 -1 -2.25 14.64 14.64 0 0 0 -0.86 -1.43 4.83 4.83 0 0 0 -0.85 -0.89 1.22 1.22 0 0 0 -0.94 -0.27 1 1 0 0 0 -0.41 0.2c-0.17 0.13 -0.36 0.39 -0.48 0.48 -0.48 0.42 -1 0.79 -1.42 1.21 -0.13 0.12 -0.24 0.25 -0.36 0.37 -0.17 -0.38 -0.33 -0.76 -0.53 -1.13a10.74 10.74 0 0 0 -0.61 -0.94 6.76 6.76 0 0 0 -1 -1.14 1.46 1.46 0 0 0 -1 -0.38 1 1 0 0 0 -0.52 0.2 4.43 4.43 0 0 0 -0.58 0.6L9.06 7.12 8 8.29c0 -0.06 -0.09 -0.12 -0.14 -0.17a8.77 8.77 0 0 0 -1 -0.93 4.75 4.75 0 0 0 -1.11 -0.69 0.92 0.92 0 0 0 -1 0.16 7.78 7.78 0 0 0 -1 1.26c-0.61 1 -1.06 2.16 -1.55 3.09a0.38 0.38 0 0 0 0 0.31c0.21 0.2 0.44 0.14 0.7 0C3.45 10.58 4 9.77 4.56 9Z" fill="#4C57E6" stroke-width="1"></path>
    <path d="M22.2 11.35a155.5 155.5 0 0 0 -15.68 0.14c-0.48 0 -3.63 0.06 -4.82 0.08a0.36 0.36 0 0 0 -0.37 0.34 0.35 0.35 0 0 0 0.34 0.36c0.5 0 1 0.05 1.49 0.06l3.42 0c1.34 0 2.69 0.06 4 0.08s2.7 0 4.05 0c1.76 -0.05 3.51 -0.2 5.26 -0.24l2.23 0a0.39 0.39 0 0 0 0.42 -0.37 0.4 0.4 0 0 0 -0.34 -0.45Z" fill="#020202" stroke-width="1"></path>
    <path d="M7.15 20.07a0.87 0.87 0 0 0 -0.87 0.78 0.91 0.91 0 0 0 1 0.87 0.85 0.85 0 0 0 0.72 -1.13 0.88 0.88 0 0 0 -0.85 -0.52Z" fill="#020202" stroke-width="1"></path>
    <path d="M15.38 20.16a0.89 0.89 0 0 0 -0.87 0.79 0.9 0.9 0 0 0 1.05 0.87 0.85 0.85 0 0 0 0.63 -1.13 0.89 0.89 0 0 0 -0.81 -0.53Z" fill="#020202" stroke-width="1"></path>
    <path d="M23.86 12.56a1.48 1.48 0 0 0 -0.16 -0.46 1.44 1.44 0 0 0 -0.3 -0.37 0.4 0.4 0 0 0 -0.55 0.58 1.1 1.1 0 0 1 0.14 0.18 1.52 1.52 0 0 1 0.06 0.2 0.77 0.77 0 0 1 -0.44 0.82 5.15 5.15 0 0 1 -2 0.39l-0.9 0c-0.45 0 -2.26 -0.07 -4.51 -0.1l-4.52 0c-2.58 0 -5 0.12 -6 0.16a7.72 7.72 0 0 1 -3.07 -0.3 1 1 0 0 1 -0.62 -1.3 0.37 0.37 0 0 0 -0.22 -0.45 0.36 0.36 0 0 0 -0.45 0.22 1.65 1.65 0 0 0 0.94 2.29 1.15 1.15 0 0 0 0.17 0.06L1.29 16a7.73 7.73 0 0 0 0 0.84c0 0.28 0.07 0.54 0.12 0.82s0.15 0.82 0.27 1.26a4.79 4.79 0 0 0 0.59 1.34 1.65 1.65 0 0 0 1 0.8c0.27 0.06 0.5 -0.52 0.27 -0.9a0.94 0.94 0 0 1 -0.3 -0.44A4.79 4.79 0 0 1 3 18.59c-0.09 -0.46 -0.18 -0.9 -0.27 -1.28l-0.43 -1.43 -0.2 -1.15a11.81 11.81 0 0 0 2.53 0.27c0.75 0 2.13 0.08 3.76 0.11l3.77 0c3.5 0 6.93 -0.13 7.56 -0.16l1 -0.07a11 11 0 0 0 1.16 -0.18c-0.14 0.84 -0.29 1.79 -0.5 2.76 -0.07 0.35 -0.14 0.69 -0.23 1a5.19 5.19 0 0 1 -0.32 0.94 2.41 2.41 0 0 1 -1.44 1.37 0.42 0.42 0 0 0 -0.29 0.49 0.4 0.4 0 0 0 0.49 0.28 3.52 3.52 0 0 0 2.71 -2.35 6.65 6.65 0 0 0 0.45 -2.05 20.28 20.28 0 0 0 -0.07 -2.75 3.29 3.29 0 0 0 0.44 -0.16 1.54 1.54 0 0 0 0.74 -1.67Z" fill="#020202" stroke-width="1"></path>
    <path d="M8.9 18.42a3.48 3.48 0 0 0 -2.45 -0.68A3.25 3.25 0 0 0 5 23.5a2.37 2.37 0 0 0 1.09 0.5 5.07 5.07 0 0 0 1.61 0 0.35 0.35 0 0 0 0.3 -0.47 0.34 0.34 0 0 0 -0.39 -0.3 5.07 5.07 0 0 1 -1.15 -0.05 1.88 1.88 0 0 1 -0.88 -0.4A2.19 2.19 0 0 1 5 20.53a2 2 0 0 1 1.63 -1.46 2.19 2.19 0 0 1 1.52 0.38 2.66 2.66 0 0 1 1.1 1.28A1.82 1.82 0 0 1 9.2 22a1.43 1.43 0 0 1 -0.9 0.88 0.4 0.4 0 0 0 -0.32 0.47 0.41 0.41 0 0 0 0.47 0.31A2.27 2.27 0 0 0 10 22.43c1.17 -2.12 -0.63 -3.66 -1.1 -4.01Z" fill="#020202" stroke-width="1"></path>
    <path d="M18.74 20.42a3.77 3.77 0 0 0 -1.43 -2 3.46 3.46 0 0 0 -2.45 -0.68 3.24 3.24 0 0 0 -1.47 5.76 2.37 2.37 0 0 0 1.12 0.45 5.07 5.07 0 0 0 1.61 0 0.36 0.36 0 0 0 0.31 -0.39 0.35 0.35 0 0 0 -0.39 -0.3 5 5 0 0 1 -1.15 -0.05 1.79 1.79 0 0 1 -0.88 -0.4 2.17 2.17 0 0 1 -0.55 -2.25 2 2 0 0 1 1.62 -1.46 2.21 2.21 0 0 1 1.53 0.38 2.71 2.71 0 0 1 1.1 1.28 1.87 1.87 0 0 1 -0.09 1.24 1.47 1.47 0 0 1 -0.91 0.88 0.4 0.4 0 0 0 0.16 0.78 2.25 2.25 0 0 0 1.58 -1.25 2.88 2.88 0 0 0 0.29 -1.99Z" fill="#020202" stroke-width="1"></path>
  </g>
</svg>