<svg xmlns="http://www.w3.org/2000/svg" viewBox="0 0 24 24" id="Equipment-Welding-Mask--Streamline-Freehand">
  <desc>
    Equipment Welding Mask Streamline Icon: https://streamlinehq.com
  </desc>
  <g>
    <path d="M24 5.81a1.93 1.93 0 0 0 -0.27 -0.81 0.89 0.89 0 0 0 -0.36 -0.36 1.28 1.28 0 0 0 -0.61 -0.11 6.5 6.5 0 0 0 -1 0.14l-0.32 0.08c0 -0.44 0 -0.87 -0.08 -1.31a10.9 10.9 0 0 0 -0.19 -1.42 2.69 2.69 0 0 0 -0.46 -1A2 2 0 0 0 19.5 0.38a14.51 14.51 0 0 0 -2.72 0L12.61 0.16l-2.16 0C5.7 0.33 6.59 0.23 5.85 0.39L5 0.7a2.8 2.8 0 0 0 -1.39 1.18 5.06 5.06 0 0 0 -0.42 2.5l0 1.19A0.29 0.29 0 0 0 3 5.5a10.12 10.12 0 0 0 -1.63 -0.24 1.13 1.13 0 0 0 -0.64 0.15 1.49 1.49 0 0 0 -0.52 0.75A6.82 6.82 0 0 0 0 7.74 8.15 8.15 0 0 0 0 9a8 8 0 0 0 0.16 1.18 2.45 2.45 0 0 0 0.22 0.81 1 1 0 0 0 0.33 0.41 1.34 1.34 0 0 0 0.69 0.21c0.5 0 1.26 -0.06 1.67 -0.07a33.87 33.87 0 0 0 0.61 6.32c0.53 2.48 1.57 4.49 3.4 5.42a6.11 6.11 0 0 0 1.8 0.39c1.43 0.16 3.3 0.22 3.9 0.23a13.56 13.56 0 0 0 1.43 -0.07 8.62 8.62 0 0 0 1.45 -0.26 5.79 5.79 0 0 0 3.4 -2.43 9.91 9.91 0 0 0 1.35 -3.84c0.13 -0.79 0.22 -1.59 0.3 -2.38 0.18 -1.84 0.26 -3.68 0.47 -5.51 0.13 -1.2 0.23 -2.35 0.25 -3.52l0 -0.37 0.39 -0.06h0.64a0.87 0.87 0 0 1 0.4 0.07v0.39l-0.08 2.18 0 1.54c0 0.09 -0.06 0.3 0 0.35a1 1 0 0 1 -0.27 0.08c-0.38 0.08 -0.8 0.09 -1 0.14a0.34 0.34 0 1 0 0.09 0.67 11.15 11.15 0 0 0 1.25 0 1.2 1.2 0 0 0 0.7 -0.31 0.7 0.7 0 0 0 0.21 -0.41 4 4 0 0 0 0 -0.48l0.1 -1.52c0 -0.53 0.09 -1.06 0.09 -1.59a5.85 5.85 0 0 0 0.05 -0.76ZM2 10.72c-0.74 -0.06 -0.64 -0.33 -0.7 -0.75a11.37 11.37 0 0 1 -0.09 -1.31l0 -0.87a9.58 9.58 0 0 1 0 -1.19c0.12 -0.72 0.13 -0.54 0.82 -0.55l1 0a0.27 0.27 0 0 0 0.18 0l-0.15 2.48 0 2.25Zm18.5 -4.91c0 1.14 -0.17 2.26 -0.32 3.43 -0.23 1.83 -0.35 3.68 -0.56 5.51 -0.08 0.77 -0.18 1.55 -0.31 2.31a8.75 8.75 0 0 1 -1.18 3.39 4.72 4.72 0 0 1 -2.75 2 7.63 7.63 0 0 1 -1.25 0.23 11.49 11.49 0 0 1 -1.31 0.06c-0.51 0 -2 0 -3.26 -0.14a7.88 7.88 0 0 1 -2 -0.3c-1.56 -0.82 -2.38 -2.59 -2.88 -4.71a46.68 46.68 0 0 1 -0.76 -9.07L4 4.38a4.6 4.6 0 0 1 0.3 -2.15 2.1 2.1 0 0 1 1 -0.88l0.7 -0.28c0.71 -0.16 4.4 -0.24 4.45 -0.24l2.11 0 4.19 0.31c0.59 0 1.46 -0.11 2.23 0a1.42 1.42 0 0 1 1 0.45 1.56 1.56 0 0 1 0.28 0.66 8.67 8.67 0 0 1 0.15 1.29c0.1 0.78 0.11 1.53 0.09 2.27Z" fill="#020202" fill-rule="evenodd" stroke-width="1"></path>
    <path d="M17.16 4.87a2.29 2.29 0 0 0 -0.79 -0.12c-0.33 0 -0.67 0 -1 0.07l-3 0.29 -2.88 0.14c-0.64 0 -1.28 0.09 -1.93 0.16a0.34 0.34 0 0 0 0.05 0.68C8.26 6 8.89 6 9.51 6l2.89 0 3 -0.17 0.9 0a2 2 0 0 1 0.35 0.05c0 0.06 0.09 0.19 0.1 0.32a6.3 6.3 0 0 1 0 1.09c0 0.89 -0.14 1.8 -0.15 1.93a2.81 2.81 0 0 1 -0.09 0.49 0.84 0.84 0 0 1 -0.13 0.29c0 0.05 -0.11 0 -0.17 0.05a3 3 0 0 1 -0.44 0C15.43 10 15 10 14.8 10c-0.76 0 -1.52 -0.07 -2.28 -0.06 -1.13 0 -2.27 0.06 -3.41 0.14a12.72 12.72 0 0 1 -1.37 0.12 1.22 1.22 0 0 1 -0.59 -0.2A4.66 4.66 0 0 1 7 8.74l0.08 -3a0.28 0.28 0 0 0 -0.26 -0.32 0.3 0.3 0 0 0 -0.33 0.28l-0.23 3a7.54 7.54 0 0 0 0.1 1.36 1.15 1.15 0 0 0 0.23 0.52 1.77 1.77 0 0 0 0.86 0.37 9.12 9.12 0 0 0 1.74 0l2.78 0c0.93 0 1.86 0 2.78 0.12a9.76 9.76 0 0 0 1.64 0.06 1.45 1.45 0 0 0 1 -0.46 2 2 0 0 0 0.31 -0.58 3.42 3.42 0 0 0 0.17 -0.82 14.83 14.83 0 0 0 0 -3.34 1.33 1.33 0 0 0 -0.71 -1.06Z" fill="#4C57E6" fill-rule="evenodd" stroke-width="1"></path>
  </g>
</svg>