<svg xmlns="http://www.w3.org/2000/svg" viewBox="0 0 24 24" id="Equipment-Cement-Cart--Streamline-Freehand">
  <desc>
    Equipment Cement Cart Streamline Icon: https://streamlinehq.com
  </desc>
  <g>
    <path d="M23.59 5.91c-0.43 -0.07 -0.83 -0.12 -1.24 -0.15l-1.85 0a5.13 5.13 0 0 0 -1.1 0.11 1.82 1.82 0 0 0 -0.84 0.43 2.25 2.25 0 0 0 -0.45 0.66 5.6 5.6 0 0 0 -0.31 0.93l-0.52 2.53a4.1 4.1 0 0 0 -0.94 -0.14c-0.5 0 -1 0 -1.48 0.06l-4.33 0.18c-1.6 0.09 -2.84 0.13 -4 0.15 -1.84 0 -3.47 0 -6 0.07a0.46 0.46 0 0 0 -0.33 0.15 0.51 0.51 0 0 0 -0.1 0.34 19.33 19.33 0 0 0 0.73 2.86c0.45 1.37 0.72 2 1.21 3.36 0.29 0.78 0.77 0.27 0.66 -0.09 -0.42 -1.32 -0.77 -2.17 -1.16 -3.49a19 19 0 0 1 -0.54 -2.3c2.26 0 3.8 0.12 5.51 0.13 1.17 0 2.41 0 4 -0.08l4.33 -0.18c0.43 0 0.93 -0.07 1.41 -0.07l0.49 0 -0.11 0.24 -1.13 2.5a15.12 15.12 0 0 0 -0.5 1.68c-0.17 0.56 -0.32 1.13 -0.44 1.69a9.94 9.94 0 0 1 -0.27 1.27 1.49 1.49 0 0 1 -0.34 0.63 5.09 5.09 0 0 1 -2.19 0.48c-1 0.1 -1.76 0.15 -2.53 0.16 -0.56 0 -0.6 0.65 0 0.73a31.22 31.22 0 0 0 3.25 -0.17 7 7 0 0 0 1.72 -0.38c0.09 0.23 0.2 0.48 0.34 0.76s0.18 0.32 0.28 0.48 0.22 0.3 0.33 0.45c0.3 0.36 0.61 0.68 0.91 1a0.35 0.35 0 0 0 0.48 0.09 0.34 0.34 0 0 0 0.08 -0.48c-0.19 -0.37 -0.36 -0.78 -0.56 -1.19 -0.09 -0.16 -0.18 -0.33 -0.28 -0.48s-0.22 -0.32 -0.33 -0.46 -0.45 -0.48 -0.65 -0.67a2.69 2.69 0 0 0 0.33 -0.63 10.53 10.53 0 0 0 0.34 -1.37c0.13 -0.53 0.28 -1.06 0.46 -1.59s0.37 -1.05 0.59 -1.54l1.21 -2.5a3.52 3.52 0 0 0 0.2 -1 0.82 0.82 0 0 0 -0.08 -0.29l1 -2.61a6.72 6.72 0 0 1 0.31 -0.75 1.1 1.1 0 0 1 0.2 -0.32 1 1 0 0 1 0.48 -0.21 7.27 7.27 0 0 1 0.75 -0.12 17.13 17.13 0 0 1 1.77 -0.18 9.13 9.13 0 0 1 1.17 0 0.35 0.35 0 0 0 0.38 -0.3 0.35 0.35 0 0 0 -0.32 -0.38Z" fill="#020202" fill-rule="evenodd" stroke-width="1"></path>
    <path d="M8.5 19.71c-0.19 -0.8 -1.71 -3.79 -4.92 -2.31A3.87 3.87 0 0 0 2 18.86a3.58 3.58 0 0 0 -0.12 3.44A3.21 3.21 0 0 0 5 23.94a4.69 4.69 0 0 0 1.14 -0.21 3.67 3.67 0 0 0 1.08 -0.55 3.44 3.44 0 0 0 1.28 -3.47Zm-2 2.57a2.78 2.78 0 0 1 -0.76 0.36 3.6 3.6 0 0 1 -0.87 0.15 2.14 2.14 0 0 1 -2.09 -1 2.65 2.65 0 0 1 -0.05 -2.5 2.74 2.74 0 0 1 1.17 -1.21c2.43 -1.42 5.31 2.3 2.63 4.2Z" fill="#020202" fill-rule="evenodd" stroke-width="1"></path>
    <path d="M0.65 8.7a0.31 0.31 0 0 0 0.25 -0.35 1.16 1.16 0 0 1 0.4 -1 2.05 2.05 0 0 1 1.15 -0.43c0.15 0 0.74 0.13 1 0.1a0.53 0.53 0 0 0 0.35 -0.2A1.44 1.44 0 0 0 4.08 6c0.06 -0.46 0 -1 0 -1.38a4.71 4.71 0 0 1 0.74 -1.91A3.53 3.53 0 0 1 6.28 1.4a2 2 0 0 1 1.1 -0.18 2.54 2.54 0 0 1 1.12 0.35 4.17 4.17 0 0 1 0.9 0.7 3.76 3.76 0 0 1 0.67 0.91c0.11 0.23 0.2 0.62 0.33 0.92a1.66 1.66 0 0 0 0.37 0.53 1.64 1.64 0 0 0 0.88 0.36 12.52 12.52 0 0 1 1.52 0 2 2 0 0 1 1.16 1 3.73 3.73 0 0 1 0.53 1.62 0.34 0.34 0 1 0 0.68 -0.05 4.59 4.59 0 0 0 -0.76 -2.31 2.66 2.66 0 0 0 -1.36 -1.08 16.09 16.09 0 0 0 -1.64 -0.15 0.6 0.6 0 0 1 -0.35 -0.16 0.93 0.93 0 0 1 -0.15 -0.3c-0.1 -0.31 -0.17 -0.65 -0.27 -0.87a4.33 4.33 0 0 0 -0.81 -1.22A5.45 5.45 0 0 0 9.09 0.6a3.66 3.66 0 0 0 -1.6 -0.53 3.22 3.22 0 0 0 -1.71 0.3 4.63 4.63 0 0 0 -1.89 1.75 5.45 5.45 0 0 0 -0.75 2.4 11.89 11.89 0 0 0 0.07 1.25c0 0.92 -0.15 0.26 -0.84 0.35a2.78 2.78 0 0 0 -1.52 0.7A1.74 1.74 0 0 0 0.3 8.45a0.32 0.32 0 0 0 0.35 0.25Z" fill="#4C57E6" fill-rule="evenodd" stroke-width="1"></path>
  </g>
</svg>