<svg xmlns="http://www.w3.org/2000/svg" viewBox="0 0 24 24" id="Escalator-Descend-Person-1--Streamline-Freehand">
  <desc>
    Escalator Descend Person 1 Streamline Icon: https://streamlinehq.com
  </desc>
  <g>
    <path d="M24 17.23a2.71 2.71 0 0 0 -0.46 -1.18 1.22 1.22 0 0 0 -0.51 -0.42 4.18 4.18 0 0 0 -1.06 -0.23 8.58 8.58 0 0 0 -1.22 -0.09l-1.84 0a1.08 1.08 0 0 1 -0.27 -0.05l0.17 -2.26 0 -0.18a0.22 0.22 0 0 0 0.16 0l1.18 -0.23 0.73 -0.24 0.52 -0.31a1.13 1.13 0 0 0 0.5 -1.08 1.48 1.48 0 0 0 -0.5 -0.87c-0.24 -0.21 -0.53 -0.41 -0.74 -0.61a12.89 12.89 0 0 1 -1.16 -1.06c-0.23 -0.23 -0.43 -0.46 -0.64 -0.7l0 -0.41A3.47 3.47 0 0 0 20.32 7a2.49 2.49 0 0 0 1.41 -2 4.33 4.33 0 0 0 -1 -3.09 2.84 2.84 0 0 0 -1.58 -1 1.67 1.67 0 0 0 -1.3 0.26 0.3 0.3 0 0 0 0.32 0.51 1.09 1.09 0 0 1 1 0 2.15 2.15 0 0 1 0.86 0.78 3.77 3.77 0 0 1 0.63 2 1.5 1.5 0 0 1 -0.87 1.46 2.52 2.52 0 0 1 -3.07 -0.85 2.3 2.3 0 0 1 -0.47 -1.54 1.48 1.48 0 0 1 0.85 -1.25 0.34 0.34 0 0 0 -0.28 -0.62 2.24 2.24 0 0 0 -1.39 1.76 3.3 3.3 0 0 0 0.49 2.19 3.61 3.61 0 0 0 1.89 1.52l0.3 0.07 -0.11 0.72c-0.52 0.38 -1.06 0.7 -1.59 1.06l-0.83 0.59c-0.27 0.2 -0.53 0.41 -0.82 0.6s-0.38 0.23 -0.58 0.34c-0.19 -0.21 -0.36 -0.43 -0.55 -0.63 -1 -1 -2 -2 -3 -2.94 -0.84 -0.76 -1.93 -2.09 -2.76 -2.83a2.82 2.82 0 0 0 -1.08 -0.66 8 8 0 0 0 -1.33 -0.11l-2.91 0a6.54 6.54 0 0 0 -1.45 0.09 1.71 1.71 0 0 0 -0.71 0.36 1.34 1.34 0 0 0 -0.39 0.87 10.89 10.89 0 0 0 0 1.43A18.63 18.63 0 0 0 0 8.2a3.54 3.54 0 0 0 0.54 1.48 1 1 0 0 0 0.74 0.43 5.71 5.71 0 0 0 1.34 0A10.54 10.54 0 0 1 3.88 10a2.2 2.2 0 0 1 0.73 0.16 2.36 2.36 0 0 1 0.7 0.49 12.89 12.89 0 0 1 1 1.08c0.74 0.86 1.31 1.62 1.94 2.37 0.91 1.06 0.16 0.14 1.62 1.9 0.91 1.14 1.69 2.35 2.89 3.75l2.13 2.15a7.47 7.47 0 0 0 0.76 0.73 2.07 2.07 0 0 0 0.7 0.38 3.79 3.79 0 0 0 1 0.16l1.35 0 2.58 0a5.92 5.92 0 0 0 0.92 -0.08 2.34 2.34 0 0 0 0.69 -0.23 2.06 2.06 0 0 0 0.87 -1.17 9.48 9.48 0 0 0 0.24 -2.84 9.85 9.85 0 0 0 0 -1.62Zm-4.9 -8.11c0.26 0.38 0.54 0.75 0.83 1.1s0.48 0.43 0.71 0.64l0.14 0.15 0.07 0.07c0.05 0 0 0.1 -0.08 0.16l-0.29 0.23 -0.57 0.29 -1 0.37c0 -0.6 0.09 -1.19 0.09 -1.78l0 -1.38ZM16 10.65a6.38 6.38 0 0 0 0.71 -0.43 7.91 7.91 0 0 0 0.66 -0.52c0.2 -0.2 0.38 -0.41 0.57 -0.62l-0.06 0.56c0 0.54 -0.06 1.09 -0.07 1.63s0 1.09 0 1.64l0.06 1.9c-0.21 -0.22 -0.42 -0.44 -0.63 -0.68 -0.62 -0.72 -1.19 -1.5 -1.69 -2.12 -0.25 -0.31 -0.52 -0.58 -0.77 -0.88a7.81 7.81 0 0 0 1.22 -0.48ZM22.88 21a1 1 0 0 1 -0.88 1.08 5.39 5.39 0 0 1 -0.79 0.07l-2.55 0.06c-0.38 0 -0.85 0.05 -1.3 0a3 3 0 0 1 -0.75 -0.1 1.63 1.63 0 0 1 -0.45 -0.24 6.59 6.59 0 0 1 -0.67 -0.63l-2.14 -2.04 -4.61 -5.54c-0.62 -0.76 -1.18 -1.54 -1.91 -2.42a14.91 14.91 0 0 0 -1 -1.15 3.38 3.38 0 0 0 -0.92 -0.67 2.83 2.83 0 0 0 -1 -0.22 11.34 11.34 0 0 0 -1.34 0.07c-0.21 0 -0.54 0.06 -0.87 0.06s-0.38 0 -0.45 -0.09a2.6 2.6 0 0 1 -0.33 -1.13 16.69 16.69 0 0 1 0 -2l0 -1.16c0 -0.16 0 -0.32 0.08 -0.39a0.88 0.88 0 0 1 0.46 -0.17l1.09 0 2.46 0a10.38 10.38 0 0 1 1.53 0.12 3 3 0 0 1 0.9 0.75c0.79 0.74 1.69 1.85 2.4 2.52 1 1 2 1.91 3 2.91 0.63 0.66 1.24 1.33 1.82 2.05s1.09 1.41 1.72 2.14a10.19 10.19 0 0 0 1.36 1.35 1.28 1.28 0 0 0 0.66 0.22c0.76 0.08 2.4 -0.12 3.37 0 0.19 0 0.42 0 0.62 0.09a0.42 0.42 0 0 1 0.26 0.12 1.57 1.57 0 0 1 0.27 0.71 8.78 8.78 0 0 1 0 1.44 12.47 12.47 0 0 1 -0.04 2.19Z" fill="#020202" fill-rule="evenodd" stroke-width="1"></path>
    <path d="M9.13 18.2a0.34 0.34 0 0 0 -0.36 0.32c-0.07 0.54 -0.08 1.07 -0.14 1.61a8.42 8.42 0 0 1 -0.14 1l0 0.12c-0.66 -0.67 -1.29 -1.38 -1.93 -2.08 -0.5 -0.53 -1 -1.07 -1.51 -1.59 -0.88 -0.86 -1.83 -1.64 -2.78 -2.42a0.29 0.29 0 0 0 -0.42 0 0.28 0.28 0 0 0 0 0.42c0.7 0.8 1.36 1.63 2.07 2.44 0.29 0.35 0.61 0.68 0.93 1l1 1c0.67 0.61 1.36 1.19 2.07 1.75a1 1 0 0 0 -0.28 0c-0.39 0.06 -0.79 0.13 -1.2 0.22s-0.78 0.18 -1.17 0.29a0.31 0.31 0 0 0 -0.24 0.35 0.31 0.31 0 0 0 0.36 0.25c0.3 0 0.61 -0.05 0.92 -0.06l1.38 0a6.75 6.75 0 0 0 0.81 0 1.26 1.26 0 0 0 0.59 -0.22 1.41 1.41 0 0 0 0.4 -0.6 3.16 3.16 0 0 0 0.14 -0.72 8.23 8.23 0 0 0 0 -0.86c0 -0.62 -0.13 -1.24 -0.14 -1.86a0.35 0.35 0 0 0 -0.36 -0.36Z" fill="#4C57E6" fill-rule="evenodd" stroke-width="1"></path>
  </g>
</svg>