<svg xmlns="http://www.w3.org/2000/svg" viewBox="0 0 24 24" id="Exotic-Food-Kebab--Streamline-Freehand">
  <desc>
    Exotic Food Kebab Streamline Icon: https://streamlinehq.com
  </desc>
  <g>
    <path d="M17 2.8s-0.07 0 0 0Z" fill="#020202" fill-rule="evenodd" stroke-width="1"></path>
    <path d="M9.22 7.27a1.77 1.77 0 0 1 0.45 0c0.08 -0.14 0.29 0.25 0.38 0.34a2.43 2.43 0 0 0 0.56 0.4 1.91 1.91 0 0 0 0.73 0.17 15.23 15.23 0 0 0 1.88 -0.28h0.39a0.34 0.34 0 0 0 0.4 -0.27 0.34 0.34 0 0 0 -0.28 -0.4 2.33 2.33 0 0 0 -0.53 -0.07 15.11 15.11 0 0 1 -1.78 0 0.68 0.68 0 0 1 -0.3 -0.12 1.21 1.21 0 0 1 -0.29 -0.27 4.76 4.76 0 0 0 -0.45 -0.45 1.06 1.06 0 0 0 -0.48 -0.21 2 2 0 0 0 -0.72 0 11.75 11.75 0 0 0 -1.26 0.39l-1.68 0.57c-0.54 0.25 -0.67 0.52 -0.11 0.83l2.07 -0.36c0.3 -0.07 0.67 -0.19 1.02 -0.27Z" fill="#4C57E6" fill-rule="evenodd" stroke-width="1"></path>
    <path d="M14.22 16.17c-0.1 0 -0.12 -0.14 -0.17 -0.22a1.64 1.64 0 0 0 -0.4 -0.43 1 1 0 0 0 -0.45 -0.2 2.69 2.69 0 0 0 -0.8 0c-0.51 0.08 -1 0.27 -1.51 0.38a0.33 0.33 0 0 0 -0.3 0.38 0.34 0.34 0 0 0 0.38 0.3c0.41 0 0.86 -0.07 1.3 -0.08a2.26 2.26 0 0 1 0.69 0.1c0.07 0 0.07 0.1 0.1 0.16a3.12 3.12 0 0 0 0.32 0.4 1.16 1.16 0 0 0 0.39 0.26 3 3 0 0 0 0.84 0.14c0.21 0 0.42 0 0.63 -0.05 0.43 -0.31 0.32 -0.61 0.09 -0.85l-0.4 -0.06a2.29 2.29 0 0 1 -0.71 -0.23Z" fill="#4C57E6" fill-rule="evenodd" stroke-width="1"></path>
    <path d="M19.48 7.52a2.55 2.55 0 0 0 -0.37 -0.78 4.53 4.53 0 0 0 -0.81 -0.89 4.45 4.45 0 0 0 -0.48 -0.38 0.33 0.33 0 0 0 0.18 -0.14l0.32 -0.59 0.23 -0.52a0.73 0.73 0 0 0 -0.14 -0.75 1.61 1.61 0 0 0 -0.68 -0.36l-0.79 -0.36a0.8 0.8 0 0 1 0 -0.23 1.51 1.51 0 0 0 -0.14 -0.44 0.83 0.83 0 0 0 -0.36 -0.38 0.62 0.62 0 0 0 -0.29 -0.1 4.53 4.53 0 0 0 -0.47 0l-0.46 0.08 -0.3 0.07A2.94 2.94 0 0 0 12.83 0.11a3.64 3.64 0 0 0 -3 0.53 2.85 2.85 0 0 0 -0.81 1.18l-0.47 0.11a9.79 9.79 0 0 0 -1.23 0.24 2.48 2.48 0 0 0 -0.86 0.43 1.57 1.57 0 0 0 -0.61 1.73 1.93 1.93 0 0 0 0.15 0.4c0.09 0.2 0.21 0.38 0.31 0.57L6 5.55l-0.74 0.64a3.41 3.41 0 0 0 -0.67 0.81c-0.32 0.69 0 1.18 0.21 1.87l0.31 1.51c0.12 0.68 0.25 1.35 0.39 2s0.31 1.33 0.49 2l0.75 2.94a7.69 7.69 0 0 0 0.28 0.72c0.15 0.33 0.32 0.66 0.47 1a8 8 0 0 0 0.61 1.11l-0.32 0c-0.87 0.09 -1.74 0.23 -2.63 0.3a0.3 0.3 0 0 0 0 0.6l2.66 0 1.1 0 0.83 0a4.21 4.21 0 0 0 0.55 0.09c0.26 0 0.53 0 0.8 0.06 0 0.11 0 0.22 -0.06 0.33a3.69 3.69 0 0 0 0 0.47 3.59 3.59 0 0 0 0 0.46c0.07 0.37 0.17 0.71 0.26 1.07a0.35 0.35 0 0 0 0.36 0.33 0.34 0.34 0 0 0 0.32 -0.36c0.05 -0.37 0.12 -0.72 0.15 -1.09l0 -0.47a3.8 3.8 0 0 0 -0.05 -0.46c0 -0.09 -0.06 -0.18 -0.08 -0.27h0.2l0.37 -0.05h0.77c1.51 0 3 -0.06 4.53 -0.2a0.35 0.35 0 0 0 0.33 -0.36 0.34 0.34 0 0 0 -0.36 -0.32c-0.9 0 -1.8 -0.05 -2.69 -0.1l0.15 -0.12a2.44 2.44 0 0 0 0.42 -0.64c0.18 -0.4 0.26 -0.87 0.43 -1.27a17.59 17.59 0 0 0 0.69 -1.83c0.3 -0.9 0.55 -1.81 0.85 -2.73s0.83 -2 1.2 -3a8.54 8.54 0 0 0 0.4 -1.42c0.05 -0.3 0.14 -0.64 0.17 -1a2.25 2.25 0 0 0 0.03 -0.65Zm-4.72 -3.75a4.87 4.87 0 0 0 0.24 -0.89 1.86 1.86 0 0 0 0 -0.41h0.21l0.4 0 0.16 0.05 0 0.12a1.85 1.85 0 0 0 0.09 0.54 1.1 1.1 0 0 0 0.33 0.45 2.09 2.09 0 0 0 0.51 0.28 4.88 4.88 0 0 0 0.7 0.19 0.67 0.67 0 0 0 0.2 0l-0.07 0.32 -0.15 0.58a0.32 0.32 0 0 0 0 0.17c-0.17 -0.11 -0.34 -0.22 -0.51 -0.31a9.23 9.23 0 0 0 -1 -0.5c-0.41 -0.17 -0.81 -0.32 -1.19 -0.44a0.36 0.36 0 0 0 0.08 -0.15Zm-7.58 -0.24a4 4 0 0 1 0.58 -0.32l1.08 -0.52 0.06 0a1.92 1.92 0 0 0 0.44 1.19l-0.27 0.07c-0.34 0.12 -0.68 0.24 -1 0.39a8.23 8.23 0 0 0 -1 0.48L7 4.86c0 -0.11 -0.07 -0.21 -0.1 -0.32a2.58 2.58 0 0 1 -0.06 -0.37 0.68 0.68 0 0 1 0.34 -0.64Zm11.51 4.69a8.24 8.24 0 0 1 -0.18 0.89c-0.26 1.22 -1.23 3.05 -1.67 4.31 0 0.05 -1.06 3.26 -1.61 4.43 -0.16 0.34 -0.25 0.74 -0.4 1.11a1.19 1.19 0 0 1 -0.27 0.46 2.26 2.26 0 0 1 -1 0.56 6.39 6.39 0 0 1 -1.16 0.19l-0.71 0 -1.29 0a3 3 0 0 1 -0.91 -0.21 1.32 1.32 0 0 1 -0.4 -0.38C9 19.43 8.4 18.26 7.82 17c-0.07 -0.24 -1.3 -4.75 -1.31 -4.8 -0.16 -0.65 -0.31 -1.3 -0.44 -2l-0.38 -1.56a1.68 1.68 0 0 1 0.16 -1.85l0.66 -0.61 1 -0.73A8.34 8.34 0 0 1 8.36 5a8.62 8.62 0 0 1 1 -0.39 8.72 8.72 0 0 1 1.85 -0.35 6.68 6.68 0 0 1 1.87 0 0.31 0.31 0 0 0 0.14 -0.6 8.24 8.24 0 0 0 -2.06 -0.09c-0.34 0 -0.67 0.06 -1 0.1a1.13 1.13 0 0 1 -0.38 -1 1.69 1.69 0 0 1 0.77 -1.13 2.73 2.73 0 0 1 2.06 -0.32 2 2 0 0 1 1.63 1.18 1 1 0 0 1 0 0.52 3.31 3.31 0 0 1 -0.14 0.64 0.33 0.33 0 0 0 0 0.24 0.33 0.33 0 0 0 -0.13 0.65c0.37 0.12 0.83 0.29 1.28 0.48a11.23 11.23 0 0 1 1.2 0.59c0.28 0.17 0.56 0.34 0.82 0.53a4.54 4.54 0 0 1 0.48 0.39 4.7 4.7 0 0 1 0.57 0.62 2.12 2.12 0 0 1 0.34 0.69 1.28 1.28 0 0 1 0.03 0.47Z" fill="#020202" fill-rule="evenodd" stroke-width="1"></path>
    <path d="M10.56 18.51a5.18 5.18 0 0 1 1.3 -0.09 0.34 0.34 0 0 0 0.42 -0.24 0.34 0.34 0 0 0 -0.24 -0.42 4.27 4.27 0 0 0 -1.69 -0.36 4 4 0 0 0 -1 0.1 4.45 4.45 0 0 0 -0.65 0.19c-0.26 0.31 0 0.66 0.38 0.92a2.73 2.73 0 0 0 0.57 0c0.35 -0.02 0.61 -0.07 0.91 -0.1Z" fill="#4C57E6" fill-rule="evenodd" stroke-width="1"></path>
    <path d="M8.45 13.92h0.64a3.35 3.35 0 0 0 0.55 -0.11 1.37 1.37 0 0 0 0.48 -0.31c0.16 -0.14 0.25 -0.36 0.43 -0.47a1.76 1.76 0 0 1 0.2 -0.09l0.49 -0.1c0.29 -0.06 0.59 -0.13 0.89 -0.18a3.26 3.26 0 0 1 0.54 0 0.34 0.34 0 1 0 0.1 -0.68 3.08 3.08 0 0 0 -0.68 -0.07l-0.94 0 -0.6 0a1.63 1.63 0 0 0 -0.49 0.14 1.13 1.13 0 0 0 -0.31 0.19c-0.18 0.14 -0.27 0.39 -0.49 0.46l-0.94 0.16a6.12 6.12 0 0 1 -1 0.2c-0.5 0.2 -0.15 0.57 0.27 0.77 0.04 0 -0.17 0.1 0.86 0.09Z" fill="#4C57E6" fill-rule="evenodd" stroke-width="1"></path>
    <path d="m14.45 10.29 -0.35 -0.06a0.4 0.4 0 0 1 -0.2 -0.09c-0.15 -0.11 -0.26 -0.28 -0.41 -0.4a1.22 1.22 0 0 0 -0.43 -0.2 3.55 3.55 0 0 0 -1.22 0c-0.54 0.07 -1.09 0.24 -1.58 0.35l-1.42 0.34a0.3 0.3 0 0 0 0.16 0.58l1.38 -0.11c0.48 0 1 -0.1 1.54 -0.1a2.74 2.74 0 0 1 0.87 0.09l0.39 0.39a1.67 1.67 0 0 0 0.51 0.27 2.91 2.91 0 0 0 0.72 0.1 8.67 8.67 0 0 0 0.88 -0.06c0.65 -0.06 1 -0.21 1.57 -0.31l0.36 0c0.43 -0.09 0.7 -0.58 0.28 -0.72l-0.65 -0.05Z" fill="#4C57E6" fill-rule="evenodd" stroke-width="1"></path>
  </g>
</svg>