<svg xmlns="http://www.w3.org/2000/svg" viewBox="0 0 24 24" id="Exotic-Food-Samosa--Streamline-Freehand">
  <desc>
    Exotic Food Samosa Streamline Icon: https://streamlinehq.com
  </desc>
  <g>
    <path d="M19.18 6.1a10.43 10.43 0 0 1 0.35 1.16c0.06 0.25 0.1 0.49 0.15 0.74a0.66 0.66 0 0 0 0 -0.14 8.77 8.77 0 0 0 0.07 -1.15c0 -1 -0.1 -1.93 -0.12 -2.85a7.87 7.87 0 0 0 -0.14 -2c-0.08 -0.32 -0.16 -0.62 -0.42 -0.7a3.21 3.21 0 0 0 -2 0.11 8.18 8.18 0 0 0 -0.82 0.32 26.39 26.39 0 0 1 1.93 2.46 12.36 12.36 0 0 1 1 2.05Z" fill="none" stroke-width="1"></path>
    <path d="M5.24 10.59a3.78 3.78 0 0 0 1.08 0.26c0.54 0.06 1.08 0.13 1.62 0.17a6.82 6.82 0 0 0 1 0l1.2 -0.16a10.18 10.18 0 0 0 -0.31 -1.68 11.46 11.46 0 0 0 -0.58 -1.58 11.86 11.86 0 0 0 -0.76 -1.51A9.33 9.33 0 0 0 7.8 4.9a1.75 1.75 0 0 0 -0.36 -0.36 0.29 0.29 0 0 1 0 0.16l-0.47 0.74 -0.77 1.1c-0.36 0.53 -0.82 1 -1.19 1.6a3.45 3.45 0 0 0 -0.49 1.07 2.35 2.35 0 0 0 -0.09 0.5 0.54 0.54 0 0 0 0.05 0.29 1.64 1.64 0 0 0 0.76 0.59Z" fill="none" stroke-width="1"></path>
    <path d="M19.32 19.47a18.88 18.88 0 0 1 -3.54 0.13 9.63 9.63 0 0 1 -3 -0.59 3.07 3.07 0 0 1 -0.51 -0.28c0.05 0.25 0.1 0.5 0.17 0.73a7.7 7.7 0 0 0 0.69 1.69 3.1 3.1 0 0 0 0.71 0.83 3.35 3.35 0 0 0 1 0.44 6.42 6.42 0 0 0 1.7 0.34 9.09 9.09 0 0 0 2.27 -0.12 6.4 6.4 0 0 0 2.1 -0.75 4.65 4.65 0 0 0 1.41 -1.12 4.21 4.21 0 0 0 0.77 -1.62c0.05 -0.2 0.12 -0.51 0.18 -0.83 0 -0.16 0.06 -0.32 0.08 -0.48a3.51 3.51 0 0 1 -0.63 0.45 10 10 0 0 1 -3.4 1.18Z" fill="none" stroke-width="1"></path>
    <path d="M23.82 17.17a1.6 1.6 0 0 0 -0.18 -1.48 1.74 1.74 0 0 0 -1.12 -0.82 0.36 0.36 0 1 0 -0.15 0.7 1 1 0 0 1 0.61 0.52 0.9 0.9 0 0 1 0.09 0.75 0.89 0.89 0 0 1 -0.29 0.36 2.6 2.6 0 0 1 -0.48 0.31 9.4 9.4 0 0 1 -3.12 0.91 18.53 18.53 0 0 1 -3.33 0 9.93 9.93 0 0 1 -2.24 -0.42c-0.41 -0.14 -0.8 -0.27 -0.9 -0.55a0.77 0.77 0 0 1 0.26 -0.85 5.49 5.49 0 0 1 1.21 -0.84 8 8 0 0 1 2.69 -0.88 10.51 10.51 0 0 1 2.9 -0.05c0.22 0 0.66 0.07 1.05 0.16a1.29 1.29 0 0 1 0.52 0.19 0.33 0.33 0 0 0 0.45 0 0.32 0.32 0 0 0 0 -0.45 1.66 1.66 0 0 0 -0.61 -0.34c-0.44 -0.14 -1 -0.23 -1.29 -0.29a11.52 11.52 0 0 0 -3.14 -0.1 9 9 0 0 0 -3.09 0.82 5.31 5.31 0 0 0 -1.8 1.28c-0.24 0.31 -0.56 0.63 -0.3 2.75 0 0.28 0.08 0.56 0.14 0.82a9.09 9.09 0 0 0 0.61 1.94 4 4 0 0 0 0.87 1.18 4.7 4.7 0 0 0 1.59 0.85 8 8 0 0 0 1.69 0.35 9.69 9.69 0 0 0 2.54 -0.16 7.44 7.44 0 0 0 2.43 -1 5.6 5.6 0 0 0 1.6 -1.47 5.18 5.18 0 0 0 0.82 -2c0 -0.22 0.1 -0.56 0.14 -0.9a7.72 7.72 0 0 0 0.06 -0.92 0.34 0.34 0 0 0 -0.23 -0.37Zm-0.56 1.15c-0.06 0.32 -0.13 0.63 -0.18 0.83a4.21 4.21 0 0 1 -0.77 1.62 4.65 4.65 0 0 1 -1.41 1.12 6.4 6.4 0 0 1 -2.1 0.75 9.09 9.09 0 0 1 -2.27 0.12 6.42 6.42 0 0 1 -1.7 -0.34 3.35 3.35 0 0 1 -1 -0.44 3.1 3.1 0 0 1 -0.71 -0.83 7.7 7.7 0 0 1 -0.69 -1.69c-0.07 -0.23 -0.12 -0.48 -0.17 -0.73a3.07 3.07 0 0 0 0.51 0.28 9.63 9.63 0 0 0 3 0.59 18.88 18.88 0 0 0 3.54 -0.13 10 10 0 0 0 3.39 -1.18 3.51 3.51 0 0 0 0.63 -0.45c-0.01 0.16 -0.04 0.32 -0.07 0.48Z" fill="#020202" stroke-width="1"></path>
    <path d="M3.49 9.79a1.38 1.38 0 0 0 0.16 0.71 2.53 2.53 0 0 0 0.89 0.89 4.56 4.56 0 0 0 1.63 0.55c0.56 0.09 1.12 0.19 1.68 0.24A6.74 6.74 0 0 0 9 12.2l1.82 -0.2a9.72 9.72 0 0 0 1.93 -0.15 2.79 2.79 0 0 0 1.34 -0.74 2.25 2.25 0 0 0 0.58 -1.11 3.63 3.63 0 0 0 -0.06 -1.6 7.34 7.34 0 0 0 -0.85 -2.08c-0.53 -0.89 -1.2 -1.7 -1.78 -2.59 -0.3 -0.46 -0.57 -1 -0.93 -1.51a2.85 2.85 0 0 0 -0.64 -0.61 1.76 1.76 0 0 0 -1.76 -0.2 3 3 0 0 0 -1.46 1.97 0.37 0.37 0 0 0 0.25 0.45 0.36 0.36 0 0 0 0.44 -0.25 2.43 2.43 0 0 1 0.85 -1.26 1 1 0 0 1 1.19 0 2.16 2.16 0 0 1 0.54 0.62c0.26 0.43 0.47 0.91 0.71 1.3 0.53 0.9 1.15 1.73 1.64 2.62a6.53 6.53 0 0 1 0.66 1.78 2.91 2.91 0 0 1 0.06 0.92 1.13 1.13 0 0 1 -0.31 0.65 1.58 1.58 0 0 1 -0.76 0.39 6.72 6.72 0 0 1 -1.48 0.12 8.65 8.65 0 0 0 -0.21 -2.45 7 7 0 0 0 -0.69 -1.77 8.33 8.33 0 0 0 -0.7 -1 7 7 0 0 0 -1.22 -1.33 1.48 1.48 0 0 0 -0.85 -0.34 0.32 0.32 0 0 0 -0.31 0.28 0.33 0.33 0 0 0 0 0.17 0.35 0.35 0 0 0 -0.17 0.15L6.41 5 5.6 6.11c-0.46 0.61 -1 1.19 -1.48 1.85a4 4 0 0 0 -0.48 1 3.24 3.24 0 0 0 -0.15 0.83Zm1 -0.58A3.45 3.45 0 0 1 5 8.14c0.37 -0.56 0.83 -1.07 1.19 -1.6l0.74 -1.1 0.47 -0.74a0.29 0.29 0 0 0 0 -0.16 1.75 1.75 0 0 1 0.36 0.36 9.33 9.33 0 0 1 0.69 1.19 11.86 11.86 0 0 1 0.8 1.51 11.46 11.46 0 0 1 0.59 1.57 10.18 10.18 0 0 1 0.31 1.68L9 11a6.82 6.82 0 0 1 -1 0c-0.54 0 -1.08 -0.11 -1.62 -0.17a3.78 3.78 0 0 1 -1.08 -0.26 1.64 1.64 0 0 1 -0.82 -0.57 0.54 0.54 0 0 1 -0.05 -0.29 2.35 2.35 0 0 1 0.09 -0.5Z" fill="#020202" stroke-width="1"></path>
    <path d="M13.87 2.89c0.49 -0.29 1.1 -0.64 1.74 -1l2.53 4.64a8.89 8.89 0 0 1 0.46 1c0.22 0.54 0.4 1.08 0.59 1.61a0.64 0.64 0 0 0 0.08 0.14 1.5 1.5 0 0 1 -0.43 0.18 3.69 3.69 0 0 1 -0.84 0.14h-0.49a2.46 2.46 0 0 1 -0.45 -0.07 0.36 0.36 0 0 0 -0.21 0.69 2.5 2.5 0 0 0 0.59 0.13 5.19 5.19 0 0 0 1.76 -0.08 2 2 0 0 0 0.83 -0.41 1.5 1.5 0 0 0 0.41 -0.59A8 8 0 0 0 20.71 8a9.74 9.74 0 0 0 0.17 -1.72l0 -2.45a7.44 7.44 0 0 0 -0.34 -2.7A1.74 1.74 0 0 0 19.41 0.1a4.3 4.3 0 0 0 -2.7 0.32 18.73 18.73 0 0 0 -3.17 1.93 0.31 0.31 0 0 0 -0.1 0.44 0.32 0.32 0 0 0 0.43 0.1ZM17 1.3a3.21 3.21 0 0 1 2 -0.11c0.26 0.08 0.34 0.38 0.42 0.7a7.87 7.87 0 0 1 0.14 2c0 0.92 0.12 1.9 0.12 2.85a8.77 8.77 0 0 1 -0.07 1.15 0.66 0.66 0 0 1 0 0.14c-0.05 -0.25 -0.09 -0.49 -0.15 -0.74a10.43 10.43 0 0 0 -0.35 -1.16 12.36 12.36 0 0 0 -1 -2 26.39 26.39 0 0 0 -1.93 -2.46A8.18 8.18 0 0 1 17 1.3Z" fill="#020202" stroke-width="1"></path>
    <path d="M11.76 14.48a0.37 0.37 0 0 0 -0.36 -0.37c-0.39 0 -0.9 0 -1.41 -0.09s-1 -0.12 -1.37 -0.19a31.85 31.85 0 0 1 -4.73 -1.21A13.39 13.39 0 0 1 1 11.27a1.29 1.29 0 0 1 -0.6 -0.93A1.77 1.77 0 0 1 0.66 9.1 4 4 0 0 1 1.9 8a4.43 4.43 0 0 1 1.57 -0.7 0.32 0.32 0 0 0 0.28 -0.36 0.32 0.32 0 0 0 -0.35 -0.28 5.45 5.45 0 0 0 -1.89 0.65A5.22 5.22 0 0 0 -0.12 8.56a2.83 2.83 0 0 0 -0.54 1.9 2.36 2.36 0 0 0 1 1.81 12.76 12.76 0 0 0 3.16 1.49 28 28 0 0 0 5 1c0.4 0 0.93 0.08 1.47 0.1s1.05 0 1.45 0a0.37 0.37 0 0 0 0.34 -0.38Z" fill="#4C57E6" stroke-width="1"></path>
    <path d="M21.55 7.47a3 3 0 0 1 1.27 0.66 1.84 1.84 0 0 1 0.62 1.08 1.35 1.35 0 0 1 -0.18 1 3 3 0 0 1 -0.51 0.69 5.17 5.17 0 0 1 -2 1.27 0.37 0.37 0 0 0 -0.26 0.44 0.36 0.36 0 0 0 0.44 0.26 5.65 5.65 0 0 0 3 -1.56 2.55 2.55 0 0 0 0.65 -2.45 2.78 2.78 0 0 0 -0.9 -1.3 3.71 3.71 0 0 0 -2 -0.76 0.32 0.32 0 0 0 -0.37 0.26 0.32 0.32 0 0 0 0.24 0.41Z" fill="#4C57E6" stroke-width="1"></path>
  </g>
</svg>