<svg xmlns="http://www.w3.org/2000/svg" viewBox="0 0 24 24" id="Face-Id-Scan--Streamline-Freehand">
  <desc>
    Face Id Scan Streamline Icon: https://streamlinehq.com
  </desc>
  <g>
    <path d="M18 1.69a10.76 10.76 0 0 0 -3.15 -0.83 14.92 14.92 0 0 0 -3.23 -0.08 15.86 15.86 0 0 0 -6.28 1.81A10.34 10.34 0 0 0 1 7.6a11.86 11.86 0 0 0 0.52 10.72A9.27 9.27 0 0 0 11 22.75a0.34 0.34 0 0 0 0.31 -0.38 0.35 0.35 0 0 0 -0.38 -0.3 8.6 8.6 0 0 1 -8.62 -4.21c-1.93 -3.4 -1.21 -7.65 -0.23 -9.78A9.15 9.15 0 0 1 6 3.71a14.88 14.88 0 0 1 5.79 -1.62 20.56 20.56 0 0 1 2.92 0.06 9.67 9.67 0 0 1 2.76 0.7c6.07 2.89 5.6 9.72 5.22 11.62A10.53 10.53 0 0 1 19 20.69a8.25 8.25 0 0 1 -6 1.74 0.4 0.4 0 0 0 -0.44 0.35 0.39 0.39 0 0 0 0.35 0.42c5.85 0.66 9.73 -3.54 10.81 -8.52S23.08 4.21 18 1.69Z" fill="#020202" stroke-width="1"></path>
    <g>
      <path d="M6.27 9.54a4.46 4.46 0 0 1 2.36 -2.32A20.72 20.72 0 0 1 12 5.86a0.59 0.59 0 0 0 -0.13 -1A10.63 10.63 0 0 0 8 6.1a6.1 6.1 0 0 0 -2.78 3.29c-0.22 0.55 0.84 0.45 1.05 0.15Z" fill="#020202" stroke-width="1"></path>
      <path d="M17.56 11.77a2 2 0 0 0 -0.18 0.87c-0.21 1.77 -0.93 2.62 -2.55 3.61 -0.45 0.28 -0.67 0.27 -0.85 0.44s-0.32 0.53 -0.12 0.72c0.51 0.5 1.13 -0.12 1.69 -0.39A11.72 11.72 0 0 1 17 18.34c0.35 0.35 0.71 0.68 1 1.06s0.26 0.72 0.71 0.8c0.3 0.05 0.69 -0.47 0.56 -1a4.67 4.67 0 0 0 -1.77 -2.08 5.46 5.46 0 0 0 -1.2 -0.62 5.78 5.78 0 0 0 2 -3.72c0.06 -0.44 0.18 -0.78 0 -1a0.51 0.51 0 0 0 -0.74 -0.01Z" fill="#020202" stroke-width="1"></path>
      <path d="M15 12.89a0.41 0.41 0 0 0 0 -0.55 0.38 0.38 0 0 0 -0.55 0c-0.07 0.06 -0.18 0.07 -0.23 0.14a0.74 0.74 0 0 0 0.07 0.95c0.12 0.09 0.39 -0.21 0.71 -0.54Z" fill="#020202" stroke-width="1"></path>
      <path d="M14.3 6.26a11.74 11.74 0 0 0 0.9 0.76c0.84 0.64 0.93 1.66 1.7 2.4a0.69 0.69 0 0 0 1.15 -0.37A5.37 5.37 0 0 0 16 6c-0.56 -0.44 -0.65 -0.67 -1.37 -0.77 -0.32 -0.02 -0.63 0.77 -0.33 1.03Z" fill="#020202" stroke-width="1"></path>
      <path d="M5 12.07a3 3 0 0 0 0.19 1.15 6 6 0 0 0 2.13 3 3 3 0 0 0 0.61 0.32 6.23 6.23 0 0 0 -0.71 0.41 4.15 4.15 0 0 0 -0.82 0.8 4.57 4.57 0 0 0 -0.62 0.95 2.85 2.85 0 0 0 -0.45 1.31c0 0.42 0.34 0.62 0.63 0.51 0.57 -0.21 0.54 -0.71 0.87 -1.19 0.18 -0.26 0.38 -0.51 0.57 -0.75s0.41 -0.47 0.63 -0.69a7.12 7.12 0 0 1 1.39 -1.07 6.52 6.52 0 0 0 1.17 0 0.36 0.36 0 0 0 0.29 -0.39 0.34 0.34 0 0 0 -0.39 -0.29 3.53 3.53 0 0 1 -2.69 -0.56 5.14 5.14 0 0 1 -1.67 -2.68 2.86 2.86 0 0 1 -0.16 -1 0.5 0.5 0 0 0 -0.97 0.17Z" fill="#020202" stroke-width="1"></path>
      <path d="M12.06 13.45c-0.14 -0.2 -0.49 -0.19 -0.73 -0.2a2.92 2.92 0 0 1 -1.65 -0.52 0.34 0.34 0 0 0 -0.48 0 0.36 0.36 0 0 0 0 0.49 3.44 3.44 0 0 0 2 1.25 0.82 0.82 0 0 0 0.91 -0.24 0.76 0.76 0 0 0 -0.05 -0.78Z" fill="#020202" stroke-width="1"></path>
    </g>
    <path d="M22.26 10.56c-0.26 -0.2 -6.92 -0.81 -7 -0.81 -0.43 0 -0.87 0 -1.3 -0.05l0 -0.58c0 -0.19 -0.29 -6.12 -0.6 -6.64 -0.14 -0.22 -1 -0.08 -0.95 0.27s0.33 3 0.36 4.8c0 0.7 0 1.4 -0.07 2.11l-0.77 0c-1.13 0 -2.23 0 -3.34 0.15 -0.09 0 -6.61 0.75 -6.66 0.78 -0.22 0.14 -0.37 0.76 -0.16 0.9 0.68 0.46 1.25 -0.22 6.89 -0.44 1.09 0 2.18 -0.07 3.28 -0.08h0.71c0 0.43 0 0.85 -0.05 1.28 0 0.27 -0.24 4.21 -0.27 4.69 -0.08 1 -0.12 2.12 -0.26 3.16a10.1 10.1 0 0 1 -0.45 2 0.39 0.39 0 0 0 0.72 0.28 10.38 10.38 0 0 0 0.66 -2.15 67.62 67.62 0 0 0 1 -9.27h1.29c4.62 0.14 6.14 0.78 7 0.61 0.24 -0.04 0.19 -0.84 -0.03 -1.01Z" fill="#4C57E6" stroke-width="1"></path>
  </g>
</svg>