<svg xmlns="http://www.w3.org/2000/svg" viewBox="0 0 24 24" id="Face-Id-Smiley--Streamline-Freehand">
  <desc>
    Face Id Smiley Streamline Icon: https://streamlinehq.com
  </desc>
  <g>
    <path d="M19.53 14.27a7.4 7.4 0 0 0 -1 -6.42 6.71 6.71 0 0 0 -3.6 -2.45 9.88 9.88 0 0 0 -4.29 -0.4 7.44 7.44 0 0 0 -6.07 6.4 6.42 6.42 0 0 0 4.34 7.35 5.12 5.12 0 0 0 1.6 0.27 10 10 0 0 0 2.34 -0.28 0.34 0.34 0 1 0 -0.15 -0.67 8.86 8.86 0 0 1 -1.8 0.19A4.87 4.87 0 0 1 9.19 18a5.51 5.51 0 0 1 -3.47 -6.39 6.23 6.23 0 0 1 5.12 -5.26 8.7 8.7 0 0 1 3.71 0.29 5.57 5.57 0 0 1 3 1.9 6.32 6.32 0 0 1 1 5.46 4.82 4.82 0 0 1 -4.18 3.44 0.39 0.39 0 0 0 -0.34 0.43 0.38 0.38 0 0 0 0.43 0.34 5.65 5.65 0 0 0 5.07 -3.94Z" fill="#020202" fill-rule="evenodd" stroke-width="1"></path>
    <path d="M9 9.38c-0.11 0 -0.33 0 -0.61 1.06a1.53 1.53 0 0 0 0 0.3 1.75 1.75 0 0 0 0 0.32c0.27 1.18 0.56 1.1 0.66 1.09s0.34 0 0.57 -1.1a1.54 1.54 0 0 0 0 -0.3 1.09 1.09 0 0 0 0 -0.31c-0.01 -0.1 -0.3 -1.07 -0.62 -1.06Z" fill="#020202" fill-rule="evenodd" stroke-width="1"></path>
    <path d="M14.55 12c0.19 0 0.35 0 0.61 -1.09l0 -0.3a1.53 1.53 0 0 0 0 -0.3c0 -0.1 -0.27 -1.06 -0.59 -1.07 -0.11 0 -0.35 0 -0.65 1a1 1 0 0 0 0 0.3 1.06 1.06 0 0 0 0 0.31c0.24 1.21 0.53 1.15 0.63 1.15Z" fill="#020202" fill-rule="evenodd" stroke-width="1"></path>
    <path d="M13.24 13.37a5.55 5.55 0 0 1 -1.07 0.75 1.74 1.74 0 0 1 -0.36 0.13 0.42 0.42 0 0 1 -0.33 0 1.11 1.11 0 0 1 -0.38 -0.21 6.83 6.83 0 0 0 -0.79 -0.69 0.34 0.34 0 0 0 -0.48 0 0.34 0.34 0 0 0 0 0.48c0.2 0.27 0.34 0.68 0.55 1a2.17 2.17 0 0 0 0.49 0.51 1.67 1.67 0 0 0 1.69 -0.06 4.63 4.63 0 0 0 1.27 -1.45 0.39 0.39 0 0 0 -0.06 -0.55 0.37 0.37 0 0 0 -0.53 0.09Z" fill="#020202" fill-rule="evenodd" stroke-width="1"></path>
    <path d="M3.15 4.45c0.27 0.25 0.54 0.49 0.82 0.72C5.83 6.69 5.85 6.5 6 6.33S6.38 6 5 4.38a5.26 5.26 0 0 0 -0.89 -0.81C2.9 2.74 2.54 3 2.45 3.19s0.67 1.23 0.7 1.26Z" fill="#4C57E6" fill-rule="evenodd" stroke-width="1"></path>
    <path d="M6.83 2.92a1.66 1.66 0 0 0 0.17 0.35 2.18 2.18 0 0 0 0.22 0.31c0.77 1 0.92 1 1.14 0.86s0.36 -0.3 -0.06 -1.44a1.84 1.84 0 0 0 -0.17 -0.38 1.55 1.55 0 0 0 -0.24 -0.33S7 1.3 6.66 1.55c-0.11 0.07 -0.31 0.11 0.17 1.37Z" fill="#4C57E6" fill-rule="evenodd" stroke-width="1"></path>
    <path d="M2.72 8.21a1.77 1.77 0 0 0 0.33 0.19 2.67 2.67 0 0 0 0.36 0.14c1.17 0.4 1.3 0.33 1.43 0.11S5 8.22 4 7.46a2 2 0 0 0 -0.34 -0.23 2.5 2.5 0 0 0 -0.38 -0.15S2 6.76 1.83 7.14c-0.05 0.12 -0.19 0.27 0.89 1.07Z" fill="#4C57E6" fill-rule="evenodd" stroke-width="1"></path>
    <path d="M11.36 4.21c0.23 0 0.32 0 0.59 -1.23a2.23 2.23 0 0 0 0.05 -0.36 2.29 2.29 0 0 0 0 -0.37S11.81 1 11.43 1s-0.67 1.15 -0.68 1.17a1.57 1.57 0 0 0 -0.05 0.37 1.7 1.7 0 0 0 0 0.39c0.19 1.19 0.42 1.29 0.66 1.28Z" fill="#4C57E6" fill-rule="evenodd" stroke-width="1"></path>
    <path d="M12.12 19.79c-0.23 0 -0.46 0.1 -0.63 1.27a1.7 1.7 0 0 0 0 0.39 1.18 1.18 0 0 0 0 0.37s0.35 1.18 0.71 1.18 0.56 -1.22 0.57 -1.24a2.29 2.29 0 0 0 0 -0.37 2.23 2.23 0 0 0 0 -0.36c-0.33 -1.2 -0.42 -1.23 -0.65 -1.24Z" fill="#4C57E6" fill-rule="evenodd" stroke-width="1"></path>
    <path d="M14.56 4.35c0.23 0 0.32 0 0.88 -1a2 2 0 0 0 0.13 -0.35 1.45 1.45 0 0 0 0.08 -0.36s0.12 -1.23 -0.25 -1.34 -0.92 1 -0.94 1a1.51 1.51 0 0 0 -0.14 0.35 1.69 1.69 0 0 0 -0.07 0.38c-0.12 1.11 0.08 1.27 0.31 1.32Z" fill="#4C57E6" fill-rule="evenodd" stroke-width="1"></path>
    <path d="M15.44 20.81c-0.56 -1.09 -0.65 -1.1 -0.88 -1.06s-0.43 0.21 -0.31 1.39a1.59 1.59 0 0 0 0.07 0.38 1.51 1.51 0 0 0 0.14 0.35s0.59 1.07 0.94 1 0.26 -1.32 0.25 -1.34a1.55 1.55 0 0 0 -0.08 -0.36 2.26 2.26 0 0 0 -0.13 -0.36Z" fill="#4C57E6" fill-rule="evenodd" stroke-width="1"></path>
    <path d="M9.43 19.49c-0.22 0 -0.31 0 -0.87 1.05 -0.05 0.11 -0.1 0.22 -0.14 0.33a2.33 2.33 0 0 0 -0.08 0.36s-0.11 1.24 0.25 1.34 0.93 -0.95 0.94 -1a1.17 1.17 0 0 0 0.14 -0.35 1.61 1.61 0 0 0 0.07 -0.37c0.13 -1.16 -0.08 -1.32 -0.31 -1.36Z" fill="#4C57E6" fill-rule="evenodd" stroke-width="1"></path>
    <path d="M20.62 6.63a2 2 0 0 0 0.26 -0.24 1.28 1.28 0 0 0 0.23 -0.29s0.64 -1.06 0.36 -1.31 -1.25 0.45 -1.27 0.46a1.39 1.39 0 0 0 -0.28 0.26 1.78 1.78 0 0 0 -0.23 0.31c-0.62 1 -0.51 1.24 -0.32 1.38s0.27 0.18 1.25 -0.57Z" fill="#4C57E6" fill-rule="evenodd" stroke-width="1"></path>
    <path d="M21.11 17.2a1.54 1.54 0 0 0 -0.23 -0.29 3 3 0 0 0 -0.26 -0.24c-1 -0.74 -1.07 -0.71 -1.25 -0.57s-0.3 0.37 0.32 1.38a1.47 1.47 0 0 0 0.23 0.31 1.16 1.16 0 0 0 0.28 0.26s1 0.71 1.27 0.47 -0.34 -1.3 -0.36 -1.32Z" fill="#4C57E6" fill-rule="evenodd" stroke-width="1"></path>
    <path d="M3.39 16.4a2.11 2.11 0 0 0 -0.5 0.53s-0.64 1.07 -0.36 1.32 1.25 -0.46 1.27 -0.47a1.16 1.16 0 0 0 0.28 -0.26 1.7 1.7 0 0 0 0.23 -0.3c0.62 -1 0.51 -1.25 0.32 -1.39s-0.27 -0.17 -1.24 0.57Z" fill="#4C57E6" fill-rule="evenodd" stroke-width="1"></path>
    <path d="M21.23 7.91c-1 0.62 -1 0.87 -0.92 1.09s0.16 0.27 1.37 0.05L22 9a1.66 1.66 0 0 0 0.33 -0.16s1.05 -0.66 0.92 -1 -1.25 -0.21 -1.32 -0.21a1.36 1.36 0 0 0 -0.36 0.1 1.83 1.83 0 0 0 -0.34 0.18Z" fill="#4C57E6" fill-rule="evenodd" stroke-width="1"></path>
    <path d="M22.78 14a2.07 2.07 0 0 0 -0.34 -0.15 2 2 0 0 0 -0.35 -0.09c-1.2 -0.23 -1.26 -0.15 -1.36 0s-0.1 0.47 0.91 1.09A1.42 1.42 0 0 0 22 15a1.07 1.07 0 0 0 0.36 0.1s1.21 0.18 1.34 -0.15 -0.9 -0.95 -0.92 -0.95Z" fill="#4C57E6" fill-rule="evenodd" stroke-width="1"></path>
    <path d="M3.27 13.5c-0.1 -0.2 -0.16 -0.27 -1.36 -0.05a2 2 0 0 0 -0.35 0.09 2.07 2.07 0 0 0 -0.34 0.15s-1 0.67 -0.91 1 1.32 0.16 1.34 0.15a1.07 1.07 0 0 0 0.36 -0.1 1.42 1.42 0 0 0 0.35 -0.17c1.01 -0.57 1.02 -0.86 0.91 -1.07Z" fill="#4C57E6" fill-rule="evenodd" stroke-width="1"></path>
    <path d="M22.83 10.48a1.57 1.57 0 0 0 -0.37 -0.05 1.7 1.7 0 0 0 -0.39 0c-1.18 0.17 -1.28 0.4 -1.27 0.64s0 0.32 1.23 0.59a2.23 2.23 0 0 0 0.36 0.05h0.37s1.24 -0.17 1.24 -0.55 -1.15 -0.67 -1.17 -0.68Z" fill="#4C57E6" fill-rule="evenodd" stroke-width="1"></path>
    <path d="M1.24 11.46h0.37l0.39 -0.05c1.19 -0.27 1.22 -0.36 1.23 -0.59s-0.1 -0.47 -1.27 -0.64a1.7 1.7 0 0 0 -0.39 0 1.57 1.57 0 0 0 -0.37 0.05s-1.2 0.3 -1.2 0.66 1.22 0.57 1.24 0.57Z" fill="#4C57E6" fill-rule="evenodd" stroke-width="1"></path>
    <path d="M17.37 5.61c0.22 0.08 0.31 0.09 1 -0.9a2 2 0 0 0 0.19 -0.31 2 2 0 0 0 0.14 -0.34s0.3 -1.2 0 -1.36 -1.06 0.79 -1.08 0.81a1.29 1.29 0 0 0 -0.19 0.32 1.74 1.74 0 0 0 -0.13 0.36c-0.3 1.15 -0.15 1.34 0.07 1.42Z" fill="#4C57E6" fill-rule="evenodd" stroke-width="1"></path>
    <path d="M18.73 20.05a2 2 0 0 0 -0.14 -0.34 2 2 0 0 0 -0.19 -0.31c-0.72 -1 -0.81 -1 -1 -0.9s-0.39 0.27 -0.08 1.42a1.74 1.74 0 0 0 0.13 0.36 1.5 1.5 0 0 0 0.19 0.32s0.75 1 1.08 0.81 0.01 -1.34 0.01 -1.36Z" fill="#4C57E6" fill-rule="evenodd" stroke-width="1"></path>
    <path d="M6.63 18.23c-0.22 -0.08 -0.31 -0.09 -1 0.9a3.21 3.21 0 0 0 -0.19 0.31 3.45 3.45 0 0 0 -0.14 0.34s-0.3 1.2 0 1.36 1.07 -0.79 1.08 -0.81a1.55 1.55 0 0 0 0.2 -0.32 1.69 1.69 0 0 0 0.12 -0.36c0.3 -1.15 0.15 -1.34 -0.07 -1.42Z" fill="#4C57E6" fill-rule="evenodd" stroke-width="1"></path>
  </g>
</svg>