<svg xmlns="http://www.w3.org/2000/svg" viewBox="0 0 24 24" id="Factory-Manufacturing-Process-3--Streamline-Freehand">
  <desc>
    Factory Manufacturing Process 3 Streamline Icon: https://streamlinehq.com
  </desc>
  <title>factory-manufacturing-process-3</title>
  <g>
    <path d="M7.15 17.05a0.41 0.41 0 0 0 -0.05 -0.19L6 15c0 -0.14 -0.06 -0.42 -0.09 -0.75a5.57 5.57 0 0 1 0 -0.82 0.3 0.3 0 0 0 -0.28 -0.32 0.31 0.31 0 0 0 -0.32 0.28l0 0.9c0 0.48 0.06 0.86 0.06 0.86l0 0.14 1 1.88 0 5h-0.14a18 18 0 0 1 -3.79 0.27 4.57 4.57 0 0 1 -0.46 -0.1l0 -1.24 0 -3.78 1.14 -2a0.25 0.25 0 0 0 0 -0.15c0 -0.28 0.06 -0.67 0.07 -1.05a4.24 4.24 0 0 0 -0.05 -0.74 0.34 0.34 0 0 0 -0.38 -0.29 0.34 0.34 0 0 0 -0.29 0.38 3.27 3.27 0 0 1 0 0.63c0 0.32 -0.06 0.64 -0.09 0.9l-1.27 2a0.55 0.55 0 0 0 -0.06 0.22s-0.12 2.25 -0.16 3.9A11 11 0 0 0 1 22.89a0.73 0.73 0 0 0 0.51 0.51 7.34 7.34 0 0 0 2.18 0.16 15.61 15.61 0 0 0 3.08 -0.37 0.92 0.92 0 0 0 0.67 -0.58 12.21 12.21 0 0 0 0 -1.75c-0.13 -1.62 -0.29 -3.81 -0.29 -3.81Z" fill="#020202" stroke-width="1"></path>
    <path d="M15.2 16.94a0.44 0.44 0 0 0 -0.06 -0.16L14 14.91c0 -0.14 0 -0.42 -0.08 -0.75a5.57 5.57 0 0 1 0 -0.82 0.3 0.3 0 0 0 -0.6 0l0 0.9c0 0.48 0.06 0.86 0.06 0.86a0.78 0.78 0 0 0 0.05 0.14L14.51 17c0.08 0.53 0.1 2.24 0.12 3.26l0 1.65 0 0.37a1.34 1.34 0 0 1 -0.24 0 10.58 10.58 0 0 1 -2.1 0.13 13.17 13.17 0 0 1 -2.12 -0.15 1.18 1.18 0 0 1 -0.2 -0.07 0.49 0.49 0 0 1 -0.23 -0.19 14.06 14.06 0 0 1 -0.07 -1.43l0 -2.38c0 -0.29 0.13 -1.18 0.1 -1.17l1.31 -1.75a0.33 0.33 0 0 0 0.05 -0.15c0 -0.28 0.06 -0.67 0.06 -1.05a5.5 5.5 0 0 0 0 -0.74 0.34 0.34 0 0 0 -0.67 0.09 4.34 4.34 0 0 1 0 0.63c0 0.32 -0.06 0.64 -0.09 0.9l-1.26 2a0.34 0.34 0 0 0 -0.07 0.19s-0.25 2.2 -0.29 3.86a4.59 4.59 0 0 0 0.26 2 1 1 0 0 0 0.53 0.35 11.16 11.16 0 0 0 2.66 0.27 12.6 12.6 0 0 0 2.33 -0.16 1.34 1.34 0 0 0 0.85 -0.43 3.19 3.19 0 0 0 0.22 -1.46c-0.05 -1.72 -0.46 -4.63 -0.46 -4.63Z" fill="#020202" stroke-width="1"></path>
    <path d="M10.42 17.7a1.28 1.28 0 0 1 0.47 0.1 6.13 6.13 0 0 1 0.9 0.42 2.45 2.45 0 0 0 0.56 0.18 2.18 2.18 0 0 0 1.26 -0.2 2.31 2.31 0 0 0 0.58 -0.4c0.28 -0.23 0.24 -1 -0.18 -0.81a3.32 3.32 0 0 1 -0.54 0.25 1.31 1.31 0 0 1 -0.9 0.05 7.07 7.07 0 0 1 -0.92 -0.37 2.16 2.16 0 0 0 -0.57 -0.14 2.29 2.29 0 0 0 -0.71 0c-0.37 0.22 -0.67 0.97 0.05 0.92Z" fill="#4C57E6" stroke-width="1"></path>
    <path d="M18.59 18.11a6 6 0 0 1 0.78 0.44 2.48 2.48 0 0 0 0.48 0.17 2.31 2.31 0 0 0 1.31 -0.1 3.48 3.48 0 0 0 1 -0.62c0.33 -0.35 0 -0.83 -0.34 -0.68a4 4 0 0 1 -0.73 0.29 1.61 1.61 0 0 1 -1 0 5.73 5.73 0 0 1 -0.82 -0.3 2.27 2.27 0 0 0 -0.5 -0.12 2.58 2.58 0 0 0 -0.39 0c-0.66 0.3 -0.58 0.93 -0.05 0.84a0.41 0.41 0 0 1 0.26 0.08Z" fill="#4C57E6" stroke-width="1"></path>
    <path d="M23.7 21.32c-0.16 -1.59 -0.52 -3.74 -0.52 -3.74a0.58 0.58 0 0 0 -0.05 -0.14L22 15.56c0 -0.13 -0.06 -0.42 -0.09 -0.75a5 5 0 0 1 0 -0.68 1.16 1.16 0 0 0 0.91 -0.86 1.46 1.46 0 0 0 -0.39 -1.46 1.81 1.81 0 0 0 -0.72 -0.36 4.62 4.62 0 0 0 -1 -0.11c-0.37 0 -0.89 -0.05 -1.41 0a4 4 0 0 0 -1.57 0.33 1.33 1.33 0 0 0 -0.81 1.52 1.36 1.36 0 0 0 0.94 1.05 3.35 3.35 0 0 0 0.66 0.14l0 0.3c0 0.32 -0.06 0.65 -0.09 0.9l-1.27 2a0.36 0.36 0 0 0 -0.06 0.2s-0.18 2.17 -0.25 3.77a8.28 8.28 0 0 0 0.05 1.77 0.76 0.76 0 0 0 0.53 0.51 8.57 8.57 0 0 0 2.32 0.21 14.88 14.88 0 0 0 3.32 -0.34 0.94 0.94 0 0 0 0.66 -0.5 5.63 5.63 0 0 0 -0.03 -1.88Zm-1 1.33 -0.59 0.05a18.43 18.43 0 0 1 -4.1 0.09l-0.11 0 0 -1.22c0 -1.15 -0.07 -3.15 -0.05 -3.86l1.27 -1.79a0.3 0.3 0 0 0 0.05 -0.15c0 -0.28 0.06 -0.68 0.06 -1.06v-0.3a6.11 6.11 0 0 0 1.15 -0.13 0.29 0.29 0 0 0 0.24 -0.34 0.3 0.3 0 0 0 -0.34 -0.25 5.64 5.64 0 0 1 -1.53 -0.08c-0.39 -0.08 -0.78 -0.19 -0.8 -0.54s0.26 -0.39 0.56 -0.47a10.36 10.36 0 0 1 2.22 -0.16 3.57 3.57 0 0 1 0.8 0 1 1 0 0 1 0.36 0.12 0.59 0.59 0 0 1 0.18 0.57 0.47 0.47 0 0 1 -0.43 0.4 0.34 0.34 0 0 0 -0.32 0.36l0 1c0 0.49 0.06 0.87 0.06 0.87a0.33 0.33 0 0 0 0 0.13l1.05 1.83c0.1 0.82 0.13 2 0.21 3.19a14.23 14.23 0 0 1 0.07 1.74Z" fill="#020202" stroke-width="1"></path>
    <path d="M12.59 7.59a0.33 0.33 0 0 0 -0.59 -0.3 8.83 8.83 0 0 0 -0.92 1.29 2.53 2.53 0 0 0 0.1 2.23 1.75 1.75 0 0 0 1.56 0.63 1.65 1.65 0 0 0 1.79 -1.5 3.48 3.48 0 0 0 -1.28 -2.79 0.34 0.34 0 0 0 -0.47 0.07 0.34 0.34 0 0 0 0.07 0.48 2.74 2.74 0 0 1 0.71 1.75 0.75 0.75 0 0 1 -0.86 0.85c-0.4 0 -0.64 -0.08 -0.74 -0.31a1.81 1.81 0 0 1 -0.08 -1.17c0.02 -0.14 0.56 -0.61 0.71 -1.23Z" fill="#4C57E6" stroke-width="1"></path>
    <path d="M11.13 4.51a2.09 2.09 0 0 0 0.35 0.74 1 1 0 0 0 0.64 0.24l1.25 0a0.92 0.92 0 0 0 0.82 -0.53 23.17 23.17 0 0 0 0.6 -4 0.35 0.35 0 0 0 -0.31 -0.37 0.34 0.34 0 0 0 -0.37 0.31 32 32 0 0 1 -0.7 3.45 6.32 6.32 0 0 1 -1.34 0.06c-0.05 0 -0.37 -1.46 -0.37 -1.46L11.32 0.86a0.3 0.3 0 0 0 -0.6 0.06S11 4 11.13 4.51Z" fill="#020202" stroke-width="1"></path>
    <path d="M17.91 7.78c0.51 0 1.1 0.12 1.71 0.17l0.74 0 0.74 0c0.73 0 1.35 -0.13 1.72 -0.17a0.34 0.34 0 0 0 0.35 -0.32 0.34 0.34 0 0 0 -0.33 -0.35l-1 -0.15a0.24 0.24 0 0 0 0 -0.15 30.47 30.47 0 0 0 0 -3.21 1 1 0 0 0 -0.35 -0.72A1.49 1.49 0 0 0 21 2.7h-0.4c0 -0.16 0.06 -0.34 0.08 -0.54a3.86 3.86 0 0 0 -0.06 -0.75 7.83 7.83 0 0 0 -0.3 -1.1A0.34 0.34 0 0 0 20 0a0.34 0.34 0 0 0 -0.3 0.38c0 0.31 -0.09 0.69 -0.11 1.09a4.18 4.18 0 0 0 0 0.71l0 0.53a1.67 1.67 0 0 0 -0.39 0 1 1 0 0 0 -0.56 0.3 0.74 0.74 0 0 0 -0.18 0.37 7.9 7.9 0 0 0 0 1.08c0.07 0.8 0.21 1.81 0.29 2.27a0.59 0.59 0 0 0 0.06 0.2l-1 0.21a0.3 0.3 0 0 0 -0.27 0.32 0.31 0.31 0 0 0 0.37 0.32Zm1.47 -1.16c0 -0.59 0 -1.79 0.1 -2.53l0 -0.31c0 -0.11 1.38 0 1.38 0 0.16 0.79 0.35 3 0.35 3.06h-0.11l-0.75 0a6.28 6.28 0 0 0 -0.75 0l-0.19 0a2.12 2.12 0 0 0 -0.03 -0.22Z" fill="#020202" stroke-width="1"></path>
    <path d="M6.49 6.15a3.81 3.81 0 0 0 -1.14 -0.88l-0.13 0h-0.58c0 -0.22 0.16 -1 0.23 -1.83a7.12 7.12 0 0 0 0 -0.8 4.56 4.56 0 0 0 0 -0.54C4.8 1.49 4.72 1 4.7 0.78c-0.15 -0.61 -0.58 -0.27 -0.63 0s-0.15 0.68 -0.24 1.22a4.41 4.41 0 0 0 -0.07 0.54 7.3 7.3 0 0 0 0 0.81 14.15 14.15 0 0 0 0.19 1.84h-0.49a0.58 0.58 0 0 0 -0.37 0.13c-0.32 0.28 -1.09 1 -1.72 1.7A8 8 0 0 0 0.28 8.38a0.7 0.7 0 0 0 0 0.48 3.92 3.92 0 0 0 0.37 0.65l0.83 1.28c0.06 0.08 0.14 0.25 0.22 0.35a0.53 0.53 0 0 0 0.15 0.15 0.33 0.33 0 0 0 0.47 -0.07 0.35 0.35 0 0 0 -0.07 -0.48l-0.17 -0.34 -0.7 -1.27c0 -0.05 -0.2 -0.24 -0.27 -0.37a8.53 8.53 0 0 1 1 -1c0.56 -0.52 1.2 -1.09 1.57 -1.4l1.46 0c0.06 0.05 0.13 0.13 0.2 0.18 0.28 0.23 0.63 0.55 1 0.88a14.66 14.66 0 0 1 1.11 1.24 15.3 15.3 0 0 1 -1 1.94 0.29 0.29 0 0 0 -0.07 0.42 0.29 0.29 0 0 0 0.41 0.06 15.26 15.26 0 0 0 1.27 -1.85 2.89 2.89 0 0 0 0.24 -0.53 0.54 0.54 0 0 0 0 -0.3 13.31 13.31 0 0 0 -1.81 -2.25Z" fill="#020202" stroke-width="1"></path>
  </g>
</svg>