<svg xmlns="http://www.w3.org/2000/svg" viewBox="0 0 24 24" id="Factory-Building-Handle-Claw--Streamline-Freehand">
  <desc>
    Factory Building Handle Claw Streamline Icon: https://streamlinehq.com
  </desc>
  <title>factory-building-handle-claw</title>
  <g>
    <path d="m15.41 18.57 -0.11 0 -0.3 -0.09 -0.54 -0.05c-0.33 0 -0.74 -0.08 -1.11 -0.06a1.71 1.71 0 0 0 -0.61 0.14 0.7 0.7 0 0 0 -0.31 0.36 3 3 0 0 0 -0.09 0.59A7.35 7.35 0 0 0 12.2 21a1.49 1.49 0 0 0 0.37 0.9 0.9 0.9 0 0 0 0.52 0.23A5.75 5.75 0 0 0 14 22a7.69 7.69 0 0 0 1.17 0 0.83 0.83 0 0 0 0.52 -0.31 0.94 0.94 0 0 0 0.16 -0.48 6 6 0 0 0 0 -0.66l0 -0.64s0 -1.33 -0.44 -1.34ZM14.86 21a1.27 1.27 0 0 0 -0.26 0l-0.66 0 -0.7 0.06c0 -0.37 0.06 -1.59 0 -1.69a1.27 1.27 0 0 1 0.28 -0.06l0.9 0h0.45l0.17 0a11.22 11.22 0 0 1 -0.18 1.69Z" fill="#4C57E6" stroke-width="1"></path>
    <path d="m20.46 18.11 -0.29 -0.11 -0.54 0a9.72 9.72 0 0 0 -1.11 -0.07 1.71 1.71 0 0 0 -0.61 0.15 0.66 0.66 0 0 0 -0.31 0.36 2.93 2.93 0 0 0 -0.09 0.59 7.23 7.23 0 0 0 -0.13 1.52 1.46 1.46 0 0 0 0.37 0.89 0.87 0.87 0 0 0 0.52 0.24 4.69 4.69 0 0 0 0.92 -0.08 7.51 7.51 0 0 0 1.16 -0.08 0.93 0.93 0 0 0 0.52 -0.31 1 1 0 0 0 0.16 -0.48 5.83 5.83 0 0 0 0 -0.66l0 -0.65c-0.13 -0.7 -0.03 -1.18 -0.57 -1.31Zm-0.23 1.3s-0.06 1 0 1.13l-1.07 -0.05c-0.09 0 -0.39 0.13 -0.56 0.14s-0.07 -0.32 -0.07 -0.54l0 -1.23a1.18 1.18 0 0 1 0.27 -0.06l0.9 0h0.45l0.17 0Z" fill="#4C57E6" stroke-width="1"></path>
    <path d="M23.49 15.86a0.66 0.66 0 0 0 -0.36 -0.41 1.74 1.74 0 0 0 -0.7 -0.08l-0.28 0a23.45 23.45 0 0 0 0 -3.84 10.55 10.55 0 0 0 -0.63 -2.65s-1.31 -3.8 -1.34 -3.82l0.19 -0.15a2.74 2.74 0 0 0 0.87 -2.85 0.33 0.33 0 1 0 -0.64 0.19 2 2 0 0 1 -0.82 2 1.85 1.85 0 0 1 -2 0.26 1.7 1.7 0 0 1 -0.88 -1.43 2 2 0 0 1 0.67 -1.68 2 2 0 0 1 0.89 -0.4 5.56 5.56 0 0 1 1.63 0 0.32 0.32 0 0 0 0.34 -0.25 0.29 0.29 0 0 0 -0.25 -0.34 6.43 6.43 0 0 0 -1.83 -0.2 2.6 2.6 0 0 0 -1.29 0.42 2.81 2.81 0 0 0 -0.94 1.06c-0.64 -0.07 -1.67 -0.19 -2.81 -0.25 -0.67 0 -1.38 -0.07 -2.06 -0.05 -1.17 0 -2.23 0.13 -2.86 0.18A2.46 2.46 0 0 0 7.6 0.35 1.85 1.85 0 0 0 6.08 0.06 1.58 1.58 0 0 0 5 1.16a6.76 6.76 0 0 0 -0.36 2.4l0 0.42c-0.06 -0.1 -0.18 -0.17 -0.41 -0.07a3 3 0 0 0 -0.33 0.22 15.09 15.09 0 0 0 -2.69 2.33 0.8 0.8 0 0 0 -0.05 0.65 2.77 2.77 0 0 0 0.33 0.71c0.14 0.28 0.3 0.55 0.46 0.82s0.51 0.78 0.79 1.16c0.09 0.12 0.21 0.38 0.33 0.54a1 1 0 0 0 0.25 0.23 0.56 0.56 0 0 0 0.54 0.06 3.18 3.18 0 0 0 0.45 -0.23 17.05 17.05 0 0 0 1.42 -1 0.75 0.75 0 0 0 0.32 -0.51 0.79 0.79 0 0 0 -0.17 -0.43c-0.21 -0.31 -0.73 -0.91 -1 -1.21a3.84 3.84 0 0 1 0.2 -0.43c0.1 -0.21 0.44 -0.75 0.44 -0.83L8 5.92s0.3 0.46 0.41 0.67 0.14 0.31 0.19 0.43c-0.26 0.3 -0.78 0.9 -1 1.21a0.79 0.79 0 0 0 -0.17 0.42 0.79 0.79 0 0 0 0.32 0.52 17.16 17.16 0 0 0 1.42 1 2.58 2.58 0 0 0 0.46 0.24 0.57 0.57 0 0 0 0.54 -0.06 1 1 0 0 0 0.25 -0.23c0.12 -0.16 0.24 -0.42 0.33 -0.54 0.27 -0.38 0.54 -0.76 0.78 -1.16s0.32 -0.54 0.47 -0.82a3.16 3.16 0 0 0 0.33 -0.71 0.83 0.83 0 0 0 -0.06 -0.66 15.39 15.39 0 0 0 -2.63 -2.35 3.51 3.51 0 0 0 -0.33 -0.22 0.34 0.34 0 0 0 -0.28 0 0.26 0.26 0 0 0 -0.18 0.34 26.91 26.91 0 0 1 2.51 2.59c-0.08 0.09 -0.22 0.38 -0.29 0.48L9.85 8.88a1.7 1.7 0 0 0 -0.12 0.29c-0.35 -0.18 -0.84 -0.46 -1.17 -0.66 0.31 -0.46 0.82 -1.15 0.82 -1.15A0.37 0.37 0 0 0 9.44 7 5.9 5.9 0 0 0 9 6.09a3.51 3.51 0 0 0 -0.4 -0.53 3.46 3.46 0 0 0 0.15 -0.95 9.5 9.5 0 0 0 -0.11 -2.15 0.94 0.94 0 0 0 0 -0.16c0.64 0.08 1.6 0.19 2.66 0.24l2.06 0c1 0 1.93 -0.08 2.57 -0.1a2.5 2.5 0 0 0 -0.07 0.67 2.69 2.69 0 0 0 1.52 2.39l0.06 0 -0.2 0.76 -0.53 1.84c-0.16 0.51 -0.34 1.05 -0.5 1.58s-0.17 0.77 -0.23 1.14a4.29 4.29 0 0 0 0 1c0.05 0.71 0.22 1.47 0.25 2.11l0.14 1.53 0.07 0.5 -1.26 0a6 6 0 0 0 -1.26 -0.09v-0.07l0.12 -4a0.55 0.55 0 0 0 -0.26 -0.5 0.53 0.53 0 0 0 -0.57 0l-4.12 2.42 -0.82 0.54v-2.07l0 -0.7A0.63 0.63 0 0 0 8 11a0.7 0.7 0 0 0 -0.82 0.05l-4.43 2.81c-0.45 0.28 -1 0.55 -1.45 0.86a5.43 5.43 0 0 0 -0.94 0.75 0.44 0.44 0 0 0 -0.12 0.26 5.83 5.83 0 0 0 0 0.65c0 1.66 0.06 5.9 0.06 6a0.31 0.31 0 0 0 0.3 0.3 0.31 0.31 0 0 0 0.3 -0.3c0 -0.12 0 -4.34 0.05 -6l0 -0.49a4.31 4.31 0 0 1 0.75 -0.56c0.48 -0.3 1 -0.56 1.46 -0.83L7.35 12a0.81 0.81 0 0 0 0 0.15l0 2.19a4.3 4.3 0 0 0 0 0.78 0.6 0.6 0 0 0 0.16 0.34 0.51 0.51 0 0 0 0.56 0.11 2.65 2.65 0 0 0 0.47 -0.29l1.06 -0.68 3.27 -1.89 -0.12 3.14a5 5 0 0 0 0 0.82 0.63 0.63 0 0 0 0.25 0.33 1.09 1.09 0 0 0 0.72 0.25c0.48 0 1.27 -0.1 1.45 -0.1 0.76 0 1.52 0 2.27 -0.11 1.12 -0.1 2.23 -0.26 3.35 -0.42l1.69 -0.13a13.9 13.9 0 0 1 0.19 1.77 29.8 29.8 0 0 1 -0.07 4.09 4.31 4.31 0 0 1 -0.14 0.59c-0.85 0.06 -3.31 0.08 -6.29 0.09l-15.64 0a0.34 0.34 0 1 0 0 0.67c1.38 0 11.75 0.24 17.88 0.28 2.52 0 4.34 0 4.6 -0.07a0.76 0.76 0 0 0 0.47 -0.54 10.07 10.07 0 0 0 0.27 -2.12 21.3 21.3 0 0 0 -0.26 -5.39ZM4.13 7.61s0.5 0.69 0.81 1.15c-0.32 0.2 -0.81 0.48 -1.16 0.67 0 -0.12 -1.35 -2.14 -1.35 -2.14a3.84 3.84 0 0 1 -0.28 -0.48 20.72 20.72 0 0 1 2.49 -2.54 12.52 12.52 0 0 0 0.27 1.56 3.22 3.22 0 0 0 -0.38 0.51 6.61 6.61 0 0 0 -0.47 0.87 0.37 0.37 0 0 0 0.07 0.4Zm3.61 -2.54a16.39 16.39 0 0 0 -2 0.2l-0.19 0.05a10.22 10.22 0 0 1 -0.09 -1.75 6.17 6.17 0 0 1 0.46 -2.07 0.57 0.57 0 0 1 0.42 -0.37 0.82 0.82 0 0 1 0.66 0.15 2.43 2.43 0 0 1 0.57 1.39 12.23 12.23 0 0 1 0.25 2.2 1.2 1.2 0 0 1 -0.08 0.2ZM20.6 15.5c-1.09 0.16 -2.18 0.31 -3.28 0.41l-0.28 0v-0.49L17.1 14c0 -0.74 -0.05 -1.64 0 -2.44l0 -0.53 0.54 -2.66 0.29 -1.88 0.11 -0.69a3 3 0 0 0 1.63 -0.3 9 9 0 0 0 0.21 0.89c0.13 0.69 0.22 1.38 0.37 2.06a9.32 9.32 0 0 0 0.23 0.91 10.75 10.75 0 0 1 0.44 1.64 2.49 2.49 0 0 0 -1 -0.25 4.21 4.21 0 0 0 -0.71 0c-0.23 0 -0.44 0.08 -0.62 0.09 -1.1 0.22 -1.2 0.17 -1.29 0.25s-0.18 0.25 -0.08 0.38a0.26 0.26 0 0 0 0.2 0.16l1.17 0.27a2.34 2.34 0 0 0 0.53 0 2.86 2.86 0 0 0 0.55 -0.09 2.89 2.89 0 0 1 1.07 -0.18 0.33 0.33 0 0 0 0.33 0c0.05 0.26 0.1 0.52 0.14 0.78 0.15 1 0.23 2.09 0.28 3.13Z" fill="#020202" stroke-width="1"></path>
    <path d="M9.69 18.56s0.07 -0.73 0.08 -1a0.65 0.65 0 0 0 -0.42 -0.56 8 8 0 0 0 -1.88 -0.23 10.25 10.25 0 0 0 -1.85 0.14 3.58 3.58 0 0 0 -1 0.32 1.28 1.28 0 0 0 -0.49 0.46 2 2 0 0 0 -0.19 0.83C3.89 19 4 19.58 4 20a14.31 14.31 0 0 0 0 1.79 0.88 0.88 0 0 0 0.33 0.61 0.31 0.31 0 0 0 0.41 -0.11 18 18 0 0 0 0 -2.27l0 -1.25a1.27 1.27 0 0 1 0.26 -0.6c0.06 -0.1 0.22 -0.09 0.35 -0.12l0.46 -0.05a11.53 11.53 0 0 1 1.66 -0.11 9.52 9.52 0 0 1 1.35 0.08l0 3.23 0 0.77a1.81 1.81 0 0 0 0.1 0.43 0.34 0.34 0 0 0 0.63 -0.26 1 1 0 0 1 0 -0.3l0 -0.66Z" fill="#020202" stroke-width="1"></path>
  </g>
</svg>