<svg xmlns="http://www.w3.org/2000/svg" viewBox="0 0 24 24" id="Factory-Building-2--Streamline-Freehand">
  <desc>
    Factory Building 2 Streamline Icon: https://streamlinehq.com
  </desc>
  <title>factory-building-2</title>
  <g>
    <path d="M10.24 5a2.53 2.53 0 0 0 2.45 -0.92 0.34 0.34 0 1 0 -0.52 -0.43 1.74 1.74 0 0 1 -1.41 0.35 0.93 0.93 0 0 1 -0.89 -0.69 0.46 0.46 0 0 1 0 -0.43 1 1 0 0 1 0.46 -0.41l0.24 -0.06a1.06 1.06 0 0 1 0.25 0s0.07 0.06 0.09 0.05a0.3 0.3 0 0 0 0.42 0c0.1 -0.09 0.12 -0.22 0 -0.4a1.37 1.37 0 0 0 -0.31 -0.24 1.46 1.46 0 0 0 -0.46 -0.15 1.55 1.55 0 0 0 -0.48 0 1.74 1.74 0 0 0 -1.07 0.58 1.46 1.46 0 0 0 -0.31 1.33A1.86 1.86 0 0 0 10.24 5Z" fill="#020202" stroke-width="1"></path>
    <path d="M14.82 5.2a2.27 2.27 0 0 0 1.07 0.54 2.2 2.2 0 0 0 1.21 -0.11l0.3 -0.17 0.05 0.06a2.52 2.52 0 0 0 0.94 0.6 4 4 0 0 0 2 0.21 3.47 3.47 0 0 0 1.88 -0.91 1.68 1.68 0 0 0 0.44 -0.61 2.06 2.06 0 0 0 0.1 -0.62 1.83 1.83 0 0 0 0.48 -0.62 1.45 1.45 0 0 0 -0.07 -1.21 2.68 2.68 0 0 0 -1.11 -1 4.38 4.38 0 0 0 -0.77 -0.36 4.88 4.88 0 0 0 -0.85 -0.15 1.62 1.62 0 0 0 -0.66 0.05 8.81 8.81 0 0 0 -1 -0.5 2.12 2.12 0 0 0 -0.93 -0.1 0.35 0.35 0 0 0 -0.31 0.37 0.34 0.34 0 0 0 0.37 0.3 1.44 1.44 0 0 1 0.62 0.1 11.3 11.3 0 0 1 1 0.56 0.84 0.84 0 0 0 0.32 0.07c0.17 0 0.42 -0.05 0.53 0a4.3 4.3 0 0 1 0.69 0.16 4.06 4.06 0 0 1 0.64 0.29 1.75 1.75 0 0 1 0.58 0.54 0.54 0.54 0 0 1 0.09 0.41 2.08 2.08 0 0 1 -0.36 0.29 0.63 0.63 0 0 0 -0.23 0.39 4.23 4.23 0 0 1 -0.07 0.57 0.57 0.57 0 0 1 -0.2 0.27 2.41 2.41 0 0 1 -1.29 0.6 3 3 0 0 1 -1.45 -0.14 1.56 1.56 0 0 1 -0.41 -0.2c-0.1 -0.06 -0.22 -0.12 -0.22 -0.25a0.53 0.53 0 0 0 -0.27 -0.48 0.52 0.52 0 0 0 -0.54 0 3.25 3.25 0 0 0 -0.29 0.33l-0.35 0.24a1.29 1.29 0 0 1 -1.34 -0.16 1.25 1.25 0 0 1 -0.46 -0.72 1.67 1.67 0 0 1 0.05 -0.93 3 3 0 0 1 0.17 -0.36 1.76 1.76 0 0 1 0.24 -0.3c0.2 -0.1 0.49 -0.18 0.51 -0.33s-0.05 -0.36 -0.25 -0.4a1.35 1.35 0 0 0 -0.7 0.27 2 2 0 0 0 -0.35 0.41 2.09 2.09 0 0 0 -0.26 0.46A2.42 2.42 0 0 0 14.15 4a2.1 2.1 0 0 0 0.67 1.2Z" fill="#020202" stroke-width="1"></path>
    <path d="M2.54 20a2.54 2.54 0 0 0 0 0.57 0.73 0.73 0 0 0 0.23 0.42 1 1 0 0 0 0.52 0.22c0.41 0.08 1.06 0.06 1.29 0.09a8.79 8.79 0 0 0 1 0.06 1.09 1.09 0 0 0 0.5 -0.16 1.18 1.18 0 0 0 0.47 -0.79 4.28 4.28 0 0 0 -0.15 -1.32 1.57 1.57 0 0 0 -0.15 -0.56 0.63 0.63 0 0 0 -0.34 -0.28 2.57 2.57 0 0 0 -0.65 -0.08c-0.42 0 -0.88 0.06 -1.25 0.09l-0.6 0.05c-1 -0.07 -0.84 1.18 -0.84 1.18ZM4 19l1 0 0.29 0c0 0.07 0.19 1.07 0.2 1.11 0 0.23 -1.94 0.28 -2.17 0.17l-0.13 -1.35Z" fill="#4C57E6" stroke-width="1"></path>
    <path d="m10.31 19 1.55 0.13A6 6 0 0 1 12 20a0.29 0.29 0 0 0 0.27 0.32 0.3 0.3 0 0 0 0.33 -0.27 5.34 5.34 0 0 0 0.06 -1.36 0.79 0.79 0 0 0 -0.43 -0.66 2.35 2.35 0 0 0 -0.86 -0.15 10.45 10.45 0 0 0 -1.07 0.13l-0.6 0.1c-1 0 -1.07 1.25 -1.07 1.25l-0.07 0.52a2.79 2.79 0 0 0 0 0.58 0.83 0.83 0 0 0 0.28 0.49 1.11 1.11 0 0 0 0.65 0.22 10.3 10.3 0 0 0 1.56 -0.16 0.33 0.33 0 0 0 0.35 -0.32 0.34 0.34 0 0 0 -0.32 -0.35c-0.25 0 -1.53 -0.08 -1.57 -0.3s-0.09 -1.16 -0.09 -1.16Z" fill="#4C57E6" stroke-width="1"></path>
    <path d="M21.18 19.87c-0.37 0 -1 -0.08 -1.67 -0.1h-0.71l-0.7 0c-0.63 0.07 -1.2 0.19 -1.62 0.22a0.28 0.28 0 0 0 -0.32 0.27 0.29 0.29 0 0 0 0.26 0.32 10.28 10.28 0 0 0 1.7 0.27 5.77 5.77 0 0 0 0.72 0c0.25 0 0.5 0 0.73 -0.06 0.68 -0.09 1.29 -0.23 1.66 -0.3a0.33 0.33 0 0 0 0.31 -0.35 0.35 0.35 0 0 0 -0.36 -0.27Z" fill="#020202" stroke-width="1"></path>
    <path d="M18.07 15.67a5.9 5.9 0 0 0 0.73 0q0.38 0 0.72 -0.06c0.68 -0.09 1.29 -0.23 1.66 -0.29a0.35 0.35 0 0 0 0.31 -0.36 0.34 0.34 0 0 0 -0.36 -0.32c-0.37 0 -1 -0.07 -1.67 -0.1h-0.7c-0.24 0 -0.48 0 -0.7 0.05 -0.64 0.07 -1.21 0.19 -1.63 0.22a0.28 0.28 0 0 0 -0.32 0.27 0.29 0.29 0 0 0 0.26 0.32 10.28 10.28 0 0 0 1.7 0.27Z" fill="#020202" stroke-width="1"></path>
    <path d="M24 17.91a21.4 21.4 0 0 0 -0.6 -5.24 1.08 1.08 0 0 0 -0.59 -0.51l0 -0.84 0 -0.53 0 -0.6a1.17 1.17 0 0 0 -0.11 -0.41 0.72 0.72 0 0 0 -0.41 -0.32 9.08 9.08 0 0 0 -1.21 -0.21 3.36 3.36 0 0 0 -1.07 0 0.8 0.8 0 0 0 -0.53 0.4 2.06 2.06 0 0 0 -0.15 0.79c0 0.5 0.13 1.08 0.17 1.45a1 1 0 0 0 0 0.14h-0.66l-0.61 0V11l0 -0.6a1 1 0 0 0 -0.1 -0.41 0.8 0.8 0 0 0 -0.41 -0.32 9.13 9.13 0 0 0 -1.22 -0.2 3.29 3.29 0 0 0 -1.06 0 0.76 0.76 0 0 0 -0.53 0.39 2.11 2.11 0 0 0 -0.16 0.8c0 0.5 0.14 1.07 0.18 1.45v0.09a1.11 1.11 0 0 0 -0.66 0.32 2 2 0 0 0 -0.34 1c-0.06 0.64 0 1.45 0 1.83a2.17 2.17 0 0 1 -0.07 0.27h-0.44l-1.6 0c0 -1.51 0.29 -3.95 0.31 -5.89A8.67 8.67 0 0 0 11.85 7a2.31 2.31 0 0 0 -2.18 -1 2.34 2.34 0 0 0 -2.12 1.09 4.79 4.79 0 0 0 -0.2 1.34 39.61 39.61 0 0 0 0.23 4.84c0.08 1 0.17 1.87 0.22 2.29h-3c-1 0 -1.91 0 -2.63 0.08l0 -0.67c0 -1.24 -0.06 -3.59 0 -5.42a8.92 8.92 0 0 1 0.24 -2.13 0.4 0.4 0 0 1 0.23 -0.16 2.31 2.31 0 0 1 0.86 -0.17 2.41 2.41 0 0 1 0.87 0.12 0.46 0.46 0 0 1 0.28 0.17 5.76 5.76 0 0 1 0.34 1.9c0.12 1.75 0.06 4 0.14 5.06a0.34 0.34 0 1 0 0.67 0c0 -1.07 0.18 -3.31 0.16 -5.07a6.91 6.91 0 0 0 -0.33 -2.35A2.4 2.4 0 0 0 3.41 6a2.31 2.31 0 0 0 -2.13 1 6.89 6.89 0 0 0 -0.23 2c0 1.28 0.11 2.92 0.23 4.28 0.09 1.05 0.19 1.93 0.23 2.34v0.06l-0.51 0.06a1.29 1.29 0 0 0 -0.59 0.26A2.51 2.51 0 0 0 0 17.35c-0.1 1.58 0.07 4.22 0.08 4.87a0.3 0.3 0 0 0 0.31 0.29 0.29 0.29 0 0 0 0.29 -0.3c0 -0.49 -0.07 -2.16 0 -3.62a13.76 13.76 0 0 1 0.14 -1.86c0 -0.12 0 -0.21 0.08 -0.24a3.24 3.24 0 0 1 1 -0.09c2.55 -0.12 8.41 0.13 11.09 0.22l1.25 0a0.66 0.66 0 0 0 0.49 -0.16 0.83 0.83 0 0 0 0.2 -0.41 4.25 4.25 0 0 0 0 -0.66l0 -1.56a2.15 2.15 0 0 1 0.06 -0.55c0.58 0 1.24 -0.05 1.48 -0.06 0.79 -0.05 1.57 -0.08 2.34 -0.11s1.57 0 2.36 0l1.06 0a15.69 15.69 0 0 1 0.5 3.8c0.11 2.06 0.15 4.33 0.1 5.39a0.76 0.76 0 0 1 0 0.16c-0.38 0 -1 0.06 -1.78 0.09 -5.58 0.22 -19.75 0.42 -20.17 0.35a0.33 0.33 0 0 0 -0.4 0.27 0.34 0.34 0 0 0 0.27 0.39c0.38 0.08 11.6 0.14 18.08 0.06 1.89 0 3.38 -0.05 4.08 -0.1l0.49 0a0.54 0.54 0 0 0 0.35 -0.24 1.64 1.64 0 0 0 0.18 -0.76c0.07 -0.88 0.07 -2.74 0.07 -4.61Zm-15.58 -3c-0.05 -1.23 -0.09 -3.55 0 -5.36a7.72 7.72 0 0 1 0.25 -2.1c0 -0.08 0.12 -0.11 0.23 -0.16a2.32 2.32 0 0 1 0.87 -0.17 2.45 2.45 0 0 1 0.87 0.12c0.09 0 0.2 0.06 0.23 0.14a7.63 7.63 0 0 1 0.32 2.31c0.07 1.93 0 4.36 0 5.87l-2.73 0c-0.05 -0.14 -0.07 -0.36 -0.08 -0.62Zm8.06 -2.8 -0.82 0v-0.05c0 -0.31 0 -0.77 0.08 -1.19a1.85 1.85 0 0 1 0.11 -0.45l1.41 0.1 0.1 0.57 0.1 0.5 0.06 0.47Zm4.74 -0.11 -1 0 0 -0.13c0 -0.31 0 -0.77 0.08 -1.19a2.35 2.35 0 0 1 0.11 -0.44c0.18 0 1.12 0.06 1.42 0.1l0.1 0.56 0.1 0.51 0.07 0.6c-0.37 -0.01 -0.69 -0.01 -0.88 -0.01Z" fill="#020202" stroke-width="1"></path>
  </g>
</svg>