<svg xmlns="http://www.w3.org/2000/svg" viewBox="0 0 24 24" id="Family-Swing-Sign--Streamline-Freehand">
  <desc>
    Family Swing Sign Streamline Icon: https://streamlinehq.com
  </desc>
  <g>
    <path d="M23.28 17.55c-0.18 -0.67 -0.4 -1.31 -0.64 -2 -0.35 -0.95 -0.74 -1.87 -1.15 -2.81 -0.49 -1.15 -1 -2.25 -1.52 -3.34 -0.8 -1.66 -1.63 -3.26 -2.46 -4.89a14.29 14.29 0 0 0 -2.13 -3.19A3.77 3.77 0 0 0 12.89 0a1.94 1.94 0 0 0 -0.89 0.22 4 4 0 0 0 -1 0.64 13.38 13.38 0 0 0 -1.56 1.67 17.75 17.75 0 0 0 -1.31 1.86C7 6.23 6 7.71 5 9.48c-0.6 1 -1.23 2.17 -1.9 3.53 -0.31 0.6 -0.77 1.68 -1.21 2.78S1 18 0.82 18.62a14.73 14.73 0 0 0 -0.7 1.91A4.06 4.06 0 0 0 0 22.09a1.67 1.67 0 0 0 0.6 0.91c0.78 0.66 1.52 0.72 3.31 0.71s3.89 -0.1 4.78 -0.1l8.18 0.05c1 0 2 0.22 2.95 0.28a8.05 8.05 0 0 0 1.39 0 5.08 5.08 0 0 0 1.08 -0.18 1.85 1.85 0 0 0 0.8 -0.52 3.69 3.69 0 0 0 0.91 -2.36 11.8 11.8 0 0 0 -0.72 -3.33Zm-1.1 4.91a0.66 0.66 0 0 1 -0.37 0.19 4.84 4.84 0 0 1 -0.73 0.09 6.64 6.64 0 0 1 -1.18 0c-1 -0.07 -2 -0.27 -3 -0.3l-8.22 -0.08c-0.89 0 -3.08 0.09 -4.78 0.09 -0.45 0 -2.5 0.05 -2.59 -0.58a2.73 2.73 0 0 1 0.05 -1.07A13.29 13.29 0 0 1 2 19c0.19 -0.62 0.59 -1.7 1 -2.76s0.86 -2.11 1.15 -2.7c0.67 -1.34 1.27 -2.46 1.85 -3.48C7 8.29 8 6.83 9.13 5a15.45 15.45 0 0 1 1.23 -1.72 12.22 12.22 0 0 1 1.44 -1.5 3 3 0 0 1 0.57 -0.41 0.87 0.87 0 0 1 0.46 -0.13 2.62 2.62 0 0 1 1.67 1 12.88 12.88 0 0 1 1.9 2.91c0.83 1.61 1.67 3.21 2.47 4.86 0.52 1.06 1 2.15 1.52 3.28 0.41 0.91 0.8 1.81 1.15 2.74a16.73 16.73 0 0 1 0.62 1.85 10.22 10.22 0 0 1 0.66 3 2.47 2.47 0 0 1 -0.64 1.58Z" fill="#4C57E6" fill-rule="evenodd" stroke-width="1"></path>
    <path d="M17.79 10.64a1.53 1.53 0 0 0 -0.95 -0.58 13.74 13.74 0 0 0 -2.84 -0.2h-1c-1 0 -2.52 -0.09 -3.72 0a4.37 4.37 0 0 0 -1.82 0.36 1.59 1.59 0 0 0 -0.56 1 26.39 26.39 0 0 0 -0.28 3.05c-0.07 1.08 -0.11 2.05 -0.11 3s0 1.94 0.06 3a0.47 0.47 0 0 0 0.48 0.47 0.48 0.48 0 0 0 0.48 -0.49l0 -2.95c0 -0.95 0.06 -1.86 0.16 -2.92 0 -0.49 0.07 -1.19 0.14 -1.85a10.89 10.89 0 0 1 0.27 -1.36A3.74 3.74 0 0 1 9.32 11h0.52c0 1.32 -0.07 2.64 -0.06 4 0 0.89 0 1.78 0.09 2.67h-0.09a0.56 0.56 0 1 0 0 1.12c0.58 0 1.27 0.07 2 0.08l3 0a0.69 0.69 0 0 0 0 -1.37h-0.23l0 -1.17c0 -1.76 0.25 -3.54 0.22 -5.21l0.93 0a6.78 6.78 0 0 1 0.92 0.13l0.27 0.1a4.54 4.54 0 0 1 0.11 1.11 21.3 21.3 0 0 1 0 2.14l-0.08 6.05a0.56 0.56 0 0 0 1.11 0l0.14 -6a25.6 25.6 0 0 0 0 -2.63 3.32 3.32 0 0 0 -0.38 -1.38Zm-6 6.84 -0.9 0.05c-0.07 -0.87 -0.1 -1.74 -0.11 -2.62l0 -3.94 2.26 0h0.67c0 1.46 -0.14 3 -0.2 4.52l0 1.89Z" fill="#020202" fill-rule="evenodd" stroke-width="1"></path>
  </g>
</svg>