<svg xmlns="http://www.w3.org/2000/svg" viewBox="0 0 24 24" id="Family-Umbrella-Protect--Streamline-Freehand">
  <desc>
    Family Umbrella Protect Streamline Icon: https://streamlinehq.com
  </desc>
  <title>family-umbrella-protect</title>
  <g>
    <path d="M20.15 19.36a2.56 2.56 0 0 0 -0.65 -0.7 2.77 2.77 0 0 0 -0.61 -0.27 2.88 2.88 0 0 0 1.2 -1.77 3.45 3.45 0 0 0 -0.68 -2.6 2.93 2.93 0 0 0 -2.32 -1.28 2.89 2.89 0 0 0 -0.84 0.13 4 4 0 0 0 -1.06 0.56 0.34 0.34 0 0 0 -0.16 0.36 4.31 4.31 0 0 0 -0.74 0.81 2.57 2.57 0 0 0 -0.34 0.85 2.91 2.91 0 0 0 1.12 2.91l0.18 0.11a3.9 3.9 0 0 0 -0.48 0.17 2.73 2.73 0 0 0 -0.47 0.31 3.89 3.89 0 0 0 -0.34 0.36 2.64 2.64 0 0 0 -0.47 -0.95 2.42 2.42 0 0 0 -1.89 -1 2.16 2.16 0 0 0 -0.68 0.12 3.08 3.08 0 0 0 -0.84 0.44 0.35 0.35 0 0 0 -0.16 0.32 3.26 3.26 0 0 0 -0.57 0.61 1.93 1.93 0 0 0 -0.19 0.47 2.61 2.61 0 0 0 -0.45 -0.43 2.69 2.69 0 0 0 -0.6 -0.27 3 3 0 0 0 0.51 -0.44 2.7 2.7 0 0 0 0.68 -1.32 3.5 3.5 0 0 0 -0.67 -2.61 3 3 0 0 0 -2.33 -1.31 3 3 0 0 0 -0.84 0.13 4.33 4.33 0 0 0 -1.06 0.56 0.33 0.33 0 0 0 -0.15 0.36 4.64 4.64 0 0 0 -0.74 0.81 2.37 2.37 0 0 0 -0.34 0.85 2.9 2.9 0 0 0 1.11 2.91 1.86 1.86 0 0 0 0.19 0.11 2.88 2.88 0 0 0 -0.49 0.18 2.06 2.06 0 0 0 -0.46 0.31 3 3 0 0 0 -0.39 0.4 4.71 4.71 0 0 0 -0.61 1.12 0.36 0.36 0 0 0 0.12 0.49 0.35 0.35 0 0 0 0.48 -0.17 7.2 7.2 0 0 1 1.11 -0.93c0.13 -0.09 0.24 -0.2 0.36 -0.3s0.21 -0.23 0.34 -0.33a2.8 2.8 0 0 1 0.49 -0.36 3.07 3.07 0 0 0 1.59 0 2.47 2.47 0 0 1 0.53 0.29c0.12 0.1 0.2 0.22 0.32 0.33l0.33 0.33a8.85 8.85 0 0 1 1.09 1.12 2.1 2.1 0 0 0 0.55 0.67l-0.19 0.06a2 2 0 0 0 -0.67 0.57 3.36 3.36 0 0 0 -0.45 0.91 0.36 0.36 0 0 0 0.11 0.49 0.36 0.36 0 0 0 0.49 -0.12 5.31 5.31 0 0 1 0.91 -0.69 1.64 1.64 0 0 0 0.24 -0.21 4.37 4.37 0 0 1 0.54 -0.52 2.58 2.58 0 0 0 1.35 0l0.29 0.2c0.09 0.08 0.13 0.18 0.22 0.27L13 23a7.4 7.4 0 0 1 0.86 0.81 0.37 0.37 0 0 0 0.49 0.14 0.36 0.36 0 0 0 0.13 -0.49 4 4 0 0 0 -0.4 -1 1.67 1.67 0 0 0 -0.53 -0.56 2.12 2.12 0 0 0 -0.31 -0.14 2.75 2.75 0 0 0 0.26 -0.22 2.43 2.43 0 0 0 0.43 -0.73 7.47 7.47 0 0 1 1.07 -0.9l0.36 -0.3c0.13 -0.11 0.22 -0.23 0.35 -0.33a2.47 2.47 0 0 1 0.49 -0.36 3.22 3.22 0 0 0 1.6 0 2.18 2.18 0 0 1 0.52 0.29 3.31 3.31 0 0 1 0.32 0.33c0.12 0.1 0.22 0.22 0.34 0.32a8.19 8.19 0 0 1 1.08 1.13 0.36 0.36 0 0 0 0.62 -0.35 6.15 6.15 0 0 0 -0.53 -1.28ZM4.93 17.67A2 2 0 0 1 4 15.78a1.63 1.63 0 0 1 0.25 -0.7 4.26 4.26 0 0 1 0.56 -0.66 3.3 3.3 0 0 1 0.48 -0.42 1.19 1.19 0 0 1 0.32 -0.14 0.31 0.31 0 0 0 0.13 -0.06 2.41 2.41 0 0 1 0.55 0 2 2 0 0 1 1.52 1 2.34 2.34 0 0 1 0.37 1.8 1.55 1.55 0 0 1 -0.42 0.75 2.33 2.33 0 0 1 -0.8 0.53 2.06 2.06 0 0 1 -2.03 -0.21ZM10.61 21a1.43 1.43 0 0 1 -0.68 -1.34 1.19 1.19 0 0 1 0.17 -0.51 3.24 3.24 0 0 1 0.42 -0.51 2.4 2.4 0 0 1 0.33 -0.32 0.64 0.64 0 0 1 0.22 -0.1h0.06a1.12 1.12 0 0 1 0.45 0 1.5 1.5 0 0 1 1.1 0.76 1.76 1.76 0 0 1 0.25 1.31 1.19 1.19 0 0 1 -0.3 0.52 1.75 1.75 0 0 1 -0.58 0.37 1.42 1.42 0 0 1 -1.44 -0.18Zm5.11 -3.52a2 2 0 0 1 -0.9 -1.89 1.47 1.47 0 0 1 0.25 -0.7 3.44 3.44 0 0 1 0.56 -0.66 3.3 3.3 0 0 1 0.45 -0.42 0.79 0.79 0 0 1 0.32 -0.14 0.27 0.27 0 0 0 0.12 -0.06 2.46 2.46 0 0 1 0.55 0 2.08 2.08 0 0 1 1.53 1 2.42 2.42 0 0 1 0.4 1.78 1.63 1.63 0 0 1 -0.42 0.75 2.43 2.43 0 0 1 -0.8 0.53 2.06 2.06 0 0 1 -2.06 -0.2Z" fill="#020202" fill-rule="evenodd" stroke-width="1"></path>
    <path d="M21.43 10.27c-0.12 -0.39 -0.27 -0.77 -0.4 -1.16a13.62 13.62 0 0 0 -1.47 -3.27 8.12 8.12 0 0 0 -2.64 -2.57 5.54 5.54 0 0 0 -1.11 -0.5 13.56 13.56 0 0 0 -1.67 -0.41c-0.55 -0.09 -1.11 -0.16 -1.66 -0.2 0.27 -0.93 0 -2.13 -0.36 -2.16s-0.84 1 -0.62 2.12h-0.05a10.21 10.21 0 0 0 -2.73 0.42 9 9 0 0 0 -4.4 3.25 10.17 10.17 0 0 0 -1.94 5 0.29 0.29 0 0 0 0.16 0.29 0.31 0.31 0 0 0 0.14 0.36 0.31 0.31 0 0 0 0.42 -0.14 2.42 2.42 0 0 1 1.15 -1.09 1.47 1.47 0 0 1 1.4 0.18 1.28 1.28 0 0 1 0.29 0.23c0.24 0.27 0.31 0.94 0.92 0.83a1.31 1.31 0 0 0 0.49 -0.24c0.23 -0.16 0.45 -0.4 0.61 -0.53a3 3 0 0 1 0.93 -0.51 1.71 1.71 0 0 1 0.95 0 1.38 1.38 0 0 1 0.51 0.23 1.48 1.48 0 0 1 0.39 0.4l0.23 0.4 0.07 0.18a0.56 0.56 0 0 0 0.34 0.31c-0.09 0.41 -0.18 0.82 -0.23 1.24l0 0.65 0 0.65c0 0.52 0.12 1 0.19 1.52a0.35 0.35 0 0 0 0.34 0.36 0.36 0.36 0 0 0 0.36 -0.35c0.07 -0.51 0.17 -1 0.22 -1.51 0 -0.22 0 -0.43 0.05 -0.65s0 -0.44 0 -0.65c0 -0.47 -0.14 -0.91 -0.21 -1.37 0.15 -0.13 0.32 -0.36 0.44 -0.47a6 6 0 0 1 0.86 -0.64 1.47 1.47 0 0 1 0.82 -0.23 1.07 1.07 0 0 1 0.59 0.22 3.16 3.16 0 0 1 0.59 0.56l0.26 0.33a1.3 1.3 0 0 0 0.15 0.36 0.5 0.5 0 0 0 0.26 0.2 0.55 0.55 0 0 0 0.38 0 0.94 0.94 0 0 0 0.31 -0.23 4.67 4.67 0 0 0 0.29 -0.46c0.1 -0.14 0.2 -0.28 0.31 -0.41a1.88 1.88 0 0 1 0.32 -0.31 1.8 1.8 0 0 1 1.64 -0.21 3 3 0 0 1 1.53 1.07 0.44 0.44 0 0 0 0.16 0.1 0.33 0.33 0 0 0 0.3 0.12 0.35 0.35 0 0 0 0.29 -0.4 6.14 6.14 0 0 0 -0.17 -0.91Zm-2.29 -0.94a2.53 2.53 0 0 0 -2 0.36 3.26 3.26 0 0 0 -0.4 0.34 5.34 5.34 0 0 0 -0.39 0.44l-0.12 -0.18a3.83 3.83 0 0 0 -1 -0.92 2.07 2.07 0 0 0 -1 -0.35 2.55 2.55 0 0 0 -1.2 0.23 6 6 0 0 0 -1.33 0.9l0 -0.05a2.63 2.63 0 0 0 -0.7 -0.7 2.44 2.44 0 0 0 -0.93 -0.4 2.77 2.77 0 0 0 -1.54 0.15 3.86 3.86 0 0 0 -1.23 0.77l-0.43 0.41a3.78 3.78 0 0 0 -0.4 -0.4 2 2 0 0 0 -0.38 -0.26A2.23 2.23 0 0 0 4 9.56a2.81 2.81 0 0 0 -0.8 0.59A9.51 9.51 0 0 1 5 6.34a8 8 0 0 1 4 -2.7 9 9 0 0 1 2.4 -0.34 13.87 13.87 0 0 1 2.48 0.23 13.41 13.41 0 0 1 1.53 0.32 5.11 5.11 0 0 1 0.91 0.37 6.91 6.91 0 0 1 2.39 2.15 12.63 12.63 0 0 1 1.52 3c0.07 0.19 0.15 0.39 0.23 0.59a3.67 3.67 0 0 0 -1.32 -0.63Z" fill="#4C57E6" fill-rule="evenodd" stroke-width="1"></path>
  </g>
</svg>