<svg xmlns="http://www.w3.org/2000/svg" viewBox="0 0 24 24" id="Family-Outdoors-Wheel-Net--Streamline-Freehand">
  <desc>
    Family Outdoors Wheel Net Streamline Icon: https://streamlinehq.com
  </desc>
  <title>family-outdoors-wheel-net</title>
  <g>
    <path d="M22.21 0.8a0.3 0.3 0 1 0 -0.59 0l0 1.42a22.18 22.18 0 0 1 -6.8 1.28l-3 0c-1 0 -2 -0.16 -3 -0.3a33.92 33.92 0 0 1 -6.33 -1.5c0 -0.48 -0.05 -0.95 -0.08 -1.42a0.3 0.3 0 0 0 -0.6 0l0 1.22a0.3 0.3 0 0 0 -0.24 0.16 0.3 0.3 0 0 0 0.17 0.39l0.07 0 0 1.78c0 1.39 -0.06 2.77 -0.09 4.16s0 2.78 -0.08 4.17c0 2 -0.08 4.1 -0.1 6.16 0 1.37 0 2.75 0.05 4.13a0.35 0.35 0 0 0 0.35 0.33 0.34 0.34 0 0 0 0.32 -0.35c0 -1 0 -2 0.1 -3.06l0 -0.88A5 5 0 0 0 4 21.25a4.87 4.87 0 0 0 4 1.33 5.21 5.21 0 0 0 1.79 -0.69 4.17 4.17 0 0 0 1.37 -1.4 5.33 5.33 0 0 0 0.44 -1 4.42 4.42 0 0 0 0.77 1.67 4.66 4.66 0 0 0 0.65 0.68 4.21 4.21 0 0 0 0.76 0.55 4.88 4.88 0 0 0 0.83 0.4 5.65 5.65 0 0 0 0.89 0.26 4.41 4.41 0 0 0 4.62 -1.91 5.37 5.37 0 0 0 0.61 -4.91 3.34 3.34 0 0 0 -1.17 -1.51A6.31 6.31 0 0 0 18.1 14a4.49 4.49 0 0 0 0.89 -0.36 5.43 5.43 0 0 0 2.12 -2.52 6.07 6.07 0 0 0 0.25 -0.67c0 1.67 -0.05 3.35 -0.06 5 0 2.74 0 5.48 -0.13 8.22a0.34 0.34 0 1 0 0.67 0c0.22 -2.67 0.41 -5.33 0.52 -8 0.05 -1.15 0.08 -2.29 0.1 -3.44s0 -2.29 0 -3.43c-0.03 -2.66 -0.15 -5.33 -0.25 -8Zm-7.33 3.76H15a0.33 0.33 0 0 0 -0.15 0.28 8.18 8.18 0 0 0 -1.79 1.62 4.77 4.77 0 0 0 -0.65 1.09 5.64 5.64 0 0 0 -0.64 -2.06 2.9 2.9 0 0 0 -0.9 -1l0.89 0.08a23.31 23.31 0 0 0 3.12 -0.01Zm-7.41 8.21a0.26 0.26 0 0 0 -0.23 0 4.62 4.62 0 0 1 -1 -0.44A6.24 6.24 0 0 1 4.55 11a2.91 2.91 0 0 1 -0.79 -1.77A4.34 4.34 0 0 1 4.42 7 5.91 5.91 0 0 1 6 5.11a2.83 2.83 0 0 1 0.89 -0.43 1.92 1.92 0 0 1 0.95 0 0.29 0.29 0 0 0 0.36 -0.2 4.28 4.28 0 0 1 0.87 0.15A3 3 0 0 1 11 5.89a5.61 5.61 0 0 1 0.13 4.25 3.7 3.7 0 0 1 -2.9 2.67 2.37 2.37 0 0 1 -0.76 -0.04Zm-4.7 -5.32c0 -1.69 -0.13 -3.37 -0.23 -5.05A31.45 31.45 0 0 0 6.9 3.87a2 2 0 0 0 -0.52 0.21 0.38 0.38 0 0 0 -0.14 0.14 4 4 0 0 0 -0.62 0.32 6.78 6.78 0 0 0 -1.9 2 5.25 5.25 0 0 0 -0.91 2.69 3.73 3.73 0 0 0 0.63 2 6.51 6.51 0 0 0 2.2 2 6.28 6.28 0 0 0 -1.53 1 5.15 5.15 0 0 0 -1.61 2.64c0.09 -1.55 0.19 -3.09 0.26 -4.64s0.04 -3.18 0.01 -4.78Zm7.46 12.48a3 3 0 0 1 -1 1 4.15 4.15 0 0 1 -1.41 0.53 3.84 3.84 0 0 1 -3.11 -1 3.63 3.63 0 0 1 -1.39 -3 4.36 4.36 0 0 1 1.33 -2.68A5.06 5.06 0 0 1 6 13.8a0.36 0.36 0 0 0 0.3 0.09 2.86 2.86 0 0 1 0.7 -0.06h0.1l0.13 0a3.67 3.67 0 0 0 1 0.06 3.08 3.08 0 0 1 2.58 2.26 4.66 4.66 0 0 1 -0.58 3.78Zm1.63 -3a4.49 4.49 0 0 0 -0.23 -1 3.93 3.93 0 0 0 -2.05 -2.36 5 5 0 0 0 2.48 -2.93A4.42 4.42 0 0 0 14 13.41a4.75 4.75 0 0 0 1 0.5 6.25 6.25 0 0 0 -2.58 2 5.8 5.8 0 0 0 -0.56 1.09Zm5 -2.76a9.86 9.86 0 0 1 2.2 1.12 2.62 2.62 0 0 1 0.85 1.2 4.45 4.45 0 0 1 -0.67 4 3.37 3.37 0 0 1 -3.54 1.41 5.9 5.9 0 0 1 -0.72 -0.2 5.16 5.16 0 0 1 -0.67 -0.32 5 5 0 0 1 -0.6 -0.42 4.18 4.18 0 0 1 -0.51 -0.52 3.26 3.26 0 0 1 -0.07 -4.07 5.36 5.36 0 0 1 3.21 -2.23h0.48s0.05 0.06 0.07 0.06Zm3.25 -3.58a4.36 4.36 0 0 1 -1.69 2 3.84 3.84 0 0 1 -3.87 -0.12A3.52 3.52 0 0 1 12.88 9a4.36 4.36 0 0 1 0.78 -2.11 8.38 8.38 0 0 1 2 -1.88 4.29 4.29 0 0 1 2.8 0.63 4.33 4.33 0 0 1 2.1 2.41 3.85 3.85 0 0 1 -0.42 2.57ZM18.85 5a5.54 5.54 0 0 0 -2 -0.63A21.46 21.46 0 0 0 21.56 3c0 1.57 -0.09 3.13 -0.13 4.69A5.37 5.37 0 0 0 18.85 5Z" fill="#020202" fill-rule="evenodd" stroke-width="1"></path>
    <path d="M8.49 6.61A1.91 1.91 0 0 0 6.74 7a0.3 0.3 0 0 0 -0.11 0.23 0.35 0.35 0 0 0 -0.09 0.07 2 2 0 0 0 -0.61 1.33 2.23 2.23 0 0 0 0.57 1.54 1.53 1.53 0 0 0 1.17 0.48 1.86 1.86 0 0 0 0.47 -0.09c0.18 -0.06 0.35 -0.15 0.51 -0.22a2.61 2.61 0 0 0 1.17 -1.22 1.67 1.67 0 0 0 0.06 -1.26 2 2 0 0 0 -1.39 -1.25Zm0.27 2.19a1.73 1.73 0 0 1 -0.61 0.54l-0.53 0.21a0.55 0.55 0 0 1 -0.48 -0.22 1.35 1.35 0 0 1 -0.31 -0.69 1.21 1.21 0 0 1 1 -1.27 0.27 0.27 0 0 0 0.12 0 0.9 0.9 0 0 1 0.27 0.07 1.09 1.09 0 0 1 0.69 0.75 0.8 0.8 0 0 1 -0.15 0.61Z" fill="#4C57E6" fill-rule="evenodd" stroke-width="1"></path>
    <path d="M7.76 15.62a2.25 2.25 0 0 0 -0.81 0.13 1.71 1.71 0 0 0 -1.3 0.91 2.07 2.07 0 0 0 -0.19 1.68 2.14 2.14 0 0 0 1.19 1.17 2.45 2.45 0 0 0 1.64 0.08 1.71 1.71 0 0 0 1.13 -1.44 2.49 2.49 0 0 0 -0.86 -2.24 1.45 1.45 0 0 0 -0.8 -0.29Zm0.17 2.9a1.34 1.34 0 0 1 -0.88 -0.05 1.11 1.11 0 0 1 -0.69 -0.47 1.13 1.13 0 0 1 0 -0.95 1.18 1.18 0 0 1 0.37 -0.51 0.35 0.35 0 0 0 0.2 0 2.19 2.19 0 0 1 0.66 -0.12 0.78 0.78 0 0 1 0.47 0.19 1.55 1.55 0 0 1 0.37 1.17 0.79 0.79 0 0 1 -0.5 0.74Z" fill="#4C57E6" fill-rule="evenodd" stroke-width="1"></path>
    <path d="M14.48 17.87a2 2 0 0 0 0.34 2 2 2 0 0 0 1.93 0.73 2.35 2.35 0 0 0 1.57 -1.5 1.79 1.79 0 0 0 -0.48 -2.1 1.25 1.25 0 0 0 -0.53 -0.26 1.84 1.84 0 0 0 -0.47 -0.06 0.3 0.3 0 0 0 -0.36 -0.17 4.09 4.09 0 0 0 -1.32 0.52 1.78 1.78 0 0 0 -0.68 0.84Zm0.84 0.29a1.16 1.16 0 0 1 0.45 -0.64 2.65 2.65 0 0 1 0.52 -0.29 0.34 0.34 0 0 0 0.27 0.13 2.42 2.42 0 0 1 0.47 0.06 0.64 0.64 0 0 1 0.29 0.18 0.94 0.94 0 0 1 0.08 1.11 1.28 1.28 0 0 1 -0.87 0.76 1 1 0 0 1 -0.88 -0.34 1.08 1.08 0 0 1 -0.33 -0.97Z" fill="#4C57E6" fill-rule="evenodd" stroke-width="1"></path>
    <path d="M17.7 7.2a1.59 1.59 0 0 0 -0.42 -0.2 3.09 3.09 0 0 0 -0.6 -0.08h-0.15a2.44 2.44 0 0 0 -1.09 0.47 2.08 2.08 0 0 0 -0.72 1 1.9 1.9 0 0 0 0.27 1.7 1.78 1.78 0 0 0 1.66 0.75 2.21 2.21 0 0 0 1.73 -1.54 1.81 1.81 0 0 0 -0.68 -2.1ZM17.44 9a1.17 1.17 0 0 1 -0.92 0.76 0.75 0.75 0 0 1 -0.66 -0.29 1 1 0 0 1 -0.27 -0.82 1.32 1.32 0 0 1 0.34 -0.65 1.73 1.73 0 0 1 0.57 -0.38 0.53 0.53 0 0 0 0.12 0 2.45 2.45 0 0 1 0.37 0.08 0.76 0.76 0 0 1 0.26 0.15A1 1 0 0 1 17.44 9Z" fill="#4C57E6" fill-rule="evenodd" stroke-width="1"></path>
  </g>
</svg>