<svg xmlns="http://www.w3.org/2000/svg" viewBox="0 0 24 24" id="Famous-Character-Marvel-Captianmarvel--Streamline-Freehand">
  <desc>
    Famous Character Marvel Captianmarvel Streamline Icon: https://streamlinehq.com
  </desc>
  <title>famous-character-marvel-captianmarvel</title>
  <g>
    <path d="M16.49 15.51c-0.52 0.29 -1 0.57 -1.56 0.84a13.12 13.12 0 0 1 -1.57 0.7c-0.29 0.12 -0.59 0.27 -0.89 0.39a1.71 1.71 0 0 1 -0.49 0.14 1 1 0 0 1 -0.41 -0.08c-0.36 -0.11 -0.73 -0.28 -1 -0.36 -0.74 -0.2 -1.46 -0.41 -2.18 -0.64l-1.85 -0.62c-0.23 0.08 -0.25 0.3 0.07 0.74q0.93 0.45 1.89 0.87c0.57 0.25 1.14 0.48 1.72 0.71 0.28 0.1 0.73 0.34 1.14 0.46a1.85 1.85 0 0 0 0.75 0.08 2.44 2.44 0 0 0 0.59 -0.15 11.62 11.62 0 0 0 1.07 -0.49 13.53 13.53 0 0 0 1.31 -0.69c0.62 -0.37 1.22 -0.78 1.82 -1.2 0.22 -0.15 0.44 -0.33 0.66 -0.49 0.37 -0.44 0.38 -0.73 0 -0.87l-0.14 0.06c-0.29 0.18 -0.61 0.41 -0.93 0.6Z" fill="#4C57E6" stroke-width="1"></path>
    <path d="M20.85 13.58a3.59 3.59 0 0 0 -0.51 -1.76 1.23 1.23 0 0 0 -1.34 -0.46l-0.35 0.14a9.5 9.5 0 0 0 -0.43 -1.86 5.5 5.5 0 0 0 -1 -1.74 2.5 2.5 0 0 0 0.51 -0.16 3.9 3.9 0 0 0 1.1 -0.74 4.08 4.08 0 0 0 0.36 -0.36 1.85 1.85 0 0 0 0.21 -0.33 1.41 1.41 0 0 0 0.17 -0.31 0.38 0.38 0 0 0 -0.05 -0.3 0.39 0.39 0 0 0 -0.37 -0.21 2.85 2.85 0 0 1 -0.66 -0.12c-0.35 -0.1 -0.68 -0.23 -1 -0.36a4.29 4.29 0 0 0 0.48 -0.36 3.54 3.54 0 0 0 0.8 -1 2.72 2.72 0 0 0 0.23 -0.6 0.82 0.82 0 0 0 0 -0.38 0.55 0.55 0 0 0 -0.23 -0.34c-0.12 -0.09 -0.7 0 -0.7 0h0.06l-1 0.2c-0.74 0.12 -1.46 0.11 -2.16 0.24l0.03 -0.23a3.93 3.93 0 0 0 0.17 -1.23 3 3 0 0 0 -0.12 -0.84 0.75 0.75 0 0 0 -0.5 -0.46 0.61 0.61 0 0 0 -0.51 0.13c-0.1 0.08 -0.33 0.31 -0.34 0.32l-1.34 1.1 -0.88 0.78a5.58 5.58 0 0 0 -1.07 2 8.35 8.35 0 0 0 -0.29 2l-0.87 0a2.75 2.75 0 0 0 -0.82 0.18 4.42 4.42 0 0 0 -0.8 0.44 6.17 6.17 0 0 0 -0.66 0.6 5.88 5.88 0 0 0 -1.34 2.54 7.8 7.8 0 0 0 -0.23 1.38 7.87 7.87 0 0 0 -1 0.19 1.32 1.32 0 0 0 -0.58 0.37 2.06 2.06 0 0 0 -0.48 1 8.3 8.3 0 0 0 -0.13 1.35 9.35 9.35 0 0 0 0.09 2.38 1.72 1.72 0 0 0 0.7 1.05 1.92 1.92 0 0 0 0.57 0.24 4.42 4.42 0 0 0 0.8 0.12 0.35 0.35 0 0 0 0.28 -0.09 9.18 9.18 0 0 0 0.32 1.49 6.06 6.06 0 0 0 2.19 3.09 6.5 6.5 0 0 0 0.81 0.5 7.19 7.19 0 0 0 0.86 0.37 7.33 7.33 0 0 0 1.07 0.3A8.06 8.06 0 0 0 12 24l1.37 0a4.55 4.55 0 0 0 1 -0.13 6.73 6.73 0 0 0 2 -0.86 4.44 4.44 0 0 0 1.54 -1.63 8.83 8.83 0 0 0 0.83 -2.84c0.05 -0.43 0.09 -0.86 0.11 -1.29a0.33 0.33 0 0 0 0.14 0 3.86 3.86 0 0 0 0.76 -0.1 1.52 1.52 0 0 0 0.56 -0.3 1.2 1.2 0 0 0 0.35 -0.52 3.33 3.33 0 0 0 0.16 -0.71 8.76 8.76 0 0 0 0.1 -1c-0.05 -0.37 -0.06 -0.7 -0.07 -1.04ZM5.43 17.49a3.58 3.58 0 0 1 -0.54 -0.14 1.32 1.32 0 0 1 -0.42 -0.23 1.19 1.19 0 0 1 -0.25 -0.85 15.68 15.68 0 0 1 0.12 -1.86l0 -1.22a1.23 1.23 0 0 1 0.15 -0.59 0.59 0.59 0 0 1 0.31 -0.25 4.11 4.11 0 0 1 0.56 -0.19l0 2.08c0 1.1 0.06 2.21 0.17 3.29Zm5.44 -9.86a10.71 10.71 0 0 1 0.42 -3 4.77 4.77 0 0 1 1 -1.64l0.71 -0.61 1 -0.75a3.86 3.86 0 0 1 -0.12 0.57 4.65 4.65 0 0 1 -0.39 0.85l-0.27 0.34a1.55 1.55 0 0 0 -0.35 0.32 0.51 0.51 0 0 0 -0.12 0.41 0.56 0.56 0 0 0 0.87 0.46l0.15 -0.1 0.14 -0.11 0.46 -0.25a4.09 4.09 0 0 1 1 -0.28c0.61 -0.09 1.23 -0.11 1.87 -0.22l0.2 0a3.31 3.31 0 0 1 -0.26 0.27 3.79 3.79 0 0 1 -0.77 0.56l-0.58 0.23 -0.28 0.09 -0.15 0a0.46 0.46 0 0 0 -0.25 0.27 0.47 0.47 0 0 0 0.38 0.63l1 0c0.59 0.11 1.13 0.36 1.7 0.5l0.23 0.05 -0.21 0.26a3.34 3.34 0 0 1 -0.72 0.55 1.79 1.79 0 0 1 -0.82 0.26 0.29 0.29 0 0 0 -0.18 0.07c-0.12 -0.08 -0.22 -0.18 -0.35 -0.25a3.75 3.75 0 0 0 -1 -0.4 7.87 7.87 0 0 0 -1 -0.17 0.17 0.17 0 0 0 0 -0.07 0.35 0.35 0 0 0 -0.43 -0.23 4 4 0 0 0 -1.88 1 3.84 3.84 0 0 0 -0.59 0.68 4.11 4.11 0 0 0 -0.43 0.8c0 0.08 0 0.16 -0.08 0.24 0.07 -0.49 0.09 -0.96 0.1 -1.33Zm6.76 10.75a7.75 7.75 0 0 1 -0.77 2.47A3.3 3.3 0 0 1 15.69 22a5.67 5.67 0 0 1 -1.64 0.7 3.76 3.76 0 0 1 -0.76 0.1l-1.27 0a7.37 7.37 0 0 1 -0.93 -0.11 5.44 5.44 0 0 1 -0.9 -0.25 5 5 0 0 1 -0.72 -0.3 5.59 5.59 0 0 1 -0.66 -0.41A5 5 0 0 1 7 19.23c-0.25 -0.72 -0.57 -0.69 -0.86 -4.69a15.48 15.48 0 0 1 0.26 -4.24 5.15 5.15 0 0 1 1.14 -2.21 3.38 3.38 0 0 1 0.54 -0.53 2.85 2.85 0 0 1 0.63 -0.38A2.08 2.08 0 0 1 9.33 7l0.8 0v0.63a12 12 0 0 0 0.13 1.91c0.06 0.34 0.37 1.55 0.7 1.55a0.31 0.31 0 0 0 0.32 -0.29A4.81 4.81 0 0 1 12 9.18l0.4 -0.62c0.13 -0.2 0.27 -0.4 0.42 -0.59a4.65 4.65 0 0 1 0.87 -0.85 0.29 0.29 0 0 0 0.1 0 7.89 7.89 0 0 1 1.33 0.23 3.12 3.12 0 0 1 0.77 0.34 3.91 3.91 0 0 1 1.6 2.19c0.79 2.53 0.22 8.04 0.14 8.5ZM19.71 16a0.38 0.38 0 0 1 -0.07 0.24 0.63 0.63 0 0 1 -0.3 0.21 3 3 0 0 1 -0.49 0.13l0 -2.29c0 -0.72 0 -1.4 -0.1 -2.15l0.33 -0.08a0.49 0.49 0 0 1 0.5 0.28 1.6 1.6 0 0 1 0.1 0.56 5.76 5.76 0 0 1 0 0.72l0 1.93a3.2 3.2 0 0 1 0.03 0.45Z" fill="#020202" stroke-width="1"></path>
    <path d="M13.7 19.87a5.09 5.09 0 0 1 -1.1 0l-0.74 0c-0.46 0 -0.9 0.12 -1.35 0.18a0.31 0.31 0 1 0 0 0.61c0.39 0.11 0.76 0.26 1.17 0.34a3.27 3.27 0 0 0 0.54 0 2.57 2.57 0 0 0 0.55 -0.06 3.75 3.75 0 0 0 1.23 -0.5 0.35 0.35 0 1 0 -0.26 -0.64Z" fill="#020202" stroke-width="1"></path>
    <path d="M9.57 14.47c1.53 -0.75 0.06 -2.08 -0.72 -1.67 -1.19 0.69 -0.59 2.31 0.72 1.67Z" fill="#020202" stroke-width="1"></path>
    <path d="M14.14 13Z" fill="#020202" stroke-width="1"></path>
    <path d="M15.33 14.63c1 -0.65 -0.05 -2.45 -1.18 -1.61 -0.75 0.82 0.07 2.29 1.18 1.61Z" fill="#020202" stroke-width="1"></path>
  </g>
</svg>