<svg xmlns="http://www.w3.org/2000/svg" viewBox="0 0 24 24" id="Famous-Game-Cross-The-Road-Racing-Game--Streamline-Freehand">
  <desc>
    Famous Game Cross The Road Racing Game Streamline Icon: https://streamlinehq.com
  </desc>
  <title>famous-game-cross-the-road-racing-game</title>
  <g>
    <path d="M2.17 9.06C2 6.64 1.83 4.23 1.65 1.81a0.31 0.31 0 0 0 -0.32 -0.3 0.31 0.31 0 0 0 -0.33 0.32l0 7.26c0 1 0 2.08 0.06 3.11s0.07 2.07 0.12 3.11c0.11 2.41 0.24 4.83 0.35 7.25a0.36 0.36 0 0 0 0.72 0c0 -2.43 0.07 -4.85 0.06 -7.27l0 -3.11c0 -1.04 -0.09 -2.09 -0.14 -3.12Z" fill="#020202" fill-rule="evenodd" stroke-width="1"></path>
    <path d="M23 19.63c0 -1.82 -0.21 -3.63 -0.21 -5.44s0 -3.7 -0.09 -5.55c-0.07 -2.78 -0.22 -5.55 -0.33 -8.33A0.32 0.32 0 0 0 22 0a0.31 0.31 0 0 0 -0.31 0.32c-0.08 2.78 -0.21 5.55 -0.21 8.34 0 1.85 0.06 3.71 0.12 5.56s0.38 3.63 0.51 5.45c0.06 0.77 0.09 1.53 0.08 2.3a0.36 0.36 0 0 0 0.34 0.38 0.36 0.36 0 0 0 0.37 -0.34 23.69 23.69 0 0 0 0.1 -2.38Z" fill="#020202" fill-rule="evenodd" stroke-width="1"></path>
    <path d="M20.85 13.68a3.81 3.81 0 0 0 -0.19 -1.16 1.58 1.58 0 0 0 -0.57 -0.74 2 2 0 0 0 -0.78 -0.31 7.68 7.68 0 0 0 -4 0.92 2.07 2.07 0 0 0 -0.54 0.67 3.68 3.68 0 0 0 -0.33 1.15 10.66 10.66 0 0 0 -0.09 1.38c0 0.68 0 1.35 0.08 2a13.43 13.43 0 0 0 0.12 2.1 2.13 2.13 0 0 0 0.49 1.06 3 3 0 0 0 1.91 0.86 6.24 6.24 0 0 0 2.82 -0.39A2 2 0 0 0 20.91 20a8 8 0 0 0 0.09 -3Zm-5.35 3.84c-0.09 -0.65 -0.17 -1.3 -0.2 -1.95l0 -0.9 1.39 0 0.74 0c0.25 0 0.49 0 0.74 -0.06 0.58 -0.06 1.16 -0.14 1.75 -0.19L20 17l0 1c-0.51 0 -1 -0.08 -1.53 -0.1l-0.73 0c-0.24 0 -0.48 0 -0.72 0.05 -0.5 0.07 -1 0.17 -1.47 0.27 -0.02 -0.22 -0.03 -0.49 -0.05 -0.7Zm0.31 -4.52a6.52 6.52 0 0 1 3.35 -0.69 1 1 0 0 1 0.44 0.19 0.78 0.78 0 0 1 0.27 0.48 3.21 3.21 0 0 1 0.06 0.75c-0.6 -0.09 -1.18 -0.18 -1.77 -0.22a6.77 6.77 0 0 0 -0.78 0 5.16 5.16 0 0 0 -0.78 0.08 10.63 10.63 0 0 0 -1.23 0.33 2 2 0 0 1 0.09 -0.33 1.37 1.37 0 0 1 0.35 -0.59Zm3.54 7.18a5.57 5.57 0 0 1 -1.87 0.33 2.19 2.19 0 0 1 -1.55 -0.51 1.49 1.49 0 0 1 -0.28 -0.75l0 -0.24c0.48 0.07 1 0.14 1.43 0.17a6.09 6.09 0 0 0 0.74 0l0.73 -0.07c0.49 -0.07 1 -0.17 1.44 -0.27a3.55 3.55 0 0 1 -0.06 0.47 1.07 1.07 0 0 1 -0.58 0.83Z" fill="#020202" fill-rule="evenodd" stroke-width="1"></path>
    <path d="M9.82 4.32a3.28 3.28 0 0 0 -0.19 -1.16 1.56 1.56 0 0 0 -0.56 -0.74 1.94 1.94 0 0 0 -0.78 -0.31 6.58 6.58 0 0 0 -3.07 0.48 2.59 2.59 0 0 0 -0.9 0.43 2 2 0 0 0 -0.54 0.68 3.7 3.7 0 0 0 -0.33 1.14 12.81 12.81 0 0 0 -0.1 1.39c0 0.67 0 1.35 0.08 2a16.51 16.51 0 0 0 0.12 2.1A2.33 2.33 0 0 0 4 11.41a3 3 0 0 0 2 0.87 6.36 6.36 0 0 0 2.82 -0.39 2 2 0 0 0 1.12 -1.24A8 8 0 0 0 10 7.59ZM4.47 8.16c-0.08 -0.65 -0.16 -1.3 -0.19 -1.95l0 -0.9 1.39 0 0.74 0 0.73 -0.06c0.59 -0.06 1.17 -0.14 1.75 -0.19l0 2.61c0 0.28 0 0.65 0.05 1 -0.52 0 -1 -0.07 -1.53 -0.09h-0.69c-0.24 0 -0.49 0 -0.73 0.06 -0.49 0.06 -1 0.17 -1.46 0.27 -0.02 -0.28 -0.03 -0.55 -0.06 -0.75Zm0.32 -4.57a1.89 1.89 0 0 1 0.63 -0.33 9.28 9.28 0 0 1 2.72 -0.35 1.13 1.13 0 0 1 0.44 0.19 0.78 0.78 0 0 1 0.27 0.48 3.16 3.16 0 0 1 0.05 0.75c-0.59 -0.09 -1.17 -0.18 -1.77 -0.22a6.54 6.54 0 0 0 -0.77 0 5.18 5.18 0 0 0 -0.78 0.09 7.44 7.44 0 0 0 -1.23 0.33 2.14 2.14 0 0 1 0.09 -0.34 1.28 1.28 0 0 1 0.35 -0.6Zm3.54 7.18a5.12 5.12 0 0 1 -1.87 0.33 2.09 2.09 0 0 1 -1.55 -0.49 1.38 1.38 0 0 1 -0.28 -0.75 1.6 1.6 0 0 1 0 -0.23c0.48 0.07 1 0.14 1.43 0.17h0.74c0.24 0 0.49 0 0.73 -0.07 0.49 -0.06 1 -0.16 1.44 -0.26a3.54 3.54 0 0 1 -0.07 0.47 1 1 0 0 1 -0.57 0.83Z" fill="#020202" fill-rule="evenodd" stroke-width="1"></path>
    <path d="M12.23 9.6c0 -2.71 -0.1 -5.42 -0.15 -8.12a0.3 0.3 0 0 0 -0.31 -0.32 0.32 0.32 0 0 0 -0.32 0.31c-0.12 2.7 -0.32 5.41 -0.38 8.12l0 5.43c0.09 2 0.29 4 0.42 6.05 0.05 0.85 0.09 1.71 0.11 2.57a0.34 0.34 0 0 0 0.4 0.36 0.36 0.36 0 0 0 0.36 -0.35l0 -2.61c0 -2 -0.11 -4 -0.1 -6 -0.03 -1.84 -0.01 -3.64 -0.03 -5.44Z" fill="#020202" fill-rule="evenodd" stroke-width="1"></path>
    <path d="M16.6 3.73a0.36 0.36 0 0 0 0.72 -0.06c0 -0.39 0.1 -0.75 0.13 -1.14a3.87 3.87 0 0 0 0 -0.48l0 -0.47c-0.05 -0.39 -0.16 -0.74 -0.23 -1.13a0.31 0.31 0 0 0 -0.3 -0.33 0.32 0.32 0 0 0 -0.33 0.3 9.37 9.37 0 0 0 -0.29 1.16 2.79 2.79 0 0 0 0 0.5 2.73 2.73 0 0 0 0.05 0.5c0.04 0.42 0.15 0.76 0.25 1.15Z" fill="#4C57E6" fill-rule="evenodd" stroke-width="1"></path>
    <path d="M17 6a0.32 0.32 0 0 0 -0.31 0.32c-0.08 0.4 -0.19 0.76 -0.25 1.15a2.79 2.79 0 0 0 0 0.5 2.7 2.7 0 0 0 0 0.49c0.05 0.4 0.14 0.77 0.21 1.16a0.36 0.36 0 0 0 0.72 0c0.06 -0.39 0.15 -0.76 0.2 -1.15a4.19 4.19 0 0 0 0 -0.5 2 2 0 0 0 0 -0.49 9.72 9.72 0 0 0 -0.27 -1.16A0.32 0.32 0 0 0 17 6Z" fill="#4C57E6" fill-rule="evenodd" stroke-width="1"></path>
    <path d="M6.49 17.35a0.35 0.35 0 0 0 0.37 0.34 0.36 0.36 0 0 0 0.34 -0.38c0 -0.41 0.11 -0.79 0.13 -1.19a4.34 4.34 0 0 0 0 -0.51 4.07 4.07 0 0 0 0 -0.49c-0.08 -0.4 -0.21 -0.75 -0.3 -1.15a0.32 0.32 0 0 0 -0.63 0 8.3 8.3 0 0 0 -0.22 1.21 2.9 2.9 0 0 0 0 0.51 4.46 4.46 0 0 0 0.07 0.51c0.03 0.39 0.14 0.8 0.24 1.15Z" fill="#4C57E6" fill-rule="evenodd" stroke-width="1"></path>
    <path d="M7 20a0.32 0.32 0 0 0 -0.33 -0.3 0.31 0.31 0 0 0 -0.3 0.32 11.45 11.45 0 0 0 -0.22 1.14 4 4 0 0 0 0 0.49 3.93 3.93 0 0 0 0.06 0.48c0.06 0.38 0.16 0.74 0.24 1.12a0.36 0.36 0 1 0 0.72 0c0.06 -0.39 0.13 -0.75 0.17 -1.14a2.64 2.64 0 0 0 0 -0.49 2.59 2.59 0 0 0 0 -0.48c-0.09 -0.4 -0.22 -0.75 -0.34 -1.14Z" fill="#4C57E6" fill-rule="evenodd" stroke-width="1"></path>
  </g>
</svg>