<svg xmlns="http://www.w3.org/2000/svg" viewBox="0 0 24 24" id="Famous-Character-Marvel-Blackpanther--Streamline-Freehand">
  <desc>
    Famous Character Marvel Blackpanther Streamline Icon: https://streamlinehq.com
  </desc>
  <title>famous-character-marvel-blackpanther</title>
  <g>
    <path d="M15.38 6.58c0 0.13 0 0.6 -0.06 0.85 -0.07 0.18 -0.47 0.12 -0.62 0.19a0.74 0.74 0 0 0 -0.28 0.22A3.5 3.5 0 0 0 14 9a8.86 8.86 0 0 0 -0.14 1.66 0.34 0.34 0 0 0 0.68 0 7.92 7.92 0 0 1 0.34 -1.45c0.36 -1 0.41 -0.61 0.76 -0.69a1.05 1.05 0 0 0 0.46 -0.24 1 1 0 0 0 0.25 -0.48c0.08 -0.29 0.13 -0.78 0.18 -1l0.5 -3c-0.1 -0.4 -0.49 -0.45 -0.68 -0.07s-0.46 1.33 -0.97 2.85Z" fill="#4C57E6" stroke-width="1"></path>
    <path d="M20.89 7.58c0.23 -1 0.48 -2.06 0.62 -3.12a11.62 11.62 0 0 0 0.07 -2.2 6.26 6.26 0 0 0 -0.27 -1.47 1.22 1.22 0 0 0 -0.73 -0.79 0.8 0.8 0 0 0 -0.47 0 3.47 3.47 0 0 0 -0.49 0.27l-0.69 0.41c-0.34 0.21 -0.66 0.44 -1 0.67a6.25 6.25 0 0 0 -0.85 0.69c-0.07 0.07 -0.14 0.16 -0.21 0.24a14.49 14.49 0 0 0 -1.41 -0.54A10.08 10.08 0 0 0 8.69 2a9.15 9.15 0 0 0 -1.42 0.75c-0.68 -0.26 -1.33 -0.58 -2 -0.84a6.67 6.67 0 0 0 -1.08 -0.31 3.16 3.16 0 0 0 -1.11 -0.08 0.79 0.79 0 0 0 -0.55 0.4 1.43 1.43 0 0 0 -0.13 0.64c0 0.5 0.18 1.26 0.19 1.52s0.06 0.52 0.09 0.75 0.09 0.48 0.16 0.77L3.5 8a8.57 8.57 0 0 0 -0.24 1.61 17.41 17.41 0 0 0 0.23 3.46 27.27 27.27 0 0 0 0.31 3.47 7.6 7.6 0 0 0 1 2.84 7.44 7.44 0 0 0 1.2 1.3 13.62 13.62 0 0 0 2 1.48 13.75 13.75 0 0 0 2.64 1.35 8.8 8.8 0 0 0 3 0.49l1.06 0a2.76 2.76 0 0 0 0.83 -0.22 6.26 6.26 0 0 0 1.67 -1.2 21.16 21.16 0 0 0 1.8 -2.22 17.78 17.78 0 0 0 1.22 -1.69 5.7 5.7 0 0 0 0.61 -1.33 8.6 8.6 0 0 0 0.3 -2.34c0 -1 -0.34 -6.77 -0.41 -7.21a0.36 0.36 0 0 0 0.17 -0.21Zm-5.84 -4.87a10.47 10.47 0 0 1 3 1.57 6 6 0 0 1 1.51 2.48c-0.41 0.76 -0.81 1.56 -1.29 2.31a7.41 7.41 0 0 1 -1.06 1.36 10.45 10.45 0 0 1 -1.84 1.11 2.86 2.86 0 0 0 -0.85 0.81 4.15 4.15 0 0 0 -0.43 0.87c-0.23 0.62 -0.39 1.32 -0.63 1.86 0 0 -0.06 0.28 -0.11 0.46l-0.66 -0.08c-0.26 0 -0.61 -0.05 -0.92 -0.1a0.92 0.92 0 0 1 -0.34 -0.12 2.29 2.29 0 0 1 -0.61 -0.93A14.62 14.62 0 0 0 10.2 13a2.86 2.86 0 0 0 -0.52 -0.66 2.7 2.7 0 0 0 -0.63 -0.43A17 17 0 0 1 6.81 11a4.56 4.56 0 0 1 -1 -1.09c-0.48 -0.68 -0.89 -1.47 -1.23 -2a0.24 0.24 0 0 0 -0.13 -0.09 6 6 0 0 1 0.26 -0.58A8.83 8.83 0 0 1 8.7 3a9.11 9.11 0 0 1 6.35 -0.29Zm2.5 8.63c-0.17 0.4 -0.34 0.79 -0.5 1.19a3.91 3.91 0 0 1 -0.23 0.61 1.08 1.08 0 0 1 -0.24 0.39 2.69 2.69 0 0 1 -0.94 0.5l-0.7 0.21c0.06 -0.22 0.12 -0.44 0.2 -0.65a3.24 3.24 0 0 1 0.29 -0.68 1.78 1.78 0 0 1 0.52 -0.54c0.51 -0.37 1.12 -0.64 1.6 -1.03Zm-7.93 2.94c-0.47 -0.12 -1 -0.17 -1.43 -0.29 -0.84 -0.22 -0.68 -0.6 -0.8 -0.87l-0.66 -1.2c0.5 0.28 1.09 0.46 1.61 0.72a2.1 2.1 0 0 1 0.63 0.42 3.12 3.12 0 0 1 0.57 1c0.03 0.1 0.05 0.16 0.08 0.22ZM3.78 5.44 3.71 4c-0.09 -1.76 -1 -1.5 0.31 -1.36a5.9 5.9 0 0 1 1 0.17c0.53 0.14 1 0.31 1.57 0.47A9.52 9.52 0 0 0 4 6.7ZM8.5 21.22a13.37 13.37 0 0 1 -1.88 -1.29 6.26 6.26 0 0 1 -1 -1.06 6.72 6.72 0 0 1 -1 -2.47c0 -0.21 -0.08 -0.43 -0.11 -0.65l2.79 2.1c0.19 0.12 0.51 0.29 0.78 0.48a0.87 0.87 0 0 1 0.27 0.21l0.2 1.14 0.4 1.77ZM20.33 15a8.25 8.25 0 0 1 -0.33 2.08 4.89 4.89 0 0 1 -0.56 1.09 14.55 14.55 0 0 1 -1.21 1.55c-0.47 0.55 -1 1.14 -1.5 1.68q0.14 -0.7 0.21 -1.41c0 -0.4 0.06 -0.83 0.12 -1.24a2 2 0 0 1 0.2 -0.62 1.57 1.57 0 0 1 0.31 -0.38c0.24 -0.25 0.51 -0.47 0.73 -0.68 0.52 -0.57 1.07 -1.11 1.59 -1.68 0.16 -0.18 0.32 -0.35 0.47 -0.54Zm-0.74 -0.43c-0.67 0.6 -1.4 1.13 -2.09 1.69 -0.27 0.25 -0.63 0.51 -0.91 0.81a2.27 2.27 0 0 0 -0.38 0.53 2.6 2.6 0 0 0 -0.29 1 11.82 11.82 0 0 0 0 1.33c0 0.45 0 0.91 -0.05 1.37s-0.07 0.62 -0.1 0.93a4.71 4.71 0 0 1 -0.8 0.48 1.89 1.89 0 0 1 -0.47 0.11l-1 0a7.35 7.35 0 0 1 -2.6 -0.42 8 8 0 0 1 -1.18 -0.5l-0.25 -2.4 0 -0.95a1.89 1.89 0 0 0 -0.16 -0.55 1.9 1.9 0 0 0 -0.48 -0.52c-0.31 -0.23 -0.73 -0.44 -1 -0.59l-3.54 -2c0 -0.38 -0.09 -0.77 -0.12 -1.15s0 -0.09 0 -0.14c0 -0.39 -0.07 -0.78 -0.11 -1.15A15 15 0 0 1 4 9.69a7.79 7.79 0 0 1 0.25 -1.19c0.28 0.54 0.6 1.2 1 1.79 0.17 0.29 0.47 1 0.51 1.07l0.62 2.18c0.07 0.18 0.15 0.48 0.26 0.71a1.21 1.21 0 0 0 0.36 0.43A2.52 2.52 0 0 0 8 15a10.76 10.76 0 0 1 1.9 0.09l0.1 0a3.36 3.36 0 0 0 0.16 0.33 2.59 2.59 0 0 0 0.59 0.68 1.84 1.84 0 0 0 0.63 0.3 10.37 10.37 0 0 0 1.16 0.16c0.22 0 0.48 0.09 0.73 0.11a2.12 2.12 0 0 0 0.44 0 0.69 0.69 0 0 0 0.47 -0.33c0.12 -0.2 0.31 -0.76 0.36 -0.85s0.13 -0.37 0.19 -0.57a8.45 8.45 0 0 0 1.67 -0.17 2.78 2.78 0 0 0 0.87 -0.36 1.82 1.82 0 0 0 0.53 -0.65 4.47 4.47 0 0 0 0.33 -0.92c0.11 -0.51 0.25 -1 0.36 -1.53a9.83 9.83 0 0 0 0.19 -1.06 4.62 4.62 0 0 1 0.32 -0.74c0.31 -0.55 0.59 -1.13 0.86 -1.69 0.21 1 0.49 6 0.49 6q-0.35 0.42 -0.76 0.76Zm0.89 -9.68c0 0.45 -0.07 0.91 -0.12 1.35a6.82 6.82 0 0 0 -1.57 -2.67 5.18 5.18 0 0 0 -1.25 -0.92l0.14 -0.12a8.1 8.1 0 0 1 0.7 -0.42l1.7 -0.81a1.44 1.44 0 0 0 0.17 -0.12c0 0.08 0 0.19 0.05 0.26a5.48 5.48 0 0 1 0.13 1 11.58 11.58 0 0 1 0.05 2.44Z" fill="#020202" stroke-width="1"></path>
    <path d="M12.76 4.29a5.28 5.28 0 0 0 0 0.55c0 0.43 0.13 0.84 0.21 1.26a0.34 0.34 0 1 0 0.68 0c0.07 -0.42 0.15 -0.82 0.19 -1.25a4.73 4.73 0 0 0 0 -0.53 3.13 3.13 0 0 0 0 -0.53c0 -0.35 -0.09 -0.69 -0.13 -1a0.37 0.37 0 0 0 -0.69 -0.08 7.78 7.78 0 0 0 -0.28 1.08 4.89 4.89 0 0 0 0.02 0.5Z" fill="#4C57E6" stroke-width="1"></path>
    <path d="M9.2 4.32a3.86 3.86 0 0 0 0.24 0.8c0.15 0.38 0.34 0.73 0.5 1.12a0.35 0.35 0 0 0 0.42 0.25 0.34 0.34 0 0 0 0.25 -0.41c0 -0.42 0 -0.82 -0.11 -1.23 0 -0.17 -0.06 -0.33 -0.1 -0.5s-0.1 -0.32 -0.16 -0.48S10 3.31 9.85 3c-0.34 -0.29 -0.74 -0.09 -0.71 0.44a4.1 4.1 0 0 0 0.06 0.88Z" fill="#4C57E6" stroke-width="1"></path>
    <path d="M6.84 7a5.35 5.35 0 0 0 0.16 0.77 0.83 0.83 0 0 0 0.3 0.43 1.19 1.19 0 0 0 0.47 0.21 3.1 3.1 0 0 0 0.69 0.08l0.3 0a1.57 1.57 0 0 1 0.43 0.65c0.24 0.51 0.42 1.11 0.58 1.48a0.34 0.34 0 0 0 0.44 0.2 0.33 0.33 0 0 0 0.2 -0.44c-0.12 -0.45 -0.24 -1.23 -0.45 -1.84a2 2 0 0 0 -0.54 -0.88 1.15 1.15 0 0 0 -0.48 -0.25 4.49 4.49 0 0 0 -0.67 -0.1c-0.51 -0.07 -0.18 0 -0.34 -0.61s-0.44 -1.07 -0.61 -1.63a3.5 3.5 0 0 1 -0.12 -0.63c-0.3 -0.22 -0.67 0.13 -0.69 0.52l0 0.27c0.07 0.62 0.23 1.21 0.33 1.77Z" fill="#4C57E6" stroke-width="1"></path>
  </g>
</svg>