<svg xmlns="http://www.w3.org/2000/svg" viewBox="0 0 24 24" id="Farming-Barn-Sun--Streamline-Freehand">
  <desc>
    Farming Barn Sun Streamline Icon: https://streamlinehq.com
  </desc>
  <g>
    <path d="M24 13.29c0 -0.56 -0.14 0 -1.77 -1.77l-2 -2.28 -0.53 -0.74a0.6 0.6 0 0 0 -0.32 -0.16 3.25 3.25 0 0 0 -0.53 0L17 8.42c-0.48 0 -1 0.07 -1.44 0.13 -1.08 0.13 -2.16 0.34 -3.25 0.44a4.94 4.94 0 0 1 -2.21 -0.09 0.6 0.6 0 0 0 -0.31 0.1 3.59 3.59 0 0 0 -0.27 0.25l-0.73 0.75c-0.44 0.48 -0.87 1 -1.28 1.45 -2.46 2.94 -1.85 1.79 -1.77 7.13 0 0.59 -0.07 1.21 -0.07 1.82a7.63 7.63 0 0 0 0 0.84 0.66 0.66 0 0 0 0.41 0.5 3.24 3.24 0 0 0 0.9 0.17 10.93 10.93 0 0 0 1.28 0c0.62 0 1.24 -0.1 1.85 -0.15s1 -0.06 1.5 -0.07l3.59 0 2.71 -0.3c5.35 -0.27 5.23 -0.21 5.35 -0.34s0.11 0.31 0.48 -3.65c0.07 -0.77 0.14 -1.54 0.18 -2.33l0 -1.46s0.08 -0.23 0.08 -0.32Zm-1.2 7.24 -3.32 0c0 -0.8 0.08 -1.59 0.09 -2.39V18c0.82 -0.05 1.64 -0.12 2.45 -0.19l1 0c-0.1 0.86 -0.16 1.79 -0.23 2.72Zm-10.36 -3.42 -1.77 0.19 0 -0.18 0 -1.68 0 -1.13H11l3.07 -0.31h0.24a7.1 7.1 0 0 0 -0.17 0.92c-0.07 0.57 -0.09 1.14 -0.14 1.7v0.42Zm-6.18 -2.7 1.29 -0.06 2.09 0 0 2.68 0 0.4 -0.82 0.09c-0.5 0.05 -1 0.12 -1.52 0.13a4.25 4.25 0 0 1 -0.87 -0.06Zm4.22 -4.11c0.22 0.23 0.41 0.48 0.53 0.6s0.4 0.4 0.61 0.59c0.62 0.56 1.29 1.07 1.93 1.62l-2.63 0.38 -0.26 0c-0.05 -1.06 -0.12 -2.12 -0.18 -3.19Zm4.41 4.41a5 5 0 0 1 0 -0.67l1.59 0 2.19 -0.04a22.27 22.27 0 0 0 -0.2 2.45l0 0.67 -3.18 0H15l0 -0.4c0 -0.72 -0.1 -1.36 -0.11 -2.01ZM19.5 16c-0.06 -0.7 -0.13 -1.39 -0.19 -2.09l1.17 0c0.41 0 0.82 -0.05 1.23 -0.1s0.69 -0.11 1.07 -0.13h0.28l0 1.39c0 0.68 0 1.35 -0.07 2l-1 0 -2.42 0c-0.03 -0.35 -0.04 -0.7 -0.07 -1.07Zm-2.42 -6.52 1.76 -0.08 0.23 0 0.37 0.47 2.21 2.17a9.66 9.66 0 0 0 0.75 0.64l-0.8 0.08 -0.86 0.05 -2 0a18.61 18.61 0 0 0 -1.06 -1.61c-0.19 -0.25 -0.4 -0.5 -0.61 -0.73l-0.45 -0.44 -0.68 -0.55Zm-4 0.23c0.66 0 1.31 -0.08 2 -0.13l0.84 1.12c0.12 0.17 0.23 0.35 0.36 0.51s0.39 0.49 0.6 0.73l0.94 1 -1.33 0.06H15l-0.58 0c-0.59 -0.67 -1.27 -1.28 -1.9 -1.91a10.56 10.56 0 0 1 -0.78 -0.87l-0.44 -0.58a16.78 16.78 0 0 0 1.76 0.07ZM7.82 12.4c0.55 -0.56 1.12 -1.09 1.71 -1.62l0.32 -0.33c-0.07 1 -0.14 2.08 -0.18 3.13l-3.2 0.25c0.44 -0.49 0.89 -0.97 1.35 -1.43Zm0.42 8.5a11.73 11.73 0 0 1 -1.18 0 2.74 2.74 0 0 0 -0.45 -0.12l0 -0.4 0 -1.83 0 -0.43a5.27 5.27 0 0 0 0.81 0.1l1.58 0 0.8 0q0.06 1.26 0.09 2.52c-0.61 0.06 -1.13 0.12 -1.65 0.16Zm3.4 -0.25 -1.17 0.05c0.06 -0.83 0.11 -1.66 0.15 -2.5l1.85 -0.06 1.54 0 0 0.33c0 0.77 0.13 1.52 0.21 2.27 -0.86 -0.05 -1.72 -0.09 -2.58 -0.09Zm6.27 -0.09 -2.68 0.17h-0.3c0 -0.77 0.09 -1.53 0.11 -2.3l0 -0.33 2.19 0c0.44 0 0.87 0 1.31 -0.06l0 0.13c0.07 0.81 0.18 1.61 0.26 2.42Z" fill="#020202" fill-rule="evenodd" stroke-width="1"></path>
    <path d="M5.94 11.74a0.28 0.28 0 0 0 -0.16 -0.36 3.1 3.1 0 0 1 -1 -0.77 2.1 2.1 0 0 1 -0.46 -1.1 2.38 2.38 0 0 1 0.21 -1.33 2.8 2.8 0 0 1 0.8 -1.08 2.08 2.08 0 0 1 2.5 -0.23 2.16 2.16 0 0 1 0.56 0.48 5.2 5.2 0 0 1 0.44 0.65 0.33 0.33 0 0 0 0.44 0.12 0.32 0.32 0 0 0 0.11 -0.44 5.83 5.83 0 0 0 -0.58 -0.93 3 3 0 0 0 -4.17 -0.49A3.47 3.47 0 0 0 3.5 7.79a3.35 3.35 0 0 0 -0.11 1.89 2.86 2.86 0 0 0 0.83 1.42 3.9 3.9 0 0 0 1.35 0.8 0.3 0.3 0 0 0 0.37 -0.16Z" fill="#020202" fill-rule="evenodd" stroke-width="1"></path>
    <path d="M5.89 4.05a0.31 0.31 0 0 0 0.33 0.3 0.32 0.32 0 0 0 0.31 -0.35 4.8 4.8 0 0 0 0.15 -0.63 2.44 2.44 0 0 0 0 -0.27 1.09 1.09 0 0 0 -0.05 -0.26 4 4 0 0 0 -0.3 -0.58 0.28 0.28 0 0 0 -0.56 0.06c0 0.22 -0.13 0.4 -0.16 0.62a1.13 1.13 0 0 0 0 0.26 1.29 1.29 0 0 0 0.06 0.25c0.07 0.23 0.15 0.39 0.22 0.6Z" fill="#4C57E6" fill-rule="evenodd" stroke-width="1"></path>
    <path d="M9.82 5.9c0.15 -0.13 0.32 -0.18 0.48 -0.31l0.17 -0.17c0 -0.06 0.09 -0.13 0.14 -0.2s0.17 -0.37 0.26 -0.55a0.32 0.32 0 1 0 -0.46 -0.45 6.05 6.05 0 0 0 -0.55 0.32l-0.21 0.19A1.14 1.14 0 0 0 9.5 5a2 2 0 0 0 -0.18 0.68 0.28 0.28 0 0 0 0.12 0.32 0.29 0.29 0 0 0 0.38 -0.1Z" fill="#4C57E6" fill-rule="evenodd" stroke-width="1"></path>
    <path d="m1.87 5.54 0.13 0.17 0.19 0.13c0.16 0.1 0.32 0.15 0.49 0.24a0.32 0.32 0 0 0 0.47 -0.44 5 5 0 0 0 -0.26 -0.52 1.39 1.39 0 0 0 -0.15 -0.19 1.33 1.33 0 0 0 -0.19 -0.14 5 5 0 0 0 -0.55 -0.2 0.29 0.29 0 0 0 -0.4 0 0.28 0.28 0 0 0 0 0.4 3.25 3.25 0 0 0 0.27 0.55Z" fill="#4C57E6" fill-rule="evenodd" stroke-width="1"></path>
    <path d="M2.29 9.11a0.31 0.31 0 0 0 -0.21 -0.4 2.94 2.94 0 0 0 -0.61 -0.32l-0.27 -0.07a0.87 0.87 0 0 0 -0.28 0 3.92 3.92 0 0 0 -0.61 0.18 0.29 0.29 0 0 0 -0.31 0.27 0.28 0.28 0 0 0 0.26 0.3 3.41 3.41 0 0 0 0.67 0.3 1.67 1.67 0 0 0 0.39 0c0.21 0 0.38 -0.07 0.57 -0.07a0.32 0.32 0 0 0 0.4 -0.19Z" fill="#4C57E6" fill-rule="evenodd" stroke-width="1"></path>
    <path d="M3.38 11.8c-0.19 0.1 -0.37 0.15 -0.56 0.24a1.09 1.09 0 0 0 -0.23 0.14 0.81 0.81 0 0 0 -0.19 0.18 2.77 2.77 0 0 0 -0.35 0.6 0.28 0.28 0 0 0 0.38 0.41c0.21 -0.09 0.4 -0.11 0.6 -0.21a1.18 1.18 0 0 0 0.22 -0.16 1.14 1.14 0 0 0 0.19 -0.19 4.35 4.35 0 0 0 0.38 -0.57 0.32 0.32 0 0 0 0 -0.45 0.33 0.33 0 0 0 -0.44 0.01Z" fill="#4C57E6" fill-rule="evenodd" stroke-width="1"></path>
  </g>
</svg>