<svg xmlns="http://www.w3.org/2000/svg" viewBox="0 0 24 24" id="Farming-Hydroponic--Streamline-Freehand">
  <desc>
    Farming Hydroponic Streamline Icon: https://streamlinehq.com
  </desc>
  <g>
    <path d="M8.76 17.22A8.77 8.77 0 0 1 8 18.38a0.32 0.32 0 0 0 0 0.45 0.33 0.33 0 0 0 0.46 0 6.93 6.93 0 0 0 1.26 -1.28 4.3 4.3 0 0 0 0.41 -0.67 3.58 3.58 0 0 0 0.29 -0.73 4 4 0 0 0 0.14 -1.05c-0.1 -0.36 -0.59 -0.15 -0.82 0.15s-0.26 0.47 -0.43 0.83 -0.31 0.77 -0.55 1.14Z" fill="#020202" fill-rule="evenodd" stroke-width="1"></path>
    <path d="M15.26 16.69a4.63 4.63 0 0 0 0.4 0.48 5.23 5.23 0 0 0 1.15 0.89 0.33 0.33 0 0 0 0.46 0 0.34 0.34 0 0 0 -0.06 -0.46 6.54 6.54 0 0 1 -0.46 -0.56c-0.14 -0.2 -0.25 -0.41 -0.4 -0.62s-0.26 -0.4 -0.4 -0.59 -0.4 -0.53 -0.57 -0.79a0.43 0.43 0 0 0 -0.71 0.36 3 3 0 0 0 0.28 0.81 2.82 2.82 0 0 0 0.31 0.48Z" fill="#020202" fill-rule="evenodd" stroke-width="1"></path>
    <path d="M23.74 8.71a0.32 0.32 0 0 0 -0.38 0.25c-0.3 1.1 -1.66 6.3 -2.18 8.41 -0.19 0.65 -0.4 1.51 -0.67 2.28s-0.43 1.18 -0.94 1.24a7.34 7.34 0 0 1 -0.82 0.09l-1.29 0 -5.69 0c-0.81 0 -1.61 0 -2.42 -0.07a16.27 16.27 0 0 0 -1.85 0c-0.63 0 -1.26 0.07 -1.87 0.15a7.65 7.65 0 0 1 -1.44 0.16 2 2 0 0 1 -0.55 -0.09 2.52 2.52 0 0 0 -0.15 -0.52l-0.66 -2.29C2.32 16 0.85 10.11 0.56 9.05a0.28 0.28 0 0 0 -0.33 -0.22 0.28 0.28 0 0 0 -0.23 0.34l1 4.24 1 5.09 0.57 2.29a6.42 6.42 0 0 0 0.14 0.75 0.59 0.59 0 0 0 0.24 0.3 2.6 2.6 0 0 0 1.2 0.35 9.78 9.78 0 0 0 1.63 -0.12A14.42 14.42 0 0 1 7.52 22l1.76 0c0.83 0.06 1.65 0.09 2.47 0.09 1.9 0 3.8 -0.07 5.7 -0.06l1.36 0a7.32 7.32 0 0 0 0.94 -0.12 3.35 3.35 0 0 0 0.56 -0.1 0.66 0.66 0 0 0 0.35 -0.23 4.55 4.55 0 0 0 0.6 -1.19c0.32 -0.88 0.55 -2 0.75 -2.75l1 -4.7 0.99 -3.85a0.32 0.32 0 0 0 -0.26 -0.38Z" fill="#020202" fill-rule="evenodd" stroke-width="1"></path>
    <path d="M3 14.47a2.88 2.88 0 0 0 2.42 0 2.33 2.33 0 0 0 0.58 -0.31 3.27 3.27 0 0 0 0.44 -0.47l0.41 0.28a5.29 5.29 0 0 0 1.75 0.63c1.76 0.28 2.18 -0.35 2.2 -0.37a3.37 3.37 0 0 0 0.76 -0.59s0.1 -0.22 0.2 -0.4a4.44 4.44 0 0 0 1.78 1.08 2.5 2.5 0 0 0 2.29 -0.11 4.63 4.63 0 0 0 1.17 -0.63l0.59 -0.58 0.12 0.07a8.21 8.21 0 0 0 1.06 0.78 2.86 2.86 0 0 0 2.18 0.2 2.78 2.78 0 0 0 0.92 -0.73c0.23 -0.33 0.33 -0.88 0 -0.81a1.48 1.48 0 0 1 -1.09 0.84 2 2 0 0 1 -1.59 -0.22 8 8 0 0 1 -0.92 -0.75 2.39 2.39 0 0 0 -0.57 -0.34 0.62 0.62 0 0 0 -0.54 0.16c-0.19 0.16 -0.64 0.59 -0.67 0.6a3.43 3.43 0 0 1 -1.86 0.57 2.22 2.22 0 0 1 -0.85 -0.17 3.81 3.81 0 0 1 -0.8 -0.49c-0.17 -0.13 -0.38 -0.35 -0.61 -0.5a1.29 1.29 0 0 0 -0.48 -0.22 0.62 0.62 0 0 0 -0.6 0.24c-0.12 0.16 -0.4 0.57 -0.44 0.61a2.15 2.15 0 0 1 -0.5 0.4 2.22 2.22 0 0 1 -0.6 0.24 2.71 2.71 0 0 1 -1.17 0 4.52 4.52 0 0 1 -1.19 -0.41c-0.17 -0.09 -0.36 -0.24 -0.56 -0.35a1.72 1.72 0 0 0 -0.38 -0.16 0.51 0.51 0 0 0 -0.57 0.21 6.15 6.15 0 0 1 -0.4 0.76 1.52 1.52 0 0 1 -0.35 0.26 1.76 1.76 0 0 1 -1.8 0c-0.76 -0.57 -1 -1.1 -1.27 -0.89s-0.1 0.44 0.07 0.79a3 3 0 0 0 0.87 0.78Z" fill="#4C57E6" fill-rule="evenodd" stroke-width="1"></path>
    <path d="M12 16.38a5.42 5.42 0 0 0 0.14 0.7 13.31 13.31 0 0 0 0.5 1.58 0.32 0.32 0 0 0 0.38 0.24 0.33 0.33 0 0 0 0.25 -0.39c-0.07 -0.56 -0.08 -1.18 -0.14 -1.81 0 -0.35 -0.07 -0.71 -0.12 -1s-0.12 -0.75 -0.15 -1.14 -0.56 -0.4 -0.7 -0.1a3.86 3.86 0 0 0 -0.16 1.2 5.78 5.78 0 0 0 0 0.72Z" fill="#020202" fill-rule="evenodd" stroke-width="1"></path>
    <path d="M6.63 9.69a6.19 6.19 0 0 0 2.18 2 0.28 0.28 0 0 0 0.38 -0.12 0.27 0.27 0 0 0 -0.11 -0.38 5.52 5.52 0 0 1 -1.9 -1.82 7.18 7.18 0 0 1 -1 -2.45 2.72 2.72 0 0 1 0.08 -1.35A1.52 1.52 0 0 1 7 4.58a0.91 0.91 0 0 1 0.52 0 1.9 1.9 0 0 1 0.6 0.17 4 4 0 0 1 1.31 1 6 6 0 0 1 0.93 1.45q0.21 0.45 0.39 0.93 0.12 0.3 0.21 0.6l0.14 0.6c0 0.07 0 0.23 0.05 0.27a0.55 0.55 0 0 0 0.24 0.33 0.56 0.56 0 0 0 0.84 -0.45 10.2 10.2 0 0 1 0.63 -3.13 6.76 6.76 0 0 1 1.67 -2.61 3.64 3.64 0 0 1 1.93 -1 1.32 1.32 0 0 1 1.54 0.82l0.18 0.65a4.05 4.05 0 0 1 -0.15 1.53 10.54 10.54 0 0 1 -1 2.26 11.6 11.6 0 0 1 -0.79 1.26 9.4 9.4 0 0 1 -1 1.13 0.32 0.32 0 0 0 0 0.46 0.31 0.31 0 0 0 0.45 0 9.12 9.12 0 0 0 1.06 -1.18 12 12 0 0 0 0.88 -1.31A11.3 11.3 0 0 0 18.83 6a4.75 4.75 0 0 0 0.22 -1.85 3.35 3.35 0 0 0 -0.05 -0.48 2.25 2.25 0 0 0 -0.14 -0.44A2.11 2.11 0 0 0 17 1.81 4.54 4.54 0 0 0 13.85 3a7.88 7.88 0 0 0 -2 3 11.58 11.58 0 0 0 -0.36 1.14c-0.05 -0.12 -0.1 -0.23 -0.16 -0.35a6.84 6.84 0 0 0 -1.14 -1.68 4.86 4.86 0 0 0 -1.67 -1.27 3 3 0 0 0 -1.1 -0.23 1.7 1.7 0 0 0 -0.82 0.18 2.31 2.31 0 0 0 -1 1.15A3.46 3.46 0 0 0 5.44 7a7.83 7.83 0 0 0 1.19 2.69Z" fill="#020202" fill-rule="evenodd" stroke-width="1"></path>
  </g>
</svg>