<svg xmlns="http://www.w3.org/2000/svg" viewBox="0 0 24 24" id="Farming-Market-Carrot-Box--Streamline-Freehand">
  <desc>
    Farming Market Carrot Box Streamline Icon: https://streamlinehq.com
  </desc>
  <g>
    <path d="M4.5 16.17a1 1 0 0 0 1 -0.28 0.77 0.77 0 0 0 -0.5 -1.3 0.73 0.73 0 0 0 -0.85 0.32 0.79 0.79 0 0 0 0.35 1.26Z" fill="#4C57E6" stroke-width="1"></path>
    <path d="M19.58 16.34a1 1 0 0 0 0.94 -0.28 0.77 0.77 0 0 0 -0.48 -1.3 0.73 0.73 0 0 0 -0.85 0.32 0.79 0.79 0 0 0 0.39 1.26Z" fill="#4C57E6" stroke-width="1"></path>
    <path d="M19.85 19.42a0.74 0.74 0 0 0 -0.85 0.32 0.79 0.79 0 0 0 0.39 1.26 1 1 0 0 0 0.95 -0.28 0.78 0.78 0 0 0 -0.49 -1.3Z" fill="#4C57E6" stroke-width="1"></path>
    <path d="M5.4 19.45a0.73 0.73 0 0 0 -0.85 0.32 0.79 0.79 0 0 0 0.39 1.23 1 1 0 0 0 0.94 -0.28 0.77 0.77 0 0 0 -0.48 -1.27Z" fill="#4C57E6" stroke-width="1"></path>
    <path d="M11.81 10.35a2.72 2.72 0 0 0 0.58 0.13c0.3 0 0.57 0 0.86 0.06a0.34 0.34 0 0 0 0.44 -0.18 0.33 0.33 0 0 0 -0.18 -0.43 4.54 4.54 0 0 0 -0.83 -0.47 2.6 2.6 0 0 0 -0.36 -0.13 2.08 2.08 0 0 0 -0.32 -0.06l-0.84 0a0.3 0.3 0 1 0 -0.24 0.54 3.72 3.72 0 0 0 0.89 0.54Z" fill="#020202" stroke-width="1"></path>
    <path d="m23.5 15.62 0 -1.65a2.31 2.31 0 0 0 -0.11 -0.56 0.91 0.91 0 0 0 -0.27 -0.37 1.62 1.62 0 0 0 -0.46 -0.21 5.36 5.36 0 0 0 -0.77 -0.09l-2.13 -0.27c-1 -0.1 -2.08 -0.18 -3.13 -0.23a0.31 0.31 0 0 0 0.2 -0.14c0.37 -0.54 0.71 -1.07 1 -1.63a10.16 10.16 0 0 0 0.55 -1.2 9.61 9.61 0 0 0 0.61 -2 3.05 3.05 0 0 0 -0.14 -1.56 2.15 2.15 0 0 0 -0.61 -0.84A3.74 3.74 0 0 0 17 4.21a6.19 6.19 0 0 0 -2.21 -0.4L13.73 4l-0.53 0.2 -0.07 0a3.76 3.76 0 0 0 -1.16 1 8.93 8.93 0 0 0 -1.1 1.75 18 18 0 0 0 -1.28 3c0 0.1 -0.05 0.21 -0.08 0.31 0 -0.23 -0.08 -0.47 -0.14 -0.7A11.16 11.16 0 0 0 8.86 8a10.19 10.19 0 0 0 -0.43 -1 2.66 2.66 0 0 0 -0.51 -0.65 3.82 3.82 0 0 0 -0.47 -0.31L7 5.84a3.65 3.65 0 0 0 -2.4 -0.07 3.56 3.56 0 0 0 -1.39 0.82l-0.39 0.46a2.89 2.89 0 0 0 -0.52 1.13 2.88 2.88 0 0 0 0.05 1.13c0.12 0.47 0.32 0.94 0.47 1.37s0.31 1 0.49 1.46a7.55 7.55 0 0 0 0.32 0.72l-0.52 0 -2 0.14a0.41 0.41 0 0 0 -0.37 0.51v4.26a11.33 11.33 0 0 0 0.14 2.37 3.8 3.8 0 0 0 0.68 1.55c1 1.26 4.15 2 7.71 2.19a47.51 47.51 0 0 0 8.31 -0.24 10.73 10.73 0 0 0 3.64 -0.91 4.43 4.43 0 0 0 1.9 -2.64 16.57 16.57 0 0 0 0.38 -4.47ZM3.58 10.46a13.59 13.59 0 0 1 -0.32 -1.33 1.68 1.68 0 0 1 0 -0.74A2.32 2.32 0 0 1 5 6.84a2.42 2.42 0 0 1 2.28 0.31 1.7 1.7 0 0 1 0.33 0.38A7 7 0 0 1 8 8.3a0.33 0.33 0 0 0 -0.1 0c-0.3 0.09 -0.62 0.14 -1 0.22l-0.39 0.1a2.65 2.65 0 0 0 -0.37 0.12C5.05 9.15 5 9.05 5 9.31c0 0.45 1.12 0.49 1.41 0.47a2 2 0 0 0 0.48 -0.09 2.35 2.35 0 0 0 0.43 -0.19 6.4 6.4 0 0 0 0.9 -0.6 9.47 9.47 0 0 1 0.37 0.93 19.91 19.91 0 0 1 0.55 2.31 0.31 0.31 0 0 0 0.21 0.23 0.3 0.3 0 0 0 0.23 0.13 0.3 0.3 0 0 0 0.29 -0.3 5.88 5.88 0 0 1 0.41 -2 17 17 0 0 1 1.42 -2.8c0.06 -0.1 0.15 -0.21 0.22 -0.32l1.21 0.58 0.45 0.14a8.78 8.78 0 0 0 1.16 0.2 0.34 0.34 0 0 0 0.42 -0.21 0.34 0.34 0 0 0 -0.16 -0.38c-0.35 -0.19 -0.64 -0.42 -1 -0.59a4 4 0 0 0 -0.48 -0.19c-0.1 0 -0.2 0 -0.3 -0.06l-0.93 0c0.11 -0.14 0.19 -0.3 0.3 -0.44a3.2 3.2 0 0 1 1.06 -0.89 2.88 2.88 0 0 1 1.44 -0.3 5.55 5.55 0 0 1 1.58 0.32 3 3 0 0 1 0.77 0.35 1.24 1.24 0 0 1 0.48 0.51 2.08 2.08 0 0 1 0.14 1A8.86 8.86 0 0 1 17.57 9a7.9 7.9 0 0 1 -0.44 1.12c-0.27 0.56 -0.57 1.08 -0.9 1.63a0.33 0.33 0 0 0 0.1 0.46 0.44 0.44 0 0 0 0.2 0l-2 0 -3.77 0.21c-1.52 0.06 -3.05 0.12 -4.57 0.22l-1.9 0.15a5.53 5.53 0 0 1 -0.31 -0.86c-0.18 -0.48 -0.27 -0.93 -0.4 -1.47Zm18.51 9.36a3.32 3.32 0 0 1 -1.42 2 9.84 9.84 0 0 1 -3.18 0.76 49.72 49.72 0 0 1 -8.12 0.42c-3.27 -0.12 -6.23 -0.56 -7.16 -1.7a2.94 2.94 0 0 1 -0.56 -1.3 8.85 8.85 0 0 1 -0.17 -2 0.25 0.25 0 0 0 0.24 0.17l7.83 0.23 4.93 0 7.68 -0.18a0.31 0.31 0 0 0 0.2 -0.09 7.74 7.74 0 0 1 -0.27 1.69Zm0.3 -2.09a0.33 0.33 0 0 0 -0.23 -0.1l-7.68 -0.23 -4.92 0 -7.84 0.28a0.27 0.27 0 0 0 -0.25 0.19l-0.1 -4.12 1.8 -0.1c1 -0.09 2 -0.15 3 -0.19 1.52 -0.07 3 -0.1 4.55 -0.13l3.76 -0.13c0.68 0 1.36 0 2 0.06 1 0.06 2.06 0.17 3.08 0.28l2.12 0.31 0.62 0.09a1.37 1.37 0 0 1 0 0.19l0 1.55c0.1 0.59 0.13 1.32 0.09 2.05Z" fill="#020202" stroke-width="1"></path>
    <g>
      <path d="M3 6.43a5.29 5.29 0 0 1 -0.54 -0.52 6.21 6.21 0 0 1 -0.8 -1 2.13 2.13 0 0 1 -0.26 -0.73 1.38 1.38 0 0 1 0 -0.6c0 -0.1 0.08 -0.2 0.19 -0.22s0.35 0.08 0.52 0.2a3.87 3.87 0 0 1 0.61 0.6l0.24 0.32s0.12 0.2 0.16 0.25a0.54 0.54 0 0 0 0.33 0.19 0.5 0.5 0 0 0 0.55 -0.4 1.28 1.28 0 0 0 0.07 -0.36l0 -0.45a4.56 4.56 0 0 1 0.11 -1.35c0.14 -0.14 0.33 0.21 0.67 0.68l0.35 1a0.51 0.51 0 0 0 0.8 0.31 0.52 0.52 0 0 0 0.24 -0.35l0 -0.39 0.09 -0.55a2.25 2.25 0 0 1 0.46 -0.79C7 2.14 7.12 2 7.33 2a0.37 0.37 0 0 1 0.23 0.19 1.63 1.63 0 0 1 0.13 0.48 2.69 2.69 0 0 1 0 0.75 7 7 0 0 1 -0.28 1.2c-0.06 0.19 -0.11 0.4 -0.18 0.61a1.08 1.08 0 0 1 -0.16 0.3 0.35 0.35 0 0 0 -0.07 0.31l0.43 0.21A0.31 0.31 0 0 0 7.6 6a1.89 1.89 0 0 0 0.26 -0.46c0.09 -0.21 0.16 -0.44 0.23 -0.64a8.08 8.08 0 0 0 0.37 -1.3 3.77 3.77 0 0 0 0.06 -0.95 2.1 2.1 0 0 0 -0.28 -1 1.27 1.27 0 0 0 -0.63 -0.5 1.32 1.32 0 0 0 -1.28 0.28 2.79 2.79 0 0 0 -0.68 0.77l-0.07 -0.1a2.37 2.37 0 0 0 -0.32 -0.39l-0.48 -0.35a1.05 1.05 0 0 0 -1.4 0.19A2.63 2.63 0 0 0 3 3a3.23 3.23 0 0 0 -0.54 -0.37 1.44 1.44 0 0 0 -1.12 -0.15 1.08 1.08 0 0 0 -0.72 0.69 2.27 2.27 0 0 0 -0.08 1.15 3 3 0 0 0 0.43 1 6.88 6.88 0 0 0 1 1.1 5.42 5.42 0 0 0 0.65 0.55 1.92 1.92 0 0 0 0.25 0.12l0.39 -0.46a1.28 1.28 0 0 1 -0.26 -0.2Z" fill="#4C57E6" stroke-width="1"></path>
      <path d="M13.32 0.07a1.2 1.2 0 0 0 -1 1 5.78 5.78 0 0 0 0.56 2.37l0.26 0.77 0.53 -0.2 -0.19 -0.7a8.25 8.25 0 0 1 -0.4 -1.81 0.46 0.46 0 0 1 0.4 -0.52 0.67 0.67 0 0 1 0.55 0.17 1.66 1.66 0 0 1 0.42 0.64l0.22 0.57c0 0.07 0 0.23 0.08 0.3a0.53 0.53 0 0 0 0.27 0.28 0.51 0.51 0 0 0 0.68 -0.14 1 1 0 0 0 0.18 -0.26c0.07 -0.13 0.12 -0.29 0.18 -0.41a2.47 2.47 0 0 1 0.51 -0.76c0.11 -0.12 0.21 -0.26 0.35 -0.2s0.07 0.17 0.07 0.27a1.62 1.62 0 0 1 0 0.45l0.01 0.35c0 0.07 -0.08 0.24 -0.09 0.29a0.53 0.53 0 0 0 0.61 0.6 0.51 0.51 0 0 0 0.31 -0.19l0.61 -0.85a1.65 1.65 0 0 1 0.67 -0.45c0.06 0 0.11 -0.08 0.15 0a0.26 0.26 0 0 1 0.06 0.14v0.17a2.92 2.92 0 0 1 -0.3 0.84c-0.23 0.44 -0.53 0.86 -0.78 1.26a0.33 0.33 0 0 0 0.55 0.37 15.06 15.06 0 0 0 0.89 -1.27 3.5 3.5 0 0 0 0.44 -1l0 -0.42c-0.07 -0.74 -0.5 -0.94 -1 -0.92a2 2 0 0 0 -1 0.36l0 -0.15a1.17 1.17 0 0 0 -0.64 -0.82 1.21 1.21 0 0 0 -1.14 0.05 2.91 2.91 0 0 0 -0.94 1 2.28 2.28 0 0 0 -0.92 -0.95 1.6 1.6 0 0 0 -1.16 -0.23Z" fill="#4C57E6" stroke-width="1"></path>
    </g>
  </g>
</svg>