<svg xmlns="http://www.w3.org/2000/svg" viewBox="0 0 24 24" id="Farming-Drone--Streamline-Freehand">
  <desc>
    Farming Drone Streamline Icon: https://streamlinehq.com
  </desc>
  <g>
    <path d="M0.77 9.07a4.31 4.31 0 0 0 1.54 0.62c0.84 0.17 1.75 0.16 2.61 0.26a4.06 4.06 0 0 0 -0.76 0.65 2.77 2.77 0 0 0 -0.34 0.57 3.39 3.39 0 0 0 -0.21 0.61 10 10 0 0 0 -0.15 1.42 0.35 0.35 0 1 0 0.69 0.15 12.29 12.29 0 0 1 0.71 -1.62l0.23 -0.48c0.08 -0.16 0.14 -0.33 0.24 -0.5a4.27 4.27 0 0 1 0.41 -0.6c1.53 0.42 2.78 1.63 4.25 2.14a4.45 4.45 0 0 0 2.39 0.17 5.35 5.35 0 0 0 1.37 -0.46 3.22 3.22 0 0 0 0.85 -0.56c0.46 -0.43 0.77 -0.89 1.19 -1.23a1.7 1.7 0 0 1 0.79 -0.36h0.05L17.77 11a5.39 5.39 0 0 1 0.45 0.57 7.52 7.52 0 0 1 0.47 0.64 5.14 5.14 0 0 1 0.51 0.94 0.35 0.35 0 0 0 0.43 0.25 0.34 0.34 0 0 0 0.25 -0.42 5.09 5.09 0 0 0 -0.53 -1.79 3.77 3.77 0 0 0 -0.8 -1 3.15 3.15 0 0 0 -0.33 -0.22l-0.6 -0.28c0.72 -0.08 1.4 -0.14 2.1 -0.24a10 10 0 0 0 1.4 -0.33 4.4 4.4 0 0 0 1.34 -0.61 2.05 2.05 0 0 0 0.72 -0.87 1.53 1.53 0 0 0 0 -1.39 2.68 2.68 0 0 0 -1.45 -1.08 9 9 0 0 0 -1.54 -0.41 30.24 30.24 0 0 1 -3.44 -0.59c-0.75 -0.17 -1.6 -0.41 -2.46 -0.66a12.32 12.32 0 0 0 -2.45 -0.67c0.05 -0.3 0.16 -0.56 0.2 -0.86a0.28 0.28 0 0 0 0 -0.09c2.13 -0.11 4.24 -0.25 6.39 -0.31a0.35 0.35 0 0 0 0.35 -0.35 0.34 0.34 0 0 0 -0.34 -0.35C16.26 0.78 14.1 0.67 11.93 0.71c0 -0.12 -0.05 -0.23 -0.08 -0.36a0.35 0.35 0 0 0 -0.36 -0.35 0.35 0.35 0 0 0 -0.35 0.35c0 0.14 -0.06 0.27 -0.1 0.41 -0.43 0 -0.86 0 -1.28 0.06 -0.76 0.06 -1.45 0.18 -2.17 0.25l-3.07 0.25a0.3 0.3 0 0 0 -0.27 0.34 0.31 0.31 0 0 0 0.34 0.27L7.66 2l2.16 0 1.09 0a0.17 0.17 0 0 0 0 0.07 3.31 3.31 0 0 0 0.28 0.82 6.83 6.83 0 0 0 -0.78 0.06 6 6 0 0 0 -2.11 0.84c-0.49 0.33 -0.94 0.75 -1.44 1.08a3.46 3.46 0 0 1 -0.6 0.32 28.49 28.49 0 0 1 -3.92 0.72 6.33 6.33 0 0 0 -1 0.31 2 2 0 0 0 -1.2 1.5 1.38 1.38 0 0 0 0.63 1.35Zm0.41 -1.4a1 1 0 0 1 0.5 -0.62 5.37 5.37 0 0 1 0.88 -0.3 28.35 28.35 0 0 0 4 -0.88 4.62 4.62 0 0 0 0.75 -0.42c0.48 -0.35 0.92 -0.78 1.4 -1.12a5.13 5.13 0 0 1 1.84 -0.79c1.5 -0.32 1.73 0.09 3.11 0.55 1 0.32 2 0.58 2.8 0.84a32.65 32.65 0 0 0 3.52 0.7 8.46 8.46 0 0 1 1.39 0.37 2.16 2.16 0 0 1 0.84 0.55 0.59 0.59 0 0 1 0.07 0.68 1.18 1.18 0 0 1 -0.54 0.54 3.93 3.93 0 0 1 -0.92 0.34 7.53 7.53 0 0 1 -1.25 0.26c-1.05 0.14 -2 0.13 -3.18 0.32a2.82 2.82 0 0 0 -1.32 0.58c-0.44 0.35 -0.77 0.83 -1.26 1.27a2.55 2.55 0 0 1 -0.74 0.44 4.87 4.87 0 0 1 -0.9 0.28 3.27 3.27 0 0 1 -1.77 -0.14C8.87 10.61 7.56 9.36 6 9c-1.09 -0.26 -2.31 -0.14 -3.43 -0.35a3.11 3.11 0 0 1 -1.18 -0.43 0.43 0.43 0 0 1 -0.21 -0.55Z" fill="#020202" stroke-width="1"></path>
    <path d="M10.48 9.07a2.52 2.52 0 0 0 1.49 0 2.24 2.24 0 0 0 1.55 -2.54c-0.29 -1.23 -1.17 -1.24 -2.62 -1.19a2 2 0 0 0 -0.91 0.26A1.86 1.86 0 0 0 9 7.47a2 2 0 0 0 1.48 1.6Zm0 -2.74a1.13 1.13 0 0 1 0.64 -0.26c1.63 -0.12 1.53 0.49 1.55 0.6a1.27 1.27 0 0 1 -1 1.3 1.56 1.56 0 0 1 -0.83 0 0.94 0.94 0 0 1 -0.71 -0.66 0.9 0.9 0 0 1 0.36 -0.98Z" fill="#020202" stroke-width="1"></path>
    <path d="M7.05 15.29a0.36 0.36 0 0 0 -0.5 0 5 5 0 0 0 -0.7 0.83 14.38 14.38 0 0 0 -0.78 1.36l-0.53 -0.84 -0.78 -1.21a0.31 0.31 0 0 0 -0.42 -0.11 0.31 0.31 0 0 0 -0.11 0.43l0.5 1.28c0.81 2 0.77 2.15 1.15 2.28a0.57 0.57 0 0 0 0.57 -0.1 1.41 1.41 0 0 0 0.38 -0.5c0.12 -0.27 0.19 -0.61 0.27 -0.83a10.66 10.66 0 0 1 0.5 -1.36 4.81 4.81 0 0 1 0.48 -0.78 0.36 0.36 0 0 0 -0.03 -0.45Z" fill="#4C57E6" stroke-width="1"></path>
    <path d="M3.56 19.92a4.66 4.66 0 0 0 -0.7 0.83 13.23 13.23 0 0 0 -0.78 1.36l-0.53 -0.84 -0.79 -1.18A0.3 0.3 0 0 0 0.34 20a0.3 0.3 0 0 0 -0.11 0.42l0.5 1.29 0.57 1.39c0.16 0.33 0.18 0.73 0.58 0.86a0.53 0.53 0 0 0 0.57 -0.1 1.37 1.37 0 0 0 0.38 -0.49c0.12 -0.27 0.19 -0.62 0.27 -0.83a10.13 10.13 0 0 1 0.5 -1.36 4.5 4.5 0 0 1 0.48 -0.79 0.35 0.35 0 0 0 0 -0.49 0.36 0.36 0 0 0 -0.52 0.02Z" fill="#020202" stroke-width="1"></path>
    <path d="M10.07 19.92a5.12 5.12 0 0 0 -0.7 0.83 13.23 13.23 0 0 0 -0.78 1.36l-0.53 -0.84 -0.77 -1.21a0.31 0.31 0 0 0 -0.44 -0.06 0.32 0.32 0 0 0 -0.11 0.42l0.5 1.29a15.44 15.44 0 0 0 0.83 2 0.65 0.65 0 0 0 0.32 0.24 0.55 0.55 0 0 0 0.58 -0.1 1.35 1.35 0 0 0 0.37 -0.49c0.13 -0.27 0.19 -0.62 0.27 -0.83a11.79 11.79 0 0 1 0.51 -1.36 3.92 3.92 0 0 1 0.47 -0.79 0.35 0.35 0 0 0 0 -0.49 0.36 0.36 0 0 0 -0.52 0.03Z" fill="#020202" stroke-width="1"></path>
    <path d="M17.08 19.92a5.12 5.12 0 0 0 -0.7 0.83 13.23 13.23 0 0 0 -0.78 1.36l-0.53 -0.84 -0.78 -1.21a0.3 0.3 0 0 0 -0.42 -0.11 0.31 0.31 0 0 0 -0.11 0.42l0.5 1.29c0.81 2 0.78 2.15 1.15 2.27a0.53 0.53 0 0 0 0.57 -0.1 1.37 1.37 0 0 0 0.38 -0.49c0.12 -0.27 0.19 -0.62 0.27 -0.83a11.79 11.79 0 0 1 0.51 -1.36 3.92 3.92 0 0 1 0.47 -0.79 0.35 0.35 0 0 0 0 -0.49 0.36 0.36 0 0 0 -0.53 0.05Z" fill="#020202" stroke-width="1"></path>
    <path d="M23.76 19.9a0.36 0.36 0 0 0 -0.5 0 5.12 5.12 0 0 0 -0.7 0.83 13.23 13.23 0 0 0 -0.78 1.36l-0.53 -0.84 -0.78 -1.21A0.3 0.3 0 0 0 20 20a0.31 0.31 0 0 0 -0.11 0.42l0.5 1.29c0.81 2 0.78 2.15 1.15 2.27a0.53 0.53 0 0 0 0.57 -0.1 1.37 1.37 0 0 0 0.38 -0.49c0.12 -0.27 0.19 -0.62 0.27 -0.83a11.79 11.79 0 0 1 0.51 -1.36 3.92 3.92 0 0 1 0.47 -0.79 0.35 0.35 0 0 0 0.02 -0.51Z" fill="#020202" stroke-width="1"></path>
    <path d="M13.06 15.63 12 17.4l-1.26 -2a0.31 0.31 0 0 0 -0.58 0.22l0.84 2.2c0.06 0.14 0.47 1.34 0.7 1.42a0.57 0.57 0 0 0 0.52 0 0.81 0.81 0 0 0 0.34 -0.31 3.94 3.94 0 0 0 0.27 -0.65l0.85 -2.28a0.35 0.35 0 0 0 -0.62 -0.33Z" fill="#4C57E6" stroke-width="1"></path>
    <path d="M20.15 15.34a0.35 0.35 0 0 0 -0.47 0.16l-1.06 1.79 -0.23 -0.37c-0.16 -0.22 -0.33 -0.43 -0.5 -0.64a5.43 5.43 0 0 1 -0.48 -0.62 3.48 3.48 0 0 1 -0.22 -0.43 0.31 0.31 0 0 0 -0.6 0.16 2.87 2.87 0 0 0 0.17 0.59 5.63 5.63 0 0 0 0.36 0.8c0.33 0.72 0.88 2.11 1.23 2.19a0.6 0.6 0 0 0 0.48 -0.06 1.43 1.43 0 0 0 0.4 -0.38 4 4 0 0 0 0.35 -0.77l0.73 -2a0.34 0.34 0 0 0 -0.16 -0.42Z" fill="#4C57E6" stroke-width="1"></path>
  </g>
</svg>