<svg xmlns="http://www.w3.org/2000/svg" viewBox="0 0 24 24" id="Farming-Hay-Roll--Streamline-Freehand">
  <desc>
    Farming Hay Roll Streamline Icon: https://streamlinehq.com
  </desc>
  <g>
    <path d="M3.68 9.71A8.94 8.94 0 0 1 4.35 9a1.66 1.66 0 0 0 0.16 -0.21 3 3 0 0 1 0.38 -0.55 0.28 0.28 0 0 0 -0.24 -0.5 2.07 2.07 0 0 0 -0.85 0.31 1.2 1.2 0 0 0 -0.28 0.27 1.32 1.32 0 0 0 -0.2 0.32 4 4 0 0 0 -0.23 0.82 0.33 0.33 0 0 0 0.17 0.42 0.32 0.32 0 0 0 0.42 -0.17Z" fill="#4C57E6" fill-rule="evenodd" stroke-width="1"></path>
    <path d="M4.16 14.08c-0.08 -0.12 -0.11 -0.25 -0.18 -0.37s-0.12 -0.25 -0.19 -0.37a8.62 8.62 0 0 1 -0.5 -0.79 0.28 0.28 0 0 0 -0.29 -0.23 0.29 0.29 0 0 0 -0.23 0.33 3.58 3.58 0 0 0 0 1 1.76 1.76 0 0 0 0.16 0.4 1.69 1.69 0 0 0 0.27 0.36 2.16 2.16 0 0 0 0.9 0.59 0.33 0.33 0 0 0 0.44 -0.12 0.32 0.32 0 0 0 -0.12 -0.44 1.35 1.35 0 0 1 -0.26 -0.36Z" fill="#4C57E6" fill-rule="evenodd" stroke-width="1"></path>
    <path d="M7.12 15.67a2.82 2.82 0 0 0 1.12 0 1.52 1.52 0 0 0 0.46 -0.18 2 2 0 0 0 0.4 -0.3 2.79 2.79 0 0 0 0.62 -0.95 0.32 0.32 0 0 0 -0.1 -0.44 0.31 0.31 0 0 0 -0.44 0.1 2.8 2.8 0 0 1 -0.38 0.32c-0.13 0.09 -0.28 0.14 -0.42 0.22l-0.4 0.21a4 4 0 0 1 -0.89 0.46 0.29 0.29 0 0 0 -0.27 0.29 0.29 0.29 0 0 0 0.3 0.27Z" fill="#4C57E6" fill-rule="evenodd" stroke-width="1"></path>
    <path d="M8.63 9.26c0.08 0.11 0.11 0.24 0.18 0.36L9 10c0.19 0.3 0.41 0.54 0.58 0.81a0.28 0.28 0 0 0 0.53 -0.18 4.54 4.54 0 0 0 -0.11 -0.96 2 2 0 0 0 -0.17 -0.4 1.88 1.88 0 0 0 -0.27 -0.36 1.91 1.91 0 0 0 -1 -0.53 0.32 0.32 0 0 0 -0.42 0.17 0.32 0.32 0 0 0 0.22 0.45 0.94 0.94 0 0 1 0.27 0.26Z" fill="#4C57E6" fill-rule="evenodd" stroke-width="1"></path>
    <path d="M7.79 12.53a0.31 0.31 0 1 0 -0.48 -0.4 0.73 0.73 0 0 1 -0.88 0.07 0.89 0.89 0 0 1 -0.49 -0.6 0.69 0.69 0 0 1 0 -0.49 0.92 0.92 0 0 1 0.2 -0.31 3.62 3.62 0 0 1 0.41 -0.27 0.3 0.3 0 0 0 0.15 -0.38 0.29 0.29 0 0 0 -0.37 -0.15 3.09 3.09 0 0 0 -0.68 0.26 1.36 1.36 0 0 0 -0.45 0.38 1.46 1.46 0 0 0 -0.29 1.22 1.59 1.59 0 0 0 0.71 1 1.51 1.51 0 0 0 2.17 -0.33Z" fill="#4C57E6" fill-rule="evenodd" stroke-width="1"></path>
    <path d="M13.6 9.47a4.37 4.37 0 0 0 0.5 0.09 2.83 2.83 0 0 0 0.5 0 6.88 6.88 0 0 0 1.2 -0.12 0.32 0.32 0 0 0 0.32 -0.32 0.32 0.32 0 0 0 -0.32 -0.32c-0.39 -0.06 -0.75 -0.17 -1.13 -0.25s-0.5 -0.09 -0.76 -0.11a2.63 2.63 0 0 0 -0.56 0 0.47 0.47 0 0 0 -0.06 0.87Z" fill="#4C57E6" fill-rule="evenodd" stroke-width="1"></path>
    <path d="M19.18 8.75a1.86 1.86 0 0 0 -0.34 -0.06 1.29 1.29 0 0 0 -0.34 0 5.38 5.38 0 0 0 -0.79 0.2 0.29 0.29 0 0 0 -0.28 0.28 0.27 0.27 0 0 0 0.28 0.28c0.25 0.08 0.47 0.2 0.74 0.26a1.54 1.54 0 0 0 0.31 0 1.74 1.74 0 0 0 0.32 0c0.26 0 0.5 -0.07 0.76 -0.09l0.06 0c0.35 -0.25 0.07 -0.57 -0.4 -0.77a3 3 0 0 0 -0.32 -0.1Z" fill="#4C57E6" fill-rule="evenodd" stroke-width="1"></path>
    <path d="m23.68 18.22 -2 0a0.49 0.49 0 0 0 0.1 -0.16 6.93 6.93 0 0 1 0.81 -2 3.79 3.79 0 0 1 0.93 -1.06 0.33 0.33 0 0 0 0.09 -0.45 0.32 0.32 0 0 0 -0.44 -0.09 4.61 4.61 0 0 0 -1.5 1.45 3.23 3.23 0 0 0 -0.27 0.44l-0.12 -0.35c-0.15 -0.33 -0.31 -0.64 -0.47 -1l-0.6 -1.24a0.28 0.28 0 1 0 -0.52 0.19l0.39 1.34 0.46 1.71 0.16 0.67 0 0.37a0.37 0.37 0 0 0 0.08 0.14l-3.17 0h-0.83a3.18 3.18 0 0 0 0.22 -0.58c0.08 -0.28 0.14 -0.58 0.22 -0.85a6.23 6.23 0 0 1 0.52 -1.39 2.91 2.91 0 0 1 0.57 -0.76 0.32 0.32 0 0 0 0 -0.45 0.33 0.33 0 0 0 -0.45 0 4.21 4.21 0 0 0 -0.8 0.83 7.13 7.13 0 0 0 -0.81 1.49l0 0.11c-0.14 -0.24 -0.29 -0.47 -0.45 -0.7l-1 -1.39a0.28 0.28 0 1 0 -0.46 0.31l0.7 1.48 0.47 1.2 0.14 0.44c0 0.06 0 0.2 0.05 0.26h-0.69q-1.29 0 -2.58 0.09c-1.22 0.05 -2.45 0.13 -3.68 0.2a7 7 0 0 0 2.87 -1.9 7 7 0 0 0 1.88 -4.07 6.13 6.13 0 0 0 -0.08 -1.5 10.68 10.68 0 0 0 -0.36 -1.38 5.78 5.78 0 0 0 -1.55 -2.52 7.55 7.55 0 0 0 -2.45 -1.56h0.82l1.69 0.12c0.85 0.07 1.7 0.15 2.53 0.26a15 15 0 0 1 2.44 0.38 5.87 5.87 0 0 1 1.46 0.59 6.22 6.22 0 0 1 2.73 4.62 0.32 0.32 0 0 0 0.63 0 7.55 7.55 0 0 0 -0.75 -3 6.16 6.16 0 0 0 -2.11 -2.45 6 6 0 0 0 -1.68 -0.77 13.81 13.81 0 0 0 -2.61 -0.42c-0.71 -0.06 -1.44 -0.11 -2.16 -0.13s-1.45 0 -2.17 0c-4 0.13 -4.23 0 -5.86 0.81a8.18 8.18 0 0 0 -2.47 2 6.56 6.56 0 0 0 -1.42 2.87A7.43 7.43 0 0 0 0.76 15a6.72 6.72 0 0 0 3.35 3.32c2.5 1.05 8.9 0.91 9.26 0.91 1.37 0 2.75 -0.06 4.13 -0.12 2.06 -0.08 4.12 -0.21 6.18 -0.29a0.33 0.33 0 0 0 0.32 -0.33 0.32 0.32 0 0 0 -0.32 -0.27ZM6 17.7a5.2 5.2 0 0 1 -1.51 -0.32 5.87 5.87 0 0 1 -2.83 -2.78 6.69 6.69 0 0 1 -0.69 -4A5.75 5.75 0 0 1 2.14 8a7.47 7.47 0 0 1 2.19 -1.87c0.92 -0.52 2.29 -0.81 4.42 0A6.21 6.21 0 0 1 11 7.63a5.72 5.72 0 0 1 1.31 2.28 9.3 9.3 0 0 1 0.29 1.26 5.27 5.27 0 0 1 0 1.25 6.08 6.08 0 0 1 -1.67 3.43 5.87 5.87 0 0 1 -3.31 1.81A6.94 6.94 0 0 1 6 17.7Z" fill="#020202" fill-rule="evenodd" stroke-width="1"></path>
  </g>
</svg>