<svg xmlns="http://www.w3.org/2000/svg" viewBox="0 0 24 24" id="Fast-Food-Pretzel--Streamline-Freehand">
  <desc>
    Fast Food Pretzel Streamline Icon: https://streamlinehq.com
  </desc>
  <g>
    <path d="M23.82 7.28a6.09 6.09 0 0 0 -0.44 -1.41 7.17 7.17 0 0 0 -1.65 -2.12 10.75 10.75 0 0 0 -2.12 -1.49 7.76 7.76 0 0 0 -2.77 -0.85 9 9 0 0 0 -2.84 0.13 4.36 4.36 0 0 0 -1.4 0.56 2.4 2.4 0 0 0 -0.54 0.51 7 7 0 0 0 -2.12 -1 3.87 3.87 0 0 0 -0.84 -0.12l-1.15 0A8.56 8.56 0 0 0 4 2.6a8.2 8.2 0 0 0 -3 2.84 6.65 6.65 0 0 0 -0.77 2.11 14.86 14.86 0 0 0 -0.23 3.2 10.27 10.27 0 0 0 0.21 1.69 14.92 14.92 0 0 0 0.44 1.61 6.19 6.19 0 0 0 0.75 1.66 3.28 3.28 0 0 0 0.64 0.65 4 4 0 0 0 -0.2 0.35 3.87 3.87 0 0 0 0 2.76 2.53 2.53 0 0 0 2.37 1.62 3 3 0 0 0 0.52 0 3.22 3.22 0 0 0 0.71 -0.19 4.42 4.42 0 0 0 0.79 -0.38 10.16 10.16 0 0 0 3.27 1.77 8.89 8.89 0 0 0 2 0.38 8.62 8.62 0 0 0 2 -0.11 11.91 11.91 0 0 0 1.77 -0.56 16.94 16.94 0 0 0 2.45 -1.22 0.38 0.38 0 0 0 0.13 -0.15 6.65 6.65 0 0 0 2.22 0.29 2.55 2.55 0 0 0 2.05 -1.12 2.43 2.43 0 0 0 0.37 -1.8 2.34 2.34 0 0 0 -1 -1.49c0.06 -0.07 0.13 -0.12 0.19 -0.2 0.29 -0.36 0.52 -0.8 0.77 -1.17a8.44 8.44 0 0 0 1.22 -2.78 11.76 11.76 0 0 0 0.29 -3 13.74 13.74 0 0 0 -0.14 -2.08ZM2 15.35a5.7 5.7 0 0 1 -0.61 -1.5c-0.14 -0.53 -0.26 -1 -0.35 -1.56a8.69 8.69 0 0 1 -0.12 -1.55 13.23 13.23 0 0 1 0.34 -3A5.65 5.65 0 0 1 1.93 6a7.27 7.27 0 0 1 2.61 -2.4A7.65 7.65 0 0 1 8 2.67l1.07 0a3.18 3.18 0 0 1 0.62 0.07 6.14 6.14 0 0 1 1.89 0.79 10.31 10.31 0 0 1 1.62 1.33A8.35 8.35 0 0 1 14.84 7a5.08 5.08 0 0 1 0.58 2.53 3.32 3.32 0 0 1 -0.15 0.89 9.08 9.08 0 0 1 -0.55 1.33 0.35 0.35 0 0 0 0.15 0.46 0.34 0.34 0 0 0 0.46 -0.15 10.63 10.63 0 0 0 0.67 -1.45 4.84 4.84 0 0 0 0.22 -1.07A5.87 5.87 0 0 0 15.8 7c0.24 0 0.48 0 0.72 0.07a2.05 2.05 0 0 1 0.49 0.18 3.47 3.47 0 0 1 1.65 2.33 5.65 5.65 0 0 1 0.17 1.48 4.9 4.9 0 0 1 -0.26 1.48 3.5 3.5 0 0 1 -0.54 1 6.23 6.23 0 0 1 -0.84 0.87 0.31 0.31 0 0 0 -0.08 0.15 3.78 3.78 0 0 1 -0.35 -0.17 7.77 7.77 0 0 1 -1.61 -1.1A13.29 13.29 0 0 1 13.9 12a6.32 6.32 0 0 1 -0.9 -1.46 3.82 3.82 0 0 1 -0.21 -0.71 16.14 16.14 0 0 0 -0.35 -2A3.59 3.59 0 0 0 11 6a4.52 4.52 0 0 0 -2 -0.79C7 5 5.4 6.5 4.69 8.39a4.81 4.81 0 0 0 0.62 4.87 15.74 15.74 0 0 0 -1.91 1.39 6.11 6.11 0 0 0 -1 1.18 3.15 3.15 0 0 1 -0.4 -0.48Zm6 -4.59a3.56 3.56 0 0 0 0.1 0.47H8a1.85 1.85 0 0 1 -0.53 0.59c-0.36 0.29 -0.79 0.53 -1.13 0.76l-0.45 0.29a4 4 0 0 1 -0.47 -4.2C6 7.16 7.29 5.92 8.89 6.14H9a5.92 5.92 0 0 0 -1.08 4.62Zm-2.92 9.09a3.48 3.48 0 0 1 -0.44 0.1 1.91 1.91 0 0 1 -0.41 0A1.46 1.46 0 0 1 2.88 19a2.68 2.68 0 0 1 0 -1.93 4.58 4.58 0 0 1 1.18 -1.72 27 27 0 0 1 2.73 -2.15c0.33 -0.27 0.76 -0.54 1.12 -0.87a1.93 1.93 0 0 0 0.31 -0.33 11.51 11.51 0 0 0 2 3.68l-0.8 1a13.39 13.39 0 0 1 -1.23 1.15c-0.44 0.36 -0.9 0.69 -1.37 1s-0.69 0.48 -1.06 0.69a3.88 3.88 0 0 1 -0.68 0.33Zm8.23 1.58a9.72 9.72 0 0 1 -1.79 0.05 11.92 11.92 0 0 1 -1.78 -0.25 10.31 10.31 0 0 1 -2.95 -1.16c0.21 -0.15 0.42 -0.29 0.61 -0.44 0.47 -0.36 0.93 -0.74 1.37 -1.14 0.28 -0.26 0.53 -0.54 0.79 -0.82a1.74 1.74 0 0 0 0.7 0.72 1.63 1.63 0 0 0 0.78 0.18 4.5 4.5 0 0 0 1.08 -0.17 0.35 0.35 0 1 0 0 -0.69 6.48 6.48 0 0 1 -1.17 -0.3l-0.32 -0.09a1.94 1.94 0 0 1 -0.33 -0.07l-0.21 -0.12 0.64 -0.91c0.33 0.35 0.66 0.69 1 1s0.8 0.65 1.23 1c0.64 0.45 1.31 0.87 2 1.25l1.18 0.61 0.89 0.32c-0.52 0.23 -1 0.45 -1.57 0.63a10.32 10.32 0 0 1 -2.15 0.4Zm7.86 -2.26a1.46 1.46 0 0 1 -1.19 0.62 7.66 7.66 0 0 1 -2.6 -0.43l-0.92 -0.31 -1.07 -0.52c-0.62 -0.35 -1.28 -0.74 -1.91 -1.16a13.41 13.41 0 0 1 -1.19 -0.86 10.6 10.6 0 0 1 -3.66 -5.87 5.24 5.24 0 0 1 1 -4.32 3.49 3.49 0 0 1 0.89 0.48 2.55 2.55 0 0 1 1 1.31 16.53 16.53 0 0 1 0.29 1.9 4.19 4.19 0 0 0 0.26 0.93 6.48 6.48 0 0 0 0.81 1.43 13.35 13.35 0 0 0 1.58 1.79 9 9 0 0 0 1.82 1.28 27.09 27.09 0 0 0 2.93 1.31c0.36 0.14 0.74 0.25 1.11 0.4a2.81 2.81 0 0 1 0.6 0.3 1.19 1.19 0 0 1 0.51 0.77 1.34 1.34 0 0 1 -0.26 0.95Zm1.65 -7a7.69 7.69 0 0 1 -1 2.55c-0.2 0.32 -0.37 0.69 -0.58 1a2.35 2.35 0 0 1 -0.36 0.41c-0.43 -0.19 -0.89 -0.31 -1.31 -0.48 -0.61 -0.24 -1.23 -0.5 -1.84 -0.78a7.07 7.07 0 0 0 0.92 -0.79 4.43 4.43 0 0 0 0.8 -1.16 5 5 0 0 0 0.49 -1.78 5.23 5.23 0 0 0 -0.17 -1.85 4.41 4.41 0 0 0 -0.44 -1.05 4 4 0 0 0 -2 -1.71 2.71 2.71 0 0 0 -0.75 -0.16l-1 0 -0.08 0a9.5 9.5 0 0 0 -1.64 -2.26A13.47 13.47 0 0 0 12.56 3a1.72 1.72 0 0 1 0.56 -0.42 3.94 3.94 0 0 1 1 -0.3 8.33 8.33 0 0 1 2.59 0 7 7 0 0 1 2.36 0.88A11 11 0 0 1 21 4.59a6.24 6.24 0 0 1 1.38 1.78 4.76 4.76 0 0 1 0.37 1.14 11.44 11.44 0 0 1 0.23 1.91 10.58 10.58 0 0 1 -0.16 2.77Z" fill="#020202" fill-rule="evenodd" stroke-width="1"></path>
    <path d="M11.64 19.81a4 4 0 0 1 -0.34 -0.56 0.3 0.3 0 0 0 -0.4 -0.15 0.31 0.31 0 0 0 -0.14 0.41 4.48 4.48 0 0 0 0.35 0.65 4.24 4.24 0 0 0 0.46 0.61 0.34 0.34 0 0 0 0.48 0 0.34 0.34 0 0 0 0 -0.48 3.14 3.14 0 0 1 -0.41 -0.48Z" fill="#4C57E6" fill-rule="evenodd" stroke-width="1"></path>
    <path d="M6.19 16.74a9.15 9.15 0 0 1 -1 0.11 3.47 3.47 0 0 1 -0.64 0 0.3 0.3 0 0 0 -0.1 0.6 4.93 4.93 0 0 0 0.75 0.06c0.35 0 0.7 0 1.07 -0.06a0.34 0.34 0 0 0 0.31 -0.37 0.35 0.35 0 0 0 -0.39 -0.34Z" fill="#4C57E6" fill-rule="evenodd" stroke-width="1"></path>
    <path d="M17.11 16.56a0.3 0.3 0 0 0 -0.2 0.38l0.31 1.17a0.35 0.35 0 0 0 0.45 0.19 0.35 0.35 0 0 0 0.18 -0.45l-0.37 -1.09a0.29 0.29 0 0 0 -0.37 -0.2Z" fill="#4C57E6" fill-rule="evenodd" stroke-width="1"></path>
    <path d="M11.86 12.9a0.3 0.3 0 0 0 -0.53 0.27 2.6 2.6 0 0 1 0.16 0.47 5.36 5.36 0 0 1 0.15 0.78 0.35 0.35 0 0 0 0.4 0.28 0.34 0.34 0 0 0 0.27 -0.4 6.45 6.45 0 0 0 -0.21 -0.84 2.78 2.78 0 0 0 -0.24 -0.56Z" fill="#4C57E6" fill-rule="evenodd" stroke-width="1"></path>
    <path d="M10 8.35 9.35 9a0.29 0.29 0 0 0 0 0.42 0.28 0.28 0 0 0 0.42 0l0.65 -0.54a0.34 0.34 0 0 0 0 -0.48 0.33 0.33 0 0 0 -0.42 -0.05Z" fill="#4C57E6" fill-rule="evenodd" stroke-width="1"></path>
    <path d="M20.93 10.45a3.93 3.93 0 0 0 -0.42 0.29 0.3 0.3 0 0 0 0.36 0.48 2.6 2.6 0 0 1 0.36 -0.21 5.22 5.22 0 0 1 0.61 -0.25 0.35 0.35 0 0 0 0.19 -0.45 0.34 0.34 0 0 0 -0.45 -0.18c-0.22 0.1 -0.44 0.2 -0.65 0.32Z" fill="#4C57E6" fill-rule="evenodd" stroke-width="1"></path>
    <path d="M17.6 4.23a3 3 0 0 1 -0.2 -0.49 0.3 0.3 0 0 0 -0.58 0.16 3.29 3.29 0 0 0 0.21 0.6c0.12 0.27 0.27 0.54 0.41 0.8a0.35 0.35 0 0 0 0.47 0.12A0.34 0.34 0 0 0 18 5c-0.12 -0.29 -0.27 -0.52 -0.4 -0.77Z" fill="#4C57E6" fill-rule="evenodd" stroke-width="1"></path>
    <path d="M3.57 10.46a0.31 0.31 0 0 0 -0.43 0c-0.19 0.18 -0.37 0.36 -0.55 0.56a7.47 7.47 0 0 0 -0.48 0.63 0.34 0.34 0 0 0 0.58 0.36 5.45 5.45 0 0 1 0.4 -0.58 4.8 4.8 0 0 1 0.47 -0.53 0.31 0.31 0 0 0 0.01 -0.44Z" fill="#4C57E6" fill-rule="evenodd" stroke-width="1"></path>
    <path d="M4.53 5.65a1.66 1.66 0 0 1 0.27 0.26 0.35 0.35 0 0 0 0.48 0 0.36 0.36 0 0 0 0 -0.49 2.18 2.18 0 0 0 -0.4 -0.34 9.28 9.28 0 0 1 -0.83 -0.56 0.3 0.3 0 0 0 -0.42 0 0.3 0.3 0 0 0 0 0.43 7.73 7.73 0 0 0 0.9 0.7Z" fill="#4C57E6" fill-rule="evenodd" stroke-width="1"></path>
    <path d="M12 6.06a0.34 0.34 0 0 0 0.34 -0.34l-0.06 -1a0.3 0.3 0 0 0 -0.6 0l0 0.93a0.34 0.34 0 0 0 0.32 0.41Z" fill="#4C57E6" fill-rule="evenodd" stroke-width="1"></path>
  </g>
</svg>