<svg xmlns="http://www.w3.org/2000/svg" viewBox="0 0 24 24" id="Fertility-Women-Vagina--Streamline-Freehand">
  <desc>
    Fertility Women Vagina Streamline Icon: https://streamlinehq.com
  </desc>
  <g>
    <path d="M24 5.28a1.25 1.25 0 0 0 -1.29 -1.13 1.59 1.59 0 0 0 -0.59 0.17 4.94 4.94 0 0 0 -0.44 -0.65 3.59 3.59 0 0 0 -0.38 -0.4 1.87 1.87 0 0 0 -1.72 -0.61 4.19 4.19 0 0 0 -1.67 1.09c-0.39 0.33 -0.77 0.67 -1.24 0.57a3.49 3.49 0 0 1 -1.39 -0.75 9.08 9.08 0 0 0 -1.59 -1.08 3.43 3.43 0 0 0 -1.76 -0.34 2.87 2.87 0 0 0 -1.21 0.35A15.55 15.55 0 0 0 8.59 4a5.3 5.3 0 0 1 -1.07 0.52c-0.37 0 -0.94 -0.66 -1.16 -0.82a3.42 3.42 0 0 0 -2.08 -0.79 2.9 2.9 0 0 0 -2 1 5 5 0 0 0 -0.49 0.54l-0.06 0.1a1.09 1.09 0 0 0 -0.85 0A1.71 1.71 0 0 0 0 5.92a2.46 2.46 0 0 0 0 0.47 2.09 2.09 0 0 0 0.08 0.5 2.26 2.26 0 0 0 0.3 0.69 2.31 2.31 0 0 0 0.53 0.55 2.26 2.26 0 0 0 0.56 0.28c0.27 0.08 0.54 0.14 0.8 0.2a0.28 0.28 0 0 0 0.35 -0.19 0.49 0.49 0 0 0 0 -0.12 0.33 0.33 0 0 0 0.17 -0.1 1.61 1.61 0 0 0 0.34 -1.51A2.21 2.21 0 0 0 3 6.27a3.63 3.63 0 0 1 0.57 -0.13l0.57 -0.06a2 2 0 0 1 0.35 0A1.38 1.38 0 0 1 5.66 7c0.4 0.82 0.51 1.92 0.91 2.68a3.45 3.45 0 0 0 0.64 0.85 5.5 5.5 0 0 0 0.78 0.63c0.18 0.11 0.4 0.2 0.59 0.33a0.4 0.4 0 0 1 0.13 0.13 0.34 0.34 0 0 1 0 0.2c0 0.25 -0.09 0.52 -0.1 0.75l0 1.6c0 0.37 0.05 0.74 0.1 1.09a3.68 3.68 0 0 0 0.41 1.25 16.57 16.57 0 0 1 1.39 2.27 3.59 3.59 0 0 1 0.16 1c0 0.59 -0.07 1.2 -0.08 1.75a0.31 0.31 0 0 0 0.3 0.33 0.31 0.31 0 0 0 0.33 -0.3c0 -0.56 0.14 -1.17 0.17 -1.77a4.26 4.26 0 0 0 -0.14 -1.29 17.15 17.15 0 0 0 -1.3 -2.44 3.16 3.16 0 0 1 -0.27 -1l0 -1.24c0 -0.42 0 -0.86 0.06 -1.27 0 -0.26 0.11 -0.6 0.11 -0.9a1.23 1.23 0 0 0 -0.49 -1c-0.22 -0.17 -0.5 -0.28 -0.72 -0.42a4.84 4.84 0 0 1 -0.65 -0.5 2.67 2.67 0 0 1 -0.49 -0.6c-0.52 -0.86 -0.69 -2.21 -1.35 -3a2 2 0 0 0 -1.52 -0.73 2.46 2.46 0 0 0 -0.47 0 6.12 6.12 0 0 0 -0.64 0.1 4.44 4.44 0 0 0 -0.71 0.21 3.57 3.57 0 0 0 -0.58 -0.86 0.3 0.3 0 0 1 0 -0.08 3.66 3.66 0 0 1 0.44 -0.44 2.33 2.33 0 0 1 1.57 -0.69 2.69 2.69 0 0 1 1.56 0.74c0.21 0.16 0.62 0.67 1 0.91a1 1 0 0 0 0.55 0.21 2.5 2.5 0 0 0 1.24 -0.3A13 13 0 0 0 10.37 4 3 3 0 0 1 12 3.19a2.52 2.52 0 0 1 1.25 0.24c1.16 0.53 2 1.57 3.25 1.78a2.05 2.05 0 0 0 1.68 -0.6c0.52 -0.45 1 -1.08 1.57 -1.23a1.18 1.18 0 0 1 1.1 0.38 3.68 3.68 0 0 1 0.39 0.4c0.13 0.16 0.24 0.32 0.35 0.48a1.68 1.68 0 0 0 -0.24 0.29 2.58 2.58 0 0 0 -0.19 0.37l-0.16 0.36a4.61 4.61 0 0 0 -0.53 -0.15c-0.21 0 -0.42 -0.08 -0.64 -0.1a2.46 2.46 0 0 0 -0.47 0 2 2 0 0 0 -1.46 0.76c-0.66 0.79 -0.83 2.14 -1.35 3a3 3 0 0 1 -0.49 0.6 5.58 5.58 0 0 1 -0.65 0.5 7.49 7.49 0 0 0 -0.72 0.42 1.27 1.27 0 0 0 -0.5 1c0 0.3 0.1 0.64 0.12 0.9 0 0.41 0.05 0.84 0.06 1.27a10.14 10.14 0 0 1 0 1.24 2.89 2.89 0 0 1 -0.26 1 15.34 15.34 0 0 0 -1.3 2.44 4.26 4.26 0 0 0 -0.14 1.29c0 0.6 0.13 1.21 0.17 1.77a0.31 0.31 0 0 0 0.32 0.3 0.32 0.32 0 0 0 0.31 -0.33c0 -0.55 -0.09 -1.16 -0.08 -1.75a3.59 3.59 0 0 1 0.16 -1 16.57 16.57 0 0 1 1.39 -2.27 3.91 3.91 0 0 0 0.41 -1.25 9.61 9.61 0 0 0 0.09 -1.09l0 -1.6c0 -0.23 -0.09 -0.5 -0.1 -0.75a0.34 0.34 0 0 1 0 -0.2 0.4 0.4 0 0 1 0.13 -0.13c0.19 -0.13 0.41 -0.22 0.59 -0.33a5.5 5.5 0 0 0 0.78 -0.63 3.71 3.71 0 0 0 0.64 -0.85c0.4 -0.76 0.51 -1.86 0.9 -2.68a1.41 1.41 0 0 1 1.11 -0.89 2.17 2.17 0 0 1 0.36 0l0.57 0.06a4 4 0 0 1 0.5 0.11c0 0.14 -0.06 0.28 -0.08 0.43a6.49 6.49 0 0 0 -0.05 0.77 0.28 0.28 0 0 0 0.25 0.31 0.28 0.28 0 0 0 0.28 -0.17 0.32 0.32 0 0 0 0.33 0.3 1.86 1.86 0 0 0 0.57 -0.07 2.58 2.58 0 0 0 0.53 -0.19 2.38 2.38 0 0 0 1 -1A2.19 2.19 0 0 0 24 5.28ZM2.34 7.77a0.31 0.31 0 0 0 -0.08 0.23l-0.52 -0.22a1.66 1.66 0 0 1 -0.34 -0.25 1.08 1.08 0 0 1 -0.26 -0.38A1.36 1.36 0 0 1 1 6.7l0 -0.67a0.84 0.84 0 0 1 0.23 -0.52l0.22 0a3.07 3.07 0 0 1 0.89 1.32 0.92 0.92 0 0 1 0 0.94Zm20.55 -1.48a1.63 1.63 0 0 1 -0.53 0.7 2.58 2.58 0 0 1 -0.37 0.19 1.26 1.26 0 0 1 -0.38 0.1 0.32 0.32 0 0 0 -0.28 0.19c0 -0.23 0.09 -0.45 0.15 -0.67s0.31 -0.75 0.31 -0.76l0.32 -0.52a0.78 0.78 0 0 1 0.59 -0.3c0.12 0 0.2 0.1 0.25 0.29a1.16 1.16 0 0 1 -0.06 0.78Z" fill="#020202" stroke-width="1"></path>
    <path d="M12.76 12.2a3.47 3.47 0 0 1 0.29 -1 2.06 2.06 0 0 1 0.45 -0.57c0.32 -0.32 0.7 -0.59 1 -0.89a4 4 0 0 0 0.9 -1.35 2.58 2.58 0 0 0 0.29 -1.58c-0.19 -0.73 -1.92 -1.44 -2.35 -1.6a4 4 0 0 0 -1.12 -0.25 3.48 3.48 0 0 0 -1.17 0.04 4.44 4.44 0 0 0 -2.19 1.41c-0.11 0.1 0 0.42 0 0.42a0.28 0.28 0 0 0 -0.28 0.28 2.7 2.7 0 0 0 0.48 1.68c0.65 1 1.88 1.44 2.14 2.73l0.28 2.35 0.06 0.69 0 0.46a0.58 0.58 0 0 0 0.05 0.19 0.49 0.49 0 0 0 0.73 0.25 0.49 0.49 0 0 0 0.29 -0.44s0.03 -2.02 0.15 -2.82Zm-0.53 -1.46a2.39 2.39 0 0 0 -0.16 0.32A3.52 3.52 0 0 0 11 9.58 9.35 9.35 0 0 1 9.63 8.4a2.13 2.13 0 0 1 -0.46 -1.29 0.3 0.3 0 0 0 -0.11 -0.22 0.26 0.26 0 0 0 0.18 -0.07 4.22 4.22 0 0 1 2 -0.8 4.42 4.42 0 0 1 0.89 0 5.61 5.61 0 0 1 0.9 0.14A6.37 6.37 0 0 1 15 7a3 3 0 0 1 -0.28 1 3.27 3.27 0 0 1 -0.79 1.06c-0.37 0.32 -0.84 0.62 -1.22 1a2.63 2.63 0 0 0 -0.48 0.68Z" fill="#4C57E6" stroke-width="1"></path>
  </g>
</svg>