<svg xmlns="http://www.w3.org/2000/svg" viewBox="0 0 24 24" id="File-Code-Exe--Streamline-Freehand">
  <desc>
    File Code Exe Streamline Icon: https://streamlinehq.com
  </desc>
  <g>
    <path d="M5.43 12.9a3.22 3.22 0 0 0 1.88 0.1c1 0 0.79 -0.68 0.46 -0.68a3.09 3.09 0 0 1 -1.88 0c0 0.06 0.09 -1.19 0.09 -1.25a1.75 1.75 0 0 0 0.88 0.12c1.28 -0.15 1.18 0 1.29 -0.14a0.27 0.27 0 0 0 0 -0.36 1.21 1.21 0 0 0 -0.73 -0.31 3.54 3.54 0 0 0 -1.42 0.11 5.62 5.62 0 0 1 0.09 -1.3A13.51 13.51 0 0 0 8 9a0.22 0.22 0 0 0 0 -0.44c-2 0.08 -2.19 -0.26 -2.5 0.25A4.87 4.87 0 0 0 5.14 11c-0.02 0.56 -0.22 1.6 0.29 1.9Z" fill="#020202" fill-rule="evenodd" stroke-width="1"></path>
    <path d="M13.13 12.25c0.13 1.08 1.2 0.83 2.22 0.77a1.09 1.09 0 0 0 0.55 -0.13c0.29 -0.21 0.16 -0.55 -0.09 -0.55a3.09 3.09 0 0 1 -1.88 0c0 0.06 0.09 -1.19 0.09 -1.25a1.75 1.75 0 0 0 0.88 0.12c1.27 -0.15 1.18 0 1.28 -0.14a0.25 0.25 0 0 0 0 -0.36c-0.2 -0.29 -1 -0.36 -1.34 -0.34a5.62 5.62 0 0 0 -0.82 0.14 5.62 5.62 0 0 1 0.09 -1.3A13.38 13.38 0 0 0 16 9a0.22 0.22 0 1 0 0 -0.44c-1.25 0.05 -1.93 -0.08 -2.12 0 -0.81 0.17 -0.63 1.95 -0.66 2.49a8.43 8.43 0 0 0 -0.09 1.2Z" fill="#020202" fill-rule="evenodd" stroke-width="1"></path>
    <path d="M9.24 12.9a9.58 9.58 0 0 0 1.26 -1.5 13.08 13.08 0 0 0 1.5 1.52c0.23 0 0.3 -0.12 0.32 -0.32A12.69 12.69 0 0 0 11 10.79l0.43 -0.58 0.91 -1.16a0.26 0.26 0 0 0 -0.41 -0.3c-1.21 1.05 -1 0.85 -1.44 1.43l-1.2 -1.44a0.26 0.26 0 0 0 -0.39 0.33c0.75 1.41 0.59 1.19 1.09 1.76a13.66 13.66 0 0 0 -1.13 1.83c0.03 0.23 0.14 0.27 0.38 0.24Z" fill="#020202" fill-rule="evenodd" stroke-width="1"></path>
    <g>
      <path d="M15.71 5.61a4.13 4.13 0 0 1 -0.66 -0.05c0.06 -0.22 0.15 -0.48 0.24 -0.76 0.43 -1.42 0.64 -2.91 -0.5 -3.87a0.27 0.27 0 0 0 -0.37 0.39c1.18 1.28 -0.27 3.05 -0.42 4.39s3.07 0.9 4.18 0.39l1.69 -0.71a0.35 0.35 0 0 0 -0.17 -0.66c-2.12 0.77 -2.21 0.92 -3.99 0.88Z" fill="#020202" fill-rule="evenodd" stroke-width="1"></path>
      <path d="M15.88 0.06C14.5 0 15.13 0 6 0a0.31 0.31 0 0 0 0 0.65c8.51 0.07 8.76 0 9.82 0.16s3.75 2.65 4.43 3.7a1.11 1.11 0 0 1 0.25 0.61c-0.1 1.54 -0.74 6 -1 7.08s-0.45 1.8 -0.63 2.71c-0.07 0.36 -0.52 4.6 -1.65 5.15 -1.59 0.77 -3.37 0.26 -5 0.4a45.54 45.54 0 0 1 -4.58 0.21c-5.4 -0.19 -5.15 -0.11 -6.61 -0.81 1.33 -1.81 2.22 -6 2.69 -8.45 0.53 -2.7 0.35 -5.45 0.56 -8.17 0 -0.47 0.47 -3 -0.3 -2.62 -0.31 0.14 -0.21 0.6 -0.21 0.81 0 1.35 -0.33 6.59 -0.41 7.46A36.67 36.67 0 0 1 0.88 18.4c-0.16 0.3 -0.35 0.59 -0.53 0.87a2 2 0 0 0 -0.34 0.57 0.76 0.76 0 0 0 0.43 0.76 7.1 7.1 0 0 0 2 0.76 57.84 57.84 0 0 0 9.84 0.13c1.69 -0.15 3.57 0.39 5.41 -0.51 1.68 -0.82 2.06 -5.25 2.18 -5.88 0.17 -0.91 0.41 -1.8 0.59 -2.7s0.79 -5.5 0.88 -7.24c0.08 -1.51 -4.07 -4.99 -5.46 -5.1Z" fill="#020202" fill-rule="evenodd" stroke-width="1"></path>
      <path d="M23.09 5.81c-0.1 1.54 -0.94 7.71 -1.16 8.75s-0.45 1.8 -0.63 2.71c-0.07 0.36 -0.52 4.6 -1.65 5.15 -1.59 0.76 -3.37 0.26 -5 0.4 -1 0.09 -3.24 0.25 -4.58 0.21 -5.15 -0.19 -5.14 0 -6.4 -0.57 -0.73 -0.29 -0.91 0.41 -0.46 0.72a4 4 0 0 0 1.69 0.54 57 57 0 0 0 9.83 0.12c1.69 -0.14 3.57 0.4 5.41 -0.5 1.68 -0.82 2.07 -5.25 2.18 -5.88 0.17 -0.91 0.41 -1.8 0.59 -2.7S23.92 7.68 24 6c0.05 -0.94 -0.8 -1.08 -0.91 -0.19Z" fill="#4C57E6" fill-rule="evenodd" stroke-width="1"></path>
    </g>
  </g>
</svg>