<svg xmlns="http://www.w3.org/2000/svg" viewBox="0 0 24 24" id="File-Code-Share-1--Streamline-Freehand">
  <desc>
    File Code Share 1 Streamline Icon: https://streamlinehq.com
  </desc>
  <g>
    <path d="M21.91 19.16a2 2 0 0 0 -2.21 1.46 9.88 9.88 0 0 0 -3.84 -1.47 1.83 1.83 0 0 0 0.05 -2.15c1.86 -1.25 1.74 -0.84 3.51 -2.48a2 2 0 0 0 2 0.8A2 2 0 0 0 22.58 12a1.94 1.94 0 0 0 -1.95 -0.56 0.37 0.37 0 0 0 0.12 0.73 1 1 0 0 1 0.41 2A1.08 1.08 0 0 1 20 13.7a1.1 1.1 0 0 1 -0.11 -1 0.33 0.33 0 0 0 0 -0.46c-0.36 -0.3 -1 0.34 -0.78 1.44a9.43 9.43 0 0 0 -2.25 1.37 10.87 10.87 0 0 0 -1.42 1.41c-0.35 -0.24 -0.74 -0.46 -0.93 -0.08a0.38 0.38 0 0 0 0.17 0.5 1 1 0 0 1 -0.84 1.83 1.05 1.05 0 0 1 -0.68 -1c0 -0.3 0.21 -0.75 0.47 -0.84a0.33 0.33 0 0 0 0.25 -0.39c-0.12 -0.52 -1.21 -0.21 -1.62 1a2 2 0 0 0 3.15 2.16c1.47 0.93 1.29 1.13 4.31 1.75a2.62 2.62 0 0 0 2.64 1.95 2.13 2.13 0 0 0 -0.45 -4.18Zm0.83 2.17c-0.08 0.75 -0.46 1 -0.92 1a1.66 1.66 0 0 1 -1.45 -1 1.1 1.1 0 0 1 1.38 -1.09 1.74 1.74 0 0 1 0.81 0.43 0.72 0.72 0 0 1 0.18 0.66Z" fill="#020202" fill-rule="evenodd" stroke-width="1"></path>
    <g>
      <path d="M10.36 19.17c-7 -0.18 -7.09 -0.15 -7.85 -0.3a2.05 2.05 0 0 1 -1.18 -0.5A7.51 7.51 0 0 0 2.09 17C4.48 10.54 3.87 7 4.06 3.74c0 0.32 0.05 -2.16 0 -2.24a0.3 0.3 0 0 0 -0.4 -0.16c-0.32 0.14 -0.23 0.62 -0.24 0.78 -0.39 7.26 -0.68 8.64 -1.7 12.18a20.23 20.23 0 0 1 -0.95 2.78C0.46 17.7 0.05 18.2 0 18.41a0.8 0.8 0 0 0 0.46 0.82 6.27 6.27 0 0 0 1.86 0.65c0.85 0.13 1 0.09 8.06 0a0.34 0.34 0 0 0 -0.02 -0.71Z" fill="#020202" fill-rule="evenodd" stroke-width="1"></path>
      <path d="M13.31 3.15c0.23 1.33 -1.84 3.49 0.26 3.67a6.85 6.85 0 0 0 2.84 -0.48l1.21 -0.54c0.26 -0.12 0.31 -0.34 0.21 -0.5 -0.24 -0.39 -1.12 0 -1.74 0.25a9.11 9.11 0 0 1 -2.35 0.18 5 5 0 0 0 0.26 -3.4c-0.4 -0.33 -0.84 -0.04 -0.69 0.82Z" fill="#020202" fill-rule="evenodd" stroke-width="1"></path>
      <path d="M14.37 0.67C13.26 0.59 14 0.61 5.5 0.82a0.34 0.34 0 0 0 0 0.68s8.56 0.29 8.77 0.31c0.94 0.08 4.1 3 4.09 3.57 0 1.47 -0.3 3.87 -0.45 5.3a0.3 0.3 0 0 0 0.6 0.08c0.19 -1.22 0.68 -3.69 0.83 -5.32S15.71 0.79 14.37 0.67Z" fill="#020202" fill-rule="evenodd" stroke-width="1"></path>
      <path d="M19.68 2.18a6.27 6.27 0 0 1 1.95 3.2c0 1.47 -0.46 3.49 -0.61 4.92a0.3 0.3 0 0 0 0.6 0.08c0.19 -1.22 0.84 -3.31 1 -4.94a5.06 5.06 0 0 0 -2.3 -4c-0.99 -0.51 -1.11 0.46 -0.64 0.74Z" fill="#4C57E6" fill-rule="evenodd" stroke-width="1"></path>
    </g>
    <path d="M8.59 9.4c0 -0.32 -0.2 -0.39 -0.49 -0.34a2.66 2.66 0 0 0 -0.69 0.36 5.19 5.19 0 0 0 -2 1.72c-0.32 0.62 0.41 1 0.56 1.18a20.11 20.11 0 0 0 1.86 1.44 0.34 0.34 0 0 0 0.48 -0.48c-0.31 -0.37 -0.74 -0.76 -1.12 -1.17s-0.21 -0.37 -0.63 -0.65C7.74 10 8.64 9.87 8.59 9.4Z" fill="#020202" fill-rule="evenodd" stroke-width="1"></path>
    <path d="M13.79 10.09a6.31 6.31 0 0 0 -2.36 -0.95 0.34 0.34 0 0 0 0 0.59 12.94 12.94 0 0 1 1.52 0.95c-0.21 0.33 -0.92 1.18 -1.29 1.62s-1 0.66 -0.69 1 0.87 -0.09 1.29 -0.43c1.02 -0.77 2.59 -1.87 1.53 -2.78Z" fill="#020202" fill-rule="evenodd" stroke-width="1"></path>
  </g>
</svg>