<svg xmlns="http://www.w3.org/2000/svg" viewBox="0 0 24 24" id="File-Code-Favorite-Star-1--Streamline-Freehand">
  <desc>
    File Code Favorite Star 1 Streamline Icon: https://streamlinehq.com
  </desc>
  <g>
    <path d="M24 17.06c-0.09 -1.21 -2 -1 -3.34 -1.22a1.66 1.66 0 0 0 -0.48 -0.08 13 13 0 0 0 -1.69 -2.7c-0.81 -1 -1.52 -0.69 -2.09 0.47l-0.88 1.94a3.31 3.31 0 0 0 -0.25 0.39 2.17 2.17 0 0 0 -0.4 0 8.38 8.38 0 0 0 -2.71 0.37c-0.59 0.33 -0.55 1.06 -0.06 1.59a9.49 9.49 0 0 0 1.61 1.07 3.24 3.24 0 0 0 1.25 0.54 0.35 0.35 0 0 0 0 -0.7l-0.82 -0.44c-0.68 -0.5 -1.1 -0.55 -1.61 -1.31 0 0 2.4 -0.14 2.88 -0.15 0.73 0 0.7 -0.61 2.09 -3.28a10.73 10.73 0 0 1 1.15 1.65 10.19 10.19 0 0 0 0.78 1.5c0.32 0.35 0.87 0.23 1.08 0.26a12.41 12.41 0 0 1 2.12 0.28 11.69 11.69 0 0 1 -2.29 1.28 0.7 0.7 0 0 0 -0.26 0.75 12.92 12.92 0 0 1 0.55 2.76 8.63 8.63 0 0 1 -2.65 -2 0.51 0.51 0 0 0 -0.71 0c-0.68 0.53 -1.95 2.73 -3 2.68a2.44 2.44 0 0 1 0.18 -0.95c0.34 -0.9 0.89 -1.54 0.41 -1.72a0.31 0.31 0 0 0 -0.4 0.17c-0.21 0.53 -0.44 0.86 -0.63 1.3a3.36 3.36 0 0 0 -0.3 1.44c0.16 0.64 1 0.57 1.67 0.24a7.75 7.75 0 0 0 1.84 -1.67 5 5 0 0 0 0.6 -0.47A10.63 10.63 0 0 0 20 22.92c0.58 0.32 1.15 0.72 1.57 0.28 0.28 -0.29 0.19 -0.78 0.19 -1a11 11 0 0 0 -0.42 -2.79c0.89 -0.47 2.73 -1.33 2.66 -2.35Z" fill="#020202" fill-rule="evenodd" stroke-width="1"></path>
    <g>
      <path d="M10.36 19.09c-7 -0.18 -7.09 -0.15 -7.85 -0.3a2.05 2.05 0 0 1 -1.18 -0.5 7.28 7.28 0 0 0 0.76 -1.4C4.48 10.46 3.87 7 4.06 3.66c0 0.32 0.05 -2.16 0 -2.24a0.3 0.3 0 0 0 -0.4 -0.16c-0.32 0.14 -0.23 0.62 -0.24 0.78 -0.39 7.26 -0.68 8.64 -1.7 12.18A20.7 20.7 0 0 1 0.79 17c-0.33 0.62 -0.74 1.12 -0.78 1.33a0.8 0.8 0 0 0 0.46 0.82 6.27 6.27 0 0 0 1.86 0.65c0.85 0.13 1 0.09 8.06 0a0.34 0.34 0 0 0 -0.03 -0.71Z" fill="#020202" fill-rule="evenodd" stroke-width="1"></path>
      <path d="M13.31 3.07c0.23 1.33 -1.84 3.49 0.26 3.67a6.85 6.85 0 0 0 2.84 -0.48l1.21 -0.54c0.26 -0.12 0.31 -0.34 0.21 -0.5 -0.24 -0.39 -1.12 0 -1.74 0.25a9.11 9.11 0 0 1 -2.35 0.18 5 5 0 0 0 0.26 -3.4c-0.4 -0.25 -0.84 -0.04 -0.69 0.82Z" fill="#020202" fill-rule="evenodd" stroke-width="1"></path>
      <path d="M14.37 0.59C13.26 0.51 14 0.53 5.5 0.74a0.34 0.34 0 0 0 0 0.68s8.56 0.29 8.77 0.31c0.94 0.08 4.1 3 4.09 3.57 0 1.47 -0.3 3.87 -0.45 5.3a0.3 0.3 0 0 0 0.6 0.08c0.19 -1.22 0.68 -3.7 0.83 -5.32S15.71 0.71 14.37 0.59Z" fill="#020202" fill-rule="evenodd" stroke-width="1"></path>
      <path d="M19.68 2.1a6.27 6.27 0 0 1 1.95 3.2c0 1.47 -0.9 5.43 -1.05 6.87a0.3 0.3 0 0 0 0.6 0.08C21.37 11 22.46 7 22.61 5.36a5.09 5.09 0 0 0 -2.3 -4c-0.98 -0.51 -1.1 0.46 -0.63 0.74Z" fill="#4C57E6" fill-rule="evenodd" stroke-width="1"></path>
    </g>
    <path d="M8.59 9.32c0 -0.32 -0.2 -0.39 -0.49 -0.35a3 3 0 0 0 -0.69 0.37 5.15 5.15 0 0 0 -2 1.71c-0.32 0.63 0.4 1 0.55 1.18a19.94 19.94 0 0 0 1.86 1.45 0.34 0.34 0 0 0 0.48 -0.48c-0.3 -0.37 -0.74 -0.76 -1.12 -1.2s-0.21 -0.36 -0.63 -0.64c1.19 -1.49 2.09 -1.57 2.04 -2.04Z" fill="#020202" fill-rule="evenodd" stroke-width="1"></path>
    <path d="M13.79 10a6 6 0 0 0 -2.36 -0.95 0.34 0.34 0 0 0 0 0.59 11.09 11.09 0 0 1 1.57 0.96c-0.2 0.32 -0.91 1.17 -1.29 1.61s-1 0.67 -0.69 1 0.87 -0.09 1.3 -0.44c0.96 -0.77 2.53 -1.91 1.47 -2.77Z" fill="#020202" fill-rule="evenodd" stroke-width="1"></path>
  </g>
</svg>