<svg xmlns="http://www.w3.org/2000/svg" viewBox="0 0 24 24" id="File-Code-Cash-1--Streamline-Freehand">
  <desc>
    File Code Cash 1 Streamline Icon: https://streamlinehq.com
  </desc>
  <g>
    <path d="M17.1 12.78a6.11 6.11 0 0 0 -2.44 1 0.34 0.34 0 0 0 0.38 0.57 5.53 5.53 0 0 1 2.2 -0.78c4.22 -0.64 6.77 3.14 5.19 6.56A4.88 4.88 0 0 1 15 21.75c-1.94 -1.5 -2.2 -4.66 -1.19 -5.89a0.3 0.3 0 0 0 -0.46 -0.4c-1.3 1.45 -1.18 5.11 1.06 7a5.8 5.8 0 0 0 9.12 -1.91 5.56 5.56 0 0 0 -6.43 -7.77Z" fill="#020202" fill-rule="evenodd" stroke-width="1"></path>
    <path d="M16.34 17.09c0 1.78 2.33 1.4 2.88 1.71 0 0 0.1 0 0.11 0.09 0.1 0.73 -2.1 0.75 -2.26 0.31 -0.22 -0.6 -1.22 0 -0.27 0.72a2.44 2.44 0 0 0 1.14 0.4 1.19 1.19 0 0 0 0.41 1.59c0.31 0 0.78 -0.89 0.38 -1.59 1.25 -0.11 1.71 -0.75 1.68 -1.52 0 -0.48 -0.33 -1 -1.17 -1.22 -0.56 -0.14 -1.79 0 -1.84 -0.55 -0.11 -0.88 1.4 -1 2 -0.53a0.31 0.31 0 0 0 0.38 -0.48 2.35 2.35 0 0 0 -1.12 -0.49 1.44 1.44 0 0 0 -0.45 -1.38c-0.09 -0.05 -0.2 0 -0.38 0.28a1 1 0 0 0 -0.18 1.09 1.49 1.49 0 0 0 -1.31 1.57Z" fill="#020202" fill-rule="evenodd" stroke-width="1"></path>
    <g>
      <path d="M10.36 18.6c-7 -0.18 -7.09 -0.15 -7.85 -0.3a2.05 2.05 0 0 1 -1.18 -0.5 7.28 7.28 0 0 0 0.76 -1.4C4.48 10 3.87 6.47 4.06 3.17c0 0.32 0.05 -2.16 0 -2.25a0.3 0.3 0 0 0 -0.4 -0.15c-0.32 0.14 -0.23 0.62 -0.24 0.78 -0.39 7.26 -0.68 8.64 -1.7 12.18a20.7 20.7 0 0 1 -0.95 2.78c-0.33 0.62 -0.74 1.12 -0.78 1.33a0.8 0.8 0 0 0 0.46 0.82 6.27 6.27 0 0 0 1.86 0.65c0.85 0.13 1 0.09 8.06 0a0.34 0.34 0 0 0 -0.01 -0.71Z" fill="#020202" fill-rule="evenodd" stroke-width="1"></path>
      <path d="M13.31 2.58c0.23 1.33 -1.84 3.49 0.26 3.67a7.19 7.19 0 0 0 2.84 -0.48l1.21 -0.54c0.26 -0.12 0.31 -0.34 0.21 -0.5 -0.24 -0.39 -1.12 0 -1.74 0.25a9.11 9.11 0 0 1 -2.35 0.18 5 5 0 0 0 0.26 -3.4c-0.4 -0.3 -0.84 -0.04 -0.69 0.82Z" fill="#020202" fill-rule="evenodd" stroke-width="1"></path>
      <path d="M14.37 0.09C13.26 0 14 0 5.5 0.25a0.34 0.34 0 0 0 0 0.68s8.56 0.28 8.77 0.31c0.94 0.08 4.1 3 4.09 3.57 0 1.47 -0.3 3.87 -0.45 5.3a0.3 0.3 0 0 0 0.6 0.08c0.19 -1.22 0.68 -3.7 0.83 -5.32S15.71 0.21 14.37 0.09Z" fill="#020202" fill-rule="evenodd" stroke-width="1"></path>
      <path d="M19.68 1.61a6.27 6.27 0 0 1 1.95 3.2c0 1.47 -0.9 5.43 -1.05 6.86a0.3 0.3 0 0 0 0.6 0.09c0.19 -1.23 1.28 -5.27 1.43 -6.89a5.09 5.09 0 0 0 -2.3 -4c-0.98 -0.52 -1.1 0.46 -0.63 0.74Z" fill="#4C57E6" fill-rule="evenodd" stroke-width="1"></path>
    </g>
    <path d="M8.7 8.62c0 -0.32 -0.21 -0.39 -0.5 -0.35a2.73 2.73 0 0 0 -0.69 0.38 5.16 5.16 0 0 0 -2 1.73c-0.32 0.63 0.42 1 0.57 1.2A20.64 20.64 0 0 0 7.92 13a0.34 0.34 0 0 0 0.48 -0.49c-0.31 -0.37 -0.74 -0.77 -1.13 -1.19s-0.22 -0.37 -0.64 -0.65C7.84 9.19 8.75 9.1 8.7 8.62Z" fill="#020202" fill-rule="evenodd" stroke-width="1"></path>
    <path d="M14 9.32a6.23 6.23 0 0 0 -2.39 -1 0.35 0.35 0 0 0 0 0.6 11.54 11.54 0 0 1 1.55 1c-0.08 0.12 -0.18 0.24 -0.27 0.37a13.89 13.89 0 0 1 -1.75 1.94 0.38 0.38 0 0 0 0.37 0.56c0.31 0 0.87 -0.55 1 -0.62 0.99 -0.86 2.49 -2 1.49 -2.85Z" fill="#020202" fill-rule="evenodd" stroke-width="1"></path>
  </g>
</svg>