<svg xmlns="http://www.w3.org/2000/svg" viewBox="0 0 24 24" id="Fitness-Jumping-Rope--Streamline-Freehand">
  <desc>
    Fitness Jumping Rope Streamline Icon: https://streamlinehq.com
  </desc>
  <title>fitness-jumping-rope</title>
  <g>
    <path d="m4 15 -1 0a6.75 6.75 0 0 0 -1.1 0.14c-0.41 0.24 -0.45 0.47 0 0.7s0.63 0.2 1.07 0.26a9.76 9.76 0 0 0 1.08 0.05l1.3 -0.25c0.27 -0.3 0.23 -0.8 -1.35 -0.9Z" fill="#4C57E6" stroke-width="1"></path>
    <path d="M23.52 13.42a1.18 1.18 0 0 0 -0.34 -0.69 2.3 2.3 0 0 0 -1.18 -0.16l-1 0a47.66 47.66 0 0 0 -1.48 -7.68A6.94 6.94 0 0 0 17.82 2a8.83 8.83 0 0 0 -1.38 -1 7.5 7.5 0 0 0 -1.56 -0.79 5.29 5.29 0 0 0 -3.37 0.15A8.69 8.69 0 0 0 7.25 2 10.53 10.53 0 0 0 3.9 6.76a14.59 14.59 0 0 0 -0.9 5.93c-0.75 0 -1.82 0.06 -1.82 0.06 -0.44 0 -0.33 0.09 -0.86 7.82a8.6 8.6 0 0 0 0 1.34 2.3 2.3 0 0 0 0.38 1A3 3 0 0 0 3 24a3.15 3.15 0 0 0 2.39 -0.72 3 3 0 0 0 0.5 -1.19 26.68 26.68 0 0 0 0.53 -4 21.47 21.47 0 0 0 -0.09 -4.59 1.18 1.18 0 0 0 -0.35 -0.69 2.27 2.27 0 0 0 -1.14 -0.16c-0.37 0 -0.74 0 -1.19 0.05A14 14 0 0 1 4.57 7a9.66 9.66 0 0 1 3.19 -4.34 6.12 6.12 0 0 1 1 -0.59A4.46 4.46 0 0 0 8 3.1a9.27 9.27 0 0 0 -0.52 4.71 4.27 4.27 0 0 0 1.56 3c3.2 2.21 5.74 1 7.17 -1.22s1.67 -5.83 0.1 -7.58a8.57 8.57 0 0 1 1 0.71 6.07 6.07 0 0 1 1.5 2.48c0.88 2.41 1.09 5.45 1.61 7.36l0 0.08a10.44 10.44 0 0 0 -2 0.11c-0.11 0 -0.32 0.18 -0.35 0.3 -0.18 1 -0.51 7.48 -0.51 7.48a8.6 8.6 0 0 0 0 1.34 2.29 2.29 0 0 0 0.37 1A3.06 3.06 0 0 0 20.2 24a3.09 3.09 0 0 0 2.38 -0.72 2.8 2.8 0 0 0 0.51 -1.28 28.21 28.21 0 0 0 0.52 -4 20.21 20.21 0 0 0 -0.09 -4.58Zm-19.17 -0.05a8.61 8.61 0 0 1 1.12 0.09l0 0.61A31 31 0 0 1 5.3 18a31.32 31.32 0 0 1 -0.57 3.85 2.06 2.06 0 0 1 -0.2 0.65 2 2 0 0 1 -1.5 0.4 1.91 1.91 0 0 1 -1.44 -0.56 1.11 1.11 0 0 1 -0.22 -0.55 8.06 8.06 0 0 1 -0.05 -1.19c0 -3.59 0.14 -4.23 0.2 -7.17 0.74 -0.03 1.92 -0.07 2.83 -0.06Zm10.89 -4.45c-1.12 1.71 -3.08 2.61 -5.56 0.9a3.14 3.14 0 0 1 -1.1 -2.18 8.13 8.13 0 0 1 0.35 -4 5.22 5.22 0 0 1 2.46 -2.11l0.45 -0.19a4.52 4.52 0 0 1 3.67 1.36c1.28 1.42 0.98 4.3 -0.27 6.22Zm7.3 9a33.38 33.38 0 0 1 -0.54 3.85 2.06 2.06 0 0 1 -0.2 0.65 2 2 0 0 1 -1.5 0.4 1.93 1.93 0 0 1 -1.45 -0.56 1.19 1.19 0 0 1 -0.21 -0.55 8.11 8.11 0 0 1 -0.06 -1.19c0.05 -1.79 0.16 -5.37 0.21 -7.16l2.83 0c0.48 0 0.85 0.07 1.12 0.09l0 0.61a33.26 33.26 0 0 1 -0.2 3.86Z" fill="#020202" stroke-width="1"></path>
    <path d="m21.17 14.94 -0.92 0a9.74 9.74 0 0 0 -1.21 0.14c-0.34 0.1 -0.34 0.48 0 0.69s0.77 0.21 1.17 0.27 1.58 -0.05 1.9 0c0.94 -0.25 0.45 -1 0.13 -1a9.29 9.29 0 0 1 -1.07 -0.1Z" fill="#4C57E6" stroke-width="1"></path>
  </g>
</svg>