<svg xmlns="http://www.w3.org/2000/svg" viewBox="0 0 24 24" id="Flag-Plain-Rectangle--Streamline-Freehand">
  <desc>
    Flag Plain Rectangle Streamline Icon: https://streamlinehq.com
  </desc>
  <path d="M23.24 6.55a33.57 33.57 0 0 0 -3.69 -3.84A19.13 19.13 0 0 0 16.32 0.22a1.11 1.11 0 0 0 -0.87 -0.11 1.49 1.49 0 0 0 -0.71 0.75 9.48 9.48 0 0 1 -1.25 2.25 5.56 5.56 0 0 1 -1.6 1.29 2.6 2.6 0 0 1 -2.49 -0.05 7.66 7.66 0 0 0 -3 -0.91 4.48 4.48 0 0 0 -1.62 0.34 7.44 7.44 0 0 0 -2.82 2A6.69 6.69 0 0 0 0.6 8a0.3 0.3 0 0 0 -0.38 -0.19 0.29 0.29 0 0 0 -0.22 0.36c0.13 0.46 0.77 2.79 1.63 5.52 0.24 0.76 0.5 1.55 0.78 2.34s0.55 1.56 0.83 2.31c0.94 2.46 1.76 4.59 2.1 5.37a0.34 0.34 0 1 0 0.66 -0.23c-0.15 -0.47 -0.44 -1.41 -0.8 -2.61l0 -0.06a8.91 8.91 0 0 1 1 -2.82 5.1 5.1 0 0 1 2.14 -1.9 6.17 6.17 0 0 1 2.66 -0.62c2.47 -0.06 4.79 0.84 7 -0.09a11.84 11.84 0 0 0 4.7 -3.52A5.85 5.85 0 0 0 24 8a3.32 3.32 0 0 0 -0.76 -1.45Zm-2 5.32a11.36 11.36 0 0 1 -3.64 2.58c-2 0.92 -4.26 0 -6.59 0.15a7 7 0 0 0 -3 0.76 5.88 5.88 0 0 0 -2.41 2.25 7.75 7.75 0 0 0 -0.8 2c-0.16 -0.52 -0.32 -1.05 -0.5 -1.61 -0.24 -0.76 -0.5 -1.55 -0.77 -2.34s-0.53 -1.58 -0.84 -2.33C2 11.54 1.39 10 1 9a5 5 0 0 1 1.42 -2.74A6.9 6.9 0 0 1 5 4.49a3.77 3.77 0 0 1 3.19 0.28 7.16 7.16 0 0 0 2.43 0.86 3.15 3.15 0 0 0 1.71 -0.38 6.34 6.34 0 0 0 1.92 -1.47 8.3 8.3 0 0 0 1.29 -2.13c0.11 -0.22 0.15 -0.42 0.26 -0.5 0.16 0.09 0.42 0.32 0.66 0.49a35.26 35.26 0 0 1 3.85 3.41 21.64 21.64 0 0 1 2.24 2.53c0.14 0.22 0.27 0.38 0.27 0.49a5.21 5.21 0 0 1 -1.6 3.8Z" fill="#020202" fill-rule="evenodd" stroke-width="1"></path>
</svg>