<svg xmlns="http://www.w3.org/2000/svg" viewBox="0 0 24 24" id="Flip-Vertical-Up--Streamline-Freehand">
  <desc>
    Flip Vertical Up Streamline Icon: https://streamlinehq.com
  </desc>
  <g>
    <path d="M0.89 13.11a0.39 0.39 0 0 1 0.38 0.41s-0.06 2 0 3.91A20.81 20.81 0 0 0 1.56 20a2.9 2.9 0 0 0 0.68 1.34 2.6 2.6 0 0 0 1.25 0.76 24.24 24.24 0 0 0 4.06 0.35c1.91 0.07 4.17 0.09 6.28 0a40.81 40.81 0 0 0 4.83 -0.36 4.29 4.29 0 0 0 1.73 -0.51 1 1 0 0 0 0.37 -0.54 6.86 6.86 0 0 0 0.24 -1.36 21.52 21.52 0 0 0 0.2 -2.68c0.05 -1.43 0 -2.91 0 -4.11a0.34 0.34 0 0 1 0.33 -0.36 0.36 0.36 0 0 1 0.36 0.34c0.05 1.21 0.14 2.7 0.16 4.14a22.67 22.67 0 0 1 -0.05 2.81 9.73 9.73 0 0 1 -0.18 1.54 2.28 2.28 0 0 1 -0.68 1.08 6.71 6.71 0 0 1 -3 0.95 38 38 0 0 1 -4.27 0.37c-2.15 0.08 -4.45 0 -6.39 -0.06a22.75 22.75 0 0 1 -4.32 -0.53A3.68 3.68 0 0 1 1.43 22a4 4 0 0 1 -0.87 -1.87 22.67 22.67 0 0 1 -0.18 -2.69c0 -2 0.1 -4 0.1 -4a0.4 0.4 0 0 1 0.41 -0.33Z" fill="#4C57E6" fill-rule="evenodd" stroke-width="1"></path>
    <path d="M23.7 11.27a71.83 71.83 0 0 1 -9.2 0.74l0 0.36a8.77 8.77 0 0 1 -0.5 2.06 9.54 9.54 0 0 1 -2.86 3.91 0.35 0.35 0 0 1 -0.47 -0.51A9.43 9.43 0 0 0 12.8 14a10.25 10.25 0 0 0 0.39 -1.81l0 -0.22c-1.48 0 -3 -0.05 -4.45 -0.13s-8.27 -0.51 -8.36 -0.51a0.4 0.4 0 0 1 -0.38 -0.4 0.39 0.39 0 0 1 0.4 -0.39h0.31c0 -0.25 -0.11 -0.5 -0.14 -0.77a3.25 3.25 0 0 1 0 -0.54 3.29 3.29 0 0 1 0 -0.54c0.3 -1.6 0.57 -1.57 0.73 -1.56s0.37 0 0.53 1.62a4.64 4.64 0 0 1 0 0.53 4.6 4.6 0 0 1 -0.06 0.52c0 0.26 -0.09 0.51 -0.14 0.75 3.28 0 6.59 0 9.91 0.1l1.66 0 0 -0.32A6.79 6.79 0 0 0 12 6.89l-0.21 0.4a5.46 5.46 0 0 1 -0.51 0.72c-0.41 0.48 -0.88 0.9 -1.31 1.37a0.39 0.39 0 0 1 -0.55 0.06 0.4 0.4 0 0 1 -0.07 -0.55c0.31 -0.44 0.65 -0.85 0.95 -1.29a5.18 5.18 0 0 0 0.46 -0.84l0.32 -0.76 0.11 -0.41a0.72 0.72 0 0 1 0.69 -0.51 5.77 5.77 0 0 1 2.12 0.71 16.85 16.85 0 0 1 2.59 1.83 0.35 0.35 0 0 1 0.09 0.48 0.34 0.34 0 0 1 -0.48 0.09c-0.6 -0.33 -1.42 -0.74 -2.26 -1.1 -0.33 -0.14 -0.66 -0.26 -1 -0.37a7.36 7.36 0 0 1 1.49 3.51 3.85 3.85 0 0 1 0 0.48l0.8 0c1.24 0 2.47 0.06 3.7 0 0.68 0 1.36 -0.06 2 -0.09l0 -0.73 0 -0.61a6 6 0 0 1 0.07 -0.61c0.25 -1.65 0.34 -1.86 0.69 -1.84s0.43 0.15 0.55 1.89l0 0.65a3.76 3.76 0 0 1 -0.09 0.65 4.18 4.18 0 0 1 -0.2 0.56c0.52 0 1.05 0 1.56 -0.07a0.35 0.35 0 0 1 0.39 0.3 0.36 0.36 0 0 1 -0.2 0.46Z" fill="#020202" fill-rule="evenodd" stroke-width="1"></path>
    <path d="M22.28 4.21a0.36 0.36 0 0 1 -0.34 -0.36 3.94 3.94 0 0 0 -0.48 -1.51 2.22 2.22 0 0 0 -0.32 -0.42A3.75 3.75 0 0 0 19.19 1a0.39 0.39 0 0 1 -0.34 -0.44 0.4 0.4 0 0 1 0.44 -0.34 5.59 5.59 0 0 1 2 0.27 2.23 2.23 0 0 1 0.83 0.53 2.14 2.14 0 0 1 0.54 0.85 4.26 4.26 0 0 1 0 2 0.36 0.36 0 0 1 -0.38 0.34Z" fill="#020202" fill-rule="evenodd" stroke-width="1"></path>
    <path d="M15.22 1.73a3.25 3.25 0 0 1 -0.54 0 5 5 0 0 1 -0.54 -0.07c-1.46 -0.27 -1.65 -0.38 -1.63 -0.7s0.18 -0.43 1.7 -0.54a5 5 0 0 1 0.55 0 3.31 3.31 0 0 1 0.55 0.07c1.63 0.35 1.59 0.61 1.57 0.78s0.01 0.35 -1.66 0.46Z" fill="#020202" fill-rule="evenodd" stroke-width="1"></path>
    <path d="M9.32 1.6a2.18 2.18 0 0 1 -0.44 0 3.13 3.13 0 0 1 -0.44 0C7.13 1.42 7 1.29 7 1S7.1 0.59 8.42 0.36l0.44 0a3.4 3.4 0 0 1 0.45 0c1.4 0.22 1.38 0.47 1.38 0.61s0.03 0.38 -1.37 0.63Z" fill="#020202" fill-rule="evenodd" stroke-width="1"></path>
    <path d="M5 1.39a8.06 8.06 0 0 0 -1.75 0.47 2 2 0 0 0 -0.52 0.3 3.27 3.27 0 0 0 -1.09 2.05 0.38 0.38 0 0 1 -0.43 0.34 0.4 0.4 0 0 1 -0.35 -0.44A5.49 5.49 0 0 1 1.22 2a2.43 2.43 0 0 1 0.67 -0.86 2.26 2.26 0 0 1 1 -0.46A6.64 6.64 0 0 1 5 0.7a0.34 0.34 0 0 1 0.32 0.3 0.34 0.34 0 0 1 -0.32 0.39Z" fill="#020202" fill-rule="evenodd" stroke-width="1"></path>
  </g>
</svg>