<svg xmlns="http://www.w3.org/2000/svg" viewBox="0 0 24 24" id="Flower--Streamline-Freehand">
  <desc>
    Flower Streamline Icon: https://streamlinehq.com
  </desc>
  <g>
    <path d="M13.54 10.55a2.92 2.92 0 0 0 1.09 -2.81 2.48 2.48 0 0 0 -1.44 -1.92 5.09 5.09 0 0 0 -1.51 -0.46c-2.09 -0.22 -2.85 2 -2.93 2.69a3.22 3.22 0 0 0 0.83 2.56 3.18 3.18 0 0 0 3.96 -0.06Zm-3.22 -0.68a2.32 2.32 0 0 1 -0.69 -1.76 2.4 2.4 0 0 1 0.67 -1.57 2.67 2.67 0 0 1 2.4 -0.11 1.78 1.78 0 0 1 0.65 0.47 2 2 0 0 1 0.2 2A2.24 2.24 0 0 1 12 10.33a1.77 1.77 0 0 1 -1.68 -0.46Z" fill="#4C57E6" fill-rule="evenodd" stroke-width="1"></path>
    <path d="M19.06 17.73a1.5 1.5 0 0 0 -0.37 0l-0.57 -0.11a4.59 4.59 0 0 0 -1.28 0 5.57 5.57 0 0 0 -1.2 0.34 6.82 6.82 0 0 0 -3.36 3.33c0.06 -0.83 0.1 -1.66 0.09 -2.5s0 -1.49 -0.09 -2.24c-0.09 -1.1 -0.23 -2.18 -0.28 -3.27a4.16 4.16 0 0 0 0.22 0.48 3.48 3.48 0 0 0 0.44 0.59 2.79 2.79 0 0 0 3.09 0.69 2.89 2.89 0 0 0 1.85 -2.58 2.59 2.59 0 0 0 -0.12 -0.86 3.87 3.87 0 0 0 -0.55 -1.07 3.33 3.33 0 0 0 -0.55 -0.59l-0.12 -0.1h0.29a5.7 5.7 0 0 0 1.29 -0.34 3.11 3.11 0 0 0 0.81 -0.5 3.33 3.33 0 0 0 0.9 -3.5 2.81 2.81 0 0 0 -3 -2 2.72 2.72 0 0 0 -0.9 0.26 4.32 4.32 0 0 0 -0.79 0.52 4.33 4.33 0 0 0 0.11 -1 4.42 4.42 0 0 0 -0.12 -1A3 3 0 0 0 11 0.15a3.09 3.09 0 0 0 -2.27 3.76c0 0.14 0.11 0.28 0.16 0.43A4.28 4.28 0 0 0 8 4a3.75 3.75 0 0 0 -1.07 -0.1 2.93 2.93 0 0 0 -1.1 0.23A2.58 2.58 0 0 0 4.4 5.87a3.09 3.09 0 0 0 0.22 2.2A3.46 3.46 0 0 0 6.44 9.6a4.55 4.55 0 0 0 1.23 0.24 2.91 2.91 0 0 0 -0.54 0.34 4.23 4.23 0 0 0 -0.53 0.51 6.54 6.54 0 0 0 -0.4 0.52 2.5 2.5 0 0 0 -0.3 0.64 2.29 2.29 0 0 0 0.83 2.54 3.28 3.28 0 0 0 2.52 0.61 2.64 2.64 0 0 0 1 -0.45 3.23 3.23 0 0 0 0.76 -0.76 4.37 4.37 0 0 0 0.33 -0.59 35.69 35.69 0 0 0 -0.09 3.8c0 0.74 0.05 1.49 0.1 2.23s0.1 1.37 0.14 2.06l-0.17 -0.29a8 8 0 0 0 -1.17 -1.23c-0.36 -0.31 -0.72 -0.65 -1.1 -0.95 -0.18 -0.14 -0.36 -0.27 -0.55 -0.39a5.66 5.66 0 0 0 -1.26 -0.59 5.51 5.51 0 0 0 -1.37 -0.29l-0.74 -0.06a0.63 0.63 0 0 0 -0.63 0.47 5.25 5.25 0 0 0 0.27 2.28 5.45 5.45 0 0 0 1.14 2 5 5 0 0 0 2.64 1.45 6.34 6.34 0 0 0 2.93 -0.12 0.31 0.31 0 0 0 0.23 -0.38 0.32 0.32 0 0 0 -0.38 -0.24 5.7 5.7 0 0 1 -2.6 0 4.1 4.1 0 0 1 -2.11 -1.32 4.71 4.71 0 0 1 -0.84 -1.64 4.78 4.78 0 0 1 -0.24 -1.31h0.25a4.87 4.87 0 0 1 1.14 0.22 5.47 5.47 0 0 1 1.1 0.42 6.29 6.29 0 0 1 0.64 0.41c0.34 0.24 0.67 0.5 1 0.73a6.94 6.94 0 0 1 1.13 1 11.44 11.44 0 0 1 0.74 1v0.13a0.31 0.31 0 0 0 0.31 0.32 0.27 0.27 0 0 0 0.52 -0.07 5.72 5.72 0 0 1 1.36 -2.4A5.8 5.8 0 0 1 16 18.87a5 5 0 0 1 1 -0.23 4 4 0 0 1 1 0l0.15 0c-0.14 0.26 -0.31 0.53 -0.44 0.78a10.86 10.86 0 0 1 -1.8 2.68 4 4 0 0 1 -1.72 1.11 1.69 1.69 0 0 1 -0.52 0c-0.33 0 -0.69 -0.08 -1 -0.11a0.32 0.32 0 0 0 -0.36 0.28 0.32 0.32 0 0 0 0.28 0.36c0.31 0 0.76 0.15 1.16 0.17a1.87 1.87 0 0 0 0.59 0 4.91 4.91 0 0 0 2.12 -1.17A12.21 12.21 0 0 0 18.6 20c0.18 -0.32 0.4 -0.66 0.58 -1a3.82 3.82 0 0 0 0.23 -0.51 0.55 0.55 0 0 0 -0.35 -0.73Zm-8.23 -5.1a3.23 3.23 0 0 1 -0.44 0.67 2.09 2.09 0 0 1 -0.6 0.51 1.57 1.57 0 0 1 -0.69 0.19 2.35 2.35 0 0 1 -1.7 -0.49 1.37 1.37 0 0 1 -0.56 -1.45 1.57 1.57 0 0 1 0.16 -0.39 3.35 3.35 0 0 1 0.27 -0.45 3.44 3.44 0 0 1 0.38 -0.46 2.3 2.3 0 0 1 0.45 -0.36c0.17 -0.1 0.36 -0.17 0.53 -0.27a0.42 0.42 0 0 0 -0.14 -0.82 3.67 3.67 0 0 1 -1.73 -0.44A2.5 2.5 0 0 1 5.54 7.6a2.09 2.09 0 0 1 -0.1 -1.46A1.63 1.63 0 0 1 6.25 5 2.11 2.11 0 0 1 7 4.81a3.37 3.37 0 0 1 0.84 0 4.28 4.28 0 0 1 0.93 0.26 6.19 6.19 0 0 1 0.58 0.28c0.22 0.18 0.23 0.23 0.34 0.28s0.44 0 0.38 -0.23a4.17 4.17 0 0 1 -0.57 -1.67 2.24 2.24 0 0 1 1.79 -2.56A2.05 2.05 0 0 1 14 2.47a3 3 0 0 1 0.16 0.8 4 4 0 0 1 0 0.85 2.7 2.7 0 0 1 -0.25 0.79c-0.08 0.17 -0.21 0.32 -0.39 0.72 -0.08 0.21 0.21 0.52 0.49 0.44a2.53 2.53 0 0 0 0.49 -0.54 6.66 6.66 0 0 1 0.58 -0.53 3.62 3.62 0 0 1 0.77 -0.45 2.06 2.06 0 0 1 0.79 -0.18 1.9 1.9 0 0 1 1.88 1.43A2.42 2.42 0 0 1 18 8.29a2.41 2.41 0 0 1 -0.71 0.48 5.53 5.53 0 0 1 -0.9 0.28 2.21 2.21 0 0 1 -0.77 0 2.78 2.78 0 0 1 -0.77 -0.17s-0.1 0 -0.15 0a0.46 0.46 0 0 0 -0.15 0.54 0.08 0.08 0 0 0 0 0.05c0.63 0.31 0.32 -0.09 1.28 0.93a2.92 2.92 0 0 1 0.4 0.5 3.53 3.53 0 0 1 0.3 0.72 1.76 1.76 0 0 1 0.06 0.71A2 2 0 0 1 15.36 14a2 2 0 0 1 -2.08 -0.34 2.79 2.79 0 0 1 -0.38 -0.39 3.4 3.4 0 0 1 -0.29 -0.48 4.07 4.07 0 0 1 -0.26 -0.71 2.94 2.94 0 0 1 -0.16 -0.6 0.49 0.49 0 0 0 -0.85 0.12 10.42 10.42 0 0 1 -0.51 1.03Z" fill="#020202" fill-rule="evenodd" stroke-width="1"></path>
  </g>
</svg>