<svg xmlns="http://www.w3.org/2000/svg" viewBox="0 0 24 24" id="Flying-Insect-Ladybug-1--Streamline-Freehand">
  <desc>
    Flying Insect Ladybug 1 Streamline Icon: https://streamlinehq.com
  </desc>
  <g>
    <path d="M13 6.22a3.52 3.52 0 0 1 -1 1.16 5.7 5.7 0 0 1 -1.41 0.79 5.57 5.57 0 0 1 -3.26 0.36 0.27 0.27 0 0 0 -0.33 0.18 0.27 0.27 0 0 0 0.18 0.35 6 6 0 0 0 3.77 0.06 5.59 5.59 0 0 0 1.73 -0.9 4.28 4.28 0 0 0 1.25 -1.56 5.24 5.24 0 0 0 0.36 -1.49A9.13 9.13 0 0 0 14.21 3a0.31 0.31 0 0 0 -0.34 -0.29 0.32 0.32 0 0 0 -0.3 0.34 9.42 9.42 0 0 1 -0.07 1.67 4.35 4.35 0 0 1 -0.5 1.5Z" fill="#4C57E6" fill-rule="evenodd" stroke-width="1"></path>
    <path d="M23.93 13.27a7 7 0 0 0 -0.2 -0.91 6.36 6.36 0 0 0 -0.33 -0.86 8.63 8.63 0 0 0 -1.17 -1.79 0.27 0.27 0 0 0 -0.38 -0.08 0.26 0.26 0 0 0 -0.09 0.38 15.17 15.17 0 0 1 0.81 2.23c0.16 0.5 0.33 1 0.45 1.5a9.49 9.49 0 0 1 0.28 1.65s0 0.08 0 0.12a21.56 21.56 0 0 1 -6.22 2.06 25.5 25.5 0 0 1 -3.28 0.35 24.6 24.6 0 0 1 -3.32 0c-0.77 -0.05 -1.54 -0.09 -2.31 -0.21a8.41 8.41 0 0 1 -1.46 -0.36H6a7.07 7.07 0 0 1 -1.79 0.16 8.4 8.4 0 0 1 -1.77 -0.24 5.33 5.33 0 0 1 -0.88 -0.27 1 1 0 0 1 -0.36 -0.22 0.47 0.47 0 0 0 0 -0.16c-0.05 -0.32 -0.1 -0.63 -0.13 -1a4 4 0 0 1 0 -0.6 4.49 4.49 0 0 1 1.29 -2.84 5 5 0 0 1 2.88 -1.51l0.05 0c0 0.16 -0.07 0.33 -0.1 0.49a20.74 20.74 0 0 0 0 5.78 0.39 0.39 0 0 0 0.08 0.14 0.26 0.26 0 0 0 0.21 0.19 6.51 6.51 0 0 0 1.87 0 19.91 19.91 0 0 0 2.63 -0.68 18.67 18.67 0 0 0 3.58 -1.46 16.48 16.48 0 0 0 2.19 -1.38 20.07 20.07 0 0 0 4.47 -4.63A25.93 25.93 0 0 0 22 6.4a5.66 5.66 0 0 0 0.64 -2.11 0.32 0.32 0 0 0 -0.29 -0.29 0.3 0.3 0 0 0 -0.34 0.29 4.82 4.82 0 0 1 -0.65 1.81 21.2 21.2 0 0 1 -1.79 2.49 20.47 20.47 0 0 1 -4.38 4.29 24.18 24.18 0 0 1 -2.6 1.64 21.66 21.66 0 0 1 -2.8 1.29 18.05 18.05 0 0 1 -2.49 0.8 5.74 5.74 0 0 1 -1.49 0.13C5.39 10.89 7 8.52 7.33 7.9a11.94 11.94 0 0 1 4 -4 10.7 10.7 0 0 1 5.3 -1.8 11.65 11.65 0 0 1 2.69 0.49 13.88 13.88 0 0 1 1.63 0.5 4.63 4.63 0 0 1 1 0.51 0.34 0.34 0 0 0 0.45 -0.07 0.32 0.32 0 0 0 -0.08 -0.45 5.31 5.31 0 0 0 -1.06 -0.61 17.91 17.91 0 0 0 -1.69 -0.6 17.44 17.44 0 0 0 -1.69 -0.48 5.58 5.58 0 0 0 -1.22 -0.15A11.26 11.26 0 0 0 10.73 3a12.46 12.46 0 0 0 -4.29 4.4 11.94 11.94 0 0 0 -1 2.77 0.31 0.31 0 0 0 -0.19 -0.06 5.5 5.5 0 0 0 -2.69 0.89 9.17 9.17 0 0 0 -0.46 -1.21 4.57 4.57 0 0 0 -0.29 -0.47 2.87 2.87 0 0 0 -0.34 -0.44A10 10 0 0 0 0.49 8 0.27 0.27 0 0 0 0.1 8a0.27 0.27 0 0 0 0 0.39c0.24 0.42 0.42 0.84 0.68 1.25a7.5 7.5 0 0 0 0.48 0.67c0.26 0.33 0.53 0.63 0.78 1l-0.27 0.21A5.41 5.41 0 0 0 0 14.93a4.82 4.82 0 0 0 0 0.76c0 0.36 0.1 0.72 0.16 1.07a2 2 0 0 0 0.08 0.42 0.66 0.66 0 0 0 0.17 0.24 2.46 2.46 0 0 0 0.75 0.45 7.48 7.48 0 0 0 1.09 0.26 9.12 9.12 0 0 0 2 0.12 7.72 7.72 0 0 0 1.94 -0.32 1.75 1.75 0 0 0 0.35 -0.1 8.64 8.64 0 0 0 0.85 0.31c-0.16 0.39 -0.33 0.76 -0.46 1.17 0 0.18 -0.09 0.37 -0.13 0.55a5.43 5.43 0 0 0 -0.09 0.56c-0.06 0.44 -0.08 0.88 -0.15 1.32a0.31 0.31 0 0 0 0.22 0.39 0.31 0.31 0 0 0 0.39 -0.22c0.19 -0.42 0.37 -0.83 0.52 -1.27a5.62 5.62 0 0 0 0.15 -0.55 4 4 0 0 0 0.1 -0.57l0 -1.23 0.12 0c0.76 0.18 1.55 0.28 2.34 0.41l1.41 0.15a7.34 7.34 0 0 0 -0.57 1.16 2.44 2.44 0 0 0 -0.14 0.53 5.17 5.17 0 0 0 -0.07 0.55l0 1.27a0.31 0.31 0 0 0 0.27 0.35 0.31 0.31 0 0 0 0.35 -0.27c0.12 -0.4 0.25 -0.78 0.36 -1.19a4.07 4.07 0 0 0 0.13 -0.5c0 -0.17 0.06 -0.34 0.08 -0.5 0.05 -0.42 0.05 -0.81 0.11 -1.22a0.26 0.26 0 0 0 0 -0.15c0.51 0 1 0.06 1.51 0.05a16.4 16.4 0 0 0 2.64 -0.26s0 0.07 0 0.11l0 1a3 3 0 0 0 0.06 0.43 3 3 0 0 0 0.12 0.43 7 7 0 0 0 0.43 1 0.31 0.31 0 0 0 0.39 0.22 0.32 0.32 0 0 0 0.21 -0.39c0 -0.35 0 -0.68 -0.05 -1a3.24 3.24 0 0 0 -0.12 -0.68 6.72 6.72 0 0 0 -0.49 -1.1l0 -0.05 0.31 -0.05A20.76 20.76 0 0 0 23.7 16c0.13 -0.08 0.24 -0.61 0.24 -0.62a8.59 8.59 0 0 0 -0.01 -2.11Z" fill="#020202" fill-rule="evenodd" stroke-width="1"></path>
    <path d="M8.14 12.46a4.45 4.45 0 0 1 0.91 0.26 4.59 4.59 0 0 1 0.83 0.48A2.74 2.74 0 0 1 11 14.67a0.39 0.39 0 0 0 0.74 -0.05 4.24 4.24 0 0 0 -1.24 -2.19 3.65 3.65 0 0 0 -1.06 -0.69 3.36 3.36 0 0 0 -1.25 -0.29 2.27 2.27 0 0 0 -1.76 0.48c-0.44 0.14 -0.46 0.77 -0.15 0.74 0.72 -0.47 1.14 -0.31 1.86 -0.21Z" fill="#4C57E6" fill-rule="evenodd" stroke-width="1"></path>
    <path d="M16.67 4.27a5.62 5.62 0 0 0 0 1.16A4.88 4.88 0 0 0 17 6.57a4.6 4.6 0 0 0 1.64 2.17 0.32 0.32 0 0 0 0.45 0 0.33 0.33 0 0 0 0 -0.45A4.26 4.26 0 0 1 17.84 6a7.4 7.4 0 0 1 -0.15 -1.57 9.59 9.59 0 0 1 0.08 -1.85c0 -0.29 -0.46 -0.33 -0.65 0a6.2 6.2 0 0 0 -0.45 1.69Z" fill="#4C57E6" fill-rule="evenodd" stroke-width="1"></path>
    <path d="M23.17 19.86c-0.06 -0.13 -0.11 -0.27 -0.18 -0.41a2.88 2.88 0 0 0 -0.22 -0.38c-0.19 -0.31 -0.4 -0.58 -0.58 -0.9a0.28 0.28 0 1 0 -0.53 0.16 5 5 0 0 0 0.19 1.16 2.82 2.82 0 0 0 0.18 0.45c0.08 0.15 0.17 0.28 0.26 0.42a10.26 10.26 0 0 0 0.75 0.86 0.32 0.32 0 0 0 0.44 0.09 0.31 0.31 0 0 0 0.09 -0.44c-0.15 -0.33 -0.26 -0.67 -0.4 -1.01Z" fill="#020202" fill-rule="evenodd" stroke-width="1"></path>
  </g>
</svg>