<svg xmlns="http://www.w3.org/2000/svg" viewBox="0 0 24 24" id="Focus-Motion--Streamline-Freehand">
  <desc>
    Focus Motion Streamline Icon: https://streamlinehq.com
  </desc>
  <g>
    <path d="M23.23 1.05C20.81 -0.11 4.53 0.7 1.34 0.81a0.39 0.39 0 0 0 0 0.77C4.06 1.52 20.2 1 22.65 2c0.52 1.44 -0.15 11.37 -0.15 16.3a16.56 16.56 0 0 1 0 3.59c-0.39 0.21 -0.53 0.09 -8.65 0.37a90.11 90.11 0 0 1 -10 0 12.52 12.52 0 0 1 -2.6 -0.4c-0.45 -1.54 -0.15 -4 -0.18 -5.6C0.7 1.83 1.49 1.36 0.78 1.33a0.34 0.34 0 0 0 -0.35 0.32C0.17 6.44 0.09 11.46 0.12 16.2c0 1.75 -0.39 4.28 0.16 6 0.63 2.05 18.09 1.13 20 1.07s3.29 0.29 3.54 -1.65a28.47 28.47 0 0 0 -0.07 -3.39c-0.03 -6.95 0.87 -16.52 -0.52 -17.18Z" fill="#4C57E6" fill-rule="evenodd" stroke-width="1"></path>
    <path d="M4.48 9.11a2.67 2.67 0 0 1 -0.66 0C3.46 9 2.7 8.6 2.07 8.85a0.88 0.88 0 0 0 -0.58 0.72c-0.4 2.77 2.1 4.22 5.56 2 0 0.32 0.1 0.69 0.13 1.06 0.09 1 0.06 0.39 -1.07 2.62a2.43 2.43 0 0 0 -0.25 0.65 5.49 5.49 0 0 0 0.54 3.2 2.45 2.45 0 0 0 2 1.34 1.17 1.17 0 0 0 1.33 -0.87c0.28 -0.83 -0.2 -2.43 -0.31 -3.18 0 -0.3 -0.16 -0.07 0.26 -0.9a3.74 3.74 0 0 0 5.92 -0.18 2.37 2.37 0 0 0 -0.14 -2.51 0.81 0.81 0 0 0 -0.69 -0.27c-0.46 0.1 -1.07 0.77 -1.73 0.87a2.54 2.54 0 0 1 -1.76 -0.62 3.75 3.75 0 0 0 -0.28 -2.33c-0.32 -0.87 -0.58 -1 -0.45 -1 1.09 0.35 0.85 1.14 1.78 1.8 0.73 0.52 1.78 -0.37 1.8 -0.39 0.87 -0.86 0.28 -3.79 -2.13 -4.14a7.48 7.48 0 0 0 -2.38 0.2A2.71 2.71 0 0 0 5.1 4 2.52 2.52 0 0 0 6 8.11a2.59 2.59 0 0 0 -0.29 0.14c-0.42 0.24 -0.96 0.85 -1.23 0.86Zm10.18 4.81a4.34 4.34 0 0 1 -0.09 0.63c-1 1.39 -2.84 1.74 -4.47 0.22 0.29 -0.49 0.56 -0.95 0.83 -1.37 1.32 1.03 1.96 1.35 3.73 0.52ZM5.55 5.61a2.78 2.78 0 0 1 1.31 -1.42c1.48 -0.79 3 1.4 1.91 2.65a0.37 0.37 0 0 0 -0.1 0.3 0.34 0.34 0 0 0 -0.21 0.32c0.08 0.71 1.68 -0.1 3.36 0.33a1.82 1.82 0 0 1 1.34 1.57c0.49 2.33 -1.33 -0.29 -1.35 -0.31a2.78 2.78 0 0 0 -2 -0.44 0.38 0.38 0 0 0 -0.42 0.64 4.34 4.34 0 0 1 1.07 2.63c0 0.2 -0.08 0.41 0 0.45a25.58 25.58 0 0 0 -2.16 3.38c-0.3 0.74 0.6 3.47 0.26 3.45a1.49 1.49 0 0 1 -1.24 -1 4.93 4.93 0 0 1 -0.38 -2.06l1 -2.31a6.23 6.23 0 0 0 -0.24 -2.6s0.08 -0.18 0 -0.36a0.39 0.39 0 0 0 -0.53 -0.11c-1.87 1.08 -4.54 1.48 -4.44 -0.64a3.1 3.1 0 0 0 1.86 0.17c1.26 -0.19 0.89 -1.48 3.53 -2.09A0.34 0.34 0 0 0 8 7.5c-0.16 0 -0.3 0.07 -0.45 0.1a0.33 0.33 0 0 0 -0.17 0 1.58 1.58 0 0 1 -1.83 -1.99Z" fill="#020202" fill-rule="evenodd" stroke-width="1"></path>
    <path d="M15.28 3.9a3.69 3.69 0 0 0 -1.15 0.1c-1.66 0.33 -1.63 0.57 -1.62 0.74s0 0.38 1.7 0.48a4.58 4.58 0 0 0 1.11 -0.07c1.49 -0.27 1.68 -0.3 1.68 -0.64s-0.19 -0.51 -1.72 -0.61Z" fill="#4C57E6" fill-rule="evenodd" stroke-width="1"></path>
    <path d="M14.82 7.66a0.34 0.34 0 0 0 0 0.67c3.75 0.37 4.07 -0.19 6 -0.16a0.38 0.38 0 0 0 0.09 -0.76 12.56 12.56 0 0 0 -6.09 0.25Z" fill="#4C57E6" fill-rule="evenodd" stroke-width="1"></path>
  </g>
</svg>