<svg xmlns="http://www.w3.org/2000/svg" viewBox="0 0 24 24" id="Folder-Bookmark-1--Streamline-Freehand">
  <desc>
    Folder Bookmark 1 Streamline Icon: https://streamlinehq.com
  </desc>
  <g>
    <path d="M1 4.13c1 0 2.59 0 3.94 0.08 0.7 0 1.33 0 1.8 0.08l0.36 0c0.09 0.62 0.27 1.88 0.56 3a1.31 1.31 0 0 0 0.75 1 2.24 2.24 0 0 0 1.13 0 0.3 0.3 0 0 0 0.25 -0.33 0.29 0.29 0 0 0 -0.33 -0.25 1.6 1.6 0 0 1 -0.78 -0.08c-0.17 -0.1 -0.2 -0.29 -0.24 -0.55C8.3 6 8.27 4.73 8.21 4.14a1 1 0 0 0 -0.34 -0.73 5.76 5.76 0 0 0 -2.23 -0.25c-1.49 0 -3.44 0.22 -4.63 0.31a0.33 0.33 0 0 0 -0.32 0.34 0.34 0.34 0 0 0 0.31 0.32Z" fill="#020202" fill-rule="evenodd" stroke-width="1"></path>
    <path d="M23.26 4.21a1.16 1.16 0 0 0 -0.51 -0.15C22.32 4 21.44 4 20.33 4c-3.76 0 -10.22 0.14 -10.56 0.15a0.29 0.29 0 0 0 -0.29 0.29 0.3 0.3 0 0 0 0.3 0.29l5.22 0.09c2.26 0.06 4.75 0.16 6.3 0.24 0.62 0 1.09 0.06 1.33 0.1a1 1 0 0 1 0.19 0.5 5.46 5.46 0 0 1 0 1.44 28 28 0 0 1 -0.89 3.8c-0.37 1.52 -0.92 3 -1.44 4.48 0.1 -2.26 0.1 -4.78 0.07 -6a4.13 4.13 0 0 0 -0.11 -1 1.27 1.27 0 0 0 -0.8 -0.54 2.84 2.84 0 0 0 -1.25 0 0.33 0.33 0 0 0 0.17 0.64 2.06 2.06 0 0 1 0.78 0 0.69 0.69 0 0 1 0.45 0.2 2.6 2.6 0 0 1 0 0.57c0 1.2 -0.05 3.8 -0.21 6.12a26 26 0 0 1 -0.43 3.55 2.46 2.46 0 0 1 -0.16 0.53c-0.08 0 -0.39 0.08 -0.69 0.12 -0.85 0.09 -2.19 0.12 -3.75 0.15 -3.65 0.06 -8.48 0 -11 -0.11 -0.59 0 -1 0 -1.34 -0.07 -0.3 -1.37 -0.59 -3.47 -0.84 -5.72C1 10.34 0.69 6.53 0.58 4.57a0.29 0.29 0 0 0 -0.3 -0.27 0.28 0.28 0 0 0 -0.28 0.3c0.06 2 0.25 5.8 0.54 9.3a54.53 54.53 0 0 0 0.76 6.21 0.58 0.58 0 0 0 0.45 0.42 4.19 4.19 0 0 0 0.71 0.08c1.16 0.1 3.63 0.2 6.35 0.23 3 0 6.37 0 8.47 -0.17a6.53 6.53 0 0 0 2.35 -0.44 1.8 1.8 0 0 0 0.44 -0.87c0.06 -0.24 0.11 -0.55 0.16 -0.89s0.28 -0.84 0.43 -1.25c0.74 -2 1.65 -4 2.24 -6.06A22.73 22.73 0 0 0 24 6.55a2.63 2.63 0 0 0 -0.74 -2.34Z" fill="#020202" fill-rule="evenodd" stroke-width="1"></path>
    <path d="M12.11 7.7a0.28 0.28 0 0 0 0.15 -0.38 0.29 0.29 0 0 0 -0.38 -0.15c-0.57 0.23 -0.9 1.08 -1 2.21A34.63 34.63 0 0 0 11 14.6l0.14 2.14 0 0.51a0.59 0.59 0 0 0 0.57 0.52 2 2 0 0 0 0.89 -0.32 9.57 9.57 0 0 0 1.4 -1.13 2.32 2.32 0 0 0 0.38 -0.26 18.63 18.63 0 0 0 1.85 1.54 0.6 0.6 0 0 0 0.82 -0.36 7.07 7.07 0 0 0 0.22 -0.92 6 6 0 0 0 0.07 -0.94c0 -0.69 -0.05 -1.39 -0.06 -2.06l-0.18 -3.91a5.21 5.21 0 0 0 -0.1 -1.18 1.59 1.59 0 0 0 -0.52 -0.82 2.27 2.27 0 0 0 -1.16 -0.36 17 17 0 0 0 -2.41 0.1 0.34 0.34 0 0 0 -0.31 0.36 0.34 0.34 0 0 0 0.34 0.31 19 19 0 0 1 2 -0.06A2 2 0 0 1 16 8a0.76 0.76 0 0 1 0.23 0.42 4.76 4.76 0 0 1 0.07 1v3.91l0 1.76a10.17 10.17 0 0 1 -0.08 1.09v0.06c-0.38 -0.35 -0.75 -0.77 -1.14 -1.06a2.9 2.9 0 0 0 -0.63 -0.36 0.63 0.63 0 0 0 -0.61 0.11c-0.17 0.13 -0.52 0.51 -0.58 0.56 -0.29 0.27 -0.62 0.65 -1 0.93l-0.07 0 -0.21 -2a31.79 31.79 0 0 1 -0.41 -5.09c0.01 -0.74 0.12 -1.44 0.54 -1.63Z" fill="#4C57E6" fill-rule="evenodd" stroke-width="1"></path>
  </g>
</svg>