<svg xmlns="http://www.w3.org/2000/svg" viewBox="0 0 24 24" id="Folder-Open--Streamline-Freehand">
  <desc>
    Folder Open Streamline Icon: https://streamlinehq.com
  </desc>
  <g>
    <path d="M23.93 4.18a3 3 0 0 0 -0.23 -0.85 1.46 1.46 0 0 0 -0.5 -0.6 3.18 3.18 0 0 0 -1.37 -0.46 17.64 17.64 0 0 0 -2.83 0.14c-1.78 0.1 -3.58 0.22 -5.35 0.46a34.5 34.5 0 0 0 -3.54 0.65 0.31 0.31 0 0 0 -0.23 0.36 0.3 0.3 0 0 0 0.36 0.23 34 34 0 0 1 3.49 -0.47c1.76 -0.14 3.54 -0.17 5.3 -0.18 0.68 0 1.54 -0.13 2.35 -0.08a2.4 2.4 0 0 1 1.23 0.32 0.31 0.31 0 0 1 0.11 0.18 2 2 0 0 1 0.1 0.46 7.59 7.59 0 0 1 0.07 1.07c0 0.58 0 1.16 -0.07 1.72l-0.18 6.08a25.15 25.15 0 0 1 -0.24 3 6.59 6.59 0 0 0 -0.15 1c0 0.51 0.17 1 0.48 0.51a5.59 5.59 0 0 0 0.42 -1.36 27.61 27.61 0 0 0 0.38 -3l0.42 -6.1c0 -0.57 0.08 -1.17 0.09 -1.76a10.08 10.08 0 0 0 -0.11 -1.32Z" fill="#4C57E6" stroke-width="1"></path>
    <path d="M21.67 17a15.32 15.32 0 0 1 -0.4 -2.36l-1.13 -6.1c0 -0.28 -0.07 -0.56 -0.09 -0.83 0 -0.43 0 -0.86 -0.05 -1.3a4.93 4.93 0 0 0 0 -0.76 1.32 1.32 0 0 0 -0.33 -0.65 1.48 1.48 0 0 0 -0.94 -0.54 8.58 8.58 0 0 0 -2 0c-0.53 0 -1.16 0 -1.77 0.05 -0.42 0 -0.83 0 -1.19 0.09 -1 0.13 -1.83 0.32 -2.74 0.42 -0.36 0 -0.73 0.07 -1.12 0.08a0.57 0.57 0 0 1 -0.45 -0.23 7.84 7.84 0 0 1 -0.67 -1.1A2.36 2.36 0 0 0 8 3a2 2 0 0 0 -0.89 -0.2A7.46 7.46 0 0 0 5.4 3L3 3.4a6.78 6.78 0 0 0 -1.47 0.38 4.48 4.48 0 0 0 -0.93 0.53 1.47 1.47 0 0 0 -0.43 0.58 2.21 2.21 0 0 0 -0.17 0.89l0.28 2.86c0.12 1 0.21 1.93 0.33 2.87 0.09 0.63 0.18 1.27 0.3 1.94l0.86 3.78a14 14 0 0 0 0.66 2.46 3.24 3.24 0 0 0 1.14 1.53 3.5 3.5 0 0 0 1.53 0.47 23.17 23.17 0 0 0 3.33 0c1.71 -0.05 3.43 -0.12 5.14 -0.33a24 24 0 0 0 3.43 -0.62c0.58 -0.15 1.47 -0.41 2.3 -0.68 0.58 -0.18 1.13 -0.37 1.53 -0.53a0.34 0.34 0 0 0 0.19 -0.44 0.36 0.36 0 0 0 -0.45 -0.2c-0.46 0.18 -1.16 0.4 -1.86 0.61s-1.41 0.4 -1.89 0.52a23.94 23.94 0 0 1 -3.32 0.55c-1.69 0.18 -3.38 0.21 -5.08 0.24 -0.77 0 -1.81 0.06 -2.74 0a3.42 3.42 0 0 1 -1.55 -0.38 2.23 2.23 0 0 1 -0.74 -1.09A12.8 12.8 0 0 1 2.8 17L2 13.26c-0.12 -0.66 -0.2 -1.28 -0.28 -1.89 -0.11 -0.94 -0.2 -1.86 -0.31 -2.87l-0.25 -2.77a0.84 0.84 0 0 1 0 -0.27 0.46 0.46 0 0 1 0.12 -0.24 3.11 3.11 0 0 1 0.85 -0.44 6.3 6.3 0 0 1 1 -0.24l2.49 -0.44a8.9 8.9 0 0 1 1.23 -0.19 1.26 1.26 0 0 1 0.6 0.07 1.37 1.37 0 0 1 0.55 0.63 6.77 6.77 0 0 0 0.69 1.07 1.65 1.65 0 0 0 1.3 0.57 9.69 9.69 0 0 0 1.24 -0.11c0.9 -0.12 1.74 -0.33 2.73 -0.47 0.34 0 0.73 -0.09 1.12 -0.12 0.6 0 1.21 -0.06 1.73 -0.08a14 14 0 0 1 1.56 -0.11 0.92 0.92 0 0 1 0.63 0.24 0.68 0.68 0 0 1 0.11 0.31 5.09 5.09 0 0 1 0 0.54c0 0.45 0 0.89 0.08 1.32a6.94 6.94 0 0 0 0.12 0.9l1.26 6.1a23.88 23.88 0 0 0 0.46 2.39 5.89 5.89 0 0 0 0.64 1.57c0.08 0.15 0.28 0.26 0.51 -0.05Z" fill="#020202" stroke-width="1"></path>
  </g>
</svg>