<svg xmlns="http://www.w3.org/2000/svg" viewBox="0 0 24 24" id="Folder-Add--Streamline-Freehand">
  <desc>
    Folder Add Streamline Icon: https://streamlinehq.com
  </desc>
  <g>
    <g>
      <path d="M8.68 19.5a6.13 6.13 0 0 0 2.52 0.28 5.5 5.5 0 0 0 4 -9.06 5.55 5.55 0 0 0 -9 0.57c-1.58 2.39 -0.75 5.89 0.82 6.93a0.31 0.31 0 0 0 0.35 -0.51c-1.25 -0.89 -1.8 -4 -0.39 -5.87a4.61 4.61 0 0 1 7.3 -0.39A4.55 4.55 0 0 1 11.12 19a5.19 5.19 0 0 1 -2.22 -0.16 0.35 0.35 0 1 0 -0.22 0.66Z" fill="#020202" stroke-width="1"></path>
      <path d="M11 17.28a8.53 8.53 0 0 0 0.45 -2.35 11.8 11.8 0 0 1 2 0 0.35 0.35 0 0 0 0.15 -0.68 9.75 9.75 0 0 0 -2 -0.42c-0.36 0 0.07 0.29 -0.45 -2.2 -0.09 -0.44 -0.62 -0.37 -0.69 0.37s-0.13 0.8 -0.17 1.83a9.16 9.16 0 0 0 -2.29 0.5 0.31 0.31 0 0 0 0.11 0.61l2.22 0a12.27 12.27 0 0 1 0 2.11 0.35 0.35 0 1 0 0.67 0.23Z" fill="#020202" stroke-width="1"></path>
      <path d="M22.16 8.52c-0.07 -1 -0.31 -1.62 -1.25 -1.95a10.42 10.42 0 0 0 -1.85 -0.3c-2.69 -0.47 -4.23 0.05 -6.83 -0.25 -0.6 -0.07 -2 0.1 -3.08 0.05C8.3 6 8.1 6.08 8 4.72c-0.15 -1.15 -0.19 -2.3 -1.3 -2.62 -1.59 -0.46 -7.08 0.56 -7.88 1.21 -1 0.81 -0.53 2.54 -0.46 3.62A92.38 92.38 0 0 0 -0.36 17c0.18 1 0.19 3.39 1.29 4a0.31 0.31 0 0 0 0.31 -0.53C0.46 20 0.44 17.7 0.31 16.89a88.71 88.71 0 0 1 -1.06 -10c0 -0.71 -0.39 -2.39 0.17 -2.82s5.71 -1.29 7 -0.9c0.5 0.15 0.35 1.63 0.58 2.56a1.72 1.72 0 0 0 1.61 1.45c1.08 0.15 2.8 -0.08 3.49 0 2.56 0.29 4.29 -0.19 6.76 0.23 2 0.33 2.16 -0.11 2.19 1.69a51.55 51.55 0 0 1 -1.38 9.9c-0.37 1.53 -0.22 1.43 -1.37 1.67 -3.41 0.71 -13.54 0.63 -15.58 0.29a0.35 0.35 0 0 0 -0.11 0.69c1.94 0.35 16.08 0.89 17.41 -0.7 0.54 -0.66 2.38 -9.08 2.14 -12.43Z" fill="#020202" stroke-width="1"></path>
    </g>
    <path d="M24.42 3.78a13.21 13.21 0 0 0 -3.94 -0.37l-3.32 0c-0.94 0 -1.88 0.06 -2.81 0.14s-1.86 0.17 -2.8 0.33a0.34 0.34 0 0 0 -0.29 0.38 0.35 0.35 0 0 0 0.38 0.29c0.93 -0.11 1.84 -0.16 2.75 -0.18s1.84 0 2.77 0l3.26 0.16a12.26 12.26 0 0 1 3.5 0.37c0.47 0.2 0.61 0.58 0.53 1.33 -0.1 1 -0.22 1.77 -0.79 5.39 -0.4 2.57 -1.42 6.21 -1 6.36 0.95 0.37 1.2 -1.8 1.53 -3.62 0.66 -3.57 1.47 -7.51 1.55 -7.84 0.33 -1.52 -0.3 -2.33 -1.32 -2.74Z" fill="#4C57E6" fill-rule="evenodd" stroke-width="1"></path>
  </g>
</svg>