<svg xmlns="http://www.w3.org/2000/svg" viewBox="0 0 24 24" id="Folder-Check--Streamline-Freehand">
  <desc>
    Folder Check Streamline Icon: https://streamlinehq.com
  </desc>
  <g>
    <g>
      <path d="M8.85 18.57a5.5 5.5 0 0 0 2.21 0.24A4.72 4.72 0 0 0 14.54 11a4.92 4.92 0 0 0 -7.9 0.5c-1.39 2.06 -0.66 5.08 0.74 6a0.31 0.31 0 0 0 0.34 -0.5c-1 -0.74 -1.53 -3.32 -0.31 -4.91a4 4 0 0 1 6.23 -0.32A3.78 3.78 0 0 1 11 18a4.78 4.78 0 0 1 -1.92 -0.12 0.35 0.35 0 0 0 -0.23 0.69Z" fill="#020202" stroke-width="1"></path>
      <path d="M11.74 11.89c-0.15 0.18 -1.29 1.75 -1.43 2 -0.26 0.4 -0.49 0.83 -0.76 1.21 -0.06 0 -0.44 -0.44 -0.54 -0.5 -0.5 -0.34 -0.66 0.28 -0.56 0.41 0.28 0.32 0.44 1 1.19 1.07s1.76 -1.79 2.11 -2.55c0.7 -1.5 0.67 -1.32 0.67 -1.48a0.37 0.37 0 0 0 -0.68 -0.16Z" fill="#020202" stroke-width="1"></path>
      <path d="M22.2 8.51c-0.07 -1 -0.31 -1.61 -1.25 -1.94a11.51 11.51 0 0 0 -1.85 -0.31c-2.68 -0.46 -4.23 0.06 -6.83 -0.24 -0.61 -0.07 -2 0.1 -3.08 0 -0.85 0 -1 0 -1.19 -1.35 -0.11 -1.14 -0.15 -2.3 -1.26 -2.61 -1.59 -0.46 -7.08 0.56 -7.88 1.21 -1 0.81 -0.53 2.54 -0.46 3.62A92.07 92.07 0 0 0 -0.32 17c0.17 1 0.19 3.39 1.29 4a0.3 0.3 0 0 0 0.31 -0.52C0.5 20 0.48 17.7 0.35 16.89a89.45 89.45 0 0 1 -1.06 -10c0 -0.72 -0.39 -2.39 0.17 -2.82s5.71 -1.29 7 -0.91c0.5 0.16 0.35 1.64 0.58 2.57a1.72 1.72 0 0 0 1.61 1.44c1.08 0.16 2.8 -0.07 3.49 0 2.57 0.29 4.29 -0.19 6.76 0.23 2 0.33 2.15 -0.12 2.19 1.69A51.77 51.77 0 0 1 19.71 19c-0.38 1.53 -0.22 1.43 -1.38 1.66 -3.39 0.71 -13.53 0.64 -15.57 0.3a0.35 0.35 0 0 0 -0.11 0.69c2 0.35 16.07 0.89 17.41 -0.71 0.54 -0.66 2.38 -9.08 2.14 -12.43Z" fill="#020202" stroke-width="1"></path>
    </g>
    <path d="M24.38 3.78a13.18 13.18 0 0 0 -3.94 -0.37l-3.32 0c-0.94 0 -1.88 0.06 -2.81 0.14s-1.86 0.17 -2.8 0.33a0.34 0.34 0 0 0 -0.29 0.38 0.35 0.35 0 0 0 0.38 0.29c0.93 -0.11 1.84 -0.16 2.75 -0.18s1.84 0 2.77 0l3.26 0.16a12.26 12.26 0 0 1 3.5 0.37c0.47 0.2 0.61 0.58 0.53 1.33 -0.1 1 -0.22 1.77 -0.79 5.39 -0.4 2.57 -1.42 6.21 -1 6.36 0.95 0.37 1.2 -1.8 1.53 -3.62 0.66 -3.57 1.47 -7.51 1.55 -7.84 0.3 -1.52 -0.3 -2.33 -1.32 -2.74Z" fill="#4C57E6" fill-rule="evenodd" stroke-width="1"></path>
  </g>
</svg>