<svg xmlns="http://www.w3.org/2000/svg" viewBox="0 0 24 24" id="Folder-Share--Streamline-Freehand">
  <desc>
    Folder Share Streamline Icon: https://streamlinehq.com
  </desc>
  <g>
    <g>
      <path d="M21.18 6.08a0.49 0.49 0 0 0 -0.35 -0.29 5 5 0 0 0 -1.15 -0.07c-2.49 0 -8.38 0.54 -10.35 0a0.5 0.5 0 0 0 -0.17 0c-0.11 -0.28 -0.27 -0.63 -0.45 -1s-0.48 -1 -0.77 -1.56a1 1 0 0 0 -0.74 -0.34l-1.62 0c-0.8 0 -1.44 0.05 -2.05 0.09 -0.95 0.07 -1.82 0.19 -3.06 0.38a0.27 0.27 0 0 0 -0.23 0.29 0.26 0.26 0 0 0 0.28 0.24l2 0 1.82 0h1.24a12.26 12.26 0 0 1 1.67 -0.09c0.28 0.44 0.56 0.89 0.79 1.29 0.48 0.84 0.8 1.49 0.8 1.49a0.29 0.29 0 0 0 0.39 0.15 0.3 0.3 0 0 0 0.17 -0.33 17.45 17.45 0 0 0 3.3 0.28c2.65 0 5.86 -0.15 7.32 -0.11a3 3 0 0 1 0.48 0 52.14 52.14 0 0 1 0.34 8.07c-0.06 2.28 -0.21 4.36 -0.66 5.14l-0.57 0.12c-1.48 0.22 -4.67 0.34 -7.89 0.39A57.31 57.31 0 0 1 3 20c-1.4 -0.41 -1.47 0.09 -1.86 -4.63C0.89 11.6 0.81 6.91 0.52 4.81a0.27 0.27 0 0 0 -0.29 -0.23 0.26 0.26 0 0 0 -0.23 0.3C0.28 7.27 0.22 13 0.5 16.94a20.59 20.59 0 0 0 0.37 3 0.68 0.68 0 0 0 0.35 0.39 11 11 0 0 0 1.53 0.47c1 0.32 6.23 0.47 10.75 0.37a53.24 53.24 0 0 0 6.44 -0.41 1.75 1.75 0 0 0 1 -0.42c0.53 -0.78 0.8 -3.16 0.83 -5.78a44.11 44.11 0 0 0 -0.59 -8.48Z" fill="#020202" fill-rule="evenodd" stroke-width="1"></path>
      <path d="M10.11 11.53a5.45 5.45 0 0 0 -0.53 0.29c-0.28 0.17 -0.53 0.35 -0.79 0.54a2.74 2.74 0 0 0 -1 -0.48 2.79 2.79 0 0 0 -1.6 0.08 1.79 1.79 0 0 0 -1.08 1.22 1.69 1.69 0 0 0 0.41 1.55 2.59 2.59 0 0 0 1.17 0.74 2.44 2.44 0 0 0 1.34 0 0.28 0.28 0 0 0 0.15 -0.08 0.29 0.29 0 0 0 0.22 0 2.49 2.49 0 0 0 0.38 -0.25c0.07 0 0.12 -0.12 0.19 -0.18L9 15c0.22 0.13 0.41 0.29 0.63 0.43a2.38 2.38 0 0 0 0.31 0.17 3.38 3.38 0 0 0 0.44 0.18c0.2 0.06 0.4 0.09 0.6 0.16l0.56 0.2A1.33 1.33 0 0 0 12 17.7a2.17 2.17 0 0 0 0.33 0.19 1.85 1.85 0 0 0 0.33 0.12 1.68 1.68 0 0 0 0.44 0.07 3.05 3.05 0 0 0 0.43 0 0.27 0.27 0 1 0 0 -0.53 1.84 1.84 0 0 1 -0.33 0 1.11 1.11 0 0 1 -0.3 -0.08l-0.4 -0.27a0.61 0.61 0 0 1 -0.12 -0.76 1.58 1.58 0 0 1 0.52 -0.54 1.33 1.33 0 0 1 0.64 -0.28 1.76 1.76 0 0 1 0.74 0.11 1 1 0 0 1 0.54 0.4 1 1 0 0 1 0.06 0.89 1 1 0 0 1 -0.72 0.64 0.3 0.3 0 0 0 -0.26 0.33 0.31 0.31 0 0 0 0.34 0.26 1.71 1.71 0 0 0 1.3 -0.9 1.78 1.78 0 0 0 0.06 -1.64 2 2 0 0 0 -0.93 -0.87 2.74 2.74 0 0 0 -1.19 -0.23 2.1 2.1 0 0 0 -1 0.36 2.5 2.5 0 0 0 -0.61 0.56l-0.51 -0.37a3.62 3.62 0 0 0 -0.43 -0.24c-0.19 -0.09 -0.39 -0.15 -0.58 -0.24s-0.51 -0.18 -0.77 -0.25l-0.23 -0.05a1.41 1.41 0 0 0 -0.05 -1.48c0.24 -0.07 0.47 -0.14 0.7 -0.23a5.38 5.38 0 0 0 0.55 -0.24 5.54 5.54 0 0 0 0.53 -0.3c0.29 -0.18 0.56 -0.38 0.84 -0.58l0.12 0.11a2.17 2.17 0 0 0 0.33 0.19 3.24 3.24 0 0 0 0.33 0.13 1.68 1.68 0 0 0 0.44 0.07 3 3 0 0 0 0.43 0 0.27 0.27 0 0 0 0.25 -0.28 0.26 0.26 0 0 0 -0.29 -0.24l-0.33 0a1.14 1.14 0 0 1 -0.3 -0.09l-0.4 -0.27a0.67 0.67 0 0 1 -0.11 -0.14s0 0 0 -0.06a0.63 0.63 0 0 1 0 -0.52 1.6 1.6 0 0 1 0.52 -0.55 1.33 1.33 0 0 1 0.64 -0.28 1.62 1.62 0 0 1 0.74 0.12 1 1 0 0 1 0.54 0.39 1 1 0 0 1 0.06 0.9 1 1 0 0 1 -0.72 0.63 0.3 0.3 0 1 0 0.08 0.59 1.72 1.72 0 0 0 1.3 -0.89 1.78 1.78 0 0 0 0.06 -1.64 1.94 1.94 0 0 0 -0.93 -0.88 2.87 2.87 0 0 0 -1.19 -0.22 2.08 2.08 0 0 0 -1 0.35 2.42 2.42 0 0 0 -0.92 1.03 1.41 1.41 0 0 0 -0.05 1c-0.29 0.1 -0.57 0.2 -0.86 0.32s-0.37 0.12 -0.55 0.21Zm-1.77 3.1a1.39 1.39 0 0 1 -0.27 0.21A0.35 0.35 0 0 0 8 15h-0.09a1.93 1.93 0 0 1 -1 -0.12 1.83 1.83 0 0 1 -0.76 -0.63 0.87 0.87 0 0 1 0.42 -1.32 1.81 1.81 0 0 1 1 -0.06 1.82 1.82 0 0 1 1 0.43 0.78 0.78 0 0 1 0 1.11 1.71 1.71 0 0 1 -0.23 0.22Z" fill="#020202" fill-rule="evenodd" stroke-width="1"></path>
    </g>
    <path d="M22.82 4a11.76 11.76 0 0 0 -3.57 -0.33l-3 0c-0.86 0 -1.7 0.06 -2.55 0.13a24.74 24.74 0 0 0 -2.54 0.3 0.29 0.29 0 0 0 -0.26 0.34 0.3 0.3 0 0 0 0.34 0.26c0.84 -0.09 1.67 -0.14 2.5 -0.15s1.66 0 2.51 0l3 0.15a11.11 11.11 0 0 1 3.12 0.3 1.29 1.29 0 0 1 0.73 1.35 77 77 0 0 0 -0.33 9.65c0 1.11 -0.12 1.7 0.28 1.69s0.3 -0.66 0.49 -1.89c0.4 -2.67 0.36 -6.91 0.45 -9.26 0.06 -1.54 -0.24 -2.21 -1.17 -2.54Z" fill="#4C57E6" fill-rule="evenodd" stroke-width="1"></path>
  </g>
</svg>