<svg xmlns="http://www.w3.org/2000/svg" viewBox="0 0 24 24" id="Folder-Network-1--Streamline-Freehand">
  <desc>
    Folder Network 1 Streamline Icon: https://streamlinehq.com
  </desc>
  <g>
    <path d="M19 15.58c0.45 -0.52 1.65 -8.88 0.5 -10.2 -0.56 -0.63 -1.59 -0.49 -2.2 -0.55 -2.05 -0.17 -3.18 0.3 -5.14 0.25a20.23 20.23 0 0 1 -2.86 0.19c-0.49 -0.4 -0.1 -2.4 -1.49 -2.66A13.89 13.89 0 0 0 1.91 4c-0.75 0.71 -0.28 1.92 -0.15 2.75a64.76 64.76 0 0 0 1.6 7.18c0.21 0.77 0.36 2.48 1.26 2.88a0.3 0.3 0 0 0 0.26 -0.54c-0.57 -0.27 -0.73 -2 -0.87 -2.5a65.19 65.19 0 0 1 -1.39 -7.13c-0.06 -0.47 -0.41 -1.64 -0.08 -1.93a14.25 14.25 0 0 1 5.07 -1c0.36 0.07 0.16 1.77 1 2.46s2.73 0.07 3.56 0.09c2 0.06 3.22 -0.4 5.07 -0.25 0.36 0 1.28 0 1.45 0.15 0.56 0.64 -0.11 8.43 -0.43 8.89s-4.14 0.89 -4.63 1c-7.56 0.9 -7.93 0.18 -8 0.83a0.35 0.35 0 0 0 0.32 0.37C8 17.4 18 16.8 19 15.58Z" fill="#020202" stroke-width="1"></path>
    <path d="M11 20.64c-0.94 0 -2.57 0.18 -3.51 0.3a0.31 0.31 0 0 0 -0.12 0.41c0.11 0.2 0.17 0.16 2.18 0.34a29.35 29.35 0 0 0 5.77 -0.11 0.34 0.34 0 0 0 0 -0.68c-1.24 -0.09 -2.39 -0.23 -3.59 -0.26l0 -0.69a5.82 5.82 0 0 0 -0.06 -2.41c-0.17 -0.45 -0.8 -0.39 -0.84 0a6.51 6.51 0 0 0 0.17 3.1Z" fill="#4C57E6" stroke-width="1"></path>
    <path d="M22.46 5.44c0.16 -0.92 0.4 -2 -0.34 -2.61a5.07 5.07 0 0 0 -2.4 -0.64 23.07 23.07 0 0 0 -5.93 0c-0.64 0.08 -3.07 0.05 -2.81 1 0.12 0.52 2.82 -0.19 2.88 -0.19a36.54 36.54 0 0 1 7 0.51c0.76 0.16 0.7 0.31 0.7 0.76a22.31 22.31 0 0 1 -0.47 3.22c-0.66 3.13 -1.11 3.57 -0.58 3.72a0.33 0.33 0 0 0 0.39 -0.21 39.44 39.44 0 0 0 1.56 -5.56Z" fill="#020202" stroke-width="1"></path>
    <path d="M19.56 21.08a2.22 2.22 0 0 0 -1.85 -0.08c-0.5 0.15 -0.49 0.48 -0.41 0.56 0.14 0.29 1.3 0.45 1.44 0.44a4 4 0 0 0 0.82 -0.21 0.34 0.34 0 0 0 0 -0.71Z" fill="#4C57E6" stroke-width="1"></path>
    <path d="M23.3 21.15a4 4 0 0 0 -0.56 -0.26 2.32 2.32 0 0 0 -0.38 -0.05 1.06 1.06 0 0 0 -0.75 0.08c-0.06 0 -0.08 0.07 -0.11 0.09s-0.1 0.23 0.09 0.5a3 3 0 0 0 0.59 0.43c0.53 0.08 0.34 0.1 1.08 -0.11a0.34 0.34 0 1 0 0.04 -0.68Z" fill="#4C57E6" stroke-width="1"></path>
    <path d="M2.68 21.08A2.22 2.22 0 0 0 0.83 21c-0.5 0.15 -0.49 0.48 -0.41 0.56 0.14 0.29 1.3 0.45 1.43 0.44a3.89 3.89 0 0 0 0.83 -0.21 0.34 0.34 0 0 0 0 -0.71Z" fill="#4C57E6" stroke-width="1"></path>
    <path d="M6.42 21.15a3.68 3.68 0 0 0 -0.57 -0.26 2.35 2.35 0 0 0 -0.37 -0.05 1.05 1.05 0 0 0 -0.75 0.08c-0.06 0 -0.08 0.07 -0.11 0.09s-0.1 0.23 0.09 0.5a3 3 0 0 0 0.59 0.43c0.52 0.08 0.34 0.1 1.07 -0.11a0.34 0.34 0 1 0 0.05 -0.68Z" fill="#4C57E6" stroke-width="1"></path>
  </g>
</svg>