<svg xmlns="http://www.w3.org/2000/svg" viewBox="0 0 24 24" id="Folder-Upload--Streamline-Freehand">
  <desc>
    Folder Upload Streamline Icon: https://streamlinehq.com
  </desc>
  <g>
    <path d="M22.67 9.52a3.3 3.3 0 0 0 -1.2 -0.15c-0.93 0 -2.14 0.1 -2.43 0.12a0.3 0.3 0 0 0 -0.27 0.3 0.29 0.29 0 0 0 0.29 0.27l2.05 0a3.83 3.83 0 0 1 1.14 0.15 0.6 0.6 0 0 1 0.24 0.46 3.54 3.54 0 0 1 0 1.17 22.11 22.11 0 0 1 -0.77 3.18 32 32 0 0 1 -1.07 3.5c0 -1.4 -0.13 -2.81 -0.21 -3.57 0 -0.27 -0.06 -0.47 -0.08 -0.57a0.55 0.55 0 0 0 -0.17 -0.3 7.3 7.3 0 0 0 -3.4 -0.68c-2.67 -0.12 -6.18 0.07 -7.52 0.15 -0.2 -0.9 -0.6 -2.72 -0.85 -3.55a3 3 0 0 0 -0.18 -0.48 0.62 0.62 0 0 0 -0.24 -0.21 6.7 6.7 0 0 0 -2.13 -0.13c-1.42 0.08 -3.27 0.35 -4.41 0.47a0.33 0.33 0 0 0 -0.3 0.35 0.33 0.33 0 0 0 0.34 0.3c1.32 0 3.59 -0.07 5 -0.05l0.88 0a0.78 0.78 0 0 0 0 0.14c0.42 1.08 1.41 3.88 1.41 3.88a0.29 0.29 0 0 0 0.35 0.2 0.28 0.28 0 0 0 0.19 -0.23c1.36 -0.05 4.78 -0.16 7.37 0a8.77 8.77 0 0 1 2.73 0.45c0 0.09 0.06 0.23 0.07 0.38a45.35 45.35 0 0 1 0.09 5.15 12 12 0 0 1 -0.18 1.64c0 0.11 -0.05 0.24 -0.07 0.32a2.11 2.11 0 0 1 -0.38 0.1c-0.52 0.09 -1.35 0.16 -2.36 0.24 -3.5 0.28 -9.22 0.48 -12.04 0.48H3.24a46.2 46.2 0 0 1 -1 -4.7c-0.51 -2.89 -1 -6 -1.14 -7.67a0.28 0.28 0 0 0 -0.32 -0.25 0.28 0.28 0 0 0 -0.25 0.31c0.14 1.64 0.5 4.83 0.94 7.74a41.19 41.19 0 0 0 1 5.14 0.5 0.5 0 0 0 0.43 0.34l0.67 0C4.66 24 7 24 9.62 24c3.47 -0.08 7.34 -0.29 9.13 -0.53a3.31 3.31 0 0 0 1.25 -0.38 1.41 1.41 0 0 0 0.42 -0.71 6.8 6.8 0 0 0 0.18 -1.15 0.14 0.14 0 0 1 0 -0.07c0.65 -1.95 1.61 -3.86 2.17 -5.82a16.24 16.24 0 0 0 0.74 -3.95 2 2 0 0 0 -0.84 -1.87Z" fill="#020202" fill-rule="evenodd" stroke-width="1"></path>
    <path d="M12.06 11.29a1.49 1.49 0 0 0 0.42 0.72c0.61 0.51 0.86 -0.21 1 -0.95l0.28 -1.17a6 6 0 0 1 0.64 -1.49 7.5 7.5 0 0 1 1 -1.31c0.21 -0.2 0.48 -0.49 0.77 -0.73l0.2 -0.14c0.09 0.13 0.22 0.26 0.24 0.29 0.23 0.43 0.46 0.87 0.71 1.3s0.35 0.57 0.54 0.84a0.34 0.34 0 0 0 0.41 0.1 0.31 0.31 0 0 0 0.37 -0.27 17.9 17.9 0 0 1 0.56 -1.78c0.29 -0.91 0.65 -1.79 1 -2.67 0.09 -0.24 0.2 -0.49 0.28 -0.74s0.1 -0.37 0.14 -0.56 0.05 -0.37 0 -0.5a0.52 0.52 0 0 0 -0.21 -0.38 1.43 1.43 0 0 0 -0.41 -0.22c-0.21 -0.08 -0.49 -0.13 -0.63 -0.18l-2.9 -0.72C16 0.59 15.6 0.46 15.15 0.35S14.26 0.14 13.8 0.06a0.28 0.28 0 0 0 -0.28 0 0.28 0.28 0 0 0 -0.13 0.38l1 2.19a2.51 2.51 0 0 0 0.22 0.51l-0.24 0.1a9.28 9.28 0 0 0 -0.85 0.67 5.47 5.47 0 0 0 -0.51 0.56 6.27 6.27 0 0 0 -1.12 2.69 9.49 9.49 0 0 0 -0.06 2.84 7.56 7.56 0 0 0 0.23 1.29Zm0.86 -4A5.84 5.84 0 0 1 13.74 5a4.55 4.55 0 0 1 0.49 -0.58 6.4 6.4 0 0 1 0.62 -0.53c0.06 0 0.3 -0.19 0.42 -0.3a0.6 0.6 0 0 0 0.2 -0.3 0.6 0.6 0 0 0 -0.07 -0.41 6 6 0 0 0 -0.41 -0.6c-0.16 -0.27 -0.32 -0.54 -0.47 -0.81s-0.23 -0.47 -0.34 -0.7c0.26 0.08 0.52 0.15 0.77 0.25 0.41 0.15 0.82 0.32 1.22 0.5s0.59 0.24 0.89 0.34c0.65 0.22 1.33 0.37 2 0.62l0.49 0.14 -0.3 1.06c-0.3 0.92 -0.58 1.85 -0.81 2.8q-0.15 0.67 -0.27 1.35c-0.07 -0.12 -0.15 -0.24 -0.21 -0.37 -0.24 -0.42 -0.44 -0.87 -0.66 -1.3 0 -0.07 -0.22 -0.5 -0.32 -0.65a0.44 0.44 0 0 0 -0.48 -0.21 2.4 2.4 0 0 0 -0.8 0.4 10.53 10.53 0 0 0 -0.88 0.76 7.78 7.78 0 0 0 -1.21 1.42 7.08 7.08 0 0 0 -0.74 1.42 9.69 9.69 0 0 1 0.05 -2.01Z" fill="#4C57E6" fill-rule="evenodd" stroke-width="1"></path>
  </g>
</svg>