<svg xmlns="http://www.w3.org/2000/svg" viewBox="0 0 24 24" id="Folder-Media-1--Streamline-Freehand">
  <desc>
    Folder Media 1 Streamline Icon: https://streamlinehq.com
  </desc>
  <g>
    <g>
      <path d="M20.59 6.25a0.51 0.51 0 0 0 -0.34 -0.25 5.49 5.49 0 0 0 -1.12 -0.07c-2.42 0 -8.15 0.53 -10.06 0a0.25 0.25 0 0 0 -0.17 0 25.948 25.948 0 0 0 -1.18 -2.52A1 1 0 0 0 7 3L5.42 3c-0.78 0 -1.4 0 -2 0.09 -0.93 0.07 -1.77 0.18 -3 0.37a0.24 0.24 0 0 0 -0.23 0.28 0.25 0.25 0 0 0 0.32 0.26l2 0 1.74 0h1.18a15.57 15.57 0 0 1 1.62 0c0.27 0.43 0.54 0.87 0.76 1.26 0.47 0.82 0.78 1.44 0.78 1.44a0.28 0.28 0 0 0 0.41 0.1 0.27 0.27 0 0 0 0.15 -0.32 16 16 0 0 0 3.22 0.27c2.58 0 5.7 -0.14 7.11 -0.1l0.47 0a49.68 49.68 0 0 1 0.33 7.84c-0.06 2.22 -0.21 4.24 -0.65 5a3.79 3.79 0 0 1 -0.54 0.11c-1.44 0.21 -4.54 0.34 -7.67 0.39a55.44 55.44 0 0 1 -8.46 -0.24c-1.36 -0.39 -1.59 0 -1.81 -4.5C0.86 11.61 0.79 7.05 0.51 5a0.26 0.26 0 0 0 -0.51 0.08C0.27 7.4 0.22 13 0.48 16.8a19.67 19.67 0 0 0 0.37 3 0.62 0.62 0 0 0 0.33 0.37 10.86 10.86 0 0 0 1.49 0.46c1 0.32 6.06 0.46 10.45 0.36a53.54 53.54 0 0 0 6.26 -0.39 1.71 1.71 0 0 0 1 -0.41c0.52 -0.76 0.78 -3.07 0.8 -5.62a43.25 43.25 0 0 0 -0.59 -8.32Z" fill="#020202" fill-rule="evenodd" stroke-width="1"></path>
      <path d="M12.6 14.11 8.86 16c-0.19 0.1 -0.44 0.25 -0.71 0.37l-0.15 0.11c-0.23 0.06 -0.23 -1 -0.24 -1.08l-0.27 -5.6a0.27 0.27 0 0 0 -0.27 -0.25 0.26 0.26 0 0 0 -0.22 0.27l-0.1 5.62a9 9 0 0 0 0 1.37 0.76 0.76 0 0 0 0.48 0.62 1.56 1.56 0 0 0 0.74 0 6.76 6.76 0 0 0 1.14 -0.53l3.79 -1.9a5.64 5.64 0 0 0 1.35 -0.75 0.71 0.71 0 0 0 0.18 -0.81 1.8 1.8 0 0 0 -0.51 -0.63 7.9 7.9 0 0 0 -1.33 -0.67c-0.57 -0.26 -1.12 -0.53 -1.68 -0.81 -0.83 -0.41 -1.66 -0.84 -2.5 -1.28a0.3 0.3 0 0 0 -0.39 0.13 0.28 0.28 0 0 0 0.12 0.39l2.44 1.39c0.55 0.31 1.1 0.61 1.67 0.9a6.52 6.52 0 0 1 1 0.53c0.42 0.25 -0.28 0.45 -0.8 0.72Z" fill="#020202" fill-rule="evenodd" stroke-width="1"></path>
    </g>
    <path d="M22.85 3.51a11.12 11.12 0 0 0 -3.47 -0.32l-2.92 0c-0.84 0 -1.66 0.06 -2.48 0.12s-1.64 0.15 -2.47 0.29a0.3 0.3 0 0 0 0.08 0.59c0.82 -0.09 1.62 -0.14 2.43 -0.15s1.61 0 2.43 0l2.88 0.14a10.55 10.55 0 0 1 3.09 0.33c0.41 0.17 0.53 0.51 0.46 1.17s-0.53 6.6 -0.49 9.73c0 1.08 -0.14 1.93 0.25 1.91s0.51 -0.61 0.69 -1.81c0.4 -2.6 0.58 -7.3 0.66 -9.58 0.06 -1.39 -0.24 -2.06 -1.14 -2.42Z" fill="#4C57E6" fill-rule="evenodd" stroke-width="1"></path>
  </g>
</svg>