<svg xmlns="http://www.w3.org/2000/svg" viewBox="0 0 24 24" id="Folder-File-Lock--Streamline-Freehand">
  <desc>
    Folder File Lock Streamline Icon: https://streamlinehq.com
  </desc>
  <g>
    <path d="M22.58 18a41.71 41.71 0 0 0 -4.6 -0.88c-0.42 0 -0.56 0.48 -0.06 0.58a2.73 2.73 0 0 1 0.43 0.09l1.28 0.31a1.93 1.93 0 0 0 -0.34 1.66 0.33 0.33 0 0 0 0.66 0.11c0.23 -0.49 0.57 -0.7 0.5 -1.55 0.11 0 1.87 0.53 2 0.57a6.92 6.92 0 0 1 -0.44 2 2.75 2.75 0 0 1 -0.59 1.24c-0.25 0.22 -1.12 -0.06 -1.55 -0.12 -0.78 -0.09 -2.92 -0.37 -3.19 -1.18a4.08 4.08 0 0 1 0.32 -2.3 8.69 8.69 0 0 0 0.44 -1.1 0.31 0.31 0 0 0 0.22 -0.21 3.83 3.83 0 0 1 0.77 -1.3 3.14 3.14 0 0 1 3.06 -0.92 2.26 2.26 0 0 1 1.25 2.66 0.33 0.33 0 1 0 0.64 0.18A3.1 3.1 0 0 0 21.91 14a3.67 3.67 0 0 0 -4.85 3s0 0 0 0.06a0.43 0.43 0 0 0 -0.33 0.21 9.65 9.65 0 0 0 -0.94 2.51c-0.39 2.28 1.45 2.84 3.9 3.25 1.1 0.17 2.21 0.71 3 -0.84a10.86 10.86 0 0 0 0.74 -2.85c0.04 -0.89 -0.17 -1.19 -0.85 -1.34Z" fill="#020202" stroke-width="1"></path>
    <path d="M9.18 4.23a6.17 6.17 0 0 0 3.08 0.37 0.33 0.33 0 1 0 0.09 -0.66 13.38 13.38 0 0 0 -1.35 -0.4 7.47 7.47 0 0 0 -2.26 0c-0.09 0 -0.1 0.11 -0.13 0.15s0 0.25 0.15 0.39a2.29 2.29 0 0 0 0.42 0.15Z" fill="#4C57E6" stroke-width="1"></path>
    <path d="M15.45 7.05a25.51 25.51 0 0 0 -5.37 -0.38c-0.34 0 -1.54 -0.11 -1.82 0.32a0.3 0.3 0 0 0 0.46 0.37s0.06 0 0.1 0c0.36 0 1.11 0.24 2.07 0.34a32.5 32.5 0 0 0 4.52 0 0.34 0.34 0 0 0 0.04 -0.65Z" fill="#4C57E6" stroke-width="1"></path>
    <path d="M8.12 9.25a0.3 0.3 0 0 0 0 0.59c4.14 0.78 3.6 0.29 6.4 0.53a0.33 0.33 0 0 0 0.11 -0.66 17 17 0 0 0 -6.51 -0.46Z" fill="#4C57E6" stroke-width="1"></path>
    <path d="M5.05 8.63 6 1.9s0.15 -0.32 0.25 -0.34c0.26 -0.05 0.55 -0.07 0.74 -0.1 4.41 -0.63 5.86 -1 6.78 -0.64A0.29 0.29 0 1 0 14 0.27 4.46 4.46 0 0 0 12.45 0a50.12 50.12 0 0 0 -6.6 0.49c-1.1 0.3 -1 0.41 -1.46 8.07a0.33 0.33 0 0 0 0.66 0.07Z" fill="#020202" stroke-width="1"></path>
    <path d="M13.92 4c0.47 0.84 2.05 0.51 3 0.28a1.64 1.64 0 0 0 1 -0.49 12.72 12.72 0 0 1 -0.1 3c-0.08 1.16 -0.17 3.07 -0.48 5a0.29 0.29 0 0 0 0.57 0.13 28.18 28.18 0 0 0 1.14 -8 1.64 1.64 0 0 0 -0.33 -1l-3 -2.4a0.33 0.33 0 1 0 -0.39 0.53l2.37 2.27 -2.42 0.18c-0.51 0 -0.4 0.13 -0.23 -1.4 0.06 -0.51 0.12 -0.71 0.08 -0.77a0.28 0.28 0 0 0 -0.17 -0.17c-0.33 -0.13 -0.47 0.37 -0.61 0.77 -0.28 0.54 -0.81 1.26 -0.43 2.07Z" fill="#020202" stroke-width="1"></path>
    <path d="M16.91 13a0.68 0.68 0 0 1 0.46 0.17 0.33 0.33 0 0 0 0.47 0c0.37 -0.33 -0.14 -0.72 -0.62 -0.84a18.87 18.87 0 0 0 -2.88 -0.15 29.76 29.76 0 0 1 -3.43 0.19c-0.39 0 -1.21 0.12 -1.94 0.17 -0.9 0 -1 0.12 -1.11 -0.79s-0.27 -1.67 -1.17 -1.85a13.1 13.1 0 0 0 -5.81 1.32c-0.8 0.73 -0.3 2 -0.18 2.73a60 60 0 0 0 1.6 6.9c0.21 0.71 0.38 2.37 1.25 2.76a0.29 0.29 0 0 0 0.25 -0.53c-0.54 -0.27 -0.69 -1.88 -0.81 -2.41a62.14 62.14 0 0 1 -1.26 -6.86c-0.05 -0.4 -0.37 -1.54 -0.11 -1.77a14.24 14.24 0 0 1 4.86 -1c0.18 0 0.17 0.24 0.22 0.43 0.26 1.16 0.31 2.1 1.65 2.15 0.8 0 2 -0.26 2.54 -0.26a34.38 34.38 0 0 0 3.5 -0.32 23.06 23.06 0 0 1 2.52 -0.04Z" fill="#020202" stroke-width="1"></path>
    <path d="M14.52 22.5c-2.39 0.15 -2.66 0 -6.21 0.39 -1.65 0.19 -3 0.4 -3.43 0.39a0.33 0.33 0 1 0 0 0.66 34.6 34.6 0 0 0 6.39 -0.24c1.22 -0.17 2.39 -0.42 3.38 -0.61a0.3 0.3 0 0 0 -0.13 -0.59Z" fill="#020202" stroke-width="1"></path>
  </g>
</svg>