<svg xmlns="http://www.w3.org/2000/svg" viewBox="0 0 24 24" id="Folder-Warning--Streamline-Freehand">
  <desc>
    Folder Warning Streamline Icon: https://streamlinehq.com
  </desc>
  <g>
    <g>
      <path d="M22.24 5.48a0.56 0.56 0 0 0 -0.39 -0.33 5.29 5.29 0 0 0 -1.27 -0.08c-2.74 0 -9.24 0.6 -11.42 0A0.28 0.28 0 0 0 9 5c-0.13 -0.3 -0.29 -0.69 -0.49 -1.13S8 2.78 7.64 2.19a1.05 1.05 0 0 0 -0.82 -0.38A17.64 17.64 0 0 0 5 1.85c-0.88 0 -1.59 0.06 -2.26 0.1 -1 0.08 -2 0.21 -3.37 0.43a0.28 0.28 0 0 0 -0.26 0.31 0.3 0.3 0 0 0 0.34 0.31l1.68 0 2.34 0H5a14.54 14.54 0 0 1 1.84 -0.1c0.31 0.49 0.61 1 0.86 1.42 0.53 0.93 0.88 1.64 0.88 1.64a0.33 0.33 0 0 0 0.44 0.17 0.3 0.3 0 0 0 0.17 -0.36 19.12 19.12 0 0 0 3.65 0.31c2.93 0 6.47 -0.17 8.07 -0.12a3.71 3.71 0 0 1 0.53 0 55.29 55.29 0 0 1 0.37 8.89c-0.06 2.51 -0.24 4.81 -0.73 5.67 -0.11 0 -0.37 0.09 -0.62 0.13 -1.63 0.24 -5.15 0.38 -8.7 0.44 -4.29 0.07 -8.62 0 -9.6 -0.27 -1.54 -0.44 -1.75 0 -2.05 -5.11 -0.25 -4.15 -0.33 -9.32 -0.65 -11.64a0.29 0.29 0 0 0 -0.33 -0.25 0.29 0.29 0 0 0 -0.25 0.33c0.31 2.64 0.25 9 0.54 13.29a24.1 24.1 0 0 0 0.42 3.38 0.72 0.72 0 0 0 0.38 0.42 12.44 12.44 0 0 0 1.7 0.52c1.15 0.36 6.87 0.52 11.85 0.41a60.36 60.36 0 0 0 7.1 -0.45 1.86 1.86 0 0 0 1.13 -0.46c0.59 -0.87 0.89 -3.49 0.92 -6.38a48.93 48.93 0 0 0 -0.68 -9.4Z" fill="#020202" fill-rule="evenodd" stroke-width="1"></path>
      <path d="M13.14 11.52a5.24 5.24 0 0 0 0 -1.63 3.54 3.54 0 0 0 -0.67 -1.59 1.9 1.9 0 0 0 -1.82 -0.68 2.17 2.17 0 0 0 -1.54 1.07 3.94 3.94 0 0 0 -0.4 1.85 12.94 12.94 0 0 0 0.36 2.52 10.74 10.74 0 0 0 0.46 1.59c0.18 0.51 0.39 1 0.62 1.5a0.3 0.3 0 0 0 0.39 0.15 0.29 0.29 0 0 0 0.15 -0.38c-0.19 -0.49 -0.36 -1 -0.5 -1.48a12.77 12.77 0 0 1 -0.3 -1.52 14.19 14.19 0 0 1 -0.15 -2.36 2.93 2.93 0 0 1 0.33 -1.32 1.09 1.09 0 0 1 0.76 -0.52 0.8 0.8 0 0 1 0.79 0.27 2.51 2.51 0 0 1 0.52 1.09 4.23 4.23 0 0 1 0.08 1.32 6.38 6.38 0 0 1 -0.47 1.85 13.4 13.4 0 0 1 -0.88 1.75 0.33 0.33 0 1 0 0.56 0.35 13.35 13.35 0 0 0 1.22 -2.2 7.16 7.16 0 0 0 0.49 -1.63Z" fill="#020202" fill-rule="evenodd" stroke-width="1"></path>
      <path d="M11 17.21a0.38 0.38 0 0 0 -0.16 0 1.13 1.13 0 0 0 -1.26 1c-0.08 0.54 0.32 1.13 1.24 1.26a1.44 1.44 0 0 0 1.44 -0.95 1 1 0 0 0 -0.88 -1.39 0.35 0.35 0 0 0 -0.38 0.08Zm0.43 0.84c0 0.05 -0.07 0.08 -0.11 0.13a0.47 0.47 0 0 1 -0.43 0.12 0.4 0.4 0 0 1 -0.29 -0.07c-0.05 0 -0.13 -0.06 -0.11 -0.12a0.5 0.5 0 0 1 0.4 -0.35 0.3 0.3 0 0 0 0.2 -0.1l0.1 0.05a0.33 0.33 0 0 1 0.2 0.34Z" fill="#020202" fill-rule="evenodd" stroke-width="1"></path>
    </g>
    <path d="M23.83 2.51a13.24 13.24 0 0 0 -3.94 -0.37l-3.32 0c-1 0 -1.88 0.07 -2.81 0.14s-1.86 0.17 -2.8 0.33a0.33 0.33 0 0 0 -0.29 0.38 0.35 0.35 0 0 0 0.38 0.29c0.93 -0.11 1.84 -0.16 2.75 -0.18s1.83 0 2.77 0l3.26 0.16a12.26 12.26 0 0 1 3.5 0.37 1.46 1.46 0 0 1 0.85 1.47c-0.09 1.86 -0.75 12.28 -0.36 12.43 0.18 0.07 0.46 0.06 0.54 -0.43 0.34 -2.13 0.76 -11.57 0.76 -11.85 -0.03 -1.55 -0.27 -2.33 -1.29 -2.74Z" fill="#4C57E6" fill-rule="evenodd" stroke-width="1"></path>
  </g>
</svg>