<svg xmlns="http://www.w3.org/2000/svg" viewBox="0 0 24 24" id="Folder-Hand-Hold-2--Streamline-Freehand">
  <desc>
    Folder Hand Hold 2 Streamline Icon: https://streamlinehq.com
  </desc>
  <g>
    <path d="M23.42 2.44a0.54 0.54 0 0 0 -0.39 -0.3 4.35 4.35 0 0 0 -1 -0.05c-2 0 -6.69 0.42 -8.27 0h-0.09c-0.09 -0.19 -0.19 -0.41 -0.32 -0.67S13 0.71 12.8 0.32a0.8 0.8 0 0 0 -0.5 -0.32 11.48 11.48 0 0 0 -1.51 0c-0.64 0 -1.15 0 -1.64 0.09 -0.77 0.08 -1.46 0.19 -2.45 0.36a0.31 0.31 0 0 0 -0.28 0.33 0.3 0.3 0 0 0 0.32 0.28l4.06 0.11c1.33 0 1.18 -0.23 1.86 0.7 0.39 0.58 0.66 1 0.66 1a0.35 0.35 0 0 0 0.46 0.15 0.33 0.33 0 0 0 0.16 -0.19 22.38 22.38 0 0 0 3.5 0.19c1.95 0 4 -0.08 5 0a1.2 1.2 0 0 1 0.2 0 33.63 33.63 0 0 1 0.21 5.42 9.53 9.53 0 0 1 -0.46 3.36c-0.11 0 -0.31 0.06 -0.52 0.08 -1.47 0.17 -4.68 0.26 -7.58 0.28A42.31 42.31 0 0 1 8.76 12a3.78 3.78 0 0 1 -1 -0.31A22.38 22.38 0 0 1 7.36 9c-0.22 -2.63 -0.29 -5.9 -0.53 -7.36a0.3 0.3 0 1 0 -0.6 0.09c0.21 1.66 0.15 5.65 0.36 8.39a13.18 13.18 0 0 0 0.31 2.16 0.66 0.66 0 0 0 0.36 0.38A11.59 11.59 0 0 0 8.5 13a60.77 60.77 0 0 0 8.64 0.3 48.42 48.42 0 0 0 5.17 -0.3 1.59 1.59 0 0 0 0.9 -0.36c0.44 -0.57 0.69 -2.28 0.71 -4.17a26.85 26.85 0 0 0 -0.5 -6.03Z" fill="#4C57E6" fill-rule="evenodd" stroke-width="1"></path>
    <path d="M16.35 17.34c-0.17 0 -0.33 0.08 -0.5 0.12l0.06 -0.09a1.35 1.35 0 0 0 -0.46 -1.69 2.39 2.39 0 0 0 -2.23 -0.41 16.46 16.46 0 0 0 -1.53 0.92c-0.61 0.39 -1.34 0.87 -2.1 1.27a6.59 6.59 0 0 1 -2.47 0.86l-0.3 0s-0.06 -0.06 -0.09 -0.11a1.79 1.79 0 0 1 -0.13 -0.46 7.57 7.57 0 0 0 -0.45 -1.89 1.5 1.5 0 0 0 -0.76 -0.73 1.2 1.2 0 0 0 -1.39 0.15 2.82 2.82 0 0 0 -0.56 1.31c-0.08 0.37 -0.11 0.75 -0.29 0.92a2.74 2.74 0 0 1 -0.7 0.43c-0.68 0.28 -1.49 0.43 -2.12 0.71a0.35 0.35 0 0 0 -0.17 0.46 0.33 0.33 0 0 0 0.45 0.17c0.58 -0.28 1.39 -0.38 2.07 -0.65a3.14 3.14 0 0 0 0.94 -0.55 1.6 1.6 0 0 0 0.4 -0.71 9.22 9.22 0 0 1 0.41 -1.32c0.11 -0.21 0.29 -0.29 0.62 -0.15s0.39 0.53 0.46 0.93a12.23 12.23 0 0 0 0.26 1.57 1.16 1.16 0 0 0 0.85 0.86 21.75 21.75 0 0 0 3.52 0.36 16.89 16.89 0 0 0 3.56 -0.21c0.8 -0.17 1.55 -0.57 2.32 -0.8a3.14 3.14 0 0 1 0.51 -0.12 0.32 0.32 0 0 1 0.19 0c0.08 0.05 0 0.17 0 0.3a1.73 1.73 0 0 1 -0.72 1.33 6.32 6.32 0 0 1 -2.65 1c-0.87 0.16 -2.4 0.39 -3.94 0.6s-3 0.4 -4 0.48a6.45 6.45 0 0 0 -2.37 0.51 1.58 1.58 0 0 0 -0.82 0.86 0.31 0.31 0 0 0 0.17 0.4 0.3 0.3 0 0 0 0.39 -0.16 1.17 1.17 0 0 1 0.81 -0.64 8.28 8.28 0 0 1 1.87 -0.26c0.93 0 2.48 -0.17 4 -0.32s3.12 -0.33 4 -0.46A7.17 7.17 0 0 0 16.7 21a2.77 2.77 0 0 0 1.2 -2.18 1.54 1.54 0 0 0 -0.33 -1.12 1.26 1.26 0 0 0 -1.22 -0.36Zm-6.19 1.18 -0.72 0q0.27 -0.09 0.54 -0.21a21.44 21.44 0 0 0 2.3 -1.14c0.67 -0.38 1.16 -0.72 1.35 -0.79a1.16 1.16 0 0 1 0.76 0 1.08 1.08 0 0 1 0.57 0.37c0 0.06 0.09 0.12 0.06 0.18a2.54 2.54 0 0 1 -0.81 0.94 6.32 6.32 0 0 1 -0.57 0.37l-0.18 0.06a17.11 17.11 0 0 1 -3.3 0.22Z" fill="#020202" fill-rule="evenodd" stroke-width="1"></path>
  </g>
</svg>