<svg xmlns="http://www.w3.org/2000/svg" viewBox="0 0 24 24" id="Folder-Home-1--Streamline-Freehand">
  <desc>
    Folder Home 1 Streamline Icon: https://streamlinehq.com
  </desc>
  <g>
    <g>
      <path d="M20.79 6.19a0.54 0.54 0 0 0 -0.34 -0.29 5.66 5.66 0 0 0 -1.14 -0.07c-2.44 0 -8.22 0.54 -10.16 0a0.23 0.23 0 0 0 -0.16 0c-0.11 -0.27 -0.26 -0.62 -0.44 -1s-0.47 -1 -0.75 -1.53a1 1 0 0 0 -0.74 -0.33A14.5 14.5 0 0 0 5.47 3c-0.78 0 -1.41 0 -2 0.09 -0.93 0.07 -1.78 0.19 -3 0.38A0.26 0.26 0 1 0 0.51 4l2 0 1.78 0h1.19a13.57 13.57 0 0 1 1.64 -0.09c0.27 0.44 0.54 0.87 0.77 1.27 0.47 0.83 0.78 1.46 0.78 1.46a0.29 0.29 0 0 0 0.39 0.15 0.28 0.28 0 0 0 0.16 -0.33 16.06 16.06 0 0 0 3.24 0.28c2.61 0 5.76 -0.15 7.18 -0.11l0.48 0a50.56 50.56 0 0 1 0.33 7.92c-0.06 2.23 -0.21 4.28 -0.65 5.05 -0.1 0 -0.33 0.08 -0.55 0.11a76.6 76.6 0 0 1 -7.75 0.39 56.56 56.56 0 0 1 -8.5 -0.24c-1.37 -0.4 -1.57 0.15 -1.82 -4.55C0.87 11.61 0.8 7 0.51 4.94a0.25 0.25 0 0 0 -0.29 -0.22A0.26 0.26 0 0 0 0 5c0.27 2.35 0.22 8 0.49 11.83a20.13 20.13 0 0 0 0.37 3 0.61 0.61 0 0 0 0.33 0.37 10.61 10.61 0 0 0 1.51 0.46c1 0.32 6.12 0.46 10.55 0.37a54.1 54.1 0 0 0 6.32 -0.4 1.75 1.75 0 0 0 1 -0.41c0.52 -0.77 0.78 -3.1 0.81 -5.68a43.85 43.85 0 0 0 -0.59 -8.35Z" fill="#020202" fill-rule="evenodd" stroke-width="1"></path>
      <path d="M15.64 14.18a0.3 0.3 0 0 0 0.42 0 0.3 0.3 0 0 0 0 -0.41c-0.84 -0.92 -1.57 -1.9 -2.37 -2.83a15.61 15.61 0 0 0 -1.12 -1.18 9.38 9.38 0 0 0 -1.07 -1 1.17 1.17 0 0 0 -0.95 -0.2 3.53 3.53 0 0 0 -1.21 0.71c-0.74 0.64 -1.4 1.56 -2 2.1l-2.13 2.17a0.23 0.23 0 0 0 0 0.35 0.25 0.25 0 0 0 0.36 0l1.5 -1.23 -0.2 3.17a10.09 10.09 0 0 0 -0.1 1.06 1.3 1.3 0 0 0 0.9 1.26 3.67 3.67 0 0 0 1.17 0.16l2.19 0c0.49 0 1 0 1.47 -0.09a5.19 5.19 0 0 0 1.28 -0.14 1.19 1.19 0 0 0 0.67 -0.47 1.05 1.05 0 0 0 0.13 -0.48c0 -0.39 -0.08 -0.95 -0.08 -1.21l0 -2.89c0.39 0.4 0.75 0.79 1.14 1.15Zm-2 1.73 0 0.91a0.8 0.8 0 0 1 0 0.33c-0.08 0.12 -0.27 0.1 -0.44 0.12s-0.64 0 -0.84 0L9 17.36a12.19 12.19 0 0 1 0.15 -1.69 3.79 3.79 0 0 1 0.44 -1.33 1.24 1.24 0 0 1 0.94 -0.69 1 1 0 0 1 1 0.56 2.45 2.45 0 0 1 0.3 1 16.9 16.9 0 0 1 0 1.74 0.29 0.29 0 0 0 0.58 0 17.67 17.67 0 0 0 0.15 -1.81 3.17 3.17 0 0 0 -0.29 -1.32 1.84 1.84 0 0 0 -1.79 -1.12 2.08 2.08 0 0 0 -1.72 1.2 4.54 4.54 0 0 0 -0.38 1.67 11.79 11.79 0 0 0 0 1.79 1.27 1.27 0 0 1 -0.34 0 0.6 0.6 0 0 1 -0.42 -0.23 0.69 0.69 0 0 1 -0.06 -0.34l0 -0.87v-3.7l0.33 -0.22c0.59 -0.49 1.32 -1.33 2.07 -1.93a3 3 0 0 1 0.84 -0.51c0 -0.12 0.26 0.12 0.39 0.23 0.32 0.25 0.62 0.55 0.76 0.68a14 14 0 0 1 1.13 1c0.29 0.3 0.58 0.6 0.86 0.91Z" fill="#020202" fill-rule="evenodd" stroke-width="1"></path>
    </g>
    <path d="M22.84 3.42a11.65 11.65 0 0 0 -3.5 -0.33l-3 0c-0.84 0 -1.67 0 -2.5 0.12s-1.65 0.15 -2.49 0.29a0.3 0.3 0 0 0 0.08 0.6c0.86 -0.1 1.68 -0.1 2.49 -0.1l2.46 0 2.91 0.14a10.73 10.73 0 0 1 3.11 0.33c0.42 0.18 0.54 0.51 0.47 1.18 -0.09 0.88 -0.89 11.74 -0.53 11.82 1.54 0.31 1.53 -8.19 1.65 -11.56 0.06 -1.45 -0.24 -2.12 -1.15 -2.49Z" fill="#4C57E6" fill-rule="evenodd" stroke-width="1"></path>
  </g>
</svg>