<svg xmlns="http://www.w3.org/2000/svg" viewBox="0 0 24 24" id="Food-Allergic-Milk-Cow-Meat-Beef--Streamline-Freehand">
  <desc>
    Food Allergic Milk Cow Meat Beef Streamline Icon: https://streamlinehq.com
  </desc>
  <g>
    <path d="M23.63 20a6.05 6.05 0 0 0 -0.6 -1.83 19 19 0 0 0 -2.33 -3.71c-0.87 -1 -3 -3.28 -5.93 -0.17A16 16 0 0 0 12 19a4.85 4.85 0 0 0 -0.39 2.86 2.44 2.44 0 0 0 1.4 1.6 5 5 0 0 0 1.13 0.37 9.48 9.48 0 0 0 1.68 0.17 18.3 18.3 0 0 0 5 -0.27 3.66 3.66 0 0 0 2.71 -2.35 3.13 3.13 0 0 0 0.1 -1.38Zm-1.07 1a2.63 2.63 0 0 1 -2 1.61 17.91 17.91 0 0 1 -4.68 0.21 10.34 10.34 0 0 1 -1.24 -0.09 4.42 4.42 0 0 1 -1.13 -0.32 1.44 1.44 0 0 1 -0.91 -1.23 4.6 4.6 0 0 1 0.33 -1.9 15.32 15.32 0 0 1 2.42 -4.58c2.32 -2.66 3.85 -1.07 4.81 0.16a17.55 17.55 0 0 1 2.1 3.62 5.36 5.36 0 0 1 0.43 1.3 2.3 2.3 0 0 1 -0.13 1.22Z" fill="#020202" fill-rule="evenodd" stroke-width="1"></path>
    <path d="M17.05 18.78a0.33 0.33 0 0 0 0.33 0.33 0.33 0.33 0 0 0 0.33 -0.33c0.07 -0.36 0.16 -0.7 0.22 -1.06a3.42 3.42 0 0 0 0 -0.45l0 -0.46c0 -0.38 -0.15 -0.71 -0.22 -1.08a0.29 0.29 0 0 0 -0.58 0c-0.09 0.37 -0.21 0.7 -0.27 1.07a3.42 3.42 0 0 0 0 0.45l0 0.47c0.05 0.35 0.14 0.69 0.19 1.06Z" fill="#020202" fill-rule="evenodd" stroke-width="1"></path>
    <path d="m17.85 20.08 -0.35 -0.17a0.33 0.33 0 0 0 -0.19 0 0.26 0.26 0 0 0 -0.22 0.07l-0.3 0.15c-0.18 0.09 -0.13 0.25 -0.19 0.36s0.09 0.33 0.2 0.51a0.49 0.49 0 0 0 0.22 0.14 0.63 0.63 0 0 0 0.31 0.05 0.6 0.6 0 0 0 0.3 -0.06c0.28 -0.19 0.53 -0.38 0.41 -0.66 -0.04 -0.14 -0.04 -0.29 -0.19 -0.39Z" fill="#020202" fill-rule="evenodd" stroke-width="1"></path>
    <path d="M6.6 6.15a0.61 0.61 0 0 0 -0.3 0 0.43 0.43 0 0 0 -0.17 0.06 0.29 0.29 0 0 0 -0.38 0 0.92 0.92 0 0 0 -0.32 0.91 0.62 0.62 0 0 0 0.12 0.3c0.21 0.34 0.65 0.46 1.18 0.1 0 -0.06 0.12 -0.11 0.16 -0.19A1.07 1.07 0 0 0 7 6.61c-0.08 -0.22 -0.16 -0.43 -0.4 -0.46Z" fill="#020202" fill-rule="evenodd" stroke-width="1"></path>
    <path d="M11.65 6a0.51 0.51 0 0 0 -0.3 0 0.27 0.27 0 0 0 -0.17 0.06 0.29 0.29 0 0 0 -0.38 0.05 0.91 0.91 0 0 0 -0.32 0.91 0.62 0.62 0 0 0 0.12 0.3c0.21 0.34 0.65 0.46 1.18 0.09a0.8 0.8 0 0 0 0.16 -0.19 1.06 1.06 0 0 0 0.12 -0.77C12 6.19 11.9 6 11.65 6Z" fill="#020202" fill-rule="evenodd" stroke-width="1"></path>
    <path d="M11 17.73a18.31 18.31 0 0 1 -4.7 0.13 7.28 7.28 0 0 1 -2.88 -0.92 3.7 3.7 0 0 1 -1.65 -2.08 2.88 2.88 0 0 1 0.41 -2.5 3 3 0 0 1 0.61 -0.63 8.47 8.47 0 0 1 0.79 -0.54 8.75 8.75 0 0 1 2.27 -0.51 15.56 15.56 0 0 1 1.81 -0.07l1.86 0 1.45 0a4.67 4.67 0 0 1 0.89 0.13 0.33 0.33 0 0 0 0.21 -0.63 5.2 5.2 0 0 0 -1 -0.27c-0.48 -0.09 -1 -0.14 -1.45 -0.22S8.52 9.5 8 9.48a9.13 9.13 0 0 0 -1.65 0.08 8.25 8.25 0 0 0 -2.52 0.81A3 3 0 0 0 4 10a1.17 1.17 0 0 0 0.09 -0.32l0 -0.33 0 -0.77a0.34 0.34 0 0 0 -0.25 -0.4 0.35 0.35 0 0 0 -0.41 0.25 5.46 5.46 0 0 0 -0.43 0.75 1.92 1.92 0 0 0 0 0.32 1.84 1.84 0 0 0 0 0.33 2.85 2.85 0 0 0 0 0.41 3.44 3.44 0 0 1 -0.56 0 1.87 1.87 0 0 1 -0.71 -0.13 0.59 0.59 0 0 1 -0.17 -0.1 0.21 0.21 0 0 1 -0.07 -0.15 1.27 1.27 0 0 1 0.24 -0.66c0.27 -0.44 0.65 -0.86 0.9 -1.21l1.49 -1.92 0.5 -1.21a3.44 3.44 0 0 1 0.87 -1.09 3.58 3.58 0 0 1 1.22 -0.69 5 5 0 0 1 0.66 -0.19A3 3 0 0 1 8 2.78c0.4 0 0.79 -0.08 1.18 -0.1a5.94 5.94 0 0 1 0.73 0 4.66 4.66 0 0 1 0.65 0.12 4.71 4.71 0 0 1 0.64 0.19 5.4 5.4 0 0 1 1 0.51 3 3 0 0 1 0.78 0.73 6.84 6.84 0 0 1 0.6 1.77l0.1 0.18c0.05 0.71 0.05 1.41 0.09 2.11 0 0.32 0.05 0.63 0.09 0.94 0.06 0.47 0.14 0.94 0.2 1.41a0.4 0.4 0 0 0 0.2 0.35l0.62 0.28a0.29 0.29 0 0 0 0.2 0.05l0.44 0.39a0.3 0.3 0 0 0 0.41 0.06 0.29 0.29 0 0 0 0.06 -0.41l-0.13 -0.17a2.16 2.16 0 0 0 0.39 -0.22 1.93 1.93 0 0 0 0.33 -0.31 2.4 2.4 0 0 0 0.25 -0.37 1.78 1.78 0 0 0 0.17 -0.35 1.61 1.61 0 0 0 0 -0.37 2.12 2.12 0 0 0 -0.39 -1.44c-0.55 -0.77 -1.62 -1.22 -2.14 -2 0 -0.06 0 -0.12 -0.07 -0.17A4 4 0 0 0 16 4.83a4.33 4.33 0 0 0 1 -2 2.8 2.8 0 0 0 -0.47 -2A1.86 1.86 0 0 0 15.15 0a1.31 1.31 0 0 0 -1.08 0.35 4.34 4.34 0 0 0 -0.72 1 3.77 3.77 0 0 1 -0.55 0.73 2 2 0 0 1 -0.51 0.35 7.56 7.56 0 0 0 -0.7 -0.34 5.08 5.08 0 0 0 -0.75 -0.25 6.1 6.1 0 0 0 -1.65 -0.22c-0.41 0 -0.82 0 -1.24 0.06a7.5 7.5 0 0 0 -0.81 0.11c-0.26 0.06 -0.53 0.13 -0.77 0.21a4.7 4.7 0 0 0 -1.12 0.56 2.32 2.32 0 0 1 -0.44 -0.31 3.41 3.41 0 0 1 -0.5 -0.68 3.91 3.91 0 0 0 -0.68 -1 1.27 1.27 0 0 0 -1 -0.33 1.8 1.8 0 0 0 -1.3 0.76 2.68 2.68 0 0 0 -0.45 2 4.23 4.23 0 0 0 0.94 1.91A4 4 0 0 0 3 5.75L1.68 7.37A12.62 12.62 0 0 0 0.6 8.91a2.19 2.19 0 0 0 -0.26 1 1.21 1.21 0 0 0 0.23 0.68 1.48 1.48 0 0 0 0.73 0.57 3 3 0 0 0 0.43 0.12 3.48 3.48 0 0 0 -0.41 0.52 3.79 3.79 0 0 0 -0.47 3.33A4.54 4.54 0 0 0 3 17.68a8.11 8.11 0 0 0 3.22 0.95 19.19 19.19 0 0 0 4.89 -0.24 0.33 0.33 0 1 0 -0.1 -0.66Zm5.11 -9.18a1.36 1.36 0 0 1 0.29 1l-0.12 0.49a1.07 1.07 0 0 1 -0.16 0.25 1.52 1.52 0 0 1 -0.22 0.22 1.44 1.44 0 0 1 -0.31 0.19l-0.28 0.08 -0.41 -0.29c0 -0.43 0.08 -0.86 0.08 -1.29a7.93 7.93 0 0 0 -0.08 -1 8.39 8.39 0 0 0 -0.18 -0.84 6.79 6.79 0 0 1 1.36 1.19Zm-2.86 -5.89a4.27 4.27 0 0 0 0.8 -0.79 5.47 5.47 0 0 1 0.54 -0.67 0.46 0.46 0 0 1 0.41 -0.13 0.94 0.94 0 0 1 0.67 0.54 1.93 1.93 0 0 1 0.19 1.05 3.34 3.34 0 0 1 -0.6 1.64 3.15 3.15 0 0 1 -1 1 6.32 6.32 0 0 0 -0.21 -1 2.89 2.89 0 0 0 -0.26 -0.53 3.57 3.57 0 0 0 -0.79 -0.83l-0.09 -0.06a2.56 2.56 0 0 0 0.34 -0.22ZM2.5 4.32A3.26 3.26 0 0 1 2 2.8a1.77 1.77 0 0 1 0.19 -0.95 0.8 0.8 0 0 1 0.6 -0.48 0.36 0.36 0 0 1 0.35 0.1 5 5 0 0 1 0.52 0.62 4 4 0 0 0 0.75 0.74 3.37 3.37 0 0 0 0.27 0.17 4.67 4.67 0 0 0 -1 1.32l-0.32 0.77a3.2 3.2 0 0 1 -0.86 -0.77Z" fill="#020202" fill-rule="evenodd" stroke-width="1"></path>
    <path d="M5.86 12.68c-0.41 -0.12 -0.47 0.05 -0.8 0.58a1.75 1.75 0 0 0 -0.22 0.43l-0.13 0.66a1.92 1.92 0 0 0 0.07 0.55 1 1 0 0 0 0.32 0.45c0.26 0.22 0.63 0.33 1.11 -0.11l0.22 -0.3a1.48 1.48 0 0 0 0.16 -0.64 3.77 3.77 0 0 0 -0.12 -0.76c-0.04 -0.16 -0.35 -0.78 -0.61 -0.86Z" fill="#4C57E6" fill-rule="evenodd" stroke-width="1"></path>
    <path d="M11.85 14.34a3.77 3.77 0 0 0 -0.12 -0.76c0 -0.16 -0.35 -0.78 -0.61 -0.86s-0.47 0 -0.8 0.57a2 2 0 0 0 -0.22 0.44l-0.13 0.66a1.69 1.69 0 0 0 0.08 0.55 0.93 0.93 0 0 0 0.31 0.45c0.26 0.22 0.63 0.33 1.11 -0.11l0.22 -0.3a1.48 1.48 0 0 0 0.16 -0.64Z" fill="#4C57E6" fill-rule="evenodd" stroke-width="1"></path>
  </g>
</svg>