<svg xmlns="http://www.w3.org/2000/svg" viewBox="0 0 24 24" id="Food-Allergic-Milk-Hand-Rash--Streamline-Freehand">
  <desc>
    Food Allergic Milk Hand Rash Streamline Icon: https://streamlinehq.com
  </desc>
  <g>
    <path d="M5.32 3.31A1.71 1.71 0 0 1 6.17 3c0.45 0 0.62 0.19 0.61 0.49a3.75 3.75 0 0 1 -0.86 2 0.33 0.33 0 1 0 0.46 0.51 4.79 4.79 0 0 0 1 -1.41s0.06 0 0.08 0C8.07 4 8.72 3.47 9.39 3c0.44 -0.33 0.89 -0.65 1.36 -1A6.49 6.49 0 0 1 12 1.37a3.2 3.2 0 0 1 1.21 -0.25 0.8 0.8 0 0 1 0.64 0.29 0.76 0.76 0 0 1 0.08 0.71A4.31 4.31 0 0 1 13 3.56c-0.66 0.74 -1.47 1.4 -2.05 2a0.32 0.32 0 0 0 0 0.47 0.33 0.33 0 0 0 0.47 0A30.61 30.61 0 0 0 14 3.82l0.3 -0.38a5.83 5.83 0 0 1 0.7 -0.22 1.63 1.63 0 0 1 0.66 0 1 1 0 0 1 0.76 0.61 1.14 1.14 0 0 1 -0.06 1 5.56 5.56 0 0 1 -1.1 1.58c-0.71 0.77 -1.56 1.48 -2.29 2.14a0.33 0.33 0 0 0 0.42 0.52A29.69 29.69 0 0 0 16 7.08a7.29 7.29 0 0 0 0.53 -0.58 8.2 8.2 0 0 1 0.76 0.32 2.41 2.41 0 0 1 0.66 0.45 1 1 0 0 1 0.24 1.16 0.33 0.33 0 0 0 0.16 0.44 0.34 0.34 0 0 0 0.45 -0.15 1.78 1.78 0 0 0 0 -2.17 2.15 2.15 0 0 0 -1.1 -0.73 2.83 2.83 0 0 0 -0.58 -0.11c0.1 -0.16 0.21 -0.31 0.29 -0.47a2.14 2.14 0 0 0 -0.05 -1.87 1.91 1.91 0 0 0 -1.55 -1 2.63 2.63 0 0 0 -0.81 0.13l-0.15 0.06a0.59 0.59 0 0 1 0 -0.08 1.8 1.8 0 0 0 -0.13 -1.7A1.87 1.87 0 0 0 13.19 0a3.74 3.74 0 0 0 -1.36 0.23 6.52 6.52 0 0 0 -1.66 1c-0.46 0.36 -0.89 0.74 -1.31 1.13S8 3.12 7.62 3.52c0.06 -0.77 -0.29 -1.38 -1.44 -1.44a2.79 2.79 0 0 0 -1.35 0.31 8.36 8.36 0 0 0 -1.49 1.06 10.09 10.09 0 0 0 -2.08 2.19 4 4 0 0 0 -0.69 2 4.48 4.48 0 0 0 0.1 1.15 12 12 0 0 0 0.38 1.37l-0.83 0.86a0.29 0.29 0 0 0 0 0.42 0.3 0.3 0 0 0 0.42 0l1 -0.93a0.35 0.35 0 0 0 0.1 -0.34A14.91 14.91 0 0 1 1.5 8.7a4.21 4.21 0 0 1 0 -0.94 3.55 3.55 0 0 1 0.65 -1.52A10.59 10.59 0 0 1 4.06 4.3a7.24 7.24 0 0 1 1.26 -0.99Z" fill="#020202" fill-rule="evenodd" stroke-width="1"></path>
    <path d="M10.68 15.1c-0.22 0.08 -0.43 0.16 -0.64 0.22l-0.66 0.15a4.41 4.41 0 0 1 -1.45 0 3.36 3.36 0 0 1 -1.32 -0.43 0.56 0.56 0 0 0 -0.63 0.06l-2.23 2.32a0.33 0.33 0 1 0 0.45 0.49l2.19 -1.73a3.8 3.8 0 0 0 1.43 0.4 4.55 4.55 0 0 0 1.78 -0.31 5.93 5.93 0 0 0 0.69 -0.29l0.65 -0.35a0.3 0.3 0 1 0 -0.26 -0.53Z" fill="#020202" fill-rule="evenodd" stroke-width="1"></path>
    <path d="M23.79 13.5a0.35 0.35 0 0 0 -0.48 0c-0.25 0.14 -0.49 0.23 -0.73 0.38a2.23 2.23 0 0 0 -0.3 0.2 2 2 0 0 0 -0.25 0.26 2.22 2.22 0 0 0 -0.15 0.23c-0.23 -0.45 -0.46 -0.93 -0.69 -1.4l-0.19 -0.42a1.46 1.46 0 0 0 0.65 -0.65 1.17 1.17 0 0 0 -0.13 -1.1l-0.39 -0.43a2.2 2.2 0 0 0 -0.32 -0.21l-0.34 -0.14a4 4 0 0 0 -1.15 -0.22l-1.57 0 -1.45 0a6.12 6.12 0 0 0 -1.05 0.1 3.11 3.11 0 0 0 -0.78 0.26 1.65 1.65 0 0 0 -0.51 0.4 1.23 1.23 0 0 0 -0.22 1.3 1.6 1.6 0 0 0 0.5 0.6l-0.86 1.89a0.91 0.91 0 0 0 -0.11 -0.16 1.37 1.37 0 0 0 -0.19 -0.23 1.77 1.77 0 0 0 -0.24 -0.17 3.49 3.49 0 0 0 -0.7 -0.27 0.29 0.29 0 1 0 -0.36 0.46c0.13 0.21 0.21 0.41 0.35 0.61a1.34 1.34 0 0 0 0.2 0.21 1.31 1.31 0 0 0 0.24 0.17 4 4 0 0 0 0.55 0.27q-0.15 1.14 -0.21 2.28c-0.05 0.85 -0.08 1.7 -0.09 2.56a11.6 11.6 0 0 0 0 1.45 2.63 2.63 0 0 0 0.34 1.11 2 2 0 0 0 0.79 0.69 4.55 4.55 0 0 0 1.29 0.36 21 21 0 0 0 2.38 0.16c0.79 0 1.57 0 2.35 -0.09a3.7 3.7 0 0 0 1.34 -0.31 2 2 0 0 0 0.78 -0.7 3.11 3.11 0 0 0 0.42 -1.16 9.78 9.78 0 0 0 0 -1.62c0 -0.82 -0.06 -1.64 -0.12 -2.47s-0.12 -1.51 -0.21 -2.26a5.68 5.68 0 0 0 0.55 -0.28 1.89 1.89 0 0 0 0.27 -0.2l0.25 -0.25c0.18 -0.23 0.32 -0.45 0.49 -0.69a0.34 0.34 0 0 0 0.05 -0.52Zm-2.26 8.08a1.82 1.82 0 0 1 -0.3 0.75 1 1 0 0 1 -0.52 0.37 3.6 3.6 0 0 1 -0.82 0.12c-0.75 0 -1.51 0.06 -2.27 0.05a18.57 18.57 0 0 1 -2.24 -0.13 4.22 4.22 0 0 1 -0.83 -0.17 1.06 1.06 0 0 1 -0.54 -0.35 1.53 1.53 0 0 1 -0.23 -0.66 12.82 12.82 0 0 1 -0.07 -1.34c-0.05 -1 -0.09 -2 -0.07 -3 0 -0.62 0 -1.25 0.09 -1.88a0.38 0.38 0 0 0 0 -0.18l1.41 -2.52a0.4 0.4 0 0 0 0 -0.34 0.38 0.38 0 0 0 -0.24 -0.24 0.6 0.6 0 0 1 -0.34 -0.34 0.32 0.32 0 0 1 0.11 -0.32 0.75 0.75 0 0 1 0.33 -0.2 2.39 2.39 0 0 1 0.45 -0.09 6.39 6.39 0 0 1 0.64 0l1.67 0 1.52 0a3.6 3.6 0 0 1 0.88 0.11l0.37 0.16 0.16 0.16c0.07 0.11 0.11 0.2 0.05 0.28a1.09 1.09 0 0 1 -0.5 0.34 0.44 0.44 0 0 0 -0.29 0.27 0.45 0.45 0 0 0 0.06 0.39c0.16 0.22 0.32 0.47 0.48 0.74 0.26 0.44 0.51 0.89 0.76 1.32 -0.54 -0.07 -1.07 -0.13 -1.61 -0.18l-1 -0.05 -1 0c-0.76 0 -1.5 0.13 -2.26 0.18a0.32 0.32 0 0 0 -0.31 0.29 0.3 0.3 0 0 0 0.29 0.3c0.75 0.11 1.5 0.23 2.25 0.3 0.32 0 0.65 0 1 0.05l1 0c0.64 0 1.28 -0.08 1.92 -0.13 0 0.7 0.08 1.39 0.09 2.09s0 1.63 0 2.44a8 8 0 0 1 -0.09 1.41Z" fill="#020202" fill-rule="evenodd" stroke-width="1"></path>
    <path d="M4.71 9.2a0.5 0.5 0 0 0 -0.64 0 0.91 0.91 0 0 0 -0.21 0.23 0.65 0.65 0 0 0 0 0.62 0.58 0.58 0 0 0 0.94 0.09 0.68 0.68 0 0 0 -0.09 -0.94Z" fill="#4C57E6" fill-rule="evenodd" stroke-width="1"></path>
    <path d="M6.55 7.49a0.5 0.5 0 0 0 -0.64 0 0.77 0.77 0 0 0 -0.21 0.23 0.65 0.65 0 0 0 0 0.62 0.59 0.59 0 0 0 0.94 0.08 0.68 0.68 0 0 0 -0.09 -0.93Z" fill="#4C57E6" fill-rule="evenodd" stroke-width="1"></path>
    <path d="M8.15 9.18a0.5 0.5 0 0 0 -0.64 0 0.77 0.77 0 0 0 -0.21 0.23 0.65 0.65 0 0 0 0 0.62 0.59 0.59 0 0 0 0.94 0.09 0.68 0.68 0 0 0 -0.09 -0.94Z" fill="#4C57E6" fill-rule="evenodd" stroke-width="1"></path>
    <path d="M6.55 11a0.5 0.5 0 0 0 -0.64 0 0.77 0.77 0 0 0 -0.21 0.23 0.65 0.65 0 0 0 0 0.62 0.59 0.59 0 0 0 0.94 0.09 0.68 0.68 0 0 0 -0.09 -0.94Z" fill="#4C57E6" fill-rule="evenodd" stroke-width="1"></path>
    <path d="M9.26 11.45a0.49 0.49 0 0 0 -0.64 0 0.7 0.7 0 0 0 -0.22 0.85 0.59 0.59 0 0 0 0.94 0.08 0.68 0.68 0 0 0 -0.08 -0.93Z" fill="#4C57E6" fill-rule="evenodd" stroke-width="1"></path>
    <path d="M11.19 9.48a0.48 0.48 0 0 0 -0.63 0 0.76 0.76 0 0 0 -0.21 0.23 0.63 0.63 0 0 0 0 0.62 0.59 0.59 0 0 0 0.95 0.09 0.68 0.68 0 0 0 -0.11 -0.94Z" fill="#4C57E6" fill-rule="evenodd" stroke-width="1"></path>
    <path d="M9.35 7.37a0.47 0.47 0 0 0 -0.63 0 0.63 0.63 0 0 0 -0.21 0.22 0.65 0.65 0 0 0 0 0.62 0.59 0.59 0 0 0 0.95 0.09 0.68 0.68 0 0 0 -0.11 -0.93Z" fill="#4C57E6" fill-rule="evenodd" stroke-width="1"></path>
  </g>
</svg>