<svg xmlns="http://www.w3.org/2000/svg" viewBox="0 0 24 24" id="Food-Delivery-Service-Takehome--Streamline-Freehand">
  <desc>
    Food Delivery Service Takehome Streamline Icon: https://streamlinehq.com
  </desc>
  <g>
    <path d="M6.25 17.43a1.84 1.84 0 0 0 0.43 0.15 2 2 0 0 0 0.43 0.07 4.45 4.45 0 0 0 0.73 0l0.69 -0.06c0 0.72 0.05 1.44 0.07 2.17a0.3 0.3 0 1 0 0.59 0c0.11 -2.22 0.24 -4.44 0.3 -6.66 0 -1 0 -1.91 0.06 -2.86a0.58 0.58 0 0 0 -1 -0.39L7.58 11l-0.75 1c-0.56 0.83 -1.72 2.47 -1.71 3.73a1.75 1.75 0 0 0 1.13 1.7Zm-0.13 -2.1a9.78 9.78 0 0 1 1.63 -2.67l0.66 -0.84 0 1.29c0 1.27 0.06 2.53 0.09 3.79l-0.68 0a3.24 3.24 0 0 1 -0.62 -0.05l-0.6 -0.18a1 1 0 0 1 -0.48 -1.34Z" fill="#4C57E6" fill-rule="evenodd" stroke-width="1"></path>
    <path d="M12.35 12.47a11.66 11.66 0 0 1 -0.17 -2.25 0.31 0.31 0 0 0 -0.61 0 12.75 12.75 0 0 0 -0.05 2.4 3.76 3.76 0 0 0 0.55 1.67 3.55 3.55 0 0 0 2.48 1.44l0 0.79c0.07 1.12 0.16 2.23 0.24 3.34a0.34 0.34 0 0 0 0.34 0.34 0.35 0.35 0 0 0 0.34 -0.35c0.05 -1.11 0.13 -2.22 0.17 -3.34l0 -0.77a3.08 3.08 0 0 0 2.05 -1.26 4.14 4.14 0 0 0 0.63 -1.68 8.06 8.06 0 0 0 -0.11 -2.5 0.34 0.34 0 0 0 -0.39 -0.29 0.35 0.35 0 0 0 -0.29 0.39 7.89 7.89 0 0 1 0 1.88 3.38 3.38 0 0 1 -0.66 1.6 2 2 0 0 1 -1.24 0.69l0 -0.93c-0.09 -1.12 -0.26 -2.23 -0.44 -3.34a0.3 0.3 0 0 0 -0.33 -0.27 0.29 0.29 0 0 0 -0.27 0.32c0 1.11 0 2.21 -0.06 3.33l0 0.89a2.45 2.45 0 0 1 -1.62 -0.88 2.75 2.75 0 0 1 -0.56 -1.22Z" fill="#4C57E6" fill-rule="evenodd" stroke-width="1"></path>
    <path d="M22.76 15.74c-0.2 -1.43 -0.54 -2.86 -0.85 -4.22a25 25 0 0 0 -0.78 -3A5.13 5.13 0 0 0 20 6.66a3.55 3.55 0 0 0 -1.75 -0.82 10.05 10.05 0 0 0 -2 -0.14 0.17 0.17 0 0 0 0 -0.12 7.43 7.43 0 0 0 -0.33 -2.27 5.44 5.44 0 0 0 -1.16 -2.09 4 4 0 0 0 -6.27 0.63 5.09 5.09 0 0 0 -0.6 1.54 10.62 10.62 0 0 0 -0.16 2.32A0.3 0.3 0 0 0 8 6c-0.35 0 -0.7 0 -1 0.08a0.34 0.34 0 0 0 -0.31 0.36 0.34 0.34 0 0 0 0.31 0.31c1.45 -0.11 2.88 -0.17 4.31 -0.2s2.86 0 4.3 0a13.34 13.34 0 0 1 2.48 0.16 2.61 2.61 0 0 1 1.29 0.63 3.71 3.71 0 0 1 0.89 1.54 20.28 20.28 0 0 1 0.69 2.86c0.28 1.35 0.59 2.75 0.77 4.16a14.8 14.8 0 0 1 0.13 2.74 5.4 5.4 0 0 1 -0.26 1.53 2.77 2.77 0 0 1 -0.73 1.2 2.27 2.27 0 0 1 -0.72 0.46 6 6 0 0 1 -1.39 0.4 31.44 31.44 0 0 1 -4.5 0.56c-2.31 0.14 -4.66 0.1 -6.87 0a16.46 16.46 0 0 1 -2.91 -0.22 3.84 3.84 0 0 1 -1.6 -0.69 2.26 2.26 0 0 1 -0.79 -1.29 6.47 6.47 0 0 1 0 -1.71c0.07 -0.87 0.18 -1.72 0.33 -2.57 0.23 -1.29 0.52 -2.56 0.83 -3.84L3.77 10a6.38 6.38 0 0 1 0.72 -1.77 2.74 2.74 0 0 1 1.38 -1.16 0.3 0.3 0 0 0 0.13 -0.39 0.31 0.31 0 0 0 -0.4 -0.17 3.27 3.27 0 0 0 -1.43 1A6.5 6.5 0 0 0 3.11 9.8l-0.67 2.5c-0.34 1.29 -0.67 2.57 -0.93 3.87a25.85 25.85 0 0 0 -0.4 2.64 6 6 0 0 0 0.13 2.4 3.3 3.3 0 0 0 1 1.43 4.76 4.76 0 0 0 2 0.94 17.78 17.78 0 0 0 3.09 0.31c2.25 0.1 4.63 0.17 7 0a32.39 32.39 0 0 0 4.67 -0.54 8.18 8.18 0 0 0 1.63 -0.48 3.61 3.61 0 0 0 1 -0.68 3.76 3.76 0 0 0 0.89 -1.32 6.56 6.56 0 0 0 0.43 -2.19 16.24 16.24 0 0 0 -0.19 -2.94ZM11.24 5.79c-1 0 -2 0.1 -3.05 0.18a0.28 0.28 0 0 0 0.16 -0.24 10.9 10.9 0 0 1 0.36 -2.13 3.84 3.84 0 0 1 0.61 -1.19 3.19 3.19 0 0 1 2.28 -1.24 3.09 3.09 0 0 1 2.45 0.83 4.31 4.31 0 0 1 1.08 1.63 6.88 6.88 0 0 1 0.46 2 0.44 0.44 0 0 0 0 0.1c-1.46 -0.02 -2.9 0 -4.35 0.06Z" fill="#020202" fill-rule="evenodd" stroke-width="1"></path>
  </g>
</svg>