<svg xmlns="http://www.w3.org/2000/svg" viewBox="0 0 24 24" id="Food-Delivery-Service-Fastfood-Talk-Bubble--Streamline-Freehand">
  <desc>
    Food Delivery Service Fastfood Talk Bubble Streamline Icon: https://streamlinehq.com
  </desc>
  <g>
    <path d="M23.4 9.27c0 -1.21 0 -2.42 -0.1 -3.63a10.2 10.2 0 0 0 -0.51 -3A3.86 3.86 0 0 0 21.55 0.92a4.77 4.77 0 0 0 -2.34 -0.84 21.43 21.43 0 0 0 -3.49 0C13.16 0.16 10.54 0 8 0a29.07 29.07 0 0 0 -3.42 0.24 11.12 11.12 0 0 0 -1.2 0.2 3.08 3.08 0 0 0 -0.86 0.36 3.52 3.52 0 0 0 -1.46 2.08A14.61 14.61 0 0 0 0.7 6.27c0 1 -0.07 2 -0.09 3.05s0 2 0 3a10.69 10.69 0 0 0 0.65 4.51 3 3 0 0 0 2.2 1.73l-0.27 3a5.21 5.21 0 0 0 0 1 1.66 1.66 0 0 0 0.33 0.81A1.62 1.62 0 0 0 5 24a4.68 4.68 0 0 0 1.76 -0.56 20 20 0 0 0 2.36 -1.54c1.15 -0.83 2.25 -1.75 3.32 -2.6l0.28 -0.22a45 45 0 0 0 5.5 -0.41 7.06 7.06 0 0 0 3.55 -1.59 3.51 3.51 0 0 0 0.95 -1.61 15.21 15.21 0 0 0 0.43 -2.56 0.47 0.47 0 0 0 0 -0.17 28.94 28.94 0 0 0 0.25 -3.47Zm-0.86 3.39a0.25 0.25 0 0 0 -0.06 0.15 17 17 0 0 1 -0.48 2.44 2.92 2.92 0 0 1 -0.76 1.28 6.38 6.38 0 0 1 -3.21 1.36 52.22 52.22 0 0 1 -5.54 0.33 0.36 0.36 0 0 0 -0.23 0.08l-0.41 0.3c-1.07 0.83 -2.17 1.72 -3.32 2.52a21.12 21.12 0 0 1 -2.32 1.44 3.89 3.89 0 0 1 -1.14 0.4c-0.29 0 -0.59 0.06 -0.76 -0.17a0.77 0.77 0 0 1 -0.13 -0.45 4.18 4.18 0 0 1 0 -0.71l0.36 -3.44a0.54 0.54 0 0 0 -0.13 -0.4 0.55 0.55 0 0 0 -0.37 -0.2 2.1 2.1 0 0 1 -1.84 -1.21 9.66 9.66 0 0 1 -0.5 -4l0 -3c0 -1 0 -2 0.08 -3a13.8 13.8 0 0 1 0.38 -3.18 2.43 2.43 0 0 1 1 -1.44 2 2 0 0 1 0.54 -0.23 8 8 0 0 1 1.07 -0.18A27.21 27.21 0 0 1 8 1.08c2.59 -0.09 5.21 0.06 7.78 -0.08a21.54 21.54 0 0 1 3.33 -0.07 4 4 0 0 1 1.94 0.64 3.12 3.12 0 0 1 1 1.37 9.26 9.26 0 0 1 0.5 2.74c0.1 1.2 0.16 2.39 0.16 3.58a25.84 25.84 0 0 1 -0.17 3.4Z" fill="#020202" fill-rule="evenodd" stroke-width="1"></path>
    <path d="M8.14 12.68a11.09 11.09 0 0 0 2.08 0.17c1 0 2 -0.12 3 -0.16 0.79 -0.06 1.59 0 2.38 -0.13a9.2 9.2 0 0 0 1.65 -0.29c1.47 -0.43 1.62 -1.4 1.63 -1.52a1.09 1.09 0 0 0 -0.65 -1.17c-0.3 -0.23 -1.19 -0.21 -0.67 0.21 0.36 0.18 0.65 0.48 0.56 0.88s-0.51 0.73 -1.15 0.87a8 8 0 0 1 -1.08 0.15c-0.92 0.07 -1.84 0 -2.74 0.06s-1.94 0.15 -2.92 0.18a11.25 11.25 0 0 1 -1.84 -0.06 1.92 1.92 0 0 1 -1.19 -0.64 0.81 0.81 0 0 1 -0.08 -1.06 1.19 1.19 0 0 1 0.47 -0.34c0.5 -0.24 -0.09 -0.71 -0.59 -0.41a1.61 1.61 0 0 0 -0.53 0.4 1.36 1.36 0 0 0 0 1.79c0.29 0.52 0.41 0.84 1.67 1.07Z" fill="#4C57E6" fill-rule="evenodd" stroke-width="1"></path>
    <path d="M18.85 12.44a0.78 0.78 0 0 0 -0.36 -0.28c-0.55 -0.24 -0.93 0.16 -0.63 0.4 0.13 0.08 0.34 0.14 0.43 0.31a0.84 0.84 0 0 1 -0.06 0.87 1.65 1.65 0 0 1 -0.53 0.48 4.19 4.19 0 0 1 -0.71 0.34 5.91 5.91 0 0 1 -1.34 0.28c-0.74 0.08 -1.49 0.08 -2.2 0.1s-1.66 0.09 -2.49 0.11a12.06 12.06 0 0 1 -1.6 -0.05 3.94 3.94 0 0 1 -1.23 -0.34 2.84 2.84 0 0 1 -1 -0.74 1 1 0 0 1 -0.31 -0.77c0.06 -0.15 0 -0.18 0.24 -0.27 0.27 -0.3 -0.33 -0.66 -0.59 -0.48a0.79 0.79 0 0 0 -0.37 0.52 1.7 1.7 0 0 0 0.37 1.52A3.92 3.92 0 0 0 7.7 15.5a4.92 4.92 0 0 0 1.51 0.5 11.15 11.15 0 0 0 1.74 0.16c0.86 0 1.72 -0.06 2.55 -0.09a20.32 20.32 0 0 0 2.3 -0.18 6.36 6.36 0 0 0 1.56 -0.45 4.55 4.55 0 0 0 1 -0.65 2.17 2.17 0 0 0 0.55 -0.67 1.46 1.46 0 0 0 -0.06 -1.68Z" fill="#020202" fill-rule="evenodd" stroke-width="1"></path>
    <path d="M9.07 9.5a35.66 35.66 0 0 0 3.73 0c1.25 0 2.5 -0.14 3.72 -0.27a5.16 5.16 0 0 0 2 -0.5 1.39 1.39 0 0 0 0.87 -1.33 0.31 0.31 0 0 0 -0.06 -0.23 0.25 0.25 0 0 0 0 -0.19A8.84 8.84 0 0 0 19 5.52a4.66 4.66 0 0 0 -0.49 -0.94 4.37 4.37 0 0 0 -2.84 -1.71 19.59 19.59 0 0 0 -4.75 -0.11A5.86 5.86 0 0 0 7 4.64a3.63 3.63 0 0 0 -0.9 2.93c0.12 0.72 0.55 1.78 2.97 1.93ZM7.26 7.41A2.66 2.66 0 0 1 8.29 5 5 5 0 0 1 11 3.84a18.06 18.06 0 0 1 4.51 -0.12A3.63 3.63 0 0 1 17.93 5a4.2 4.2 0 0 1 0.54 1 7.78 7.78 0 0 1 0.33 1.14 0.19 0.19 0 0 0 0 0.07 0.48 0.48 0 0 0 -0.07 0.18 0.88 0.88 0 0 1 -0.53 0.74 4.71 4.71 0 0 1 -1.77 0.34c-1.21 0.08 -2.44 0.13 -3.66 0.13s-2.44 -0.05 -3.64 -0.17a4.35 4.35 0 0 1 -1.31 -0.29 0.9 0.9 0 0 1 -0.56 -0.73Z" fill="#020202" fill-rule="evenodd" stroke-width="1"></path>
    <path d="M10.72 5c-0.18 -0.09 -0.32 0 -0.8 0.43l-0.09 0.14a0.5 0.5 0 0 0 0 0.17s0.08 0.73 0.31 0.8c0 0 0.2 0.14 0.73 -0.44a0.37 0.37 0 0 0 0.05 -0.1s0.08 -0.88 -0.2 -1Z" fill="#020202" fill-rule="evenodd" stroke-width="1"></path>
    <path d="M13.21 4.74c-0.14 0 -0.28 -0.09 -0.75 0.47a0.5 0.5 0 0 0 -0.08 0.14 0.26 0.26 0 0 0 0 0.15s0.13 0.71 0.34 0.77c0 0 0.2 0.14 0.72 -0.46a0.23 0.23 0 0 0 0.06 -0.12s-0.01 -0.84 -0.29 -0.95Z" fill="#020202" fill-rule="evenodd" stroke-width="1"></path>
    <path d="M15.85 4.7c-0.13 0 -0.27 -0.07 -0.72 0.45a0.38 0.38 0 0 0 -0.09 0.13 0.32 0.32 0 0 0 0 0.14s0.13 0.71 0.33 0.77c0 0 0.2 0.14 0.71 -0.43a0.19 0.19 0 0 0 0.07 -0.12s0.02 -0.83 -0.3 -0.94Z" fill="#020202" fill-rule="evenodd" stroke-width="1"></path>
  </g>
</svg>