<svg xmlns="http://www.w3.org/2000/svg" viewBox="0 0 24 24" id="Food-Delivery-Service--Streamline-Freehand">
  <desc>
    Food Delivery Service Streamline Icon: https://streamlinehq.com
  </desc>
  <g>
    <path d="M23.68 22.12a2 2 0 0 1 -0.53 -1.07c-0.18 -1.05 0.19 -2.21 0.06 -3.32a5.51 5.51 0 0 0 -1.29 -2.89 8 8 0 0 0 -2.31 -1.78c0.11 -0.82 0.2 -1.65 0.24 -2.48 0.07 -1 0.08 -2 0.11 -3a8.43 8.43 0 0 0 -0.22 -2.1 2.77 2.77 0 0 0 -0.82 -1.33 2.4 2.4 0 0 0 -1.12 -0.52 8.84 8.84 0 0 0 -1.62 0 0.32 0.32 0 0 0 -0.19 0.07 1.52 1.52 0 0 0 -0.44 -1 1.35 1.35 0 0 0 -0.65 -0.3 8.07 8.07 0 0 0 -0.83 0h-0.18a1.35 1.35 0 0 0 0.11 -0.47 1.4 1.4 0 0 0 -0.05 -0.73 0.33 0.33 0 0 0 -0.27 -0.2 0.21 0.21 0 0 0 0 -0.11 1.88 1.88 0 0 0 -2 -0.85 1.59 1.59 0 0 0 -1.4 1.73 1.11 1.11 0 0 0 0.05 0.3h-0.13a4.39 4.39 0 0 0 -1.33 0.23 1.2 1.2 0 0 0 -0.63 1.09 2.46 2.46 0 0 1 0 0.26 8.84 8.84 0 0 0 -1.54 0 2.9 2.9 0 0 0 -1.45 0.56 1.7 1.7 0 0 0 -0.59 0.79 6.31 6.31 0 0 0 -0.21 1.74c0 0.89 -0.08 1.77 -0.06 2.66 0 1.2 0.08 2.39 0.16 3.58a8.26 8.26 0 0 0 -2.39 1.8 5.58 5.58 0 0 0 -1.33 2.84c-0.13 1.11 0.23 2.28 0 3.32A1.89 1.89 0 0 1 0.32 22a0.35 0.35 0 0 0 0 0.48 0.35 0.35 0 0 0 0.48 0 2.59 2.59 0 0 0 0.82 -1.39c0.28 -1 0 -2.22 0.25 -3.32A5 5 0 0 1 3 15.48a7.82 7.82 0 0 1 1.44 -1.31l0 0.59 0 2.08c-0.15 0.15 -0.29 0.31 -0.42 0.46a0.33 0.33 0 1 0 0.47 0.47 7.63 7.63 0 0 1 1 -0.86 1.74 1.74 0 0 1 0.69 -0.28 1 1 0 0 1 1 0.43 1.38 1.38 0 0 1 0.16 1.2 2.7 2.7 0 0 1 -0.59 1A16.5 16.5 0 0 1 5.4 20.7a0.44 0.44 0 0 0 -0.16 0.37 2.58 2.58 0 0 1 -0.14 1.25 3.41 3.41 0 0 1 -0.72 1.11 0.29 0.29 0 1 0 0.41 0.42 4 4 0 0 0 0.81 -1 5.79 5.79 0 0 0 1.68 0.37c0.91 0.09 1.87 0 2.73 0.07s1.72 0 2.55 0c0.57 0 1.13 0 1.69 -0.07 1.33 -0.09 2.66 -0.23 4.06 -0.46a4 4 0 0 0 0.88 1.08 0.29 0.29 0 0 0 0.42 0 0.29 0.29 0 0 0 0 -0.41 3.48 3.48 0 0 1 -0.7 -1.12 2.7 2.7 0 0 1 -0.13 -1.25 0.44 0.44 0 0 0 -0.16 -0.38 15.25 15.25 0 0 1 -1.45 -1.45 2.71 2.71 0 0 1 -0.58 -1 1.37 1.37 0 0 1 0.18 -1.19 1 1 0 0 1 1 -0.43 1.93 1.93 0 0 1 0.69 0.3 6.85 6.85 0 0 1 1 0.87 0.34 0.34 0 1 0 0.48 -0.47l-0.41 -0.46c0 -0.5 0 -1.32 0.06 -2.08l0 -0.6a8.57 8.57 0 0 1 1.42 1.33 4.94 4.94 0 0 1 1.13 2.33c0.21 1.1 -0.06 2.29 0.21 3.32a2.6 2.6 0 0 0 0.81 1.39 0.33 0.33 0 0 0 0.47 0 0.34 0.34 0 0 0 0.05 -0.42ZM9.28 3.42c0 -0.16 0 -0.25 0.14 -0.28a6 6 0 0 1 0.9 -0.15l0.68 -0.08a0.44 0.44 0 0 0 0.4 -0.23 0.43 0.43 0 0 0 0 -0.46 2.29 2.29 0 0 1 -0.17 -0.28 0.84 0.84 0 0 1 -0.09 -0.25 0.87 0.87 0 0 1 0.72 -1 1.27 1.27 0 0 1 1.34 0.47 0.25 0.25 0 0 0 0.13 0.12 0.31 0.31 0 0 0 0 0.13 0.69 0.69 0 0 1 0 0.45 1.32 1.32 0 0 1 -0.29 0.46 0.37 0.37 0 0 0 -0.07 0.38 0.39 0.39 0 0 0 0.32 0.23l0.81 0.1 0.59 0a0.68 0.68 0 0 1 0.36 0.14c0.16 0.15 0.15 0.46 0.12 0.77a3.49 3.49 0 0 1 -0.19 1l-0.19 0.3a0.76 0.76 0 0 1 -0.4 0.16 3.41 3.41 0 0 1 -0.63 0l-1.66 0c-0.55 0 -1.11 0 -1.65 -0.07a4.78 4.78 0 0 1 -0.63 -0.09 0.78 0.78 0 0 1 -0.36 -0.19 0.79 0.79 0 0 1 -0.16 -0.5 12.75 12.75 0 0 1 -0.02 -1.13ZM18 15.82a1.9 1.9 0 0 0 -2.07 0.65 2.42 2.42 0 0 0 -0.43 2.11 3.52 3.52 0 0 0 0.82 1.42 10.93 10.93 0 0 0 1.54 1.31 3.59 3.59 0 0 0 0.16 0.83c-0.72 0 -1.42 0.08 -2.11 0.09l-2.94 0 -3 0c-0.84 0.05 -1.78 0.21 -2.7 0.23a5.92 5.92 0 0 1 -1.41 -0.16 3.59 3.59 0 0 0 0.26 -1.05A11.47 11.47 0 0 0 7.71 20a3.57 3.57 0 0 0 0.83 -1.44 2.44 2.44 0 0 0 -0.41 -2.12 1.92 1.92 0 0 0 -2.07 -0.67 2.7 2.7 0 0 0 -0.92 0.48l0.2 -2.95a0.49 0.49 0 0 0 -0.16 -0.3l0.38 -6.23a8.39 8.39 0 0 1 0.05 -1.3 0.78 0.78 0 0 1 0.22 -0.52 1.9 1.9 0 0 1 1 -0.48 7.64 7.64 0 0 1 1.36 -0.1 3.35 3.35 0 0 0 0 0.71 1.58 1.58 0 0 0 0.38 0.92 1.74 1.74 0 0 0 0.72 0.47 4.57 4.57 0 0 0 1 0.18c0.45 0 0.92 0.06 1.39 0.06 0.7 0 1.4 0 2.08 -0.09a5.35 5.35 0 0 0 1 -0.15 1.65 1.65 0 0 0 0.7 -0.41 1.56 1.56 0 0 0 0.27 -0.35 1.77 1.77 0 0 0 0.15 -0.38A4.9 4.9 0 0 0 16 4.09a0.3 0.3 0 0 0 0.15 0.07 6.74 6.74 0 0 1 1.46 0.2 1.45 1.45 0 0 1 0.69 0.41 2 2 0 0 1 0.42 1 7.65 7.65 0 0 1 0.09 1.84l0 1.68c0 0.84 0.06 1.68 0.07 2.52l0 1.31a0.49 0.49 0 0 0 -0.13 0.28l0.16 3a2.73 2.73 0 0 0 -0.91 -0.58Z" fill="#020202" fill-rule="evenodd" stroke-width="1"></path>
    <path d="M16.22 9.12c-0.95 -0.12 -1.89 -0.12 -2.83 -0.21l-1.22 0 -1.21 0c-0.94 0 -1.87 0.14 -2.82 0.19a0.3 0.3 0 0 0 0 0.59c1 0.11 1.88 0.24 2.83 0.3l1.22 0 1.21 0c0.95 0 1.88 -0.13 2.83 -0.19a0.33 0.33 0 0 0 0 -0.66Z" fill="#4C57E6" fill-rule="evenodd" stroke-width="1"></path>
    <path d="M12.37 12.69c-0.5 -0.09 -1 -0.2 -1.48 -0.26 -0.2 0 -0.42 0 -0.63 -0.06a4.66 4.66 0 0 0 -0.65 0 11.14 11.14 0 0 0 -1.51 0.28 0.3 0.3 0 0 0 0 0.59c0.5 0.05 1 0.15 1.46 0.2l0.62 0 0.63 0c0.51 0 1 -0.08 1.49 -0.13a0.33 0.33 0 1 0 0 -0.66Z" fill="#4C57E6" fill-rule="evenodd" stroke-width="1"></path>
  </g>
</svg>