<svg xmlns="http://www.w3.org/2000/svg" viewBox="0 0 24 24" id="Food-Delivery-Service-Drivethrought--Streamline-Freehand">
  <desc>
    Food Delivery Service Drivethrought Streamline Icon: https://streamlinehq.com
  </desc>
  <g>
    <path d="M13.76 12.32a0.56 0.56 0 0 0 -0.63 0.15l-1.07 1.27 -0.84 1.11c-0.61 0.92 -1.9 2.72 -1.89 4.11a1.89 1.89 0 0 0 1.22 1.83A2.64 2.64 0 0 0 11 21a3.46 3.46 0 0 0 0.48 0.07 5.35 5.35 0 0 0 0.8 0c0.27 0 0.55 0 0.82 -0.07l0.05 2.46a0.3 0.3 0 0 0 0.3 0.3 0.29 0.29 0 0 0 0.3 -0.3c0.11 -2.47 0.23 -4.93 0.31 -7.4 0 -1.06 0 -2.12 0.06 -3.18a0.6 0.6 0 0 0 -0.36 -0.56Zm-1.48 8a4 4 0 0 1 -0.69 0l-0.68 -0.2a1.22 1.22 0 0 1 -0.57 -1.58 10.63 10.63 0 0 1 1.81 -3l0.85 -1.09 0.11 5.87Z" fill="#020202" fill-rule="evenodd" stroke-width="1"></path>
    <path d="M23.82 12.89a0.34 0.34 0 0 0 -0.39 -0.29 0.34 0.34 0 0 0 -0.29 0.39 8.68 8.68 0 0 1 0 2.1 3.75 3.75 0 0 1 -0.72 1.8 2.26 2.26 0 0 1 -1.49 0.82l0 -1.11c-0.1 -1.25 -0.27 -2.48 -0.46 -3.71a0.29 0.29 0 0 0 -0.32 -0.27 0.3 0.3 0 0 0 -0.28 0.32l0 3.69 0 1.07a2.88 2.88 0 0 1 -1.91 -1 3.34 3.34 0 0 1 -0.61 -1.37 13.39 13.39 0 0 1 -0.18 -2.5 0.29 0.29 0 0 0 -0.29 -0.31 0.3 0.3 0 0 0 -0.32 0.29 14.65 14.65 0 0 0 0 2.66 4 4 0 0 0 0.44 1.81 4 4 0 0 0 2.77 1.59l0 0.93c0.06 1.24 0.15 2.47 0.23 3.7a0.35 0.35 0 0 0 0.35 0.34 0.35 0.35 0 0 0 0.34 -0.35c0.05 -1.23 0.14 -2.46 0.17 -3.7v-0.92a3.34 3.34 0 0 0 2.3 -1.38 4.4 4.4 0 0 0 0.69 -1.83 8.3 8.3 0 0 0 -0.03 -2.77Z" fill="#020202" fill-rule="evenodd" stroke-width="1"></path>
    <path d="M19.85 6.38a2.24 2.24 0 0 1 1.73 1.25 2.54 2.54 0 0 1 0 2.25 0.35 0.35 0 0 0 0.14 0.47 0.35 0.35 0 0 0 0.47 -0.15 3.31 3.31 0 0 0 0.17 -2.9A3.09 3.09 0 0 0 20 5.42c-0.27 0 -0.52 -0.09 -0.76 -0.11a7.73 7.73 0 0 0 -0.19 -0.8c-0.1 -0.37 -0.2 -0.73 -0.33 -1.09a9.57 9.57 0 0 0 -0.6 -1.35 4.89 4.89 0 0 0 -0.59 -0.84 2.92 2.92 0 0 0 -1.3 -0.82 6.92 6.92 0 0 0 -2.12 -0.25L10.57 0.2l-2 0c-0.45 0 -0.9 0 -1.34 0.09a5.26 5.26 0 0 0 -1 0.2 2.19 2.19 0 0 0 -0.73 0.37 2.41 2.41 0 0 0 -0.62 0.76 7.46 7.46 0 0 0 -0.43 1.13l-0.9 2.84a6.52 6.52 0 0 0 -1.4 0.44 3.63 3.63 0 0 0 -1.08 0.77 4.24 4.24 0 0 0 -1.1 3 3.16 3.16 0 0 0 1.68 2.76 4.5 4.5 0 0 0 1.17 0.44l0.33 0.05a9.09 9.09 0 0 0 -0.1 1.67 3.45 3.45 0 0 0 0.4 1.41 3 3 0 0 0 2.16 1.33A2.35 2.35 0 0 0 8 16.37a3.12 3.12 0 0 0 0.38 -1.44 7.58 7.58 0 0 0 -0.2 -1.86 18.59 18.59 0 0 1 2.36 0 0.32 0.32 0 0 0 0.33 -0.28 0.31 0.31 0 0 0 -0.28 -0.32c-1.61 -0.16 -3.21 0 -4.82 0 -0.39 0 -0.78 0 -1.17 -0.07a12 12 0 0 1 -1.6 -0.26 3.89 3.89 0 0 1 -0.9 -0.34A2.17 2.17 0 0 1 1 9.83a3.22 3.22 0 0 1 0.9 -2.22 2.48 2.48 0 0 1 0.76 -0.51 6.48 6.48 0 0 1 1.48 -0.42 0.49 0.49 0 0 0 0.23 -0.11 13.79 13.79 0 0 1 1.7 -0.17c1.49 -0.06 3 0.07 4.48 0l5.72 0c0.83 0 1.5 -0.1 2.19 -0.12a8.56 8.56 0 0 1 1.39 0.1ZM5.74 13.2c0.57 0 1.14 0 1.71 -0.08a7.67 7.67 0 0 1 0 1.73 2.17 2.17 0 0 1 -0.37 1 1.35 1.35 0 0 1 -1.36 0.5 2 2 0 0 1 -1.43 -0.75 2.52 2.52 0 0 1 -0.41 -1 6.7 6.7 0 0 1 -0.1 -1.47l0.7 0c0.43 0.08 0.85 0.08 1.26 0.07Zm10.51 -7.91 -3.43 0c-0.77 0 -1.54 0.06 -2.32 0.11 -1.5 0.13 -3 0.12 -4.5 0.28 -0.44 0 -0.88 0.11 -1.31 0.19l0.87 -2.73a5 5 0 0 1 0.35 -1 1.27 1.27 0 0 1 0.31 -0.41 1.21 1.21 0 0 1 0.49 -0.22 4.3 4.3 0 0 1 0.7 -0.13c0.41 -0.06 0.82 -0.09 1.23 -0.12 0.65 0 1.3 -0.05 1.94 -0.08l3.51 -0.15a6.54 6.54 0 0 1 1.91 0.2 2.23 2.23 0 0 1 1 0.56 3.82 3.82 0 0 1 0.62 0.87 7.89 7.89 0 0 1 0.46 1 8.75 8.75 0 0 1 0.35 1c0.06 0.18 0.1 0.37 0.15 0.55h-0.06c-0.76 0.03 -1.43 0.08 -2.27 0.08Z" fill="#020202" fill-rule="evenodd" stroke-width="1"></path>
    <path d="M5.84 8.5A2.42 2.42 0 0 0 4.8 8a1.68 1.68 0 0 0 -0.86 0 1.78 1.78 0 0 0 -1.15 1.09 1.63 1.63 0 0 0 0.31 1.64 1.81 1.81 0 0 0 2.39 0.38 1.69 1.69 0 0 0 0.64 -2.19 0.42 0.42 0 0 0 -0.13 -0.18 0.3 0.3 0 0 0 -0.16 -0.24ZM5 10.28A0.81 0.81 0 0 1 4 10a0.56 0.56 0 0 1 -0.13 -0.54 0.86 0.86 0 0 1 0.42 -0.57 0.92 0.92 0 0 1 0.56 -0.1 1.73 1.73 0 0 1 0.62 0.21 0.31 0.31 0 0 0 0 0.19 0.91 0.91 0 0 1 -0.47 1.09Z" fill="#4C57E6" fill-rule="evenodd" stroke-width="1"></path>
    <path d="M20 7.86a2.45 2.45 0 0 0 -1 -0.52 1.8 1.8 0 0 0 -0.86 0 1.76 1.76 0 0 0 -1.15 1.07 1.61 1.61 0 0 0 0.31 1.64 1.82 1.82 0 0 0 2.39 0.38 1.68 1.68 0 0 0 0.63 -2.19 0.29 0.29 0 0 0 -0.16 -0.18 0.31 0.31 0 0 0 -0.16 -0.2Zm-0.82 1.77a0.8 0.8 0 0 1 -1 -0.29 0.55 0.55 0 0 1 -0.18 -0.55 0.87 0.87 0 0 1 0.42 -0.56 0.92 0.92 0 0 1 0.56 -0.1 1.61 1.61 0 0 1 0.64 0.21 0.31 0.31 0 0 0 0 0.19 0.91 0.91 0 0 1 -0.49 1.1Z" fill="#4C57E6" fill-rule="evenodd" stroke-width="1"></path>
  </g>
</svg>