<svg xmlns="http://www.w3.org/2000/svg" viewBox="0 0 24 24" id="Footwear-Boots--Streamline-Freehand">
  <desc>
    Footwear Boots Streamline Icon: https://streamlinehq.com
  </desc>
  <g>
    <path d="m21.76 19 -4.71 -0.2c-1.66 0 -3.31 -0.07 -5 -0.06 -1.91 0 -0.62 0 -7.42 0.09 -0.95 0 -1.91 0.08 -2.86 0.09 -0.29 0 -0.24 0.07 -0.53 0.05 -0.44 0.19 -0.57 0.32 -0.08 0.56l0.59 0.06c1 0.05 1.91 0 2.86 0.09 1.65 0.09 3.31 0.17 5 0.2l3.72 0c1.24 0 2.48 -0.06 3.72 -0.09l4.77 0.07c0.72 -0.04 0.72 -0.86 -0.06 -0.86Z" fill="#4C57E6" fill-rule="evenodd" stroke-width="1"></path>
    <path d="M23.85 2.09a2.35 2.35 0 0 0 -0.62 -1.41 1.7 1.7 0 0 0 -0.79 -0.3A8.13 8.13 0 0 0 21 0.39l-1.33 0c-0.67 0 -1.35 -0.06 -2 -0.11a18.19 18.19 0 0 0 -2.79 0 4.63 4.63 0 0 0 -2 0.56 1.83 1.83 0 0 0 -0.69 1.32 16.16 16.16 0 0 0 0 2.53c0 0.87 0 1.64 -0.09 2.39 -0.09 1.17 -0.24 2.28 -0.4 3.62a7.34 7.34 0 0 1 -0.31 1.58 1.66 1.66 0 0 1 -0.49 0.74 1.7 1.7 0 0 1 -1 0.24 16.49 16.49 0 0 1 -1.89 -0.15 10.86 10.86 0 0 0 -5.49 0.59 4.11 4.11 0 0 0 -2.33 3 8 8 0 0 0 -0.17 1 15.05 15.05 0 0 0 0 1.57l0 2.11a8.49 8.49 0 0 0 0.14 1.45 0.32 0.32 0 0 0 0.13 0.2 0.34 0.34 0 0 0 0.3 0.32 16.17 16.17 0 0 0 2.33 0.17c1.79 0 3.63 -0.12 5.35 -0.08l5.58 0.12 3.84 0.07c1 0 2.56 0.21 3.78 0.15a3.12 3.12 0 0 0 1.82 -0.54 1.41 1.41 0 0 0 0.41 -0.9 13.44 13.44 0 0 0 0 -1.56l0.04 -5.78L24 4.87a16.68 16.68 0 0 0 -0.15 -2.78Zm-1 2.76L22.65 15l0 5.77c0 0.29 0.06 0.82 0 1.29 0 0.19 0 0.37 -0.08 0.46a2.11 2.11 0 0 1 -1.23 0.31c-1.2 0.09 -2.75 -0.08 -3.71 -0.09l-3.82 0 -5.6 0c-1.72 0 -3.56 0.16 -5.35 0.15a17.38 17.38 0 0 1 -2.18 -0.12 7.16 7.16 0 0 1 -0.1 -1.31s0.07 -3.06 0.13 -3.6a8.89 8.89 0 0 1 0.18 -1 3.44 3.44 0 0 1 2 -2.44 6.5 6.5 0 0 1 2.17 -0.51 4 4 0 0 1 1.24 1.53 8 8 0 0 1 0.51 1.4 10.66 10.66 0 0 1 0.41 1.57c0 0.58 0.81 0.28 0.72 -0.11a6.92 6.92 0 0 0 -0.06 -1.7 4.84 4.84 0 0 0 -0.58 -1.69 3.86 3.86 0 0 0 -0.9 -1c0.54 0 1.08 0.06 1.57 0.11a12.31 12.31 0 0 0 2.36 0.18 2.19 2.19 0 0 0 1.14 -0.39 2.49 2.49 0 0 0 0.8 -1.13 6.4 6.4 0 0 0 0.33 -1.34c0.45 0.05 0.88 0.11 1.33 0.13h0.72c0.24 0 0.48 0 0.72 -0.07 0.57 -0.07 1.12 -0.18 1.68 -0.28a0.35 0.35 0 0 0 0.32 -0.37 0.34 0.34 0 0 0 -0.36 -0.32c-0.57 0 -1.12 -0.09 -1.68 -0.11h-0.72l-0.72 0.06c-0.4 0.05 -0.79 0.14 -1.18 0.22 0.18 -1.21 0.32 -2.26 0.42 -3.35l0 -0.32c0.49 0.09 0.94 0.19 1.39 0.23s0.65 0 1 0S16.48 7 17 7a0.34 0.34 0 0 0 0.38 -0.3 0.34 0.34 0 0 0 -0.3 -0.38A12.34 12.34 0 0 0 15.63 6q-0.32 0 -0.63 -0.06a4.42 4.42 0 0 0 -0.63 0c-0.37 0 -0.74 0.11 -1.14 0.19 0 -0.46 0 -0.94 0.06 -1.45s-0.08 -1.28 0 -2.07a2.52 2.52 0 0 1 0.08 -0.61c0 -0.11 0.05 -0.21 0.12 -0.26A3.49 3.49 0 0 1 15 1.38a17.12 17.12 0 0 1 2.62 0.06c0.69 0.05 1.38 0.1 2.07 0.11l1.41 0c0.22 0 0.56 -0.05 0.9 0a0.88 0.88 0 0 1 0.53 0.09c0.06 0 0.07 0.14 0.11 0.24a7.18 7.18 0 0 1 0.15 0.8 20.58 20.58 0 0 1 0.06 2.17Z" fill="#020202" fill-rule="evenodd" stroke-width="1"></path>
  </g>
</svg>