<svg xmlns="http://www.w3.org/2000/svg" viewBox="0 0 24 24" id="Footwear-Sneakers-2--Streamline-Freehand">
  <desc>
    Footwear Sneakers 2 Streamline Icon: https://streamlinehq.com
  </desc>
  <g>
    <path d="M23.75 6.86c-0.13 -0.83 -0.15 -1.71 -0.29 -2.55a5.84 5.84 0 0 0 -0.31 -1.16A3.91 3.91 0 0 0 20.89 1a9 9 0 0 0 -4.43 -0.44A9.51 9.51 0 0 0 12.81 2a38.61 38.61 0 0 0 -4.48 3.5c-0.47 0.4 -0.91 0.8 -1.35 1.21L3 10.48a8.51 8.51 0 0 0 -0.87 0.94c-0.28 0.36 -0.56 0.73 -0.81 1.12a5.41 5.41 0 0 0 -0.47 0.85 9 9 0 0 0 -0.62 2.16A14.76 14.76 0 0 0 0 17.76a9.87 9.87 0 0 0 0.32 2.48 3.84 3.84 0 0 0 0.8 1.63 5.32 5.32 0 0 0 1.65 0.91 12.11 12.11 0 0 0 2.61 0.72 13.57 13.57 0 0 0 2.75 -0.06 14 14 0 0 0 2.68 -0.58 7.53 7.53 0 0 0 1.09 -0.5c0.8 -0.44 1.7 -1 2.23 -1.35s1.39 -1 2.26 -1.65c1.2 -1 2.47 -2 3.17 -2.63a24.23 24.23 0 0 0 2.92 -2.89 6.09 6.09 0 0 0 1.35 -2.6A9.16 9.16 0 0 0 24 9.46a17.4 17.4 0 0 0 -0.25 -2.6ZM12.32 3.3c0.3 -0.21 0.61 -0.42 0.93 -0.61a8.63 8.63 0 0 1 3.33 -1.23 8 8 0 0 1 3.93 0.41c0.11 0 0.22 0.12 0.33 0.18a1.34 1.34 0 0 1 0 0.84A3.49 3.49 0 0 1 20 4.22a5 5 0 0 1 -1.28 0.89 8.42 8.42 0 0 1 -2.3 0.77 5.69 5.69 0 0 1 -1.38 0 11.55 11.55 0 0 1 -2.12 -0.31 1.39 1.39 0 0 1 -1 -1.13 1.7 1.7 0 0 1 0.4 -1.14Zm10.4 7.7a5.09 5.09 0 0 1 -1.13 2.09 22.81 22.81 0 0 1 -2.79 2.74c-0.68 0.59 -1.94 1.66 -3.13 2.61A25.55 25.55 0 0 1 13.53 20c-0.44 0.28 -1.17 0.76 -1.86 1.17a7 7 0 0 1 -1.22 0.62A11.72 11.72 0 0 1 8 22.4a12.27 12.27 0 0 1 -2.52 0.11 10.81 10.81 0 0 1 -2.37 -0.6 4.69 4.69 0 0 1 -1.37 -0.7 3.57 3.57 0 0 1 -0.67 -1.58c0 -0.05 -0.56 -3.63 0.42 -6a4.64 4.64 0 0 1 0.23 -0.44h0.14a6.83 6.83 0 0 1 3.22 0 6.3 6.3 0 0 1 1.17 0.45 6.26 6.26 0 0 1 1.54 1.07 4.18 4.18 0 0 1 1 1.6 4.17 4.17 0 0 1 0.28 1c0.29 0.58 0.87 0.21 0.79 -0.29a7.85 7.85 0 0 0 -0.21 -1A5.45 5.45 0 0 0 8.56 14a6.74 6.74 0 0 0 -1.83 -1.31 5.67 5.67 0 0 0 -1.45 -0.43 6.94 6.94 0 0 0 -3.13 0.29l0.48 -0.69a8.88 8.88 0 0 1 0.78 -0.86l0.64 -0.6h0.09a12.12 12.12 0 0 1 2.44 0.29 15.27 15.27 0 0 1 1.55 0.31 6.47 6.47 0 0 1 2.35 1.2 0.34 0.34 0 1 0 0.48 -0.47 6.18 6.18 0 0 0 -2.1 -1.63 5.73 5.73 0 0 0 -1.07 -0.4 7.08 7.08 0 0 0 -1.12 -0.19 7.86 7.86 0 0 0 -1.82 0.08l2.21 -2a0.28 0.28 0 0 0 0.13 0 10.83 10.83 0 0 1 2.35 0.43 8.52 8.52 0 0 1 1.46 0.56 4.69 4.69 0 0 1 1.91 1.62 0.34 0.34 0 0 0 0.6 -0.33 4.93 4.93 0 0 0 -1.65 -2.06 4.7 4.7 0 0 0 -1 -0.55A4.87 4.87 0 0 0 9.71 7a7.33 7.33 0 0 0 -1.93 0c0.33 -0.3 0.67 -0.61 1 -0.9 0.74 -0.6 1.54 -1.28 2.38 -1.92a1.75 1.75 0 0 0 0 0.4 2.19 2.19 0 0 0 1.36 2 9.34 9.34 0 0 0 2 0.5 6.44 6.44 0 0 0 2.1 0 8.78 8.78 0 0 0 2.18 -0.74 5.9 5.9 0 0 0 1.9 -1.5 3.84 3.84 0 0 0 1 -2.13 2.64 2.64 0 0 1 0.5 0.81 4.5 4.5 0 0 1 0.24 1c0.13 0.84 0.13 1.71 0.25 2.54 0 0 0.2 2.39 0.2 2.43a7.75 7.75 0 0 1 -0.17 1.51Z" fill="#020202" fill-rule="evenodd" stroke-width="1"></path>
    <path d="M5.08 19.85a11.33 11.33 0 0 0 3.08 -0.34 13.73 13.73 0 0 0 4.35 -2A61.65 61.65 0 0 0 17.84 13l2.82 -2.49c0.61 -0.5 1.25 -1 1.85 -1.45 0.33 -0.25 0 -0.94 -0.39 -0.61 -0.64 0.49 -1.32 0.93 -2 1.42l-3 2.38a68.13 68.13 0 0 1 -5.34 4.32 14.27 14.27 0 0 1 -4 1.92 9.85 9.85 0 0 1 -2.79 0.45 6.58 6.58 0 0 1 -2.77 -0.47c-0.26 -0.12 -0.68 -0.39 -0.84 -0.43 -0.64 -0.16 -0.48 0.48 -0.16 0.81a2 2 0 0 0 0.72 0.34 8.75 8.75 0 0 0 3.14 0.66Z" fill="#4C57E6" fill-rule="evenodd" stroke-width="1"></path>
  </g>
</svg>