<svg xmlns="http://www.w3.org/2000/svg" viewBox="0 0 24 24" id="Forbidden-Phone-Off--Streamline-Freehand">
  <desc>
    Forbidden Phone Off Streamline Icon: https://streamlinehq.com
  </desc>
  <g>
    <path d="M4.51 14.59a0.3 0.3 0 0 0 0.32 -0.28l0.74 -10.55a5.29 5.29 0 0 1 0.17 -1.34 1.2 1.2 0 0 1 0.35 -0.58A2.27 2.27 0 0 1 7 1.43c0 0.28 0.17 0.59 0.2 0.82a5 5 0 0 0 0.38 1.07 5.65 5.65 0 0 0 0.55 1 0.63 0.63 0 0 0 0.31 0.19 4.43 4.43 0 0 0 0.88 0.09c1 0 2.6 -0.06 3.44 -0.11a8.46 8.46 0 0 1 0.87 -0.05l0.86 0a8.66 8.66 0 0 0 1.09 0.1 1.78 1.78 0 0 0 0.88 -0.28 2.42 2.42 0 0 0 0.79 -0.86A20.2 20.2 0 0 0 18 1.32a1 1 0 0 1 0.18 0.1 2.68 2.68 0 0 1 0.72 1.49c0 0.18 0.05 0.38 0.08 0.57 0.18 1.17 0.89 1.28 0.71 -0.49a1.75 1.75 0 0 0 0 -0.24 3.5 3.5 0 0 0 -0.93 -2 3.29 3.29 0 0 0 -1.56 -0.6A22.91 22.91 0 0 0 13.73 0L9.79 0a12.47 12.47 0 0 0 -2.65 0.2 4.19 4.19 0 0 0 -1.79 0.8 2.22 2.22 0 0 0 -0.68 1.11 6.34 6.34 0 0 0 -0.18 1.64l-0.26 10.53a0.3 0.3 0 0 0 0.28 0.31ZM9.76 1.14l4 -0.06c0.76 0 1.87 -0.12 2.85 -0.06 0.26 0 0.52 0.05 0.75 0.09 -0.24 0.48 -0.43 1.09 -0.72 1.61a1.77 1.77 0 0 1 -0.68 0.75 0.84 0.84 0 0 1 -0.43 0.08 7.25 7.25 0 0 1 -0.95 -0.16c-0.32 0 -0.65 -0.07 -1 -0.08a7.8 7.8 0 0 0 -1 0c-0.56 0.05 -1.45 0.1 -2.27 0.16 -0.58 0 -1.13 0.09 -1.48 0.09l-0.2 0a4.92 4.92 0 0 1 -0.41 -0.63 3.92 3.92 0 0 1 -0.41 -0.84c-0.06 -0.22 -0.2 -0.53 -0.28 -0.81a11.73 11.73 0 0 1 2.23 -0.14Z" fill="#020202" fill-rule="evenodd" stroke-width="1"></path>
    <g>
      <path d="M19.7 9.46a0.29 0.29 0 0 0 -0.29 -0.3 0.29 0.29 0 0 0 -0.3 0.29l-0.17 5.74c0 1.2 -0.08 2.45 -0.17 3.7 -0.06 0.81 -0.14 1.63 -0.26 2.42a1.42 1.42 0 0 1 -0.69 1.1 5 5 0 0 1 -2.41 0.43l-6 0.06c-0.59 0 -1.63 0.06 -2.55 0a2.52 2.52 0 0 1 -1.38 -0.3 2.7 2.7 0 0 1 -0.62 -1.46 10.85 10.85 0 0 1 -0.13 -1.5c-0.1 -0.44 -0.68 0 -0.72 0.6 0 0.34 0 0.69 0.09 1a3.39 3.39 0 0 0 0.8 1.95 2.73 2.73 0 0 0 1.44 0.55 29.63 29.63 0 0 0 3 0.15c0.86 0 1.86 0.07 3 0.09l3 0a6.15 6.15 0 0 0 3 -0.59 2.5 2.5 0 0 0 1.19 -1.93q0.15 -1.25 0.18 -2.52l0 -3.75Z" fill="#020202" fill-rule="evenodd" stroke-width="1"></path>
      <path d="M23.83 2.28a0.34 0.34 0 0 0 -0.48 0c-0.1 0.06 -5.48 4 -6.68 5 -2 1.55 -4.07 3.11 -6 4.77S6.78 15.4 5 17.18L0.19 21.91a0.3 0.3 0 0 0 0 0.42 0.28 0.28 0 0 0 0.42 0c2.05 -1.8 3.13 -2.61 5 -4.5 1.88 -1.72 3.84 -3.35 5.8 -5S15.3 9.59 17.28 8l6.5 -5.24a0.34 0.34 0 0 0 0.05 -0.48Z" fill="#4C57E6" fill-rule="evenodd" stroke-width="1"></path>
    </g>
  </g>
</svg>