<svg xmlns="http://www.w3.org/2000/svg" viewBox="0 0 24 24" id="Form-Edition-Clipboard-Remove--Streamline-Freehand">
  <desc>
    Form Edition Clipboard Remove Streamline Icon: https://streamlinehq.com
  </desc>
  <g>
    <path d="M23.67 18.13a5.67 5.67 0 0 0 -1.39 -2.49 5.06 5.06 0 0 0 -1.78 -1 4.79 4.79 0 0 0 -6.4 5.45 5.51 5.51 0 0 0 2.43 3.35 4.72 4.72 0 0 0 4.07 0.12 0.3 0.3 0 0 0 0.18 -0.38 0.32 0.32 0 0 0 -0.39 -0.18 4 4 0 0 1 -3.45 -0.25 4.58 4.58 0 0 1 -1.86 -2.94 3.82 3.82 0 0 1 0.81 -2.94 3.87 3.87 0 0 1 4.29 -1.2 3.85 3.85 0 0 1 1.41 0.66 4.59 4.59 0 0 1 1.23 2 3.65 3.65 0 0 1 0 2.33 3.2 3.2 0 0 1 -0.5 0.87 4.71 4.71 0 0 1 -0.74 0.74 0.34 0.34 0 1 0 0.42 0.53 5.25 5.25 0 0 0 0.88 -0.82 4 4 0 0 0 0.7 -0.98 4.45 4.45 0 0 0 0.09 -2.87Z" fill="#020202" fill-rule="evenodd" stroke-width="1"></path>
    <path d="M13.11 3.59A4.66 4.66 0 0 0 12 3a5.77 5.77 0 0 0 -0.84 -0.23A3.45 3.45 0 0 0 11 1.71a2.47 2.47 0 0 0 -0.5 -0.92 2.32 2.32 0 0 0 -0.91 -0.64A2.1 2.1 0 0 0 8.43 0a3.22 3.22 0 0 0 -1.71 1 2 2 0 0 0 -0.52 1.31 3.15 3.15 0 0 0 0 0.44 6.81 6.81 0 0 0 -1.6 0.52 2.8 2.8 0 0 0 -1.1 0.93l0 0.08a11.49 11.49 0 0 0 -1.86 0.07 2.59 2.59 0 0 0 -1.09 0.44 0.77 0.77 0 0 0 -0.24 0.32 2.2 2.2 0 0 0 -0.1 0.55C0.15 6 0.12 9.61 0.18 13.23c0.06 3.36 0.21 6.73 0.27 7.54a8.43 8.43 0 0 0 0.18 1.43A1.78 1.78 0 0 0 1 23a1.2 1.2 0 0 0 0.61 0.24 24.47 24.47 0 0 0 3.13 0.2 78.65 78.65 0 0 0 8 -0.21 0.34 0.34 0 0 0 -0.05 -0.67 66.3 66.3 0 0 1 -5.64 0c-2.21 -0.07 -4.13 -0.21 -5 -0.35l-0.28 -0.06a1.19 1.19 0 0 1 -0.09 -0.36 8.06 8.06 0 0 1 -0.09 -1.09L1 5.75l0 -0.38A2.15 2.15 0 0 1 2.07 5c0.37 0 0.75 0 1.13 -0.07 -0.06 0.21 -0.12 0.43 -0.16 0.63A1.94 1.94 0 0 0 3 6c0 0.32 0.09 0.75 0.09 0.75a0.52 0.52 0 0 0 0.5 0.46s2.76 0.06 5.31 0.06c1.42 0 2.78 0 3.55 -0.07a0.3 0.3 0 0 0 0 -0.6c-0.6 0 -1.56 0 -2.62 -0.06 -2.12 -0.1 -4.65 -0.28 -5.68 -0.35l0 -0.4a4.61 4.61 0 0 1 0.15 -0.53 1.74 1.74 0 0 1 0.2 -0.41 1.83 1.83 0 0 1 0.68 -0.56 7.1 7.1 0 0 1 1.55 -0.47L7 3.74a0.55 0.55 0 0 0 0.36 -0.25 0.51 0.51 0 0 0 0.08 -0.43l-0.13 -0.75a1 1 0 0 1 0.37 -0.77 2.48 2.48 0 0 1 1 -0.49 1 1 0 0 1 0.56 0 1.41 1.41 0 0 1 0.53 0.32 1.6 1.6 0 0 1 0.4 0.74 4.51 4.51 0 0 1 0.06 1 0.44 0.44 0 0 0 0.38 0.44 6.55 6.55 0 0 1 1.09 0.2 4.09 4.09 0 0 1 1 0.44 1.21 1.21 0 0 1 0.47 0.68 3.83 3.83 0 0 1 0.14 1 0.34 0.34 0 0 0 0.34 0.33 0.34 0.34 0 0 0 0.35 -0.3 3.73 3.73 0 0 0 -0.21 -1.44 1.81 1.81 0 0 0 -0.68 -0.87Z" fill="#020202" fill-rule="evenodd" stroke-width="1"></path>
    <path d="M15 4.54a6.34 6.34 0 0 1 1.3 0.42 1.09 1.09 0 0 1 0.53 0.41 5.05 5.05 0 0 1 0.27 1.4c0.08 0.72 0.14 1.6 0.21 2.53 0.11 1.26 0.26 2.61 0.35 3.87a0.3 0.3 0 0 0 0.3 0.29 0.29 0.29 0 0 0 0.3 -0.3c0.06 -1.11 0.14 -2.29 0.15 -3.42l0 -1.47a14.21 14.21 0 0 0 -0.19 -1.65 4.79 4.79 0 0 0 -0.55 -1.71 1.68 1.68 0 0 0 -0.77 -0.61 7 7 0 0 0 -1.76 -0.43 0.34 0.34 0 0 0 -0.39 0.27 0.35 0.35 0 0 0 0.25 0.4Z" fill="#020202" fill-rule="evenodd" stroke-width="1"></path>
    <path d="M3.22 8.12a0.3 0.3 0 0 0 -0.33 0.27 44.89 44.89 0 0 0 -0.15 6.8 31.27 31.27 0 0 0 0.53 4.54 0.68 0.68 0 0 0 0.28 0.42 3.75 3.75 0 0 0 1 0.3 23.18 23.18 0 0 0 3 0.05c1.39 0 3 -0.12 4.28 -0.22a0.34 0.34 0 0 0 0 -0.68l-4.25 0a23.16 23.16 0 0 1 -2.74 -0.18l-0.46 0c-0.15 -0.78 -0.27 -1.89 -0.4 -3.12 -0.11 -1.07 -0.23 -2.22 -0.31 -3.34a40.46 40.46 0 0 1 -0.13 -4.45 0.3 0.3 0 0 0 -0.32 -0.39Z" fill="#4C57E6" fill-rule="evenodd" stroke-width="1"></path>
    <path d="M14.68 12.08c0.06 0.58 0.17 1.21 0.25 2a0.3 0.3 0 0 0 0.29 0.3 0.31 0.31 0 0 0 0.31 -0.3c0.1 -0.76 0.21 -1.4 0.24 -2a8.09 8.09 0 0 0 0 -0.86c0 -0.31 0 -0.59 -0.09 -0.86 -0.1 -0.72 -0.25 -1.33 -0.37 -2a0.34 0.34 0 0 0 -0.37 -0.31 0.33 0.33 0 0 0 -0.3 0.37l0 2 0 0.83c0 0.29 0.01 0.53 0.04 0.83Z" fill="#4C57E6" fill-rule="evenodd" stroke-width="1"></path>
    <path d="M12.61 10.51A19.94 19.94 0 0 0 9.78 10a12.51 12.51 0 0 0 -1.94 0l-1.45 0.2 -0.59 0.06c-0.38 0 -0.36 0.23 -0.27 0.41a0.17 0.17 0 0 0 0.18 0.19l0.66 0.06 1.52 0.08 1.6 0 1.62 0 1.4 0.07a0.34 0.34 0 0 0 0.38 -0.28 0.33 0.33 0 0 0 -0.28 -0.28Z" fill="#4C57E6" fill-rule="evenodd" stroke-width="1"></path>
    <path d="M12.4 15.28a0.33 0.33 0 0 0 0.43 -0.19 0.34 0.34 0 0 0 -0.19 -0.44 17.11 17.11 0 0 0 -2.48 -0.25l-1 0c-0.33 0 -0.68 0 -1 0.05 -1 0.08 -1.84 0.24 -2.36 0.33a0.3 0.3 0 0 0 -0.28 0.32 0.29 0.29 0 0 0 0.32 0.27c0.52 0 1.38 0.12 2.34 0.16l1 0 1 0c1.18 -0.14 2.13 -0.28 2.22 -0.25Z" fill="#4C57E6" fill-rule="evenodd" stroke-width="1"></path>
    <path d="m21 18.43 -0.84 -0.24a2.62 2.62 0 0 0 -0.79 -0.07 9.17 9.17 0 0 0 -1.05 0.16l-1.51 0.44c-0.07 0 -0.24 0.54 0.2 0.57l0.4 0 1.06 0.05 1.61 -0.25H21a0.34 0.34 0 0 0 0 -0.68Z" fill="#020202" fill-rule="evenodd" stroke-width="1"></path>
  </g>
</svg>