<svg xmlns="http://www.w3.org/2000/svg" viewBox="0 0 24 24" id="Form-Edition-Number-2--Streamline-Freehand">
  <desc>
    Form Edition Number 2 Streamline Icon: https://streamlinehq.com
  </desc>
  <g>
    <path d="M23.8 8.47c0 -0.26 0.05 -1.09 0 -1.6a1.43 1.43 0 0 0 -0.19 -0.65 1.94 1.94 0 0 0 -1.21 -0.6 15.72 15.72 0 0 0 -2.42 0c-2.69 0 -5.36 -0.23 -8 -0.32l-2 0h-2c-1.18 0 -3.66 -0.43 -5.37 0.16A2.7 2.7 0 0 0 0.69 7.12a0.31 0.31 0 0 0 0.19 0.41 0.32 0.32 0 0 0 0.4 -0.19A2.44 2.44 0 0 1 3.4 5.91 24 24 0 0 1 7.87 6l2 0 2 0.07c2.69 0.14 5.37 0.4 8.06 0.47 0.45 0 1.27 -0.11 2 0a1.31 1.31 0 0 1 0.84 0.24 15.36 15.36 0 0 1 0 1.69c0 1.25 0.17 3.73 0.16 5.77a14 14 0 0 1 -0.14 2.37 1.08 1.08 0 0 1 -0.63 0.85 4.11 4.11 0 0 1 -1.39 0.24c-1.15 0.07 -2.3 0.1 -3.45 0.1s-2.32 0 -3.47 -0.07c-1.32 -0.05 -2.64 -0.06 -3.95 -0.05 -2 0 -3.93 0.06 -5.9 0.11a13.24 13.24 0 0 1 -2.17 0.07 1.21 1.21 0 0 1 -1 -0.49 1.33 1.33 0 0 1 -0.14 -0.63l0 -1.26 0.12 -7.55a0.28 0.28 0 0 0 -0.27 -0.29 0.28 0.28 0 0 0 -0.28 0.27L0.07 15.5A14 14 0 0 0 0 17a1.78 1.78 0 0 0 0.21 0.76 1.77 1.77 0 0 0 1.12 0.79 9.79 9.79 0 0 0 2.67 0.07l5.88 0c1.3 0 2.61 0.06 3.91 0.12s2.81 0.12 4.22 0.11q1.41 0 2.82 -0.09a4.24 4.24 0 0 0 2.17 -0.52 2.1 2.1 0 0 0 0.86 -1.42 16 16 0 0 0 0.14 -2.56c0 -2.05 -0.17 -4.54 -0.2 -5.79Z" fill="#020202" fill-rule="evenodd" stroke-width="1"></path>
    <path d="M4.67 10.82c0.28 -0.3 0.56 -0.59 0.85 -0.87s0.6 -0.54 0.9 -0.8l0 1.14c0.07 0.68 0.08 1.36 0.1 2l0 3.12a0.32 0.32 0 1 0 0.63 0c0.1 -1.21 0.26 -2.42 0.31 -3.64l0 -1.6a10 10 0 0 0 -0.12 -1.44A1.78 1.78 0 0 0 7.13 8a0.56 0.56 0 0 0 -0.77 0c-0.15 0.14 -0.53 0.53 -0.54 0.54l-0.66 0.76c-0.31 0.39 -0.62 0.78 -0.92 1.19a0.28 0.28 0 0 0 0.43 0.35Z" fill="#4C57E6" fill-rule="evenodd" stroke-width="1"></path>
    <path d="m12 15.36 1 -0.09 1 -0.09a17.82 17.82 0 0 1 2.3 0 0.31 0.31 0 0 0 0.36 -0.26 0.33 0.33 0 0 0 -0.27 -0.36 13.45 13.45 0 0 0 -2.42 -0.32 8.44 8.44 0 0 0 -2.08 0.17 10.38 10.38 0 0 0 -2.31 0.82 0.27 0.27 0 0 0 -0.16 0.35 0.28 0.28 0 0 0 0.35 0.17 13.91 13.91 0 0 1 2.23 -0.39Z" fill="#4C57E6" fill-rule="evenodd" stroke-width="1"></path>
  </g>
</svg>