<svg xmlns="http://www.w3.org/2000/svg" viewBox="0 0 24 24" id="Fortune-Telling-Hand-Palm-Reading--Streamline-Freehand">
  <desc>
    Fortune Telling Hand Palm Reading Streamline Icon: https://streamlinehq.com
  </desc>
  <g>
    <path d="M9.74 22.19a1.57 1.57 0 0 1 -0.57 0c-0.34 -0.07 -0.67 -0.21 -1 -0.3a6.37 6.37 0 0 1 -3.12 -2.1 9.09 9.09 0 0 1 -1.77 -3.37 13.62 13.62 0 0 1 -0.65 -2.59 2.34 2.34 0 0 1 0.24 -1.46 0.71 0.71 0 0 1 0.6 -0.36 1.27 1.27 0 0 1 0.83 0.27 4.36 4.36 0 0 1 1.08 1.26A20.32 20.32 0 0 1 6.49 16a0.34 0.34 0 1 0 0.63 -0.24 19.5 19.5 0 0 0 -1 -2.6 5.12 5.12 0 0 0 -1.21 -1.56 2.26 2.26 0 0 0 -1.44 -0.6 1.67 1.67 0 0 0 -1.47 0.78 3.26 3.26 0 0 0 -0.49 2.11 13.71 13.71 0 0 0 0.67 2.82 9.74 9.74 0 0 0 2.09 3.74A7.07 7.07 0 0 0 8 22.61c0.34 0.08 0.69 0.19 1 0.24a2.27 2.27 0 0 0 0.45 0l0 0.82a0.3 0.3 0 1 0 0.59 0l0 -1.16a0.34 0.34 0 0 0 -0.1 -0.27 0.34 0.34 0 0 0 -0.2 -0.05Z" fill="#020202" fill-rule="evenodd" stroke-width="1"></path>
    <path d="M21.09 3.26a1.51 1.51 0 0 0 -1.91 0.41 9.16 9.16 0 0 0 -0.56 1.44c0 -0.36 0.07 -0.69 0.09 -1a10 10 0 0 0 0.05 -1.38 3.1 3.1 0 0 0 -2 -2 1.75 1.75 0 0 0 -2 0.67 2.17 2.17 0 0 0 -0.25 0.45 8.21 8.21 0 0 0 -0.26 0.9c-0.06 0.25 -0.16 1 -0.28 1.94 0 -0.51 -0.08 -1 -0.13 -1.44a17 17 0 0 0 -0.27 -1.87A1.81 1.81 0 0 0 12 0a1.85 1.85 0 0 0 -1.83 1.06 4.5 4.5 0 0 0 -0.48 1.72 13.88 13.88 0 0 0 0 1.82 7.91 7.91 0 0 0 -0.39 -1.16 4 4 0 0 0 -0.91 -1.37 1.79 1.79 0 0 0 -2 -0.47A2 2 0 0 0 5.2 3.32a6.88 6.88 0 0 0 0 1.5c0.08 0.72 0.24 1.45 0.38 2.13 0.1 0.52 0.26 1.15 0.43 1.82 0.49 1.84 1.15 3.88 1.14 4.05l-0.06 2.83a0.3 0.3 0 1 0 0.6 0l0.09 -2.81c0 -0.18 -0.61 -2.33 -1.1 -4.27 -0.13 -0.57 -0.28 -1.25 -0.37 -1.76S6 5.44 6 4.74A6 6 0 0 1 6 3.4a1.23 1.23 0 0 1 0.66 -1.06 1 1 0 0 1 1.12 0.33 3.24 3.24 0 0 1 0.71 1.11 14.87 14.87 0 0 1 0.59 2.09l1 4.84a0.48 0.48 0 0 0 0.95 -0.14l-0.13 -1.82c-0.05 -0.7 -0.11 -1.46 -0.15 -2.13s-0.06 -1 -0.05 -1.38a20.49 20.49 0 0 1 0.06 -2.33 3.42 3.42 0 0 1 0.38 -1.32 0.81 0.81 0 0 1 0.77 -0.49 0.7 0.7 0 0 1 0.63 0.55 16.37 16.37 0 0 1 0.24 1.76c0.21 2.13 0.32 5 0.6 7.31a0.57 0.57 0 0 0 1.14 0c0.09 -0.74 0.35 -3.39 0.59 -5.4 0.12 -1.07 0.24 -2 0.31 -2.23s0.09 -0.44 0.17 -0.67a0.9 0.9 0 0 1 0.13 -0.28 0.77 0.77 0 0 1 1 -0.17A1.88 1.88 0 0 1 17.68 3l-0.51 5.72 -0.26 2a0.51 0.51 0 0 0 0.41 0.58 0.5 0.5 0 0 0 0.6 -0.38c0.15 -0.63 0.44 -1.67 0.76 -2.76 0.42 -1.46 0.89 -3 1.13 -3.7 0 -0.12 0.09 -0.24 0.11 -0.29a0.7 0.7 0 0 1 1 0 1.58 1.58 0 0 1 0.66 1.2c-0.17 1.29 -0.35 2.34 -0.56 3.3 -0.25 1.13 -0.54 2.13 -0.86 3.24a6.21 6.21 0 0 0 -0.23 1.66c0 1.21 0.23 2.45 0.18 3.66a8.74 8.74 0 0 1 -0.55 3.1 2.12 2.12 0 0 1 -1.31 1.29 0.34 0.34 0 0 0 -0.25 0.38l0 1.6a0.34 0.34 0 1 0 0.67 0l0.06 -1.33a2.87 2.87 0 0 0 1.53 -1.57 9.61 9.61 0 0 0 0.64 -3.36c0.07 -1.21 -0.16 -2.47 -0.13 -3.68a5.46 5.46 0 0 1 0.21 -1.45c0.34 -1.12 0.65 -2.14 0.91 -3.28 0.23 -1 0.44 -2.06 0.62 -3.37a2.65 2.65 0 0 0 -1.42 -2.3Z" fill="#020202" fill-rule="evenodd" stroke-width="1"></path>
    <path d="M18.05 13.32a0.3 0.3 0 0 0 -0.27 -0.32c-0.79 -0.14 -1.56 -0.29 -2.36 -0.37 -0.34 0 -0.68 0 -1 -0.05l-1 0c-0.79 0 -1.57 0.12 -2.35 0.17a0.35 0.35 0 0 0 -0.35 0.34 0.34 0.34 0 0 0 0.34 0.34c0.79 0.08 1.56 0.16 2.35 0.22l1 0.05 1 0 0.57 0 -0.51 0.24a6.4 6.4 0 0 0 -0.79 0.48 7.94 7.94 0 0 0 -0.72 0.58 10.89 10.89 0 0 0 -1.38 1.64 0.28 0.28 0 0 0 -0.05 0.29 4.43 4.43 0 0 0 -0.65 -0.49 8.66 8.66 0 0 0 -1.93 -0.81 0.3 0.3 0 0 0 -0.4 0.15 0.3 0.3 0 0 0 0.15 0.39 13.44 13.44 0 0 1 1.59 1.19c0.32 0.27 0.64 0.54 1 0.84a6.31 6.31 0 0 1 1.32 1.65 0.34 0.34 0 0 0 0.39 0.15 0.33 0.33 0 0 0 0.19 -0.44 6.05 6.05 0 0 0 -0.95 -1.92 5.56 5.56 0 0 0 -0.52 -0.56A0.28 0.28 0 0 0 13 17a22.1 22.1 0 0 1 1.86 -1.36c0.31 -0.21 0.62 -0.44 0.92 -0.66s0.61 -0.46 0.93 -0.67 0.65 -0.42 1 -0.61a0.33 0.33 0 0 0 0.17 -0.18 0.25 0.25 0 0 0 0.17 -0.2Z" fill="#4C57E6" fill-rule="evenodd" stroke-width="1"></path>
  </g>
</svg>