<svg xmlns="http://www.w3.org/2000/svg" viewBox="0 0 24 24" id="Fortune-Telling-Tarrot-Cards-Hand--Streamline-Freehand">
  <desc>
    Fortune Telling Tarrot Cards Hand Streamline Icon: https://streamlinehq.com
  </desc>
  <g>
    <path d="M17.32 17.49a1.92 1.92 0 0 0 -1.52 -0.27 6.24 6.24 0 0 0 -1.77 0.72 9.22 9.22 0 0 1 -3.17 1.14l-0.37 0 0.09 0 0.54 -0.39a1.18 1.18 0 0 0 0.16 -1.77 4.27 4.27 0 0 0 -1.92 -1l-1.51 -0.29a9.4 9.4 0 0 0 -1.91 -0.07 4.89 4.89 0 0 0 -1.31 0.3 3.55 3.55 0 0 0 -0.61 0.32 11.85 11.85 0 0 1 -1.9 1.3 1.75 1.75 0 0 1 -0.57 0.09l-1 0a0.29 0.29 0 0 0 -0.32 0.26 0.29 0.29 0 0 0 0.27 0.32 10.71 10.71 0 0 0 1.07 0.14 2.4 2.4 0 0 0 0.81 -0.07 3.66 3.66 0 0 0 0.62 -0.33 14 14 0 0 1 2 -1.12 4.45 4.45 0 0 1 1.31 -0.17 9.49 9.49 0 0 1 1.42 0.12l1.35 0.28a4 4 0 0 1 1.27 0.5c0.11 0.09 0.23 0.16 0.25 0.27a0.48 0.48 0 0 1 -0.15 0.34l-0.27 0.22a3 3 0 0 1 -1 0.32 16.31 16.31 0 0 1 -1.83 0.08A0.34 0.34 0 0 0 7 19a0.32 0.32 0 0 0 0.33 0.34 7 7 0 0 0 3.6 0.46 10.19 10.19 0 0 0 3.52 -1.06 5.13 5.13 0 0 1 1.55 -0.53 0.94 0.94 0 0 1 0.72 0.13c0.12 0.09 0.11 0.23 0.09 0.37a1.67 1.67 0 0 1 -0.29 0.65 4.62 4.62 0 0 1 -1.09 1.07 15.69 15.69 0 0 1 -2.17 1.27 12.72 12.72 0 0 1 -2.23 1 5.58 5.58 0 0 1 -1.56 0.3 5.82 5.82 0 0 1 -1.25 -0.12c-1 -0.21 -2 -0.59 -3.06 -0.81a16.68 16.68 0 0 0 -2.42 -0.28 17.64 17.64 0 0 0 -2.43 0 0.34 0.34 0 1 0 0 0.67 19.27 19.27 0 0 1 2.32 0.07 16.65 16.65 0 0 1 2.37 0.32c1 0.27 2 0.69 3.05 0.94a7 7 0 0 0 1.42 0.21 6.31 6.31 0 0 0 1.83 -0.25 13.82 13.82 0 0 0 2.45 -1 16.78 16.78 0 0 0 2.31 -1.36A5.72 5.72 0 0 0 17.4 20a2.64 2.64 0 0 0 0.47 -1.41 1.34 1.34 0 0 0 -0.55 -1.1Z" fill="#020202" fill-rule="evenodd" stroke-width="1"></path>
    <path d="M4.29 7.51c0.26 0.8 0.54 1.58 0.84 2.36 0.42 1.13 0.87 2.24 1.37 3.48a0.29 0.29 0 0 0 0.55 -0.21c-0.44 -1.25 -0.86 -2.39 -1.23 -3.52 -0.27 -0.78 -0.51 -1.55 -0.74 -2.36 -0.15 -0.54 -0.46 -1.3 -0.61 -2a1.91 1.91 0 0 1 0 -1.14A1.62 1.62 0 0 1 5 3.46 3.31 3.31 0 0 1 5.86 3q1 -0.37 2 -0.69t2 -0.51a5.39 5.39 0 0 1 1.25 -0.18 1 1 0 0 1 0.54 0.17 3.44 3.44 0 0 1 0.57 0.92c0.38 0.72 0.83 1.72 1.28 2.79a62.42 62.42 0 0 1 2.3 6.19 8.16 8.16 0 0 1 0.27 1.44 1.53 1.53 0 0 1 -0.17 0.79 2.37 2.37 0 0 1 -0.91 0.82 11.22 11.22 0 0 1 -1.9 0.85 0.33 0.33 0 0 0 -0.21 0.42 0.33 0.33 0 0 0 0.43 0.21 12 12 0 0 0 2 -0.84 3.48 3.48 0 0 0 1.22 -1.06 2.28 2.28 0 0 0 0.3 -1.2 8.43 8.43 0 0 0 -0.24 -1.62 63.55 63.55 0 0 0 -2.57 -7.45A11.09 11.09 0 0 0 12.33 0.9a2 2 0 0 0 -1.19 -0.4 7 7 0 0 0 -1.51 0.2c-0.72 0.15 -1.43 0.3 -2.13 0.56s-1.37 0.49 -2 0.77a4.13 4.13 0 0 0 -1.27 0.8 2.35 2.35 0 0 0 -0.62 0.9 2.63 2.63 0 0 0 -0.08 1.32 15.8 15.8 0 0 0 0.76 2.46Z" fill="#020202" fill-rule="evenodd" stroke-width="1"></path>
    <path d="M23.94 3.1a2 2 0 0 0 -0.73 -1 7.2 7.2 0 0 0 -1.36 -0.68 21 21 0 0 0 -2.06 -0.75q-1 -0.32 -2.1 -0.54a4.15 4.15 0 0 0 -1.45 -0.08 2.24 2.24 0 0 0 -1 0.36 1.93 1.93 0 0 0 -0.57 0.6 4.17 4.17 0 0 0 -0.47 1 0.3 0.3 0 0 0 0.17 0.38 0.31 0.31 0 0 0 0.38 -0.18 3.87 3.87 0 0 1 0.45 -0.86 1.52 1.52 0 0 1 0.4 -0.4 1.73 1.73 0 0 1 0.89 -0.22 4 4 0 0 1 1 0.14q1 0.29 2 0.63c0.66 0.24 1.3 0.51 1.93 0.81a5.69 5.69 0 0 1 1.11 0.61 0.94 0.94 0 0 1 0.34 0.48 2.39 2.39 0 0 1 0 0.66 31.72 31.72 0 0 1 -0.68 3.42 61.14 61.14 0 0 1 -1.76 6.36 6.61 6.61 0 0 1 -0.61 1.33 1.4 1.4 0 0 1 -0.59 0.54 2.35 2.35 0 0 1 -1.21 0.14 12.22 12.22 0 0 1 -2 -0.41 0.33 0.33 0 0 0 -0.42 0.22 0.34 0.34 0 0 0 0.23 0.42 11.81 11.81 0 0 0 2.16 0.52 3.35 3.35 0 0 0 1.61 -0.14 2.4 2.4 0 0 0 1 -0.8 7.53 7.53 0 0 0 0.76 -1.46 56.11 56.11 0 0 0 2 -6.45A28.44 28.44 0 0 0 24 4.2a3.28 3.28 0 0 0 -0.06 -1.1Z" fill="#4C57E6" fill-rule="evenodd" stroke-width="1"></path>
    <path d="M11 6.6a5.93 5.93 0 0 1 0.41 -0.6 0.51 0.51 0 0 0 0.09 -0.5 0.53 0.53 0 0 0 -0.37 -0.34 3.37 3.37 0 0 0 -0.88 -0.11 3.46 3.46 0 0 0 -0.87 0.15 3.1 3.1 0 0 0 -0.72 0.32 2.79 2.79 0 0 0 -0.66 0.53 3.27 3.27 0 0 0 -0.89 2.45 3.91 3.91 0 0 0 1 2.34 3.18 3.18 0 0 0 2 1.07 2.5 2.5 0 0 0 2.14 -0.77 2.76 2.76 0 0 0 0.37 -0.46 3.25 3.25 0 0 0 0.3 -0.51 0.23 0.23 0 0 0 0 -0.16 0.3 0.3 0 0 0 -0.26 -0.33 2.6 2.6 0 0 1 -1.62 -0.86A1.9 1.9 0 0 1 11 6.6Zm1.11 3.58 -0.06 0.09a3.61 3.61 0 0 1 -0.33 0.35 1.75 1.75 0 0 1 -1.51 0.44 2.26 2.26 0 0 1 -1.37 -0.85 3 3 0 0 1 -0.61 -1.75 2.28 2.28 0 0 1 0.62 -1.62 2.44 2.44 0 0 1 0.4 -0.32 2.71 2.71 0 0 1 0.49 -0.22l0.35 -0.09 0 0.07a3 3 0 0 0 -0.28 0.72 2.61 2.61 0 0 0 0.68 2.3 3.22 3.22 0 0 0 1.6 0.88Z" fill="#020202" fill-rule="evenodd" stroke-width="1"></path>
  </g>
</svg>