<svg xmlns="http://www.w3.org/2000/svg" viewBox="0 0 24 24" id="Front-End-Developer-Tool--Streamline-Freehand">
  <desc>
    Front End Developer Tool Streamline Icon: https://streamlinehq.com
  </desc>
  <path d="M23.67 9a0.33 0.33 0 0 0 -0.34 0.32L23 13.69c0 0.29 0 0.77 -0.08 1.21a1.59 1.59 0 0 1 -0.15 0.64 6.38 6.38 0 0 1 -1.1 1.32 8.41 8.41 0 0 1 -0.84 0.7l0 -0.68v-2.37c0 -1.32 0.23 -2.67 0.12 -4a5.82 5.82 0 0 0 -0.4 -1.77 1.79 1.79 0 0 0 -0.55 -0.62c-0.43 -0.33 -1 -0.65 -1.31 -0.82s-0.8 -0.7 -1.11 -0.88a0.6 0.6 0 0 0 -0.58 -0.06 0.54 0.54 0 0 0 -0.29 0.47l0 0.82 0.07 2.61c0 0.9 0.05 1.94 0.05 3l0 1.93a22.55 22.55 0 0 1 -0.15 2.25 3.08 3.08 0 0 1 -0.57 1.2 4.84 4.84 0 0 1 -0.81 0.74c-0.11 0.07 -0.21 0.15 -0.3 0.22l0 -0.55 -0.14 -3.29c-0.07 -1.8 -0.16 -3.6 -0.23 -5.39 -0.05 -1.2 -0.08 -2.39 -0.1 -3.58a2 2 0 0 0 -0.38 -1.17A9.64 9.64 0 0 0 12.43 4s-0.57 -0.56 -0.8 -0.75a0.68 0.68 0 0 0 -0.83 -0.07c-0.36 0.3 -1.26 0.89 -1.86 1.48a2.43 2.43 0 0 0 -0.72 1.08 3.79 3.79 0 0 0 -0.08 1c0 0.7 0.17 1.49 0.2 2.08l0.29 6.31 0.21 3.43a1.82 1.82 0 0 0 0.1 0.35l-0.3 -0.15c-0.32 -0.16 -1.08 -0.38 -1.66 -0.63a3.58 3.58 0 0 1 -0.34 -0.13c0 -0.46 0.11 -1.37 0.1 -1.61l0 -6.88 0 -1.91 0 -1.08A0.59 0.59 0 0 0 6.41 6a1.45 1.45 0 0 0 -0.73 0.27 12.93 12.93 0 0 0 -1.59 1.27c-0.2 0.19 -0.53 0.42 -0.78 0.66a3.07 3.07 0 0 0 -0.31 0.41 1.35 1.35 0 0 0 -0.13 0.53l0 1.37 0 2.89c0 0.65 0 1.3 0.08 1.95l0.24 1.53 -0.67 -0.41 -1.85 -0.91 0 -1 0 -3.88C0.67 10 0.68 9.43 0.7 9a0.28 0.28 0 0 0 -0.27 -0.31 0.29 0.29 0 0 0 -0.32 0.31l0 1.68 0 3.88s-0.06 0.81 0 1.12a0.48 0.48 0 0 0 0.17 0.38l2 1c0.1 0.06 0.79 0.51 1.09 0.67a0.5 0.5 0 0 0 0.59 -0.06 1.16 1.16 0 0 0 -0.02 -0.67c0 -0.56 -0.23 -1.46 -0.25 -1.73q-0.06 -0.94 -0.06 -1.89c0 -1 0 -1.91 0.06 -2.87l0 -1.47a1.57 1.57 0 0 1 0.22 -0.25c0.25 -0.24 0.58 -0.46 0.78 -0.65s0.73 -0.63 1.25 -1l0 0.43 -0.11 1.94c0 1.16 -0.07 2.31 -0.08 3.46s0 2.3 0 3.45c0 0.25 -0.11 1.26 -0.12 1.67a0.82 0.82 0 0 0 0.15 0.55 2.51 2.51 0 0 0 0.8 0.52c0.56 0.25 1.28 0.46 1.6 0.62 0 0 0.7 0.37 1 0.5a0.69 0.69 0 0 0 0.84 -0.21 1.1 1.1 0 0 0 0.07 -0.49c0 -0.33 -0.11 -0.83 -0.12 -1l-0.19 -3.41 -0.31 -6.34c0 -0.58 -0.17 -1.37 -0.19 -2.06A2.42 2.42 0 0 1 9.33 6c0.05 -0.24 0.34 -0.48 0.63 -0.74s0.84 -0.67 1.18 -0.92c0.24 0.21 0.5 0.47 0.52 0.49A15.56 15.56 0 0 1 13 6a1.12 1.12 0 0 1 0.33 0.73c0 0.9 0 1.81 0.07 2.71 0.07 2.1 0.2 4.19 0.29 6.29l0.17 3.32c0 0.09 0.06 0.88 0.09 1.2a0.72 0.72 0 0 0 0.57 0.63 3.12 3.12 0 0 0 1.16 -0.58 6.28 6.28 0 0 0 1.24 -1.14 4 4 0 0 0 0.72 -1.59 23 23 0 0 0 0.14 -2.39l0 -2c0 -1 -0.06 -2.07 -0.09 -3l-0.08 -2.44 0.52 0.26c0.23 0.15 0.71 0.39 1.11 0.66 0.2 0.14 0.39 0.26 0.45 0.41a5.44 5.44 0 0 1 0.4 2c0 1.11 -0.14 2.25 -0.12 3.36l0 2.38 0 0.88c0 0.11 -0.05 0.33 0 0.43a0.61 0.61 0 0 0 0.08 0.24 0.39 0.39 0 0 0 0.51 0.14 5.94 5.94 0 0 0 1.64 -1.1 6.48 6.48 0 0 0 1.23 -1.51 1.93 1.93 0 0 0 0.2 -0.7c0.07 -0.5 0.06 -1.09 0.09 -1.44L24 9.33a0.34 0.34 0 0 0 -0.33 -0.33Z" fill="#020202" fill-rule="evenodd" stroke-width="1"></path>
</svg>