<svg xmlns="http://www.w3.org/2000/svg" viewBox="0 0 24 24" id="Fruit-Banana--Streamline-Freehand">
  <desc>
    Fruit Banana Streamline Icon: https://streamlinehq.com
  </desc>
  <g>
    <path d="M18.55 8c-0.47 0.83 -0.79 1.77 -1.2 2.58a13.23 13.23 0 0 1 -2.13 3 16.93 16.93 0 0 1 -2.8 2.38 8 8 0 0 1 -2.54 1.27 4.16 4.16 0 0 1 -2.69 -0.12A4.72 4.72 0 0 1 6 16.37c-0.81 -0.64 -0.89 -0.92 -1.7 -1.56 -0.32 -0.44 -1 -0.07 -0.58 0.34 0.81 0.71 1 1.13 1.76 1.84a5.22 5.22 0 0 0 1.33 0.91 5 5 0 0 0 3.31 0.35 9 9 0 0 0 2.94 -1.38 16 16 0 0 0 3 -2.6A12.86 12.86 0 0 0 18.17 11c0.37 -0.82 0.63 -1.76 1.06 -2.6a2.7 2.7 0 0 1 0.73 -1c0.26 -0.34 -0.17 -0.6 -0.52 -0.45A3.34 3.34 0 0 0 18.55 8Z" fill="#4C57E6" fill-rule="evenodd" stroke-width="1"></path>
    <path d="M23.83 3.27a5.32 5.32 0 0 0 -0.71 -0.89 5.87 5.87 0 0 0 -0.86 -0.87 1.76 1.76 0 0 0 -0.64 -0.29 1.64 1.64 0 0 0 -1.23 0.28 7.21 7.21 0 0 0 -1.5 1.65 4.5 4.5 0 0 0 -0.65 1.05 2.63 2.63 0 0 0 -0.2 0.86 0.32 0.32 0 0 0 0.31 0.36 0.27 0.27 0 0 0 0 0.12 0.3 0.3 0 0 0 0.27 0.33 1.62 1.62 0 0 1 0.55 0.18c0.24 0.11 1.29 0.92 1.33 1a0.58 0.58 0 0 0 0.29 0.06 1.07 1.07 0 0 0 0.56 -0.29c0.34 -0.3 0.76 -0.91 0.93 -1.08l1.05 -0.94a4 4 0 0 0 0.52 -0.38 0.6 0.6 0 0 0 0.15 -0.36 1.16 1.16 0 0 0 -0.17 -0.79Zm-1.24 0.61 -0.46 0.43c-0.22 0.22 -0.42 0.46 -0.62 0.69s-1 0.79 -0.9 1.13a1.83 1.83 0 0 0 -0.22 -0.21 7.32 7.32 0 0 0 -1 -0.49 2.54 2.54 0 0 0 -0.75 -0.17 0.33 0.33 0 0 0 0 -0.15 1.86 1.86 0 0 1 0.36 -0.74 4.52 4.52 0 0 1 0.52 -0.68 9.48 9.48 0 0 1 1.19 -1.2 0.84 0.84 0 0 1 0.66 -0.22 0.81 0.81 0 0 1 0.39 0.3c0.19 0.19 0.35 0.41 0.5 0.58s0.4 0.37 0.54 0.51a1.53 1.53 0 0 1 -0.21 0.22Z" fill="#020202" fill-rule="evenodd" stroke-width="1"></path>
    <path d="M21.61 7a0.35 0.35 0 0 0 -0.55 0.42 4 4 0 0 1 0.66 2.65 11.26 11.26 0 0 1 -1.19 4.18A14.9 14.9 0 0 1 17 18.79a12.44 12.44 0 0 1 -5 2.7 7.67 7.67 0 0 1 -6.1 -1 7.66 7.66 0 0 1 -3.58 -5.17s0 -0.08 -0.07 -0.12a5.65 5.65 0 0 0 1.65 -1.45 1.48 1.48 0 0 0 0.33 -0.59 4.63 4.63 0 0 0 4 0.92 8.63 8.63 0 0 0 2.9 -1.15 9.57 9.57 0 0 0 2.35 -2.05c0.17 -0.22 0.34 -0.45 0.5 -0.68 0.36 -0.53 0.69 -1.08 1 -1.61a8.87 8.87 0 0 1 1.48 -1.89 2.68 2.68 0 0 1 1.26 -0.7 0.34 0.34 0 1 0 -0.09 -0.67 3.3 3.3 0 0 0 -1.7 0.75A10.18 10.18 0 0 0 14.16 8l-1.62 2.13a9.4 9.4 0 0 1 -2.08 1.81A8.64 8.64 0 0 1 8 13.12a3.92 3.92 0 0 1 -3.44 -0.49 0.27 0.27 0 0 0 -0.36 0 1.37 1.37 0 0 0 -0.23 -0.45 12.13 12.13 0 0 0 -1 -0.95 0.34 0.34 0 0 0 -0.53 0.44c0.18 0.23 0.52 0.54 0.76 0.86 0.09 0.12 0.17 0.23 0.14 0.34l-1 0.81 -0.41 0.32a0.47 0.47 0 0 0 -0.14 0.19c-0.09 0.16 -0.31 -0.31 -0.4 -0.39a0.78 0.78 0 0 1 -0.28 -1 5.24 5.24 0 0 1 1.06 -1.36 0.3 0.3 0 0 0 -0.39 -0.46 4.8 4.8 0 0 0 -1.67 1.75 1.7 1.7 0 0 0 0.52 1.89 3.9 3.9 0 0 0 0.5 0.5 0.78 0.78 0 0 0 0.42 0.17l0.15 0a0.29 0.29 0 0 0 0 0.1 8.35 8.35 0 0 0 3.68 5.83 8.72 8.72 0 0 0 6.88 1.41 13.16 13.16 0 0 0 5.47 -3 15.35 15.35 0 0 0 3.68 -5 12.09 12.09 0 0 0 1.12 -4.56A4.81 4.81 0 0 0 21.61 7Z" fill="#020202" fill-rule="evenodd" stroke-width="1"></path>
  </g>
</svg>