<svg xmlns="http://www.w3.org/2000/svg" viewBox="0 0 24 24" id="Fruit-Coconut-Half--Streamline-Freehand">
  <desc>
    Fruit Coconut Half Streamline Icon: https://streamlinehq.com
  </desc>
  <g>
    <path d="M4.52 12.76c0.34 -0.2 0.58 -0.31 0.77 -0.22s0.19 0.27 0.19 0.52a0.43 0.43 0 0 0 -0.09 0.13c-0.23 1 0.12 1.42 0.62 1.63 0.94 0.38 2.92 -0.43 3.5 -0.8a48.76 48.76 0 0 0 4.54 -3.2 17.72 17.72 0 0 0 2.66 -2.68c0.1 -0.13 0.19 -0.27 0.28 -0.41a3.88 3.88 0 0 0 0.22 -0.46A1.55 1.55 0 0 0 16.46 5a4.9 4.9 0 0 0 -3.05 0 14.59 14.59 0 0 0 -2.09 1.06 13.89 13.89 0 0 0 -1.93 1.3 0.3 0.3 0 1 0 0.38 0.46 13.08 13.08 0 0 1 1.9 -1.12 12.53 12.53 0 0 1 2 -0.87A3.83 3.83 0 0 1 16 6c0.28 0.15 0.37 0.43 0.18 0.88l-0.37 0.59 -0.08 0.09a6 6 0 0 0 -1.73 0.07c-1.73 0.37 -3.3 1.43 -4.32 1.48A7 7 0 0 1 7.85 9a3.31 3.31 0 0 1 -1.52 -0.78c-0.19 -0.17 -0.39 -0.34 -0.57 -0.53a2.22 2.22 0 0 1 -0.28 -0.33 8.54 8.54 0 0 0 -2.22 -2.51 2 2 0 0 0 -2.59 0.2A1.84 1.84 0 0 0 0 6.56 2.51 2.51 0 0 0 0.54 8c0.34 0.44 0.86 0.76 1.24 1.17a1 1 0 0 1 0.3 0.64 0.64 0.64 0 0 1 -0.17 0.35 8.39 8.39 0 0 0 -1.19 1.43A2.53 2.53 0 0 0 1 14a1.4 1.4 0 0 0 1.75 0.3 2.57 2.57 0 0 0 0.7 -0.46 8.17 8.17 0 0 1 1.07 -1.08Zm-2.13 0.77c-0.44 0.17 -0.73 0 -0.85 -0.27A1.78 1.78 0 0 1 1.6 12c0.23 -0.5 1 -0.94 1.29 -1.45a1.3 1.3 0 0 0 0.24 -0.74 1.94 1.94 0 0 0 -0.33 -1.1c-0.35 -0.53 -1 -0.89 -1.36 -1.4a1.36 1.36 0 0 1 -0.29 -0.78 0.73 0.73 0 0 1 0.27 -0.61 1 1 0 0 1 1.25 -0.08A7.28 7.28 0 0 1 4.56 8a3.35 3.35 0 0 0 0.44 0.47 7.21 7.21 0 0 0 0.65 0.53 4.37 4.37 0 0 0 1.57 0.84 7 7 0 0 0 2.53 0.16c1.05 -0.1 2.63 -1.24 4.45 -1.71a5.41 5.41 0 0 1 1 -0.16A21.38 21.38 0 0 1 13.32 10c-1.39 1.2 -2.91 2.31 -4.32 3.32a5.36 5.36 0 0 1 -2.39 0.89c-0.22 0 -0.41 0 -0.51 -0.17a0.8 0.8 0 0 1 0 -0.46 0.36 0.36 0 0 0 0.13 -0.24 1.37 1.37 0 0 0 -0.57 -1.4 1.57 1.57 0 0 0 -1.48 0.22 8.49 8.49 0 0 0 -1.27 1.13 1.61 1.61 0 0 1 -0.52 0.24Z" fill="#4C57E6" fill-rule="evenodd" stroke-width="1"></path>
    <path d="M23.43 9.32a12.38 12.38 0 0 0 -3.21 -5.71 0.27 0.27 0 0 0 -0.15 0 2.52 2.52 0 0 0 -1 -1 7.06 7.06 0 0 0 -3 -0.54 7.9 7.9 0 0 0 -3.21 0.75 23.31 23.31 0 0 0 -4 2.53C8.28 5.7 7.68 6 7.2 6.44a3.49 3.49 0 0 0 -0.6 0.68 0.33 0.33 0 0 0 0.09 0.47 0.34 0.34 0 0 0 0.48 -0.09 2.89 2.89 0 0 1 0.68 -0.67c0.44 -0.32 0.93 -0.58 1.36 -0.87a22.2 22.2 0 0 1 3.95 -2.33A7 7 0 0 1 16 3.05a5.88 5.88 0 0 1 2.56 0.49 1.45 1.45 0 0 1 0.77 1.12 4.46 4.46 0 0 1 -0.4 2.39 12.6 12.6 0 0 1 -2.21 3.27A27.39 27.39 0 0 1 13.93 13a29.25 29.25 0 0 1 -3.11 2.36 11.36 11.36 0 0 1 -3.17 1.54 4.5 4.5 0 0 1 -2.24 0.1A2.59 2.59 0 0 1 4 16.41 3.2 3.2 0 0 1 3.34 15a0.3 0.3 0 0 0 -0.34 -0.2 0.31 0.31 0 0 0 -0.22 0.37 4.67 4.67 0 0 0 0.47 1.24 0.29 0.29 0 0 0 -0.09 0.38A12.24 12.24 0 0 0 4.6 19a9.78 9.78 0 0 0 2 1.78 11.77 11.77 0 0 0 4.85 2 11.71 11.71 0 0 0 5.26 -0.4 11.45 11.45 0 0 0 4.07 -2.55 10.46 10.46 0 0 0 2.78 -3.92 11.68 11.68 0 0 0 -0.13 -6.59Zm-0.85 6.26A9.57 9.57 0 0 1 20 19a10.55 10.55 0 0 1 -3.63 2.31 10.79 10.79 0 0 1 -9.34 -1.17 9.23 9.23 0 0 1 -1.94 -1.58 11 11 0 0 1 -0.94 -1.25 5.21 5.21 0 0 0 1.06 0.41 5.36 5.36 0 0 0 2.61 0 12.43 12.43 0 0 0 3.48 -1.53 29.73 29.73 0 0 0 3.3 -2.32 28.66 28.66 0 0 0 2.94 -2.78A13.57 13.57 0 0 0 20 7.5a5.65 5.65 0 0 0 0.48 -2.59 12.87 12.87 0 0 1 2.13 4.64 10.65 10.65 0 0 1 -0.03 6.03Z" fill="#020202" fill-rule="evenodd" stroke-width="1"></path>
    <path d="M13.42 19.75a7.07 7.07 0 0 1 -1.22 -0.5c-0.26 -0.12 -0.52 -0.26 -0.79 -0.37 -0.47 -0.19 -0.95 -0.33 -1.47 -0.52a0.3 0.3 0 0 0 -0.41 0.1 0.31 0.31 0 0 0 0.11 0.42c0.38 0.32 0.7 0.64 1.08 0.9a3.29 3.29 0 0 0 0.55 0.3 3 3 0 0 0 0.6 0.21 5.86 5.86 0 0 0 1.48 0.14 0.34 0.34 0 0 0 0.37 -0.31 0.33 0.33 0 0 0 -0.3 -0.37Z" fill="#020202" fill-rule="evenodd" stroke-width="1"></path>
    <path d="M5.47 4.51a2.48 2.48 0 0 0 0.74 0.17A2.1 2.1 0 0 0 8.43 3a1.58 1.58 0 0 0 -0.53 -1.64 1.74 1.74 0 0 0 -1.09 -0.3 0.34 0.34 0 0 0 -0.33 0.24C5.78 0.8 5 1.27 4.61 2A1.75 1.75 0 0 0 5 4.26a2.13 2.13 0 0 0 0.47 0.25ZM5.4 2.37c0.15 -0.39 0.46 -0.73 0.84 -0.48a0.31 0.31 0 0 0 0.43 0 0.47 0.47 0 0 0 0 -0.1h0.13a0.73 0.73 0 0 1 0.7 1 1.09 1.09 0 0 1 -1.17 0.76 1.89 1.89 0 0 1 -0.4 -0.08 1.22 1.22 0 0 1 -0.33 -0.14 0.75 0.75 0 0 1 -0.2 -0.96Z" fill="#4C57E6" fill-rule="evenodd" stroke-width="1"></path>
    <path d="M17.56 16a2.4 2.4 0 0 0 -0.23 -0.38 1.75 1.75 0 0 0 -0.28 -0.33 6.38 6.38 0 0 0 -0.84 -0.6 0.3 0.3 0 0 0 -0.45 0.41c0.16 0.3 0.26 0.58 0.43 0.87a1.9 1.9 0 0 0 0.22 0.33 2.34 2.34 0 0 0 0.25 0.3c0.21 0.24 0.44 0.44 0.64 0.69a0.34 0.34 0 0 0 0.61 -0.32 6.21 6.21 0 0 0 -0.35 -0.97Z" fill="#020202" fill-rule="evenodd" stroke-width="1"></path>
    <path d="M21 11.81a13.33 13.33 0 0 0 -0.7 -1.48 0.31 0.31 0 0 0 -0.39 -0.19 0.31 0.31 0 0 0 -0.18 0.39c0.1 0.59 0.13 1.17 0.24 1.76 0.06 0.34 0.14 0.68 0.22 1a13.53 13.53 0 0 1 0.35 1.53 0.35 0.35 0 0 0 0.35 0.34 0.33 0.33 0 0 0 0.33 -0.35 10.08 10.08 0 0 0 0.06 -1.65 5.62 5.62 0 0 0 -0.1 -0.7 3.9 3.9 0 0 0 -0.18 -0.65Z" fill="#020202" fill-rule="evenodd" stroke-width="1"></path>
  </g>
</svg>