<svg xmlns="http://www.w3.org/2000/svg" viewBox="0 0 24 24" id="Fruit-Dragonfruit--Streamline-Freehand">
  <desc>
    Fruit Dragonfruit Streamline Icon: https://streamlinehq.com
  </desc>
  <g>
    <path d="m9.7 14.18 -0.24 1.05L9 17l-0.94 2.92a0.36 0.36 0 0 0 0.2 0.45 0.34 0.34 0 0 0 0.44 -0.2l1.19 -2.88 0.62 -1.74 0.32 -1.13 0.1 -0.73c0 -0.92 -0.38 -1.27 -0.81 -1.38a1.71 1.71 0 0 0 -1 0.14 9.53 9.53 0 0 0 -1.4 0.89l-0.52 0.37 -1.6 1.14 -1.15 0.77a0.3 0.3 0 0 0 -0.12 0.41 0.32 0.32 0 0 0 0.42 0.11L6 15.48l1.73 -1 0.56 -0.32a11.36 11.36 0 0 1 1.26 -0.69l0.24 -0.1 0.06 0 -0.06 0c-0.06 0 0 0.15 0 0.22Z" fill="#4C57E6" fill-rule="evenodd" stroke-width="1"></path>
    <path d="M13.09 10.29Z" fill="#020202" fill-rule="evenodd" stroke-width="1"></path>
    <path d="M23.74 9.92a6.57 6.57 0 0 0 -1.2 -0.29 7.2 7.2 0 0 0 -0.8 -0.07c0 -0.22 0 -0.44 0.05 -0.66a10.09 10.09 0 0 0 0 -1.1c-0.06 -1.41 -0.32 -2.83 -0.29 -4.22A6.45 6.45 0 0 1 22.06 1a0.3 0.3 0 0 0 -0.54 -0.26 7 7 0 0 0 -0.67 2.87C20.8 5 21 6.4 21.08 7.83l0 1c0 0.18 0 0.36 -0.06 0.55a1.45 1.45 0 0 0 -0.3 -0.05 1.28 1.28 0 0 0 -0.39 0 1.64 1.64 0 0 0 -0.38 0.1 5.78 5.78 0 0 0 -0.82 0.42 0.34 0.34 0 0 0 -0.22 0.43 0.35 0.35 0 0 0 0.43 0.23l0.83 0 0.33 0a1.94 1.94 0 0 0 0.33 -0.07 3.43 3.43 0 0 0 0.45 -0.16l0.06 0a5.76 5.76 0 0 1 1.1 0.08 5.52 5.52 0 0 0 -0.91 0.7 7.4 7.4 0 0 0 -1.38 1.73 0.59 0.59 0 0 0 0 0.08c-0.23 0.65 -0.47 1.31 -0.75 2s-0.46 1 -0.72 1.54a5.11 5.11 0 0 0 -0.55 -0.05 3 3 0 0 0 -0.59 0.06 2.73 2.73 0 0 0 -0.56 0.15 10.21 10.21 0 0 0 -1.23 0.54 0.35 0.35 0 0 0 -0.22 0.44 0.36 0.36 0 0 0 0.43 0.22c0.43 -0.07 0.84 -0.1 1.26 -0.15 0.17 0 0.35 0 0.52 -0.06l0.51 -0.1 0.4 -0.11a0.54 0.54 0 0 0 0.3 0.1 5.61 5.61 0 0 1 0.82 0c-0.29 0.15 -0.58 0.32 -0.86 0.5 -1.05 0.65 -2 1.39 -3.08 2.08a11.7 11.7 0 0 1 -5.31 2.53 8.51 8.51 0 0 1 -5.67 -0.77 7 7 0 0 1 -2.51 -2.39 6.65 6.65 0 0 1 -1.1 -3.27v-0.69a0.5 0.5 0 0 0 0 -0.24 25.24 25.24 0 0 1 0.42 -3.11 17.57 17.57 0 0 1 1 -3.25c0.38 -0.92 0.92 -1.8 1.36 -2.7A17.6 17.6 0 0 1 4.1 8a0.51 0.51 0 0 0 0.07 0.17 5.78 5.78 0 0 0 0 0.83 3.41 3.41 0 0 0 0.1 0.64 9.4 9.4 0 0 1 0.22 0.95 0.35 0.35 0 0 0 0.69 0 4.9 4.9 0 0 0 0.18 -1.06 3.38 3.38 0 0 0 0 -0.45 2.23 2.23 0 0 0 -0.1 -0.43A3.52 3.52 0 0 0 5 8.24 19.7 19.7 0 0 1 6.56 6.9c0.58 -0.45 1.17 -0.9 1.78 -1.26l0.06 0a10.71 10.71 0 0 0 1.88 -2.26 7.31 7.31 0 0 0 0.79 -1.81 2.58 2.58 0 0 1 0.19 0.37 4.93 4.93 0 0 1 0.42 1.28 0.38 0.38 0 0 0 0.1 0.2 3.27 3.27 0 0 0 0 0.44 1.35 1.35 0 0 0 0 0.35 2.17 2.17 0 0 0 0.07 0.35c0.08 0.28 0.18 0.53 0.26 0.81a0.35 0.35 0 0 0 0.69 0 8.89 8.89 0 0 0 0.13 -0.88 2.41 2.41 0 0 0 0 -0.38 2.45 2.45 0 0 0 -0.08 -0.37 3.49 3.49 0 0 0 -0.15 -0.34l0.69 -0.24c1.65 -0.47 3.41 -0.31 5 -0.7a5.78 5.78 0 0 0 2.12 -0.93 0.35 0.35 0 0 0 0.09 -0.53 0.34 0.34 0 0 0 -0.48 -0.08 5.17 5.17 0 0 1 -1.88 0.8c-1.64 0.37 -3.41 0.19 -5.08 0.64l-0.79 0.27a5.7 5.7 0 0 0 -0.37 -1 6.51 6.51 0 0 0 -0.81 -1.4 0.42 0.42 0 0 0 -0.44 -0.15 0.43 0.43 0 0 0 -0.3 0.35 6.17 6.17 0 0 1 -0.92 2.46 9.9 9.9 0 0 1 -1.71 2q-0.94 0.6 -1.82 1.27c-0.34 0.25 -0.67 0.51 -1 0.79 0 -0.29 -0.06 -0.58 -0.11 -0.87 -0.08 -0.62 -0.2 -1.24 -0.33 -1.84a0.52 0.52 0 0 0 -0.5 -0.4 0.51 0.51 0 0 0 -0.5 0.38 7 7 0 0 1 -0.47 1.25c-0.48 1 -1.11 2 -1.54 3a17.65 17.65 0 0 0 -1.07 3.45A26.56 26.56 0 0 0 0 15.47a0.5 0.5 0 0 0 0.05 0.27v0.49a7.79 7.79 0 0 0 1.27 3.85 8.13 8.13 0 0 0 2.93 2.79 9.62 9.62 0 0 0 6.43 0.86 12.79 12.79 0 0 0 5.77 -2.81c1 -0.68 2 -1.43 3 -2.09a12.19 12.19 0 0 1 2.09 -1.09 0.5 0.5 0 0 0 0.32 -0.47 0.49 0.49 0 0 0 -0.34 -0.45 6.66 6.66 0 0 0 -1.31 -0.28l-0.53 0c0.2 -0.42 0.38 -0.85 0.55 -1.28 0.27 -0.67 0.51 -1.34 0.72 -2a7.32 7.32 0 0 1 1.19 -1.53 4.51 4.51 0 0 1 1.61 -1 0.39 0.39 0 0 0 0.27 -0.37 0.38 0.38 0 0 0 -0.28 -0.44Z" fill="#020202" fill-rule="evenodd" stroke-width="1"></path>
    <path d="M15.74 13.79 14.32 15a0.32 0.32 0 1 0 0.36 0.52l1.6 -1.05 1 -0.81c0.09 -0.1 0.19 -0.19 0.28 -0.3a3.27 3.27 0 0 0 0.25 -0.36l0.23 -0.57a1.11 1.11 0 0 0 -0.58 -1.36 1.92 1.92 0 0 0 -0.83 -0.18 9.11 9.11 0 0 0 -1.53 0.23l-0.75 0.12 -1 0.14a0.28 0.28 0 0 0 -0.26 0.3 0.29 0.29 0 0 0 0.3 0.26h1.79a12.87 12.87 0 0 1 1.44 0c0.22 0 0.45 0 0.39 0.29l-0.1 0.27 -0.35 0.5Z" fill="#4C57E6" fill-rule="evenodd" stroke-width="1"></path>
    <path d="m11.45 8.78 0.39 1.81a0.32 0.32 0 1 0 0.63 -0.07l-0.18 -1.91L12 7.35c0 -0.13 -0.08 -0.26 -0.13 -0.39s-0.13 -0.27 -0.2 -0.39l-0.4 -0.47A1.1 1.1 0 0 0 9.83 6a1.7 1.7 0 0 0 -0.55 0.65 10.41 10.41 0 0 0 -0.51 1.46l-0.24 0.72 -0.35 1a0.28 0.28 0 0 0 0.14 0.37 0.29 0.29 0 0 0 0.37 -0.2l0.48 -0.91 0.35 -0.67a11.4 11.4 0 0 1 0.66 -1.28c0.12 -0.18 0.24 -0.38 0.44 -0.21l0.19 0.21 0.28 0.54Z" fill="#4C57E6" fill-rule="evenodd" stroke-width="1"></path>
    <path d="m18.28 6.17 -0.73 1.23a0.25 0.25 0 0 0 0.4 0.29l0.89 -1.18 0.52 -0.85c0 -0.1 0.09 -0.19 0.12 -0.29a2 2 0 0 0 0.09 -0.37l0 -0.47a0.86 0.86 0 0 0 -0.77 -0.84 1.4 1.4 0 0 0 -0.65 0.09 6.51 6.51 0 0 0 -1.05 0.56l-0.52 0.28 -0.68 0.38a0.22 0.22 0 0 0 -0.11 0.29 0.21 0.21 0 0 0 0.28 0.11l0.75 -0.27 0.56 -0.13a9.12 9.12 0 0 1 1 -0.39c0.16 0 0.33 -0.09 0.35 0.11v0.18l-0.12 0.46Z" fill="#4C57E6" fill-rule="evenodd" stroke-width="1"></path>
  </g>
</svg>