<svg xmlns="http://www.w3.org/2000/svg" viewBox="0 0 24 24" id="Fruit-Raspberry--Streamline-Freehand">
  <desc>
    Fruit Raspberry Streamline Icon: https://streamlinehq.com
  </desc>
  <g>
    <path d="M10 7.91a0.34 0.34 0 0 0 -0.22 -0.43 4.51 4.51 0 0 1 -1.84 -1.12 6 6 0 0 1 -1.08 -1.84 6.47 6.47 0 0 1 -0.3 -0.73 0.54 0.54 0 0 1 0 -0.41l0.7 -0.18A2.44 2.44 0 0 1 9 3.48a4.81 4.81 0 0 1 1.5 1.29 0.29 0.29 0 0 0 0.41 0.09 0.31 0.31 0 0 0 0.09 -0.42 5.4 5.4 0 0 0 -2 -1.95 3.29 3.29 0 0 0 -2 -0.38 4 4 0 0 0 -1 0.25 1.1 1.1 0 0 0 -0.52 0.5 1.43 1.43 0 0 0 -0.14 0.82A4.08 4.08 0 0 0 5.85 5a7 7 0 0 0 1.46 2A3.46 3.46 0 0 0 9 7.93l0.49 0.1a0.77 0.77 0 0 0 0.51 -0.12Z" fill="#4C57E6" fill-rule="evenodd" stroke-width="1"></path>
    <path d="M21.42 11.81c-0.34 -2.09 -2.05 -3.91 -4.36 -2.6a2.79 2.79 0 0 0 -1.95 -0.92A1.7 1.7 0 0 0 13.7 9a0.3 0.3 0 1 0 0.46 0.38 1.08 1.08 0 0 1 1.17 -0.29 2.06 2.06 0 0 1 1 0.81 3.87 3.87 0 0 1 0.67 1.48 3.62 3.62 0 0 1 0 1.54 2.09 2.09 0 0 1 -2.21 1.63 2.27 2.27 0 0 1 -0.77 -0.13 2.33 2.33 0 0 1 -0.69 -0.38 0.34 0.34 0 0 0 -0.45 0.51 3.17 3.17 0 0 0 0.86 0.58 3.35 3.35 0 0 0 1 0.27h0.11a2.58 2.58 0 0 1 -0.06 1.69 2.53 2.53 0 0 1 -1.21 1.4 2.07 2.07 0 0 1 -1.46 0.19 1.58 1.58 0 0 1 -1.2 -0.87 0.24 0.24 0 0 0 -0.13 -0.15 2.27 2.27 0 0 0 0.21 -2.75 0.35 0.35 0 0 0 -0.46 -0.17 0.35 0.35 0 0 0 -0.16 0.46 1.54 1.54 0 0 1 -0.52 2 3.15 3.15 0 0 1 -1.65 0.54 2.69 2.69 0 0 1 -1.65 -0.32 1.91 1.91 0 0 1 -0.76 -1.33 1.6 1.6 0 0 1 0.36 -1.55 0.27 0.27 0 0 0 0.11 -0.26 12.29 12.29 0 0 0 1.36 -0.34 3.67 3.67 0 0 0 0.87 0.58 3.76 3.76 0 0 0 4.5 -1.39 2.83 2.83 0 0 0 -0.75 -4.37 0.34 0.34 0 0 0 -0.37 0.57 2.07 2.07 0 0 1 0.34 3.21 2.72 2.72 0 0 1 -3.22 0.91 2 2 0 0 1 -1.24 -1.8 2.85 2.85 0 0 1 1 -2.21 4.61 4.61 0 0 1 1.11 -0.7 1 1 0 0 1 0.69 -0.07 0.3 0.3 0 1 0 0.25 -0.55c-0.13 -0.06 -0.85 -0.44 -2.52 0.68a3.7 3.7 0 0 0 -1.63 2.83 2.91 2.91 0 0 0 0.44 1.67 7.24 7.24 0 0 1 -1 0.15 2.36 2.36 0 0 1 -0.87 -0.1 2.25 2.25 0 0 1 -1.45 -1.59 2.36 2.36 0 0 1 0.34 -2.12 2.44 2.44 0 0 1 1.5 -1 3.26 3.26 0 0 1 1.93 0.16 0.3 0.3 0 0 0 0.4 -0.14 0.3 0.3 0 0 0 -0.13 -0.4 4 4 0 0 0 -2.33 -0.46A3.44 3.44 0 0 0 3.25 9a3.35 3.35 0 0 0 -0.56 3.13 3.4 3.4 0 0 0 0.63 1.11 3.89 3.89 0 0 0 -0.63 1.56 2.25 2.25 0 0 0 0.12 1 2.35 2.35 0 0 0 0.52 0.85 3.69 3.69 0 0 0 0.67 0.45 2.08 2.08 0 0 0 -0.71 1.76 4.53 4.53 0 0 0 1 2.63 3.12 3.12 0 0 0 2.3 1 3.72 3.72 0 0 0 1.59 -0.38c0.14 -0.07 0.26 -0.18 0.39 -0.26a0.3 0.3 0 0 0 -0.1 0.4A3 3 0 0 0 10.8 24a2.85 2.85 0 0 0 1.57 -0.32 3.5 3.5 0 0 0 1.18 -1 4.85 4.85 0 0 0 0.74 -1.68 2.24 2.24 0 0 0 0.86 0.23 4.1 4.1 0 0 0 1.27 -0.11 4.2 4.2 0 0 0 1.75 -0.81 3.64 3.64 0 0 0 1.19 -1.57 3 3 0 0 0 -0.36 -2.95 2.88 2.88 0 0 0 2.36 -2.18 4.19 4.19 0 0 0 0.06 -1.8ZM3.9 15.38a2.21 2.21 0 0 1 -0.11 -0.59 4.07 4.07 0 0 1 0.11 -1.06 3 3 0 0 0 1.1 0.51 3 3 0 0 0 0.52 0.06 2.56 2.56 0 0 0 -0.57 1.85 3 3 0 0 0 0.09 0.6 2.58 2.58 0 0 1 -1.14 -1.37Zm9.62 5.15a3.63 3.63 0 0 1 -0.83 1.47 2.6 2.6 0 0 1 -1 0.78 2.13 2.13 0 0 1 -2.72 -0.82 0.29 0.29 0 0 0 -0.4 -0.11 3.28 3.28 0 0 0 1.63 -2.95 0.34 0.34 0 1 0 -0.68 0 2.59 2.59 0 0 1 -1.82 2.22 2.9 2.9 0 0 1 -1.16 0.2A2.14 2.14 0 0 1 5 20.71a3.57 3.57 0 0 1 -0.95 -1.91 1.39 1.39 0 0 1 0.31 -1.25 0.27 0.27 0 0 0 0.11 -0.2 5.86 5.86 0 0 0 0.67 0.28 0.41 0.41 0 0 0 0.22 0 2.24 2.24 0 0 0 0.58 0.7 3.63 3.63 0 0 0 2.35 0.52 4.09 4.09 0 0 0 1.51 -0.46 4.32 4.32 0 0 0 0.5 -0.33 2.26 2.26 0 0 0 1.48 1.5 3 3 0 0 0 1.7 0.12 1.3 1.3 0 0 1 0.04 0.85Zm4.81 -2.24a3.57 3.57 0 0 1 -0.88 1.14 3.93 3.93 0 0 1 -1.28 0.79 3.69 3.69 0 0 1 -0.84 0.21 1.57 1.57 0 0 1 -0.78 -0.07 0.34 0.34 0 0 0 -0.2 0 1.81 1.81 0 0 0 -0.21 -0.9 3.46 3.46 0 0 0 1.56 -2.06 3.32 3.32 0 0 0 -0.11 -2 3.43 3.43 0 0 0 0.75 -0.19 4.38 4.38 0 0 0 0.71 0.38 3.39 3.39 0 0 0 0.93 0.26h0.17a2.41 2.41 0 0 1 0.18 2.44Zm1.76 -4.56A2 2 0 0 1 18 15a2.53 2.53 0 0 1 -0.72 -0.12 2.21 2.21 0 0 1 -0.27 -0.12 3.11 3.11 0 0 0 1 -1.51 4.1 4.1 0 0 0 0.05 -2.09 4.37 4.37 0 0 0 -0.66 -1.42c1.71 -0.68 2.69 0.74 2.86 2.24a3.61 3.61 0 0 1 -0.17 1.75Z" fill="#020202" fill-rule="evenodd" stroke-width="1"></path>
    <path d="M12.78 7.62a0.29 0.29 0 0 0 0.34 -0.25 4.37 4.37 0 0 1 1.27 -2.25A9.38 9.38 0 0 1 17.8 3a9.68 9.68 0 0 1 1.14 -0.43 1.16 1.16 0 0 1 0.53 -0.08c0.09 0 0.12 0.11 0.15 0.19a2.3 2.3 0 0 1 0.13 0.61 4.73 4.73 0 0 1 -0.12 1.62 3.55 3.55 0 0 1 -0.7 1.43 4.34 4.34 0 0 1 -0.72 0.64c-0.42 0.3 -0.88 0.55 -1.33 0.82a0.34 0.34 0 0 0 -0.13 0.46 0.34 0.34 0 0 0 0.46 0.14c0.48 -0.25 1 -0.48 1.43 -0.77a5.13 5.13 0 0 0 0.91 -0.7 4.46 4.46 0 0 0 1 -1.74 5.78 5.78 0 0 0 0.28 -2 2.87 2.87 0 0 0 -0.26 -1.14 1.3 1.3 0 0 0 -0.82 -0.68 2 2 0 0 0 -0.91 0 10 10 0 0 0 -1.47 0.63 10.18 10.18 0 0 0 -3.59 2.59 5 5 0 0 0 -1.26 2.72 0.3 0.3 0 0 0 0.26 0.31Z" fill="#4C57E6" fill-rule="evenodd" stroke-width="1"></path>
    <path d="M10.85 2.77c0.1 0.32 0.19 0.65 0.28 1s0.16 0.65 0.23 1a12.65 12.65 0 0 1 0.34 2.37 0.3 0.3 0 0 0 0.27 0.33 0.32 0.32 0 0 0 0.33 -0.28 10.47 10.47 0 0 0 0.15 -2.59 6.89 6.89 0 0 0 -0.21 -1.1 7.82 7.82 0 0 0 -0.37 -1.06A13.18 13.18 0 0 0 10.58 0.17a0.34 0.34 0 0 0 -0.47 -0.12 0.33 0.33 0 0 0 -0.11 0.46 16.54 16.54 0 0 1 0.85 2.26Z" fill="#020202" fill-rule="evenodd" stroke-width="1"></path>
    <path d="M18.08 4.84a0.33 0.33 0 0 0 -0.45 -0.17A8.68 8.68 0 0 0 16 5.3a4.42 4.42 0 0 0 -1 0.7 3.71 3.71 0 0 0 -1.13 1.75 0.29 0.29 0 0 0 0.16 0.39 0.29 0.29 0 0 0 0.38 -0.14 2.51 2.51 0 0 1 0.59 -0.65c0.18 -0.15 0.38 -0.26 0.57 -0.4s0.38 -0.26 0.57 -0.41a18.15 18.15 0 0 1 1.76 -1.25 0.33 0.33 0 0 0 0.18 -0.45Z" fill="#4C57E6" fill-rule="evenodd" stroke-width="1"></path>
    <path d="M10.37 5.41a2.24 2.24 0 0 0 -0.37 -0.35 1.87 1.87 0 0 0 -0.4 -0.27 3.09 3.09 0 0 0 -1.12 -0.35 0.3 0.3 0 0 0 -0.39 0.17 0.3 0.3 0 0 0 0.21 0.39 6.14 6.14 0 0 1 0.7 0.67l0.3 0.33a4.08 4.08 0 0 0 0.33 0.25c0.3 0.21 0.58 0.38 0.82 0.58a0.34 0.34 0 1 0 0.55 -0.48 5.34 5.34 0 0 0 -0.63 -0.94Z" fill="#4C57E6" fill-rule="evenodd" stroke-width="1"></path>
  </g>
</svg>