<svg xmlns="http://www.w3.org/2000/svg" viewBox="0 0 24 24" id="Fruit-Scale-Apple--Streamline-Freehand">
  <desc>
    Fruit Scale Apple Streamline Icon: https://streamlinehq.com
  </desc>
  <g>
    <path d="M23.23 20a3.41 3.41 0 0 0 -1.32 -0.38c-0.38 -0.05 -0.79 -0.07 -1.19 -0.09l0.17 -1.82c0.1 -0.85 0.16 -1.36 0.18 -1.87s0 -1 0 -1.87l-0.29 -3.7a6.28 6.28 0 0 0 2 -1.19 3.38 3.38 0 0 0 0.78 -1.18 6.49 6.49 0 0 0 0.35 -1.9 5.12 5.12 0 0 0 -0.2 -2 5.82 5.82 0 0 0 -0.94 -1.74 5.55 5.55 0 0 0 -0.77 -0.85 3.57 3.57 0 0 0 -1 -0.63 0.32 0.32 0 0 0 -0.44 0.18 0.32 0.32 0 0 0 0.18 0.44 3.12 3.12 0 0 1 0.78 0.54 5 5 0 0 1 0.65 0.75 5 5 0 0 1 0.77 1.53 5.47 5.47 0 0 1 -0.21 3.05A2.57 2.57 0 0 1 22 8.34a5.6 5.6 0 0 1 -1.86 1 6.92 6.92 0 0 1 -2.1 0.38 6.59 6.59 0 0 1 -1.2 -0.12 3.61 3.61 0 0 1 -1.06 -0.38 4.22 4.22 0 0 1 -2.09 -4.05 4.26 4.26 0 0 1 2.32 -4 6.33 6.33 0 0 1 1.5 -0.46 5.87 5.87 0 0 1 1.57 0 2.1 2.1 0 0 1 0.51 0.09A1.11 1.11 0 0 1 20 1a0.3 0.3 0 0 0 0.42 0 0.29 0.29 0 0 0 0 -0.42 1.81 1.81 0 0 0 -0.47 -0.29 3.19 3.19 0 0 0 -0.75 -0.21 6.44 6.44 0 0 0 -3.47 0.4 5.1 5.1 0 0 0 -3.05 4.66 5.56 5.56 0 0 0 2.56 5.07 4 4 0 0 0 0.66 0.3c0 0.33 -0.05 0.73 0 0.85l-0.1 2.37 0 1.95c0 0.48 0 1 0.06 1.95l0.1 1.62 -1.43 -0.05c-2.38 0 -4.76 0 -7.11 0.05h-0.81c0 -0.17 0 -0.35 0.06 -0.56s0 -0.23 0 -0.35a1.34 1.34 0 0 0 0 -0.35 1.67 1.67 0 0 0 -0.06 -0.26c0.67 0 1.35 -0.11 2.08 -0.18l2.89 -0.26a0.33 0.33 0 0 0 0.32 -0.35 0.34 0.34 0 0 0 -0.36 -0.32l-2.91 0H6.54l-2.07 0.05c-1.33 0.06 -2.65 0.15 -4.16 0.22a0.3 0.3 0 0 0 0 0.6c1.51 0.11 2.84 0.25 4.18 0.29l1.15 0c0 0.09 0 0.17 -0.07 0.26a1.7 1.7 0 0 0 0 0.39 1.58 1.58 0 0 0 0 0.38 3.37 3.37 0 0 0 0.15 0.48l-1 0a5.65 5.65 0 0 0 -1.16 0.14 0.34 0.34 0 0 0 0.18 0.66 4.51 4.51 0 0 1 1 -0.1c0.85 0 1.88 0.05 2.54 0.06 2.34 0 4.72 0 7.08 0.12 1.57 0.06 3.13 0.17 4.68 0.36 0.6 0.07 1.74 0.09 2.64 0.21a2.5 2.5 0 0 1 0.86 0.23c0.15 0.1 0.21 0.44 0.23 0.79a1.28 1.28 0 0 1 -0.24 0.89c-0.06 0.08 -0.2 0.09 -0.37 0.13a5.27 5.27 0 0 1 -1 0.11c-1.15 0 -2.46 -0.08 -2.88 -0.08l-11.82 0.15c-0.81 0 -2.53 0.11 -3.85 0a2.9 2.9 0 0 1 -1.38 -0.26 1.33 1.33 0 0 1 -0.35 -1 2.31 2.31 0 0 1 0.31 -1.17 1 1 0 0 1 0.5 -0.34A3.78 3.78 0 0 1 2.85 20a0.3 0.3 0 0 0 0 -0.6 4.45 4.45 0 0 0 -1.31 0.12 1.57 1.57 0 0 0 -0.83 0.55A3.09 3.09 0 0 0 0.25 22a1.87 1.87 0 0 0 0.54 1.27 3.6 3.6 0 0 0 1.81 0.5c1.33 0.12 3.09 0.08 3.91 0.09 1.63 0 4.55 0.07 7.1 0.09l4.73 0a31.21 31.21 0 0 0 3.42 0.05 2.63 2.63 0 0 0 1.74 -0.63 2.46 2.46 0 0 0 0.5 -1.71 2.26 2.26 0 0 0 -0.77 -1.66Zm-3.29 -2.35 0 1.85 -0.74 0c-0.87 -0.09 -1.74 -0.14 -2.62 -0.19l0.09 -1.62c0.09 -1 0.14 -1.47 0.16 -1.95s0 -1 0 -2c0 -0.41 0 -0.81 -0.07 -1.21s-0.09 -0.82 -0.17 -1.23c0 -0.09 0 -0.35 -0.06 -0.6a7.35 7.35 0 0 0 1.49 0.16 7.47 7.47 0 0 0 2 -0.35l-0.1 3.49Z" fill="#020202" stroke-width="1"></path>
    <path d="M14.49 6.6c0.76 0 0.89 0.19 2.92 0.25l1.39 0c1.27 0 2.1 -0.16 3.37 -0.23 0.58 -0.06 0.57 -0.49 0.19 -0.72 -1.33 -0.07 -2.23 -0.15 -3.56 -0.18h-0.71a4.05 4.05 0 0 0 -0.31 -0.72 3.94 3.94 0 0 0 -0.31 -0.48 4.84 4.84 0 0 0 -0.4 -0.39l-0.74 -0.6a0.34 0.34 0 1 0 -0.66 0.14 1 1 0 0 0 0.15 0.46c0.12 0.25 0.33 0.49 0.45 0.69s0.31 0.45 0.51 0.67l0.3 0.29a13.76 13.76 0 0 0 -2.67 0.19h-0.08c-0.25 0.26 -0.32 0.5 0.13 0.66Z" fill="#4C57E6" stroke-width="1"></path>
    <path d="M3 15.94A1.55 1.55 0 0 0 4 16c0.47 -0.12 0.88 -0.53 1.35 -0.6a0.92 0.92 0 0 1 0.4 0.07 4.79 4.79 0 0 0 0.74 0.21 1.67 1.67 0 0 0 0.5 0 3.75 3.75 0 0 0 2.58 -1.45 6 6 0 0 0 1 -4.06 4.18 4.18 0 0 0 -0.11 -0.68 3.2 3.2 0 0 0 -0.59 -1.3 4.58 4.58 0 0 0 -0.44 -0.53 2.18 2.18 0 0 0 -1.91 -0.63A2.58 2.58 0 0 0 5.85 8l-0.21 0.4 0.05 -0.9c0 -0.23 0 -0.41 0.06 -0.57a2.49 2.49 0 0 1 0.08 -0.5c0.08 -0.24 0.18 -0.48 0.31 -0.81a0.34 0.34 0 1 0 -0.58 -0.36 4 4 0 0 0 -0.87 1.22 2.51 2.51 0 0 0 0.18 1.78 1.76 1.76 0 0 0 -1.36 -0.51 2.78 2.78 0 0 0 -1.58 0.71A4.48 4.48 0 0 0 0.7 12.42 4.22 4.22 0 0 0 3 15.94Zm-0.56 -6.86a2.15 2.15 0 0 1 1.13 -0.61 1.2 1.2 0 0 1 1.06 0.47l0.37 0.43a0.49 0.49 0 0 0 0.89 0.09l0.56 -1a1.84 1.84 0 0 1 1.21 -0.64 1.38 1.38 0 0 1 1.19 0.43 5.37 5.37 0 0 1 0.35 0.45 3.77 3.77 0 0 1 0.26 0.48 3 3 0 0 1 0.14 0.51 2.64 2.64 0 0 1 0.06 0.55A5.43 5.43 0 0 1 9 13.12a2.75 2.75 0 0 1 -2.17 1.45c-0.41 0 -0.77 -0.22 -1.15 -0.29a1.81 1.81 0 0 0 -0.52 0 5.77 5.77 0 0 0 -1.33 0.58 0.53 0.53 0 0 1 -0.43 0 3.21 3.21 0 0 1 -1.75 -2.62 3.62 3.62 0 0 1 0.79 -3.16Z" fill="#020202" stroke-width="1"></path>
  </g>
</svg>