<svg xmlns="http://www.w3.org/2000/svg" viewBox="0 0 24 24" id="Fruit-Pineapple-1--Streamline-Freehand">
  <desc>
    Fruit Pineapple 1 Streamline Icon: https://streamlinehq.com
  </desc>
  <g>
    <path d="M21.52 4a0.57 0.57 0 0 0 -0.2 -1 6.84 6.84 0 0 0 -3.45 0.27c0.08 -0.27 0.17 -0.54 0.28 -0.81A9 9 0 0 1 19 0.82a0.51 0.51 0 0 0 0 -0.57 0.54 0.54 0 0 0 -0.56 -0.25 10 10 0 0 0 -1.74 0.3A8.18 8.18 0 0 0 15 1a9.45 9.45 0 0 0 -2.5 1.87 10.83 10.83 0 0 0 -3 -1.66A8.5 8.5 0 0 0 7.25 0.69a7.12 7.12 0 0 0 -2.34 0.24 0.49 0.49 0 0 0 -0.38 0.42 0.5 0.5 0 0 0 0.26 0.5 4.84 4.84 0 0 1 1.57 1.2 8 8 0 0 1 0.64 0.87 8.63 8.63 0 0 0 -1 -0.14A13.23 13.23 0 0 0 2.69 4a0.57 0.57 0 0 0 -0.46 0.56 0.55 0.55 0 0 0 0.46 0.55 3.78 3.78 0 0 1 0.92 0.29c0.33 0.14 0.66 0.31 1 0.47a11.13 11.13 0 0 1 2 1.25A8.4 8.4 0 0 1 8 8.65a4.84 4.84 0 0 0 -1.77 1.91 11 11 0 0 0 -1 4.3 16.28 16.28 0 0 0 0.09 3.55 7.36 7.36 0 0 0 0.76 2.35 6.36 6.36 0 0 0 4.4 3 8.4 8.4 0 0 0 5.33 -0.59 5.2 5.2 0 0 0 2.54 -2.68 12.08 12.08 0 0 0 0.69 -5.22l-0.26 -3.05a10 10 0 0 0 -0.23 -1.62 3.49 3.49 0 0 0 -0.45 -1.09 2.92 2.92 0 0 0 -0.93 -0.92c-0.14 -0.08 -0.3 -0.15 -0.45 -0.22a9.23 9.23 0 0 1 1.51 -1.87A17.74 17.74 0 0 1 21.52 4Zm-6.64 -1.85a12.49 12.49 0 0 1 1.44 -0.54c0.42 -0.14 0.85 -0.26 1.28 -0.36 -0.12 0.3 -0.21 0.6 -0.3 0.9a13.7 13.7 0 0 0 -0.3 1.42A10.92 10.92 0 0 0 14.74 5c-0.14 -0.19 -0.29 -0.37 -0.44 -0.54 -0.29 -0.33 -0.59 -0.64 -0.9 -0.94l-0.34 -0.29a10.3 10.3 0 0 1 1.82 -1.08ZM7 2.55a6.06 6.06 0 0 0 -0.67 -0.77l0.85 0a9.75 9.75 0 0 1 2 0.42 11.37 11.37 0 0 1 3.67 2c0.31 0.26 0.62 0.52 0.91 0.81s0.31 0.32 0.45 0.49a16.12 16.12 0 0 0 -1.67 1.76 21.38 21.38 0 0 0 -1.74 -1.55 9.55 9.55 0 0 0 -1.52 -1 8.3 8.3 0 0 0 -1.39 -0.57A8.21 8.21 0 0 0 7 2.55Zm0.09 4A12.56 12.56 0 0 0 5.06 5l-0.19 -0.12a9.55 9.55 0 0 1 1.07 0 7.78 7.78 0 0 1 2.9 0.65 9.42 9.42 0 0 1 1.44 0.83c0.49 0.33 1 0.7 1.41 1.08a7.69 7.69 0 0 0 -2.77 0.69 0.34 0.34 0 0 0 -0.19 0.34 0.53 0.53 0 0 0 -0.1 -0.06 10.21 10.21 0 0 0 -1.56 -1.87ZM17.37 10a2.5 2.5 0 0 1 0.31 0.84 7.35 7.35 0 0 1 0.16 1.47c0.05 0.76 0.14 2.26 0.19 3 0.07 3.37 -0.66 4.68 -0.68 4.73a4.28 4.28 0 0 1 -2 2.11 7.74 7.74 0 0 1 -4.6 0.53A5.33 5.33 0 0 1 7 20.27c-0.1 -0.17 -1 -1.44 -0.91 -5.38a9.61 9.61 0 0 1 0.77 -4c1.05 -2.14 2.09 -1.2 2 -2.18a0.34 0.34 0 0 0 0.39 0.09 7.25 7.25 0 0 1 3 -0.59 9.53 9.53 0 0 1 3.06 0.56A7 7 0 0 1 17.37 10Zm-1.26 -1.86L15.57 8a11.16 11.16 0 0 0 -2.38 -0.48 15.09 15.09 0 0 1 3.47 -2.56 9.84 9.84 0 0 1 1.75 -0.67 6.32 6.32 0 0 1 1.2 -0.29 14.92 14.92 0 0 0 -2 1.88 9.3 9.3 0 0 0 -1.5 2.26Z" fill="#020202" fill-rule="evenodd" stroke-width="1"></path>
    <path d="m14.38 13.23 -1.59 -1.15 0.55 -0.32c0.66 -0.4 1.3 -0.81 2 -1.19 0.48 -0.28 0.49 -0.34 1 -0.59s-0.11 -0.69 -0.72 -0.51c-0.82 0.35 -1.47 0.64 -2.26 1 -0.52 0.27 -1 0.55 -1.52 0.84 -1 -0.71 -1.74 -1.18 -2.72 -1.94 -0.32 -0.24 -0.78 0.14 -0.54 0.42 0.84 0.82 1.41 1.38 2.31 2.13l-0.54 0.34c-0.72 0.49 -1.42 1 -2.12 1.52 -0.5 -0.3 -1 -0.58 -1.51 -0.87 -0.35 -0.09 -0.35 0.47 -0.17 0.67l1 0.72 -0.55 0.38a0.31 0.31 0 0 0 -0.09 0.42 0.29 0.29 0 0 0 0.41 0.09l0.74 -0.41c0.8 0.61 1.59 1.23 2.39 1.83l0.08 0.05L8 18.34l-1.2 -0.74c-0.45 -0.12 -0.57 0.52 -0.21 0.83 0.56 0.47 1.12 0.93 1.7 1.36 0.43 0.32 0.87 0.62 1.31 0.92l0.85 0.53 -1 0.82 0.65 0.37 1.2 -0.69 1.44 0.84c0.5 0.22 1.23 0 0.84 -0.46l-1.3 -0.95 0.4 -0.23c0.44 -0.27 0.87 -0.55 1.3 -0.84 0.27 -0.17 0.53 -0.36 0.79 -0.54l1.46 1c0.4 0.31 1 -0.18 0.61 -0.56l-0.84 -0.72c-0.13 -0.1 -0.36 -0.33 -0.49 -0.43 0.69 -0.49 1.36 -1.11 2.05 -1.61a0.84 0.84 0 0 0 0.13 -1.38c-0.57 -0.48 -0.94 -0.79 -1.52 -1.26 0.54 -0.31 0.83 -0.54 1.37 -0.85 0.37 -0.4 0.2 -0.9 -0.17 -0.78 -0.82 0.36 -1.24 0.58 -2 1Zm-3.93 1.95c-0.5 -0.33 -1 -0.64 -1.51 -0.95 0.81 -0.45 1.63 -0.9 2.43 -1.36l0.37 -0.23c0.78 0.6 1.59 1.16 2.4 1.71l0.09 0.06c-0.46 0.23 -0.92 0.47 -1.36 0.73s-0.89 0.52 -1.33 0.8c-0.36 -0.26 -0.72 -0.52 -1.09 -0.76Zm2.9 3.89c-0.44 0.29 -0.86 0.58 -1.28 0.88l-0.67 0.51 -1.14 -0.78c-0.43 -0.29 -0.87 -0.58 -1.32 -0.86l-0.27 -0.16c0.92 -0.47 1.84 -0.94 2.75 -1.42l1 0.71 1.35 0.88Zm3.81 -2.49c-0.95 0.53 -1.54 1.1 -2.48 1.66L13.06 17l-0.52 -0.37c0.78 -0.44 1.56 -0.9 2.34 -1.36l0.36 -0.21c0.76 0.52 1.16 0.99 1.92 1.52Z" fill="#4C57E6" fill-rule="evenodd" stroke-width="1"></path>
  </g>
</svg>