<svg xmlns="http://www.w3.org/2000/svg" viewBox="0 0 24 24" id="Fruit-Redcurrant--Streamline-Freehand">
  <desc>
    Fruit Redcurrant Streamline Icon: https://streamlinehq.com
  </desc>
  <g>
    <path d="M23.91 16.2a5.59 5.59 0 0 0 -3 -4.15 0.34 0.34 0 0 0 -0.3 0.6 4.77 4.77 0 0 1 2.46 3.68 4.78 4.78 0 0 1 -1.32 4.15 3.85 3.85 0 0 1 -2.32 0.91 6.19 6.19 0 0 1 -2.61 -0.29 3.53 3.53 0 0 1 -0.81 -0.44 4.32 4.32 0 0 1 -0.7 -0.65 5.45 5.45 0 0 1 -0.68 -1 4 4 0 0 1 -0.41 -1.01 4.78 4.78 0 0 1 1.21 -4.32 4.72 4.72 0 0 1 4.33 -1.51 0.3 0.3 0 1 0 0.12 -0.58 5.2 5.2 0 0 0 -2.39 0A5.5 5.5 0 0 1 17 9.47a9.61 9.61 0 0 1 0 -1.42 16.9 16.9 0 0 1 0.24 -2c0.3 -0.34 0.59 -0.7 0.88 -1.07l2.62 -3.79a0.32 0.32 0 0 0 -0.07 -0.46 0.34 0.34 0 0 0 -0.47 0.06l-2.95 3.56a17 17 0 0 1 -1.67 1.87 6.23 6.23 0 0 1 -1.28 1 4.28 4.28 0 0 1 -2.13 0.51 5.39 5.39 0 0 0 -0.26 -4.31 0.33 0.33 0 1 0 -0.59 0.31 4.83 4.83 0 0 1 -0.22 4.42 4.76 4.76 0 0 1 -3.54 2.54A3.91 3.91 0 0 1 5.15 10a6.4 6.4 0 0 1 -1.92 -1.8 3.31 3.31 0 0 1 -0.39 -0.83 4.87 4.87 0 0 1 -0.17 -0.94 5.78 5.78 0 0 1 0 -1.18A3.92 3.92 0 0 1 3 4.17a4.77 4.77 0 0 1 3.57 -2.76 4.76 4.76 0 0 1 4.37 1.37 0.29 0.29 0 0 0 0.44 -0.39 5.45 5.45 0 0 0 -5 -1.78 5.74 5.74 0 0 0 -4.32 3.11 5.76 5.76 0 0 0 -0.44 1.39 6.21 6.21 0 0 0 -0.06 1.43 5.4 5.4 0 0 0 0.21 1.19 4 4 0 0 0 0.53 1.13A7.11 7.11 0 0 0 4.59 11a5 5 0 0 0 3.12 0.71 5.72 5.72 0 0 0 4.13 -3.17 1.21 1.21 0 0 0 0.09 -0.2 5.23 5.23 0 0 0 1.72 0c-0.35 0.37 -0.72 0.73 -1.06 1.11s-0.63 0.69 -0.93 1 -0.59 0.72 -0.86 1.09c-0.58 0.76 -1.12 1.54 -1.67 2.31A4.89 4.89 0 0 0 7.81 13a0.34 0.34 0 1 0 -0.3 0.6A4.77 4.77 0 0 1 10 17.24a4.78 4.78 0 0 1 -1.32 4.15 3.92 3.92 0 0 1 -2.32 0.92A6.35 6.35 0 0 1 3.72 22a3.53 3.53 0 0 1 -0.81 -0.44 3.91 3.91 0 0 1 -0.7 -0.65 5.45 5.45 0 0 1 -0.68 -1 4 4 0 0 1 -0.41 -1.08 4.78 4.78 0 0 1 1.21 -4.32A4.72 4.72 0 0 1 6.66 13a0.3 0.3 0 1 0 0.12 -0.58 5.42 5.42 0 0 0 -5 1.52 5.49 5.49 0 0 0 -1.22 6.52 6.33 6.33 0 0 0 0.81 1.18 5.31 5.31 0 0 0 0.87 0.84 4.48 4.48 0 0 0 1.1 0.59 7.35 7.35 0 0 0 3.1 0.34 4.91 4.91 0 0 0 2.93 -1.29 5.74 5.74 0 0 0 1.44 -5 6.1 6.1 0 0 0 -1.24 -2.75c0.69 -0.7 1.38 -1.38 2 -2.11 0.31 -0.34 0.62 -0.69 0.91 -1.05s0.59 -0.72 0.87 -1.08c0.65 -0.76 1.18 -1.53 1.75 -2.28a5.81 5.81 0 0 0 1 -0.68 5.41 5.41 0 0 0 -0.19 0.69 5.07 5.07 0 0 0 -0.1 1 5.18 5.18 0 0 0 0.12 1 5.45 5.45 0 0 0 0.82 1.87A5.83 5.83 0 0 0 14.81 13a5.74 5.74 0 0 0 -1.66 5.1 5.76 5.76 0 0 0 0.47 1.38 5.89 5.89 0 0 0 0.81 1.18 5.25 5.25 0 0 0 0.87 0.83 4.51 4.51 0 0 0 1.1 0.6 7.19 7.19 0 0 0 3.1 0.33 4.84 4.84 0 0 0 2.93 -1.28 5.74 5.74 0 0 0 1.48 -4.94Z" fill="#020202" fill-rule="evenodd" stroke-width="1"></path>
    <path d="M3.76 18.54a0.33 0.33 0 0 0 -0.31 0.27 0.27 0.27 0 0 0 -0.26 0.12 1.3 1.3 0 0 0 0 1.66 1.11 1.11 0 0 0 1.37 0.22 1.14 1.14 0 0 0 0.65 -1.24 1.28 1.28 0 0 0 -1.45 -1.03Z" fill="#4C57E6" fill-rule="evenodd" stroke-width="1"></path>
    <path d="M4.92 5.5a0.3 0.3 0 0 0 -0.28 -0.06 1.32 1.32 0 0 0 -1 1.31 1.11 1.11 0 0 0 1 1 1.17 1.17 0 0 0 1.27 -0.61 1.29 1.29 0 0 0 -0.53 -1.67 0.33 0.33 0 0 0 -0.46 0.03Z" fill="#4C57E6" fill-rule="evenodd" stroke-width="1"></path>
    <path d="M20.08 18.66a1.31 1.31 0 0 0 -1.64 0.23 1.1 1.1 0 0 0 0 1.39 1.18 1.18 0 0 0 1.34 0.45 1.3 1.3 0 0 0 0.79 -1.56 0.35 0.35 0 0 0 -0.32 -0.27 0.32 0.32 0 0 0 -0.17 -0.24Z" fill="#4C57E6" fill-rule="evenodd" stroke-width="1"></path>
  </g>
</svg>