<svg xmlns="http://www.w3.org/2000/svg" viewBox="0 0 24 24" id="Fruit-Bilberry-Blueberry-Blackcurrant--Streamline-Freehand">
  <desc>
    Fruit Bilberry Blueberry Blackcurrant Streamline Icon: https://streamlinehq.com
  </desc>
  <g>
    <path d="M10.32 11.66a0.33 0.33 0 0 0 -0.45 0.14 0.35 0.35 0 0 0 0.15 0.46 6.14 6.14 0 0 1 3 5.26 5.1 5.1 0 0 1 -2.9 5 4.57 4.57 0 0 1 -2.38 0.3 8.54 8.54 0 0 1 -2.42 -0.69A8.24 8.24 0 0 1 3 20.59a5 5 0 0 1 -1.4 -2.3A5.67 5.67 0 0 1 3 12.68a5.33 5.33 0 0 1 5.72 -1.14 0.3 0.3 0 0 0 0.38 -0.17A0.29 0.29 0 0 0 9 11a6 6 0 0 0 -6.51 1.09 6.63 6.63 0 0 0 -1.9 6.47 6 6 0 0 0 1.65 2.83 9.14 9.14 0 0 0 2.65 1.8 8.64 8.64 0 0 0 2.78 0.81 5.57 5.57 0 0 0 2.94 -0.45 6 6 0 0 0 3.32 -6.05 6.89 6.89 0 0 0 -3.61 -5.84Z" fill="#020202" fill-rule="evenodd" stroke-width="1"></path>
    <path d="M19.88 9.3a0.33 0.33 0 0 0 -0.45 0.14 0.35 0.35 0 0 0 0.15 0.46 6.15 6.15 0 0 1 2.94 5.26 5.75 5.75 0 0 1 -1 3.49 4.74 4.74 0 0 1 -1.82 1.57 4.6 4.6 0 0 1 -2.4 0.44 8.1 8.1 0 0 1 -2.49 -0.66 0.3 0.3 0 1 0 -0.25 0.55 8.62 8.62 0 0 0 3.26 0.91 5.15 5.15 0 0 0 2.33 -0.37 5.54 5.54 0 0 0 2.32 -1.83 6.43 6.43 0 0 0 1.12 -4.19 6.86 6.86 0 0 0 -3.71 -5.77Z" fill="#020202" fill-rule="evenodd" stroke-width="1"></path>
    <path d="M9.17 13.4a0.27 0.27 0 0 0 -0.17 0 1.38 1.38 0 0 0 -0.28 0.19 1 1 0 0 0 -0.21 0.31 1.23 1.23 0 0 0 0.05 1.15 1.76 1.76 0 0 0 0.83 0.76 1.2 1.2 0 0 0 1.28 -0.19 1.13 1.13 0 0 0 0.19 -1.25 1.55 1.55 0 0 0 -0.19 -0.36 1.48 1.48 0 0 0 -0.25 -0.31 1.76 1.76 0 0 0 -0.43 -0.3 1.84 1.84 0 0 0 -0.47 -0.15 0.33 0.33 0 0 0 -0.35 0.15Z" fill="#4C57E6" fill-rule="evenodd" stroke-width="1"></path>
    <path d="M18.56 11.08a1.38 1.38 0 0 0 -0.28 0.19 1.13 1.13 0 0 0 -0.21 0.31 1.26 1.26 0 0 0 0 1.15 1.77 1.77 0 0 0 0.84 0.76 1.2 1.2 0 0 0 1.28 -0.19 1.13 1.13 0 0 0 0.19 -1.25 1.78 1.78 0 0 0 -0.19 -0.36 1.48 1.48 0 0 0 -0.25 -0.31 1.76 1.76 0 0 0 -0.43 -0.3 1.84 1.84 0 0 0 -0.47 -0.15 0.33 0.33 0 0 0 -0.35 0.11 0.33 0.33 0 0 0 -0.13 0.04Z" fill="#4C57E6" fill-rule="evenodd" stroke-width="1"></path>
    <path d="M1.83 10.91a0.29 0.29 0 0 0 0.37 0.19 0.28 0.28 0 0 0 0.19 -0.37 9.66 9.66 0 0 1 -0.34 -1.83 6.56 6.56 0 0 1 0.1 -1.82 5.43 5.43 0 0 1 1.69 -3 6 6 0 0 1 3.07 -1.44 5.17 5.17 0 0 1 5.73 2.9A5.2 5.2 0 0 1 13.11 7a8.48 8.48 0 0 1 0.05 1.6 0.37 0.37 0 0 0 0 0.12 6.13 6.13 0 0 0 -1.86 1.9 0.34 0.34 0 1 0 0.55 0.4 5.64 5.64 0 0 1 2 -1.47 8 8 0 0 1 1 -0.35 6.82 6.82 0 0 1 1 -0.2 6.05 6.05 0 0 1 2.48 0.16 0.29 0.29 0 1 0 0.21 -0.55 6 6 0 0 0 -2.77 -0.69 4.35 4.35 0 0 0 -1.25 0.19 5.84 5.84 0 0 0 -0.66 0.24 7.7 7.7 0 0 0 0 -1.44 5.86 5.86 0 0 0 -0.44 -1.74 6.08 6.08 0 0 0 -6.69 -3.65 6.56 6.56 0 0 0 -3 1.27 6.25 6.25 0 0 0 -2.4 4.15 7.74 7.74 0 0 0 0 2 10.12 10.12 0 0 0 0.5 1.97Z" fill="#020202" fill-rule="evenodd" stroke-width="1"></path>
    <path d="m9 4.29 -0.59 0a0.37 0.37 0 0 0 -0.27 0.11l-0.59 0a1 1 0 0 0 -0.65 0.35 0.67 0.67 0 0 0 0 0.79 1.33 1.33 0 0 0 0.67 0.6 2 2 0 0 0 0.79 0.16A1.83 1.83 0 0 0 9 6.11a1.48 1.48 0 0 0 0.76 -0.71 0.7 0.7 0 0 0 -0.07 -0.77A1 1 0 0 0 9 4.29Z" fill="#4C57E6" fill-rule="evenodd" stroke-width="1"></path>
    <path d="M15.46 6.42a0.29 0.29 0 0 0 0.31 -0.28 5.32 5.32 0 0 1 1.65 -3.27A6.52 6.52 0 0 1 18.6 2a7.48 7.48 0 0 1 1.51 -0.72 5.8 5.8 0 0 1 0.1 2.72 5.23 5.23 0 0 1 -1.67 2.84 0.33 0.33 0 0 0 -0.05 0.47 0.33 0.33 0 0 0 0.47 0.05 5.9 5.9 0 0 0 2.16 -3.13A6.81 6.81 0 0 0 21 0.39a0.56 0.56 0 0 0 -0.64 -0.39 7.54 7.54 0 0 0 -2 0.8 7.13 7.13 0 0 0 -1.65 1.39 6 6 0 0 0 -1.53 3.9 0.29 0.29 0 0 0 0.28 0.33Z" fill="#4C57E6" fill-rule="evenodd" stroke-width="1"></path>
  </g>
</svg>