<svg xmlns="http://www.w3.org/2000/svg" viewBox="0 0 24 24" id="Fruit-Cherry--Streamline-Freehand">
  <desc>
    Fruit Cherry Streamline Icon: https://streamlinehq.com
  </desc>
  <g>
    <path d="M23.2 15.51a3.33 3.33 0 0 0 -2.31 -2.07 15.16 15.16 0 0 0 -3.37 -0.3 4.48 4.48 0 0 1 -2.9 -0.87 0.31 0.31 0 0 0 -0.26 -0.07 0.33 0.33 0 0 0 -0.11 -0.46A12.14 12.14 0 0 0 13 11a3.6 3.6 0 0 0 -1 -0.32 2.23 2.23 0 0 0 -1.82 0.52 5.46 5.46 0 0 0 -1.37 2.2 9.51 9.51 0 0 0 -0.42 4.6 6.77 6.77 0 0 0 2.18 4.2 8.29 8.29 0 0 0 4.67 1.8 9.37 9.37 0 0 0 4.87 -1 6.68 6.68 0 0 0 3 -3.18 5.56 5.56 0 0 0 0.09 -4.31Zm-1.1 3.89a5.57 5.57 0 0 1 -2.52 2.6 8.21 8.21 0 0 1 -4.27 0.82 7.24 7.24 0 0 1 -4 -1.44 5.74 5.74 0 0 1 -1.91 -3.52 8.55 8.55 0 0 1 0.26 -4.17 4.52 4.52 0 0 1 1.09 -1.93 1.49 1.49 0 0 1 1.2 -0.38 2.66 2.66 0 0 1 0.79 0.23 12.72 12.72 0 0 1 1.18 0.71 0.36 0.36 0 0 0 0.27 0 0.3 0.3 0 0 0 0.06 0.36c1.61 1.52 4.42 0.86 6.44 1.51a2.52 2.52 0 0 1 1.69 1.62 4.56 4.56 0 0 1 -0.28 3.59Z" fill="#020202" fill-rule="evenodd" stroke-width="1"></path>
    <path d="M19.78 15.86a0.3 0.3 0 1 0 -0.49 0.35 3.24 3.24 0 0 1 0.22 1l0 0.38a2.84 2.84 0 0 1 -0.33 1.41 0.34 0.34 0 0 0 0.56 0.4 3.37 3.37 0 0 0 0.79 -1.13 1.95 1.95 0 0 0 0.06 -1.27 3 3 0 0 0 -0.81 -1.14Z" fill="#020202" fill-rule="evenodd" stroke-width="1"></path>
    <path d="M5.2 6.78a3 3 0 0 0 -2 -0.22A3.77 3.77 0 0 0 1 8.39a5.52 5.52 0 0 0 -0.59 2.66 7.82 7.82 0 0 0 3 5.93 3.91 3.91 0 0 0 4.5 0.02 0.35 0.35 0 0 0 0.09 -0.43 0.34 0.34 0 0 0 -0.47 -0.12A3.21 3.21 0 0 1 4 16.26 6.79 6.79 0 0 1 1.56 11 4.44 4.44 0 0 1 2 8.94a2.63 2.63 0 0 1 1.52 -1.31 2.22 2.22 0 0 1 1.11 -0.1c1 0.15 2.09 0.74 3.1 0.9a22.8 22.8 0 0 0 2.39 -0.22 1 1 0 0 1 0.93 0.65l0.26 0.66a0.3 0.3 0 1 0 0.59 -0.14l-0.26 -0.8a1.67 1.67 0 0 0 -1 -1c-1.27 -0.42 -3.29 0.63 -5.44 -0.8Z" fill="#4C57E6" fill-rule="evenodd" stroke-width="1"></path>
    <path d="M21.26 0a0.36 0.36 0 0 0 -0.39 0.29 2.09 2.09 0 0 1 -0.67 1.23 6.85 6.85 0 0 1 -2.09 1.06 7.11 7.11 0 0 1 -2 0.38c-0.69 0.07 -1.42 0.1 -2.16 0.14s-1.5 0.11 -2.22 0.23A8.38 8.38 0 0 0 9.54 4a3.91 3.91 0 0 0 -2.32 2.9c0.15 0.27 0.35 0.35 0.6 0.21A3.21 3.21 0 0 1 9.9 4.85a8.83 8.83 0 0 1 2 -0.42c0.69 -0.08 1.42 -0.12 2.13 -0.17s1.39 -0.1 2 -0.19a1.83 1.83 0 0 0 -0.18 0.3 4.9 4.9 0 0 0 -0.33 2.5 9.57 9.57 0 0 0 0.51 1.82 11.14 11.14 0 0 1 0.6 1.59 3 3 0 0 1 -0.27 2.05 0.34 0.34 0 1 0 0.6 0.33 3.74 3.74 0 0 0 0.62 -2.54 8.81 8.81 0 0 0 -0.47 -1.83 9 9 0 0 1 -0.47 -1.61 4 4 0 0 1 0 -2 2.11 2.11 0 0 1 0.42 -0.76 6.23 6.23 0 0 0 1.42 -0.43 7.45 7.45 0 0 0 2.24 -1.38 2.75 2.75 0 0 0 0.8 -1.7 0.35 0.35 0 0 0 -0.26 -0.41Z" fill="#020202" fill-rule="evenodd" stroke-width="1"></path>
    <path d="M3.69 9.1a3.13 3.13 0 0 0 -0.69 0.84 1.91 1.91 0 0 0 -0.16 0.44 1.79 1.79 0 0 0 0 0.46 2.6 2.6 0 0 0 0.25 1.09 0.34 0.34 0 0 0 0.41 0.26 0.35 0.35 0 0 0 0.26 -0.42 1.8 1.8 0 0 1 0 -0.46 4 4 0 0 1 0.15 -0.45c0 -0.15 0.08 -0.3 0.1 -0.45a7.13 7.13 0 0 1 0.17 -1 0.3 0.3 0 0 0 -0.51 -0.33Z" fill="#4C57E6" fill-rule="evenodd" stroke-width="1"></path>
  </g>
</svg>