<svg xmlns="http://www.w3.org/2000/svg" viewBox="0 0 24 24" id="Gaming-First-Player-Star--Streamline-Freehand">
  <desc>
    Gaming First Player Star Streamline Icon: https://streamlinehq.com
  </desc>
  <g>
    <path d="M23.92 8.35a1 1 0 0 0 -0.5 -0.42 5.08 5.08 0 0 0 -1.29 -0.29c-1.34 -0.17 -3.35 -0.2 -4.63 -0.32a3 3 0 0 1 -0.88 -0.14 4.93 4.93 0 0 1 -0.71 -1c-0.94 -1.48 -2.31 -3.92 -3.14 -5a2.11 2.11 0 0 0 -0.87 -0.8 0.63 0.63 0 0 0 -0.59 0.16 4 4 0 0 0 -0.53 0.72c-0.62 1 -1.7 3 -2.64 4.45a6.14 6.14 0 0 1 -1.2 1.56c-1.05 0.6 -4.61 0.88 -6 1.29C0.33 8.69 0 9 0 9.19a0.45 0.45 0 0 0 0.09 0.38 4.31 4.31 0 0 0 0.42 0.43 48.07 48.07 0 0 1 3.64 3.48 3.76 3.76 0 0 1 0.71 1A8.16 8.16 0 0 1 4.4 17c-0.54 2.08 -1.4 4.79 -1.8 6a0.31 0.31 0 0 0 0.19 0.39 0.3 0.3 0 0 0 0.38 -0.2c0.42 -1.23 1.33 -3.95 1.91 -6a8.48 8.48 0 0 0 0.49 -2.86 7.83 7.83 0 0 0 -1.8 -2.37c-1 -1 -2.07 -2 -2.64 -2.53a4.11 4.11 0 0 1 0.41 -0.1C2.69 9.05 4.6 8.86 6 8.57a5.51 5.51 0 0 0 1.43 -0.47A10.58 10.58 0 0 0 9.6 5.32c0.75 -1.21 1.52 -2.55 2 -3.37 0 -0.06 0.07 -0.11 0.1 -0.16a3.14 3.14 0 0 1 0.48 0.53c0.94 1.44 2.29 3.89 3.1 5.05a3.1 3.1 0 0 0 0.69 0.79 2.51 2.51 0 0 0 0.92 0.26c1.25 0.17 3.71 0.18 5.2 0.38l0.35 0a1.54 1.54 0 0 1 -0.19 0.17 41.37 41.37 0 0 0 -3.44 3.05 3.81 3.81 0 0 0 -1.31 2.49c0.08 0.76 1.57 3.81 2.4 6.13a9 9 0 0 1 0.49 1.75v0.18a8.55 8.55 0 0 1 -1 -0.34c-1.53 -0.82 -3.86 -2.42 -5.71 -3.49a13.4 13.4 0 0 0 -1.95 -1 0.9 0.9 0 0 0 -0.49 0A11.85 11.85 0 0 0 9 18.87c-1.84 1.06 -4.21 2.61 -5.19 3.32a0.34 0.34 0 0 0 0.39 0.56c0.88 -0.6 2.8 -1.81 4.45 -2.75a22 22 0 0 1 2.43 -1.27c0.2 -0.08 0.43 -0.05 0.44 -0.13 2 0.78 6.08 3.89 8 4.81a2.88 2.88 0 0 0 1 0.3 0.8 0.8 0 0 0 0.5 -0.15 1 1 0 0 0 0.35 -0.62 4.29 4.29 0 0 0 -0.22 -1.66c-0.63 -2.28 -2.47 -6 -2.55 -6.82 0 -0.41 0.38 -0.9 0.89 -1.46a46.24 46.24 0 0 1 3.78 -3.32 3.1 3.1 0 0 0 0.65 -0.68 0.62 0.62 0 0 0 0 -0.65Z" fill="#4C57E6" fill-rule="evenodd" stroke-width="1"></path>
    <path d="M10.05 10.63c0 -0.25 -0.06 -0.42 -0.07 -0.5s0 -0.1 0 -0.12a0.56 0.56 0 0 0 -0.21 -0.31 0.48 0.48 0 0 0 -0.55 0c-0.34 0.24 -0.85 0.54 -1.27 0.86a4.59 4.59 0 0 0 -0.55 0.46 0.3 0.3 0 0 0 0 0.43 0.31 0.31 0 0 0 0.43 0 3.11 3.11 0 0 1 0.52 -0.29 6.18 6.18 0 0 1 0.64 -0.28c0 0.45 0 1.07 0.06 1.71 0.06 0.86 0.18 1.76 0.24 2.38h-0.21c-0.43 0 -0.82 0.17 -1.25 0.25a0.31 0.31 0 0 0 -0.3 0.3 0.3 0.3 0 0 0 0.3 0.3c0.43 0.09 0.83 0.2 1.25 0.25a4.87 4.87 0 0 0 0.54 0 4.55 4.55 0 0 0 0.53 0c0.43 0 0.83 -0.14 1.25 -0.2a0.35 0.35 0 0 0 0.34 -0.35 0.34 0.34 0 0 0 -0.34 -0.34c-0.4 -0.08 -0.83 -0.18 -1.26 -0.18H10c0.05 -0.63 0.11 -1.54 0.11 -2.42s-0.02 -1.49 -0.06 -1.95Z" fill="#020202" fill-rule="evenodd" stroke-width="1"></path>
    <path d="M15.93 13a2 2 0 0 0 0.9 -1.75 1.77 1.77 0 0 0 -1.21 -1.64 4.68 4.68 0 0 0 -2.06 -0.36 1.37 1.37 0 0 0 -0.79 0.24 0.69 0.69 0 0 0 -0.21 0.48 8.66 8.66 0 0 0 0 1.08 39 39 0 0 0 0.44 4.57 0.3 0.3 0 1 0 0.6 -0.1 19.85 19.85 0 0 1 0 -2.19 3.63 3.63 0 0 0 2.33 -0.33Zm-2.27 -2.5v-0.09l0.16 0a4 4 0 0 1 1.35 0.26c0.32 0.13 0.62 0.28 0.63 0.6a1.13 1.13 0 0 1 -0.64 1.19 3.16 3.16 0 0 1 -1.6 0.21c0.02 -0.87 0.07 -1.67 0.1 -2.19Z" fill="#020202" fill-rule="evenodd" stroke-width="1"></path>
  </g>
</svg>