<svg xmlns="http://www.w3.org/2000/svg" viewBox="0 0 24 24" id="Gardening-Spirinkler--Streamline-Freehand">
  <desc>
    Gardening Spirinkler Streamline Icon: https://streamlinehq.com
  </desc>
  <g>
    <path d="M15.07 11.48a3 3 0 0 0 -0.28 -0.44 3.5 3.5 0 0 0 -2.55 -1.23c0 -0.4 -0.05 -0.81 -0.05 -1.21a0.29 0.29 0 0 0 -0.27 -0.31 0.29 0.29 0 0 0 -0.3 0.26c-0.06 0.43 -0.1 0.86 -0.15 1.3a3.58 3.58 0 0 0 -0.65 0.14 3.37 3.37 0 0 0 -2.45 3.23 5.31 5.31 0 0 0 0.47 1.93 19.1 19.1 0 0 0 1.32 2.3 0.38 0.38 0 0 0 -0.15 0.18L9 20.29a5.27 5.27 0 0 0 -0.28 0.95 1.84 1.84 0 0 0 0 0.81 0.55 0.55 0 0 0 0.28 0.35 1.33 1.33 0 0 0 0.42 0.12 3.31 3.31 0 0 0 0.55 0l0.53 0 3 0a3.52 3.52 0 0 0 0.89 -0.1 1.1 1.1 0 0 0 0.52 -0.38 0.57 0.57 0 0 0 0.1 -0.44 3.69 3.69 0 0 0 -0.2 -0.5l-0.56 -1.4 -0.79 -1.79a0.21 0.21 0 0 0 0 -0.06s0.08 0 0.1 -0.07a12.66 12.66 0 0 0 1.72 -3.08 4.31 4.31 0 0 0 0.06 -2.52 3.52 3.52 0 0 0 -0.27 -0.7Zm-5.81 1.75A2.44 2.44 0 0 1 11.15 11l0.24 -0.06 0 1.11a20.75 20.75 0 0 0 0.13 2.09c0.09 1 0.22 2 0.27 3.06l-0.45 0 -0.57 0.1 0 -0.08a17.55 17.55 0 0 1 -1.19 -2.42 4.37 4.37 0 0 1 -0.32 -1.57Zm4.56 8.17 -0.37 0 -2.1 0c-0.31 0 -0.63 0 -0.95 0.09l-0.82 0a1.7 1.7 0 0 1 0 -0.22 5.17 5.17 0 0 1 0.19 -0.82l0.8 -2.57 0.77 -0.08h1.31a2.77 2.77 0 0 1 0.08 0.33l0.63 1.87Zm0.65 -7a11 11 0 0 1 -1.37 2.83 0.37 0.37 0 0 0 -0.28 -0.13l-0.41 0c0.08 -1.14 0.13 -2.27 0.1 -3.41 0 -0.7 -0.07 -1.39 -0.12 -2.08 0 -0.26 -0.05 -0.53 -0.07 -0.8a2.4 2.4 0 0 1 1.68 0.89 1.78 1.78 0 0 1 0.23 0.33 3.25 3.25 0 0 1 0.18 0.43 3.35 3.35 0 0 1 0.06 1.98Z" fill="#020202" fill-rule="evenodd" stroke-width="1"></path>
    <path d="M13 6.46c0.17 -0.19 0.35 -0.31 0.51 -0.5a1.24 1.24 0 0 0 0.17 -0.23 2 2 0 0 0 0.13 -0.25c0.1 -0.22 0.16 -0.43 0.27 -0.65a0.32 0.32 0 0 0 0 -0.45 0.33 0.33 0 0 0 -0.45 0 4.31 4.31 0 0 0 -0.63 0.52 1.27 1.27 0 0 0 -0.21 0.25 1.4 1.4 0 0 0 -0.15 0.3 3.36 3.36 0 0 0 -0.14 0.78 0.28 0.28 0 0 0 0.15 0.37 0.28 0.28 0 0 0 0.35 -0.14Z" fill="#4C57E6" fill-rule="evenodd" stroke-width="1"></path>
    <path d="M17.13 1.66a0.32 0.32 0 0 0 -0.41 -0.2 3.48 3.48 0 0 0 -0.73 0.07 1.12 1.12 0 0 0 -0.31 0.1 1.67 1.67 0 0 0 -0.28 0.18 3.06 3.06 0 0 0 -0.47 0.62 0.29 0.29 0 0 0 0 0.4 0.28 0.28 0 0 0 0.4 0c0.23 -0.09 0.42 -0.09 0.63 -0.16l0.24 -0.1c0.26 -0.16 0.46 -0.36 0.75 -0.54a0.32 0.32 0 0 0 0.18 -0.37Z" fill="#4C57E6" fill-rule="evenodd" stroke-width="1"></path>
    <path d="M16.2 7.45a3.33 3.33 0 0 0 -0.6 0.16 1.19 1.19 0 0 0 -0.22 0.12 0.77 0.77 0 0 0 -0.18 0.18 2.73 2.73 0 0 0 -0.27 0.54 0.28 0.28 0 1 0 0.37 0.42c0.2 -0.07 0.36 -0.08 0.55 -0.16a0.76 0.76 0 0 0 0.15 -0.12 1.06 1.06 0 0 0 0.15 -0.15c0.13 -0.14 0.2 -0.29 0.33 -0.43a0.32 0.32 0 1 0 -0.32 -0.56Z" fill="#4C57E6" fill-rule="evenodd" stroke-width="1"></path>
    <path d="M20 5.67a4 4 0 0 0 -0.59 -0.09 1.15 1.15 0 0 0 -0.26 0 0.5 0.5 0 0 0 -0.23 0.09 2 2 0 0 0 -0.47 0.41 0.28 0.28 0 0 0 -0.16 0.36 0.28 0.28 0 0 0 0.37 0.16c0.2 0 0.35 0.06 0.55 0.06l0.21 0 0.19 -0.08c0.18 -0.09 0.3 -0.19 0.47 -0.27a0.31 0.31 0 0 0 0.29 -0.31 0.32 0.32 0 0 0 -0.37 -0.33Z" fill="#4C57E6" fill-rule="evenodd" stroke-width="1"></path>
    <path d="M18.91 11.53c-0.22 0 -0.4 -0.08 -0.62 -0.09H18a1.12 1.12 0 0 0 -0.26 0.08 2.35 2.35 0 0 0 -0.56 0.39 0.27 0.27 0 0 0 -0.19 0.35 0.29 0.29 0 0 0 0.35 0.19c0.22 0 0.39 0.07 0.61 0.08l0.24 0a1.13 1.13 0 0 0 0.24 -0.08 4.77 4.77 0 0 0 0.56 -0.27 0.33 0.33 0 0 0 0.27 -0.37 0.33 0.33 0 0 0 -0.35 -0.28Z" fill="#4C57E6" fill-rule="evenodd" stroke-width="1"></path>
    <path d="M23.78 12.43a5 5 0 0 0 -0.59 -0.34l-0.27 -0.09a1.23 1.23 0 0 0 -0.27 0c-0.24 0 -0.42 0.09 -0.65 0.13a0.28 0.28 0 0 0 -0.09 0.56 4 4 0 0 0 0.57 0.33l0.25 0.07H23l0.6 0a0.32 0.32 0 0 0 0.41 -0.2 0.34 0.34 0 0 0 -0.23 -0.46Z" fill="#4C57E6" fill-rule="evenodd" stroke-width="1"></path>
    <path d="M9.05 7.06a0.28 0.28 0 0 0 0.48 -0.3 3.61 3.61 0 0 0 -0.15 -0.65 1 1 0 0 0 -0.14 -0.24 1.62 1.62 0 0 0 -0.18 -0.19 5.82 5.82 0 0 0 -0.53 -0.38 0.32 0.32 0 0 0 -0.5 0.4c0.08 0.2 0.12 0.39 0.21 0.58a1.71 1.71 0 0 0 0.13 0.23 1 1 0 0 0 0.16 0.19c0.17 0.15 0.34 0.22 0.52 0.36Z" fill="#4C57E6" fill-rule="evenodd" stroke-width="1"></path>
    <path d="M5 3.13c0.15 0.09 0.26 0.2 0.41 0.29l0.18 0.1a0.71 0.71 0 0 0 0.2 0 5.06 5.06 0 0 0 0.55 0 0.28 0.28 0 0 0 0.37 -0.15 0.27 0.27 0 0 0 -0.13 -0.37 2.72 2.72 0 0 0 -0.41 -0.42A1.06 1.06 0 0 0 6 2.49a1 1 0 0 0 -0.24 0 2.32 2.32 0 0 0 -0.59 0 0.32 0.32 0 0 0 -0.38 0.25 0.33 0.33 0 0 0 0.21 0.39Z" fill="#4C57E6" fill-rule="evenodd" stroke-width="1"></path>
    <path d="M6.93 9.17A1 1 0 0 0 6.75 9l-0.23 -0.14a4.57 4.57 0 0 0 -0.62 -0.22 0.32 0.32 0 0 0 -0.44 0.08 0.33 0.33 0 0 0 0.08 0.45c0.13 0.16 0.22 0.33 0.35 0.49a1.53 1.53 0 0 0 0.18 0.18 0.7 0.7 0 0 0 0.21 0.14 3.55 3.55 0 0 0 0.63 0.2 0.28 0.28 0 1 0 0.34 -0.45 6.05 6.05 0 0 0 -0.32 -0.56Z" fill="#4C57E6" fill-rule="evenodd" stroke-width="1"></path>
    <path d="M2.94 7.26a1.7 1.7 0 0 0 -0.43 -0.33 0.56 0.56 0 0 0 -0.21 -0.06 0.55 0.55 0 0 0 -0.22 0 2.21 2.21 0 0 0 -0.5 0.15 0.3 0.3 0 0 0 -0.33 0.3 0.32 0.32 0 0 0 0.3 0.34 5.28 5.28 0 0 0 0.6 0.27h0.19a3.5 3.5 0 0 0 0.46 -0.13 0.29 0.29 0 0 0 0.35 -0.2 0.27 0.27 0 0 0 -0.21 -0.34Z" fill="#4C57E6" fill-rule="evenodd" stroke-width="1"></path>
    <path d="M5.6 12.85a0.88 0.88 0 0 0 -0.23 -0.14l-0.25 -0.08c-0.21 0 -0.41 -0.05 -0.63 -0.08a0.32 0.32 0 0 0 -0.26 0.59c0.16 0.15 0.29 0.28 0.47 0.42l0.22 0.13a0.92 0.92 0 0 0 0.23 0.09c0.22 0.05 0.41 0 0.63 0.06a0.28 0.28 0 0 0 0.38 -0.12 0.27 0.27 0 0 0 -0.11 -0.38 3 3 0 0 0 -0.45 -0.49Z" fill="#4C57E6" fill-rule="evenodd" stroke-width="1"></path>
    <path d="M1.66 12.56A1.62 1.62 0 0 0 1 12.5a0.85 0.85 0 0 0 -0.31 0.13c-0.16 0.09 -0.24 0.22 -0.4 0.31a0.31 0.31 0 0 0 -0.25 0.37 0.32 0.32 0 0 0 0.37 0.26 2.34 2.34 0 0 0 0.59 0l0.23 0 0.19 -0.1c0.15 -0.11 0.22 -0.24 0.37 -0.34a0.3 0.3 0 0 0 0.21 -0.34 0.28 0.28 0 0 0 -0.34 -0.23Z" fill="#4C57E6" fill-rule="evenodd" stroke-width="1"></path>
  </g>
</svg>