<svg xmlns="http://www.w3.org/2000/svg" viewBox="0 0 24 24" id="Gardening-Greenhouse-Plant--Streamline-Freehand">
  <desc>
    Gardening Greenhouse Plant Streamline Icon: https://streamlinehq.com
  </desc>
  <g>
    <path d="M23.81 11.46a9.83 9.83 0 0 0 -1.7 -4.55 4.35 4.35 0 0 0 -1.71 -1.34 10 10 0 0 0 -3 -0.69 52.11 52.11 0 0 0 -5.87 -0.37 17.92 17.92 0 0 0 -3.93 0.43 7.38 7.38 0 0 0 -0.82 0 7 7 0 0 0 -4.23 2.14 9.58 9.58 0 0 0 -2.21 4.66 28 28 0 0 0 -0.14 7.63c0.07 0.14 9.15 0.13 9.31 0.12 2.05 0 4.1 -0.13 6.14 -0.22l4.59 -0.27c3.55 -0.23 3.48 -0.18 3.5 -0.48a30.37 30.37 0 0 0 0.07 -7.06ZM11.56 5.27c0.72 0 1.43 0.09 2.15 0.16A5.29 5.29 0 0 1 16 7a6.23 6.23 0 0 1 0.78 1.12 7.81 7.81 0 0 1 0.58 1.28c0.06 0.17 0.11 0.35 0.17 0.53l-1.6 0.05c-0.65 0.05 -1.3 0.14 -2 0.18a9.55 9.55 0 0 1 -1.07 0 10.58 10.58 0 0 0 -0.33 -1.4 6.47 6.47 0 0 0 -1.31 -2.3 4.61 4.61 0 0 0 -1.78 -1.17c0.7 -0.04 1.41 -0.05 2.12 -0.02ZM6.51 18.18c-0.2 0.15 -0.4 0.28 -0.61 0.41l-0.72 0 -0.37 -0.36a4.45 4.45 0 0 1 -1.11 -1.88 0.82 0.82 0 0 1 0.4 -0.93 0.39 0.39 0 0 1 0.57 0.11 2.12 2.12 0 0 1 0.38 1l0.07 0.84 0 0.33a0.38 0.38 0 0 1 0 0.1 0.49 0.49 0 0 0 0.12 0.3s1 0.41 1 -0.34a5.17 5.17 0 0 1 0 -0.68 4.7 4.7 0 0 1 0.13 -0.63 2.58 2.58 0 0 1 0.24 -0.45 1.17 1.17 0 0 1 0.24 -0.33c0.24 -0.21 0.46 -0.23 0.61 -0.09a1.17 1.17 0 0 1 0.31 0.92 1.4 1.4 0 0 1 -0.21 0.59 3.37 3.37 0 0 1 -0.48 0.58 4.69 4.69 0 0 1 -0.57 0.51Zm5.14 0.19a2.88 2.88 0 0 1 -0.68 -0.84 2.8 2.8 0 0 1 -0.38 -1.26 0.7 0.7 0 0 1 0.2 -0.5 0.53 0.53 0 0 1 0.44 -0.17c0.21 0 0.32 0.2 0.42 0.39a2.09 2.09 0 0 1 0.21 0.87v0.24a5.83 5.83 0 0 0 0 0.59l0 0.1v0.07l0 0.12a0.55 0.55 0 0 0 0.27 0.34l0.11 0Zm2 -0.58a4.76 4.76 0 0 1 -0.67 0.43 0.38 0.38 0 0 0 -0.1 0.12h-0.4a0.64 0.64 0 0 0 0.21 -0.14 0.65 0.65 0 0 0 0.13 -0.22 1.05 1.05 0 0 0 0 -0.12 0.66 0.66 0 0 0 0 -0.14v-0.14c0 -0.94 0.1 -1.41 0.47 -1.63a0.67 0.67 0 0 1 0.41 -0.18c0.17 0 0.29 0.13 0.39 0.28a1.18 1.18 0 0 1 0.2 0.67 1.24 1.24 0 0 1 -0.11 0.36 2 2 0 0 1 -0.22 0.37 2.13 2.13 0 0 1 -0.26 0.34Zm-0.81 -0.12a1 1 0 0 1 0 0.17c0.04 0.06 0.04 -0.09 0.05 -0.17Zm5.76 -0.16v0.13l-0.06 0.38v0.23h-0.18l-0.15 -0.12a4 4 0 0 1 -0.69 -0.82 2.1 2.1 0 0 1 -0.35 -0.91 0.6 0.6 0 0 1 0.2 -0.48 0.67 0.67 0 0 1 0.48 -0.19 0.62 0.62 0 0 1 0.63 0.49 3.44 3.44 0 0 1 0.17 1.29Zm2.49 0a0.89 0.89 0 0 1 -0.19 0.31 3.87 3.87 0 0 1 -0.55 0.43h-0.69l0 -0.11 0 -0.58v-0.08a2.47 2.47 0 0 1 0.33 -0.73c0.13 -0.19 0.28 -0.38 0.52 -0.36a0.58 0.58 0 0 1 0.46 0.36 1 1 0 0 1 0.17 0.72Zm2 0.65c-0.54 0 -1.08 0.06 -1.62 0.08a1.76 1.76 0 0 0 0.32 -0.45 1.94 1.94 0 0 0 -0.17 -1.59 1.33 1.33 0 0 0 -1 -0.66 1.37 1.37 0 0 0 -1.1 0.38 1.76 1.76 0 0 0 -0.19 -0.39 1.53 1.53 0 0 0 -1.49 -0.75 1.57 1.57 0 0 0 -1.14 0.56 1.49 1.49 0 0 0 -0.33 1.22 2.58 2.58 0 0 0 0.43 1 4.16 4.16 0 0 0 0.65 0.74h-1.83l-1.46 0a2.32 2.32 0 0 0 0.44 -0.39 3.27 3.27 0 0 0 0.35 -0.48 2.14 2.14 0 0 0 0.21 -0.6 2.08 2.08 0 0 0 -0.37 -1.44 1.29 1.29 0 0 0 -1 -0.56 1.68 1.68 0 0 0 -1.17 0.47l-0.08 0.08 -0.09 -0.14a1.42 1.42 0 0 0 -1.2 -0.62 1.5 1.5 0 0 0 -1.12 0.55 1.59 1.59 0 0 0 -0.33 1.14 3.71 3.71 0 0 0 0.62 1.57 4 4 0 0 0 0.41 0.51l-1.32 0 -2.31 0.1a5 5 0 0 0 0.43 -0.34 4.09 4.09 0 0 0 0.72 -0.83 2.17 2.17 0 0 0 0.28 -0.77 2 2 0 0 0 -0.81 -1.93 1.36 1.36 0 0 0 -1.57 0.22 2.19 2.19 0 0 0 -0.44 0.47 2.13 2.13 0 0 0 -0.6 -0.77 1.28 1.28 0 0 0 -1.6 0 1.64 1.64 0 0 0 -0.68 1.9 5.22 5.22 0 0 0 1.42 2.13l-3.61 0.16c0 -1.68 0 -3.23 0.06 -5a13.62 13.62 0 0 1 0.52 -3 11.17 11.17 0 0 1 2.05 -3.22A5.89 5.89 0 0 1 6.92 6c3 -0.42 4.56 1.36 5.09 3.66a14.44 14.44 0 0 1 0.41 3 0.32 0.32 0 0 0 0.64 0 12.1 12.1 0 0 0 -0.06 -1.87c0.32 0.06 0.65 0.1 1 0.13 0.66 0.06 1.33 0.07 2 0.11s1.23 0 1.84 0a10.78 10.78 0 0 1 0.16 1.72 0.32 0.32 0 0 0 0.3 0.33 0.31 0.31 0 0 0 0.33 -0.3 10.74 10.74 0 0 0 -0.02 -1.78c1.14 -0.07 2.28 -0.21 3.43 -0.29a0.32 0.32 0 0 0 0.32 -0.32A0.33 0.33 0 0 0 22 10c-1.18 0 -2.35 -0.1 -3.54 -0.1a7.45 7.45 0 0 0 -0.17 -0.82 7.25 7.25 0 0 0 -0.6 -1.49 6 6 0 0 0 -1 -1.31 6.53 6.53 0 0 0 -0.7 -0.58l1.26 0.18a9.09 9.09 0 0 1 2.75 0.67 3.46 3.46 0 0 1 1.31 1 9 9 0 0 1 1.64 4.05 29.2 29.2 0 0 1 0.17 6.52Z" fill="#020202" fill-rule="evenodd" stroke-width="1"></path>
    <path d="M5.76 12.32h0.07a6.67 6.67 0 0 0 0.06 0.75 0.32 0.32 0 0 0 0.64 -0.07 5.16 5.16 0 0 1 0.06 -0.79L8 12.08a15.64 15.64 0 0 0 1.55 -0.24 0.32 0.32 0 0 0 0.27 -0.36 0.33 0.33 0 0 0 -0.37 -0.27l-1.12 0H6.84a5.07 5.07 0 0 1 0.34 -0.75 5 5 0 0 1 0.63 -0.89 7.21 7.21 0 0 1 0.8 -0.75 5.5 5.5 0 0 1 2 -1.22c0.25 -0.25 0 -0.52 -0.44 -0.52A5.11 5.11 0 0 0 8 8a5.41 5.41 0 0 0 -1 0.89A4.93 4.93 0 0 0 6.27 10a5 5 0 0 0 -0.35 1.2h-0.25c-0.37 0 -0.88 0 -1.43 0.11 -1 0.09 -1.78 0.29 -2.58 0.38 -0.52 0.13 -0.54 0.37 -0.21 0.5 0.7 0 1.48 0.19 2.37 0.18s1.45 -0.03 1.94 -0.05Z" fill="#4C57E6" fill-rule="evenodd" stroke-width="1"></path>
  </g>
</svg>