<svg xmlns="http://www.w3.org/2000/svg" viewBox="0 0 24 24" id="Gender-Variance-Raindow-Heart-3--Streamline-Freehand">
  <desc>
    Gender Variance Raindow Heart 3 Streamline Icon: https://streamlinehq.com
  </desc>
  <title>gender-variance-raindow-heart-3</title>
  <g>
    <path d="M15.07 7.31q-1.8 0 -3.6 0.06c-0.87 0 -1.75 0.09 -2.62 0.16 -2 0.17 -4 0.41 -6.06 0.55 -0.55 0 -0.7 0.06 -1.24 0.08 -0.37 0.06 -0.4 0.53 0 0.64l3.44 0c1.28 0 2.61 -0.07 3.92 -0.12 0.87 0 1.73 -0.09 2.6 -0.12l10.85 -0.37c0.45 0 0.48 -0.78 0 -0.73 -2.58 -0.04 -4.72 -0.14 -7.29 -0.15Z" fill="#4C57E6" fill-rule="evenodd" stroke-width="1"></path>
    <path d="M14.52 14.87c-0.71 0 -1.42 0.06 -2.13 0.1s-1.42 0.11 -2.12 0.18c-1.49 0.16 -2.26 0.3 -3.75 0.47 -0.49 0.06 -0.6 0.53 -0.1 0.72 1.54 0 3.09 0 4.64 -0.11 1.13 -0.06 2.25 -0.15 3.38 -0.25s2 -0.21 3.25 -0.3c0.82 -0.15 0.75 -0.84 0 -0.86 -1.41 -0.03 -1.69 0.01 -3.17 0.05Z" fill="#4C57E6" fill-rule="evenodd" stroke-width="1"></path>
    <path d="M23 4a5.3 5.3 0 0 0 -4.88 -2.89 7.16 7.16 0 0 0 -3.08 1 15.6 15.6 0 0 0 -3.1 2.49 12.88 12.88 0 0 0 -2.06 -2 6.55 6.55 0 0 0 -2.22 -1.17 5.54 5.54 0 0 0 -5.48 1.68A7.75 7.75 0 0 0 0 8.36a8.39 8.39 0 0 0 2.31 5.21c2.74 3.3 7.26 6.35 8.9 9.11a0.31 0.31 0 0 0 0.24 0.18 0.28 0.28 0 0 0 0.26 -0.13c2.42 -3 6.36 -5.41 9.1 -8.46a13.07 13.07 0 0 0 2.9 -4.67A7.1 7.1 0 0 0 23 4Zm-0.24 5.3a12.24 12.24 0 0 1 -2.58 4.4C17.67 16.58 14 19 11.49 22 9.78 19.35 5.12 15.71 3 13c-4 -5 -0.6 -8.56 0 -9.14a4.45 4.45 0 0 1 4.4 -1.33 5.24 5.24 0 0 1 1.82 0.93c0.34 0.26 2.23 2.33 2.24 2.36a0.6 0.6 0 0 0 0.43 0.22 0.58 0.58 0 0 0 0.45 -0.17 14.6 14.6 0 0 1 3.33 -2.77 6.1 6.1 0 0 1 2.59 -0.85c3.43 -0.25 5.33 4.36 4.5 7.05Z" fill="#020202" fill-rule="evenodd" stroke-width="1"></path>
    <path d="M19 5c1 0 1.47 -0.16 2.48 -0.17 0.66 0 0.37 -0.67 -0.24 -0.77 -0.83 -0.1 -1.31 -0.14 -2.16 -0.17l-1.43 0c-0.48 0 -0.95 0 -1.43 0.07s-0.9 0.09 -1.52 0.17 -1.05 0.8 -0.73 0.84c1 0.06 1.73 0.11 2.77 0.11 0.72 0.01 1.48 -0.03 2.26 -0.08Z" fill="#4C57E6" fill-rule="evenodd" stroke-width="1"></path>
    <path d="M6.37 4.05c-0.49 0 -1 0 -1.47 0.06 -0.67 0 -1.15 0.1 -1.81 0.18s-0.86 0.81 -0.53 0.81c0.87 0 1.49 0.1 2.37 0.12l1.46 0c0.46 0 1 0 1.47 -0.06 0.84 0 1.12 -0.08 2 -0.15s0.08 -0.92 -0.53 -0.89l-1.49 -0.06c-0.49 -0.01 -0.98 -0.06 -1.47 -0.01Z" fill="#4C57E6" fill-rule="evenodd" stroke-width="1"></path>
    <path d="M12.07 18.71a8.69 8.69 0 0 0 -0.88 0.07c-0.63 0.08 -0.62 0.07 -1.25 0.18s-0.62 0.76 0.27 0.85a8.76 8.76 0 0 0 1 0.08l0.89 0a7.47 7.47 0 0 0 0.78 -0.05c0.6 -0.1 1 -1.06 0.27 -1 -0.51 -0.03 -0.79 -0.15 -1.08 -0.13Z" fill="#4C57E6" fill-rule="evenodd" stroke-width="1"></path>
    <path d="M15.22 11c-1.76 0.11 -3.52 0.19 -5.28 0.33 -2.48 0.2 -4.38 0.32 -6.86 0.54 -0.52 0.11 -0.32 0.76 0.1 0.75 2.36 0 4.48 0 6.84 -0.15 1.75 -0.09 3.51 -0.24 5.27 -0.35s3.56 -0.44 5.35 -0.56l0.69 0c0.3 0 0.66 -0.69 0.21 -0.77a16.27 16.27 0 0 0 -1.71 0c-1.54 0.03 -3.08 0.21 -4.61 0.21Z" fill="#4C57E6" fill-rule="evenodd" stroke-width="1"></path>
  </g>
</svg>