<svg xmlns="http://www.w3.org/2000/svg" viewBox="0 0 24 24" id="Gender-Variance-Bigender-World--Streamline-Freehand">
  <desc>
    Gender Variance Bigender World Streamline Icon: https://streamlinehq.com
  </desc>
  <title>gender-variance-bigender-world</title>
  <g>
    <path d="M20.18 2.16a0.36 0.36 0 0 0 -0.47 0.13 0.34 0.34 0 0 0 0.13 0.47c2.55 1.52 3.3 4.27 2.88 7a10.27 10.27 0 0 1 -4.06 6.77 6.22 6.22 0 0 1 -4.36 0.92 10.3 10.3 0 0 1 -4.3 -1.67C6.44 13.5 5.89 9.49 7.19 6.2A8.08 8.08 0 0 1 15.86 0.82a7.57 7.57 0 0 1 1.69 0.47 9 9 0 0 1 1.57 0.81 0.31 0.31 0 0 0 0.34 -0.51 9.51 9.51 0 0 0 -1.66 -0.9A7.87 7.87 0 0 0 16 0.14c-4.53 -0.8 -8.19 2 -9.72 5.67a8.84 8.84 0 0 0 1.62 9.75c-0.58 0.5 -1.16 1 -1.73 1.54l-0.2 -0.19c-0.81 -0.67 -1.68 -1.26 -2.55 -1.85a0.3 0.3 0 1 0 -0.38 0.46c0.65 0.65 1.24 1.32 1.89 2l0.4 0.38c-0.36 0.35 -0.72 0.7 -1.07 1.06s-0.76 0.82 -1.14 1.23C2.54 20.77 2 21.38 1.47 22l0 -0.85c-0.13 -1.75 -0.32 -3.5 -0.47 -5.25a0.29 0.29 0 0 0 -0.31 -0.29 0.32 0.32 0 0 0 -0.3 0.31l0 5.28 0 2.24a0.62 0.62 0 0 0 0.2 0.43A0.63 0.63 0 0 0 1 24l8.05 -0.87a0.35 0.35 0 0 0 0.32 -0.37 0.36 0.36 0 0 0 -0.37 -0.32c-1.89 0.06 -3.79 0.09 -5.68 0.2l-1.46 0.11c0.67 -0.6 1.34 -1.2 2 -1.83 0.41 -0.39 0.81 -0.78 1.2 -1.18s0.71 -0.75 1.06 -1.13c0.17 0.15 0.34 0.3 0.52 0.44 0.72 0.58 1.46 1.11 2.22 1.64a0.34 0.34 0 0 0 0.48 -0.05 0.35 0.35 0 0 0 0 -0.48c-0.68 -0.65 -1.32 -1.33 -2 -2 -0.14 -0.14 -0.3 -0.27 -0.45 -0.41L8.38 16a10.17 10.17 0 0 0 0.94 0.73 11.56 11.56 0 0 0 4.85 1.81 7.27 7.27 0 0 0 5.09 -1.19 11.32 11.32 0 0 0 4.32 -7.52c0.42 -3 -0.51 -6.03 -3.4 -7.67Z" fill="#020202" fill-rule="evenodd" stroke-width="1"></path>
    <path d="M12.51 10.33c-0.06 -0.49 -1 -0.47 -1.09 0.11a4.28 4.28 0 0 0 0.11 1 9.86 9.86 0 0 0 1.18 3c0.43 0.62 1 0.35 1 0.12a19.3 19.3 0 0 1 -1.09 -3.25 6 6 0 0 1 -0.11 -0.98Z" fill="#020202" fill-rule="evenodd" stroke-width="1"></path>
    <path d="M21.18 7.31A4.89 4.89 0 0 0 19.87 5a8.21 8.21 0 0 0 -3.25 -2 0.36 0.36 0 0 0 -0.44 0.22 0.34 0.34 0 0 0 0.22 0.43 7.85 7.85 0 0 1 2.48 1.48 4.38 4.38 0 0 1 1.44 2.33 7 7 0 0 1 -1.55 5.42 5.77 5.77 0 0 1 -4.22 2.18 4.74 4.74 0 0 1 -2.78 -0.87 8.78 8.78 0 0 1 -1.38 -1.41 4.72 4.72 0 0 1 -0.72 -1.6 6.09 6.09 0 0 1 4 -7.53 10.44 10.44 0 0 1 2.05 -0.35c0.1 0 0.16 -0.2 0.11 -0.3a0.28 0.28 0 0 0 -0.27 -0.15s-0.05 0 -0.08 0A6.46 6.46 0 0 0 9.91 5.4a6.9 6.9 0 0 0 -1.27 6.11 5.52 5.52 0 0 0 1 1.92 8.16 8.16 0 0 0 1.55 1.45 6.41 6.41 0 0 0 1.19 0.7 6.52 6.52 0 0 0 1.33 0.45 6 6 0 0 0 5.82 -2.6 7.82 7.82 0 0 0 1.65 -6.12Z" fill="#020202" fill-rule="evenodd" stroke-width="1"></path>
    <path d="M13.2 9.83c0.58 0 1.17 0 1.76 -0.09 1.42 -0.11 2.4 -0.13 4.9 -0.37 0.61 -0.17 0.35 -0.67 -0.16 -0.73 -0.9 0 -5 0 -5.87 0.09 -0.37 0 -3.26 0.26 -3.89 0.34s-0.39 0.68 -0.06 0.68Z" fill="#4C57E6" fill-rule="evenodd" stroke-width="1"></path>
    <path d="M17.55 10.28c-0.1 -0.81 -1.13 -0.69 -1.06 -0.16a4.35 4.35 0 0 1 0 0.51 8.56 8.56 0 0 1 -0.75 3.84c-0.09 0.34 0.61 0.32 0.92 -0.19a9.27 9.27 0 0 0 0.89 -2.92 4.87 4.87 0 0 0 0 -1.08Z" fill="#020202" fill-rule="evenodd" stroke-width="1"></path>
    <path d="M16.31 7.65c0 0.28 0 0.34 0.05 0.62s1 0.34 1.14 -0.14a6.66 6.66 0 0 0 -0.11 -0.78 17.08 17.08 0 0 0 -1.19 -3.62c-0.31 -0.31 -0.78 -0.26 -0.71 0.13a17.6 17.6 0 0 1 0.82 3.79Z" fill="#020202" fill-rule="evenodd" stroke-width="1"></path>
    <path d="M14.27 4c0.06 -0.3 -0.53 -0.33 -0.88 0.08a8.57 8.57 0 0 0 -1.62 3.13 5 5 0 0 0 -0.22 1.21c-0.06 0.4 0.54 0.51 1.06 0.15a9.87 9.87 0 0 1 0.23 -1.08A7.36 7.36 0 0 1 14.27 4Z" fill="#020202" fill-rule="evenodd" stroke-width="1"></path>
  </g>
</svg>