<svg xmlns="http://www.w3.org/2000/svg" viewBox="0 0 24 24" id="Gender-Variance-Raindow-Heart-4--Streamline-Freehand">
  <desc>
    Gender Variance Raindow Heart 4 Streamline Icon: https://streamlinehq.com
  </desc>
  <title>gender-variance-raindow-heart-4</title>
  <g>
    <path d="M15.5 7.35c-1.07 0 -2.18 -0.08 -3.35 -0.1l-2.18 0c-2.82 0.06 -5.63 0.26 -8.45 0.24 -0.34 0.12 -0.43 0.54 0.05 0.64 1.4 0.1 2.65 0.14 4.05 0.18 1.09 0 2.18 0.06 3.27 0.07s2.16 0 3.25 0l10.33 0.09c0.51 0 0.34 -0.68 -0.24 -0.76 -2.57 -0.11 -4.34 -0.26 -6.73 -0.36Z" fill="#4C57E6" fill-rule="evenodd" stroke-width="1"></path>
    <path d="m11.67 16.16 -1.72 0c-1 0 -1.68 0.15 -2.81 0.26 -0.44 0.14 -0.31 0.5 0.13 0.73l2.69 0.12 1.69 0h1.7l2.67 0c0.68 -0.19 0.68 -0.79 0.25 -0.86 -1.29 -0.11 -1.75 -0.16 -2.9 -0.22 -0.57 0 -1.14 -0.03 -1.7 -0.03Z" fill="#4C57E6" fill-rule="evenodd" stroke-width="1"></path>
    <path d="M23 4a5.3 5.3 0 0 0 -4.88 -2.89 7.16 7.16 0 0 0 -3.08 1 15.6 15.6 0 0 0 -3.1 2.49 12.88 12.88 0 0 0 -2.06 -2 6.55 6.55 0 0 0 -2.22 -1.17 5.54 5.54 0 0 0 -5.48 1.68A7.75 7.75 0 0 0 0 8.36a8.39 8.39 0 0 0 2.31 5.21c2.74 3.3 7.26 6.35 8.9 9.11a0.31 0.31 0 0 0 0.24 0.18 0.28 0.28 0 0 0 0.26 -0.13c2.46 -3 6.35 -5.4 9.1 -8.46a13.07 13.07 0 0 0 2.9 -4.67A7.1 7.1 0 0 0 23 4Zm-0.24 5.3a11.85 11.85 0 0 1 -2.58 4.4c-2.4 2.76 -6.31 5.42 -8.69 8.27C9.72 19.27 5.5 16.19 3 13 0.92 10.42 1 8.85 1 8.37a6.81 6.81 0 0 1 2 -4.49 4.45 4.45 0 0 1 4.4 -1.33 5.24 5.24 0 0 1 1.82 0.93 12.55 12.55 0 0 1 2.24 2.36 0.6 0.6 0 0 0 0.43 0.22 0.58 0.58 0 0 0 0.45 -0.17 16.19 16.19 0 0 1 3.33 -2.77 6.1 6.1 0 0 1 2.59 -0.85 4.22 4.22 0 0 1 3.86 2.29 6.21 6.21 0 0 1 0.64 4.74Z" fill="#020202" fill-rule="evenodd" stroke-width="1"></path>
    <path d="m15.09 11.67 -5.29 0c-2.44 0.06 -4.21 0.22 -6.65 0.32 -0.52 0 -0.3 0.64 0.17 0.72 2.27 0.08 4.23 0.1 6.5 0.11 1.76 0 3.52 -0.07 5.28 -0.1 1.56 -0.06 2.56 -0.15 3.82 -0.21a15.34 15.34 0 0 1 1.55 0c0.65 -0.09 0.67 -0.78 0 -0.8a7.35 7.35 0 0 0 -1.38 0c-1.27 -0.08 -2.45 -0.01 -4 -0.04Z" fill="#4C57E6" fill-rule="evenodd" stroke-width="1"></path>
  </g>
</svg>