<svg xmlns="http://www.w3.org/2000/svg" viewBox="0 0 24 24" id="Gender-Variance-Bigender-Heart--Streamline-Freehand">
  <desc>
    Gender Variance Bigender Heart Streamline Icon: https://streamlinehq.com
  </desc>
  <title>gender-variance-bigender-heart</title>
  <g>
    <path d="M9.88 14.28a13.88 13.88 0 0 0 1.24 -0.8c0.4 -0.28 0.78 -0.57 1.16 -0.87a5.93 5.93 0 0 0 1.28 -1.27 3.33 3.33 0 0 0 0.5 -1.21 3.35 3.35 0 0 0 -0.4 -2.2 2.58 2.58 0 0 0 -1.92 -1.34 2.54 2.54 0 0 0 -1.12 0.15 3.36 3.36 0 0 0 -0.89 0.49 3 3 0 0 0 -2.55 -0.35 2.43 2.43 0 0 0 -1.76 2.48 4.07 4.07 0 0 0 1.16 2.48 15.76 15.76 0 0 0 3 2.39 0.29 0.29 0 0 0 0.3 0.05Zm-2.65 -3a3.16 3.16 0 0 1 -0.8 -2A1.44 1.44 0 0 1 7.52 8a1.8 1.8 0 0 1 1.79 0.43 0.6 0.6 0 0 0 0.43 0.18 0.57 0.57 0 0 0 0.42 -0.17 2.69 2.69 0 0 1 0.71 -0.51 1.5 1.5 0 0 1 0.74 -0.16 1.46 1.46 0 0 1 1.12 0.75 2.27 2.27 0 0 1 0.35 1.48 2.23 2.23 0 0 1 -0.43 1 5.7 5.7 0 0 1 -0.9 0.94l-1.08 0.9c-0.32 0.24 -0.64 0.48 -1 0.7a13.61 13.61 0 0 1 -2.44 -2.24Z" fill="#4C57E6" fill-rule="evenodd" stroke-width="1"></path>
    <path d="M21.48 4.12c-0.06 -0.64 -0.1 -1.27 -0.15 -1.91 0 -0.43 -0.08 -0.85 -0.11 -1.27a0.6 0.6 0 0 0 -0.55 -0.54L15 0a0.35 0.35 0 0 0 -0.39 0.31 0.35 0.35 0 0 0 0.3 0.39c1.32 0.22 2.63 0.5 3.95 0.69l0.65 0.08c-0.33 0.27 -0.66 0.54 -1 0.83s-0.8 0.7 -1.17 1.08c-0.6 0.63 -1.13 1.32 -1.68 2a7.29 7.29 0 0 0 -3.91 -2 0.37 0.37 0 0 0 -0.42 0.28 0.36 0.36 0 0 0 0.28 0.41 6.26 6.26 0 0 1 5.11 6.5c-0.15 2.65 -2 5.19 -5.79 5.76a6.93 6.93 0 0 1 -1.5 0.1A7.26 7.26 0 0 1 8 16.16a9.32 9.32 0 0 1 -1.37 -0.48 5.5 5.5 0 0 1 -1.2 -0.68 5.66 5.66 0 0 1 -1.58 -7 7 7 0 0 1 6.22 -4.27 0.32 0.32 0 0 0 0.32 -0.3 0.31 0.31 0 0 0 -0.31 -0.31A7.74 7.74 0 0 0 3 7.6a6.66 6.66 0 0 0 1.66 8.24 6.24 6.24 0 0 0 1.44 0.9 9.74 9.74 0 0 0 1.56 0.56 7.77 7.77 0 0 0 1.72 0.25h0.11c-0.09 0.57 -0.18 1.15 -0.24 1.73l0 0.43h-0.56c-0.87 0 -1.74 0.07 -2.61 0.05a0.35 0.35 0 0 0 -0.38 0.31 0.35 0.35 0 0 0 0.31 0.39c0.86 0.15 1.71 0.29 2.58 0.36l0.66 0 0 0.45c0 0.8 0.14 1.58 0.23 2.36a0.35 0.35 0 1 0 0.7 0c0 -0.78 0.12 -1.55 0.17 -2.33l0 -0.45h0.42c0.86 -0.06 1.71 -0.19 2.56 -0.29a0.33 0.33 0 0 0 0.31 -0.32 0.32 0.32 0 0 0 -0.32 -0.3c-1 -0.07 -1.94 -0.19 -2.92 -0.23l0 -0.4c0 -0.6 -0.08 -1.18 -0.12 -1.77a8.2 8.2 0 0 0 0.85 -0.1c4.38 -0.76 6.48 -3.8 6.57 -6.88a7.13 7.13 0 0 0 -1.6 -4.72c0.6 -0.48 1.22 -0.91 1.81 -1.4 0.25 -0.22 0.5 -0.44 0.74 -0.67s0.47 -0.47 0.7 -0.72 0.56 -0.65 0.84 -1c0 0.38 0.1 0.76 0.17 1.13 0.21 1.08 0.49 2.13 0.75 3.17a0.31 0.31 0 0 0 0.61 -0.11c-0.09 -0.69 -0.17 -1.4 -0.24 -2.12Z" fill="#020202" fill-rule="evenodd" stroke-width="1"></path>
  </g>
</svg>