<svg xmlns="http://www.w3.org/2000/svg" viewBox="0 0 24 24" id="Gender-Variance-Gift-Rainbow--Streamline-Freehand">
  <desc>
    Gender Variance Gift Rainbow Streamline Icon: https://streamlinehq.com
  </desc>
  <title>gender-variance-gift-rainbow</title>
  <g>
    <path d="M20.19 17.61a7.54 7.54 0 0 0 -6.19 -2 7.88 7.88 0 0 0 -1.34 0.31 9.11 9.11 0 0 0 -1.24 0.54 8.55 8.55 0 0 0 -1.28 0.88 9.27 9.27 0 0 0 -1.08 1.09 8.7 8.7 0 0 0 -1.36 2.44 11.11 11.11 0 0 0 -0.59 2.5 0.27 0.27 0 0 0 -0.07 0.21 0.33 0.33 0 0 0 0.35 0.33l4.91 0.09a0.73 0.73 0 0 0 0.55 -0.31 4.7 4.7 0 0 1 1 -1.13 2.23 2.23 0 0 1 1.34 -0.43 1.62 1.62 0 0 1 1.19 0.35 3.68 3.68 0 0 1 0.79 1.23 0.5 0.5 0 0 0 0.47 0.32c1 0 2 0 3 -0.08 0.63 0 1.26 -0.08 1.89 -0.17a0.33 0.33 0 0 0 0.17 0 0.35 0.35 0 0 0 0.3 -0.39 9.27 9.27 0 0 0 -2.81 -5.78Zm-3.07 4a2.69 2.69 0 0 0 -2 -0.67 3.3 3.3 0 0 0 -2 0.71 5.64 5.64 0 0 0 -0.87 1.3h-0.09l-1.82 0.1a4.76 4.76 0 0 1 0.33 -0.86 5.23 5.23 0 0 1 0.64 -1 6.21 6.21 0 0 1 0.75 -0.79 4.88 4.88 0 0 1 0.88 -0.6 4.55 4.55 0 0 1 0.64 -0.27 5.2 5.2 0 0 1 0.68 -0.17 4.51 4.51 0 0 1 3.63 0.77 5 5 0 0 1 2 3L18 23a4.17 4.17 0 0 0 -0.88 -1.4Zm3.51 1.55h-0.05a5.76 5.76 0 0 0 -2.09 -3.82A5.46 5.46 0 0 0 14 18.23a4.89 4.89 0 0 0 -0.85 0.25 5.43 5.43 0 0 0 -0.8 0.4 5.79 5.79 0 0 0 -1.77 1.83A5.58 5.58 0 0 0 10 21.9a6 6 0 0 0 -0.33 1.19l-1.88 0.11a10.56 10.56 0 0 1 0.63 -2.05 7.7 7.7 0 0 1 1.37 -2.09 7.14 7.14 0 0 1 1 -0.9 6.74 6.74 0 0 1 1.15 -0.69A7.31 7.31 0 0 1 13 17a6.35 6.35 0 0 1 1.13 -0.25 6.58 6.58 0 0 1 5.37 1.58 8.5 8.5 0 0 1 2.72 4.78c-0.52 0.05 -1.05 0.05 -1.59 0.04Z" fill="#020202" fill-rule="evenodd" stroke-width="1"></path>
    <path d="M11.76 11.84c0.11 1.08 0.27 2.14 0.37 3.22a0.35 0.35 0 0 0 0.7 0c0 -1.06 0.06 -2.12 0 -3.19 0 -0.44 0 -0.89 -0.06 -1.33 -0.05 -1.11 -1.22 -1.11 -1.16 0.05 0.07 0.41 0.11 0.82 0.15 1.25Z" fill="#4C57E6" fill-rule="evenodd" stroke-width="1"></path>
    <path d="M18.68 6.3a1.82 1.82 0 0 0 -0.79 -1.3 6.74 6.74 0 0 0 -2.19 -0.41 2.43 2.43 0 0 0 0.71 -1.13A2.54 2.54 0 0 0 16 1.13a2.32 2.32 0 0 0 -2.32 -0.82A4 4 0 0 0 13 0.5a3.87 3.87 0 0 0 -0.65 0.31 5.68 5.68 0 0 0 -0.8 0.59 6.78 6.78 0 0 0 -0.69 0.73 6.44 6.44 0 0 0 -0.61 1 7.52 7.52 0 0 0 -0.4 -0.92A5.47 5.47 0 0 0 8.65 0.66 3 3 0 0 0 6.59 0a2.45 2.45 0 0 0 -1.91 1 1.74 1.74 0 0 0 -0.23 1.32 3.63 3.63 0 0 0 0.77 1.53 3.55 3.55 0 0 0 0.67 0.62l-0.51 0a8.12 8.12 0 0 0 -2.07 0.11 2.62 2.62 0 0 0 -1.41 0.79 3.85 3.85 0 0 0 -0.7 1.7A11 11 0 0 0 1 9.54a0.54 0.54 0 0 0 0.19 0.39 0.53 0.53 0 0 0 0.41 0.15l0.83 -0.08c-0.12 1.68 -0.27 3.08 -0.34 4.5l0 2.08a6.08 6.08 0 0 0 0.42 2.15 2.82 2.82 0 0 0 1 1.23 3.15 3.15 0 0 0 1 0.4 6 6 0 0 0 1.43 0.15 0.3 0.3 0 0 0 0.32 -0.28 0.3 0.3 0 0 0 -0.29 -0.32 7 7 0 0 1 -1 -0.21 2.45 2.45 0 0 1 -0.97 -0.42 2 2 0 0 1 -0.55 -0.91 5.49 5.49 0 0 1 -0.21 -1.78L3.15 10c4.26 -0.2 13.58 -0.58 13.68 -0.58 -0.07 0.61 -0.15 1.22 -0.17 1.84 0 0.45 0 0.9 0.05 1.34 0.06 0.67 0.16 1.33 0.21 2a0.35 0.35 0 1 0 0.69 0c0.09 -0.66 0.17 -1.31 0.21 -2l0 -0.85c0 -0.29 0 -0.56 -0.05 -0.84 -0.06 -0.51 -0.15 -1 -0.23 -1.51h0.5l0.13 0a0.32 0.32 0 0 0 0.24 0.17 0.32 0.32 0 0 0 0.34 -0.28 10.3 10.3 0 0 0 -0.07 -2.99Zm-7.53 -2.41a5.62 5.62 0 0 1 0.6 -1.1 4.86 4.86 0 0 1 0.52 -0.6 4.19 4.19 0 0 1 0.63 -0.5 3.21 3.21 0 0 1 1 -0.42 1.42 1.42 0 0 1 1.43 0.43 1.74 1.74 0 0 1 0.33 1.57 1.78 1.78 0 0 1 -0.6 0.93 2.2 2.2 0 0 1 -0.55 0.34l-0.45 0 -3.1 0c0.04 -0.25 0.11 -0.46 0.19 -0.65Zm-5.27 -0.54a2.8 2.8 0 0 1 -0.46 -1 0.88 0.88 0 0 1 0.07 -0.78 1.42 1.42 0 0 1 1.15 -0.53 1.87 1.87 0 0 1 1.26 0.43A4.61 4.61 0 0 1 9 3.1a9.84 9.84 0 0 1 0.46 1.39l-1.71 0a4 4 0 0 1 -0.49 -0.15 3 3 0 0 1 -1.38 -0.99Zm12.3 5.39h-0.07c-0.3 0 -0.61 0 -0.91 -0.05a137.9 137.9 0 0 0 -15 0.23 10.55 10.55 0 0 1 0.19 -1.59 2.52 2.52 0 0 1 0.42 -1.15 1.46 1.46 0 0 1 0.81 -0.43 6.66 6.66 0 0 1 1.77 -0.09c1.48 0 5.69 -0.23 8.68 -0.24a11.83 11.83 0 0 1 3.51 0.27c0.32 0.16 0.45 0.64 0.54 1.16a9.69 9.69 0 0 1 0.06 1.89Z" fill="#020202" fill-rule="evenodd" stroke-width="1"></path>
    <path d="M7.78 12.83c0.1 1.39 0.26 2.77 0.36 4.15a0.33 0.33 0 0 0 0.35 0.34 0.34 0.34 0 0 0 0.34 -0.32c0 -1.36 0.07 -2.71 0.05 -4.08l0 -1.74 0 -0.92c-0.07 -0.56 -1 -0.49 -1.1 0.18 -0.04 0.86 -0.07 1.5 0 2.39Z" fill="#4C57E6" fill-rule="evenodd" stroke-width="1"></path>
    <path d="M12.3 5.93c-0.1 -0.5 -0.58 -0.5 -0.72 -0.11 -0.05 0.92 0 1.33 0 2.24 0.08 0.42 0.78 0.54 0.9 0 -0.1 -0.54 -0.08 -1.25 -0.18 -2.13Z" fill="#4C57E6" fill-rule="evenodd" stroke-width="1"></path>
    <path d="m7.71 6.18 0 1.75c0 0.55 0.86 0.58 0.94 0.19 -0.09 -0.88 -0.11 -1.38 -0.21 -2.26 -0.02 -0.28 -0.7 -0.26 -0.73 0.32Z" fill="#4C57E6" fill-rule="evenodd" stroke-width="1"></path>
  </g>
</svg>