<svg xmlns="http://www.w3.org/2000/svg" viewBox="0 0 24 24" id="Gender-Variance-2--Streamline-Freehand">
  <desc>
    Gender Variance 2 Streamline Icon: https://streamlinehq.com
  </desc>
  <title>gender-variance-2</title>
  <g>
    <path d="M17.45 7.52a18 18 0 0 1 -2.32 -0.68 11.08 11.08 0 0 0 -2.56 -0.56 3.86 3.86 0 0 0 -1.73 0.23c-0.3 0.08 -0.19 0.69 0 0.6a3.17 3.17 0 0 1 1.59 0 12.59 12.59 0 0 1 2.29 0.77 14.66 14.66 0 0 0 2.49 0.78 7.3 7.3 0 0 0 2.64 -0.11 13.31 13.31 0 0 0 2.68 -1c0.38 -0.28 0.2 -0.88 -0.1 -0.74a12.86 12.86 0 0 1 -2.2 0.63 6.53 6.53 0 0 1 -2.78 0.08Z" fill="#4C57E6" fill-rule="evenodd" stroke-width="1"></path>
    <path d="M20.38 4.75a5.27 5.27 0 0 1 -1.72 0.08 4.23 4.23 0 0 1 -1.08 -0.32 18.18 18.18 0 0 0 -2.83 -1.19 5.67 5.67 0 0 0 -2 0 8 8 0 0 0 -1.69 0.46c-0.63 0.25 -0.46 0.79 -0.17 0.7a10.42 10.42 0 0 1 1.94 -0.27 5 5 0 0 1 1.63 0.19 24.59 24.59 0 0 1 2.66 1.21 4.56 4.56 0 0 0 1.4 0.34 6 6 0 0 0 2.05 -0.27c0.65 -0.18 1.29 -0.43 1.92 -0.67 0.31 -0.15 0.14 -0.92 -0.19 -0.76 -0.66 0.17 -1.2 0.36 -1.92 0.5Z" fill="#4C57E6" fill-rule="evenodd" stroke-width="1"></path>
    <path d="M24 1.15a0.6 0.6 0 0 0 -0.17 -0.46 0.59 0.59 0 0 0 -0.47 -0.16c-0.38 0.06 -0.77 0.12 -1.15 0.2a7.87 7.87 0 0 0 -1.14 0.35c-0.54 0.2 -1.09 0.46 -1.66 0.62a3.28 3.28 0 0 1 -1 0.13 2.33 2.33 0 0 1 -0.88 -0.28A16 16 0 0 0 15.19 0.27 5.11 5.11 0 0 0 13 0.12a19.8 19.8 0 0 0 -3.1 0.79 0.31 0.31 0 0 0 -0.21 0.38s0 0.05 0.06 0.08c-0.06 0.81 -0.21 2.53 -0.32 4.5 0 0.65 -0.05 1.33 -0.06 2s0 1.35 0 2l0 2.08c-0.51 0.08 -0.89 0.17 -1 0.18a4.19 4.19 0 0 0 -1.18 0.48 4 4 0 0 0 -1 0.79 13.62 13.62 0 0 0 -0.94 1.72 1.38 1.38 0 0 1 -0.44 0.46 1.42 1.42 0 0 1 -0.58 0.19 8.17 8.17 0 0 1 -1.1 0l-1.34 0c-0.44 0 -0.89 0.06 -1.34 0.1a0.3 0.3 0 0 0 -0.28 0.32 0.3 0.3 0 0 0 0.32 0.28l1.32 -0.05 1.31 0a7.9 7.9 0 0 0 1.2 0 2.15 2.15 0 0 0 0.88 -0.26 2.21 2.21 0 0 0 0.8 -0.6A11.9 11.9 0 0 1 6.88 14a2.87 2.87 0 0 1 0.79 -0.57 3 3 0 0 1 0.9 -0.34c0.06 0 0.4 -0.08 0.83 -0.13 0 0.68 0 1.23 0.06 1.56a0.26 0.26 0 0 0 0 0.19c0 0.21 0.1 0.35 1.16 0.46a2 2 0 0 0 0.34 0 1.26 1.26 0 0 0 0.33 -0.05l0.37 -0.1a0.67 0.67 0 0 0 0.34 0.1 4.56 4.56 0 0 1 2.22 0.31 0.37 0.37 0 0 1 0.2 0.19c0 0.13 0 0.28 -0.15 0.49l-0.33 0.39a0.55 0.55 0 0 0 -0.18 0.45 0.59 0.59 0 0 0 0.22 0.44 0.71 0.71 0 0 1 0.32 0.66 1 1 0 0 1 -0.55 0.67 0.59 0.59 0 0 0 -0.26 0.63 0.9 0.9 0 0 1 0 0.63 0.61 0.61 0 0 1 -0.45 0.31 0.58 0.58 0 0 0 -0.36 0.27 0.54 0.54 0 0 0 0 0.45 1.55 1.55 0 0 1 0.06 0.9 0.76 0.76 0 0 1 -0.48 0.54 9.05 9.05 0 0 1 -3.5 0.55C6 23 3.13 22.17 0.35 22.19a0.35 0.35 0 1 0 0 0.69c2.79 0.06 5.64 0.95 8.4 1.05a10.22 10.22 0 0 0 3.76 -0.51 1.75 1.75 0 0 0 1 -0.9 2.32 2.32 0 0 0 0.2 -1.34 1.62 1.62 0 0 0 0.69 -0.68 1.86 1.86 0 0 0 0.2 -1 2 2 0 0 0 0.78 -1.24 1.75 1.75 0 0 0 -0.33 -1.35l0.15 -0.18a1.71 1.71 0 0 0 0.26 -1.48 1.55 1.55 0 0 0 -0.73 -0.81 4.78 4.78 0 0 0 -2 -0.44 1.51 1.51 0 0 0 -0.59 -1.69 3 3 0 0 0 -1.63 -0.42h-0.26c0 -0.58 0.06 -1.2 0.1 -1.85A4 4 0 0 1 12 9.83a6 6 0 0 1 1.89 0.52c0.73 0.34 1.41 0.78 2.15 1.07a4.79 4.79 0 0 0 1.08 0.3 6 6 0 0 0 2 0c1.44 -0.23 2.76 -0.87 4.26 -1a0.57 0.57 0 0 0 0.49 -0.56c0 -2.08 -0.1 -4.19 -0.06 -6.29 0.07 -0.96 0.11 -1.87 0.19 -2.72ZM11.28 13c0.35 0.11 0.54 0.38 0.37 0.89l-0.11 0.18 -0.36 -0.07a1.29 1.29 0 0 0 -0.34 0 2 2 0 0 0 -0.34 0.06l-0.33 0.09c0 -0.33 0.05 -0.76 0.08 -1.27a3.42 3.42 0 0 1 1.03 0.12ZM22.8 9.63c-1.32 0.29 -2.5 0.85 -3.79 1.1a5.23 5.23 0 0 1 -1.73 0.08 4.79 4.79 0 0 1 -1.19 -0.34c-0.62 -0.26 -1.21 -0.6 -1.84 -0.86a6.58 6.58 0 0 0 -2.17 -0.53 5.11 5.11 0 0 0 -1.65 0.19c0 -0.46 0 -0.91 0.05 -1.38a19.51 19.51 0 0 0 0 -2c0 -0.22 0 -0.76 -0.16 -4.48A15.77 15.77 0 0 1 13 0.84a4.4 4.4 0 0 1 1.94 0.16 15.55 15.55 0 0 1 2.13 1.32 3.26 3.26 0 0 0 1.21 0.43 4 4 0 0 0 1.38 -0.11 17.67 17.67 0 0 0 1.78 -0.59 7.27 7.27 0 0 1 0.8 -0.22l0.57 -0.11c-0.01 2.68 0.05 4.01 -0.01 7.91Z" fill="#020202" fill-rule="evenodd" stroke-width="1"></path>
  </g>
</svg>