<svg xmlns="http://www.w3.org/2000/svg" viewBox="0 0 24 24" id="Gender-Variance-Star--Streamline-Freehand">
  <desc>
    Gender Variance Star Streamline Icon: https://streamlinehq.com
  </desc>
  <title>gender-variance-star</title>
  <g>
    <path d="m13 6.75 1.19 -0.09a0.49 0.49 0 0 0 -0.19 -0.78c-0.44 0 -0.61 -0.18 -1 -0.2s-0.6 0 -0.9 0 -0.59 0 -0.89 0.06 -0.53 0.1 -1 0.16a0.43 0.43 0 0 0 -0.16 0.84 11.68 11.68 0 0 0 1.46 0.09c0.49 -0.01 0.96 -0.05 1.49 -0.08Z" fill="#4C57E6" fill-rule="evenodd" stroke-width="1"></path>
    <path d="m14.92 10.74 -3.27 0.08 -4.16 0C6.26 10.89 5 11 3.8 11s-1 0.73 0 0.74c1.23 0 2.47 0.05 3.7 0.09 1 0 1.93 0.08 2.9 0.11l1.27 0c1.1 0 2.2 -0.06 3.29 -0.12 1.64 -0.08 3.28 -0.21 4.92 -0.28l1.76 -0.16c0.65 0 1.15 -0.67 0.55 -0.74l-2.33 0.06c-1.64 0 -3.29 0.01 -4.94 0.04Z" fill="#4C57E6" fill-rule="evenodd" stroke-width="1"></path>
    <path d="m7.74 19.61 -0.78 0c-0.39 0 -0.5 0 -0.88 0.06 -0.35 0.27 -0.49 0.52 -0.19 0.77a8.47 8.47 0 0 0 1.33 0.27 13.08 13.08 0 0 0 1.48 0c0.72 0 1.24 -0.83 0.56 -1a6 6 0 0 0 -0.74 -0.09Z" fill="#4C57E6" fill-rule="evenodd" stroke-width="1"></path>
    <path d="m16.28 19.45 -0.77 0.06a9.23 9.23 0 0 0 -1 0.21c-0.39 0.19 -0.24 0.77 0.27 0.81 0.35 0 0.46 0 0.81 0.06a6.43 6.43 0 0 0 0.76 0c0.26 0 0.51 0 0.76 -0.06l1.15 -0.16c0.31 -0.08 0.24 -0.72 -0.13 -0.85s-0.59 0 -1.06 -0.06Z" fill="#4C57E6" fill-rule="evenodd" stroke-width="1"></path>
    <path d="M23.21 8.35A2.54 2.54 0 0 0 22.07 8a10.66 10.66 0 0 0 -1.6 0l-4.76 0.19c-0.1 -0.51 -0.2 -1.18 -0.3 -1.91a0.32 0.32 0 0 0 0 -0.14 18.26 18.26 0 0 0 -0.85 -3.84c-0.46 -1.2 -1.18 -2 -2.18 -2.08h-0.17a3.24 3.24 0 0 0 -2.45 1.9C8.85 3.84 8.55 6.46 8.21 8l-4.53 -0.28a10.63 10.63 0 0 0 -1.6 0 2.5 2.5 0 0 0 -1.2 0.41A1.84 1.84 0 0 0 0 9.54a2.78 2.78 0 0 0 0.85 2.09 11.37 11.37 0 0 0 2.05 1.58 30.5 30.5 0 0 0 2.92 1.55c-0.33 1.4 -0.9 3.16 -1.19 4.79A10 10 0 0 0 4.45 22 1.68 1.68 0 0 0 6 23.69a4.1 4.1 0 0 0 2.91 -1 5.58 5.58 0 0 0 0.58 -0.61c0.26 -0.3 0.49 -0.63 0.72 -0.95 0.51 -0.73 1 -1.18 1.42 -1.89 0.12 -0.19 0.25 -0.4 0.38 -0.64a11.11 11.11 0 0 0 0.63 1c0.38 0.59 0.76 1.05 1.21 1.67 0.24 0.32 0.48 0.65 0.75 0.95a5.48 5.48 0 0 0 0.59 0.59 4.07 4.07 0 0 0 2.89 1 1.58 1.58 0 0 0 1.45 -1.62 9.44 9.44 0 0 0 -0.22 -2.41c-0.33 -1.72 -1 -3.59 -1.32 -5a34.31 34.31 0 0 0 3.13 -1.6 11.44 11.44 0 0 0 2.06 -1.55A2.55 2.55 0 0 0 24 9.64a1.67 1.67 0 0 0 -0.79 -1.29Zm-2.44 4.22a31.15 31.15 0 0 1 -3.16 1.67h-0.09a0.33 0.33 0 0 0 -0.25 0.4c0.28 1.56 1.64 5.5 1.48 7.47A0.86 0.86 0 0 1 18 23a3.22 3.22 0 0 1 -2.24 -0.8 6.14 6.14 0 0 1 -0.5 -0.52c-0.42 -0.49 -1.78 -2.42 -1.86 -2.55a15 15 0 0 1 -0.95 -1.74 0.46 0.46 0 0 0 -0.41 -0.26 0.48 0.48 0 0 0 -0.41 0.26 10.92 10.92 0 0 1 -0.74 1.31l-2.16 2.75a3.86 3.86 0 0 1 -0.49 0.5 3.21 3.21 0 0 1 -1.77 0.74 0.8 0.8 0 0 1 -1 -0.79A25.68 25.68 0 0 1 7 14.56a0.52 0.52 0 0 0 -0.3 -0.62 32.06 32.06 0 0 1 -3.21 -1.69s-1.83 -1.41 -1.84 -1.42a1.79 1.79 0 0 1 -0.53 -1 0.8 0.8 0 0 1 0.37 -0.78 1.44 1.44 0 0 1 0.69 -0.22 8.49 8.49 0 0 1 1.43 0l5 0.24a0.56 0.56 0 0 0 0.58 -0.41 50 50 0 0 1 1.18 -5.3c0.4 -1.1 0.93 -2 1.88 -2.19 0.67 0 1.07 0.64 1.39 1.43 0.8 2 0.74 4.07 1.33 6.1a0.43 0.43 0 0 0 0.45 0.31l5.09 -0.29A10.52 10.52 0 0 1 22 8.7a1.76 1.76 0 0 1 0.8 0.3 1 1 0 0 1 0.48 1c-0.13 1.11 -2.41 2.51 -2.51 2.57Z" fill="#020202" fill-rule="evenodd" stroke-width="1"></path>
    <path d="m13.49 15.48 -3 0c-1 0 -2 0.16 -3.06 0.21H7c-0.51 0.24 -0.5 0.5 0 0.71 0.38 0 0.59 0 1 0.06 0.87 0 1.75 0.06 2.61 0.12s2 0.05 3 0c1.32 0 2.44 -0.15 3.76 -0.29 0.31 -0.09 0.11 -0.61 -0.25 -0.64s-0.27 -0.05 -0.56 -0.05c-1.11 -0.02 -2.09 -0.09 -3.07 -0.12Z" fill="#4C57E6" fill-rule="evenodd" stroke-width="1"></path>
  </g>
</svg>