<svg xmlns="http://www.w3.org/2000/svg" viewBox="0 0 24 24" id="Geometric-Crime-Man-Detective--Streamline-Freehand">
  <desc>
    Geometric Crime Man Detective Streamline Icon: https://streamlinehq.com
  </desc>
  <g>
    <path d="M22.68 8.32a0.59 0.59 0 0 0 -0.34 -0.45 1.73 1.73 0 0 0 -0.64 -0.14l-1.12 0a12.32 12.32 0 0 0 -1.62 0 0.67 0.67 0 0 0 -0.5 0.34 0.9 0.9 0 0 0 -0.07 0.43 8.85 8.85 0 0 0 0.18 0.92 2.71 2.71 0 0 1 -0.1 1.4 1.27 1.27 0 0 1 -0.48 0.55c-0.61 0.07 -1.21 0.11 -1.81 0.16l-3.48 0.21 -0.16 -0.13a2.25 2.25 0 0 0 -0.52 -0.24 1.5 1.5 0 0 0 -0.55 -0.11 3.53 3.53 0 0 0 -1.27 0.21 0.29 0.29 0 0 0 -0.27 0.32 0.32 0.32 0 0 0 0.33 0.27 4.94 4.94 0 0 1 1 0.27l0.55 0.17 0.38 0.11A3.35 3.35 0 0 1 13 13a0.33 0.33 0 0 0 0.48 0 0.34 0.34 0 0 0 0 -0.48c0 -0.07 -0.1 -0.11 -0.14 -0.18l3.5 0c0.62 0 1.24 0 1.86 -0.05a7.87 7.87 0 0 0 2 -0.3 3.13 3.13 0 0 0 1.3 -0.74 2.64 2.64 0 0 0 0.52 -0.91A3.91 3.91 0 0 0 22.69 9a4.62 4.62 0 0 0 -0.01 -0.68Zm-1.22 1.5a1.53 1.53 0 0 1 -0.33 0.66 2 2 0 0 1 -0.82 0.52 5.35 5.35 0 0 1 -1.2 0.26 3.31 3.31 0 0 0 0.31 -1.91 2.74 2.74 0 0 0 0 -0.81 9.53 9.53 0 0 1 1.13 0.24l0.93 0h0.06l0 0.15a3.35 3.35 0 0 1 -0.08 0.89Z" fill="#020202" fill-rule="evenodd" stroke-width="1"></path>
    <path d="M21.87 15.08a8.23 8.23 0 0 0 -0.84 -0.34c-0.54 -0.21 -1.1 -0.41 -1.66 -0.58s-1.12 -0.32 -1.69 -0.45a0.3 0.3 0 0 0 -0.15 0.58c0.53 0.17 1.06 0.36 1.59 0.58s1 0.45 1.52 0.71l0.22 0.07s-0.06 0.08 -0.08 0.09L19.1 17a6 6 0 0 0 -0.68 0.45 0.65 0.65 0 0 0 -0.23 0.47 1.93 1.93 0 0 0 0.54 1.24c0.52 0.59 1.37 1.13 1.73 1.54a2.83 2.83 0 0 1 0.58 1 7.22 7.22 0 0 1 0.29 1.93 0.35 0.35 0 0 0 0.34 0.34 0.34 0.34 0 0 0 0.34 -0.34 7.85 7.85 0 0 0 -0.18 -2.15 3.57 3.57 0 0 0 -0.65 -1.41c-0.29 -0.38 -0.92 -0.89 -1.41 -1.42a3.37 3.37 0 0 1 -0.36 -0.45 3.86 3.86 0 0 0 0.35 -0.3c0.35 -0.26 0.72 -0.51 1.06 -0.79s0.47 -0.39 0.69 -0.6a3.94 3.94 0 0 0 0.58 -0.66 0.63 0.63 0 0 0 0.06 -0.43 0.61 0.61 0 0 0 -0.28 -0.34Z" fill="#020202" fill-rule="evenodd" stroke-width="1"></path>
    <path d="M20.75 4.53a5.1 5.1 0 0 1 0.42 0.69 0.9 0.9 0 0 1 0 0.84 0.34 0.34 0 1 0 0.54 0.4A1.61 1.61 0 0 0 22.06 5a3.53 3.53 0 0 0 -0.34 -1c-0.13 -0.26 -0.29 -0.51 -0.4 -0.76a1.49 1.49 0 0 1 -0.22 -0.84 3 3 0 0 1 0.25 -1 0.3 0.3 0 1 0 -0.51 -0.3 3.21 3.21 0 0 0 -0.69 1.43 2.3 2.3 0 0 0 0.13 1.17 6.59 6.59 0 0 0 0.47 0.83Z" fill="#4C57E6" fill-rule="evenodd" stroke-width="1"></path>
    <g>
      <path d="M17.33 4.23a4.55 4.55 0 0 0 -0.54 -1.55A5.51 5.51 0 0 0 12.45 0a6.59 6.59 0 0 0 -4.84 1.63 5 5 0 0 0 -1.32 2.13 14.49 14.49 0 0 0 -0.54 3.5s0.07 3.43 0.08 3.51a5.78 5.78 0 0 0 0.9 2.65l0 0.06a19.4 19.4 0 0 0 -2.13 0.15 8.47 8.47 0 0 0 -1.54 0.37 5.25 5.25 0 0 0 -1.06 0.45 0.6 0.6 0 0 0 -0.22 0.63 1.11 1.11 0 0 0 0.19 0.35c0.14 0.16 0.4 0.34 0.5 0.45l1.28 1.33s0.15 0.12 0.24 0.21a0.88 0.88 0 0 0 -0.2 0.08 4.94 4.94 0 0 0 -0.57 0.55 7.49 7.49 0 0 0 -0.51 0.61 6.7 6.7 0 0 0 -1 2 7.38 7.38 0 0 0 -0.36 2.23 0.31 0.31 0 0 0 0.29 0.32 0.31 0.31 0 0 0 0.26 -0.21 6.48 6.48 0 0 1 0.5 -2 6 6 0 0 1 1.08 -1.69l1 -0.93c0.08 -0.07 0.38 -0.21 0.49 -0.32a0.69 0.69 0 0 0 0.19 -0.32 0.92 0.92 0 0 0 0 -0.51 2.8 2.8 0 0 0 -0.51 -0.74l-1.41 -1.41a1.3 1.3 0 0 0 -0.18 -0.1c0.15 -0.05 0.3 -0.09 0.33 -0.11a9.06 9.06 0 0 1 1.4 -0.41 22.28 22.28 0 0 1 2.26 -0.31l0.1 -0.05c2.13 0.87 4.28 2.41 8.3 0a0.33 0.33 0 0 0 0.13 -0.46 0.34 0.34 0 0 0 -0.46 -0.12 8.4 8.4 0 0 1 -4.06 0.86 5.44 5.44 0 0 1 -1.94 -0.43 3.37 3.37 0 0 1 -1.47 -1.15 4.74 4.74 0 0 1 -0.88 -2.13 13.25 13.25 0 0 1 -0.14 -2.87 10 10 0 0 0 3.05 1.68 6.58 6.58 0 0 0 1.68 0.33 5.83 5.83 0 0 0 1.72 -0.13A14 14 0 0 0 17 7.56a0.35 0.35 0 0 0 0 -0.48 13.22 13.22 0 0 0 -2.07 -1.62 7.06 7.06 0 0 0 -1.66 -0.75 7 7 0 0 0 -1.13 -0.18s0 -0.06 0 -0.1c0.05 -0.44 0.11 -0.86 0.14 -1.3a5.15 5.15 0 0 0 0 -0.55 5.07 5.07 0 0 0 0 -0.55c0 -0.3 -0.09 -0.58 -0.14 -0.87h0.21a4.67 4.67 0 0 1 3.67 2 3.47 3.47 0 0 1 0.5 1.23 11.28 11.28 0 0 1 0.2 2.16 0.34 0.34 0 1 0 0.67 0 12.78 12.78 0 0 0 -0.06 -2.32Zm-10.82 2a10.68 10.68 0 0 1 0.57 -2.19 4 4 0 0 1 1.2 -1.64 5.57 5.57 0 0 1 3.09 -1.23 7.7 7.7 0 0 0 -0.17 0.83 5.43 5.43 0 0 0 0 0.57c0 0.19 0 0.38 0.05 0.56 0.07 0.45 0.17 0.86 0.25 1.3a7 7 0 0 0 -1.36 0.13 10 10 0 0 0 -3.63 1.69ZM13 5.77a6.43 6.43 0 0 1 1.84 0.69 10.65 10.65 0 0 1 1.2 0.77 6.07 6.07 0 0 1 -3.14 1.4 6.38 6.38 0 0 1 -1.45 0A8.07 8.07 0 0 1 10 8.44a10.71 10.71 0 0 1 -3.31 -1.39 0.71 0.71 0 0 1 0 -0.14 11.31 11.31 0 0 1 3 -1.07 9.63 9.63 0 0 1 1.68 -0.2 6 6 0 0 1 1.63 0.13Z" fill="#020202" fill-rule="evenodd" stroke-width="1"></path>
      <path d="M15.07 14.85c-0.56 0.94 -0.64 1.12 -1.23 2a12.63 12.63 0 0 1 -1.27 1.71c-0.1 0.11 -0.4 0.59 -0.63 0.82l-0.88 -1.24 -1.86 -2.37c-0.54 -1 -1.23 -0.73 -1.12 -0.21l2.08 3.26L11 20a4.48 4.48 0 0 0 0.26 0.38 0.59 0.59 0 0 0 0.25 0.16c-0.07 0.24 -0.14 0.49 -0.19 0.75a4.38 4.38 0 0 0 0 0.52l0 0.52c0 0.41 0.12 0.8 0.19 1.22a0.34 0.34 0 0 0 0.67 0c0.07 -0.41 0.16 -0.79 0.21 -1.19 0 -0.17 0 -0.34 0.05 -0.52s0 -0.34 0 -0.51 -0.08 -0.61 -0.13 -0.91a2.56 2.56 0 0 0 0.25 -0.16 7.18 7.18 0 0 0 0.9 -1 14 14 0 0 0 1 -1.45c0.65 -1.13 0.71 -1.54 1.3 -2.69a0.32 0.32 0 0 0 -0.14 -0.45 0.33 0.33 0 0 0 -0.55 0.18Z" fill="#4C57E6" fill-rule="evenodd" stroke-width="1"></path>
    </g>
  </g>
</svg>