<svg xmlns="http://www.w3.org/2000/svg" viewBox="0 0 24 24" id="Geometric-Vintage-Man-Moustache-1--Streamline-Freehand">
  <desc>
    Geometric Vintage Man Moustache 1 Streamline Icon: https://streamlinehq.com
  </desc>
  <g>
    <path d="M13.41 13.54a1.61 1.61 0 0 1 -0.73 0.16l-0.32 0 -0.48 0a2.52 2.52 0 0 1 -0.89 -0.25 0.3 0.3 0 1 0 -0.4 0.44 2.38 2.38 0 0 0 1 0.85 1.83 1.83 0 0 0 0.57 0.14 1.9 1.9 0 0 0 0.58 -0.05 2.14 2.14 0 0 0 1.13 -0.69 0.34 0.34 0 0 0 -0.42 -0.53Z" fill="#020202" fill-rule="evenodd" stroke-width="1"></path>
    <path d="M8.43 9.89a1.34 1.34 0 0 1 0.67 -0.4 0.83 0.83 0 0 1 0.22 0 2 2 0 0 1 1.12 0.21 0.34 0.34 0 0 0 0.48 -0.09 0.35 0.35 0 0 0 -0.09 -0.47 3.08 3.08 0 0 0 -1 -0.7 1.45 1.45 0 0 0 -0.61 -0.1 1.3 1.3 0 0 0 -0.63 0.2A1.91 1.91 0 0 0 7.9 9.6a0.31 0.31 0 0 0 0.1 0.4 0.32 0.32 0 0 0 0.43 -0.11Z" fill="#020202" fill-rule="evenodd" stroke-width="1"></path>
    <path d="M13.42 9.64a1.28 1.28 0 0 1 0.7 -0.24 0.45 0.45 0 0 1 0.2 0 1.29 1.29 0 0 1 0.92 0.34 0.34 0.34 0 0 0 0.54 -0.42 2.21 2.21 0 0 0 -0.78 -0.89 1.36 1.36 0 0 0 -0.58 -0.18 1.18 1.18 0 0 0 -0.61 0.11 1.77 1.77 0 0 0 -0.83 0.92 0.29 0.29 0 0 0 0.05 0.41 0.29 0.29 0 0 0 0.39 -0.05Z" fill="#020202" fill-rule="evenodd" stroke-width="1"></path>
    <g>
      <path d="M22.68 21a5.68 5.68 0 0 0 -0.59 -1.77 3.79 3.79 0 0 0 -1.86 -1.43 8.21 8.21 0 0 0 -2.7 -0.47 6.59 6.59 0 0 0 0.4 -1.85 18.59 18.59 0 0 0 -0.05 -2.69c0 -0.26 -0.36 -5.17 -0.35 -5.06a8.81 8.81 0 0 0 -3.83 -1.62 9.86 9.86 0 0 0 -2 -0.08 15 15 0 0 0 -2 0.28 13.12 13.12 0 0 0 -2 0.57c-1.35 0.54 -1.3 0.27 -1.36 0.86l0 0.06c-0.08 1.07 -0.18 2.54 -0.16 4.05a0.24 0.24 0 0 0 0 0.08 0.25 0.25 0 0 0 0 0.07c0 0.71 0 1.42 0.12 2.12a11.34 11.34 0 0 0 0.88 3.39 8.38 8.38 0 0 0 -3.27 0.49A4.42 4.42 0 0 0 2 19.35a3.3 3.3 0 0 0 -0.4 0.74 8.53 8.53 0 0 0 -0.33 1.09 4.83 4.83 0 0 0 -0.12 0.73 9.22 9.22 0 0 0 0 1.06 0.32 0.32 0 0 0 0.28 0.32 0.3 0.3 0 0 0 0.31 -0.29c0 -0.28 0.08 -0.55 0.14 -0.82a3.28 3.28 0 0 1 0.24 -0.73c0.14 -0.31 0.28 -0.62 0.45 -0.92a2.93 2.93 0 0 1 0.34 -0.5 4.18 4.18 0 0 1 0.83 -0.75 5.06 5.06 0 0 1 1 -0.54 9.59 9.59 0 0 1 2.44 -0.54 0.29 0.29 0 0 0 0.29 -0.2c0.12 0.21 0.22 0.41 0.35 0.6a5.28 5.28 0 0 0 4.44 2 4.4 4.4 0 0 0 -0.15 0.65 2.1 2.1 0 0 0 0 0.43 3 3 0 0 0 0 0.43c0.05 0.34 0.14 0.65 0.2 1a0.34 0.34 0 1 0 0.67 0c0.08 -0.35 0.16 -0.67 0.21 -1a3 3 0 0 0 0 -0.43 3 3 0 0 0 0 -0.42 5.26 5.26 0 0 0 -0.17 -0.71A5.75 5.75 0 0 0 17.23 18a8.91 8.91 0 0 1 2.15 0.61 5.43 5.43 0 0 1 1 0.55 2.3 2.3 0 0 1 0.72 0.7 4.91 4.91 0 0 1 0.61 1.4 17.23 17.23 0 0 1 0.46 2.43 0.34 0.34 0 0 0 0.68 0 15.63 15.63 0 0 0 -0.17 -2.69ZM7 8a4.43 4.43 0 0 1 1 -0.38 12.07 12.07 0 0 1 1.91 -0.28 19.67 19.67 0 0 1 2.24 -0.16 12.5 12.5 0 0 1 2.21 0.09 5.61 5.61 0 0 1 2.56 1l0.08 4.59v0.07a0.28 0.28 0 0 0 -0.2 0 4.27 4.27 0 0 1 -0.48 0.13 0.94 0.94 0 0 1 -0.41 0 1.33 1.33 0 0 1 -0.64 -0.34 10.56 10.56 0 0 1 -0.89 -1.05 3.7 3.7 0 0 0 -1 -0.86 2.88 2.88 0 0 0 -1.38 -0.34 2.22 2.22 0 0 0 -1.37 0.43 5.42 5.42 0 0 0 -1 1 3.62 3.62 0 0 1 -0.8 0.81 1.28 1.28 0 0 1 -1.21 0.16 1.32 1.32 0 0 1 -0.55 -0.45C6.93 10.88 7 9.34 7 8Zm10 7.41a5.6 5.6 0 0 1 -0.41 1.59 4.49 4.49 0 0 1 -3.71 2.48A4.42 4.42 0 0 1 8.7 18a8.69 8.69 0 0 1 -1.47 -4c0 -0.17 0 -0.35 -0.06 -0.52l0.09 0.06a2.14 2.14 0 0 0 2 0 4.36 4.36 0 0 0 1.14 -0.93 5.34 5.34 0 0 1 0.85 -0.8 1.22 1.22 0 0 1 0.75 -0.21 2 2 0 0 1 0.88 0.2 2.46 2.46 0 0 1 0.8 0.56 11.86 11.86 0 0 0 1.08 1 2.11 2.11 0 0 0 1.09 0.45 1.94 1.94 0 0 0 0.54 0 3.58 3.58 0 0 0 0.65 -0.23 12.58 12.58 0 0 1 -0.04 1.84Z" fill="#020202" fill-rule="evenodd" stroke-width="1"></path>
      <path d="M2.54 8.39A5.38 5.38 0 0 0 4 8.94a8.73 8.73 0 0 0 1.45 0.2c0.65 0 0.55 -0.61 0 -0.62 -0.31 0 -0.63 -0.09 -0.94 -0.16a5.33 5.33 0 0 1 -1.6 -0.62c-0.32 -0.2 -0.52 -0.4 -0.52 -0.63s0.22 -0.39 0.54 -0.58l0.6 -0.26L4.78 6a36.54 36.54 0 0 1 5.68 -0.89 29.4 29.4 0 0 1 5.71 0.05 17 17 0 0 1 2.62 0.36 4.62 4.62 0 0 1 1.5 0.62 2.75 2.75 0 0 1 0.71 0.7c0.13 0.19 0.24 0.41 0.09 0.59a1.92 1.92 0 0 1 -0.29 0.28 5.29 5.29 0 0 1 -0.6 0.36 4.57 4.57 0 0 1 -0.7 0.22c-0.34 0.09 -0.72 0.18 -1.06 0.25 -1.06 0.39 -0.79 0.84 0 0.73 0.47 -0.1 1.07 -0.21 1.51 -0.32a4 4 0 0 0 0.62 -0.19c0.23 -0.12 0.47 -0.25 0.7 -0.4a2.86 2.86 0 0 0 0.45 -0.4 1.21 1.21 0 0 0 0.15 -1.32 3.43 3.43 0 0 0 -1.05 -1.24A5.38 5.38 0 0 0 19 4.52a12.07 12.07 0 0 0 -1.3 -0.28 12.9 12.9 0 0 0 0 -1.76 2.38 2.38 0 0 0 -0.49 -1.22 2.27 2.27 0 0 0 -0.48 -0.4A6.26 6.26 0 0 0 16 0.49 5.76 5.76 0 0 0 14.21 0a13.9 13.9 0 0 0 -2.66 0.1l-2.2 0.3 -1.28 0.3a2.91 2.91 0 0 0 -0.5 0.16 3.82 3.82 0 0 0 -0.46 0.21 2.27 2.27 0 0 0 -1.17 1.51 7.13 7.13 0 0 0 -0.11 2.09L4.54 5l-1.32 0.42 -0.74 0.37a1.62 1.62 0 0 0 -0.9 1.34 1.61 1.61 0 0 0 0.96 1.26Zm4.15 -5.58a1.44 1.44 0 0 1 0.81 -0.9l0.78 -0.24 1.23 -0.19 2.17 -0.21a13.27 13.27 0 0 1 2.44 -0.14 5.23 5.23 0 0 1 1.51 0.28 4.26 4.26 0 0 1 0.62 0.26 0.86 0.86 0 0 1 0.29 0.21 1.42 1.42 0 0 1 0.35 0.74A10.61 10.61 0 0 1 17 4.13L16.3 4a28 28 0 0 0 -5.94 -0.11 31.93 31.93 0 0 0 -3.9 0.6 6.17 6.17 0 0 1 0.23 -1.68Z" fill="#4C57E6" fill-rule="evenodd" stroke-width="1"></path>
    </g>
  </g>
</svg>