<svg xmlns="http://www.w3.org/2000/svg" viewBox="0 0 24 24" id="Geometric-History-Woman-Queen-2--Streamline-Freehand">
  <desc>
    Geometric History Woman Queen 2 Streamline Icon: https://streamlinehq.com
  </desc>
  <g>
    <path d="M10.37 12.86a0.32 0.32 0 0 0 -0.07 -0.46 1.58 1.58 0 0 0 -1 -0.6 1 1 0 0 0 -0.34 0 1.14 1.14 0 0 0 -0.46 0.18 1.68 1.68 0 0 0 -0.57 0.82 0.29 0.29 0 1 0 0.47 0.34A1.59 1.59 0 0 1 9 13a0.86 0.86 0 0 1 0.23 0l0.17 0a1.12 1.12 0 0 1 0.5 0.07 0.34 0.34 0 0 0 0.47 -0.21Z" fill="#020202" fill-rule="evenodd" stroke-width="1"></path>
    <path d="M13.45 11.65a1 1 0 0 0 -0.47 -0.13 0.85 0.85 0 0 0 -0.52 0.11 1.33 1.33 0 0 0 -0.64 0.81 0.29 0.29 0 0 0 0.48 0.34 1.06 1.06 0 0 1 0.46 -0.16s0.07 0 0.11 0H13a2 2 0 0 1 0.71 0.15 0.33 0.33 0 1 0 0.41 -0.51 2.11 2.11 0 0 0 -0.67 -0.61Z" fill="#020202" fill-rule="evenodd" stroke-width="1"></path>
    <path d="M12.47 14.36a2 2 0 0 1 -1.19 0.57A1.55 1.55 0 0 1 11 15a1.73 1.73 0 0 1 -0.91 -0.23 0.29 0.29 0 1 0 -0.39 0.43 2.12 2.12 0 0 0 1.1 0.8 1.42 1.42 0 0 0 0.68 0 1.61 1.61 0 0 0 0.61 -0.25 2.74 2.74 0 0 0 0.9 -1 0.32 0.32 0 0 0 -0.05 -0.46 0.33 0.33 0 0 0 -0.47 0.07Z" fill="#020202" fill-rule="evenodd" stroke-width="1"></path>
    <path d="m6.42 2.87 0.16 0.83 0.1 0.38 0.65 -0.19 -0.06 -0.3 -0.1 -0.84 0 -0.35a3.32 3.32 0 0 0 0.8 0.54 1.75 1.75 0 0 0 0.94 0.15 2.14 2.14 0 0 0 1.08 -0.44 3 3 0 0 0 0.74 -0.81l0 -0.09a3.21 3.21 0 0 0 0.52 0.58 1.66 1.66 0 0 0 0.89 0.4 1.77 1.77 0 0 0 1.08 -0.23 3.13 3.13 0 0 0 0.92 -0.82l0 0.8 0 1h0.7c0 -0.44 0.08 -0.87 0.1 -1.31s0 -0.59 0 -0.88a6.15 6.15 0 0 0 -0.06 -0.79 0.75 0.75 0 0 0 -0.14 -0.35 0.44 0.44 0 0 0 -0.5 -0.17 0.52 0.52 0 0 0 -0.24 0.23c-0.05 0.07 -0.11 0.26 -0.17 0.34l-0.36 0.45a2.71 2.71 0 0 1 -0.61 0.56 0.88 0.88 0 0 1 -0.59 0.14 0.77 0.77 0 0 1 -0.43 -0.28c-0.3 -0.33 -0.53 -0.77 -0.83 -1.09a0.51 0.51 0 0 0 -0.72 -0.1 0.62 0.62 0 0 0 -0.24 0.28c0 0.06 -0.05 0.21 -0.07 0.27l-0.25 0.5a2 2 0 0 1 -0.46 0.53 1.24 1.24 0 0 1 -0.56 0.19 0.82 0.82 0 0 1 -0.51 0 3.64 3.64 0 0 1 -0.63 -0.42A5.46 5.46 0 0 0 7 1.14 1 1 0 0 0 6.59 1a0.44 0.44 0 0 0 -0.46 0.24 0.5 0.5 0 0 0 -0.06 0.29c0 0.1 0.11 0.3 0.13 0.41Z" fill="#4C57E6" fill-rule="evenodd" stroke-width="1"></path>
    <g>
      <path d="m12.12 20.17 0 -0.83c-0.3 -1 -0.94 -0.87 -1.05 0a3.62 3.62 0 0 0 0 0.57 4.35 4.35 0 0 0 0.06 0.52c0.19 1.21 0.6 1.17 1.06 0a1.55 1.55 0 0 0 -0.07 -0.26Z" fill="#4C57E6" fill-rule="evenodd" stroke-width="1"></path>
      <path d="M22.06 22.28a8.8 8.8 0 0 0 -1 -1.6 7.45 7.45 0 0 0 -0.52 -0.6 5 5 0 0 0 -0.62 -0.52 7.16 7.16 0 0 0 -1.29 -0.71l0.07 -0.11a2.81 2.81 0 0 0 0 -2.63 3.76 3.76 0 0 0 -1 -1.15 3.07 3.07 0 0 0 -1.27 -0.7 3.87 3.87 0 0 0 0 -0.48l0 -0.22a5.08 5.08 0 0 0 2.42 -2.23 4.39 4.39 0 0 0 0.41 -3.42 4.7 4.7 0 0 0 -1.07 -1.77 6.68 6.68 0 0 0 -1.61 -1.23 5.72 5.72 0 0 0 -1.9 -0.66s0 0 0 -0.06h-1.17a4 4 0 0 0 -1.38 0.32 2.42 2.42 0 0 0 -0.39 0.21c-0.31 0.19 -0.58 0.44 -0.88 0.64a5.05 5.05 0 0 0 -0.6 -0.36 3.23 3.23 0 0 0 -0.66 -0.29 4.15 4.15 0 0 0 -1.88 -0.14l-0.16 0 -0.94 0.28a5.59 5.59 0 0 0 -0.62 0.27 6.18 6.18 0 0 0 -2.87 3.63 3.82 3.82 0 0 0 1.24 4.33 4.15 4.15 0 0 0 0.88 0.52 6.94 6.94 0 0 0 0.81 0.25l0 0.4a1.13 1.13 0 0 0 0 0.18 2.8 2.8 0 0 0 -0.43 0.27 5.68 5.68 0 0 0 -0.9 0.85A3.26 3.26 0 0 0 4 18.46a3.22 3.22 0 0 0 0.47 1.06 6.14 6.14 0 0 0 -1.06 0.75 3.58 3.58 0 0 0 -0.51 0.52 4.89 4.89 0 0 0 -0.41 0.6A7 7 0 0 0 1.91 23a0.28 0.28 0 0 0 0.15 0.38 0.29 0.29 0 0 0 0.39 -0.15 10.67 10.67 0 0 1 1.06 -1.37l0.49 -0.7a8.19 8.19 0 0 1 0.53 -0.67 4.4 4.4 0 0 1 0.37 -0.38 5.62 5.62 0 0 0 0.88 0.78 9 9 0 0 0 4.36 1.45l-1 1.15a0.3 0.3 0 0 0 0 0.42 0.29 0.29 0 0 0 0.41 0l1.6 -1.16 0.18 -0.24 0.13 0.06 0.6 0.34 2.12 1a0.33 0.33 0 0 0 0.3 -0.59l-1.58 -1.11a11 11 0 0 0 3 -1 7.4 7.4 0 0 0 2.34 -1.81c0.16 0.13 0.32 0.26 0.48 0.41s0.35 0.38 0.54 0.57l0.56 0.54a15.57 15.57 0 0 1 1.67 1.68 0.33 0.33 0 0 0 0.55 -0.35ZM10.53 7l0.31 -0.46a0.82 0.82 0 0 0 0.26 0l0.12 0.16a1.19 1.19 0 0 1 0.18 0.3v0.39a2.76 2.76 0 0 1 -0.08 0.27 0.28 0.28 0 0 1 -0.12 0.12 0.49 0.49 0 0 1 -0.41 0c-0.14 0 -0.3 -0.08 -0.35 -0.2a0.38 0.38 0 0 1 0 -0.21 1.26 1.26 0 0 1 0.09 -0.37ZM6 10.72l0 2.49c-0.17 -0.06 -0.34 -0.11 -0.5 -0.18a3.31 3.31 0 0 1 -0.73 -0.46A3.1 3.1 0 0 1 4 9a5.19 5.19 0 0 1 2.47 -2.94 4.7 4.7 0 0 1 1.41 -0.43 2.78 2.78 0 0 1 1.37 0.11 2.81 2.81 0 0 1 0.47 0.26 3.76 3.76 0 0 1 0.47 0.3l-0.34 0.32a1.8 1.8 0 0 0 -0.41 0.72 1.2 1.2 0 0 0 0 0.7 1.49 1.49 0 0 0 1 0.89 1.59 1.59 0 0 0 1.31 -0.14 1.28 1.28 0 0 0 0.43 -0.5 2 2 0 0 0 0.14 -0.74 1.75 1.75 0 0 0 0 -0.4 1.87 1.87 0 0 0 -0.13 -0.4 2 2 0 0 0 -0.29 -0.43c-0.05 -0.06 -0.13 -0.11 -0.19 -0.17l0.89 -0.59a3.39 3.39 0 0 1 1.77 -0.25 5.13 5.13 0 0 1 1.81 0.52 5.9 5.9 0 0 1 1.41 1 3.84 3.84 0 0 1 0.92 1.39 3.59 3.59 0 0 1 -0.26 2.78 4.4 4.4 0 0 1 -1.79 1.86c-0.09 -0.78 -0.26 -1.56 -0.35 -2.35a0.41 0.41 0 0 0 -0.1 -0.21s-0.16 -0.31 -0.25 -0.46a2.08 2.08 0 0 0 -0.27 -0.32A2.44 2.44 0 0 0 14 8.8a5.25 5.25 0 0 0 -2 0.39 5.51 5.51 0 0 1 -1.12 0.26 3.42 3.42 0 0 1 -1.41 -0.28A3.4 3.4 0 0 0 8.15 9a2.05 2.05 0 0 0 -1.33 0.63 2.14 2.14 0 0 0 -0.28 0.32Zm9.67 3a3.82 3.82 0 0 1 -0.58 1.85 4.65 4.65 0 0 1 -3.64 2 4.19 4.19 0 0 1 -3.78 -1.5 4.68 4.68 0 0 1 -0.8 -1.94 20.07 20.07 0 0 1 -0.25 -2.75l0.3 -0.75 0.39 -0.41a1.25 1.25 0 0 1 0.85 -0.28 3.76 3.76 0 0 1 1.17 0.36 3.7 3.7 0 0 0 1.62 0.28 5.24 5.24 0 0 0 1.18 -0.3 10.1 10.1 0 0 1 1.47 -0.54A1.61 1.61 0 0 1 15 10a1.29 1.29 0 0 1 0.17 0.16c0.09 0.12 0.17 0.25 0.25 0.38a26.15 26.15 0 0 1 0.27 3.21Zm2.33 4.6c-0.1 0.09 -1.14 2.16 -5.16 2.8a8.23 8.23 0 0 1 -1.94 0.14c-2.28 0 -5.42 -0.83 -6.06 -3A2.51 2.51 0 0 1 5.33 16a4.52 4.52 0 0 1 0.74 -0.79s0.11 -0.08 0.17 -0.13a4.89 4.89 0 0 0 0.66 1.56 5.12 5.12 0 0 0 3.77 2c0.25 0 1 0 1.5 -0.08a5.16 5.16 0 0 0 4.22 -3.66 2.8 2.8 0 0 1 0.91 0.58 3.22 3.22 0 0 1 0.75 0.94 2 2 0 0 1 -0.05 1.9Z" fill="#020202" fill-rule="evenodd" stroke-width="1"></path>
      <path d="M16.16 19c1 0.51 1.47 0.37 0.78 -0.68l-0.25 -0.22a4.84 4.84 0 0 0 -0.46 -0.33 4.11 4.11 0 0 0 -0.51 -0.27c-1.06 -0.26 -1.35 0 -0.79 0.71l0.28 0.22a4.53 4.53 0 0 0 0.46 0.3l0.48 0.26Z" fill="#4C57E6" fill-rule="evenodd" stroke-width="1"></path>
      <path d="M7.11 17.89a5.19 5.19 0 0 0 -0.5 0.31 4.84 4.84 0 0 0 -0.48 0.4l-0.13 0.17c-0.67 0.86 -0.33 1 0.79 0.68a5.11 5.11 0 0 0 0.48 -0.33l0.46 -0.37 0.27 -0.26c0.25 -0.61 0.26 -1.15 -0.89 -0.6Z" fill="#4C57E6" fill-rule="evenodd" stroke-width="1"></path>
    </g>
  </g>
</svg>