<svg xmlns="http://www.w3.org/2000/svg" viewBox="0 0 24 24" id="Geometric-Professions-Woman-Artist-2--Streamline-Freehand">
  <desc>
    Geometric Professions Woman Artist 2 Streamline Icon: https://streamlinehq.com
  </desc>
  <g>
    <path d="m9.26 12 0.18 -0.23a0.56 0.56 0 0 1 0.17 -0.09c0.07 -0.06 0.14 0 0.21 0a0.45 0.45 0 0 1 0.23 0 1.82 1.82 0 0 1 0.54 0.27 0.33 0.33 0 1 0 0.52 -0.4 2.06 2.06 0 0 0 -0.74 -0.86 1 1 0 0 0 -0.33 -0.13 1.06 1.06 0 0 0 -0.53 0 1.12 1.12 0 0 0 -0.57 0.46 1.24 1.24 0 0 0 -0.15 0.33 2.93 2.93 0 0 0 -0.07 0.41 0.29 0.29 0 0 0 0.54 0.22Z" fill="#020202" fill-rule="evenodd" stroke-width="1"></path>
    <path d="M13.2 11.92a0.89 0.89 0 0 1 0.44 -0.15s0.06 0 0.09 0h0.12a1.08 1.08 0 0 1 0.59 0.25 0.34 0.34 0 0 0 0.56 -0.37 1.7 1.7 0 0 0 -0.73 -0.89 1 1 0 0 0 -0.34 -0.11 0.94 0.94 0 0 0 -0.55 0.08 1.29 1.29 0 0 0 -0.67 0.83 0.29 0.29 0 0 0 0.08 0.4 0.3 0.3 0 0 0 0.41 -0.04Z" fill="#020202" fill-rule="evenodd" stroke-width="1"></path>
    <path d="M10.11 13.68a0.3 0.3 0 0 0 0 0.41 2 2 0 0 0 1.11 1 1.51 1.51 0 0 0 0.7 0.06 1.73 1.73 0 0 0 0.65 -0.22 2.77 2.77 0 0 0 1 -1 0.34 0.34 0 0 0 0 -0.47 0.32 0.32 0 0 0 -0.46 0 2.17 2.17 0 0 1 -1.27 0.55 2 2 0 0 1 -0.34 0 1.46 1.46 0 0 1 -0.88 -0.33 0.3 0.3 0 0 0 -0.51 0Z" fill="#020202" fill-rule="evenodd" stroke-width="1"></path>
    <g>
      <path d="M21.56 19.79A9.29 9.29 0 0 0 18.69 18l-0.17 -0.06A4.49 4.49 0 0 0 19.6 17a1.71 1.71 0 0 0 0.51 -1.33 0.49 0.49 0 0 0 -0.36 -0.41 1.11 1.11 0 0 1 -0.79 -0.56 1.69 1.69 0 0 1 -0.07 -0.83 25.11 25.11 0 0 0 0.18 -2.66c0 -0.43 0 -0.88 -0.06 -1.29a2.38 2.38 0 0 0 -0.4 -1 9.5 9.5 0 0 0 -2.24 -2.19 11.38 11.38 0 0 0 -2.77 -1.35 15 15 0 0 0 -6 -0.72 9.66 9.66 0 0 0 -2.39 3.79 12.62 12.62 0 0 0 -0.35 3.22c0 1 0.08 2.05 0 3.1a5.45 5.45 0 0 1 -0.06 0.9 2.18 2.18 0 0 1 -0.17 0.51 6.61 6.61 0 0 1 -0.53 0.51 0.53 0.53 0 0 0 -0.14 0.36 1.52 1.52 0 0 0 0.36 0.83 2.86 2.86 0 0 0 0.45 0.4 7.48 7.48 0 0 0 -2.61 1.95 5.06 5.06 0 0 0 -1.13 3 0.3 0.3 0 0 0 0.28 0.31 0.28 0.28 0 0 0 0.31 -0.27 4.29 4.29 0 0 1 1.1 -2.58 6.64 6.64 0 0 1 2.38 -1.55 8.84 8.84 0 0 0 -0.25 0.88 6.49 6.49 0 0 0 -0.11 0.77 6.74 6.74 0 0 0 0 0.77l0 1.8a0.34 0.34 0 0 0 0.31 0.36 0.33 0.33 0 0 0 0.35 -0.31c0.11 -0.59 0.23 -1.17 0.33 -1.75 0 -0.26 0.08 -0.5 0.11 -0.75s0.05 -0.5 0.06 -0.75l0 -1.36 0.59 -0.21a14.09 14.09 0 0 1 1.39 -0.39c-0.1 0.42 -0.2 0.84 -0.28 1.26a8.46 8.46 0 0 0 -0.11 0.88l0 0.88 0 2.07a0.34 0.34 0 0 0 0.31 0.35 0.33 0.33 0 0 0 0.35 -0.32c0.1 -0.67 0.23 -1.33 0.34 -2 0.05 -0.29 0.09 -0.58 0.12 -0.86s0.05 -0.59 0.06 -0.88 0 -0.32 0 -0.48a4.27 4.27 0 0 0 1.46 1.28 3.59 3.59 0 0 0 2 0.39 3.22 3.22 0 0 0 1.33 -0.44 3.64 3.64 0 0 0 0.94 -0.81l0.11 -0.15 0 0.1c0 0.26 0 0.53 -0.05 0.79s0 0.53 0 0.79c0 0.61 0.12 1.21 0.18 1.82a0.34 0.34 0 0 0 0.33 0.34 0.34 0.34 0 0 0 0.34 -0.34c0.06 -0.6 0.15 -1.2 0.2 -1.81 0 -0.25 0 -0.51 0.05 -0.77s0 -0.52 0 -0.78c0 -0.49 -0.07 -1 -0.11 -1.47a13.87 13.87 0 0 1 2.11 0.55 11.68 11.68 0 0 0 -0.24 1.41 8.31 8.31 0 0 0 0 1.41l0.43 2.28a0.34 0.34 0 0 0 0.36 0.31 0.32 0.32 0 0 0 0.3 -0.35v-4.81A8.3 8.3 0 0 1 21 20.36 4.16 4.16 0 0 1 22.26 23a0.33 0.33 0 0 0 0.36 0.29 0.32 0.32 0 0 0 0.29 -0.36 4.78 4.78 0 0 0 -1.35 -3.14Zm-7.7 -0.88a2.68 2.68 0 0 1 -0.77 0.52 3.11 3.11 0 0 1 -1 0.23 3.3 3.3 0 0 1 -1.49 -0.25A4 4 0 0 1 8.86 18a20.42 20.42 0 0 1 3.6 -0.29 18.78 18.78 0 0 1 2.26 0.17 6.79 6.79 0 0 1 -0.86 1.03ZM9 15.47a4.48 4.48 0 0 1 -1.14 -2.13 12.73 12.73 0 0 1 -0.27 -3.4 14.93 14.93 0 0 0 1.74 -0.36 9.26 9.26 0 0 0 1.22 -0.44 5.52 5.52 0 0 0 0.54 -0.28 5.25 5.25 0 0 0 0.49 -0.33l1 0.79a8.18 8.18 0 0 0 1.83 0.9 6.4 6.4 0 0 0 1.87 0.36 9.05 9.05 0 0 1 -0.14 2.2 4.35 4.35 0 0 1 -0.68 1.68 5.08 5.08 0 0 1 -3.16 1.9 3.56 3.56 0 0 1 -3.3 -0.89Zm8.87 2 -0.1 0.1a15.66 15.66 0 0 0 -3.48 -0.83 5.57 5.57 0 0 0 2 -1.84 5.46 5.46 0 0 0 0.71 -2 11.44 11.44 0 0 0 -0.06 -3.1 0.33 0.33 0 0 0 -0.65 0.06 6 6 0 0 1 -1.52 -0.47 8.42 8.42 0 0 1 -1.53 -1c-0.3 -0.21 -0.58 -0.51 -0.88 -0.75a3.16 3.16 0 0 0 -0.5 -0.34 0.59 0.59 0 0 0 -0.63 0.07c-0.1 0.07 -0.34 0.28 -0.35 0.28l-0.88 0.61a8.2 8.2 0 0 1 -1.29 0.65c-0.4 0.16 -0.81 0.28 -1.21 0.4a0.28 0.28 0 0 0 -0.24 -0.22 0.29 0.29 0 0 0 -0.26 0.27 14.48 14.48 0 0 0 0 4.16 5.32 5.32 0 0 0 1.2 2.67 4 4 0 0 0 0.89 0.72 18.27 18.27 0 0 0 -2.87 0.75l-0.66 0.28a2 2 0 0 1 -0.56 -0.42c-0.63 -0.7 0.17 -0.54 0.39 -0.92a2.57 2.57 0 0 0 0.31 -0.72 5.55 5.55 0 0 0 0.17 -1.07C6 13.76 6 12.7 6 11.67a15.5 15.5 0 0 1 0.19 -3A5.89 5.89 0 0 1 8 5.29a14.53 14.53 0 0 1 5.25 1 11.89 11.89 0 0 1 2.47 1.37 8.93 8.93 0 0 1 2 1.95 1.16 1.16 0 0 1 0.21 0.53c0.07 0.38 0 0.8 0.09 1.2 0.1 0.85 -0.1 2.11 0 2.94a1.88 1.88 0 0 0 0.26 0.94 1.92 1.92 0 0 0 1.09 0.7 1.24 1.24 0 0 1 -0.45 0.83 3.61 3.61 0 0 1 -1.09 0.74Z" fill="#020202" fill-rule="evenodd" stroke-width="1"></path>
      <path d="m4.7 6.07 0.19 0.18c0.83 0.3 0.91 0.09 0.32 -0.59a2.53 2.53 0 0 1 -0.57 -1.28 2.75 2.75 0 0 1 0.92 -2.32A3.74 3.74 0 0 1 7.9 1a4.87 4.87 0 0 1 2.22 0.47c1.8 0.78 3.33 2.22 5.13 2.93 1 0.38 2.23 0.5 3.29 0.89a3.61 3.61 0 0 1 1.12 0.62 3.66 3.66 0 0 1 1.17 2.65c0 1 -0.21 1.74 -1.27 2.09a0.34 0.34 0 0 0 -0.22 0.42 0.32 0.32 0 0 0 0.41 0.21 2.55 2.55 0 0 0 1.87 -2.7 4.49 4.49 0 0 0 -1.35 -3.34 4.35 4.35 0 0 0 -1.38 -0.86c-1 -0.42 -2.25 -0.58 -3.24 -1l-0.09 0a16.44 16.44 0 0 0 1.18 -1.3 3.36 3.36 0 0 0 0.44 -0.81 0.58 0.58 0 0 0 -0.35 -0.67c-0.15 -0.07 -0.53 -0.2 -0.6 -0.22A3.9 3.9 0 0 0 14.84 0.2a2.13 2.13 0 0 0 -1 0.37 1.43 1.43 0 0 0 -0.42 1.12 4.22 4.22 0 0 0 0 0.49 18.34 18.34 0 0 0 -2.86 -1.7A5.73 5.73 0 0 0 7.85 0a4.7 4.7 0 0 0 -2.92 1.43 3.53 3.53 0 0 0 -1 3.05 3.32 3.32 0 0 0 0.77 1.59Zm9.61 -4.42c0 -0.1 0 -0.19 0.1 -0.22a1.24 1.24 0 0 1 0.67 -0.12 4.46 4.46 0 0 1 0.86 0.12H16a2 2 0 0 1 -0.19 0.35c-0.27 0.44 -0.62 0.86 -0.89 1.27l-0.69 -0.39 0 -0.47a3.34 3.34 0 0 1 0.08 -0.54Z" fill="#4C57E6" fill-rule="evenodd" stroke-width="1"></path>
    </g>
  </g>
</svg>