<svg xmlns="http://www.w3.org/2000/svg" viewBox="0 0 24 24" id="Geometric-People-Woman--Streamline-Freehand">
  <desc>
    Geometric People Woman Streamline Icon: https://streamlinehq.com
  </desc>
  <g>
    <path d="M10.65 9.28a0.32 0.32 0 0 0 0.44 0.13 0.32 0.32 0 0 0 0.14 -0.41A2.53 2.53 0 0 0 10 7.6a2 2 0 0 0 -0.84 -0.21 2 2 0 0 0 -0.86 0.19A2.33 2.33 0 0 0 7.11 9a0.3 0.3 0 0 0 0.13 0.39 0.29 0.29 0 0 0 0.39 -0.14 1.82 1.82 0 0 1 1 -0.71 2.52 2.52 0 0 1 0.47 -0.06 1.77 1.77 0 0 1 1.55 0.8Z" fill="#020202" fill-rule="evenodd" stroke-width="1"></path>
    <path d="M13.34 9.32a2.21 2.21 0 0 1 1.46 -0.73 1.28 1.28 0 0 1 1.29 0.71 0.33 0.33 0 1 0 0.6 -0.26 2 2 0 0 0 -1.38 -1.5 1.56 1.56 0 0 0 -0.57 -0.06 1.78 1.78 0 0 0 -0.8 0.22A2.6 2.6 0 0 0 12.83 9a0.29 0.29 0 0 0 0.11 0.4 0.29 0.29 0 0 0 0.4 -0.08Z" fill="#020202" fill-rule="evenodd" stroke-width="1"></path>
    <path d="M14.38 11.71a0.33 0.33 0 1 0 -0.5 -0.43 2.23 2.23 0 0 1 -1.85 0.65 3.37 3.37 0 0 1 -0.55 -0.12 2.9 2.9 0 0 1 -1.26 -0.8 0.29 0.29 0 0 0 -0.4 -0.08 0.3 0.3 0 0 0 -0.08 0.41 3.2 3.2 0 0 0 1.31 1.44 2.35 2.35 0 0 0 0.88 0.26 2.37 2.37 0 0 0 0.91 -0.11 3 3 0 0 0 1.54 -1.22Z" fill="#020202" fill-rule="evenodd" stroke-width="1"></path>
    <g>
      <path d="M14.59 17.82a5.37 5.37 0 0 1 -0.58 0.67 3.31 3.31 0 0 1 -1 0.65 2.71 2.71 0 0 1 -1.38 0.2 3.21 3.21 0 0 1 -1.34 -0.47 4.39 4.39 0 0 1 -1.44 -1.58c-0.36 -0.26 -0.81 0 -0.68 0.24a4.77 4.77 0 0 0 1.53 2.19 3.68 3.68 0 0 0 1.81 0.73 3.46 3.46 0 0 0 1.93 -0.37 4.13 4.13 0 0 0 1.23 -1 7.47 7.47 0 0 0 0.67 -1c0.21 -0.65 -0.47 -0.59 -0.75 -0.26Z" fill="#4C57E6" fill-rule="evenodd" stroke-width="1"></path>
      <path d="m19.18 18.07 0.17 0a3.9 3.9 0 0 0 1.33 -0.8 2.64 2.64 0 0 0 0.62 -0.8 1.36 1.36 0 0 0 0.09 -0.84 0.57 0.57 0 0 0 -0.23 -0.34c-0.16 -0.14 -0.4 0 -0.75 -1a4 4 0 0 1 -0.17 -0.76c0 -0.45 -0.07 -0.9 -0.09 -1.35 0 -1 -0.08 -2 -0.14 -3.05a9.69 9.69 0 0 0 -0.25 -3.56A7.28 7.28 0 0 0 15.3 0.35a7 7 0 0 0 -3.91 -0.14 10.24 10.24 0 0 0 -6.2 4.31 7.58 7.58 0 0 0 -1.14 4.21c-0.13 1.37 -0.14 2.74 -0.26 4.13 0 0.4 -0.06 0.8 -0.13 1.2a2.4 2.4 0 0 1 -0.11 0.48 1.39 1.39 0 0 1 -0.22 0.37 1 1 0 0 1 -0.28 0.2 0.93 0.93 0 0 0 -0.34 0.31 0.9 0.9 0 0 0 -0.09 0.64 2.18 2.18 0 0 0 0.77 1.26 3.25 3.25 0 0 0 0.74 0.45c-0.19 0.14 -0.39 0.28 -0.56 0.43A6.49 6.49 0 0 0 1 23.3a0.29 0.29 0 0 0 0.58 0 5.82 5.82 0 0 1 2.52 -4.43 13.23 13.23 0 0 1 7.54 -2.42c4.5 0 9.42 3.07 10.71 7.31a0.35 0.35 0 0 0 0.41 0.23 0.34 0.34 0 0 0 0.23 -0.41 10.62 10.62 0 0 0 -3.81 -5.51ZM5.82 4.89A8.85 8.85 0 0 1 11.55 0.94a6.16 6.16 0 0 1 3.45 0.18 6.43 6.43 0 0 1 3.8 4.68 3 3 0 0 1 0.06 0.32 10.48 10.48 0 0 1 -2.63 -0.24 5.79 5.79 0 0 1 -2.49 -1.24 7.2 7.2 0 0 1 -0.89 -1.15 2.19 2.19 0 0 0 -0.39 -0.36 0.67 0.67 0 0 0 -0.75 0.06c-0.19 0.15 -0.65 0.57 -0.69 0.6a6.82 6.82 0 0 1 -0.69 0.51 5.83 5.83 0 0 1 -0.73 0.43 6 6 0 0 1 -1.82 0.55 17.94 17.94 0 0 1 -2.22 0.11c0.09 -0.17 0.17 -0.34 0.26 -0.5Zm1.53 11.18a12.67 12.67 0 0 0 -2.51 1.22 3.06 3.06 0 0 1 -0.7 -0.41 1.44 1.44 0 0 1 -0.57 -0.88s0 -0.07 0 -0.08a1.84 1.84 0 0 0 0.54 -0.25 1.9 1.9 0 0 0 0.37 -0.52 3.21 3.21 0 0 0 0.28 -0.86 13.08 13.08 0 0 0 0.16 -2l0 -0.3a8.92 8.92 0 0 0 3.36 3.4c0.19 0.11 0.38 0.2 0.57 0.29a13.17 13.17 0 0 0 -1.5 0.39Zm4.32 -0.74a7.19 7.19 0 0 1 -2.84 -0.89 7.51 7.51 0 0 1 -3.66 -4.31A6.68 6.68 0 0 1 5.3 6a22.43 22.43 0 0 0 2.57 0.1A6.75 6.75 0 0 0 10 5.66a6.69 6.69 0 0 0 0.89 -0.44 8.38 8.38 0 0 0 0.81 -0.56s0.17 -0.24 0.32 -0.4c0.24 0.26 0.43 0.61 0.67 0.89a2.31 2.31 0 0 0 0.36 0.34 6.75 6.75 0 0 0 3 1.24 10.89 10.89 0 0 0 2.95 0.06 8.09 8.09 0 0 1 -1 5.1 6.22 6.22 0 0 1 -1.61 1.74 12.69 12.69 0 0 1 -2.13 1.26 4.92 4.92 0 0 1 -2.59 0.44Zm6.72 2.17a12.83 12.83 0 0 0 -3.55 -1.67 11.93 11.93 0 0 0 2.63 -1.67 7 7 0 0 0 1.45 -1.71c0.07 -0.11 0.12 -0.24 0.18 -0.35l0 1.53a4.24 4.24 0 0 0 0.24 1 4.33 4.33 0 0 0 0.5 0.92 3.19 3.19 0 0 0 0.53 0.3 0.4 0.4 0 0 1 0 0.26 1.42 1.42 0 0 1 -0.3 0.44 3 3 0 0 1 -1 0.72 3.57 3.57 0 0 1 -0.68 0.23Z" fill="#020202" fill-rule="evenodd" stroke-width="1"></path>
    </g>
  </g>
</svg>