<svg xmlns="http://www.w3.org/2000/svg" viewBox="0 0 24 24" id="Geometric-Professions-Man-Carpenter--Streamline-Freehand">
  <desc>
    Geometric Professions Man Carpenter Streamline Icon: https://streamlinehq.com
  </desc>
  <g>
    <path d="M12.92 10.81a0.33 0.33 0 0 0 0.06 -0.46 1.77 1.77 0 0 0 -1.15 -0.94 1.55 1.55 0 0 0 -0.43 0 1.2 1.2 0 0 0 -0.6 0.23 1.74 1.74 0 0 0 -0.66 1.12 0.29 0.29 0 0 0 0.16 0.37 0.27 0.27 0 0 0 0.37 -0.15 1.2 1.2 0 0 1 0.64 -0.43 1.55 1.55 0 0 1 0.23 0 1 1 0 0 1 0.92 0.27 0.33 0.33 0 0 0 0.46 -0.01Z" fill="#020202" fill-rule="evenodd" stroke-width="1"></path>
    <path d="M15.12 11a0.88 0.88 0 0 1 0.83 -0.22 1.29 1.29 0 0 1 0.85 0.37 0.33 0.33 0 0 0 0.46 0.07 0.32 0.32 0 0 0 0.07 -0.46 2.07 2.07 0 0 0 -0.72 -0.88 1.25 1.25 0 0 0 -0.55 -0.19 1.13 1.13 0 0 0 -0.6 0.08 1.59 1.59 0 0 0 -0.8 0.88 0.28 0.28 0 0 0 0.06 0.4 0.29 0.29 0 0 0 0.4 -0.05Z" fill="#020202" fill-rule="evenodd" stroke-width="1"></path>
    <path d="M13.89 14.14A1.91 1.91 0 0 0 15.32 13a0.32 0.32 0 0 0 -0.11 -0.45 0.33 0.33 0 0 0 -0.45 0.11 1.21 1.21 0 0 1 -1.22 0.38 2.33 2.33 0 0 1 -0.38 -0.08 1.54 1.54 0 0 1 -0.85 -0.55 0.29 0.29 0 0 0 -0.53 0.24 2 2 0 0 0 0.94 1.25 1.67 1.67 0 0 0 0.68 0.23 1.61 1.61 0 0 0 0.49 0.01Z" fill="#020202" fill-rule="evenodd" stroke-width="1"></path>
    <path d="M5.36 12.15Z" fill="#020202" fill-rule="evenodd" stroke-width="1"></path>
    <path d="M7.05 19.71a2.21 2.21 0 0 0 -0.37 -0.87 1.39 1.39 0 0 0 -0.55 -0.45 2 2 0 0 0 -0.35 -0.11l0.44 -0.79a2.5 2.5 0 0 0 0.19 -0.6 0.53 0.53 0 0 0 -0.13 -0.39l-1 -1c0.06 -0.07 0.12 -0.17 0.15 -0.2a6.67 6.67 0 0 0 0.7 -0.78 1.56 1.56 0 0 0 0.29 -0.87 0.59 0.59 0 0 0 -0.09 -0.3A5 5 0 0 0 6 13a5.49 5.49 0 0 1 -0.47 -0.57 0.82 0.82 0 0 1 -0.12 -0.25 0.94 0.94 0 0 1 0.1 -0.1c0.12 -0.14 0.28 -0.28 0.4 -0.41a1.63 1.63 0 0 0 0.26 -0.36 2.13 2.13 0 0 0 0.2 -0.59 0.69 0.69 0 0 0 -0.08 -0.43 1 1 0 0 0 -0.31 -0.32 4.75 4.75 0 0 0 -0.77 -0.31 3.76 3.76 0 0 0 -2.28 -0.1 2.54 2.54 0 0 0 -1.35 0.93A3 3 0 0 0 1 11.7a16.23 16.23 0 0 0 0 2.73 14.79 14.79 0 0 0 0 1.63c0.06 0.81 0.15 1.61 0.22 2.41 0 0 0 0.08 0.06 0.12a1.93 1.93 0 0 0 -0.86 1.48 7.17 7.17 0 0 0 0 1.31c0 0.63 0.16 1.27 0.23 1.87 0 0.25 0.17 0.23 0.67 0.32a6.36 6.36 0 0 0 0.76 0.14c0.56 0.08 1.13 0.12 1.69 0.2l0.81 0.08 0.82 0 0.6 -0.12a1.65 1.65 0 0 0 1.07 -1.08 5.55 5.55 0 0 0 0.13 -1.9 6.9 6.9 0 0 0 -0.15 -1.18Zm-5.29 -5.24c0.05 -0.58 0 -1.45 0.17 -2.23a2.64 2.64 0 0 1 0.44 -1.18 1.63 1.63 0 0 1 1.06 -0.56 2.81 2.81 0 0 1 1.36 0.14c0.07 0 0.2 0.13 0.33 0.19 -0.16 0.28 -0.57 0.56 -0.7 0.87a0.91 0.91 0 0 0 -0.09 0.6 1.62 1.62 0 0 0 0.22 0.54 4.78 4.78 0 0 0 0.68 0.79s0.13 0.08 0.21 0.14a0.62 0.62 0 0 1 -0.11 0.27 5.72 5.72 0 0 1 -0.56 0.7c-0.06 0.07 -0.23 0.21 -0.32 0.32a0.69 0.69 0 0 0 -0.14 0.29 0.61 0.61 0 0 0 0 0.31 1.8 1.8 0 0 0 0.29 0.34l1 0.87 0 0.35 -0.46 0.92c-0.25 0 -0.5 -0.06 -0.74 -0.07l-1.45 0a3.89 3.89 0 0 0 -1.11 0.21c0 -0.76 -0.07 -1.53 -0.08 -2.3 -0.05 -0.47 -0.05 -0.98 0 -1.51Zm4.37 8a0.78 0.78 0 0 1 -0.46 0.53l-0.34 0.09c-0.23 0 -0.48 0 -0.72 0.05a6 6 0 0 1 -0.74 0c-0.56 0 -1.14 0 -1.71 -0.09q-0.35 0 -0.69 -0.09c-0.25 -0.06 -0.31 0.47 -0.35 -1.59a6.45 6.45 0 0 1 0.09 -1.17 1.11 1.11 0 0 1 0.57 -0.84 2.2 2.2 0 0 1 1.13 -0.22l1.39 0a8.58 8.58 0 0 1 0.87 0.1 3.93 3.93 0 0 1 0.44 0.1 0.38 0.38 0 0 1 0.18 0.12A1.22 1.22 0 0 1 6 20a7.21 7.21 0 0 1 0.14 1 4.55 4.55 0 0 1 -0.01 1.49Z" fill="#020202" fill-rule="evenodd" stroke-width="1"></path>
    <path d="M4.52 19.88c-0.24 0 -0.48 0.79 -0.48 0.81a0.82 0.82 0 0 0 0 0.22 0.87 0.87 0 0 0 0.05 0.22c0.25 0.8 0.44 0.82 0.59 0.8s0.27 -0.12 0.43 -0.86a0.64 0.64 0 0 0 0 -0.2 0.78 0.78 0 0 0 0 -0.22c-0.05 -0.08 -0.34 -0.78 -0.59 -0.77Z" fill="#4C57E6" fill-rule="evenodd" stroke-width="1"></path>
    <g>
      <path d="M9.34 3.61a6.72 6.72 0 0 1 0.66 -1 3.93 3.93 0 0 1 1.23 -1 4.63 4.63 0 0 1 1.41 -0.44 6 6 0 0 1 2.26 0.09A4.83 4.83 0 0 1 18 3.31l0.05 0.12c0.25 0.7 0.54 0.59 0.85 0.11a3.47 3.47 0 0 0 -0.23 -0.61A5.59 5.59 0 0 0 15.16 0.22a6 6 0 0 0 -2.7 -0.12 4.69 4.69 0 0 0 -3.12 2 9.37 9.37 0 0 0 -0.9 1.79c-0.08 0.31 -0.08 0.5 0.9 -0.28Z" fill="#020202" fill-rule="evenodd" stroke-width="1"></path>
      <path d="M9.79 8.26c1.06 0.07 2.12 0.23 3.16 0.3 4.65 -0.19 5.48 0.32 6.51 -0.32a1.9 1.9 0 0 0 0.9 -2.11c-0.51 -2.35 -3.44 -2.34 -6.63 -2.5a14.9 14.9 0 0 0 -4.46 0.43 4.43 4.43 0 0 0 -1.27 0.6 2.46 2.46 0 0 0 -1 1.62 1.52 1.52 0 0 0 0.49 1.28c0.83 0.7 1.07 0.63 2.3 0.7Zm6.32 -3.46c0.31 0 0.62 0.09 0.92 0.15a7.13 7.13 0 0 1 0.94 0.21 2.62 2.62 0 0 1 0.53 0.2 1.6 1.6 0 0 1 0.8 1 0.88 0.88 0 0 1 -0.42 1 2.14 2.14 0 0 1 -0.85 0.29c-0.57 0.09 -1.19 0.1 -1.65 0.14H16c0.06 -0.37 0.12 -0.72 0.17 -1.09a4.21 4.21 0 0 0 0 -0.5 4.34 4.34 0 0 0 0 -0.51c0.01 -0.31 -0.03 -0.59 -0.06 -0.89Zm-3.36 -0.2c0.72 0 1.44 0 2.17 0.08l0.49 0a5.73 5.73 0 0 0 -0.25 0.9 3.17 3.17 0 0 0 -0.05 0.53 3.09 3.09 0 0 0 0 0.53c0 0.38 0.11 0.74 0.18 1.12l-2 0c-0.67 0 -1.29 0 -1.94 -0.08 0 -0.35 0.11 -0.69 0.15 -1a4.38 4.38 0 0 0 0 -0.51 4.32 4.32 0 0 0 0 -0.5c0 -0.36 -0.13 -0.69 -0.2 -1ZM7.8 6.16a1.69 1.69 0 0 1 0.67 -0.86 4.06 4.06 0 0 1 1.58 -0.58c0.21 0 0.43 -0.06 0.65 -0.08 -0.07 0.33 -0.15 0.66 -0.19 1a2.83 2.83 0 0 0 0 0.5 4.36 4.36 0 0 0 0 0.51c0 0.35 0.11 0.67 0.17 1l-0.87 0a9.56 9.56 0 0 1 -1.54 -0.39 1 1 0 0 1 -0.27 -0.2 0.83 0.83 0 0 1 -0.2 -0.9Z" fill="#4C57E6" fill-rule="evenodd" stroke-width="1"></path>
      <path d="M22.64 19.18a7.83 7.83 0 0 0 -3.31 -2.58 14.44 14.44 0 0 0 -3 -0.91 4.35 4.35 0 0 0 1.7 -1.29 5.65 5.65 0 0 0 1.05 -2.63 12.37 12.37 0 0 0 0.07 -2.58c-0.22 -0.62 -0.69 -0.43 -0.71 0a12.44 12.44 0 0 1 -0.19 2.43 4.58 4.58 0 0 1 -1 2.17 4.6 4.6 0 0 1 -3.93 1.32 5.46 5.46 0 0 1 -3.9 -1.71 4.14 4.14 0 0 1 -0.82 -2 12.84 12.84 0 0 1 -0.13 -2.22c-0.08 -0.84 -0.6 -0.63 -0.65 0a13.82 13.82 0 0 0 0 2.32 5.11 5.11 0 0 0 0.9 2.5 5.54 5.54 0 0 0 2.75 1.86 11.25 11.25 0 0 0 -3.86 1.78 0.27 0.27 0 0 0 -0.07 0.39 0.29 0.29 0 0 0 0.4 0.08 9.71 9.71 0 0 1 1.78 -0.86c-0.07 0.59 -0.15 1.16 -0.19 1.75l0 0.81c0 0.27 0 0.54 0.07 0.8 0.09 0.63 0.21 1.25 0.35 1.87a0.33 0.33 0 0 0 0.36 0.29 0.32 0.32 0 0 0 0.28 -0.36l0 -1.91 0 -0.82c0.76 0 1.54 0 2.35 -0.08l1.25 -0.11c0.42 0 0.83 -0.1 1.25 -0.12a9.92 9.92 0 0 1 1.22 0 7.35 7.35 0 0 0 0.07 0.82c0.08 0.64 0.21 1.27 0.33 1.9a0.32 0.32 0 0 0 0.35 0.29 0.34 0.34 0 0 0 0.3 -0.35l0 -1.89 0 -0.81 0 -0.8c0 -0.47 -0.1 -0.93 -0.15 -1.4a13.15 13.15 0 0 1 1.33 0.47l0.31 0.13c-0.08 0.45 -0.16 0.88 -0.2 1.34l0 0.67c0 0.22 0 0.45 0.06 0.67 0.08 0.52 0.2 1 0.32 1.55a0.33 0.33 0 0 0 0.36 0.29 0.34 0.34 0 0 0 0.29 -0.36c0 -0.52 0 -1 0.06 -1.54l0 -0.66c0 -0.21 0 -0.43 -0.05 -0.65s-0.09 -0.65 -0.14 -1a6.33 6.33 0 0 1 2 1.64 4.82 4.82 0 0 1 0.95 3.49 0.33 0.33 0 0 0 0.29 0.36 0.33 0.33 0 0 0 0.36 -0.29 5.58 5.58 0 0 0 -0.86 -4.06Zm-5.95 -0.65a0.75 0.75 0 0 0 0 0.15 11.22 11.22 0 0 0 -2.2 -0.28l-1 0c-0.34 0 -0.64 0.07 -1 0.13 -0.68 0.13 -1.32 0.31 -1.94 0.47 -0.07 -0.65 -0.19 -1.29 -0.27 -1.94a0.43 0.43 0 0 1 0 -0.07 10.94 10.94 0 0 1 3.09 -0.52 13.35 13.35 0 0 1 2.27 0.17c0.43 0.07 0.85 0.17 1.27 0.28a14.12 14.12 0 0 0 -0.22 1.61Z" fill="#020202" fill-rule="evenodd" stroke-width="1"></path>
    </g>
  </g>
</svg>