<svg xmlns="http://www.w3.org/2000/svg" viewBox="0 0 24 24" id="Geometric-Old-People-Woman-4--Streamline-Freehand">
  <desc>
    Geometric Old People Woman 4 Streamline Icon: https://streamlinehq.com
  </desc>
  <g>
    <path d="M12 14a2.13 2.13 0 0 0 0.58 -0.21 3.27 3.27 0 0 0 1 -0.87 0.32 0.32 0 0 0 0 -0.47 0.33 0.33 0 0 0 -0.47 0 3.38 3.38 0 0 1 -1 0.4 2.18 2.18 0 0 1 -0.55 0.09 1.31 1.31 0 0 1 -0.95 -0.23 0.29 0.29 0 0 0 -0.41 0 0.28 0.28 0 0 0 0 0.41 1.81 1.81 0 0 0 1.12 0.91A1.51 1.51 0 0 0 12 14Z" fill="#020202" fill-rule="evenodd" stroke-width="1"></path>
    <path d="M9.45 9.61a1.18 1.18 0 0 1 0.8 0.07 0.33 0.33 0 0 0 0.43 -0.5 1.72 1.72 0 0 0 -1.28 -0.67 1.29 1.29 0 0 0 -0.39 0 1.28 1.28 0 0 0 -0.52 0.23 1.81 1.81 0 0 0 -0.68 1 0.29 0.29 0 1 0 0.52 0.27A1.49 1.49 0 0 1 9 9.72a1.44 1.44 0 0 1 0.45 -0.11Z" fill="#020202" fill-rule="evenodd" stroke-width="1"></path>
    <path d="M13.46 9.77a2.65 2.65 0 0 1 0.44 -0.25 2.79 2.79 0 0 1 0.39 -0.1 1.09 1.09 0 0 1 0.25 0l0.18 0a0.53 0.53 0 0 1 0.25 0.05c0.13 0.08 0.24 0.17 0.37 0.24a0.33 0.33 0 1 0 0.45 -0.49c-0.12 -0.15 -0.21 -0.31 -0.33 -0.45a1.58 1.58 0 0 0 -0.41 -0.31 1.43 1.43 0 0 0 -1.11 0 0.92 0.92 0 0 0 -0.27 0.16 2.36 2.36 0 0 0 -0.68 0.89 0.3 0.3 0 0 0 0 0.41 0.29 0.29 0 0 0 0.47 -0.15Z" fill="#020202" fill-rule="evenodd" stroke-width="1"></path>
    <path d="M15.18 11.6a2.1 2.1 0 0 0 -0.26 -0.33 1.59 1.59 0 0 0 -0.33 -0.25 2.74 2.74 0 0 0 -0.93 -0.34 0.3 0.3 0 0 0 -0.4 0.14 0.3 0.3 0 0 0 0.13 0.39 6.21 6.21 0 0 1 0.52 0.63l0.23 0.24 0.25 0.22c0.22 0.18 0.45 0.33 0.65 0.52a0.33 0.33 0 0 0 0.46 0.1 0.34 0.34 0 0 0 0.09 -0.47 4.15 4.15 0 0 0 -0.41 -0.85Z" fill="#020202" fill-rule="evenodd" stroke-width="1"></path>
    <path d="M10.28 10.9a0.3 0.3 0 0 0 -0.41 0 3.31 3.31 0 0 0 -0.81 0.59 1.81 1.81 0 0 0 -0.24 0.37 1.56 1.56 0 0 0 -0.15 0.41 3.36 3.36 0 0 0 -0.06 1 0.33 0.33 0 0 0 0.66 0.09 4.26 4.26 0 0 1 0.4 -0.73c0.08 -0.16 0.17 -0.3 0.24 -0.46s0.2 -0.57 0.37 -0.87a0.28 0.28 0 0 0 0 -0.4Z" fill="#020202" fill-rule="evenodd" stroke-width="1"></path>
    <g>
      <path d="M16.92 18.55a2.81 2.81 0 0 1 0 0.65 1.59 1.59 0 0 1 -1.19 1.56 2.89 2.89 0 0 1 -1.56 0.13 5 5 0 0 1 -1.37 -0.47l-0.06 -0.3 0.09 0A4 4 0 0 0 15.24 18l0 -0.06c0.39 -1 -0.35 -1 -0.81 -0.23a3.63 3.63 0 0 1 -0.34 0.46 3.2 3.2 0 0 1 -1.53 0.9 1.86 1.86 0 0 1 -1.57 -0.2 4.07 4.07 0 0 1 -0.48 -0.33c-0.15 -0.13 -0.31 -0.26 -0.44 -0.39L10 18c-0.67 -0.9 -1.28 -0.61 -0.8 0.25a4.05 4.05 0 0 0 0.21 0.35 5.89 5.89 0 0 0 0.44 0.55 6 6 0 0 0 0.53 0.49 2.82 2.82 0 0 0 1.51 0.53 4.91 4.91 0 0 1 -0.67 0.61 2.32 2.32 0 0 1 -0.92 0.41 2.16 2.16 0 0 1 -1.7 -0.36 2.09 2.09 0 0 1 -1.08 -2c-0.16 -1 -0.67 -0.63 -0.92 0.39l0 0.36a3 3 0 0 0 4.94 2 2.34 2.34 0 0 0 0.32 -0.31l0 0.91c0.05 0.48 0.13 0.95 0.14 1.43a0.34 0.34 0 0 0 0.29 0.37 0.34 0.34 0 0 0 0.37 -0.3 10 10 0 0 0 0.34 -1.45l0 -0.63 0 -0.28a5 5 0 0 0 1.43 0.53 3.55 3.55 0 0 0 1.68 0A2.52 2.52 0 0 0 18 19.87a2.83 2.83 0 0 0 0 -0.77c-0.32 -1.48 -1 -1.45 -1.08 -0.55Z" fill="#4C57E6" fill-rule="evenodd" stroke-width="1"></path>
      <path d="M21.66 21.24a14.6 14.6 0 0 0 -1.17 -2 8.86 8.86 0 0 0 -1 -1.21 9.28 9.28 0 0 0 -4.52 -2.23 6.06 6.06 0 0 0 1.58 -1s0 -0.23 0.44 0a2 2 0 0 0 1.69 0.22A3 3 0 0 0 20 14a4.14 4.14 0 0 0 0.8 -1.66 6.14 6.14 0 0 0 0.2 -1.75 11.77 11.77 0 0 0 -0.3 -1.38 1.27 1.27 0 0 1 0 -0.43l0.3 -0.52a4.87 4.87 0 0 0 0.39 -1.13 3.7 3.7 0 0 0 0.07 -1.24 3.93 3.93 0 0 0 -1.31 -2.47 4.72 4.72 0 0 0 -2.53 -1.15 6.45 6.45 0 0 0 -1.35 0.16h-0.17c-0.06 -0.09 -0.16 -0.26 -0.2 -0.31l-0.74 -0.76a5.33 5.33 0 0 0 -1.72 -1A6 6 0 0 0 10 0.18a5.85 5.85 0 0 0 -1.42 0.53 7 7 0 0 0 -1.13 0.76 6 6 0 0 0 -1 1l-0.56 1 -0.89 0.24a4 4 0 0 0 -1 0.55 4.46 4.46 0 0 0 -1.4 1.93 3.13 3.13 0 0 0 -0.25 1.38 2.89 2.89 0 0 0 0.2 0.88A9.53 9.53 0 0 1 3.18 10c-0.05 0.11 -0.23 0.53 -0.26 0.64a5 5 0 0 0 0 1.22 3.11 3.11 0 0 0 0.36 1.19 2.55 2.55 0 0 0 1.61 1.34 2 2 0 0 0 1.78 -0.55 6.25 6.25 0 0 0 3 2.12l-0.32 0.04a12.4 12.4 0 0 0 -2.46 1 11.65 11.65 0 0 0 -2.79 2.11 7.1 7.1 0 0 0 -1.79 3 0.3 0.3 0 0 0 0.57 0.16 6.05 6.05 0 0 1 1.77 -2.59 12.57 12.57 0 0 1 7.54 -3c3.69 -0.21 6.4 1.23 7.87 3.26a14.11 14.11 0 0 1 1 1.58 0.32 0.32 0 0 0 0.44 0.15 0.33 0.33 0 0 0 0.16 -0.43ZM5 13.79a1.88 1.88 0 0 1 -1.14 -1 2.35 2.35 0 0 1 -0.25 -0.94 3.38 3.38 0 0 1 0.07 -1c0 -0.1 0.17 -0.34 0.23 -0.5A0.71 0.71 0 0 0 4 10a9 9 0 0 0 -0.62 -1.79 2 2 0 0 1 -0.12 -0.65 2.28 2.28 0 0 1 0.21 -1A4 4 0 0 1 4 5.64a3.5 3.5 0 0 1 0.63 -0.58 2.8 2.8 0 0 1 0.74 -0.4c0.17 -0.06 0.45 -0.08 0.68 -0.15a1.69 1.69 0 0 0 0.45 -0.18 1.52 1.52 0 0 0 0.42 -0.45c0.16 -0.24 0.26 -0.55 0.42 -0.75a4.32 4.32 0 0 1 0.79 -0.81 6.11 6.11 0 0 1 1 -0.63 5 5 0 0 1 1.15 -0.43 5.06 5.06 0 0 1 1.22 -0.13 4.56 4.56 0 0 1 1.58 0.27 4.43 4.43 0 0 1 1.37 0.8l0.59 0.59c0.06 0.08 0.17 0.29 0.27 0.41a0.94 0.94 0 0 0 0.29 0.23 1.56 1.56 0 0 0 0.57 0.1c0.43 0 0.93 -0.24 1.34 -0.2a3.62 3.62 0 0 1 2 0.85 3 3 0 0 1 1 1.84 2.91 2.91 0 0 1 0 0.93 4.3 4.3 0 0 1 -0.3 0.94c-0.07 0.15 -0.24 0.32 -0.32 0.49a1 1 0 0 0 -0.09 0.27 2.25 2.25 0 0 0 0 0.73 8.69 8.69 0 0 1 0.33 1.26 5.52 5.52 0 0 1 -0.1 1.56 3.43 3.43 0 0 1 -0.62 1.37 2.1 2.1 0 0 1 -1 0.73c-1 0.31 -1.25 0.08 -1.48 -0.08a6.52 6.52 0 0 0 1.16 -2.87 8.16 8.16 0 0 0 -0.18 -3.65 0.32 0.32 0 0 0 -0.41 -0.22 0.33 0.33 0 0 0 -0.23 0.41s0 0 -0.2 0A7.33 7.33 0 0 1 15 7.26 6.43 6.43 0 0 1 13.29 6a13.25 13.25 0 0 0 -1 -1.09 1 1 0 0 0 -0.9 -0.21 1.05 1.05 0 0 0 -0.29 0.24c-0.12 0.13 -0.27 0.38 -0.31 0.42 -0.16 0.19 -0.33 0.38 -0.51 0.56a6.13 6.13 0 0 1 -0.56 0.49 5 5 0 0 1 -1.6 0.82 8.06 8.06 0 0 1 -1.61 0.32 0.17 0.17 0 0 0 0 -0.07 0.29 0.29 0 0 0 -0.23 -0.35 0.3 0.3 0 0 0 -0.35 0.23 12.45 12.45 0 0 0 -0.4 2.82 6.65 6.65 0 0 0 0.26 2 5 5 0 0 0 0.55 1.2 1.42 1.42 0 0 1 -1.34 0.41Zm5.66 1.34a5.29 5.29 0 0 1 -4.1 -3.24 6.34 6.34 0 0 1 -0.34 -2.14 11.91 11.91 0 0 1 0.15 -1.57A9.42 9.42 0 0 0 8.27 8a6.24 6.24 0 0 0 2 -0.75 6.14 6.14 0 0 0 0.73 -0.51 7.36 7.36 0 0 0 0.62 -0.63s0.08 -0.19 0.15 -0.3a8.21 8.21 0 0 1 0.83 1 7.78 7.78 0 0 0 2.1 1.25c2.56 1 3.39 -0.51 2.62 3.13A5 5 0 0 1 15.83 14a6 6 0 0 1 -5.17 1.13Z" fill="#020202" fill-rule="evenodd" stroke-width="1"></path>
    </g>
  </g>
</svg>