<svg xmlns="http://www.w3.org/2000/svg" viewBox="0 0 24 24" id="Geometric-Crime-Man-Thug--Streamline-Freehand">
  <desc>
    Geometric Crime Man Thug Streamline Icon: https://streamlinehq.com
  </desc>
  <g>
    <path d="M10.8 12.38a1.47 1.47 0 0 0 0.55 0.12 1.33 1.33 0 0 0 0.55 -0.09 2.31 2.31 0 0 0 0.95 -0.68 0.34 0.34 0 0 0 -0.41 -0.53 2 2 0 0 1 -0.87 0.17 3.11 3.11 0 0 1 -0.43 0 2.35 2.35 0 0 1 -0.8 -0.2 0.29 0.29 0 1 0 -0.4 0.43 2.2 2.2 0 0 0 0.86 0.78Z" fill="#020202" fill-rule="evenodd" stroke-width="1"></path>
    <path d="M7.59 6.66a2 2 0 0 1 0.82 -0.42 2.36 2.36 0 0 1 0.51 -0.12 1.38 1.38 0 0 1 0.93 0.13 0.33 0.33 0 0 0 0.47 0 0.32 0.32 0 0 0 0 -0.47A1.94 1.94 0 0 0 8.89 5a1.39 1.39 0 0 0 -0.41 0 1.54 1.54 0 0 0 -0.58 0.23 2.09 2.09 0 0 0 -0.81 1.07 0.29 0.29 0 1 0 0.5 0.31Z" fill="#020202" fill-rule="evenodd" stroke-width="1"></path>
    <path d="M12.86 6.31a2 2 0 0 1 0.89 -0.31l0.34 0a1.45 1.45 0 0 1 1.14 0.36 0.35 0.35 0 0 0 0.48 0.06 0.34 0.34 0 0 0 0.06 -0.42 2.09 2.09 0 0 0 -1.24 -1 1.61 1.61 0 0 0 -0.44 -0.06 1.49 1.49 0 0 0 -0.62 0.12 2.16 2.16 0 0 0 -1 0.91 0.3 0.3 0 0 0 0.43 0.41Z" fill="#020202" fill-rule="evenodd" stroke-width="1"></path>
    <g>
      <path d="M4.12 18.23c0 0.23 0 0.47 -0.08 0.71s-0.06 0.63 -0.08 1 0 0.64 0 1c0 0.77 0 1.52 0.1 2.29a0.34 0.34 0 0 0 0.68 0c0.07 -0.78 0.21 -1.53 0.3 -2.3 0.05 -0.51 0.1 -1 0.1 -1.55A11.9 11.9 0 0 0 5.05 18c-0.16 -1.13 -0.85 -0.34 -0.93 0.23Z" fill="#4C57E6" fill-rule="evenodd" stroke-width="1"></path>
      <path d="M15.57 17c0 0.22 -0.05 0.43 -0.08 0.64a7.64 7.64 0 0 1 -0.17 0.77 5.62 5.62 0 0 1 -0.27 0.72 1.72 1.72 0 0 1 -1.16 0.88 10.93 10.93 0 0 1 -2.73 0.25 7.77 7.77 0 0 1 -1.74 0 1.09 1.09 0 0 1 -0.75 -0.35 0.7 0.7 0 0 1 -0.14 -0.38 4.94 4.94 0 0 1 -0.06 -0.63c0 -0.44 -0.05 -0.88 -0.05 -1.33l0 -0.5c0 -0.92 -0.58 -0.62 -0.74 0.19l-0.06 0.62 0 1.05a5.19 5.19 0 0 0 0 1 1.62 1.62 0 0 0 0.22 0.54 2.09 2.09 0 0 0 1.37 0.83 8.48 8.48 0 0 0 2 0.07 11.19 11.19 0 0 0 3 -0.38 2.62 2.62 0 0 0 1.69 -1.54 6.09 6.09 0 0 0 0.25 -0.86 8.74 8.74 0 0 0 0.14 -0.87l0 -0.52c-0.13 -0.7 -0.73 -0.74 -0.72 -0.2Z" fill="#4C57E6" fill-rule="evenodd" stroke-width="1"></path>
      <path d="M23.89 21.62a5.82 5.82 0 0 0 -0.17 -0.83A6.17 6.17 0 0 0 21.88 18a12.38 12.38 0 0 0 -4.31 -2.38 21.23 21.23 0 0 0 -3.73 -0.94 6.72 6.72 0 0 0 4.33 -4.72 8.7 8.7 0 0 0 -0.09 -4.47 9.14 9.14 0 0 0 -0.92 -2.21 5.2 5.2 0 0 0 -1.73 -1.78 7.25 7.25 0 0 0 -3.49 -1C5.81 0.27 4.38 6 4.24 7.8a6.56 6.56 0 0 0 0.81 3.82 7 7 0 0 0 3.76 3 15.57 15.57 0 0 0 -4 1.2A10.82 10.82 0 0 0 2 17.66 5.81 5.81 0 0 0 0.62 19.5a6 6 0 0 0 -0.42 1.36 17.18 17.18 0 0 0 -0.2 2 0.3 0.3 0 0 0 0.27 0.32A0.31 0.31 0 0 0 0.6 23a13.87 13.87 0 0 1 0.27 -2 5 5 0 0 1 0.41 -1.18A5.26 5.26 0 0 1 2.93 18 15.15 15.15 0 0 1 12 15.58c3.67 0.18 7.84 1.8 9.32 3A5.41 5.41 0 0 1 23 21a6 6 0 0 1 0.18 0.73c0.06 0.38 0.1 0.76 0.13 1.15a0.35 0.35 0 0 0 0.37 0.31 0.34 0.34 0 0 0 0.31 -0.36c0.01 -0.4 0.01 -0.83 -0.1 -1.21ZM5.4 10.25a5.93 5.93 0 0 1 -0.4 -2.4 6.58 6.58 0 0 1 1.06 -3.3c2.3 -3.44 4.51 -3.27 5.8 -3.18a6.32 6.32 0 0 1 3 0.92 4.12 4.12 0 0 1 1.44 1.48 7.73 7.73 0 0 1 0.76 2 7.62 7.62 0 0 1 0 3.91c-0.06 0.22 -0.15 0.45 -0.23 0.67a0.3 0.3 0 0 0 -0.23 0 1.82 1.82 0 0 1 -0.69 0.15 4 4 0 0 1 -1.14 -0.12c-0.07 0 -0.3 -0.17 -0.39 -0.13l-0.38 -0.7a3.93 3.93 0 0 0 -1.22 -1.11A3.62 3.62 0 0 0 11.2 8h-0.47a4.17 4.17 0 0 0 -0.49 0.08 2.38 2.38 0 0 0 -1.05 0.58 11.22 11.22 0 0 0 -1.13 1.73 1.84 1.84 0 0 0 -0.46 0.06 6.87 6.87 0 0 1 -1 0 3.94 3.94 0 0 1 -1 -0.19 0.3 0.3 0 0 0 -0.2 -0.01Zm4.68 3.63a6.21 6.21 0 0 1 -4.25 -2.73c0 -0.08 -0.08 -0.16 -0.12 -0.24a4.39 4.39 0 0 0 0.79 0.21 6.63 6.63 0 0 0 1.11 0.11 4.51 4.51 0 0 0 0.67 0 0.49 0.49 0 0 0 0.32 -0.16c0.46 -0.46 0.75 -1 1.16 -1.49a1.44 1.44 0 0 1 0.76 -0.47l0.63 0a2.74 2.74 0 0 1 1.14 0.31 3.25 3.25 0 0 1 1 0.74l0.45 0.72a0.68 0.68 0 0 0 0.31 0.23 2.71 2.71 0 0 0 0.63 0.1 5.15 5.15 0 0 0 1.36 0 3 3 0 0 0 0.43 -0.09A5.43 5.43 0 0 1 15 12.79a6.32 6.32 0 0 1 -4.92 1.09Z" fill="#020202" fill-rule="evenodd" stroke-width="1"></path>
      <path d="M19.79 18.4c-0.07 -0.74 -0.92 -1.11 -1 -0.35 0 0.34 -0.07 0.68 -0.08 1a13.13 13.13 0 0 0 0.06 1.54c0.06 0.76 0.18 1.51 0.24 2.28a0.32 0.32 0 0 0 0.33 0.34 0.33 0.33 0 0 0 0.34 -0.33c0.08 -0.76 0.14 -1.5 0.16 -2.26l0 -0.95 0 -1c-0.02 -0.05 -0.04 -0.16 -0.05 -0.27Z" fill="#4C57E6" fill-rule="evenodd" stroke-width="1"></path>
    </g>
  </g>
</svg>