<svg xmlns="http://www.w3.org/2000/svg" viewBox="0 0 24 24" id="Geometric-History-Man-Aztec-Leader--Streamline-Freehand">
  <desc>
    Geometric History Man Aztec Leader Streamline Icon: https://streamlinehq.com
  </desc>
  <g>
    <path d="M12.76 13.89a1.22 1.22 0 0 1 -0.93 0.27h-0.26c-0.23 0 -0.46 0 -0.62 -0.21a0.3 0.3 0 0 0 -0.4 -0.12 0.29 0.29 0 0 0 -0.12 0.39 1.43 1.43 0 0 0 0.88 1 1.39 1.39 0 0 0 0.57 0.08 1.71 1.71 0 0 0 0.55 -0.14 1.79 1.79 0 0 0 0.89 -0.89 0.33 0.33 0 0 0 -0.56 -0.36Z" fill="#020202" fill-rule="evenodd" stroke-width="1"></path>
    <path d="M11.18 12.66a0.32 0.32 0 0 0 0 -0.46 1.69 1.69 0 0 0 -0.87 -0.69 0.76 0.76 0 0 0 -0.3 0 1.09 1.09 0 0 0 -0.47 0.09 1.53 1.53 0 0 0 -0.69 0.69 0.3 0.3 0 0 0 0 0.41 0.29 0.29 0 0 0 0.41 0 1.43 1.43 0 0 1 0.57 -0.08 0.89 0.89 0 0 1 0.23 0 1.1 1.1 0 0 1 0.18 0 1.3 1.3 0 0 1 0.49 0.12 0.32 0.32 0 0 0 0.45 -0.08Z" fill="#020202" fill-rule="evenodd" stroke-width="1"></path>
    <path d="M14.22 11.52a0.93 0.93 0 0 0 -0.48 -0.15 0.88 0.88 0 0 0 -0.52 0.09 1.39 1.39 0 0 0 -0.64 0.76 0.28 0.28 0 0 0 0 0.41 0.29 0.29 0 0 0 0.4 0 1.22 1.22 0 0 1 0.48 -0.14s0.07 0 0.1 0h0.13a1.37 1.37 0 0 1 0.64 0.19 0.34 0.34 0 0 0 0.47 0 0.33 0.33 0 0 0 0 -0.47 1.93 1.93 0 0 0 -0.58 -0.69Z" fill="#020202" fill-rule="evenodd" stroke-width="1"></path>
    <g>
      <path d="M21.4 21.89a6.3 6.3 0 0 0 -0.54 -1 8.21 8.21 0 0 0 -1.71 -1.93 26.28 26.28 0 0 1 0 -3.21 11.94 11.94 0 0 0 -0.15 -2.52 5.27 5.27 0 0 0 -0.69 -1.77c-0.82 -1.12 -1.28 -0.66 -1 0a4.13 4.13 0 0 1 0.46 1 8 8 0 0 1 0.18 1c0.08 0.52 0.11 1.07 0.15 1.62 0.07 1.07 0.11 2.17 0.27 3.18a8.52 8.52 0 0 0 -1.55 -0.82 10.75 10.75 0 0 0 -2.38 -0.65 4.18 4.18 0 0 0 1.23 -1.28 5.78 5.78 0 0 0 0.75 -2.18 10.47 10.47 0 0 0 0 -1.94c-0.24 -1 -0.78 -0.76 -0.73 0a9 9 0 0 1 -0.15 1.8 4.83 4.83 0 0 1 -0.74 1.79 3.57 3.57 0 0 1 -2.93 1.5 3.46 3.46 0 0 1 -3 -1.36 4.63 4.63 0 0 1 -0.76 -1.73 10.29 10.29 0 0 1 -0.22 -2c0 -0.68 -0.66 -0.45 -0.65 0a11.9 11.9 0 0 0 0.07 2.15 5.54 5.54 0 0 0 0.75 2.13 4.09 4.09 0 0 0 1.14 1.21l-0.27 0a9.7 9.7 0 0 0 -3.24 1.16c0 -0.16 0.06 -0.33 0.08 -0.5 0.08 -0.81 0 -1.67 0 -2.44A7.15 7.15 0 0 1 6 13.31a4.84 4.84 0 0 1 0.41 -1.12 4.44 4.44 0 0 1 0.59 -0.73c-0.36 -0.45 -0.72 -0.44 -1.09 0a4.46 4.46 0 0 0 -0.54 0.77 4.59 4.59 0 0 0 -0.45 1.15 7.26 7.26 0 0 0 -0.18 1.78c0 0.76 0.26 1.6 0.29 2.41a2.8 2.8 0 0 1 -0.1 0.92l0 0.14a7.84 7.84 0 0 0 -0.64 0.5 7.1 7.1 0 0 0 -2.31 4.56 0.29 0.29 0 0 0 0.25 0.33 0.3 0.3 0 0 0 0.33 -0.25 6.93 6.93 0 0 1 0.32 -1.25 4.53 4.53 0 0 0 0.91 0.45 6.16 6.16 0 0 0 1 0.28 6 6 0 0 0 2.31 0.05 6.74 6.74 0 0 0 1.48 -0.48A9.86 9.86 0 0 0 10 22c0.85 -0.61 1.66 -1.34 2.52 -2 0 0.85 0.49 1.57 1.8 1.7a3.19 3.19 0 0 0 1.48 -0.27 5.47 5.47 0 0 0 1.2 1.26 4 4 0 0 0 0.94 0.54 4.6 4.6 0 0 0 1 0.3 5.94 5.94 0 0 0 2.25 -0.12 2.31 2.31 0 0 1 0.1 0.28 0.33 0.33 0 0 0 0.42 0.21 0.32 0.32 0 0 0 0.21 -0.41 12.17 12.17 0 0 0 -0.52 -1.6ZM12.76 19a0.4 0.4 0 0 0 -0.15 0c-1.11 0.65 -2.12 1.4 -3.17 2a11.72 11.72 0 0 1 -1.35 0.73 8.24 8.24 0 0 1 -1.24 0.43 5.92 5.92 0 0 1 -2 0.2 5.31 5.31 0 0 1 -0.85 -0.03 4.31 4.31 0 0 1 -0.84 -0.33s-0.06 0 -0.09 0a6.39 6.39 0 0 1 1.74 -2.28A8.11 8.11 0 0 1 9.08 18a19.82 19.82 0 0 1 4.44 -0.13 3.63 3.63 0 0 0 -0.76 1.13Zm3.35 0.68a1.47 1.47 0 0 1 -1.7 0.88c-0.77 0 -1 -0.48 -0.9 -1a3 3 0 0 1 0.86 -1.56q0.6 0.09 1.2 0.24a1.45 1.45 0 0 1 0.54 1.47Zm3.1 2.8a7.42 7.42 0 0 1 -0.83 -0.3 8.36 8.36 0 0 1 -0.79 -0.4 6.84 6.84 0 0 1 -1.15 -0.78 2.09 2.09 0 0 0 0.56 -1 2.14 2.14 0 0 0 -0.13 -1.29 7.46 7.46 0 0 1 3.32 2.63 5.7 5.7 0 0 1 0.52 0.9c0.09 0.18 0.16 0.36 0.23 0.54a5.67 5.67 0 0 1 -1.73 -0.27Z" fill="#020202" fill-rule="evenodd" stroke-width="1"></path>
      <path d="M4.7 11c3.15 -0.26 2.3 0 4.3 -0.52 0.21 -0.06 0.42 -0.15 0.63 -0.23a4.87 4.87 0 0 1 0.64 -0.22 5.12 5.12 0 0 0 0.88 0.84 1.35 1.35 0 0 0 0.73 0.25h0.09a2.43 2.43 0 0 0 1.17 -0.58 2.48 2.48 0 0 0 0.51 -0.62c1.33 0.88 2.48 0.39 8 0.7 0 0 0.46 0.09 0.43 -0.66a12.45 12.45 0 0 0 -0.59 -3.8 8.08 8.08 0 0 0 -2 -3.37 7.64 7.64 0 0 0 -1.31 -1A13.07 13.07 0 0 0 16 0.82a15.39 15.39 0 0 0 -2.16 -0.64A9.58 9.58 0 0 0 12.33 0a9.34 9.34 0 0 0 -5.71 1.81 10 10 0 0 0 -3.46 4.82 9.06 9.06 0 0 0 -0.44 2.14 11 11 0 0 0 0 2.15c0.02 0.17 -0.17 0.31 1.98 0.08Zm8.2 -2.9a5.9 5.9 0 0 1 -0.16 1.08 1.12 1.12 0 0 1 -0.38 0.54c-0.69 0.64 -0.92 0.38 -1.53 -0.3a1.27 1.27 0 0 1 -0.2 -0.63 8.93 8.93 0 0 1 0 -1.15A1.8 1.8 0 0 1 11.92 7a0.87 0.87 0 0 1 0.94 0.49 1.53 1.53 0 0 1 0.04 0.61Zm7.83 -1.67a12.26 12.26 0 0 1 0.67 3.46c-0.52 -0.12 -1 -0.24 -1.58 -0.31a8 8 0 0 0 -0.82 -0.07 7.85 7.85 0 0 0 -0.84 0c-1.14 0.1 -1.72 0.36 -2.16 0.3a4.44 4.44 0 0 0 -0.8 -0.53 2 2 0 0 0 -0.41 -0.15 17.47 17.47 0 0 1 1.77 -1.37l0.88 -0.61 0.9 -0.59a22.81 22.81 0 0 1 2 -1.14 8.22 8.22 0 0 1 0.39 1.01ZM15.61 2a0.32 0.32 0 0 0 0 -0.17 14.16 14.16 0 0 1 1.71 0.68 6.66 6.66 0 0 1 1.49 1 6.13 6.13 0 0 1 1.11 1.32 15.64 15.64 0 0 0 -2.16 0.85 7.65 7.65 0 0 0 -1 0.58 8.83 8.83 0 0 0 -0.92 0.69 12.35 12.35 0 0 0 -1.78 2 0.35 0.35 0 0 0 -0.06 0.18h-0.14a5.52 5.52 0 0 0 0.08 -1 2.48 2.48 0 0 0 -0.1 -0.68 0.28 0.28 0 0 0 0.16 -0.22c0.19 -0.71 0.44 -1.4 0.66 -2.12 0.11 -0.35 0.2 -0.7 0.3 -1.05s0.17 -0.7 0.28 -1 0.22 -0.74 0.37 -1.06Zm-3.31 -0.89a8.51 8.51 0 0 1 1.7 0.23c0.37 0.08 0.74 0.19 1.1 0.3a9.73 9.73 0 0 0 -1 1.78 6.34 6.34 0 0 0 -0.3 0.83 8 8 0 0 0 -0.19 0.85 11.25 11.25 0 0 0 -0.11 1.53 1.72 1.72 0 0 0 -1.18 -0.48 2.88 2.88 0 0 0 -1.67 0.58 11.25 11.25 0 0 0 -0.42 -1.71 6 6 0 0 0 -0.36 -0.86 5.84 5.84 0 0 0 -0.48 -0.8 9 9 0 0 0 -1.2 -1.28 8.32 8.32 0 0 1 4.11 -0.97ZM7.22 2.65l0.31 -0.2c0.33 0.5 0.61 1 0.88 1.5l0.39 0.75 0.39 0.75A16.38 16.38 0 0 1 10 7.3a0.79 0.79 0 0 0 0 0.09c0 0.29 -0.1 0.76 -0.13 1.22A14.74 14.74 0 0 0 8 7.34a7.55 7.55 0 0 0 -1 -0.48 10.14 10.14 0 0 0 -1 -0.39c-0.57 -0.2 -1.16 -0.37 -1.74 -0.55a9 9 0 0 1 2.96 -3.27ZM3.38 8.84a9.14 9.14 0 0 1 0.49 -1.95c0 -0.12 0.11 -0.22 0.16 -0.33 0.64 0.36 1.27 0.72 1.93 1 0.49 0.24 1 0.45 1.49 0.66 0.71 0.3 1.41 0.59 2.09 1a2 2 0 0 0 -0.34 0 2.5 2.5 0 0 0 -0.75 0.27 6.62 6.62 0 0 0 -0.83 0.58 3.59 3.59 0 0 0 -1.82 -0.3 4.6 4.6 0 0 0 -1 0.21 8.4 8.4 0 0 1 -1.42 0.34l-0.05 0a12.34 12.34 0 0 1 0.05 -1.48Z" fill="#4C57E6" fill-rule="evenodd" stroke-width="1"></path>
    </g>
  </g>
</svg>