<svg xmlns="http://www.w3.org/2000/svg" viewBox="0 0 24 24" id="Geometric-Religion-Man-Shogun--Streamline-Freehand">
  <desc>
    Geometric Religion Man Shogun Streamline Icon: https://streamlinehq.com
  </desc>
  <g>
    <path d="M9.55 12a1.34 1.34 0 0 1 0.57 -0.29 0.71 0.71 0 0 1 0.23 -0.06c0.05 0 0.08 -0.05 0.13 0a0.54 0.54 0 0 1 0.39 0.19 0.34 0.34 0 0 0 0.45 0.14 0.33 0.33 0 0 0 0.14 -0.45 1.22 1.22 0 0 0 -1 -0.94 0.87 0.87 0 0 0 -0.39 0 1.14 1.14 0 0 0 -0.49 0.22 1.61 1.61 0 0 0 -0.55 1 0.3 0.3 0 0 0 0.14 0.39 0.29 0.29 0 0 0 0.38 -0.2Z" fill="#020202" fill-rule="evenodd" stroke-width="1"></path>
    <path d="M13.43 11.76a1.09 1.09 0 0 1 0.33 -0.19l0.26 0a0.43 0.43 0 0 1 0.25 0c0.07 0 0.15 0 0.2 0.08l0.26 0.23a0.33 0.33 0 0 0 0.45 0.1 0.34 0.34 0 0 0 0.11 -0.46 4.58 4.58 0 0 0 -0.2 -0.46 1.18 1.18 0 0 0 -1.29 -0.57 1 1 0 0 0 -0.29 0.13 1.58 1.58 0 0 0 -0.59 0.86 0.29 0.29 0 0 0 0.12 0.4 0.29 0.29 0 0 0 0.39 -0.12Z" fill="#020202" fill-rule="evenodd" stroke-width="1"></path>
    <path d="M10.76 13a0.29 0.29 0 0 0 -0.41 0.42 2.7 2.7 0 0 0 1.18 1 1.74 1.74 0 0 0 1.19 0 2.23 2.23 0 0 0 0.43 -0.26 5 5 0 0 0 0.45 -0.47 0.33 0.33 0 0 0 0 -0.47 0.32 0.32 0 0 0 -0.46 0l-0.4 0.21a1.22 1.22 0 0 1 -0.64 0.05l-0.32 -0.05a4.05 4.05 0 0 1 -0.5 -0.12 2.87 2.87 0 0 1 -0.52 -0.31Z" fill="#020202" fill-rule="evenodd" stroke-width="1"></path>
    <g>
      <path d="M22 21.42c-0.08 -0.14 -0.17 -0.27 -0.26 -0.4a3.61 3.61 0 0 0 -0.33 -0.35 3.89 3.89 0 0 0 -0.39 -0.28 3 3 0 0 0 0.42 -0.51 8.1 8.1 0 0 0 0.73 -1.52 6.41 6.41 0 0 0 0.26 -0.64 0.9 0.9 0 0 0 0 -0.35 1.23 1.23 0 0 0 -0.48 -0.8 4 4 0 0 0 -0.92 -0.56l-3.15 -0.84L17 15c-1 0.07 -1.26 0.28 -0.59 0.62l0.36 0.07c0.37 0.08 0.74 0.18 1.1 0.28a9.93 9.93 0 0 0 -0.52 1.09 4.21 4.21 0 0 0 -0.2 0.63 4.76 4.76 0 0 0 -0.11 0.64c0 0.33 -0.05 0.66 -0.06 1 -0.28 -0.06 -0.84 -0.13 -1.33 -0.27 -0.23 -0.06 -0.46 -0.11 -0.54 -0.25a2.2 2.2 0 0 1 -0.15 -1 9.46 9.46 0 0 1 0.04 -1.13l-0.72 0.49c0 0.3 -0.08 0.61 -0.09 0.89a2.94 2.94 0 0 0 0 0.68l-1.46 -0.18 -0.8 0 -1.21 0c-0.41 0 -0.81 0.11 -1.21 0.18a2.18 2.18 0 0 0 0.06 -0.63c0 -0.3 -0.06 -0.61 -0.09 -0.89v-0.28a4.5 4.5 0 0 1 -0.7 -0.27l0 0.62 0 0.83a1.31 1.31 0 0 1 -0.07 0.44 0.27 0.27 0 0 1 -0.15 0.16 4.77 4.77 0 0 1 -0.5 0.19l-1.67 0.66c0 -0.26 -0.06 -0.53 -0.1 -0.81s-0.07 -0.34 -0.11 -0.51a4.13 4.13 0 0 0 -0.15 -0.5c-0.13 -0.36 -0.28 -0.69 -0.4 -1.06l0.55 -0.16c0.5 -0.14 1 -0.27 1.51 -0.37l0.22 0c0.35 -0.38 0.65 -0.74 -0.44 -0.61l-1 0.16c-1 0.2 -0.87 0.12 -2.16 0.46 -0.55 0.15 -1.09 0.32 -1.63 0.52a3.76 3.76 0 0 0 -0.78 0.31 0.86 0.86 0 0 0 -0.32 0.45 1.84 1.84 0 0 0 0 1 6.55 6.55 0 0 0 1 1.6c0.11 0.15 0.37 0.63 0.61 0.94l-0.13 0.1a1.42 1.42 0 0 0 -0.25 0.3 1.41 1.41 0 0 0 -0.19 0.34 5.19 5.19 0 0 0 -0.31 0.86 0.34 0.34 0 0 0 0.14 0.45 0.32 0.32 0 0 0 0.48 -0.04c0.2 -0.22 0.4 -0.39 0.6 -0.6l0.22 -0.27a1.81 1.81 0 0 0 0.19 -0.29c0.05 -0.1 0.08 -0.19 0.12 -0.28a2.09 2.09 0 0 0 0.83 -0.11 5.53 5.53 0 0 0 0.93 -0.45c0 0.18 -0.07 0.37 -0.1 0.56 0 0.35 -0.09 0.71 -0.12 1.06 0 0.08 -0.07 0.52 -0.06 0.71a0.67 0.67 0 0 0 0.12 0.28 0.81 0.81 0 0 0 0.23 0.17 1.56 1.56 0 0 0 0.38 0.13l0.48 0.07 1 0 2 -0.08 3.52 -0.15c0.6 -0.06 1.23 -0.12 1.85 -0.14a9.42 9.42 0 0 1 1.19 0l0.79 0.05a1.12 1.12 0 0 0 0.3 0 0.51 0.51 0 0 0 0.27 -0.16 1.24 1.24 0 0 0 0.25 -0.5 3.61 3.61 0 0 0 0.08 -0.65l0.05 -1.74c0.39 0.09 0.78 0.16 1.18 0.22a3.74 3.74 0 0 0 0.77 0.07 1 1 0 0 0 0.3 -0.08 4.66 4.66 0 0 0 0.39 0.65 5.62 5.62 0 0 0 0.44 0.53c0.23 0.25 0.48 0.47 0.71 0.76a0.33 0.33 0 0 0 0.58 -0.32 6.85 6.85 0 0 0 -0.42 -1.02ZM4.77 20.29c-1.18 0.44 -0.71 -0.11 -1.24 -0.85a8.6 8.6 0 0 1 -0.79 -1.13c-0.38 -0.81 0.07 -0.57 0.44 -0.73s1 -0.42 1.51 -0.6l0.39 -0.11a5 5 0 0 0 0 1.28 4.34 4.34 0 0 0 0.25 0.85c0.11 0.3 0.25 0.58 0.39 0.87 -0.28 0.13 -0.62 0.3 -0.95 0.42ZM9 21.7c0 0.41 0.11 0.79 0.17 1.19L7.76 23l-1.34 0a0.58 0.58 0 0 0 -0.14 0c0 -0.15 0.07 -0.34 0.07 -0.38l0 -1c0 -0.33 0.06 -0.65 0.1 -1l0.09 0 1.96 -0.92 0.5 -0.23h0.24A11.1 11.1 0 0 0 9 20.62a4.89 4.89 0 0 0 0 0.54 3.25 3.25 0 0 0 0 0.54Zm4.24 1 -3.38 0.15c0.07 -0.37 0.15 -0.74 0.19 -1.11a4.9 4.9 0 0 0 0 -0.54 4.69 4.69 0 0 0 0 -0.53c0 -0.38 -0.11 -0.75 -0.16 -1.12 0.44 0 0.89 0.08 1.34 0.09s1.06 0 1.59 -0.05l0.59 0a6.47 6.47 0 0 0 -0.09 1.08 6.4 6.4 0 0 0 0.09 0.88c0.06 0.4 0.15 0.78 0.2 1.17Zm4 -0.39a2.14 2.14 0 0 1 -0.07 0.43 0.56 0.56 0 0 1 0 0.12l-0.66 -0.09a11.39 11.39 0 0 0 -1.31 -0.12h-0.83a6.68 6.68 0 0 0 0.15 -1.18 3.62 3.62 0 0 0 0 -0.57 3.57 3.57 0 0 0 -0.07 -0.56c-0.06 -0.29 -0.14 -0.57 -0.22 -0.85l0.46 0a1.87 1.87 0 0 0 0.52 0.34 13.27 13.27 0 0 0 1.58 0.47c0.23 0.08 0.47 0.14 0.7 0.2Zm3.29 -3a1.58 1.58 0 0 1 -0.54 0.55l-0.6 0c-0.48 -0.06 -1 -0.14 -1.44 -0.23l-0.18 0c0.1 -0.32 0.21 -0.64 0.31 -1a9.63 9.63 0 0 0 0.25 -1c0.1 -0.47 0.14 -0.95 0.21 -1.41 0.31 0.07 0.62 0.16 0.91 0.25a8.26 8.26 0 0 1 0.87 0.34 5.74 5.74 0 0 1 0.75 0.42c0.66 0.46 0.3 0.3 0.07 0.81a6.79 6.79 0 0 1 -0.63 1.22Z" fill="#4C57E6" fill-rule="evenodd" stroke-width="1"></path>
      <path d="m2.78 9.79 0 0.28a0.52 0.52 0 0 0 0.35 0.44 1.08 1.08 0 0 0 0.49 0.05c0.22 0 0.49 -0.1 0.66 -0.1a3.32 3.32 0 0 1 1.09 0.12 2.24 2.24 0 0 1 0.75 0.39 5.28 5.28 0 0 1 -0.29 0.75c-0.42 0.94 -1 1.83 -1.41 2.77a2.81 2.81 0 0 0 0.37 0.79c0.9 0.48 1.1 0.2 1 -0.38l-0.12 -0.09a2.79 2.79 0 0 1 -0.57 -0.4c0.42 -0.8 1 -1.57 1.36 -2.38A6.17 6.17 0 0 0 7 10.72c0 -0.12 0 -0.24 0.07 -0.36A16 16 0 0 0 7.43 13a4.5 4.5 0 0 0 2.28 3.1 4.85 4.85 0 0 0 2.93 0.47c2.23 -0.34 2.67 -1.31 3.62 -2.27a5.75 5.75 0 0 0 0.74 -1.86 9.72 9.72 0 0 0 0.21 -1.61c0 0.06 0.05 0.13 0.08 0.19a5 5 0 0 0 0.53 0.77A25.4 25.4 0 0 1 20 14.12a3.48 3.48 0 0 0 -0.47 0.24 1.56 1.56 0 0 0 -0.2 0.16c-0.43 0.65 -0.39 1 1.19 0.31l0.29 -0.46c0.42 -0.36 -1.68 -2.15 -2.4 -3.08a3.51 3.51 0 0 1 -0.39 -0.61 5.66 5.66 0 0 1 0.7 -0.68 2.9 2.9 0 0 1 0.94 -0.51 2 2 0 0 1 0.37 -0.09c0.55 -0.1 0.52 0.28 1 0a0.56 0.56 0 0 0 0.27 -0.35 1.44 1.44 0 0 0 0 -0.56c0 -0.28 -0.12 -0.62 -0.14 -0.83A6.93 6.93 0 0 0 21 6.58a3.49 3.49 0 0 0 -0.31 -0.75 0.56 0.56 0 0 0 -0.42 -0.31 4.7 4.7 0 0 0 -0.83 0.05 4.38 4.38 0 0 0 -1.44 0.58 3.11 3.11 0 0 0 -0.46 0.37 6.28 6.28 0 0 0 -1.15 -2.19l-0.09 -0.1 0 -0.26 0 -0.32a5.73 5.73 0 0 0 0.13 -0.7 1.69 1.69 0 0 0 0 -0.45 3.5 3.5 0 0 1 0.22 -0.8 2.06 2.06 0 0 1 1 -1.07 0.34 0.34 0 0 0 0.16 -0.44 0.34 0.34 0 0 0 -0.4 -0.19A2.86 2.86 0 0 0 16 1.36a1.52 1.52 0 0 0 -0.5 -0.43 1.42 1.42 0 0 0 -1.66 0.28 0.29 0.29 0 1 0 0.32 0.49 0.78 0.78 0 0 1 0.69 0c0.11 0.05 0.17 0.16 0.26 0.26a1.88 1.88 0 0 1 0.36 0.6 2.06 2.06 0 0 1 0.12 0.35l-0.09 0.59a4.73 4.73 0 0 0 -2.92 -0.82 7.7 7.7 0 0 0 -1.27 0.13 6.67 6.67 0 0 0 -1.24 0.33A6.05 6.05 0 0 0 9 3.7l0 -0.14a8.7 8.7 0 0 1 0.21 -0.89 2.34 2.34 0 0 1 0.12 -0.4 0.59 0.59 0 0 1 0.06 -0.2s0 -0.12 0.07 -0.15a0.57 0.57 0 0 1 0.38 -0.06 0.3 0.3 0 0 0 0.38 -0.17 0.3 0.3 0 0 0 -0.22 -0.38 1.12 1.12 0 0 0 -1.71 0.45 3.33 3.33 0 0 0 -0.7 -0.76A4.23 4.23 0 0 0 6.53 0.42a0.3 0.3 0 0 0 -0.38 0.16 0.3 0.3 0 0 0 0.16 0.42 3.16 3.16 0 0 1 0.86 0.54 2.48 2.48 0 0 1 0.58 0.78 7 7 0 0 1 0.46 2 4.5 4.5 0 0 0 -0.85 1 5 5 0 0 0 -0.65 1.6A4.53 4.53 0 0 0 6 6.44a4.1 4.1 0 0 0 -1.39 -0.38 3.32 3.32 0 0 0 -0.83 0 0.88 0.88 0 0 0 -0.55 0.36 3.2 3.2 0 0 0 -0.46 1.18 6.65 6.65 0 0 0 0 1.72Zm15.58 -3a3.31 3.31 0 0 1 1.22 -0.29l0.29 0.06c0 0.14 0.08 0.29 0.11 0.44a7.39 7.39 0 0 1 0.14 0.82l0.1 0.53a1.36 1.36 0 0 0 -0.27 0 3.19 3.19 0 0 0 -0.57 0.2 3.77 3.77 0 0 0 -0.94 0.61 5.83 5.83 0 0 0 -0.55 0.56l0 -1.36a0.27 0.27 0 0 0 0 -0.09l0 -0.26a7.35 7.35 0 0 0 -0.15 -0.84 2.77 2.77 0 0 1 0.62 -0.35Zm-1.75 2.78a11.82 11.82 0 0 1 -0.4 2.66 4.79 4.79 0 0 1 -0.72 1.53 4.58 4.58 0 0 1 -3 1.71 3.73 3.73 0 0 1 -3.21 -0.94 4.07 4.07 0 0 1 -1 -1.77 21.11 21.11 0 0 1 -0.65 -3.32 25.87 25.87 0 0 1 3.13 0.3 14.78 14.78 0 0 0 1.63 0A12.83 12.83 0 0 0 14 9.61c3 -0.45 2.62 -0.54 2.61 -0.04ZM10.45 4.2a6.48 6.48 0 0 1 1.05 -0.27 8.34 8.34 0 0 1 1.12 -0.12 3.59 3.59 0 0 1 2.61 0.89 3 3 0 0 1 -0.24 0.51 3 3 0 0 1 -2.59 1.06 3.44 3.44 0 0 1 -2.71 -0.94 2.43 2.43 0 0 1 -0.35 -0.57 5.25 5.25 0 0 1 1.11 -0.56ZM7.64 7.11a4.21 4.21 0 0 1 0.58 -1.28 2.66 2.66 0 0 1 0.34 -0.4 3.2 3.2 0 0 0 0.33 0.57 4.48 4.48 0 0 0 3.53 1.41 4 4 0 0 0 3.44 -1.67l0.09 -0.2a6.64 6.64 0 0 1 1 2.64 23.14 23.14 0 0 1 -3.09 0.41c-0.52 0 -1 0.06 -1.56 0.08l-1.56 0c-1.13 0 -2.25 0 -3.38 -0.12a11.59 11.59 0 0 1 0.28 -1.44Zm-3.77 0.69c0.18 -1.11 0.33 -0.8 0.74 -0.8a3 3 0 0 1 1.12 0.14 3.84 3.84 0 0 1 0.86 0.43c-0.12 0.88 -0.15 1.78 -0.29 2.64a3.24 3.24 0 0 0 -0.66 -0.36 4.24 4.24 0 0 0 -1.33 -0.31h-0.48v-0.28a7.21 7.21 0 0 1 0.04 -1.46Z" fill="#020202" fill-rule="evenodd" stroke-width="1"></path>
    </g>
  </g>
</svg>