<svg xmlns="http://www.w3.org/2000/svg" viewBox="0 0 24 24" id="Geometric-People-Man-4--Streamline-Freehand">
  <desc>
    Geometric People Man 4 Streamline Icon: https://streamlinehq.com
  </desc>
  <g>
    <path d="M13.13 12.19a2.88 2.88 0 0 1 0.27 -0.19 1 1 0 0 1 0.26 -0.11 0.56 0.56 0 0 1 0.31 0 0.84 0.84 0 0 1 0.46 0.08 6.11 6.11 0 0 1 0.75 0.41 0.35 0.35 0 0 0 0.49 -0.49 4 4 0 0 0 -0.74 -0.84 1.32 1.32 0 0 0 -0.52 -0.28 1.07 1.07 0 0 0 -0.59 0 1.42 1.42 0 0 0 -0.72 0.4 1.39 1.39 0 0 0 -0.23 0.31 2.93 2.93 0 0 0 -0.23 0.43 0.3 0.3 0 0 0 0 0.42 0.33 0.33 0 0 0 0.49 -0.14Z" fill="#020202" fill-rule="evenodd" stroke-width="1"></path>
    <path d="M9.88 11.82a2.93 2.93 0 0 1 0.42 0.37 0.37 0.37 0 0 0 0.49 0.06 0.35 0.35 0 0 0 0.06 -0.49 3.82 3.82 0 0 0 -0.45 -0.68 1.9 1.9 0 0 0 -0.52 -0.4A1.74 1.74 0 0 0 9 10.5a1.69 1.69 0 0 0 -0.82 0.26A2.14 2.14 0 0 0 7.31 12a0.3 0.3 0 0 0 0.15 0.4 0.29 0.29 0 0 0 0.4 -0.14 1.59 1.59 0 0 1 0.66 -0.49 1.76 1.76 0 0 1 0.5 -0.13 1.11 1.11 0 0 1 0.48 0 1.08 1.08 0 0 1 0.38 0.18Z" fill="#020202" fill-rule="evenodd" stroke-width="1"></path>
    <path d="M11.41 15.85a2.49 2.49 0 0 0 0.77 0 2.73 2.73 0 0 0 1.57 -0.8 0.34 0.34 0 0 0 -0.42 -0.54 2.39 2.39 0 0 1 -1.74 0.19l-0.51 -0.11A2.81 2.81 0 0 1 9.9 14a0.3 0.3 0 0 0 -0.43 0 0.31 0.31 0 0 0 -0.05 0.43 3.07 3.07 0 0 0 1.25 1.2 2.36 2.36 0 0 0 0.74 0.22Z" fill="#020202" fill-rule="evenodd" stroke-width="1"></path>
    <g>
      <path d="M1.88 13.89a3 3 0 0 0 0.22 0.53 1 1 0 0 0 0.28 0.29A1.59 1.59 0 0 0 3 15a3.08 3.08 0 0 0 1 0l1 -0.17c0.56 -0.22 0.4 -0.71 -0.26 -0.73l-0.81 0.06a2.15 2.15 0 0 1 -0.56 0 1.06 1.06 0 0 1 -0.39 -0.18l-0.09 -0.38c-0.06 -0.21 -0.11 -0.43 -0.15 -0.64s-0.09 -0.67 -0.11 -1l-0.13 -1.32a11.75 11.75 0 0 1 0 -1.24c0 -0.83 0.26 -0.52 0.7 -0.6a8.52 8.52 0 0 1 1.18 -0.1c0.53 0 0.69 -0.26 0.69 -0.41 0 -0.46 -0.58 -0.3 -0.55 -0.39a7.34 7.34 0 0 1 0.59 -2.33 6.31 6.31 0 0 1 1.66 -2.3 5.79 5.79 0 0 1 0.72 -0.5c0.4 -0.24 0.82 -0.44 1.23 -0.65a9.22 9.22 0 0 1 1.55 -0.65 6.58 6.58 0 0 1 1.58 -0.3 7.57 7.57 0 0 1 2.74 0.41 9.7 9.7 0 0 1 2.53 1.28 5.53 5.53 0 0 1 1.75 2.26 11.39 11.39 0 0 1 0.71 2.42h-0.2l-0.38 0c-0.58 0.36 -0.71 0.64 0.12 0.7h0.27a4.78 4.78 0 0 1 0.76 0.09c0.1 0 0.3 0.21 0.38 0.13a0.76 0.76 0 0 1 0.1 0.3 2.63 2.63 0 0 1 0.06 0.47l0 0.92 -0.13 1.5 -0.07 1.83c0 0.16 0.37 0.61 -0.78 0.59a6 6 0 0 1 -1.13 -0.07c-0.8 0 -0.71 0.35 -0.26 0.71a6.67 6.67 0 0 0 1.6 0.31 1.9 1.9 0 0 0 1.17 -0.33 0.83 0.83 0 0 0 0.3 -0.43 2.83 2.83 0 0 0 0.09 -0.68l0.16 -1.78 0.12 -1.52 0 -0.66a3.59 3.59 0 0 0 -0.05 -0.46 3.28 3.28 0 0 0 -0.21 -0.77 1.77 1.77 0 0 0 -0.33 -0.52 1 1 0 0 0 -0.37 -0.23 3.13 3.13 0 0 0 -0.55 -0.09 11 11 0 0 0 -0.92 -3.34 6 6 0 0 0 -1.66 -2.12A9.82 9.82 0 0 0 14.91 0.52 8.16 8.16 0 0 0 11.75 0a6.8 6.8 0 0 0 -1.89 0.37 10.25 10.25 0 0 0 -1.72 0.77c-0.42 0.24 -0.85 0.48 -1.26 0.76a6.15 6.15 0 0 0 -0.81 0.64 7.31 7.31 0 0 0 -1.74 2.74 8.17 8.17 0 0 0 -0.51 2.62l-0.77 0a6.63 6.63 0 0 0 -0.73 0 1 1 0 0 0 -0.51 0.27 1.94 1.94 0 0 0 -0.47 1.09 10.55 10.55 0 0 0 0 1.38L1.43 12c0 0.32 0.09 0.64 0.15 0.95a6.41 6.41 0 0 0 0.3 0.94Z" fill="#4C57E6" fill-rule="evenodd" stroke-width="1"></path>
      <path d="M22.67 22.83a6 6 0 0 0 -0.44 -0.93 6.89 6.89 0 0 0 -0.54 -0.85c-0.19 -0.28 -0.37 -0.58 -0.58 -0.85a4.37 4.37 0 0 0 -0.49 -0.56A7.66 7.66 0 0 0 17 17.77a13.89 13.89 0 0 0 -2.59 -0.3 7.28 7.28 0 0 0 2.49 -2.08c0.15 -0.2 0.27 -0.41 0.4 -0.62a16.38 16.38 0 0 0 1.23 -4 6.22 6.22 0 0 0 -0.79 -4 6.82 6.82 0 0 0 -2.39 -2.07 8.34 8.34 0 0 0 -3 -0.83 10.06 10.06 0 0 0 -1.8 -0.11 5.24 5.24 0 0 0 -2.43 0.76 5.32 5.32 0 0 0 -1.58 1.37 9 9 0 0 0 -1.06 1.76 7.48 7.48 0 0 0 -0.66 2.28c-0.23 3.27 1 6.34 4.1 7.73a13.19 13.19 0 0 0 -2.92 0.68 7.11 7.11 0 0 0 -2.95 2 5.87 5.87 0 0 0 -1 1.59 8 8 0 0 0 -0.51 1.73 0.3 0.3 0 0 0 0.23 0.36 0.3 0.3 0 0 0 0.37 -0.23 8.22 8.22 0 0 1 0.55 -1.58 5.19 5.19 0 0 1 0.92 -1.33 6.29 6.29 0 0 1 2.68 -1.56 11.9 11.9 0 0 1 1.81 -0.41 6.36 6.36 0 0 0 0.35 0.69 7.39 7.39 0 0 0 0.66 1 3.87 3.87 0 0 0 1.42 1.09 2.94 2.94 0 0 0 1.87 0.14 3.47 3.47 0 0 0 1 -0.41 6.42 6.42 0 0 0 2.31 -2.7c0.35 0 0.69 0.08 1 0.14a6.84 6.84 0 0 1 3.26 1.49 2.4 2.4 0 0 1 0.41 0.43c0.22 0.25 0.41 0.53 0.61 0.8a7.29 7.29 0 0 1 0.53 0.76 5.57 5.57 0 0 1 0.42 0.8 0.33 0.33 0 0 0 0.44 0.2 0.35 0.35 0 0 0 0.29 -0.51ZM8.47 5.14a4.85 4.85 0 0 1 1.2 -0.52l0.16 0a3.85 3.85 0 0 1 0.76 -0.09 9.6 9.6 0 0 1 1.67 0.15 7.69 7.69 0 0 1 2.74 0.78 6 6 0 0 1 2 1.87 2.91 2.91 0 0 1 0.46 1.21l0 0.39A17.37 17.37 0 0 1 14 8.69c-0.55 -0.1 -1.1 -0.23 -1.64 -0.38s-1.09 -0.31 -1.61 -0.53a10.57 10.57 0 0 1 -3.18 -1.91 4.35 4.35 0 0 1 0.9 -0.73ZM6.24 8a8.24 8.24 0 0 1 0.9 -1.63 10.1 10.1 0 0 0 1.52 1.4c-0.29 0.3 -0.61 0.58 -0.94 0.86s-0.42 0.36 -0.64 0.53 -0.27 0.22 -0.42 0.32a2.64 2.64 0 0 1 -0.92 0.36A6.87 6.87 0 0 1 6.24 8Zm0 5.37a6.75 6.75 0 0 1 -0.53 -2.78 3.07 3.07 0 0 0 1.65 -0.26A3 3 0 0 0 8 9.92a2.9 2.9 0 0 0 0.53 -0.52 6.5 6.5 0 0 0 0.7 -1.23 8.75 8.75 0 0 0 1.07 0.62 10.49 10.49 0 0 0 1.7 0.65 12.13 12.13 0 0 0 1.8 0.33 15.45 15.45 0 0 0 3.72 -0.1l0 1a7.29 7.29 0 0 1 -1.5 4A6.16 6.16 0 0 1 12.49 17a4.48 4.48 0 0 1 -1.21 0.11 5.12 5.12 0 0 1 -1.21 -0.21 6 6 0 0 1 -3.85 -3.54Zm6.57 7.06a2.4 2.4 0 0 1 -1.82 0.14 3.28 3.28 0 0 1 -1.15 -0.67 6.21 6.21 0 0 1 -0.71 -0.74c-0.09 -0.12 -0.17 -0.26 -0.26 -0.38 0.79 -0.09 1.57 -0.13 2.3 -0.14 1.21 0 2.5 -0.1 3.76 0a5.66 5.66 0 0 1 -2.14 1.78Z" fill="#020202" fill-rule="evenodd" stroke-width="1"></path>
    </g>
    <path d="M13.13 12.19a2.88 2.88 0 0 1 0.27 -0.19 1 1 0 0 1 0.26 -0.11 0.56 0.56 0 0 1 0.31 0 0.84 0.84 0 0 1 0.46 0.08 6.11 6.11 0 0 1 0.75 0.41 0.35 0.35 0 0 0 0.49 -0.49 4 4 0 0 0 -0.74 -0.84 1.32 1.32 0 0 0 -0.52 -0.28 1.07 1.07 0 0 0 -0.59 0 1.42 1.42 0 0 0 -0.72 0.4 1.39 1.39 0 0 0 -0.23 0.31 2.93 2.93 0 0 0 -0.23 0.43 0.3 0.3 0 0 0 0 0.42 0.33 0.33 0 0 0 0.49 -0.14Z" fill="#020202" fill-rule="evenodd" stroke-width="1"></path>
    <path d="M9.88 11.82a2.93 2.93 0 0 1 0.42 0.37 0.37 0.37 0 0 0 0.49 0.06 0.35 0.35 0 0 0 0.06 -0.49 3.82 3.82 0 0 0 -0.45 -0.68 1.9 1.9 0 0 0 -0.52 -0.4A1.74 1.74 0 0 0 9 10.5a1.69 1.69 0 0 0 -0.82 0.26A2.14 2.14 0 0 0 7.31 12a0.3 0.3 0 0 0 0.15 0.4 0.29 0.29 0 0 0 0.4 -0.14 1.59 1.59 0 0 1 0.66 -0.49 1.76 1.76 0 0 1 0.5 -0.13 1.11 1.11 0 0 1 0.48 0 1.08 1.08 0 0 1 0.38 0.18Z" fill="#020202" fill-rule="evenodd" stroke-width="1"></path>
    <path d="M11.41 15.85a2.49 2.49 0 0 0 0.77 0 2.73 2.73 0 0 0 1.57 -0.8 0.34 0.34 0 0 0 -0.42 -0.54 2.39 2.39 0 0 1 -1.74 0.19l-0.51 -0.11A2.81 2.81 0 0 1 9.9 14a0.3 0.3 0 0 0 -0.43 0 0.31 0.31 0 0 0 -0.05 0.43 3.07 3.07 0 0 0 1.25 1.2 2.36 2.36 0 0 0 0.74 0.22Z" fill="#020202" fill-rule="evenodd" stroke-width="1"></path>
    <g>
      <path d="M1.88 13.89a3 3 0 0 0 0.22 0.53 1 1 0 0 0 0.28 0.29A1.59 1.59 0 0 0 3 15a3.08 3.08 0 0 0 1 0l1 -0.17c0.56 -0.22 0.4 -0.71 -0.26 -0.73l-0.81 0.06a2.15 2.15 0 0 1 -0.56 0 1.06 1.06 0 0 1 -0.39 -0.18l-0.09 -0.38c-0.06 -0.21 -0.11 -0.43 -0.15 -0.64s-0.09 -0.67 -0.11 -1l-0.13 -1.32a11.75 11.75 0 0 1 0 -1.24c0 -0.83 0.26 -0.52 0.7 -0.6a8.52 8.52 0 0 1 1.18 -0.1c0.53 0 0.69 -0.26 0.69 -0.41 0 -0.46 -0.58 -0.3 -0.55 -0.39a7.34 7.34 0 0 1 0.59 -2.33 6.31 6.31 0 0 1 1.66 -2.3 5.79 5.79 0 0 1 0.72 -0.5c0.4 -0.24 0.82 -0.44 1.23 -0.65a9.22 9.22 0 0 1 1.55 -0.65 6.58 6.58 0 0 1 1.58 -0.3 7.57 7.57 0 0 1 2.74 0.41 9.7 9.7 0 0 1 2.53 1.28 5.53 5.53 0 0 1 1.75 2.26 11.39 11.39 0 0 1 0.71 2.42h-0.2l-0.38 0c-0.58 0.36 -0.71 0.64 0.12 0.7h0.27a4.78 4.78 0 0 1 0.76 0.09c0.1 0 0.3 0.21 0.38 0.13a0.76 0.76 0 0 1 0.1 0.3 2.63 2.63 0 0 1 0.06 0.47l0 0.92 -0.13 1.5 -0.07 1.83c0 0.16 0.37 0.61 -0.78 0.59a6 6 0 0 1 -1.13 -0.07c-0.8 0 -0.71 0.35 -0.26 0.71a6.67 6.67 0 0 0 1.6 0.31 1.9 1.9 0 0 0 1.17 -0.33 0.83 0.83 0 0 0 0.3 -0.43 2.83 2.83 0 0 0 0.09 -0.68l0.16 -1.78 0.12 -1.52 0 -0.66a3.59 3.59 0 0 0 -0.05 -0.46 3.28 3.28 0 0 0 -0.21 -0.77 1.77 1.77 0 0 0 -0.33 -0.52 1 1 0 0 0 -0.37 -0.23 3.13 3.13 0 0 0 -0.55 -0.09 11 11 0 0 0 -0.92 -3.34 6 6 0 0 0 -1.66 -2.12A9.82 9.82 0 0 0 14.91 0.52 8.16 8.16 0 0 0 11.75 0a6.8 6.8 0 0 0 -1.89 0.37 10.25 10.25 0 0 0 -1.72 0.77c-0.42 0.24 -0.85 0.48 -1.26 0.76a6.15 6.15 0 0 0 -0.81 0.64 7.31 7.31 0 0 0 -1.74 2.74 8.17 8.17 0 0 0 -0.51 2.62l-0.77 0a6.63 6.63 0 0 0 -0.73 0 1 1 0 0 0 -0.51 0.27 1.94 1.94 0 0 0 -0.47 1.09 10.55 10.55 0 0 0 0 1.38L1.43 12c0 0.32 0.09 0.64 0.15 0.95a6.41 6.41 0 0 0 0.3 0.94Z" fill="#4C57E6" fill-rule="evenodd" stroke-width="1"></path>
      <path d="M22.67 22.83a6 6 0 0 0 -0.44 -0.93 6.89 6.89 0 0 0 -0.54 -0.85c-0.19 -0.28 -0.37 -0.58 -0.58 -0.85a4.37 4.37 0 0 0 -0.49 -0.56A7.66 7.66 0 0 0 17 17.77a13.89 13.89 0 0 0 -2.59 -0.3 7.28 7.28 0 0 0 2.49 -2.08c0.15 -0.2 0.27 -0.41 0.4 -0.62a16.38 16.38 0 0 0 1.23 -4 6.22 6.22 0 0 0 -0.79 -4 6.82 6.82 0 0 0 -2.39 -2.07 8.34 8.34 0 0 0 -3 -0.83 10.06 10.06 0 0 0 -1.8 -0.11 5.24 5.24 0 0 0 -2.43 0.76 5.32 5.32 0 0 0 -1.58 1.37 9 9 0 0 0 -1.06 1.76 7.48 7.48 0 0 0 -0.66 2.28c-0.23 3.27 1 6.34 4.1 7.73a13.19 13.19 0 0 0 -2.92 0.68 7.11 7.11 0 0 0 -2.95 2 5.87 5.87 0 0 0 -1 1.59 8 8 0 0 0 -0.51 1.73 0.3 0.3 0 0 0 0.23 0.36 0.3 0.3 0 0 0 0.37 -0.23 8.22 8.22 0 0 1 0.55 -1.58 5.19 5.19 0 0 1 0.92 -1.33 6.29 6.29 0 0 1 2.68 -1.56 11.9 11.9 0 0 1 1.81 -0.41 6.36 6.36 0 0 0 0.35 0.69 7.39 7.39 0 0 0 0.66 1 3.87 3.87 0 0 0 1.42 1.09 2.94 2.94 0 0 0 1.87 0.14 3.47 3.47 0 0 0 1 -0.41 6.42 6.42 0 0 0 2.31 -2.7c0.35 0 0.69 0.08 1 0.14a6.84 6.84 0 0 1 3.26 1.49 2.4 2.4 0 0 1 0.41 0.43c0.22 0.25 0.41 0.53 0.61 0.8a7.29 7.29 0 0 1 0.53 0.76 5.57 5.57 0 0 1 0.42 0.8 0.33 0.33 0 0 0 0.44 0.2 0.35 0.35 0 0 0 0.29 -0.51ZM8.47 5.14a4.85 4.85 0 0 1 1.2 -0.52l0.16 0a3.85 3.85 0 0 1 0.76 -0.09 9.6 9.6 0 0 1 1.67 0.15 7.69 7.69 0 0 1 2.74 0.78 6 6 0 0 1 2 1.87 2.91 2.91 0 0 1 0.46 1.21l0 0.39A17.37 17.37 0 0 1 14 8.69c-0.55 -0.1 -1.1 -0.23 -1.64 -0.38s-1.09 -0.31 -1.61 -0.53a10.57 10.57 0 0 1 -3.18 -1.91 4.35 4.35 0 0 1 0.9 -0.73ZM6.24 8a8.24 8.24 0 0 1 0.9 -1.63 10.1 10.1 0 0 0 1.52 1.4c-0.29 0.3 -0.61 0.58 -0.94 0.86s-0.42 0.36 -0.64 0.53 -0.27 0.22 -0.42 0.32a2.64 2.64 0 0 1 -0.92 0.36A6.87 6.87 0 0 1 6.24 8Zm0 5.37a6.75 6.75 0 0 1 -0.53 -2.78 3.07 3.07 0 0 0 1.65 -0.26A3 3 0 0 0 8 9.92a2.9 2.9 0 0 0 0.53 -0.52 6.5 6.5 0 0 0 0.7 -1.23 8.75 8.75 0 0 0 1.07 0.62 10.49 10.49 0 0 0 1.7 0.65 12.13 12.13 0 0 0 1.8 0.33 15.45 15.45 0 0 0 3.72 -0.1l0 1a7.29 7.29 0 0 1 -1.5 4A6.16 6.16 0 0 1 12.49 17a4.48 4.48 0 0 1 -1.21 0.11 5.12 5.12 0 0 1 -1.21 -0.21 6 6 0 0 1 -3.85 -3.54Zm6.57 7.06a2.4 2.4 0 0 1 -1.82 0.14 3.28 3.28 0 0 1 -1.15 -0.67 6.21 6.21 0 0 1 -0.71 -0.74c-0.09 -0.12 -0.17 -0.26 -0.26 -0.38 0.79 -0.09 1.57 -0.13 2.3 -0.14 1.21 0 2.5 -0.1 3.76 0a5.66 5.66 0 0 1 -2.14 1.78Z" fill="#020202" fill-rule="evenodd" stroke-width="1"></path>
    </g>
  </g>
</svg>