<svg xmlns="http://www.w3.org/2000/svg" viewBox="0 0 24 24" id="Geometric-Old-People-Man-5--Streamline-Freehand">
  <desc>
    Geometric Old People Man 5 Streamline Icon: https://streamlinehq.com
  </desc>
  <g>
    <path d="M13.89 10a2.71 2.71 0 0 1 0.41 -0.42 0.78 0.78 0 0 1 0.39 -0.18 0.58 0.58 0 0 1 0.31 -0.02 1 1 0 0 1 0.3 0 1 1 0 0 1 0.48 0.29 0.33 0.33 0 1 0 0.58 -0.32 1.75 1.75 0 0 0 -1.07 -1 1.52 1.52 0 0 0 -1.12 0.11 1.87 1.87 0 0 0 -0.51 0.5 3.06 3.06 0 0 0 -0.33 0.84 0.3 0.3 0 0 0 0.14 0.39 0.31 0.31 0 0 0 0.42 -0.19Z" fill="#020202" fill-rule="evenodd" stroke-width="1"></path>
    <path d="M7.43 9.93 8 9.51a1.59 1.59 0 0 1 0.35 -0.14 0.65 0.65 0 0 1 0.41 0 1.49 1.49 0 0 1 0.66 0.34 0.34 0.34 0 1 0 0.53 -0.41 2 2 0 0 0 -1.11 -1 1.19 1.19 0 0 0 -0.9 0.08 1.55 1.55 0 0 0 -0.6 0.53l-0.38 0.75a0.29 0.29 0 1 0 0.5 0.31Z" fill="#020202" fill-rule="evenodd" stroke-width="1"></path>
    <path d="m13.23 14.49 -0.6 0.32a1.74 1.74 0 0 1 -0.64 0 3.17 3.17 0 0 1 -0.68 -0.09 3.35 3.35 0 0 1 -1 -0.36 0.3 0.3 0 0 0 -0.39 0.45 3.25 3.25 0 0 0 1.34 1A1.62 1.62 0 0 0 12 16a2 2 0 0 0 1 -0.36 1.87 1.87 0 0 0 0.3 -0.26l0.32 -0.36a0.33 0.33 0 0 0 0 -0.47 0.32 0.32 0 0 0 -0.39 -0.06Z" fill="#020202" fill-rule="evenodd" stroke-width="1"></path>
    <g>
      <path d="M23.87 22.84c-0.09 -0.56 -0.11 -1.12 -0.21 -1.66a4 4 0 0 0 -0.24 -0.77 5.83 5.83 0 0 0 -0.92 -1.47 6.56 6.56 0 0 0 -1.27 -1.14 7.92 7.92 0 0 0 -2.6 -1.13c0.14 -2.78 -0.28 -3.2 -0.16 -7.06 0 -0.45 0 -0.92 0.05 -1.4 -0.14 -1.62 -0.8 -0.85 -0.8 0V9.6a8.22 8.22 0 0 1 -0.43 2.26 2.17 2.17 0 0 1 -1.67 0.57 9.31 9.31 0 0 1 -2.57 -1.1 4.26 4.26 0 0 0 -2.17 -0.44 3 3 0 0 0 -0.94 0.25 6.46 6.46 0 0 0 -1.19 0.69 3.43 3.43 0 0 1 -1.55 0.71 1.22 1.22 0 0 1 -0.87 -0.22 1.59 1.59 0 0 1 -0.69 -0.9l0 -1.55c0 -0.55 0 -1.11 0.08 -1.66 -0.17 -1 -0.74 -0.66 -0.73 0S5 9.32 5 9.86c0.06 4.54 -0.3 4.23 -0.17 7a5.52 5.52 0 0 0 -2.12 1.07 6.29 6.29 0 0 0 -0.95 1A7.13 7.13 0 0 0 1 20.05a9.22 9.22 0 0 0 -0.9 3 0.34 0.34 0 0 0 0.26 0.39 0.34 0.34 0 0 0 0.39 -0.26A9.44 9.44 0 0 1 2 20.57a9.46 9.46 0 0 1 0.69 -1 11 11 0 0 1 0.78 -0.87 6 6 0 0 1 1.46 -1.09A8.83 8.83 0 0 0 6 21.3a6.33 6.33 0 0 0 5.82 2.7 7.16 7.16 0 0 0 5.67 -3 8.51 8.51 0 0 0 1.1 -3.56 9.25 9.25 0 0 1 2 1.29 10.43 10.43 0 0 1 1.09 1 6.58 6.58 0 0 1 0.89 1.17 3.4 3.4 0 0 1 0.32 0.76c0.13 0.45 0.21 0.92 0.34 1.37a0.33 0.33 0 0 0 0.4 0.25 0.33 0.33 0 0 0 0.24 -0.44Zm-7.22 -2.43a6.17 6.17 0 0 1 -4.89 2.46 5.31 5.31 0 0 1 -4.92 -2.1c-0.58 -0.88 -1.5 -2.46 -1.21 -8.18a2.59 2.59 0 0 0 0.49 0.45 2 2 0 0 0 1.12 0.33 2.64 2.64 0 0 0 0.93 -0.16 7.92 7.92 0 0 0 1.53 -0.73A3.37 3.37 0 0 1 11 12a4.13 4.13 0 0 1 2.08 0.5 7.07 7.07 0 0 0 2.5 0.77 3 3 0 0 0 2.16 -0.91s0 -0.07 0.05 -0.11c0.12 3.46 0.21 6.05 -1.14 8.16Z" fill="#020202" fill-rule="evenodd" stroke-width="1"></path>
      <path d="M3.5 7.25C20.61 7 19.24 7 20 7.14a0.32 0.32 0 0 0 0.39 -0.26 0.33 0.33 0 0 0 -0.26 -0.39 9.94 9.94 0 0 0 -1.64 -0.21c0 -0.25 0 -0.51 -0.06 -0.76a6.76 6.76 0 0 0 -0.85 -2.74A6.61 6.61 0 0 0 11.85 0 7.42 7.42 0 0 0 6 2.59a4.75 4.75 0 0 0 -0.78 1.79A11.67 11.67 0 0 0 5 6.67H3.5a0.3 0.3 0 0 0 0 0.59Zm2.61 -2.66a3.73 3.73 0 0 1 0.67 -1.39 6.5 6.5 0 0 1 5.08 -2.08 5.68 5.68 0 0 1 4.91 2.19 6 6 0 0 1 0.81 2.33c0 0.2 0 0.4 0.06 0.6h-0.08c-1.28 0 -2.58 0.12 -3.81 0.13l-6 0.31H5.83a10.51 10.51 0 0 1 0.28 -2.09Z" fill="#4C57E6" fill-rule="evenodd" stroke-width="1"></path>
    </g>
  </g>
</svg>