<svg xmlns="http://www.w3.org/2000/svg" viewBox="0 0 24 24" id="Geometric-History-Man-Indian-Sultan--Streamline-Freehand">
  <desc>
    Geometric History Man Indian Sultan Streamline Icon: https://streamlinehq.com
  </desc>
  <g>
    <path d="M13.06 12.7a1.07 1.07 0 0 1 0.55 -0.11h0.23a1 1 0 0 1 0.17 0 0.83 0.83 0 0 1 0.43 0.17 0.32 0.32 0 1 0 0.54 -0.36 1.43 1.43 0 0 0 -0.85 -0.85 1 1 0 0 0 -0.33 0 1 1 0 0 0 -0.49 0.09 1.47 1.47 0 0 0 -0.7 0.75 0.29 0.29 0 1 0 0.45 0.37Z" fill="#020202" fill-rule="evenodd" stroke-width="1"></path>
    <path d="M8.32 12.9a2.41 2.41 0 0 1 0.68 -0.17l0.28 0a1.11 1.11 0 0 1 0.19 0 1.42 1.42 0 0 1 0.54 0.13 0.33 0.33 0 0 0 0.43 -0.5 1.78 1.78 0 0 0 -1 -0.68 1 1 0 0 0 -0.34 0 1.05 1.05 0 0 0 -0.49 0.13 1.81 1.81 0 0 0 -0.69 0.75 0.27 0.27 0 0 0 0 0.4 0.28 0.28 0 0 0 0.4 -0.06Z" fill="#020202" fill-rule="evenodd" stroke-width="1"></path>
    <g>
      <path d="M9.88 6.88a2 2 0 0 0 -0.38 0.89c-0.18 1.33 1.2 1.51 1.91 1.56S13.89 9 13.14 7.1a1.72 1.72 0 0 0 -0.2 -0.38 0.29 0.29 0 0 0 0.14 -0.15l0.15 -0.33A17.47 17.47 0 0 0 14 4a6.16 6.16 0 0 0 0.08 -1.22 2.66 2.66 0 0 0 -0.18 -0.88A3.2 3.2 0 0 0 11.5 0.08a3.48 3.48 0 0 0 -2.91 0.66 2.86 2.86 0 0 0 -1 1.93 3.32 3.32 0 0 0 0.5 2.05 8.44 8.44 0 0 0 1.79 2.16Zm1.85 1.77a0.9 0.9 0 0 1 -0.86 0 1 1 0 0 1 -0.47 -0.79 1.23 1.23 0 0 1 0.2 -0.68 2 2 0 0 1 0.4 -0.44h0.06a0.89 0.89 0 0 1 1.22 0.66 1 1 0 0 1 -0.55 1.25ZM8.51 2.8a1.89 1.89 0 0 1 0.77 -1.23 2.46 2.46 0 0 1 2 -0.42A2.26 2.26 0 0 1 13 2.27a1.92 1.92 0 0 1 0.18 0.74 5.13 5.13 0 0 1 0 0.88 6 6 0 0 1 -0.17 1c-0.12 0.46 -0.29 0.91 -0.46 1.38a1.45 1.45 0 0 0 -0.79 -0.31l0 -1a2.83 2.83 0 0 0 0 -0.41 2.59 2.59 0 0 0 -0.09 -0.4c-0.09 -0.32 -0.23 -0.6 -0.33 -0.92a0.29 0.29 0 0 0 -0.57 0 6.07 6.07 0 0 0 -0.14 1 3.27 3.27 0 0 0 0 0.44 3.11 3.11 0 0 0 0.11 0.41c0.09 0.3 0.22 0.58 0.33 0.88a2.5 2.5 0 0 0 -0.25 0.09 0.45 0.45 0 0 0 -0.13 0.1 2.55 2.55 0 0 0 -0.39 0.28 6 6 0 0 1 -0.85 -1A7.38 7.38 0 0 1 8.8 4.3a2.44 2.44 0 0 1 -0.29 -1.5Z" fill="#4C57E6" fill-rule="evenodd" stroke-width="1"></path>
      <path d="M22.76 22.92a8.72 8.72 0 0 0 -2.31 -3 8.53 8.53 0 0 0 -1.37 -0.9 8.3 8.3 0 0 0 -1.5 -0.62 15.41 15.41 0 0 0 -2.83 -0.56 5.62 5.62 0 0 0 0.44 -0.41 6.56 6.56 0 0 0 0.92 -1.28 2.9 2.9 0 0 0 0.31 -0.82c0.08 -0.38 0.12 -0.78 0.16 -1.15 0.06 -0.53 -0.07 -0.45 0.42 -0.61a1.79 1.79 0 0 0 1.18 -1.18 8.21 8.21 0 0 0 0.36 -2.18 8.94 8.94 0 0 0 0 -2.13A3.32 3.32 0 0 0 18 6.63a3.88 3.88 0 0 0 -2.5 -1.42 4.3 4.3 0 0 0 -1.24 0c-0.92 0.3 -0.76 0.59 -0.37 0.79a3.55 3.55 0 0 1 1.45 0 3 3 0 0 1 1.76 1.27 2.61 2.61 0 0 1 0.39 1 9.2 9.2 0 0 1 0.07 1.89 7.15 7.15 0 0 1 -0.11 2 1.15 1.15 0 0 1 -0.66 0.81c-0.06 0 -0.09 0.07 -0.13 0.11l0 -0.77a17 17 0 0 0 -0.2 -1.86s0.17 -0.17 -1.21 -0.64c-1.94 -0.65 -8.75 -0.42 -8.9 0.72 -0.09 0.62 -0.17 1.26 -0.2 1.91a1.84 1.84 0 0 1 -0.84 -0.84 3.94 3.94 0 0 1 -0.26 -1.6 5.23 5.23 0 0 1 0.46 -2.48A2.58 2.58 0 0 1 7.25 6a2.51 2.51 0 0 1 0.55 -0.05c0.65 -0.43 0.73 -0.73 -0.44 -0.78h-0.28A3.39 3.39 0 0 0 4.54 7 5.57 5.57 0 0 0 4 10a4.77 4.77 0 0 0 0.61 2 2.62 2.62 0 0 0 1.53 1.1 9.39 9.39 0 0 0 0.09 1.19 6.26 6.26 0 0 0 0.89 2.45 5.11 5.11 0 0 0 1.06 1.16 14.39 14.39 0 0 0 -2.39 0.7c-0.22 0.09 -0.43 0.2 -0.65 0.3a9.11 9.11 0 0 0 -1.36 0.79 6.84 6.84 0 0 0 -2.48 3.13 0.29 0.29 0 0 0 0.15 0.38 0.29 0.29 0 0 0 0.38 -0.14 6.84 6.84 0 0 1 2.56 -2.47c0.24 -0.16 0.5 -0.31 0.76 -0.46l0 0.38a5.07 5.07 0 0 0 0.09 0.54c0 0.17 0.07 0.35 0.11 0.53 0.1 0.43 0.21 0.84 0.29 1.27a0.33 0.33 0 0 0 0.34 0.32 0.32 0.32 0 0 0 0.31 -0.34 12.62 12.62 0 0 0 0.09 -1.38 3.8 3.8 0 0 0 -0.06 -0.59 3.9 3.9 0 0 0 -0.14 -0.59 3.68 3.68 0 0 0 -0.26 -0.57c0.12 -0.06 0.23 -0.13 0.35 -0.18A19.4 19.4 0 0 1 9 18.43a5.19 5.19 0 0 0 1 0.43 2.08 2.08 0 0 0 -0.52 1 2 2 0 0 0 1 2.14 1.52 1.52 0 0 0 0.54 0.16l0 0.1a1.13 1.13 0 0 0 -0.05 0.32 1.9 1.9 0 0 0 0 0.34 7.13 7.13 0 0 0 0.18 0.8 0.33 0.33 0 0 0 0.66 0c0.05 -0.25 0.14 -0.47 0.19 -0.72a1.55 1.55 0 0 0 0.06 -0.31 1.61 1.61 0 0 0 0 -0.31c0 -0.13 0 -0.25 -0.07 -0.37A2.44 2.44 0 0 0 13 21a2.06 2.06 0 0 0 0 -2.18 5.87 5.87 0 0 0 0.9 -0.37l0.12 -0.08a22 22 0 0 1 3.29 1.06l0.36 0.16a8 8 0 0 0 -0.39 1.07 4.25 4.25 0 0 0 -0.12 0.6 4.17 4.17 0 0 0 0 0.61c0 0.48 0 0.95 0.05 1.42a0.34 0.34 0 0 0 0.3 0.36 0.33 0.33 0 0 0 0.35 -0.3c0.1 -0.46 0.23 -0.9 0.33 -1.36a5.4 5.4 0 0 0 0.1 -0.58c0 -0.19 0.05 -0.38 0.07 -0.58s0 -0.63 0 -0.94a11.15 11.15 0 0 1 1.08 0.6 8.58 8.58 0 0 1 2.78 2.75 0.32 0.32 0 0 0 0.44 0.13 0.33 0.33 0 0 0 0.1 -0.45ZM7.46 15l-0.2 -0.08a6.05 6.05 0 0 1 -0.34 -1.38 12.83 12.83 0 0 1 0 -2.7c0.59 -0.15 1.18 -0.32 1.78 -0.45a8.72 8.72 0 0 1 1.23 -0.19 9.59 9.59 0 0 1 1.42 0 20.36 20.36 0 0 1 2.2 0.17c0.47 0.06 1 0.08 1.51 0.19a3.17 3.17 0 0 1 0.8 0.28c0.05 0.5 0.08 1 0.08 1.49a10.47 10.47 0 0 1 -0.17 1.75c-0.06 0.34 -0.11 0.71 -0.2 1.06 0 0.06 -0.05 0.1 -0.07 0.16a3.17 3.17 0 0 1 -0.49 0.13 1.28 1.28 0 0 1 -0.55 0l0 -0.05 -0.29 -0.52a3.05 3.05 0 0 0 -1.21 -0.91 4.35 4.35 0 0 0 -1.42 -0.34 4.77 4.77 0 0 0 -1.52 0.16 3.23 3.23 0 0 0 -1.37 0.78l-0.37 0.56 -0.2 0a4.19 4.19 0 0 1 -0.62 -0.11Zm4.88 5.18a1.7 1.7 0 0 1 -0.67 0.71 0.7 0.7 0 0 1 -0.67 0.11 1 1 0 0 1 -0.57 -1 0.9 0.9 0 0 1 0.73 -0.92 4.86 4.86 0 0 0 1.12 -0.08 1.14 1.14 0 0 1 0.06 1.2Zm1.08 -2.7a4.48 4.48 0 0 1 -3 0.34 4.2 4.2 0 0 1 -2.51 -1.66 4.78 4.78 0 0 1 -0.26 -0.42l0.25 0.08a2.88 2.88 0 0 0 0.45 0.08 0.41 0.41 0 0 0 0.25 -0.07 0.83 0.83 0 0 0 0.21 -0.17 6 6 0 0 1 0.38 -0.47 2.65 2.65 0 0 1 1 -0.42 4.16 4.16 0 0 1 1.18 -0.09 4.38 4.38 0 0 1 1.09 0.22c1.3 0.49 0.93 1 1.35 1.19a1.63 1.63 0 0 0 1.08 0.09 6.17 6.17 0 0 1 -0.48 0.54 4 4 0 0 1 -0.99 0.78Z" fill="#020202" fill-rule="evenodd" stroke-width="1"></path>
    </g>
  </g>
</svg>