<svg xmlns="http://www.w3.org/2000/svg" viewBox="0 0 24 24" id="Geometric-Police-Man-2--Streamline-Freehand">
  <desc>
    Geometric Police Man 2 Streamline Icon: https://streamlinehq.com
  </desc>
  <g>
    <path d="M11.14 11.44a0.33 0.33 0 0 0 0.11 -0.46 1.7 1.7 0 0 0 -1.06 -1 1.12 1.12 0 0 0 -0.4 -0.07 1.4 1.4 0 0 0 -0.6 0.12 1.91 1.91 0 0 0 -0.89 0.87 0.29 0.29 0 0 0 0.44 0.39 1.7 1.7 0 0 1 0.79 -0.29 1.42 1.42 0 0 1 0.41 0 1.12 1.12 0 0 1 0.75 0.34 0.34 0.34 0 0 0 0.45 0.1Z" fill="#020202" fill-rule="evenodd" stroke-width="1"></path>
    <path d="M13.3 11.57a1.48 1.48 0 0 1 0.68 -0.19l0.34 0 0.2 0a0.72 0.72 0 0 1 0.45 0.24 0.33 0.33 0 0 0 0.6 -0.29 1.39 1.39 0 0 0 -1 -1 1.11 1.11 0 0 0 -0.37 0 1.22 1.22 0 0 0 -0.53 0.13 1.78 1.78 0 0 0 -0.81 0.84 0.3 0.3 0 0 0 0.06 0.41 0.28 0.28 0 0 0 0.38 -0.14Z" fill="#020202" fill-rule="evenodd" stroke-width="1"></path>
    <path d="M12.4 14.17a2.28 2.28 0 0 0 1.18 -0.77 0.34 0.34 0 0 0 0 -0.47 0.33 0.33 0 0 0 -0.47 0 1.58 1.58 0 0 1 -1.22 0.2l-0.32 -0.13a1.91 1.91 0 0 1 -0.85 -0.43 0.29 0.29 0 0 0 -0.4 -0.08 0.28 0.28 0 0 0 -0.08 0.4 2.2 2.2 0 0 0 0.89 1.11 1.75 1.75 0 0 0 0.62 0.21 1.58 1.58 0 0 0 0.65 -0.04Z" fill="#020202" fill-rule="evenodd" stroke-width="1"></path>
    <path d="M11.82 5.13a1.65 1.65 0 0 0 1.52 0.09 1.55 1.55 0 0 0 0.87 -1.37 1.44 1.44 0 0 0 -0.78 -1.34 1.19 1.19 0 0 0 -0.54 -0.11c-0.36 0 -0.78 -0.33 -1.49 0.62a1.47 1.47 0 0 0 -0.28 0.77 1.45 1.45 0 0 0 0.7 1.34Zm1 -2a0.49 0.49 0 0 1 0.23 0.08 0.57 0.57 0 0 1 0.18 0.58 0.49 0.49 0 0 1 -0.31 0.41 0.62 0.62 0 0 1 -0.55 0c-0.18 -0.1 -0.37 -0.2 -0.37 -0.42 -0.06 -0.55 0.24 -0.66 0.8 -0.65Z" fill="#4C57E6" fill-rule="evenodd" stroke-width="1"></path>
    <path d="M23 23.33a13.21 13.21 0 0 0 -2 -3.57A12.14 12.14 0 0 0 18 17a10.71 10.71 0 0 0 -3.32 -1.36 7.67 7.67 0 0 0 3.12 -3 6.83 6.83 0 0 0 0.67 -1.73c0.14 -0.58 1.17 -6.59 -1.56 -9.2A6.34 6.34 0 0 0 11 0.2 6.81 6.81 0 0 0 7.14 3a8.54 8.54 0 0 0 -1.32 4.38 32.84 32.84 0 0 0 0.25 4.11 6.25 6.25 0 0 0 1.18 2.67 6.29 6.29 0 0 0 1.8 1.5 11.36 11.36 0 0 0 -3.47 1.44 10.81 10.81 0 0 0 -2.73 2.75A17.51 17.51 0 0 0 1 23.18a0.28 0.28 0 0 0 0.15 0.38 0.29 0.29 0 0 0 0.38 -0.14 16.27 16.27 0 0 1 1.93 -3.12 9.9 9.9 0 0 1 2.63 -2.39 9.8 9.8 0 0 1 2.58 -1.06 0.29 0.29 0 0 0 0.11 0.2c0.42 0.38 0.83 0.77 1.24 1.16s0.79 0.79 1.16 1.21c0.06 0 0.42 0.47 0.61 0.62 -0.06 0.31 -0.11 0.62 -0.14 0.93s0 0.42 0 0.64 0 0.42 0.06 0.63c0.07 0.49 0.18 1 0.29 1.46a0.33 0.33 0 1 0 0.65 -0.06c0 -0.49 0.08 -1 0.1 -1.45l0 -0.62 0 -0.62c0 -0.21 -0.08 -0.56 -0.13 -0.84a2.33 2.33 0 0 0 0.61 -0.41 9 9 0 0 0 0.74 -0.85c0.29 -0.37 0.57 -0.72 0.87 -1.06s0.49 -0.55 0.74 -0.83a9.16 9.16 0 0 1 2 0.85 11.32 11.32 0 0 1 2.89 2.46 12.61 12.61 0 0 1 2 3.29 0.31 0.31 0 0 0 0.42 0.19 0.32 0.32 0 0 0 0.11 -0.42ZM7.86 3.46a5.86 5.86 0 0 1 3.41 -2.19 5.36 5.36 0 0 1 5 1.17 5.64 5.64 0 0 1 1.87 4.9 25.18 25.18 0 0 0 -3.89 -1c-0.59 -0.09 -1.2 -0.16 -1.79 -0.19a13.82 13.82 0 0 0 -1.82 0 18.49 18.49 0 0 0 -4.14 0.75 7.65 7.65 0 0 1 1.36 -3.44Zm9.33 4.38a13.68 13.68 0 0 1 -4 0.72 15.51 15.51 0 0 1 -2.64 -0.11A11.62 11.62 0 0 1 8 7.83c-0.21 -0.08 -0.41 -0.18 -0.61 -0.28l-0.21 -0.13a22.05 22.05 0 0 1 3.54 -0.19l1.73 0c0.58 0 1.15 0.06 1.72 0.12 0.98 0.14 2.01 0.3 3.02 0.49ZM8 13.52a5.18 5.18 0 0 1 -1.13 -2.21 14.54 14.54 0 0 1 -0.37 -3.54l0.5 0.36a4.71 4.71 0 0 0 0.65 0.4 10.25 10.25 0 0 0 2.72 1 11 11 0 0 0 2.87 0.16 12.47 12.47 0 0 0 4.88 -1.43 10.76 10.76 0 0 1 -0.26 2.09 6.09 6.09 0 0 1 -0.76 1.88 6.69 6.69 0 0 1 -4.34 3A4.87 4.87 0 0 1 8 13.52Zm6.19 3.69c-0.34 0.31 -0.68 0.64 -1 1a9.74 9.74 0 0 1 -0.72 0.69 1.13 1.13 0 0 1 -0.23 0.17c-0.13 -0.15 -0.27 -0.38 -0.3 -0.41 -0.35 -0.3 -0.72 -0.58 -1.09 -0.86s-1 -0.71 -1.53 -1.06a13.77 13.77 0 0 1 2.49 -0.29 12.72 12.72 0 0 1 3 0.31Z" fill="#020202" fill-rule="evenodd" stroke-width="1"></path>
    <path d="M7.76 19.05c-0.22 -0.23 -0.74 0.11 -0.75 0.11l-1.07 1a4 4 0 0 0 -0.37 0.36 0.43 0.43 0 0 0 -0.08 0.34 1.39 1.39 0 0 0 0.22 0.59 6.88 6.88 0 0 0 0.63 0.83 5.46 5.46 0 0 0 0.51 0.61 1.08 1.08 0 0 0 0.4 0.22 0.74 0.74 0 0 0 0.54 -0.13 5.54 5.54 0 0 0 0.73 -0.9c0.09 -0.13 0.4 -0.47 0.55 -0.71a0.86 0.86 0 0 0 0.15 -0.49 1.4 1.4 0 0 0 -0.35 -0.79 10.76 10.76 0 0 0 -1.11 -1.04Zm-0.09 2.34s-0.16 0.3 -0.29 0.49c-0.09 -0.13 -0.18 -0.3 -0.22 -0.35s-0.39 -0.36 -0.58 -0.58l-0.12 -0.12c0 -0.07 0.07 -0.15 0.08 -0.17l0.84 -1a9 9 0 0 1 0.71 0.77c0.51 0.66 -0.09 0.57 -0.42 0.96Z" fill="#4C57E6" fill-rule="evenodd" stroke-width="1"></path>
    <path d="M18.33 22a4.78 4.78 0 0 0 -1.13 -0.13 2.59 2.59 0 0 0 -0.48 0 2.5 2.5 0 0 0 -0.45 0.12c-0.34 0.12 -0.64 0.29 -1 0.44a0.28 0.28 0 0 0 -0.24 0.33 0.29 0.29 0 0 0 0.34 0.24 8.41 8.41 0 0 0 1.23 0 5.1 5.1 0 0 0 0.68 -0.13 9 9 0 0 1 1 -0.26 0.33 0.33 0 1 0 0 -0.66Z" fill="#4C57E6" fill-rule="evenodd" stroke-width="1"></path>
  </g>
</svg>