<svg xmlns="http://www.w3.org/2000/svg" viewBox="0 0 24 24" id="Geometric-Professions-Man-Office--Streamline-Freehand">
  <desc>
    Geometric Professions Man Office Streamline Icon: https://streamlinehq.com
  </desc>
  <g>
    <path d="M10 9.25a0.33 0.33 0 1 0 0.57 -0.35A2.22 2.22 0 0 0 9 7.59 1.8 1.8 0 0 0 7.61 8a2.84 2.84 0 0 0 -0.41 0.52 3.89 3.89 0 0 0 -0.35 0.82 0.3 0.3 0 1 0 0.53 0.26 4.25 4.25 0 0 1 0.4 -0.46 1.68 1.68 0 0 1 0.44 -0.29 1 1 0 0 1 0.41 -0.13A0.81 0.81 0 0 1 9 8.7a1.66 1.66 0 0 1 1 0.55Z" fill="#020202" fill-rule="evenodd" stroke-width="1"></path>
    <path d="M13.06 9.42a2.81 2.81 0 0 1 0.52 -0.42 1 1 0 0 1 0.47 -0.18 0.75 0.75 0 0 1 0.42 0 1.42 1.42 0 0 1 0.35 0.11 1.89 1.89 0 0 1 0.54 0.47 0.34 0.34 0 0 0 0.45 0.14 0.33 0.33 0 0 0 0.19 -0.46 2.29 2.29 0 0 0 -1 -1.23 1.63 1.63 0 0 0 -1.23 -0.12 1.71 1.71 0 0 0 -0.66 0.49 3.06 3.06 0 0 0 -0.51 0.89 0.29 0.29 0 1 0 0.5 0.31Z" fill="#020202" fill-rule="evenodd" stroke-width="1"></path>
    <path d="M13.79 11.82a0.35 0.35 0 0 0 -0.07 -0.47 0.34 0.34 0 0 0 -0.47 0.08 2.25 2.25 0 0 1 -1.87 0.65 6.2 6.2 0 0 1 -0.62 -0.06 2.91 2.91 0 0 1 -1.4 -0.53 0.3 0.3 0 0 0 -0.42 0 0.29 0.29 0 0 0 0 0.41 3.29 3.29 0 0 0 1.56 1.18 3.23 3.23 0 0 0 0.87 0.14 2.79 2.79 0 0 0 2.43 -1.39Z" fill="#020202" fill-rule="evenodd" stroke-width="1"></path>
    <g>
      <path d="M16.43 17.36c-0.14 -0.45 -0.67 -0.56 -0.71 -0.12s0.09 1 0.12 1.52a8.15 8.15 0 0 1 0 1.21l0 0.49 -0.62 -0.23c-0.73 -0.28 -1.41 -0.71 -2.15 -1l-0.25 -0.07c0.3 -0.24 0.59 -0.48 0.87 -0.73l1.42 -1.32c0.29 -0.37 -0.5 -0.54 -1.09 -0.14l-1.82 1.29c-1.08 0.66 -0.08 0.84 -1.36 -0.32l-1 -0.74c-0.5 -0.45 -1.27 -0.3 -1 0.25l1.28 1.29c0.11 0.1 0.34 0.4 0.57 0.64a3.13 3.13 0 0 1 -0.36 0.19c-0.3 0.15 -0.62 0.28 -0.94 0.41a8.1 8.1 0 0 1 -0.95 0.31 4.43 4.43 0 0 1 -0.66 0.14l-0.16 0a2.66 2.66 0 0 0 -0.05 -0.42l0.07 -1.9 0 -0.38c-0.14 -0.41 -0.64 -0.24 -0.74 0.2a0.51 0.51 0 0 1 0 0.13L6.64 20a5.79 5.79 0 0 0 -0.08 0.73 0.56 0.56 0 0 0 0.13 0.32 1.1 1.1 0 0 0 0.68 0.38 3.86 3.86 0 0 0 1.25 -0.08 8.57 8.57 0 0 0 1.1 -0.35l0.13 0 0 0.09a3.65 3.65 0 0 0 -0.18 0.56 5.4 5.4 0 0 0 -0.11 0.58c-0.06 0.46 -0.08 0.92 -0.1 1.38a0.34 0.34 0 0 0 0.27 0.39 0.33 0.33 0 0 0 0.39 -0.27c0.14 -0.42 0.32 -0.82 0.47 -1.25 0.06 -0.18 0.12 -0.36 0.17 -0.55a4.88 4.88 0 0 0 0.12 -0.55 8.53 8.53 0 0 0 0.1 -0.85c0.19 -0.1 0.38 -0.21 0.57 -0.29a0.67 0.67 0 0 1 0.31 -0.07 3.28 3.28 0 0 1 0.76 0.14 9.77 9.77 0 0 0 0.11 1.06 3.1 3.1 0 0 0 0.15 0.58 5.37 5.37 0 0 0 0.21 0.56c0.18 0.43 0.4 0.84 0.61 1.27a0.33 0.33 0 0 0 0.42 0.21 0.32 0.32 0 0 0 0.21 -0.41c-0.07 -0.47 -0.13 -0.93 -0.23 -1.39 0 -0.19 -0.09 -0.38 -0.14 -0.57a5.31 5.31 0 0 0 -0.2 -0.56l-0.18 -0.39c0.42 0.18 0.85 0.37 1.29 0.51l0.81 0.25 0.25 0.07a0.46 0.46 0 0 0 0.47 -0.13 1 1 0 0 0 0.25 -0.49 4.56 4.56 0 0 0 0.08 -0.85 9.56 9.56 0 0 0 -0.07 -1.32c-0.09 -0.46 -0.16 -0.91 -0.23 -1.35Z" fill="#4C57E6" fill-rule="evenodd" stroke-width="1"></path>
      <path d="M23.36 22.79a15.8 15.8 0 0 0 -0.49 -1.85 6 6 0 0 0 -0.57 -1.2 10 10 0 0 0 -5.82 -4.07 11.21 11.21 0 0 0 -1.42 -0.31 9.59 9.59 0 0 0 1.26 -0.69 9.5 9.5 0 0 0 1.42 -1.2 7.46 7.46 0 0 0 1.34 -8.27A8.45 8.45 0 0 0 12.51 0a7.09 7.09 0 0 0 -2.42 0.17 6.71 6.71 0 0 0 -3.95 2.42A9.07 9.07 0 0 0 5 4a13.46 13.46 0 0 0 -0.83 1.5 7.66 7.66 0 0 0 -0.52 1.4 11.59 11.59 0 0 0 -0.27 1.45A6.3 6.3 0 0 0 6.9 15.1a8.5 8.5 0 0 0 1.32 0.54l-0.48 0.15 -0.34 0.15 -0.07 0a12.11 12.11 0 0 0 -1.1 0.51 13.07 13.07 0 0 0 -4.4 3.46 5.47 5.47 0 0 0 -1.19 3.6 0.3 0.3 0 0 0 0.59 0 4.71 4.71 0 0 1 1.2 -3.1 13.42 13.42 0 0 1 9.21 -4.18c3.74 -0.13 7.85 0.89 10 3.95a5.53 5.53 0 0 1 0.54 1 16.57 16.57 0 0 1 0.53 1.82 0.34 0.34 0 0 0 0.4 0.25 0.33 0.33 0 0 0 0.25 -0.46ZM8.43 1.77c2.43 -1.26 3.56 -1 4 -1a7.63 7.63 0 0 1 5.77 4.79 0.49 0.49 0 0 0 0 0.11 0.31 0.31 0 0 0 -0.23 0 14 14 0 0 1 -4 0.16 14.56 14.56 0 0 1 -2 -0.37 10.51 10.51 0 0 1 -1.85 -0.67A7.06 7.06 0 0 1 8.9 4c-0.61 -0.43 -1.17 -0.92 -1.75 -1.36a6.71 6.71 0 0 1 1.28 -0.87ZM4.9 5.84a10.62 10.62 0 0 1 0.76 -1.46 8.34 8.34 0 0 1 1 -1.31c0.53 0.51 1 1.05 1.58 1.55L7 5.27l-2.3 1.1c0.06 -0.18 0.12 -0.37 0.2 -0.53Zm9.37 8.64a8.62 8.62 0 0 1 -6.87 -0.35 5.41 5.41 0 0 1 -3.14 -5.67 10 10 0 0 1 0.22 -1.35h0.06a11 11 0 0 0 1.8 -0.34 5.79 5.79 0 0 0 1.13 -0.52 4.82 4.82 0 0 0 0.53 -0.4c0.3 -0.25 0.57 -0.52 0.87 -0.77a6.85 6.85 0 0 0 0.83 0.58 8.82 8.82 0 0 0 2 0.85 9.8 9.8 0 0 0 2.17 0.32 13.67 13.67 0 0 0 4.26 -0.55 0.31 0.31 0 0 0 0.22 -0.18 6.38 6.38 0 0 1 -1.44 6.6 8.58 8.58 0 0 1 -1.24 1 7.8 7.8 0 0 1 -1.4 0.78Z" fill="#020202" fill-rule="evenodd" stroke-width="1"></path>
    </g>
  </g>
</svg>