<svg xmlns="http://www.w3.org/2000/svg" viewBox="0 0 24 24" id="Geometric-History-Man-Pirate-Eyepatch--Streamline-Freehand">
  <desc>
    Geometric History Man Pirate Eyepatch Streamline Icon: https://streamlinehq.com
  </desc>
  <g>
    <path d="M13.23 14.4a2.24 2.24 0 0 1 -1.48 0.19l-0.41 -0.09a2.68 2.68 0 0 1 -1 -0.46 0.29 0.29 0 0 0 -0.41 0 0.29 0.29 0 0 0 0 0.4 3 3 0 0 0 1 1.05 2 2 0 0 0 0.66 0.2 2 2 0 0 0 0.68 0 2.85 2.85 0 0 0 1.31 -0.7 0.32 0.32 0 1 0 -0.36 -0.54Z" fill="#020202" fill-rule="evenodd" stroke-width="1"></path>
    <path d="M8.55 10.48a0.85 0.85 0 0 1 0.32 -0.24 1 1 0 0 1 0.3 -0.05 0.63 0.63 0 0 1 0.36 0 1.15 1.15 0 0 1 0.33 0.09 3 3 0 0 1 0.38 0.23 0.33 0.33 0 0 0 0.46 0 0.32 0.32 0 0 0 0 -0.45 3.07 3.07 0 0 0 -0.41 -0.54 1.77 1.77 0 0 0 -0.41 -0.31 1.23 1.23 0 0 0 -0.64 -0.13 1.08 1.08 0 0 0 -0.61 0.2 1.49 1.49 0 0 0 -0.63 1 0.3 0.3 0 0 0 0.16 0.38 0.29 0.29 0 0 0 0.39 -0.18Z" fill="#020202" fill-rule="evenodd" stroke-width="1"></path>
    <path d="M10.71 4.5a0.29 0.29 0 1 0 0.42 0.39c0.26 -0.17 0.52 -0.3 0.78 -0.49l0.09 -0.06c0.24 0.16 0.49 0.3 0.74 0.45a0.32 0.32 0 0 0 0.45 0 0.33 0.33 0 0 0 0 -0.46l-0.53 -0.7a4.73 4.73 0 0 1 0.32 -0.46 0.32 0.32 0 1 0 -0.4 -0.5c-0.2 0.1 -0.39 0.21 -0.58 0.32l-0.07 -0.05a6.34 6.34 0 0 0 -0.94 -0.47 0.29 0.29 0 0 0 -0.4 0 0.3 0.3 0 0 0 0.05 0.4c0.21 0.26 0.37 0.52 0.58 0.77a7.89 7.89 0 0 0 -0.51 0.86Z" fill="#4C57E6" fill-rule="evenodd" stroke-width="1"></path>
    <g>
      <path d="M23.58 21a6.13 6.13 0 0 0 -0.2 -0.7 5.93 5.93 0 0 0 -1.12 -1.83 6.89 6.89 0 0 0 -1.65 -1.33 11.16 11.16 0 0 0 -3.7 -1.24 9.64 9.64 0 0 0 0.66 -2 18.56 18.56 0 0 0 0.16 -5.52s0.29 0 -1.72 -1.1a12.16 12.16 0 0 0 -1.65 -0.73A9.64 9.64 0 0 0 12.18 6a7.78 7.78 0 0 0 -2.26 0.05A7 7 0 0 0 6 8.17a0.27 0.27 0 0 0 0 0.33 22 22 0 0 0 -0.18 2.57v0.16a7.62 7.62 0 0 1 -2.17 -1A4.49 4.49 0 0 1 2 8.43c0.13 -0.1 0.36 -0.22 0.38 -0.24 0.51 -0.4 1.1 -0.62 1.63 -1a4.37 4.37 0 0 0 0.44 -0.31A5.52 5.52 0 0 0 5.31 6c0.53 -0.72 1 -1.57 1.49 -2.26A7.09 7.09 0 0 1 9.09 1.8a6.08 6.08 0 0 1 2.85 -0.71 7.18 7.18 0 0 1 2.18 0.37A4.71 4.71 0 0 1 16 2.54a23.43 23.43 0 0 1 1.83 2.54 5.81 5.81 0 0 0 0.56 0.65 6.08 6.08 0 0 0 1 0.83 7.88 7.88 0 0 0 1.14 0.63c1.26 0.46 1.37 0.11 0.67 1.4a5.06 5.06 0 0 1 -1.23 1.57 4.8 4.8 0 0 1 -1.76 0.93 0.32 0.32 0 1 0 0.17 0.62 5.41 5.41 0 0 0 2 -1A6.31 6.31 0 0 0 21.85 9a4.32 4.32 0 0 0 0.49 -1.39 0.74 0.74 0 0 0 -0.26 -0.64 1.88 1.88 0 0 0 -0.42 -0.23c-0.26 -0.11 -0.57 -0.18 -0.8 -0.29a9.05 9.05 0 0 1 -1 -0.59 5.37 5.37 0 0 1 -0.86 -0.77 22 22 0 0 1 -1.76 -2.6c-0.18 -0.23 -0.36 -0.46 -0.56 -0.67A5.56 5.56 0 0 0 14.47 0.44 8.21 8.21 0 0 0 12 0a6.94 6.94 0 0 0 -3.42 0.85A8 8 0 0 0 6 3.1c-0.52 0.71 -0.92 1.58 -1.43 2.33a4.12 4.12 0 0 1 -0.68 0.81c-0.11 0.09 -0.22 0.18 -0.34 0.26a19.35 19.35 0 0 0 -1.67 1.07 4.64 4.64 0 0 0 -0.59 0.59 0.44 0.44 0 0 0 -0.05 0.43 4.65 4.65 0 0 0 1.51 1.83 8.15 8.15 0 0 0 3 1.41 20.16 20.16 0 0 0 0.12 2.06 9.52 9.52 0 0 0 0.58 2.42c-0.7 0.24 -1.42 0.46 -2.11 0.72a13.8 13.8 0 0 0 -1.52 0.68 5.72 5.72 0 0 0 -1.45 1.17 4.33 4.33 0 0 0 -0.68 1.06 5.75 5.75 0 0 0 -0.48 3 0.29 0.29 0 0 0 0.29 0.28 0.29 0.29 0 0 0 0.28 -0.29 5.27 5.27 0 0 1 0.76 -2.52 5.14 5.14 0 0 1 0.63 -0.8 5.65 5.65 0 0 1 1.2 -1 13.58 13.58 0 0 1 1.34 -0.76c0.66 -0.33 1.34 -0.63 2 -0.95a7 7 0 0 0 0.66 1.1 1.58 1.58 0 0 0 0.12 0.15A11.05 11.05 0 0 0 7.38 20a2.28 2.28 0 0 0 0 0.26l-0.21 0a1.45 1.45 0 0 0 -0.36 0 1.91 1.91 0 0 0 -0.36 0.07c-1.17 0.3 -1.12 0.49 -1.1 0.64s0.12 0.32 1.2 0.38h0.35a2 2 0 0 0 0.34 -0.05l0.24 -0.08 0 0.19c0.09 0.55 0.2 1.07 0.31 1.61 -0.21 0 -0.42 -0.07 -0.64 -0.09a2.82 2.82 0 0 0 -0.41 0 1.89 1.89 0 0 0 -0.4 0.08c-1.3 0.37 -1.2 0.64 -1.16 0.77s0.15 0.26 1.32 0.25a4.21 4.21 0 0 0 0.66 -0.03 4.65 4.65 0 0 0 0.93 -0.33 0.35 0.35 0 0 0 0.17 0.06 0.33 0.33 0 0 0 0.3 -0.35l0 -2a8.08 8.08 0 0 0 -0.05 -0.85q0 -0.42 -0.09 -0.84l-0.09 -0.53a8.11 8.11 0 0 0 2.54 1.66 1.28 1.28 0 0 0 0.76 0 6.44 6.44 0 0 0 1 -0.43 9 9 0 0 0 1.89 -1.29l0.31 -0.3c-0.08 0.33 -0.15 0.66 -0.2 1s-0.05 0.51 -0.06 0.77 0 0.51 0 0.77c0 0.6 0.13 1.19 0.23 1.79a0.31 0.31 0 0 0 0.34 0.3 0.32 0.32 0 0 0 0.3 -0.34s0 -0.06 0 -0.09c0.3 0.05 0.56 0.12 0.87 0.15a2.28 2.28 0 0 0 0.37 0 1.5 1.5 0 0 0 0.37 -0.05c1.11 -0.21 1.2 -0.34 1.19 -0.57s-0.12 -0.32 -1.23 -0.45a2.54 2.54 0 0 0 -0.39 0 1.72 1.72 0 0 0 -0.39 0 6.55 6.55 0 0 0 -0.74 0.27l0.09 -1 0 -0.58a3.87 3.87 0 0 0 0.61 0.12 2.47 2.47 0 0 0 0.54 -0.05c1.05 -0.14 1.13 -0.24 1.15 -0.45s0.07 -0.4 -1.15 -0.57a2.19 2.19 0 0 0 -0.36 0 2.23 2.23 0 0 0 -0.36 0.05 2.92 2.92 0 0 0 -0.42 0.13v-0.11c0 -0.59 -0.08 -1.16 -0.09 -1.76l0 -0.07c0.17 -0.2 0.35 -0.4 0.5 -0.6a8.68 8.68 0 0 0 0.56 -0.92 13 13 0 0 1 3.41 1.62 9.42 9.42 0 0 1 1.43 1.16 5.88 5.88 0 0 1 1.09 1.44 4.57 4.57 0 0 1 0.28 0.75c0.12 0.43 0.19 0.86 0.31 1.29a0.31 0.31 0 0 0 0.38 0.24 0.32 0.32 0 0 0 0.25 -0.38c0 -0.6 -0.03 -1.12 -0.13 -1.66Zm-6.83 -7.32a8.15 8.15 0 0 1 -1.47 3.07 9.82 9.82 0 0 1 -1.42 1.47 7.81 7.81 0 0 1 -1.68 1.12c-1.62 0.81 -3.47 -1.27 -4 -1.95a8.15 8.15 0 0 1 -1.49 -3.64l0 -0.39 0.06 0.06a1.49 1.49 0 0 0 0.3 0.18 3.38 3.38 0 0 0 0.44 0.18 2.9 2.9 0 0 0 1 0.16 2.67 2.67 0 0 0 1 -0.2c0.5 -0.23 1 -0.6 1.47 -0.86a1.46 1.46 0 0 1 0.79 -0.21 2.61 2.61 0 0 1 1.25 0.55 6 6 0 0 0 1.6 0.87 2 2 0 0 0 1.72 -0.27 2.71 2.71 0 0 0 0.45 -0.41l0.1 -0.12c-0.08 0.16 -0.09 0.29 -0.12 0.42Zm-0.06 -1.29 -0.81 0.75a1.27 1.27 0 0 1 -1.05 0.08 5.37 5.37 0 0 1 -1.27 -0.86 3.55 3.55 0 0 0 -1.79 -0.78 2.38 2.38 0 0 0 -1.07 0.2c-0.6 0.27 -1.1 0.81 -1.67 1.11a1.85 1.85 0 0 1 -0.64 0.21 2.54 2.54 0 0 1 -0.73 0l-0.56 -0.2a1.84 1.84 0 0 1 -0.34 -0.27 3.11 3.11 0 0 1 -0.23 -0.28c0 -0.43 -0.07 -0.86 -0.08 -1.29a22.23 22.23 0 0 1 0.07 -2.58 7.63 7.63 0 0 1 5.15 -1.41 10.47 10.47 0 0 1 2.4 0.4 10.32 10.32 0 0 1 1.93 0.66 5.49 5.49 0 0 1 1.1 0.69 24.93 24.93 0 0 1 0 2.7 1.33 1.33 0 0 1 -0.22 0.74 0.6 0.6 0 0 1 -0.19 0.16Z" fill="#020202" fill-rule="evenodd" stroke-width="1"></path>
      <path d="m16.72 11.21 -0.3 -0.27 -0.55 -0.46a1.25 1.25 0 0 0 -0.15 -0.84 1.19 1.19 0 0 0 -1.61 -0.59c-0.32 -0.26 -0.65 -0.52 -1 -0.75s-0.66 -0.44 -1 -0.63L12 7.58c-1.46 -0.41 -1.75 -0.27 -1.47 0.13l0.67 0.43c0.46 0.32 0.89 0.67 1.34 1l0.91 0.7 0 0.06a1.28 1.28 0 0 0 0.41 1.33 1.13 1.13 0 0 0 0.51 0.23 1.49 1.49 0 0 0 0.73 -0.05 1.77 1.77 0 0 0 0.36 -0.2l0.79 0.53c0.48 0.31 0.65 0.12 0.47 -0.53Z" fill="#4C57E6" fill-rule="evenodd" stroke-width="1"></path>
    </g>
  </g>
</svg>