<svg xmlns="http://www.w3.org/2000/svg" viewBox="0 0 24 24" id="Geometric-Professions-Woman-Theif--Streamline-Freehand">
  <desc>
    Geometric Professions Woman Theif Streamline Icon: https://streamlinehq.com
  </desc>
  <g>
    <path d="M12.78 10.47a3 3 0 0 0 -0.78 -0.18 2.57 2.57 0 0 0 -0.83 0.07 2.77 2.77 0 0 0 -1.5 1.09 0.31 0.31 0 0 0 0 0.41 0.29 0.29 0 0 0 0.41 0 2.35 2.35 0 0 1 1.28 -0.44 3.37 3.37 0 0 1 0.55 0 4.67 4.67 0 0 1 2 0.54 0.34 0.34 0 0 0 0.46 -0.09 0.33 0.33 0 0 0 -0.1 -0.46 5.12 5.12 0 0 0 -1.49 -0.94Z" fill="#020202" fill-rule="evenodd" stroke-width="1"></path>
    <g>
      <path d="M20.2 20.63c-1.93 0 -3.86 0 -5.78 0.1 -1 0 -2.07 0.08 -3.11 0.14s-2.07 0.12 -3.1 0.19c-1.84 0.14 -3.67 0.3 -5.51 0.45 -0.89 0 -1 0.6 -0.25 0.71 2.29 0 4.57 0 6.85 -0.14 1.66 -0.07 3.31 -0.17 5 -0.29 2.13 -0.14 4.25 -0.31 6.38 -0.45 1.03 -0.18 0.66 -0.72 -0.48 -0.71Z" fill="#4C57E6" fill-rule="evenodd" stroke-width="1"></path>
      <path d="M8.61 19.25c0.61 0 1.2 0 1.8 -0.09 0.89 -0.07 1.78 -0.16 2.67 -0.26 1.78 -0.2 3.55 -0.41 5.33 -0.46 0.95 0 0.22 -0.89 -1.14 -0.78l-2.38 0c-1.48 0.08 -3 0.2 -4.45 0.36s-2.92 0.32 -4.37 0.41 -1.89 0.62 -0.94 0.72a33.68 33.68 0 0 0 3.48 0.1Z" fill="#4C57E6" fill-rule="evenodd" stroke-width="1"></path>
      <path d="M23.58 23.57a14.26 14.26 0 0 0 -1.94 -4.07 10.85 10.85 0 0 0 -3.35 -3.11A11.28 11.28 0 0 0 14.13 15h-0.2a11.65 11.65 0 0 0 3.38 -1.44 6.33 6.33 0 0 0 2.28 -2.64 4.77 4.77 0 0 0 0.41 1.26 3.56 3.56 0 0 0 0.77 1 5.88 5.88 0 0 0 1 0.73 2.91 2.91 0 0 0 0.49 0.09c-0.08 0.18 -0.13 0.45 -0.16 0.49a4 4 0 0 1 -1.1 1.19 5.59 5.59 0 0 1 -1.17 0.76 0.33 0.33 0 0 0 -0.19 0.43 0.34 0.34 0 0 0 0.43 0.19 6.33 6.33 0 0 0 1.7 -0.91 4.77 4.77 0 0 0 1.12 -1.08 5.63 5.63 0 0 0 0.51 -0.89 0.75 0.75 0 0 0 -0.09 -0.72 1 1 0 0 0 -0.35 -0.25c-0.2 -0.1 -0.53 -0.16 -0.67 -0.25a3.71 3.71 0 0 1 -0.8 -0.56 3.11 3.11 0 0 1 -0.58 -0.72 4.41 4.41 0 0 1 -0.52 -1.57c-0.18 -1.17 0.16 -3.65 -1.43 -6A9.91 9.91 0 0 0 13.87 0.39a7.12 7.12 0 0 0 -7 1.31 9.42 9.42 0 0 0 -1.53 1.77 8.25 8.25 0 0 0 -1.25 6c0 0.39 0 0.77 -0.06 1.16a8.4 8.4 0 0 1 -0.33 1.8 4.15 4.15 0 0 1 -0.37 1 3.6 3.6 0 0 1 -0.56 0.82c-0.11 0.12 -0.62 0.34 -0.8 0.51a0.8 0.8 0 0 0 -0.21 0.31 0.73 0.73 0 0 0 0.15 0.67 4.67 4.67 0 0 0 0.78 0.69 6.1 6.1 0 0 0 1.19 0.57c0.3 0.11 0.6 0.2 0.9 0.28a11 11 0 0 0 -4.36 6.11 0.29 0.29 0 0 0 0.2 0.36 0.29 0.29 0 0 0 0.36 -0.2c1.35 -4.5 7 -8.2 13 -7.47 4.47 0.55 7.54 3.49 9 7.69a0.32 0.32 0 0 0 0.41 0.22 0.35 0.35 0 0 0 0.19 -0.42ZM7.32 2.17a6.32 6.32 0 0 1 6.31 -1 9.11 9.11 0 0 1 3.8 2.54C16 3.51 14.5 3.38 13 3.33c-1 0 -1.95 -0.05 -2.91 -0.05l-3.73 0a8.68 8.68 0 0 1 0.96 -1.11ZM5.94 3.85a33.6 33.6 0 0 0 4.6 0.56l2.92 0c1.46 0 2.91 -0.07 4.35 0l0.14 0a2.56 2.56 0 0 1 0.2 0.26 6.25 6.25 0 0 1 1 3.72 0.28 0.28 0 0 0 -0.22 0 4.42 4.42 0 0 1 -2.1 0.16 4.91 4.91 0 0 1 -1.95 -0.78l-1.43 -1.2a4.19 4.19 0 0 0 -0.61 -0.47 0.66 0.66 0 0 0 -0.42 0 0.75 0.75 0 0 0 -0.25 0.13 4.9 4.9 0 0 0 -0.4 0.42 5.64 5.64 0 0 1 -0.63 0.46c-0.23 0.15 -0.47 0.28 -0.7 0.4a4.07 4.07 0 0 1 -3 0.49 3.46 3.46 0 0 1 -2.28 -2 0.23 0.23 0 0 0 -0.09 -0.08 7.35 7.35 0 0 1 0.87 -2.07Zm1.71 11.9a13.1 13.1 0 0 0 -2.06 1c-0.37 -0.11 -0.75 -0.24 -1.12 -0.39a5.59 5.59 0 0 1 -1.22 -0.74 5.25 5.25 0 0 1 -0.45 -0.34c0.25 -0.13 0.67 -0.24 0.76 -0.33a4.08 4.08 0 0 0 0.76 -1.07 5.24 5.24 0 0 0 0.44 -1.2 7.19 7.19 0 0 0 0.14 -0.93 6.73 6.73 0 0 0 4 3.18c0.31 0.09 0.62 0.15 0.93 0.21a12.78 12.78 0 0 0 -2.18 0.61Zm1.57 -1.84a5.8 5.8 0 0 1 -4.13 -4.07 7.27 7.27 0 0 1 -0.21 -3.12A4.13 4.13 0 0 0 7.2 8.79a5.06 5.06 0 0 0 3.74 -0.34 7.66 7.66 0 0 0 1 -0.55 5.2 5.2 0 0 0 0.59 -0.46l0.09 -0.12 0.19 0.1c0.3 0.23 0.59 0.47 0.9 0.69a8 8 0 0 0 0.68 0.45 5.9 5.9 0 0 0 2.36 0.76A5.24 5.24 0 0 0 19.08 9a5.23 5.23 0 0 1 -2.37 3.6 10.23 10.23 0 0 1 -3.63 1.4 8.53 8.53 0 0 1 -3.86 -0.09Z" fill="#020202" fill-rule="evenodd" stroke-width="1"></path>
    </g>
  </g>
</svg>