<svg xmlns="http://www.w3.org/2000/svg" viewBox="0 0 24 24" id="Gesture-Swipe-Two-Fingers-Horizontal--Streamline-Freehand">
  <desc>
    Gesture Swipe Two Fingers Horizontal Streamline Icon: https://streamlinehq.com
  </desc>
  <g>
    <path d="M5.25 7.91a0.4 0.4 0 0 0 -0.4 -0.41c-0.48 -0.09 -1 -0.21 -1.46 -0.27a2.36 2.36 0 0 0 -0.37 0 5.53 5.53 0 0 0 -0.61 0 5.83 5.83 0 0 0 -0.62 0.14l-0.2 0c0.39 -0.55 0.86 -1.21 1 -1.31a0.36 0.36 0 0 0 0.08 -0.49 0.34 0.34 0 0 0 -0.48 -0.07A14.25 14.25 0 0 0 0.47 7a2.83 2.83 0 0 0 -0.36 0.43 0.65 0.65 0 0 0 -0.1 0.47 0.76 0.76 0 0 0 0.12 0.29 4.37 4.37 0 0 0 0.53 0.59c0.51 0.49 1.26 1.07 1.41 1.19a0.3 0.3 0 0 0 0.43 0 0.29 0.29 0 0 0 0 -0.43c-0.09 -0.14 -0.46 -0.72 -0.83 -1.24l0.09 0a3.79 3.79 0 0 0 0.61 0.14 3.74 3.74 0 0 0 0.61 0h0.37c0.48 -0.06 1 -0.17 1.46 -0.25a0.4 0.4 0 0 0 0.44 -0.28Z" fill="#4C57E6" fill-rule="evenodd" stroke-width="1"></path>
    <path d="M23.89 7.4a2.83 2.83 0 0 0 -0.36 -0.4 14.37 14.37 0 0 0 -1.68 -1.49 0.34 0.34 0 1 0 -0.4 0.56c0.1 0.1 0.58 0.78 1 1.33l-0.26 -0.06c-0.09 0 -0.29 -0.09 -0.61 -0.13a3.7 3.7 0 0 0 -0.6 0 2.36 2.36 0 0 0 -0.37 0c-0.48 0 -1 0.18 -1.45 0.26a0.41 0.41 0 0 0 -0.39 0.41 0.39 0.39 0 0 0 0.4 0.39c0.48 0.08 1 0.2 1.45 0.25H21a3.74 3.74 0 0 0 0.61 0 3.86 3.86 0 0 0 0.6 -0.14l0.15 0c-0.38 0.53 -0.76 1.12 -0.85 1.26a0.29 0.29 0 0 0 0 0.43 0.3 0.3 0 0 0 0.43 0c0.15 -0.13 0.9 -0.7 1.42 -1.19a4.9 4.9 0 0 0 0.52 -0.59 0.67 0.67 0 0 0 0.12 -0.42 0.65 0.65 0 0 0 -0.11 -0.47Z" fill="#4C57E6" fill-rule="evenodd" stroke-width="1"></path>
    <path d="M19 14.12a2.07 2.07 0 0 0 -0.95 0.1 2.73 2.73 0 0 0 -0.33 -0.69A1.32 1.32 0 0 0 17 13a2.64 2.64 0 0 0 -0.9 -0.07l-0.31 0.06c0.37 -0.91 0.91 -2.29 1.34 -3.49 0.3 -0.83 0.54 -1.57 0.65 -2A5.13 5.13 0 0 0 18 5.71a2.14 2.14 0 0 0 -0.6 -1.28 4 4 0 0 0 -2.14 -1.17 2.7 2.7 0 0 0 -2.32 0.86 3 3 0 0 0 -0.64 1.1 2.75 2.75 0 0 0 -1 -1.07 3 3 0 0 0 -2.08 -0.28A2.86 2.86 0 0 0 7.43 5a3.39 3.39 0 0 0 -0.58 1.83 5.26 5.26 0 0 0 0.26 1.77l0.54 2.29 0.52 3c0 0.07 0.06 0.43 0.11 0.56a0.34 0.34 0 0 0 0.34 0.27c0.45 0 0 -2.59 -0.13 -3.84 0 -0.17 -0.06 -0.58 -0.12 -1s-0.22 -1.27 -0.28 -1.5A4.39 4.39 0 0 1 8 6.92a2.46 2.46 0 0 1 0.38 -1.22 1.74 1.74 0 0 1 1 -0.72 1.84 1.84 0 0 1 1.24 0.13 1.79 1.79 0 0 1 0.65 0.63 2.56 2.56 0 0 1 0.34 0.94 26.07 26.07 0 0 1 0.23 2.69c0.09 2 0.07 4.1 0.07 4.1a0.35 0.35 0 0 0 0.33 0.36 0.33 0.33 0 0 0 0.36 -0.33s0.14 -2.1 0.15 -4.15a24.94 24.94 0 0 0 -0.09 -2.72c0 -0.13 0.06 -0.27 0.1 -0.39a3.13 3.13 0 0 1 0.76 -1.43 1.81 1.81 0 0 1 1.53 -0.46 2.86 2.86 0 0 1 1.46 0.89 1.19 1.19 0 0 1 0.31 0.82 6.78 6.78 0 0 1 -0.17 1.21A24.42 24.42 0 0 1 16 9.85c0 0.09 -2 4.29 -0.94 4.37 0.58 0 0 -0.51 1.1 -0.48a1.52 1.52 0 0 1 0.57 0.11c0.11 0.05 0.14 0.17 0.19 0.29a1.53 1.53 0 0 1 0.13 0.52 4.86 4.86 0 0 0 0.06 0.6 0.62 0.62 0 0 0 0.24 0.3 0.63 0.63 0 0 0 0.64 0 1 1 0 0 1 0.82 -0.28 0.65 0.65 0 0 1 0.34 0.15c0.05 0.05 0.05 0.15 0.07 0.26a4.44 4.44 0 0 1 0.07 0.87 11 11 0 0 1 -0.12 1.59 8.68 8.68 0 0 1 -0.28 1.28 3.7 3.7 0 0 1 -0.31 0.75 0.34 0.34 0 0 0 0.07 0.49 0.34 0.34 0 0 0 0.48 -0.08 3.62 3.62 0 0 0 0.49 -0.89 10 10 0 0 0 0.45 -1.37 9.46 9.46 0 0 0 0.34 -2.45 1.92 1.92 0 0 0 -0.49 -1.33 1.69 1.69 0 0 0 -0.92 -0.43Z" fill="#020202" fill-rule="evenodd" stroke-width="1"></path>
    <path d="M7.44 19.23a11.8 11.8 0 0 1 -1.23 -2 7.77 7.77 0 0 1 -0.61 -2.32 1.54 1.54 0 0 1 0.28 -1.24 0.93 0.93 0 0 1 0.61 -0.31 1.46 1.46 0 0 1 0.78 0.19 0.31 0.31 0 0 0 0.42 -0.1 0.3 0.3 0 0 0 -0.1 -0.42 2.11 2.11 0 0 0 -1.1 -0.42 1.74 1.74 0 0 0 -1.22 0.39 2.33 2.33 0 0 0 -0.82 2 7.63 7.63 0 0 0 0.75 2.72 12 12 0 0 0 1.55 2 2.43 2.43 0 0 1 0.37 0.81 0.35 0.35 0 0 0 0.41 0.28 0.33 0.33 0 0 0 0.27 -0.4 2.9 2.9 0 0 0 -0.36 -1.18Z" fill="#020202" fill-rule="evenodd" stroke-width="1"></path>
  </g>
</svg>