<svg xmlns="http://www.w3.org/2000/svg" viewBox="0 0 24 24" id="Gesture-Tap-All-Direction--Streamline-Freehand">
  <desc>
    Gesture Tap All Direction Streamline Icon: https://streamlinehq.com
  </desc>
  <g>
    <path d="M7.86 17.63a0.29 0.29 0 0 0 0 -0.41 5.15 5.15 0 0 1 -0.43 -0.59 3.21 3.21 0 0 1 -0.31 -0.63 6.49 6.49 0 0 1 -0.4 -2.3 4.91 4.91 0 0 1 0.56 -2.2A5.21 5.21 0 0 1 11 8.6a5.28 5.28 0 0 1 4.5 1.16 5.35 5.35 0 0 1 1.4 1.94 5.28 5.28 0 0 1 0.41 2.38 6.94 6.94 0 0 1 -0.15 1.08 4.26 4.26 0 0 1 -0.35 1 0.33 0.33 0 0 0 0.14 0.45 0.33 0.33 0 0 0 0.45 -0.15 6.27 6.27 0 0 0 0.45 -1.14 7.92 7.92 0 0 0 0.22 -1.2 6.42 6.42 0 0 0 -0.34 -2.77A6.52 6.52 0 0 0 16.15 9a6.29 6.29 0 0 0 -5.41 -1.5 6.09 6.09 0 0 0 -4.33 3.56 5.69 5.69 0 0 0 -0.49 2.63 7.34 7.34 0 0 0 0.58 2.55 6.54 6.54 0 0 0 0.41 0.73 4.37 4.37 0 0 0 0.54 0.64 0.29 0.29 0 0 0 0.41 0.02Z" fill="#020202" fill-rule="evenodd" stroke-width="1"></path>
    <path d="M4.63 10.48c-0.45 -0.07 -0.93 -0.17 -1.4 -0.22l-0.35 0a5 5 0 0 0 -0.58 0 3.23 3.23 0 0 0 -0.58 0.11l-0.26 0c0.38 -0.54 0.87 -1.23 1 -1.32a0.34 0.34 0 0 0 0.07 -0.47 0.32 0.32 0 0 0 -0.46 -0.07A16.1 16.1 0 0 0 0.44 10a5.26 5.26 0 0 0 -0.33 0.41 0.59 0.59 0 0 0 -0.1 0.45 0.71 0.71 0 0 0 0.13 0.28 3.24 3.24 0 0 0 0.49 0.55c0.49 0.48 1.2 1 1.34 1.15a0.3 0.3 0 0 0 0.45 -0.39c-0.09 -0.14 -0.49 -0.74 -0.85 -1.25l0.14 0a4.62 4.62 0 0 0 0.59 0.12 4.85 4.85 0 0 0 0.58 0h0.34c0.47 0 0.95 -0.14 1.4 -0.2a0.37 0.37 0 0 0 0.38 -0.3 0.36 0.36 0 0 0 -0.37 -0.34Z" fill="#4C57E6" fill-rule="evenodd" stroke-width="1"></path>
    <path d="M10.42 2.82c0.09 -0.11 0.77 -0.58 1.31 -1l0 0.16c0 0.09 -0.07 0.29 -0.11 0.6s0 0.38 0 0.6a2.11 2.11 0 0 0 0 0.35c0 0.48 0.15 1 0.22 1.43a0.37 0.37 0 0 0 0.33 0.39 0.38 0.38 0 0 0 0.33 -0.4c0.07 -0.47 0.16 -1 0.2 -1.43a2.11 2.11 0 0 0 0 -0.35 5.15 5.15 0 0 0 0 -0.59c0 -0.31 -0.11 -0.52 -0.12 -0.6l0 -0.06c0.52 0.36 1.11 0.74 1.25 0.83a0.29 0.29 0 1 0 0.38 -0.43C14 2.21 13.47 1.5 13 1a5.42 5.42 0 0 0 -0.55 -0.49 0.7 0.7 0 0 0 -0.28 -0.12 0.59 0.59 0 0 0 -0.45 0.1 2.39 2.39 0 0 0 -0.41 0.33 14 14 0 0 0 -1.42 1.61 0.33 0.33 0 1 0 0.53 0.39Z" fill="#4C57E6" fill-rule="evenodd" stroke-width="1"></path>
    <path d="M23.89 9.38a5.26 5.26 0 0 0 -0.33 -0.38A16.1 16.1 0 0 0 22 7.55a0.32 0.32 0 0 0 -0.46 0.07 0.34 0.34 0 0 0 0.07 0.47c0.11 0.09 0.6 0.78 1 1.32l-0.25 -0.05c-0.08 0 -0.28 -0.07 -0.58 -0.11a5.28 5.28 0 0 0 -0.59 0l-0.35 0c-0.47 0 -0.95 0.15 -1.4 0.22a0.36 0.36 0 0 0 -0.44 0.33 0.38 0.38 0 0 0 0.39 0.33c0.45 0.06 0.93 0.16 1.4 0.2h0.35a4 4 0 0 0 1.17 -0.15l0.13 0c-0.37 0.51 -0.76 1.11 -0.85 1.25a0.3 0.3 0 0 0 0 0.41 0.3 0.3 0 0 0 0.42 0c0.14 -0.13 0.85 -0.67 1.34 -1.15a3.24 3.24 0 0 0 0.49 -0.55 0.71 0.71 0 0 0 0.16 -0.31 0.59 0.59 0 0 0 -0.11 -0.45Z" fill="#4C57E6" fill-rule="evenodd" stroke-width="1"></path>
    <path d="M18 19.7a1.81 1.81 0 0 0 -0.86 0.07 2.59 2.59 0 0 0 -0.31 -0.82 1.32 1.32 0 0 0 -0.62 -0.53 2.41 2.41 0 0 0 -0.87 -0.12 2.86 2.86 0 0 0 -0.53 0.06l0.14 -1.19A21 21 0 0 0 15.1 15a12.16 12.16 0 0 0 -0.1 -2.17 3.7 3.7 0 0 0 -0.47 -1.35 2.89 2.89 0 0 0 -1.08 -1 3.24 3.24 0 0 0 -2.08 -0.24 2.86 2.86 0 0 0 -1.73 1.16 3.22 3.22 0 0 0 -0.56 1.76 4.78 4.78 0 0 0 0.26 1.73c0.06 0.21 0.22 0.82 0.35 1.37a6 6 0 0 1 0.17 0.89l0.51 2.92c0 0.07 0.06 0.42 0.1 0.56a0.36 0.36 0 0 0 0.32 0.25 0.29 0.29 0 0 0 0.28 -0.31s0 0.55 -0.47 -3.45c0 -0.17 -0.06 -0.57 -0.14 -1s-0.24 -1.24 -0.3 -1.46a4 4 0 0 1 -0.16 -1.44 2.24 2.24 0 0 1 0.46 -1.22 1.81 1.81 0 0 1 1.12 -0.71 2 2 0 0 1 1.31 0.16 1.71 1.71 0 0 1 0.67 0.63 2.38 2.38 0 0 1 0.31 0.93A11.7 11.7 0 0 1 14 15c0 0.7 -0.1 1.38 -0.19 2l-0.12 1.52 0 0.47 0 0.27a0.48 0.48 0 0 0 0.3 0.52 0.49 0.49 0 0 0 0.58 -0.16l0.26 -0.29a2.14 2.14 0 0 1 0.54 -0.12 1.58 1.58 0 0 1 0.54 0 0.53 0.53 0 0 1 0.21 0.23 1.59 1.59 0 0 1 0.17 0.49c0 0.1 0 0.42 0.09 0.56a0.59 0.59 0 0 0 0.18 0.22 0.46 0.46 0 0 0 0.5 0 0.93 0.93 0 0 1 0.87 -0.33 0.85 0.85 0 0 1 0.42 0.17 1.25 1.25 0 0 1 0.43 1 2 2 0 0 1 -0.42 1.13 0.34 0.34 0 0 0 0.07 0.47 0.34 0.34 0 0 0 0.47 -0.07 2.85 2.85 0 0 0 0.6 -1.5 1.94 1.94 0 0 0 -0.65 -1.58 1.48 1.48 0 0 0 -0.85 -0.3Z" fill="#020202" fill-rule="evenodd" stroke-width="1"></path>
    <path d="M9.17 18.32a1.79 1.79 0 0 0 -1.07 0.31 2 2 0 0 0 -0.75 1.79 3.27 3.27 0 0 0 0.24 1 5.31 5.31 0 0 0 0.8 1.31 3.87 3.87 0 0 0 0.61 0.67 0.88 0.88 0 0 0 0.48 0.22 0.33 0.33 0 0 0 0.37 -0.29 0.33 0.33 0 0 0 -0.33 -0.33c-0.08 0 -0.12 -0.13 -0.18 -0.22a4.32 4.32 0 0 1 -0.25 -0.45 5.18 5.18 0 0 1 -0.47 -1.18 5.4 5.4 0 0 1 -0.16 -0.78 1.23 1.23 0 0 1 0.24 -1 0.77 0.77 0 0 1 0.39 -0.24c0.15 0 0.31 -0.09 0.41 0a0.29 0.29 0 0 0 0.43 -0.4 1.07 1.07 0 0 0 -0.76 -0.41Z" fill="#020202" fill-rule="evenodd" stroke-width="1"></path>
  </g>
</svg>