<svg xmlns="http://www.w3.org/2000/svg" viewBox="0 0 24 24" id="Gesture-Tap-Swipe-Horizontal--Streamline-Freehand">
  <desc>
    Gesture Tap Swipe Horizontal Streamline Icon: https://streamlinehq.com
  </desc>
  <g>
    <path d="M7.86 14.13a0.29 0.29 0 0 0 0 -0.41 6.2 6.2 0 0 1 -0.43 -0.59 4.25 4.25 0 0 1 -0.32 -0.65 6.45 6.45 0 0 1 -0.39 -2.31A4.73 4.73 0 0 1 7.28 8 5.17 5.17 0 0 1 11 5.1a5.2 5.2 0 0 1 5.91 3.09 5.47 5.47 0 0 1 0.41 2.38 6.89 6.89 0 0 1 -0.15 1.09 5.36 5.36 0 0 1 -0.35 1 0.34 0.34 0 0 0 0.14 0.45 0.33 0.33 0 0 0 0.45 -0.15 5 5 0 0 0 0.45 -1.15 6.75 6.75 0 0 0 0.14 -1.17 6.17 6.17 0 0 0 -1.88 -5.12A6.23 6.23 0 0 0 10.74 4a6.06 6.06 0 0 0 -4.32 3.56 5.77 5.77 0 0 0 -0.5 2.62 7.41 7.41 0 0 0 0.58 2.56 6.15 6.15 0 0 0 0.42 0.73 5.43 5.43 0 0 0 0.52 0.64 0.3 0.3 0 0 0 0.42 0.02Z" fill="#020202" fill-rule="evenodd" stroke-width="1"></path>
    <path d="M4.62 6.88c-0.47 -0.08 -1 -0.18 -1.45 -0.23h-0.36a5.47 5.47 0 0 0 -0.6 0 3.62 3.62 0 0 0 -0.6 0.11h-0.05a14.67 14.67 0 0 1 0.88 -1.16 0.33 0.33 0 0 0 0.08 -0.46 0.35 0.35 0 0 0 -0.47 -0.08 14.23 14.23 0 0 0 -1.6 1.42 2.44 2.44 0 0 0 -0.34 0.42 0.59 0.59 0 0 0 -0.1 0.45 0.78 0.78 0 0 0 0.12 0.27 4.42 4.42 0 0 0 0.49 0.56c0.5 0.47 1.21 1 1.36 1.14a0.29 0.29 0 0 0 0.41 0 0.3 0.3 0 0 0 0 -0.41c-0.1 -0.15 -0.53 -0.81 -0.92 -1.35l0.11 0a4.16 4.16 0 0 0 0.6 0.12 5.34 5.34 0 0 0 0.6 0h0.36c0.48 0 1 -0.14 1.44 -0.21a0.34 0.34 0 1 0 0 -0.66Z" fill="#4C57E6" fill-rule="evenodd" stroke-width="1"></path>
    <path d="M23.9 5.88a3.39 3.39 0 0 0 -0.35 -0.42A15.19 15.19 0 0 0 22 4a0.33 0.33 0 0 0 -0.46 0.08 0.32 0.32 0 0 0 0.07 0.46c0.11 0.1 0.58 0.77 1 1.3l-0.13 0a3.62 3.62 0 0 0 -0.6 -0.11 3.7 3.7 0 0 0 -0.6 0h-0.37c-0.47 0 -1 0.15 -1.44 0.23a0.35 0.35 0 0 0 -0.38 0.33 0.36 0.36 0 0 0 0.39 0.33c0.48 0.07 1 0.16 1.44 0.21h0.36a5.53 5.53 0 0 0 0.61 0c0.31 0 0.51 -0.11 0.59 -0.12 -0.36 0.52 -0.74 1.1 -0.83 1.24a0.29 0.29 0 1 0 0.35 0.35c0.15 -0.12 0.86 -0.67 1.36 -1.14a3.72 3.72 0 0 0 0.49 -0.56 0.62 0.62 0 0 0 0 -0.72Z" fill="#4C57E6" fill-rule="evenodd" stroke-width="1"></path>
    <path d="M18 16.19a2 2 0 0 0 -0.87 0.08 2.75 2.75 0 0 0 -0.31 -0.82 1.26 1.26 0 0 0 -0.62 -0.53 2.41 2.41 0 0 0 -0.87 -0.12 2.2 2.2 0 0 0 -0.53 0.06l0.14 -1.19a21 21 0 0 0 0.24 -2.16A13.13 13.13 0 0 0 15 9.33 3.47 3.47 0 0 0 14.51 8a2.81 2.81 0 0 0 -1.08 -1 3.11 3.11 0 0 0 -2.08 -0.24A2.86 2.86 0 0 0 9.64 7.9a3.27 3.27 0 0 0 -0.56 1.76 4.81 4.81 0 0 0 0.26 1.73c0.07 0.21 0.22 0.82 0.35 1.37a7.81 7.81 0 0 1 0.17 0.89l0.51 2.92a3.62 3.62 0 0 0 0.1 0.55 0.32 0.32 0 0 0 0.32 0.25 0.28 0.28 0 0 0 0.28 -0.3s-0.06 -0.3 -0.47 -3.45a8 8 0 0 0 -0.14 -1c-0.11 -0.58 -0.24 -1.24 -0.3 -1.46A3.91 3.91 0 0 1 10 9.72a2.21 2.21 0 0 1 0.45 -1.23 1.83 1.83 0 0 1 1.12 -0.72 2 2 0 0 1 1.32 0.16 1.91 1.91 0 0 1 0.66 0.63 2.43 2.43 0 0 1 0.31 0.93 11.82 11.82 0 0 1 0.12 2c0 0.71 -0.1 1.39 -0.18 2.05l-0.14 1.51 0 0.47 0 0.27a0.5 0.5 0 0 0 0.3 0.53 0.49 0.49 0 0 0 0.58 -0.16l0.26 -0.29a1.72 1.72 0 0 1 0.54 -0.12 1.58 1.58 0 0 1 0.54 0.05c0.09 0 0.15 0.13 0.21 0.23a1.84 1.84 0 0 1 0.18 0.49 4.05 4.05 0 0 0 0.08 0.55 0.5 0.5 0 0 0 0.19 0.23 0.47 0.47 0 0 0 0.49 0 1 1 0 0 1 0.87 -0.33 0.82 0.82 0 0 1 0.42 0.17 1.21 1.21 0 0 1 0.43 1 2.06 2.06 0 0 1 -0.42 1.14 0.35 0.35 0 0 0 0.07 0.47 0.34 0.34 0 0 0 0.47 -0.07 2.85 2.85 0 0 0 0.6 -1.5 1.91 1.91 0 0 0 -0.65 -1.58 1.54 1.54 0 0 0 -0.82 -0.41Z" fill="#020202" fill-rule="evenodd" stroke-width="1"></path>
    <path d="M9.17 14.82a1.78 1.78 0 0 0 -1.07 0.3 2 2 0 0 0 -0.75 1.8 2.92 2.92 0 0 0 0.24 1 5 5 0 0 0 0.8 1.31 3.52 3.52 0 0 0 0.61 0.67 0.91 0.91 0 0 0 0.48 0.22 0.33 0.33 0 0 0 0.37 -0.29 0.32 0.32 0 0 0 -0.28 -0.37c-0.08 0 -0.12 -0.13 -0.18 -0.22a3.62 3.62 0 0 1 -0.25 -0.45 5.68 5.68 0 0 1 -0.47 -1.18 4.32 4.32 0 0 1 -0.16 -0.78 1.23 1.23 0 0 1 0.24 -1 0.82 0.82 0 0 1 0.4 -0.23c0.15 0 0.3 -0.09 0.4 0a0.29 0.29 0 1 0 0.42 -0.41 1 1 0 0 0 -0.8 -0.37Z" fill="#020202" fill-rule="evenodd" stroke-width="1"></path>
  </g>
</svg>