<svg xmlns="http://www.w3.org/2000/svg" viewBox="0 0 24 24" id="Gesture-Swipe-Vertical--Streamline-Freehand">
  <desc>
    Gesture Swipe Vertical Streamline Icon: https://streamlinehq.com
  </desc>
  <g>
    <path d="M19.34 21c-0.12 0.15 -1.13 0.9 -1.83 1.42l0.09 -0.5a6.26 6.26 0 0 0 0.13 -0.76 5.82 5.82 0 0 0 0 -0.76l0 -0.46c-0.06 -0.6 -0.19 -1.23 -0.28 -1.83a0.41 0.41 0 0 0 -0.82 0c-0.07 0.59 -0.19 1.23 -0.24 1.83a3.62 3.62 0 0 0 0 0.46l0 0.76a7.48 7.48 0 0 0 0.15 0.76l0.06 0.35c-0.68 -0.51 -1.54 -1.11 -1.73 -1.24a0.31 0.31 0 0 0 -0.41 0.46c0.17 0.18 0.9 1.09 1.52 1.71a6.27 6.27 0 0 0 0.71 0.62 0.75 0.75 0 0 0 0.31 0.18 0.64 0.64 0 0 0 0.48 -0.11 4 4 0 0 0 0.53 -0.42 21.07 21.07 0 0 0 1.86 -2 0.35 0.35 0 0 0 -0.08 -0.49 0.36 0.36 0 0 0 -0.45 0.02Z" fill="#4C57E6" fill-rule="evenodd" stroke-width="1"></path>
    <path d="M14.5 2.94c0.18 -0.13 1 -0.73 1.72 -1.23l-0.06 0.29c0 0.1 -0.09 0.37 -0.14 0.76a6.08 6.08 0 0 0 0 0.77l0 0.46c0 0.61 0.17 1.25 0.25 1.85a0.41 0.41 0 0 0 0.41 0.41 0.41 0.41 0 0 0 0.41 -0.41c0.09 -0.59 0.22 -1.23 0.28 -1.84a3.62 3.62 0 0 0 0 -0.46l0 -0.77a5.52 5.52 0 0 0 -0.18 -0.77l-0.08 -0.45c0.71 0.52 1.7 1.26 1.82 1.41a0.36 0.36 0 0 0 0.49 0.08 0.35 0.35 0 0 0 0.08 -0.49 21.07 21.07 0 0 0 -1.86 -2 4 4 0 0 0 -0.53 -0.42 0.64 0.64 0 0 0 -0.48 -0.13 0.75 0.75 0 0 0 -0.31 0.14 6.27 6.27 0 0 0 -0.71 0.62c-0.62 0.62 -1.36 1.53 -1.52 1.71a0.31 0.31 0 0 0 0.41 0.46Z" fill="#4C57E6" fill-rule="evenodd" stroke-width="1"></path>
    <path d="M22 10.87a3.94 3.94 0 0 0 -1.6 -2.26 4.4 4.4 0 0 0 -2.4 -0.78 6.58 6.58 0 0 0 -2.42 0.35c-0.3 0.09 -1.18 0.31 -2 0.49a12.56 12.56 0 0 1 -1.31 0.24c-0.25 0 -0.72 0.09 -1.27 0.18 -1 0.17 -2.35 0.42 -2.89 0.51a6.12 6.12 0 0 0 -0.77 0.14 0.36 0.36 0 0 0 -0.28 0.35 0.3 0.3 0 0 0 0.32 0.29c0.06 0 0.77 -0.14 0.83 -0.15 0.54 -0.07 1.85 -0.28 2.89 -0.42 0.52 -0.07 1 -0.12 1.21 -0.13s0.81 -0.1 1.43 -0.21c0.83 -0.15 1.75 -0.35 2.07 -0.44a5.84 5.84 0 0 1 2.1 -0.24 3.54 3.54 0 0 1 1.86 0.67 2.82 2.82 0 0 1 1.12 1.67 2.88 2.88 0 0 1 -0.22 2 3.25 3.25 0 0 1 -1 1.09 3.1 3.1 0 0 1 -1.35 0.53 15.06 15.06 0 0 1 -3 0.15c-1.05 0 -2.05 -0.16 -3 -0.29l-2.14 -0.19 -0.69 -0.06 -0.38 -0.05a0.55 0.55 0 0 0 -0.57 0.33 0.53 0.53 0 0 0 0.17 0.62l0.47 0.45a2.53 2.53 0 0 1 0.18 0.82 2.46 2.46 0 0 1 -0.09 0.83 0.84 0.84 0 0 1 -0.4 0.39 2.8 2.8 0 0 1 -0.75 0.26c-0.11 0 -0.43 0 -0.62 0.06a0.65 0.65 0 0 0 -0.4 0.26 0.53 0.53 0 0 0 0 0.56c0.08 0.14 0.35 0.47 0.38 0.55a1.58 1.58 0 0 1 0.09 0.77 1.12 1.12 0 0 1 -0.28 0.66 2.78 2.78 0 0 1 -2.16 0.65A3.06 3.06 0 0 1 3 20.61a0.34 0.34 0 1 0 -0.52 0.45 3.72 3.72 0 0 0 2.64 1.19A3.67 3.67 0 0 0 8 21.39a2.07 2.07 0 0 0 0.51 -1.1 2.73 2.73 0 0 0 -0.11 -1.16l-0.08 -0.23a3.72 3.72 0 0 0 1.22 -0.45 1.66 1.66 0 0 0 0.69 -0.8 3.5 3.5 0 0 0 0.17 -1.19 3.79 3.79 0 0 0 -0.16 -1l2 0.23a29.65 29.65 0 0 0 3.11 0.33 16.64 16.64 0 0 0 3.19 -0.15 4.3 4.3 0 0 0 1.84 -0.74 4.38 4.38 0 0 0 1.31 -1.49 4 4 0 0 0 0.31 -2.77Z" fill="#020202" fill-rule="evenodd" stroke-width="1"></path>
    <path d="M6.85 5.89a3.85 3.85 0 0 1 1.46 -0.11 2.24 2.24 0 0 1 1.27 0.56 1.22 1.22 0 0 1 0.34 0.66 0.8 0.8 0 0 1 -0.06 0.69 0.3 0.3 0 0 0 0.42 0.44 1.36 1.36 0 0 0 0.39 -1 2.27 2.27 0 0 0 -0.45 -1.42 3.09 3.09 0 0 0 -1.7 -1 4.18 4.18 0 0 0 -1.95 0.08A6.77 6.77 0 0 0 5 5.36a13.77 13.77 0 0 0 -3 2.21 0.34 0.34 0 0 0 0 0.49 0.35 0.35 0 0 0 0.49 0 13.67 13.67 0 0 1 4.36 -2.17Z" fill="#020202" fill-rule="evenodd" stroke-width="1"></path>
  </g>
</svg>