<svg xmlns="http://www.w3.org/2000/svg" viewBox="0 0 24 24" id="Gesture-Swipe-Horizontal-Right--Streamline-Freehand">
  <desc>
    Gesture Swipe Horizontal Right Streamline Icon: https://streamlinehq.com
  </desc>
  <g>
    <path d="M7 2.38a9.61 9.61 0 0 1 2.69 -0.91 11.34 11.34 0 0 1 2.87 -0.19 6.22 6.22 0 0 1 2.21 0.62 8.67 8.67 0 0 1 2 1.26 5.25 5.25 0 0 1 0.52 0.53c0.17 0.2 0.33 0.4 0.47 0.6l0.21 0.33a0.38 0.38 0 1 0 0.72 -0.25l-0.27 -0.52a7.77 7.77 0 0 0 -0.48 -0.69 4.52 4.52 0 0 0 -0.56 -0.65A9.4 9.4 0 0 0 15.2 0.94a7.54 7.54 0 0 0 -2.59 -0.89A11.61 11.61 0 0 0 9.4 0.2a9.3 9.3 0 0 0 -3 1.16 7.78 7.78 0 0 0 -3.6 5.17A0.35 0.35 0 0 0 3 7a0.34 0.34 0 0 0 0.41 -0.25A7.05 7.05 0 0 1 7 2.38Z" fill="#4C57E6" fill-rule="evenodd" stroke-width="1"></path>
    <path d="M17 5.63c-1.73 -0.51 -1.75 -0.68 -1.92 -0.38a0.51 0.51 0 0 0 0.27 0.57c0.29 0.17 1 0.52 1.32 0.67l1.9 0.91a2.75 2.75 0 0 0 0.68 0.2 0.91 0.91 0 0 0 0.64 -0.16 1 1 0 0 0 0.41 -0.59 3.87 3.87 0 0 0 0.1 -0.85 40.76 40.76 0 0 0 0.05 -4.47 0.43 0.43 0 0 0 -0.25 -0.37c-0.67 -0.24 -0.53 0.54 -0.7 2.05 0 0 -0.35 2.9 -0.35 3.06 -0.06 0.01 -2.15 -0.64 -2.15 -0.64Z" fill="#4C57E6" fill-rule="evenodd" stroke-width="1"></path>
    <path d="M20.38 19.47A2.07 2.07 0 0 0 19.3 19a2.43 2.43 0 0 0 -1.13 0.1 0.82 0.82 0 0 0 -0.17 0.13 0.11 0.11 0 0 0 0 -0.06 3.38 3.38 0 0 0 -0.44 -1.17 1.62 1.62 0 0 0 -0.79 -0.68 3.35 3.35 0 0 0 -1.17 -0.17 4 4 0 0 0 -0.86 0.13l0.22 -1.8a27.58 27.58 0 0 0 0.32 -3 15.34 15.34 0 0 0 -0.14 -3.07 4.38 4.38 0 0 0 -0.73 -1.82A4.2 4.2 0 0 0 13 6.26 3.93 3.93 0 0 0 10.21 6 3.78 3.78 0 0 0 8 7.54a4.42 4.42 0 0 0 -0.77 2.36 6.9 6.9 0 0 0 0.35 2.35c0.1 0.28 0.31 1.13 0.48 1.89a10.6 10.6 0 0 1 0.23 1.24l0.68 4c0 0.09 0.07 0.57 0.13 0.75a0.41 0.41 0 0 0 0.39 0.3 0.34 0.34 0 0 0 0.31 -0.36s0.06 0.71 -0.66 -4.74a11.14 11.14 0 0 0 -0.2 -1.33c-0.14 -0.8 -0.33 -1.7 -0.41 -2a5.43 5.43 0 0 1 -0.22 -2 3.17 3.17 0 0 1 0.63 -1.75 2.67 2.67 0 0 1 1.57 -1.05 2.74 2.74 0 0 1 1.83 0.21 2.91 2.91 0 0 1 1.52 2.17 15.32 15.32 0 0 1 0.14 2.8c0 1 -0.15 2 -0.27 2.88l-0.19 2.07 0 0.66 0 0.37a0.56 0.56 0 0 0 1 0.42l0.41 -0.43a2.56 2.56 0 0 1 0.77 -0.17 2 2 0 0 1 0.78 0.08 0.67 0.67 0 0 1 0.34 0.36 2.8 2.8 0 0 1 0.26 0.71 3.68 3.68 0 0 0 0.11 0.74 0.54 0.54 0 0 0 0.21 0.27 0.56 0.56 0 0 0 0.59 0c0.14 -0.08 0.45 -0.34 0.52 -0.37a1.63 1.63 0 0 1 0.72 -0.09 1.22 1.22 0 0 1 0.62 0.26 1.74 1.74 0 0 1 0.62 1.41 3.07 3.07 0 0 1 -0.59 1.6 0.38 0.38 0 1 0 0.61 0.46 3.69 3.69 0 0 0 0.8 -2 2.56 2.56 0 0 0 -0.93 -2.14Z" fill="#020202" fill-rule="evenodd" stroke-width="1"></path>
    <path d="M6.65 16.87a2.34 2.34 0 0 0 -1.42 0.41 2.73 2.73 0 0 0 -1 2.38 4.45 4.45 0 0 0 0.33 1.41 7.1 7.1 0 0 0 1 1.79 5.57 5.57 0 0 0 0.75 0.85A1.18 1.18 0 0 0 7 24a0.38 0.38 0 0 0 0.43 -0.33 0.38 0.38 0 0 0 -0.32 -0.43c-0.13 0 -0.21 -0.18 -0.3 -0.32s-0.27 -0.46 -0.36 -0.62a7.36 7.36 0 0 1 -0.68 -1.64 5.23 5.23 0 0 1 -0.22 -1.1A1.78 1.78 0 0 1 5.92 18a1.29 1.29 0 0 1 0.61 -0.34c0.23 -0.05 0.46 -0.1 0.61 0a0.34 0.34 0 0 0 0.48 0 0.34 0.34 0 0 0 0 -0.48 1.33 1.33 0 0 0 -0.97 -0.31Z" fill="#020202" fill-rule="evenodd" stroke-width="1"></path>
  </g>
</svg>