<svg xmlns="http://www.w3.org/2000/svg" viewBox="0 0 24 24" id="Gmo-Food-Lab-Bag--Streamline-Freehand">
  <desc>
    Gmo Food Lab Bag Streamline Icon: https://streamlinehq.com
  </desc>
  <g>
    <path d="M22.83 1.32a9.6 9.6 0 0 1 -3.17 0.21C18.4 1.39 17.21 1 15.9 1c-2.13 0 -4.08 0.23 -6.13 0.19 -0.74 0 -2.56 -0.29 -3.35 0.12a1.13 1.13 0 0 0 -0.54 1A6.54 6.54 0 0 0 6 3.87c0.17 0.72 -0.94 -0.2 -2.46 5.46 -0.46 1.73 -1 4.53 -1.15 5.32 -0.17 1.11 -0.11 1.54 -0.23 2.19 -0.25 1.32 -1.08 1.19 -1.8 2A1.52 1.52 0 0 0 1 21.3c1.48 0.78 5.64 0.7 7.07 0.77l4.76 0.41c2 0.17 2.84 0.89 3.81 0.36s0.68 -2.21 1.09 -2.69c1.51 -1.78 3.36 -2.36 4.28 -6.81 0.56 -2.73 0.32 -4.32 0.16 -7.19 0 -1.22 1 -1.54 1.55 -2.69s0.09 -2.16 -0.89 -2.14Zm0 1.69c-0.6 1.19 -1.68 1.42 -1.71 3.13a24.67 24.67 0 0 1 -0.22 7 8.63 8.63 0 0 1 -1.83 4.08c-1.09 1.19 -2.3 1.95 -2.57 2.93 -0.18 0.65 -0.14 1.57 -0.4 1.71s-0.83 -0.12 -2.25 -0.36c-0.71 -0.12 -0.59 -0.09 -5.73 -0.47 -2.31 -0.08 -6.83 0.15 -7.18 -1.09 -0.14 -0.62 1.43 -1.3 1.79 -1.94 0.57 -1.06 0.21 -1.65 0.75 -4.49A42.08 42.08 0 0 1 5.08 7a4.56 4.56 0 0 1 1.84 -2.65 0.34 0.34 0 1 0 -0.29 -0.61 5.07 5.07 0 0 1 -0.09 -0.54c-0.18 -2 0.42 -1.43 3.21 -1.32 2 0.07 4.11 -0.17 6.12 -0.08s3.53 1 6.13 0.63c0.66 -0.09 1.4 -0.5 0.85 0.57Z" fill="#020202" fill-rule="evenodd" stroke-width="1"></path>
    <path d="M19.51 4.05a65.78 65.78 0 0 0 -7.21 -0.79 18 18 0 0 0 -4.14 0.53 0.3 0.3 0 0 0 0 0.6 24.53 24.53 0 0 1 6.14 0.16 35.08 35.08 0 0 1 5 0.17 0.34 0.34 0 0 0 0.21 -0.67Z" fill="#020202" fill-rule="evenodd" stroke-width="1"></path>
    <path d="M15.4 9.59c-1.66 -0.23 -2.66 -0.92 -4.76 -1.05l-2.68 0a0.3 0.3 0 0 0 -0.07 0.6l1.9 0.36c-0.46 1.33 -0.62 2.19 -1 3.53s-0.94 2.51 -0.62 3.97a2.3 2.3 0 0 0 3.58 1.28c1.68 -1.33 1.84 -3.79 2.17 -5.77a10.12 10.12 0 0 0 0.27 -2.26 7.6 7.6 0 0 0 1.16 0.07 0.34 0.34 0 1 0 0.05 -0.73Zm-1.9 0.52a12 12 0 0 1 -0.5 2.67 8.77 8.77 0 0 0 -3.22 -0.31c0.25 -1.33 0.34 -1.92 0.61 -2.88 1.07 0.2 0.61 0.14 3.11 0.52Zm-2.44 7.21a1.19 1.19 0 0 1 -1.79 -0.66c-0.29 -1 0.15 -2.31 0.39 -3.44a6.91 6.91 0 0 0 3.16 0.41c-0.28 1.28 -0.7 2.93 -1.76 3.69Z" fill="#4C57E6" fill-rule="evenodd" stroke-width="1"></path>
    <path d="M12.16 6.31C12 5.2 11 5.58 10.68 6.27c-0.11 0.26 0.12 0.72 0.64 0.8a0.76 0.76 0 0 0 0.84 -0.76Z" fill="#4C57E6" fill-rule="evenodd" stroke-width="1"></path>
    <path d="M14.55 7.78c-0.18 -1.12 -1.18 -0.74 -1.48 0 -0.11 0.26 0.12 0.71 0.65 0.79a0.75 0.75 0 0 0 0.83 -0.79Z" fill="#4C57E6" fill-rule="evenodd" stroke-width="1"></path>
  </g>
</svg>