<svg xmlns="http://www.w3.org/2000/svg" viewBox="0 0 24 24" id="Gmo-Food-Chicken-Leg--Streamline-Freehand">
  <desc>
    Gmo Food Chicken Leg Streamline Icon: https://streamlinehq.com
  </desc>
  <g>
    <path d="M8.51 16.57a0.29 0.29 0 1 0 0.47 0.34 12 12 0 0 0 2.86 -3.33s0 0 0 -0.06c1.26 0.81 2.31 1.06 3.59 0s3.5 -4.4 4.39 -5.75a8.93 8.93 0 0 1 1.33 1.33 0.34 0.34 0 0 0 0.58 -0.34 13.76 13.76 0 0 0 -1.55 -2 4.26 4.26 0 0 0 1.55 -2.09l0.72 0.84a0.33 0.33 0 0 0 0.55 -0.42 12.5 12.5 0 0 0 -2.09 -2.92A14 14 0 0 0 18.05 0a0.3 0.3 0 0 0 -0.29 0.52 5.15 5.15 0 0 1 1 1c-1.2 0.84 -1.39 0.89 -2 1.85a4.56 4.56 0 0 1 -1.34 -1.32 0.29 0.29 0 1 0 -0.53 0.24 3.85 3.85 0 0 0 0.76 1.18A6.69 6.69 0 0 0 14 4.79a20 20 0 0 0 -3.43 4.05c-0.58 1.11 -0.9 2.66 -0.08 3.63a3.43 3.43 0 0 0 0.83 0.69 8.09 8.09 0 0 0 -2.81 3.41Zm9.75 -13.29A6.25 6.25 0 0 0 19.19 2c1.12 1.23 1.12 1.05 1.88 1.87 0.37 0.43 0.23 0.2 0.1 0.41A8.16 8.16 0 0 0 19.58 6C17 2.85 17 4.46 18.26 3.28Zm-6.65 5.83a4.28 4.28 0 0 0 1 0.82 5.13 5.13 0 0 1 0.85 0.62 0.33 0.33 0 0 0 0.55 -0.37 3.39 3.39 0 0 0 -1.94 -1.85c0.37 -0.55 0.76 -1.06 1.13 -1.51a4.18 4.18 0 0 0 2 1.53 0.33 0.33 0 1 0 0.48 -0.35 6.65 6.65 0 0 0 -0.76 -1 3.84 3.84 0 0 0 -1.19 -0.85 9.37 9.37 0 0 1 2.36 -2.25c2.56 2.59 3 3.29 3.27 3.34a38.26 38.26 0 0 1 -4.53 5.43 1.48 1.48 0 0 1 -1.62 0.29 12.37 12.37 0 0 1 -1.77 -1.14c-0.66 -0.59 -0.26 -1.88 0.17 -2.71Z" fill="#020202" fill-rule="evenodd" stroke-width="1"></path>
    <path d="M5.32 17.17A5.48 5.48 0 0 0 5 15.11a1.46 1.46 0 0 0 -1.59 -0.21 4 4 0 0 0 -1.32 3.87c0.69 1.93 3.2 1.28 3.23 -1.6Zm-1.81 1.58c-0.44 0.09 -0.64 -1.45 -0.14 -2.51a2.31 2.31 0 0 1 0.48 -0.8c0.22 -0.2 0.61 -0.27 0.66 0.58s-0.15 2.56 -1 2.73Z" fill="#4C57E6" fill-rule="evenodd" stroke-width="1"></path>
    <path d="M23.32 18a2.45 2.45 0 0 0 -0.54 -0.51c0.15 -0.26 0.42 -0.57 0.46 -0.69a2.93 2.93 0 0 0 0 -2 1.79 1.79 0 0 0 -2.64 -0.67 0.33 0.33 0 0 0 0.44 0.5 1 1 0 0 1 1.44 0.5 2.11 2.11 0 0 1 -0.14 1.35c-0.16 0.44 -1.05 1.22 -0.38 1.8 0.12 0.1 0.43 0.52 0.54 0.41a1.28 1.28 0 0 1 -0.16 1.47 1.49 1.49 0 0 1 -2.29 -0.16c-0.2 -0.36 -0.35 -1.13 -1 -1.18a11.55 11.55 0 0 1 -2.92 0 3.57 3.57 0 0 0 -0.13 -2.35c0.5 0 0.91 0.21 1.75 0.23 0.54 0 1.21 -0.08 1.72 -0.08a0.33 0.33 0 1 0 0.11 -0.65 4.69 4.69 0 0 0 -3.6 -0.08 0.28 0.28 0 0 0 -0.2 0.13 3.46 3.46 0 0 0 -1 -1.13 0.33 0.33 0 1 0 -0.4 0.53 2.9 2.9 0 0 1 0.75 3.38 4.55 4.55 0 0 1 -1.21 1.37c-2.2 2 -3.78 3.19 -8.49 3.15a4.7 4.7 0 0 0 1.69 -3c0.5 -2.41 0.68 -6.61 -1.41 -8.08a2.27 2.27 0 0 1 1.92 -0.37 5.22 5.22 0 0 1 1.53 0.61 0.34 0.34 0 0 0 0.34 -0.58 5.69 5.69 0 0 0 -1.61 -1.08 3.49 3.49 0 0 0 -1.36 -0.1c-0.36 0.05 -3 0.79 -3.14 0.87 -3.63 1.79 -4.46 9.79 -0.71 11.87a2.5 2.5 0 0 0 2.28 0.17c0.22 -0.09 0.13 -0.11 0.13 0a0.29 0.29 0 0 0 0.28 0.31c3.07 0.23 5.71 0.13 8.11 -1.85 4.49 -3.74 0.39 -2.61 4.78 -2.45 1.54 0.05 0.14 0.31 1.52 1.49a2.72 2.72 0 0 0 2.18 0.58A2.37 2.37 0 0 0 23.32 18ZM4.81 22.41a1.42 1.42 0 0 1 -1.6 0 4.49 4.49 0 0 1 -1.9 -3.64c-0.4 -3.68 1.58 -7.15 3.38 -6.77 -0.16 0.19 1.3 1 1.68 2.76a12.39 12.39 0 0 1 -0.09 4.56c-0.28 1.09 -0.46 2.39 -1.47 3.09Z" fill="#020202" fill-rule="evenodd" stroke-width="1"></path>
  </g>
</svg>