<svg xmlns="http://www.w3.org/2000/svg" viewBox="0 0 24 24" id="Golf-Ball--Streamline-Freehand">
  <desc>
    Golf Ball Streamline Icon: https://streamlinehq.com
  </desc>
  <title>golf-ball</title>
  <g>
    <path d="M6.76 12.62c2.46 1.94 7.47 2.92 10.58 -0.2a7.25 7.25 0 0 0 2 -4.32 7.24 7.24 0 0 0 -0.08 -1.69 8.14 8.14 0 0 0 -0.42 -1.64 7.68 7.68 0 0 0 -4 -4 7.9 7.9 0 0 0 -5.67 -0.4 6.57 6.57 0 0 0 -3.28 2.45 9.13 9.13 0 0 0 -1.56 3.7 6.2 6.2 0 0 0 2.43 6.1Zm-1.41 -5.9A8.39 8.39 0 0 1 6.8 3.5a5.49 5.49 0 0 1 2.72 -2 6.85 6.85 0 0 1 4.86 0.29 6.71 6.71 0 0 1 3.5 3.39 6.51 6.51 0 0 1 0.4 1.4A6 6 0 0 1 18.41 8a6.34 6.34 0 0 1 -1.62 3.88c-3.14 3.38 -7.93 1.35 -9.49 0a5.28 5.28 0 0 1 -1.95 -5.16Z" fill="#020202" stroke-width="1"></path>
    <path d="M10.73 5a1.09 1.09 0 0 1 0.58 -0.1 0.23 0.23 0 0 1 0.18 0.08c0.13 0.12 0.29 0.28 0.24 0.49a0.35 0.35 0 1 0 0.63 0.3 1.32 1.32 0 0 0 0 -1.53 0.86 0.86 0 0 0 -0.36 -0.35 1 1 0 0 0 -0.7 -0.13 1.56 1.56 0 0 0 -1 0.75 0.31 0.31 0 1 0 0.42 0.45Z" fill="#4C57E6" stroke-width="1"></path>
    <path d="M13.69 4.33a1.11 1.11 0 0 1 0.59 -0.1c0.08 0 0.12 0 0.17 0.08s0.3 0.28 0.24 0.49a0.36 0.36 0 0 0 0.17 0.47 0.35 0.35 0 0 0 0.46 -0.17 1.31 1.31 0 0 0 0 -1.53 0.89 0.89 0 0 0 -0.32 -0.31 1 1 0 0 0 -0.7 -0.13 1.58 1.58 0 0 0 -1 0.75 0.31 0.31 0 0 0 0 0.44 0.3 0.3 0 0 0 0.39 0.01Z" fill="#4C57E6" stroke-width="1"></path>
    <path d="M14.57 6.78a0.31 0.31 0 1 0 0.42 0.45 1.24 1.24 0 0 1 0.59 -0.11 0.28 0.28 0 0 1 0.17 0.09c0.13 0.12 0.29 0.27 0.24 0.49a0.34 0.34 0 0 0 0.17 0.46 0.35 0.35 0 0 0 0.46 -0.16 1.34 1.34 0 0 0 0 -1.54 1 1 0 0 0 -0.37 -0.31 1 1 0 0 0 -0.7 -0.12 1.5 1.5 0 0 0 -0.98 0.75Z" fill="#4C57E6" stroke-width="1"></path>
    <path d="M19.13 14.41c-0.52 -0.16 -1.47 -0.11 -3.1 0.71l-2 0.83a5.88 5.88 0 0 1 -1.32 0.3 13.87 13.87 0 0 1 -2.13 0.07 11.88 11.88 0 0 1 -1.85 -0.2A9.39 9.39 0 0 1 7 15.6c-0.3 -0.13 -1.09 -0.53 -1.59 -0.73 -0.69 -0.27 -1.1 -0.1 -1.34 0.29a1.3 1.3 0 0 0 -0.15 0.83 2 2 0 0 0 0.34 0.86 3.5 3.5 0 0 0 0.91 0.93 9.87 9.87 0 0 0 1.33 0.84 22.8 22.8 0 0 0 3.06 1.16c0.42 0.92 0.94 2.66 1.19 3.44 0.06 0.2 0.11 0.34 0.13 0.4a0.54 0.54 0 0 0 0.51 0.38 0.57 0.57 0 0 0 0.5 -0.33c0 -0.06 0.11 -0.21 0.2 -0.41 0.35 -0.74 1 -2.24 1.49 -3.16 0.11 -0.21 0.28 -0.41 0.34 -0.53 0.49 -0.12 1.28 -0.28 1.84 -0.43a3.82 3.82 0 0 0 0.61 -0.21 15.42 15.42 0 0 0 2.72 -1.57 2.3 2.3 0 0 0 1 -1.37 1.41 1.41 0 0 0 -0.96 -1.58ZM19 15.83c0 0.26 -0.39 0.5 -0.9 0.84a18.52 18.52 0 0 1 -2.2 1.2 5.24 5.24 0 0 1 -0.67 0.2c-0.67 0.17 -1.52 0.34 -1.89 0.46a1.47 1.47 0 0 0 -0.56 0.67c-0.31 0.62 -0.87 1.9 -1.29 2.85a25.7 25.7 0 0 0 -1.15 -2.88 0.6 0.6 0 0 0 -0.34 -0.27 8.57 8.57 0 0 0 -1.16 -0.36l-0.6 -0.12a10 10 0 0 1 -1.35 -0.54 10.11 10.11 0 0 1 -1.26 -0.74 3.12 3.12 0 0 1 -0.63 -0.57 1.49 1.49 0 0 1 -0.34 -0.69 0.49 0.49 0 0 1 0 -0.34c0.17 -0.28 0.27 -0.14 2 0.68a9.87 9.87 0 0 0 1.9 0.64 13.78 13.78 0 0 0 2 0.29 14.19 14.19 0 0 0 2.26 0 6.55 6.55 0 0 0 1.54 -0.29c0.32 -0.1 0.69 -0.23 1.06 -0.37s0.74 -0.29 1 -0.44a6.57 6.57 0 0 1 1.75 -0.58c0.35 -0.05 0.55 0 0.65 0.08a0.3 0.3 0 0 1 0.18 0.28Z" fill="#020202" stroke-width="1"></path>
  </g>
</svg>