<svg xmlns="http://www.w3.org/2000/svg" viewBox="0 0 24 24" id="Graphic-Tablet-Drawing-Pen--Streamline-Freehand">
  <desc>
    Graphic Tablet Drawing Pen Streamline Icon: https://streamlinehq.com
  </desc>
  <g>
    <path d="M13.48 13.48a0.33 0.33 0 0 0 -0.24 0.41 5.54 5.54 0 0 1 -0.65 4.64 4.37 4.37 0 0 1 -4.14 1.66 7.38 7.38 0 0 1 -3.71 -1.33 8.35 8.35 0 0 1 -2.56 -3A8.13 8.13 0 0 1 2.9 7c1.89 -2.4 5.07 -3.15 7.78 0.07a0.38 0.38 0 0 0 0.59 -0.48C8.19 2.7 4.36 3.56 2 6.35a9.41 9.41 0 0 0 2 13.54 8.2 8.2 0 0 0 4.35 1.4A5.32 5.32 0 0 0 13.32 19a6.39 6.39 0 0 0 0.57 -5.32 0.33 0.33 0 0 0 -0.41 -0.2Z" fill="#4C57E6" fill-rule="evenodd" stroke-width="1"></path>
    <path d="M8.23 9.37a0.32 0.32 0 0 0 0.44 -0.16 0.34 0.34 0 0 0 -0.16 -0.45 3.51 3.51 0 0 0 -3.22 0.07 3.69 3.69 0 0 0 -1.95 2.71 6.57 6.57 0 0 0 0.46 3.37 6.94 6.94 0 0 0 2.05 2.69 3.93 3.93 0 0 0 3.57 0.61 2.7 2.7 0 0 0 2.08 -2.83 0.38 0.38 0 0 0 -0.76 0 1.88 1.88 0 0 1 -1.59 1.84 2.82 2.82 0 0 1 -2.53 -0.58A6.13 6.13 0 0 1 5 14.41a5.72 5.72 0 0 1 -0.47 -2.74 2.61 2.61 0 0 1 1.23 -2 2.74 2.74 0 0 1 2.47 -0.3Z" fill="#4C57E6" fill-rule="evenodd" stroke-width="1"></path>
    <path d="M23.91 5a3.1 3.1 0 0 0 -1.15 -1.61 3.64 3.64 0 0 0 -1.16 -0.55 3.06 3.06 0 0 0 -2.48 0.36h-0.06c-1.13 0.69 -2 1.23 -2.88 1.79 -0.41 0.27 -0.8 0.55 -1.18 0.84s-0.75 0.58 -1.13 0.9c-0.76 0.63 -3 1.23 -5 4.53l-0.24 0.37a2.4 2.4 0 0 0 -2.56 0.37 1.51 1.51 0 0 0 -0.34 1.25 1.89 1.89 0 0 0 0.81 1.49 2.25 2.25 0 0 0 1.63 0.15 1.68 1.68 0 0 0 1.36 -1.38l0.23 0c0.89 -0.19 1.79 -0.58 2.6 -0.82l3.76 -1.33c0.83 -0.3 1.65 -0.62 3 -1.14 0.27 -0.12 1.56 -0.51 2.27 -0.88a1.92 1.92 0 0 0 0.61 -0.51 4.37 4.37 0 0 0 1.77 -1.93 2.94 2.94 0 0 0 0.14 -1.9Zm-16 8.63a1.19 1.19 0 0 1 -0.76 0 0.75 0.75 0 0 1 -0.33 -0.63c-0.06 -0.22 -0.07 -0.4 0.07 -0.53s0.79 -0.59 1.24 -0.21a1.32 1.32 0 0 0 -0.2 0.27 0.69 0.69 0 0 0 -0.07 0.49 0.65 0.65 0 0 0 0.36 0.41 0.64 0.64 0 0 1 -0.31 0.17Zm1.74 -1.3 0.24 -0.41 0.94 -1.92a1.41 1.41 0 0 0 0.06 0.22 4.09 4.09 0 0 0 0.25 0.46 4 4 0 0 0 0.31 0.41c0.23 0.27 0.48 0.51 0.72 0.77 -0.7 0.1 -1.46 0.27 -2.22 0.37ZM18.58 9c-1.26 0.61 -2 1 -2.85 1.34s-1.57 0.69 -2.83 1.2c-0.14 -0.36 -0.27 -0.71 -0.43 -1.06 -0.07 -0.15 -0.15 -0.3 -0.23 -0.45s-0.19 -0.28 -0.29 -0.41l-0.14 -0.14c1.08 -0.69 2 -1.25 2.79 -1.8 0.41 -0.28 0.8 -0.55 1.18 -0.84s0.76 -0.57 1.14 -0.89c0.57 -0.47 1.18 -1 1.85 -1.62 0.21 0.36 0.42 0.72 0.61 1.08 0.38 0.72 0.72 1.45 1.08 2.17 0 0.07 0.27 0.33 0.42 0.54a22.19 22.19 0 0 1 -2.3 0.88Zm4 -2.18a3.48 3.48 0 0 1 -0.65 0.95c-0.17 -0.28 -0.46 -0.64 -0.53 -0.75 -0.44 -0.67 -0.87 -1.36 -1.32 -2 -0.25 -0.36 -0.51 -0.72 -0.77 -1.07a2.18 2.18 0 0 1 1.9 0 3.24 3.24 0 0 1 0.74 0.48 2.09 2.09 0 0 1 0.72 1 2 2 0 0 1 -0.06 1.39Z" fill="#020202" fill-rule="evenodd" stroke-width="1"></path>
  </g>
</svg>