<svg xmlns="http://www.w3.org/2000/svg" viewBox="0 0 24 24" id="Greek-Gods-Hades--Streamline-Freehand">
  <desc>
    Greek Gods Hades Streamline Icon: https://streamlinehq.com
  </desc>
  <g>
    <path d="M6.3 11.25a1.57 1.57 0 0 0 0.89 0.44 8.57 8.57 0 0 0 1 0.07l1.47 0a1.63 1.63 0 0 0 0.63 -0.17 1.73 1.73 0 0 0 0.5 -0.39 1.6 1.6 0 0 0 0.3 -0.56 1.49 1.49 0 0 0 0.05 -0.63 6.19 6.19 0 0 0 -0.15 -1 4.06 4.06 0 0 0 -0.2 -0.67 4.82 4.82 0 0 0 -0.35 -0.63c-0.25 -0.37 -0.57 -0.72 -0.79 -1.12a4.3 4.3 0 0 1 -0.44 -1.09c0 -0.14 -0.07 -0.29 -0.1 -0.44 0.48 0.13 0.93 0.26 1.37 0.4s0.9 0.29 1.38 0.48a0.48 0.48 0 0 0 0.39 0 11.11 11.11 0 0 1 1.31 -0.52c0.44 -0.14 0.9 -0.25 1.43 -0.39 0 0.13 -0.06 0.26 -0.1 0.39a4.16 4.16 0 0 1 -0.4 1c-0.28 0.46 -0.65 0.85 -0.95 1.29a4.48 4.48 0 0 0 -0.37 0.68 4.87 4.87 0 0 0 -0.24 0.85 8 8 0 0 0 -0.08 0.84 1.5 1.5 0 0 0 0.08 0.55 1.45 1.45 0 0 0 0.3 0.47 1.23 1.23 0 0 0 0.46 0.32 1.41 1.41 0 0 0 0.54 0.11c0.41 0 0.92 0 1.42 -0.06a2.64 2.64 0 0 0 1.68 -0.56 1.27 1.27 0 0 0 0.34 -0.74 14.91 14.91 0 0 0 0 -4.57 8.69 8.69 0 0 0 -1.05 -2.93A5.51 5.51 0 0 0 11.86 0a6 6 0 0 0 -5 2.46 7.43 7.43 0 0 0 -1.15 3.11 17.41 17.41 0 0 0 0.14 4.79 1.58 1.58 0 0 0 0.45 0.89Zm0.56 -5.52a6.3 6.3 0 0 1 0.92 -2.66A5 5 0 0 1 11.87 1 4.6 4.6 0 0 1 16 3.09a8.1 8.1 0 0 1 1.1 3.35 15.93 15.93 0 0 1 0 3.65c-0.06 0.59 -0.59 0.61 -1.44 0.66l-1.37 0a0.54 0.54 0 0 1 -0.25 -0.06 0.56 0.56 0 0 1 -0.2 -0.14 0.71 0.71 0 0 1 -0.13 -0.22 1 1 0 0 1 0 -0.24 5.92 5.92 0 0 1 0.09 -0.75 4.07 4.07 0 0 1 0.2 -0.68 3.4 3.4 0 0 1 0.31 -0.52c0.32 -0.45 0.7 -0.85 1 -1.31a4.71 4.71 0 0 0 0.36 -0.83A7.89 7.89 0 0 0 16 4.54a0.46 0.46 0 0 0 -0.52 -0.54c-0.88 0.21 -1.54 0.35 -2.18 0.53a10.44 10.44 0 0 0 -1.24 0.47c-0.43 -0.18 -0.84 -0.33 -1.24 -0.46 -0.69 -0.23 -1.37 -0.43 -2.17 -0.67a0.55 0.55 0 0 0 -0.48 0.1 0.53 0.53 0 0 0 -0.2 0.45 8.3 8.3 0 0 0 0.21 1.4 5.1 5.1 0 0 0 0.52 1.36c0.23 0.43 0.55 0.81 0.81 1.21a2.34 2.34 0 0 1 0.24 0.44 3.38 3.38 0 0 1 0.17 0.61q0.06 0.35 0.09 0.69a0.51 0.51 0 0 1 0 0.18 1.09 1.09 0 0 1 -0.08 0.15l-0.13 0.1a0.47 0.47 0 0 1 -0.16 0l-1.38 0c-0.35 0 -0.68 0 -0.9 -0.06a0.39 0.39 0 0 1 -0.36 -0.31 15.82 15.82 0 0 1 -0.14 -4.46Z" fill="#020202" fill-rule="evenodd" stroke-width="1"></path>
    <path d="M11.52 3.8a2 2 0 0 0 0.54 0.06 2.33 2.33 0 0 0 0.53 -0.06 4 4 0 0 0 1.13 -0.45 0.35 0.35 0 1 0 -0.21 -0.66 4.12 4.12 0 0 1 -0.6 0l-0.57 0 -0.54 0a4.94 4.94 0 0 1 -1.15 0 0.32 0.32 0 0 0 -0.4 0.16 0.29 0.29 0 0 0 0.16 0.4 3.48 3.48 0 0 0 1.11 0.55Z" fill="#020202" fill-rule="evenodd" stroke-width="1"></path>
    <path d="M21.78 16.49a0.46 0.46 0 0 0 0.32 -0.33 0.47 0.47 0 0 0 -0.1 -0.45A12.61 12.61 0 0 0 20.27 14a8.62 8.62 0 0 0 -2.13 -1.24 0.55 0.55 0 0 0 -0.5 0.06 7.31 7.31 0 0 0 -0.85 0.61l-0.45 0.39a7.53 7.53 0 0 0 -3.21 -0.82 13.16 13.16 0 0 0 -5.12 1l-2.13 -1.13a0.52 0.52 0 0 0 -0.47 0 10.2 10.2 0 0 0 -1.72 1 14.72 14.72 0 0 0 -1.5 1.26 0.52 0.52 0 0 0 -0.15 0.43 0.5 0.5 0 0 0 0.27 0.36c2.07 1 2.14 2.14 2.15 2.28a0.4 0.4 0 0 0 0.2 0.3 0.44 0.44 0 0 0 0.37 0 4.14 4.14 0 0 1 2.87 -0.16 4.1 4.1 0 0 1 2.27 1.79 0.31 0.31 0 1 0 0.53 -0.31 4.8 4.8 0 0 0 -2.58 -2.12 4.91 4.91 0 0 0 -2.92 -0.09 3 3 0 0 0 -0.54 -1.1 4.65 4.65 0 0 0 -1.29 -1.11c0.3 -0.24 0.6 -0.47 0.92 -0.68A9.54 9.54 0 0 1 5.61 14l2.09 1.1a0.58 0.58 0 0 0 0.48 0 13.77 13.77 0 0 1 4.08 -1 6.51 6.51 0 0 1 3.87 0.89 0.56 0.56 0 0 0 0.7 -0.09 8.28 8.28 0 0 1 0.68 -0.64c0.16 -0.14 0.33 -0.27 0.5 -0.4a7.42 7.42 0 0 1 1.63 0.93 10.74 10.74 0 0 1 1.14 1A5.25 5.25 0 0 0 18.91 17a3.15 3.15 0 0 0 -0.78 1.34 3.81 3.81 0 0 0 -2.77 -0.19 2.67 2.67 0 0 0 -1.52 1.69 0.33 0.33 0 0 0 0.2 0.44 0.35 0.35 0 0 0 0.45 -0.2A1.88 1.88 0 0 1 16 18.72a4 4 0 0 1 2.21 0.55 0.42 0.42 0 0 0 0.38 0 0.42 0.42 0 0 0 0.22 -0.32 2.53 2.53 0 0 1 0.69 -1.35 3.17 3.17 0 0 1 2.28 -1.11Z" fill="#4C57E6" fill-rule="evenodd" stroke-width="1"></path>
    <path d="M23 20.83a7 7 0 0 0 -0.46 -1.14 6.55 6.55 0 0 0 -0.63 -1 9.67 9.67 0 0 0 -1.22 -1.35c-0.46 -0.29 -0.87 0.08 -0.71 0.39a17.75 17.75 0 0 1 1 1.63q0.43 0.78 0.81 1.56a10.84 10.84 0 0 1 0.93 2.8 0.35 0.35 0 0 0 0.37 0.32 0.36 0.36 0 0 0 0.32 -0.38 9.29 9.29 0 0 0 -0.41 -2.83Z" fill="#020202" fill-rule="evenodd" stroke-width="1"></path>
    <path d="M1.81 18.55a8.27 8.27 0 0 0 -0.48 1.05A8.72 8.72 0 0 0 1 20.7a19.31 19.31 0 0 0 -0.42 2.62 0.35 0.35 0 0 0 0.27 0.41 0.36 0.36 0 0 0 0.41 -0.28 28.83 28.83 0 0 1 1 -2.89c0.15 -0.38 0.29 -0.75 0.44 -1.12l0.3 -0.74a11 11 0 0 1 0.63 -1.29c0.25 -0.51 -0.25 -0.82 -0.59 -0.48a10.31 10.31 0 0 0 -1.23 1.62Z" fill="#020202" fill-rule="evenodd" stroke-width="1"></path>
    <path d="M6.22 20.75a0.31 0.31 0 0 0 -0.61 -0.05 5.64 5.64 0 0 0 -0.31 0.81 2 2 0 0 0 0 0.35 2.19 2.19 0 0 0 0 0.36 7.86 7.86 0 0 0 0.19 0.84 0.35 0.35 0 1 0 0.7 0c0.06 -0.28 0.15 -0.53 0.21 -0.8s0 -0.23 0 -0.35l0 -0.34c-0.02 -0.29 -0.12 -0.57 -0.18 -0.82Z" fill="#020202" fill-rule="evenodd" stroke-width="1"></path>
    <path d="M18.61 21.93a2.34 2.34 0 0 0 -0.09 -0.38 5.8 5.8 0 0 0 -0.4 -0.88 0.3 0.3 0 0 0 -0.6 0.1c0 0.33 -0.1 0.62 -0.1 0.95a2.69 2.69 0 0 0 0 0.4c0 0.13 0.06 0.26 0.1 0.39a9 9 0 0 0 0.39 0.9 0.35 0.35 0 0 0 0.42 0.25 0.34 0.34 0 0 0 0.26 -0.42l0 -0.92a2.56 2.56 0 0 0 0.02 -0.39Z" fill="#020202" fill-rule="evenodd" stroke-width="1"></path>
  </g>
</svg>