<svg xmlns="http://www.w3.org/2000/svg" viewBox="0 0 24 24" id="Greek-Gods-Atlas--Streamline-Freehand">
  <desc>
    Greek Gods Atlas Streamline Icon: https://streamlinehq.com
  </desc>
  <path d="M10.07 12.61a6 6 0 0 0 -0.87 -0.32 0.44 0.44 0 0 1 -0.2 -0.15l0 -0.64a7.09 7.09 0 0 0 -0.07 -1.12 2.76 2.76 0 0 0 -0.27 -0.81 1.51 1.51 0 0 0 -0.75 -0.71 3 3 0 0 0 -1.24 -0.18 17.24 17.24 0 0 0 -2.33 0.22c-0.62 0.13 -0.68 0.56 -0.25 0.71s1.48 0 2.55 0.08a3.29 3.29 0 0 1 0.71 0.12 0.53 0.53 0 0 1 0.31 0.28 1.9 1.9 0 0 1 0.18 0.64 5.19 5.19 0 0 1 0 0.78 5 5 0 0 0 0 0.78 1.13 1.13 0 0 0 0.23 0.48 1.39 1.39 0 0 0 0.55 0.39c0.3 0.11 0.66 0.11 0.95 0.24a0.83 0.83 0 0 1 0.46 0.56c0.2 0.7 0.89 0.2 0.68 -0.44a1.61 1.61 0 0 0 -0.64 -0.91Z" fill="#4C57E6" fill-rule="evenodd" stroke-width="1"></path>
  <path d="M20.34 9.16a4 4 0 0 1 -0.57 0.06c-0.13 0 -0.21 -0.16 -0.32 -0.28a2.12 2.12 0 0 0 -0.62 -0.52 0.84 0.84 0 0 0 -0.59 -0.06A5.76 5.76 0 0 0 16.8 9a8.21 8.21 0 0 0 -1.27 0.85 6.42 6.42 0 0 1 -1.37 1.09 1.19 1.19 0 0 1 -0.86 0 5.11 5.11 0 0 1 -1.44 -0.72 1.86 1.86 0 0 1 -0.8 -1.09 1.48 1.48 0 0 1 0 -0.42c0 -0.44 0.13 -0.88 0.14 -1.33a6.87 6.87 0 0 1 0 -1.28 0.81 0.81 0 0 1 0.3 -0.49c0.38 -0.32 0.93 -0.24 1.4 -0.39a2.27 2.27 0 0 0 0.5 -0.23c0.4 -0.28 0.56 -0.85 0.87 -1.25a0.55 0.55 0 0 1 0.28 -0.21c0.55 -0.18 1.38 0.13 2 0.05a1.37 1.37 0 0 0 0.64 -0.23c0.54 -0.37 -0.12 -0.68 -0.35 -0.53a1 1 0 0 1 -0.57 0.09 7.44 7.44 0 0 0 -1.95 -0.14 1.3 1.3 0 0 0 -0.7 0.45c-0.27 0.31 -0.38 0.79 -0.73 1s-1 0.16 -1.52 0.31a1.84 1.84 0 0 0 -0.52 0.27 1.89 1.89 0 0 0 -0.7 1 7.57 7.57 0 0 0 -0.07 1.52c0 0.42 -0.12 0.85 -0.15 1.27a2.75 2.75 0 0 0 0 0.7 2.71 2.71 0 0 0 0.92 1.52A5.55 5.55 0 0 0 13 12a2.16 2.16 0 0 0 1.61 -0.13 7.74 7.74 0 0 0 1.57 -1.31 6.88 6.88 0 0 1 1.08 -0.8 5.08 5.08 0 0 1 1.19 -0.57c0.09 0 0.16 0.05 0.23 0.11s0.33 0.34 0.5 0.47a1.18 1.18 0 0 0 0.47 0.22h0.26c0.16 0 0.34 -0.13 0.45 -0.08a1 1 0 0 1 0.28 0.18c0.18 0.17 0.34 -0.68 0 -0.84a0.75 0.75 0 0 0 -0.3 -0.09Z" fill="#4C57E6" fill-rule="evenodd" stroke-width="1"></path>
  <path d="M22.63 13.25a1.85 1.85 0 0 0 -1.25 -1.53 8.26 8.26 0 0 0 0.2 -0.86 10.31 10.31 0 0 0 0.16 -1.48A8.73 8.73 0 0 0 15.42 0.51a10.4 10.4 0 0 0 -5.8 -0.18A9.1 9.1 0 0 0 4.76 3.5a9.48 9.48 0 0 0 -1 1.63 8.91 8.91 0 0 0 -0.66 1.81A7.66 7.66 0 0 0 2.85 9a12.28 12.28 0 0 0 0.33 2.54 2.27 2.27 0 0 0 -1.7 1.61 5 5 0 0 0 0.29 3.32 9.49 9.49 0 0 0 1.53 2.28 5.71 5.71 0 0 0 2.32 1.56 5 5 0 0 0 1 0.22c0.37 0 0.73 0 1.09 0.06 0.07 0.59 0.16 1.19 0.29 1.78a10.93 10.93 0 0 0 0.42 1.41 0.35 0.35 0 0 0 0.44 0.2 0.33 0.33 0 0 0 0.19 -0.43 10.15 10.15 0 0 1 -0.39 -1.67c-0.09 -0.58 -0.13 -1.17 -0.16 -1.73a0.41 0.41 0 0 0 -0.4 -0.38c-0.45 0 -0.91 -0.05 -1.35 -0.12a4.73 4.73 0 0 1 -0.82 -0.22A4.7 4.7 0 0 1 4.08 18a8.53 8.53 0 0 1 -1.29 -2 4.08 4.08 0 0 1 -0.32 -2.12 1.38 1.38 0 0 1 1 -1.32 0.43 0.43 0 0 1 0.53 0.14 4.69 4.69 0 0 1 0.47 0.89c0.22 0.46 0.47 0.94 0.75 1.4a9 9 0 0 0 0.93 1.31 2.3 2.3 0 0 0 1.43 0.79 8.94 8.94 0 0 0 1.64 0 3.67 3.67 0 0 0 0.25 1.4 3.1 3.1 0 0 0 2.06 1.77 2.44 2.44 0 0 0 2.61 -0.77 3 3 0 0 0 0.59 -1.49 4.51 4.51 0 0 0 0 -0.9 7.08 7.08 0 0 0 2.47 -0.23 2.85 2.85 0 0 0 1.43 -1.08l1.61 -2.57a2.14 2.14 0 0 1 0.37 -0.42 0.32 0.32 0 0 1 0.25 -0.07c0.43 0.05 0.59 0.38 0.65 0.75a5.21 5.21 0 0 1 -0.3 2.34 5 5 0 0 1 -1.82 2.55 7.14 7.14 0 0 1 -3.07 1.14 0.46 0.46 0 0 0 -0.35 0.31c-0.19 0.73 -0.35 1.47 -0.55 2.19 -0.13 0.48 -0.27 0.95 -0.44 1.41a0.33 0.33 0 0 0 0.18 0.44 0.34 0.34 0 0 0 0.44 -0.19c0.2 -0.47 0.37 -1 0.53 -1.45s0.38 -1.26 0.57 -1.9a7.6 7.6 0 0 0 3.3 -1.14 5.94 5.94 0 0 0 2.31 -3 6.41 6.41 0 0 0 0.32 -2.93ZM14 17.53a2.37 2.37 0 0 1 -0.55 1.37 1.48 1.48 0 0 1 -1.61 0.33 2 2 0 0 1 -1.31 -1.14 2.59 2.59 0 0 1 -0.15 -1.52 2.74 2.74 0 0 1 0.72 -1.4 1.54 1.54 0 0 1 1.33 -0.43 1.73 1.73 0 0 1 1.28 0.77 0.29 0.29 0 0 0 0.17 0.14 0.3 0.3 0 0 0 0 0.23 4.68 4.68 0 0 1 0.12 1.65Zm6.71 -5.89a1.4 1.4 0 0 0 -0.56 0.2 2.62 2.62 0 0 0 -0.7 0.78L18 15.29a2.23 2.23 0 0 1 -1 0.88 6.38 6.38 0 0 1 -2.23 0.3 6.39 6.39 0 0 0 -0.2 -0.81 0.33 0.33 0 0 0 -0.25 -0.22 0.31 0.31 0 0 0 0 -0.23A2.38 2.38 0 0 0 12.53 14a2.89 2.89 0 0 0 -3.24 2.32l0 0.16a7.28 7.28 0 0 1 -1.59 -0.08 1.6 1.6 0 0 1 -1 -0.59 8.77 8.77 0 0 1 -0.7 -1.25 13.91 13.91 0 0 1 -0.63 -1.37 3.84 3.84 0 0 0 -0.75 -1.35 1.29 1.29 0 0 0 -0.79 -0.36 10.33 10.33 0 0 1 0 -4.33A8.32 8.32 0 0 1 9.9 1.42a9.69 9.69 0 0 1 5.18 0.15A8.93 8.93 0 0 1 20.3 6a8.92 8.92 0 0 1 0.38 5.64Z" fill="#020202" fill-rule="evenodd" stroke-width="1"></path>
</svg>