<svg xmlns="http://www.w3.org/2000/svg" viewBox="0 0 24 24" id="Greek-Gods-Zeus-1--Streamline-Freehand">
  <desc>
    Greek Gods Zeus 1 Streamline Icon: https://streamlinehq.com
  </desc>
  <g>
    <path d="M23.41 20a8 8 0 0 0 -1 -2.25 5.72 5.72 0 0 0 -0.87 -1 2.07 2.07 0 0 0 0.92 -1.25 3.56 3.56 0 0 0 -0.4 -2.4 2.37 2.37 0 0 0 0.6 -1.36 3.85 3.85 0 0 0 -0.48 -2.16 3 3 0 0 0 0.34 -2.4 3.91 3.91 0 0 0 -1.22 -1.95 3.39 3.39 0 0 0 -1 -3.14 2.67 2.67 0 0 0 -3.19 -0.41 3.24 3.24 0 0 0 -2.26 -1 3.1 3.1 0 0 0 -2.31 1 2.36 2.36 0 0 0 -2.9 0.17 3.7 3.7 0 0 0 -1.24 3 0.29 0.29 0 0 0 0.3 0.29 0.3 0.3 0 0 0 0.3 -0.3 3 3 0 0 1 1.1 -2.38 1.65 1.65 0 0 1 2.23 0.19 0.48 0.48 0 0 0 0.34 0.11 0.51 0.51 0 0 0 0.33 -0.26 2.2 2.2 0 0 1 1.85 -0.91 2.3 2.3 0 0 1 1.73 1.06 0.55 0.55 0 0 0 0.78 0.13 1.65 1.65 0 0 1 2.19 0.08 2.29 2.29 0 0 1 0.58 2.35 0.54 0.54 0 0 0 0.22 0.63 2.86 2.86 0 0 1 1.15 1.55 2 2 0 0 1 -0.28 1.79 0.48 0.48 0 0 0 0 0.57 3.26 3.26 0 0 1 0.58 1.53 1.51 1.51 0 0 1 -0.5 1.34 0.42 0.42 0 0 0 -0.09 0.54 3.29 3.29 0 0 1 0.6 1.75 1.42 1.42 0 0 1 -0.8 1.3l-0.35 -0.21a9.51 9.51 0 0 0 -2.19 -1.08 0.56 0.56 0 0 0 -0.44 0 0.57 0.57 0 0 0 -0.25 0.37 1.32 1.32 0 0 1 -0.28 0.65 0.52 0.52 0 0 1 -0.42 0.19s-0.25 -0.13 -0.36 -0.17a1 1 0 0 0 -0.36 -0.07 0.61 0.61 0 0 0 -0.53 0.46l0 0.22 -0.12 0.32a1.3 1.3 0 0 1 -0.28 0.41 0.94 0.94 0 0 1 -0.37 0.22 1 1 0 0 1 -0.77 -0.11 1.71 1.71 0 0 1 -0.66 -0.62c-0.07 -0.11 -0.17 -0.49 -0.26 -0.65a0.78 0.78 0 0 0 -0.25 -0.26 0.82 0.82 0 0 0 -0.34 -0.09c-0.12 0 -0.49 -0.08 -0.51 0a0.91 0.91 0 0 1 -0.34 -0.25 3 3 0 0 1 -0.4 -0.56 0.56 0.56 0 0 0 -0.64 -0.23 8.89 8.89 0 0 0 -1.14 0.49 7.72 7.72 0 0 0 -1.11 0.76l-0.31 0.28a3.33 3.33 0 0 1 -0.45 -0.93 2.42 2.42 0 0 1 -0.13 -0.65 1.52 1.52 0 0 1 0.32 -1.11 0.34 0.34 0 0 0 0 -0.48 0.34 0.34 0 0 0 -0.48 0 2.15 2.15 0 0 0 -1 1.58 1.62 1.62 0 0 0 0 0.49 1.91 1.91 0 0 0 0.24 0.68 2.65 2.65 0 0 0 0.91 0.88 8.51 8.51 0 0 0 -1.89 2.76 14.88 14.88 0 0 0 -1 4.21 0.31 0.31 0 0 0 0.25 0.34 0.3 0.3 0 0 0 0.34 -0.26 14.09 14.09 0 0 1 1.13 -4 7.62 7.62 0 0 1 2.59 -3 6.7 6.7 0 0 1 0.95 -0.54 5.73 5.73 0 0 1 0.62 -0.25 3.18 3.18 0 0 0 0.44 0.53A1.8 1.8 0 0 0 12 17a1.47 1.47 0 0 0 0.4 -0.06c0.07 0.17 0.16 0.43 0.2 0.5a2.88 2.88 0 0 0 1.11 1.05 2.15 2.15 0 0 0 1.41 0.22 15.58 15.58 0 0 1 -2.57 2.27 14.45 14.45 0 0 1 -1.52 0.95 12.39 12.39 0 0 1 -2 0.84l0 -1a0.33 0.33 0 0 0 -0.31 -0.36 0.34 0.34 0 0 0 -0.36 0.32l-0.24 1.61a0.43 0.43 0 0 0 0.14 0.36 0.43 0.43 0 0 0 0.36 0.1 10.54 10.54 0 0 0 2.85 -0.82 8.78 8.78 0 0 0 1.7 -1 14.38 14.38 0 0 0 3.15 -3.7 0.29 0.29 0 0 0 0 -0.27 2.8 2.8 0 0 0 0.3 -0.49l0.06 -0.18 0.25 0.06a1.57 1.57 0 0 0 1.12 -0.4 2.12 2.12 0 0 0 0.53 -0.8l0.37 0.16c-0.09 0.75 -0.18 1.51 -0.23 2.27s-0.07 1.24 -0.05 1.86a24.71 24.71 0 0 0 0.35 3.1 0.29 0.29 0 0 0 0.31 0.28 0.3 0.3 0 0 0 0.28 -0.32c0 -0.89 0.11 -1.77 0.17 -2.67l0 -1.15 0 -1.15c0 -0.62 -0.05 -1.23 -0.08 -1.85l0.33 0.19a5.24 5.24 0 0 1 1.56 1.43 7.26 7.26 0 0 1 0.95 2 15.63 15.63 0 0 1 0.57 3.37 0.34 0.34 0 0 0 0.36 0.32 0.34 0.34 0 0 0 0.31 -0.36 16 16 0 0 0 -0.37 -3.68Z" fill="#020202" stroke-width="1"></path>
    <path d="M9.63 12.59a2.08 2.08 0 0 0 0.11 0.77 0.67 0.67 0 0 0 0.87 0.45A0.66 0.66 0 0 0 11 13a1.17 1.17 0 0 1 0.23 -0.78 1.12 1.12 0 0 1 0.6 -0.53c0.2 0 0.47 0.07 0.69 0.06a1.2 1.2 0 0 0 0.43 -0.13 1.06 1.06 0 0 0 0.32 -0.28 2.51 2.51 0 0 0 0.27 -0.37 0.76 0.76 0 0 1 0.18 -0.24 0.24 0.24 0 0 1 0.18 0 4.67 4.67 0 0 0 1 0.28 0.55 0.55 0 0 0 0.36 -0.09 1.65 1.65 0 0 0 0.23 -0.2l0.27 -0.22a0.64 0.64 0 0 1 0.45 0 0.52 0.52 0 0 1 0.32 0.28 3.25 3.25 0 0 1 0.12 0.54 1.17 1.17 0 0 0 0.1 0.26 0.91 0.91 0 0 0 0.26 0.26c0.13 0.08 0.35 0.15 0.44 0.2s0.07 0.17 0.1 0.29 0.08 0.47 0.12 0.66a0.85 0.85 0 0 0 0.44 0.64 0.59 0.59 0 0 0 0.63 -0.17 2.35 2.35 0 0 0 0.61 -1.46 20.85 20.85 0 0 0 -0.24 -3.2c0 -0.36 0.07 -0.76 0.07 -1.14a1.94 1.94 0 0 0 -0.06 -0.66 1.31 1.31 0 0 0 -0.19 -0.4 5.8 5.8 0 0 1 -0.72 -1 0.31 0.31 0 0 0 -0.27 -0.22 0.32 0.32 0 0 0 -0.32 0.14 0.35 0.35 0 0 0 -0.06 0.14 1.65 1.65 0 0 1 -1.17 0.56A1.93 1.93 0 0 1 15 5.78a2.62 2.62 0 0 1 -0.4 -0.48c-0.19 -0.3 -0.35 -0.63 -0.55 -0.94a0.34 0.34 0 0 0 -0.3 -0.18 0.37 0.37 0 0 0 -0.44 0.39s0 0.22 0 0.3l0 0.48a2.23 2.23 0 0 1 -0.21 0.63 1.32 1.32 0 0 1 -0.93 0.71 0.94 0.94 0 0 1 -0.52 -0.05 7 7 0 0 0 -0.9 -0.43 0.56 0.56 0 0 0 -0.57 0.16 1.36 1.36 0 0 0 -0.27 0.63 4.91 4.91 0 0 0 -0.1 1.19l0 2.12a8.46 8.46 0 0 1 -0.05 0.87 13.79 13.79 0 0 0 -0.13 1.41Zm1.23 -5.13a1.6 1.6 0 0 1 0 -0.23c0.19 0.11 0.42 0.29 0.48 0.31a1.89 1.89 0 0 0 1.05 0.06 2.47 2.47 0 0 0 0.89 -0.44 2.3 2.3 0 0 0 0.61 -0.79 3.24 3.24 0 0 0 0.19 -0.52 2.49 2.49 0 0 0 0.42 0.44 2.64 2.64 0 0 0 1.93 0.71 2.28 2.28 0 0 0 1.39 -0.61c0.22 0.3 0.54 0.59 0.6 0.85a1.75 1.75 0 0 1 0 0.4c0 0.39 -0.11 0.8 -0.11 1.17 0 0.72 0.21 1.75 0.18 2.68a2.59 2.59 0 0 1 -0.07 0.63 1.36 1.36 0 0 1 -0.07 -0.22 1.18 1.18 0 0 0 -0.43 -0.64l-0.38 -0.2 -0.15 -0.67a1.54 1.54 0 0 0 -0.87 -0.83 1.71 1.71 0 0 0 -1.2 0 1.59 1.59 0 0 0 -0.32 0.16l-0.27 0.22a1.75 1.75 0 0 1 -0.24 -0.11A1.94 1.94 0 0 0 14 9.6a1.3 1.3 0 0 0 -0.74 0.15 1.52 1.52 0 0 0 -0.35 0.26c-0.1 0.12 -0.19 0.25 -0.29 0.39 -0.46 0.7 -0.43 0 -1 0.19a1.89 1.89 0 0 0 -0.64 0.31l0 -0.9c0 -0.61 0 -1.21 -0.07 -1.84a5.34 5.34 0 0 1 -0.05 -0.7Z" fill="#020202" stroke-width="1"></path>
    <path d="m4.29 5.75 0 -0.01 0 0.01z" fill="#020202" stroke-width="1"></path>
    <path d="M5.3 13.74c0.32 -0.58 0.63 -1.17 0.91 -1.77s0.55 -1.21 0.79 -1.83c0.13 -0.45 0.26 -0.92 0.38 -1.39s0.23 -1 0.31 -1.43a2.24 2.24 0 0 0 0 -0.93 1.31 1.31 0 0 0 -0.38 -0.61 1.71 1.71 0 0 0 -0.89 -0.38A6.45 6.45 0 0 0 5 5.41c0.15 -0.74 0.33 -1.39 0.42 -2.06a5.13 5.13 0 0 0 0 -1.78A2.56 2.56 0 0 0 4.69 0.25a1 1 0 0 0 -1.26 0 2.8 2.8 0 0 0 -0.83 0.94A9 9 0 0 0 2 2.74c-0.39 1.14 -0.75 2 -1.09 3 -0.14 0.42 -0.27 0.86 -0.41 1.35A5.07 5.07 0 0 0 0.12 8.6a1.33 1.33 0 0 0 0.38 0.89 1.7 1.7 0 0 0 1 0.47 4 4 0 0 0 1.1 -0.05l-0.19 0.81c-0.14 0.66 -0.4 1.51 -0.49 2.3a4.33 4.33 0 0 0 0 1.14 1.26 1.26 0 0 0 1 1.13 2.11 2.11 0 0 0 1.78 -0.69 3.39 3.39 0 0 0 0.3 -0.42 4 4 0 0 0 0.3 -0.44Zm-0.87 -0.5 -0.43 0.64a1.11 1.11 0 0 1 -0.7 0.36c-0.13 0 -0.2 -0.09 -0.23 -0.26a3.6 3.6 0 0 1 0.06 -1.12c0.11 -0.67 0.32 -1.35 0.44 -1.9l0.39 -1.58a0.57 0.57 0 0 0 -0.12 -0.52 0.55 0.55 0 0 0 -0.49 -0.2 11.47 11.47 0 0 1 -1.45 0.18 0.7 0.7 0 0 1 -0.54 -0.15c-0.11 -0.1 -0.07 -0.25 -0.05 -0.4 0.06 -0.31 0.2 -0.63 0.26 -0.89 0.16 -0.64 0.32 -1.2 0.49 -1.74 0.21 -0.84 0.49 -1.66 0.79 -2.66a7.48 7.48 0 0 1 0.52 -1.4 1.87 1.87 0 0 1 0.55 -0.69 0.22 0.22 0 0 1 0.34 0 2.24 2.24 0 0 1 0.34 0.78 4.62 4.62 0 0 1 0.1 1.55c-0.07 0.78 -0.29 1.54 -0.41 2.46a0.4 0.4 0 0 0 0.08 0.3 0.3 0.3 0 0 0 0.23 0.11 11.46 11.46 0 0 1 1.49 -0.07 1.18 1.18 0 0 1 0.72 0.24 0.54 0.54 0 0 1 0.19 0.35 1.69 1.69 0 0 1 0 0.5c-0.09 0.45 -0.21 0.91 -0.34 1.36s-0.26 0.89 -0.41 1.33 -0.59 1.18 -0.88 1.73 -0.61 1.14 -0.94 1.69Z" fill="#4C57E6" stroke-width="1"></path>
  </g>
</svg>