<svg xmlns="http://www.w3.org/2000/svg" viewBox="0 0 24 24" id="Greek-Aesthetics-History-Ship-Boat-1--Streamline-Freehand">
  <desc>
    Greek Aesthetics History Ship Boat 1 Streamline Icon: https://streamlinehq.com
  </desc>
  <g>
    <path d="M21.11 11a0.57 0.57 0 0 0 -1 0.47 1.61 1.61 0 0 1 -0.63 1.66 4.52 4.52 0 0 1 -2 0.89 41 41 0 0 1 -5.25 0.57c0 -0.17 0.08 -0.34 0.11 -0.54a2.57 2.57 0 0 0 0 -0.48 3.71 3.71 0 0 0 0 -0.47c0 -0.33 -0.1 -0.6 -0.15 -0.84l1.63 0c1.67 -0.06 3.47 -0.17 3.5 -0.19A7.44 7.44 0 0 0 19 7.36a12.64 12.64 0 0 0 -0.72 -4.81 0.46 0.46 0 0 0 -0.44 -0.31c-1.87 0 -3.76 0 -5.64 0.1 0 -0.13 0.05 -0.26 0.07 -0.39s0 -0.26 0 -0.39a1.58 1.58 0 0 0 0 -0.38A7 7 0 0 0 12 0.29a0.29 0.29 0 0 0 -0.3 -0.29 0.3 0.3 0 0 0 -0.29 0.3 7.52 7.52 0 0 0 -0.22 0.91 2.55 2.55 0 0 0 0 0.39l0 0.38c0 0.13 0.07 0.26 0.1 0.38 -0.93 0 -1.86 0.06 -2.79 0.07l-2.31 0a0.57 0.57 0 0 0 -0.53 0.81 10.18 10.18 0 0 1 1 4.27 7.78 7.78 0 0 1 -1.12 4.18 0.5 0.5 0 0 0 0 0.5 0.52 0.52 0 0 0 0.44 0.25c1.68 -0.07 3.54 -0.09 5.41 -0.13 0 0.23 -0.1 0.5 -0.14 0.82l0 0.47a3.59 3.59 0 0 0 0 0.47c0 0.22 0.08 0.42 0.12 0.59 -2.52 0.13 -5.09 0.16 -7.11 0.2a3.72 3.72 0 0 0 -0.13 -1.21 2.14 2.14 0 0 0 -0.55 -0.92 1.93 1.93 0 0 0 -1.76 -0.53 0.34 0.34 0 0 0 0 0.68 1.18 1.18 0 0 1 0.75 0.38 1.82 1.82 0 0 1 0.23 0.3c0.11 0.17 0.22 0.35 0.32 0.54a9.9 9.9 0 0 1 0.48 1 0.26 0.26 0 0 0 0 0.12c0 4.13 -0.07 3.2 0 3.41a1.66 1.66 0 0 0 0.12 0.42 1.12 1.12 0 0 0 0.34 0.43 1.78 1.78 0 0 0 0.66 0.33l0.16 0 -0.18 0.33a1.13 1.13 0 0 0 -0.24 -0.08 1.34 1.34 0 0 0 -1 0.3 5 5 0 0 0 -0.85 0.87A2.82 2.82 0 0 0 2 22.27a1.13 1.13 0 0 0 0.39 1.06l0.44 0.31a1.29 1.29 0 0 0 1.45 -0.13 4 4 0 0 0 0.9 -1.35 2.9 2.9 0 0 0 0.37 -0.95 0.75 0.75 0 0 0 -0.2 -0.64 0.39 0.39 0 0 0 -0.14 -0.08c0.16 -0.17 0.32 -0.34 0.49 -0.5l0.74 0.15c0.68 0.08 1.36 0.15 2.05 0.2a2 2 0 0 0 -0.37 0.21 4.33 4.33 0 0 0 -0.85 0.87 2.68 2.68 0 0 0 -0.53 1 1.1 1.1 0 0 0 0.38 1.06l0.44 0.31a1.29 1.29 0 0 0 1.46 -0.14 3.91 3.91 0 0 0 0.9 -1.34 3.14 3.14 0 0 0 0.37 -0.95 0.78 0.78 0 0 0 -0.2 -0.64 0.36 0.36 0 0 0 -0.15 -0.08l0.22 -0.22 0.29 0c0.81 0.05 1.62 0.08 2.42 0.11a5.45 5.45 0 0 0 -0.67 0.72 2.84 2.84 0 0 0 -0.54 1.05 1.13 1.13 0 0 0 0.39 1.06l0.44 0.3A1.28 1.28 0 0 0 14 23.6a4 4 0 0 0 0.9 -1.35 3 3 0 0 0 0.37 -0.94 0.73 0.73 0 0 0 -0.19 -0.61 14.53 14.53 0 0 0 3.69 -0.14A4.44 4.44 0 0 0 21.41 19a5.79 5.79 0 0 0 1.1 -4 8 8 0 0 0 -1.4 -4ZM7 3.56l2.65 0c2.6 -0.1 5.21 -0.33 7.82 -0.35a11.22 11.22 0 0 1 0.68 4.14 7.66 7.66 0 0 1 -1.28 4.15c-1 0 -2.06 0.06 -3.14 0.06 -2.33 0 -4.78 -0.07 -7 -0.09a8.85 8.85 0 0 0 1 -3.94A10.94 10.94 0 0 0 7 3.56ZM4.81 21.25a5.13 5.13 0 0 1 -0.33 0.49 4.16 4.16 0 0 1 -0.65 0.83 0.35 0.35 0 0 1 -0.44 0.07l-0.21 -0.16c-0.07 -0.06 0 -0.13 0 -0.2a4.12 4.12 0 0 1 0.24 -0.47A3.42 3.42 0 0 1 4 21c0.11 -0.11 0.21 -0.23 0.36 -0.23a0.65 0.65 0 0 1 0.27 0 1 1 0 0 1 0.23 0.12l0.06 0.08c0.02 0.13 -0.07 0.2 -0.11 0.28Zm4.76 0.2a5.13 5.13 0 0 1 -0.33 0.49 4.16 4.16 0 0 1 -0.65 0.83 0.35 0.35 0 0 1 -0.44 0.07l-0.21 -0.16c-0.07 -0.06 0 -0.13 0 -0.2A2.31 2.31 0 0 1 8.2 22a3.36 3.36 0 0 1 0.53 -0.8c0.11 -0.11 0.22 -0.23 0.36 -0.23a0.66 0.66 0 0 1 0.28 0.05l0.23 0.12a0.35 0.35 0 0 0 0.05 0.08c0.05 0.08 -0.04 0.15 -0.08 0.23Zm4.93 -0.1a5.13 5.13 0 0 1 -0.33 0.49 4.16 4.16 0 0 1 -0.65 0.83 0.33 0.33 0 0 1 -0.44 0.06l-0.21 -0.15c-0.07 -0.06 0 -0.13 0 -0.2a2.31 2.31 0 0 1 0.24 -0.47 3.17 3.17 0 0 1 0.53 -0.8 0.54 0.54 0 0 1 0.36 -0.23 0.5 0.5 0 0 1 0.27 0.05l0.23 0.11 0.06 0.09c0.07 0.06 -0.02 0.13 -0.06 0.22Zm6 -3.06a3.43 3.43 0 0 1 -2 1.26 11.1 11.1 0 0 1 -2.79 0.2l0.15 -0.16c0.16 -0.17 0.32 -0.35 0.46 -0.53a6 6 0 0 0 0.42 -0.57c0.3 -0.48 0.54 -1 0.8 -1.47a0.3 0.3 0 0 0 -0.48 -0.35c-0.39 0.4 -0.8 0.75 -1.18 1.15a5.85 5.85 0 0 0 -0.45 0.54c-0.15 0.18 -0.28 0.38 -0.41 0.57s-0.32 0.53 -0.48 0.79h-0.05c-1.17 0 -2.34 0 -3.52 -0.07a6.4 6.4 0 0 0 0.42 -0.49 6 6 0 0 0 0.42 -0.57c0.3 -0.47 0.54 -1 0.8 -1.46a0.3 0.3 0 0 0 -0.07 -0.42 0.28 0.28 0 0 0 -0.41 0.07c-0.39 0.39 -0.8 0.74 -1.18 1.14 -0.16 0.18 -0.31 0.35 -0.45 0.54s-0.28 0.38 -0.41 0.58 -0.23 0.37 -0.34 0.56c-1.07 -0.05 -2.14 -0.11 -3.2 -0.21l-0.25 0c0.11 -0.13 0.23 -0.25 0.33 -0.39a4.57 4.57 0 0 0 0.41 -0.57 14.86 14.86 0 0 0 0.8 -1.46 0.3 0.3 0 0 0 -0.06 -0.42 0.3 0.3 0 0 0 -0.42 0.07c-0.38 0.39 -0.79 0.74 -1.17 1.14 -0.16 0.18 -0.31 0.35 -0.45 0.54s-0.28 0.38 -0.41 0.58a3.21 3.21 0 0 0 -0.19 0.31l-0.34 -0.06a1.22 1.22 0 0 1 -0.37 -0.16 0.52 0.52 0 0 1 -0.22 -0.22 1 1 0 0 1 -0.08 -0.29 20.18 20.18 0 0 1 0 -2.9c2.22 0 5.14 0.08 7.91 0a43.08 43.08 0 0 0 5.53 -0.44 5.21 5.21 0 0 0 3 -1.51 3.12 3.12 0 0 0 0.34 -0.47 6.75 6.75 0 0 1 0.47 1.86 4.74 4.74 0 0 1 -0.84 3.29Z" fill="#020202" fill-rule="evenodd" stroke-width="1"></path>
    <path d="M9.68 5.16c0.32 1.55 -0.63 4.69 -0.94 5.44 0 0.1 0 0.18 0.15 0.19a0.37 0.37 0 0 0 0.31 -0.17 6.07 6.07 0 0 0 0.86 -6.28c0 -0.08 -0.19 -0.1 -0.28 0 -0.29 0.2 -0.24 0.29 -0.1 0.82Z" fill="#4C57E6" fill-rule="evenodd" stroke-width="1"></path>
    <path d="M12.61 5c0.32 1.55 -0.63 4.69 -0.94 5.44 0 0.1 0 0.19 0.15 0.19a0.38 0.38 0 0 0 0.31 -0.16A6.08 6.08 0 0 0 13 4.19c0 -0.07 -0.19 -0.09 -0.28 0 -0.3 0.21 -0.25 0.3 -0.11 0.81Z" fill="#4C57E6" fill-rule="evenodd" stroke-width="1"></path>
    <path d="M15.89 4.93c0.32 1.55 -0.63 4.69 -0.93 5.44 -0.05 0.1 0 0.18 0.15 0.19a0.39 0.39 0 0 0 0.31 -0.17 6.11 6.11 0 0 0 0.86 -6.28 0.2 0.2 0 0 0 -0.29 0c-0.28 0.2 -0.23 0.29 -0.1 0.82Z" fill="#4C57E6" fill-rule="evenodd" stroke-width="1"></path>
  </g>
</svg>