<svg xmlns="http://www.w3.org/2000/svg" viewBox="0 0 24 24" id="Greek-Aesthetics-Letter-Records--Streamline-Freehand">
  <desc>
    Greek Aesthetics Letter Records Streamline Icon: https://streamlinehq.com
  </desc>
  <g>
    <path d="M23.76 19.91a0.34 0.34 0 0 0 -0.36 -0.32l-2 0 -1.14 0 0.38 -7a0.46 0.46 0 0 0 -0.25 -0.43l-1.1 -0.55L20.5 11a0.5 0.5 0 0 0 0.29 -0.44l0.31 -6A4.67 4.67 0 0 0 20 1.28a3.12 3.12 0 0 0 -2.28 -1c-3.3 -0.06 -6.42 0.1 -9.61 0.02C6.82 0.27 5.51 0.19 4.17 0.06 4.05 0 3.93 0 3.8 0a3.07 3.07 0 0 0 -2.33 1 3.23 3.23 0 0 0 -0.61 0.94A7.13 7.13 0 0 0 0.4 3.43a7.5 7.5 0 0 0 -0.14 1.16l0 1.69a0.87 0.87 0 0 0 0.04 0.32 0.84 0.84 0 0 0 0.18 0.28 1 1 0 0 0 0.27 0.18 0.87 0.87 0 0 0 0.32 0.06h2.74a0.3 0.3 0 0 0 0.3 -0.3 0.32 0.32 0 0 0 -0.31 -0.3l-2.73 -0.07L1 6.4l0 -0.1c0 -0.56 0 -1.11 0.06 -1.66a6.08 6.08 0 0 1 0.16 -1 6.45 6.45 0 0 1 0.43 -1.33 3 3 0 0 1 0.49 -0.7A2.19 2.19 0 0 1 3.76 0.88a1.85 1.85 0 0 1 1.49 0.93 3.34 3.34 0 0 1 0.45 1.64 20.2 20.2 0 0 1 -0.23 2.86 0.53 0.53 0 0 0 0.23 0.49l1.3 0.83 -1.34 0.58a0.55 0.55 0 0 0 -0.35 0.51l-0.16 5.94c0 1.39 -0.24 3 -0.14 4.53a6.87 6.87 0 0 0 0.87 3.09 3.08 3.08 0 0 0 1.81 1.37 2.16 2.16 0 0 0 1.1 0c0.44 0 0.87 0.08 1.3 0.1l3 0.09 2.42 0.11c0.81 0 1.64 0.05 2.45 0 1.15 0 2.28 -0.07 3.29 -0.17A2.45 2.45 0 0 0 23 22.72a4.75 4.75 0 0 0 0.73 -2.59 0.33 0.33 0 0 0 0.03 -0.22Zm-17 1.82a5.92 5.92 0 0 1 -0.68 -2.61c-0.09 -1.5 0.12 -3.07 0.16 -4.43l0.14 -5.58 2 -0.86a0.55 0.55 0 0 0 0.33 -0.48 0.57 0.57 0 0 0 -0.27 -0.51L6.55 6.08a17 17 0 0 0 0.14 -2.69A4.35 4.35 0 0 0 6 1.3a2.88 2.88 0 0 0 -0.35 -0.46c1.28 0.13 2.55 0.23 3.81 0.29 2.72 0.12 5.42 0.11 8.26 0.23a2.06 2.06 0 0 1 1.72 1A4 4 0 0 1 20 4.62l-0.19 5.63 -1.29 0.64a3.92 3.92 0 0 0 -0.45 0.21 0.58 0.58 0 0 0 -0.31 0.44 0.56 0.56 0 0 0 0.22 0.44 4.31 4.31 0 0 0 0.52 0.29l1.27 0.58 -0.15 6.75c-1.09 0 -2.14 -0.05 -2.93 0 -1.3 0 -2.6 0.08 -3.89 0.07a19.43 19.43 0 0 1 -2.53 -0.17 0.46 0.46 0 0 0 -0.39 0.12 0.48 0.48 0 0 0 -0.15 0.37 5.61 5.61 0 0 1 -0.09 1.29 2.26 2.26 0 0 1 -0.48 1 1.12 1.12 0 0 1 -1.19 0.36 2 2 0 0 1 -1.18 -0.91Zm15.71 0.16a1.72 1.72 0 0 1 -1.39 1l-3.21 0 -3.25 0 -1.63 0c-1 0 -2 0.12 -2.95 0.15H9.8l0.09 -0.08a3.19 3.19 0 0 0 0.6 -1.19 5 5 0 0 0 0.15 -1.28c0.71 0.06 1.41 0.07 2.11 0.06 1.3 0 2.6 -0.11 3.91 -0.15s3.1 0 4.73 0l1.61 -0.1a4.27 4.27 0 0 1 -0.5 1.59Z" fill="#020202" fill-rule="evenodd" stroke-width="1"></path>
    <path d="M9.75 5.66c0.54 0.13 0.91 0.24 1.27 0.29a5.35 5.35 0 0 0 0.55 0l0.54 0c0.36 0 0.74 -0.09 1.28 -0.15a0.35 0.35 0 0 0 0.36 -0.33 0.35 0.35 0 0 0 -0.33 -0.36c-0.53 -0.1 -0.91 -0.19 -1.27 -0.24l-0.55 -0.06h-0.54c-0.36 0 -0.74 0.12 -1.28 0.21a0.29 0.29 0 0 0 -0.31 0.29 0.3 0.3 0 0 0 0.28 0.35Z" fill="#4C57E6" fill-rule="evenodd" stroke-width="1"></path>
    <path d="M15.54 6c0.24 0.09 0.42 0.2 0.66 0.27l0.29 0 0.28 0c0.24 0 0.44 -0.1 0.68 -0.15a0.33 0.33 0 0 0 0.37 -0.31 0.34 0.34 0 0 0 -0.3 -0.37 6.22 6.22 0 0 0 -0.68 -0.25 1.59 1.59 0 0 0 -0.3 -0.06 1.51 1.51 0 0 0 -0.3 0 4.3 4.3 0 0 0 -0.69 0.23 0.3 0.3 0 1 0 0 0.6Z" fill="#4C57E6" fill-rule="evenodd" stroke-width="1"></path>
    <path d="M12.45 8.57c-0.89 0 -1.76 0.15 -2.64 0.25a0.29 0.29 0 0 0 -0.29 0.31 0.3 0.3 0 0 0 0.3 0.3c0.87 0.06 1.73 0.17 2.61 0.24l1.11 0.06h1.12l2.62 0a0.33 0.33 0 0 0 0.36 -0.31 0.34 0.34 0 0 0 -0.31 -0.42c-0.87 -0.13 -1.74 -0.28 -2.62 -0.36 -0.37 0 -0.75 -0.07 -1.13 -0.09Z" fill="#4C57E6" fill-rule="evenodd" stroke-width="1"></path>
    <path d="M9.23 13.17a6.22 6.22 0 0 0 0.75 0.22 1.13 1.13 0 0 0 0.32 0 1.75 1.75 0 0 0 0.32 0 7 7 0 0 0 0.75 -0.23 0.34 0.34 0 1 0 0 -0.68c-0.28 -0.06 -0.5 -0.13 -0.75 -0.17a1.66 1.66 0 0 0 -0.32 0l-0.32 0a6.49 6.49 0 0 0 -0.75 0.28 0.3 0.3 0 0 0 -0.29 0.31 0.31 0.31 0 0 0 0.29 0.27Z" fill="#4C57E6" fill-rule="evenodd" stroke-width="1"></path>
    <path d="M15.79 12.49a7.14 7.14 0 0 0 -0.93 -0.08 6.13 6.13 0 0 0 -1.63 0.22 0.3 0.3 0 1 0 0.06 0.59c0.29 0 0.75 0.19 1.29 0.29l0.58 0.07h0.59a6.46 6.46 0 0 0 1.44 -0.18 0.34 0.34 0 0 0 0.3 -0.38 0.33 0.33 0 0 0 -0.38 -0.29c-0.3 -0.01 -0.77 -0.15 -1.32 -0.24Z" fill="#4C57E6" fill-rule="evenodd" stroke-width="1"></path>
    <path d="M9 16.51c0.68 0.06 1.74 0.21 2.92 0.28 0.41 0 0.83 0 1.25 0.05l1.26 0c1.19 -0.05 2.26 -0.15 2.95 -0.24a0.34 0.34 0 1 0 0 -0.68c-0.7 0 -1.79 -0.12 -3 -0.17 -0.66 0 -1.34 -0.06 -2 -0.05 -1.34 0 -2.59 0.17 -3.36 0.23a0.31 0.31 0 0 0 -0.3 0.3 0.3 0.3 0 0 0 0.28 0.28Z" fill="#4C57E6" fill-rule="evenodd" stroke-width="1"></path>
  </g>
</svg>