<svg xmlns="http://www.w3.org/2000/svg" viewBox="0 0 24 24" id="Grid-Squares-Dash--Streamline-Freehand">
  <desc>
    Grid Squares Dash Streamline Icon: https://streamlinehq.com
  </desc>
  <g>
    <path d="M23.39 17c-1.85 -0.09 -3.7 -0.15 -5.55 -0.19 0 -0.87 0.05 -1.74 0.05 -2.6l0 -1.7c0.45 0 0.88 -0.12 1.33 -0.16a0.28 0.28 0 0 0 0.31 -0.26 0.29 0.29 0 0 0 -0.26 -0.32 11 11 0 0 0 -1.16 -0.33l-0.24 0 0 -2.54 0 -1.37 5.43 0a0.31 0.31 0 0 0 0.31 -0.28 0.29 0.29 0 0 0 -0.28 -0.3c-1.82 -0.15 -3.66 -0.27 -5.49 -0.37 -0.07 -1.9 -0.14 -3.79 -0.17 -5.68a0.29 0.29 0 0 0 -0.28 -0.3 0.3 0.3 0 0 0 -0.3 0.29c-0.08 1.88 -0.15 3.76 -0.19 5.64l-1.39 -0.08 -2.91 -0.06 0 -0.29c0 -0.45 -0.12 -0.88 -0.16 -1.33a0.28 0.28 0 0 0 -0.26 -0.31 0.29 0.29 0 0 0 -0.32 0.26 11 11 0 0 0 -0.33 1.16 2.94 2.94 0 0 0 -0.05 0.51l-2.69 0 -1.2 0 0 -5.37a0.29 0.29 0 0 0 -0.58 0c-0.14 1.8 -0.26 3.61 -0.37 5.42l-5.74 0.2A0.32 0.32 0 0 0 0.58 7a0.33 0.33 0 0 0 0.33 0.33l5.63 0.12c0 0.48 0 1 -0.07 1.45q0 1.31 -0.06 2.61h-0.29c-0.45 0 -0.88 0.12 -1.33 0.16a0.28 0.28 0 0 0 -0.31 0.26 0.29 0.29 0 0 0 0.26 0.32 11 11 0 0 0 1.16 0.33 4 4 0 0 0 0.5 0.05l0 3 0 1.31c-1.75 0 -3.5 0.07 -5.24 0.05a0.32 0.32 0 0 0 -0.34 0.32 0.32 0.32 0 0 0 0.31 0.34c1.76 0.1 3.53 0.17 5.29 0.23 0 1.86 0.11 3.72 0.16 5.57a0.33 0.33 0 0 0 0.66 0l0.12 -5.54 2.67 0h1.4c0 0.45 0.11 0.87 0.15 1.32a0.28 0.28 0 0 0 0.26 0.31 0.29 0.29 0 0 0 0.32 -0.26 11 11 0 0 0 0.33 -1.16l0 -0.21 2.84 -0.05 1.48 -0.05c0 1.77 0.07 3.54 0.05 5.31a0.34 0.34 0 0 0 0.32 0.34 0.33 0.33 0 0 0 0.34 -0.32c0.11 -1.79 0.18 -3.57 0.23 -5.36 1.86 -0.07 3.71 -0.14 5.56 -0.16a0.3 0.3 0 0 0 0.3 -0.29 0.29 0.29 0 0 0 -0.22 -0.33Zm-8.88 -0.25h-2a7.92 7.92 0 0 0 -0.21 -0.91 0.32 0.32 0 0 0 -0.36 -0.29 0.33 0.33 0 0 0 -0.29 0.36c0 0.29 -0.06 0.57 -0.1 0.85l-2.38 0.05 -1.75 0 0 -1.29 0 -3.11 0.63 -0.16a0.32 0.32 0 0 0 0.37 -0.25 0.33 0.33 0 0 0 -0.36 -0.29c-0.19 0 -0.37 0 -0.55 -0.06l0 -2.71 0 -1.45 1.2 0 2.81 0c0.05 0.2 0.1 0.41 0.16 0.62a0.32 0.32 0 0 0 0.36 0.29 0.33 0.33 0 0 0 0.29 -0.36c0 -0.18 0 -0.36 0.06 -0.54h4.4l0 2.27 0 1.69a7.26 7.26 0 0 0 -0.9 0.2 0.32 0.32 0 0 0 -0.29 0.36 0.33 0.33 0 0 0 0.36 0.29c0.29 0 0.56 0.06 0.84 0.1l0 2.68 0 1.69c-0.72 0.01 -1.51 -0.01 -2.29 -0.01Z" fill="#020202" stroke-width="1"></path>
    <path d="m1.51 12.57 0.35 -0.05 0.81 -0.23A0.33 0.33 0 0 0 3 12a0.34 0.34 0 0 0 -0.34 -0.33c-0.29 -0.05 -0.56 -0.12 -0.85 -0.16a2.17 2.17 0 0 0 -0.36 0 2.2 2.2 0 0 0 -0.36 0c-0.29 0.07 -0.53 0.19 -0.82 0.29a0.3 0.3 0 0 0 -0.27 0.3 0.29 0.29 0 0 0 0.31 0.27 6 6 0 0 0 0.84 0.19 1.45 1.45 0 0 0 0.36 0.01Z" fill="#4C57E6" stroke-width="1"></path>
    <path d="M11.71 2.67A0.33 0.33 0 0 0 12 3a0.35 0.35 0 0 0 0.33 -0.34c0.06 -0.29 0.12 -0.56 0.16 -0.85a2.17 2.17 0 0 0 0 -0.36 2.2 2.2 0 0 0 0 -0.36 7.81 7.81 0 0 0 -0.29 -0.81 0.29 0.29 0 1 0 -0.58 0 6 6 0 0 0 -0.19 0.84 1.45 1.45 0 0 0 0 0.36 2.14 2.14 0 0 0 0.06 0.35c0.05 0.31 0.15 0.56 0.22 0.84Z" fill="#4C57E6" stroke-width="1"></path>
    <path d="M23.69 11.63a6 6 0 0 0 -0.84 -0.19 1.45 1.45 0 0 0 -0.36 0l-0.35 0.05 -0.81 0.23A0.33 0.33 0 0 0 21 12a0.34 0.34 0 0 0 0.34 0.33c0.29 0.06 0.56 0.12 0.85 0.16a2.17 2.17 0 0 0 0.36 0 2.2 2.2 0 0 0 0.36 0c0.29 -0.07 0.53 -0.19 0.82 -0.29a0.3 0.3 0 0 0 0.27 -0.3 0.29 0.29 0 0 0 -0.31 -0.27Z" fill="#4C57E6" stroke-width="1"></path>
    <path d="M12.29 21.33A0.33 0.33 0 0 0 12 21a0.35 0.35 0 0 0 -0.33 0.34c-0.06 0.29 -0.12 0.56 -0.16 0.85a2.17 2.17 0 0 0 0 0.36 2.2 2.2 0 0 0 0 0.36 7.81 7.81 0 0 0 0.29 0.81 0.29 0.29 0 1 0 0.58 0 6 6 0 0 0 0.19 -0.84 1.45 1.45 0 0 0 0 -0.36 2.14 2.14 0 0 0 -0.06 -0.35c-0.05 -0.31 -0.15 -0.56 -0.22 -0.84Z" fill="#4C57E6" stroke-width="1"></path>
    <path d="m13.53 11.59 -1 -0.12v-0.07c-0.05 -0.4 -0.15 -0.76 -0.22 -1.15a0.29 0.29 0 0 0 -0.28 -0.3 0.28 0.28 0 0 0 -0.3 0.28 9 9 0 0 0 -0.26 1.17h-0.1c-0.4 0.05 -0.76 0.15 -1.15 0.22a0.29 0.29 0 0 0 -0.3 0.28 0.28 0.28 0 0 0 0.28 0.3 9.25 9.25 0 0 0 1.16 0.26h0.14c0.06 0.36 0.14 0.71 0.22 1.06a0.33 0.33 0 1 0 0.66 0c0 -0.36 0.1 -0.71 0.14 -1.07l1 -0.21a0.33 0.33 0 0 0 0.31 -0.35 0.33 0.33 0 0 0 -0.3 -0.3Z" fill="#4C57E6" stroke-width="1"></path>
  </g>
</svg>