<svg xmlns="http://www.w3.org/2000/svg" viewBox="0 0 24 24" id="Grid-Artboard--Streamline-Freehand">
  <desc>
    Grid Artboard Streamline Icon: https://streamlinehq.com
  </desc>
  <g>
    <path d="M18 19c-2.84 -0.18 -5.67 0.13 -8.51 0.12 -0.69 0 -1.38 0 -2.07 -0.09 -0.52 0 -1.24 0 -1.9 -0.08a2.75 2.75 0 0 1 -0.67 -0.12l0 -1c0 -1 -0.06 -2.37 -0.1 -3.9 -0.07 -3.23 -0.15 -7.09 0 -9.08A0.35 0.35 0 1 0 4 4.79C3.76 7 3.54 11.54 3.5 15c0 1.78 0 3.25 0.06 3.95l0 0.49a0.68 0.68 0 0 0 0.32 0.46 3.05 3.05 0 0 0 1.16 0.38c0.76 0.11 1.67 0.05 2.29 0.08s1.45 0 2.17 0c2.83 -0.11 5.63 -0.56 8.45 -0.52A0.39 0.39 0 0 0 18 19Z" fill="#020202" fill-rule="evenodd" stroke-width="1"></path>
    <path d="M19.53 18.12c0.15 -1.68 0.25 -3.36 0.3 -5.05s0 -3.39 0 -5.08a19 19 0 0 0 -0.29 -3 1 1 0 0 0 -0.61 -0.72 5.13 5.13 0 0 0 -1.43 -0.17c-1 0 -2.05 0.21 -2.85 0.19 -1.87 0 -3.79 0 -5.69 -0.07C7.69 4.17 6.43 4.1 5.18 4a0.35 0.35 0 0 0 -0.08 0.69c1.56 0.24 3.15 0.42 4.75 0.56s3.2 0.24 4.77 0.33c0.8 0 1.91 -0.13 2.89 -0.14a4.8 4.8 0 0 1 0.78 0 19 19 0 0 1 0.25 2.6c0.14 1.66 0.23 3.33 0.26 5s0 3.35 -0.05 5a0.39 0.39 0 1 0 0.78 0.05Z" fill="#020202" fill-rule="evenodd" stroke-width="1"></path>
    <path d="M4.54 3.29c0.23 0 0.41 -0.06 0.65 -1.23a1.49 1.49 0 0 0 0 -0.36 1.45 1.45 0 0 0 0 -0.36C5 0.11 4.74 0.14 4.63 0.14 4.27 0.12 4 1.2 4 1.31a1.5 1.5 0 0 0 0 0.37A2.19 2.19 0 0 0 4 2c0.15 1.2 0.3 1.28 0.54 1.29Z" fill="#4C57E6" fill-rule="evenodd" stroke-width="1"></path>
    <path d="M4.41 20.71c-0.24 0 -0.38 0.09 -0.58 1.25a2.2 2.2 0 0 0 0 0.36 1.5 1.5 0 0 0 0 0.37c0 0.11 0.32 1.19 0.68 1.17 0.11 0 0.36 0 0.58 -1.2a1.46 1.46 0 0 0 0 -0.36l0 -0.36c-0.27 -1.17 -0.45 -1.23 -0.68 -1.23Z" fill="#4C57E6" fill-rule="evenodd" stroke-width="1"></path>
    <path d="M19.49 0.14c-0.11 0 -0.35 0 -0.58 1.2a1.46 1.46 0 0 0 0 0.36c0 0.12 0 0.24 0.05 0.36 0.25 1.17 0.43 1.23 0.66 1.23S20 3.2 20.17 2a2.2 2.2 0 0 0 0 -0.36 1.5 1.5 0 0 0 0 -0.37c-0.03 -0.07 -0.32 -1.15 -0.68 -1.13Z" fill="#4C57E6" fill-rule="evenodd" stroke-width="1"></path>
    <path d="M19.59 20.71c-0.23 0 -0.41 0.06 -0.66 1.23 0 0.12 0 0.24 -0.05 0.36a1.46 1.46 0 0 0 0 0.36c0.23 1.23 0.47 1.2 0.58 1.2 0.36 0 0.65 -1.06 0.68 -1.17a1.5 1.5 0 0 0 0 -0.37 2.2 2.2 0 0 0 0 -0.36c-0.14 -1.16 -0.31 -1.24 -0.55 -1.25Z" fill="#4C57E6" fill-rule="evenodd" stroke-width="1"></path>
    <path d="M2.09 3.6a2.33 2.33 0 0 0 -0.38 0l-0.37 0C0.1 3.88 0.13 4.12 0.13 4.24c0 0.39 1.21 0.62 1.23 0.63a2.36 2.36 0 0 0 0.38 0 1.57 1.57 0 0 0 0.37 0c1.17 -0.23 1.26 -0.36 1.26 -0.61s-0.09 -0.46 -1.28 -0.66Z" fill="#4C57E6" fill-rule="evenodd" stroke-width="1"></path>
    <path d="M2 19.16a1.5 1.5 0 0 0 -0.37 -0.05 2.48 2.48 0 0 0 -0.38 0S0 19.37 0 19.76c0 0.12 0 0.36 1.21 0.64l0.38 0a2.58 2.58 0 0 0 0.38 0c1.19 -0.2 1.28 -0.39 1.28 -0.63s-0.1 -0.38 -1.25 -0.61Z" fill="#4C57E6" fill-rule="evenodd" stroke-width="1"></path>
    <path d="M22 4.84a1.5 1.5 0 0 0 0.37 0 2.48 2.48 0 0 0 0.38 0S24 4.63 24 4.24c0 -0.12 0 -0.36 -1.21 -0.64l-0.38 0a2.58 2.58 0 0 0 -0.38 0c-1.19 0.2 -1.28 0.39 -1.27 0.63s0.09 0.38 1.24 0.61Z" fill="#4C57E6" fill-rule="evenodd" stroke-width="1"></path>
    <path d="M22.77 19.13a2.48 2.48 0 0 0 -0.38 0 1.5 1.5 0 0 0 -0.37 0.05c-1.17 0.23 -1.26 0.36 -1.26 0.61s0.08 0.43 1.27 0.63a2.58 2.58 0 0 0 0.38 0l0.38 0c1.21 -0.3 1.21 -0.54 1.21 -0.66 0 -0.39 -1.21 -0.62 -1.23 -0.63Z" fill="#4C57E6" fill-rule="evenodd" stroke-width="1"></path>
  </g>
</svg>