<svg xmlns="http://www.w3.org/2000/svg" viewBox="0 0 24 24" id="Gymnastics-Acrobatic-Hanging-2--Streamline-Freehand">
  <desc>
    Gymnastics Acrobatic Hanging 2 Streamline Icon: https://streamlinehq.com
  </desc>
  <title>gymnastics-acrobatic-hanging-2</title>
  <g>
    <path d="M14 13.44a8.49 8.49 0 0 0 -1.39 -2.08 6.58 6.58 0 0 0 -2.72 -1.7 1.48 1.48 0 0 0 0 -0.23l0.06 -0.76 0 -0.58v-0.42l0 -0.42a0.76 0.76 0 0 0 -0.17 -0.35 1 1 0 0 0 -0.42 -0.22l-0.19 0c0 -0.54 0 -1.46 -0.1 -2.38s-0.22 -2.11 -0.26 -2.6l0 -0.27a0.54 0.54 0 0 0 0 -0.08 0.33 0.33 0 0 0 -0.32 -0.25 0.32 0.32 0 0 0 -0.25 0.1c-0.19 0.18 -0.08 0.68 -0.08 0.82 0 1 0 2.88 -0.07 4.06a3.23 3.23 0 0 0 0 0.44l-1 0 0 -0.64c-0.09 -1.17 -0.24 -3.07 -0.29 -4l0 -0.69c0 -0.08 -0.67 -0.19 -0.7 0.21l0 0.52C6 3 5.91 5.42 5.93 6.48l0 0.21a2.77 2.77 0 0 0 -0.38 0.06 0.62 0.62 0 0 0 -0.38 0.3 1 1 0 0 0 -0.08 0.31l0 0.35v1.22l0.07 0.64 -0.34 0.11a7.35 7.35 0 0 0 -2.57 1.53 10.35 10.35 0 0 0 -1 1.09 5.31 5.31 0 0 0 -0.55 0.89 7.32 7.32 0 0 0 -0.55 1.57 6.06 6.06 0 0 0 -0.15 1.7 6.1 6.1 0 0 0 1.81 3.8 9.49 9.49 0 0 0 3.49 2.26 7.66 7.66 0 0 0 5.08 -0.11A6.06 6.06 0 0 0 14.13 19a8.09 8.09 0 0 0 0.46 -2.77 6.09 6.09 0 0 0 -0.59 -2.79ZM5.85 8.93s0.2 -1.19 0.15 -1.23 2.81 -0.07 3 -0.08c0 0.08 0.17 1.8 0.17 1.8l-0.24 -0.07a5.28 5.28 0 0 0 -1.17 -0.21 7.22 7.22 0 0 0 -1.91 0.25Zm7.38 9.71A5 5 0 0 1 10 21.38a6.64 6.64 0 0 1 -4.33 0.07 8.57 8.57 0 0 1 -3.05 -2 5.06 5.06 0 0 1 -1.56 -3.09 5.15 5.15 0 0 1 0.1 -1.36 6.33 6.33 0 0 1 0.44 -1.38 4.07 4.07 0 0 1 0.4 -0.76 8.34 8.34 0 0 1 0.88 -1 6.44 6.44 0 0 1 2.22 -1.43 7.53 7.53 0 0 1 2.62 -0.58 4.11 4.11 0 0 1 1 0.15 6.36 6.36 0 0 1 3.31 1.88 8.06 8.06 0 0 1 1.21 1.94 5.36 5.36 0 0 1 0.44 2.4 7.21 7.21 0 0 1 -0.45 2.42Z" fill="#020202" stroke-width="1"></path>
    <path d="M23.41 13.37A8.55 8.55 0 0 0 22 11.25a7.16 7.16 0 0 0 -2.1 -1.48 6.44 6.44 0 0 0 -0.74 -0.27v-0.07l0.05 -0.76v-1l0 -0.42A0.67 0.67 0 0 0 19 6.9a0.92 0.92 0 0 0 -0.42 -0.22l-0.19 0c0 -0.54 0 -1.46 -0.1 -2.38s-0.16 -2.07 -0.21 -2.56l0 -0.27 0 -0.08a0.32 0.32 0 0 0 -0.32 -0.25 0.3 0.3 0 0 0 -0.24 0.1c-0.2 0.18 -0.09 0.68 -0.09 0.82 0 1 0 2.88 -0.06 4.06l0 0.44 -1 0 0 -0.64c-0.09 -1.17 -0.24 -3.07 -0.29 -4 0 -0.67 0 -0.62 -0.06 -0.69s-0.54 -0.24 -0.57 0.18l0 0.52c-0.05 1.09 -0.15 3.5 -0.13 4.56a1.41 1.41 0 0 0 0 0.21 3 3 0 0 0 -0.39 0.06 0.62 0.62 0 0 0 -0.38 0.3 0.78 0.78 0 0 0 -0.07 0.31l0 0.35v1.21l0.06 0.65a9.32 9.32 0 0 0 -1 0.43 0.34 0.34 0 0 0 0.3 0.62 8.54 8.54 0 0 1 1.61 -0.56A7.13 7.13 0 0 1 17 9.9a5.62 5.62 0 0 1 1.24 0.26 8.81 8.81 0 0 1 1.2 0.46A6.19 6.19 0 0 1 21.21 12a7.52 7.52 0 0 1 1.19 1.91 5.26 5.26 0 0 1 0.45 2.32 7 7 0 0 1 -0.41 2.41 5.06 5.06 0 0 1 -3.11 2.88 6.81 6.81 0 0 1 -4.46 0.21 0.29 0.29 0 0 0 -0.38 0.18 0.29 0.29 0 0 0 0.18 0.38 7.49 7.49 0 0 0 5 0 6.07 6.07 0 0 0 3.8 -3.29 8 8 0 0 0 0.53 -2.79 6.26 6.26 0 0 0 -0.59 -2.84Zm-5.2 -4.14A5.16 5.16 0 0 0 17 9.07a7.32 7.32 0 0 0 -1.85 0.29l-0.06 0 0 -0.45s0.2 -1.19 0.2 -1.23 2.76 -0.07 2.93 -0.08c0 0.08 0.05 0.53 0.05 0.53l0.08 0.58 0 0.56Z" fill="#020202" stroke-width="1"></path>
    <path d="M10.75 12.58a4.45 4.45 0 0 0 -2.25 -1.24 3.34 3.34 0 0 0 -0.72 -0.14 5 5 0 0 0 -1.78 0.32 4.44 4.44 0 0 0 -1.57 0.94 6.39 6.39 0 0 0 -0.62 0.67 3.62 3.62 0 0 0 -0.35 0.57 4.76 4.76 0 0 0 -0.35 1A4.3 4.3 0 0 0 3 15.76a3.9 3.9 0 0 0 1.1 2.41 5.64 5.64 0 0 0 2.16 1.43 4.6 4.6 0 0 0 3.16 -0.08 3.78 3.78 0 0 0 2.29 -2.2 5.14 5.14 0 0 0 0.29 -1.73 3.86 3.86 0 0 0 -0.39 -1.73 5.25 5.25 0 0 0 -0.86 -1.28Zm0.06 4.42a2.83 2.83 0 0 1 -1.76 1.5 3.57 3.57 0 0 1 -2.39 0A4.71 4.71 0 0 1 5 17.39a2.87 2.87 0 0 1 -0.86 -1.71 3 3 0 0 1 0 -0.79 3.86 3.86 0 0 1 0.24 -0.8 2 2 0 0 1 0.29 -0.51 4.84 4.84 0 0 1 0.42 -0.5 3.51 3.51 0 0 1 1.23 -0.83 3.91 3.91 0 0 1 1.48 -0.36 2.45 2.45 0 0 1 0.7 0.11 3.57 3.57 0 0 1 1.72 1.07 5.11 5.11 0 0 1 0.67 1.14 3.09 3.09 0 0 1 0.22 1.38 4 4 0 0 1 -0.3 1.41Z" fill="#4C57E6" stroke-width="1"></path>
    <path d="M18.36 18.61a3.75 3.75 0 0 1 -2.52 0.18 0.31 0.31 0 0 0 -0.39 0.17 0.3 0.3 0 0 0 0.18 0.39 4.48 4.48 0 0 0 3 0.06 3.73 3.73 0 0 0 2.39 -2.06 5 5 0 0 0 0.33 -1.76 4 4 0 0 0 -0.37 -1.8 5.4 5.4 0 0 0 -0.87 -1.32 4.49 4.49 0 0 0 -1.31 -0.92 5.58 5.58 0 0 0 -1 -0.32 3.23 3.23 0 0 0 -0.75 -0.1 5.41 5.41 0 0 0 -1.08 0.18 5.55 5.55 0 0 0 -1 0.4 0.34 0.34 0 0 0 0.29 0.61 4.83 4.83 0 0 1 0.89 -0.28 3.43 3.43 0 0 1 0.89 -0.08 2.47 2.47 0 0 1 0.67 0.16 4.43 4.43 0 0 1 0.67 0.27 3.43 3.43 0 0 1 1 0.79 4.24 4.24 0 0 1 0.64 1.1 3.06 3.06 0 0 1 0.25 1.31A4.37 4.37 0 0 1 20 17a2.77 2.77 0 0 1 -1.64 1.61Z" fill="#4C57E6" stroke-width="1"></path>
  </g>
</svg>