<svg xmlns="http://www.w3.org/2000/svg" viewBox="0 0 24 24" id="Hair-Skin-1--Streamline-Freehand">
  <desc>
    Hair Skin 1 Streamline Icon: https://streamlinehq.com
  </desc>
  <g>
    <path d="M0.68 14a1.74 1.74 0 0 1 0.73 0c0.6 0.15 1 1 0.37 1.4a1.07 1.07 0 0 1 -1.38 0A1 1 0 0 1 0.68 14Z" fill="#020202" fill-rule="evenodd" stroke-width="1"></path>
    <path d="M11.52 14a1.74 1.74 0 0 1 0.73 0c0.6 0.15 0.95 1 0.37 1.4a1.07 1.07 0 0 1 -1.38 0 1 1 0 0 1 0.28 -1.4Z" fill="#020202" fill-rule="evenodd" stroke-width="1"></path>
    <path d="M21.77 14a1.73 1.73 0 0 1 0.73 0c0.6 0.15 0.95 1 0.37 1.4a1.06 1.06 0 0 1 -1.37 0 1 1 0 0 1 0.27 -1.4Z" fill="#020202" fill-rule="evenodd" stroke-width="1"></path>
    <path d="M3.49 16.85a2 2 0 0 1 0.73 0c0.59 0.15 1 1 0.36 1.4a1.07 1.07 0 0 1 -1.37 0 1 1 0 0 1 0.28 -1.4Z" fill="#020202" fill-rule="evenodd" stroke-width="1"></path>
    <path d="M9.62 16.85a2 2 0 0 1 0.73 0c0.6 0.15 1 1 0.37 1.4a1.07 1.07 0 0 1 -1.37 0 1 1 0 0 1 0.27 -1.4Z" fill="#020202" fill-rule="evenodd" stroke-width="1"></path>
    <path d="M15.91 16.85a2 2 0 0 1 0.73 0c0.59 0.15 0.95 1 0.36 1.4a1.07 1.07 0 0 1 -1.37 0 1 1 0 0 1 0.28 -1.4Z" fill="#020202" fill-rule="evenodd" stroke-width="1"></path>
    <path d="M22.6 16.91a1.73 1.73 0 0 1 0.73 0c0.6 0.15 1 1 0.37 1.4a1.07 1.07 0 0 1 -1.37 0 1 1 0 0 1 0.27 -1.4Z" fill="#020202" fill-rule="evenodd" stroke-width="1"></path>
    <path d="M0.46 19.87a1.74 1.74 0 0 1 0.73 0c0.6 0.15 1 1 0.37 1.4a1.08 1.08 0 0 1 -1.38 0 1 1 0 0 1 0.28 -1.4Z" fill="#020202" fill-rule="evenodd" stroke-width="1"></path>
    <path d="M6.6 19.87a1.74 1.74 0 0 1 0.73 0c0.6 0.15 0.95 1 0.37 1.4a1.08 1.08 0 0 1 -1.38 0 1 1 0 0 1 0.28 -1.4Z" fill="#020202" fill-rule="evenodd" stroke-width="1"></path>
    <path d="M12.88 19.87a1.74 1.74 0 0 1 0.73 0c0.6 0.15 1 1 0.37 1.4a1.08 1.08 0 0 1 -1.38 0 1 1 0 0 1 0.28 -1.4Z" fill="#020202" fill-rule="evenodd" stroke-width="1"></path>
    <path d="M18.72 20a2 2 0 0 1 0.73 0c0.6 0.15 0.95 1 0.37 1.4a1.08 1.08 0 0 1 -1.38 0 1 1 0 0 1 0.28 -1.4Z" fill="#020202" fill-rule="evenodd" stroke-width="1"></path>
    <path d="M8.83 3a12.39 12.39 0 0 0 -1.77 2.6 9.85 9.85 0 0 0 -0.24 4.29l0.37 1.91a1.13 1.13 0 0 1 -0.21 0.91c-0.15 0.16 -0.38 0.15 -0.68 0a1.93 1.93 0 0 1 -1.1 -1.68 10.6 10.6 0 0 1 0.36 -3.28 10.7 10.7 0 0 1 1.37 -3.19A6.83 6.83 0 0 1 8.83 3Zm0.75 0a0.31 0.31 0 0 0 0.2 -0.28 0.31 0.31 0 0 0 -0.2 -0.27 1 1 0 0 0 -0.61 0 2.48 2.48 0 0 0 -0.68 0.24 6.22 6.22 0 0 0 -1 0.74 5.46 5.46 0 0 0 -0.81 0.93A11 11 0 0 0 5 7.23a11.28 11.28 0 0 0 -0.56 3.28 4.6 4.6 0 0 0 0.35 1.92 2.11 2.11 0 0 0 1.08 1.06 1.61 1.61 0 0 0 2 -0.31 2.27 2.27 0 0 0 0.43 -1.78l-0.44 -1.82A8.16 8.16 0 0 1 7.89 6a5.13 5.13 0 0 1 1.69 -3Z" fill="#020202" fill-rule="evenodd" stroke-width="1"></path>
    <path d="M19.5 3a12.76 12.76 0 0 0 -1.76 2.64 9.94 9.94 0 0 0 -0.25 4.28l0.38 1.92a1.18 1.18 0 0 1 -0.21 0.91c-0.15 0.15 -0.38 0.15 -0.68 0a2 2 0 0 1 -1.1 -1.69 10.5 10.5 0 0 1 0.36 -3.27 10.7 10.7 0 0 1 1.37 -3.21A7 7 0 0 1 19.5 3Zm0.76 0a0.31 0.31 0 0 0 0.2 -0.27 0.32 0.32 0 0 0 -0.2 -0.28 1.1 1.1 0 0 0 -0.61 0 2.36 2.36 0 0 0 -0.68 0.24 5.79 5.79 0 0 0 -1 0.74 5.4 5.4 0 0 0 -0.81 0.92 10.9 10.9 0 0 0 -2.07 6.22 4.56 4.56 0 0 0 0.35 1.91 2.09 2.09 0 0 0 1.08 1.07 1.62 1.62 0 0 0 2 -0.31 2.27 2.27 0 0 0 0.48 -1.79l-0.44 -1.82a8.21 8.21 0 0 1 0 -3.58 5.17 5.17 0 0 1 1.69 -3Z" fill="#020202" fill-rule="evenodd" stroke-width="1"></path>
    <path d="M0.48 11.61H0.35c-0.16 0 -0.42 0.57 0.1 0.62l0.65 0a2.61 2.61 0 0 0 0.48 0c0.34 0 0.66 -0.06 1 -0.06l0.14 0a1.52 1.52 0 0 0 0 0.19c0.08 0.26 0.16 0.58 0.27 0.87a2.81 2.81 0 0 0 0.33 0.62A4.15 4.15 0 0 0 6 15.59a4.47 4.47 0 0 0 3.11 -0.71 3.77 3.77 0 0 0 0.89 -0.78 3.18 3.18 0 0 0 0.6 -1.07c0 -0.17 0.12 -0.36 0.16 -0.55l0 -0.09c0 -0.03 0.3 -0.1 0.37 -0.11l0.51 0 1.38 0 0.33 0c0.06 0.34 0.11 0.69 0.2 1a3.86 3.86 0 0 0 0.17 0.55 3.25 3.25 0 0 0 1.55 1.71 3.87 3.87 0 0 0 2.2 0.42 4 4 0 0 0 1.93 -0.71 2.58 2.58 0 0 0 1.1 -1.83l0 -1a4.81 4.81 0 0 0 0.58 -0.13c0.3 0 0.62 -0.06 0.94 -0.07l1.48 0a0.35 0.35 0 1 0 0 -0.69l-1.49 0 -1 0 -0.78 0a0.68 0.68 0 0 0 -0.39 0.18 0.53 0.53 0 0 0 -0.15 0.29 2.4 2.4 0 0 0 0 0.38l-0.07 0.89a1.69 1.69 0 0 1 -0.77 1.17 3 3 0 0 1 -1.47 0.47 2.84 2.84 0 0 1 -1.6 -0.36 2.12 2.12 0 0 1 -1 -1.16 3.68 3.68 0 0 1 -0.15 -0.57c-0.06 -0.31 -0.1 -0.62 -0.16 -0.92a2.24 2.24 0 0 0 0 -0.45 0.58 0.58 0 0 0 -0.18 -0.34A0.66 0.66 0 0 0 14 11a5.64 5.64 0 0 0 -0.89 0.07l-1.39 0a4.77 4.77 0 0 0 -0.66 0 5.93 5.93 0 0 0 -0.77 0.08 0.94 0.94 0 0 0 -0.42 0.23 0.57 0.57 0 0 0 -0.17 0.36 2.13 2.13 0 0 0 0 0.36l-0.13 0.55a2.14 2.14 0 0 1 -0.38 0.69 2.78 2.78 0 0 1 -0.61 0.58 3.44 3.44 0 0 1 -2.37 0.67A3.32 3.32 0 0 1 4 13.44a1.84 1.84 0 0 1 -0.25 -0.44 8 8 0 0 1 -0.29 -0.81c0 -0.06 0 -0.28 -0.06 -0.38a0.43 0.43 0 0 0 -0.11 -0.18 0.53 0.53 0 0 0 -0.3 -0.14 2.49 2.49 0 0 0 -0.41 0l-1.41 0.1 -0.68 0Z" fill="#4C57E6" fill-rule="evenodd" stroke-width="1"></path>
  </g>
</svg>