<svg xmlns="http://www.w3.org/2000/svg" viewBox="0 0 24 24" id="Hair-Dress-Brush--Streamline-Freehand">
  <desc>
    Hair Dress Brush Streamline Icon: https://streamlinehq.com
  </desc>
  <g>
    <path d="M9.26 6.38a0.31 0.31 0 0 1 -0.26 0.08c0.39 0.14 0.34 0.07 0.26 -0.08Zm2.28 2.11a0.27 0.27 0 0 0 -0.07 0.17 0.29 0.29 0 0 1 0.07 -0.17Zm0.39 -0.11c0.08 -0.16 -0.46 -0.56 -0.54 -0.66 -0.23 -0.26 -0.45 -0.52 -0.7 -0.76s-0.24 -0.22 -0.37 -0.32 -0.27 -0.19 -0.41 -0.29 -0.55 -0.47 -0.65 -0.42A0.3 0.3 0 0 0 9 5.82c-0.16 0 -0.47 0.15 -0.22 0.54 0.06 0.1 0.38 0.48 0.45 0.6a7 7 0 0 0 0.51 0.7 5.27 5.27 0 0 0 0.56 0.5 3.71 3.71 0 0 0 0.41 0.28 7.47 7.47 0 0 0 0.83 0.55A0.49 0.49 0 0 0 12 9a0.37 0.37 0 0 0 0.18 -0.32 0.34 0.34 0 0 0 -0.25 -0.3Z" fill="#020202" fill-rule="evenodd" stroke-width="1"></path>
    <path d="M11.2 4.44s0.07 0.14 0.1 0.21 0.14 0.34 0.17 0.39a3 3 0 0 0 0.52 0.6c0.27 0.21 0.58 0.35 0.86 0.55s0.49 0.5 0.6 0.55 0.38 0.09 0.48 0a0.35 0.35 0 0 0 0.11 -0.3 0.37 0.37 0 0 0 -0.13 -0.28c0.09 -0.13 -0.31 -0.53 -0.43 -0.67A6 6 0 0 0 13 5c-0.14 -0.13 -0.28 -0.24 -0.43 -0.36s-0.18 -0.13 -0.27 -0.21a4.13 4.13 0 0 0 -0.51 -0.49 0.67 0.67 0 0 0 -0.42 -0.16c-0.3 0.06 -0.39 0.19 -0.37 0.34a0.33 0.33 0 0 0 0.08 0.26Z" fill="#020202" fill-rule="evenodd" stroke-width="1"></path>
    <path d="M13.39 2.52c-0.09 0.1 0.2 0.34 0.25 0.4a4.76 4.76 0 0 0 0.56 0.63 3.21 3.21 0 0 0 0.48 0.34c0.17 0.11 0.34 0.18 0.5 0.28s0.36 0.36 0.49 0.28a0.34 0.34 0 0 0 0.34 0.27 0.34 0.34 0 0 0 0.34 -0.34 0.64 0.64 0 0 0 -0.11 -0.38 3.43 3.43 0 0 0 -0.45 -0.56 7.8 7.8 0 0 0 -0.57 -0.58c-0.14 -0.12 -0.3 -0.24 -0.45 -0.35l-0.48 -0.28a3.24 3.24 0 0 0 -0.47 -0.3 0.79 0.79 0 0 0 -0.33 -0.1c-0.22 0 -0.33 0.13 -0.33 0.26a0.25 0.25 0 0 0 0 0.17 0.23 0.23 0 0 0 0.12 0.18Z" fill="#020202" fill-rule="evenodd" stroke-width="1"></path>
    <path d="m15.77 0.55 -0.08 0a0.11 0.11 0 0 0 0.08 0Zm-0.12 0c-0.16 0.18 0.39 0.55 0.43 0.61a3.75 3.75 0 0 0 0.49 0.48A3.82 3.82 0 0 0 17 2c0.16 0.11 0.34 0.2 0.5 0.29a3.34 3.34 0 0 1 0.52 0.35c0.08 0.07 0.16 0.11 0.17 0.18a0.35 0.35 0 0 0 0.35 0.35 0.35 0.35 0 0 0 0.34 -0.35c0.06 -0.38 -0.26 -0.87 -0.74 -1.34a4.16 4.16 0 0 0 -0.73 -0.6c-0.29 -0.19 -0.58 -0.3 -0.73 -0.41a3.69 3.69 0 0 0 -0.87 -0.47 0.41 0.41 0 0 0 -0.39 0.1 0.31 0.31 0 0 0 0 0.43 0.3 0.3 0 0 0 0.23 0.05Z" fill="#020202" fill-rule="evenodd" stroke-width="1"></path>
    <path d="M15 9.84a2.63 2.63 0 0 0 -0.38 0.2 0.45 0.45 0 0 0 -0.15 0.31 0.35 0.35 0 0 0 0.24 0.37 0.37 0.37 0 0 0 0.28 0c0.07 0 0.2 -0.1 0.28 -0.12l0.56 -0.26 1.25 -1c0.39 -0.37 0.82 -0.73 1.2 -1.14a9 9 0 0 0 1 -1.35 5.9 5.9 0 0 0 0.51 -0.72 1 1 0 0 0 0.1 -0.38 0.35 0.35 0 0 0 -0.35 -0.34 0.34 0.34 0 0 0 -0.34 0.34l-0.6 0.59a6 6 0 0 1 -0.43 0.45c-0.3 0.29 -0.63 0.55 -0.95 0.83s-0.64 0.58 -1 0.87l-1 1.14Z" fill="#4C57E6" fill-rule="evenodd" stroke-width="1"></path>
    <path d="M21.58 3.68c0 0.26 0.08 0.54 0.1 0.82a0.9 0.9 0 0 1 0 0.4 8.72 8.72 0 0 1 -1 2 9.89 9.89 0 0 1 -1.47 1.66c-1.07 1 -2.05 2.1 -3.13 3.12a14.32 14.32 0 0 1 -1.4 1.18c-0.8 0.58 -1.63 1.23 -2.42 1.91 -0.53 0.47 -1 0.95 -1.5 1.44 -0.74 0.79 -1.5 1.59 -2.29 2.36 -0.52 0.51 -1.06 1 -1.61 1.46S5.6 21.1 4.94 21.61a15.85 15.85 0 0 1 -1.33 0.92 2.1 2.1 0 0 1 -0.61 0.27 0.5 0.5 0 0 1 -0.4 0 0.49 0.49 0 0 1 -0.19 -0.5 4.18 4.18 0 0 1 0.28 -1 14 14 0 0 1 2.44 -2.93c2.7 -2.82 6.57 -6.38 6.8 -6.61a0.76 0.76 0 0 0 0.22 -0.54l0 -0.79c0.16 -0.47 0.16 -1.16 0.33 -1.72a1 1 0 0 1 0.24 -0.45c1.08 -1 2.14 -2.1 3.3 -3.06a17.79 17.79 0 0 1 2.41 -1.71c0.21 -0.12 0.46 -0.3 0.72 -0.45a1.71 1.71 0 0 1 0.41 -0.2 1.85 1.85 0 0 1 0.66 0 3.7 3.7 0 0 1 0.71 0.23 4.27 4.27 0 0 1 0.65 0.61Zm-10.46 7.39c-0.67 0.6 -4.3 3.81 -6.87 6.43a14.46 14.46 0 0 0 -2.71 3.35 4.31 4.31 0 0 0 -0.34 1.63 1.5 1.5 0 0 0 0.73 1.25 1.65 1.65 0 0 0 1 0.21 2.91 2.91 0 0 0 1.2 -0.45 14.76 14.76 0 0 0 1.42 -1c0.67 -0.52 1.32 -1.09 2 -1.63s1.11 -1 1.64 -1.54c0.79 -0.79 1.55 -1.62 2.29 -2.44a20.65 20.65 0 0 1 1.77 -1.72c0.64 -0.56 1.3 -1.09 1.94 -1.58a18 18 0 0 0 1.47 -1.28c1.05 -1 2 -2.18 3.06 -3.18a10.47 10.47 0 0 0 1.54 -1.82 9.77 9.77 0 0 0 1.06 -2.15 1.68 1.68 0 0 0 0.08 -0.54c0 -0.32 -0.12 -0.65 -0.12 -1a0.79 0.79 0 0 0 -0.28 -0.39 4.66 4.66 0 0 0 -0.9 -0.72 3.74 3.74 0 0 0 -1 -0.33 2 2 0 0 0 -0.77 0 2 2 0 0 0 -0.47 0.18c-0.3 0.16 -0.6 0.37 -0.85 0.51a18.47 18.47 0 0 0 -2.56 1.72c-1.19 0.94 -2.3 2 -3.42 3a1.89 1.89 0 0 0 -0.5 0.83c-0.18 0.54 -0.19 1.22 -0.36 1.67a5.21 5.21 0 0 0 -0.05 0.99Z" fill="#020202" fill-rule="evenodd" stroke-width="1"></path>
  </g>
</svg>