<svg xmlns="http://www.w3.org/2000/svg" viewBox="0 0 24 24" id="Halloween-Pumpkin-2--Streamline-Freehand">
  <desc>
    Halloween Pumpkin 2 Streamline Icon: https://streamlinehq.com
  </desc>
  <title>halloween-bat-moon copy</title>
  <g>
    <path d="M23.65 16c0 -0.63 -0.12 -1.26 -0.21 -1.83s-0.15 -0.87 -0.25 -1.31 -0.23 -0.88 -0.37 -1.3a5.45 5.45 0 0 0 -0.37 -0.85c-0.14 -0.25 -0.3 -0.5 -0.47 -0.75A4.39 4.39 0 0 0 21 9a4.47 4.47 0 0 0 -1.21 -0.66 4.79 4.79 0 0 0 -1.91 -0.25 6.92 6.92 0 0 0 -1.77 0.58L15 9.22l-0.13 0.08a6.37 6.37 0 0 0 -0.87 -0.58 4.79 4.79 0 0 0 -1.44 -0.53 3.48 3.48 0 0 0 -1 0.05 5.44 5.44 0 0 0 -1.38 0.42c-0.21 0.12 -0.63 0.43 -0.92 0.65l-0.2 -0.11 -1.15 -0.58A6.38 6.38 0 0 0 6.15 8a4.79 4.79 0 0 0 -1.91 0.25A4.76 4.76 0 0 0 3 9a4.32 4.32 0 0 0 -1 1 7.85 7.85 0 0 0 -0.48 0.75 7.11 7.11 0 0 0 -0.37 0.84c-0.14 0.43 -0.27 0.86 -0.37 1.31s-0.18 0.87 -0.26 1.31 -0.13 1.09 -0.17 1.72a14.52 14.52 0 0 0 0 1.86 7.85 7.85 0 0 0 1 3.36 5.58 5.58 0 0 0 2.57 2.42 3 3 0 0 0 0.58 0.18l0.78 0.13c0.32 0.05 0.64 0.1 1 0.12a3.33 3.33 0 0 0 0.7 0 3.55 3.55 0 0 0 0.86 -0.25 3.43 3.43 0 0 0 0.79 -0.45l0.37 -0.46a12.65 12.65 0 0 0 1.28 0.69 4.62 4.62 0 0 0 3.57 0.16 3.29 3.29 0 0 0 1.22 -0.83l0.41 0.39a3.61 3.61 0 0 0 0.79 0.44 3.55 3.55 0 0 0 0.86 0.25 3.07 3.07 0 0 0 0.68 0 6 6 0 0 0 1 -0.12c0.26 0 0.53 -0.07 0.78 -0.12a3 3 0 0 0 0.58 -0.18 5.56 5.56 0 0 0 2.57 -2.41 7.91 7.91 0 0 0 1 -3.35 12.77 12.77 0 0 0 -0.09 -1.76Zm-1.72 4.78a4.73 4.73 0 0 1 -2.13 2.11 2 2 0 0 1 -0.41 0.13c-0.25 0.06 -0.51 0.09 -0.75 0.14a8.51 8.51 0 0 1 -0.86 0.13 2.44 2.44 0 0 1 -0.54 0 3.29 3.29 0 0 1 -0.7 -0.19 2.66 2.66 0 0 1 -0.64 -0.35l-0.67 -0.57a0.48 0.48 0 0 0 -0.53 0.16 3 3 0 0 1 -1.1 0.82 3.55 3.55 0 0 1 -2.73 -0.16 9.85 9.85 0 0 1 -1.57 -0.86 0.59 0.59 0 0 0 -0.54 -0.07 1.2 1.2 0 0 0 -0.21 0.13c-0.16 0.13 -0.31 0.33 -0.46 0.44a2.8 2.8 0 0 1 -0.63 0.35 4 4 0 0 1 -0.7 0.18 2.35 2.35 0 0 1 -0.53 0 8.46 8.46 0 0 1 -0.86 -0.12c-0.24 -0.05 -0.5 -0.08 -0.74 -0.14a2 2 0 0 1 -0.41 -0.13 4.69 4.69 0 0 1 -2.13 -2.09 7.08 7.08 0 0 1 -0.8 -3A14.52 14.52 0 0 1 1.34 16c0.06 -0.59 0.14 -1.19 0.24 -1.73s0.16 -0.82 0.26 -1.24 0.22 -0.8 0.36 -1.19a4.57 4.57 0 0 1 0.31 -0.67c0.13 -0.22 0.27 -0.43 0.42 -0.65a3.49 3.49 0 0 1 0.76 -0.67 3.24 3.24 0 0 1 0.88 -0.48A3.59 3.59 0 0 1 6 9.19a5.09 5.09 0 0 1 1.46 0.51l0.95 0.49c0.12 0.08 0.28 0.23 0.43 0.31a1 1 0 0 0 0.29 0.09 0.83 0.83 0 0 0 0.54 -0.17c0.24 -0.17 0.76 -0.59 1 -0.72a4 4 0 0 1 0.84 -0.26 2.23 2.23 0 0 1 0.81 -0.08 3.1 3.1 0 0 1 0.86 0.28 5.35 5.35 0 0 1 1.07 0.73 0.77 0.77 0 0 0 0.59 0.23 0.81 0.81 0 0 0 0.29 -0.09c0.15 -0.08 0.31 -0.22 0.43 -0.3l1 -0.5a5.38 5.38 0 0 1 1.44 -0.5 3.51 3.51 0 0 1 1.44 0.18 3.66 3.66 0 0 1 0.89 0.49 3.39 3.39 0 0 1 0.75 0.67c0.15 0.22 0.3 0.42 0.42 0.64a4.25 4.25 0 0 1 0.31 0.68 11 11 0 0 1 0.36 1.19c0.11 0.41 0.19 0.83 0.27 1.24s0.18 1.13 0.24 1.73a14.41 14.41 0 0 1 0 1.72 6.93 6.93 0 0 1 -0.75 2.98Z" fill="#020202" stroke-width="1"></path>
    <path d="M2.06 5.26A4.8 4.8 0 0 0 4 5.71l0.69 0a2.67 2.67 0 0 0 -0.29 1.3 0.31 0.31 0 0 0 0.61 0 2.08 2.08 0 0 1 0.37 -0.92 2.32 2.32 0 0 1 0.75 -0.63 2.91 2.91 0 0 1 1 -0.38 3.09 3.09 0 0 1 1 0 2.21 2.21 0 0 0 -0.46 0.65l-0.48 1.32a0.35 0.35 0 0 0 0.14 0.47 0.36 0.36 0 0 0 0.48 -0.14l0.83 -1a4.11 4.11 0 0 0 0.21 -0.42c0.06 -0.15 0.08 -0.3 0.13 -0.45v-0.1A5.18 5.18 0 0 1 11 7a0.34 0.34 0 0 0 0.48 0.11 0.36 0.36 0 0 0 0.11 -0.49A5.36 5.36 0 0 0 8.39 4l-0.28 0a0.23 0.23 0 0 0 0 -0.11c0 -0.56 0.22 -1.1 0.28 -1.65a3.75 3.75 0 0 0 0 -0.82 1.72 1.72 0 0 0 -0.34 -0.94 1.37 1.37 0 0 0 -0.6 -0.41 1.54 1.54 0 0 0 -1.34 0.21 2.17 2.17 0 0 0 -0.39 0.35 2.07 2.07 0 0 0 -0.53 -0.36A2.17 2.17 0 0 0 4.11 0.12a1.77 1.77 0 0 0 -1.24 0.7 1.67 1.67 0 0 0 -0.33 1 2.26 2.26 0 0 0 -1 0.15 1.4 1.4 0 0 0 -0.75 0.66 1.25 1.25 0 0 0 -0.12 0.76 2.48 2.48 0 0 0 0.33 0.85 2.61 2.61 0 0 0 1.06 1.02Zm-0.33 -2.13C1.79 3 1.92 3 2 3a1.13 1.13 0 0 1 0.52 0l0.3 0.13 0.22 0.14 0.13 0.06c0.52 0.16 0.7 -0.14 0.75 -0.31s-0.06 -0.28 -0.23 -1a0.64 0.64 0 0 1 0.1 -0.46 0.59 0.59 0 0 1 0.43 -0.23 1 1 0 0 1 0.49 0.05 0.66 0.66 0 0 1 0.33 0.27 2.41 2.41 0 0 0 0.43 0.81c0.43 0.44 0.79 0.08 0.84 -0.12a2.7 2.7 0 0 0 0 -0.69 1.06 1.06 0 0 1 0.35 -0.53 0.61 0.61 0 0 1 0.53 -0.12 0.41 0.41 0 0 1 0.24 0.17 1 1 0 0 1 0.16 0.38 2.62 2.62 0 0 1 0 0.62c0 0.56 -0.17 1.11 -0.19 1.67a0.51 0.51 0 0 0 0 0.13 3.11 3.11 0 0 0 -0.6 0.09 3.65 3.65 0 0 0 -1.34 0.69 4.64 4.64 0 0 0 -0.38 0.39L4.07 5a4.79 4.79 0 0 1 -1.36 -0.36 1.86 1.86 0 0 1 -0.87 -0.84 2 2 0 0 1 -0.14 -0.43 0.36 0.36 0 0 1 0.03 -0.24Z" fill="#020202" stroke-width="1"></path>
    <path d="M12.34 6.86a0.3 0.3 0 0 0 0.38 -0.21l0.52 -1.23 0.58 0.12 1.57 0.24 0.32 0 -0.32 1.33a0.35 0.35 0 0 0 0.21 0.45 0.36 0.36 0 0 0 0.45 -0.21c0.26 -0.56 0.49 -1 0.71 -1.46l0.36 0c0.59 0 1.18 0 1.77 0.06l1 0.06 -0.09 0.42a0.35 0.35 0 0 0 0.28 0.41 0.37 0.37 0 0 0 0.41 -0.29l1.06 -3.52a5.83 5.83 0 0 0 0.19 -0.73 1 1 0 0 0 -0.1 -0.58 0.74 0.74 0 0 0 -0.3 -0.28 1.59 1.59 0 0 0 -0.42 -0.14l-1.09 -0.25a11.45 11.45 0 0 0 -1.67 -0.16c-0.79 -0.07 -1.58 -0.07 -2.38 -0.1a9.07 9.07 0 0 0 -1.15 -0.07 1.41 1.41 0 0 0 -0.74 0.25 1.07 1.07 0 0 0 -0.27 0.34c-0.11 0.25 -0.18 0.65 -0.24 0.82l-0.76 2.64 -0.49 1.7a0.32 0.32 0 0 0 0.21 0.39Zm7.23 -4.63 1.21 0.18c0 0.15 -0.76 3 -0.76 3l-1 -0.24c-0.59 -0.11 -1.16 -0.24 -1.75 -0.32 0 -0.11 0.72 -2.74 0.73 -2.75s1.07 0.03 1.57 0.13Zm-5 -0.39 1.1 0.11 1.56 0.05 -0.23 0.43c-0.16 0.33 -0.33 0.64 -0.48 1s-0.19 0.45 -0.28 0.68 -0.15 0.44 -0.22 0.64l-0.57 0 -1.58 0.08 -0.45 0s0.93 -2.43 1.2 -2.99Z" fill="#020202" stroke-width="1"></path>
    <path d="M8.64 15.78a1.73 1.73 0 0 0 1.27 -1.89 0.35 0.35 0 1 0 -0.69 0 0.94 0.94 0 0 1 -0.84 0.85 0.85 0.85 0 0 1 -1 -0.42 0.45 0.45 0 0 1 0 -0.42 0.92 0.92 0 0 1 0.39 -0.48 1.17 1.17 0 0 1 0.31 -0.12c0.51 -0.07 0.8 0.34 1 -0.08a0.31 0.31 0 0 0 -0.1 -0.38 2.31 2.31 0 0 0 -0.32 -0.18 1.81 1.81 0 0 0 -0.57 -0.12 1.77 1.77 0 0 0 -0.6 0.08 1.81 1.81 0 0 0 -1.19 1.1 1.43 1.43 0 0 0 0.08 1.19 1.89 1.89 0 0 0 2.26 0.87Z" fill="#4C57E6" stroke-width="1"></path>
    <path d="M16.2 12.42a2.09 2.09 0 0 0 -1.48 0.1 1.73 1.73 0 0 0 -0.94 0.9 1.92 1.92 0 0 0 3.6 1.35 1.69 1.69 0 0 0 0 -1.27 1.93 1.93 0 0 0 -1.18 -1.08Zm0 2.15a1 1 0 0 1 -0.7 0.45c-0.61 0.06 -1.36 -0.56 -1 -1.23a0.86 0.86 0 0 1 0.51 -0.36 1.28 1.28 0 0 1 0.79 0 0.84 0.84 0 0 1 0.46 0.47 0.62 0.62 0 0 1 -0.07 0.67Z" fill="#4C57E6" stroke-width="1"></path>
    <path d="M17.23 17a0.34 0.34 0 0 0 -0.47 0.13l-1.18 1.52a1.19 1.19 0 0 1 -0.33 0.32 1.91 1.91 0 0 1 -0.47 -0.27c-0.15 -0.09 -1.29 -0.9 -2 -1.3a1.91 1.91 0 0 0 -0.89 -0.29 1.57 1.57 0 0 0 -0.56 0.29c-0.33 0.25 -0.9 0.72 -1.42 1.1a2.75 2.75 0 0 1 -0.81 0.51 1.69 1.69 0 0 1 -0.57 -0.22 15.06 15.06 0 0 1 -2 -1.26 0.31 0.31 0 0 0 -0.42 0.08 0.34 0.34 0 0 0 0.06 0.43 18 18 0 0 0 2.24 1.68 1.68 1.68 0 0 0 0.81 0.27 3 3 0 0 0 1.16 -0.46A20.08 20.08 0 0 0 12 18.37c0.67 0.31 2.06 1.15 2.23 1.24a1.81 1.81 0 0 0 1.08 0.32c0.31 0 0.6 -0.23 0.94 -0.73l1.08 -1.7a0.34 0.34 0 0 0 -0.1 -0.5Z" fill="#4C57E6" stroke-width="1"></path>
  </g>
</svg>