<svg xmlns="http://www.w3.org/2000/svg" viewBox="0 0 24 24" id="Hardware-Hammer-Nail--Streamline-Freehand">
  <desc>
    Hardware Hammer Nail Streamline Icon: https://streamlinehq.com
  </desc>
  <g>
    <path d="M19.38 7.71a3.14 3.14 0 0 0 -0.63 -1 2.34 2.34 0 0 0 -1 -0.63 1.08 1.08 0 0 0 -0.46 0 1.45 1.45 0 0 0 -0.53 0.26c-0.06 0 -0.34 0.2 -0.55 0.34l0 -0.07c-0.88 -1.13 -1.63 -2.28 -2.53 -3.34a11.92 11.92 0 0 0 -2.1 -2A6.89 6.89 0 0 0 9.28 0.13 4.05 4.05 0 0 0 7.51 0.07a5.8 5.8 0 0 0 -0.84 0.24 6.86 6.86 0 0 0 -0.78 0.35 7.34 7.34 0 0 0 -1.53 1 2.76 2.76 0 0 0 -0.8 1.14 1 1 0 0 0 0.16 1 2.17 2.17 0 0 0 0.82 0.52c0.5 0.2 1 0.27 1.53 0.44a1.62 1.62 0 0 1 0.65 0.39 0.57 0.57 0 0 1 0.17 0.36 1.51 1.51 0 0 1 -0.08 0.58c0 0.13 -0.13 0.33 -0.16 0.5a1 1 0 0 0 0 0.17c-0.91 0.62 -1.86 1.2 -2.76 1.85a12.3 12.3 0 0 0 -1 0.77c-0.32 0.27 -0.62 0.56 -0.92 0.86L0.89 11.38c-0.05 0.06 -0.39 0.28 -0.31 0.39a0.28 0.28 0 0 0 -0.19 0.29 0.31 0.31 0 0 0 0.31 0.29 0.51 0.51 0 0 0 0.3 -0.13 4.83 4.83 0 0 0 0.37 -0.33L2.64 11c0.32 -0.25 0.66 -0.47 1 -0.72 0.49 -0.37 1 -0.75 1.45 -1.14C5.72 8.55 6.35 8 7 7.41c0.1 0.12 0.22 0.23 0.3 0.32L8.4 9.1a7.29 7.29 0 0 1 0.37 0.74c-1.16 0.82 -2.36 1.57 -3.51 2.41a28.87 28.87 0 0 0 -2.43 2l-1.8 1.85 -0.9 1.1c0 0.09 0.13 0.61 0.48 0.35 0.17 -0.12 0 0 1 -0.89l2 -1.59c0.49 -0.41 1 -0.79 1.5 -1.19l1.5 -1.2c1 -0.78 1.93 -1.57 2.87 -2.4a0.77 0.77 0 0 0 0.22 0c0.32 0 0.8 -0.3 1 -0.31a1.11 1.11 0 0 1 0.56 0.08 6.2 6.2 0 0 1 0.93 0.56 0.48 0.48 0 0 0 0.53 0c0.19 -0.13 0.64 -0.56 0.67 -0.58l2.25 -1.93 1.54 -1.21a0.58 0.58 0 0 1 0.23 -0.1 0.24 0.24 0 0 1 0.14 0 1.52 1.52 0 0 1 0.63 0.49 2.11 2.11 0 0 1 0.37 0.75 1.22 1.22 0 0 1 -0.17 1.06 6.7 6.7 0 0 1 -1.55 1.45L14.86 12a5.16 5.16 0 0 1 -1.11 0.77 1.24 1.24 0 0 1 -0.7 0.07 1.91 1.91 0 0 1 -0.94 -0.52 1.87 1.87 0 0 1 -0.56 -1 0.35 0.35 0 0 0 -0.4 -0.28 0.34 0.34 0 0 0 -0.27 0.4 2.85 2.85 0 0 0 2 2.19 2 2 0 0 0 1.23 0 5.8 5.8 0 0 0 1.4 -0.79c0.41 -0.28 0.82 -0.54 1.22 -0.82s0.54 -0.4 0.8 -0.61a7.25 7.25 0 0 0 1.75 -1.79 2.14 2.14 0 0 0 0.1 -1.91Zm-4.21 -0.15L12.83 9.4a3.74 3.74 0 0 0 -0.56 0.33 4.18 4.18 0 0 0 -0.74 -0.47 2 2 0 0 0 -0.94 -0.18 2.22 2.22 0 0 0 -1 0.16l-0.38 -0.76 -1.09 -1.43 -0.31 -0.34a1.23 1.23 0 0 0 0.08 -0.37A2.42 2.42 0 0 0 8 5.16a1.6 1.6 0 0 0 -0.43 -0.82 2.48 2.48 0 0 0 -0.82 -0.57c-0.55 -0.25 -1.18 -0.3 -1.76 -0.54 -0.09 0 -0.2 -0.17 -0.29 -0.2a1.87 1.87 0 0 1 0.44 -0.54 6.65 6.65 0 0 1 1.29 -0.87c0.21 -0.11 0.42 -0.22 0.64 -0.31a4 4 0 0 1 0.67 -0.21 3.1 3.1 0 0 1 1.66 0.09A7.26 7.26 0 0 1 11 2a11.43 11.43 0 0 1 2 1.76c0.92 1 1.7 2.13 2.61 3.23a0.39 0.39 0 0 0 0.1 0.08Z" fill="#020202" stroke-width="1"></path>
    <path d="M19.22 16.89a0.34 0.34 0 1 0 -0.5 0.46 0.72 0.72 0 0 1 0.17 0.43 1.66 1.66 0 0 1 -0.08 0.55 1.48 1.48 0 0 1 -0.12 0.29 0.69 0.69 0 0 1 -0.16 0.18 0.92 0.92 0 0 1 -0.35 0.14 7.22 7.22 0 0 1 -0.76 0.1q-0.72 0.08 -1.47 0.09a20.23 20.23 0 0 1 -2.21 0 1.54 1.54 0 0 1 -0.61 -0.12 0.4 0.4 0 0 1 -0.25 -0.26 0.79 0.79 0 0 1 0.33 -1.06 7.07 7.07 0 0 1 2.64 -0.72l0.68 -0.07 0.67 0a0.3 0.3 0 1 0 0.06 -0.59 6.15 6.15 0 0 0 -0.74 -0.06l-0.73 0a7.92 7.92 0 0 0 -3.09 0.56 1.76 1.76 0 0 0 -0.89 2.3 1.46 1.46 0 0 0 0.63 0.81 2.45 2.45 0 0 0 1.24 0.34l0.66 0a5.56 5.56 0 0 0 0 0.75 7.69 7.69 0 0 0 0.2 1.15 5.5 5.5 0 0 0 0.46 1.09 2.39 2.39 0 0 0 0.45 0.54 0.92 0.92 0 0 0 0.55 0.21 0.74 0.74 0 0 0 0.68 -0.35 3.14 3.14 0 0 0 0.31 -1c0.08 -0.52 0.18 -1.11 0.23 -1.69l0 -0.94 0.33 0a5.81 5.81 0 0 0 0.86 -0.19 1.71 1.71 0 0 0 0.64 -0.34 1.12 1.12 0 0 0 0.29 -0.36 2 2 0 0 0 0.21 -0.55 2.13 2.13 0 0 0 0 -1 1.5 1.5 0 0 0 -0.33 -0.69Zm-2.84 3.93c-0.13 0.54 -0.31 1.09 -0.46 1.58a0.71 0.71 0 0 0 0 0.12 4.68 4.68 0 0 1 -0.4 -0.73 7.57 7.57 0 0 1 -0.37 -1 3.13 3.13 0 0 0 -0.08 -0.61l0.58 0c0.2 0 0.58 -0.08 0.87 -0.11 -0.06 0.27 -0.08 0.5 -0.14 0.75Z" fill="#020202" stroke-width="1"></path>
    <path d="M9.08 17.36a7.67 7.67 0 0 1 0.91 0.42 0.35 0.35 0 0 0 0.48 0 0.34 0.34 0 0 0 0 -0.48 3.68 3.68 0 0 0 -0.82 -0.87 3.37 3.37 0 0 0 -0.38 -0.28 4.11 4.11 0 0 0 -0.39 -0.15c-0.48 -0.19 -0.9 -0.25 -1 -0.31a0.31 0.31 0 0 0 -0.42 0.06 0.3 0.3 0 0 0 0.06 0.42 5.65 5.65 0 0 0 1 0.86 3.79 3.79 0 0 0 0.56 0.33Z" fill="#4C57E6" stroke-width="1"></path>
    <path d="M23.75 19.94a5.86 5.86 0 0 0 -1 -0.84 4.83 4.83 0 0 0 -0.64 -0.33 6.94 6.94 0 0 1 -0.91 -0.39 0.35 0.35 0 0 0 -0.48 0 0.34 0.34 0 0 0 0 0.48 3.63 3.63 0 0 0 0.84 0.85A2.7 2.7 0 0 0 22 20a2.67 2.67 0 0 0 0.42 0.2c0.49 0.18 0.91 0.23 1 0.28a0.3 0.3 0 0 0 0.35 -0.49Z" fill="#4C57E6" stroke-width="1"></path>
    <path d="M10.15 19.45c-0.24 0.08 -0.53 0.15 -0.83 0.27a2.11 2.11 0 0 0 -0.34 0.16 1.61 1.61 0 0 0 -0.3 0.21 6.22 6.22 0 0 0 -0.63 0.65 0.3 0.3 0 0 0 -0.11 0.41 0.3 0.3 0 0 0 0.41 0.1 8.54 8.54 0 0 0 0.87 -0.25 1.54 1.54 0 0 0 0.34 -0.17 1.66 1.66 0 0 0 0.3 -0.22 7.93 7.93 0 0 0 0.65 -0.62 0.34 0.34 0 1 0 -0.36 -0.57Z" fill="#4C57E6" stroke-width="1"></path>
    <path d="M21 16.72c0.24 -0.1 0.53 -0.17 0.83 -0.3l0.33 -0.16a2.32 2.32 0 0 0 0.3 -0.22 5.89 5.89 0 0 0 0.61 -0.67 0.3 0.3 0 1 0 -0.32 -0.5 6.79 6.79 0 0 0 -0.86 0.24 2.55 2.55 0 0 0 -0.33 0.17 2.37 2.37 0 0 0 -0.3 0.23c-0.25 0.22 -0.45 0.45 -0.63 0.64a0.34 0.34 0 1 0 0.37 0.57Z" fill="#4C57E6" stroke-width="1"></path>
  </g>
</svg>