<svg xmlns="http://www.w3.org/2000/svg" viewBox="0 0 24 24" id="Hat-Feather--Streamline-Freehand">
  <desc>
    Hat Feather Streamline Icon: https://streamlinehq.com
  </desc>
  <g>
    <path d="M2.33 18.74a16 16 0 0 0 6.87 1.8 27.69 27.69 0 0 0 3 0.07c1 0 2 -0.12 3 -0.24C18.4 20 21.05 19.09 22 18a0.34 0.34 0 1 0 -0.49 -0.48c-0.83 0.83 -2.91 1.34 -5.4 1.64 -1.23 0.15 -2.56 0.23 -3.91 0.26l-2.94 0a16.36 16.36 0 0 1 -6.63 -1.22 0.31 0.31 0 0 0 -0.41 0.11 0.3 0.3 0 0 0 0.11 0.43Z" fill="#020202" stroke-width="1"></path>
    <path d="M14.44 11.2a0.32 0.32 0 0 0 0.31 0.3 0.31 0.31 0 0 0 0.3 -0.31 9.66 9.66 0 0 1 0.69 -3.66 9.52 9.52 0 0 1 2.06 -3.06 11.14 11.14 0 0 1 2.36 -1.87 8.78 8.78 0 0 1 2.17 -1l0.25 -0.06 0.06 0.29a9.46 9.46 0 0 1 0.24 1.83 8.53 8.53 0 0 1 0 1.47 12.67 12.67 0 0 1 -1.3 0.37l-0.25 0A0.49 0.49 0 0 0 21 6a0.48 0.48 0 0 0 0.1 0.37 7 7 0 0 1 0.47 0.72 1.56 1.56 0 0 1 0.28 0.63 6.16 6.16 0 0 1 -1.28 1.91 25.62 25.62 0 0 1 -2.67 2.79 0.34 0.34 0 0 0 0.45 0.52 27.49 27.49 0 0 0 3.25 -3.23 5.17 5.17 0 0 0 1.15 -1.9 1.86 1.86 0 0 0 -0.18 -0.76c-0.08 -0.19 -0.18 -0.39 -0.28 -0.58a4.81 4.81 0 0 0 0.94 -0.22 1.05 1.05 0 0 0 0.57 -0.45 9.57 9.57 0 0 0 0.08 -3.61A4 4 0 0 0 23.5 0.92a1.06 1.06 0 0 0 -0.5 -0.45 1.21 1.21 0 0 0 -0.55 0 7.48 7.48 0 0 0 -2.31 0.87 11.5 11.5 0 0 0 -3.09 2.5 10.2 10.2 0 0 0 -2.63 7.39Z" fill="#4C57E6" stroke-width="1"></path>
    <path d="M19.24 6.88a0.29 0.29 0 0 0 -0.41 0.09 28.29 28.29 0 0 0 -1.91 2.89c-0.24 0.43 -0.45 0.88 -0.65 1.34s-0.36 0.91 -0.52 1.39A25.2 25.2 0 0 0 15 16a0.34 0.34 0 0 0 0.26 0.41 0.35 0.35 0 0 0 0.41 -0.26c0.28 -0.95 0.62 -1.84 1 -2.71s0.71 -1.64 1.06 -2.44c0.54 -1.24 1.05 -2.46 1.7 -3.67a0.3 0.3 0 0 0 -0.19 -0.45Z" fill="#4C57E6" stroke-width="1"></path>
    <path d="M3.73 17.38c0.17 0.08 0.41 0.13 0.45 -0.15l0 -0.4c0.11 -0.95 0.36 -3.19 0.46 -3.94 0.16 -1.2 0.34 -2.42 0.52 -3.63s0.37 -2.42 0.63 -3.59c0.09 -0.43 0.16 -1 0.32 -1.58a1.34 1.34 0 0 1 0.35 -0.68 2.32 2.32 0 0 1 0.68 -0.18c0.93 -0.19 2.4 -0.37 3.88 -0.51a36.32 36.32 0 0 1 4.87 -0.21 0.34 0.34 0 0 0 0.39 -0.29 0.35 0.35 0 0 0 -0.28 -0.39 47.65 47.65 0 0 0 -7 0.1 17.13 17.13 0 0 0 -2.43 0.3 2 2 0 0 0 -0.79 0.31 2.17 2.17 0 0 0 -0.62 0.92 11.43 11.43 0 0 0 -0.46 2c-0.19 1 -0.36 1.94 -0.48 2.94 -0.18 1.47 -0.28 3 -0.39 4.42 -0.05 0.76 -0.17 3 -0.23 4l0 0.4a0.19 0.19 0 0 0 0 0.08 0.13 0.13 0 0 0 0.13 0.08Z" fill="#020202" stroke-width="1"></path>
    <path d="M11.73 15.75c-0.44 0 -1.06 -0.05 -1.77 -0.06s-1.18 0 -1.78 0c-1.1 0 -2.16 0.13 -2.83 0.11 -0.19 0 -0.75 -0.17 -0.9 -0.06a0.3 0.3 0 0 0 -0.07 0.42 0.83 0.83 0 0 0 0.44 0.25 14.53 14.53 0 0 0 2.63 0.38c0.7 0 1.46 0.06 2.16 0 0.87 0 1.65 -0.13 2.17 -0.19l1.48 -0.2a0.36 0.36 0 0 0 0.31 -0.37 0.35 0.35 0 0 0 -0.38 -0.31Z" fill="#020202" stroke-width="1"></path>
    <path d="M19.48 15.38a1.6 1.6 0 0 0 -0.05 -0.21 7.68 7.68 0 0 0 -0.38 -0.79 0.3 0.3 0 0 0 -0.33 -0.26 0.31 0.31 0 0 0 -0.27 0.33 5.65 5.65 0 0 0 -0.12 0.89l0 0.22a2.71 2.71 0 0 0 0.09 0.41 4.83 4.83 0 0 0 0.26 0.61l0.09 0.21a0.41 0.41 0 0 0 0 0.09c0.09 0.1 0.72 0.78 0.69 -1.12a3 3 0 0 0 0.02 -0.38Z" fill="#020202" stroke-width="1"></path>
    <path d="M23.31 17.31a0.34 0.34 0 0 0 -0.48 0.09 0.34 0.34 0 0 0 0.08 0.47 0.68 0.68 0 0 1 0.18 0.74 3.14 3.14 0 0 1 -0.71 1.4 5.56 5.56 0 0 1 -1.94 1.28 15.63 15.63 0 0 1 -3.53 0.89 24 24 0 0 1 -2.63 0.2c-1.74 0.06 -3.49 0 -4 0a31.43 31.43 0 0 1 -3.36 -0.11 12.24 12.24 0 0 1 -2.16 -0.39 8.35 8.35 0 0 1 -2 -0.81A10.83 10.83 0 0 1 1 19.81a1.13 1.13 0 0 1 -0.25 -1.18c0.12 -0.38 0.41 -0.7 0.77 -0.44a0.3 0.3 0 0 0 0.37 -0.48 1 1 0 0 0 -1.6 0.34 1.91 1.91 0 0 0 0.19 2.31 11 11 0 0 0 1.8 1.48 8.73 8.73 0 0 0 2.13 1 13.32 13.32 0 0 0 2.33 0.53 27.2 27.2 0 0 0 3.49 0.18c0.55 0 2.33 0 4.09 -0.06a22.28 22.28 0 0 0 2.76 -0.31 15.85 15.85 0 0 0 3.72 -1.1 6.37 6.37 0 0 0 2.2 -1.54 4.06 4.06 0 0 0 0.84 -1.81 1.37 1.37 0 0 0 -0.53 -1.42Z" fill="#020202" stroke-width="1"></path>
  </g>
</svg>