<svg xmlns="http://www.w3.org/2000/svg" viewBox="0 0 24 24" id="Hat-Sombrero--Streamline-Freehand">
  <desc>
    Hat Sombrero Streamline Icon: https://streamlinehq.com
  </desc>
  <g>
    <path d="M23.94 18a0.91 0.91 0 0 0 -0.48 -0.59 2.29 2.29 0 0 0 -0.89 -0.2 12.27 12.27 0 0 0 -1.7 0.07l-3.18 0.27c-0.29 -2.3 -0.54 -4.46 -0.84 -6.66 -0.22 -1.52 -0.47 -3.06 -0.78 -4.68a31 31 0 0 0 -0.64 -3.34A5.17 5.17 0 0 0 14.22 0.71a3.37 3.37 0 0 0 -0.36 -0.3 2.5 2.5 0 0 0 -0.39 -0.23 2.14 2.14 0 0 0 -2.59 0.35 8.49 8.49 0 0 0 -1.74 2.9A25.17 25.17 0 0 0 8.27 6c-0.36 1.26 -0.66 2.54 -1 3.8a39.59 39.59 0 0 0 -1.06 4.83A18.52 18.52 0 0 0 6 17.74l-1.9 -0.09a17.29 17.29 0 0 0 -2.28 0A6.28 6.28 0 0 0 0.28 18a0.31 0.31 0 0 0 -0.18 0.39 0.37 0.37 0 0 0 -0.1 0.23 9.39 9.39 0 0 0 0 1.06 5.85 5.85 0 0 0 0.07 0.72 5.36 5.36 0 0 0 0.26 1.12 3.38 3.38 0 0 0 0.36 0.74 2.83 2.83 0 0 0 1 0.84 5.49 5.49 0 0 0 1.68 0.53 10.42 10.42 0 0 0 1.37 0.14c1 0.06 2.05 0 3.07 0.08l4.09 0.15a36.35 36.35 0 0 0 5.22 0 14.66 14.66 0 0 0 3.49 -0.67l1.07 -0.33a3.14 3.14 0 0 0 1.81 -1.4 4.67 4.67 0 0 0 0.51 -2.16 4.9 4.9 0 0 0 -0.06 -1.44Zm-17 -3.31A38.76 38.76 0 0 1 8.15 10c0.39 -1.24 0.74 -2.5 1.14 -3.75a25.39 25.39 0 0 1 0.89 -2.39 7.52 7.52 0 0 1 1.47 -2.46 1.07 1.07 0 0 1 1.29 -0.19l0.46 0.32a4.22 4.22 0 0 1 0.95 1.69c0.34 1.06 0.47 2.22 0.69 3.22 0.36 1.56 0.66 3.1 0.96 4.56 0.38 2.17 0.68 4.31 1 6.58l-0.52 0c-1 0.06 -2.09 0.1 -3.14 0.13l-3.15 0.05 -2.43 0 -1.12 -0.05a17.63 17.63 0 0 1 0.28 -3.01ZM22.47 21a1.82 1.82 0 0 1 -1 1l-1.23 0.51c-0.35 0.12 -2.08 0.94 -8.25 0.49 -8.55 -0.07 -7.87 -0.06 -8.48 -0.15a5.69 5.69 0 0 1 -1.23 -0.31 2 2 0 0 1 -0.91 -0.69 2.73 2.73 0 0 1 -0.37 -0.74 5.9 5.9 0 0 1 -0.2 -0.83 5.56 5.56 0 0 1 -0.08 -0.8l0 -0.83a0.32 0.32 0 0 0 0 -0.17 5 5 0 0 1 1.19 -0.19c0.65 0 -0.52 -0.06 5.85 0.33a54.63 54.63 0 0 0 6.26 0.13l2.54 0c6.06 -0.39 5.47 -0.35 5.77 -0.35a3.33 3.33 0 0 1 0.46 0 8 8 0 0 1 0 1 3.49 3.49 0 0 1 -0.32 1.6Z" fill="#020202" fill-rule="evenodd" stroke-width="1"></path>
    <path d="m19.09 20.54 1.46 -1.12c0.37 -0.27 -0.55 -0.38 -0.92 -0.05l-1.11 0.76 -1.39 1.11a10.18 10.18 0 0 1 -0.88 0.78 2.22 2.22 0 0 1 -0.27 0.19l-0.7 -0.64 -2.26 -2 -0.26 -0.23a2 2 0 0 0 -2.46 0l-0.3 0.16c-0.57 0.4 -1.17 0.78 -1.74 1.17 -0.4 0.27 -0.79 0.55 -1.16 0.84l-0.87 0.59 -1.61 -1.8 -1 -1.23c-0.32 -0.28 -0.92 -0.32 -0.75 0L4 20.59c0.27 0.36 0.9 1.21 1.32 1.72a1.39 1.39 0 0 0 2.05 0l0.47 -0.29 3 -1.92c0.08 -0.05 0.65 -0.48 0.74 -0.41s0.42 0.31 0.55 0.42l1.38 1.17c0.32 0.26 0.65 0.52 1 0.76l0.69 0.56a1.34 1.34 0 0 0 1.93 -0.19c0.28 -0.26 0.57 -0.64 0.72 -0.78Z" fill="#4C57E6" fill-rule="evenodd" stroke-width="1"></path>
  </g>
</svg>