<svg xmlns="http://www.w3.org/2000/svg" viewBox="0 0 24 24" id="Health-Activity-Deep-Sleep-1--Streamline-Freehand">
  <desc>
    Health Activity Deep Sleep 1 Streamline Icon: https://streamlinehq.com
  </desc>
  <g>
    <path d="m12 7.1 1.54 -0.1h0.94s0.29 0 0.54 -0.06l-0.18 0.2a7.42 7.42 0 0 1 -0.63 0.78c-0.35 0.39 -0.73 0.77 -1.11 1.12a9.63 9.63 0 0 0 -0.8 0.75 0.72 0.72 0 0 0 -0.16 0.51 0.76 0.76 0 0 0 0.39 0.56 3.84 3.84 0 0 0 0.92 0.3 7 7 0 0 0 1.37 0.09c0.64 0 1.3 -0.11 1.93 -0.18a0.37 0.37 0 0 0 0.34 -0.39 0.37 0.37 0 0 0 -0.39 -0.34l-1.87 0a5.32 5.32 0 0 1 -1.14 -0.18l-0.15 0 0.38 -0.21a13.47 13.47 0 0 0 1.2 -1.19 7.11 7.11 0 0 0 0.71 -1 3.12 3.12 0 0 0 0.35 -0.71 1 1 0 0 0 0 -0.63 0.63 0.63 0 0 0 -0.47 -0.42 6.26 6.26 0 0 0 -1.23 0l-1 0.12 -1.56 0.3a0.32 0.32 0 0 0 -0.27 0.36 0.32 0.32 0 0 0 0.35 0.32Z" fill="#4C57E6" fill-rule="evenodd" stroke-width="1"></path>
    <path d="M19 17.67a0.38 0.38 0 0 0 -0.42 0.29 6.12 6.12 0 0 1 -3.46 4 8 8 0 0 1 -2.08 0.67 6.79 6.79 0 0 1 -3.2 -0.12A6.36 6.36 0 0 1 7 20.82a6.56 6.56 0 0 1 -1.72 -3 0.32 0.32 0 1 0 -0.62 0.13 7.3 7.3 0 0 0 1.65 3.47 7.43 7.43 0 0 0 3.23 2.22 7.6 7.6 0 0 0 3.79 0.17 8.67 8.67 0 0 0 2.3 -0.81 7 7 0 0 0 3.66 -4.86 0.36 0.36 0 0 0 -0.29 -0.47Z" fill="#020202" fill-rule="evenodd" stroke-width="1"></path>
    <path d="M12.91 20a2 2 0 0 1 -0.36 0.17 0.36 0.36 0 0 0 -0.23 0.46 0.37 0.37 0 0 0 0.46 0.23 2.78 2.78 0 0 0 0.57 -0.21 1.66 1.66 0 0 0 0.39 -0.26 1.36 1.36 0 0 0 0.37 -1.79 2.64 2.64 0 0 0 -2.22 -1.26 3.34 3.34 0 0 0 -1.94 1 1.52 1.52 0 0 0 -0.4 1.64 1.7 1.7 0 0 0 0.83 0.86 3.31 3.31 0 0 0 1.48 0.25 0.31 0.31 0 0 0 0.33 -0.3 0.32 0.32 0 0 0 -0.31 -0.34 2.65 2.65 0 0 1 -0.93 -0.26 0.77 0.77 0 0 1 -0.45 -0.54c0 -0.1 0 -0.19 0.09 -0.28A1.55 1.55 0 0 1 11 19a2.34 2.34 0 0 1 1 -0.45 1.51 1.51 0 0 1 1.09 0.4 0.54 0.54 0 0 1 0.08 0.84 0.82 0.82 0 0 1 -0.26 0.21Z" fill="#020202" fill-rule="evenodd" stroke-width="1"></path>
    <path d="M23.13 11.4a2.16 2.16 0 0 0 -1.06 -0.77 4.61 4.61 0 0 0 -1.65 -0.12 0.25 0.25 0 0 0 -0.12 0 5.23 5.23 0 0 0 -2 -1.65 0.38 0.38 0 0 0 -0.49 0.18 0.37 0.37 0 0 0 0.19 0.48 4.31 4.31 0 0 1 2.16 2.11 3.76 3.76 0 0 1 0 2.93 3.11 3.11 0 0 1 -0.51 0.88 1.82 1.82 0 0 1 -0.71 0.55 2.37 2.37 0 0 1 -1.7 -0.07 24.3 24.3 0 0 1 -2.56 -1.35 5.13 5.13 0 0 0 -2.12 -0.57 4.92 4.92 0 0 0 -2.62 0.73 15.06 15.06 0 0 1 -2.07 1.07 2.78 2.78 0 0 1 -1.7 0.08A3 3 0 0 1 4 13.8a2.92 2.92 0 0 1 0.74 -2.92 6.44 6.44 0 0 1 3.07 -1.82 12.36 12.36 0 0 1 3.72 -0.33 0.33 0.33 0 0 0 0.34 -0.31 0.32 0.32 0 0 0 -0.3 -0.33 12.25 12.25 0 0 0 -4.74 0.43A7.4 7.4 0 0 0 4 10.21a3.61 3.61 0 0 0 -0.49 0.62 0.31 0.31 0 0 0 -0.29 -0.22 3.24 3.24 0 0 0 -1.39 0.14 2.21 2.21 0 0 0 -0.88 0.59 2.07 2.07 0 0 0 -0.41 1.06 1.64 1.64 0 0 0 0.35 1.17 1.92 1.92 0 0 0 2 0.63s0.06 0 0.08 0A4.14 4.14 0 0 0 5.85 17a3.93 3.93 0 0 0 2.41 -0.07 15.09 15.09 0 0 0 2.26 -1.16 3.94 3.94 0 0 1 2 -0.6 4.26 4.26 0 0 1 1.63 0.5A22.7 22.7 0 0 0 16.87 17a3.32 3.32 0 0 0 2.44 0 2.54 2.54 0 0 0 0.92 -0.67 3.78 3.78 0 0 0 0.77 -1.41 4.23 4.23 0 0 0 0.17 -0.68 0.34 0.34 0 0 0 0.23 0.11 1.66 1.66 0 0 0 1.81 -0.87 2.1 2.1 0 0 0 -0.08 -2.08ZM1.81 13a0.65 0.65 0 0 1 -0.06 -0.34 1 1 0 0 1 0.19 -0.55 1.26 1.26 0 0 1 0.5 -0.52 3 3 0 0 1 0.83 -0.29 3.89 3.89 0 0 0 -0.42 2.25l-0.06 0a1 1 0 0 1 -0.98 -0.55Zm20.39 0.26a0.91 0.91 0 0 1 -0.74 0.42 0.33 0.33 0 0 0 -0.19 0.06 4.42 4.42 0 0 0 -0.4 -2.37 5.1 5.1 0 0 1 0.63 0.2 1.29 1.29 0 0 1 0.63 0.57 1.12 1.12 0 0 1 0.18 0.57 1 1 0 0 1 -0.11 0.5Z" fill="#020202" fill-rule="evenodd" stroke-width="1"></path>
    <path d="M15.89 1.17a11.55 11.55 0 0 1 1.31 -0.1l2 0 0.88 0a4.91 4.91 0 0 1 -0.5 0.65c-0.57 0.69 -1.29 1.33 -1.82 1.87l-1 1.11 -0.29 0.35a0.65 0.65 0 0 0 0 0.79 1.58 1.58 0 0 0 0.88 0.42 9.36 9.36 0 0 0 1.55 0l1.55 0a7.63 7.63 0 0 0 1.18 -0.18c0.38 -0.09 0.76 -0.2 1.13 -0.32a0.37 0.37 0 0 0 0.24 -0.4 0.38 0.38 0 0 0 -0.46 -0.25 7.84 7.84 0 0 1 -1.07 0.23 6.32 6.32 0 0 1 -1.06 0.09L19 5.36c-0.23 0 -0.64 0 -1 -0.07l0.75 -0.81a25.55 25.55 0 0 0 1.87 -2 4.24 4.24 0 0 0 0.81 -1.75 0.53 0.53 0 0 0 -0.11 -0.5 0.57 0.57 0 0 0 -0.32 -0.18c-0.07 0 -0.37 -0.11 -0.35 0h-0.32l-1.14 0.11c-0.68 0 -1.36 0.09 -2 0.17 -0.46 0 -0.91 0.11 -1.37 0.2a0.32 0.32 0 0 0 -0.25 0.37 0.32 0.32 0 0 0 0.32 0.27Z" fill="#4C57E6" fill-rule="evenodd" stroke-width="1"></path>
  </g>
</svg>