<svg xmlns="http://www.w3.org/2000/svg" viewBox="0 0 24 24" id="Health-Activity-Clear-Day--Streamline-Freehand">
  <desc>
    Health Activity Clear Day Streamline Icon: https://streamlinehq.com
  </desc>
  <g>
    <path d="M21.22 6.21a1.18 1.18 0 0 0 -0.17 -0.21 0.83 0.83 0 0 0 -0.21 -0.16 3.46 3.46 0 0 0 -0.6 -0.25 2.93 2.93 0 0 0 0.15 -1A3.21 3.21 0 0 0 20 3.15a1.33 1.33 0 0 0 0.38 -0.07 0.86 0.86 0 0 0 0.2 -0.08l0.2 -0.17c0.69 -0.68 0.65 -0.8 0.56 -1s-0.1 -0.33 -1.14 0A1.15 1.15 0 0 0 20 2a1.18 1.18 0 0 0 -0.22 0.17 1.91 1.91 0 0 0 -0.24 0.34c-0.07 -0.08 -0.1 -0.18 -0.17 -0.25a3.52 3.52 0 0 0 -1.63 -0.88 3.82 3.82 0 0 0 -0.74 -0.09 0.45 0.45 0 0 0 0.06 -0.14 0.5 0.5 0 0 0 0 -0.21 0.86 0.86 0 0 0 -0.06 -0.21C16.65 0 16.45 0 16.3 0s-0.26 0.06 -0.38 0.88a1.11 1.11 0 0 0 0 0.19 1.21 1.21 0 0 0 0 0.18c0 0.06 0.07 0.1 0.09 0.14a1.77 1.77 0 0 0 -0.2 0 2.83 2.83 0 0 0 -1.37 1 0.94 0.94 0 0 0 -0.09 -0.12 0.67 0.67 0 0 0 -0.21 -0.13 0.73 0.73 0 0 0 -0.24 -0.07c-0.9 -0.14 -1 0 -1.06 0.18s-0.11 0.27 0.62 0.83a0.83 0.83 0 0 0 0.18 0.13l0.21 0.07H14a2.67 2.67 0 0 0 -0.15 0.48 3.28 3.28 0 0 0 0.25 1.9H14a0.87 0.87 0 0 0 -0.24 0.1 1.66 1.66 0 0 0 -0.21 0.16c-0.68 0.65 -0.62 0.82 -0.53 1s0.18 0.26 1.08 0l0.24 -0.09a1 1 0 0 0 0.2 -0.15 0.91 0.91 0 0 0 0.13 -0.16s0.06 0.08 0.09 0.11a2.45 2.45 0 0 0 1.24 0.6 4.35 4.35 0 0 0 0.63 0 2.69 2.69 0 0 0 -0.12 0.34 0.93 0.93 0 0 0 0 0.29 0.93 0.93 0 0 0 0.05 0.29c0.3 1.1 0.55 1 0.64 1s0.31 0 0.46 -1a0.86 0.86 0 0 0 0 -0.28 1.33 1.33 0 0 0 0 -0.28 2.67 2.67 0 0 0 -0.14 -0.34l0.35 0a0.31 0.31 0 0 0 -0.07 -0.62 4.72 4.72 0 0 1 -1.35 0 1.68 1.68 0 0 1 -1 -0.54 2.23 2.23 0 0 1 -0.43 -2 1.91 1.91 0 0 1 1.25 -1.44 2.63 2.63 0 0 1 1.27 -0.09 2.56 2.56 0 0 1 1.08 0.44 2.64 2.64 0 0 1 0.91 1.66 1.83 1.83 0 0 1 -0.7 1.69 0.35 0.35 0 1 0 0.41 0.56 2.51 2.51 0 0 0 0.65 -0.65 2 2 0 0 0 0.17 0.37 0.68 0.68 0 0 0 0.17 0.21 0.82 0.82 0 0 0 0.22 0.16c0.84 0.51 1 0.42 1.09 0.29s0.22 -0.29 -0.32 -1.08Z" fill="#4C57E6" fill-rule="evenodd" stroke-width="1"></path>
    <path d="M15.29 8a1.36 1.36 0 0 0 -1.38 -0.13 3.22 3.22 0 0 0 -1.19 1.06c-0.26 0.37 -0.55 0.86 -0.86 1.35a3.7 3.7 0 0 0 0 -0.47A2.75 2.75 0 0 0 8.6 7.24a2.6 2.6 0 0 0 -2.39 2.62c-0.2 -0.35 -0.41 -0.69 -0.59 -0.95a3.41 3.41 0 0 0 -1.19 -1.07A1.4 1.4 0 0 0 3 8a1.54 1.54 0 0 0 -0.64 1.08 3.53 3.53 0 0 0 0.14 1.48 5.86 5.86 0 0 0 1.4 2.23 6.48 6.48 0 0 0 2.15 1.41l0 0.34C6 15.26 6 16 6 16.7s0 1.69 0.07 2.51a15.69 15.69 0 0 0 0.43 2.51 10.12 10.12 0 0 0 0.3 1.14 2.6 2.6 0 0 0 0.31 0.57 1.32 1.32 0 0 0 1.21 0.57 1.8 1.8 0 0 0 1.33 -1.15 4.47 4.47 0 0 0 0.24 -1.05 14.74 14.74 0 0 0 0 -1.48v-0.26a12.05 12.05 0 0 0 0.72 1.26 6.3 6.3 0 0 0 1.44 1.52 2 2 0 0 0 2.15 0.16 1.5 1.5 0 0 0 0.66 -1.45 2.73 2.73 0 0 0 -0.41 -1.22c-0.4 -0.68 -1.08 -1.29 -1.47 -1.91a6.13 6.13 0 0 1 -0.81 -2 6.78 6.78 0 0 1 -0.13 -1.7 5.07 5.07 0 0 0 2.32 -1.55 8.23 8.23 0 0 0 1.46 -2.64 3.59 3.59 0 0 0 0.12 -1.49A1.52 1.52 0 0 0 15.29 8Zm-0.58 2.25a7.09 7.09 0 0 1 -1.05 2.41 4.48 4.48 0 0 1 -1.66 1.4 0.34 0.34 0 0 0 -0.25 -0.17 0.36 0.36 0 0 0 -0.39 0.31 8.4 8.4 0 0 0 0 2.4 6.94 6.94 0 0 0 0.76 2.32c0.35 0.64 1 1.29 1.36 2a1.62 1.62 0 0 1 0.24 0.72c0 0.23 0 0.38 -0.21 0.44a1 1 0 0 1 -0.79 -0.12 5.18 5.18 0 0 1 -1.32 -1.15 17.08 17.08 0 0 1 -1.52 -2.35l-0.05 -0.83a0.35 0.35 0 0 0 -0.34 -0.36 0.35 0.35 0 0 0 -0.36 0.34l0 2.7a12.72 12.72 0 0 1 -0.14 1.37 3 3 0 0 1 -0.24 0.79 0.82 0.82 0 0 1 -0.42 0.42 0.24 0.24 0 0 1 -0.33 -0.15 1.38 1.38 0 0 1 -0.18 -0.41c-0.09 -0.3 -0.15 -0.63 -0.22 -0.9a18.23 18.23 0 0 1 -0.38 -1.87c-0.16 -0.95 -0.27 -1.89 -0.34 -2.89 -0.06 -0.7 -0.12 -1.4 -0.12 -2.1a9 9 0 0 1 0.09 -1.38 0.32 0.32 0 0 0 -0.26 -0.36 0.31 0.31 0 0 0 -0.35 0.25c0 0.16 0 0.31 -0.07 0.47a5.58 5.58 0 0 1 -1.62 -1.34 4.79 4.79 0 0 1 -0.94 -2 2.17 2.17 0 0 1 -0.08 -0.83A0.54 0.54 0 0 1 3.7 9a0.35 0.35 0 0 1 0.39 0 2.38 2.38 0 0 1 0.65 0.61A21.78 21.78 0 0 0 7 12.29a2.91 2.91 0 0 0 1.49 0.71 0.35 0.35 0 0 0 0.39 -0.3 0.34 0.34 0 0 0 -0.2 -0.34l0 -0.06a4.27 4.27 0 0 1 -0.6 -0.45 2.8 2.8 0 0 1 -0.47 -0.56 1.74 1.74 0 0 1 -0.2 -0.41 2.13 2.13 0 0 1 -0.13 -0.45 1.63 1.63 0 0 1 1.53 -2A1.78 1.78 0 0 1 11 9.88a3.87 3.87 0 0 1 0 0.48 2.65 2.65 0 0 1 -0.07 0.48 2.46 2.46 0 0 1 -0.22 0.61 3.62 3.62 0 0 1 -0.37 0.56s0 0 0 0.06a1.73 1.73 0 0 1 -0.55 0.26 0.34 0.34 0 0 0 -0.3 0.39 0.35 0.35 0 0 0 0.39 0.3 2.82 2.82 0 0 0 1.51 -0.73 21 21 0 0 0 2.23 -2.71 2.67 2.67 0 0 1 0.65 -0.6 0.35 0.35 0 0 1 0.4 0 0.54 0.54 0 0 1 0.17 0.45 2.64 2.64 0 0 1 -0.13 0.8Z" fill="#020202" fill-rule="evenodd" stroke-width="1"></path>
  </g>
</svg>