<svg xmlns="http://www.w3.org/2000/svg" viewBox="0 0 24 24" id="Health-Activity-Active-Burn-Power-Walk--Streamline-Freehand">
  <desc>
    Health Activity Active Burn Power Walk Streamline Icon: https://streamlinehq.com
  </desc>
  <path d="M21.66 17.12a1.1 1.1 0 0 0 -0.88 -0.4 2.67 2.67 0 0 0 -1.37 0.5c-0.2 0.15 -0.36 0.32 -0.54 0.48 -0.92 -1.28 -2.76 -3.29 -4.05 -4.89a13.19 13.19 0 0 1 -1 -1.31 0.32 0.32 0 1 0 -0.55 0.32 14.23 14.23 0 0 0 0.92 1.43c1.15 1.65 2.85 3.76 3.68 5.07l-0.17 0.1 -1.6 1.15 -0.09 0 -0.27 -0.34c-0.8 -1 -2 -2.7 -2.34 -3.1l-2.65 -3c-0.29 -0.29 -0.93 0 -0.82 0.19a5.3 5.3 0 0 1 -0.5 1.64 2.85 2.85 0 0 1 -1 1.12 4.7 4.7 0 0 1 -0.69 0.39c-0.24 0.11 -0.5 0.21 -0.76 0.3s-0.62 0.21 -0.89 0.33a0.31 0.31 0 0 0 -0.26 -0.07 6 6 0 0 0 -1.27 0.36 3.19 3.19 0 0 0 -0.81 0.52 2.33 2.33 0 0 0 -0.76 2 4.44 4.44 0 0 0 1.38 2.67 5.43 5.43 0 0 0 0.81 0.62 4.78 4.78 0 0 0 0.93 0.47 4.15 4.15 0 0 0 0.56 0.18 0.59 0.59 0 0 0 0.55 -0.17 1 1 0 0 0 0.21 -0.65 6.52 6.52 0 0 0 -0.35 -1.36L7 21.34 6.87 21a0.33 0.33 0 0 0 0.21 -0.09 0.21 0.21 0 0 0 0 -0.11 7.84 7.84 0 0 0 2.6 -0.38A4.93 4.93 0 0 0 11.83 19a4.43 4.43 0 0 0 0.91 -2.07c0.34 0.46 1.1 1.69 1.76 2.65a8.9 8.9 0 0 0 1 1.24 0.7 0.7 0 0 0 0.72 0.13 2.37 2.37 0 0 0 0.62 -0.41l1.69 -1.19a3.56 3.56 0 0 0 0.38 -0.39 11.84 11.84 0 0 1 1.09 -0.81c0.16 -0.11 0.8 -0.47 0.74 -0.23l-0.06 0a0.78 0.78 0 0 1 0 0.59 5.6 5.6 0 0 1 -0.21 1 4.46 4.46 0 0 1 -1.6 2.6 1.44 1.44 0 0 1 -1.71 -0.24 0.36 0.36 0 1 0 -0.47 0.55 2.2 2.2 0 0 0 2.61 0.5 5.54 5.54 0 0 0 2.31 -3.06 5.73 5.73 0 0 0 0.39 -1.77 1.68 1.68 0 0 0 -0.34 -0.97ZM5.82 22.36a5.56 5.56 0 0 1 -0.65 -0.53 3.49 3.49 0 0 1 -1.11 -1.91 1.46 1.46 0 0 1 0.29 -1.25 2.24 2.24 0 0 1 0.7 -0.53l0.24 -0.1a1.63 1.63 0 0 0 -0.07 0.61l0.1 0.54a2.05 2.05 0 0 0 0.16 0.41 2.82 2.82 0 0 0 0.21 0.38l0.24 0.29L6 21l0.08 0.52 0 0.49c0 0.12 0.16 0.47 0.24 0.75a4.13 4.13 0 0 1 -0.5 -0.4Zm4.92 -3.91a6.9 6.9 0 0 1 -1.4 0.88 9.39 9.39 0 0 1 -2.47 0.85L6.71 20a3.4 3.4 0 0 1 -0.28 -0.45L6.25 19l0 -0.37a0.38 0.38 0 0 1 0.12 -0.29 1 1 0 0 1 0.36 -0.11l0.62 -0.15a9.24 9.24 0 0 0 0.92 -0.36 6.67 6.67 0 0 0 0.86 -0.53 3.86 3.86 0 0 0 1 -1.34 5.5 5.5 0 0 0 0.39 -1.68l1.62 2a4 4 0 0 1 -1.4 2.28Z" fill="#020202" fill-rule="evenodd" stroke-width="1"></path>
  <path d="M10.55 11.21a2.25 2.25 0 0 0 -1.13 -2.54 0.35 0.35 0 1 0 -0.35 0.6A1.46 1.46 0 0 1 9.64 11a1.29 1.29 0 0 1 -1.34 0.91 1.67 1.67 0 0 1 -1.4 -0.74 1.31 1.31 0 0 1 0 -1.52 1.4 1.4 0 0 1 0.6 -0.5 5 5 0 0 1 0.88 -0.29 0.3 0.3 0 0 0 0.25 -0.35 0.31 0.31 0 0 0 -0.36 -0.25A4.82 4.82 0 0 0 7 8.52a2.32 2.32 0 0 0 -0.8 0.56 2.27 2.27 0 0 0 -0.29 2.65 3.29 3.29 0 0 0 2.39 1 2.12 2.12 0 0 0 2.25 -1.52Z" fill="#4C57E6" fill-rule="evenodd" stroke-width="1"></path>
  <path d="M12.75 5c-0.29 -0.55 -1.38 -1.28 -2.21 -2.6A5.6 5.6 0 0 1 9.81 0.45 0.58 0.58 0 0 0 9.37 0a0.57 0.57 0 0 0 -0.57 0.24 16.4 16.4 0 0 1 -2.49 2.2 4.28 4.28 0 0 0 -1 1.38 3.66 3.66 0 0 0 -0.27 1 5.81 5.81 0 0 0 0.08 1.49c0 0.06 0 0.22 0.06 0.41a1.19 1.19 0 0 1 -0.33 -0.19 1.26 1.26 0 0 1 -0.31 -0.34 1.52 1.52 0 0 1 -0.2 -0.43c-0.09 -0.28 -0.15 -0.57 -0.21 -0.85a4.74 4.74 0 0 0 -0.13 -0.5 0.63 0.63 0 0 0 -0.39 -0.36 0.61 0.61 0 0 0 -0.61 0.19 7.88 7.88 0 0 0 -0.44 0.68 4.77 4.77 0 0 0 -0.46 1.26A4.94 4.94 0 0 0 2 7.51a6.2 6.2 0 0 0 1.81 4.09 2.54 2.54 0 0 0 2.13 1c0.41 0.06 0.55 -0.44 -0.22 -0.72a2.63 2.63 0 0 1 -1.37 -0.85A5.25 5.25 0 0 1 3 7.47a3.86 3.86 0 0 1 0.07 -1.07 4.42 4.42 0 0 1 0.15 -0.48l0 0.19a3.28 3.28 0 0 0 0.3 0.7 2.54 2.54 0 0 0 0.57 0.65 2.81 2.81 0 0 0 0.74 0.41s0.7 0.2 1 0.26a0.7 0.7 0 0 0 0.7 -0.22 0.79 0.79 0 0 0 0.12 -0.53c0 -0.33 -0.39 -1 -0.42 -1.22a4.86 4.86 0 0 1 -0.07 -1 2.56 2.56 0 0 1 0.18 -0.88 3.25 3.25 0 0 1 0.74 -1c0.59 -0.56 1.3 -1 1.9 -1.61a7.21 7.21 0 0 0 0.65 1.24c0.85 1.28 2 2 2.27 2.49a5.12 5.12 0 0 1 0.43 3.68 4.24 4.24 0 0 1 -1.59 2.38c-0.44 0.43 -0.37 0.87 0.05 0.87a3.87 3.87 0 0 0 2.32 -3A6 6 0 0 0 12.75 5Z" fill="#020202" fill-rule="evenodd" stroke-width="1"></path>
</svg>