<svg xmlns="http://www.w3.org/2000/svg" viewBox="0 0 24 24" id="Health-Activity-Sleep-Tracking-3--Streamline-Freehand">
  <desc>
    Health Activity Sleep Tracking 3 Streamline Icon: https://streamlinehq.com
  </desc>
  <g>
    <g>
      <path d="M20.42 3.24C17.09 0.25 12.09 -0.3 8.48 0.27A10 10 0 0 0 0.62 7.52a14.34 14.34 0 0 0 0.92 10.79c2.13 4 7.54 6.06 12.54 5.54C26.34 22.57 25.75 8 20.42 3.24Zm0.47 16.54c-0.25 0.42 -0.58 0.56 -1.05 1A10.93 10.93 0 0 1 14 23c-0.3 0 -5.8 0.54 -9.64 -2.88a3 3 0 0 1 -0.81 -0.84 10 10 0 0 1 -1 -1.44 13.26 13.26 0 0 1 -0.8 -9.92A10.46 10.46 0 0 1 4.94 3a8.22 8.22 0 0 1 3.72 -1.66 14.71 14.71 0 0 1 4.05 -0.18s5 1 6.69 2.46a10.58 10.58 0 0 1 3.1 4.72 21.74 21.74 0 0 1 0.81 4.42 10.2 10.2 0 0 1 -2.42 7.02Z" fill="#020202" stroke-width="1"></path>
      <g>
        <path d="M12.67 2.7s-0.06 1.75 -0.53 1.75c-0.15 0 -0.27 -0.08 -0.4 -0.25a3.23 3.23 0 0 1 -0.21 -0.81 3.52 3.52 0 0 1 0.07 -0.93c0.1 -0.29 0.27 -0.42 0.42 -0.42 0.65 -0.04 0.63 0.45 0.65 0.66Z" fill="#4C57E6" stroke-width="1"></path>
        <path d="M4.35 11.66a0.37 0.37 0 0 1 0.37 0.37 0.51 0.51 0 0 1 -0.49 0.5 3.2 3.2 0 0 1 -0.83 0c-0.29 0 -0.57 -0.09 -0.87 -0.09l-0.41 -0.09a0.59 0.59 0 0 1 -0.12 -0.73c0.28 -0.37 1.88 -0.04 2.35 0.04Z" fill="#4C57E6" stroke-width="1"></path>
        <path d="M6 5.15c0.17 0.18 0.29 0.36 0.42 0.51a1.37 1.37 0 0 1 0.16 0.2 0.49 0.49 0 0 1 0.14 0.25 0.37 0.37 0 0 1 -0.26 0.46 1 1 0 0 1 -0.71 -0.1 2.86 2.86 0 0 1 -0.46 -0.31 3.26 3.26 0 0 1 -0.4 -0.34c-0.11 -0.11 -0.22 -0.23 -0.32 -0.35a0.39 0.39 0 0 1 -0.1 -0.28c0 -0.45 0.18 -0.66 0.73 -0.61 0.14 0.07 0.15 0 0.28 0.13a3.18 3.18 0 0 1 0.52 0.44Z" fill="#4C57E6" stroke-width="1"></path>
        <path d="M12.79 21.38s-0.06 -1.76 -0.53 -1.76c-0.15 0 -0.27 0.08 -0.4 0.25a2.94 2.94 0 0 0 -0.21 0.81 3.49 3.49 0 0 0 0.07 0.93c0.1 0.29 0.26 0.42 0.42 0.42 0.65 -0.03 0.63 -0.45 0.65 -0.65Z" fill="#4C57E6" stroke-width="1"></path>
        <path d="M6.68 19.17c0.12 -0.21 0.2 -0.42 0.29 -0.59a1.24 1.24 0 0 0 0.11 -0.23 0.63 0.63 0 0 0 0.08 -0.28 0.38 0.38 0 0 0 -0.36 -0.39 1 1 0 0 0 -0.66 0.26 3.87 3.87 0 0 0 -0.39 0.41 4.73 4.73 0 0 0 -0.31 0.43c-0.08 0.13 -0.15 0.27 -0.22 0.41a0.36 0.36 0 0 0 0 0.29c0.07 0.45 0.33 0.61 0.86 0.43 0.12 -0.1 0.14 -0.07 0.24 -0.19a3 3 0 0 0 0.36 -0.55Z" fill="#4C57E6" stroke-width="1"></path>
        <path d="M19.76 11.66a0.37 0.37 0 0 0 -0.37 0.37 0.51 0.51 0 0 0 0.49 0.5 3.2 3.2 0 0 0 0.83 0c0.29 0 0.57 -0.09 0.87 -0.09l0.41 -0.09a0.58 0.58 0 0 0 0.08 -0.72c-0.24 -0.38 -1.83 -0.05 -2.31 0.03Z" fill="#4C57E6" stroke-width="1"></path>
        <path d="M18.31 5.32c-0.14 0.19 -0.24 0.39 -0.35 0.55a1.72 1.72 0 0 0 -0.14 0.22 0.65 0.65 0 0 0 -0.1 0.27 0.36 0.36 0 0 0 0.31 0.42 1 1 0 0 0 0.69 -0.18 3.41 3.41 0 0 0 0.43 -0.37 3.33 3.33 0 0 0 0.35 -0.39 3.28 3.28 0 0 0 0.27 -0.38 0.37 0.37 0 0 0 0.07 -0.29c0 -0.45 -0.26 -0.63 -0.81 -0.51 -0.12 0.08 -0.14 0 -0.26 0.15a3.72 3.72 0 0 0 -0.46 0.51Z" fill="#4C57E6" stroke-width="1"></path>
        <path d="M17.67 18.7c-0.14 -0.19 -0.24 -0.39 -0.35 -0.55a0.93 0.93 0 0 1 -0.14 -0.22 0.54 0.54 0 0 1 -0.11 -0.26 0.38 0.38 0 0 1 0.31 -0.43 1 1 0 0 1 0.69 0.18 4.32 4.32 0 0 1 0.43 0.36q0.18 0.18 0.36 0.39l0.27 0.37a0.39 0.39 0 0 1 0.07 0.3c0 0.45 -0.25 0.63 -0.8 0.52 -0.13 -0.08 -0.14 -0.05 -0.26 -0.15a3.74 3.74 0 0 1 -0.47 -0.51Z" fill="#4C57E6" stroke-width="1"></path>
      </g>
    </g>
    <path d="M13.66 12.26c0.56 -0.51 1.17 -1 1.75 -1.54 0.39 -0.37 0.77 -0.76 1.12 -1.16a6.85 6.85 0 0 0 0.85 -1.16 1.11 1.11 0 0 0 0.11 -0.72 0.82 0.82 0 0 0 -0.37 -0.48 2.83 2.83 0 0 0 -1 -0.23 14.51 14.51 0 0 0 -1.48 0c-0.75 0 -1.5 0.11 -2.18 0.18a0.35 0.35 0 0 0 0 0.69l2.13 0A13.67 13.67 0 0 1 16 8l0.36 0a7.66 7.66 0 0 1 -0.77 0.68l-2.79 2.61 -0.51 0.48 -0.28 0.35c-0.68 0.93 -0.29 1.37 0.12 1.54a3.61 3.61 0 0 0 1.42 0l1.29 -0.08 2.16 -0.05a0.4 0.4 0 0 0 0.39 -0.39 0.39 0.39 0 0 0 -0.39 -0.39l-2.17 -0.12 -1.4 0 -0.26 0Z" fill="#020202" stroke-width="1"></path>
    <path d="M10.6 11.34a2.28 2.28 0 0 0 -0.78 -0.18 9.91 9.91 0 0 0 -1.08 0c-0.52 0 -1.06 0.09 -1.55 0.15a0.35 0.35 0 0 0 -0.32 0.37 0.34 0.34 0 0 0 0.36 0.32l1.26 0a7.81 7.81 0 0 1 1.12 0.13l-0.32 0.24L7 14.62l-0.21 0.27c-0.34 0.47 -0.31 0.8 -0.23 1a0.68 0.68 0 0 0 0.38 0.38 2.74 2.74 0 0 0 1.1 0l0.9 -0.07 1.54 -0.06a0.4 0.4 0 0 0 0.39 -0.39 0.39 0.39 0 0 0 -0.39 -0.39l-1.59 -0.16 -0.67 0c0.39 -0.35 0.81 -0.7 1.2 -1.07a9.05 9.05 0 0 0 0.81 -0.83 4.71 4.71 0 0 0 0.62 -0.87 1 1 0 0 0 0.09 -0.64 0.71 0.71 0 0 0 -0.34 -0.45Z" fill="#020202" stroke-width="1"></path>
  </g>
</svg>