<svg xmlns="http://www.w3.org/2000/svg" viewBox="0 0 24 24" id="Heater--Streamline-Freehand">
  <desc>
    Heater Streamline Icon: https://streamlinehq.com
  </desc>
  <g>
    <path d="M9.6 10.1A4.19 4.19 0 0 1 8.49 13a0.36 0.36 0 0 0 0 0.49 0.34 0.34 0 0 0 0.48 0 4.94 4.94 0 0 0 1.61 -3.37 6.82 6.82 0 0 0 -1 -3.62 6.48 6.48 0 0 1 -1.04 -2.9 4 4 0 0 1 0.9 -2.86 0.31 0.31 0 0 0 0 -0.43 0.32 0.32 0 0 0 -0.44 0.03 4.66 4.66 0 0 0 -1.4 3.29 7.13 7.13 0 0 0 1 3.45 5.85 5.85 0 0 1 1 3.02Z" fill="#4C57E6" fill-rule="evenodd" stroke-width="1"></path>
    <path d="M13.8 8.45a5.8 5.8 0 0 1 0.5 1.91 3.21 3.21 0 0 1 -0.81 2.38 0.34 0.34 0 1 0 0.5 0.47 4.05 4.05 0 0 0 1.24 -2.86 6.35 6.35 0 0 0 -0.4 -2.29c-0.27 -0.77 -0.64 -1.46 -0.89 -2a13.66 13.66 0 0 1 -0.57 -1.31 4.9 4.9 0 0 1 -0.41 -2A3.66 3.66 0 0 1 13.77 0.7a0.29 0.29 0 0 0 0 -0.42 0.3 0.3 0 0 0 -0.42 0 4.18 4.18 0 0 0 -1.26 3.07 8.49 8.49 0 0 0 0.84 3.17c0.22 0.54 0.57 1.21 0.87 1.93Z" fill="#4C57E6" fill-rule="evenodd" stroke-width="1"></path>
    <path d="M18.18 9.73a5.64 5.64 0 0 1 -1.35 3 0.34 0.34 0 0 0 0.5 0.46 6.26 6.26 0 0 0 1.82 -3.31 5.22 5.22 0 0 0 -0.83 -3.81 8.14 8.14 0 0 1 -0.84 -1.33 2.74 2.74 0 0 1 -0.31 -1.37A5.83 5.83 0 0 1 18.38 0.48a0.3 0.3 0 0 0 -0.48 -0.36 6.5 6.5 0 0 0 -1.68 3.14 4.85 4.85 0 0 0 1.16 3.47 4.15 4.15 0 0 1 0.8 3Z" fill="#4C57E6" fill-rule="evenodd" stroke-width="1"></path>
    <path d="M23.68 17.73c0 -0.63 -0.06 -1.25 -0.11 -1.87 -0.12 -1.44 -0.3 -2.86 -0.43 -4.31l-0.05 -2 0 -0.61a0.79 0.79 0 0 0 -0.2 -0.41 1.39 1.39 0 0 0 -0.65 -0.36 4.81 4.81 0 0 0 -0.9 -0.09l-0.63 0a1.64 1.64 0 0 0 -0.32 0.05 0.34 0.34 0 0 0 0.15 0.66l0.76 0a4.09 4.09 0 0 1 0.76 0.08 0.67 0.67 0 0 1 0.31 0.17v2.54c0.09 1.45 0.25 2.88 0.34 4.31 0 0.61 0.06 1.22 0.06 1.83a9.65 9.65 0 0 1 -0.12 1.8 2.46 2.46 0 0 1 -0.37 1 0.45 0.45 0 0 1 -0.34 0.12c-0.26 0 -0.53 0 -0.74 0.05 -0.72 0.06 -1.44 0.12 -2.16 0.15l-1.43 0 -5.41 0c-1.21 0 -2.42 0.06 -3.63 0.14s-2.77 0.34 -4.17 0.37a8.69 8.69 0 0 1 -1.7 -0.09 1 1 0 0 1 -0.81 -0.74 8.23 8.23 0 0 1 -0.34 -2.4q-0.14 -1.52 -0.24 -3c-0.06 -1 -0.11 -2 -0.15 -3a9.3 9.3 0 0 1 0 -1.41 1.12 1.12 0 0 1 0.22 -0.71A1.38 1.38 0 0 1 2 9.76c0.49 -0.08 1 -0.1 1.36 -0.14a7.29 7.29 0 0 1 1.12 0c1 0 2.13 0.09 2.74 0.12a0.29 0.29 0 0 0 0.32 -0.28 0.3 0.3 0 0 0 -0.28 -0.31c-0.61 0 -1.8 -0.16 -2.76 -0.2a9.64 9.64 0 0 0 -1.24 0c-0.37 0.05 -1.07 0 -1.63 0.15a1.74 1.74 0 0 0 -0.8 0.36 1.63 1.63 0 0 0 -0.45 0.84 7.68 7.68 0 0 0 -0.1 1.81c0 1 0 2 0.07 3.07s0.09 2 0.15 3.06a10 10 0 0 0 0.35 2.7 2.07 2.07 0 0 0 1.62 1.44 8.64 8.64 0 0 0 1.14 0.12 1.75 1.75 0 0 0 0 0.4 2.13 2.13 0 0 0 0.2 0.87 0.34 0.34 0 0 0 0.42 0.24 0.34 0.34 0 0 0 0.24 -0.42 6.1 6.1 0 0 1 0 -0.85 1.85 1.85 0 0 0 0 -0.23c1.4 0 2.85 -0.27 4.19 -0.35C9.82 22.07 11 22 12.21 22c1.8 0 3.6 0 5.39 -0.05 0.5 0 1 0 1.49 -0.06l1 -0.08c0 0.2 -0.07 0.4 -0.09 0.59a9.71 9.71 0 0 0 0 1.06 0.34 0.34 0 0 0 0.68 0 8.88 8.88 0 0 0 0.18 -1.26 2.14 2.14 0 0 0 -0.06 -0.5l0.5 0a5 5 0 0 0 1.18 -0.17 1.26 1.26 0 0 0 0.6 -0.44 3.36 3.36 0 0 0 0.51 -1.38 10.65 10.65 0 0 0 0.09 -1.98Z" fill="#020202" fill-rule="evenodd" stroke-width="1"></path>
    <path d="M9.62 15.74a0.29 0.29 0 0 0 -0.3 -0.29 0.3 0.3 0 0 0 -0.3 0.3 9.14 9.14 0 0 0 -0.2 1.1 2.48 2.48 0 0 0 0 0.47 2.36 2.36 0 0 0 0.08 0.45c0.07 0.33 0.19 0.65 0.31 1.05a0.33 0.33 0 0 0 0.37 0.3 0.34 0.34 0 0 0 0.3 -0.37c0 -0.41 0.08 -0.75 0.09 -1.08a2.22 2.22 0 0 0 0 -0.45 3.47 3.47 0 0 0 -0.06 -0.45c-0.07 -0.35 -0.2 -0.65 -0.29 -1.03Z" fill="#020202" fill-rule="evenodd" stroke-width="1"></path>
    <path d="M13.23 15.38a0.31 0.31 0 0 0 -0.31 0.29c-0.12 0.39 -0.23 0.64 -0.29 0.91a1.87 1.87 0 0 0 0 0.4 1.91 1.91 0 0 0 0 0.41c0 0.27 0.11 0.55 0.19 0.94a0.35 0.35 0 1 0 0.69 0c0.07 -0.38 0.15 -0.64 0.2 -0.91s0 -0.25 0.05 -0.38 0 -0.26 0 -0.39c0 -0.28 -0.12 -0.55 -0.21 -1a0.3 0.3 0 0 0 -0.32 -0.27Z" fill="#020202" fill-rule="evenodd" stroke-width="1"></path>
    <path d="M17.19 15.46a0.3 0.3 0 0 0 -0.59 0.06 10 10 0 0 0 -0.16 1 3.09 3.09 0 0 0 0 0.43c0 0.14 0.05 0.28 0.08 0.43a10.23 10.23 0 0 0 0.34 1 0.35 0.35 0 0 0 0.4 0.28 0.33 0.33 0 0 0 0.27 -0.39c0 -0.35 0.06 -0.66 0.06 -1a2.81 2.81 0 0 0 0 -0.41c0 -0.14 0 -0.28 -0.07 -0.42a8.68 8.68 0 0 0 -0.33 -0.98Z" fill="#020202" fill-rule="evenodd" stroke-width="1"></path>
    <path d="M19.75 17.3c0.08 0.35 0.2 0.67 0.3 1a0.34 0.34 0 0 0 0.38 0.3 0.34 0.34 0 0 0 0.3 -0.37c0 -0.36 0.08 -0.69 0.09 -1a3.23 3.23 0 0 0 0 -0.44 2.14 2.14 0 0 0 -0.07 -0.43c-0.07 -0.34 -0.2 -0.65 -0.3 -1a0.29 0.29 0 0 0 -0.31 -0.29 0.3 0.3 0 0 0 -0.29 0.31 10.28 10.28 0 0 0 -0.19 1.06 3.38 3.38 0 0 0 0 0.45 3.11 3.11 0 0 0 0.09 0.41Z" fill="#020202" fill-rule="evenodd" stroke-width="1"></path>
    <path d="M3.5 12.1c-1.3 0.52 -0.4 2.59 0.9 2.15 1.6 -0.55 0.31 -2.63 -0.9 -2.15Z" fill="#4C57E6" fill-rule="evenodd" stroke-width="1"></path>
  </g>
</svg>