<svg xmlns="http://www.w3.org/2000/svg" viewBox="0 0 24 24" id="Help-Laptop-Question-Message--Streamline-Freehand">
  <desc>
    Help Laptop Question Message Streamline Icon: https://streamlinehq.com
  </desc>
  <g>
    <path d="M12.11 13.35a0.94 0.94 0 0 0 -1.51 0.52c-0.5 1.16 1.35 1.81 1.81 0.93 0.35 -0.65 0.31 -1.14 -0.3 -1.45Z" fill="#020202" stroke-width="1"></path>
    <path d="M21.82 16.17c0 -1.18 -0.08 -2.37 -0.07 -3.54a10.3 10.3 0 0 0 -0.18 -2.46A2 2 0 0 0 20.84 9 3.75 3.75 0 0 0 19 8.69a32.87 32.87 0 0 0 -3.69 0.3 0.32 0.32 0 0 0 -0.3 0.35 0.33 0.33 0 0 0 0.36 0.3c0.4 0 1.83 -0.05 3.09 0a3.89 3.89 0 0 1 1.68 0.28 1.19 1.19 0 0 1 0.31 0.8 12.89 12.89 0 0 1 0.06 1.91c0.06 0.95 0.13 1.91 0.23 2.87s0.21 1.83 0.33 2.74c0.08 0.55 0.87 0.71 0.87 0s-0.09 -1.38 -0.12 -2.07Z" fill="#4C57E6" stroke-width="1"></path>
    <path d="M2.36 18.43c0 -1.57 0.16 -3.12 0.25 -4.69a19.16 19.16 0 0 1 0 -2.87c0.07 -0.48 0.19 -0.92 0.65 -1a14.23 14.23 0 0 1 1.68 -0.19C6 9.56 7.25 9.49 7.56 9.5A0.36 0.36 0 0 0 8 9.16a0.38 0.38 0 0 0 -0.35 -0.4C7.3 8.72 6 8.7 4.88 8.69A17.59 17.59 0 0 0 3 8.76a1.89 1.89 0 0 0 -1.46 1.33 11.42 11.42 0 0 0 -0.17 3.63c0 1.36 0 2.7 0.1 4 0 0.35 0.06 0.7 0.09 1.05a0.4 0.4 0 1 0 0.79 0c0.01 -0.09 0 -0.22 0.01 -0.34Z" fill="#4C57E6" stroke-width="1"></path>
    <path d="M23.58 19.94a0.34 0.34 0 0 0 -0.3 -0.27c-0.43 -0.05 -0.86 -0.06 -1.3 -0.09a39.09 39.09 0 0 0 -4.48 -0.16c-1.44 0 -2.88 0 -4.32 0.1s-2.87 0.17 -4.3 0.24l-8 0.36a0.32 0.32 0 0 0 -0.31 0.32s-0.05 0 -0.08 0a0.32 0.32 0 0 0 -0.31 0.34 2.33 2.33 0 0 0 1.52 2.16 11.74 11.74 0 0 0 3.65 0.76c1.17 0.13 2.34 0.23 3.53 0.29s2.36 0.05 3.53 0a51.68 51.68 0 0 0 7 -0.74 9.14 9.14 0 0 0 3.2 -0.88 2.48 2.48 0 0 0 1.22 -2.06 0.34 0.34 0 0 0 -0.25 -0.37Zm-1.38 1.7a8.34 8.34 0 0 1 -2.93 0.61 63.31 63.31 0 0 1 -6.92 0.47l-3.48 0c-1.16 0 -2.32 0 -3.47 -0.08a10.81 10.81 0 0 1 -3.4 -0.46 1.68 1.68 0 0 1 -1.2 -1.42l0.07 0 8.06 0.24c1.66 -0.06 3.35 -0.14 5 -0.25s3.33 -0.25 5 -0.31c1.37 -0.05 2.74 -0.05 4.09 0a1.71 1.71 0 0 1 -0.82 1.2Z" fill="#020202" stroke-width="1"></path>
    <path d="M8.5 5.53a0.34 0.34 0 0 0 0.25 -0.39 4.58 4.58 0 0 1 0 -1.95 2.54 2.54 0 0 1 0.9 -1.52 2.82 2.82 0 0 1 2.57 -0.37A2.93 2.93 0 0 1 14.17 3 1.89 1.89 0 0 1 14 4.9c-0.69 1 -1.95 1.81 -2.65 2.89a3.36 3.36 0 0 0 -0.5 1.72 5.12 5.12 0 0 0 0.3 1.67 0.38 0.38 0 0 0 0.48 0.24 0.36 0.36 0 0 0 0.27 -0.42 3.83 3.83 0 0 1 -0.18 -1.41 2.3 2.3 0 0 1 0.44 -1.23 12.68 12.68 0 0 1 1.93 -1.79 4.83 4.83 0 0 0 1.3 -1.62 3.16 3.16 0 0 0 0 -2.38A4.12 4.12 0 0 0 12.57 0.13a3.81 3.81 0 0 0 -3.52 0.79 3.42 3.42 0 0 0 -1 1.66 5.48 5.48 0 0 0 0 2.7 0.33 0.33 0 0 0 0.45 0.25Z" fill="#020202" stroke-width="1"></path>
  </g>
</svg>