<svg xmlns="http://www.w3.org/2000/svg" viewBox="0 0 24 24" id="Hierarchy-1--Streamline-Freehand">
  <desc>
    Hierarchy 1 Streamline Icon: https://streamlinehq.com
  </desc>
  <g>
    <path d="m3.51 18 -0.65 -0.22 0 0.08a2.91 2.91 0 0 0 -1.46 0.17 0.34 0.34 0 1 0 0.24 0.64 2.07 2.07 0 0 1 1.13 0 1.3 1.3 0 0 1 0.81 0.56 1.87 1.87 0 0 1 0.17 1.35 1.06 1.06 0 0 1 -0.74 0.85 2.41 2.41 0 0 1 -1.15 0 1.42 1.42 0 0 1 -0.86 -0.59A1.9 1.9 0 0 1 0.73 20a2.21 2.21 0 0 1 0.12 -0.88 0.31 0.31 0 0 0 -0.16 -0.4 0.3 0.3 0 0 0 -0.39 0.15A2.78 2.78 0 0 0 0 20a2.45 2.45 0 0 0 0.2 1.25 2.23 2.23 0 0 0 1.38 1.14 3.43 3.43 0 0 0 1.73 0.06 2.15 2.15 0 0 0 1.54 -1.73 2.79 2.79 0 0 0 -0.47 -2.11 2.06 2.06 0 0 0 -0.87 -0.61Z" fill="#020202" fill-rule="evenodd" stroke-width="1"></path>
    <path d="M9 9.62a2.18 2.18 0 0 0 -1.44 -0.83 2.85 2.85 0 0 0 -1.5 0.21 0.34 0.34 0 1 0 0.23 0.64 2.07 2.07 0 0 1 1.13 0 1.3 1.3 0 0 1 0.81 0.56 1.82 1.82 0 0 1 0.17 1.3 1.08 1.08 0 0 1 -0.73 0.85 2.46 2.46 0 0 1 -1.16 0 1.37 1.37 0 0 1 -0.9 -0.54 1.65 1.65 0 0 1 -0.22 -0.8 2.2 2.2 0 0 1 0.11 -0.88 0.3 0.3 0 1 0 -0.5 -0.21 3 3 0 0 0 -0.29 1.13 2.58 2.58 0 0 0 0.2 1.21A2.72 2.72 0 0 0 8 13.46a2.46 2.46 0 0 0 1 -3.84Z" fill="#020202" fill-rule="evenodd" stroke-width="1"></path>
    <path d="M4.84 13.88c-0.28 0.39 -0.55 0.78 -0.8 1.19 -0.15 0.25 -0.28 0.5 -0.4 0.75s-0.22 0.52 -0.33 0.78l-0.09 0.21c-0.29 0.67 0.06 0.71 0.88 0.29 0.25 -0.38 0.51 -0.74 0.74 -1.13a9.42 9.42 0 0 0 0.49 -0.88c0.14 -0.25 0.25 -0.51 0.37 -0.77 0.04 -0.8 -0.19 -1.07 -0.86 -0.44Z" fill="#4C57E6" fill-rule="evenodd" stroke-width="1"></path>
    <path d="M14.17 12.77a0.33 0.33 0 0 0 -0.2 0.43 0.35 0.35 0 0 0 0.44 0.21 2.17 2.17 0 0 1 1.13 0 1.37 1.37 0 0 1 0.81 0.56 1.87 1.87 0 0 1 0.17 1.35 1 1 0 0 1 -0.74 0.85 2.33 2.33 0 0 1 -1.16 0 1.34 1.34 0 0 1 -0.9 -0.54 1.81 1.81 0 0 1 -0.22 -0.79 2.19 2.19 0 0 1 0.12 -0.88 0.31 0.31 0 0 0 -0.16 -0.4c-0.48 -0.23 -0.65 0.82 -0.68 1.28a2.47 2.47 0 0 0 0.22 1.24 2.21 2.21 0 0 0 1.38 1.13 3.33 3.33 0 0 0 1.73 0.06 2.13 2.13 0 0 0 1.54 -1.72 2.83 2.83 0 0 0 -0.47 -2.12 2.61 2.61 0 0 0 -3.01 -0.66Z" fill="#020202" fill-rule="evenodd" stroke-width="1"></path>
    <path d="M23.48 2.33A2.21 2.21 0 0 0 22 1.51a2.84 2.84 0 0 0 -1.53 0.16 0.35 0.35 0 0 0 -0.21 0.44 0.34 0.34 0 0 0 0.44 0.2 2.07 2.07 0 0 1 1.13 0 1.3 1.3 0 0 1 0.81 0.55 1.85 1.85 0 0 1 0.17 1.36 1.06 1.06 0 0 1 -0.74 0.85 2.41 2.41 0 0 1 -1.15 0 1.4 1.4 0 0 1 -0.9 -0.54 1.89 1.89 0 0 1 -0.23 -0.8 2.21 2.21 0 0 1 0.21 -0.84 0.3 0.3 0 0 0 -0.15 -0.4 0.3 0.3 0 0 0 -0.4 0.15 3 3 0 0 0 -0.29 1.13A2.73 2.73 0 0 0 19.3 5a2.51 2.51 0 0 0 3.11 1.2A2.16 2.16 0 0 0 24 4.45a2.83 2.83 0 0 0 -0.52 -2.12Z" fill="#020202" fill-rule="evenodd" stroke-width="1"></path>
    <path d="m19.61 6.76 -0.49 0.71c-0.26 0.35 -0.54 0.69 -0.81 1s-0.53 0.71 -0.78 1.08 -0.62 1 -0.9 1.56c-0.06 0.11 -0.18 0.33 -0.3 0.58 -0.25 0.87 0.12 0.8 0.76 0.32 0.13 -0.18 0.25 -0.34 0.32 -0.42 0.27 -0.35 0.56 -0.68 0.83 -1s0.54 -0.71 0.8 -1.07 0.66 -1 1 -1.52l0.45 -0.92c0.04 -0.74 -0.24 -0.85 -0.88 -0.32Z" fill="#4C57E6" fill-rule="evenodd" stroke-width="1"></path>
    <path d="M12.49 12.89a4.78 4.78 0 0 0 -0.65 -0.52c-0.2 -0.13 -0.4 -0.24 -0.61 -0.35s-0.41 -0.17 -0.62 -0.28l-0.13 -0.05c-0.76 0 -0.84 0.38 -0.16 1.07 0.11 0.09 0.22 0.18 0.34 0.26s0.48 0.27 0.71 0.39a5.58 5.58 0 0 1 0.58 0.32c0.9 0.19 1.1 -0.08 0.54 -0.84Z" fill="#4C57E6" fill-rule="evenodd" stroke-width="1"></path>
  </g>
</svg>