<svg xmlns="http://www.w3.org/2000/svg" viewBox="0 0 24 24" id="Historical-Building-Tower--Streamline-Freehand">
  <desc>
    Historical Building Tower Streamline Icon: https://streamlinehq.com
  </desc>
  <title>historical-building-tower</title>
  <g>
    <path d="M24 8.76a3.23 3.23 0 0 0 -0.12 -0.55 1.31 1.31 0 0 0 -0.23 -0.36 0.65 0.65 0 0 0 -0.29 -0.16 2.59 2.59 0 0 0 -0.52 -0.05 6.66 6.66 0 0 0 -1 0l-0.2 0a2.57 2.57 0 0 0 0.06 -0.4 1.54 1.54 0 0 0 0 -0.37 2.25 2.25 0 0 0 -0.06 -0.36 4 4 0 0 0 -0.26 -0.63 0.52 0.52 0 0 0 0 -0.72 2.66 2.66 0 0 0 -0.54 -0.42c-0.38 -0.23 -0.83 -0.43 -1.16 -0.63 -0.6 -0.37 -1.17 -0.73 -1.68 -1.11a10 10 0 0 1 -1 -0.84 0.36 0.36 0 0 0 -0.28 -0.16 0.34 0.34 0 0 0 -0.36 0 12.3 12.3 0 0 0 -1 0.86c-0.5 0.45 -1 0.92 -1.44 1.38l-0.76 0.76c-0.32 0.32 -0.2 0.23 -0.27 0.4a0.28 0.28 0 0 0 -0.16 0.18c-0.09 0.07 -0.18 0.14 -0.19 0.19a0.42 0.42 0 0 0 0 0.15 2.11 2.11 0 0 0 -0.2 0.66 1.75 1.75 0 0 0 0 0.56 5.82 5.82 0 0 0 0.22 0.67l-0.34 0a3.71 3.71 0 0 0 -0.67 0.2 3.25 3.25 0 0 0 -0.51 0.27 0.48 0.48 0 0 0 -0.18 0.31 7.89 7.89 0 0 0 0 1.68 3.5 3.5 0 0 0 0.32 1.14 0.55 0.55 0 0 0 0.14 0.18 3.47 3.47 0 0 0 0.36 0.25l0.6 0.52 -0.09 1c-0.6 -0.1 -1.19 -0.23 -1.79 -0.28a8.19 8.19 0 0 0 -1.31 0 7.54 7.54 0 0 0 -1.63 0.36c0 -0.87 0 -1.73 0.09 -2.59A22.5 22.5 0 0 0 7.84 8a3.67 3.67 0 0 0 -0.32 -1.35 0.79 0.79 0 0 0 -0.4 -0.37c-0.39 -0.49 -0.7 -1 -1.06 -1.53a6.88 6.88 0 0 0 -0.54 -0.67 4.51 4.51 0 0 0 -0.73 -0.69A1.1 1.1 0 0 0 4 3.26a0.77 0.77 0 0 0 -0.32 0.17 4.32 4.32 0 0 0 -0.4 0.51c-0.16 0.23 -0.33 0.45 -0.48 0.69a12.43 12.43 0 0 0 -0.64 1.12l-0.43 0.89a0.6 0.6 0 0 0 -0.29 0.55c0 1.18 -0.05 2.35 -0.06 3.53l0 1.55 0.48 6.21 -0.29 -0.07a2.12 2.12 0 0 1 -1 -0.88 0.3 0.3 0 0 0 -0.42 -0.13 0.3 0.3 0 0 0 -0.13 0.42 2.85 2.85 0 0 0 1.23 1.31 2.09 2.09 0 0 0 1.93 0 1.81 1.81 0 0 0 0.32 -0.22 5.43 5.43 0 0 0 0.5 -0.54l0.07 0.08a3.94 3.94 0 0 0 1 0.58 2.34 2.34 0 0 0 0.85 0.17 2.66 2.66 0 0 0 1.19 -0.28 3.68 3.68 0 0 0 0.89 -0.65 3.3 3.3 0 0 0 0.34 -0.33l1 0.54a2.41 2.41 0 0 0 1.77 0 3.18 3.18 0 0 0 0.92 -0.54c0 1 0.08 2 0.11 2.94a0.36 0.36 0 0 0 0 0.1 1.29 1.29 0 0 1 -0.47 -0.11 2.07 2.07 0 0 1 -0.93 -0.94 0.32 0.32 0 0 0 -0.58 0.25 2.82 2.82 0 0 0 1.14 1.39 2.09 2.09 0 0 0 1.93 0.11 1.68 1.68 0 0 0 0.34 -0.2 5.44 5.44 0 0 0 0.49 -0.47l0.06 0.08a4.38 4.38 0 0 0 1 0.66A2.47 2.47 0 0 0 16 22a2.64 2.64 0 0 0 1.2 -0.19 3.75 3.75 0 0 0 1 -0.59 2.1 2.1 0 0 0 0.36 -0.3l1 0.61a2.46 2.46 0 0 0 1.77 0.17 3.44 3.44 0 0 0 1.43 -0.87 0.36 0.36 0 1 0 -0.49 -0.53 2.55 2.55 0 0 1 -0.43 0.3c0 -1.21 0.11 -2.4 0.14 -3.6l0 -1.65 -0.06 -1.63 0 -0.33 1.21 -1.09c0.16 -0.14 0.38 -0.29 0.54 -0.46a1.39 1.39 0 0 0 0.27 -0.38 1.15 1.15 0 0 0 0.07 -0.28l0 -0.59c0 -0.35 0.05 -0.71 0.05 -1.07a6.62 6.62 0 0 0 -0.06 -0.76ZM14.52 4.9c0.43 -0.49 0.85 -1 1.3 -1.48 0.23 -0.24 0.47 -0.48 0.73 -0.71a11.21 11.21 0 0 0 0.93 0.89c0.52 0.45 1.08 0.86 1.63 1.26l-1 0c-0.61 0 -1.22 0 -1.83 0.1s-1.18 0.04 -1.78 0.15h-0.16Zm0.09 1.36L18.19 6l1.74 0h0.65a3.27 3.27 0 0 0 -0.1 0.56 1.37 1.37 0 0 0 0 0.35 2 2 0 0 0 0.07 0.35c0 0.18 0.1 0.34 0.15 0.5l-0.2 0.09a0.72 0.72 0 0 0 -0.35 0.44l-0.08 0.71 -0.5 0 -0.1 0a3.05 3.05 0 0 0 -0.11 -0.29 3.72 3.72 0 0 0 -0.25 -0.73 0.69 0.69 0 0 0 -0.38 -0.29 1.21 1.21 0 0 0 -0.34 -0.05l-0.47 0a8.24 8.24 0 0 0 -1.37 0.06 2.25 2.25 0 0 0 -1 0.4 0.74 0.74 0 0 0 -0.24 0.36 2.23 2.23 0 0 0 -0.16 0.62L15 9h-0.33l-0.26 0a1 1 0 0 1 0 -0.18 1.77 1.77 0 0 0 0 -0.52 0.82 0.82 0 0 0 -0.27 -0.46 0.56 0.56 0 0 0 -0.29 -0.13 1.73 1.73 0 0 0 -0.38 0c0.05 -0.22 0.11 -0.43 0.14 -0.65a1.82 1.82 0 0 0 0 -0.33 1.55 1.55 0 0 0 0 -0.31 0.14 0.14 0 0 1 0 -0.06c0.3 0.01 0.76 -0.09 1 -0.1Zm-11.69 0 1.31 -1.58s0 -0.13 0.1 -0.23c0.15 0.13 0.34 0.4 0.42 0.47a6.64 6.64 0 0 1 0.55 0.51l0.75 0.81L4 6.33l-1.27 0.15ZM5.94 18a1.42 1.42 0 0 1 -0.59 -0.13 3.64 3.64 0 0 1 -0.63 -0.36 3.94 3.94 0 0 0 -0.54 -0.31 0.61 0.61 0 0 0 -0.57 0 1.54 1.54 0 0 0 -0.29 0.28c-0.2 0.24 -0.32 0.57 -0.6 0.75a0.82 0.82 0 0 1 -0.19 0.09c0 -1.33 -0.09 -2.65 -0.12 -4 1.51 0.61 2.3 -0.21 2.25 -0.49s-0.85 -0.71 -2.26 -0.17l0 -1.45 0.08 -1.63c1.49 0.49 2.34 -0.15 2.33 -0.44s-1 -0.87 -2.3 -0.26l0.1 -2.18 1.5 -0.17 2.16 -0.11 0.3 0a3.49 3.49 0 0 1 0.17 1c0 0.79 -0.08 1.64 -0.09 2.32l0 3.44c0 1.15 0.15 2.26 0.27 3.36a3 3 0 0 1 -0.38 0.23 1.51 1.51 0 0 1 -0.6 0.23Zm5 -0.27a1.56 1.56 0 0 1 -1.13 -0.12L8.88 17a2.34 2.34 0 0 0 -0.53 -0.28 0.8 0.8 0 0 0 -0.41 0 1.18 1.18 0 0 0 -0.29 0.19q-0.08 -1.35 -0.09 -2.7l1.48 0h1.23c0.66 0 1.31 -0.08 2 -0.13 0 0.42 -0.08 0.83 -0.11 1.24s0 0.85 0 1.28v0.4l-0.07 0a2.59 2.59 0 0 1 -1.18 0.72Zm11.43 -6.18c-0.3 0.28 -0.64 0.56 -0.94 0.87a5.36 5.36 0 0 0 -0.4 0.43 0.6 0.6 0 0 0 -0.13 0.3 5.54 5.54 0 0 0 0 0.61l0.1 1.65c0 0.53 0.06 1.06 0.07 1.59l0 3.79a0.36 0.36 0 0 0 0 0.1 1.5 1.5 0 0 1 -1.11 -0.2l-0.85 -0.69a1.79 1.79 0 0 0 -0.5 -0.31 0.65 0.65 0 0 0 -0.41 0 0.79 0.79 0 0 0 -0.37 0.21c-0.14 0.12 -0.29 0.33 -0.39 0.4a2.59 2.59 0 0 1 -0.67 0.38 1.53 1.53 0 0 1 -0.66 0.11 1.57 1.57 0 0 1 -0.58 -0.17 3.76 3.76 0 0 1 -0.6 -0.41 4.81 4.81 0 0 0 -0.51 -0.35 0.62 0.62 0 0 0 -0.58 0 1.48 1.48 0 0 0 -0.31 0.25c-0.21 0.21 -0.35 0.51 -0.61 0.68 0.1 -1 0.21 -1.9 0.29 -2.86 0 -0.43 0 -0.86 0.06 -1.28s0 -0.86 0 -1.29c0 -0.94 -0.14 -1.86 -0.23 -2.79a0.33 0.33 0 0 0 0 -0.45l-0.86 -0.8 -0.29 -0.22a2.89 2.89 0 0 1 -0.21 -0.9 7.53 7.53 0 0 1 0 -1.26 1.66 1.66 0 0 0 0.32 -0.12 2.07 2.07 0 0 1 0.49 -0.12 6.29 6.29 0 0 1 0.86 0h0.13a2.27 2.27 0 0 0 0 0.44 0.88 0.88 0 0 0 0.15 0.51 1 1 0 0 0 0.41 0.28 2.72 2.72 0 0 0 0.6 0.13h0.51a4.12 4.12 0 0 0 0.58 0 0.75 0.75 0 0 0 0.41 -0.21 0.92 0.92 0 0 0 0.22 -0.54 2.73 2.73 0 0 0 0.1 -0.48l0.33 -0.06a7.55 7.55 0 0 1 1.16 0h0.31l0 0.18a2.24 2.24 0 0 0 0.28 0.74 1.26 1.26 0 0 0 0.84 0.45l1 0.08h0.23a0.59 0.59 0 0 0 0.53 -0.33 1.55 1.55 0 0 0 0.13 -0.36 5.82 5.82 0 0 0 0.05 -0.6l0.09 -0.06a2.89 2.89 0 0 1 0.49 -0.07 8.24 8.24 0 0 1 0.86 0h0.09v0.11c0 0.2 0.05 0.41 0.06 0.61s0 0.67 0 1l0 0.49Z" fill="#020202" stroke-width="1"></path>
    <path d="M17.32 11.83a2.46 2.46 0 0 0 -1.92 0.95 3 3 0 0 0 -0.49 1.41 6.71 6.71 0 0 0 0.18 2 0.32 0.32 0 0 0 0.36 0.26 0.35 0.35 0 0 0 0.15 -0.07 9.86 9.86 0 0 1 1 0.11l0.46 0a4 4 0 0 0 0.49 0c0.4 0 0.78 -0.1 1.16 -0.14a0.37 0.37 0 0 0 0.38 -0.34 0.39 0.39 0 0 0 0.12 -0.24 8.77 8.77 0 0 0 0.11 -1.55 3.29 3.29 0 0 0 -0.23 -1.12 2 2 0 0 0 -1.77 -1.27Zm-0.55 3.46a3.83 3.83 0 0 0 -1.06 0.32 5.56 5.56 0 0 1 0.07 -1 2.11 2.11 0 0 1 0.51 -1.12 1.38 1.38 0 0 1 1 -0.47 0.94 0.94 0 0 1 0.88 0.49 2.24 2.24 0 0 1 0.28 0.76 6.71 6.71 0 0 1 0.07 1.26 9 9 0 0 0 -0.93 -0.22 3.94 3.94 0 0 0 -0.82 -0.02Z" fill="#4C57E6" stroke-width="1"></path>
  </g>
</svg>