<svg xmlns="http://www.w3.org/2000/svg" viewBox="0 0 24 24" id="History-Geisha--Streamline-Freehand">
  <desc>
    History Geisha Streamline Icon: https://streamlinehq.com
  </desc>
  <g>
    <path d="M14.18 12.6a6.16 6.16 0 0 0 -3.08 -0.95 0.32 0.32 0 0 0 0 0.63 5.47 5.47 0 0 1 2.78 1 6.28 6.28 0 0 1 2.48 2.61 4.93 4.93 0 0 1 0.33 3.6 4.65 4.65 0 0 1 -2.12 2.84 4.65 4.65 0 0 1 -1.48 0.51 8.24 8.24 0 0 1 -1.64 0.12 6.76 6.76 0 0 1 -3 -0.68 3.91 3.91 0 0 1 -1.97 -2.18 6.93 6.93 0 0 1 -0.3 -3.49 7.67 7.67 0 0 1 1.4 -3.28 5.1 5.1 0 0 1 1.21 -1.14 3 3 0 0 1 1.49 -0.56 0.29 0.29 0 0 0 0.27 -0.29 0.28 0.28 0 0 0 -0.28 -0.27 3.66 3.66 0 0 0 -1.82 0.61 5.46 5.46 0 0 0 -1.4 1.24 8.39 8.39 0 0 0 -1.67 3.54 7.81 7.81 0 0 0 0.2 3.95 4.76 4.76 0 0 0 2.35 2.76 7.77 7.77 0 0 0 3.45 0.83 8.82 8.82 0 0 0 1.85 -0.14 5.53 5.53 0 0 0 1.77 -0.65 5.64 5.64 0 0 0 2.54 -3.51 5.82 5.82 0 0 0 -0.53 -4.25 7 7 0 0 0 -2.83 -2.85Z" fill="#020202" fill-rule="evenodd" stroke-width="1"></path>
    <path d="M19.18 9.52a2 2 0 0 0 0.82 -1.2 2.31 2.31 0 0 0 0 -1.41 2 2 0 0 0 -0.65 -0.84 1.54 1.54 0 0 0 -1.09 -0.31l-0.3 0a2 2 0 0 0 -0.39 -1 2.07 2.07 0 0 0 -1.09 -0.71 1.4 1.4 0 0 0 -1.67 0.68 2.2 2.2 0 0 0 -0.14 1.81l-0.28 -0.07a1.05 1.05 0 0 0 -0.47 0 1.27 1.27 0 0 0 -0.78 0.79 2 2 0 0 0 0.06 1.55 1.61 1.61 0 0 0 0.66 0.72 1.84 1.84 0 0 0 0.93 0.25l0.19 0 0 0.09a1.88 1.88 0 0 0 0 0.47 1.65 1.65 0 0 0 0.95 1.13 1.75 1.75 0 0 0 1.48 0 2.33 2.33 0 0 0 1.1 -1.51 2.52 2.52 0 0 0 0.05 -0.37l0.23 0a1.54 1.54 0 0 0 0.39 -0.07Zm-0.74 -0.86h-0.28l-0.14 0 -0.09 -0.05c-0.65 -0.3 -1.67 -0.14 -0.58 0.88 0.15 0.14 0.1 0.37 0 0.58a1.2 1.2 0 0 1 -0.5 0.65 0.69 0.69 0 0 1 -0.61 0 0.65 0.65 0 0 1 -0.43 -0.42 0.78 0.78 0 0 1 0 -0.26c0 -0.22 0.13 -0.42 0.16 -0.66A0.49 0.49 0 0 0 15.9 9a0.45 0.45 0 0 0 -0.33 -0.17 0.46 0.46 0 0 0 -0.26 0c-0.39 0.21 -0.24 0.16 -0.56 0.2a1 1 0 0 1 -0.54 -0.03 0.93 0.93 0 0 1 -0.38 -0.38 1.22 1.22 0 0 1 -0.12 -0.79 0.71 0.71 0 0 1 0.39 -0.56 0.59 0.59 0 0 1 0.32 0 3.67 3.67 0 0 1 0.47 0.16c0.19 0.08 0.5 -0.12 0.54 -0.15a0.29 0.29 0 0 0 0 -0.4 1.41 1.41 0 0 1 -0.22 -1.43 0.78 0.78 0 0 1 1 -0.56 1.18 1.18 0 0 1 0.64 0.47 1.13 1.13 0 0 1 0.18 0.73c0 0.1 -0.13 0.3 -0.17 0.44a0.79 0.79 0 0 0 0 0.34 0.43 0.43 0 0 0 0.53 0.39 0.54 0.54 0 0 0 0.29 -0.14c0.38 -0.34 0.2 -0.23 0.6 -0.36a0.59 0.59 0 0 1 0.4 0.15 1 1 0 0 1 0.31 0.43A1.21 1.21 0 0 1 19 8a0.86 0.86 0 0 1 -0.35 0.55 0.48 0.48 0 0 1 -0.21 0.11Z" fill="#4C57E6" fill-rule="evenodd" stroke-width="1"></path>
    <path d="M23.51 14.91a7.07 7.07 0 0 0 -0.69 -2.23 4.1 4.1 0 0 0 -3 -2.36 0.29 0.29 0 0 0 -0.34 0.22 0.28 0.28 0 0 0 0.22 0.33 3.45 3.45 0 0 1 2.3 2.19 7.15 7.15 0 0 1 0.45 2 8.22 8.22 0 0 1 -0.18 3.05 3.67 3.67 0 0 1 -1.15 2 3 3 0 0 1 -2.17 0.67 0.32 0.32 0 0 0 -0.07 0.63 3.63 3.63 0 0 0 2.74 -0.65 4.69 4.69 0 0 0 1.63 -2.34 8.58 8.58 0 0 0 0.26 -3.51Z" fill="#020202" fill-rule="evenodd" stroke-width="1"></path>
    <path d="M5.44 21.34a5.34 5.34 0 0 1 -0.89 0.07 2 2 0 0 1 -0.55 -0.08 2.75 2.75 0 0 1 -1.5 -1.17 6.77 6.77 0 0 1 -1 -2.89 3.49 3.49 0 0 1 0.06 -1.06 7.69 7.69 0 0 1 0.32 -1.11 12.67 12.67 0 0 1 1.77 -3.6 4.06 4.06 0 0 1 1.85 -1.43 1.34 1.34 0 0 0 0 0.2A4 4 0 0 0 6 12a3.39 3.39 0 0 0 0.4 0.54 1 1 0 0 0 0.48 0.28 0.28 0.28 0 0 0 0.34 -0.21 0.28 0.28 0 0 0 -0.22 -0.34c-0.09 0 -0.15 -0.12 -0.22 -0.21a2 2 0 0 1 -0.2 -0.37 3.39 3.39 0 0 1 -0.24 -1.43 3.23 3.23 0 0 1 0.35 -1.37A4.35 4.35 0 0 1 8 7.32a5 5 0 0 1 1.17 -0.71 4 4 0 0 1 3.37 0 0.33 0.33 0 0 0 0.43 -0.13 0.32 0.32 0 0 0 -0.13 -0.43 4.73 4.73 0 0 0 -4 -0.35 5.2 5.2 0 0 0 -1.47 0.78 5.12 5.12 0 0 0 -1.56 2 2 2 0 0 0 -0.06 0.26l-0.05 -0.07a1.27 1.27 0 0 1 -0.41 -0.48 3.33 3.33 0 0 1 -0.33 -1A4.9 4.9 0 0 1 5 4.85a5.07 5.07 0 0 1 1.1 -2 5.21 5.21 0 0 1 2.45 -1.5 9.46 9.46 0 0 1 3 -0.41l1.11 0a2.68 2.68 0 0 1 0.64 0.12 2.42 2.42 0 0 1 0.49 0.23c0.26 0.15 0.52 0.34 0.77 0.49a7.74 7.74 0 0 1 0.94 0.65A2.5 2.5 0 0 1 16 3a0.32 0.32 0 0 0 0.44 0.09 0.31 0.31 0 0 0 0.09 -0.44A3.76 3.76 0 0 0 16 2a8.08 8.08 0 0 0 -1 -0.77c-0.25 -0.18 -0.5 -0.38 -0.76 -0.56a4.12 4.12 0 0 0 -0.62 -0.33 4 4 0 0 0 -0.83 -0.21C12.4 0.07 12 0.05 11.62 0a9.38 9.38 0 0 0 -3.34 0.36 6 6 0 0 0 -2.92 1.83 5.93 5.93 0 0 0 -1.17 2.45 5.73 5.73 0 0 0 0 2.67 4.13 4.13 0 0 0 0.48 1.17 1.84 1.84 0 0 0 0.63 0.64 0.27 0.27 0 0 0 0.23 0c0 0.1 0 0.21 -0.05 0.31A4.73 4.73 0 0 0 3 11a13.58 13.58 0 0 0 -2.12 3.72 7.9 7.9 0 0 0 -0.42 1.56 3.7 3.7 0 0 0 0 1.15 7.67 7.67 0 0 0 1.37 3.25 3.56 3.56 0 0 0 2 1.36 2.84 2.84 0 0 0 0.71 0.06 6.8 6.8 0 0 0 1 -0.14 0.31 0.31 0 1 0 -0.1 -0.62Z" fill="#020202" fill-rule="evenodd" stroke-width="1"></path>
    <path d="M12.4 16.57c0.19 -0.14 0.42 -0.19 0.63 -0.34a2.31 2.31 0 0 0 0.29 -0.24 2.21 2.21 0 0 1 0.43 -0.38 0.32 0.32 0 0 0 0.25 -0.37 0.32 0.32 0 0 0 -0.38 -0.25 1.82 1.82 0 0 0 -0.82 0.14 1.28 1.28 0 0 0 -0.3 0.17 0.84 0.84 0 0 0 -0.23 0.23 2.18 2.18 0 0 0 -0.32 0.72 0.28 0.28 0 1 0 0.45 0.32Z" fill="#020202" fill-rule="evenodd" stroke-width="1"></path>
    <path d="M9.43 15.81a1.18 1.18 0 0 0 -0.53 -0.46 2.07 2.07 0 0 0 -0.8 -0.15 0.32 0.32 0 0 0 -0.39 0.22 0.32 0.32 0 0 0 0.22 0.39 2.74 2.74 0 0 1 0.43 0.39 2.83 2.83 0 0 0 0.25 0.24 5.81 5.81 0 0 1 0.57 0.39 0.28 0.28 0 0 0 0.37 0.11 0.28 0.28 0 0 0 0.12 -0.38 2.2 2.2 0 0 0 -0.24 -0.75Z" fill="#020202" fill-rule="evenodd" stroke-width="1"></path>
    <path d="M11.2 19.39a2.27 2.27 0 0 1 -0.52 0 1.15 1.15 0 0 1 -0.53 -0.17 0.28 0.28 0 0 0 -0.4 0 0.27 0.27 0 0 0 0 0.39 1.88 1.88 0 0 0 1.2 0.79 1.75 1.75 0 0 0 0.72 0 1.94 1.94 0 0 0 0.69 -0.29 2.18 2.18 0 0 0 0.35 -0.32c0.12 -0.15 0.22 -0.31 0.33 -0.47a0.32 0.32 0 0 0 0 -0.45 0.33 0.33 0 0 0 -0.45 0 4 4 0 0 1 -0.41 0.31 0.65 0.65 0 0 1 -0.23 0.09 2.5 2.5 0 0 1 -0.29 0.05Z" fill="#020202" fill-rule="evenodd" stroke-width="1"></path>
  </g>
</svg>