<svg xmlns="http://www.w3.org/2000/svg" viewBox="0 0 24 24" id="Hotel-Double-Bed--Streamline-Freehand">
  <desc>
    Hotel Double Bed Streamline Icon: https://streamlinehq.com
  </desc>
  <g>
    <path d="M23.34 11.47a1.08 1.08 0 0 0 -0.33 -0.2 3.36 3.36 0 0 0 -0.59 -0.07L20 11l-6 -0.26c-1.63 -0.08 -3.27 -0.09 -4.91 -0.05s-3.26 0.12 -4.88 0.25q-0.7 0 -1.41 0.15a7.88 7.88 0 0 0 -0.94 0.2 9.51 9.51 0 0 0 -1 0.19 1 1 0 0 0 -0.55 0.39 1.34 1.34 0 0 0 -0.11 0.51l0 1.53s-0.18 4.83 -0.19 5.8a10.75 10.75 0 0 0 0.18 1.93 0.35 0.35 0 0 0 0.38 0.3 0.33 0.33 0 0 0 0.3 -0.38l0 -1.65 0 -1.12 0 -1a0.34 0.34 0 0 0 0.33 0.14 11.75 11.75 0 0 1 2.05 -0.07c1 0.05 2.1 0.19 3.17 0.26 0.65 0 1.29 0.06 1.93 0.07l2.87 0 5.75 0.12 2.28 0.06 1.22 0 1.6 0a2.2 2.2 0 0 0 0.42 -0.09l0 0.55c0 0.75 0.07 1.5 0.05 2.25a0.34 0.34 0 1 0 0.68 0.05 14.4 14.4 0 0 0 0.14 -1.85c0 -0.53 0 -1.05 -0.07 -1.58a4.11 4.11 0 0 0 0.31 -1.57l0.23 -2.27a6.11 6.11 0 0 0 0.11 -1.41 1.81 1.81 0 0 0 -0.6 -0.98Zm-0.69 2.34 -0.22 2.27c-0.05 0.49 0 0.86 -0.13 1.11 -0.06 0.09 -0.19 0.11 -0.39 0.14l-1.44 0h-1.23l-2.24 0h-5.79l-2.86 0 -1.89 0c-1.09 -0.05 -2.14 -0.17 -3.19 -0.2a12.32 12.32 0 0 0 -2.18 0.12 0.33 0.33 0 0 0 -0.25 0.19l0 -0.36a0.28 0.28 0 0 0 0.1 -0.24l-0.05 -3 0 -1.11a1.78 1.78 0 0 1 0.06 -0.57c0 -0.09 0.22 -0.08 0.37 -0.1s0.56 -0.07 0.71 -0.11a8.79 8.79 0 0 1 0.87 -0.15c0.44 -0.06 0.89 -0.09 1.34 -0.11 1.61 -0.08 3.23 -0.12 4.84 -0.12s3.23 0.06 4.83 0.18l6 0.33 2.33 0.19 0.34 0a0.72 0.72 0 0 1 0.17 0.32 4.73 4.73 0 0 1 -0.1 1.22Z" fill="#020202" fill-rule="evenodd" stroke-width="1"></path>
    <path d="M3.32 7.88a2 2 0 0 1 0.79 -0.25 16.34 16.34 0 0 1 2.42 0c0.47 0 1.29 -0.21 2 -0.22a1.49 1.49 0 0 1 0.62 0.06c0.18 0.09 0.3 0.4 0.4 0.72a5.33 5.33 0 0 1 0.23 1.07 0.34 0.34 0 0 0 0.35 0.33 0.35 0.35 0 0 0 0.34 -0.35 6.17 6.17 0 0 0 -0.29 -1.78 1.55 1.55 0 0 0 -0.59 -0.8 2.24 2.24 0 0 0 -1 -0.27c-0.69 0 -1.53 0.08 -2 0.08a18.69 18.69 0 0 0 -2.19 0.07 2.91 2.91 0 0 0 -1.56 0.65 1.69 1.69 0 0 0 -0.5 1.11 4.93 4.93 0 0 0 0.13 1.49 0.3 0.3 0 0 0 0.35 0.25 0.29 0.29 0 0 0 0.18 -0.36A4.85 4.85 0 0 1 3 8.6a1 1 0 0 1 0.32 -0.72Z" fill="#4C57E6" fill-rule="evenodd" stroke-width="1"></path>
    <path d="M21 9.65a0.34 0.34 0 0 0 0.36 -0.32 5.83 5.83 0 0 0 0 -1.82 1.62 1.62 0 0 0 -0.49 -0.86 2.05 2.05 0 0 0 -0.87 -0.42 14.57 14.57 0 0 0 -1.8 -0.18 16.69 16.69 0 0 0 -1.86 0 5.29 5.29 0 0 0 -1.34 0.21 3.59 3.59 0 0 0 -0.84 0.37 1.46 1.46 0 0 0 -0.51 0.57 1.41 1.41 0 0 0 -0.06 0.7A7.32 7.32 0 0 0 14 9.08a0.29 0.29 0 0 0 0.37 0.21 0.31 0.31 0 0 0 0.22 -0.37 6.48 6.48 0 0 1 -0.22 -0.92 0.79 0.79 0 0 1 0.05 -0.42 0.55 0.55 0 0 1 0.31 -0.19 3.53 3.53 0 0 1 0.55 -0.15 5.76 5.76 0 0 1 1.08 -0.09c0.57 0 1.14 0 1.73 0.07l1.47 0a1.42 1.42 0 0 1 0.7 0.16 0.87 0.87 0 0 1 0.31 0.55 6.27 6.27 0 0 1 0.07 1.35 0.34 0.34 0 0 0 0.36 0.37Z" fill="#4C57E6" fill-rule="evenodd" stroke-width="1"></path>
    <path d="m23.67 2.42 -6.33 -0.24c-2.69 0 -5.5 -0.07 -8.27 -0.06s-5.66 0.06 -8.27 0.11l-0.06 0a0.28 0.28 0 0 0 -0.27 -0.2 0.29 0.29 0 0 0 -0.31 0.29A9.71 9.71 0 0 0 0.07 4c0 0.49 0.09 1 0.12 1.58a0.35 0.35 0 0 0 0.35 0.35 0.35 0.35 0 0 0 0.34 -0.35c0 -0.58 0.06 -1.12 0 -1.62S0.85 3.17 0.81 2.84L17.33 3l5.81 0.11A10.65 10.65 0 0 0 23 4.34c0 0.43 0 0.93 0.08 1.63a0.35 0.35 0 0 0 0.69 0c0 -0.69 0.07 -1.17 0.08 -1.6s0 -0.83 0 -1.29a0.36 0.36 0 0 0 0.2 -0.3 0.34 0.34 0 0 0 -0.38 -0.36Z" fill="#020202" fill-rule="evenodd" stroke-width="1"></path>
  </g>
</svg>