<svg xmlns="http://www.w3.org/2000/svg" viewBox="0 0 24 24" id="House-Improvement-Renovation-Measurement-1--Streamline-Freehand">
  <desc>
    House Improvement Renovation Measurement 1 Streamline Icon: https://streamlinehq.com
  </desc>
  <title>house-improvement-renovation-measurement-1</title>
  <g>
    <path d="M7.27 5.15a0.35 0.35 0 0 0 -0.49 -0.05c-0.33 0.18 -0.65 0.34 -1 0.55 -0.13 0.09 -0.26 0.18 -0.38 0.28a2.57 2.57 0 0 0 -0.33 0.33c-0.25 0.3 -0.42 0.61 -0.64 0.93a0.31 0.31 0 0 0 0 0.44 0.3 0.3 0 0 0 0.43 0c0.33 -0.18 0.65 -0.32 1 -0.53a3.42 3.42 0 0 0 0.69 -0.62c0.25 -0.28 0.45 -0.56 0.68 -0.85a0.33 0.33 0 0 0 0.04 -0.48Z" fill="#4C57E6" stroke-width="1"></path>
    <path d="M23.9 11.57c-1.08 -1.2 -3.07 -3.42 -5.21 -5.39a32.3 32.3 0 0 0 -2.47 -2.09c-1.78 -1.33 -3.43 -2.15 -4.38 -2a3.88 3.88 0 0 0 -1.41 0.5A13.76 13.76 0 0 0 8.7 3.68a0.31 0.31 0 1 0 0.36 0.5 13.24 13.24 0 0 1 1.71 -0.95 3.22 3.22 0 0 1 1.13 -0.31 3.08 3.08 0 0 1 1.44 0.56A19.48 19.48 0 0 1 15.5 5c0.77 0.62 1.6 1.31 2.42 2 1.14 1 2.28 2 3.26 2.92a0.51 0.51 0 0 0 0 0.13c0 0.47 -0.37 2.27 -0.8 4.25 -0.54 2.54 -1.19 5.39 -1.41 6.08l-0.46 0a26.11 26.11 0 0 1 -3.18 0.24l0 -6.23a7.05 7.05 0 0 0 -0.08 -1.39 0.8 0.8 0 0 0 -0.34 -0.52 2.36 2.36 0 0 0 -0.76 -0.17c-0.4 -0.05 -0.94 -0.08 -1.51 -0.09a0.31 0.31 0 0 0 -0.33 0.29 0.33 0.33 0 0 0 0.3 0.33c0.46 0 0.89 0.08 1.24 0.12a5.35 5.35 0 0 1 0.64 0.12l0 1.38c0 0.67 -0.23 3.47 -0.32 5.33l0 1.36a0.63 0.63 0 0 0 0.44 0.6 3.62 3.62 0 0 0 1.07 0.1 25.75 25.75 0 0 0 3.5 -0.33 1.27 1.27 0 0 0 0.76 -0.38c0.09 -0.18 0.54 -2.19 1 -4.48s0.85 -5 1 -6.11c0.62 0.57 1.16 1.09 1.56 1.49a0.36 0.36 0 0 0 0.5 0 0.34 0.34 0 0 0 -0.1 -0.47Z" fill="#020202" stroke-width="1"></path>
    <path d="M2.9 13.32a0.35 0.35 0 0 0 0.33 -0.32c0 -0.46 0.11 -0.85 0.14 -1.22a4.51 4.51 0 0 0 0 -0.52 4.35 4.35 0 0 0 -0.06 -0.52c-0.08 -0.37 -0.19 -0.7 -0.3 -1l0.34 -0.45a0.35 0.35 0 1 0 -0.48 -0.51c-0.4 0.28 -0.8 0.56 -1.18 0.86l-0.46 0.36c-0.14 0.16 -0.28 0.32 -0.4 0.48a9.88 9.88 0 0 0 -0.76 1.27 0.3 0.3 0 0 0 0 0.43 0.3 0.3 0 0 0 0.43 0c0.33 -0.29 0.72 -0.55 1.11 -0.89 0.15 -0.13 0.29 -0.28 0.43 -0.42l0.1 -0.12 0 0.1a4.34 4.34 0 0 0 0 0.51 5 5 0 0 0 0.07 0.52c0.07 0.36 0.18 0.74 0.28 1.19a0.35 0.35 0 0 0 0.41 0.25Z" fill="#4C57E6" stroke-width="1"></path>
    <path d="M3.6 17.83c0 -0.23 0.09 -0.52 0.12 -0.86l0 -0.37a2.38 2.38 0 0 0 -0.06 -0.37 6.23 6.23 0 0 0 -0.33 -0.83 0.31 0.31 0 0 0 -0.33 -0.29 0.33 0.33 0 0 0 -0.29 0.34 6.75 6.75 0 0 0 -0.18 0.88 2.28 2.28 0 0 0 0 0.37 2.41 2.41 0 0 0 0.07 0.37c0.09 0.34 0.21 0.63 0.29 0.85a0.36 0.36 0 0 0 0.4 0.3 0.34 0.34 0 0 0 0.31 -0.39Z" fill="#4C57E6" stroke-width="1"></path>
    <path d="M5.14 21.22a9.27 9.27 0 0 1 -0.89 -0.3 8.31 8.31 0 0 1 -0.37 -1 0.31 0.31 0 0 0 -0.35 -0.26 0.32 0.32 0 0 0 -0.26 0.36 5.59 5.59 0 0 0 0 1.16 0.82 0.82 0 0 0 0.37 0.55 2.1 2.1 0 0 0 0.63 0.2 3.2 3.2 0 0 0 0.89 0 0.36 0.36 0 0 0 0.37 -0.34 0.35 0.35 0 0 0 -0.39 -0.37Z" fill="#4C57E6" stroke-width="1"></path>
    <path d="M8.68 19.55a0.34 0.34 0 0 0 -0.31 0.38 2.3 2.3 0 0 0 0 0.85s-0.22 0.08 -0.26 0.09a7.7 7.7 0 0 1 -0.86 0.29 0.31 0.31 0 0 0 -0.31 0.31 0.3 0.3 0 0 0 0.3 0.31A4.24 4.24 0 0 0 8.6 22a0.79 0.79 0 0 0 0.68 -0.51 1.34 1.34 0 0 0 0.07 -0.58 7.68 7.68 0 0 0 -0.28 -1 0.36 0.36 0 0 0 -0.39 -0.36Z" fill="#4C57E6" stroke-width="1"></path>
    <path d="M9.22 16a0.36 0.36 0 0 0 -0.36 -0.35 0.36 0.36 0 0 0 -0.35 0.36c0 0.19 -0.15 0.43 -0.21 0.73a1.26 1.26 0 0 0 -0.05 0.33 1.83 1.83 0 0 0 0 0.33 4.35 4.35 0 0 0 0.25 0.77 0.31 0.31 0 0 0 0.32 0.3 0.3 0.3 0 0 0 0.3 -0.32 6.41 6.41 0 0 0 0.26 -0.73 1.12 1.12 0 0 0 0 -0.32 1.84 1.84 0 0 0 0 -0.33 7.88 7.88 0 0 0 -0.16 -0.77Z" fill="#4C57E6" stroke-width="1"></path>
    <path d="M10.94 12.3a8.11 8.11 0 0 0 -1.38 -0.16 1.4 1.4 0 0 0 -0.9 0.33 1.21 1.21 0 0 0 -0.23 0.67 5.54 5.54 0 0 0 0.09 1 0.31 0.31 0 0 0 0.3 0.33 0.3 0.3 0 0 0 0.32 -0.3c0.06 -0.2 0.13 -1 0.3 -1.1s1.25 -0.07 1.5 -0.12a0.35 0.35 0 0 0 0 -0.7Z" fill="#4C57E6" stroke-width="1"></path>
  </g>
</svg>