<svg xmlns="http://www.w3.org/2000/svg" viewBox="0 0 24 24" id="House-Improvement-Renovation-Pipe-Fix--Streamline-Freehand">
  <desc>
    House Improvement Renovation Pipe Fix Streamline Icon: https://streamlinehq.com
  </desc>
  <title>house-improvement-renovation-pipe-fix</title>
  <g>
    <path d="M23.84 21.83a16.79 16.79 0 0 0 -1 -1.62C22 19 21.09 17.86 20.49 17a4.56 4.56 0 0 0 0.79 -2 4.63 4.63 0 0 0 -0.42 -2.47 4.08 4.08 0 0 0 -1.34 -1.57 5.05 5.05 0 0 0 -1.86 -0.8l-0.74 -0.1a0.53 0.53 0 0 0 -0.47 0.23 0.57 0.57 0 0 0 -0.07 0.52 4.28 4.28 0 0 1 0.33 1.38 2 2 0 0 1 -0.29 1.2 1 1 0 0 1 -1.27 0.43A4.6 4.6 0 0 1 12.88 12a0.57 0.57 0 0 0 -0.43 -0.25 0.54 0.54 0 0 0 -0.45 0.18 4.89 4.89 0 0 0 -0.55 0.74 3.88 3.88 0 0 0 -0.38 0.86 4.2 4.2 0 0 0 1.27 4.35 5.54 5.54 0 0 0 4 1.53l3 4.55a0.29 0.29 0 0 0 0.41 0.09 0.28 0.28 0 0 0 0.09 -0.4l-3 -4.87a0.4 0.4 0 0 0 -0.36 -0.18A4.61 4.61 0 0 1 13 17.11a3.07 3.07 0 0 1 -0.6 -4 5.73 5.73 0 0 0 2.43 1.68 2 2 0 0 0 2.54 -0.91 2.94 2.94 0 0 0 0.45 -1.48 4 4 0 0 0 -0.14 -1.24 3.93 3.93 0 0 1 1.26 0.54 3 3 0 0 1 1 1.15 3.63 3.63 0 0 1 0.41 2 3.76 3.76 0 0 1 -0.73 1.87 0.41 0.41 0 0 0 0 0.48c0.61 0.94 1.7 2.17 2.63 3.47a13.57 13.57 0 0 1 1 1.52 0.34 0.34 0 1 0 0.59 -0.32Z" fill="#020202" stroke-width="1"></path>
    <path d="M12.75 7.74a0.91 0.91 0 0 0 0.48 -0.42 1.52 1.52 0 0 0 0.15 -0.61c1.1 0.11 2.2 0.22 3.27 0.27l1.56 0 1.56 0c1.53 -0.06 2.81 -0.17 3.63 -0.22a0.34 0.34 0 0 0 0.34 -0.34 0.35 0.35 0 0 0 -0.34 -0.33c-0.82 0 -2.1 -0.12 -3.63 -0.17l-1.56 0 -1.55 0c-1.06 0 -2.15 0.11 -3.24 0.17l0 -0.54 0 -1.38 -0.16 -2.34c1.11 0.09 2.19 0.19 3.24 0.25l1.59 0 1.59 0c1.59 0 2.9 -0.11 3.72 -0.15a0.32 0.32 0 0 0 0.34 -0.33 0.34 0.34 0 0 0 -0.33 -0.34c-0.82 -0.05 -2.12 -0.16 -3.71 -0.24Q18.91 1 18.08 1l-1.6 0c-1.08 0 -2.2 0.11 -3.34 0.18A2.19 2.19 0 0 0 13 0.82a1.16 1.16 0 0 0 -0.52 -0.58A1.71 1.71 0 0 0 12 0.07C11.58 0 9.64 0 9.28 0a7.73 7.73 0 0 0 -1.15 0.07 2.32 2.32 0 0 0 -0.53 0.17 0.81 0.81 0 0 0 -0.27 0.25 1.85 1.85 0 0 0 -0.24 0.61C6.33 1 5.6 1 4.92 0.94l-1 0 -1 0a22.29 22.29 0 0 0 -2.45 0.35 0.3 0.3 0 0 0 -0.26 0.33 0.29 0.29 0 0 0 0.32 0.26C1 1.9 1.79 2 2.85 2h1l1 0L7 1.82l0 1.72v1.4c0 0.23 0 0.59 -0.06 1 -0.7 -0.05 -1.37 -0.12 -2 -0.15l-1 0 -1 0a21.66 21.66 0 0 0 -2.44 0.35 0.31 0.31 0 0 0 -0.27 0.32 0.3 0.3 0 0 0 0.33 0.27c0.51 0 1.34 0.09 2.4 0.13l1 0 1 0 2 -0.18a1.65 1.65 0 0 0 0.24 0.69 0.89 0.89 0 0 0 0.51 0.35 3.1 3.1 0 0 0 0.77 0.08l2.16 0c0.42 0 0.9 0.09 1.36 0.07a3 3 0 0 0 0.75 -0.13Zm-2.09 -1 -2.13 -0.11a3.2 3.2 0 0 1 -0.45 0A2.3 2.3 0 0 1 8 6.18l0 -1.24 0 -1.42c0 -0.43 -0.14 -1.09 -0.14 -1.7A1.94 1.94 0 0 1 8 0.91L8.31 0.8a6.6 6.6 0 0 1 1 -0.12 9.46 9.46 0 0 1 2.43 0.08 1 1 0 0 1 0.42 0.12 0.53 0.53 0 0 1 0.22 0.33 3.08 3.08 0 0 1 0.06 0.61l0 2.36 0 1.34a8.31 8.31 0 0 1 -0.07 0.86 1.08 1.08 0 0 1 -0.1 0.37 2.32 2.32 0 0 1 -0.46 0c-0.38 0.01 -0.81 -0.06 -1.15 -0.06Z" fill="#020202" stroke-width="1"></path>
    <path d="M9.51 9.76A10 10 0 0 0 9.16 11a2.22 2.22 0 0 0 -0.05 0.45 2 2 0 0 0 0 0.43c0 0.42 0.12 0.79 0.16 1a0.34 0.34 0 0 0 0.67 0c0 -0.24 0.17 -0.6 0.23 -1a3.25 3.25 0 0 0 0.05 -0.69 3.19 3.19 0 0 0 -0.32 -1.33 0.29 0.29 0 0 0 -0.39 -0.1Z" fill="#4C57E6" stroke-width="1"></path>
    <path d="M9.39 18.72a0.34 0.34 0 0 0 0.34 -0.34c0 -0.25 0.17 -0.53 0.23 -0.84A3 3 0 0 0 10 17a2 2 0 0 0 -0.39 -1.19 0.28 0.28 0 0 0 -0.41 0s-0.05 -0.1 -0.3 1.06a3.31 3.31 0 0 0 0 0.33l0 0.37a7.91 7.91 0 0 0 0.17 0.87 0.34 0.34 0 0 0 0.32 0.28Z" fill="#4C57E6" stroke-width="1"></path>
    <path d="M9.73 20.9a0.29 0.29 0 0 0 -0.41 -0.09s-0.33 0.75 -0.35 0.82a1 1 0 0 0 0 0.52 3.86 3.86 0 0 0 0.18 0.62 0.34 0.34 0 1 0 0.67 0 4.59 4.59 0 0 0 0.21 -0.6 1.15 1.15 0 0 0 0 -0.41 1.51 1.51 0 0 0 -0.3 -0.86Z" fill="#4C57E6" stroke-width="1"></path>
    <path d="M1.78 18.37s-0.7 0.42 -0.76 0.47a0.88 0.88 0 0 0 -0.18 0.2 1.59 1.59 0 0 0 -0.13 0.22 4 4 0 0 0 -0.2 0.62 0.32 0.32 0 0 0 0.08 0.46c0.07 0.05 0.26 0.23 1 -0.45a1.52 1.52 0 0 0 0.26 -0.32 1.56 1.56 0 0 0 0.22 -0.9 0.28 0.28 0 0 0 -0.29 -0.3Z" fill="#4C57E6" stroke-width="1"></path>
    <path d="M7 9.5a7.26 7.26 0 0 0 -0.93 0.9 4.09 4.09 0 0 0 -0.37 0.64c-0.16 0.32 -0.27 0.65 -0.45 1a0.35 0.35 0 0 0 0.06 0.47 0.33 0.33 0 0 0 0.47 -0.06 6.72 6.72 0 0 0 0.8 -0.8 3.37 3.37 0 0 0 0.28 -0.38 3.11 3.11 0 0 0 0.22 -0.4c0.15 -0.32 0.23 -0.65 0.39 -1a0.3 0.3 0 0 0 0 -0.42 0.31 0.31 0 0 0 -0.47 0.05Z" fill="#4C57E6" stroke-width="1"></path>
    <path d="M4.44 14.23a6.64 6.64 0 0 0 -0.77 0.57 2.43 2.43 0 0 0 -0.26 0.3 3 3 0 0 0 -0.2 0.34c-0.16 0.3 -0.26 0.58 -0.38 0.83a0.34 0.34 0 1 0 0.53 0.41 7.24 7.24 0 0 0 0.7 -0.61 3.58 3.58 0 0 0 0.26 -0.29 2.2 2.2 0 0 0 0.21 -0.32c0.15 -0.29 0.23 -0.57 0.36 -0.84a0.3 0.3 0 0 0 0 -0.42 0.31 0.31 0 0 0 -0.45 0.03Z" fill="#4C57E6" stroke-width="1"></path>
    <path d="M13.84 9.89a4.25 4.25 0 0 0 -0.84 -0.56 0.29 0.29 0 0 0 -0.41 0 0.3 0.3 0 0 0 0 0.42c0.15 0.29 0.21 0.53 0.33 0.75a1.67 1.67 0 0 0 0.18 0.28 2.73 2.73 0 0 0 0.23 0.25 6.46 6.46 0 0 0 0.68 0.54 0.33 0.33 0 0 0 0.47 0 0.32 0.32 0 0 0 0 -0.47c-0.14 -0.27 -0.2 -0.51 -0.33 -0.75a2.11 2.11 0 0 0 -0.31 -0.46Z" fill="#4C57E6" stroke-width="1"></path>
  </g>
</svg>