<svg xmlns="http://www.w3.org/2000/svg" viewBox="0 0 24 24" id="House-Improvement-Renovation-Measurement-3--Streamline-Freehand">
  <desc>
    House Improvement Renovation Measurement 3 Streamline Icon: https://streamlinehq.com
  </desc>
  <title>house-improvement-renovation-measurement-3</title>
  <g>
    <path d="M8.43 10.51a2.46 2.46 0 0 0 -0.75 -0.66 2.79 2.79 0 0 0 -0.88 -0.35 2.93 2.93 0 0 0 -1.62 0.15 2.66 2.66 0 0 0 -1.79 3.08 2.3 2.3 0 0 0 1.54 1.72 3.89 3.89 0 0 0 2.37 0.13 2.5 2.5 0 0 0 1.33 -1.1 2.68 2.68 0 0 0 0.29 -1.55 2.92 2.92 0 0 0 -0.49 -1.42Zm-0.75 2.34a1.49 1.49 0 0 1 -1 0.73 3.58 3.58 0 0 1 -1.49 -0.08 1.42 1.42 0 0 1 -1 -1 1.66 1.66 0 0 1 1.28 -2.14 2.23 2.23 0 0 1 1.18 0 1.83 1.83 0 0 1 0.55 0.29 1.57 1.57 0 0 1 0.41 0.4 2 2 0 0 1 0.24 0.93 1.6 1.6 0 0 1 -0.17 0.87Z" fill="#020202" stroke-width="1"></path>
    <path d="M14 13.34a0.41 0.41 0 0 0 0.07 0.15 0.3 0.3 0 0 0 0.47 0.06c0.11 -0.08 0.12 -0.49 0.11 -0.62a21.4 21.4 0 0 1 0 -2.9c0 -0.11 1.86 -2.89 3.55 -5.26l0.34 -0.48 0.93 0.92c0.24 0.17 0.47 0.36 0.72 0.51s0.53 0.29 0.81 0.43l0.24 0.14s-0.05 0.09 -0.08 0.14a56.11 56.11 0 0 1 -3.83 5.45 1.78 1.78 0 0 1 -0.57 0.32c-0.54 0.26 -1.27 0.54 -1.79 0.8a0.3 0.3 0 0 0 -0.15 0.4 0.3 0.3 0 0 0 0.4 0.14c0.62 -0.27 1.52 -0.57 2.08 -0.83a1.84 1.84 0 0 0 0.6 -0.4A47.06 47.06 0 0 0 22.65 6a6 6 0 0 0 1.09 -3.52A2.5 2.5 0 0 0 22.49 0.67a2.51 2.51 0 0 0 -2.23 -0.08A11.14 11.14 0 0 0 18 3.28C16.14 6 13.91 9.77 13.89 9.91A23 23 0 0 0 14 13Zm6 -11a3.56 3.56 0 0 1 0.72 -0.76 1.38 1.38 0 0 1 1.2 0 1.46 1.46 0 0 1 0.69 1A2.82 2.82 0 0 1 22.33 4a14.48 14.48 0 0 1 -0.69 1.46l-0.14 -0.15c-0.23 -0.21 -0.43 -0.42 -0.66 -0.61a7.67 7.67 0 0 0 -0.74 -0.53c-0.09 0 -0.77 -0.36 -1.15 -0.56 0.4 -0.39 0.76 -0.86 1.05 -1.23Z" fill="#020202" stroke-width="1"></path>
    <path d="M1.29 19.7a0.33 0.33 0 0 0 -0.35 -0.33 0.34 0.34 0 0 0 -0.33 0.34c0 0.35 -0.14 0.78 -0.19 1.25A4.88 4.88 0 0 0 0.4 22a12.21 12.21 0 0 0 0.26 1.27 0.3 0.3 0 0 0 0.34 0.33 0.31 0.31 0 0 0 0.29 -0.31c0.05 -0.35 0.17 -0.77 0.23 -1.25a4.58 4.58 0 0 0 0 -0.53 4.63 4.63 0 0 0 0 -0.54c-0.08 -0.49 -0.17 -0.92 -0.23 -1.27Z" fill="#4C57E6" stroke-width="1"></path>
    <path d="M8.85 19.73a0.34 0.34 0 0 0 -0.68 0c-0.05 0.35 -0.14 0.78 -0.2 1.25a4.89 4.89 0 0 0 0 0.54 3.25 3.25 0 0 0 0 0.54 10.06 10.06 0 0 0 0.26 1.27 0.3 0.3 0 1 0 0.59 0c0.06 -0.35 0.18 -0.77 0.24 -1.24a4.88 4.88 0 0 0 0 -1.08c-0.06 -0.49 -0.15 -0.93 -0.21 -1.28Z" fill="#4C57E6" stroke-width="1"></path>
    <path d="M16.4 19.73a0.34 0.34 0 0 0 -0.35 -0.33 0.33 0.33 0 0 0 -0.33 0.34c-0.05 0.35 -0.14 0.78 -0.2 1.25l0 0.54a4.89 4.89 0 0 0 0 0.54 12.43 12.43 0 0 0 0.25 1.27 0.3 0.3 0 0 0 0.31 0.29 0.29 0.29 0 0 0 0.29 -0.31c0.06 -0.35 0.18 -0.77 0.24 -1.24a4.89 4.89 0 0 0 0 -0.54l0 -0.54c-0.06 -0.48 -0.15 -0.92 -0.21 -1.27Z" fill="#4C57E6" stroke-width="1"></path>
    <path d="M23.7 19.71a0.34 0.34 0 0 0 -0.34 -0.34 0.35 0.35 0 0 0 -0.34 0.35c0 0.35 -0.13 0.77 -0.19 1.25a4.56 4.56 0 0 0 0 0.54 3.26 3.26 0 0 0 0 0.54 10.58 10.58 0 0 0 0.25 1.27 0.31 0.31 0 0 0 0.31 0.29 0.32 0.32 0 0 0 0.29 -0.31c0.06 -0.36 0.18 -0.77 0.24 -1.25a4.75 4.75 0 0 0 0 -0.54 4.9 4.9 0 0 0 0 -0.54c-0.07 -0.48 -0.16 -0.91 -0.22 -1.26Z" fill="#4C57E6" stroke-width="1"></path>
    <path d="M5 19.77a0.34 0.34 0 0 0 -0.35 -0.33 0.32 0.32 0 0 0 -0.33 0.34c0 0.21 -0.15 0.44 -0.21 0.72a1.75 1.75 0 0 0 0 0.32 1.67 1.67 0 0 0 0 0.32 4.51 4.51 0 0 0 0.25 0.76 0.3 0.3 0 1 0 0.59 0 5.41 5.41 0 0 0 0.25 -0.72 1.63 1.63 0 0 0 0 -0.31 1.67 1.67 0 0 0 0 -0.32 6.45 6.45 0 0 0 -0.2 -0.78Z" fill="#4C57E6" stroke-width="1"></path>
    <path d="M12.53 19.8a0.34 0.34 0 0 0 -0.34 -0.33 0.34 0.34 0 0 0 -0.34 0.34c0 0.21 -0.14 0.44 -0.2 0.73a1.65 1.65 0 0 0 0 0.31 1.13 1.13 0 0 0 0 0.32 4.57 4.57 0 0 0 0.24 0.76 0.3 0.3 0 0 0 0.31 0.29 0.29 0.29 0 0 0 0.29 -0.31 7.34 7.34 0 0 0 0.25 -0.72 1.63 1.63 0 0 0 0 -0.31 1.66 1.66 0 0 0 0 -0.32 6.45 6.45 0 0 0 -0.21 -0.76Z" fill="#4C57E6" stroke-width="1"></path>
    <path d="M20.08 19.81a0.33 0.33 0 0 0 -0.34 -0.33 0.34 0.34 0 0 0 -0.34 0.34c0 0.21 -0.14 0.44 -0.2 0.72a1.75 1.75 0 0 0 0 0.32 1.13 1.13 0 0 0 0 0.32 4.57 4.57 0 0 0 0.24 0.76 0.3 0.3 0 0 0 0.31 0.29 0.29 0.29 0 0 0 0.29 -0.31c0.06 -0.21 0.18 -0.43 0.25 -0.72a1.63 1.63 0 0 0 0 -0.31 1.66 1.66 0 0 0 0 -0.32 6.45 6.45 0 0 0 -0.21 -0.76Z" fill="#4C57E6" stroke-width="1"></path>
    <path d="M23.64 16.2a1.43 1.43 0 0 0 0.36 -1c0 -0.61 -0.15 -1.4 -0.16 -1.8a0.34 0.34 0 0 0 -0.68 0c0 0.34 0.09 1 0.08 1.52 0 0.24 -0.06 0.6 0 0.58l-0.48 0.05c-1 0.07 -3.1 0.08 -5.48 0.15l-3.66 0.15 -1.08 0.07c0.06 -0.7 0.09 -1.69 0.08 -2.69a19.94 19.94 0 0 0 -0.24 -3 7 7 0 0 0 -0.61 -1.83 4.21 4.21 0 0 0 -1.37 -1.48 7 7 0 0 0 -4.33 -1.16A6.3 6.3 0 0 0 2 7.53 5.75 5.75 0 0 0 0.9 9.1a9.71 9.71 0 0 0 -0.77 2.64A18.69 18.69 0 0 0 0 15a5 5 0 0 0 0.24 1.54c0.23 0.38 2.22 0.66 7.21 0.52 0.79 0 1.54 -0.06 2.2 -0.1l3.53 0c1.7 0 3.5 -0.09 5.1 -0.18 2.05 -0.11 3.78 -0.28 4.6 -0.39a1.71 1.71 0 0 0 0.76 -0.19ZM4 16.38a9.22 9.22 0 0 1 -3 -0.24 4.4 4.4 0 0 1 -0.23 -2 16.26 16.26 0 0 1 0.19 -2.22 10.08 10.08 0 0 1 0.59 -2A5.18 5.18 0 0 1 2.64 8.2a5.29 5.29 0 0 1 3.48 -1.37 5.86 5.86 0 0 1 3.62 1 3.06 3.06 0 0 1 1 1.13 5.67 5.67 0 0 1 0.51 1.52 20 20 0 0 1 0.25 2.78l0 2.48a1.37 1.37 0 0 1 -0.34 0.1 58.07 58.07 0 0 1 -7.16 0.54Z" fill="#020202" stroke-width="1"></path>
  </g>
</svg>