<svg xmlns="http://www.w3.org/2000/svg" viewBox="0 0 24 24" id="Human-Resources-Lead-Management-2--Streamline-Freehand">
  <desc>
    Human Resources Lead Management 2 Streamline Icon: https://streamlinehq.com
  </desc>
  <g>
    <path d="M17.13 18.39a6.06 6.06 0 0 0 -0.69 -1A7.39 7.39 0 0 0 15 16.11a5.09 5.09 0 0 0 1.61 -4.26 4.74 4.74 0 0 0 -4.81 -4.72C8.4 7.25 6.53 9.61 6.45 12a4.44 4.44 0 0 0 2.79 4.32 13.54 13.54 0 0 0 -2.11 1.48 7.9 7.9 0 0 0 -1.42 1.64A4.81 4.81 0 0 0 4.92 23a0.34 0.34 0 0 0 0.37 0.28 0.33 0.33 0 0 0 0.28 -0.37 4.36 4.36 0 0 1 1 -2.9 13.54 13.54 0 0 1 1.27 -1.49 27.49 27.49 0 0 1 2.13 -2 6.54 6.54 0 0 0 1.53 0.24 0.29 0.29 0 0 0 0.31 -0.27 0.28 0.28 0 0 0 -0.27 -0.3c-2.87 -0.25 -4.19 -2.06 -4.18 -3.92a3.75 3.75 0 0 0 1.3 0.36 2.82 2.82 0 0 0 0.58 0 2.74 2.74 0 0 0 0.58 -0.15 3 3 0 0 0 1.18 -0.82 0.31 0.31 0 0 0 0.11 -0.23c0.17 0.1 0.35 0.2 0.54 0.29a5.86 5.86 0 0 0 1.3 0.44 8.38 8.38 0 0 0 2.7 0.08 3.77 3.77 0 0 1 -3.11 4.19 0.33 0.33 0 0 0 0.08 0.65 4.2 4.2 0 0 0 1.72 -0.54A9.87 9.87 0 0 1 15.6 18a8.51 8.51 0 0 1 0.57 0.9c0.18 0.31 0.35 0.62 0.51 0.95a14.64 14.64 0 0 1 0.89 2.42 0.34 0.34 0 0 0 0.39 0.26 0.33 0.33 0 0 0 0.25 -0.39 11.76 11.76 0 0 0 -0.58 -2.69 7.27 7.27 0 0 0 -0.5 -1.06Zm-6.53 -7.22a1.86 1.86 0 0 1 -0.56 0.21c-0.19 0 -0.4 0 -0.61 0.09l-0.62 0.08a5.2 5.2 0 0 1 -1.28 0.15s-0.06 0 -0.1 0A4 4 0 0 1 9 9.1a6.15 6.15 0 0 0 1.51 1.9l0.21 0.15a0.28 0.28 0 0 0 -0.12 0.02Zm2.64 0a7.26 7.26 0 0 1 -1.09 -0.43 6.67 6.67 0 0 1 -1 -0.58 6.38 6.38 0 0 1 -1.5 -1.4 5 5 0 0 1 2.18 -0.51 3.69 3.69 0 0 1 3.77 3.3 8.63 8.63 0 0 1 -2.36 -0.4Z" fill="#020202" fill-rule="evenodd" stroke-width="1"></path>
    <path d="M12.09 18.33a0.28 0.28 0 0 0 -0.28 -0.3 0.29 0.29 0 0 0 -0.3 0.28c-0.09 0.44 -0.21 0.86 -0.26 1.31a3.63 3.63 0 0 0 0 0.57 5.44 5.44 0 0 0 0 0.57c0.05 0.44 0.14 0.87 0.22 1.31a0.33 0.33 0 1 0 0.65 0c0.05 -0.44 0.13 -0.87 0.17 -1.31a6.29 6.29 0 0 0 0 -1.12c-0.04 -0.45 -0.14 -0.87 -0.2 -1.31Z" fill="#020202" fill-rule="evenodd" stroke-width="1"></path>
    <path d="M23.74 10.86a1 1 0 0 0 -0.4 -0.34 2.88 2.88 0 0 0 -0.66 -0.15h-0.84l-0.7 0.08a3.82 3.82 0 0 0 0 -0.9 2.4 2.4 0 0 0 -0.09 -0.55 3.35 3.35 0 0 0 -0.23 -0.55A4.35 4.35 0 0 0 20 7.34a6.36 6.36 0 0 0 0.77 -0.6 2.3 2.3 0 0 0 0.54 -0.68 1 1 0 0 0 0 -0.51A2.24 2.24 0 0 0 21.1 5a7.24 7.24 0 0 0 -0.67 -0.9 7.46 7.46 0 0 0 -0.81 -0.78 4.24 4.24 0 0 0 -0.51 -0.42 0.91 0.91 0 0 0 -0.34 -0.13 1.27 1.27 0 0 0 -1 0.4 7.37 7.37 0 0 0 -0.92 1.19 2.69 2.69 0 0 0 -0.49 -0.46 2 2 0 0 0 -0.45 -0.24 2.49 2.49 0 0 0 -0.47 -0.12 4.86 4.86 0 0 0 -0.93 0 8.08 8.08 0 0 0 0.15 -1.1 2.25 2.25 0 0 0 -0.11 -0.86 0.85 0.85 0 0 0 -0.34 -0.37 2.6 2.6 0 0 0 -0.62 -0.24 6.63 6.63 0 0 0 -1.1 -0.16 8.53 8.53 0 0 0 -1.13 0 4.65 4.65 0 0 0 -0.66 0.07 0.91 0.91 0 0 0 -0.33 0.14 1.34 1.34 0 0 0 -0.41 1 5.67 5.67 0 0 0 0.14 0.98 10.06 10.06 0 0 0 -1.1 0.15 4.48 4.48 0 0 0 -0.62 0.2 4.53 4.53 0 0 0 -0.59 0.28 4.86 4.86 0 0 0 -1.15 1A8.94 8.94 0 0 0 6 3.75a2.1 2.1 0 0 0 -0.68 -0.53 0.79 0.79 0 0 0 -0.51 0 2.24 2.24 0 0 0 -0.6 0.27 7.16 7.16 0 0 0 -0.9 0.66 9.88 9.88 0 0 0 -0.78 0.81 5.49 5.49 0 0 0 -0.42 0.52 0.87 0.87 0 0 0 -0.11 0.31 1.34 1.34 0 0 0 0.4 1 6.41 6.41 0 0 0 0.92 0.73 5.08 5.08 0 0 0 -0.55 1 3.58 3.58 0 0 0 -0.16 0.48 2.65 2.65 0 0 0 0 0.56 4.78 4.78 0 0 0 0.08 0.75l-1.28 -0.21a2.7 2.7 0 0 0 -0.58 -0.1 0.63 0.63 0 0 0 -0.46 0.27A2.29 2.29 0 0 0 0 11.43a8.73 8.73 0 0 0 0.35 2.32 0.33 0.33 0 0 0 0.37 0.25l0.11 0a3.94 3.94 0 0 0 0.63 0.25 1.73 1.73 0 0 0 0.32 0 1.67 1.67 0 0 0 0.31 0l0.16 0a3.7 3.7 0 0 0 0 0.95 3 3 0 0 0 0.12 0.58 3.35 3.35 0 0 0 0.23 0.55 4.55 4.55 0 0 0 0.81 1.1 4.79 4.79 0 0 0 -1 0.61 1.38 1.38 0 0 0 -0.45 0.7 0.79 0.79 0 0 0 0 0.54 2.5 2.5 0 0 0 0.37 0.51l0.7 0.66a0.33 0.33 0 0 0 0.5 -0.43l-0.44 -0.78c-0.12 -0.23 -0.22 -0.15 0.12 -0.54 0.09 -0.11 0.16 -0.24 0.25 -0.35s0.39 -0.44 0.52 -0.61 -0.06 -0.74 -0.07 -0.74a3.21 3.21 0 0 1 -0.25 -0.62c-0.08 -0.21 -0.11 -0.43 -0.18 -0.66s-0.12 -0.43 -0.19 -0.64c-0.45 -1.36 0.06 -1.69 -0.49 -1.68 -0.23 -0.06 -0.44 -0.15 -0.7 -0.2a1.35 1.35 0 0 0 -0.29 0 1.51 1.51 0 0 0 -0.3 0 3.45 3.45 0 0 0 -0.51 0.13 12.81 12.81 0 0 1 0 -1.51 2.43 2.43 0 0 1 0.15 -0.74l0.16 0.05 1.49 -0.08a0.25 0.25 0 0 0 0.21 0.09c0.76 0 0.35 -0.48 0.6 -1.61 0 -0.21 0.08 -0.42 0.11 -0.62s0 -0.43 0.09 -0.64c0.1 -0.45 0.74 -0.59 0.35 -0.94 -0.18 -0.18 -0.65 -0.56 -1 -1s-0.33 -0.23 0.17 -0.74A9 9 0 0 1 4.06 5C5.15 4 5 4 5.61 4.49c0.36 0.32 0.71 0.72 1 1s0.16 -0.24 1.16 -0.69a7.61 7.61 0 0 1 0.72 -0.25c0.24 -0.09 0.48 -0.17 0.72 -0.28 1.5 -0.64 1.71 -0.15 1.68 -0.65a13.69 13.69 0 0 1 0 -1.37 0.94 0.94 0 0 1 0.09 -0.42c0.06 0.14 0.44 0 0.55 0l1 0a8 8 0 0 1 1 0.11c0.29 0 0.39 -0.24 0.46 0.65l0 1.36c0 0.36 0.15 0 1.53 0.65a4 4 0 0 0 0.44 0.17 4.52 4.52 0 0 1 0.68 0.23l0.24 0.13c0.38 0.4 0.38 -0.29 1.42 -1.21 0.34 -0.27 0.24 -0.33 0.75 0.17a7.44 7.44 0 0 1 0.67 0.7c0.22 0.25 0.43 0.5 0.62 0.76s0.44 0.11 -0.14 0.79c-0.33 0.36 -0.73 0.71 -1 1 -0.43 0.42 0.33 0 0.78 1.68 0.06 0.21 0.12 0.43 0.19 0.64 0.4 1.18 0.26 1.58 0.64 1.6a0.24 0.24 0 0 0 0.16 -0.05c0.31 0 0.61 0.05 0.92 0.1a3.83 3.83 0 0 1 0.69 0.14c0.3 0.08 0.34 -0.16 0.44 0.59 0 0.17 0.06 0.34 0.07 0.53s0 0.62 0 0.9A9.49 9.49 0 0 0 22 13.2a2.79 2.79 0 0 0 -0.5 0 2.59 2.59 0 0 0 -0.48 0c-0.39 0.07 -0.74 0.19 -1.11 0.29 -0.59 0 0.14 0.28 -0.16 1.67 -0.05 0.21 -0.08 0.42 -0.11 0.62s-0.05 0.43 -0.1 0.64c-0.1 0.47 -0.74 0.59 -0.34 0.95 0.12 0.13 0.39 0.39 0.65 0.68a3.4 3.4 0 0 1 0.38 0.49c0.32 0.42 0.17 0.08 -0.16 0.55l-0.61 0.87a0.29 0.29 0 0 0 0 0.41 0.28 0.28 0 0 0 0.4 0l1 -0.69a4.73 4.73 0 0 0 0.44 -0.36 0.9 0.9 0 0 0 0.23 -0.44 1.33 1.33 0 0 0 -0.39 -1.06 4.75 4.75 0 0 0 -1 -0.7 4.29 4.29 0 0 0 0.53 -0.92 2.75 2.75 0 0 0 0.16 -0.56 2.67 2.67 0 0 0 0.06 -0.56 5.53 5.53 0 0 0 -0.12 -0.91l0.51 0.06a4.71 4.71 0 0 0 0.75 0c1.75 -0.17 1.66 0 1.68 -0.3a10.86 10.86 0 0 0 0.35 -2 2.06 2.06 0 0 0 -0.32 -1.07Z" fill="#4C57E6" fill-rule="evenodd" stroke-width="1"></path>
  </g>
</svg>