<svg xmlns="http://www.w3.org/2000/svg" viewBox="0 0 24 24" id="Human-Resources-Hierarchy--Streamline-Freehand">
  <desc>
    Human Resources Hierarchy Streamline Icon: https://streamlinehq.com
  </desc>
  <g>
    <path d="M6.31 21.26a3.09 3.09 0 0 0 -0.39 -0.6 3.61 3.61 0 0 0 -1.06 -0.74 1.77 1.77 0 0 0 1 -2.49 2.59 2.59 0 0 0 -2.62 -1.56 2.52 2.52 0 0 0 -1.74 1.31 2 2 0 0 0 0.22 2.22 1.88 1.88 0 0 0 0.75 0.49 3.52 3.52 0 0 0 -1.16 0.81 3.09 3.09 0 0 0 -0.39 0.6 3 3 0 0 0 -0.23 0.7 6.52 6.52 0 0 0 -0.15 1.57 0.42 0.42 0 0 0 0.35 0.43 0.4 0.4 0 0 0 0.45 -0.35A10 10 0 0 1 2.12 22l0.26 -0.51c0.09 -0.18 0.15 -0.36 0.25 -0.53a3.61 3.61 0 0 1 0.45 -0.6 0.33 0.33 0 0 0 0.14 -0.3 3.5 3.5 0 0 0 0.7 0.08s0.05 0 0.08 -0.05a0.39 0.39 0 0 0 0.15 0.23 3.61 3.61 0 0 1 0.45 0.6c0.1 0.17 0.16 0.35 0.25 0.53l0.26 0.51a9.68 9.68 0 0 1 0.78 1.67 0.39 0.39 0 0 0 0.46 0.34 0.41 0.41 0 0 0 0.35 -0.46 6.49 6.49 0 0 0 -0.16 -1.57 3 3 0 0 0 -0.23 -0.68Zm-3.23 -2.05a1.15 1.15 0 0 1 -0.53 -0.44 0.87 0.87 0 0 1 0.1 -0.95 1.24 1.24 0 0 1 0.84 -0.59 1.32 1.32 0 0 1 1.39 0.69c0.44 0.8 -0.3 1.91 -1.8 1.29Z" fill="#020202" fill-rule="evenodd" stroke-width="1"></path>
    <path d="M14.55 21.26a3.09 3.09 0 0 0 -0.39 -0.6 3.61 3.61 0 0 0 -1.06 -0.74 1.77 1.77 0 0 0 1.05 -2.49 2.59 2.59 0 0 0 -2.62 -1.56 2.52 2.52 0 0 0 -1.79 1.31A2 2 0 0 0 10 19.4a1.88 1.88 0 0 0 0.75 0.49 3.52 3.52 0 0 0 -1.16 0.81 3.09 3.09 0 0 0 -0.39 0.6 3 3 0 0 0 -0.23 0.66 6.52 6.52 0 0 0 -0.15 1.57 0.42 0.42 0 0 0 0.35 0.47 0.4 0.4 0 0 0 0.45 -0.35 10 10 0 0 1 0.74 -1.65l0.26 -0.51c0.09 -0.18 0.15 -0.36 0.25 -0.53a3.61 3.61 0 0 1 0.45 -0.6 0.33 0.33 0 0 0 0.14 -0.3 3.5 3.5 0 0 0 0.7 0.08s0.05 0 0.08 -0.05a0.39 0.39 0 0 0 0.15 0.23 3.61 3.61 0 0 1 0.45 0.6c0.1 0.17 0.16 0.35 0.25 0.53l0.26 0.51a9.68 9.68 0 0 1 0.78 1.67 0.39 0.39 0 0 0 0.46 0.34 0.41 0.41 0 0 0 0.35 -0.46 6.49 6.49 0 0 0 -0.16 -1.57 3 3 0 0 0 -0.23 -0.68Zm-3.23 -2.05a1.15 1.15 0 0 1 -0.53 -0.44 0.87 0.87 0 0 1 0.1 -0.95 1.24 1.24 0 0 1 0.84 -0.59 1.32 1.32 0 0 1 1.39 0.69c0.44 0.81 -0.3 1.9 -1.8 1.29Z" fill="#020202" fill-rule="evenodd" stroke-width="1"></path>
    <path d="M22.79 21.26a3.09 3.09 0 0 0 -0.39 -0.6 3.56 3.56 0 0 0 -1 -0.74 1.77 1.77 0 0 0 1 -2.49 2.59 2.59 0 0 0 -2.62 -1.56A2.52 2.52 0 0 0 18 17.18a2 2 0 0 0 0.22 2.22 2 2 0 0 0 0.75 0.49 3.56 3.56 0 0 0 -1.17 0.81 3.09 3.09 0 0 0 -0.39 0.6 3 3 0 0 0 -0.23 0.66 6.52 6.52 0 0 0 -0.18 1.57 0.42 0.42 0 0 0 0.35 0.47 0.4 0.4 0 0 0 0.45 -0.35 10 10 0 0 1 0.8 -1.65l0.26 -0.51c0.09 -0.18 0.15 -0.36 0.25 -0.53a3.61 3.61 0 0 1 0.45 -0.6 0.33 0.33 0 0 0 0.14 -0.3 3.51 3.51 0 0 0 0.71 0.08s0 0 0.07 -0.05a0.36 0.36 0 0 0 0.15 0.23 3.61 3.61 0 0 1 0.45 0.6c0.1 0.17 0.16 0.35 0.25 0.53l0.26 0.51a9.68 9.68 0 0 1 0.78 1.67 0.39 0.39 0 0 0 0.46 0.34 0.41 0.41 0 0 0 0.35 -0.46 6.49 6.49 0 0 0 -0.18 -1.59 3 3 0 0 0 -0.21 -0.66Zm-3.22 -2.05a1.15 1.15 0 0 1 -0.53 -0.44 0.87 0.87 0 0 1 0.1 -0.95 1.24 1.24 0 0 1 0.84 -0.59 1.32 1.32 0 0 1 1.39 0.69 0.89 0.89 0 0 1 -0.49 1.33c-0.28 0.11 0 0.15 -0.47 0.15a2.76 2.76 0 0 1 -0.84 -0.19Z" fill="#020202" fill-rule="evenodd" stroke-width="1"></path>
    <path d="M16.25 6.73A3.21 3.21 0 0 0 15.8 6a4.78 4.78 0 0 0 -1.49 -1.12 2.37 2.37 0 0 0 0.78 -2.18A3 3 0 0 0 12.81 0a3.45 3.45 0 0 0 -3.12 1.58 2.29 2.29 0 0 0 0.66 3.32l0.1 0a7.91 7.91 0 0 0 -1.39 1.21 4.47 4.47 0 0 0 -0.73 1.08 3 3 0 0 0 -0.23 2.36 0.4 0.4 0 0 0 0.49 0.28 0.41 0.41 0 0 0 0.29 -0.5 1.48 1.48 0 0 1 0.17 -0.74 5.51 5.51 0 0 1 0.45 -0.75c0.16 -0.25 0.34 -0.5 0.5 -0.77 0.39 -0.6 0.7 -1.21 1 -1.67 0 0 0 -0.08 0.06 -0.13a5.16 5.16 0 0 0 1 0.23 0.36 0.36 0 0 0 0.41 -0.29 0.36 0.36 0 0 0 -0.29 -0.42 3.91 3.91 0 0 1 -0.71 -0.23 2.2 2.2 0 0 1 -0.58 -0.37 1.29 1.29 0 0 1 -0.39 -1.52 2 2 0 0 1 0.68 -0.8 2 2 0 0 1 1.43 -0.5A1.71 1.71 0 0 1 14 2.87c0.15 0.75 -0.06 1.55 -0.94 1.62a0.41 0.41 0 1 0 0 0.81 2 2 0 0 0 0.61 -0.12 0.34 0.34 0 0 0 0.13 0.25 5.39 5.39 0 0 1 0.91 1.32l0.3 0.58a7.44 7.44 0 0 1 0.8 2.16 0.42 0.42 0 0 0 0.83 -0.07 7.52 7.52 0 0 0 -0.13 -1.89 3.43 3.43 0 0 0 -0.26 -0.8Z" fill="#020202" fill-rule="evenodd" stroke-width="1"></path>
    <path d="m14.78 12.21 -2 1.26 -0.15 0.12c0.07 -0.43 0.14 -0.87 0.18 -1.31a4.87 4.87 0 0 0 0 -0.66 4.85 4.85 0 0 0 0 -0.66c-0.06 -0.52 -0.18 -1 -0.23 -1.53a0.37 0.37 0 0 0 -0.35 -0.43 0.36 0.36 0 0 0 -0.38 0.33 9.66 9.66 0 0 0 -0.37 1.57 5.17 5.17 0 0 0 0 0.68 5 5 0 0 0 0.05 0.67c0 0.38 0.11 0.75 0.18 1.13 -0.12 -0.09 -0.25 -0.17 -0.38 -0.25 -0.57 -0.35 -1.15 -0.65 -1.73 -1a0.35 0.35 0 1 0 -0.43 0.56l2 1.95a6.77 6.77 0 0 0 0.59 0.57 0.76 0.76 0 0 0 0.78 0.11 1.82 1.82 0 0 0 0.45 -0.31c0.22 -0.2 0.41 -0.47 0.58 -0.64l1.7 -1.54a0.4 0.4 0 0 0 0.08 -0.57 0.41 0.41 0 0 0 -0.57 -0.05Z" fill="#4C57E6" fill-rule="evenodd" stroke-width="1"></path>
    <path d="M6.88 12.5c-0.41 0.21 -0.81 0.42 -1.19 0.65a7.32 7.32 0 0 0 -0.81 0.5l-0.06 0a11.22 11.22 0 0 1 0.38 -1.25c0.12 -0.27 0.24 -0.54 0.37 -0.8a8 8 0 0 1 0.43 -0.72 4.89 4.89 0 0 1 1.29 -1.57 0.37 0.37 0 0 0 0.13 -0.49 0.35 0.35 0 0 0 -0.49 -0.14 4.93 4.93 0 0 0 -2 1.45 4.13 4.13 0 0 0 -0.58 0.91 5 5 0 0 0 -0.35 1 6.47 6.47 0 0 0 -0.19 1.31l-2 -1.6a0.36 0.36 0 0 0 -0.51 0 0.37 0.37 0 0 0 0 0.5l1.92 2.35 0.54 0.52c-0.06 0.07 0.22 0.2 0.3 0.24a0.67 0.67 0 0 0 0.36 0.08 1.27 1.27 0 0 0 0.65 -0.2 5.22 5.22 0 0 0 0.68 -0.63 8.36 8.36 0 0 1 0.54 -0.61l1 -0.83a0.41 0.41 0 0 0 -0.45 -0.68Z" fill="#4C57E6" fill-rule="evenodd" stroke-width="1"></path>
    <path d="M23.35 11.73a0.35 0.35 0 0 0 -0.5 0l-2 1.6a7.26 7.26 0 0 0 -0.19 -1.31 5.06 5.06 0 0 0 -0.36 -1 4.49 4.49 0 0 0 -0.57 -0.91 5.07 5.07 0 0 0 -2 -1.45 0.36 0.36 0 1 0 -0.36 0.63 4.89 4.89 0 0 1 1.31 1.57c0.14 0.25 0.28 0.5 0.41 0.76s0.25 0.53 0.37 0.8 0.25 0.83 0.37 1.25l-0.05 0c-0.27 -0.18 -0.53 -0.35 -0.81 -0.5s-0.79 -0.44 -1.2 -0.65a0.41 0.41 0 0 0 -0.56 0.12 0.4 0.4 0 0 0 0.12 0.56l1 0.83c0.21 0.18 0.41 0.38 0.61 0.58a4.65 4.65 0 0 0 0.68 0.63 1.24 1.24 0 0 0 0.64 0.2 0.66 0.66 0 0 0 0.36 -0.08c0.09 0 0.37 -0.17 0.3 -0.24l0.55 -0.52 1.91 -2.35a0.35 0.35 0 0 0 -0.03 -0.52Z" fill="#4C57E6" fill-rule="evenodd" stroke-width="1"></path>
  </g>
</svg>