<svg xmlns="http://www.w3.org/2000/svg" viewBox="0 0 24 24" id="Human-Resources-Hierarchy-Woman--Streamline-Freehand">
  <desc>
    Human Resources Hierarchy Woman Streamline Icon: https://streamlinehq.com
  </desc>
  <g>
    <path d="M17.72 8.12c0.38 -0.43 0.73 -0.86 1.08 -1.19 1.63 0.35 1.78 0.18 2.09 0 0.17 0.23 0.33 0.46 0.47 0.69l0.25 0.43 0.25 0.44a8.14 8.14 0 0 1 0.52 1.15 0.29 0.29 0 0 0 0.36 0.24 0.31 0.31 0 0 0 0.26 -0.32 6 6 0 0 0 -0.22 -1.4 3 3 0 0 0 -0.24 -0.59 2.71 2.71 0 0 0 -0.38 -0.51 3 3 0 0 0 -0.64 -0.52 2.84 2.84 0 0 0 0.73 -2.13 2.59 2.59 0 0 0 -2.58 -2.59 2.8 2.8 0 0 0 -2.87 2.66 2.39 2.39 0 0 0 1.27 2.17 5.21 5.21 0 0 0 -0.88 0.56 3.6 3.6 0 0 0 -0.75 0.86A2.5 2.5 0 0 0 16.1 10a0.32 0.32 0 0 0 0.36 0.26 0.31 0.31 0 0 0 0.26 -0.35 1.79 1.79 0 0 1 0.34 -1 7.18 7.18 0 0 1 0.66 -0.79Zm2 -5.25a1.66 1.66 0 0 1 1.69 1.62c0.37 3.1 -3.88 2.32 -3.69 0a1.88 1.88 0 0 1 1.96 -1.62Z" fill="#020202" fill-rule="evenodd" stroke-width="1"></path>
    <path d="M23.78 20a3.28 3.28 0 0 0 -0.25 -0.58 2.6 2.6 0 0 0 -0.37 -0.52 4 4 0 0 0 -0.64 -0.51 2.84 2.84 0 0 0 0.73 -2.13 2.59 2.59 0 0 0 -2.59 -2.59 2.79 2.79 0 0 0 -2.86 2.66 2.4 2.4 0 0 0 1.26 2.17 5.38 5.38 0 0 0 -0.88 0.56 3.38 3.38 0 0 0 -0.74 0.86 2.5 2.5 0 0 0 -0.33 1.95 0.31 0.31 0 0 0 0.61 -0.09 1.88 1.88 0 0 1 0.35 -1 5 5 0 0 1 0.66 -0.82c0.37 -0.44 0.73 -0.86 1.07 -1.2 1.64 0.36 1.79 0.19 2.09 0.05a7 7 0 0 1 0.47 0.69l0.26 0.43 0.25 0.44a7.13 7.13 0 0 1 0.51 1.15 0.32 0.32 0 0 0 0.37 0.24 0.3 0.3 0 0 0 0.24 -0.36 5.71 5.71 0 0 0 -0.21 -1.4Zm-5.09 -3.63a1.87 1.87 0 0 1 2 -1.65 1.66 1.66 0 0 1 1.69 1.62c0.37 3.14 -3.89 2.36 -3.69 0.07Z" fill="#020202" fill-rule="evenodd" stroke-width="1"></path>
    <path d="M11.33 12.79a4 4 0 0 0 -0.46 -1 4.55 4.55 0 0 1 -0.42 -0.76 3.92 3.92 0 0 1 -0.22 -0.74c-0.08 -0.43 -0.13 -0.85 -0.23 -1.29a0.26 0.26 0 0 0 -0.13 -0.19 3.26 3.26 0 0 0 0.44 -0.61 2 2 0 0 0 0.23 -0.93 3.29 3.29 0 0 0 -0.17 -0.88A2.22 2.22 0 0 0 10 5.6a1.13 1.13 0 0 0 -1.48 -0.3 1.35 1.35 0 0 0 -0.33 0.26 2.7 2.7 0 0 0 -0.31 0.4 4.3 4.3 0 0 0 -0.36 -0.78 4 4 0 0 0 -0.55 -0.71 1.42 1.42 0 0 0 -0.71 -0.36 1.77 1.77 0 0 0 -1.58 0.58 3.15 3.15 0 0 0 -0.57 0.89 1.48 1.48 0 0 0 -0.38 -0.23 1.5 1.5 0 0 0 -1.47 0.18 1.88 1.88 0 0 0 -0.49 0.47 3 3 0 0 0 -0.37 0.76 2.33 2.33 0 0 0 0.05 1.43 3.45 3.45 0 0 0 0.88 1.3 14.49 14.49 0 0 1 -0.57 1.65 4.53 4.53 0 0 1 -0.54 1c-0.16 0.26 -0.59 0.64 -0.86 1a1.68 1.68 0 0 0 -0.35 0.75 1.85 1.85 0 0 0 0.68 1.55 4.82 4.82 0 0 0 1.42 0.87l-0.11 0.07a2.94 2.94 0 0 0 -0.42 2.28 0.31 0.31 0 1 0 0.61 -0.09 2.28 2.28 0 0 1 0.39 -1.25 8.42 8.42 0 0 1 0.81 -1c0.47 -0.53 0.94 -1.05 1.37 -1.45l0.09 0.05a3.72 3.72 0 0 0 1.76 0.17 2.8 2.8 0 0 0 0.63 -0.17 7.46 7.46 0 0 1 0.65 0.89c0.12 0.17 0.22 0.35 0.32 0.52s0.21 0.36 0.3 0.55a9 9 0 0 1 0.59 1.41 0.32 0.32 0 0 0 0.37 0.24 0.29 0.29 0 0 0 0.24 -0.36 6.78 6.78 0 0 0 -0.29 -1.67 3.16 3.16 0 0 0 -0.29 -0.68c0 -0.09 -0.13 -0.17 -0.18 -0.25a0.29 0.29 0 0 0 0.38 0.07l0.88 -0.63 0.6 -0.58a1.77 1.77 0 0 0 0.52 -1.64ZM8 6.8l0.31 -0.39a2.75 2.75 0 0 1 0.26 -0.22 0.7 0.7 0 0 1 0.23 -0.11l0.2 0a0.81 0.81 0 0 1 0.23 0.28 3.12 3.12 0 0 1 0.37 1 1.17 1.17 0 0 1 -0.06 0.64 2.16 2.16 0 0 1 -0.42 0.69s0 0.07 0 0.11A7.64 7.64 0 0 1 8 9.05l-0.35 0a3.79 3.79 0 0 0 0.4 -1.88 2.58 2.58 0 0 0 0 -0.39ZM5.23 5.6a0.89 0.89 0 0 1 0.83 -0.46 0.46 0.46 0 0 1 0.26 0.16 3.36 3.36 0 0 1 0.36 0.42 3.18 3.18 0 0 1 0.6 1.54 2.93 2.93 0 0 1 -0.23 1.65 0.31 0.31 0 0 0 0 0.21l-0.68 0 -0.94 0c-0.1 -0.12 -0.2 -0.24 -0.29 -0.37a4.79 4.79 0 0 1 -0.37 -0.71 1.28 1.28 0 0 1 -0.11 -0.33 1.88 1.88 0 0 1 0 -0.33l0.09 -0.59a3.47 3.47 0 0 1 0.48 -1.19ZM2.39 7.08a3 3 0 0 1 0.2 -0.45 1.09 1.09 0 0 1 0.23 -0.33 0.63 0.63 0 0 1 0.6 -0.19 0.91 0.91 0 0 1 0.39 0.2c0 0.11 -0.06 0.22 -0.08 0.32a4.38 4.38 0 0 0 0 0.51 2.3 2.3 0 0 0 0 0.37 3 3 0 0 0 0.11 0.49 2.39 2.39 0 0 0 0.2 0.43 6.28 6.28 0 0 0 0.52 0.75c-0.34 0 -0.68 0.07 -1 0.07a2.29 2.29 0 0 1 -0.64 -0.07 3.61 3.61 0 0 1 -0.51 -1 1.6 1.6 0 0 1 -0.02 -1.1Zm4.11 7A3.37 3.37 0 0 1 5.42 14a1.3 1.3 0 0 1 -0.82 -0.42 1.78 1.78 0 0 1 -0.38 -1 4.2 4.2 0 0 1 0 -0.87 3.83 3.83 0 0 0 1 0.37 3.68 3.68 0 0 0 0.58 0.07l0.57 0a7.47 7.47 0 0 0 1.19 -0.27 3.82 3.82 0 0 1 0 1.11 1.66 1.66 0 0 1 -0.48 0.94 0.44 0.44 0 0 1 -0.2 0.08 2.11 2.11 0 0 1 -0.38 0.04Zm3.67 -0.18 -0.42 0.55 -0.68 0.65a0.31 0.31 0 0 0 -0.11 0.39 3.21 3.21 0 0 0 -0.21 -0.3 4.59 4.59 0 0 0 -0.93 -0.74 2.42 2.42 0 0 0 0.44 -1 4.35 4.35 0 0 0 -0.09 -1.78 1 1 0 0 0 -0.59 -0.4 10.7 10.7 0 0 1 -1.22 -0.07l-0.52 0h-0.51a6.61 6.61 0 0 1 -1.19 0h-0.22a0.28 0.28 0 0 0 -0.19 0.18 4.37 4.37 0 0 0 -0.24 1.65 2.58 2.58 0 0 0 0.34 1.18 1.68 1.68 0 0 0 0.39 0.41 7.53 7.53 0 0 0 -1.32 0.85 3.15 3.15 0 0 0 -0.36 0.37 4.76 4.76 0 0 1 -1 -0.73A1.17 1.17 0 0 1 1 14c0 -0.08 0.1 -0.17 0.18 -0.28 0.29 -0.4 0.72 -0.84 0.88 -1.11a6 6 0 0 0 0.47 -1.21 16.26 16.26 0 0 0 0.29 -1.63l0.42 0.14c0.42 0.1 0.87 0.12 1.29 0.18a9.41 9.41 0 0 0 2.58 0 7.93 7.93 0 0 0 2.37 -0.69l0 0.95a4.14 4.14 0 0 0 0.1 0.93 4.26 4.26 0 0 0 0.4 1 4.31 4.31 0 0 1 0.36 0.76 1 1 0 0 1 -0.17 0.83Z" fill="#020202" fill-rule="evenodd" stroke-width="1"></path>
    <path d="M6.1 15.83a0.26 0.26 0 0 0 -0.26 -0.28 0.27 0.27 0 0 0 -0.29 0.26 5.65 5.65 0 0 0 -0.24 0.8 1.87 1.87 0 0 0 0 0.34 2 2 0 0 0 0 0.34 7 7 0 0 0 0.19 0.79 0.31 0.31 0 1 0 0.62 0c0.06 -0.27 0.13 -0.51 0.17 -0.79a2.19 2.19 0 0 0 0 -0.66c-0.03 -0.29 -0.12 -0.53 -0.19 -0.8Z" fill="#020202" fill-rule="evenodd" stroke-width="1"></path>
    <path d="M11.45 10.47a10.8 10.8 0 0 1 1.3 -1.6c0.31 -0.33 0.63 -0.65 0.95 -0.93a5.61 5.61 0 0 1 1.88 -1.16 0.31 0.31 0 1 0 -0.15 -0.6 5.22 5.22 0 0 0 -2.1 0.78 6 6 0 0 0 -0.76 0.59 5.42 5.42 0 0 0 -0.63 0.72 7.65 7.65 0 0 0 -1 2 0.26 0.26 0 0 0 0.13 0.36 0.27 0.27 0 0 0 0.38 -0.16Z" fill="#4C57E6" fill-rule="evenodd" stroke-width="1"></path>
    <path d="M16.19 18.4a4 4 0 0 1 -1.81 -0.18 4.82 4.82 0 0 1 -0.72 -0.27c-0.23 -0.11 -0.45 -0.23 -0.67 -0.36a4.43 4.43 0 0 1 -1.35 -1.25 0.26 0.26 0 0 0 -0.36 -0.12 0.27 0.27 0 0 0 -0.12 0.37 4.19 4.19 0 0 0 1.24 1.8 3.09 3.09 0 0 0 0.83 0.51 3.37 3.37 0 0 0 0.92 0.28 4.38 4.38 0 0 0 2.19 -0.18 0.31 0.31 0 0 0 0.23 -0.37 0.31 0.31 0 0 0 -0.38 -0.23Z" fill="#4C57E6" fill-rule="evenodd" stroke-width="1"></path>
  </g>
</svg>