<svg xmlns="http://www.w3.org/2000/svg" viewBox="0 0 24 24" id="Human-Resources-Search-Men--Streamline-Freehand">
  <desc>
    Human Resources Search Men Streamline Icon: https://streamlinehq.com
  </desc>
  <g>
    <path d="M5.75 0.82a3.57 3.57 0 0 0 -3.95 0.41 3.36 3.36 0 0 0 -0.1 4.5c0.81 0.78 1 0.29 0.06 0.6A3.13 3.13 0 0 0 0.09 7.86a0.3 0.3 0 1 0 0.43 0.41C2.49 7.19 2.74 7 3.25 6.93a0.34 0.34 0 0 0 0.34 -0.34c0 -0.46 0 -0.83 -0.35 -0.87 -2 -0.34 -1.89 -4.61 1.52 -4.41C6 1.36 6 2.22 6.4 1.87S6.08 1 5.75 0.82Z" fill="#020202" fill-rule="evenodd" stroke-width="1"></path>
    <path d="M5.78 20c1.88 -1.4 1.22 -4.68 -1.14 -4.79a0.34 0.34 0 0 0 0 0.68 1.49 1.49 0 0 1 1.32 1.25c0.21 1.38 -0.58 2.45 -2.5 2.33 -2.09 -0.12 -2.23 -3.57 0.51 -3.79a0.3 0.3 0 0 0 0 -0.6 2.8 2.8 0 0 0 -1.83 5.08 4.78 4.78 0 0 0 -1.95 2.71 0.3 0.3 0 0 0 0.57 0.18C2 20.11 6 19.69 7.49 23.37a0.34 0.34 0 0 0 0.65 -0.23A5.21 5.21 0 0 0 5.78 20Z" fill="#020202" fill-rule="evenodd" stroke-width="1"></path>
    <path d="M23.59 18.38a18.32 18.32 0 0 0 -2.94 -3.47c-0.37 -0.36 -1 0.07 -0.63 0.42 0.65 0.81 3.9 4.14 2.59 5 -1.61 1.06 -3.8 -2.33 -4.68 -3.24 -0.46 -0.43 -1 0 -0.63 0.49a17.37 17.37 0 0 0 3.22 3.6c1.74 1.11 3.35 0.08 3.47 -1.11a3.46 3.46 0 0 0 -0.4 -1.69Z" fill="#020202" fill-rule="evenodd" stroke-width="1"></path>
    <path d="M17.32 16.43a26.26 26.26 0 0 0 2.73 -2.11 8.11 8.11 0 0 0 2.37 -6.92c-0.9 -5.81 -8.33 -9.17 -14.19 -5.18a8.47 8.47 0 0 0 -3.06 10.59c1.09 2.19 3.63 4.56 6.24 4.51a0.29 0.29 0 0 0 0.3 -0.3c0 -0.79 -1.51 0.56 -4.31 -2.4 -2.23 -2.24 -2.65 -6.91 -1.11 -8.9 2.1 -3 6.33 -4.75 9.6 -3.83 5.77 1.57 7.82 8.08 2.82 12.58a14.13 14.13 0 0 1 -4 2.32 0.34 0.34 0 1 0 0.17 0.65 15.47 15.47 0 0 0 2.44 -1.01Z" fill="#4C57E6" fill-rule="evenodd" stroke-width="1"></path>
    <path d="M17.85 12.33a5.06 5.06 0 0 0 -2.66 -2.54c3 -1.63 2.4 -6.52 -1 -6.74a0.34 0.34 0 0 0 -0.06 0.68 2.24 2.24 0 0 1 2 1.95c0.26 2.18 -1.15 3.82 -4 3.52A2.42 2.42 0 0 1 10 7.44c1.83 0.28 2.5 -0.4 3.59 -1.16a0.36 0.36 0 0 0 0.09 -0.13 12.72 12.72 0 0 0 1 1.16 0.34 0.34 0 0 0 0.49 -0.47c-0.58 -0.73 -0.73 -1.59 -1.28 -1.81 -0.4 -0.16 -0.82 0.26 -1 0.34 -1.41 1 -1.66 1.34 -3.07 1.39a3.14 3.14 0 0 1 3.31 -3.35 0.3 0.3 0 0 0 0 -0.6c-4.74 0 -5.47 5.27 -2.62 7a5.82 5.82 0 0 0 -3.34 3.52c-0.16 0.37 0.27 0.83 0.48 0.54a5.46 5.46 0 0 1 4.77 -3.43c-1 2.46 0.3 5.82 0.6 3.61a7.69 7.69 0 0 0 0.17 -2.1c0 -0.08 -0.21 -1.43 -0.24 -1.52a6.47 6.47 0 0 1 2.68 0.76 6 6 0 0 1 2.18 2.94c0.11 0.38 0.69 0 0.61 -0.44a5.11 5.11 0 0 0 -0.57 -1.36Z" fill="#020202" fill-rule="evenodd" stroke-width="1"></path>
    <path d="M7.25 8.1a0.34 0.34 0 0 0 0.64 -0.22 2.32 2.32 0 0 0 -0.58 -1.31c-0.21 -0.22 -0.23 -0.28 -0.75 -0.37 -0.36 0 -0.69 0.54 -0.46 0.73s0.11 0.15 0.25 0.3 0.79 0.69 0.9 0.87Z" fill="#020202" fill-rule="evenodd" stroke-width="1"></path>
  </g>
</svg>