<svg xmlns="http://www.w3.org/2000/svg" viewBox="0 0 24 24" id="Immigration-Voyage--Streamline-Freehand">
  <desc>
    Immigration Voyage Streamline Icon: https://streamlinehq.com
  </desc>
  <g>
    <path d="M23.22 10a4 4 0 0 0 -2.56 -1.33 4.92 4.92 0 0 0 -2.47 0.33c-0.58 0.19 -0.82 0.71 -0.38 0.84a6.13 6.13 0 0 1 2.12 -0.21 3.21 3.21 0 0 1 2.42 1.14 2.38 2.38 0 0 1 0.5 2.32A1.67 1.67 0 0 1 21 14.31a0.35 0.35 0 0 0 -0.4 0.29 0.35 0.35 0 0 0 0.28 0.4 2.45 2.45 0 0 0 2.91 -1.62 3.45 3.45 0 0 0 -0.57 -3.38Z" fill="#4C57E6" fill-rule="evenodd" stroke-width="1"></path>
    <path d="M16.65 6.07a3.35 3.35 0 0 0 -2.16 -0.86 4.29 4.29 0 0 0 -2.17 0.56 0.33 0.33 0 0 0 -0.17 0.42 3.83 3.83 0 0 0 -0.68 0.77A3 3 0 0 0 11 8.51a3.26 3.26 0 0 0 1.38 2.81 5.62 5.62 0 0 0 -0.68 2 2.92 2.92 0 0 0 0.08 1.22A2.1 2.1 0 0 0 14 16.1h0.12A6.25 6.25 0 0 0 13 17.27a3.12 3.12 0 0 0 -0.59 1.46 2.74 2.74 0 0 0 0.59 1.84 1.52 1.52 0 0 0 1.41 0.59 2.8 2.8 0 0 0 1.11 -0.45 7.7 7.7 0 0 0 1.08 -0.9 7.36 7.36 0 0 0 1.09 1.07 3.16 3.16 0 0 0 1.14 0.54 2.27 2.27 0 0 0 2.1 -0.78 2.38 2.38 0 0 0 0.59 -2.14 3.17 3.17 0 0 0 -0.67 -1.13 5.65 5.65 0 0 0 -1 -0.8l0.12 -0.19a3.75 3.75 0 0 0 -0.15 -3.26A7 7 0 0 0 17 10.36a3.29 3.29 0 0 0 -0.35 -4.29Zm-4.81 2.45a2.28 2.28 0 0 1 0.45 -1.43 4.37 4.37 0 0 1 1 -1A3.39 3.39 0 0 1 14.44 6a2.53 2.53 0 0 1 1.56 0.76 2.14 2.14 0 0 1 0.45 2.05 2.63 2.63 0 0 1 -1.25 1.76 2.22 2.22 0 0 1 -2.18 -0.1 2.34 2.34 0 0 1 -1.18 -1.95ZM20 17.71a2.25 2.25 0 0 1 0.47 1 1.38 1.38 0 0 1 -0.47 1.15 1.31 1.31 0 0 1 -1 0.54 2.15 2.15 0 0 1 -0.83 -0.28 5.9 5.9 0 0 1 -1.06 -0.8 1.29 1.29 0 0 1 0.18 -0.16c0.53 -0.47 1.17 -0.91 1.71 -1.43a5.47 5.47 0 0 0 0.51 -0.57 5.27 5.27 0 0 1 0.49 0.55Zm-1.31 -4.79a3 3 0 0 1 0.27 3 3.31 3.31 0 0 1 -0.77 1c-0.53 0.5 -1.15 0.94 -1.67 1.39s-0.9 0.93 -1.4 1.35a2.16 2.16 0 0 1 -0.91 0.5c-0.26 0.05 -0.46 -0.13 -0.61 -0.36a1.73 1.73 0 0 1 -0.32 -1 2.6 2.6 0 0 1 0.55 -1.34A6.5 6.5 0 0 1 15 16.3a0.34 0.34 0 0 0 0.08 -0.44 0.34 0.34 0 0 0 0.22 -0.43 0.35 0.35 0 0 0 -0.44 -0.22l-0.41 0.07a1.62 1.62 0 0 1 -0.38 0 1.25 1.25 0 0 1 -1.16 -1 3.36 3.36 0 0 1 -0.09 -0.85 6.48 6.48 0 0 1 0.18 -1.74 3.26 3.26 0 0 0 2.76 -0.08 3.12 3.12 0 0 0 0.86 -0.72 6.5 6.5 0 0 1 2.07 2.03Z" fill="#020202" fill-rule="evenodd" stroke-width="1"></path>
    <path d="M9.21 17.37c-0.18 -0.25 -0.35 -0.52 -0.51 -0.79s-0.31 -0.55 -0.45 -0.86a10.81 10.81 0 0 1 -0.67 -1.85 1.39 1.39 0 0 0 0.19 -0.06 3 3 0 0 0 1.62 -2.41 2.79 2.79 0 0 0 -3 -3.05h-0.18a0.32 0.32 0 0 0 -0.3 0A7.34 7.34 0 0 0 5 6.15a5.27 5.27 0 0 0 -0.72 -0.9 4.82 4.82 0 0 0 -0.9 -0.72 5 5 0 0 0 -1.68 -0.68h0.17c0.73 -0.18 1.44 -0.34 2.13 -0.47 0.48 -0.09 1 -0.17 1.45 -0.22a0.32 0.32 0 0 0 0.3 -0.32 0.31 0.31 0 0 0 -0.32 -0.29l-1.9 0c-0.63 0 -1.24 0.09 -1.88 0.15 -0.07 0 -0.77 0.07 -1 0.13a0.68 0.68 0 0 0 -0.53 0.45 4.16 4.16 0 0 0 0.11 2.34 13.38 13.38 0 0 0 1.42 2.83 0.35 0.35 0 0 0 0.47 0.14 0.35 0.35 0 0 0 0.14 -0.47 13.93 13.93 0 0 1 -1 -2.77 6 6 0 0 1 -0.11 -0.82A5 5 0 0 1 3 5.63a8.7 8.7 0 0 1 1.08 1.12 9.2 9.2 0 0 1 1.24 1.87l-0.56 0.24a0.36 0.36 0 0 0 -0.2 0.38c-0.08 0.08 -0.15 0.17 -0.22 0.25a2.92 2.92 0 0 0 -0.64 1.95 2.75 2.75 0 0 0 1.42 2.2 3 3 0 0 0 1.72 0.36 9.44 9.44 0 0 0 0.39 2.1 5.66 5.66 0 0 0 0.46 1 4.43 4.43 0 0 0 0.67 0.92 5.22 5.22 0 0 0 2.24 1.37 0.3 0.3 0 0 0 0.4 -0.16 0.3 0.3 0 0 0 -0.16 -0.4 5.25 5.25 0 0 1 -1.63 -1.46Zm-3.55 -4.72a1.81 1.81 0 0 1 -1 -1.28A2.07 2.07 0 0 1 5 9.94a2.74 2.74 0 0 1 0.56 -0.62 2.86 2.86 0 0 1 0.93 -0.17 2 2 0 0 1 1.21 0.42 1.76 1.76 0 0 1 0.65 1.71 1.86 1.86 0 0 1 -1 1.48 1.77 1.77 0 0 1 -1.69 -0.11Z" fill="#020202" fill-rule="evenodd" stroke-width="1"></path>
  </g>
</svg>