<svg xmlns="http://www.w3.org/2000/svg" viewBox="0 0 24 24" id="Immigration-Target-Flag--Streamline-Freehand">
  <desc>
    Immigration Target Flag Streamline Icon: https://streamlinehq.com
  </desc>
  <g>
    <path d="M22.88 0a4.2 4.2 0 0 0 -0.88 0.07 1.06 1.06 0 0 0 -0.34 0.12 2 2 0 0 0 -0.31 0.19 5.11 5.11 0 0 0 -0.62 0.61 0.37 0.37 0 0 0 0.4 0.62c0.26 -0.08 0.5 -0.11 0.76 -0.18l0.3 -0.11 0.28 -0.16c0.23 -0.16 0.39 -0.35 0.62 -0.53a0.32 0.32 0 0 0 0.2 -0.41 0.33 0.33 0 0 0 -0.41 -0.22Z" fill="#4C57E6" fill-rule="evenodd" stroke-width="1"></path>
    <path d="M19.53 2.47a5.94 5.94 0 0 0 -0.77 0.64 1.8 1.8 0 0 0 -0.24 0.35 1.71 1.71 0 0 0 -0.17 0.39 4.61 4.61 0 0 0 -0.2 1 0.37 0.37 0 0 0 0.22 0.48 0.38 0.38 0 0 0 0.48 -0.22c0.17 -0.26 0.36 -0.47 0.54 -0.71a3.21 3.21 0 0 0 0.21 -0.3c0.06 -0.11 0.12 -0.22 0.17 -0.33 0.12 -0.3 0.17 -0.58 0.28 -0.88a0.33 0.33 0 1 0 -0.52 -0.4Z" fill="#4C57E6" fill-rule="evenodd" stroke-width="1"></path>
    <path d="M19 7.44a1.91 1.91 0 0 0 -0.81 -0.32 2.86 2.86 0 0 0 -1 0.06 0.33 0.33 0 0 0 -0.38 0 2.91 2.91 0 0 0 -1.05 1 2.28 2.28 0 0 0 -0.3 1 2 2 0 0 0 0.9 1.71 2.17 2.17 0 0 0 1.95 0.27 2.37 2.37 0 0 0 1.46 -1.7A2 2 0 0 0 19 7.44Zm-0.31 1.78A1.16 1.16 0 0 1 18 10a1.14 1.14 0 0 1 -1.45 -0.84 1.22 1.22 0 0 1 0.14 -0.77 2 2 0 0 1 0.31 -0.46 0.33 0.33 0 0 0 0.22 0 2.92 2.92 0 0 1 0.72 0 1 1 0 0 1 0.52 0.26 1 1 0 0 1 0.25 1.03Z" fill="#020202" fill-rule="evenodd" stroke-width="1"></path>
    <path d="M17.1 12.17c-0.1 0 -0.29 -0.13 -0.83 0.79a1.08 1.08 0 0 0 -0.12 0.24 2 2 0 0 0 0 0.26c0 0.21 0 0.4 -0.08 0.62a0.37 0.37 0 1 0 0.62 0.4 3 3 0 0 0 0.54 -0.58 1.51 1.51 0 0 0 0.15 -0.28 0.87 0.87 0 0 0 0.07 -0.31c-0.04 -0.1 -0.04 -1.07 -0.35 -1.14Z" fill="#4C57E6" fill-rule="evenodd" stroke-width="1"></path>
    <path d="M12.77 17.88a5.3 5.3 0 0 0 1.18 -0.4 2.6 2.6 0 0 0 0.45 -0.28 2.22 2.22 0 0 0 0.39 -0.36 4.44 4.44 0 0 0 0.65 -1.07 0.33 0.33 0 0 0 -0.06 -0.46 0.32 0.32 0 0 0 -0.46 0.06 11.58 11.58 0 0 1 -1 0.66c-0.2 0.14 -0.38 0.3 -0.56 0.45l-0.61 0.53c0 -0.28 0.09 -0.56 0.12 -0.85s0.09 -0.82 0.1 -1.24a0.33 0.33 0 1 0 -0.65 -0.09 9.46 9.46 0 0 1 -0.26 0.91c-0.15 0.45 -0.33 0.88 -0.51 1.33 0 0.08 -0.24 0.72 -0.31 1a0.75 0.75 0 0 0 0.32 0.83 3.5 3.5 0 0 0 1.19 0.23c0.78 0 1.63 -0.17 2.34 -0.14a0.37 0.37 0 0 0 0.42 -0.32 0.38 0.38 0 0 0 -0.32 -0.41c-0.69 -0.16 -1.57 -0.17 -2.35 -0.28l-0.28 -0.05a0.39 0.39 0 0 0 0.21 -0.05Z" fill="#4C57E6" fill-rule="evenodd" stroke-width="1"></path>
    <path d="M10.63 10.18 10.2 10l-0.89 -0.36L8 9.21c-1 -0.36 -2 -0.68 -3 -1a0.32 0.32 0 0 0 -0.42 0.2 0.3 0.3 0 0 0 0 0.26 0.3 0.3 0 0 0 -0.08 0.18 31.84 31.84 0 0 0 -0.24 4.68c0 0.94 0.12 1.86 0.23 2.8 0.16 1.38 0.4 2.75 0.57 4.13a0.37 0.37 0 0 0 0.74 0c0 -1.55 -0.06 -3.1 -0.16 -4.65 0 -0.63 -0.08 -1.25 -0.13 -1.87a0.43 0.43 0 0 0 0.22 0l3.64 -1.43a5.41 5.41 0 0 0 1.2 -0.76A1.64 1.64 0 0 0 11 11a0.71 0.71 0 0 0 -0.37 -0.82Zm-1.81 1.24 -3.37 1.75a0.86 0.86 0 0 0 0 -0.16c-0.11 -1.33 -0.26 -2.64 -0.28 -4l3.66 1.76 0.57 0.23c-0.21 0.19 -0.4 0.32 -0.58 0.42Z" fill="#020202" fill-rule="evenodd" stroke-width="1"></path>
    <path d="M9.27 19.35q-0.23 -0.15 -0.45 -0.27c-0.22 -0.11 -0.46 -0.21 -0.69 -0.3a0.37 0.37 0 0 0 -0.48 0.21 0.36 0.36 0 0 0 0.2 0.48 4.66 4.66 0 0 1 0.5 0.25 2.87 2.87 0 0 1 0.43 0.28c0.68 0.56 0.73 1.07 0.38 1.51a4.43 4.43 0 0 1 -2.95 1.24 7.48 7.48 0 0 1 -2 -0.17 5.49 5.49 0 0 1 -1.86 -0.71 1.08 1.08 0 0 1 -0.63 -1.06 1.57 1.57 0 0 1 0.93 -1.11c0.22 -0.1 0.44 -0.2 0.67 -0.28L4 19.2a0.32 0.32 0 0 0 0.25 -0.39 0.31 0.31 0 0 0 -0.39 -0.24c-0.27 0.05 -0.52 0.1 -0.78 0.17a7.66 7.66 0 0 0 -0.78 0.26 2.42 2.42 0 0 0 -1.56 1.62 2.07 2.07 0 0 0 0.93 2.18 6.26 6.26 0 0 0 2.23 1 8 8 0 0 0 2.38 0.2A5.66 5.66 0 0 0 10 22.11c0.54 -0.84 0.6 -1.84 -0.73 -2.76Z" fill="#020202" fill-rule="evenodd" stroke-width="1"></path>
  </g>
</svg>