<svg xmlns="http://www.w3.org/2000/svg" viewBox="0 0 24 24" id="Immigration-House--Streamline-Freehand">
  <desc>
    Immigration House Streamline Icon: https://streamlinehq.com
  </desc>
  <g>
    <path d="M8.28 16.54a4.52 4.52 0 0 0 -1 -2.27 2.69 2.69 0 0 0 -0.36 -0.27 2 2 0 0 0 0.46 -0.66 2.69 2.69 0 0 0 0.26 -0.54 2.6 2.6 0 0 0 -0.26 -2.26 2.07 2.07 0 0 0 -0.75 -0.65 3 3 0 0 0 -1.33 -0.36 0.25 0.25 0 0 0 -0.12 0 0.24 0.24 0 0 0 -0.12 0 2.84 2.84 0 0 0 -1.2 0.57 2.4 2.4 0 0 0 -0.77 1.15 2.34 2.34 0 0 0 0.54 2.27 2.51 2.51 0 0 0 1 0.68 2.76 2.76 0 0 0 -0.51 0.46 5 5 0 0 0 -0.39 0.77c0 0.06 -0.05 0.13 -0.1 0.14a1.54 1.54 0 0 1 -0.71 0 4.39 4.39 0 0 0 -0.72 0 1.42 1.42 0 0 0 -0.94 0.47A1.67 1.67 0 0 0 1 17.79 2 2 0 0 0 2.19 19a1.74 1.74 0 0 0 0.67 0.06 7.1 7.1 0 0 0 1.22 -0.24 1.54 1.54 0 0 0 0.34 -0.15l0.07 -0.06s0.1 0.1 0.12 0.19a3.79 3.79 0 0 1 0.14 0.79 4.28 4.28 0 0 0 -0.87 1.11 3.27 3.27 0 0 0 -0.43 1.69 1.68 1.68 0 0 0 1 1.52 1.88 1.88 0 0 0 1.86 -0.26 2.08 2.08 0 0 0 0.45 -0.53 1.76 1.76 0 0 0 0.09 -0.2 3.65 3.65 0 0 0 2 1c0.78 0.05 1.42 -0.34 1.46 -1.49a2.28 2.28 0 0 0 -0.31 -1.18 8.47 8.47 0 0 0 -1.21 -1.32 13.92 13.92 0 0 0 -0.51 -3.39Zm-3.9 -3.72a1.5 1.5 0 0 1 -0.49 -1.34 1.66 1.66 0 0 1 0.44 -0.85 2.09 2.09 0 0 1 0.79 -0.5 0.34 0.34 0 0 0 0.14 0 2.17 2.17 0 0 1 0.84 0.27 1.42 1.42 0 0 1 0.58 0.53 1.68 1.68 0 0 1 0 1.47 1.24 1.24 0 0 1 -1 0.84 1.56 1.56 0 0 1 -1.3 -0.42Zm2 8.65c-0.2 0.32 -0.3 0.74 -0.49 1.08a1.1 1.1 0 0 1 -0.17 0.25 0.88 0.88 0 0 1 -0.87 0.19 0.8 0.8 0 0 1 -0.55 -0.71A2.37 2.37 0 0 1 4.54 21a3.78 3.78 0 0 1 0.82 -1.14 0.31 0.31 0 0 0 0 -0.45 2.32 2.32 0 0 0 -0.29 -1.33 0.67 0.67 0 0 0 -0.82 -0.26 3.79 3.79 0 0 1 -0.38 0.14 6 6 0 0 1 -0.93 0.11 1.21 1.21 0 0 1 -0.45 0 0.93 0.93 0 0 1 -0.51 -0.6 0.61 0.61 0 0 1 0.06 -0.64 0.37 0.37 0 0 1 0.25 -0.12A5.26 5.26 0 0 0 4 16.45a1 1 0 0 0 0.37 -0.33c0.17 -0.27 0.21 -0.73 0.37 -1a2 2 0 0 1 0.58 -0.57 1.69 1.69 0 0 1 0.74 -0.26 1.3 1.3 0 0 1 0.67 0.43 3.66 3.66 0 0 1 0.68 1.93L7.65 19l0.08 0.7a2 2 0 0 1 -0.3 0.47 14.14 14.14 0 0 0 -1.06 1.3Zm2.64 0a1.48 1.48 0 0 1 0.23 0.85c0 0.46 -0.3 0.54 -0.64 0.48a3.3 3.3 0 0 1 -1.4 -0.59c0 -0.06 0.06 -0.13 0.09 -0.18a15.45 15.45 0 0 1 1 -1.21 2 2 0 0 0 0.17 -0.23 7.28 7.28 0 0 1 0.53 0.89Z" fill="#020202" fill-rule="evenodd" stroke-width="1"></path>
    <path d="M11.82 16.06a4 4 0 0 0 -3.93 -2.7c-0.58 0.08 -0.69 0.61 0 0.67s0.77 0.13 1.4 0.47a3 3 0 0 1 1.5 1.89 2.88 2.88 0 0 1 0.15 0.63 1.37 1.37 0 0 1 0 0.57l-0.22 0.5c-0.34 0.48 -0.49 0.67 -0.89 0.58a3.29 3.29 0 0 1 -0.69 -0.22c-0.49 0 -0.4 0.65 0.15 0.88a1.12 1.12 0 0 0 0.84 0.1 1.59 1.59 0 0 0 1.38 -0.74 2.12 2.12 0 0 0 0.26 -0.38 2 2 0 0 0 0.19 -0.45 2.26 2.26 0 0 0 0.09 -0.77 4.07 4.07 0 0 0 -0.23 -1.03Z" fill="#4C57E6" fill-rule="evenodd" stroke-width="1"></path>
    <path d="M23.07 7a18.27 18.27 0 0 0 -1.31 -1.6c-0.47 -0.52 -1 -1 -1.45 -1.47l-1.75 -1.7 -1.2 -1 -0.89 -0.66 -0.61 -0.35a1.77 1.77 0 0 0 -1.29 -0.16 4 4 0 0 0 -1.35 0.94l-0.89 0.73 -2.15 2.07c-0.31 0.28 -0.64 0.62 -1 1 -0.72 0.78 -1.45 1.67 -2.09 2.33a0.29 0.29 0 0 0 0.4 0.41c0.47 -0.44 1 -1 1.54 -1.52a10.69 10.69 0 0 0 -0.22 1.28 7.09 7.09 0 0 0 0 0.8c0 0.26 0 0.53 0.08 0.79a16.87 16.87 0 0 0 0.41 1.8 0.32 0.32 0 0 0 0.64 -0.1l0 -1.78 0 -0.76 0 -0.75c0 -0.6 -0.12 -1.19 -0.12 -1.77a0.28 0.28 0 0 0 0 -0.15c0.34 -0.32 0.67 -0.62 1 -0.87L13 2.55l0.92 -0.72a5.44 5.44 0 0 1 0.84 -0.68 0.75 0.75 0 0 1 0.67 0.06l0.46 0.26 0.82 0.58 1.22 1 1.81 1.55c0.31 0.27 0.61 0.56 0.92 0.84 0 0.67 -0.05 1.33 -0.05 2l0 1.41 0.05 2.1 0.06 2.22c0 0.63 -0.38 0.69 -0.38 0.69a4.55 4.55 0 0 1 -0.6 0.12l-1 0.12 -0.37 0 0.1 -3.1a10.27 10.27 0 0 0 0 -1.75 3.1 3.1 0 0 0 -0.47 -1.2 3.27 3.27 0 0 0 -2.3 -1.41 2.72 2.72 0 0 0 -2.48 1 3.78 3.78 0 0 0 -0.63 1.23 7 7 0 0 0 -0.23 1.94 0.28 0.28 0 0 0 0.27 0.3 0.29 0.29 0 0 0 0.3 -0.27 6.88 6.88 0 0 1 0.26 -1.45 3.08 3.08 0 0 1 0.69 -1.18 1.84 1.84 0 0 1 1.68 -0.53 2.27 2.27 0 0 1 1.9 1.77 10.3 10.3 0 0 1 0.1 1.55l0.19 3.16 -0.54 0.05 -2.62 0.39a0.32 0.32 0 0 0 0.08 0.64l2.6 -0.21 1.59 0 1 -0.06a4.16 4.16 0 0 0 0.9 -0.16 1.72 1.72 0 0 0 0.67 -0.38 1 1 0 0 0 0.28 -0.48 2.68 2.68 0 0 0 0.08 -0.82l-0.09 -2.23 -0.23 -2.15c-0.08 -0.57 -0.14 -1.14 -0.19 -1.71 0 -0.35 0 -0.7 -0.05 -1.06 0.45 0.46 0.89 0.93 1.29 1.43a0.33 0.33 0 0 0 0.45 0.06 0.32 0.32 0 0 0 0.1 -0.47Z" fill="#020202" fill-rule="evenodd" stroke-width="1"></path>
  </g>
</svg>