<svg xmlns="http://www.w3.org/2000/svg" viewBox="0 0 24 24" id="Information-Desk-Customer-1--Streamline-Freehand">
  <desc>
    Information Desk Customer 1 Streamline Icon: https://streamlinehq.com
  </desc>
  <g>
    <path d="M24 13.69a0.57 0.57 0 0 0 -0.45 -0.59 4.6 4.6 0 0 0 -0.73 -0.1l-1.5 0c-0.58 0 -1.17 0 -1.75 0.08 -0.86 0.06 -1.72 0.15 -2.57 0.2 -1.55 0.11 -2.63 0.06 -3.81 0.12a15.5 15.5 0 0 0 -1.66 0.18 0.3 0.3 0 0 0 -0.26 0.34 0.31 0.31 0 0 0 0.35 0.26 14.92 14.92 0 0 1 1.58 -0.08c1.2 0 2.27 0.15 3.83 0.15l4.31 -0.09 1.24 0h0.25l0 1.15c0 1.29 0.1 2.58 0.11 3.87 0 0.82 0 1.67 0.06 2.52 0 0.57 0.07 1.14 0.14 1.69a0.34 0.34 0 0 0 0.68 -0.06c0 -0.54 -0.06 -1.09 -0.06 -1.65 0 -0.83 0.05 -1.68 0.09 -2.48Z" fill="#4C57E6" fill-rule="evenodd" stroke-width="1"></path>
    <path d="M17.06 19a0.4 0.4 0 0 0 -0.43 -0.36 0.41 0.41 0 0 0 -0.36 0.43c-0.08 0.45 -0.2 0.79 -0.26 1.15l0 0.49c0 0.16 0 0.33 0.06 0.49 0.07 0.37 0.17 0.72 0.29 1.17a0.45 0.45 0 0 0 0.9 0c0.09 -0.45 0.19 -0.8 0.25 -1.16a4.38 4.38 0 0 0 0 -0.51 2.22 2.22 0 0 0 -0.06 -0.51 7.07 7.07 0 0 0 -0.39 -1.19Z" fill="#020202" fill-rule="evenodd" stroke-width="1"></path>
    <path d="M17.59 17c0.27 -0.41 -0.23 -1 -0.45 -1.06 -0.8 -0.17 -2 1.12 -0.85 1.5a1.15 1.15 0 0 0 1.3 -0.44Z" fill="#020202" fill-rule="evenodd" stroke-width="1"></path>
    <path d="M9.48 11.6c-0.27 0.23 -0.55 0.49 -0.82 0.75 -0.59 0.58 -1.15 1.2 -1.77 1.77a3.14 3.14 0 0 1 -0.38 0.44 3 3 0 0 1 -0.61 -0.5 24.07 24.07 0 0 0 -1.71 -1.92c-0.07 -0.3 -0.16 -0.62 -0.24 -1A5 5 0 0 0 4.7 11a4.25 4.25 0 0 0 0.9 -0.37A3.39 3.39 0 0 0 7 6.16C5.59 2.93 1.87 4 0.74 5.39A3.87 3.87 0 0 0 0 7.94a3.48 3.48 0 0 0 1.18 2.38 3.6 3.6 0 0 0 2.05 0.86l0 1a7.29 7.29 0 0 0 -1.62 1.46 5.81 5.81 0 0 0 -0.51 0.78 7.1 7.1 0 0 0 -0.41 0.83 19.85 19.85 0 0 0 -0.62 2 0.35 0.35 0 0 0 0.21 0.44 0.35 0.35 0 0 0 0.44 -0.21c0.39 -0.83 0.86 -1.63 1.33 -2.42l0.44 -0.78c0.15 -0.26 0.28 -0.52 0.45 -0.77s0.23 -0.31 0.34 -0.46l0 0.54c0 0.58 0.11 1.11 0.18 1.65s0.11 1 0.17 1.52a0.72 0.72 0 0 0 -0.2 0.22c-0.06 0.11 -0.08 0.4 -0.13 0.53l-0.51 1.73c-0.29 0.79 -0.6 2.32 -0.94 3.4 -0.1 0.3 -0.21 0.57 -0.3 0.77a0.3 0.3 0 0 0 0.11 0.41 0.32 0.32 0 0 0 0.42 -0.11 7.14 7.14 0 0 0 0.41 -0.83c0.43 -1 0.91 -2.47 1.28 -3.22l0.44 -1.25 0 0.05a8.86 8.86 0 0 1 0.55 0.92l1.65 4.12a0.34 0.34 0 0 0 0.44 0.21 0.34 0.34 0 0 0 0.21 -0.44L5.82 19a11.15 11.15 0 0 0 -0.68 -1.35 4.44 4.44 0 0 0 -0.61 -0.81c0 -0.56 0.07 -1.09 0.07 -1.61l0 -1.07c0 -0.16 0 -0.32 -0.07 -0.48 0.2 0.35 0.4 0.71 0.62 1a3.46 3.46 0 0 0 0.94 0.9 0.86 0.86 0 0 0 0.71 0 3.38 3.38 0 0 0 1 -0.74L10 12.1a0.35 0.35 0 1 0 -0.48 -0.5ZM1 7.84a3 3 0 0 1 0.42 -2c0.67 -1 3.74 -2.09 4.8 0.68a2.4 2.4 0 0 1 -1.16 3.14 4 4 0 0 1 -0.68 0.27 2.93 2.93 0 0 1 -0.72 0.12 2.51 2.51 0 0 1 -1.75 -0.58A2.59 2.59 0 0 1 1 7.84Z" fill="#020202" fill-rule="evenodd" stroke-width="1"></path>
    <path d="M13.14 9.44a2.21 2.21 0 0 0 1.3 0.51 2.11 2.11 0 0 0 1 -0.35 5.3 5.3 0 0 0 0.84 -0.73c0 0.17 0 0.34 -0.05 0.51a4.86 4.86 0 0 0 0 0.66 7.71 7.71 0 0 0 0.33 1.53 0.37 0.37 0 0 0 0.41 0.28 0.36 0.36 0 0 0 0.28 -0.4 10.27 10.27 0 0 1 0.11 -1.45c0 -0.32 0.05 -0.65 0.05 -1l0 -0.26a6.86 6.86 0 0 0 1.85 0.26 7.28 7.28 0 0 0 1.4 -0.21c0.7 -0.15 1.35 -0.38 2 -0.56a0.35 0.35 0 0 0 0.34 -0.42 0.36 0.36 0 0 0 -0.4 -0.29c-0.91 0.07 -1.83 0.14 -2.75 0.23l-0.88 0.11c-0.29 0 -0.58 0.1 -0.87 0.13l-0.72 0c0 -0.23 -0.05 -0.47 -0.06 -0.7a4.31 4.31 0 0 0 1 -0.23A4.78 4.78 0 0 0 20.75 5a3.15 3.15 0 0 0 0.19 -3 4.12 4.12 0 0 0 -6.83 0C13 3.66 13 5.92 15 7a4.14 4.14 0 0 0 1.71 0.39l-0.12 0.43 -0.05 0c-0.27 0.18 -0.68 0.46 -1.1 0.7a1.8 1.8 0 0 1 -0.94 0.31 1.73 1.73 0 0 1 -0.91 -0.45C13 7.9 12.35 7.32 11.9 7a0.35 0.35 0 0 0 -0.49 0 0.37 0.37 0 0 0 0 0.49 18.67 18.67 0 0 0 1.73 1.95Zm2.32 -3.53c-1.41 -0.65 -1.29 -2.22 -0.56 -3.41 2 -3.24 7 -1.13 5 2a3.89 3.89 0 0 1 -2 1.54 3.17 3.17 0 0 1 -2.44 -0.13Z" fill="#020202" fill-rule="evenodd" stroke-width="1"></path>
  </g>
</svg>