<svg xmlns="http://www.w3.org/2000/svg" viewBox="0 0 24 24" id="Information-Desk-Woman--Streamline-Freehand">
  <desc>
    Information Desk Woman Streamline Icon: https://streamlinehq.com
  </desc>
  <g>
    <path d="M12.26 17.28c0.5 0 0.94 -0.35 0.94 -0.74a1 1 0 0 0 -1.14 -0.83 0.79 0.79 0 0 0 -0.69 1.07 1 1 0 0 0 0.89 0.5Z" fill="#4C57E6" fill-rule="evenodd" stroke-width="1"></path>
    <path d="M14.37 13.91c-1.44 -0.07 -2.89 -0.05 -4.33 0 -0.46 0 -0.92 0.07 -1.38 0.13 -0.87 0.1 -4.74 0.65 -5.45 0.72 0 0 -0.09 0 -0.14 0.07s0 0 -0.06 0a0.33 0.33 0 0 0 -0.17 0.32c0.11 1 0.2 2 0.37 3 0.07 0.42 0.16 0.84 0.25 1.25s0.22 0.83 0.34 1.24c0.27 1 0.59 1.9 0.88 2.85a0.36 0.36 0 0 0 0.43 0.28 0.37 0.37 0 0 0 0.28 -0.44c-0.15 -1 -0.28 -2 -0.46 -3 -0.08 -0.42 -0.16 -0.83 -0.25 -1.25s-0.2 -0.82 -0.32 -1.23c-0.24 -0.86 -0.53 -1.69 -0.78 -2.54l6.55 -0.27c1.06 -0.05 2.12 0 3.18 0l3.19 0c1.33 0 2.65 0.08 4 0.15 -0.2 1 -0.41 2 -0.57 3.06 -0.08 0.58 -0.14 1.17 -0.21 1.75s-0.11 1.17 -0.2 1.75a14.28 14.28 0 0 1 -0.36 1.7 0.37 0.37 0 0 0 0.7 0.25 17 17 0 0 0 1.05 -3.52 19.58 19.58 0 0 0 0.26 -2.16c0.06 -1.09 0 -2.17 0.06 -3.22 -0.06 -0.04 0.77 -0.55 -6.86 -0.89Z" fill="#020202" fill-rule="evenodd" stroke-width="1"></path>
    <path d="M19.19 10.54a1.69 1.69 0 0 1 -0.71 -1 4.76 4.76 0 0 1 -0.11 -1 8.71 8.71 0 0 0 -0.18 -1.2 3.68 3.68 0 0 0 -0.65 -1.28 3.84 3.84 0 0 0 -1.05 -0.89 0.33 0.33 0 0 0 -0.39 0.53 2.86 2.86 0 0 1 0.66 0.88 2.68 2.68 0 0 1 0.25 1c0.07 0.37 0.09 0.74 0.15 1.09a3.93 3.93 0 0 0 0.36 1.25 2.93 2.93 0 0 0 0.43 0.63 7.05 7.05 0 0 1 -0.73 -0.18l-0.59 -0.23L16 9.9a4.86 4.86 0 0 1 -1.11 -0.66 2.89 2.89 0 0 0 0.38 -0.69 2.69 2.69 0 0 0 0.17 -0.88 4.62 4.62 0 0 0 -0.18 -1.22 0.36 0.36 0 0 0 -0.43 -0.28 0.34 0.34 0 0 0 -0.28 0.43 4.1 4.1 0 0 1 0.05 0.86 1.64 1.64 0 0 1 -0.19 0.71 2.45 2.45 0 0 1 -1.84 1.16 3.33 3.33 0 0 1 -2.2 -0.33 2.23 2.23 0 0 1 -1 -1.12 3.52 3.52 0 0 1 -0.31 -1.64 0.32 0.32 0 0 0 -0.28 -0.36 0.31 0.31 0 0 0 -0.36 0.28 4.39 4.39 0 0 0 0.1 2 3.38 3.38 0 0 0 0.7 1.24s-0.07 0 -0.1 0A7.28 7.28 0 0 0 7 10.64a6.46 6.46 0 0 0 -0.74 0.74 5 5 0 0 0 -0.57 0.89 4.3 4.3 0 0 0 -0.4 1.67c0 0.34 0.9 0.2 0.91 0a4.49 4.49 0 0 1 0.51 -1c0.16 -0.24 0.33 -0.47 0.51 -0.7s0.38 -0.45 0.58 -0.67a8 8 0 0 1 1.6 -1.35 0.36 0.36 0 0 0 0.19 -0.27 4 4 0 0 0 4.8 -0.1 3.87 3.87 0 0 0 1 1.15 3.18 3.18 0 0 0 0.73 0.38 3.58 3.58 0 0 0 0.54 0.14 0.38 0.38 0 0 0 0.06 0.29 3.93 3.93 0 0 1 0.22 1c0.05 0.22 0.07 0.44 0.13 0.66s0.06 0.18 0.09 0.27c0.22 0.33 1.07 0.37 1.09 0a1.38 1.38 0 0 0 0 -0.36 2.22 2.22 0 0 0 -0.06 -0.51 2.58 2.58 0 0 0 -0.17 -0.49 3.64 3.64 0 0 0 -0.58 -0.82c1.56 -0.04 2.37 -0.69 1.75 -1.02Z" fill="#020202" fill-rule="evenodd" stroke-width="1"></path>
    <path d="M7.67 5.3a10.86 10.86 0 0 0 2.71 0.88 7.09 7.09 0 0 0 1.22 0.1 8.46 8.46 0 0 0 1.23 -0.07 13.59 13.59 0 0 0 2.74 -0.69 0.38 0.38 0 0 0 0.26 -0.45 2.29 2.29 0 0 0 -0.19 -0.51 0.35 0.35 0 0 0 0.24 -0.33 4.28 4.28 0 0 0 -1 -2.81A3.94 3.94 0 0 0 10.45 0.27 4.34 4.34 0 0 0 9 1.21a3.21 3.21 0 0 0 -1 3c-0.3 0.47 -0.89 0.91 -0.33 1.09Zm5.07 -0.25h-1.12L10.5 5a16.46 16.46 0 0 1 -2 -0.21c0.06 -0.06 0.11 -0.13 0.17 -0.18a2.49 2.49 0 0 1 0.62 -0.39A3.88 3.88 0 0 1 10.47 4a7.22 7.22 0 0 1 0.82 -0.05 6.55 6.55 0 0 1 2.06 0.23 4.07 4.07 0 0 1 1.2 0.43 1.81 1.81 0 0 1 0.33 0.29 15.48 15.48 0 0 1 -2.14 0.15Zm-3 -3a3.77 3.77 0 0 1 0.9 -0.5 3.23 3.23 0 0 1 1.46 -0.26 3 3 0 0 1 2.07 0.87A3.41 3.41 0 0 1 15 3.84a5.65 5.65 0 0 0 -1.33 -0.72 6.66 6.66 0 0 0 -2.44 -0.46 4.81 4.81 0 0 0 -1 0.13 4 4 0 0 0 -1.42 0.63 1.49 1.49 0 0 0 -0.14 0.12A2.6 2.6 0 0 1 9.72 2Z" fill="#4C57E6" fill-rule="evenodd" stroke-width="1"></path>
    <path d="M12.71 22.4c0.1 -0.6 0.23 -1.19 0.3 -1.79 0 -0.29 0 -0.59 0.05 -0.88a3.07 3.07 0 0 0 -0.17 -1 1.1 1.1 0 0 0 -0.4 -0.5 1.5 1.5 0 0 0 -0.78 -0.25 4.32 4.32 0 0 0 -1.36 0.28 0.33 0.33 0 0 0 -0.25 0.38 0.31 0.31 0 0 0 0.38 0.25 5.73 5.73 0 0 1 0.83 0 0.7 0.7 0 0 1 0.47 0.2l0 0.69 0.13 2.6a2.44 2.44 0 0 0 -0.27 0c-0.43 0 -1.93 0.28 -1.86 0.75 0 0.18 -0.08 0.25 1.67 0.45l0.56 0a5.44 5.44 0 0 0 0.57 0c1.56 -0.13 1.74 -0.28 1.73 -0.58s-0.13 -0.4 -1.6 -0.6Z" fill="#4C57E6" fill-rule="evenodd" stroke-width="1"></path>
  </g>
</svg>