<svg xmlns="http://www.w3.org/2000/svg" viewBox="0 0 24 24" id="Insect-Rhinoceros-Beetle--Streamline-Freehand">
  <desc>
    Insect Rhinoceros Beetle Streamline Icon: https://streamlinehq.com
  </desc>
  <g>
    <path d="M8.55 15.05s-0.27 -0.33 -0.4 -0.45a0.42 0.42 0 0 0 -0.37 -0.11 1.15 1.15 0 0 0 -0.71 0.45 4.37 4.37 0 0 0 -0.61 1.32c-0.15 0.48 -0.28 1 -0.39 1.45 -0.15 0.72 -0.26 1.44 -0.42 2.15l-0.21 1 0 0.08 -0.39 0.06q-0.4 0 -0.81 0.06h-0.82a0.32 0.32 0 1 0 0 0.63c0.34 0 0.68 0.07 1 0.08a5.61 5.61 0 0 0 0.71 0 5.08 5.08 0 0 0 0.54 0 1 1 0 0 0 0.33 -0.14 0.5 0.5 0 0 0 0.17 -0.2 2.23 2.23 0 0 0 0.09 -0.32l0.33 -1c0.1 -0.36 0.19 -0.72 0.27 -1.09 0.19 -0.83 0.32 -1.66 0.54 -2.48a4.71 4.71 0 0 1 0.22 -0.83c0.06 -0.15 0.1 -0.33 0.21 -0.4a2 2 0 0 1 0.22 0.28l1 0.79a0.29 0.29 0 0 0 0.4 0 0.27 0.27 0 0 0 0 -0.39Z" fill="#020202" fill-rule="evenodd" stroke-width="1"></path>
    <path d="M16 21.2c-0.36 -0.07 -0.77 0 -1.14 -0.1a0.89 0.89 0 0 1 -0.5 -0.2l-0.08 -1.11 -0.28 -3.65a10.06 10.06 0 0 0 -0.14 -1.23 4.76 4.76 0 0 0 -0.24 -0.84 1.72 1.72 0 0 0 -0.19 -0.48 0.55 0.55 0 0 0 -0.24 -0.21 0.52 0.52 0 0 0 -0.59 0.18c-0.14 0.17 -0.46 0.64 -0.47 0.66L11 16.1a0.27 0.27 0 0 0 0 0.39 0.28 0.28 0 0 0 0.4 0l1.41 -1.76 0.06 0.4q0.06 0.57 0.09 1.14c0 0.62 0.08 1.23 0.15 1.84s0.16 1.22 0.24 1.84c0 0.19 0.07 0.68 0.17 1a1.07 1.07 0 0 0 0.34 0.6 1.64 1.64 0 0 0 0.69 0.27c0.43 0.07 0.91 0 1.33 0a0.32 0.32 0 0 0 0.12 -0.62Z" fill="#020202" fill-rule="evenodd" stroke-width="1"></path>
    <path d="M23.7 20.42c-0.4 0 -0.84 0 -1.25 -0.12a1.53 1.53 0 0 1 -0.63 -0.27 0.5 0.5 0 0 1 -0.17 -0.27c-0.1 -0.27 -0.13 -0.57 -0.2 -0.79 -0.13 -0.49 -0.26 -1 -0.42 -1.45s-0.31 -0.95 -0.48 -1.42 -0.35 -1 -0.57 -1.4a6.65 6.65 0 0 0 -0.53 -0.9 3 3 0 0 0 -0.41 -0.51 0.79 0.79 0 0 0 -0.41 -0.19 0.48 0.48 0 0 0 -0.42 0.2l-0.12 0.21 -0.23 0.47a9.2 9.2 0 0 0 -0.48 1.12c-0.21 0.56 -0.38 1.13 -0.55 1.7a0.28 0.28 0 1 0 0.52 0.18c0.22 -0.53 0.45 -1.07 0.7 -1.59 0.17 -0.34 0.35 -0.68 0.55 -1a7.31 7.31 0 0 1 0.4 0.79c0.19 0.43 0.36 0.88 0.52 1.32l1 2.78a7 7 0 0 0 0.38 1 1.33 1.33 0 0 0 0.42 0.46 2.42 2.42 0 0 0 1 0.32l1.32 0a0.32 0.32 0 1 0 0 -0.64Z" fill="#020202" fill-rule="evenodd" stroke-width="1"></path>
    <path d="M4.9 11.14a4.09 4.09 0 0 1 -1.79 1.25 2.57 2.57 0 0 1 -0.77 0.15 1.63 1.63 0 0 1 -0.68 -0.14l-0.52 -0.33 -0.23 -0.19a0.58 0.58 0 0 0 -0.75 0 0.59 0.59 0 0 0 -0.16 0.42 5.69 5.69 0 0 0 0.11 0.7 8.39 8.39 0 0 0 0.27 0.85 7.59 7.59 0 0 0 0.37 0.82l1.14 1.92a4.39 4.39 0 0 0 0.32 0.53 0.92 0.92 0 0 0 0.32 0.27 2.7 2.7 0 0 0 1.1 0.25 14.06 14.06 0 0 0 1.51 -0.07 0.31 0.31 0 0 0 0.31 -0.32 0.31 0.31 0 0 0 -0.33 -0.31l-1.43 0a2.35 2.35 0 0 1 -0.79 -0.22l-0.29 -0.54 -1 -1.93a5.8 5.8 0 0 1 -0.28 -0.73 2.59 2.59 0 0 0 1 0.16 3.42 3.42 0 0 0 1.08 -0.23 5.09 5.09 0 0 0 2.1 -1.69 19.5 19.5 0 0 0 1.9 -3.36 0.27 0.27 0 0 0 -0.11 -0.4 0.28 0.28 0 0 0 -0.38 0.11 15.48 15.48 0 0 1 -2.02 3.03Z" fill="#020202" fill-rule="evenodd" stroke-width="1"></path>
    <path d="M8.7 4.2a6.6 6.6 0 0 0 -1.4 -1.34 3.52 3.52 0 0 0 -2.7 -0.64A3.9 3.9 0 0 0 2.3 3.7a8 8 0 0 0 -0.87 1.21 1 1 0 0 0 -0.12 0.67 0.49 0.49 0 0 0 0.35 0.42 0.57 0.57 0 0 0 0.36 0 2.33 2.33 0 0 0 0.27 -0.21l0.36 -0.17a2.68 2.68 0 0 1 0.64 -0.11 1.86 1.86 0 0 1 0.62 0.08 2.6 2.6 0 0 1 1.21 0.93 11.43 11.43 0 0 1 1.22 2.1c0.18 0.21 0.51 -0.21 0.36 -0.62a9.8 9.8 0 0 0 -1 -2 3.33 3.33 0 0 0 -1.5 -1.27 2.65 2.65 0 0 0 -0.89 -0.17 2.36 2.36 0 0 0 -0.46 0 2.51 2.51 0 0 0 0.27 -0.25A3 3 0 0 1 4.8 3.27a2.51 2.51 0 0 1 1.9 0.47 5.84 5.84 0 0 1 1.22 1.11A20.61 20.61 0 0 1 9.42 7c0.18 0.31 0.43 0.64 0.63 1a2.31 2.31 0 0 1 0.27 0.63 5.43 5.43 0 0 1 0.17 1.07c0.06 0.89 0 1.81 0.06 2.7a0.32 0.32 0 0 0 0.34 0.3 0.31 0.31 0 0 0 0.29 -0.34c0 -0.88 0.08 -1.8 0.06 -2.7a7.11 7.11 0 0 0 -0.13 -1.22 3.61 3.61 0 0 0 -0.32 -0.84c-0.16 -0.35 -1.62 -2.81 -2.09 -3.4Z" fill="#4C57E6" fill-rule="evenodd" stroke-width="1"></path>
    <path d="m23.53 15.35 0 -1a12.28 12.28 0 0 0 -0.61 -3 7.71 7.71 0 0 0 -1.61 -2.71 5.75 5.75 0 0 0 -1.39 -1.07 10.93 10.93 0 0 0 -2.35 -0.86 19.94 19.94 0 0 0 -3 -0.5 37.51 37.51 0 0 0 -3.83 -0.12c-0.46 0.09 -0.34 0.42 0 0.61 1.25 0.08 2.5 0.17 3.73 0.36a17.75 17.75 0 0 1 2.85 0.64 9.54 9.54 0 0 1 2.11 0.82 4.75 4.75 0 0 1 1.14 0.86A6.69 6.69 0 0 1 22 11.67a11.43 11.43 0 0 1 0.71 2.76l0.09 1 0.11 0.88c0 0.1 -0.18 0 -0.32 0s-0.59 -0.09 -0.72 -0.1a0.32 0.32 0 0 0 -0.36 0.28 0.33 0.33 0 0 0 0.28 0.36 4.75 4.75 0 0 0 1.13 0.12 0.74 0.74 0 0 0 0.64 -0.42 0.79 0.79 0 0 0 0.06 -0.35c-0.02 -0.28 -0.09 -0.7 -0.09 -0.85Z" fill="#020202" fill-rule="evenodd" stroke-width="1"></path>
    <path d="M8 12.33a1 1 0 0 0 0.53 -0.1 0.61 0.61 0 0 0 0.32 -0.33 0.89 0.89 0 0 0 0 -0.73 0.81 0.81 0 0 0 -1.54 0.38c-0.06 0.36 0.18 0.69 0.69 0.78Z" fill="#020202" fill-rule="evenodd" stroke-width="1"></path>
  </g>
</svg>