<svg xmlns="http://www.w3.org/2000/svg" viewBox="0 0 24 24" id="Instrument-Saxophone--Streamline-Freehand">
  <desc>
    Instrument Saxophone Streamline Icon: https://streamlinehq.com
  </desc>
  <g>
    <path d="M18.82 17.73a0.29 0.29 0 0 0 -0.32 0.24 4.33 4.33 0 0 1 -0.74 1.32 5.52 5.52 0 0 1 -0.62 0.74 2.85 2.85 0 0 1 -1.33 0.86 0.31 0.31 0 1 0 0.07 0.62 3.13 3.13 0 0 0 1.75 -0.51 3.61 3.61 0 0 0 0.59 -0.52 3.54 3.54 0 0 0 0.44 -0.65 3.94 3.94 0 0 0 0.39 -1.74 0.28 0.28 0 0 0 -0.23 -0.36Z" fill="#020202" stroke-width="1"></path>
    <path d="M22.93 12.37c-0.77 -0.5 -1.54 -1 -2.33 -1.43 -0.34 -0.19 -0.69 -0.38 -1 -0.55s-0.7 -0.33 -1.06 -0.48c-0.84 -0.36 -1.69 -0.65 -2.54 -1a0.28 0.28 0 0 0 -0.25 0.5l0.54 0.33a6.35 6.35 0 0 0 -1.16 1.92 6.29 6.29 0 0 0 -0.33 1l0 -0.35c-0.05 -0.64 -0.08 -1.28 -0.09 -1.91l0.48 -0.28a0.32 0.32 0 1 0 -0.18 -0.61h-0.33c0 -0.47 -0.06 -1 -0.13 -1.55l0.39 -0.22a0.33 0.33 0 0 0 0.23 -0.39 0.32 0.32 0 0 0 -0.39 -0.23l-0.34 0c0 -0.26 -0.08 -0.53 -0.14 -0.8s-0.06 -0.27 -0.1 -0.4c0.27 -0.15 0.51 -0.31 0.78 -0.45a0.32 0.32 0 0 0 -0.26 -0.47 7.73 7.73 0 0 0 -0.86 0.13A10 10 0 0 0 12.92 3 4.7 4.7 0 0 0 8.67 0.44l-1.34 0c-0.22 0 -0.44 0.39 -0.07 0.47a8.94 8.94 0 0 0 1.4 0.24 4 4 0 0 1 3.4 2.33 9.78 9.78 0 0 1 0.81 2c-0.29 0.18 -0.52 0.39 -0.79 0.59a0.28 0.28 0 0 0 -0.15 0.37 0.27 0.27 0 0 0 0.36 0.15c0.28 0 0.55 -0.09 0.82 -0.15a1.42 1.42 0 0 1 0.05 0.22c0.06 0.27 0.11 0.55 0.16 0.82a1.08 1.08 0 0 0 -0.24 0.12 7.57 7.57 0 0 0 -0.7 0.57 0.28 0.28 0 0 0 -0.13 0.37 0.27 0.27 0 0 0 0.37 0.13c0.29 0 0.56 -0.07 0.86 -0.14 0 0.46 0.09 0.88 0.12 1.27l-0.17 0.07a3.84 3.84 0 0 0 -0.68 0.54 0.28 0.28 0 0 0 -0.12 0.37 0.28 0.28 0 0 0 0.37 0.13c0.24 0 0.45 0 0.68 -0.07 0 0.41 0.06 0.83 0.11 1.25a18.58 18.58 0 0 0 0.33 2l0.29 1.23c0.05 0.16 0.16 0.54 0.19 0.65 0.58 1.87 1.35 2.53 0.7 -0.06a19.86 19.86 0 0 1 0.39 -2.43c0.13 -0.6 0.25 -1.22 0.43 -1.8a6.82 6.82 0 0 1 0.71 -1.57c0.52 0.32 1 0.62 1.57 0.91s1.11 0.54 1.68 0.79c0.4 0.19 0.81 0.36 1.22 0.54a5 5 0 0 0 -0.67 2c-0.21 1.84 0.54 3.63 -0.32 5.56a5.23 5.23 0 0 1 -4.5 3A5.24 5.24 0 0 1 11 20.66a9.66 9.66 0 0 1 -1.49 -4.8c-0.17 -2.61 0.3 -5.31 0.13 -8a9 9 0 0 0 -0.9 -3.71A3.34 3.34 0 0 0 7 2.5a0.34 0.34 0 0 0 -0.23 0.61 3.28 3.28 0 0 1 1.31 1.37A8.36 8.36 0 0 1 8.8 7.9c0.12 3.18 -0.68 6.34 -0.21 9.4a9.93 9.93 0 0 0 1.46 3.94A6.22 6.22 0 0 0 15.89 24a6.09 6.09 0 0 0 5.18 -3.73c0.84 -2 0 -3.89 0.19 -5.82a4.52 4.52 0 0 1 0.56 -1.85l0.8 0.35a0.3 0.3 0 0 0 0.43 -0.12 0.31 0.31 0 0 0 -0.12 -0.46Z" fill="#020202" stroke-width="1"></path>
    <path d="M6.83 1.07c0 -0.23 0.08 -0.44 0.08 -0.68a0.27 0.27 0 0 0 -0.22 -0.25C6.28 0.07 6.3 0.7 6 2.08c0 0.15 0 0.29 -0.07 0.42s0 0 -0.07 0.06a1.53 1.53 0 0 1 -0.68 0c-0.46 0 -0.94 -0.16 -1.33 -0.19l-0.52 0a0.8 0.8 0 0 1 -0.22 -0.23c-0.17 -0.21 -0.32 -0.46 -0.5 -0.65L2.14 1l0.35 0A6.61 6.61 0 0 1 4 0.79 8.55 8.55 0 0 1 5.51 0.9a0.31 0.31 0 0 0 0.37 -0.25 0.32 0.32 0 0 0 -0.25 -0.37A10.47 10.47 0 0 0 4 0a7.81 7.81 0 0 0 -1.68 0.07 2.78 2.78 0 0 0 -1 0.31 0.92 0.92 0 0 0 -0.41 0.62 0.57 0.57 0 0 0 0.15 0.46c0.05 0.06 0.21 0.19 0.23 0.21l0.57 0.57c0.19 0.21 0.34 0.49 0.53 0.71a1.78 1.78 0 0 0 0.42 0.36 1.28 1.28 0 0 0 0.4 0.15 4.28 4.28 0 0 0 0.62 0c0.47 0 1.06 0.12 1.59 0.08a2 2 0 0 0 0.82 -0.21c0.32 -0.18 0.38 -0.45 0.59 -2.26Z" fill="#4C57E6" stroke-width="1"></path>
  </g>
</svg>