<svg xmlns="http://www.w3.org/2000/svg" viewBox="0 0 24 24" id="Instrument-Doublebass--Streamline-Freehand">
  <desc>
    Instrument Doublebass Streamline Icon: https://streamlinehq.com
  </desc>
  <g>
    <path d="M13.34 20.4a4.5 4.5 0 0 1 -3.77 2.06c-5.68 0.37 -7.26 -5.41 -5.25 -9.58a3 3 0 0 1 0.54 -0.83c0.07 0.1 0.33 0.11 0.42 0.16a3 3 0 0 0 2 0.38 3.65 3.65 0 0 0 2.39 -2.28A2.76 2.76 0 0 0 10 8.78a0.28 0.28 0 0 0 -0.44 -0.23c-0.3 0.13 -0.38 1.14 -0.54 1.51a3.73 3.73 0 0 1 -0.81 1.13c-1.82 1.7 -2.78 -0.72 -3.81 0a6.25 6.25 0 0 0 -1.76 3.24A8.06 8.06 0 0 0 3 19.76a26 26 0 0 0 -2.79 3A1.19 1.19 0 0 0 0.12 24c1.09 1.64 3.65 -0.24 5.12 -1.54 2.72 1.62 7.25 1.16 8.69 -1.72a0.33 0.33 0 0 0 -0.59 -0.34ZM1.49 23.48c-0.71 0.06 -0.38 -0.12 0 -0.67 0.46 -0.72 1.13 -1.53 1.29 -1.77s0.44 -0.4 0.6 -0.57A6 6 0 0 0 4.63 22a8.89 8.89 0 0 1 -3.14 1.48Z" fill="#020202" fill-rule="evenodd" stroke-width="1"></path>
    <path d="M23.41 2.5c-1.5 -1.44 -2.28 -2.07 -3.82 -0.5a4.48 4.48 0 0 0 -0.67 -1 0.33 0.33 0 1 0 -0.61 0.26 3 3 0 0 0 0.5 1.6l-1.07 1.19 -0.13 -0.36c-0.26 -0.23 -0.86 -0.87 -1.16 -0.71s-0.12 1.34 0.73 1.69l-2 2.22c-2 -1.27 -3.81 -0.92 -5.08 0.61a0.33 0.33 0 0 0 0.47 0.47 3.13 3.13 0 0 1 2.86 -0.63 3.7 3.7 0 0 1 1.15 0.2c-1 1.13 -2 2.29 -2.84 3.35a8.61 8.61 0 0 0 -0.81 1c-0.33 0.64 1.1 2.34 2.1 1.74 0.34 -0.21 4.46 -3.56 4.55 -3.63 0.94 2.11 0.27 4.67 -1.05 5.4 -0.56 0.32 -2.47 -0.6 -3.46 1.41a4.6 4.6 0 0 0 -0.16 3.19c0.3 0.59 0.92 0.23 0.76 -0.13 -0.6 -1.36 -0.05 -3.42 1.56 -3.31a10.71 10.71 0 0 0 1.1 0.06c2.13 -0.13 3.72 -4 1.86 -7.1L19.6 8.3c0.24 0.68 0.61 0.69 1 0.94a0.34 0.34 0 0 0 0.51 -0.44c-0.3 -0.67 -0.24 -0.69 -0.79 -1.09l1.35 -1.11a1.8 1.8 0 0 0 0.93 0.68 0.34 0.34 0 0 0 0.56 -0.38 2.06 2.06 0 0 0 -0.65 -1c1.3 -1.04 2.1 -2.24 0.9 -3.4ZM20.65 6c-0.36 0.15 -7.26 6.46 -8 7 -0.29 0.19 -0.87 -0.53 -1.1 -0.8 0.24 -0.11 0.52 -0.67 0.7 -0.88s8.37 -8.73 8.45 -8.8c0.61 -0.5 0.66 -0.42 1.94 0.81 0.83 0.79 -1.17 1.99 -1.99 2.67Z" fill="#020202" fill-rule="evenodd" stroke-width="1"></path>
    <path d="M9.09 13.53s-0.33 -0.41 -0.62 -0.13A8.72 8.72 0 0 1 7 14.54a7.28 7.28 0 0 1 -1.33 0.93 0.34 0.34 0 0 0 0.21 0.64 3.82 3.82 0 0 0 2.52 -1.34 9 9 0 0 0 0.69 -1.24Z" fill="#4C57E6" fill-rule="evenodd" stroke-width="1"></path>
    <path d="M9.59 19.32c0.13 -0.39 1.24 -2.93 1.81 -3.32a0.29 0.29 0 0 0 -0.25 -0.53 2.94 2.94 0 0 0 -2 2.14 9 9 0 0 0 -0.25 1.56 0.34 0.34 0 0 0 0.69 0.15Z" fill="#4C57E6" fill-rule="evenodd" stroke-width="1"></path>
  </g>
</svg>