<svg xmlns="http://www.w3.org/2000/svg" viewBox="0 0 24 24" id="Iot-Technology-Wearable-Device--Streamline-Freehand">
  <desc>
    Iot Technology Wearable Device Streamline Icon: https://streamlinehq.com
  </desc>
  <g>
    <path d="M14.76 7.55A2.69 2.69 0 0 0 14 6a4.11 4.11 0 0 0 -1.09 -0.67 11.31 11.31 0 0 0 -0.6 -2.55A5.07 5.07 0 0 0 11.19 1 2.4 2.4 0 0 0 9.84 0.39 9.77 9.77 0 0 0 8 0.38L6.42 0.45l-0.87 0.11a2.35 2.35 0 0 0 -1.5 0.84 5.39 5.39 0 0 0 -0.74 2.15 9 9 0 0 0 -0.16 1l0 0.68a3.58 3.58 0 0 0 -0.35 0.11 1.79 1.79 0 0 0 -0.8 0.54 2.78 2.78 0 0 0 -0.48 0.76c-0.08 0.21 -0.15 0.43 -0.21 0.65a0.32 0.32 0 0 0 -0.31 0.27c-0.1 1 -0.14 1.91 -0.15 2.87l0 4.28A13 13 0 0 0 0.9 17a2.51 2.51 0 0 0 0.82 1.5 3.88 3.88 0 0 0 1.16 0.69l0.13 0a19.76 19.76 0 0 0 0.63 2.28 5.57 5.57 0 0 0 0.92 1.73 1 1 0 0 0 0.37 0.27 4.74 4.74 0 0 0 0.64 0.24A6 6 0 0 0 7.2 24a7.88 7.88 0 0 0 1.61 -0.1 10.81 10.81 0 0 0 1.62 -0.26 1.87 1.87 0 0 0 0.79 -0.47A3.88 3.88 0 0 0 11.9 22c0.32 -0.89 0.44 -1.93 0.68 -2.75a3.29 3.29 0 0 0 2.08 -2.65 20.91 20.91 0 0 0 0.21 -2.73l0 -4a10.58 10.58 0 0 0 -0.11 -2.32ZM3.8 4.66c0.06 -0.31 0.14 -0.62 0.23 -0.92a7 7 0 0 1 0.58 -1.52 1.35 1.35 0 0 1 1.1 -0.61l0.77 -0.06L8 1.49a11.41 11.41 0 0 1 1.68 0 1.4 1.4 0 0 1 0.81 0.26 4.24 4.24 0 0 1 1 1.39 11 11 0 0 1 0.65 2l-0.07 0a14.45 14.45 0 0 0 -2.92 -0.24l-3.08 0A16.12 16.12 0 0 0 4 5.06l-0.23 0Zm6.72 17.83a1 1 0 0 1 -0.56 0.2c-0.45 0.08 -1 0.08 -1.31 0.12a8.28 8.28 0 0 1 -1.41 0.07 5.07 5.07 0 0 1 -1.35 -0.2l-0.59 -0.16a4.77 4.77 0 0 1 -0.89 -1.37 17 17 0 0 1 -0.67 -1.73c0.33 0.08 0.66 0.14 1 0.19s0.68 0.1 1 0.13 0.69 0.06 1 0.07a17.37 17.37 0 0 0 5 -0.32c-0.18 0.58 -0.33 1.21 -0.55 1.8a3.26 3.26 0 0 1 -0.67 1.2ZM13.8 9.81c0 1.55 0 3.11 -0.06 4.66a18.17 18.17 0 0 1 -0.18 1.94 2.41 2.41 0 0 1 -1.83 1.95 15.3 15.3 0 0 1 -4.93 0.43l-1.95 -0.14a7.33 7.33 0 0 1 -1.64 -0.37 3.13 3.13 0 0 1 -0.92 -0.49 1.72 1.72 0 0 1 -0.56 -1 11.38 11.38 0 0 1 -0.07 -2.1c0 -1.43 -0.13 -2.85 -0.15 -4.27l0 -2.19A0.34 0.34 0 0 0 1.8 8a5.82 5.82 0 0 1 0.32 -1.08 2.22 2.22 0 0 1 0.37 -0.57A1.29 1.29 0 0 1 3 6a6.71 6.71 0 0 1 1.1 -0.21 14.4 14.4 0 0 1 2 -0.16c1 0 2 0 3 0.08a13.32 13.32 0 0 1 2.73 0.29 3.17 3.17 0 0 1 1.46 0.74 1.82 1.82 0 0 1 0.49 1 9.59 9.59 0 0 1 0.02 2.07Z" fill="#020202" fill-rule="evenodd" stroke-width="1"></path>
    <path d="M11.62 12.08c-0.44 -0.06 -0.94 -0.24 -1.41 -0.33a2.62 2.62 0 0 0 -0.73 -0.05 0.49 0.49 0 0 0 -0.37 0.33c-0.06 0.17 -0.16 0.62 -0.18 0.71 -0.1 0.37 -0.19 0.83 -0.33 1.26l0 -0.12c-0.28 -0.73 -0.48 -1.49 -0.74 -2.24 -0.11 -0.33 -0.24 -0.66 -0.38 -1l-0.21 -0.42A3.75 3.75 0 0 0 7 9.84a0.57 0.57 0 0 0 -0.32 -0.19 0.51 0.51 0 0 0 -0.43 0.1 1 1 0 0 0 -0.34 0.5c-0.12 0.36 -0.16 1 -0.23 1.18a3.63 3.63 0 0 1 -0.21 0.56 1.07 1.07 0 0 1 -0.2 0.32h-0.51l-1.9 -0.09a0.29 0.29 0 1 0 -0.06 0.58l1.9 0.2a6.15 6.15 0 0 0 0.64 0.09 0.77 0.77 0 0 0 0.34 -0.09 1.77 1.77 0 0 0 0.48 -0.5 3.92 3.92 0 0 0 0.4 -0.79 0.69 0.69 0 0 0 0 -0.19l0.94 2.73 0.3 0.71c0 0.11 0.09 0.37 0.14 0.48a0.58 0.58 0 0 0 0.28 0.28 0.51 0.51 0 0 0 0.66 -0.15 3.18 3.18 0 0 0 0.53 -1.11 15.3 15.3 0 0 0 0.3 -1.57s0 -0.27 0 -0.44a1.87 1.87 0 0 1 0.33 0c0.49 0.06 1 0.21 1.46 0.24a0.33 0.33 0 0 0 0.36 -0.29 0.32 0.32 0 0 0 -0.24 -0.32Z" fill="#4C57E6" fill-rule="evenodd" stroke-width="1"></path>
    <path d="M17.27 5.86a1.56 1.56 0 0 0 -0.38 -0.39A3.37 3.37 0 0 0 15.78 5a0.3 0.3 0 0 0 -0.4 0.13 0.29 0.29 0 0 0 0.14 0.39 4.75 4.75 0 0 1 0.65 0.72l0.31 0.4c0.07 0.1 0.15 0.18 0.21 0.28a2.9 2.9 0 0 1 0.39 0.72 0.33 0.33 0 1 0 0.65 -0.12 3.42 3.42 0 0 0 -0.19 -1.19 1.9 1.9 0 0 0 -0.27 -0.47Z" fill="#4C57E6" fill-rule="evenodd" stroke-width="1"></path>
    <path d="M19.44 4.34a3.53 3.53 0 0 0 -0.68 -0.76 3.26 3.26 0 0 0 -2.23 -0.77 0.29 0.29 0 1 0 0 0.58 2.87 2.87 0 0 1 1.54 1 5 5 0 0 1 0.49 0.62 8 8 0 0 1 0.43 0.69 6.06 6.06 0 0 1 0.61 1.8 0.32 0.32 0 0 0 0.34 0.31 0.33 0.33 0 0 0 0.31 -0.35 5.84 5.84 0 0 0 -0.35 -2.23 4.4 4.4 0 0 0 -0.46 -0.89Z" fill="#4C57E6" fill-rule="evenodd" stroke-width="1"></path>
    <path d="M22.63 4.15a6.66 6.66 0 0 0 -2 -2.69A7.06 7.06 0 0 0 17 0a0.3 0.3 0 0 0 -0.34 0.24 0.29 0.29 0 0 0 0.24 0.34 6.67 6.67 0 0 1 3 1.68 8.54 8.54 0 0 1 1 1.09 8.19 8.19 0 0 1 0.77 1.23 6.75 6.75 0 0 1 0.74 3.35 0.33 0.33 0 1 0 0.65 0.08 7.12 7.12 0 0 0 -0.43 -3.86Z" fill="#4C57E6" fill-rule="evenodd" stroke-width="1"></path>
  </g>
</svg>