<svg xmlns="http://www.w3.org/2000/svg" viewBox="0 0 24 24" id="Iot-Technology-Car--Streamline-Freehand">
  <desc>
    Iot Technology Car Streamline Icon: https://streamlinehq.com
  </desc>
  <g>
    <path d="M6.12 17c-0.33 -0.05 -0.63 -0.13 -1 -0.18l-0.41 0a2.73 2.73 0 0 0 -0.41 0 8.8 8.8 0 0 0 -1 0.25 0.31 0.31 0 0 0 -0.29 0.3 0.3 0.3 0 0 0 0.31 0.29c0.33 0.08 0.62 0.18 1 0.24a2.82 2.82 0 0 0 0.41 0 3 3 0 0 0 0.42 0c0.33 0 0.64 -0.13 1 -0.21a0.34 0.34 0 0 0 0.33 -0.35 0.34 0.34 0 0 0 -0.36 -0.34Z" fill="#4C57E6" fill-rule="evenodd" stroke-width="1"></path>
    <path d="M18 16.11a7.21 7.21 0 0 0 -1.13 -0.19 2.57 2.57 0 0 0 -0.48 0 3.85 3.85 0 0 0 -0.49 0.08 6.9 6.9 0 0 0 -1.07 0.44 0.28 0.28 0 0 0 -0.22 0.35 0.29 0.29 0 0 0 0.39 0.21c0.37 0 0.71 0.06 1.08 0.06a2.16 2.16 0 0 0 0.44 0c0.15 0 0.3 0 0.44 -0.06 0.36 -0.07 0.69 -0.15 1.05 -0.2a0.34 0.34 0 0 0 0.35 -0.33 0.33 0.33 0 0 0 -0.36 -0.36Z" fill="#4C57E6" fill-rule="evenodd" stroke-width="1"></path>
    <path d="M16.89 5.09a1.49 1.49 0 0 1 0.56 0.39c0.06 0 0.09 0.11 0.15 0.17l0.24 0.26a4 4 0 0 1 0.64 0.82 0.34 0.34 0 1 0 0.64 -0.21 3.64 3.64 0 0 0 -0.28 -1.07 1.45 1.45 0 0 0 -0.28 -0.45 1.37 1.37 0 0 0 -0.42 -0.34 1.88 1.88 0 0 0 -1.2 -0.18 0.3 0.3 0 0 0 -0.05 0.59Z" fill="#4C57E6" fill-rule="evenodd" stroke-width="1"></path>
    <path d="M17.09 2.61a3.46 3.46 0 0 1 1.71 0.74 5.43 5.43 0 0 1 0.58 0.51 7.91 7.91 0 0 1 0.52 0.61 7.47 7.47 0 0 1 1 1.71 0.33 0.33 0 1 0 0.64 -0.18 7.61 7.61 0 0 0 -0.75 -2.11 4.08 4.08 0 0 0 -0.6 -0.8 3.09 3.09 0 0 0 -0.81 -0.64A3.84 3.84 0 0 0 17.1 2a0.29 0.29 0 0 0 -0.3 0.3 0.28 0.28 0 0 0 0.29 0.31Z" fill="#4C57E6" fill-rule="evenodd" stroke-width="1"></path>
    <path d="M22.89 2.29A5.13 5.13 0 0 0 19.67 0.11a4.86 4.86 0 0 0 -1 -0.11 11.43 11.43 0 0 0 -1.42 0.1 0.3 0.3 0 0 0 -0.25 0.31 0.3 0.3 0 0 0 0.31 0.28c0.38 0 0.75 0 1.12 0.06a4.83 4.83 0 0 1 2.19 0.86A5.77 5.77 0 0 1 22 2.93 6.23 6.23 0 0 1 23.29 6 0.34 0.34 0 1 0 24 6a6.65 6.65 0 0 0 -1.11 -3.71Z" fill="#4C57E6" fill-rule="evenodd" stroke-width="1"></path>
    <g>
      <path d="M22 15.35a2.84 2.84 0 0 0 -0.15 -0.8 2.16 2.16 0 0 0 -0.59 -0.8 9 9 0 0 0 -1 -0.76l-1.91 -1.14 -0.75 -2.49a15.13 15.13 0 0 0 -0.9 -1.86 4.13 4.13 0 0 0 -1 -1.14 1.74 1.74 0 0 0 -0.7 -0.31 9.29 9.29 0 0 0 -1.34 -0.11l-4 -0.18A14.53 14.53 0 0 0 8 5.78a11 11 0 0 0 -1.76 0.27 6.35 6.35 0 0 0 -0.93 0.27 1.53 1.53 0 0 0 -0.46 0.28 2.69 2.69 0 0 0 -0.53 0.74 11.68 11.68 0 0 0 -0.42 1.1c-0.18 0.5 -0.34 1 -0.5 1.51 -0.23 0.75 -0.45 1.51 -0.66 2.27a0.23 0.23 0 0 0 0 0.18c-0.11 0.12 -0.24 0.25 -0.46 0.45 -0.41 0.38 -1 0.77 -1.41 1.24a2.36 2.36 0 0 0 -0.51 0.76 3.53 3.53 0 0 0 -0.25 1l0 1.45a7.36 7.36 0 0 0 0 1.31 2.88 2.88 0 0 0 0.28 0.94 1.7 1.7 0 0 0 0.75 0.73 5.55 5.55 0 0 0 1.24 0.36 6.35 6.35 0 0 0 0.77 0.12 12.64 12.64 0 0 0 1.51 0.13c0.84 0 3.23 -0.14 3.23 -0.14H8c1.94 -0.14 3.87 -0.27 5.79 -0.42 0.24 0 1.35 -0.1 1.35 -0.13l2.48 -0.2 2.38 -0.08a5.45 5.45 0 0 0 0.69 0 1.19 1.19 0 0 0 0.46 -0.13 1.6 1.6 0 0 0 0.66 -0.86A7.08 7.08 0 0 0 22 17c0 -0.48 0.06 -1.1 0 -1.65ZM21.09 17a9 9 0 0 1 -0.09 1.41 0.85 0.85 0 0 1 -0.33 0.55h-0.69l-2.41 0 -9.63 0.69c-1.09 0.08 -2.17 0.18 -3.25 0.19a11.43 11.43 0 0 1 -2.1 -0.16 4.25 4.25 0 0 1 -1 -0.24 0.85 0.85 0 0 1 -0.37 -0.31 2 2 0 0 1 -0.2 -0.63 7.11 7.11 0 0 1 -0.08 -1.17A12.83 12.83 0 0 1 0.88 16a2.71 2.71 0 0 1 0.12 -0.87 2.24 2.24 0 0 1 0.51 -0.74c0.38 -0.39 0.83 -0.74 1.16 -1.06a7.08 7.08 0 0 0 0.6 -0.63l0.34 -1.37c0.14 -0.38 0.27 -0.77 0.41 -1.14s0.38 -1 0.59 -1.45a8.28 8.28 0 0 1 0.45 -1 1.73 1.73 0 0 1 0.36 -0.44 1 1 0 0 1 0.28 -0.13 5.14 5.14 0 0 1 0.69 -0.13A11.21 11.21 0 0 1 8 6.88l1.63 0 4 0.11 1.07 0a1 1 0 0 1 0.46 0.13A3.26 3.26 0 0 1 16 8a15.28 15.28 0 0 1 0.95 1.69l0.9 2.61 2.05 1.31a8.8 8.8 0 0 1 0.92 0.71 1.26 1.26 0 0 1 0.36 0.51 2.07 2.07 0 0 1 0.08 0.76c-0.06 0.47 -0.15 0.97 -0.17 1.41Z" fill="#020202" stroke-width="1"></path>
      <path d="m15.84 11.46 -3.73 0.23 -2.56 0c-0.57 0 -1.14 0 -1.71 0.05 -1.23 0.06 -3.45 0 -3.49 0 -0.56 0.18 -0.51 0.52 0 0.66l0.91 0c1.13 0 2.25 0.06 3.38 0.09s2.27 0 3.41 0l3.83 -0.2 1 -0.07c0.55 0 0.4 -0.64 -0.18 -0.72Z" fill="#4C57E6" stroke-width="1"></path>
      <path d="m18.88 20.54 0 0.76 -0.16 0.85a0.74 0.74 0 0 1 -0.48 0.52 4.46 4.46 0 0 1 -1.6 0 6.56 6.56 0 0 1 -0.78 -0.07c-0.19 0 -0.39 0 -0.5 -0.15a1.58 1.58 0 0 1 -0.22 -0.82 7.88 7.88 0 0 1 0 -0.84l-0.72 0.05a8.34 8.34 0 0 0 -0.16 1.16 2 2 0 0 0 0.28 1.11 1.6 1.6 0 0 0 0.86 0.56 4.46 4.46 0 0 0 1.17 0.17 5 5 0 0 0 2 -0.17 1.66 1.66 0 0 0 1 -1.29l0.08 -1.05 -0.05 -0.85Z" fill="#020202" stroke-width="1"></path>
      <path d="M7 22a1.1 1.1 0 0 1 -0.61 0.72 3.7 3.7 0 0 1 -1.74 0.16l-1.2 -0.05a1.53 1.53 0 0 1 -0.27 -0.76l0 -0.66 -0.72 -0.06a6.22 6.22 0 0 0 -0.06 1.06 2.09 2.09 0 0 0 0.27 1 1.22 1.22 0 0 0 0.69 0.48 5.67 5.67 0 0 0 1.23 0.11 4.56 4.56 0 0 0 2.25 -0.4 1.94 1.94 0 0 0 1 -1.41l0 -0.78 -0.77 0.06Z" fill="#020202" stroke-width="1"></path>
    </g>
  </g>
</svg>