<svg xmlns="http://www.w3.org/2000/svg" viewBox="0 0 24 24" id="Job-Search-Magnifier-Briefcase--Streamline-Freehand">
  <desc>
    Job Search Magnifier Briefcase Streamline Icon: https://streamlinehq.com
  </desc>
  <g>
    <path d="M22 10.53a4.09 4.09 0 0 0 2 -3.07 6 6 0 0 0 -0.66 -3.61 5.51 5.51 0 0 0 -2.4 -2.38 5 5 0 0 0 -3.4 -0.38 9.35 9.35 0 0 0 -2.67 1.05 5.38 5.38 0 0 0 -1.49 1.33 5.55 5.55 0 0 0 -0.85 4.22 5 5 0 0 0 2.36 3.54 5.06 5.06 0 0 0 2.24 0.57 11.12 11.12 0 0 0 3.28 -0.47 0.27 0.27 0 0 0 0.19 -0.22 11.53 11.53 0 0 0 0.52 1.06 4.07 4.07 0 0 0 0.33 0.48 5.63 5.63 0 0 0 0.38 0.45c0.32 0.34 0.66 0.65 1 1a0.32 0.32 0 0 0 0.46 0 0.32 0.32 0 0 0 0 -0.45c-0.24 -0.39 -0.45 -0.79 -0.69 -1.17a5.78 5.78 0 0 0 -0.33 -0.48 3.94 3.94 0 0 0 -0.36 -0.45c-0.23 -0.25 -0.47 -0.47 -0.71 -0.7l0.12 0a3.32 3.32 0 0 0 0.68 -0.32Zm-4.85 0.57a4.15 4.15 0 0 1 -1.88 -0.56 4.13 4.13 0 0 1 -1.8 -3 4.57 4.57 0 0 1 0.76 -3.41 4.53 4.53 0 0 1 1.57 -1.25 8.77 8.77 0 0 1 2 -0.72 4 4 0 0 1 2.7 0.25 4.66 4.66 0 0 1 2 1.9 5.11 5.11 0 0 1 0.68 3.06 3.4 3.4 0 0 1 -1.55 2.58 3.19 3.19 0 0 1 -0.65 0.3c-1.19 0.37 -1.4 1.05 -3.88 0.85Z" fill="#4C57E6" fill-rule="evenodd" stroke-width="1"></path>
    <path d="M19.2 13.75a1.56 1.56 0 0 1 -0.62 0.14c-0.58 0.11 -1.29 0.11 -2.11 0.11L15 14l-0.72 0c-0.8 0.07 -1.53 0.14 -2.08 0.21l0 -0.4a1.92 1.92 0 0 0 -1.31 -1.52 1.74 1.74 0 0 0 -1.89 0.64 2.57 2.57 0 0 0 -0.55 1.28s0 0.1 0 0.15c-0.81 -0.06 -2.61 -0.14 -4.21 -0.32a16 16 0 0 1 -1.67 -0.26 2.16 2.16 0 0 1 -0.83 -0.3 2.41 2.41 0 0 1 -0.79 -1.56A14.59 14.59 0 0 1 1 8.79a0.29 0.29 0 0 0 0 -0.14c1.3 0.1 2.59 0.21 3.9 0.24l2.45 0c1.23 0 2.45 -0.09 3.67 -0.1a0.32 0.32 0 0 0 0.34 -0.31 0.32 0.32 0 0 0 -0.36 -0.34C9.82 8 8.63 7.91 7.42 7.85l-1.09 0a8.38 8.38 0 0 1 0.27 -1.3 1.16 1.16 0 0 1 0.4 -0.66 1.8 1.8 0 0 1 0.7 -0.28 6.53 6.53 0 0 1 0.92 -0.16 16.69 16.69 0 0 1 2 -0.09 0.32 0.32 0 0 0 0.38 -0.29 0.34 0.34 0 0 0 -0.3 -0.36 12.52 12.52 0 0 0 -2.52 -0.24 3.34 3.34 0 0 0 -1.83 0.59 1.92 1.92 0 0 0 -0.54 1 6.87 6.87 0 0 0 -0.07 1.8l-1.36 0C3.15 7.89 2 8 0.77 8.06 0.36 8.06 0 11.21 0 12a3.31 3.31 0 0 0 1 2.26 4.7 4.7 0 0 0 2.4 0.73 49.64 49.64 0 0 0 5 0c0 0.36 0.06 0.72 0.11 1a0.3 0.3 0 0 0 0.31 0.26 0.29 0.29 0 0 0 0.26 -0.25 5.81 5.81 0 0 1 0.11 -1.65 1.88 1.88 0 0 1 0.47 -0.82 0.83 0.83 0 0 1 0.88 -0.19 0.87 0.87 0 0 1 0.57 0.69c0 0.17 0.05 0.36 0.07 0.55l0 0.07 0 0.1a4.13 4.13 0 0 1 0 0.86 2 2 0 0 1 -0.32 0.9 1.71 1.71 0 0 1 -0.57 0.46 0.69 0.69 0 0 1 -0.58 0.09 0.36 0.36 0 0 1 -0.16 -0.14c-0.06 -0.1 -0.11 -0.21 -0.16 -0.31a0.33 0.33 0 0 0 -0.43 -0.16 0.31 0.31 0 0 0 -0.16 0.43 3 3 0 0 0 0.22 0.48 1.12 1.12 0 0 0 0.33 0.32 1.28 1.28 0 0 0 1 0.1 2.58 2.58 0 0 0 1.17 -0.72 2.87 2.87 0 0 0 0.61 -1.25 4.59 4.59 0 0 0 0.1 -0.83c0.55 0 1.28 0.1 2.09 0.11 0.64 0 1.31 0 1.95 -0.07a8 8 0 0 0 3.33 -0.79 0.33 0.33 0 0 0 0 -0.45 0.33 0.33 0 0 0 -0.4 -0.03Z" fill="#020202" fill-rule="evenodd" stroke-width="1"></path>
    <path d="M18.93 15.26a0.32 0.32 0 0 0 -0.34 0.31l-0.21 4.1a5.11 5.11 0 0 1 -0.1 1.2 0.93 0.93 0 0 1 -0.29 0.52 2.49 2.49 0 0 1 -1.12 0.44 15.21 15.21 0 0 1 -2.09 0.16l-2.72 0c-2.15 -0.07 -4.29 -0.22 -6.44 -0.23a19.36 19.36 0 0 1 -2.53 0 2.21 2.21 0 0 1 -1.32 -0.48 0.89 0.89 0 0 1 -0.23 -0.51 5.64 5.64 0 0 1 0 -1.16l0 -3c0 -0.41 0 -0.83 0.05 -1.25a0.29 0.29 0 0 0 -0.26 -0.31 0.28 0.28 0 0 0 -0.31 0.26c-0.05 0.43 -0.08 0.86 -0.1 1.28 -0.05 1 -0.06 2 -0.12 3a7.93 7.93 0 0 0 0 1.3 1.66 1.66 0 0 0 0.41 1 2.7 2.7 0 0 0 1.35 0.74 15.67 15.67 0 0 0 3.12 0.21c2.14 0 4.28 0.21 6.42 0.26 0.93 0 1.86 0 2.8 -0.05a14.31 14.31 0 0 0 2.23 -0.25 3.4 3.4 0 0 0 1.52 -0.69 1.9 1.9 0 0 0 0.52 -1 6.75 6.75 0 0 0 0.08 -1.39l0.05 -4.07a0.32 0.32 0 0 0 -0.37 -0.39Z" fill="#020202" fill-rule="evenodd" stroke-width="1"></path>
  </g>
</svg>