<svg xmlns="http://www.w3.org/2000/svg" viewBox="0 0 24 24" id="Kawaii-Onigiri-Rice-Ball--Streamline-Freehand">
  <desc>
    Kawaii Onigiri Rice Ball Streamline Icon: https://streamlinehq.com
  </desc>
  <title>kawaii-onigiri-rice-ball</title>
  <g>
    <path d="M6.83 12.86a0.69 0.69 0 0 0 0.16 0.36c0.21 0.33 0.67 0.47 1.27 0.13a1 1 0 0 0 0.35 -1.1c-0.16 -0.37 -0.44 -0.72 -0.9 -0.59a0.28 0.28 0 0 0 -0.18 0.06 0.3 0.3 0 0 0 -0.29 0.09 1.06 1.06 0 0 0 -0.41 1.05Z" fill="#020202" fill-rule="evenodd" stroke-width="1"></path>
    <path d="M17.68 13.25a1 1 0 0 0 0.32 -1.07c-0.15 -0.37 -0.42 -0.72 -0.88 -0.59a0.49 0.49 0 0 0 -0.17 0.06 0.3 0.3 0 0 0 -0.28 0.09 1 1 0 0 0 -0.41 1 0.77 0.77 0 0 0 0.15 0.36c0.24 0.35 0.69 0.48 1.27 0.15Z" fill="#020202" fill-rule="evenodd" stroke-width="1"></path>
    <path d="M18.64 15.79a3.22 3.22 0 0 0 0.41 -0.58 0.34 0.34 0 1 0 -0.58 -0.34 6 6 0 0 1 -4 2.06 13.45 13.45 0 0 1 -2 0.17 12.5 12.5 0 0 1 -2 -0.16 7.88 7.88 0 0 1 -4.24 -2 0.29 0.29 0 0 0 -0.42 0 0.3 0.3 0 0 0 0 0.42A8.27 8.27 0 0 0 10.17 18a9.91 9.91 0 0 0 2.24 0.23h0.14a17.47 17.47 0 0 0 0.5 2.23 6 6 0 0 0 0.89 1.81 3.49 3.49 0 0 0 3.5 1.32A3.54 3.54 0 0 0 20.1 21a4.48 4.48 0 0 0 -0.1 -2.34 17.55 17.55 0 0 0 -1.36 -2.87Zm0.46 4.89a2.55 2.55 0 0 1 -4.39 0.95 5.12 5.12 0 0 1 -0.88 -1.46 14.17 14.17 0 0 1 -0.62 -2 9.47 9.47 0 0 0 1.43 -0.17 8.57 8.57 0 0 0 1 -0.3c0.05 0.31 0.1 0.61 0.17 0.92a3.81 3.81 0 0 0 0.17 0.51 4.31 4.31 0 0 0 0.22 0.49c0.2 0.38 0.42 0.73 0.64 1.1a0.34 0.34 0 0 0 0.44 0.19 0.33 0.33 0 0 0 0.19 -0.44c-0.09 -0.42 -0.16 -0.82 -0.27 -1.23a4.44 4.44 0 0 0 -0.15 -0.52 3.52 3.52 0 0 0 -0.22 -0.49 8.24 8.24 0 0 0 -0.5 -0.8 6.64 6.64 0 0 0 1.78 -1.1 15 15 0 0 1 1 2.58 3.5 3.5 0 0 1 -0.01 1.77Z" fill="#020202" fill-rule="evenodd" stroke-width="1"></path>
    <path d="M16 7a9.87 9.87 0 0 1 0 1.53 2.15 2.15 0 0 1 -0.27 0.82 0.86 0.86 0 0 1 -0.41 0.34 2 2 0 0 1 -0.62 0.17c-0.59 0.06 -1.21 0.09 -1.82 0.1s-1.23 0 -1.82 -0.07a2.21 2.21 0 0 1 -0.67 -0.13 0.74 0.74 0 0 1 -0.4 -0.29 1.4 1.4 0 0 1 -0.21 -0.59c-0.07 -0.41 -0.06 -0.85 -0.09 -1.23 0 -0.63 -0.08 -1.44 -0.1 -2.28s0 -1.53 0 -2.35c-0.09 -0.58 -0.59 -0.44 -0.69 0.31s-0.07 1.28 -0.1 2 0 1.67 0 2.31l0 1.34A2.58 2.58 0 0 0 9 10a1.87 1.87 0 0 0 0.71 0.66 3.24 3.24 0 0 0 1.19 0.32 17.59 17.59 0 0 0 1.93 0.08 17.72 17.72 0 0 0 1.92 -0.06 2.71 2.71 0 0 0 1.18 -0.42 1.74 1.74 0 0 0 0.64 -0.68 3 3 0 0 0 0.35 -1.22 11.87 11.87 0 0 0 0 -1.69l-0.16 -3.57c-0.07 -0.58 -0.64 -0.75 -0.72 -0.27Z" fill="#4C57E6" fill-rule="evenodd" stroke-width="1"></path>
    <path d="M23.54 13.06a24.4 24.4 0 0 0 -2.37 -5.69 25.09 25.09 0 0 0 -3.6 -5A7 7 0 0 0 13.82 0.45 7.09 7.09 0 0 0 9.63 1a9.12 9.12 0 0 0 -1.32 0.75 9.21 9.21 0 0 0 -1.2 0.94 13.06 13.06 0 0 0 -1.5 1.65c-0.44 0.58 -0.85 1.2 -1.23 1.82a43.15 43.15 0 0 0 -2 3.86c-0.61 1.31 -1.16 2.65 -1.67 4a11.34 11.34 0 0 0 -0.57 2A5 5 0 0 0 0 17.39 4.23 4.23 0 0 0 1.49 20a6.19 6.19 0 0 0 2.58 1.4 19.36 19.36 0 0 0 3.3 0.51 41 41 0 0 0 5 0 0.3 0.3 0 0 0 0.29 -0.31 0.32 0.32 0 0 0 -0.31 -0.29 39.79 39.79 0 0 1 -4.88 -0.1 18.67 18.67 0 0 1 -3.16 -0.56 5.36 5.36 0 0 1 -2.2 -1.25 3.37 3.37 0 0 1 -1.17 -2.1A3.91 3.91 0 0 1 1 16.13a10.41 10.41 0 0 1 0.56 -1.79c0.53 -1.32 1.1 -2.62 1.73 -3.9s1.29 -2.53 2 -3.74A19.86 19.86 0 0 1 6.52 5a11.53 11.53 0 0 1 1.37 -1.52A10.21 10.21 0 0 1 10.11 2a6.06 6.06 0 0 1 3.52 -0.43c2 0.33 3.92 1.52 6.72 6.29a22.84 22.84 0 0 1 2.39 5.43 11.71 11.71 0 0 1 0.42 4.6 3.5 3.5 0 0 1 -1.39 2.48 0.34 0.34 0 1 0 0.38 0.56A4.16 4.16 0 0 0 23.88 18a12.65 12.65 0 0 0 -0.34 -4.94Z" fill="#020202" fill-rule="evenodd" stroke-width="1"></path>
  </g>
</svg>