<svg xmlns="http://www.w3.org/2000/svg" viewBox="0 0 24 24" id="Keyboard-Arrow-Bottom-Right-1--Streamline-Freehand">
  <desc>
    Keyboard Arrow Bottom Right 1 Streamline Icon: https://streamlinehq.com
  </desc>
  <path d="M1.88 0.77C2.93 1.44 4 2.07 5.22 3c0.88 0.65 1.89 1.45 3.12 2.52l4.5 3.87 3.68 3.06a0.66 0.66 0 0 0 0.88 -0.08c0.8 -0.86 1.46 -1.91 2.22 -2.63a2 2 0 0 1 1.12 -0.62 2.56 2.56 0 0 1 0.17 0.37 53.45 53.45 0 0 1 1.35 8.69 19.86 19.86 0 0 1 0 2.86 1.93 1.93 0 0 1 -0.15 0.8c-0.11 0.13 -0.36 0.16 -0.69 0.24a15 15 0 0 1 -2.77 0.3A57.6 57.6 0 0 1 10 22a3.08 3.08 0 0 1 -0.42 -0.12 2.08 2.08 0 0 1 0.5 -1.21 16.93 16.93 0 0 1 2.44 -2.42 0.67 0.67 0 0 0 0.09 -0.92c-0.53 -0.65 -1.61 -1.63 -2.65 -2.74 -0.36 -0.38 -0.71 -0.77 -1 -1.18L5.81 8.94C4.32 7 3.05 5.31 2.18 4A7.4 7.4 0 0 1 1 1.9a0.47 0.47 0 0 0 -0.92 0.1 8.38 8.38 0 0 0 1.27 2.56c0.85 1.33 2.1 3.08 3.58 5.06L8 14.2c0.33 0.43 0.7 0.86 1.07 1.27 0.77 0.85 1.56 1.62 2.11 2.23a11.57 11.57 0 0 0 -2.58 2.74 2.76 2.76 0 0 0 -0.3 2.31 0.82 0.82 0 0 0 0.44 0.47 4.3 4.3 0 0 0 0.93 0.24 53.85 53.85 0 0 0 7.68 0.54 20.85 20.85 0 0 0 4.65 -0.4 2.59 2.59 0 0 0 1.42 -0.77 3.52 3.52 0 0 0 0.5 -1.8 32.06 32.06 0 0 0 -0.36 -5.83 41.67 41.67 0 0 0 -1.3 -6.41 2.41 2.41 0 0 0 -0.46 -0.86 0.81 0.81 0 0 0 -0.48 -0.24 2.94 2.94 0 0 0 -2.14 0.61 15.88 15.88 0 0 0 -2.35 2.7l-3.24 -2.51L9 4.75C7.72 3.69 6.67 2.9 5.76 2.26 4.45 1.34 3.41 0.73 2.32 0.06a0.41 0.41 0 0 0 -0.57 0.14 0.42 0.42 0 0 0 0.13 0.57Z" fill="#020202" fill-rule="evenodd" stroke-width="1"></path>
</svg>