<svg xmlns="http://www.w3.org/2000/svg" viewBox="0 0 24 24" id="Keyboard-Arrow-Return--Streamline-Freehand">
  <desc>
    Keyboard Arrow Return Streamline Icon: https://streamlinehq.com
  </desc>
  <g>
    <path d="M6.19 19.91 4.79 19a12.75 12.75 0 0 1 -1.38 -1.07 14.61 14.61 0 0 1 -1.26 -1.22 8.24 8.24 0 0 1 -0.58 -0.59c-0.39 -0.46 -0.28 -0.41 -0.09 -0.6A5.77 5.77 0 0 1 2 15l2.5 -2.59 0.79 -0.75a0.34 0.34 0 0 0 0 -0.68 0.88 0.88 0 0 0 -0.43 0.13 7.92 7.92 0 0 0 -0.91 0.68l-2.8 2.29a4.18 4.18 0 0 0 -0.93 0.92 1.31 1.31 0 0 0 -0.21 0.89 1.94 1.94 0 0 0 0.32 0.73 6.65 6.65 0 0 0 0.91 1 17.2 17.2 0 0 0 1.45 1.21 14.31 14.31 0 0 0 1.61 1c2.09 1.15 1.92 1.38 2.23 1.07a0.44 0.44 0 0 0 0.07 -0.57 2 2 0 0 0 -0.41 -0.42Z" fill="#020202" fill-rule="evenodd" stroke-width="1"></path>
    <path d="M23.7 7.69a6.23 6.23 0 0 0 -4.54 -4.08 17.69 17.69 0 0 0 -2.5 -0.37C15.08 3.09 13.36 3 13 3a0.39 0.39 0 0 0 -0.39 0.39 0.38 0.38 0 0 0 0.39 0.39c0.39 0 2.06 0.14 3.6 0.34a18.22 18.22 0 0 1 2.32 0.42A5.21 5.21 0 0 1 22.56 8a5.59 5.59 0 0 1 -1 5 5.49 5.49 0 0 1 -1.84 1.46 12.1 12.1 0 0 1 -2.34 0.89 20.14 20.14 0 0 1 -3.61 0.69 27 27 0 0 1 -3.72 0.12c-1.05 0 -4.42 -0.39 -5.84 -0.57l-0.57 -0.08a0.36 0.36 0 0 0 -0.27 0s-0.32 0.56 0.15 0.66l0.6 0.1c1.43 0.24 4.82 0.75 5.89 0.83a27.73 27.73 0 0 0 3.86 0.05 21.63 21.63 0 0 0 3.85 -0.59 12 12 0 0 0 3.11 -1.24 6.13 6.13 0 0 0 1.77 -1.55 6.78 6.78 0 0 0 1.1 -6.08Z" fill="#020202" fill-rule="evenodd" stroke-width="1"></path>
  </g>
</svg>