<svg xmlns="http://www.w3.org/2000/svg" viewBox="0 0 24 24" id="Keyboard-Asterisk--Streamline-Freehand">
  <desc>
    Keyboard Asterisk Streamline Icon: https://streamlinehq.com
  </desc>
  <path d="M23.65 11.83c-2 -0.09 -5 -0.24 -8.16 -0.34l-1.88 0 1.22 -1.19c2.27 -2.3 4.36 -4.37 5.8 -5.78a0.37 0.37 0 0 0 0 -0.51 0.36 0.36 0 0 0 -0.51 0c-1.51 1.34 -3.74 3.3 -6.09 5.45L12.37 11c0 -0.86 0 -1.71 -0.08 -2.54 -0.15 -3.46 -0.38 -6.52 -0.52 -8.16a0.31 0.31 0 0 0 -0.33 -0.3 0.32 0.32 0 0 0 -0.3 0.33l0 8.16 0 2.46L9.65 9.5C7.13 7.11 4.83 5.08 3.59 4a0.32 0.32 0 0 0 -0.45 0 0.33 0.33 0 0 0 0 0.45C4.31 5.6 6.41 7.82 8.83 10.3l1.09 1.1H8.48c-3.47 0 -6.53 0.18 -8.17 0.27a0.32 0.32 0 0 0 0 0.63c1.64 0 4.69 0.16 8.16 0.25l2.19 0c-0.58 0.56 -1.15 1.11 -1.69 1.66 -2.46 2.45 -4.57 4.68 -5.68 5.89a0.33 0.33 0 0 0 0 0.45 0.32 0.32 0 0 0 0.45 0c1.19 -1.13 3.47 -3.15 6 -5.5 0.48 -0.44 1 -0.9 1.47 -1.37l0 1.77c0.12 3.17 0.26 6.13 0.33 8.15a0.36 0.36 0 0 0 0.46 0.4 0.35 0.35 0 0 0 0.35 -0.36c0 -2 0.09 -5 0.1 -8.17l0 -1.62 1.42 1.38c2.29 2.19 4.46 4.22 5.92 5.62a0.36 0.36 0 0 0 0.51 -0.51c-1.39 -1.47 -3.42 -3.64 -5.63 -5.92l-1.78 -1.8 2.62 0c3.18 0 6.14 -0.06 8.17 -0.08a0.35 0.35 0 0 0 0.36 -0.35 0.36 0.36 0 0 0 -0.39 -0.36Z" fill="#020202" fill-rule="evenodd" stroke-width="1"></path>
</svg>