<svg xmlns="http://www.w3.org/2000/svg" viewBox="0 0 24 24" id="Keyboard-Wireless--Streamline-Freehand">
  <desc>
    Keyboard Wireless Streamline Icon: https://streamlinehq.com
  </desc>
  <g>
    <path d="M7.06 18.76a4.58 4.58 0 0 0 -0.53 0.14 2.91 2.91 0 0 0 -0.51 0.22c-1.54 0.77 -1.42 0.9 -1.38 1.07s0 0.49 1.79 0.14a2.66 2.66 0 0 0 0.57 -0.16 3.43 3.43 0 0 0 0.52 -0.23c1.35 -0.7 1.49 -0.86 1.38 -1.17s-0.34 -0.36 -1.84 -0.01Z" fill="#020202" fill-rule="evenodd" stroke-width="1"></path>
    <path d="M15.94 16a20.29 20.29 0 0 0 -2.31 0.52c-0.31 0.1 -0.63 0.21 -0.94 0.33a9.1 9.1 0 0 0 -0.9 0.4c-0.69 0.34 -1.34 0.74 -2 1.07a0.37 0.37 0 0 0 -0.22 0.45 0.36 0.36 0 0 0 0.43 0.23 21.37 21.37 0 0 0 2.59 -0.66c0.49 -0.17 1 -0.38 1.45 -0.6 0.71 -0.32 1.39 -0.68 2.12 -0.95a0.4 0.4 0 0 0 0.28 -0.49 0.41 0.41 0 0 0 -0.5 -0.3Z" fill="#020202" fill-rule="evenodd" stroke-width="1"></path>
    <path d="M19.72 14.34a3.54 3.54 0 0 0 -0.45 0.08 2.14 2.14 0 0 0 -0.42 0.16c-1.32 0.61 -1.23 0.84 -1.2 1s0.09 0.4 1.54 0.25a2.39 2.39 0 0 0 0.45 -0.09 2.26 2.26 0 0 0 0.43 -0.17c1.22 -0.56 1.3 -0.75 1.22 -1s-0.22 -0.4 -1.57 -0.23Z" fill="#020202" fill-rule="evenodd" stroke-width="1"></path>
    <path d="M5.51 16.26c1.22 -0.67 1.31 -0.91 1.19 -1.17s-0.2 -0.32 -1.63 0a3.45 3.45 0 0 0 -0.46 0.12 2.44 2.44 0 0 0 -0.44 0.19c-1.34 0.72 -1.23 1 -1.18 1.1s0.11 0.38 1.6 0.11a2.52 2.52 0 0 0 0.47 -0.13 3.1 3.1 0 0 0 0.45 -0.22Z" fill="#020202" fill-rule="evenodd" stroke-width="1"></path>
    <path d="M9.63 14.53a2.05 2.05 0 0 0 0.43 -0.09 2.78 2.78 0 0 0 0.4 -0.16c1.19 -0.58 1.24 -0.78 1.16 -1s-0.2 -0.35 -1.52 -0.18a3.1 3.1 0 0 0 -0.42 0.08 1.82 1.82 0 0 0 -0.39 0.14c-1.26 0.62 -1.17 0.85 -1.13 1s0.08 0.35 1.47 0.21Z" fill="#020202" fill-rule="evenodd" stroke-width="1"></path>
    <path d="M14.37 12.92a1.76 1.76 0 0 0 0.4 -0.06 2 2 0 0 0 0.39 -0.13c1.16 -0.49 1.22 -0.71 1.15 -1s-0.2 -0.33 -1.44 -0.27a2.91 2.91 0 0 0 -0.4 0.05 1.68 1.68 0 0 0 -0.38 0.12c-0.12 0.05 -1.22 0.57 -1.11 0.95 0.02 0.16 0.02 0.42 1.39 0.34Z" fill="#020202" fill-rule="evenodd" stroke-width="1"></path>
    <path d="M19 11.39a2.42 2.42 0 0 0 0.36 -0.1 2 2 0 0 0 0.33 -0.16c1.14 -0.6 1.14 -0.68 1.09 -0.91s-0.05 -0.48 -1.47 -0.29a1.86 1.86 0 0 0 -0.79 0.27c-0.11 0.07 -1.09 0.76 -0.91 1.12 0.09 0.11 0.12 0.32 1.39 0.07Z" fill="#020202" fill-rule="evenodd" stroke-width="1"></path>
    <path d="M24 16.09a23.81 23.81 0 0 0 -0.25 -3c-0.07 -0.43 -0.16 -0.86 -0.27 -1.28a9.39 9.39 0 0 0 -0.37 -1.25c-0.33 -0.95 -0.77 -1.86 -1.19 -2.78 0 0 -0.38 -0.61 -0.66 -0.57a77.32 77.32 0 0 0 -7.84 1.19c-1.09 0.24 -2.2 0.51 -3.3 0.82s-2.18 0.66 -3.24 1c-8.35 3.13 -7.14 3.4 -6.25 7.17A12.79 12.79 0 0 0 1 18.73 11.86 11.86 0 0 0 1.52 20 29 29 0 0 0 3 22.92a0.4 0.4 0 0 0 0.42 0.2 35.31 35.31 0 0 0 7.42 -0.63 31.36 31.36 0 0 0 3.1 -0.8 31.57 31.57 0 0 0 3 -1.09 45.22 45.22 0 0 0 6.58 -3.44 0.4 0.4 0 0 0 0.15 -0.54 0.37 0.37 0 0 0 -0.22 -0.17 0.33 0.33 0 0 0 0.19 0.06 0.4 0.4 0 0 0 0.36 -0.42Zm-0.88 0.4a50.45 50.45 0 0 1 -6.64 3c-1 0.36 -2 0.68 -2.94 1s-2 0.57 -3 0.83a41 41 0 0 1 -6.92 1.15c-0.35 -0.95 -0.64 -1.93 -0.95 -2.91 -0.22 -0.68 -0.43 -1.37 -0.67 -2.05 -0.4 -1.15 -0.86 -2.26 -1.22 -3.4 0 0 0 -0.05 -0.05 -0.07a54.55 54.55 0 0 1 6.55 -2.49c1.06 -0.34 2.13 -0.66 3.2 -1s2.16 -0.61 3.23 -0.89C16.28 9 18.83 8.39 21.26 8c0.27 1.1 0.46 2.21 0.72 3.31 0.15 0.65 0.34 1.3 0.5 2 0.26 1 0.54 1.94 0.73 2.93a0.35 0.35 0 0 0 0.18 0.28 0.43 0.43 0 0 0 -0.27 -0.03Z" fill="#020202" fill-rule="evenodd" stroke-width="1"></path>
    <path d="M9.07 5.75a3.25 3.25 0 0 0 -0.82 0.25 2.83 2.83 0 0 0 -0.71 0.45 5.36 5.36 0 0 0 -1.11 1.48 0.35 0.35 0 1 0 0.57 0.43 7.33 7.33 0 0 1 1.34 -0.88 7.71 7.71 0 0 1 0.87 -0.42 4.4 4.4 0 0 1 1.65 -0.36 0.39 0.39 0 0 0 0.45 -0.33 0.41 0.41 0 0 0 -0.31 -0.46 4.58 4.58 0 0 0 -1.93 -0.16Z" fill="#4C57E6" fill-rule="evenodd" stroke-width="1"></path>
    <path d="M12.65 4.51a0.39 0.39 0 0 0 -0.16 -0.51 5.1 5.1 0 0 0 -3.29 -0.85 4.85 4.85 0 0 0 -1.44 0.37 5.55 5.55 0 0 0 -1.26 0.74 9.49 9.49 0 0 0 -2.12 2.49 0.37 0.37 0 0 0 0.07 0.5 0.36 0.36 0 0 0 0.55 -0.08 10.27 10.27 0 0 1 2.3 -1.89A7 7 0 0 1 9 4.5a4.38 4.38 0 0 1 3.09 0.17 0.4 0.4 0 0 0 0.56 -0.16Z" fill="#4C57E6" fill-rule="evenodd" stroke-width="1"></path>
    <path d="M3 5.7a6.81 6.81 0 0 1 3 -2.57 11.55 11.55 0 0 1 1.6 -0.63 12.3 12.3 0 0 1 1.7 -0.37 8 8 0 0 1 4 0.39 0.4 0.4 0 0 0 0.53 -0.19 0.39 0.39 0 0 0 -0.19 -0.53A8.37 8.37 0 0 0 9.18 0.87a9.17 9.17 0 0 0 -1.94 0.34A7.78 7.78 0 0 0 5.42 2a7.24 7.24 0 0 0 -3 3.39 0.35 0.35 0 1 0 0.58 0.31Z" fill="#4C57E6" fill-rule="evenodd" stroke-width="1"></path>
  </g>
</svg>