<svg xmlns="http://www.w3.org/2000/svg" fill="none" viewBox="0 0 24 24" id="Keyboard-Keypad-Pull-Down--Streamline-Freehand">
  <desc>
    Keyboard Keypad Pull Down Streamline Icon: https://streamlinehq.com
  </desc>
  <path fill="#4C57E6" fill-rule="evenodd" d="M18.169 9.432A43.596 43.596 0 0 0 6.56 8.906C2.459 9.322 0.649 10.03 0.259 13.462c-0.686 6.076 -0.364 9.404 5.411 9.568 4.33 0.355 8.683 0.315 13.005 -0.12 3.996 -0.618 5.403 -1.666 5.322 -6.034 -0.106 -4.836 -1.621 -6.683 -5.828 -7.444Zm4.769 7.452c-0.022 5.201 -1.824 5.305 -17.23 4.826 -3.701 -0.112 -4.099 -1.527 -4.275 -3.13 -0.164 -1.462 -0.186 -6.125 0.879 -7.145 1.968 -1.909 11.004 -1.74 15.58 -1.237 3.893 0.428 5.069 2.415 5.046 6.686Z" clip-rule="evenodd" stroke-width="1"></path>
  <path fill="#020202" fill-rule="evenodd" d="M6.19 12.736c0.385 0.174 0.802 0.265 1.224 0.268 0.413 0.003 1.2 -0.055 1.508 -0.389a0.43 0.43 0 0 0 0 -0.584c-0.516 -0.559 -2.113 -0.468 -2.724 -0.136 -0.572 0.31 -0.392 0.667 -0.007 0.84Z" clip-rule="evenodd" stroke-width="1"></path>
  <path fill="#020202" fill-rule="evenodd" d="M3.98 15.836c0.384 0.175 0.801 0.267 1.223 0.27 0.415 0.003 1.21 -0.06 1.529 -0.379a0.427 0.427 0 0 0 0 -0.604c-0.504 -0.504 -1.954 -0.44 -2.564 -0.21 -0.758 0.286 -0.572 0.748 -0.188 0.923Z" clip-rule="evenodd" stroke-width="1"></path>
  <path fill="#020202" fill-rule="evenodd" d="M11.805 13.011c0.405 0.008 1.18 -0.04 1.499 -0.34a0.427 0.427 0 0 0 0.019 -0.603c-0.306 -0.327 -1.093 -0.407 -1.503 -0.407 -0.404 0 -1.167 0.072 -1.461 0.407a0.408 0.408 0 0 0 0.004 0.544c0.293 0.324 1.044 0.392 1.442 0.4Z" clip-rule="evenodd" stroke-width="1"></path>
  <path fill="#020202" fill-rule="evenodd" d="M9.595 16.11c0.404 0.007 1.18 -0.038 1.499 -0.338a0.428 0.428 0 0 0 0.019 -0.604c-0.306 -0.326 -1.093 -0.406 -1.503 -0.406 -0.404 0 -1.167 0.072 -1.461 0.407a0.408 0.408 0 0 0 0.003 0.543c0.294 0.324 1.045 0.39 1.443 0.398Z" clip-rule="evenodd" stroke-width="1"></path>
  <path fill="#020202" fill-rule="evenodd" d="M18.818 16.353c0.403 0.008 1.167 -0.037 1.478 -0.348a0.427 0.427 0 0 0 0.02 -0.582c-0.295 -0.341 -1.073 -0.418 -1.482 -0.418 -0.406 0 -1.172 0.075 -1.47 0.405a0.405 0.405 0 0 0 0.005 0.55c0.299 0.316 1.05 0.386 1.45 0.393Z" clip-rule="evenodd" stroke-width="1"></path>
  <path fill="#020202" fill-rule="evenodd" d="M16.192 13.27c0.392 0.03 1.142 0.015 1.467 -0.26a0.427 0.427 0 0 0 0.05 -0.602c-0.28 -0.33 -1.03 -0.461 -1.429 -0.484 -0.394 -0.021 -1.134 0.021 -1.442 0.321a0.406 0.406 0 0 0 -0.026 0.554c0.273 0.321 0.992 0.443 1.38 0.472Z" clip-rule="evenodd" stroke-width="1"></path>
  <path fill="#020202" fill-rule="evenodd" d="M13.98 16.298c0.393 0.03 1.144 0.015 1.469 -0.26a0.428 0.428 0 0 0 0.05 -0.602c-0.28 -0.33 -1.03 -0.462 -1.429 -0.484 -0.394 -0.022 -1.134 0.021 -1.443 0.32a0.405 0.405 0 0 0 -0.028 0.554c0.273 0.322 0.994 0.442 1.382 0.472Z" clip-rule="evenodd" stroke-width="1"></path>
  <path fill="#020202" fill-rule="evenodd" d="M7.399 19.412c3.002 0.34 6.032 0.349 9.036 0.028a0.427 0.427 0 1 0 0 -0.855 38.052 38.052 0 0 0 -9.047 0.016 0.406 0.406 0 0 0 0.01 0.811Z" clip-rule="evenodd" stroke-width="1"></path>
  <path fill="#020202" fill-rule="evenodd" d="M8.439 5.452a32.817 32.817 0 0 0 3.734 -3.155c3.756 3.266 3.726 3.427 4.104 3.06a0.427 0.427 0 0 0 0 -0.605A26.62 26.62 0 0 0 12.57 0.892c-0.72 -0.602 -1.339 0.428 -4.68 3.958a0.408 0.408 0 0 0 0.55 0.602Z" clip-rule="evenodd" stroke-width="1"></path>
</svg>