<svg xmlns="http://www.w3.org/2000/svg" viewBox="0 0 24 24" id="Keyboard-Arrow-Right--Streamline-Freehand">
  <desc>
    Keyboard Arrow Right Streamline Icon: https://streamlinehq.com
  </desc>
  <g>
    <path d="M20.62 12.11a0.34 0.34 0 0 0 -0.34 -0.35c-1.47 -0.1 -4 -0.25 -7 -0.31l-3 0c-1 0 -2 0 -3 0.07 -2.38 0.08 -4.78 0.21 -7 0.32a0.39 0.39 0 0 0 -0.39 0.4 0.38 0.38 0 0 0 0.4 0.38c2.18 0 4.58 0.11 7 0.14l3 0 3 0c3 -0.09 5.47 -0.24 7 -0.27a0.33 0.33 0 0 0 0.33 -0.38Z" fill="#020202" fill-rule="evenodd" stroke-width="1"></path>
    <path d="M23.78 11a4.76 4.76 0 0 0 -0.94 -0.92L20 7.74a9.62 9.62 0 0 0 -0.92 -0.68 0.87 0.87 0 0 0 -0.45 -0.14 0.34 0.34 0 0 0 -0.34 0.34c0 0.29 0 0 1.15 1.12L22 11c0.12 0.12 0.31 0.27 0.48 0.45s0.27 0.23 0.18 0.24a1.34 1.34 0 0 1 -0.27 0.4c-0.2 0.23 -0.43 0.44 -0.58 0.59a13.68 13.68 0 0 1 -1.28 1.24 13.18 13.18 0 0 1 -1.4 1.08l-1.41 1a1.66 1.66 0 0 0 -0.42 0.39 0.42 0.42 0 0 0 0.07 0.57c0.32 0.32 0.14 0.09 2.27 -1.08a13.27 13.27 0 0 0 1.62 -1 16.28 16.28 0 0 0 1.48 -1.22 7.49 7.49 0 0 0 0.92 -1 1.86 1.86 0 0 0 0.34 -0.76 1.37 1.37 0 0 0 -0.22 -0.9Z" fill="#020202" fill-rule="evenodd" stroke-width="1"></path>
  </g>
</svg>