<svg xmlns="http://www.w3.org/2000/svg" viewBox="0 0 24 24" id="Kindle-Read-Document-Hold--Streamline-Freehand">
  <desc>
    Kindle Read Document Hold Streamline Icon: https://streamlinehq.com
  </desc>
  <g>
    <path d="M14 22.49c-1.81 0.05 -4.05 -0.12 -6.21 -0.23 -1.86 -0.09 -5 0 -6.68 -0.31a0.31 0.31 0 0 0 -0.13 0.6 29.72 29.72 0 0 0 4.55 0.76 49.76 49.76 0 0 0 8.5 -0.12 0.35 0.35 0 0 0 -0.03 -0.7Z" fill="#020202" fill-rule="evenodd" stroke-width="1"></path>
    <path d="M0.93 20.82c0 -1.88 0.25 -16.61 0.22 -17.91 0 -1.12 0.25 -1.27 1.1 -1.36a115.45 115.45 0 0 1 13.9 -0.06c1.39 0.12 1.5 0.57 1.81 4.07s0.06 3.86 0.53 3.85a0.31 0.31 0 0 0 0.3 -0.32c0 -1.76 -0.11 -4.24 -0.3 -6 -0.17 -1.51 -0.62 -2.31 -2.24 -2.51A83.06 83.06 0 0 0 2.12 0.39C0.62 0.56 -0.06 1.26 0 3c0 0.91 0.15 15.76 0.23 17.89a0.35 0.35 0 0 0 0.7 -0.07Z" fill="#020202" fill-rule="evenodd" stroke-width="1"></path>
    <path d="M4.08 6.26c0.8 0 4.1 0.11 5.43 0.1 0.91 0 4.79 -0.17 5.12 -0.11a0.35 0.35 0 0 0 0.18 -0.68 47.6 47.6 0 0 0 -5.31 -0.39 32.32 32.32 0 0 0 -5.5 0.48 0.3 0.3 0 0 0 0.08 0.6Z" fill="#4C57E6" fill-rule="evenodd" stroke-width="1"></path>
    <path d="M14.74 9.82a48.68 48.68 0 0 0 -10.59 0 0.31 0.31 0 0 0 0 0.61c1 0.09 4.06 0.27 5.4 0.28 1.08 0 4.52 -0.15 5.16 -0.2a0.35 0.35 0 1 0 0.03 -0.69Z" fill="#4C57E6" fill-rule="evenodd" stroke-width="1"></path>
    <path d="M4.06 14.44c1 0.08 4.09 0.26 5.4 0.27 1 0 4.53 -0.15 5.16 -0.19a0.35 0.35 0 0 0 0 -0.7 48.57 48.57 0 0 0 -10.59 0 0.31 0.31 0 0 0 0.03 0.62Z" fill="#4C57E6" fill-rule="evenodd" stroke-width="1"></path>
    <path d="M8.28 20.14a0.3 0.3 0 0 0 -0.25 0.35c0 0.3 1.31 0.5 1.62 0.51 0.15 0 1.65 0 1.72 -0.39s-1.43 -0.76 -1.66 -0.78a3.21 3.21 0 0 0 -1.43 0.31Z" fill="#020202" fill-rule="evenodd" stroke-width="1"></path>
    <path d="M24 21.33a23.91 23.91 0 0 0 -2.32 -9.61c-1.12 -2.27 -4.36 -2.44 -3.68 1.76 0.09 0.53 0.1 2.78 0.21 3.35a7.61 7.61 0 0 0 -1.31 -0.65c-1.93 -0.7 -3.07 0.59 -1.93 2.56a16.93 16.93 0 0 0 2.62 3.1c0 1.19 0 0.44 0.06 1.64a0.31 0.31 0 0 0 0.61 0 13.83 13.83 0 0 1 0.03 -1.48 1.19 1.19 0 0 0 -0.1 -0.61A19 19 0 0 1 16 18.76c-1.08 -1.7 -0.82 -2.61 2.21 -0.55 0.3 0.21 0.55 0.41 0.89 0.28s0.39 -0.54 0.33 -1c-0.11 -0.88 -0.4 -4.2 -0.4 -4.85 0 -0.32 0 -1.28 0.35 -1.33a1.43 1.43 0 0 1 1.26 0.9 18.72 18.72 0 0 1 1.07 2.33c1 2.65 1.81 7.51 1.48 8.86a0.35 0.35 0 1 0 0.67 0.17 8.32 8.32 0 0 0 0.14 -2.24Z" fill="#020202" fill-rule="evenodd" stroke-width="1"></path>
  </g>
</svg>