<svg xmlns="http://www.w3.org/2000/svg" viewBox="0 0 24 24" id="Kitchen-Table--Streamline-Freehand">
  <desc>
    Kitchen Table Streamline Icon: https://streamlinehq.com
  </desc>
  <g>
    <path d="M9.25 8.91c1.7 -0.07 3.4 -0.15 5.09 -0.15a14.65 14.65 0 0 0 2.77 -0.08 2.52 2.52 0 0 0 1.29 -0.62 0.56 0.56 0 0 0 0.18 -0.38 5.1 5.1 0 0 0 0 -0.72 1.56 1.56 0 0 0 -0.62 -1.35 2.16 2.16 0 0 0 -1.22 -0.34c-0.48 0 -1 0.05 -1.48 0.05h-0.29c0 -0.16 0.05 -0.31 0.06 -0.47a3.71 3.71 0 0 0 0 -0.47 3.62 3.62 0 0 0 0 -0.47c0 -0.25 -0.06 -0.48 -0.1 -0.71A2.28 2.28 0 0 0 16 2.76a3 3 0 0 0 0.63 -0.69 3.66 3.66 0 0 0 0.37 -0.83 2.72 2.72 0 0 0 0.1 -0.46 0.54 0.54 0 0 0 -0.1 -0.43 1.38 1.38 0 0 0 -0.93 -0.35 8.94 8.94 0 0 0 -1.51 0.13l-1.71 0a0.32 0.32 0 0 0 -0.29 0.19 0.38 0.38 0 0 0 -0.19 0 0.28 0.28 0 0 0 -0.25 0.31A2.86 2.86 0 0 0 13.81 3a2.47 2.47 0 0 0 0.36 0.11 5.71 5.71 0 0 0 -0.18 0.74 2 2 0 0 0 0 0.49 3.91 3.91 0 0 0 0 0.49c0 0.16 0 0.31 0.08 0.46 -1.73 0 -3.48 0 -5.23 0.07 -2.15 0.07 -4.29 0.2 -6.39 0.39a0.28 0.28 0 0 0 -0.26 0.3 0.27 0.27 0 0 0 0.3 0.26c2.09 -0.12 4.22 -0.16 6.36 -0.16s4.26 0.07 6.36 0.16a7.63 7.63 0 0 1 1.93 0.06c0.22 0.07 0.34 0.24 0.34 0.58l0 0.42a2.16 2.16 0 0 1 -1 0.28 20.87 20.87 0 0 1 -2.23 0q-0.95 0 -1.89 0.06c-2.49 0.13 -5 0.38 -7.47 0.43a19.83 19.83 0 0 1 -2.3 -0.07 2.59 2.59 0 0 1 -1.28 -0.38 1 1 0 0 1 -0.15 -0.9c0.08 -0.34 0.24 -0.69 0.5 -0.74A0.31 0.31 0 0 0 2 5.72a0.32 0.32 0 0 0 -0.37 -0.26 1.53 1.53 0 0 0 -1 1.22 1.63 1.63 0 0 0 0.29 1.58 2.74 2.74 0 0 0 1.25 0.53A16.44 16.44 0 0 0 5 9l2.8 0 0.88 0c-0.19 1.63 -0.38 3.58 -0.46 5.59l0 3.45c0 1.88 0.1 3.67 0.12 5.18a0.32 0.32 0 0 0 0.32 0.32 0.31 0.31 0 0 0 0.34 -0.38c0.09 -1.47 0.18 -3.21 0.25 -5 0 -0.71 0 -1.43 0.06 -2.15s0 -1.44 0 -2.15c-0.04 -1.81 -0.09 -3.5 -0.06 -4.95ZM13.8 2A2.23 2.23 0 0 1 12.72 0.78a0.35 0.35 0 0 0 0.14 0l1.73 0.22 1.2 0L16 1a3.5 3.5 0 0 1 -0.26 0.51 1.88 1.88 0 0 1 -0.4 0.44A1.27 1.27 0 0 1 13.8 2Z" fill="#020202" fill-rule="evenodd" stroke-width="1"></path>
    <g>
      <path d="M21.45 20.12c-0.1 -0.58 -0.2 -1.16 -0.31 -1.74l-0.36 -1.85c-0.46 -0.87 -0.79 -0.75 -0.83 0 0 0.52 0 1 0.1 1.57s0.11 0.89 0.19 1.34 0.18 0.89 0.29 1.32a26.44 26.44 0 0 0 1 3 0.3 0.3 0 0 0 0.4 0.21 0.31 0.31 0 0 0 0.21 -0.4c-0.14 -0.56 -0.26 -1.14 -0.37 -1.72s-0.22 -1.15 -0.32 -1.73Z" fill="#020202" fill-rule="evenodd" stroke-width="1"></path>
      <path d="M20 20.13c-0.56 -0.07 -1.11 -0.17 -1.67 -0.25l-0.71 -0.1c-0.24 0 -0.47 -0.05 -0.71 -0.06 -0.46 0 -0.92 0 -1.38 -0.09 0.15 -0.48 0.3 -0.95 0.43 -1.43s0.29 -1.12 0.43 -1.67c-0.11 -0.7 -0.34 -0.92 -0.87 0 -0.24 0.56 -0.47 1.12 -0.66 1.69s-0.42 1.35 -0.6 2c-0.27 1 -0.48 2.05 -0.77 3.06a0.33 0.33 0 0 0 0.2 0.41 0.32 0.32 0 0 0 0.41 -0.2c0.44 -1.08 0.88 -2.16 1.24 -3.27a9.13 9.13 0 0 0 1.42 0.48 4.57 4.57 0 0 0 0.74 0.12 4.71 4.71 0 0 0 0.75 0c0.59 0 1.16 -0.06 1.74 -0.11a0.32 0.32 0 0 0 0.32 -0.32 0.3 0.3 0 0 0 -0.31 -0.26Z" fill="#020202" fill-rule="evenodd" stroke-width="1"></path>
      <path d="M22.91 11.49A3 3 0 0 0 21 11l-2 0 -3.72 0.27c-0.11 0 -0.53 0 -0.6 0.41l-0.3 1.34a5.58 5.58 0 0 0 -0.14 1.16 1.29 1.29 0 0 0 0.18 0.63 1.09 1.09 0 0 0 0.43 0.36 3.35 3.35 0 0 0 0.95 0.23 45.67 45.67 0 0 0 5.86 0 2.59 2.59 0 0 0 1.26 -0.4 1.27 1.27 0 0 0 0.36 -0.5 3.32 3.32 0 0 0 0.19 -1 2.29 2.29 0 0 0 -0.56 -2.01Zm-0.5 1.91a3.43 3.43 0 0 1 -0.08 0.5c0 0.09 0 0.19 -0.09 0.23a2.06 2.06 0 0 1 -1.1 0.28c-0.8 0.09 -1.71 0.06 -2.17 0.08s-1.25 0.11 -1.89 0.13l-1.23 0c-0.15 0 -0.35 0 -0.54 -0.07s-0.25 -0.05 -0.31 -0.13a0.69 0.69 0 0 1 -0.1 -0.39 7.16 7.16 0 0 1 0.08 -0.9l0.2 -1.19h0.06l3.76 -0.08 2 0a2.09 2.09 0 0 1 1.26 0.34c0.2 0.26 0.2 0.63 0.15 1.2Z" fill="#4C57E6" fill-rule="evenodd" stroke-width="1"></path>
    </g>
  </g>
</svg>