<svg xmlns="http://www.w3.org/2000/svg" viewBox="0 0 24 24" id="Knife-Butcher--Streamline-Freehand">
  <desc>
    Knife Butcher Streamline Icon: https://streamlinehq.com
  </desc>
  <g>
    <path d="M22.62 1.59a4.53 4.53 0 0 0 -1.29 -1.2 2.57 2.57 0 0 0 -0.57 -0.32 0.94 0.94 0 0 0 -0.47 -0.07 1.24 1.24 0 0 0 -0.51 0.19c-0.23 0.14 -0.48 0.36 -0.61 0.45L17 2.34c-0.76 0.59 -1.47 1.27 -2.21 1.9a5.71 5.71 0 0 1 -0.48 0.38 1 1 0 0 0 -0.3 0 1.54 1.54 0 0 0 -0.56 0.3c-0.27 0.2 -0.54 0.51 -0.75 0.65 -0.37 0.26 -0.72 0.53 -1.08 0.81 -0.81 0.64 -1.59 1.31 -2.4 1.95s-1.6 1.27 -2.34 1.81c-1.82 1.32 -3.5 2.43 -5.54 4a0.29 0.29 0 0 0 -0.06 0.42 0.3 0.3 0 0 0 0.42 0.06c2.08 -1.51 3.78 -2.62 5.62 -3.85 0.76 -0.53 1.55 -1.08 2.4 -1.72s1.62 -1.27 2.45 -1.88c0.34 -0.26 0.69 -0.51 1.06 -0.75 0.19 -0.13 0.44 -0.38 0.7 -0.59a0.84 0.84 0 0 1 0.3 -0.19c0.19 0 0.36 0.14 0.55 0.31a16.71 16.71 0 0 1 1.09 1.27l3.85 4.14c0.22 0.24 0.7 0.64 1.05 1.08 0.14 0.18 0.29 0.34 0.27 0.51a0.91 0.91 0 0 1 -0.25 0.46 11.44 11.44 0 0 1 -0.91 0.84c-0.83 0.79 -1.35 1.31 -1.95 1.86 -0.38 0.35 -0.8 0.71 -1.35 1.15l-3.31 2.58 -1.91 1.52A9.61 9.61 0 0 1 9.15 23a1.19 1.19 0 0 1 -1.32 -0.2l-0.61 -0.7 -1.28 -1.62c-0.38 -0.47 -1.49 -1.93 -2.5 -3.29 -0.65 -0.89 -1.26 -1.74 -1.59 -2.19a0.34 0.34 0 0 0 -0.47 -0.11 0.36 0.36 0 0 0 -0.11 0.48c0.33 0.51 0.93 1.38 1.57 2.3C3.83 19 4.92 20.51 5.29 21l1.21 1.55c0.11 0.16 0.22 0.3 0.34 0.45a3.88 3.88 0 0 0 0.39 0.42 2 2 0 0 0 2.25 0.41A11 11 0 0 0 12 22.15l1.93 -1.48 3.38 -2.53c0.58 -0.46 1 -0.83 1.41 -1.18 0.62 -0.56 1.14 -1.08 2 -1.86a9 9 0 0 0 1.12 -1.1 2.05 2.05 0 0 0 0.35 -0.87 1.67 1.67 0 0 0 -0.34 -1.13 10.88 10.88 0 0 0 -1.3 -1.4L17 6.87c0.45 -0.34 0.9 -0.68 1.37 -1 0.63 -0.43 1.29 -0.87 1.92 -1.24 0.43 -0.28 1 -0.57 1.43 -0.92a3.48 3.48 0 0 0 0.9 -0.94 1.16 1.16 0 0 0 0 -1.18Zm-1.57 1.28c-0.42 0.36 -0.91 0.67 -1.31 0.95 -0.61 0.45 -1.22 0.91 -1.82 1.38S17 6 16.55 6.35A8.68 8.68 0 0 0 15.2 5l-0.2 -0.14 2.51 -1.76 2.29 -1.52c0.67 -0.45 0.55 -0.46 0.87 -0.24a5 5 0 0 1 0.64 0.48 1.38 1.38 0 0 1 0.27 0.27s0.09 0.06 0.06 0.11a2.32 2.32 0 0 1 -0.59 0.67Z" fill="#020202" fill-rule="evenodd" stroke-width="1"></path>
    <path d="M8.28 19.33A15 15 0 0 1 11 17.67l2 -1c0.68 -0.34 1.35 -0.69 2 -1.08a11.61 11.61 0 0 0 2.67 -2.22 13 13 0 0 0 1.2 -1.59 6.85 6.85 0 0 0 0.31 -0.67c0 -0.52 -0.45 -0.64 -0.64 -0.35a1.82 1.82 0 0 1 -0.32 0.6A10 10 0 0 1 17 12.79a14.14 14.14 0 0 1 -3.89 2.57c-0.87 0.44 -1.76 0.86 -2.6 1.34a14.58 14.58 0 0 0 -1.68 1.08 7.38 7.38 0 0 0 -2.37 2.47c-0.07 0.35 0.18 0.66 0.48 0.44a5.22 5.22 0 0 1 1.34 -1.36Z" fill="#4C57E6" fill-rule="evenodd" stroke-width="1"></path>
  </g>
</svg>