<svg xmlns="http://www.w3.org/2000/svg" viewBox="0 0 24 24" id="Landmark-Burj-Kalifa-Uae--Streamline-Freehand">
  <desc>
    Landmark Burj Kalifa Uae Streamline Icon: https://streamlinehq.com
  </desc>
  <title>landmark-burj-kalifa-uae</title>
  <g>
    <path d="m13 4.93 -0.3 0a6.37 6.37 0 0 0 -0.69 0.25 0.31 0.31 0 0 0 0 0.61 5.21 5.21 0 0 0 0.7 0.23 1.36 1.36 0 0 0 0.29 0l0.72 0c0.1 0 0.19 -0.02 0.28 -0.02 0.49 -0.35 0.36 -0.65 -0.07 -0.91L13.69 5c-0.1 -0.06 -0.62 -0.07 -0.69 -0.07Z" fill="#4C57E6" fill-rule="evenodd" stroke-width="1"></path>
    <path d="M13.56 7.71a6 6 0 0 0 -0.73 0 4 4 0 0 0 -0.67 0.3 0.3 0.3 0 0 0 -0.27 0.33 0.29 0.29 0 0 0 0.32 0.27c0.25 0.06 0.44 0.15 0.69 0.2h0.69a1.26 1.26 0 0 0 0.27 0l0.24 -0.05c0.49 -0.31 0.45 -0.62 0 -0.95a0.81 0.81 0 0 0 -0.22 -0.07 1.17 1.17 0 0 0 -0.32 -0.03Z" fill="#4C57E6" fill-rule="evenodd" stroke-width="1"></path>
    <path d="M22.5 23c-2 -0.05 -4.08 -0.13 -6.12 -0.19l-0.21 -3.59c0 -0.28 -0.07 -0.64 -0.06 -1a0.83 0.83 0 0 1 0.08 -0.39c0.16 -0.28 0.57 -0.33 1 -0.38a19 19 0 0 1 2.35 0l0.76 0a1.46 1.46 0 0 1 0.29 0.55 8.24 8.24 0 0 1 0.19 1.16c0 0.29 0 0.57 0.07 0.86a4.73 4.73 0 0 0 -0.62 -0.25 1.15 1.15 0 0 0 -0.26 0l-0.27 0c-0.21 0.06 -0.39 0.14 -0.6 0.21a0.35 0.35 0 0 0 -0.34 0.35 0.34 0.34 0 0 0 0.35 0.33 6.17 6.17 0 0 0 0.61 0.19 1.09 1.09 0 0 0 0.26 0 0.72 0.72 0 0 0 0.25 0 3.41 3.41 0 0 0 0.6 -0.24s0.05 0 0.08 0l0 0.3c0 0.57 0.05 1.15 0.06 1.72a0.34 0.34 0 0 0 0.33 0.35 0.35 0.35 0 0 0 0.35 -0.33l0 -1.77 0 -1.76a7.79 7.79 0 0 0 -0.13 -1.34 2.3 2.3 0 0 0 -0.43 -1 1.19 1.19 0 0 0 -0.55 -0.39 3.33 3.33 0 0 0 -1 -0.09l-0.71 0c0 -0.64 0.07 -1.28 0.09 -1.92l0 -1.05a4.36 4.36 0 0 0 -0.18 -1.06 1.59 1.59 0 0 0 -0.52 -0.74 2.3 2.3 0 0 0 -0.87 -0.34 12.48 12.48 0 0 0 -1.76 -0.09l-0.23 0 0.11 -3.66a16.56 16.56 0 0 0 0 -2.44A5.17 5.17 0 0 0 15 3.28a2 2 0 0 0 -1.54 -1 6 6 0 0 0 -2.35 0.15l-0.11 0.02a2.7 2.7 0 0 0 0 -0.28 2.94 2.94 0 0 0 0 -0.42 3 3 0 0 0 0 -0.42c-0.06 -0.34 -0.15 -0.65 -0.21 -1a0.34 0.34 0 1 0 -0.68 0c-0.07 0.35 -0.15 0.68 -0.19 1a3.38 3.38 0 0 0 0 0.45 2.32 2.32 0 0 0 0.06 0.44 3.93 3.93 0 0 0 0.22 0.66 1.68 1.68 0 0 0 -0.25 0.33 2.57 2.57 0 0 0 -0.23 1.1c0 0.71 0.13 1.59 0.15 2.05a0.66 0.66 0 0 1 0 0.19h-0.14a6.57 6.57 0 0 0 -1.28 0.21 2.31 2.31 0 0 0 -0.89 0.47 1.37 1.37 0 0 0 -0.41 0.8 6.54 6.54 0 0 0 0 1.48c0 0.8 0.09 1.59 0.16 2.37 0 0.56 0.11 1.11 0.18 1.66a9.14 9.14 0 0 0 -1.63 0.46 2.77 2.77 0 0 0 -0.72 0.38 1.39 1.39 0 0 0 -0.42 0.48 1.29 1.29 0 0 0 -0.15 0.47 5.94 5.94 0 0 0 0 0.84l0.09 2a4.69 4.69 0 0 0 -0.67 0.1 2.41 2.41 0 0 0 -1.59 1 1.43 1.43 0 0 0 -0.15 0.53l0 0.81 0.2 2.74 -1 0a0.31 0.31 0 0 0 0 0.61l2.55 0c2 0 3.92 -0.12 5.88 -0.09l5 0c2.53 0 5 -0.1 7.58 -0.17a0.34 0.34 0 0 0 0.34 -0.34 0.34 0.34 0 0 0 -0.3 -0.36ZM4 23.23c-0.29 0 -0.58 0 -0.86 0.05l0 -1.18 0 -0.54a3.29 3.29 0 0 0 0.63 0.29 1.34 1.34 0 0 0 0.3 0 1.53 1.53 0 0 0 0.3 0 4.38 4.38 0 0 0 0.71 -0.19 0.32 0.32 0 0 0 0.33 -0.34 0.34 0.34 0 0 0 -0.32 -0.32c-0.23 -0.06 -0.43 -0.15 -0.66 -0.2a0.87 0.87 0 0 0 -0.28 -0.05 1.31 1.31 0 0 0 -0.28 0 6.55 6.55 0 0 0 -0.67 0.19l0 -0.34 0.07 -0.82a1.39 1.39 0 0 1 0.93 -0.44 7.77 7.77 0 0 1 2.06 -0.08c0.19 0 0.89 -0.17 0.81 0a0.9 0.9 0 0 1 0.13 0.26 5.44 5.44 0 0 1 0.17 0.56 9.25 9.25 0 0 1 0.28 1.37c0.07 0.47 0.11 0.94 0.15 1.41Zm5.89 -0.45c-0.45 0 -0.91 0.07 -1.36 0.1a17.44 17.44 0 0 0 -0.05 -1.77q0 -0.6 -0.15 -1.2a5.08 5.08 0 0 0 -0.27 -0.91 1.27 1.27 0 0 0 -0.36 -0.5 1.2 1.2 0 0 0 -0.52 -0.23c-0.28 -0.05 -0.62 -0.07 -0.8 -0.09s-0.68 -0.05 -1.08 -0.05l0 -1c0.23 0 0.44 0.09 0.68 0.11a2.17 2.17 0 0 0 0.36 0 2.05 2.05 0 0 0 0.34 -0.07c0.28 -0.07 0.53 -0.17 0.81 -0.23a0.34 0.34 0 0 0 0 -0.68 5.36 5.36 0 0 0 -0.89 -0.16h-0.35a1.51 1.51 0 0 0 -0.36 0.06 4.18 4.18 0 0 0 -0.53 0.21v-0.17l0 -0.65a0.73 0.73 0 0 1 0.09 -0.26 0.69 0.69 0 0 1 0.25 -0.2 1.82 1.82 0 0 1 0.44 -0.17 7.62 7.62 0 0 1 2.16 -0.3c0.39 0 0.76 0 0.91 0.31A3.65 3.65 0 0 1 9.62 16a17.29 17.29 0 0 1 0.19 2l0.28 4.79Zm1 0 0 -4.82a13.73 13.73 0 0 0 -0.1 -2.11 4.45 4.45 0 0 0 -0.47 -1.47 1.79 1.79 0 0 0 -1.42 -0.86 4 4 0 0 0 -0.7 0s-0.2 -1.31 -0.2 -4A7.18 7.18 0 0 1 8 8.4a0.57 0.57 0 0 1 0.19 -0.4 1.34 1.34 0 0 1 0.53 -0.24 5.33 5.33 0 0 1 1.1 -0.11s0.43 0 0.59 0a0.58 0.58 0 0 0 0.54 -0.4A0.93 0.93 0 0 0 11 7c0 -0.19 -0.05 -0.46 -0.06 -0.61 0 -0.38 -0.11 -1.07 -0.13 -1.7a1.92 1.92 0 0 1 0.1 -0.85 0.41 0.41 0 0 1 0.16 -0.16 1.46 1.46 0 0 1 0.38 -0.14 4.89 4.89 0 0 1 1.87 -0.17 1 1 0 0 1 0.78 0.41c0.09 0.17 0.44 0.07 0.54 7.32a4 4 0 0 0 -0.86 0 1.34 1.34 0 0 0 -1 0.69 2.79 2.79 0 0 0 -0.23 1.12c0 0.72 0.13 1.56 0.13 2.14 0 0.81 0 1.62 0.1 2.43 0.1 1.76 0.26 3.51 0.37 5.28 -0.75 -0.01 -1.55 0 -2.34 0.02Zm3 0 0 -7.71c0 -0.5 -0.09 -1.19 -0.11 -1.84a2.28 2.28 0 0 1 0.13 -0.93s0.06 0 0.11 0a1.93 1.93 0 0 1 0.43 -0.07l1.15 0c0.25 0 0.91 -0.06 1.41 0a1.48 1.48 0 0 1 0.7 0.16 0.7 0.7 0 0 1 0.24 0.4 3.17 3.17 0 0 1 0.14 0.68l0 0.29a6.13 6.13 0 0 0 -0.61 -0.18 2 2 0 0 0 -0.35 0 2.06 2.06 0 0 0 -0.35 0 4.23 4.23 0 0 0 -0.83 0.27 0.3 0.3 0 0 0 -0.28 0.32 0.31 0.31 0 0 0 0.32 0.28c0.28 0.06 0.5 0.17 0.78 0.23l0.33 0 0.34 0c0.24 0 0.46 -0.09 0.7 -0.15l0 1.85a6.86 6.86 0 0 0 -1.53 0.14 2 2 0 0 0 -1.35 0.92 1.66 1.66 0 0 0 -0.16 0.72 9 9 0 0 0 0.15 1.24l0.52 3.5Z" fill="#020202" fill-rule="evenodd" stroke-width="1"></path>
    <path d="m9.7 11.31 0.42 -0.09c0.33 -0.09 0.64 -0.21 1 -0.31a0.34 0.34 0 0 0 -0.07 -0.67c-0.35 0 -0.68 -0.08 -1 -0.09h-0.49a3 3 0 0 0 -0.43 0.09 6.82 6.82 0 0 0 -0.79 0.31 0.43 0.43 0 0 0 0 0.68 7 7 0 0 0 0.92 0.09 3 3 0 0 0 0.44 -0.01Z" fill="#4C57E6" fill-rule="evenodd" stroke-width="1"></path>
    <path d="M7.09 19.3s-0.01 0.02 0 0Z" fill="#020202" fill-rule="evenodd" stroke-width="1"></path>
  </g>
</svg>