<svg xmlns="http://www.w3.org/2000/svg" viewBox="0 0 24 24" id="Landmark-Cathedral--Streamline-Freehand">
  <desc>
    Landmark Cathedral Streamline Icon: https://streamlinehq.com
  </desc>
  <title>landmark-cathedral</title>
  <g>
    <path d="M12.94 3.19a0.35 0.35 0 0 1 0.34 -0.33c-0.28 0 -0.36 0.14 -0.34 0.33Zm0.1 0.26a0.35 0.35 0 0 0 0.24 0.1 0.31 0.31 0 0 0 0.29 -0.16 0.36 0.36 0 0 0 -0.05 -0.39s-0.12 -0.13 -0.14 -0.16l-0.29 -0.5a2.35 2.35 0 0 0 -0.41 -0.53 4.07 4.07 0 0 0 -0.52 -0.41 3.76 3.76 0 0 1 -0.47 -0.3s-0.28 -0.41 -0.38 -0.33a0.29 0.29 0 0 0 -0.09 -0.15 0.31 0.31 0 0 0 -0.43 0 0.43 0.43 0 0 0 0 0.4c0.05 0.14 0.22 0.48 0.24 0.53a2.66 2.66 0 0 0 0.51 0.73 3.75 3.75 0 0 0 0.44 0.35 4.44 4.44 0 0 1 0.38 0.27l0.53 0.44s0.11 0.16 0.11 0.11Z" fill="#020202" fill-rule="evenodd" stroke-width="1"></path>
    <path d="M11.18 3.14a0.18 0.18 0 0 1 0.05 0.08s-0.02 -0.05 -0.05 -0.08Zm0 0.31s0.1 -0.06 0.11 -0.06l0.84 -0.57c0.22 -0.2 0.46 -0.38 0.66 -0.6a9.67 9.67 0 0 0 0.83 -1.08 0.34 0.34 0 0 0 0 -0.48 0.35 0.35 0 0 0 -0.49 0c-0.36 0.26 -0.75 0.47 -1.1 0.75s-0.44 0.39 -0.66 0.59l-0.55 0.85s-0.27 0.36 -0.25 0.47 0.06 0.28 0.24 0.31a0.3 0.3 0 0 0 0.41 -0.18Z" fill="#020202" fill-rule="evenodd" stroke-width="1"></path>
    <path d="m1.21 13 0 0.1a0.59 0.59 0 0 0 0 -0.1Zm-0.56 0.07c0.07 0.14 0.17 0.17 0.25 0.15a0.29 0.29 0 0 1 -0.25 -0.13Zm22 9.07h-1l-4.24 0c-1.41 0 -2.84 -0.05 -4.26 0 -1 0 -1.91 0 -2.86 0.1s-2 0.13 -3 0.14l-2 0c-0.82 0 -1.65 0 -2.48 -0.07 -0.34 0 -0.67 0 -1 -0.08h-0.7C1.26 22 1 21.32 1 21l0.12 -5 0.05 -2.75a1.39 1.39 0 0 1 0 -0.15s0.07 -0.07 0 -0.08a0.31 0.31 0 0 0 0 -0.19 0.29 0.29 0 0 0 -0.17 -0.18 0.29 0.29 0 0 0 -0.42 0.2 3.31 3.31 0 0 0 0 0.42c0 0.89 0 0.3 -0.14 2.75L0.12 21a6.26 6.26 0 0 0 0 1.31 0.88 0.88 0 0 0 0.65 0.73l0.88 0.05c0.36 0.05 0.73 0.09 1.09 0.12 0.82 0.06 1.64 0.07 2.46 0.15s1.39 0.09 2.1 0.09c1 0 2.08 -0.07 3.1 -0.13s1.87 -0.08 2.8 -0.1l4.25 0 4.24 -0.08 1 0 0.41 0a0.55 0.55 0 0 0 0.28 -0.14 0.64 0.64 0 0 0 0.18 -0.33c0 -0.16 0.05 -0.41 0.07 -0.51a4.5 4.5 0 0 0 0.07 -0.63c0 -0.45 0 -0.9 0.05 -1.35l0.08 -4.37 0.11 -2.88a0.34 0.34 0 0 0 -0.68 0l-0.18 2.82 -0.21 4.35c0 0.45 0 0.91 -0.08 1.36a4.67 4.67 0 0 1 -0.08 0.52s-0.06 0.09 -0.09 0.18Z" fill="#020202" fill-rule="evenodd" stroke-width="1"></path>
    <path d="M19.71 22.44c0 0.18 0.22 0.17 0.38 0.12s0.25 0 0.29 -0.12v-0.08l0 -0.55 0.09 -1.42c0 -0.83 0.1 -1.66 0.11 -2.49l0 -1.25c0 -0.41 -0.05 -0.83 -0.07 -1.25l-0.12 -1.74 0 -0.69a0.3 0.3 0 0 0 -0.06 -0.26s-0.49 -0.15 -0.55 0.23c0 0.18 -0.09 0.63 -0.1 0.7l-0.16 1.79c0 0.42 -0.06 0.83 -0.08 1.25s0 0.83 0 1.25c0 0.83 0.08 1.66 0.12 2.49l0.08 1.42c0 0.13 0.05 0.45 0.06 0.59Z" fill="#020202" fill-rule="evenodd" stroke-width="1"></path>
    <path d="m4.41 22.59 0 -1.54c0 -0.51 0.1 -1 0.13 -1.52 0 -0.83 0.08 -1.67 0.08 -2.5l0 -2.51 -0.12 -1.26c0 -0.07 0.06 -0.37 -0.06 -0.39a0.32 0.32 0 0 0 0 -0.35 0.31 0.31 0 0 0 -0.43 0 0.49 0.49 0 0 0 -0.17 0.29 2.59 2.59 0 0 0 0 0.56l-0.06 1.15c-0.1 0.84 -0.22 1.68 -0.26 2.52s0 1.7 0 2.54l0 1.52c0 0.25 0 1.43 0.09 1.66Z" fill="#020202" fill-rule="evenodd" stroke-width="1"></path>
    <path d="m10.49 11.61 0.07 0c0.01 0 0.01 -0.01 -0.07 0Zm2 0.38a1.54 1.54 0 0 1 -0.37 0l-0.69 0v-0.56a1.63 1.63 0 0 0 0 -0.49 0.68 0.68 0 0 0 -0.33 -0.34 1 1 0 0 0 -0.49 -0.09 3.26 3.26 0 0 0 -0.64 0.07c-0.28 0.05 -0.71 0.05 -1 0.14a1.3 1.3 0 0 0 -0.64 0.33 0.77 0.77 0 0 0 -0.21 0.48l0 0.64 0 0.56 0 0.76 0.05 2 0 0.87c0 0.66 0.08 1.31 0.09 2l0.12 2.93 0 0.85a1.83 1.83 0 0 0 0.08 0.43 0.3 0.3 0 0 0 0.38 0.2 0.29 0.29 0 0 0 0.2 -0.37l0 -1.16 0 -2.88 0 -2c0 -0.27 0 -0.54 0.05 -0.81l0 -2.08v-1.29s0.06 -0.23 0.07 -0.36l0.9 -0.11 0.15 0v0.61l0 0.35a0.57 0.57 0 0 0 0.18 0.34 0.54 0.54 0 0 0 0.31 0.17 3.15 3.15 0 0 0 0.6 0l0.91 0a2.22 2.22 0 0 0 0.44 -0.06 1.9 1.9 0 0 0 0.41 0 0.63 0.63 0 0 0 0.34 -0.17 1 1 0 0 0 0.27 -0.6 3.09 3.09 0 0 0 0 -0.67l0.09 0a4.69 4.69 0 0 1 0.78 -0.08 3 3 0 0 1 0.52 0 1.76 1.76 0 0 1 0 0.19l0.12 1.56c0 1.11 0.08 2.24 0.16 3.36s0.21 2.25 0.35 3.35l0.15 1.77a3.6 3.6 0 0 0 0 0.54 0.36 0.36 0 0 0 0.36 0.34 0.34 0.34 0 0 0 0.34 -0.34 0.3 0.3 0 0 0 0 -0.1c0.1 0 0 -0.4 0 -0.44l-0.09 -1.86c-0.1 -1.09 -0.18 -2.2 -0.22 -3.31s0 -2.22 0 -3.31l-0.08 -1.7a2 2 0 0 0 -0.16 -0.75 0.71 0.71 0 0 0 -0.39 -0.31 3.29 3.29 0 0 0 -0.89 -0.12 6.33 6.33 0 0 0 -1.21 0.11 3.24 3.24 0 0 0 -0.63 0.16 0.58 0.58 0 0 0 -0.3 0.35 1.7 1.7 0 0 0 0 0.73 2.11 2.11 0 0 1 -0.08 0.18Z" fill="#020202" fill-rule="evenodd" stroke-width="1"></path>
    <path d="M14.38 19.74a3.88 3.88 0 0 0 -0.53 -1.61 2.13 2.13 0 0 0 -1.92 -0.85 2.07 2.07 0 0 0 -1.77 1.14 2.32 2.32 0 0 0 -0.14 0.77 7.79 7.79 0 0 0 0.09 1c0 0.35 0 1.88 0.51 1.74s0.27 -1.41 0.28 -1.77a8.36 8.36 0 0 1 0 -0.87 1.33 1.33 0 0 1 0.13 -0.43 1.09 1.09 0 0 1 1 -0.49 1.13 1.13 0 0 1 1 0.35 3.16 3.16 0 0 1 0.52 1.2 7 7 0 0 1 0.15 1.2c0 0.25 0 0.7 0.33 0.72 0.65 0 0.4 -1.73 0.35 -2.1Z" fill="#4C57E6" fill-rule="evenodd" stroke-width="1"></path>
    <path d="m4.53 15.2 -0.13 0a0.3 0.3 0 0 0 -0.31 0.29c0 0.17 0.08 0.3 0.3 0.36a6 6 0 0 0 0.77 -0.06l1.69 0.08c0.45 0.06 0.9 0.09 1.36 0.11l2 0.06c0.61 0 1.22 0 1.83 0.05l1.28 0c0.42 0 0.95 -0.1 1.43 -0.12l0.91 0a7.53 7.53 0 0 0 0.95 0c0.68 0 1.35 -0.15 2 -0.18l1 -0.08H20l2.69 0c1.27 0 1.32 -0.69 0 -0.69L20 15l-0.45 0 -1 0 -2.06 0a5.52 5.52 0 0 1 -0.81 -0.06 8.6 8.6 0 0 0 -1 -0.08c-0.51 0 -1 0 -1.5 0.05l-3 0c-0.77 0 -1.54 0.1 -2.31 0.12h-1l-1.76 0.08c-0.05 -0.01 -0.51 -0.02 -0.58 0.09Z" fill="#020202" fill-rule="evenodd" stroke-width="1"></path>
    <path d="M9.81 4.77Zm-0.67 0 0 0.14 -0.05 0.47 -0.15 1.48c0 0.34 -0.06 0.68 -0.06 1l0 1a12.17 12.17 0 0 0 0.31 2.12 0.3 0.3 0 0 0 0.61 0.02c0 -0.8 0.15 -1.62 0.21 -2.46l0 -1.68 -0.11 -1.44 0 -0.47 -0.1 -0.32a0.31 0.31 0 0 0 -0.21 -0.21c-0.05 0 -0.46 -0.08 -0.46 0.32a0.17 0.17 0 0 0 0.01 0.07Z" fill="#020202" fill-rule="evenodd" stroke-width="1"></path>
    <path d="M12.05 5.27c0.11 0 0.22 0 0.15 -0.07s-0.1 -0.01 -0.15 0.07Zm1.68 1.26a0.31 0.31 0 0 0 -0.05 0.19 0.38 0.38 0 0 1 0.05 -0.19ZM12 5.31a1.63 1.63 0 0 1 0.34 0.22 8.75 8.75 0 0 1 0.86 0.79l0.29 0.33a1.61 1.61 0 0 0 0.35 0.39 0.33 0.33 0 0 0 0.34 0 0.32 0.32 0 0 0 0.17 -0.3 0.35 0.35 0 0 0 -0.14 -0.27s0 -0.08 -0.05 -0.07l-0.31 -0.58a7.45 7.45 0 0 0 -1 -1.21 2.3 2.3 0 0 0 -0.7 -0.45 0.73 0.73 0 0 0 -0.66 0.11 3.82 3.82 0 0 0 -0.52 0.6c-0.24 0.28 -0.5 0.56 -0.74 0.86a10.44 10.44 0 0 0 -1 1.43 0.3 0.3 0 0 0 0.06 0.42 0.31 0.31 0 0 0 0.43 -0.06 7.93 7.93 0 0 1 0.58 -0.58c0.47 -0.44 1 -0.86 1.47 -1.25 0.11 -0.07 0.23 -0.25 0.23 -0.38Z" fill="#020202" fill-rule="evenodd" stroke-width="1"></path>
    <path d="M14.71 4.73a0.36 0.36 0 0 1 -0.2 0.06 0.23 0.23 0 0 0 0.2 -0.06Zm0.4 6c0 -0.43 0.12 -2.59 0.11 -3s-0.05 -0.73 -0.09 -1.13 -0.08 -0.47 -0.1 -0.71l-0.16 -1 0 -0.31a0.3 0.3 0 0 0 -0.16 -0.34c-0.12 -0.08 -0.38 -0.07 -0.46 0.27a4 4 0 0 0 0 0.45l-0.11 0.95c0 0.43 -0.06 0.84 -0.05 1.27s0 0.61 0.08 0.91 0.1 1.61 0.13 1.91c-0.01 2 0.81 1.34 0.81 0.7Z" fill="#020202" fill-rule="evenodd" stroke-width="1"></path>
    <path d="m0.9 14.81 0.63 0.24a1.34 1.34 0 0 0 0.27 0.07 1.89 1.89 0 0 0 0.41 0c0.35 0 0.65 -0.16 1 -0.23a0.35 0.35 0 0 0 0.34 -0.35 0.34 0.34 0 0 0 -0.34 -0.34 8.46 8.46 0 0 0 -1 -0.22 2.36 2.36 0 0 0 -0.37 0l-0.25 0 -0.68 0.16Z" fill="#020202" fill-rule="evenodd" stroke-width="1"></path>
    <path d="M20.38 14Zm0.13 0.19a0.18 0.18 0 0 1 0 0.19 0.08 0.08 0 0 0 0 -0.06 0.29 0.29 0 0 0 0 -0.17Zm-0.28 0.37c0 0.07 0.26 0.07 0.32 0.08l0.73 0.12 0.72 0a11.62 11.62 0 0 0 1.18 -0.2 0.35 0.35 0 0 0 0.34 -0.35 0.34 0.34 0 0 0 -0.34 -0.34 9.49 9.49 0 0 0 -1.18 -0.29 4.75 4.75 0 0 0 -0.84 0.06l-0.61 0.21 -0.29 0.06a0.42 0.42 0 0 0 -0.31 0.16s-0.14 0.44 0.2 0.44Z" fill="#020202" fill-rule="evenodd" stroke-width="1"></path>
    <path d="M12.32 8c-0.06 0.05 -0.24 0 -0.28 0a1.13 1.13 0 0 0 -0.48 0.34c-0.1 0.1 -0.21 0.22 -0.1 0.33a1 1 0 0 0 0.53 0.35 0.61 0.61 0 0 0 0.54 -0.02 0.32 0.32 0 0 0 0.14 -0.31 0.52 0.52 0 0 0 -0.18 -0.43 0.3 0.3 0 0 1 -0.17 -0.26Zm0.52 -0.39a0.75 0.75 0 0 0 -0.15 -0.16 1.44 1.44 0 0 0 -0.73 -0.2 2 2 0 0 0 -1.41 0.75 1.1 1.1 0 0 0 0 1.41 2.05 2.05 0 0 0 1.17 0.72 1.6 1.6 0 0 0 1.39 -0.4 1.24 1.24 0 0 0 0.36 -1.21 1.35 1.35 0 0 0 -0.63 -0.87Z" fill="#020202" fill-rule="evenodd" stroke-width="1"></path>
  </g>
</svg>