<svg xmlns="http://www.w3.org/2000/svg" viewBox="0 0 24 24" id="Landmark-Asia-Castle-3--Streamline-Freehand">
  <desc>
    Landmark Asia Castle 3 Streamline Icon: https://streamlinehq.com
  </desc>
  <g>
    <path d="M12.24 2.71z" fill="none" stroke-width="1"></path>
    <path d="M14.67 7.3Z" fill="none" stroke-width="1"></path>
    <path d="m15.37 9.35 -0.06 0.05c-0.06 0.05 0.09 -0.02 0.06 -0.05Z" fill="none" stroke-width="1"></path>
    <path d="M3 23.36a0.19 0.19 0 0 0 0 -0.08l0 0.08Z" fill="none" stroke-width="1"></path>
    <path d="M17.62 20.26a0.35 0.35 0 0 1 0.12 0.19 0.25 0.25 0 0 0 -0.12 -0.19Z" fill="none" stroke-width="1"></path>
    <path d="M9.24 7.44c0.85 0 1.7 -0.12 2.54 -0.13a11.18 11.18 0 0 1 1.15 0.05 13.94 13.94 0 0 0 1.69 0c0 -0.14 -0.13 -0.37 -0.16 -0.44s-0.05 -0.12 -0.07 -0.19a1.14 1.14 0 0 1 0 -0.37 6.41 6.41 0 0 0 -1.08 0 3.44 3.44 0 0 1 -0.45 0.05c-0.49 0 -1 -0.08 -1.47 0a18.76 18.76 0 0 1 -1.88 0.12 6.37 6.37 0 0 1 -0.76 0 1 1 0 0 1 0 0.1 0.67 0.67 0 0 1 0 0.25 0.77 0.77 0 0 1 -0.07 0.12s0 0.22 -0.1 0.2a0.25 0.25 0 0 1 0 0.12 0.13 0.13 0 0 1 0 0.06Z" fill="none" stroke-width="1"></path>
    <path d="m3 23.23 0 0.05Z" fill="none" stroke-width="1"></path>
    <path d="M3.52 14.75v-0.09l0 0.09Z" fill="none" stroke-width="1"></path>
    <path d="M8.52 7.14c0 -0.08 -0.08 -0.1 -0.15 -0.12a0.36 0.36 0 0 1 0.15 0.12Z" fill="none" stroke-width="1"></path>
    <path d="M4.31 18.18a0.21 0.21 0 0 0 0.23 0 0.3 0.3 0 0 1 -0.23 0Z" fill="none" stroke-width="1"></path>
    <path d="M19.6 16.83a4.51 4.51 0 0 0 0.1 -0.53l-0.38 0.05 -1.55 0a8.54 8.54 0 0 1 -1.25 0.14l-2.78 0c-1.4 0 -2.82 0 -4.24 -0.11s-2.8 -0.18 -4.2 -0.23l-1.73 0a2.13 2.13 0 0 0 0.12 0.6 0.78 0.78 0 0 0 0.67 0.44 11.15 11.15 0 0 0 1.53 0.13c1.05 0 2.1 -0.07 3.16 -0.14a22.55 22.55 0 0 1 3.29 0c0.45 0.05 0.91 0.08 1.36 0.1 1.09 0.05 2.19 0.05 3.26 0.07 0.47 0 1 0.06 1.49 0a2.79 2.79 0 0 0 0.87 -0.15c0.16 0.02 0.22 -0.2 0.28 -0.37Z" fill="none" stroke-width="1"></path>
    <path d="m7.56 8.1 0 0.09Z" fill="none" stroke-width="1"></path>
    <path d="M6.08 15.32h0.44l3.63 0c1.21 0 2.4 0.08 3.59 0.08 0.88 0 1.84 0.13 2.76 0.13l0.63 0a8.33 8.33 0 0 1 -0.22 -1l0 -0.76 0.06 -0.22a22.49 22.49 0 0 1 -2.73 0.2c-2.44 0 -4.9 -0.28 -7.31 -0.29l-0.9 0a3.07 3.07 0 0 1 0.11 0.36l0 0.33 0 0.36a6.28 6.28 0 0 1 -0.06 0.81Z" fill="none" stroke-width="1"></path>
    <path d="m7.49 8.18 0 0.35c0 0.03 0.18 0.57 0.12 0.78a0.24 0.24 0 0 1 0.06 0.11 2.1 2.1 0 0 0 0.56 0.08c0.44 0 0.9 -0.05 1.31 -0.07l4.21 -0.06 1.15 0h0.34l0 -0.65 -0.14 -0.3a1 1 0 0 0 -0.24 0c-0.7 -0.07 -1.47 0 -2.1 -0.07a8.6 8.6 0 0 0 -1 -0.11l-2.52 0L7.58 8l0 0.06Z" fill="none" stroke-width="1"></path>
    <path d="M7.16 8.23z" fill="none" stroke-width="1"></path>
    <path d="M6.94 12.36c2.41 0 4.87 0.23 7.31 0.24a22.18 22.18 0 0 0 3.05 -0.15c0.58 -0.07 1.2 -0.09 1.79 -0.18a3.93 3.93 0 0 0 0.68 -0.15l0.54 -0.21 0 0.08c0 -0.02 -0.52 -0.19 -0.69 -0.23l-0.95 0a3.93 3.93 0 0 1 -1.14 -0.38 5.87 5.87 0 0 1 -1 -0.65c-0.1 -0.09 -0.33 -0.26 -0.52 -0.43a1.19 1.19 0 0 1 -0.42 0.22 7.89 7.89 0 0 1 -1.87 0l-4.21 -0.19A12.39 12.39 0 0 1 8 10.25a2.05 2.05 0 0 1 -0.61 -0.18l-0.43 0.31a4.4 4.4 0 0 1 -1.19 0.62c-0.61 0.22 -1.27 0.38 -1.77 0.52a3.67 3.67 0 0 0 -0.81 0.25c-0.09 0 0 0.12 0.05 0.27l0.69 0.23a6.46 6.46 0 0 0 1.16 0.15c0.61 -0.02 1.22 -0.05 1.85 -0.06Z" fill="none" stroke-width="1"></path>
    <path d="M22.31 15.63a6.49 6.49 0 0 0 -1 -0.09 4.8 4.8 0 0 0 -0.79 -0.08v-0.57a1.84 1.84 0 0 0 -0.08 -0.38 0.35 0.35 0 0 0 -0.67 0.14 0.36 0.36 0 0 0 0 0.11l0 0.13 0 0.58 -0.58 0a10.1 10.1 0 0 1 -1.19 -0.03h-0.11a6.2 6.2 0 0 0 0.16 -1 5.94 5.94 0 0 0 0 -0.73l-0.09 -0.34c0.44 -0.06 0.89 -0.11 1.33 -0.19a4.5 4.5 0 0 0 0.82 -0.22 2.69 2.69 0 0 0 0.72 -0.32 1.08 1.08 0 0 0 0.33 -0.38 0.74 0.74 0 0 0 -0.11 -0.9 2.51 2.51 0 0 0 -1.18 -0.48h-1a3 3 0 0 1 -0.92 -0.28 4.37 4.37 0 0 1 -0.86 -0.52c-0.12 -0.1 -0.44 -0.61 -0.64 -0.53a1.17 1.17 0 0 0 0 -0.27c0 -0.27 -0.05 -0.57 -0.05 -0.82a2.1 2.1 0 0 0 -0.1 -0.67 0.63 0.63 0 0 0 -0.3 -0.22 2.41 2.41 0 0 0 -0.66 -0.2V7.3c0.08 0 0.11 -0.36 0.13 -0.43a1.59 1.59 0 0 0 0 -0.54 0.51 0.51 0 0 0 -0.07 -0.17 3.21 3.21 0 0 0 0.33 -0.12 1.09 1.09 0 0 1 0.6 0 2.4 2.4 0 0 0 0.77 -0.09 1.22 1.22 0 0 0 0.74 -0.68 1 1 0 0 0 0 -0.76 0.93 0.93 0 0 0 -0.58 -0.55 1.35 1.35 0 0 0 -0.29 0l-0.71 0c-0.57 -0.1 -1.18 -0.13 -1.76 -0.24a5 5 0 0 1 -0.66 -0.19l-1.29 -0.56a5.68 5.68 0 0 1 -0.51 -0.32 1.42 1.42 0 0 0 0.42 -0.3 9.91 9.91 0 0 0 0.67 -0.91c0.06 -0.09 0.4 -0.42 0.33 -0.52a0.34 0.34 0 0 0 0.13 -0.27 0.36 0.36 0 0 0 -0.15 -0.3 0.43 0.43 0 0 0 -0.44 -0.03c-0.1 0.08 -0.34 0.35 -0.43 0.42s-0.72 0.51 -0.89 0.66C11.67 1.27 11 1 11 1a1.67 1.67 0 0 0 -0.31 -0.17l-0.54 -0.26 -0.05 0c-0.17 -0.05 -0.27 0.1 -0.32 0.24a0.21 0.21 0 0 0 0 0.2l0.5 0.46c0.12 0.1 0.29 0.4 0.51 0.64a1.58 1.58 0 0 0 0.36 0.29l0 0.13c-0.21 0.08 -0.43 0.19 -0.53 0.23l-2.08 0.74a4 4 0 0 1 -0.82 0.24 4 4 0 0 1 -0.84 0.06 3.09 3.09 0 0 0 -0.73 0 0.77 0.77 0 0 0 -0.49 0.38A1 1 0 0 0 6 5.62a4.4 4.4 0 0 0 1.74 0.65l0 0.06a0.85 0.85 0 0 0 -0.05 0.35 1 1 0 0 0 0.1 0.35s0 0.21 0.1 0.33l-0.48 0a0.34 0.34 0 0 0 -0.41 0.31 0.28 0.28 0 0 0 0 0.09 0.61 0.61 0 0 0 0 0.14 3.17 3.17 0 0 0 -0.07 0.63 3.64 3.64 0 0 0 0 1.08l-0.36 0.23a4 4 0 0 1 -1 0.44c-0.6 0.18 -1.25 0.31 -1.74 0.42a2.87 2.87 0 0 0 -1.3 0.47 1 1 0 0 0 -0.07 1.21 1.09 1.09 0 0 0 0.41 0.42 3.52 3.52 0 0 0 0.85 0.33 7.29 7.29 0 0 0 1.28 0.25h0.13A2 2 0 0 0 5 14a1.82 1.82 0 0 0 0.07 0.61c0.07 0.29 0.19 0.53 0.26 0.77 -0.61 0 -1.22 0.05 -1.82 0.1V15l0 -0.19 0 -0.09a0.34 0.34 0 0 0 0 -0.1 0.29 0.29 0 0 0 -0.17 -0.22 0.31 0.31 0 0 0 -0.43 0.26l0 0.35 0 0.54 -1.23 0.14a0.3 0.3 0 0 0 -0.27 0.33 0.31 0.31 0 0 0 0.33 0.28l1.16 0a2.37 2.37 0 0 0 0.25 1.14 1.54 1.54 0 0 0 1 0.66c0 0.19 -0.13 0.54 -0.14 0.57 0 0.18 -0.09 0.34 -0.12 0.51a2.07 2.07 0 0 0 0 0.35 8.46 8.46 0 0 0 0.08 0.88c0 0.16 0.12 0.58 0.16 0.77l0 0.05a0.31 0.31 0 0 0 0.4 0.15 0.25 0.25 0 0 0 0.24 -0.12s0 0 0 -0.05a0.13 0.13 0 0 1 0 -0.06c0 -0.18 0.08 -0.58 0.11 -0.73s0.06 -0.26 0.07 -0.4a4.43 4.43 0 0 0 0 -0.63 4.39 4.39 0 0 0 -0.12 -0.71 2.17 2.17 0 0 0 0 -0.43 13.2 13.2 0 0 0 1.54 0.18 0.31 0.31 0 0 0 0 0.1c-0.05 0.16 -0.16 0.51 -0.18 0.63a0.68 0.68 0 0 0 -0.06 0.21 1.63 1.63 0 0 0 0 0.39 4.1 4.1 0 0 0 0.17 0.67 1.83 1.83 0 0 0 0.16 0.42c0.12 0.14 0.22 0.21 0.33 0.19a0.34 0.34 0 0 0 0.34 -0.34 0.41 0.41 0 0 0 0 -0.16c0 -0.19 0.15 -0.5 0.17 -0.81a2 2 0 0 0 -0.08 -0.63 3.73 3.73 0 0 1 -0.22 -0.67s0 0 0 -0.06l2.56 0a22.54 22.54 0 0 1 2.73 0.05c0.63 0.06 1.27 0.09 1.91 0.09 0.95 0 1.89 -0.05 2.82 -0.08h0.2a1.51 1.51 0 0 0 -0.09 0.18l-0.14 0.48a4.73 4.73 0 0 0 0 0.52c0 0.17 0.08 0.32 0.1 0.5s0 0.43 0.07 0.41v0.05c-0.16 0.89 0.33 1.13 0.7 0 0 -0.09 0.11 -0.32 0.13 -0.38a2.18 2.18 0 0 0 0.15 -0.61A2.49 2.49 0 0 0 18 19l-0.14 -0.39s0 -0.13 -0.06 -0.19a6.51 6.51 0 0 0 0.77 0c0.13 0 0.26 0 0.39 -0.06a0.83 0.83 0 0 1 0 0.24 6 6 0 0 0 -0.13 0.72 4.41 4.41 0 0 0 0.08 0.72c0 0.15 0.13 0.55 0.16 0.72a0.14 0.14 0 0 0 0 0.06 0.28 0.28 0 0 0 0.34 0.12 0.27 0.27 0 0 0 0.31 -0.12c0 -0.18 0.12 -0.59 0.15 -0.74a5.67 5.67 0 0 0 0.06 -0.71 5.94 5.94 0 0 0 -0.14 -0.71c0 -0.15 -0.08 -0.33 -0.11 -0.45a1.29 1.29 0 0 0 0.64 -0.76 4.12 4.12 0 0 0 0.17 -1.06 4.12 4.12 0 0 1 0.71 0c0.11 0 0.77 0.2 0.89 0a0.34 0.34 0 0 0 0.54 -0.28 0.41 0.41 0 0 0 -0.32 -0.48Zm-4.69 4.63a0.25 0.25 0 0 1 0.12 0.19 0.35 0.35 0 0 0 -0.12 -0.19ZM6.59 4.82c0.11 0 0.26 -0.08 0.34 -0.08a4.92 4.92 0 0 0 1 -0.14c0.33 -0.09 3.78 -1.2 3.86 -1.16l1.85 0.74a3.72 3.72 0 0 0 0.79 0.28c0.58 0.15 1.19 0.2 1.76 0.33l0.82 0.07a0.28 0.28 0 0 1 -0.16 0.13 2.43 2.43 0 0 1 -0.71 0 1.75 1.75 0 0 0 -0.83 0.14 1 1 0 0 1 -0.47 0.09c-0.56 0 -1.18 -0.07 -1.69 0h-1.87c-0.55 0 -1.18 0.11 -1.79 0.13a7.12 7.12 0 0 1 -1.14 0A7.41 7.41 0 0 1 7 5a1.48 1.48 0 0 1 -0.41 -0.18Zm2 2.4c0.08 0 0.08 -0.17 0.1 -0.2a0.77 0.77 0 0 0 0.09 -0.26 0.67 0.67 0 0 0 0 -0.25 1 1 0 0 0 0 -0.1 6.37 6.37 0 0 0 0.76 0 18.76 18.76 0 0 0 1.88 -0.12l1.47 0a3.44 3.44 0 0 0 0.45 -0.05 6.41 6.41 0 0 1 1.08 0 1.14 1.14 0 0 0 0 0.37c0 0.07 0.06 0.13 0.07 0.19s0.11 0.3 0.16 0.44a13.94 13.94 0 0 1 -1.69 0 11.18 11.18 0 0 0 -1.15 -0.05c-0.84 0 -1.69 0.1 -2.54 0.13l-0.67 0a0.13 0.13 0 0 0 0 -0.06 0.25 0.25 0 0 0 -0.04 -0.04Zm-1.06 1 0 -0.09 1.66 0.18 2.52 0a8.6 8.6 0 0 1 1 0.11c0.63 0.11 1.4 0 2.1 0.07a1 1 0 0 1 0.24 0l0.14 0.3 0 0.65h-0.34l-1.15 0 -4.21 0.06c-0.41 0 -0.87 0.08 -1.31 0.07a2.1 2.1 0 0 1 -0.56 -0.08 0.24 0.24 0 0 0 -0.06 -0.11c0.06 -0.21 -0.11 -0.63 -0.12 -0.78s0 -0.23 0 -0.35Zm-0.34 0.06Zm-3.23 4L3.24 12c-0.08 -0.15 -0.14 -0.22 -0.05 -0.27a3.67 3.67 0 0 1 0.81 -0.25c0.5 -0.14 1.16 -0.3 1.77 -0.52a4.4 4.4 0 0 0 1.17 -0.58l0.43 -0.31a2.05 2.05 0 0 0 0.61 0.18 12.39 12.39 0 0 0 1.6 0.07l4.21 0.19a7.89 7.89 0 0 0 1.87 0 1.19 1.19 0 0 0 0.42 -0.22c0.19 0.17 0.42 0.34 0.52 0.43a5.87 5.87 0 0 0 1 0.65 3.93 3.93 0 0 0 1.14 0.38l0.95 0c0.17 0 0.85 0.09 0.69 0.23s-0.06 0 0 -0.08l-0.54 0.21a3.93 3.93 0 0 1 -0.68 0.15c-0.59 0.09 -1.21 0.11 -1.79 0.18a22.18 22.18 0 0 1 -3.05 0.15c-2.44 0 -4.9 -0.25 -7.31 -0.24l-1.85 0a6.46 6.46 0 0 1 -1.23 -0.12Zm2.22 1.56a3.07 3.07 0 0 0 -0.18 -0.41l0.9 0c2.41 0 4.87 0.31 7.31 0.29a22.49 22.49 0 0 0 2.73 -0.2l-0.06 0.22 0 0.76a8.33 8.33 0 0 0 0.22 1l-0.63 0c-0.92 0 -1.88 -0.11 -2.76 -0.13 -1.19 0 -2.39 -0.05 -3.59 -0.08s-2.43 0 -3.63 0h-0.41a6.28 6.28 0 0 0 0.12 -0.84l0 -0.36c0 -0.12 -0.03 -0.19 -0.05 -0.3Zm-1.87 4.34a0.3 0.3 0 0 0 0.23 0 0.21 0.21 0 0 1 -0.23 0Zm14.14 -0.75 -1.49 0c-1.07 0 -2.17 0 -3.26 -0.07 -0.45 0 -0.91 -0.05 -1.36 -0.1a22.55 22.55 0 0 0 -3.29 0c-1.06 0.07 -2.11 0.16 -3.16 0.14a11.15 11.15 0 0 1 -1.53 -0.13 0.78 0.78 0 0 1 -0.67 -0.44 2.13 2.13 0 0 1 -0.12 -0.6l1.73 0c1.4 0 2.8 0.16 4.2 0.23s2.84 0.11 4.24 0.11l2.78 0a8.54 8.54 0 0 0 1.25 -0.14l1.55 0 0.38 -0.05a4.51 4.51 0 0 1 -0.1 0.53c-0.06 0.2 -0.12 0.39 -0.28 0.45a2.79 2.79 0 0 1 -0.87 0.07Z" fill="#020202" stroke-width="1"></path>
    <path d="M3.54 14.71s0.05 -0.06 0 -0.07v0.05Z" fill="#020202" stroke-width="1"></path>
    <path d="M3.05 23.36c0.09 0 0.06 -0.05 0 -0.1a0.19 0.19 0 0 1 0 0.1Z" fill="#4C57E6" stroke-width="1"></path>
    <path d="M21 22.47a6.57 6.57 0 0 0 -2.53 -0.83 7.35 7.35 0 0 0 -0.82 -0.07c-1 0 -2 0.13 -3 0s-2.06 -0.19 -3.09 -0.21c-1.52 0 -3 0 -4.59 0.08a6.8 6.8 0 0 0 -0.8 0.07c-0.39 0.05 -0.76 0.11 -1.16 0.18s-0.78 0.08 -1.17 0.14a3.53 3.53 0 0 0 -0.54 0.13 1 1 0 0 0 -0.48 0.32 2.26 2.26 0 0 0 -0.35 0.6 1.91 1.91 0 0 0 -0.07 0.54 0.3 0.3 0 0 0 0.35 0.29 0.32 0.32 0 0 0 0.27 -0.34H3l0 -0.08 0 -0.05a0.81 0.81 0 0 1 0.05 -0.1 1.84 1.84 0 0 1 0.22 -0.36 0.41 0.41 0 0 1 0.23 -0.16 3.54 3.54 0 0 1 0.5 -0.06l1.17 0c0.4 0 0.76 -0.07 1.14 -0.09l0.72 0c0.72 0 1.43 0.06 2.14 0.07 1.06 0 2.12 0 3.18 0.07 0.75 0 1.49 0.06 2.24 0.13 1 0.07 2.06 -0.15 3.07 -0.18a5.3 5.3 0 0 1 0.69 0 7.3 7.3 0 0 1 2 0.42c0.35 0.15 0.64 0.36 0.65 0.72a0.35 0.35 0 0 0 0.35 0.34 0.34 0.34 0 0 0 0.34 -0.34 1.39 1.39 0 0 0 -0.69 -1.23Z" fill="#4C57E6" stroke-width="1"></path>
    <path d="M7.56 8.1s0.01 0.01 0 0Z" fill="#020202" stroke-width="1"></path>
  </g>
</svg>