<svg xmlns="http://www.w3.org/2000/svg" viewBox="0 0 24 24" id="Landmark-Angkor-Wat--Streamline-Freehand">
  <desc>
    Landmark Angkor Wat Streamline Icon: https://streamlinehq.com
  </desc>
  <title>landmark-angkor-wat</title>
  <g>
    <path d="M2.66 10.08c-0.09 0 -0.16 0 -0.19 0.05s0.13 0 0.17 0Z" fill="none" stroke-width="1"></path>
    <path d="M12.21 10.47a1.08 1.08 0 0 0 0.3 -0.2Z" fill="none" stroke-width="1"></path>
    <path d="M4.43 9.61a0.43 0.43 0 0 0 0 -0.07s-0.03 0.08 0 0.07Z" fill="none" stroke-width="1"></path>
    <path d="m12.05 10.44 0 0.1 0.12 -0.07c-0.03 -0.04 -0.1 -0.08 -0.12 -0.03Z" fill="none" stroke-width="1"></path>
    <path d="m4.42 9.53 -0.01 -0.01 -0.02 -0.01 0.01 0.01 0.02 0.02 0 -0.01z" fill="none" stroke-width="1"></path>
    <path d="M22 10.14c0 -0.06 0 -0.1 -0.08 -0.08s0 0 0 0.07Z" fill="none" stroke-width="1"></path>
    <path d="M10.57 16.32a0.34 0.34 0 0 1 0.21 0.14 0.24 0.24 0 0 0 -0.21 -0.14Z" fill="none" stroke-width="1"></path>
    <path d="M2.8 10s-0.08 0 -0.09 0.1 0.14 -0.1 0.09 -0.1Z" fill="none" stroke-width="1"></path>
    <path d="M13.18 16.21a1.24 1.24 0 0 1 0 -0.47 1.67 1.67 0 0 1 0.25 -0.63h-1.69l-1 0 0 0.06 0.07 0c0.11 0 0.17 0.19 0.22 0.34A1.45 1.45 0 0 1 11 16s0 0.61 -0.21 0.58a0.52 0.52 0 0 1 0 0.11l1.05 0 1.46 0a2.63 2.63 0 0 1 -0.12 -0.48Z" fill="none" stroke-width="1"></path>
    <path d="m17.41 5.43 -0.16 0c-0.04 0 0.1 0.03 0.16 0Z" fill="none" stroke-width="1"></path>
    <path d="m20.88 17 0 -0.9a1.09 1.09 0 0 0 -0.12 -0.61c-0.09 -0.11 -0.25 -0.12 -0.5 -0.14 -1.12 -0.11 -2.25 -0.15 -3.38 -0.18l-2.79 0c0 0.2 0.14 0.34 0.19 0.55a0.66 0.66 0 0 1 0 0.24 3.54 3.54 0 0 1 -0.15 0.8l1.82 0a13.13 13.13 0 0 1 1.88 0.06c0.9 0.1 1.8 0.25 2.69 0.37a2 2 0 0 0 0.35 0V17Z" fill="none" stroke-width="1"></path>
    <path d="M22.15 10.23c0 -0.08 -0.06 -0.1 -0.15 -0.09 0.06 0.08 0.15 0.15 0.15 0.09Z" fill="none" stroke-width="1"></path>
    <path d="M14.52 19.59a0.36 0.36 0 0 1 0.3 0.18c-0.17 -0.47 -0.6 -0.15 -0.63 0.06a0.35 0.35 0 0 1 0.33 -0.24Z" fill="none" stroke-width="1"></path>
    <path d="M0.46 20.69a0.09 0.09 0 0 0 -0.06 0l0.06 0Z" fill="none" stroke-width="1"></path>
    <path d="M0.46 20.69a0.13 0.13 0 0 1 0.07 0.06l0 -0.05Z" fill="none" stroke-width="1"></path>
    <path d="M2.45 16.75a0.06 0.06 0 0 1 0 -0.05Z" fill="none" stroke-width="1"></path>
    <path d="M9.74 19.55a0.38 0.38 0 0 1 0.12 0.1c-0.01 -0.07 -0.06 -0.09 -0.12 -0.1Z" fill="none" stroke-width="1"></path>
    <path d="m3.21 14.3 -0.06 0a1.41 1.41 0 0 1 0.22 -0.06 1.61 1.61 0 0 1 0.44 0c0.46 0 1 0.09 1.41 0A29.21 29.21 0 0 1 8.5 14l3.24 0c1.43 0 2.87 0 4.3 0.1s2.88 0.22 4.3 0.43a2.34 2.34 0 0 1 0.57 0.15 0.36 0.36 0 0 1 0.06 -0.15 2.44 2.44 0 0 1 0.27 -0.28 3.07 3.07 0 0 0 0.28 -0.35 3 3 0 0 0 0.23 -0.38 3.43 3.43 0 0 0 0.32 -1.11 6 6 0 0 0 -0.07 -1.83l0 -0.42a4.21 4.21 0 0 0 -0.69 0.32c-0.73 0.19 -1.55 0.37 -2.33 0.62a6.77 6.77 0 0 0 -1.42 0.62 0.31 0.31 0 1 1 -0.35 -0.5 8.08 8.08 0 0 1 1.46 -0.88c0.29 -0.14 0.59 -0.26 0.89 -0.38a4.37 4.37 0 0 0 -0.21 -1 13.65 13.65 0 0 0 -0.67 -1.55c-0.13 -0.27 -0.25 -0.55 -0.4 -0.81a2.94 2.94 0 0 0 -0.28 -0.47 3.88 3.88 0 0 0 -0.55 -0.7 0.47 0.47 0 0 0 -0.15 0.16c-0.16 0.2 -0.29 0.45 -0.42 0.63 -0.41 0.54 -1.08 1.32 -1.63 2 -0.25 0.32 -0.47 0.62 -0.63 0.87a0.31 0.31 0 0 1 -0.62 -0.27c0.14 -0.29 0.34 -0.63 0.55 -1l0.83 -1.34a0.41 0.41 0 0 1 -0.27 -0.11 1.75 1.75 0 0 1 -0.25 -0.4l-0.64 -0.75 -0.82 -0.72a6 6 0 0 0 -1.21 -1 0.82 0.82 0 0 0 -0.65 -0.16 0.41 0.41 0 0 0 -0.19 0.11c-0.18 0.14 -0.35 0.33 -0.49 0.46l-1.5 1.43 -0.66 0.71a1.62 1.62 0 0 1 -0.15 0.31 0.76 0.76 0 0 0 0.08 0.11A9 9 0 0 1 9.52 8l0.48 0.9a0.33 0.33 0 0 1 -0.09 0.47 0.34 0.34 0 0 1 -0.48 -0.09l-0.62 -0.91a8 8 0 0 0 -1 -1.3 13.75 13.75 0 0 0 -1.1 -1.14c-0.16 -0.15 -0.43 -0.66 -0.49 -0.46a0.75 0.75 0 0 0 -0.22 0.32c-0.12 0.21 -0.23 0.44 -0.32 0.64 -0.21 0.42 -0.45 0.82 -0.66 1.24a5.65 5.65 0 0 0 -0.34 0.8l-0.18 0.95a0.37 0.37 0 0 1 0 0.11s0.07 0.07 0 0.08a0.28 0.28 0 0 1 0 0.13c0.42 0.15 0.85 0.31 1.27 0.49a7.33 7.33 0 0 1 1.37 0.77 0.31 0.31 0 0 1 0.1 0.42 0.3 0.3 0 0 1 -0.42 0.1 6.57 6.57 0 0 0 -1 -0.39c-0.83 -0.25 -1.7 -0.38 -2.53 -0.59 -0.12 0 -0.4 -0.3 -0.6 -0.4l0 0.3a2.91 2.91 0 0 0 -0.07 1.11 7.54 7.54 0 0 0 0.23 1.22l0.29 0.8s0.14 0.14 0.13 0.19a0.36 0.36 0 0 1 0.11 0.26 0.35 0.35 0 0 1 -0.17 0.28Zm4.68 -1.52a3.5 3.5 0 0 1 0.47 -0.73c0.24 -0.3 0.51 -0.57 0.8 -0.89a3.42 3.42 0 0 1 0.68 -0.58 15.93 15.93 0 0 0 1.48 -0.92c0.12 -0.1 0.4 -0.39 0.47 -0.25a0.62 0.62 0 0 1 0.46 -0.12c0.09 0 0.35 0.22 0.38 0.13s0.05 0 0 0a2.76 2.76 0 0 1 0.59 0.22c0.25 0.12 0.48 0.27 0.73 0.41a7.8 7.8 0 0 1 1.93 1.46 4.57 4.57 0 0 1 0.92 1.38 0.35 0.35 0 1 1 -0.63 0.29A3.86 3.86 0 0 0 15 11.91a7.08 7.08 0 0 0 -1.53 -0.91l-1.15 -0.5 -0.08 0a0.37 0.37 0 0 1 -0.15 0l-0.06 0a3.36 3.36 0 0 1 -0.51 0.32 9 9 0 0 0 -1.75 0.89c-0.32 0.27 -0.63 0.49 -0.89 0.75a2.68 2.68 0 0 0 -0.46 0.54 0.3 0.3 0 0 1 -0.41 0.12 0.29 0.29 0 0 1 -0.12 -0.34Z" fill="none" stroke-width="1"></path>
    <path d="M3 16.79a0.38 0.38 0 0 1 0 0.15l0.5 0c0.67 -0.07 1.32 -0.13 2 -0.17s1.32 0 2 0l1.29 0 1.36 -0.05C10 16.47 9.92 16 9.9 16a2.07 2.07 0 0 1 0 -0.23 1.07 1.07 0 0 1 0.06 -0.35q0 -0.17 0.09 -0.3l-2.79 0c-0.64 0 -1.28 0 -1.91 0.06L3.52 15a0.5 0.5 0 0 0 -0.42 0.28 2.31 2.31 0 0 0 -0.11 0.77c0.01 0.13 0.18 0.72 0.01 0.74Z" fill="none" stroke-width="1"></path>
    <path d="m23.65 20.67 -1.43 0.21 -1.34 0 -2 0c-1.31 0 -2.62 -0.11 -3.94 -0.16s-2.64 -0.09 -4 -0.09c-1.77 0 -3.55 0.1 -5.31 0.26A10.66 10.66 0 0 1 4 21a24.12 24.12 0 0 1 -2.47 -0.22l-1 -0.07 -0.09 0 0 0.05a0.13 0.13 0 0 0 -0.07 -0.06s-0.07 0 -0.06 0a0.25 0.25 0 0 0 -0.12 0A0.3 0.3 0 0 0 0 21a0.31 0.31 0 0 0 0.22 0.28 1.5 1.5 0 0 0 0.36 0l0.85 0.12c0.8 0.15 1.66 0.3 2.52 0.38a11.42 11.42 0 0 0 1.74 0.06l2.62 0 5.25 0 5.28 0c0.68 0 1.38 0 2.06 -0.06 0.47 0 0.94 -0.06 1.39 -0.12l1.36 -0.27A0.34 0.34 0 0 0 24 21a0.35 0.35 0 0 0 -0.35 -0.33Z" fill="#020202" stroke-width="1"></path>
    <path d="M0.47 20.68c0 -0.06 -0.08 -0.08 -0.09 0a0.09 0.09 0 0 1 0.06 0Z" fill="#020202" stroke-width="1"></path>
    <path d="m10 19.63 0 -0.13c0 -0.03 0.05 -0.11 0.06 -0.18a0.61 0.61 0 0 0 0 -0.3 1.46 1.46 0 0 0 -0.27 -0.56 0.31 0.31 0 0 0 -0.35 -0.25 0.3 0.3 0 0 0 -0.25 0.34c-0.06 0.2 -0.23 0.31 -0.26 0.53a1 1 0 0 0 0.07 0.42c0 0.09 0.05 0.41 0.2 0.52s0.21 0.25 0.38 0.18a0.35 0.35 0 0 0 0.35 -0.34 0.29 0.29 0 0 0 0 -0.16s0.07 -0.04 0.07 -0.07Zm-0.24 -0.08c0.06 0 0.11 0 0.12 0.1a0.38 0.38 0 0 0 -0.14 -0.1Z" fill="#020202" stroke-width="1"></path>
    <path d="M14.4 20.28s0.27 0 0.46 -0.26c0 0 0.08 -0.17 0.09 -0.19l0.14 -0.41a1.36 1.36 0 0 0 0 -0.4 1.35 1.35 0 0 0 -0.19 -0.38s0 -0.19 -0.1 -0.14 0 0.07 -0.06 0.1a0.3 0.3 0 0 0 -0.42 -0.43c-0.1 0 -0.11 0.12 -0.17 0.19s0 0.28 -0.07 0.37a2.24 2.24 0 0 0 -0.11 0.34l0 0.32 0.14 0.3 0 0.16 0 0.07a0.31 0.31 0 0 0 0.29 0.36Zm0.42 -0.51a0.34 0.34 0 0 0 -0.63 0.06c0.03 -0.21 0.46 -0.53 0.63 -0.06Z" fill="#020202" stroke-width="1"></path>
    <path d="M1.12 20.08a1 1 0 0 0 0.1 0.42 0.31 0.31 0 0 0 0.55 -0.27l0 -0.88a2.88 2.88 0 0 1 0.08 -1.22 0.56 0.56 0 0 1 0.43 -0.33 1.17 1.17 0 0 1 0.32 0l1 0c0.66 0 1.29 -0.05 1.93 -0.05s1.25 0 1.91 0.09c0.45 0 0.91 0.05 1.37 0.05 1 0 2.07 -0.09 3.1 -0.08s1.91 0.07 2.86 0.08c0.43 0 0.86 0 1.28 -0.05a11.09 11.09 0 0 1 1.73 0c0.89 0.05 1.79 0.16 2.68 0.24h0.45c0 1.83 0.19 2.65 0.33 2.54 0.15 0.11 0.29 -0.71 0.33 -2.52a1 1 0 0 1 0.39 0.1l0.09 0.35a2.48 2.48 0 0 1 0.11 0.68l0 1.18a0.35 0.35 0 0 0 0.34 0.35 0.35 0.35 0 0 0 0.35 -0.35c0 -0.44 0.07 -0.94 0.05 -1.41a2.93 2.93 0 0 0 -0.1 -0.67 2.73 2.73 0 0 0 -0.14 -0.51 0.79 0.79 0 0 0 -0.26 -0.29 1.78 1.78 0 0 0 -0.62 -0.24l-0.19 0a2.53 2.53 0 0 0 0 -0.28l0 -0.9a1.8 1.8 0 0 0 -0.21 -1 0.28 0.28 0 0 0 0.16 -0.14c0.06 0 0.17 -0.13 0.2 -0.15a4.78 4.78 0 0 0 0.39 -0.39 5.3 5.3 0 0 0 0.34 -0.45 4.35 4.35 0 0 0 0.63 -1.69 6.81 6.81 0 0 0 0 -1.75 3.65 3.65 0 0 0 -0.09 -0.67 1.14 1.14 0 0 0 -0.27 -0.49 0.89 0.89 0 0 0 -0.67 -0.23 4.72 4.72 0 0 0 -1.07 0.24l-0.72 0.27a6.42 6.42 0 0 0 -0.11 -1A16.7 16.7 0 0 0 19.6 7c-0.12 -0.32 -0.22 -0.63 -0.37 -0.94a3.1 3.1 0 0 0 -0.4 -0.64 4.44 4.44 0 0 0 -0.9 -0.9 1 1 0 0 0 -1 -0.11 1.44 1.44 0 0 0 -0.49 0.4 8.2 8.2 0 0 0 -0.5 0.85l-0.22 0.34a0.31 0.31 0 0 0 -0.09 -0.11s-0.08 -0.2 -0.1 -0.24l-0.63 -1 -0.78 -0.85a6.85 6.85 0 0 0 -1.32 -1.29 2 2 0 0 0 -1.54 -0.32 1.91 1.91 0 0 0 -0.52 0.25 6.84 6.84 0 0 0 -0.66 0.66c-0.2 0.22 -0.39 0.44 -0.57 0.67s-0.52 0.68 -0.78 1l-0.62 0.91 0 0.06c-0.18 -0.23 -0.38 -0.44 -0.58 -0.66a2.84 2.84 0 0 0 -0.94 -0.76 1.11 1.11 0 0 0 -0.81 0.07 1.72 1.72 0 0 0 -0.68 0.63 5.28 5.28 0 0 0 -0.43 1c-0.16 0.44 -0.34 0.87 -0.5 1.32a7.53 7.53 0 0 0 -0.26 1 3.54 3.54 0 0 0 -0.07 0.58 5.23 5.23 0 0 0 0 0.56v0.07l-0.16 -0.06c-0.2 -0.07 -0.59 -0.35 -0.88 -0.43a0.88 0.88 0 0 0 -0.63 0 0.83 0.83 0 0 0 -0.36 0.36 3.73 3.73 0 0 0 -0.22 0.75 3.69 3.69 0 0 0 0 1.24A7.28 7.28 0 0 0 2 13l0.44 0.86a2.93 2.93 0 0 0 0.3 0.39 0.37 0.37 0 0 0 0.33 0.08 1.13 1.13 0 0 0 -0.57 0.47 2.44 2.44 0 0 0 -0.21 1.25c0 0.14 0 0.61 0.06 0.8a0.68 0.68 0 0 0 0 0.12l-0.26 0.03a1.32 1.32 0 0 0 -0.91 0.83 3.88 3.88 0 0 0 -0.05 1.53c0.02 0.21 -0.02 0.49 -0.01 0.72Zm9.45 -3.76a0.24 0.24 0 0 1 0.21 0.14 0.34 0.34 0 0 0 -0.21 -0.14Zm0.27 0.33a0.52 0.52 0 0 0 0 -0.11c0.16 0.04 0.16 -0.54 0.16 -0.54a1.45 1.45 0 0 0 -0.07 -0.49c-0.05 -0.15 -0.11 -0.35 -0.22 -0.34l-0.07 0 0 -0.06 1 0h1.64a1.67 1.67 0 0 0 -0.25 0.63 1.24 1.24 0 0 0 0 0.47 2.63 2.63 0 0 0 0.17 0.45l-1.46 0Zm9.69 0.52c-0.89 -0.12 -1.79 -0.27 -2.69 -0.37a13.13 13.13 0 0 0 -1.84 -0.06l-1.82 0a3.54 3.54 0 0 0 0.15 -0.8 0.66 0.66 0 0 0 0 -0.24c0 -0.21 -0.16 -0.35 -0.19 -0.55l2.79 0c1.13 0 2.26 0.07 3.38 0.18 0.25 0 0.41 0 0.5 0.14a1.09 1.09 0 0 1 0.12 0.61l0 0.9v0.22a2 2 0 0 1 -0.4 -0.03ZM17.41 5.43c-0.06 0 -0.18 0.08 -0.16 0s0.09 -0.05 0.16 0ZM2.8 10c0.05 0 0 0.07 -0.09 0.1s0.04 -0.17 0.09 -0.1Zm-0.33 0.17c0 -0.09 0.1 -0.09 0.19 -0.05s-0.2 0.08 -0.19 0.01Zm0.79 3.6c0 -0.05 -0.12 -0.17 -0.13 -0.19l-0.29 -0.8a7.54 7.54 0 0 1 -0.23 -1.22 2.91 2.91 0 0 1 0.07 -1.11l0 -0.3c0.2 0.1 0.48 0.37 0.6 0.4 0.83 0.21 1.7 0.34 2.53 0.59a6.57 6.57 0 0 1 1 0.39 0.3 0.3 0 0 0 0.42 -0.1 0.31 0.31 0 0 0 -0.1 -0.42 7.33 7.33 0 0 0 -1.38 -0.74c-0.42 -0.18 -0.85 -0.34 -1.27 -0.49a0.28 0.28 0 0 0 0 -0.13l0 -0.07a0.37 0.37 0 0 0 0 -0.11l0.18 -0.95A5.65 5.65 0 0 1 5 7.67c0.21 -0.42 0.45 -0.82 0.66 -1.24 0.09 -0.2 0.2 -0.43 0.32 -0.64a0.75 0.75 0 0 1 0.29 -0.32c0.06 -0.2 0.33 0.31 0.49 0.46a13.75 13.75 0 0 1 1.1 1.14 8 8 0 0 1 1 1.3l0.62 0.91a0.34 0.34 0 0 0 0.48 0.09 0.33 0.33 0 0 0 0.04 -0.47L9.52 8a9 9 0 0 0 -0.89 -1.53 0.76 0.76 0 0 1 -0.08 -0.11 1.62 1.62 0 0 0 0.15 -0.31l0.66 -0.71 1.5 -1.44c0.14 -0.13 0.31 -0.32 0.49 -0.46a0.41 0.41 0 0 1 0.19 -0.11 0.82 0.82 0 0 1 0.65 0.16 6 6 0 0 1 1.21 1l0.84 0.72 0.64 0.75a1.75 1.75 0 0 0 0.25 0.4 0.41 0.41 0 0 0 0.27 0.11l-0.83 1.34c-0.21 0.37 -0.41 0.71 -0.55 1a0.31 0.31 0 0 0 0.54 0.29c0.16 -0.25 0.38 -0.55 0.63 -0.87 0.55 -0.7 1.22 -1.48 1.63 -2 0.13 -0.18 0.26 -0.43 0.42 -0.63a0.47 0.47 0 0 1 0.15 -0.16 3.88 3.88 0 0 1 0.55 0.7 2.94 2.94 0 0 1 0.31 0.41c0.15 0.26 0.27 0.54 0.4 0.81a13.65 13.65 0 0 1 0.67 1.55 4.37 4.37 0 0 1 0.21 1c-0.3 0.12 -0.6 0.24 -0.89 0.38a8.08 8.08 0 0 0 -1.46 0.88 0.31 0.31 0 1 0 0.35 0.5 6.77 6.77 0 0 1 1.47 -0.59c0.78 -0.25 1.6 -0.43 2.33 -0.62a4.21 4.21 0 0 1 0.69 -0.32s-0.08 -0.06 0 -0.07 0.07 0 0.08 0.08 0.15 0 0.15 0.09 -0.09 0 -0.14 -0.07l0 0.42a6 6 0 0 1 0.07 1.79 3.43 3.43 0 0 1 -0.32 1.11 3 3 0 0 1 -0.23 0.38 3.07 3.07 0 0 1 -0.28 0.35 2.44 2.44 0 0 0 -0.27 0.28 0.36 0.36 0 0 0 -0.06 0.15 2.34 2.34 0 0 0 -0.57 -0.15c-1.42 -0.21 -2.86 -0.35 -4.3 -0.43s-2.87 -0.08 -4.3 -0.1l-3.24 0a29.21 29.21 0 0 0 -3.28 0.27c-0.45 0.06 -1 -0.05 -1.41 0a1.61 1.61 0 0 0 -0.44 0 1.41 1.41 0 0 0 -0.22 0.06l0.06 0a0.35 0.35 0 0 0 0.05 -0.3 0.36 0.36 0 0 0 -0.11 -0.27Zm-0.16 1.52a0.5 0.5 0 0 1 0.42 -0.29l1.79 0.12c0.63 -0.05 1.27 -0.06 1.91 -0.06l2.79 0q0 0.13 -0.09 0.3a1.07 1.07 0 0 0 -0.06 0.35 2.07 2.07 0 0 0 0 0.23s0.13 0.5 0.21 0.68l-1.36 0.05 -1.29 0 -2 0c-0.66 0 -1.3 0.1 -2 0.17l-0.5 0a0.38 0.38 0 0 0 0 -0.15c0.16 0 0 -0.61 0 -0.73a2.31 2.31 0 0 1 0.18 -0.67Zm-0.65 1.46a0.06 0.06 0 0 0 0 0.05Z" fill="#020202" stroke-width="1"></path>
    <path d="m12.21 10.47 -0.12 0.07a0.37 0.37 0 0 0 0.15 0Z" fill="#4C57E6" stroke-width="1"></path>
    <path d="M8 13.19a0.3 0.3 0 0 0 0.41 -0.12 2.68 2.68 0 0 1 0.46 -0.54c0.26 -0.26 0.57 -0.48 0.89 -0.75a9 9 0 0 1 1.75 -0.89 3.36 3.36 0 0 0 0.51 -0.32l0.06 0s-0.05 0 0 -0.1 0.09 0 0.16 0l0.33 -0.18a1.08 1.08 0 0 1 -0.3 0.2l0.08 0 1.15 0.5a7.08 7.08 0 0 1 1.55 0.87 3.86 3.86 0 0 1 1.15 1.27 0.35 0.35 0 1 0 0.63 -0.29 4.57 4.57 0 0 0 -0.92 -1.38A7.8 7.8 0 0 0 14 10.05c-0.25 -0.14 -0.48 -0.29 -0.73 -0.41a2.76 2.76 0 0 0 -0.59 -0.22c0 0.09 -0.29 -0.11 -0.38 -0.13a0.62 0.62 0 0 0 -0.46 0.12c-0.07 -0.14 -0.35 0.15 -0.47 0.25a15.93 15.93 0 0 1 -1.48 0.92 3.42 3.42 0 0 0 -0.68 0.58c-0.29 0.32 -0.56 0.59 -0.8 0.89a3.5 3.5 0 0 0 -0.47 0.73 0.29 0.29 0 0 0 0.06 0.41Z" fill="#4C57E6" stroke-width="1"></path>
    <path d="M12.59 9.41s0.01 0 0 0Z" fill="#4C57E6" stroke-width="1"></path>
    <path d="m22 10.14 -0.01 0 0.02 0.02 -0.01 -0.02z" fill="#020202" stroke-width="1"></path>
    <path d="M4.42 9.53a0.43 0.43 0 0 1 0 0.07s0.05 -0.04 0 -0.07Z" fill="#020202" stroke-width="1"></path>
  </g>
</svg>