<svg xmlns="http://www.w3.org/2000/svg" viewBox="0 0 24 24" id="Landmark-London-Tower--Streamline-Freehand">
  <desc>
    Landmark London Tower Streamline Icon: https://streamlinehq.com
  </desc>
  <title>landmark-london-tower</title>
  <g>
    <path d="M18.36 10.3a1 1 0 0 0 -0.09 -0.28 0.75 0.75 0 0 0 -0.4 -0.31 5.09 5.09 0 0 0 -0.92 -0.1h-0.14l0 -1.22c0 -0.15 0.06 -0.34 0.07 -0.51a1.2 1.2 0 0 0 0 -0.38 0.36 0.36 0 0 0 -0.11 -0.27c-0.4 -0.43 -0.87 -0.93 -1.35 -1.41 -0.33 -0.32 -0.65 -0.63 -1 -0.91a0.76 0.76 0 0 0 -0.33 -0.13 4.93 4.93 0 0 0 -0.53 0c-0.16 -0.3 -0.32 -0.61 -0.5 -0.92a7.71 7.71 0 0 0 -0.58 -0.86L12 2.51A3.25 3.25 0 0 0 12 2l0.5 -0.15a0.36 0.36 0 0 0 0.35 -0.36 0.37 0.37 0 0 0 -0.37 -0.35L11.89 1c-0.08 -0.24 -0.18 -0.47 -0.25 -0.72a0.32 0.32 0 0 0 -0.63 0c-0.06 0.25 -0.12 0.48 -0.16 0.73 -0.23 0.07 -0.43 0.16 -0.65 0.25a0.31 0.31 0 0 0 -0.3 0.33 0.33 0.33 0 0 0 0.34 0.29l0.64 0.19c0 0.14 0.07 0.28 0.11 0.41a1.24 1.24 0 0 0 -0.21 0.18c-0.11 0.15 -0.16 0.36 -0.27 0.52 -0.21 0.41 -0.45 0.82 -0.66 1.25 -0.06 0.14 -0.13 0.27 -0.18 0.41a1.28 1.28 0 0 0 -0.45 0 0.78 0.78 0 0 0 -0.44 0.26l-1 1.29 -0.6 0.9 -0.08 0a0.42 0.42 0 0 0 -0.23 0.35 2.85 2.85 0 0 0 0 0.5l0 1.43a0.23 0.23 0 0 0 0 0.14l-0.74 0a0.36 0.36 0 0 0 -0.34 0.37 0.29 0.29 0 0 0 0 0.09L5.72 17l-0.06 2.1a4.27 4.27 0 0 0 0 0.64 0.61 0.61 0 0 0 0.09 0.28 0.67 0.67 0 0 0 0.4 0.3 3.68 3.68 0 0 0 0.91 0.1h0.1a6.74 6.74 0 0 0 -0.16 0.78 4.09 4.09 0 0 0 0 1.07c0.06 0.41 0.16 0.8 0.23 1.21a0.34 0.34 0 0 0 0.36 0.35 0.35 0.35 0 0 0 0.41 -0.36c0.07 -0.42 0.14 -0.82 0.18 -1.24a3.13 3.13 0 0 0 0 -0.53 4.36 4.36 0 0 0 0 -0.51c0 -0.27 -0.09 -0.52 -0.14 -0.78h1.52c1.69 0 3.28 0 4.93 -0.09l1.82 -0.06a6.73 6.73 0 0 0 -0.22 1 3.52 3.52 0 0 0 0 0.56 5.27 5.27 0 0 0 0 0.56c0.05 0.43 0.13 0.85 0.2 1.29a0.36 0.36 0 0 0 0.36 0.35 0.35 0.35 0 0 0 0.35 -0.35c0.07 -0.44 0.16 -0.86 0.21 -1.29l0 -0.55 0 -0.55c0 -0.36 -0.12 -0.7 -0.17 -1.05l0.72 0a0.36 0.36 0 0 0 0.35 -0.36 0.24 0.24 0 0 0 0 -0.08l0.18 -6.66 0.05 -2.13a6 6 0 0 0 0.02 -0.7Zm-6.89 -6.44a0.3 0.3 0 0 0 0.06 -0.14l0.14 0.12a5.76 5.76 0 0 1 0.62 0.59l0.29 0.36h-0.53l-1.44 0.06c0.28 -0.33 0.58 -0.66 0.86 -0.99Zm-2 2.07c0.13 -0.12 0.52 0.07 0.61 0.08l1 0 1 0 1.48 -0.11a1 1 0 0 0 0.35 0c0.27 0.19 0.54 0.4 0.82 0.62l0.77 0.65L12.87 7l-2.46 0c-0.55 0 -1.1 0.07 -1.65 0.12l-0.66 0.07 0.24 -0.19ZM7.53 9.67l0.12 -1.41 0 -0.1 0.06 0h1.1l4.08 0 2.7 -0.08H16v0.26l0.08 1.23h-1.64l-4.93 0.09 -2 0.07a0.2 0.2 0 0 0 0.02 -0.06Zm2 9.57 -2.6 0h-0.1l0 -0.14 0 -2.11 -0.28 -6.42 2.16 0c1.94 0 3.78 0.14 5.74 0.2l2.6 0 0.1 0 0 0.16 0 2.13 0.27 6.38 -2.15 0c-1.9 -0.04 -3.74 -0.14 -5.7 -0.2Z" fill="#020202" stroke-width="1"></path>
    <path d="M13 11.63a3.42 3.42 0 0 0 -2.17 0.11 2.57 2.57 0 0 0 -1.54 0.84 3.38 3.38 0 0 0 -0.83 2 3.81 3.81 0 0 0 0.94 2.71 3.16 3.16 0 0 0 2.75 1.08 3.34 3.34 0 0 0 0.88 -0.22 4.87 4.87 0 0 0 0.79 -0.4 3.74 3.74 0 0 0 1.5 -2.2A3.11 3.11 0 0 0 13 11.63Zm1.26 3.64a2.61 2.61 0 0 1 -1.08 1.48 3.49 3.49 0 0 1 -0.58 0.29 2.46 2.46 0 0 1 -0.59 0.16 2.1 2.1 0 0 1 -1.79 -0.67 2.8 2.8 0 0 1 -0.84 -1.91 2.52 2.52 0 0 1 0.5 -1.55 1.9 1.9 0 0 1 0.85 -0.63 0.36 0.36 0 0 0 0.27 0 1.52 1.52 0 0 1 0.28 -0.09 0.24 0.24 0 0 0 0.12 0 2.86 2.86 0 0 1 1.36 0.1 2.47 2.47 0 0 1 1.36 1.05 2.25 2.25 0 0 1 0.18 1.77Z" fill="#4C57E6" stroke-width="1"></path>
    <path d="M10.2 21.27c-0.78 0 -0.75 2.34 0 2.3s0.68 -2.27 0 -2.3Z" fill="#020202" stroke-width="1"></path>
    <path d="M13.49 21.22c-0.84 -0.09 -0.88 2.53 -0.07 2.49s0.73 -2.43 0.07 -2.49Z" fill="#020202" stroke-width="1"></path>
    <path d="m13.16 13.7 -1.16 0.53 -0.3 -0.23 -0.38 -0.38a0.32 0.32 0 1 0 -0.55 0.31l0.2 0.56 0.33 0.65s0.08 0.14 0.12 0.19a0.55 0.55 0 0 0 0.22 0.17 0.63 0.63 0 0 0 0.46 0 2.23 2.23 0 0 0 0.52 -0.31l0.93 -0.92a0.36 0.36 0 0 0 0.1 -0.49 0.35 0.35 0 0 0 -0.49 -0.08Z" fill="#020202" stroke-width="1"></path>
  </g>
</svg>