<svg xmlns="http://www.w3.org/2000/svg" viewBox="0 0 24 24" id="Landmark-White-Pagoda-Tibet--Streamline-Freehand">
  <desc>
    Landmark White Pagoda Tibet Streamline Icon: https://streamlinehq.com
  </desc>
  <title>landmark-white-pagoda-tibet</title>
  <path d="M13 11.23a2.51 2.51 0 0 0 -1.59 -0.87 1.86 1.86 0 0 0 -1.78 0.74 2 2 0 0 0 -0.36 0.89 4.82 4.82 0 0 0 0 1.2l0.23 1.89c0.22 0.45 0.64 0.44 0.69 0l0 -1.86a8 8 0 0 1 0.08 -0.84 1.32 1.32 0 0 1 0.26 -0.58 0.9 0.9 0 0 1 0.8 -0.31 1.58 1.58 0 0 1 1 0.46 2.35 2.35 0 0 1 0.53 1 15.47 15.47 0 0 1 0.3 2c0.3 0.41 0.52 0.35 0.7 0a19 19 0 0 0 -0.14 -2.21 3.26 3.26 0 0 0 -0.72 -1.51Z" fill="#4C57E6" fill-rule="evenodd" stroke-width="1"></path>
  <path d="M20.76 20.33a5.57 5.57 0 0 0 -0.19 -1 1 1 0 0 0 -0.45 -0.54 2.34 2.34 0 0 0 -0.53 -0.12l-1.43 -2.15c-0.11 -0.14 -0.23 -0.4 -0.37 -0.6a1.29 1.29 0 0 0 -0.31 -0.34 0.86 0.86 0 0 0 -0.33 -0.1 3.64 3.64 0 0 0 -0.54 0l-0.57 0c0.24 -0.55 0.45 -1.06 0.61 -1.53s0.27 -0.89 0.37 -1.34 0.23 -0.81 0.3 -1.23a2.85 2.85 0 0 0 0.05 -0.64 1.16 1.16 0 0 0 -0.28 -0.56 11.59 11.59 0 0 0 -1.1 -1c-0.2 -0.19 -0.41 -0.37 -0.63 -0.55s-0.46 -0.35 -0.7 -0.51A1 1 0 0 0 14.2 8h-0.11c-0.32 -1 -0.73 -1.87 -1.09 -2.79 -0.15 -0.43 -0.29 -0.85 -0.4 -1.29l0 -0.34a6.49 6.49 0 0 1 0.33 -0.64A1 1 0 0 0 13 2.6a0.72 0.72 0 0 0 -0.15 -0.43 3.3 3.3 0 0 0 -0.39 -0.42l-1 -1.19S11.12 0.24 11 0.15a0.59 0.59 0 0 0 -0.54 -0.15 0.67 0.67 0 0 0 -0.31 0.19 2.61 2.61 0 0 0 -0.24 0.3l-0.65 0.8c-0.14 0.19 -0.47 0.5 -0.66 0.8a1.33 1.33 0 0 0 -0.24 0.7 1.25 1.25 0 0 0 0.09 0.37c0.05 0.1 0.12 0.21 0.18 0.31s0.07 0.07 0.09 0.12l-0.18 0.73 -0.46 2.2a9.56 9.56 0 0 0 -0.17 1.05c0 0.23 0 0.46 -0.06 0.69a2.33 2.33 0 0 0 -0.52 0.2 1.27 1.27 0 0 0 -0.33 0.31c-0.14 0.17 -0.27 0.4 -0.38 0.54 -0.3 0.37 -0.62 0.77 -0.91 1.18a7.34 7.34 0 0 0 -0.53 0.88 0.58 0.58 0 0 0 0 0.43 8.17 8.17 0 0 0 0.52 1l1.4 2.89 -0.67 0a5.65 5.65 0 0 0 -0.92 0.12 0.43 0.43 0 0 0 -0.34 0.28 4.39 4.39 0 0 0 -0.18 0.72l-0.46 2.23a5.76 5.76 0 0 0 -0.66 0.1 1.08 1.08 0 0 0 -0.6 0.3 0.94 0.94 0 0 0 -0.13 0.59c0 0.28 0.15 0.61 0.16 0.83 0 0.67 0 1.12 0.06 1.62a10.62 10.62 0 0 0 0.12 1.11 0.29 0.29 0 0 0 0.58 -0.08A8.5 8.5 0 0 1 4 22.49l0 -1.62c0 -0.2 -0.08 -0.49 -0.11 -0.76a0.48 0.48 0 0 1 0 -0.12 10.68 10.68 0 0 1 1.56 -0.12c0.56 0 1.12 0 1.69 -0.05l4 0 6.3 -0.15c0.29 0 0.92 -0.08 1.49 -0.1a2.34 2.34 0 0 1 0.8 0l0.2 0.88a6.27 6.27 0 0 1 0.15 1.23 17.51 17.51 0 0 1 -0.07 1.92 0.33 0.33 0 0 0 0.29 0.36 0.33 0.33 0 0 0 0.36 -0.3 16.35 16.35 0 0 0 0.16 -2 7 7 0 0 0 -0.06 -1.33ZM10.13 2l0.51 -0.61 1 1.14s0.11 0.17 0.18 0.24l-0.25 0.63a1.47 1.47 0 0 0 0 0.21 6 6 0 0 0 -0.57 -0.14 2.19 2.19 0 0 0 -0.36 0 1.47 1.47 0 0 0 -0.36 0 3.31 3.31 0 0 0 -0.56 0.17 0.9 0.9 0 0 0 0 -0.36 1.87 1.87 0 0 0 -0.17 -0.35l-0.07 -0.11c-0.2 -0.22 0.52 -0.63 0.65 -0.82Zm-0.7 2.58a2 2 0 0 1 0.08 -0.22c0.27 0.06 0.5 0.14 0.78 0.18a1.37 1.37 0 0 0 0.35 0 2.2 2.2 0 0 0 0.36 0c0.26 0 0.5 -0.12 0.75 -0.18 0.14 0.41 0.29 0.81 0.47 1.21 0 0.08 0.09 0.17 0.13 0.26 -0.32 -0.06 -0.64 -0.12 -1 -0.15s-0.41 0 -0.61 0a4.21 4.21 0 0 0 -0.62 0A6.44 6.44 0 0 0 9 6Zm-0.88 3.1a8.58 8.58 0 0 1 0.24 -1v-0.04c0.43 0 0.88 0.06 1.36 0.08h0.58a5.85 5.85 0 0 0 0.59 0c0.46 0 0.9 -0.11 1.32 -0.15 0.24 0.49 0.45 1 0.66 1.47h-2.89a16.22 16.22 0 0 0 -1.79 0.08l-0.14 0c0.03 -0.12 0.04 -0.3 0.07 -0.45Zm-2.19 4.8c0 -0.1 -0.24 -0.59 -0.33 -0.86 0.12 -0.19 0.26 -0.38 0.4 -0.56 0.3 -0.38 0.62 -0.75 0.93 -1.08l0.46 -0.56a2.89 2.89 0 0 1 0.93 -0.23 16.34 16.34 0 0 1 1.68 0l2.92 0a2.47 2.47 0 0 1 1.39 0.29l0.6 0.48c0.19 0.16 0.75 0.67 1.13 1a2.18 2.18 0 0 1 0 0.56c-0.06 0.36 -0.17 0.73 -0.22 1a10.9 10.9 0 0 1 -0.28 1.26c-0.16 0.53 -0.36 1.09 -0.62 1.75a63.56 63.56 0 0 0 -6.87 0.18l-0.69 0c-0.14 -0.31 -0.29 -0.62 -0.43 -0.94 -0.36 -0.77 -0.68 -1.55 -1 -2.3Zm11.12 6.22c-1.27 0 -2.53 -0.05 -3.8 0 -0.85 0 -1.69 0 -2.54 0.05 -1.13 0.05 -2.28 0.05 -3.43 0.09 -0.78 0 -1.56 0.08 -2.32 0.17l-0.23 0L5.71 17s0 -0.26 0.07 -0.42l0.68 0c0.68 0 1.39 0.08 2.05 0.06l8.06 -0.25 0.49 0 0.46 0.63 1.21 1.6Z" fill="#020202" fill-rule="evenodd" stroke-width="1"></path>
</svg>