<svg xmlns="http://www.w3.org/2000/svg" viewBox="0 0 24 24" id="Landmark-Golden-Temple--Streamline-Freehand">
  <desc>
    Landmark Golden Temple Streamline Icon: https://streamlinehq.com
  </desc>
  <title>landmark-golden-temple</title>
  <g>
    <path d="M20.27 22.48c-0.06 0 0 -0.31 0 -0.37l0 -1a12 12 0 0 0 0.06 -1.22l0 -1.88 0 -1.15 -0.58 0a5.28 5.28 0 0 1 -0.89 0.11l-1.94 0 -2.19 0c-0.47 0 -0.94 0 -1.4 0.08s-0.91 0.1 -1.38 0.12l-1 0L7 17l-3.28 -0.22H2.69a2.34 2.34 0 0 1 -0.46 0l0 1.09 -0.14 3.24v0.95l0 0.4a0.43 0.43 0 0 0 0 0.05s0.06 0.08 0 0.09v0.05h0.13l0.78 0c1.09 0.09 2.19 0.12 3.3 0.14a0.48 0.48 0 0 1 -0.09 -0.16 4.32 4.32 0 0 1 -0.06 -0.45l-0.1 -0.86c0 -0.43 -0.08 -0.85 -0.09 -1.28l0 -0.64c0 -0.21 0.06 -0.43 0.09 -0.65l0.12 -0.67 0 -0.38a0.32 0.32 0 0 1 0.55 -0.25 0.33 0.33 0 0 1 0.07 0.15s0 0.05 0 0.08 0.06 0.25 0.06 0.28l0.12 0.79c0 0.22 0.07 0.43 0.09 0.65a4.52 4.52 0 0 1 0 0.64c0 0.43 -0.06 0.85 -0.09 1.28l-0.1 0.86s0.05 0.28 0 0.3a0.35 0.35 0 0 1 -0.07 0.31l3.76 0 4.11 0h0.9c-0.08 -0.71 -0.22 -1.41 -0.26 -2.13l0 -1.47 0.15 -1.16c0 -0.08 0.1 -0.52 0.11 -0.55 0 -0.24 0.19 -0.23 0.36 -0.16s0.25 0 0.25 0.17l0 0.54 0.16 1.16c0 0.48 0.06 1 0 1.44 0 0.73 -0.11 1.45 -0.18 2.17h3.35l0.87 0a0.54 0.54 0 0 1 -0.15 -0.09 0.37 0.37 0 0 1 0.04 -0.23Zm-6.18 -0.55a0.35 0.35 0 0 1 -0.35 0.34 0.34 0.34 0 0 1 -0.34 -0.34 6.09 6.09 0 0 0 -0.4 -1.78 1.46 1.46 0 0 0 -1 -1h-0.76l-0.6 0.05a1.44 1.44 0 0 0 -0.78 0.6 3.92 3.92 0 0 0 -0.48 1.13c0 0.14 -0.12 0.35 -0.16 0.56a0.47 0.47 0 0 0 0 0.26 0.31 0.31 0 0 1 -0.58 0.2 1.12 1.12 0 0 1 -0.06 -0.42 5.07 5.07 0 0 1 0.08 -0.75A4.2 4.2 0 0 1 9.22 19a2.44 2.44 0 0 1 1 -0.89 2.23 2.23 0 0 1 0.46 -0.13 3.89 3.89 0 0 1 0.58 0l0.67 0a2.2 2.2 0 0 1 0.37 0.06 2.24 2.24 0 0 1 1.42 1.37 6.07 6.07 0 0 1 0.37 2.52Z" fill="none" stroke-width="1"></path>
    <path d="M2 22.48Z" fill="none" stroke-width="1"></path>
    <path d="M2.08 22.62a0.14 0.14 0 0 0 0 -0.07s-0.02 0.07 0 0.07Z" fill="none" stroke-width="1"></path>
    <path d="M17.66 8.27H18l1.47 0c-0.12 0 -0.23 -0.16 -0.28 -0.44S19 7.17 19 7a0.45 0.45 0 0 1 0.22 -0.48 0.93 0.93 0 0 0 0.56 -0.76 2.59 2.59 0 0 0 -0.32 -1.13 1.78 1.78 0 0 0 -0.27 -0.38 0.44 0.44 0 0 0 -0.19 -0.17 1.24 1.24 0 0 0 -1.3 0.74 1.47 1.47 0 0 0 0.06 1.66 0.46 0.46 0 0 1 0.13 0.27c0 0.07 0 0.3 -0.06 0.28l0 0.8v0.07a0.5 0.5 0 0 1 -0.17 0.37Z" fill="none" stroke-width="1"></path>
    <path d="M6.16 10.66c0.8 0 1.6 -0.06 2.39 -0.07l3.59 0c2 0 4 0 6 0.08l1.92 0.11 0 -0.7a4.45 4.45 0 0 0 -0.06 -0.85c0 -0.06 -0.08 -0.08 -0.14 -0.1a1.7 1.7 0 0 0 -0.34 -0.07C18.92 9 18.23 9 17.86 9l-0.75 -0.09 -0.25 -0.07 -0.07 0a0.19 0.19 0 0 1 -0.15 0 0.25 0.25 0 0 1 -0.12 -0.09l0 0.17a1.34 1.34 0 0 1 -0.77 0.95c-0.08 0 -0.17 0.15 -0.26 0.2a0.59 0.59 0 0 1 -0.25 0.07 0.35 0.35 0 0 1 -0.35 -0.35 0.34 0.34 0 0 1 0.26 -0.33c0 -0.11 0.22 -0.2 0.31 -0.24a0.63 0.63 0 0 0 0.32 -0.62 1.64 1.64 0 0 0 -0.25 -0.88 3.51 3.51 0 0 0 -1.07 -1.1 16.08 16.08 0 0 0 -2.22 -1.22 1.77 1.77 0 0 1 -0.35 -0.26c-0.12 -0.12 -0.23 -0.25 -0.33 -0.37a1 1 0 0 0 -0.13 -0.15c0 0.07 -0.22 0.11 -0.31 0.16L9.53 5.81a7 7 0 0 0 -2.61 2c-0.3 0.48 -0.27 1 0.41 1.52a1.25 1.25 0 0 0 0.28 0.15l0.53 0.18a0.31 0.31 0 0 1 0.21 0.38 0.3 0.3 0 0 1 -0.38 0.2c-0.18 0 -0.39 -0.09 -0.59 -0.16A2.08 2.08 0 0 1 7 9.85a2 2 0 0 1 -1 -1.3l-0.12 0.09 -0.17 0 -0.82 0.12a3.83 3.83 0 0 1 -0.69 0.08c-0.47 0 -1 -0.05 -1.43 0 -0.1 0 -0.22 0.09 -0.29 0.08a2.44 2.44 0 0 0 -0.06 0.55l0 1.31Z" fill="none" stroke-width="1"></path>
    <path d="m2.37 16.7 0.01 -0.01 -0.01 0.01z" fill="none" stroke-width="1"></path>
    <path d="M6.35 18a0.28 0.28 0 0 1 -0.1 -0.09l0 0.07 0 0.08Z" fill="none" stroke-width="1"></path>
    <path d="M6.74 22.32c-0.11 -0.09 -0.25 -0.1 -0.41 0.06a0.34 0.34 0 0 1 0.41 -0.06Z" fill="none" stroke-width="1"></path>
    <path d="M1.64 22.42a0.31 0.31 0 0 1 0.23 0 0.25 0.25 0 0 0 -0.23 0Z" fill="none" stroke-width="1"></path>
    <path d="m18.25 1 -0.06 -0.14Z" fill="none" stroke-width="1"></path>
    <path d="M16.8 8.84h0.05l-0.11 0h0.06Z" fill="none" stroke-width="1"></path>
    <path d="M20.49 22.25a0.35 0.35 0 0 1 0.36 0.08 0.29 0.29 0 0 0 -0.36 -0.08Z" fill="none" stroke-width="1"></path>
    <path d="m18.12 11.56 -4.3 0.12 -2.87 0c-1.6 0 -3.19 0 -4.79 -0.06l-3.82 -0.13c-0.06 0.57 -0.08 1.15 -0.09 1.74l0 2.29 0 0.62c0 -0.07 0.06 0 0.1 0a1.07 1.07 0 0 0 0.24 0l1.16 -0.1L7 16l2 0c0.66 0 1.33 0 2 0.08a5.58 5.58 0 0 0 0.82 0c0.44 0 0.89 -0.05 1.31 -0.09a10.85 10.85 0 0 1 1.14 0c0.86 0 1.72 0.07 2.56 0.1 0.64 0 1.29 0.12 1.93 0.13a3.84 3.84 0 0 0 0.76 0h0.7c0 -0.74 0 -1.48 -0.07 -2.22 0 -0.57 0 -1.15 -0.11 -1.72l0 -0.64ZM6.56 15.34a0.37 0.37 0 0 1 0 0.18 0.35 0.35 0 0 1 -0.29 0.25 0.36 0.36 0 0 1 -0.35 -0.17 1.42 1.42 0 0 1 -0.06 -0.22c0 -0.18 0 -0.67 -0.08 -0.82a1.61 1.61 0 0 0 -0.4 -0.6 0.73 0.73 0 0 0 -0.47 -0.29 0.64 0.64 0 0 0 -0.53 0.19 1 1 0 0 0 -0.4 0.63c0 0.08 0.08 0.69 -0.09 0.74a0.28 0.28 0 0 1 0 0.18 0.3 0.3 0 0 1 -0.33 0.27c-0.11 0 -0.24 -0.08 -0.32 -0.29a4.21 4.21 0 0 1 -0.12 -0.9 1.89 1.89 0 0 1 0.43 -1.37 1.68 1.68 0 0 1 1.45 -0.6 1.69 1.69 0 0 1 1 0.58 2.36 2.36 0 0 1 0.58 1.37c0.04 0.15 0.15 0.84 -0.02 0.87Zm1.6 -0.88c0 0.06 0 0.41 -0.1 0.49a0.36 0.36 0 0 1 -0.06 0.3 0.35 0.35 0 0 1 -0.43 0.18c-0.1 0 -0.2 -0.12 -0.29 -0.33a5.39 5.39 0 0 1 -0.11 -0.64c0 -0.22 -0.1 -0.42 -0.11 -0.64a3.94 3.94 0 0 1 0 -0.69c0 -0.05 0 -0.48 0.06 -0.64 0.1 -0.39 0.33 -0.44 0.48 -0.31a0.3 0.3 0 0 1 0.16 0.32c0.14 0 0.23 0.5 0.25 0.54a5.32 5.32 0 0 1 0.16 0.69 3.64 3.64 0 0 1 -0.01 0.73Zm4.75 0.93a0.42 0.42 0 0 1 -0.38 -0.26 4.43 4.43 0 0 1 -0.23 -1 1.18 1.18 0 0 0 -0.45 -0.59 0.8 0.8 0 0 0 -0.58 -0.19 1 1 0 0 0 -0.69 0.36 2.48 2.48 0 0 0 -0.55 0.85c0 0.08 0 0.61 -0.1 0.7a0.33 0.33 0 0 1 0.05 0.12 0.3 0.3 0 0 1 -0.24 0.35c-0.16 0.05 -0.31 0 -0.42 -0.25a3.33 3.33 0 0 1 -0.09 -1.1 2.85 2.85 0 0 1 0.77 -1.56 1.89 1.89 0 0 1 1.21 -0.57 1.85 1.85 0 0 1 1.38 0.57 2.11 2.11 0 0 1 0.6 1.26c0 0.08 0.17 0.65 0 0.75a0.33 0.33 0 0 1 0.08 0.22 0.34 0.34 0 0 1 -0.36 0.34Zm2.21 -1.21c0 0.1 -0.12 0.5 -0.14 0.66v0.08a0.32 0.32 0 0 1 -0.5 0.3 0.29 0.29 0 0 1 -0.19 -0.28l0 -0.06c0 -0.17 -0.17 -0.59 -0.19 -0.7a3.22 3.22 0 0 1 -0.05 -0.63 6.93 6.93 0 0 0 0.13 -0.88 0.3 0.3 0 1 1 0.57 -0.2 2.54 2.54 0 0 1 0.41 0.86 1.64 1.64 0 0 1 0 0.44 2.7 2.7 0 0 1 -0.04 0.41Zm4.29 1.12a0.34 0.34 0 0 1 -0.68 0 2.11 2.11 0 0 0 -0.18 -0.64 2.06 2.06 0 0 0 -0.33 -0.53c-0.11 -0.15 -0.33 -0.16 -0.54 -0.17s-0.32 0 -0.4 0.1a2.57 2.57 0 0 0 -0.34 0.52 2.07 2.07 0 0 0 -0.18 0.58s0 0.23 0 0.26l0 0.08a0.3 0.3 0 0 1 -0.23 0.36 0.32 0.32 0 0 1 -0.34 -0.11c-0.1 -0.09 -0.13 -0.52 -0.14 -0.59a2.65 2.65 0 0 1 0 -0.85 3.83 3.83 0 0 1 0.24 -0.78 1.47 1.47 0 0 1 1.44 -0.73 1.7 1.7 0 0 1 1.3 0.77 2.78 2.78 0 0 1 0.3 0.85 2.92 2.92 0 0 1 0.08 0.88Z" fill="none" stroke-width="1"></path>
    <path d="M10.84 2.13a0.86 0.86 0 0 0 0.89 0 0.89 0.89 0 0 0 0.27 -0.46 1 1 0 0 0 0 -0.48c-0.07 0 -0.19 -0.19 -0.25 -0.25a0.41 0.41 0 0 1 -0.13 -0.18 1.05 1.05 0 0 0 -0.67 0.06c-0.38 0.14 -0.79 0.42 -0.72 0.74s0.32 0.44 0.61 0.57Z" fill="none" stroke-width="1"></path>
    <path d="m2.24 16.2 0.09 0 -0.09 0Z" fill="none" stroke-width="1"></path>
    <path d="m2.35 16.24 -0.01 -0.02 -0.01 0.01 0.02 0.01z" fill="none" stroke-width="1"></path>
    <path d="M3.73 1.9a0.49 0.49 0 0 1 0.15 0.1 0.18 0.18 0 0 0 -0.15 -0.1Z" fill="none" stroke-width="1"></path>
    <path d="M12.33 18.05A2.2 2.2 0 0 0 12 18l-0.67 0a3.89 3.89 0 0 0 -0.58 0 2.23 2.23 0 0 0 -0.46 0.13 2.44 2.44 0 0 0 -1 0.89 4.2 4.2 0 0 0 -0.53 1.74 5.07 5.07 0 0 0 -0.08 0.75 1.12 1.12 0 0 0 0.06 0.42 0.31 0.31 0 0 0 0.58 -0.2 0.47 0.47 0 0 1 0 -0.26c0 -0.21 0.12 -0.42 0.16 -0.56a3.92 3.92 0 0 1 0.48 -1.13 1.44 1.44 0 0 1 0.78 -0.6l0.6 -0.05h0.76a1.46 1.46 0 0 1 1 1 6.09 6.09 0 0 1 0.38 1.78 0.34 0.34 0 0 0 0.34 0.34 0.35 0.35 0 0 0 0.35 -0.34 6.07 6.07 0 0 0 -0.34 -2.51 2.24 2.24 0 0 0 -1.5 -1.35Z" fill="#020202" stroke-width="1"></path>
    <path d="M2.08 22.53a0.14 0.14 0 0 1 0 0.07c0.06 0.01 0.04 -0.03 0 -0.07Z" fill="#020202" stroke-width="1"></path>
    <path d="M16.82 8.83h-0.07s0.04 0.02 0.07 0Z" fill="#020202" stroke-width="1"></path>
    <path d="M3.62 2.57A0.34 0.34 0 0 0 4 2.23a0.4 0.4 0 0 0 0 -0.15c0.08 0 0.13 -0.17 0.18 -0.33a0.83 0.83 0 0 0 0 -0.22l0 -0.16c0 -0.05 -0.18 -0.2 -0.18 -0.3s0 -0.3 -0.19 -0.29C3.46 0.33 3.08 0.43 3.28 1a1.18 1.18 0 0 0 -0.28 0.42 0.61 0.61 0 0 0 0 0.3 1.31 1.31 0 0 0 0.2 0.51c0.19 0.27 0.3 0.39 0.42 0.34ZM3.88 2a0.49 0.49 0 0 0 -0.15 -0.1 0.18 0.18 0 0 1 0.15 0.1Z" fill="#020202" stroke-width="1"></path>
    <path d="M10.46 3.22a1.84 1.84 0 0 0 2 -0.42 1.75 1.75 0 0 0 0.41 -1 1.61 1.61 0 0 0 -0.22 -1c0 -0.08 -0.35 -0.46 -0.44 -0.36a1.67 1.67 0 0 0 -1.82 -0.31A1.73 1.73 0 0 0 9.1 1.67a1.93 1.93 0 0 0 1.36 1.55Zm0.48 -2.4a1.05 1.05 0 0 1 0.67 -0.06 0.41 0.41 0 0 0 0.13 0.18c0.06 0.06 0.18 0.26 0.25 0.25a1 1 0 0 1 0 0.48 0.89 0.89 0 0 1 -0.26 0.44 0.86 0.86 0 0 1 -0.89 0c-0.29 -0.11 -0.59 -0.29 -0.62 -0.57s0.34 -0.54 0.72 -0.72Z" fill="#020202" stroke-width="1"></path>
    <path d="M18.14 2.06a0.35 0.35 0 0 0 0.35 0.34 0.34 0.34 0 0 0 0.34 -0.34 2.38 2.38 0 0 0 0.2 -0.64A2 2 0 0 0 19 1c-0.08 -0.11 -0.2 -0.48 -0.28 -0.43a0.05 0.05 0 0 0 0 -0.05c0 -0.13 -0.12 -0.14 -0.15 -0.17s-0.09 0 -0.13 0 -0.16 0.06 -0.3 0.18 0 0.06 0 0.13a0.14 0.14 0 0 1 0 0.07l-0.16 0.47a1.6 1.6 0 0 0 0 0.38 5.55 5.55 0 0 0 0.16 0.48Zm0.14 -1.15L18.2 0.88Z" fill="#020202" stroke-width="1"></path>
    <path d="M22.83 10.89h-0.51l-1.07 -0.08h-0.16a7.32 7.32 0 0 0 0 -0.81 5 5 0 0 0 -0.18 -1 0.94 0.94 0 0 0 -0.66 -0.66 2.13 2.13 0 0 0 -0.66 -0.1 0.42 0.42 0 0 0 0.29 -0.42 0.25 0.25 0 0 0 0 -0.12l0 -0.61a1.67 1.67 0 0 0 0.82 -0.87 2.85 2.85 0 0 0 -0.14 -2 2.38 2.38 0 0 0 -0.57 -0.87 1.42 1.42 0 0 0 -0.78 -0.39 2.28 2.28 0 0 0 -2.51 1.43 2.4 2.4 0 0 0 0.37 2.51s0 0.07 0 0.08 0.05 0.68 0.07 0.88a0.17 0.17 0 0 1 0 0.07 0.46 0.46 0 0 0 0.09 0.27l0 0.05h-0.19l-0.38 0a0.31 0.31 0 0 0 -0.23 0.11 2.67 2.67 0 0 0 -0.27 -1A4.72 4.72 0 0 0 15 5.81a18.07 18.07 0 0 0 -2.27 -1.44 1.23 1.23 0 0 1 -0.32 -0.37 2.38 2.38 0 0 0 -0.41 -0.38 1.29 1.29 0 0 0 -0.46 -0.2 0.9 0.9 0 0 0 -0.49 0 2.66 2.66 0 0 0 -0.58 0.34L9 4.82a8 8 0 0 0 -2.83 2.52 2.37 2.37 0 0 0 -0.25 0.75 0.35 0.35 0 0 0 -0.36 -0.09c-0.21 0 -0.73 0.06 -0.85 0.08a2.44 2.44 0 0 1 -0.54 0c-0.28 0 -0.57 0 -0.86 -0.08a0.24 0.24 0 0 0 -0.06 -0.21 0.19 0.19 0 0 1 0 -0.1c0 -0.1 0.1 -0.61 0.1 -0.92a0.69 0.69 0 0 0 -0.16 -0.49A3.69 3.69 0 0 0 2.53 6a0.62 0.62 0 0 1 -0.14 -0.14 0.91 0.91 0 0 1 0.06 -1 1.26 1.26 0 0 1 0.91 -0.6 1.09 1.09 0 0 1 0.85 0.36 1.07 1.07 0 0 1 0.39 0.86 0.25 0.25 0 0 1 0 0.09c-0.19 0.24 -0.48 0.42 -0.6 0.67a0.92 0.92 0 0 0 -0.1 0.45c0 0.2 0.09 0.41 0.1 0.64s0 0.38 0 0.5c0 0.23 0.24 0.23 0.41 0.16s0.23 0 0.26 -0.14a0.13 0.13 0 0 0 0 -0.06v-0.53l0 -0.57a0.19 0.19 0 0 1 0 -0.12c0.11 -0.19 0.37 -0.29 0.54 -0.46a1.05 1.05 0 0 0 0.29 -0.5A2.06 2.06 0 0 0 5 3.8 2.19 2.19 0 0 0 3.26 3a2.31 2.31 0 0 0 -1.78 1.2 1.87 1.87 0 0 0 0.18 2.14 1.39 1.39 0 0 0 0.34 0.33c0.16 0.07 0.33 0.1 0.46 0.15 -0.12 0.18 0.07 0.79 0.08 0.89s0 0.17 0 0.27a1.39 1.39 0 0 0 -0.66 0.13 0.75 0.75 0 0 0 -0.37 0.43 3.54 3.54 0 0 0 -0.18 0.87c-0.05 0.47 0 1 -0.07 1.43a4.85 4.85 0 0 0 -0.53 0.08 2.27 2.27 0 0 1 -0.45 0H0.23a0.17 0.17 0 0 0 -0.08 0.17c-0.07 0.16 -0.11 0.38 0.12 0.42a3.43 3.43 0 0 0 0.64 0h0.34a20.34 20.34 0 0 0 -0.15 2.36c0 1.34 0.11 2.7 0.14 4l0.14 3.24 0.06 0.95 0.05 0.4a2.13 2.13 0 0 0 0 0.22l-1 0c-0.13 0 -0.59 0.06 -0.8 0.07l-0.07 0a0.31 0.31 0 0 0 -0.3 0.25 0.31 0.31 0 0 0 0.16 0.4h1l1.49 0a9.4 9.4 0 0 1 0.94 0.08 45.91 45.91 0 0 0 4.73 0.52c1.41 0.06 2.83 0.06 4.24 0 0.95 0 1.89 0 2.82 -0.06l4.94 -0.24 1.65 0 0.7 0h0.23c0.35 -0.05 0.49 -0.19 0.47 -0.33s-0.12 -0.28 -0.47 -0.33H22l-0.7 0h-0.54a0.39 0.39 0 0 0 0.21 -0.33 4.12 4.12 0 0 0 0 -0.48l0 -0.89a12.88 12.88 0 0 0 0.15 -1.3c0 -0.64 0.06 -1.29 0.08 -1.91 0 -1.16 0.09 -2.35 0.08 -3.54a23.78 23.78 0 0 0 -0.16 -2.39 4.8 4.8 0 0 1 -0.05 -0.52h0.13l1.07 0h0.51c1.47 0 2 -0.17 1.85 -0.34 0.18 -0.27 -0.33 -0.45 -1.8 -0.45Zm-5 -3 0 -0.8c0.07 0 0.06 -0.21 0.06 -0.28a0.46 0.46 0 0 0 -0.13 -0.27 1.47 1.47 0 0 1 -0.06 -1.66 1.24 1.24 0 0 1 1.3 -0.8 0.44 0.44 0 0 1 0.22 0.14 1.78 1.78 0 0 1 0.27 0.38 2.59 2.59 0 0 1 0.32 1.13 0.93 0.93 0 0 1 -0.56 0.76A0.45 0.45 0 0 0 19 7c0 0.2 0.1 0.65 0.14 0.83s0.16 0.41 0.28 0.44c-0.54 0 -1.13 0.07 -1.47 0h-0.29a0.5 0.5 0 0 0 0.12 -0.37ZM2.35 9.48a2.44 2.44 0 0 1 0.06 -0.55c0.07 0 0.19 -0.08 0.29 -0.08l1.43 0a3.83 3.83 0 0 0 0.69 -0.08l0.82 -0.12 0.17 0 0.12 -0.09a2 2 0 0 0 1 1.3 2.08 2.08 0 0 0 0.43 0.19c0.2 0.07 0.41 0.11 0.59 0.16a0.3 0.3 0 0 0 0.38 -0.2 0.31 0.31 0 0 0 -0.21 -0.38l-0.53 -0.18a1.25 1.25 0 0 1 -0.28 -0.15c-0.68 -0.51 -0.71 -1 -0.41 -1.52a7 7 0 0 1 2.61 -2l1.53 -1.06c0.09 0 0.27 -0.09 0.31 -0.16a1 1 0 0 1 0.13 0.15c0.1 0.12 0.21 0.25 0.33 0.37a1.77 1.77 0 0 0 0.35 0.26 16.08 16.08 0 0 1 2.24 1.25 3.51 3.51 0 0 1 1.07 1.1 1.64 1.64 0 0 1 0.25 0.88 0.63 0.63 0 0 1 -0.32 0.62c-0.09 0 -0.35 0.13 -0.31 0.24a0.34 0.34 0 0 0 -0.26 0.33 0.35 0.35 0 0 0 0.35 0.35 0.59 0.59 0 0 0 0.25 -0.07c0.09 0 0.18 -0.17 0.26 -0.2a1.34 1.34 0 0 0 0.77 -0.95l0 -0.17a0.25 0.25 0 0 0 0.12 0.09 0.19 0.19 0 0 0 0.15 0l0.11 0 0.25 0.07 0.75 0.09c0.37 0.07 1.06 0 1.63 0.09a1.7 1.7 0 0 1 0.34 0.07c0.06 0 0.13 0 0.14 0.1a4.45 4.45 0 0 1 0.08 0.81l0 0.7 -1.92 -0.11c-2 0 -4 -0.08 -6 -0.08l-3.59 0c-0.79 0 -1.59 0.05 -2.39 0.07l-3.79 0.13c0.03 -0.39 -0.01 -0.84 0.01 -1.27Zm-0.48 12.91a0.31 0.31 0 0 0 -0.23 0 0.25 0.25 0 0 1 0.23 0Zm4.87 -0.07a0.34 0.34 0 0 0 -0.41 0.06c0.16 -0.16 0.3 -0.15 0.41 -0.06ZM6.29 18l0 -0.07a0.28 0.28 0 0 0 0.1 0.09V18Zm13.35 4.93h-3.35c0.07 -0.72 0.17 -1.44 0.18 -2.17l0 -1.44 -0.16 -1.16 0 -0.54c0 -0.17 -0.12 -0.2 -0.25 -0.17s-0.35 -0.08 -0.36 0.16 -0.1 0.47 -0.11 0.55l-0.15 1.16 0 1.47c0 0.72 0.18 1.42 0.26 2.13h-0.9l-4.11 0 -3.76 0a0.35 0.35 0 0 0 0.07 -0.31c0.08 0 0 -0.26 0 -0.3l0.1 -0.86c0 -0.43 0.08 -0.85 0.09 -1.28a4.52 4.52 0 0 0 0 -0.64c0 -0.22 -0.06 -0.43 -0.09 -0.65L6.89 18s0 -0.27 -0.06 -0.28 0 -0.06 0 -0.08a0.33 0.33 0 0 0 -0.07 -0.15 0.32 0.32 0 0 0 -0.55 0.25l0 0.38 -0.12 0.67c0 0.22 -0.07 0.43 -0.09 0.65s0 0.42 0 0.64c0 0.43 0.06 0.85 0.09 1.28l0.1 0.86a4.32 4.32 0 0 0 0.06 0.45 0.48 0.48 0 0 0 0.09 0.16c-1.11 0 -2.21 0 -3.3 -0.14l-0.78 0h-0.17v-0.05l0 -0.07 0.05 0.05a0.43 0.43 0 0 1 0 -0.05l0 -0.4v-0.95l0.14 -3.24 0 -1.09a2.34 2.34 0 0 0 0.46 0h1L7 17l3.87 0.2 1 0c0.47 0 0.93 -0.07 1.38 -0.12s0.93 -0.07 1.4 -0.08l2.19 0 1.94 0a5.28 5.28 0 0 0 0.89 -0.11l0.58 0 0 1.15 0 1.88a12 12 0 0 1 -0.06 1.22l0 1c0 0.06 -0.07 0.33 0 0.37a0.37 0.37 0 0 0 0.09 0.34 0.54 0.54 0 0 0 0.15 0.09ZM2.37 16.7Zm18.12 5.55a0.29 0.29 0 0 1 0.36 0.08 0.35 0.35 0 0 0 -0.36 -0.08ZM20 12.2c0.06 0.57 0.09 1.15 0.11 1.72 0 0.74 0.06 1.48 0.07 2.22h-0.7a3.84 3.84 0 0 1 -0.76 0c-0.64 0 -1.29 -0.11 -1.93 -0.13 -0.84 0 -1.7 -0.1 -2.56 -0.1a10.85 10.85 0 0 0 -1.14 0c-0.42 0 -0.87 0.08 -1.31 0.09a5.58 5.58 0 0 1 -0.82 0L9 16l-2 0 -3.28 0 -1.16 0.1a1.07 1.07 0 0 1 -0.24 0l-0.09 0 0.09 0c0 -0.08 -0.09 -0.12 -0.1 0l0 -0.62 0 -2.29c0 -0.59 0 -1.17 0.09 -1.74l3.82 0.13c1.6 0 3.19 0.06 4.79 0.06l2.87 0 4.3 -0.12H20l0 0.68Z" fill="#020202" stroke-width="1"></path>
    <path d="M6 13.1a1.69 1.69 0 0 0 -1 -0.58 1.68 1.68 0 0 0 -1.45 0.6 1.89 1.89 0 0 0 -0.43 1.37 4.21 4.21 0 0 0 0.12 0.9c0.08 0.21 0.21 0.29 0.32 0.29a0.3 0.3 0 0 0 0.33 -0.27 0.28 0.28 0 0 0 0 -0.18c0.17 -0.05 0.08 -0.66 0.09 -0.74a1 1 0 0 1 0.4 -0.63 0.64 0.64 0 0 1 0.53 -0.19 0.73 0.73 0 0 1 0.47 0.29 1.61 1.61 0 0 1 0.4 0.6c0 0.15 0.05 0.64 0.08 0.82a1.42 1.42 0 0 0 0.06 0.22 0.36 0.36 0 0 0 0.35 0.17 0.35 0.35 0 0 0 0.29 -0.25 0.37 0.37 0 0 0 0 -0.18c0.17 0 0.06 -0.72 0.06 -0.87A2.36 2.36 0 0 0 6 13.1Z" fill="#020202" stroke-width="1"></path>
    <path d="M7.8 12.5a0.3 0.3 0 0 0 -0.16 -0.32c-0.15 -0.13 -0.38 -0.08 -0.48 0.31 0 0.16 0 0.59 -0.06 0.64a3.94 3.94 0 0 0 0 0.69c0 0.22 0.08 0.42 0.11 0.64a5.39 5.39 0 0 0 0.11 0.64c0.09 0.21 0.19 0.32 0.29 0.33a0.35 0.35 0 0 0 0.39 -0.18 0.36 0.36 0 0 0 0.06 -0.3c0.09 -0.08 0.08 -0.43 0.1 -0.49a3.64 3.64 0 0 0 0.05 -0.73 5.32 5.32 0 0 0 -0.16 -0.73s-0.11 -0.53 -0.25 -0.5Z" fill="#4C57E6" stroke-width="1"></path>
    <path d="M13.15 14.08a2.11 2.11 0 0 0 -0.6 -1.26 1.85 1.85 0 0 0 -1.38 -0.57 1.89 1.89 0 0 0 -1.21 0.57 2.85 2.85 0 0 0 -0.73 1.61 3.33 3.33 0 0 0 0.09 1.1c0.11 0.22 0.26 0.3 0.42 0.25a0.3 0.3 0 0 0 0.24 -0.35 0.33 0.33 0 0 0 -0.05 -0.12c0.13 -0.09 0.07 -0.62 0.1 -0.7a2.48 2.48 0 0 1 0.55 -0.85 1 1 0 0 1 0.69 -0.36 0.8 0.8 0 0 1 0.58 0.19 1.18 1.18 0 0 1 0.45 0.59 4.43 4.43 0 0 0 0.23 1 0.42 0.42 0 0 0 0.38 0.26 0.34 0.34 0 0 0 0.34 -0.34 0.33 0.33 0 0 0 -0.08 -0.22c0.15 -0.15 -0.02 -0.72 -0.02 -0.8Z" fill="#020202" stroke-width="1"></path>
    <path d="M14.72 12.47a0.3 0.3 0 1 0 -0.57 0.2 6.93 6.93 0 0 1 -0.13 0.88 3.22 3.22 0 0 0 0.05 0.63c0 0.11 0.15 0.53 0.19 0.7l0 0.06a0.29 0.29 0 0 0 0.19 0.28 0.32 0.32 0 0 0 0.5 -0.3v-0.08c0 -0.16 0.12 -0.56 0.14 -0.66a2.7 2.7 0 0 0 0.05 -0.41 1.64 1.64 0 0 0 0 -0.44 2.54 2.54 0 0 0 -0.42 -0.86Z" fill="#4C57E6" stroke-width="1"></path>
    <path d="M19.06 13.57a1.7 1.7 0 0 0 -1.3 -0.77 1.47 1.47 0 0 0 -1.44 0.73 3.83 3.83 0 0 0 -0.24 0.78 2.65 2.65 0 0 0 0 0.85c0 0.07 0 0.5 0.14 0.59a0.32 0.32 0 0 0 0.34 0.11 0.3 0.3 0 0 0 0.23 -0.36l0 -0.08c0.07 0 0 -0.23 0 -0.26a2.07 2.07 0 0 1 0.18 -0.58 2.57 2.57 0 0 1 0.34 -0.52c0.08 -0.13 0.25 -0.11 0.4 -0.1s0.43 0 0.54 0.17a2.06 2.06 0 0 1 0.33 0.53 2.11 2.11 0 0 1 0.18 0.64 0.34 0.34 0 0 0 0.68 0 2.92 2.92 0 0 0 -0.05 -0.88 2.78 2.78 0 0 0 -0.33 -0.85Z" fill="#020202" stroke-width="1"></path>
  </g>
</svg>