<svg xmlns="http://www.w3.org/2000/svg" viewBox="0 0 24 24" id="Landmark-Wat-Phra-Kaew--Streamline-Freehand">
  <desc>
    Landmark Wat Phra Kaew Streamline Icon: https://streamlinehq.com
  </desc>
  <title>landmark-wat-phra-kaew</title>
  <g>
    <path d="M14.32 10.15a8.53 8.53 0 0 1 -1 -1.94 8.18 8.18 0 0 1 -0.27 -0.88 4.08 4.08 0 0 1 -0.51 0c-0.28 0 -0.55 0.08 -0.83 0.1h-0.33l-0.49 -0.07c-0.08 0 -0.54 0.08 -0.54 0a0.17 0.17 0 0 1 -0.12 0l0 0.24a8.37 8.37 0 0 1 -0.81 2.08 5.42 5.42 0 0 1 -0.26 0.48 7.76 7.76 0 0 1 1.06 -0.31 7.63 7.63 0 0 1 4.1 0.3Z" fill="none" stroke-width="1"></path>
    <path d="M11.35 6.37a2.23 2.23 0 0 1 0.36 0 8.46 8.46 0 0 1 0.88 0.08l0.28 0.06c-0.26 -1.13 -0.43 -2.28 -0.61 -3.31a8.92 8.92 0 0 0 -0.38 -1.44 4.69 4.69 0 0 0 -0.21 -0.54 0.59 0.59 0 0 0 -0.35 0.27 9.58 9.58 0 0 0 -0.22 1.37l-0.7 3.88 0.42 -0.15a3.62 3.62 0 0 1 0.53 -0.22Z" fill="none" stroke-width="1"></path>
    <path d="M9.49 19.19c1.66 -0.08 3.31 -0.18 5 -0.24l3.57 0a5 5 0 0 1 0.57 0.05c0.33 0 0.64 0.1 0.95 0.16l-1.16 -1.86a15.66 15.66 0 0 1 -0.81 -2.77 3.46 3.46 0 0 0 -0.45 -0.95 6.29 6.29 0 0 0 -3 -2.28 6.64 6.64 0 0 0 -3.71 -0.3 5.25 5.25 0 0 0 -3.39 2 9.4 9.4 0 0 0 -1.6 3.89 3.85 3.85 0 0 1 -0.34 1 6.11 6.11 0 0 1 -0.83 1.24 1.6 1.6 0 0 1 -0.29 0.27l-0.14 0.1 2.31 -0.16c1.14 -0.02 2.23 -0.09 3.32 -0.15Zm-3 -3.4a0.31 0.31 0 0 1 0.41 -0.12 22.2 22.2 0 0 0 3.23 -0.16c0.47 0 1 0 1.45 -0.06h1.46c1.8 0 3.3 0.07 3.41 0.08a0.34 0.34 0 0 1 0.34 0.34 0.35 0.35 0 0 1 -0.34 0.35c-0.11 0 -1.65 0.2 -3.48 0.32 -0.75 0.05 -1.56 0.09 -2.33 0.08a15.81 15.81 0 0 1 -4 -0.42 0.3 0.3 0 0 1 -0.12 -0.41Z" fill="none" stroke-width="1"></path>
    <path d="M11.67 1.16s-0.07 -0.07 -0.1 0 0.04 0.01 0.1 0Z" fill="none" stroke-width="1"></path>
    <path d="M21.31 20.13c0 -0.05 0 -0.06 -0.1 -0.06s0.08 0.12 0.1 0.06Z" fill="none" stroke-width="1"></path>
    <path d="M20.61 20.16 18 19.93c-1.37 0 -2.74 0.11 -4.11 0.19s-2.75 0.16 -4.13 0.2l-3.58 0 -3 0c-0.06 0 -0.25 0 -0.43 0.05a5.65 5.65 0 0 1 0 1.22c0 0.1 0 0.81 0.07 1.14 0.08 0 0.11 0.06 0 0.09a0.38 0.38 0 0 1 0 0.15c1.46 0 3.65 -0.1 6.06 -0.17 1.71 0 3.52 -0.06 5.26 -0.07l7.2 0c0 -0.52 0.06 -1.13 0 -1.71a2.83 2.83 0 0 0 -0.19 -1.06 5.36 5.36 0 0 0 -0.54 0.2Z" fill="none" stroke-width="1"></path>
    <path d="M2.81 22.84Z" fill="none" stroke-width="1"></path>
    <path d="m2.81 22.78 -0.08 0a0.34 0.34 0 0 1 0.08 0.09v-0.06Z" fill="none" stroke-width="1"></path>
    <path d="M2.81 22.78v0.06c0.11 0 0.08 -0.03 0 -0.06Z" fill="#020202" stroke-width="1"></path>
    <path d="M10.67 16.62c0.77 0 1.58 0 2.33 -0.08 1.83 -0.12 3.37 -0.32 3.48 -0.32a0.35 0.35 0 0 0 0.34 -0.35 0.34 0.34 0 0 0 -0.34 -0.34c-0.11 0 -1.61 -0.06 -3.41 -0.08h-1.46c-0.49 0 -1 0 -1.45 0.06a22.2 22.2 0 0 1 -3.23 0.16 0.31 0.31 0 0 0 -0.41 0.12 0.3 0.3 0 0 0 0.12 0.41 15.81 15.81 0 0 0 4.03 0.42Z" fill="#4C57E6" stroke-width="1"></path>
    <path d="M23 22.86h-0.89a17.78 17.78 0 0 0 0.09 -2.09 2.87 2.87 0 0 0 -0.25 -1.15 0.63 0.63 0 0 0 -0.46 -0.3 2.72 2.72 0 0 0 -0.64 0 0.39 0.39 0 0 0 -0.12 -0.14c-0.11 -0.09 -0.4 -0.47 -0.52 -0.36l-1.07 -1.87a15.22 15.22 0 0 1 -0.63 -2.66 4.26 4.26 0 0 0 -0.58 -1.29 7.22 7.22 0 0 0 -2.16 -2.14 0.41 0.41 0 0 0 -0.07 -0.11A6.87 6.87 0 0 1 14.17 8a30.89 30.89 0 0 1 -0.82 -5 7.13 7.13 0 0 0 -0.82 -2.52 1 1 0 0 0 -1.14 -0.43 1.64 1.64 0 0 0 -1.12 0.95A9.21 9.21 0 0 0 10 2.58c-0.06 0.33 -0.12 0.66 -0.17 1 -0.17 1.28 -0.24 2.6 -0.43 3.87a7.69 7.69 0 0 1 -0.61 1.93 11.64 11.64 0 0 1 -0.67 1.3 6.15 6.15 0 0 0 -1.87 1.75 10.11 10.11 0 0 0 -1.55 4.36 3 3 0 0 1 -0.32 1 6 6 0 0 1 -0.6 0.95l-0.49 0.43 -0.35 0.22a0.67 0.67 0 0 0 -0.14 0.15 2.85 2.85 0 0 0 -0.52 0 0.6 0.6 0 0 0 -0.3 0.14 0.83 0.83 0 0 0 -0.15 0.63c0.05 0.44 0.24 1.14 0.25 1.32s0.08 0.95 0.14 1.27a0.67 0.67 0 0 0 0.06 0.15A6.76 6.76 0 0 1 1.1 23a0.3 0.3 0 0 0 -0.38 0.2 0.29 0.29 0 0 0 0.2 0.37 63.1 63.1 0 0 0 8.87 0.43c1.74 0 3.56 0 5.27 -0.09 4.14 -0.14 7.63 -0.36 7.89 -0.36a0.35 0.35 0 0 0 0 -0.69Zm-1.64 -2.73c0 0.06 -0.07 0 -0.1 -0.06s0.07 0.01 0.05 0.06Zm-9.64 -19 -0.1 0c0.02 0 0.01 -0.02 0.05 0.03Zm-0.62 1.68a9.58 9.58 0 0 1 0.22 -1.37 0.59 0.59 0 0 1 0.35 -0.27 4.69 4.69 0 0 1 0.21 0.54 8.92 8.92 0 0 1 0.38 1.44c0.18 1 0.35 2.18 0.61 3.31l-0.28 -0.06a8.46 8.46 0 0 0 -0.88 -0.08 2.23 2.23 0 0 0 -0.36 0 3.62 3.62 0 0 0 -0.53 0.17l-0.42 0.15ZM9.43 9.68a8.37 8.37 0 0 0 0.81 -2.08l0 -0.24a0.17 0.17 0 0 0 0.12 0c0 0.13 0.46 0 0.54 0l0.49 0.07h0.33c0.28 0 0.55 -0.07 0.83 -0.1a4.08 4.08 0 0 0 0.51 0 8.18 8.18 0 0 0 0.27 0.88 8.53 8.53 0 0 0 1 1.94 7.63 7.63 0 0 0 -4.09 -0.3 7.76 7.76 0 0 0 -1.06 0.31 5.42 5.42 0 0 0 0.25 -0.48ZM4 19.4a1.6 1.6 0 0 0 0.26 -0.26 6.11 6.11 0 0 0 0.83 -1.24 3.85 3.85 0 0 0 0.34 -1A9.4 9.4 0 0 1 7.06 13a5.25 5.25 0 0 1 3.39 -2 6.64 6.64 0 0 1 3.71 0.3 6.29 6.29 0 0 1 3 2.28 3.46 3.46 0 0 1 0.45 0.95 15.66 15.66 0 0 0 0.81 2.77l1.16 1.86c-0.31 -0.06 -0.62 -0.12 -0.95 -0.16a5 5 0 0 0 -0.57 -0.05l-3.57 0c-1.65 0.06 -3.3 0.16 -5 0.24 -1.09 0.06 -2.18 0.13 -3.29 0.15l-2.31 0.16Zm17.33 3.44 -7.2 0c-1.74 0 -3.55 0 -5.26 0.07 -2.41 0.07 -4.6 0.15 -6.06 0.17a0.38 0.38 0 0 0 0 -0.15 0.34 0.34 0 0 0 -0.08 -0.09l0.08 0c0 -0.33 -0.07 -1 -0.07 -1.14a5.65 5.65 0 0 0 0 -1.22c0.18 0 0.37 -0.05 0.43 -0.05l3 0 3.58 0c1.38 0 2.76 -0.13 4.13 -0.2s2.77 -0.23 4.12 -0.3l2.59 0.23a5.36 5.36 0 0 1 0.59 -0.09 2.83 2.83 0 0 1 0.19 1.06c0.05 0.58 0 1.19 -0.01 1.71Z" fill="#020202" stroke-width="1"></path>
  </g>
</svg>