<svg xmlns="http://www.w3.org/2000/svg" viewBox="0 0 24 24" id="Laptop-Action-Clock--Streamline-Freehand">
  <desc>
    Laptop Action Clock Streamline Icon: https://streamlinehq.com
  </desc>
  <g>
    <path d="M8.11 11.16a0.31 0.31 0 0 0 0.34 -0.51c-1.34 -0.92 -2 -4.2 -0.44 -6.26A5.12 5.12 0 0 1 16 4c2.53 3 1 7.52 -3.42 8a5.88 5.88 0 0 1 -2.43 -0.18 0.35 0.35 0 0 0 -0.21 0.66 6.6 6.6 0 0 0 2.72 0.29 5.78 5.78 0 0 0 4.24 -9.53 6 6 0 0 0 -9.66 0.6c-1.7 2.52 -0.83 6.22 0.87 7.32Z" fill="#020202" fill-rule="evenodd" stroke-width="1"></path>
    <path d="M15 8a0.34 0.34 0 1 0 0 -0.69 9.53 9.53 0 0 1 -2.18 -0.23c0 -0.1 -0.43 -2.59 -0.44 -2.68a0.31 0.31 0 1 0 -0.61 0 18.32 18.32 0 0 0 -0.14 2.52c0 0.35 0.07 0.83 0.36 1 0.93 0.6 2.01 0.16 3.01 0.08Z" fill="#020202" fill-rule="evenodd" stroke-width="1"></path>
    <path d="M3.31 17.46c-0.91 -2 -2.37 -10 -2.12 -10.71 0.08 -0.2 0.07 -0.36 0.2 -0.5 0.4 -0.45 2.49 -0.9 3.09 -1a0.34 0.34 0 1 0 -0.11 -0.68c-3.7 0.5 -3.75 1 -4.11 1.79 -0.68 1.49 0.94 8.32 2.5 11.37a0.31 0.31 0 0 0 0.55 -0.27Z" fill="#4C57E6" fill-rule="evenodd" stroke-width="1"></path>
    <path d="M19.6 5.2c3.61 0.65 3.06 1.9 2.9 4 -0.65 8.45 -1.46 8.57 -0.81 8.74a0.34 0.34 0 0 0 0.43 -0.24c0.65 -2.25 2.17 -9.19 1.37 -11.28A3.4 3.4 0 0 0 22 5.19a8.56 8.56 0 0 0 -2.3 -0.59 0.3 0.3 0 0 0 -0.1 0.6Z" fill="#4C57E6" fill-rule="evenodd" stroke-width="1"></path>
    <path d="M24 19.05c-0.22 -0.91 -2.33 -0.86 -2 -0.12a0.34 0.34 0 0 0 0.44 0.2 1.15 1.15 0 0 1 0.9 0.08 2.87 2.87 0 0 1 -1.2 2.32c-0.29 0.14 -16.06 0.53 -20 -0.06 -0.63 -0.65 -1.14 -2.09 -1 -2.06 14.5 -1.07 19.93 0.12 20 -0.59a0.42 0.42 0 0 0 -0.42 -0.36c-2.25 -0.18 -16.51 -0.78 -19.6 -0.13a1.41 1.41 0 0 0 -0.93 0.52c-0.54 1 0.31 2.65 1.06 3.43 1.26 1.3 20.78 0.18 21.19 0A3.54 3.54 0 0 0 24 19.05Z" fill="#020202" fill-rule="evenodd" stroke-width="1"></path>
  </g>
</svg>