<svg xmlns="http://www.w3.org/2000/svg" viewBox="0 0 24 24" id="Laptop-Action-Upload--Streamline-Freehand">
  <desc>
    Laptop Action Upload Streamline Icon: https://streamlinehq.com
  </desc>
  <g>
    <path d="M0.57 11.27a30.74 30.74 0 0 0 2.19 6.56 0.31 0.31 0 0 0 0.55 -0.27C2.34 15.46 1 7.45 1.19 6.85c0.08 -0.19 0.07 -0.35 0.2 -0.5a9.2 9.2 0 0 1 3.09 -1 0.34 0.34 0 0 0 -0.11 -0.68C0.66 5.11 0.62 5.69 0.26 6.47s0.1 3.84 0.31 4.8Z" fill="#4C57E6" fill-rule="evenodd" stroke-width="1"></path>
    <path d="M19.6 5.31c3.6 0.64 3.06 1.89 2.9 4a72 72 0 0 1 -1.05 8.31 0.34 0.34 0 1 0 0.66 0.18 47 47 0 0 0 1.39 -6.61c0.13 -1.06 0.37 -3.68 0 -4.67A3.43 3.43 0 0 0 22 5.3a7.18 7.18 0 0 0 -2.27 -0.59 0.3 0.3 0 0 0 -0.13 0.6Z" fill="#4C57E6" fill-rule="evenodd" stroke-width="1"></path>
    <path d="M24 19.15c-0.16 -0.64 -1.2 -0.81 -1.85 -0.56a0.34 0.34 0 1 0 0.24 0.64 1.21 1.21 0 0 1 0.9 0.08 2.85 2.85 0 0 1 -1.2 2.32c-0.32 0.16 -16.18 0.51 -20 -0.06 -0.58 -0.59 -1.17 -2.1 -1 -2.05 1.14 -0.09 5.21 -0.64 17.7 -0.4 1.22 0 2.28 0.16 2.33 -0.2a0.44 0.44 0 0 0 -0.42 -0.36c-2.2 -0.17 -16.5 -0.78 -19.6 -0.13a1.41 1.41 0 0 0 -0.93 0.57c-0.54 1 0.32 2.66 1.06 3.43 1.26 1.3 20.79 0.17 21.19 0A3.54 3.54 0 0 0 24 19.15Z" fill="#020202" fill-rule="evenodd" stroke-width="1"></path>
    <path d="M13.31 1.17a0.31 0.31 0 0 0 0 0.61c1.59 0.07 3.77 2.39 3.58 4.85a4.91 4.91 0 0 1 -6.25 4.46C7 10 5.89 5.53 9.23 2.8a5.58 5.58 0 0 1 2.06 -1.11 0.35 0.35 0 1 0 -0.17 -0.69 6.5 6.5 0 0 0 -2.37 1.19 5.6 5.6 0 0 0 1.51 10 5.84 5.84 0 0 0 7.57 -5.52c0.08 -2.93 -2.56 -5.49 -4.52 -5.5Z" fill="#020202" fill-rule="evenodd" stroke-width="1"></path>
    <path d="M11.78 9c0.11 0.46 0 0.68 0.3 0.75 0.52 0.1 0.42 -0.88 0.47 -1.53a8.05 8.05 0 0 0 -0.13 -2.37 4.27 4.27 0 0 0 0 -0.83 5.62 5.62 0 0 1 1.47 1.66 0.31 0.31 0 0 0 0.56 -0.25A6.43 6.43 0 0 0 13 4.11a1.59 1.59 0 0 0 -1.82 -0.41 1.92 1.92 0 0 0 -0.54 0.7 7 7 0 0 0 -0.82 2.08 1.26 1.26 0 0 0 0 0.38 0.34 0.34 0 0 0 0.69 0 5.07 5.07 0 0 1 1 -1.73A7.46 7.46 0 0 0 11.78 9Z" fill="#020202" fill-rule="evenodd" stroke-width="1"></path>
  </g>
</svg>