<svg xmlns="http://www.w3.org/2000/svg" viewBox="0 0 24 24" id="Laptop-Action-Download--Streamline-Freehand">
  <desc>
    Laptop Action Download Streamline Icon: https://streamlinehq.com
  </desc>
  <g>
    <path d="M0.57 11.27a30.74 30.74 0 0 0 2.19 6.56 0.31 0.31 0 0 0 0.55 -0.27C2.34 15.46 1 7.45 1.19 6.85c0.08 -0.19 0.07 -0.35 0.2 -0.49 0.4 -0.45 2.49 -0.9 3.09 -1a0.34 0.34 0 0 0 -0.11 -0.68C0.66 5.11 0.62 5.69 0.26 6.47s0.1 3.83 0.31 4.8Z" fill="#4C57E6" fill-rule="evenodd" stroke-width="1"></path>
    <path d="M19.6 5.31c3.6 0.64 3.06 1.89 2.9 4a70.58 70.58 0 0 1 -1.05 8.31 0.34 0.34 0 0 0 0.66 0.19c0.69 -2.22 2.18 -9.19 1.38 -11.29A3.45 3.45 0 0 0 22 5.3a7.25 7.25 0 0 0 -2.27 -0.59 0.3 0.3 0 0 0 -0.13 0.6Z" fill="#4C57E6" fill-rule="evenodd" stroke-width="1"></path>
    <path d="M24 19.15c-0.16 -0.64 -1.2 -0.81 -1.85 -0.56a0.35 0.35 0 0 0 0.24 0.65 1.17 1.17 0 0 1 0.9 0.07 2.85 2.85 0 0 1 -1.2 2.32c-0.32 0.16 -16.18 0.51 -20 -0.06 -0.58 -0.59 -1.17 -2.1 -1 -2.05 1.14 -0.09 5.21 -0.64 17.7 -0.4 1.22 0 2.28 0.16 2.33 -0.19a0.45 0.45 0 0 0 -0.42 -0.37c-2.29 -0.18 -16.46 -0.79 -19.6 -0.12a1.37 1.37 0 0 0 -0.93 0.56c-0.54 1 0.32 2.66 1.06 3.43 1.24 1.29 20.77 0.19 21.19 0A3.54 3.54 0 0 0 24 19.15Z" fill="#020202" fill-rule="evenodd" stroke-width="1"></path>
    <path d="M10.26 12.2a5.84 5.84 0 0 0 7.57 -5.52c0.08 -2.94 -2.56 -5.5 -4.52 -5.51a0.31 0.31 0 0 0 0 0.61c1.59 0.07 3.77 2.39 3.58 4.85a4.91 4.91 0 0 1 -6.25 4.46C7 10 5.89 5.53 9.23 2.8a5.73 5.73 0 0 1 2.06 -1.11 0.35 0.35 0 0 0 -0.17 -0.69 6.42 6.42 0 0 0 -2.37 1.19 5.6 5.6 0 0 0 1.51 10.01Z" fill="#020202" fill-rule="evenodd" stroke-width="1"></path>
    <path d="M11.68 7.1a4.13 4.13 0 0 0 0 0.83 5.56 5.56 0 0 1 -1.46 -1.66 0.31 0.31 0 0 0 -0.56 0.25 6.29 6.29 0 0 0 1.37 2.32c0.47 0.44 1.28 0.79 1.82 0.41a1.81 1.81 0 0 0 0.53 -0.7 6.94 6.94 0 0 0 0.83 -2.08 2.63 2.63 0 0 0 0 -0.38 0.34 0.34 0 0 0 -0.69 0 5.28 5.28 0 0 1 -1 1.74 7.49 7.49 0 0 0 -0.2 -3.83c-0.11 -0.45 0 -0.68 -0.3 -0.74 -0.53 -0.11 -0.42 0.87 -0.47 1.52a8.05 8.05 0 0 0 0.13 2.32Z" fill="#020202" fill-rule="evenodd" stroke-width="1"></path>
  </g>
</svg>