<svg xmlns="http://www.w3.org/2000/svg" viewBox="0 0 24 24" id="Laptop-Action-Approve--Streamline-Freehand">
  <desc>
    Laptop Action Approve Streamline Icon: https://streamlinehq.com
  </desc>
  <g>
    <path d="M7.67 11.18a0.31 0.31 0 1 0 0.33 -0.51c-1.2 -0.84 -1.49 -2.92 -1.25 -4.32A5 5 0 1 1 16.43 9c-1.1 2.66 -4.38 3.56 -6.71 2.83a0.35 0.35 0 0 0 -0.22 0.66c2.72 0.94 6.47 0 7.85 -3.09A6 6 0 1 0 5.93 6.23c-0.2 1.64 0.26 4 1.74 4.95Z" fill="#020202" fill-rule="evenodd" stroke-width="1"></path>
    <path d="M10.42 9.43a1.13 1.13 0 0 0 0.86 -0.43 11.17 11.17 0 0 0 1 -1.28c0.27 -0.45 1.58 -3.09 1.58 -3.18a0.36 0.36 0 0 0 -0.66 -0.17c-0.52 0.62 -2.31 3.36 -2.71 4 0 0.09 0 0.19 -0.11 0.17 -0.39 -0.16 -0.6 -0.64 -1 -0.87 -0.19 -0.12 -0.59 0.18 -0.36 0.52 0.39 0.56 0.71 1.2 1.4 1.24Z" fill="#020202" fill-rule="evenodd" stroke-width="1"></path>
    <path d="M0.57 11.15a30.74 30.74 0 0 0 2.19 6.56 0.31 0.31 0 0 0 0.55 -0.27C2.34 15.34 1 7.32 1.19 6.73c0.08 -0.2 0.07 -0.35 0.2 -0.5a9.2 9.2 0 0 1 3.09 -1 0.34 0.34 0 0 0 -0.11 -0.68C0.66 5 0.62 5.57 0.26 6.34s0.1 3.84 0.31 4.81Z" fill="#4C57E6" fill-rule="evenodd" stroke-width="1"></path>
    <path d="M19.6 5.19c3.6 0.64 3.06 1.89 2.9 4a70.76 70.76 0 0 1 -1.05 8.32 0.34 0.34 0 1 0 0.66 0.18 47 47 0 0 0 1.39 -6.61c0.13 -1.06 0.37 -3.68 0 -4.67A3.51 3.51 0 0 0 22 5.17a7.52 7.52 0 0 0 -2.27 -0.58 0.3 0.3 0 0 0 -0.13 0.6Z" fill="#4C57E6" fill-rule="evenodd" stroke-width="1"></path>
    <path d="M24 19c-0.16 -0.64 -1.2 -0.82 -1.85 -0.56a0.34 0.34 0 1 0 0.24 0.64 1.16 1.16 0 0 1 0.9 0.08 2.86 2.86 0 0 1 -1.2 2.32c-0.32 0.16 -16.18 0.51 -20 -0.06 -0.58 -0.59 -1.17 -2.1 -1 -2.06 1.14 -0.08 5.21 -0.63 17.7 -0.39 1.22 0 2.28 0.16 2.33 -0.2a0.45 0.45 0 0 0 -0.42 -0.36c-2.29 -0.18 -16.46 -0.79 -19.6 -0.13a1.41 1.41 0 0 0 -0.93 0.52c-0.54 1 0.32 2.66 1.06 3.43 1.24 1.28 20.77 0.18 21.19 0A3.54 3.54 0 0 0 24 19Z" fill="#020202" fill-rule="evenodd" stroke-width="1"></path>
  </g>
</svg>