<svg xmlns="http://www.w3.org/2000/svg" viewBox="0 0 24 24" id="Laptop-Action-Subtract--Streamline-Freehand">
  <desc>
    Laptop Action Subtract Streamline Icon: https://streamlinehq.com
  </desc>
  <g>
    <path d="M0.57 11.53a30.74 30.74 0 0 0 2.19 6.56 0.31 0.31 0 0 0 0.55 -0.27C2.34 15.72 1 7.7 1.19 7.11c0.08 -0.19 0.07 -0.35 0.2 -0.49 0.4 -0.45 2.49 -0.9 3.09 -1a0.34 0.34 0 0 0 -0.11 -0.68C0.66 5.37 0.62 6 0.26 6.73s0.1 3.84 0.31 4.8Z" fill="#4C57E6" fill-rule="evenodd" stroke-width="1"></path>
    <path d="M19.6 5.57c3.6 0.64 3.06 1.89 2.9 4a70.58 70.58 0 0 1 -1.05 8.31 0.34 0.34 0 1 0 0.66 0.19 47.48 47.48 0 0 0 1.39 -6.62c0.13 -1.06 0.37 -3.67 0 -4.67A3.49 3.49 0 0 0 22 5.56 7.25 7.25 0 0 0 19.7 5a0.3 0.3 0 0 0 -0.1 0.57Z" fill="#4C57E6" fill-rule="evenodd" stroke-width="1"></path>
    <path d="M24 19.41c-0.15 -0.63 -1.2 -0.82 -1.85 -0.56a0.35 0.35 0 0 0 0.24 0.65 1.17 1.17 0 0 1 0.9 0.07 2.84 2.84 0 0 1 -1.2 2.32c-0.32 0.16 -16.17 0.51 -20 -0.06 -0.58 -0.59 -1.17 -2.1 -1 -2 1.14 -0.09 5.19 -0.64 17.7 -0.4 1.22 0 2.28 0.16 2.33 -0.19a0.43 0.43 0 0 0 -0.42 -0.37c-2.29 -0.23 -16.46 -0.87 -19.6 -0.17a1.37 1.37 0 0 0 -0.93 0.51c-0.54 1 0.32 2.66 1.06 3.43 1.24 1.29 20.77 0.19 21.19 0A3.54 3.54 0 0 0 24 19.41Z" fill="#020202" fill-rule="evenodd" stroke-width="1"></path>
    <path d="M8.27 10.47a0.3 0.3 0 1 0 0.34 -0.5C7.3 9.05 6.72 5.91 8.2 4a4.91 4.91 0 0 1 7.67 -0.4c2.43 2.88 1 7.23 -3.28 7.74a5.59 5.59 0 0 1 -2.34 -0.17 0.35 0.35 0 0 0 -0.21 0.66 6.47 6.47 0 0 0 2.63 0.29 5.6 5.6 0 0 0 4.1 -9.26 5.83 5.83 0 0 0 -9.34 0.59c-1.65 2.38 -0.8 5.96 0.84 7.02Z" fill="#020202" fill-rule="evenodd" stroke-width="1"></path>
    <path d="M11.7 7.14A31.85 31.85 0 0 1 15 7.1a0.35 0.35 0 0 0 0.15 -0.68 8.77 8.77 0 0 0 -5.86 0.09 0.31 0.31 0 1 0 0.11 0.6c0.7 -0.04 1.48 0.02 2.3 0.03Z" fill="#020202" fill-rule="evenodd" stroke-width="1"></path>
  </g>
</svg>