<svg xmlns="http://www.w3.org/2000/svg" viewBox="0 0 24 24" id="Laptop-Action-Search--Streamline-Freehand">
  <desc>
    Laptop Action Search Streamline Icon: https://streamlinehq.com
  </desc>
  <g>
    <path d="M0.57 11.52a30.44 30.44 0 0 0 2.19 6.55 0.3 0.3 0 0 0 0.55 -0.26C2.34 15.71 1 7.69 1.19 7.1c0.08 -0.2 0.07 -0.36 0.2 -0.5 0.4 -0.45 2.49 -0.9 3.09 -1a0.34 0.34 0 0 0 -0.11 -0.68C0.66 5.36 0.62 5.93 0.26 6.71s0.1 3.83 0.31 4.81Z" fill="#4C57E6" fill-rule="evenodd" stroke-width="1"></path>
    <path d="M19.6 5.55c3.6 0.64 3.06 1.9 2.9 4a72.41 72.41 0 0 1 -1.05 8.32 0.34 0.34 0 1 0 0.66 0.18 47.17 47.17 0 0 0 1.39 -6.62c0.13 -1.05 0.37 -3.67 0 -4.66A3.51 3.51 0 0 0 22 5.54 7.76 7.76 0 0 0 19.7 5a0.3 0.3 0 1 0 -0.1 0.55Z" fill="#4C57E6" fill-rule="evenodd" stroke-width="1"></path>
    <path d="M24 19.4c-0.15 -0.64 -1.2 -0.82 -1.85 -0.57a0.35 0.35 0 0 0 0.24 0.65 1.12 1.12 0 0 1 0.9 0.08 2.87 2.87 0 0 1 -1.2 2.32c-0.32 0.16 -16.18 0.51 -20 -0.06 -0.58 -0.59 -1.17 -2.1 -1 -2.06 1.14 -0.08 5.21 -0.63 17.7 -0.39 1.22 0 2.28 0.16 2.33 -0.2a0.45 0.45 0 0 0 -0.42 -0.36c-2.2 -0.17 -16.5 -0.78 -19.6 -0.13a1.41 1.41 0 0 0 -0.93 0.52c-0.54 1 0.32 2.66 1.06 3.43 1.26 1.29 20.78 0.17 21.19 0A3.55 3.55 0 0 0 24 19.4Z" fill="#020202" fill-rule="evenodd" stroke-width="1"></path>
    <path d="M8.11 7.79c-0.88 -0.89 -0.92 -3.45 0.53 -4.8a3.93 3.93 0 0 1 6.07 0.74 3.7 3.7 0 0 1 -3.62 5.64 4.6 4.6 0 0 1 -1.83 -0.44 0.34 0.34 0 0 0 -0.32 0.61 5.18 5.18 0 0 0 6.56 -1.26c0.8 0.78 2.38 2.37 2.71 3.44 0 0.08 0.09 0.16 0 0.22A0.36 0.36 0 0 1 18 12a2.85 2.85 0 0 1 -1.33 -0.66c-1.58 -1.12 -1.71 -1.53 -2 -1.21a0.31 0.31 0 0 0 0 0.43c0.51 0.56 1.15 1.22 1.69 1.71a2.44 2.44 0 0 0 1.91 0.86 1.26 1.26 0 0 0 1.08 -1.77 7.77 7.77 0 0 0 -1.94 -2.45c-0.12 -0.1 -1.38 -1.15 -1.53 -1.21a4.82 4.82 0 0 0 -0.13 -4.54A4.85 4.85 0 0 0 8 2.32c-1.72 1.77 -1.51 4.81 -0.31 5.91a0.3 0.3 0 0 0 0.42 -0.44Z" fill="#020202" fill-rule="evenodd" stroke-width="1"></path>
    <path d="M13.17 5.52a2 2 0 0 0 -0.32 -1.88A2 2 0 0 0 11 3c-0.09 0 -0.5 0.15 -0.55 0.25s-0.14 0.28 0 0.41 1.14 0 1.57 0.39a1.25 1.25 0 0 1 0.45 1.27 0.35 0.35 0 0 0 0.7 0.2Z" fill="#020202" fill-rule="evenodd" stroke-width="1"></path>
  </g>
</svg>