<svg xmlns="http://www.w3.org/2000/svg" viewBox="0 0 24 24" id="Laundry-Hand-Wash--Streamline-Freehand">
  <desc>
    Laundry Hand Wash Streamline Icon: https://streamlinehq.com
  </desc>
  <g>
    <path d="M23.59 1.65h-0.09s0.09 0.04 0.09 0Z" fill="#020202" fill-rule="evenodd" stroke-width="1"></path>
    <path d="M4 8.54a0.31 0.31 0 0 0 0.31 0 5.9 5.9 0 0 0 0.51 3.11 5 5 0 0 0 2.5 2.71 2.07 2.07 0 0 0 1.77 -0.14 2 2 0 0 0 1 -1.51 5.35 5.35 0 0 0 0 -1 2.63 2.63 0 0 0 0.79 0 2.21 2.21 0 0 0 1.38 -0.79 3 3 0 0 0 0.38 -1.26 5.57 5.57 0 0 0 0 -1.08 4.87 4.87 0 0 1 0 -1.37s0.47 -1 0.53 -1.12h0.23a2.58 2.58 0 0 1 1.44 0.58A2.15 2.15 0 0 1 15.42 8c0.06 0.38 0 0.93 0.09 1.39a1.72 1.72 0 0 0 0.31 0.76 2.46 2.46 0 0 0 1.73 0.93 3.12 3.12 0 0 0 1.84 -0.41 2.1 2.1 0 0 0 0.95 -1.07 4 4 0 0 0 0.11 -1.93 12.39 12.39 0 0 1 -0.16 -2.27 3.36 3.36 0 0 1 0.36 -1.4 4 4 0 0 1 0.87 -1.1 9.25 9.25 0 0 1 1.18 -0.87 3.21 3.21 0 0 1 0.74 -0.46l0.14 0a0.31 0.31 0 0 0 0.29 -0.31 0.37 0.37 0 0 0 -0.5 -0.27 10 10 0 0 0 -1 0.46 8.63 8.63 0 0 0 -1.53 1.12A4.54 4.54 0 0 0 20 3.7a3.89 3.89 0 0 0 -0.49 1.63 13 13 0 0 0 0.09 2.41 4.07 4.07 0 0 1 0 1.31 1.24 1.24 0 0 1 -0.66 0.83 2.16 2.16 0 0 1 -1.29 0.25 1.51 1.51 0 0 1 -1.05 -0.59 0.94 0.94 0 0 1 -0.12 -0.49l0 -1.19a3.16 3.16 0 0 0 -0.95 -2 3.65 3.65 0 0 0 -2 -0.89 3.74 3.74 0 0 0 -0.75 0 2.14 2.14 0 0 0 -0.56 0.11 5.64 5.64 0 0 0 -0.71 0.31 7.47 7.47 0 0 0 -0.64 0.4 5 5 0 0 0 -1.68 1.89 4.76 4.76 0 0 0 -0.43 2.5c0.05 0.5 0.14 1 0.18 1.49a4.51 4.51 0 0 1 0 0.9 0.83 0.83 0 0 1 -0.42 0.65 0.9 0.9 0 0 1 -0.8 0.07 4 4 0 0 1 -2 -2.09 4.72 4.72 0 0 1 -0.44 -2.93 8.85 8.85 0 0 1 2.58 -4.11 10.69 10.69 0 0 1 4.22 -2.51c0.39 -0.12 1 -0.36 1.63 -0.5a2.22 2.22 0 0 1 1 -0.06 0.34 0.34 0 0 0 0.43 -0.22 0.35 0.35 0 0 0 -0.23 -0.43 2.56 2.56 0 0 0 -1 0 17.33 17.33 0 0 0 -2 0.53 11.48 11.48 0 0 0 -4.6 2.6A9.72 9.72 0 0 0 4.4 8a0.26 0.26 0 0 0 -0.13 -0.1 2.11 2.11 0 0 1 -1.12 -1.46 3.78 3.78 0 0 1 0.07 -2 3.4 3.4 0 0 1 1.16 -1.56A8.76 8.76 0 0 1 6.2 1.74 9.26 9.26 0 0 1 10.44 0.68a0.3 0.3 0 0 0 0.35 -0.24 0.29 0.29 0 0 0 -0.25 -0.34 9.56 9.56 0 0 0 -5.66 1.07 5.09 5.09 0 0 0 -2.67 3 4.71 4.71 0 0 0 0.11 2.49A2.85 2.85 0 0 0 4 8.54Zm19.32 -7.11ZM10.23 8.16a3.84 3.84 0 0 1 1.24 -1.5l0.53 -0.31a5 5 0 0 0 -0.25 0.57 3.15 3.15 0 0 0 -0.18 0.82 14.37 14.37 0 0 0 0 1.47 2.37 2.37 0 0 1 -0.19 1.15 1.2 1.2 0 0 1 -0.66 0.51A1.66 1.66 0 0 1 10 11l-0.12 -0.93a3.78 3.78 0 0 1 0.35 -1.91Z" fill="#020202" fill-rule="evenodd" stroke-width="1"></path>
    <path d="M24 18.31a0.41 0.41 0 0 0 -0.55 -0.35 1.85 1.85 0 0 0 -0.65 0.39 10.22 10.22 0 0 1 -1.67 1.43 2.65 2.65 0 0 1 -1.63 0.11 8.19 8.19 0 0 1 -1.96 -0.89 6.24 6.24 0 0 0 -2.31 -1 2.63 2.63 0 0 0 -1.12 0.1 7.17 7.17 0 0 0 -1.71 0.9 3.5 3.5 0 0 1 -1.4 0.59 3.43 3.43 0 0 1 -0.77 0 1.77 1.77 0 0 1 -0.67 -0.19c-0.46 -0.27 -0.85 -0.71 -1.31 -1a2.16 2.16 0 0 0 -0.87 -0.31 4.15 4.15 0 0 0 -2.48 0.74 6.9 6.9 0 0 1 -1.9 0.95 1.45 1.45 0 0 1 -1.39 -0.5 4.4 4.4 0 0 0 -0.79 -0.68 0.46 0.46 0 0 0 -0.55 0.08 0.74 0.74 0 0 0 -0.15 0.32c0 0.29 0 1 -0.06 1.26a12.57 12.57 0 0 0 0 1.4c0 0.7 0.06 1.43 0.11 2a0.29 0.29 0 0 0 0.28 0.34 0.3 0.3 0 0 0 0.28 -0.32l0 -2a12.62 12.62 0 0 1 0.08 -1.31 4.56 4.56 0 0 1 0.14 -0.57 0.3 0.3 0 0 1 0.08 0.07 2.26 2.26 0 0 0 2.14 0.82 7.74 7.74 0 0 0 2.25 -1 3.09 3.09 0 0 1 1.85 -0.53 1.19 1.19 0 0 1 0.44 0.17c0.45 0.29 0.84 0.74 1.29 1a2.6 2.6 0 0 0 0.88 0.31 4.74 4.74 0 0 0 1.27 0.08c1.07 -0.11 2 -0.94 3 -1.4a1.79 1.79 0 0 1 1 -0.21 5.41 5.41 0 0 1 1.93 0.74 8.87 8.87 0 0 0 2.22 1 3.56 3.56 0 0 0 2.22 -0.21 2.6 2.6 0 0 0 0.61 -0.41c0.35 -0.31 0.74 -0.77 1.08 -1.1l0 1.23 0 3.24a0.34 0.34 0 1 0 0.68 0l0.08 -3.25 0 -1.83c0.03 -0.08 0.03 -0.17 0.03 -0.21Z" fill="#4C57E6" fill-rule="evenodd" stroke-width="1"></path>
  </g>
</svg>