<svg xmlns="http://www.w3.org/2000/svg" viewBox="0 0 24 24" id="Layers-Front--Streamline-Freehand">
  <desc>
    Layers Front Streamline Icon: https://streamlinehq.com
  </desc>
  <g>
    <path d="M5.05 15.36c-0.49 -0.17 -1 -0.37 -1.47 -0.5a4.66 4.66 0 0 0 -0.65 -0.12l-0.66 0c-0.43 0 -0.85 0 -1.27 0.09 0.06 -1.56 0.18 -3.11 0.26 -4.67 0.06 -1.1 0.11 -2.2 0.12 -3.31 0 -1.85 -0.09 -3.69 -0.17 -5.53a0.35 0.35 0 0 0 -0.7 0C0.4 2.89 0.22 4.48 0.11 6.09 0.06 6.78 0 7.47 0 8.16l0 2.08c0 1.62 0.1 3.23 0.19 4.85a0.37 0.37 0 0 0 0.18 0.3 0.39 0.39 0 0 0 0.31 0.22c0.49 0.1 1 0.24 1.46 0.34l0.63 0.12 0.64 0.05c0.53 0 1 -0.05 1.54 -0.07a0.35 0.35 0 0 0 0.39 -0.29 0.35 0.35 0 0 0 -0.29 -0.4Z" fill="#4C57E6" fill-rule="evenodd" stroke-width="1"></path>
    <path d="M1.52 1.39A52 52 0 0 0 7 1.8l2.18 0c1.09 0 2.17 -0.08 3.25 -0.12s2.16 -0.34 3.27 -0.41a6.83 6.83 0 0 1 0.9 0l0 2.25a0.39 0.39 0 0 0 0.37 0.42 0.39 0.39 0 0 0 0.42 -0.36c0.07 -0.61 0.18 -1.89 0.23 -2.45a0.83 0.83 0 0 0 -0.36 -0.76 5.71 5.71 0 0 0 -1.63 -0.18c-1.11 0 -2.35 0.2 -3.29 0.2 -1.25 0 -2.51 0.07 -3.78 0.13S6.05 0.68 4.8 0.71l-3.22 0A0.35 0.35 0 0 0 1.2 1a0.36 0.36 0 0 0 0.32 0.39Z" fill="#4C57E6" fill-rule="evenodd" stroke-width="1"></path>
    <path d="M21.52 22c-2.06 0.17 -4.13 0.35 -6.21 0.46 -1.38 0.08 -2.76 0.13 -4.13 0.13a15.19 15.19 0 0 1 -3 -0.19 5.26 5.26 0 0 1 -1.55 -0.53 27.68 27.68 0 0 1 0.2 -3.34l0 -3.83c-0.08 -2.95 -0.26 -5.9 -0.34 -8.86a0.35 0.35 0 1 0 -0.69 0c-0.07 2.54 -0.07 5.07 -0.1 7.6 0 1.68 -0.06 3.36 -0.17 5 0 0.19 -0.24 2 -0.23 3.09a2.45 2.45 0 0 0 0.15 1 0.86 0.86 0 0 0 0.28 0.33 5.71 5.71 0 0 0 2.22 0.83 16.2 16.2 0 0 0 3.31 0.12c1.39 -0.06 2.78 -0.17 4.18 -0.31 2.08 -0.2 4.16 -0.46 6.21 -0.71a0.4 0.4 0 0 0 0.35 -0.44 0.39 0.39 0 0 0 -0.48 -0.35Z" fill="#020202" fill-rule="evenodd" stroke-width="1"></path>
    <path d="M23.79 9.24A16.48 16.48 0 0 0 23.32 6c-0.23 -0.72 -0.7 -1.06 -1.05 -1.07l-4.54 0c-3.51 0.12 -7 0.41 -10.51 0.58a0.36 0.36 0 0 0 -0.34 0.36 0.35 0.35 0 0 0 0.36 0.34l9 0c7.65 0 6 -1 6.25 3.17 0.19 2.45 0.37 4.92 0.5 7.4 0.08 1.64 0.14 3.29 0.15 4.93a0.41 0.41 0 0 0 0.39 0.4 0.39 0.39 0 0 0 0.4 -0.39c0.06 -1.65 0.07 -3.31 0 -5 0.07 -2.52 -0.05 -5.01 -0.14 -7.48Z" fill="#020202" fill-rule="evenodd" stroke-width="1"></path>
    <path d="M12.06 7.13a15.68 15.68 0 0 0 -1.71 0.93c-0.23 0.15 -0.46 0.3 -0.68 0.47s-0.42 0.34 -0.62 0.52c-0.47 0.44 -0.88 0.91 -1.34 1.35a0.35 0.35 0 1 0 0.39 0.6 16 16 0 0 0 2 -1.06 10 10 0 0 0 1 -0.82c0.49 -0.43 0.93 -0.89 1.43 -1.3a0.4 0.4 0 0 0 0.11 -0.55 0.39 0.39 0 0 0 -0.58 -0.14Z" fill="#020202" fill-rule="evenodd" stroke-width="1"></path>
    <path d="M17.17 8.22C16 9 14.89 9.69 13.79 10.47c-0.47 0.33 -0.94 0.67 -1.4 1s-0.91 0.73 -1.34 1.11c-1 0.9 -2 1.86 -2.92 2.83a0.35 0.35 0 0 0 0.46 0.53c1.08 -0.82 2.18 -1.58 3.26 -2.37 0.46 -0.34 0.91 -0.7 1.36 -1s0.9 -0.72 1.34 -1.09c1 -0.86 2 -1.74 3.09 -2.6a0.4 0.4 0 0 0 0.08 -0.55 0.39 0.39 0 0 0 -0.55 -0.11Z" fill="#020202" fill-rule="evenodd" stroke-width="1"></path>
    <path d="M20.27 10c-1.45 1.24 -3 2.4 -4.43 3.6 -1 0.8 -2 1.62 -2.92 2.48a57.09 57.09 0 0 0 -4.45 4.61 0.36 0.36 0 0 0 0 0.49 0.35 0.35 0 0 0 0.5 0c1.39 -1.31 2.87 -2.49 4.32 -3.7 1 -0.82 1.94 -1.64 2.89 -2.49 1.58 -1.41 3.11 -2.89 4.62 -4.41a0.38 0.38 0 0 0 0 -0.55 0.4 0.4 0 0 0 -0.53 -0.03Z" fill="#020202" fill-rule="evenodd" stroke-width="1"></path>
    <path d="M17.71 17.26c-0.31 0.29 -0.61 0.58 -0.9 0.88 -0.69 0.72 -1.31 1.47 -2 2.2a0.35 0.35 0 0 0 0 0.49 0.34 0.34 0 0 0 0.49 0c0.8 -0.6 1.6 -1.16 2.37 -1.79 0.32 -0.26 0.64 -0.54 0.95 -0.83s0.6 -0.58 0.89 -0.89c0.69 -0.71 1.34 -1.44 2 -2.15a0.4 0.4 0 0 0 -0.53 -0.59c-0.79 0.61 -1.57 1.2 -2.33 1.83 -0.31 0.29 -0.65 0.59 -0.94 0.85Z" fill="#020202" fill-rule="evenodd" stroke-width="1"></path>
  </g>
</svg>