<svg xmlns="http://www.w3.org/2000/svg" viewBox="0 0 24 24" id="Layouts-Column--Streamline-Freehand">
  <desc>
    Layouts Column Streamline Icon: https://streamlinehq.com
  </desc>
  <g>
    <path d="M23.73 2a1.65 1.65 0 0 0 -0.44 -1 4.91 4.91 0 0 0 -2.75 -0.58 6.33 6.33 0 0 0 -2.78 0.58 1.35 1.35 0 0 0 -0.35 0.65 21.47 21.47 0 0 0 -0.36 3.87c-0.18 5.07 0.07 13.39 0.24 16.74a0.3 0.3 0 0 0 0.32 0.29 0.29 0.29 0 0 0 0.29 -0.31c0 -2.53 -0.07 -7.88 0.06 -12.52 0.07 -2.66 0.18 -5.1 0.36 -6.62 0.16 -1.36 0.21 -1.57 2.69 -1.47a3.35 3.35 0 0 1 1.46 0.28c-0.18 0.12 0.18 0.68 0.23 1.29 0.13 1.57 0.13 4.08 0.07 6.79 -0.11 5.56 -0.45 12 -0.58 12.76 0 0.13 -0.11 0.21 -0.23 0.28a2.93 2.93 0 0 1 -0.9 0.24 16.44 16.44 0 0 1 -2.66 -0.05 0.35 0.35 0 0 0 -0.07 0.69 12.45 12.45 0 0 0 3.29 0c0.76 -0.14 1.26 -0.51 1.36 -1.06 0.15 -0.91 0.81 -9 0.94 -15A35.68 35.68 0 0 0 23.73 2Z" fill="#020202" fill-rule="evenodd" stroke-width="1"></path>
    <path d="M15.12 0.79A4.89 4.89 0 0 0 12.37 0.2a6.18 6.18 0 0 0 -2.78 0.54 1.76 1.76 0 0 0 -0.42 0.91 44.4 44.4 0 0 0 -0.53 6C8.4 13 8.4 20.19 8.55 23.13a0.33 0.33 0 0 0 0.27 0.33 24.64 24.64 0 0 0 4.15 0.18 3.39 3.39 0 0 0 1.34 -0.34 1 1 0 0 0 0.51 -0.68c0.16 -0.91 0.81 -9 0.94 -15a35.39 35.39 0 0 0 -0.2 -5.88 1.65 1.65 0 0 0 -0.44 -0.95Zm-0.52 8.94c-0.11 5.56 -0.46 12 -0.58 12.76 0 0.14 -0.2 0.18 -0.4 0.24a5.21 5.21 0 0 1 -1.29 0.18 25.46 25.46 0 0 1 -3.18 -0.12c0 -2.67 0.11 -8.12 0.37 -12.87 0.16 -2.81 0.36 -5.37 0.59 -7 0 0 0.29 -1.35 0.54 -1.4a9.53 9.53 0 0 1 2.2 -0.17 3.41 3.41 0 0 1 1.46 0.28c-0.18 0.12 0.17 0.68 0.22 1.29 0.13 1.59 0.13 4.08 0.07 6.81Z" fill="#020202" fill-rule="evenodd" stroke-width="1"></path>
    <path d="M6.71 0.59A4.91 4.91 0 0 0 4 0a6.33 6.33 0 0 0 -2.82 0.54 1.72 1.72 0 0 0 -0.41 0.86 39.35 39.35 0 0 0 -0.54 5.69C0 12.08 0 18.74 0.16 21.67a0.3 0.3 0 0 0 0.31 0.33 0.32 0.32 0 0 0 0.3 -0.32c-0.06 -2.52 0.08 -7.83 0.34 -12.43 0.15 -2.65 0.36 -5.06 0.58 -6.57 0 -0.14 0.31 -1.26 0.54 -1.31a9.68 9.68 0 0 1 2.2 -0.16 3.44 3.44 0 0 1 1.49 0.29 9.31 9.31 0 0 1 0.2 1.28c0.13 1.57 0.12 4.08 0.06 6.78 -0.11 5.57 -0.46 12 -0.58 12.77 0 0.15 -0.19 0.21 -0.39 0.28a5.15 5.15 0 0 1 -1.21 0.17 27 27 0 0 1 -3.45 -0.1 0.35 0.35 0 0 0 -0.42 0.32 0.34 0.34 0 0 0 0.32 0.37 22.47 22.47 0 0 0 4.14 0.13c1 -0.12 1.72 -0.52 1.82 -1.08 0.16 -0.91 0.81 -9 0.94 -15a35.52 35.52 0 0 0 -0.2 -5.89 1.65 1.65 0 0 0 -0.44 -0.94Z" fill="#020202" fill-rule="evenodd" stroke-width="1"></path>
  </g>
</svg>