<svg xmlns="http://www.w3.org/2000/svg" viewBox="0 0 24 24" id="Layouts-Top-Horizontal-Vertical-Split--Streamline-Freehand">
  <desc>
    Layouts Top Horizontal Vertical Split Streamline Icon: https://streamlinehq.com
  </desc>
  <path d="M23.92 11.81a61.25 61.25 0 0 0 -0.86 -9.68 1.5 1.5 0 0 0 -1 -0.75 32.94 32.94 0 0 0 -7.87 -0.84 59.86 59.86 0 0 0 -11.76 0.65 2.52 2.52 0 0 0 -1.35 0.6C0.3 2.7 0 7.37 0 12a59.06 59.06 0 0 0 0.63 9.2 2.13 2.13 0 0 0 0.55 1.22 10.16 10.16 0 0 0 3.25 0.65 91.79 91.79 0 0 0 12.43 0.3 22.78 22.78 0 0 0 5.38 -0.76 2 2 0 0 0 1.42 -1.1c0.34 -1.21 0.41 -5.51 0.26 -9.7ZM1.57 2.18a3.83 3.83 0 0 1 1.85 -0.52A61.18 61.18 0 0 1 12 1.27a56.55 56.55 0 0 1 8.57 0.73 6.63 6.63 0 0 1 1.36 0.38 1.25 1.25 0 0 1 0.25 0.15 66.18 66.18 0 0 1 0.65 9.36c0 0.85 0 1.71 0.05 2.54 -2.06 -0.1 -4.7 -0.17 -7.48 -0.18l-3.15 0 0 -2.09c-0.05 -1.6 -0.13 -3.16 -0.21 -4.58l2.26 0c3 -0.06 5.65 -0.14 7.36 -0.08a0.29 0.29 0 0 0 0.31 -0.27 0.29 0.29 0 0 0 -0.27 -0.32c-1.92 -0.18 -5.07 -0.37 -8.46 -0.41l-5.07 0c-2.82 0.08 -5.43 0.23 -7.29 0.33 0.05 -2.31 0.27 -4.12 0.69 -4.65Zm21 19c0 0.07 -0.11 0.1 -0.22 0.15a3.63 3.63 0 0 1 -0.86 0.32 34.68 34.68 0 0 1 -6.89 0.69 93.91 93.91 0 0 1 -10.53 -0.3 9.74 9.74 0 0 1 -2.33 -0.38 5.21 5.21 0 0 1 -0.26 -0.86A68.67 68.67 0 0 1 0.78 10l0 -2.49 7.12 0h3.35c0 1.43 -0.09 3 -0.12 4.59l0 2.11 -2.13 0.11c-3 0.13 -5.7 0.34 -7.5 0.45a0.3 0.3 0 0 0 -0.29 0.3 0.29 0.29 0 0 0 0.31 0.28c2 0 5.16 0.07 8.57 0l1.09 0 0 1.31c0.05 1.92 0.14 3.74 0.17 5.29a0.29 0.29 0 0 0 0.58 0c0.12 -1.55 0.26 -3.38 0.32 -5.3l0 -1.34 3 -0.08c2.84 -0.08 5.56 -0.2 7.68 -0.22a31.92 31.92 0 0 1 -0.35 6.21Z" fill="#020202" fill-rule="evenodd" stroke-width="1"></path>
</svg>