<svg xmlns="http://www.w3.org/2000/svg" viewBox="0 0 24 24" id="Learning-Creativity--Streamline-Freehand">
  <desc>
    Learning Creativity Streamline Icon: https://streamlinehq.com
  </desc>
  <g>
    <path d="M19.33 13a1.65 1.65 0 0 0 1.16 -1.29 2.92 2.92 0 0 0 -0.11 -1.35 9.51 9.51 0 0 0 -0.75 -1.58c-0.26 -0.47 -0.51 -0.94 -0.78 -1.4 -0.17 -0.27 -0.35 -0.55 -0.54 -0.81a2.26 2.26 0 0 0 0.29 -1 3.16 3.16 0 0 0 -0.76 -2 6.23 6.23 0 0 0 -3.21 -2 0.33 0.33 0 0 0 -0.1 0.47 4.32 4.32 0 0 1 0.34 0.72 1 1 0 0 1 0.06 0.42c0 0.75 -0.46 1.45 -0.48 2.18a2.44 2.44 0 0 0 0.32 1.21 2.18 2.18 0 0 0 1.56 1.08l0.26 1.76a15.58 15.58 0 0 0 0.35 1.87 3.35 3.35 0 0 0 0.72 1.31 1.63 1.63 0 0 0 1.67 0.41Zm-3.5 -7.14a1.26 1.26 0 0 1 -0.24 -0.81 17.22 17.22 0 0 0 0.19 -1.9 1.24 1.24 0 0 0 0 -0.27 5.27 5.27 0 0 1 1 0.94 2.33 2.33 0 0 1 0.62 1.64 0.89 0.89 0 0 1 -0.62 0.85 0.87 0.87 0 0 1 -0.95 -0.42Zm2.07 5.26a9.58 9.58 0 0 1 -0.9 -3.9 1.72 1.72 0 0 0 0.71 -0.4c0.12 0.23 0.37 0.57 0.48 0.81 0.27 0.55 0.48 1 0.72 1.55a9 9 0 0 1 0.56 1.66 2.51 2.51 0 0 1 0 1 0.45 0.45 0 0 1 -0.76 0.22 3.41 3.41 0 0 1 -0.81 -0.91Z" fill="#020202" fill-rule="evenodd" stroke-width="1"></path>
    <path d="M20.82 18.23c-0.18 -0.08 -0.39 -0.14 -0.57 -0.21a3.37 3.37 0 0 0 0.09 -2.53 2 2 0 0 0 -0.69 -0.85 2.18 2.18 0 0 0 -1 -0.36 2.48 2.48 0 0 0 -0.77 0.06 5.89 5.89 0 0 0 -0.7 0.26 1.94 1.94 0 0 0 -0.37 -0.73 1.61 1.61 0 0 0 -2.25 -0.36 2.67 2.67 0 0 0 -0.74 0.79 4.07 4.07 0 0 0 -0.55 1.43c0 0.21 -0.06 0.42 -0.08 0.63s0 0.43 0 0.64a2.75 2.75 0 0 0 0.51 1.57 1.67 1.67 0 0 0 1.38 0.65 1.66 1.66 0 0 0 -0.27 1.51 2.28 2.28 0 0 0 1.37 1.45 4.81 4.81 0 0 0 2.25 0.2 4.91 4.91 0 0 0 2.11 -0.82 2.81 2.81 0 0 0 1.1 -1.73 1.5 1.5 0 0 0 -0.5 -1.39 1.06 1.06 0 0 0 -0.32 -0.21Zm-0.1 1.65a1.94 1.94 0 0 1 -0.76 0.84 4.23 4.23 0 0 1 -1.7 0.58 4.12 4.12 0 0 1 -1.79 -0.05 1.39 1.39 0 0 1 -0.95 -0.77 1.1 1.1 0 0 1 0.89 -1.48 0.32 0.32 0 0 0 0.23 -0.39 0.31 0.31 0 0 0 -0.39 -0.23l-1 0.12a0.9 0.9 0 0 1 -0.83 -0.42A1.79 1.79 0 0 1 14.2 17l0.13 -1.07a3.21 3.21 0 0 1 0.31 -0.9 2.21 2.21 0 0 1 0.52 -0.71 0.75 0.75 0 0 1 1.05 0.07 1 1 0 0 1 0.2 1.26 0.29 0.29 0 0 0 0.05 0.4 0.28 0.28 0 0 0 0.4 -0.05 1.41 1.41 0 0 0 0.35 -0.78c0.21 0 0.42 -0.08 0.64 -0.1a1.58 1.58 0 0 1 0.61 0.08 1.37 1.37 0 0 1 0.54 0.31 1.56 1.56 0 0 1 0.5 0.75 3 3 0 0 1 0 1.83c-0.16 0.4 0.29 0.41 0.91 0.73a0.67 0.67 0 0 1 0.19 0.14 0.81 0.81 0 0 1 0.12 0.92Z" fill="#020202" fill-rule="evenodd" stroke-width="1"></path>
    <path d="M11.77 14a1.63 1.63 0 0 0 -0.54 -0.63 2.12 2.12 0 0 0 -1.74 -0.2 3.31 3.31 0 0 0 -1.84 1.43 2.06 2.06 0 0 0 -0.29 1.12 0.51 0.51 0 0 0 0 0.13 1.47 1.47 0 0 0 -0.59 0 3.17 3.17 0 0 0 -1.61 1.07 6.21 6.21 0 0 0 -1.06 1.83 2.6 2.6 0 0 0 -0.07 1.6 2.32 2.32 0 0 0 1.59 1.42 3 3 0 0 0 2 -0.11 2.35 2.35 0 0 0 0.38 -0.21 0.32 0.32 0 0 0 0.25 0.33 7.25 7.25 0 0 0 1.33 0.3 1.9 1.9 0 0 0 1.1 -0.29 1.82 1.82 0 0 0 0.75 -1.09 1.89 1.89 0 0 0 0 -0.75 3.83 3.83 0 0 0 -0.33 -0.95c-0.08 -0.15 -0.18 -0.32 -0.28 -0.47a1.42 1.42 0 0 0 0.92 -0.83A5.41 5.41 0 0 0 12 15a3.18 3.18 0 0 0 -0.23 -1ZM11 17.37a0.68 0.68 0 0 1 -0.92 0.43 0.32 0.32 0 0 0 -0.41 0.2 0.3 0.3 0 0 0 0.13 0.35 0.29 0.29 0 0 0 0.11 0.11 0.74 0.74 0 0 1 0.21 0.25 2.11 2.11 0 0 1 0.18 0.59 2.84 2.84 0 0 1 0.08 1 0.91 0.91 0 0 1 -0.38 0.7 0.92 0.92 0 0 1 -0.51 0.24 6 6 0 0 1 -1.19 -0.05 3.22 3.22 0 0 0 0.41 -0.58 0.32 0.32 0 0 0 -0.1 -0.45 0.32 0.32 0 0 0 -0.44 0.1 3.6 3.6 0 0 1 -0.39 0.47 1.31 1.31 0 0 1 -0.45 0.28A2 2 0 0 1 6 20.88a1.35 1.35 0 0 1 -0.87 -0.82 1.77 1.77 0 0 1 0.07 -1 6.27 6.27 0 0 1 0.77 -1.6 2.29 2.29 0 0 1 1.06 -1 0.76 0.76 0 0 1 0.77 0.12 0.29 0.29 0 0 0 0.4 0c0.17 -0.18 -0.2 -0.58 -0.2 -0.99a1.76 1.76 0 0 1 0.3 -0.59 2.45 2.45 0 0 1 1.18 -0.78 1.28 1.28 0 0 1 1.15 0.06 0.52 0.52 0 0 1 0.2 0.28 2.55 2.55 0 0 1 0.14 0.56 4.46 4.46 0 0 1 0.03 2.25Z" fill="#020202" fill-rule="evenodd" stroke-width="1"></path>
    <path d="M12.88 9.42A23 23 0 0 0 10.35 9a12.52 12.52 0 0 0 -1.73 0 5 5 0 0 0 -1.11 0.17 1.66 1.66 0 0 0 -0.51 0.37 1.22 1.22 0 0 0 -0.3 0.46 5.42 5.42 0 0 0 -0.1 0.74 3.41 3.41 0 0 1 -0.21 0.82 1.51 1.51 0 0 1 -0.15 0.28 5.06 5.06 0 0 0 -0.74 -0.77 0.3 0.3 0 0 0 -0.4 -0.07 0.31 0.31 0 0 0 -0.08 0.4 11.52 11.52 0 0 0 0.72 1.29 0.48 0.48 0 0 0 0.6 0.15 2.07 2.07 0 0 0 0.73 -0.65A3.57 3.57 0 0 0 7.61 11l0.14 -0.67a0.52 0.52 0 0 1 0.33 -0.13 5.47 5.47 0 0 1 0.65 -0.08 13.1 13.1 0 0 1 2 -0.13c0.69 0 1.39 0.06 2 0.12a0.33 0.33 0 0 0 0.37 -0.27 0.33 0.33 0 0 0 -0.22 -0.42Z" fill="#4C57E6" fill-rule="evenodd" stroke-width="1"></path>
    <path d="m6.12 5.8 2 0a0.34 0.34 0 0 0 0.35 -0.3 0.33 0.33 0 0 0 -0.3 -0.35c-0.64 -0.15 -1.28 -0.28 -1.93 -0.37l-0.81 -0.1 -0.83 0 -1.9 0a0.29 0.29 0 0 0 -0.12 0.56 12.65 12.65 0 0 0 2.2 0.55 9.94 9.94 0 0 0 1.34 0.01Z" fill="#020202" fill-rule="evenodd" stroke-width="1"></path>
    <path d="M6 3.14a0.86 0.86 0 1 0 -1.46 -0.89 0.78 0.78 0 0 0 0.23 1A0.83 0.83 0 0 0 6 3.14Z" fill="#020202" fill-rule="evenodd" stroke-width="1"></path>
    <path d="M5.87 8.21C6.4 7.12 4.45 6 4.24 7.47a1.07 1.07 0 0 0 0.18 0.71 0.92 0.92 0 0 0 0.42 0.33c0.54 0.19 0.88 0.01 1.03 -0.3Z" fill="#020202" fill-rule="evenodd" stroke-width="1"></path>
  </g>
</svg>