<svg xmlns="http://www.w3.org/2000/svg" viewBox="0 0 24 24" id="Legal-Judge--Streamline-Freehand">
  <desc>
    Legal Judge Streamline Icon: https://streamlinehq.com
  </desc>
  <title>legal-judge</title>
  <g>
    <path d="M23.23 23.51c-0.4 -0.73 -0.71 -1.5 -1.06 -2.25a10.06 10.06 0 0 0 -0.51 -1 8.66 8.66 0 0 0 -0.95 -1.3 8.79 8.79 0 0 0 -1 -0.9 2.21 2.21 0 0 0 -0.87 -0.43 0.28 0.28 0 0 0 -0.35 0.2 0.29 0.29 0 0 0 0.2 0.34 1.42 1.42 0 0 1 0.55 0.42 6.39 6.39 0 0 1 0.71 1c0.29 0.4 0.52 0.83 0.78 1.26s0.52 0.86 0.79 1.29a18.63 18.63 0 0 0 1.16 1.73 0.32 0.32 0 0 0 0.54 -0.34Z" fill="#020202" fill-rule="evenodd" stroke-width="1"></path>
    <path d="M17 18.55c-0.09 0.56 -0.06 0.65 -0.11 1.18s0 1.25 0 1.88a16.54 16.54 0 0 0 0.23 1.89 0.31 0.31 0 0 0 0.34 0.29 0.31 0.31 0 0 0 0.29 -0.34l0.18 -3.7c0 -0.6 0 -0.78 -0.05 -1.42 -0.06 -1 -0.53 -0.93 -0.75 -0.41a5.81 5.81 0 0 0 -0.13 0.63Z" fill="#4C57E6" fill-rule="evenodd" stroke-width="1"></path>
    <path d="M23.12 8.68a2.07 2.07 0 0 0 -0.45 -1.08 3 3 0 0 0 -2.52 -0.87 1.66 1.66 0 0 0 -0.74 0.36 11.42 11.42 0 0 0 -0.22 -1.66 7 7 0 0 0 -1.33 -2.85 7.49 7.49 0 0 0 -6 -2.58A7.62 7.62 0 0 0 6 2.77a7.59 7.59 0 0 0 -1.29 3.15 15.69 15.69 0 0 0 -0.23 2.9 1.51 1.51 0 0 0 -1.06 -0.66 2.31 2.31 0 0 0 -1.8 0.52 3.12 3.12 0 0 0 -0.86 2.72 3 3 0 0 0 1.55 2.28 1.36 1.36 0 0 0 -0.44 0.48 2.9 2.9 0 0 0 0.07 2.74 3.1 3.1 0 0 0 2.49 1.3 4 4 0 0 0 0.69 0c-0.26 0.33 -0.51 0.67 -0.75 1s-0.34 0.56 -0.49 0.85a8.11 8.11 0 0 0 -0.4 0.91A9.35 9.35 0 0 0 3 23.23a0.32 0.32 0 0 0 0.25 0.37 0.33 0.33 0 0 0 0.38 -0.25A7 7 0 0 1 4 22.19c0.16 -0.37 0.36 -0.73 0.55 -1.1s0.39 -0.73 0.57 -1.1c0.35 -0.71 0.66 -1.42 1 -2.11a4.51 4.51 0 0 0 1.15 -0.77c0.38 0.32 1.05 1 1.45 1.34a12.39 12.39 0 0 0 1.31 0.87l1.88 0.79a3.44 3.44 0 0 0 -0.19 0.9c-0.06 0.74 0.06 1.52 0.07 2.22a0.32 0.32 0 1 0 0.64 0c0.05 -0.58 0 -1.23 0.12 -1.85a2.94 2.94 0 0 1 0.3 -1 1 1 0 0 1 0.3 -0.28c0.27 -0.2 0.58 -0.38 0.78 -0.53s0.71 -0.53 1.09 -0.81 0.73 -0.54 1.11 -0.79 0.82 -0.51 0.82 -0.51c0.09 0 0.93 -0.46 0.93 -0.5a3 3 0 0 0 1.36 0.47A2.16 2.16 0 0 0 21 16.8a3.4 3.4 0 0 0 0.89 -2.68 1.72 1.72 0 0 0 -1.28 -1.47 0.31 0.31 0 0 0 -0.4 0.2 0.33 0.33 0 0 0 0.2 0.41 1.09 1.09 0 0 1 0.67 1.29 2.41 2.41 0 0 1 -0.78 1.5 1.3 1.3 0 0 1 -1.23 0.28 3 3 0 0 1 -1.35 -0.72 3.31 3.31 0 0 1 -0.45 -0.47 1.76 1.76 0 0 1 -0.31 -0.53 3.35 3.35 0 0 1 -0.22 -0.84c-0.21 -1.76 0.08 -1.3 0.05 -2.73A16.49 16.49 0 0 0 16.53 9a0.3 0.3 0 0 0 -0.22 -0.24 0.3 0.3 0 0 0 -0.21 -0.21 6.36 6.36 0 0 1 -1.7 -0.8A6.08 6.08 0 0 1 13 6.5c-0.24 -0.28 -0.46 -0.78 -0.74 -1.14a1.79 1.79 0 0 0 -0.65 -0.53 0.62 0.62 0 0 0 -0.44 0 0.64 0.64 0 0 0 -0.39 0.37c0 0.09 -0.49 1 -0.68 1.38A4.74 4.74 0 0 1 9 7.77a6.09 6.09 0 0 1 -1.31 0.71 0.29 0.29 0 0 0 -0.12 -0.07 0.29 0.29 0 0 0 -0.31 0.25A10.82 10.82 0 0 0 7.49 13l0.13 0.36a0.18 0.18 0 0 0 0 0.09 7.12 7.12 0 0 1 -0.3 1.76 3.18 3.18 0 0 1 -0.9 1.36 2.64 2.64 0 0 1 -1.9 0.55 2.22 2.22 0 0 1 -1.73 -0.77 2 2 0 0 1 -0.21 -1.84 12.12 12.12 0 0 1 2.11 -1 0.32 0.32 0 1 0 -0.07 -0.63c-0.38 0 -0.82 0.14 -1.23 0.16a1.09 1.09 0 0 1 -0.63 -0.04 2.14 2.14 0 0 1 -0.94 -1.7 2.25 2.25 0 0 1 0.47 -1.87 1.43 1.43 0 0 1 1 -0.47s1.06 -0.1 1.23 1.94a0.29 0.29 0 0 0 0.3 0.26 0.27 0.27 0 0 0 0.27 -0.29 17.88 17.88 0 0 1 0.34 -4.73 6.72 6.72 0 0 1 1.31 -2.78 6.72 6.72 0 0 1 5.17 -2.28 6.63 6.63 0 0 1 5.24 2.08 6.54 6.54 0 0 1 1.41 3.16 13.29 13.29 0 0 1 0.13 3.61 0.32 0.32 0 0 0 0.28 0.35 0.31 0.31 0 0 0 0.35 -0.28c0.15 -1.21 -0.06 -2.46 0.93 -2.53a2 2 0 0 1 1.61 0.78 1.19 1.19 0 0 1 0.21 0.74 3.35 3.35 0 0 1 -0.13 0.92 3.1 3.1 0 0 1 -0.94 1.65 2 2 0 0 1 -1.78 0.27 0.32 0.32 0 0 0 -0.4 0.22 0.32 0.32 0 0 0 0.22 0.39 2.65 2.65 0 0 0 2.46 -0.18 3.88 3.88 0 0 0 1.43 -2 3.62 3.62 0 0 0 0.19 -1.58Zm-15.34 0.38a6.86 6.86 0 0 0 1.62 -0.65 5.55 5.55 0 0 0 1.5 -1.27 4.71 4.71 0 0 0 0.33 -0.45 5.43 5.43 0 0 0 0.32 -0.51c0.26 0.34 0.48 0.75 0.72 1A7.38 7.38 0 0 0 14 8.42a7.61 7.61 0 0 0 1.91 0.69A13.88 13.88 0 0 1 16 11a5.56 5.56 0 0 1 -0.18 1.27 5.78 5.78 0 0 1 -0.65 1.5 3.93 3.93 0 0 1 -1 1.17 3.49 3.49 0 0 1 -2.24 0.62 3.59 3.59 0 0 1 -2.2 -0.75 5.12 5.12 0 0 1 -1.6 -2.74 10.47 10.47 0 0 1 -0.35 -3.01Zm0.11 6.76a5.29 5.29 0 0 0 0.23 -1.32A5.11 5.11 0 0 0 9 15.64a4.52 4.52 0 0 0 2.83 1 4.54 4.54 0 0 0 2.9 -0.88A5.08 5.08 0 0 0 16 14.27l0.09 -0.19a4 4 0 0 0 0.11 0.77 2.93 2.93 0 0 0 0.33 0.79 4.91 4.91 0 0 0 0.5 0.65 3.31 3.31 0 0 0 0.34 0.3 14.11 14.11 0 0 0 -2.07 0.88 18.21 18.21 0 0 0 -2 1.26 11 11 0 0 0 -0.92 0.69l-0.12 0.14 -1.66 -1.08c-0.26 -0.18 -0.5 -0.38 -0.76 -0.56L9 17.39c-0.48 -0.28 -1 -0.53 -1.47 -0.76a3.27 3.27 0 0 0 0.36 -0.81Z" fill="#020202" fill-rule="evenodd" stroke-width="1"></path>
    <path d="M6.74 19.57c0 0.5 0.07 1 0.13 1.51 0.09 0.75 0.22 1.49 0.28 2.23a0.31 0.31 0 0 0 0.31 0.32 0.31 0.31 0 0 0 0.32 -0.31 19.94 19.94 0 0 0 0.1 -2.57 14.93 14.93 0 0 0 -0.11 -1.49c-0.06 -0.51 -0.13 -1 -0.18 -1.52 -0.22 -0.42 -0.45 -0.54 -0.71 -0.13a12.83 12.83 0 0 0 -0.14 1.96Z" fill="#4C57E6" fill-rule="evenodd" stroke-width="1"></path>
  </g>
</svg>