<svg xmlns="http://www.w3.org/2000/svg" viewBox="0 0 24 24" id="Light-External-Flash--Streamline-Freehand">
  <desc>
    Light External Flash Streamline Icon: https://streamlinehq.com
  </desc>
  <g>
    <path d="M11.89 15.34a1.62 1.62 0 0 0 0.7 2.7A1.86 1.86 0 0 0 15 16.43c0.21 -1.87 -2.08 -2.2 -3.11 -1.09Zm2.23 0.94a0.89 0.89 0 0 1 -0.91 0.75l-0.44 -0.03a0.7 0.7 0 0 1 -0.2 -1.06c0.5 -0.75 1.79 -0.73 1.55 0.34Z" fill="#4C57E6" fill-rule="evenodd" stroke-width="1"></path>
    <path d="M12.18 0a40.28 40.28 0 0 0 -8.33 0.62L3.23 0.8a0.32 0.32 0 0 0 0 0.64 37.21 37.21 0 0 1 8.93 -0.61c5 0.13 6.91 0.6 7.8 0.94a1.06 1.06 0 0 1 0.49 0.49c0.27 0.56 -0.2 3.14 -0.39 3.9 -0.26 1.12 -0.49 3.62 -1.45 4 -1.12 0.48 -13 1.17 -14 0.25 -0.34 -0.56 -0.48 -1 -1.36 -5.93C2.85 0.73 3 1.49 3 1.39a0.29 0.29 0 0 0 -0.46 0c-0.34 0.51 0.83 8.05 1 8.47a2.2 2.2 0 0 0 1.09 1.43c0.33 0.14 0.25 0 0.25 0.14s0.06 1 0.11 1.5c0.82 5 0.53 4.07 0.72 5 0.29 1.44 1 1.88 2.4 2.27a11.13 11.13 0 0 0 0 2.4c0.2 0.81 1 1.11 1.81 1.26a14.85 14.85 0 0 0 2.59 0.06 1.46 1.46 0 0 0 0.65 -0.26c0.7 -0.51 0.74 -2.51 0.69 -3 1.78 -0.13 2.53 -0.81 3 -2.64 0 -0.08 1.55 -6.56 1.29 -6.82a2.71 2.71 0 0 0 2.08 -1.47 13.69 13.69 0 0 0 0.67 -3.27C21.92 1.56 23.41 0.05 12.18 0Zm0.55 22.3c-0.21 0.74 -0.14 0.64 -1.11 0.62a7.42 7.42 0 0 1 -2.62 -0.3c-0.54 -0.28 -0.29 -2.11 -0.29 -2.19a17.88 17.88 0 0 0 4.29 0.29 5.81 5.81 0 0 1 -0.27 1.58ZM17 13.71c-0.19 0.66 -0.41 1.3 -0.6 2 -0.59 2.07 -0.6 3.58 -2.1 3.89 -1.32 0.28 -6.73 0.13 -7.48 -1.06a9.69 9.69 0 0 1 -0.66 -2.84l-0.62 -2.81a5.21 5.21 0 0 0 -0.21 -1.36c4.58 0.63 12.29 -0.31 12.16 -0.13s-0.18 1.19 -0.49 2.31Z" fill="#020202" fill-rule="evenodd" stroke-width="1"></path>
    <path d="M7.1 8.35c0.52 -0.71 0.05 -0.28 1 0a10.42 10.42 0 0 0 3.11 0c3.93 -0.1 3.93 -0.08 4.34 -0.21 1.08 0.67 1.08 1.11 2.4 1.74 0.52 0.34 0.93 -0.19 0.66 -0.53 -0.45 -0.44 -1.26 -1.15 -1.31 -1.19a2.9 2.9 0 0 0 -1.05 -0.54 2.79 2.79 0 0 0 0.25 -1.31 3.34 3.34 0 0 0 -0.24 -1.85 13.88 13.88 0 0 0 3.18 -2.15c0.37 -0.31 -0.08 -0.72 -0.54 -0.43 -2.15 1.41 -2.96 1.8 -2.9 2.38a1.16 1.16 0 0 0 -0.4 -0.26 34.53 34.53 0 0 0 -7.08 -0.34 2.62 2.62 0 0 1 -1.28 0 8.67 8.67 0 0 0 -3.1 -2c-0.48 -0.16 -0.73 0 -0.52 0.46a5.79 5.79 0 0 0 2 1.57 8.87 8.87 0 0 1 1.46 0.82l0 1.82a3 3 0 0 0 0 0.95A9 9 0 0 0 5 9.55c-0.21 0.34 -0.21 0.83 0.31 0.66A9.81 9.81 0 0 0 7.1 8.35Zm0.71 -3.94A23.39 23.39 0 0 1 13 4.6a12.79 12.79 0 0 1 2.4 0.4 6.45 6.45 0 0 1 -0.1 2c-0.07 -0.06 -0.22 0.08 -0.36 0.1a55 55 0 0 0 -5.64 0.43c-0.44 0 -1.12 0.09 -1.41 -0.27s-0.12 -0.62 -0.12 -1a8.36 8.36 0 0 1 0.04 -1.85Z" fill="#4C57E6" fill-rule="evenodd" stroke-width="1"></path>
  </g>
</svg>