<svg xmlns="http://www.w3.org/2000/svg" viewBox="0 0 24 24" id="Light-Mode-Cloudy--Streamline-Freehand">
  <desc>
    Light Mode Cloudy Streamline Icon: https://streamlinehq.com
  </desc>
  <g>
    <path d="M5.73 5.69c1.52 -2.26 5.5 -1.82 6.23 0a6.06 6.06 0 0 1 1.61 -1c2.14 -0.8 5.57 0.37 6 3C19.76 9 19 8.89 20 8.84a4.34 4.34 0 0 1 3.27 1.39c3 3.38 -3.63 9.6 -7.13 6.4a5.61 5.61 0 0 1 -3 2.72c-2.88 1.15 -6.54 0.33 -7.14 -2.76 -0.11 -0.57 0.17 -0.47 -0.38 -0.29a5.42 5.42 0 0 1 -4.73 -1.5c-2.53 -2.93 1 -8.1 3.72 -5.7a0.3 0.3 0 0 1 -0.4 0.45C2 7.72 -0.52 12.07 1.48 14.28A4.9 4.9 0 0 0 5 15.53 3.14 3.14 0 0 0 6.14 15c0.47 -0.47 0.92 -0.17 0.93 0.23s-0.21 0.81 -0.13 1.16c0.53 2.48 3.62 2.81 5.74 1.92 3.14 -1.31 2.47 -4.56 3.66 -3.26a2.26 2.26 0 0 0 1.33 1.16c2.11 0.63 4.48 -1.47 5.09 -3.29a2 2 0 0 0 -0.36 -2c-1.55 -1.82 -3.47 -0.55 -4 -1.07S19.74 7.51 17.32 6a4.16 4.16 0 0 0 -5.4 0.81 0.41 0.41 0 0 1 -0.7 -0.31c-0.05 -0.09 0.44 -1 -1.37 -1.47C5.82 3.87 6 8.63 5.24 7.15a4.93 4.93 0 0 1 0.49 -1.46Z" fill="#020202" fill-rule="evenodd" stroke-width="1"></path>
    <path d="M16.55 10.51c-0.28 0.11 -0.48 -0.21 -0.23 -0.47 0 -0.08 0.63 -0.55 -0.52 -1.52a2.4 2.4 0 0 0 -3.48 0.09c-0.36 0.29 -0.65 0.3 -0.66 0s0.4 -0.55 0.92 -0.9c1.8 -1.21 4.52 0.38 4.48 1.93a1.06 1.06 0 0 1 -0.51 0.87Z" fill="#4C57E6" fill-rule="evenodd" stroke-width="1"></path>
  </g>
</svg>