<svg xmlns="http://www.w3.org/2000/svg" viewBox="0 0 24 24" id="Light-Mode-Bright--Streamline-Freehand">
  <desc>
    Light Mode Bright Streamline Icon: https://streamlinehq.com
  </desc>
  <g>
    <path d="M22 10.11c-1.16 -1.28 -3.71 -1.36 -5.45 -1.37 -4 0 -1.5 0.26 -7.79 0 -1.22 0 -1.91 -0.18 -1.65 0.45 0 0.38 0.12 0.11 1.65 0.23 6 0.37 6 0 9 0.25 -0.34 0.41 -0.19 3.45 -0.3 4a69.5 69.5 0 0 1 -9.57 0.08c-2 -0.13 -2 0.06 -2 -0.12a8 8 0 0 0 0.3 -3.35c0 -0.32 0.13 -1.11 -0.17 -1.21a0.28 0.28 0 0 0 -0.29 0c-0.34 0.27 -0.53 1.68 -0.55 2s0 2 0 2.57a5.37 5.37 0 0 1 -1.88 -0.4C1.81 12.56 1 9.67 5.16 9.31a0.28 0.28 0 1 0 0 -0.56C0.21 9 0.9 12.93 3.07 14c1.47 0.71 3.23 0.56 4.78 0.71a54.21 54.21 0 0 0 9.45 0.08c2 -0.16 4.37 0 5.1 -2.06a2.45 2.45 0 0 0 -0.4 -2.62Zm-0.58 2.24c-0.4 1.12 -1.82 1.23 -3 1.28 0.22 -1 0.42 -3.28 0 -3.89 1.83 0.26 3.67 0.75 2.98 2.61Z" fill="#020202" fill-rule="evenodd" stroke-width="1"></path>
    <path d="M6.4 6.18a0.32 0.32 0 1 0 0.37 -0.52C6 5 3.82 2 3.36 2.27c-0.06 0 -0.21 0.2 -0.09 0.49A6.37 6.37 0 0 0 6.4 6.18Z" fill="#4C57E6" fill-rule="evenodd" stroke-width="1"></path>
    <path d="M6.11 17.86a5.76 5.76 0 0 0 -2.68 2.63s-0.33 0.59 -0.43 0.82a0.38 0.38 0 0 0 0.1 0.49c0.46 0.22 2.61 -2.73 3.38 -3.41a0.32 0.32 0 0 0 -0.37 -0.53Z" fill="#4C57E6" fill-rule="evenodd" stroke-width="1"></path>
    <path d="M12.29 4.92c0 -1.33 0.19 -1 0.15 -3a5.87 5.87 0 0 0 0 -1.75c-0.1 -0.21 -0.45 -0.3 -0.64 0.12a7.8 7.8 0 0 0 -0.37 2.84A10.7 10.7 0 0 0 11.65 5a0.32 0.32 0 0 0 0.64 -0.08Z" fill="#4C57E6" fill-rule="evenodd" stroke-width="1"></path>
    <path d="M12 19.08a0.32 0.32 0 0 0 -0.64 -0.07 10.16 10.16 0 0 0 -0.24 3.06 10.88 10.88 0 0 0 0.37 1.64c0.19 0.41 0.54 0.32 0.64 0.11 0.27 -0.42 -0.13 -4.63 -0.13 -4.74Z" fill="#4C57E6" fill-rule="evenodd" stroke-width="1"></path>
    <path d="M18.21 5.39c0.06 -0.08 2.46 -2.84 2.57 -3.86a0.28 0.28 0 0 0 -0.26 -0.31c-0.1 0 -0.26 0 -0.44 0.2s-1 1.13 -1 1.22a11.32 11.32 0 0 0 -1.37 2.42 0.32 0.32 0 1 0 0.5 0.33Z" fill="#4C57E6" fill-rule="evenodd" stroke-width="1"></path>
    <path d="M17.92 18.57a0.32 0.32 0 0 0 -0.55 0.33c0.42 0.9 2.27 4 2.9 3.83 1.13 -0.13 -2.27 -4.08 -2.35 -4.16Z" fill="#4C57E6" fill-rule="evenodd" stroke-width="1"></path>
  </g>
</svg>