<svg xmlns="http://www.w3.org/2000/svg" viewBox="0 0 24 24" id="Light-Mode-Sunny--Streamline-Freehand">
  <desc>
    Light Mode Sunny Streamline Icon: https://streamlinehq.com
  </desc>
  <g>
    <path d="M12.54 8.26c-4.46 -0.1 -5.76 5.5 -2.76 7.23a7.39 7.39 0 0 0 2.43 0.63c5.49 0.69 5.51 -7.75 0.33 -7.86Zm2.35 5.86a2.55 2.55 0 0 1 -2.51 0.86 7.29 7.29 0 0 1 -2 -0.51c-1.9 -1 -1.12 -4.33 0.68 -5.16 3.42 -1.58 5.66 2.43 3.83 4.81Z" fill="#020202" fill-rule="evenodd" stroke-width="1"></path>
    <path d="M5.7 12c-2.16 -0.22 -1.69 -0.53 -5.17 -0.2 -1.48 0.13 0.08 1.43 5.17 0.89a0.35 0.35 0 1 0 0 -0.69Z" fill="#4C57E6" fill-rule="evenodd" stroke-width="1"></path>
    <path d="M18.37 12.53a0.35 0.35 0 0 0 0 0.7c2.15 0.21 1.69 0.52 5.17 0.2 1.28 -0.12 0 -1.43 -5.17 -0.9Z" fill="#4C57E6" fill-rule="evenodd" stroke-width="1"></path>
    <path d="M12.94 18.47a0.31 0.31 0 0 0 -0.55 0 9.12 9.12 0 0 0 0 5 0.35 0.35 0 0 0 0.68 -0.13c-0.07 -0.53 0.35 -3.47 -0.13 -4.87Z" fill="#4C57E6" fill-rule="evenodd" stroke-width="1"></path>
    <path d="M12.18 5.7c0.65 0.14 0.91 -3.31 0.32 -5.15a0.35 0.35 0 0 0 -0.68 0.13 20.74 20.74 0 0 0 -0.05 3.5c0.29 1.35 -0.04 1.42 0.41 1.52Z" fill="#4C57E6" fill-rule="evenodd" stroke-width="1"></path>
    <path d="M6.42 19.63a3.9 3.9 0 0 0 2.25 -2.06 0.35 0.35 0 0 0 -0.06 -0.49c-0.42 -0.33 -3.61 2.43 -2.19 2.55Z" fill="#4C57E6" fill-rule="evenodd" stroke-width="1"></path>
    <path d="M17.11 17.2a0.35 0.35 0 0 0 -0.54 0.43 3.91 3.91 0 0 0 2.26 2.05 0.33 0.33 0 0 0 0.21 -0.14c0.1 -0.09 0.08 -0.22 0 -0.4 -0.13 -0.86 -1.65 -1.69 -1.93 -1.94Z" fill="#4C57E6" fill-rule="evenodd" stroke-width="1"></path>
    <path d="M7.85 8.41a0.36 0.36 0 0 0 0 -0.49C6.61 6 5 5.66 5.05 6.24s2.34 2.61 2.8 2.17Z" fill="#4C57E6" fill-rule="evenodd" stroke-width="1"></path>
    <path d="M17.82 8.45c0.08 -0.06 2.35 -1.33 2.29 -2.17 0.18 -1.22 -3.49 1.52 -2.78 2.19a0.35 0.35 0 0 0 0.49 -0.02Z" fill="#4C57E6" fill-rule="evenodd" stroke-width="1"></path>
  </g>
</svg>