<svg xmlns="http://www.w3.org/2000/svg" viewBox="0 0 24 24" id="Like-Plus--Streamline-Freehand">
  <desc>
    Like Plus Streamline Icon: https://streamlinehq.com
  </desc>
  <g>
    <path d="M9.4 12.9a10.65 10.65 0 0 0 -1.48 0 1.43 1.43 0 0 0 -0.81 0.24 2.81 2.81 0 0 0 -0.39 1.65 9.16 9.16 0 0 0 0.16 2 0.9 0.9 0 0 0 0.2 0.39 0.94 0.94 0 0 0 0.47 0.21c0.46 0.09 1.41 -0.05 2 0a15.16 15.16 0 0 0 -0.08 1.52 1 1 0 0 0 0.48 0.87 10.53 10.53 0 0 0 2.47 0.19 5 5 0 0 0 1 -0.1 0.62 0.62 0 0 0 0.35 -0.21 0.93 0.93 0 0 0 0.18 -0.54l0 -1.68c0.75 0 1.84 0.13 2.38 0.12a1.07 1.07 0 0 0 0.73 -0.25 0.78 0.78 0 0 0 0.15 -0.47l0 -1.26c0 -0.72 -0.06 -1.52 -0.11 -1.89a1 1 0 0 0 -0.15 -0.46 1.45 1.45 0 0 0 -1 -0.32l-1.93 0c0 -0.4 0.05 -1 0.07 -1.5a2.87 2.87 0 0 0 -0.1 -1 0.49 0.49 0 0 0 -0.4 -0.28 6.75 6.75 0 0 0 -0.72 -0.05 14.38 14.38 0 0 0 -3.18 0.14 0.43 0.43 0 0 0 -0.2 0.18 1.34 1.34 0 0 0 -0.12 0.63 9.87 9.87 0 0 0 0.16 1.88 0.23 0.23 0 0 0 -0.13 -0.01Zm0.29 0.47a0.27 0.27 0 0 0 0.26 0.07 0.29 0.29 0 0 0 0.23 -0.35 9.16 9.16 0 0 1 -0.11 -2.22 17.74 17.74 0 0 1 3.13 0.13c0 0.53 -0.16 1.63 -0.18 2.14a1 1 0 0 0 0.12 0.57 0.93 0.93 0 0 0 0.66 0.25c0.52 0 1.6 0 2.19 0.06a1.55 1.55 0 0 0 0 0.21l0 2.23c-0.74 0 -2.07 -0.15 -2.64 -0.13a0.54 0.54 0 0 0 -0.48 0.26 1.07 1.07 0 0 0 -0.14 0.5l0 1.79a11 11 0 0 1 -2.51 0 10.59 10.59 0 0 1 0.18 -1.57 0.74 0.74 0 0 0 -0.3 -0.67 1.84 1.84 0 0 0 -0.69 -0.11c-0.46 0 -1.05 0.06 -1.5 0.06 -0.12 0 -0.25 -0.06 -0.32 -0.05s0 -0.08 0 -0.11a9.16 9.16 0 0 1 -0.15 -1.63 5 5 0 0 1 0 -0.91c0 -0.09 0 -0.16 0.06 -0.2s0.39 -0.08 0.74 -0.09 0.68 0 1 0a0.34 0.34 0 0 0 0.45 -0.23Z" fill="#020202" fill-rule="evenodd" stroke-width="1"></path>
    <path d="M16.89 7.45c0.06 -0.48 0.15 -1.24 0.18 -2l0 -1c0 -0.34 -0.07 -0.45 -0.07 -0.68s-0.12 -0.42 -0.15 -0.69 -0.75 -0.36 -0.8 0 0 0.33 -0.08 0.69 0 0.43 -0.05 0.65 0 0.66 0 1c0 0.8 0.12 1.55 0.18 2l-2.27 0 -3.68 0 -2.07 0c0 -0.47 0.09 -1 0.11 -1.69a9.88 9.88 0 0 0 0 -1.33A7.32 7.32 0 0 0 7.94 3c-0.06 -0.58 -0.8 -0.5 -0.82 0.07s0 0.62 0 1.13l0 0.82c0 0.27 0 0.56 0.06 0.83 0.06 0.61 0.15 1.17 0.23 1.62 -2.49 0.08 -4.57 0.18 -5.57 0.23l-0.61 0 -0.13 0a0.3 0.3 0 0 0 -0.12 0.5c0.1 0.1 0 0.06 0.87 0.07 1.06 0 3.28 0.08 5.91 0.14l2.46 0h3.68c3.82 0 7.34 -0.15 8.66 -0.17 0.41 0 0.29 -0.62 0 -0.71 -1.06 0.06 -3.15 -0.02 -5.67 -0.08Z" fill="#4C57E6" fill-rule="evenodd" stroke-width="1"></path>
    <path d="M23.79 4a5.52 5.52 0 0 0 -0.27 -1.53 1.75 1.75 0 0 0 -1.21 -0.59 60.93 60.93 0 0 0 -8.18 -0.34 110 110 0 0 0 -12.19 0.61 3 3 0 0 0 -1.52 0.49A6 6 0 0 0 0.2 4.36l0 3.71a0.31 0.31 0 0 0 0.31 0.29 0.3 0.3 0 0 0 0.29 -0.31l0 -3.14A13.36 13.36 0 0 1 1 3.05a6 6 0 0 1 0.86 -0.21c0.1 0 8.58 -0.41 10.06 -0.42s9.93 0.43 10 0.45c0.3 0 0.56 0.22 0.69 0.22s0 0.33 0.06 0.59c0.24 2.6 0.2 8.45 0.2 8.55a62.52 62.52 0 0 1 -0.47 8.49 3 3 0 0 1 -0.13 0.5c-0.32 0.06 -1.14 0.09 -2.28 0.13 -2.59 0.09 -6.69 0.13 -10.43 0.09 -8.24 -0.06 -8.47 -0.33 -8.57 -1a37 37 0 0 1 -0.2 -3.88c-0.05 -3 0 -6.43 0 -7.37a0.34 0.34 0 0 0 -0.29 -0.38 0.35 0.35 0 0 0 -0.35 0.34C0.12 10.38 -0.09 15.8 0 19a10 10 0 0 0 0.28 2.32 0.72 0.72 0 0 0 0.35 0.43c0.72 0.35 5.88 0.62 11 0.7s10.62 0 11.12 -0.24a1.27 1.27 0 0 0 0.58 -0.87 29.67 29.67 0 0 0 0.51 -5.26c0.23 -4.2 0.16 -9.61 -0.05 -12.08Z" fill="#020202" fill-rule="evenodd" stroke-width="1"></path>
  </g>
</svg>