<svg xmlns="http://www.w3.org/2000/svg" viewBox="0 0 24 24" id="Like-Hand-1--Streamline-Freehand">
  <desc>
    Like Hand 1 Streamline Icon: https://streamlinehq.com
  </desc>
  <g>
    <path d="M18.36 11a4.26 4.26 0 0 0 -3 -0.92 22.21 22.21 0 0 0 -3.72 0.43c0 -0.69 0.05 -1.76 0 -2.69a4.77 4.77 0 0 0 -0.31 -1.56 1.73 1.73 0 0 0 -2 -1 2.13 2.13 0 0 0 -1.69 1.29 17.51 17.51 0 0 1 -2.3 4.14c-0.77 1 -1.56 1.83 -2.17 1.89a1.68 1.68 0 0 0 -0.12 -0.31A2 2 0 0 0 2 11.52a4.67 4.67 0 0 0 -1.7 -0.21 0.3 0.3 0 0 0 -0.28 0.32 0.3 0.3 0 0 0 0.32 0.28 3.71 3.71 0 0 1 1.17 0.22 1.31 1.31 0 0 1 0.81 0.55 7.78 7.78 0 0 1 0.17 1.68c0 0.54 0 1.14 0.06 1.78 0 0.88 0.07 1.82 0.1 2.66s0.06 1.82 0 2.35c0 0.17 -0.08 0.34 -0.06 0.39a2.1 2.1 0 0 1 -0.91 0.36 2.74 2.74 0 0 1 -1.21 0 0.34 0.34 0 0 0 -0.22 0.65 3.61 3.61 0 0 0 1.54 0.11 2.85 2.85 0 0 0 1.53 -0.58 1.4 1.4 0 0 0 0.24 -0.72 31.22 31.22 0 0 0 0.14 -4.27c0 -0.82 -0.09 -1.64 -0.17 -2.36s-0.15 -1.15 -0.23 -1.57a5.48 5.48 0 0 0 2.56 -2.06 18 18 0 0 0 2.55 -4.26 1.32 1.32 0 0 1 1 -0.77 0.88 0.88 0 0 1 1 0.51 4.12 4.12 0 0 1 0.18 1.24c0 1.09 -0.08 2.38 0 3a1.39 1.39 0 0 0 0.12 0.57 0.55 0.55 0 0 0 0.51 0.27 4 4 0 0 0 0.52 -0.06 18.17 18.17 0 0 1 4.26 -0.36 2.45 2.45 0 0 1 1.57 0.55c0.85 0.9 1.31 3 1.4 5s-0.18 4.15 -1.05 5 -2.57 1.05 -4.37 1.21a12 12 0 0 1 -4.67 -0.46C8 22.1 6.71 21.39 5.6 21a3.82 3.82 0 0 0 -1.66 -0.27 0.34 0.34 0 0 0 -0.3 0.38 0.34 0.34 0 0 0 0.36 0.29 3.15 3.15 0 0 1 1.34 0.27c1.09 0.41 2.33 1.14 3.2 1.54a14.07 14.07 0 0 0 6 0.58 7.25 7.25 0 0 0 4 -1.28c1 -1 1.55 -3.37 1.46 -5.78S19.34 12 18.36 11Z" fill="#020202" fill-rule="evenodd" stroke-width="1"></path>
    <path d="M0.37 6c0.31 0 0.82 0.13 1.41 0.17H2v0.1c0.06 0.68 0.15 1.25 0.17 1.46a0.34 0.34 0 0 0 0.68 0C2.84 7.54 3 7 3 6.27l0 -0.15c0.64 -0.08 1.16 -0.2 1.25 -0.18a0.34 0.34 0 0 0 0.43 -0.22 0.32 0.32 0 0 0 -0.21 -0.42 7 7 0 0 0 -1.46 -0.24V5c-0.07 -0.67 -0.2 -1.24 -0.24 -1.47a0.31 0.31 0 0 0 -0.31 -0.3 0.29 0.29 0 0 0 -0.29 0.3C2.17 3.78 2 4.34 2 5l-0.2 0a10.33 10.33 0 0 0 -1.43 0.32 0.3 0.3 0 0 0 -0.27 0.33 0.3 0.3 0 0 0 0.27 0.35Z" fill="#4C57E6" fill-rule="evenodd" stroke-width="1"></path>
    <path d="M23.77 10.81a5.83 5.83 0 0 0 -1.25 -0.25c-0.1 -0.39 -0.24 -0.71 -0.29 -0.92a0.3 0.3 0 1 0 -0.6 0c0 0.2 -0.11 0.53 -0.15 0.91a8.85 8.85 0 0 0 -1.2 0.31 0.29 0.29 0 0 0 -0.26 0.33 0.3 0.3 0 0 0 0.32 0.27c0.3 0 0.7 0.13 1.17 0.18h0.07c0.09 0.44 0.22 0.81 0.25 1a0.34 0.34 0 1 0 0.68 0 8.85 8.85 0 0 0 0.14 -1.08c0.47 -0.07 0.84 -0.17 0.93 -0.15a0.34 0.34 0 0 0 0.22 -0.65Z" fill="#4C57E6" fill-rule="evenodd" stroke-width="1"></path>
    <path d="M13.94 4.33a2.57 2.57 0 0 1 1.43 0.88 4.52 4.52 0 0 1 1 1.54 0.57 0.57 0 0 0 0.56 0.37 0.57 0.57 0 0 0 0.53 -0.41 2.81 2.81 0 0 1 1 -1.41 6.9 6.9 0 0 1 1.69 -1 0.49 0.49 0 0 0 0.31 -0.43 0.5 0.5 0 0 0 -0.24 -0.47 8.18 8.18 0 0 1 -2.26 -1.47 2.39 2.39 0 0 1 -0.71 -1.46 0.34 0.34 0 0 0 -0.34 -0.34 0.35 0.35 0 0 0 -0.34 0.35 0.29 0.29 0 0 0 -0.27 0.23 4.41 4.41 0 0 1 -1 1.63 3.53 3.53 0 0 1 -1.48 1 0.47 0.47 0 0 0 -0.32 0.5 0.48 0.48 0 0 0 0.44 0.49Zm2 -1.47a5.53 5.53 0 0 0 0.82 -1.44 3.34 3.34 0 0 0 0.59 1 6.91 6.91 0 0 0 1.53 1.3 5.93 5.93 0 0 0 -1.48 1 6.91 6.91 0 0 0 -0.51 0.57 4.8 4.8 0 0 0 -0.7 -0.85 4 4 0 0 0 -1 -0.74 5.76 5.76 0 0 0 0.71 -0.84Z" fill="#4C57E6" fill-rule="evenodd" stroke-width="1"></path>
  </g>
</svg>