<svg xmlns="http://www.w3.org/2000/svg" viewBox="0 0 24 24" id="Link-Hyperlink-Chain--Streamline-Freehand">
  <desc>
    Link Hyperlink Chain Streamline Icon: https://streamlinehq.com
  </desc>
  <g>
    <path d="M23.91 5.29a3.13 3.13 0 0 0 -0.72 -1.23 0.35 0.35 0 0 0 -0.49 0 0.34 0.34 0 0 0 0 0.48 2.66 2.66 0 0 1 0.54 1 1.56 1.56 0 0 1 -0.1 1 19.42 19.42 0 0 1 -3.49 3.64 9.62 9.62 0 0 1 -2.74 1.8 5.51 5.51 0 0 1 -1.71 0.45 0.91 0.91 0 0 1 -0.73 -0.3c-0.2 -0.22 -0.52 -0.52 -0.82 -0.83 0.66 -0.65 1.32 -1.35 2.08 -2.09a0.3 0.3 0 0 0 0 -0.43 0.31 0.31 0 0 0 -0.43 0c-0.84 0.6 -1.6 1.14 -2.32 1.69a7.18 7.18 0 0 1 -0.32 -0.81 5.23 5.23 0 0 1 -0.23 -1 3.23 3.23 0 0 1 0.94 -2.5 31.64 31.64 0 0 1 3.65 -3 5.24 5.24 0 0 1 1.63 -1 2.56 2.56 0 0 1 1.77 0 2.08 2.08 0 0 1 0.65 0.41 2.31 2.31 0 0 1 0.49 0.61 0.3 0.3 0 0 0 0.54 -0.26 2.78 2.78 0 0 0 -0.58 -0.92 2.91 2.91 0 0 0 -0.84 -0.57 3.23 3.23 0 0 0 -1.81 -0.18 5.64 5.64 0 0 0 -2.38 1.13 30.94 30.94 0 0 0 -3.91 3 4.26 4.26 0 0 0 -1.29 3.34 6.18 6.18 0 0 0 0.27 1.23 11.36 11.36 0 0 0 0.44 1.11l0 0.07 -1.21 1c-0.76 0.67 -1.5 1.37 -2.38 2.07a0.34 0.34 0 0 0 -0.09 0.48 0.35 0.35 0 0 0 0.48 0.09c1 -0.58 1.81 -1.14 2.62 -1.74 0.36 -0.26 0.71 -0.54 1 -0.83l0.24 -0.21 0.82 0.82a2 2 0 0 0 1.6 0.67 6.72 6.72 0 0 0 2 -0.57 10.52 10.52 0 0 0 3 -2.1 19.88 19.88 0 0 0 3.58 -4.07 2.3 2.3 0 0 0 0.25 -1.45Z" fill="#020202" fill-rule="evenodd" stroke-width="1"></path>
    <path d="M11.86 14.07a0.34 0.34 0 0 0 0 0.48 0.81 0.81 0 0 1 0.29 0.57 1.28 1.28 0 0 1 -0.27 0.65 29.38 29.38 0 0 1 -3.6 3.65 9.07 9.07 0 0 1 -2.73 1.79 5.43 5.43 0 0 1 -1.71 0.45 1 1 0 0 1 -0.73 -0.31c-0.22 -0.25 -0.6 -0.61 -0.93 -1a2.71 2.71 0 0 1 -0.43 -0.56 9.71 9.71 0 0 1 -0.39 -1 4.53 4.53 0 0 1 -0.22 -1 3.21 3.21 0 0 1 1 -2.51 30.47 30.47 0 0 1 3.66 -3 5.14 5.14 0 0 1 1.65 -1 2.62 2.62 0 0 1 1.79 0 0.3 0.3 0 0 0 0.4 -0.16 0.31 0.31 0 0 0 -0.17 -0.4 3.16 3.16 0 0 0 -1.79 -0.19 5.63 5.63 0 0 0 -2.41 1.17 30.41 30.41 0 0 0 -3.93 2.94A4.21 4.21 0 0 0 0 18a6 6 0 0 0 0.19 1 9.53 9.53 0 0 0 0.51 1.3 3.53 3.53 0 0 0 0.47 0.69c0.36 0.41 0.83 0.84 1.09 1.13a2 2 0 0 0 1.59 0.68 6.21 6.21 0 0 0 2.05 -0.56 10 10 0 0 0 3 -2.1 30.27 30.27 0 0 0 3.6 -4 2 2 0 0 0 0.36 -1.07 1.46 1.46 0 0 0 -0.53 -1 0.35 0.35 0 0 0 -0.47 0Z" fill="#020202" fill-rule="evenodd" stroke-width="1"></path>
    <path d="m6.43 15.15 1.16 -0.79a0.31 0.31 0 0 0 0.14 -0.36 0.3 0.3 0 0 0 -0.41 -0.13L6 14.49a7.39 7.39 0 0 0 -2.3 1.83 2.35 2.35 0 0 0 -0.38 2.26 1 1 0 0 0 1 0.68 2.41 2.41 0 0 0 1.17 -0.43 9.29 9.29 0 0 0 0.91 -0.75c0.66 -0.6 1.25 -1.26 1.86 -1.85a0.35 0.35 0 0 0 0 -0.49 0.36 0.36 0 0 0 -0.49 0c-0.57 0.45 -1.13 0.95 -1.73 1.42a10.58 10.58 0 0 1 -1.17 0.81c-1.23 0.74 -0.36 -0.89 -0.3 -1a7.43 7.43 0 0 1 1.86 -1.82Z" fill="#4C57E6" fill-rule="evenodd" stroke-width="1"></path>
    <path d="M19 7a6.13 6.13 0 0 1 -1.26 1.28c-0.21 0.15 -0.5 0.38 -0.78 0.56a1.9 1.9 0 0 1 -0.49 0.25 0.34 0.34 0 0 0 -0.25 0.41 0.34 0.34 0 0 0 0.41 0.26 2.47 2.47 0 0 0 0.55 -0.2c0.35 -0.18 0.73 -0.44 1 -0.61a6.9 6.9 0 0 0 1.57 -1.33A8.69 8.69 0 0 0 20.9 6a3.7 3.7 0 0 0 0.43 -1.13A1 1 0 0 0 21 4a1.36 1.36 0 0 0 -0.89 -0.39 3 3 0 0 0 -1.08 0.17 6.4 6.4 0 0 0 -1.63 0.82 15.32 15.32 0 0 0 -2 1.7 4.54 4.54 0 0 0 -0.65 0.74 2.69 2.69 0 0 0 -0.31 0.61 3.5 3.5 0 0 0 -0.07 0.9 0.33 0.33 0 0 0 0.17 0.24 0.31 0.31 0 0 0 0.46 -0.16c0.18 -0.26 -0.17 -0.6 0.47 -1.3a5.64 5.64 0 0 1 0.53 -0.45 19 19 0 0 1 2 -1.42 5.88 5.88 0 0 1 1.39 -0.61 1.87 1.87 0 0 1 0.61 -0.12c0.54 0 0.12 0.31 -0.08 0.76A7.29 7.29 0 0 1 19 7Z" fill="#4C57E6" fill-rule="evenodd" stroke-width="1"></path>
  </g>
</svg>