<svg xmlns="http://www.w3.org/2000/svg" viewBox="0 0 24 24" id="Lion-Body--Streamline-Freehand">
  <desc>
    Lion Body Streamline Icon: https://streamlinehq.com
  </desc>
  <g>
    <path d="M24 7a3.61 3.61 0 0 0 -0.56 -2.45 3.57 3.57 0 0 0 -1.8 -1.23 3.46 3.46 0 0 0 -2.09 0 0.3 0.3 0 0 0 -0.21 0.35 0.29 0.29 0 0 0 0.35 0.2 2.82 2.82 0 0 1 1.65 0.26 2.7 2.7 0 0 1 1.21 1A2.71 2.71 0 0 1 23 6.94a2.58 2.58 0 0 1 -0.71 1.74 0.35 0.35 0 0 0 -0.09 0.17 7.72 7.72 0 0 0 -0.78 -0.85 6.7 6.7 0 0 0 -0.6 -0.45c-0.21 -0.12 -0.42 -0.24 -0.64 -0.35a4.42 4.42 0 0 0 -1.63 -0.42 6.1 6.1 0 0 0 -1.63 0.16c-0.68 0.17 -1.28 0.43 -1.93 0.57a4.15 4.15 0 0 1 -0.79 0.08s0 0 -0.08 0 0 -0.19 0 -0.28a9.18 9.18 0 0 0 -0.38 -1.71 3.62 3.62 0 0 0 -0.61 -1.1 4.43 4.43 0 0 0 -1.4 -1.08 5.43 5.43 0 0 0 -1.63 -0.51 6.54 6.54 0 0 0 -3.37 0.3 4.77 4.77 0 0 0 -2.6 2.18 0.24 0.24 0 0 0 0 0.26 3.28 3.28 0 0 0 -0.85 0.6 10.08 10.08 0 0 0 -1 1.14c-0.14 0.19 -0.27 0.4 -0.42 0.58a1.33 1.33 0 0 1 -0.27 0.26c-0.29 0.2 -0.73 0.17 -1 0.33a1 1 0 0 0 -0.51 0.6 1.87 1.87 0 0 0 -0.08 0.67 4.36 4.36 0 0 0 0.16 0.83 4.81 4.81 0 0 0 0.51 1.23 2.48 2.48 0 0 0 0.68 0.75 1.72 1.72 0 0 0 0.7 0.24 4.71 4.71 0 0 0 0.84 0l1.23 0a0.22 0.22 0 0 0 0 0.11 3.07 3.07 0 0 1 0.59 0.8 3.57 3.57 0 0 1 0.33 0.95l0.09 0.88a1.11 1.11 0 0 0 0.07 0.29 0.35 0.35 0 0 0 0.1 0.17 0.39 0.39 0 0 0 0.29 0.12 1.51 1.51 0 0 0 0.26 0l0.88 -0.1A10.41 10.41 0 0 0 8 15.79l0 1.38a7.9 7.9 0 0 1 -0.14 1.06l-0.26 1.31c0 0.08 -0.06 0.29 -0.08 0.43a0.89 0.89 0 0 0 0 0.32 0.74 0.74 0 0 0 0.27 0.32 1.59 1.59 0 0 0 0.49 0.17l1.11 0.14a1.66 1.66 0 0 0 1.3 -0.4 3.69 3.69 0 0 0 0.88 -1.47c0.21 -0.53 0.42 -1.06 0.62 -1.59a1.18 1.18 0 0 1 0.07 -0.2 7.05 7.05 0 0 0 1.27 -0.37 10.75 10.75 0 0 0 1.29 -0.67l0.89 -0.62 0.51 1c0.31 0.51 0.74 0.89 1.06 1.37a2 2 0 0 1 0.28 0.54 2.69 2.69 0 0 1 0.16 0.62 2.08 2.08 0 0 1 0 0.61c0 0.06 -0.16 0.47 -0.19 0.64a0.64 0.64 0 0 0 0.07 0.39 0.92 0.92 0 0 0 0.68 0.37 12.76 12.76 0 0 0 1.48 0l0.57 0a1.82 1.82 0 0 0 0.37 -0.09 1.14 1.14 0 0 0 0.44 -0.38 3.28 3.28 0 0 0 0.32 -0.79l0.46 -2.09 0.92 -2.21a12.56 12.56 0 0 0 0.52 -3.11 6.22 6.22 0 0 0 -0.28 -2.15 4.32 4.32 0 0 0 -0.55 -1.12 0.32 0.32 0 0 0 0.23 -0.08A3.22 3.22 0 0 0 24 7ZM2.85 11.8l-0.59 0a0.72 0.72 0 0 1 -0.34 -0.09 1.5 1.5 0 0 1 -0.46 -0.55 4.46 4.46 0 0 1 -0.36 -0.79 5 5 0 0 1 -0.16 -0.55 1 1 0 0 1 0 -0.42c0 -0.09 0.09 -0.13 0.16 -0.17a4 4 0 0 0 1 -0.39 1.91 1.91 0 0 0 0.41 -0.44c0.15 -0.2 0.27 -0.43 0.4 -0.63a7.74 7.74 0 0 1 0.83 -1.1 3.11 3.11 0 0 1 0.67 -0.55 0.31 0.31 0 0 0 0.26 0.11 2.16 2.16 0 0 1 1.2 0.38 3.86 3.86 0 0 1 1 0.93c0.08 0.11 0.16 0.23 0.23 0.35a2 2 0 0 1 0.13 0.34 3 3 0 0 1 -0.32 1.93 2.73 2.73 0 0 1 -1.41 1.36 3.55 3.55 0 0 1 -1 0.22c-0.5 0.05 -1.12 0.04 -1.65 0.06Zm3.82 3.44 -0.76 0.12 -0.12 -0.8a4.06 4.06 0 0 0 -0.43 -1.13 4 4 0 0 0 -0.49 -0.66 4.59 4.59 0 0 0 1.06 -0.28 3.75 3.75 0 0 0 1.79 -1.89A3.94 3.94 0 0 0 8 8.06a1.79 1.79 0 0 0 -0.19 -0.45 3.54 3.54 0 0 0 -0.37 -0.52 4.35 4.35 0 0 0 -1.2 -1 2.89 2.89 0 0 0 -1.57 -0.42 4.16 4.16 0 0 1 2.26 -1.8 5.54 5.54 0 0 1 3 -0.12 5 5 0 0 1 1.36 0.49 3.27 3.27 0 0 1 1 0.89 2.5 2.5 0 0 1 0.42 0.81A8.41 8.41 0 0 1 13 7.45c0.06 0.39 0.12 0.77 0.16 1.15a3.28 3.28 0 0 1 0 0.7 5 5 0 0 1 -1 2.45 8.55 8.55 0 0 1 -2 1.95 9.92 9.92 0 0 1 -1.68 1 7.42 7.42 0 0 1 -1.81 0.54Zm15.14 0.06 -0.93 2.19c-0.07 0.22 -0.13 0.46 -0.18 0.69 -0.1 0.48 -0.15 1 -0.28 1.45l-0.16 0.49h-0.49c-0.13 0 -0.83 0.19 -1.22 0.19a4.4 4.4 0 0 0 0.11 -0.45 2.78 2.78 0 0 0 0 -0.86 4.1 4.1 0 0 0 -0.22 -0.8 3.51 3.51 0 0 0 -0.43 -0.73c-0.34 -0.45 -0.77 -0.81 -1.09 -1.28l-0.55 -1a2.44 2.44 0 0 0 -0.23 -0.39 0.4 0.4 0 0 0 -0.23 -0.12 0.41 0.41 0 0 0 -0.3 0.06 3.4 3.4 0 0 0 -0.27 0.27l-0.84 0.63a9.34 9.34 0 0 1 -1.19 0.67 4.72 4.72 0 0 1 -0.8 0.29 2.25 2.25 0 0 1 0.08 -0.24 0.34 0.34 0 0 0 -0.2 -0.41 0.32 0.32 0 0 0 -0.4 0.2l-0.45 1c-0.24 0.5 -0.51 1 -0.77 1.5a3.68 3.68 0 0 1 -0.58 0.93 0.76 0.76 0 0 1 -0.69 0.24l-0.87 -0.1 0 -0.08 0.12 -1.31a9.45 9.45 0 0 0 0 -1.19c0 -0.53 -0.1 -1.05 -0.15 -1.58l0.3 -0.1a11.69 11.69 0 0 0 1.88 -1A9.6 9.6 0 0 0 13 12.38a6 6 0 0 0 1.23 -3 4.4 4.4 0 0 0 0 -0.89l0 -0.32a4.33 4.33 0 0 0 0.9 -0.07c0.66 -0.12 1.28 -0.36 2 -0.5a4.56 4.56 0 0 1 1.42 -0.1 3.38 3.38 0 0 1 1.31 0.38 6 6 0 0 1 0.54 0.33 3.48 3.48 0 0 1 0.48 0.38 6.08 6.08 0 0 1 0.81 0.94 4 4 0 0 1 0.52 1.09 5.73 5.73 0 0 1 0.17 1.83 12.16 12.16 0 0 1 -0.57 2.85Z" fill="#020202" fill-rule="evenodd" stroke-width="1"></path>
    <path d="M9.48 4.54a10 10 0 0 0 -1.8 2.18 0.24 0.24 0 0 0 0 0.31A0.18 0.18 0 0 0 8 7a19.36 19.36 0 0 1 1.56 -1.56c0.82 -0.77 1.25 -1 1.22 -1.23s-0.31 -0.3 -0.64 -0.15c-0.14 0.14 -0.49 0.32 -0.66 0.48Z" fill="#4C57E6" fill-rule="evenodd" stroke-width="1"></path>
    <path d="M11.28 7.85a9.8 9.8 0 0 0 -2.74 0.71 0.23 0.23 0 0 0 -0.16 0.26 0.19 0.19 0 0 0 0.24 0.18 18.09 18.09 0 0 1 2.19 -0.33c1.12 -0.15 2 -0.12 2.07 -0.3s-0.08 -0.43 -0.44 -0.51 -0.94 -0.04 -1.16 -0.01Z" fill="#4C57E6" fill-rule="evenodd" stroke-width="1"></path>
    <path d="M10.18 11.79a8.41 8.41 0 0 0 -2.18 -0.9 0.2 0.2 0 0 0 -0.24 0.09 0.14 0.14 0 0 0 0.08 0.21 15.11 15.11 0 0 1 1.64 0.88c0.82 0.46 1.38 0.91 1.54 0.83s0.18 -0.31 0 -0.54 -0.68 -0.47 -0.84 -0.57Z" fill="#4C57E6" fill-rule="evenodd" stroke-width="1"></path>
  </g>
</svg>