<svg xmlns="http://www.w3.org/2000/svg" viewBox="0 0 24 24" id="Loading-Pie-Circle--Streamline-Freehand">
  <desc>
    Loading Pie Circle Streamline Icon: https://streamlinehq.com
  </desc>
  <g>
    <path d="M7.66 2.89c0.27 0.59 0.76 1.5 1 1.89a0.76 0.76 0 0 0 0.44 0.35 0.35 0.35 0 0 0 0.35 -0.35c0 -0.18 -0.15 -0.31 -0.2 -0.39a19.22 19.22 0 0 1 -0.91 -2A5.71 5.71 0 0 1 10 1.48a6.07 6.07 0 0 1 2.09 -0.35 4.46 4.46 0 0 1 0.78 0.08 10.76 10.76 0 0 1 1.2 0.35 2.9 2.9 0 0 1 0.79 0.39 2.07 2.07 0 0 1 0.47 0.4 11.81 11.81 0 0 1 -0.95 2.43 11.09 11.09 0 0 0 -2 -0.17 6 6 0 0 0 -2.38 0.52 0.29 0.29 0 0 0 -0.16 0.39 0.3 0.3 0 0 0 0.39 0.17 4.82 4.82 0 0 1 1.67 -0.29 9.48 9.48 0 0 1 2.34 0.32 0.82 0.82 0 0 0 0.67 -0.1 9.13 9.13 0 0 0 1.29 -2.25 4.21 4.21 0 0 0 0.31 -1 0.69 0.69 0 0 0 -0.06 -0.42 2.35 2.35 0 0 0 -0.71 -0.81 4.19 4.19 0 0 0 -1.28 -0.69 11.44 11.44 0 0 0 -1.35 -0.37 5.89 5.89 0 0 0 -1 -0.08 7.08 7.08 0 0 0 -2.42 0.54 6.26 6.26 0 0 0 -2.11 1.33 0.42 0.42 0 0 0 -0.13 0.43 3.33 3.33 0 0 0 0.21 0.59Z" fill="#020202" fill-rule="evenodd" stroke-width="1"></path>
    <path d="M7.74 17.67a0.35 0.35 0 0 0 -0.48 -0.12 0.35 0.35 0 0 0 -0.15 0.21s0 0.08 -0.08 0.14a17.7 17.7 0 0 1 -1.39 1.8 5.89 5.89 0 0 1 -1.64 -1 5.77 5.77 0 0 1 -1.37 -1.58 4 4 0 0 1 -0.31 -0.68A8 8 0 0 1 2 15.29a3.33 3.33 0 0 1 0 -0.85 1.83 1.83 0 0 1 0.14 -0.58 12.68 12.68 0 0 1 2.67 -0.43 10.52 10.52 0 0 0 0.85 1.77 5.75 5.75 0 0 0 1.64 1.7 0.3 0.3 0 0 0 0.42 -0.07 0.31 0.31 0 0 0 -0.06 -0.43 4.69 4.69 0 0 1 -1.1 -1.23 9.37 9.37 0 0 1 -0.89 -2.11 0.8 0.8 0 0 0 -0.43 -0.53 9.71 9.71 0 0 0 -2.63 0.08 4.88 4.88 0 0 0 -1 0.24 0.7 0.7 0 0 0 -0.34 0.25 2.5 2.5 0 0 0 -0.37 1 4.24 4.24 0 0 0 0 1.43 8.93 8.93 0 0 0 0.35 1.32 4.3 4.3 0 0 0 0.42 0.87 6.81 6.81 0 0 0 1.73 1.79 6.19 6.19 0 0 0 2.23 1.08 0.5 0.5 0 0 0 0.46 -0.13 6.31 6.31 0 0 0 0.55 -0.68c0.38 -0.53 0.85 -1.24 1 -1.57a0.64 0.64 0 0 0 0.1 -0.54Z" fill="#020202" fill-rule="evenodd" stroke-width="1"></path>
    <path d="M23.14 14.05a2.5 2.5 0 0 0 -0.37 -1 0.7 0.7 0 0 0 -0.34 -0.25 4.88 4.88 0 0 0 -1 -0.24 9.71 9.71 0 0 0 -2.63 -0.08 0.8 0.8 0 0 0 -0.43 0.53 9.19 9.19 0 0 1 -0.89 2.11 4.7 4.7 0 0 1 -1.1 1.24 0.3 0.3 0 0 0 -0.06 0.42 0.3 0.3 0 0 0 0.42 0.07 5.75 5.75 0 0 0 1.61 -1.71 10.16 10.16 0 0 0 0.85 -1.77 13.37 13.37 0 0 1 2.67 0.43h0.05a1.82 1.82 0 0 1 0.14 0.59 3.25 3.25 0 0 1 -0.05 0.84 8 8 0 0 1 -0.29 1.17 4 4 0 0 1 -0.31 0.68A5.77 5.77 0 0 1 20 18.67a5.89 5.89 0 0 1 -1.64 1 19.54 19.54 0 0 1 -1.62 -2.15 0.35 0.35 0 0 0 -0.48 0.12 0.64 0.64 0 0 0 0.08 0.54 18.45 18.45 0 0 0 1 1.57 6.31 6.31 0 0 0 0.55 0.68 0.48 0.48 0 0 0 0.46 0.13 6.19 6.19 0 0 0 2.23 -1.08 6.81 6.81 0 0 0 1.73 -1.79 4.3 4.3 0 0 0 0.42 -0.87 8.93 8.93 0 0 0 0.35 -1.32 4.24 4.24 0 0 0 0.06 -1.45Z" fill="#020202" fill-rule="evenodd" stroke-width="1"></path>
    <path d="M1.64 11a5.94 5.94 0 0 0 0.86 0.18c0.66 0.11 1.52 0.2 1.91 0.22a0.65 0.65 0 0 0 0.51 -0.16 0.34 0.34 0 0 0 -0.08 -0.48c-0.12 -0.09 -1.26 -0.09 -2.72 -0.51a5.13 5.13 0 0 1 0.21 -1.82 5.74 5.74 0 0 1 0.87 -1.84A4.18 4.18 0 0 1 3.71 6a10.72 10.72 0 0 1 1 -0.76 3.57 3.57 0 0 1 0.78 -0.41 1.89 1.89 0 0 1 0.64 -0.14 11.79 11.79 0 0 1 1.53 2.17 10.34 10.34 0 0 0 -1.27 1.49 5.67 5.67 0 0 0 -0.92 2.15 0.31 0.31 0 0 0 0.24 0.36 0.3 0.3 0 0 0 0.36 -0.23 4.7 4.7 0 0 1 0.69 -1.5 8.88 8.88 0 0 1 1.58 -1.66 0.78 0.78 0 0 0 0.31 -0.62 9.22 9.22 0 0 0 -1.23 -2.28 4.4 4.4 0 0 0 -0.68 -0.81 0.73 0.73 0 0 0 -0.37 -0.18 2.86 2.86 0 0 0 -1.07 0.1 4.38 4.38 0 0 0 -1.3 0.64 9.44 9.44 0 0 0 -1.09 0.87 6.07 6.07 0 0 0 -0.63 0.74 6.78 6.78 0 0 0 -0.93 2.27 6 6 0 0 0 -0.05 2.44 0.49 0.49 0 0 0 0.34 0.36Z" fill="#020202" fill-rule="evenodd" stroke-width="1"></path>
    <path d="M15.66 7.42a8.88 8.88 0 0 1 1.58 1.66 4.7 4.7 0 0 1 0.69 1.5 0.3 0.3 0 0 0 0.59 -0.13 5.51 5.51 0 0 0 -0.91 -2.15 11.6 11.6 0 0 0 -1.27 -1.49 12.15 12.15 0 0 1 1.53 -2.11 1.89 1.89 0 0 1 0.64 0.14 3.2 3.2 0 0 1 0.78 0.42 9.05 9.05 0 0 1 1 0.75 4.18 4.18 0 0 1 0.51 0.57 5.74 5.74 0 0 1 0.87 1.85 5.19 5.19 0 0 1 0.21 1.83 21.26 21.26 0 0 1 -2.28 0.44 0.73 0.73 0 0 0 -0.44 0.06 0.34 0.34 0 0 0 -0.08 0.48 0.65 0.65 0 0 0 0.51 0.16 17.8 17.8 0 0 0 1.91 -0.22 5.94 5.94 0 0 0 0.86 -0.18 0.48 0.48 0 0 0 0.34 -0.37 6 6 0 0 0 -0.05 -2.44 6.73 6.73 0 0 0 -0.93 -2.26 5.52 5.52 0 0 0 -0.63 -0.75A11.44 11.44 0 0 0 20 4.27a4.84 4.84 0 0 0 -1.31 -0.64 2.86 2.86 0 0 0 -1.07 -0.1 0.79 0.79 0 0 0 -0.38 0.18 5.4 5.4 0 0 0 -0.67 0.81 9.4 9.4 0 0 0 -1.22 2.28 0.78 0.78 0 0 0 0.31 0.62Z" fill="#020202" fill-rule="evenodd" stroke-width="1"></path>
    <path d="M16.26 21.28a20.83 20.83 0 0 0 -0.93 -1.93 0.69 0.69 0 0 0 -0.43 -0.35 0.33 0.33 0 0 0 -0.35 0.33c0 0.14 0.6 1.1 1 2.47a5.89 5.89 0 0 1 -1.73 0.81 6 6 0 0 1 -2.1 0.27 3.48 3.48 0 0 1 -0.77 -0.11 8.74 8.74 0 0 1 -1.19 -0.39A3 3 0 0 1 9 22a2 2 0 0 1 -0.45 -0.42 11.67 11.67 0 0 1 1 -2.39 11.53 11.53 0 0 0 2 0.24A6 6 0 0 0 14 19a0.31 0.31 0 0 0 0.18 -0.39 0.3 0.3 0 0 0 -0.39 -0.18 5 5 0 0 1 -1.68 0.23 9.7 9.7 0 0 1 -2.32 -0.4 0.8 0.8 0 0 0 -0.68 0.07 9.67 9.67 0 0 0 -1.34 2.2 5 5 0 0 0 -0.35 1 0.75 0.75 0 0 0 0.05 0.43 2.4 2.4 0 0 0 0.68 0.83 4 4 0 0 0 1.25 0.72 9.57 9.57 0 0 0 1.34 0.43 5.52 5.52 0 0 0 1 0.11 7.33 7.33 0 0 0 2.46 -0.45 6.29 6.29 0 0 0 2.16 -1.26 0.47 0.47 0 0 0 0.14 -0.42 2.82 2.82 0 0 0 -0.24 -0.64Z" fill="#020202" fill-rule="evenodd" stroke-width="1"></path>
  </g>
</svg>