<svg xmlns="http://www.w3.org/2000/svg" viewBox="0 0 24 24" id="Lock-Combination-Door--Streamline-Freehand">
  <desc>
    Lock Combination Door Streamline Icon: https://streamlinehq.com
  </desc>
  <g>
    <path d="M4.64 4.59a1.69 1.69 0 0 0 -0.47 1.28 1.39 1.39 0 0 0 1.46 1.44c1.78 -0.06 1.66 -2 1.26 -2.54A1.36 1.36 0 0 0 6 4.3a1.62 1.62 0 0 0 -1.36 0.29Zm1 1.84a0.48 0.48 0 0 1 -0.42 -0.54 0.85 0.85 0 0 1 0.13 -0.53c0.15 -0.16 0.39 -0.12 0.51 -0.12s0.35 0 0.42 0.13 0.58 1.22 -0.6 1.06Z" fill="#020202" fill-rule="evenodd" stroke-width="1"></path>
    <path d="M8.38 4.59a1.69 1.69 0 0 0 -0.47 1.28 1.39 1.39 0 0 0 1.47 1.44c1.77 -0.06 1.66 -2 1.26 -2.54a1.36 1.36 0 0 0 -0.92 -0.47 1.63 1.63 0 0 0 -1.34 0.29Zm1 1.84A0.47 0.47 0 0 1 9 5.89a0.79 0.79 0 0 1 0.13 -0.53 0.63 0.63 0 0 1 0.51 -0.12c0.19 0 0.34 0 0.42 0.13s0.55 1.22 -0.64 1.06Z" fill="#020202" fill-rule="evenodd" stroke-width="1"></path>
    <path d="M12.13 4.59a1.69 1.69 0 0 0 -0.47 1.28 1.39 1.39 0 0 0 1.46 1.44c1.78 -0.06 1.66 -2 1.26 -2.54a1.31 1.31 0 0 0 -0.91 -0.47 1.63 1.63 0 0 0 -1.34 0.29Zm1 1.84a0.47 0.47 0 0 1 -0.41 -0.54 0.8 0.8 0 0 1 0.12 -0.53c0.15 -0.16 0.39 -0.12 0.52 -0.12s0.34 0 0.41 0.13 0.58 1.22 -0.6 1.06Z" fill="#020202" fill-rule="evenodd" stroke-width="1"></path>
    <path d="M16 21.07a0.3 0.3 0 0 0 -0.29 0.29c0 0.74 0.16 1.27 -0.08 1.6s-0.58 0.3 -1.43 0.32c-0.6 0 -4.74 0 -7.79 -0.15a18.17 18.17 0 0 1 -2.59 -0.28 1.17 1.17 0 0 1 -0.4 -0.11s0 -0.11 -0.06 -0.2a10.3 10.3 0 0 1 -0.25 -1.63c-0.2 -2.05 -0.28 -5.32 -0.25 -8.59l0 -1.62c1.53 0 3.15 0 4.81 -0.07l2.65 -0.1c0.9 0 1.79 -0.08 2.65 -0.07a24.83 24.83 0 0 1 2.63 0.12 0.33 0.33 0 0 0 0.1 -0.65 31.78 31.78 0 0 0 -5.39 -0.48c-1.07 0 -2.16 0.05 -3.23 0.13 -1.45 0.12 -2.86 0.31 -4.2 0.48a59.89 59.89 0 0 1 0.42 -6.29 9.67 9.67 0 0 1 0.3 -1.39 0.8 0.8 0 0 1 0.14 -0.33c0.77 -0.67 2.45 -0.93 4.33 -1a34.59 34.59 0 0 1 7.17 0.48c0.21 0 0.33 0.29 0.45 0.62a10 10 0 0 1 0.48 2.74 70.77 70.77 0 0 1 -0.26 9.63 0.32 0.32 0 0 0 0.29 0.35 0.33 0.33 0 0 0 0.36 -0.29A72.5 72.5 0 0 0 17 4.81a8.91 8.91 0 0 0 -0.68 -3.42 1.34 1.34 0 0 0 -0.9 -0.76A35.06 35.06 0 0 0 8 0C5.86 0.08 3.94 0.46 3 1.23a4.62 4.62 0 0 0 -0.8 2.38 68.16 68.16 0 0 0 -0.48 8.71 66.62 66.62 0 0 0 0.56 9.8 2.69 2.69 0 0 0 0.46 1.26 1.82 1.82 0 0 0 0.85 0.34 20.21 20.21 0 0 0 2.76 0.28c3.08 0.11 7.24 0 7.85 0 1.17 0 1.68 -0.28 1.91 -0.62s0.15 -1 0.16 -1.93a0.31 0.31 0 0 0 -0.27 -0.38Z" fill="#020202" fill-rule="evenodd" stroke-width="1"></path>
    <path d="M21.54 17.34a1.78 1.78 0 0 0 -0.66 -0.33c-0.41 -0.11 -0.89 -0.13 -1.23 -0.2L16.37 16a17.76 17.76 0 0 0 -2.16 -0.38 19.64 19.64 0 0 0 -2.21 -0.1c0 -0.07 0 -0.15 -0.08 -0.22a3.2 3.2 0 0 0 -4.45 -1.45 3.56 3.56 0 0 0 -1.95 2.56A3.07 3.07 0 0 0 8.16 20a5.56 5.56 0 0 0 2.3 -0.21l0.07 0a0.36 0.36 0 0 0 0.24 -0.06 3.44 3.44 0 0 0 1.42 -3.64 15.25 15.25 0 0 1 1.92 0.23 16.39 16.39 0 0 1 2 0.5l3.27 1c0.28 0.07 0.67 0.1 1 0.18a1 1 0 0 1 0.4 0.17 0.74 0.74 0 0 1 0.1 1.08 1.93 1.93 0 0 1 -1.25 0.85 5.69 5.69 0 0 1 -1.76 -0.1c-0.92 -0.19 -1.81 -0.51 -2.77 -0.73 -0.54 -0.13 -1.16 -0.21 -1.75 -0.34a4.18 4.18 0 0 1 -1 -0.36 0.34 0.34 0 0 0 -0.45 0.12 0.33 0.33 0 0 0 0.13 0.45 4.42 4.42 0 0 0 0.88 0.39c0.66 0.21 1.4 0.34 2 0.51 1 0.28 1.84 0.65 2.76 0.89a6.59 6.59 0 0 0 2.05 0.22 3.09 3.09 0 0 0 2.33 -1.75 1.7 1.7 0 0 0 -0.51 -2.06Zm-11.16 1.88a0.34 0.34 0 0 0 -0.06 0.06 5.36 5.36 0 0 1 -1.7 0.1 2.42 2.42 0 0 1 -1.42 -0.62 2.19 2.19 0 0 1 -0.63 -2.13A2.52 2.52 0 0 1 8 14.86a2.25 2.25 0 0 1 3.16 0.87 2.72 2.72 0 0 1 -0.78 3.49Z" fill="#4C57E6" fill-rule="evenodd" stroke-width="1"></path>
  </g>
</svg>