<svg xmlns="http://www.w3.org/2000/svg" viewBox="0 0 24 24" id="Locker-Room-Suitcase-Umbrella--Streamline-Freehand">
  <desc>
    Locker Room Suitcase Umbrella Streamline Icon: https://streamlinehq.com
  </desc>
  <g>
    <path d="M7.52 7.18a4.73 4.73 0 0 1 1 -0.63 2.23 2.23 0 0 0 0.85 -0.75 1.71 1.71 0 0 0 0.14 -1.34A2.4 2.4 0 0 0 7.65 2.8a2.65 2.65 0 0 0 -2.35 0.6 2.88 2.88 0 0 0 -0.68 0.87 1.48 1.48 0 0 0 -0.07 0.8 0.29 0.29 0 0 0 0.33 0.27 0.3 0.3 0 0 0 0.26 -0.34 0.86 0.86 0 0 1 0.1 -0.45 2 2 0 0 1 0.6 -0.55 1.8 1.8 0 0 1 1.55 -0.15 1.42 1.42 0 0 1 1.07 0.9 0.66 0.66 0 0 1 -0.08 0.67c-0.39 0.43 -1.08 0.71 -1.47 1.2a1.56 1.56 0 0 0 -0.39 0.8 2.41 2.41 0 0 0 0 0.79 0.33 0.33 0 0 0 0.36 0.31 0.34 0.34 0 0 0 0.31 -0.37 2.7 2.7 0 0 1 0 -0.59 1 1 0 0 1 0.33 -0.38Z" fill="#020202" fill-rule="evenodd" stroke-width="1"></path>
    <path d="M7.86 10.29c0 -0.53 -0.53 -1 -1 -1a1.33 1.33 0 0 0 -0.9 0.53 0.78 0.78 0 0 0 0.58 1.14c0.46 0.04 1.29 -0.12 1.32 -0.67Z" fill="#020202" fill-rule="evenodd" stroke-width="1"></path>
    <path d="M5.91 12.49a5.82 5.82 0 0 1 -0.91 -0.13 5.62 5.62 0 0 1 -0.88 -0.28 5.17 5.17 0 0 1 -0.75 -0.36 6.32 6.32 0 0 1 -0.68 -0.47 4.18 4.18 0 0 1 -1.45 -2.44 6.29 6.29 0 0 1 0.13 -2.92 6.93 6.93 0 0 1 1.36 -2.64 7 7 0 0 1 1.46 -1.36 4.55 4.55 0 0 1 5.58 0 4.94 4.94 0 0 1 1.3 1.1 6 6 0 0 1 0.76 1.13 6.46 6.46 0 0 1 0.4 0.84 6.17 6.17 0 0 1 0.44 2.32 0.3 0.3 0 1 0 0.59 0.06 6.54 6.54 0 0 0 -0.07 -2.68 4.72 4.72 0 0 0 -0.35 -1 5.77 5.77 0 0 0 -0.93 -1.38 5.48 5.48 0 0 0 -1.34 -1 6.57 6.57 0 0 0 -6.9 -0.13 7.58 7.58 0 0 0 -1.78 1.39A7.54 7.54 0 0 0 0.27 5.6a7.08 7.08 0 0 0 -0.05 3.45A5 5 0 0 0 2.15 12a8.39 8.39 0 0 0 0.81 0.5 6.77 6.77 0 0 0 0.88 0.36 6 6 0 0 0 1 0.26 7.18 7.18 0 0 0 1 0.1 0.34 0.34 0 0 0 0.36 -0.32 0.35 0.35 0 0 0 -0.29 -0.41Z" fill="#020202" fill-rule="evenodd" stroke-width="1"></path>
    <path d="m17.67 18.09 0 -2.33 -0.08 -1.11c-0.06 -0.48 -0.58 -0.49 -0.75 0l-0.07 1.11c-0.07 0.64 -0.16 1.28 -0.22 1.92s-0.08 1.28 -0.09 1.93c0 1 0 1.93 0.07 2.89 0.06 0.58 0.71 0.45 0.82 -0.22 0.06 -1 0.13 -1.55 0.21 -2.54 0.05 -0.58 0.09 -1.11 0.11 -1.65Z" fill="#4C57E6" fill-rule="evenodd" stroke-width="1"></path>
    <path d="M11.52 18c0 -0.51 -0.06 -1 -0.11 -1.53l-0.2 -1.67c-0.1 -0.51 -0.67 -0.39 -0.75 0l-0.05 1.7 0 1.87c0 0.62 0 1.27 0.08 1.9l0.08 2c0 0.37 0.71 0.48 0.78 0l0.17 -2.06c-0.03 -0.71 0.02 -1.46 0 -2.21Z" fill="#4C57E6" fill-rule="evenodd" stroke-width="1"></path>
    <path d="M21.26 19.14c0 -1.08 0 -2.17 -0.08 -3.16a6 6 0 0 0 -0.07 -1.4 1.66 1.66 0 0 0 -0.36 -0.68 2 2 0 0 0 -1.06 -0.52 11.18 11.18 0 0 0 -2.21 -0.19l-0.89 0 0.07 -1.58a3.26 3.26 0 0 0 -0.06 -0.81 1.08 1.08 0 0 0 -0.28 -0.47 0.87 0.87 0 0 0 -0.42 -0.2 4.75 4.75 0 0 0 -0.5 0l-1 0 -0.7 0 -0.9 0.1 -0.69 0.1a2.63 2.63 0 0 0 -0.65 0.18 1.07 1.07 0 0 0 -0.35 0.23 0.85 0.85 0 0 0 -0.11 0.26 2 2 0 0 0 0 0.49l0.11 1.24a5.13 5.13 0 0 0 0.09 0.67l0 0.15h-0.11c-0.33 0 -2.38 0.19 -2.4 0.19a4.65 4.65 0 0 0 -0.74 0 1.23 1.23 0 0 0 -0.4 0.19 1.42 1.42 0 0 0 -0.42 0.71 4.5 4.5 0 0 0 -0.11 1c0 0.65 -0.06 1.3 -0.07 2s0 1.32 0 2l0 2.2a3.49 3.49 0 0 0 0 0.91 1.13 1.13 0 0 0 0.26 0.51 1.5 1.5 0 0 0 0.58 0.38 3.67 3.67 0 0 0 0.79 0.15l2.22 0.07c1.38 0 2.94 0.09 4.31 0.12l1.88 0 2.2 0a4.47 4.47 0 0 0 1 -0.22A1.36 1.36 0 0 0 21 23a4.86 4.86 0 0 0 0.27 -1.75c0 -0.67 0 -1.39 -0.01 -2.11Zm-9.4 -7.61a0.37 0.37 0 0 1 0 -0.09l0.39 0 0.65 -0.05 0.91 -0.08 1.56 -0.06c0.07 0 0.23 0.06 0.3 0s0 0.06 0 0.09l0 0.36 0.1 1.58c-1 0.08 -2 0.19 -3 0.26l-1 0 0 -0.22 0 -0.61Zm8.34 7.6c0 0.71 0 1.42 -0.07 2.07a5.55 5.55 0 0 1 -0.08 1c0 0.18 -0.07 0.38 -0.24 0.44a6.62 6.62 0 0 1 -1.33 0.32c-2.06 0.11 -7 -0.1 -9.87 -0.21a2.59 2.59 0 0 1 -0.47 -0.05 0.57 0.57 0 0 1 -0.26 -0.12 0.39 0.39 0 0 1 -0.06 -0.21 4.16 4.16 0 0 1 0 -0.5l0 -2.28c0 -0.64 -0.06 -1.29 -0.07 -1.93s0 -1.3 0 -1.94a3.62 3.62 0 0 1 0.06 -0.85 0.65 0.65 0 0 1 0.19 -0.34 0.4 0.4 0 0 1 0.19 -0.07 5.21 5.21 0 0 1 0.55 0 21.29 21.29 0 0 1 4.14 -0.19 33.67 33.67 0 0 1 6.35 0 1.63 1.63 0 0 1 0.84 0.3 0.8 0.8 0 0 1 0.17 0.44 9.55 9.55 0 0 1 0 1.07c-0.03 0.92 -0.02 1.99 -0.04 3.05Z" fill="#020202" fill-rule="evenodd" stroke-width="1"></path>
    <path d="M23.81 5.61a1.27 1.27 0 0 0 -0.54 -0.51 3.61 3.61 0 0 0 -1.09 -0.23c-0.42 0 -0.86 -0.08 -1.29 -0.09l0 -0.21 0 -0.88a12.18 12.18 0 0 0 -0.06 -1.93 2.18 2.18 0 0 0 -0.78 -1.34A2.46 2.46 0 0 0 18.69 0a3.06 3.06 0 0 0 -1.28 0.29 1.65 1.65 0 0 0 -0.7 0.78 3.81 3.81 0 0 0 -0.32 1.21 0.3 0.3 0 0 0 0.25 0.34 0.29 0.29 0 0 0 0.36 -0.25 2.92 2.92 0 0 1 0.32 -0.79c0.12 -0.21 0.26 -0.4 0.42 -0.44a2.35 2.35 0 0 1 0.91 -0.06 1.4 1.4 0 0 1 0.74 0.26 1.2 1.2 0 0 1 0.46 0.69 15.31 15.31 0 0 1 0.26 1.75c0 0.17 0 0.46 0.05 0.76v0.22l-1.82 0a5.52 5.52 0 0 0 -1.34 0.17 1.11 1.11 0 0 0 -0.69 0.47 1.42 1.42 0 0 0 -0.13 0.58 3.75 3.75 0 0 0 0.14 1l0.71 2.17a0.3 0.3 0 0 0 0.39 0.18 0.3 0.3 0 0 0 0.2 -0.33l-0.53 -2.19a2.51 2.51 0 0 1 0 -0.55 0.88 0.88 0 0 1 0.05 -0.39s0.06 0 0.1 0l0.33 0a6.17 6.17 0 0 1 0.79 0c0.86 0 1.75 0 2.62 0.1 0.37 0 0.74 0 1.1 0.1a4.7 4.7 0 0 1 0.5 0c0.11 0 0.24 0 0.29 0.1a1.33 1.33 0 0 1 0 0.72 9.89 9.89 0 0 1 -0.23 1q-0.33 1.26 -0.6 2.49c-0.19 0.84 -0.37 1.67 -0.53 2.51a0.33 0.33 0 0 0 0.25 0.4 0.34 0.34 0 0 0 0.41 -0.25c0.22 -0.82 0.44 -1.63 0.68 -2.45s0.49 -1.6 0.76 -2.42a8 8 0 0 0 0.39 -1.6 1.74 1.74 0 0 0 -0.19 -0.96Z" fill="#020202" fill-rule="evenodd" stroke-width="1"></path>
  </g>
</svg>