<svg xmlns="http://www.w3.org/2000/svg" viewBox="0 0 24 24" id="Lock-Finger-Touch--Streamline-Freehand">
  <desc>
    Lock Finger Touch Streamline Icon: https://streamlinehq.com
  </desc>
  <g>
    <path d="M7.52 16.06c-1.38 0 -2.71 -0.1 -3.78 -0.19a13.9 13.9 0 0 1 -1.95 -0.28 0.93 0.93 0 0 1 -0.2 -0.07 53.78 53.78 0 0 1 -0.34 -7c0 -2.21 0 -4.41 0.11 -5.81a4.45 4.45 0 0 1 0.13 -1.09s-0.05 0.08 -0.06 0.05c-0.1 -0.25 0.77 -0.17 1.48 -0.25 1.79 -0.2 4.66 -0.32 7.28 -0.34a40.47 40.47 0 0 1 4.81 0.13 3.19 3.19 0 0 1 0.89 0.17c0 0.05 0.07 0.19 0.1 0.35 0.08 0.48 0.15 1.26 0.21 2.19 0.07 1.24 0.11 2.74 0.14 4.21a0.31 0.31 0 0 0 0.3 0.29 0.29 0.29 0 0 0 0.29 -0.3c0 -2.11 0 -4.28 -0.08 -5.65a3.55 3.55 0 0 0 -0.32 -1.63 3.56 3.56 0 0 0 -1.7 -0.52A49.4 49.4 0 0 0 8.65 0a48.5 48.5 0 0 0 -7 0.4A2 2 0 0 0 0.62 0.84a3.33 3.33 0 0 0 -0.35 1.43C0.17 3.38 0.14 5.14 0.18 7c0.08 4 0.44 8.48 0.7 9a0.71 0.71 0 0 0 0.43 0.33 5.35 5.35 0 0 0 1.08 0.22 49.64 49.64 0 0 0 5.12 0.21 0.32 0.32 0 0 0 0.34 -0.33 0.34 0.34 0 0 0 -0.33 -0.37Z" fill="#020202" stroke-width="1"></path>
    <path d="M8.29 12.27C7 12.15 5.76 12 5.18 11.86l0 -0.42c-0.08 -0.52 -0.16 -1.22 -0.2 -1.9a11.39 11.39 0 0 1 0 -1.83 0.29 0.29 0 0 0 -0.57 -0.13 11.65 11.65 0 0 0 -0.39 2.92 7.52 7.52 0 0 0 0.16 1.62 1.28 1.28 0 0 0 0.29 0.6 0.66 0.66 0 0 0 0.29 0.17 3.61 3.61 0 0 0 0.74 0.1l2.88 0a0.34 0.34 0 0 0 0 -0.67Z" fill="#4C57E6" stroke-width="1"></path>
    <path d="M5.07 7a0.35 0.35 0 0 0 0.41 0.25 20 20 0 0 1 3.19 0l1.07 0 1.08 0a9.18 9.18 0 0 1 1.31 0.12 0.29 0.29 0 0 0 0.37 -0.19 0.3 0.3 0 0 0 -0.2 -0.37l-0.49 -0.19a4.12 4.12 0 0 0 -0.71 -2.48 3.16 3.16 0 0 0 -2.63 -1.2 3.54 3.54 0 0 0 -1.83 0.54A3 3 0 0 0 5.52 5a2.32 2.32 0 0 0 -0.13 0.58 3.49 3.49 0 0 0 0 0.56 3.8 3.8 0 0 0 0 0.38l-0.1 0a0.33 0.33 0 0 0 -0.22 0.48ZM6 6.15a2.34 2.34 0 0 1 0.07 -0.45 1.37 1.37 0 0 1 0.15 -0.38 2.2 2.2 0 0 1 0.94 -1 2.59 2.59 0 0 1 1.31 -0.28 2.18 2.18 0 0 1 1.86 0.67 3.19 3.19 0 0 1 0.74 1.67c-0.37 -0.09 -0.78 -0.17 -1.21 -0.23a9.1 9.1 0 0 0 -1.05 -0.07 9.08 9.08 0 0 0 -1 0 14.36 14.36 0 0 0 -1.81 0.3s0 -0.2 0 -0.23Z" fill="#4C57E6" stroke-width="1"></path>
    <path d="M9.44 9.52a0.33 0.33 0 0 0 -0.33 0.34c0 0.18 -0.19 0.19 -0.34 0.17a1 1 0 0 1 -0.47 -0.21c-0.07 0 -0.15 -0.08 -0.15 -0.15a0.72 0.72 0 0 1 0.13 -0.55 0.63 0.63 0 0 1 0.34 -0.12c0.55 0 0.56 0.35 0.74 0.37a0.31 0.31 0 0 0 0.32 -0.28 0.63 0.63 0 0 0 -0.26 -0.53 2 2 0 0 0 -0.79 -0.4 1.21 1.21 0 0 0 -1.24 0.42A1.69 1.69 0 0 0 7 9.71a1.15 1.15 0 0 0 0.44 0.83 1.77 1.77 0 0 0 1 0.37c0.74 0.06 1.43 -0.21 1.34 -1.05a0.34 0.34 0 0 0 -0.34 -0.34Z" fill="#4C57E6" stroke-width="1"></path>
    <path d="M23.62 19.2c-0.21 -1.42 -0.49 -3.08 -0.65 -4.17a2.87 2.87 0 0 0 -0.4 -1 2.45 2.45 0 0 0 -0.79 -0.78 1.82 1.82 0 0 0 -1.07 -0.2 1.8 1.8 0 0 0 -1 0.44l-0.05 0a3.89 3.89 0 0 0 -0.42 -0.53 1.81 1.81 0 0 0 -0.41 -0.34 1.68 1.68 0 0 0 -1.45 -0.1 1.91 1.91 0 0 0 -0.72 0.47l0 -0.07c-0.33 -0.79 -0.61 -1.67 -1 -2.48a7.73 7.73 0 0 0 -0.58 -1.06 2.48 2.48 0 0 0 -0.86 -0.76 1.24 1.24 0 0 0 -1 -0.06A2.11 2.11 0 0 0 12 10.3a7.07 7.07 0 0 0 0.27 2.58l0.23 0.79 0.37 1.11 0.44 1.33 0.15 0.47a4.75 4.75 0 0 0 -0.85 -0.51 1.72 1.72 0 0 0 -1.49 0.09 1.64 1.64 0 0 0 -0.74 1.29 2.27 2.27 0 0 0 0.17 1.23 4.27 4.27 0 0 0 1.1 1.3l1.19 0.89c0.09 0.1 1.32 2 1.83 2.7l0.2 0.29 0.07 0.07a0.27 0.27 0 0 0 0.31 0 0.26 0.26 0 0 0 0.16 -0.19c0 -0.16 0 -0.17 -0.25 -0.54 -0.5 -0.77 -1.71 -2.73 -1.81 -2.84a2.89 2.89 0 0 0 -0.25 -0.24c-0.3 -0.25 -0.68 -0.47 -0.94 -0.72a4.65 4.65 0 0 1 -0.79 -0.9 1.42 1.42 0 0 1 -0.17 -1 0.86 0.86 0 0 1 0.36 -0.65 0.85 0.85 0 0 1 0.73 0 4 4 0 0 1 0.65 0.44 4.5 4.5 0 0 1 0.63 0.55 2.56 2.56 0 0 0 0.39 0.3 0.83 0.83 0 0 0 0.3 0.09 0.51 0.51 0 0 0 0.49 -0.31 0.67 0.67 0 0 0 0.06 -0.33 2.75 2.75 0 0 0 -0.12 -0.51l-0.39 -1.36 -0.4 -1.33 -0.35 -1.13 -0.21 -0.72a5.81 5.81 0 0 1 -0.22 -2.14 1 1 0 0 1 0.49 -0.83 2.57 2.57 0 0 1 0.51 0.39 7.4 7.4 0 0 1 0.5 0.92c0.37 0.8 0.66 1.66 1 2.44 0.62 1.4 0.7 2.11 1.29 1.91s0.31 -0.54 0.3 -0.89a1.17 1.17 0 0 1 0.07 -0.49 0.76 0.76 0 0 1 0.45 -0.43 0.72 0.72 0 0 1 0.61 0 1.14 1.14 0 0 1 0.27 0.23 2.86 2.86 0 0 1 0.28 0.35c0.09 0.12 0.16 0.38 0.27 0.52a0.61 0.61 0 0 0 0.39 0.26 0.54 0.54 0 0 0 0.55 -0.34 0.8 0.8 0 0 1 0.71 -0.59 0.81 0.81 0 0 1 0.53 0.08 1.35 1.35 0 0 1 0.5 0.48 1.88 1.88 0 0 1 0.3 0.67c0.19 1.09 0.52 2.73 0.75 4.15 0.12 0.67 0.21 1.29 0.26 1.77a0.34 0.34 0 0 0 0.36 0.31 0.33 0.33 0 0 0 0.3 -0.37c-0.02 -0.42 -0.1 -1.05 -0.19 -1.74Z" fill="#020202" stroke-width="1"></path>
  </g>
</svg>