<svg xmlns="http://www.w3.org/2000/svg" viewBox="0 0 24 24" id="Lock-Combination--Streamline-Freehand">
  <desc>
    Lock Combination Streamline Icon: https://streamlinehq.com
  </desc>
  <g>
    <path d="M12.53 17.92a0.3 0.3 0 0 0 -0.36 0.23 5.85 5.85 0 0 0 -0.44 1.19l-0.39 0a1.69 1.69 0 0 1 -1.18 -0.64 0.31 0.31 0 0 0 -0.43 -0.06 0.3 0.3 0 0 0 -0.05 0.42 2.32 2.32 0 0 0 1.56 1 2.08 2.08 0 0 0 0.43 0 0.61 0.61 0 0 0 0 0.14c0 0.41 0.1 0.76 0.13 1.14a0.35 0.35 0 0 0 0.31 0.38 0.35 0.35 0 0 0 0.37 -0.31 10.16 10.16 0 0 0 0.27 -1.12l0 -0.35a7.91 7.91 0 0 0 1 -0.33 3.56 3.56 0 0 0 2.21 -2.51l0 -0.17h0.28c0.35 0 0.69 -0.06 1.11 -0.05a0.3 0.3 0 0 0 0.14 -0.59 6.26 6.26 0 0 0 -1.28 -0.49l-0.25 0a5.29 5.29 0 0 0 -0.7 -1.93 2.92 2.92 0 0 0 -1.94 -1.34 2.42 2.42 0 0 0 -0.47 -0.06c0 -0.53 -0.07 -0.73 -0.07 -1.24a0.3 0.3 0 1 0 -0.58 -0.13 5.43 5.43 0 0 0 -0.47 1.28 0.17 0.17 0 0 1 0 0.07 5.45 5.45 0 0 0 -1.63 0.47 3.36 3.36 0 0 0 -2 2.6l-0.9 0.09a0.34 0.34 0 0 0 -0.38 0.3 0.34 0.34 0 0 0 0.29 0.38c0.35 0.1 0.68 0.19 1.05 0.27a4.54 4.54 0 0 0 0.36 1 0.35 0.35 0 0 0 0.45 0.17 0.34 0.34 0 0 0 0.17 -0.45 4 4 0 0 1 -0.2 -0.65h0.23c0.35 0 0.69 -0.06 1.11 -0.06a0.3 0.3 0 0 0 0.14 -0.58 5.55 5.55 0 0 0 -1.28 -0.49l-0.2 0a2.57 2.57 0 0 1 1.6 -1.72 4.07 4.07 0 0 1 1.25 -0.29c0 0.26 0.08 0.52 0.1 0.79a0.34 0.34 0 1 0 0.68 0.07c0.08 -0.27 0.14 -0.54 0.2 -0.81l0.33 0.06a1.88 1.88 0 0 1 1.22 0.82 4.71 4.71 0 0 1 0.55 1.4 5 5 0 0 1 -0.56 0.06 0.35 0.35 0 0 0 -0.38 0.3 0.34 0.34 0 0 0 0.3 0.38c0.23 0.07 0.45 0.13 0.68 0.18a0.76 0.76 0 0 0 0 0.15 2.69 2.69 0 0 1 -1.49 1.91 6.72 6.72 0 0 1 -0.67 0.28c0 -0.25 -0.05 -0.51 -0.05 -0.81a0.31 0.31 0 0 0 -0.17 -0.35Z" fill="#4C57E6" fill-rule="evenodd" stroke-width="1"></path>
    <path d="M19.81 15.15a0.34 0.34 0 0 0 -0.38 -0.3 0.34 0.34 0 0 0 -0.3 0.37c0.5 5.32 -2.31 7.55 -5.57 7.77a9.6 9.6 0 0 1 -6.16 -1.84 4.83 4.83 0 0 1 -2.12 -3.41 8.37 8.37 0 0 1 1.35 -5.81 6.36 6.36 0 0 1 5.26 -2.49c4.85 0 6.35 2 6.73 3.75a0.3 0.3 0 0 0 0.36 0.23 0.3 0.3 0 0 0 0.23 -0.35 4.65 4.65 0 0 0 -1.73 -2.86c0 -1.27 0 -2.58 -0.11 -3.85 -0.07 -1 -0.18 -1.88 -0.33 -2.75a4.1 4.1 0 0 0 -2 -2.7A6.11 6.11 0 0 0 11.92 0a4.39 4.39 0 0 0 -4.7 4c-0.07 0.63 -0.13 1.58 -0.17 2.66S7 9 6.93 10.1a7.19 7.19 0 0 0 -1.17 1.17 9.43 9.43 0 0 0 -1.63 6.56 5.92 5.92 0 0 0 2.59 4.22A10.49 10.49 0 0 0 13.64 24c3.66 -0.37 6.88 -2.88 6.17 -8.85ZM7.86 6.69c0.11 -1.05 0.23 -2 0.33 -2.58a3.41 3.41 0 0 1 3.71 -3 5.32 5.32 0 0 1 2.58 0.72 3.09 3.09 0 0 1 1.58 1.94 27.12 27.12 0 0 1 0.52 3.3c0.09 0.87 0.14 1.74 0.18 2.61a10.88 10.88 0 0 0 -4.86 -1.12 6.85 6.85 0 0 0 -4.07 0.86c0.08 -1 -0.06 -1.8 0.03 -2.73Z" fill="#020202" fill-rule="evenodd" stroke-width="1"></path>
  </g>
</svg>