<svg xmlns="http://www.w3.org/2000/svg" viewBox="0 0 24 24" id="Logic-Problem-Sad-Face--Streamline-Freehand">
  <desc>
    Logic Problem Sad Face Streamline Icon: https://streamlinehq.com
  </desc>
  <g>
    <path d="M24 11.9c-0.1 -4.37 -0.43 -8.68 -0.76 -9.35a0.64 0.64 0 0 0 -0.34 -0.3A5.11 5.11 0 0 0 21.74 2c-1.88 -0.2 -5.95 -0.3 -10 -0.29a93.81 93.81 0 0 0 -10 0.41 4.1 4.1 0 0 0 -1.22 0.38 1.85 1.85 0 0 0 -0.28 0.91C0.06 4.68 0 7.31 0 10.19 0 14 0.11 18.3 0.26 20.28a4.2 4.2 0 0 0 0.24 1.33 0.68 0.68 0 0 0 0.28 0.22 4.1 4.1 0 0 0 1.13 0.22c1.9 0.2 6 0.24 10.1 0.17s8.18 -0.25 10.08 -0.41a10.22 10.22 0 0 0 1.08 -0.14 0.65 0.65 0 0 0 0.52 -0.47 58.72 58.72 0 0 0 0.31 -9.3Zm-1.32 8.71 -1.75 0.15c-4.33 0.29 -13.88 0.61 -18 0.41A9.14 9.14 0 0 1 1.26 21c0 -0.16 -0.08 -0.5 -0.11 -0.81 -0.19 -2 -0.37 -6.22 -0.44 -10 0 -2.85 0 -5.45 0.1 -6.67 0 -0.28 0 -0.53 0.1 -0.57s0.32 0 0.68 -0.08a68.74 68.74 0 0 1 7.92 -0.31c4.54 0 9.59 0.16 11.91 0.42 0.38 0 0.77 0.11 0.95 0.15a63.18 63.18 0 0 1 0.49 8.79 73.55 73.55 0 0 1 -0.22 8.69Z" fill="#4C57E6" stroke-width="1"></path>
    <path d="M17.45 15.86c-0.13 -0.33 -0.25 -0.64 -0.4 -0.94a5.44 5.44 0 0 0 -3.42 -2.73 6.55 6.55 0 0 0 -3.7 0.18 5.85 5.85 0 0 0 -1.67 0.94A6.18 6.18 0 0 0 7 14.71a5.19 5.19 0 0 0 -0.31 0.5 3.93 3.93 0 0 0 -0.24 0.56l-0.13 0.43 0 0.24a0.32 0.32 0 0 0 0.3 0.31 0.26 0.26 0 0 0 0.21 -0.09 1.43 1.43 0 0 0 0.23 -0.66 4.77 4.77 0 0 1 0.24 -0.44l0.31 -0.41a5.65 5.65 0 0 1 1.21 -1.08 4.51 4.51 0 0 1 1.43 -0.65 5.84 5.84 0 0 1 3.11 -0.16A5 5 0 0 1 16 14.84a3.63 3.63 0 0 1 0.34 0.46c0.16 0.27 0.58 1.49 1 1.54a0.33 0.33 0 0 0 0.34 -0.34 0.68 0.68 0 0 0 -0.05 -0.23c-0.03 -0.14 -0.15 -0.27 -0.18 -0.41Z" fill="#020202" stroke-width="1"></path>
    <path d="M6.89 9.57a0.34 0.34 0 0 0 0.28 -0.39 5.44 5.44 0 0 0 0.09 -0.8 1.06 1.06 0 0 0 0 -0.31 1.11 1.11 0 0 0 -0.09 -0.19C7 7.73 7 7.44 6.81 7.24c0 0 -0.12 -0.15 -0.43 0a0.73 0.73 0 0 0 -0.16 0.33L6.13 8a1.52 1.52 0 0 0 0 0.21 1.54 1.54 0 0 0 0.05 0.31 6.13 6.13 0 0 0 0.35 0.73 0.35 0.35 0 0 0 0.36 0.32Z" fill="#020202" stroke-width="1"></path>
    <path d="M16.31 9.91a0.34 0.34 0 0 0 0.34 -0.34 7.32 7.32 0 0 0 0.23 -0.8 1.13 1.13 0 0 0 0 -0.32c0 -0.07 0 -0.14 -0.06 -0.22s-0.21 -1.12 -0.82 -0.52a1.65 1.65 0 0 0 -0.18 0.51 0.83 0.83 0 0 0 -0.06 0.21 1.16 1.16 0 0 0 0 0.32 5.8 5.8 0 0 0 0.21 0.82 0.34 0.34 0 0 0 0.34 0.34Z" fill="#020202" stroke-width="1"></path>
  </g>
</svg>