<svg xmlns="http://www.w3.org/2000/svg" viewBox="0 0 24 24" id="Logic-Flowchart-1--Streamline-Freehand">
  <desc>
    Logic Flowchart 1 Streamline Icon: https://streamlinehq.com
  </desc>
  <g>
    <path d="M20.73 15.35c0 -1 -0.74 -1 -0.75 0l0 1.11c0 0.6 0 1.31 -0.1 2a5.42 5.42 0 0 1 -0.23 1.21 1 1 0 0 1 -0.3 0.46 1.55 1.55 0 0 1 -0.58 0.25 22.88 22.88 0 0 1 -3 0.16l-4.12 0.11c-0.88 0.22 -1.12 0.45 0 0.72l0.29 0c1.19 0.09 2.79 0.21 4.18 0.24a15 15 0 0 0 2.88 -0.15 2.36 2.36 0 0 0 1 -0.5 1.92 1.92 0 0 0 0.62 -1 7.08 7.08 0 0 0 0.18 -1.44c0 -0.71 0 -1.44 -0.05 -2.07Z" fill="#4C57E6" stroke-width="1"></path>
    <path d="M23.93 11.16c-0.05 -0.65 -0.11 -1.25 -0.16 -1.52a0.85 0.85 0 0 0 -0.2 -0.49 1 1 0 0 0 -0.51 -0.15c-0.44 0 -1.47 0 -1.83 -0.06l-6.05 0.27c-0.24 0 -0.39 0.16 -0.4 0.32v2a0.38 0.38 0 0 0 -0.21 -0.1 12.63 12.63 0 0 0 -1.7 -0.27 3.45 3.45 0 0 0 -0.56 0 5.2 5.2 0 0 0 -0.57 0.08l-0.68 0.15 -0.06 -0.1a9 9 0 0 0 -1.31 -0.86A34.54 34.54 0 0 0 6 8.72L6.17 8l0 -0.71c0 -0.23 -0.1 -0.5 -0.17 -0.7a7.62 7.62 0 0 0 3.63 -0.71 3 3 0 0 0 0.72 -2.26 2.92 2.92 0 0 0 -0.81 -2.12C8.9 1 7.21 0.73 5.53 0.77a12 12 0 0 0 -3.11 0.42S1 1.41 1.2 4.12a2.45 2.45 0 0 0 0.69 1.65 7.55 7.55 0 0 0 3.28 0.8 4.36 4.36 0 0 0 -0.12 0.71l0 0.72 0.18 0.68a0.73 0.73 0 0 0 -0.19 0.07 28.34 28.34 0 0 0 -2.88 1.65c-0.79 0.5 -1.5 1 -1.83 1.2l-0.21 0.15a0.31 0.31 0 0 0 -0.09 0.37 20.12 20.12 0 0 0 2.64 1.75A21.08 21.08 0 0 0 5.16 15l0.15 0a5.17 5.17 0 0 0 -0.2 0.86 2.47 2.47 0 0 0 0 0.39 1.55 1.55 0 0 0 0 0.37 7.1 7.1 0 0 0 0.2 0.72 11.3 11.3 0 0 0 -2.77 0.41s-1.45 0.25 -1.2 3A2.34 2.34 0 0 0 2 22.4a7.85 7.85 0 0 0 3.82 0.83 7.88 7.88 0 0 0 3.94 -0.72c0.86 -0.62 0.67 -2.46 0.69 -2.58a2.73 2.73 0 0 0 -0.81 -1.8A7.05 7.05 0 0 0 6 17.41a4.09 4.09 0 0 0 0.2 -0.86 2.94 2.94 0 0 0 0 -0.6c-0.05 -0.33 -0.15 -0.59 -0.19 -0.87 0.23 -0.06 0.4 -0.14 0.63 -0.2A10.9 10.9 0 0 0 8.56 14a25.2 25.2 0 0 0 2.64 -1.58 0.57 0.57 0 0 0 0.2 -0.33l0.36 0.06c0.15 0 0.33 0.05 0.55 0.06h0.55c0.68 -0.05 1.37 -0.18 1.65 -0.2a0.33 0.33 0 0 0 0.24 -0.07l0 0.77a5.81 5.81 0 0 0 0 0.87 0.67 0.67 0 0 0 0.2 0.43 0.64 0.64 0 0 0 0.33 0.14 7.66 7.66 0 0 0 1.19 0.1c1 0.05 2.41 0.05 3.58 0.06h1.77l1.06 0a2.48 2.48 0 0 0 0.7 -0.07 0.66 0.66 0 0 0 0.36 -0.36 10.86 10.86 0 0 0 -0.01 -2.72ZM2.34 5.07c-0.27 -0.16 -0.41 -0.76 -0.45 -1.38C1.76 2 2.26 2 2.63 1.87a11 11 0 0 1 2.9 -0.24c1.39 0 2.82 0.22 3.32 0.67a1.87 1.87 0 0 1 0.41 1.35 3.55 3.55 0 0 1 -0.12 1A0.67 0.67 0 0 1 9 5a7.21 7.21 0 0 1 -3.26 0.58 7.46 7.46 0 0 1 -3.4 -0.51ZM9 18.94a1.87 1.87 0 0 1 0.41 1.35 3.13 3.13 0 0 1 -0.12 0.95 0.72 0.72 0 0 1 -0.15 0.35 7.29 7.29 0 0 1 -3.27 0.58 7.48 7.48 0 0 1 -3.38 -0.47c-0.27 -0.16 -0.4 -0.76 -0.45 -1.38 -0.13 -1.69 0.37 -1.7 0.75 -1.81a10.88 10.88 0 0 1 2.89 -0.24c1.38 0.03 2.8 0.21 3.32 0.67Zm-1 -5.86a10.08 10.08 0 0 1 -1.7 0.81l-0.76 0.26c-0.92 -0.36 -1.75 -0.63 -2.55 -1S1.44 12.36 1 12.07L0.84 12l0.16 -0.08c0.86 -0.51 4.29 -2.19 4.61 -2.34 0.32 0.11 1.41 0.68 2.5 1.26 0.7 0.38 1.4 0.77 1.87 1.09 -0.52 0.32 -1.23 0.75 -1.98 1.15Zm14.84 0.09 -1.36 0.07c-1.31 0 -4.34 0.17 -5.65 0.15 -0.15 0 -0.3 -0.05 -0.39 -0.06l0 -2.51 0 -0.94 5.76 0c0.34 0 1.1 0 1.58 0.08a27.93 27.93 0 0 1 0.1 3.21Z" fill="#020202" stroke-width="1"></path>
  </g>
</svg>