<svg xmlns="http://www.w3.org/2000/svg" viewBox="0 0 24 24" id="Logic-Approved-Smiley-Face--Streamline-Freehand">
  <desc>
    Logic Approved Smiley Face Streamline Icon: https://streamlinehq.com
  </desc>
  <g>
    <path d="M24 11.9c-0.1 -4.37 -0.43 -8.68 -0.76 -9.35a0.64 0.64 0 0 0 -0.34 -0.3A5.11 5.11 0 0 0 21.74 2c-1.88 -0.2 -5.95 -0.3 -10 -0.29a93.81 93.81 0 0 0 -10 0.41 4.1 4.1 0 0 0 -1.22 0.38 1.85 1.85 0 0 0 -0.28 0.91C0.06 4.68 0 7.31 0 10.19 0 14 0.11 18.3 0.26 20.28a4.2 4.2 0 0 0 0.24 1.33 0.68 0.68 0 0 0 0.28 0.22 4.1 4.1 0 0 0 1.13 0.22c1.9 0.2 6 0.24 10.1 0.17s8.18 -0.25 10.08 -0.41a10.22 10.22 0 0 0 1.08 -0.14 0.65 0.65 0 0 0 0.52 -0.47 58.72 58.72 0 0 0 0.31 -9.3Zm-1.32 8.71 -1.75 0.15c-4.33 0.29 -13.88 0.61 -18 0.41A9.14 9.14 0 0 1 1.26 21c0 -0.16 -0.08 -0.5 -0.11 -0.81 -0.19 -2 -0.37 -6.22 -0.44 -10 0 -2.85 0 -5.45 0.1 -6.67 0 -0.28 0 -0.53 0.1 -0.57s0.32 0 0.68 -0.08a68.74 68.74 0 0 1 7.92 -0.31c4.54 0 9.59 0.16 11.91 0.42 0.38 0 0.77 0.11 0.95 0.15a63.18 63.18 0 0 1 0.49 8.79 73.55 73.55 0 0 1 -0.22 8.69Z" fill="#4C57E6" stroke-width="1"></path>
    <path d="M6.34 13.23a7.8 7.8 0 0 0 0.4 0.94 3.26 3.26 0 0 0 0.38 0.61 5.67 5.67 0 0 0 3 2.12 6.67 6.67 0 0 0 3.71 -0.18 5.69 5.69 0 0 0 1.66 -0.95 6 6 0 0 0 1.26 -1.39 4.27 4.27 0 0 0 0.3 -0.51 3.87 3.87 0 0 0 0.25 -0.55l0.12 -0.43a0.79 0.79 0 0 0 0 -0.24 0.31 0.31 0 0 0 -0.29 -0.31 0.28 0.28 0 0 0 -0.22 0.09 1.55 1.55 0 0 0 -0.24 0.65 2.34 2.34 0 0 1 -0.24 0.44 4.13 4.13 0 0 1 -0.31 0.42A5.37 5.37 0 0 1 15 15a4.69 4.69 0 0 1 -1.44 0.65 5.93 5.93 0 0 1 -3.11 0.16 5 5 0 0 1 -2.65 -1.58 2.55 2.55 0 0 1 -0.34 -0.47c-0.17 -0.26 -0.58 -1.48 -1 -1.53a0.32 0.32 0 0 0 -0.33 0.34 0.53 0.53 0 0 0 0 0.23c0.06 0.2 0.17 0.34 0.21 0.43Z" fill="#020202" stroke-width="1"></path>
    <path d="M7.08 10.15a0.34 0.34 0 0 0 0.27 -0.39A5.44 5.44 0 0 0 7.44 9a1.06 1.06 0 0 0 -0.05 -0.31 1.63 1.63 0 0 0 -0.09 -0.19 2.94 2.94 0 0 0 -0.3 -0.67s-0.12 -0.16 -0.43 0a0.73 0.73 0 0 0 -0.16 0.33l-0.1 0.44a1.49 1.49 0 0 0 0 0.21 1.06 1.06 0 0 0 0 0.31 4.89 4.89 0 0 0 0.35 0.73 0.33 0.33 0 0 0 0.42 0.3Z" fill="#020202" stroke-width="1"></path>
    <path d="M16.31 9.91a0.34 0.34 0 0 0 0.34 -0.34 7.32 7.32 0 0 0 0.23 -0.8 1.13 1.13 0 0 0 0 -0.32c0 -0.07 0 -0.14 -0.06 -0.22s-0.21 -1.12 -0.82 -0.52a1.65 1.65 0 0 0 -0.18 0.51 0.83 0.83 0 0 0 -0.06 0.21 1.16 1.16 0 0 0 0 0.32 5.8 5.8 0 0 0 0.21 0.82 0.34 0.34 0 0 0 0.34 0.34Z" fill="#020202" stroke-width="1"></path>
  </g>
</svg>