<svg xmlns="http://www.w3.org/2000/svg" viewBox="0 0 24 24" id="Logic-Problem--Streamline-Freehand">
  <desc>
    Logic Problem Streamline Icon: https://streamlinehq.com
  </desc>
  <g>
    <path d="M24 11.9c-0.1 -4.37 -0.43 -8.68 -0.76 -9.35a0.69 0.69 0 0 0 -0.34 -0.3A5.11 5.11 0 0 0 21.74 2c-1.88 -0.2 -5.95 -0.3 -10 -0.29a93.81 93.81 0 0 0 -10 0.41 3 3 0 0 0 -1.24 0.35 3.32 3.32 0 0 0 -0.26 0.94C0.06 4.68 0 7.31 0 10.19 0 14 0.11 18.3 0.26 20.28a4.2 4.2 0 0 0 0.24 1.33 0.68 0.68 0 0 0 0.28 0.22 4.1 4.1 0 0 0 1.13 0.22c1.9 0.2 6 0.24 10.1 0.17s8.18 -0.25 10.08 -0.41a10.22 10.22 0 0 0 1.08 -0.14 0.65 0.65 0 0 0 0.52 -0.47 58.66 58.66 0 0 0 0.31 -9.3Zm-1.32 8.71 -1.75 0.15c-4.33 0.29 -13.88 0.61 -18 0.41A9.14 9.14 0 0 1 1.26 21c0 -0.16 -0.08 -0.5 -0.11 -0.81 -0.19 -2 -0.37 -6.22 -0.44 -10 0 -2.85 0 -5.45 0.1 -6.67 0 -0.13 0 -0.41 0.11 -0.52s0.47 -0.1 0.67 -0.13a68.74 68.74 0 0 1 7.92 -0.31c4.54 0 9.59 0.16 11.91 0.42 0.38 0 0.77 0.11 0.95 0.15a63.18 63.18 0 0 1 0.49 8.79 73.55 73.55 0 0 1 -0.22 8.69Z" fill="#4C57E6" stroke-width="1"></path>
    <path d="M9.81 13.2a2.28 2.28 0 0 0 0.56 0.57 1.63 1.63 0 0 0 2.11 0 4.09 4.09 0 0 0 1 -2.58 16.23 16.23 0 0 0 0.14 -2.3 10.86 10.86 0 0 0 -0.3 -2.33 7.66 7.66 0 0 0 -0.32 -1 3.73 3.73 0 0 0 -0.35 -0.69A1.63 1.63 0 0 0 10.84 4a2.36 2.36 0 0 0 -1.45 1.19 3.42 3.42 0 0 0 -0.37 1 8.54 8.54 0 0 0 -0.18 1.39 10.93 10.93 0 0 0 0 1.28c0 0.42 0.06 0.84 0.12 1.25A14.44 14.44 0 0 0 9.32 12a5.43 5.43 0 0 0 0.49 1.2ZM10 7.63a7.49 7.49 0 0 1 0.17 -1.21 2.25 2.25 0 0 1 0.24 -0.66 1.24 1.24 0 0 1 0.72 -0.63 0.6 0.6 0 0 1 0.66 0.3 2.94 2.94 0 0 1 0.34 0.63 5.56 5.56 0 0 1 0.26 0.75 9.67 9.67 0 0 1 0.39 2.11 16 16 0 0 1 0 2.19c-0.07 0.94 -0.15 2.54 -1.52 2.28a1.06 1.06 0 0 1 -0.36 -0.24 1.18 1.18 0 0 1 -0.31 -0.34 4.47 4.47 0 0 1 -0.34 -1.07A14 14 0 0 1 10 10c0 -0.47 -0.05 -0.94 -0.05 -1.41q-0.02 -0.5 0.05 -0.96Z" fill="#020202" stroke-width="1"></path>
    <path d="M11.38 15.51h-0.6a2.22 2.22 0 0 0 -0.78 0.32 2.05 2.05 0 0 0 -0.63 2.65 2.36 2.36 0 0 0 1.69 1.06 3.26 3.26 0 0 0 1.41 -0.13 2.19 2.19 0 0 0 1.19 -0.94 1.67 1.67 0 0 0 0.1 -1.5 2.68 2.68 0 0 0 -2.38 -1.46ZM12.84 18a1.19 1.19 0 0 1 -0.69 0.41 2.26 2.26 0 0 1 -0.93 0 1.3 1.3 0 0 1 -0.92 -0.52 1 1 0 0 1 -0.07 -1 1.26 1.26 0 0 1 0.28 -0.4 1.46 1.46 0 0 1 0.45 -0.26l0.35 -0.05a1.55 1.55 0 0 1 1.58 0.87 0.84 0.84 0 0 1 -0.05 0.95Z" fill="#020202" stroke-width="1"></path>
  </g>
</svg>