<svg xmlns="http://www.w3.org/2000/svg" viewBox="0 0 24 24" id="Logic-Flowchart-Hierachy--Streamline-Freehand">
  <desc>
    Logic Flowchart Hierachy Streamline Icon: https://streamlinehq.com
  </desc>
  <g>
    <path d="M13.17 20.32a12.21 12.21 0 0 1 -1.46 -0.1 4.18 4.18 0 0 1 -1.26 -0.35 1.2 1.2 0 0 1 -0.55 -0.64 3.71 3.71 0 0 1 -0.26 -1A17 17 0 0 1 9.47 16l0 -2.57c0.5 0 1.11 0.14 1.79 0.18l0.81 0a7 7 0 0 0 0.8 0l0.3 0c1.2 -0.36 1.16 -0.72 0 -1.09l-0.31 0 -0.8 0 -0.81 0c-0.67 0.06 -1.29 0.16 -1.78 0.22v-0.17c0 -0.94 -0.08 -1.88 -0.1 -2.82l0 -1.87 0 -0.35H8.6l0 0.31c-0.1 0.52 -0.15 1.16 -0.18 1.78 -0.05 1 -0.08 1.89 -0.11 2.84 0 1.16 -0.09 2.34 -0.06 3.52a15 15 0 0 0 0.24 2.41A4.34 4.34 0 0 0 9.06 20a2.1 2.1 0 0 0 1 0.83 5.47 5.47 0 0 0 1.56 0.34 13.73 13.73 0 0 0 1.57 0c1.62 -0.25 1.04 -0.54 -0.02 -0.85Z" fill="#4C57E6" stroke-width="1"></path>
    <path d="M20.53 21a3.39 3.39 0 0 0 -0.53 -1.58 2.59 2.59 0 0 0 -0.75 -0.72 2.81 2.81 0 0 0 -0.93 -0.39 3 3 0 0 0 -3.52 3.49 2.49 2.49 0 0 0 1.59 1.92 3.77 3.77 0 0 0 2.5 0.12 2.71 2.71 0 0 0 1.35 -1.2 3.2 3.2 0 0 0 0.29 -1.64Zm-1.34 1a1.51 1.51 0 0 1 -1 0.78 3.36 3.36 0 0 1 -1.51 -0.08 1.56 1.56 0 0 1 -1.07 -1.1 1.78 1.78 0 0 1 1.31 -2.35 2.08 2.08 0 0 1 1.19 0 1.74 1.74 0 0 1 0.56 0.31 1.68 1.68 0 0 1 0.41 0.44 2.26 2.26 0 0 1 0.24 1 1.92 1.92 0 0 1 -0.13 1Z" fill="#020202" stroke-width="1"></path>
    <path d="M16.06 15.71a3.71 3.71 0 0 0 2.5 0.12 2.67 2.67 0 0 0 1.35 -1.2A3.1 3.1 0 0 0 20.2 13a3.26 3.26 0 0 0 -0.5 -1.54 2.78 2.78 0 0 0 -0.76 -0.72 2.72 2.72 0 0 0 -0.94 -0.44 2.9 2.9 0 0 0 -2 5.41Zm0.54 -4.46a2.07 2.07 0 0 1 1.19 0 2 2 0 0 1 0.56 0.31 1.4 1.4 0 0 1 0.41 0.44 2.31 2.31 0 0 1 0.24 1 2 2 0 0 1 -0.14 1 1.51 1.51 0 0 1 -1 0.78 3.22 3.22 0 0 1 -1.51 -0.08 1.51 1.51 0 0 1 -1.07 -1.1 1.77 1.77 0 0 1 1.32 -2.35Z" fill="#020202" stroke-width="1"></path>
    <path d="M8.75 6.24h2.48a10.41 10.41 0 0 0 3.69 -0.7 2.85 2.85 0 0 0 1 -2.48A2.85 2.85 0 0 0 14.76 0.74C13.92 0.21 11.63 0 9.37 0a20.91 20.91 0 0 0 -4.21 0.45C4.6 0.6 3.37 0.87 3.47 3.21a2.69 2.69 0 0 0 1 2.18 12.34 12.34 0 0 0 4.3 0.83ZM4.83 4.62c-0.37 -0.17 -0.57 -0.8 -0.63 -1.46 -0.16 -1.79 0.54 -1.84 1.14 -2a19.46 19.46 0 0 1 4 -0.25c2 0 4 0.26 4.75 0.76a1.7 1.7 0 0 1 0.59 1.39c0 0.59 -0.08 1.2 -0.39 1.37a13.17 13.17 0 0 1 -4.69 0.67 13.23 13.23 0 0 1 -4.77 -0.48Z" fill="#020202" stroke-width="1"></path>
  </g>
</svg>