<svg xmlns="http://www.w3.org/2000/svg" viewBox="0 0 24 24" id="Love-Heart-Letter--Streamline-Freehand">
  <desc>
    Love Heart Letter Streamline Icon: https://streamlinehq.com
  </desc>
  <g>
    <path d="M21.58 13a0.94 0.94 0 0 0 -0.11 -0.43 9.47 9.47 0 0 0 -0.91 -1.14c-0.73 -0.78 -1.59 -1.5 -2.28 -2.27a0.36 0.36 0 0 0 -0.5 0 0.35 0.35 0 0 0 0 0.5c0.67 0.79 1.52 1.53 2.23 2.34a6 6 0 0 1 0.5 0.63 11.23 11.23 0 0 0 -1.48 0.61 7 7 0 0 0 -0.63 0.38c-0.2 0.14 -0.39 0.29 -0.58 0.45 -0.43 0.37 -0.83 0.77 -1.25 1.17 -0.47 -0.57 -0.95 -1.13 -1.46 -1.66A7.9 7.9 0 0 0 12.93 12a1.14 1.14 0 0 0 -1.15 0.13 32.58 32.58 0 0 0 -2.65 2.49c-0.34 0.35 -0.67 0.72 -1 1.09a0.37 0.37 0 0 0 -0.06 -0.4 13.24 13.24 0 0 0 -1.2 -1.4 7.15 7.15 0 0 0 -0.57 -0.53c-0.2 -0.16 -0.41 -0.32 -0.62 -0.46 -0.43 -0.28 -0.87 -0.53 -1.31 -0.79a5.73 5.73 0 0 1 0.63 -0.91c0.57 -0.67 1.25 -1.33 1.66 -1.78a0.32 0.32 0 0 0 0 -0.44 0.31 0.31 0 0 0 -0.44 0c-0.49 0.52 -1.37 1.3 -2 2.06a4.14 4.14 0 0 0 -0.71 1.14 3.41 3.41 0 0 0 -0.2 0.93c-0.08 0.69 0 1.45 -0.07 2 0 1 -0.19 2.22 -0.22 3.37a11.18 11.18 0 0 0 0.13 2.34c0.13 0.68 1.63 0.69 2.42 0.77 1.2 0.13 2.41 0.2 3.61 0.23s2.4 0 3.61 0l6.21 -0.08a15 15 0 0 0 1.61 0 0.75 0.75 0 0 0 0.54 -0.31 2.9 2.9 0 0 0 0.32 -1.25c0.06 -0.84 -0.07 -1.88 0 -2.46 0 -0.74 0.08 -1.48 0.1 -2.23l0 -1.51c-0.01 -0.21 0.03 -0.68 0.01 -1Zm-3.14 2c0.21 -0.12 0.41 -0.24 0.61 -0.38s0.39 -0.27 0.57 -0.41c0.34 -0.27 0.66 -0.56 1 -0.83 0 0.24 0.08 0.53 0.09 0.65l0 1.44c0 0.74 -0.11 1.48 -0.17 2.21 0 0.57 0.05 1.6 0 2.44l0 0.07c-1.21 -1.43 -2.3 -2.93 -3.47 -4.39 0.41 -0.29 0.93 -0.54 1.37 -0.8Zm-12.32 -0.25c0.49 0.36 1 0.68 1.45 1.07a0.34 0.34 0 0 0 0.45 0l-1.28 1.53 -2.52 3.08h-0.07A12.22 12.22 0 0 1 4 18.59c0 -1.15 0.09 -2.33 0.1 -3.37l0 -1.72a5.44 5.44 0 0 1 0 -0.58 9.54 9.54 0 0 0 1 1.08 11.6 11.6 0 0 0 1.02 0.75ZM19 20.66l-6.25 0c-1.18 0 -2.37 0.05 -3.55 0s-2.35 -0.06 -3.53 -0.17l-0.63 0L7.43 18l3 -3c2 -1.94 2 -2 2.65 -1.52s1 0.83 1.17 1c0.64 0.6 1.24 1.24 1.82 1.89 1.26 1.4 2.43 2.86 3.71 4.25 -0.32 -0.05 -0.68 0.04 -0.78 0.04Z" fill="#020202" fill-rule="evenodd" stroke-width="1"></path>
    <path d="M11.88 4.35c-0.27 -0.26 -0.71 -0.92 -0.82 -1a3 3 0 0 0 -2.86 -0.56 2 2 0 0 0 -1 2.75 4.61 4.61 0 0 0 0.28 0.68c0.11 0.22 0.23 0.43 0.36 0.64a6.78 6.78 0 0 0 0.66 0.84 7.6 7.6 0 0 0 0.76 0.74 7.55 7.55 0 0 0 1.39 0.94c2.06 1.1 1.95 1.1 3.57 -0.23 0.28 -0.23 0.55 -0.47 0.82 -0.72a7.18 7.18 0 0 0 0.65 -0.7 7.48 7.48 0 0 0 0.56 -0.79 4.19 4.19 0 0 0 0.34 -0.71 4.13 4.13 0 0 0 0.19 -0.77A2 2 0 0 0 16 3.29a3.19 3.19 0 0 0 -3.26 0.22c-0.17 0.11 -0.6 0.63 -0.86 0.84Zm-3.26 -0.51a1.85 1.85 0 0 1 1.71 0.43c0.15 0.12 0.69 0.83 1 1.07a0.75 0.75 0 0 0 0.57 0.2 1.14 1.14 0 0 0 0.57 -0.23c0.33 -0.22 0.73 -0.67 1 -0.82a2.28 2.28 0 0 1 1.74 -0.39c0.46 0.12 0.75 0.51 0.67 1.23a3.86 3.86 0 0 1 -0.12 0.59 2.91 2.91 0 0 1 -0.23 0.55 4.64 4.64 0 0 1 -0.45 0.7c-0.17 0.23 -0.36 0.44 -0.55 0.65s-0.66 0.65 -1 0.95 -0.6 0.52 -0.91 0.78a0.45 0.45 0 0 0 -0.13 -0.1A8.52 8.52 0 0 1 11 8.77a6.67 6.67 0 0 1 -1.21 -0.92 8.42 8.42 0 0 1 -0.64 -0.7 8.23 8.23 0 0 1 -0.53 -0.78 4.53 4.53 0 0 1 -0.27 -0.54 3.93 3.93 0 0 1 -0.19 -0.58C8 4.5 8.17 4 8.62 3.84Z" fill="#020202" fill-rule="evenodd" stroke-width="1"></path>
    <path d="M5.1 6.47a3.66 3.66 0 0 0 0.27 -0.61 4.16 4.16 0 0 0 0.22 -1.55 2.42 2.42 0 0 0 -0.35 -1.11 1.73 1.73 0 0 0 -1 -0.72 1.13 1.13 0 0 0 -1 0.2 1.84 1.84 0 0 0 -0.45 0.51 4.42 4.42 0 0 0 -0.34 0.69l-0.11 -0.06a2.06 2.06 0 0 0 -0.64 -0.24 1.57 1.57 0 0 0 -0.84 0.08A1.25 1.25 0 0 0 0 4.73a2.28 2.28 0 0 0 0.48 1.52 2.93 2.93 0 0 0 1.17 0.87c2.88 1.2 2.89 0.36 3.45 -0.65Zm-3.86 -0.76A1.34 1.34 0 0 1 1.05 5a0.25 0.25 0 0 1 0.18 -0.26 0.37 0.37 0 0 1 0.23 0A2.14 2.14 0 0 1 2 5a1.8 1.8 0 0 0 0.73 0.2 0.67 0.67 0 0 0 0.6 -0.29c0.08 -0.12 0.33 -0.92 0.43 -1.1a0.71 0.71 0 0 1 0.17 -0.21l0.18 0a0.62 0.62 0 0 1 0.25 0.19 1.47 1.47 0 0 1 0.26 0.81 3.28 3.28 0 0 1 -0.08 1 3.44 3.44 0 0 1 -0.26 0.67L3.89 7a0.34 0.34 0 0 0 -0.22 -0.12 5.18 5.18 0 0 1 -1.41 -0.38 2.3 2.3 0 0 1 -1.02 -0.79Z" fill="#4C57E6" fill-rule="evenodd" stroke-width="1"></path>
    <path d="M22.77 2.91A1.45 1.45 0 0 0 22 3a4 4 0 0 0 -0.45 0.26l-0.08 -0.12a2.79 2.79 0 0 0 -0.61 -0.67 2.06 2.06 0 0 0 -0.86 -0.38 1.41 1.41 0 0 0 -1.19 0.34 1.88 1.88 0 0 0 -0.62 1.49 2.78 2.78 0 0 0 0.51 1.32 11.06 11.06 0 0 0 1.22 1.41 0.32 0.32 0 0 0 0.44 0 0.33 0.33 0 0 0 0 -0.45 9.68 9.68 0 0 1 -1 -1.41 1.8 1.8 0 0 1 -0.26 -0.93 0.89 0.89 0 0 1 0.26 -0.58 0.44 0.44 0 0 1 0.41 -0.13 0.62 0.62 0 0 1 0.38 0.21c0.25 0.37 0.24 0.51 0.51 0.91a0.65 0.65 0 0 0 0.63 0.29 1.48 1.48 0 0 0 0.5 -0.13l0.49 -0.27a0.57 0.57 0 0 1 0.35 -0.14 0.65 0.65 0 0 1 0.21 0.05 1.06 1.06 0 0 1 -0.16 0.62 5.64 5.64 0 0 1 -1 1.46 2.68 2.68 0 0 1 -0.58 0.36c-0.36 0.16 -0.75 0.28 -1.11 0.44a0.35 0.35 0 1 0 0.26 0.66c0.45 -0.16 0.92 -0.26 1.36 -0.45a2.63 2.63 0 0 0 0.61 -0.34A5.6 5.6 0 0 0 24 4.28c0.07 -0.67 -0.21 -1.22 -1.23 -1.37Z" fill="#4C57E6" fill-rule="evenodd" stroke-width="1"></path>
  </g>
</svg>