<svg xmlns="http://www.w3.org/2000/svg" viewBox="0 0 24 24" id="Love-Heart-Lock--Streamline-Freehand">
  <desc>
    Love Heart Lock Streamline Icon: https://streamlinehq.com
  </desc>
  <g>
    <path d="M20.33 10.6a5.4 5.4 0 0 0 -3.55 -2.32 4.16 4.16 0 0 0 -2 0.13 5.25 5.25 0 0 0 -1.73 0.9c-0.08 0.07 -0.57 0.63 -0.88 1 -0.27 -0.25 -0.62 -0.79 -0.75 -0.87a6.72 6.72 0 0 0 -1.72 -0.89 3.59 3.59 0 0 0 -0.35 -0.08l0.07 -0.93a5.6 5.6 0 0 1 0.53 -2 2.33 2.33 0 0 1 1.49 -1.06 3.64 3.64 0 0 1 0.89 -0.1 4.25 4.25 0 0 1 0.92 0.06 1.24 1.24 0 0 1 0.51 0.22 1.44 1.44 0 0 1 0.37 0.42l0.08 0.3a0.71 0.71 0 0 1 0 0.16 0.53 0.53 0 0 0 0.42 0.47l0.83 -0.09 1.87 0.08a0.35 0.35 0 0 0 0.07 -0.7L15.51 5h-0.38l-0.07 -0.37a2.24 2.24 0 0 0 -0.61 -0.87 2.31 2.31 0 0 0 -0.93 -0.5 5.05 5.05 0 0 0 -1.2 -0.13 4.22 4.22 0 0 0 -1.23 0.16 3.42 3.42 0 0 0 -1.78 1.25 5.14 5.14 0 0 0 -0.64 3l0 0.84a5.42 5.42 0 0 0 -0.91 -0.06 4 4 0 0 0 -0.94 0.16l0 -0.25c0 -0.44 0 -0.88 0.06 -1.33a8.59 8.59 0 0 1 0.47 -2.58 4.18 4.18 0 0 1 1.5 -1.98 6.5 6.5 0 0 1 3.63 -1.19 4.92 4.92 0 0 1 3.57 1.12 3 3 0 0 1 0.72 1.16 5.47 5.47 0 0 1 0.31 1.44 0.35 0.35 0 0 0 0.37 0.33 0.34 0.34 0 0 0 0.33 -0.37 5.89 5.89 0 0 0 -0.36 -2 3.65 3.65 0 0 0 -0.74 -1.2A5.69 5.69 0 0 0 12.46 0a7.41 7.41 0 0 0 -4.32 1.41 5.09 5.09 0 0 0 -1.52 2 8.17 8.17 0 0 0 -0.51 3.48l0 1.36 0 0.46a5 5 0 0 0 -0.64 0.29 5 5 0 0 0 -2.53 4 9.35 9.35 0 0 0 2.55 6.4 21.69 21.69 0 0 0 2.7 2.48 16.54 16.54 0 0 0 3.11 2 0.31 0.31 0 0 0 0.4 -0.13 0.3 0.3 0 0 0 0 0.1 0.35 0.35 0 0 0 0.47 0.15 16.44 16.44 0 0 0 2.51 -1.59A43.49 43.49 0 0 0 18 19.49a11.3 11.3 0 0 0 1.83 -2.09 7.75 7.75 0 0 0 1 -2.63 5.38 5.38 0 0 0 -0.5 -4.17Zm-0.41 4a6.74 6.74 0 0 1 -0.86 2.34 10.39 10.39 0 0 1 -1.64 2c-1.11 1.08 -2.1 2.05 -3.18 2.91a15.46 15.46 0 0 1 -2.35 1.56 0.36 0.36 0 0 0 -0.15 0.15 0.37 0.37 0 0 0 -0.18 -0.21 15.62 15.62 0 0 1 -2.92 -1.95 20.6 20.6 0 0 1 -2.53 -2.46A9.13 9.13 0 0 1 4 14.14 4 4 0 0 1 6.06 10a4.07 4.07 0 0 1 0.87 -0.4 2.74 2.74 0 0 1 0.87 -0.17 4.56 4.56 0 0 1 1.54 0.24 5.4 5.4 0 0 1 1.42 0.71c0.17 0.11 0.61 0.6 0.94 0.85a1.44 1.44 0 0 0 0.55 0.27 0.8 0.8 0 0 0 0.64 -0.27c0.26 -0.26 0.83 -0.94 0.91 -1a4 4 0 0 1 1.32 -0.69 3.07 3.07 0 0 1 1.43 -0.12 4.35 4.35 0 0 1 2.87 1.76 4.43 4.43 0 0 1 0.5 3.38Z" fill="#020202" fill-rule="evenodd" stroke-width="1"></path>
    <path d="M12.87 13.7a2.62 2.62 0 0 0 -3.32 1 2 2 0 0 0 0.58 3.16c0.14 0.09 0.38 -0.1 0.37 0.63 0 0.41 -0.09 0.84 -0.08 1.19a3.14 3.14 0 0 0 0.14 0.79 0.49 0.49 0 0 0 0.31 0.25 0.85 0.85 0 0 0 0.33 0.05l0.44 0a5.19 5.19 0 0 0 1.19 -0.08 0.6 0.6 0 0 0 0.41 -0.42 2.68 2.68 0 0 0 0.1 -0.65l0 -1.32a1.81 1.81 0 0 0 0 -0.25l0.12 -0.1a1.55 1.55 0 0 0 0.33 -0.3 1.83 1.83 0 0 0 0.24 -0.31 2.29 2.29 0 0 0 0.22 -2.11 2.86 2.86 0 0 0 -1.38 -1.53Zm0.12 3c-0.26 0.31 -0.65 0.44 -0.76 0.75a1.2 1.2 0 0 0 -0.06 0.4c0 0.16 0.05 0.34 0.05 0.45 0 0.35 0.06 0.74 0.07 1.12l0 0.27a3.7 3.7 0 0 0 -0.67 0.17l-0.28 0 -0.1 -0.23c0 -0.4 0.05 -0.92 0 -1.37a1.42 1.42 0 0 0 -0.26 -0.7s-2.08 -0.66 -0.71 -2.33a1.61 1.61 0 0 1 2.06 -0.54 1.82 1.82 0 0 1 0.78 0.93 1.16 1.16 0 0 1 -0.11 1.05Z" fill="#4C57E6" fill-rule="evenodd" stroke-width="1"></path>
  </g>
</svg>