<svg xmlns="http://www.w3.org/2000/svg" viewBox="0 0 24 24" id="Mailbox-Post-1--Streamline-Freehand">
  <desc>
    Mailbox Post 1 Streamline Icon: https://streamlinehq.com
  </desc>
  <g>
    <path d="M15.59 12a1.27 1.27 0 0 0 -0.67 -0.21 23.84 23.84 0 0 0 -3.23 0 9.4 9.4 0 0 0 -3.69 0.74 0.52 0.52 0 0 0 -0.21 0.34 5.2 5.2 0 0 0 -0.07 1c0 1.32 0.17 3.52 0.24 4s0.32 0.59 0.58 0.59c0.83 0 3.7 -0.08 5.43 -0.16 0.58 0 1 0 1.25 -0.08a0.8 0.8 0 0 0 0.36 -0.11 1.1 1.1 0 0 0 0.3 -0.66 24.4 24.4 0 0 0 0.19 -2.92 9.61 9.61 0 0 0 -0.14 -1.81 1.22 1.22 0 0 0 -0.34 -0.72Zm-1.38 1 -0.62 0.5c-0.45 0.35 -0.95 0.67 -1.32 0.92a1 1 0 0 1 -1 -0.08L10 13.62l-1 -0.5c0.35 -0.06 0.82 -0.09 1.35 -0.13 1.3 -0.08 2.87 -0.07 3.86 0.01Zm0.64 4.16a0.78 0.78 0 0 1 0 0.16l-6.24 0.48a33.87 33.87 0 0 1 0 -4 19 19 0 0 0 1.93 1.44 3.41 3.41 0 0 0 1.5 0.61 1.23 1.23 0 0 0 0.47 -0.16 5.64 5.64 0 0 0 0.84 -0.62 15.66 15.66 0 0 0 1.52 -1.53l0 0.41a24.24 24.24 0 0 1 -0.02 3.17Z" fill="#4C57E6" stroke-width="1"></path>
    <path d="M20 22a1.47 1.47 0 0 0 -0.34 -0.81 0.88 0.88 0 0 0 -0.33 -0.2 5.13 5.13 0 0 0 -0.51 -0.12h-0.08a4.48 4.48 0 0 0 0 -0.74l-0.05 -2.75c0 -1.57 0.06 -3.14 0.06 -4.72 0 -2.17 0 -4.33 -0.06 -6.5h0.19a0.9 0.9 0 0 0 0.35 -0.16 1 1 0 0 0 0.42 -0.66 4.28 4.28 0 0 0 0 -0.93 4.79 4.79 0 0 0 -0.39 -1.95 3.16 3.16 0 0 0 -1.4 -1.55 7.12 7.12 0 0 0 -1.48 -0.55A12.45 12.45 0 0 0 14.12 0a19.92 19.92 0 0 0 -2.89 0.05A27 27 0 0 0 8.39 0.5a6.29 6.29 0 0 0 -1.28 0.38 9.07 9.07 0 0 0 -1.18 0.56 4.68 4.68 0 0 0 -0.64 0.42 2.23 2.23 0 0 0 -0.41 0.4 3 3 0 0 0 -0.49 1.35 8.86 8.86 0 0 0 0 1.93 0.13 0.13 0 0 0 0 0.06 0.21 0.21 0 0 0 0 0.13 0.35 0.35 0 0 0 0.33 0.17 4.32 4.32 0 0 1 0.54 -0.05l-0.28 4.83 0 4c0 0.56 0 1.12 -0.06 1.68s0 0.92 0 1.37l0 2a11 11 0 0 0 0 1.11 1.06 1.06 0 0 0 0 0.19 1.66 1.66 0 0 0 -0.58 0.24 1.17 1.17 0 0 0 -0.46 0.84 12.53 12.53 0 0 0 0 1.57 0.31 0.31 0 0 0 0.62 0l0 -1.31c0 -0.2 0 -0.4 0.17 -0.47a1.41 1.41 0 0 1 0.62 -0.14A1.15 1.15 0 0 0 6 22c0.41 0.08 2.74 0.12 5.22 0.22l1.86 0c0.92 0 1.84 0 2.77 -0.07a9.92 9.92 0 0 0 1.52 0 1.86 1.86 0 0 0 0.83 -0.33 1.31 1.31 0 0 0 0.11 -0.12l0.31 0c0.5 0.07 0.51 0.13 0.56 0.56s0 0.92 0 1.23a0.36 0.36 0 1 0 0.71 0A10.8 10.8 0 0 0 20 22ZM5.09 5.21a6.75 6.75 0 0 1 0.06 -1.48 2.12 2.12 0 0 1 0.38 -1 1.43 1.43 0 0 1 0.34 -0.3 3.57 3.57 0 0 1 0.46 -0.26 8.93 8.93 0 0 1 1.1 -0.48 6 6 0 0 1 1.13 -0.29 25 25 0 0 1 2.74 -0.3 19.12 19.12 0 0 1 2.73 0 14.59 14.59 0 0 1 1.72 0.26 6.19 6.19 0 0 1 1.56 0.64 2 2 0 0 1 0.89 1 4.87 4.87 0 0 1 0.38 2l-1.1 0c-3.13 0.05 -10.48 0.12 -12.39 0.21Zm12.4 0.92h0.4c0 2.15 -0.05 4.31 -0.11 6.47 0 1.57 -0.1 3.13 -0.19 4.69l0 1.42 0 1.43a3.62 3.62 0 0 1 0 0.48v0.14h-0.86l-2.92 0c-1.44 0 -5.08 0.1 -5.4 0.08s-0.85 0 -1.27 0c-1.23 0 -1 0 -1 -1.12 0 -0.66 -0.08 -1.33 -0.1 -2l0 -1.31 0 -1.72c0 -1.33 -0.12 -2.64 -0.17 -4l0 -1.49C5.88 8.07 6 7 6 5.85c2.58 0.05 8.71 0.26 11.49 0.28Z" fill="#020202" stroke-width="1"></path>
    <path d="m8 9.42 3.52 0.29 2.07 0a13.87 13.87 0 0 0 2.13 -0.15 0.35 0.35 0 1 0 -0.05 -0.7c-1.09 0 -2.18 -0.22 -3.28 -0.32l-0.85 0 -1.07 0c-0.83 0.06 -1.64 0.17 -2.47 0.24a0.32 0.32 0 0 0 0 0.63Z" fill="#4C57E6" stroke-width="1"></path>
  </g>
</svg>