<svg xmlns="http://www.w3.org/2000/svg" viewBox="0 0 24 24" id="Make-Up-Mascara--Streamline-Freehand">
  <desc>
    Make Up Mascara Streamline Icon: https://streamlinehq.com
  </desc>
  <g>
    <path d="M6.91 13.49v0.01ZM6.38 0.18l0 0.08 0 0.79 -0.12 2c0 0.83 -0.1 1.65 -0.15 2.48S6 7.21 6 8l0 2.2 0.15 2.38c0 0.16 0.09 0.74 0.13 1a0.71 0.71 0 0 0 0 0.12 0.28 0.28 0 0 0 0.1 0.18c0.17 0.13 0.33 0.16 0.46 -0.07a0.31 0.31 0 0 0 0 -0.23c0.16 0 0.12 0 0 -0.06l0 -1L7 10.2c0 -0.71 0.09 -1.41 0.13 -2.12s0.07 -1.43 0.08 -2.14l0 -2.88 -0.07 -2 0 -0.82 0 -0.08C6.61 0.17 6.4 0 6.41 0a0.29 0.29 0 0 0 -0.03 0.18Z" fill="#020202" fill-rule="evenodd" stroke-width="1"></path>
    <path d="M4.78 2.11h-0.13a0.28 0.28 0 0 0 -0.27 0.23c0 0.06 0 0.3 0.3 0.4s0.76 0.17 0.85 0.19c0.3 0 0.59 0.07 0.88 0.07l0.64 0c0.21 0 0.42 -0.06 0.63 -0.09s0.58 -0.08 0.74 -0.1h0.05c0.82 0.08 1.19 -0.13 1 -0.35 0.2 -0.22 -0.17 -0.42 -1 -0.34 -0.16 0 -0.61 -0.09 -0.69 -0.1a7.35 7.35 0 0 0 -1.14 -0.12 3.52 3.52 0 0 0 -0.56 0c-0.18 0 -0.35 0.08 -0.54 0.12s-0.73 -0.02 -0.76 0.09Z" fill="#020202" fill-rule="evenodd" stroke-width="1"></path>
    <path d="M5.05 3.56a0.27 0.27 0 0 0 -0.12 0 0.32 0.32 0 0 0 -0.36 0.18c-0.06 0.09 -0.07 0.25 0.14 0.42a6.73 6.73 0 0 0 1 0.4l0.42 0.09a4.48 4.48 0 0 0 0.64 0c0.35 0 0.69 0 1 -0.07a1.25 1.25 0 0 0 0.5 0 1.06 1.06 0 0 0 0.34 -0.13 0.42 0.42 0 0 0 0.12 -0.27 0.48 0.48 0 0 0 -0.39 -0.39 5.34 5.34 0 0 0 -0.54 -0.09 7.93 7.93 0 0 0 -1.07 -0.17 4.42 4.42 0 0 0 -0.63 0c-0.15 0 -0.28 0 -0.42 0.06a3.88 3.88 0 0 0 -0.63 -0.03Z" fill="#020202" fill-rule="evenodd" stroke-width="1"></path>
    <path d="M8.22 6.05h0.06Zm-3.16 -0.58H5a0.26 0.26 0 0 0 -0.18 0.1c-0.06 0 -0.06 0.13 -0.08 0.19s0 0.18 0.15 0.29L5 6.1l0.08 0c0 0.12 0.08 0.1 0.1 0l-0.08 0 0.1 0a0.3 0.3 0 0 1 0 0.1l0.59 0.13a3.63 3.63 0 0 0 0.45 0.1h0.07C6 7 7.74 7.83 8.2 6.13l0.26 -0.06c0.12 -0.05 0.5 -0.72 -0.12 -0.68 0 -0.07 -0.23 0 -0.25 0l-0.53 0c-0.29 0 -0.57 -0.06 -0.86 -0.07a3.09 3.09 0 0 0 -0.43 0c-0.15 0 -0.29 0 -0.43 0.07s-0.76 0 -0.75 0.14Z" fill="#020202" fill-rule="evenodd" stroke-width="1"></path>
    <path d="M5 7.31a0.32 0.32 0 0 0 -0.14 0c-0.29 0 -0.27 0.29 -0.27 0.34s0.07 0.23 0.35 0.31a11 11 0 0 0 1.1 0.2h0.36a3 3 0 0 0 0.6 -0.07c0.5 -0.08 1 -0.21 1.48 -0.29a0.34 0.34 0 0 0 0 -0.68A10.45 10.45 0 0 0 6.9 7a4.21 4.21 0 0 0 -0.62 0l-0.41 0.1c-0.11 0.05 -0.94 -0.01 -0.87 0.21Z" fill="#020202" fill-rule="evenodd" stroke-width="1"></path>
    <path d="m14.1 3.26 0 -0.07Zm-0.39 3c0.23 0 0.16 0 0 0s0 -0.14 0 -0.22c0.06 -0.65 0.23 -2.14 0.35 -2.66h0.19l1.6 -0.19a4.22 4.22 0 0 1 0.95 0 1.42 1.42 0 0 1 0.38 0.08c0.05 0 0.12 0 0.13 0.07a2.27 2.27 0 0 1 0.09 0.68 11.26 11.26 0 0 1 0 1.23l0 0.45a2.06 2.06 0 0 1 0 0.21l0 0.07c0 1 0.52 1.24 0.69 0l0 -0.14 0.11 -0.51a11.28 11.28 0 0 0 0.18 -1.55 2.93 2.93 0 0 0 -0.05 -0.79 1.22 1.22 0 0 0 -0.76 -0.76 4.29 4.29 0 0 0 -1.77 -0.21l-1.7 0.25a1.63 1.63 0 0 0 -0.68 0.32 0.83 0.83 0 0 0 -0.28 0.46c-0.07 0.4 0 2.25 0 3l0 0.3 0 0.06a0.28 0.28 0 0 0 0.17 0.25s0.41 0.09 0.43 -0.24Z" fill="#020202" fill-rule="evenodd" stroke-width="1"></path>
    <path d="M17.64 6.61c0 0.1 0.22 0.13 0.33 0.16s0.87 0.24 1.19 0.37a4.1 4.1 0 0 1 0.06 0.78c0 1 0 2.46 -0.13 4.11 -0.19 2.79 -0.52 6 -0.76 7.71a7 7 0 0 1 -0.5 2.16 1.66 1.66 0 0 1 -0.83 0.82l-0.53 0.1a3.3 3.3 0 0 1 -1.26 -0.09 2.13 2.13 0 0 1 -1 -0.5 3.88 3.88 0 0 1 -0.53 -0.83 7 7 0 0 1 -0.38 -1 49.16 49.16 0 0 1 -0.78 -5.26c-0.33 -2.78 -0.64 -5.85 -0.7 -7.28 0 -0.24 0.06 -0.48 0 -0.59a3.29 3.29 0 0 1 0.51 -0.14c0.4 -0.1 0.86 -0.18 1.19 -0.23a0.3 0.3 0 1 0 -0.08 -0.6 14.74 14.74 0 0 0 -1.44 0.25 2.77 2.77 0 0 0 -0.69 0.24 0.92 0.92 0 0 0 -0.21 0.67c0 0.66 0 2.06 0.13 3.71a93.68 93.68 0 0 0 1 9.58 9.78 9.78 0 0 0 0.42 1.14 5.08 5.08 0 0 0 0.67 1.11 2.76 2.76 0 0 0 1.28 0.78 4.75 4.75 0 0 0 2.06 0.21l0.8 -0.18a2.81 2.81 0 0 0 1.4 -1.38 8.11 8.11 0 0 0 0.56 -2.52c0.23 -2 0.52 -6 0.59 -9.11a13.07 13.07 0 0 0 -0.27 -4.09 0.93 0.93 0 0 0 -0.45 -0.26c-0.39 -0.13 -1.06 -0.3 -1.15 -0.32S18 6 17.89 6a0.71 0.71 0 0 0 -0.2 0 0.35 0.35 0 0 0 -0.35 0.35 0.34 0.34 0 0 0 0.3 0.26Z" fill="#020202" fill-rule="evenodd" stroke-width="1"></path>
    <path d="M16.31 4.36a0.28 0.28 0 0 0 -0.1 0.24 0.35 0.35 0 0 1 0.1 -0.24Zm-2.43 0.51c0 0.1 0.53 0.2 0.61 0.23a3.1 3.1 0 0 0 0.61 0.09 1.56 1.56 0 0 0 0.43 0c0.14 0 0.27 -0.06 0.41 -0.09a5.66 5.66 0 0 0 0.6 -0.1c0.29 -0.09 0.37 -0.26 0.36 -0.37a0.35 0.35 0 0 0 -0.35 -0.34h-0.1c0 -0.14 -0.48 -0.13 -0.51 -0.14a4.3 4.3 0 0 0 -0.72 -0.15c-0.22 0 -0.43 0.06 -0.64 0.06s-0.63 0.08 -0.75 0.12c-0.27 0.08 -0.32 0.25 -0.31 0.32a0.29 0.29 0 0 0 0.26 0.31Z" fill="#020202" fill-rule="evenodd" stroke-width="1"></path>
    <path d="M13.89 6.83c0 0.11 0.48 0.11 0.86 0.14a2.63 2.63 0 0 0 0.56 0c0.35 0 0.63 -0.15 0.81 -0.18l0.07 0 0.11 0a0.35 0.35 0 0 0 0.35 -0.35s-0.09 -0.29 -0.47 -0.4a4.45 4.45 0 0 0 -0.89 -0.2 2.33 2.33 0 0 0 -0.59 0 3.32 3.32 0 0 0 -1 0.34c-0.21 0.14 -0.28 0.27 -0.26 0.36s0 0.25 0.22 0.29a0.28 0.28 0 0 0 0.23 0Z" fill="#020202" fill-rule="evenodd" stroke-width="1"></path>
    <path d="M14.19 20.15a0.34 0.34 0 0 0 -0.36 0 0.35 0.35 0 0 0 -0.08 0.48 0.51 0.51 0 0 0 0.28 0.2 1.91 1.91 0 0 0 0.54 0 3.53 3.53 0 0 0 1.19 -0.08 1.36 1.36 0 0 0 0.76 -0.63 1.8 1.8 0 0 0 0.2 -0.79l0 -1.48 -0.1 -4.94 -0.21 -1.58a4.32 4.32 0 0 0 -0.52 -1.79A1.25 1.25 0 0 0 15 9a2.26 2.26 0 0 0 -0.52 0c-0.35 0 -0.7 0.12 -1 0.17l-0.48 0.07a0.31 0.31 0 0 0 -0.26 0.35 0.31 0.31 0 0 0 0.35 0.25l0.43 -0.05c0.28 0 0.57 -0.07 0.86 -0.08a1.56 1.56 0 0 1 0.48 0 0.54 0.54 0 0 1 0.37 0.38 5.38 5.38 0 0 1 0.15 1.29l0.09 1.51c0 1 0 2 0.07 3 0 0.67 0.08 1.33 0.14 2 0 0.31 0.12 0.78 0.15 1.22a1.27 1.27 0 0 1 0 0.6 0.61 0.61 0 0 1 -0.4 0.32 3.79 3.79 0 0 1 -0.79 0.07c-0.17 -0.01 -0.41 -0.04 -0.45 0.05Z" fill="#4C57E6" fill-rule="evenodd" stroke-width="1"></path>
    <path d="M8.59 14s0.11 0.13 0.12 0.07 -0.04 -0.07 -0.12 -0.07Zm-0.15 0a2.33 2.33 0 0 0 0.06 0.25 6 6 0 0 1 0 1 9.51 9.51 0 0 1 -0.08 1c-0.15 1.11 -0.1 2.27 -0.18 3.38a8.24 8.24 0 0 1 -0.2 1.32A4.41 4.41 0 0 1 7.73 22a0.85 0.85 0 0 1 -0.63 0.45l-0.74 0.08a1.2 1.2 0 0 1 -1 -0.76 7.78 7.78 0 0 1 -0.45 -2.63l0 -1 0 -1.15 0 -2.55a0.35 0.35 0 0 0 -0.34 -0.35 0.35 0.35 0 0 0 -0.35 0.35L4 17v2.16a9.06 9.06 0 0 0 0.4 3 2.23 2.23 0 0 0 1.86 1.45 2.37 2.37 0 0 0 0.46 0 4.2 4.2 0 0 0 0.62 -0.08 2 2 0 0 0 1.22 -0.71 4.24 4.24 0 0 0 0.66 -1.65 7.84 7.84 0 0 0 0.22 -1.53c0.06 -1.11 -0.06 -2.24 0 -3.34a7.91 7.91 0 0 0 0 -1.1 6.39 6.39 0 0 0 -0.12 -1.1 3 3 0 0 0 0 -0.41 0.64 0.64 0 0 0 -0.16 -0.33 0.79 0.79 0 0 0 -0.43 -0.16 3.91 3.91 0 0 0 -0.81 0.08 4.76 4.76 0 0 1 -0.66 0.07 11.59 11.59 0 0 0 -1.77 0H4.44a0.31 0.31 0 0 0 0 0.61L5.6 14c0.63 -0.06 1.3 0.09 2 0.09a5.09 5.09 0 0 0 0.55 0Z" fill="#020202" fill-rule="evenodd" stroke-width="1"></path>
  </g>
</svg>