<svg xmlns="http://www.w3.org/2000/svg" viewBox="0 0 24 24" id="Make-Up-Lipstick--Streamline-Freehand">
  <desc>
    Make Up Lipstick Streamline Icon: https://streamlinehq.com
  </desc>
  <g>
    <path d="M13.64 6.87Zm0 0Zm0 0ZM18 10.51a0.36 0.36 0 0 1 -0.08 0.37c0.13 -0.15 0.08 -0.27 0.08 -0.37Zm-4.18 -3.24c0.17 0.13 0.6 -0.55 0.67 -0.63L16 5.05c0.66 -0.71 1.46 -1.56 2.29 -2.31a9.62 9.62 0 0 1 1.66 -1.25 3.85 3.85 0 0 1 0.5 -0.25 1.43 1.43 0 0 1 0.27 -0.09l0.15 0a1.37 1.37 0 0 1 0.39 0.62 4.7 4.7 0 0 1 0.2 1 9.42 9.42 0 0 1 0.08 3.34 3.29 3.29 0 0 1 -1 1.79c-0.39 0.35 -0.8 0.72 -1.22 1.08s-0.56 0.45 -0.84 0.65 -0.68 0.54 -0.89 0.7l-0.07 0 -0.06 0.05c-0.16 0.17 0 0.82 0.53 0.46 0.21 -0.16 0.73 -0.54 0.9 -0.64s0.61 -0.42 0.92 -0.65 0.89 -0.69 1.3 -1a4.1 4.1 0 0 0 1.4 -2.21 10.51 10.51 0 0 0 0.08 -3.72 5.51 5.51 0 0 0 -0.36 -1.48 2.11 2.11 0 0 0 -0.76 -0.95 1.21 1.21 0 0 0 -0.91 -0.19 3.64 3.64 0 0 0 -1.22 0.52A10.27 10.27 0 0 0 17.56 2c-0.81 0.82 -1.56 1.75 -2.19 2.52L14 6.21c-0.07 0.08 -0.51 0.49 -0.65 0.67a0.39 0.39 0 0 0 -0.07 0.43 0.31 0.31 0 0 0 0.54 0Z" fill="#020202" fill-rule="evenodd" stroke-width="1"></path>
    <path d="M19.6 6.53c-0.14 0 -0.27 0.08 -0.27 0.33a0.33 0.33 0 0 1 0.27 -0.33Zm0.28 0.07 0 -0.09 -0.13 -0.68 0 -1.87c0 -0.08 0.17 -0.39 0.06 -0.47a0.29 0.29 0 0 0 0.19 -0.21 0.28 0.28 0 0 0 -0.22 -0.35c-0.15 -0.06 -0.3 0 -0.45 0.15a2.14 2.14 0 0 0 -0.38 0.65 3.74 3.74 0 0 0 -0.27 0.67 2.41 2.41 0 0 0 -0.07 0.48 2.67 2.67 0 0 0 0.23 1.27l0.31 0.59a1.4 1.4 0 0 0 0.31 0.38 0.36 0.36 0 0 0 0.39 0 0.34 0.34 0 0 0 0.06 -0.56Z" fill="#4C57E6" fill-rule="evenodd" stroke-width="1"></path>
    <path d="M8.5 10.53c-1 0.69 -1.17 1.09 -0.94 1.15 -0.22 0.36 0 0.33 0.87 -0.34a2.11 2.11 0 0 0 0.36 -0.27l0.21 -0.14a0.28 0.28 0 0 0 0.09 -0.1l0.33 -0.29 1.07 -1.1a7.35 7.35 0 0 1 2.2 -1.74A1.07 1.07 0 0 1 14 8c0.55 0.56 1.26 1.2 1.87 1.88a6.31 6.31 0 0 1 1 1.3 5.23 5.23 0 0 1 0.32 0.63 0.6 0.6 0 0 1 0.09 0.4 3.84 3.84 0 0 1 -0.53 1.05 17.06 17.06 0 0 1 -1.17 1.54l-0.66 0.69c0 0.05 -0.28 0.32 -0.32 0.38 -0.31 0.33 -0.32 0.54 -0.19 0.62s0.27 0.26 0.73 -0.2l0 -0.06 0.26 -0.26 0.72 -0.68a18.27 18.27 0 0 0 1.34 -1.53 5.21 5.21 0 0 0 0.73 -1.26 1.41 1.41 0 0 0 0 -0.71 4.85 4.85 0 0 0 -0.42 -1.1 7.21 7.21 0 0 0 -1.1 -1.59c-0.62 -0.7 -1.36 -1.35 -1.93 -1.91a2 2 0 0 0 -2.46 -0.38A8 8 0 0 0 9.9 8.93l-1 1.16 -0.37 0.38Z" fill="#020202" fill-rule="evenodd" stroke-width="1"></path>
    <path d="M8.21 11a52 52 0 0 1 4.06 3.49 20.82 20.82 0 0 1 1.84 1.92 1.84 1.84 0 0 1 0.47 0.75l-3.41 3.23 -2.82 2.67a0.34 0.34 0 0 0 0 0.48 0.34 0.34 0 0 0 0.48 0l2.9 -2.54c0.73 -0.71 2.2 -1.89 3 -2.7a4.55 4.55 0 0 0 0.61 -0.68 0.78 0.78 0 0 0 0.14 -0.47 6.31 6.31 0 0 0 -1.82 -2.66 47.38 47.38 0 0 0 -5.15 -4.68 0.6 0.6 0 0 0 -0.51 -0.06 1.21 1.21 0 0 0 -0.38 0.25c-0.4 0.34 -1.24 1.24 -1.67 1.57 -0.21 0.16 -0.41 0.33 -0.6 0.5l-0.8 0.79a15.35 15.35 0 0 0 -2.88 3.2 2.63 2.63 0 0 0 -0.21 2.1A3.94 3.94 0 0 0 2 19.23a16.53 16.53 0 0 0 1.15 1.27c0.5 0.53 1 1.08 1.54 1.57a9.55 9.55 0 0 0 1.2 0.92 11.81 11.81 0 0 0 1.28 0.85A1.2 1.2 0 0 0 8 24a0.29 0.29 0 0 0 -0.15 -0.57 0.84 0.84 0 0 1 -0.57 -0.21c-0.4 -0.24 -0.79 -0.61 -1 -0.77a7.32 7.32 0 0 1 -1.06 -0.87A21.37 21.37 0 0 1 3.76 20a12.92 12.92 0 0 1 -1 -1.23 3.13 3.13 0 0 1 -0.42 -0.86 2 2 0 0 1 0.5 -1.79 20.73 20.73 0 0 1 2.51 -2.43l1.29 -1.18c0.36 -0.33 1.12 -1.1 1.57 -1.51Z" fill="#020202" fill-rule="evenodd" stroke-width="1"></path>
  </g>
</svg>