<svg xmlns="http://www.w3.org/2000/svg" viewBox="0 0 24 24" id="Manga-Japanese-Comic-Astroboy--Streamline-Freehand">
  <desc>
    Manga Japanese Comic Astroboy Streamline Icon: https://streamlinehq.com
  </desc>
  <title>manga-japanese-comic-astroboy</title>
  <g>
    <path d="M24 10.46a0.41 0.41 0 0 0 -0.29 -0.25l-3.41 -0.72A10.64 10.64 0 0 0 19.94 8a6.42 6.42 0 0 0 -0.84 -1.7 9.2 9.2 0 0 0 -6.16 -3.6 8.1 8.1 0 0 0 -6.6 1.86c-1.11 -0.3 -2.19 -0.65 -3.34 -0.93a17.6 17.6 0 0 0 -2.49 -0.44 0.44 0.44 0 0 0 -0.4 0.16 0.46 0.46 0 0 0 -0.11 0.42c0.46 1.48 0.94 3 1.42 4.43s0.91 2.66 1.39 4l-0.08 0.09a2.53 2.53 0 0 0 -0.32 2.56 2.91 2.91 0 0 0 1.16 1.27 3.76 3.76 0 0 0 1.11 0.43 6 6 0 0 0 3.74 4.2 8.27 8.27 0 0 0 6 0.16A6.25 6.25 0 0 0 17 19a7.07 7.07 0 0 0 1.29 -2.62 3.5 3.5 0 0 0 0.64 -0.15 3 3 0 0 0 0.89 -0.46 3.07 3.07 0 0 0 1.1 -1.62A10.12 10.12 0 0 0 22.18 13a21.93 21.93 0 0 0 1.75 -2.2 0.41 0.41 0 0 0 0.07 -0.34Zm-4.6 4.66a2.51 2.51 0 0 1 -0.66 0.32 3.87 3.87 0 0 1 -0.77 0.12 0.41 0.41 0 0 0 -0.38 0.32 6.19 6.19 0 0 1 -1.24 2.53 5.25 5.25 0 0 1 -2.3 1.59 7.26 7.26 0 0 1 -5.18 -0.25A4.88 4.88 0 0 1 5.76 16a0.56 0.56 0 0 0 -0.51 -0.5 2.5 2.5 0 0 1 -1.07 -0.35 1.64 1.64 0 0 1 -0.7 -0.75 1.39 1.39 0 0 1 0.19 -1.4A2 2 0 0 1 5 12.12a0.55 0.55 0 0 0 0.5 -0.54 4.88 4.88 0 0 1 0.07 -0.76 2.52 2.52 0 0 1 0.2 -0.66 5.48 5.48 0 0 1 1.39 -1.88A2.18 2.18 0 0 1 9 7.77a1.77 1.77 0 0 1 0.17 0.14c0.55 0.5 1.74 1.64 2.4 2.33a0.42 0.42 0 0 0 0.58 0l3 -2.39A3 3 0 0 1 17 9.24a5.88 5.88 0 0 1 0.77 2.52 0.29 0.29 0 0 0 0.23 0.24 0.41 0.41 0 0 0 0.16 0 4.3 4.3 0 0 1 0.88 0 1.53 1.53 0 0 1 0.72 0.26 1.3 1.3 0 0 1 0.5 1.4 2.3 2.3 0 0 1 -0.89 1.46Zm2.27 -2.58c-0.19 0.21 -0.39 0.42 -0.6 0.62a2 2 0 0 0 -0.86 -1.45 2.11 2.11 0 0 0 -0.84 -0.33 3.81 3.81 0 0 0 -1 0 6.23 6.23 0 0 0 -0.76 -2.47 3.86 3.86 0 0 0 -2.43 -1.75 0.35 0.35 0 0 0 -0.31 0.07L12 9.37c-0.56 -0.6 -1.33 -1.38 -1.85 -1.89a4.38 4.38 0 0 0 -0.76 -0.63 3 3 0 0 0 -2.39 0.3 6 6 0 0 0 -2.19 2.53 3.41 3.41 0 0 0 -0.26 0.76 4.54 4.54 0 0 0 -0.11 0.66 3 3 0 0 0 -1.12 0.6c-0.4 -1.24 -0.79 -2.48 -1.16 -3.7s-0.72 -2.54 -1.07 -3.79a16 16 0 0 1 1.69 0.4c1.19 0.33 2.36 0.75 3.56 1.12a0.55 0.55 0 0 0 0.55 -0.14 7 7 0 0 1 5.9 -1.75 8.24 8.24 0 0 1 5.49 3.07A5.17 5.17 0 0 1 19 8.32a9.16 9.16 0 0 1 0.41 1.62 0.47 0.47 0 0 0 0.38 0.38l3.1 0.57a16.93 16.93 0 0 1 -1.25 1.65Z" fill="#020202" fill-rule="evenodd" stroke-width="1"></path>
    <path d="M14.05 16a0.35 0.35 0 0 0 -0.45 0.18 1.87 1.87 0 0 1 -1.75 0.92 3 3 0 0 1 -0.6 0 2.09 2.09 0 0 1 -1.3 -0.69 0.31 0.31 0 0 0 -0.41 -0.11 0.3 0.3 0 0 0 -0.1 0.41A2.62 2.62 0 0 0 11 18.08a2.5 2.5 0 0 0 0.94 0.14 2.43 2.43 0 0 0 0.92 -0.22 2.56 2.56 0 0 0 1.41 -1.58 0.35 0.35 0 0 0 -0.22 -0.42Z" fill="#020202" fill-rule="evenodd" stroke-width="1"></path>
    <path d="M9.24 13.5c-0.09 -0.05 -0.15 -0.15 -0.28 -0.15a0.31 0.31 0 0 0 -0.21 0H8.7c-0.25 -0.07 -0.45 0.2 -0.64 0.41S8 14 8 14.06s0.19 0.43 0.55 0.58a0.67 0.67 0 0 0 0.28 0 0.71 0.71 0 0 0 0.22 -0.07c0.19 -0.15 0.37 -0.26 0.37 -0.47s0.05 -0.47 -0.18 -0.6Z" fill="#020202" fill-rule="evenodd" stroke-width="1"></path>
    <path d="M15 13.43c-0.09 0 -0.15 -0.15 -0.28 -0.15a0.31 0.31 0 0 0 -0.21 0c-0.26 -0.07 -0.46 0.2 -0.65 0.42s0 0.2 -0.06 0.32 0.19 0.42 0.55 0.58a1.38 1.38 0 0 0 0.28 0 0.52 0.52 0 0 0 0.23 -0.08c0.18 -0.14 0.37 -0.25 0.36 -0.46s-0.03 -0.5 -0.22 -0.63Z" fill="#020202" fill-rule="evenodd" stroke-width="1"></path>
    <path d="M8.8 12.17a3.53 3.53 0 0 0 0.32 0.21c0.28 0.15 0.55 0.27 0.83 0.41a0.34 0.34 0 0 0 0.48 0 0.33 0.33 0 0 0 0 -0.47c-0.2 -0.26 -0.37 -0.5 -0.59 -0.74a2.52 2.52 0 0 0 -0.3 -0.27 1.79 1.79 0 0 0 -0.39 -0.31 5.69 5.69 0 0 0 -0.93 -0.33 0.3 0.3 0 0 0 -0.41 0.1 0.31 0.31 0 0 0 0.1 0.41c0.22 0.23 0.37 0.48 0.6 0.7a2.37 2.37 0 0 0 0.29 0.29Z" fill="#4C57E6" fill-rule="evenodd" stroke-width="1"></path>
    <path d="M15.42 10.61a9.23 9.23 0 0 0 -1.08 0.4 2.86 2.86 0 0 0 -0.42 0.24 2.79 2.79 0 0 0 -0.38 0.3c-0.28 0.27 -0.49 0.56 -0.74 0.85a0.29 0.29 0 0 0 -0.06 0.41 0.29 0.29 0 0 0 0.42 0.07 11.89 11.89 0 0 0 1.15 -0.52 4.86 4.86 0 0 0 0.59 -0.42c0.29 -0.24 0.53 -0.5 0.83 -0.72a0.34 0.34 0 0 0 0.14 -0.46 0.33 0.33 0 0 0 -0.45 -0.15Z" fill="#4C57E6" fill-rule="evenodd" stroke-width="1"></path>
  </g>
</svg>