<svg xmlns="http://www.w3.org/2000/svg" viewBox="0 0 24 24" id="Manga-Japanese-Comic-Ninja-Naruto--Streamline-Freehand">
  <desc>
    Manga Japanese Comic Ninja Naruto Streamline Icon: https://streamlinehq.com
  </desc>
  <title>manga-japanese-comic-ninja-naruto</title>
  <g>
    <path d="M5.16 13a20.75 20.75 0 0 1 4.64 -0.93q1 -0.11 2.07 -0.12l2.08 0a18.33 18.33 0 0 1 4.53 0.86c0.34 0 0.68 0.18 0.74 -0.34a5.65 5.65 0 0 0 -0.11 -1.13 1.89 1.89 0 0 0 -0.18 -0.64 9.63 9.63 0 0 0 -1.09 -1.57 8.33 8.33 0 0 0 -1.44 -1.24 7.89 7.89 0 0 0 -3.14 -1.3 8.6 8.6 0 0 0 -3.39 0.09 7.27 7.27 0 0 0 -5.19 4 7.45 7.45 0 0 0 -0.12 0.89c-0.14 1.06 -0.2 1.41 0.13 1.43Zm12 -3.23a8.7 8.7 0 0 1 1.08 1.38 1.55 1.55 0 0 1 0.13 0.5c0 0.14 0 0.29 0.05 0.43a17.21 17.21 0 0 0 -1.87 -0.65c0 -0.3 0.07 -0.6 0.09 -0.91s0 -0.38 0 -0.57a3.39 3.39 0 0 0 -0.09 -0.57 1.29 1.29 0 0 0 -0.07 -0.21 5.12 5.12 0 0 1 0.71 0.61Zm-7.08 -2a8.65 8.65 0 0 1 3 -0.07 7 7 0 0 1 2.44 0.81l0 1a4.89 4.89 0 0 0 0 0.54c0 0.18 0.05 0.36 0.08 0.54s0.08 0.42 0.13 0.63c-0.55 -0.12 -1.11 -0.23 -1.67 -0.3a16.14 16.14 0 0 0 -2.2 -0.12 14.7 14.7 0 0 0 -2.2 0.2c-0.49 0.08 -1 0.18 -1.46 0.3 0 -0.27 0 -0.55 0.05 -0.83s0 -0.57 0 -0.86 -0.09 -0.77 -0.15 -1.15a8.39 8.39 0 0 1 2.01 -0.67Zm-4.88 4.1a6.48 6.48 0 0 1 0.15 -0.87 5.42 5.42 0 0 1 1.89 -2.06 3.26 3.26 0 0 0 -0.09 0.45 3.69 3.69 0 0 0 0 0.58 5.67 5.67 0 0 0 0 0.58 9.61 9.61 0 0 0 0.23 1 20.08 20.08 0 0 0 -2.24 0.83c0.03 -0.19 0.04 -0.38 0.06 -0.51Z" fill="#4C57E6" fill-rule="evenodd" stroke-width="1"></path>
    <path d="M21.14 15.29a2.7 2.7 0 0 0 -0.86 -1.23 3.71 3.71 0 0 0 -1.05 -0.58 0.5 0.5 0 0 1 -0.05 -0.33c0 -0.32 -0.67 -0.19 -0.67 0.35l0 0.29a0.35 0.35 0 0 0 0.26 0.31 2.77 2.77 0 0 1 1 0.54 2 2 0 0 1 0.59 0.9 2.14 2.14 0 0 1 -0.36 1.84 2 2 0 0 1 -1.6 0.86 0.48 0.48 0 0 0 -0.46 0.42c-0.05 0.3 -0.1 0.59 -0.17 0.88a4.4 4.4 0 0 1 -0.29 0.79 4.13 4.13 0 0 1 -2.31 2 10.27 10.27 0 0 1 -4.94 0.39A7 7 0 0 1 7 21.63a3.48 3.48 0 0 1 -1.44 -2.86 0.47 0.47 0 0 0 -0.41 -0.46 1.91 1.91 0 0 1 -1.95 -1.82 2.43 2.43 0 0 1 1.74 -2.3 0.33 0.33 0 0 0 0.23 -0.31l0 -0.5c0 -0.36 -0.56 -0.31 -0.61 0v0.24a3.09 3.09 0 0 0 -2.14 2.88 2.65 2.65 0 0 0 2.2 2.67 4.32 4.32 0 0 0 1.71 3.34 8.06 8.06 0 0 0 3.79 1.36 11.15 11.15 0 0 0 5.51 -0.49 5.15 5.15 0 0 0 2.81 -2.61 4.46 4.46 0 0 0 0.28 -0.8 5.66 5.66 0 0 0 0.16 -0.82 3 3 0 0 0 1.89 -1.27 3 3 0 0 0 0.37 -2.59Z" fill="#020202" fill-rule="evenodd" stroke-width="1"></path>
    <path d="m7.24 17.37 0.24 -0.08c0.81 -0.3 0.9 -0.35 0.9 -0.58s-0.09 -0.42 -1.06 -0.49a1 1 0 0 0 -0.3 0 1 1 0 0 0 -0.28 0.08c-0.11 0.06 -0.86 0.51 -0.78 0.79s1 0.28 1 0.28a1.06 1.06 0 0 0 0.28 0Z" fill="#020202" fill-rule="evenodd" stroke-width="1"></path>
    <path d="M8.45 18.45a2.78 2.78 0 0 0 -0.76 0.16 0.92 0.92 0 0 0 -0.28 0.14 1.12 1.12 0 0 0 -0.24 0.19 6.25 6.25 0 0 0 -0.4 0.6 0.3 0.3 0 0 0 -0.08 0.42 0.31 0.31 0 0 0 0.42 0.07 3.92 3.92 0 0 0 0.78 -0.23 2.22 2.22 0 0 0 0.35 -0.25c0.17 -0.15 0.27 -0.32 0.45 -0.46a0.34 0.34 0 0 0 0.2 -0.44 0.33 0.33 0 0 0 -0.44 -0.2Z" fill="#020202" fill-rule="evenodd" stroke-width="1"></path>
    <path d="M16.49 16.19a1.09 1.09 0 0 0 -0.25 -0.1 0.74 0.74 0 0 0 -0.26 0c-0.09 0 -0.93 0.1 -1 0.38s0.75 0.68 0.76 0.69a0.9 0.9 0 0 0 0.23 0.08 1 1 0 0 0 0.24 0c0.91 0 1 -0.11 1 -0.28s0.1 -0.35 -0.72 -0.77Z" fill="#020202" fill-rule="evenodd" stroke-width="1"></path>
    <path d="M16.15 18.86a1.55 1.55 0 0 0 -0.27 -0.24 1.41 1.41 0 0 0 -0.32 -0.17 4.13 4.13 0 0 0 -0.85 -0.17 0.29 0.29 0 0 0 -0.4 0.14 0.3 0.3 0 0 0 0.14 0.4c0.2 0.19 0.33 0.39 0.53 0.57l0.25 0.19a2.49 2.49 0 0 0 0.28 0.15c0.23 0.12 0.46 0.19 0.69 0.32a0.35 0.35 0 0 0 0.48 0 0.35 0.35 0 0 0 0 -0.49 4.83 4.83 0 0 0 -0.53 -0.7Z" fill="#020202" fill-rule="evenodd" stroke-width="1"></path>
    <path d="M12.81 17.26c-0.39 0.24 -0.77 0.45 -1.15 0.72l-0.13 0.09 -1.06 -0.61a0.31 0.31 0 0 0 -0.43 0 0.3 0.3 0 0 0 0 0.42 10 10 0 0 0 0.77 0.95c0.12 0.13 0.26 0.24 0.39 0.36a0.59 0.59 0 0 0 0.72 0c0.14 -0.14 0.29 -0.26 0.42 -0.4 0.32 -0.33 0.58 -0.69 0.88 -1a0.34 0.34 0 0 0 -0.45 -0.52Z" fill="#020202" fill-rule="evenodd" stroke-width="1"></path>
    <path d="M10.33 15a0.34 0.34 0 0 0 -0.11 -0.47 5.26 5.26 0 0 0 -0.89 -0.7 1.85 1.85 0 0 0 -0.45 -0.21 2.07 2.07 0 0 0 -0.49 -0.12 4.22 4.22 0 0 0 -1.16 0.09 0.31 0.31 0 0 0 -0.31 0.29 0.29 0.29 0 0 0 0.29 0.31 9.79 9.79 0 0 1 0.92 0.38l0.38 0.14 0.39 0.11a9.47 9.47 0 0 1 1 0.29 0.34 0.34 0 0 0 0.43 -0.11Z" fill="#020202" fill-rule="evenodd" stroke-width="1"></path>
    <path d="M15.51 14.35a10 10 0 0 1 1 -0.44 0.35 0.35 0 0 0 0.29 -0.39 0.34 0.34 0 0 0 -0.39 -0.29 5.44 5.44 0 0 0 -1.21 0.08 3.18 3.18 0 0 0 -0.51 0.13 3.29 3.29 0 0 0 -0.46 0.23 5.09 5.09 0 0 0 -0.92 0.8 0.3 0.3 0 0 0 0.33 0.51c0.39 -0.16 0.79 -0.22 1.19 -0.36a5.52 5.52 0 0 0 0.68 -0.27Z" fill="#020202" fill-rule="evenodd" stroke-width="1"></path>
    <path d="M23.65 7.44a0.44 0.44 0 0 0 0 -0.37 0.44 0.44 0 0 0 -0.27 -0.25 7.78 7.78 0 0 0 -1.07 -0.21c-0.64 -0.09 -1.31 -0.13 -1.95 -0.2 0 -0.52 0.08 -1 0.11 -1.57s0 -0.91 0 -1.36a0.49 0.49 0 0 0 -0.59 -0.48l-3.06 0.83 -1 -3.4a0.55 0.55 0 0 0 -0.39 -0.36 0.56 0.56 0 0 0 -0.51 0.12l-3.25 2.73L9.39 0.21A0.54 0.54 0 0 0 8.87 0a0.56 0.56 0 0 0 -0.44 0.33l-1.74 3.8 -0.51 -0.24c-0.79 -0.4 -1.56 -0.84 -2.36 -1.22a0.51 0.51 0 0 0 -0.52 0.05 0.51 0.51 0 0 0 -0.21 0.47L3.66 7l-3 0.47a0.39 0.39 0 0 0 -0.31 0.23 0.39 0.39 0 0 0 0 0.38l1.86 2.82 -1.67 1.69a0.3 0.3 0 0 0 -0.09 0.26 0.29 0.29 0 0 0 0.14 0.24l2.11 1.23a0.29 0.29 0 0 0 0.41 -0.1 0.31 0.31 0 0 0 -0.11 -0.42l-1.7 -1 1.63 -1.6a0.38 0.38 0 0 0 0 -0.45L1.39 8.18l2.84 -0.36a0.44 0.44 0 0 0 0.31 -0.17 0.52 0.52 0 0 0 0.09 -0.34L4.22 4l1.47 0.81c0.35 0.18 0.7 0.36 1.06 0.51a0.55 0.55 0 0 0 0.71 -0.27l1.63 -3.42 2.07 2.47a0.57 0.57 0 0 0 0.82 0.07L15 1.6l1 3a0.52 0.52 0 0 0 0.63 0.37l2.94 -0.85 0 0.65c0 0.66 -0.06 1.32 -0.1 2a0.46 0.46 0 0 0 0.4 0.49c0.76 0.1 1.59 0.11 2.39 0.2l0.42 0.06c-0.24 0.45 -0.5 0.9 -0.76 1.34 -0.35 0.6 -0.73 1.19 -1.12 1.76a0.37 0.37 0 0 0 0 0.45l1 1.31 -1.55 0.83a0.34 0.34 0 0 0 0.32 0.6l1.93 -1a0.37 0.37 0 0 0 0.21 -0.25 0.35 0.35 0 0 0 -0.07 -0.31l-1.1 -1.43c0.36 -0.51 0.7 -1 1 -1.56s0.76 -1.2 1.11 -1.82Z" fill="#020202" fill-rule="evenodd" stroke-width="1"></path>
  </g>
</svg>