<svg xmlns="http://www.w3.org/2000/svg" viewBox="0 0 24 24" id="Mapping-Symbol-Delay--Streamline-Freehand">
  <desc>
    Mapping Symbol Delay Streamline Icon: https://streamlinehq.com
  </desc>
  <path d="M23.24 8.82a7.82 7.82 0 0 0 -3.63 -3.67 8.27 8.27 0 0 0 -2.51 -0.74c-1.22 -0.17 -2.5 -0.16 -3.69 -0.24 -0.44 0 -5.17 -0.06 -8.66 0a36.54 36.54 0 0 0 -3.83 0.15 0.71 0.71 0 0 0 -0.4 0.35 2.85 2.85 0 0 0 -0.25 0.83 41.73 41.73 0 0 0 -0.15 8.2 20.56 20.56 0 0 0 0.75 4.8c0.26 0.74 0.65 1.12 1 1.14 1.14 0.08 5.29 0.21 9 0.26a60.19 60.19 0 0 0 6 -0.11 13.93 13.93 0 0 0 2.8 -0.75 8.94 8.94 0 0 0 2.55 -1.52 4 4 0 0 0 1 -1.35 10.08 10.08 0 0 0 0.66 -2.21 8.34 8.34 0 0 0 -0.64 -5.14Zm-0.5 4.9a8.71 8.71 0 0 1 -0.54 2 3.1 3.1 0 0 1 -0.68 1 8.06 8.06 0 0 1 -2.23 1.38 12.47 12.47 0 0 1 -2.59 0.76c-0.68 0.13 -3.13 0.2 -5.86 0.23 -3.65 0 -7.79 0 -8.92 -0.07s-0.08 -0.07 -0.12 -0.13a2 2 0 0 1 -0.25 -0.55 20.14 20.14 0 0 1 -0.64 -4.65 41.43 41.43 0 0 1 0.28 -8 2.64 2.64 0 0 1 0.13 -0.46c0.55 -0.06 2.5 0 4.66 0 3.25 0 7 0.11 7.35 0.14 1.17 0.08 2.41 0.08 3.6 0.25a7.21 7.21 0 0 1 2.15 0.63 6.76 6.76 0 0 1 3.11 3.12 7.3 7.3 0 0 1 0.55 4.35Z" fill="#020202" stroke-width="1"></path>
</svg>