<svg xmlns="http://www.w3.org/2000/svg" viewBox="0 0 24 24" id="Mapping-Symbol-Stored-Data--Streamline-Freehand">
  <desc>
    Mapping Symbol Stored Data Streamline Icon: https://streamlinehq.com
  </desc>
  <path d="M23.87 19.49a16.62 16.62 0 0 1 -2.35 -9A7.43 7.43 0 0 1 23.69 5a0.61 0.61 0 0 0 0.24 -0.62 0.73 0.73 0 0 0 -0.44 -0.52 15.11 15.11 0 0 0 -3.58 -0.55c-4.77 -0.41 -12.55 -0.39 -15.38 0.2l-0.06 0C1.31 4.58 0 8 0 11.46s1.42 7.33 3.51 8.79a6.62 6.62 0 0 0 1.82 0.31c3.07 0.26 9.93 0.53 14.26 0.43a17.38 17.38 0 0 0 3.7 -0.34c0.81 -0.25 0.8 -0.81 0.58 -1.16Zm-2.37 0.17a156.06 156.06 0 0 1 -15.9 -0.16 14.14 14.14 0 0 1 -1.53 -0.14l-0.05 0C2.16 18 0.94 14.68 0.88 11.45s1 -6.23 3.82 -7.26l0.09 0a50.14 50.14 0 0 1 5.54 -0.33 82 82 0 0 1 12.21 0.75 8.91 8.91 0 0 0 -2.2 5.82 18 18 0 0 0 2.16 9.19Z" fill="#020202" stroke-width="1"></path>
</svg>