<svg xmlns="http://www.w3.org/2000/svg" viewBox="0 0 24 24" id="Maps-Pin-2--Streamline-Freehand">
  <desc>
    Maps Pin 2 Streamline Icon: https://streamlinehq.com
  </desc>
  <title>maps-pin-2</title>
  <g>
    <path d="M9.21 8.79A5.13 5.13 0 0 0 11 9.2c0 0.79 -0.12 1.58 -0.15 2.38l0 1.2c0 0.4 0 0.79 0.07 1.19 0.07 0.94 0.19 1.86 0.33 2.79a0.36 0.36 0 0 0 0.72 -0.05c0 -1 0.07 -1.89 0.08 -2.85l0 -1.9c-0.05 -0.93 -0.19 -1.85 -0.32 -2.78h0.14a4.53 4.53 0 0 0 3.67 -3.4 4 4 0 0 0 -1.65 -4.6A3 3 0 0 0 12.5 0.77a8 8 0 0 0 -2 0.16 0.39 0.39 0 0 0 -0.19 0.1A0.32 0.32 0 0 0 10 0.9a4 4 0 0 0 -2.9 2.29A4.17 4.17 0 0 0 7.19 7a4.33 4.33 0 0 0 2.02 1.79ZM7.87 3.53a3.32 3.32 0 0 1 2.27 -2 0.31 0.31 0 0 0 0.13 -0.06 0.34 0.34 0 0 0 0.37 0.19 7.5 7.5 0 0 1 1.78 -0.07 2.13 2.13 0 0 1 1 0.34A3.08 3.08 0 0 1 14.5 5.5 3.43 3.43 0 0 1 11.72 8a4.17 4.17 0 0 1 -2 -0.27A3.32 3.32 0 0 1 8.1 6.45a3.22 3.22 0 0 1 -0.23 -2.92Z" fill="#020202" fill-rule="evenodd" stroke-width="1"></path>
    <path d="M15.05 17.7a9.86 9.86 0 0 1 -3 0.64 10.35 10.35 0 0 1 -3.09 -0.16c-0.81 -0.17 -1.17 -0.58 -1.09 -1.07a1.91 1.91 0 0 1 1.33 -1.4 0.33 0.33 0 0 0 0.21 -0.4 0.33 0.33 0 0 0 -0.41 -0.21 2.71 2.71 0 0 0 -2 1.84c-0.22 0.89 0.2 1.84 1.65 2.29a10 10 0 0 0 3.46 0.31 9.66 9.66 0 0 0 3.37 -0.88 2.45 2.45 0 0 0 1.57 -2.05 2.22 2.22 0 0 0 -1.57 -2 0.36 0.36 0 0 0 -0.47 0.18 0.34 0.34 0 0 0 0.17 0.47c0.68 0.35 1 0.81 1 1.29s-0.44 0.87 -1.13 1.15Z" fill="#4C57E6" fill-rule="evenodd" stroke-width="1"></path>
    <path d="M24 21.44c-0.1 -1.18 -1.55 -3 -2 -3.74l-1.21 -2a14.51 14.51 0 0 0 -1.81 -2.94 3.26 3.26 0 0 0 -2.26 -1h-1.99a0.36 0.36 0 0 0 -0.07 0.72l2 0a2.59 2.59 0 0 1 1.74 0.79A13.4 13.4 0 0 1 20 16.1l1.18 2.1a17.08 17.08 0 0 1 1.72 2.88c0.08 0.27 0.15 0.51 0 0.69s-0.29 0.2 -0.6 0.23a18.44 18.44 0 0 1 -2.58 0.08c-1.33 0 -2.67 -0.18 -4 -0.24l-3.36 0c-1.67 0 -3.33 0.12 -5 0.21l-1.8 0 -2.73 0A9.21 9.21 0 0 1 1.59 22a1.67 1.67 0 0 1 -0.59 -0.22c0.08 -0.13 0.28 -0.33 0.34 -0.43L2.73 19l2.15 -4.37a12.72 12.72 0 0 1 0.78 -1.44 3.23 3.23 0 0 1 0.68 -0.75 1.66 1.66 0 0 1 0.66 -0.22c0.44 -0.08 0.93 -0.09 1.28 -0.15a0.31 0.31 0 1 0 -0.1 -0.62c-0.41 0.05 -1 0.05 -1.52 0.16a1.88 1.88 0 0 0 -0.72 0.29 4 4 0 0 0 -0.86 0.89 12.88 12.88 0 0 0 -0.87 1.5l-2.29 4.29 -1.43 2.27a3.15 3.15 0 0 0 -0.49 0.95 0.81 0.81 0 0 0 0.36 0.8 2.54 2.54 0 0 0 1 0.41 10.13 10.13 0 0 0 1.4 0.13c0.76 0 1.54 0.08 2.31 0.1s1.56 0 2.33 0c1.65 -0.07 3.31 -0.15 5 -0.18l3.28 0c1.32 0 2.67 0.16 4 0.18a19.2 19.2 0 0 0 2.74 -0.14c1.29 -0.19 1.64 -0.86 1.58 -1.66Z" fill="#020202" fill-rule="evenodd" stroke-width="1"></path>
  </g>
</svg>