<svg xmlns="http://www.w3.org/2000/svg" viewBox="0 0 24 24" id="Maps-Mark-Target--Streamline-Freehand">
  <desc>
    Maps Mark Target Streamline Icon: https://streamlinehq.com
  </desc>
  <title>maps-mark-target</title>
  <g>
    <path d="M12.78 20.42c0.34 -0.37 0.81 -0.45 1.16 -0.82a2.23 2.23 0 0 0 0.48 -0.76 1.7 1.7 0 0 0 0.07 -0.84c-0.08 -0.44 -0.33 -0.89 -0.4 -1.29a1.19 1.19 0 0 1 0.25 -1A2 2 0 0 1 15.4 15a0.32 0.32 0 0 0 0.25 -0.35 0.3 0.3 0 0 0 -0.35 -0.25 2.7 2.7 0 0 0 -1.8 1 2.07 2.07 0 0 0 -0.44 1.46c0 0.36 0.19 0.76 0.26 1.16a0.75 0.75 0 0 1 0 0.42 1.23 1.23 0 0 1 -0.24 0.38c-0.34 0.39 -0.81 0.7 -1.12 1.11a1.8 1.8 0 0 0 -0.4 2c0.2 0.39 0.95 0.21 0.85 -0.07 -0.05 -0.48 -0.31 -0.73 0.37 -1.44Z" fill="#4C57E6" stroke-width="1"></path>
    <path d="M12.07 9.5a3.22 3.22 0 0 1 0 1.82 1.37 1.37 0 0 1 -1.1 1 4.74 4.74 0 0 1 -1.13 0 2.13 2.13 0 0 0 -1.1 0.25 1.75 1.75 0 0 0 -0.75 1 1.8 1.8 0 0 0 -0.09 0.65 8.61 8.61 0 0 0 0.18 1.15c0.11 0.68 0.32 1.54 0.39 2.36a3.14 3.14 0 0 1 -0.12 1.38c-0.35 0.89 -1.61 1.61 -2.1 2.54a1.42 1.42 0 0 0 -0.21 0.82 0.38 0.38 0 0 0 0.73 0 0.85 0.85 0 0 1 0.15 -0.47 6.64 6.64 0 0 1 1.35 -1.35 3.79 3.79 0 0 0 1 -1.19 4.23 4.23 0 0 0 0.28 -1.81c0 -0.86 -0.23 -1.75 -0.32 -2.46 0 -0.29 -0.12 -0.6 -0.16 -0.9a1 1 0 0 1 0 -0.38c0.09 -0.27 0.2 -0.41 0.37 -0.46 0.5 -0.15 1.15 0 1.75 -0.15a2.23 2.23 0 0 0 1.55 -1.3 3.83 3.83 0 0 0 0 -2.73c-0.57 -1.64 -1.28 -1 -1.07 -0.71a3.22 3.22 0 0 1 0.4 0.94Z" fill="#4C57E6" stroke-width="1"></path>
    <path d="M23.59 18.21a3.69 3.69 0 0 0 -0.11 -0.45q0 -1.52 -0.06 -3c-0.05 -1.45 -0.12 -2.88 -0.22 -4.38a33.41 33.41 0 0 0 -0.2 -3.6 4.55 4.55 0 0 0 -0.61 -1.61A5.91 5.91 0 0 0 21.4 4a3.85 3.85 0 0 0 -1.4 -0.82 3.58 3.58 0 0 0 -2.67 0.2 3.13 3.13 0 0 0 -1.74 2.08 5 5 0 0 0 -0.06 1.6c0.11 1.1 0.49 2.27 0.58 3.27l0.45 5.32a10.5 10.5 0 0 0 0.23 1.59A6.61 6.61 0 0 0 17 18a2 2 0 0 0 0.73 1.15 3.63 3.63 0 0 0 1.5 0.68 0.82 0.82 0 0 0 0.93 -0.42 1.75 1.75 0 0 0 0.07 -0.88c-0.08 -0.7 -0.35 -1.71 -0.48 -2.5a2.76 2.76 0 0 1 1.21 0.2 2.73 2.73 0 0 1 1.67 2.13 3.94 3.94 0 0 1 0.05 0.6 1.27 1.27 0 0 1 -0.09 0.47 0.92 0.92 0 0 1 -0.27 0.32 5.43 5.43 0 0 1 -0.51 0.32 10.7 10.7 0 0 1 -1.23 0.59 13.9 13.9 0 0 1 -1.32 0.47 26.61 26.61 0 0 1 -4.41 0.93c-1.38 0.19 1.91 -0.2 -6.87 0.66 0 0 -1.83 0.15 -3.42 0.11a4.3 4.3 0 0 1 -0.6 0c-0.09 0 -0.19 0 -0.24 -0.08a0.73 0.73 0 0 1 -0.08 -0.33c0 -0.36 0 -0.75 -0.09 -1 -0.12 -0.59 -0.21 -1.18 -0.3 -1.78 -0.13 -0.9 -0.24 -1.8 -0.35 -2.7a9.61 9.61 0 0 0 -0.23 -1.19c-0.36 -1.47 -1 -2.87 -1.22 -4.36 0 -0.24 -0.14 -0.61 -0.19 -1s-0.08 -0.43 0.05 -0.54l1 -0.07 3.36 -0.48c0.55 -0.06 1.09 -0.13 1.63 -0.22s1.08 -0.18 1.62 -0.28l3.43 -0.73c0.36 -0.08 0.74 -0.2 1.11 -0.27a2.68 2.68 0 0 1 0.69 0 0.31 0.31 0 0 0 0 -0.61 3.5 3.5 0 0 0 -0.85 0.05c-0.38 0.07 -0.76 0.18 -1.13 0.25l-3.38 0.61c-0.53 0.08 -1.06 0.17 -1.6 0.24s-1.06 0.13 -1.6 0.17l-3.33 0.4 -0.93 0a1.13 1.13 0 0 0 -0.6 0.23 1.19 1.19 0 0 0 -0.39 0.86 6.7 6.7 0 0 0 0.18 1.47c0.19 1.53 0.8 3 1.14 4.48A9.55 9.55 0 0 1 1.84 17c0.08 0.76 0.16 1.52 0.25 2.28s0.21 1.53 0.34 2.29c0 0.27 0 0.74 0.11 1.13a1.66 1.66 0 0 0 0.28 0.7 1.33 1.33 0 0 0 0.59 0.42 3.8 3.8 0 0 0 1.13 0.18l1.78 0c0.59 0 1.19 -0.06 1.79 -0.12 2.28 -0.23 4.61 -0.36 6.9 -0.69a27.16 27.16 0 0 0 4.58 -1c0.47 -0.15 0.94 -0.33 1.4 -0.52a13.11 13.11 0 0 0 1.35 -0.68 5.21 5.21 0 0 0 0.74 -0.52 1.88 1.88 0 0 0 0.43 -0.61 2.17 2.17 0 0 0 0.15 -0.68 4 4 0 0 0 -0.07 -0.97Zm-4.09 0.88c0 0.06 -0.09 0 -0.16 0a1.75 1.75 0 0 1 -0.49 -0.16 3.63 3.63 0 0 1 -0.64 -0.39 1.18 1.18 0 0 1 -0.44 -1 1.27 1.27 0 0 1 0.49 -1 3.23 3.23 0 0 1 0.82 -0.43c0.1 0.67 0.3 1.48 0.39 2.13a1.75 1.75 0 0 1 0.03 0.85Zm1.8 -3.69a3.59 3.59 0 0 0 -3.55 0.52 2.28 2.28 0 0 0 -0.37 0.39l-0.06 -0.72 -0.25 -5.34c-0.07 -1 -0.4 -2.18 -0.48 -3.29a3.83 3.83 0 0 1 0.09 -1.23 2 2 0 0 1 1.15 -1.31 2.42 2.42 0 0 1 1.81 -0.14 2.65 2.65 0 0 1 1 0.59 5 5 0 0 1 0.81 1A4.09 4.09 0 0 1 22 7.49c0.15 1 0.12 2 0.23 3 0.17 1.49 0.31 2.9 0.42 4.34 0 0.52 0.07 1.06 0.11 1.59a3.69 3.69 0 0 0 -1.46 -1.02Z" fill="#020202" stroke-width="1"></path>
    <path d="M2.14 7.2c0.24 -0.15 0.52 -0.28 0.78 -0.45s0.44 -0.33 0.66 -0.48a1.75 1.75 0 0 0 2.12 0.5 1.61 1.61 0 0 0 1.07 -1.34L8 5.39c0.61 0 1.22 -0.06 1.83 -0.1 0.82 -0.06 1.64 -0.14 2.45 -0.26a0.35 0.35 0 0 0 0.3 -0.38 0.33 0.33 0 0 0 -0.38 -0.3c-1.41 0.14 -2.84 0.09 -4.25 0.22a10.29 10.29 0 0 0 -1.24 0.18 1.6 1.6 0 0 0 -0.15 -0.37 2.07 2.07 0 0 0 -0.39 -0.46c0.43 -0.35 0.89 -0.68 1.36 -1C8.65 2.13 9.84 1.36 11 0.64a0.34 0.34 0 0 0 0.12 -0.48 0.34 0.34 0 0 0 -0.47 -0.11A42.05 42.05 0 0 0 7 2.23a12.32 12.32 0 0 0 -1.47 1.29 1.73 1.73 0 0 0 -1.39 0 1.6 1.6 0 0 0 -0.86 1.07 1.46 1.46 0 0 0 0.14 1 4.45 4.45 0 0 0 -0.78 0.33 2.7 2.7 0 0 0 -0.39 0.27c-0.19 0.15 -0.35 0.32 -0.52 0.48a0.35 0.35 0 0 0 -0.07 0.48 0.36 0.36 0 0 0 0.48 0.05ZM4 4.79a0.68 0.68 0 0 1 0.45 -0.39 1.42 1.42 0 0 1 1.1 0.6 0.6 0.6 0 0 1 -0.27 0.9C4.06 6.55 3.92 5.05 4 4.79Z" fill="#020202" stroke-width="1"></path>
    <path d="M6.4 13.76a0.35 0.35 0 0 0 0 -0.49c-0.24 -0.3 -0.48 -0.59 -0.75 -0.87l0.67 -0.93a0.36 0.36 0 0 0 0 -0.49 0.35 0.35 0 0 0 -0.49 0c-0.32 0.25 -0.65 0.48 -1 0.74l-0.36 -0.21a6.69 6.69 0 0 0 -1.35 -0.45 0.3 0.3 0 0 0 -0.4 0.15 0.3 0.3 0 0 0 0.15 0.4c0.36 0.25 0.66 0.55 1 0.83l0.12 0.09 0 0.06a5.56 5.56 0 0 0 -0.77 1.54 0.31 0.31 0 0 0 0.12 0.41 0.3 0.3 0 0 0 0.41 -0.12 12.93 12.93 0 0 1 1 -1l0.25 -0.23c0.32 0.19 0.64 0.38 0.94 0.59a0.35 0.35 0 0 0 0.46 -0.02Z" fill="#4C57E6" stroke-width="1"></path>
  </g>
</svg>