<svg xmlns="http://www.w3.org/2000/svg" viewBox="0 0 24 24" id="Maps-Pin-3--Streamline-Freehand">
  <desc>
    Maps Pin 3 Streamline Icon: https://streamlinehq.com
  </desc>
  <title>maps-pin-3</title>
  <g>
    <path d="M5.3 10.76a17.38 17.38 0 0 0 1.31 2.1 12.33 12.33 0 0 0 0.8 1c0.64 0.68 1.34 1.31 2 2 0.36 0.38 0.69 0.8 1.06 1.18a4.93 4.93 0 0 0 0.52 0.5 0.33 0.33 0 0 0 0.45 0 0.32 0.32 0 0 0 0 -0.45c-0.16 -0.15 -0.31 -0.3 -0.45 -0.46 -0.35 -0.4 -0.67 -0.83 -1 -1.22C9.3 14.63 8.62 14 8 13.28a10.45 10.45 0 0 1 -0.7 -0.91 14.74 14.74 0 0 1 -1.16 -2 9.21 9.21 0 0 1 -0.74 -2.16 6.78 6.78 0 0 1 -0.13 -1.28 3.7 3.7 0 0 1 0.16 -1.2 5.42 5.42 0 0 1 5.3 -3.59 5.25 5.25 0 0 1 5.35 3.45 7.47 7.47 0 0 1 0.3 1.36 6.37 6.37 0 0 1 0 1.38 8.35 8.35 0 0 1 -0.54 2.06 16.6 16.6 0 0 1 -1 2c-0.49 0.89 -1 1.8 -1.59 2.68a22.92 22.92 0 0 1 -1.83 2.5 0.36 0.36 0 0 0 0.58 0.43 24.54 24.54 0 0 0 2 -2.52c0.6 -0.88 1.17 -1.79 1.69 -2.68a17.27 17.27 0 0 0 1.25 -2.51 8.8 8.8 0 0 0 0.49 -1.86 7.27 7.27 0 0 0 0.05 -1.62 8.34 8.34 0 0 0 -0.31 -1.58A6.35 6.35 0 0 0 10.72 0.9a6.52 6.52 0 0 0 -6.35 4.48 5 5 0 0 0 -0.17 1.55 8 8 0 0 0 0.2 1.48 10.72 10.72 0 0 0 0.9 2.35Z" fill="#020202" fill-rule="evenodd" stroke-width="1"></path>
    <path d="M12.91 5.93c-0.9 -1.4 -1.51 -1.56 -3.12 -1a2.78 2.78 0 0 0 -1.24 0.75A2.58 2.58 0 0 0 8 7.88a2.65 2.65 0 0 0 1.44 1.88 3 3 0 0 0 2.64 -0.18 2.42 2.42 0 0 0 1.26 -2.32 2.87 2.87 0 0 0 -0.43 -1.33Zm-1.39 2.63a1.79 1.79 0 0 1 -1.58 0.08 1.53 1.53 0 0 1 -0.8 -1 1.6 1.6 0 0 1 0.15 -1.37 2.13 2.13 0 0 1 1 -0.69 4 4 0 0 1 0.89 -0.19 3.94 3.94 0 0 1 0.82 0.81 1.9 1.9 0 0 1 0.33 1.14 1.41 1.41 0 0 1 -0.81 1.22Z" fill="#4C57E6" fill-rule="evenodd" stroke-width="1"></path>
    <path d="M23.81 20.63a5.92 5.92 0 0 0 -0.52 -0.84 13.45 13.45 0 0 0 -0.92 -1.08l-1.66 -1.85c-0.19 -0.22 -0.39 -0.56 -0.63 -0.82a1.61 1.61 0 0 0 -0.45 -0.35 2 2 0 0 0 -0.77 -0.2 6.67 6.67 0 0 0 -1 0l-1.59 0.12a0.34 0.34 0 0 0 -0.34 0.37 0.35 0.35 0 0 0 0.37 0.35l1.59 -0.08a6.9 6.9 0 0 1 0.91 0 1.36 1.36 0 0 1 0.46 0.13 1 1 0 0 1 0.3 0.29c0.18 0.23 0.34 0.51 0.49 0.7l1.64 1.94a11.43 11.43 0 0 1 0.82 1 5.09 5.09 0 0 1 0.42 0.71h-0.2l-1 0 -4.73 0.08c-1.88 0.09 -3.75 0.14 -5.63 0.23 -1.26 0.06 -2.51 0.14 -3.77 0.25s-2.35 0.29 -3.53 0.39c-0.49 0 -1 0.07 -1.48 0.08L1.71 22c-0.08 0 -0.32 -0.18 -0.53 -0.25l0.06 -0.17 1.18 -2.2 0.76 -1.38 0.48 -0.82a1.81 1.81 0 0 1 0.86 -0.78 6.13 6.13 0 0 1 2 -0.11 0.32 0.32 0 0 0 0.31 -0.29 0.32 0.32 0 0 0 -0.32 -0.32 6.88 6.88 0 0 0 -2.23 0.08 2.55 2.55 0 0 0 -1.24 1l-0.54 0.84 -0.81 1.4 -1.28 2.12c0 0.08 -0.23 0.34 -0.32 0.52a0.82 0.82 0 0 0 -0.09 0.41 0.81 0.81 0 0 0 0.36 0.54 3.91 3.91 0 0 0 1.17 0.41l1.05 0.1 1.57 0c1.18 -0.07 2.36 -0.22 3.55 -0.3l9.36 -0.48c1.25 -0.08 2.51 0 3.76 0 0.32 0 0.65 0 1 -0.05s0.8 0 1.2 -0.08a2.72 2.72 0 0 0 0.58 -0.19 0.62 0.62 0 0 0 0.39 -0.48 1.9 1.9 0 0 0 -0.18 -0.89Z" fill="#020202" fill-rule="evenodd" stroke-width="1"></path>
  </g>
</svg>