<svg xmlns="http://www.w3.org/2000/svg" viewBox="0 0 24 24" id="Marine-Mammal-Seal--Streamline-Freehand">
  <desc>
    Marine Mammal Seal Streamline Icon: https://streamlinehq.com
  </desc>
  <g>
    <path d="m4 9.93 -0.12 0.18a5.55 5.55 0 0 1 -0.49 0.58c-0.29 0.3 -0.58 0.57 -0.87 0.86a0.31 0.31 0 1 0 0.4 0.48c0.4 -0.27 0.81 -0.52 1.2 -0.81a5.27 5.27 0 0 0 0.51 -0.43 2.22 2.22 0 0 0 0.37 -0.46 1.26 1.26 0 0 0 0.2 -0.51 0.51 0.51 0 0 0 -0.2 -0.5l-0.19 -0.12L4.5 9l-0.6 -0.24c-0.47 -0.18 -0.93 -0.33 -1.4 -0.48a0.27 0.27 0 0 0 -0.37 0.13 0.28 0.28 0 0 0 0.13 0.37Z" fill="#4C57E6" fill-rule="evenodd" stroke-width="1"></path>
    <path d="M12 9.37a0.56 0.56 0 0 0 -0.22 0.61 0.92 0.92 0 0 0 0.25 0.4 2.74 2.74 0 0 0 0.51 0.35l1.54 0.83a0.32 0.32 0 0 0 0.43 -0.12 0.31 0.31 0 0 0 -0.12 -0.43l-1.28 -1 -0.05 0 0.06 0 1.86 -1.37a0.28 0.28 0 0 0 0.13 -0.37 0.28 0.28 0 0 0 -0.42 -0.27 13 13 0 0 0 -1.34 0.55c-0.29 0.14 -0.57 0.29 -0.85 0.44a4.68 4.68 0 0 0 -0.5 0.38Z" fill="#4C57E6" fill-rule="evenodd" stroke-width="1"></path>
    <path d="M3.84 7.61a0.27 0.27 0 0 0 0.32 -0.22 5.31 5.31 0 0 1 0.7 -1.69 4.11 4.11 0 0 1 1.23 -1.26 4.27 4.27 0 0 1 2.43 -0.68 4.07 4.07 0 0 1 2.42 0.7 2.76 2.76 0 0 1 0.85 0.93 10.64 10.64 0 0 1 0.76 2 0.3 0.3 0 0 0 0.38 0.22 0.32 0.32 0 0 0 0.22 -0.39A11.3 11.3 0 0 0 12.5 5a3.76 3.76 0 0 0 -1 -1.29 4.84 4.84 0 0 0 -3 -1 4.94 4.94 0 0 0 -3 1 4.94 4.94 0 0 0 -1.28 1.62 5.62 5.62 0 0 0 -0.6 2 0.26 0.26 0 0 0 0.22 0.28Z" fill="#020202" fill-rule="evenodd" stroke-width="1"></path>
    <path d="M23.68 5.44a0.9 0.9 0 0 0 -0.61 -0.35 2.53 2.53 0 0 0 -0.85 0.09 6.53 6.53 0 0 0 -0.76 0.2l-1.05 0.37 -0.34 0.1 -0.13 -0.47a4.3 4.3 0 0 0 -0.57 -1 2.62 2.62 0 0 0 -0.92 -0.77 1.75 1.75 0 0 0 -0.57 -0.2 0.76 0.76 0 0 0 -0.4 0 0.94 0.94 0 0 0 -0.54 0.55 4 4 0 0 0 -0.26 1.13 5.44 5.44 0 0 0 0.18 2 6.55 6.55 0 0 0 0.72 1.6 2.18 2.18 0 0 0 -0.19 0.39 3.9 3.9 0 0 1 -0.57 0.58 10 10 0 0 1 -1.07 0.72 0.29 0.29 0 0 0 -0.1 0.39 0.29 0.29 0 0 0 0.38 0.09 9.71 9.71 0 0 0 1.16 -0.73 4.85 4.85 0 0 0 0.7 -0.65 4.82 4.82 0 0 0 0.39 -0.48 0.37 0.37 0 0 0 0 -0.39A5.61 5.61 0 0 1 17.59 7a4.35 4.35 0 0 1 -0.08 -1.73c0 -0.12 0 -0.32 0.1 -0.53a1.52 1.52 0 0 1 0.12 -0.32 0.22 0.22 0 0 1 0.05 -0.08l0.26 0.14a1.79 1.79 0 0 1 0.57 0.53 3 3 0 0 1 0.39 0.75l0.14 0.57s0 0.19 0.05 0.26a0.5 0.5 0 0 0 0.36 0.35 1.26 1.26 0 0 0 0.48 0 3.59 3.59 0 0 0 0.72 -0.2c0.34 -0.11 0.68 -0.25 1 -0.36l0.65 -0.17c0.08 0 0.28 -0.11 0.4 -0.13a1.16 1.16 0 0 1 -0.11 1.17 1.94 1.94 0 0 1 -1 0.95c-0.28 0.09 -0.72 0.05 -1.05 0.15a1.08 1.08 0 0 0 -0.64 0.48 3.45 3.45 0 0 0 -0.37 1c-0.13 0.69 -0.12 1.46 -0.29 2.1a10.35 10.35 0 0 1 -1.59 3.28 7 7 0 0 1 -2.19 2c-0.11 -0.1 -0.22 -0.19 -0.32 -0.3a2 2 0 0 1 -0.3 -0.45c-0.14 -0.29 -0.26 -0.61 -0.37 -0.89 -0.18 -0.46 -0.33 -0.89 -0.46 -1.34s-0.21 -0.9 -0.29 -1.38a0.27 0.27 0 0 0 -0.3 -0.25 0.28 0.28 0 0 0 -0.25 0.31 13.73 13.73 0 0 0 0.18 1.47c0.09 0.48 0.2 1 0.34 1.45 0.09 0.32 0.18 0.67 0.31 1a3.29 3.29 0 0 0 0.38 0.69 5.44 5.44 0 0 0 0.65 0.7 7 7 0 0 0 0.75 0.57c0.07 0 0.28 0.07 0.4 0.12a0.67 0.67 0 0 1 -0.29 0.42 3.2 3.2 0 0 1 -0.8 0.47 2.65 2.65 0 0 1 -1.95 0.09 3.36 3.36 0 0 1 -1.6 -1.31 0.31 0.31 0 0 0 -0.53 0.33 4.78 4.78 0 0 0 0.29 0.44 5.18 5.18 0 0 1 -1.73 0.5 7.32 7.32 0 0 1 -0.81 0l-0.81 0a5.89 5.89 0 0 1 -1.76 -0.43c0.2 -0.3 0.38 -0.61 0.55 -0.92a0.32 0.32 0 0 0 -0.1 -0.43 0.31 0.31 0 0 0 -0.43 0.1c-0.21 0.32 -0.42 0.65 -0.66 0.95a3.5 3.5 0 0 1 -0.5 0.52 2.81 2.81 0 0 1 -1.52 0.66A3.1 3.1 0 0 1 2 20.07a3.67 3.67 0 0 1 -0.57 -0.27 4.56 4.56 0 0 0 0.64 -0.5 4.14 4.14 0 0 0 0.52 -0.64 8.5 8.5 0 0 0 0.79 -1.81 23.57 23.57 0 0 0 0.62 -2.8 0.28 0.28 0 0 0 -0.21 -0.33 0.28 0.28 0 0 0 -0.33 0.22 22.31 22.31 0 0 1 -0.81 2.63 8.08 8.08 0 0 1 -0.85 1.55 3.28 3.28 0 0 1 -0.4 0.43 3.59 3.59 0 0 1 -0.49 0.35c-0.18 0.08 -0.54 0 -0.77 0.37a0.51 0.51 0 0 0 -0.06 0.48 1.57 1.57 0 0 0 0.56 0.76 3.54 3.54 0 0 0 1 0.52 4 4 0 0 0 2.17 0.2 3.64 3.64 0 0 0 1.91 -1c0.09 -0.09 0.17 -0.21 0.26 -0.31a5.4 5.4 0 0 0 1.94 0.95 4.09 4.09 0 0 0 1 0.11 4 4 0 0 0 1 -0.12 5.2 5.2 0 0 0 2 -1 4.07 4.07 0 0 0 1.12 0.79 3.46 3.46 0 0 0 2.6 0.08 3.69 3.69 0 0 0 1.2 -0.73 1.47 1.47 0 0 0 0.49 -1.17 0.74 0.74 0 0 0 -0.2 -0.47 3.64 3.64 0 0 0 -0.69 -0.42 4.15 4.15 0 0 1 -0.34 -0.24 7.82 7.82 0 0 0 2.24 -2 11.37 11.37 0 0 0 1.84 -3.48c0.2 -0.65 0.22 -1.44 0.38 -2.15a2.33 2.33 0 0 1 0.27 -0.71L22 9.19a3.12 3.12 0 0 0 1.87 -1.83 2 2 0 0 0 -0.19 -1.92Zm-0.85 0.64q0.09 0 0.09 0.06s-0.06 -0.01 -0.09 -0.06Z" fill="#020202" fill-rule="evenodd" stroke-width="1"></path>
    <path d="M7.33 7.37c0 -0.76 -0.79 -0.93 -1.36 -0.53a0.89 0.89 0 0 0 -0.32 0.4 0.8 0.8 0 0 0 0.19 0.82 0.89 0.89 0 0 0 0.81 0.25 0.78 0.78 0 0 0 0.35 -0.22 1.16 1.16 0 0 0 0.33 -0.72Z" fill="#020202" fill-rule="evenodd" stroke-width="1"></path>
    <path d="M10.57 8.09A0.87 0.87 0 0 0 11 7a0.85 0.85 0 0 0 -1.57 0.66 0.79 0.79 0 0 0 1.14 0.43Z" fill="#020202" fill-rule="evenodd" stroke-width="1"></path>
    <path d="M7.16 10.63c0.3 0.07 0.56 0.16 0.85 0.2a2.32 2.32 0 0 0 0.37 0 2.2 2.2 0 0 0 0.36 0c0.29 -0.05 0.55 -0.13 0.84 -0.2a0.31 0.31 0 0 0 0.31 -0.31 0.31 0.31 0 0 0 -0.32 -0.32c-0.29 -0.06 -0.56 -0.13 -0.85 -0.17l-0.37 0a2.33 2.33 0 0 0 -0.37 0c-0.29 0.06 -0.55 0.17 -0.84 0.26a0.28 0.28 0 0 0 -0.27 0.28 0.29 0.29 0 0 0 0.29 0.26Z" fill="#020202" fill-rule="evenodd" stroke-width="1"></path>
  </g>
</svg>