<svg xmlns="http://www.w3.org/2000/svg" viewBox="0 0 24 24" id="Martial-Arts-Helmet--Streamline-Freehand">
  <desc>
    Martial Arts Helmet Streamline Icon: https://streamlinehq.com
  </desc>
  <title>martial-arts-helmet</title>
  <g>
    <path d="M23.39 18.34c-0.33 -0.12 -0.9 -0.18 -1.09 -0.25 -0.75 -0.3 -1.46 -0.64 -2.2 -0.94 -1.27 -0.5 -2.15 -0.51 -2.83 -1.64a4.28 4.28 0 0 0 0.77 -0.9 7.8 7.8 0 0 0 0.93 -2.4 13.07 13.07 0 0 0 0.26 -3.73c-0.23 -3 -1.42 -4.59 -3.83 -6.27C13.24 0.7 12.16 0.71 11.11 0.81a7.4 7.4 0 0 0 -4.8 2.32 9.49 9.49 0 0 0 -1.93 6 9.07 9.07 0 0 0 2.28 5.77c-0.28 0.23 -0.34 0.66 -0.5 0.84C3.65 18.52 0.8 17.08 0.22 18.67a3.27 3.27 0 0 0 2 4.39A6.8 6.8 0 0 0 7.44 22a3.64 3.64 0 0 0 0.91 -0.93A11.14 11.14 0 0 0 9 19.9c0.11 -0.63 0 -1.22 -0.27 -0.88 -0.48 0.6 -0.54 0.9 -1 1.56A5.41 5.41 0 0 1 2.54 22a2.1 2.1 0 0 1 -1.37 -2.52c0.1 -0.92 0.34 -0.48 2 -0.95a9.19 9.19 0 0 0 3.52 -2.39c0.11 -0.16 0.38 -0.82 0.39 -0.83a10.34 10.34 0 0 0 1.22 1.11c3.35 2.4 7.78 0 8.5 -0.51a1.27 1.27 0 0 0 0.47 0.76 6 6 0 0 0 1.58 0.89c1 0.38 2 1 3.06 1.45a3.29 3.29 0 0 0 1 0.41c-0.39 2.22 -1.05 2.71 -2.65 2.58a8.53 8.53 0 0 1 -3.75 -1.34c-0.69 -0.47 -1 -1 -1.36 -1.08s-0.32 0.43 -0.08 0.92c0.29 0.28 0.58 0.52 0.94 0.82a9.22 9.22 0 0 0 4.15 1.78 3.06 3.06 0 0 0 3.07 -1.16 8.21 8.21 0 0 0 0.7 -2c0.15 -0.8 0.13 -1.36 -0.54 -1.6Zm-5.06 -8.73c-0.66 0.33 -1 1.27 -6.39 1.18A29 29 0 0 1 12 7.65c1.26 0.07 5.15 -0.23 6 -1a9.06 9.06 0 0 1 0.33 2.96Zm-0.59 -3.73c-0.22 0.12 -0.57 0.35 -0.66 0.38a20.75 20.75 0 0 1 -4.4 0.29l-0.59 0c0 -0.48 0.76 -4.68 0.77 -4.69a8.85 8.85 0 0 1 4.88 4.02ZM17.17 14a6 6 0 0 1 -3.28 2.1 5.77 5.77 0 0 1 -3.85 0 6.3 6.3 0 0 1 -1.3 -0.85 10.59 10.59 0 0 1 -1.18 -1.12A8.37 8.37 0 0 1 7 3.62a6.19 6.19 0 0 1 3.4 -2 5.81 5.81 0 0 1 1.88 -0.17 5 5 0 0 0 -0.38 0.94l-0.62 2.52c-0.12 0.58 -0.2 1 -0.28 1.54 -4.18 -0.32 -4.72 -0.94 -5 -0.5 -0.64 0.88 3.86 1.45 4.93 1.59 0 0.39 0 0.78 -0.06 1.16a20 20 0 0 0 0.08 2 18 18 0 0 1 -4.15 -0.5c-0.06 0 -0.64 -0.57 -0.9 -0.32a0.32 0.32 0 0 0 -0.08 0.4c0.15 0.39 1.38 0.81 1.84 0.94s1.12 0.25 1.68 0.36 1.15 0.2 1.75 0.25c0.08 0.5 0.55 4.11 1.43 4a0.33 0.33 0 0 0 0.24 -0.54s0 0 0 -0.07c-0.33 -0.56 -0.37 -0.43 -0.64 -3.34a15.59 15.59 0 0 0 5.39 -0.87 2.57 2.57 0 0 0 0.85 -0.5q0 0.42 -0.12 0.84A7.54 7.54 0 0 1 17.17 14Z" fill="#020202" stroke-width="1"></path>
    <path d="M14.4 17.43c-0.24 -0.3 -0.68 0 -0.68 0.29a20.46 20.46 0 0 1 0.22 2.45 1.91 1.91 0 0 1 -0.57 1.7 0.77 0.77 0 0 1 -0.43 0.12l-1.1 0 -1.31 -0.08c-0.12 0 -0.19 -0.13 -0.25 -0.25a2.38 2.38 0 0 1 -0.18 -0.71 14.9 14.9 0 0 1 0 -2.62c0 -0.15 0 -0.35 0.05 -0.63a0.41 0.41 0 0 0 -0.7 -0.23 15.37 15.37 0 0 0 -0.31 4.08A1.53 1.53 0 0 0 10.31 23c0.2 0 0.42 0.07 0.63 0.09l0.9 0a9.75 9.75 0 0 0 1.43 0 1.72 1.72 0 0 0 0.76 -0.33 2.31 2.31 0 0 0 0.86 -2c-0.05 -0.91 -0.41 -2.84 -0.49 -3.33Z" fill="#4C57E6" stroke-width="1"></path>
  </g>
</svg>