<svg xmlns="http://www.w3.org/2000/svg" viewBox="0 0 24 24" id="Martial-Arts-Swords--Streamline-Freehand">
  <desc>
    Martial Arts Swords Streamline Icon: https://streamlinehq.com
  </desc>
  <title>martial-arts-swords</title>
  <g>
    <path d="M7 15.81a4 4 0 0 0 0.38 -0.35 2.64 2.64 0 0 0 0.34 -0.39c0.23 -0.31 0.41 -0.66 0.65 -1a0.3 0.3 0 0 0 0 -0.42 0.31 0.31 0 0 0 -0.42 0c-0.36 0.26 -0.71 0.46 -1 0.7a4.25 4.25 0 0 0 -0.37 0.36 3.87 3.87 0 0 0 -0.33 0.4 1.6 1.6 0 0 0 -0.16 0.23 0.51 0.51 0 0 0 0.73 0.66Z" fill="#020202" stroke-width="1"></path>
    <path d="M6.84 16.74C5.39 15.4 3.72 14 3.56 13.9a0.34 0.34 0 0 0 -0.48 0 0.34 0.34 0 0 0 0 0.48c0.68 0.71 1.34 1.43 2 2.15 -1 0.94 -2 1.89 -3 2.88a16 16 0 0 0 -1.29 1.5 3.14 3.14 0 0 0 -0.57 1.6 1.33 1.33 0 0 0 0.69 1.32 2.27 2.27 0 0 0 2.18 -0.27 15.06 15.06 0 0 0 3 -3l1.15 -1.22 0.39 -0.34 0.56 0.48A22.14 22.14 0 0 0 10 20.92c0.3 0.18 0.54 0.11 0.61 0a0.29 0.29 0 0 0 0 -0.42c-0.35 -0.34 -1.61 -1.6 -1.74 -1.74s-1.68 -1.7 -2.03 -2.02Zm0 2.15 -1.32 1.17A20.7 20.7 0 0 1 3 22.32c-0.57 0.39 -1.11 0.72 -1.57 0.49l0 -0.13a1.29 1.29 0 0 1 0 -0.47 2 2 0 0 1 0.28 -0.67 18 18 0 0 1 1.53 -1.93c0.78 -0.88 1.62 -1.73 2.37 -2.56l0.47 0.5c0.33 0.34 0.68 0.68 1 1 -0.08 0.11 -0.22 0.31 -0.27 0.34Z" fill="#4C57E6" stroke-width="1"></path>
    <path d="m9.76 17.17 0.24 -0.33c0.24 -0.36 0.52 -0.82 0.94 -1.39a0.33 0.33 0 0 0 0 -0.47 0.34 0.34 0 0 0 -0.48 0 13.24 13.24 0 0 0 -1.4 1.26 5.44 5.44 0 0 0 -0.46 0.58c-0.1 0.14 -0.15 0.26 -0.22 0.34l-0.22 0.33c-0.17 0.3 0.12 0.78 0.67 0.61l0.25 -0.19a5.36 5.36 0 0 0 0.68 -0.74Z" fill="#020202" stroke-width="1"></path>
    <path d="M13.86 7.91c1.1 -1.07 2.29 -2.13 3.39 -3.09a4.7 4.7 0 0 0 0.72 0.82c0.17 0.16 0.38 0.27 0.55 0.43l0.34 0.16L16 9.4a0.3 0.3 0 0 0 0.43 0.41c1.87 -1.87 3.43 -3.35 4.73 -4.71 0.71 -0.75 1.34 -1.46 1.92 -2.16 1 -1.24 0.75 -2.23 0.21 -2.66A2.28 2.28 0 0 0 20.7 0.6c-0.41 0.29 -1.6 1.29 -3.06 2.63S14.77 6 13.38 7.44a0.33 0.33 0 0 0 0 0.47 0.34 0.34 0 0 0 0.48 0Zm7.48 -6.39a2.28 2.28 0 0 1 0.9 -0.39 0.46 0.46 0 0 1 0.36 0.05c0.06 0 0.06 0.12 0 0.22a1.83 1.83 0 0 1 -0.43 0.85c-0.68 0.93 -1.48 1.86 -2.39 2.9l-0.37 0.42 -0.2 -0.27a3.11 3.11 0 0 0 -0.61 -0.54c-0.26 -0.17 -0.54 -0.28 -0.82 -0.43 1.71 -1.42 3.11 -2.51 3.56 -2.81Z" fill="#020202" stroke-width="1"></path>
    <path d="M15.59 17.47c-0.76 -0.73 -4.76 -4.95 -8.44 -9 -0.69 -0.77 -1.36 -1.47 -2 -2.25l0.33 -0.15c0.17 -0.16 0.38 -0.27 0.55 -0.43a3.64 3.64 0 0 0 0.5 -0.54l0.86 0.9c3.61 3.56 8 7.94 9.91 10 0.41 0.4 0.79 -0.14 0.58 -0.36C16 13.47 11.67 8.85 8.12 5.22A62.69 62.69 0 0 0 3.3 0.59 2.27 2.27 0 0 0 0.69 0.28C0.15 0.71 -0.08 1.7 0.9 2.94c1.24 1.57 3.31 3.87 5.52 6.19 3.79 4 8 8.08 8.74 8.8 0 0 0.11 0.09 0.24 0.22s0.57 -0.26 0.46 -0.38ZM4.56 5.56C3.46 4.3 2.48 3.15 1.79 2.24a1.86 1.86 0 0 1 -0.43 -0.84l0 -0.22a0.46 0.46 0 0 1 0.36 -0.05 2.28 2.28 0 0 1 0.9 0.39 42.49 42.49 0 0 1 3.23 3 3.84 3.84 0 0 0 -0.53 0.28 3.11 3.11 0 0 0 -0.61 0.54Z" fill="#020202" stroke-width="1"></path>
    <path d="M23.21 20.91a16 16 0 0 0 -1.29 -1.49c-1 -1 -2.06 -1.94 -3 -2.88 0.66 -0.72 1.32 -1.44 2 -2.15a0.34 0.34 0 0 0 0 -0.48 0.34 0.34 0 0 0 -0.48 0s-2.39 2 -3.28 2.84a27.38 27.38 0 0 0 -2 2.05l-1.74 1.74a0.29 0.29 0 0 0 0 0.42c0.07 0.08 0.31 0.15 0.61 0 0.5 -0.3 1.63 -1.31 1.79 -1.43l0.56 -0.48c0.14 0.14 0.33 0.31 0.38 0.37l1.16 1.22a14.8 14.8 0 0 0 3 3 2.27 2.27 0 0 0 2.18 0.27 1.33 1.33 0 0 0 0.69 -1.32 3.14 3.14 0 0 0 -0.58 -1.68Zm-0.57 1.77c0 0.05 0 0.1 -0.05 0.13 -0.46 0.23 -1 -0.1 -1.57 -0.49a20.7 20.7 0 0 1 -2.54 -2.26l-1.3 -1.17a3.6 3.6 0 0 0 -0.3 -0.32c0.36 -0.32 0.71 -0.66 1 -1l0.47 -0.51c0.76 0.84 1.59 1.69 2.37 2.57a18 18 0 0 1 1.53 1.93 2 2 0 0 1 0.28 0.67 1.29 1.29 0 0 1 0.11 0.45Z" fill="#4C57E6" stroke-width="1"></path>
  </g>
</svg>