<svg xmlns="http://www.w3.org/2000/svg" viewBox="0 0 24 24" id="Mask-Oval--Streamline-Freehand">
  <desc>
    Mask Oval Streamline Icon: https://streamlinehq.com
  </desc>
  <g>
    <path d="M11.91 19.41a3 3 0 0 1 -1.91 -0.27 0.34 0.34 0 0 0 -0.33 0.59 3.68 3.68 0 0 0 2.39 0.41c4.69 -0.67 5.87 -8.27 3.63 -12.94 -1 -2 -2.74 -3.22 -4.51 -3 -1.39 0.17 -2.84 1.24 -3.87 3.74 -1.15 2.87 -0.84 8.12 0.82 9.91a0.3 0.3 0 0 0 0.44 -0.4 6.17 6.17 0 0 1 -1 -3.1C6.48 7 11.87 2.1 14.64 7.71c2.1 4.11 1.2 11.01 -2.73 11.7Z" fill="#020202" fill-rule="evenodd" stroke-width="1"></path>
    <path d="M23.58 7.25c-0.15 -1.56 0.09 -5.4 -0.94 -6.08s-5.87 -0.9 -7.38 -1C11.43 0 7.39 0.36 3.64 0.47a0.34 0.34 0 0 0 0 0.68C7.43 1.08 11.4 0.79 15.21 1c1.06 0.07 6.05 0.33 6.91 0.91 0.44 0.3 0.39 4.72 0.45 5.41a57.38 57.38 0 0 1 -0.2 13.56 2.75 2.75 0 0 1 -0.25 0.94c0 0.06 -0.13 0.08 -0.24 0.12 -2.87 1.2 -18.47 0.83 -20.31 -0.24C0.26 18.88 1 7.21 1.38 4.1a9.37 9.37 0 0 1 0.25 -2.37 0.3 0.3 0 0 0 -0.45 -0.4C0.75 1.82 0.83 3.45 0.75 4 0.4 6.55 -0.86 21.28 1 22.52s20.79 2.25 22.1 -0.11c0.44 -0.8 0.45 -2.18 0.66 -4.1a53.83 53.83 0 0 0 -0.18 -11.06Z" fill="#4C57E6" fill-rule="evenodd" stroke-width="1"></path>
  </g>
</svg>