<svg xmlns="http://www.w3.org/2000/svg" viewBox="0 0 24 24" id="Mediaval-Fantasy-Ceremonial-Circle--Streamline-Freehand">
  <desc>
    Mediaval Fantasy Ceremonial Circle Streamline Icon: https://streamlinehq.com
  </desc>
  <title>mediaval-fantasy-ceremonial-circle</title>
  <g>
    <path d="M19.78 2.55A12.51 12.51 0 0 0 12 0.33a12.69 12.69 0 0 0 -7.49 2.82A12.8 12.8 0 0 0 0.38 9.5a11.37 11.37 0 0 0 0.44 7.58 10.53 10.53 0 0 0 1.52 2.49 9.06 9.06 0 0 0 2.21 1.93 14.88 14.88 0 0 0 5.48 2 11.89 11.89 0 0 0 5.82 -0.5 12.44 12.44 0 0 0 6.44 -5.92 14 14 0 0 0 1.76 -5.53 10.72 10.72 0 0 0 -4.27 -9ZM15.6 22.3a15.87 15.87 0 0 1 -5.41 0.39 14.33 14.33 0 0 1 -5.07 -2.12 7.81 7.81 0 0 1 -1.92 -1.71 9.46 9.46 0 0 1 -1.36 -2.22 11.07 11.07 0 0 1 -0.62 -6.83c0.65 -2.93 1.53 -4 4 -6.07 5.28 -4.52 11.92 -2.16 14.19 -0.59a9.49 9.49 0 0 1 3.81 9.21c-0.54 4.54 -3.93 8.69 -7.62 9.94Z" fill="#4C57E6" fill-rule="evenodd" stroke-width="1"></path>
    <path d="M21.86 6.62c0.3 -0.45 0.09 -0.88 -0.52 -0.94 -1.17 0 -3.14 -0.06 -5.56 0C14.91 4.24 13.88 3 13 1.49c-0.44 -0.5 -0.77 -0.44 -1.09 0.08 -0.7 1.14 -1.81 2.6 -3 4.47 -2.35 0.16 -4.38 0.36 -5.79 0.43 -0.72 0 -0.87 0.36 -0.7 1 0.56 1 1.45 2.67 2.56 4.44L5 12c-1.23 1.87 -2.29 3.44 -2.84 4.2a0.33 0.33 0 0 0 0.06 0.47 0.32 0.32 0 0 0 0.3 0c1.21 0 3.29 0.2 5.67 0.37 1.36 2.14 2.77 3.61 3.63 5 0.42 0.6 1.1 1 1.66 0.19 1 -1.59 2.1 -3.09 3 -4.79l4.44 0c0.69 -0.08 0.89 -0.54 0.59 -1.17 -0.76 -1.55 -1.39 -3 -2.19 -4.44 0.87 -1.83 1.68 -3.42 2.54 -5.21Zm-0.58 -0.33c-0.8 1.53 -1.63 3.1 -2.47 4.68l-1.14 -2 -1.31 -2.29Zm-8.8 -3.87c0.7 1.13 1.38 2.23 2.07 3.32l-0.61 0c-1.26 0 -2.55 0.12 -3.82 0.2 0.88 -1.32 1.74 -2.56 2.36 -3.52ZM4.56 9.88C3.8 8.72 3.41 7.86 3 7.2c1.27 0 3 0 5.16 -0.09 -0.67 1 -1.36 2.08 -2 3.09l-0.68 1ZM3 16.07c0.58 -0.78 1.43 -2 2.4 -3.32L7.5 16c-1.78 0 -3.35 0 -4.5 0.07Zm9.51 5.76c-0.54 -0.84 -1.2 -1.73 -2 -2.94l-1.12 -1.75c0.86 0.06 1.74 0.11 2.62 0.15s2 0.08 2.89 0.11h0.39c-0.88 1.6 -1.83 2.95 -2.74 4.43ZM16 16.09l-0.18 0.33 -1.09 -0.08c-1.5 -0.1 -3.09 -0.2 -4.63 -0.25l-1.47 0L6 12c0.63 -0.9 1.29 -1.84 2 -2.8l1.37 -2.12 0.71 0c1.56 -0.06 3.18 -0.16 4.7 -0.27l0.41 0c0.89 1.4 1.78 2.79 2.63 4.2 0.18 0.29 0.35 0.59 0.52 0.88 -0.76 1.37 -1.53 2.79 -2.34 4.2Zm4.9 0.63c-1 -0.07 -2.25 -0.09 -4 -0.22 0.65 -1.25 1.28 -2.52 1.9 -3.78 0.83 1.33 1.38 2.59 2.13 4Z" fill="#020202" fill-rule="evenodd" stroke-width="1"></path>
  </g>
</svg>