<svg xmlns="http://www.w3.org/2000/svg" viewBox="0 0 24 24" id="Medical-Symbol-Hospital-1--Streamline-Freehand">
  <desc>
    Medical Symbol Hospital 1 Streamline Icon: https://streamlinehq.com
  </desc>
  <g>
    <path d="M9.55 23.38a4.22 4.22 0 0 1 -0.49 -0.33 0.8 0.8 0 0 1 -0.28 -0.3 0.28 0.28 0 0 1 0 -0.15l0 -0.21A0.7 0.7 0 0 1 9 22a0.28 0.28 0 0 0 0.19 -0.35 0.29 0.29 0 0 0 -0.36 -0.18 1.27 1.27 0 0 0 -1 0.86A1.14 1.14 0 0 0 8 23.42a1.82 1.82 0 0 0 0.44 0.31 5.24 5.24 0 0 0 0.92 0.25 0.32 0.32 0 0 0 0.24 -0.6Z" fill="#4C57E6" fill-rule="evenodd" stroke-width="1"></path>
    <path d="M23.93 3.84a0.32 0.32 0 0 0 -0.24 -0.38 3.6 3.6 0 0 0 -0.83 -0.14l-1.77 0 -1.32 0c-0.68 0 -1.35 0.12 -2 0.2 -0.23 0 -0.4 0.41 -0.41 0.41 -0.12 0.41 -0.25 0.81 -0.4 1.2a6.05 6.05 0 0 1 -0.54 1.08 5.44 5.44 0 0 1 -0.93 1.17 6.87 6.87 0 0 1 -0.75 0.68 5.81 5.81 0 0 1 -0.61 0.4 11.75 11.75 0 0 1 0.12 -1.58s0 0 0 -0.07a3.84 3.84 0 0 0 0.57 -0.57A3.66 3.66 0 0 0 15.5 3 3.81 3.81 0 0 0 14.08 0.9c-0.62 -0.46 -2.47 -1.27 -3.63 -0.71a4.81 4.81 0 0 0 -1.88 2 3.86 3.86 0 0 0 -0.08 3.67 3.63 3.63 0 0 0 2 1.68l0 1.29A4.73 4.73 0 0 1 8.78 8a4.92 4.92 0 0 1 -0.69 -0.68 5 5 0 0 1 -0.57 -0.8 5.64 5.64 0 0 1 -0.82 -2.27c0 -0.38 -0.46 -0.24 -0.62 -0.24A6.43 6.43 0 0 0 4.92 4c-0.44 0 -0.87 0 -1.3 0.08a12.08 12.08 0 0 1 -1.21 0.1 6.61 6.61 0 0 1 -0.89 0C0 4.12 -0.16 4 0.27 5.54A12.93 12.93 0 0 0 0.9 7.18a10.33 10.33 0 0 0 1.39 2.34 6.66 6.66 0 0 0 2.21 1.73 8.51 8.51 0 0 0 1.8 0.56c1.35 0.27 2.74 0.27 4.09 0.44l0 0.7c0 0.82 0.06 1.63 0.06 2.44 0 0.62 1.07 1 1.08 0 0 -0.55 0 -1.1 -0.06 -1.65 -0.12 -2 -0.37 -4 -0.43 -6a6 6 0 0 0 0.63 0.09 3.65 3.65 0 0 0 1.89 -0.46 33.6 33.6 0 0 0 -0.33 5.08l0 2.09c0 0.7 0 1.39 0.06 1.52 0.09 0.49 0.72 0.68 0.92 0.26a6.65 6.65 0 0 0 0.16 -1.32c0 -0.87 -0.08 -1.74 -0.11 -2.61l0 -0.32a7.64 7.64 0 0 0 4.48 -0.82 8.94 8.94 0 0 0 2.16 -1.56 10.82 10.82 0 0 0 1.64 -2.07 7.75 7.75 0 0 0 0.57 -1.24 18.35 18.35 0 0 0 0.56 -1.88 0.32 0.32 0 0 0 -0.21 -0.39h0.11a0.31 0.31 0 0 0 0.36 -0.27ZM10.38 11.6c-1.09 -0.22 -2.21 -0.34 -3.31 -0.58A8.66 8.66 0 0 1 5 10.29a6.2 6.2 0 0 1 -1.91 -1.46 10.17 10.17 0 0 1 -1.45 -2 12 12 0 0 1 -0.74 -1.5C0.85 5.18 0.79 5 0.75 4.86a8.79 8.79 0 0 0 0.88 0.24 5.19 5.19 0 0 0 0.79 0.12 7.46 7.46 0 0 0 1.16 -0.09 19.52 19.52 0 0 1 2.49 -0.48l0.07 0A5.58 5.58 0 0 0 6.61 7a4.29 4.29 0 0 0 0.66 1 4.37 4.37 0 0 0 0.92 0.8 5 5 0 0 0 2.19 0.76l0 1.77Zm1.35 -4.91a2.76 2.76 0 0 1 -2.34 -1.36 3 3 0 0 1 -0.09 -2.8c0.34 -0.74 1.59 -3.25 4.33 -1a3.16 3.16 0 0 1 1 1.73A2.74 2.74 0 0 1 14 5.65a2.8 2.8 0 0 1 -2.27 1.04ZM23 4.29a16.24 16.24 0 0 1 -0.66 1.76 6.84 6.84 0 0 1 -0.61 1 10.86 10.86 0 0 1 -1.61 1.79 11.1 11.1 0 0 1 -1.93 1.41 7.52 7.52 0 0 1 -4 1.11c0 -0.69 -0.09 -1.4 -0.1 -2.1a4.64 4.64 0 0 0 1.53 -0.67 4.74 4.74 0 0 0 1 -0.83 5.26 5.26 0 0 0 0.7 -1.06 7.69 7.69 0 0 0 0.37 -1A15.3 15.3 0 0 0 18 4.17c0.61 0.07 1.2 0.18 1.81 0.22a12.71 12.71 0 0 0 1.38 0c0.53 -0.07 1.15 -0.24 1.74 -0.31l0.4 0a0.31 0.31 0 0 0 -0.33 0.21Z" fill="#020202" fill-rule="evenodd" stroke-width="1"></path>
    <path d="M16.63 18c-0.53 -0.65 -1.21 -1.09 -4.3 -1.74 -0.27 -0.06 -2.09 -0.35 -2.21 -0.37 -0.54 -0.06 -1.07 -0.08 -1.58 -0.16a3.87 3.87 0 0 1 -0.94 -0.21 1 1 0 0 1 -0.53 -0.42 0.47 0.47 0 0 1 0 -0.52 2.9 2.9 0 0 1 0.9 -0.77 3.24 3.24 0 0 1 1.18 -0.36 0.3 0.3 0 0 0 0.26 -0.31 0.29 0.29 0 0 0 -0.3 -0.26 4.14 4.14 0 0 0 -1.43 0.33 3.35 3.35 0 0 0 -1.22 0.88 1.18 1.18 0 0 0 -0.25 1.14 1.93 1.93 0 0 0 1 1.19 4.75 4.75 0 0 0 1.13 0.35c0.83 0.15 1.59 0.13 3.34 0.44 3.69 0.65 3.89 0.88 4.13 1.07a1.59 1.59 0 0 1 0.67 1.33 0.31 0.31 0 0 0 0.3 0.33 0.32 0.32 0 0 0 0.33 -0.3 2.19 2.19 0 0 0 -0.48 -1.64Z" fill="#4C57E6" fill-rule="evenodd" stroke-width="1"></path>
    <path d="M14.24 18.35c-0.11 -0.84 -0.8 -0.75 -0.73 0s0 0.54 0.07 1.37c0 0.51 0.6 0.58 0.74 0.26 0.03 -0.81 -0.08 -0.78 -0.08 -1.63Z" fill="#020202" fill-rule="evenodd" stroke-width="1"></path>
    <path d="M11.3 17.83c-0.05 -0.93 -0.76 -0.46 -0.76 -0.06 0 0.84 0 0.72 0.07 1.57 0.07 0.45 0.6 0.69 0.79 0.18 0.01 -0.81 -0.12 -0.89 -0.1 -1.69Z" fill="#020202" fill-rule="evenodd" stroke-width="1"></path>
    <path d="M10.89 23a0.33 0.33 0 0 0 0.36 0.29 0.32 0.32 0 0 0 0.28 -0.35c0 -0.56 -0.09 -0.84 -0.1 -1.4s-0.79 -0.57 -0.68 0.07 0.06 0.8 0.14 1.39Z" fill="#020202" fill-rule="evenodd" stroke-width="1"></path>
    <path d="M13.65 22.82a0.32 0.32 0 0 0 0.31 0.33 0.33 0.33 0 0 0 0.33 -0.31l0 -0.86c0 -0.41 -0.59 -0.73 -0.61 -0.26s-0.03 0.64 -0.03 1.1Z" fill="#020202" fill-rule="evenodd" stroke-width="1"></path>
    <path d="M15.35 21a6.53 6.53 0 0 0 -3.52 -1l-1.42 -0.08 -1.53 -0.25a3.2 3.2 0 0 1 -0.52 -0.18 0.81 0.81 0 0 1 -0.36 -0.23c-0.13 -0.21 0 -0.42 0.2 -0.59a1.62 1.62 0 0 1 0.9 -0.42 0.3 0.3 0 0 0 0.31 -0.25 0.29 0.29 0 0 0 -0.3 -0.27 2.28 2.28 0 0 0 -1.54 0.65 1.07 1.07 0 0 0 -0.24 1.33 1.37 1.37 0 0 0 0.47 0.52 2.94 2.94 0 0 0 0.79 0.4c0.28 0.1 0.56 0.19 0.84 0.26a8.55 8.55 0 0 0 0.86 0.14l1.51 0.09a7.16 7.16 0 0 1 3.1 0.66 1.53 1.53 0 0 1 0.92 1.51 0.32 0.32 0 0 0 0.27 0.36 0.31 0.31 0 0 0 0.36 -0.27 2.18 2.18 0 0 0 -1.1 -2.38Z" fill="#4C57E6" fill-rule="evenodd" stroke-width="1"></path>
    <path d="M18.13 12.85a1.8 1.8 0 0 0 -0.61 -0.18l-1.08 0a0.29 0.29 0 0 0 -0.35 0.18 0.3 0.3 0 0 0 0.19 0.36 7.29 7.29 0 0 0 0.93 0.28 1.12 1.12 0 0 1 0.37 0.21l0.07 0.35a1 1 0 0 1 -0.27 0.8 4.13 4.13 0 0 1 -0.92 0.72 0.32 0.32 0 0 0 -0.17 0.42 0.33 0.33 0 0 0 0.43 0.16 3.58 3.58 0 0 0 1.53 -0.85 1.81 1.81 0 0 0 0.47 -1.3 1.6 1.6 0 0 0 -0.18 -0.72 1.24 1.24 0 0 0 -0.41 -0.43Z" fill="#4C57E6" fill-rule="evenodd" stroke-width="1"></path>
  </g>
</svg>