<svg xmlns="http://www.w3.org/2000/svg" viewBox="0 0 24 24" id="Medical-Specialty-Vertebra--Streamline-Freehand">
  <desc>
    Medical Specialty Vertebra Streamline Icon: https://streamlinehq.com
  </desc>
  <g>
    <path d="M7.76 5.49a3.71 3.71 0 0 0 2.47 2 2.62 2.62 0 0 0 0.56 0.09l0.76 0A5.92 5.92 0 0 0 14 7.11a3.93 3.93 0 0 0 1.91 -1.72l0.09 -0.21 0.55 0.11 0.67 0.16 0.74 0.06a4.57 4.57 0 0 0 1.81 -0.17 1.39 1.39 0 0 0 0.95 -1.16 1.64 1.64 0 0 0 -0.22 -1.06 2.07 2.07 0 0 0 -0.74 -0.7l-0.49 -0.32a5.28 5.28 0 0 0 -0.85 -0.25 11.59 11.59 0 0 0 -1.24 -0.18L15.9 1.6h-0.28l-0.18 -0.31a2.92 2.92 0 0 0 -0.53 -0.71 2 2 0 0 0 -0.78 -0.5 0.31 0.31 0 0 0 -0.39 0.19 0.31 0.31 0 0 0 0.2 0.39 1.48 1.48 0 0 1 0.52 0.36 2.22 2.22 0 0 1 0.38 0.56l0.29 0.54a0.35 0.35 0 0 0 0.31 0.16l0.39 0 1.22 0.12a10 10 0 0 1 1.15 0.21 3.6 3.6 0 0 1 0.7 0.24l0.38 0.28a1.13 1.13 0 0 1 0.42 0.42 0.75 0.75 0 0 1 0.08 0.5c-0.05 0.29 -0.31 0.39 -0.58 0.44a4.37 4.37 0 0 1 -1.2 0l-0.6 -0.07 -0.65 -0.17 -1 -0.25a0.56 0.56 0 0 0 -0.66 0.38l-0.19 0.46a2.93 2.93 0 0 1 -1.4 1.21 4.81 4.81 0 0 1 -1.95 0.38l-1 -0.07a2.51 2.51 0 0 1 -1.14 -0.61 3 3 0 0 1 -0.73 -1.12 0.56 0.56 0 0 0 -0.3 -0.32 0.56 0.56 0 0 0 -0.44 0l-0.13 0 -0.91 0.13a6.05 6.05 0 0 1 -1.9 0.22 0.67 0.67 0 0 1 -0.61 -0.46 0.46 0.46 0 0 1 0 -0.26 1.93 1.93 0 0 1 0.15 -0.4 1.3 1.3 0 0 1 0.78 -0.66 16 16 0 0 1 2 -0.35l0.86 -0.1a0.4 0.4 0 0 0 0.28 -0.19l0.35 -0.47a6.61 6.61 0 0 1 0.54 -0.71l0.22 -0.19 0.18 0.13 0.61 0.23a3.69 3.69 0 0 0 0.45 0.11l0.87 0.06a6.72 6.72 0 0 0 0.91 -0.13 3.45 3.45 0 0 0 0.61 -0.18 0.34 0.34 0 1 0 -0.27 -0.63 2.39 2.39 0 0 1 -0.48 0.12 6 6 0 0 1 -0.77 0.1l-0.74 -0.09 -0.85 -0.3A2.1 2.1 0 0 0 9.76 0a0.44 0.44 0 0 0 -0.36 0 2.29 2.29 0 0 0 -0.62 0.43 5.67 5.67 0 0 0 -0.65 0.8l-0.25 0.31 -0.72 0.07A14.89 14.89 0 0 0 5 2a2.19 2.19 0 0 0 -1.38 1.09 2.52 2.52 0 0 0 -0.28 0.75 1.35 1.35 0 0 0 0 0.66 1.6 1.6 0 0 0 1 1.09 5.48 5.48 0 0 0 2.7 0Z" fill="#020202" fill-rule="evenodd" stroke-width="1"></path>
    <path d="M7.76 13.78a3.71 3.71 0 0 0 2.47 2 3.44 3.44 0 0 0 0.56 0.09l0.76 0A5.92 5.92 0 0 0 14 15.4a3.93 3.93 0 0 0 1.91 -1.72l0.08 -0.22 0.55 0.12 0.67 0.16 0.74 0.06a4.57 4.57 0 0 0 1.81 -0.17 1.39 1.39 0 0 0 0.95 -1.16 1.64 1.64 0 0 0 -0.22 -1.06 2 2 0 0 0 -0.74 -0.7l-0.49 -0.32a5.28 5.28 0 0 0 -0.85 -0.25 11.59 11.59 0 0 0 -1.27 -0.14l-1.24 -0.11h-0.28l-0.18 -0.31a2.74 2.74 0 0 0 -0.53 -0.71 2 2 0 0 0 -0.78 -0.5 0.31 0.31 0 1 0 -0.19 0.58 1.48 1.48 0 0 1 0.52 0.36 2.22 2.22 0 0 1 0.38 0.56l0.29 0.53a0.34 0.34 0 0 0 0.31 0.17l0.39 0 1.22 0.12a10 10 0 0 1 1.15 0.21 3.6 3.6 0 0 1 0.7 0.24l0.38 0.28a1.13 1.13 0 0 1 0.42 0.42 0.74 0.74 0 0 1 0.08 0.49c-0.05 0.3 -0.31 0.4 -0.58 0.45a4.37 4.37 0 0 1 -1.2 0l-0.6 -0.07 -0.65 -0.17 -1 -0.25a0.56 0.56 0 0 0 -0.66 0.38l-0.19 0.46a2.93 2.93 0 0 1 -1.4 1.21 4.8 4.8 0 0 1 -1.95 0.37l-1 -0.06A2.43 2.43 0 0 1 9.37 14a2.87 2.87 0 0 1 -0.73 -1.11 0.56 0.56 0 0 0 -0.3 -0.32 0.56 0.56 0 0 0 -0.44 0l-0.13 0.05 -0.91 0.13A6.05 6.05 0 0 1 5 13a0.69 0.69 0 0 1 -0.61 -0.46 0.46 0.46 0 0 1 0 -0.26 1.93 1.93 0 0 1 0.15 -0.4 1.3 1.3 0 0 1 0.78 -0.66 16 16 0 0 1 2 -0.35l0.86 -0.1a0.43 0.43 0 0 0 0.28 -0.19l0.35 -0.47a5.75 5.75 0 0 1 0.54 -0.71l0.22 -0.19 0.18 0.12 0.61 0.23a3.69 3.69 0 0 0 0.45 0.11l0.87 0.06a6.72 6.72 0 0 0 0.91 -0.13 3.45 3.45 0 0 0 0.61 -0.18 0.34 0.34 0 0 0 0.18 -0.45 0.33 0.33 0 0 0 -0.45 -0.18 2.39 2.39 0 0 1 -0.48 0.12 6 6 0 0 1 -0.77 0.1l-0.74 -0.08 -0.85 -0.3a2.1 2.1 0 0 0 -0.33 -0.26 0.44 0.44 0 0 0 -0.36 0 2.29 2.29 0 0 0 -0.62 0.43 5.67 5.67 0 0 0 -0.65 0.8l-0.25 0.31 -0.72 0.09a14.89 14.89 0 0 0 -2.16 0.27 2.19 2.19 0 0 0 -1.36 1.11 2.52 2.52 0 0 0 -0.28 0.75 1.35 1.35 0 0 0 0 0.66 1.6 1.6 0 0 0 1 1.09 5.48 5.48 0 0 0 2.7 0Z" fill="#4C57E6" fill-rule="evenodd" stroke-width="1"></path>
    <path d="M7.76 21.89a3.71 3.71 0 0 0 2.47 2 3.44 3.44 0 0 0 0.56 0.09h0.76a5.92 5.92 0 0 0 2.45 -0.47 4 4 0 0 0 1.91 -1.72l0.08 -0.22 0.55 0.12 0.67 0.15 0.74 0.07a4.57 4.57 0 0 0 1.81 -0.17 1.41 1.41 0 0 0 0.95 -1.16 1.62 1.62 0 0 0 -0.22 -1.06 2 2 0 0 0 -0.74 -0.7l-0.49 -0.32a4.43 4.43 0 0 0 -0.85 -0.25 11.59 11.59 0 0 0 -1.24 -0.18L15.9 18h-0.28l-0.18 -0.31a3 3 0 0 0 -0.53 -0.72 2.09 2.09 0 0 0 -0.78 -0.49 0.31 0.31 0 0 0 -0.39 0.19 0.32 0.32 0 0 0 0.2 0.39 1.36 1.36 0 0 1 0.52 0.36 2.22 2.22 0 0 1 0.38 0.56l0.29 0.53a0.34 0.34 0 0 0 0.31 0.17l0.39 0 1.22 0.12a10 10 0 0 1 1.15 0.2 4.42 4.42 0 0 1 0.7 0.23l0.38 0.29a1.13 1.13 0 0 1 0.42 0.42 0.74 0.74 0 0 1 0.08 0.49c-0.05 0.3 -0.31 0.4 -0.58 0.45a4.37 4.37 0 0 1 -1.2 0l-0.6 -0.07 -0.65 -0.17 -1 -0.25a0.56 0.56 0 0 0 -0.66 0.38l-0.19 0.45a2.9 2.9 0 0 1 -1.4 1.22 5 5 0 0 1 -1.95 0.37l-1 -0.06a2.53 2.53 0 0 1 -1.14 -0.62A2.87 2.87 0 0 1 8.64 21a0.56 0.56 0 0 0 -0.3 -0.32 0.56 0.56 0 0 0 -0.44 0l-0.13 0.05 -0.91 0.13a6.05 6.05 0 0 1 -1.86 0.2 0.69 0.69 0 0 1 -0.61 -0.46 0.46 0.46 0 0 1 0 -0.26 2.26 2.26 0 0 1 0.15 -0.41 1.32 1.32 0 0 1 0.78 -0.65 16 16 0 0 1 2 -0.35l0.86 -0.1a0.43 0.43 0 0 0 0.28 -0.19l0.35 -0.47a5.75 5.75 0 0 1 0.54 -0.71 2.09 2.09 0 0 1 0.22 -0.2 0.92 0.92 0 0 0 0.18 0.13l0.61 0.23 0.45 0.11 0.87 0.06a9.07 9.07 0 0 0 0.91 -0.13 3.45 3.45 0 0 0 0.61 -0.18 0.34 0.34 0 0 0 0.18 -0.45 0.33 0.33 0 0 0 -0.45 -0.18 2.39 2.39 0 0 1 -0.48 0.12 5.27 5.27 0 0 1 -0.77 0.09l-0.74 -0.06 -0.85 -0.31a2.85 2.85 0 0 0 -0.33 -0.25 0.44 0.44 0 0 0 -0.36 0 2.57 2.57 0 0 0 -0.62 0.44 5.58 5.58 0 0 0 -0.65 0.79l-0.25 0.33 -0.72 0.07a14.89 14.89 0 0 0 -2.16 0.31 2.19 2.19 0 0 0 -1.36 1.11 2.46 2.46 0 0 0 -0.28 0.74 1.39 1.39 0 0 0 0 0.67 1.62 1.62 0 0 0 1 1.09A5.73 5.73 0 0 0 7 22Z" fill="#020202" fill-rule="evenodd" stroke-width="1"></path>
  </g>
</svg>