<svg xmlns="http://www.w3.org/2000/svg" viewBox="0 0 24 24" id="Medical-Condition-Head-Pain--Streamline-Freehand">
  <desc>
    Medical Condition Head Pain Streamline Icon: https://streamlinehq.com
  </desc>
  <g>
    <path d="M15.12 11.16a0.38 0.38 0 0 0 -0.21 0.5 0.37 0.37 0 0 0 0.49 0.2 6.17 6.17 0 0 1 0.62 -0.09 3 3 0 0 1 0.6 0l0.46 0a0.61 0.61 0 0 0 0.48 -0.34 1.28 1.28 0 0 0 -0.21 -1.35 5.92 5.92 0 0 0 -1.53 -1.26 0.34 0.34 0 0 0 -0.47 0.05 0.33 0.33 0 0 0 0.05 0.47c0.12 0.15 0.43 0.64 0.72 1.11l0.16 0.21 -0.49 0.16a6.9 6.9 0 0 0 -0.67 0.34Z" fill="#020202" fill-rule="evenodd" stroke-width="1"></path>
    <path d="M22.89 13.81a3 3 0 0 0 -0.52 -0.56 13 13 0 0 1 -2 -1.49 1.21 1.21 0 0 1 -0.11 -0.44c-0.11 -0.51 -0.17 -1.18 -0.27 -1.6a3.4 3.4 0 0 0 -0.1 -0.33A5.64 5.64 0 0 0 18 7.07 6.16 6.16 0 0 0 15.15 6a9.79 9.79 0 0 0 -6.33 1.76A8.72 8.72 0 0 0 5 13.08a5.94 5.94 0 0 0 0 2.06 9.84 9.84 0 0 0 1 2.8 8.06 8.06 0 0 0 1.4 2.18 5 5 0 0 0 1.06 0.73c-0.05 0.19 -0.11 0.38 -0.16 0.58a1.64 1.64 0 0 0 -0.05 0.32l0 1.19a0.4 0.4 0 0 0 0.27 0.47 0.38 0.38 0 0 0 0.48 -0.26 6.15 6.15 0 0 0 0.43 -0.85 1.8 1.8 0 0 0 0.1 -0.4 1.24 1.24 0 0 0 0 -0.43c-0.24 -1.51 -0.83 -0.84 -1.83 -2.15a8.37 8.37 0 0 1 -1 -1.73 9.94 9.94 0 0 1 -0.67 -2.15 5.19 5.19 0 0 1 0 -2.15 7.7 7.7 0 0 1 3.49 -4.48A8.69 8.69 0 0 1 15 7.26a4.85 4.85 0 0 1 2.3 0.74 4.48 4.48 0 0 1 1.59 1.8c0.17 0.34 0.25 1.29 0.41 1.88a2 2 0 0 0 0.29 0.66 3.1 3.1 0 0 0 0.57 0.51c0.53 0.39 1.21 0.67 1.69 1.08 -0.58 0.19 -1.52 0.41 -2 0.53a1.33 1.33 0 0 0 -0.44 0.18 0.35 0.35 0 0 0 -0.1 0.29 0.31 0.31 0 0 0 0 0.25 5.85 5.85 0 0 1 -0.15 2.35c0 0.17 -0.11 0.32 -0.16 0.48a3.1 3.1 0 0 0 -1.44 -0.74 3.16 3.16 0 0 0 -0.81 -0.06 5 5 0 0 0 -1.74 0.51 0.34 0.34 0 0 0 -0.23 0.42 0.34 0.34 0 0 0 0.42 0.23 6.24 6.24 0 0 1 1.56 0.07 7.4 7.4 0 0 1 0.94 0.17 4.42 4.42 0 0 1 0.91 0.36 4.18 4.18 0 0 1 -0.37 0.63 3 3 0 0 1 -1.56 1.16 4.89 4.89 0 0 1 -2.12 0.19 0.33 0.33 0 1 0 -0.15 0.65 5.49 5.49 0 0 0 0.79 0.15 2.26 2.26 0 0 0 -0.11 0.69 1.63 1.63 0 0 0 0.16 0.53c0.49 1.11 0.76 1 0.86 1s0.37 -0.17 0.31 -1.27l0 -0.32c0 -0.11 -0.06 -0.19 -0.1 -0.29l-0.15 -0.26a4.51 4.51 0 0 0 0.82 0 4 4 0 0 0 2.3 -1.39 6.1 6.1 0 0 0 1 -2.65 6.49 6.49 0 0 0 -0.15 -2.53 23.14 23.14 0 0 0 2.42 -0.61c0.44 -0.23 0.44 -0.65 0.33 -0.84Z" fill="#020202" fill-rule="evenodd" stroke-width="1"></path>
    <path d="M11.15 3.72a6 6 0 0 0 1.49 -0.09l0 0.1 -0.33 0.59 -0.66 0.9a0.38 0.38 0 0 0 0.59 0.47l0.79 -0.8 0.51 -0.68 0.27 -0.54a1 1 0 0 0 -0.06 -1c-0.16 -0.22 -0.56 -0.34 -1.18 -0.31 -0.17 0 -0.51 0.07 -0.85 0.08a10.81 10.81 0 0 1 0.72 -0.92c0.3 -0.33 0.6 -0.65 0.93 -0.95a0.34 0.34 0 1 0 -0.41 -0.53c-0.39 0.26 -0.77 0.53 -1.14 0.83a10.68 10.68 0 0 0 -1.07 1 6.11 6.11 0 0 0 -0.55 0.64 0.65 0.65 0 0 0 0 0.67 1.26 1.26 0 0 0 0.95 0.54Z" fill="#4C57E6" fill-rule="evenodd" stroke-width="1"></path>
    <path d="M5.09 6.18a1.24 1.24 0 0 0 1.13 0 6 6 0 0 0 1.25 -0.82l0 0.1v0.68l-0.12 1.1a0.36 0.36 0 0 0 0.31 0.43 0.39 0.39 0 0 0 0.44 -0.31l0.28 -1.09 0.1 -0.84 0 -0.61A1 1 0 0 0 7.94 4c-0.25 -0.12 -0.66 0 -1.18 0.32 -0.14 0.09 -0.41 0.3 -0.7 0.48a11 11 0 0 1 0.17 -1.15c0.09 -0.44 0.2 -0.86 0.33 -1.29a0.34 0.34 0 0 0 -0.18 -0.44 0.35 0.35 0 0 0 -0.44 0.19c-0.21 0.42 -0.41 0.85 -0.58 1.29a12 12 0 0 0 -0.44 1.36 4.55 4.55 0 0 0 -0.16 0.82 0.67 0.67 0 0 0 0.33 0.6Z" fill="#4C57E6" fill-rule="evenodd" stroke-width="1"></path>
    <path d="M5.33 10.82a0.38 0.38 0 0 0 0.22 -0.5l-0.3 -1.08 -0.33 -0.78L4.59 8a1 1 0 0 0 -0.88 -0.43c-0.27 0 -0.57 0.3 -0.86 0.86a6.48 6.48 0 0 1 -0.36 0.78 11.2 11.2 0 0 1 -0.43 -1.09c-0.14 -0.42 -0.26 -0.85 -0.36 -1.28a0.33 0.33 0 1 0 -0.7 0.05c0 0.47 0.07 0.94 0.14 1.41s0.18 0.93 0.3 1.4a6 6 0 0 0 0.28 0.79 0.63 0.63 0 0 0 0.58 0.34 1.24 1.24 0 0 0 1 -0.57A5.94 5.94 0 0 0 4 8.92l0.05 0.08 0.35 0.58 0.44 1a0.39 0.39 0 0 0 0.49 0.24Z" fill="#4C57E6" fill-rule="evenodd" stroke-width="1"></path>
  </g>
</svg>