<svg xmlns="http://www.w3.org/2000/svg" viewBox="0 0 24 24" id="Medical-Specialty-Stomach-Liquid--Streamline-Freehand">
  <desc>
    Medical Specialty Stomach Liquid Streamline Icon: https://streamlinehq.com
  </desc>
  <g>
    <path d="M19.89 7.13a7.93 7.93 0 0 0 -2.62 -1.68c-1.37 -0.47 -2.5 -0.14 -4.51 -0.19a6 6 0 0 1 -3.26 -0.83 3.32 3.32 0 0 1 -1.33 -2.9 0.3 0.3 0 0 0 -0.29 -0.3 0.29 0.29 0 0 0 -0.29 0.29A3.91 3.91 0 0 0 9.1 5a6.61 6.61 0 0 0 3.63 1.09 34 34 0 0 1 3.59 0.1 5.9 5.9 0 0 1 2.87 1.71 7 7 0 0 1 2 7.42 9.53 9.53 0 0 1 -5.26 6 15.52 15.52 0 0 1 -6.38 0.68 7.65 7.65 0 0 1 -3.67 -1.15 3.2 3.2 0 0 1 0.59 -0.73 0.29 0.29 0 0 0 -0.32 -0.49 4 4 0 0 0 -1.37 1 3.12 3.12 0 0 0 -0.4 0.62 3.35 3.35 0 0 0 -0.25 0.69A4.91 4.91 0 0 0 4 23.66a0.33 0.33 0 1 0 0.66 0 5.52 5.52 0 0 1 0.42 -1.36c0.08 -0.18 0.17 -0.35 0.25 -0.52l0.18 -0.33a8.65 8.65 0 0 0 3.92 1.34 16.31 16.31 0 0 0 6.81 -0.58 10.41 10.41 0 0 0 6 -6.6 8 8 0 0 0 -2.35 -8.48Z" fill="#020202" stroke-width="1"></path>
    <path d="M8.22 15.5a5.68 5.68 0 0 0 1 -2.83A15.54 15.54 0 0 0 9 8.78a10 10 0 0 0 5.75 -0.13 0.33 0.33 0 1 0 -0.22 -0.65 9.44 9.44 0 0 1 -5.34 -0.25A5.26 5.26 0 0 1 6.77 6a5.41 5.41 0 0 1 -0.89 -1.87 3.52 3.52 0 0 1 -0.08 -1.46c0.1 -0.78 0.35 -1.56 0.5 -2.31a0.29 0.29 0 1 0 -0.56 -0.14C5.51 1 5.2 1.75 5 2.54a4.49 4.49 0 0 0 0 1.75 6.11 6.11 0 0 0 0.91 2.29A5.44 5.44 0 0 0 7.7 8.26a4.55 4.55 0 0 0 0.63 0.3 16.22 16.22 0 0 1 0 4 4.87 4.87 0 0 1 -1 2.29A6.84 6.84 0 0 1 5 16.63a8 8 0 0 0 -2.65 2.05 5.24 5.24 0 0 0 -1 2.77c0 0.38 -0.06 0.79 -0.06 1.2l0 0.81a0.33 0.33 0 0 0 0.36 0.3 0.32 0.32 0 0 0 0.3 -0.35 6.12 6.12 0 0 1 0 -0.74c0 -0.38 0.08 -0.77 0.13 -1.13a4.49 4.49 0 0 1 0.93 -2.27 7.74 7.74 0 0 1 2.56 -1.67 7.64 7.64 0 0 0 2.65 -2.1Z" fill="#020202" stroke-width="1"></path>
    <path d="M17.21 17.43a0.33 0.33 0 0 0 0.47 -0.05 1.68 1.68 0 0 0 0.32 -2.15 3 3 0 0 0 -1.88 -1 10.81 10.81 0 0 0 -4 -0.1 6.41 6.41 0 0 0 -2.56 1 3.73 3.73 0 0 0 -1.44 2.24A2.66 2.66 0 0 0 9.07 20a2.31 2.31 0 0 0 0.84 0.43 5.68 5.68 0 0 0 1.2 0.2 6.39 6.39 0 0 0 2.89 -0.44 17.2 17.2 0 0 0 3.6 -2.08 0.28 0.28 0 0 0 0.09 -0.4 0.29 0.29 0 0 0 -0.4 -0.08 16 16 0 0 1 -3.55 1.78 5.44 5.44 0 0 1 -2.48 0.22 6.73 6.73 0 0 1 -0.85 -0.17 1.65 1.65 0 0 1 -0.62 -0.31 1.59 1.59 0 0 1 -0.5 -1.57 2.53 2.53 0 0 1 1 -1.56A5.79 5.79 0 0 1 13 15a10.64 10.64 0 0 1 3 0 2.15 2.15 0 0 1 1.42 0.64c0.25 0.32 0.18 0.75 -0.25 1.3a0.33 0.33 0 0 0 0.04 0.49Z" fill="#4C57E6" stroke-width="1"></path>
  </g>
</svg>