<svg xmlns="http://www.w3.org/2000/svg" viewBox="0 0 24 24" id="Mediaval-Fantasy-Bounty-Hunter--Streamline-Freehand">
  <desc>
    Mediaval Fantasy Bounty Hunter Streamline Icon: https://streamlinehq.com
  </desc>
  <title>mediaval-fantasy-bounty-hunter</title>
  <g>
    <path d="M10.79 14.44a4.82 4.82 0 0 1 -1.1 -0.52 2.56 2.56 0 0 1 -0.78 -0.79 4.79 4.79 0 0 1 -0.64 -1.63 14.37 14.37 0 0 0 -0.63 -1.92A4.48 4.48 0 0 0 7.35 9a1.28 1.28 0 0 0 0.22 -0.17l1.1 -1 0.19 -0.19c0.18 0.09 0.35 0.18 0.54 0.26a14.28 14.28 0 0 0 1.92 0.61 4.59 4.59 0 0 1 1.68 0.68 2.8 2.8 0 0 1 0.8 0.77 5 5 0 0 1 0.52 1.09 0.34 0.34 0 0 0 0.4 0.25 0.35 0.35 0 0 0 0.25 -0.41 5.31 5.31 0 0 0 -0.43 -1.35 3.6 3.6 0 0 0 -0.91 -1.19 4.23 4.23 0 0 0 -1.5 -0.75A9.6 9.6 0 0 0 11 7.4a12.26 12.26 0 0 1 -1.6 -0.25l0.6 -0.61a6.45 6.45 0 0 1 1.4 -1.26 1.17 1.17 0 0 1 1 -0.08 0.3 0.3 0 1 0 0.24 -0.54 1.82 1.82 0 0 0 -1.56 0 7.71 7.71 0 0 0 -1.74 1.2l-0.71 0.61a7.68 7.68 0 0 0 -1.54 -2 10 10 0 0 0 -1.4 -1c-0.64 -0.4 -1.31 -0.75 -2 -1.17A1.77 1.77 0 0 0 3.24 0.54 1.9 1.9 0 0 0 0.94 0.26 2 2 0 0 0 0.3 2.89a1.72 1.72 0 0 0 1.79 1 5.25 5.25 0 0 1 0.33 0.49c0.41 0.66 0.72 1.39 1.11 2.05a6 6 0 0 0 0.65 0.8 6.18 6.18 0 0 0 0.82 0.68 6.94 6.94 0 0 0 1.22 0.67 11.25 11.25 0 0 0 -1.91 2.05 2.7 2.7 0 0 0 -0.35 2.61 0.33 0.33 0 0 0 0.58 -0.24A2 2 0 0 1 5 11.13a9.79 9.79 0 0 1 1.82 -1.7 11.49 11.49 0 0 1 0.31 1.77 6.51 6.51 0 0 0 0.2 1.07 4.22 4.22 0 0 0 0.76 1.49 3.6 3.6 0 0 0 1.19 0.91 5.34 5.34 0 0 0 1.36 0.41 0.32 0.32 0 0 0 0.4 -0.24 0.33 0.33 0 0 0 -0.25 -0.4ZM1.15 2.49a1 1 0 0 1 0.35 -1.26 0.91 0.91 0 0 1 1.08 0.06 1 1 0 0 1 0.35 1.12 0.78 0.78 0 0 1 -0.17 0.26 3.92 3.92 0 0 1 -0.32 0.25 0.3 0.3 0 0 0 -0.14 0.19 0.32 0.32 0 0 0 -0.37 0 1 1 0 0 1 -0.78 -0.62Zm4.69 4.94c-0.26 -0.24 -0.49 -0.52 -0.73 -0.79a9.58 9.58 0 0 1 -0.66 -0.83c-0.45 -0.6 -0.87 -1.29 -1.36 -1.88 -0.1 -0.12 -0.22 -0.22 -0.33 -0.33a0.35 0.35 0 0 0 0.12 -0.25 2.26 2.26 0 0 0 0.38 -0.25 1 1 0 0 0 0.16 -0.19c0.77 0.68 1.58 1.31 2.35 1.92l0.86 0.65c0.28 0.22 0.56 0.42 0.83 0.67a6.65 6.65 0 0 1 0.69 0.71L7.94 7 6.83 8l-0.12 0.1a6 6 0 0 1 -0.87 -0.67Z" fill="#020202" fill-rule="evenodd" stroke-width="1"></path>
    <path d="M22.8 13.9a5 5 0 0 0 -1.59 -1.4 6.92 6.92 0 0 0 -1.95 -0.72 0.33 0.33 0 0 0 -0.39 0.25 0.33 0.33 0 0 0 0.25 0.4 6.2 6.2 0 0 1 1.73 0.69 4.3 4.3 0 0 1 1.31 1.24 5.51 5.51 0 0 1 0.16 5.77 4.94 4.94 0 0 1 -4.87 2.73 7.07 7.07 0 0 1 -2.91 -1 5 5 0 0 1 -2 -2.16 4.94 4.94 0 0 1 0.46 -5.1 5.88 5.88 0 0 1 4.84 -2.35 0.3 0.3 0 0 0 0.31 -0.28 0.28 0.28 0 0 0 -0.28 -0.3 6.55 6.55 0 0 0 -5.51 2.43 5.86 5.86 0 0 0 -0.82 6.06A6 6 0 0 0 14 22.84 8.07 8.07 0 0 0 17.33 24a6 6 0 0 0 5.87 -3.4 6.39 6.39 0 0 0 -0.4 -6.7Z" fill="#020202" fill-rule="evenodd" stroke-width="1"></path>
    <path d="M19.18 14.71a0.3 0.3 0 0 0 -0.3 -0.29h-0.82l0 -0.67a0.29 0.29 0 0 0 -0.27 -0.32 0.3 0.3 0 0 0 -0.31 0.28l-0.12 0.76a5.3 5.3 0 0 0 -1.08 0.22A2.58 2.58 0 0 0 14.7 16a1.31 1.31 0 0 0 0.45 1.57 2.72 2.72 0 0 0 1 0.49 4.68 4.68 0 0 0 0.86 0.15l0 0.68c0 0.44 0 0.87 0.08 1.31l-1.54 0a0.33 0.33 0 0 0 -0.36 0.31 0.33 0.33 0 0 0 0.32 0.35l1.65 0.14 0.06 0.73a0.33 0.33 0 0 0 0.34 0.32 0.32 0.32 0 0 0 0.32 -0.34c0 -0.22 0 -0.45 0.05 -0.67a6.32 6.32 0 0 0 1.71 -0.19 1.9 1.9 0 0 0 1.46 -1.39 1.71 1.71 0 0 0 -1 -1.85 5 5 0 0 0 -2 -0.42v-0.65q0 -0.74 -0.06 -1.47l0.8 -0.05a0.29 0.29 0 0 0 0.34 -0.31Zm-3.4 2.07a0.44 0.44 0 0 1 -0.13 -0.62 1.83 1.83 0 0 1 0.87 -0.74 3.33 3.33 0 0 1 0.7 -0.21c-0.06 0.42 -0.11 0.85 -0.15 1.28l0 0.62a4 4 0 0 1 -0.62 -0.08 1.65 1.65 0 0 1 -0.67 -0.25Zm4.33 2.48a1 1 0 0 1 -0.73 0.7 5.93 5.93 0 0 1 -1.38 0.25c0 -0.43 0.06 -0.86 0.08 -1.3l0 -0.61a4 4 0 0 1 1.5 0.28c0.42 0.17 0.57 0.42 0.53 0.68Z" fill="#020202" fill-rule="evenodd" stroke-width="1"></path>
    <path d="M18.66 9.92a0.29 0.29 0 0 0 0.34 -0.29L19 6l0.34 0.34c0.26 0.26 0.51 0.53 0.75 0.82a0.54 0.54 0 0 0 0.56 0.18 0.55 0.55 0 0 0 0.4 -0.43c0.12 -0.86 0.23 -1.71 0.31 -2.56s0.16 -1.71 0.21 -2.58a0.33 0.33 0 0 0 -0.57 -0.1c-0.12 0.85 -0.26 1.68 -0.42 2.51 -0.09 0.47 -0.18 0.94 -0.28 1.41l-0.07 -0.07c-0.41 -0.42 -0.84 -0.81 -1.27 -1.22a0.55 0.55 0 0 0 -0.6 -0.1 0.54 0.54 0 0 0 -0.32 0.51l0.38 4.92a0.29 0.29 0 0 0 0.24 0.29Z" fill="#4C57E6" fill-rule="evenodd" stroke-width="1"></path>
    <path d="m10.2 19.34 -4.81 -1.12a0.55 0.55 0 0 0 -0.54 0.24 0.53 0.53 0 0 0 0 0.59c0.32 0.53 0.63 1.08 1 1.59a1.88 1.88 0 0 0 0.16 0.23H6c-0.52 0.05 -1 0.08 -1.54 0.11 -0.85 0.05 -1.7 0.08 -2.55 0.08a0.34 0.34 0 0 0 -0.35 0.32 0.34 0.34 0 0 0 0.32 0.35c0.87 0.06 1.73 0.11 2.59 0.13s1.72 0 2.59 0a0.55 0.55 0 0 0 0.47 -0.33 0.52 0.52 0 0 0 -0.09 -0.53c-0.25 -0.31 -0.47 -0.64 -0.69 -1s-0.25 -0.38 -0.37 -0.58l3.73 0.48a0.28 0.28 0 0 0 0.33 -0.24 0.29 0.29 0 0 0 -0.24 -0.32Z" fill="#4C57E6" fill-rule="evenodd" stroke-width="1"></path>
  </g>
</svg>