<svg xmlns="http://www.w3.org/2000/svg" viewBox="0 0 24 24" id="Mediaval-Fantasy-Assassin-Poisonous-Dagger--Streamline-Freehand">
  <desc>
    Mediaval Fantasy Assassin Poisonous Dagger Streamline Icon: https://streamlinehq.com
  </desc>
  <title>mediaval-fantasy-assassin-poisonous-dagger</title>
  <g>
    <path d="M23.67 23.18c-0.87 -1.44 -1.71 -2.91 -2.59 -4.35 -0.38 -0.62 -0.77 -1.23 -1.17 -1.84a0.5 0.5 0 0 0 -0.44 -0.22A5.69 5.69 0 0 1 16 15.71l1.13 -0.5a0.57 0.57 0 0 0 0.3 -0.39 0.53 0.53 0 0 0 -0.12 -0.48c-0.81 -0.91 -1.59 -1.84 -2.36 -2.77 -1.16 -1.4 -2.3 -2.81 -3.48 -4.2a5.3 5.3 0 0 1 1.25 -1 1.36 1.36 0 0 1 1.17 0 0.31 0.31 0 0 0 0.41 -0.12 0.31 0.31 0 0 0 -0.13 -0.41 2 2 0 0 0 -1.72 -0.13 8.33 8.33 0 0 0 -2 1.26l-0.87 0.66A8.67 8.67 0 0 0 8 5.33a11.09 11.09 0 0 0 -1.5 -1.22c-0.69 -0.5 -1.43 -1 -2.14 -1.48a2 2 0 0 0 -0.45 -2 2.12 2.12 0 0 0 -2.55 -0.4A2.16 2.16 0 0 0 0.5 3.09a1.89 1.89 0 0 0 1.92 1.24c0.13 0.19 0.25 0.38 0.36 0.58 0.42 0.77 0.73 1.61 1.13 2.37a8.15 8.15 0 0 0 0.68 0.93 6.15 6.15 0 0 0 0.82 0.79 7.75 7.75 0 0 0 1.36 0.89 12.28 12.28 0 0 0 -2.29 2.21 3 3 0 0 0 -0.55 2.9 0.34 0.34 0 0 0 0.65 -0.21 2.3 2.3 0 0 1 0.61 -2.12 7.24 7.24 0 0 1 1 -1c1.06 1.56 2.13 3.1 3.28 4.59 0.82 1.06 1.67 2.08 2.56 3.08a24.48 24.48 0 0 0 2.8 2.78 8.78 8.78 0 0 0 2.38 1.34 8.68 8.68 0 0 0 2.49 0.5 25.21 25.21 0 0 0 3.68 -0.13 0.34 0.34 0 0 0 0.32 -0.36 0.3 0.3 0 0 0 -0.03 -0.29ZM1.39 2.73a1.13 1.13 0 0 1 0.5 -1.47 1 1 0 0 1 1.25 0.15 1.15 1.15 0 0 1 0.32 1.34 0.74 0.74 0 0 1 -0.22 0.25C2 4.12 1.53 3.12 1.39 2.73Zm5 5.86a11.3 11.3 0 0 1 -0.78 -0.93 11.89 11.89 0 0 1 -0.7 -1C4.4 6 4 5.17 3.49 4.47A5 5 0 0 0 3.15 4c0.09 -0.07 0.45 -0.44 0.6 -0.55A1.37 1.37 0 0 0 4 3.27c0.84 0.81 1.7 1.56 2.55 2.3l0.92 0.79c0.3 0.27 0.61 0.52 0.9 0.81a9.32 9.32 0 0 1 0.74 0.9l-0.26 0.2 -1.3 1a1.58 1.58 0 0 1 -0.15 0.12 6.77 6.77 0 0 1 -1.03 -0.8ZM19.8 23.11a8.09 8.09 0 0 1 -2.2 -0.56 8.69 8.69 0 0 1 -2.05 -1.29 27.06 27.06 0 0 1 -2.66 -2.69c-1.14 -1.18 -2.22 -2.41 -3.28 -3.67s-2 -2.39 -2.92 -3.61c0.55 -0.41 1.1 -0.77 1.53 -1.1l1.28 -1 1.55 -1.38c1.25 1.69 2.46 3.41 3.72 5.1L16 14.48l-1.31 0.57a0.61 0.61 0 0 0 -0.35 0.44 0.59 0.59 0 0 0 0.2 0.53 7.72 7.72 0 0 0 2.28 1.41 6.49 6.49 0 0 0 2.41 0.38c0.51 0.7 1 1.41 1.47 2.12 0.73 1.08 1.43 2.17 2.15 3.24a19.37 19.37 0 0 1 -3.05 -0.06Z" fill="#020202" fill-rule="evenodd" stroke-width="1"></path>
    <path d="M20.62 12.52a0.31 0.31 0 0 0 0.4 0.16 0.3 0.3 0 0 0 0.15 -0.4 13.28 13.28 0 0 1 -0.82 -2.86 3.52 3.52 0 0 1 0.15 -1.77 2 2 0 0 1 0.5 -0.74 0.65 0.65 0 0 1 0.59 -0.18 1 1 0 0 1 0.57 0.52 2.67 2.67 0 0 1 0.35 1A4 4 0 0 1 22.4 10a14.11 14.11 0 0 1 -1.24 2.74 0.34 0.34 0 0 0 0.12 0.47 0.35 0.35 0 0 0 0.47 -0.13 15 15 0 0 0 1.52 -2.79 5.06 5.06 0 0 0 0.33 -2.25 3.64 3.64 0 0 0 -0.6 -1.62 2 2 0 0 0 -1.09 -0.8 1.63 1.63 0 0 0 -1.38 0.24 2.83 2.83 0 0 0 -1.05 1.44 4.51 4.51 0 0 0 0 2.28 14.4 14.4 0 0 0 1.14 2.94Z" fill="#4C57E6" fill-rule="evenodd" stroke-width="1"></path>
    <path d="M8.67 20.22a9.16 9.16 0 0 0 -1.35 -1 3.71 3.71 0 0 0 -1.54 -0.52 2.52 2.52 0 0 0 -1.17 0.18 2.34 2.34 0 0 0 -1.53 2.55 2.63 2.63 0 0 0 2 2.13 3.36 3.36 0 0 0 0.71 0.08 4.87 4.87 0 0 0 1 -0.09A6.72 6.72 0 0 0 8 23.22c0.57 -0.21 1.13 -0.47 1.67 -0.71a0.29 0.29 0 0 0 0.15 -0.14l0.05 0a0.36 0.36 0 0 0 0.49 0 0.35 0.35 0 0 0 0 -0.49c-0.53 -0.53 -1.09 -1.12 -1.69 -1.66ZM9.42 22c-0.53 0.18 -1.06 0.38 -1.61 0.53a5.91 5.91 0 0 1 -1.1 0.2 5.58 5.58 0 0 1 -0.71 0 2.27 2.27 0 0 1 -0.63 -0.12 1.62 1.62 0 0 1 -1.16 -1.31 1.29 1.29 0 0 1 0.85 -1.36 1.57 1.57 0 0 1 0.85 -0.13 3.17 3.17 0 0 1 1 0.29 7.89 7.89 0 0 1 1.26 0.8c0.45 0.34 0.88 0.72 1.3 1.09Z" fill="#4C57E6" fill-rule="evenodd" stroke-width="1"></path>
  </g>
</svg>