<svg xmlns="http://www.w3.org/2000/svg" viewBox="0 0 24 24" id="Medical-Specialty-Kidney--Streamline-Freehand">
  <desc>
    Medical Specialty Kidney Streamline Icon: https://streamlinehq.com
  </desc>
  <g>
    <path d="M5.61 6.68a4.49 4.49 0 0 0 0.63 -1.44 1.51 1.51 0 0 0 -0.65 -1.55 2.71 2.71 0 0 0 -2.72 -0.28A4.78 4.78 0 0 0 0.26 6.18a6.24 6.24 0 0 0 0 3.68 5.64 5.64 0 0 0 2 3 0.28 0.28 0 1 0 0.33 -0.45A5 5 0 0 1 1 9.66a5.34 5.34 0 0 1 0.13 -3.17A3.77 3.77 0 0 1 2.8 4.62a1.9 1.9 0 0 1 2.14 -0.07 0.53 0.53 0 0 1 0.25 0.52c-0.11 0.73 -1 1.69 -1 2.61s2.66 3.1 1.37 5c-0.34 0.49 -1.29 1.35 -1.75 1.07a0.31 0.31 0 0 0 -0.44 0.09c-1 1.52 5.66 0.22 2.44 -5 -0.76 -1.23 -0.94 -0.91 -0.2 -2.16Z" fill="#020202" stroke-width="1"></path>
    <path d="M22.91 5.42a8.11 8.11 0 0 0 -1 -1.43c-1.34 -1.47 -1.78 -0.24 -1.22 -0.1a1.65 1.65 0 0 1 0.72 0.54 8 8 0 0 1 0.84 1.34 7.68 7.68 0 0 1 0.85 3.52c0 2.83 -2 6.09 -3.83 4.73 -1.65 -1.19 0.15 -3.27 0 -5.39s-3.8 -4.09 -0.67 -5.45c0.85 -0.37 1.52 0 1.52 -0.49s-1.39 -0.22 -1.76 -0.08c-2.36 0.9 -2.08 2.39 -0.74 4.44a3.45 3.45 0 0 1 0.71 1.64 5.94 5.94 0 0 1 -0.39 2 6.38 6.38 0 0 0 -0.42 2.31 2.81 2.81 0 0 0 2.16 2.43 2.52 2.52 0 0 0 1.78 -0.34 4.92 4.92 0 0 0 1.65 -1.82 7.7 7.7 0 0 0 0.88 -4 8.5 8.5 0 0 0 -1.08 -3.85Z" fill="#020202" stroke-width="1"></path>
    <path d="M16.43 8.59a2.09 2.09 0 0 0 -1.88 0.72 4.8 4.8 0 0 0 -0.89 2.69c-0.14 1.74 0.53 5.07 -0.11 7.1a1.76 1.76 0 0 1 -1.78 1.39c-2.88 0 -2.07 -6.7 -2.2 -8.74 -0.15 -2.61 -1.44 -3.24 -3.23 -3.09a0.28 0.28 0 0 0 0 0.56c3.33 -0.16 2.36 3.09 2.24 6.72a16 16 0 0 0 0 1.83 5.56 5.56 0 0 0 1.09 2.88 2.6 2.6 0 0 0 2 1 2.73 2.73 0 0 0 2.76 -2.16c0.62 -2.13 -0.18 -5.56 -0.1 -7.37a4 4 0 0 1 0.63 -2.32 1.45 1.45 0 0 1 1.3 -0.53 0.32 0.32 0 1 0 0.05 -0.64Z" fill="#4C57E6" stroke-width="1"></path>
  </g>
</svg>