<svg xmlns="http://www.w3.org/2000/svg" viewBox="0 0 24 24" id="Mediaval-Fantasy-Gnome-Dwarf--Streamline-Freehand">
  <desc>
    Mediaval Fantasy Gnome Dwarf Streamline Icon: https://streamlinehq.com
  </desc>
  <title>mediaval-fantasy-gnome-dwarf</title>
  <g>
    <path d="M6.91 14.41a9.57 9.57 0 0 0 1.77 -0.26 14.74 14.74 0 0 0 1.71 -0.54 8.63 8.63 0 0 0 1.61 -0.85 4.66 4.66 0 0 0 0.49 -0.39 7 7 0 0 0 3.2 1.68 4.22 4.22 0 0 0 3.31 -0.36c0.32 -0.21 0.25 -0.82 -0.22 -0.67a4.09 4.09 0 0 1 -2.86 0.08 6 6 0 0 1 -3 -2 0.59 0.59 0 0 0 -0.45 -0.2 0.63 0.63 0 0 0 -0.45 0.22 3.6 3.6 0 0 1 -0.7 0.65 7.65 7.65 0 0 1 -1.36 0.77 11.68 11.68 0 0 1 -1.51 0.62 8.59 8.59 0 0 1 -1.59 0.39 3 3 0 0 1 -1.51 0c-0.35 0 -0.54 0.52 -0.23 0.6 -0.01 0.04 0.24 0.33 1.79 0.26Z" fill="#4C57E6" fill-rule="evenodd" stroke-width="1"></path>
    <path d="M23.88 10.93a0.44 0.44 0 0 0 -0.17 -0.32 0.46 0.46 0 0 0 -0.36 -0.06 9.16 9.16 0 0 0 -3.5 2.06 7.08 7.08 0 0 0 -0.79 -1.29A7.8 7.8 0 0 0 17.74 10l-1.17 -4.61 1.2 0a5.34 5.34 0 0 0 0.69 0c0.23 0 0.46 -0.07 0.68 -0.12 0.55 -0.12 1.06 -0.28 1.59 -0.45A0.34 0.34 0 0 0 21 4.4a0.37 0.37 0 0 0 -0.27 -0.28c-0.47 -0.43 -1 -0.85 -1.47 -1.24s-1.11 -0.8 -1.69 -1.16 -1 -0.64 -1.59 -0.91a6.35 6.35 0 0 0 -1.17 -0.48 8.26 8.26 0 0 0 -1.7 -0.33 5 5 0 0 0 -1.79 0.15 4.78 4.78 0 0 0 -2.55 2 16.87 16.87 0 0 0 -1.88 4.09L6.34 8l-0.61 2.28a0.58 0.58 0 0 0 0 0.32 9.6 9.6 0 0 0 -0.89 1.23A9 9 0 0 0 4.27 13a9 9 0 0 0 -1.41 -1.12 8.91 8.91 0 0 0 -2.19 -1 0.44 0.44 0 0 0 -0.37 0.07 0.41 0.41 0 0 0 -0.18 0.33 15.55 15.55 0 0 0 0.28 5.51 3.34 3.34 0 0 0 3.05 2.48 4.87 4.87 0 0 0 0.54 0h0.11a7 7 0 0 0 1.19 1.84 8.14 8.14 0 0 0 2 1.61A11 11 0 0 0 13.51 24a8.51 8.51 0 0 0 5.76 -2.68A5.8 5.8 0 0 0 20.1 20a8.06 8.06 0 0 0 0.37 -1h0.1a3.31 3.31 0 0 0 3 -2.47 15.79 15.79 0 0 0 0.31 -5.6ZM7.47 8.31 8 6.62a15.9 15.9 0 0 1 1.67 -3.87 3.89 3.89 0 0 1 1.94 -1.63 4.58 4.58 0 0 1 1.45 -0.18 7.32 7.32 0 0 1 1.52 0.23 6.11 6.11 0 0 1 1.06 0.38c0.53 0.24 1.05 0.54 1.56 0.82a18 18 0 0 1 1.66 1.06c0.32 0.22 0.61 0.47 0.91 0.71l-0.81 0a7.89 7.89 0 0 0 -1.09 0.11 10.78 10.78 0 0 0 -1.48 0.4L16 3.28a0.35 0.35 0 0 0 -0.67 0.17l1.34 6.1A25.75 25.75 0 0 0 11.78 9a19.28 19.28 0 0 0 -4.65 0.52Zm15.22 7.82a2.36 2.36 0 0 1 -2.2 1.73h-0.42a0.54 0.54 0 0 0 -0.55 0.42 5.9 5.9 0 0 1 -0.43 1.22 4.44 4.44 0 0 1 -0.68 1 7.36 7.36 0 0 1 -5 2.25 10 10 0 0 1 -5.54 -1.07 7.09 7.09 0 0 1 -1.75 -1.37 6.23 6.23 0 0 1 -1.18 -1.86 0.55 0.55 0 0 0 -0.61 -0.33l-0.81 0.05a2.37 2.37 0 0 1 -2.19 -1.74A12.77 12.77 0 0 1 1 11.88a7.65 7.65 0 0 1 1.47 0.71A8.36 8.36 0 0 1 4.13 14a0.34 0.34 0 0 0 0.37 0.12c0.49 -0.26 0.69 -1.11 1 -1.93A4.66 4.66 0 0 1 6.35 11h0.13a17.82 17.82 0 0 1 5.3 -0.85 26.07 26.07 0 0 1 5.43 0.48 0.5 0.5 0 0 0 0.21 0 6.38 6.38 0 0 1 1.11 1.16c0.92 1.24 0.65 1.61 1.14 1.84a0.31 0.31 0 0 0 0.33 -0.1 8.39 8.39 0 0 1 1.66 -1.29 7.58 7.58 0 0 1 1.41 -0.67 12.79 12.79 0 0 1 -0.38 4.56Z" fill="#020202" fill-rule="evenodd" stroke-width="1"></path>
    <path d="M14.34 18.14a0.35 0.35 0 0 0 -0.42 0.26 1.58 1.58 0 0 1 -0.77 0.8 1.44 1.44 0 0 1 -0.86 0.17 1.22 1.22 0 0 1 -0.58 -0.15 1 1 0 0 1 -0.3 -0.22 2 2 0 0 1 -0.26 -0.38 0.31 0.31 0 0 0 -0.4 -0.18 0.31 0.31 0 0 0 -0.17 0.4 2.8 2.8 0 0 0 0.23 0.67 1.85 1.85 0 0 0 0.31 0.44 1.93 1.93 0 0 0 1 0.57 1.83 1.83 0 0 0 1.19 -0.18 2.32 2.32 0 0 0 1.25 -1.78 0.35 0.35 0 0 0 -0.22 -0.42Z" fill="#020202" fill-rule="evenodd" stroke-width="1"></path>
    <path d="M8.24 15.87a0.35 0.35 0 0 0 -0.24 0.2 0.79 0.79 0 0 0 -0.44 1.08 0.9 0.9 0 0 0 0.84 0.59 0.83 0.83 0 0 0 0.42 -0.08c0.61 -0.33 0.79 -0.87 0.57 -1.29a0.87 0.87 0 0 0 -1.15 -0.5Z" fill="#020202" fill-rule="evenodd" stroke-width="1"></path>
    <path d="M15.9 15.72a0.35 0.35 0 0 0 -0.24 0.2 0.79 0.79 0 0 0 -0.44 1.08 0.91 0.91 0 0 0 0.85 0.6 1 1 0 0 0 0.41 -0.08c0.61 -0.34 0.79 -0.88 0.58 -1.3a0.88 0.88 0 0 0 -1.16 -0.5Z" fill="#020202" fill-rule="evenodd" stroke-width="1"></path>
  </g>
</svg>