<svg xmlns="http://www.w3.org/2000/svg" viewBox="0 0 24 24" id="Medical-Instrument-Tweezers-1--Streamline-Freehand">
  <desc>
    Medical Instrument Tweezers 1 Streamline Icon: https://streamlinehq.com
  </desc>
  <g>
    <path d="M7 15.21a2.46 2.46 0 0 0 -0.82 -0.21 2.13 2.13 0 0 0 -1.56 0.62 1.07 1.07 0 0 0 -0.2 1.33 1.8 1.8 0 0 0 0.76 0.69c0.1 0.05 1 0.44 1 0.44a1.58 1.58 0 0 0 1.34 -0.72A1.56 1.56 0 0 0 7 15.21Zm-0.2 1.7a0.74 0.74 0 0 1 -0.38 0.38 2.69 2.69 0 0 1 -0.71 -0.29 1 1 0 0 1 -0.45 -0.52s0 -0.08 0 -0.12a0.88 0.88 0 0 1 0.28 -0.2 1 1 0 0 1 0.51 -0.16 1.23 1.23 0 0 1 0.38 0.08 0.53 0.53 0 0 1 0.23 0.13 0.61 0.61 0 0 1 0.14 0.7Z" fill="#4C57E6" stroke-width="1"></path>
    <path d="M20.18 7.54a20 20 0 0 0 1.27 -5 2.27 2.27 0 0 0 -0.61 -2 0.6 0.6 0 0 0 -0.16 -0.22c-0.58 -0.51 -1.33 -0.42 -2.14 0.24 -1.25 1 -2.78 3.54 -4.07 5.35 -1.86 2.63 -3.43 5.72 -4.66 7.4a3.82 3.82 0 0 1 -1 1 0.34 0.34 0 0 1 -0.32 0.08 0.32 0.32 0 0 0 -0.42 0.17 0.32 0.32 0 0 0 0.16 0.43 1 1 0 0 0 0.93 -0.11 4.61 4.61 0 0 0 1.16 -1.18c1.25 -1.65 2.88 -4.71 4.8 -7.31a55.3 55.3 0 0 1 3.44 -4.56 3.27 3.27 0 0 1 1 -0.79 0.36 0.36 0 0 1 0.28 0C19.69 1.82 18.73 3.31 18 5c-0.43 0.94 -0.91 1.9 -1.36 2.75 -0.55 1.08 -1 2 -1.29 2.42l-0.13 0a2.67 2.67 0 0 1 -0.48 -0.19 0.55 0.55 0 0 0 -0.7 0.23L11.7 14a18.22 18.22 0 0 1 -3 3.93 2.8 2.8 0 0 1 -2.72 0.78 4.73 4.73 0 0 1 -1.61 -0.86 3 3 0 0 1 -1 -1.43 2.13 2.13 0 0 1 0.6 -2 1.75 1.75 0 0 1 2 -0.48c0.35 0.17 0.71 0.34 1 0.53a4.6 4.6 0 0 1 0.63 0.42 0.29 0.29 0 0 0 0.4 -0.12 0.28 0.28 0 0 0 0 -0.4 5.65 5.65 0 0 0 -0.69 -0.48c-0.34 -0.2 -0.71 -0.39 -1.07 -0.57a2.38 2.38 0 0 0 -2.76 0.55 2.84 2.84 0 0 0 -0.83 2.73 3.72 3.72 0 0 0 1.15 1.83 5.71 5.71 0 0 0 1.85 1.06 3.64 3.64 0 0 0 3.59 -0.85 19.21 19.21 0 0 0 3.33 -4.06c0.24 -0.36 0.61 -0.94 1 -1.56s0.9 -1.49 1.16 -1.94a2 2 0 0 0 0.33 0.09 2.14 2.14 0 0 0 0.62 0.06 0.53 0.53 0 0 0 0.44 -0.27s0.68 -1.19 1.49 -2.75c0.45 -0.87 0.93 -1.85 1.37 -2.81 0.62 -1.4 1.39 -2.7 1.74 -3.56l0.08 -0.23a4.54 4.54 0 0 1 -0.08 1.57 21.34 21.34 0 0 1 -1.29 4.05c-0.85 2 -3.37 7.21 -4.4 9.47 -0.21 0.47 -0.36 0.82 -0.42 1a0.65 0.65 0 0 0 0 0.58c0.48 0.81 0.73 0.2 1.36 0.86a3.24 3.24 0 0 1 0.82 1.35 2 2 0 0 1 -0.2 1.42 2.18 2.18 0 0 1 -2.83 0.93c-1.25 -0.39 -2.42 -1.33 -2.36 -2.2a9.13 9.13 0 0 1 0.67 -1.91c0.72 -1.71 1.76 -3.9 2 -4.63a0.33 0.33 0 1 0 -0.61 -0.25c-0.34 0.82 -1.72 3.5 -2.46 5.23a7 7 0 0 0 -0.5 1.49c-0.11 1.15 1.26 2.62 2.91 3.19a3.14 3.14 0 0 0 4.07 -1.35 3 3 0 0 0 0.31 -2.19 4.26 4.26 0 0 0 -1.07 -1.82 3.44 3.44 0 0 0 -0.95 -0.79l0.2 -0.46c1.03 -2.29 3.41 -7.56 4.21 -9.61Z" fill="#020202" stroke-width="1"></path>
    <path d="M12.54 20.64a1.56 1.56 0 0 0 0.52 0.83s1.58 1.26 2.54 0.16a1.3 1.3 0 0 0 0.27 -1.08 2 2 0 0 0 -0.44 -0.92 1.92 1.92 0 0 0 -0.89 -0.58 1.94 1.94 0 0 0 -1.62 0.39 1.16 1.16 0 0 0 -0.38 1.2Zm1.16 -0.44a0.93 0.93 0 0 1 0.58 -0.09 0.92 0.92 0 0 1 0.41 0.22 1.08 1.08 0 0 1 0.31 0.43 0.51 0.51 0 0 1 0 0.42c-0.39 0.62 -1 0.12 -1.27 -0.14a0.83 0.83 0 0 1 -0.25 -0.55c-0.04 -0.16 0.1 -0.23 0.22 -0.29Z" fill="#4C57E6" stroke-width="1"></path>
  </g>
</svg>