<svg xmlns="http://www.w3.org/2000/svg" viewBox="0 0 24 24" id="Medical-Condition-Cold--Streamline-Freehand">
  <desc>
    Medical Condition Cold Streamline Icon: https://streamlinehq.com
  </desc>
  <g>
    <path d="M20.6 8.27a0.64 0.64 0 0 1 -0.12 -0.27s0 0 0 -0.07a1.19 1.19 0 0 1 0.09 -0.15 3.58 3.58 0 0 0 0.29 -0.59 1.27 1.27 0 0 0 0 -0.84 1.13 1.13 0 0 0 -0.37 -0.5 3 3 0 0 0 -0.5 -0.3l-0.19 -0.1 -0.08 0a1.56 1.56 0 0 1 -0.11 -0.65 1.4 1.4 0 0 0 -0.18 -0.8 1 1 0 0 0 -0.88 -0.39 0.33 0.33 0 1 0 -0.07 0.65 0.35 0.35 0 0 1 0.28 0.17s0 0.11 0 0.16a3.16 3.16 0 0 1 -0.1 0.5 1.89 1.89 0 0 0 0.05 0.89 1.26 1.26 0 0 0 0.33 0.46 2.2 2.2 0 0 0 0.51 0.32c0.1 0 0.33 0.09 0.26 0.16a0.61 0.61 0 0 1 -0.07 0.34 2.41 2.41 0 0 0 -0.18 0.7 0.72 0.72 0 0 0 0 0.36 1.29 1.29 0 0 0 0.25 0.39c0.18 0.18 0.41 0.35 0.58 0.49a0.37 0.37 0 0 0 0.51 -0.54Z" fill="#4C57E6" fill-rule="evenodd" stroke-width="1"></path>
    <path d="M23.32 16.54s-0.05 0 0 -0.06a1.38 1.38 0 0 1 0.3 -0.59 1.42 1.42 0 0 0 0.31 -0.82 1 1 0 0 0 -0.48 -0.84 0.32 0.32 0 1 0 -0.43 0.48 0.34 0.34 0 0 1 0.11 0.3c0 0.05 -0.07 0.07 -0.11 0.12s-0.25 0.22 -0.38 0.34a2 2 0 0 0 -0.49 0.74 1.22 1.22 0 0 0 0 0.57 2 2 0 0 0 0.21 0.56c0.05 0.1 0.21 0.26 0.12 0.27 -0.05 0.11 -0.17 0.17 -0.27 0.24a2.46 2.46 0 0 0 -0.56 0.46 0.76 0.76 0 0 0 -0.18 0.31 1.16 1.16 0 0 0 0 0.46 4.62 4.62 0 0 0 0.17 0.73 0.37 0.37 0 0 0 0.73 -0.13l0 -0.47a0.75 0.75 0 0 1 0 -0.26s0.05 0 0.07 0l0.17 -0.08a2.89 2.89 0 0 0 0.58 -0.3 1.28 1.28 0 0 0 0.52 -0.67 1.15 1.15 0 0 0 0 -0.61 3.59 3.59 0 0 0 -0.23 -0.55Z" fill="#4C57E6" fill-rule="evenodd" stroke-width="1"></path>
    <path d="M2.59 14.09a1.09 1.09 0 0 0 0.41 -0.38 1.73 1.73 0 0 0 0.22 -0.85l0 -0.51 0 -0.17a0.34 0.34 0 0 1 0.3 -0.11 0.34 0.34 0 0 0 0.36 -0.3 0.32 0.32 0 0 0 -0.3 -0.35 1 1 0 0 0 -0.94 0.2 1.36 1.36 0 0 0 -0.4 0.78A1.71 1.71 0 0 1 2 13l-0.21 0.07a3 3 0 0 0 -0.55 0.19 1.31 1.31 0 0 0 -0.46 0.41 1.34 1.34 0 0 0 -0.16 0.83 4.15 4.15 0 0 0 0.16 0.63 1.27 1.27 0 0 1 0.06 0.18s0 0.07 0 0.07a0.48 0.48 0 0 1 -0.11 0.15 4 4 0 0 1 -0.44 0.34 0.37 0.37 0 0 0 -0.12 0.51 0.36 0.36 0 0 0 0.51 0.12 5.57 5.57 0 0 0 0.67 -0.36 1.41 1.41 0 0 0 0.32 -0.33 0.92 0.92 0 0 0 0.12 -0.34 3.17 3.17 0 0 0 0 -0.73 0.6 0.6 0 0 1 0 -0.35c-0.05 -0.08 0.18 -0.07 0.29 -0.1a2.25 2.25 0 0 0 0.51 -0.2Z" fill="#4C57E6" fill-rule="evenodd" stroke-width="1"></path>
    <path d="M5.06 3.29A0.33 0.33 0 0 0 5.43 3c0.37 -1.19 -0.28 -1.35 1 -0.74a0.61 0.61 0 0 0 0.68 -0.11 2.35 2.35 0 0 0 0.28 -0.34L7.75 1c0.14 0.06 0.45 -0.1 0.56 -0.09A0.38 0.38 0 0 0 8.75 0.6a0.38 0.38 0 0 0 -0.29 -0.44A3.12 3.12 0 0 0 7.64 0 0.86 0.86 0 0 0 7 0.27L6.51 1A1.83 1.83 0 0 0 5.8 0.8a1 1 0 0 0 -0.8 0.3 1 1 0 0 0 -0.27 0.53 8.69 8.69 0 0 0 0 1.29 0.33 0.33 0 0 0 0.33 0.37Z" fill="#4C57E6" fill-rule="evenodd" stroke-width="1"></path>
    <path d="M7.92 5.48a2.75 2.75 0 0 0 0.71 0.3 1.22 1.22 0 0 0 0.33 0 1.59 1.59 0 0 0 0.33 -0.09 2.21 2.21 0 0 0 0.71 -0.45 0.38 0.38 0 0 0 0.17 -0.5C10 4.53 10 4.53 9 4.55a1.56 1.56 0 0 0 -0.37 0s-1 0.29 -1 0.56a0.32 0.32 0 0 0 0.29 0.37Z" fill="#020202" fill-rule="evenodd" stroke-width="1"></path>
    <path d="M11.9 5.69a1.07 1.07 0 0 0 0.31 0.13 1 1 0 0 0 0.34 0 2.88 2.88 0 0 0 0.74 -0.19 0.33 0.33 0 0 0 0.34 -0.31c0 -0.28 -1 -0.7 -1 -0.7a1.45 1.45 0 0 0 -0.36 -0.08c-0.92 -0.14 -1 -0.14 -1.11 0a0.38 0.38 0 0 0 0.1 0.52 2.24 2.24 0 0 0 0.64 0.63Z" fill="#020202" fill-rule="evenodd" stroke-width="1"></path>
    <path d="M18.42 17.55a4 4 0 0 1 -0.84 -1.39 2.19 2.19 0 0 1 -0.06 -0.76 20.85 20.85 0 0 0 0.2 -2.26 3.29 3.29 0 0 0 -0.54 -1.5 6.55 6.55 0 0 0 -1.4 -1.51 5 5 0 0 0 0.84 -1.42 5.24 5.24 0 0 0 -0.94 -5.17 4.71 4.71 0 0 0 -2.1 -1.36A8.48 8.48 0 0 0 10 1.84a8.59 8.59 0 0 0 -2.47 0.7A6 6 0 0 0 5.41 4.1a5 5 0 0 0 -1 4.34 4.73 4.73 0 0 0 2.32 3 7.16 7.16 0 0 0 -0.84 0.71 4.42 4.42 0 0 0 -0.77 1.09 4.5 4.5 0 0 0 -0.36 1c-0.17 0.76 -0.18 1.55 -0.38 2.32a3.45 3.45 0 0 1 -0.84 1.34 8.39 8.39 0 0 0 -1.19 1.58 2.76 2.76 0 0 0 -0.2 1.95 2.4 2.4 0 0 0 1.15 1.51 6.24 6.24 0 0 0 2.28 0.71 36.76 36.76 0 0 0 4.61 0.35 25.13 25.13 0 0 0 4.62 -0.37 11.85 11.85 0 0 0 1.61 -0.41c1.87 -0.62 1.43 -0.33 2.09 -0.82a3.29 3.29 0 0 0 0.41 -0.33 3.38 3.38 0 0 0 0.31 -0.35 3.18 3.18 0 0 0 0.26 -0.44 2.45 2.45 0 0 0 0.06 -2 6.69 6.69 0 0 0 -1.13 -1.73Zm-2.68 -9.14a3.94 3.94 0 0 1 -0.85 1.43 4.51 4.51 0 0 0 0 -0.52 3.36 3.36 0 0 0 -0.13 -0.63 2.59 2.59 0 0 0 -0.24 -0.6 4.59 4.59 0 0 0 -0.59 -0.8c0.37 -0.22 0.74 -0.44 1.12 -0.64s0.53 -0.27 0.8 -0.4a4.27 4.27 0 0 1 -0.11 2.16Zm-9.4 -3.53a4.86 4.86 0 0 1 1.71 -1.21 7.35 7.35 0 0 1 2.11 -0.59 7.69 7.69 0 0 1 2.56 0.11 4 4 0 0 1 2.12 1.09 4.24 4.24 0 0 1 0.76 1.26c-0.39 0.13 -0.78 0.27 -1.17 0.43l-1.25 0.54 -1.18 0.55a4 4 0 0 1 -0.74 0.24 1.23 1.23 0 0 1 -0.54 0c-0.4 -0.08 -0.79 -0.24 -1.18 -0.34a16.84 16.84 0 0 0 -1.87 -0.27 12 12 0 0 0 -1.9 0 0.33 0.33 0 0 0 0 0.66 9.57 9.57 0 0 1 1.41 0.2l0.3 0.08A6.42 6.42 0 0 0 7 8.72a4.07 4.07 0 0 0 0 0.61 4.17 4.17 0 0 0 0 0.61 7.49 7.49 0 0 0 0.23 0.81 3.78 3.78 0 0 1 -1.82 -2.53 3.94 3.94 0 0 1 0.93 -3.34Zm-2.4 17a1.24 1.24 0 0 1 -0.6 -0.71A1.57 1.57 0 0 1 3.43 20c0.49 -1.11 1.68 -2 1.92 -3.22 0.16 -0.8 0.13 -1.59 0.26 -2.38a4.12 4.12 0 0 1 0.24 -0.88 3.63 3.63 0 0 1 0.58 -0.92 7.1 7.1 0 0 1 0.94 -0.88 5.7 5.7 0 0 0 1.45 0.36 10.2 10.2 0 0 0 2.33 -0.08 0.33 0.33 0 0 0 0.29 -0.36 0.32 0.32 0 0 0 -0.36 -0.29 11 11 0 0 1 -1.81 0 5.38 5.38 0 0 1 -1.16 -0.26c0 -0.45 0 -0.87 0.07 -1.3l0 -0.85c0 -0.29 0 -0.81 -0.05 -1.23 0.35 0.1 0.7 0.18 1 0.3a11.4 11.4 0 0 0 1.47 0.47 2.18 2.18 0 0 0 0.84 0 4.29 4.29 0 0 0 1 -0.36c0.26 -0.13 0.5 -0.29 0.74 -0.44 0.08 0.33 0.15 0.66 0.24 1s0.18 0.56 0.28 0.84 0.22 0.68 0.32 1a3.94 3.94 0 0 1 -1.56 0.62 0.39 0.39 0 0 0 -0.32 0.42 0.35 0.35 0 0 0 0.27 0.28 6.78 6.78 0 0 0 -1 0.47A5.76 5.76 0 0 0 9.5 14a3.81 3.81 0 0 0 -0.69 1.67 4.09 4.09 0 0 0 0 0.7c0 0.47 0.14 0.93 0.2 1.4l0.09 1.73a9.5 9.5 0 0 1 0 1.6 2.71 2.71 0 0 1 -0.29 0.9 1.62 1.62 0 0 1 -0.42 0.48l-0.29 0.2c-0.78 -0.09 -1.58 -0.13 -2.33 -0.26a5.23 5.23 0 0 1 -1.83 -0.55Zm14.7 -0.93 -0.33 0.56c-0.23 0.26 -0.22 0.4 -2.13 0.94a9.42 9.42 0 0 1 -1.51 0.32 21.44 21.44 0 0 1 -2.56 0.17A4.47 4.47 0 0 0 13 21.3a6.08 6.08 0 0 0 -0.05 -2.81c-0.14 -0.51 -0.38 -1.06 -0.49 -1.61a1.56 1.56 0 0 1 0 -0.83 2.07 2.07 0 0 1 0.74 -1 7.94 7.94 0 0 0 1.23 -1.15 2.28 2.28 0 0 0 0.54 -1.5 0.34 0.34 0 0 0 -0.32 -0.34 0.31 0.31 0 0 0 -0.33 0.31 1.62 1.62 0 0 1 -0.5 1 14.34 14.34 0 0 1 -1.53 1.07 2.84 2.84 0 0 0 -1 1.24 2.49 2.49 0 0 0 -0.14 1.11 12.89 12.89 0 0 0 0.59 2A5 5 0 0 1 12 21.1a3.51 3.51 0 0 1 -0.87 1.82h-0.89c-0.33 0 -0.65 -0.09 -1 -0.11a3.26 3.26 0 0 0 0.31 -0.33 3.38 3.38 0 0 0 0.51 -1.19 10.52 10.52 0 0 0 0.17 -1.78l0 -1.12 0 -0.8c0 -0.26 -0.13 -0.78 -0.18 -1.17a3 3 0 0 1 0.55 -2.12 5.61 5.61 0 0 1 1.26 -1.22 5.94 5.94 0 0 1 0.87 -0.53 2.57 2.57 0 0 1 0.59 -0.2 0.32 0.32 0 0 0 0.29 -0.35 0.31 0.31 0 0 0 -0.28 -0.27 4.85 4.85 0 0 0 2 -1.1 6.14 6.14 0 0 1 1 1.17 2.72 2.72 0 0 1 0.41 1.37c0 0.76 -0.32 1.43 -0.4 2.15a3.24 3.24 0 0 0 0.08 1.15 4.74 4.74 0 0 0 1.12 1.87 6 6 0 0 1 1.08 1.38 1.52 1.52 0 0 1 0.02 1.22Z" fill="#020202" fill-rule="evenodd" stroke-width="1"></path>
  </g>
</svg>