<svg xmlns="http://www.w3.org/2000/svg" viewBox="0 0 24 24" id="Mediaval-Fantasy-Tarvern-Sign--Streamline-Freehand">
  <desc>
    Mediaval Fantasy Tarvern Sign Streamline Icon: https://streamlinehq.com
  </desc>
  <title>mediaval-fantasy-tarvern-sign</title>
  <g>
    <path d="M17.73 12.39a1.77 1.77 0 0 0 -0.84 -0.37A4.43 4.43 0 0 0 16 12l0 -0.58a1.7 1.7 0 0 0 -0.33 -1.91 2.39 2.39 0 0 0 -1.3 -0.67 2.19 2.19 0 0 0 -2.19 -2.44 2.62 2.62 0 0 0 -1.35 0.39 3 3 0 0 0 -0.6 0.47 2.5 2.5 0 0 0 -2.84 0.06A3 3 0 0 0 6 9.92a2.2 2.2 0 0 0 -0.92 1.61 1.85 1.85 0 0 0 0.88 1.76A6 6 0 0 0 6.15 15a2.14 2.14 0 0 0 0.47 0.83 0.24 0.24 0 0 0 0 0.08A20.48 20.48 0 0 0 6.71 18 3.46 3.46 0 0 0 7 19a3.44 3.44 0 0 0 2.39 1.67 11.38 11.38 0 0 0 4 0.11 4.25 4.25 0 0 0 1.47 -0.41 2.13 2.13 0 0 0 0.84 -0.79 6.48 6.48 0 0 0 0.3 -2.28 3.54 3.54 0 0 0 0.92 -0.07 2.05 2.05 0 0 0 0.81 -0.4 3 3 0 0 0 0.88 -2.24 3.45 3.45 0 0 0 -0.2 -1.16 2.37 2.37 0 0 0 -0.68 -1.04ZM6 11.63a1.28 1.28 0 0 1 0.79 -1 0.49 0.49 0 0 0 0.21 -0.54 1.88 1.88 0 0 1 1 -1.85 1.44 1.44 0 0 1 1.88 0.15 0.54 0.54 0 0 0 0.43 0.17 0.59 0.59 0 0 0 0.41 -0.21 3 3 0 0 1 0.68 -0.66 1.76 1.76 0 0 1 0.8 -0.29A1.25 1.25 0 0 1 13.41 9a0.42 0.42 0 0 0 0.05 0.39 0.41 0.41 0 0 0 0.35 0.18 1.86 1.86 0 0 1 1.3 0.41 0.94 0.94 0 0 1 0.3 0.82 23.54 23.54 0 0 0 -2.41 -0.14 9.7 9.7 0 0 0 -1.81 0.14 0.37 0.37 0 0 0 -0.31 0.4 0.87 0.87 0 0 1 -0.41 0.83 1.48 1.48 0 0 1 -1.05 0.08 0.46 0.46 0 0 0 -0.39 0.1 0.47 0.47 0 0 0 -0.16 0.36 5.91 5.91 0 0 1 -0.22 2.13 1 1 0 0 1 -0.78 0.63l-0.66 0 -0.16 0a1.52 1.52 0 0 1 -0.26 -0.56 5.16 5.16 0 0 1 -0.06 -1.7 0.4 0.4 0 0 0 -0.22 -0.36A1 1 0 0 1 6 11.63Zm9.29 4.44a8.45 8.45 0 0 1 -0.47 3 1.18 1.18 0 0 1 -0.63 0.47 3.63 3.63 0 0 1 -1 0.2 10.45 10.45 0 0 1 -3.56 -0.17A2.37 2.37 0 0 1 8 18.49a3.52 3.52 0 0 1 -0.16 -0.94c0 -0.33 -0.06 -0.71 -0.08 -1.11a2.23 2.23 0 0 0 0.36 -0.05 2 2 0 0 0 1.51 -1.31 5.71 5.71 0 0 0 0.21 -2 2 2 0 0 0 1.11 -0.3 1.55 1.55 0 0 0 0.74 -1.25 9.94 9.94 0 0 1 1.31 -0.17c0.76 0 1.54 0 2.28 0.07 0.03 1.16 0.05 3.01 -0.03 4.64Zm2.27 -1.46a4 4 0 0 1 -0.08 0.85 1.42 1.42 0 0 1 -0.3 0.68 1.14 1.14 0 0 1 -0.57 0.35 2.84 2.84 0 0 1 -0.49 0.1l0 -4a3.18 3.18 0 0 1 0.52 0.1 1.14 1.14 0 0 1 0.55 0.34 1.6 1.6 0 0 1 0.3 0.7 4 4 0 0 1 0.03 0.88Z" fill="#020202" fill-rule="evenodd" stroke-width="1"></path>
    <path d="M10.36 16c-0.21 0 -0.5 0.77 -0.5 0.78a0.44 0.44 0 0 0 0 0.2 0.65 0.65 0 0 0 0 0.19c0.27 0.77 0.4 0.78 0.55 0.77s0.34 -0.1 0.51 -0.81a0.76 0.76 0 0 0 0 -0.21 0.43 0.43 0 0 0 0 -0.19s-0.32 -0.79 -0.56 -0.73Z" fill="#020202" fill-rule="evenodd" stroke-width="1"></path>
    <path d="M13.31 14.47a0.3 0.3 0 0 0 -0.59 0 7.75 7.75 0 0 0 -0.23 1 2.26 2.26 0 0 0 0 0.45 3.27 3.27 0 0 0 0 0.44c0.06 0.35 0.15 0.67 0.21 1a0.33 0.33 0 0 0 0.34 0.33 0.32 0.32 0 0 0 0.33 -0.33c0.07 -0.36 0.14 -0.69 0.18 -1a3.4 3.4 0 0 0 0 -0.45 3.37 3.37 0 0 0 0 -0.44c-0.04 -0.33 -0.16 -0.65 -0.24 -1Z" fill="#020202" fill-rule="evenodd" stroke-width="1"></path>
    <path d="M5.34 5.66a0.32 0.32 0 0 0 0.34 0.34 0.33 0.33 0 0 0 0.32 -0.34 18.52 18.52 0 0 0 0.16 -2.47l0 -0.73C6 1.88 5.9 1.33 5.79 0.76a0.29 0.29 0 0 0 -0.3 -0.29 0.31 0.31 0 0 0 -0.29 0.31c0 0.58 -0.14 1.14 -0.16 1.72C5 2.75 5 3 5 3.24s0.3 2.11 0.34 2.42Z" fill="#020202" fill-rule="evenodd" stroke-width="1"></path>
    <path d="M14 3.61c-1.56 0 -3.17 0.1 -4.55 0.17l-2.87 0.16c-0.53 0.2 -0.24 0.73 0.26 0.67 1 -0.05 1.63 0 2.65 -0.06s2.46 -0.08 3.77 -0.1 2.31 0 3.36 0c0.5 0 0.47 -0.68 0 -0.87 -0.81 0 -1.69 0.01 -2.62 0.03Z" fill="#4C57E6" fill-rule="evenodd" stroke-width="1"></path>
    <path d="M18.07 2.92a3.36 3.36 0 0 0 -0.07 -0.63c-0.08 -0.49 -0.22 -1 -0.32 -1.45a0.3 0.3 0 0 0 -0.31 -0.28 0.29 0.29 0 0 0 -0.28 0.31c-0.07 0.5 -0.15 1 -0.17 1.48 0 0.21 0.31 2.51 0.35 2.71a0.33 0.33 0 0 0 0.34 0.32A0.34 0.34 0 0 0 18 5a19.53 19.53 0 0 0 0.07 -2.08Z" fill="#020202" fill-rule="evenodd" stroke-width="1"></path>
    <path d="M23.92 9.46a19 19 0 0 0 -0.5 -3.34 3.27 3.27 0 0 0 -0.87 -1.39 4.53 4.53 0 0 0 -2.18 -1 11.59 11.59 0 0 0 -1.56 -0.14c-0.64 0 -0.61 0.88 0 0.91a8.59 8.59 0 0 1 1.34 0.15 3.54 3.54 0 0 1 1.71 0.77 2.69 2.69 0 0 1 0.69 1.4c0.2 0.92 0.2 2 0.3 2.75a20.1 20.1 0 0 1 0 2.57c-0.06 2.36 -0.25 5.34 -0.22 6.21a6.7 6.7 0 0 1 -0.07 1.41 2.21 2.21 0 0 1 -0.29 0.76 2.59 2.59 0 0 1 -0.94 0.82 5.45 5.45 0 0 1 -1.3 0.5 11.48 11.48 0 0 1 -1.43 0.22c-0.77 0.06 -1.54 0.07 -2.3 0.14 -1.6 0.13 -3.2 0.2 -4.8 0.2s-3.19 -0.05 -4.79 -0.2a20.74 20.74 0 0 1 -3.17 -0.38 4.26 4.26 0 0 1 -1.7 -0.82 2.34 2.34 0 0 1 -0.7 -1.15 10.08 10.08 0 0 1 -0.26 -2.3C0.8 15.74 0.74 13.88 0.75 12c0 -1.23 0 -2.46 0.11 -3.68a6 6 0 0 1 0.47 -2.29C1.94 4.87 2.59 5 4.67 4.79c0.56 -0.07 0.42 -0.57 0 -0.7 -2.21 0.22 -3.2 0.41 -3.88 1.68A6.73 6.73 0 0 0 0.2 8.3C0.1 9.53 0.05 10.78 0 12l0 5.58a10.92 10.92 0 0 0 0.24 2.52 3.18 3.18 0 0 0 1 1.59 5.17 5.17 0 0 0 2.13 1.07 22.93 22.93 0 0 0 3.31 0.47q2.45 0.26 4.89 0.27c1.62 0 3.25 -0.05 4.88 -0.17 0.77 -0.06 1.55 -0.07 2.31 -0.14a9.78 9.78 0 0 0 1.61 -0.19 6.13 6.13 0 0 0 1.88 -0.79 3.56 3.56 0 0 0 1.05 -1 3.35 3.35 0 0 0 0.44 -1.21 7.7 7.7 0 0 0 0.08 -1.66c0 -0.86 0.14 -3.81 0.17 -6.15a23 23 0 0 0 -0.07 -2.73Z" fill="#4C57E6" fill-rule="evenodd" stroke-width="1"></path>
  </g>
</svg>