<svg xmlns="http://www.w3.org/2000/svg" viewBox="0 0 24 24" id="Mediaval-Fantasy-Goblin-1--Streamline-Freehand">
  <desc>
    Mediaval Fantasy Goblin 1 Streamline Icon: https://streamlinehq.com
  </desc>
  <title>mediaval-fantasy-goblin-1</title>
  <g>
    <path d="M7.44 8.05h0.09a12 12 0 0 0 1.34 0c0.31 0 0.61 0 0.91 -0.07l0 1.49a10.65 10.65 0 0 1 -0.11 1.21c-0.17 0.08 -0.57 0.11 -0.69 0.2a1.93 1.93 0 0 0 -0.73 1.42 2.33 2.33 0 0 0 0.42 1.51 2 2 0 0 0 0.74 0.61 3.5 3.5 0 0 0 1.22 0.32 11.14 11.14 0 0 0 2.08 0 7.06 7.06 0 0 0 2.08 -0.54 3.21 3.21 0 0 0 1 -0.68 1.76 1.76 0 0 0 0.47 -0.8 1.86 1.86 0 0 0 0 -1.07 1.39 1.39 0 0 0 -0.76 -0.87c-0.1 0 -0.42 -0.29 -0.57 -0.25 0 -0.17 0 -0.42 -0.06 -0.7 0 -0.61 -0.06 -1.37 -0.1 -2l0.7 0 1.38 0a0.34 0.34 0 0 0 0.35 -0.32 0.33 0.33 0 0 0 -0.32 -0.35l-1.45 0 -0.66 0a1.12 1.12 0 0 1 -0.36 0 0.38 0.38 0 0 0 -0.34 0.08 0.41 0.41 0 0 0 -0.15 0.32l0 2.78A3.74 3.74 0 0 0 14 11a0.68 0.68 0 0 0 0.35 0.39 5.52 5.52 0 0 0 0.66 0.26 0.4 0.4 0 0 1 0.21 0.28 0.81 0.81 0 0 1 0 0.46 0.88 0.88 0 0 1 -0.32 0.43 2.47 2.47 0 0 1 -0.61 0.35 5.76 5.76 0 0 1 -1.75 0.42 9.65 9.65 0 0 1 -1.86 0 2.55 2.55 0 0 1 -0.71 -0.14 1 1 0 0 1 -0.47 -0.32 1.22 1.22 0 0 1 -0.25 -0.79 0.92 0.92 0 0 1 0.29 -0.71c0.15 -0.13 0.52 -0.21 0.71 -0.36a0.73 0.73 0 0 0 0.28 -0.47 11.31 11.31 0 0 0 0.05 -1.34c0 -0.7 -0.05 -1.42 -0.07 -1.93a0.38 0.38 0 0 0 -0.44 -0.36 10.49 10.49 0 0 1 -1.25 0.2 11 11 0 0 1 -1.28 0.05h-0.12a0.3 0.3 0 0 0 -0.28 0.31 0.29 0.29 0 0 0 0.3 0.32Z" fill="#020202" fill-rule="evenodd" stroke-width="1"></path>
    <path d="M17.17 15.61a0.34 0.34 0 0 0 -0.37 0.3l-0.12 0.48a0.65 0.65 0 0 1 -0.53 0.34 5.73 5.73 0 0 1 -1.45 -0.06c-0.66 0 -1.32 -0.07 -2 -0.08l-1.48 0 -1.48 0a7.63 7.63 0 0 1 -1.36 0 0.74 0.74 0 0 1 -0.55 -0.31l-0.1 -0.57a0.29 0.29 0 0 0 -0.32 -0.27 0.29 0.29 0 0 0 -0.27 0.32 4.6 4.6 0 0 0 0 0.52 1.28 1.28 0 0 0 0.07 0.28 1.29 1.29 0 0 0 0.69 0.69 5.68 5.68 0 0 0 1.8 0.31c0.66 0.05 1.33 0.1 2 0.11l3 0a5.11 5.11 0 0 0 2 -0.24 1.31 1.31 0 0 0 0.72 -0.77l0.11 -0.69a0.32 0.32 0 0 0 -0.36 -0.36Z" fill="#020202" fill-rule="evenodd" stroke-width="1"></path>
    <path d="M4.24 14.44a3.19 3.19 0 0 0 0.37 -1.81 2.17 2.17 0 0 0 -1.29 -1.77 1.15 1.15 0 0 0 -1.59 0.62 31 31 0 0 0 -1.24 3 0.34 0.34 0 0 0 -0.11 0.29 1.48 1.48 0 0 0 1 1.34 1.78 1.78 0 0 0 1.67 -0.28 3.75 3.75 0 0 0 1.19 -1.39Zm-1 -0.42a2.55 2.55 0 0 1 -0.72 1.1 1.1 1.1 0 0 1 -0.91 0.28 0.78 0.78 0 0 1 -0.57 -0.65c0.18 -0.36 0.36 -0.72 0.55 -1.07 0.32 -0.59 0.66 -1.17 1 -1.75 0.11 -0.18 0.29 -0.08 0.44 0a1.12 1.12 0 0 1 0.44 0.75A3.15 3.15 0 0 1 3.25 14Z" fill="#4C57E6" fill-rule="evenodd" stroke-width="1"></path>
    <path d="M19.77 19.11a3 3 0 0 1 -2.15 1.83 38.17 38.17 0 0 1 -7.29 0.24A20.93 20.93 0 0 1 7 20.83a2.32 2.32 0 0 1 -1.13 -0.44 5.34 5.34 0 0 1 -1.19 -2 12.11 12.11 0 0 1 -0.57 -3c-0.08 -0.28 -0.58 0.11 -0.6 0.5a12 12 0 0 0 0.43 2.71A6.18 6.18 0 0 0 5.17 21a3.3 3.3 0 0 0 1.56 0.78 17.9 17.9 0 0 0 3.54 0.5 33.93 33.93 0 0 0 7.6 -0.37 3.93 3.93 0 0 0 2.7 -2.47 10.23 10.23 0 0 0 0.59 -3.81c-0.09 -0.55 -0.82 -0.76 -0.7 -0.25a9.2 9.2 0 0 1 -0.69 3.73Z" fill="#020202" fill-rule="evenodd" stroke-width="1"></path>
    <path d="M23.71 10A17.25 17.25 0 0 0 24 6.49l-0.06 -1.61c0 -0.34 -0.06 -0.68 -0.11 -1s-0.1 -0.67 -0.17 -1A0.42 0.42 0 0 0 23 2.6a8.42 8.42 0 0 0 -1.83 1.92 12 12 0 0 0 -0.77 1.18 3.35 3.35 0 0 0 -0.08 -0.54 4 4 0 0 0 -1 -1.9A3.76 3.76 0 0 0 18 2.38a7.06 7.06 0 0 0 -2 -0.53 31.7 31.7 0 0 0 -3.69 -0.21A18.7 18.7 0 0 0 8.54 2a11 11 0 0 0 -2.18 0.62A3.61 3.61 0 0 0 5 3.6a4.11 4.11 0 0 0 -0.91 2A8 8 0 0 0 4 7 17.31 17.31 0 0 0 0.86 3.56a0.42 0.42 0 0 0 -0.42 0 0.43 0.43 0 0 0 -0.24 0.34L0.07 5.81 0 7.31a13.13 13.13 0 0 0 0.31 3.38 6.48 6.48 0 0 0 0.53 1.44c0.32 0.23 0.62 -0.22 0.45 -0.68a6.18 6.18 0 0 1 -0.29 -0.92 12.35 12.35 0 0 1 -0.23 -3.2l0.11 -1.47L1 4.77a31.47 31.47 0 0 1 2.77 3.56c0.17 0.24 0.3 0.41 0.36 0.48a0.5 0.5 0 0 0 0.75 0 0.46 0.46 0 0 0 0.12 -0.3 19 19 0 0 1 0.08 -2.76 3 3 0 0 1 0.74 -1.45 2.62 2.62 0 0 1 1 -0.66 10.58 10.58 0 0 1 2 -0.53 18.07 18.07 0 0 1 3.5 -0.33 31.56 31.56 0 0 1 3.5 0.22 7.31 7.31 0 0 1 1.5 0.32 3 3 0 0 1 1.19 0.68 3.08 3.08 0 0 1 0.77 1.39 7.8 7.8 0 0 1 0 2.64 0.49 0.49 0 0 0 0.37 0.54 0.51 0.51 0 0 0 0.59 -0.29A17.19 17.19 0 0 1 21.91 5 8.37 8.37 0 0 1 23 3.71c0 0.09 0 0.18 0.05 0.27 0.05 0.33 0.1 0.65 0.13 1l0.1 1.55a16.38 16.38 0 0 1 -0.19 3.37 6.08 6.08 0 0 1 -0.42 1.31c-0.14 0.46 0.17 0.58 0.46 0.53a5.07 5.07 0 0 0 0.58 -1.74Z" fill="#020202" fill-rule="evenodd" stroke-width="1"></path>
    <path d="M21.91 10.7a1.17 1.17 0 0 0 -1.68 -0.34 2.22 2.22 0 0 0 -1 2 4.11 4.11 0 0 0 0.68 1.72c1.39 2 2.94 1.3 3.1 1.21a1.49 1.49 0 0 0 0.77 -1.5 0.35 0.35 0 0 0 -0.15 -0.26s-0.33 -0.74 -1.72 -2.83Zm0.78 3.85a1.11 1.11 0 0 1 -0.94 -0.12 2.48 2.48 0 0 1 -0.91 -1 3.25 3.25 0 0 1 -0.45 -1.26 1 1 0 0 1 0.31 -0.82c0.12 -0.13 0.28 -0.25 0.42 -0.09 0.44 0.51 0.88 1 1.29 1.55 0.25 0.31 0.49 0.63 0.72 1a0.79 0.79 0 0 1 -0.44 0.74Z" fill="#4C57E6" fill-rule="evenodd" stroke-width="1"></path>
  </g>
</svg>