<svg xmlns="http://www.w3.org/2000/svg" viewBox="0 0 24 24" id="Medical-Specialty-Intestine--Streamline-Freehand">
  <desc>
    Medical Specialty Intestine Streamline Icon: https://streamlinehq.com
  </desc>
  <g>
    <g>
      <path d="M23.52 10.64A8.52 8.52 0 0 0 23.06 9a13.47 13.47 0 0 0 -0.72 -1.48 5.6 5.6 0 0 0 -0.32 -0.7 5.69 5.69 0 0 0 0.64 -2.41 2.65 2.65 0 0 0 -0.78 -1.88A1.75 1.75 0 0 0 20.36 2a4 4 0 0 0 -1.5 0.71 1.64 1.64 0 0 1 -0.71 0.33 8.83 8.83 0 0 0 -0.47 -1.16 1.46 1.46 0 0 0 -0.61 -0.64A2.61 2.61 0 0 0 15.74 1a3 3 0 0 0 -1.24 0.4c-0.07 0 -0.47 0.32 -0.72 0.5l-0.09 -0.15a9.05 9.05 0 0 0 -0.63 -0.94 1.94 1.94 0 0 0 -0.45 -0.42 2.21 2.21 0 0 0 -1.89 -0.28 5.61 5.61 0 0 0 -1.65 1 9.53 9.53 0 0 1 -1 0.76 2 2 0 0 1 -0.2 -0.22 1.06 1.06 0 0 0 -0.41 -0.36A2.31 2.31 0 0 0 6 1.19a2.62 2.62 0 0 0 -1.25 0.64A4.53 4.53 0 0 0 3.89 3a14.39 14.39 0 0 0 -0.72 1.74 0.91 0.91 0 0 0 -0.36 -0.08 2.31 2.31 0 0 0 -0.55 0.34 2.71 2.71 0 0 0 -0.63 0.55 2.74 2.74 0 0 0 -0.8 2.3 4.47 4.47 0 0 0 1.51 2.44 3.19 3.19 0 0 0 -0.39 0.14 3.42 3.42 0 0 0 -1 0.9 3 3 0 0 0 -0.52 1.23A3.38 3.38 0 0 0 1 15.12a3.79 3.79 0 0 0 2.22 1.41 0.28 0.28 0 0 0 0.34 -0.2 0.27 0.27 0 0 0 -0.2 -0.34 3.23 3.23 0 0 1 -1.86 -1.23 2.68 2.68 0 0 1 -0.36 -2.13 2.32 2.32 0 0 1 0.41 -0.93 2.59 2.59 0 0 1 0.79 -0.7 4.3 4.3 0 0 1 0.79 -0.18 0.5 0.5 0 0 0 0.27 -0.24 0.41 0.41 0 0 0 -0.13 -0.58 5 5 0 0 1 -1.51 -1.88 1.92 1.92 0 0 1 0.52 -2 1.54 1.54 0 0 1 1.32 -0.49 0.56 0.56 0 0 0 0.4 -0.36 17 17 0 0 1 0.77 -1.78 3.54 3.54 0 0 1 0.71 -0.92 1.63 1.63 0 0 1 0.77 -0.37 1.42 1.42 0 0 1 0.74 0c0 0.06 0.1 0.14 0.14 0.22a1.82 1.82 0 0 0 0.3 0.42 0.65 0.65 0 0 0 0.75 0.16c0.82 -0.33 1.64 -1.23 2.5 -1.7a1.26 1.26 0 0 1 1.36 0c0.35 0.22 0.62 0.89 0.91 1.27a1.48 1.48 0 0 0 0.52 0.47 0.69 0.69 0 0 0 0.6 0c0.27 -0.13 0.84 -0.6 0.95 -0.66a2 2 0 0 1 0.82 -0.38 0.94 0.94 0 0 1 1 0.45c0.17 0.35 0.3 0.76 0.39 1a0.8 0.8 0 0 0 0.44 0.51 1.91 1.91 0 0 0 1.5 -0.29 4.33 4.33 0 0 1 1.34 -0.76 0.83 0.83 0 0 1 0.7 0.31 1.68 1.68 0 0 1 0.52 1.22 5.17 5.17 0 0 1 -0.62 2.26 0.58 0.58 0 0 0 0 0.47c0.1 0.21 0.42 0.69 0.47 0.78a11 11 0 0 1 0.7 1.37 8.61 8.61 0 0 1 0.45 1.44 2.29 2.29 0 0 1 -0.16 1.56 8.13 8.13 0 0 1 -1.1 1.4 0.56 0.56 0 0 0 0 0.44c0.07 0.23 0.26 0.8 0.27 0.83a4.43 4.43 0 0 1 0.17 1.18 1.76 1.76 0 0 1 -0.17 0.7 3.07 3.07 0 0 1 -0.59 0.82 3.69 3.69 0 0 1 -0.82 0.62 1.94 1.94 0 0 0 -0.22 0.06 0.28 0.28 0 0 0 -0.13 0.38 0.73 0.73 0 0 1 -0.23 0.95 3.06 3.06 0 0 1 -1.89 0.36 2 2 0 0 1 -0.58 -0.16 3.15 3.15 0 0 1 -0.57 -0.31l-0.17 -0.15a2 2 0 0 0 -0.12 -0.28 0.64 0.64 0 0 0 -0.26 -0.19 0.57 0.57 0 0 0 -0.51 0.07 7.4 7.4 0 0 0 -0.87 0.9 0.7 0.7 0 0 1 -0.26 0.19 1 1 0 0 1 -0.55 0 2.64 2.64 0 0 0 -0.69 0 1.06 1.06 0 0 0 -0.76 0.6l-0.14 0.41 -0.07 0.55 0 0.89c0 0.21 0.07 0.44 0.12 0.66a3.1 3.1 0 0 0 0.15 0.46 0.31 0.31 0 0 0 0.42 0.3 0.32 0.32 0 0 0 0.19 -0.41 2.21 2.21 0 0 1 -0.08 -0.37 4.2 4.2 0 0 1 -0.06 -0.61l0 -0.72 0.1 -0.42 0.1 -0.22a0.2 0.2 0 0 1 0.15 -0.09 3.09 3.09 0 0 1 0.71 0.08 1.63 1.63 0 0 0 0.79 -0.09 1.85 1.85 0 0 0 0.56 -0.38 2.78 2.78 0 0 0 0.36 -0.41 1.57 1.57 0 0 0 0.26 0.19 3.42 3.42 0 0 0 0.79 0.39 2.74 2.74 0 0 0 0.9 0.15 3.91 3.91 0 0 0 2.39 -0.78 1.28 1.28 0 0 0 0.43 -1.38 4.69 4.69 0 0 0 1 -0.71 3.85 3.85 0 0 0 0.73 -1 2.45 2.45 0 0 0 0.25 -1 5.09 5.09 0 0 0 -0.16 -1.38s-0.16 -0.49 -0.24 -0.77a5.48 5.48 0 0 0 1.27 -1.76 3.15 3.15 0 0 0 0.08 -1.67Z" fill="#020202" stroke-width="1"></path>
      <path d="M11.29 18.45a2.18 2.18 0 0 1 0.14 -0.48 0.6 0.6 0 0 1 0.19 -0.27l1.31 -0.09a2.18 2.18 0 0 0 0.64 -0.25c0.41 -0.28 0.57 -0.83 0.81 -0.9s0.53 0.12 0.86 0.08a2.88 2.88 0 0 0 1.66 -0.79 5.55 5.55 0 0 0 0.76 -1.4 0.89 0.89 0 0 0 0 -0.33 6.21 6.21 0 0 1 -0.12 -0.76 10.61 10.61 0 0 1 0.57 -1.7 2.09 2.09 0 0 0 0.08 -0.55 0.73 0.73 0 0 0 -0.2 -0.38c-0.18 -0.19 -0.65 -0.59 -0.7 -0.83a3 3 0 0 1 -0.07 -0.51 4.51 4.51 0 0 1 0 -0.52 2.37 2.37 0 0 1 0.09 -0.36 0.59 0.59 0 0 0 -0.06 -0.41 0.47 0.47 0 0 0 -0.39 -0.26 0.61 0.61 0 0 0 -0.33 0.09c-0.16 0.08 -0.44 0.38 -0.55 0.44a1.2 1.2 0 0 1 -0.47 0.16 1.27 1.27 0 0 1 -0.51 -0.01 2.26 2.26 0 0 1 -0.49 -0.19 6.76 6.76 0 0 1 -0.74 -0.49 4.86 4.86 0 0 0 -0.54 -0.38 0.55 0.55 0 0 0 -0.53 0 6 6 0 0 1 -1.1 0.65c-0.25 0.07 -0.49 0 -0.87 -0.29 -0.21 -0.15 -0.58 -0.71 -0.87 -1a1.23 1.23 0 0 0 -0.56 -0.37 0.55 0.55 0 0 0 -0.56 0.19 0.64 0.64 0 0 0 -0.16 0.46 1.23 1.23 0 0 1 -0.4 0.87 1 1 0 0 1 -0.49 0.32 7.85 7.85 0 0 1 -1.23 0.1 0.5 0.5 0 0 0 -0.38 0.2 0.48 0.48 0 0 0 0.11 0.74s0.2 0.08 0.27 0.12l0.27 0.22a0.8 0.8 0 0 1 0.17 0.4 1.32 1.32 0 0 1 -0.05 0.52 1.49 1.49 0 0 1 -0.26 0.52c-0.39 0.52 -0.92 0.87 -1.14 1.49a0.45 0.45 0 0 0 0 0.41c0.06 0.08 0.21 0.28 0.22 0.31a2 2 0 0 1 0.2 0.42A1.84 1.84 0 0 1 6 14a2 2 0 0 1 -0.55 1.64 2.62 2.62 0 0 1 -1.68 0.71 0.29 0.29 0 0 0 -0.27 0.3 0.28 0.28 0 0 0 0.3 0.27 3.25 3.25 0 0 0 2.1 -0.81A2.67 2.67 0 0 0 6.75 14a2.44 2.44 0 0 0 -0.09 -0.62 3.57 3.57 0 0 0 -0.23 -0.57 2.24 2.24 0 0 0 -0.11 -0.26 13.15 13.15 0 0 1 1 -1 2.74 2.74 0 0 0 0.45 -0.81 2.37 2.37 0 0 0 0.11 -0.91 1.67 1.67 0 0 0 -0.16 -0.59L8 9.17a2.12 2.12 0 0 0 1 -0.6 2.84 2.84 0 0 0 0.37 -0.47 2.68 2.68 0 0 0 0.18 -0.33 5.61 5.61 0 0 0 0.6 0.87 2.27 2.27 0 0 0 1.38 0.5A3 3 0 0 0 13 8.47l0.24 0.1a7.34 7.34 0 0 0 0.88 0.53 3.46 3.46 0 0 0 0.7 0.26 2.57 2.57 0 0 0 0.87 0 2 2 0 0 0 0.73 -0.27l0 0.23a4.22 4.22 0 0 0 0.1 0.62 3.94 3.94 0 0 0 0.94 1.17 1.85 1.85 0 0 1 0 0.23 10.1 10.1 0 0 0 -0.52 1.84l0.14 0.86a1.55 1.55 0 0 1 -0.58 1.14 2.32 2.32 0 0 1 -1.3 0.46c-0.18 0 -0.47 -0.11 -0.69 -0.13a1.1 1.1 0 0 0 -0.38 0 0.85 0.85 0 0 0 -0.31 0.21c-0.12 0.12 -0.25 0.34 -0.33 0.41a1.52 1.52 0 0 1 -0.34 0.22 1.62 1.62 0 0 1 -0.42 0.15c-0.34 0.09 -0.82 0 -1.19 0.05a1.28 1.28 0 0 0 -0.49 0.21 1.67 1.67 0 0 0 -0.47 0.58 3 3 0 0 0 -0.25 0.85 10.36 10.36 0 0 0 -0.1 1.25c0 0.61 0 1.23 0.05 1.82a6.37 6.37 0 0 0 0.18 1.31 3.54 3.54 0 0 0 0.6 1.22 0.32 0.32 0 0 0 0.53 -0.36 3 3 0 0 1 -0.42 -1 5.28 5.28 0 0 1 -0.17 -1.12c0 -0.56 0 -1.16 0.09 -1.74a10.06 10.06 0 0 1 0.2 -1.12Z" fill="#020202" stroke-width="1"></path>
    </g>
    <path d="M16.55 5.26a8.08 8.08 0 0 0 -0.16 -0.92 1 1 0 0 0 -0.39 -0.57 1.18 1.18 0 0 0 -0.75 0 1 1 0 0 0 -0.63 0.43 0.17 0.17 0 0 0 0.09 0.23 0.18 0.18 0 0 0 0.24 -0.09c0 -0.09 0.22 -0.13 0.38 -0.15a0.57 0.57 0 0 1 0.42 0c0.1 0.06 0.12 0.23 0.16 0.4 0.07 0.34 0.1 0.73 0.16 0.94a0.51 0.51 0 0 0 0.26 0.37 0.44 0.44 0 0 0 0.36 0 2.26 2.26 0 0 0 0.46 -0.28c0.09 -0.06 0.18 -0.15 0.25 -0.16a1 1 0 0 1 1 0.3 1.92 1.92 0 0 1 0.37 1.15 0.2 0.2 0 0 0 0.2 0.2 0.2 0.2 0 0 0 0.21 -0.2 2.42 2.42 0 0 0 -0.35 -1.47 1.57 1.57 0 0 0 -1.48 -0.64 1.18 1.18 0 0 0 -0.4 0.15c-0.16 0.05 -0.3 0.23 -0.4 0.31Z" fill="#4C57E6" fill-rule="evenodd" stroke-width="1"></path>
  </g>
</svg>