<svg xmlns="http://www.w3.org/2000/svg" viewBox="0 0 24 24" id="Medical-App-Chat--Streamline-Freehand">
  <desc>
    Medical App Chat Streamline Icon: https://streamlinehq.com
  </desc>
  <g>
    <path d="M23.65 4.13a2.68 2.68 0 0 0 -0.57 -1.35 2.11 2.11 0 0 0 -0.88 -0.45 9.4 9.4 0 0 0 -1.8 -0.11c-1.38 -0.06 -7.17 0 -11.48 0.24 -2 0.1 -3.65 0.22 -4.43 0.36s-0.81 0.31 -1 1.07a45.23 45.23 0 0 0 -0.47 6.3c0 2.13 0.21 4.08 0.73 4.8a2 2 0 0 0 1.08 0.73 9.26 9.26 0 0 0 2.5 0.11c1.75 0 3.7 -0.35 5.56 -0.32a8.77 8.77 0 0 1 1.71 0.16 3.74 3.74 0 0 0 0.13 0.76 10.14 10.14 0 0 0 0.09 2.49 1.21 1.21 0 0 0 0.74 0.81 1.29 1.29 0 0 0 1.05 -0.16 3.94 3.94 0 0 0 1.16 -1.13 6.66 6.66 0 0 0 1.1 -2.5l1.34 -0.06a4 4 0 0 0 1.83 -0.12 3 3 0 0 0 1 -0.8 3.15 3.15 0 0 0 0.51 -1.38A28.53 28.53 0 0 0 24 8.86a24.89 24.89 0 0 0 -0.35 -4.73Zm-0.82 4.72a28.34 28.34 0 0 1 -0.36 4.51 2.35 2.35 0 0 1 -0.23 0.8 1.54 1.54 0 0 1 -0.76 0.54 5.67 5.67 0 0 1 -1.15 0l-1.94 0.08a0.6 0.6 0 0 0 -0.59 0.55 4.91 4.91 0 0 1 -0.7 2.06 4.34 4.34 0 0 1 -0.8 1 2.22 2.22 0 0 1 -0.32 0.15s0 -0.05 0 -0.07a2.87 2.87 0 0 1 -0.06 -0.61l0 -1.5 0 -1a0.71 0.71 0 0 0 -0.44 -0.62 10.33 10.33 0 0 0 -2.51 -0.28c-1.87 0 -3.82 0.38 -5.58 0.43a11.39 11.39 0 0 1 -1.95 0 1.25 1.25 0 0 1 -0.87 -0.42c-0.48 -0.64 -0.61 -2.37 -0.64 -4.26A43.59 43.59 0 0 1 4.26 4c0.14 -0.88 -0.57 -0.74 6.32 -0.86 4 -0.07 8.56 0 9.76 0.06a12.13 12.13 0 0 1 1.41 0.09 1.16 1.16 0 0 1 0.6 0.24 1.9 1.9 0 0 1 0.25 0.8 24.75 24.75 0 0 1 0.23 4.52Z" fill="#020202" fill-rule="evenodd" stroke-width="1"></path>
    <path d="M13.58 16.82a17.3 17.3 0 0 0 -3 -0.18 9.6 9.6 0 0 0 -2 0.25 0.57 0.57 0 0 0 -0.36 0.51l0 1 0 1.49a2.91 2.91 0 0 1 -0.08 0.62c0 0.08 0 0.17 -0.07 0.19s-0.12 -0.07 -0.21 -0.13a3.78 3.78 0 0 1 -0.93 -1.15 5.14 5.14 0 0 1 -0.7 -2.07 0.59 0.59 0 0 0 -0.58 -0.55l-1.94 -0.09a4.51 4.51 0 0 1 -1.15 0 1.45 1.45 0 0 1 -0.76 -0.53 2.57 2.57 0 0 1 -0.31 -1A33.42 33.42 0 0 1 0.91 10a17.4 17.4 0 0 1 0.16 -3.52 1.5 1.5 0 0 1 0.22 -0.65 1.38 1.38 0 0 1 0.39 -0.27 0.93 0.93 0 0 1 0.52 0c0.06 0 0.22 -0.07 0.27 -0.24a0.31 0.31 0 0 0 -0.23 -0.38h-0.11a1.39 1.39 0 0 0 -0.67 0.07 2 2 0 0 0 -0.63 0.38C0.27 5.8 0 8.45 0 11.11a29.09 29.09 0 0 0 0.38 4.6A3.15 3.15 0 0 0 0.9 17a2.94 2.94 0 0 0 1 0.8 4 4 0 0 0 1.86 0.2l1.34 0a6.8 6.8 0 0 0 1.12 2.5 4.11 4.11 0 0 0 1.17 1.11 1.24 1.24 0 0 0 1 0.14 1.17 1.17 0 0 0 0.69 -0.75 10.47 10.47 0 0 0 0.06 -2.48l0 -0.83a10.5 10.5 0 0 1 2 -0.24 17.4 17.4 0 0 1 2.36 0.09 0.35 0.35 0 0 0 0.4 -0.3 0.34 0.34 0 0 0 -0.32 -0.42Z" fill="#4C57E6" fill-rule="evenodd" stroke-width="1"></path>
    <path d="M17 7.33a0.77 0.77 0 0 0 -0.42 -0.33 1.49 1.49 0 0 0 -0.44 -0.09l-0.66 0h-0.63l0 -0.76a6.24 6.24 0 0 0 0 -0.74 1 1 0 0 0 -0.11 -0.34 0.58 0.58 0 0 0 -0.34 -0.24 2.77 2.77 0 0 0 -0.56 0l-0.66 0 -0.69 0a2.21 2.21 0 0 0 -0.73 0.15 0.54 0.54 0 0 0 -0.28 0.28 1.18 1.18 0 0 0 -0.08 0.39l0 0.65V7l-0.9 0 -0.61 0a0.92 0.92 0 0 0 -0.44 0.12 0.55 0.55 0 0 0 -0.24 0.31 2.74 2.74 0 0 0 0 0.55c0 0.33 -0.05 0.5 -0.07 0.68a5.9 5.9 0 0 0 0 0.71 2.25 2.25 0 0 0 0.12 0.76 0.65 0.65 0 0 0 0.33 0.34 1.83 1.83 0 0 0 0.52 0.1l0.85 0h0.23l0 0.71a5.87 5.87 0 0 0 0 0.75 0.78 0.78 0 0 0 0.12 0.38 0.7 0.7 0 0 0 0.39 0.3 2.52 2.52 0 0 0 0.59 0.05l0.67 0.07 0.7 0a2.47 2.47 0 0 0 0.82 -0.15 0.78 0.78 0 0 0 0.39 -0.39 1.63 1.63 0 0 0 0.11 -0.46l0 -0.67v-0.42h0.69a4.71 4.71 0 0 0 0.76 0 0.9 0.9 0 0 0 0.4 -0.14 0.66 0.66 0 0 0 0.31 -0.41 2.64 2.64 0 0 0 0.05 -0.6l0 -0.69a5.1 5.1 0 0 0 0 -0.72 2.46 2.46 0 0 0 -0.19 -0.85Zm-1 1.49c0 0.16 0 0.32 -0.05 0.61 -0.13 0 -0.27 0.06 -0.34 0.06h-1.28a0.59 0.59 0 0 0 -0.6 0.59l0 1v0.47a1.2 1.2 0 0 1 -0.19 0.07h-1.27c0 -0.14 -0.06 -0.29 -0.06 -0.36l0 -1.18a0.5 0.5 0 0 0 -0.49 -0.51H11l-1 0 0 -0.31 0 -0.62L10 8a2.23 2.23 0 0 0 0 -0.26h0.51c1.83 0 1.5 0.16 1.58 -1.44l0 -0.65c0.11 0 0.33 -0.08 0.4 -0.08a5.76 5.76 0 0 1 0.6 0l0.63 0.07 0.12 0a2.62 2.62 0 0 0 0 0.52l0 1.26a0.52 0.52 0 0 0 0.49 0.51l1.09 0 0.47 0c0 0.09 0.07 0.2 0.07 0.24a4.34 4.34 0 0 1 0.04 0.65Z" fill="#020202" fill-rule="evenodd" stroke-width="1"></path>
  </g>
</svg>