<svg xmlns="http://www.w3.org/2000/svg" viewBox="0 0 24 24" id="Medical-Instrument-Syringe--Streamline-Freehand">
  <desc>
    Medical Instrument Syringe Streamline Icon: https://streamlinehq.com
  </desc>
  <g>
    <path d="M11.43 8.43c0.29 0.27 0.61 0.51 0.92 0.75 0.47 0.37 1 0.69 1.41 1.1a0.4 0.4 0 0 0 0.57 0.05 0.41 0.41 0 0 0 0.06 -0.58 11 11 0 0 0 -1.12 -1.5 6.16 6.16 0 0 0 -0.58 -0.56 5 5 0 0 0 -0.63 -0.48c-0.28 -0.17 -0.57 -0.3 -0.86 -0.44 -0.66 -0.27 -1 0.3 -0.71 0.7 0 0 0.6 0.65 0.94 0.96Z" fill="#4C57E6" fill-rule="evenodd" stroke-width="1"></path>
    <path d="M23.21 13.09Q21.7 11.25 20 9.53c-0.43 -0.44 -0.88 -0.84 -1.32 -1.26 0.17 -0.12 0.34 -0.22 0.49 -0.35s0.24 -0.2 0.35 -0.31 0.2 -0.23 0.29 -0.35 0.33 -0.54 0.5 -0.82l0.79 0.68a0.42 0.42 0 0 0 0.58 0 0.41 0.41 0 0 0 -0.07 -0.58l-1.38 -1.82a15.88 15.88 0 0 0 -1.43 -1.41 29.11 29.11 0 0 0 -2.46 -1.7 0.36 0.36 0 1 0 -0.47 0.55c0.28 0.3 0.56 0.59 0.83 0.89a5.85 5.85 0 0 0 -0.63 0.38 4 4 0 0 0 -0.37 0.33 3.68 3.68 0 0 0 -0.3 0.39 8.38 8.38 0 0 0 -0.46 0.75c-0.58 -0.49 -1.15 -1 -1.76 -1.45a17 17 0 0 0 -2.52 -1.59 0.36 0.36 0 1 0 -0.36 0.62A18 18 0 0 1 12.2 4a0.39 0.39 0 0 0 -0.23 0.09 62.12 62.12 0 0 0 -6.12 6.06 13.49 13.49 0 0 0 -2.72 5.27 5.55 5.55 0 0 0 1 4.21c-0.37 0.27 -0.74 0.53 -1.09 0.84s-0.41 0.39 -0.61 0.59 -0.36 0.43 -0.53 0.65c-0.41 0.53 -0.76 1.09 -1.13 1.65a0.41 0.41 0 1 0 0.63 0.52c0.48 -0.44 1 -0.85 1.45 -1.3a6.55 6.55 0 0 0 0.6 -0.58 6.62 6.62 0 0 0 0.55 -0.66c0.28 -0.34 0.51 -0.7 0.76 -1.06a4.25 4.25 0 0 0 3.49 1.31A6.67 6.67 0 0 0 11 20.54a18.38 18.38 0 0 0 3.17 -2.66q0.91 -0.89 1.8 -1.8c1.37 -1.42 2.7 -2.87 4.06 -4.29a0.4 0.4 0 0 0 0 -0.57 0.41 0.41 0 0 0 -0.59 0c-1.2 1.18 -2.39 2.38 -3.6 3.55 -0.79 0.78 -1.61 1.54 -2.43 2.3a20.4 20.4 0 0 1 -3.06 2.4 5.67 5.67 0 0 1 -2.25 0.79 3.13 3.13 0 0 1 -2.79 -1.4 4.09 4.09 0 0 1 -0.85 -3.18 8.88 8.88 0 0 1 2.27 -4.88 66.84 66.84 0 0 1 5.75 -6.22 0.36 0.36 0 0 0 0.08 -0.33c1.06 1 2.07 2 3.08 3 0.64 0.59 1.29 1.19 2 1.78 1 0.88 2 1.73 3 2.63 0.69 0.63 1.37 1.29 2 2a0.41 0.41 0 0 0 0.58 0 0.4 0.4 0 0 0 -0.01 -0.57Zm-5 -6.09c-0.1 0.17 -0.2 0.34 -0.29 0.51l-1.35 -1.3c-0.29 -0.24 -0.6 -0.48 -0.89 -0.73 0.22 -0.15 0.44 -0.3 0.66 -0.47a2.67 2.67 0 0 0 0.36 -0.31 2.24 2.24 0 0 0 0.3 -0.35 4 4 0 0 0 0.34 -0.6c0.18 0.19 0.35 0.4 0.54 0.58 0.47 0.45 1 0.85 1.46 1.28l0.34 0.29a4.19 4.19 0 0 0 -0.81 0.43 1.88 1.88 0 0 0 -0.36 0.33 2.76 2.76 0 0 0 -0.3 0.34Z" fill="#020202" fill-rule="evenodd" stroke-width="1"></path>
    <path d="M8.27 10.73a4.12 4.12 0 0 0 0.4 0.33l0.44 0.27c0.36 0.2 0.72 0.36 1.1 0.58a0.39 0.39 0 0 0 0.57 -0.05 0.4 0.4 0 0 0 0 -0.58 11 11 0 0 0 -0.83 -1 3.62 3.62 0 0 0 -0.42 -0.36A2.34 2.34 0 0 0 9 9.64a4.19 4.19 0 0 0 -0.59 -0.22c-0.41 -0.23 -0.91 0.43 -0.66 0.78a6.32 6.32 0 0 0 0.52 0.53Z" fill="#4C57E6" fill-rule="evenodd" stroke-width="1"></path>
    <path d="M6.42 13.92c0.29 0.23 0.6 0.44 0.9 0.65 0.46 0.33 0.93 0.62 1.37 1A0.41 0.41 0 1 0 9.3 15a9.45 9.45 0 0 0 -1.1 -1.4 5.57 5.57 0 0 0 -0.58 -0.51 4.34 4.34 0 0 0 -0.62 -0.41 6.58 6.58 0 0 0 -0.83 -0.34 0.53 0.53 0 0 0 -0.51 0.9c0.23 0.23 0.49 0.46 0.76 0.68Z" fill="#4C57E6" fill-rule="evenodd" stroke-width="1"></path>
    <path d="M16.64 1.5a2 2 0 0 1 1.77 -0.29 3.89 3.89 0 0 1 1.24 0.69 5.36 5.36 0 0 1 1.09 1 3.1 3.1 0 0 1 0.65 1.13 1 1 0 0 1 0 0.69 0.41 0.41 0 1 0 0.68 0.46 1.81 1.81 0 0 0 0.32 -1.3 4.16 4.16 0 0 0 -0.59 -1.68 4.74 4.74 0 0 0 -0.79 -1 4.31 4.31 0 0 0 -1.67 -1 2.83 2.83 0 0 0 -3.19 0.8 0.37 0.37 0 0 0 0 0.51 0.36 0.36 0 0 0 0.49 -0.01Z" fill="#020202" fill-rule="evenodd" stroke-width="1"></path>
  </g>
</svg>