<svg xmlns="http://www.w3.org/2000/svg" viewBox="0 0 24 24" id="Medical-Personnel-Doctor-Search--Streamline-Freehand">
  <desc>
    Medical Personnel Doctor Search Streamline Icon: https://streamlinehq.com
  </desc>
  <g>
    <path d="M14.94 13.79a2.94 2.94 0 0 0 -0.16 -0.65 1.53 1.53 0 0 0 -0.28 -0.46 2 2 0 0 0 -0.35 -0.3c-0.16 -0.1 -0.32 -0.18 -0.48 -0.27a4 4 0 0 0 0.1 -0.71 2.08 2.08 0 0 0 -0.1 -0.7 2.22 2.22 0 0 0 -0.29 -0.55l0.18 -0.08a5.45 5.45 0 0 1 1.24 0.93 6.1 6.1 0 0 1 0.54 0.59 5.09 5.09 0 0 1 0.48 0.64 4.92 4.92 0 0 1 0.74 1.77 0.33 0.33 0 0 0 0.35 0.28 0.32 0.32 0 0 0 0.28 -0.35 5.45 5.45 0 0 0 -0.5 -2.19 4.8 4.8 0 0 0 -0.52 -0.83 4.15 4.15 0 0 0 -0.71 -0.68 4.36 4.36 0 0 0 -1.21 -0.63 3.19 3.19 0 0 0 1 -2.35 4.26 4.26 0 0 0 -1 -2.69 3.9 3.9 0 0 0 -1.46 -1.07A3.7 3.7 0 0 0 11 3.22a3.58 3.58 0 0 0 -1.47 0.43 3.3 3.3 0 0 0 -1.18 1 3.84 3.84 0 0 0 -0.63 2.86 3.72 3.72 0 0 0 1 2A4.12 4.12 0 0 0 7 10.4a3.3 3.3 0 0 0 -0.58 0.6 3.85 3.85 0 0 0 -0.41 0.71 5.33 5.33 0 0 0 -0.37 1.83 0.27 0.27 0 0 0 0.54 0.1 7 7 0 0 1 0.82 -1.5 6.61 6.61 0 0 1 0.62 -0.85 4 4 0 0 1 1.37 -1.14c0.13 -0.05 -0.1 0.31 -0.21 0.66a2.1 2.1 0 0 0 -0.08 0.71 3 3 0 0 0 0.06 0.52 2.21 2.21 0 0 0 -0.27 0.12 1.47 1.47 0 0 0 -0.78 1.4c0.06 0.42 0.37 0.6 0.65 0.83a1.6 1.6 0 0 0 2.11 -0.29 1.42 1.42 0 0 0 -0.34 -2 1.54 1.54 0 0 0 -0.56 -0.1 3.41 3.41 0 0 0 0.1 -0.46 5.62 5.62 0 0 0 0.09 -0.57 5.11 5.11 0 0 1 0.08 -0.72 3.11 3.11 0 0 0 0.61 0.1 6.5 6.5 0 0 0 2.14 0.06c0 0.15 0 0.3 0.05 0.47s0 0.22 0 0.34c0.09 0.39 0.21 0.76 0.27 1.13a3.62 3.62 0 0 0 -0.81 0.9 2.21 2.21 0 0 0 -0.33 1 3 3 0 0 0 0.25 1.23 0.27 0.27 0 0 0 0.32 0.22 0.28 0.28 0 0 0 0.23 -0.32 3.48 3.48 0 0 1 0.2 -1c0 -0.18 0.11 -0.36 0.16 -0.54s0.07 -0.25 0.11 -0.37a4.41 4.41 0 0 1 0.33 -0.74l0.21 0.21a0.94 0.94 0 0 1 0.12 0.22l0.15 0.77 0.34 1.44a0.27 0.27 0 0 0 0.27 0.29 0.28 0.28 0 0 0 0.29 -0.26 5.68 5.68 0 0 0 0.15 -1 4.87 4.87 0 0 0 0.04 -0.61Zm-5.35 0a0.83 0.83 0 0 1 -0.39 0.21 1.16 1.16 0 0 1 -0.66 -0.2c-0.07 -0.05 -0.06 -0.2 -0.06 -0.3s0.24 -0.36 0.44 -0.46a0.66 0.66 0 0 1 0.61 0 0.47 0.47 0 0 1 0.06 0.76Zm0.91 -4.13a1.69 1.69 0 0 1 -0.81 -0.29 2.8 2.8 0 0 1 -1.08 -2 3 3 0 0 1 0.58 -2.13 2.56 2.56 0 0 1 0.84 -0.7 3.12 3.12 0 0 1 1.08 -0.31 2.79 2.79 0 0 1 1.31 0.21 2.9 2.9 0 0 1 1.1 0.76 3.3 3.3 0 0 1 0.84 2c0.01 0.28 0.4 2.95 -3.86 2.47Z" fill="#020202" stroke-width="1"></path>
    <path d="M22.15 21.22a3.74 3.74 0 0 0 -0.85 -1.78 19.55 19.55 0 0 0 -1.93 -1.84l-1.44 -1.52a6.05 6.05 0 0 0 0.78 -0.74 9 9 0 0 0 0.69 -0.93 8.39 8.39 0 0 0 1.27 -5.23 11.19 11.19 0 0 0 -1.8 -5.07A8.93 8.93 0 0 0 14.4 0.49a8.36 8.36 0 0 0 -5.77 0.05 12.71 12.71 0 0 0 -2.08 1 9.81 9.81 0 0 0 -1.87 1.4 8.59 8.59 0 0 0 -1.14 1.31 9.4 9.4 0 0 0 -0.87 1.51 10.63 10.63 0 0 0 -0.54 1.46 9.11 9.11 0 0 0 -0.28 1.56 8 8 0 0 0 2.51 6.4 11.36 11.36 0 0 0 6.08 3.12 5.72 5.72 0 0 0 1.8 0 13.4 13.4 0 0 0 2.51 -0.73 0.27 0.27 0 0 0 0.17 -0.3c0.47 1.08 0.8 2.23 1.26 3.33a10.11 10.11 0 0 0 0.74 1.47 6 6 0 0 0 1.13 1.32 2.85 2.85 0 0 0 1.15 0.61 2.47 2.47 0 0 0 2.17 -0.62 2.4 2.4 0 0 0 0.78 -2.16ZM14.56 17a12.22 12.22 0 0 1 -2.41 0.64 4.77 4.77 0 0 1 -1.6 0 10.67 10.67 0 0 1 -5.61 -3.05 7.11 7.11 0 0 1 -2.11 -5.72 6.41 6.41 0 0 1 0.28 -1.37 8.63 8.63 0 0 1 0.5 -1.31 8.52 8.52 0 0 1 0.78 -1.34 8.82 8.82 0 0 1 1 -1.17 9.16 9.16 0 0 1 1.69 -1.24A12.43 12.43 0 0 1 9 1.53a7.4 7.4 0 0 1 5.06 -0.07 8 8 0 0 1 4 3.16 10.09 10.09 0 0 1 1.76 4.64A7.54 7.54 0 0 1 18.79 14a7.93 7.93 0 0 1 -0.61 0.87 5 5 0 0 1 -0.74 0.72 4.48 4.48 0 0 1 -0.86 0.52 11.2 11.2 0 0 1 -1.46 0.55 0.36 0.36 0 0 0 -0.14 0.1 0.27 0.27 0 0 0 -0.11 0.35 0.28 0.28 0 0 0 -0.31 -0.11Zm6.1 5.52a1.44 1.44 0 0 1 -1.24 0.37 1.79 1.79 0 0 1 -0.73 -0.36 4.57 4.57 0 0 1 -1 -1 9.41 9.41 0 0 1 -0.78 -1.29c-0.5 -1 -0.89 -2 -1.39 -3a12.39 12.39 0 0 0 1.33 -0.48l0.54 -0.28 1.43 1.69A19.38 19.38 0 0 1 20.57 20a2.74 2.74 0 0 1 0.57 1.36 1.38 1.38 0 0 1 -0.48 1.19Z" fill="#4C57E6" stroke-width="1"></path>
    <path d="M13 7.6a0.33 0.33 0 0 0 -0.2 -0.4 0.33 0.33 0 0 0 -0.4 0.2 1.43 1.43 0 0 1 -1.32 0.6 1 1 0 0 1 -0.41 -0.08c-0.1 0 -0.22 -0.08 -0.25 -0.19a0.28 0.28 0 0 0 -0.3 -0.25 0.29 0.29 0 0 0 -0.26 0.3 1 1 0 0 0 0.23 0.63 2 2 0 0 0 0.71 0.59 1.78 1.78 0 0 0 0.75 0.09 1.56 1.56 0 0 0 0.71 -0.26A1.8 1.8 0 0 0 13 7.6Z" fill="#020202" stroke-width="1"></path>
  </g>
</svg>