<svg xmlns="http://www.w3.org/2000/svg" viewBox="0 0 24 24" id="Medical-Room-Clock-Woman--Streamline-Freehand">
  <desc>
    Medical Room Clock Woman Streamline Icon: https://streamlinehq.com
  </desc>
  <g>
    <path d="M7.63 7.83A4 4 0 0 0 12 4.68 3.66 3.66 0 0 0 9 0.05a4.78 4.78 0 0 0 -3.89 1 4.28 4.28 0 0 0 -1.23 3.8 3.07 3.07 0 0 0 0.92 1.83 3 3 0 0 0 1.79 0.87 0.34 0.34 0 0 0 0.09 -0.68 2.17 2.17 0 0 1 -1.32 -0.72 2.27 2.27 0 0 1 -0.58 -1.37 3.4 3.4 0 0 1 1.07 -2.9 3.7 3.7 0 0 1 3 -0.68A2.63 2.63 0 0 1 11 4.49a3.3 3.3 0 0 1 -3.4 2.73 0.31 0.31 0 0 0 -0.3 0.31 0.3 0.3 0 0 0 0.33 0.3Z" fill="#4C57E6" fill-rule="evenodd" stroke-width="1"></path>
    <path d="M17.75 3.81a3.4 3.4 0 0 0 -3.43 3 3.16 3.16 0 0 0 3.06 3.6 4.29 4.29 0 0 0 3.22 -1.16 3.49 3.49 0 0 0 0.7 -3.36 2.69 2.69 0 0 0 -2.63 -2 0.35 0.35 0 0 0 0 0.69 2 2 0 0 1 1.16 0.45 1.79 1.79 0 0 1 0.62 1 2.57 2.57 0 0 1 -0.62 2.41 3.3 3.3 0 0 1 -2.45 0.79 2.14 2.14 0 0 1 -2.11 -2.37 2.69 2.69 0 0 1 2.55 -2.51 0.32 0.32 0 0 0 0.27 -0.34 0.3 0.3 0 0 0 -0.34 -0.2Z" fill="#020202" fill-rule="evenodd" stroke-width="1"></path>
    <path d="M0.79 11.85c-0.18 0 -0.13 0 0 0Zm0 0 0 0.06a2.11 2.11 0 0 0 0 0.23c0.09 0.56 0.28 1.76 0.55 2.95a14 14 0 0 0 0.7 2.3 2.32 2.32 0 0 0 0.75 1 2.81 2.81 0 0 0 1 0.43c0.72 0.15 1.54 0.11 2.2 0.19a7.37 7.37 0 0 0 1.09 0c0.93 0 2.26 -0.15 4 -0.25a0.35 0.35 0 0 0 0.34 -0.35 0.33 0.33 0 0 0 -0.35 -0.33l-3.53 0a9.52 9.52 0 0 1 -1.3 -0.08c-0.56 -0.09 -1.22 -0.11 -1.84 -0.21a2.42 2.42 0 0 1 -0.94 -0.3 3.13 3.13 0 0 1 -0.67 -1.25 35.07 35.07 0 0 1 -1.26 -3.9c-0.07 -0.28 -0.12 -0.48 -0.14 -0.58 -0.11 -0.43 -0.62 0 -0.62 0a0.64 0.64 0 0 0 0.02 0.09Z" fill="#020202" fill-rule="evenodd" stroke-width="1"></path>
    <path d="M5.22 14.3c0 0.06 0 0.09 0.08 0.07Zm0 0c0 -0.1 -0.06 -0.25 -0.11 -0.37 -0.26 -0.72 -0.6 -1.89 -1 -2.83a4.84 4.84 0 0 0 -0.83 -1.62 1.88 1.88 0 0 0 -1.84 -0.6c-0.44 0.18 -0.86 0.69 -0.82 1.69a0.34 0.34 0 0 0 0.34 0.34 0.35 0.35 0 0 0 0.35 -0.34q0 -0.81 0.42 -0.93c0.29 -0.08 0.62 0.14 0.93 0.49a8.06 8.06 0 0 1 0.7 2.07c0.26 0.89 0.54 1.81 0.76 2.35a1.45 1.45 0 0 0 0.54 0.74 3.91 3.91 0 0 0 1.34 0.19c1 0 2.57 0 4.59 -0.11a0.3 0.3 0 0 0 0 -0.6l-3.39 -0.24a15.41 15.41 0 0 1 -1.93 -0.21Z" fill="#020202" fill-rule="evenodd" stroke-width="1"></path>
    <path d="M17.84 10.53a0.32 0.32 0 0 1 -0.22 0.17l-1 0.07a5.67 5.67 0 0 0 -2.49 1.56 8.42 8.42 0 0 0 -1.6 2.53 3.56 3.56 0 0 0 -0.26 1 0.91 0.91 0 0 0 0.17 0.74l0.31 0a1.43 1.43 0 0 0 0.74 -0.53 7.45 7.45 0 0 0 1 -1.38 0.47 0.47 0 0 1 0.85 0.39l-1.73 4.88 1.24 0a0.57 0.57 0 0 1 0.57 0.51 15.38 15.38 0 0 0 0.39 2.35l0.12 0c0.13 0 0.28 0.1 0.35 0a1.38 1.38 0 0 0 0.27 -0.72c0.13 -0.67 0.11 -1.4 0.16 -1.67a0.53 0.53 0 0 1 0.11 -0.27 0.53 0.53 0 0 1 0.69 -0.21 0.59 0.59 0 0 1 0.34 0.36s0 0.13 0.05 0.27a8.36 8.36 0 0 0 0.28 1.66 3.12 3.12 0 0 0 0.16 0.41c0 0.07 0.05 0.16 0.13 0.18a1 1 0 0 0 0.14 -0.2 3.07 3.07 0 0 0 0.33 -0.68 10.92 10.92 0 0 0 0.47 -1.6 0.56 0.56 0 0 1 0.64 -0.45s1.6 0.47 1.42 0c0 -0.06 -0.06 0.1 -0.06 0.16a15.51 15.51 0 0 0 -1.2 -4.7c-0.18 -0.35 -0.3 -0.6 -0.3 -0.62a0.49 0.49 0 0 1 0.52 -0.6 0.55 0.55 0 0 1 0.42 0.26 5 5 0 0 1 0.24 0.5 4.81 4.81 0 0 1 0.19 0.48 10.62 10.62 0 0 0 0.78 1.1 2.44 2.44 0 0 0 0.62 0.56 0.36 0.36 0 0 0 0.29 0.07c0.09 0 0.09 -0.13 0.1 -0.25a4.24 4.24 0 0 0 -0.3 -1.67 12.58 12.58 0 0 0 -1.09 -2.36 4.78 4.78 0 0 0 -1.48 -1.58 3.73 3.73 0 0 0 -2 -0.61 0.36 0.36 0 0 1 -0.36 -0.11Zm0.6 12.32 -0.05 0c0.01 0 0.03 0.03 0.05 0Zm-0.63 -12.64a0.32 0.32 0 0 0 -0.29 -0.11 5.15 5.15 0 0 1 -0.68 0l-0.37 0.06a6.42 6.42 0 0 0 -2.82 1.67 9.32 9.32 0 0 0 -1.82 2.71 4.24 4.24 0 0 0 -0.36 1.46 1.58 1.58 0 0 0 0.39 1.15 0.87 0.87 0 0 0 0.49 0.24 1.82 1.82 0 0 0 0.57 0 1.4 1.4 0 0 0 0.52 -0.2l-0.5 1.3c-0.31 0.82 -0.56 1.5 -0.61 1.7a0.66 0.66 0 0 0 0.61 0.74 10.8 10.8 0 0 0 1.39 0.09 14.79 14.79 0 0 0 0.29 1.83 1.33 1.33 0 0 0 0.54 0.9 2.51 2.51 0 0 0 1 0.22 1.28 1.28 0 0 0 0.88 -0.35 1.52 1.52 0 0 0 0.26 -0.35l0.14 0.21a1.27 1.27 0 0 0 0.79 0.49 1.45 1.45 0 0 0 1.39 -0.89 9.13 9.13 0 0 0 0.72 -2 3.85 3.85 0 0 0 1.52 -0.08 0.88 0.88 0 0 0 0.6 -0.77 8.73 8.73 0 0 0 -0.46 -2.48 1.38 1.38 0 0 0 1.2 0.25c0.57 -0.18 0.84 -0.91 0.64 -1.95a11.89 11.89 0 0 0 -1.53 -3.58 5.55 5.55 0 0 0 -1.75 -1.79 4.41 4.41 0 0 0 -2.43 -0.68 0.35 0.35 0 0 0 -0.32 0.21Z" fill="#020202" fill-rule="evenodd" stroke-width="1"></path>
    <path d="m0.69 23.34 0.06 0.1v-0.08Zm0.07 0.12c0.1 0 0.07 -0.05 0 -0.08 0 -0.34 0.16 -1.06 0.19 -1.21l0.54 -2.49c0 -0.15 0.25 -0.19 0.45 -0.24a3.29 3.29 0 0 1 0.61 -0.12c0.08 0 1.39 -0.17 1.91 -0.26a0.6 0.6 0 0 0 0.54 -0.38 0.35 0.35 0 0 0 -0.34 -0.35l-0.11 0 -0.13 0 -1.84 0a3.3 3.3 0 0 0 -1.3 0.15 1.4 1.4 0 0 0 -0.86 0.82 5.51 5.51 0 0 0 -0.24 1.14c-0.06 0.54 0 1.09 0 1.62a13.42 13.42 0 0 0 0 1.37 0.7 0.7 0 0 0 0.09 0.3 0.3 0.3 0 0 0 0.35 0.11 0.31 0.31 0 0 0 0.19 -0.39Z" fill="#020202" fill-rule="evenodd" stroke-width="1"></path>
    <path d="M7.84 2.59a0.2 0.2 0 0 1 -0.13 0 0.2 0.2 0 0 0 0.13 0Zm0 1.58c-0.12 -0.09 -0.26 -0.17 -0.26 0s0.16 0.03 0.28 0Zm0.27 0.27 0 0.16s0.09 -0.08 0.02 -0.16Zm-0.07 0.72H8l0.05 0 1.18 -0.11a0.35 0.35 0 0 0 0.35 -0.34 0.35 0.35 0 0 0 -0.35 -0.35l-1.05 -0.19 0 -1c0 -0.06 0.09 -0.72 -0.1 -0.72H8a0.31 0.31 0 0 0 -0.09 -0.35c-0.09 -0.1 -0.41 -0.13 -0.53 0.25 -0.06 0.19 -0.15 0.68 -0.16 0.74 -0.06 0.23 -0.14 0.46 -0.18 0.7a4.38 4.38 0 0 0 0 0.51 3.77 3.77 0 0 0 0 0.48 0.67 0.67 0 0 0 0.18 0.36 0.55 0.55 0 0 0 0.48 0.16c0.08 -0.05 0.3 -0.2 0.36 -0.14Z" fill="#020202" fill-rule="evenodd" stroke-width="1"></path>
  </g>
</svg>