<svg xmlns="http://www.w3.org/2000/svg" viewBox="0 0 24 24" id="Mediaval-Fantasy-Succubus--Streamline-Freehand">
  <desc>
    Mediaval Fantasy Succubus Streamline Icon: https://streamlinehq.com
  </desc>
  <title>mediaval-fantasy-succubus</title>
  <g>
    <path d="M10.94 14.07c-0.14 -0.26 -0.31 -0.54 -0.63 -0.49 -0.1 0 -0.2 0 -0.29 0.06a0.37 0.37 0 0 0 -0.23 0.21 0.31 0.31 0 0 1 -0.09 0.15c-0.22 0.21 -0.1 0.48 0 0.73s0.32 0.28 0.6 0.3a0.65 0.65 0 0 0 0.32 -0.1c0.29 -0.32 0.45 -0.6 0.32 -0.86Z" fill="#020202" fill-rule="evenodd" stroke-width="1"></path>
    <path d="M14.8 13.49c-0.1 0 -0.2 0 -0.29 0.06a0.35 0.35 0 0 0 -0.23 0.21 0.48 0.48 0 0 1 -0.09 0.11c-0.22 0.2 -0.1 0.48 0 0.72s0.32 0.28 0.6 0.31a0.65 0.65 0 0 0 0.32 -0.1c0.32 -0.28 0.48 -0.57 0.35 -0.82s-0.34 -0.54 -0.66 -0.49Z" fill="#020202" fill-rule="evenodd" stroke-width="1"></path>
    <path d="M14.37 16.06a0.41 0.41 0 0 0 -0.33 -0.28 0.42 0.42 0 0 0 -0.41 0.15 1.4 1.4 0 0 1 -1 0.3 2.09 2.09 0 0 1 -0.56 -0.06 1.55 1.55 0 0 1 -0.52 -0.19 0.42 0.42 0 0 0 -0.72 0.23v0.88a0.3 0.3 0 1 0 0.59 0.08l0 -0.12a2.39 2.39 0 0 0 0.43 0.2 1.78 1.78 0 0 0 0.76 0.11 2.26 2.26 0 0 0 1.23 -0.43l0.06 0.13a0.35 0.35 0 0 0 0.43 0.2 0.34 0.34 0 0 0 0.21 -0.43Z" fill="#020202" fill-rule="evenodd" stroke-width="1"></path>
    <path d="M23.85 20.16a3.28 3.28 0 0 1 -1.15 -1.53 3.81 3.81 0 0 1 -0.21 -1.89c0.07 -0.76 0.37 -1.45 0.41 -2.18a2.94 2.94 0 0 0 -0.15 -1.12 4.52 4.52 0 0 0 -0.5 -1c-0.43 -0.62 -1 -1.12 -1.48 -1.74l-0.3 -0.46c0 -0.24 -0.05 -0.47 -0.08 -0.68a8.9 8.9 0 0 0 1.14 -2.88A7.86 7.86 0 0 0 21.09 2a2.28 2.28 0 0 0 -0.61 -0.8 1.64 1.64 0 0 0 -1 -0.38 1.3 1.3 0 0 0 -0.89 0.37 1.47 1.47 0 0 0 -0.42 0.84C18 2.74 18 3.47 18 4.19a6.1 6.1 0 0 1 -0.14 0.72 5.85 5.85 0 0 0 -3.5 -2.08 7.08 7.08 0 0 0 -2.11 -0.1 7.65 7.65 0 0 0 -2 0.47 8.17 8.17 0 0 0 -3.66 2.63 4.52 4.52 0 0 1 -0.73 -1.71 9 9 0 0 1 -0.23 -2.06 2.34 2.34 0 0 0 -0.09 -0.33A1.14 1.14 0 0 0 4.34 1a2 2 0 0 0 -1.46 0.91 3.57 3.57 0 0 0 -0.5 1.22 7.83 7.83 0 0 0 -0.12 1.8 8.7 8.7 0 0 0 1.05 3.74 6.13 6.13 0 0 0 2.83 2.71 1.94 1.94 0 0 0 0.78 0.15 1.38 1.38 0 0 0 0.58 -0.15 1.48 1.48 0 0 0 0.39 -0.32 2.7 2.7 0 0 0 0.35 -0.53 8.56 8.56 0 0 0 0.62 -2.08 3.66 3.66 0 0 0 0 -1.51 0.33 0.33 0 0 0 -0.41 -0.24 0.31 0.31 0 0 0 -0.1 0A2 2 0 0 1 7 6.29a7.88 7.88 0 0 1 3.5 -2.07 9.41 9.41 0 0 1 1.8 -0.36 7.38 7.38 0 0 1 1.82 0 5.12 5.12 0 0 1 3.38 1.83 2 2 0 0 1 -0.28 0.37 1.07 1.07 0 0 1 -0.56 0.25l-0.8 0a1.58 1.58 0 0 0 -0.47 0.07 3.55 3.55 0 0 0 -1.62 0.81c-0.55 0.54 -0.64 1.25 -1.12 2.26a5 5 0 0 1 -2.46 2.24c-1.17 0.54 -2.43 0.76 -3.12 0.34 -0.31 -0.19 -0.68 -0.38 -1.07 -0.57s-0.9 -0.42 -1.32 -0.61a0.28 0.28 0 0 0 -0.06 -0.35 0.31 0.31 0 0 0 -0.42 0l-0.2 0.19a1 1 0 0 0 -0.18 0.06 0.56 0.56 0 0 0 -0.21 0.33c-0.3 0.29 -0.59 0.57 -0.86 0.88A4.38 4.38 0 0 0 2 13.22a4.07 4.07 0 0 0 -0.27 1.08 3.65 3.65 0 0 0 0.07 1.14c0.13 0.57 0.36 1.13 0.48 1.71a2 2 0 0 1 0 0.93 1.5 1.5 0 0 1 -0.37 0.68c-0.53 0.57 -1.31 0.86 -1.84 1.49a0.32 0.32 0 0 0 0 0.47 0.32 0.32 0 0 0 0.47 0c0.58 -0.56 1.39 -0.78 2 -1.29a2.45 2.45 0 0 0 0.7 -1A2.82 2.82 0 0 0 3.38 17c-0.09 -0.6 -0.34 -1.18 -0.47 -1.77a2.79 2.79 0 0 1 -0.08 -0.81 3.49 3.49 0 0 1 0.17 -0.89 3.24 3.24 0 0 1 0.5 -1.06 3.27 3.27 0 0 1 0.28 -0.37 9.07 9.07 0 0 0 0.35 1.41 8.24 8.24 0 0 0 1.07 2 3 3 0 0 0 1.11 1 2.43 2.43 0 0 0 0.65 0.19 5.55 5.55 0 0 0 0.46 0.91 4.38 4.38 0 0 0 0.74 0.88 7 7 0 0 0 0 1.59c0 0.28 0.08 0.55 0.11 0.82a3.94 3.94 0 0 1 0.08 0.77 2.58 2.58 0 0 1 -0.13 0.76 0.35 0.35 0 0 0 0.16 0.45 0.34 0.34 0 0 0 0.45 -0.16 3.34 3.34 0 0 0 0.54 -1.9 4.25 4.25 0 0 0 -0.16 -1.11c-0.05 -0.19 -0.12 -0.38 -0.19 -0.58a6.89 6.89 0 0 0 4.9 0.63 6.69 6.69 0 0 0 1.53 -0.57c0 0.08 -0.05 0.16 -0.07 0.24a2.8 2.8 0 0 0 0 1 3.88 3.88 0 0 0 0.26 0.72c0.14 0.3 0.33 0.57 0.45 0.88a1.69 1.69 0 0 1 0.13 0.6 0.34 0.34 0 0 0 0.67 0.08 2.61 2.61 0 0 0 0 -0.88 6 6 0 0 0 -0.26 -1.09c-0.06 -0.2 -0.14 -0.39 -0.19 -0.59a2.64 2.64 0 0 1 -0.14 -0.84l0 -0.71a4.72 4.72 0 0 0 1.6 -2.34 3 3 0 0 0 2.2 -2.1 8.23 8.23 0 0 0 0.39 -2.64c0.27 0.39 0.54 0.77 0.79 1.18a3.5 3.5 0 0 1 0.43 1 2.48 2.48 0 0 1 0.05 0.76c-0.06 0.72 -0.33 1.4 -0.39 2.16a4.92 4.92 0 0 0 0.5 2.33 4.05 4.05 0 0 0 1.59 1.74 0.34 0.34 0 1 0 0.37 -0.56ZM8.26 7.36a4.55 4.55 0 0 1 -0.19 1.27 6.74 6.74 0 0 1 -0.56 1.51 2 2 0 0 1 -0.21 0.3 0.65 0.65 0 0 1 -0.2 0.17 0.57 0.57 0 0 1 -0.26 0 1 1 0 0 1 -0.32 -0.09 5.29 5.29 0 0 1 -2.26 -2.36 7.91 7.91 0 0 1 -0.87 -3.27 8 8 0 0 1 0 -1.29 2.86 2.86 0 0 1 0.41 -1.09 1.09 1.09 0 0 1 0.41 -0.39c0.16 -0.09 0.34 -0.16 0.41 0 0.15 0.32 0 0.51 0.18 1.27 0 0.25 0.12 0.56 0.23 0.94a4.69 4.69 0 0 0 1.58 2.53 2.55 2.55 0 0 0 1.65 0.5Zm11.15 6.54a2.19 2.19 0 0 1 -1.86 1.61 0.39 0.39 0 0 0 -0.35 0.3 4.37 4.37 0 0 1 -3.53 3.07 5.69 5.69 0 0 1 -4.71 -1 3.43 3.43 0 0 1 -0.72 -0.85A5 5 0 0 1 7.77 16a0.52 0.52 0 0 0 -0.56 -0.36 1 1 0 0 1 -0.61 -0.17 2.34 2.34 0 0 1 -0.6 -0.55 7.09 7.09 0 0 1 -0.9 -1.78 7.28 7.28 0 0 1 -0.27 -1l0.65 0.3c0.35 0.18 0.69 0.35 1 0.53a4.91 4.91 0 0 0 4.18 -0.29 6.16 6.16 0 0 0 3 -2.79c0.4 -0.87 0.41 -1.49 0.87 -1.95a2.6 2.6 0 0 1 1.14 -0.58l1.1 0a2 2 0 0 0 1.13 -0.56 2.69 2.69 0 0 0 0.64 -1 4.67 4.67 0 0 0 0.31 -1.15c0.13 -0.84 0.09 -1.7 0.19 -2.55a0.52 0.52 0 0 1 0.14 -0.32 0.46 0.46 0 0 1 0.28 -0.13 0.8 0.8 0 0 1 0.49 0.18 1.35 1.35 0 0 1 0.38 0.48 7 7 0 0 1 0.48 4.21 8 8 0 0 1 -1 2.73 0.36 0.36 0 0 0 -0.08 0.12 7.79 7.79 0 0 1 -0.77 1c-0.19 0.2 -0.38 0.4 -0.58 0.58a6 6 0 0 1 -0.63 0.5 0.29 0.29 0 0 0 -0.09 0.41 0.31 0.31 0 0 0 0.41 0.09 5.79 5.79 0 0 0 0.58 -0.43 8.62 8.62 0 0 0 0.76 -0.72 5.82 5.82 0 0 0 0.4 -0.45 8.85 8.85 0 0 1 -0.4 3.55Z" fill="#020202" fill-rule="evenodd" stroke-width="1"></path>
    <path d="M5.38 18.06a0.29 0.29 0 0 0 -0.38 0.24 8.1 8.1 0 0 0 -0.26 1.6 5 5 0 0 1 -0.09 0.56 1.68 1.68 0 0 1 -0.12 0.38 1.3 1.3 0 0 1 -0.22 0.38 8.81 8.81 0 0 0 -1 1.12 0.34 0.34 0 0 0 0.53 0.41A13.36 13.36 0 0 1 5 21.94a2 2 0 0 0 0.52 -0.6 2.33 2.33 0 0 0 0.27 -1c0 -0.65 -0.24 -1.32 -0.22 -1.94a0.29 0.29 0 0 0 -0.19 -0.34Z" fill="#4C57E6" fill-rule="evenodd" stroke-width="1"></path>
    <path d="M21 22.54a1.8 1.8 0 0 1 -0.88 -1 3.3 3.3 0 0 1 -0.15 -0.62c-0.07 -0.35 -0.11 -0.72 -0.18 -1.08a4.35 4.35 0 0 0 -0.79 -1.92 0.29 0.29 0 1 0 -0.5 0.31 4.9 4.9 0 0 1 0.22 1.8 5.61 5.61 0 0 0 0.28 1.38 2.52 2.52 0 0 0 1.8 1.75 0.34 0.34 0 1 0 0.26 -0.62Z" fill="#4C57E6" fill-rule="evenodd" stroke-width="1"></path>
  </g>
</svg>