<svg xmlns="http://www.w3.org/2000/svg" viewBox="0 0 24 24" id="Medical-Symbol-Ribbon-Cancer--Streamline-Freehand">
  <desc>
    Medical Symbol Ribbon Cancer Streamline Icon: https://streamlinehq.com
  </desc>
  <g>
    <path d="M18 5.46a15.13 15.13 0 0 0 -1.57 -3.29A17 17 0 0 0 14.68 0.78a7.15 7.15 0 0 0 -2.06 -0.55A16 16 0 0 0 9 0.05a5.71 5.71 0 0 0 -2.48 0.76 3.55 3.55 0 0 0 -1.1 1 0.31 0.31 0 0 0 -0.11 0.09A12.32 12.32 0 0 0 4.62 3c-0.32 0.54 -0.6 1.1 -0.89 1.66s-0.6 1 -0.83 1.53a4.52 4.52 0 0 0 -0.36 1.24 4.57 4.57 0 0 0 1 3.23A17.18 17.18 0 0 0 7 13.78a0.32 0.32 0 0 0 0.41 -0.5 18.31 18.31 0 0 1 -3.1 -3.22 3.67 3.67 0 0 1 -0.71 -2.52 3.55 3.55 0 0 1 0.25 -1c0.19 -0.53 0.44 -1 0.65 -1.56l0.27 -0.68A4.89 4.89 0 0 0 5.91 7 12.59 12.59 0 0 0 7 8.11a8.08 8.08 0 0 0 1.25 1A0.29 0.29 0 0 0 8.62 9a0.27 0.27 0 0 0 -0.09 -0.39 7.58 7.58 0 0 1 -1.13 -0.95 11.07 11.07 0 0 1 -1 -1.1 4 4 0 0 1 -0.88 -2.73A2.68 2.68 0 0 1 7 1.58 4.94 4.94 0 0 1 9 1a15.59 15.59 0 0 1 3.43 0.27 6 6 0 0 1 1.74 0.48 2.23 2.23 0 0 1 0.82 0.65 2.1 2.1 0 0 1 0.37 1.33 6.3 6.3 0 0 1 -0.28 1.58 11.58 11.58 0 0 1 -0.57 1.48A23.21 23.21 0 0 1 13.41 9c-0.51 0.9 -1.07 1.78 -1.67 2.64a24.35 24.35 0 0 1 -2 2.42 13.77 13.77 0 0 1 -2.2 1.92 35.05 35.05 0 0 1 -3.83 2.31 0.32 0.32 0 1 0 0.3 0.57 35 35 0 0 0 4 -2.25 17 17 0 0 0 2.38 -2 24.87 24.87 0 0 0 2.09 -2.46 31.2 31.2 0 0 0 1.8 -2.67c0.42 -0.71 0.86 -1.45 1.23 -2.22a13.1 13.1 0 0 0 0.64 -1.63 6.33 6.33 0 0 0 0.32 -2.21 13.53 13.53 0 0 1 0.85 2.25 8.87 8.87 0 0 1 0.32 3.38 6.94 6.94 0 0 1 -0.83 2.47 18 18 0 0 1 -2.42 3.31 58.71 58.71 0 0 1 -5 5.45A35 35 0 0 1 6.07 23c-0.17 -0.43 -0.34 -0.87 -0.53 -1.29a10.32 10.32 0 0 0 -0.62 -1.19 15.19 15.19 0 0 0 -1.37 -1.79 0.28 0.28 0 0 0 -0.47 0.31c0.29 0.59 0.51 1.18 0.78 1.76 0.12 0.24 0.24 0.49 0.37 0.73s0.29 0.47 0.42 0.71A14.6 14.6 0 0 0 5.81 24c0.39 0.09 2.86 -1.88 5.07 -3.94a56.3 56.3 0 0 0 4.35 -4.53A18.83 18.83 0 0 0 17.77 12a7.86 7.86 0 0 0 0.81 -2.88A9.89 9.89 0 0 0 18 5.46Z" fill="#020202" fill-rule="evenodd" stroke-width="1"></path>
    <path d="M6.92 5.81A6.44 6.44 0 0 1 8 5.58a9 9 0 0 1 1.67 -0.13 14 14 0 0 1 1.71 0 9.27 9.27 0 0 1 2.24 0.44 0.33 0.33 0 0 0 0.26 -0.6 9.44 9.44 0 0 0 -3 -0.92A7.48 7.48 0 0 0 9 4.41a6.07 6.07 0 0 0 -1.24 0.29 7.74 7.74 0 0 0 -1.14 0.48l-0.31 0.19c-0.22 0.3 -0.21 0.53 0.24 0.59a2.17 2.17 0 0 1 0.37 -0.15Z" fill="#4C57E6" fill-rule="evenodd" stroke-width="1"></path>
    <path d="M21.41 17.16a0.93 0.93 0 0 0 -0.39 -0.42 9.68 9.68 0 0 0 -0.86 -0.45c-0.51 -0.25 -1 -0.5 -1.55 -0.77q-0.51 -0.27 -1 -0.57a0.27 0.27 0 0 0 -0.39 0.06 0.28 0.28 0 0 0 0.06 0.4c0.36 0.31 0.76 0.61 1.17 0.91s0.8 0.56 1.2 0.84 0.92 0.07 0.66 0.83a7.12 7.12 0 0 1 -0.31 0.71l-0.59 1 -1.2 1.67a0.3 0.3 0 0 0 0 0.3l-0.09 -0.08a7.75 7.75 0 0 1 -1.05 -1c-0.23 -0.23 -0.45 -0.48 -0.7 -0.7 -0.42 -0.38 -0.88 -0.7 -1.35 -1.06a0.28 0.28 0 0 0 -0.4 0.4c0.29 0.42 0.53 0.85 0.85 1.24a3.42 3.42 0 0 0 0.44 0.49 4.29 4.29 0 0 0 0.51 0.43 6.54 6.54 0 0 0 1.37 0.77 0.34 0.34 0 0 0 0.45 -0.12 0.34 0.34 0 0 0 0 -0.28l0.06 0.07a0.32 0.32 0 0 0 0.45 -0.07l1.4 -1.52a6 6 0 0 0 0.41 -0.52 5.44 5.44 0 0 0 0.37 -0.56 4.7 4.7 0 0 0 0.49 -1 1.79 1.79 0 0 0 -0.01 -1Z" fill="#020202" fill-rule="evenodd" stroke-width="1"></path>
  </g>
</svg>