<svg xmlns="http://www.w3.org/2000/svg" viewBox="0 0 24 24" id="Meeting-Co-Working-3--Streamline-Freehand">
  <desc>
    Meeting Co Working 3 Streamline Icon: https://streamlinehq.com
  </desc>
  <g>
    <path d="M8.6 18.51a4.12 4.12 0 0 0 -0.49 -0.69 4.67 4.67 0 0 0 -0.93 -0.76 3.63 3.63 0 0 0 1 -2.9 3.36 3.36 0 0 0 -3.34 -3.36 3.65 3.65 0 0 0 -3.77 3.45 3.09 3.09 0 0 0 1.8 2.93 9.29 9.29 0 0 0 -1.31 0.87 5.11 5.11 0 0 0 -1 1.14 3.32 3.32 0 0 0 -0.49 2.55 0.33 0.33 0 0 0 0.38 0.26 0.33 0.33 0 0 0 0.28 -0.37 2.55 2.55 0 0 1 0.43 -1.43 7.55 7.55 0 0 1 0.92 -1.16 22.06 22.06 0 0 1 1.56 -1.61 4.48 4.48 0 0 0 1 0.14 0.29 0.29 0 0 0 0 -0.58C2.75 16.82 1.91 15.56 2 14.3a2.68 2.68 0 0 1 2.86 -2.39 2.4 2.4 0 0 1 2.45 2.33 2.5 2.5 0 0 1 -2 2.93 0.33 0.33 0 0 0 -0.29 0.36 0.34 0.34 0 0 0 0.37 0.29 3 3 0 0 0 1.11 -0.33 9.33 9.33 0 0 1 0.74 1c0.12 0.19 0.25 0.39 0.36 0.59s0.23 0.41 0.34 0.62a9.6 9.6 0 0 1 0.66 1.59 0.33 0.33 0 1 0 0.64 -0.13 8.29 8.29 0 0 0 -0.34 -1.86 4.09 4.09 0 0 0 -0.3 -0.79Z" fill="#020202" fill-rule="evenodd" stroke-width="1"></path>
    <path d="M23.65 19.28a4.09 4.09 0 0 0 -0.34 -0.77 3.22 3.22 0 0 0 -0.49 -0.69 4.9 4.9 0 0 0 -0.92 -0.76 3.7 3.7 0 0 0 1 -2.9 3.37 3.37 0 0 0 -3.39 -3.36 3.65 3.65 0 0 0 -3.77 3.45 3.1 3.1 0 0 0 1.81 2.93 8.75 8.75 0 0 0 -1.31 0.87 4.91 4.91 0 0 0 -1 1.14 3.37 3.37 0 0 0 -0.49 2.55 0.34 0.34 0 0 0 0.38 0.28 0.33 0.33 0 0 0 0.27 -0.37 2.63 2.63 0 0 1 0.43 -1.43 8.21 8.21 0 0 1 0.92 -1.16 22.06 22.06 0 0 1 1.56 -1.61 4.48 4.48 0 0 0 1 0.14 0.29 0.29 0 1 0 0 -0.58c-1.94 -0.19 -2.78 -1.45 -2.68 -2.71a2.67 2.67 0 0 1 2.85 -2.39A2.39 2.39 0 0 1 22 14.24a2.49 2.49 0 0 1 -2 2.93 0.33 0.33 0 0 0 -0.29 0.36 0.34 0.34 0 0 0 0.37 0.29 2.94 2.94 0 0 0 1.11 -0.33 8.13 8.13 0 0 1 0.74 1c0.13 0.19 0.25 0.39 0.36 0.59s0.24 0.41 0.34 0.62a9.6 9.6 0 0 1 0.66 1.59 0.33 0.33 0 1 0 0.64 -0.13 8.29 8.29 0 0 0 -0.28 -1.88Z" fill="#020202" fill-rule="evenodd" stroke-width="1"></path>
    <path d="M4.14 9.73a0.3 0.3 0 0 0 0.28 -0.3 25.51 25.51 0 0 1 0.13 -2.78 3.45 3.45 0 0 1 0.28 -1 2.36 2.36 0 0 1 1.73 -1.3l0.69 -0.17a5.4 5.4 0 0 1 0.69 -0.08 0.33 0.33 0 0 0 0.34 -0.32 0.32 0.32 0 0 0 -0.28 -0.33 5.33 5.33 0 0 0 -0.8 0 6.48 6.48 0 0 0 -0.77 0.08 3.12 3.12 0 0 0 -2.6 1.65 3.45 3.45 0 0 0 -0.32 1.37 16.84 16.84 0 0 0 0.33 2.9 0.29 0.29 0 0 0 0.3 0.28Z" fill="#4C57E6" fill-rule="evenodd" stroke-width="1"></path>
    <path d="M13.62 2.63c-0.56 -0.85 -1.9 -0.66 -2.47 -0.56a2.43 2.43 0 0 0 -1.09 0.5 2.15 2.15 0 0 0 -0.74 2.34 2.34 2.34 0 0 0 2 1.46 2.5 2.5 0 0 0 2.08 -0.74 2.17 2.17 0 0 0 0.6 -2.1 3.18 3.18 0 0 0 -0.38 -0.9Zm-0.87 2.31a1.53 1.53 0 0 1 -1.27 0.34 1.3 1.3 0 0 1 -1.14 -0.75 1.23 1.23 0 0 1 0.32 -1.33 1.69 1.69 0 0 1 0.89 -0.46c1.46 -0.35 1.53 0.2 1.67 1a1.31 1.31 0 0 1 -0.47 1.2Z" fill="#020202" fill-rule="evenodd" stroke-width="1"></path>
    <path d="M15.21 4.34c0.29 0 0.59 -0.07 0.89 -0.09a6.44 6.44 0 0 1 0.88 0 7.23 7.23 0 0 1 1.21 0.23 2.31 2.31 0 0 1 0.95 0.41 1.12 1.12 0 0 1 0.3 0.47 5.48 5.48 0 0 1 0.2 0.71 9.26 9.26 0 0 1 0.25 1.55 10.42 10.42 0 0 1 0 1.58 0.34 0.34 0 0 0 0.29 0.37 0.33 0.33 0 0 0 0.36 -0.29 10.67 10.67 0 0 0 0.19 -1.68 9.83 9.83 0 0 0 -0.07 -1.71 4 4 0 0 0 -0.27 -1.1 2 2 0 0 0 -0.52 -0.73 2.8 2.8 0 0 0 -1.18 -0.54 6.45 6.45 0 0 0 -1.69 -0.1 7.06 7.06 0 0 0 -0.77 0.1 9.64 9.64 0 0 0 -1.12 0.25 0.3 0.3 0 0 0 -0.22 0.34 0.29 0.29 0 0 0 0.32 0.23Z" fill="#4C57E6" fill-rule="evenodd" stroke-width="1"></path>
  </g>
</svg>