<svg xmlns="http://www.w3.org/2000/svg" viewBox="0 0 24 24" id="Meeting-Presentation--Streamline-Freehand">
  <desc>
    Meeting Presentation Streamline Icon: https://streamlinehq.com
  </desc>
  <g>
    <path d="M5.41 20.42a1.66 1.66 0 0 0 -0.41 -0.68 1.51 1.51 0 0 0 -0.47 -0.32 2.51 2.51 0 0 0 0.79 -1.25 2.12 2.12 0 0 0 -1.57 -2.71 7.64 7.64 0 0 1 0.54 -1c0.09 -0.14 0.17 -0.28 0.25 -0.42a4.91 4.91 0 0 1 0.25 -0.44 2.45 2.45 0 0 1 0.29 -0.35l0.07 0a8.75 8.75 0 0 0 1.23 0c0.26 0.27 0.46 0.56 0.69 0.85s0.26 0.31 0.51 0.62 0.56 -0.18 0.5 -0.69 -0.06 -0.58 -0.32 -0.81a2.38 2.38 0 0 0 -0.44 -0.4 2.47 2.47 0 0 0 0.78 -1.22 2.13 2.13 0 0 0 -1.66 -2.74 3.12 3.12 0 0 0 -1.06 0 1.94 1.94 0 0 0 -0.75 0.3 2.61 2.61 0 0 0 -1.11 2.28 2 2 0 0 0 0.72 1.41 3.25 3.25 0 0 0 -0.68 0.39 2.21 2.21 0 0 0 -0.39 0.52 3.13 3.13 0 0 0 -0.24 0.6 4.23 4.23 0 0 0 -0.1 1.07 1.76 1.76 0 0 0 -0.23 0 2.07 2.07 0 0 0 -0.76 0.29A2.65 2.65 0 0 0 0.73 18a2 2 0 0 0 0.72 1.42 3.21 3.21 0 0 0 -0.68 0.38 2.5 2.5 0 0 0 -0.39 0.53 2.81 2.81 0 0 0 -0.24 0.59A4.76 4.76 0 0 0 0 22.31a0.38 0.38 0 0 0 0.32 0.45 0.41 0.41 0 0 0 0.45 -0.33A6.16 6.16 0 0 1 1.49 21c0.09 -0.13 0.17 -0.27 0.25 -0.41a4 4 0 0 1 0.26 -0.45 4.47 4.47 0 0 1 0.29 -0.35l0.07 0a11.13 11.13 0 0 0 1.23 0c0.26 0.28 0.46 0.57 0.69 0.85s0.27 0.33 0.4 0.49a2.79 2.79 0 0 1 0.26 0.32c0.26 0.34 0.69 -0.45 0.47 -1.03Zm-0.1 -10.21a0.68 0.68 0 0 1 0.37 -0.09 1.45 1.45 0 0 1 0.51 0A1 1 0 0 1 7 11.38a1.43 1.43 0 0 1 -0.71 1.08 0.35 0.35 0 0 0 -0.14 0.06 1.06 1.06 0 0 1 -0.86 0 1 1 0 0 1 -0.77 -1.1 1.46 1.46 0 0 1 0.79 -1.21Zm-1.06 7.73A1.44 1.44 0 0 1 3.53 19a0.46 0.46 0 0 0 -0.14 0.07 1.06 1.06 0 0 1 -0.86 0A1 1 0 0 1 1.76 18a1.47 1.47 0 0 1 0.76 -1.19 0.92 0.92 0 0 1 0.38 -0.09 2.11 2.11 0 0 1 0.5 0 1 1 0 0 1 0.85 1.22Z" fill="#020202" fill-rule="evenodd" stroke-width="1"></path>
    <path d="M16.76 18.47c-0.26 -0.77 -0.51 -1.55 -0.72 -2.34l-0.74 -2.33a4.9 4.9 0 0 0 -0.26 -0.68 1 1 0 0 0 -0.25 -0.33 1.67 1.67 0 0 0 -0.79 -0.19c-0.86 0 -2.91 -0.06 -3.43 -0.12a4.82 4.82 0 0 0 -0.8 -0.05 1.13 1.13 0 0 0 -0.58 0.21A0.9 0.9 0 0 0 9 13a5.27 5.27 0 0 0 -0.19 0.55s-0.73 1.77 -0.71 1.8 -2.49 5.53 -2.58 6.9a0.39 0.39 0 0 0 0.49 0.25 0.36 0.36 0 0 0 0.24 -0.28 0.37 0.37 0 0 0 0.15 -0.22l2.71 -6.2L10 14s0.15 -0.21 0.2 -0.34a2.69 2.69 0 0 0 0.32 0.1c0.53 0.05 2.62 0.06 3.49 0.1h0.09a3.44 3.44 0 0 0 0.08 0.36l0.83 2.2c0.26 0.79 0.56 1.58 0.88 2.36 0.42 1 0.87 2 1.33 3a9.35 9.35 0 0 0 -0.92 -0.18c-0.66 -0.08 -1.32 -0.11 -2 -0.18s-1 -0.09 -1.52 -0.11a22.07 22.07 0 0 0 -2.3 0.05 28.88 28.88 0 0 0 -3.8 0.64 0.35 0.35 0 0 0 0.1 0.69c0.5 0 1 -0.06 1.49 -0.07l3 0c1 0 2 -0.05 3 0 0.66 0 1.32 -0.07 2 -0.07a7.28 7.28 0 0 1 1.23 0.09c0.26 0 0.48 -0.13 0.48 -0.28a19.69 19.69 0 0 0 -1.22 -3.89Z" fill="#4C57E6" fill-rule="evenodd" stroke-width="1"></path>
    <path d="M23.86 20.89a2.81 2.81 0 0 0 -0.24 -0.59 2.5 2.5 0 0 0 -0.39 -0.53 4 4 0 0 0 -0.67 -0.38 2 2 0 0 0 0.72 -1.39 2.64 2.64 0 0 0 -1.12 -2.28 2 2 0 0 0 -0.75 -0.29 1.92 1.92 0 0 0 -0.24 0 4.23 4.23 0 0 0 -0.1 -1.07 3.13 3.13 0 0 0 -0.24 -0.6 2.21 2.21 0 0 0 -0.39 -0.52 3.25 3.25 0 0 0 -0.68 -0.39 2 2 0 0 0 0.72 -1.41 2.61 2.61 0 0 0 -1.11 -2.28 1.94 1.94 0 0 0 -0.75 -0.3 3.12 3.12 0 0 0 -1.06 0 2.13 2.13 0 0 0 -1.66 2.74 2.47 2.47 0 0 0 0.79 1.25A3.3 3.3 0 0 0 16 13.9c-0.22 0.46 0.14 1 0.42 0.8 -0.07 0 0.44 -0.4 0.57 -0.57s0.43 -0.58 0.69 -0.85a8.75 8.75 0 0 0 1.23 0l0.07 0a2.45 2.45 0 0 1 0.29 0.35 4.91 4.91 0 0 1 0.25 0.44c0.08 0.14 0.16 0.28 0.25 0.42a7.18 7.18 0 0 1 0.54 1 2.11 2.11 0 0 0 -1.56 2.7 2.48 2.48 0 0 0 0.79 1.24 4.3 4.3 0 0 0 -0.53 0.25 1.33 1.33 0 0 0 -0.38 0.44 2.14 2.14 0 0 0 -0.38 0.95c-0.14 0.83 0.36 1.07 0.49 0.88s0.5 -0.58 0.64 -0.75 0.27 -0.32 0.4 -0.49 0.43 -0.57 0.69 -0.85a9.28 9.28 0 0 0 1.24 0l0.06 0a3.07 3.07 0 0 1 0.29 0.34 4 4 0 0 1 0.25 0.45c0.08 0.14 0.16 0.28 0.25 0.41a6.16 6.16 0 0 1 0.71 1.43 0.41 0.41 0 0 0 0.45 0.33 0.38 0.38 0 0 0 0.32 -0.45 4.76 4.76 0 0 0 -0.18 -1.48Zm-6 -8.37a0.35 0.35 0 0 0 -0.14 -0.06 1.43 1.43 0 0 1 -0.72 -1.08 1 1 0 0 1 0.84 -1.22 1.45 1.45 0 0 1 0.51 0 0.68 0.68 0 0 1 0.37 0.09 1.46 1.46 0 0 1 0.76 1.18 1.21 1.21 0 0 1 -1.66 1.09Zm2.78 6.56a0.45 0.45 0 0 0 -0.12 -0.06 1.44 1.44 0 0 1 -0.72 -1.08 1 1 0 0 1 0.85 -1.22 2.11 2.11 0 0 1 0.5 0 0.92 0.92 0 0 1 0.38 0.09 1.47 1.47 0 0 1 0.72 1.19 1.2 1.2 0 0 1 -1.65 1.08Z" fill="#020202" fill-rule="evenodd" stroke-width="1"></path>
    <path d="M13.42 5.34c-0.07 0.08 -0.15 0.14 -0.22 0.21 -0.42 0.06 -0.34 0.64 0 0.76a6.72 6.72 0 0 1 0.78 1q0.24 0.35 0.45 0.72a4.71 4.71 0 0 1 0.29 0.48 4.3 4.3 0 0 1 0.45 1.16 0.39 0.39 0 0 0 0.4 0.37 0.38 0.38 0 0 0 0.37 -0.4 4.38 4.38 0 0 0 -0.18 -1.8 3.06 3.06 0 0 0 -0.33 -0.71 2.86 2.86 0 0 0 -0.48 -0.62A4.07 4.07 0 0 0 14 5.9a3.6 3.6 0 0 0 0.37 -0.41 2.41 2.41 0 0 0 0.45 -1.9 2.93 2.93 0 0 0 -1 -1.73 2.56 2.56 0 0 0 -1.36 -0.6 2.84 2.84 0 0 0 -1.45 0.22 3.17 3.17 0 0 0 -1.65 2 2.35 2.35 0 0 0 0.7 2.44s0.1 0 0.15 0.09a4.36 4.36 0 0 0 -0.6 0.33 3.82 3.82 0 0 0 -0.58 0.56 3.59 3.59 0 0 0 -0.42 0.67 6.36 6.36 0 0 0 -0.54 1.7 0.39 0.39 0 0 0 0.24 0.5 0.39 0.39 0 0 0 0.49 -0.24A8.58 8.58 0 0 1 9.92 8c0.15 -0.18 0.3 -0.36 0.46 -0.53s0.18 -0.25 0.29 -0.36c0.61 -0.64 1.11 -1.22 0.48 -1.51a1.12 1.12 0 0 1 -0.41 -0.3 1.41 1.41 0 0 1 -0.19 -1.48 1.91 1.91 0 0 1 1 -1.12 1.62 1.62 0 0 1 0.8 -0.14 1.54 1.54 0 0 1 0.74 0.28 1.69 1.69 0 0 1 0.67 1A1.53 1.53 0 0 1 13.68 5a2.88 2.88 0 0 1 -0.26 0.34Z" fill="#020202" fill-rule="evenodd" stroke-width="1"></path>
  </g>
</svg>