<svg xmlns="http://www.w3.org/2000/svg" viewBox="0 0 24 24" id="Meeting-Co-Working-2--Streamline-Freehand">
  <desc>
    Meeting Co Working 2 Streamline Icon: https://streamlinehq.com
  </desc>
  <g>
    <path d="M18.41 18.09a0.29 0.29 0 0 0 0 -0.58c-2 -0.2 -2.91 -1.52 -2.8 -2.83a2.79 2.79 0 0 1 3 -2.5 2.51 2.51 0 0 1 2.56 2.44 2.6 2.6 0 0 1 -2.05 3.05 0.33 0.33 0 0 0 0.08 0.66 3.21 3.21 0 0 0 1.18 -0.33 8.72 8.72 0 0 1 0.77 1c0.14 0.21 0.26 0.41 0.38 0.62a6.77 6.77 0 0 1 0.36 0.65 10.73 10.73 0 0 1 0.68 1.65 0.33 0.33 0 0 0 0.38 0.27 0.34 0.34 0 0 0 0.27 -0.39 9.54 9.54 0 0 0 -0.36 -1.94 4.68 4.68 0 0 0 -0.36 -0.79 3.57 3.57 0 0 0 -0.5 -0.72 5.44 5.44 0 0 0 -1 -0.8 3.81 3.81 0 0 0 1.08 -3 3.49 3.49 0 0 0 -3.51 -3.48 3.77 3.77 0 0 0 -3.9 3.57c-0.01 1.67 1.16 3.36 3.74 3.45Z" fill="#020202" fill-rule="evenodd" stroke-width="1"></path>
    <path d="M1.05 11.62a0.32 0.32 0 0 0 0.39 -0.26 10.86 10.86 0 0 1 0.68 -1.66c0.11 -0.22 0.23 -0.43 0.35 -0.64s0.25 -0.41 0.38 -0.62a8.83 8.83 0 0 1 0.78 -1 3.21 3.21 0 0 0 1.16 0.34 0.33 0.33 0 0 0 0.08 -0.66 2.6 2.6 0 0 1 -2.05 -3.06 2.52 2.52 0 0 1 2.56 -2.45 2.81 2.81 0 0 1 3 2.51c0.1 1.31 -0.78 2.63 -2.8 2.83a0.3 0.3 0 0 0 -0.28 0.31 0.29 0.29 0 0 0 0.31 0.27c2.59 -0.06 3.76 -1.78 3.72 -3.46A3.78 3.78 0 0 0 5.4 0.5 3.5 3.5 0 0 0 1.89 4 3.78 3.78 0 0 0 3 7a5.11 5.11 0 0 0 -1 0.8 4.07 4.07 0 0 0 -0.51 0.72 4.31 4.31 0 0 0 -0.35 0.79 8.35 8.35 0 0 0 -0.36 1.94 0.32 0.32 0 0 0 0.27 0.37Z" fill="#020202" fill-rule="evenodd" stroke-width="1"></path>
    <path d="M23.68 22.62c-1.68 -0.11 -3.31 -0.2 -4.94 -0.24h-1l0 -0.31a20.86 20.86 0 0 0 -0.66 -3 3.11 3.11 0 0 0 -0.31 -0.64 1 1 0 0 0 -0.37 -0.32 6.11 6.11 0 0 0 -1.68 -0.28 18.83 18.83 0 0 0 -3.62 0.07 2.93 2.93 0 0 0 -1.19 0.38 0.69 0.69 0 0 0 -0.31 0.68c0.17 1 0.56 1.9 0.79 2.83a6 6 0 0 1 0.17 0.94l-1 0.07a0.28 0.28 0 0 0 -0.28 0.29 0.29 0.29 0 0 0 0.29 0.29c1.91 0.05 3.77 0.14 5.63 0.14 1.13 0 2.25 0 3.37 -0.06 1.66 -0.05 3.34 -0.14 5.05 -0.16A0.33 0.33 0 0 0 24 23a0.33 0.33 0 0 0 -0.32 -0.38Zm-13.21 -3.55 0.06 0c0.06 0 -0.03 0.05 -0.06 0Zm4 3.36c-1.1 0.06 -2.19 0.14 -3.3 0.23a7.46 7.46 0 0 0 -0.1 -1.05c-0.16 -0.85 -0.43 -1.69 -0.55 -2.58l0.1 0a15.71 15.71 0 0 1 3.23 -0.13A13.07 13.07 0 0 1 16 19l0.27 0.45a18.36 18.36 0 0 1 0.91 2.92h-0.51c-0.74 0.01 -1.45 0.03 -2.15 0.06Z" fill="#4C57E6" fill-rule="evenodd" stroke-width="1"></path>
    <path d="M14.68 12.51a0.29 0.29 0 0 0 -0.28 -0.3l-0.94 -0.06a6.28 6.28 0 0 1 0.16 -1c0.24 -0.92 0.63 -1.84 0.8 -2.82a0.68 0.68 0 0 0 -0.32 -0.68 2.78 2.78 0 0 0 -1.18 -0.38 18.85 18.85 0 0 0 -3.62 -0.02 6.73 6.73 0 0 0 -1.68 0.27 1.05 1.05 0 0 0 -0.37 0.33 3.82 3.82 0 0 0 -0.32 0.64 22.46 22.46 0 0 0 -0.66 3l0 0.31h-1c-1.63 0 -3.26 0.13 -4.94 0.23a0.34 0.34 0 0 0 -0.32 0.34 0.34 0.34 0 0 0 0.34 0.33c1.71 0 3.39 0.1 5.05 0.15 1.12 0 2.24 0.07 3.37 0.07 1.86 0 3.72 -0.09 5.63 -0.14a0.29 0.29 0 0 0 0.28 -0.27Zm-1.14 -4c0 0.05 0 0 -0.07 0s0.08 -0.02 0.07 0Zm-6.17 3.3h-0.5a18.87 18.87 0 0 1 0.91 -2.93l0.27 -0.45a15.14 15.14 0 0 1 2 -0.11 15.09 15.09 0 0 1 3.24 0.13h0.09c-0.11 0.89 -0.38 1.74 -0.54 2.58a6.24 6.24 0 0 0 -0.1 1.06c-1.11 -0.09 -2.21 -0.17 -3.31 -0.23 -0.65 -0.02 -1.36 -0.04 -2.06 -0.05Z" fill="#4C57E6" fill-rule="evenodd" stroke-width="1"></path>
  </g>
</svg>