<svg xmlns="http://www.w3.org/2000/svg" viewBox="0 0 24 24" id="Memory-Sd-Card-Warning--Streamline-Freehand">
  <desc>
    Memory Sd Card Warning Streamline Icon: https://streamlinehq.com
  </desc>
  <g>
    <path d="M1.27 1.35a22.67 22.67 0 0 1 4.21 -0.26 47.79 47.79 0 0 1 6.69 0.37c0.5 0.61 2.07 3 2.49 3.76 0.09 0.15 0.11 0.36 0.17 0.34l0.17 4.85a0.35 0.35 0 0 0 0.7 0l0.14 -4.9c0 -0.59 -2.35 -4.43 -2.92 -5a1.34 1.34 0 0 0 -0.62 -0.2c-5 -0.4 -4.18 -0.37 -9.93 0.2C1 0.76 0.75 0.71 0.69 0.75a0.32 0.32 0 0 0 0 0.54 1.67 1.67 0 0 0 0.58 0.06Z" fill="#020202" fill-rule="evenodd" stroke-width="1"></path>
    <path d="M9.24 18.48c-1 0 -6.6 -0.09 -7.43 -0.67 -0.4 -0.28 -0.27 -0.77 -0.26 -1.36 0 -1.27 -0.1 -3.59 0 -3.91a1.37 1.37 0 0 1 0.35 0c0.77 0 1.34 0 1.41 -0.89a12.46 12.46 0 0 0 -0.22 -3.25c-0.37 -0.76 -1.65 -0.09 -1.84 -0.4s-0.14 -4.57 -0.15 -4.66 -0.56 -0.47 -0.63 0.07a27.2 27.2 0 0 0 0 4.94c0.4 0.87 1.23 0.55 1.73 0.62a14.65 14.65 0 0 1 0 2.46c-2.39 -0.34 -1.76 1.12 -1.74 5 0 0.94 -0.05 1.69 0.82 2.24 1.16 0.74 6.66 0.56 8 0.5a0.36 0.36 0 0 0 -0.04 -0.69Z" fill="#020202" fill-rule="evenodd" stroke-width="1"></path>
    <path d="M5.71 3.56c-0.1 -0.05 -0.31 0 -0.48 0.27a4.51 4.51 0 0 0 -0.28 2c0.06 0.62 0.19 1.18 0.22 1.38a0.35 0.35 0 0 0 0.7 0 8.63 8.63 0 0 0 0.24 -2.33C6 3.55 6 3.69 5.71 3.56Z" fill="#4C57E6" fill-rule="evenodd" stroke-width="1"></path>
    <path d="M8 3.75a4.63 4.63 0 0 0 0.15 3.64c0.17 0.14 0.3 0.17 0.42 0.09 0.67 -0.44 0 -3.51 0 -3.6A0.31 0.31 0 0 0 8 3.75Z" fill="#4C57E6" fill-rule="evenodd" stroke-width="1"></path>
    <path d="M11.49 9.25a12 12 0 0 0 -0.32 -5.51 0.31 0.31 0 0 0 -0.62 0.06c0 0.56 -0.09 1.22 -0.11 1.92a25.63 25.63 0 0 0 0.34 3.53 0.36 0.36 0 0 0 0.71 0Z" fill="#4C57E6" fill-rule="evenodd" stroke-width="1"></path>
    <path d="M16.69 21.26a1.11 1.11 0 0 0 1.61 -0.06 1 1 0 0 0 -0.3 -1.33c-1 -0.52 -2.21 0.49 -1.31 1.39Z" fill="#020202" fill-rule="evenodd" stroke-width="1"></path>
    <path d="M23.66 21.05c-0.25 -1.65 -3.32 -8.2 -4.19 -8.58 -0.17 -0.08 -0.68 -0.09 -0.48 0.46a20.37 20.37 0 0 1 2.33 4.33 35.27 35.27 0 0 1 1.33 3.93 1 1 0 0 1 -0.07 0.57 1.54 1.54 0 0 1 -0.83 0.7c-1.13 0.46 -5 0.41 -6.45 0.22a9.77 9.77 0 0 1 -2.75 -0.68c-1.17 -0.51 -0.3 -1.5 0.19 -2.66 0.71 -1.66 4.08 -7.77 5.31 -7.29a0.31 0.31 0 1 0 0.24 -0.57c-2.14 -0.94 -7.41 8.41 -7.45 9.85A1.77 1.77 0 0 0 12.07 23a10.64 10.64 0 0 0 3.08 0.84c1.59 0.2 5.57 0.24 7 -0.4a2.23 2.23 0 0 0 1.51 -2.39Z" fill="#020202" fill-rule="evenodd" stroke-width="1"></path>
    <path d="M17.28 18.33c0.57 0.29 0.77 -0.86 0.79 -1.51a6.5 6.5 0 0 0 -0.43 -2.28c-0.08 -0.14 -0.42 -0.25 -0.58 0.21a3.68 3.68 0 0 0 -0.24 2.07c0.04 0.84 0.18 1.35 0.46 1.51Z" fill="#020202" fill-rule="evenodd" stroke-width="1"></path>
  </g>
</svg>