<svg xmlns="http://www.w3.org/2000/svg" viewBox="0 0 24 24" id="Mental-Health-Heart-Time-4--Streamline-Freehand">
  <desc>
    Mental Health Heart Time 4 Streamline Icon: https://streamlinehq.com
  </desc>
  <g>
    <g>
      <path d="M23.23 7.56a9.94 9.94 0 0 0 -7.8 -7.2 15.63 15.63 0 0 0 -11.87 3C1.13 5.31 0.07 8.55 -0.1 11.89c-0.27 5.44 2.42 11.12 10 11.9 5 0.52 10.36 -1.56 12.46 -5.5a14.18 14.18 0 0 0 0.87 -10.73Zm-1.86 10.22c-1.88 3.66 -6.85 5.55 -11.42 5.14C2.88 22.29 0.41 17.06 0.68 12 0.85 8.8 2.13 5.62 4.1 3.92 7.25 1.2 11.92 0.8 15.25 1.4c3.55 0.6 5.89 3.26 6.92 6.51a13.2 13.2 0 0 1 -0.8 9.87Z" fill="#020202" stroke-width="1"></path>
      <g>
        <path d="M6.14 6a1.62 1.62 0 0 0 0.2 0.18 1.48 1.48 0 0 0 0.25 0.16c0.61 0.34 0.64 0.27 0.65 0.27a0.27 0.27 0 0 0 0.22 -0.31s0 -0.1 -0.09 -0.17a3.37 3.37 0 0 0 -0.27 -0.34 2.2 2.2 0 0 0 -0.18 -0.28 2 2 0 0 0 -0.26 -0.24c-0.41 -0.35 -1 0.05 -0.7 0.48 0.04 0.08 0.11 0.17 0.18 0.25Z" fill="#4C57E6" stroke-width="1"></path>
        <path d="M11.7 4.48v0.93c0 0.15 0.19 0.26 0.38 0.25a0.38 0.38 0 0 0 0.35 -0.34l0 -0.68v-0.53c0 -0.75 -0.76 -0.69 -0.76 -0.13Z" fill="#4C57E6" stroke-width="1"></path>
        <path d="M16.83 6.12c-0.08 0.11 -0.12 0.23 -0.18 0.32a4.17 4.17 0 0 0 -0.27 0.38c0 0.08 -0.08 0.13 -0.07 0.18a0.27 0.27 0 0 0 0.23 0.3c0.33 0 1 -0.61 1.11 -0.76a1.81 1.81 0 0 0 0.19 -0.29c0.2 -0.33 -0.13 -0.92 -0.75 -0.41a1.73 1.73 0 0 0 -0.26 0.28Z" fill="#4C57E6" stroke-width="1"></path>
        <path d="M18.13 17.49a2.5 2.5 0 0 0 -0.23 -0.23 2.09 2.09 0 0 0 -0.3 -0.21 4.72 4.72 0 0 0 -0.43 -0.27 0.48 0.48 0 0 0 -0.2 -0.06 0.27 0.27 0 0 0 -0.27 0.27 1.25 1.25 0 0 0 0.4 0.6c0.07 0.08 0.12 0.21 0.21 0.33a1.7 1.7 0 0 0 0.29 0.31c0.63 0.49 0.88 -0.25 0.75 -0.43s-0.14 -0.21 -0.22 -0.31Z" fill="#4C57E6" stroke-width="1"></path>
        <path d="M12.51 19.42a4.25 4.25 0 0 0 -0.09 -0.68c0 -0.14 -0.11 -0.27 -0.26 -0.27s-0.24 0.07 -0.34 0.21a1.66 1.66 0 0 0 -0.14 0.5 2.85 2.85 0 0 0 0 0.46 2.14 2.14 0 0 0 0.08 0.44c0.1 0.36 0.78 0.56 0.83 -0.28a2.17 2.17 0 0 0 -0.08 -0.38Z" fill="#4C57E6" stroke-width="1"></path>
        <path d="M6.25 17.5c0.09 -0.13 0.15 -0.26 0.21 -0.35 0.42 -0.61 0.39 -0.53 0.39 -0.63a0.27 0.27 0 0 0 -0.27 -0.27 0.46 0.46 0 0 0 -0.21 0.08c-0.12 0.06 -0.36 0.25 -0.44 0.3a2.61 2.61 0 0 0 -0.3 0.24 1.94 1.94 0 0 0 -0.23 0.26c-0.27 0.35 0.26 1 0.55 0.71a1.59 1.59 0 0 0 0.3 -0.34Z" fill="#4C57E6" stroke-width="1"></path>
        <path d="M4.34 12.41a5.7 5.7 0 0 0 0.91 -0.13 0.27 0.27 0 1 0 0 -0.53c-0.3 -0.06 -0.56 -0.17 -0.85 -0.21a3.3 3.3 0 0 0 -0.63 0 0.42 0.42 0 0 0 0 0.84c0.23 0 0.38 0.03 0.57 0.03Z" fill="#4C57E6" stroke-width="1"></path>
        <path d="M18.65 5.07c-2.6 -2.33 -6.81 -2.7 -9.65 -2.26a7.77 7.77 0 0 0 -6.08 5.63 11.13 11.13 0 0 0 0.71 8.4c1.65 3.09 5.87 4.72 9.76 4.31 9.51 -0.98 9.41 -12.36 5.26 -16.08Zm-5.33 15.38a12.17 12.17 0 0 1 -5 -0.71 7.91 7.91 0 0 1 -4 -3.3 10.54 10.54 0 0 1 -0.63 -7.72 7 7 0 0 1 5.4 -5.08 12.52 12.52 0 0 1 6.27 0.54 7.34 7.34 0 0 1 4.47 4.33 11.64 11.64 0 0 1 0 7.56 7.47 7.47 0 0 1 -6.51 4.38Z" fill="#020202" stroke-width="1"></path>
        <path d="M19.43 11.75c-0.33 0.07 -0.61 0.26 -0.95 0.32a0.27 0.27 0 1 0 0 0.53 3 3 0 0 0 0.95 0.05 4.46 4.46 0 0 1 0.51 -0.07c0.77 -0.2 0.77 -0.66 0 -0.85a1.75 1.75 0 0 0 -0.51 0.02Z" fill="#4C57E6" stroke-width="1"></path>
      </g>
    </g>
    <g>
      <path d="M12.64 13.49s0.02 0.01 0 0Z" fill="#020202" stroke-width="1"></path>
      <path d="M15.83 8a2.73 2.73 0 0 0 -2.15 -0.15 4.75 4.75 0 0 0 -1.9 1.44A5.33 5.33 0 0 0 10.28 8a2 2 0 0 0 -1.78 0.1A3.41 3.41 0 0 0 7.05 10a3.25 3.25 0 0 0 0.23 2.4 7.61 7.61 0 0 0 2.19 2.51L10.94 16l0.49 0.31a0.3 0.3 0 0 0 0.39 -0.15 0.29 0.29 0 0 0 -0.15 -0.39l-0.36 -0.25 -1.39 -1.17a8.94 8.94 0 0 1 -1.23 -1.29l0.76 0.09 0.23 0a0.36 0.36 0 0 0 0.26 -0.08 2 2 0 0 0 0.25 -0.18c0.2 -0.17 0.37 -0.39 0.56 -0.57a1.8 1.8 0 0 1 0.12 0.25c0.08 0.22 0.11 0.42 0.22 0.72a2.54 2.54 0 0 0 0.28 0.59 0.76 0.76 0 0 0 0.35 0.25 0.62 0.62 0 0 0 0.59 -0.1 6.9 6.9 0 0 0 0.51 -0.89 1.37 1.37 0 0 1 0.23 -0.25h0.06l1.62 0 -0.4 0.49c-0.13 0.16 -0.6 0.62 -1.09 1.08s-0.92 0.84 -1.16 1a0.34 0.34 0 0 0 0.41 0.53c0.25 -0.19 0.75 -0.61 1.24 -1s1 -0.93 1.2 -1.1A9.28 9.28 0 0 0 17 10.65 2 2 0 0 0 15.83 8Zm0.25 2.38a5.68 5.68 0 0 1 -0.84 1.76c-0.6 0 -1.63 -0.17 -2.12 -0.2a1.11 1.11 0 0 0 -0.54 0.08 5.13 5.13 0 0 0 -0.57 0.47 2.74 2.74 0 0 0 -0.15 -0.46 2.63 2.63 0 0 0 -0.24 -0.4 3.27 3.27 0 0 0 -0.26 -0.38 0.84 0.84 0 0 0 -0.3 -0.19 0.59 0.59 0 0 0 -0.43 0 2.45 2.45 0 0 0 -0.43 0.4l-0.69 0.86 -1 0h-0.2a2.64 2.64 0 0 1 -0.2 -0.37A2.35 2.35 0 0 1 8 10.29a2.4 2.4 0 0 1 0.81 -1.1 1 1 0 0 1 1 -0.14c0.54 0.23 1.1 1 1.39 1.34a0.71 0.71 0 0 0 0.95 0.18 6.08 6.08 0 0 1 1.54 -1.48 1.76 1.76 0 0 1 1.7 -0.09 1.13 1.13 0 0 1 0.69 1.42Z" fill="#020202" stroke-width="1"></path>
    </g>
  </g>
</svg>