<svg xmlns="http://www.w3.org/2000/svg" viewBox="0 0 24 24" id="Menu-Navigation-Horizontal-Circle--Streamline-Freehand">
  <desc>
    Menu Navigation Horizontal Circle Streamline Icon: https://streamlinehq.com
  </desc>
  <g>
    <path d="M20 11.9a1.56 1.56 0 0 0 -0.16 -1.17 1.92 1.92 0 0 0 -1.22 -0.9 2 2 0 0 0 -1.53 0.27 1.69 1.69 0 0 0 -0.47 2.33 1.84 1.84 0 0 0 2.13 0.8A1.9 1.9 0 0 0 20 11.9Z" fill="#4C57E6" fill-rule="evenodd" stroke-width="1"></path>
    <path d="M14.18 12a1.6 1.6 0 0 0 -0.17 -1.2 2 2 0 0 0 -1.26 -0.93 2.05 2.05 0 0 0 -1.57 0.28 1.76 1.76 0 0 0 -0.49 2.41 1.91 1.91 0 0 0 2.2 0.82A2 2 0 0 0 14.18 12Z" fill="#4C57E6" fill-rule="evenodd" stroke-width="1"></path>
    <path d="M8.64 12a1.67 1.67 0 0 0 -0.16 -1.23 2.08 2.08 0 0 0 -2.92 -0.67 1.79 1.79 0 0 0 -0.5 2.48A2 2 0 0 0 8.64 12Z" fill="#4C57E6" fill-rule="evenodd" stroke-width="1"></path>
    <path d="M23.59 8.6a15.68 15.68 0 0 0 -0.85 -2.39A9.69 9.69 0 0 0 21.41 4a0.36 0.36 0 0 0 -0.49 0 0.35 0.35 0 0 0 0 0.48 8.56 8.56 0 0 1 1.2 2 12.93 12.93 0 0 1 0.77 2.27 11.12 11.12 0 0 1 -6.09 12.89c-4.51 2.22 -10.29 1.68 -13.7 -3.08a10.79 10.79 0 0 1 -1.69 -8.85 11.63 11.63 0 0 1 5.26 -7.44A10.68 10.68 0 0 1 13.23 0.83a13.43 13.43 0 0 1 6.37 2.44 0.3 0.3 0 0 0 0.4 -0.49A14.27 14.27 0 0 0 13.31 0.1a11.46 11.46 0 0 0 -7.08 1.4 12.54 12.54 0 0 0 -5.87 8 11.82 11.82 0 0 0 1.8 9.77c3.8 5.22 10.17 5.83 15.06 3.36A12 12 0 0 0 23.59 8.6Z" fill="#020202" fill-rule="evenodd" stroke-width="1"></path>
  </g>
</svg>