<svg xmlns="http://www.w3.org/2000/svg" viewBox="0 0 24 24" id="Menu-Navigation-2--Streamline-Freehand">
  <desc>
    Menu Navigation 2 Streamline Icon: https://streamlinehq.com
  </desc>
  <g>
    <path d="m22.69 1.48 -1.81 0C16.89 1.62 6.76 2 6.53 2a0.38 0.38 0 0 0 -0.31 0.08 3.54 3.54 0 0 0 -0.6 2.22 6.5 6.5 0 0 0 0.23 1.77 1.1 1.1 0 0 0 0.35 0.55 1.49 1.49 0 0 0 0.44 0.15 6.76 6.76 0 0 0 0.84 0.16l2.31 0.11c1.61 0 4.9 0.09 7.75 0.08s5.3 -0.07 5.32 -0.08a1.24 1.24 0 0 0 0.69 -0.63A5 5 0 0 0 24 4.19c0 -1.19 -0.47 -2.41 -1.31 -2.71Zm-0.06 4.11a1.7 1.7 0 0 1 -0.16 0.33L9.8 6.17l-2.29 0L6.63 6a1.91 1.91 0 0 1 -0.1 -0.23 5.71 5.71 0 0 1 -0.22 -1.87 2.53 2.53 0 0 1 0.27 -1.24c1.09 0 6.83 0 11.12 -0.05l4.32 0 0.28 0 0.13 0a1.64 1.64 0 0 1 0.39 1.13 4.73 4.73 0 0 1 -0.19 1.85Z" fill="#4C57E6" stroke-width="1"></path>
    <path d="M22.31 2.56a0.34 0.34 0 0 0 0.12 0.06 0.24 0.24 0 0 0 -0.12 -0.06Z" fill="#020202" stroke-width="1"></path>
    <path d="m20.32 9.39 -1.65 0 -13 0.43a0.35 0.35 0 0 0 -0.35 0.35 0.36 0.36 0 0 0 0.36 0.35l14.2 -0.09c0.38 0.15 0.46 0.67 0.52 1.22a4.86 4.86 0 0 1 -0.18 1.83 1.52 1.52 0 0 1 -0.17 0.34l-12.66 0.24 -2.3 0 -0.85 -0.14c0 -0.05 -0.1 -0.14 -0.13 -0.23a6 6 0 0 1 -0.22 -1.87 2.2 2.2 0 0 1 0.38 -1.38 0.3 0.3 0 0 0 0 -0.43 0.31 0.31 0 0 0 -0.44 0 3.39 3.39 0 0 0 -0.63 2.21A6.39 6.39 0 0 0 3.48 14a1.09 1.09 0 0 0 0.35 0.56 1.61 1.61 0 0 0 0.44 0.15 7.12 7.12 0 0 0 0.84 0.16l2.32 0.13c1.37 0 4 0.08 6.45 0.09 3.37 0 6.58 -0.09 6.62 -0.1a1.2 1.2 0 0 0 0.68 -0.62 5 5 0 0 0 0.45 -2.24c-0.02 -1.28 -0.48 -2.44 -1.31 -2.74Z" fill="#020202" stroke-width="1"></path>
    <path d="m17.07 16.88 -1.81 0c-4 0.13 -14.12 0.52 -14.35 0.48a0.34 0.34 0 0 0 -0.31 0.09 3.43 3.43 0 0 0 -0.6 2.26 6.5 6.5 0 0 0 0.23 1.77 1.14 1.14 0 0 0 0.35 0.52 2 2 0 0 0 0.44 0.14 5.09 5.09 0 0 0 0.84 0.16l2.31 0.11c1.61 0 4.89 0.09 7.75 0.08s5.29 -0.07 5.32 -0.08a1.28 1.28 0 0 0 0.69 -0.63 5 5 0 0 0 0.45 -2.23c-0.02 -1.2 -0.48 -2.37 -1.31 -2.67ZM17 21a1.7 1.7 0 0 1 -0.16 0.33l-12.67 0.25 -2.29 0 -0.88 -0.17a1.38 1.38 0 0 1 -0.11 -0.24 6.31 6.31 0 0 1 -0.21 -1.87A2.64 2.64 0 0 1 1 18.06l11.11 0 4.33 0 0.28 0 0.13 0a1.69 1.69 0 0 1 0.39 1.13A4.93 4.93 0 0 1 17 21Z" fill="#4C57E6" stroke-width="1"></path>
    <path d="M16.69 18a0.27 0.27 0 0 0 0.12 0.06 0.3 0.3 0 0 0 -0.12 -0.06Z" fill="#020202" stroke-width="1"></path>
  </g>
</svg>