<svg xmlns="http://www.w3.org/2000/svg" viewBox="0 0 24 24" id="Messages-People-Woman-Clock--Streamline-Freehand">
  <desc>
    Messages People Woman Clock Streamline Icon: https://streamlinehq.com
  </desc>
  <g>
    <path d="M13.47 18.9c-0.27 -0.07 -0.58 -0.43 -0.85 -0.82a3.75 3.75 0 0 1 -0.6 -1.15c-0.36 -1.41 0.17 -3.34 -0.51 -5.11A5.2 5.2 0 0 0 9 9.12a4 4 0 0 0 -3.13 -0.35 4.77 4.77 0 0 0 -2.5 1.85 7.27 7.27 0 0 0 -0.74 1.45 7.54 7.54 0 0 0 -0.41 1.56c-0.13 1.13 0.08 2.31 -0.11 3.35a2.36 2.36 0 0 1 -1 1.6 2.3 2.3 0 0 1 -0.4 0.23 1.8 1.8 0 0 1 -0.43 0.19 0.35 0.35 0 0 0 -0.25 0.19 0.31 0.31 0 0 0 0 0.31 3.8 3.8 0 0 0 0.65 0.75 1.53 1.53 0 0 0 0.67 0.36 0.3 0.3 0 1 0 0.1 -0.59 1.12 1.12 0 0 1 -0.45 -0.38l-0.15 -0.16 0.09 0q0.25 -0.12 0.51 -0.27a3.09 3.09 0 0 0 1.44 -2 7.73 7.73 0 0 0 0.16 -1.54 4.47 4.47 0 0 0 0.6 1.73A4.74 4.74 0 0 0 5.27 19a7.35 7.35 0 0 0 -3.34 2.13 5.64 5.64 0 0 0 -0.59 0.84 8.51 8.51 0 0 0 -0.63 1.36 0.3 0.3 0 0 0 0.55 0.23 8.81 8.81 0 0 1 0.56 -1 4.74 4.74 0 0 1 0.7 -0.85 7 7 0 0 1 3.17 -1.64 5.84 5.84 0 0 1 3.48 0.14A4.44 4.44 0 0 1 11 21.5a7.62 7.62 0 0 1 1.24 2 0.33 0.33 0 0 0 0.44 0.2 0.35 0.35 0 0 0 0.2 -0.44A8.49 8.49 0 0 0 11.66 21a5.39 5.39 0 0 0 -2.11 -1.72l-0.48 -0.15a4.35 4.35 0 0 0 0.79 -0.56A5.74 5.74 0 0 0 11 16.83c0 -0.06 0.05 -0.12 0.08 -0.19a3.82 3.82 0 0 0 0.11 0.51 5.16 5.16 0 0 0 1 1.64 3.19 3.19 0 0 0 0.71 0.64l-0.1 0.15a0.87 0.87 0 0 1 -0.33 0.27 0.34 0.34 0 0 0 0.23 0.64 1.32 1.32 0 0 0 0.55 -0.36 2.6 2.6 0 0 0 0.46 -0.72 0.34 0.34 0 0 0 0 -0.31 0.35 0.35 0 0 0 -0.24 -0.2Zm-3.2 -2.46a4.85 4.85 0 0 1 -1.09 1.3 3 3 0 0 1 -0.86 0.48 3.54 3.54 0 0 1 -1 0.2 2.52 2.52 0 0 1 -0.72 -0.07 3.72 3.72 0 0 1 -0.73 -0.23 3.9 3.9 0 0 1 -1.5 -1.24 3.65 3.65 0 0 1 -0.7 -1.66c0.64 0 1.29 0.09 1.95 0.11l1.29 0c0.43 0 0.86 0 1.29 -0.08 0.85 -0.07 1.7 -0.17 2.56 -0.27a3.85 3.85 0 0 1 -0.49 1.46Zm-1.13 -2.25a3.21 3.21 0 0 0 0 -0.54 9.14 9.14 0 0 0 -0.2 -1 0.3 0.3 0 1 0 -0.6 0.05 9.2 9.2 0 0 0 -0.05 1 3.71 3.71 0 0 0 0.06 0.45H6.89c-0.43 0 -0.85 0 -1.28 0.06 -0.83 0.07 -1.65 0.16 -2.47 0.25a5.53 5.53 0 0 1 0.07 -0.7 6.5 6.5 0 0 1 0.41 -1.31 6.4 6.4 0 0 1 0.65 -1.2 3.67 3.67 0 0 1 1.92 -1.37 2.93 2.93 0 0 1 2.27 0.23 4.27 4.27 0 0 1 2.08 2.1 6.3 6.3 0 0 1 0.43 2Z" fill="#020202" stroke-width="1"></path>
    <path d="M18.94 9a4.16 4.16 0 0 0 1.19 -3.72 3.84 3.84 0 0 0 -1.35 -2.13 3.27 3.27 0 0 0 -2.38 -0.76 0.34 0.34 0 1 0 0.05 0.67 2.57 2.57 0 0 1 1.82 0.69 2.9 2.9 0 0 1 0.95 1.69 3.18 3.18 0 0 1 -1 2.77 3.29 3.29 0 0 1 -2.78 0.94 2.79 2.79 0 0 1 -1.46 -0.78 2.86 2.86 0 0 1 -0.83 -1.47 3.09 3.09 0 0 1 0.13 -1.5A3.54 3.54 0 0 1 14 4.08a3.72 3.72 0 0 1 0.82 -0.63 2.77 2.77 0 0 1 1 -0.34 0.3 0.3 0 0 0 -0.05 -0.59 3.19 3.19 0 0 0 -1.21 0.34 4.2 4.2 0 0 0 -2.12 2.28 3.94 3.94 0 0 0 -0.29 2 3.73 3.73 0 0 0 1 2.08 3.68 3.68 0 0 0 2.06 1.13A4.31 4.31 0 0 0 18.94 9Z" fill="#020202" stroke-width="1"></path>
    <path d="M16.15 4.35a0.3 0.3 0 0 0 -0.33 0.26c0 0.22 -0.17 1 -0.2 1.5a1.26 1.26 0 0 0 0.09 0.59 0.54 0.54 0 0 0 0.44 0.21c0.32 0 1.08 -0.08 1.28 -0.1a0.34 0.34 0 1 0 0 -0.67l-1 0 0 -1.45a0.3 0.3 0 0 0 -0.28 -0.34Z" fill="#020202" stroke-width="1"></path>
    <path d="M24 5.48c0 -0.85 0 -2.92 -0.05 -3.81a1.25 1.25 0 0 0 -0.29 -0.79 5.46 5.46 0 0 0 -2 -0.44c-1.22 -0.13 -2.84 -0.2 -4 -0.2 -0.46 0 -4.33 0 -6.6 0.17A4.68 4.68 0 0 0 9.21 0.8a0.66 0.66 0 0 0 -0.21 0.31 7.31 7.31 0 0 0 -0.16 1.3c-0.09 1.76 0 4.71 0 5.4a0.34 0.34 0 0 0 0.34 0.34 0.34 0.34 0 0 0 0.34 -0.34c0 -0.53 0 -2.39 0.1 -4 0 -0.84 0.09 -1.62 0.16 -2.1 0 -0.11 0.05 -0.22 0.06 -0.29s0.24 0 0.36 0c0.6 -0.08 1.54 -0.11 2.57 -0.13 2.11 0 4.54 0 4.89 0.05 1 0 2.25 0.1 3.35 0.21 0.71 0.07 1.33 0.15 1.72 0.23l0.07 0c0.08 0.86 0 2.87 0 3.69 0 0.5 0.07 2.25 0.08 3.78a17.05 17.05 0 0 1 -0.08 1.94 2.6 2.6 0 0 1 0 0.26 5.67 5.67 0 0 0 -0.7 0l-1.08 0c-1 0 -2.16 -0.15 -2.69 -0.12a0.87 0.87 0 0 0 -0.59 0.22c-0.24 0.28 -0.49 0.94 -0.92 1.66a5 5 0 0 1 -0.68 0.91 2.17 2.17 0 0 1 -1.62 0.72c-0.08 -0.55 0 -2.08 0 -2.73a1.21 1.21 0 0 0 -0.07 -0.41 0.32 0.32 0 0 0 -0.24 -0.2 0.3 0.3 0 0 0 -0.34 0.25s0 3.36 0.06 3.5a0.44 0.44 0 0 0 0.32 0.25 2.2 2.2 0 0 0 1 0 3 3 0 0 0 1.42 -0.8 6.22 6.22 0 0 0 0.82 -1c0.38 -0.58 0.6 -1.13 0.81 -1.42h0.05c0.5 0 1.59 0.13 2.58 0.21a10.11 10.11 0 0 0 1.66 0 1.64 1.64 0 0 0 1 -0.34 3.12 3.12 0 0 0 0.41 -1.6c0.06 -1.66 0 -4.43 0 -5.07Z" fill="#4C57E6" stroke-width="1"></path>
  </g>
</svg>