<svg xmlns="http://www.w3.org/2000/svg" viewBox="0 0 24 24" id="Messages-Bubble-Settings--Streamline-Freehand">
  <desc>
    Messages Bubble Settings Streamline Icon: https://streamlinehq.com
  </desc>
  <g>
    <path d="M24 9.6c-0.09 -2 -1.61 -4.82 -4.19 -6.88A12.25 12.25 0 0 0 12.2 0a12.36 12.36 0 0 0 -8.12 2.83 11.33 11.33 0 0 0 -4 7.6c-0.18 3.06 0.3 4.85 1.37 6.08s2.94 2 5.48 2.85c0.09 0 0.12 0.15 0.17 0.3a3.56 3.56 0 0 1 0 1.55 4.44 4.44 0 0 1 -0.9 2.08 0.43 0.43 0 0 0 0.36 0.69 5.55 5.55 0 0 0 0.88 -0.05A8.79 8.79 0 0 0 11 22.77a5.4 5.4 0 0 0 1 -0.95c0.69 -0.84 1.28 -1.9 1.62 -2.34 0.41 0 1.4 0 2.44 -0.13a13.44 13.44 0 0 0 1.76 -0.3 8.35 8.35 0 0 0 4.86 -3.56A10 10 0 0 0 24 9.6Zm-2 5.48a7.54 7.54 0 0 1 -4.35 3.32 11.92 11.92 0 0 1 -1.66 0.31c-1.32 0.16 -2.4 -0.07 -2.73 0.17s-0.92 1.33 -1.56 2.16a5.3 5.3 0 0 1 -1.09 1.12 7.8 7.8 0 0 1 -3.25 1A5.76 5.76 0 0 0 8 20.81a3.61 3.61 0 0 0 -0.18 -1.59 1.12 1.12 0 0 0 -0.64 -0.7c-2.33 -0.85 -4 -1.46 -5 -2.66s-1.25 -2.68 -1 -5.36a10.21 10.21 0 0 1 3.7 -6.79 11.35 11.35 0 0 1 7.4 -2.56 11.21 11.21 0 0 1 6.94 2.4c2.35 1.82 3.81 4.3 3.93 6.1a9.16 9.16 0 0 1 -1.21 5.43Z" fill="#020202" stroke-width="1"></path>
    <path d="M18.9 7.56a1.86 1.86 0 0 0 -0.29 -0.65 7 7 0 0 0 -0.85 -1 4 4 0 0 0 -0.91 -0.68 1.15 1.15 0 0 0 -0.68 -0.1 1.69 1.69 0 0 0 -0.63 0.36c-0.36 0.29 -0.87 0.74 -1.24 1a2.57 2.57 0 0 0 -0.3 -0.3 5.07 5.07 0 0 0 -0.54 -0.36l0 -1.15a2 2 0 0 0 -0.17 -0.76 1.07 1.07 0 0 0 -0.75 -0.41 7.71 7.71 0 0 0 -1.54 0.12 4.59 4.59 0 0 0 -0.92 0.11 1 1 0 0 0 -0.46 0.26 0.73 0.73 0 0 0 -0.1 0.47c0 0.37 0.13 1.13 0.2 1.63a4.74 4.74 0 0 0 -0.78 0.33 1.6 1.6 0 0 0 -0.37 0.25 9.47 9.47 0 0 0 -1 -0.92A1.15 1.15 0 0 0 7 5.55a0.74 0.74 0 0 0 -0.42 0.24c-0.16 0.17 -0.38 0.46 -0.59 0.68a3.75 3.75 0 0 0 -0.59 0.92 1 1 0 0 0 -0.08 0.67 0.87 0.87 0 0 0 0.28 0.35c0.3 0.25 1 0.67 1.35 1a2.22 2.22 0 0 0 -0.08 0.68 2.73 2.73 0 0 0 0 0.5 5.26 5.26 0 0 0 -1.2 0.62 1.18 1.18 0 0 0 -0.52 1 1.24 1.24 0 0 0 0.12 0.41c0.14 0.29 0.44 0.63 0.54 0.84a4.28 4.28 0 0 0 0.66 1 1 1 0 0 0 0.75 0.32 1.35 1.35 0 0 0 0.72 -0.26 4.17 4.17 0 0 0 0.53 -0.41 4.56 4.56 0 0 0 0.42 0.31 4.52 4.52 0 0 0 0.83 0.4A9.12 9.12 0 0 0 9.6 16a1.94 1.94 0 0 0 0.14 1 0.91 0.91 0 0 0 0.65 0.3 16.51 16.51 0 0 0 2.27 -0.07 3.47 3.47 0 0 0 0.68 -0.11 0.6 0.6 0 0 0 0.42 -0.59l-0.06 -1.39a3.67 3.67 0 0 0 0.48 -0.25 5 5 0 0 0 0.64 -0.46c0.32 0.33 0.74 0.7 0.84 0.79a0.86 0.86 0 0 0 0.94 0.11 8.39 8.39 0 0 0 1.24 -1 2.57 2.57 0 0 0 0.64 -0.85 2.11 2.11 0 0 0 0.22 -1.06 1.24 1.24 0 0 0 -0.41 -0.78c-0.34 -0.33 -0.94 -0.69 -1.33 -1A2.26 2.26 0 0 0 17 10a2 2 0 0 0 -0.09 -0.47 14.87 14.87 0 0 0 1.49 -1.09 1.24 1.24 0 0 0 0.5 -0.88ZM16 8.9a0.52 0.52 0 0 0 -0.2 0.64 1.76 1.76 0 0 1 0.14 0.57 1.46 1.46 0 0 1 -0.07 0.54 0.54 0.54 0 0 0 0.15 0.55c0.37 0.36 1.6 1.3 1.6 1.29a1.31 1.31 0 0 1 -0.48 0.91c-0.31 0.27 -0.79 0.47 -0.93 0.66l-0.8 -0.78a0.58 0.58 0 0 0 -0.94 -0.11 3.82 3.82 0 0 1 -0.69 0.58 2.24 2.24 0 0 1 -0.73 0.36 0.58 0.58 0 0 0 -0.48 0.58l0.02 1.31a15.06 15.06 0 0 1 -1.89 0.1 7.7 7.7 0 0 1 0.16 -1.55 0.54 0.54 0 0 0 -0.37 -0.65 6.22 6.22 0 0 1 -0.89 -0.35 1.32 1.32 0 0 1 -0.6 -0.41 0.55 0.55 0 0 0 -0.33 -0.27 0.48 0.48 0 0 0 -0.42 0.07c-0.2 0.13 -0.49 0.42 -0.78 0.64 -0.11 0.08 -0.2 0.18 -0.29 0.18s0 0 -0.08 -0.08a1.84 1.84 0 0 1 -0.1 -0.22c-0.12 -0.18 -0.21 -0.37 -0.28 -0.49l-0.58 -0.87s0 -0.09 0.1 -0.13a1.61 1.61 0 0 1 0.38 -0.27 7.34 7.34 0 0 1 1 -0.44 0.45 0.45 0 0 0 0.26 -0.56 2.1 2.1 0 0 1 -0.14 -0.65 1.34 1.34 0 0 1 0.1 -0.59 0.43 0.43 0 0 0 -0.11 -0.46 3.87 3.87 0 0 0 -0.59 -0.49c-0.35 -0.24 -0.79 -0.51 -1 -0.7 0.06 -0.09 0.06 -0.3 0.14 -0.43A2.71 2.71 0 0 1 6.52 7a4 4 0 0 1 0.62 -0.66c0.09 0.06 0.19 0.16 0.31 0.26 0.34 0.3 0.69 0.68 0.93 0.85a0.34 0.34 0 0 0 0.29 0.07 0.36 0.36 0 0 0 0.25 -0.18 0.86 0.86 0 0 1 0.36 -0.34 6.46 6.46 0 0 1 0.87 -0.39 0.3 0.3 0 0 0 0.25 -0.34s-0.21 -1.44 -0.24 -1.89l0.19 -0.05a6.49 6.49 0 0 1 0.72 0c0.39 0 0.8 -0.11 1.14 -0.1a0.48 0.48 0 0 1 0.42 0.15V6a0.4 0.4 0 0 0 0.23 0.42 2.46 2.46 0 0 1 0.57 0.38 2.21 2.21 0 0 1 0.44 0.52 0.42 0.42 0 0 0 0.27 0.18 0.38 0.38 0 0 0 0.31 -0.07L16.3 6c0.12 0 0.23 0.07 0.34 0.15a4.15 4.15 0 0 1 0.48 0.43 5.76 5.76 0 0 1 0.49 0.59 3.34 3.34 0 0 1 0.26 0.4A16 16 0 0 1 16 8.9Z" fill="#4C57E6" stroke-width="1"></path>
    <path d="M12.77 8.74a2 2 0 0 0 -0.33 -0.08c-1.62 -0.22 -2.11 0.39 -2.35 1.14a1.55 1.55 0 0 0 1.15 2 2 2 0 0 0 1.34 -0.28 2.48 2.48 0 0 0 0.86 -0.91 1.44 1.44 0 0 0 0.13 -1.13 1.18 1.18 0 0 0 -0.8 -0.74Zm-0.19 1.38a1.55 1.55 0 0 1 -0.57 0.46 0.85 0.85 0 0 1 -0.57 0.13c-0.48 -0.05 -0.54 -0.57 -0.39 -0.94 0.29 -0.69 0.77 -0.49 1.43 -0.31a0.4 0.4 0 0 1 0.23 0.3 0.49 0.49 0 0 1 -0.13 0.36Z" fill="#4C57E6" stroke-width="1"></path>
  </g>
</svg>