<svg xmlns="http://www.w3.org/2000/svg" viewBox="0 0 24 24" id="Messages-Bubble-Square-Quote--Streamline-Freehand">
  <desc>
    Messages Bubble Square Quote Streamline Icon: https://streamlinehq.com
  </desc>
  <g>
    <path d="M6.4 6a1.59 1.59 0 0 0 0.87 2 1.83 1.83 0 0 0 2.31 -0.75A1.72 1.72 0 1 0 6.4 6Zm2.51 0.5a0.81 0.81 0 0 1 -1.12 0.5 0.6 0.6 0 0 1 -0.31 -1c0.86 -1.1 1.52 0.15 1.43 0.5Z" fill="#4C57E6" stroke-width="1"></path>
    <path d="M8.48 10.39a1.59 1.59 0 0 0 -1.46 0 1.39 1.39 0 0 0 -0.71 1.49A1.23 1.23 0 0 0 7.48 13a1.77 1.77 0 0 0 1.06 -0.4l0.06 -0.05a2.48 2.48 0 0 1 0 1.12 2.25 2.25 0 0 1 -0.83 1.19 0.34 0.34 0 0 0 -0.09 0.48 0.35 0.35 0 0 0 0.48 0.08 3 3 0 0 0 1.27 -1.46 3.62 3.62 0 0 0 0.17 -2 2.31 2.31 0 0 0 -1.12 -1.57ZM8.11 12a0.89 0.89 0 0 1 -0.58 0.13c-0.17 0 -0.2 -0.21 -0.21 -0.37a0.32 0.32 0 0 1 0.19 -0.33 0.52 0.52 0 0 1 0.56 0.08 1.5 1.5 0 0 1 0.27 0.29 1.07 1.07 0 0 1 -0.23 0.2Z" fill="#4C57E6" stroke-width="1"></path>
    <path d="M16.49 7.72a5.8 5.8 0 0 0 -3 -3.27 0.31 0.31 0 0 0 -0.41 0.13 0.3 0.3 0 0 0 0.13 0.41 5.23 5.23 0 0 1 2.2 3.09 7.48 7.48 0 0 1 0.31 1.62 7.66 7.66 0 0 1 0 1.66 3.94 3.94 0 0 1 -1.85 3.13 0.34 0.34 0 1 0 0.29 0.62 4.66 4.66 0 0 0 2.62 -3.57 6.54 6.54 0 0 0 0.11 -1.93 6.73 6.73 0 0 0 -0.4 -1.89Z" fill="#4C57E6" stroke-width="1"></path>
    <path d="M23.83 2.8a9.82 9.82 0 0 0 -0.14 -1.47 0.91 0.91 0 0 0 -0.25 -0.47A1.34 1.34 0 0 0 23 0.67a17.27 17.27 0 0 0 -2.12 -0.26C18.12 0.18 13.59 0 11.77 0c-0.54 0 -4.64 0 -7.67 0.1a22.72 22.72 0 0 0 -2.67 0.25 2 2 0 0 0 -0.86 0.32 0.88 0.88 0 0 0 -0.23 0.38 9.39 9.39 0 0 0 -0.21 1.7C0 5.07 0 9 0 9.87s0.13 4.62 0.26 6.89c0 0.73 0.08 1.3 0.12 1.57a0.71 0.71 0 0 0 0.14 0.38 1.86 1.86 0 0 0 1 0.41 10.72 10.72 0 0 0 2.15 0c0.77 -0.07 1.43 -0.13 2 -0.13 1.54 0 1.41 0.37 1.46 0.56a4.12 4.12 0 0 1 0 1.67 4.89 4.89 0 0 1 -1 2.2 0.38 0.38 0 0 0 0.35 0.59 5 5 0 0 0 1.16 -0.15 5.6 5.6 0 0 0 2.69 -1.31 9.45 9.45 0 0 0 1 -1.34c0.5 -0.79 0.8 -1.52 1.08 -1.92 0.09 0 0.33 -0.07 0.57 -0.07 1.65 0 5.52 0.17 6.9 0.28a16.13 16.13 0 0 0 2.19 0 2 2 0 0 0 1.17 -0.4 5.3 5.3 0 0 0 0.48 -2.23C24 14.27 24 9.86 24 9s-0.06 -4.24 -0.17 -6.2Zm-1 13.06a18.8 18.8 0 0 1 -0.17 2.28c0 0.12 -0.07 0.26 -0.08 0.31a0.76 0.76 0 0 1 -0.25 0.06 6.78 6.78 0 0 1 -0.83 0.07l-1.46 0c-1.21 -0.07 -4.31 -0.18 -6.2 -0.17a11.57 11.57 0 0 0 -1.45 0.06 0.63 0.63 0 0 0 -0.4 0.18c-0.32 0.37 -0.64 1.24 -1.22 2.18A7.32 7.32 0 0 1 9.84 22a5.13 5.13 0 0 1 -2.73 1.24 6.05 6.05 0 0 0 0.76 -2.47c0.23 -2.66 -1.34 -2.5 -2.13 -2.51 -0.58 0 -1.27 0 -2.07 0.11a11.23 11.23 0 0 1 -1.7 0 1.63 1.63 0 0 1 -0.87 -0.22L0.9 9.87c0 -0.71 0 -3.16 0.11 -5.3 0 -1.11 0.11 -2.14 0.2 -2.78a3.79 3.79 0 0 1 0.08 -0.43c0.13 0 0.34 0 0.51 -0.05a32.1 32.1 0 0 1 3.43 -0.19c2.82 -0.06 6.06 0 6.53 0 1.36 0 4.26 0.12 6.78 0.27 1.44 0.09 2.75 0.19 3.58 0.29l0.47 0.08a3.09 3.09 0 0 1 0 0.35c0.16 1.7 0.23 5.77 0.22 6.88 0.05 0.76 0.12 4.26 0.03 6.87Z" fill="#020202" stroke-width="1"></path>
  </g>
</svg>