<svg xmlns="http://www.w3.org/2000/svg" viewBox="0 0 24 24" id="Messages-Bubble-Typing-1--Streamline-Freehand">
  <desc>
    Messages Bubble Typing 1 Streamline Icon: https://streamlinehq.com
  </desc>
  <g>
    <path d="M23 6.26a8.36 8.36 0 0 0 -3.38 -3.68 11.16 11.16 0 0 0 -3.34 -1.24A23.05 23.05 0 0 0 11.05 1c-0.5 0 -1 0 -1.51 0.1A9.59 9.59 0 0 0 8 1.42 11.53 11.53 0 0 0 6.47 2c-0.48 0.23 -1 0.49 -1.43 0.77A15.84 15.84 0 0 0 3.1 4.06 7.23 7.23 0 0 0 2 5.19a10.62 10.62 0 0 0 -0.81 1.15 6.8 6.8 0 0 0 -0.59 1.3A9.06 9.06 0 0 0 0 9.81a4.5 4.5 0 0 0 0.12 1.55A7.85 7.85 0 0 0 2.31 15a11.54 11.54 0 0 0 3.38 2.27l0 0.72c0 0.46 0.05 0.92 0.07 1.38l0.09 2.06 0 0.72a1.74 1.74 0 0 0 0.11 0.45 0.67 0.67 0 0 0 0.43 0.37 1.85 1.85 0 0 0 0.53 0 2.47 2.47 0 0 0 0.59 -0.22 6.46 6.46 0 0 0 0.67 -0.44c0.26 -0.2 0.52 -0.41 0.77 -0.63 1 -0.85 1.85 -1.79 2.86 -2.6l1.31 -0.14a45.85 45.85 0 0 0 5.91 -1 7.32 7.32 0 0 0 3.54 -2.16 5.56 5.56 0 0 0 1.14 -2.26 9.37 9.37 0 0 0 0.29 -2.44 11.5 11.5 0 0 0 -1 -4.82Zm-0.14 7a4.7 4.7 0 0 1 -0.91 1.9 6.49 6.49 0 0 1 -3.09 2A46.27 46.27 0 0 1 13 18.23l-1.47 0.19c-0.1 0 -4.38 3.23 -4.57 3.32H7l-0.38 -2.44c-0.07 -0.45 -0.17 -0.9 -0.24 -1.35a6.38 6.38 0 0 1 -0.07 -0.87 0.29 0.29 0 0 0 -0.31 -0.31 18.72 18.72 0 0 1 -3.2 -2.24 7.2 7.2 0 0 1 -1.89 -3.36A3.62 3.62 0 0 1 0.85 9.9a8.88 8.88 0 0 1 0.53 -2 6.49 6.49 0 0 1 0.55 -1.12 10.58 10.58 0 0 1 0.77 -1 5.72 5.72 0 0 1 1 -0.94 13.81 13.81 0 0 1 1.86 -1.15c0.45 -0.25 0.9 -0.48 1.37 -0.69a9.33 9.33 0 0 1 1.4 -0.51 8.32 8.32 0 0 1 1.34 -0.26 11.16 11.16 0 0 1 1.4 -0.08 22 22 0 0 1 4.93 0.32 9.78 9.78 0 0 1 3 1.1 7.3 7.3 0 0 1 3 3.17 10.65 10.65 0 0 1 1 4.36 8.47 8.47 0 0 1 -0.18 2.2Z" fill="#020202" stroke-width="1"></path>
    <path d="M5.22 9.23a1.52 1.52 0 0 0 1 1.92 2.59 2.59 0 0 0 0.45 0.14l0.46 0a1.63 1.63 0 0 0 1.62 -1.53c0.07 -2.37 -2.92 -2.27 -3.53 -0.53Zm2.61 0.45c0 0.31 -0.32 0.51 -0.77 0.5l-0.41 -0.09c-0.46 -0.17 -0.54 -0.53 -0.37 -0.82 0.52 -0.94 1.72 -0.77 1.55 0.41Z" fill="#4C57E6" stroke-width="1"></path>
    <path d="M10.81 9.19a1.55 1.55 0 0 0 0.93 2.26 2.7 2.7 0 0 0 0.95 0.14 1.57 1.57 0 0 0 0.74 -0.23 1.5 1.5 0 0 0 0.68 -1.5 1.73 1.73 0 0 0 -3.3 -0.67Zm2.06 1.22a0.54 0.54 0 0 1 -0.31 0 1.63 1.63 0 0 1 -0.46 -0.09 0.56 0.56 0 0 1 -0.42 -0.78c0.28 -0.82 1.24 -1 1.49 0.16a0.58 0.58 0 0 1 -0.3 0.71Z" fill="#4C57E6" stroke-width="1"></path>
    <path d="M18.75 9.46a0.39 0.39 0 0 0 -0.08 -0.1 2 2 0 0 0 -0.88 -0.51 1.67 1.67 0 0 0 -1.11 0.09 1.88 1.88 0 0 0 -1.13 1.32 1.35 1.35 0 0 0 0.5 1.27 2.22 2.22 0 0 0 1.1 0.49 1.78 1.78 0 0 0 1.23 -0.25 1.92 1.92 0 0 0 0.74 -1.26 1.12 1.12 0 0 0 -0.33 -1Zm-0.45 1a1 1 0 0 1 -0.42 0.45 0.84 0.84 0 0 1 -0.54 0 1.26 1.26 0 0 1 -0.53 -0.26 0.32 0.32 0 0 1 -0.12 -0.35 1 1 0 0 1 0.41 -0.56 0.87 0.87 0 0 1 0.55 -0.17c0.49 0.06 0.88 0.43 0.65 0.92Z" fill="#4C57E6" stroke-width="1"></path>
  </g>
</svg>