<svg xmlns="http://www.w3.org/2000/svg" viewBox="0 0 24 24" id="Messages-People-User-Skull--Streamline-Freehand">
  <desc>
    Messages People User Skull Streamline Icon: https://streamlinehq.com
  </desc>
  <g>
    <path d="M7.63 7.91A3.69 3.69 0 0 0 7 7.7a4.11 4.11 0 0 0 1.28 -1.64C9.93 2.37 4.78 1 2.69 3.54c-1 1.28 -1.22 3.06 0.25 4.15a4.76 4.76 0 0 0 0.61 0.31 5.69 5.69 0 0 0 -2 1.74 9 9 0 0 0 -1.28 3.19 7.9 7.9 0 0 0 -0.05 3.38 1.45 1.45 0 0 0 1.43 1.15 1.72 1.72 0 0 0 0.78 -0.21 22.13 22.13 0 0 0 0 2.73 12.93 12.93 0 0 0 0.35 2.32A2.21 2.21 0 0 0 5.05 24a2.6 2.6 0 0 0 2.26 -1.58 5.82 5.82 0 0 0 0.4 -1.7c0.11 -1 0.1 -2.13 0.13 -3.3l0.27 0a1.77 1.77 0 0 0 1.7 -1.52 14 14 0 0 0 0 -5.1 4 4 0 0 0 -2.18 -2.89ZM3.42 4.09c1.62 -2.32 5.05 -0.67 4 1.55a2.83 2.83 0 0 1 -1.7 1.52 2.42 2.42 0 0 1 -2.12 -0.41c-0.99 -0.64 -0.78 -1.75 -0.18 -2.66Zm5.5 11.71a0.9 0.9 0 0 1 -0.83 0.81c-0.37 0 -0.72 -0.25 -0.79 -0.84a11.19 11.19 0 0 1 -0.1 -1.2l0 -1.22a0.33 0.33 0 0 0 -0.35 -0.35 0.34 0.34 0 0 0 -0.35 0.33l0 1.26c0 0.42 0 0.87 0.07 1.27a1.75 1.75 0 0 0 0.6 1.25c-0.1 1 -0.16 2.06 -0.29 3A5.9 5.9 0 0 1 6.34 22a1.53 1.53 0 0 1 -1.34 0.85A1.14 1.14 0 0 1 3.88 22a14.31 14.31 0 0 1 -0.59 -2.66 23.92 23.92 0 0 1 -0.21 -2.68s0 -0.06 0.07 -0.1a3.88 3.88 0 0 0 0.46 -1.38 13.87 13.87 0 0 0 0.07 -2 0.29 0.29 0 0 0 -0.29 -0.3 0.29 0.29 0 0 0 -0.31 0.29 14.07 14.07 0 0 1 -0.14 1.94 3.07 3.07 0 0 1 -0.42 1.11 1 1 0 0 1 -0.86 0.49 0.65 0.65 0 0 1 -0.6 -0.56 6.73 6.73 0 0 1 0.2 -2.94 8.06 8.06 0 0 1 1.14 -2.77 4.58 4.58 0 0 1 2.17 -1.59A3.66 3.66 0 0 1 7.19 9a3 3 0 0 1 1.63 2.13 13 13 0 0 1 0.1 4.67Z" fill="#020202" stroke-width="1"></path>
    <path d="M23.84 4.67c0 -0.64 0 -2.09 -0.06 -3a3.93 3.93 0 0 0 -0.09 -0.67 0.46 0.46 0 0 0 -0.15 -0.3 2.91 2.91 0 0 0 -1 -0.47A6.79 6.79 0 0 0 21 0a0.34 0.34 0 0 0 -0.36 0.32 0.34 0.34 0 0 0 0.36 0.36 5.78 5.78 0 0 1 1.35 0.24 2.72 2.72 0 0 1 0.65 0.29 0.88 0.88 0 0 1 0 0.17c0.06 0.77 0 2.55 0 3.28l0 3.35c0 0.57 0 1.11 -0.09 1.51l0 0.26a9 9 0 0 1 -1.56 0.06c-0.93 -0.08 -1.93 -0.19 -2.4 -0.18a0.9 0.9 0 0 0 -0.65 0.25c-0.22 0.25 -0.46 0.83 -0.86 1.47a4.89 4.89 0 0 1 -0.59 0.76 2.37 2.37 0 0 1 -1 0.55 4.54 4.54 0 0 0 0.25 -1.11 2.72 2.72 0 0 0 -0.2 -1.41 1 1 0 0 0 -0.49 -0.45 3.17 3.17 0 0 0 -1.09 -0.16c-0.4 0 -0.86 0 -1.4 0.1a6.7 6.7 0 0 1 -0.91 0.05 3.37 3.37 0 0 1 -0.49 -0.05l0 -0.18c-0.11 -1.07 -0.24 -3.66 -0.26 -4.26s0 -1.63 0 -2.65a9.31 9.31 0 0 1 0.1 -1.37c0 -0.06 0.06 -0.14 0.05 -0.17a2.65 2.65 0 0 1 0.53 -0.12 9.45 9.45 0 0 1 1.13 -0.09 0.29 0.29 0 0 0 0.3 -0.3 0.3 0.3 0 0 0 -0.3 -0.3 9.84 9.84 0 0 0 -1.45 0.09 1.55 1.55 0 0 0 -0.73 0.25 2.12 2.12 0 0 0 -0.31 1.08c-0.13 1.11 -0.16 3 -0.17 3.58s0 3.25 0.1 4.34a1.76 1.76 0 0 0 0.19 0.78 1.49 1.49 0 0 0 0.84 0.36 7.59 7.59 0 0 0 1.48 0 13.09 13.09 0 0 1 1.31 -0.06 2.12 2.12 0 0 1 0.59 0.07A1.7 1.7 0 0 1 15 11a3.3 3.3 0 0 1 -0.12 1 2.76 2.76 0 0 1 -0.51 1 0.58 0.58 0 0 0 0.34 0.95 1.75 1.75 0 0 0 0.41 0 4.5 4.5 0 0 0 2.55 -1.08 5.61 5.61 0 0 0 0.73 -0.95c0.3 -0.48 0.48 -0.94 0.65 -1.21 0.46 0 1.37 0.07 2.21 0.12a8.9 8.9 0 0 0 1.48 0 1.52 1.52 0 0 0 0.88 -0.33 2.86 2.86 0 0 0 0.33 -1.41c0.05 -1.4 -0.1 -3.85 -0.11 -4.42Z" fill="#4C57E6" stroke-width="1"></path>
    <path d="M13.29 6.09a2.07 2.07 0 0 0 0.6 0.44 4.44 4.44 0 0 0 0.65 0.4c-0.06 0.31 -0.19 0.79 -0.23 1a0.69 0.69 0 0 0 0 0.36 0.6 0.6 0 0 0 0.39 0.25 10.1 10.1 0 0 0 1.68 0.14 12.27 12.27 0 0 0 1.68 -0.07 0.74 0.74 0 0 0 0.43 -0.23 1 1 0 0 0 0.18 -0.38c0 -0.26 0.22 -0.8 0.11 -1 0.2 -0.11 0.53 -0.23 0.81 -0.38a3.16 3.16 0 0 0 0.52 -0.37 3.58 3.58 0 0 0 1.08 -2.41 3.31 3.31 0 0 0 -0.94 -2.52 5.39 5.39 0 0 0 -1 -0.78A3.9 3.9 0 0 0 18 0.05a4 4 0 0 0 -1.86 0.15 6.38 6.38 0 0 0 -2.26 1.29 4 4 0 0 0 -1.24 2.17 2.76 2.76 0 0 0 0.65 2.43Zm0.19 -2.25a3.09 3.09 0 0 1 1 -1.62 5.59 5.59 0 0 1 1.59 -0.89 3.29 3.29 0 0 1 1.69 -0.17 2.82 2.82 0 0 1 0.87 0.36 4.37 4.37 0 0 1 0.79 0.61 2.21 2.21 0 0 1 0.61 1.65 2.49 2.49 0 0 1 -0.69 1.69 8.54 8.54 0 0 1 -1.22 0.78 0.86 0.86 0 0 0 -0.22 0.19 10.39 10.39 0 0 0 -0.27 1.37 0.8 0.8 0 0 1 -0.15 0 15.14 15.14 0 0 1 -2.48 0.1c0.05 -0.31 0.15 -0.8 0.18 -1a0.53 0.53 0 0 0 -0.25 -0.59 4.08 4.08 0 0 1 -1.07 -0.66 2 2 0 0 1 -0.38 -1.82Z" fill="#020202" stroke-width="1"></path>
    <path d="M14.89 5c0.2 -0.16 0.41 -0.28 0.63 -0.44l0.5 0.24a0.34 0.34 0 1 0 0.48 -0.48 3.34 3.34 0 0 0 -0.33 -0.55 2 2 0 0 1 0.17 -0.27 0.29 0.29 0 0 0 0.09 -0.5 0.31 0.31 0 0 0 -0.43 -0.06 3.93 3.93 0 0 0 -0.54 0.2C15.33 3.09 15.19 3 15 3a0.3 0.3 0 1 0 -0.42 0.44l0.15 0.31 0 0.06a5.21 5.21 0 0 0 -0.37 0.75 0.34 0.34 0 1 0 0.54 0.42Z" fill="#020202" stroke-width="1"></path>
    <path d="M17.39 4.89a0.34 0.34 0 0 0 0.47 -0.1 4.12 4.12 0 0 1 0.41 -0.32c0.16 0.1 0.33 0.19 0.49 0.3a0.34 0.34 0 0 0 0.52 -0.45c-0.11 -0.22 -0.22 -0.42 -0.35 -0.63a4 4 0 0 1 0.22 -0.4 0.3 0.3 0 0 0 0.06 -0.42 0.29 0.29 0 0 0 -0.42 -0.06 2.87 2.87 0 0 0 -0.51 0.21 2.32 2.32 0 0 1 -0.4 -0.3 0.3 0.3 0 0 0 -0.54 0.28 3 3 0 0 0 0.22 0.7 5.34 5.34 0 0 0 -0.28 0.72 0.34 0.34 0 0 0 0.11 0.47Z" fill="#020202" stroke-width="1"></path>
  </g>
</svg>