<svg xmlns="http://www.w3.org/2000/svg" viewBox="0 0 24 24" id="Messages-People-Person-Bubble-Square-1--Streamline-Freehand">
  <desc>
    Messages People Person Bubble Square 1 Streamline Icon: https://streamlinehq.com
  </desc>
  <g>
    <g>
      <path d="M11.9 19.72a5.9 5.9 0 0 0 -2 -2 5.88 5.88 0 0 0 -1.27 -0.5 6 6 0 0 0 2.21 -2.58 4 4 0 0 0 0.12 -3.48c-0.53 -1 -4.95 -3.84 -8 0 -1.41 1.79 -1.71 4.27 0.34 5.76a5.45 5.45 0 0 0 1.33 0.69 8.28 8.28 0 0 0 -3.27 2.85 6.89 6.89 0 0 0 -0.66 1.22 15.51 15.51 0 0 0 -0.7 1.89 0.3 0.3 0 1 0 0.58 0.18 13.43 13.43 0 0 1 0.62 -1.48A8.19 8.19 0 0 1 2 21a7.76 7.76 0 0 1 3.39 -2.46 4.94 4.94 0 0 1 4 0.18 5 5 0 0 1 1.78 1.57 12 12 0 0 1 1.68 3.41 0.34 0.34 0 0 0 0.42 0.24 0.34 0.34 0 0 0 0.24 -0.42 12.85 12.85 0 0 0 -1.61 -3.8Zm-8.22 -8C6.3 8 10 11 10.18 11.52a3.13 3.13 0 0 1 -0.25 2.7A4.63 4.63 0 0 1 7.3 16.6a3.78 3.78 0 0 1 -3.36 -0.6c-1.56 -1.07 -1.24 -2.93 -0.26 -4.3Z" fill="#020202" stroke-width="1"></path>
      <path d="M24 5.3c0 -0.85 0 -2.93 -0.05 -3.82a1.26 1.26 0 0 0 -0.29 -0.8 5.54 5.54 0 0 0 -2 -0.44c-1.23 -0.13 -2.86 -0.2 -4 -0.2 -0.46 0 -4.35 0 -6.62 0.17A4.77 4.77 0 0 0 9.12 0.6a0.65 0.65 0 0 0 -0.18 0.32 6.25 6.25 0 0 0 -0.16 1.3C8.69 4 8.72 7 8.73 7.65a0.35 0.35 0 0 0 0.69 0c0 -0.53 0 -2.41 0.09 -4 0 -0.85 0.09 -1.63 0.17 -2.12 0 -0.11 0 -0.22 0.05 -0.29s0.24 0 0.36 0c0.6 -0.08 1.55 -0.11 2.59 -0.13 2.12 0 4.57 0 4.92 0.05 1 0 2.26 0.1 3.36 0.21 0.71 0.07 1.34 0.15 1.74 0.23h0.06c0.08 0.87 0 2.89 0 3.72 0 0.49 0.08 2.26 0.08 3.8 0 0.77 0.06 1.75 0 2.2l-1.89 0c-1 -0.06 -2.18 -0.16 -2.71 -0.13a0.91 0.91 0 0 0 -0.61 0.22c-0.24 0.29 -0.49 1 -0.93 1.68a5.29 5.29 0 0 1 -0.67 0.91 2.2 2.2 0 0 1 -1.61 0.72c-0.08 -0.57 0 -2.08 0 -2.73a1.28 1.28 0 0 0 -0.07 -0.42 0.33 0.33 0 0 0 -0.26 -0.2 4.08 4.08 0 0 0 -0.66 0 3.78 3.78 0 0 0 -0.64 0.05 0.29 0.29 0 0 0 -0.26 0.33 0.3 0.3 0 0 0 0.34 0.26 3.28 3.28 0 0 1 0.57 0h0.33a0.11 0.11 0 0 1 0 0.05 24.94 24.94 0 0 0 0 3.15 0.52 0.52 0 0 0 0.34 0.26 2.24 2.24 0 0 0 1.05 0 3.15 3.15 0 0 0 1.44 -0.82 6.79 6.79 0 0 0 0.82 -1c0.37 -0.58 0.6 -1.13 0.81 -1.43 0.51 0 1.6 0.12 2.6 0.21a10.32 10.32 0 0 0 1.66 0 1.62 1.62 0 0 0 1 -0.34A3.3 3.3 0 0 0 24 10.4c0.06 -1.67 0 -4.4 0 -5.1Z" fill="#4C57E6" stroke-width="1"></path>
    </g>
    <path d="M13.63 6.06c0.18 -0.58 -0.51 -1 -0.81 -1.15a1 1 0 0 0 -1 0.5 0.9 0.9 0 0 0 0.7 1.5 1.25 1.25 0 0 0 1.11 -0.85Z" fill="#020202" stroke-width="1"></path>
    <path d="M17.39 6a1 1 0 0 0 -0.66 -1 1.58 1.58 0 0 0 -1.34 0.69 0.93 0.93 0 0 0 0.77 1.31 1.46 1.46 0 0 0 1.23 -1Z" fill="#020202" stroke-width="1"></path>
    <path d="M19.87 7.17a1.28 1.28 0 0 0 1.4 -0.53c0.34 -0.6 -0.22 -1.32 -0.8 -1.44S19 5.59 19.1 6.34a1.09 1.09 0 0 0 0.42 0.64 0.92 0.92 0 0 0 0.35 0.19Z" fill="#020202" stroke-width="1"></path>
  </g>
</svg>