<svg xmlns="http://www.w3.org/2000/svg" viewBox="0 0 24 24" id="Messages-Bubble-Information--Streamline-Freehand">
  <desc>
    Messages Bubble Information Streamline Icon: https://streamlinehq.com
  </desc>
  <g>
    <path d="M24 9.6c-0.09 -2 -1.61 -4.82 -4.19 -6.88A12.25 12.25 0 0 0 12.2 0a12.36 12.36 0 0 0 -8.12 2.83 11.33 11.33 0 0 0 -4 7.6c-0.18 3.06 0.3 4.85 1.37 6.08s2.94 2 5.48 2.85c0.09 0 0.12 0.15 0.17 0.3a3.56 3.56 0 0 1 0 1.55 4.44 4.44 0 0 1 -0.9 2.08 0.43 0.43 0 0 0 0.36 0.69 5.55 5.55 0 0 0 0.88 -0.05A8.79 8.79 0 0 0 11 22.77a5.4 5.4 0 0 0 1 -0.95c0.69 -0.84 1.28 -1.9 1.62 -2.34 0.41 0 1.4 0 2.44 -0.13a13.44 13.44 0 0 0 1.76 -0.3 8.35 8.35 0 0 0 4.86 -3.56A10 10 0 0 0 24 9.6Zm-2 5.48a7.54 7.54 0 0 1 -4.35 3.32 11.92 11.92 0 0 1 -1.66 0.31c-1.32 0.16 -2.4 -0.07 -2.73 0.17s-0.92 1.33 -1.56 2.16a5.3 5.3 0 0 1 -1.09 1.12 7.8 7.8 0 0 1 -3.25 1A5.76 5.76 0 0 0 8 20.81a3.61 3.61 0 0 0 -0.18 -1.59 1.12 1.12 0 0 0 -0.64 -0.7c-2.33 -0.85 -4 -1.46 -5 -2.66s-1.25 -2.68 -1 -5.36a10.21 10.21 0 0 1 3.7 -6.79 11.35 11.35 0 0 1 7.4 -2.56 11.21 11.21 0 0 1 6.94 2.4c2.35 1.82 3.81 4.3 3.93 6.1a9.16 9.16 0 0 1 -1.21 5.43Z" fill="#020202" stroke-width="1"></path>
    <path d="M11.24 6.07a1.49 1.49 0 0 0 1.35 -2.64c-1.43 -0.84 -3.45 1.83 -1.35 2.64Z" fill="#4C57E6" stroke-width="1"></path>
    <path d="M14.45 13.57a0.34 0.34 0 0 0 -0.35 0.33 1.28 1.28 0 0 1 -0.47 0.78 1.14 1.14 0 0 1 -0.84 0.23c-0.33 0 -0.44 -0.36 -0.53 -0.69a3.64 3.64 0 0 1 -0.11 -1.22l0.41 -2.44a7.45 7.45 0 0 0 0.09 -1.72 1.71 1.71 0 0 0 -0.33 -0.89 1.15 1.15 0 0 0 -0.81 -0.23c-0.56 0 -1.46 0.15 -2 0.23a0.31 0.31 0 0 0 -0.27 0.33 0.3 0.3 0 0 0 0.33 0.27 14.88 14.88 0 0 1 2.12 0 1.37 1.37 0 0 1 0 0.54 7.77 7.77 0 0 1 -0.21 1.27c-0.12 0.58 -0.23 1 -0.32 1.48a9.6 9.6 0 0 0 -0.16 1.02 4.43 4.43 0 0 0 0.4 2 1.49 1.49 0 0 0 1.34 0.92 1.93 1.93 0 0 0 1.4 -0.54 2.1 2.1 0 0 0 0.62 -1.34 0.33 0.33 0 0 0 -0.31 -0.33Z" fill="#4C57E6" stroke-width="1"></path>
  </g>
</svg>