<svg xmlns="http://www.w3.org/2000/svg" viewBox="0 0 24 24" id="Messages-People-Person-Bubble-Skull--Streamline-Freehand">
  <desc>
    Messages People Person Bubble Skull Streamline Icon: https://streamlinehq.com
  </desc>
  <g>
    <path d="M12.47 6.62a2.5 2.5 0 0 0 0.66 0.48 4.46 4.46 0 0 0 0.72 0.43c-0.07 0.35 -0.21 0.88 -0.26 1.15a0.86 0.86 0 0 0 0 0.37 0.65 0.65 0 0 0 0.4 0.26 11.74 11.74 0 0 0 1.83 0.15 12.25 12.25 0 0 0 1.81 -0.08 0.74 0.74 0 0 0 0.45 -0.23 1 1 0 0 0 0.17 -0.49c0 -0.29 0.07 -0.62 0.11 -1 0.21 -0.13 0.59 -0.26 0.9 -0.45a3.16 3.16 0 0 0 0.57 -0.39A3.87 3.87 0 0 0 21 4.18a3.55 3.55 0 0 0 -1 -2.7 5.16 5.16 0 0 0 -1.1 -0.84 4.1 4.1 0 0 0 -1.35 -0.52 4.56 4.56 0 0 0 -2.43 0.32 6.55 6.55 0 0 0 -2 1.23A4.28 4.28 0 0 0 11.79 4a3 3 0 0 0 0.68 2.62Zm0.15 -2.44a3.43 3.43 0 0 1 1.13 -1.78 5.78 5.78 0 0 1 1.74 -1 3.48 3.48 0 0 1 1.85 -0.19 3 3 0 0 1 1 0.39 4.91 4.91 0 0 1 0.88 0.68 2.47 2.47 0 0 1 0.67 1.83A2.71 2.71 0 0 1 19.1 6a8.22 8.22 0 0 1 -1.34 0.85 1 1 0 0 0 -0.24 0.2 0.84 0.84 0 0 0 -0.17 0.42l0 0.87a1.22 1.22 0 0 1 0 0.17 1.32 1.32 0 0 1 -0.3 0.08 15.83 15.83 0 0 1 -2.72 0.07h-0.05c0.06 -0.34 0.18 -0.89 0.22 -1.17a0.74 0.74 0 0 0 0 -0.34 0.72 0.72 0 0 0 -0.24 -0.27A4.72 4.72 0 0 1 13 6.14a2.24 2.24 0 0 1 -0.38 -1.96Z" fill="#020202" stroke-width="1"></path>
    <path d="M14.18 5.38c0.21 -0.17 0.44 -0.31 0.66 -0.49 0.19 0.1 0.38 0.18 0.58 0.3a0.34 0.34 0 0 0 0.48 0 0.36 0.36 0 0 0 0 -0.49 5.7 5.7 0 0 0 -0.39 -0.61 3.53 3.53 0 0 1 0.21 -0.32 0.3 0.3 0 1 0 -0.33 -0.5 3.75 3.75 0 0 0 -0.6 0.24l-0.49 -0.21a0.3 0.3 0 0 0 -0.42 0.43c0.07 0.13 0.13 0.26 0.19 0.38l-0.06 0.08a6.06 6.06 0 0 0 -0.41 0.8 0.34 0.34 0 0 0 0.06 0.48 0.35 0.35 0 0 0 0.52 -0.09Z" fill="#020202" stroke-width="1"></path>
    <path d="M16.93 5.31a0.33 0.33 0 0 0 0.47 -0.1c0.15 -0.14 0.31 -0.26 0.47 -0.39 0.19 0.13 0.38 0.23 0.56 0.37a0.36 0.36 0 0 0 0.49 0 0.34 0.34 0 0 0 0 -0.48c-0.13 -0.24 -0.26 -0.47 -0.41 -0.7a4.48 4.48 0 0 1 0.28 -0.47 0.31 0.31 0 0 0 0.06 -0.42 0.31 0.31 0 0 0 -0.43 -0.06 4.8 4.8 0 0 0 -0.57 0.26 2.6 2.6 0 0 1 -0.43 -0.32 0.3 0.3 0 0 0 -0.42 -0.14 0.3 0.3 0 0 0 -0.12 0.41 3.43 3.43 0 0 0 0.27 0.78 5.88 5.88 0 0 0 -0.34 0.79 0.35 0.35 0 0 0 0.12 0.47Z" fill="#020202" stroke-width="1"></path>
    <path d="M11.72 19.74a6.05 6.05 0 0 0 -2 -2 5.68 5.68 0 0 0 -1.25 -0.49 5.84 5.84 0 0 0 2.17 -2.55 4 4 0 0 0 0.12 -3.43c-0.51 -1 -4.79 -3.88 -7.85 0 -1.39 1.76 -1.68 4.2 0.33 5.67a5.86 5.86 0 0 0 1.31 0.68 8.23 8.23 0 0 0 -3.22 2.8 8.92 8.92 0 0 0 -0.65 1.21A15 15 0 0 0 0 23.54a0.3 0.3 0 0 0 0.2 0.37 0.28 0.28 0 0 0 0.36 -0.19c0.19 -0.52 0.4 -1 0.61 -1.46A7.31 7.31 0 0 1 2 21a7.49 7.49 0 0 1 3.34 -2.42A4.7 4.7 0 0 1 11 20.26a11.54 11.54 0 0 1 1.66 3.36 0.34 0.34 0 0 0 0.42 0.23 0.33 0.33 0 0 0 0.23 -0.41 12.86 12.86 0 0 0 -1.59 -3.7Zm-8.1 -7.9c2.58 -3.62 6.22 -0.54 6.35 0a3.26 3.26 0 0 1 -0.19 2.52 4.59 4.59 0 0 1 -2.6 2.35 3.72 3.72 0 0 1 -3.3 -0.62C2.34 15 2.65 13.2 3.62 11.84Z" fill="#020202" stroke-width="1"></path>
    <path d="M23.87 5.24c0 -0.73 0 -2.37 -0.09 -3.38a5.21 5.21 0 0 0 -0.11 -0.86 0.58 0.58 0 0 0 -0.16 -0.26 1.69 1.69 0 0 0 -0.65 -0.23c-0.31 -0.05 -0.73 -0.11 -1.22 -0.15a0.35 0.35 0 0 0 -0.38 0.3 0.35 0.35 0 0 0 0.3 0.38l1 0.15 0.37 0.08 0 3.94 0 3.8c0 0.66 -0.11 2 -0.13 2.1s-1.5 0 -1.77 0C20 11.08 18.83 11 18.3 11a1 1 0 0 0 -0.68 0.26c-0.24 0.29 -0.5 1 -0.93 1.69a6.51 6.51 0 0 1 -0.66 0.91 2.24 2.24 0 0 1 -1.51 0.72c-0.07 -0.59 0 -2.05 0 -2.68a1.22 1.22 0 0 0 -0.08 -0.43 0.37 0.37 0 0 0 -0.26 -0.21 6.12 6.12 0 0 0 -0.66 0l-0.66 0a0.31 0.31 0 0 0 -0.25 0.34 0.3 0.3 0 0 0 0.34 0.26 4.71 4.71 0 0 1 0.57 0l0.32 0a28 28 0 0 0 0 3.17 0.53 0.53 0 0 0 0.36 0.29 2.24 2.24 0 0 0 1.09 0 3.08 3.08 0 0 0 1.48 -0.82 6.44 6.44 0 0 0 0.84 -1c0.36 -0.56 0.59 -1.08 0.79 -1.38 0.51 0 1.59 0.1 2.59 0.18a11 11 0 0 0 1.67 0 1.65 1.65 0 0 0 1 -0.37 3.09 3.09 0 0 0 0.34 -1.58c0.06 -1.67 -0.12 -4.46 -0.13 -5.11Z" fill="#4C57E6" stroke-width="1"></path>
    <path d="M8.74 7.59a0.34 0.34 0 1 0 0.68 0c0 -0.53 0.2 -2.4 0.29 -4 0 -0.84 0 -1.62 0.08 -2.11a0.86 0.86 0 0 0 0 -0.16c0.15 0 0.45 -0.22 0.76 -0.27s0.7 -0.11 1.12 -0.16A0.3 0.3 0 0 0 12 0.53a0.29 0.29 0 0 0 -0.31 -0.28 13.67 13.67 0 0 0 -1.89 0 1.36 1.36 0 0 0 -0.66 0.21 1.25 1.25 0 0 0 -0.3 0.67 10.21 10.21 0 0 0 -0.21 1.67l0 1.43c-0.04 1.47 0.08 2.9 0.11 3.36Z" fill="#4C57E6" stroke-width="1"></path>
  </g>
</svg>