<svg xmlns="http://www.w3.org/2000/svg" viewBox="0 0 24 24" id="Messages-Bubble-Square-Lock--Streamline-Freehand">
  <desc>
    Messages Bubble Square Lock Streamline Icon: https://streamlinehq.com
  </desc>
  <g>
    <path d="M23.83 2.8a9.82 9.82 0 0 0 -0.14 -1.47 0.91 0.91 0 0 0 -0.25 -0.47A1.34 1.34 0 0 0 23 0.67a17.27 17.27 0 0 0 -2.12 -0.26C18.12 0.18 13.59 0 11.77 0c-0.54 0 -4.64 0 -7.67 0.1a22.72 22.72 0 0 0 -2.67 0.25 2 2 0 0 0 -0.86 0.32 0.88 0.88 0 0 0 -0.23 0.38 9.39 9.39 0 0 0 -0.21 1.7C0 5.07 0 9 0 9.87s0.13 4.62 0.26 6.89c0 0.73 0.08 1.3 0.12 1.57a0.71 0.71 0 0 0 0.14 0.38 1.86 1.86 0 0 0 1 0.41 10.72 10.72 0 0 0 2.15 0c0.77 -0.07 1.43 -0.13 2 -0.13 1.54 0 1.41 0.37 1.46 0.56a4.12 4.12 0 0 1 0 1.67 4.89 4.89 0 0 1 -1 2.2 0.38 0.38 0 0 0 0.35 0.59 5 5 0 0 0 1.16 -0.15 5.6 5.6 0 0 0 2.69 -1.31 9.45 9.45 0 0 0 1 -1.34c0.5 -0.79 0.8 -1.52 1.08 -1.92 0.09 0 0.33 -0.07 0.57 -0.07 1.65 0 5.52 0.17 6.9 0.28a16.13 16.13 0 0 0 2.19 0 2 2 0 0 0 1.17 -0.4 5.3 5.3 0 0 0 0.48 -2.23C24 14.27 24 9.86 24 9s-0.06 -4.24 -0.17 -6.2Zm-1 13.06a18.8 18.8 0 0 1 -0.17 2.28c0 0.12 -0.07 0.26 -0.08 0.31a0.76 0.76 0 0 1 -0.25 0.06 6.78 6.78 0 0 1 -0.83 0.07l-1.46 0c-1.21 -0.07 -4.31 -0.18 -6.2 -0.17a11.57 11.57 0 0 0 -1.45 0.06 0.63 0.63 0 0 0 -0.4 0.18c-0.32 0.37 -0.64 1.24 -1.22 2.18A7.32 7.32 0 0 1 9.84 22a5.13 5.13 0 0 1 -2.73 1.24 6.05 6.05 0 0 0 0.76 -2.47c0.23 -2.66 -1.34 -2.5 -2.13 -2.51 -0.58 0 -1.27 0 -2.07 0.11a11.23 11.23 0 0 1 -1.7 0 1.63 1.63 0 0 1 -0.87 -0.22L0.9 9.87c0 -0.71 0 -3.16 0.11 -5.3 0 -1.11 0.11 -2.14 0.2 -2.78a3.79 3.79 0 0 1 0.08 -0.43c0.13 0 0.34 0 0.51 -0.05a32.1 32.1 0 0 1 3.43 -0.19c2.82 -0.06 6.06 0 6.53 0 1.36 0 4.26 0.12 6.78 0.27 1.44 0.09 2.75 0.19 3.58 0.29l0.47 0.08a3.09 3.09 0 0 1 0 0.35c0.16 1.7 0.23 5.77 0.22 6.88 0.05 0.76 0.12 4.26 0.03 6.87Z" fill="#020202" stroke-width="1"></path>
    <path d="M15.74 8.83a1.52 1.52 0 0 0 -0.56 -0.47 7.53 7.53 0 0 0 0 -2.68 3.35 3.35 0 0 0 -1 -1.78 3.23 3.23 0 0 0 -2.65 -0.63A3.89 3.89 0 0 0 9.26 4.6a3.62 3.62 0 0 0 -0.69 1.6 7.74 7.74 0 0 0 0 2.35l-0.48 0.15a0.34 0.34 0 0 0 -0.22 0.43 0.25 0.25 0 0 0 -0.08 0.17l-0.18 2.55c0 0.42 -0.1 2.18 -0.1 2.92a1.14 1.14 0 0 0 0.16 0.64 1.44 1.44 0 0 0 0.67 0.29 7 7 0 0 0 1.14 0.06l4.06 0.15a8.28 8.28 0 0 0 1.34 -0.08 0.92 0.92 0 0 0 0.61 -0.35 2.82 2.82 0 0 0 0.44 -1.2A9 9 0 0 0 16 12.7c0 -0.62 0 -2 -0.11 -2.92a2.92 2.92 0 0 0 -0.15 -0.95Zm-6.43 -2.1A2.92 2.92 0 0 1 10 5.28a3 3 0 0 1 1.72 -0.87 2.19 2.19 0 0 1 1.75 0.31 2.37 2.37 0 0 1 0.83 1.2 6.16 6.16 0 0 1 0.18 2.21c-0.36 -0.07 -0.74 -0.09 -1 -0.12a12.37 12.37 0 0 0 -2 0 10.68 10.68 0 0 0 -2 0.3l-0.27 0.08a7.37 7.37 0 0 1 0.1 -1.66Zm5.49 7.4a2.06 2.06 0 0 1 -0.2 0.66s0.07 -0.1 0.09 -0.06c0.09 0.22 -0.69 0.06 -1.17 0.08h-4l-0.74 0H8.4c0 -0.72 -0.07 -2.44 -0.06 -2.86l0.05 -2.55v-0.08L9.59 9a10.13 10.13 0 0 1 1.88 -0.2 12.87 12.87 0 0 1 1.9 0.11 8 8 0 0 1 1.13 0.2 0.73 0.73 0 0 1 0.39 0.26l0 3.33a8.78 8.78 0 0 1 -0.09 1.43Z" fill="#4C57E6" stroke-width="1"></path>
    <path d="M12 11a1.2 1.2 0 0 0 -1.21 0.4c-0.5 0.74 -0.11 1.88 0.79 1.86a1.33 1.33 0 0 0 1.19 -0.89A1.1 1.1 0 0 0 12 11Z" fill="#4C57E6" stroke-width="1"></path>
  </g>
</svg>