<svg xmlns="http://www.w3.org/2000/svg" viewBox="0 0 24 24" id="Microphone-Off--Streamline-Freehand">
  <desc>
    Microphone Off Streamline Icon: https://streamlinehq.com
  </desc>
  <g>
    <g>
      <path d="M3.74 10.63a2.72 2.72 0 0 1 -0.1 -0.67c0 -0.21 0 -0.4 0.21 -0.5a2 2 0 0 1 0.67 -0.22c0.45 -0.07 0.92 -0.09 1.27 -0.14 0 0.48 0 1 0.09 1.43a0.34 0.34 0 0 0 0.36 0.32 0.33 0.33 0 0 0 0.31 -0.36 23.12 23.12 0 0 1 0.13 -2.57h0.56l0.71 0c0.24 0 0.47 0 0.7 -0.09 0.58 -0.09 1.13 -0.21 1.69 -0.3a0.4 0.4 0 0 0 0.41 -0.4 0.41 0.41 0 0 0 -0.46 -0.36c-0.57 0 -1.14 -0.12 -1.73 -0.14l-0.75 0a4 4 0 0 0 -0.75 0.1l-0.26 0.06 0 -0.2a9.14 9.14 0 0 1 0.43 -1.49 0.25 0.25 0 0 0 0.25 0.11c0.43 0 1.4 -0.13 1.81 -0.2a16 16 0 0 1 1.86 -0.31 0.43 0.43 0 0 0 0.47 -0.36 0.4 0.4 0 0 0 -0.42 -0.4 10.49 10.49 0 0 0 -2 -0.14 5.34 5.34 0 0 0 -0.69 0 4.09 4.09 0 0 0 -0.76 0.2 3.66 3.66 0 0 1 0.61 -0.81A5.56 5.56 0 0 1 12 1.13a4.13 4.13 0 0 1 3.92 1.3 0.39 0.39 0 0 0 0.53 0.07 0.37 0.37 0 0 0 0.09 -0.5 5 5 0 0 0 -4.65 -2 6.66 6.66 0 0 0 -4.55 2.44A8.11 8.11 0 0 0 6 5.58a12 12 0 0 0 -0.26 2.82c-0.42 -0.05 -1 -0.15 -1.52 -0.17a2.75 2.75 0 0 0 -0.9 0.13 1.59 1.59 0 0 0 -1 1.66 3.79 3.79 0 0 0 0.31 1.07A8.68 8.68 0 0 0 4 13a0.37 0.37 0 0 0 0.53 0.07 0.39 0.39 0 0 0 0.07 -0.53 8.65 8.65 0 0 1 -0.86 -1.91Z" fill="#020202" fill-rule="evenodd" stroke-width="1"></path>
      <path d="M21.68 9.13a0.94 0.94 0 0 0 -0.31 -0.75A3 3 0 0 0 20.25 8a15.13 15.13 0 0 0 -2 0l0 -1.75c0 -0.56 0 -0.54 -0.14 -0.54s-0.64 0.19 -0.64 0.76c0 0 -0.08 1.54 -0.35 3.26a0.85 0.85 0 0 0 -0.52 -0.14 3.47 3.47 0 0 0 -0.56 0 3.57 3.57 0 0 0 -0.57 0.1 6.68 6.68 0 0 0 -1.28 0.45 0.38 0.38 0 0 0 -0.3 0.47 0.44 0.44 0 0 0 0.53 0.26l1.26 0a6 6 0 0 0 0.85 -0.05 2.22 2.22 0 0 0 0.41 -0.11c-0.07 0.36 -0.15 0.71 -0.24 1.06s-0.17 0.57 -0.26 0.82l-0.08 -0.06a4.63 4.63 0 0 0 -0.56 -0.11 3.85 3.85 0 0 0 -0.59 0 5.21 5.21 0 0 0 -0.57 0.08c-0.45 0.09 -0.85 0.22 -1.28 0.35s-0.48 0.24 -0.43 0.44a0.53 0.53 0 0 0 0.6 0.31c0.45 0 0.85 0.07 1.29 0.09a2.26 2.26 0 0 0 0.52 0 2.11 2.11 0 0 0 0.64 -0.17 3.56 3.56 0 0 1 -2.1 1.48c-2.2 0.88 -4.07 0.58 -5.35 -0.84 -0.38 -0.27 -0.88 0.34 -0.55 0.79 0.9 1.4 2 1.53 3.61 1.6 0 0.19 -0.08 0.37 -0.09 0.55s0 0.51 -0.05 0.76l0 0.53h-0.05a7.71 7.71 0 0 1 -5.14 -2.18c-0.29 -0.27 -0.83 0.07 -0.57 0.47a7.19 7.19 0 0 0 5.65 2.82l0.33 0c0.11 0 0 0.25 0.07 0.37a3.41 3.41 0 0 0 -1 0.29 4.9 4.9 0 0 0 -2.38 2.65 0.36 0.36 0 0 0 0 0.25 0.28 0.28 0 0 0 -0.16 0.24 0.33 0.33 0 0 0 0.31 0.36 23 23 0 0 0 2.69 0.34l1.18 0c0.4 0 0.77 0 1.16 -0.1 0.9 -0.1 1.79 -0.27 2.68 -0.41a0.39 0.39 0 0 0 0.36 -0.41 0.37 0.37 0 0 0 -0.26 -0.3 5.16 5.16 0 0 0 -2.38 -2.61 3.75 3.75 0 0 0 -1.32 -0.35l0 -0.36a10.25 10.25 0 0 0 2.6 -0.43 8 8 0 0 0 3.41 -2.1 12 12 0 0 0 1.91 -2.84 10.68 10.68 0 0 0 1 -3.28 13.24 13.24 0 0 0 0.14 -1.68Zm-6.34 13.58 -1.87 0 -1.14 0c-0.38 0 -0.76 0 -1.14 0.06l-2.1 0.15a4.3 4.3 0 0 1 2.11 -1.66 3.68 3.68 0 0 1 1.13 -0.2 3.74 3.74 0 0 1 3.01 1.65Zm5.18 -12.06a9.92 9.92 0 0 1 -1 2.91 10.8 10.8 0 0 1 -1.81 2.49 6.88 6.88 0 0 1 -2.87 1.77 10 10 0 0 1 -2.12 0.45l0 -0.51 -0.26 -1.3a6.61 6.61 0 0 0 2 -0.47 5 5 0 0 0 2.32 -2 9.91 9.91 0 0 0 0.76 -1.78 14.64 14.64 0 0 0 0.59 -2.75c0 -0.1 0 -0.38 0.05 -0.73 0.51 0 1.06 0 1.61 0.05a2.27 2.27 0 0 1 1 0.29c0.21 0.26 -0.23 1.4 -0.27 1.58Z" fill="#020202" fill-rule="evenodd" stroke-width="1"></path>
    </g>
    <path d="M9.33 12.68c1.41 -1.19 2.83 -2.41 4.22 -3.65 0.06 -0.06 1.33 -1.14 6.78 -6.37a0.34 0.34 0 0 0 0 -0.47 0.32 0.32 0 0 0 -0.47 0c-1.88 1.58 -4 3.31 -6.27 5.17 -0.88 0.73 -1.78 1.49 -2.65 2.26s-1.75 1.55 -2.6 2.33c-2.81 2.56 -5.86 5.53 -5.92 5.59a0.37 0.37 0 0 0 0 0.54 0.38 0.38 0 0 0 0.53 0c1.68 -1.47 2.22 -1.87 6.38 -5.4Z" fill="#4C57E6" fill-rule="evenodd" stroke-width="1"></path>
  </g>
</svg>