<svg xmlns="http://www.w3.org/2000/svg" viewBox="0 0 24 24" id="Microprocessor-Computer-Chip-32-Bit--Streamline-Freehand">
  <desc>
    Microprocessor Computer Chip 32 Bit Streamline Icon: https://streamlinehq.com
  </desc>
  <g>
    <path d="M23.6 16.64a8.35 8.35 0 0 0 -2 -0.33l-0.82 0.13c0.12 -1.3 0.18 -2.69 0.19 -4a1.23 1.23 0 0 0 0.44 0.1 3.48 3.48 0 0 0 2.25 0 0.35 0.35 0 1 0 0 -0.7c-1.17 -0.23 -1.11 -0.53 -2.69 -0.16 0 -1.35 0 -2.69 -0.1 -3.88a2.09 2.09 0 0 0 0.38 0.07 3 3 0 0 0 1.09 0.16 7.7 7.7 0 0 0 1.16 -0.16 0.36 0.36 0 0 0 0 -0.71c-1.12 -0.16 -1.14 -0.5 -2.7 -0.16 -0.25 -3.39 -0.43 -3.91 -3.59 -4a2.16 2.16 0 0 0 0.07 -0.39 3.76 3.76 0 0 0 0 -2.25 0.35 0.35 0 1 0 -0.7 0c-0.21 1.18 -0.49 1 -0.14 2.62l-3.94 0a4.35 4.35 0 0 0 0 -2.52 0.36 0.36 0 0 0 -0.71 0 6.58 6.58 0 0 0 -0.3 1.79 6.27 6.27 0 0 0 0.11 0.75c-0.07 0 -2.67 0.06 -3.8 0.12a4.06 4.06 0 0 0 0 -2.44 0.36 0.36 0 0 0 -0.71 0c-0.22 1.26 -0.46 1 -0.17 2.48 -1 0.05 -1.81 0.11 -2.43 0.18 -1.51 0.17 -1.19 2 -1.13 3.34C1.81 6.32 2 6.58 0.8 6.77a0.36 0.36 0 0 0 0 0.71 3.49 3.49 0 0 0 2.2 0.06 1.89 1.89 0 0 0 0.32 0l0.07 3.94a8.86 8.86 0 0 0 -1.13 -0.28 6.55 6.55 0 0 0 -1.79 0.28 0.36 0.36 0 0 0 0 0.71 3.51 3.51 0 0 0 2.25 0.06c0.06 0 0.49 0 0.5 -0.15a0.27 0.27 0 0 0 0.2 0l0.07 4.06c-1.85 -0.4 -1.68 -0.11 -3.1 0.08a0.36 0.36 0 1 0 0 0.71A4.91 4.91 0 0 0 3 17a2 2 0 0 0 0.5 -0.09l0 2a0.36 0.36 0 0 0 0.71 0V6.62c0 -0.84 -0.22 -2.26 0.3 -2.31a133.24 133.24 0 0 1 13.67 -0.07c1 0.08 1.07 0.35 1.18 1.11 0.44 2.87 0.65 12.6 -0.32 14.14 -2.08 0.78 -11.9 0.61 -14.73 0.15a0.31 0.31 0 1 0 -0.11 0.61c0.64 0.12 1.56 0.23 2.64 0.32a4.52 4.52 0 0 0 -0.11 0.52c-0.25 1.07 0 1.29 0.2 2.26a0.36 0.36 0 0 0 0.71 0 3.87 3.87 0 0 0 0 -2.26c0 -0.05 0 -0.39 -0.12 -0.46 1.22 0.09 2.58 0.15 4 0.19 -0.42 1.52 -0.08 1.67 0.11 2.75a0.35 0.35 0 0 0 0.7 0 3.61 3.61 0 0 0 0 -2.26s0 -0.43 -0.14 -0.47l4 0c-0.1 0.62 -0.12 0.62 -0.14 0.82a8 8 0 0 0 0.3 2 0.36 0.36 0 1 0 0.71 0 4.41 4.41 0 0 0 0 -2.51l0 -0.35a9.37 9.37 0 0 0 2.34 -0.36c0.81 -0.3 1.05 -2.23 1.16 -3.09l0.36 0.05a4.93 4.93 0 0 0 2.57 0 0.36 0.36 0 1 0 0.11 -0.76Z" fill="#020202" fill-rule="evenodd" stroke-width="1"></path>
    <path d="M8.66 14.83c-1.21 0.41 -1.12 -0.34 -1.56 -0.34a0.38 0.38 0 0 0 -0.39 0.37c0 1.87 5.16 0.81 4.74 -2.29a1.57 1.57 0 0 0 -0.88 -1.15 2 2 0 0 0 -0.35 -2.91 2.1 2.1 0 0 0 -2.42 0A4.64 4.64 0 0 0 7 9.9a0.35 0.35 0 0 0 0.15 0.33c0.77 0.54 1 -2.25 2.45 -1 0.62 0.53 0.23 1.38 -0.41 1.91a2.3 2.3 0 0 0 -1.62 0.63c-0.44 0.63 0.23 1.29 1 1.07a4.58 4.58 0 0 0 1 -0.46c0.24 0 0.66 0.11 0.72 0.36 0.19 0.99 -0.69 1.77 -1.63 2.09Z" fill="#4C57E6" fill-rule="evenodd" stroke-width="1"></path>
    <path d="M16.6 11.72a2.77 2.77 0 0 0 -0.89 -3.16c-1.94 -1.67 -4.29 1.17 -3.28 1.94 0.45 0.34 1.12 0.13 1 -0.3 0 -0.09 -0.72 -0.55 0.51 -1a0.61 0.61 0 0 1 0.7 0.17 1.64 1.64 0 0 1 0.36 1.92 7.48 7.48 0 0 1 -2.31 3c-0.55 0.54 -0.75 1.13 0 1.4a17.79 17.79 0 0 0 3.5 0c0.95 -0.14 1 -0.63 0.73 -0.88a24 24 0 0 0 -2.54 -0.11 7.16 7.16 0 0 0 2.22 -2.98Z" fill="#4C57E6" fill-rule="evenodd" stroke-width="1"></path>
  </g>
</svg>