<svg xmlns="http://www.w3.org/2000/svg" viewBox="0 0 24 24" id="Microphone-Singing--Streamline-Freehand">
  <desc>
    Microphone Singing Streamline Icon: https://streamlinehq.com
  </desc>
  <g>
    <path d="M18.23 7.8a1.92 1.92 0 0 0 1 -0.79 6.53 6.53 0 0 0 0.66 -1.41 12.43 12.43 0 0 0 0.36 -1.25c0.12 -0.53 0.19 -1 0.39 -1.79 0 -0.23 0.09 -0.54 0.16 -0.84l0.92 0.66c0.44 0.37 0.73 0.64 0.78 1a1.8 1.8 0 0 1 -0.41 1.19 0.38 0.38 0 0 0 0.1 0.52 0.37 0.37 0 0 0 0.52 -0.1 2.51 2.51 0 0 0 0.65 -1.72 2.68 2.68 0 0 0 -1 -1.58l-1.18 -1 -0.28 -0.28a0.62 0.62 0 0 0 -0.79 0.1 1.79 1.79 0 0 0 -0.32 0.6c-0.14 0.38 -0.22 0.84 -0.32 1.14 -0.25 0.93 -0.31 1.42 -0.49 2.1 -0.07 0.24 -0.14 0.51 -0.25 0.84a4.56 4.56 0 0 1 -0.46 1.17 0.71 0.71 0 0 1 -0.37 0.39 0.69 0.69 0 0 1 -0.84 -0.44 0.52 0.52 0 0 1 0.35 -0.82 2.22 2.22 0 0 1 0.44 -0.06 3.65 3.65 0 0 1 0.47 0 0.32 0.32 0 0 0 0.38 -0.27 0.33 0.33 0 0 0 -0.27 -0.38 3.81 3.81 0 0 0 -0.57 -0.06 2.88 2.88 0 0 0 -0.59 0 1.31 1.31 0 0 0 -1.07 1.9 1.71 1.71 0 0 0 2.03 1.18Z" fill="#4C57E6" stroke-width="1"></path>
    <path d="M3.75 3.4 5 6.21a0.33 0.33 0 0 0 -0.39 0 3 3 0 0 0 -0.46 0.3 2.21 2.21 0 0 0 -0.42 0.39A1.38 1.38 0 0 0 4 9a1.57 1.57 0 0 0 2.3 -0.28 2.09 2.09 0 0 0 0.27 -1.28 7.46 7.46 0 0 0 -0.39 -1.54c-0.18 -0.53 -0.34 -0.9 -0.5 -1.25 -0.23 -0.52 -0.47 -1 -0.81 -1.73 -0.09 -0.23 -0.26 -0.52 -0.4 -0.81h1a1.71 1.71 0 0 1 1.18 0.36 2.16 2.16 0 0 1 0.45 1.24 0.37 0.37 0 0 0 0.4 0.34 0.38 0.38 0 0 0 0.35 -0.4 3 3 0 0 0 -0.53 -1.75 2.66 2.66 0 0 0 -1.72 -0.77L4.11 1l-0.39 0c-0.5 0 -0.56 0.55 -0.56 0.58a2.16 2.16 0 0 0 0.12 0.67c0.12 0.41 0.34 0.84 0.47 1.15Zm1.63 4.16a0.88 0.88 0 0 1 0 0.58 0.58 0.58 0 0 1 -0.85 0.1 0.62 0.62 0 0 1 -0.25 -0.93A2.13 2.13 0 0 1 4.54 7a2.24 2.24 0 0 1 0.34 -0.27 0.31 0.31 0 0 0 0.17 -0.27 4.89 4.89 0 0 1 0.33 1.1Z" fill="#4C57E6" stroke-width="1"></path>
    <path d="M23.84 13.78a2.68 2.68 0 0 0 -0.39 -0.23l-0.29 -0.14 -0.8 -0.49c-0.56 -0.37 -1.12 -0.72 -1.67 -1.1 -0.35 -0.26 -0.7 -0.52 -1 -0.79a0.3 0.3 0 0 0 -0.34 0 1.69 1.69 0 0 0 -0.45 -0.39 2.23 2.23 0 0 0 -1.47 -0.23 2 2 0 0 0 -0.73 0.31l0 -0.23a3.82 3.82 0 0 0 -0.83 -2.27 4.21 4.21 0 0 0 -1.92 -1.45 4.75 4.75 0 0 0 -3 0 5.14 5.14 0 0 0 -2.48 1.77 3.76 3.76 0 0 0 -0.76 2.84 2.44 2.44 0 0 0 0.55 1.13L5.54 12l-2 -0.51A14.86 14.86 0 0 0 1.73 11a1.79 1.79 0 0 0 -1.14 0.15 1.28 1.28 0 0 0 -0.59 1.4 4.32 4.32 0 0 0 1.29 2 5 5 0 0 0 0.95 0.61 17.49 17.49 0 0 0 1.92 0.69 5.2 5.2 0 0 1 1.45 0.65s0 -0.05 0 -0.07 0.07 0 0.07 0.13l0 0.48a20.75 20.75 0 0 1 0 3.34 18.28 18.28 0 0 1 -0.28 2.82 0.39 0.39 0 0 0 0.27 0.46 0.37 0.37 0 0 0 0.45 -0.27 20.5 20.5 0 0 0 0.69 -4.33 15.33 15.33 0 0 0 0 -2.69 1 1 0 0 0 -0.28 -0.59 3.87 3.87 0 0 0 -0.94 -0.63c-1.09 -0.54 -2.51 -0.72 -3.43 -1.52a3.59 3.59 0 0 1 -0.62 -0.73 2 2 0 0 1 -0.24 -0.46c0 -0.09 -0.08 -0.19 0 -0.24s0.34 0 0.58 0c0.56 0.07 1.18 0.23 1.47 0.28l2.06 0.37 3.45 0.42a0.31 0.31 0 0 0 0.29 -0.14 3.2 3.2 0 0 0 0.68 0.25 0.33 0.33 0 0 0 0.17 -0.64 1.81 1.81 0 0 1 -1.42 -1.5 2.81 2.81 0 0 1 0.72 -2.06 4.1 4.1 0 0 1 2 -1.25 3.57 3.57 0 0 1 2.26 0 3.14 3.14 0 0 1 1.36 1 2.73 2.73 0 0 1 0.67 1.54 3.15 3.15 0 0 1 -1.05 2.46 2.52 2.52 0 0 1 -2.58 0.51 0.38 0.38 0 0 0 -0.49 0.21 0.36 0.36 0 0 0 0.21 0.48 3.27 3.27 0 0 0 2.84 -0.13 8 8 0 0 0 0.71 1.48 2.89 2.89 0 0 0 1.13 1.05 2.27 2.27 0 0 0 2 -0.23 3.57 3.57 0 0 0 0.54 -0.42l0 0.13a3.77 3.77 0 0 1 -0.22 0.59 4.66 4.66 0 0 1 -0.32 0.53 3.05 3.05 0 0 1 -1.18 1.07 1.81 1.81 0 0 1 -1.38 0.05c-0.21 -0.07 -1.25 -0.82 -1.74 -1a1 1 0 0 0 -0.64 -0.08 0.88 0.88 0 0 0 -0.49 0.4 3.52 3.52 0 0 0 -0.38 1 22.94 22.94 0 0 0 -0.45 4.71 0.39 0.39 0 0 0 0.38 0.38 0.39 0.39 0 0 0 0.38 -0.38 16.12 16.12 0 0 1 0.26 -2.23 19.83 19.83 0 0 1 0.54 -2.28 1.49 1.49 0 0 1 0.18 -0.3c0.56 0.32 1.39 0.9 1.59 1a2.85 2.85 0 0 0 2.3 -0.2 4 4 0 0 0 1.47 -1.59 4.17 4.17 0 0 0 0.52 -1.46 4.9 4.9 0 0 0 0.09 -1l0 -0.63 1.51 0.27a8.93 8.93 0 0 0 1.29 0.14 3.54 3.54 0 0 0 1 -0.13 0.63 0.63 0 0 0 0.31 -1Zm-10.3 4.59s0 0.05 0.09 0Zm3.63 -6.45a0.86 0.86 0 0 1 0.51 -0.39 1.17 1.17 0 0 1 0.74 0 0.72 0.72 0 0 1 0.42 0.38c0.13 0.4 0.08 0.2 -0.53 1.06a0.67 0.67 0 0 1 -0.26 0.21 0.63 0.63 0 0 1 -0.83 -0.32 0.87 0.87 0 0 1 -0.05 -0.94Zm0.94 3.24a3.4 3.4 0 0 1 -0.57 0.23 1 1 0 0 1 -0.69 0 2.49 2.49 0 0 1 -1 -0.77 11.7 11.7 0 0 1 -0.74 -1 4 4 0 0 0 0.78 -0.86 1.93 1.93 0 0 0 0.36 0.78 1.58 1.58 0 0 0 1.75 0.57c0.28 0.09 0.58 0.17 0.88 0.24a2.29 2.29 0 0 1 -0.77 0.81Zm3.29 -1.51c-0.66 0 -1.37 -0.06 -2.06 -0.12l-0.45 -0.07a1.12 1.12 0 0 1 0.5 -0.51 1.41 1.41 0 0 0 0.3 -1c0.23 0.24 0.46 0.49 0.71 0.72l1 0.94Z" fill="#020202" stroke-width="1"></path>
    <path d="m5.67 16.57 0.07 0.06Z" fill="#020202" stroke-width="1"></path>
  </g>
</svg>