<svg xmlns="http://www.w3.org/2000/svg" viewBox="0 0 24 24" id="Microprocessor-Computer-Chip-Motherboard--Streamline-Freehand">
  <desc>
    Microprocessor Computer Chip Motherboard Streamline Icon: https://streamlinehq.com
  </desc>
  <g>
    <path d="M24 21.27c-0.14 -1.43 -0.21 -2.88 -0.25 -4.32 -0.08 -3.39 0.05 -6.8 0 -10.18A14 14 0 0 0 23.34 3 3.92 3.92 0 0 0 21.72 0.65a3.07 3.07 0 0 0 -1.34 -0.36 20.07 20.07 0 0 0 -2.6 0.14c-1.93 0.13 -3.87 0.21 -5.8 0.35 -0.84 0.06 -1.67 0.13 -2.5 0.22 -1.49 0.16 -2.95 0.23 -4.41 0.25s-2.93 0 -4.43 -0.11a0.33 0.33 0 0 0 -0.36 0.31 0.32 0.32 0 0 0 0.31 0.36c1.51 0.14 3 0.23 4.47 0.28s3 0 4.51 -0.07l8.28 -0.3c0.53 0 1.36 -0.15 2.12 -0.14a2.21 2.21 0 0 1 1.08 0.18 2.74 2.74 0 0 1 1.06 1.6 13.52 13.52 0 0 1 0.44 3.44c0.11 2.89 0.12 5.81 0.23 8.72 0.08 2 0.21 3.91 0.45 5.84a0.46 0.46 0 0 0 0.09 0.17c-3.18 0 -6.32 -0.05 -9.47 0a62.64 62.64 0 0 0 -6.38 0.47 16.1 16.1 0 0 1 -3.82 0.36 2.63 2.63 0 0 1 -1.89 -0.89 2 2 0 0 1 -0.28 -1c-0.12 -1.15 0 -2.6 0 -3.32 -0.18 -1.95 -0.3 -3.91 -0.4 -5.87C0.92 8.37 0.83 5.41 0.68 2.46a0.34 0.34 0 0 0 -0.35 -0.32 0.33 0.33 0 0 0 -0.33 0.35c0 3.44 0 6.89 0.06 10.34 0 1.48 0.08 3 0.16 4.44 0.05 0.73 -0.13 2.2 0 3.36a3.19 3.19 0 0 0 0.56 1.69 3.9 3.9 0 0 0 2.75 1.38 18 18 0 0 0 4.12 -0.42 60.57 60.57 0 0 1 6.24 -0.65c3.15 -0.18 6.3 -0.21 9.49 -0.33a0.39 0.39 0 0 0 0.38 -0.4 0.43 0.43 0 0 0 -0.09 -0.21 0.38 0.38 0 0 0 0.33 -0.42Z" fill="#020202" fill-rule="evenodd" stroke-width="1"></path>
    <path d="M12.27 8.27h-0.13l-0.25 0.06c-0.93 0.31 -1 0.49 -0.94 0.67s0.05 0.35 1 0.55a1 1 0 0 0 0.25 0 3.65 3.65 0 0 0 0 0.58 0.73 0.73 0 0 0 0.35 0.53 1.72 1.72 0 0 0 0.56 0.12 0.21 0.21 0 0 0 0 0.08 0.69 0.69 0 0 0 0 0.24c0.33 0.92 0.52 0.91 0.68 0.9s0.33 0 0.54 -1a0.65 0.65 0 0 0 0 -0.24l0 -0.07L16 10.6a1 1 0 0 0 0 0.23 1.15 1.15 0 0 0 0 0.26c0.23 0.95 0.43 1 0.61 1s0.32 0 0.61 -1a2 2 0 0 0 0.05 -0.24 1 1 0 0 0 0 -0.25 0.54 0.54 0 0 1 -0.05 -0.11l0.67 0a0.39 0.39 0 0 0 0.14 -0.05s0.07 0 0.11 -0.05a0.39 0.39 0 0 0 0.26 -0.39l0 -1a0.86 0.86 0 0 0 0.17 0l0.25 0c0.92 -0.23 0.95 -0.45 0.95 -0.62s-0.12 -0.33 -0.91 -0.6l-0.22 0a0.71 0.71 0 0 0 -0.2 0l0 -0.94h0.08l0.22 0c0.86 -0.31 0.86 -0.46 0.86 -0.63s0 -0.36 -0.92 -0.59a0.78 0.78 0 0 0 -0.22 0h-0.05l0 -0.34a0.78 0.78 0 0 0 -0.49 -0.58 1.88 1.88 0 0 0 -0.6 -0.06 2.28 2.28 0 0 0 -0.44 0 1.54 1.54 0 0 0 0 -0.3 1.36 1.36 0 0 0 0 -0.29s-0.3 -1 -0.62 -1 -0.62 1 -0.62 1a0.8 0.8 0 0 0 0 0.31 1 1 0 0 0 0 0.3 0.32 0.32 0 0 0 0 0.09l-1.23 0a3.37 3.37 0 0 0 0.1 -0.34l0 -0.3a1.35 1.35 0 0 0 0 -0.29c-0.31 -1.05 -0.55 -1 -0.65 -1 -0.32 0 -0.57 1 -0.59 1.06a1 1 0 0 0 0 0.3 1.45 1.45 0 0 0 0.06 0.3 3.21 3.21 0 0 0 0.12 0.33h-0.05a0.33 0.33 0 0 0 -0.34 0.27 0.33 0.33 0 0 0 -0.21 -0.08 0.34 0.34 0 0 0 -0.36 0.32l-0.06 0.68 -0.06 0a0.55 0.55 0 0 0 -0.18 0A0.53 0.53 0 0 0 12 6c-0.77 0.31 -0.79 0.44 -0.79 0.6s0 0.34 0.81 0.62a0.58 0.58 0 0 0 0.19 0l0.09 0 0 0.27Zm1.12 -2.74 3 0.4h0.88l0 0.59 0.34 3.16 -3.31 -0.19 -0.81 0 0 -0.1 -0.18 -2 -0.16 -2a0.36 0.36 0 0 0 0.24 0.14Z" fill="#020202" fill-rule="evenodd" stroke-width="1"></path>
    <path d="M4.39 19.33a0.38 0.38 0 0 0 0.37 -0.4c0 -1.79 0.07 -3.6 0 -5.43 0 -1.07 0 -2.16 -0.1 -3.23C4.63 8.63 4.5 7 4.48 5.41a0.34 0.34 0 1 0 -0.67 0 54.6 54.6 0 0 0 -0.36 5.45c0 1.09 0 2.18 0.12 3.26 0.11 1.64 0.29 3.26 0.42 4.87a0.39 0.39 0 0 0 0.4 0.34Z" fill="#4C57E6" fill-rule="evenodd" stroke-width="1"></path>
    <path d="M6.73 19a0.38 0.38 0 0 0 0.39 0.38 0.37 0.37 0 0 0 0.38 -0.38c0.06 -1.56 0.11 -3.12 0.1 -4.68l0 -2c0 -0.66 -0.07 -1.33 -0.13 -2 -0.15 -1.55 -0.36 -3.09 -0.55 -4.64a0.34 0.34 0 1 0 -0.68 0l0 5.34c0 1.06 0.1 2.12 0.17 3.18 0.07 1.62 0.23 3.21 0.32 4.8Z" fill="#4C57E6" fill-rule="evenodd" stroke-width="1"></path>
    <path d="M10.21 17.12a2 2 0 0 0 0.65 1.88 2.06 2.06 0 0 0 2 0.48 2.38 2.38 0 0 0 1.52 -2.3C14.27 15 12 15 10.72 16.21a1.89 1.89 0 0 0 -0.51 0.91Zm1.28 -0.48c0.86 -1 1.85 -0.36 1.78 0.48a1.21 1.21 0 0 1 -0.84 1.08 0.84 0.84 0 0 1 -0.76 -0.2 0.91 0.91 0 0 1 -0.45 -0.73 1 1 0 0 1 0.27 -0.63Z" fill="#4C57E6" fill-rule="evenodd" stroke-width="1"></path>
    <path d="M17.2 15.47a3.13 3.13 0 0 0 -1.16 0.74 1.89 1.89 0 0 0 -0.51 0.91 2 2 0 0 0 0.65 1.88 2.06 2.06 0 0 0 2 0.48 2.38 2.38 0 0 0 1.52 -2.3 1.75 1.75 0 0 0 -2.5 -1.71Zm0.56 2.73A0.85 0.85 0 0 1 17 18a0.91 0.91 0 0 1 -0.45 -0.73 1 1 0 0 1 0.27 -0.63c0.66 -0.79 1.87 -0.59 1.78 0.48a1.2 1.2 0 0 1 -0.84 1.08Z" fill="#4C57E6" fill-rule="evenodd" stroke-width="1"></path>
  </g>
</svg>