<svg xmlns="http://www.w3.org/2000/svg" viewBox="0 0 24 24" id="Microphone-Karaoke-1--Streamline-Freehand">
  <desc>
    Microphone Karaoke 1 Streamline Icon: https://streamlinehq.com
  </desc>
  <g>
    <path d="M6.8 15a2.14 2.14 0 0 0 -0.31 -1.39 7.42 7.42 0 0 0 -1.08 -1.32 11.21 11.21 0 0 0 -1.07 -1c-0.48 -0.4 -0.93 -0.7 -1.63 -1.3 -0.21 -0.17 -0.53 -0.39 -0.81 -0.63l1.15 -0.55a2.19 2.19 0 0 1 1.4 -0.24 2.19 2.19 0 0 1 1 1 0.4 0.4 0 0 0 0.55 0.19 0.38 0.38 0 0 0 0.14 -0.52 3 3 0 0 0 -1.38 -1.48 3 3 0 0 0 -2 0.12l-1.58 0.61 -0.4 0.2a0.67 0.67 0 0 0 -0.29 0.8 2.77 2.77 0 0 0 0.44 0.6c0.31 0.33 0.73 0.64 1 0.88 0.82 0.72 1.28 1 1.88 1.56 0.21 0.19 0.45 0.41 0.73 0.69a6.56 6.56 0 0 1 1 1 1 1 0 0 1 0.22 0.6c0 0.44 -0.5 0.62 -0.9 0.59s-0.81 -0.29 -0.69 -0.82a2.51 2.51 0 0 1 0.16 -0.46 2.11 2.11 0 0 1 0.24 -0.44 0.34 0.34 0 1 0 -0.55 -0.4 2.9 2.9 0 0 0 -0.34 0.52 3 3 0 0 0 -0.26 0.58 1.47 1.47 0 0 0 1.34 2A1.8 1.8 0 0 0 6.8 15Z" fill="#020202" fill-rule="evenodd" stroke-width="1"></path>
    <path d="M16.35 21.78a7.7 7.7 0 0 1 -2.48 0.81 5.85 5.85 0 0 1 -3.41 -0.34 10.71 10.71 0 0 1 -1.66 -0.83 9.55 9.55 0 0 0 -2.74 -1.19 2.46 2.46 0 0 0 -2.16 0.32 0.37 0.37 0 0 0 -0.07 0.54 0.38 0.38 0 0 0 0.54 0.07 1.68 1.68 0 0 1 1.46 0 8.33 8.33 0 0 1 2.33 1.25A10.61 10.61 0 0 0 10 23.43a7.09 7.09 0 0 0 2.08 0.55 6.64 6.64 0 0 0 2.06 -0.16 8.26 8.26 0 0 0 2.75 -1.21 3.45 3.45 0 0 0 1.48 -1.85c-0.21 -0.28 -0.51 -0.24 -0.88 0.06a3.2 3.2 0 0 1 -1.14 0.96Z" fill="#4C57E6" fill-rule="evenodd" stroke-width="1"></path>
    <path d="M23.36 12.25a1.6 1.6 0 0 0 -1.19 -0.64 3.5 3.5 0 0 0 -1.32 0.2s-0.06 0 -0.1 0 0 -0.07 0.05 -0.11a2.23 2.23 0 0 0 -0.14 -1.24 1.26 1.26 0 0 0 -1.2 -0.91 1 1 0 0 0 -0.24 0 1.24 1.24 0 0 0 -0.5 -1.06 1.2 1.2 0 0 0 -0.72 -0.18 2.92 2.92 0 0 0 -0.84 0.17c-0.09 0 -0.17 0.1 -0.26 0.14a7.85 7.85 0 0 0 0 -0.84 3.87 3.87 0 0 0 0 -0.48 3.63 3.63 0 0 0 -0.1 -0.45c-0.12 -0.37 -0.28 -0.68 -0.4 -1a0.38 0.38 0 0 0 0.11 -0.14 5.57 5.57 0 0 0 0.25 -1.24 5 5 0 0 0 -0.07 -1.29 2.65 2.65 0 0 0 -0.31 -0.78 5.92 5.92 0 0 0 -0.7 -0.91A4.4 4.4 0 0 0 12.7 0a5 5 0 0 0 -3.15 0.89 6.53 6.53 0 0 0 -2.11 2.38 2.93 2.93 0 0 0 -0.16 2.3 3.09 3.09 0 0 0 0.51 0.83 5.85 5.85 0 0 0 1 0.89 4.56 4.56 0 0 0 0.92 0.57 3.56 3.56 0 0 0 0.73 0.19 0.38 0.38 0 0 0 0 0.18c0.12 0.37 0.18 0.72 0.32 1.09 0.06 0.15 0.13 0.29 0.2 0.43a3.6 3.6 0 0 0 0.28 0.4c0.13 0.16 0.27 0.31 0.41 0.46a8.1 8.1 0 0 0 -1.5 1.77 5.6 5.6 0 0 0 -0.45 1 6.32 6.32 0 0 0 -0.29 1 9.53 9.53 0 0 0 -0.11 2.45 0.36 0.36 0 0 0 0.37 0.39 0.39 0.39 0 0 0 0.4 -0.37 11.16 11.16 0 0 1 0.52 -2.16c0.1 -0.3 0.21 -0.59 0.32 -0.88l0.35 -0.86a12.33 12.33 0 0 1 0.74 -1.43 0.29 0.29 0 0 0 0.24 0 4.27 4.27 0 0 1 1.46 -0.44 1.52 1.52 0 0 1 1.16 0.47c0.09 0.09 0.31 0.18 0.42 0.27a2.53 2.53 0 0 1 -0.3 0 9.8 9.8 0 0 0 -1 0.2 1.13 1.13 0 0 0 -0.77 0.71 1.56 1.56 0 0 0 0 0.75c0.11 0.58 0.51 1.35 0.54 1.75a1.73 1.73 0 0 1 -0.22 1.11 2.32 2.32 0 0 1 -0.92 0.8 0.38 0.38 0 0 0 -0.2 0.51 0.38 0.38 0 0 0 0.51 0.2 3.08 3.08 0 0 0 1.37 -1 2.28 2.28 0 0 0 0.2 -0.38L15.8 19a1.47 1.47 0 0 0 -0.28 0.14 2.44 2.44 0 0 0 -0.39 0.33 5.78 5.78 0 0 1 -0.53 0.58 0.39 0.39 0 0 0 -0.19 0.51 0.4 0.4 0 0 0 0.52 0.19 3.69 3.69 0 0 0 0.9 -0.26 1.85 1.85 0 0 0 0.33 -0.21 1.44 1.44 0 0 0 0.28 -0.27 1.36 1.36 0 0 0 0.71 0.37c0.61 0.08 1.14 0.17 1.56 -0.55a2.63 2.63 0 0 0 0.29 -1.21 5.87 5.87 0 0 0 -0.12 -1.28 7.42 7.42 0 0 1 0.94 -1.17 5.28 5.28 0 0 1 1.18 -0.89c0.49 -0.29 1.14 -0.47 1.64 -0.8a2.7 2.7 0 0 0 0.72 -0.71 1.32 1.32 0 0 0 0 -1.52Zm-6 -2.85a3.43 3.43 0 0 1 0.48 -0.08 0.29 0.29 0 0 1 0.19 0.06c0.14 0.13 0 0.31 0 0.49a2.4 2.4 0 0 1 -0.27 0.47c-0.19 0.14 -0.36 0.29 -0.5 0.41a3.73 3.73 0 0 0 -0.41 0.39 1.81 1.81 0 0 0 -0.19 0.29 0.58 0.58 0 0 0 0 0.57 0.64 0.64 0 0 0 0.39 0.35 0.61 0.61 0 0 0 0.49 0l0.18 -0.13 0.21 -0.16 0.54 -0.54a1.71 1.71 0 0 0 0.11 -0.14 4.08 4.08 0 0 1 0.6 -0.39c0.15 -0.07 0.31 -0.16 0.39 0a1.08 1.08 0 0 1 0.12 0.58 1.39 1.39 0 0 1 -0.25 0.61 3.71 3.71 0 0 1 -0.36 0.47 2.18 2.18 0 0 1 -0.4 0.37 1.17 1.17 0 0 1 -1 0.12 1.84 1.84 0 0 1 -1 -0.7 0.45 0.45 0 0 0 -0.24 -0.17 0.43 0.43 0 0 0 0 -0.07 1.07 1.07 0 0 0 -0.06 -0.82 2.77 2.77 0 0 0 -0.84 -0.73l-0.13 -0.07a3.82 3.82 0 0 1 0.72 -0.67 4.12 4.12 0 0 1 1.24 -0.51Zm-6.7 -2.09a0.31 0.31 0 0 0 -0.12 0.05 2.38 2.38 0 0 1 -0.54 -0.18 3.94 3.94 0 0 1 -0.73 -0.54A6 6 0 0 1 8.65 6a2.29 2.29 0 0 1 -0.39 -0.72 1.85 1.85 0 0 1 0.25 -1.48A5.45 5.45 0 0 1 10.28 2a3.92 3.92 0 0 1 2.34 -0.71 3.34 3.34 0 0 1 2.24 0.92 6 6 0 0 1 0.54 0.58 1.74 1.74 0 0 1 0.32 0.6 3.51 3.51 0 0 1 0.13 1 4.89 4.89 0 0 1 -0.1 0.78c-0.67 0.36 -1.39 0.7 -2.12 1l-0.84 0.39 -0.55 0.26a4.94 4.94 0 0 1 -1.58 0.49Zm4.09 2.93a2.17 2.17 0 0 0 -0.79 -0.12 3.45 3.45 0 0 0 -1.33 0.37c-0.11 -0.31 -0.2 -0.63 -0.32 -0.94 -0.06 -0.15 -0.12 -0.3 -0.19 -0.44a2.21 2.21 0 0 0 -0.28 -0.4 5.32 5.32 0 0 0 -0.66 -0.71 5.33 5.33 0 0 0 2 -0.22 5.79 5.79 0 0 0 1.34 -0.67 10.86 10.86 0 0 0 1.08 -0.81 4.3 4.3 0 0 0 -0.09 0.72 2 2 0 0 0 0 0.49 3.59 3.59 0 0 0 0.12 0.47c0.11 0.36 0.27 0.69 0.41 1 -0.14 0.09 -0.3 0.13 -0.43 0.23a4.48 4.48 0 0 0 -0.86 1.03Zm3 8.26a3.31 3.31 0 0 1 -0.09 0.48c0 0.1 -0.05 0.22 -0.14 0.24l-0.46 -0.57 -2.33 -3.15 0 -0.32 -0.36 -2a2.45 2.45 0 0 0 0.27 0 4.35 4.35 0 0 0 1.09 -0.26 1.24 1.24 0 0 0 0.18 -0.14s0 0.05 0 0.08A2.67 2.67 0 0 0 17.32 14s0 0.06 0 0.1c0 0.91 0.33 2.11 0.44 3.2a5 5 0 0 1 -0.01 1.2Zm4.51 -5.44a1.24 1.24 0 0 1 -0.37 0.35c-0.47 0.33 -1.07 0.56 -1.52 0.87a5.36 5.36 0 0 0 -1.73 2 19.16 19.16 0 0 1 -0.54 -2.18 2 2 0 0 0 1.08 -0.23 3.64 3.64 0 0 0 0.51 -0.4 4.73 4.73 0 0 0 0.38 -0.41 5.84 5.84 0 0 1 0.77 -0.29 2.66 2.66 0 0 1 1.19 0 0.46 0.46 0 0 1 0.26 0.17s0.01 0.06 -0.03 0.12Z" fill="#020202" fill-rule="evenodd" stroke-width="1"></path>
  </g>
</svg>