<svg xmlns="http://www.w3.org/2000/svg" viewBox="0 0 24 24" id="Mobilephone-Action-Image--Streamline-Freehand">
  <desc>
    Mobilephone Action Image Streamline Icon: https://streamlinehq.com
  </desc>
  <g>
    <path d="M9.42 20.17 6 20.12c-0.51 0 -1.23 0 -1.85 -0.07a1.61 1.61 0 0 1 -0.94 -0.31 2.46 2.46 0 0 1 -0.48 -1.37 15.64 15.64 0 0 1 0 -2.53c0.08 -1.47 0.3 -4.66 0.47 -7.49 0.13 -2.28 0.22 -4.32 0.24 -5a5.63 5.63 0 0 1 0.08 -1 1 1 0 0 1 0.32 -0.63 2.16 2.16 0 0 1 1 -0.41c0.07 0.46 0.25 1.26 0.42 1.89a3.93 3.93 0 0 0 0.43 1.06 3.62 3.62 0 0 0 1.2 0.41c0.8 0.17 1.87 0.31 2.39 0.38a12.68 12.68 0 0 0 2 0.05 5 5 0 0 0 1.4 -0.28 1.77 1.77 0 0 0 0.64 -0.82 21.33 21.33 0 0 0 1 -2.78 1.55 1.55 0 0 1 0.76 0.67 5 5 0 0 1 0.32 0.66 4.79 4.79 0 0 1 0.19 0.72 21 21 0 0 1 0.2 2.84c0 1.55 -0.07 3.19 -0.15 4.35a0.35 0.35 0 0 0 0.32 0.37 0.34 0.34 0 0 0 0.36 -0.32c0.11 -1.17 0.23 -2.83 0.25 -4.4a20.68 20.68 0 0 0 -0.14 -3 4.69 4.69 0 0 0 -0.21 -0.88 5 5 0 0 0 -0.36 -0.82 2.37 2.37 0 0 0 -1 -1 4.15 4.15 0 0 0 -1.92 -0.34L7 0a10.3 10.3 0 0 0 -2.37 0.17A3.65 3.65 0 0 0 3 0.85a2.14 2.14 0 0 0 -0.63 1A5.73 5.73 0 0 0 2.2 3.3l-0.49 12.5A13.68 13.68 0 0 0 2 19a2.76 2.76 0 0 0 0.68 1.37 2.1 2.1 0 0 0 1.07 0.44 17.35 17.35 0 0 0 2.25 0.01l3.47 -0.05a0.29 0.29 0 0 0 0.29 -0.31 0.29 0.29 0 0 0 -0.34 -0.29ZM6.93 1.11l6 -0.07h0.68c-0.17 0.43 -0.46 1.16 -0.78 1.8 -0.48 1 -0.19 1.1 -1.72 1.14a14.48 14.48 0 0 1 -1.81 -0.06l-3.09 -0.35c-0.14 -0.28 -0.38 -0.89 -0.58 -1.46a9.46 9.46 0 0 1 -0.28 -0.91 12.73 12.73 0 0 1 1.58 -0.09Z" fill="#4C57E6" fill-rule="evenodd" stroke-width="1"></path>
    <path d="M22.24 14a1.68 1.68 0 0 0 -0.18 -0.64 1 1 0 0 0 -0.41 -0.36 2.24 2.24 0 0 0 -0.78 -0.17c-0.39 0 -0.8 -0.07 -1.21 -0.09a7.91 7.91 0 0 0 -0.84 0l-4.25 0.12 -1.84 0c-0.4 0 -0.81 0.05 -1.24 0.1a0.33 0.33 0 0 0 -0.17 0.07 0.35 0.35 0 0 0 -0.18 0 0.3 0.3 0 0 0 -0.3 0.3c0 1.3 0 2.47 -0.05 3.6s-0.09 2.35 -0.18 3.59c0 0.44 -0.09 1.51 -0.09 2.17a2.16 2.16 0 0 0 0.11 0.78 1 1 0 0 0 0.45 0.37 1.94 1.94 0 0 0 0.57 0.12l1.79 0L19 24l1.54 0a2 2 0 0 0 0.61 -0.09 1.54 1.54 0 0 0 0.71 -0.63 2.16 2.16 0 0 0 0.21 -1.22v-3.21l0 -2.24q0 -0.75 0.09 -1.47a5.68 5.68 0 0 0 0.08 -1.14Zm-10.8 8.9 0 -2.4 0 -2.9c0 -1.26 0 -2.54 -0.06 -4h0.12c0.41 0 0.8 -0.06 1.19 -0.07h6.08l1.94 0.16 0.44 0.08a1.27 1.27 0 0 1 0.05 0.51 6 6 0 0 1 -0.05 0.71c-0.06 0.5 -0.1 1 -0.13 1.53 0 0.71 -0.06 1.42 -0.09 2.11l-0.12 -0.19a11 11 0 0 0 -1.06 -1.33 2.4 2.4 0 0 0 -1.19 -0.65 2 2 0 0 0 -1.28 0.18 5 5 0 0 0 -1.33 1A12.5 12.5 0 0 0 14.92 19c-0.49 0.68 -0.9 1.41 -1.34 2.1 -0.24 0.39 -0.5 0.77 -0.73 1.16 -0.13 0.22 -0.25 0.45 -0.36 0.68h-0.76Zm9.48 -0.25a0.4 0.4 0 0 1 -0.16 0.19l-1.69 0 -3.36 0 -2.26 0.06h-0.17c0.06 -0.09 0.11 -0.19 0.18 -0.28 0.28 -0.36 0.58 -0.71 0.86 -1.06 0.57 -0.74 1.15 -1.5 1.77 -2.22 0.26 -0.29 0.51 -0.59 0.79 -0.86a4.11 4.11 0 0 1 0.83 -0.69 1.19 1.19 0 0 1 0.79 -0.26 1.48 1.48 0 0 1 0.73 0.33A11.52 11.52 0 0 1 20.27 19l0.69 0.93 0 0.85 0 1.34a1.25 1.25 0 0 1 -0.04 0.53Z" fill="#020202" fill-rule="evenodd" stroke-width="1"></path>
    <path d="M13.11 16.54a1.24 1.24 0 1 0 1.24 -2.14c-1.08 -0.57 -2.96 1.18 -1.24 2.14Z" fill="#020202" fill-rule="evenodd" stroke-width="1"></path>
  </g>
</svg>