<svg xmlns="http://www.w3.org/2000/svg" viewBox="0 0 24 24" id="Mobilephone-Action-Music--Streamline-Freehand">
  <desc>
    Mobilephone Action Music Streamline Icon: https://streamlinehq.com
  </desc>
  <g>
    <path d="M23.87 20.62c0 -1.39 0 -4.26 -0.05 -6.09a5 5 0 0 0 -0.31 -1.86 0.58 0.58 0 0 0 -0.35 -0.23 2.07 2.07 0 0 0 -0.49 0 29.3 29.3 0 0 0 -3.31 0.57c-0.49 0.13 -1 0.25 -1.46 0.39s-1 0.3 -1.46 0.46c-0.26 0.1 -0.56 0.19 -0.82 0.32a1.85 1.85 0 0 0 -0.6 0.42 0.68 0.68 0 0 0 -0.18 0.33 4.88 4.88 0 0 0 -0.06 1.33c0 1.15 0.22 2.8 0.36 4.06l-0.06 -0.05a0.35 0.35 0 0 0 -0.4 0 1.06 1.06 0 0 0 -0.67 -0.38 2.38 2.38 0 0 0 -1.19 0.14 2.32 2.32 0 0 0 -1.36 1.24 1.92 1.92 0 0 0 0.26 2 2.42 2.42 0 0 0 3 0.46 2.06 2.06 0 0 0 1.1 -2.22c0 -0.85 -0.14 -2.48 -0.16 -3.9a18.15 18.15 0 0 1 0 -2.06c0 -0.09 0.08 -0.2 0.08 -0.25a1.14 1.14 0 0 1 0.22 -0.12 5.48 5.48 0 0 1 0.73 -0.22l2.86 -0.78c0.66 -0.17 2.26 -0.49 3 -0.58a17.26 17.26 0 0 1 0.2 1.87c0.1 1.32 0.17 2.92 0.23 4.16a0.74 0.74 0 0 0 -0.13 -0.12 4 4 0 0 0 -0.7 -0.38 0.36 0.36 0 0 0 -0.46 0.15 0.35 0.35 0 0 0 0.16 0.46 3.64 3.64 0 0 1 0.46 0.3 1.56 1.56 0 0 1 0.33 0.35 1 1 0 0 1 -0.32 1.55 1.84 1.84 0 0 1 -1.84 0.2c-0.41 -0.18 -0.38 -0.71 -0.23 -1.18a1.74 1.74 0 0 1 1.08 -1.23 0.3 0.3 0 0 0 0.25 -0.35 0.29 0.29 0 0 0 -0.34 -0.24 2.62 2.62 0 0 0 -2 1.95 1.72 1.72 0 0 0 0.71 2.05 2.92 2.92 0 0 0 3 -0.32 1.93 1.93 0 0 0 0.92 -2.2Zm-9.58 2.12a1.34 1.34 0 0 1 -1.67 -0.26 0.88 0.88 0 0 1 -0.2 -0.87 1.43 1.43 0 0 1 0.72 -0.85 1.56 1.56 0 0 1 0.66 -0.22 0.45 0.45 0 0 1 0.46 0.16 0.31 0.31 0 0 0 0.41 0.1 1.07 1.07 0 0 1 0.18 0.19 0.82 0.82 0 0 1 0.12 0.2 1.16 1.16 0 0 1 -0.68 1.55Z" fill="#020202" fill-rule="evenodd" stroke-width="1"></path>
    <path d="M12.61 1.2a1.48 1.48 0 0 1 0.76 0.66 4.13 4.13 0 0 1 0.5 1.37 24.5 24.5 0 0 1 0.2 3.33c0 1.88 -0.06 3.92 -0.14 5.07a0.32 0.32 0 0 0 0.31 0.36 0.34 0.34 0 0 0 0.37 -0.31c0.1 -1.16 0.22 -3.22 0.25 -5.12a24.86 24.86 0 0 0 -0.13 -3.46 4.59 4.59 0 0 0 -0.21 -0.87 5.62 5.62 0 0 0 -0.36 -0.83 2.43 2.43 0 0 0 -1 -1 4.28 4.28 0 0 0 -1.92 -0.33L5.26 0A11 11 0 0 0 3 0.17a3.77 3.77 0 0 0 -1.6 0.68 2.14 2.14 0 0 0 -0.63 1 5.68 5.68 0 0 0 -0.22 1.46l-0.5 12.46a13.73 13.73 0 0 0 0.22 3.15A2.8 2.8 0 0 0 1 20.29a2.48 2.48 0 0 0 1.28 0.45 24.34 24.34 0 0 0 2.65 0l4.28 -0.06a0.3 0.3 0 0 0 0.3 -0.3 0.31 0.31 0 0 0 -0.31 -0.3l-4.3 -0.01c-0.51 0 -1.42 0 -2.21 -0.07a2.16 2.16 0 0 1 -1.17 -0.31 2.36 2.36 0 0 1 -0.47 -1.36 13.53 13.53 0 0 1 0 -2.52c0.07 -1.46 0.29 -4.65 0.45 -7.47 0.13 -2.28 0.22 -4.31 0.24 -5a5.78 5.78 0 0 1 0.08 -1 1.14 1.14 0 0 1 0.31 -0.63 2.45 2.45 0 0 1 1 -0.41 17.12 17.12 0 0 0 0.35 1.9 3.75 3.75 0 0 0 0.42 1.06 3.62 3.62 0 0 0 1.2 0.41c0.8 0.17 1.87 0.32 2.38 0.38a12.77 12.77 0 0 0 2 0 5 5 0 0 0 1.39 -0.28 1.69 1.69 0 0 0 0.74 -0.77 19.86 19.86 0 0 0 1 -2.8Zm-1.47 1.65C10.66 3.83 11 4 9.42 4a14.42 14.42 0 0 1 -1.82 -0.09l-3.08 -0.34A14.57 14.57 0 0 1 4 2.11c-0.12 -0.35 -0.23 -0.68 -0.29 -0.91a10.83 10.83 0 0 1 1.58 -0.08l6 -0.07h0.67c-0.21 0.44 -0.5 1.16 -0.82 1.8Z" fill="#4C57E6" fill-rule="evenodd" stroke-width="1"></path>
  </g>
</svg>