<svg xmlns="http://www.w3.org/2000/svg" viewBox="0 0 24 24" id="Mobilephone-Action-Camera-Approved--Streamline-Freehand">
  <desc>
    Mobilephone Action Camera Approved Streamline Icon: https://streamlinehq.com
  </desc>
  <g>
    <path d="M11 22.36a23.56 23.56 0 0 1 -4.49 0.73 2.58 2.58 0 0 1 -2.33 -1.2 14.86 14.86 0 0 1 -1.78 -5.16 83.41 83.41 0 0 1 -1 -8.37 28.77 28.77 0 0 1 -0.31 -3.1 3.59 3.59 0 0 1 0.38 -1.79 2.33 2.33 0 0 1 1 -0.93l0.08 0a6.27 6.27 0 0 0 0.26 1.2 2.08 2.08 0 0 0 0.49 0.78 1.07 1.07 0 0 0 0.51 0.26 3.76 3.76 0 0 0 1 0.08 6.92 6.92 0 0 0 1.42 -0.15c0.67 -0.13 1.32 -0.33 2 -0.47 0.49 -0.12 1.37 -0.15 2 -0.37a1.83 1.83 0 0 0 1 -0.62 1.83 1.83 0 0 0 0.29 -0.86 8 8 0 0 0 0 -1.3 2.43 2.43 0 0 1 2.05 1.41 17.54 17.54 0 0 1 0.7 3c0.42 2.4 0.82 5.5 1.06 7.42a0.31 0.31 0 0 0 0.35 0.29 0.32 0.32 0 0 0 0.28 -0.36c-0.2 -1.93 -0.53 -5.06 -0.9 -7.48a19.31 19.31 0 0 0 -0.69 -3.24 3.29 3.29 0 0 0 -2.63 -2C9.38 -0.29 6.2 0.65 4.55 0.91A8.36 8.36 0 0 0 2 1.58 3.32 3.32 0 0 0 0.52 2.94 4.73 4.73 0 0 0 0 5.25a28.23 28.23 0 0 0 0.33 3.22 83.66 83.66 0 0 0 1.16 8.45 15.42 15.42 0 0 0 2.05 5.4 3.11 3.11 0 0 0 2.12 1.39c1.29 0.21 3 -0.2 5.46 -0.8a0.27 0.27 0 0 0 0.21 -0.34 0.28 0.28 0 0 0 -0.33 -0.21ZM4.72 2a31.57 31.57 0 0 1 5.83 -1h0.2a9.39 9.39 0 0 1 -0.05 1 1.26 1.26 0 0 1 -0.22 0.66 1.32 1.32 0 0 1 -0.8 0.29c-0.63 0.1 -1.34 0.09 -1.77 0.17 -0.74 0.17 -1.51 0.38 -2.28 0.54a7.54 7.54 0 0 1 -0.93 0.16 3.06 3.06 0 0 1 -0.56 0l-0.32 0a1.55 1.55 0 0 1 -0.43 -0.66 6.64 6.64 0 0 1 -0.29 -0.93c0.52 -0.1 1.07 -0.18 1.62 -0.23Z" fill="#020202" fill-rule="evenodd" stroke-width="1"></path>
    <path d="M22.36 15.45a0.32 0.32 0 1 0 -0.44 0.47 3.56 3.56 0 0 1 0.65 4.78 5.5 5.5 0 0 1 -4.65 2.2 5.59 5.59 0 0 1 -2.58 -0.72 3.54 3.54 0 0 1 -1.68 -1.91 4 4 0 0 1 1.1 -4.6 5.94 5.94 0 0 1 4.76 -0.92c-0.48 0.85 -0.93 1.71 -1.4 2.56 -0.66 1.41 -0.31 2.08 -1.49 1.17 -0.53 -0.39 -1.07 -0.9 -1.33 -1.09a0.28 0.28 0 0 0 -0.4 0 0.28 0.28 0 0 0 0 0.39c0.3 0.27 0.89 1 1.43 1.43a1.92 1.92 0 0 0 1 0.53 1 1 0 0 0 0.74 -0.39 10.29 10.29 0 0 0 1 -1.58c0.36 -0.71 0.74 -1.42 1.09 -2.12s0.68 -1.43 1 -2.14 0.64 -1.19 1 -1.77a0.32 0.32 0 1 0 -0.54 -0.35c-0.65 0.9 -1.26 1.82 -1.83 2.79a6.67 6.67 0 0 0 -5.57 0.79 4.83 4.83 0 0 0 -1.6 5.6 4.52 4.52 0 0 0 2.15 2.52 6.56 6.56 0 0 0 3.13 0.83 6.45 6.45 0 0 0 5.35 -2.79 4.27 4.27 0 0 0 -0.89 -5.68Z" fill="#020202" fill-rule="evenodd" stroke-width="1"></path>
    <path d="M14 13.52a3.09 3.09 0 0 0 0.14 -1.41 23.72 23.72 0 0 0 -0.57 -2.71 3.35 3.35 0 0 0 -0.27 -0.81 1.29 1.29 0 0 0 -0.52 -0.59 1.22 1.22 0 0 0 -0.54 -0.15 2.47 2.47 0 0 0 -0.7 0.1 1.29 1.29 0 0 1 -0.54 0.15 2.36 2.36 0 0 1 -0.17 -0.26 3 3 0 0 0 -0.37 -0.61 0.86 0.86 0 0 0 -0.46 -0.31 1 1 0 0 0 -0.39 0c-0.18 0 -0.39 0.1 -0.52 0.11 -0.37 0.06 -0.73 0.12 -1.09 0.2s-0.72 0.17 -1.08 0.28a4.81 4.81 0 0 0 -0.65 0.21 1 1 0 0 0 -0.34 0.28 2.51 2.51 0 0 0 -0.33 0.72c-0.07 0.2 -0.12 0.41 -0.17 0.61a5.62 5.62 0 0 0 -1.15 0.13 1.36 1.36 0 0 0 -0.6 0.3 2.09 2.09 0 0 0 -0.42 1.55 15.41 15.41 0 0 0 0.61 3.2 2.68 2.68 0 0 0 0.3 0.75 1.88 1.88 0 0 0 0.43 0.46 1.71 1.71 0 0 0 0.6 0.23 9 9 0 0 0 1.12 0.05 21.74 21.74 0 0 0 5.39 -1.05 7.72 7.72 0 0 0 1.58 -0.69 1.74 1.74 0 0 0 0.71 -0.74Zm-1 -0.42c-0.05 0.12 -0.23 0.2 -0.45 0.31a10.31 10.31 0 0 1 -1.88 0.72 20.46 20.46 0 0 1 -4.34 0.87 8.19 8.19 0 0 1 -0.86 0 0.77 0.77 0 0 1 -0.36 -0.08 0.78 0.78 0 0 1 -0.24 -0.27 2.77 2.77 0 0 1 -0.18 -0.43 17.55 17.55 0 0 1 -0.64 -2.57c-0.08 -0.62 -0.13 -1.19 0.12 -1.45a0.9 0.9 0 0 1 0.42 -0.17c0.94 -0.2 1.19 0.29 1.29 -0.17 0.08 -0.29 0.17 -0.66 0.29 -1a2.57 2.57 0 0 1 0.28 -0.55l0.67 -0.2c0.34 -0.09 0.68 -0.16 1 -0.22s0.69 -0.1 1 -0.13l0.6 -0.09c0.08 0 0.1 0.15 0.16 0.25a5.59 5.59 0 0 0 0.3 0.6 0.88 0.88 0 0 0 0.45 0.38 1.35 1.35 0 0 0 0.53 0.06 4.62 4.62 0 0 0 0.61 -0.11 0.57 0.57 0 0 1 0.46 0c0.08 0 0.11 0.14 0.14 0.23a1.84 1.84 0 0 1 0.12 0.49c0.1 0.53 0.35 1.42 0.46 2.25A2.7 2.7 0 0 1 13 13.1Z" fill="#4C57E6" fill-rule="evenodd" stroke-width="1"></path>
    <path d="M10 10a2.32 2.32 0 0 0 -0.31 -0.19 3 3 0 0 0 -0.48 -0.16 1.94 1.94 0 0 0 -0.48 0 3.21 3.21 0 0 0 -0.43 0.07 2.41 2.41 0 0 0 -0.9 0.46 1.77 1.77 0 0 0 -0.6 0.89 1.92 1.92 0 0 0 0.2 1.65c0.85 1.12 3.31 0.6 3.58 -1.18A1.57 1.57 0 0 0 10 10Zm-0.24 1.65c-0.25 1 -1.58 1.48 -2 0.62a1 1 0 0 1 0 -0.91A0.84 0.84 0 0 1 8 11a1.24 1.24 0 0 1 0.52 -0.24l0.42 0 0.42 0.14a0.7 0.7 0 0 1 0.37 0.78Z" fill="#4C57E6" fill-rule="evenodd" stroke-width="1"></path>
  </g>
</svg>