<svg xmlns="http://www.w3.org/2000/svg" viewBox="0 0 24 24" id="Mobile-Phone-Chatting-Texting--Streamline-Freehand">
  <desc>
    Mobile Phone Chatting Texting Streamline Icon: https://streamlinehq.com
  </desc>
  <g>
    <path d="M23.68 2.91A4.23 4.23 0 0 0 23 1.17 3.24 3.24 0 0 0 21.2 0.4a32.4 32.4 0 0 0 -6.3 -0.4C11.34 0.08 7.78 0.57 7 1.25s-1.38 2.56 -1.41 4.4 0.38 3.7 1 4.43a2.47 2.47 0 0 0 1.47 0.68 16.57 16.57 0 0 0 2.31 0.08 1.59 1.59 0 0 1 0.75 0.1c0.08 0.07 0 0.21 0 0.38a7.26 7.26 0 0 1 -0.65 1.5l-0.13 0.26a0.34 0.34 0 0 0 0.06 0.35 0.6 0.6 0 0 0 0.4 0.18 2.78 2.78 0 0 0 0.86 -0.11 10.13 10.13 0 0 0 2.15 -0.8c0.13 -0.07 0.25 -0.15 0.37 -0.23s0.48 -0.44 0.69 -0.63a0.72 0.72 0 0 1 0.29 -0.2c1.28 -0.2 3.81 0 5.39 0a3.23 3.23 0 0 0 1.62 -0.32 4.25 4.25 0 0 0 1.33 -2.21 13.46 13.46 0 0 0 0.5 -3.63 12.85 12.85 0 0 0 -0.32 -2.57Zm-1.16 5.86a3.2 3.2 0 0 1 -0.93 1.71 2.46 2.46 0 0 1 -1 0.15c-1.61 0.08 -4.19 -0.06 -5.5 0.18a1.38 1.38 0 0 0 -0.5 0.25 6.3 6.3 0 0 1 -1.06 0.94 10 10 0 0 1 -1.1 0.51 7.42 7.42 0 0 1 -1.21 0.36 8.39 8.39 0 0 0 0.55 -1.36c0.13 -0.5 0.06 -0.91 -0.19 -1.09a1.63 1.63 0 0 0 -0.8 -0.22 24.31 24.31 0 0 1 -2.56 -0.2 1.66 1.66 0 0 1 -1 -0.45c-0.56 -0.65 -0.81 -2.29 -0.75 -3.9S6.83 2.61 7.59 2a3.2 3.2 0 0 1 1.24 -0.41 35.92 35.92 0 0 1 6.08 -0.47 33.24 33.24 0 0 1 6.09 0.41 2.36 2.36 0 0 1 1.09 0.36 3.15 3.15 0 0 1 0.5 1.27 12 12 0 0 1 0.28 2.33 12.76 12.76 0 0 1 -0.35 3.28Z" fill="#4C57E6" fill-rule="evenodd" stroke-width="1"></path>
    <path d="M10.25 4.13a1.09 1.09 0 0 0 -0.47 0 1.32 1.32 0 0 0 -1 1.18 1.4 1.4 0 0 0 1.49 1.61 1.37 1.37 0 0 0 1.4 -1.55 1.26 1.26 0 0 0 -1.42 -1.24Zm0 1.62a0.43 0.43 0 0 1 -0.51 -0.41c0 -0.23 0.07 -0.49 0.26 -0.57a0.34 0.34 0 0 0 0.24 0.06c0.34 0 0.48 0.28 0.47 0.56a0.4 0.4 0 0 1 -0.47 0.36Z" fill="#020202" fill-rule="evenodd" stroke-width="1"></path>
    <path d="M14.9 4.35a1.42 1.42 0 0 0 -1.58 1.1 1.34 1.34 0 0 0 1.28 1.71 1.82 1.82 0 0 0 0.4 0 2 2 0 0 0 0.49 -0.16 1.28 1.28 0 0 0 0.72 -2 1.44 1.44 0 0 0 -1.31 -0.65Zm0.21 1.59 -0.42 0.06a0.43 0.43 0 0 1 -0.44 -0.6 0.92 0.92 0 0 1 0.13 -0.21 0.37 0.37 0 0 0 0.25 0 0.58 0.58 0 0 1 0.69 0.14 0.36 0.36 0 0 1 -0.21 0.61Z" fill="#020202" fill-rule="evenodd" stroke-width="1"></path>
    <path d="M19.53 4.46a0.34 0.34 0 0 0 -0.28 0.07 0.27 0.27 0 0 0 -0.12 0 1.23 1.23 0 0 0 -0.93 0.39 1.29 1.29 0 0 0 -0.39 1 1.32 1.32 0 0 0 0.5 0.9 1.59 1.59 0 0 0 0.9 0.34 1.27 1.27 0 0 0 1.36 -1.31 1.3 1.3 0 0 0 -1.04 -1.39ZM19.29 6a0.57 0.57 0 0 1 -0.29 -0.1c-0.08 -0.05 -0.17 -0.09 -0.2 -0.18a0.39 0.39 0 0 1 0 -0.33c0.08 -0.13 0.18 -0.27 0.32 -0.29a0.31 0.31 0 0 0 0.13 0 0.31 0.31 0 0 0 0.12 0 0.48 0.48 0 0 1 0.26 0.48c0.03 0.23 -0.08 0.42 -0.34 0.42Z" fill="#020202" fill-rule="evenodd" stroke-width="1"></path>
    <path d="M15.78 16.57a6 6 0 0 0 -0.27 -1.16 9.49 9.49 0 0 0 -0.68 -1.35 0.34 0.34 0 1 0 -0.6 0.3c0.21 0.49 0.37 0.91 0.53 1.31 0.07 0.18 0.15 0.36 0.22 0.55s0.13 0.38 0.19 0.59a0.25 0.25 0 0 0 -0.16 0.08 4 4 0 0 1 -0.62 0.53c-0.57 0.4 -1.24 0.74 -1.77 1.09 -0.3 0.21 -0.61 0.4 -0.93 0.58s-0.65 0.34 -1 0.49a6.29 6.29 0 0 1 -1 0.35c-0.34 0.1 -0.68 0.18 -1 0.25 -0.15 0 -0.32 0.07 -0.48 0.09a0.65 0.65 0 0 1 -0.31 0 1.09 1.09 0 0 1 -0.48 -0.35 8.15 8.15 0 0 1 -0.7 -1c-0.38 -0.55 -0.73 -1.12 -1.07 -1.68 -0.52 -0.87 -1 -1.75 -1.52 -2.63 -0.36 -0.58 -0.68 -1.19 -1 -1.81s-0.62 -1.24 -0.91 -1.86a8.14 8.14 0 0 1 -0.6 -1.52 2.34 2.34 0 0 1 0 -1 0.45 0.45 0 0 1 0.15 -0.29 1.91 1.91 0 0 1 0.47 -0.26l0.11 0c0.13 0.3 0.28 0.7 0.46 1.06 0.1 0.19 0.22 0.35 0.31 0.49a3.94 3.94 0 0 0 0.58 0.58 0.73 0.73 0 0 0 0.53 0.17 2 2 0 0 0 0.55 -0.22 3.48 3.48 0 0 0 0.64 -0.44A0.34 0.34 0 1 0 5 9a0.78 0.78 0 0 1 -1 -0.31L3 7.54l1.54 -0.62a0.3 0.3 0 1 0 -0.22 -0.56l-2.35 0.82a2.38 2.38 0 0 0 -0.77 0.43 1.16 1.16 0 0 0 -0.22 0.31 0.34 0.34 0 0 0 -0.34 0.22 11.58 11.58 0 0 0 -0.46 1.95 8.17 8.17 0 0 0 0 2 3.76 3.76 0 0 0 0.17 0.72c0.16 0.5 0.39 1 0.56 1.47A30.23 30.23 0 0 0 2 17.18q0.66 1.38 1.47 2.73a22.39 22.39 0 0 0 1.61 2.47 4.8 4.8 0 0 0 1.67 1.38 2.86 2.86 0 0 0 1 0.24 6 6 0 0 0 1.37 -0.15 10.46 10.46 0 0 0 1.88 -0.62 23.21 23.21 0 0 0 2.54 -1.36 10.94 10.94 0 0 0 1.37 -0.87 2.88 2.88 0 0 0 0.8 -0.91 3.39 3.39 0 0 0 0.29 -1.4c0 -0.67 -0.08 -1.39 -0.11 -1.94a0.33 0.33 0 0 0 -0.11 -0.18Zm-0.46 2.12a2.61 2.61 0 0 1 -0.27 1.08 2 2 0 0 1 -0.61 0.62 11.74 11.74 0 0 1 -1.34 0.72 22.74 22.74 0 0 1 -2.51 1.18 8.45 8.45 0 0 1 -1.71 0.48 6.06 6.06 0 0 1 -0.92 0.11 1.73 1.73 0 0 1 -0.76 -0.16A3.67 3.67 0 0 1 6 21.65a23.48 23.48 0 0 1 -1.6 -2.33c-0.54 -0.86 -1 -1.72 -1.49 -2.6S2 14.93 1.66 14c-0.16 -0.39 -0.37 -0.81 -0.53 -1.22A3.75 3.75 0 0 1 0.9 12a7.33 7.33 0 0 1 0 -1.82l0 -0.23a11 11 0 0 0 0.46 1.33c0.31 0.78 0.64 1.56 1 2.33 0.25 0.52 0.51 1 0.79 1.52 0.51 0.9 1 1.78 1.52 2.65 0.36 0.59 0.73 1.17 1.13 1.74a11.62 11.62 0 0 0 0.83 1.13 2.22 2.22 0 0 0 1 0.62 1.61 1.61 0 0 0 0.62 0 4.81 4.81 0 0 0 0.68 -0.14c0.38 -0.1 0.75 -0.2 1.1 -0.32a7.71 7.71 0 0 0 1.08 -0.45 10.2 10.2 0 0 0 1 -0.57c0.33 -0.2 0.66 -0.42 1 -0.65 0.51 -0.38 1.17 -0.75 1.73 -1.18 0.18 -0.14 0.34 -0.29 0.5 -0.44 -0.01 0.4 0 0.79 -0.02 1.17Z" fill="#020202" fill-rule="evenodd" stroke-width="1"></path>
  </g>
</svg>