<svg xmlns="http://www.w3.org/2000/svg" viewBox="0 0 24 24" id="Mobile-Phone-Write--Streamline-Freehand">
  <desc>
    Mobile Phone Write Streamline Icon: https://streamlinehq.com
  </desc>
  <g>
    <path d="M8.87 2.69a1.13 1.13 0 1 0 -0.75 2.13c1.25 0.44 2.4 -1.53 0.75 -2.13Z" fill="#4C57E6" stroke-width="1"></path>
    <path d="M15.5 19.12a0.28 0.28 0 0 0 -0.14 0.38 4.61 4.61 0 0 1 -0.07 2c-0.11 0.45 -0.26 0.85 -0.55 1a20.69 20.69 0 0 1 -6.81 0.72 18.63 18.63 0 0 1 -5.37 -0.8 2.68 2.68 0 0 1 -0.51 -0.26c-0.05 -0.1 -0.17 -0.16 -0.17 -0.16l0 -7.49c0 -2.78 0 -5.5 0.07 -7.5 0 -0.82 -0.13 -2.14 -0.09 -3.35a3.66 3.66 0 0 1 0.42 -1.88 1.28 1.28 0 0 1 0.94 -0.47 18.72 18.72 0 0 1 2.18 -0.07L7.53 1l2 -0.06a18.61 18.61 0 0 1 4.29 0 2 2 0 0 1 1.7 1.57 7.64 7.64 0 0 1 0.11 1.36c0 1.11 -0.13 2.26 -0.13 3.33a0.34 0.34 0 0 0 0.33 0.34 0.33 0.33 0 0 0 0.33 -0.33c0 -1.07 0.17 -2.23 0.19 -3.34a9.17 9.17 0 0 0 -0.1 -1.49 2.52 2.52 0 0 0 -1.48 -2c-1.53 -0.63 -3.9 -0.3 -5.28 -0.31l-2 0 -2.18 0.15A12.13 12.13 0 0 0 2.6 0.35a2 2 0 0 0 -1.21 0.8A4 4 0 0 0 0.79 3a39.33 39.33 0 0 0 0 4C0.76 9.31 0.72 12.75 0.75 16c0 2.25 0.07 4.41 0.14 6a1.28 1.28 0 0 0 0.75 1 10 10 0 0 0 3.44 0.83c3.21 0.34 7.62 0.11 9.88 -0.77a1.91 1.91 0 0 0 0.94 -1.45 5.13 5.13 0 0 0 0 -2.36 0.3 0.3 0 0 0 -0.4 -0.13Z" fill="#020202" stroke-width="1"></path>
    <path d="M23.11 6.74c-0.3 -0.28 -0.54 -0.58 -0.84 -0.86a4.39 4.39 0 0 0 -0.63 -0.51 6.79 6.79 0 0 0 -1.29 -0.58 0.29 0.29 0 0 0 -0.4 0.1 0.3 0.3 0 0 0 0.1 0.4c0.3 0.26 0.52 0.56 0.81 0.83l0.18 0.16 -0.25 0.19a3 3 0 0 0 -0.23 0.27 2 2 0 0 0 -0.2 0.31c-0.06 0.1 -0.1 0.21 -0.15 0.31 -0.17 -0.11 -0.32 -0.2 -0.43 -0.29a0.33 0.33 0 0 0 -0.41 0.52c1.39 1.11 1.29 1 1.3 1.15l-1.33 1.86c-0.74 1.06 -2.21 3.05 -3.5 4.77 -1.13 1.51 -2.12 2.82 -2.37 3.05A14.66 14.66 0 0 1 12 19a16.17 16.17 0 0 1 -0.14 -1.72c0.06 -0.27 0.27 -0.47 0.65 -1 0.48 -0.68 2.69 -3.93 4.51 -6.41a31.43 31.43 0 0 1 2.08 -2.65 0.3 0.3 0 0 0 0 -0.41 0.31 0.31 0 0 0 -0.42 0c-0.47 0.47 -1.29 1.45 -2.2 2.58 -1.92 2.41 -4.28 5.61 -4.79 6.22a4.12 4.12 0 0 0 -0.85 1.39 4.49 4.49 0 0 0 0.06 1.6c0 0.08 0 0.7 0.06 0.95a0.7 0.7 0 0 0 0.42 0.59 1.23 1.23 0 0 0 0.47 0 6.09 6.09 0 0 0 0.92 -0.32c0.2 -0.07 0.6 -0.15 0.91 -0.26a1.5 1.5 0 0 0 0.55 -0.31 26.2 26.2 0 0 0 1.85 -2.44c1.37 -1.91 3.11 -4.46 3.94 -5.73l1 -1.46a2.83 2.83 0 0 0 0.34 -0.51 0.87 0.87 0 0 0 0.07 -0.42 1.19 1.19 0 0 0 -0.43 -0.75l0.24 -0.21a1.6 1.6 0 0 0 0.25 -0.27 1.49 1.49 0 0 0 0.2 -0.31 2.22 2.22 0 0 0 0.14 -0.32 7.47 7.47 0 0 0 1 0.49 0.32 0.32 0 0 0 0.46 -0.09 0.32 0.32 0 0 0 -0.18 -0.49Z" fill="#020202" stroke-width="1"></path>
    <path d="M7.74 12.21c-0.11 0.21 -0.22 0.42 -0.35 0.62l-0.63 0.92a9.65 9.65 0 0 0 -1.52 3.78A2.21 2.21 0 0 0 6.75 20a4.1 4.1 0 0 0 0.5 0.14 4.67 4.67 0 0 0 0.52 0.08h0.62c0.44 0 0.87 -0.12 1.31 -0.15a0.35 0.35 0 0 0 0.32 -0.35 0.33 0.33 0 0 0 -0.35 -0.31c-0.44 0 -0.87 0.07 -1.31 0.07a3 3 0 0 1 -0.51 0l-0.8 -0.23a1.38 1.38 0 0 1 -0.82 -1.61 8.84 8.84 0 0 1 1.46 -3.28l0.62 -0.94a6.26 6.26 0 0 0 0.4 -0.77 5.64 5.64 0 0 0 0.29 -0.84 2.26 2.26 0 0 0 -0.33 -1.71 1.74 1.74 0 0 0 -1.57 -0.79 2.75 2.75 0 0 0 -1.14 0.38 4.32 4.32 0 0 0 -1.25 1.14 0.3 0.3 0 0 0 0.06 0.41 0.28 0.28 0 0 0 0.4 -0.05 3.5 3.5 0 0 1 0.91 -0.78 2.18 2.18 0 0 1 1 -0.32 0.9 0.9 0 0 1 0.78 0.49 1.29 1.29 0 0 1 0.12 1c-0.06 0.2 -0.14 0.42 -0.24 0.63Z" fill="#4C57E6" stroke-width="1"></path>
  </g>
</svg>