<svg xmlns="http://www.w3.org/2000/svg" viewBox="0 0 24 24" id="Mobilephone-Action-Check--Streamline-Freehand">
  <desc>
    Mobilephone Action Check Streamline Icon: https://streamlinehq.com
  </desc>
  <g>
    <path d="M3 8.33c0.13 -2.27 0.23 -4.31 0.24 -5a5.7 5.7 0 0 1 0.08 -1 1.06 1.06 0 0 1 0.32 -0.63 2.41 2.41 0 0 1 1 -0.41A17.12 17.12 0 0 0 5 3.2a3.93 3.93 0 0 0 0.43 1.06 3.44 3.44 0 0 0 1.19 0.41c0.8 0.17 1.87 0.31 2.39 0.38a12.64 12.64 0 0 0 2 0 5 5 0 0 0 1.39 -0.28 1.72 1.72 0 0 0 0.75 -0.77 18.26 18.26 0 0 0 1 -2.77 1.48 1.48 0 0 1 0.77 0.67 4.48 4.48 0 0 1 0.32 0.66 2.93 2.93 0 0 1 0.18 0.69c0.09 0.81 0.13 1.84 0.14 2.92 0 1.59 -0.05 3.26 -0.13 4.42a0.34 0.34 0 0 0 0.31 0.37 0.35 0.35 0 0 0 0.37 -0.31c0.1 -1.18 0.2 -2.87 0.23 -4.48 0 -1.1 0 -2.17 -0.07 -3a3.67 3.67 0 0 0 -0.21 -0.9 5.42 5.42 0 0 0 -0.37 -0.81 2.44 2.44 0 0 0 -1 -1 4.28 4.28 0 0 0 -1.91 -0.39L6.81 0a10.26 10.26 0 0 0 -2.32 0.17A3.56 3.56 0 0 0 2.9 0.85a2.16 2.16 0 0 0 -0.63 1 5.4 5.4 0 0 0 -0.18 1.46l-0.48 12.46a13.14 13.14 0 0 0 0.22 3.14 2.69 2.69 0 0 0 0.68 1.36 2.32 2.32 0 0 0 1.27 0.45 24.31 24.31 0 0 0 2.65 0l3 0a0.3 0.3 0 0 0 0.29 -0.31 0.29 0.29 0 0 0 -0.3 -0.29l-3 0c-0.5 0 -1.42 0 -2.21 -0.07a2.3 2.3 0 0 1 -1.18 -0.31 2.42 2.42 0 0 1 -0.47 -1.37 13.54 13.54 0 0 1 0 -2.52c0.06 -1.51 0.28 -4.7 0.44 -7.52Zm3.78 -7.22 6 -0.07h0.67c-0.16 0.43 -0.45 1.15 -0.77 1.79 -0.48 1 -0.19 1.1 -1.72 1.14a14.57 14.57 0 0 1 -1.82 -0.07l-3.08 -0.34a13.65 13.65 0 0 1 -0.57 -1.46 8.59 8.59 0 0 1 -0.28 -0.9 11 11 0 0 1 1.57 -0.09Z" fill="#4C57E6" fill-rule="evenodd" stroke-width="1"></path>
    <path d="M22.27 16.35a5.13 5.13 0 0 0 -0.67 -1.73 3.09 3.09 0 0 0 -0.48 -0.6 7.31 7.31 0 0 0 -0.82 -0.65 8.33 8.33 0 0 0 -0.73 -0.48 3.24 3.24 0 0 0 -0.6 -0.27 5.88 5.88 0 0 0 -3.45 0 6.88 6.88 0 0 0 -2.94 1.7 5.11 5.11 0 0 0 -0.71 0.9 7.86 7.86 0 0 0 -0.53 1 6.21 6.21 0 0 0 -0.55 3 4 4 0 0 0 0.36 1.38 0.61 0.61 0 0 0 0 0.11 4 4 0 0 0 0.92 1.33A7.68 7.68 0 0 0 14 23.45a5.81 5.81 0 0 0 2 0.55 6.46 6.46 0 0 0 2.05 -0.12 6 6 0 0 0 1.76 -0.68 4.88 4.88 0 0 0 1.43 -1.3 6.12 6.12 0 0 0 0.76 -1.38 4.74 4.74 0 0 0 0.38 -1.52 12 12 0 0 0 -0.11 -2.65Zm-1 2.57a3.48 3.48 0 0 1 -0.25 1.2 5.51 5.51 0 0 1 -0.6 1.13 4 4 0 0 1 -1.11 1.07 5.09 5.09 0 0 1 -1.47 0.63 5.53 5.53 0 0 1 -1.76 0.15 5.08 5.08 0 0 1 -1.72 -0.37 6.37 6.37 0 0 1 -1.46 -0.95 3.8 3.8 0 0 1 -1.07 -1.3 0.36 0.36 0 0 0 -0.1 -0.14 3.55 3.55 0 0 1 -0.25 -1.59 5.46 5.46 0 0 1 0.6 -2.17 6.71 6.71 0 0 1 0.51 -0.86 4 4 0 0 1 0.61 -0.72 6 6 0 0 1 2.58 -1.34 4.86 4.86 0 0 1 2.83 0 2.09 2.09 0 0 1 0.4 0.19c0.22 0.13 0.42 0.28 0.63 0.43a5 5 0 0 1 0.58 0.45 2.12 2.12 0 0 1 0.41 0.48 4 4 0 0 1 0.51 1.35 9.58 9.58 0 0 1 0.11 2.36Z" fill="#020202" fill-rule="evenodd" stroke-width="1"></path>
    <path d="M19.65 15.49a0.35 0.35 0 0 0 -0.45 0.18 12.51 12.51 0 0 1 -1.49 2c-0.23 0.27 -0.48 0.53 -0.71 0.79 -0.39 0.43 -0.76 0.83 -1.08 1.15l-0.46 0.41c-0.13 0.09 -0.09 0.33 -0.81 -0.28a11.85 11.85 0 0 1 -1.19 -1.25 0.29 0.29 0 0 0 -0.41 -0.08 0.3 0.3 0 0 0 -0.08 0.42 9.85 9.85 0 0 0 1.3 1.76 1.78 1.78 0 0 0 1.08 0.59 1.42 1.42 0 0 0 0.79 -0.29 8.51 8.51 0 0 0 1.58 -1.54 14.45 14.45 0 0 0 2.1 -3.43 0.34 0.34 0 0 0 -0.17 -0.43Z" fill="#020202" fill-rule="evenodd" stroke-width="1"></path>
  </g>
</svg>