<svg xmlns="http://www.w3.org/2000/svg" viewBox="0 0 24 24" id="Modern-Tv-Apple--Streamline-Freehand">
  <desc>
    Modern Tv Apple Streamline Icon: https://streamlinehq.com
  </desc>
  <g>
    <path d="M20.46 9.54c-0.68 -0.09 -1.08 0.1 -1.14 0.7 0 0.31 -0.14 1 0.94 1.08s1.11 -1.67 0.2 -1.78Z" fill="#4C57E6" fill-rule="evenodd" stroke-width="1"></path>
    <path d="M17.78 9.12c-0.68 -0.08 -1.08 0.1 -1.14 0.7 0 0.32 -0.15 1 0.94 1.08s1.1 -1.66 0.2 -1.78Z" fill="#4C57E6" fill-rule="evenodd" stroke-width="1"></path>
    <path d="M16.4 14.83c-0.68 -0.08 -1.09 0.1 -1.15 0.7 0 0.32 -0.14 1 0.95 1.08s1.1 -1.61 0.2 -1.78Z" fill="#4C57E6" fill-rule="evenodd" stroke-width="1"></path>
    <path d="M15.73 17.44c-0.67 -0.09 -1.08 0.1 -1.14 0.7 0 0.31 -0.14 1 0.94 1.08s1.11 -1.67 0.2 -1.78Z" fill="#4C57E6" fill-rule="evenodd" stroke-width="1"></path>
    <path d="M19.18 17.43c0.07 -0.44 0.07 -0.86 0.11 -1.3a0.33 0.33 0 1 0 -0.64 -0.19c-0.21 0.39 -0.44 0.74 -0.63 1.14a5.34 5.34 0 0 0 -0.18 0.52 5.23 5.23 0 0 0 -0.12 0.54c-0.08 0.43 -0.12 0.85 -0.17 1.29a0.38 0.38 0 0 0 0.72 0.22c0.2 -0.4 0.41 -0.76 0.58 -1.17a3.59 3.59 0 0 0 0.2 -0.51 5.29 5.29 0 0 0 0.13 -0.54Z" fill="#4C57E6" fill-rule="evenodd" stroke-width="1"></path>
    <path d="m0.14 13.82 0 1.95a7.56 7.56 0 0 0 0 1 1.08 1.08 0 0 0 0.2 0.47 2.06 2.06 0 0 0 1 0.63 9 9 0 0 0 2.17 0.36c2.58 0.17 6 -0.17 6.91 -0.16a0.37 0.37 0 0 0 0.39 -0.36 0.38 0.38 0 0 0 -0.36 -0.39c-0.85 -0.07 -4.29 -0.1 -6.84 -0.34a14 14 0 0 1 -1.91 -0.29c-0.22 -0.06 -0.41 -0.09 -0.49 -0.19s0.05 0.05 0 0.06c-0.25 0.11 -0.18 -2.17 -0.21 -2.35 0 -0.56 -0.83 -0.96 -0.86 -0.39Z" fill="#4C57E6" fill-rule="evenodd" stroke-width="1"></path>
    <path d="M11.38 13.91c-1.65 0 -2.69 0 -3.86 -0.08 -0.73 -0.05 -1.52 -0.13 -2.52 -0.28a8.87 8.87 0 0 1 -2.42 -0.61 2.46 2.46 0 0 1 -1.09 -0.86 2 2 0 0 1 -0.23 -0.94c0 -0.67 0.05 -1.39 0.05 -1.91l0 -3.46c0 -1.16 0.05 -2.31 0.11 -3.46a0.33 0.33 0 1 0 -0.66 -0.06C0.58 3.41 0.47 4.57 0.36 5.73S0.18 8.05 0.12 9.21A16 16 0 0 0 0 11.57a3.2 3.2 0 0 0 2 2.52 9.89 9.89 0 0 0 2.79 0.59c1.06 0.09 1.87 0.13 2.62 0.13 1.19 0 2.25 -0.06 3.91 -0.15a0.37 0.37 0 0 0 0.37 -0.38 0.38 0.38 0 0 0 -0.31 -0.37Z" fill="#020202" fill-rule="evenodd" stroke-width="1"></path>
    <path d="M1.07 1.91c2 0 4.08 -0.09 6.13 -0.2 0.85 -0.05 1.71 -0.09 2.56 -0.12a24.73 24.73 0 0 1 3.65 0.1 11.31 11.31 0 0 1 2.59 0.25 1.08 1.08 0 0 1 0.79 1 0.39 0.39 0 0 0 0.4 0.35 0.38 0.38 0 0 0 0.35 -0.4 1.84 1.84 0 0 0 -1.2 -1.76 13 13 0 0 0 -2.78 -0.52 17.75 17.75 0 0 0 -2 -0.25 25.7 25.7 0 0 0 -3 0C8 0.41 7.47 0.46 7 0.51c-2 0.23 -4 0.59 -5.95 0.74a0.33 0.33 0 0 0 -0.32 0.34 0.32 0.32 0 0 0 0.34 0.32Z" fill="#020202" fill-rule="evenodd" stroke-width="1"></path>
    <path d="M9.36 11.31a0.18 0.18 0 0 0 0.1 0h-0.1Z" fill="#020202" fill-rule="evenodd" stroke-width="1"></path>
    <path d="M12.54 10.48a2.65 2.65 0 0 0 0.13 -0.67 0.86 0.86 0 0 0 -0.13 -0.51c-0.27 -0.38 -0.65 -0.62 -0.81 -1a1 1 0 0 1 0 -0.65l0.18 -0.41a0.37 0.37 0 1 0 -0.62 -0.42L11 7.4a1.72 1.72 0 0 0 0 1.18 5.08 5.08 0 0 0 0.77 1.16c0.14 0 -0.09 0.34 -0.12 0.44l-0.19 0.37c-0.09 0.14 -0.15 0.22 -0.24 0.22a0.91 0.91 0 0 1 -0.45 -0.19 3.79 3.79 0 0 0 -1.29 -0.46 1 1 0 0 0 -0.38 0.05 3.17 3.17 0 0 0 -0.58 0.34 1.59 1.59 0 0 1 -0.46 0.21 0.67 0.67 0 0 1 -0.34 0A1.93 1.93 0 0 1 6.57 9a3.36 3.36 0 0 1 0.57 -2.26 2.33 2.33 0 0 1 1.78 -0.94 3.14 3.14 0 0 1 2.08 0.72 0.33 0.33 0 1 0 0.43 -0.5A3.91 3.91 0 0 0 8.93 5a3.26 3.26 0 0 0 -2.61 1.06 4.42 4.42 0 0 0 -1 3 3.09 3.09 0 0 0 1.88 2.79 1.71 1.71 0 0 0 0.88 0.12 2.54 2.54 0 0 0 1.06 -0.42s0.14 -0.17 0.22 -0.24c0.05 0 0.08 -0.05 0.1 0a4.17 4.17 0 0 1 1 0.35 1.58 1.58 0 0 0 0.82 0.17 1.31 1.31 0 0 0 1 -0.75Z" fill="#020202" fill-rule="evenodd" stroke-width="1"></path>
    <path d="M8.31 3a1.2 1.2 0 0 0 -0.15 0.24 0.8 0.8 0 0 0 -0.09 0.26c-0.2 1 0 1.07 0.08 1.12 0.27 0.16 0.88 -0.44 1 -0.6a1.5 1.5 0 0 0 0.15 -0.25 1.07 1.07 0 0 0 0.08 -0.27c0.2 -1 0.09 -1.08 -0.08 -1.17s-0.3 -0.1 -0.99 0.67Z" fill="#020202" fill-rule="evenodd" stroke-width="1"></path>
    <path d="M23.76 6a1.94 1.94 0 0 0 -0.71 -0.48 9.34 9.34 0 0 0 -1.45 -0.34c-0.91 -0.21 -1.83 -0.4 -2.74 -0.63 -0.59 -0.16 -1.19 -0.33 -1.77 -0.54a0.31 0.31 0 0 0 -0.42 0.18 0.29 0.29 0 0 0 -0.13 0.14c-0.68 1.79 -1.82 5 -2.76 8.17 -0.37 1.23 -0.7 2.45 -1 3.57A26.32 26.32 0 0 0 12 21a1.34 1.34 0 0 0 0.2 0.85 3.78 3.78 0 0 0 1.8 1 31.25 31.25 0 0 0 4.14 0.82 0.38 0.38 0 0 0 0.44 -0.29 0.37 0.37 0 0 0 -0.29 -0.44c-0.79 -0.19 -2.22 -0.42 -3.44 -0.81a3.82 3.82 0 0 1 -1.71 -0.91c-0.14 0 0 -0.39 0 -0.73 0.14 -0.92 0.49 -2.36 0.91 -4 0.27 -1 0.57 -2.18 0.86 -3.34 0.58 0.22 1.16 0.44 1.75 0.63 0.33 0.11 0.68 0.21 1 0.29s0.71 0.16 1.07 0.22c0.66 0.11 1.32 0.18 2 0.24 -0.31 1.11 -0.61 2.22 -0.91 3.33 -0.43 1.61 -0.84 3.22 -1.18 4.86a0.37 0.37 0 0 0 0.27 0.45 0.36 0.36 0 0 0 0.45 -0.28c0.32 -1.19 0.67 -2.38 1.05 -3.56 0.52 -1.67 1.09 -3.31 1.62 -5 0.37 -1.1 0.7 -2.22 1 -3.34 0.18 -0.65 0.39 -1.29 0.56 -1.94a10.92 10.92 0 0 0 0.29 -1.38 5.67 5.67 0 0 0 0.1 -1 1.23 1.23 0 0 0 -0.22 -0.67Zm-1 1.46a10 10 0 0 1 -0.3 1.23c-0.18 0.65 -0.39 1.28 -0.59 1.92 -0.26 1 -0.55 1.91 -0.83 2.86 0 0.06 0 0.13 -0.05 0.19l-2 -0.61c-0.54 -0.16 -1.09 -0.31 -1.64 -0.43 -0.73 -0.15 -1.47 -0.22 -2.2 -0.3 0.76 -2.94 1.52 -5.87 2 -7.6 0.5 0.21 1 0.4 1.51 0.57 0.9 0.29 1.82 0.55 2.72 0.82 1.49 0.5 1.62 0.27 1.34 1.39Z" fill="#020202" fill-rule="evenodd" stroke-width="1"></path>
  </g>
</svg>