<svg xmlns="http://www.w3.org/2000/svg" viewBox="0 0 24 24" id="Modern-Music-Electric-Guitar--Streamline-Freehand">
  <desc>
    Modern Music Electric Guitar Streamline Icon: https://streamlinehq.com
  </desc>
  <g>
    <path d="M15.94 12.59a1.61 1.61 0 0 0 1.2 0c0.09 0 0.61 -0.38 1.1 -0.6 0.18 -0.08 0.4 -0.05 0.49 -0.1a1.4 1.4 0 0 1 -0.08 0.42 2.44 2.44 0 0 1 -0.25 0.61 5.31 5.31 0 0 1 -0.89 1.08c-1 0.91 -1.77 0.64 -2.84 2.11a3.19 3.19 0 0 0 -0.51 1.72 9.93 9.93 0 0 1 -0.22 2.17 3.54 3.54 0 0 1 -0.7 1.3 4.49 4.49 0 0 1 -3.6 1.7 6.65 6.65 0 0 1 -3.87 -1.41 8.31 8.31 0 0 1 -2.41 -2.7 4.61 4.61 0 0 1 -0.43 -3.37 3 3 0 0 1 1 -1.68 5.26 5.26 0 0 1 1.43 -0.63 2.57 2.57 0 0 0 1.54 -1.3 4.85 4.85 0 0 0 0.39 -0.91 7.13 7.13 0 0 0 0.16 -1 7.86 7.86 0 0 1 0.32 -1.55 5.38 5.38 0 0 1 0.72 -1.38A4 4 0 0 1 9.85 5.8a1.53 1.53 0 0 1 1.09 -0.14c0.14 0 0.18 0.15 0.2 0.28A3.68 3.68 0 0 1 11 7a2.42 2.42 0 0 0 0.21 1.29 3.62 3.62 0 0 0 0.2 0.33c0.27 0.26 0.58 -0.12 0.4 -0.47a1.89 1.89 0 0 1 -0.2 -1.06 3.48 3.48 0 0 0 0.08 -1.44 0.86 0.86 0 0 0 -0.6 -0.58 2.15 2.15 0 0 0 -1.58 0.14 4.8 4.8 0 0 0 -1.63 1.41A6 6 0 0 0 7 8.18a8.31 8.31 0 0 0 -0.4 1.7 6.54 6.54 0 0 1 -0.16 0.85 3.71 3.71 0 0 1 -0.35 0.76 1.66 1.66 0 0 1 -1.09 0.8 5.71 5.71 0 0 0 -1.7 0.74 3.9 3.9 0 0 0 -1.36 2.17 5.58 5.58 0 0 0 0.49 4.14 9.08 9.08 0 0 0 2.7 3.05A7.57 7.57 0 0 0 9.64 24 5.47 5.47 0 0 0 14 22a4.38 4.38 0 0 0 0.86 -1.67 8.26 8.26 0 0 0 0.2 -2.06 2.86 2.86 0 0 1 0.33 -1.65c1 -1.42 1.72 -1.15 2.67 -2a6.19 6.19 0 0 0 1 -1.24 3.37 3.37 0 0 0 0.37 -1 1.49 1.49 0 0 0 0 -0.82 0.65 0.65 0 0 0 -0.77 -0.39 6.8 6.8 0 0 0 -1.73 0.83 1 1 0 0 1 -0.73 0.05 2.18 2.18 0 0 1 -0.59 -0.37c-0.28 -0.32 -0.62 0.19 -0.4 0.5a3.07 3.07 0 0 0 0.73 0.41Z" fill="#020202" stroke-width="1"></path>
    <path d="M21.67 0a8.44 8.44 0 0 0 -2.62 1 18.65 18.65 0 0 0 -3.38 2.27 17.39 17.39 0 0 0 -1.82 2.56c-1.1 1.94 -2 3.53 -3.51 5.82l-0.78 -0.24a0.27 0.27 0 0 0 -0.36 0.14 0.28 0.28 0 0 0 0.14 0.37 13.79 13.79 0 0 1 1.27 0.89c0.18 0.13 0.35 0.27 0.54 0.39s0.55 0.34 0.82 0.5 0.75 0.34 1.12 0.53a3.3 3.3 0 0 1 0.41 0.23 0.32 0.32 0 0 0 0.45 0 0.33 0.33 0 0 0 0 -0.45c-0.13 -0.13 -0.28 -0.25 -0.42 -0.37l-0.17 -0.12 5.14 -7.69a5 5 0 0 0 1.37 0.36 1 1 0 0 0 1.08 -0.64c0.24 -0.8 1 -3.35 1.27 -4.43a1.9 1.9 0 0 0 0.03 -0.62 0.52 0.52 0 0 0 -0.58 -0.5ZM20 5.17l-0.4 0a5.81 5.81 0 0 1 -1.08 -0.35 0.47 0.47 0 0 0 -0.62 0.18l-5.09 8.14 -0.29 -0.22c-0.22 -0.16 -0.43 -0.34 -0.66 -0.48a6.37 6.37 0 0 0 -0.72 -0.41l-0.27 -0.11c0.49 -0.69 3.05 -4.68 3.68 -5.6a21.43 21.43 0 0 1 1.84 -2.38 18.1 18.1 0 0 1 3.16 -2 16.78 16.78 0 0 1 1.52 -0.73C20.8 2.38 20.2 4.38 20 5.17Z" fill="#020202" stroke-width="1"></path>
    <path d="M11.42 14.53a5.5 5.5 0 0 0 -0.57 -0.36 6.54 6.54 0 0 0 -0.59 -0.3c-0.48 -0.21 -1 -0.36 -1.43 -0.57a0.28 0.28 0 0 0 -0.38 0.09 0.28 0.28 0 0 0 0.08 0.38A13.89 13.89 0 0 0 10 14.88c0.3 0.18 0.61 0.34 0.92 0.49 0.47 0.24 0.93 0.43 1.37 0.7a0.31 0.31 0 1 0 0.39 -0.49 9.4 9.4 0 0 0 -1.26 -1.05Z" fill="#4C57E6" stroke-width="1"></path>
    <path d="M11.44 17a13.23 13.23 0 0 0 -1.12 -0.89l-0.51 -0.33c-0.17 -0.09 -0.35 -0.19 -0.53 -0.27 -0.42 -0.21 -0.85 -0.35 -1.28 -0.51a0.28 0.28 0 0 0 -0.38 0.07 0.28 0.28 0 0 0 0.07 0.39 9 9 0 0 0 1.25 1.06 7 7 0 0 0 0.85 0.46c0.43 0.2 0.87 0.36 1.3 0.57a0.32 0.32 0 0 0 0.44 -0.1 0.31 0.31 0 0 0 -0.09 -0.45Z" fill="#4C57E6" stroke-width="1"></path>
    <path d="M10.12 18.57c-0.26 -0.23 -0.63 -0.42 -0.84 -0.59a7.08 7.08 0 0 0 -1.72 -1.25 1.3 1.3 0 0 0 -1.14 0 1.5 1.5 0 0 0 -0.46 0.39 4.05 4.05 0 0 0 -0.41 0.65 0.29 0.29 0 0 0 0.11 0.38 0.27 0.27 0 0 0 0.34 -0.09 3.35 3.35 0 0 1 0.32 -0.42 1.15 1.15 0 0 1 0.34 -0.27 0.83 0.83 0 0 1 0.73 0.21 9.16 9.16 0 0 1 1.21 1.17c0.18 0.16 0.47 0.34 0.71 0.54a0.55 0.55 0 0 1 0.19 0.18c-0.05 0 0 0.14 0 0.22a2.62 2.62 0 0 1 -0.11 0.4 5.65 5.65 0 0 1 -0.48 -0.46l-0.83 -0.58 -1.51 -1a0.32 0.32 0 0 0 -0.37 0.51l1.39 1.09 0.75 0.65a4.8 4.8 0 0 0 0.75 0.64 0.78 0.78 0 0 0 0.63 0.08 1.49 1.49 0 0 0 0.72 -0.85 1.72 1.72 0 0 0 0.09 -1.07 1.46 1.46 0 0 0 -0.41 -0.53Zm-0.83 1.55s0.03 0.03 0 0Zm0.09 0c0.07 0 0.16 -0.06 0.15 0s-0.08 0.02 -0.15 -0.03Z" fill="#4C57E6" stroke-width="1"></path>
  </g>
</svg>