<svg xmlns="http://www.w3.org/2000/svg" viewBox="0 0 24 24" id="Modern-Payment-E-Wallet--Streamline-Freehand">
  <desc>
    Modern Payment E Wallet Streamline Icon: https://streamlinehq.com
  </desc>
  <g>
    <path d="M5.62 11.48a10.67 10.67 0 0 0 0.3 1.8c0.26 1.38 0.39 2.28 0.64 3.28 0.15 0.63 0.35 1.3 0.64 2.15a0.3 0.3 0 0 0 0.36 0.19 0.29 0.29 0 0 0 0.19 -0.36c-0.24 -0.84 -0.39 -1.5 -0.51 -2.13 -0.17 -1 -0.25 -1.89 -0.41 -3.27 0 -0.33 -0.18 -0.91 -0.2 -1.44a0.87 0.87 0 0 1 0.11 -0.58c0.06 -0.08 0.19 -0.1 0.32 -0.14a5 5 0 0 1 0.6 -0.14l3.05 -0.6c1 -0.21 2 -0.46 2.95 -0.67a18 18 0 0 1 1.95 -0.33c0.21 0 0.64 -0.13 1 -0.18 0.17 0 0.32 -0.05 0.41 0a1.28 1.28 0 0 1 0.39 0.7 6.39 6.39 0 0 1 0.2 0.84c-0.22 0 -0.43 0.05 -0.65 0.1 -0.44 0.09 -0.87 0.2 -1.3 0.3l-1.38 0.35a3.55 3.55 0 0 0 -0.75 0.27 1.74 1.74 0 0 0 -0.49 0.42 1.9 1.9 0 0 0 -0.31 1.43 2.1 2.1 0 0 0 0.69 1.26 1.93 1.93 0 0 0 1.24 0.41 10.64 10.64 0 0 0 1.48 -0.24l1.7 -0.34a2.47 2.47 0 0 0 0.59 -0.12 0.69 0.69 0 0 0 0.38 -0.39 1.7 1.7 0 0 0 0.06 -0.65 8.12 8.12 0 0 0 -0.27 -1.15l-0.22 -1a11.29 11.29 0 0 0 -0.34 -1.9 1.86 1.86 0 0 0 -0.54 -0.84 1.23 1.23 0 0 0 -0.74 -0.2 10.12 10.12 0 0 0 -1.23 0.13l-0.58 0a0.29 0.29 0 0 0 -0.21 -0.26c-1 -0.34 -2 -0.64 -3 -0.89 -0.68 -0.16 -1.37 -0.3 -2.06 -0.41a7.53 7.53 0 0 0 -0.83 -0.08 0.26 0.26 0 0 0 0.15 -0.18l0.65 -1.41s0.1 -0.13 0.14 -0.21a0.51 0.51 0 0 0 0.15 0.06 3.29 3.29 0 0 1 0.54 0.14 5.82 5.82 0 0 1 0.79 0.3l1.39 0.6c0.69 0.29 1.39 0.56 2.07 0.88 0.48 0.22 1 0.46 1.43 0.72a0.32 0.32 0 0 0 0.45 -0.09 0.33 0.33 0 0 0 -0.1 -0.45 19.88 19.88 0 0 0 -2.34 -1.47c-0.8 -0.43 -1.63 -0.8 -2.46 -1.19a6.41 6.41 0 0 0 -0.81 -0.27 4.94 4.94 0 0 0 -0.9 -0.11 2.62 2.62 0 0 0 -0.49 0 0.66 0.66 0 0 0 -0.27 0.09 0.57 0.57 0 0 0 -0.24 0.24c-0.06 0.14 -0.11 0.37 -0.14 0.46l-0.43 1.54a0.28 0.28 0 0 0 0.17 0.35l-0.6 0a3.17 3.17 0 0 0 -0.41 0 0.76 0.76 0 0 0 -0.24 0.07 0.8 0.8 0 0 0 -0.35 0.43 6.77 6.77 0 0 0 -0.17 0.7l-0.6 2.15a1.31 1.31 0 0 0 -0.31 0.25 1.63 1.63 0 0 0 -0.3 1.08Zm12.45 2.13 -0.37 0.07 -1.66 0.2a10.68 10.68 0 0 1 -1.36 0.18 0.87 0.87 0 0 1 -0.55 -0.17 1.05 1.05 0 0 1 -0.31 -0.6 0.8 0.8 0 0 1 0.06 -0.63 0.68 0.68 0 0 1 0.25 -0.23 2.29 2.29 0 0 1 0.46 -0.2l1.3 -0.47c0.42 -0.14 0.83 -0.3 1.25 -0.42a5.66 5.66 0 0 1 0.59 -0.15s0 0.07 0 0.1l0 0.06 0 0.05 0.13 1a8.92 8.92 0 0 1 0.16 0.91 0.94 0.94 0 0 1 0.05 0.3ZM7.68 8.35c0.12 -0.32 0.18 -0.47 0.41 -0.48a5.58 5.58 0 0 1 0.71 0c0.25 0 0.49 0 0.73 0.07 1 0.11 2 0.26 3 0.44 0.35 0.06 0.69 0.14 1 0.21h-0.11c-1 0.17 -2 0.39 -3 0.57l-3.08 0.6 -0.34 0.11Z" fill="#020202" fill-rule="evenodd" stroke-width="1"></path>
    <path d="M19 16.42a5.11 5.11 0 0 0 -0.1 -1.39 0.33 0.33 0 0 0 -0.37 -0.28 0.32 0.32 0 0 0 -0.28 0.36 3.88 3.88 0 0 1 0 1.18 1 1 0 0 1 -0.29 0.52 2.39 2.39 0 0 1 -0.92 0.37 16.82 16.82 0 0 1 -1.73 0.29c-1 0.18 -1.93 0.31 -2.88 0.48 -1.45 0.27 -2.88 0.59 -4.32 0.93a0.29 0.29 0 1 0 0.11 0.57c1.45 -0.19 2.91 -0.28 4.37 -0.46 1 -0.12 1.94 -0.29 2.91 -0.46a14.88 14.88 0 0 0 2.07 -0.53 2.59 2.59 0 0 0 0.93 -0.57 1.78 1.78 0 0 0 0.5 -1.01Z" fill="#020202" fill-rule="evenodd" stroke-width="1"></path>
    <path d="M5.59 3.29a0.33 0.33 0 1 0 -0.38 -0.53 9.27 9.27 0 0 0 -1.32 0.8 5.3 5.3 0 0 0 -0.52 0.44 5.08 5.08 0 0 0 -0.44 0.5 9.06 9.06 0 0 0 -0.78 1.36 0.3 0.3 0 0 0 0.08 0.4 0.29 0.29 0 0 0 0.4 -0.07 13.94 13.94 0 0 1 1.07 -1l0.44 -0.42 0.43 -0.44c0.33 -0.33 0.65 -0.71 1.02 -1.04Z" fill="#4C57E6" fill-rule="evenodd" stroke-width="1"></path>
    <path d="M9.22 1.55a9.12 9.12 0 0 1 1.54 -0.24l0.75 -0.11c0.25 0 0.5 -0.09 0.76 -0.11s0.53 0 0.8 0a0.31 0.31 0 0 0 0.36 -0.27 0.32 0.32 0 0 0 -0.27 -0.37 7.26 7.26 0 0 0 -1.51 -0.31 3.65 3.65 0 0 0 -0.66 0 3.11 3.11 0 0 0 -0.66 0.14A5.61 5.61 0 0 0 9 1a0.29 0.29 0 0 0 -0.14 0.38 0.29 0.29 0 0 0 0.36 0.17Z" fill="#4C57E6" fill-rule="evenodd" stroke-width="1"></path>
    <path d="M16.57 1.94a4.94 4.94 0 0 1 0.62 0.45c0.16 0.13 0.28 0.28 0.43 0.41l0.42 0.41a16.58 16.58 0 0 1 1.34 1.32 0.32 0.32 0 0 0 0.45 0.09 0.33 0.33 0 0 0 0.08 -0.46 10 10 0 0 0 -0.73 -1.29 3.43 3.43 0 0 0 -0.43 -0.5 3 3 0 0 0 -0.52 -0.37 4.62 4.62 0 0 0 -1.46 -0.55 0.3 0.3 0 0 0 -0.37 0.17 0.29 0.29 0 0 0 0.17 0.32Z" fill="#4C57E6" fill-rule="evenodd" stroke-width="1"></path>
    <path d="M23.19 10a0.32 0.32 0 1 0 0.64 -0.11 7.7 7.7 0 0 0 -0.19 -1.51 4.44 4.44 0 0 0 -0.19 -0.62 4.53 4.53 0 0 0 -0.28 -0.59A8.9 8.9 0 0 0 22.26 6a0.28 0.28 0 0 0 -0.39 -0.09 0.29 0.29 0 0 0 -0.1 0.39c0.21 0.5 0.33 1 0.51 1.54 0.11 0.29 0.24 0.58 0.37 0.87a13.72 13.72 0 0 1 0.54 1.29Z" fill="#4C57E6" fill-rule="evenodd" stroke-width="1"></path>
    <path d="M23.84 13.47a0.29 0.29 0 1 0 -0.57 0c-0.12 0.48 -0.26 0.92 -0.35 1.37 0 0.22 -0.06 0.44 -0.09 0.65s0 0.42 -0.08 0.64a3.62 3.62 0 0 1 -0.18 0.62 0.32 0.32 0 0 0 0.11 0.45 0.32 0.32 0 0 0 0.44 -0.11 3.8 3.8 0 0 0 0.69 -1.19 2.65 2.65 0 0 0 0.19 -0.6 3.43 3.43 0 0 0 0 -0.56 11.6 11.6 0 0 0 -0.16 -1.27Z" fill="#4C57E6" fill-rule="evenodd" stroke-width="1"></path>
    <path d="M21.12 19.3c-0.38 0.22 -0.77 0.4 -1.14 0.62a5.09 5.09 0 0 0 -0.45 0.31 4.58 4.58 0 0 0 -0.43 0.34c-0.33 0.27 -0.63 0.56 -1 0.83a0.33 0.33 0 1 0 0.33 0.56 11.19 11.19 0 0 0 1.23 -0.54 4.94 4.94 0 0 0 0.49 -0.3 3.75 3.75 0 0 0 0.44 -0.37 10.61 10.61 0 0 0 0.88 -1 0.29 0.29 0 0 0 0 -0.4 0.3 0.3 0 0 0 -0.35 -0.05Z" fill="#4C57E6" fill-rule="evenodd" stroke-width="1"></path>
    <path d="m16 22.73 -1.4 0a7.32 7.32 0 0 0 -0.8 0.11c-0.4 0.06 -0.79 0.16 -1.2 0.21a0.32 0.32 0 0 0 0 0.64 8 8 0 0 0 1.28 0.18 4.26 4.26 0 0 0 1.09 -0.11 10.66 10.66 0 0 0 1.18 -0.46 0.28 0.28 0 0 0 0.23 -0.33 0.3 0.3 0 0 0 -0.38 -0.24Z" fill="#4C57E6" fill-rule="evenodd" stroke-width="1"></path>
    <path d="M9.1 22.94c-0.57 -0.21 -1 -0.48 -1.53 -0.71l-0.92 -0.37c-0.46 -0.19 -0.93 -0.35 -1.41 -0.58a0.33 0.33 0 1 0 -0.35 0.55 10.44 10.44 0 0 0 1.26 0.93 5.07 5.07 0 0 0 0.61 0.32 3.72 3.72 0 0 0 0.64 0.22 7.94 7.94 0 0 0 1.6 0.2 0.29 0.29 0 0 0 0.34 -0.22 0.29 0.29 0 0 0 -0.24 -0.34Z" fill="#4C57E6" fill-rule="evenodd" stroke-width="1"></path>
    <path d="M2.36 18c-0.12 -0.26 -0.27 -0.51 -0.42 -0.77s-0.47 -0.75 -0.66 -1.15a0.33 0.33 0 0 0 -0.41 -0.21 0.32 0.32 0 0 0 -0.21 0.41 8.16 8.16 0 0 0 0.34 1.4 4.28 4.28 0 0 0 0.23 0.55 4.19 4.19 0 0 0 0.31 0.5 8.39 8.39 0 0 0 0.94 1 0.29 0.29 0 1 0 0.47 -0.33c-0.23 -0.4 -0.37 -0.9 -0.59 -1.4Z" fill="#4C57E6" fill-rule="evenodd" stroke-width="1"></path>
    <path d="M0.82 13.06a12.38 12.38 0 0 1 0.26 -1.56c0 -0.26 0.07 -0.52 0.1 -0.77s0.05 -0.53 0.09 -0.79 0.09 -0.52 0.15 -0.78a0.32 0.32 0 1 0 -0.6 -0.24 6.93 6.93 0 0 0 -0.62 1.39 3.71 3.71 0 0 0 -0.15 0.69 3.67 3.67 0 0 0 0 0.66 6.36 6.36 0 0 0 0.25 1.51 0.3 0.3 0 0 0 0.32 0.26 0.29 0.29 0 0 0 0.2 -0.37Z" fill="#4C57E6" fill-rule="evenodd" stroke-width="1"></path>
  </g>
</svg>