<svg xmlns="http://www.w3.org/2000/svg" viewBox="0 0 24 24" id="Modern-Music-Monitor-Speaker--Streamline-Freehand">
  <desc>
    Modern Music Monitor Speaker Streamline Icon: https://streamlinehq.com
  </desc>
  <g>
    <path d="M3 2.8c2.89 0 6.17 -0.07 8.72 0.1s5.59 -0.17 6.82 0.72c0.35 0.25 0.49 2.3 0.54 2.83a0.3 0.3 0 0 0 0.59 -0.06c-0.05 -1.27 0 -2.9 -0.62 -3.42 -1.62 -1.36 -5.51 -1.11 -7.28 -1.19 -3.2 -0.1 -5.65 0.2 -8.79 0.35A0.34 0.34 0 0 0 3 2.8Z" fill="#020202" fill-rule="evenodd" stroke-width="1"></path>
    <path d="M11.46 20.33c-1.27 0 -3 -0.2 -4.21 -0.19a4.17 4.17 0 0 0 0.57 -2c1.18 0 2.4 -0.1 3.59 -0.2a0.34 0.34 0 1 0 0 -0.67 55 55 0 0 1 -6.22 -0.09c-0.67 0 -3.26 -0.34 -3.51 -0.79a3.12 3.12 0 0 1 -0.21 -1c8.1 0.31 5.43 -0.08 9.65 -0.24a0.34 0.34 0 0 0 0 -0.67c-7.29 -0.32 -7 0.1 -8.88 0.23l-0.84 0c-0.51 -4.62 -0.3 -5.63 0 -10.09a7.81 7.81 0 0 1 0.12 -1.52 0.3 0.3 0 0 0 -0.52 -0.36C0.67 3.08 0.72 4.19 0.65 4.58c-0.49 4 -0.77 5.25 -0.6 8.24a15.91 15.91 0 0 0 0.61 4.1c0.75 1.28 4.66 1.23 6.28 1.21a2.9 2.9 0 0 0 -0.49 2c-0.49 0 -1 0.09 -1.73 0.18a0.3 0.3 0 1 0 0 0.59c2.61 0.21 2.54 0.63 6.75 0.06a0.34 0.34 0 0 0 -0.01 -0.63Z" fill="#020202" fill-rule="evenodd" stroke-width="1"></path>
    <path d="M11.67 5.85c-0.46 -1.06 -1.57 -0.79 -2.57 -0.6 -1.58 0.29 -3.29 0.43 -3.15 2 0 0.38 0.2 0.87 0.36 2.17C5.1 8.86 3 10.81 4.55 12.07a2 2 0 0 0 1.78 0.32c1.46 -0.45 1.14 -2.66 0.93 -4.33C7.1 6.8 6.6 6.93 9.32 6.41a3.57 3.57 0 0 1 1.28 -0.14 20.14 20.14 0 0 1 0.67 3.81c0 2.43 -2.66 0.91 -0.55 -0.3a0.35 0.35 0 0 0 -0.34 -0.62 2.15 2.15 0 0 0 -1.27 1.63 1.42 1.42 0 0 0 2 1.34c1.73 -0.65 1.1 -3.33 0.87 -5a5.19 5.19 0 0 0 -0.31 -1.28ZM5.06 11.4c-0.44 -0.32 -0.22 -0.78 0.1 -1.07 1.4 -1.23 1.96 1.87 -0.1 1.07Z" fill="#4C57E6" fill-rule="evenodd" stroke-width="1"></path>
    <path d="M23.77 8.49C23.5 7 22.42 7.36 22 7.27a0.34 0.34 0 0 0 -0.17 0.65c0.86 0.23 1.24 -0.51 1.2 1.78 0 0.08 0.12 8.68 -0.2 9.67 -0.61 1.94 -1.12 1.65 -2.58 1.76 -0.53 0 -3.3 0 -3.43 -0.05a1.62 1.62 0 0 1 -1.67 -1.24c-0.74 -2 -0.92 -8.78 -0.5 -10.55a1.78 1.78 0 0 1 1.48 -1.44 15.48 15.48 0 0 1 4.19 -0.2 0.3 0.3 0 0 0 0.07 -0.59A17 17 0 0 0 18.18 7c-1.26 0 -2.73 0 -3.63 0.92a4.63 4.63 0 0 0 -0.91 3 37.4 37.4 0 0 0 -0.05 6.35c0.19 1.73 0.41 4.07 2.08 4.73a7.46 7.46 0 0 0 2.57 0.26c3.09 0 4.22 0.09 5 -1.16 1.3 -2.04 0.54 -12.53 0.53 -12.61Z" fill="#020202" fill-rule="evenodd" stroke-width="1"></path>
    <path d="M18.74 12.63c2.82 0.21 2.24 -4 -0.22 -3.17a1.64 1.64 0 0 0 0.22 3.17Zm-0.19 -2.14c0.68 -1.07 1.61 -0.11 1.15 0.71a0.69 0.69 0 0 1 -1.2 0 0.8 0.8 0 0 1 0.05 -0.71Z" fill="#020202" fill-rule="evenodd" stroke-width="1"></path>
    <path d="M19.16 14.62a2.77 2.77 0 0 0 -2.95 2.55 2.73 2.73 0 0 0 4.27 2.25 2.61 2.61 0 0 0 -1.32 -4.8Zm1.47 1.69a1.59 1.59 0 0 1 -0.63 2.23 1.74 1.74 0 0 1 -2.7 -1.34 1.87 1.87 0 0 1 1.83 -1.85c0.7 -0.01 1.45 0.88 1.5 0.96Z" fill="#020202" fill-rule="evenodd" stroke-width="1"></path>
  </g>
</svg>