<svg xmlns="http://www.w3.org/2000/svg" viewBox="0 0 24 24" id="Modern-Tv-Flat-Screen--Streamline-Freehand">
  <desc>
    Modern Tv Flat Screen Streamline Icon: https://streamlinehq.com
  </desc>
  <g>
    <path d="M3.34 19.86a4.27 4.27 0 0 0 -0.64 1.74 0.87 0.87 0 0 0 1 0.91c1.3 -0.21 3.09 -2.79 3.91 -3.89a0.34 0.34 0 0 0 0 -0.48c-0.39 -0.33 -0.38 0.23 -2.19 2 -0.94 0.94 -1.37 1.28 -1.7 1.08s1.2 -2.37 1.28 -2.49c0.11 -0.57 -0.51 -0.43 -0.8 0s-0.68 0.82 -0.86 1.13Z" fill="#4C57E6" stroke-width="1"></path>
    <path d="M20.18 19.93a6.82 6.82 0 0 1 0.33 1.32c0 0.1 -1.46 -1.43 -1.57 -1.54S17.5 18.1 16.87 18c-0.14 0 -0.29 0.15 -0.19 0.43a23 23 0 0 0 1.52 1.88c0.72 1 1.79 2.47 2.86 1.88s0.07 -2.62 -0.84 -3.73c-0.26 -0.33 -0.95 -0.25 -0.75 0.07 0.03 0.1 0.53 0.9 0.71 1.4Z" fill="#4C57E6" stroke-width="1"></path>
    <path d="M23.89 3.93c-0.53 -3.72 -2.54 -2.13 -8.22 -1.79 -1.5 0.09 -3.42 0.14 -5.9 0.1C8.2 2.21 1.77 0.58 0.6 2.15a2 2 0 0 0 -0.32 0.72c-0.13 0.59 -0.56 11.25 0 13.44S2 18.4 3.65 18.11c0.73 -0.13 5.74 -0.72 6.53 -0.78 3.81 -0.32 4.41 0.23 7.67 0.58 3.68 0.39 2.71 0.41 3.38 0.44 1.44 0.06 2 -0.44 2.35 -1.2a6.65 6.65 0 0 0 0.24 -2.52c-0.04 -4.63 0.37 -8.56 0.07 -10.7Zm-0.81 10.71a6 6 0 0 1 -0.15 2.24 1.69 1.69 0 0 1 -1.89 0.84 10.58 10.58 0 0 0 -1.77 -0.38c-2.79 -0.16 -4.4 -1.13 -9.15 -0.83 -1.69 0.1 -3.06 0.33 -5.17 0.45 -0.78 0.05 -2.77 0.63 -3.17 0.13C0.81 15.91 0.9 13.6 1.3 4.32a3.77 3.77 0 0 1 0.22 -1.49c0.2 -0.26 1.74 -0.22 2.06 -0.21 4.73 0.23 4.14 1.15 12.16 0.56 4.46 -0.33 5.26 -1 6.5 -0.64 1.41 0.39 0.7 6.11 0.84 12.1Z" fill="#020202" stroke-width="1"></path>
  </g>
</svg>