<svg xmlns="http://www.w3.org/2000/svg" viewBox="0 0 24 24" id="Modern-Payment-Contactless--Streamline-Freehand">
  <desc>
    Modern Payment Contactless Streamline Icon: https://streamlinehq.com
  </desc>
  <g>
    <path d="M19 2.93a1.67 1.67 0 0 0 -0.92 -0.6A11.4 11.4 0 0 0 16.31 2c-1.3 -0.17 -2.92 -0.52 -4.43 -0.76a18.36 18.36 0 0 0 -2 -0.22 6.66 6.66 0 0 0 -1.73 0 1.71 1.71 0 0 0 -0.85 0.42 1.18 1.18 0 0 0 -0.24 0.43 22.45 22.45 0 0 0 -0.66 2.75c-0.4 2.26 -0.71 4.48 -0.9 5.8 0 0.37 0.4 0.5 0.51 0.06 0.48 -2.29 1 -4.61 1 -4.67 0.27 -1.26 0.53 -2.42 0.75 -3.15s0.41 -0.72 0.79 -0.74a0.57 0.57 0 0 1 0.13 0 4.71 4.71 0 0 0 0 0.83 1.88 1.88 0 0 0 0.39 0.93A1.25 1.25 0 0 0 9.6 4a5.4 5.4 0 0 0 1 0.18c0.26 0 0.72 0.15 1.28 0.25s1.31 0.24 2 0.33a11.05 11.05 0 0 0 2.43 0.16 1.58 1.58 0 0 0 0.5 -0.39 15.18 15.18 0 0 0 1 -1.17c0.17 0 0.34 0.08 0.4 0.18s0 0.41 0 0.69 -0.16 0.81 -0.2 1c-0.15 0.82 -1 4.81 -1.82 8.66 -0.45 2.17 -0.86 4.3 -1.12 5.78l-0.07 0 -0.23 0.05a6.63 6.63 0 0 1 -1.73 -0.07 36 36 0 0 1 -3.82 -0.82 0.32 0.32 0 0 0 -0.4 0.22 0.31 0.31 0 0 0 0.22 0.4 27.51 27.51 0 0 0 5.26 1.08 2.69 2.69 0 0 0 1.08 -0.15 0.82 0.82 0 0 0 0.48 -0.57c0.16 -0.8 0.38 -1.8 0.62 -2.88 1 -4.46 2.4 -10.5 2.61 -11.53a12.76 12.76 0 0 0 0.26 -1.57 1.76 1.76 0 0 0 -0.35 -0.9Zm-2.55 0.7a3.67 3.67 0 0 1 -0.47 0.42c0 -0.08 -0.29 0 -0.53 -0.07 -0.64 -0.11 -1.64 -0.33 -2.6 -0.49s-1.82 -0.25 -2.22 -0.29l-0.62 0c-0.22 0 -0.28 0 -0.36 -0.07a1 1 0 0 1 -0.27 -0.51A3.71 3.71 0 0 1 9.29 2l0.57 0c0.57 0.05 1.2 0.15 1.86 0.27 1.5 0.27 3.13 0.65 4.44 0.84l0.74 0.09q-0.2 0.22 -0.42 0.43Z" fill="#4C57E6" fill-rule="evenodd" stroke-width="1"></path>
    <path d="M5.34 11.28A5.83 5.83 0 0 0 2.48 14a7.7 7.7 0 0 0 -0.58 1.39 16.68 16.68 0 0 0 -0.51 2.14 15.09 15.09 0 0 1 -1.34 5 0.33 0.33 0 0 0 0.1 0.45 0.33 0.33 0 0 0 0.45 -0.1 14.23 14.23 0 0 0 1.85 -5.15c0.16 -0.69 0.31 -1.38 0.49 -2a9 9 0 0 1 0.43 -1.27A5.34 5.34 0 0 1 5 12.22c-0.22 0.74 -0.46 1.55 -0.57 2.14a1.62 1.62 0 0 0 0.09 1 0.61 0.61 0 0 0 0.59 0.14l1.2 -0.33 0.68 -0.3a2.23 2.23 0 0 1 1.26 -0.05 0.81 0.81 0 0 1 0.69 0.6 0.73 0.73 0 0 1 -0.26 0.67 6.16 6.16 0 0 1 -1.35 0.92 5 5 0 0 0 -1.07 0.8 1.52 1.52 0 0 0 -0.36 0.64c-0.09 0.37 0 0.81 -0.1 1.17a2.29 2.29 0 0 1 -0.33 0.75 5.59 5.59 0 0 1 -0.55 0.71 3.42 3.42 0 0 1 -0.82 0.64 3.09 3.09 0 0 1 -1 0.36 0.29 0.29 0 0 0 -0.24 0.33 0.31 0.31 0 0 0 0.33 0.24 4.24 4.24 0 0 0 1.2 -0.35 3.86 3.86 0 0 0 1 -0.71 5.76 5.76 0 0 0 0.83 -0.94 3.09 3.09 0 0 0 0.39 -0.82c0.08 -0.31 0.08 -0.67 0.15 -1a0.64 0.64 0 0 1 0.24 -0.29 5.82 5.82 0 0 1 1.16 -0.71 5.68 5.68 0 0 0 1.35 -0.94 1.75 1.75 0 0 0 0.49 -1.66 1.7 1.7 0 0 0 -1.12 -1.29 3.27 3.27 0 0 0 -2.26 0.06l-0.77 0.39 -0.63 0.21c0 -0.23 0.06 -0.51 0.13 -0.82 0 0 0.22 -1.1 0.52 -2.53 -0.1 -0.17 -0.47 -0.02 -0.53 0.03Z" fill="#020202" fill-rule="evenodd" stroke-width="1"></path>
    <path d="M12.14 12.36a3.19 3.19 0 0 1 -1.76 0 1.24 1.24 0 0 1 -0.43 -0.26 3.39 3.39 0 0 1 -0.39 -0.46 0.31 0.31 0 0 0 -0.45 -0.08A0.32 0.32 0 0 0 9 12a3.66 3.66 0 0 0 0.54 0.69 2.12 2.12 0 0 0 0.54 0.36 3.16 3.16 0 0 0 0.57 0.17l0 0.08a1.07 1.07 0 0 0 -0.06 0.27 2.35 2.35 0 0 0 0 0.27c0 0.23 0.06 0.43 0.08 0.65a0.32 0.32 0 0 0 0.26 0.39 0.32 0.32 0 0 0 0.38 -0.26 4.43 4.43 0 0 0 0.3 -0.62c0 -0.09 0.06 -0.19 0.08 -0.28a1.34 1.34 0 0 0 0 -0.28 0.8 0.8 0 0 0 0 -0.15 3.81 3.81 0 0 0 1.19 -0.2 1.69 1.69 0 0 0 1.24 -1.72 1.41 1.41 0 0 0 -0.66 -1.13 4.88 4.88 0 0 0 -1.96 -0.44 2.78 2.78 0 0 1 -0.7 -0.15 0.47 0.47 0 0 1 -0.31 -0.29c-0.18 -0.54 0.19 -0.84 0.66 -1a3.47 3.47 0 0 1 1.85 0.09 0.29 0.29 0 0 0 0.22 -0.53 3.42 3.42 0 0 0 -1 -0.27c0 -0.05 0 -0.09 0.07 -0.14a1.1 1.1 0 0 0 0.06 -0.26 2.53 2.53 0 0 0 0 -0.27c0 -0.24 -0.06 -0.44 -0.08 -0.66a0.33 0.33 0 0 0 -0.27 -0.39 0.32 0.32 0 0 0 -0.38 0.26 5 5 0 0 0 -0.3 0.62c0 0.09 -0.06 0.19 -0.08 0.28a1.34 1.34 0 0 0 0 0.28l0 0.24a2.7 2.7 0 0 0 -0.77 0.16 1.47 1.47 0 0 0 -1 1.84 1.41 1.41 0 0 0 0.81 1 7.29 7.29 0 0 0 1.85 0.4c0.38 0.06 0.77 0.1 0.81 0.51s-0.31 0.7 -0.8 0.84Z" fill="#020202" fill-rule="evenodd" stroke-width="1"></path>
    <path d="M19.56 12.46a2 2 0 0 0 0 -0.48A3.19 3.19 0 0 0 19 11a0.28 0.28 0 0 0 -0.37 -0.17 0.29 0.29 0 0 0 -0.17 0.37 5.25 5.25 0 0 1 0 1l0 0.41a2.81 2.81 0 0 1 0 0.41 1.56 1.56 0 0 1 -0.15 0.41 0.33 0.33 0 0 0 0 0.46 0.31 0.31 0 0 0 0.45 0 2 2 0 0 0 0.68 -0.92 1.64 1.64 0 0 0 0.12 -0.51Z" fill="#4C57E6" fill-rule="evenodd" stroke-width="1"></path>
    <path d="M20.48 10a0.3 0.3 0 0 0 -0.41 -0.06 0.29 0.29 0 0 0 -0.05 0.4 3.7 3.7 0 0 1 0.47 1.77 4.65 4.65 0 0 1 0 0.75 5.06 5.06 0 0 1 -0.17 0.75 4.47 4.47 0 0 1 -0.9 1.63 0.33 0.33 0 0 0 0 0.46 0.32 0.32 0 0 0 0.46 0 4.74 4.74 0 0 0 1.36 -1.7 3.32 3.32 0 0 0 0.29 -1 3.11 3.11 0 0 0 0 -1 3.89 3.89 0 0 0 -1.05 -2Z" fill="#4C57E6" fill-rule="evenodd" stroke-width="1"></path>
    <path d="M24 12a5.18 5.18 0 0 0 -1 -2.45 0.28 0.28 0 1 0 -0.49 0.28 5.34 5.34 0 0 1 0.38 2.25 8.06 8.06 0 0 1 -0.06 1c0 0.32 -0.09 0.65 -0.16 1a6 6 0 0 1 -0.87 2.14 0.33 0.33 0 0 0 0.51 0.41 6.26 6.26 0 0 0 1.39 -2.33 6 6 0 0 0 0.3 -1.11A5 5 0 0 0 24 12Z" fill="#4C57E6" fill-rule="evenodd" stroke-width="1"></path>
  </g>
</svg>