<svg xmlns="http://www.w3.org/2000/svg" viewBox="0 0 24 24" id="Modern-Architecture-Building-1--Streamline-Freehand">
  <desc>
    Modern Architecture Building 1 Streamline Icon: https://streamlinehq.com
  </desc>
  <title>modern-architecture-building-1</title>
  <g>
    <path d="M23.24 12.88c-0.07 -0.88 0 -1.77 -0.08 -2.66A10 10 0 0 0 23 9a0.91 0.91 0 0 0 -0.21 -0.4c-0.13 -0.15 -0.38 -0.35 -0.47 -0.44q-0.41 -0.42 -0.84 -0.81a10.87 10.87 0 0 0 -0.91 -0.74c-0.7 -0.51 -1.41 -1 -2.13 -1.49 -1.66 -1.12 -3.35 -2.21 -5 -3.34a0.29 0.29 0 0 0 -0.35 0 0.35 0.35 0 0 0 -0.4 -0.13 36.16 36.16 0 0 0 -3.96 1.87C7.44 4.21 6.19 5 5 5.75a24.91 24.91 0 0 0 -2.15 1.47 5.8 5.8 0 0 0 -1.27 1.41 2.36 2.36 0 0 0 -0.2 0.51c-0.07 0.3 -0.09 0.65 -0.13 0.89l-0.36 2.72c-0.21 1.79 -0.46 3.57 -0.64 5.36 -0.13 1.2 -0.25 2.41 -0.25 3.62a0.31 0.31 0 0 0 0.3 0.33 0.34 0.34 0 0 0 0.19 -0.06s0 0.07 0 0.11a0.32 0.32 0 0 0 0.38 0.23 15.26 15.26 0 0 1 1.66 -0.12l1.34 0c0.45 0 1.37 -0.06 1.53 -0.06 0.47 -0.11 0.47 -1 0.11 -1.16a8.58 8.58 0 0 0 -1.34 0 14.88 14.88 0 0 0 -3.44 0.68s-0.06 0.05 -0.1 0.07c0.09 -1.19 0.25 -2.37 0.44 -3.54 0.1 -0.66 0.22 -1.31 0.34 -2l0.08 -0.09a16.55 16.55 0 0 0 0.92 1.43c0.19 0.25 0.39 0.48 0.59 0.71s0.43 0.45 0.65 0.66c0.53 0.5 1.08 0.95 1.63 1.41a0.36 0.36 0 0 0 0.5 0 0.37 0.37 0 0 0 0 -0.51c-0.45 -0.55 -0.86 -1.11 -1.31 -1.67 -0.19 -0.24 -0.38 -0.47 -0.58 -0.7l-0.62 -0.66L2 15.61c1 -1.1 2 -2.18 3 -3.3 0.52 -0.6 1 -1.2 1.53 -1.81l0.17 -0.21c0.14 0.14 0.27 0.29 0.42 0.43 0.44 0.44 0.9 0.84 1.36 1.26 0.22 0.21 0.75 -0.22 0.58 -0.53 -0.37 -0.5 -0.72 -1 -1.1 -1.48l-0.51 -0.62c0.18 -0.23 0.38 -0.46 0.56 -0.7 1.14 -1.45 2.24 -2.92 3.37 -4.38a0.37 0.37 0 0 0 0 -0.51 0.36 0.36 0 0 0 -0.5 0.05C9.57 5.19 8.33 6.55 7.11 7.93l-0.48 0.57C6.11 8 5.56 7.55 5 7.08l0.61 -0.42C6.76 5.84 8 5 9.18 4.31a34.45 34.45 0 0 1 3.4 -1.79 22.56 22.56 0 0 0 -0.47 2.73 11.64 11.64 0 0 0 0 1.18l0 1.18c0.06 0.8 0.16 1.59 0.25 2.37 0.21 0.29 0.66 0.61 0.74 0.37 0 -0.89 0.09 -1.79 0.12 -2.71l0 -1.15v-0.1l1.9 1.83c0.42 0.46 0.83 0.93 1.25 1.38 0.17 0.19 0.35 0.37 0.53 0.55l-0.09 0.11c-0.45 0.6 -0.62 1 -1.07 1.54 -0.29 0.27 0.27 0.75 0.58 0.52 0.51 -0.46 0.89 -0.83 1.37 -1.34 1.29 1.31 2.61 2.58 3.86 3.91a13 13 0 0 0 -1.5 1.05c-0.34 0.29 -0.65 0.61 -1 0.93s-0.58 0.72 -1 1.16c-0.19 0.32 -0.16 0.55 0.09 0.7a0.31 0.31 0 0 0 0.26 -0.05 11.69 11.69 0 0 0 1.39 -0.94 8.42 8.42 0 0 0 0.64 -0.55 8.35 8.35 0 0 0 0.6 -0.59c0.44 -0.48 0.83 -1 1.28 -1.46 0 0 0 -0.06 0.05 -0.09l0.81 5.77c-1.13 -0.08 -2.25 -0.14 -3.38 -0.12 -0.53 0 -0.64 0 -1.17 0.06s-0.52 0.77 0.07 1.18c0.64 0 0.88 -0.06 1.52 -0.11 1.06 -0.08 2.11 -0.2 3.17 -0.26a0.3 0.3 0 0 0 0.26 0.07 0.36 0.36 0 0 0 0.31 -0.39ZM5.79 9.28l0.09 0.1 -0.31 0.36c-0.5 0.6 -1 1.22 -1.48 1.84 -0.83 1.07 -1.62 2.16 -2.42 3.24 0.12 -0.63 0.24 -1.27 0.35 -1.9l0.41 -2.68 0.18 -1a4.79 4.79 0 0 1 1 -1.12 9.85 9.85 0 0 1 0.89 -0.67c0.43 0.62 0.83 1.24 1.29 1.83Zm11.9 -0.09c-0.15 -0.15 -0.29 -0.31 -0.45 -0.46 -0.45 -0.43 -0.91 -0.84 -1.38 -1.26l-2.53 -1.92 -0.08 0c-0.03 0 0 -0.15 0 -0.22 0 -0.91 -0.08 -1.8 0 -2.69A0.33 0.33 0 0 0 13 2.3l6.66 5.12a11 11 0 0 0 -1.73 1.48c-0.09 0.1 -0.16 0.2 -0.24 0.29Zm4.49 5.35a0.37 0.37 0 0 0 0 -0.14c-1.16 -1.46 -2.33 -2.93 -3.59 -4.32 0.16 -0.19 0.33 -0.38 0.48 -0.57 0.43 -0.54 0.85 -1.08 1.31 -1.57l0.23 0.19c0.32 0.29 0.63 0.59 0.93 0.91s0.44 0.21 0.5 1.31c0.05 0.89 0.07 1.79 0.16 2.67l0.23 1.64a0.34 0.34 0 0 0 -0.25 -0.12Z" fill="#020202" fill-rule="evenodd" stroke-width="1"></path>
    <path d="M18.12 20.73c-0.18 -1.22 -0.53 -3.67 -0.7 -4.89 -0.09 -0.59 0 -2.28 -0.57 -2.75a15.21 15.21 0 0 0 -2.11 -1.48c-0.44 -0.3 -0.9 -0.5 -1.42 -0.8a12.48 12.48 0 0 0 -1.32 -0.68 1.17 1.17 0 0 0 -0.6 0.16 10.92 10.92 0 0 0 -0.91 0.67c-0.34 0.24 -2.08 1.45 -2.22 1.57a4.92 4.92 0 0 0 -1.28 1.54 2.71 2.71 0 0 0 -0.2 0.66c-0.08 0.43 -0.1 0.94 -0.17 1.27 -0.19 1 -0.34 1.92 -0.47 2.88 -0.07 0.53 -0.22 2 -0.29 2.75a0.38 0.38 0 0 0 0.38 0.41c1.06 0 2.06 0.05 3.09 0a0.36 0.36 0 0 0 0.2 -0.08 0.29 0.29 0 0 0 0.19 0.15 0.32 0.32 0 0 0 0.38 -0.23c0.17 -0.57 0.36 -1.13 0.56 -1.69 0.3 -0.84 0.63 -1.67 1 -2.49 0.06 -0.15 0.13 -1.59 0.47 -1.39 0.1 0.06 0.18 -0.06 1.2 -0.5a17.39 17.39 0 0 0 0 1.91 8.38 8.38 0 0 0 0.31 1.71c0.15 0.54 0.35 1.07 0.54 1.6a0.3 0.3 0 0 0 -0.16 0.23 0.31 0.31 0 0 0 0.3 0.33 11 11 0 0 0 3.62 0.1c0.28 -0.09 0.21 -0.69 0.18 -0.96Zm-7.21 -4.79a14.46 14.46 0 0 0 -0.42 1.39c-0.21 0.73 -0.41 1.46 -0.59 2.19s-0.28 1.28 -0.4 1.92a0.31 0.31 0 0 0 -0.2 -0.09c-0.74 -0.07 -1.5 -0.17 -2.27 -0.24a0.45 0.45 0 0 1 -0.42 -0.52c0.08 -0.53 0.16 -1.06 0.26 -1.59 0.18 -0.93 0.38 -1.86 0.62 -2.79 0.09 -0.33 0.15 -0.84 0.25 -1.27a2.38 2.38 0 0 1 0.12 -0.35c0.34 0.13 0.66 0.29 1 0.46l0.56 0.24 0.57 0.21 1 0.34Zm0.7 -0.67a12.3 12.3 0 0 0 -1.12 -0.79 5.59 5.59 0 0 0 -0.6 -0.3 3.72 3.72 0 0 0 -0.64 -0.18 5.69 5.69 0 0 0 -0.8 -0.11l0.49 -0.43c0.72 -0.56 1.56 -1.06 2.18 -1.47s0.39 -1 1.56 -0.32c0.51 0.28 1 0.67 1.41 0.95s1 0.54 1.49 0.86a2 2 0 0 1 0.48 0.38 1 1 0 0 1 0.18 0.46c-0.87 0.08 -1.76 0.16 -2.64 0.33a9.3 9.3 0 0 0 -1.99 0.62ZM14.88 21c-0.08 -0.57 -0.14 -1.15 -0.21 -1.73 0 -0.27 -0.07 -0.55 -0.12 -0.83s-0.1 -0.55 -0.16 -0.82c-0.15 -0.65 -0.35 -1.27 -0.5 -1.92 0.82 -0.24 1.66 -0.41 2.48 -0.57 0.05 0.37 0.08 0.73 0.11 0.94 0.24 1.26 0.52 2.5 0.75 3.76 0.06 0.33 0.12 0.67 0.17 1 -0.84 0 -1.68 0.08 -2.52 0.17Z" fill="#4C57E6" fill-rule="evenodd" stroke-width="1"></path>
  </g>
</svg>