<svg xmlns="http://www.w3.org/2000/svg" viewBox="0 0 24 24" id="Modern-Payment-Pay-Card-Nfc--Streamline-Freehand">
  <desc>
    Modern Payment Pay Card Nfc Streamline Icon: https://streamlinehq.com
  </desc>
  <g>
    <path d="m11.53 8.81 2.72 0 2.74 0c1.67 0 2.94 -0.08 4.61 -0.2 0.4 0 0.4 -0.61 0 -0.69 -2.4 0 -4.39 -0.18 -6.79 -0.18 -1.1 0 -2.2 0.06 -3.31 0.13s-2 0.16 -3 0.29c-0.46 0.06 -0.63 0.08 -1.08 0.17a0.33 0.33 0 0 0 0.12 0.65c0.47 -0.05 0.55 -0.06 1 -0.08 0.99 -0.1 1.99 -0.09 2.99 -0.09Z" fill="#4C57E6" fill-rule="evenodd" stroke-width="1"></path>
    <path d="M15.19 10c-1.11 0 -2.21 0.06 -3.31 0.13s-2 0.16 -3 0.29c-0.53 0.07 -0.81 0.1 -1.34 0.21a0.32 0.32 0 0 0 0 0.64 13 13 0 0 1 1.39 -0.11l3 0 2.73 0 2.74 -0.05c1.55 0 2.54 -0.09 4.09 -0.19 0.5 0 0.34 -0.69 0 -0.72 -2.31 -0.03 -4.02 -0.2 -6.3 -0.2Z" fill="#4C57E6" fill-rule="evenodd" stroke-width="1"></path>
    <path d="M23.12 6.87a2.33 2.33 0 0 0 -0.42 -1.17 2 2 0 0 0 -1 -0.53 8.83 8.83 0 0 0 -2.11 0c-1.37 0 -3.82 0.09 -6.09 0.18 -1.61 0.07 -3.11 0.16 -4.08 0.26a14 14 0 0 0 -2.16 0.25 1.82 1.82 0 0 0 -1 0.57A2.29 2.29 0 0 0 6 7.61c0 0.92 0.16 2.28 0.25 3.52a8.45 8.45 0 0 0 -3.62 4.19 15.33 15.33 0 0 0 -0.85 3.36 21.7 21.7 0 0 1 -1.04 4.85 0.32 0.32 0 0 0 0.16 0.47 0.33 0.33 0 0 0 0.44 -0.16A23.69 23.69 0 0 0 3 18.06a20.39 20.39 0 0 1 0.6 -2.2 11.79 11.79 0 0 1 0.57 -1.38 8.27 8.27 0 0 1 2 -2.53c-0.06 0.87 -0.13 1.89 -0.12 2.6a1.81 1.81 0 0 0 0.27 1.06 0.6 0.6 0 0 0 0.66 0c0.29 -0.16 1 -0.61 1 -0.62l0.56 -0.48a1.87 1.87 0 0 1 1.12 -0.33 0.71 0.71 0 0 1 0.67 0.49 0.8 0.8 0 0 1 -0.13 0.75 5.6 5.6 0 0 1 -1 1 5.73 5.73 0 0 0 -1.18 1.25 0.49 0.49 0 0 0 0 0.47 2.92 2.92 0 0 1 -0.66 2.61A4.93 4.93 0 0 1 5 22.57a0.28 0.28 0 0 0 -0.21 0.35 0.28 0.28 0 0 0 0.35 0.21 5.77 5.77 0 0 0 3.31 -2.48A3.67 3.67 0 0 0 9.1 18a5.68 5.68 0 0 1 0.88 -0.78 6.61 6.61 0 0 0 1.23 -1.18 1.84 1.84 0 0 0 0.25 -1.78 1.73 1.73 0 0 0 -1.26 -1.13 2.82 2.82 0 0 0 -2.2 0.59l-0.63 0.59a3.91 3.91 0 0 1 -0.46 0.3l0 -0.89c0 -5 -0.16 -6.68 0 -6.86a1.49 1.49 0 0 1 0.85 -0.3 16.18 16.18 0 0 1 1.77 -0.12c0.74 -0.06 1.83 -0.09 3 -0.12C15 6.27 18 6.24 19.6 6.23a10.76 10.76 0 0 1 1.61 0 1.19 1.19 0 0 1 0.66 0.23c-0.12 0.08 0.13 0.41 0.18 0.76a38 38 0 0 1 -0.06 7.1 1.35 1.35 0 0 1 -0.12 0.45 4.71 4.71 0 0 1 -2.48 0.67c-2.47 0.27 -5.78 0.17 -6.76 0.24a0.29 0.29 0 0 0 -0.28 0.3 0.3 0.3 0 0 0 0.31 0.28c1 0 4.31 0.17 6.8 0a5.58 5.58 0 0 0 3.07 -0.84 2.25 2.25 0 0 0 0.47 -1.11 21.29 21.29 0 0 0 0.33 -3.71 22.73 22.73 0 0 0 -0.21 -3.73Z" fill="#020202" fill-rule="evenodd" stroke-width="1"></path>
    <path d="M18.47 13.85c0.23 0 0.46 -0.06 0.68 -0.1a9.33 9.33 0 0 1 1 -0.18 0.33 0.33 0 1 0 0.09 -0.65 4.35 4.35 0 0 0 -1.14 -0.22 2.68 2.68 0 0 0 -0.49 0 2.46 2.46 0 0 0 -0.47 0.1 7.17 7.17 0 0 0 -1 0.45 0.29 0.29 0 0 0 -0.22 0.34 0.29 0.29 0 0 0 0.35 0.22c0.39 0.01 0.78 0.06 1.2 0.04Z" fill="#020202" fill-rule="evenodd" stroke-width="1"></path>
    <path d="M7.09 2.76a2.51 2.51 0 0 0 -0.78 0.15 2.27 2.27 0 0 0 -0.72 0.42A2.63 2.63 0 0 0 4.76 5a0.29 0.29 0 1 0 0.55 0.17 2.28 2.28 0 0 1 0.92 -1A2.26 2.26 0 0 1 6.7 4a4.24 4.24 0 0 1 2 -0.29 0.33 0.33 0 0 0 0.39 -0.26A0.32 0.32 0 0 0 8.8 3a4.7 4.7 0 0 0 -1.71 -0.24Z" fill="#4C57E6" fill-rule="evenodd" stroke-width="1"></path>
    <path d="M3.45 3.2a5.26 5.26 0 0 1 1.92 -1.43 7.8 7.8 0 0 1 0.94 -0.4 6.91 6.91 0 0 1 1 -0.3 4.18 4.18 0 0 1 2.33 0 0.32 0.32 0 0 0 0.43 -0.16 0.33 0.33 0 0 0 -0.18 -0.41A4.67 4.67 0 0 0 7.11 0a5.34 5.34 0 0 0 -1.18 0.32 5.12 5.12 0 0 0 -1.08 0.52A5.34 5.34 0 0 0 3 2.89a0.29 0.29 0 0 0 0.49 0.31Z" fill="#4C57E6" fill-rule="evenodd" stroke-width="1"></path>
  </g>
</svg>