<svg xmlns="http://www.w3.org/2000/svg" viewBox="0 0 24 24" id="Modern-Payment-Pay-App-Wallet--Streamline-Freehand">
  <desc>
    Modern Payment Pay App Wallet Streamline Icon: https://streamlinehq.com
  </desc>
  <g>
    <path d="M3.74 3.2a0.76 0.76 0 0 0 0.71 -0.57 0.63 0.63 0 0 0 -0.63 -0.82 0.7 0.7 0 1 0 -0.08 1.39Z" fill="#020202" fill-rule="evenodd" stroke-width="1"></path>
    <path d="M6.44 3.21a0.76 0.76 0 0 0 0.71 -0.57 0.63 0.63 0 0 0 -0.63 -0.82 0.7 0.7 0 1 0 -0.08 1.39Z" fill="#020202" fill-rule="evenodd" stroke-width="1"></path>
    <path d="M9.28 3.44a0.74 0.74 0 0 0 0.7 -0.58c0.12 -0.47 -0.17 -0.77 -0.63 -0.82a0.7 0.7 0 1 0 -0.07 1.4Z" fill="#020202" fill-rule="evenodd" stroke-width="1"></path>
    <path d="M19.31 16.39a0.28 0.28 0 0 0 -0.23 0.05l-0.72 -0.21 0 -0.05c0.11 -0.44 0.27 -0.95 0.36 -1.46a3.48 3.48 0 0 0 0 -1.11 1.91 1.91 0 0 0 -1 -1.31 9.73 9.73 0 0 0 -3.18 -0.71l-1.06 -0.14c-1.3 -0.18 -2.62 -0.54 -3.93 -0.78a15.08 15.08 0 0 0 -1.76 -0.21 0.27 0.27 0 0 0 -0.31 0.25 0.29 0.29 0 0 0 0.25 0.32 13.49 13.49 0 0 1 1.65 0.36c1.31 0.36 2.61 0.83 3.91 1.13l1.11 0.16a12.2 12.2 0 0 1 2.53 0.34c0.46 0.14 0.88 0.34 1 0.77a2.28 2.28 0 0 1 0 0.83 13.32 13.32 0 0 1 -0.22 1.38l-2.1 -0.62 -2.32 -0.72a3 3 0 0 0 -2.91 0.85 1.74 1.74 0 0 0 0 2.25 5 5 0 0 0 2.07 1.71 9.54 9.54 0 0 0 3.76 0.65c0.36 0 0.78 0.05 1.19 0a0.32 0.32 0 0 0 -0.33 0.25 7 7 0 0 1 -0.46 1.6 2 2 0 0 1 -0.59 0.78 1.66 1.66 0 0 1 -0.8 0.3 6.3 6.3 0 0 1 -1.48 -0.05 43 43 0 0 1 -5.5 -1.13 18.58 18.58 0 0 1 -2.43 -0.81 1.77 1.77 0 0 1 -0.69 -0.45c-0.08 -0.12 0 -0.35 0 -0.59 0.1 -0.54 0.31 -1.13 0.38 -1.42 0.44 -1.87 0.63 -3.68 1.1 -5.46A13.39 13.39 0 0 1 7.39 11a0.31 0.31 0 0 0 -0.14 -0.39 0.28 0.28 0 0 0 -0.38 0.14A14.05 14.05 0 0 0 6 13c-0.56 1.75 -0.86 3.54 -1.4 5.39a11.08 11.08 0 0 0 -0.51 1.76 1.65 1.65 0 0 0 0.15 1.1A5.77 5.77 0 0 0 7 22.69a39 39 0 0 0 6.63 1.23 7.52 7.52 0 0 0 1.71 0 2.33 2.33 0 0 0 1.16 -0.51 2.68 2.68 0 0 0 0.77 -1.09 7.77 7.77 0 0 0 0.44 -1.77 0.32 0.32 0 0 0 -0.25 -0.38 2 2 0 0 0 0.35 -0.05 1.66 1.66 0 0 0 0.77 -0.36 2.53 2.53 0 0 0 0.72 -1.18 11.07 11.07 0 0 0 0.25 -1.82 0.31 0.31 0 0 0 -0.24 -0.37Zm-0.68 2a1.78 1.78 0 0 1 -0.54 0.8 1 1 0 0 1 -0.58 0.17 9.69 9.69 0 0 1 -1.24 -0.08 9 9 0 0 1 -3.34 -0.71 4.13 4.13 0 0 1 -1.62 -1.37 0.77 0.77 0 0 1 0.14 -1.2 2.08 2.08 0 0 1 1.63 -0.38l2.35 0.57c0.7 0.14 1.39 0.27 2.07 0.43 0.46 0.1 0.91 0.21 1.35 0.34a7.66 7.66 0 0 1 -0.22 1.39Z" fill="#020202" fill-rule="evenodd" stroke-width="1"></path>
    <path d="M4.32 5c1.73 0.11 2.52 0.11 4.25 0.2l2 0c1.53 0 3.07 -0.1 4.6 -0.1l7.42 0a0.34 0.34 0 0 0 0.34 -0.32 0.33 0.33 0 0 0 -0.33 -0.33l-7.43 -0.42 -2 0c-1.53 0 -3.06 0.09 -4.58 0.07 -1.73 0 -3.45 -0.05 -5.17 -0.05 -0.74 0 -0.53 -0.06 -1.27 0s-0.54 0.71 0 0.76c0.05 -0.02 1.44 0.1 2.17 0.19Z" fill="#4C57E6" fill-rule="evenodd" stroke-width="1"></path>
    <path d="M24 8.12c0 -1.67 -0.08 -3.16 -0.15 -4a10.75 10.75 0 0 0 -0.2 -1.87 2.16 2.16 0 0 0 -0.45 -0.88 3.11 3.11 0 0 0 -1.64 -0.82 16.16 16.16 0 0 0 -3.75 -0.22l-3.48 0C11.61 0.27 8.91 0.14 6.17 0.08A18.52 18.52 0 0 0 3 0.12 4.12 4.12 0 0 0 0.9 1 3.05 3.05 0 0 0 0 3.05a34.38 34.38 0 0 0 0.2 4.51L0.19 11c0 1.69 -0.3 3.33 0.3 4.41a3 3 0 0 0 2.72 1.35 0.29 0.29 0 0 0 0.31 -0.27 0.28 0.28 0 0 0 -0.27 -0.3 2.47 2.47 0 0 1 -2.2 -1.08c-0.53 -1 -0.2 -2.52 -0.12 -4.08l0.14 -3.44c0 -0.68 -0.15 -3.6 -0.14 -3.8a2.75 2.75 0 0 1 0.6 -2 3.12 3.12 0 0 1 1.64 -0.61 18.36 18.36 0 0 1 3 0c2.74 0.06 5.45 0.22 8.17 0.26l3.53 0a19.44 19.44 0 0 1 3 0 2.66 2.66 0 0 1 1.6 0.62 1.4 1.4 0 0 1 0.3 0.69 12.46 12.46 0 0 1 0.15 1.5c0.09 0.78 0.17 2.25 0.23 3.89 0.07 2 0.11 4.33 0.11 5.88a5 5 0 0 1 -0.26 2.14 0.88 0.88 0 0 1 -0.91 0.56 0.33 0.33 0 0 0 0 0.65 1.49 1.49 0 0 0 1.57 -0.91A6.06 6.06 0 0 0 24 14l0 -5.88Z" fill="#020202" fill-rule="evenodd" stroke-width="1"></path>
  </g>
</svg>