<svg xmlns="http://www.w3.org/2000/svg" viewBox="0 0 24 24" id="Modern-Weapon-Tank--Streamline-Freehand">
  <desc>
    Modern Weapon Tank Streamline Icon: https://streamlinehq.com
  </desc>
  <title>modern-weapon-tank</title>
  <g>
    <path d="M4.93 5.86A1 1 0 0 1 5 5.47a0.5 0.5 0 0 1 0.27 -0.23 2.56 2.56 0 0 1 0.51 -0.15 5.66 5.66 0 0 1 1 -0.2 6.28 6.28 0 0 1 1.12 -0.07c0.24 0 0.48 0 0.71 -0.06a0.5 0.5 0 0 1 0.38 0 0.94 0.94 0 0 1 0.31 0.55 0.33 0.33 0 0 0 0.38 0.26 0.33 0.33 0 0 0 0.25 -0.38 1.68 1.68 0 0 0 -0.44 -1c-0.39 -0.38 -1 -0.29 -1.52 -0.37a6.59 6.59 0 0 0 -1.25 0 6.35 6.35 0 0 0 -1.24 0.29 2.74 2.74 0 0 0 -0.83 0.45 1.4 1.4 0 0 0 -0.4 0.64 2 2 0 0 0 0 0.52 5 5 0 0 0 0.1 0.62 0.3 0.3 0 0 0 0.57 0 3.13 3.13 0 0 1 0.01 -0.48Z" fill="#4C57E6" fill-rule="evenodd" stroke-width="1"></path>
    <path d="M23.82 9.86a0.55 0.55 0 0 0 -0.35 -0.28 3.6 3.6 0 0 0 -0.71 -0.09l-1.23 0c-0.41 0 -1.11 0.06 -1.21 0a0.29 0.29 0 0 0 -0.31 0.25c0 0.15 -0.15 0.59 -0.24 1.05 -0.41 -0.05 -0.81 -0.08 -1.23 -0.09l-0.67 0q-0.33 0 -0.66 0.09c-0.33 0.06 -0.65 0.14 -1 0.21a0.87 0.87 0 0 0 0 -0.28c0 -0.1 -0.26 -1.11 -0.49 -1.13s-0.66 -0.2 -1 -0.25a2.34 2.34 0 0 0 -1.65 0.28 9.11 9.11 0 0 0 -0.68 -0.95c-0.15 -0.18 -0.31 -0.35 -0.47 -0.51s-0.34 -0.3 -0.52 -0.44a11.39 11.39 0 0 0 -1.31 -1c-1 -0.1 -2 -0.18 -3 -0.19 -3 0 -3.43 0.26 -3.46 0.28a1.35 1.35 0 0 0 -0.69 0.45 1.21 1.21 0 0 0 -0.21 0.74c0 0.42 0.12 0.93 0.14 1.14a0.3 0.3 0 0 0 0.3 0.27 0.29 0.29 0 0 0 0.27 -0.29l0 -0.94a0.62 0.62 0 0 1 0.08 -0.35 0.78 0.78 0 0 1 0.48 -0.12 8.21 8.21 0 0 1 1.1 0l4.66 -0.27c0.36 0.41 0.7 0.85 1.11 1.27 0.24 0.25 0.51 0.48 0.77 0.71l0.82 0.71a3.53 3.53 0 0 0 -0.17 0.49 1.86 1.86 0 0 0 -0.06 0.34 1.94 1.94 0 0 0 0 0.34 5.1 5.1 0 0 0 0.15 0.7l-1.14 -0.08c-0.56 0 -1.12 -0.07 -1.69 -0.08 -0.85 0 -1.69 0.07 -2.53 0.15a6.33 6.33 0 0 0 -0.36 -0.68 3.71 3.71 0 0 0 -0.22 -0.31 3.45 3.45 0 0 0 -0.26 -0.28c-0.64 -0.63 -0.66 -0.91 -0.95 -0.94a5.09 5.09 0 0 0 -1.35 -0.21 2.72 2.72 0 0 0 -0.57 0 3.45 3.45 0 0 0 -0.56 0.1 6.42 6.42 0 0 0 -1.24 0.52 0.28 0.28 0 0 0 -0.19 0.35c0 0.09 0.09 1.34 0.1 1.83s0.05 0.71 0.07 1.06a1.72 1.72 0 0 0 -1.23 0.92A2.89 2.89 0 0 0 0.38 17a4 4 0 0 0 0.48 0.63c0.26 0.28 0.54 0.53 0.79 0.77a11.41 11.41 0 0 0 1.47 1.29 3.28 3.28 0 0 0 1.37 0.49l1 0.05 1.77 0c0.87 0 1.74 -0.07 2.62 -0.11a16.53 16.53 0 0 0 2.34 -0.19 4.3 4.3 0 0 0 1.58 -0.63 2.88 2.88 0 0 0 0.43 -0.33 7.27 7.27 0 0 0 0.54 -0.57l0.43 -0.55a6.38 6.38 0 0 0 1.13 -2.29 1.44 1.44 0 0 0 -0.89 -1.68l-0.3 -0.11a3.07 3.07 0 0 0 -0.42 -0.07l-0.81 -0.05 0.25 -0.39 0.18 0h0.23a1.41 1.41 0 0 0 0.22 -0.06c0.19 -0.08 0.33 -0.17 0.51 -0.25a0.32 0.32 0 1 0 -0.06 -0.64c-0.21 0 -0.37 -0.1 -0.58 -0.12h-0.24l-0.24 0.06 -0.08 0a0.32 0.32 0 0 0 -0.34 -0.26l-0.68 0c0.05 -0.22 0.12 -0.44 0.17 -0.67a1.65 1.65 0 0 0 0.06 -0.32l0 -0.66c0.19 0 0.38 0.05 0.58 0.06s0.42 0 0.63 0a6.41 6.41 0 0 0 0.78 -0.09 3.73 3.73 0 0 0 -0.14 0.4 2.51 2.51 0 0 0 0 0.27 2.83 2.83 0 0 0 0 0.29c0 0.24 0.1 0.45 0.15 0.68A0.32 0.32 0 1 0 16 12l0.08 -0.23a12.12 12.12 0 0 0 1.48 0.09 8.88 8.88 0 0 0 1.05 -0.11c0.38 0 0.74 -0.12 1.1 -0.18a1.41 1.41 0 0 0 0.15 0.65 1.74 1.74 0 0 0 1.14 0.69 6.29 6.29 0 0 0 2.41 -0.33 0.34 0.34 0 0 0 0.26 -0.38 0.32 0.32 0 0 0 0.31 -0.33 11.15 11.15 0 0 0 0 -1.32 2.06 2.06 0 0 0 -0.16 -0.69Zm-10.08 4.38 0.88 0.09 0.52 0.14a0.78 0.78 0 0 1 0.43 0.92 5.07 5.07 0 0 1 -1.08 1.89l-0.4 0.49 -0.39 0.38a2.4 2.4 0 0 1 -0.41 0.3 3.29 3.29 0 0 1 -1.25 0.44 16.2 16.2 0 0 1 -2.21 0.11l-4.33 0.13 -0.91 0a2.13 2.13 0 0 1 -1 -0.29 11.06 11.06 0 0 1 -1.39 -1.11c-0.25 -0.21 -0.54 -0.43 -0.79 -0.68a3.44 3.44 0 0 1 -0.4 -0.47 2.23 2.23 0 0 1 -0.31 -1.63 1.19 1.19 0 0 1 0.8 -0.92l0 0.51 0 1a0.83 0.83 0 0 0 0.17 0.46 0.82 0.82 0 0 0 0.37 0.26 2.8 2.8 0 0 0 0.52 0.13 6.86 6.86 0 0 0 0.9 0.09l1.29 0c0.59 0 1.18 0 1.77 -0.1 1.35 -0.12 2.69 -0.33 4 -0.43 0.47 0 0.95 -0.05 1.43 -0.05a0.18 0.18 0 0 0 0.1 0 0.26 0.26 0 0 0 0.15 -0.14c0.24 -0.29 0.5 -0.54 0.74 -0.82s0.21 -0.26 0.3 -0.39a2.53 2.53 0 0 0 0.18 -0.27 0.28 0.28 0 0 0 0.32 -0.04Zm-0.26 -1.53a0.27 0.27 0 0 0 0 0.18c-0.2 0.16 -0.4 0.33 -0.59 0.51a4.71 4.71 0 0 0 -0.35 0.41 3.46 3.46 0 0 0 -0.29 0.45 5.18 5.18 0 0 0 -0.34 0.93l-2 0c-1.69 0 -3.38 0.21 -5.07 0.18l-1.24 0a6.79 6.79 0 0 1 -0.78 0c-0.69 -0.05 -0.12 0.39 -0.34 -0.89 -0.12 -0.71 -0.24 -1.4 -0.33 -2.11 -0.06 -0.46 -0.1 -0.93 -0.13 -1.4a0.26 0.26 0 0 0 -0.08 -0.19c0.38 0 0.77 0 1.19 -0.05a7.86 7.86 0 0 0 0.83 -0.11c0.38 -0.05 0.74 -0.13 1.08 -0.15a4.13 4.13 0 0 0 0.45 1 3.15 3.15 0 0 0 0.43 0.47c0.19 0.18 0.39 0.32 0.59 0.49a0.26 0.26 0 0 0 0.13 0.1 0.31 0.31 0 0 0 0.41 0.08c0.74 0.07 1.48 0.19 2.22 0.26a16.3 16.3 0 0 0 1.71 0.07 16.54 16.54 0 0 0 2.5 -0.23Zm9.78 -0.71a9.6 9.6 0 0 1 -1.55 0c-1.41 -0.12 -1.1 -0.75 -1.12 -1.08s0 -0.41 0 -0.58a4 4 0 0 1 0.49 0 7.42 7.42 0 0 1 0.92 0.17l0.66 0.09s0.22 -0.05 0.35 -0.06a1.21 1.21 0 0 1 0.13 0.35c0.08 0.35 0.13 0.74 0.18 1l0 0.08Z" fill="#020202" fill-rule="evenodd" stroke-width="1"></path>
  </g>
</svg>