<svg xmlns="http://www.w3.org/2000/svg" viewBox="0 0 24 24" id="Modern-Payment-Smartphone-Pay-Dollar-1--Streamline-Freehand">
  <desc>
    Modern Payment Smartphone Pay Dollar 1 Streamline Icon: https://streamlinehq.com
  </desc>
  <g>
    <path d="M23.56 2.77a2.32 2.32 0 0 0 -0.84 0c-0.51 0.11 -1.17 0.33 -1.69 0.47l-0.4 0.1c-0.3 -0.41 -0.71 -1.32 -1.09 -1.82a1 1 0 0 0 -1 -0.51 2.62 2.62 0 0 0 -0.75 0.45 9.2 9.2 0 0 1 -1 0.87 1.15 1.15 0 0 1 -0.36 -0.45c-0.23 -0.37 -0.43 -0.82 -0.66 -1.17a2.38 2.38 0 0 0 -0.44 -0.53 0.47 0.47 0 0 0 -0.68 0 2.7 2.7 0 0 0 -0.37 0.56 40.68 40.68 0 0 0 -2 4.95 36.47 36.47 0 0 0 -2 8.63 0.34 0.34 0 0 0 0.14 0.3 0.27 0.27 0 0 0 0.31 0A8.11 8.11 0 0 1 12 14a1.15 1.15 0 0 1 0.72 -0.15 2.24 2.24 0 0 1 0.71 0.69 14.15 14.15 0 0 1 0.92 1.46 0.39 0.39 0 0 0 0.25 0.18 1.18 1.18 0 0 0 0.72 -0.1 6 6 0 0 1 1.74 -0.81s0.07 0 0.12 0.08a3 3 0 0 1 0.25 0.32c0.27 0.4 0.53 0.92 0.82 1.29a1.54 1.54 0 0 0 0.66 0.54 0.41 0.41 0 0 0 0.37 0 0.43 0.43 0 0 0 0.2 -0.32c0.21 -1.84 3.09 -9.18 4.12 -12.32a10.52 10.52 0 0 0 0.4 -1.34 0.62 0.62 0 0 0 -0.44 -0.75Zm-1 1.75c-0.91 2.81 -3.19 9.07 -3.81 11.71l-0.06 -0.09a12 12 0 0 0 -0.89 -1.29 1 1 0 0 0 -0.89 -0.39 2.38 2.38 0 0 0 -0.58 0.16 8.78 8.78 0 0 0 -1.11 0.62 1.14 1.14 0 0 1 -0.37 0.18 12.31 12.31 0 0 0 -1.13 -1.57 2.21 2.21 0 0 0 -0.84 -0.65 1.47 1.47 0 0 0 -0.95 0.08 5.73 5.73 0 0 0 -1.05 0.53 27 27 0 0 1 0.75 -3.63 49.8 49.8 0 0 1 3.23 -8.54 2.55 2.55 0 0 0 0.14 -0.29c0.26 0.43 0.48 1 0.75 1.4a1.7 1.7 0 0 0 0.57 0.54 0.79 0.79 0 0 0 0.66 0 6 6 0 0 0 1.22 -0.82l0.42 -0.32 0.17 0.22c0.34 0.52 0.7 1.3 1 1.67a0.94 0.94 0 0 0 0.57 0.41 2.39 2.39 0 0 0 0.82 -0.08c0.46 -0.11 1.05 -0.31 1.56 -0.43a4.87 4.87 0 0 1 -0.15 0.58Z" fill="#020202" fill-rule="evenodd" stroke-width="1"></path>
    <path d="M17 8.06a2.69 2.69 0 0 1 -0.59 -0.27 0.45 0.45 0 0 1 -0.22 -0.3c0 -0.5 0.32 -0.7 0.76 -0.73a3.11 3.11 0 0 1 1.64 0.4 0.28 0.28 0 1 0 0.32 -0.46 3 3 0 0 0 -0.82 -0.43s0.05 -0.06 0.07 -0.1a0.61 0.61 0 0 0 0.11 -0.23 1.05 1.05 0 0 0 0.06 -0.24c0 -0.22 0 -0.41 0.05 -0.62a0.32 0.32 0 1 0 -0.59 -0.24 4 4 0 0 0 -0.4 0.5 1 1 0 0 0 -0.12 0.23 0.84 0.84 0 0 0 -0.07 0.26 1.47 1.47 0 0 0 0 0.21 2.48 2.48 0 0 0 -0.72 0 1.37 1.37 0 0 0 -1.24 1.5 1.31 1.31 0 0 0 0.55 1.07 6.56 6.56 0 0 0 1.6 0.72c0.32 0.13 0.66 0.22 0.62 0.59s-0.47 0.54 -0.92 0.58a3 3 0 0 1 -1.59 -0.31 1.12 1.12 0 0 1 -0.33 -0.32 3.26 3.26 0 0 1 -0.27 -0.48 0.31 0.31 0 1 0 -0.58 0.24 2.73 2.73 0 0 0 0.35 0.73 1.9 1.9 0 0 0 0.42 0.43 2.51 2.51 0 0 0 0.46 0.26 1.23 1.23 0 0 0 -0.11 0.23 1.68 1.68 0 0 0 -0.06 0.24l0 0.61a0.32 0.32 0 0 0 0.16 0.42 0.32 0.32 0 0 0 0.42 -0.17 3.25 3.25 0 0 0 0.4 -0.5 1 1 0 0 0 0.13 -0.23 1.22 1.22 0 0 0 0.06 -0.26 0.48 0.48 0 0 0 0 -0.12 3.41 3.41 0 0 0 1.1 0A1.58 1.58 0 0 0 19.07 10a1.35 1.35 0 0 0 -0.38 -1.18A4.66 4.66 0 0 0 17 8.06Z" fill="#020202" fill-rule="evenodd" stroke-width="1"></path>
    <path d="M1.16 6.35Z" fill="#4C57E6" fill-rule="evenodd" stroke-width="1"></path>
    <path d="M12.93 16.32a0.28 0.28 0 0 0 -0.3 -0.26 0.29 0.29 0 0 0 -0.26 0.31c0.05 0.93 0.09 2 0.12 2.9 0.1 3.21 0.17 2.68 -0.59 2.89a10.87 10.87 0 0 1 -1.52 0.23c-1.56 0.23 -3.14 0.53 -4.71 0.71 -0.67 0.07 -1.34 0.13 -2 0.15a0.3 0.3 0 0 0 -0.32 0.31 0.31 0.31 0 0 0 0.31 0.32 23.32 23.32 0 0 0 2.77 -0.05c1.36 -0.09 2.73 -0.26 4.08 -0.38a8.51 8.51 0 0 0 2 -0.36 1.82 1.82 0 0 0 0.91 -0.65 0.76 0.76 0 0 0 0.12 -0.34 7.92 7.92 0 0 0 0 -1.13c-0.15 -1.19 -0.39 -3.07 -0.61 -4.65Z" fill="#4C57E6" fill-rule="evenodd" stroke-width="1"></path>
    <path d="m5.65 8.42 1.95 -0.3c0.13 0 0.38 0 0.57 -0.06a1 1 0 0 0 0.41 -0.14 1.71 1.71 0 0 0 0.6 -0.68 4.31 4.31 0 0 0 0.34 -1.1l0.08 -0.94a1.84 1.84 0 0 1 1.26 0.33 0.32 0.32 0 0 0 0.42 -0.48 2.41 2.41 0 0 0 -1.52 -0.54 23 23 0 0 0 -3.32 0.34l-4.17 0.23A4.78 4.78 0 0 0 1 5.26a1.51 1.51 0 0 0 -0.61 0.43A3.46 3.46 0 0 0 0 7.37C0 8.68 0 10.76 0.18 13a61.73 61.73 0 0 0 1.48 10.46 0.28 0.28 0 0 0 0.54 -0.17 45.62 45.62 0 0 1 -0.8 -6.87c-0.09 -1.39 -0.16 -2.82 -0.22 -4.17 -0.07 -1.59 -0.12 -3.05 -0.11 -4.16a14.45 14.45 0 0 1 0.08 -1.59 0.81 0.81 0 0 0 0 -0.15s0 -0.06 0 0a0.6 0.6 0 0 1 0.26 -0.14A2.75 2.75 0 0 1 2 6.08l0.35 1.25a3 3 0 0 0 0.13 0.49 0.73 0.73 0 0 0 0.26 0.33A2.35 2.35 0 0 0 4 8.53a12.19 12.19 0 0 0 1.65 -0.11ZM3 7.09 2.6 6l3.91 -0.36c0.61 -0.07 1.53 -0.31 2.43 -0.41L8.8 6a3.13 3.13 0 0 1 -0.28 0.72 1 1 0 0 1 -0.41 0.44h-0.6l-2 0.22A15.28 15.28 0 0 1 4 7.54a2.05 2.05 0 0 1 -0.77 -0.08c0.05 -0.09 -0.15 -0.29 -0.23 -0.37Z" fill="#4C57E6" fill-rule="evenodd" stroke-width="1"></path>
  </g>
</svg>