<svg xmlns="http://www.w3.org/2000/svg" viewBox="0 0 24 24" id="Module-Network-Share--Streamline-Freehand">
  <desc>
    Module Network Share Streamline Icon: https://streamlinehq.com
  </desc>
  <g>
    <path d="M15.57 19.87a5.05 5.05 0 0 1 -2.68 1.72 5.94 5.94 0 0 1 -1.34 0.2 6.13 6.13 0 0 1 -1.35 -0.09 5.11 5.11 0 0 1 -2.86 -1.43 0.32 0.32 0 0 0 -0.49 0.41 5.58 5.58 0 0 0 3.09 2.17 5.22 5.22 0 0 0 1.67 0.17 5.15 5.15 0 0 0 1.64 -0.33 5.62 5.62 0 0 0 2.92 -2.41 0.36 0.36 0 0 0 -0.09 -0.51 0.37 0.37 0 0 0 -0.51 0.1Z" fill="#4C57E6" fill-rule="evenodd" stroke-width="1"></path>
    <path d="m8.36 8.14 2.48 1.39a6 6 0 0 0 0.84 0.5 1 1 0 0 0 0.53 0.07 1.83 1.83 0 0 0 0.66 -0.24 9.59 9.59 0 0 0 1 -0.76 8 8 0 0 1 0.82 -0.62 9.88 9.88 0 0 1 0.89 -0.48s0.2 0.13 0.52 -2a5.1 5.1 0 0 0 0.07 -0.87 7.57 7.57 0 0 0 -0.23 -1.49 1.47 1.47 0 0 0 -0.41 -0.64 6.37 6.37 0 0 1 -0.88 -0.52c-0.43 -0.29 -0.83 -0.62 -1.25 -1a3.06 3.06 0 0 0 -0.77 -0.48A1.07 1.07 0 0 0 12 1a1.87 1.87 0 0 0 -0.41 0.15c-0.21 0.12 -0.42 0.28 -0.6 0.39l-1.18 0.82C8.27 3.61 8.37 2.89 8.1 5a4.87 4.87 0 0 0 0 0.66l0 0.66c0.18 1.96 0.1 1.74 0.26 1.82Zm3.05 0.34 -2.33 -0.76c0.05 -0.47 0.13 -0.92 0.18 -1.39l0 -0.64a4.66 4.66 0 0 0 0 -0.65c0 -0.34 -0.1 -0.67 -0.16 -1 0.15 0.07 0.31 0.13 0.46 0.21 0.48 0.26 0.95 0.56 1.41 0.84 0.22 0.11 0.5 0.3 0.79 0.43a7.74 7.74 0 0 0 -0.23 0.86 3.05 3.05 0 0 0 -0.05 0.52 3.14 3.14 0 0 0 0 0.53 10.09 10.09 0 0 0 0.23 1.22 0.48 0.48 0 0 0 0.08 0.16c-0.12 -0.12 -0.3 -0.29 -0.38 -0.33Zm2.83 -0.79c-0.34 0.16 -0.68 0.33 -1 0.52l-0.76 0.47 0 -0.07c0 -0.39 0.13 -0.77 0.19 -1.17 0 -0.17 0 -0.33 0.05 -0.5s0 -0.34 0 -0.51 -0.09 -0.52 -0.14 -0.78a2.16 2.16 0 0 0 0.74 -0.25 7.74 7.74 0 0 0 0.82 -0.54c0.25 -0.17 0.5 -0.34 0.77 -0.5l0.22 -0.12a5.47 5.47 0 0 0 -0.15 0.58 3.31 3.31 0 0 0 -0.06 0.54 5 5 0 0 0 0 0.55 11.67 11.67 0 0 0 0.2 1.32s0 0.06 0 0.09c-0.27 0.12 -0.58 0.24 -0.88 0.37Zm-4 -4.49 1.32 -0.62c1 -0.56 0.61 -0.46 1.14 -0.14s1 0.54 1.46 0.78c0.2 0.09 0.43 0.17 0.64 0.25L13.63 4l-0.63 0.28a1.82 1.82 0 0 1 -0.54 0.15L11.51 4c-0.53 -0.19 -1.06 -0.39 -1.6 -0.56h-0.07Z" fill="#020202" fill-rule="evenodd" stroke-width="1"></path>
    <path d="M23.77 14.21a1.59 1.59 0 0 0 -0.42 -0.63 6.25 6.25 0 0 1 -0.87 -0.52c-0.44 -0.29 -0.83 -0.62 -1.26 -1a3.17 3.17 0 0 0 -0.76 -0.44 1.1 1.1 0 0 0 -0.64 0 1.63 1.63 0 0 0 -0.4 0.15c-0.22 0.12 -0.43 0.28 -0.61 0.39l-1.18 0.84c-1.64 1.33 -1.45 0.64 -1.7 2.66a4.63 4.63 0 0 0 0 0.65 4.86 4.86 0 0 0 0 0.66c0.18 1.95 0.11 1.73 0.26 1.81l2.49 1.39a5.83 5.83 0 0 0 0.83 0.5 1 1 0 0 0 0.53 0.07 1.87 1.87 0 0 0 0.67 -0.24 9.39 9.39 0 0 0 1 -0.76 8.14 8.14 0 0 1 0.83 -0.62 9.69 9.69 0 0 1 0.9 -0.53s0.2 0.13 0.53 -2a5.1 5.1 0 0 0 0.03 -0.89 8.39 8.39 0 0 0 -0.23 -1.49Zm-5.66 -0.38 1.33 -0.62c1 -0.56 0.61 -0.46 1.14 -0.14s1 0.54 1.45 0.78c0.2 0.09 0.43 0.17 0.65 0.25l-1.23 0.49 -0.67 0.32a1.67 1.67 0 0 1 -0.54 0.15l-0.91 -0.42c-0.52 -0.19 -1 -0.39 -1.6 -0.56h-0.07Zm-1.21 4.52c0.05 -0.47 0.13 -0.92 0.18 -1.39l0 -0.64a4.68 4.68 0 0 0 0 -0.65 8.35 8.35 0 0 0 -0.17 -1c0.16 0.07 0.31 0.13 0.46 0.21 0.49 0.26 1 0.56 1.41 0.84 0.22 0.11 0.51 0.3 0.8 0.43a7.76 7.76 0 0 0 -0.24 0.86 4.57 4.57 0 0 0 -0.05 0.52 4.71 4.71 0 0 0 0 0.53c0.27 1.83 1.21 1.46 -2.39 0.29Zm5.16 0c-0.34 0.16 -0.67 0.33 -1 0.52s-0.48 0.31 -0.76 0.47a0.15 0.15 0 0 0 0 -0.07c0.05 -0.39 0.14 -0.77 0.19 -1.17l0 -0.5a2.9 2.9 0 0 0 0 -0.51 6.69 6.69 0 0 0 -0.14 -0.78 2.29 2.29 0 0 0 0.75 -0.25 7.6 7.6 0 0 0 0.81 -0.54l0.77 -0.5 0.22 -0.12a5.45 5.45 0 0 0 -0.14 0.58 3.72 3.72 0 0 0 -0.06 1.09 9.55 9.55 0 0 0 0.2 1.32s0 0.06 0 0.09c-0.23 0.09 -0.54 0.21 -0.84 0.34Z" fill="#020202" fill-rule="evenodd" stroke-width="1"></path>
    <path d="M7.8 17.83c0.06 -0.43 0.2 -0.83 0.2 -1.26a5.1 5.1 0 0 0 0.07 -0.87 8.39 8.39 0 0 0 -0.23 -1.49 1.46 1.46 0 0 0 -0.42 -0.63 6.25 6.25 0 0 1 -0.87 -0.52c-0.43 -0.29 -0.83 -0.62 -1.25 -1a3.06 3.06 0 0 0 -0.77 -0.44 1.1 1.1 0 0 0 -0.64 0 1.8 1.8 0 0 0 -0.4 0.15c-0.21 0.12 -0.43 0.28 -0.6 0.39L1.75 13C0.1 14.33 0.3 13.63 0 15.65a4.63 4.63 0 0 0 0 0.65l0 0.66c0.19 1.95 0.11 1.73 0.26 1.81l2.49 1.39a5.47 5.47 0 0 0 0.84 0.5 1 1 0 0 0 0.52 0.07 1.81 1.81 0 0 0 0.67 -0.24 9.39 9.39 0 0 0 1 -0.76 9.41 9.41 0 0 1 0.83 -0.62c0.29 -0.19 0.58 -0.36 0.9 -0.53s0.29 -0.73 0.29 -0.75Zm-5.57 -4 1.32 -0.62c1 -0.56 0.61 -0.46 1.14 -0.14s1 0.54 1.45 0.78l0.65 0.25 -1.22 0.49 -0.68 0.32a1.67 1.67 0 0 1 -0.54 0.15l-0.9 -0.42c-0.53 -0.19 -1.06 -0.39 -1.61 -0.56h-0.06ZM1 18.35c0.05 -0.47 0.12 -0.92 0.17 -1.39 0 -0.21 0 -0.43 0.05 -0.64s0 -0.44 0 -0.65 -0.1 -0.67 -0.16 -1l0.45 0.21c0.49 0.26 1 0.56 1.42 0.84 0.22 0.11 0.5 0.3 0.79 0.43a7.76 7.76 0 0 0 -0.24 0.86 3 3 0 0 0 0 0.52 3.13 3.13 0 0 0 0 0.53c0.19 1.83 1.13 1.46 -2.48 0.29Zm5.16 0c-0.35 0.16 -0.68 0.33 -1 0.52l-0.75 0.47 0 -0.07c0.05 -0.39 0.14 -0.77 0.19 -1.17a2.83 2.83 0 0 0 0 -0.5 2.9 2.9 0 0 0 0 -0.51 6.68 6.68 0 0 0 -0.13 -0.78 2.16 2.16 0 0 0 0.8 -0.31 7.74 7.74 0 0 0 0.82 -0.54c0.25 -0.17 0.5 -0.34 0.77 -0.5l0.22 -0.12a5.47 5.47 0 0 0 -0.15 0.58 5 5 0 0 0 -0.07 0.54l0 0.55a9.55 9.55 0 0 0 0.2 1.32s0 0.06 0 0.09c-0.27 0.15 -0.58 0.27 -0.88 0.4Z" fill="#020202" fill-rule="evenodd" stroke-width="1"></path>
    <path d="M2.42 11.52a0.34 0.34 0 0 0 0.23 -0.4A4.86 4.86 0 0 1 3 8.59a7.4 7.4 0 0 1 0.46 -1A7.65 7.65 0 0 1 4 6.67 5.61 5.61 0 0 1 6 5a0.37 0.37 0 0 0 0.21 -0.48 0.37 0.37 0 0 0 -0.48 -0.2 5.92 5.92 0 0 0 -2.59 1.61A5.19 5.19 0 0 0 2.35 7a5.09 5.09 0 0 0 -0.49 1.24 5.21 5.21 0 0 0 0.16 3 0.33 0.33 0 0 0 0.4 0.28Z" fill="#4C57E6" fill-rule="evenodd" stroke-width="1"></path>
    <path d="M18.38 5a5.61 5.61 0 0 1 1.94 1.69 7.65 7.65 0 0 1 0.59 0.93 6.28 6.28 0 0 1 0.45 1 4.77 4.77 0 0 1 0.34 2.53 0.33 0.33 0 1 0 0.63 0.17 5.21 5.21 0 0 0 0.16 -3A5.09 5.09 0 0 0 22 7a5.19 5.19 0 0 0 -0.79 -1.07 6 6 0 0 0 -2.56 -1.63 0.37 0.37 0 1 0 -0.27 0.68Z" fill="#4C57E6" fill-rule="evenodd" stroke-width="1"></path>
  </g>
</svg>