<svg xmlns="http://www.w3.org/2000/svg" viewBox="0 0 24 24" id="Money-Cash-Bills--Streamline-Freehand">
  <desc>
    Money Cash Bills Streamline Icon: https://streamlinehq.com
  </desc>
  <g>
    <path d="M9.13 11.4c0.12 0.07 0.26 0.09 0.39 0.15l-0.24 0.85a0.37 0.37 0 0 0 0.21 0.49 0.38 0.38 0 0 0 0.49 -0.21c0.15 -0.3 0.29 -0.61 0.44 -0.91a4.16 4.16 0 0 0 2.36 -0.5 1.71 1.71 0 0 0 0.84 -2 1.39 1.39 0 0 0 -0.75 -0.84 2.93 2.93 0 0 0 -1 -0.25c0.08 -0.26 0.15 -0.52 0.21 -0.79a5.87 5.87 0 0 1 1.32 0.17 0.33 0.33 0 0 0 0.43 -0.2 0.35 0.35 0 0 0 -0.2 -0.43 6.58 6.58 0 0 0 -1.34 -0.31l0.2 -0.62a0.33 0.33 0 1 0 -0.61 -0.26c-0.14 0.25 -0.26 0.51 -0.4 0.76a5 5 0 0 0 -1.56 0.18 3 3 0 0 0 -0.92 0.4 0.92 0.92 0 0 0 -0.38 0.73 1.16 1.16 0 0 0 0.35 0.8 2.38 2.38 0 0 0 0.77 0.52 3.91 3.91 0 0 0 0.44 0.08c-0.09 0.25 -0.18 0.51 -0.26 0.77s-0.14 0.49 -0.2 0.73c-0.07 0 -0.15 0 -0.21 -0.06a5.56 5.56 0 0 1 -1 -0.7A0.39 0.39 0 0 0 8 10a0.38 0.38 0 0 0 0 0.54 7.13 7.13 0 0 0 1.13 0.86Zm1.15 -3.78a3.62 3.62 0 0 1 0.72 -0.14c-0.08 0.17 -0.17 0.32 -0.25 0.48l0 0.08a1.76 1.76 0 0 1 -0.51 -0.04 2.9 2.9 0 0 1 -0.41 -0.16 3 3 0 0 1 0.45 -0.22Zm1.58 1.79a1.84 1.84 0 0 1 0.45 0.12s0.11 0 0.12 0.09c0.15 0.4 -0.17 0.68 -0.55 0.87a3 3 0 0 1 -1 0.3c0.06 -0.13 0.13 -0.25 0.19 -0.39 0.14 -0.32 0.28 -0.65 0.41 -1Z" fill="#020202" fill-rule="evenodd" stroke-width="1"></path>
    <path d="M0.09 13.84a0.35 0.35 0 0 0 0.18 0.33s5.29 0.25 7.22 0.24c1.43 0 2.84 0 4.25 -0.09 2.11 -0.08 4.23 -0.19 6.35 -0.18a1.14 1.14 0 0 0 0.58 -0.37c0.4 -0.88 0.83 -1.73 1.23 -2.62 0.16 -0.38 0.32 -0.76 0.47 -1.15s0.28 -0.77 0.41 -1.16c1.11 -3.37 2.73 -4.47 -6.1 -4.68a41.64 41.64 0 0 0 -4.32 0.13C2.12 4.9 4.43 4.05 2.42 8c-0.21 0.42 -0.4 0.85 -0.6 1.28l-0.54 1.29c-0.41 1 -0.78 2.05 -1.19 3.08l0 0.08 0 0.05 0 0.06Zm2.29 -2.75c0.21 -0.42 0.42 -0.84 0.61 -1.27s0.38 -0.86 0.55 -1.3c0.38 -1 0.68 -2 1 -3l7 0c1.65 0 3.29 -0.13 4.93 -0.08a29.58 29.58 0 0 1 4.5 0.45c-0.43 0.84 -0.87 1.67 -1.27 2.54 -0.17 0.37 -0.34 0.76 -0.49 1.14s-0.29 0.78 -0.41 1.18c-0.27 0.88 -0.47 1.77 -0.68 2.65 -2.36 -0.16 -4.71 -0.27 -7.07 -0.28 -1.41 0 -2.83 0 -4.24 0.09 -1.9 0.08 -3.79 0.2 -5.69 0.26 0.4 -0.81 0.88 -1.58 1.26 -2.38Z" fill="#020202" fill-rule="evenodd" stroke-width="1"></path>
    <path d="M0.31 16.7c1.93 0.23 3.88 0.33 5.84 0.37l2.34 0c1.16 0 2.32 -0.05 3.47 -0.05 1.54 0 3.1 0 4.65 -0.08a25.1 25.1 0 0 0 3.14 -0.29c0.08 0 -0.07 0.41 1.48 -3.09 0.16 -0.39 0.33 -0.77 0.48 -1.16s0.3 -0.78 0.43 -1.18c0.31 -0.94 0.55 -1.88 0.83 -2.82a0.33 0.33 0 0 0 -0.62 -0.25c-0.46 0.87 -0.93 1.72 -1.35 2.62 -0.17 0.39 -0.33 0.78 -0.49 1.17s-0.28 0.79 -0.4 1.19c-0.3 0.92 -0.54 1.85 -0.81 2.77a26.76 26.76 0 0 1 -2.69 0.08c-1.55 0 -3.11 -0.16 -4.65 -0.21s-3.1 0 -4.66 0.07 -3.09 0.18 -4.63 0.2l-2.31 0a0.35 0.35 0 0 0 -0.36 0.31 0.34 0.34 0 0 0 0.31 0.35Z" fill="#4C57E6" fill-rule="evenodd" stroke-width="1"></path>
    <path d="M23.8 10.8a0.34 0.34 0 0 0 -0.44 0.19c-0.46 0.87 -0.94 1.72 -1.36 2.62 -0.17 0.39 -0.32 0.78 -0.48 1.17s-0.28 0.79 -0.4 1.19c-0.3 0.92 -0.55 1.85 -0.81 2.77 -0.9 0.07 -1.8 0.1 -2.7 0.08 -1.55 0 -3.11 -0.15 -4.64 -0.21s-3.28 -0.05 -5.05 -0.05 -3.41 0.05 -5 0c-0.87 0 -1.72 0 -2.51 -0.06a0.32 0.32 0 0 0 -0.36 0.31 0.33 0.33 0 0 0 0.3 0.36c2.29 0.27 5 0.51 7.59 0.6 1.78 0.07 3.51 0 5.06 0.05s3.11 0 4.66 -0.08a27.33 27.33 0 0 0 3.14 -0.28c0.07 0 -0.07 0.41 1.48 -3.1l0.48 -1.15c0.16 -0.39 0.3 -0.78 0.43 -1.18 0.3 -0.94 0.54 -1.88 0.82 -2.82a0.33 0.33 0 0 0 -0.21 -0.41Z" fill="#4C57E6" fill-rule="evenodd" stroke-width="1"></path>
  </g>
</svg>