<svg xmlns="http://www.w3.org/2000/svg" viewBox="0 0 24 24" id="Money-Bill-Fly--Streamline-Freehand">
  <desc>
    Money Bill Fly Streamline Icon: https://streamlinehq.com
  </desc>
  <g>
    <path d="M20.89 12.16a0.32 0.32 0 0 0 0.29 -0.38 10.32 10.32 0 0 0 -0.37 -2A6.39 6.39 0 0 0 20.5 9a8.46 8.46 0 0 0 -0.44 -0.77c-2 -2.93 -1.3 -1.3 -3.77 -0.66a13.09 13.09 0 0 1 -3.13 0.32 14.64 14.64 0 0 0 -3.1 0.44 10.44 10.44 0 0 0 -2.85 1.18 3.19 3.19 0 0 0 -0.79 0.65 0.76 0.76 0 0 0 -0.2 0.57 0.89 0.89 0 0 0 0.21 0.39c0.17 0.17 0.41 0.36 0.5 0.45a0.35 0.35 0 0 0 0.45 0 0.27 0.27 0 0 0 0 -0.4l-0.38 -0.5 0 -0.05a1.15 1.15 0 0 1 0.27 -0.21c0.16 -0.1 0.31 -0.18 0.41 -0.23a13.06 13.06 0 0 1 2.7 -0.86 16.32 16.32 0 0 1 2.84 -0.4A2.34 2.34 0 0 0 11.8 10a1.54 1.54 0 0 0 1.2 2.36c0.3 0 3.12 0.16 2.47 -2.22a1.71 1.71 0 0 0 -2 -1.25 13.57 13.57 0 0 0 3.12 -0.58 6.39 6.39 0 0 0 1.8 -1c0.3 0.57 0.55 1.13 0.81 1.67s0.46 0.89 0.67 1.36 0.43 1 0.62 1.53a0.35 0.35 0 0 0 0.4 0.29Zm-6.41 -2c0 0.11 0.65 1.71 -1.16 1.39a0.76 0.76 0 0 1 -0.59 -0.43 0.89 0.89 0 0 1 0.14 -0.85 1.26 1.26 0 0 1 0.71 -0.62 0.72 0.72 0 0 1 0.9 0.52Z" fill="#020202" fill-rule="evenodd" stroke-width="1"></path>
    <path d="M8.46 14.82a0.33 0.33 0 0 0 -0.13 0.44l0.14 0.29a6.73 6.73 0 0 0 0.51 1 0.51 0.51 0 0 0 0.36 0.2 1.14 1.14 0 0 0 0.64 -0.16 7.26 7.26 0 0 0 0.86 -0.61 12.66 12.66 0 0 1 1.16 -0.8 12.33 12.33 0 0 1 1.23 -0.68 5.41 5.41 0 0 1 2.07 -0.5c1.19 -0.11 2.41 -0.07 3.57 -0.28a5.8 5.8 0 0 0 1.52 -0.46 0.37 0.37 0 1 0 -0.29 -0.67 8.16 8.16 0 0 1 -3.35 0.26 13.52 13.52 0 0 0 -2.47 0.05 5.31 5.31 0 0 0 -1.58 0.51 11.37 11.37 0 0 0 -1.06 0.63 12.08 12.08 0 0 0 -1.42 1.17c-0.11 0.11 -0.29 0.3 -0.49 0.47a1.17 1.17 0 0 0 -0.16 0.15 3.36 3.36 0 0 0 -0.5 -0.61l-0.18 -0.29a0.32 0.32 0 0 0 -0.43 -0.11Z" fill="#020202" fill-rule="evenodd" stroke-width="1"></path>
    <path d="M2.79 16.32a7.42 7.42 0 0 0 0.87 -0.74c0.38 -0.37 0.73 -0.78 1.08 -1.19a5.17 5.17 0 0 1 1.88 -1.58 0.31 0.31 0 0 0 0.22 -0.39 0.32 0.32 0 0 0 -0.39 -0.22 4.36 4.36 0 0 0 -1.56 0.64 7.71 7.71 0 0 0 -1 0.79c-0.3 0.28 -0.58 0.59 -0.86 0.89l-0.52 0.48a3.69 3.69 0 0 1 -2.17 1.43 0.37 0.37 0 0 0 -0.34 0.39 0.36 0.36 0 0 0 0.38 0.34 4 4 0 0 0 2.41 -0.84Z" fill="#4C57E6" fill-rule="evenodd" stroke-width="1"></path>
    <path d="M3.64 18.36a14.43 14.43 0 0 0 1.07 -1.15 13.18 13.18 0 0 1 1 -1.13 4.53 4.53 0 0 1 1 -0.76 0.32 0.32 0 0 0 0.16 -0.42 0.32 0.32 0 0 0 -0.42 -0.17 5.1 5.1 0 0 0 -1.67 0.91 10.06 10.06 0 0 0 -1 0.92c-0.29 0.31 -0.56 0.66 -0.86 1a4.85 4.85 0 0 1 -0.93 0.88 2.14 2.14 0 0 1 -1.12 0.4 0.37 0.37 0 0 0 -0.38 0.34 0.36 0.36 0 0 0 0.34 0.38A2.8 2.8 0 0 0 2 19.38a5.12 5.12 0 0 0 1.64 -1.02Z" fill="#4C57E6" fill-rule="evenodd" stroke-width="1"></path>
    <path d="M8.35 16.79a0.32 0.32 0 0 0 -0.42 -0.17 5.49 5.49 0 0 0 -1.67 0.91 10.06 10.06 0 0 0 -1 0.92c-0.3 0.32 -0.56 0.66 -0.87 1a4.27 4.27 0 0 1 -0.92 0.88 2.06 2.06 0 0 1 -1.12 0.4 0.36 0.36 0 0 0 -0.38 0.34 0.37 0.37 0 0 0 0.34 0.39 2.75 2.75 0 0 0 1.31 -0.16 5 5 0 0 0 1.62 -1c0.37 -0.38 0.74 -0.76 1.07 -1.16a11.58 11.58 0 0 1 1 -1.13 4.08 4.08 0 0 1 1 -0.76 0.32 0.32 0 0 0 0.04 -0.46Z" fill="#4C57E6" fill-rule="evenodd" stroke-width="1"></path>
    <path d="M4.45 11.88a0.32 0.32 0 0 0 0.42 0.17 0.32 0.32 0 0 0 0.13 -0.42c0 -0.13 -0.3 -0.58 -0.46 -1 -0.08 -0.2 -0.17 -0.37 -0.14 -0.47a0.66 0.66 0 0 1 0.17 -0.25 5.44 5.44 0 0 1 0.51 -0.48 9.56 9.56 0 0 1 1.35 -1A8.56 8.56 0 0 1 8 7.67a13.29 13.29 0 0 1 3.66 -0.82c0.89 -0.11 1.77 -0.23 2.64 -0.42a12 12 0 0 0 1.65 -0.5 8.31 8.31 0 0 0 1.92 -1.1 8.81 8.81 0 0 0 1.37 -1.36c0.22 0.37 0.45 0.74 0.64 1.12s0.41 0.91 0.61 1.38 0.41 0.92 0.61 1.38c0.65 1.4 1.31 2.8 2 4.17a0.36 0.36 0 1 0 0.67 -0.27C23.31 10.16 23 9 22.6 8a19.68 19.68 0 0 0 -0.91 -2.16c-2.67 -5.12 -2.44 -3 -4.37 -1.65a7.76 7.76 0 0 1 -1.76 0.81 13.77 13.77 0 0 1 -2.71 0.5c-1 0.11 -1.93 0.18 -2.87 0.35a10.83 10.83 0 0 0 -2.49 0.75 9.65 9.65 0 0 0 -1.6 1A9.13 9.13 0 0 0 4.5 8.82a4.86 4.86 0 0 0 -0.6 0.71 1 1 0 0 0 -0.22 0.48 1.39 1.39 0 0 0 0.16 0.74c0.16 0.45 0.54 0.99 0.61 1.13Z" fill="#020202" fill-rule="evenodd" stroke-width="1"></path>
    <path d="M23.74 12.31a0.37 0.37 0 0 0 -0.45 0.25 3.32 3.32 0 0 1 -0.22 0.55 2.41 2.41 0 0 1 -0.3 0.48 3.64 3.64 0 0 1 -2.22 1.29 13.91 13.91 0 0 1 -3.29 0 8.87 8.87 0 0 0 -3.62 0.42 6.8 6.8 0 0 0 -1.8 1.1 12.68 12.68 0 0 0 -2 2.25L8.85 20l0 0.1 -0.05 -0.05L8.14 19a0.33 0.33 0 0 0 -0.58 0.3l0.56 1.16a6 6 0 0 0 0.34 0.56 0.44 0.44 0 0 0 0.54 0.16 0.84 0.84 0 0 0 0.21 -0.18c0.12 -0.14 0.23 -0.36 0.32 -0.47l1 -1.27a14.11 14.11 0 0 1 1.64 -1.64 6.81 6.81 0 0 1 1.88 -1.17 8.1 8.1 0 0 1 3.13 -0.37 13.7 13.7 0 0 0 3.54 -0.24 4.45 4.45 0 0 0 2.65 -1.76 3.06 3.06 0 0 0 0.35 -0.64 5.3 5.3 0 0 0 0.23 -0.67 0.37 0.37 0 0 0 -0.21 -0.46Z" fill="#020202" fill-rule="evenodd" stroke-width="1"></path>
  </g>
</svg>