<svg xmlns="http://www.w3.org/2000/svg" viewBox="0 0 24 24" id="Monetization-Touch-Coin--Streamline-Freehand">
  <desc>
    Monetization Touch Coin Streamline Icon: https://streamlinehq.com
  </desc>
  <g>
    <path d="M24 17.44A14 14 0 0 0 22.35 15a3.88 3.88 0 0 0 -1.74 -1.16 1.64 1.64 0 0 0 -0.94 0.06c-0.5 0.16 -1.1 0.46 -1.63 0.66 -0.29 0.11 -0.55 0.23 -0.71 0.12a2.32 2.32 0 0 1 -0.5 -0.53c-0.41 -0.55 -0.74 -1.26 -1.09 -1.74a5.79 5.79 0 0 0 -1.54 -1.49 1.7 1.7 0 0 0 -1.74 -0.07 1.74 1.74 0 0 0 -0.82 1 2.49 2.49 0 0 0 0.11 1.72 6 6 0 0 0 0.75 1.29 29.64 29.64 0 0 1 1.91 2.47c0.16 0.29 0.36 0.58 0.52 0.88a3.43 3.43 0 0 1 0.19 0.44 18.64 18.64 0 0 0 -2 -0.73 1.72 1.72 0 0 0 -0.93 0.09 1.15 1.15 0 0 0 -0.71 0.95A3.59 3.59 0 0 0 12 21a4.15 4.15 0 0 0 1.44 1.32c1.19 0.68 2.61 0.72 4 1.36a0.29 0.29 0 0 0 0.38 -0.14 0.28 0.28 0 0 0 -0.13 -0.38c-1.17 -0.58 -2.36 -0.72 -3.41 -1.19a3.56 3.56 0 0 1 -1.63 -1.41 2.91 2.91 0 0 1 -0.36 -1.07c0 -0.28 -0.06 -0.57 0.19 -0.66a1.11 1.11 0 0 1 0.73 0.07 9.48 9.48 0 0 0 2.46 0.85 0.53 0.53 0 0 0 0.53 -0.52 4.09 4.09 0 0 0 -0.08 -0.76 3.75 3.75 0 0 0 -0.3 -0.76c-0.16 -0.31 -0.35 -0.62 -0.52 -0.92a28.4 28.4 0 0 0 -2 -2.59 5.44 5.44 0 0 1 -0.64 -1.06 1.45 1.45 0 0 1 -0.11 -0.82 0.76 0.76 0 0 1 0.35 -0.54c0.32 -0.18 0.64 0 0.94 0.2a5 5 0 0 1 1 1c0.37 0.46 0.72 1.16 1.14 1.7a3.35 3.35 0 0 0 0.74 0.72 1.33 1.33 0 0 0 1.06 0.09 14.87 14.87 0 0 0 1.66 -0.7 1.48 1.48 0 0 1 0.84 -0.23 3.09 3.09 0 0 1 1.43 0.91 13.23 13.23 0 0 1 1.58 2.3 0.33 0.33 0 0 0 0.56 -0.33Z" fill="#020202" fill-rule="evenodd" stroke-width="1"></path>
    <path d="M11 14.65a9.59 9.59 0 0 1 -4.67 0 8 8 0 0 1 -4 -2.32 4.75 4.75 0 0 1 -1 -5.12 9.75 9.75 0 0 1 6.08 -5.62 7.52 7.52 0 0 1 7.17 2.18A6.45 6.45 0 0 1 16.24 11a0.32 0.32 0 0 0 0.16 0.43 0.33 0.33 0 0 0 0.43 -0.16 7.17 7.17 0 0 0 -1.63 -8.1A8.5 8.5 0 0 0 7.12 0.57 10.75 10.75 0 0 0 0.36 6.91 5.62 5.62 0 0 0 1.72 13a8.84 8.84 0 0 0 4.43 2.4 10.3 10.3 0 0 0 5 -0.2 0.29 0.29 0 0 0 -0.15 -0.55Z" fill="#4C57E6" fill-rule="evenodd" stroke-width="1"></path>
    <path d="M12.23 8.13a1.78 1.78 0 0 0 -1.14 -1.28 3 3 0 0 0 -1.47 0L9.09 7l-0.54 -2.13a5.44 5.44 0 0 1 1.75 -0.34 0.3 0.3 0 0 0 0.3 -0.28 0.29 0.29 0 0 0 -0.28 -0.25 6.23 6.23 0 0 0 -2 0.24L8 2.85a0.28 0.28 0 0 0 -0.33 -0.24 0.27 0.27 0 0 0 -0.23 0.32q0.06 0.76 0.15 1.53a5 5 0 0 0 -0.73 0.37A2 2 0 0 0 6 7.27a1.4 1.4 0 0 0 0.73 0.78A2.65 2.65 0 0 0 8 8.28l0.3 -0.06c0.1 0.36 0.19 0.72 0.31 1.07 0.19 0.57 0.39 1.14 0.61 1.69A3.79 3.79 0 0 1 6 10.77a0.32 0.32 0 0 0 -0.45 0.05 0.3 0.3 0 0 0 0.05 0.45 4.62 4.62 0 0 0 4 0.5l0.32 0.78a0.32 0.32 0 0 0 0.41 0.2 0.33 0.33 0 0 0 0.19 -0.41l-0.21 -0.81c0.14 -0.06 0.27 -0.11 0.4 -0.18a2.66 2.66 0 0 0 1.52 -3.22Zm-4.3 -0.9a2.09 2.09 0 0 1 -0.7 0 0.52 0.52 0 0 1 -0.38 -0.27 1.13 1.13 0 0 1 0.49 -1.44 3.52 3.52 0 0 1 0.38 -0.24c0 0.38 0.1 0.77 0.17 1.16s0.12 0.53 0.18 0.8ZM9.35 8a4.47 4.47 0 0 1 1.11 -0.15 0.79 0.79 0 0 1 0.76 0.62c0.35 1 -0.28 1.74 -1.17 2.21Z" fill="#020202" fill-rule="evenodd" stroke-width="1"></path>
  </g>
</svg>