<svg xmlns="http://www.w3.org/2000/svg" viewBox="0 0 24 24" id="Monitor-Heart-Beat--Streamline-Freehand">
  <desc>
    Monitor Heart Beat Streamline Icon: https://streamlinehq.com
  </desc>
  <g>
    <path d="M22.56 15.42a14.42 14.42 0 0 0 -1.92 -0.3 7.69 7.69 0 0 0 -0.83 0 7.56 7.56 0 0 0 -0.82 0.07c-0.89 0.15 -1.43 0.07 -1.78 0.17 -1.18 -0.08 -4 0.29 -5.59 0.13a8.55 8.55 0 0 0 -1 -0.13 0.87 0.87 0 0 0 -0.48 0.11 1 1 0 0 0 -0.34 0.42A10.45 10.45 0 0 0 9.42 17c-0.24 0.63 -0.47 1.27 -0.71 1.89 -0.16 0.4 -0.33 0.81 -0.52 1.2 0 0 0 0.16 -0.08 0.33 -0.09 -0.43 -0.14 -1 -0.17 -1.07l-1.55 -6 -0.32 -1.57c-0.17 -0.85 0.07 -0.37 -0.15 -0.9a0.6 0.6 0 0 0 -0.22 -0.27 0.54 0.54 0 0 0 -0.48 -0.08 0.94 0.94 0 0 0 -0.51 0.43A7.4 7.4 0 0 0 4.23 12c-0.33 0.85 -0.51 1.9 -0.83 2.84a4.78 4.78 0 0 1 -0.41 0.95l-0.29 0.11a7.12 7.12 0 0 1 -0.9 0.17c-0.48 0.05 -1 0.07 -1.44 0.1a0.37 0.37 0 0 0 -0.36 0.39 0.38 0.38 0 0 0 0.38 0.36c0.5 0 1 0 1.5 -0.05a9.13 9.13 0 0 0 1 -0.15 4.59 4.59 0 0 0 0.55 -0.19 0.51 0.51 0 0 0 0.2 -0.17 5.8 5.8 0 0 0 0.61 -1.22c0.31 -0.8 0.51 -1.7 0.81 -2.45l0.14 0.81c0.16 0.83 0.35 1.65 0.55 2.47 0.3 1.22 0.64 2.44 1 3.65a8.83 8.83 0 0 0 0.6 1.79A1.16 1.16 0 0 0 8 22a0.71 0.71 0 0 0 0.74 -0.4c0.15 -0.28 0.47 -1 0.49 -1.09 0.18 -0.43 0.34 -0.87 0.49 -1.31 0.22 -0.64 0.41 -1.29 0.61 -1.94 0.52 -1.66 -0.4 -1 1.23 -0.94 0.75 0 1.49 0 2.23 0.1 0.36 0 2.12 -0.14 3.22 -0.19a0.24 0.24 0 0 0 0.15 0c0.73 0 1.44 0.13 2.16 0.13 0.42 0 0.84 0 1.26 -0.07 0.63 -0.06 1.24 -0.15 1.89 -0.16a0.38 0.38 0 0 0 0.41 -0.33 0.37 0.37 0 0 0 -0.32 -0.38Z" fill="#4C57E6" fill-rule="evenodd" stroke-width="1"></path>
    <path d="M21.81 12a13.42 13.42 0 0 0 2 -3.48A3.45 3.45 0 0 0 24 7.34a8.4 8.4 0 0 0 -0.15 -1.66 4.85 4.85 0 0 0 -0.32 -1.11 4.19 4.19 0 0 0 -0.62 -1A4.51 4.51 0 0 0 19.72 2a5.13 5.13 0 0 0 -3.4 1 7.59 7.59 0 0 0 -0.68 0.57 4.48 4.48 0 0 0 -0.36 0.4c-0.17 -0.12 -0.35 -0.23 -0.43 -0.3a8 8 0 0 0 -2.21 -1.34 4.6 4.6 0 0 0 -1.81 -0.3 4.1 4.1 0 0 0 -3.28 1.85 5.78 5.78 0 0 0 -1 3.52A7.69 7.69 0 0 0 9.07 12a22 22 0 0 0 4.06 3.14c0.68 0.45 1.36 0 0.93 -0.32a18.32 18.32 0 0 1 -4.34 -3.44 6.67 6.67 0 0 1 -2.05 -4 4.62 4.62 0 0 1 0.85 -2.79 3 3 0 0 1 2.37 -1.27 3.64 3.64 0 0 1 1.63 0.37 7.55 7.55 0 0 1 1.52 1c0.17 0.15 0.44 0.54 0.69 0.75a1.5 1.5 0 0 0 0.43 0.27 0.71 0.71 0 0 0 0.84 -0.24 1.09 1.09 0 0 0 0.2 -0.47c0 -0.07 0.05 -0.22 0.06 -0.26a3.92 3.92 0 0 1 0.34 -0.37c0.15 -0.14 0.31 -0.26 0.48 -0.39a3.93 3.93 0 0 1 2.57 -0.82 3.37 3.37 0 0 1 2.4 1.12 2.92 2.92 0 0 1 0.47 0.71 3.48 3.48 0 0 1 0.26 0.83A8.11 8.11 0 0 1 23 7.33a2.71 2.71 0 0 1 -0.13 0.86 12.67 12.67 0 0 1 -2.33 4A18.41 18.41 0 0 1 18 14.6c-0.33 0.33 0.18 0.83 0.9 0.25A17.66 17.66 0 0 0 21.81 12Z" fill="#020202" fill-rule="evenodd" stroke-width="1"></path>
    <path d="M9.54 6.51a0.37 0.37 0 0 0 0.46 -0.34 1.61 1.61 0 0 1 0.21 -0.3l1.17 -1a0.34 0.34 0 0 0 0.27 -0.39 0.32 0.32 0 0 0 -0.38 -0.26 2.24 2.24 0 0 0 -1.06 0.1 1.46 1.46 0 0 0 -0.41 0.25 1.26 1.26 0 0 0 -0.22 0.24 1.77 1.77 0 0 0 -0.37 1.29 0.38 0.38 0 0 0 0.33 0.41Z" fill="#020202" fill-rule="evenodd" stroke-width="1"></path>
    <path d="M9.66 9.89a3 3 0 0 0 0.41 0.53 5.5 5.5 0 0 0 1.2 0.93 0.38 0.38 0 0 0 0.48 -0.58 7.79 7.79 0 0 1 -1 -1.47c-0.09 -0.16 -0.18 -0.32 -0.28 -0.48s-0.21 -0.31 -0.3 -0.48a4.09 4.09 0 0 1 -0.29 -0.68 0.33 0.33 0 1 0 -0.66 0.06 4.05 4.05 0 0 0 0.13 1.56 2.4 2.4 0 0 0 0.31 0.61Z" fill="#020202" fill-rule="evenodd" stroke-width="1"></path>
  </g>
</svg>