<svg xmlns="http://www.w3.org/2000/svg" viewBox="0 0 24 24" id="Monitor-Heart-Rate--Streamline-Freehand">
  <desc>
    Monitor Heart Rate Streamline Icon: https://streamlinehq.com
  </desc>
  <g>
    <path d="M24 19.42c-0.26 -0.67 -0.43 -1.05 -0.54 -1.45a6.15 6.15 0 0 1 -0.18 -1.48 37.31 37.31 0 0 0 -0.28 -4.21 5.09 5.09 0 0 0 -0.66 -1.88 1.16 1.16 0 0 0 -1.74 -0.29 1.87 1.87 0 0 0 -0.76 2 2.24 2.24 0 0 1 0 1.09 5.17 5.17 0 0 1 -0.39 1.17 2.14 2.14 0 0 0 -0.15 1.52 2.65 2.65 0 0 0 0.79 1.21 0.31 0.31 0 1 0 0.45 -0.44 2 2 0 0 1 -0.52 -0.94 1.37 1.37 0 0 1 0.19 -1 5.75 5.75 0 0 0 0.66 -1.62 3.24 3.24 0 0 0 0 -1.28 0.75 0.75 0 0 1 0.07 -0.4 1 1 0 0 1 0.11 -0.17l0.11 -0.11 0.12 -0.08a4.22 4.22 0 0 1 0.5 1.44c0.25 1.22 0.33 2.69 0.48 4.06a7 7 0 0 0 0.33 1.66c0.15 0.41 0.35 0.79 0.67 1.49a0.36 0.36 0 1 0 0.66 -0.29Z" fill="#020202" fill-rule="evenodd" stroke-width="1"></path>
    <path d="M20.57 5.4c-0.37 -2.81 -0.16 -1.91 -2.4 -2.15 -1 -0.11 -2 -0.29 -3 -0.35s-2.17 -0.11 -3.33 -0.11c-1.66 0 -3.33 0.1 -5 0.16C5.64 3 4.3 3 3 3.22a10.13 10.13 0 0 0 -2.56 0.66 0.35 0.35 0 0 0 -0.21 0.46 0.33 0.33 0 0 0 0.15 0.16A41.2 41.2 0 0 0 0 9.31c0 0.73 0 1.47 0.06 2.2s0.11 1.45 0.2 2.18c0.2 1.69 0.5 3.36 0.82 5a0.36 0.36 0 0 0 0.41 0.3 0.18 0.18 0 0 0 0.07 0.01c1.81 0.1 3.6 0.31 5.4 0.45 1.21 0.1 2.41 0.17 3.62 0.2 2 0.06 4.05 0 6.07 -0.11l0.09 0c0.03 0 0.17 0.18 0.26 0.26a2.89 2.89 0 0 0 0.51 0.35c0.21 0.11 0.45 0.17 0.68 0.31a1.58 1.58 0 0 1 0.39 0.24 3.68 3.68 0 0 1 0.39 0.4 0.38 0.38 0 0 0 0.5 0.11 0.36 0.36 0 0 0 0.11 -0.5 4 4 0 0 0 -0.36 -0.71 2.5 2.5 0 0 0 -0.4 -0.47 3.94 3.94 0 0 0 -0.44 -0.31 4 4 0 0 0 -0.53 -0.23 2.51 2.51 0 0 1 -1 -0.44 0.3 0.3 0 0 0 -0.52 0.3c-1.69 -0.05 -3.37 -0.18 -5 -0.29 -1.2 -0.08 -2.41 -0.17 -3.61 -0.21 -2 -0.07 -3.92 0 -5.88 0.05 -0.2 -1.92 -0.33 -3.84 -0.44 -5.77 0 -0.8 -0.09 -1.6 -0.13 -2.4 0 -0.54 -0.06 -1.07 -0.09 -1.61 -0.13 -1.41 -0.18 -2.78 -0.12 -4.16a10.5 10.5 0 0 1 2 -0.37c1.28 -0.09 2.59 0 3.79 0s2.21 0 3.32 -0.05L12.69 4l2.47 -0.08c1.14 0 2.26 0.1 3.39 0.11h0.88l0.11 -0.05c0 0.51 -0.1 1 -0.13 1.53l0 0.79c0 0.26 0 0.53 0.06 0.79 0.06 0.63 0.16 1.23 0.23 1.86a0.34 0.34 0 0 0 0.36 0.35 0.36 0.36 0 0 0 0.36 -0.36c0.06 -0.63 0.14 -1.24 0.18 -1.87l0 -0.81c0 -0.27 0 -0.59 -0.03 -0.86Z" fill="#020202" fill-rule="evenodd" stroke-width="1"></path>
    <path d="M5.25 11.82a3 3 0 0 0 0.75 0 1 1 0 0 0 0.54 -0.39c0.16 -0.22 0.31 -0.46 0.45 -0.7s0.25 -0.44 0.37 -0.66a0.2 0.2 0 0 1 0 0.09l0.78 2.72 0.34 1.12 0.09 0.37a2.28 2.28 0 0 0 0.14 0.42 0.61 0.61 0 0 0 1 -0.08 10.93 10.93 0 0 0 0.66 -1.48c0.39 -1.13 0.65 -2.34 1 -3.44l0.36 -1.09c0 0.15 0.08 0.3 0.11 0.45 0.1 0.47 0.18 0.94 0.28 1.41 0 0.13 0 0.49 0.11 0.72a0.76 0.76 0 0 0 0.17 0.35 1.09 1.09 0 0 0 0.64 0.29 6.72 6.72 0 0 0 1.08 0l1.23 -0.09a0.36 0.36 0 1 0 -0.09 -0.71l-1.11 0 -0.73 0a1.49 1.49 0 0 1 -0.33 0c0.13 -0.11 -0.08 -0.59 -0.1 -0.71 -0.08 -0.47 -0.13 -1 -0.22 -1.43a6.46 6.46 0 0 0 -0.22 -1 4.63 4.63 0 0 0 -0.25 -0.7 1.24 1.24 0 0 0 -0.3 -0.43 0.65 0.65 0 0 0 -0.8 0.26l-0.2 0.47 -0.68 1.81c-0.34 1 -0.61 2.13 -1 3.18q-0.25 -0.82 -0.54 -1.65c-0.13 -0.37 -0.26 -0.73 -0.41 -1.1A7.49 7.49 0 0 0 8 9.05a1.11 1.11 0 0 0 -0.39 -0.43 0.5 0.5 0 0 0 -0.61 0.15 3.25 3.25 0 0 0 -0.18 0.5c-0.17 0.34 -0.33 0.7 -0.5 1.05a6.44 6.44 0 0 1 -0.36 0.63c-0.06 0.09 -0.1 0.13 -0.17 0.14s-0.3 0 -0.5 0l-0.74 0.06c-0.35 0.29 -0.4 0.53 0 0.68Z" fill="#020202" fill-rule="evenodd" stroke-width="1"></path>
    <path d="M16.13 5.25c-0.56 0 -1.13 -0.08 -1.69 -0.1l-2.52 -0.06 -2.19 0c-0.73 0 -1.47 0 -2.2 0.08 -5.89 0.36 -4.83 -0.71 -5.24 4.33 0 0.56 -0.07 1.12 -0.07 1.67s0 1.12 0.06 1.68a24 24 0 0 0 0.59 3.87 0.35 0.35 0 0 0 0.41 0.29 0.33 0.33 0 0 0 0.24 0.05A7.43 7.43 0 0 1 5 17c0.75 0 1.5 0.11 2.23 0.14l1.35 0 2 0c1.7 -0.06 3.39 -0.17 5.09 -0.24a0.36 0.36 0 0 0 0 -0.72c-1.71 -0.09 -3.4 -0.2 -5.11 -0.23l-2 0 -1.38 0.05c-0.74 0.06 -1.49 0.07 -2.24 0.14a9 9 0 0 0 -1.38 0.24c-0.08 -0.65 -0.13 -1.3 -0.15 -2 -0.05 -1.48 0 -0.52 0 -4.33l0 -3.86c1.66 0 3.34 0.06 5 0.06 1.18 0 2.35 -0.07 3.51 -0.11 1 -0.06 1.94 -0.15 2.92 -0.19l1.24 0a0.34 0.34 0 0 0 0.37 -0.34 0.35 0.35 0 0 0 -0.32 -0.36Z" fill="#4C57E6" fill-rule="evenodd" stroke-width="1"></path>
    <path d="M16.86 10.23c0 0.59 0.06 1.19 0.12 1.78 0.13 1.36 0.33 2.71 0.4 4.09a0.36 0.36 0 0 0 0.35 0.36 0.37 0.37 0 0 0 0.37 -0.36c0.06 -1 0.09 -2 0.07 -3s-0.08 -2 -0.1 -2.95 -0.14 -1.9 -0.24 -2.86a18 18 0 0 0 -0.31 -1.93 0.32 0.32 0 0 0 -0.37 -0.26 0.32 0.32 0 0 0 -0.26 0.36 13.1 13.1 0 0 1 0.05 1.4c0 0.78 -0.07 1.55 -0.09 2.33 -0.01 0.36 0 0.7 0.01 1.04Z" fill="#4C57E6" fill-rule="evenodd" stroke-width="1"></path>
  </g>
</svg>