<svg xmlns="http://www.w3.org/2000/svg" viewBox="0 0 24 24" id="Monitor-Warning--Streamline-Freehand">
  <desc>
    Monitor Warning Streamline Icon: https://streamlinehq.com
  </desc>
  <g>
    <path d="M23.64 5.84c-0.12 -1.09 -0.07 -3.26 -0.92 -3.87 -1.9 -1.36 -6 -1 -8.8 -1.09 -3.47 -0.12 -7.21 0.12 -10.61 0.25a0.34 0.34 0 0 0 0 0.68c3.47 -0.05 7.06 -0.27 10.57 -0.09 2.42 0.13 6.67 -0.13 8.25 1.05 0.39 0.28 0.39 2.43 0.47 3.18a34.83 34.83 0 0 1 0.07 8.1 12 12 0 0 1 -0.44 2.64c-2.46 1.25 -19.7 2.21 -20.73 0.55a17.79 17.79 0 0 1 -0.62 -4.14 36.08 36.08 0 0 1 0.22 -7.72c0 -0.47 0.1 -0.94 0.17 -1.42a6.53 6.53 0 0 1 0.2 -1.73 0.3 0.3 0 1 0 -0.41 -0.43C0.64 2.19 0.72 3.42 0.64 3.86S0.5 4.83 0.45 5.32A37.61 37.61 0 0 0 0.13 14a14.14 14.14 0 0 0 0.61 3.67c0.83 1.41 6.32 1.46 8 1.48a4.23 4.23 0 0 0 -0.89 3c-0.77 0.05 -1.49 0.12 -2.16 0.15a0.3 0.3 0 0 0 0 0.6 74.2 74.2 0 0 0 12.1 -0.13 0.34 0.34 0 0 0 0 -0.67l-1.84 0a9.39 9.39 0 0 0 -1 -3.16 45.07 45.07 0 0 0 6.75 -0.88c1.46 -0.36 1.72 -0.74 1.91 -1.8a33.68 33.68 0 0 0 0.03 -10.42Zm-8.51 16.28c-2.72 -0.06 -4.2 -0.09 -6.54 0 0.15 -0.38 0.4 -0.92 0.51 -1.29a10.27 10.27 0 0 0 0.29 -1.65c0 -0.12 0.13 0.09 4.68 -0.18a6.81 6.81 0 0 0 1.06 3.12Z" fill="#020202" fill-rule="evenodd" stroke-width="1"></path>
    <path d="M10.83 13.14a1 1 0 0 0 1.52 -0.06 1 1 0 0 0 -0.26 -1.26c-0.94 -0.5 -2.09 0.47 -1.26 1.32Z" fill="#020202" fill-rule="evenodd" stroke-width="1"></path>
    <path d="M12.34 3.8c-0.85 -0.38 -2 0.83 -2.56 1.55 -1.62 1.92 -4.41 6.58 -4.45 7.83a1.68 1.68 0 0 0 1.16 1.65 9.83 9.83 0 0 0 2.9 0.8c1.48 0.19 5.24 0.23 6.61 -0.38A2.12 2.12 0 0 0 17.39 13a30.06 30.06 0 0 0 -2.86 -6.69 9.77 9.77 0 0 0 -1.08 -1.49c-1.16 -0.52 0.17 1.37 0.45 1.86a30.16 30.16 0 0 1 2.52 6.44 1 1 0 0 1 -0.06 0.55 1.48 1.48 0 0 1 -0.78 0.66c-1 0.43 -4.59 0.4 -6.05 0.22A9.45 9.45 0 0 1 7 13.82c-1.09 -0.49 -0.27 -1.44 0.19 -2.54a34.12 34.12 0 0 1 2.6 -4.76c0.37 -0.53 1.72 -2.41 2.32 -2.17a0.3 0.3 0 0 0 0.23 -0.55Z" fill="#4C57E6" fill-rule="evenodd" stroke-width="1"></path>
    <path d="M12.12 8.35a8 8 0 0 0 -0.38 -1.61c-0.08 -0.12 -0.41 -0.23 -0.56 0.2 0 0.14 -0.16 0.78 -0.19 0.93a8.35 8.35 0 0 0 0.4 2.48c0.61 0.33 0.82 -1.27 0.73 -2Z" fill="#020202" fill-rule="evenodd" stroke-width="1"></path>
  </g>
</svg>