<svg xmlns="http://www.w3.org/2000/svg" viewBox="0 0 24 24" id="Monitor-Heart-Rate-Up--Streamline-Freehand">
  <desc>
    Monitor Heart Rate Up Streamline Icon: https://streamlinehq.com
  </desc>
  <g>
    <path d="M4.39 14.37a11.24 11.24 0 0 0 3.25 2 0.28 0.28 0 0 0 0.36 -0.19 0.28 0.28 0 0 0 -0.14 -0.37 10.53 10.53 0 0 1 -3 -1.93 8.71 8.71 0 0 1 -2 -2.93 7.3 7.3 0 0 1 -0.3 -4.56 4.09 4.09 0 0 1 2.72 -3.17 1.4 1.4 0 0 1 1.21 0.34A6.13 6.13 0 0 1 8 5.46l0.45 1 0.13 0.44c0 0.06 0 0.23 0.05 0.27a0.51 0.51 0 0 0 0.84 0.29 0.54 0.54 0 0 0 0.21 -0.35 16.54 16.54 0 0 1 0.55 -2.5 3.25 3.25 0 0 1 0.81 -1.27 2.58 2.58 0 0 1 3.48 -0.1 4.71 4.71 0 0 1 1.82 3.53A6.65 6.65 0 0 1 16 9.33a13.51 13.51 0 0 1 -1.17 2.41 0.32 0.32 0 0 0 0.11 0.44 0.31 0.31 0 0 0 0.44 -0.11 12.71 12.71 0 0 0 1.47 -3 7.71 7.71 0 0 0 0.33 -2.28A5.46 5.46 0 0 0 14.26 2a3.41 3.41 0 0 0 -3.85 0.59 4.18 4.18 0 0 0 -1.12 1.65 7.1 7.1 0 0 0 -0.29 0.82l0 -0.12a7.34 7.34 0 0 0 -1.87 -2.25A2.48 2.48 0 0 0 5 2.19a4.77 4.77 0 0 0 -3.05 3 8.15 8.15 0 0 0 0.19 6.12 9.4 9.4 0 0 0 2.25 3.06Z" fill="#020202" stroke-width="1"></path>
    <path d="M24 10.77c-0.14 -0.81 -0.08 -1.91 -0.26 -2.85a3.63 3.63 0 0 0 -0.54 -1.32 0.66 0.66 0 0 0 -0.61 -0.22 10.06 10.06 0 0 0 -1.09 0.32 15.69 15.69 0 0 0 -1.44 0.64 21.57 21.57 0 0 0 -2 1.17 0.28 0.28 0 0 0 -0.11 0.38 0.27 0.27 0 0 0 0.38 0.11c0.58 -0.25 1.16 -0.49 1.75 -0.71s1.16 -0.4 1.77 -0.56l0.2 -0.11c-0.3 0.48 -0.58 1 -0.84 1.42 -0.87 1.56 -1.59 3 -2.58 4.77 -0.16 0.28 -0.43 0.88 -0.75 1.37l-0.2 0.31A4.07 4.07 0 0 0 17 15a15.68 15.68 0 0 0 -2.17 -1.78 1.88 1.88 0 0 0 -1.57 -0.3 1.86 1.86 0 0 0 -0.7 0.63c-0.33 0.44 -0.66 1.07 -0.83 1.33 -0.55 0.84 -1.13 1.86 -1.8 2.72a5 5 0 0 1 -1.47 1.34c-0.19 0.1 -0.39 -0.06 -0.63 -0.22 -0.69 -0.47 -1.46 -1.34 -2.19 -1.86a2.59 2.59 0 0 0 -1.13 -0.5 1.09 1.09 0 0 0 -0.83 0.26 5.21 5.21 0 0 0 -0.89 1.15L0.06 21.9a0.27 0.27 0 0 0 0.05 0.39 0.28 0.28 0 0 0 0.4 -0.06l2.87 -4.05a6.44 6.44 0 0 1 0.62 -0.87 0.42 0.42 0 0 1 0.35 -0.16 2.63 2.63 0 0 1 1.15 0.76 16.76 16.76 0 0 0 1.91 1.71 1.42 1.42 0 0 0 1.46 0.19 5.88 5.88 0 0 0 1.83 -1.57c0.71 -0.88 1.31 -1.93 1.88 -2.8 0.14 -0.22 0.4 -0.71 0.68 -1.12 0.13 -0.19 0.23 -0.39 0.34 -0.44a0.43 0.43 0 0 1 0.24 0 2.93 2.93 0 0 1 0.69 0.37 19.13 19.13 0 0 1 1.76 1.44c0.07 0 0.57 0.59 0.8 0.77a0.61 0.61 0 0 0 0.53 0.13 1.7 1.7 0 0 0 0.83 -0.71 15.2 15.2 0 0 0 0.89 -1.69c0.98 -1.73 1.66 -3.19 2.48 -4.81 0.26 -0.5 0.54 -1 0.84 -1.54 0 0.1 0.08 0.21 0.11 0.31 0.28 0.91 0.36 2 0.6 2.77a0.32 0.32 0 1 0 0.62 -0.15Z" fill="#4C57E6" stroke-width="1"></path>
  </g>
</svg>