<svg xmlns="http://www.w3.org/2000/svg" viewBox="0 0 24 24" id="Mood-Happy--Streamline-Freehand">
  <desc>
    Mood Happy Streamline Icon: https://streamlinehq.com
  </desc>
  <g>
    <path d="M22.74 5.92A11 11 0 0 0 16.39 0.78 16.22 16.22 0 0 0 8.48 0.35a9.93 9.93 0 0 0 -6.63 4.32A10.94 10.94 0 0 0 0 11.51a12.63 12.63 0 0 0 1.9 5.32 4 4 0 0 1 0.57 1.07c0 0.3 -1.24 2.74 -2 4.42a11.39 11.39 0 0 0 -0.46 1.2 0.35 0.35 0 0 0 0.08 0.35 0.28 0.28 0 0 0 0.32 0.07c0.62 -0.24 3.12 -1.74 5 -2.79 0.69 -0.38 1.3 -0.7 1.7 -0.87 0.13 -0.05 0.27 0 0.29 -0.09 1.54 0.39 6.9 1.64 11.12 -0.34A9.13 9.13 0 0 0 23.51 14a10.36 10.36 0 0 0 -0.77 -8.08Zm-0.26 7.8A8.09 8.09 0 0 1 18.2 19c-4 2 -9.23 0.75 -10.58 0.43a0.69 0.69 0 0 0 -0.37 0 9.71 9.71 0 0 0 -1.4 0.67c-1.48 0.81 -3.68 2.16 -4.88 2.84H1c0.56 -1.32 1.58 -3.31 2 -4.31a2.72 2.72 0 0 0 0.23 -0.74 4.76 4.76 0 0 0 -0.64 -1.41 11.7 11.7 0 0 1 -1.7 -5A10 10 0 0 1 2.67 5.2a8.94 8.94 0 0 1 6 -3.76 15.24 15.24 0 0 1 7.33 0.44 9.82 9.82 0 0 1 5.69 4.59 9.29 9.29 0 0 1 0.79 7.25Z" fill="#4C57E6" fill-rule="evenodd" stroke-width="1"></path>
    <path d="M17.6 10.93a9.14 9.14 0 0 0 -1 0 85.23 85.23 0 0 0 -9.44 1.25 0.37 0.37 0 0 0 -0.27 -0.09 0.36 0.36 0 0 0 -0.31 0.37 0.3 0.3 0 0 0 0 0.23 0.41 0.41 0 0 0 0 0.09 6.18 6.18 0 0 0 1.67 4.06c1 0.87 2.42 1.28 4.6 1.15a5.74 5.74 0 0 0 4.26 -2 6 6 0 0 0 1.13 -4.58 0.63 0.63 0 0 0 -0.64 -0.48Zm-1.39 4.37a4.76 4.76 0 0 1 -3.44 1.7c-1.85 0.18 -3.11 0 -3.95 -0.76a5.29 5.29 0 0 1 -1.54 -3.41 91 91 0 0 1 9.34 -0.76 3.08 3.08 0 0 0 0.54 -0.06 4.87 4.87 0 0 1 -0.95 3.29Z" fill="#020202" fill-rule="evenodd" stroke-width="1"></path>
    <path d="M7.27 9.07a1.91 1.91 0 0 0 1.79 -0.39c0.58 -0.6 0.34 -1.38 -0.32 -1.93 -0.19 -0.16 -1.26 0.16 -1.49 0.31 -0.74 0.51 -0.96 1.7 0.02 2.01Z" fill="#020202" fill-rule="evenodd" stroke-width="1"></path>
    <path d="M15 8.71A1.79 1.79 0 0 0 17.06 8c0.86 -1.31 -1.4 -2.52 -2.38 -1.57A1.27 1.27 0 0 0 15 8.71Z" fill="#020202" fill-rule="evenodd" stroke-width="1"></path>
  </g>
</svg>