<svg xmlns="http://www.w3.org/2000/svg" viewBox="0 0 24 24" id="Mouse-Cheese--Streamline-Freehand">
  <desc>
    Mouse Cheese Streamline Icon: https://streamlinehq.com
  </desc>
  <g>
    <path d="M12.48 20.44a2 2 0 0 1 0.88 -0.4 1.54 1.54 0 0 1 0.91 0.11 1.78 1.78 0 0 1 0.72 0.54 5.56 5.56 0 0 1 0.77 1.42 0.32 0.32 0 0 0 0.4 0.19 0.31 0.31 0 0 0 0.2 -0.4 6.81 6.81 0 0 0 -0.66 -1.71 2.69 2.69 0 0 0 -1 -1 2.41 2.41 0 0 0 -1.53 -0.19 2.49 2.49 0 0 0 -1.34 0.72 2.35 2.35 0 0 0 -0.83 1.92c0 0.62 0.59 0.51 0.68 0.25a1.87 1.87 0 0 1 0.8 -1.45Z" fill="#4C57E6" fill-rule="evenodd" stroke-width="1"></path>
    <path d="M24 16.55a1.63 1.63 0 0 0 -0.6 -0.88 3.61 3.61 0 0 0 -1.37 -0.6 4.29 4.29 0 0 0 -0.5 -0.07 3.18 3.18 0 0 0 0.37 -0.68 5 5 0 0 0 0.33 -1.59 7.83 7.83 0 0 0 -0.1 -1.59l-0.27 -1 -0.47 -1 -0.63 -1.23a2 2 0 0 0 2.36 -2 2.61 2.61 0 0 0 -2 -3 2 2 0 0 0 -1.2 0.09c-0.6 0.21 -1.11 0.69 -1.7 0.94l-0.09 0a1.07 1.07 0 0 0 -0.32 -0.08l-0.57 0a7.22 7.22 0 0 0 -0.93 0 2.19 2.19 0 0 1 0 -0.36 1.63 1.63 0 0 1 0.06 -0.5 1.76 1.76 0 0 1 0.38 -0.64 1.32 1.32 0 0 1 0.84 -0.45 1.55 1.55 0 0 1 1.55 0.8 0.31 0.31 0 0 0 0.41 0.16 0.32 0.32 0 0 0 0.17 -0.42A2.28 2.28 0 0 0 17.51 0.82a2 2 0 0 0 -1.39 0.63 2.32 2.32 0 0 0 -0.56 1.34 2.67 2.67 0 0 0 0 0.69 3.17 3.17 0 0 0 0.12 0.41 3.1 3.1 0 0 0 -0.73 0.23 3.11 3.11 0 0 0 -1.56 2.16A1.75 1.75 0 0 0 14 8a2.73 2.73 0 0 0 1 0.47 1.29 1.29 0 0 0 -0.17 0.16 0.71 0.71 0 0 0 -0.13 0.22 1.22 1.22 0 0 0 -0.06 0.26 1.91 1.91 0 0 0 0 0.54 6 6 0 0 0 -3.27 -1.1 1.6 1.6 0 0 0 -0.66 0.18c-0.34 0.15 -0.7 0.41 -1 0.52 -0.71 0.39 -1.45 0.75 -2.19 1.09L6 11.1c-1 0.56 -2.24 1 -3.32 1.65C0.43 14.05 0.32 14.38 0.1 16.54A28.86 28.86 0 0 0 0 20l0 1.3a1.35 1.35 0 0 0 0.29 0.79 1.47 1.47 0 0 0 0.44 0.31 5.65 5.65 0 0 0 0.89 0.26 15.09 15.09 0 0 0 1.9 0.33 18.09 18.09 0 0 0 1.93 0.1c2.83 -0.06 5.66 0.11 8.49 0.08 1.23 0 2.45 -0.07 3.67 -0.19a0.29 0.29 0 0 0 0.25 -0.19 0.3 0.3 0 0 0 0.31 -0.23 3.85 3.85 0 0 0 0.09 -0.62l0 -1.35c0.05 -0.77 0.07 -1.55 0.08 -2.32s0 -1.56 -0.09 -2.34c0 -0.42 0.05 -1 0 -1.54a2.78 2.78 0 0 0 -0.16 -0.82s-2.41 -3 -3 -3.5a0.29 0.29 0 0 0 0.12 -0.23c0.06 -0.15 0.19 -0.23 0.28 -0.38a1.64 1.64 0 0 0 0.14 -0.3 1.81 1.81 0 0 0 0 -0.51c0.47 0.06 1 0.09 1.38 0.17a0.29 0.29 0 0 0 0.34 -0.22 0.28 0.28 0 0 0 -0.22 -0.33c-0.55 -0.13 -1.2 -0.18 -1.8 -0.35a2.14 2.14 0 0 1 -0.94 -0.47 1.12 1.12 0 0 1 -0.15 -1.31 2.06 2.06 0 0 1 1 -1.09 3 3 0 0 1 0.84 -0.2 4.82 4.82 0 0 1 0.93 0l0.58 0.06a1.51 1.51 0 0 0 0.51 0.09 0.48 0.48 0 0 0 0.27 0c0.68 -0.23 1.24 -0.79 1.91 -1a1.24 1.24 0 0 1 0.64 -0.08 1.71 1.71 0 0 1 1.36 1.92c0 0.89 -0.63 1.71 -1.71 1.43 -0.21 -0.06 -0.63 0.29 -0.53 0.54l0.56 1.69 0.29 1 0.15 0.88a9.48 9.48 0 0 1 0.12 1.39 5.43 5.43 0 0 1 -0.16 1.28 1.84 1.84 0 0 1 -1 1.26 0.33 0.33 0 0 0 -0.2 0.4 0.31 0.31 0 0 0 0.4 0.2 1.84 1.84 0 0 0 0.66 -0.32 3.66 3.66 0 0 1 0.86 0.18 2.69 2.69 0 0 1 1 0.6 0.66 0.66 0 0 1 0.19 0.38 0.32 0.32 0 0 1 -0.1 0.28 0.86 0.86 0 0 1 -0.3 0.23 3.62 3.62 0 0 1 -0.45 0.2c-0.49 0.18 -1 0.24 -1.48 0.46a2.43 2.43 0 0 0 -0.67 0.44 1.44 1.44 0 0 0 -0.28 1.64 1.76 1.76 0 0 0 1.16 1 0.32 0.32 0 0 0 0.4 -0.22 0.31 0.31 0 0 0 -0.22 -0.39 1 1 0 0 1 -0.62 -0.67 0.65 0.65 0 0 1 0.22 -0.7 1.65 1.65 0 0 1 0.44 -0.22c0.46 -0.17 1 -0.2 1.45 -0.35a3.49 3.49 0 0 0 0.76 -0.35 2 2 0 0 0 0.49 -0.43 1.43 1.43 0 0 0 0.29 -1.12Zm-6.61 -2.09 0 1.57c0.09 0.75 0.14 1.5 0.18 2.26s0 1.52 0 2.28l0 1.35a2.12 2.12 0 0 1 -0.05 0.44c-1.2 0.06 -2.4 0.06 -3.6 0 -2.15 -0.06 -5.93 -0.33 -8.5 -0.36 -0.6 0 -1.21 0 -1.81 -0.09a14.84 14.84 0 0 1 -1.79 -0.28c-0.67 -0.13 -0.91 0 -0.95 -0.78l0 -0.92a25 25 0 0 1 -0.12 -3.37 11.41 11.41 0 0 1 0.15 -1.31 0.45 0.45 0 0 0 0.11 0 6.4 6.4 0 0 1 1.08 -0.06c0.33 0 2.31 0.07 2.64 0.06 1.8 -0.07 3.59 -0.16 5.38 -0.32 1.19 -0.1 2.38 -0.25 3.57 -0.39l3.14 -0.23 0.5 -0.06s0.03 0.16 0.04 0.21Zm-0.45 -1.13h-0.13l-1.91 0.07c-0.44 0 -0.87 0.06 -1.3 0.12 -1.78 0.25 -3.55 0.46 -5.32 0.65 -1.18 0.14 -2.37 0.27 -3.55 0.38 -0.86 0.08 -1.74 0 -2.6 0.07a9.28 9.28 0 0 0 -1.13 0.12s0 0 0.06 0a7 7 0 0 1 1.95 -1.31c1.11 -0.54 2.34 -0.92 3.42 -1.41 0 0 4.08 -2.17 5 -2.5 0.12 0 0.2 0 0.93 0.19a11.35 11.35 0 0 1 2.2 1 8.31 8.31 0 0 1 2.35 2.62Z" fill="#020202" fill-rule="evenodd" stroke-width="1"></path>
    <path d="M9 12.94a2.39 2.39 0 0 0 1.5 0.06 2.13 2.13 0 0 0 0.81 -0.46 2.66 2.66 0 0 0 0.69 -1.05A2 2 0 0 0 12 10c-0.27 -0.29 -0.82 -0.19 -0.74 0.14a0.93 0.93 0 0 1 0 0.77 1.91 1.91 0 0 1 -0.48 0.7 1.43 1.43 0 0 1 -0.65 0.44A1.65 1.65 0 0 1 9 12a3.48 3.48 0 0 1 -0.79 -0.41c-0.27 -0.28 -0.79 0.07 -0.64 0.3A3.73 3.73 0 0 0 9 12.94Z" fill="#4C57E6" fill-rule="evenodd" stroke-width="1"></path>
    <path d="m7.53 15.26 0.3 0a0.28 0.28 0 0 0 -0.3 0Z" fill="#020202" fill-rule="evenodd" stroke-width="1"></path>
    <path d="m7.78 15.27 -0.3 0a0.32 0.32 0 0 0 -0.14 0.37c0.29 0.9 -0.48 1.6 -1.34 1.9a2.12 2.12 0 0 1 -1.49 0 1.45 1.45 0 0 1 -0.72 -0.54 1.4 1.4 0 0 1 -0.15 -0.3 1.28 1.28 0 0 1 -0.06 -0.34c0 -1.18 -0.68 -0.95 -0.77 0a2.44 2.44 0 0 0 0 0.54 1.82 1.82 0 0 0 0.15 0.54 2.22 2.22 0 0 0 1.09 1.16 2.85 2.85 0 0 0 2.29 0c1.26 -0.53 2.17 -1.81 1.58 -3.09a0.33 0.33 0 0 0 -0.14 -0.24Z" fill="#4C57E6" fill-rule="evenodd" stroke-width="1"></path>
    <path d="M17.31 5.64a0.78 0.78 0 0 0 -0.7 0.46c-0.1 0.24 0 0.5 0.4 0.64s0.68 -0.12 0.72 -0.39a0.64 0.64 0 0 0 -0.42 -0.71Z" fill="#020202" fill-rule="evenodd" stroke-width="1"></path>
  </g>
</svg>