<svg xmlns="http://www.w3.org/2000/svg" viewBox="0 0 24 24" id="Mouse-Wireless-1--Streamline-Freehand">
  <desc>
    Mouse Wireless 1 Streamline Icon: https://streamlinehq.com
  </desc>
  <g>
    <path d="M17.44 9.31a11.73 11.73 0 0 0 -9.7 -0.61 5.11 5.11 0 0 0 -2.44 2.05 6 6 0 0 0 -0.76 3.06s0 0.06 0 0.09c-0.37 1.41 3.85 5 6.32 6.67a16.72 16.72 0 0 0 5.56 2.55 6.33 6.33 0 0 0 5.21 -1.46 5.73 5.73 0 0 0 2.31 -5c-0.51 -2.82 -3.12 -5.66 -6.5 -7.35Zm3.37 11.36A5.1 5.1 0 0 1 16.65 22a17 17 0 0 1 -6.46 -3A28.93 28.93 0 0 1 5 14.2a0.38 0.38 0 0 0 0.37 -0.38A5.14 5.14 0 0 1 6 11.2a4.11 4.11 0 0 1 2.09 -1.64 10.78 10.78 0 0 1 8.83 0.8c2.95 1.52 5.32 4 5.74 6.55 0.22 1.24 -0.61 2.71 -1.85 3.76Z" fill="#020202" fill-rule="evenodd" stroke-width="1"></path>
    <path d="M4.51 8.07a7 7 0 0 1 1.3 -0.86 5.54 5.54 0 0 1 0.85 -0.41 4 4 0 0 1 1.6 -0.34 0.39 0.39 0 0 0 0.44 -0.33 0.38 0.38 0 0 0 -0.32 -0.44 4.39 4.39 0 0 0 -1.84 -0.16 2.68 2.68 0 0 0 -0.79 0.24 2.53 2.53 0 0 0 -0.69 0.44A5 5 0 0 0 4 7.64a0.34 0.34 0 1 0 0.53 0.43Z" fill="#4C57E6" fill-rule="evenodd" stroke-width="1"></path>
    <path d="M6.5 4.31a4.24 4.24 0 0 1 3 0.17 0.39 0.39 0 1 0 0.37 -0.69A5 5 0 0 0 6.67 3a4.59 4.59 0 0 0 -1.4 0.36A5.28 5.28 0 0 0 4 4.08 9.15 9.15 0 0 0 2 6.5a0.35 0.35 0 0 0 0.05 0.5 0.34 0.34 0 0 0 0.48 -0.07 10 10 0 0 1 2.29 -1.86 6.49 6.49 0 0 1 1.68 -0.76Z" fill="#4C57E6" fill-rule="evenodd" stroke-width="1"></path>
    <path d="M5.14 2.37A10.09 10.09 0 0 1 6.77 2a7.66 7.66 0 0 1 3.88 0.38 0.39 0.39 0 0 0 0.35 -0.7A8.2 8.2 0 0 0 6.65 0.79a7.73 7.73 0 0 0 -1.89 0.33A7.51 7.51 0 0 0 3 1.88a7 7 0 0 0 -3 3.3 0.34 0.34 0 0 0 0.15 0.46 0.35 0.35 0 0 0 0.46 -0.16A6.64 6.64 0 0 1 3.58 3a10.52 10.52 0 0 1 1.56 -0.63Z" fill="#4C57E6" fill-rule="evenodd" stroke-width="1"></path>
    <path d="M12.54 11.58a4.46 4.46 0 0 0 -0.71 -0.52 4.46 4.46 0 0 0 -0.79 -0.39 6.76 6.76 0 0 0 -2 -0.33 0.34 0.34 0 0 0 -0.4 0.28 0.34 0.34 0 0 0 0.28 0.39 8.51 8.51 0 0 1 1.39 0.67l0.47 0.29 0.72 0.42a13.27 13.27 0 0 1 1.81 1.21 0.39 0.39 0 0 0 0.56 -0.55 10.56 10.56 0 0 0 -1.33 -1.47Z" fill="#020202" fill-rule="evenodd" stroke-width="1"></path>
  </g>
</svg>