<svg xmlns="http://www.w3.org/2000/svg" viewBox="0 0 24 24" id="Move-Scroll-Vertical--Streamline-Freehand">
  <desc>
    Move Scroll Vertical Streamline Icon: https://streamlinehq.com
  </desc>
  <g>
    <path d="M12.33 13.56a0.34 0.34 0 0 0 -0.3 0.37 0.33 0.33 0 0 0 0.37 0.31 3 3 0 0 0 2.6 -1.67 3.07 3.07 0 0 0 -0.41 -3.21A3.23 3.23 0 0 0 12 8.24a3.08 3.08 0 0 0 -2.41 1.44 2.93 2.93 0 0 0 -0.43 1.24 3.3 3.3 0 0 0 0.13 1.26 2.46 2.46 0 0 0 0.37 0.81 1.53 1.53 0 0 0 0.47 0.44 0.3 0.3 0 0 0 0.42 -0.08 0.31 0.31 0 0 0 -0.09 -0.42 1 1 0 0 1 -0.31 -0.39A2.05 2.05 0 0 1 10 12a2.4 2.4 0 0 1 0 -0.94 1.81 1.81 0 0 1 0.38 -0.81 2.13 2.13 0 0 1 1.67 -0.86 2.17 2.17 0 0 1 1.71 0.7 2.06 2.06 0 0 1 0.43 2.13 2.22 2.22 0 0 1 -1.86 1.34Z" fill="#4C57E6" fill-rule="evenodd" stroke-width="1"></path>
    <path d="m6.45 6.83 1.43 -1.58c0.67 -0.79 1.5 -1.84 2.39 -2.75a7.29 7.29 0 0 1 1.62 -1.34c0 0.05 0.19 0.05 0.28 0.11a8.93 8.93 0 0 1 1.29 1.1c0.81 0.79 1.59 1.65 1.79 1.86l1.93 2.32a0.34 0.34 0 0 0 0.48 0.06 0.35 0.35 0 0 0 0.06 -0.48l-1.8 -2.49A24.15 24.15 0 0 0 13 0.49a1.59 1.59 0 0 0 -1.5 -0.42 7.2 7.2 0 0 0 -2 1.69 36 36 0 0 0 -2.2 3L6 6.44a0.29 0.29 0 0 0 0 0.42 0.3 0.3 0 0 0 0.45 -0.03Z" fill="#020202" fill-rule="evenodd" stroke-width="1"></path>
    <path d="M17.94 17.39a0.35 0.35 0 0 0 -0.48 0.08 11 11 0 0 1 -0.83 0.93c-0.54 0.55 -1.12 1.09 -1.38 1.36s-1 1.08 -1.79 1.87a9.62 9.62 0 0 1 -1.29 1.1c-0.09 0.05 -0.24 0.06 -0.28 0.1a7.22 7.22 0 0 1 -1.63 -1.33c-0.88 -0.91 -1.71 -2 -2.38 -2.75l-1.4 -1.54a0.31 0.31 0 0 0 -0.42 -0.1 0.32 0.32 0 0 0 -0.1 0.42l1.31 1.69a35.71 35.71 0 0 0 2.19 3 7.34 7.34 0 0 0 2 1.69 1.59 1.59 0 0 0 1.54 -0.4 22.77 22.77 0 0 0 2.88 -3.15c0.28 -0.33 0.93 -1 1.49 -1.69 0.23 -0.28 0.44 -0.56 0.61 -0.8a0.35 0.35 0 0 0 -0.04 -0.48Z" fill="#020202" fill-rule="evenodd" stroke-width="1"></path>
  </g>
</svg>