<svg xmlns="http://www.w3.org/2000/svg" viewBox="0 0 24 24" id="Move-To-Bottom--Streamline-Freehand">
  <desc>
    Move To Bottom Streamline Icon: https://streamlinehq.com
  </desc>
  <g>
    <path d="M2.35 6.6a1.36 1.36 0 0 0 0.78 0.31l1.45 0c1.18 0 2.59 -0.09 3.28 -0.11a1.32 1.32 0 0 0 0.76 -0.23A0.73 0.73 0 0 0 9 6a0.31 0.31 0 0 0 -0.61 0c0 0.08 -0.11 0.09 -0.21 0.12a0.88 0.88 0 0 1 -0.29 0c-0.68 0 -2.09 0 -3.26 -0.12 -0.54 0 -1 -0.07 -1.35 -0.12L3 5.83a20.23 20.23 0 0 1 0 -2.71 9.35 9.35 0 0 1 0.17 -1.71l0.16 -0.17a22.22 22.22 0 0 1 2.38 -0.19l2.36 0c-0.05 0.13 0.23 0.29 0.27 0.5a4.92 4.92 0 0 1 0.07 0.92c0 0.75 -0.05 1.63 -0.05 2.35a0.35 0.35 0 0 0 0.34 0.35 0.35 0.35 0 0 0 0.3 -0.34c0 -0.72 0.13 -1.59 0.16 -2.34a6.22 6.22 0 0 0 0 -1.08 2 2 0 0 0 -0.3 -0.8 1 1 0 0 0 -0.63 -0.46A20.62 20.62 0 0 0 5.68 0a19.45 19.45 0 0 0 -2.55 0.11 1.24 1.24 0 0 0 -0.7 0.36 1.47 1.47 0 0 0 -0.38 0.62 10.08 10.08 0 0 0 -0.22 2.48A17.56 17.56 0 0 0 2 6a1 1 0 0 0 0.35 0.6Z" fill="#020202" fill-rule="evenodd" stroke-width="1"></path>
    <path d="M6.75 15.45a9.82 9.82 0 0 0 1.25 0.21 2 2 0 0 0 0.7 -0.07 0.82 0.82 0 0 0 0.55 -0.68 6.32 6.32 0 0 0 -0.14 -1.57 0.31 0.31 0 0 0 -0.61 0c-0.07 0.37 -0.11 0.91 -0.19 1.17l-1.59 0.27a0.35 0.35 0 0 0 -0.35 0.34 0.35 0.35 0 0 0 0.38 0.33Z" fill="#4C57E6" fill-rule="evenodd" stroke-width="1"></path>
    <path d="M8.75 21.37a0.3 0.3 0 0 0 -0.31 0.3c-0.07 0.36 -0.11 0.9 -0.2 1.17l-1.59 0.26a0.34 0.34 0 0 0 -0.34 0.34 0.35 0.35 0 0 0 0.34 0.35c0.17 0 0.78 0.17 1.29 0.21a2.6 2.6 0 0 0 0.7 -0.07 0.88 0.88 0 0 0 0.55 -0.69A5.88 5.88 0 0 0 9 21.68a0.31 0.31 0 0 0 -0.25 -0.31Z" fill="#4C57E6" fill-rule="evenodd" stroke-width="1"></path>
    <path d="M4.64 14.6c-0.31 -0.06 -0.72 -0.18 -1.1 -0.28 -0.21 -0.05 -0.5 -0.07 -0.49 -0.16S2.83 13 2.83 13a0.35 0.35 0 0 0 -0.35 -0.34 0.34 0.34 0 0 0 -0.33 0.35 8.57 8.57 0 0 0 -0.1 0.95l0 0.64a1 1 0 0 0 1 0.79 6.19 6.19 0 0 0 1.63 -0.15 0.29 0.29 0 0 0 0.3 -0.3 0.3 0.3 0 0 0 -0.34 -0.34Z" fill="#4C57E6" fill-rule="evenodd" stroke-width="1"></path>
    <path d="M4.55 22.93c-0.32 -0.06 -0.89 0 -1.29 -0.07 -0.78 -0.1 -0.53 -1.57 -0.53 -1.57a0.33 0.33 0 0 0 -0.34 -0.29 0.35 0.35 0 0 0 -0.34 0.35c0 0.4 -0.08 0.68 -0.09 0.94s0 0.43 0 0.64a1.07 1.07 0 0 0 1 0.79 5.76 5.76 0 0 0 1.62 -0.14 0.31 0.31 0 1 0 0 -0.61Z" fill="#4C57E6" fill-rule="evenodd" stroke-width="1"></path>
    <path d="M4.6 8.87c-0.59 -0.08 -0.66 -0.13 -0.93 -0.16l-0.44 0A1.14 1.14 0 0 0 2.5 9a1.49 1.49 0 0 0 -0.36 0.63l0 0.58a4.77 4.77 0 0 0 0.09 0.85 0.3 0.3 0 0 0 0.29 0.31 0.31 0.31 0 0 0 0.31 -0.29 4.91 4.91 0 0 1 0.17 -0.6 4 4 0 0 1 0.22 -0.48l0.15 -0.17a2.77 2.77 0 0 1 0.44 -0.12c0.19 0 0.32 0 0.81 -0.11a0.35 0.35 0 0 0 0 -0.69Z" fill="#4C57E6" fill-rule="evenodd" stroke-width="1"></path>
    <path d="M4.5 17.21c-0.59 -0.08 -0.65 -0.13 -0.92 -0.17l-0.44 0a1.14 1.14 0 0 0 -0.73 0.34 1.55 1.55 0 0 0 -0.36 0.63 3.86 3.86 0 0 0 0 0.58 4.55 4.55 0 0 0 0.08 0.85 0.3 0.3 0 0 0 0.29 0.31 0.29 0.29 0 0 0 0.31 -0.29c0.07 -0.27 0.13 -0.45 0.18 -0.6a4.45 4.45 0 0 1 0.25 -0.54l0.15 -0.18 0.41 -0.14a7 7 0 0 0 0.8 -0.11 0.34 0.34 0 0 0 0 -0.68Z" fill="#4C57E6" fill-rule="evenodd" stroke-width="1"></path>
    <path d="M8.69 8.7A9.2 9.2 0 0 0 7 8.8a0.31 0.31 0 0 0 -0.3 0.3 0.3 0.3 0 0 0 0.3 0.31c0.31 0.06 0.77 0.22 1.18 0.33l0.35 0.09a2.3 2.3 0 0 1 0.05 0.41 8.43 8.43 0 0 1 0 0.87 0.34 0.34 0 0 0 0.68 0.11 6.71 6.71 0 0 0 0.34 -1.33 1.51 1.51 0 0 0 -0.14 -0.81 1.06 1.06 0 0 0 -0.77 -0.38Z" fill="#4C57E6" fill-rule="evenodd" stroke-width="1"></path>
    <path d="M8.6 17a7.67 7.67 0 0 0 -1.68 0.1 0.3 0.3 0 1 0 0 0.6c0.31 0.06 0.77 0.23 1.18 0.34l0.35 0.09a3.85 3.85 0 0 1 0 0.4l0 0.87a0.35 0.35 0 0 0 0.28 0.4 0.34 0.34 0 0 0 0.39 -0.28 6.35 6.35 0 0 0 0.31 -1.33 1.61 1.61 0 0 0 -0.13 -0.81 1.07 1.07 0 0 0 -0.7 -0.38Z" fill="#4C57E6" fill-rule="evenodd" stroke-width="1"></path>
    <path d="M22 8.88a8.12 8.12 0 0 0 -0.92 -2.64A15.94 15.94 0 0 0 18.62 3a5.55 5.55 0 0 0 -0.89 -0.69c-0.88 -0.6 -2.08 -1.3 -2.08 -1.3a0.31 0.31 0 0 0 -0.42 0.09 0.32 0.32 0 0 0 0.1 0.42s0.91 0.6 1.7 1.18a8.17 8.17 0 0 1 1 0.83 18.94 18.94 0 0 1 1.86 2.6 7.8 7.8 0 0 1 1 2.88 10.8 10.8 0 0 1 0 3.26 8.9 8.9 0 0 1 -1 3.06 7.81 7.81 0 0 1 -5.14 3.73 0.34 0.34 0 0 0 0.14 0.67 8.56 8.56 0 0 0 5.87 -3.88A9.49 9.49 0 0 0 22 12.49a11.51 11.51 0 0 0 0 -3.61Z" fill="#020202" fill-rule="evenodd" stroke-width="1"></path>
    <path d="M18 21a10.37 10.37 0 0 1 -2.52 -0.39 9.49 9.49 0 0 1 -1.92 -0.67 13.54 13.54 0 0 0 0.58 -1.36 7.72 7.72 0 0 0 0.42 -1.58c0 -0.31 0.11 -1.54 0.14 -2 0 -0.2 0 -0.37 -0.24 -0.42s-0.36 0.21 -0.39 0.35c-0.08 0.46 -0.29 1.61 -0.37 1.9a10.27 10.27 0 0 1 -0.39 1c-0.22 0.51 -0.46 1 -0.73 1.5a2.14 2.14 0 0 0 -0.27 0.65 0.64 0.64 0 0 0 0.26 0.6 6.32 6.32 0 0 0 2.2 0.82 11.2 11.2 0 0 0 3.3 0.22 0.33 0.33 0 0 0 0.32 -0.35A0.35 0.35 0 0 0 18 21Z" fill="#020202" fill-rule="evenodd" stroke-width="1"></path>
  </g>
</svg>