<svg xmlns="http://www.w3.org/2000/svg" viewBox="0 0 24 24" id="Move-Line-Left--Streamline-Freehand">
  <desc>
    Move Line Left Streamline Icon: https://streamlinehq.com
  </desc>
  <g>
    <path d="M21.71 1.13a5.28 5.28 0 0 1 0.1 -1 0.32 0.32 0 0 1 0.44 -0.07 0.31 0.31 0 0 1 0.13 0.31v0.76c0 1.33 0.19 4.14 0.29 7.34 0 1.14 0.06 2.32 0.07 3.5s0 2.13 0 3.15c0 3.09 -0.12 5.86 0 7.35a4.9 4.9 0 0 1 0 1.08 0.36 0.36 0 0 1 -0.14 0.39 0.35 0.35 0 0 1 -0.49 -0.09 6.21 6.21 0 0 1 -0.11 -1.36c-0.09 -1.49 -0.24 -4.26 -0.35 -7.35 0 -1 -0.06 -2.09 -0.07 -3.15s0 -2.37 0 -3.5c-0.02 -3.21 0.09 -6.03 0.13 -7.36Z" fill="#4C57E6" fill-rule="evenodd" stroke-width="1"></path>
    <path d="M1.23 12.05a1.25 1.25 0 0 1 0.18 -0.34 9.88 9.88 0 0 1 0.85 -0.83c1.25 -1.09 3.48 -2.74 3.88 -3.06a0.3 0.3 0 0 1 0.44 0 0.32 0.32 0 0 1 0 0.45L3.42 11.4l-0.36 0.35 3.19 -0.07c0.28 0 1.25 -0.11 2.51 -0.17l1.66 0 1.88 0c2.08 0.06 4 0.17 4.37 0.16A0.36 0.36 0 0 1 17 12a0.35 0.35 0 0 1 -0.33 0.38c-0.45 0 -2.84 0.24 -5.23 0.3l-2.61 0c-1.32 0 -2.33 -0.14 -2.62 -0.16L2.8 12.4c1.1 1.13 3.47 3.43 3.87 3.69a0.35 0.35 0 1 1 -0.35 0.61 41.22 41.22 0 0 1 -4 -3.17 10.36 10.36 0 0 1 -0.87 -0.85 0.79 0.79 0 0 1 -0.22 -0.63Z" fill="#020202" fill-rule="evenodd" stroke-width="1"></path>
  </g>
</svg>