<svg xmlns="http://www.w3.org/2000/svg" viewBox="0 0 24 24" id="Movie-Cinema-Watch--Streamline-Freehand">
  <desc>
    Movie Cinema Watch Streamline Icon: https://streamlinehq.com
  </desc>
  <title>movie-cinema-watch</title>
  <g>
    <path d="M0.73 15.29a3.74 3.74 0 0 0 1 -0.17c0.62 -0.18 1.27 -0.49 1.8 -0.63s1.27 -0.28 1.92 -0.4c1 -0.17 2 -0.31 3 -0.44a30.82 30.82 0 0 1 7.54 -0.19 28.63 28.63 0 0 1 7.26 1.71 0.35 0.35 0 0 0 0.27 0.11 0.33 0.33 0 0 0 0.3 -0.36c-0.08 -1 -0.13 -1.94 -0.16 -2.92 -0.07 -2.28 -0.06 -4.56 -0.12 -6.83 0 -0.53 0 -1.06 -0.11 -1.59a6.77 6.77 0 0 0 -0.21 -1.09 3.49 3.49 0 0 0 -0.2 -0.6 0.68 0.68 0 0 0 -0.39 -0.36 1.47 1.47 0 0 0 -0.75 0c-0.6 0.14 -1.51 0.53 -1.74 0.59a11.65 11.65 0 0 1 -1.86 0.31c-1 0.11 -2 0.16 -2.93 0.25Q13 3 10.67 3.06c-1.54 0.07 -3.07 0.1 -4.6 0L0.53 2.63C0.33 2.61 0 3.71 0 7.55c0 1.51 -0.06 3 0 4.56l0.11 2a2.75 2.75 0 0 1 -0.08 0.3 1 1 0 0 0 0 0.43 0.58 0.58 0 0 0 0.7 0.45ZM6 3.89c1.57 0.11 3.14 0.17 4.7 0.11s3.12 -0.11 4.67 -0.23c1 -0.1 2 -0.14 2.94 -0.25a13.76 13.76 0 0 0 2 -0.35L22 2.61c0 0.08 0.1 0.15 0.11 0.18a5.69 5.69 0 0 1 0.2 0.93 14.73 14.73 0 0 1 0.14 1.49c0.14 2.27 0.21 4.56 0.35 6.83q0.09 1.19 0.21 2.37a28.88 28.88 0 0 0 -7 -1.85 31.31 31.31 0 0 0 -7.8 0c-1 0.13 -2 0.27 -3 0.44 -0.68 0.12 -1.35 0.27 -2 0.44s-1.21 0.46 -1.84 0.66l-0.19 0.06V14L1 12a41.61 41.61 0 0 1 -0.21 -4.43C0.8 6.14 0.88 4.71 1 3.26l0.59 0.05c1.49 0.18 2.95 0.47 4.41 0.58Z" fill="#020202" fill-rule="evenodd" stroke-width="1"></path>
    <path d="M2.29 18.68a2.8 2.8 0 0 0 -1.8 1 1.76 1.76 0 0 0 -0.29 0.85 9.11 9.11 0 0 0 0.12 1.68 0.3 0.3 0 0 0 0.31 0.28 0.3 0.3 0 0 0 0.28 -0.3 8.94 8.94 0 0 1 0 -1.34 1.12 1.12 0 0 1 0.23 -0.62 2 2 0 0 1 1.3 -0.5 12.52 12.52 0 0 1 2.51 0l0.78 0a0.45 0.45 0 0 1 0.24 0 1.38 1.38 0 0 1 0.43 0.71A6.57 6.57 0 0 1 6.65 22a0.33 0.33 0 1 0 0.66 0 7.29 7.29 0 0 0 -0.07 -1.78A2.21 2.21 0 0 0 6.6 19a1.17 1.17 0 0 0 -0.6 -0.27 14.69 14.69 0 0 0 -3.71 -0.05Z" fill="#020202" fill-rule="evenodd" stroke-width="1"></path>
    <path d="M11.12 16.51a2.34 2.34 0 0 0 -0.52 -1.15A1.19 1.19 0 0 0 10 15c-0.32 -0.09 -0.74 -0.1 -1 -0.15a5.57 5.57 0 0 0 -1.91 0 7.54 7.54 0 0 0 -1.75 0.6 4.71 4.71 0 0 0 -0.76 0.42 1.59 1.59 0 0 0 -0.5 0.53 1.81 1.81 0 0 0 -0.13 1 4.55 4.55 0 0 0 0.19 0.83c0.2 0.3 0.45 0.35 0.57 0.05s0 -0.36 0 -0.68a1.24 1.24 0 0 1 0.11 -0.71 0.6 0.6 0 0 1 0.25 -0.19 3.61 3.61 0 0 1 0.66 -0.26 7.61 7.61 0 0 1 1.6 -0.44 4.69 4.69 0 0 1 1.54 0l1 0.07a1.75 1.75 0 0 1 0.44 1 4 4 0 0 1 0.11 0.83c0 0.27 0.46 0.38 0.67 0a6.29 6.29 0 0 0 0.03 -1.39Z" fill="#4C57E6" fill-rule="evenodd" stroke-width="1"></path>
    <path d="M8.78 19.54a1.67 1.67 0 0 0 -0.29 0.92 9 9 0 0 0 0.26 1.78 0.29 0.29 0 0 0 0.32 0.26 0.28 0.28 0 0 0 0.26 -0.31c0 -0.38 -0.11 -0.94 -0.08 -1.44a1.13 1.13 0 0 1 0.23 -0.67 3.15 3.15 0 0 1 1.9 -0.77 6.52 6.52 0 0 1 2.21 0l0.85 0.15a1.37 1.37 0 0 1 0.4 0.67 8.7 8.7 0 0 1 0.16 1.5 0.33 0.33 0 0 0 0.35 0.31 0.34 0.34 0 0 0 0.32 -0.35 11.19 11.19 0 0 0 0 -1.63 2.17 2.17 0 0 0 -0.56 -1.17 1.27 1.27 0 0 0 -0.46 -0.27c-0.25 -0.1 -0.58 -0.15 -0.78 -0.21 -3.6 -0.91 -5.06 1.18 -5.09 1.23Z" fill="#020202" fill-rule="evenodd" stroke-width="1"></path>
    <path d="M19.44 16.7a1.86 1.86 0 0 0 -0.55 -1 1.53 1.53 0 0 0 -0.46 -0.28 5.59 5.59 0 0 0 -0.92 -0.21 8.92 8.92 0 0 0 -1.54 -0.1 11.64 11.64 0 0 0 -1.52 0.18 4.15 4.15 0 0 0 -0.87 0.25A1.51 1.51 0 0 0 13 16a0.93 0.93 0 0 0 -0.17 0.42 3.05 3.05 0 0 0 0 0.61l0.11 0.65c0.09 0.36 0.52 0.46 0.6 0.15l0.07 -0.79 0.06 -0.46a0.66 0.66 0 0 1 0.37 -0.16 3.83 3.83 0 0 1 0.58 -0.07 11 11 0 0 1 1.38 -0.08 9.06 9.06 0 0 1 1.37 0.05c0.18 0 0.37 0 0.56 0.05a0.75 0.75 0 0 1 0.34 0.1 1.25 1.25 0 0 1 0.41 0.71 3.36 3.36 0 0 1 0.13 0.76c0 0.27 0.6 0.34 0.71 0.06a4.34 4.34 0 0 0 -0.08 -1.3Z" fill="#4C57E6" fill-rule="evenodd" stroke-width="1"></path>
    <path d="M23.94 20a2.52 2.52 0 0 0 -0.56 -1.34 1.68 1.68 0 0 0 -0.93 -0.43 9.08 9.08 0 0 0 -1.77 -0.1 18 18 0 0 0 -2.26 0.37 2 2 0 0 0 -1.3 1.09 4.7 4.7 0 0 0 0 2.22 0.3 0.3 0 0 0 0.31 0.27 0.29 0.29 0 0 0 0.28 -0.31 4 4 0 0 1 0.17 -1.82 1.15 1.15 0 0 1 0.84 -0.48l0.84 -0.13 1.16 -0.09c0.26 0 0.84 -0.05 1.36 0 0.25 0 0.49 0 0.6 0.1a1.64 1.64 0 0 1 0.44 0.82 10.51 10.51 0 0 1 0.16 1.73 0.34 0.34 0 0 0 0.34 0.33 0.33 0.33 0 0 0 0.32 -0.34 10.61 10.61 0 0 0 0 -1.89Z" fill="#020202" fill-rule="evenodd" stroke-width="1"></path>
  </g>
</svg>