<svg xmlns="http://www.w3.org/2000/svg" viewBox="0 0 24 24" id="Movies-Sit-Drink--Streamline-Freehand">
  <desc>
    Movies Sit Drink Streamline Icon: https://streamlinehq.com
  </desc>
  <g>
    <path d="M7.11 14.09a0.32 0.32 0 1 0 0 -0.64c-1 -0.26 -1.24 -0.5 -4 -0.22 -0.22 0 -1.26 0.49 -1.3 0.24S2 12.31 2 12.08c0.15 -4.79 -0.33 -9.14 -0.25 -10.86a19.27 19.27 0 0 0 3.78 0.72A30.21 30.21 0 0 0 20 0.77c0.36 0.75 -0.41 3.11 0.43 3a0.33 0.33 0 0 0 0.27 -0.38c-0.13 -0.85 0.65 -3.21 -0.5 -3.35 -1 -0.12 -4.9 1.52 -11.65 1.21C7 1.18 5.25 1.13 3.65 1 2.16 0.63 1.5 0.36 1.25 0.52a0.27 0.27 0 0 0 0 0.44C1 1.89 1 10.68 1 12.05c0 0.44 -0.21 1.67 0.31 2.14 0.72 0.64 1.7 -0.4 4.67 -0.34 0.33 0.01 0.7 0.26 1.13 0.24Z" fill="#4C57E6" stroke-width="1"></path>
    <path d="M22.86 11.28a1.46 1.46 0 0 0 -1.41 -1 3 3 0 0 0 -0.83 0.24 1.82 1.82 0 0 0 -1 0.94c-0.32 0.64 0 0.58 -0.46 0a4 4 0 0 0 -3.53 -1.17c0.07 -0.42 -0.34 -0.17 -1 -0.95 -1.63 -1.92 0.92 -4.43 3.37 -3.5a2.41 2.41 0 0 1 1.2 3.67c-0.54 0.6 -1.1 0.75 -0.81 1.12a0.32 0.32 0 0 0 0.46 0.06 3 3 0 0 0 1.63 -2.28 3.41 3.41 0 0 0 -2.07 -3.56 3.76 3.76 0 0 0 -4.93 2 2.85 2.85 0 0 0 1.72 3.7 4 4 0 0 0 -1.83 2.34c-0.07 0.16 0 0.09 -1.21 0 0.17 -0.08 0.14 -0.06 0.62 -1.49 0.18 -0.55 0.26 -0.94 -0.28 -1.19a9 9 0 0 0 -1.6 -0.21c0 -0.12 -0.1 0.45 0.2 -1.23l0.77 -0.47a0.32 0.32 0 0 0 0.21 -0.41c-0.11 -0.33 -0.4 -0.23 -1.33 0a0.78 0.78 0 0 0 -0.67 0.52c-0.21 0.66 0 0.8 0.12 1.64 -0.74 0 -1.76 -0.07 -1.71 0.67a16.08 16.08 0 0 0 0.61 2.13 2.17 2.17 0 0 0 0.16 0.25c-1.47 0.8 -1.09 2.83 2.06 3.29a1.66 1.66 0 0 0 -0.67 0.66 5.21 5.21 0 0 0 -3.57 2.66 5.74 5.74 0 0 0 -0.62 3A1.75 1.75 0 0 0 8.36 24c2.35 -0.05 2 -2.44 2.54 -3.39a16.31 16.31 0 0 0 1.16 2.84 0.3 0.3 0 0 0 0.46 0c0.23 -0.25 -0.09 -0.44 -0.22 -0.74 -0.29 -0.85 -1.25 -3.38 -1.15 -4.77s2.15 -1.51 3.44 -1.61a10.41 10.41 0 0 1 3.43 0.21c1.29 0.09 1.43 -1 2 -2.42 0.37 -0.88 0.34 -2.3 1 -2.58 0.19 -0.08 0.47 -0.22 0.6 -0.14 0.88 0.58 0 4.26 -0.2 5.3 -1.18 6.41 -0.63 5.34 -2.26 5.55 -3.59 0.48 -2.28 0.34 -5.68 0.71a0.33 0.33 0 0 0 -0.16 0.63c0.39 0.1 5.83 -0.53 5.93 -0.54a3.07 3.07 0 0 0 1.6 -0.3c0.48 -0.38 0.55 -1.19 0.67 -1.64 0.38 -1.41 0.58 -2.81 0.88 -4.21s1.07 -4.18 0.46 -5.62ZM8.37 23a1 1 0 0 1 -0.76 -0.32c-0.33 -0.39 0 -3.87 2.8 -4.95a7.92 7.92 0 0 0 0.26 2.13c-1.26 0.98 -0.54 3.14 -2.3 3.14Zm1.42 -11.91c2.34 -0.07 1.75 0 2.17 -0.12 0 0.16 0 0 -0.25 1.46 -0.09 0.37 0.47 0.37 -0.3 0.27a4.05 4.05 0 0 0 -1.66 0.14 0.23 0.23 0 0 0 -0.07 -0.21c-0.1 -0.75 -0.06 -0.4 -0.18 -1.56ZM19 13.7c-1.23 3.05 0.19 1.2 -4.5 1.71a10.36 10.36 0 0 0 -2.37 0.5 0.31 0.31 0 0 0 -0.23 -0.15 4.34 4.34 0 0 1 -2.3 -0.9c-0.9 -0.9 0.47 -1.29 1.65 -1.1a6.24 6.24 0 0 0 2.61 0.07c0.92 -0.48 0.77 -2.78 2.77 -2.7a3.66 3.66 0 0 1 2 0.76 2 2 0 0 1 0.6 1.11 5 5 0 0 1 -0.23 0.7Z" fill="#020202" stroke-width="1"></path>
  </g>
</svg>