<svg xmlns="http://www.w3.org/2000/svg" viewBox="0 0 24 24" id="Movies-Rated-18-Plus--Streamline-Freehand">
  <desc>
    Movies Rated 18 Plus Streamline Icon: https://streamlinehq.com
  </desc>
  <g>
    <path d="m1.29 15.29 0 -2.4c0 -0.8 0.07 -1.6 0.14 -2.4a31.78 31.78 0 0 1 0.81 -5.38 0.33 0.33 0 0 0 0.22 0 34.92 34.92 0 0 1 4 -0.48l1.72 -0.13 1.72 -0.12c2.42 -0.14 4 -0.06 4 -0.06a0.38 0.38 0 0 0 0.11 -0.76 24.62 24.62 0 0 0 -4.16 -0.4l-1.79 0c-0.63 0 -1.17 0.1 -1.79 0.2a26.7 26.7 0 0 0 -4 1.05c-0.06 0 -0.09 0.07 -0.13 0.11s-0.06 -0.07 -0.1 -0.08a0.35 0.35 0 0 0 -0.43 0.22 29.06 29.06 0 0 0 -1.4 5.7A20.72 20.72 0 0 0 0 12.85c0 0.83 0 1.67 0.06 2.5a31.83 31.83 0 0 0 1 5.71 0.38 0.38 0 0 0 0.46 0.28 0.38 0.38 0 0 0 0.29 -0.46 34 34 0 0 1 -0.52 -5.59Z" fill="#4C57E6" fill-rule="evenodd" stroke-width="1"></path>
    <path d="M24 15.48c0 -0.64 -0.08 -1.25 -0.15 -1.81a33.52 33.52 0 0 0 -0.75 -4.18 0.35 0.35 0 0 0 -0.4 -0.28 0.33 0.33 0 0 0 -0.28 0.39s0.11 2 0.22 4.76c0 0.74 0.08 1.54 0.14 2.37s0.11 1.56 0.15 2.37 0 1.59 0 2.38a0.4 0.4 0 0 0 0.36 0.41 0.39 0.39 0 0 0 0.41 -0.36 38.48 38.48 0 0 0 0.3 -4.24l0 -1.81Z" fill="#4C57E6" fill-rule="evenodd" stroke-width="1"></path>
    <path d="M7.63 8.13c-0.19 -0.45 -0.48 -0.45 -0.71 -0.36a0.58 0.58 0 0 0 -0.29 0.23c0 0.07 -0.11 0.26 -0.16 0.34L6 9.08c-0.22 0.3 -0.44 0.6 -0.67 0.88a9.46 9.46 0 0 1 -0.75 0.8 0.34 0.34 0 0 0 0 0.48 0.36 0.36 0 0 0 0.49 0 8.17 8.17 0 0 0 0.88 -0.78 9.38 9.38 0 0 0 0.82 -0.85l0.08 -0.1 0 0.63c0.07 0.92 0.06 1.86 0.08 2.74 0.12 1.48 0.31 2.95 0.39 4.43l0 1.86a0.39 0.39 0 0 0 0.35 0.42 0.37 0.37 0 0 0 0.41 -0.35 20.37 20.37 0 0 0 0.18 -2.59c0 -1.27 -0.06 -2.54 0 -3.81 0 -0.91 0 -1.88 -0.11 -2.82a7.8 7.8 0 0 0 -0.52 -1.89Z" fill="#020202" fill-rule="evenodd" stroke-width="1"></path>
    <path d="M11.12 16a3.39 3.39 0 0 0 3.14 3 3.08 3.08 0 0 0 3.64 -2.46 2.82 2.82 0 0 0 0 -0.82 3.4 3.4 0 0 0 -0.16 -0.77 3.44 3.44 0 0 0 -2.22 -2.21 2 2 0 0 0 0.24 -0.16A2.78 2.78 0 0 0 17 10.93a2.07 2.07 0 0 0 -0.73 -2 0.39 0.39 0 0 0 -0.55 0.55 1.26 1.26 0 0 1 0.46 1.22 1.92 1.92 0 0 1 -0.92 1.08 7.58 7.58 0 0 1 -1.1 0.58l-0.83 -0.16a3.17 3.17 0 0 1 -2 -1 1 1 0 0 1 -0.15 -1.06 2.48 2.48 0 0 1 0.93 -1 2.36 2.36 0 0 1 1.08 -0.33 6.65 6.65 0 0 1 1.9 0.19 0.34 0.34 0 1 0 0.17 -0.65 7 7 0 0 0 -2.09 -0.29 3.2 3.2 0 0 0 -1.48 0.39 3.23 3.23 0 0 0 -1.49 1.74 1.92 1.92 0 0 0 0.35 1.67 3.81 3.81 0 0 0 2 1.35 3.73 3.73 0 0 0 -0.38 0.28A2.83 2.83 0 0 0 11.12 16Zm1.75 -1.68a5.28 5.28 0 0 1 1.13 -0.76 6.41 6.41 0 0 1 1.48 0.48 2.24 2.24 0 0 1 1.09 1.32 3.86 3.86 0 0 1 0.1 0.49 2.48 2.48 0 0 1 0 0.47 1.86 1.86 0 0 1 -2.22 1.4 2.22 2.22 0 0 1 -2.14 -1.83 1.84 1.84 0 0 1 0.56 -1.61Z" fill="#020202" fill-rule="evenodd" stroke-width="1"></path>
    <path d="M22.18 20.72a32.43 32.43 0 0 1 -5.92 0.82c-1.85 0.11 -3.72 0.07 -5.59 0 -2.82 -0.04 -5.67 -0.13 -8.47 -0.25a0.36 0.36 0 0 0 -0.37 0.32 0.34 0.34 0 0 0 0.31 0.36c2.43 0.28 4.84 0.64 7.27 0.81a42.31 42.31 0 0 0 4.91 0.08 31.64 31.64 0 0 0 8.07 -1.4 0.38 0.38 0 0 0 -0.21 -0.74Z" fill="#4C57E6" fill-rule="evenodd" stroke-width="1"></path>
    <path d="m15.28 6.26 3.62 -0.36 0 0.3c0.1 0.9 0.1 1.8 0.1 2.64a0.38 0.38 0 1 0 0.76 0.1 18.78 18.78 0 0 0 0.41 -2.65l0 -0.52 0.2 0 2.83 -0.11a0.38 0.38 0 0 0 0.38 -0.39 0.4 0.4 0 0 0 -0.4 -0.38l-2.88 -0.37 -0.17 0 0 -0.53a25.62 25.62 0 0 0 -0.53 -2.61 0.35 0.35 0 0 0 -0.38 -0.3 0.35 0.35 0 0 0 -0.3 0.38l0 3 0 0.21a5.36 5.36 0 0 0 -0.69 0.06 29.13 29.13 0 0 0 -3 0.88 0.34 0.34 0 0 0 -0.27 0.4 0.35 0.35 0 0 0 0.32 0.25Z" fill="#020202" fill-rule="evenodd" stroke-width="1"></path>
  </g>
</svg>