<svg xmlns="http://www.w3.org/2000/svg" viewBox="0 0 24 24" id="Multimedia-Controls-Loop-Arrow--Streamline-Freehand">
  <desc>
    Multimedia Controls Loop Arrow Streamline Icon: https://streamlinehq.com
  </desc>
  <path d="M23.05 9.74a4.78 4.78 0 0 0 -3.44 -2.07 6.47 6.47 0 0 0 -3.87 0.88 18.31 18.31 0 0 0 -2.83 2.06c-2 1.71 -3.71 3.7 -5.87 5.18a4.26 4.26 0 0 1 -2 0.64A4.1 4.1 0 0 1 3 16.14c-1.7 -0.85 -2.13 -2.78 -1.8 -4.58s1.56 -3.71 3.24 -4a6.67 6.67 0 0 1 2 -0.06 4.2 4.2 0 0 1 1.81 0.57 4.55 4.55 0 0 1 0.74 0.72 4.11 4.11 0 0 1 0.62 0.82A14 14 0 0 1 8 9.43 8.9 8.9 0 0 1 6.35 9a0.35 0.35 0 0 0 -0.47 0.14 0.35 0.35 0 0 0 0.12 0.45 10.91 10.91 0 0 0 3.1 1.27 2.76 2.76 0 0 0 1.82 -0.09 1 1 0 0 0 0.39 -0.59 3.64 3.64 0 0 0 0 -0.72c0 -0.55 -0.07 -2.18 -0.09 -2.88 0 -0.24 0.05 -0.69 -0.35 -0.62 -0.2 -0.07 -0.4 0 -0.45 0.3l0 0.29c-0.08 0.63 -0.24 2 -0.32 2.69a4.89 4.89 0 0 0 -0.66 -0.93 6 6 0 0 0 -0.86 -0.86 5.14 5.14 0 0 0 -2.1 -0.75 7.76 7.76 0 0 0 -2.21 0C2.24 7 0.65 9.08 0.16 11.36s0.12 4.7 2.26 5.84a5.22 5.22 0 0 0 2.72 0.48 5.37 5.37 0 0 0 2.62 -0.82 69.48 69.48 0 0 0 6 -5.26 18.28 18.28 0 0 1 2.63 -1.95 5.17 5.17 0 0 1 3.09 -0.76 3.63 3.63 0 0 1 2.64 1.52 4.49 4.49 0 0 1 0.49 4.23 4.1 4.1 0 0 1 -3.45 2.5 6.29 6.29 0 0 1 -2.9 -0.53 3.76 3.76 0 0 1 -2.17 -1.79 0.4 0.4 0 0 0 -0.5 -0.23 0.37 0.37 0 0 0 -0.23 0.5 4 4 0 0 0 2 2 7.51 7.51 0 0 0 4 1 5 5 0 0 0 4.29 -3 5.62 5.62 0 0 0 -0.6 -5.35Z" fill="#020202" fill-rule="evenodd" stroke-width="1"></path>
</svg>