<svg xmlns="http://www.w3.org/2000/svg" viewBox="0 0 24 24" id="Multimedia-Controls-Button-Fast-Forward--Streamline-Freehand">
  <desc>
    Multimedia Controls Button Fast Forward Streamline Icon: https://streamlinehq.com
  </desc>
  <g>
    <path d="M21.19 4.53a12.42 12.42 0 0 0 -10 -4.2 11.93 11.93 0 0 0 -9.28 5.36 10.54 10.54 0 0 0 -1.8 4.69 13.09 13.09 0 0 0 0.31 5 10.75 10.75 0 0 0 1.35 3.29 6.16 6.16 0 0 0 1.72 1.69 0.3 0.3 0 0 0 0.42 -0.08 0.29 0.29 0 0 0 -0.08 -0.42 5.49 5.49 0 0 1 -1.79 -2 10.64 10.64 0 0 1 -0.92 -2.64 12.15 12.15 0 0 1 -0.19 -4.72 9.78 9.78 0 0 1 1.74 -4.27 11 11 0 0 1 8.6 -4.77 11.35 11.35 0 0 1 9 3.81 10.7 10.7 0 0 1 1.85 11.13c-1.42 3.32 -4.64 5.93 -9.42 6.45a15.89 15.89 0 0 1 -2.66 0 10.72 10.72 0 0 1 -2.58 -0.48 0.34 0.34 0 0 0 -0.43 0.22 0.34 0.34 0 0 0 0.22 0.43 11.89 11.89 0 0 0 2.74 0.56 16.15 16.15 0 0 0 2.78 0c5.16 -0.47 8.68 -3.26 10.26 -6.82a11.77 11.77 0 0 0 -1.84 -12.23Z" fill="#4C57E6" stroke-width="1"></path>
    <path d="M7.37 16.68a3.1 3.1 0 0 0 0.63 -0.21 3.64 3.64 0 0 0 1.13 -0.83 17.69 17.69 0 0 0 1.24 -1.48 0.35 0.35 0 0 0 -0.06 -0.48 0.34 0.34 0 0 0 -0.48 0.05 16.63 16.63 0 0 1 -1.22 1.39 2.85 2.85 0 0 1 -0.89 0.64 2.71 2.71 0 0 1 -0.43 0.14l-0.17 0c0 -0.08 -0.07 -0.21 -0.08 -0.28a45.37 45.37 0 0 1 0 -5.34 20.68 20.68 0 0 1 0.25 -2.46c0 -0.17 0.07 -0.32 0.09 -0.44a1.47 1.47 0 0 1 0.34 0.15c1.59 1 3.58 2.81 3.81 2.85a1.16 1.16 0 0 0 0.82 -1c0.13 -0.61 0.26 -1.62 0.32 -2a11.37 11.37 0 0 1 1.07 0.88c0.86 0.77 1.64 1.63 2.46 2.45l0.76 0.73a4.54 4.54 0 0 1 0.41 0.48c0.07 0.12 0.17 0.22 0.23 0.34s0.06 0.1 0.05 0.16a1 1 0 0 1 -0.27 0.42 6 6 0 0 1 -0.56 0.51l-1.24 0.86c-0.62 0.47 -1.18 1 -1.79 1.46 -0.25 0.19 -0.5 0.38 -0.77 0.55a2.56 2.56 0 0 1 -0.64 0.35 0.48 0.48 0 0 1 -0.46 -0.13l0 -0.71 -0.13 -2.18a0.3 0.3 0 0 0 -0.31 -0.3 0.3 0.3 0 0 0 -0.3 0.3l0.07 2.21a3.74 3.74 0 0 0 0 0.75 0.82 0.82 0 0 0 0.24 0.46 1.16 1.16 0 0 0 0.86 0.34 2.49 2.49 0 0 0 1.1 -0.44 9.69 9.69 0 0 0 0.85 -0.57c0.62 -0.45 1.2 -0.94 1.83 -1.39l1.29 -0.83a5 5 0 0 0 0.94 -0.87 1.43 1.43 0 0 0 0.29 -0.66 1.11 1.11 0 0 0 -0.07 -0.63 2.6 2.6 0 0 0 -0.34 -0.57 4.29 4.29 0 0 0 -0.36 -0.48c-0.28 -0.32 -0.59 -0.61 -0.88 -0.91 -0.82 -0.86 -1.59 -1.75 -2.45 -2.55A12.47 12.47 0 0 0 12.62 6 0.57 0.57 0 0 0 12 6a1.11 1.11 0 0 0 -0.29 0.54l-0.09 0.69c-0.05 0.31 -0.14 1 -0.24 1.61a30.51 30.51 0 0 0 -3.51 -2.47 1.32 1.32 0 0 0 -0.77 -0.19 0.56 0.56 0 0 0 -0.35 0.2 6.79 6.79 0 0 0 -0.59 3 51.19 51.19 0 0 0 0.1 6.47 2.19 2.19 0 0 0 0.15 0.57 0.59 0.59 0 0 0 0.4 0.29 1.18 1.18 0 0 0 0.56 -0.03Z" fill="#020202" stroke-width="1"></path>
  </g>
</svg>