<svg xmlns="http://www.w3.org/2000/svg" viewBox="0 0 24 24" id="Museum-Exhibition-Fossil--Streamline-Freehand">
  <desc>
    Museum Exhibition Fossil Streamline Icon: https://streamlinehq.com
  </desc>
  <title>museum-exhibition-fossil</title>
  <g>
    <path d="M4.5 10.33a10.84 10.84 0 0 1 1.76 0.91c0.43 0.4 0.64 1 1 1.37a2 2 0 0 0 0.79 0.49 3.87 3.87 0 0 0 1.36 0.18 24.61 24.61 0 0 0 2.89 -0.35 11.61 11.61 0 0 0 2.7 -0.55 2.91 2.91 0 0 0 1.59 -1.31 2.8 2.8 0 0 0 0.16 -1.55 6.07 6.07 0 0 0 -0.61 -2 0.57 0.57 0 0 0 -0.53 -0.32 0.61 0.61 0 0 0 -0.43 0.15c-0.12 0.1 -0.28 0.43 -0.41 0.55a5.27 5.27 0 0 1 -0.51 0.43 2.15 2.15 0 0 1 -0.49 0.28c-0.19 0.08 -0.28 -0.06 -0.4 -0.14a2.16 2.16 0 0 0 -0.53 -0.25 1.69 1.69 0 0 0 -0.52 -0.06 3.08 3.08 0 0 0 -1.13 0.47c-0.25 0.15 -0.64 0.34 -0.86 0.44a6.41 6.41 0 0 1 -0.05 -0.94 2.4 2.4 0 0 1 0.07 -0.7l0.7 -0.07a1.51 1.51 0 0 0 0.6 -0.16 0.75 0.75 0 0 0 0.35 -0.61 6.67 6.67 0 0 0 -0.08 -0.75 0.5 0.5 0 0 1 0 -0.17c0.44 0.14 1.06 0.37 1.38 0.44a0.64 0.64 0 0 0 0.84 -0.53 8 8 0 0 0 0.24 -1.44 2.74 2.74 0 0 0 0.76 0.28 0.76 0.76 0 0 0 0.81 -0.29 1.67 1.67 0 0 0 0 -1.26 8.57 8.57 0 0 0 -0.93 -2 2 2 0 0 0 -2.21 -0.79 8.45 8.45 0 0 0 -2.68 1.65 3.23 3.23 0 0 1 -1 0.08l-1.18 0A2.37 2.37 0 0 0 5.72 3a3.33 3.33 0 0 0 -0.56 2 5.49 5.49 0 0 0 -1.81 2.6A2.5 2.5 0 0 0 4 9.93a2 2 0 0 0 0.5 0.4Zm-0.44 -2.58c0.29 -1.42 1.72 -2.27 1.74 -2.43 0.4 -0.4 -0.61 -0.49 0.45 -2a1.72 1.72 0 0 1 1.62 -0.82 15 15 0 0 0 1.78 0 2.09 2.09 0 0 0 0.93 -0.19A7.78 7.78 0 0 1 13 0.89a1.18 1.18 0 0 1 1.31 0.52 5.76 5.76 0 0 1 0.56 1.2c0.07 0.19 0.19 0.46 0.25 0.67 -0.18 -0.08 -0.49 -0.11 -0.66 -0.19a1.56 1.56 0 0 0 -0.66 -0.18 0.72 0.72 0 0 0 -0.58 0.49 6 6 0 0 0 -0.17 1.53c-0.4 -0.14 -0.9 -0.33 -1.17 -0.4a0.85 0.85 0 0 0 -0.51 0 0.88 0.88 0 0 0 -0.57 0.64 3.14 3.14 0 0 0 -0.12 1.11 5.61 5.61 0 0 0 -0.72 0.08 0.88 0.88 0 0 0 -0.4 0.22 1.85 1.85 0 0 0 -0.38 1 7.38 7.38 0 0 0 0 1.87 0.87 0.87 0 0 0 1 0.84 3.4 3.4 0 0 0 1.36 -0.55 2.89 2.89 0 0 1 0.81 -0.44 0.8 0.8 0 0 1 0.47 0.18 2.13 2.13 0 0 0 0.45 0.23 1.19 1.19 0 0 0 0.9 0 2.63 2.63 0 0 0 0.61 -0.34 6 6 0 0 0 0.67 -0.56 4.29 4.29 0 0 1 0.17 0.64 2.1 2.1 0 0 1 0 1.22 1.89 1.89 0 0 1 -1 0.83 11.17 11.17 0 0 1 -2.4 0.54c-0.65 0.09 -1.55 0.3 -2.4 0.38a3.53 3.53 0 0 1 -1.44 -0.09 1.12 1.12 0 0 1 -0.47 -0.33c-0.42 -0.4 -0.65 -1 -1.09 -1.36a11.81 11.81 0 0 0 -1.91 -1 1.31 1.31 0 0 1 -0.32 -0.25 1.81 1.81 0 0 1 -0.53 -1.64Z" fill="#020202" fill-rule="evenodd" stroke-width="1"></path>
    <path d="M11.42 18.76a2.37 2.37 0 0 0 -0.76 -0.06 1.39 1.39 0 0 1 -0.7 -0.05 13.67 13.67 0 0 1 -2.14 -1.21c-2.49 -1.68 -2.28 -3 -3.23 -3.67a0.77 0.77 0 0 0 -1.07 0.11 0.78 0.78 0 0 0 -0.2 0.45 5.22 5.22 0 0 0 0 0.58l0 0.18a2.22 2.22 0 0 1 -1 0 2 2 0 0 0 -1.06 0.11 1.53 1.53 0 0 0 -0.77 1 1.59 1.59 0 0 0 -0.09 0.39 1.53 1.53 0 0 0 0 0.37 1.89 1.89 0 0 0 0.1 0.41 1.25 1.25 0 0 0 0.22 0.41 1.53 1.53 0 0 0 0.62 0.47c0.6 0.28 1.5 0.22 2 0.55a23.48 23.48 0 0 1 2.28 1.63 22.44 22.44 0 0 1 2.08 1.84c0.3 0.3 0.53 1 0.9 1.39a1.07 1.07 0 0 0 0.67 0.33 0.91 0.91 0 0 0 0.85 -0.35c0.21 -0.24 0.31 -0.68 0.47 -0.87l1 -0.54a2.38 2.38 0 0 0 0.78 -1.31 2 2 0 0 0 -0.17 -1.56 1.3 1.3 0 0 0 -0.78 -0.6ZM9.3 22.93l0.07 0c0.07 0 -0.05 0.07 -0.07 0Zm2.11 -2.26a1.5 1.5 0 0 1 -0.47 0.76c-0.24 0.18 -0.58 0.24 -0.84 0.4a1.38 1.38 0 0 0 -0.3 0.24 2.12 2.12 0 0 0 -0.31 0.53 2.49 2.49 0 0 0 -0.11 0.29 0.27 0.27 0 0 1 -0.07 -0.08c-0.05 -0.07 -0.1 -0.16 -0.15 -0.24 -0.17 -0.29 -0.31 -0.61 -0.47 -0.84a1.5 1.5 0 0 0 -0.18 -0.24 23.53 23.53 0 0 0 -2.19 -2 22.46 22.46 0 0 0 -2.42 -1.66 9 9 0 0 0 -2 -0.47 0.88 0.88 0 0 1 -0.45 -0.23l-0.14 -0.34v-0.34c0.11 -0.33 0.25 -0.47 0.45 -0.51 0.58 -0.1 1.3 0.14 1.9 -0.19a0.65 0.65 0 0 0 0.34 -0.47 3.13 3.13 0 0 0 0 -0.63c0 -0.11 -0.06 -0.21 0 -0.27s0.29 0 0.44 0.21c1.79 2.14 -0.4 1 2.9 3.47a14.77 14.77 0 0 0 2.26 1.35 2.08 2.08 0 0 0 0.93 0.18 1.81 1.81 0 0 1 0.62 0 0.44 0.44 0 0 1 0.23 0.22 1.12 1.12 0 0 1 0.03 0.86Z" fill="#4C57E6" fill-rule="evenodd" stroke-width="1"></path>
    <path d="M23.57 11.6a1.39 1.39 0 0 0 -0.37 -0.52 4.81 4.81 0 0 1 -0.69 -0.63 9.16 9.16 0 0 0 -1.36 -1.74 1.69 1.69 0 0 0 -1.71 -0.2 1.33 1.33 0 0 0 -0.9 1.05c-0.12 0.59 0.08 1.38 0 2l-1.66 1.9c-0.2 0.22 -0.41 0.5 -0.65 0.74a1.9 1.9 0 0 1 -0.43 0.33c-0.27 0.13 -0.52 0 -0.78 -0.18a2.34 2.34 0 0 0 -0.94 -0.28 1.15 1.15 0 0 0 -1 0.69 1 1 0 0 0 -0.11 0.84c0.09 0.35 0.46 0.66 0.57 1a6.35 6.35 0 0 1 0.07 1.34 2.24 2.24 0 0 0 0.34 1.22 1.57 1.57 0 0 0 1.35 0.65l0.77 -0.09a1.3 1.3 0 0 0 0.78 -0.61c0.23 -0.37 0.28 -0.93 0.51 -1.28A6.91 6.91 0 0 1 18 17c0.37 -0.41 0.77 -0.8 1.14 -1.2s0.54 -0.64 0.84 -1a2.87 2.87 0 0 1 0.54 -0.46c0.67 -0.4 1.42 -0.34 2 -0.67a2.18 2.18 0 0 0 0.84 -0.82 1.46 1.46 0 0 0 0.21 -1.25Zm-1.08 0.81a1.21 1.21 0 0 1 -0.47 0.44c-0.63 0.32 -1.38 0.24 -2.08 0.63a3.32 3.32 0 0 0 -0.62 0.46c-0.38 0.35 -0.72 0.8 -1 1.14s-0.92 0.93 -1.35 1.42a5.31 5.31 0 0 0 -0.54 0.71 7.44 7.44 0 0 0 -0.47 1.21c-0.05 0.09 -0.09 0.2 -0.2 0.23l-0.43 0.06c-0.34 0 -0.52 -0.13 -0.59 -0.34 -0.21 -0.62 -0.06 -1.51 -0.26 -2.08a8.06 8.06 0 0 0 -0.58 -0.9c0 -0.06 -0.07 -0.12 0 -0.19s0.16 -0.27 0.27 -0.27a3.48 3.48 0 0 1 1 0.34 1.34 1.34 0 0 0 1.09 0 2.9 2.9 0 0 0 0.61 -0.51c0.24 -0.26 0.45 -0.56 0.64 -0.8 1.71 -2.12 1.65 -1.36 1.76 -2.17 0 -0.48 -0.38 -0.12 0.09 -2a0.64 0.64 0 0 1 0.43 -0.47 1 1 0 0 1 0.95 0.12A8.44 8.44 0 0 1 21.79 11a5.2 5.2 0 0 0 0.56 0.58c0.14 0.12 0.28 0.21 0.32 0.35s-0.04 0.26 -0.18 0.48Z" fill="#4C57E6" fill-rule="evenodd" stroke-width="1"></path>
    <path d="M7.48 6.23A1.74 1.74 0 0 0 9 6.06a1.7 1.7 0 0 0 0.57 -0.74A1.82 1.82 0 0 0 9.6 4c-0.52 -1.22 -2 -0.59 -2.57 0.39a1.82 1.82 0 0 0 -0.23 0.81 1 1 0 0 0 0.68 1.03Zm0.31 -1.62c0 -0.08 0.08 -0.16 0.12 -0.24a0.21 0.21 0 0 0 0.11 0l0.37 -0.15a0.53 0.53 0 0 1 0.29 0c0.09 0 0 0.15 0 0.25a0.86 0.86 0 0 1 -0.35 0.69 0.67 0.67 0 0 1 -0.33 0.07 0.58 0.58 0 0 1 -0.23 0s-0.06 0 -0.07 0a1 1 0 0 1 0.09 -0.62Z" fill="#020202" fill-rule="evenodd" stroke-width="1"></path>
  </g>
</svg>