<svg xmlns="http://www.w3.org/2000/svg" viewBox="0 0 24 24" id="Museum-Art-Vase--Streamline-Freehand">
  <desc>
    Museum Art Vase Streamline Icon: https://streamlinehq.com
  </desc>
  <title>museum-art-vase</title>
  <g>
    <path d="M6.61 7.72a24.51 24.51 0 0 0 3.33 -0.19c0.77 -0.28 -0.21 -0.86 -0.56 -0.86S8.47 6.6 8 6.59l-2.36 0c-0.78 0 -1.81 0.08 -2.7 0.14 -0.76 0.3 -0.64 0.6 -0.07 0.73 1 0.07 1.29 0.17 2.26 0.22 0.49 0.03 0.99 0.04 1.48 0.04Z" fill="#4C57E6" fill-rule="evenodd" stroke-width="1"></path>
    <path d="m9.11 11.21 -2.12 0c-0.71 0 -1.43 -0.05 -2.15 -0.06 -1.14 0 -1.72 0 -2.87 0.06 -0.59 0 -0.75 0.57 -0.39 0.77 0.93 0.08 1.85 0.19 2.78 0.26a25.48 25.48 0 0 0 2.64 0.04 17.89 17.89 0 0 0 4 -0.54c0.55 -0.14 0.65 -0.69 0.18 -0.62 -0.37 0.03 -1.36 0.07 -2.07 0.09Z" fill="#4C57E6" fill-rule="evenodd" stroke-width="1"></path>
    <path d="M13.15 10.3a3.59 3.59 0 0 0 -0.41 -3.1 2.24 2.24 0 0 0 -0.52 -0.5 5.87 5.87 0 0 0 -0.86 -0.46 2.48 2.48 0 0 1 -0.92 -0.56 3 3 0 0 1 -0.44 -0.63 3.79 3.79 0 0 1 -0.25 -0.74s-0.07 -0.44 -0.11 -0.66a2 2 0 0 0 1.48 -1.55 1.5 1.5 0 0 0 -1 -1.44 5.82 5.82 0 0 0 -2 -0.5 17.5 17.5 0 0 0 -3 0.11 5.37 5.37 0 0 0 -1.63 0.45 2.63 2.63 0 0 0 -0.94 0.75A1.17 1.17 0 0 0 2.41 3a1.82 1.82 0 0 0 1.13 0.59 9.22 9.22 0 0 1 -0.48 1.27 3.07 3.07 0 0 1 -0.57 0.83 8.75 8.75 0 0 1 -1.27 0.89 2.79 2.79 0 0 0 -0.6 0.64A4.15 4.15 0 0 0 0 8.94a8.13 8.13 0 0 0 0.5 3.62 7.13 7.13 0 0 0 0.5 1.06c0.21 0.38 0.42 0.75 0.66 1.1a3.11 3.11 0 0 0 0.52 0.63 0.34 0.34 0 0 0 0.48 0 0.32 0.32 0 0 0 0 -0.47 2.55 2.55 0 0 1 -0.37 -0.59C2.13 14 2 13.6 1.8 13.24a9.44 9.44 0 0 1 -0.66 -3.8 3.5 3.5 0 0 1 0.43 -1.62c0.43 -0.82 0.62 -0.49 1.6 -1.53a3.09 3.09 0 0 0 0.59 -1.1 9.44 9.44 0 0 0 0.38 -1.41 6.31 6.31 0 0 0 0.76 0.09c1.3 0.08 2.63 -0.1 3.91 0.06 0 0.24 0 0.53 0.06 0.57a4.65 4.65 0 0 0 0.27 1 3.37 3.37 0 0 0 0.51 0.88c0.87 1 1.63 0.76 2.18 1.53a2.48 2.48 0 0 1 0.22 2.09 17.29 17.29 0 0 1 -1.66 3.54l-1.19 1.8a1.37 1.37 0 0 0 -0.29 0.35c-0.51 0.07 -1 0.11 -1.52 0.13 -1.42 0.06 -2.83 0 -4.27 0a8.52 8.52 0 0 0 -1.87 0.18 1 1 0 0 0 -0.66 0.44 1.78 1.78 0 0 0 -0.16 0.75l0 1.29v4.37a0.29 0.29 0 0 0 0.29 0.3 0.3 0.3 0 0 0 0.31 -0.28l0.24 -4.35 0 -1.1c0.06 -1.08 0.18 -0.5 1.82 -0.51 1.23 0 2.44 0.06 3.65 0a16.45 16.45 0 0 0 2.51 -0.21l1.75 -0.16h0.11l0 1.41 0 5.59a0.34 0.34 0 1 0 0.67 0L12 18c0 -0.29 0.13 -1.09 0.11 -1.6a1.35 1.35 0 0 0 -0.19 -0.64 0.61 0.61 0 0 0 -0.42 -0.22 4.89 4.89 0 0 0 -0.55 0l-0.71 0 1 -1.4a14.09 14.09 0 0 0 1.91 -3.84Zm-4 -7.2c-2 -0.19 -4.88 0.59 -6 -0.37 -0.19 -0.17 -0.19 -0.4 0.07 -0.68a1.85 1.85 0 0 1 0.68 -0.42 4.6 4.6 0 0 1 1.32 -0.25A20 20 0 0 1 8 1.27a5.25 5.25 0 0 1 1.71 0.26c0.46 0.18 0.64 0.45 0.54 0.73 -0.25 0.64 -1 0.74 -1.1 0.84Z" fill="#020202" fill-rule="evenodd" stroke-width="1"></path>
    <path d="M23.93 11.34a2.11 2.11 0 0 0 -1.26 -1.41C20.82 9.26 20 12 20 12c-0.08 0.74 0.37 0.53 0 1a3.42 3.42 0 0 1 -2.94 1.14 5.27 5.27 0 0 1 -0.95 -0.17A5.37 5.37 0 0 1 14 12.86a0.3 0.3 0 0 0 -0.44 0.4A5.42 5.42 0 0 0 15.77 15a3.5 3.5 0 0 0 1.23 0.28 3.38 3.38 0 0 0 1.26 -0.14 4.19 4.19 0 0 0 2.28 -1.71 0.39 0.39 0 0 0 0.06 -0.21 0.39 0.39 0 0 0 0.1 0.08 2.1 2.1 0 0 0 0.76 0.28c-0.07 1.06 -0.17 2.12 -0.23 3.18l0 1.48 0 1.48c0 1.15 0.07 2.3 0.08 3.45a0.33 0.33 0 0 0 0.32 0.35 0.34 0.34 0 0 0 0.37 -0.32c0.11 -1.15 0.24 -2.3 0.31 -3.46 0 -0.49 0.06 -1 0.07 -1.48s0 -1 0 -1.49c0 -1.06 -0.14 -2.11 -0.22 -3.16a2.56 2.56 0 0 0 1.14 -0.35 1.73 1.73 0 0 0 0.63 -1.92Zm-1.32 1a1.36 1.36 0 0 1 -1.38 0.11c-0.15 -0.08 -0.28 -0.15 -0.32 -0.29a0.79 0.79 0 0 1 0.25 -0.75 2.29 2.29 0 0 1 0.27 -0.27c0.71 -0.52 0.61 -0.54 0.9 -0.39a1.16 1.16 0 0 1 0.59 0.85 0.68 0.68 0 0 1 -0.31 0.71Z" fill="#020202" fill-rule="evenodd" stroke-width="1"></path>
    <path d="M15.76 5.41a6.81 6.81 0 0 0 0.8 0.14 10.58 10.58 0 0 0 1.13 0.15c0.55 0 1.1 0 1.63 0.09 0.1 0 0.79 0.08 1.07 0.07a0.69 0.69 0 0 0 0.6 -0.34 2.54 2.54 0 0 0 0.22 -0.84c0.06 -0.53 0 -1.13 0 -1.61a4 4 0 0 0 0 -0.62 0.69 0.69 0 0 0 -0.12 -0.32 1.6 1.6 0 0 0 -1 -0.43 13.23 13.23 0 0 0 -1.8 0l-2.5 0.14c-0.23 0 -0.51 0.08 -0.58 2.34a2.15 2.15 0 0 0 0.15 1 0.76 0.76 0 0 0 0.4 0.23Zm0.24 -2.9 2.29 0c0.21 0 0.73 0 1.24 0.07l0.63 0 0 0.35 0 1.35a2.12 2.12 0 0 1 -0.06 0.44c-0.26 0 -0.61 -0.14 -0.66 -0.14l-2.7 0c-0.08 0 -0.54 -0.19 -0.7 -0.11a2.64 2.64 0 0 1 -0.05 -0.6c-0.08 -0.46 0.01 -1.04 0.01 -1.36Z" fill="#020202" fill-rule="evenodd" stroke-width="1"></path>
  </g>
</svg>