<svg xmlns="http://www.w3.org/2000/svg" viewBox="0 0 24 24" id="Museum-Exhibition-Gallery--Streamline-Freehand">
  <desc>
    Museum Exhibition Gallery Streamline Icon: https://streamlinehq.com
  </desc>
  <title>museum-exhibition-gallery</title>
  <g>
    <path d="M23.34 20.9c-0.14 -1.27 -0.07 -2.51 -0.12 -3.76a14 14 0 0 0 -0.16 -1.68 11.43 11.43 0 0 0 -0.12 -1.68 1.21 1.21 0 0 0 -0.73 -0.86 5.69 5.69 0 0 0 -2.09 -0.29 28.24 28.24 0 0 0 -2.94 0.31c-0.63 0.09 -1.28 0.15 -2 0.19 -5.85 0.38 -5 -0.54 -5 2.66 0 1.66 0.13 3 0.1 4.82v2l0 0.57a0.5 0.5 0 0 0 0.22 0.38 2.66 2.66 0 0 0 1.11 0.41 9.33 9.33 0 0 0 1.56 0.07c1 0 1.93 0 2.9 -0.05 0.65 0 1.3 -0.06 1.94 -0.11l3.28 -0.28c0.18 0 0.7 0.05 1 0a1 1 0 0 0 0.53 -0.21 1.47 1.47 0 0 0 0.48 -0.87 5.88 5.88 0 0 0 0.04 -1.62Zm-1.45 0.51a3.7 3.7 0 0 0 -0.33 -0.36 2.6 2.6 0 0 0 -0.36 -0.3c-0.2 -0.15 -0.4 -0.26 -0.6 -0.39a2.51 2.51 0 0 0 0.08 -0.33 2.65 2.65 0 0 0 0.05 -0.56c0 -0.37 -0.05 -0.74 -0.07 -1.11 0 -0.56 0 -1.21 -0.09 -1.82a4.67 4.67 0 0 0 -0.17 -0.76l0.57 -0.46c0.12 -0.1 0.23 -0.21 0.34 -0.32a3.65 3.65 0 0 0 0.31 -0.36 6.37 6.37 0 0 0 0.35 -0.55s0 0.08 0 0.12c0.06 0.48 0 1 0 1.4a9.32 9.32 0 0 1 0.09 1c0.07 1.46 -0.05 2.89 0.09 4.37a7.55 7.55 0 0 1 0.07 0.93 5.77 5.77 0 0 0 -0.33 -0.5ZM11.62 22c-0.13 0.17 -0.24 0.34 -0.36 0.52l0 -1.88c0 -1.83 -0.19 -3.17 -0.27 -4.84l0 -1.13 0.47 0.43 0.37 0.28 0.4 0.25c0.29 0.17 0.59 0.31 0.89 0.47l0 1.81 0 1.39 -0.06 1.06a2 2 0 0 0 0 0.35l0 0.07c-0.25 0.19 -0.5 0.35 -0.73 0.55s-0.22 0.21 -0.32 0.32 -0.31 0.2 -0.39 0.35Zm5.47 -5.8 1.16 0 1.15 0.08h0.07a3 3 0 0 1 0.06 0.61l0 1.53 0 0.91a2 2 0 0 1 0 0.49l0 0.16c-0.2 0 -0.48 -0.09 -0.59 -0.09l-2.63 0.11 -2.2 0.23a2.69 2.69 0 0 1 -0.29 0v-0.93l-0.15 -3Zm-1.82 -2.23c0.69 0 1.37 -0.07 2 -0.14a24.74 24.74 0 0 1 2.85 -0.23 6.39 6.39 0 0 1 1 0.1 2.61 2.61 0 0 0 -0.3 0.2 2.9 2.9 0 0 0 -0.36 0.34 3.57 3.57 0 0 0 -0.3 0.38 7.34 7.34 0 0 0 -0.42 0.71l-0.24 0 -1.25 0 -1.19 0.05 -3.47 0.27a0.18 0.18 0 0 0 -0.07 -0.05c-0.24 -0.28 -0.46 -0.55 -0.72 -0.8a3.09 3.09 0 0 0 -0.39 -0.33 2.43 2.43 0 0 0 -0.44 -0.26 3 3 0 0 0 -0.32 -0.12c1.18 -0.09 2.41 -0.09 3.62 -0.15Zm6 8.46 -3.3 0.31 -4.76 0.26A9.21 9.21 0 0 1 12 23a3.18 3.18 0 0 0 0.37 -0.27 2.66 2.66 0 0 0 0.35 -0.32 3.47 3.47 0 0 0 0.3 -0.37 6.4 6.4 0 0 0 0.41 -0.83 3.4 3.4 0 0 0 0.68 0l2.28 -0.1L19 21a8.06 8.06 0 0 0 0.84 0 0.84 0.84 0 0 0 0.24 -0.06 4.88 4.88 0 0 0 0.49 0.7 3.78 3.78 0 0 0 0.56 0.5l0.33 0.25Z" fill="#020202" fill-rule="evenodd" stroke-width="1"></path>
    <path d="M19.24 6.65a3.46 3.46 0 0 0 -0.44 -0.6 7.81 7.81 0 0 0 -0.91 -0.87c-0.5 -0.42 -1.07 -0.84 -1.42 -1.1 -0.7 -0.52 -1.18 -0.86 -1.63 -1.14s-1 -0.61 -1.72 -1c-3.82 -2 -3.76 -2 -4 -1.85 -0.79 0.53 -1.56 1.11 -2.3 1.72 -1.12 0.91 -2.2 1.86 -3.27 2.83L1.62 6.49l-0.38 0.39C1.18 7 1 7 1 7.1a0.58 0.58 0 0 0 -0.12 0.37 0.51 0.51 0 0 0 0.3 0.44 6.14 6.14 0 0 0 1.45 0.53l0 3.25c0 0.67 0.09 1.34 0.15 2 0.1 1 0.22 1.91 0.3 2.86 -0.74 0.12 -1.48 0.26 -2.23 0.37a0.31 0.31 0 0 0 -0.28 0.32 0.3 0.3 0 0 0 0.32 0.29c1 0 2 0.09 3 0.05 0.6 0 1.19 -0.09 1.79 -0.16L8.39 17a0.35 0.35 0 0 0 0.33 -0.36 0.33 0.33 0 0 0 -0.36 -0.32 30.53 30.53 0 0 0 -3.78 0l-0.77 0.08c0 -0.91 0.09 -1.82 0.08 -2.73l0 -1.28c0 -0.42 -0.07 -0.85 -0.12 -1.27 -0.12 -0.88 -0.3 -1.75 -0.46 -2.62 0.23 0 0.46 0.06 0.7 0.07a27.49 27.49 0 0 0 4.11 -0.17l1.36 -0.11a6.85 6.85 0 0 0 -0.12 1.28 4.29 4.29 0 0 0 0.12 0.8c0.09 0.41 0.23 0.78 0.33 1.17a0.34 0.34 0 0 0 0.37 0.32 0.35 0.35 0 0 0 0.32 -0.37c0 -0.41 0.07 -0.8 0.07 -1.22a4.36 4.36 0 0 0 0 -0.51 2.81 2.81 0 0 0 -0.09 -0.49c-0.08 -0.36 -0.21 -0.68 -0.31 -1l0.6 -0.05s0.18 0 3.95 -0.21c0.45 0 0.9 -0.06 1.34 -0.11l0.68 -0.08a8.09 8.09 0 0 0 -0.09 1 4.41 4.41 0 0 0 0 0.52 4.54 4.54 0 0 0 0.09 0.51c0.09 0.41 0.22 0.78 0.31 1.18a0.35 0.35 0 0 0 0.37 0.32 0.35 0.35 0 0 0 0.32 -0.37c0 -0.42 0.08 -0.82 0.08 -1.24a4.69 4.69 0 0 0 0 -0.53 4.54 4.54 0 0 0 -0.09 -0.51c-0.08 -0.33 -0.19 -0.64 -0.3 -1l0.57 -0.07c0.05 0 0.6 0 0.81 -0.08a0.58 0.58 0 0 0 0.5 -0.45 0.77 0.77 0 0 0 -0.07 -0.45Zm-1.35 -0.06 -3.24 0.26c-1.33 0.05 -2.66 0.1 -4 0.19 -0.89 0 -1.77 0.13 -2.66 0.21a28.42 28.42 0 0 1 -4 0.3 7.2 7.2 0 0 1 -1.81 -0.28l0.11 -0.13 1.86 -1.88c1 -1 2 -2 3.12 -2.91 0.65 -0.57 1.32 -1.13 2 -1.65l3.44 1.91c0.68 0.42 1.14 0.7 1.64 1s0.89 0.64 1.56 1.16c0.33 0.26 0.86 0.69 1.33 1.11a7 7 0 0 1 0.67 0.66Z" fill="#020202" fill-rule="evenodd" stroke-width="1"></path>
    <path d="M6.14 11.9c0.05 0.7 0.15 1.4 0.25 2.09s0.17 1.07 0.28 1.81c0.37 0.53 0.63 0.46 0.82 0l0 -1.81c0 -0.44 -0.06 -0.88 -0.11 -1.32s-0.1 -0.87 -0.18 -1.3c-0.14 -0.87 -0.29 -1.49 -0.43 -2.36 -0.17 -0.52 -0.64 -0.39 -0.68 0 -0.01 0.99 -0.03 1.83 0.05 2.89Z" fill="#4C57E6" fill-rule="evenodd" stroke-width="1"></path>
    <path d="M12.93 9.23a6.6 6.6 0 0 0 0.14 0.89c0.09 0.44 0.23 0.86 0.31 1.3a0.35 0.35 0 0 0 0.69 0 9 9 0 0 0 0.09 -1.42 5.49 5.49 0 0 0 0 -0.58 5 5 0 0 0 -0.16 -0.53c-0.06 -0.21 -0.13 -0.41 -0.2 -0.61 -0.38 -0.28 -0.65 -0.22 -0.87 0.05a6.76 6.76 0 0 0 0 0.9Z" fill="#4C57E6" fill-rule="evenodd" stroke-width="1"></path>
  </g>
</svg>