<svg xmlns="http://www.w3.org/2000/svg" viewBox="0 0 24 24" id="Music-Sound--Streamline-Freehand">
  <desc>
    Music Sound Streamline Icon: https://streamlinehq.com
  </desc>
  <g>
    <path d="M1.55 9.21s-0.14 0.07 -0.18 0.31c-0.12 0.76 -0.4 3.5 0.37 3.39 0.35 0 0.32 -0.29 0.47 -1.6a4.15 4.15 0 0 0 0 -0.61c0 -0.11 -0.15 -1.32 -0.38 -1.5s-0.18 -0.03 -0.28 0.01Z" fill="#020202" fill-rule="evenodd" stroke-width="1"></path>
    <path d="M22.46 9c-0.61 -0.19 -0.64 0.85 -0.68 1.5a4 4 0 0 0 0 0.6c0.17 1.48 0.16 1.61 0.47 1.61 0.14 0 0.24 -0.07 0.34 -0.21 0.3 -0.44 0.22 -3.41 -0.13 -3.5Z" fill="#020202" fill-rule="evenodd" stroke-width="1"></path>
    <path d="M4.89 6.44a0.27 0.27 0 0 0 -0.29 -0.25c-0.36 0 -0.29 0.26 -0.4 2.5 0 0.64 -0.21 2.05 -0.24 3.74a37 37 0 0 0 0.3 4.57 0.35 0.35 0 0 0 0.66 -0.12 13.25 13.25 0 0 1 0 -1.94 55.94 55.94 0 0 0 -0.03 -8.5Z" fill="#020202" fill-rule="evenodd" stroke-width="1"></path>
    <path d="M19.81 8.46c0 0.07 -0.06 -2.19 -0.13 -2.32a0.31 0.31 0 0 0 -0.27 -0.14c-0.45 0 -0.19 0.41 -0.43 2.5s0.12 8.5 0.42 8.5a0.36 0.36 0 0 0 0.34 -0.2 37.83 37.83 0 0 0 0.31 -4.56c-0.05 -1.72 -0.2 -3.09 -0.24 -3.78Z" fill="#020202" fill-rule="evenodd" stroke-width="1"></path>
    <path d="M8.29 3.44a0.27 0.27 0 0 0 -0.37 0.12c-0.12 0.2 -0.09 0.31 -0.17 2.87A56.58 56.58 0 0 0 8 17.73c0.11 1.24 0.14 1.76 0.28 1.9s0.35 0.15 0.47 0a7.42 7.42 0 0 0 0 -1.94c0 -0.3 -0.11 -14.06 -0.46 -14.25Z" fill="#4C57E6" fill-rule="evenodd" stroke-width="1"></path>
    <path d="M16.09 3.32a0.27 0.27 0 0 0 -0.37 -0.11c-0.25 0.13 -0.22 6.2 -0.47 14.23 -0.05 1.64 -0.16 1.81 0 1.89s0.43 0.18 0.5 -0.14 0.49 -5.19 0.5 -5.26a64.41 64.41 0 0 0 0 -7.73c0.02 0.19 -0.07 -2.73 -0.16 -2.88Z" fill="#4C57E6" fill-rule="evenodd" stroke-width="1"></path>
    <path d="M12.35 0.1a0.29 0.29 0 0 0 -0.22 -0.1c-0.39 0 -0.33 0.45 -0.42 1.92 -0.86 7.39 -0.28 22.57 0.22 22 0.44 0.55 0.23 -2.75 0.27 -6.68 0.1 -7.8 0.19 -3.67 0.06 -11.2 -0.08 -2.35 0.22 -5.78 0.09 -5.94Z" fill="#4C57E6" fill-rule="evenodd" stroke-width="1"></path>
  </g>
</svg>