<svg xmlns="http://www.w3.org/2000/svg" viewBox="0 0 24 24" id="Music-Genre-Album-Anarchist--Streamline-Freehand">
  <desc>
    Music Genre Album Anarchist Streamline Icon: https://streamlinehq.com
  </desc>
  <g>
    <path d="M13.6 9a4.41 4.41 0 0 0 -1.89 -1.51 2.76 2.76 0 0 0 -0.44 -1.57 0.72 0.72 0 0 0 -0.95 0.17c-0.17 0.22 -0.49 0.7 -0.68 1a5.79 5.79 0 0 0 -6.07 3.71c-0.34 -0.11 -1 -0.34 -1.18 0a0.3 0.3 0 0 0 0 0.29 3.19 3.19 0 0 0 1 0.39A3.88 3.88 0 0 0 4.24 15c-0.27 0.46 -0.82 1.36 -0.71 1.88a0.3 0.3 0 0 0 0.58 -0.11c0 -0.26 0.49 -1.07 0.64 -1.3a7.72 7.72 0 0 0 5.11 1.3 4.52 4.52 0 0 0 1.89 -0.71c0 0.08 -0.58 1.15 0.24 1.33 0.19 0 0.41 -0.51 0.45 -1a6 6 0 0 0 0 -0.85c0.18 -0.16 0.36 -0.33 0.53 -0.51 0.84 -0.94 0.41 -0.88 0.88 -0.74 2.18 0.68 2.33 -0.16 1.87 -0.6s-0.1 0.45 -1.73 -0.23A4.69 4.69 0 0 0 13.6 9Zm-0.44 4.1c-0.31 -0.15 -0.67 -0.32 -1 -0.44 -0.14 -1.89 -0.15 -2.68 -0.35 -4.21 1.64 0.69 2.19 3.04 1.35 4.67Zm-8.33 0.9a3 3 0 0 1 -0.47 -2.17c0.83 0.29 0.47 0.21 1.51 0.52A15.8 15.8 0 0 0 4.83 14Zm5.82 -6.1c0.33 1.79 0.34 2.05 0.62 4.47a23.3 23.3 0 0 0 -3.75 -0.72c3.3 -4.16 2.83 -3.81 3.13 -3.76Zm-1.54 -0.09c-2 2.72 -0.83 1.07 -2.66 3.67a12.75 12.75 0 0 1 -1.88 -0.41 4.9 4.9 0 0 1 4.54 -3.26Zm0.65 7.91a6.8 6.8 0 0 1 -4.4 -1.18c0.7 -1 1.13 -1.57 1.43 -1.95 1.52 0.34 3.31 0.53 4.62 0.9 0.23 1.55 0.2 1.37 0.22 1.45a3.73 3.73 0 0 1 -1.87 0.78Zm2.57 -1.42c0 -0.17 0 -0.4 -0.06 -0.53l0.39 0.13c-0.1 0.1 -0.22 0.27 -0.33 0.4Z" fill="#4C57E6" fill-rule="evenodd" stroke-width="1"></path>
    <path d="M22.6 7.48c-1 -1 -3.92 -2.52 -4.56 -1.73 0 -0.48 0.06 -1.35 -0.28 -1.68 -0.89 -0.88 -3.12 -0.94 -4.39 -1.07A104.84 104.84 0 0 0 1.88 3a0.34 0.34 0 1 0 0 0.67 100.52 100.52 0 0 1 11.39 0.23c0.91 0.11 3.12 0.24 3.78 0.84a8.64 8.64 0 0 1 0 1.78c0 2.2 0 4.4 -0.19 6.61 -0.1 1.7 0.08 3.57 -0.06 5.2a10.82 10.82 0 0 1 0 1.48c-0.82 0.34 -2.43 0.13 -3.39 0.22a42.79 42.79 0 0 1 -8.88 -0.54c-3.41 -0.4 -3.42 0.81 -3.58 -1.73 -0.06 -1 0 -2 0 -2.89 0 -3.7 0.26 -7.26 0.4 -11a0.3 0.3 0 0 0 -0.59 0C0.49 7.48 0.12 11.2 0.08 14.83c0 1.58 -0.31 3.62 0.36 5 0.25 0.52 0.86 0.49 1.39 0.5 4.31 0.05 7.18 1.16 11.63 0.77 1.15 -0.1 2.59 0.13 3.71 -0.43 1.34 -0.67 0.67 -10.73 0.83 -14.57a5.64 5.64 0 0 1 3.61 1.74c2.33 2.36 1.1 7.6 -1.33 9.34 -0.4 0.28 -0.94 0.85 -1.35 0.87a0.34 0.34 0 1 0 0 0.67c0.68 0 1.29 -0.58 1.78 -0.89 3.21 -1.98 4.51 -7.65 1.89 -10.35Z" fill="#020202" fill-rule="evenodd" stroke-width="1"></path>
    <path d="M18.51 13.37c-0.33 0.45 -0.3 1.16 0.27 1 1.73 -1.12 1.82 -1.76 1.6 -3.12a1.6 1.6 0 0 0 -0.89 -1.25c-0.19 -0.06 -0.51 -0.3 -0.83 -0.21s-0.57 0.7 -0.1 0.78c1.58 0.75 0.58 2.43 -0.05 2.8Z" fill="#020202" fill-rule="evenodd" stroke-width="1"></path>
  </g>
</svg>