<svg xmlns="http://www.w3.org/2000/svg" viewBox="0 0 24 24" id="Music-Compose--Streamline-Freehand">
  <desc>
    Music Compose Streamline Icon: https://streamlinehq.com
  </desc>
  <g>
    <path d="M3.9 14.75a2.28 2.28 0 0 0 1.58 -2.07 2 2 0 0 0 -0.21 -0.92c0 -0.25 -0.06 -0.51 -0.1 -0.78 -0.17 -1.3 -0.42 -2.77 -0.55 -3.75 -0.35 -1.73 -0.42 -1.08 0.28 -1.45l2.72 -1.32s0.64 -1 1.33 1.27a10.06 10.06 0 0 1 0.37 1.94c-1.14 -0.54 -2.42 0.66 -2.45 0.68a2.09 2.09 0 0 0 -0.5 0.77A1.67 1.67 0 0 0 6.8 11a2 2 0 0 0 1.85 0.45 2.3 2.3 0 0 0 1.58 -2.08 1.86 1.86 0 0 0 -0.11 -0.71 12.4 12.4 0 0 0 -0.24 -3.13 3.67 3.67 0 0 0 -1.42 -2.41 0.79 0.79 0 0 0 -0.61 0 4.75 4.75 0 0 0 -0.76 0.33c-0.63 0.31 -1.29 0.57 -1.93 0.88 -0.29 0.13 -0.57 0.28 -0.85 0.44a4.93 4.93 0 0 0 -0.8 0.51 0.88 0.88 0 0 0 -0.28 0.46 1.44 1.44 0 0 0 0 0.71c0.08 0.35 0.25 0.76 0.3 1 0.2 0.93 0.56 2.32 0.84 3.58a1.65 1.65 0 0 0 -0.57 -0.14 3.79 3.79 0 0 0 -1.7 0.86 2.18 2.18 0 0 0 -0.5 0.77 1.66 1.66 0 0 0 0.43 1.83 2 2 0 0 0 1.87 0.4Zm4.43 -4.51a0.88 0.88 0 0 1 -0.76 -0.16 0.71 0.71 0 0 1 -0.3 -0.7 1.35 1.35 0 0 1 0.3 -0.61c1.12 -1.27 1.75 -0.14 1.66 0.46a1.2 1.2 0 0 1 -0.9 1.01Zm-5.51 1.89c0.14 -0.16 0.6 -0.6 0.92 -0.57a0.86 0.86 0 0 1 0.74 1 1.18 1.18 0 0 1 -0.9 1 0.83 0.83 0 0 1 -0.76 -0.15 0.71 0.71 0 0 1 -0.3 -0.7 1.4 1.4 0 0 1 0.3 -0.58Z" fill="#020202" fill-rule="evenodd" stroke-width="1"></path>
    <path d="M9.71 13c-0.14 0.38 -0.22 0.85 -0.32 1.16l-0.73 2.92a0.32 0.32 0 0 0 -0.26 -0.25 3.15 3.15 0 0 0 -0.52 0 2.57 2.57 0 0 0 -0.55 0.06 1.38 1.38 0 0 0 -1 1.82 1.49 1.49 0 0 0 1.9 1.19 2 2 0 0 0 1 -0.85 7.31 7.31 0 0 0 0.61 -1.42c0.17 -0.52 0.28 -0.91 0.36 -1.27 0.13 -0.55 0.21 -1 0.41 -1.85 0.05 -0.24 0.09 -0.57 0.17 -0.88l0.74 0.6c0.4 0.38 0.65 0.66 0.68 1a2.21 2.21 0 0 1 -0.41 1.24 0.35 0.35 0 0 0 0.12 0.5 0.36 0.36 0 0 0 0.49 -0.12 3 3 0 0 0 0.6 -1.68 2.53 2.53 0 0 0 -0.82 -1.65l-1.05 -1 -0.29 -0.24a0.62 0.62 0 0 0 -0.79 0.11 2.24 2.24 0 0 0 -0.34 0.61Zm-1.52 5.43c-0.1 0.19 -0.19 0.38 -0.37 0.45 -0.41 0.18 -0.71 -0.29 -0.74 -0.69a0.58 0.58 0 0 1 0.42 -0.66 1.77 1.77 0 0 1 0.4 -0.08 1.89 1.89 0 0 1 0.41 0 0.35 0.35 0 0 0 0.28 -0.1 5.64 5.64 0 0 1 -0.4 1.08Z" fill="#020202" fill-rule="evenodd" stroke-width="1"></path>
    <path d="M23 3A3.9 3.9 0 0 0 20.11 0.09a3.65 3.65 0 0 0 -3.82 1.55 7.17 7.17 0 0 0 -1.09 2.48 22.86 22.86 0 0 0 -0.5 3.82c-0.15 1.81 -0.28 3.87 -0.34 5.9 -0.15 4.79 0 4.61 0.05 5.08a10.78 10.78 0 0 0 0.29 2.23 2.07 2.07 0 0 0 0.69 1 1.5 1.5 0 0 0 1.9 -0.18l0.58 -0.59a2.72 2.72 0 0 0 0.27 -0.42 6 6 0 0 0 0.3 -0.63l0.56 -1.68a0.33 0.33 0 0 0 -0.08 -0.34l2.48 -7.55c0.47 -1.38 1.2 -2.88 1.6 -4.42A7.52 7.52 0 0 0 23 3Zm-5.76 -0.66a2.49 2.49 0 0 1 2.59 -1.06 2.75 2.75 0 0 1 2 2 3.47 3.47 0 0 1 0.08 0.55c-0.32 0 -0.62 0 -0.93 -0.09a16.38 16.38 0 0 1 -1.78 -0.42c-0.73 -0.2 -1.47 -0.42 -2.2 -0.66 0.12 -0.09 0.18 -0.22 0.26 -0.33ZM15.7 8a24.11 24.11 0 0 1 0.6 -3.63 7.73 7.73 0 0 1 0.38 -1.05 12.81 12.81 0 0 0 1.74 1c0.18 0.07 0.37 0.12 0.55 0.18l-1.1 4.07c-0.21 0.83 -0.45 1.66 -0.66 2.49 -0.14 0.57 -0.25 1.13 -0.37 1.7a33 33 0 0 0 -0.57 4.32 0.32 0.32 0 0 0 0 0.09L16 17.1c-0.32 0 -0.64 0 -1 -0.05 0 -1 0.05 -2.09 0.13 -3.18 0.14 -2 0.35 -4.04 0.57 -5.87Zm1.88 11.9 -0.55 0.77 -0.42 0.34c-0.32 0.22 -0.51 0.2 -0.65 0a8.16 8.16 0 0 1 -0.77 -2.28l-0.26 -0.73c0.25 0.11 0.5 0.22 0.76 0.31a4.44 4.44 0 0 0 0.62 0.19q0.32 0.07 0.63 0.12c0.42 0.07 0.84 0.1 1.26 0.13Zm2.92 -9.47 -2.19 7.39c-0.36 -0.15 -0.71 -0.3 -1.08 -0.43l-0.33 -0.1a0.44 0.44 0 0 0 0.09 -0.18c0.12 -0.84 0.3 -1.67 0.49 -2.49 0.23 -1 0.53 -1.92 0.79 -2.88s0.49 -2 0.72 -2.93l0.64 -4.16a7.62 7.62 0 0 0 0.94 0.14 6.8 6.8 0 0 0 1.49 -0.07 7.43 7.43 0 0 1 -0.16 1.33c-0.32 1.56 -1.01 3.06 -1.4 4.42Z" fill="#020202" fill-rule="evenodd" stroke-width="1"></path>
    <path d="M14.92 23.08a12.91 12.91 0 0 1 -2.33 0 4.21 4.21 0 0 1 -1.37 -0.37c-0.08 0 -0.13 -0.16 -0.22 -0.28s-0.37 -0.58 -0.55 -0.78a1.07 1.07 0 0 0 -0.7 -0.41 1.4 1.4 0 0 0 -0.62 0.15 7.94 7.94 0 0 0 -0.7 0.45 7.1 7.1 0 0 1 -1.21 0.65 1.63 1.63 0 0 1 -0.73 0.12 1.35 1.35 0 0 1 -0.64 -0.21 12.83 12.83 0 0 0 -1.26 -0.78 2.25 2.25 0 0 0 -1.85 0 4.78 4.78 0 0 0 -1.87 1.63 0.31 0.31 0 0 0 0.49 0.39 4.78 4.78 0 0 1 1.37 -1.1 1.49 1.49 0 0 1 1.42 0c0.51 0.28 0.86 0.72 1.34 1a2.27 2.27 0 0 0 0.89 0.28 2.85 2.85 0 0 0 1.24 -0.16 7.39 7.39 0 0 0 1.44 -0.77c0.09 -0.06 0.3 -0.29 0.46 -0.42 0 0.2 0.49 0.48 0.7 0.72a1.62 1.62 0 0 0 0.59 0.48 5 5 0 0 0 1.72 0.34 14.28 14.28 0 0 0 2.47 -0.22 0.36 0.36 0 1 0 -0.08 -0.71Z" fill="#4C57E6" fill-rule="evenodd" stroke-width="1"></path>
  </g>
</svg>