<svg xmlns="http://www.w3.org/2000/svg" viewBox="0 0 24 24" id="Music-Note-Bubble-2--Streamline-Freehand">
  <desc>
    Music Note Bubble 2 Streamline Icon: https://streamlinehq.com
  </desc>
  <g>
    <path d="M13.06 10.36a30.91 30.91 0 0 0 0.31 -3.74 4.49 4.49 0 0 0 -0.46 -1.95 0.86 0.86 0 0 0 -0.61 -0.41 2.42 2.42 0 0 0 -1.21 0.17A26.13 26.13 0 0 0 7 6.67a0.63 0.63 0 0 0 -0.29 0.51l0.11 2.3c0.06 0.71 0.13 1.2 0.17 1.68 0 0 -0.07 -0.06 -0.13 -0.08a2.66 2.66 0 0 0 -2.96 1.74c-0.21 0.79 0.11 1.62 1.48 2a2.28 2.28 0 0 0 2.4 -1.33 1.8 1.8 0 0 0 0 -1.52l0 -0.3 0 -2.2 0.12 -1.92 1.92 -1.08A10.38 10.38 0 0 1 12 5.5a4.3 4.3 0 0 1 0.34 1.75l0 2.08c-1.49 -0.91 -3 0.75 -3.25 1.54s0.12 1.62 1.48 2a2.28 2.28 0 0 0 2.4 -1.33 2 2 0 0 0 0.09 -1.18ZM5.67 13.5c-0.56 -0.09 -0.69 -0.39 -0.54 -0.71 0.8 -1.73 2 -1 1.79 -0.08a1.08 1.08 0 0 1 -1.25 0.79Zm5.14 -1.95c-0.55 -0.09 -0.69 -0.39 -0.54 -0.71 0.81 -1.73 2 -0.95 1.8 -0.08a1.09 1.09 0 0 1 -1.26 0.79Z" fill="#020202" fill-rule="evenodd" stroke-width="1"></path>
    <path d="M21.77 4.39A11.17 11.17 0 0 0 14.28 0.18 17.81 17.81 0 0 0 7.84 1a12.3 12.3 0 0 0 -5.46 3.61A10.15 10.15 0 0 0 0 10a6.46 6.46 0 0 0 1.9 5.45 7.33 7.33 0 0 0 1.8 1.27 12.78 12.78 0 0 0 2.73 0.94l1.13 3.69 0.52 1.37c0.08 0.18 0.11 0.58 0.2 0.73a0.75 0.75 0 0 0 0.4 0.34 0.68 0.68 0 0 0 0.68 -0.1 4.21 4.21 0 0 0 1.22 -1.63 29.68 29.68 0 0 0 1.19 -4 0.38 0.38 0 0 0 -0.23 -0.5 0.4 0.4 0 0 0 -0.5 0.23c-0.36 0.84 -0.76 2.12 -1.29 3.21a7 7 0 0 1 -0.55 1l-0.5 -1.15 -1.54 -3.34a0.34 0.34 0 0 0 -0.16 -0.4 0.35 0.35 0 0 0 -0.42 -0.17 11.3 11.3 0 0 1 -2 -0.69 6.93 6.93 0 0 1 -2 -1.4A5.6 5.6 0 0 1 1 10.08a8.92 8.92 0 0 1 2.22 -4.7 11.34 11.34 0 0 1 5 -3.13 16.77 16.77 0 0 1 6 -0.75 9.9 9.9 0 0 1 6.6 3.68c1.73 2.06 2.68 4.68 1.66 7.09a7.82 7.82 0 0 1 -3.63 4.07 12.53 12.53 0 0 1 -5.51 1.25 0.38 0.38 0 0 0 -0.34 0.41 0.39 0.39 0 0 0 0.39 0.39 13.27 13.27 0 0 0 5.91 -1.23 8.75 8.75 0 0 0 4.18 -4.45c1.2 -2.79 0.26 -5.89 -1.71 -8.32Z" fill="#020202" fill-rule="evenodd" stroke-width="1"></path>
    <path d="M16.49 7.42a5.58 5.58 0 0 0 0.82 0c0.42 0 0.8 -0.1 1.22 -0.08a0.39 0.39 0 0 0 0.17 -0.76 6.34 6.34 0 0 0 -1.28 -0.4 2.55 2.55 0 0 0 -0.54 -0.06 2.4 2.4 0 0 0 -0.54 0c-0.43 0 -0.82 0.18 -1.24 0.25a0.34 0.34 0 1 0 0 0.68 8.29 8.29 0 0 0 1.39 0.37Z" fill="#4C57E6" fill-rule="evenodd" stroke-width="1"></path>
    <path d="M14.4 10.46a0.35 0.35 0 0 0 0.39 0.29c0.64 0 1.26 0.05 1.91 0l0.8 0 0.8 -0.1c0.64 -0.09 1.25 -0.2 1.88 -0.27a0.4 0.4 0 0 0 0.4 -0.38 0.4 0.4 0 0 0 -0.39 -0.4c-0.65 -0.08 -1.29 -0.16 -2 -0.18a7.85 7.85 0 0 0 -0.84 0 7.53 7.53 0 0 0 -0.83 0.11 19.31 19.31 0 0 0 -1.88 0.53 0.34 0.34 0 0 0 -0.24 0.4Z" fill="#4C57E6" fill-rule="evenodd" stroke-width="1"></path>
  </g>
</svg>