<svg xmlns="http://www.w3.org/2000/svg" viewBox="0 0 24 24" id="Music-Genre-Exercise--Streamline-Freehand">
  <desc>
    Music Genre Exercise Streamline Icon: https://streamlinehq.com
  </desc>
  <g>
    <path d="M23.17 13.69c-1.11 -0.75 -5.16 0.59 -5.8 1.05 -1.27 0.9 -0.9 2 -0.85 4.58a2.39 2.39 0 0 0 -3.06 3.22 2.11 2.11 0 0 0 3.22 0.58c1.18 -1.16 0.89 -4.24 0.94 -6.88 0.18 -0.87 1.89 -1.12 2.73 -1.31a13.46 13.46 0 0 1 1.52 -0.38c0.81 -0.1 0.62 0 0.76 0.57A13.22 13.22 0 0 1 23 18a1.77 1.77 0 0 0 -1.52 -0.29 2.65 2.65 0 0 0 -1.78 1.65c-0.42 1.41 1.17 2.5 2.64 2.17 2.38 -0.53 1.78 -7.2 0.83 -7.84Zm-7.74 9a1.27 1.27 0 0 1 -1.25 -0.59c-0.78 -1.32 1.05 -3.08 2.35 -2.08 -0.02 1.13 -0.1 2.64 -1.1 2.71Zm7.2 -2.59c-0.56 1.22 -2.73 0.42 -2.1 -0.78a1.92 1.92 0 0 1 1.11 -0.91c0.7 -0.21 1.17 0.39 1.28 0.44a3.77 3.77 0 0 1 -0.29 1.29Z" fill="#020202" fill-rule="evenodd" stroke-width="1"></path>
    <path d="M4.89 9.22c2 0 2.08 -2.06 1.75 -4A3.85 3.85 0 0 0 8.07 5s1.29 -0.52 1.33 -0.55 0.25 -0.29 0.23 -0.4 0 -0.26 -0.27 -0.32a9.07 9.07 0 0 0 -2.48 0.46l-0.4 0.19L6 2.4c0.08 0 3.65 -1.14 3.74 -1.19l0.37 -0.21a0.35 0.35 0 0 0 -0.23 -0.62 16.81 16.81 0 0 0 -3.65 1.07c-0.69 0.19 -1.34 0.06 -1.22 1.23 0.06 0.5 0.51 2.19 0.62 3.4 -1.36 -0.39 -2.94 1 -2.15 2.33a1.72 1.72 0 0 0 1.41 0.81Zm0.77 -2.43c0 0.7 -0.1 1.38 -0.78 1.4a0.73 0.73 0 0 1 -0.62 -0.29c-0.44 -0.62 0.65 -1.4 1.4 -1.11Z" fill="#020202" fill-rule="evenodd" stroke-width="1"></path>
    <path d="M15.18 2.67c-1 0 -1.45 0.6 -1.42 1.1s0.17 0.93 0.5 0.93a0.29 0.29 0 0 0 0.28 -0.41c-0.15 -0.61 -0.08 -1 0.7 -0.76 1.89 0.46 5.54 5.06 6.2 6.89a0.34 0.34 0 0 0 0.65 -0.22 14.29 14.29 0 0 0 -2.62 -4.51c-1.27 -1.56 -2.86 -3 -4.29 -3.02Z" fill="#020202" fill-rule="evenodd" stroke-width="1"></path>
    <path d="M23.5 6.15c-1.74 -4.27 -5.27 -4.36 -5.92 -2.87 -0.14 0.32 0 0.6 0.42 0.34 0.18 -0.12 0.21 -0.22 0.39 -0.3a1.77 1.77 0 0 1 1.13 0.08c1.58 0.45 3.29 3.19 3.28 4a0.81 0.81 0 0 1 -0.29 0.63c-0.26 0.23 -0.28 0.26 -0.56 0.31 -0.45 0.15 -0.45 0.46 -0.1 0.65h0.26a1.66 1.66 0 0 0 0.9 -0.32 1.91 1.91 0 0 0 0.49 -2.52Z" fill="#020202" fill-rule="evenodd" stroke-width="1"></path>
    <path d="M12.45 8.9a25.08 25.08 0 0 0 -4.84 3.69c-1.07 1.05 -0.82 0.7 -1 0.94 -0.34 0.45 -0.18 1 0.22 0.78 1.25 -1 7.36 -5.45 8.38 -6.29 0.28 -0.43 0 -0.92 -0.77 -0.45Z" fill="#4C57E6" fill-rule="evenodd" stroke-width="1"></path>
    <path d="M8.38 16.35c-0.39 0.43 -0.23 1 0.16 0.78 2.57 -1.71 2.71 -1.77 3.4 -2.27 0.07 -0.06 4.17 -3.18 5.24 -4.08 0.35 -0.38 0 -0.71 -0.51 -0.55a59.41 59.41 0 0 0 -8.29 6.12Z" fill="#4C57E6" fill-rule="evenodd" stroke-width="1"></path>
    <path d="M19 11.42c-0.68 -0.95 -1.32 -2.09 -1.88 -2.94 -0.4 -0.59 -2.12 -3 -2.41 -3.43 -0.2 -0.3 -0.71 -0.14 -0.62 0.34 0 0.22 4 6 4.45 6.43a0.3 0.3 0 0 0 0.46 -0.4Z" fill="#020202" fill-rule="evenodd" stroke-width="1"></path>
    <path d="M6.46 14.52c-0.86 -1.16 -1.64 -2.1 -2 -1.82a0.34 0.34 0 0 0 -0.08 0.47c0.52 0.75 1.17 0.38 4.11 6.46a5.87 5.87 0 0 1 0.44 1.1c0.26 1 -0.12 1 -0.45 1.13 -1.48 0.4 -3.76 -3.28 -4.48 -4.43a8.61 8.61 0 0 1 -1.37 -3.6 2.62 2.62 0 0 1 0 -0.74c0.17 -0.92 0.63 -0.67 1 -0.35a0.3 0.3 0 0 0 0.49 -0.11c0.18 -0.41 -0.56 -0.68 -0.68 -0.8a1 1 0 0 0 -1 0.2c-0.31 0.27 -1.36 1.4 0.89 5.74 0.48 0.92 2.9 5.75 5.45 5 0.53 -0.15 0.71 -0.3 0.79 -1.08 0.16 -0.98 -1.48 -4.75 -3.11 -7.17Z" fill="#020202" fill-rule="evenodd" stroke-width="1"></path>
    <path d="M3.48 21.55a6.82 6.82 0 0 1 -2 -2.45 3.56 3.56 0 0 1 -0.4 -2.71 1.78 1.78 0 0 1 0.24 -0.45c0.15 -0.23 0.28 -0.23 0.55 -0.24s0 -0.64 -0.26 -0.64a1.24 1.24 0 0 0 -0.77 0.31 2.45 2.45 0 0 0 -0.79 1.5c-0.38 1.83 0.65 3.56 2 4.86a1.92 1.92 0 0 0 2.5 0.49 2.09 2.09 0 0 0 0.69 -0.88c0.1 -0.32 -0.42 -0.71 -0.6 -0.41s-0.43 0.91 -1.16 0.62Z" fill="#020202" fill-rule="evenodd" stroke-width="1"></path>
  </g>
</svg>