<svg xmlns="http://www.w3.org/2000/svg" viewBox="0 0 24 24" id="Mythology-Creature-Locus-1--Streamline-Freehand">
  <desc>
    Mythology Creature Locus 1 Streamline Icon: https://streamlinehq.com
  </desc>
  <title>mythology-creature-locus-1</title>
  <g>
    <path d="M4.71 19.66a2.71 2.71 0 0 1 -2.17 0 1.89 1.89 0 0 1 -0.35 -0.17c0.54 -0.58 1.08 -1.18 1.6 -1.78s0.87 -1 1.29 -1.57c0.67 -0.83 1.3 -1.68 1.91 -2.54 0.2 -0.28 0.94 -2.3 -0.13 -1 -0.39 0.47 -0.78 0.94 -1.18 1.39 -0.77 0.89 -1.59 1.73 -2.38 2.6S1.72 18.38 0.93 19.24a0.6 0.6 0 0 0 -0.14 0.43 0.55 0.55 0 0 0 0.21 0.39 4.81 4.81 0 0 0 0.55 0.37 3.17 3.17 0 0 0 0.62 0.28 3.68 3.68 0 0 0 2.94 -0.22 6.11 6.11 0 0 0 1.67 -1.4c0.36 -0.42 0.57 -1.84 0 -1.14a6 6 0 0 1 -2.07 1.71Z" fill="#4C57E6" fill-rule="evenodd" stroke-width="1"></path>
    <path d="m23.07 19.28 -2.32 -2.53c-0.78 -0.83 -1.57 -1.64 -2.33 -2.5 -0.42 -0.47 -0.83 -1 -1.23 -1.46 -0.57 -0.7 -0.39 0.6 -0.13 1 0.62 0.88 1.27 1.74 1.94 2.57 0.52 0.64 1 1.27 1.58 1.89 0.4 0.45 0.81 0.89 1.22 1.34a2.11 2.11 0 0 1 -0.34 0.16 2.65 2.65 0 0 1 -2.26 -0.15 7.92 7.92 0 0 1 -2.29 -2c-0.42 -0.51 -0.36 0.75 0 1.19a7.4 7.4 0 0 0 1.83 1.67 3.64 3.64 0 0 0 3.08 0.37 3.2 3.2 0 0 0 0.62 -0.29 3.78 3.78 0 0 0 0.56 -0.44 0.55 0.55 0 0 0 0.21 -0.39 0.6 0.6 0 0 0 -0.14 -0.43Z" fill="#4C57E6" fill-rule="evenodd" stroke-width="1"></path>
    <path d="M16.67 11.82c0.32 0.07 0.64 0.14 1 0.18a4.1 4.1 0 0 0 0.61 0 4 4 0 0 0 0.6 0c0.47 -0.05 0.92 -0.14 1.39 -0.2a0.34 0.34 0 1 0 0 -0.67c-0.47 -0.07 -0.92 -0.15 -1.4 -0.19l-0.6 0a5.72 5.72 0 0 0 -0.59 0c-0.34 0 -0.67 0.1 -1 0.15 0 -0.39 0 -0.8 -0.06 -1.24a3.88 3.88 0 0 0 2.67 -1.63 3.78 3.78 0 0 0 0.54 -1.27 5.58 5.58 0 0 0 0.12 -1.59l0.59 0a0.34 0.34 0 0 0 0.06 -0.67l-1.12 -0.08a0.41 0.41 0 0 0 -0.39 0.42 6.78 6.78 0 0 1 -0.33 1.67 5.39 5.39 0 0 1 -0.43 1 3.42 3.42 0 0 1 -1.75 1.56l0 -0.32a2 2 0 0 0 0.25 -0.26 3.58 3.58 0 0 0 0.54 -1.37 4.12 4.12 0 0 0 -0.49 -2.78 1.8 1.8 0 0 0 -1.77 -0.93l-0.05 0c0.09 -0.34 0.19 -0.65 0.3 -1a6.65 6.65 0 0 1 0.34 -0.77 3.23 3.23 0 0 1 0.78 -1.21 0.29 0.29 0 0 0 0.1 -0.4 0.3 0.3 0 0 0 -0.41 -0.1 3.17 3.17 0 0 0 -1.34 0.88 2.32 2.32 0 0 0 -0.37 0.62 3 3 0 0 0 -0.19 0.68 6.82 6.82 0 0 0 0 1.51 2 2 0 0 0 -0.41 0.41 4.06 4.06 0 0 0 -1.08 -0.45 3.09 3.09 0 0 0 -0.61 -0.08 2.4 2.4 0 0 0 -0.6 0.07 3.34 3.34 0 0 0 -1 0.44 1.8 1.8 0 0 0 -0.43 -0.44 6.55 6.55 0 0 0 0 -1.54 3 3 0 0 0 -0.19 -0.67A2.17 2.17 0 0 0 9.53 1a3.19 3.19 0 0 0 -1.34 -1 0.31 0.31 0 0 0 -0.41 0.1 0.3 0.3 0 0 0 0.1 0.41 3.23 3.23 0 0 1 0.83 1.18 6.65 6.65 0 0 1 0.34 0.77c0.11 0.32 0.22 0.65 0.31 1a0.33 0.33 0 0 0 -0.3 0.11c-1.42 -0.32 -2.33 0.96 -2.5 2.43A3.64 3.64 0 0 0 7 8.24a2.3 2.3 0 0 0 0.82 0.76l0 0.21a4 4 0 0 1 -1.56 -0.71A2.93 2.93 0 0 1 5.14 7a3.49 3.49 0 0 1 -0.2 -1A9.31 9.31 0 0 1 5 4.78a0.41 0.41 0 0 0 -0.07 -0.32 0.39 0.39 0 0 0 -0.3 -0.14l-1.07 0.07a0.3 0.3 0 0 0 0 0.6l0.55 0a5.71 5.71 0 0 0 -0.19 1.17 3.74 3.74 0 0 0 0.14 1.15 3.83 3.83 0 0 0 1.65 2 4.48 4.48 0 0 0 2 0.61q-0.08 0.51 -0.12 1c-0.38 -0.07 -0.76 -0.14 -1.16 -0.18a5.65 5.65 0 0 0 -0.59 0 6.08 6.08 0 0 0 -0.61 0 13.19 13.19 0 0 0 -1.41 0.26 0.3 0.3 0 0 0 0 0.59c0.47 0.06 0.91 0.16 1.38 0.2a3.75 3.75 0 0 0 0.58 0 5.68 5.68 0 0 0 0.59 0c0.37 0 0.74 -0.08 1.1 -0.13 0 0.07 -0.13 2.41 -0.15 3.08 -0.05 2.08 -0.32 4.26 0.44 6.36A4.76 4.76 0 0 0 11 23.8a4.16 4.16 0 0 0 4.08 -0.8 4.26 4.26 0 0 0 1.1 -2c0.02 -0.17 0.62 -2.74 0.49 -9.18ZM7.81 7.41a3 3 0 0 1 -0.3 -1.36c0 -1 0.45 -2 1.44 -1.86a0.37 0.37 0 0 0 0.23 -0.05l0.06 0c0.9 0.17 1 1.3 0.83 2.29a3.2 3.2 0 0 1 -0.56 1.27 0.86 0.86 0 0 1 -0.87 0.41 1.24 1.24 0 0 1 -0.83 -0.7ZM15.86 13c0 1.39 -0.17 2.78 -0.35 4.7a16.69 16.69 0 0 1 -0.38 2.93 3.1 3.1 0 0 1 -0.83 1.5 3.07 3.07 0 0 1 -3 0.56 3.67 3.67 0 0 1 -2.5 -2 7.82 7.82 0 0 1 -0.52 -2.27c-0.11 -1.23 -0.05 -2.5 -0.06 -3.7l0 -3c0.87 0 1.73 0.13 2.61 0.19l1 0c-0.12 1 -0.21 1.92 -0.24 2.89l0 1.67c0 0.55 0.05 1.11 0.07 1.67s0.07 1 0.09 1.5a7.69 7.69 0 0 1 0 1A0.34 0.34 0 0 0 12 21a0.33 0.33 0 0 0 0.38 -0.28 7.24 7.24 0 0 0 0.15 -1c0 -0.5 0.06 -1 0.1 -1.51s0.06 -0.72 0.07 -1.08l0 -1.62c0 -1.17 -0.18 -2.34 -0.22 -3.52l0.85 0 2.57 0Zm-2.57 -2.1c-0.67 -0.06 -1.35 -0.11 -2 -0.11a27.52 27.52 0 0 0 -3 0.24s0 -0.59 0.16 -1.79a1.8 1.8 0 0 0 1.71 -0.55A3.61 3.61 0 0 0 11 6.6a4.11 4.11 0 0 0 -0.14 -1.69l0.79 0h1.1q0.33 0 0.66 0.06a4 4 0 0 0 -0.22 0.67 3.91 3.91 0 0 0 0.22 2.54 2.38 2.38 0 0 0 0.6 0.72 2.64 2.64 0 0 0 0.83 0.4 2 2 0 0 0 0.55 0.08 1.21 1.21 0 0 0 0.42 -0.05l0 1.94c-0.81 -0.17 -1.65 -0.27 -2.52 -0.37Zm3 -3.9a3.22 3.22 0 0 1 -0.33 0.79 0.81 0.81 0 0 1 -0.44 0.4l-0.39 0a1.41 1.41 0 0 1 -0.44 -0.19 1.16 1.16 0 0 1 -0.32 -0.34A2.94 2.94 0 0 1 14 5.74a1.92 1.92 0 0 1 0.9 -1.59 0.29 0.29 0 0 0 0.18 0 1.09 1.09 0 0 1 1 0.67A3.16 3.16 0 0 1 16.3 7Z" fill="#020202" fill-rule="evenodd" stroke-width="1"></path>
  </g>
</svg>