<svg xmlns="http://www.w3.org/2000/svg" viewBox="0 0 24 24" id="Mythology-Creature-Dragon-2--Streamline-Freehand">
  <desc>
    Mythology Creature Dragon 2 Streamline Icon: https://streamlinehq.com
  </desc>
  <title>mythology-creature-dragon-2</title>
  <g>
    <path d="M12 10.92a4 4 0 0 0 -0.29 -1.39A9 9 0 0 0 11.15 8c-0.64 -0.73 -1.66 -1.09 -1.51 -0.53a6.85 6.85 0 0 1 1 2.38c0.06 0.22 0.15 0.52 0.23 0.84 0.13 0.69 1.13 1.67 1.13 0.23Z" fill="#4C57E6" fill-rule="evenodd" stroke-width="1"></path>
    <path d="M22 16.48a8.73 8.73 0 0 0 -0.78 -2.11 14.8 14.8 0 0 0 -0.91 -1.49 8.73 8.73 0 0 0 -1.15 -1.35 0.3 0.3 0 0 0 -0.42 0 0.29 0.29 0 0 0 0 0.42 8 8 0 0 1 1.06 1.26 14.56 14.56 0 0 1 0.85 1.43 8 8 0 0 1 0.69 2 9.07 9.07 0 0 1 0.24 2.07 4.12 4.12 0 0 1 -0.95 2.79A3.92 3.92 0 0 1 18 22.73a6.5 6.5 0 0 1 -4 -0.92 15.18 15.18 0 0 1 -3.27 -2.87c-0.77 -0.82 -1.52 -2.13 -2.34 -3.19a7.34 7.34 0 0 0 -1.26 -1.33 3.36 3.36 0 0 0 -2.32 -0.49 6.73 6.73 0 0 1 -1.9 0 1.13 1.13 0 0 1 -0.81 -0.86L2 12.3c0 -0.23 -0.05 -0.49 -0.06 -0.73s0 -0.22 0.05 -0.29a12.81 12.81 0 0 1 2.37 -1.74 20.58 20.58 0 0 1 2 -1l0 0.72a0.56 0.56 0 0 0 0.64 0.48 2.85 2.85 0 0 1 1.73 0.54c0.58 0.46 1.22 1.18 1.58 1.47 0.67 0.55 1.24 0 0.38 -1.06a13.1 13.1 0 0 0 -1.34 -1.36 4.42 4.42 0 0 0 -1.81 -0.68l-0.07 -0.94a0.58 0.58 0 0 0 -0.25 -0.46 0.55 0.55 0 0 0 -0.51 -0.07 18.48 18.48 0 0 0 -2.91 1.4 14.12 14.12 0 0 0 -2.63 1.93 1.21 1.21 0 0 0 -0.33 0.69 5.44 5.44 0 0 0 0 1.14 4.57 4.57 0 0 0 0.05 0.52 2.48 2.48 0 0 0 0.12 0.54 2.1 2.1 0 0 0 1.57 1.54 7.85 7.85 0 0 0 2.22 0 2.3 2.3 0 0 1 1.65 0.27 6.28 6.28 0 0 1 1.15 1.13c0.84 1.08 1.64 2.4 2.44 3.22A13.73 13.73 0 0 0 14.38 23a7.15 7.15 0 0 0 3.72 0.54A4.64 4.64 0 0 0 21.2 22a4.89 4.89 0 0 0 1.08 -3.27 10.38 10.38 0 0 0 -0.28 -2.25Z" fill="#020202" fill-rule="evenodd" stroke-width="1"></path>
    <path d="M16.12 11.17a10.12 10.12 0 0 0 -1.81 4.61 0.38 0.38 0 0 0 0.11 0.3A6.42 6.42 0 0 0 17 17.73a1.21 1.21 0 0 0 1.35 -0.73 0.33 0.33 0 0 0 -0.14 -0.45 0.34 0.34 0 0 0 -0.46 0.14c-0.22 0.43 -0.59 0.41 -1 0.26A6.59 6.59 0 0 1 15 15.68a9.55 9.55 0 0 1 1.7 -4.06c0.36 -0.49 0.37 -0.64 0.77 -0.9 0 -0.42 -0.56 -0.48 -0.89 -0.09a2.89 2.89 0 0 0 -0.46 0.54Z" fill="#4C57E6" fill-rule="evenodd" stroke-width="1"></path>
    <path d="M23.74 9.49a11.3 11.3 0 0 1 -2.58 -2.85A7.44 7.44 0 0 1 20 3.07a3 3 0 0 1 0.28 -0.95 3.06 3.06 0 0 0 0.24 -0.92 0.73 0.73 0 0 0 -0.67 -0.84 27.28 27.28 0 0 0 -6 -0.4 29.56 29.56 0 0 0 -5.93 0.89c-0.59 0.15 -1.2 0.29 -1.78 0.5A5.76 5.76 0 0 0 5 1.9a5.39 5.39 0 0 0 -0.81 0.52 0.67 0.67 0 0 0 -0.21 0.48 0.6 0.6 0 0 0 0.3 0.51 5.82 5.82 0 0 0 0.64 0.25c0.33 0.14 0.65 0.29 1 0.45s0.63 0.35 0.93 0.54c2.33 1.51 -0.85 -0.11 5.12 3.52a16.66 16.66 0 0 0 1.83 0.95 16.13 16.13 0 0 0 1.95 0.7 11.75 11.75 0 0 0 4.74 0.56 7.36 7.36 0 0 0 0.81 0.06 10.29 10.29 0 0 0 2.33 -0.2 0.45 0.45 0 0 0 0.33 -0.32 0.44 0.44 0 0 0 -0.22 -0.43Zm-2.49 0.13a13.44 13.44 0 0 1 -2.16 -0.23c-0.74 -0.13 -0.56 0.37 -3.7 -0.82a28.21 28.21 0 0 1 -2.84 -1.29 32 32 0 0 1 -3 -1.77A10.69 10.69 0 0 0 7.39 3.7c-0.33 -0.21 -0.67 -0.4 -1 -0.58s-0.48 -0.24 -0.72 -0.34a4.45 4.45 0 0 1 0.86 -0.39c0.55 -0.2 1.13 -0.34 1.67 -0.48A29.1 29.1 0 0 1 13.91 1a26 26 0 0 1 5.53 0.29c-0.06 0.16 0 0.49 -0.12 0.7a3.16 3.16 0 0 0 -0.25 1.16 8.31 8.31 0 0 0 1.33 4 11.69 11.69 0 0 0 2.1 2.45 8.72 8.72 0 0 1 -1.25 0.02Z" fill="#020202" fill-rule="evenodd" stroke-width="1"></path>
    <path d="M9.81 22.69a6.64 6.64 0 0 1 -2.27 -1.34 7.23 7.23 0 0 1 -0.77 -0.79 7.54 7.54 0 0 1 -0.67 -0.88A8.14 8.14 0 0 1 5 17.25a0.29 0.29 0 0 0 -0.35 -0.25 0.29 0.29 0 0 0 -0.24 0.34 7.53 7.53 0 0 0 0.76 2.88 5.16 5.16 0 0 0 0.74 1.08 5.36 5.36 0 0 0 1 0.88 6.59 6.59 0 0 0 1.6 0.83l-0.21 0A9.7 9.7 0 0 1 7 23a7.54 7.54 0 0 1 -1 -0.12 6.72 6.72 0 0 1 -0.9 -0.28 5.41 5.41 0 0 1 -2.53 -1.89 8.07 8.07 0 0 1 -1.45 -2.95L0.6 15.67a0.29 0.29 0 0 0 -0.33 -0.26 0.3 0.3 0 0 0 -0.26 0.33H0l0.34 2.19a8.22 8.22 0 0 0 1.34 3.46 6 6 0 0 0 3.1 2.21 7.94 7.94 0 0 0 1 0.24 6.56 6.56 0 0 0 1.08 0.09 8.57 8.57 0 0 0 1.44 -0.11 11.66 11.66 0 0 0 1.4 -0.3 0.33 0.33 0 0 0 0.24 -0.3 0.3 0.3 0 0 0 0.06 -0.11 0.34 0.34 0 0 0 -0.19 -0.42Z" fill="#020202" fill-rule="evenodd" stroke-width="1"></path>
    <path d="M5.16 11a0.28 0.28 0 0 0 -0.22 0 0.29 0.29 0 0 0 -0.18 0c-0.24 0 -0.34 0.24 -0.5 0.44s0 0.14 0 0.23c-0.07 0.34 0.22 0.57 0.77 0.62a0.66 0.66 0 0 0 0.28 -0.09c0.17 -0.15 0.35 -0.29 0.34 -0.51s0 -0.51 -0.22 -0.62c-0.13 0.01 -0.17 -0.07 -0.27 -0.07Z" fill="#020202" fill-rule="evenodd" stroke-width="1"></path>
  </g>
</svg>