<svg xmlns="http://www.w3.org/2000/svg" viewBox="0 0 24 24" id="Mythology-Creature-Horse-1--Streamline-Freehand">
  <desc>
    Mythology Creature Horse 1 Streamline Icon: https://streamlinehq.com
  </desc>
  <title>mythology-creature-horse-1</title>
  <g>
    <path d="M7.53 1.61A2.55 2.55 0 0 1 8.65 2a3.43 3.43 0 0 1 0.65 0.61 4.05 4.05 0 0 1 0.52 0.73c0.16 0.27 0.32 0.53 0.49 0.78 0.41 0.59 0.86 1.13 1.26 1.71A0.3 0.3 0 0 0 12 6a0.29 0.29 0 0 0 0.12 -0.4c-0.27 -0.67 -0.55 -1.32 -0.87 -2 -0.13 -0.27 -0.28 -0.53 -0.41 -0.8a4.3 4.3 0 0 0 -1.39 -1.39A3.4 3.4 0 0 0 7.56 0.93a0.34 0.34 0 1 0 0 0.68Z" fill="#4C57E6" fill-rule="evenodd" stroke-width="1"></path>
    <path d="M5.61 6.51c-0.17 -0.43 -0.72 -0.22 -0.72 -0.22s-0.12 0.07 -0.21 0.09 0 0.07 -0.08 0.1 0 0.23 -0.1 0.42 0.12 0.24 0.22 0.41 0.08 0 0.12 0.07a0.46 0.46 0 0 0 0.2 0c0.24 0 0.54 -0.07 0.6 -0.31 0 -0.07 0.07 -0.1 0.05 -0.16s0.1 -0.27 0 -0.36 -0.03 -0.02 -0.08 -0.04Z" fill="#020202" fill-rule="evenodd" stroke-width="1"></path>
    <path d="M23.67 14.84c-0.1 -0.57 -0.22 -1.14 -0.35 -1.72a8.61 8.61 0 0 0 -0.72 -1.82 3 3 0 0 0 -1 -1 2.5 2.5 0 0 0 -0.6 -0.3 5.3 5.3 0 0 0 -1 -0.18 0.3 0.3 0 0 0 -0.35 0.24 0.3 0.3 0 0 0 0.24 0.35 5.53 5.53 0 0 1 0.65 0.22 2.44 2.44 0 0 1 0.54 0.33 2.41 2.41 0 0 1 0.57 0.83 8.88 8.88 0 0 1 0.52 1.64l1.11 4.12a0.35 0.35 0 0 0 0.4 0.27 0.32 0.32 0 0 0 0.27 -0.39c-0.06 -0.87 -0.14 -1.73 -0.28 -2.59Z" fill="#020202" fill-rule="evenodd" stroke-width="1"></path>
    <path d="M20.45 16.11c-0.11 -0.68 0 -1.42 -0.14 -2.18a6.65 6.65 0 0 0 -0.79 -2.24A4.35 4.35 0 0 0 17.79 10a3.36 3.36 0 0 0 -0.68 -0.28 8.44 8.44 0 0 0 -1 -0.25H16c-0.81 -0.07 -1.74 -0.14 -2.65 -0.17l-1.46 0c-0.27 -0.59 -0.63 -1.27 -1 -2S10 5.86 9.65 5.23a6.47 6.47 0 0 0 -1.3 -1.61A3.28 3.28 0 0 0 7 2.93l-0.57 -0.07 -0.31 -0.42a3.11 3.11 0 0 0 -1.87 -0.92A1.15 1.15 0 0 0 3 2.45a2.08 2.08 0 0 0 0 1.13 6 6 0 0 0 0.51 1.08A16.76 16.76 0 0 0 0.85 6.77a3.46 3.46 0 0 0 -0.79 1.59 4 4 0 0 0 -0.06 0.5 3 3 0 0 0 0 0.52 2.28 2.28 0 0 0 1.45 1.74 4.7 4.7 0 0 0 3.18 0.06A2.63 2.63 0 0 0 5 11l0.19 1.83 0.11 4.37 0.06 2.87a8.09 8.09 0 0 0 0.11 1.35 2.2 2.2 0 0 0 0.42 1 2.23 2.23 0 0 0 1.81 0.65 2.18 2.18 0 0 0 1.69 -0.83 3.79 3.79 0 0 0 0.52 -1.58 19.38 19.38 0 0 0 -0.05 -3.15l0.57 0.08c0.51 0.06 1 0.1 1.57 0.11s1.07 0 1.59 0a7.62 7.62 0 0 0 1.18 -0.16l0.14 0a2.33 2.33 0 0 0 0.54 0.85 2.54 2.54 0 0 0 1.05 0.61l0.11 1.46a3.43 3.43 0 0 0 0.28 1.24 2.17 2.17 0 0 0 0.53 0.76 1.44 1.44 0 0 0 0.48 0.28 2.52 2.52 0 0 0 0.67 0.16 2 2 0 0 0 1.88 -0.51 2.45 2.45 0 0 0 0.46 -1.4 0.3 0.3 0 0 0 0.05 -0.16c0.05 -0.32 0.06 -0.66 0.08 -1l0 -2.28a0.44 0.44 0 0 0 -0.14 -0.33 2.08 2.08 0 0 1 -0.45 -1.11ZM18.72 22a2.64 2.64 0 0 1 -0.4 -0.12 0.82 0.82 0 0 1 -0.25 -0.16 1.38 1.38 0 0 1 -0.29 -0.58 3.33 3.33 0 0 1 -0.08 -0.76l-0.09 -1.85a0.56 0.56 0 0 0 -0.46 -0.59 1.71 1.71 0 0 1 -0.89 -0.44 1.38 1.38 0 0 1 -0.39 -0.85 0.55 0.55 0 0 0 -0.82 -0.43 3.19 3.19 0 0 1 -0.72 0.29 7.35 7.35 0 0 1 -0.84 0.15 14.72 14.72 0 0 1 -1.49 0.14l-1.5 0a5.8 5.8 0 0 1 -1 -0.12 2.22 2.22 0 0 1 -0.59 -0.22 0.34 0.34 0 0 0 -0.34 0.59 2.86 2.86 0 0 0 0.69 0.31c0 0.83 0.07 1.8 0 2.72a3.62 3.62 0 0 1 -0.52 1.71 1.31 1.31 0 0 1 -1.05 0.39 1.23 1.23 0 0 1 -1 -0.35 1.26 1.26 0 0 1 -0.2 -0.58 8.29 8.29 0 0 1 0 -1.2l0 -2.88 -0.08 -4.39L6 10.06a0.55 0.55 0 0 0 -0.86 -0.4 4.93 4.93 0 0 1 -0.53 0.36 1.91 1.91 0 0 1 -0.32 0.16 3.87 3.87 0 0 1 -2.07 0.16A1.55 1.55 0 0 1 0.91 9.21a1.87 1.87 0 0 1 0 -0.34 2.19 2.19 0 0 1 0 -0.36 2.85 2.85 0 0 1 0.89 -1.58C2.53 6.2 3.52 5.64 4.25 5a0.34 0.34 0 0 0 0 -0.48 5.29 5.29 0 0 1 -0.47 -1.11 1.28 1.28 0 0 1 0 -0.7c0.1 -0.32 0.39 -0.3 0.66 -0.22a2.12 2.12 0 0 1 1 0.64l0.33 0.51a0.49 0.49 0 0 0 0.38 0.26l0.59 0.1a2.37 2.37 0 0 1 1.07 0.69 6.19 6.19 0 0 1 0.85 1.16c0.54 0.86 1.24 1.94 1.83 2.9 0.27 0.45 0.53 0.87 0.73 1.24a0.45 0.45 0 0 0 0.45 0.26c0.53 -0.06 1.12 -0.1 1.72 -0.12l2.59 0a9.37 9.37 0 0 1 0.89 0.31 3.81 3.81 0 0 1 0.52 0.29 3.7 3.7 0 0 1 1.23 1.5 6 6 0 0 1 0.55 1.92c0.13 0.77 0.06 1.53 0.21 2.22a2.87 2.87 0 0 0 0.73 1.41c0 0.64 0.13 1.37 0.17 2.06l0 0.95a0.14 0.14 0 0 0 0 0.09 1.76 1.76 0 0 1 -0.39 1c-0.22 0.22 -0.61 0.25 -1.17 0.12Z" fill="#020202" fill-rule="evenodd" stroke-width="1"></path>
  </g>
</svg>