<svg xmlns="http://www.w3.org/2000/svg" viewBox="0 0 24 24" id="Mythology-Creature-Vampire--Streamline-Freehand">
  <desc>
    Mythology Creature Vampire Streamline Icon: https://streamlinehq.com
  </desc>
  <title>mythology-creature-vampire</title>
  <g>
    <path d="M1.83 9.06a8.34 8.34 0 0 0 1 2.21 4.37 4.37 0 0 0 1.22 1.24 3.49 3.49 0 0 0 1.16 0.41 4 4 0 0 0 0.9 0.07 8 8 0 0 0 2.59 1.77 9.37 9.37 0 0 0 3.3 0.74 6.18 6.18 0 0 0 3.47 -0.93 8.08 8.08 0 0 0 2.34 -2.22 4.42 4.42 0 0 0 2 -0.46 4.27 4.27 0 0 0 1.72 -1.6 4.13 4.13 0 0 0 0.35 -0.77 8.74 8.74 0 0 0 0.32 -1.14 9.68 9.68 0 0 0 0.19 -1.12 3 3 0 0 0 -0.05 -0.86 3.6 3.6 0 0 0 -0.15 -0.48 0.78 0.78 0 0 0 -0.26 -0.32 0.55 0.55 0 0 0 -0.47 -0.08 5.08 5.08 0 0 0 -0.78 0.39 6.57 6.57 0 0 0 -1.16 0.88s0 -0.06 0 -0.1a0.35 0.35 0 0 0 -0.1 -0.2 5.29 5.29 0 0 0 -0.05 -0.56 6.75 6.75 0 0 0 -0.71 -2.2 6.07 6.07 0 0 0 -2.75 -2.65 9.75 9.75 0 0 0 -3.63 -1 0.34 0.34 0 0 0 -0.06 0.67 9.16 9.16 0 0 1 3.36 1 5.35 5.35 0 0 1 2.37 2.36 6 6 0 0 1 0.58 2 3 3 0 0 1 0 0.31 7.47 7.47 0 0 1 -3.33 -1.13 10 10 0 0 1 -3 -2.85 0.54 0.54 0 0 0 -0.51 -0.24 0.56 0.56 0 0 0 -0.46 0.32 7 7 0 0 1 -2.62 2.86A9.46 9.46 0 0 1 5 6.82a7.88 7.88 0 0 1 0.4 -2.11A5.9 5.9 0 0 1 7.52 1.8 5.28 5.28 0 0 1 9.36 1a7.83 7.83 0 0 1 2.05 -0.28 0.28 0.28 0 0 0 0.3 -0.28 0.28 0.28 0 0 0 -0.29 -0.3 8.2 8.2 0 0 0 -2.21 0.2 6.18 6.18 0 0 0 -2.08 0.9 6.64 6.64 0 0 0 -2.43 3.2 8.6 8.6 0 0 0 -0.55 3L4 7.31a6.26 6.26 0 0 0 -1.09 -0.59 4.75 4.75 0 0 0 -0.54 -0.21 0.57 0.57 0 0 0 -0.44 0.09 0.71 0.71 0 0 0 -0.2 0.3 2.35 2.35 0 0 0 -0.09 0.49 2.82 2.82 0 0 0 0 0.87 4.06 4.06 0 0 0 0.19 0.8Zm0.74 -1.47a5.36 5.36 0 0 1 0.92 0.47 5.31 5.31 0 0 1 0.82 0.63 0.44 0.44 0 0 0 0.5 0.09 0.44 0.44 0 0 0 0.25 -0.44C5 8 5 7.73 5 7.43a9.88 9.88 0 0 0 4.11 -1.26 7.89 7.89 0 0 0 2.66 -2.48 10.79 10.79 0 0 0 2.93 2.37 8 8 0 0 0 3.85 1 6.12 6.12 0 0 1 -0.09 1 0.44 0.44 0 0 0 0.29 0.48 0.43 0.43 0 0 0 0.53 -0.18 4.86 4.86 0 0 1 0.8 -1 6.7 6.7 0 0 1 1 -0.74l0.24 -0.07a1.81 1.81 0 0 1 0 0.52 7.09 7.09 0 0 1 -0.19 1 7 7 0 0 1 -0.3 1 2.88 2.88 0 0 1 -0.28 0.59 3.21 3.21 0 0 1 -1.31 1.17 3.31 3.31 0 0 1 -1.73 0.32 0.53 0.53 0 0 0 -0.5 0.24 7 7 0 0 1 -2.19 2.12 5.09 5.09 0 0 1 -2.84 0.76 8.3 8.3 0 0 1 -2.88 -0.64 6.84 6.84 0 0 1 -2.38 -1.68 0.55 0.55 0 0 0 -0.51 -0.17 2.64 2.64 0 0 1 -0.83 0 2.24 2.24 0 0 1 -0.78 -0.25 3.56 3.56 0 0 1 -1.13 -1.21 8.54 8.54 0 0 1 -0.74 -1.64 2.74 2.74 0 0 1 -0.17 -0.64 2.28 2.28 0 0 1 0 -0.52Z" fill="#020202" fill-rule="evenodd" stroke-width="1"></path>
    <path d="M8.08 8.45c0.19 0.18 0.32 0.36 0.51 0.52a1 1 0 0 0 0.24 0.16 1.11 1.11 0 0 0 0.27 0.12l0.68 0.21a0.34 0.34 0 0 0 0.38 -0.56 6.89 6.89 0 0 0 -0.52 -0.56l-0.25 -0.19A1.51 1.51 0 0 0 9.1 8a4.76 4.76 0 0 0 -0.77 -0.11 0.3 0.3 0 0 0 -0.25 0.54Z" fill="#020202" fill-rule="evenodd" stroke-width="1"></path>
    <path d="M13.89 9.35a6.23 6.23 0 0 0 0.74 -0.09 1.57 1.57 0 0 0 0.28 -0.1 1.28 1.28 0 0 0 0.26 -0.16c0.2 -0.14 0.36 -0.29 0.56 -0.44A0.33 0.33 0 1 0 15.5 8a4.8 4.8 0 0 0 -0.75 0.09 1.18 1.18 0 0 0 -0.3 0.1 1.43 1.43 0 0 0 -0.27 0.15 6.63 6.63 0 0 0 -0.54 0.52 0.31 0.31 0 0 0 -0.14 0.4 0.3 0.3 0 0 0 0.39 0.09Z" fill="#020202" fill-rule="evenodd" stroke-width="1"></path>
    <path d="M9.61 10.51h-0.08a0.2 0.2 0 0 0 -0.15 0l-0.05 0a0.2 0.2 0 0 0 -0.08 0 0.32 0.32 0 0 0 0 0.09 1.93 1.93 0 0 0 -0.35 0.35 0.87 0.87 0 0 0 -0.07 0.17 0.54 0.54 0 0 0 0 0.18c0.06 0.77 0.19 0.81 0.33 0.85s0.28 0.06 0.69 -0.6a0.83 0.83 0 0 0 0.07 -0.13A3.32 3.32 0 0 0 11 12a3.17 3.17 0 0 0 0.87 0.07 4.19 4.19 0 0 0 0.86 -0.15 4.36 4.36 0 0 0 1.15 -0.55 1 1 0 0 0 0.08 0.14c0.48 0.61 0.62 0.57 0.76 0.52s0.25 -0.1 0.24 -0.87A0.55 0.55 0 0 0 15 11a0.44 0.44 0 0 0 -0.08 -0.15 1.31 1.31 0 0 0 -0.32 -0.27c0 -0.05 0 -0.1 -0.05 -0.14a0.32 0.32 0 0 0 -0.37 -0.07l-0.07 0a3.42 3.42 0 0 1 -1.52 0.5 5.05 5.05 0 0 1 -0.68 0.06h-0.68a2.93 2.93 0 0 1 -1.51 -0.39Z" fill="#020202" fill-rule="evenodd" stroke-width="1"></path>
    <path d="M15.88 16.41a13.68 13.68 0 0 0 -2.39 0.47c-0.55 0.14 -1 0.29 -1.3 0.37a7.61 7.61 0 0 0 -1.43 -0.52 18.13 18.13 0 0 0 -2.44 -0.43 0.53 0.53 0 0 0 -0.41 0.12 0.51 0.51 0 0 0 -0.21 0.37 10.36 10.36 0 0 0 -0.08 1.92 8.38 8.38 0 0 0 0.32 1.92 0.52 0.52 0 0 0 0.26 0.37 0.51 0.51 0 0 0 0.4 0 9.59 9.59 0 0 0 1.19 -0.49c0.78 -0.37 1.51 -0.82 2.29 -1.21a7.07 7.07 0 0 0 1.18 0.7c0.74 0.35 1.55 0.65 2.18 0.92a0.35 0.35 0 0 0 0.43 -0.13 5.31 5.31 0 0 0 0.64 -2 4.94 4.94 0 0 0 -0.18 -2.09 0.42 0.42 0 0 0 -0.45 -0.29Zm-0.43 3.77c-0.56 -0.26 -1.22 -0.55 -1.83 -0.88a5.21 5.21 0 0 1 -1.19 -0.83 0.45 0.45 0 0 0 -0.43 -0.07c-0.88 0.37 -1.71 0.82 -2.58 1.2 -0.18 0.07 -0.36 0.15 -0.54 0.21a8.79 8.79 0 0 1 -0.12 -1.15 9.28 9.28 0 0 1 0 -1.17c0.56 0.08 1.15 0.17 1.73 0.31a7 7 0 0 1 1.4 0.48 0.54 0.54 0 0 0 0.43 0l0.34 -0.12a24.12 24.12 0 0 1 3 -0.9 4.12 4.12 0 0 1 0.16 1.44 4.64 4.64 0 0 1 -0.37 1.48Z" fill="#4C57E6" fill-rule="evenodd" stroke-width="1"></path>
    <path d="M4.39 14.29A2.4 2.4 0 0 0 3 13.06a5.89 5.89 0 0 0 -2.5 -0.16 0.54 0.54 0 0 0 -0.39 0.22 0.56 0.56 0 0 0 -0.1 0.44c0.15 0.82 0.25 1.66 0.33 2.5s0.12 1.7 0.15 2.54a0.58 0.58 0 0 0 0.18 0.4 0.57 0.57 0 0 0 0.43 0.13A12 12 0 0 1 2.56 19h0.59l-0.15 0.26c-0.35 0.48 -0.69 1 -1 1.47a0.39 0.39 0 0 0 -0.06 0.39 0.42 0.42 0 0 0 0.29 0.26c0.47 0.11 0.94 0.22 1.41 0.37a5.41 5.41 0 0 1 0.87 0.34 9.61 9.61 0 0 1 1 0.57c0.44 0.29 0.86 0.62 1.28 0.94a0.32 0.32 0 0 0 0.39 0.26 0.33 0.33 0 0 0 0.26 -0.39 35.85 35.85 0 0 0 -1.16 -4.7 31.62 31.62 0 0 0 -1.89 -4.48Zm2.1 8.35c-0.22 -0.18 -0.45 -0.35 -0.68 -0.52a8.65 8.65 0 0 0 -1 -0.67 9.14 9.14 0 0 0 -1 -0.43c-0.27 -0.1 -0.55 -0.19 -0.83 -0.27l1.46 -1.81a0.49 0.49 0 0 0 0.09 -0.49 0.48 0.48 0 0 0 -0.38 -0.32A9.65 9.65 0 0 0 2.56 18l-1 0c0 -0.67 -0.05 -1.35 -0.11 -2s-0.14 -1.34 -0.24 -2a3.52 3.52 0 0 1 1.42 0.12 1.39 1.39 0 0 1 0.84 0.68 31.09 31.09 0 0 1 1.93 4.3 36.06 36.06 0 0 1 1.08 3.58Z" fill="#020202" fill-rule="evenodd" stroke-width="1"></path>
    <path d="M23.89 13a0.59 0.59 0 0 0 -0.39 -0.23 6.14 6.14 0 0 0 -2.51 0.16 2.44 2.44 0 0 0 -1.42 1.23 32.79 32.79 0 0 0 -1.85 4.5 37.54 37.54 0 0 0 -1.17 4.7 0.34 0.34 0 0 0 0.26 0.4 0.33 0.33 0 0 0 0.39 -0.26c0.43 -0.32 0.86 -0.64 1.3 -0.93a8.17 8.17 0 0 1 1 -0.57 6.72 6.72 0 0 1 0.88 -0.35c0.47 -0.15 1 -0.26 1.42 -0.36a0.42 0.42 0 0 0 0.3 -0.26 0.44 0.44 0 0 0 -0.06 -0.4c-0.35 -0.49 -0.69 -1 -1.05 -1.47l-0.17 -0.23h0.59a12.13 12.13 0 0 1 1.48 0.11 0.56 0.56 0 0 0 0.43 -0.13 0.53 0.53 0 0 0 0.19 -0.4c0 -0.84 0.07 -1.69 0.15 -2.54s0.18 -1.68 0.33 -2.51a0.55 0.55 0 0 0 -0.1 -0.46Zm-1.11 0.83c-0.11 0.67 -0.19 1.34 -0.25 2s-0.09 1.36 -0.11 2l-1 0a8.82 8.82 0 0 0 -1.62 0.17 0.5 0.5 0 0 0 -0.39 0.31 0.51 0.51 0 0 0 0.09 0.49l1.5 1.8 -0.84 0.28a6.86 6.86 0 0 0 -1 0.43 9.56 9.56 0 0 0 -1 0.66c-0.24 0.17 -0.47 0.35 -0.7 0.54a37.38 37.38 0 0 1 1.09 -3.59 31.28 31.28 0 0 1 2 -4.3 1.46 1.46 0 0 1 0.86 -0.69 4 4 0 0 1 1.44 -0.12Z" fill="#020202" fill-rule="evenodd" stroke-width="1"></path>
  </g>
</svg>