<svg xmlns="http://www.w3.org/2000/svg" viewBox="0 0 24 24" id="Mythology-Creature-Vampire-Demon-Fang--Streamline-Freehand">
  <desc>
    Mythology Creature Vampire Demon Fang Streamline Icon: https://streamlinehq.com
  </desc>
  <title>mythology-creature-vampire-demon-fang</title>
  <g>
    <path d="M24 7.87a0.34 0.34 0 0 0 -0.28 -0.39 9.25 9.25 0 0 1 -2 -0.65 12 12 0 0 1 -1.86 -1.08c-0.7 -0.49 -1.39 -1.12 -2.15 -1.55a4.71 4.71 0 0 0 -1.18 -0.45 2.41 2.41 0 0 0 -1.61 0.18 9 9 0 0 0 -1.38 0.89 2.46 2.46 0 0 1 -1.12 0.52 2.1 2.1 0 0 1 -1.27 -0.42 7.88 7.88 0 0 0 -1.63 -0.84A2.44 2.44 0 0 0 8.41 4a3.73 3.73 0 0 0 -1.18 0.36c-0.75 0.37 -1.47 1 -2.14 1.37S3.53 6.63 2.72 7 1.15 7.79 0.35 8.13H0.29a0.34 0.34 0 0 0 -0.29 0.38 19.25 19.25 0 0 0 0.55 2.82A10.73 10.73 0 0 0 1.72 14a16.63 16.63 0 0 0 2.66 3.29A11.3 11.3 0 0 0 8 19.67a9.87 9.87 0 0 0 6.71 0.11 12.17 12.17 0 0 0 3.9 -2.19 15 15 0 0 0 5.34 -9.42s0 -0.08 0 -0.12a0.42 0.42 0 0 0 0.05 -0.18Zm-6 8.92a12 12 0 0 1 -3.62 1.92 8.94 8.94 0 0 1 -6 -0.08 10.42 10.42 0 0 1 -3.31 -2.07 16 16 0 0 1 -2.62 -3 10.08 10.08 0 0 1 -1.17 -2.46 17 17 0 0 1 -0.57 -2.47C1.5 8.34 2.27 8 3 7.7s1.69 -0.78 2.52 -1.23c0.56 -0.31 1.18 -0.75 1.82 -1.07A3.27 3.27 0 0 1 8.52 5a2.28 2.28 0 0 1 1.3 0.41 9.7 9.7 0 0 0 1.6 0.88 2.55 2.55 0 0 0 1.1 0.14 3.54 3.54 0 0 0 1.65 -0.74 7.58 7.58 0 0 1 1.18 -0.82 1.43 1.43 0 0 1 1 -0.15 3.41 3.41 0 0 1 1.21 0.48c0.64 0.37 1.24 0.85 1.84 1.23a12 12 0 0 0 2 1.06 9.8 9.8 0 0 0 1.94 0.55A14.27 14.27 0 0 1 18 16.79Z" fill="#020202" fill-rule="evenodd" stroke-width="1"></path>
    <path d="M22.58 8.68a0.34 0.34 0 0 0 -0.44 -0.17 6 6 0 0 1 -1.77 0.49 6.37 6.37 0 0 1 -1.8 -0.06c-0.57 -0.1 -1.14 -0.33 -1.72 -0.45a4.28 4.28 0 0 0 -0.85 -0.13 3.52 3.52 0 0 0 -0.8 0.13 10.75 10.75 0 0 1 -2.42 0.86 3.45 3.45 0 0 1 -1.17 -0.17 17.55 17.55 0 0 0 -3.16 -1 4.28 4.28 0 0 0 -1.07 0c-0.74 0.11 -1.48 0.35 -2.19 0.47A9.28 9.28 0 0 1 4 8.82l-1.81 0a0.3 0.3 0 0 0 -0.32 0.28 0.29 0.29 0 0 0 0.28 0.31c0.49 0.05 1 0.1 1.45 0.13a7.53 7.53 0 0 0 0.4 2.07 6.08 6.08 0 0 0 1.21 2.12 0.43 0.43 0 0 0 0.7 -0.14L6.54 12a25.67 25.67 0 0 0 6.13 0.78 17.89 17.89 0 0 0 6 -1l0.33 1.1a0.46 0.46 0 0 0 0.29 0.3 0.44 0.44 0 0 0 0.4 -0.08A7.1 7.1 0 0 0 21 11.44a5.75 5.75 0 0 0 0.75 -2c0.21 -0.07 0.43 -0.15 0.63 -0.24a0.34 0.34 0 0 0 0.2 -0.52ZM20.4 11a6.53 6.53 0 0 1 -0.74 0.91l-0.19 -0.91a0.44 0.44 0 0 0 -0.23 -0.31 0.45 0.45 0 0 0 -0.39 0 18.14 18.14 0 0 1 -6.18 1A28.85 28.85 0 0 1 6.36 11a0.48 0.48 0 0 0 -0.56 0.28l-0.48 1.36a5 5 0 0 1 -0.69 -1.24 6.9 6.9 0 0 1 -0.42 -1.85 7.55 7.55 0 0 0 1.06 0c0.62 -0.06 1.26 -0.2 1.9 -0.28a4.36 4.36 0 0 1 1.14 0 17.9 17.9 0 0 1 2.95 1.07 4.27 4.27 0 0 0 1.56 0.21 3 3 0 0 0 0.8 -0.16 10.36 10.36 0 0 1 2.38 -1 2.81 2.81 0 0 1 0.65 0c0.6 0.09 1.19 0.28 1.77 0.35a7.36 7.36 0 0 0 2 0A4.9 4.9 0 0 0 21 9.6a5.26 5.26 0 0 1 -0.6 1.4Z" fill="#020202" fill-rule="evenodd" stroke-width="1"></path>
    <path d="M17.05 14a10.14 10.14 0 0 1 -3.68 1 12.78 12.78 0 0 1 -1.64 0.06c-0.54 0 -1.09 0 -1.63 -0.11a12.43 12.43 0 0 1 -3.72 -1 0.3 0.3 0 1 0 -0.29 0.52 11.82 11.82 0 0 0 3.84 1.56 10.09 10.09 0 0 0 3.58 0 10.54 10.54 0 0 0 3.88 -1.51 0.34 0.34 0 0 0 0.12 -0.46 0.33 0.33 0 0 0 -0.46 -0.06Z" fill="#4C57E6" fill-rule="evenodd" stroke-width="1"></path>
  </g>
</svg>