<svg xmlns="http://www.w3.org/2000/svg" viewBox="0 0 24 24" id="Natural-Disaster-Tsunami-Alert--Streamline-Freehand">
  <desc>
    Natural Disaster Tsunami Alert Streamline Icon: https://streamlinehq.com
  </desc>
  <g>
    <path d="M23.74 20A2.43 2.43 0 0 1 22 18.55a14.28 14.28 0 0 1 -0.74 -3.82 15.88 15.88 0 0 0 -2.37 -6.63 6.81 6.81 0 0 0 -4 -2.79 9.09 9.09 0 0 0 -1 -0.2 4.91 4.91 0 0 0 -0.77 0 0.52 0.52 0 0 0 -0.51 0.43 0.54 0.54 0 0 0 0.11 0.49 2.8 2.8 0 0 0 0.25 0.22l0.3 0.31a4.06 4.06 0 0 1 0.4 0.74 6 6 0 0 1 0.29 0.84 8.85 8.85 0 0 1 0.31 2.58 7.07 7.07 0 0 1 -0.56 2.51 11.43 11.43 0 0 1 -2.7 4 10 10 0 0 1 -4.17 2.4 7.19 7.19 0 0 1 -2.11 0.31 4.67 4.67 0 0 1 -2.05 -0.44 0.29 0.29 0 1 0 -0.26 0.52 5.56 5.56 0 0 0 2.29 0.56A8.23 8.23 0 0 0 7 20.25a11 11 0 0 0 4.57 -2.44 12.31 12.31 0 0 0 3.06 -4.2 8 8 0 0 0 0.69 -2.87A9.5 9.5 0 0 0 15 7.82a8.68 8.68 0 0 0 -0.33 -1 5.2 5.2 0 0 0 -0.26 -0.53l0.25 0.06a5.76 5.76 0 0 1 3.4 2.32 14.92 14.92 0 0 1 2.33 6.18 14.91 14.91 0 0 0 0.91 4 3.09 3.09 0 0 0 2.29 1.74 0.33 0.33 0 0 0 0.13 -0.64Z" fill="#020202" stroke-width="1"></path>
    <path d="M23 21.61c-2 -0.4 -3.51 -1.89 -5.31 -2.67A5.92 5.92 0 0 0 15 18.4a6.19 6.19 0 0 0 -2 0.51c-1.36 0.59 -2.54 1.6 -3.92 2.21a8.19 8.19 0 0 1 -3.39 0.69 13.31 13.31 0 0 1 -3.56 -0.47 0.29 0.29 0 0 0 -0.16 0.55 14.2 14.2 0 0 0 3.7 0.72 9 9 0 0 0 3.81 -0.56c1.39 -0.58 2.59 -1.54 3.95 -2.13a5.3 5.3 0 0 1 1.57 -0.46 5 5 0 0 1 2.3 0.35c1.87 0.72 3.51 2.13 5.55 2.44a0.33 0.33 0 0 0 0.38 -0.27 0.32 0.32 0 0 0 -0.23 -0.37Z" fill="#020202" stroke-width="1"></path>
    <path d="M20.66 22.49a7.59 7.59 0 0 1 -1.08 -0.16 3.41 3.41 0 0 1 -0.63 -0.24c-0.76 -0.38 -1.5 -0.91 -2.31 -1.24a4.26 4.26 0 0 0 -1.91 -0.33 4.29 4.29 0 0 0 -1.34 0.39c-0.88 0.42 -1.68 1.09 -2.48 1.55a0.28 0.28 0 0 0 -0.14 0.38 0.29 0.29 0 0 0 0.39 0.14c0.72 -0.3 1.46 -0.74 2.23 -1.05a3.72 3.72 0 0 1 1.41 -0.33 3.56 3.56 0 0 1 1.45 0.27c0.8 0.28 1.58 0.7 2.35 1a4 4 0 0 0 0.83 0.21 9.39 9.39 0 0 0 1.19 0.06 0.33 0.33 0 0 0 0.35 -0.3 0.34 0.34 0 0 0 -0.31 -0.35Z" fill="#020202" stroke-width="1"></path>
    <path d="M2.15 12.31a3.89 3.89 0 0 0 1.15 0.16 2.1 2.1 0 0 0 1 1.35 1.77 1.77 0 0 0 1.27 0.18 1.83 1.83 0 0 0 0.67 -0.43 3.16 3.16 0 0 0 0.56 -0.84 0.34 0.34 0 0 0 -0.11 -0.45 8.52 8.52 0 0 0 1 -0.23 0.32 0.32 0 0 0 0.23 -0.39 0.33 0.33 0 0 0 -0.4 -0.24 8.87 8.87 0 0 1 -1.57 0.18 21.56 21.56 0 0 1 -2.42 -0.11 6.13 6.13 0 0 1 -0.74 -0.09 2.28 2.28 0 0 0 0.21 -0.51 4 4 0 0 0 0.09 -0.89c0.05 -0.65 0 -1.42 0.14 -2.14a2.26 2.26 0 0 1 0.42 -1.14 1 1 0 0 1 0.29 -0.25 5.69 5.69 0 0 1 0.65 -0.33A2.23 2.23 0 0 1 5 6a1.78 1.78 0 0 1 1.45 0.21 2.14 2.14 0 0 1 0.72 0.58 2.12 2.12 0 0 1 0.34 0.73 6.27 6.27 0 0 1 0.19 0.92 12.43 12.43 0 0 0 0.3 2 2 2 0 0 0 0.56 0.85 0.33 0.33 0 1 0 0.44 -0.47 1.4 1.4 0 0 1 -0.3 -0.83c-0.05 -0.55 0.06 -1.15 0 -1.67A4.6 4.6 0 0 0 8.46 7a2.58 2.58 0 0 0 -0.55 -0.86A2.88 2.88 0 0 0 7 5.56a3.51 3.51 0 0 0 -2.1 -0.17 2.72 2.72 0 0 0 -0.54 0.15c-0.24 0.09 -0.51 0.18 -0.76 0.3a1.81 1.81 0 0 0 -0.52 0.37 3.09 3.09 0 0 0 -0.76 1.48c0 0.1 -0.87 3.7 -0.87 3.73a0.64 0.64 0 0 0 0.08 0.36 1.32 1.32 0 0 0 0.62 0.53Zm3.85 0.06 0.31 0 -0.06 0.06a2.3 2.3 0 0 1 -0.46 0.42 0.94 0.94 0 0 1 -0.46 0.16 1 1 0 0 1 -0.51 -0.08 2.86 2.86 0 0 1 -0.41 -0.15 2 2 0 0 1 -0.41 -0.32c0.68 -0.01 1.34 -0.02 2 -0.09Z" fill="#020202" stroke-width="1"></path>
    <path d="M5 2.94a0.32 0.32 0 0 0 0.31 0.34 0.32 0.32 0 0 0 0.34 -0.28 4.58 4.58 0 0 0 0.19 -0.66 1.53 1.53 0 0 0 0 -0.3 1.35 1.35 0 0 0 0 -0.29 2.82 2.82 0 0 0 -0.35 -0.64 0.29 0.29 0 0 0 -0.36 -0.25 0.3 0.3 0 0 0 -0.22 0.35c0 0.21 -0.11 0.39 -0.14 0.62a1 1 0 0 0 0 0.25 1 1 0 0 0 0 0.25c0.1 0.22 0.17 0.41 0.23 0.61Z" fill="#4C57E6" stroke-width="1"></path>
    <path d="M8.43 4c0.2 -0.14 0.39 -0.25 0.58 -0.41a1.45 1.45 0 0 0 0.21 -0.22 0.92 0.92 0 0 0 0.16 -0.27 2.25 2.25 0 0 0 0.16 -0.76 0.29 0.29 0 0 0 -0.54 -0.21c-0.16 0.17 -0.34 0.25 -0.51 0.41a1.63 1.63 0 0 0 -0.17 0.2c-0.05 0.08 -0.1 0.16 -0.14 0.24s-0.18 0.41 -0.28 0.63a0.33 0.33 0 0 0 0 0.46 0.32 0.32 0 0 0 0.53 -0.07Z" fill="#4C57E6" stroke-width="1"></path>
    <path d="M9.59 6.47c0.24 0.54 1.69 0 1.31 -0.68s-1.54 0.21 -1.31 0.68Z" fill="#4C57E6" stroke-width="1"></path>
    <path d="M1.58 4.07a0.27 0.27 0 0 0 0.07 0.13 2.91 2.91 0 0 0 0.49 0.27 0.32 0.32 0 0 0 0.53 -0.37 2.26 2.26 0 0 0 -0.08 -0.44 0.51 0.51 0 0 0 -0.09 -0.16 0.47 0.47 0 0 0 -0.13 -0.11 1.73 1.73 0 0 0 -0.44 -0.14 0.29 0.29 0 0 0 -0.41 0 0.28 0.28 0 0 0 0 0.4 2 2 0 0 0 0.06 0.42Z" fill="#4C57E6" stroke-width="1"></path>
    <path d="M1.84 6.92a0.32 0.32 0 0 0 -0.17 -0.43 2.29 2.29 0 0 0 -0.4 -0.36 0.52 0.52 0 0 0 -0.18 -0.13 0.43 0.43 0 0 0 -0.19 0 4.26 4.26 0 0 0 -0.5 0.06 0.29 0.29 0 0 0 -0.4 0.14 0.3 0.3 0 0 0 0.15 0.38 1.8 1.8 0 0 0 0.4 0.42l0.18 0.09a0.69 0.69 0 0 0 0.2 0l0.48 0a0.33 0.33 0 0 0 0.43 -0.17Z" fill="#4C57E6" stroke-width="1"></path>
  </g>
</svg>