<svg xmlns="http://www.w3.org/2000/svg" viewBox="0 0 24 24" id="Natural-Disaster-Tsunami--Streamline-Freehand">
  <desc>
    Natural Disaster Tsunami Streamline Icon: https://streamlinehq.com
  </desc>
  <g>
    <path d="M22.67 17.08a2.07 2.07 0 0 1 -0.15 0.34c-1.23 2.21 -3.52 0 -5.59 0a5.7 5.7 0 0 0 -3.1 1.38c-0.88 0.58 -1.51 0.92 -3.41 0.46a13.79 13.79 0 0 1 -3.66 -1.68 4.56 4.56 0 0 0 -6.43 2.07 0.29 0.29 0 1 0 0.53 0.25 3.78 3.78 0 0 1 5.44 -1.45 12.37 12.37 0 0 0 3.86 1.91c4.25 1.06 4.58 -1.84 6.8 -2 1.86 -0.1 4.34 2 5.91 -0.24 1.04 -1.43 -0.07 -1.48 -0.2 -1.04Z" fill="#020202" fill-rule="evenodd" stroke-width="1"></path>
    <path d="m22.57 21.79 -0.39 0.42c-1.43 1.14 -3.6 -0.46 -5.39 -0.56a6.08 6.08 0 0 0 -2.77 0.64 5 5 0 0 1 -3.87 0.31 16.89 16.89 0 0 1 -3.58 -1.42C3.87 20 1.18 20.93 0.1 22.38a0.3 0.3 0 0 0 0 0.42c0.47 0.38 0.5 -0.85 2.67 -1.24C5.76 21 6.78 23 9.9 23.7c4.12 1 4.51 -1.1 6.86 -1.07 1.87 0 4.13 1.64 5.87 0.12 1.2 -1.04 0.16 -1.39 -0.06 -0.96Z" fill="#020202" fill-rule="evenodd" stroke-width="1"></path>
    <path d="M23.81 14.87c-1.64 -0.66 -2.59 -2.65 -3.16 -4.32C19.53 7.31 19.1 4.09 16 1.81A9.58 9.58 0 0 0 7.11 0.64c-2.46 0.94 -4.22 3.79 -2.21 5.67a3.73 3.73 0 0 0 4.78 0.08c0.42 -0.36 0.5 -0.83 0.76 -1.13 0.07 0.06 0.13 0.15 0.15 0.16 0.69 0.53 1.6 1.32 2.71 1.08 0.52 -0.12 0.84 -0.51 1.39 -0.74A4.82 4.82 0 0 0 16 6.83a0.34 0.34 0 0 0 0.28 -0.61c-0.77 -0.37 -1.18 -1.36 -1.69 -1.2 -0.87 0.26 -1.13 0.93 -2 0.7 -1.14 -0.3 -1.85 -1.69 -2.48 -1.29s-0.63 1 -1 1.29a2.8 2.8 0 0 1 -3.5 -0.14c-1.37 -1.33 0.25 -3.28 1.9 -3.89a8.68 8.68 0 0 1 7.85 1c2.86 2 3.38 5 4.56 8.12 0.7 1.83 1.82 3.91 3.68 4.6a0.29 0.29 0 0 0 0.21 -0.54Z" fill="#020202" fill-rule="evenodd" stroke-width="1"></path>
    <path d="M0.25 15.94a6.68 6.68 0 0 0 3.09 -0.33A7.71 7.71 0 0 0 6.8 14a10.09 10.09 0 0 0 2.87 -6.7 0.34 0.34 0 1 0 -0.67 -0.09 10.28 10.28 0 0 1 -3 5.93 9.47 9.47 0 0 1 -3 1.62 5.89 5.89 0 0 1 -2.72 0.6 0.29 0.29 0 1 0 -0.03 0.58Z" fill="#020202" fill-rule="evenodd" stroke-width="1"></path>
    <path d="M9.17 15.2a0.3 0.3 0 0 0 0.4 0.14c2.74 -1 3.94 -3.61 3.64 -6.48a0.34 0.34 0 0 0 -0.35 -0.32c-0.58 0 0 0.63 -0.88 2.74a9.15 9.15 0 0 1 -1 1.82c-1.23 1.9 -2.05 1.6 -1.81 2.1Z" fill="#4C57E6" fill-rule="evenodd" stroke-width="1"></path>
    <path d="M15.59 14.49A5.15 5.15 0 0 0 16.83 9a0.34 0.34 0 0 0 -0.66 0.12 12 12 0 0 1 -1.05 5 0.3 0.3 0 1 0 0.47 0.37Z" fill="#4C57E6" fill-rule="evenodd" stroke-width="1"></path>
  </g>
</svg>