<svg xmlns="http://www.w3.org/2000/svg" viewBox="0 0 24 24" id="Natural-Disaster-Water-Level-Fall--Streamline-Freehand">
  <desc>
    Natural Disaster Water Level Fall Streamline Icon: https://streamlinehq.com
  </desc>
  <g>
    <path d="M23.56 18.57a13.76 13.76 0 0 1 -2 0.17c-1.62 0 -3.24 -0.14 -4.88 -0.08l-3.35 0.16L10 19c-1.48 0.09 -3 0.19 -4.44 0.21a44.17 44.17 0 0 1 -4.75 -0.15 0.3 0.3 0 1 0 -0.08 0.6 46.9 46.9 0 0 0 8 0.53c1.6 0 3.21 -0.12 4.8 -0.24 1.07 -0.07 2.13 -0.18 3.19 -0.26 1.62 -0.15 3.24 -0.07 4.84 -0.17a13.85 13.85 0 0 0 2.12 -0.29 0.34 0.34 0 0 0 0.28 -0.4 0.36 0.36 0 0 0 -0.4 -0.26Z" fill="#4C57E6" stroke-width="1"></path>
    <path d="M2.34 16.85a2.55 2.55 0 0 0 2.14 -0.15 3.52 3.52 0 0 0 0.79 -0.53 5.68 5.68 0 0 0 0.62 -0.68l0 -0.05a2.7 2.7 0 0 0 0.25 0.34 2.63 2.63 0 0 0 0.5 0.43 3.45 3.45 0 0 0 2.64 0.5 4.29 4.29 0 0 0 2.27 -1.35 3 3 0 0 0 0.23 -0.3l0.14 0.18A3.6 3.6 0 0 0 13 16a3 3 0 0 0 1.34 0.28 2.83 2.83 0 0 0 1.22 -0.28 4.44 4.44 0 0 0 1.28 -1.1l0.4 -0.53c0.2 0.22 0.41 0.45 0.63 0.65a4.69 4.69 0 0 0 0.55 0.42 4 4 0 0 0 3 0.48 4.13 4.13 0 0 0 2.49 -1.67 0.35 0.35 0 1 0 -0.56 -0.41 3.41 3.41 0 0 1 -2.1 1.3 3.17 3.17 0 0 1 -2.36 -0.47 4.12 4.12 0 0 1 -0.4 -0.33c-0.2 -0.2 -0.38 -0.43 -0.57 -0.65a4.08 4.08 0 0 0 -0.3 -0.37 1 1 0 0 0 -0.32 -0.23 0.53 0.53 0 0 0 -0.66 0.17c-0.08 0.09 -0.12 0.32 -0.2 0.43l-0.41 0.52a3.86 3.86 0 0 1 -0.81 0.71 1.69 1.69 0 0 1 -0.9 0.25 1.75 1.75 0 0 1 -0.81 -0.19 2.17 2.17 0 0 1 -0.71 -0.53l-0.41 -0.53 -0.17 -0.29a0.61 0.61 0 0 0 -0.38 -0.21 0.55 0.55 0 0 0 -0.62 0.3l-0.52 0.87a3.24 3.24 0 0 1 -1.65 1 2.37 2.37 0 0 1 -1.82 -0.28 1.5 1.5 0 0 1 -0.31 -0.24 2.1 2.1 0 0 1 -0.26 -0.33 4.89 4.89 0 0 0 -0.26 -0.48 0.81 0.81 0 0 0 -0.3 -0.25 0.58 0.58 0 0 0 -0.41 0c-0.51 0.22 -0.12 0.62 -1 1.51a3.06 3.06 0 0 1 -0.58 0.44 1.78 1.78 0 0 1 -1.5 0.19 5.36 5.36 0 0 1 -2 -1.63 0.31 0.31 0 0 0 -0.44 0 0.3 0.3 0 0 0 0 0.43 6.22 6.22 0 0 0 2.17 1.9Z" fill="#020202" stroke-width="1"></path>
    <path d="M9.78 9.38a1.82 1.82 0 0 1 0.42 0.45c0.22 0.27 0.4 0.58 0.59 0.85a5.22 5.22 0 0 0 0.55 0.64 0.8 0.8 0 0 0 0.83 0.19c0.21 -0.06 0.49 -0.27 0.78 -0.79l0.25 -0.55 0.52 -1.28a0.34 0.34 0 1 0 -0.6 -0.33l-0.77 1.13 -0.24 0.32a0.17 0.17 0 0 0 0 -0.07c0.06 -0.66 0.11 -1.3 0.11 -2l0 -0.83c0 -0.28 -0.05 -0.54 -0.09 -0.82 -0.09 -0.63 -0.25 -1.25 -0.34 -1.89a0.31 0.31 0 1 0 -0.62 0A20.7 20.7 0 0 0 11 6.69 11.39 11.39 0 0 0 11.13 8c0.08 0.61 0.2 1.2 0.28 1.81 -0.21 -0.18 -0.43 -0.37 -0.65 -0.54a3.15 3.15 0 0 0 -0.67 -0.43 0.31 0.31 0 0 0 -0.42 0.16 0.32 0.32 0 0 0 0.11 0.38Z" fill="#020202" stroke-width="1"></path>
    <path d="M16.44 10.11c0.12 0.16 0.24 0.44 0.41 0.66a1.4 1.4 0 0 0 0.66 0.51 0.92 0.92 0 0 0 1.12 -0.46l0.23 -0.53 0.14 -0.56 0.32 -0.83a0.34 0.34 0 0 0 -0.1 -0.48 0.35 0.35 0 0 0 -0.48 0.1l-0.56 0.84 -0.07 0.11 0 -1.34c0 -0.45 0 -0.66 -0.06 -1s0 -0.49 -0.1 -0.74c-0.11 -0.55 -0.27 -1.07 -0.36 -1.63 0 -0.19 -0.05 -0.38 -0.07 -0.58a0.3 0.3 0 0 0 -0.29 -0.32 0.32 0.32 0 0 0 -0.32 0.3 9.25 9.25 0 0 0 -0.09 1.57c0 0.5 0 1 0.06 1.51 0 0.32 0.07 0.65 0.11 1s0.16 0.9 0.25 1.35l-0.11 -0.14 -1.05 -0.82a0.31 0.31 0 0 0 -0.43 0 0.3 0.3 0 0 0 0 0.43Z" fill="#020202" stroke-width="1"></path>
    <path d="M4.81 10.93c0.87 0.67 0.63 0.75 1 0.76a0.57 0.57 0 0 0 0.5 -0.22 5.25 5.25 0 0 0 0.35 -0.47 17.69 17.69 0 0 1 0.83 -1.83 0.35 0.35 0 0 0 -0.49 -0.46 3.62 3.62 0 0 0 -0.36 0.42 6.26 6.26 0 0 0 -0.43 0.62l0 -1.4c0 -0.47 0 -0.67 -0.07 -1S6 6.7 6 6.37c-0.12 -0.76 -0.28 -1.5 -0.36 -2.28a0.3 0.3 0 0 0 -0.31 -0.3 0.29 0.29 0 0 0 -0.3 0.3 18.92 18.92 0 0 0 -0.16 2.71A14.3 14.3 0 0 0 5 8.39c0.08 0.51 0.17 1 0.27 1.54l-1.43 -0.88a0.31 0.31 0 1 0 -0.37 0.49Z" fill="#020202" stroke-width="1"></path>
  </g>
</svg>