<svg xmlns="http://www.w3.org/2000/svg" viewBox="0 0 24 24" id="Natural-Disaster-Earthquake-1--Streamline-Freehand">
  <desc>
    Natural Disaster Earthquake 1 Streamline Icon: https://streamlinehq.com
  </desc>
  <g>
    <g>
      <path d="M11.77 22.09c0 -0.49 0.05 -1 0 -1.48 -0.05 -1.08 -0.17 -2.14 -0.22 -3.21l0 -1.35a0.66 0.66 0 0 0 -0.26 -0.5 6.45 6.45 0 0 0 -1.15 -0.6l-1.89 -1.13c-0.44 -0.21 -1.36 -0.58 -1.81 -0.81 -0.27 -0.13 -0.25 -0.6 -0.27 -0.74 0 -0.5 -0.07 -1 -0.13 -1.5a5 5 0 0 0 -0.12 -0.69 2.64 2.64 0 0 0 -0.2 -0.6A1.07 1.07 0 0 0 5.35 9 0.72 0.72 0 0 0 5 8.93c-0.23 0 -0.57 0.1 -0.7 0.11l-0.34 0.05A0.31 0.31 0 0 0 4 9c0.06 -0.57 0.11 -1.14 0.13 -1.72l0 -0.74C4.13 6.3 4 6 4 5.75c-0.09 -0.58 -0.25 -1.13 -0.37 -1.69a0.29 0.29 0 0 0 -0.31 -0.28 0.3 0.3 0 0 0 -0.32 0.31c0 0.58 -0.11 1.15 -0.12 1.73a6.1 6.1 0 0 0 0 0.74c0 0.24 0.05 0.48 0.08 0.72 0.08 0.57 0.19 1.12 0.27 1.69a0.28 0.28 0 0 0 0.06 0.16c-0.37 0.06 -0.74 0.13 -1.11 0.17a5.77 5.77 0 0 1 -0.83 0 0.3 0.3 0 0 0 -0.32 0.29 0.31 0.31 0 0 0 0 0.13h0.04a0.3 0.3 0 0 0 -0.3 0.3c-0.11 1.44 -0.21 2.8 -0.26 4.18l0 2.45 0 1.63c0 0.77 -0.11 1.64 -0.1 2.47a5.25 5.25 0 0 0 0.09 1.14 0.33 0.33 0 0 0 0.4 0.27 0.34 0.34 0 0 0 0.27 -0.39 4.67 4.67 0 0 1 0 -1c0.08 -0.83 0.29 -1.69 0.36 -2.46 0.06 -1.1 0.13 -2.2 0.11 -3.3 0 -0.9 -0.07 -1.79 -0.13 -2.68a4.65 4.65 0 0 0 1.15 0.21 4 4 0 0 0 0.77 -0.1c0.37 -0.09 0.71 -0.23 1.09 -0.34a0.34 0.34 0 0 0 0.31 -0.37 0.35 0.35 0 0 0 -0.37 -0.31c-0.4 0 -0.75 -0.06 -1.13 -0.06a3.53 3.53 0 0 0 -0.46 0l-0.45 0.07c-0.32 0.07 -0.61 0.17 -1 0.23 0 -0.53 -0.06 -1.06 -0.08 -1.58a0.28 0.28 0 0 0 0 -0.13 6.91 6.91 0 0 0 0.91 0c0.67 0 1.34 -0.13 2 -0.15 0.12 0 0.72 -0.07 0.72 -0.07l0 1.08 0 1.51a4.15 4.15 0 0 0 0 0.7 0.89 0.89 0 0 0 0.32 0.55 4.76 4.76 0 0 0 0.7 0.47c0.51 0.29 1.08 0.51 1.6 0.77l1.88 1.09a7.86 7.86 0 0 1 0.88 0.24c0 0.44 0.05 0.87 0.1 1.3 0.11 1.06 0.3 2.12 0.41 3.19 0.05 0.45 0 1 0.05 1.46a3.82 3.82 0 0 0 0.11 0.69 0.35 0.35 0 0 0 0.41 0.25 0.34 0.34 0 0 0 0.25 -0.42 3.2 3.2 0 0 1 0.09 -0.52Z" fill="#020202" stroke-width="1"></path>
      <path d="M23.91 13c0 -0.5 -0.08 -1 -0.15 -1.52 0 -0.35 -0.1 -0.69 -0.16 -1a3.93 3.93 0 0 0 -0.24 -0.85 1.4 1.4 0 0 0 -0.5 -0.62 1.54 1.54 0 0 0 -0.74 -0.22 12 12 0 0 0 -1.26 0h-1.45l0 -0.17c0.06 -0.55 0.12 -1.09 0.14 -1.65l0 -0.79v-0.01l0.18 -0.06A1.37 1.37 0 0 0 20 6a1.45 1.45 0 0 0 0.18 -0.17c0.15 -0.16 0.25 -0.32 0.39 -0.48a0.34 0.34 0 0 0 -0.36 -0.58 3.83 3.83 0 0 0 -0.64 0.18l-0.09 0c-0.07 -0.45 -0.16 -0.9 -0.25 -1.36a0.3 0.3 0 0 0 -0.6 0c-0.05 0.62 -0.14 1.22 -0.16 1.85l0 0.78c0 0.26 0 0.52 0.06 0.78 0.06 0.54 0.14 1.06 0.2 1.59l0 0.2h-1.39l-0.92 0a0.37 0.37 0 0 0 0 -0.14 0.31 0.31 0 0 0 -0.27 -0.17 0.3 0.3 0 0 0 -0.24 0.08s-0.6 0.53 -0.82 0.75c-0.59 0.59 -1.13 1.24 -1.7 1.83a5.87 5.87 0 0 0 -0.78 0.83 0.87 0.87 0 0 0 -0.1 0.61 1.3 1.3 0 0 0 0.22 0.48 4 4 0 0 0 0.62 0.62c0.21 0.18 0.42 0.35 0.64 0.51s0.65 0.45 1 0.67l0.84 0.61 0 1.68c0 0.82 0.06 1.63 0.06 2.44l0 3.69a0.35 0.35 0 0 0 0.33 0.36 0.33 0.33 0 0 0 0.35 -0.33c0.1 -1.24 0.2 -2.46 0.27 -3.7 0 -0.82 0.08 -1.65 0.09 -2.48l0 -1.35 0 -0.64a0.68 0.68 0 0 0 -0.13 -0.33c-0.07 -0.09 -1.23 -0.92 -1.23 -0.92L14 12.85a5.61 5.61 0 0 0 -0.56 -0.38c-0.21 -0.05 0.26 -0.42 0.49 -0.62 1 0.17 2 0.32 3.07 0.42 0.67 0.07 1.35 0.1 2 0.18 0.47 0 0.94 0.05 1.4 0s0.93 0 1.41 -0.05l0.72 0h0.09l0.08 0.72c0.1 1.11 0.14 2.21 0.17 3.31s0 2.22 0 3.34l0 2.09a10.52 10.52 0 0 1 -0.11 1.35 0.34 0.34 0 0 0 0.67 0.12 11.94 11.94 0 0 0 0.19 -1.43c0.06 -0.7 0.07 -1.4 0.11 -2.11 0.08 -1.36 0.16 -2.7 0.16 -4 0.11 -0.93 0.11 -1.79 0.02 -2.79Zm-2.05 -1.41c-0.36 0 -0.72 -0.06 -1.07 -0.09 -0.54 -0.06 -1.06 -0.13 -1.61 -0.22s-1.39 -0.13 -2.1 -0.14c-0.88 0 -1.75 0 -2.63 0.05 0.3 -0.39 0.6 -0.78 0.91 -1.16s0.37 -0.44 0.56 -0.65a0.19 0.19 0 0 0 0.08 0c0.43 0.06 0.87 0.11 1.3 0.14 1.17 0.11 2.35 0.15 3.52 0.25l1 0a1 1 0 0 1 0.4 0.09 0.57 0.57 0 0 1 0.12 0.26 3.24 3.24 0 0 1 0.11 0.54l0.11 1Z" fill="#020202" stroke-width="1"></path>
    </g>
    <path d="m1.11 7.3 1.41 -0.18a0.35 0.35 0 0 0 0.36 -0.33 0.34 0.34 0 0 0 -0.33 -0.35l-1.35 0c0.17 -0.3 0.36 -0.59 0.53 -0.89l0.35 -0.7 0.1 -0.27 0.07 -0.26c0.14 -0.68 -0.19 -0.88 -0.47 -1l-0.07 0c0.32 -0.56 0.62 -1.13 1 -1.69 0.13 -0.22 0.26 -0.43 0.4 -0.64a4.13 4.13 0 0 1 0.31 0.42c0.34 0.53 0.6 1.11 1 1.62l0.48 0.61c-0.23 0.11 -0.5 0.34 -0.33 1a3.05 3.05 0 0 0 0.2 0.53c0.24 0.46 0.58 0.86 0.79 1.32l-0.13 0.13 -0.41 0.08a0.34 0.34 0 0 0 -0.42 0.3 0.33 0.33 0 0 0 0.34 0.33l0.63 -0.06a2.39 2.39 0 0 0 0.7 -0.27 0.47 0.47 0 0 0 0.11 -0.42A3.13 3.13 0 0 0 6.22 6c-0.17 -0.47 -0.45 -0.9 -0.59 -1.38a0.85 0.85 0 0 0 0.61 -0.12 0.62 0.62 0 0 0 0.2 -0.38 0.67 0.67 0 0 0 0 -0.31c-0.05 -0.1 0.23 0.23 -1.29 -1.41C4.69 2 4.35 1.47 4 1a5.66 5.66 0 0 0 -0.6 -0.6C3 0 2.33 1 0.88 2.79c0 0 -0.39 0.51 -0.52 0.72a0.64 0.64 0 0 0 0.09 0.79 0.78 0.78 0 0 0 0.55 0.07L0.27 6.1l-0.17 0.39 0 -0.06s-0.1 0.36 -0.1 0.48a0.39 0.39 0 0 0 0.13 0.23 0.81 0.81 0 0 0 0.43 0.18 2.22 2.22 0 0 0 0.55 -0.02Z" fill="#4C57E6" stroke-width="1"></path>
    <path d="M17.54 6.1a0.32 0.32 0 0 0 0.31 -0.29 0.3 0.3 0 0 0 -0.29 -0.31 1.11 1.11 0 0 1 -0.85 -0.7 1.85 1.85 0 0 1 -0.16 -1.17 2.18 2.18 0 0 1 0.8 -1.17 2.44 2.44 0 0 1 1.3 -0.57 4.05 4.05 0 0 1 0.78 0 0.79 0.79 0 0 1 0.47 0.17c0.38 0.44 0.28 0.41 0.33 0.84a0.66 0.66 0 0 0 0.21 0.44 0.66 0.66 0 0 0 0.42 0.15c0.24 0 0.46 -0.06 0.69 -0.06a0.59 0.59 0 0 1 0.25 0 1.12 1.12 0 0 1 0.63 1.42 2.19 2.19 0 0 1 -1.36 1.41 0.35 0.35 0 0 0 -0.25 0.42 0.35 0.35 0 0 0 0.42 0.24 2.94 2.94 0 0 0 2.13 -2.35 2 2 0 0 0 -1.1 -2.06 1.7 1.7 0 0 0 -0.51 -0.17 2.61 2.61 0 0 0 -0.4 0v-0.02a1.75 1.75 0 0 0 -0.2 -0.47 3.11 3.11 0 0 0 -0.39 -0.54 1.68 1.68 0 0 0 -1 -0.52 4.35 4.35 0 0 0 -1.29 0 3.48 3.48 0 0 0 -1.85 0.93 3.14 3.14 0 0 0 -1 1.79 2.71 2.71 0 0 0 0.39 1.68 1.79 1.79 0 0 0 1.52 0.91Z" fill="#4C57E6" stroke-width="1"></path>
    <path d="M10.28 8.24a1.66 1.66 0 0 0 -0.61 0.43 1.09 1.09 0 0 0 -0.14 1.38 1.52 1.52 0 0 0 2.64 -0.36 1.1 1.1 0 0 0 -0.13 -1 1.53 1.53 0 0 0 -1.76 -0.45Zm1 1.07a0.55 0.55 0 0 1 -0.26 0.18 0.5 0.5 0 0 1 -0.29 0 0.43 0.43 0 0 1 -0.27 -0.1s-0.08 0 -0.09 -0.06a0.28 0.28 0 0 1 0 -0.18c0.42 -0.76 0.88 -0.25 0.95 -0.08a0.2 0.2 0 0 1 -0.02 0.24Z" fill="#020202" stroke-width="1"></path>
    <path d="M11 14.3a1.22 1.22 0 0 0 0.61 -1.46 1.26 1.26 0 0 0 -2.17 -0.5 1 1 0 0 0 -0.22 0.56 1.61 1.61 0 0 0 0.61 1.3 1.13 1.13 0 0 0 1.17 0.1Zm-0.31 -1.38a0.25 0.25 0 0 1 -0.13 0.33c-0.09 0.05 -0.17 0 -0.23 -0.09a0.84 0.84 0 0 1 -0.23 -0.31c-0.1 -0.44 0.46 -0.33 0.58 0.07Z" fill="#020202" stroke-width="1"></path>
  </g>
</svg>