<svg xmlns="http://www.w3.org/2000/svg" viewBox="0 0 24 24" id="Nautic-Sports-Sailing-Person--Streamline-Freehand">
  <desc>
    Nautic Sports Sailing Person Streamline Icon: https://streamlinehq.com
  </desc>
  <title>nautic-sports-sailing-person</title>
  <g>
    <path d="M4 8.6a2.39 2.39 0 0 0 1.55 -2 2.16 2.16 0 0 0 -0.06 -0.76 1.24 1.24 0 0 0 -0.25 -0.5 0.3 0.3 0 0 0 -0.08 -0.08 2.83 2.83 0 0 0 -1.29 -0.68 2 2 0 0 0 -1.08 0.08 2 2 0 0 0 -1.25 1.56 2.2 2.2 0 0 0 0.63 1.94A1.82 1.82 0 0 0 4 8.6ZM2.67 6.37a1 1 0 0 1 0.5 -0.88 1.15 1.15 0 0 1 0.77 -0.12 2.25 2.25 0 0 1 0.71 0.26 0.5 0.5 0 0 0 0 0.13 0.64 0.64 0 0 1 0.1 0.33 1.84 1.84 0 0 1 0 0.41 1.5 1.5 0 0 1 -0.75 1 0.8 0.8 0 0 1 -1 -0.18 1.11 1.11 0 0 1 -0.33 -0.95Z" fill="#020202" fill-rule="evenodd" stroke-width="1"></path>
    <path d="M3.06 10.34a1.72 1.72 0 0 0 -0.05 0.71 6 6 0 0 0 0.21 0.81c0.07 0.22 0.14 0.43 0.23 0.64s0.27 0.58 0.42 0.87a7.72 7.72 0 0 0 0.82 1.35 2.64 2.64 0 0 0 0.92 0.73c0.49 0.22 1.15 0.24 1.69 0.43a0.94 0.94 0 0 1 0.43 0.26 1.11 1.11 0 0 1 0.16 0.8A3.91 3.91 0 0 0 8 18.18a1.3 1.3 0 0 0 0.41 0.62 0.9 0.9 0 0 0 1 0.15 2.13 2.13 0 0 0 0.91 -0.75 0.36 0.36 0 0 0 0 -0.22 5.86 5.86 0 0 0 0.28 -2 2.74 2.74 0 0 0 -0.6 -1.44 2.21 2.21 0 0 0 -0.7 -0.63c-0.5 -0.31 -1.12 -0.47 -1.6 -0.81a2.67 2.67 0 0 1 -0.64 -0.73 6.86 6.86 0 0 1 -0.5 -1l0.53 -0.18a7.76 7.76 0 0 0 0.72 -0.3 4 4 0 0 0 1.23 -0.87 2.61 2.61 0 0 0 0.58 -1 1.81 1.81 0 0 0 -0.17 -1.49 1.44 1.44 0 0 0 -0.9 -0.53 1.79 1.79 0 0 0 -1.08 0.14A9.41 9.41 0 0 0 6 8.23c-0.64 0.47 -1.55 0.52 -2.16 1a2 2 0 0 0 -0.78 1.11Zm1.09 0.31a1 1 0 0 1 0.57 -0.65 14.45 14.45 0 0 0 2 -0.83c0.35 -0.25 0.71 -0.67 1.13 -0.93a0.72 0.72 0 0 1 0.53 -0.14 0.3 0.3 0 0 1 0.22 0.19 0.7 0.7 0 0 1 0 0.45 1.52 1.52 0 0 1 -0.43 0.67 3.5 3.5 0 0 1 -0.78 0.54 5.46 5.46 0 0 1 -0.6 0.27c-0.33 0.13 -0.67 0.24 -1 0.36a0.5 0.5 0 0 0 -0.3 0.27 0.53 0.53 0 0 0 0 0.41 12.14 12.14 0 0 0 0.86 1.62 3.7 3.7 0 0 0 0.93 1c0.51 0.34 1.15 0.48 1.69 0.78a1.58 1.58 0 0 1 0.47 0.39 2 2 0 0 1 0.4 1.05 5.29 5.29 0 0 1 -0.29 1.9 0.28 0.28 0 0 0 0 0.09 1.2 1.2 0 0 1 -0.34 0.25 0.33 0.33 0 0 1 -0.39 0 0.88 0.88 0 0 1 -0.21 -0.76 6.86 6.86 0 0 0 0 -1.19 1.39 1.39 0 0 0 -0.28 -0.7 1.68 1.68 0 0 0 -0.76 -0.55c-0.5 -0.21 -1.13 -0.24 -1.58 -0.48a1.63 1.63 0 0 1 -0.57 -0.5 6.34 6.34 0 0 1 -0.65 -1.2c-0.13 -0.27 -0.25 -0.54 -0.36 -0.82s-0.12 -0.35 -0.17 -0.54 -0.1 -0.36 -0.13 -0.55a0.73 0.73 0 0 1 0.04 -0.4Z" fill="#020202" fill-rule="evenodd" stroke-width="1"></path>
    <path d="M23.21 21.4a0.34 0.34 0 0 0 -0.46 0.17 2.15 2.15 0 0 1 -2 1.23 2.41 2.41 0 0 1 -2 -1.12 0.48 0.48 0 0 0 -0.34 -0.21 0.45 0.45 0 0 0 -0.38 0.13 5.13 5.13 0 0 1 -3.14 1.27 2.89 2.89 0 0 1 -2.72 -1.38 0.61 0.61 0 0 0 -0.45 -0.27 0.55 0.55 0 0 0 -0.48 0.19 4.17 4.17 0 0 1 -2.91 1.33 3.18 3.18 0 0 1 -2.81 -1.31 0.44 0.44 0 0 0 -0.38 -0.2 0.43 0.43 0 0 0 -0.38 0.22A2.68 2.68 0 0 1 3 22.61a1.46 1.46 0 0 1 -1.77 -0.83 0.3 0.3 0 0 0 -0.62 0.22 2 2 0 0 0 1.86 1.38 3.73 3.73 0 0 0 2.65 -1 4.12 4.12 0 0 0 3.23 1.45 5.21 5.21 0 0 0 3.24 -1.17A4 4 0 0 0 15 24a6 6 0 0 0 3.36 -1.37 3.29 3.29 0 0 0 2.5 1 2.91 2.91 0 0 0 2.57 -1.76 0.35 0.35 0 0 0 -0.22 -0.47Z" fill="#4C57E6" fill-rule="evenodd" stroke-width="1"></path>
    <path d="M8.49 3.48c0.27 0.72 0.56 1.43 0.85 2.13 0.68 1.63 1.42 3.24 2.1 4.87s1.32 3.13 2 4.72c0.36 0.89 0.7 1.8 1 2.7 -1.77 0.58 -3.52 1.17 -5.29 1.72 -0.76 0.23 -1.53 0.46 -2.31 0.67a0.31 0.31 0 0 0 -0.23 0.37 0.3 0.3 0 0 0 0.37 0.22c1.06 -0.2 2.11 -0.44 3.16 -0.69 1.57 -0.38 3.12 -0.8 4.69 -1.2 1.25 -0.36 2.51 -0.67 3.77 -1l1.63 -0.47a3.66 3.66 0 0 1 -0.84 1.2A7.37 7.37 0 0 1 17.22 20a0.35 0.35 0 0 0 0.27 0.65 7.37 7.37 0 0 0 2.85 -1.75 4.55 4.55 0 0 0 1.11 -2.08 0.49 0.49 0 0 0 -0.15 -0.47 0.53 0.53 0 0 0 -0.48 -0.12c-1.26 0.32 -2.54 0.6 -3.8 0.91 -0.67 0.17 -1.34 0.36 -2 0.55 -0.21 -0.65 -0.43 -1.29 -0.66 -1.94a32.1 32.1 0 0 0 3.38 -2 10.59 10.59 0 0 0 2 -1.83 8 8 0 0 0 1.42 -2.31 3.25 3.25 0 0 0 0.12 -2 6.31 6.31 0 0 0 -1.69 -2.8 16.49 16.49 0 0 0 -4 -2.55c-0.36 -0.18 -0.77 -0.37 -1.2 -0.55 -0.61 -0.27 -1.25 -0.52 -1.79 -0.73L9.85 0.14A2.21 2.21 0 0 0 8.92 0a1.08 1.08 0 0 0 -0.78 0.45 1.57 1.57 0 0 0 -0.27 1.16 9 9 0 0 0 0.62 1.87Zm11.8 5.9a6.8 6.8 0 0 1 -1.2 2.06A9.12 9.12 0 0 1 17.45 13c-0.37 -1.13 -0.76 -2.25 -1.18 -3.36l1.33 -0.53c0.4 -0.16 0.81 -0.33 1.2 -0.52s1 -0.52 1.5 -0.78a0.94 0.94 0 0 0 0.06 0.15 2.21 2.21 0 0 1 -0.07 1.42Zm-5.16 -6a15.56 15.56 0 0 1 3.75 2.29A5.32 5.32 0 0 1 20 7.13a11.26 11.26 0 0 0 -1.36 0.34 6 6 0 0 0 -0.8 0.31 7.79 7.79 0 0 0 -0.76 0.39c-0.38 0.22 -0.74 0.46 -1.09 0.7 -0.07 -0.16 -0.12 -0.32 -0.18 -0.48 -0.43 -1.05 -0.9 -2.07 -1.34 -3.12 -0.43 -0.89 -0.9 -1.76 -1.31 -2.66l0 -0.09 0.88 0.36c0.36 0.17 0.75 0.34 1.09 0.51ZM9.07 1.15l0.42 0.1 2.74 0.92c0.1 0.38 0.21 0.75 0.34 1.12 0.27 0.8 0.58 1.6 0.85 2.4s0.62 1.59 1 2.37c0.79 1.81 1.69 3.56 2.45 5.39 -0.87 0.61 -1.79 1.14 -2.72 1.68l-0.07 -0.19c-0.58 -1.6 -1.19 -3.2 -1.79 -4.79S11 6.87 10.33 5.22c-0.27 -0.7 -0.53 -1.41 -0.77 -2.12a10.55 10.55 0 0 1 -0.51 -1.41c-0.05 -0.2 -0.05 -0.4 0.02 -0.54Z" fill="#020202" fill-rule="evenodd" stroke-width="1"></path>
  </g>
</svg>