<svg xmlns="http://www.w3.org/2000/svg" viewBox="0 0 24 24" id="Navigation-Left-Circle--Streamline-Freehand">
  <desc>
    Navigation Left Circle Streamline Icon: https://streamlinehq.com
  </desc>
  <g>
    <path d="M23.72 9.76a12.36 12.36 0 0 0 -2.37 -5 12.33 12.33 0 0 0 -10 -4.41 12 12 0 0 0 -9.4 5.56 11.32 11.32 0 0 0 -1.84 4.93A14.28 14.28 0 0 0 0.42 16a9.92 9.92 0 0 0 2.84 4.65A11 11 0 0 0 8 23.23a0.29 0.29 0 0 0 0.4 -0.23 0.29 0.29 0 0 0 -0.2 -0.36 10.34 10.34 0 0 1 -4.47 -2.47 9.14 9.14 0 0 1 -2.53 -4.33A13.65 13.65 0 0 1 1 11a10.45 10.45 0 0 1 1.76 -4.51 11 11 0 0 1 8.61 -5 11.24 11.24 0 0 1 9.12 4 11.26 11.26 0 0 1 2.26 9.62 10 10 0 0 1 -3.95 6A11.46 11.46 0 0 1 11.73 23a0.34 0.34 0 1 0 0 0.68 12.19 12.19 0 0 0 7.54 -1.92 10.78 10.78 0 0 0 4.4 -6.46 12.2 12.2 0 0 0 0.05 -5.54Z" fill="#4C57E6" stroke-width="1"></path>
    <path d="M14.7 10a4.2 4.2 0 0 1 1.95 1.07 3.34 3.34 0 0 1 0.78 1.93 4.24 4.24 0 0 1 -0.2 2.18 3.34 3.34 0 0 1 -0.4 0.65 5.88 5.88 0 0 1 -0.52 0.6c-0.41 0.4 -0.73 0.49 -0.57 0.74s0.23 0.41 0.49 0.22l0.56 -0.43a6.55 6.55 0 0 0 0.65 -0.64 4.12 4.12 0 0 0 0.53 -0.76 5 5 0 0 0 0.46 -2.67 4.37 4.37 0 0 0 -1 -2.61A4.82 4.82 0 0 0 15 8.94a10.7 10.7 0 0 0 -4 0.17c-0.36 0.07 -0.71 0.15 -1.06 0.24a6.68 6.68 0 0 0 -0.71 0.25l-0.99 0.4a0.3 0.3 0 0 0 -0.17 0.38 0.3 0.3 0 0 0 0.38 0.18l1 -0.32a4.61 4.61 0 0 1 0.64 -0.16c0.33 -0.06 0.67 -0.1 1 -0.13a10.39 10.39 0 0 1 3.61 0.05Z" fill="#020202" stroke-width="1"></path>
    <path d="M9.61 12.05c-0.66 -0.37 -1.47 -0.67 -2 -1 -0.11 -0.07 -0.69 -0.28 -0.69 -0.28s0.29 -0.24 0.34 -0.3l1.5 -1.71 0.85 -1s0.4 -0.31 0.35 -0.43a0.28 0.28 0 0 0 0.16 -0.33c0 -0.18 -0.21 -0.35 -0.52 -0.16a4.58 4.58 0 0 0 -0.49 0.47l-0.93 0.76A14.37 14.37 0 0 0 7.07 9c-0.23 0.22 -0.45 0.46 -0.67 0.7a3.32 3.32 0 0 0 -0.48 0.61 0.9 0.9 0 0 0 -0.1 0.67 1 1 0 0 0 0.46 0.6c0.25 0.15 0.62 0.24 0.79 0.34 0.59 0.31 1.47 0.52 2.19 0.83a2.65 2.65 0 0 1 0.76 0.43 0.33 0.33 0 0 0 0.47 0 0.34 0.34 0 0 0 0 -0.48 3.66 3.66 0 0 0 -0.88 -0.65Z" fill="#020202" stroke-width="1"></path>
  </g>
</svg>