<svg xmlns="http://www.w3.org/2000/svg" viewBox="0 0 24 24" id="Navigation-Car-Map--Streamline-Freehand">
  <desc>
    Navigation Car Map Streamline Icon: https://streamlinehq.com
  </desc>
  <g>
    <path d="M14.94 7.71a13.44 13.44 0 0 0 1.19 2 3.68 3.68 0 0 0 1.22 1.06 0.3 0.3 0 0 0 0.4 -0.13 0.3 0.3 0 0 0 -0.13 -0.4 3 3 0 0 1 -1 -0.93 11.88 11.88 0 0 1 -1 -1.91 12 12 0 0 1 -0.76 -1.89 5.48 5.48 0 0 1 -0.24 -1.27A2.76 2.76 0 0 1 15.55 2a3.21 3.21 0 0 1 2.22 -0.89 2.93 2.93 0 0 1 1.23 0.3 4.14 4.14 0 0 1 1.12 0.75 6.4 6.4 0 0 1 0.59 0.58 1.08 1.08 0 0 1 0.21 0.33 2.57 2.57 0 0 1 0 1.29 7.81 7.81 0 0 1 -0.8 2.05l-2.22 4.26a0.34 0.34 0 0 0 0.13 0.46 0.35 0.35 0 0 0 0.46 -0.14l2.45 -4.13a8.66 8.66 0 0 0 1 -2.26 3.54 3.54 0 0 0 0 -1.8 2.15 2.15 0 0 0 -0.37 -0.7 7.49 7.49 0 0 0 -0.66 -0.7 5.28 5.28 0 0 0 -1.41 -1 4.1 4.1 0 0 0 -1.73 -0.4 4.31 4.31 0 0 0 -3 1.23 3.77 3.77 0 0 0 -1.12 3A6.08 6.08 0 0 0 14 5.74a13.61 13.61 0 0 0 0.94 1.97Z" fill="#4C57E6" fill-rule="evenodd" stroke-width="1"></path>
    <path d="M18 2.63a1.67 1.67 0 0 0 -1.84 1.43 1.4 1.4 0 0 0 1 1.57A1.61 1.61 0 0 0 19 4.92a1.32 1.32 0 0 0 -0.41 -1.84 0.34 0.34 0 0 0 -0.37 0 0.3 0.3 0 0 0 0 -0.1 0.29 0.29 0 0 0 -0.22 -0.35Zm0.24 1.77a0.59 0.59 0 0 1 -0.71 0.16 0.53 0.53 0 0 1 -0.28 -0.82 0.9 0.9 0 0 1 0.7 -0.52 0.25 0.25 0 0 0 0.17 0 0.33 0.33 0 0 0 0.09 0.42 0.56 0.56 0 0 1 0.01 0.76Z" fill="#4C57E6" fill-rule="evenodd" stroke-width="1"></path>
    <path d="M23.76 9.67c0 -1.06 -0.1 -2.12 -0.2 -3.17a0.34 0.34 0 0 0 -0.36 -0.31 0.33 0.33 0 0 0 -0.31 0.36c0.06 1 0.1 2.09 0.1 3.13s0 2.09 -0.12 3.12l-0.18 1.64a1.39 1.39 0 0 1 -1.13 1 15.92 15.92 0 0 1 -3.1 0.19c-1.13 0.1 -2.27 0.21 -3.41 0.26a20.92 20.92 0 0 1 -2.24 0 5.29 5.29 0 0 1 -1.21 -0.18 2.86 2.86 0 0 1 -0.41 -0.15 15.75 15.75 0 0 0 2 -1.68c0.37 -0.38 0.73 -0.78 1.07 -1.19 0.5 -0.61 0.95 -1.24 1.51 -1.81a0.29 0.29 0 1 0 -0.37 -0.45 15.31 15.31 0 0 0 -1.29 0.95 2.11 2.11 0 0 1 -0.31 -0.21c-0.28 -0.22 -0.52 -0.48 -0.81 -0.72s-0.34 -0.26 -0.51 -0.37c-0.39 -0.25 -0.8 -0.46 -1.18 -0.72s-0.88 -0.54 -1.33 -0.78a4.33 4.33 0 0 0 -0.66 -0.3 0.33 0.33 0 0 0 -0.17 0 6.53 6.53 0 0 1 -0.06 -1A2.79 2.79 0 0 1 9.9 5.1a1.83 1.83 0 0 1 0.75 -0.32c0.49 -0.11 1 -0.15 1.43 -0.21A0.3 0.3 0 1 0 12 4a13.11 13.11 0 0 0 -1.73 0.23 2.43 2.43 0 0 0 -0.78 0.35 3.49 3.49 0 0 0 -1.23 2.75 22.32 22.32 0 0 0 0.47 4.25 22.18 22.18 0 0 0 0.42 3.1A3.39 3.39 0 0 0 9.88 16a2.81 2.81 0 0 0 1.12 0.72 6.17 6.17 0 0 0 1.75 0.32 23.22 23.22 0 0 0 2.36 0c1.15 -0.06 2.3 -0.19 3.45 -0.3s2.79 0 3.87 -0.56a2.17 2.17 0 0 0 1.17 -1.58q0.06 -0.36 0.09 -0.72l0 -1c0.1 -1.08 0.1 -2.14 0.07 -3.21ZM9.69 11.43c-0.12 -0.65 -0.33 -1.52 -0.49 -2.43a3.81 3.81 0 0 1 0.32 0.24c0.4 0.34 0.73 0.72 1.12 1.07a7.92 7.92 0 0 0 0.71 0.47c0.34 0.2 0.7 0.36 1.05 0.56s0.71 0.45 1.08 0.62l-0.25 0.23c-0.37 0.38 -0.71 0.79 -1.05 1.2 -0.51 0.6 -1 1.23 -1.54 1.79a2.82 2.82 0 0 1 -0.56 -1.18c-0.22 -0.9 -0.26 -1.86 -0.39 -2.57Z" fill="#020202" fill-rule="evenodd" stroke-width="1"></path>
    <path d="M19.35 18.58a0.3 0.3 0 0 0 -0.29 -0.31 0.29 0.29 0 0 0 -0.31 0.28 6.28 6.28 0 0 0 -0.27 0.9 2.55 2.55 0 0 0 0 0.39 2.34 2.34 0 0 0 0 0.39c0.06 0.32 0.16 0.61 0.24 0.91a12.21 12.21 0 0 0 -1.34 0 3.15 3.15 0 0 0 -1 0.29 1.19 1.19 0 0 0 -0.36 0.31c-0.14 0.16 -0.25 0.37 -0.39 0.51a1.47 1.47 0 0 1 -0.34 0.24 2.07 2.07 0 0 1 -0.45 0.17 1.48 1.48 0 0 1 -1.13 -0.09 1.19 1.19 0 0 1 -0.72 -0.91 0.29 0.29 0 0 0 -0.3 -0.3 0.28 0.28 0 0 0 -0.25 0.2c-0.52 0 -1 -0.07 -1.57 -0.11 -0.38 0 -0.76 -0.05 -1.13 0 -0.66 0 -1.3 0.12 -1.93 0.19a0.29 0.29 0 0 0 -0.31 0.36l-0.5 0.85a1.07 1.07 0 0 1 -1 0.33 2.65 2.65 0 0 1 -1.12 -0.51c-0.21 -0.16 -0.43 -0.43 -0.68 -0.61a1.52 1.52 0 0 0 -0.54 -0.24 3.42 3.42 0 0 0 -0.45 0 9.48 9.48 0 0 1 -1.41 0l-0.41 -0.12a0.65 0.65 0 0 1 0 -0.29l0 -0.54a8.21 8.21 0 0 1 0.09 -0.95 1.33 1.33 0 0 1 0.17 -0.46 0.56 0.56 0 0 1 0.2 -0.17c0.21 -0.14 0.46 -0.26 0.62 -0.36a5 5 0 0 0 1 -0.72 2.58 2.58 0 0 0 0.53 -0.76c0.37 -0.68 0.54 -1.59 0.89 -2.34a2.21 2.21 0 0 1 0.5 -0.73 1.36 1.36 0 0 1 0.63 -0.29 9.58 9.58 0 0 1 1.24 -0.16 0.31 0.31 0 0 0 0.28 -0.32 0.3 0.3 0 0 0 -0.33 -0.27 12.77 12.77 0 0 0 -1.33 0.08 2.06 2.06 0 0 0 -1 0.39 2.91 2.91 0 0 0 -0.77 0.93c-0.39 0.7 -0.61 1.57 -1 2.21a2.08 2.08 0 0 1 -0.41 0.43 4.51 4.51 0 0 1 -0.85 0.54 5.53 5.53 0 0 0 -0.83 0.47 1.74 1.74 0 0 0 -0.41 0.4 2.43 2.43 0 0 0 -0.33 0.85 7.44 7.44 0 0 0 -0.11 1.12 5.52 5.52 0 0 0 0 0.91 1.57 1.57 0 0 0 0.17 0.53 1.15 1.15 0 0 0 0.4 0.39 2.16 2.16 0 0 0 0.81 0.25 2.26 2.26 0 0 0 0.45 0 9.79 9.79 0 0 1 1.42 -0.07 0.9 0.9 0 0 1 0.24 0.12c0.22 0.17 0.43 0.37 0.62 0.5a3.12 3.12 0 0 0 1.98 0.61 1.74 1.74 0 0 0 1.26 -0.66 2 2 0 0 0 0.25 -0.34c0.12 -0.22 0.22 -0.45 0.34 -0.67 0.44 0.09 0.88 0.19 1.34 0.25 0.24 0 0.49 0 0.73 0.05s0.49 0 0.74 0a10 10 0 0 0 1.55 -0.26 2.14 2.14 0 0 0 0.77 1.06 2.5 2.5 0 0 0 1.87 0.43 2.91 2.91 0 0 0 0.71 -0.26 2.17 2.17 0 0 0 0.65 -0.5l0.43 -0.69a2.06 2.06 0 0 1 0.67 -0.31 12.61 12.61 0 0 1 1.3 -0.22 0.35 0.35 0 0 0 0.31 -0.36 0.34 0.34 0 0 0 0.26 -0.35c0 -0.29 0.11 -0.57 0.14 -0.88a2.31 2.31 0 0 0 0 -0.37 1.5 1.5 0 0 0 0 -0.37c-0.07 -0.41 -0.17 -0.67 -0.23 -0.97Z" fill="#020202" fill-rule="evenodd" stroke-width="1"></path>
  </g>
</svg>