<svg xmlns="http://www.w3.org/2000/svg" viewBox="0 0 24 24" id="Navigation-Smartphone-Steps--Streamline-Freehand">
  <desc>
    Navigation Smartphone Steps Streamline Icon: https://streamlinehq.com
  </desc>
  <g>
    <path d="m19.66 7.69 0 -3.16a10.86 10.86 0 0 0 -0.11 -1.4 6.11 6.11 0 0 0 -0.26 -1.3 2.49 2.49 0 0 0 -0.49 -0.91 2.25 2.25 0 0 0 -1.22 -0.66 15.37 15.37 0 0 0 -2.53 -0.2C14.52 0 14 0 13.46 0c-1.21 0 -2.41 0.06 -3.64 0 -1 0 -2 -0.09 -3 0a8.48 8.48 0 0 0 -2 0.31 0.28 0.28 0 0 0 -0.21 0.3s0 0 0 0.06c-0.15 2.55 -0.26 5.11 -0.27 7.68 0 1.53 0 3.07 0.09 4.6 0 1 0.12 2 0.18 3.07 0.11 1.54 0 3.14 0.11 4.71a15.62 15.62 0 0 0 0.19 2.06 0.36 0.36 0 0 0 0.39 0.3 0.32 0.32 0 0 0 0.19 -0.1 0.26 0.26 0 0 0 -0.12 0.19 0.31 0.31 0 0 0 0.24 0.36 14.14 14.14 0 0 0 1.9 0.3c0.94 0.08 1.87 0.1 2.83 0.13s2 0 3 -0.1c1.51 -0.08 3 -0.24 4.5 -0.39a0.35 0.35 0 1 0 0 -0.7l-5.25 0c-0.75 0 -1.49 0 -2.25 0.07 -0.93 0.07 -1.85 0.16 -2.77 0.18A13.85 13.85 0 0 1 5.65 23a0.28 0.28 0 0 0 -0.23 0.05 0.34 0.34 0 0 0 0.11 -0.3 18.43 18.43 0 0 1 -0.09 -2c0 -1.59 0.18 -3.19 0.15 -4.74 -0.07 -2 -0.09 -4.08 -0.15 -6.12s-0.19 -4.1 -0.24 -6.14l0 -2.88A8 8 0 0 1 6.83 0.7c1 0 2 0.11 3 0.16 1.17 0.07 2.39 0.06 3.61 0.14 0.5 0 1 0.05 1.52 0.1s1.32 0.06 2.05 0.19a1.6 1.6 0 0 1 0.91 0.38 1.48 1.48 0 0 1 0.27 0.53 6.22 6.22 0 0 1 0.2 1.1c0.05 0.42 0.07 0.86 0.09 1.29l0 3.14q0.18 4.79 0.33 9.57c0.07 2.12 0.13 4.25 0.16 6.37a0.36 0.36 0 0 0 0.36 0.35 0.35 0.35 0 0 0 0.34 -0.35q0.06 -4.78 0 -9.58c0.05 -2.15 0.02 -4.28 -0.01 -6.4Z" fill="#020202" fill-rule="evenodd" stroke-width="1"></path>
    <path d="M10.93 4.41a2 2 0 0 0 -1.11 -2.67 0.35 0.35 0 0 0 -0.47 0.15s0 0 0 0.05a0.3 0.3 0 0 0 -0.25 -0.3A1.76 1.76 0 0 0 7 3.1a2.32 2.32 0 0 0 0.15 1.68 1.84 1.84 0 0 0 0.94 0.83 2.16 2.16 0 0 0 2.84 -1.2ZM10 4a1.11 1.11 0 0 1 -1.48 0.52A1 1 0 0 1 8 3.29c0.09 -0.56 0.41 -1.12 1 -1A0.31 0.31 0 0 0 9.32 2a0.35 0.35 0 0 0 0.2 0.32A1.19 1.19 0 0 1 10 4Z" fill="#4C57E6" fill-rule="evenodd" stroke-width="1"></path>
    <path d="M17.73 4.88a0.35 0.35 0 0 0 -0.33 -0.36c-0.47 -0.08 -0.92 -0.17 -1.4 -0.22a4 4 0 0 0 -0.6 0 5.68 5.68 0 0 0 -0.59 0c-0.48 0.06 -0.92 0.19 -1.39 0.28a0.31 0.31 0 1 0 0 0.61c0.46 0.08 0.91 0.18 1.38 0.23l0.59 0a5.65 5.65 0 0 0 0.59 0c0.47 -0.05 0.92 -0.13 1.37 -0.19a0.33 0.33 0 0 0 0.38 -0.35Z" fill="#020202" fill-rule="evenodd" stroke-width="1"></path>
    <path d="M9.71 7.76a0.48 0.48 0 0 0 -0.05 -0.17C9.24 6.86 9 7 9 7s-0.27 0 -0.44 0.78a0.54 0.54 0 0 0 0 0.18 1.15 1.15 0 0 0 0.06 0.17c0.41 0.76 0.62 0.66 0.69 0.64s0.26 -0.07 0.4 -0.82a0.5 0.5 0 0 0 0 -0.19Z" fill="#4C57E6" fill-rule="evenodd" stroke-width="1"></path>
    <path d="M9.22 11.64c0.07 0 0.29 0.06 0.53 -0.77a0.47 0.47 0 0 0 0 -0.17 0.32 0.32 0 0 0 0 -0.16c-0.33 -0.77 -0.55 -0.69 -0.56 -0.69 -0.26 0 -0.55 0.71 -0.56 0.72a0.55 0.55 0 0 0 0 0.18 0.35 0.35 0 0 0 0 0.17c0.3 0.71 0.44 0.73 0.59 0.72Z" fill="#4C57E6" fill-rule="evenodd" stroke-width="1"></path>
    <path d="M11.56 19.86a13.71 13.71 0 0 0 0.85 -1.33 5.67 5.67 0 0 0 0.52 -1.16 3.12 3.12 0 0 0 0.14 -0.93 3.28 3.28 0 0 0 -3.76 -3.36 3 3 0 0 0 -2.67 4.21 5.14 5.14 0 0 0 0.44 0.95c0.17 0.29 0.36 0.57 0.55 0.84s0.58 0.74 0.9 1.09c0.45 0.53 0.93 1 1.41 1.54a0.31 0.31 0 0 0 0.46 -0.41l-0.11 -0.14a0.34 0.34 0 0 0 0.24 -0.1 8.85 8.85 0 0 0 1.03 -1.2Zm-1.56 0.71a0.27 0.27 0 0 0 -0.1 0.18c-0.28 -0.35 -0.56 -0.69 -0.82 -1.05s-0.53 -0.73 -0.77 -1.11 -0.31 -0.52 -0.45 -0.78a4.59 4.59 0 0 1 -0.25 -0.81 2 2 0 0 1 1.83 -2.76 2.28 2.28 0 0 1 2.64 2.24 2.32 2.32 0 0 1 -0.09 0.8 6.18 6.18 0 0 1 -0.36 0.85 10.07 10.07 0 0 1 -0.71 1.29 8.76 8.76 0 0 1 -0.92 1.15Z" fill="#020202" fill-rule="evenodd" stroke-width="1"></path>
    <path d="m16.13 19.75 -0.95 0 -1.58 0.3a0.31 0.31 0 0 0 -0.29 0.33 0.31 0.31 0 0 0 0.33 0.28c0.38 0 0.72 0.17 1.1 0.23a3.14 3.14 0 0 0 0.53 0l1.81 -0.33a0.34 0.34 0 0 0 0.38 -0.31 0.35 0.35 0 0 0 -0.31 -0.38 4.69 4.69 0 0 0 -1.02 -0.12Z" fill="#020202" fill-rule="evenodd" stroke-width="1"></path>
    <path d="M10.85 15.75a0.93 0.93 0 0 0 -0.33 -0.38 2.2 2.2 0 0 0 -0.49 -0.2 0.36 0.36 0 0 0 -0.39 0.11 1.21 1.21 0 0 0 -1.1 1.14 1.18 1.18 0 0 0 2.06 0.78 1.41 1.41 0 0 0 0.25 -1.45Z" fill="#020202" fill-rule="evenodd" stroke-width="1"></path>
  </g>
</svg>