<svg xmlns="http://www.w3.org/2000/svg" viewBox="0 0 24 24" id="Network-Laptop-1--Streamline-Freehand">
  <desc>
    Network Laptop 1 Streamline Icon: https://streamlinehq.com
  </desc>
  <g>
    <path d="M1.92 11.61a0.31 0.31 0 0 0 0.61 -0.12C2 8.78 2 3.65 2.5 2.91s1.78 -0.86 3.46 -1c2.77 -0.28 6.49 -0.22 9.55 -0.29 1.2 -0.05 4.76 -0.13 5.47 0.85 0.55 0.76 0.7 6.32 -0.23 8.73a0.35 0.35 0 1 0 0.66 0.26c1.09 -2.6 1.12 -8.47 0.39 -9.56C20.82 0.4 17.29 0.39 15.48 0.41c-3.09 0.08 -6.86 0 -9.64 0.34 -2.07 0.25 -3.61 0.8 -4.14 1.6a9.42 9.42 0 0 0 -0.4 3.84 30.79 30.79 0 0 0 0.62 5.42Z" fill="#020202" stroke-width="1"></path>
    <path d="M1.89 16.59c1.26 0.8 19.21 0.39 19.71 0.19a2.79 2.79 0 0 0 1.54 -2.94c-0.18 -0.62 -2.07 -0.67 -2.54 -0.54a0.36 0.36 0 0 0 0.19 0.69 3.89 3.89 0 0 1 1.64 0.16A2.08 2.08 0 0 1 21.3 16c-2.8 0 -16 0 -18.81 -0.43 -0.43 -0.3 -0.57 -1 -0.74 -1.45 -0.07 -0.21 0.66 -0.12 1.3 -0.16 3.53 -0.26 12.07 -0.13 15.61 0a0.31 0.31 0 0 0 0 -0.62c-3.6 -0.21 -12.1 -0.63 -15.7 -0.48 -0.7 0 -1.71 0.06 -2 0.49 -0.64 0.81 -0.06 2.65 0.93 3.24Z" fill="#020202" stroke-width="1"></path>
    <path d="M23.9 22.59a0.45 0.45 0 0 0 -0.42 -0.09c-1.42 0 -2.24 -0.27 -11.17 -0.23 0.49 -3.5 -0.09 -2.8 -0.11 -4.44a0.31 0.31 0 0 0 -0.57 -0.15c-0.23 0.42 -0.18 0.34 -0.31 2.05a11.59 11.59 0 0 0 0.17 2.54c-4 0.05 -8.72 0.39 -10.63 0.64 -0.34 0.06 -0.71 -0.07 -0.83 0.22a0.33 0.33 0 0 0 0.4 0.45s0.05 -0.06 0.11 -0.06 0 0.05 -0.06 0.06a0.22 0.22 0 0 0 0.11 0c0.53 0.06 -0.11 0.09 1.4 0 9.74 0 11.4 0 15.93 -0.23 6.58 -0.11 4.7 0 5.59 -0.05 0.25 0 0.48 -0.06 0.51 -0.32a0.35 0.35 0 0 0 -0.12 -0.39Z" fill="#4C57E6" stroke-width="1"></path>
  </g>
</svg>