<svg xmlns="http://www.w3.org/2000/svg" viewBox="0 0 24 24" id="Network-Router-Signal-1--Streamline-Freehand">
  <desc>
    Network Router Signal 1 Streamline Icon: https://streamlinehq.com
  </desc>
  <g>
    <path d="M23.44 16.09c-0.12 -1 0.25 -1.92 -1 -2.36a26.91 26.91 0 0 0 -5.18 -0.47 9.34 9.34 0 0 0 0.11 -2.58c-0.09 -0.54 -0.22 -1.07 -0.29 -1.59a0.37 0.37 0 0 0 -0.73 0 10.48 10.48 0 0 0 0.12 4.14 71.79 71.79 0 0 0 -10.82 0.26c-1.33 0.14 -3.71 0 -4.7 0.95 -0.45 0.45 -0.33 1.37 -0.34 2 0 2.17 -0.27 3 0.33 3 0.39 0 0.37 0 0.46 -2.95 0 -0.29 0 -1.24 0.13 -1.4 0.73 -0.69 3.05 -0.51 4.21 -0.61a78.79 78.79 0 0 1 11.9 0.06c6.15 0.36 4.44 0.32 4.6 1.75 0.11 1 0 2.71 -0.79 3.18 -0.26 0.14 -4 0.22 -4.07 0.23a67.08 67.08 0 0 0 -7.17 0.05c-2.37 0.18 -4.73 0.51 -7 0.75 -2 0.21 -2.84 -0.63 -2.58 0.1s1.5 0.63 2.15 0.63c-0.47 1.16 -0.43 0.44 -0.42 2.15a0.37 0.37 0 0 0 0.3 0.57c0.32 0.07 0.51 -0.51 0.55 -0.6a2.29 2.29 0 0 0 0.32 -2s0 -0.05 0 -0.06l0 -0.06a70.53 70.53 0 0 1 11.41 -0.48 32.87 32.87 0 0 0 3.81 0.09c-0.17 0.7 0.7 2.72 0.74 2.9a0.37 0.37 0 0 0 0.73 0 3.28 3.28 0 0 0 -0.74 -2.89s0 0 0 -0.05c0.93 -0.06 1.35 0 1.77 0 1.91 -0.28 2.41 -2.74 2.19 -4.71Z" fill="#020202" fill-rule="evenodd" stroke-width="1"></path>
    <path d="M14.07 7.4a0.32 0.32 0 1 0 0.5 0.4 1.77 1.77 0 0 1 1 -0.55 3.85 3.85 0 0 1 1.84 0.12 3 3 0 0 1 1.13 0.69 0.36 0.36 0 1 0 0.57 -0.45c-1.28 -2.04 -3.81 -2.28 -5.04 -0.21Z" fill="#4C57E6" fill-rule="evenodd" stroke-width="1"></path>
    <path d="M20.78 6.31a0.36 0.36 0 0 0 0.06 -0.51c-1.67 -2.41 -4.28 -3.5 -7 -2.08A6.76 6.76 0 0 0 12 5a0.33 0.33 0 0 0 0.47 0.45 6 6 0 0 1 4.94 -1c2.59 0.72 2.77 2.34 3.37 1.86Z" fill="#4C57E6" fill-rule="evenodd" stroke-width="1"></path>
    <path d="M11 3.69C12.66 1 17.51 0.56 19.9 2.19a9.76 9.76 0 0 1 2 1.59 0.37 0.37 0 0 0 0.58 -0.46 10.78 10.78 0 0 0 -2 -1.91c-3.19 -2.6 -8.42 -1.4 -10.08 2a0.32 0.32 0 0 0 0.6 0.28Z" fill="#4C57E6" fill-rule="evenodd" stroke-width="1"></path>
    <path d="M5.76 18.48a1.59 1.59 0 1 0 -2.84 -1.28 1.74 1.74 0 0 0 0.56 1.8 1.54 1.54 0 0 0 2.28 -0.52ZM4 17.24c0.28 -0.92 1.58 -0.58 1 0.44 -0.39 0.85 -1.18 0.25 -1 -0.44Z" fill="#020202" fill-rule="evenodd" stroke-width="1"></path>
    <path d="M10.36 17.94c0.91 -1.83 -3.3 -3.29 -3.1 -0.43a1.47 1.47 0 0 0 1.4 1.38 2 2 0 0 0 1.7 -0.95Zm-2 -0.73c0 -1.53 2.28 0.75 0.34 0.46 -0.2 -0.01 -0.3 -0.25 -0.3 -0.46Z" fill="#020202" fill-rule="evenodd" stroke-width="1"></path>
  </g>
</svg>