<svg xmlns="http://www.w3.org/2000/svg" viewBox="0 0 24 24" id="Network-Laptop--Streamline-Freehand">
  <desc>
    Network Laptop Streamline Icon: https://streamlinehq.com
  </desc>
  <g>
    <path d="M23.68 23c-0.35 -0.36 -10.86 -0.32 -11.37 -0.32a5.66 5.66 0 0 0 0.12 -1.9c-0.16 -1 -1 -0.61 -1.09 0a5.83 5.83 0 0 0 0.13 1.91c-4.06 0 -10.61 0.55 -11 0.66a0.32 0.32 0 0 0 0 0.61 13 13 0 0 0 1.73 -0.08c9.47 0 11.22 0 15.63 -0.22 5.85 -0.1 5.58 0 5.74 -0.08a0.35 0.35 0 0 0 0.11 -0.58Z" fill="#4C57E6" fill-rule="evenodd" stroke-width="1"></path>
    <path d="M3.26 19.25c4 0.85 15.45 0.56 16.45 0.29s0.88 -1 1 -1.86a0.35 0.35 0 0 0 -0.3 -0.39c-0.56 -0.07 -0.33 0.76 -0.56 1.28 -0.14 0.31 0 0.22 -7 0.1 -4.64 -0.07 -8 0 -9.43 -0.21 -0.19 0 -0.35 -0.13 -0.42 -0.11 -0.25 -1.58 -0.24 -1.28 0 -1.22 3 0.7 13 0.3 16.07 0.14a0.35 0.35 0 0 0 0 -0.7c-17 -0.35 -16 -0.29 -16 -0.79a0.81 0.81 0 0 1 0.06 -0.41c0.59 -1.12 2.94 -4.17 3 -4.25a0.48 0.48 0 0 0 -0.27 -0.37 0.29 0.29 0 0 0 0 -0.24C5.32 9.53 4 3.64 4.38 2.13c0.12 -0.47 3.13 -0.81 3.7 -0.86 1.66 -0.14 6.42 -0.08 6.79 -0.07a10.67 10.67 0 0 1 3.51 0.54A10.79 10.79 0 0 1 18.26 5a44.71 44.71 0 0 1 -0.8 5 5.84 5.84 0 0 1 -0.7 0.12c-2.6 0.13 -9.39 0.16 -10.3 0.18 -0.58 0 -0.58 0.76 -0.07 0.7L10 11a5.45 5.45 0 0 0 -0.68 1.21c-2.14 0.14 -2 0.24 -1.95 0.09l0.35 -0.64a0.31 0.31 0 0 0 -0.53 -0.31C5.64 13.76 5.59 14.3 6 14.63c0.87 0.76 9.13 0.86 11.44 0.24 1 -0.25 -0.12 -1.71 -1.06 -3.8h0.46c1.18 0 0.87 -0.09 0.94 0s0.05 0.09 0.09 0.17a18.68 18.68 0 0 0 2.25 4.07l0.23 1.09a0.31 0.31 0 0 0 0.61 -0.06l0 -1.26a8.08 8.08 0 0 0 -0.56 -1.32 20.26 20.26 0 0 0 -1.92 -2.9c-0.35 -0.47 -0.18 0.33 0.28 -1.87a48.49 48.49 0 0 0 0.9 -6.47 4.89 4.89 0 0 0 -0.17 -1.24 1.07 1.07 0 0 0 -0.55 -0.61c-1.87 -1 -12.62 -0.86 -14.81 0.5a1.25 1.25 0 0 0 -0.6 0.77c-0.37 1.73 1.2 7.82 1.73 8.85 0.13 0.27 0.34 0 0 0.43 -0.75 0.88 -2.5 3 -2.93 3.7a1.86 1.86 0 0 0 -0.23 0.88c0 0.42 0 -0.28 0.13 1.88 0 1.03 -0.07 1.32 1.03 1.57Zm5.43 -5.17c-0.77 0 -1.42 0 -1.85 -0.08a3.58 3.58 0 0 0 0.32 -1l1.84 0.2c-0.07 0.06 -0.23 0.57 -0.31 0.88Zm2.14 -3 1.81 0a4.85 4.85 0 0 0 -0.07 1.14l-2 0c-0.02 -0.12 0.23 -1.03 0.26 -1.22Zm-1.22 3.01c0.19 -0.3 0.28 -0.44 0.49 -0.8 1 0.06 1.63 0.06 2.62 0 0.09 0.32 0.21 0.77 0.21 0.78s-2.3 0.04 -3.32 0.02Zm3.76 -3h2.27c0.06 0.17 0.29 0.72 0.53 1.36 -0.63 0 -1.51 -0.12 -2.48 -0.18a11.75 11.75 0 0 0 -0.32 -1.2Zm3.05 2c0.13 0.34 0.25 0.66 0.33 0.92 -0.67 0.06 -1.71 0.07 -2.89 0.07 0 -0.21 -0.07 -0.34 -0.07 -0.81 0.08 0.02 2.51 -0.11 2.63 -0.16Z" fill="#020202" fill-rule="evenodd" stroke-width="1"></path>
  </g>
</svg>