<svg xmlns="http://www.w3.org/2000/svg" viewBox="0 0 24 24" id="Newspaper-Rolled--Streamline-Freehand">
  <desc>
    Newspaper Rolled Streamline Icon: https://streamlinehq.com
  </desc>
  <g>
    <path d="M24 10.81a8.42 8.42 0 0 0 -0.34 -1.65 9.25 9.25 0 0 0 -2.36 -3.78 6.65 6.65 0 0 0 -4 -2.06 1.17 1.17 0 0 0 -0.88 0.28 8.71 8.71 0 0 0 -0.87 1.19 5 5 0 0 1 -0.94 0.9 6.26 6.26 0 0 1 -1.12 0.69 8 8 0 0 1 -1.68 0.54c-1.41 0.3 -2.86 0.3 -4.29 0.57a10.54 10.54 0 0 0 -3 1 6.65 6.65 0 0 0 -2.54 2c-0.17 0.24 -0.13 0.57 0.19 0.52a6.43 6.43 0 0 1 2.09 0.2 2.36 2.36 0 0 0 -1.78 1.35 3.07 3.07 0 0 0 0.07 2.28 7.14 7.14 0 0 0 2.65 3.23 3.37 3.37 0 0 0 2.9 0.46c0.69 -0.25 1.37 -1.46 0.36 -2.86a7 7 0 0 0 -3.3 -2.21 0.29 0.29 0 0 0 -0.38 0.16 0.27 0.27 0 0 0 0.16 0.36 7.58 7.58 0 0 1 2.53 1.67 1.89 1.89 0 0 1 0.64 1.64 0.48 0.48 0 0 1 -0.29 0.38 2.51 2.51 0 0 1 -2.11 -0.42 6.42 6.42 0 0 1 -2.43 -2.75 2.3 2.3 0 0 1 -0.19 -1.69 1.71 1.71 0 0 1 1.28 -1 3 3 0 0 1 0.63 -0.15h0.51a8.34 8.34 0 0 1 0.89 0.47 8.47 8.47 0 0 1 3.05 3.17 4 4 0 0 1 0.42 2.75A2.12 2.12 0 0 1 8 19.69a4.37 4.37 0 0 1 -3 -0.84 13.13 13.13 0 0 1 -3.6 -3.8 4.93 4.93 0 0 1 -0.6 -1.19 2.67 2.67 0 0 1 -0.14 -1.26 2 2 0 0 1 0.14 -0.47c0 -0.09 0.06 -0.2 0.14 -0.22a0.29 0.29 0 0 0 0.23 -0.33 0.28 0.28 0 0 0 -0.33 -0.23 0.69 0.69 0 0 0 -0.45 0.31 2.47 2.47 0 0 0 -0.32 0.81 3 3 0 0 0 0 1.27 5.19 5.19 0 0 0 0.69 1.68 14 14 0 0 0 3.7 4.17 5.26 5.26 0 0 0 3.74 1.05c2 -0.32 3.4 -2.37 6 -4.21a9.93 9.93 0 0 1 2.17 -1.21c1.37 -0.55 3.73 -0.64 5.44 -1.38a3.74 3.74 0 0 0 2 -1.76 2.62 2.62 0 0 0 0.19 -1.27Zm-6.63 3.32a9.28 9.28 0 0 0 -0.37 -1.31 4.23 4.23 0 0 0 -0.42 -1c-0.09 -0.15 -0.26 -0.32 -0.39 -0.5s-0.09 -0.1 -0.07 -0.16a0.82 0.82 0 0 1 0.48 -0.43 8.8 8.8 0 0 1 1.4 -0.4c0.32 -0.12 0.8 -0.41 1.23 -0.6a1.13 1.13 0 0 1 0.36 -0.11 1.3 1.3 0 0 1 1 0.76 7.18 7.18 0 0 1 0.75 2.43 0.31 0.31 0 0 0 0.14 0.21l-0.05 0a22.42 22.42 0 0 1 -4.07 1.11ZM23 11.69a2.48 2.48 0 0 1 -1 1.1 8.07 8.07 0 0 0 -0.71 -2.79 2.06 2.06 0 0 0 -1.68 -1.29 1.8 1.8 0 0 0 -0.75 0.14c-0.42 0.16 -0.88 0.45 -1.19 0.55a6.45 6.45 0 0 0 -1.73 0.71 1.49 1.49 0 0 0 -0.58 0.83 0.78 0.78 0 0 0 0.07 0.65 5.48 5.48 0 0 0 0.58 0.67 4.24 4.24 0 0 1 0.44 0.77 9.71 9.71 0 0 1 0.41 1.22 7.32 7.32 0 0 0 -0.79 0.26 11.76 11.76 0 0 0 -2.29 1.34c-1.07 0.8 -2 1.73 -3 2.61l0.06 -0.2a4.84 4.84 0 0 0 -0.57 -3.4 9.23 9.23 0 0 0 -3.5 -3.34 8.08 8.08 0 0 0 -4.07 -1.07A8.57 8.57 0 0 1 4.72 9a10.21 10.21 0 0 1 2.9 -0.89c1.45 -0.2 2.91 -0.11 4.38 -0.42a8 8 0 0 0 1.87 -0.55 7.06 7.06 0 0 0 1.3 -0.75 6.44 6.44 0 0 0 1.12 -1c0.25 -0.29 0.42 -0.7 0.66 -1a0.36 0.36 0 0 1 0.32 -0.15 5.73 5.73 0 0 1 3.4 1.8 8.25 8.25 0 0 1 2.11 3.37 8.07 8.07 0 0 1 0.33 1.46 1.75 1.75 0 0 1 -0.11 0.82Z" fill="#020202" stroke-width="1"></path>
    <path d="M18.06 7a2.12 2.12 0 0 0 -0.18 -0.37 2.62 2.62 0 0 0 -0.24 -0.34 4.53 4.53 0 0 0 -0.75 -0.61 0.25 0.25 0 0 0 -0.35 0 0.24 0.24 0 0 0 0 0.35c0.15 0.28 0.23 0.54 0.36 0.8a2 2 0 0 0 0.18 0.32 2.73 2.73 0 0 0 0.21 0.3c0.17 0.24 0.36 0.46 0.54 0.7a0.29 0.29 0 0 0 0.52 -0.24c-0.11 -0.3 -0.18 -0.6 -0.29 -0.91Z" fill="#4C57E6" stroke-width="1"></path>
    <path d="M16 8.42a1.71 1.71 0 0 0 -0.17 -0.33 1.37 1.37 0 0 0 -0.24 -0.29 2.78 2.78 0 0 0 -0.76 -0.41 0.25 0.25 0 1 0 -0.3 0.4 4.16 4.16 0 0 1 0.35 0.61l0.15 0.23a5.7 5.7 0 0 1 0.59 0.78 0.28 0.28 0 0 0 0.38 0.19 0.27 0.27 0 0 0 0.18 -0.35 3.13 3.13 0 0 0 -0.18 -0.83Z" fill="#4C57E6" stroke-width="1"></path>
    <path d="M13.72 11.17a5.64 5.64 0 0 0 -0.72 -1.08 3.63 3.63 0 0 0 -0.83 -0.68 7.48 7.48 0 0 0 -1.38 -0.64 0.25 0.25 0 0 0 -0.33 0.13 0.26 0.26 0 0 0 0.12 0.34 5.94 5.94 0 0 1 1 0.64 3.46 3.46 0 0 1 0.74 0.79 8.65 8.65 0 0 1 0.68 1.12c0.24 0.43 0.49 0.83 0.75 1.23a5.85 5.85 0 0 0 0.8 1 0.28 0.28 0 0 0 0.4 0 0.28 0.28 0 0 0 0 -0.4 15.06 15.06 0 0 1 -1.23 -2.45Z" fill="#4C57E6" stroke-width="1"></path>
    <path d="M12.88 14.94a2.22 2.22 0 0 1 -0.71 -0.78c-0.32 -0.53 -0.55 -1.15 -0.84 -1.64a10.1 10.1 0 0 0 -0.92 -1.23 7.26 7.26 0 0 0 -0.77 -0.7 6.35 6.35 0 0 0 -2.31 -1.15 0.26 0.26 0 0 0 -0.33 0.16 0.26 0.26 0 0 0 0.16 0.32 5.65 5.65 0 0 1 1.56 1 8.32 8.32 0 0 1 0.78 0.79A14.82 14.82 0 0 1 10.56 13c0.41 0.54 0.75 1.25 1.23 1.77a2.68 2.68 0 0 0 0.82 0.64 0.29 0.29 0 0 0 0.27 -0.51Z" fill="#4C57E6" stroke-width="1"></path>
  </g>
</svg>