<svg xmlns="http://www.w3.org/2000/svg" viewBox="0 0 24 24" id="Night-Moon-Half-1--Streamline-Freehand">
  <desc>
    Night Moon Half 1 Streamline Icon: https://streamlinehq.com
  </desc>
  <g>
    <path d="M6.12 0.82a0.3 0.3 0 0 1 0.59 0c0.16 3 -0.77 20.81 -0.26 21.65s1.69 0.41 2.49 0.12c2.35 -0.84 5.28 -2.09 6.92 -4C20.79 13.06 15.25 0.27 7.5 0.69a0.34 0.34 0 0 1 0 -0.67C15.89 -0.6 22.14 13 16.7 19.33c-1.8 2.08 -4.8 3.37 -7.38 4.29 -1.42 0.5 -3.06 0.69 -3.82 -0.62S6.24 4.6 6.12 0.82Z" fill="#020202" fill-rule="evenodd" stroke-width="1"></path>
    <path d="M8.58 9.32c-1.22 -3.47 3.75 -4.51 5.56 -2.26a2.17 2.17 0 0 1 0 2.75C13 11.33 9.53 12 8.58 9.32Zm3.85 -2.49a14.93 14.93 0 0 0 -1 1.65c-0.57 1.21 -0.06 1.22 -0.2 1.56 2.14 -0.18 3.41 -2.22 1.2 -3.21ZM10.62 10c-0.61 -0.91 -0.49 -2.34 1 -3.39 -2.85 -0.38 -2.9 2.87 -1 3.39Z" fill="#4C57E6" fill-rule="evenodd" stroke-width="1"></path>
    <path d="M13.86 16.05a1.69 1.69 0 0 1 -0.75 2.05 1.5 1.5 0 0 1 -2.28 -0.69c-0.89 -2.41 2.47 -2.75 3.03 -1.36Zm-2.15 1c0.14 0.27 0.46 0.34 0.85 0.1a0.7 0.7 0 0 0 0.42 -0.78c-0.16 -0.79 -1.76 -0.31 -1.27 0.63Z" fill="#020202" fill-rule="evenodd" stroke-width="1"></path>
  </g>
</svg>