<svg xmlns="http://www.w3.org/2000/svg" viewBox="0 0 24 24" id="Night-Moon-Rise--Streamline-Freehand">
  <desc>
    Night Moon Rise Streamline Icon: https://streamlinehq.com
  </desc>
  <g>
    <path d="M15.5 17.3c1.08 -0.39 1.12 -1.52 0.43 -2.37l-3.19 -3.57a0.33 0.33 0 0 0 -0.51 0.41l3.06 3.67c0.83 1.09 -0.57 1.37 -1.29 0.74 -0.31 -0.27 -0.6 -0.61 -1.05 -0.6a0.57 0.57 0 0 0 -0.47 0.5c-0.09 1 0 3 -0.05 3.57 -0.17 1.32 -1.76 0.83 -1.74 0.5a21.46 21.46 0 0 0 0.05 -3.25 1.84 1.84 0 0 0 -0.5 -1.43c-0.56 -0.46 -1.33 0.35 -2 0.71s-0.56 0.25 -1 0.29a0.59 0.59 0 0 1 -0.2 0H7c-0.1 -0.2 0.36 -0.93 0.55 -1.18a18.68 18.68 0 0 1 4 -3.69 0.29 0.29 0 0 0 -0.31 -0.48A20.37 20.37 0 0 0 7 14.78c-1 1.22 -1.29 2.57 0.3 2.61A2.87 2.87 0 0 0 8.75 17a8 8 0 0 0 0.91 -0.36l0 2.83c0 0.57 -0.29 1.5 0.59 1.87a3.54 3.54 0 0 0 2.34 0c1.32 -0.67 0.87 -2.63 0.87 -4.44a2.26 2.26 0 0 0 2.04 0.4Z" fill="#020202" fill-rule="evenodd" stroke-width="1"></path>
    <path d="M5.24 13.44a8.29 8.29 0 0 1 -0.06 -6.34C6.43 3.88 9.61 1.23 12 0.67c-2.47 4 -0.46 9.92 5.51 11.43a8.59 8.59 0 0 0 2.9 0.22c0.37 0.35 0.31 1.17 0.18 1.67 -0.43 1.62 -1.78 2.6 -3.25 3.4a0.33 0.33 0 1 0 0.3 0.58c1.73 -0.85 3.23 -1.92 3.79 -3.74a2.68 2.68 0 0 0 -0.33 -2.61c-0.47 -0.48 -1.46 -0.28 -1.9 -0.32a9.41 9.41 0 0 1 -2.8 -0.73c-4 -1.59 -6 -6.43 -3.59 -10.08a0.29 0.29 0 0 0 -0.28 -0.49 0.29 0.29 0 0 0 -0.16 0 8.56 8.56 0 0 0 -3.66 1.34C4.41 3.86 2.3 8.9 4.64 13.71a0.33 0.33 0 0 0 0.6 -0.27Z" fill="#020202" fill-rule="evenodd" stroke-width="1"></path>
    <path d="M23 23.34c-8.47 -0.86 -13.25 -1.46 -22 -0.71a0.29 0.29 0 0 0 0 0.58C5 23 22.83 24 22.91 24a0.33 0.33 0 0 0 0.09 -0.66Z" fill="#4C57E6" fill-rule="evenodd" stroke-width="1"></path>
  </g>
</svg>