<svg xmlns="http://www.w3.org/2000/svg" viewBox="0 0 24 24" id="Night-Club-Disco-Ball-1--Streamline-Freehand">
  <desc>
    Night Club Disco Ball 1 Streamline Icon: https://streamlinehq.com
  </desc>
  <title>night-club-disco-ball-1</title>
  <g>
    <path d="M19.66 10.82a8.41 8.41 0 0 0 -4.15 -4.65 7 7 0 0 0 -3.63 -0.82c0.06 -0.54 0.13 -1.07 0.17 -1.61l0 -0.78 0 -0.79C12 1.56 12 1 11.91 0.34A0.32 0.32 0 0 0 11.6 0a0.33 0.33 0 0 0 -0.35 0.31c-0.09 0.62 -0.18 1.23 -0.24 1.85l0 0.79a7.13 7.13 0 0 0 0 0.8c0.05 0.56 0.15 1.11 0.25 1.67a5.57 5.57 0 0 0 -1.06 0.3A7.84 7.84 0 0 0 4.82 9.2a7.61 7.61 0 0 0 -1.26 6.48A8.55 8.55 0 0 0 8.68 21a10.1 10.1 0 0 0 7.43 0.1 5.36 5.36 0 0 0 2.47 -2.1 7.76 7.76 0 0 0 1.11 -2.94A15.38 15.38 0 0 0 20 13a7.66 7.66 0 0 0 -0.34 -2.18ZM19 13a14.86 14.86 0 0 1 -0.35 2.93c0 0.17 -0.08 0.34 -0.12 0.51a7.07 7.07 0 0 1 -1.38 0.4 13.59 13.59 0 0 1 -1.43 0.16l0 -0.92c0 -0.73 0 -1.45 -0.09 -2.15A14.93 14.93 0 0 0 19 12.64l0 0.36Zm-9.73 2.42 0 -1.1c0.37 0 0.75 0.07 1.12 0.09a20 20 0 0 0 3.54 -0.16l0.66 -0.13c0.08 0.64 0.15 1.29 0.19 2l0.06 0.94 -0.24 0c-1 0.06 -1.95 0.05 -2.92 0 -0.77 0 -1.53 -0.08 -2.29 -0.15 -0.06 -0.49 -0.1 -0.99 -0.12 -1.49Zm0.33 -5.27a16.8 16.8 0 0 0 1.89 0.19 15.39 15.39 0 0 0 1.92 -0.05l0.51 -0.06 0.15 0.68c0.15 0.73 0.27 1.47 0.38 2.21a25.52 25.52 0 0 1 -2.9 0.19l-2.27 0c0 -0.7 0.09 -1.41 0.17 -2.1 0.04 -0.38 0.09 -0.72 0.15 -1.06Zm9.4 1.76A14.07 14.07 0 0 1 15.54 13a19.27 19.27 0 0 0 -0.43 -2.29l-0.18 -0.6a14.68 14.68 0 0 0 2.83 -0.82s0 0 0.06 -0.05a6.62 6.62 0 0 1 1 1.89 5.68 5.68 0 0 1 0.18 0.78Zm-1.6 -3.24a15.77 15.77 0 0 1 -2.75 0.5c-0.33 -1 -0.73 -2 -1.17 -2.95a7.1 7.1 0 0 1 1.67 0.64 8.19 8.19 0 0 1 2.25 1.81Zm-4.64 -2.58c0.37 1.06 0.67 2.1 0.93 3.14l-0.94 0c-1 0 -1.94 -0.06 -2.92 -0.15a17.9 17.9 0 0 1 0.77 -2.79 4.85 4.85 0 0 1 2.16 -0.2Zm-3 0.6A19.75 19.75 0 0 0 8.9 9c-0.9 -0.09 -1.81 -0.22 -2.71 -0.37 2.21 -2.46 3.5 -1.92 3.54 -1.94ZM5.44 9.62c0.09 -0.14 0.19 -0.27 0.29 -0.4 1 0.28 1.93 0.55 2.9 0.75 -0.08 0.35 -0.16 0.7 -0.23 1a16.39 16.39 0 0 0 -0.23 2.21l-3.92 -0.49a7.81 7.81 0 0 1 1.19 -3.07Zm-1.26 3.7 0.52 0.09c1.12 0.24 2.22 0.59 3.36 0.76l0.1 0c0 0.43 0 0.87 0.07 1.3s0.1 0.87 0.18 1.3A23.06 23.06 0 0 1 5 16.09a0.25 0.25 0 0 0 -0.21 0 5.56 5.56 0 0 1 -0.56 -2.78Zm0.91 3.44a22.61 22.61 0 0 0 3.53 1 17.17 17.17 0 0 0 0.73 2.27L9.08 20a8.05 8.05 0 0 1 -3.99 -3.24Zm5.05 3.57a14.11 14.11 0 0 1 -0.6 -2.33l0.08 0a20.51 20.51 0 0 0 3 0.19 19.6 19.6 0 0 0 2 -0.15l0.2 0 0 0.67a7.62 7.62 0 0 1 -0.2 1.66s0 0 0 0.06a9.08 9.08 0 0 1 -4.48 -0.1Zm7.54 -1.9a4.3 4.3 0 0 1 -2 1.64l-0.27 0.1a10.14 10.14 0 0 0 0.26 -1.46l0 -0.82a15.1 15.1 0 0 0 1.63 -0.31 7.07 7.07 0 0 0 0.92 -0.3 6.56 6.56 0 0 1 -0.54 1.15Z" fill="#020202" fill-rule="evenodd" stroke-width="1"></path>
    <path d="m23.33 4.31 -1.6 0 -0.3 0 0 -0.23c-0.12 -0.67 -0.3 -1.31 -0.41 -2a0.29 0.29 0 0 0 -0.31 -0.27 0.28 0.28 0 0 0 -0.27 0.3 18.24 18.24 0 0 0 -0.05 2.34 16 16 0 0 0 -1.56 0.55 0.28 0.28 0 0 0 -0.23 0.33 0.29 0.29 0 0 0 0.33 0.24l1.53 0c0 0.12 0 0.23 0.05 0.34 0.09 0.69 0.22 1.36 0.28 2a0.34 0.34 0 0 0 0.32 0.34 0.33 0.33 0 0 0 0.33 -0.33 15.86 15.86 0 0 0 0.12 -2.07l0 -0.45 0.32 -0.06c0.53 -0.12 1 -0.26 1.55 -0.39a0.34 0.34 0 0 0 0.29 -0.37 0.33 0.33 0 0 0 -0.39 -0.27Z" fill="#4C57E6" fill-rule="evenodd" stroke-width="1"></path>
    <path d="M5.43 20.41c-0.57 -0.07 -1.12 -0.15 -1.69 -0.2h-0.32a0.66 0.66 0 0 0 0 -0.14 17.89 17.89 0 0 0 -0.51 -2.37 0.3 0.3 0 0 0 -0.33 -0.24 0.28 0.28 0 0 0 -0.24 0.33l0 2.07 0 0.37h-0.07c-0.57 0.06 -1.12 0.18 -1.7 0.3a0.29 0.29 0 1 0 0 0.57c0.58 0.06 1.13 0.15 1.69 0.19h0.12l0 0.34c0.09 0.7 0.21 1.38 0.33 2.08a0.33 0.33 0 0 0 0.35 0.3 0.32 0.32 0 0 0 0.3 -0.35c0 -0.72 0.07 -1.43 0.06 -2.15v-0.23l0.26 0c0.57 0 1.12 -0.12 1.69 -0.19a0.33 0.33 0 0 0 0.33 -0.33 0.32 0.32 0 0 0 -0.27 -0.35Z" fill="#4C57E6" fill-rule="evenodd" stroke-width="1"></path>
    <path d="M22.05 17a1.06 1.06 0 0 0 -0.25 -0.09l-0.26 0c-0.1 0 -0.91 0.14 -0.93 0.43 0 0.08 -0.07 0.26 0.76 0.62a1.28 1.28 0 0 0 0.45 0.08c0.92 0 0.94 -0.14 1 -0.29s0.04 -0.33 -0.77 -0.75Z" fill="#4C57E6" fill-rule="evenodd" stroke-width="1"></path>
    <path d="M21.34 20.1a2.11 2.11 0 0 0 -0.23 -0.19 2 2 0 0 0 -0.25 -0.14 6.31 6.31 0 0 0 -0.72 -0.18 0.28 0.28 0 0 0 -0.4 0.09 0.29 0.29 0 0 0 0.09 0.4 6.17 6.17 0 0 0 0.44 0.57 0.88 0.88 0 0 0 0.24 0.19 1.38 1.38 0 0 0 0.27 0.14 4.91 4.91 0 0 0 0.73 0.19 0.33 0.33 0 0 0 0.3 -0.58c-0.18 -0.16 -0.3 -0.33 -0.47 -0.49Z" fill="#4C57E6" fill-rule="evenodd" stroke-width="1"></path>
    <path d="M5.22 5.27s0.55 0.66 0.8 0.56c0 0 0.29 0 0.18 -1a0.83 0.83 0 0 0 -0.06 -0.21 0.66 0.66 0 0 0 -0.14 -0.16c-0.5 -0.72 -0.62 -0.67 -0.76 -0.63s-0.24 0.17 -0.18 1a1 1 0 0 0 0.05 0.23 1.06 1.06 0 0 0 0.11 0.21Z" fill="#4C57E6" fill-rule="evenodd" stroke-width="1"></path>
    <path d="m2.73 6.82 0.27 0.27a1.71 1.71 0 0 0 0.25 0.22c0.23 0.18 0.46 0.28 0.7 0.44a0.29 0.29 0 0 0 0.41 0 0.3 0.3 0 0 0 0 -0.41A5.19 5.19 0 0 0 4 6.6a1.64 1.64 0 0 0 -0.23 -0.28 2.09 2.09 0 0 0 -0.28 -0.24c-0.23 -0.16 -0.47 -0.29 -0.71 -0.44a0.33 0.33 0 0 0 -0.47 0.47c0.14 0.24 0.26 0.47 0.42 0.71Z" fill="#4C57E6" fill-rule="evenodd" stroke-width="1"></path>
    <path d="M0.66 9.4c0.19 0.13 0.33 0.28 0.51 0.41a1.5 1.5 0 0 0 0.23 0.19l0.26 0.09a5.78 5.78 0 0 0 0.7 0.08 0.29 0.29 0 0 0 0.26 -0.52c-0.18 -0.18 -0.3 -0.35 -0.49 -0.51A1.28 1.28 0 0 0 1.88 9a1.4 1.4 0 0 0 -0.29 -0.09 4.17 4.17 0 0 0 -0.71 -0.08 0.33 0.33 0 0 0 -0.42 0.17 0.32 0.32 0 0 0 0.2 0.4Z" fill="#4C57E6" fill-rule="evenodd" stroke-width="1"></path>
  </g>
</svg>