<svg xmlns="http://www.w3.org/2000/svg" viewBox="0 0 24 24" id="Notes-Text-Clipboard--Streamline-Freehand">
  <desc>
    Notes Text Clipboard Streamline Icon: https://streamlinehq.com
  </desc>
  <g>
    <path d="M23.18 4.52a28.06 28.06 0 0 0 -4.94 -0.38c-0.1 -1.82 2.94 -2.76 3.05 -1a0.35 0.35 0 0 0 0.69 0c0.2 -3.1 -5.23 -2.17 -4.79 1 -5.23 -0.12 -5 0 -5 -0.08 0.21 -1.88 2.41 -2.55 3.22 -1.77 0.44 0.43 0.76 1.07 1.13 0.7a0.35 0.35 0 0 0 0 -0.49c-0.2 -0.22 -0.36 -0.51 -0.55 -0.75C14.61 0 11.09 1.19 11.1 4c0 0.19 0.5 0 -5.62 0.16 0 -0.91 1.08 -1.57 1.9 -2 1.12 -0.7 2 0.65 2.12 0.6a0.35 0.35 0 0 0 0.32 0.22C11 2.9 9 0.16 6.87 1.16A6.59 6.59 0 0 0 5 2.43a2.19 2.19 0 0 0 -0.6 1.72c-1.55 0 -1.35 -0.29 -2.27 3.79C1.36 11.38 1 14.8 0.52 18.28 0 22.42 -0.15 22.73 0.2 23c0.52 0.36 13.29 -0.37 16.37 -1.82A15.44 15.44 0 0 0 20.23 19a13.37 13.37 0 0 0 2.59 -3.58c0.33 -0.14 0.14 -0.35 0.51 -3.21a46.16 46.16 0 0 0 0.61 -5.64c0.06 -0.89 0.33 -1.47 -0.76 -2.05Zm-7.1 15.58a50.68 50.68 0 0 1 -7.15 1.64 14.23 14.23 0 0 0 2.2 -1.68 32.28 32.28 0 0 0 4.25 -5.31l0.22 -0.75 0.94 0.54a14.05 14.05 0 0 0 5.33 1.12c-1.87 2.92 -2.99 3.18 -5.79 4.44Zm7 -13.5c0 2.62 -0.61 5.74 -0.7 8.27a2.25 2.25 0 0 1 -1.19 0 12 12 0 0 1 -4.11 -1.15c-0.54 -0.36 -1.18 -1 -1.78 -0.67s-0.6 0.82 -0.79 1.12a38.77 38.77 0 0 1 -4.14 5c-2.94 2.82 -4.46 2.94 -7.66 3 -2.71 0.02 -1.85 0 -2.14 0.01 0.42 -1.85 1.06 -6.35 1.71 -9.95 0.6 -3.29 1.65 -7 1.63 -6.92 1.16 0 0.6 -0.23 1.12 0.59a3 3 0 0 0 1.43 1.23 0.32 0.32 0 0 0 0.41 -0.13c0.21 -0.47 -0.55 -0.28 -1.09 -1.49a1.57 1.57 0 0 1 -0.09 -0.23c1.35 0 3.43 0 5.69 -0.06a4 4 0 0 0 1.07 1.34c0.34 0.2 1 0 0.84 -0.4a0.31 0.31 0 0 0 -0.47 -0.16h-0.05a5.61 5.61 0 0 1 -0.44 -0.74h5.22a3.72 3.72 0 0 0 0.19 0.34c0.18 0.19 0.74 1.4 1.27 1.08a0.33 0.33 0 0 0 -0.14 -0.68l-0.38 -0.78c5.51 0 4.51 0.02 4.56 1.38Z" fill="#020202" fill-rule="evenodd" stroke-width="1"></path>
    <path d="M8.55 17.9c-0.55 0.1 -2.07 0.1 -3.38 0.34 -0.59 0.11 -1.1 0.28 -1.46 0.37 -1.08 0.27 -1 0.54 -0.63 0.68a12 12 0 0 0 5.69 -0.73 0.35 0.35 0 0 0 -0.22 -0.66Z" fill="#4C57E6" fill-rule="evenodd" stroke-width="1"></path>
    <path d="M3.39 15.29c0 0.28 0.11 0.5 2.15 0.42 0.75 0 6.62 -0.23 6.62 -0.88 0.01 -0.95 -8.74 -0.2 -8.77 0.46Z" fill="#4C57E6" fill-rule="evenodd" stroke-width="1"></path>
    <path d="M11.4 12.07a0.35 0.35 0 0 0 0 -0.69c-1.05 -0.09 -6.69 -0.46 -6.53 0.57 0.13 0.78 5.42 0.21 6.53 0.12Z" fill="#4C57E6" fill-rule="evenodd" stroke-width="1"></path>
    <path d="M18.93 9.13c-1.33 -0.19 -7.74 -0.62 -7.07 0.41 0.06 0.08 12.36 1.79 7.07 -0.41Z" fill="#4C57E6" fill-rule="evenodd" stroke-width="1"></path>
  </g>
</svg>