<svg xmlns="http://www.w3.org/2000/svg" viewBox="0 0 24 24" id="Notes-Sync--Streamline-Freehand">
  <desc>
    Notes Sync Streamline Icon: https://streamlinehq.com
  </desc>
  <g>
    <path d="M13.3 15.73c-0.19 0.43 -0.47 1.13 0 1.19a0.3 0.3 0 0 0 0.34 -0.26 2.18 2.18 0 0 1 0.29 -0.6 3.89 3.89 0 0 1 3.17 -1.86 3.6 3.6 0 0 1 2.23 0.32c1.72 0.86 1.55 2.06 2.14 1.79a0.36 0.36 0 0 0 0.17 -0.46 4.52 4.52 0 0 0 -8.34 -0.12Z" fill="#020202" fill-rule="evenodd" stroke-width="1"></path>
    <path d="M22.1 20.5a0.31 0.31 0 0 0 -0.36 0.23 1.83 1.83 0 0 1 -0.34 0.57 3.81 3.81 0 0 1 -3.32 1.54 3.89 3.89 0 0 1 -3.78 -2.35l1.81 0.8a0.3 0.3 0 1 0 0.33 -0.5 18.43 18.43 0 0 0 -2 -1.49 1.26 1.26 0 0 0 -1 -0.31c-0.68 0.18 -0.46 1 -1.18 2.83a0.33 0.33 0 0 1 0 0.06c0 0.18 0.12 0.27 0.27 0.31a0.29 0.29 0 0 0 0.31 0 5.82 5.82 0 0 0 0.82 -1.47 4.6 4.6 0 0 0 7.58 2c0.44 -0.45 1.55 -2.06 0.86 -2.22Z" fill="#020202" fill-rule="evenodd" stroke-width="1"></path>
    <path d="M23.21 15.77c-0.26 -0.19 -0.38 -0.13 -1.44 1.82l-2.18 -1.11a0.3 0.3 0 1 0 -0.35 0.48 14.51 14.51 0 0 0 2.47 1.93 0.69 0.69 0 0 0 0.79 -0.19 9 9 0 0 0 0.63 -1.81c0.22 -0.59 0.59 -0.96 0.08 -1.12Z" fill="#020202" fill-rule="evenodd" stroke-width="1"></path>
    <path d="M10.45 19.47c-7.64 0.12 -4.38 0.13 -7.72 -0.27 -0.5 -0.05 -0.73 -0.43 -0.87 -0.87 -0.27 -0.87 -0.2 -1.07 -0.08 -9.55A20.08 20.08 0 0 1 2 3.7c0.26 -1.07 0 -1.42 1.46 -1.4 0 0.35 -0.14 1.67 -0.11 1.9 0.1 0.78 0.85 0.66 1.16 0.74 1.55 0.37 2.13 -0.79 2 -2.43A2.59 2.59 0 0 0 8 2.56c0 0.11 -0.1 1.41 -0.08 1.59 0.1 0.78 0.86 0.66 1.16 0.74 1.53 0.37 2.12 -0.75 2 -2.36 0.69 0.22 0.74 0.18 1.77 -0.06 0 0.11 -0.08 1.42 -0.06 1.54a0.72 0.72 0 0 0 0.53 0.65C15 5.09 16 4.7 16 2.88c0.36 0 0.69 0.05 1 0.1s0.46 0.08 0.48 0.29l0.37 7.09a0.31 0.31 0 0 0 0.61 0 19.58 19.58 0 0 0 0 -7.28c-0.24 -1.06 -1.35 -1 -2.43 -0.93a5.79 5.79 0 0 0 -0.47 -1.76 1.47 1.47 0 0 0 -2.14 0.15 3.09 3.09 0 0 0 -0.41 1 3.36 3.36 0 0 0 -2 0.16 3.52 3.52 0 0 0 -0.34 -1.2 1.49 1.49 0 0 0 -2.14 0.18 2.86 2.86 0 0 0 -0.36 0.88 3.33 3.33 0 0 0 -1.76 0.12 3.34 3.34 0 0 0 -0.32 -1.1A1.2 1.2 0 0 0 4.86 0.2c-0.81 0.13 -1.12 0.69 -1.3 1.49A2.43 2.43 0 0 0 2 1.94c-0.53 0.35 -0.55 1.09 -0.7 1.56a20.4 20.4 0 0 0 -0.55 5.28C0.55 13.58 0.6 12 0.53 15.63c0 1.95 0 4.43 2.1 4.58 3.42 0.26 0.13 0.39 7.84 -0.05a0.35 0.35 0 0 0 -0.02 -0.69ZM13.91 1.8C14 0.27 14.93 0.65 15 1a6.3 6.3 0 0 1 0 2.28c-0.17 0.56 -0.45 0.42 -1 0.41 0 -0.69 -0.14 -1.09 -0.09 -1.89Zm-4.7 -0.72c0.2 -0.41 0.79 -0.14 0.88 -0.17a6.49 6.49 0 0 1 0 2.45c-0.09 0.31 -0.28 0.53 -0.67 0.41l-0.37 0c0 -0.12 0.06 -0.26 0.06 -0.31a5.53 5.53 0 0 1 0.1 -2.38Zm-4.6 0c0.2 -0.41 0.8 -0.13 0.88 -0.16a6.49 6.49 0 0 1 0 2.45c-0.09 0.31 -0.27 0.53 -0.66 0.41l-0.38 0c0 -0.12 0.07 -0.25 0.07 -0.3a5.73 5.73 0 0 1 0.09 -2.36Z" fill="#020202" fill-rule="evenodd" stroke-width="1"></path>
    <path d="M14.62 8.45a0.38 0.38 0 0 0 0.06 -0.55c-0.22 -0.32 -5.81 -0.79 -8.53 -0.62 -3 0.2 -2.63 0.71 -2.13 0.83 1.06 0.32 10.58 0.36 10.6 0.34Z" fill="#4C57E6" fill-rule="evenodd" stroke-width="1"></path>
    <path d="M11.39 11.62c-0.32 -0.08 -2.81 -0.2 -3.28 -0.21s-3.93 0.1 -4 0.49a0.27 0.27 0 0 0 0.06 0.25 5.91 5.91 0 0 0 1.93 0.35 28.86 28.86 0 0 0 5.39 -0.14c0.35 0 0.51 -0.6 -0.1 -0.74Z" fill="#4C57E6" fill-rule="evenodd" stroke-width="1"></path>
    <path d="M4.34 16.42a11.44 11.44 0 0 0 4.66 0.07 0.34 0.34 0 0 0 0 -0.49 8.86 8.86 0 0 0 -3 -0.44c-2.3 0.11 -2.73 0.63 -1.66 0.86Z" fill="#4C57E6" fill-rule="evenodd" stroke-width="1"></path>
  </g>
</svg>