<svg xmlns="http://www.w3.org/2000/svg" viewBox="0 0 24 24" id="Notes-Warning--Streamline-Freehand">
  <desc>
    Notes Warning Streamline Icon: https://streamlinehq.com
  </desc>
  <g>
    <path d="M16.72 21.49a1 1 0 0 0 1.48 0 1 1 0 0 0 -0.2 -1.27c-1 -0.47 -2.1 0.45 -1.28 1.27Z" fill="#020202" fill-rule="evenodd" stroke-width="1"></path>
    <path d="M23.1 21.3a28.91 28.91 0 0 0 -2.79 -6.42 9.86 9.86 0 0 0 -1 -1.43c-0.16 -0.06 -0.62 -0.07 -0.44 0.43 0.24 0.72 0.2 0 1.42 2.35a36.75 36.75 0 0 1 1.63 4.12c0.14 0.41 0.44 1.2 0.23 1.6 -0.43 0.83 -1.66 0.88 -2.6 0.92a15 15 0 0 1 -6.57 -0.73c-1.07 -0.46 -0.28 -1.36 0.18 -2.43 0.66 -1.55 2.76 -5.31 4.15 -6.39 0.27 -0.21 0.5 -0.35 0.7 -0.27a0.28 0.28 0 0 0 0.22 -0.52c-2 -0.87 -6.78 7.7 -6.81 9a1.61 1.61 0 0 0 1.12 1.58 14.93 14.93 0 0 0 7.07 0.82c1.38 -0.1 2.79 -0.3 3.4 -1.55a1.86 1.86 0 0 0 0.09 -1.08Z" fill="#020202" fill-rule="evenodd" stroke-width="1"></path>
    <path d="M18 16.89a14.7 14.7 0 0 0 -0.37 -1.54c-0.08 -0.12 -0.39 -0.23 -0.53 0.19 -0.05 0.13 -0.15 0.75 -0.18 0.89a7.19 7.19 0 0 0 0.37 2.38c0.59 0.32 0.77 -1.21 0.71 -1.92Z" fill="#020202" fill-rule="evenodd" stroke-width="1"></path>
    <path d="M10.19 18.29c-7.19 0.11 -4.12 0.12 -7.25 -0.29 -0.47 -0.06 -0.69 -0.41 -0.82 -0.83 -0.24 -0.79 -0.18 -0.93 -0.07 -9a19.09 19.09 0 0 1 0.2 -4.78c0.25 -1 0 -1.33 1.37 -1.31 0 0.33 -0.13 1.57 -0.1 1.78 0.09 0.73 0.81 0.62 1.09 0.7 1.46 0.35 2 -0.75 1.89 -2.28a2.54 2.54 0 0 0 1.41 0.05c0 0.1 -0.09 1.32 -0.07 1.49 0.09 0.73 0.8 0.62 1.09 0.69 1.43 0.35 2 -0.71 1.89 -2.21 0.65 0.2 0.7 0.16 1.67 -0.06 0 0.1 -0.08 1.33 -0.07 1.45a0.66 0.66 0 0 0 0.51 0.6c1.54 0.42 2.43 0 2.49 -1.66a7.57 7.57 0 0 1 0.91 0.09c0.23 0 0.43 0.07 0.44 0.27l0.36 6.66a0.29 0.29 0 1 0 0.57 0 18.51 18.51 0 0 0 0 -6.84c-0.23 -1 -1.27 -0.93 -2.28 -0.88A5.66 5.66 0 0 0 15 0.37a1.39 1.39 0 0 0 -2 0.14 2.85 2.85 0 0 0 -0.38 1 3.24 3.24 0 0 0 -1.87 0.14A3.35 3.35 0 0 0 10.41 0.5a1.39 1.39 0 0 0 -2 0.14 2.84 2.84 0 0 0 -0.34 0.82 3.13 3.13 0 0 0 -1.65 0.12 3.24 3.24 0 0 0 -0.31 -1A1.1 1.1 0 0 0 5 0.19c-0.82 0.12 -1.11 0.65 -1.28 1.39a2.32 2.32 0 0 0 -1.5 0.24c-0.5 0.33 -0.52 1 -0.65 1.47a18.83 18.83 0 0 0 -0.49 5c-0.19 4.5 -0.14 3.06 -0.21 6.43 0 1.83 0.05 4.16 2 4.31 3.21 0.23 0.12 0.35 7.36 -0.06a0.32 0.32 0 1 0 -0.04 -0.68Zm3.25 -16.6c0.08 -1.43 1 -1.08 1 -0.8a6 6 0 0 1 0 2.14c-0.16 0.53 -0.42 0.4 -1 0.39a14.19 14.19 0 0 0 0 -1.73ZM9 1c0.19 -0.38 0.75 -0.13 0.83 -0.15a6.12 6.12 0 0 1 0 2.3c-0.08 0.29 -0.26 0.49 -0.62 0.38l-0.35 0c0 -0.12 0.06 -0.25 0.06 -0.29A5.36 5.36 0 0 1 9 1ZM4.69 1c0.21 -0.33 0.77 -0.07 0.84 -0.1a5.91 5.91 0 0 1 0 2.3c-0.08 0.29 -0.25 0.5 -0.62 0.39l-0.35 0c0 -0.11 0.06 -0.24 0.06 -0.29a5.21 5.21 0 0 1 0.09 -2.25Z" fill="#020202" fill-rule="evenodd" stroke-width="1"></path>
    <path d="M14.11 7.94a0.36 0.36 0 0 0 0.05 -0.52c-0.2 -0.3 -5.45 -0.74 -8 -0.59 -2.85 0.19 -2.48 0.68 -2 0.78 0.99 0.31 9.93 0.39 9.95 0.33Z" fill="#4C57E6" fill-rule="evenodd" stroke-width="1"></path>
    <path d="M11.07 10.92c-0.3 -0.08 -2.63 -0.2 -3.08 -0.2s-3.69 0.09 -3.8 0.45a0.3 0.3 0 0 0 0 0.24 5.4 5.4 0 0 0 1.82 0.33 26.51 26.51 0 0 0 5.06 -0.13c0.43 0 0.55 -0.56 0 -0.69Z" fill="#4C57E6" fill-rule="evenodd" stroke-width="1"></path>
    <path d="M4.45 15.42a10.87 10.87 0 0 0 4.4 0.07 0.33 0.33 0 0 0 0 -0.46 8.32 8.32 0 0 0 -2.79 -0.4c-2.2 0.09 -2.61 0.58 -1.61 0.79Z" fill="#4C57E6" fill-rule="evenodd" stroke-width="1"></path>
  </g>
</svg>