<svg xmlns="http://www.w3.org/2000/svg" viewBox="0 0 24 24" id="Office-Desk-2--Streamline-Freehand">
  <desc>
    Office Desk 2 Streamline Icon: https://streamlinehq.com
  </desc>
  <g>
    <path d="M23.88 21.59c-0.45 -5.95 -0.52 -6.88 -0.73 -8 -0.14 -0.78 0.24 -2.35 -1.69 -2.3 -0.46 0 -1 0.13 -1.36 0.15 -1.45 0.09 -2.89 0.12 -4.33 0.2 -1.86 0.11 -2 0.2 -3.61 0.22a2.35 2.35 0 0 0 -0.57 -1.86 23 23 0 0 0 3.47 -0.42c0.86 -0.2 1.06 -0.5 1.17 -0.94a16.08 16.08 0 0 0 0.28 -3 29.44 29.44 0 0 0 -0.43 -4.06 1.11 1.11 0 0 0 -0.38 -0.56C14.34 0.18 10.47 0.51 5.38 0.68a0.35 0.35 0 0 0 0 0.69c11.67 0 9.68 0.19 9.86 1.94a15.44 15.44 0 0 1 -0.14 5c-0.17 0 -0.55 0.22 -1 0.28A44.43 44.43 0 0 1 8.74 9c-0.42 0 -3.88 0.05 -4.1 -0.29a5.53 5.53 0 0 1 -0.28 -1.51c7.18 0.28 2.5 0.13 9.45 0 0.52 0 0.89 0.12 0.87 -0.27 0.16 -0.47 -0.24 -0.46 -0.87 -0.49a29.59 29.59 0 0 0 -5.41 -0.19c-1.6 0.09 -4 0.36 -4.1 0.38a19.54 19.54 0 0 1 0.17 -4.33c0.2 -1.17 0.14 -1.12 0.07 -1.2a0.3 0.3 0 0 0 -0.43 0c-0.28 0.24 -0.23 0.87 -0.28 1.12a20.08 20.08 0 0 0 -0.3 5.12 6.83 6.83 0 0 0 0.34 1.93c0.49 0.79 3.19 0.86 4.19 0.88a2.93 2.93 0 0 0 -0.47 1.75c-2.42 0 -4.61 -0.15 -6 0.49 -1 0.5 -1 6.88 -1.6 10.81a0.3 0.3 0 0 0 0.59 0.1c0.33 -1.7 1.15 -8.47 1.42 -9.84 0.23 -1.1 5.85 -0.07 12.25 -0.53 -0.06 0.56 -0.35 6.46 0.17 7.52a1 1 0 0 0 0.63 0.46c1.54 0.43 6.46 -0.43 7.92 -0.74 0 0.08 0.16 2.92 0.45 3.06s0.5 0 0.54 -0.4a10.85 10.85 0 0 0 -0.08 -1.24ZM8.49 11.87a2.09 2.09 0 0 0 0.37 -1.74c0.67 0 1.36 0 2 -0.06a2 2 0 0 0 0.45 1.82Zm7 8.08a0.43 0.43 0 0 1 -0.42 -0.41C15 18.37 14.93 15 15 15l0 -1.47c0 -0.39 0.09 -0.58 0 -0.63l5.24 -0.38a6.83 6.83 0 0 1 1.75 -0.15c0.31 0.09 0.2 0.91 0.31 1.43 0.05 0.25 0.61 4.73 0.71 5.68a61.51 61.51 0 0 1 -7.52 0.52Z" fill="#020202" fill-rule="evenodd" stroke-width="1"></path>
    <path d="M22.06 17.62a0.37 0.37 0 0 0 -0.08 -0.69 12.94 12.94 0 0 0 -1.85 0 29.3 29.3 0 0 0 -4.3 0.37c-0.54 0.11 -0.49 0.75 0.1 0.75 0.21 0.06 6.07 -0.42 6.13 -0.43Z" fill="#4C57E6" fill-rule="evenodd" stroke-width="1"></path>
    <path d="M18.85 15.47c2.28 -0.13 2.47 -0.18 2.79 -0.2s0.27 -0.63 -0.08 -0.71c-3.83 -0.12 -5.4 0 -5.87 0.25s-0.62 0.67 0.05 0.8c0.11 0 -0.24 0.06 0.75 0Z" fill="#4C57E6" fill-rule="evenodd" stroke-width="1"></path>
    <path d="M9.65 14.92c-4.33 0 -4.84 0.14 -7 0.22 -0.58 0 -0.61 0.47 -0.16 0.71 0.48 0 2.24 0.17 3.58 0.21a50.94 50.94 0 0 0 7.31 -0.29c0.56 -0.06 0.46 -0.71 0.05 -0.71 -0.96 0.02 -1.96 -0.12 -3.78 -0.14Z" fill="#4C57E6" fill-rule="evenodd" stroke-width="1"></path>
  </g>
</svg>