<svg xmlns="http://www.w3.org/2000/svg" viewBox="0 0 24 24" id="Office-Employee--Streamline-Freehand">
  <desc>
    Office Employee Streamline Icon: https://streamlinehq.com
  </desc>
  <g>
    <path d="M21.9 22.85c-1.22 -0.08 -2.44 -0.17 -3.67 -0.24a4.61 4.61 0 0 0 0.09 -0.62c0 -0.12 0.09 -0.36 0.1 -0.53a0.86 0.86 0 0 0 -0.08 -0.38 0.59 0.59 0 0 0 -0.15 -0.17 31.93 31.93 0 0 0 1.7 -3.9 8.48 8.48 0 0 0 0.43 -1.57 1 1 0 0 0 -0.09 -0.66 2.14 2.14 0 0 0 -1.2 -0.53 34.91 34.91 0 0 0 -4.45 -0.61c-1.43 -0.13 -3 -0.21 -4.46 -0.21a24 24 0 0 0 -5.35 0.44 2.37 2.37 0 0 0 -1.41 0.77 3.59 3.59 0 0 0 0 2.17A30.36 30.36 0 0 0 5 21.55c0 0.26 -0.06 0.56 0 0.84l0 0.11c-1.57 0.11 -3.13 0.23 -4.67 0.39a0.3 0.3 0 0 0 -0.33 0.31 0.29 0.29 0 0 0 0.31 0.26c1.42 -0.06 2.86 -0.09 4.31 -0.1l3.45 0 3.44 0c3.47 0 7 0 10.37 0.08a0.32 0.32 0 0 0 0.33 -0.3 0.32 0.32 0 0 0 -0.31 -0.29ZM5.32 20.78a18.06 18.06 0 0 1 -1.08 -3.51A9.85 9.85 0 0 1 4 15.6a0.92 0.92 0 0 1 0.05 -0.48c0.13 -0.18 0.46 -0.26 0.92 -0.35a26.59 26.59 0 0 1 5.11 -0.26 76.42 76.42 0 0 1 7.8 0.49 12.45 12.45 0 0 1 1.48 0.26 1.29 1.29 0 0 1 0 0.28 16.26 16.26 0 0 1 -0.71 2.4 28.29 28.29 0 0 1 -1.11 2.63 8.49 8.49 0 0 0 -1.54 -0.15l-0.51 0 -1.88 0 -3.49 0c-0.55 0 -1.11 0 -1.66 0.08 -1.06 0.08 -2.11 0.23 -3.17 0.35ZM6 22.39h-0.4a0.62 0.62 0 0 1 0 -0.13l0 -0.7a0.47 0.47 0 0 0 0 -0.17c0.8 -0.06 1.61 -0.13 2.41 -0.17s1.43 0 2.15 0l3.45 0.13 1.87 0.11 0.49 0c1.47 0.09 1.3 0 1.29 0.35 0 0.05 -0.07 0.19 -0.08 0.29a3.36 3.36 0 0 1 -0.66 0.12c-0.57 0.06 -1.17 0.06 -1.65 0.09l-1.22 0q-1.28 0 -2.55 -0.06l-3.25 0 -1 0Z" fill="#020202" fill-rule="evenodd" stroke-width="1"></path>
    <path d="M6.12 12.9a0.31 0.31 0 0 0 0.41 -0.18A13.74 13.74 0 0 1 7.63 11c0.16 -0.2 0.31 -0.41 0.47 -0.6s0.21 -0.26 0.32 -0.37a1.89 1.89 0 0 1 1.07 -0.63 0.22 0.22 0 0 0 0.14 -0.06c0.2 0.08 0.39 0.17 0.61 0.24a4.08 4.08 0 0 0 1.19 0.17 11 11 0 0 0 1.68 -0.21 0.27 0.27 0 0 0 0.24 -0.32A0.29 0.29 0 0 0 13 9a9.7 9.7 0 0 1 -1.59 0.12 3.1 3.1 0 0 1 -1 -0.19C8.25 8.11 7.71 6.5 8.17 5a5.09 5.09 0 0 1 3.72 -3.33c1.87 -0.44 3.17 0.9 3.65 2.46s0.11 3.67 -1.68 4.16a0.32 0.32 0 0 0 -0.24 0.39c0.08 0.33 0.79 0.34 1.84 1.36 0.15 0.15 0.29 0.31 0.43 0.48a3.61 3.61 0 0 1 0.36 0.51 4.05 4.05 0 0 1 0.58 1.45 0.32 0.32 0 1 0 0.64 0 4.31 4.31 0 0 0 -0.3 -1.88 3.83 3.83 0 0 0 -0.44 -0.73 2.85 2.85 0 0 0 -0.61 -0.59 3.85 3.85 0 0 0 -1.43 -0.58c1.69 -0.81 2.19 -2.91 1.69 -4.78C15.84 1.8 14.12 0.1 11.66 0.59a6.08 6.08 0 0 0 -4.46 4.1 3.63 3.63 0 0 0 1.56 4.2 3 3 0 0 0 -1.4 0.76 3.9 3.9 0 0 0 -0.77 1.06 7.93 7.93 0 0 0 -0.65 1.78 0.31 0.31 0 0 0 0.18 0.41Z" fill="#020202" fill-rule="evenodd" stroke-width="1"></path>
    <path d="M11.07 18.63a1.72 1.72 0 0 0 1.86 -0.44c0.6 -0.65 0.91 -1.93 -1.23 -2.19a1.74 1.74 0 0 0 -0.59 0.06 1.23 1.23 0 0 0 -0.94 1.27 1.55 1.55 0 0 0 0.9 1.3Zm0.35 -1.82a0.66 0.66 0 0 1 0.35 -0.11c1.23 0 0.75 0.65 0.7 0.71a0.79 0.79 0 0 1 -0.92 0.26 0.55 0.55 0 0 1 -0.36 -0.51 0.43 0.43 0 0 1 0.23 -0.35Z" fill="#4C57E6" fill-rule="evenodd" stroke-width="1"></path>
    <path d="m20.61 12.63 0.33 0.14a2.09 2.09 0 0 1 0.23 0.08 1.11 1.11 0 0 1 0.43 0.3 0.32 0.32 0 0 0 0.42 0.18 0.33 0.33 0 0 0 0.18 -0.42 1.61 1.61 0 0 0 -0.55 -0.93 1.4 1.4 0 0 0 -0.85 -0.36 1.51 1.51 0 0 0 -1 0.31 0.28 0.28 0 0 0 -0.16 0.37 0.27 0.27 0 0 0 0.37 0.15 1.5 1.5 0 0 1 0.6 0.18Z" fill="#4C57E6" fill-rule="evenodd" stroke-width="1"></path>
    <path d="M22.77 10.07a2.48 2.48 0 0 0 -0.6 -0.26 3 3 0 0 0 -0.94 -0.16 3.45 3.45 0 0 0 -2.07 0.69 0.28 0.28 0 0 0 -0.1 0.39 0.29 0.29 0 0 0 0.39 0.09 3.2 3.2 0 0 1 1.75 -0.13 3.8 3.8 0 0 1 1.07 0.32 1.72 1.72 0 0 1 1.09 1.33 0.32 0.32 0 0 0 0.33 0.31 0.33 0.33 0 0 0 0.31 -0.33 2.43 2.43 0 0 0 -1.23 -2.25Z" fill="#4C57E6" fill-rule="evenodd" stroke-width="1"></path>
  </g>
</svg>