<svg xmlns="http://www.w3.org/2000/svg" viewBox="0 0 24 24" id="Office-File-Ppt--Streamline-Freehand">
  <desc>
    Office File Ppt Streamline Icon: https://streamlinehq.com
  </desc>
  <g>
    <path d="M8.09 10.66a2.81 2.81 0 0 0 -1.18 -0.27 1.22 1.22 0 0 0 -0.93 0.42 1.11 1.11 0 0 0 -0.2 0.52l0 0.79a28.25 28.25 0 0 0 0.27 4.21 0.24 0.24 0 0 0 0.48 0l0 -2 0.21 0.05a1.65 1.65 0 0 0 0.63 0 2.55 2.55 0 0 0 0.54 -0.15 3.8 3.8 0 0 0 0.49 -0.26 1.8 1.8 0 0 0 0.83 -1.71 2 2 0 0 0 -1.14 -1.6ZM8 13.36a2.56 2.56 0 0 1 -0.35 0.22 1.74 1.74 0 0 1 -0.38 0.14 1.3 1.3 0 0 1 -0.52 0l-0.21 0 0.12 -1.46 0 -0.82c0.08 -0.1 0.24 -0.08 0.38 -0.07a1.81 1.81 0 0 1 0.63 0.17 1.17 1.17 0 0 1 0.71 0.86 1.07 1.07 0 0 1 -0.38 0.96Z" fill="#020202" fill-rule="evenodd" stroke-width="1"></path>
    <path d="M12.72 10.66a2.76 2.76 0 0 0 -1.17 -0.27 1.26 1.26 0 0 0 -0.94 0.42 1.23 1.23 0 0 0 -0.19 0.52 7.2 7.2 0 0 0 0 0.79 28.61 28.61 0 0 0 0.28 4.21 0.23 0.23 0 0 0 0.25 0.21 0.24 0.24 0 0 0 0.22 -0.25v-2l0.2 0.05a1.69 1.69 0 0 0 0.64 0 2.72 2.72 0 0 0 0.54 -0.15 3.67 3.67 0 0 0 0.48 -0.26 1.78 1.78 0 0 0 0.83 -1.71 2 2 0 0 0 -1.14 -1.56Zm-0.12 2.7a1.74 1.74 0 0 1 -0.35 0.22 1.66 1.66 0 0 1 -0.37 0.14 1.35 1.35 0 0 1 -0.53 0l-0.2 0 0.11 -1.46 0.06 -0.82c0.08 -0.1 0.23 -0.08 0.38 -0.07a1.87 1.87 0 0 1 0.63 0.17 1.16 1.16 0 0 1 0.7 0.86 1 1 0 0 1 -0.43 0.96Z" fill="#020202" fill-rule="evenodd" stroke-width="1"></path>
    <path d="m17.89 10.82 -1.17 -0.12c-0.34 0 -0.66 -0.06 -1 0 -0.5 0 -1 0.1 -1.49 0.15A0.24 0.24 0 0 0 14 11a0.25 0.25 0 0 0 0.23 0.25c0.5 0.09 1 0.23 1.48 0.27l0.32 0a8.93 8.93 0 0 0 -0.22 1.54 10.85 10.85 0 0 0 0 1.14c0.05 0.57 0.15 1.12 0.21 1.69a0.27 0.27 0 0 0 0.54 0c0 -0.56 0.09 -1.1 0.11 -1.66l0 -0.7 0 -0.7c0 -0.44 -0.08 -0.87 -0.1 -1.31h0.12l1.23 -0.16a0.27 0.27 0 0 0 0.24 -0.3 0.27 0.27 0 0 0 -0.27 -0.24Z" fill="#020202" fill-rule="evenodd" stroke-width="1"></path>
    <g>
      <path d="M15.36 5.52a4.5 4.5 0 0 1 -0.66 0c0.05 -0.22 0.13 -0.48 0.21 -0.76 0.37 -1.43 0.51 -2.91 -0.66 -3.81a0.27 0.27 0 0 0 -0.35 0.4c1.23 1.22 -0.13 3 -0.26 4.36s3.08 0.76 4.16 0.21l1.64 -0.77a0.35 0.35 0 0 0 -0.19 -0.65c-2.04 0.84 -2.13 0.99 -3.89 1.02Z" fill="#020202" fill-rule="evenodd" stroke-width="1"></path>
      <path d="M15.29 0c-1.37 0 -0.74 0 -9.79 0.41a0.31 0.31 0 0 0 0 0.62C14 0.73 14.2 0.7 15.26 0.76s3.82 2.46 4.54 3.48a1.05 1.05 0 0 1 0.27 0.59c0 1.53 -0.47 6 -0.65 7.05s-0.37 1.8 -0.51 2.71c-0.05 0.36 -0.31 4.58 -1.41 5.17 -1.54 0.82 -3.33 0.4 -5 0.61 -1 0.13 -3.19 0.39 -4.52 0.4 -5.35 0 -5.1 0.11 -6.57 -0.51 1.23 -1.85 1.93 -6.07 2.3 -8.48 0.41 -2.7 0.11 -5.42 0.2 -8.11 0 -0.47 0.34 -3 -0.4 -2.59 -0.3 0.15 -0.18 0.61 -0.18 0.81 0 1.34 0 6.54 -0.09 7.4a36.36 36.36 0 0 1 -2 9.52c-0.15 0.31 -0.33 0.6 -0.5 0.89a2.8 2.8 0 0 0 -0.31 0.58 0.76 0.76 0 0 0 0.45 0.72 6.82 6.82 0 0 0 2 0.66 56.09 56.09 0 0 0 9.74 -0.29c1.67 -0.21 3.55 0.24 5.33 -0.73 1.63 -0.88 1.83 -5.28 1.92 -5.91 0.12 -0.91 0.32 -1.8 0.46 -2.7s0.55 -5.48 0.56 -7.2c0.04 -1.49 -4.22 -4.76 -5.6 -4.83Z" fill="#020202" fill-rule="evenodd" stroke-width="1"></path>
      <path d="M22.68 5.4c0 1.54 -0.6 7.68 -0.78 8.71s-0.37 1.8 -0.51 2.72c-0.05 0.35 -0.32 4.57 -1.41 5.16 -1.55 0.83 -3.33 0.4 -5 0.61a43.69 43.69 0 0 1 -4.52 0.4c-5.1 0 -5.09 0.25 -6.36 -0.29 -0.73 -0.25 -0.89 0.45 -0.42 0.74a3.92 3.92 0 0 0 1.69 0.46 55.44 55.44 0 0 0 9.74 -0.3c1.67 -0.21 3.55 0.24 5.33 -0.72 1.65 -0.89 1.84 -5.29 1.93 -5.89 0.13 -0.91 0.33 -1.8 0.47 -2.7s0.74 -7 0.75 -8.77c0 -0.91 -0.84 -1.01 -0.91 -0.13Z" fill="#4C57E6" fill-rule="evenodd" stroke-width="1"></path>
    </g>
  </g>
</svg>