<svg xmlns="http://www.w3.org/2000/svg" viewBox="0 0 24 24" id="Office-Desk--Streamline-Freehand">
  <desc>
    Office Desk Streamline Icon: https://streamlinehq.com
  </desc>
  <g>
    <path d="M10.16 10.9a4.26 4.26 0 0 0 0.2 -0.67l1.52 0 0.92 0a1.84 1.84 0 0 0 0 0.33 2.05 2.05 0 0 0 0.09 0.43 4.78 4.78 0 0 0 0.29 0.61c0.16 0.22 0.81 0.09 0.8 -0.31l0 -0.6c0 -0.14 -0.1 -0.29 -0.15 -0.43l-0.05 -0.07a18.23 18.23 0 0 0 3.76 -0.48 1.48 1.48 0 0 0 0.84 -0.52 2.74 2.74 0 0 0 0.34 -1 10.4 10.4 0 0 0 0.08 -1.33c0 -0.81 0.05 -1.61 0.06 -2.42l0 -1.62a6.72 6.72 0 0 0 -0.12 -1.54 1.21 1.21 0 0 0 -0.63 -0.78 21.69 21.69 0 0 0 -3.68 -0.19c-3 0 -6.95 0.06 -8.16 0.13a0.33 0.33 0 0 0 0 0.65c1.06 0 4.2 0 7 0.07a34.76 34.76 0 0 1 4.46 0.23s0 0.07 0.05 0.11a1.8 1.8 0 0 1 0.06 0.36l0 1 -0.11 4A10.12 10.12 0 0 1 17.64 8a2.18 2.18 0 0 1 -0.15 0.53c0.11 0.14 -0.42 0.17 -0.82 0.24a27.78 27.78 0 0 1 -3.67 0.38h-0.08l-1.05 0A38.66 38.66 0 0 1 7 9.11 6.09 6.09 0 0 1 6.22 9l-0.13 -0.05a1.46 1.46 0 0 1 -0.19 -0.63A12 12 0 0 1 5.88 7l0 -5.18a0.29 0.29 0 0 0 -0.58 0L5.13 7a9.28 9.28 0 0 0 0 1.67 2 2 0 0 0 0.31 0.81 1.43 1.43 0 0 0 0.79 0.41 17.32 17.32 0 0 0 3.11 0.35 0.31 0.31 0 0 0 -0.07 0.09 1.72 1.72 0 0 0 -0.23 0.42 2.17 2.17 0 0 0 -0.11 1 0.44 0.44 0 0 0 0.77 0c0.09 -0.23 0.37 -0.63 0.46 -0.85Z" fill="#020202" fill-rule="evenodd" stroke-width="1"></path>
    <path d="M3.5 18.42c-0.11 0.65 -0.19 1.31 -0.26 2a24.3 24.3 0 0 1 -0.43 2.89 0.32 0.32 0 0 0 0.2 0.41 0.34 0.34 0 0 0 0.42 -0.22 17.13 17.13 0 0 0 0.92 -3.25c0.11 -0.65 0.2 -1.31 0.26 -2 0.07 -0.84 0 -1 0.1 -1.88 0 -0.45 -0.52 -0.45 -0.67 0a12.73 12.73 0 0 0 -0.54 2.05Z" fill="#020202" fill-rule="evenodd" stroke-width="1"></path>
    <path d="M19.32 18.48c0.1 0.65 0.23 1.31 0.36 2 0.2 1 0.43 1.94 0.62 2.93a0.32 0.32 0 0 0 0.36 0.28 0.33 0.33 0 0 0 0.29 -0.36c-0.05 -1 -0.11 -2 -0.23 -2.94 0 -0.42 -0.1 -0.83 -0.17 -1.25s-0.15 -0.82 -0.25 -1.23c-0.14 -0.58 -0.14 -0.63 -0.3 -1.2a0.46 0.46 0 0 0 -0.9 0.18c0.08 0.74 0.11 0.81 0.22 1.59Z" fill="#020202" fill-rule="evenodd" stroke-width="1"></path>
    <path d="M22.71 12.63a8.77 8.77 0 0 0 -3.61 -0.8l-2 0c-1 0.05 -10.7 0.42 -11.89 0.46s-2.1 0.06 -3.14 0.14a0.29 0.29 0 1 0 0 0.58c1 0 2.08 -0.07 3.11 -0.07 2.44 0 4.87 0.1 7.31 0.08 1.55 0 3.08 -0.15 4.61 -0.18l1.93 0a7.75 7.75 0 0 1 3.12 0.69 1.27 1.27 0 0 1 0.72 1.23 4.35 4.35 0 0 1 -0.72 0l-1.63 0c-0.84 0 -1.66 -0.07 -2.5 -0.12 -3.82 -0.21 -7.65 0.15 -11.48 0.14 -0.94 0 -1.89 0 -2.84 -0.09l-1.61 0a2 2 0 0 1 -0.87 -0.24 1.17 1.17 0 0 1 -0.54 -0.78 0.68 0.68 0 0 1 0.39 -0.67 0.33 0.33 0 0 0 0.13 -0.45 0.32 0.32 0 0 0 -0.44 -0.13A1.34 1.34 0 0 0 0 13.77a1.85 1.85 0 0 0 0.83 1.28 2.39 2.39 0 0 0 0.89 0.34c0.64 0.11 1.36 0.06 1.92 0.11 0.19 0 2.33 0.14 2.89 0.16 3.8 0.09 7.62 -0.19 11.42 0.1l2.54 0.14 1.73 0a4.31 4.31 0 0 0 1.19 -0.17 0.79 0.79 0 0 0 0.55 -0.6 2.3 2.3 0 0 0 -1.25 -2.5Z" fill="#4C57E6" fill-rule="evenodd" stroke-width="1"></path>
  </g>
</svg>