<svg xmlns="http://www.w3.org/2000/svg" viewBox="0 0 24 24" id="Office-File-Hilight--Streamline-Freehand">
  <desc>
    Office File Hilight Streamline Icon: https://streamlinehq.com
  </desc>
  <g>
    <g>
      <path d="M20.05 7.39a5.4 5.4 0 0 0 -0.57 -1.14C19 5.41 18.24 4.42 17.93 4s-0.69 -1.12 -1.12 -1.64a3 3 0 0 0 -0.75 -0.69A3.72 3.72 0 0 0 15 1.24c-0.78 -0.17 -1.72 -0.2 -2.36 -0.29C11.79 0.86 11 0.78 10.18 0.71 8.32 0.56 6.45 0.45 4.59 0.27 4 0.19 4.67 0.43 3.34 8c-0.21 1.23 -0.49 2.45 -0.81 3.65 -0.1 0.38 -0.18 0.76 -0.3 1.13L0.64 18.45c-0.08 0.26 -0.38 0.84 -0.48 1.27a1.23 1.23 0 0 0 0 0.57 0.74 0.74 0 0 0 0.33 0.44 3.66 3.66 0 0 0 0.87 0.36c1.38 0.41 7.2 1.33 11.1 2.06a10.23 10.23 0 0 0 2.13 0.19c0.76 -0.18 1 -1.28 1.19 -1.71s0.61 -2.06 0.38 -2.17a0.28 0.28 0 0 0 -0.34 0.07c-0.22 0.17 -0.55 3.53 -2 3.2L9 21.65c-2 -0.52 -5.22 -0.89 -6.78 -1.33 -0.41 -0.12 -0.76 -0.39 -1 -0.45l0.45 -1.08c0.15 -0.44 0.34 -1 0.53 -1.71 0.39 -1.38 0.81 -3 1.08 -4 0.14 -0.48 0.86 -4.06 1 -5 0.33 -2.42 0.49 -4.86 0.69 -7.26L12.44 2c0.54 0.08 1.29 0.13 2 0.25a4.88 4.88 0 0 1 0.55 0.12l-0.77 1.53a13.47 13.47 0 0 0 -0.77 1.77 1.7 1.7 0 0 0 0 1.15 1.25 1.25 0 0 0 0.62 0.6 4.51 4.51 0 0 0 1.32 0.32c1 0.08 2 0 3.05 0.14a8.15 8.15 0 0 1 0.86 0.16 5.07 5.07 0 0 1 0 0.85c-0.07 0.53 0.83 0.34 0.79 -0.29a7.22 7.22 0 0 0 -0.04 -1.21Zm-1.46 -0.28c-1 -0.21 -2.06 -0.26 -3 -0.44a5.81 5.81 0 0 1 -0.75 -0.15c-0.14 0 -0.3 -0.06 -0.35 -0.17s0 -0.39 0.08 -0.66c0.15 -0.58 0.39 -1.22 0.48 -1.51l0.52 -1.56a2.65 2.65 0 0 1 0.59 0.61c0.37 0.46 0.71 1 1 1.35s1.09 1.36 1.63 2.16c0.12 0.17 0.23 0.34 0.32 0.49 -0.21 -0.04 -0.36 -0.09 -0.52 -0.12Z" fill="#020202" fill-rule="evenodd" stroke-width="1"></path>
      <path d="M15.86 23.54a10.22 10.22 0 0 0 2.13 0.18c0.75 -0.17 1 -1.27 1.18 -1.7s1.93 -4.59 1.69 -5.19c-0.17 -0.41 -0.54 -0.06 -0.71 0.52 -0.08 0.26 -1.48 6.1 -3 5.76 -0.38 -0.08 -0.64 0 -1.11 -0.15s-0.68 0.49 -0.18 0.58Z" fill="#4C57E6" fill-rule="evenodd" stroke-width="1"></path>
      <path d="M20 4.66c1.39 0.57 2.5 0.72 2.6 1.94a11.41 11.41 0 0 1 -0.14 1.28c0 0.6 0.57 0.77 0.71 0.08a4.55 4.55 0 0 0 0.09 -1.46C23 4.7 22 4.47 20.42 3.86c-0.81 -0.31 -1.19 0.43 -0.42 0.8Z" fill="#4C57E6" fill-rule="evenodd" stroke-width="1"></path>
    </g>
    <path d="M14.58 18.71Z" fill="#020202" fill-rule="evenodd" stroke-width="1"></path>
    <path d="M9.34 18.19a5.26 5.26 0 0 1 -1.16 0.1c-1.26 -0.85 -2 -1.66 -3.2 -0.76 -0.15 0.11 -0.63 0.42 -0.67 0.55s-0.06 0.39 0.26 0.44 0.72 -0.33 0.8 -0.38a0.71 0.71 0 0 1 0.94 0.1 10.43 10.43 0 0 0 1.29 1.05c0.65 0.37 1.33 0 1.84 -0.06 0.76 -0.13 1 0.11 1.59 0.07s0.2 -0.81 -0.24 -0.88a3.71 3.71 0 0 0 -1.45 -0.23Z" fill="#4C57E6" fill-rule="evenodd" stroke-width="1"></path>
    <path d="M13.7 16.63Z" fill="#020202" fill-rule="evenodd" stroke-width="1"></path>
    <path d="M23.83 10.24a8.18 8.18 0 0 0 -1.47 -1.62 1 1 0 0 0 -1.11 0c-0.3 0.15 -7.18 4.66 -7.41 5.58 0 0.08 -0.35 1.44 -0.38 1.71a8.7 8.7 0 0 0 -2.1 1.93c-0.12 0.21 1.24 2.05 2.21 2a7.25 7.25 0 0 0 2.17 -1.14 2.51 2.51 0 0 0 2.48 -0.7c0.7 -0.52 5 -3.69 5 -4.59 0 -0.29 0.66 -2.53 0.68 -2.82a1 1 0 0 0 -0.07 -0.35Zm-10.76 8.39c-0.32 0 -0.15 0.11 -0.6 -0.43 -0.1 -0.11 0.21 -0.59 1.22 -1.59s0.14 0.15 1.42 1.67c-0.79 0.72 -0.2 0.39 -2.04 0.35Zm9 -5.44c-1.41 1.52 -1.16 1.29 -5 4.54a3.06 3.06 0 0 1 -1.19 0.14c-0.26 -0.27 -1.4 -1.53 -1.61 -1.7 0 0 -0.05 -0.1 -0.08 -0.14l0.16 -1a3.81 3.81 0 0 1 0.44 -0.88 66.24 66.24 0 0 1 7.06 -4.56c0.17 0.23 1 1 1 1.07a17.46 17.46 0 0 0 -0.79 2.53Z" fill="#020202" fill-rule="evenodd" stroke-width="1"></path>
  </g>
</svg>