<svg xmlns="http://www.w3.org/2000/svg" viewBox="0 0 24 24" id="Office-Folder-Sealed--Streamline-Freehand">
  <desc>
    Office Folder Sealed Streamline Icon: https://streamlinehq.com
  </desc>
  <g>
    <path d="M11.66 7.91c0.15 0.1 0.08 0.17 0.38 0.18h0.42c0.34 0 0.74 -0.61 0.25 -0.9 -0.25 0 -0.29 0 -0.88 -0.06s-0.54 0.52 -0.17 0.78Z" fill="#4C57E6" fill-rule="evenodd" stroke-width="1"></path>
    <path d="M4.19 5.73c0.06 0.26 0.1 0.76 0.21 1.14a1.46 1.46 0 0 0 0.31 0.61 1.18 1.18 0 0 0 0.59 0.3 5.59 5.59 0 0 0 1.07 0.1l2.55 0c0.54 0 0.83 -0.55 0.2 -0.75a10.51 10.51 0 0 0 -2.75 -0.2l-0.66 0c-0.25 0 -0.31 0 -0.38 -0.07a0.75 0.75 0 0 1 -0.17 -0.38c-0.1 -0.33 -0.15 -0.72 -0.2 -0.94l-0.54 -2.9c-0.19 -0.39 -0.83 0.09 -0.48 1.39Z" fill="#4C57E6" fill-rule="evenodd" stroke-width="1"></path>
    <path d="M20.06 5.58a9.74 9.74 0 0 1 -0.27 1.06 1 1 0 0 1 -0.27 0.46 1.55 1.55 0 0 1 -0.9 0.27 9.39 9.39 0 0 1 -1.74 -0.12l-1.2 0c-0.79 -0.14 -1.14 0.72 -0.2 0.94a11.37 11.37 0 0 1 1.31 0.09 10 10 0 0 0 1.92 0 2.46 2.46 0 0 0 1.38 -0.54 1.83 1.83 0 0 0 0.42 -0.63 9.08 9.08 0 0 0 0.32 -1.36l0.39 -1.5c0.06 -0.75 -0.51 -1.55 -0.76 -0.69Z" fill="#4C57E6" fill-rule="evenodd" stroke-width="1"></path>
    <path d="M22.31 2.52a2.67 2.67 0 0 0 -1.09 -1.33 4.84 4.84 0 0 0 -1.78 -0.57c-1.32 -0.2 -2.88 -0.11 -4 -0.2 -0.84 -0.07 -1.7 -0.17 -2.57 -0.25 -0.59 -0.05 -1.17 -0.09 -1.78 -0.1a36.72 36.72 0 0 0 -4.33 0 8.15 8.15 0 0 0 -3 0.74A2.31 2.31 0 0 0 2.69 2a5.8 5.8 0 0 0 -0.25 2.14c0 1.1 0 2.2 -0.09 3.29s-0.16 2.2 -0.28 3.29l-0.53 5.41a15.62 15.62 0 0 0 0 3.48 5.18 5.18 0 0 0 0.89 2.27 2.86 2.86 0 0 0 1.32 1 18.94 18.94 0 0 0 2.12 0.58A17 17 0 0 0 11 24c2.54 -0.07 5.13 -0.5 7.49 -0.8a0.29 0.29 0 0 0 0.25 -0.31 0.28 0.28 0 0 0 -0.32 -0.25c-2.34 0.25 -4.92 0.64 -7.43 0.67a16.48 16.48 0 0 1 -4.84 -0.58c-0.65 -0.2 -1.39 -0.33 -2 -0.59a2.1 2.1 0 0 1 -0.95 -0.7 4.4 4.4 0 0 1 -0.69 -1.91 14.82 14.82 0 0 1 0 -3.27l0.62 -5.37c0.13 -1.11 0.23 -2.23 0.31 -3.34s0.11 -2.24 0.1 -3.36A8.41 8.41 0 0 1 3.57 3a1.3 1.3 0 0 1 0.74 -1.18 6.68 6.68 0 0 1 2.54 -0.63 37.16 37.16 0 0 1 4.21 0l1.29 0.07c1 0.07 2 0.17 3.06 0.25s2.59 0 3.89 0.14a3.7 3.7 0 0 1 1.42 0.35 1.42 1.42 0 0 1 0.35 0.29l0.46 0.83a5.4 5.4 0 0 1 0.07 1.65c-0.14 2 -0.46 4 -0.67 5.94 -0.09 0.86 -0.15 1.72 -0.17 2.59l-0.16 6.43a11 11 0 0 1 -0.14 1.74 1.9 1.9 0 0 1 -0.42 0.92 0.33 0.33 0 1 0 0.48 0.44 2.73 2.73 0 0 0 0.59 -1.22 11.36 11.36 0 0 0 0.17 -1.85l0.25 -6.43c0 -0.85 0.11 -1.69 0.21 -2.53 0.23 -2 0.59 -4 0.76 -6a5.31 5.31 0 0 0 -0.19 -2.28Z" fill="#020202" fill-rule="evenodd" stroke-width="1"></path>
    <path d="M14.29 6.68a16.21 16.21 0 0 1 0.23 -2l0 -0.15c0 -0.18 0.06 -0.36 0.1 -0.54a0.28 0.28 0 0 0 -0.16 -0.33 1.66 1.66 0 0 0 -0.25 -0.45 2.47 2.47 0 0 0 -2 -0.93 2 2 0 0 0 -0.49 0.09 2.37 2.37 0 0 0 -0.46 0.2 1.71 1.71 0 0 0 -0.82 1.93c-0.08 0.36 -0.14 0.72 -0.2 1.08s-0.09 0.55 -0.12 0.82 0 0.34 -0.05 0.5c0 0 -0.16 2.38 -0.17 3a12.92 12.92 0 0 0 0.05 1.4 2.66 2.66 0 0 0 -0.4 0.65 1.65 1.65 0 0 0 0 1.18 1.36 1.36 0 0 0 0.82 0.88c1.81 0.62 1.9 0.68 2.8 -0.18a3.61 3.61 0 0 0 0.6 -0.68 1.78 1.78 0 0 0 0.28 -0.67 1.87 1.87 0 0 0 -0.4 -1.39 42.65 42.65 0 0 0 0.64 -4.41ZM13 12.83c-0.62 1 -2.09 0.6 -2.33 0.48a0.51 0.51 0 0 1 -0.26 -0.4 0.72 0.72 0 0 1 0.08 -0.52 2.42 2.42 0 0 1 0.69 -0.75 1.55 1.55 0 0 1 0.86 -0.36 1 1 0 0 1 0.74 0.34 1.06 1.06 0 0 1 0.38 0.76 1.06 1.06 0 0 1 -0.16 0.45Zm0.29 -6.47c-0.06 0.22 -0.29 2.09 -0.3 2.26l0 1.86a1.87 1.87 0 0 0 -1 -0.28 2.45 2.45 0 0 0 -1.28 0.45l0 -0.29c0.09 -0.78 0.46 -3.74 0.46 -3.91l0 -1a2.08 2.08 0 0 0 2 0.33l0.3 -0.12c-0.06 0.24 -0.13 0.47 -0.18 0.7Zm0.11 -1.56a1.12 1.12 0 0 1 -0.2 0.17l-0.27 0.14a1.24 1.24 0 0 1 -1.6 -0.69 0.8 0.8 0 0 1 0.49 -0.95l0.49 -0.12a1.43 1.43 0 0 1 1.13 0.47 0.68 0.68 0 0 1 -0.04 0.98Z" fill="#020202" fill-rule="evenodd" stroke-width="1"></path>
  </g>
</svg>