<svg xmlns="http://www.w3.org/2000/svg" viewBox="0 0 24 24" id="Office-Folder-1--Streamline-Freehand">
  <desc>
    Office Folder 1 Streamline Icon: https://streamlinehq.com
  </desc>
  <g>
    <path d="M17.69 17.85a5.55 5.55 0 0 0 1.08 -0.28 2.12 2.12 0 0 0 0.71 -0.48 1.35 1.35 0 0 0 0.29 -0.44 5 5 0 0 0 0.2 -0.88q0.06 -0.4 0.09 -0.81c0.06 -0.63 0.08 -1.25 0.11 -1.87a0.26 0.26 0 0 0 -0.22 -0.31 0.28 0.28 0 0 0 -0.31 0.23L19 15.56c0 0.16 -0.08 0.35 -0.13 0.54a0.65 0.65 0 0 1 -0.13 0.29 1.51 1.51 0 0 1 -0.52 0.36 5 5 0 0 1 -0.71 0.28l-0.34 0.1c-0.37 0.19 -0.38 0.91 0.06 0.79Z" fill="#4C57E6" fill-rule="evenodd" stroke-width="1"></path>
    <path d="M20.15 10.57c0 0.16 -0.07 0.35 -0.13 0.53a0.74 0.74 0 0 1 -0.13 0.3 1.57 1.57 0 0 1 -0.51 0.36 4.63 4.63 0 0 1 -0.72 0.28c-0.75 0.25 -0.49 1 0.18 0.81a4.88 4.88 0 0 0 1.08 -0.27 2.45 2.45 0 0 0 0.72 -0.48 1.37 1.37 0 0 0 0.28 -0.45 4.93 4.93 0 0 0 0.2 -0.87c0 -0.27 0.07 -0.54 0.1 -0.82 0 -0.54 0 -0.36 0.05 -0.9 -0.14 -0.44 -0.64 -0.23 -0.82 0.26Z" fill="#4C57E6" fill-rule="evenodd" stroke-width="1"></path>
    <path d="M16.54 22.84a4.66 4.66 0 0 0 1.08 -0.28 2.31 2.31 0 0 0 0.71 -0.47 1.48 1.48 0 0 0 0.28 -0.45 6.08 6.08 0 0 0 0.21 -0.87c0 -0.28 0.07 -0.55 0.09 -0.82 0.05 -0.62 0.07 -1.24 0.11 -1.87a0.27 0.27 0 0 0 -0.22 -0.3 0.27 0.27 0 0 0 -0.31 0.22l-0.65 2.56c0 0.16 -0.07 0.35 -0.12 0.53a0.92 0.92 0 0 1 -0.14 0.3 1.61 1.61 0 0 1 -0.51 0.36 5.91 5.91 0 0 1 -0.72 0.28l-0.48 0.14c-0.32 0 -0.67 0.8 -0.18 0.8Z" fill="#4C57E6" fill-rule="evenodd" stroke-width="1"></path>
    <path d="M23 4.29a2.4 2.4 0 0 0 -0.91 -0.81 17 17 0 0 0 -3.7 -1.39A75.65 75.65 0 0 0 7.36 0a1 1 0 0 0 -0.79 0.33 3.8 3.8 0 0 0 -0.69 1.1A45.65 45.65 0 0 0 4 7.81c-0.68 2.51 -1.43 5 -2.1 7.5 -0.28 1.08 -0.55 2.16 -0.79 3.25a0.27 0.27 0 0 0 0.21 0.32 0.28 0.28 0 0 0 0.32 -0.2c0.33 -1.44 0.72 -2.87 1.14 -4.28 0.62 -2.14 1.3 -4.26 1.93 -6.4 0.19 -0.65 0.71 -2.88 1.34 -4.73a10.87 10.87 0 0 1 0.88 -2A1.28 1.28 0 0 1 7.19 1s0 -0.08 0.08 -0.08a79.94 79.94 0 0 1 9.34 1.78 24.93 24.93 0 0 1 4.73 1.57 2.15 2.15 0 0 1 0.76 0.52c0 0.08 0 0.34 -0.06 0.55a10.41 10.41 0 0 1 -0.48 1.81l0 0.07c-0.74 0.31 -1.86 0.34 -2.66 0.62a2.61 2.61 0 0 0 -0.81 0.44 2.41 2.41 0 0 0 -0.59 1.08c-0.23 0.75 -0.36 1.75 -0.48 2.2l-0.3 1.24c-0.36 1.63 -0.62 3.27 -1 4.89 -0.11 0.46 -0.45 2.05 -0.87 3.4a9.74 9.74 0 0 1 -0.55 1.48c-0.1 0.18 -0.17 0.33 -0.27 0.38a2.83 2.83 0 0 1 -1.47 0.31 14.92 14.92 0 0 1 -2.56 -0.48L6.14 22a19.54 19.54 0 0 1 -3.06 -0.71 4.2 4.2 0 0 1 -1.68 -1.02 0.3 0.3 0 0 0 -0.43 0 0.31 0.31 0 0 0 0 0.43 5 5 0 0 0 1.9 1.23 19.63 19.63 0 0 0 3.13 0.76l3.82 0.81a15.32 15.32 0 0 0 2.63 0.49 2.8 2.8 0 0 0 1.9 -0.38 4.87 4.87 0 0 0 1 -1.74c0.49 -1.34 2.77 -11.28 3 -12a1.81 1.81 0 0 1 0.37 -0.87 1.79 1.79 0 0 1 0.79 -0.34c0.37 -0.1 2.37 -0.52 2.6 -0.63a0.81 0.81 0 0 0 0.32 -0.37 8.8 8.8 0 0 0 0.47 -1.45 8.65 8.65 0 0 0 0.23 -1.35 1.28 1.28 0 0 0 -0.13 -0.57Z" fill="#020202" fill-rule="evenodd" stroke-width="1"></path>
  </g>
</svg>