<svg xmlns="http://www.w3.org/2000/svg" fill="none" viewBox="0 0 24 24" id="Open-Eyes--Streamline-Freehand">
  <desc>
    Open Eyes Streamline Icon: https://streamlinehq.com
  </desc>
  <path fill="#020202" fill-rule="evenodd" d="M23.1733 6.3095c-2.574 8.3892 -18.07588 9.1036 -22.407041 0.80372 -0.186484 -0.36509 -0.493778 -0.37294 -0.677636 -0.14969 -0.1838578 0.22326 -0.0630421 0.4649 0.191732 0.95606C1.08091 9.47061 2.23711 10.7387 3.61558 11.7229c-0.7993 0.7729 -1.64277 1.4991 -2.52621 2.1747 -0.05174 0.0172 -0.09955 0.0445 -0.14075 0.0802 -0.0412 0.0358 -0.074964 0.0793 -0.099353 0.128 -0.02439 0.0488 -0.038937 0.1019 -0.042803 0.1563 -0.003866 0.0544 0.003033 0.109 0.020279 0.1608 0.017246 0.0517 0.044503 0.0996 0.080236 0.1408 0.035733 0.0412 0.079229 0.0749 0.128011 0.0993 0.04878 0.0244 0.1019 0.0389 0.1563 0.0428 0.0544 0.0039 0.10901 -0.003 0.16075 -0.0202 0.74888 -0.1363 1.44669 -0.4734 2.01892 -0.9753 0.45762 -0.4014 0.82117 -0.8961 1.06747 -1.4489 1.24414 0.7454 2.63108 1.2843 4.07818 1.6158 -0.57011 1.1821 -1.20297 2.3331 -1.89593 3.448 -0.07518 0.0778 -0.11682 0.182 -0.1159 0.2902 0.00091 0.1081 0.04431 0.2116 0.12079 0.2881 0.07648 0.0765 0.17996 0.1198 0.28812 0.1207 0.10816 0.001 0.21232 -0.0407 0.29008 -0.1159 0.71392 -0.502 1.29983 -1.1648 1.71045 -1.935 0.31626 -0.5931 0.52172 -1.2371 0.60813 -1.9005 1.63375 0.2625 3.31835 0.2689 4.94035 0.0183 0.0341 0.6727 0.2189 1.3323 0.5443 1.9288 0.4388 0.8044 1.1125 1.4558 1.9311 1.8674 0.0438 0.0319 0.0935 0.0548 0.1462 0.0676 0.0526 0.0127 0.1073 0.0149 0.1608 0.0065 0.0536 -0.0084 0.1049 -0.0273 0.1512 -0.0556 0.0462 -0.0282 0.0864 -0.0653 0.1183 -0.1091 0.032 -0.0438 0.0549 -0.0935 0.0676 -0.1462 0.0127 -0.0527 0.0149 -0.1073 0.0065 -0.1609 -0.0084 -0.0535 -0.0273 -0.1049 -0.0555 -0.1511 -0.0283 -0.0462 -0.0654 -0.0864 -0.1092 -0.1184 -0.8468 -0.9823 -1.512 -2.1056 -1.9663 -3.317 1.5324 -0.3436 2.9851 -0.9257 4.257 -1.7472 0.2461 0.5384 0.6041 1.0205 1.0521 1.4132 0.5727 0.5019 1.2711 0.8388 2.0204 0.9746 0.0518 0.0173 0.1064 0.0241 0.1608 0.0203 0.0544 -0.0039 0.1075 -0.0185 0.1563 -0.0428 0.0488 -0.0244 0.0922 -0.0582 0.128 -0.0994 0.0357 -0.0412 0.063 -0.089 0.0802 -0.1408 0.0173 -0.0517 0.0242 -0.1063 0.0203 -0.1607 -0.0039 -0.0544 -0.0184 -0.1075 -0.0428 -0.1563 -0.0244 -0.0488 -0.0582 -0.0923 -0.0994 -0.128 -0.0412 -0.0357 -0.089 -0.063 -0.1407 -0.0803 -0.8821 -0.6769 -1.7249 -1.4034 -2.5244 -2.1759 1.5866 -1.2382 2.8105 -2.90406 3.4305 -4.99973 0.0266 -0.05317 0.0414 -0.11143 0.0437 -0.17081 0.0023 -0.05939 -0.0082 -0.11856 -0.0306 -0.17358 -0.0225 -0.05503 -0.0564 -0.10462 -0.0996 -0.14548 -0.0431 -0.04086 -0.0945 -0.07205 -0.1507 -0.09146 -0.0561 -0.01942 -0.1158 -0.02661 -0.175 -0.02112 -0.0592 0.00549 -0.1165 0.02352 -0.1681 0.05294 -0.0517 0.02942 -0.0964 0.06952 -0.1313 0.11763 -0.0349 0.0481 -0.0592 0.10309 -0.0711 0.16131Z" clip-rule="evenodd" stroke-width="1"></path>
</svg>