<svg xmlns="http://www.w3.org/2000/svg" viewBox="0 0 24 24" id="Optimization-Graph-Settings--Streamline-Freehand">
  <desc>
    Optimization Graph Settings Streamline Icon: https://streamlinehq.com
  </desc>
  <g>
    <path d="M24 11.31a6.75 6.75 0 0 0 -0.17 -1.11 2.12 2.12 0 0 0 -0.24 -0.62 0.93 0.93 0 0 0 -0.4 -0.37 2.3 2.3 0 0 0 -0.87 -0.11c-0.34 0 -0.71 0.1 -1 0.16a4.33 4.33 0 0 0 0 -0.88 3.74 3.74 0 0 0 -0.12 -0.48 1.73 1.73 0 0 0 -0.25 -0.44 2.1 2.1 0 0 0 -0.5 -0.46 7.46 7.46 0 0 0 1.13 -0.87 1.29 1.29 0 0 0 0.42 -1 1 1 0 0 0 -0.13 -0.36c-0.12 -0.19 -0.34 -0.41 -0.43 -0.53a8.18 8.18 0 0 0 -0.76 -0.8 7.16 7.16 0 0 0 -0.9 -0.66 2.4 2.4 0 0 0 -0.62 -0.27 0.85 0.85 0 0 0 -0.53 0 2.24 2.24 0 0 0 -0.7 0.54 8.12 8.12 0 0 0 -0.56 0.75 4.4 4.4 0 0 0 -1 -0.77 3.35 3.35 0 0 0 -0.55 -0.23 2.23 2.23 0 0 0 -0.57 -0.12 3.76 3.76 0 0 0 -0.9 0 5.11 5.11 0 0 0 0.13 -1.11A1.31 1.31 0 0 0 14 0.6a1 1 0 0 0 -0.35 -0.15A4.63 4.63 0 0 0 13 0.38a6.74 6.74 0 0 0 -1.1 0 8 8 0 0 0 -1.1 0.14 2.12 2.12 0 0 0 -0.62 0.24 0.87 0.87 0 0 0 -0.37 0.4A2.12 2.12 0 0 0 9.7 2c0 0.35 0.1 0.72 0.16 1.05a4.24 4.24 0 0 0 -0.87 0 2.07 2.07 0 0 0 -0.5 0.15 2 2 0 0 0 -0.49 0.32 4.07 4.07 0 0 0 -0.54 0.48 11.29 11.29 0 0 0 -0.73 -1A2.49 2.49 0 0 0 6 2.47a0.89 0.89 0 0 0 -0.54 0 2.18 2.18 0 0 0 -0.61 0.27 6.29 6.29 0 0 0 -0.9 0.66 8.29 8.29 0 0 0 -0.77 0.8 5.78 5.78 0 0 0 -0.42 0.53 1 1 0 0 0 -0.14 0.36 1.29 1.29 0 0 0 0.42 1 5.74 5.74 0 0 0 1 0.76 4.17 4.17 0 0 0 -0.47 0.47 2.07 2.07 0 0 0 -0.27 0.45 2.27 2.27 0 0 0 -0.17 0.5 4.19 4.19 0 0 0 -0.08 1.13 12.76 12.76 0 0 0 -1.37 -0.21 2.12 2.12 0 0 0 -0.87 0.11 0.83 0.83 0 0 0 -0.4 0.37 2.12 2.12 0 0 0 -0.24 0.62A6.63 6.63 0 0 0 0 11.38a6.86 6.86 0 0 0 0 1.11 4.77 4.77 0 0 0 0.07 0.67 1 1 0 0 0 0.15 0.35 1.29 1.29 0 0 0 1 0.42 6.6 6.6 0 0 0 1.29 -0.16 3.6 3.6 0 0 0 0 0.73 3.07 3.07 0 0 0 0.14 0.52 4.3 4.3 0 0 0 0.35 0.48 8.58 8.58 0 0 0 0.61 0.84c-0.32 0.23 -0.76 0.51 -1.12 0.81a2.16 2.16 0 0 0 -0.53 0.7 0.81 0.81 0 0 0 0 0.54 2.18 2.18 0 0 0 0.27 0.61 7.16 7.16 0 0 0 0.66 0.9 7.37 7.37 0 0 0 0.81 0.77 5.49 5.49 0 0 0 0.52 0.42 1 1 0 0 0 0.36 0.14 1.32 1.32 0 0 0 1 -0.42 7.58 7.58 0 0 0 0.77 -1 3.84 3.84 0 0 0 0.57 0.57 2.07 2.07 0 0 0 0.45 0.27 3.05 3.05 0 0 0 0.51 0.17 4.32 4.32 0 0 0 1.24 0.08 0.38 0.38 0 0 0 0.41 -0.32 0.39 0.39 0 0 0 -0.33 -0.41 6.86 6.86 0 0 1 -0.95 -0.45c-0.21 -0.11 -0.4 -0.22 -0.62 -0.31s-0.68 -0.23 -1 -0.39l0 -0.08A0.37 0.37 0 0 0 6 19c-0.16 0.16 -0.46 0.52 -0.79 0.84a1.53 1.53 0 0 1 -0.43 0.35 1.9 1.9 0 0 1 -0.37 -0.39c-0.23 -0.21 -0.45 -0.45 -0.67 -0.69s-0.41 -0.48 -0.59 -0.74 -0.29 -0.32 0.12 -0.7 0.7 -0.71 0.92 -1c0 0 0 -0.07 0.06 -0.11a0.38 0.38 0 0 0 0.08 -0.45c-0.12 -0.35 -0.2 -0.71 -0.31 -1.09a3.73 3.73 0 0 0 -0.14 -0.44c0 -0.15 -0.11 -0.29 -0.17 -0.43a6.85 6.85 0 0 1 -0.47 -1 0.32 0.32 0 0 0 -0.35 -0.29 0.27 0.27 0 0 0 -0.19 0.1l-1 0a1.44 1.44 0 0 1 -0.55 -0.07 4.3 4.3 0 0 1 0 -0.53l0 -1c0 -0.37 0.05 -0.63 0.1 -0.94s0 -0.39 0.58 -0.41 1 0 1.34 0a0.29 0.29 0 0 0 0.28 -0.2 0.33 0.33 0 0 0 0.24 -0.29 8.24 8.24 0 0 1 0.45 -0.94c0.11 -0.2 0.22 -0.39 0.31 -0.6s0.23 -0.63 0.36 -1A0.35 0.35 0 0 0 5 6.77a0.3 0.3 0 0 0 -0.09 -0.32 0.25 0.25 0 0 0 -0.17 0c-0.18 -0.17 -0.44 -0.4 -0.67 -0.64a1.43 1.43 0 0 1 -0.35 -0.44C3.86 5.22 4 5 4.11 5c0.21 -0.23 0.45 -0.45 0.69 -0.67a8.19 8.19 0 0 1 0.73 -0.59c0.17 -0.13 0.33 -0.22 0.7 0.12a10.5 10.5 0 0 1 0.82 0.79s0 0.1 0 0.15a0.31 0.31 0 0 0 0.44 0.09c0.38 -0.14 0.77 -0.19 1.17 -0.34a5.8 5.8 0 0 0 0.62 -0.27 7.4 7.4 0 0 1 0.82 -0.37s0.09 0.06 0.15 0.05a0.31 0.31 0 0 0 0.31 -0.33v-0.17l0 -1.18c0 -0.42 0.21 -0.55 0.41 -0.58s0.63 -0.08 0.94 -0.1 0.65 0 1 0h0.54a1.46 1.46 0 0 1 0.06 0.55l0 1.15a0.37 0.37 0 0 0 0.35 0.38 0.34 0.34 0 0 0 0.27 -0.1c0.31 0.08 0.64 0.23 1 0.36l0.62 0.19c0.22 0.06 0.44 0.09 0.65 0.15a3.94 3.94 0 0 1 0.55 0.22 0.32 0.32 0 0 0 0.05 0.38 0.33 0.33 0 0 0 0.46 0c0.25 -0.22 0.59 -0.61 1 -0.92s0.54 -0.25 0.7 -0.12 0.5 0.39 0.74 0.59 0.48 0.44 0.69 0.67c0.07 0.07 0.3 0.28 0.38 0.37s-0.2 0.27 -0.34 0.43c-0.31 0.32 -0.67 0.61 -0.83 0.77a0.32 0.32 0 0 0 -0.22 0.55 4.08 4.08 0 0 1 0.31 0.87 3 3 0 0 0 0.13 0.35c0.17 0.38 0.38 0.73 0.51 1.11a0.3 0.3 0 0 0 -0.08 0.22 0.32 0.32 0 0 0 0.33 0.31l1.34 0c0.48 0 0.56 0.22 0.58 0.41a9.33 9.33 0 0 1 0.1 0.94l0 1a4.5 4.5 0 0 1 0 0.53 1.46 1.46 0 0 1 -0.55 0.06l-0.76 0h-0.39a0.36 0.36 0 0 0 -0.38 0.34 0.35 0.35 0 0 0 0.16 0.32c-0.16 0.33 -0.34 0.66 -0.49 1s-0.21 0.57 -0.32 0.85a5.17 5.17 0 0 1 -0.52 1.23 0.3 0.3 0 0 0 -0.34 0.06 0.33 0.33 0 0 0 0 0.46c0.23 0.25 0.62 0.59 0.93 1s0.23 0.56 0.12 0.7a8.43 8.43 0 0 1 -0.6 0.74 8.64 8.64 0 0 1 -0.66 0.69c-0.07 0.07 -0.24 0.26 -0.37 0.38 -0.13 0 -0.27 -0.2 -0.43 -0.34 -0.33 -0.32 -0.63 -0.68 -0.79 -0.84a0.35 0.35 0 0 0 -0.51 0 0.32 0.32 0 0 0 -0.12 0.25 8.22 8.22 0 0 1 -0.84 0.15c-0.26 0 -0.5 0.07 -0.74 0.13 -0.44 0.09 -0.84 0.25 -1.29 0.34l-0.12 0a0.37 0.37 0 0 0 -0.29 0.37l0 1.15a1.29 1.29 0 0 1 -0.06 0.55 5 5 0 0 0 -0.53 0l-1 0c-0.36 0 -0.64 -0.05 -0.94 -0.1s-0.37 -0.09 -0.41 -0.58 0 -1 0 -1.34a0.31 0.31 0 0 0 -0.3 -0.33 0.32 0.32 0 0 0 -0.34 0.3c-0.05 0.4 -0.21 1 -0.25 1.6a2.12 2.12 0 0 0 0.11 0.87 0.9 0.9 0 0 0 0.36 0.4 2.35 2.35 0 0 0 0.62 0.24 8.26 8.26 0 0 0 1.11 0.17 6.86 6.86 0 0 0 1.11 0 4.77 4.77 0 0 0 0.67 -0.07 1 1 0 0 0 0.35 -0.15 1.34 1.34 0 0 0 0.42 -1 7.55 7.55 0 0 0 -0.17 -1.31 4.36 4.36 0 0 0 0.87 0.13 2.16 2.16 0 0 0 0.57 -0.05 2.69 2.69 0 0 0 0.55 -0.17 3.83 3.83 0 0 0 0.91 -0.54 5.88 5.88 0 0 0 0.7 0.88 1.29 1.29 0 0 0 1 0.42 1 1 0 0 0 0.36 -0.13 5.41 5.41 0 0 0 0.52 -0.43 6.41 6.41 0 0 0 0.8 -0.76 7.24 7.24 0 0 0 0.67 -0.9 2.15 2.15 0 0 0 0.26 -0.61 0.75 0.75 0 0 0 0 -0.54 2.16 2.16 0 0 0 -0.53 -0.7 9.3 9.3 0 0 0 -0.81 -0.59A4.86 4.86 0 0 0 21.1 16a3.14 3.14 0 0 0 0.29 -0.58 2.74 2.74 0 0 0 0.18 -0.62 5.21 5.21 0 0 0 0.11 -1 5.25 5.25 0 0 0 1 0.11 1.32 1.32 0 0 0 1 -0.41 1 1 0 0 0 0.15 -0.35 4.77 4.77 0 0 0 0.07 -0.67 6.89 6.89 0 0 0 0.1 -1.17Z" fill="#020202" fill-rule="evenodd" stroke-width="1"></path>
    <path d="M12.19 5.26c-3.47 -0.65 -6.11 1.67 -7.13 4.58a6.74 6.74 0 0 0 2.69 8.27 8.16 8.16 0 0 0 7.72 0A7.31 7.31 0 0 0 18.21 7.3a5.48 5.48 0 0 0 -4.07 -2.1 0.37 0.37 0 0 0 -0.4 0.33 0.35 0.35 0 0 0 0.33 0.39 4.68 4.68 0 0 1 3.45 1.9 6.25 6.25 0 0 1 1.08 3.86 6.37 6.37 0 0 1 -3.68 5.4 7 7 0 0 1 -6.57 0C5.75 15.63 5.2 12.65 6 10.14s3 -4.7 6.1 -4.25a0.32 0.32 0 1 0 0.11 -0.63Z" fill="#4C57E6" fill-rule="evenodd" stroke-width="1"></path>
    <path d="M12.17 14.1c0 -0.48 0.06 -1 0.07 -1.46l0 -0.87a8.49 8.49 0 0 0 -0.05 -0.88c-0.06 -0.69 -0.2 -1.36 -0.29 -2a0.33 0.33 0 0 0 -0.65 0c-0.09 0.69 -0.19 1.37 -0.23 2.07a8.81 8.81 0 0 0 0 0.89c0 0.29 0 0.59 0.07 0.88 0.06 0.5 0.14 1 0.23 1.46l-0.72 0.07c-0.4 0 -0.79 0.11 -1.19 0.18 0 -0.29 0.09 -0.56 0.12 -0.85a3.4 3.4 0 0 0 0 -0.45 2.25 2.25 0 0 0 0 -0.44c0 -0.36 -0.17 -0.68 -0.24 -1a0.32 0.32 0 0 0 -0.3 -0.34 0.33 0.33 0 0 0 -0.35 0.31c-0.1 0.36 -0.22 0.69 -0.29 1.07a2.47 2.47 0 0 0 0 0.47 2.52 2.52 0 0 0 0.06 0.47 7 7 0 0 0 0.23 0.9c-0.31 0 -0.62 0.09 -0.94 0.12a0.32 0.32 0 0 0 -0.32 0.32 0.33 0.33 0 0 0 0.32 0.32 23.14 23.14 0 0 0 2.88 0.14c0.69 0 1.4 -0.06 2.11 -0.12s1.37 -0.15 2.06 -0.16l1.25 -0.15a0.36 0.36 0 1 0 0.12 -0.72l-1.26 -0.12c0.05 -0.68 0.12 -1.36 0.18 -2s0.08 -1.15 0.09 -1.72c0 -1 -0.09 -1.93 -0.14 -2.9a0.32 0.32 0 1 0 -0.64 0c-0.14 0.84 -0.3 1.66 -0.4 2.51 0 0.36 -0.07 0.72 -0.08 1.08s0 0.73 0 1.1c0 0.65 0.08 1.29 0.15 1.94a16.33 16.33 0 0 0 -1.85 -0.12Z" fill="#020202" fill-rule="evenodd" stroke-width="1"></path>
  </g>
</svg>