<svg xmlns="http://www.w3.org/2000/svg" viewBox="0 0 24 24" id="Outdoors-Backpack--Streamline-Freehand">
  <desc>
    Outdoors Backpack Streamline Icon: https://streamlinehq.com
  </desc>
  <title>outdoors-backpack</title>
  <g>
    <path d="M12.52 10.57a1.6 1.6 0 0 0 -0.23 0 0.91 0.91 0 0 0 -0.23 0s-0.83 0.28 -0.83 0.54 0.76 0.52 0.84 0.55a0.9 0.9 0 0 0 0.46 0c0.86 -0.23 0.88 -0.38 0.88 -0.54s-0.04 -0.34 -0.89 -0.55Z" fill="#020202" fill-rule="evenodd" stroke-width="1"></path>
    <path d="M24 16.58a4.84 4.84 0 0 0 -0.22 -0.93 2.84 2.84 0 0 0 -0.51 -0.87A2.67 2.67 0 0 0 22 14a5.27 5.27 0 0 0 -1.28 -0.17 15.07 15.07 0 0 0 -0.29 -4A5.84 5.84 0 0 0 18 6.2c-0.19 -0.14 -1.2 -1.08 -4.25 -1.32a25.39 25.39 0 0 0 -3.7 0 6.39 6.39 0 0 0 -5.13 4.3 17.38 17.38 0 0 0 -1 4.52 5.74 5.74 0 0 0 -1.59 0.36 3.18 3.18 0 0 0 -1.18 0.85 4.8 4.8 0 0 0 -0.91 1.74A6.12 6.12 0 0 0 0 18.56a4.21 4.21 0 0 0 1.72 3.5 2.68 2.68 0 0 0 1 0.36 5.27 5.27 0 0 0 1.43 0c0.27 0 0.56 -0.06 0.84 -0.12l0.32 -0.11a4.26 4.26 0 0 0 0.62 0.48 0.29 0.29 0 0 0 0.41 -0.09 0.3 0.3 0 0 0 -0.09 -0.41 3.79 3.79 0 0 1 -1.61 -2.52 17.89 17.89 0 0 1 0 -4.85 19.88 19.88 0 0 1 0.42 -2.9 3.4 3.4 0 0 0 2.28 2.15 9 9 0 0 0 2.79 0.4c0.95 0 1.88 -0.07 2.66 0 1 0 2 0.11 3 0a5.73 5.73 0 0 0 2.08 -0.55 4.09 4.09 0 0 0 1.7 -1.54c0.06 1.31 0 2.64 0 3.87a15.94 15.94 0 0 1 -0.24 3.22 4 4 0 0 1 -0.8 1.8 2.76 2.76 0 0 1 -1.09 0.73 8.46 8.46 0 0 1 -2.13 0.48c-1.66 0.19 -3.34 0.43 -5 0.47A14.59 14.59 0 0 1 7 22.6a0.33 0.33 0 0 0 -0.4 0.25 0.34 0.34 0 0 0 0.25 0.41 14.86 14.86 0 0 0 3.45 0.35c1.71 0 3.43 -0.2 5.11 -0.36a8.9 8.9 0 0 0 2.36 -0.5 3.85 3.85 0 0 0 1.43 -0.91 4.91 4.91 0 0 0 1.7 0.12 3.31 3.31 0 0 0 1.14 -0.4 3.68 3.68 0 0 0 1.47 -1.75 6.59 6.59 0 0 0 0.49 -3.23ZM4.8 21.6a5.43 5.43 0 0 1 -0.69 0 5 5 0 0 1 -1 -0.05 2 2 0 0 1 -0.82 -0.33 3.32 3.32 0 0 1 -1.12 -2.73 6.54 6.54 0 0 1 0.17 -1.6 4.06 4.06 0 0 1 0.58 -1.46 2.32 2.32 0 0 1 1 -0.82 4.72 4.72 0 0 1 0.95 -0.29l0 0.39A18.68 18.68 0 0 0 4 19.8a5 5 0 0 0 0.8 1.8Zm14.14 -9.7a3.25 3.25 0 0 1 -1.42 1.1 5.06 5.06 0 0 1 -1.76 0.35c-1 0 -2 -0.08 -2.93 -0.12s-1.74 0 -2.69 0.06a9 9 0 0 1 -2.51 -0.2A2.69 2.69 0 0 1 5.56 11c0 -0.2 -0.06 -0.41 -0.08 -0.61s0.2 -0.6 0.32 -0.89a7.06 7.06 0 0 1 2 -2.8 3.85 3.85 0 0 1 1.31 -0.66 8.91 8.91 0 0 1 1.56 -0.26 16.36 16.36 0 0 1 2.8 0 11.26 11.26 0 0 1 2.7 0.55 3.38 3.38 0 0 1 0.58 0.27 6.65 6.65 0 0 1 0.56 0.36 5.17 5.17 0 0 1 2 3.09c0.05 0.22 0.09 0.44 0.13 0.67a3.29 3.29 0 0 1 -0.5 1.18Zm3.71 7.1a3.22 3.22 0 0 1 -1.09 1.82 2.25 2.25 0 0 1 -1 0.41 4.31 4.31 0 0 1 -0.88 0 5.93 5.93 0 0 0 0.63 -1.6 17.5 17.5 0 0 0 0.32 -3.42c0 -0.56 0 -1.14 0.06 -1.74a4.12 4.12 0 0 1 1 0.26 1.74 1.74 0 0 1 0.78 0.66 1.86 1.86 0 0 1 0.27 0.61 3.48 3.48 0 0 1 0.11 0.72 6.2 6.2 0 0 1 -0.2 2.28Z" fill="#020202" fill-rule="evenodd" stroke-width="1"></path>
    <path d="M4.91 5.92a1.33 1.33 0 0 1 -1 -0.85l-0.13 -0.79 0.06 -1.15A5.73 5.73 0 0 1 4 2.25a1.13 1.13 0 0 1 0.38 -0.57 0.93 0.93 0 0 1 0.4 -0.12l1 0c0.91 0 1.81 -0.07 2.71 -0.07h0.07c-0.05 0.35 -0.1 0.7 -0.12 1.06s0 0.45 0 0.68 0 0.46 0.05 0.69 0 0.42 0.07 0.74 0.66 0.36 0.92 0c0 -0.24 0.06 -0.48 0.07 -0.72s0 -0.46 0 -0.69a5.07 5.07 0 0 0 0 -0.68c0 -0.35 -0.11 -0.69 -0.18 -1h0.28l5 0.29 1.6 0.06c-0.13 0.34 -0.25 0.72 -0.25 1.08s-0.05 0.46 -0.06 0.68 0 0.46 0 0.68l0 0.36c0.13 0.5 0.81 0.76 0.94 0.36s0.06 -0.4 0.09 -0.67 0.06 -0.45 0.07 -0.68a5.14 5.14 0 0 0 0 -0.68c0 -0.39 -0.07 -0.77 -0.12 -1.16l1 0h2.13a5.51 5.51 0 0 1 0.7 0 0.89 0.89 0 0 1 0.33 0.08 1.15 1.15 0 0 1 0.59 0.92 6.79 6.79 0 0 1 -0.2 2.2 3.16 3.16 0 0 1 -0.18 0.72 0.9 0.9 0 0 1 -0.21 0.31 1.72 1.72 0 0 1 -0.93 0.37 3.57 3.57 0 0 1 -0.86 0.07c-0.41 0.07 -0.31 0.47 0.26 0.68a5.46 5.46 0 0 0 0.7 0 2.6 2.6 0 0 0 1.33 -0.51 1.63 1.63 0 0 0 0.42 -0.51 4.84 4.84 0 0 0 0.27 -0.87 7.93 7.93 0 0 0 0.28 -2.49 2 2 0 0 0 -1 -1.65A2.21 2.21 0 0 0 20.9 1a8 8 0 0 0 -0.83 0L18 0.89 9.67 0.4l-1.6 0c-0.78 0 -1.56 0.11 -2.34 0.15a8.75 8.75 0 0 0 -1.25 0.08 1.72 1.72 0 0 0 -0.63 0.29 1.76 1.76 0 0 0 -0.6 0.84A4.76 4.76 0 0 0 3 3l0 1.3c0 0.17 0 0.33 0.07 0.5a4.13 4.13 0 0 0 0.15 0.5 2 2 0 0 0 1.51 1.29 4.55 4.55 0 0 0 1.27 0.1c0.61 0 0.5 -0.66 0.11 -0.63a3 3 0 0 1 -1.2 -0.14Z" fill="#4C57E6" fill-rule="evenodd" stroke-width="1"></path>
    <path d="M17.19 19.33a0.34 0.34 0 0 0 -0.3 -0.37c-1.11 -0.17 -2.22 -0.31 -3.34 -0.39 -0.74 -0.05 -1.48 -0.06 -2.21 -0.09s-1.71 0 -2.55 0.09a11.14 11.14 0 0 0 -1.72 0.25 0.31 0.31 0 0 0 -0.25 0.34 0.29 0.29 0 0 0 0.34 0.25 10.15 10.15 0 0 1 1.23 0c1 0 1.94 0.15 2.92 0.23h3.39l0 0.08a1.31 1.31 0 0 0 -0.06 0.27 0.88 0.88 0 0 0 0 0.28s0.17 1 0.45 1 0.62 -0.88 0.63 -0.9a1.26 1.26 0 0 0 0.05 -0.28 0.86 0.86 0 0 0 0 -0.28 0.66 0.66 0 0 0 0 -0.15h1.12a0.34 0.34 0 0 0 0.3 -0.33Z" fill="#4C57E6" fill-rule="evenodd" stroke-width="1"></path>
  </g>
</svg>