<svg xmlns="http://www.w3.org/2000/svg" viewBox="0 0 24 24" id="Outdoors-Camp-Fire--Streamline-Freehand">
  <desc>
    Outdoors Camp Fire Streamline Icon: https://streamlinehq.com
  </desc>
  <title>outdoors-camp-fire</title>
  <g>
    <path d="M7.3 7.1a2.85 2.85 0 0 0 0.62 1.06 2.58 2.58 0 0 0 0.55 0.45 3.45 3.45 0 0 0 0.61 0.3 5.92 5.92 0 0 0 0.81 0.27 3.87 3.87 0 0 0 0.85 0.13 0.29 0.29 0 0 0 0.31 -0.31 0.28 0.28 0 0 0 -0.27 -0.31 4.5 4.5 0 0 1 -0.73 -0.15 7 7 0 0 1 -0.71 -0.28A3.84 3.84 0 0 1 8.85 8a2.19 2.19 0 0 1 -0.39 -0.36 2 2 0 0 1 -0.24 -0.38 2.17 2.17 0 0 1 -0.17 -0.42L8 6.14A1.82 1.82 0 0 1 8.43 5a7.07 7.07 0 0 1 1.3 -1 6.8 6.8 0 0 0 0.6 -0.46c0.06 0.25 0.13 0.51 0.2 0.76a0.56 0.56 0 0 0 0.46 0.41 0.53 0.53 0 0 0 0.55 -0.25c0.38 -0.59 0.74 -1.18 1.09 -1.78 0.21 -0.37 0.41 -0.73 0.6 -1.11 0.63 0.64 1.35 1.15 2 1.8a3.88 3.88 0 0 1 0.74 1.09 4.91 4.91 0 0 1 0.17 0.5c0 0.18 0.07 0.36 0.1 0.55a4.76 4.76 0 0 1 0.06 0.65 2 2 0 0 1 -0.06 0.6 1.75 1.75 0 0 1 -0.27 0.61 3.51 3.51 0 0 1 -0.46 0.56 4.67 4.67 0 0 1 -0.6 0.48 4.2 4.2 0 0 1 -0.69 0.37 0.34 0.34 0 0 0 -0.19 0.44 0.34 0.34 0 0 0 0.44 0.18 4.68 4.68 0 0 0 0.81 -0.4 4.31 4.31 0 0 0 0.72 -0.57 3.44 3.44 0 0 0 0.6 -0.66 2.74 2.74 0 0 0 0.4 -0.84 3.43 3.43 0 0 0 0.11 -0.64 5.7 5.7 0 0 0 0 -0.92c0 -0.21 -0.06 -0.43 -0.1 -0.63a3 3 0 0 0 -0.19 -0.65 4.38 4.38 0 0 0 -0.85 -1.4A27.41 27.41 0 0 1 13.56 0.24a0.57 0.57 0 0 0 -0.5 -0.24 0.56 0.56 0 0 0 -0.45 0.31c-0.3 0.61 -0.62 1.2 -1 1.78 -0.12 0.21 -0.24 0.42 -0.37 0.63a3.4 3.4 0 0 1 -0.07 -0.46 0.53 0.53 0 0 0 -0.42 -0.49 0.54 0.54 0 0 0 -0.6 0.27c-0.54 1 -1.79 1.5 -2.48 2.39a2.72 2.72 0 0 0 -0.59 1.69 2.94 2.94 0 0 0 0 0.51 4.12 4.12 0 0 0 0.22 0.47Z" fill="#020202" fill-rule="evenodd" stroke-width="1"></path>
    <path d="M14.27 6.59a2.87 2.87 0 0 0 -0.13 -0.71c-0.14 -0.44 -0.38 -0.86 -0.51 -1.29a0.56 0.56 0 0 0 -0.54 -0.36 0.55 0.55 0 0 0 -0.52 0.39c-0.05 0.17 -0.2 0.25 -0.35 0.35a6.67 6.67 0 0 0 -0.8 0.5 1.83 1.83 0 0 0 -0.41 0.47 1.32 1.32 0 0 0 0 1.47 1.71 1.71 0 0 0 1.74 0.68l0.59 -0.1a1.15 1.15 0 0 0 0.69 -0.57 1.5 1.5 0 0 0 0.24 -0.83Zm-0.92 0.46a0.47 0.47 0 0 1 -0.22 0.26l-0.4 0.11a0.34 0.34 0 0 0 -0.19 0.09 1 1 0 0 1 -0.72 -0.38 0.49 0.49 0 0 1 0 -0.63 1.42 1.42 0 0 1 0.45 -0.3 8.13 8.13 0 0 0 0.73 -0.4c0.07 0.14 0.15 0.28 0.21 0.42a2 2 0 0 1 0.16 0.45 0.69 0.69 0 0 1 -0.02 0.38Z" fill="#4C57E6" fill-rule="evenodd" stroke-width="1"></path>
    <path d="M21.05 18.25a2.81 2.81 0 0 0 1 -0.72 1.42 1.42 0 0 0 0.37 -0.87 1 1 0 0 0 -0.32 -0.78 2.29 2.29 0 0 0 -0.84 -0.5 3.56 3.56 0 0 0 -1.05 -0.2l-0.73 0a2.15 2.15 0 0 0 0.17 -1.46 1.38 1.38 0 0 0 -0.25 -0.48l1 -0.07a0.34 0.34 0 0 0 0.2 -0.09 2 2 0 0 0 1.12 -1.21 1 1 0 0 0 -0.43 -1.17 2.89 2.89 0 0 0 -0.94 -0.43 8.06 8.06 0 0 0 -1.41 -0.19L16.58 10c-1.61 -0.09 -3.22 -0.15 -4.84 -0.16s-3.24 0 -4.86 0.08L6 10l-0.66 0a5.17 5.17 0 0 0 -2.59 0.57A1.6 1.6 0 0 0 2 11.83a1.45 1.45 0 0 0 0.29 1 2 2 0 0 0 1.1 0.69 3.76 3.76 0 0 0 0.81 0.11h0.4a1.3 1.3 0 0 0 -0.15 0.18 1.92 1.92 0 0 0 -0.24 1.7l0 0.06 -0.69 0.05a1.91 1.91 0 0 0 -1.37 0.72 1.42 1.42 0 0 0 0 1.68 1.72 1.72 0 0 0 0.52 0.52 2.25 2.25 0 0 0 0.9 0.32 7.15 7.15 0 0 0 0.94 0.08l0 0.05a1.88 1.88 0 0 0 -0.19 1.35h-0.25a5.3 5.3 0 0 0 -1.16 0.21 2.16 2.16 0 0 0 -0.87 0.54 1.64 1.64 0 0 0 -0.47 1 1.45 1.45 0 0 0 0.25 0.91 2.14 2.14 0 0 0 1 0.72 4.83 4.83 0 0 0 1.32 0.28l1.87 0 6.11 -0.07c1.61 0 3.25 0.12 4.87 0a15.69 15.69 0 0 0 3.27 -0.44 2.17 2.17 0 0 0 0.8 -0.29 2.76 2.76 0 0 0 0.69 -0.54 1 1 0 0 0 0.15 -1.15 2 2 0 0 0 -1.24 -0.92 8.33 8.33 0 0 0 -1.13 -0.19 1.88 1.88 0 0 0 0.31 -0.8 2.27 2.27 0 0 0 0 -0.58 0.3 0.3 0 0 0 0 -0.3l0 -0.14 0.57 -0.07a3.49 3.49 0 0 0 0.64 -0.26ZM5.63 13.66l0.16 -0.07 0.74 0a0.78 0.78 0 0 1 0.22 0.12 0.65 0.65 0 0 1 0.25 0.39 1 1 0 0 1 -0.33 0.9 1.1 1.1 0 0 1 -0.85 0.39 0.63 0.63 0 0 1 -0.59 -0.33 1 1 0 0 1 0 -0.86 1.36 1.36 0 0 1 0.4 -0.54Zm2.15 0.17a1.71 1.71 0 0 0 -0.13 -0.23c2.41 0 4.82 0 7.23 -0.1 0.55 0 1.09 0 1.64 -0.07a2.17 2.17 0 0 0 -0.21 0.53 2 2 0 0 0 0.13 1.36l-2.87 -0.11 -1.9 0 -2 0.09 -2.08 0.08a1.82 1.82 0 0 0 0.19 -1.55Zm10.79 -0.33a0.65 0.65 0 0 1 0.24 0.42 1.24 1.24 0 0 1 -0.32 0.92 0.63 0.63 0 0 1 -0.64 0.31 0.84 0.84 0 0 1 -0.62 -1 1.21 1.21 0 0 1 0.36 -0.74l0.72 -0.05a1.4 1.4 0 0 1 0.26 0.14ZM3.66 12.42a1 1 0 0 1 -0.44 -0.24 0.35 0.35 0 0 1 -0.12 -0.28 0.62 0.62 0 0 1 0.45 -0.53 5.23 5.23 0 0 1 1.78 -0.26l0.64 0 1 0c1.59 -0.11 3.19 -0.17 4.79 -0.2s3.21 0 4.81 0l2.33 0a6.49 6.49 0 0 1 1.29 0.13 1.87 1.87 0 0 1 0.71 0.29 0.46 0.46 0 0 1 0.16 0.64 1.38 1.38 0 0 1 -0.62 0.62h-0.09c-0.64 0.05 -1.29 0.07 -1.93 0.1a0.13 0.13 0 0 0 -0.08 0l-0.13 0a0.25 0.25 0 0 0 -0.12 0 1.57 1.57 0 0 0 -0.69 0.12l-2.48 0c-2.75 0 -5.5 -0.09 -8.23 -0.12l-1.41 -0.07 -1 0a2.7 2.7 0 0 1 -0.62 -0.2Zm15 6.17a2.07 2.07 0 0 1 0.41 0.27 1.71 1.71 0 0 1 0 0.6 1.13 1.13 0 0 1 -0.35 0.56 0.91 0.91 0 0 1 -0.81 0.17 0.83 0.83 0 0 1 -0.61 -0.45 0.78 0.78 0 0 1 0 -0.74 1.18 1.18 0 0 1 0.27 -0.32Zm-2.39 1.65h-0.64c-1.3 -0.05 -2.6 -0.15 -3.91 -0.2l-1.7 0 -1.08 0 -1.16 0.09a1.71 1.71 0 0 0 0 -1.35l4.44 -0.14 3.95 0a1.8 1.8 0 0 0 0.12 1.6Zm-10.86 -0.09a0.91 0.91 0 0 1 -0.1 -0.83 1.14 1.14 0 0 1 0.26 -0.42l0.88 0h0.42a0.7 0.7 0 0 1 0 0.9 1.24 1.24 0 0 1 -0.53 0.51h-0.75a0.4 0.4 0 0 1 -0.18 -0.16Zm15.82 1.52a0.4 0.4 0 0 1 0 0.56 2 2 0 0 1 -0.51 0.42 1.41 1.41 0 0 1 -0.59 0.23h-0.05a14.52 14.52 0 0 1 -3.14 0.34c-1.61 0 -3.24 -0.11 -4.82 -0.17L6 22.92l-1.79 0a3.37 3.37 0 0 1 -1 -0.21 1 1 0 0 1 -0.41 -0.26 0.31 0.31 0 0 1 -0.1 -0.26 0.55 0.55 0 0 1 0.16 -0.31 0.94 0.94 0 0 1 0.39 -0.24 3.94 3.94 0 0 1 0.92 -0.16l1.24 0a1.82 1.82 0 0 0 0.79 0.08 1.69 1.69 0 0 0 0.35 -0.1h0.08l3.47 -0.28 5.58 0 1.59 0a1.69 1.69 0 0 0 0.49 0.13 1.93 1.93 0 0 0 1 -0.15 10.34 10.34 0 0 1 1.78 0.16 1.41 1.41 0 0 1 0.69 0.35Zm-2.08 -4 -0.72 0a2 2 0 0 0 -0.5 -0.07 1.63 1.63 0 0 0 -0.67 0.13l-0.31 0 -4.65 -0.17 -2.36 0c-1.18 0 -2.35 0.07 -3.53 0.11 -0.52 0 -1.07 0.06 -1.62 0.06a6.53 6.53 0 0 1 -1 -0.08 1.45 1.45 0 0 1 -0.42 -0.12 0.63 0.63 0 0 1 -0.25 -0.21 0.37 0.37 0 0 1 0 -0.44 0.85 0.85 0 0 1 0.59 -0.3c0.62 -0.07 1.24 -0.12 1.86 -0.17l0.2 0a2.13 2.13 0 0 0 0.65 -0.12l3.35 -0.23 2 -0.17c0.62 0 1.24 -0.06 1.85 -0.06l3.42 0a1.84 1.84 0 0 0 0.63 0.3 1.57 1.57 0 0 0 1.32 -0.33l0.95 0a3.43 3.43 0 0 1 1.13 0.19 1.94 1.94 0 0 1 0.48 0.27 0.39 0.39 0 0 1 0.16 0.26 0.76 0.76 0 0 1 -0.29 0.49 2.12 2.12 0 0 1 -0.62 0.37 2.89 2.89 0 0 1 -0.58 0.14c-0.4 0.13 -0.74 0.13 -1.07 0.15Z" fill="#020202" fill-rule="evenodd" stroke-width="1"></path>
  </g>
</svg>