<svg xmlns="http://www.w3.org/2000/svg" viewBox="0 0 24 24" id="Outdoors-Zorb-Ball--Streamline-Freehand">
  <desc>
    Outdoors Zorb Ball Streamline Icon: https://streamlinehq.com
  </desc>
  <title>outdoors-zorb-ball</title>
  <g>
    <path d="M4.28 19.47a7.89 7.89 0 0 1 -3 -4.13 8.85 8.85 0 0 1 -0.1 -5.12 10.79 10.79 0 0 1 1.29 -2.84 16.62 16.62 0 0 1 2 -2.47c0.42 -0.45 0.85 -0.9 1.31 -1.32a7.07 7.07 0 0 1 0.93 -0.7A9.47 9.47 0 0 1 11 1.57a11.36 11.36 0 0 1 4.49 0.56 10.84 10.84 0 0 1 6.1 5.62 10.25 10.25 0 0 1 0.45 8.3 10.49 10.49 0 0 1 -1.22 2.21 4.91 4.91 0 0 1 -1.85 1.57 0.35 0.35 0 0 0 -0.17 0.46 0.34 0.34 0 0 0 0.45 0.17A5.25 5.25 0 0 0 21 19.13a10.13 10.13 0 0 0 1.72 -2.77 11.07 11.07 0 0 0 -0.28 -9 11.85 11.85 0 0 0 -6.61 -6.28 12.11 12.11 0 0 0 -5 -0.63 10.47 10.47 0 0 0 -4.74 1.48A7.37 7.37 0 0 0 5 2.76c-0.48 0.45 -0.91 0.93 -1.35 1.42a17.33 17.33 0 0 0 -2 2.68A11.68 11.68 0 0 0 0.29 10a9.62 9.62 0 0 0 0.27 5.59A8.41 8.41 0 0 0 4 20a0.3 0.3 0 0 0 0.42 -0.08 0.31 0.31 0 0 0 -0.14 -0.45Z" fill="#4C57E6" fill-rule="evenodd" stroke-width="1"></path>
    <path d="M6.18 22.44a3.08 3.08 0 0 1 -2.06 0.74 5.41 5.41 0 0 1 -3.34 -1.52 0.3 0.3 0 0 1 0.4 -0.46 5.14 5.14 0 0 0 2.42 1.16 2.28 2.28 0 0 0 2.2 -0.85 0.46 0.46 0 0 1 0.66 -0.05 4.38 4.38 0 0 0 2.84 1 3.09 3.09 0 0 0 2.48 -1.37 0.58 0.58 0 0 1 0.81 -0.13 5.17 5.17 0 0 0 3.24 1 2.15 2.15 0 0 0 1.74 -1 0.47 0.47 0 0 1 0.32 -0.23 0.48 0.48 0 0 1 0.39 0.07 6.53 6.53 0 0 0 2.44 1.2 2.46 2.46 0 0 0 1.65 -0.17 1.88 1.88 0 0 0 0.43 -0.31 6.44 6.44 0 0 0 0.57 -0.7 0.35 0.35 0 0 1 0.57 0.4 7 7 0 0 1 -0.62 0.81 3 3 0 0 1 -0.59 0.47 3.31 3.31 0 0 1 -2.15 0.33 7.19 7.19 0 0 1 -2.44 -0.93 3.08 3.08 0 0 1 -2.2 1.18 6.11 6.11 0 0 1 -3.58 -0.88 4 4 0 0 1 -3 1.38 5.2 5.2 0 0 1 -3.18 -1.14Z" fill="#020202" fill-rule="evenodd" stroke-width="1"></path>
    <path d="M15.72 6a0.33 0.33 0 0 1 0.06 0.29A2.51 2.51 0 0 1 14.35 8a2.13 2.13 0 0 1 -2.9 -1.37 3.17 3.17 0 0 1 0 -1.56A2.48 2.48 0 0 1 13 3.37a2.06 2.06 0 0 1 2.23 0.48 2 2 0 0 1 0.5 0.95 3.39 3.39 0 0 1 -0.01 1.2Zm-0.63 0.18a0.14 0.14 0 0 1 0 -0.09 2.78 2.78 0 0 0 -0.05 -1 1.25 1.25 0 0 0 -0.4 -0.69 1.18 1.18 0 0 0 -1.25 -0.1 1.4 1.4 0 0 0 -0.83 1 2.41 2.41 0 0 0 0 0.85A1.15 1.15 0 0 0 14 7.2a1.74 1.74 0 0 0 1.09 -0.99Z" fill="#020202" fill-rule="evenodd" stroke-width="1"></path>
    <path d="M9.41 10.45a5.78 5.78 0 0 1 -1.57 -1.28A5.21 5.21 0 0 1 6.67 6.9 3.15 3.15 0 0 1 6.82 5a1.41 1.41 0 0 1 1.35 -0.8 1.89 1.89 0 0 1 1.24 0.52 5.44 5.44 0 0 1 1 1.3 10.15 10.15 0 0 0 1.31 1.92 2.77 2.77 0 0 0 1.16 0.76 2.29 2.29 0 0 0 1.69 -0.15 9.5 9.5 0 0 0 2.36 -1.85 3.74 3.74 0 0 1 1.34 -0.89 1.23 1.23 0 0 1 1.28 0.26 1.41 1.41 0 0 1 0.45 1 3 3 0 0 1 -0.36 1.4 5.21 5.21 0 0 1 -1.8 2 6.07 6.07 0 0 1 -2.28 0.94c-0.18 0.38 -0.35 0.75 -0.5 1.14s-0.24 0.65 -0.34 1a12.71 12.71 0 0 1 2 2.35 4.62 4.62 0 0 1 0.74 2.21 3.16 3.16 0 0 1 -0.84 2.26 1.5 1.5 0 0 1 -1.78 0.3 1.8 1.8 0 0 1 -0.7 -0.57 4 4 0 0 1 -0.44 -1.1 12.39 12.39 0 0 0 -0.76 -2.39 1.39 1.39 0 0 0 -0.95 -0.8 1.05 1.05 0 0 0 -0.62 0.14 3.28 3.28 0 0 0 -0.66 0.5c-0.62 0.58 -1.23 1.55 -2 2.18a3 3 0 0 1 -1.35 0.68 1.56 1.56 0 0 1 -1.65 -0.62 2.81 2.81 0 0 1 -0.29 -2.28 5.49 5.49 0 0 1 1.4 -2.35 8.84 8.84 0 0 1 1.93 -1.42Zm5.77 0.42a0.22 0.22 0 0 1 0.11 0 5.38 5.38 0 0 0 2.18 -0.91A4.5 4.5 0 0 0 19 8.18a2.69 2.69 0 0 0 0.26 -0.89 0.74 0.74 0 0 0 -0.26 -0.66 0.58 0.58 0 0 0 -0.69 0 3.8 3.8 0 0 0 -0.83 0.67 10.22 10.22 0 0 1 -2.54 2 3.16 3.16 0 0 1 -2.36 0.25 3.79 3.79 0 0 1 -1.57 -1 10.88 10.88 0 0 1 -1.46 -2.01 5.14 5.14 0 0 0 -0.68 -0.89 1 1 0 0 0 -0.69 -0.38 0.42 0.42 0 0 0 -0.42 0.36 2.11 2.11 0 0 0 0 1 4.05 4.05 0 0 0 0.94 1.75 4.39 4.39 0 0 0 1.61 1.2 0.58 0.58 0 0 1 0.33 0.72l-0.83 2.89a0.55 0.55 0 0 1 -0.27 0.33 8 8 0 0 0 -1.88 1.34 4.46 4.46 0 0 0 -1.13 1.87 1.69 1.69 0 0 0 0 1.11 0.53 0.53 0 0 0 0.62 0.35 2.18 2.18 0 0 0 1.13 -0.67c0.61 -0.6 1.15 -1.37 1.68 -1.86a4 4 0 0 1 1.13 -0.75 1.84 1.84 0 0 1 1 -0.11 2.14 2.14 0 0 1 1.37 0.9 9.63 9.63 0 0 1 1.05 3 3.76 3.76 0 0 0 0.25 0.69 0.92 0.92 0 0 0 0.39 0.39 0.75 0.75 0 0 0 1 -0.32 2.37 2.37 0 0 0 0.43 -1.39 3.84 3.84 0 0 0 -0.58 -1.84 12.28 12.28 0 0 0 -2 -2.38 0.37 0.37 0 0 1 -0.1 -0.37c0.13 -0.43 0.28 -0.86 0.45 -1.27s0.36 -0.82 0.57 -1.22a0.3 0.3 0 0 1 0.26 -0.12Z" fill="#020202" fill-rule="evenodd" stroke-width="1"></path>
  </g>
</svg>