<svg xmlns="http://www.w3.org/2000/svg" viewBox="0 0 24 24" id="Outdoors-Flame-Lantern--Streamline-Freehand">
  <desc>
    Outdoors Flame Lantern Streamline Icon: https://streamlinehq.com
  </desc>
  <title>outdoors-flame-lantern</title>
  <g>
    <path d="M6.63 21.08c0.1 0 0.94 0 1 -0.07 1 -0.22 1 -0.36 1 -0.55s0 -0.35 -1 -0.53l-1.06 0 -0.3 0a2.38 2.38 0 0 0 -0.4 0.16 0.49 0.49 0 0 0 0 0.81 2.83 2.83 0 0 0 0.44 0.13 1 1 0 0 0 0.32 0.05Z" fill="#020202" fill-rule="evenodd" stroke-width="1"></path>
    <path d="M15.87 20a3 3 0 0 0 -0.42 0c-1.32 0.17 -1.36 0.19 -1.36 0.47s0 0.39 1.32 0.63a2 2 0 0 0 0.43 0c0.14 0 0.59 -0.05 0.73 -0.07a4.37 4.37 0 0 0 0.5 -0.09c0.41 -0.18 0.48 -0.7 0.12 -0.86a5.11 5.11 0 0 0 -0.59 -0.13c-0.14 0.05 -0.6 0.1 -0.73 0.05Z" fill="#020202" fill-rule="evenodd" stroke-width="1"></path>
    <path d="m13.38 17.12 -1.07 0c-0.05 0 -2.2 0 -4.12 0.08a5.52 5.52 0 0 0 -2.45 0.55 2.6 2.6 0 0 0 -1.16 1.49c0 0.16 -0.08 0.32 -0.11 0.48a3.91 3.91 0 0 0 0 0.48l0 0.56a3.72 3.72 0 0 0 0.08 0.57 3 3 0 0 0 1.64 2.05 8.53 8.53 0 0 0 3.42 0.62l2.54 0c0.85 0 1.7 -0.08 2.54 -0.16a7.85 7.85 0 0 0 1.53 -0.23 2.68 2.68 0 0 0 1 -0.54 2.53 2.53 0 0 0 0.62 -0.86 5.61 5.61 0 0 0 0.38 -1.4 4.08 4.08 0 0 0 0 -0.59 6 6 0 0 0 -0.1 -0.84 0.43 0.43 0 0 0 -0.05 -0.12A2.16 2.16 0 0 0 17 17.78c-0.21 -0.08 -0.9 -0.49 -3.62 -0.66Zm1 0.87a6.82 6.82 0 0 1 2.28 0.38c1.58 0.74 0.6 3.27 0.58 3.31a1.81 1.81 0 0 1 -0.52 0.75 1.86 1.86 0 0 1 -0.72 0.35 7.76 7.76 0 0 1 -1.36 0.15q-1.24 0.06 -2.49 0.06c-0.83 0 -1.67 0 -2.49 -0.08a7.48 7.48 0 0 1 -3 -0.59c-0.38 -0.19 -1.52 -0.44 -1.17 -2.56a2.2 2.2 0 0 1 0.82 -1.07 4.67 4.67 0 0 1 1.95 -0.47l4.07 -0.22Z" fill="#020202" fill-rule="evenodd" stroke-width="1"></path>
    <path d="M19.57 4.33a6.57 6.57 0 0 0 -0.2 -1.33 0.41 0.41 0 0 0 -0.08 -0.13 3 3 0 0 0 -0.88 -1.61 4.79 4.79 0 0 0 -2.58 -1A24.37 24.37 0 0 0 13.28 0C12 0 10.75 0 9.48 0.08a7.54 7.54 0 0 0 -2.62 0.43A2.6 2.6 0 0 0 5.45 2a7.16 7.16 0 0 0 -0.35 1.23c-0.12 0.61 -0.18 1.24 -0.25 1.86 -0.1 1 -0.16 2.05 -0.18 3.08s0 2 0 3.06l0 2.12a3.32 3.32 0 0 0 0.52 1.5 2.18 2.18 0 0 0 0.87 0.71A8.84 8.84 0 0 0 8 16a1.54 1.54 0 0 1 1.25 0.78s0 0.06 0 0.09c0 0.35 0.68 0.25 0.68 0a2.5 2.5 0 0 0 -0.15 -0.38 1.81 1.81 0 0 0 -0.71 -0.82 5.43 5.43 0 0 0 -1.87 -0.56 1.77 1.77 0 0 1 -1.2 -0.74 2.28 2.28 0 0 1 -0.32 -1.11 19 19 0 0 1 0.06 -2c0 -1.21 0 -2.42 0.12 -3.63 0 -0.8 0.09 -1.6 0.18 -2.39 0.06 -0.59 0.12 -1.18 0.23 -1.75a5.67 5.67 0 0 1 0.3 -1.07 1.51 1.51 0 0 1 0.8 -0.86 6.52 6.52 0 0 1 2.22 -0.4C10.79 1 12 0.94 13.26 0.94a20.28 20.28 0 0 1 2.46 0.13 4.7 4.7 0 0 1 1.9 0.52 2.27 2.27 0 0 1 1 1.5 0.35 0.35 0 0 0 0.06 0.14 5.1 5.1 0 0 1 0.09 1.11 18.67 18.67 0 0 1 -0.14 1.87l-0.38 4.91c0 0.59 0 1.3 -0.11 2a2.84 2.84 0 0 1 -0.31 1.06 1.37 1.37 0 0 1 -0.65 0.57 8.44 8.44 0 0 1 -1.67 0.38 4 4 0 0 0 -1.06 0.34 1.61 1.61 0 0 0 -0.64 0.57 1.58 1.58 0 0 0 -0.21 0.61l0 0.26c0 0.27 0.63 0.25 0.65 0a0.77 0.77 0 0 1 0 -0.15 1 1 0 0 1 0.15 -0.35 0.83 0.83 0 0 1 0.37 -0.27 3.46 3.46 0 0 1 0.87 -0.18 9.9 9.9 0 0 0 1.9 -0.29 2.3 2.3 0 0 0 1.21 -0.92 3.63 3.63 0 0 0 0.52 -1.48c0.11 -0.69 0.09 -1.44 0.13 -2.06l0.12 -4.93c0.05 -0.63 0.08 -1.28 0.05 -1.95Z" fill="#020202" fill-rule="evenodd" stroke-width="1"></path>
    <path d="M14.16 4.83a2.34 2.34 0 0 1 -0.23 -0.83 4.62 4.62 0 0 1 0 -0.91 0.57 0.57 0 0 0 -1.1 -0.23c-0.45 1.22 -0.76 2.5 -1.21 3.73l0 0.07 -0.39 -1.29a0.51 0.51 0 0 0 -0.42 -0.37 0.53 0.53 0 0 0 -0.52 0.14c-0.46 0.48 -1 0.93 -1.4 1.45a4.4 4.4 0 0 0 -0.77 1.26 3.7 3.7 0 0 0 0.35 3.6 4.3 4.3 0 0 0 4.38 1.71 6.52 6.52 0 0 0 1.15 -0.48 5.87 5.87 0 0 0 0.67 -0.43 4.53 4.53 0 0 0 0.62 -0.54 5.17 5.17 0 0 0 0.42 -0.51 3.38 3.38 0 0 0 0.24 -0.41A3.3 3.3 0 0 0 16 8.05c-0.38 -1.11 -1.3 -2.13 -1.84 -3.22Zm1 5.61a2.6 2.6 0 0 1 -0.21 0.36 3.51 3.51 0 0 1 -0.29 0.36 3.63 3.63 0 0 1 -0.49 0.47 5.72 5.72 0 0 1 -0.57 0.39 5.58 5.58 0 0 1 -1 0.47c-1.94 0.67 -3.35 -1.16 -3.54 -1.45A2.9 2.9 0 0 1 9 8.21a3.62 3.62 0 0 1 0.66 -1 10.44 10.44 0 0 1 0.76 -0.73l0.54 2a0.58 0.58 0 0 0 1.06 0.1A12.11 12.11 0 0 0 12.69 7c0.2 -0.54 0.36 -1.1 0.53 -1.66 0.57 1 1.5 2 1.95 3.06a2.45 2.45 0 0 1 0 2.04Z" fill="#4C57E6" fill-rule="evenodd" stroke-width="1"></path>
    <path d="M11.71 18.89a2.48 2.48 0 0 0 -1.05 0.36 1.65 1.65 0 0 0 -0.59 0.66 1.57 1.57 0 0 0 0.06 1.5 1.55 1.55 0 0 0 1.44 0.75 2.1 2.1 0 0 0 1.73 -1.54 1.33 1.33 0 0 0 -1.3 -1.81 0.39 0.39 0 0 0 -0.29 0.08Zm0.74 1.28a1.1 1.1 0 0 1 -1.07 0.91 0.33 0.33 0 0 1 -0.33 -0.2c-0.06 -0.13 -0.18 -0.25 -0.14 -0.39a1 1 0 0 1 0.31 -0.56 2.39 2.39 0 0 1 0.71 -0.41H12a0.56 0.56 0 0 1 0.45 0.65Z" fill="#020202" fill-rule="evenodd" stroke-width="1"></path>
  </g>
</svg>