<svg xmlns="http://www.w3.org/2000/svg" viewBox="0 0 24 24" id="Outdoors-Camp-Fire-Roasting-Meat--Streamline-Freehand">
  <desc>
    Outdoors Camp Fire Roasting Meat Streamline Icon: https://streamlinehq.com
  </desc>
  <title>outdoors-camp-fire-roasting-meat</title>
  <g>
    <path d="M23.88 8.35a1.65 1.65 0 0 0 -0.35 -0.73A1.39 1.39 0 0 0 22.45 7a3.83 3.83 0 0 0 -1.4 0.46 0.19 0.19 0 0 1 -0.15 0 4.17 4.17 0 0 0 0.3 -1.11 2.22 2.22 0 0 0 -1.35 -2.53 1.94 1.94 0 0 0 -1 -0.11 1.92 1.92 0 0 1 -0.67 0 0.53 0.53 0 0 1 -0.33 -0.24l-0.44 -0.86a0.31 0.31 0 0 0 -0.41 -0.05 0.3 0.3 0 0 0 -0.12 0.41l0.42 0.91a1.16 1.16 0 0 0 0.72 0.58c0.45 0.12 1 -0.14 1.48 0.1a1.43 1.43 0 0 1 0.76 1.68 6.35 6.35 0 0 1 -1.77 3 3.53 3.53 0 0 1 -0.84 0.65 0.76 0.76 0 0 1 -0.65 0.11 1.11 1.11 0 0 1 -0.44 -0.4c-0.28 -0.39 -0.53 -0.85 -0.81 -1.17a3.43 3.43 0 0 0 -0.5 -0.43 2.52 2.52 0 0 0 -0.6 -0.33 9.27 9.27 0 0 1 -1.55 -0.48 0.51 0.51 0 0 1 -0.3 -0.48 3 3 0 0 1 0.2 -1.22 9.79 9.79 0 0 1 1.09 -1.78l0.67 -0.8a1.94 1.94 0 0 1 0.81 -0.49 1 1 0 0 1 0.82 0.12 0.35 0.35 0 1 0 0.43 -0.54 1.67 1.67 0 0 0 -1.1 -0.31 2.57 2.57 0 0 0 -1.45 0.66l-0.7 0.75a0.31 0.31 0 0 0 -0.08 -0.41 1.37 1.37 0 0 1 -0.27 -0.23c-0.05 0 0 -0.09 0 -0.15A4 4 0 0 0 13 0.82a1.45 1.45 0 0 0 -1 -0.76 1.55 1.55 0 0 0 -0.8 0 1.38 1.38 0 0 0 -0.76 0.42 1.36 1.36 0 0 0 -0.35 0.61c-0.09 0.3 0 0.62 -0.17 0.89a1 1 0 0 1 -0.34 0.29 4.14 4.14 0 0 0 -0.46 0.37 1.77 1.77 0 0 0 -0.2 0.36 1.71 1.71 0 0 0 -0.18 0.67 1.52 1.52 0 0 0 0.14 0.72 1.27 1.27 0 0 0 0.89 0.76 7.74 7.74 0 0 0 1.27 0 0.93 0.93 0 0 1 0.29 0 3.86 3.86 0 0 1 0.51 0.2 0.31 0.31 0 0 0 0.19 0 3.7 3.7 0 0 0 -0.29 1.26 1.54 1.54 0 0 0 0.45 1.16 6.31 6.31 0 0 0 2 0.86 1.51 1.51 0 0 1 0.35 0.2 1.67 1.67 0 0 1 0.31 0.28c0.31 0.35 0.56 0.9 0.9 1.29a2.06 2.06 0 0 0 0.75 0.58 1.78 1.78 0 0 0 1.41 0.02 3.91 3.91 0 0 0 1.09 -0.75l0.1 0.09a1 1 0 0 1 0.16 0.25 7.09 7.09 0 0 0 0.5 1.18 1.3 1.3 0 0 0 1.06 0.5 1.35 1.35 0 0 0 0.71 -0.16 1.74 1.74 0 0 0 0.54 -0.43 1.41 1.41 0 0 0 0.25 -0.4 2.75 2.75 0 0 0 0.16 -0.56 0.9 0.9 0 0 1 0.13 -0.43c0.18 -0.25 0.51 -0.31 0.74 -0.51a1.41 1.41 0 0 0 0.43 -0.57 1.49 1.49 0 0 0 0.1 -0.86ZM11.59 4.49a2.14 2.14 0 0 0 -0.48 -0.13A7.34 7.34 0 0 1 10 4.28c-0.1 0 -0.16 -0.13 -0.22 -0.29a0.41 0.41 0 0 1 0 -0.22 1.09 1.09 0 0 1 0.1 -0.25 0.87 0.87 0 0 1 0.35 -0.28 3.83 3.83 0 0 0 0.46 -0.33 1.76 1.76 0 0 0 0.31 -0.37 1.33 1.33 0 0 0 0.17 -0.44 5.15 5.15 0 0 0 0.07 -0.53 0.55 0.55 0 0 1 0.1 -0.35 0.39 0.39 0 0 1 0.2 -0.14 0.78 0.78 0 0 1 0.3 0c0.28 0.05 0.42 0.14 0.49 0.31a5.88 5.88 0 0 1 0.15 1 0.81 0.81 0 0 0 0.21 0.49 2 2 0 0 0 0.47 0.34 0.29 0.29 0 0 0 0.38 -0.06l-0.08 0.09a12.71 12.71 0 0 0 -1.17 1.71 0.34 0.34 0 0 0 -0.12 -0.12 3.86 3.86 0 0 0 -0.58 -0.35Zm11.18 4.26a0.52 0.52 0 0 1 -0.28 0.23 5.11 5.11 0 0 0 -0.46 0.28 1.52 1.52 0 0 0 -0.34 0.33 1.68 1.68 0 0 0 -0.22 0.42 3.48 3.48 0 0 0 -0.12 0.56 0.79 0.79 0 0 1 -0.12 0.42 0.58 0.58 0 0 1 -0.19 0.19 0.52 0.52 0 0 1 -0.2 0.09c-0.17 0 -0.28 0 -0.35 -0.09a6.28 6.28 0 0 1 -0.51 -1 1.91 1.91 0 0 0 -0.31 -0.38l-0.14 -0.12a8.5 8.5 0 0 0 1.06 -1.63l0.16 0.08a0.87 0.87 0 0 0 0.53 0 5.62 5.62 0 0 1 1 -0.26c0.18 0 0.33 0.09 0.48 0.32a0.75 0.75 0 0 1 0.09 0.3 0.46 0.46 0 0 1 -0.08 0.26Z" fill="#020202" fill-rule="evenodd" stroke-width="1"></path>
    <path d="M1.87 15a3 3 0 0 0 1.29 1.94 7 7 0 0 0 3.05 0.95 0.31 0.31 0 0 0 0.36 -0.25 0.32 0.32 0 0 0 -0.25 -0.35 6.33 6.33 0 0 1 -2.65 -1 2 2 0 0 1 -0.78 -1.42V14a2.68 2.68 0 0 1 0.11 -0.46 2.76 2.76 0 0 1 0.2 -0.47 17.5 17.5 0 0 1 1.89 -2.33 2.71 2.71 0 0 0 0.24 -0.35l0.27 0.45a0.52 0.52 0 0 0 0.41 0.24 0.5 0.5 0 0 0 0.42 -0.22 7.21 7.21 0 0 0 0.74 -1.68 10.82 10.82 0 0 0 0.37 -1.85l0.27 0.32c0.62 0.67 1.38 1.22 2 1.84a5.55 5.55 0 0 1 1.31 1.8 4.46 4.46 0 0 1 0.43 2.12 3.83 3.83 0 0 1 -0.08 0.67 2.54 2.54 0 0 1 -0.19 0.61 4 4 0 0 1 -0.42 0.69 6.89 6.89 0 0 1 -0.57 0.63 4.74 4.74 0 0 1 -0.86 0.63 3.56 3.56 0 0 1 -1 0.38 0.34 0.34 0 0 0 -0.28 0.4 0.36 0.36 0 0 0 0.41 0.28 4.52 4.52 0 0 0 1.2 -0.37 5.18 5.18 0 0 0 1.06 -0.66 5.8 5.8 0 0 0 0.73 -0.67 4.92 4.92 0 0 0 0.61 -0.83 4.53 4.53 0 0 0 0.34 -0.83 6.19 6.19 0 0 0 0.15 -0.86 5.11 5.11 0 0 0 -0.51 -2.69 6.13 6.13 0 0 0 -1.64 -2.06c-0.62 -0.47 -1.29 -0.87 -1.9 -1.35a5.58 5.58 0 0 1 -1 -1 0.35 0.35 0 0 0 -0.64 0.15 12.28 12.28 0 0 1 -0.44 2 7.75 7.75 0 0 1 -0.44 1.07L5.74 9a0.54 0.54 0 0 0 -0.53 -0.28 0.57 0.57 0 0 0 -0.46 0.38 2.9 2.9 0 0 1 -0.57 1 16 16 0 0 0 -2 2.51 3.77 3.77 0 0 0 -0.26 0.66 4.27 4.27 0 0 0 -0.12 0.7 5 5 0 0 0 0 0.55 4.67 4.67 0 0 0 0.07 0.48Z" fill="#020202" fill-rule="evenodd" stroke-width="1"></path>
    <path d="M7.39 12.88a3.71 3.71 0 0 0 0.7 -0.79A3.52 3.52 0 0 1 9 13.33a1.09 1.09 0 0 1 -0.32 1.21 0.36 0.36 0 0 0 0 0.49 0.35 0.35 0 0 0 0.49 0 1.8 1.8 0 0 0 0.7 -2 6.09 6.09 0 0 0 -1.59 -2.41 0.57 0.57 0 0 0 -0.61 -0.13 0.59 0.59 0 0 0 -0.37 0.5 1.55 1.55 0 0 1 -0.64 1A6.12 6.12 0 0 0 5.4 13.3a1.62 1.62 0 0 0 0.06 1.79 2.14 2.14 0 0 0 0.54 0.61 1.9 1.9 0 0 0 0.39 0.23 3.47 3.47 0 0 0 0.57 0.19 0.3 0.3 0 0 0 0.38 -0.2 0.3 0.3 0 0 0 -0.19 -0.38 3.52 3.52 0 0 1 -0.39 -0.17 1.48 1.48 0 0 1 -0.29 -0.22l-0.29 -0.44a0.81 0.81 0 0 1 0.08 -0.86 7 7 0 0 1 1.13 -0.97Z" fill="#4C57E6" fill-rule="evenodd" stroke-width="1"></path>
    <path d="M0.35 18.23c0.5 0.26 1 0.55 1.44 0.8a5.24 5.24 0 0 0 0.64 0.29q0.33 0.13 0.66 0.24c0.54 0.17 1.08 0.29 1.62 0.42a0.35 0.35 0 0 0 0.45 -0.21 0.35 0.35 0 0 0 -0.16 -0.44c-0.5 -0.26 -1 -0.56 -1.48 -0.81a8 8 0 0 0 -1 -0.45 15 15 0 0 0 -1.88 -0.42 0.3 0.3 0 0 0 -0.38 0.19 0.31 0.31 0 0 0 0.09 0.39Z" fill="#020202" fill-rule="evenodd" stroke-width="1"></path>
    <path d="m15.19 23.34 -1.36 -0.92a8.24 8.24 0 0 0 -1.14 -0.42c-0.58 -0.14 -1.15 -0.17 -1.73 -0.3a0.29 0.29 0 0 0 -0.39 0.17 0.29 0.29 0 0 0 0.16 0.39 11.68 11.68 0 0 0 1.61 0.83c0.35 0.14 0.73 0.22 1.08 0.35l1.5 0.53a0.34 0.34 0 1 0 0.27 -0.63Z" fill="#020202" fill-rule="evenodd" stroke-width="1"></path>
    <path d="M14.37 18.82a0.36 0.36 0 0 0 -0.43 -0.26c-1.67 0.35 -3.37 0.68 -5 1.1 -1.12 0.28 -2.24 0.59 -3.33 1A39.28 39.28 0 0 0 0.26 23a0.31 0.31 0 0 0 -0.14 0.41 0.3 0.3 0 0 0 0.4 0.15c0.88 -0.36 1.77 -0.68 2.67 -1 0.72 -0.24 1.45 -0.44 2.18 -0.66l2.18 -0.66c2.19 -0.68 4.39 -1.36 6.56 -2a0.36 0.36 0 0 0 0.26 -0.42Z" fill="#020202" fill-rule="evenodd" stroke-width="1"></path>
  </g>
</svg>