<svg xmlns="http://www.w3.org/2000/svg" viewBox="0 0 24 24" id="Oversea-Shipment-Crane-Hook--Streamline-Freehand">
  <desc>
    Oversea Shipment Crane Hook Streamline Icon: https://streamlinehq.com
  </desc>
  <g>
    <path d="M19 0.66a0.25 0.25 0 0 0 -0.3 -0.26 0.27 0.27 0 0 0 -0.27 0.26c-0.07 1 -0.2 2.13 -0.35 3.22A20.53 20.53 0 0 1 17.72 6a8.89 8.89 0 0 1 -1.29 3.21 0.29 0.29 0 1 0 0.46 0.36 8.39 8.39 0 0 0 1.77 -3.37A11.07 11.07 0 0 0 19 4a24.31 24.31 0 0 0 0 -3.34Z" fill="#020202" fill-rule="evenodd" stroke-width="1"></path>
    <g>
      <path d="M9.92 5.05c-0.44 0.44 -0.85 0.9 -1.25 1.37 -0.53 0.79 -0.51 1.09 0.29 0.69l0.56 -0.51c0.36 -0.31 0.74 -0.6 1.1 -0.91s0.73 -0.61 1.08 -0.92C12.78 3.83 13.85 2.88 15 2a0.3 0.3 0 0 0 0 -0.43 0.29 0.29 0 0 0 -0.41 -0.06c-0.89 0.57 -1.78 1.15 -2.63 1.78 -0.36 0.27 -0.72 0.55 -1.07 0.84s-0.65 0.6 -0.97 0.92Z" fill="#4C57E6" fill-rule="evenodd" stroke-width="1"></path>
      <path d="M12.19 8c-0.49 0.37 -0.59 0.8 1.2 0l0.66 -0.46 0.95 -0.67 0.88 -0.71c0.68 -0.56 1.33 -1.15 2 -1.75a0.29 0.29 0 0 0 0 -0.41 0.3 0.3 0 0 0 -0.42 0c-0.74 0.52 -1.51 1 -2.25 1.51 -0.49 0.35 -1 0.7 -1.45 1.09A19.91 19.91 0 0 0 12.19 8Z" fill="#4C57E6" fill-rule="evenodd" stroke-width="1"></path>
      <path d="M7.78 4.25c0.33 -0.26 0.66 -0.52 1 -0.8s0.75 -0.7 1.13 -1.05A17.43 17.43 0 0 1 11.62 0.91a0.29 0.29 0 0 0 0.1 -0.4 0.29 0.29 0 0 0 -0.41 -0.1 12 12 0 0 0 -2.24 1.44 11.76 11.76 0 0 0 -1.16 1.07c-0.16 0.17 -0.31 0.35 -0.46 0.52 -0.4 0.56 -0.36 1.16 0.33 0.81Z" fill="#4C57E6" fill-rule="evenodd" stroke-width="1"></path>
      <path d="M18.55 19a0.28 0.28 0 0 0 -0.31 0.27 3.28 3.28 0 0 1 -1.13 2A6.9 6.9 0 0 1 13.93 23a7.93 7.93 0 0 1 -4.64 -0.44 5.61 5.61 0 0 1 -3.12 -3.21 5.28 5.28 0 0 1 0.1 -3.67 6.28 6.28 0 0 1 2.25 -3 6.5 6.5 0 0 1 0.63 -0.37c0.34 -0.17 0.7 -0.32 1 -0.48a4 4 0 0 0 0.61 -0.25 0.39 0.39 0 0 0 0.16 -0.19 2.38 2.38 0 0 0 0.09 -0.68l0 -0.94 0.64 0 1.62 0 0.63 0 -0.23 2.89 -0.32 0.13A8.14 8.14 0 0 0 8.74 16a2.74 2.74 0 0 0 0.82 3.82 4.07 4.07 0 0 0 3.66 0.73A4.59 4.59 0 0 0 16 18.07a1.3 1.3 0 0 1 1 -0.59 1.11 1.11 0 0 1 1.08 0.48 0.29 0.29 0 1 0 0.51 -0.29 1.71 1.71 0 0 0 -1.59 -0.84 2 2 0 0 0 -1.63 0.91A3.81 3.81 0 0 1 13 19.65a3.17 3.17 0 0 1 -2.84 -0.65 1.85 1.85 0 0 1 -0.56 -2.56 7.39 7.39 0 0 1 4 -3 2.35 2.35 0 0 0 0.57 -0.29 0.51 0.51 0 0 0 0.21 -0.37l0.07 -3.07 1.27 -0.05a0.29 0.29 0 0 0 0.28 -0.27 0.31 0.31 0 0 0 -0.28 -0.31c-0.79 -0.1 -1.58 -0.2 -2.38 -0.25a15.31 15.31 0 0 0 -2 0c-0.8 0 -1.58 0.13 -2.38 0.19a0.27 0.27 0 0 0 -0.19 0.1c-0.13 -0.23 -0.25 -0.48 -0.37 -0.72a7.68 7.68 0 0 1 -0.46 -1c-0.16 -0.4 -0.33 -0.81 -0.47 -1.23 0 -0.1 -0.74 -2.54 -0.76 -2.65 -0.08 -0.34 -0.16 -0.68 -0.23 -1v-0.15a14 14 0 0 1 -0.31 -2.1 0.26 0.26 0 0 0 -0.26 -0.27 0.26 0.26 0 0 0 -0.26 0.25 13.9 13.9 0 0 0 0.1 3.4 11.68 11.68 0 0 0 0.33 1.42 11.32 11.32 0 0 0 0.49 1.38 15.41 15.41 0 0 0 1.69 2.94 0.29 0.29 0 0 0 0.41 0.08s0.05 -0.06 0.07 -0.1a0.23 0.23 0 0 0 0.26 0.14l1.54 0.16 0 1a2.1 2.1 0 0 1 0 0.37l-0.49 0.2c-0.37 0.14 -0.74 0.28 -1.1 0.44s-0.49 0.24 -0.73 0.38a7 7 0 0 0 -2.69 3.32 6.09 6.09 0 0 0 -0.19 4.32 6.42 6.42 0 0 0 3.67 3.76 8.64 8.64 0 0 0 5.18 0.34 7.75 7.75 0 0 0 3.48 -2 3.9 3.9 0 0 0 1.24 -2.44 0.28 0.28 0 0 0 -0.36 -0.36Z" fill="#020202" fill-rule="evenodd" stroke-width="1"></path>
    </g>
  </g>
</svg>