<svg xmlns="http://www.w3.org/2000/svg" viewBox="0 0 24 24" id="Oversea-Shipment-Crane--Streamline-Freehand">
  <desc>
    Oversea Shipment Crane Streamline Icon: https://streamlinehq.com
  </desc>
  <g>
    <path d="M9.26 17.94c0 -0.09 -0.23 -1.25 -0.24 -1.3a0.25 0.25 0 0 0 0.09 0 8.17 8.17 0 0 0 1.12 0.11l1.6 0h0.76l3.19 -0.09 0 0.65a7.89 7.89 0 0 1 -0.09 0.85 8.05 8.05 0 0 0 -1 -0.21l-0.66 0a30.79 30.79 0 0 0 -4.77 -0.01Zm6.5 -3.36c0.06 0.45 0.13 0.9 0.18 1.36a0.33 0.33 0 0 0 -0.16 -0.07c-0.88 -0.08 -1.73 -0.28 -2.6 -0.36l-0.63 0 -0.88 0 -0.43 0.05c-0.56 0.1 -1.11 0.27 -1.67 0.34l-0.36 0v-0.18c0 -0.36 0.08 -0.71 0.13 -1.06 2.66 0.06 4.95 0.27 6.42 -0.08Zm-6 -1 -0.24 0 -0.12 0.05 0 -0.35 0 -0.94c0 -0.15 0 -0.3 -0.06 -0.45a3 3 0 0 0 0.32 0.1 2.45 2.45 0 0 0 0.38 0s4.31 0.07 4.69 0a9.24 9.24 0 0 0 0.91 -0.21l0 1.13 0 0.62a0.22 0.22 0 0 0 0 0.08l-0.64 -0.02a3 3 0 0 0 -0.43 -0.05h-0.43a26.15 26.15 0 0 1 -4.34 0.03ZM3 17.86c-0.13 0 -0.25 -0.05 -0.39 -0.06a2.61 2.61 0 0 0 -0.39 0 3.23 3.23 0 0 0 -0.47 0.14c0 -0.24 -0.06 -0.47 -0.07 -0.71a0.32 0.32 0 0 0 -0.28 -0.36 0.33 0.33 0 0 0 -0.36 0.29 10.5 10.5 0 0 0 -0.23 1.59l0 1.53c0 0.53 0 1.21 0.07 1.82A9 9 0 0 0 1 23.4c0 0.37 0.23 0.29 2.18 0.51 0.34 0 0.7 0.07 1 0.08s0.69 0 1 0c4.08 -0.22 1.58 -0.5 5.35 -0.07 0.35 0 0.7 0.07 1 0.08s0.7 0 1 0c1 -0.05 2.07 -0.2 3.12 -0.29 0 0 0.82 -0.38 0.82 -0.66l0.16 -3v-0.87c0 -0.29 0 -0.59 -0.07 -0.89 -0.06 -0.61 0 -3.92 0.07 -5.23l0 -0.87c0 -0.29 0 -0.59 -0.06 -0.89a9.74 9.74 0 0 0 -0.33 -1.79c0 -0.07 -0.45 -0.6 -0.66 -0.6 -0.87 -0.08 -1.72 -0.28 -2.59 -0.36a8.94 8.94 0 0 0 -1.16 0c-0.26 0 -0.52 0 -0.78 0.08 -0.56 0.1 -1.11 0.27 -1.67 0.34A5.65 5.65 0 0 1 9 9a0.32 0.32 0 0 0 -0.07 0.64 7.16 7.16 0 0 0 1.3 0.13l1.6 0 0.76 0 3.19 -0.09 0 0.65a7.89 7.89 0 0 1 -0.09 0.85 8.43 8.43 0 0 0 -1 -0.2 41.35 41.35 0 0 0 -4.64 -0.08 1.26 1.26 0 0 0 -0.39 0 2.62 2.62 0 0 0 -0.48 0.13 5.67 5.67 0 0 1 -0.06 -0.71 0.33 0.33 0 0 0 -0.29 -0.36 0.33 0.33 0 0 0 -0.36 0.29 9.36 9.36 0 0 0 -0.22 1.59c0 0.51 0 1 -0.06 1.53s0 1.21 0.07 1.82c0 0.26 0.07 0.52 0.11 0.77a0.15 0.15 0 0 0 -0.07 0c-0.88 -0.08 -1.72 -0.28 -2.59 -0.36a9.1 9.1 0 0 0 -1.17 0 5 5 0 0 0 -0.77 0.08c-0.57 0.1 -1.11 0.27 -1.68 0.34a5.28 5.28 0 0 1 -0.58 0 0.32 0.32 0 0 0 -0.35 0.29 0.33 0.33 0 0 0 0.29 0.35 7 7 0 0 0 1.3 0.13l1.6 0h0.76l3.19 -0.09v0.65c0 0.29 -0.06 0.57 -0.09 0.85a8.9 8.9 0 0 0 -1 -0.21A30.23 30.23 0 0 0 3 17.86Zm-0.23 2.74a3.13 3.13 0 0 0 -0.43 0l-0.23 0 -0.11 0.04 0 -0.35c0 -0.31 0 -0.63 -0.05 -0.94s0 -0.3 -0.07 -0.45a3.18 3.18 0 0 0 0.33 0.1l0.38 0A2.31 2.31 0 0 0 3 19a17.77 17.77 0 0 1 3.6 0.06 5.58 5.58 0 0 0 0.71 0 5.83 5.83 0 0 0 0.92 -0.21l0 1.13 0 0.62a0.22 0.22 0 0 1 0 0.08c-0.22 0 -0.43 -0.1 -0.67 -0.14a2 2 0 0 0 -0.42 0 3.23 3.23 0 0 0 -0.44 0ZM1.94 23l-0.19 0a2.81 2.81 0 0 1 0 -0.29c0 -0.36 0.08 -0.71 0.13 -1.06l0.44 0.12a25.12 25.12 0 0 1 4.27 -0.08 3.26 3.26 0 0 0 0.45 0.05 3.4 3.4 0 0 0 0.45 0 6.38 6.38 0 0 0 0.76 -0.15l0 0.54c0 0.18 0.07 0.56 0.11 0.84 -1.05 -0.08 -2.09 -0.18 -3.13 -0.2h-0.17m5.15 -2.16a2.85 2.85 0 0 0 -0.42 0l-0.24 0 -0.12 0.05 0 -0.35c0 -1.09 0 -0.68 -0.08 -1.38 0.1 0 0.19 0.07 0.29 0.09L10 19a2.43 2.43 0 0 0 0.38 0 27.84 27.84 0 0 0 4.31 0 5.47 5.47 0 0 0 0.91 -0.21l0 1.13 0 0.62 0 0.08 -0.6 -0.04a2 2 0 0 0 -0.42 0 3.23 3.23 0 0 0 -0.44 0 10.11 10.11 0 0 1 -3.93 0.02Zm1.46 2.18c-0.34 0 -0.68 0.06 -1 0.1s-0.82 0 -1.26 0.09l-0.18 0.02 0 -0.83 0.06 -0.52 0.44 0.12 4.72 0a3.55 3.55 0 0 0 0.46 0 7.55 7.55 0 0 0 0.8 -0.16c0.07 0.47 0.14 0.95 0.19 1.43l-0.1 0c-1.05 -0.08 -2.08 -0.18 -3.13 -0.2h-0.2" fill="#4C57E6" fill-rule="evenodd" stroke-width="1"></path>
    <path d="M19 13.91c0 -1.08 -0.06 -2.16 -0.07 -3.25 0 -0.69 -0.08 -1.42 -0.09 -2.13l0 -0.88a0.32 0.32 0 0 0 -0.63 -0.09 7.52 7.52 0 0 0 -0.11 0.94c-0.06 0.71 -0.06 1.44 -0.13 2.13s-0.15 1.63 -0.18 2.45l0 1.64c0 1.36 0.08 2.72 0.16 4.09 0.06 0.8 0.16 1.64 0.21 2.48a14.65 14.65 0 0 1 0 1.62 0.36 0.36 0 0 0 0.33 0.4 0.38 0.38 0 0 0 0.4 -0.33 15.68 15.68 0 0 0 0.11 -1.71l0 -2.5 0 -2.43 0 -2.43Z" fill="#020202" fill-rule="evenodd" stroke-width="1"></path>
    <path d="M21.08 12.34 20.91 9V7.84a0.33 0.33 0 0 0 -0.26 -0.38 0.32 0.32 0 0 0 -0.37 0.26L20.15 9c0 0.57 -0.09 1.12 -0.12 1.68S20 11.8 20 12.37l0 1.62 0 2.47c0 0.6 0 1.19 0.08 1.79 0.08 0.92 0.22 1.84 0.3 2.77a10.82 10.82 0 0 1 0 1.8 0.37 0.37 0 0 0 0.73 0.08 12.18 12.18 0 0 0 0.03 -1.9c0 -0.93 -0.06 -1.86 -0.06 -2.79 0 -1.36 0.07 -2.72 0.07 -4.08 0 -0.61 -0.04 -1.2 -0.07 -1.79Z" fill="#020202" fill-rule="evenodd" stroke-width="1"></path>
    <path d="m22.89 4.06 -2.16 0a0.37 0.37 0 0 0 0.09 -0.2 10.07 10.07 0 0 0 0.08 -1.75 3.64 3.64 0 0 0 -0.31 -1.22A1.46 1.46 0 0 0 19.13 0a1.54 1.54 0 0 0 -1.24 1.11 3.72 3.72 0 0 0 -0.14 1.06c0 0.65 0.16 1.31 0.23 1.93l-2.93 0c-0.71 0 -2.55 -0.1 -4.39 -0.14l0.42 -0.12c0.76 -0.23 1.5 -0.49 2.23 -0.78a27.41 27.41 0 0 0 3.58 -1.76 0.37 0.37 0 0 0 0.17 -0.49 0.38 0.38 0 0 0 -0.49 -0.17c-1.09 0.45 -2.19 0.78 -3.29 1.15 -0.75 0.24 -1.5 0.48 -2.23 0.76a31.19 31.19 0 0 0 -3 1.4A10.75 10.75 0 0 0 6 4.17a3.63 3.63 0 0 0 -1.69 1.61 1 1 0 0 0 0.53 1.44 21.12 21.12 0 0 0 3.74 0.12c4.29 -0.1 11.3 -0.46 13.92 -0.6a0.36 0.36 0 0 0 0.35 -0.38 0.35 0.35 0 0 0 -0.37 -0.36c-2 0 -6.5 0.1 -10.44 0.13l-5.55 0 -0.92 0a0.61 0.61 0 0 1 0.09 -0.18 2 2 0 0 1 0.65 -0.57 13.86 13.86 0 0 1 2.51 -0.22c2.3 -0.16 5.28 -0.1 6.23 -0.16 1.32 0 2.63 0 3.95 -0.08s2.63 -0.12 3.94 -0.22a0.32 0.32 0 0 0 0.3 -0.34 0.32 0.32 0 0 0 -0.35 -0.3ZM19 4.12h-0.3c0 -0.51 0 -1.06 0.09 -1.6a2.89 2.89 0 0 1 0.25 -1c0.07 -0.17 0.15 -0.29 0.28 -0.31s0.2 0.07 0.28 0.21a2.64 2.64 0 0 1 0.35 0.85 9.77 9.77 0 0 1 0.17 1.59 0.39 0.39 0 0 0 0.08 0.22Z" fill="#020202" fill-rule="evenodd" stroke-width="1"></path>
  </g>
</svg>