<svg xmlns="http://www.w3.org/2000/svg" fill="none" viewBox="0 0 24 24" id="Package-Size-S--Streamline-Freehand">
  <desc>
    Package Size S Streamline Icon: https://streamlinehq.com
  </desc>
  <path fill="#020202" fill-rule="evenodd" d="m2.39475 5.35232 0.00003 -0.00007 0.00004 -0.00009c1.18254 -2.81931 1.60037 -3.81548 2.65236 -3.99987 0.07421 -0.01237 3.05198 -0.05812 6.12822 -0.10162 -0.1391 0.92745 -0.1232 2.2615 -0.1153 2.92586 0.0014 0.11742 0.0025 0.21393 0.0025 0.28356 -0.054 0.59167 0.0144 1.18467 0.197 1.74319 -3.12765 -0.00572 -6.41353 0.04864 -7.62902 0.22267 -0.71762 0.10301 -1.35138 0.218 -1.87241 0.43436 0.23591 -0.55275 0.44616 -1.054 0.63658 -1.50799Zm9.97535 0.85548c2.2584 0.0142 4.2853 0.05728 5.183 0.10522l0.1911 0.01012c1.2845 0.06769 3.164 0.16672 4.4343 0.67391 -0.8343 -1.90694 -1.7991 -3.75443 -2.888 -5.52924 -0.0169 -0.00947 -0.033 -0.02018 -0.0481 -0.03203l-0.0579 -0.01992c-0.2638 -0.0912 -0.6431 -0.22232 -1.2312 -0.25345 -0.046 -0.00236 -2.7509 0.03223 -5.6724 0.07277 0.1156 0.7833 0.1073 2.03343 0.096 3.74769 -0.0026 0.38492 -0.0053 0.79324 -0.0068 1.22493ZM18.056 0.210285c0.427 0.07174 1.244 0.275893 1.6126 0.591322 0.5504 0.168343 1.0335 0.506653 1.3799 0.966483 1.1272 1.78792 1.8846 3.78365 2.2275 5.86925 0.0102 0.04019 0.0136 0.08137 0.0106 0.12198 0.016 0.02143 0.0313 0.04319 0.0459 0.06529 0.7032 1.08557 0.7648 13.88909 -0.3695 15.06709 -1.2832 1.3601 -20.34351 1.5834 -21.81403 0.0205C0.0899163 21.8151 0.0151218 11.308 0.302594 8.79627c-0.171259 -0.24822 0.024429 -0.88073 0.648662 -2.7347 0.096564 -0.28676 0.190394 -0.57441 0.283574 -0.8601C2.03315 2.75384 2.78469 0.449657 4.81621 0.0819599 5.76063 -0.0874194 16.9884 0.0306407 18.056 0.210285ZM2.09075 22.0294c6.62525 0.9213 13.34615 0.9213 19.97135 0v-0.0051c0.5669 -4.031 0.8226 -8.0995 0.7648 -12.1697 -0.0546 -2.40256 -0.7554 -2.38702 -3.8871 -2.31755h-0.0001c-0.6952 0.01542 -1.5102 0.03349 -2.4645 0.02837 -1.0853 -0.00639 -2.1905 -0.02178 -3.2839 -0.037 -5.05741 -0.07041 -9.85904 -0.13725 -11.23909 0.70682 -1.031677 0.63645 -0.31314 12.48276 0.13854 13.79416Z" clip-rule="evenodd" stroke-width="1"></path>
  <path fill="#4C57E6" fill-rule="evenodd" d="M14.1422 11.9334c-1.5116 -1.3679 -4.56814 -0.8623 -4.40902 1.4962 0.16681 2.4226 3.26182 1.0907 3.68532 3.2618 0.3336 1.8683 -2.4021 2.3405 -3.78792 0.9624 -0.03112 -0.0424 -0.07069 -0.0779 -0.11615 -0.1043 -0.04546 -0.0264 -0.09587 -0.0432 -0.1481 -0.0492 -0.05223 -0.0061 -0.10516 -0.0013 -0.15546 0.014 -0.0503 0.0153 -0.09692 0.0409 -0.1369 0.075 -0.03999 0.0342 -0.07247 0.0762 -0.09547 0.1235 -0.02301 0.0473 -0.03602 0.0988 -0.03822 0.1513 -0.0022 0.0525 0.00647 0.105 0.02545 0.154s0.04783 0.0936 0.08482 0.131c0.34212 0.4798 0.79837 0.8669 1.32755 1.1263 0.5291 0.2595 1.1145 0.383 1.7033 0.3596 0.6701 -0.0401 1.3034 -0.3197 1.7846 -0.7877 0.4812 -0.468 0.7783 -1.0933 0.8371 -1.762 0.0587 -0.6686 -0.1247 -1.3362 -0.5169 -1.881 -0.3921 -0.5447 -0.967 -0.9305 -1.6198 -1.0869 -0.7699 -0.2567 -1.4986 -0.2233 -1.5397 -0.7699 -0.0693 -0.9111 0.8854 -0.8598 1.781 -0.7828 0.1566 0 0.8187 0.0205 0.9804 0.0539 0.0908 0.047 0.1966 0.0559 0.294 0.0249 0.0975 -0.0311 0.1786 -0.0996 0.2256 -0.1904 0.047 -0.0909 0.056 -0.1967 0.0249 -0.2941 -0.031 -0.0975 -0.0995 -0.1786 -0.1904 -0.2256Z" clip-rule="evenodd" stroke-width="1"></path>
</svg>