<svg xmlns="http://www.w3.org/2000/svg" viewBox="0 0 24 24" id="Paginate-Filter-9--Streamline-Freehand">
  <desc>
    Paginate Filter 9 Streamline Icon: https://streamlinehq.com
  </desc>
  <g>
    <path d="M23.78 6.86c0 -1.62 -0.08 -3.08 -0.19 -4.08a3.14 3.14 0 0 0 -0.59 -1.5 2.1 2.1 0 0 0 -1.43 -0.86A64.43 64.43 0 0 0 12.68 0a30.47 30.47 0 0 0 -6 0.55 3.75 3.75 0 0 0 -1.62 1 2.57 2.57 0 0 0 -0.58 1.25 38.29 38.29 0 0 0 -0.23 5.85 72.76 72.76 0 0 0 0.61 8.67 2 2 0 0 0 0.81 1.25 4 4 0 0 0 1.85 0.7 29.12 29.12 0 0 0 3.88 0.16c3 0 6.67 -0.21 8.92 -0.27a0.34 0.34 0 0 0 0 -0.67c-2.25 0 -5.93 0.14 -8.91 0.11a27.28 27.28 0 0 1 -3.74 -0.21A3.29 3.29 0 0 1 6.43 18a1.2 1.2 0 0 1 -0.64 -0.8 66.58 66.58 0 0 1 -0.44 -7.11A45.89 45.89 0 0 1 5.6 3a1.41 1.41 0 0 1 0.49 -0.81A2.42 2.42 0 0 1 7 1.67a29.82 29.82 0 0 1 5.72 -0.53 67 67 0 0 1 8.72 0.28 1.19 1.19 0 0 1 0.83 0.45 2.14 2.14 0 0 1 0.38 1c0.14 1 0.22 2.4 0.28 4 0.12 3.38 0.1 7.46 0.13 9.42a2.71 2.71 0 0 1 -0.31 1.32 1.12 1.12 0 0 1 -0.91 0.7 0.3 0.3 0 0 0 -0.3 0.29 0.31 0.31 0 0 0 0.29 0.31 1.59 1.59 0 0 0 1.28 -0.71 3.2 3.2 0 0 0 0.6 -1.92c0 -1.95 0.11 -6.03 0.07 -9.42Z" fill="#020202" fill-rule="evenodd" stroke-width="1"></path>
    <path d="M19.31 20.74a0.33 0.33 0 0 0 -0.39 0.28c-0.08 0.39 -0.16 0.71 -0.24 1s-0.2 0.55 -0.35 0.59a32.23 32.23 0 0 1 -6.22 0.44 74.29 74.29 0 0 1 -9.41 -0.46 1.17 1.17 0 0 1 -0.79 -0.46 2.11 2.11 0 0 1 -0.35 -1c-0.18 -1.29 -0.26 -3.33 -0.32 -5.49 -0.08 -3.22 -0.12 -6.64 -0.16 -8.4a3 3 0 0 1 0.29 -1.36 1.16 1.16 0 0 1 0.92 -0.74 0.3 0.3 0 1 0 0 -0.59A1.59 1.59 0 0 0 1 5.28a3.42 3.42 0 0 0 -0.61 2c0 2 -0.2 6.24 -0.16 9.74a42.09 42.09 0 0 0 0.2 4.22A3.54 3.54 0 0 0 1 22.78a2.25 2.25 0 0 0 1.55 0.91 68.22 68.22 0 0 0 8 0.3 39 39 0 0 0 8 -0.7 1.06 1.06 0 0 0 0.65 -0.63 5.2 5.2 0 0 0 0.41 -1.53 0.33 0.33 0 0 0 -0.3 -0.39Z" fill="#4C57E6" fill-rule="evenodd" stroke-width="1"></path>
    <path d="M14.89 15c0 0.36 0.25 0.41 0.38 0.38a0.46 0.46 0 0 0 0.27 -0.23 2.82 2.82 0 0 0 0.17 -0.7l0.51 -2.16A12.8 12.8 0 0 0 16.73 8a3.27 3.27 0 0 0 -1.91 -2.59c-2 -0.9 -3.37 0.69 -3.62 2.48a2.93 2.93 0 0 0 0.85 2.74 2 2 0 0 0 2 0.16 2.43 2.43 0 0 0 0.52 -0.3c0.31 -0.24 0.57 -0.55 0.86 -0.81a0.34 0.34 0 1 0 -0.43 -0.55c-0.25 0.2 -0.48 0.45 -0.74 0.65a1.61 1.61 0 0 1 -0.46 0.26 1.23 1.23 0 0 1 -1.2 -0.11A2 2 0 0 1 12.2 8c0.2 -1.09 0.93 -2.19 2.14 -1.6a2.28 2.28 0 0 1 1.31 1.75 12.76 12.76 0 0 1 -0.22 4 21.93 21.93 0 0 1 -0.54 2.85Z" fill="#020202" fill-rule="evenodd" stroke-width="1"></path>
  </g>
</svg>