<svg xmlns="http://www.w3.org/2000/svg" viewBox="0 0 24 24" id="Paginate-Filter-Plus--Streamline-Freehand">
  <desc>
    Paginate Filter Plus Streamline Icon: https://streamlinehq.com
  </desc>
  <g>
    <path d="M23.78 6.86c0 -1.62 -0.08 -3.08 -0.19 -4.08a3.14 3.14 0 0 0 -0.59 -1.5 2.1 2.1 0 0 0 -1.43 -0.86A64.43 64.43 0 0 0 12.68 0a30.47 30.47 0 0 0 -6 0.55 3.81 3.81 0 0 0 -1.62 1 2.57 2.57 0 0 0 -0.58 1.25 38.29 38.29 0 0 0 -0.23 5.85 72.76 72.76 0 0 0 0.61 8.67 1.94 1.94 0 0 0 0.81 1.25 4 4 0 0 0 1.85 0.7 29.12 29.12 0 0 0 3.88 0.16c3 0 6.67 -0.21 8.92 -0.27a0.34 0.34 0 0 0 0 -0.67c-2.25 0 -5.93 0.14 -8.91 0.11a27.28 27.28 0 0 1 -3.74 -0.21A3.29 3.29 0 0 1 6.43 18a1.2 1.2 0 0 1 -0.64 -0.8 66.58 66.58 0 0 1 -0.44 -7.11A46.09 46.09 0 0 1 5.6 3a1.42 1.42 0 0 1 0.49 -0.8A2.58 2.58 0 0 1 7 1.67a29.82 29.82 0 0 1 5.72 -0.53 67 67 0 0 1 8.72 0.28 1.17 1.17 0 0 1 0.83 0.45 2.14 2.14 0 0 1 0.38 1c0.14 1 0.22 2.4 0.28 4 0.12 3.38 0.1 7.46 0.13 9.42a2.71 2.71 0 0 1 -0.31 1.32 1.12 1.12 0 0 1 -0.91 0.7 0.3 0.3 0 0 0 -0.3 0.29 0.31 0.31 0 0 0 0.29 0.31 1.59 1.59 0 0 0 1.28 -0.71 3.2 3.2 0 0 0 0.6 -1.92c0.01 -1.95 0.11 -6.03 0.07 -9.42Z" fill="#020202" fill-rule="evenodd" stroke-width="1"></path>
    <path d="M19.31 20.74a0.33 0.33 0 0 0 -0.39 0.27 6.38 6.38 0 0 1 -0.24 1c-0.12 0.34 -0.2 0.55 -0.35 0.59a32.16 32.16 0 0 1 -6.22 0.44 74.29 74.29 0 0 1 -9.41 -0.46 1.17 1.17 0 0 1 -0.79 -0.46 2.22 2.22 0 0 1 -0.35 -1c-0.18 -1.29 -0.26 -3.33 -0.32 -5.49 -0.08 -3.21 -0.12 -6.63 -0.16 -8.39a3 3 0 0 1 0.29 -1.36 1.16 1.16 0 0 1 0.92 -0.74 0.3 0.3 0 1 0 0 -0.59A1.6 1.6 0 0 0 1 5.27a3.47 3.47 0 0 0 -0.61 2c0 2 -0.2 6.24 -0.16 9.74a42.09 42.09 0 0 0 0.2 4.22A3.54 3.54 0 0 0 1 22.78a2.25 2.25 0 0 0 1.55 0.91 68.22 68.22 0 0 0 8 0.3 39 39 0 0 0 8 -0.7 1.06 1.06 0 0 0 0.65 -0.63 5.48 5.48 0 0 0 0.42 -1.53 0.34 0.34 0 0 0 -0.31 -0.39Z" fill="#4C57E6" fill-rule="evenodd" stroke-width="1"></path>
    <path d="M19.21 11.24a2.35 2.35 0 0 0 0.58 -0.17 0.81 0.81 0 0 0 0.3 -0.31 6.39 6.39 0 0 0 0 -2.34 2.11 2.11 0 0 0 -0.19 -0.6 0.67 0.67 0 0 0 -0.34 -0.32 2.54 2.54 0 0 0 -0.56 -0.1 5.65 5.65 0 0 0 -1.09 -0.05c-0.58 0 -1.21 0.07 -1.53 0.12l-0.18 0a1.72 1.72 0 0 0 0 -0.18L16 5.18a4 4 0 0 0 -0.06 -0.7 0.46 0.46 0 0 0 -0.25 -0.32 0.54 0.54 0 0 0 -0.27 -0.06 2.6 2.6 0 0 0 -0.45 0.08c-0.29 0 -1.79 0.15 -2.4 0.23a1.16 1.16 0 0 0 -0.46 0.15 0.42 0.42 0 0 0 -0.11 0.22 2.55 2.55 0 0 0 0 0.41l0 2.2a0.3 0.3 0 0 0 0.3 0.3 0.29 0.29 0 0 0 0.3 -0.3l0 -2.2V5.1c0.64 0 2.09 -0.11 2.37 -0.14h0.16l0 0.28 0 2.76a0.53 0.53 0 0 0 0.14 0.23 0.86 0.86 0 0 0 0.48 0.22 2.61 2.61 0 0 0 0.64 0 13.16 13.16 0 0 1 1.41 -0.06 4.82 4.82 0 0 1 0.87 0.06l0.21 0.08a0.66 0.66 0 0 1 0 0.21c0 0.31 0 0.64 0.05 0.92v0.5s-2.06 0.13 -2.16 0.15a1.79 1.79 0 0 0 -0.73 0.23 0.78 0.78 0 0 0 -0.3 0.4 3.81 3.81 0 0 0 -0.05 0.64l0 2.3c0 0.07 -0.07 0.21 -0.07 0.3a8.47 8.47 0 0 0 -2.17 0c-0.45 0.21 -0.23 -1.68 -0.26 -1.88a4.49 4.49 0 0 0 -0.08 -0.78 0.9 0.9 0 0 0 -0.21 -0.36 0.77 0.77 0 0 0 -0.29 -0.17 5.11 5.11 0 0 0 -0.55 0c-0.63 -0.09 0.14 0.08 -3.2 -0.12a1.61 1.61 0 0 1 0 -0.22c0 -0.29 0.1 -0.6 0.12 -0.8a2.23 2.23 0 0 1 0.06 -0.64 0.36 0.36 0 0 1 0.37 -0.21 2.78 2.78 0 0 1 0.76 -0.17 8.8 8.8 0 0 1 1.3 -0.08 0.34 0.34 0 0 0 0.36 -0.32 0.35 0.35 0 0 0 -0.32 -0.36 9.53 9.53 0 0 0 -1.42 0.05 3.18 3.18 0 0 0 -1 0.22 1.08 1.08 0 0 0 -0.55 0.52 3.28 3.28 0 0 0 -0.15 0.87 9.12 9.12 0 0 0 -0.15 1 1.24 1.24 0 0 0 0.1 0.6 0.59 0.59 0 0 0 0.27 0.27c0.15 0.08 0.4 0.05 0.56 0.11a22.85 22.85 0 0 0 2.93 0.19l0.21 0.07a3 3 0 0 0 0.1 0.49 12.81 12.81 0 0 0 0.18 1.88 1 1 0 0 0 0.54 0.76 12.56 12.56 0 0 0 3.06 0.08 1 1 0 0 0 0.53 -0.23 0.9 0.9 0 0 0 0.2 -0.35 3.08 3.08 0 0 0 0.09 -0.72l0 -2.19 0 -0.22Z" fill="#020202" fill-rule="evenodd" stroke-width="1"></path>
  </g>
</svg>