<svg xmlns="http://www.w3.org/2000/svg" viewBox="0 0 24 24" id="Paragraphs-Indent--Streamline-Freehand">
  <desc>
    Paragraphs Indent Streamline Icon: https://streamlinehq.com
  </desc>
  <g>
    <path d="m1.32 10.4 0.44 -0.4c0.66 -0.62 1.92 -1.79 2.78 -2.76A5.73 5.73 0 0 0 5.65 5.6a0.78 0.78 0 0 0 -0.1 -0.52A6.15 6.15 0 0 0 5 4.23a20.24 20.24 0 0 0 -3 -3.06 0.4 0.4 0 0 0 -0.57 0.07 0.39 0.39 0 0 0 0.07 0.56 23.41 23.41 0 0 1 2.68 3.61 2 2 0 0 1 -0.11 0.2c-0.23 0.32 -0.57 0.73 -0.92 1.19 -0.71 0.94 -1.51 2 -2 2.63 -0.16 0.19 -0.39 0.33 -0.34 0.39a0.38 0.38 0 0 0 -0.15 0.2c-0.04 0.23 0.16 0.75 0.66 0.38Zm0 -0.43Z" fill="#020202" fill-rule="evenodd" stroke-width="1"></path>
    <path d="M8.66 1.19c1.67 0.07 3.33 0.17 5 0.22l2.14 0h2.09c1.06 0 2.11 -0.07 3.17 -0.12l2.09 -0.14a0.39 0.39 0 0 0 0.39 -0.41 0.39 0.39 0 0 0 -0.41 -0.39L21.06 0.32 15.81 0.08l-2.16 0c-1.67 0.07 -3.33 0.23 -5 0.36a0.36 0.36 0 0 0 -0.35 0.4 0.36 0.36 0 0 0 0.36 0.35Z" fill="#4C57E6" fill-rule="evenodd" stroke-width="1"></path>
    <path d="m8.17 6.34 0.13 0 0.49 0.16 1 0.2a6.64 6.64 0 0 0 0.88 0.12c0.67 0.06 1.33 0.06 2 0.1l1.42 0c0.91 0 1.82 -0.17 2.73 -0.28a20.86 20.86 0 0 1 2.62 -0.2l3 0.07 1.25 -0.2a0.39 0.39 0 0 0 0.31 -0.44 0.41 0.41 0 0 0 -0.48 -0.32l-1.08 0.09 -2.93 -0.34a15.15 15.15 0 0 0 -2.13 0c-0.95 0.06 -1.91 0.19 -2.86 0.3 -0.61 0.07 -1.22 0.15 -1.84 0.18s-1.12 0.09 -1.68 0.11a7.79 7.79 0 0 1 -1.08 0l-1 -0.1c-0.62 -0.12 -0.56 -0.15 -0.7 -0.12A0.32 0.32 0 0 0 7.9 6a0.37 0.37 0 0 0 0.27 0.34Z" fill="#4C57E6" fill-rule="evenodd" stroke-width="1"></path>
    <path d="m8 11.82 0.14 0 0.46 0.18 1 0.21a8.66 8.66 0 0 0 0.89 0.12c0.66 0.06 1.33 0.06 2 0.1a13.26 13.26 0 0 0 1.41 0c0.91 0 1.82 -0.16 2.73 -0.27a21.15 21.15 0 0 1 2.62 -0.2l3 0.07 1.25 -0.2a0.42 0.42 0 0 0 0.32 -0.48 0.4 0.4 0 0 0 -0.48 -0.31l-1.09 0.09 -2.92 -0.34a15 15 0 0 0 -2.12 0c-1 0.06 -1.91 0.19 -2.86 0.3 -0.61 0.07 -1.22 0.15 -1.84 0.17s-1.12 0.09 -1.69 0.12a9.55 9.55 0 0 1 -1.07 0l-1 -0.1c-0.74 -0.14 -0.6 -0.15 -0.7 -0.13a0.33 0.33 0 0 0 -0.29 0.4 0.39 0.39 0 0 0 0.24 0.27Z" fill="#4C57E6" fill-rule="evenodd" stroke-width="1"></path>
    <path d="m0.56 17.75 0.65 0.14 1.54 0.2a16.58 16.58 0 0 0 1.73 0.14c0.85 0 1.7 0.05 2.55 0.08l2.08 0c1.37 0 2.73 -0.17 4.1 -0.28s2.67 -0.21 4 -0.2l4.46 0.07 1.81 -0.19a0.42 0.42 0 0 0 0.35 -0.46 0.41 0.41 0 0 0 -0.46 -0.34l-1.7 0.09 -4.42 -0.34q-1.56 -0.09 -3.12 0c-1.44 0.06 -2.87 0.19 -4.3 0.3 -0.92 0.04 -1.83 0.12 -2.83 0.14s-1.7 0.09 -2.55 0.12l-1.66 0 -1.55 -0.1C0.1 17 0.4 17 0.31 17a0.34 0.34 0 0 0 -0.3 0.26 0.36 0.36 0 0 0 0.07 0.32 0.43 0.43 0 0 0 0.24 0.13Z" fill="#020202" fill-rule="evenodd" stroke-width="1"></path>
    <path d="m23.48 22.5 -1.71 0.09 -4.41 -0.34c-1.05 -0.06 -2.09 -0.07 -3.13 0 -1.43 0.06 -2.86 0.19 -4.3 0.3 -0.93 0.07 -1.87 0.15 -2.82 0.18s-1.69 0.09 -2.54 0.11l-1.66 0 -1.55 -0.1C0.24 22.56 0.2 22.53 0.1 22.85a0.31 0.31 0 0 0 0.07 0.31 0.39 0.39 0 0 0 0.23 0.14l0.24 0 0.66 0.14 1.53 0.21c0.58 0.07 1.15 0.11 1.73 0.14l2.55 0.07 2.09 0c1.36 0 2.73 -0.17 4.09 -0.27s2.68 -0.22 4 -0.2l4.45 0.07 1.82 -0.2a0.4 0.4 0 0 0 0.34 -0.46 0.4 0.4 0 0 0 -0.42 -0.3Z" fill="#020202" fill-rule="evenodd" stroke-width="1"></path>
  </g>
</svg>