<svg xmlns="http://www.w3.org/2000/svg" viewBox="0 0 24 24" id="Paragraphs-Indent-Last-Line--Streamline-Freehand">
  <desc>
    Paragraphs Indent Last Line Streamline Icon: https://streamlinehq.com
  </desc>
  <g>
    <path d="M1 2.4c2.23 0.06 4.45 0.15 6.69 0.2l2.86 0h2.81c1.41 0 2.81 -0.06 4.23 -0.1l2.79 -0.12a0.36 0.36 0 0 0 0.35 -0.38 0.35 0.35 0 0 0 -0.36 -0.35l-2.78 -0.05 -7 -0.21 -2.87 0c-2.24 0.07 -4.47 0.21 -6.7 0.32a0.32 0.32 0 0 0 -0.31 0.32 0.31 0.31 0 0 0 0.29 0.37Z" fill="#020202" stroke-width="1"></path>
    <path d="m0.42 7 0.21 0 0.58 0.12 1.37 0.19c0.51 0.06 1 0.1 1.54 0.12l2.27 0.07 1.85 0c1.21 0 2.43 -0.15 3.64 -0.25s2.38 -0.19 3.58 -0.18l4 0.07L21 7a0.36 0.36 0 1 0 -0.09 -0.71l-1.52 0.08 -3.93 -0.3c-0.92 0 -1.85 -0.06 -2.78 0 -1.27 0 -2.54 0.16 -3.82 0.26 -0.83 0.06 -1.67 0.14 -2.5 0.16s-1.51 0.08 -2.27 0.1l-1.47 0 -1.36 -0.13 -0.44 -0.06 -0.41 -0.05a0.28 0.28 0 0 0 -0.26 0.23 0.28 0.28 0 0 0 0.06 0.28 0.32 0.32 0 0 0 0.21 0.14Z" fill="#020202" stroke-width="1"></path>
    <path d="m0.28 17.05 0.1 0 0.42 0.13 0.85 0.19a6 6 0 0 0 0.74 0.1c0.55 0.06 1.11 0.06 1.66 0.09a11.81 11.81 0 0 0 1.19 0c0.76 -0.05 1.52 -0.15 2.28 -0.24a13.15 13.15 0 0 1 2.17 -0.18l2.49 0.06 1.05 -0.18a0.36 0.36 0 0 0 0.28 -0.43 0.37 0.37 0 0 0 -0.43 -0.27l-0.9 0.08 -2.43 -0.3a10.6 10.6 0 0 0 -1.78 0c-0.8 0.05 -1.6 0.17 -2.39 0.26 -0.51 0.07 -1 0.14 -1.53 0.16s-0.93 0.08 -1.4 0.1a5.29 5.29 0 0 1 -0.89 0 11.34 11.34 0 0 1 -1.47 -0.2 0.29 0.29 0 0 0 -0.25 0.33 0.33 0.33 0 0 0 0.24 0.3Z" fill="#4C57E6" stroke-width="1"></path>
    <path d="M0.59 21.45c-0.05 -0.08 -0.1 -0.13 -0.12 0l0.08 0Z" fill="#4C57E6" stroke-width="1"></path>
    <path d="m13.13 21.33 -0.9 0.07 -2.43 -0.3a11.89 11.89 0 0 0 -1.79 0c-0.79 0.05 -1.59 0.16 -2.38 0.26 -0.51 0.06 -1 0.14 -1.53 0.16s-0.94 0.08 -1.41 0.1a8.81 8.81 0 0 1 -0.89 0l-0.87 -0.09 -0.22 0 -0.08 0 0 0.05 -0.06 -0.06 -0.08 0a0.32 0.32 0 0 0 -0.17 0 0.29 0.29 0 0 0 -0.25 0.33 0.34 0.34 0 0 0 0.25 0.15l0.11 0 0.42 0.14 0.84 0.18a6.46 6.46 0 0 0 0.75 0.11c0.55 0.05 1.11 0.05 1.66 0.09a11.81 11.81 0 0 0 1.19 0c0.76 0 1.52 -0.14 2.27 -0.24a16 16 0 0 1 2.18 -0.18l2.49 0.07 1 -0.18a0.36 0.36 0 0 0 0.27 -0.43 0.35 0.35 0 0 0 -0.37 -0.23ZM0.56 22a0.31 0.31 0 0 0 0.16 -0.24 0.25 0.25 0 0 1 -0.16 0.24Z" fill="#4C57E6" stroke-width="1"></path>
    <path d="M22.43 12.33a4.84 4.84 0 0 0 -2.64 -1.24 35.12 35.12 0 0 0 -6.08 -0.24c-2.53 0 -7.34 0.14 -10.65 0.25 -1.61 0.06 -3.12 -0.1 -3.06 0.69 0.08 1.13 1.66 0.2 13.7 0.25a43 43 0 0 1 5.06 0.12 4.41 4.41 0 0 1 2.73 1c1.45 1.62 1.43 2.85 0.64 3.66a3.94 3.94 0 0 1 -1.82 1 6.11 6.11 0 0 1 -1.44 0.24l-0.63 0c-0.2 0 -0.19 0.08 -0.32 0.11a0.29 0.29 0 0 0 -0.36 0.19 0.3 0.3 0 0 0 0.19 0.36A1.2 1.2 0 0 0 18 19a1.84 1.84 0 0 0 0.79 0.19 5.42 5.42 0 0 0 2.25 -0.2 4.64 4.64 0 0 0 2 -1.21c1.2 -1.23 1.54 -3.09 -0.61 -5.45Z" fill="#020202" stroke-width="1"></path>
    <path d="M19.66 21.29a24.72 24.72 0 0 1 -2.57 -2.53l-0.29 -0.27c0.11 -0.14 0.35 -0.32 0.39 -0.37 0.39 -0.52 1.07 -1.2 1.5 -1.75 0.93 -1.18 0.43 -1.35 0.08 -1.16a3 3 0 0 0 -0.53 0.34 16.13 16.13 0 0 0 -1.9 1.89 3.82 3.82 0 0 0 -0.61 0.85 0.85 0.85 0 0 0 0 0.61 1.19 1.19 0 0 0 0.12 0.22c0.09 0.12 0.22 0.21 0.31 0.33a20.18 20.18 0 0 0 2.72 2.77c0.68 0.52 1 0.13 1 0.12 0.49 -0.49 0.19 -0.7 -0.22 -1.05Z" fill="#020202" stroke-width="1"></path>
  </g>
</svg>