<svg xmlns="http://www.w3.org/2000/svg" viewBox="0 0 24 24" id="Paragraphs-Center-Align--Streamline-Freehand">
  <desc>
    Paragraphs Center Align Streamline Icon: https://streamlinehq.com
  </desc>
  <g>
    <path d="M0.32 2.16a25.42 25.42 0 0 0 2.52 0.38c0.59 0.07 1.19 0.11 1.79 0.14 0.88 0 1.77 0 2.65 0.07l2.16 0c1.42 0 2.83 -0.17 4.25 -0.27s2.79 -0.22 4.19 -0.21l4.62 0.07a3.5 3.5 0 0 0 1.15 -0.13 0.57 0.57 0 0 0 0.35 -0.55 0.4 0.4 0 0 0 -0.4 -0.4 0.4 0.4 0 0 0 -0.33 0.19c-0.14 -0.15 -0.64 0 -0.77 0l-4.59 -0.33a31.84 31.84 0 0 0 -3.24 0c-1.48 0 -3 0.18 -4.46 0.28 -1 0.07 -2 0.15 -2.93 0.17s-1.76 0.09 -2.64 0.12l-1.73 0C-0.48 1.48 0.49 1.44 0.31 1.46a0.31 0.31 0 0 0 -0.3 0.28 0.33 0.33 0 0 0 0.09 0.31 0.44 0.44 0 0 0 0.22 0.11Z" fill="#020202" fill-rule="evenodd" stroke-width="1"></path>
    <path d="M23.6 21.41a0.39 0.39 0 0 0 -0.33 0.18c-0.14 -0.15 -0.64 0 -0.77 0l-4.59 -0.33c-1.08 -0.06 -2.16 -0.08 -3.24 0 -1.48 0.06 -3 0.18 -4.46 0.29 -1 0.07 -2 0.14 -2.93 0.17s-1.76 0.09 -2.64 0.11l-1.73 0c-2.81 -0.16 -2.8 -0.37 -2.9 0.06a0.33 0.33 0 0 0 0.09 0.31 0.44 0.44 0 0 0 0.22 0.11 13.25 13.25 0 0 0 2.52 0.38c0.59 0.07 1.19 0.11 1.79 0.14 0.88 0 1.77 0 2.65 0.08l2.16 0c1.42 -0.05 2.83 -0.16 4.25 -0.27s2.79 -0.22 4.19 -0.21l4.62 0.07a3.25 3.25 0 0 0 1.15 -0.13 0.57 0.57 0 0 0 0.35 -0.57 0.39 0.39 0 0 0 -0.4 -0.39Z" fill="#020202" fill-rule="evenodd" stroke-width="1"></path>
    <path d="M23.6 11.27c-0.14 0 -4.27 0 -5.69 -0.12q-1.62 -0.09 -3.24 0c-1.48 0.05 -3 0.17 -4.46 0.28 -1 0.07 -2 0.15 -2.93 0.17s-1.76 0.09 -2.64 0.11l-1.73 0 -1.61 -0.12c-1.1 -0.14 -1.22 -0.17 -1.3 0.15a0.33 0.33 0 0 0 0.09 0.31c0.09 0.1 0.16 0.1 1.14 0.29l1.6 0.2a17.74 17.74 0 0 0 1.79 0.14c0.88 0 1.77 0.05 2.65 0.08l2.16 0c1.42 0 2.83 -0.17 4.25 -0.28s2.79 -0.22 4.19 -0.21l4.62 0.07a3 3 0 0 0 1.15 -0.13 0.57 0.57 0 0 0 0.35 -0.55 0.39 0.39 0 0 0 -0.39 -0.39Z" fill="#020202" fill-rule="evenodd" stroke-width="1"></path>
    <path d="M13.61 7 9.79 7c-0.8 0 -1.62 0.09 -2.43 0.11l-1 0c-0.48 0 -2.69 -0.39 -2.15 0.56 0.18 0.35 2 0.32 2 0.33a10 10 0 0 0 1.08 0.14c0.8 0.07 1.62 0.08 2.41 0.16 1.31 0.05 2.61 0.06 3.91 0 1.93 -0.09 3.85 -0.31 5.78 -0.4a0.39 0.39 0 0 0 0.4 -0.39 0.4 0.4 0 0 0 -0.4 -0.4C17.49 7 15.55 7 13.61 7Z" fill="#4C57E6" fill-rule="evenodd" stroke-width="1"></path>
    <path d="M6.15 17.38a9.48 9.48 0 0 0 1.07 0.14c0.8 0.08 1.62 0.09 2.41 0.16 1.31 0.05 2.61 0.07 3.91 0 1.93 -0.1 3.85 -0.32 5.78 -0.4a0.4 0.4 0 0 0 0.4 -0.4 0.39 0.39 0 0 0 -0.4 -0.39 112.6 112.6 0 0 0 -5.81 -0.11c-1.28 0 -2.55 0.06 -3.83 0 -0.8 0 -1.62 0.09 -2.43 0.11l-1 0a9.08 9.08 0 0 0 -1.8 -0.07c-0.42 0.11 -0.5 0.35 -0.34 0.63s2 0.33 2.04 0.33Z" fill="#4C57E6" fill-rule="evenodd" stroke-width="1"></path>
  </g>
</svg>