<svg xmlns="http://www.w3.org/2000/svg" viewBox="0 0 24 24" id="Park-Bench-Light--Streamline-Freehand">
  <desc>
    Park Bench Light Streamline Icon: https://streamlinehq.com
  </desc>
  <title>park-bench-light</title>
  <g>
    <path d="m23.65 20 -0.95 0a0.41 0.41 0 0 0 0 -0.16c-0.17 -0.46 -0.29 -1 -0.47 -1.45a5.56 5.56 0 0 0 -0.3 -0.65 0.57 0.57 0 0 0 -0.38 -0.24l-0.34 0 -0.63 -0.06c0 -0.86 0.06 -1.71 0.06 -2.57l0 -1.26c0 -0.41 0 -0.83 -0.08 -1.24 -0.07 -0.76 -0.16 -1.51 -0.23 -2.27a3.11 3.11 0 0 0 0.61 0 1.29 1.29 0 0 0 0.7 -0.22 0.84 0.84 0 0 0 0.26 -0.38 5.11 5.11 0 0 0 0.09 -0.62L22.13 7h0.15l0.39 -0.05a0.6 0.6 0 0 0 0.5 -0.56 1 1 0 0 0 -0.17 -0.46 3.86 3.86 0 0 0 -0.66 -0.56l-1.89 -1.61a0.36 0.36 0 0 0 -0.5 0 0.35 0.35 0 0 0 0 0.5l1.6 1.66h-0.79l-2.29 0.14 -0.1 0 1.44 -2.36a0.32 0.32 0 0 0 -0.09 -0.43 0.32 0.32 0 0 0 -0.43 0.09l-1.74 2.2a6.47 6.47 0 0 0 -0.43 0.61 0.56 0.56 0 0 0 0 0.51 0.77 0.77 0 0 0 0.43 0.37 1.26 1.26 0 0 0 0.36 0.1l0.32 1.59c0 0.1 0 0.36 0.08 0.53a0.8 0.8 0 0 0 0.19 0.35 1.22 1.22 0 0 0 0.54 0.29 2.85 2.85 0 0 0 0.51 0.07 26 26 0 0 0 -0.18 2.79c0 0.67 0.06 1.34 0.12 2 0.08 0.86 0.2 1.71 0.3 2.57h-0.44a3.35 3.35 0 0 0 -0.54 0.08 2.25 2.25 0 0 0 -0.52 0.14 0.59 0.59 0 0 0 -0.22 0.18 1.28 1.28 0 0 0 -0.17 0.33c-0.05 0.18 -0.09 0.4 -0.12 0.54l-0.22 1.1 -1.93 -0.08 -0.8 0 0 -0.47a2.41 2.41 0 0 0 0 -0.38 2.19 2.19 0 0 0 0 -0.36c0 -0.19 -0.08 -0.37 -0.12 -0.56l1.15 -0.08a0.35 0.35 0 0 0 0.34 -0.35 0.33 0.33 0 0 0 0.15 -0.3 12.41 12.41 0 0 0 0 -1.63 1.31 1.31 0 0 0 -0.44 -0.91 0.55 0.55 0 0 0 -0.23 -0.09 4.54 4.54 0 0 0 -0.58 -0.05l-0.42 0a1.49 1.49 0 0 0 -0.15 -1.45l1.32 -0.15a0.36 0.36 0 0 0 0.34 -0.37 0.19 0.19 0 0 0 0 -0.08 0.36 0.36 0 0 0 0.22 -0.34 13.64 13.64 0 0 0 0 -1.92 2.18 2.18 0 0 0 -0.34 -1 0.72 0.72 0 0 0 -0.39 -0.23 3.76 3.76 0 0 0 -0.52 0l-1.85 -0.15c-0.73 0 -1.45 0 -2.17 0.1 -1.65 0.16 -3.28 0.47 -4.94 0.5a0.33 0.33 0 0 0 -0.33 0.3 0.3 0.3 0 0 0 0.08 0.21 0.31 0.31 0 0 0 -0.16 0.26c0 0.46 -0.19 1.16 -0.24 1.77a3.14 3.14 0 0 0 0 0.89 0.65 0.65 0 0 0 0.23 0.33 2.21 2.21 0 0 0 0.6 0.3l0.39 0.11c-0.14 0.42 0.27 1.2 0.28 1.21l-0.91 0.05a0.32 0.32 0 0 0 0 0.63c1.44 0.11 2.87 0.18 4.31 0.17 0.94 0 1.89 -0.07 2.83 -0.08l1.79 0a1.29 1.29 0 0 0 0.4 0 2.25 2.25 0 0 1 0.1 0.59c0.05 0.39 0.05 0.79 0.07 1 -1.44 -0.05 -2.85 -0.15 -4.29 -0.2l-3 0 -1.74 0.05a1 1 0 0 0 -0.3 -0.08v-0.12c0 -0.29 0.08 -0.61 0.07 -0.81a0.31 0.31 0 1 0 -0.62 0c0 0.24 -0.16 0.6 -0.19 0.92a1.12 1.12 0 0 0 0.1 0.59 0.6 0.6 0 0 0 0.3 0.25 3.17 3.17 0 0 0 0.51 0.13l0.53 0.06c0 0.24 -0.1 0.47 -0.13 0.72a2.94 2.94 0 0 0 0 0.42l0 0.42 0.06 0.26c-1.9 0 -3.8 0.11 -5.7 0.2a0.31 0.31 0 1 0 0 0.62c2.91 0.06 4.88 0.17 7.8 0.26 1.11 0 2.23 0.06 3.34 0.08l3.35 0c2.61 0 5.21 0 7.82 -0.06a0.36 0.36 0 0 0 0.36 -0.35 0.35 0.35 0 0 0 -0.26 -0.46ZM6.41 12.31a3.44 3.44 0 0 1 -0.06 -0.68c0 -0.54 0.05 -1.13 0 -1.52a0.33 0.33 0 0 0 0 -0.15c0.9 0.08 1.8 0.1 2.7 0.09 0.72 0 1.44 0 2.15 -0.05s1.41 -0.1 2.11 -0.11h1.77a1.42 1.42 0 0 0 0.33 0 2.18 2.18 0 0 1 0.15 0.56c0.09 0.53 0.09 1.14 0.13 1.55l0 0.06c-1.47 0 -2.94 0 -4.42 0.09 -1 0.07 -2 0.18 -3 0.28a4.14 4.14 0 0 1 -0.79 0 4.26 4.26 0 0 1 -0.8 -0.09s-0.19 -0.06 -0.27 -0.03Zm6.88 2 -2.15 0c-1.18 0.07 -2.35 0.21 -3.53 0.3a2.8 2.8 0 0 0 0.34 -1 3.38 3.38 0 0 0 0.45 0l5.39 -0.61a1.34 1.34 0 0 0 0 1.31Zm-3 5.22 -2.23 0a2.56 2.56 0 0 0 0.05 -0.27 2.2 2.2 0 0 0 0 -0.44 2.12 2.12 0 0 0 0 -0.44 4.42 4.42 0 0 0 -0.17 -0.55l0.47 0.05c1 0 2 0.11 3 0.1 0.83 0 1.66 -0.06 2.49 -0.11a2.9 2.9 0 0 0 -0.14 0.48 1.64 1.64 0 0 0 0 0.44 2 2 0 0 0 0.07 0.42c0 0.12 0.07 0.23 0.11 0.35 -1.28 0 -2.48 -0.03 -3.68 -0.03ZM20.88 9c-0.25 0 -0.79 -0.16 -0.94 -0.18h-0.48a1.48 1.48 0 0 1 -0.21 0 2.71 2.71 0 0 1 -0.09 -0.37l-0.52 -1.21 0.78 0c0.48 0 1 -0.08 1.43 -0.12l0.54 0L21 8.63s-0.1 0.23 -0.12 0.37Zm-2.23 10 0.18 -0.39 0.15 0 1.14 0h1.09a3.64 3.64 0 0 1 0.23 0.39c0.17 0.33 0.33 0.67 0.49 1l-3.64 -0.16Z" fill="#020202" fill-rule="evenodd" stroke-width="1"></path>
    <path d="M1.63 16.3a0.31 0.31 0 1 0 0.37 -0.52 2.81 2.81 0 0 1 -1.09 -1.44A2 2 0 0 1 1 12.67a2.28 2.28 0 0 1 0.44 -0.57 2.68 2.68 0 0 1 0.61 -0.43l0.32 -0.12c0 0.09 0.23 0 0.29 -0.05a0.51 0.51 0 0 0 0.34 -0.23 0.48 0.48 0 0 0 0 -0.53c-0.25 -0.42 -0.54 -0.73 -0.76 -1.1A1.62 1.62 0 0 1 2 9a2.64 2.64 0 0 1 0.62 -2 2.32 2.32 0 0 1 1.8 -0.92 1.8 1.8 0 0 1 0.58 0.13 2.37 2.37 0 0 1 0.57 0.3l0.3 0.27c-0.2 0.15 0.43 0.43 0.59 0.44a0.66 0.66 0 0 0 0.4 -0.12 1.72 1.72 0 0 0 0.27 -0.27c0.16 -0.22 0.29 -0.55 0.42 -0.74a1.78 1.78 0 0 1 0.74 -0.6 1.8 1.8 0 0 1 1 -0.14 3.22 3.22 0 0 1 0.92 0.25 2.71 2.71 0 0 1 0.77 0.53l0.38 0.52a2.42 2.42 0 0 1 0.11 0.25 0.48 0.48 0 0 0 0.42 0.28 2.17 2.17 0 0 0 0.43 -0.08 6.59 6.59 0 0 1 0.68 -0.22A1.5 1.5 0 0 1 14 7a1.74 1.74 0 0 1 0.73 0.67 0.36 0.36 0 0 0 0.48 0.14 0.37 0.37 0 0 0 0.14 -0.49 2.49 2.49 0 0 0 -1 -1 2.26 2.26 0 0 0 -1.43 -0.24l-0.76 0.17 -0.5 -0.73a3.61 3.61 0 0 0 -1 -0.77 4.32 4.32 0 0 0 -1.2 -0.39 3 3 0 0 0 -1.49 0.15 2.94 2.94 0 0 0 -1.23 0.91l-0.21 0.33 -0.18 -0.17a3.39 3.39 0 0 0 -0.86 -0.47 3 3 0 0 0 -1 -0.19 3.45 3.45 0 0 0 -2.83 1.36 3.76 3.76 0 0 0 -0.79 2.9 2.71 2.71 0 0 0 0.27 0.79 5.31 5.31 0 0 0 0.6 0.81l-0.16 0.08a3.84 3.84 0 0 0 -0.76 0.61 3.34 3.34 0 0 0 -0.56 0.81 2.87 2.87 0 0 0 0 2.3 3.49 3.49 0 0 0 1.37 1.72Z" fill="#4C57E6" fill-rule="evenodd" stroke-width="1"></path>
  </g>
</svg>