<svg xmlns="http://www.w3.org/2000/svg" viewBox="0 0 24 24" id="Party-Beer-Pong--Streamline-Freehand">
  <desc>
    Party Beer Pong Streamline Icon: https://streamlinehq.com
  </desc>
  <title>party-beer-pong</title>
  <g>
    <path d="M16.93 13.08a1.86 1.86 0 0 0 -1 -1.36 0.3 0.3 0 0 0 -0.42 0.06 0.29 0.29 0 0 0 0.06 0.42c0.66 0.56 0.7 1 0.35 1.37a4.81 4.81 0 0 1 -2.79 1 16.05 16.05 0 0 1 -2.13 0.07 7.94 7.94 0 0 1 -2 -0.27c-1.2 -0.37 -1.74 -0.94 -1.8 -1.49a0.62 0.62 0 0 1 0.08 -0.35 1.49 1.49 0 0 1 0.31 -0.36 0.34 0.34 0 0 0 0.06 -0.48 0.35 0.35 0 0 0 -0.48 0 1.73 1.73 0 0 0 -0.91 1 0.33 0.33 0 0 0 -0.33 -0.24l-1 0L4 12.2a6.37 6.37 0 0 1 -2.09 -0.75c-0.37 -0.22 -0.69 -0.46 -0.73 -0.77 0 -0.15 0.08 -0.3 0.25 -0.49a4.38 4.38 0 0 1 1.15 -0.82 5 5 0 0 1 1.87 -0.59 11.35 11.35 0 0 1 2.1 -0.06 0.3 0.3 0 0 0 0.33 -0.26 0.3 0.3 0 0 0 -0.26 -0.34A12.15 12.15 0 0 0 3.9 8a6 6 0 0 0 -1.84 0.44 5.44 5.44 0 0 0 -1.49 1A1.68 1.68 0 0 0 0 10.83a1.46 1.46 0 0 0 0.1 0.34A29.2 29.2 0 0 0 0.25 15a23.13 23.13 0 0 0 0.43 2.78 13.1 13.1 0 0 0 0.55 1.85 2.35 2.35 0 0 0 1.49 1.27 7.32 7.32 0 0 0 2.48 0.36 0.34 0.34 0 0 0 0.35 -0.33 0.33 0.33 0 0 0 -0.32 -0.35 6.66 6.66 0 0 1 -2.18 -0.5 1.42 1.42 0 0 1 -0.86 -0.77 25.19 25.19 0 0 1 -0.64 -3.07c-0.18 -1.07 -0.38 -2.18 -0.52 -3.16C1 12.73 0.94 12.4 0.9 12.1l0.07 0.05a6.57 6.57 0 0 0 2.91 0.9l1 0 1 0a0.36 0.36 0 0 0 0.28 -0.18 33.15 33.15 0 0 0 0.21 4.4 26.14 26.14 0 0 0 0.83 4.67 2.23 2.23 0 0 0 1.12 1.18 7.26 7.26 0 0 0 3.11 0.64 7.53 7.53 0 0 0 3.1 -0.57 2.28 2.28 0 0 0 1.19 -1.08 14.1 14.1 0 0 0 0.79 -3.63c0.25 -2.11 0.31 -4.34 0.34 -5.13a0.82 0.82 0 0 0 0.08 -0.27Zm-1.25 5.27a12.69 12.69 0 0 1 -0.86 3.32 1.25 1.25 0 0 1 -0.68 0.51 6.78 6.78 0 0 1 -2.63 0.43 6.89 6.89 0 0 1 -2.27 -0.35c-0.45 -0.17 -0.82 -0.37 -0.94 -0.69a24 24 0 0 1 -1 -4.41c-0.18 -1.11 -0.31 -2.2 -0.39 -3a3.81 3.81 0 0 0 1.77 1.19 8 8 0 0 0 2.31 0.44 14.26 14.26 0 0 0 2.29 -0.09 6.77 6.77 0 0 0 2.88 -1.16c-0.11 1.01 -0.26 2.46 -0.48 3.81Z" fill="#020202" stroke-width="1"></path>
    <path d="M23.43 9.45a5.44 5.44 0 0 0 -1.49 -1A6 6 0 0 0 20.1 8a11.06 11.06 0 0 0 -2.69 0.15 0.3 0.3 0 0 0 0.07 0.6 11.35 11.35 0 0 1 2.1 0.06 5 5 0 0 1 1.87 0.59 4.38 4.38 0 0 1 1.15 0.82c0.17 0.18 0.27 0.34 0.25 0.49 0 0.31 -0.36 0.54 -0.73 0.76a6.18 6.18 0 0 1 -2.09 0.76c-0.34 0.05 -0.67 0.09 -1 0.11s-0.67 0.05 -1 0.05a0.35 0.35 0 0 0 0 0.69l1 0 1 0a6.79 6.79 0 0 0 2.82 -0.85c-0.12 1 -0.28 2.34 -0.49 3.63a14.84 14.84 0 0 1 -0.76 3.34 1.82 1.82 0 0 1 -1.13 0.8 8.24 8.24 0 0 1 -2.6 0.4 0.3 0.3 0 0 0 -0.32 0.29 0.31 0.31 0 0 0 0.29 0.31 8.77 8.77 0 0 0 2.88 -0.15 2.79 2.79 0 0 0 1.86 -1.2 12.9 12.9 0 0 0 0.98 -3.65 41.65 41.65 0 0 0 0.24 -4.65 1.77 1.77 0 0 0 0.19 -0.51 1.68 1.68 0 0 0 -0.56 -1.39Z" fill="#020202" stroke-width="1"></path>
    <path d="M14.21 4.54a9.55 9.55 0 0 1 3 -2.63 7.76 7.76 0 0 1 1.06 -0.47A6.24 6.24 0 0 1 21 1.09a0.3 0.3 0 0 0 0.35 -0.24 0.3 0.3 0 0 0 -0.21 -0.35A6.33 6.33 0 0 0 18 0.39a5.05 5.05 0 0 0 -1.3 0.52 5.86 5.86 0 0 0 -1.12 0.8 9.89 9.89 0 0 0 -1.92 2.46 0.34 0.34 0 0 0 0.57 0.37Z" fill="#4C57E6" stroke-width="1"></path>
    <path d="M17.39 3.82a3.81 3.81 0 0 0 -0.7 0.35 4.3 4.3 0 0 0 -0.63 0.47A3.9 3.9 0 0 0 15 6.17a0.34 0.34 0 0 0 0.62 0.28 3.43 3.43 0 0 1 1.12 -1l0.55 -0.34 0.56 -0.33a2.74 2.74 0 0 1 1.34 -0.51 0.29 0.29 0 0 0 0.35 -0.23 0.3 0.3 0 0 0 -0.23 -0.35 3 3 0 0 0 -1.92 0.13Z" fill="#4C57E6" stroke-width="1"></path>
    <path d="M10.35 12.07a0.34 0.34 0 1 0 0.1 -0.67 1.45 1.45 0 0 1 -1.14 -1A1.76 1.76 0 0 1 9.43 9a3.18 3.18 0 0 1 0.72 -0.84 2.27 2.27 0 0 1 0.9 -0.46A2.51 2.51 0 0 1 13 8a1.61 1.61 0 0 1 0.88 1.52 2.89 2.89 0 0 1 -0.45 1.32 2 2 0 0 1 -1.07 0.79 0.3 0.3 0 0 0 0.14 0.58 2.64 2.64 0 0 0 1.5 -0.89 3.84 3.84 0 0 0 0.74 -1.6 2.52 2.52 0 0 0 -1.17 -2.62 3.52 3.52 0 0 0 -2.79 -0.53 3.2 3.2 0 0 0 -1.34 0.76 4.5 4.5 0 0 0 -0.88 1.17 2.76 2.76 0 0 0 0 2.27 2.19 2.19 0 0 0 1.79 1.3Z" fill="#020202" stroke-width="1"></path>
  </g>
</svg>