<svg xmlns="http://www.w3.org/2000/svg" viewBox="0 0 24 24" id="Party-Mask--Streamline-Freehand">
  <desc>
    Party Mask Streamline Icon: https://streamlinehq.com
  </desc>
  <title>party-mask</title>
  <g>
    <path d="M23 0.09a0.32 0.32 0 0 0 -0.47 0 3.43 3.43 0 0 1 -1.92 1.08 7.7 7.7 0 0 1 -2.7 -0.17 9.43 9.43 0 0 0 -3 -0.22 4 4 0 0 0 -1 0.27 11.48 11.48 0 0 0 -1.22 0.6 2.83 2.83 0 0 0 -0.46 0.19 13.92 13.92 0 0 0 -1.59 -1A3.14 3.14 0 0 0 9 0.64c-1.44 0.21 -2.9 1 -4.32 1.09A3 3 0 0 1 2.15 0.94a0.28 0.28 0 0 0 -0.28 0 0.29 0.29 0 0 0 -0.33 0.25 49.65 49.65 0 0 0 -0.6 9.05c0 1.8 0.17 3.61 0.3 5.41 0.19 2.71 0.43 5.4 0.46 8.07a0.34 0.34 0 0 0 0.67 0c0.12 -3.58 0 -7.21 -0.19 -10.84C2.1 11.63 2 10.44 2 9.25l-0.07 -1.47A7.11 7.11 0 0 0 4.73 10 5.93 5.93 0 0 0 10 9.72a4.18 4.18 0 0 0 0.89 -0.63c0.2 -0.17 0.38 -0.37 0.57 -0.56l0.24 0.3a5 5 0 0 0 0.4 0.4 5.18 5.18 0 0 0 1.4 0.83 4.76 4.76 0 0 0 1.61 0.32 6.65 6.65 0 0 0 4.86 -2C22.75 5.69 23.3 0.34 23 0.09Zm-3.72 7.65a5.72 5.72 0 0 1 -4.19 1.53A3.51 3.51 0 0 1 13.87 9a3.81 3.81 0 0 1 -1.08 -0.64l-0.55 -0.62a4.93 4.93 0 0 0 -0.24 -0.45 0.64 0.64 0 0 0 -0.38 -0.21 0.6 0.6 0 0 0 -0.53 0.18c-0.35 0.35 -0.64 0.71 -1 1a3.44 3.44 0 0 1 -0.67 0.5 5 5 0 0 1 -4.42 0.5 6.77 6.77 0 0 1 -3.1 -2.64l0 -1a38.31 38.31 0 0 1 0.18 -4 3.69 3.69 0 0 0 2.62 0.84c1.42 -0.06 2.94 -0.7 4.39 -0.82a2.26 2.26 0 0 1 1.13 0.16c0.6 0.26 1 0.73 1.76 1.12a0.67 0.67 0 0 0 0.48 0 4.55 4.55 0 0 0 0.77 -0.39c0.37 -0.2 0.73 -0.41 1.11 -0.57a3.56 3.56 0 0 1 0.72 -0.23C17 1.44 19 2.36 20.78 2a3.79 3.79 0 0 0 1.73 -0.87c-0.51 2.28 -1.57 5.11 -3.23 6.61Z" fill="#020202" stroke-width="1"></path>
    <path d="M7.48 3.25a3.36 3.36 0 0 0 -0.78 0.14 12.71 12.71 0 0 1 -2.56 0.88l-0.08 -0.07a0.29 0.29 0 0 0 -0.39 -0.13 0.28 0.28 0 0 0 -0.13 0.39 5.46 5.46 0 0 0 2.3 2.72 3.06 3.06 0 0 0 2.58 0.11 5.33 5.33 0 0 0 1.21 -0.68 1.39 1.39 0 0 0 0.52 -0.73 1.88 1.88 0 0 0 -0.61 -1.63 3.18 3.18 0 0 0 -2.06 -1Zm0.5 3a2.16 2.16 0 0 1 -2.19 -0.14 4.85 4.85 0 0 1 -1.27 -1.19c0.82 -0.1 1.58 -0.51 2.39 -0.68a3.68 3.68 0 0 1 0.58 0 2 2 0 0 1 1.07 0.61c0.27 0.25 0.53 0.52 0.5 0.8 0.3 0.16 -0.84 0.52 -1.06 0.62Z" fill="#4C57E6" stroke-width="1"></path>
    <path d="m13.36 5.74 -0.01 0.04 0.01 -0.04z" fill="#020202" stroke-width="1"></path>
    <path d="M19.33 3.51a0.3 0.3 0 0 0 -0.4 0.12 1.76 1.76 0 0 1 -0.14 0.23 14.7 14.7 0 0 1 -2.61 -0.75 2.58 2.58 0 0 0 -1 0 4.75 4.75 0 0 0 -2 1.08 2.83 2.83 0 0 0 -1 1.38 1 1 0 0 0 0.14 0.67 4.77 4.77 0 0 0 0.94 1 2.85 2.85 0 0 0 1.92 0.53 4.2 4.2 0 0 0 2.46 -1.25 8.31 8.31 0 0 0 1 -1.22c0.36 -0.54 1.36 -1.47 0.69 -1.79Zm-1.21 1.32a7.28 7.28 0 0 1 -1 1 3.65 3.65 0 0 1 -1.62 0.78 1.87 1.87 0 0 1 -1.5 -0.33 4.22 4.22 0 0 1 -0.64 -0.5c-0.06 -0.07 -0.07 -0.12 0 -0.15s0 0.06 0 0.11a2.43 2.43 0 0 1 0.8 -1A3.74 3.74 0 0 1 15.41 4c1 -0.23 1.93 0.39 2.93 0.51 -0.07 0.12 -0.14 0.23 -0.22 0.32Z" fill="#4C57E6" stroke-width="1"></path>
  </g>
</svg>