<svg xmlns="http://www.w3.org/2000/svg" viewBox="0 0 24 24" id="Passport-Globe--Streamline-Freehand">
  <desc>
    Passport Globe Streamline Icon: https://streamlinehq.com
  </desc>
  <g>
    <path d="m8.26 19.55 -4.06 0.29a12.09 12.09 0 0 1 -1.85 0 2.24 2.24 0 0 1 -0.85 -0.21s0 -0.1 0 -0.15c-0.06 -0.68 0 -2.24 0 -2.94l0 -6c0 -1.22 0.06 -2.12 0 -3.07s-0.05 -1.81 -0.12 -3.07a15.68 15.68 0 0 1 0 -1.92 1.85 1.85 0 0 1 0.17 -0.86c0.11 0.16 0.58 -0.16 1 -0.2 0.45 -0.07 1.06 -0.1 1.27 -0.12 0.74 -0.1 1.48 -0.15 2.18 -0.18 1.14 -0.06 2.26 -0.07 3.4 -0.12L13 1a18.45 18.45 0 0 1 2.1 0 2.38 2.38 0 0 1 1.13 0.21l0 0.76 0.08 3 0 2.41a0.3 0.3 0 0 0 0.6 0l0 -2.44v-3a4.24 4.24 0 0 0 0 -0.79 0.9 0.9 0 0 0 -0.24 -0.51 2.53 2.53 0 0 0 -1.09 -0.46A19.72 19.72 0 0 0 13 0.06L9.4 0 6 0c-0.77 0 -1.53 0.07 -2.3 0.16A20.36 20.36 0 0 0 1.47 0.4a1.56 1.56 0 0 0 -0.8 0.4A2.29 2.29 0 0 0 0.22 2a13.69 13.69 0 0 0 0 2.42c0.08 1.24 0.12 2.16 0.14 3s0 1.83 0 3l0.11 6c0 0.61 0 1.9 0.08 2.69a2.05 2.05 0 0 0 0.21 0.92 2.12 2.12 0 0 0 1.13 0.47 11 11 0 0 0 2.34 0l4.06 -0.38a0.35 0.35 0 0 0 0.31 -0.37 0.34 0.34 0 0 0 -0.34 -0.2Z" fill="#020202" fill-rule="evenodd" stroke-width="1"></path>
    <path d="M23.57 15.14a0.32 0.32 0 0 0 -0.22 -0.23A4.88 4.88 0 0 0 22 11.78a6.29 6.29 0 0 0 -3.13 -1.84 6.52 6.52 0 0 0 -2 -0.15 7.61 7.61 0 0 0 -6 4 8.06 8.06 0 0 0 -0.84 5.35 9.17 9.17 0 0 0 0.28 1.12 3.21 3.21 0 0 0 0.37 0.77 6.85 6.85 0 0 0 3.66 2.66 7.22 7.22 0 0 0 4.48 0 7.74 7.74 0 0 0 4.16 -3.29 6.43 6.43 0 0 0 0.59 -5.26Zm-12 5.24a2.76 2.76 0 0 1 -0.25 -0.52 8.52 8.52 0 0 1 -0.23 -1 7 7 0 0 1 0.7 -4.6 6.84 6.84 0 0 1 1.43 -1.88 5.42 5.42 0 0 1 1.82 0.65 3.4 3.4 0 0 1 1.4 1.61 2.93 2.93 0 0 1 0.21 0.73 1.57 1.57 0 0 1 -0.05 0.65 1.38 1.38 0 0 1 -0.45 0.54 5.12 5.12 0 0 0 -0.81 0.8 1.69 1.69 0 0 0 -0.29 0.69 2 2 0 0 0 0 0.55 6.4 6.4 0 0 0 0.14 0.66 7.39 7.39 0 0 1 0.45 2.52 1 1 0 0 1 -0.71 0.91l-0.31 -0.09a5.81 5.81 0 0 1 -3.09 -2.22Zm6.88 2.34a5.83 5.83 0 0 1 -2.42 0.22 2 2 0 0 0 0.46 -1 8.17 8.17 0 0 0 -0.26 -2.89 3.12 3.12 0 0 1 -0.08 -0.52 0.69 0.69 0 0 1 0 -0.25 1 1 0 0 1 0.37 -0.51 8.06 8.06 0 0 0 0.8 -0.74 2.11 2.11 0 0 0 0.35 -0.62 2.23 2.23 0 0 0 0.09 -1 3.32 3.32 0 0 0 -0.39 -1.25 4.34 4.34 0 0 0 -1.95 -1.87 6 6 0 0 0 -1.52 -0.48 7 7 0 0 1 1.32 -0.72 6.26 6.26 0 0 1 1.71 -0.45 5.78 5.78 0 0 1 1.76 0.07 5.51 5.51 0 0 1 2.79 1.51 4.17 4.17 0 0 1 1.3 2.84 0.31 0.31 0 0 0 0.18 0.29 5.25 5.25 0 0 1 0.16 1 4.69 4.69 0 0 0 -1.4 -0.19 2.88 2.88 0 0 0 -1.27 0.35A3.22 3.22 0 0 0 19 18.69a2.56 2.56 0 0 0 0.83 2.44 2.07 2.07 0 0 0 0.61 0.38l0.23 0.07a7.12 7.12 0 0 1 -2.26 1.14Zm3.76 -2.81a5.93 5.93 0 0 1 -0.9 1.1 2.9 2.9 0 0 1 -0.54 -0.22 1.13 1.13 0 0 1 -0.34 -0.28 1.76 1.76 0 0 1 -0.33 -1.6 2.37 2.37 0 0 1 0.9 -1.44 2 2 0 0 1 1 -0.4 3.74 3.74 0 0 1 1.06 0 5.71 5.71 0 0 1 -0.89 2.84Z" fill="#020202" fill-rule="evenodd" stroke-width="1"></path>
    <path d="M11 8.76a0.31 0.31 0 0 0 0.16 -0.06l0.59 0a0.34 0.34 0 0 0 0.36 -0.32 0.35 0.35 0 0 0 -0.32 -0.38l-0.47 0a8 8 0 0 0 -0.1 -1.29 6.25 6.25 0 0 0 -0.17 -0.72 5.54 5.54 0 0 0 -0.25 -0.68c-0.17 -0.39 -0.38 -0.76 -0.58 -1.13a2.44 2.44 0 0 1 1.52 0.76 2.87 2.87 0 0 1 0.45 0.73 2.18 2.18 0 0 1 0.2 0.82 0.31 0.31 0 1 0 0.61 0 3 3 0 0 0 -0.19 -1.07 3.91 3.91 0 0 0 -0.5 -1A3.68 3.68 0 0 0 9.52 3.1a5.89 5.89 0 0 0 -3 0.56 5.71 5.71 0 0 0 -2.66 3.21A5 5 0 0 0 4.21 11a6.25 6.25 0 0 0 0.62 0.9 4.3 4.3 0 0 0 0.84 0.75 6.23 6.23 0 0 0 1.11 0.58 3.82 3.82 0 0 0 1.22 0.23 0.35 0.35 0 0 0 0.36 -0.33 0.34 0.34 0 0 0 -0.33 -0.35H8a0.2 0.2 0 0 0 0 -0.13 7.7 7.7 0 0 1 -0.72 -3l0 -0.75c0.59 0 1.18 -0.06 1.77 -0.1s1.2 -0.09 1.81 -0.12a0.28 0.28 0 0 0 0.14 0.08ZM7 4.65a3.58 3.58 0 0 1 0.48 -0.24 10 10 0 0 0 -1.1 2.46A8.06 8.06 0 0 0 6.17 8c-0.5 0.08 -1 0.18 -1.49 0.29a5.07 5.07 0 0 1 0.25 -1A4.77 4.77 0 0 1 7 4.65Zm0 7.88a4.72 4.72 0 0 1 -0.86 -0.53 3.18 3.18 0 0 1 -0.63 -0.64 5.19 5.19 0 0 1 -0.51 -0.82A3.75 3.75 0 0 1 4.64 9l1.47 0c0 0.29 0 0.57 0.06 0.85a7.8 7.8 0 0 0 1 2.76Zm0.9 -4.77 -0.54 0c0 -0.22 0 -0.45 0.09 -0.68a11.54 11.54 0 0 1 1 -2.95 4.89 4.89 0 0 1 1.08 -0.11c0.1 0.59 0.18 1.18 0.34 1.78 0.09 0.35 0.22 0.7 0.34 1s0.22 0.64 0.32 1c-0.47 0 -0.94 -0.08 -1.41 -0.09s-0.83 0.03 -1.22 0.05Z" fill="#4C57E6" fill-rule="evenodd" stroke-width="1"></path>
    <path d="M8.63 16c-0.48 0 -0.94 -0.1 -1.42 -0.13a7.34 7.34 0 0 0 -0.94 0c-0.54 0 -1.06 0.13 -1.6 0.19a0.3 0.3 0 0 0 0 0.6A13.45 13.45 0 0 0 6 17a4.17 4.17 0 0 0 0.61 0 4.29 4.29 0 0 0 0.62 0 11.5 11.5 0 0 0 1.42 -0.28 0.35 0.35 0 0 0 0.35 -0.42 0.34 0.34 0 0 0 -0.37 -0.3Z" fill="#020202" fill-rule="evenodd" stroke-width="1"></path>
  </g>
</svg>