<svg xmlns="http://www.w3.org/2000/svg" viewBox="0 0 24 24" id="Payment-Alipay--Streamline-Freehand">
  <desc>
    Payment Alipay Streamline Icon: https://streamlinehq.com
  </desc>
  <g>
    <path d="M22.35 17.05h-0.22c-0.54 0 -1.09 -0.1 -1.61 -0.15a19.53 19.53 0 0 1 -4.15 -0.9c-0.85 -0.29 -1.7 -0.62 -2.51 -1a19.66 19.66 0 0 0 1.84 -3l1 -2.24a4.08 4.08 0 0 0 0.3 -0.56 0.48 0.48 0 0 0 -0.17 -0.48 0.45 0.45 0 0 0 -0.25 -0.11l-0.32 0L15 8.7c-0.56 0 -1.32 0.07 -2.14 0.13l0 -1.49 0 -0.75 0.88 -0.11c1.2 -0.16 2.38 -0.4 3.58 -0.54a0.34 0.34 0 0 0 0.31 -0.36 0.32 0.32 0 0 0 -0.35 -0.3c-1.52 0 -3 0.11 -4.57 0.22 -0.09 -0.49 -0.21 -1 -0.33 -1.46a0.29 0.29 0 0 0 -0.32 -0.26 0.3 0.3 0 0 0 -0.26 0.32c0 0.5 0 1 -0.06 1.48l-0.91 0.08c-0.53 0 -1 0.11 -1.58 0.14a18.68 18.68 0 0 1 -2 0 0.29 0.29 0 1 0 -0.07 0.57 17.66 17.66 0 0 0 4.1 0.34l0.45 0c0 0.26 0 0.52 0.08 0.77 0.07 0.48 0.16 1 0.26 1.42l-0.87 0.1c-1 0.08 -1.9 0.17 -2.54 0.27a0.29 0.29 0 0 0 -0.25 0.33 0.3 0.3 0 0 0 0.33 0.25c0.63 -0.08 1.54 -0.15 2.5 -0.2s2.44 -0.11 3.79 -0.15h0.91l-1 2.09a18 18 0 0 1 -2 3l-0.5 -0.25a21.29 21.29 0 0 0 -3.94 -1.7 6.8 6.8 0 0 0 -3 -0.2A3.14 3.14 0 0 0 3 14.87a3.5 3.5 0 0 0 1 3.36A3.36 3.36 0 0 0 6 19a8.76 8.76 0 0 0 3 -0.42 9.34 9.34 0 0 0 3.38 -2c0.31 -0.29 0.6 -0.59 0.89 -0.91a28.14 28.14 0 0 0 2.84 1.05 20.18 20.18 0 0 0 4.33 0.88c0.53 0 1.1 0.11 1.66 0.11h0.23c0.91 -0.16 0.91 -0.39 0.02 -0.66Zm-13.67 0.47a7.75 7.75 0 0 1 -2.57 0.36 2.32 2.32 0 0 1 -1.39 -0.47 2.38 2.38 0 0 1 -0.65 -2.29 2.09 2.09 0 0 1 1.65 -1.63 5.74 5.74 0 0 1 2.53 0.13A19.74 19.74 0 0 1 12 15.13l0.28 0.13a8.56 8.56 0 0 1 -3.6 2.26Z" fill="#020202" fill-rule="evenodd" stroke-width="1"></path>
    <path d="M23.83 13c-0.18 -2 -0.46 -4 -0.73 -6a0.14 0.14 0 0 0 0 -0.07l-0.32 -3a4.42 4.42 0 0 0 -0.39 -1.53 3.28 3.28 0 0 0 -1 -1.27 4.71 4.71 0 0 0 -1.61 -0.79 8.81 8.81 0 0 0 -2.62 -0.17c-2.23 0 -4.67 -0.1 -7.06 0a30 30 0 0 0 -4.73 0.6 14.25 14.25 0 0 0 -2.53 0.74 4.2 4.2 0 0 0 -1.56 1.12A5.41 5.41 0 0 0 0.23 5 17.45 17.45 0 0 0 0 8.51c0 2.06 0 4.18 0.09 6.29A34.5 34.5 0 0 0 0.51 19a5.31 5.31 0 0 0 2.68 4 8.33 8.33 0 0 0 4.68 0.83c1.21 -0.1 2.42 -0.22 3.63 -0.37 1.8 -0.22 3.6 -0.49 5.4 -0.77a37.3 37.3 0 0 0 4.1 -0.48 4.25 4.25 0 0 0 1.72 -0.87 3.26 3.26 0 0 0 1 -1.63 9.49 9.49 0 0 0 0.28 -2.65c0 -1.34 0 -2.68 -0.17 -4.06Zm-0.9 6.44a2.57 2.57 0 0 1 -0.78 1.23 3.87 3.87 0 0 1 -1.91 0.78c-1.16 0.19 -2.42 0.14 -3.48 0.29 -1.79 0.26 -3.58 0.5 -5.38 0.7 -1.19 0.13 -2.39 0.24 -3.59 0.32a7.37 7.37 0 0 1 -4.06 -0.73 4.26 4.26 0 0 1 -2.12 -3.22 34.5 34.5 0 0 1 -0.4 -4.1c-0.11 -2.08 -0.09 -4.19 -0.1 -6.23a16.55 16.55 0 0 1 0.18 -3.34 4.35 4.35 0 0 1 0.8 -1.88 3.17 3.17 0 0 1 1.17 -0.84 12.12 12.12 0 0 1 2.33 -0.72 28.92 28.92 0 0 1 4.57 -0.64c2.36 -0.16 4.78 -0.13 7 -0.14a12.5 12.5 0 0 1 2 0 3.84 3.84 0 0 1 1.74 0.8 2.71 2.71 0 0 1 0.82 1 4 4 0 0 1 0.34 1.31L22.47 7a0.32 0.32 0 0 0 0 0.17c0.24 2 0.5 3.95 0.65 5.94 0.06 1.13 0.26 4.95 -0.19 6.36Z" fill="#4C57E6" fill-rule="evenodd" stroke-width="1"></path>
  </g>
</svg>