<svg xmlns="http://www.w3.org/2000/svg" viewBox="0 0 24 24" id="Performance-Document-Increase--Streamline-Freehand">
  <desc>
    Performance Document Increase Streamline Icon: https://streamlinehq.com
  </desc>
  <g>
    <path d="M15.15 21.65c-0.26 -0.15 -0.55 -0.24 -0.78 -0.39A1.38 1.38 0 0 1 14 21a2.13 2.13 0 0 1 -0.33 -0.34 0.29 0.29 0 0 0 -0.5 0.31 3.77 3.77 0 0 0 0.31 0.6 2.71 2.71 0 0 0 0.3 0.39 3.92 3.92 0 0 0 0.36 0.33 4.18 4.18 0 0 0 0.54 0.35 5.68 5.68 0 0 1 0.8 0.49 1.29 1.29 0 0 1 0.43 0.57 0.34 0.34 0 0 0 0.39 0.25 0.32 0.32 0 0 0 0.26 -0.38 2 2 0 0 0 -0.64 -1.33 4.05 4.05 0 0 0 -0.77 -0.59Z" fill="#020202" fill-rule="evenodd" stroke-width="1"></path>
    <path d="M21.41 18.41a14 14 0 0 0 -0.06 -1.95 7.27 7.27 0 0 0 -0.25 -1.33 5.26 5.26 0 0 0 -2 -2.85 0.25 0.25 0 0 0 -0.1 -0.08c0.05 -0.47 0.11 -0.94 0.14 -1.41l0 -0.89 0 -0.89c-0.05 -0.69 -0.16 -1.37 -0.24 -2.08a0.29 0.29 0 0 0 -0.29 -0.29 0.31 0.31 0 0 0 -0.29 0.3c-0.08 0.7 -0.19 1.38 -0.24 2.07l0 0.88 0 0.89c0 0.69 0.12 1.37 0.18 2.08a0.31 0.31 0 0 0 0.25 0.29l0 1.18 0 0.58 -0.41 -0.24 -0.56 -0.45a2.8 2.8 0 0 0 -1.87 -0.46 1.57 1.57 0 0 0 -1.07 2.46 4.8 4.8 0 0 0 1 1 4.29 4.29 0 0 1 0.81 0.75 0.48 0.48 0 0 1 0.07 0.24 8.19 8.19 0 0 0 0 0.85 2.57 2.57 0 0 0 0.19 0.76 4.93 4.93 0 0 0 0.52 0.92 4.09 4.09 0 0 0 0.74 0.76 3.46 3.46 0 0 0 0.93 0.49 0.29 0.29 0 1 0 0.21 -0.55 3 3 0 0 1 -0.77 -0.44 2.65 2.65 0 0 1 -0.54 -0.66 5 5 0 0 1 -0.32 -0.66 2 2 0 0 1 -0.12 -0.64c0 -0.31 0.11 -0.66 0.11 -1a1.25 1.25 0 0 0 -0.18 -0.63 18.25 18.25 0 0 0 -1.52 -1.6c-0.18 -0.23 -0.36 -0.45 -0.24 -0.72a0.59 0.59 0 0 1 0.57 -0.32 1.94 1.94 0 0 1 1 0.24l0.5 0.35s0.67 0.35 0.93 0.48a0.67 0.67 0 0 0 0.6 0 1.49 1.49 0 0 0 0.27 -0.89c0 -0.45 0 -1.07 -0.09 -1.66a4.72 4.72 0 0 1 0.89 2.06 11.51 11.51 0 0 1 0.13 1.18l0 1.85a12.67 12.67 0 0 0 0.7 4.83 0.33 0.33 0 0 0 0.62 -0.23 13.24 13.24 0 0 1 -0.2 -4.57Z" fill="#020202" fill-rule="evenodd" stroke-width="1"></path>
    <path d="M3.48 18.21s0.08 -2.86 0.11 -5.61l0 -3.76c0 -1.18 -0.18 -2.41 -0.12 -3.59a5.76 5.76 0 0 1 0.39 -2l0.74 0a72.79 72.79 0 0 1 10.25 0 0.28 0.28 0 0 0 0.34 -0.23 0.29 0.29 0 0 0 -0.19 -0.31 64 64 0 0 0 -9.3 -0.54 19.19 19.19 0 0 0 -2.14 0.09 0.81 0.81 0 0 0 -0.63 0.38 6.49 6.49 0 0 0 -0.57 2.56c0 1.22 0.13 2.47 0.19 3.69 0.07 0.94 0.12 2.31 0.16 3.71 0.08 2.75 0.11 5.6 0.11 5.6a0.33 0.33 0 1 0 0.66 0Z" fill="#020202" fill-rule="evenodd" stroke-width="1"></path>
    <path d="M15.14 18.61a0.34 0.34 0 0 0 -0.38 -0.28 37.22 37.22 0 0 1 -4.1 0c-0.91 0 -1.86 -0.06 -2.78 0a31.64 31.64 0 0 0 -4.65 0.41A0.3 0.3 0 0 0 3 19a0.29 0.29 0 0 0 0.33 0.25c1.15 -0.07 2.59 0 4.12 0.09 0.91 0 1.85 0.05 2.77 0a29 29 0 0 0 4.63 -0.34 0.34 0.34 0 0 0 0.29 -0.39Z" fill="#020202" fill-rule="evenodd" stroke-width="1"></path>
    <path d="M14.34 0.78c0.47 0.07 0.91 0.12 1.37 0.17s0.92 0.08 1.38 0.11l2.29 0.06c-0.2 0.31 -0.41 0.62 -0.64 0.94 -1.44 2 -3.39 4.33 -4.52 6.17 -0.17 0.3 -0.35 0.6 -0.54 0.89a6.68 6.68 0 0 1 -0.6 0.8 2.7 2.7 0 0 0 -0.3 0.26 5.45 5.45 0 0 1 -0.9 -0.39 5.22 5.22 0 0 0 -1.58 -0.6 1.68 1.68 0 0 0 -1.08 0.19 1.43 1.43 0 0 0 -0.47 0.52c-0.28 0.5 -0.5 1.35 -0.67 1.67 -0.55 1.07 -1.08 2.19 -1.65 3.28 -0.4 0.7 -0.82 1.39 -1.28 2a0.29 0.29 0 0 0 0 0.41 0.3 0.3 0 0 0 0.41 -0.05A20.86 20.86 0 0 0 7 15.2c0.65 -1 1.24 -2.14 1.85 -3.18 0.14 -0.24 0.33 -0.79 0.55 -1.26 0.1 -0.2 0.18 -0.4 0.29 -0.46a0.9 0.9 0 0 1 0.7 0c0.46 0.16 0.93 0.44 1.38 0.65a2.82 2.82 0 0 0 1.28 0.34 0.68 0.68 0 0 0 0.39 -0.14c0.14 -0.12 0.39 -0.47 0.46 -0.54 0.19 -0.24 0.37 -0.48 0.54 -0.73s0.46 -0.75 0.67 -1.13c1 -1.88 2.86 -4.22 4.2 -6.3 0.12 -0.18 0.22 -0.36 0.33 -0.53V2a13.86 13.86 0 0 1 0.17 1.68c0.05 0.88 0.06 1.75 0.14 2.64a0.29 0.29 0 0 0 0.3 0.28 0.28 0.28 0 0 0 0.28 -0.3c0 -1 0.17 -2 0.2 -3.06a12.53 12.53 0 0 0 0 -1.37c0 -0.28 0 -0.64 -0.06 -1a2.74 2.74 0 0 0 -0.14 -0.53A0.6 0.6 0 0 0 20 0l-0.63 0 -2.29 0.13 -1.33 0c-0.45 0 -0.89 0 -1.33 -0.05a0.34 0.34 0 0 0 -0.37 0.3 0.33 0.33 0 0 0 0.29 0.4Z" fill="#4C57E6" fill-rule="evenodd" stroke-width="1"></path>
  </g>
</svg>