<svg xmlns="http://www.w3.org/2000/svg" viewBox="0 0 24 24" id="Phone-Actions-Wait-Hold--Streamline-Freehand">
  <desc>
    Phone Actions Wait Hold Streamline Icon: https://streamlinehq.com
  </desc>
  <g>
    <path d="M17.78 19.64c-0.17 -0.25 -0.41 -0.48 -0.57 -0.69 -0.37 -0.46 -0.75 -0.93 -1.16 -1.37a11.9 11.9 0 0 0 -0.86 -0.88 6.11 6.11 0 0 0 -0.76 -0.64 1.8 1.8 0 0 0 -0.82 -0.29 1.25 1.25 0 0 0 -0.67 0.18c-0.47 0.26 -1.11 0.91 -1.7 1.31a2.93 2.93 0 0 1 -0.38 0.21c-0.07 0 -0.15 0.07 -0.2 0l-3.21 -3.73c-0.43 -0.48 -1 -1 -1.54 -1.65a3.63 3.63 0 0 1 -0.7 -1.16c0 -0.17 0.08 -0.33 0.23 -0.52 0.42 -0.52 1.13 -1.06 1.56 -1.57A2 2 0 0 0 7.52 8a0.85 0.85 0 0 0 -0.11 -0.5c-0.12 -0.22 -0.33 -0.41 -0.41 -0.5L5.19 4.65a0.31 0.31 0 0 0 -0.48 0.35l1.72 2.3 0.4 0.53c0 0.26 -0.33 0.52 -0.66 0.82a13.76 13.76 0 0 0 -1.44 1.39 1.29 1.29 0 0 0 -0.28 1.09 4.4 4.4 0 0 0 0.81 1.45c0.49 0.63 1.1 1.23 1.53 1.72l3.09 3.79a1.09 1.09 0 0 0 1.25 0.35 6.61 6.61 0 0 0 1.72 -1.12 4.94 4.94 0 0 1 0.54 -0.4c0.06 0 0.17 0 0.17 -0.07a0.84 0.84 0 0 1 0.35 0.18c0.19 0.15 0.36 0.32 0.52 0.47s0.53 0.53 0.78 0.81 0.74 0.88 1.09 1.33c0.14 0.17 0.32 0.35 0.47 0.55a1 1 0 0 1 0.14 0.24c0.14 0.43 -0.24 0.77 -0.63 1.07a5.06 5.06 0 0 1 -1.6 0.8 8.55 8.55 0 0 1 -6 -0.5 15 15 0 0 1 -4.93 -3.92 10.92 10.92 0 0 1 -2.91 -6.82c-0.11 -3.15 1.35 -5.73 2.92 -6.5a0.35 0.35 0 0 0 -0.3 -0.63C1.69 4.76 0 7.57 0 11.08a11.84 11.84 0 0 0 3 7.48 15.72 15.72 0 0 0 5.21 4.29 9.63 9.63 0 0 0 6.8 0.61 6.19 6.19 0 0 0 2.36 -1.31 2 2 0 0 0 0.67 -2 1.86 1.86 0 0 0 -0.26 -0.51Z" fill="#020202" fill-rule="evenodd" stroke-width="1"></path>
    <path d="M23.69 1.14a1.31 1.31 0 0 0 -1.12 -0.71 0.25 0.25 0 0 0 -0.12 0 1.73 1.73 0 0 0 -2.23 1.1 1.87 1.87 0 0 0 0.92 2.63 2.29 2.29 0 0 0 1.63 0A1.89 1.89 0 0 0 23.91 3a2.41 2.41 0 0 0 -0.22 -1.86ZM23 2.63a0.93 0.93 0 0 1 -0.6 0.48 1.21 1.21 0 0 1 -0.82 0 0.87 0.87 0 0 1 -0.46 -1.2c0.18 -0.56 0.63 -1.08 1.21 -0.84l0.09 0a0.28 0.28 0 0 0 0.13 0c0.29 0 0.43 0.3 0.51 0.58a1.46 1.46 0 0 1 -0.06 0.98Z" fill="#4C57E6" fill-rule="evenodd" stroke-width="1"></path>
    <path d="M17.38 0.35h-0.07a0.37 0.37 0 0 0 -0.18 -0.08 2.74 2.74 0 0 0 -1.49 0.26 2.67 2.67 0 0 0 -1.2 1 2.16 2.16 0 0 0 -0.18 1.76 1.8 1.8 0 0 0 1.49 1.19 2.49 2.49 0 0 0 1.67 -0.44 2.42 2.42 0 0 0 1 -1.36 2.44 2.44 0 0 0 -0.17 -1.58 1.42 1.42 0 0 0 -0.87 -0.75Zm0.13 2.08a1.48 1.48 0 0 1 -0.67 0.73 1.42 1.42 0 0 1 -0.93 0.2 0.73 0.73 0 0 1 -0.59 -0.44 1.25 1.25 0 0 1 0 -0.93 1.83 1.83 0 0 1 0.68 -0.78 2.14 2.14 0 0 1 1 -0.34 0.42 0.42 0 0 0 0.18 0.14 0.78 0.78 0 0 1 0.4 0.59 1.53 1.53 0 0 1 -0.07 0.83Z" fill="#4C57E6" fill-rule="evenodd" stroke-width="1"></path>
    <path d="M9.54 4.07A2.47 2.47 0 0 0 11.15 4a2 2 0 0 0 1.16 -1.18A2.14 2.14 0 0 0 12.06 1a1.32 1.32 0 0 0 -0.92 -0.6A2.4 2.4 0 0 0 9.73 0.22a1.69 1.69 0 0 0 -0.93 0.51 2.23 2.23 0 0 0 -0.51 1.78 1.85 1.85 0 0 0 1.25 1.56Zm0 -2.78a0.87 0.87 0 0 1 0.57 -0.36 1.48 1.48 0 0 1 0.51 0 0.35 0.35 0 0 0 0.34 0.19c0.28 0 0.44 0.23 0.53 0.49a1.18 1.18 0 0 1 0 0.87 1.06 1.06 0 0 1 -0.65 0.51 1.47 1.47 0 0 1 -0.88 0 0.79 0.79 0 0 1 -0.51 -0.64 1.36 1.36 0 0 1 0.05 -1.06Z" fill="#4C57E6" fill-rule="evenodd" stroke-width="1"></path>
  </g>
</svg>