<svg xmlns="http://www.w3.org/2000/svg" viewBox="0 0 24 24" id="Phone-Camera-Back-Iphone--Streamline-Freehand">
  <desc>
    Phone Camera Back Iphone Streamline Icon: https://streamlinehq.com
  </desc>
  <g>
    <path d="M10.33 5.84a1 1 0 1 0 -0.66 1.91c1.12 0.39 2.14 -1.37 0.66 -1.91Z" fill="#4C57E6" stroke-width="1"></path>
    <path d="M7.39 5.81c-1.52 -0.55 -1.9 1.47 -0.66 1.91s2.14 -1.37 0.66 -1.91Z" fill="#4C57E6" stroke-width="1"></path>
    <path d="M7.52 2.87c-1.52 -0.55 -1.9 1.46 -0.67 1.9S9 3.4 7.52 2.87Z" fill="#4C57E6" stroke-width="1"></path>
    <path d="M10.33 2.87c-1.52 -0.55 -1.9 1.46 -0.66 1.9s2.14 -1.37 0.66 -1.9Z" fill="#4C57E6" stroke-width="1"></path>
    <path d="M19.77 2.91A3.55 3.55 0 0 0 17.2 0.39C14.85 -0.37 11.36 0.21 9.57 0.26a9.57 9.57 0 0 0 -2.82 0.36 3.48 3.48 0 0 0 -1.64 1.22 4.81 4.81 0 0 0 -0.86 2.33 31 31 0 0 0 -0.07 3.44c-0.07 2.48 -0.15 5 -0.14 7.47 0 1.66 0.06 3.32 0.18 5a0.3 0.3 0 0 0 0.32 0.27 0.29 0.29 0 0 0 0.26 -0.35c-0.1 -1.64 -0.12 -3.29 -0.08 -4.94 0 -1.85 0.11 -3.69 0.2 -5.53 1 0 2.09 0.09 3.13 0.1 0.53 0 1 0 1.57 -0.05s0.87 0 1.32 -0.12a2.38 2.38 0 0 0 1 -0.43 2.34 2.34 0 0 0 0.74 -1A5.12 5.12 0 0 0 13 6.46a26.75 26.75 0 0 0 0 -2.68c-0.06 -0.9 -0.3 -2.67 -0.3 -2.67a15.45 15.45 0 0 1 3.27 0.11c1.34 0.22 2.47 0.72 2.8 2a24.19 24.19 0 0 1 0.15 4.13c0 3.44 -0.21 7.93 -0.25 10 0 0.69 0.07 1.89 0 3a2.7 2.7 0 0 1 -0.67 1.51 3.89 3.89 0 0 1 -2.16 0.95c-1.32 0.23 -2.8 0.15 -3.93 0.25a20.08 20.08 0 0 1 -4.37 0.13 3.81 3.81 0 0 1 -2.42 -1.14 0.31 0.31 0 0 0 -0.46 0 0.34 0.34 0 0 0 0 0.46 4.46 4.46 0 0 0 2.81 1.42 20.61 20.61 0 0 0 4.53 -0.1c1.15 -0.08 2.66 0 4 -0.19a4.72 4.72 0 0 0 2.64 -1.15 3 3 0 0 0 0.74 -1.58 22.11 22.11 0 0 0 0.18 -3.56c0.07 -2.08 0.32 -6.57 0.38 -10a23.46 23.46 0 0 0 -0.17 -4.44Zm-7.69 0.89c0 0.88 -0.06 1.75 -0.15 2.58a5.06 5.06 0 0 1 -0.21 1.07 1.38 1.38 0 0 1 -0.47 0.73 1.19 1.19 0 0 1 -0.54 0.22c-0.4 0.09 -0.84 0.11 -1.21 0.16 -0.65 0.11 -1.32 0.17 -2 0.22 -0.86 0.06 -1.71 0.09 -2.56 0.15L5 7.64a26 26 0 0 1 0.14 -3.35 4 4 0 0 1 0.72 -1.87 2.52 2.52 0 0 1 1.21 -0.87A8.6 8.6 0 0 1 9.6 1.3c0.62 0 1.46 -0.09 2.39 -0.15 0.01 0.02 0.1 1.77 0.09 2.65Z" fill="#020202" stroke-width="1"></path>
  </g>
</svg>