<svg xmlns="http://www.w3.org/2000/svg" viewBox="0 0 24 24" id="Phone-Actions-Refresh--Streamline-Freehand">
  <desc>
    Phone Actions Refresh Streamline Icon: https://streamlinehq.com
  </desc>
  <g>
    <path d="M17.88 19.85c-0.17 -0.25 -0.4 -0.48 -0.56 -0.68 -0.37 -0.47 -0.75 -0.93 -1.15 -1.37s-0.56 -0.59 -0.86 -0.87a6.11 6.11 0 0 0 -0.76 -0.64 1.73 1.73 0 0 0 -0.81 -0.29 1.25 1.25 0 0 0 -0.67 0.18c-0.47 0.26 -1.1 0.9 -1.69 1.3a2 2 0 0 1 -0.37 0.21c-0.08 0 -0.15 0.07 -0.2 0L7.62 14c-0.43 -0.47 -1 -1 -1.54 -1.63a3.71 3.71 0 0 1 -0.69 -1.16c0 -0.16 0.08 -0.33 0.23 -0.51 0.38 -0.54 1.12 -1.08 1.57 -1.59a1.76 1.76 0 0 0 0.49 -0.85 0.72 0.72 0 0 0 -0.11 -0.5 6.55 6.55 0 0 0 -0.42 -0.53L5.37 5a0.31 0.31 0 0 0 -0.43 0 0.3 0.3 0 0 0 -0.05 0.42L6.6 7.61l0.4 0.53c0 0.26 -0.33 0.52 -0.65 0.81a11.9 11.9 0 0 0 -1.43 1.39 1.2 1.2 0 0 0 -0.28 1.07 4.19 4.19 0 0 0 0.8 1.45c0.49 0.63 1.09 1.22 1.52 1.71L10 18.34a1.07 1.07 0 0 0 1.24 0.34A6.27 6.27 0 0 0 13 17.57a4.74 4.74 0 0 1 0.54 -0.39c0.06 0 0.17 0 0.17 -0.08a1 1 0 0 1 0.35 0.19 5.87 5.87 0 0 1 0.51 0.46c0.27 0.26 0.53 0.53 0.78 0.8 0.38 0.43 0.74 0.88 1.09 1.33 0.13 0.16 0.31 0.35 0.46 0.54a0.89 0.89 0 0 1 0.14 0.25c0.14 0.42 -0.24 0.76 -0.63 1.06a5.14 5.14 0 0 1 -1.59 0.8 8.58 8.58 0 0 1 -6 -0.5 15 15 0 0 1 -4.9 -3.9A11 11 0 0 1 1 11.32c-0.06 -3.13 1.38 -5.7 3 -6.47a0.34 0.34 0 1 0 -0.3 -0.61C1.89 5.06 0.16 7.85 0.21 11.34a11.76 11.76 0 0 0 3 7.44A15.76 15.76 0 0 0 8.34 23a9.51 9.51 0 0 0 6.76 0.6 6.06 6.06 0 0 0 2.35 -1.3 2 2 0 0 0 0.67 -2 2.32 2.32 0 0 0 -0.24 -0.45Z" fill="#020202" fill-rule="evenodd" stroke-width="1"></path>
    <path d="M22.79 2.87A6.27 6.27 0 0 0 20 0.34 4.56 4.56 0 0 0 18.25 0a6.47 6.47 0 0 0 -1.71 0.23 5.81 5.81 0 0 0 -1.39 0.57 7.26 7.26 0 0 0 -1.21 0.84 8.1 8.1 0 0 0 -1.35 1.44 8.48 8.48 0 0 0 -0.48 0.74L12 2.31V0.54a0.3 0.3 0 0 0 -0.24 -0.35 0.29 0.29 0 0 0 -0.36 0.24l-0.29 1.82A10.64 10.64 0 0 0 11 3.61 9.26 9.26 0 0 0 11.08 5a1.15 1.15 0 0 0 0.6 0.66 5.13 5.13 0 0 0 1.18 0.34c0.44 0.07 0.88 0.13 1.34 0.18s0.87 0.09 1.35 0.1a0.34 0.34 0 0 0 0.38 -0.3 0.35 0.35 0 0 0 -0.31 -0.38c-0.36 -0.06 -0.69 -0.12 -1 -0.2 -0.53 -0.12 -1 -0.26 -1.51 -0.42l-0.61 -0.19 -0.13 0a6 6 0 0 1 0.78 -1.26 8.06 8.06 0 0 1 1.29 -1.26 7.17 7.17 0 0 1 1.12 -0.69A5.38 5.38 0 0 1 18.22 1a3.47 3.47 0 0 1 1.35 0.32 5.3 5.3 0 0 1 2.24 2.14 5.74 5.74 0 0 1 0.83 3 5.58 5.58 0 0 1 -1.71 3.83A4.79 4.79 0 0 1 17 11.71a6.55 6.55 0 0 1 -1.71 -0.45 4.82 4.82 0 0 1 -1.49 -0.9 0.36 0.36 0 0 0 -0.49 0 0.35 0.35 0 0 0 0 0.49A5.69 5.69 0 0 0 15 12a7.33 7.33 0 0 0 1.89 0.57A5.68 5.68 0 0 0 21.63 11a6.59 6.59 0 0 0 2.16 -4.5 6.73 6.73 0 0 0 -1 -3.63Z" fill="#4C57E6" fill-rule="evenodd" stroke-width="1"></path>
  </g>
</svg>