<svg xmlns="http://www.w3.org/2000/svg" viewBox="0 0 24 24" id="Phone-Selfie-Front--Streamline-Freehand">
  <desc>
    Phone Selfie Front Streamline Icon: https://streamlinehq.com
  </desc>
  <g>
    <path d="M22.42 1.74a3.11 3.11 0 0 0 0.69 -0.53c0.21 -0.21 0.35 -0.47 0.49 -0.62a0.34 0.34 0 0 0 0 -0.48 0.34 0.34 0 0 0 -0.48 0 4 4 0 0 0 -0.63 0.57c-0.19 0.21 -0.32 0.47 -0.46 0.62a0.3 0.3 0 0 0 -0.03 0.4 0.29 0.29 0 0 0 0.42 0.04Z" fill="#4C57E6" fill-rule="evenodd" stroke-width="1"></path>
    <path d="M22.89 3.59a1.88 1.88 0 0 0 -0.95 -0.29 0.3 0.3 0 0 0 -0.34 0.25 0.3 0.3 0 0 0 0.25 0.34 0.85 0.85 0 0 1 0.23 0.12 3 3 0 0 1 0.37 0.28c0.21 0.15 0.44 0.28 0.62 0.42a0.33 0.33 0 0 0 0.47 0 0.34 0.34 0 0 0 0 -0.48 3 3 0 0 0 -0.65 -0.64Z" fill="#4C57E6" fill-rule="evenodd" stroke-width="1"></path>
    <path d="M18.69 4.64c0.18 -0.17 0.4 -0.3 0.59 -0.47s0.34 -0.36 0.54 -0.52a0.29 0.29 0 0 0 0.11 -0.4 0.31 0.31 0 0 0 -0.41 -0.11 3.13 3.13 0 0 0 -0.77 0.4 3.43 3.43 0 0 0 -0.56 0.64 0.34 0.34 0 0 0 0 0.48 0.35 0.35 0 0 0 0.5 -0.02Z" fill="#4C57E6" fill-rule="evenodd" stroke-width="1"></path>
    <path d="M19.16 1.1c0.15 0.17 0.34 0.3 0.44 0.42a0.3 0.3 0 0 0 0.41 0.11 0.3 0.3 0 0 0 0.1 -0.41 2.21 2.21 0 0 0 -0.33 -0.65A2 2 0 0 0 19.2 0.1a0.33 0.33 0 0 0 -0.47 0.08 0.34 0.34 0 0 0 0.07 0.47c0.11 0.1 0.2 0.29 0.36 0.45Z" fill="#4C57E6" fill-rule="evenodd" stroke-width="1"></path>
    <path d="m21.5 10 0 -2.25V5.62a0.3 0.3 0 1 0 -0.6 0l-0.07 2.05c-0.07 1 -0.11 2 -0.14 3 -0.05 1.48 -0.08 2.93 -0.13 4.52 0 1.13 -0.06 2.29 -0.12 3.45 -0.05 0.76 -0.11 1.52 -0.21 2.26a1.32 1.32 0 0 1 -0.61 1 4.67 4.67 0 0 1 -2.24 0.4l-5.63 0.1c-0.54 0 -1.52 0.05 -2.37 0a2.4 2.4 0 0 1 -1.29 -0.29 1.7 1.7 0 0 1 -0.45 -0.76 6 6 0 0 1 -0.19 -1.13 10.92 10.92 0 0 0 2.32 -1.55 2.69 2.69 0 0 0 1 -1.7 2.28 2.28 0 0 0 -1.41 -2.47 2.43 2.43 0 0 0 -1.46 0l0 -2.89c0 -1.46 0.15 -3 0.22 -4.23s0.11 -2.4 0.12 -2.83a5.69 5.69 0 0 1 0.09 -1.06 1.23 1.23 0 0 1 0.35 -0.7 2.17 2.17 0 0 1 0.76 -0.38s0 0.1 0 0.16c0.05 0.28 0.15 0.6 0.18 0.83A5.05 5.05 0 0 0 10 4.5a5.3 5.3 0 0 0 0.54 1 0.72 0.72 0 0 0 0.41 0.23 5.52 5.52 0 0 0 1.23 0.1l1.17 0c0.65 0 1.29 -0.13 1.74 -0.2s0.73 -0.11 1.1 -0.14a4.15 4.15 0 0 1 0.7 0 0.33 0.33 0 0 0 0.37 -0.29 0.34 0.34 0 0 0 -0.26 -0.44 7 7 0 0 0 -0.8 -0.07l-1.16 0 -1.82 0c-2.25 0 -1.81 0.25 -2.35 -0.63a4.71 4.71 0 0 1 -0.43 -0.81c-0.06 -0.23 -0.22 -0.53 -0.31 -0.82a0.55 0.55 0 0 1 0 -0.17 10.7 10.7 0 0 1 2 -0.19L15.84 2l1.67 -0.07a0.34 0.34 0 0 0 0 -0.68h-1.68l-3.68 -0.08a11.29 11.29 0 0 0 -2.47 0.13A3.71 3.71 0 0 0 8 2a2.12 2.12 0 0 0 -0.67 1 5.67 5.67 0 0 0 -0.19 1.55l0 5.05 0 0.36a6.06 6.06 0 0 0 -5 2.26 7.57 7.57 0 0 0 -1.49 2.59 7.38 7.38 0 0 0 -0.33 3 19.48 19.48 0 0 0 0.56 3.09A15 15 0 0 0 2 23.8a0.34 0.34 0 0 0 0.45 0.17 0.34 0.34 0 0 0 0.16 -0.45 14.33 14.33 0 0 1 -0.84 -2.86 18.9 18.9 0 0 1 -0.34 -3 7 7 0 0 1 0.35 -2.53 7.41 7.41 0 0 1 1.17 -2.29 5.39 5.39 0 0 1 4.22 -2.29c0 1.44 0.08 2.89 0.18 4.1l0 0.06a4 4 0 0 0 -1.52 1.38 0.3 0.3 0 1 0 0.49 0.35 2.84 2.84 0 0 1 2.28 -1.2c0.69 0 1.14 0.6 1 1.67 0 0.46 -0.48 0.87 -1 1.28a22.86 22.86 0 0 1 -2.56 1.72 1.87 1.87 0 0 0 -0.55 1.73 3.52 3.52 0 0 0 0.94 2.15 0.34 0.34 0 1 0 0.45 -0.51 2.49 2.49 0 0 1 -0.54 -1.39 2.35 2.35 0 0 1 0 -0.89c0 -0.13 0.06 -0.23 0.15 -0.28l0.23 -0.12a5.48 5.48 0 0 0 0.15 1 2.46 2.46 0 0 0 0.62 1.11 2.5 2.5 0 0 0 1.33 0.51 28.31 28.31 0 0 0 2.84 0.14c0.8 0 1.73 0.06 2.84 0.08l2.83 0a5.77 5.77 0 0 0 2.81 -0.54 2.39 2.39 0 0 0 1.15 -1.83c0.1 -0.77 0.17 -1.56 0.2 -2.35 0.05 -1.18 0 -2.36 0 -3.5 0.08 -1.84 0.02 -3.52 0.01 -5.22Z" fill="#020202" fill-rule="evenodd" stroke-width="1"></path>
    <path d="M17.47 13.37a4.82 4.82 0 0 0 0.37 -2.37 3 3 0 0 0 -0.58 -1.55 2.31 2.31 0 0 0 -0.55 -0.45 3.28 3.28 0 0 0 -1 -0.41 6.41 6.41 0 0 0 -0.71 -0.16 3.27 3.27 0 0 0 -0.54 0 1.82 1.82 0 0 0 -1 0.07 4.6 4.6 0 0 0 -1.71 1.15 3.76 3.76 0 0 0 -0.9 1.88 4.1 4.1 0 0 0 0.15 2.1A3.07 3.07 0 0 0 12.1 15a3.82 3.82 0 0 0 1 0.44c-0.35 0.15 -0.71 0.31 -0.93 0.43a0.3 0.3 0 0 0 -0.15 0.4 0.3 0.3 0 0 0 0.39 0.15c0.2 -0.07 0.52 -0.16 0.85 -0.24a5.72 5.72 0 0 1 0.83 -0.14A3.58 3.58 0 0 1 15 16a5.23 5.23 0 0 1 0.89 0.2 7.83 7.83 0 0 1 1.79 0.79 4 4 0 0 1 0.7 0.48 2.4 2.4 0 0 1 0.56 0.6 0.35 0.35 0 0 0 0.46 0.15 0.34 0.34 0 0 0 0.14 -0.46 3.27 3.27 0 0 0 -0.59 -0.87 6.83 6.83 0 0 0 -0.76 -0.7 7.52 7.52 0 0 0 -1.95 -1.08l-0.3 -0.08a3.57 3.57 0 0 0 1.53 -1.66Zm-5.54 -0.19a3 3 0 0 1 -0.2 -1.55 2.81 2.81 0 0 1 0.56 -1.48c1 -1.21 1.67 -1.36 3.25 -0.85a2.67 2.67 0 0 1 0.62 0.28 1.46 1.46 0 0 1 0.44 0.42 2.2 2.2 0 0 1 0.33 1.42 3.78 3.78 0 0 1 -0.39 1.51 2.65 2.65 0 0 1 -1.12 1.15 2.77 2.77 0 0 1 -1.57 0.32 2.43 2.43 0 0 1 -1.14 -0.4 1.89 1.89 0 0 1 -0.78 -0.82Z" fill="#4C57E6" fill-rule="evenodd" stroke-width="1"></path>
  </g>
</svg>