<svg xmlns="http://www.w3.org/2000/svg" viewBox="0 0 24 24" id="Phone-Actions-Remove--Streamline-Freehand">
  <desc>
    Phone Actions Remove Streamline Icon: https://streamlinehq.com
  </desc>
  <g>
    <path d="M17.62 19.87a7.81 7.81 0 0 0 -0.56 -0.68c-0.37 -0.46 -0.74 -0.92 -1.14 -1.36a11.5 11.5 0 0 0 -0.85 -0.86 6 6 0 0 0 -0.76 -0.64 1.73 1.73 0 0 0 -0.81 -0.33 1.25 1.25 0 0 0 -0.67 0.18c-0.46 0.26 -1.09 0.89 -1.67 1.29a2.08 2.08 0 0 1 -0.38 0.21c-0.07 0 -0.14 0.07 -0.19 0L7.41 14c-0.43 -0.47 -1 -1 -1.53 -1.63a3.56 3.56 0 0 1 -0.69 -1.15c-0.05 -0.16 0.08 -0.32 0.23 -0.51 0.41 -0.48 1.12 -1.03 1.58 -1.53a1.77 1.77 0 0 0 0.48 -0.85 0.74 0.74 0 0 0 -0.1 -0.49c-0.12 -0.2 -0.33 -0.39 -0.43 -0.53L5.17 5a0.3 0.3 0 0 0 -0.47 0.37l1.69 2.32 0.41 0.53c0 0.25 -0.34 0.51 -0.65 0.81a11.11 11.11 0 0 0 -1.43 1.37 1.27 1.27 0 0 0 -0.28 1.08 4.62 4.62 0 0 0 0.8 1.44c0.48 0.62 1.09 1.21 1.52 1.7l3.05 3.75a1.09 1.09 0 0 0 1.24 0.34 6.47 6.47 0 0 0 1.7 -1.11 6.4 6.4 0 0 1 0.53 -0.39c0.06 0 0.17 0 0.17 -0.07a0.84 0.84 0 0 1 0.35 0.18 5.87 5.87 0 0 1 0.51 0.46 9.7 9.7 0 0 1 0.77 0.8c0.38 0.42 0.74 0.87 1.09 1.32 0.13 0.16 0.31 0.34 0.45 0.54a1.05 1.05 0 0 1 0.15 0.24c0.13 0.43 -0.24 0.76 -0.63 1.06a5.1 5.1 0 0 1 -1.58 0.8 8.49 8.49 0 0 1 -6 -0.5 14.87 14.87 0 0 1 -4.88 -3.88 10.85 10.85 0 0 1 -2.81 -6.78C0.76 8.27 2.2 5.71 3.76 5a0.34 0.34 0 1 0 -0.3 -0.62C1.71 5.15 0 7.93 0 11.4a11.75 11.75 0 0 0 3 7.4A15.73 15.73 0 0 0 8.13 23a9.52 9.52 0 0 0 6.72 0.61 6.12 6.12 0 0 0 2.35 -1.3 2 2 0 0 0 0.66 -2 1.9 1.9 0 0 0 -0.24 -0.44Z" fill="#020202" fill-rule="evenodd" stroke-width="1"></path>
    <path d="M23.83 4a5.29 5.29 0 0 0 -0.66 -1.74 3.56 3.56 0 0 0 -0.49 -0.6 8.76 8.76 0 0 0 -0.82 -0.66c-0.24 -0.16 -0.48 -0.34 -0.73 -0.48a3.24 3.24 0 0 0 -0.6 -0.27 6 6 0 0 0 -3.46 0 6.93 6.93 0 0 0 -3 1.71 5.11 5.11 0 0 0 -0.71 0.9 9.41 9.41 0 0 0 -0.53 1 6.25 6.25 0 0 0 -0.55 3 4.08 4.08 0 0 0 0.36 1.38 0.61 0.61 0 0 0 0 0.11 3.89 3.89 0 0 0 0.93 1.33 7.51 7.51 0 0 0 1.89 1.4 6.14 6.14 0 0 0 2 0.51 6.25 6.25 0 0 0 2.06 -0.12 6 6 0 0 0 1.76 -0.68 4.74 4.74 0 0 0 1.43 -1.3 6.12 6.12 0 0 0 0.78 -1.35 4.86 4.86 0 0 0 0.36 -1.56A11.3 11.3 0 0 0 23.83 4Zm-1 2.57a3.48 3.48 0 0 1 -0.25 1.2A5.51 5.51 0 0 1 22 8.89 4.21 4.21 0 0 1 20.85 10a5.66 5.66 0 0 1 -1.47 0.62 5.35 5.35 0 0 1 -1.77 0.16 5 5 0 0 1 -1.72 -0.37 6.83 6.83 0 0 1 -1.47 -1 3.82 3.82 0 0 1 -1.07 -1.3 0.28 0.28 0 0 0 -0.1 -0.14A3.57 3.57 0 0 1 13 6.38a5.51 5.51 0 0 1 0.6 -2.17 6.71 6.71 0 0 1 0.51 -0.86 4 4 0 0 1 0.63 -0.74 6 6 0 0 1 2.59 -1.35 5.06 5.06 0 0 1 2.84 0 2.35 2.35 0 0 1 0.39 0.19c0.22 0.13 0.43 0.28 0.64 0.43s0.39 0.29 0.58 0.46a2.31 2.31 0 0 1 0.41 0.47 4.17 4.17 0 0 1 0.51 1.36 9.66 9.66 0 0 1 0.11 2.39Z" fill="#4C57E6" fill-rule="evenodd" stroke-width="1"></path>
    <path d="M19.74 6.72c-0.2 -0.26 -0.41 -0.51 -0.63 -0.76a14.57 14.57 0 0 0 1.12 -1.55 0.3 0.3 0 1 0 -0.46 -0.41c-0.45 0.4 -0.93 0.74 -1.39 1.13l-0.08 0.07c-0.12 -0.07 -0.23 -0.2 -0.3 -0.2 -0.49 -0.33 -1 -0.6 -1.47 -1a0.3 0.3 0 0 0 -0.43 0 0.3 0.3 0 0 0 0 0.42A12.84 12.84 0 0 0 17.49 6l-0.21 0.22c-0.41 0.46 -0.79 0.94 -1.18 1.41a0.36 0.36 0 0 0 0 0.49 0.34 0.34 0 0 0 0.48 0c0.49 -0.39 1 -0.74 1.48 -1.15l0.29 -0.26c0.25 0.19 0.51 0.37 0.75 0.58l0.59 0.5a0.35 0.35 0 0 0 0.48 0.09 0.34 0.34 0 0 0 0.09 -0.47Z" fill="#020202" fill-rule="evenodd" stroke-width="1"></path>
  </g>
</svg>