<svg xmlns="http://www.w3.org/2000/svg" viewBox="0 0 24 24" id="Phone-Actions-Smile--Streamline-Freehand">
  <desc>
    Phone Actions Smile Streamline Icon: https://streamlinehq.com
  </desc>
  <g>
    <path d="M17.61 19.87c-0.17 -0.25 -0.4 -0.48 -0.56 -0.68 -0.37 -0.47 -0.74 -0.93 -1.14 -1.37a11.63 11.63 0 0 0 -0.86 -0.86 4.85 4.85 0 0 0 -0.76 -0.64 1.61 1.61 0 0 0 -0.81 -0.28 1.14 1.14 0 0 0 -0.66 0.17c-0.47 0.26 -1.09 0.9 -1.68 1.3a2 2 0 0 1 -0.38 0.2c-0.07 0 -0.14 0.07 -0.19 0L7.39 14c-0.43 -0.47 -1 -1 -1.53 -1.63a3.49 3.49 0 0 1 -0.69 -1.15c0 -0.16 0.08 -0.33 0.23 -0.51 0.41 -0.5 1.12 -1.04 1.6 -1.54a1.86 1.86 0 0 0 0.48 -0.85 0.73 0.73 0 0 0 -0.1 -0.49 5.41 5.41 0 0 0 -0.43 -0.53L5.15 5a0.31 0.31 0 0 0 -0.43 0 0.3 0.3 0 0 0 0 0.43l1.65 2.24 0.41 0.53c0 0.26 -0.34 0.52 -0.66 0.81a11.72 11.72 0 0 0 -1.42 1.38 1.2 1.2 0 0 0 -0.28 1.07 4.36 4.36 0 0 0 0.8 1.45c0.48 0.62 1.09 1.21 1.52 1.7l3.06 3.75a1.06 1.06 0 0 0 1.2 0.34 5.87 5.87 0 0 0 1.7 -1.11 6.42 6.42 0 0 1 0.54 -0.39c0.06 0 0.16 0 0.17 -0.07a0.84 0.84 0 0 1 0.35 0.18c0.18 0.15 0.35 0.32 0.51 0.47s0.52 0.52 0.77 0.79c0.38 0.43 0.73 0.88 1.08 1.32 0.14 0.17 0.31 0.35 0.46 0.55a0.75 0.75 0 0 1 0.15 0.24c0.13 0.42 -0.24 0.76 -0.63 1.06a4.78 4.78 0 0 1 -1.59 0.79 8.43 8.43 0 0 1 -6 -0.49 15 15 0 0 1 -4.81 -3.89 10.87 10.87 0 0 1 -2.86 -6.79C0.73 8.25 2.17 5.69 3.73 4.93a0.35 0.35 0 0 0 0.16 -0.46 0.34 0.34 0 0 0 -0.45 -0.16C1.69 5.13 0 7.92 0 11.38a11.73 11.73 0 0 0 3 7.42A15.63 15.63 0 0 0 8.11 23a9.55 9.55 0 0 0 6.73 0.61 6.09 6.09 0 0 0 2.34 -1.3 2 2 0 0 0 0.67 -2 1.84 1.84 0 0 0 -0.24 -0.44Z" fill="#020202" fill-rule="evenodd" stroke-width="1"></path>
    <path d="M23.61 4.56a7.3 7.3 0 0 0 -1.28 -2.67A4.4 4.4 0 0 0 20.71 0.57a7.46 7.46 0 0 0 -2.13 -0.52 9.18 9.18 0 0 0 -2.16 0 8.79 8.79 0 0 0 -3.14 1 8.93 8.93 0 0 0 -2.48 2.18 5.71 5.71 0 0 0 -1.27 2.51A4.2 4.2 0 0 0 10 8.55c0.22 0.42 0.75 1 1.06 1.55a1.26 1.26 0 0 1 0.2 0.58l-0.47 0.57c-0.26 0.38 -0.52 0.76 -0.76 1.16s-0.32 0.55 -0.46 0.83a0.3 0.3 0 0 0 0.14 0.4 0.29 0.29 0 0 0 0.37 -0.08s0 0 0 0.06a0.35 0.35 0 0 0 0.44 0.21l2.73 -1c0.31 -0.11 0.63 -0.27 0.95 -0.38a2 2 0 0 1 0.57 -0.13l0.64 0.32a6.61 6.61 0 0 0 0.74 0.28 5.49 5.49 0 0 0 0.78 0.18 7.15 7.15 0 0 0 3.54 -0.35 4.83 4.83 0 0 0 2.73 -2.35 7.72 7.72 0 0 0 0.8 -2.9 10.74 10.74 0 0 0 -0.39 -2.94ZM22.26 10a3.85 3.85 0 0 1 -2.17 1.94 6.16 6.16 0 0 1 -3.08 0.38 5.64 5.64 0 0 1 -0.67 -0.13c-0.22 -0.06 -0.43 -0.14 -0.64 -0.22s-0.39 -0.23 -0.59 -0.31a1.09 1.09 0 0 0 -0.44 -0.06 2.4 2.4 0 0 0 -0.59 0.13c-0.39 0.12 -0.77 0.32 -1.13 0.47l-2.7 1c0.09 -0.15 0.18 -0.3 0.28 -0.45 0.24 -0.38 0.51 -0.74 0.77 -1.1 0.09 -0.13 0.31 -0.31 0.45 -0.5a0.79 0.79 0 0 0 0.17 -0.45 1.8 1.8 0 0 0 -0.26 -0.93c-0.29 -0.56 -0.79 -1.14 -1 -1.57a3.36 3.36 0 0 1 -0.26 -2.27 4.79 4.79 0 0 1 1.14 -2.07A8.12 8.12 0 0 1 13.78 2a7.79 7.79 0 0 1 2.79 -0.81 7.88 7.88 0 0 1 1.88 0 6.51 6.51 0 0 1 1.8 0.43 3.46 3.46 0 0 1 1.41 1.31 6.22 6.22 0 0 1 0.84 1.9 9.69 9.69 0 0 1 0.39 2.63 6.51 6.51 0 0 1 -0.63 2.54Z" fill="#4C57E6" fill-rule="evenodd" stroke-width="1"></path>
    <path d="m19.76 5.62 -1.31 0.11 -1.54 0c-0.81 0 -1.62 0 -2.35 -0.06a0.3 0.3 0 0 0 0 0.6c0.86 0.09 1.81 0.22 2.75 0.29 0.41 0 0.81 0.06 1.21 0.06h0.95a3.27 3.27 0 0 0 -0.14 0.3A4.15 4.15 0 0 1 18.79 8a2.38 2.38 0 0 1 -0.79 0.75 3 3 0 0 1 -2.07 0.46A2.16 2.16 0 0 1 14.31 8a2.75 2.75 0 0 1 -0.25 -0.91 5.66 5.66 0 0 1 0 -1 0.34 0.34 0 0 0 -0.69 -0.09 6.26 6.26 0 0 0 0 1.36 3.47 3.47 0 0 0 0.22 0.94 3 3 0 0 0 2.18 1.92 4 4 0 0 0 2.88 -0.47 3.74 3.74 0 0 0 1.15 -1.08 4.82 4.82 0 0 0 0.61 -1.38 3.1 3.1 0 0 0 0.17 -1 0.83 0.83 0 0 0 -0.22 -0.52 0.76 0.76 0 0 0 -0.6 -0.15Z" fill="#020202" fill-rule="evenodd" stroke-width="1"></path>
  </g>
</svg>