<svg xmlns="http://www.w3.org/2000/svg" viewBox="0 0 24 24" id="Phone-Actions-Alert--Streamline-Freehand">
  <desc>
    Phone Actions Alert Streamline Icon: https://streamlinehq.com
  </desc>
  <g>
    <path d="M17.61 19.88c-0.17 -0.25 -0.4 -0.48 -0.56 -0.68 -0.37 -0.46 -0.75 -0.92 -1.14 -1.36s-0.56 -0.59 -0.85 -0.86a6 6 0 0 0 -0.76 -0.64 1.61 1.61 0 0 0 -0.81 -0.28 1.1 1.1 0 0 0 -0.66 0.17c-0.47 0.26 -1.09 0.9 -1.68 1.29a2 2 0 0 1 -0.37 0.21c-0.08 0 -0.15 0.07 -0.2 0l-3.17 -3.68c-0.43 -0.47 -1 -1 -1.53 -1.63a3.63 3.63 0 0 1 -0.68 -1.15c-0.06 -0.16 0.07 -0.32 0.22 -0.51 0.41 -0.51 1.12 -1 1.57 -1.55a1.86 1.86 0 0 0 0.48 -0.85 0.73 0.73 0 0 0 -0.1 -0.49c-0.12 -0.2 -0.33 -0.39 -0.43 -0.53L5.17 5.07a0.3 0.3 0 0 0 -0.47 0.37l1.7 2.27 0.4 0.53c0 0.26 -0.34 0.52 -0.65 0.81a12.63 12.63 0 0 0 -1.43 1.37 1.22 1.22 0 0 0 -0.27 1.07 4.2 4.2 0 0 0 0.79 1.44c0.49 0.63 1.09 1.21 1.52 1.7l3.05 3.75a1.07 1.07 0 0 0 1.23 0.34 6.47 6.47 0 0 0 1.7 -1.11 5.12 5.12 0 0 1 0.54 -0.39c0.06 0 0.16 0 0.16 -0.07a0.84 0.84 0 0 1 0.35 0.18 5.87 5.87 0 0 1 0.51 0.46 9.7 9.7 0 0 1 0.77 0.8c0.38 0.42 0.73 0.87 1.08 1.31 0.13 0.17 0.31 0.35 0.46 0.54a0.69 0.69 0 0 1 0.14 0.25c0.14 0.42 -0.23 0.76 -0.62 1.06a5.2 5.2 0 0 1 -1.59 0.79A8.44 8.44 0 0 1 8.6 22a14.83 14.83 0 0 1 -4.87 -3.87A10.81 10.81 0 0 1 0.88 11.4C0.77 8.29 2.21 5.74 3.76 5a0.35 0.35 0 0 0 0.16 -0.46 0.34 0.34 0 0 0 -0.45 -0.16C1.72 5.18 0 8 0.05 11.42A11.72 11.72 0 0 0 3 18.81 15.56 15.56 0 0 0 8.13 23a9.49 9.49 0 0 0 6.71 0.61 6.26 6.26 0 0 0 2.34 -1.29 2 2 0 0 0 0.66 -2 1.8 1.8 0 0 0 -0.23 -0.44Z" fill="#020202" fill-rule="evenodd" stroke-width="1"></path>
    <path d="M23.57 4.55a7.22 7.22 0 0 0 -1.28 -2.67A4.27 4.27 0 0 0 20.68 0.57a7.46 7.46 0 0 0 -2.13 -0.52 9.1 9.1 0 0 0 -2.15 0 8.72 8.72 0 0 0 -3.14 1 9 9 0 0 0 -2.47 2.14 5.58 5.58 0 0 0 -1.26 2.54 4.17 4.17 0 0 0 0.41 2.8c0.23 0.42 0.75 1 1.06 1.54a1.3 1.3 0 0 1 0.2 0.58l-0.47 0.57c-0.26 0.38 -0.52 0.76 -0.76 1.16s-0.31 0.54 -0.45 0.83a0.31 0.31 0 0 0 0.13 0.4 0.3 0.3 0 0 0 0.37 -0.08s0 0 0 0.06a0.35 0.35 0 0 0 0.43 0.21l2.73 -1c0.31 -0.12 0.63 -0.27 1 -0.38a1.9 1.9 0 0 1 0.56 -0.13l0.64 0.32a6.61 6.61 0 0 0 0.74 0.28 5.49 5.49 0 0 0 0.78 0.18 7.23 7.23 0 0 0 3.53 -0.35 4.84 4.84 0 0 0 2.76 -2.39A7.45 7.45 0 0 0 24 7.48a10.67 10.67 0 0 0 -0.43 -2.93ZM22.23 10a3.86 3.86 0 0 1 -2.17 1.93 6.22 6.22 0 0 1 -3.07 0.38 5.64 5.64 0 0 1 -0.67 -0.13c-0.22 -0.06 -0.43 -0.14 -0.64 -0.22a6.54 6.54 0 0 0 -0.59 -0.3 1 1 0 0 0 -0.44 -0.07 2.5 2.5 0 0 0 -0.59 0.13c-0.38 0.12 -0.76 0.32 -1.13 0.47l-2.68 1 0.27 -0.45c0.24 -0.38 0.51 -0.75 0.77 -1.1 0.09 -0.12 0.31 -0.31 0.45 -0.5a0.79 0.79 0 0 0 0.17 -0.44 1.86 1.86 0 0 0 -0.26 -0.94c-0.29 -0.55 -0.79 -1.13 -1 -1.56a3.34 3.34 0 0 1 -0.27 -2.26 4.79 4.79 0 0 1 1.14 -2.07A8.07 8.07 0 0 1 13.77 2a7.88 7.88 0 0 1 2.78 -0.82 8.44 8.44 0 0 1 1.88 0 6.44 6.44 0 0 1 1.79 0.43 3.45 3.45 0 0 1 1.41 1.31 6.07 6.07 0 0 1 0.84 1.89 9.26 9.26 0 0 1 0.38 2.62 6.52 6.52 0 0 1 -0.62 2.57Z" fill="#4C57E6" fill-rule="evenodd" stroke-width="1"></path>
    <path d="M17.25 2.58a0.3 0.3 0 0 0 -0.25 0.34c0 0.62 -0.09 1.22 -0.15 1.85 0 0.27 -0.05 0.53 -0.06 0.8s0 0.53 0 0.8l0 1.9a0.34 0.34 0 0 0 0.68 0.08c0.14 -0.62 0.3 -1.24 0.4 -1.89a5.7 5.7 0 0 0 0.1 -0.83 5.89 5.89 0 0 0 0 -0.84 9.84 9.84 0 0 0 -0.35 -1.95 0.3 0.3 0 0 0 -0.37 -0.26Z" fill="#020202" fill-rule="evenodd" stroke-width="1"></path>
    <path d="M17.17 9.46a1 1 0 0 0 -1.2 0.35 0.86 0.86 0 0 0 0.28 1.19 1 1 0 0 0 1.21 0 1 1 0 0 0 -0.29 -1.54Z" fill="#020202" fill-rule="evenodd" stroke-width="1"></path>
  </g>
</svg>