<svg xmlns="http://www.w3.org/2000/svg" viewBox="0 0 24 24" id="Piracy-Captain-Hat-1--Streamline-Freehand">
  <desc>
    Piracy Captain Hat 1 Streamline Icon: https://streamlinehq.com
  </desc>
  <title>piracy-captain-hat-1</title>
  <g>
    <path d="M12.3 8.12a0.66 0.66 0 0 0 -0.46 -0.34 0.78 0.78 0 0 0 -0.63 0.17 1.17 1.17 0 0 0 -0.39 0.51 1 1 0 0 0 0 0.77 0.86 0.86 0 0 0 0.77 0.47 0.84 0.84 0 0 0 0.71 -0.36 0.91 0.91 0 0 0 0.18 -0.48 1.16 1.16 0 0 0 -0.14 -0.62 0.27 0.27 0 0 0 -0.04 -0.12Z" fill="#020202" fill-rule="evenodd" stroke-width="1"></path>
    <path d="M14.79 8a0.33 0.33 0 0 0 -0.17 -0.1l-0.15 -0.12a0.69 0.69 0 0 0 -0.58 0c-0.19 0 -0.29 0.23 -0.42 0.42a1.09 1.09 0 0 0 -0.1 0.54 1 1 0 0 0 0.27 0.56 1 1 0 0 0 0.86 0.29 0.73 0.73 0 0 0 0.58 -0.47 1 1 0 0 0 0 -0.53 1 1 0 0 0 -0.29 -0.59Z" fill="#020202" fill-rule="evenodd" stroke-width="1"></path>
    <path d="M16.87 6a1.76 1.76 0 0 0 0.24 -0.3c0.66 -0.91 0.63 -1.07 0.47 -1.23s-0.32 -0.16 -1.22 0.5a3.22 3.22 0 0 0 -0.28 0.24 2.09 2.09 0 0 0 -0.24 0.28 2.74 2.74 0 0 0 -0.24 0.39A3.44 3.44 0 0 0 13.34 5a4.26 4.26 0 0 0 -3.52 1.36c-0.1 -0.15 -0.21 -0.29 -0.33 -0.44a2.57 2.57 0 0 0 -0.29 -0.28 2.75 2.75 0 0 0 -0.33 -0.23c-1 -0.62 -1.14 -0.61 -1.3 -0.42s-0.14 0.34 0.63 1.22l0.28 0.28a2.43 2.43 0 0 0 0.32 0.24 3.6 3.6 0 0 0 0.52 0.27 3.9 3.9 0 0 0 -0.53 1.32A2.62 2.62 0 0 0 9 10.11a2.25 2.25 0 0 0 0.34 0.47l0.19 0.16c-0.15 0.09 -0.31 0.17 -0.46 0.28a2.2 2.2 0 0 0 -0.28 0.24 2.17 2.17 0 0 0 -0.24 0.29c-0.67 0.9 -0.65 1 -0.49 1.21s0.31 0.19 1.22 -0.47a1.68 1.68 0 0 0 0.29 -0.24 1.67 1.67 0 0 0 0.25 -0.28 4.91 4.91 0 0 0 0.33 -0.59 1.76 1.76 0 0 0 0.2 0.09l0.3 0a2.35 2.35 0 0 0 0.14 0.66 1.23 1.23 0 0 0 0.7 0.7 1.16 1.16 0 0 0 0.65 0.06 1.74 1.74 0 0 0 0.68 -0.34c0.05 0 0.13 -0.07 0.16 -0.1a1.06 1.06 0 0 0 0.29 0.27 1.09 1.09 0 0 0 0.43 0.09 1.15 1.15 0 0 0 1.09 -0.56 1.67 1.67 0 0 0 0.18 -0.76 4.06 4.06 0 0 0 0.26 0.36c0.09 0.11 0.19 0.21 0.29 0.31l0.34 0.25c1 0.66 1.15 0.68 1.32 0.49s0.12 -0.38 -0.62 -1.26c-0.09 -0.11 -0.19 -0.21 -0.29 -0.31l-0.27 -0.22 -0.16 -0.09a1.58 1.58 0 0 0 0.83 -0.57 1.66 1.66 0 0 0 0.32 -1A5.08 5.08 0 0 0 16.86 8a3.58 3.58 0 0 0 -0.47 -1.2 3.29 3.29 0 0 0 -0.23 -0.33 4.49 4.49 0 0 0 0.42 -0.24 2.37 2.37 0 0 0 0.29 -0.23Zm-0.78 3.84a0.79 0.79 0 0 1 -0.47 0.35l-0.1 0.05a0.32 0.32 0 0 0 -0.17 0l-0.62 0a0.38 0.38 0 0 0 -0.35 0.35 2.52 2.52 0 0 1 -0.08 1 0.46 0.46 0 0 1 -0.54 0.31c-0.18 0 -0.25 -0.15 -0.32 -0.23a1 1 0 0 0 -0.28 -0.18 0.77 0.77 0 0 0 -0.27 0 0.89 0.89 0 0 0 -0.33 0.12 1.89 1.89 0 0 1 -0.47 0.29 0.24 0.24 0 0 1 -0.2 0 0.35 0.35 0 0 1 -0.2 -0.31 4.47 4.47 0 0 1 0 -0.74 0.5 0.5 0 0 0 -0.47 -0.46l-0.42 0a0.28 0.28 0 0 1 -0.16 -0.06 2.74 2.74 0 0 1 -0.36 -0.32A1.41 1.41 0 0 1 10 9.6a1.62 1.62 0 0 1 -0.12 -1.08 2.8 2.8 0 0 1 0.5 -1.11 3.45 3.45 0 0 1 1.28 -1.07A3.69 3.69 0 0 1 13.3 6a2.82 2.82 0 0 1 1.34 0.34 3.28 3.28 0 0 1 1 1 2.73 2.73 0 0 1 0.41 0.92 4.68 4.68 0 0 1 0.16 1 1 1 0 0 1 -0.12 0.58Z" fill="#020202" fill-rule="evenodd" stroke-width="1"></path>
    <path d="M23.64 18.28c0.13 -0.71 0.25 -1.43 0.36 -2.15a0.36 0.36 0 0 0 -0.65 -0.26 2.94 2.94 0 0 1 -2.52 0.88c-0.94 -0.06 -1.85 -0.45 -1.9 -1.36a2.47 2.47 0 0 1 0.2 -1c0.36 -0.88 1 -1.69 1.42 -2.52s0.8 -1.48 1.1 -2.25A5 5 0 0 0 22 8.45a6.37 6.37 0 0 0 -2.74 -6.18A10.9 10.9 0 0 0 12.63 0.49 10.78 10.78 0 0 0 5 3.94a6.08 6.08 0 0 0 -1.31 5.61A9.42 9.42 0 0 0 4.21 11a6.29 6.29 0 0 0 0.84 1.38A4.26 4.26 0 0 1 5.88 14a2.63 2.63 0 0 1 -0.08 1.66 2.42 2.42 0 0 1 -2.15 1.6 3.88 3.88 0 0 1 -2.82 -0.89 0.5 0.5 0 0 0 -0.58 -0.05 0.51 0.51 0 0 0 -0.24 0.53l0.75 4a0.48 0.48 0 0 0 0.5 0.38c3 -0.25 6.08 -0.52 9.13 -0.68 2 -0.1 4 -0.16 6.09 -0.13 0.86 0 1.72 0.06 2.57 0.11 1.29 0.09 2.58 0.21 3.88 0.3a0.28 0.28 0 0 0 0.31 -0.26 0.26 0.26 0 0 0 0 -0.15c0.13 -0.71 0.27 -1.42 0.4 -2.14Zm-0.64 -0.12c-0.12 0.7 -0.25 1.39 -0.38 2.08 -1.17 -0.11 -2.33 -0.23 -3.49 -0.32 -0.87 -0.07 -1.74 -0.13 -2.61 -0.16 -2 -0.06 -4.09 0 -6.13 0 -2.92 0.1 -5.83 0.3 -8.74 0.49l-0.43 -2.49a4.87 4.87 0 0 0 2.56 0.5A3.43 3.43 0 0 0 6.82 16 3.66 3.66 0 0 0 7 13.71a5.21 5.21 0 0 0 -1 -2 5.16 5.16 0 0 1 -0.69 -1.15 7.8 7.8 0 0 1 -0.45 -1.31 5.22 5.22 0 0 1 1.94 -5.5 10.21 10.21 0 0 1 6 -2.21 9.76 9.76 0 0 1 6 1.52 5.43 5.43 0 0 1 2.41 5.27 4.2 4.2 0 0 1 -0.35 1.23c-0.28 0.64 -0.65 1.27 -0.93 1.9 -0.37 0.84 -1 1.68 -1.39 2.57a3.14 3.14 0 0 0 -0.24 1.39 2.2 2.2 0 0 0 2 2 4.55 4.55 0 0 0 2.86 -0.42c-0.06 0.37 -0.16 0.77 -0.16 1.16Z" fill="#020202" fill-rule="evenodd" stroke-width="1"></path>
    <path d="M22.43 22.86c-2.44 -0.2 -4.87 -0.4 -7.3 -0.5 -1.05 -0.05 -2.09 -0.08 -3.14 -0.09s-2.09 0 -3.14 0c-2.44 0.09 -4.87 0.3 -7.31 0.58a0.28 0.28 0 0 0 -0.26 0.31 0.29 0.29 0 0 0 0.31 0.27c2.08 -0.1 4.16 -0.12 6.24 -0.11l2.33 0 3.49 0c2.91 0 5.82 0 8.74 0.12a0.33 0.33 0 0 0 0.35 -0.32 0.32 0.32 0 0 0 -0.31 -0.26Z" fill="#4C57E6" fill-rule="evenodd" stroke-width="1"></path>
  </g>
</svg>