<svg xmlns="http://www.w3.org/2000/svg" viewBox="0 0 24 24" id="Piracy-Hacker--Streamline-Freehand">
  <desc>
    Piracy Hacker Streamline Icon: https://streamlinehq.com
  </desc>
  <title>piracy-hacker</title>
  <g>
    <path d="M22.66 22.8H17.1l-2 -4.95a20.14 20.14 0 0 0 -1 -2.56 3.63 3.63 0 0 0 -1.34 -1.5 3 3 0 0 0 -0.86 -0.34 7.62 7.62 0 0 0 -1.26 -0.16c-0.95 -0.06 -1.9 -0.1 -2.86 -0.11l-4.26 0a5.38 5.38 0 0 0 -2.05 0.31 2.3 2.3 0 0 0 -1.21 1.1A2.51 2.51 0 0 0 0 16.06a7.07 7.07 0 0 0 0.56 1.83c0.38 0.94 0.78 1.87 1.21 2.78s0.87 1.83 1.34 2.72a0.53 0.53 0 0 0 0.48 0.3l7.62 0c3.82 -0.05 7.63 -0.15 11.43 -0.21a0.34 0.34 0 0 0 0 -0.68Zm-11.43 0c-2.42 0 -4.85 -0.07 -7.27 -0.15 -0.39 -0.8 -0.78 -1.6 -1.14 -2.41S2 18.39 1.63 17.46a6.06 6.06 0 0 1 -0.48 -1.53 1.41 1.41 0 0 1 0.12 -0.83 1.2 1.2 0 0 1 0.61 -0.57 4.67 4.67 0 0 1 1.63 -0.24c1.42 0 2.83 -0.09 4.24 -0.11l2.81 0a6.84 6.84 0 0 1 1.11 0.11 2 2 0 0 1 0.62 0.22 2.88 2.88 0 0 1 1.07 1.14 22.57 22.57 0 0 1 1.06 2.44l2 4.66Z" fill="#4C57E6" fill-rule="evenodd" stroke-width="1"></path>
    <path d="M8.47 17.55a0.35 0.35 0 0 0 -0.17 0.45 0.85 0.85 0 0 1 -0.3 1.05 0.7 0.7 0 0 1 -0.91 -0.23 1.39 1.39 0 0 1 -0.3 -0.48 1.14 1.14 0 0 1 -0.11 -0.54 0.74 0.74 0 0 1 0.3 -0.58 0.81 0.81 0 0 1 0.73 -0.09 0.3 0.3 0 0 0 0.4 -0.13 0.3 0.3 0 0 0 -0.11 -0.4 1.48 1.48 0 0 0 -1.35 -0.09 1.62 1.62 0 0 0 -0.94 1.1 2 2 0 0 0 0.05 1.1 2.24 2.24 0 0 0 0.57 0.92 1.68 1.68 0 0 0 2.26 0.18 1.64 1.64 0 0 0 0.36 -2.09 0.34 0.34 0 0 0 -0.48 -0.17Z" fill="#020202" fill-rule="evenodd" stroke-width="1"></path>
    <path d="M14 9.94a5.5 5.5 0 0 0 1.37 0.45 6.06 6.06 0 0 0 3.18 -0.24 4.46 4.46 0 0 0 2.47 -2.09 6.71 6.71 0 0 0 0.13 -5.25A3.66 3.66 0 0 0 18.52 0.47a0.35 0.35 0 0 0 -0.41 0.26 0.34 0.34 0 0 0 0.26 0.4 3.22 3.22 0 0 1 2.28 2.71 5.77 5.77 0 0 1 -0.42 3.57l-0.45 -0.34 -0.37 -0.25A3.84 3.84 0 0 0 19 6.6l-0.55 -0.24a2 2 0 0 0 -0.39 -2.72 0.39 0.39 0 0 0 -0.31 -0.07 0.23 0.23 0 0 0 -0.12 -0.06 2.54 2.54 0 0 0 -1.29 -0.08 2.28 2.28 0 0 0 -1.16 0.57c-0.14 -0.2 -0.26 -0.41 -0.4 -0.62s-0.23 -0.36 -0.36 -0.52a7.37 7.37 0 0 0 -0.54 -0.57 3 3 0 0 1 0.27 -0.29 3.1 3.1 0 0 1 1.61 -0.92 5.15 5.15 0 0 1 2 -0.05 0.29 0.29 0 0 0 0.34 -0.24 0.3 0.3 0 0 0 -0.24 -0.35 6.09 6.09 0 0 0 -2.21 0 3.93 3.93 0 0 0 -2 1 6.15 6.15 0 0 0 -1.64 3.84 5.3 5.3 0 0 0 1.25 4.07 3 3 0 0 0 0.74 0.59Zm1.86 -5.32a1.3 1.3 0 0 1 0.69 -0.5 1.8 1.8 0 0 1 0.97 -0.12h0.09l0.06 0.07a1.23 1.23 0 0 1 0 1.67 1.11 1.11 0 0 1 -1.46 0.42 0.91 0.91 0 0 1 -0.48 -0.67 1.14 1.14 0 0 1 0.16 -0.87Zm-2.5 -1.32 0 0.1a2.75 2.75 0 0 0 0.24 0.41 3.49 3.49 0 0 0 0.32 0.35 4.22 4.22 0 0 0 0.83 0.57 2.27 2.27 0 0 0 -0.11 1 2 2 0 0 0 1.08 1.51 2.09 2.09 0 0 0 2.2 -0.24 4.14 4.14 0 0 0 0.5 0.53 2.27 2.27 0 0 0 0.4 0.29 3.1 3.1 0 0 0 0.45 0.21 4 4 0 0 0 0.45 0.16 3.67 3.67 0 0 1 -1.51 0.95 5.07 5.07 0 0 1 -2.59 0.16 4.14 4.14 0 0 1 -0.91 -0.3 2 2 0 0 1 -0.71 -0.47 4.25 4.25 0 0 1 -1.05 -3.22 5.86 5.86 0 0 1 0.41 -2.01Z" fill="#020202" fill-rule="evenodd" stroke-width="1"></path>
    <path d="M23.91 17.49a8.74 8.74 0 0 0 -0.68 -2.36 6.43 6.43 0 0 0 -1.66 -2.2 6.74 6.74 0 0 0 -2.42 -1.29 7.46 7.46 0 0 0 -5.25 0.42 0.29 0.29 0 0 0 -0.15 0.39 0.3 0.3 0 0 0 0.39 0.16 6.81 6.81 0 0 1 4.69 0 6.72 6.72 0 0 1 1.45 0.77 4.84 4.84 0 0 1 -1.22 0.68 9 9 0 0 1 -1.18 0.37 7.61 7.61 0 0 1 -1.91 0.28 0.3 0.3 0 0 0 -0.34 0.26 0.29 0.29 0 0 0 0.25 0.33 6.08 6.08 0 0 0 2.14 0.21 4 4 0 0 0 0.91 -0.2 4.05 4.05 0 0 0 2 -1.43 5.44 5.44 0 0 1 1.32 1.7 8 8 0 0 1 0.76 2 19.45 19.45 0 0 1 0.24 3.41 0.34 0.34 0 0 0 0.68 0 21 21 0 0 0 -0.02 -3.5Z" fill="#020202" fill-rule="evenodd" stroke-width="1"></path>
  </g>
</svg>