<svg xmlns="http://www.w3.org/2000/svg" viewBox="0 0 24 24" id="Piracy-Ship-1--Streamline-Freehand">
  <desc>
    Piracy Ship 1 Streamline Icon: https://streamlinehq.com
  </desc>
  <title>piracy-ship-1</title>
  <g>
    <path d="M23.66 14.47a1.34 1.34 0 0 0 -0.61 -0.44 3.38 3.38 0 0 0 -0.87 -0.15c-0.62 -0.06 -1.27 -0.14 -1.92 -0.15a6.67 6.67 0 0 0 -1.34 0.1 1.9 1.9 0 0 0 -1.32 0.84 5.69 5.69 0 0 0 -0.6 1.44 2 2 0 0 1 -0.6 1 1 1 0 0 1 -0.62 0.18 8.48 8.48 0 0 1 -1.38 -0.11 12.54 12.54 0 0 1 -3.22 -0.42 1.69 1.69 0 0 1 -1.09 -1.23 0.58 0.58 0 0 0 -0.44 -0.44c-1 -0.21 -2 -0.43 -3.05 -0.67s-2 -0.48 -3 -0.76a0.77 0.77 0 0 0 -0.26 0l-0.68 -0.51c-0.15 -0.1 -0.3 -0.2 -0.46 -0.29a3.62 3.62 0 0 0 -0.48 -0.25c-0.41 -0.17 -0.81 -0.27 -1.24 -0.41a0.3 0.3 0 0 0 -0.28 0.53c0.33 0.28 0.63 0.57 1 0.83a3.64 3.64 0 0 0 0.46 0.3 4.52 4.52 0 0 0 0.5 0.23 6.55 6.55 0 0 0 0.74 0.27c0 0.46 -0.06 0.91 0 1.37a14 14 0 0 0 0.11 1.56 9.1 9.1 0 0 0 0.58 2.31 5.15 5.15 0 0 0 0.77 1.4 6.58 6.58 0 0 0 3.25 1.6 43.83 43.83 0 0 0 7.9 1 7 7 0 0 0 2.21 -0.13 2.48 2.48 0 0 0 1.34 -0.88 1.64 1.64 0 0 0 0.27 -0.51c0.11 -0.34 0.15 -0.76 0.22 -1a5 5 0 0 1 0.55 -1.14 1.39 1.39 0 0 1 0.55 -0.47c0.63 -0.27 1.44 -0.23 2.07 -0.53a1.83 1.83 0 0 0 0.83 -0.74 3.49 3.49 0 0 0 0.22 -0.53 7.11 7.11 0 0 0 0.15 -0.75 5.85 5.85 0 0 0 0.08 -1.45 1.81 1.81 0 0 0 -0.34 -1Zm-0.54 2.23a5.24 5.24 0 0 1 -0.12 0.67 1.66 1.66 0 0 1 -0.14 0.37 1.24 1.24 0 0 1 -0.73 0.57c-0.58 0.2 -1.25 0.22 -1.8 0.47a2 2 0 0 0 -0.8 0.7 5.68 5.68 0 0 0 -0.6 1.31c-0.07 0.24 -0.11 0.57 -0.19 0.87a0.94 0.94 0 0 1 -0.18 0.39 1.82 1.82 0 0 1 -1 0.63 6.69 6.69 0 0 1 -2 0.06 50.31 50.31 0 0 1 -6.63 -0.85c-1.86 -0.4 -3.18 -0.9 -3.79 -1.61a4.15 4.15 0 0 1 -0.79 -1.46 7.64 7.64 0 0 1 -0.35 -1.7 11.8 11.8 0 0 1 -0.08 -1.44l0 -0.78c0.79 0.22 1.59 0.42 2.39 0.61s1.82 0.41 2.74 0.6a2.73 2.73 0 0 0 1.69 1.68 13.63 13.63 0 0 0 3.53 0.46 7.53 7.53 0 0 0 1.85 0.05 2 2 0 0 0 0.91 -0.4 3 3 0 0 0 0.89 -1.46 5.15 5.15 0 0 1 0.47 -1.23 1.06 1.06 0 0 1 0.7 -0.46 5.5 5.5 0 0 1 1.16 -0.11c0.62 0 1.25 0 1.84 0.09a3 3 0 0 1 0.58 0.07 0.54 0.54 0 0 1 0.33 0.2 1.11 1.11 0 0 1 0.19 0.57 4.89 4.89 0 0 1 -0.07 1.13Z" fill="#020202" fill-rule="evenodd" stroke-width="1"></path>
    <path d="m7.4 3.61 0.74 0.08A10.08 10.08 0 0 0 7.16 8a9.94 9.94 0 0 0 1.19 4.84 0.54 0.54 0 0 0 0.43 0.26c1.51 0.1 3 0.14 4.54 0.12 -0.05 0.25 -0.09 0.5 -0.12 0.76a4.78 4.78 0 0 0 0 0.53 4.89 4.89 0 0 0 0 0.54c0 0.42 0.12 0.82 0.17 1.24a0.34 0.34 0 0 0 0.32 0.36 0.35 0.35 0 0 0 0.36 -0.33c0.08 -0.42 0.18 -0.83 0.23 -1.27l0 -0.54a3.27 3.27 0 0 0 0 -0.54 6.38 6.38 0 0 0 -0.15 -0.76c1.45 0 2.9 -0.11 4.35 -0.2a0.53 0.53 0 0 0 0.44 -0.29 0.51 0.51 0 0 0 0 -0.53A7.49 7.49 0 0 1 17.63 8 6.33 6.33 0 0 1 19 4l2.33 0a0.35 0.35 0 0 0 0.36 -0.33 0.33 0.33 0 0 0 -0.33 -0.35c-1.86 -0.16 -3.71 -0.28 -5.58 -0.33l-1.39 0c0 -0.16 0.08 -0.31 0.1 -0.47a2.58 2.58 0 0 0 0 -0.39 2.6 2.6 0 0 0 0 -0.4C14.29 0.43 14.1 0.45 14 0.45s-0.35 0 -0.57 1.22a2.56 2.56 0 0 0 0 0.39 2.85 2.85 0 0 0 0 0.4c0 0.16 0.06 0.31 0.09 0.46h-1.09c-1.67 0 -3.33 0.11 -5 0.1a0.3 0.3 0 1 0 0 0.59ZM13 4l3.34 0 1.76 0a7.33 7.33 0 0 0 -1.34 3.93 8.64 8.64 0 0 0 0.82 4.07c-1.63 0.06 -3.27 0.09 -4.91 0.1 -1.18 0 -2.37 0 -3.55 -0.05A9 9 0 0 1 8 8a9.37 9.37 0 0 1 0.8 -4.23c1.38 0.11 2.78 0.23 4.2 0.23Z" fill="#020202" fill-rule="evenodd" stroke-width="1"></path>
    <path d="M11 7.2a7 7 0 0 1 0.11 -1.65c0 -0.37 -0.19 -0.37 -0.43 0a7.08 7.08 0 0 0 -0.31 1.69 7.54 7.54 0 0 0 0.42 2.55c0.44 0.52 0.82 0.39 0.76 -0.12A6.73 6.73 0 0 1 11 7.2Z" fill="#4C57E6" fill-rule="evenodd" stroke-width="1"></path>
    <path d="M13.3 7.24a7 7 0 0 1 0.11 -1.65c0 -0.37 -0.2 -0.37 -0.43 0a7.44 7.44 0 0 0 -0.32 1.68 7.91 7.91 0 0 0 0.43 2.56c0.44 0.51 0.82 0.39 0.76 -0.12a6.83 6.83 0 0 1 -0.55 -2.47Z" fill="#4C57E6" fill-rule="evenodd" stroke-width="1"></path>
    <path d="M9 18.93c-0.06 -0.07 -0.07 -0.15 -0.15 -0.19s-0.13 -0.09 -0.2 -0.1a0.38 0.38 0 0 0 -0.33 0l-0.07 0 -0.29 0.1c-0.24 0.07 -0.23 0.27 -0.3 0.4s0.07 0.45 0.26 0.66a0.61 0.61 0 0 0 0.21 0.11 0.58 0.58 0 0 0 0.39 0c0.27 -0.07 0.57 -0.19 0.58 -0.51l0 -0.27Z" fill="#020202" fill-rule="evenodd" stroke-width="1"></path>
    <path d="M12.3 19.42h-0.05a0.28 0.28 0 0 0 -0.24 0.08c-0.27 0.09 -0.31 0.4 -0.37 0.67l0 0.25c0.08 0.34 0.43 0.47 0.94 0.37 0.41 -0.26 0.59 -0.52 0.48 -0.8s-0.37 -0.69 -0.76 -0.57Z" fill="#020202" fill-rule="evenodd" stroke-width="1"></path>
    <path d="M16.22 19.75a0.31 0.31 0 0 0 -0.34 0.11 1 1 0 0 0 -0.26 0.1c-0.11 0 -0.16 0.14 -0.25 0.23 -0.24 0.26 -0.1 0.54 0.06 0.8a0.94 0.94 0 0 0 0.83 0.32c0.47 -0.15 0.72 -0.4 0.68 -0.73s-0.27 -0.84 -0.72 -0.83Z" fill="#020202" fill-rule="evenodd" stroke-width="1"></path>
  </g>
</svg>