<svg xmlns="http://www.w3.org/2000/svg" viewBox="0 0 24 24" id="Piracy-Hang-Man--Streamline-Freehand">
  <desc>
    Piracy Hang Man Streamline Icon: https://streamlinehq.com
  </desc>
  <title>piracy-hang-man</title>
  <g>
    <path d="M16.67 8.72c-0.49 -0.43 -1 -0.85 -1.49 -1.27s-1 -0.79 -1.52 -1.17 -0.88 -0.64 -1.32 -1c-0.72 -0.25 -1 -0.14 -1 0.11 0.54 0.61 1.08 1.17 1.66 1.7s1 0.82 1.53 1.21 1.28 0.81 1.9 1.24c0.14 0.09 0.27 0.19 0.4 0.29 0.18 -0.23 0.18 -0.56 -0.08 -1Z" fill="#4C57E6" fill-rule="evenodd" stroke-width="1"></path>
    <path d="M21.56 8.5c0 -1.1 0.05 -2.31 0 -3.47A7.49 7.49 0 0 0 21 2.64a4 4 0 0 0 -1.63 -2A7.25 7.25 0 0 0 15.81 0L11.5 0c-1.44 0 -2.86 0.13 -4.3 0.2a9.21 9.21 0 0 0 -3.55 0.67 2.12 2.12 0 0 0 -1.17 2.5A2.23 2.23 0 0 0 3.93 5a5.28 5.28 0 0 0 1.59 0.31c0 0.28 -0.1 0.55 -0.13 0.83a5.43 5.43 0 0 0 0 1.14c0 0.28 0.1 0.55 0.15 0.81a2.28 2.28 0 0 0 -2.13 0.62 2.56 2.56 0 0 0 -0.59 2.55 2.26 2.26 0 0 0 0.65 1 3.4 3.4 0 0 0 0.72 0.49 4 4 0 0 0 -0.79 1.35 6.19 6.19 0 0 0 -0.35 1.5 12.24 12.24 0 0 0 0 1.48 3.88 3.88 0 0 0 0.3 1.54 1.53 1.53 0 0 0 1 0.78 1.3 1.3 0 0 0 1 -0.12l0 0.55c0 0.49 -0.12 1 -0.14 1.56a4.56 4.56 0 0 0 0.09 1.18 1.78 1.78 0 0 0 1.41 1.36 1.64 1.64 0 0 0 1.27 -0.31 1.51 1.51 0 0 0 0.65 0.34A1.44 1.44 0 0 0 10 23.5a1.87 1.87 0 0 0 0.33 -0.54 3.21 3.21 0 0 0 0.22 -0.79 12.25 12.25 0 0 0 0.13 -1.73 14 14 0 0 0 -0.1 -1.71 2.83 2.83 0 0 0 0.35 -1 8.26 8.26 0 0 0 0 -1.57 7.52 7.52 0 0 0 -1 -3.68 2.76 2.76 0 0 0 -2.24 -1.18 2.28 2.28 0 0 0 0.08 -0.83 2.45 2.45 0 0 0 -0.57 -1.35 3 3 0 0 0 -0.86 -0.69c0 -0.38 0.11 -0.76 0.14 -1.14a5.44 5.44 0 0 0 0 -0.57 3.64 3.64 0 0 0 0 -0.57c0 -0.27 -0.09 -0.54 -0.14 -0.8h0.42l6.39 -0.48a9.85 9.85 0 0 1 1.78 -0.07 2.1 2.1 0 0 1 0.95 0.34 2.27 2.27 0 0 1 0.86 1.43c0.26 1.05 0.38 7.38 0.41 9.94l0 7a0.34 0.34 0 0 0 0.33 0.34 0.34 0.34 0 0 0 0.35 -0.32c0.07 -2.19 0.11 -4.59 0.12 -7s0 -4.8 -0.05 -7a15.14 15.14 0 0 0 -0.22 -3.18 3.29 3.29 0 0 0 -1.23 -2A3 3 0 0 0 15 3.81a10.82 10.82 0 0 0 -2 0l-6.39 0.39A5.76 5.76 0 0 1 4.36 4a1.14 1.14 0 0 1 -0.77 -0.83 1.08 1.08 0 0 1 0.6 -1.28 7.89 7.89 0 0 1 3.07 -0.53c1.42 -0.07 2.85 -0.13 4.27 -0.17s2.85 -0.07 4.27 -0.07a6.15 6.15 0 0 1 3.07 0.47A2.89 2.89 0 0 1 20.1 3a6.2 6.2 0 0 1 0.48 2.07c0.11 1.15 0.05 2.34 0.1 3.42 0.08 1.9 0.1 3.94 0.09 6 0 3.07 -0.09 6.2 -0.17 9a0.3 0.3 0 0 0 0.6 0c0.12 -2.82 0.26 -6 0.33 -9 0.05 -2.03 0.07 -4.08 0.03 -5.99ZM7.48 11.84l0.08 0a2.11 2.11 0 0 1 1.7 1.06 6.63 6.63 0 0 1 0.57 3.27 6.89 6.89 0 0 1 0 1.36 1.77 1.77 0 0 1 -0.23 0.68 0.55 0.55 0 0 1 -0.93 0 1.74 1.74 0 0 1 -0.26 -0.55 5 5 0 0 1 -0.16 -1.07l-0.16 -2.09a0.34 0.34 0 0 0 -0.34 -0.33 0.34 0.34 0 0 0 -0.33 0.34v2.19a6.69 6.69 0 0 0 0.07 1.3 2.56 2.56 0 0 0 0.34 0.88 1.55 1.55 0 0 0 1.31 0.76 1.61 1.61 0 0 0 0.79 -0.21l0 1A11.48 11.48 0 0 1 9.69 22a3.82 3.82 0 0 1 -0.15 0.48 1.09 1.09 0 0 1 -0.23 0.33 0.48 0.48 0 0 1 -0.46 0.14 0.69 0.69 0 0 1 -0.39 -0.41l0 -0.71 0 -0.4c0 -0.13 -0.05 -0.27 -0.08 -0.4 -0.06 -0.33 -0.15 -0.65 -0.2 -1a0.34 0.34 0 0 0 -0.68 0 6.29 6.29 0 0 0 -0.18 1.07 2.57 2.57 0 0 0 0 0.48 1.89 1.89 0 0 0 0.11 0.47 3 3 0 0 0 0.21 0.44 0.64 0.64 0 0 1 -0.64 0.32 0.65 0.65 0 0 1 -0.5 -0.51 3.51 3.51 0 0 1 -0.09 -0.65l0 -1.8a15.39 15.39 0 0 0 -0.19 -2.38 8.48 8.48 0 0 0 -0.71 -2.32A0.31 0.31 0 0 0 5 15a0.3 0.3 0 0 0 -0.15 0.39 7.33 7.33 0 0 1 0.44 1.73 7.37 7.37 0 0 1 0 0.82 1.34 1.34 0 0 1 -0.25 0.49 0.41 0.41 0 0 1 -0.48 0.08 0.59 0.59 0 0 1 -0.33 -0.35 2.88 2.88 0 0 1 -0.11 -1.11l0 -1.38a7.2 7.2 0 0 1 0.1 -1.32A3.07 3.07 0 0 1 4.89 13a2.43 2.43 0 0 0 1.93 -0.39 2.46 2.46 0 0 0 0.66 -0.77Zm-1.76 -3a0.35 0.35 0 0 0 0.15 0.12 2.21 2.21 0 0 1 0.71 0.65 1.6 1.6 0 0 1 0.3 0.92 1.44 1.44 0 0 1 -2 1.33 2.3 2.3 0 0 1 -0.62 -0.39 1.52 1.52 0 0 1 -0.39 -0.52 1.65 1.65 0 0 1 0.19 -1.64 1.55 1.55 0 0 1 1.61 -0.52s0.03 0.01 0.05 0.03Z" fill="#020202" fill-rule="evenodd" stroke-width="1"></path>
  </g>
</svg>