<svg xmlns="http://www.w3.org/2000/svg" viewBox="0 0 24 24" id="Piracy-Copyright--Streamline-Freehand">
  <desc>
    Piracy Copyright Streamline Icon: https://streamlinehq.com
  </desc>
  <title>piracy-copyright</title>
  <g>
    <path d="M23.21 8.2a0.35 0.35 0 0 0 -0.43 -0.2 0.35 0.35 0 0 0 -0.21 0.44 11.46 11.46 0 0 1 0.48 6.13A10.34 10.34 0 0 1 20.21 20 11.76 11.76 0 0 1 10 22.72a12.23 12.23 0 0 1 -5 -2.07c0.18 -0.14 0.37 -0.27 0.54 -0.42s0.25 -0.24 0.37 -0.36a4 4 0 0 0 0.32 -0.4c0.25 -0.33 0.45 -0.67 0.69 -1a0.34 0.34 0 0 0 0 -0.48 0.34 0.34 0 0 0 -0.48 0c-0.33 0.25 -0.66 0.48 -1 0.74l-0.44 0.36a3.29 3.29 0 0 0 -0.33 0.41 5.73 5.73 0 0 0 -0.38 0.62 8.72 8.72 0 0 1 -2.56 -3.65 12.64 12.64 0 0 1 -0.2 -7.28A10.73 10.73 0 0 1 5.4 3.06 8.91 8.91 0 0 1 7.34 2a14.3 14.3 0 0 1 2.16 -0.69 11.94 11.94 0 0 1 7.38 0.32 8.17 8.17 0 0 1 2.36 1.48c-0.29 0.19 -0.57 0.37 -0.84 0.58a3.39 3.39 0 0 0 -0.34 0.31 2.6 2.6 0 0 0 -0.3 0.36c-0.79 1.16 -0.61 1.28 -0.51 1.38s0.24 0.24 1.31 -0.64a3.26 3.26 0 0 0 0.33 -0.31 3.07 3.07 0 0 0 0.28 -0.35c0.2 -0.28 0.38 -0.56 0.57 -0.85a8.93 8.93 0 0 1 2 3.42 0.3 0.3 0 0 0 0.57 -0.18A9.09 9.09 0 0 0 17.17 1 12.8 12.8 0 0 0 9.29 0.43 17 17 0 0 0 7 1.11a9.51 9.51 0 0 0 -2.18 1.14A11.73 11.73 0 0 0 0.49 8.91a13.65 13.65 0 0 0 0.21 8c1.41 3.85 5.09 6.25 9.14 6.9a12.66 12.66 0 0 0 11 -3.19 11.1 11.1 0 0 0 3 -5.86 12.38 12.38 0 0 0 -0.63 -6.56Z" fill="#4C57E6" fill-rule="evenodd" stroke-width="1"></path>
    <path d="M14.74 10.06a5.41 5.41 0 0 0 0.68 0.07 5.15 5.15 0 0 0 0.68 0h0.34a0.37 0.37 0 0 0 0.15 0 1.06 1.06 0 0 0 1 -0.79 2.54 2.54 0 0 0 -0.2 -1.52 7.09 7.09 0 0 0 -1.26 -2.13 4.54 4.54 0 0 0 -1.36 -1.06 4.26 4.26 0 0 0 -2 -0.44 5.81 5.81 0 0 0 -2 0.39 7.07 7.07 0 0 0 -4 3.89 8.61 8.61 0 0 0 -0.42 5.49 7.55 7.55 0 0 0 1.68 3.42 5.56 5.56 0 0 0 3.49 1.56 4.76 4.76 0 0 0 3.69 -1 5.14 5.14 0 0 0 1.93 -3.28 0.35 0.35 0 0 0 -0.08 -0.26 0.33 0.33 0 0 0 -0.25 -0.1l-1.91 0.08a0.32 0.32 0 0 0 -0.43 0.19 2.42 2.42 0 0 1 -2.1 1.4 2.29 2.29 0 0 1 -2.2 -1.17l-0.24 -0.52a6.63 6.63 0 0 1 -0.3 -2.91 5.58 5.58 0 0 1 0.92 -2.72 2.46 2.46 0 0 1 1.51 -0.88 2 2 0 0 1 1.61 0.36 1.58 1.58 0 0 1 0.38 0.48 3.23 3.23 0 0 1 0.23 0.66v0.32a0.53 0.53 0 0 0 0.46 0.47Zm-2.86 -3.3a3.38 3.38 0 0 0 -2.07 1.29 6.6 6.6 0 0 0 -1 3.19 7.49 7.49 0 0 0 0.43 3.29l0.29 0.61a3 3 0 0 0 2.94 1.51A3.13 3.13 0 0 0 15 14.93l1.43 0a4.53 4.53 0 0 1 -1.66 2.41 4 4 0 0 1 -3.12 0.79 4.77 4.77 0 0 1 -2.95 -1.37 6.63 6.63 0 0 1 -1.37 -3 7.66 7.66 0 0 1 0.45 -4.8 6 6 0 0 1 3.35 -3.27 4.79 4.79 0 0 1 1.59 -0.32 3.25 3.25 0 0 1 1.52 0.32 3.7 3.7 0 0 1 1.24 1.06 6.7 6.7 0 0 1 0.85 1.52 2.6 2.6 0 0 1 0.18 0.62c0 0.23 0.09 0.19 -0.5 0.23l-0.74 0V9a3.84 3.84 0 0 0 -0.44 -1.07 2.46 2.46 0 0 0 -0.55 -0.61 3 3 0 0 0 -2.4 -0.56Z" fill="#020202" fill-rule="evenodd" stroke-width="1"></path>
  </g>
</svg>