<svg xmlns="http://www.w3.org/2000/svg" viewBox="0 0 24 24" id="Piracy-Captain-Hat--Streamline-Freehand">
  <desc>
    Piracy Captain Hat Streamline Icon: https://streamlinehq.com
  </desc>
  <title>piracy-captain-hat</title>
  <g>
    <path d="M11.72 10.64a0.73 0.73 0 0 0 -0.47 -0.34 0.82 0.82 0 0 0 -0.64 0.18 1 1 0 0 0 -0.38 0.51 0.94 0.94 0 0 0 0 0.77 0.86 0.86 0 0 0 0.76 0.48 0.88 0.88 0 0 0 0.73 -0.37 1 1 0 0 0 0.17 -0.48 1.16 1.16 0 0 0 -0.13 -0.62 0.43 0.43 0 0 0 -0.04 -0.13Z" fill="#020202" fill-rule="evenodd" stroke-width="1"></path>
    <path d="M14.22 10.5a0.32 0.32 0 0 0 -0.18 -0.1l-0.15 -0.12a0.67 0.67 0 0 0 -0.57 0c-0.2 0.05 -0.3 0.23 -0.43 0.42a1.13 1.13 0 0 0 -0.1 0.55 1 1 0 0 0 0.27 0.56 1 1 0 0 0 0.87 0.29 0.71 0.71 0 0 0 0.58 -0.47 0.88 0.88 0 0 0 0 -0.53 1 1 0 0 0 -0.29 -0.6Z" fill="#020202" fill-rule="evenodd" stroke-width="1"></path>
    <path d="M16.31 8.51a2.48 2.48 0 0 0 0.25 -0.3c0.66 -0.92 0.63 -1.08 0.46 -1.24s-0.32 -0.17 -1.22 0.5l-0.28 0.24a2.37 2.37 0 0 0 -0.25 0.29 2.55 2.55 0 0 0 -0.24 0.39 3.59 3.59 0 0 0 -0.48 -0.39 3.64 3.64 0 0 0 -1.79 -0.55 4.53 4.53 0 0 0 -2.16 0.39 4.42 4.42 0 0 0 -1.39 1 3.45 3.45 0 0 0 -0.33 -0.45 1.94 1.94 0 0 0 -0.29 -0.28 2.75 2.75 0 0 0 -0.33 -0.23c-1 -0.63 -1.15 -0.62 -1.31 -0.43s-0.14 0.35 0.63 1.23a2.65 2.65 0 0 0 0.29 0.32 2.43 2.43 0 0 0 0.32 0.24c0.18 0.1 0.35 0.18 0.53 0.26a3.7 3.7 0 0 0 -0.54 1.33 2.65 2.65 0 0 0 0.25 1.81 2 2 0 0 0 0.35 0.47 1 1 0 0 0 0.19 0.16 4.57 4.57 0 0 0 -0.47 0.29 1.61 1.61 0 0 0 -0.28 0.24 2.17 2.17 0 0 0 -0.22 0.3c-0.67 0.9 -0.66 1.05 -0.5 1.22s0.32 0.19 1.24 -0.47l0.26 -0.24a3.47 3.47 0 0 0 0.25 -0.29 4.91 4.91 0 0 0 0.33 -0.59 1.76 1.76 0 0 0 0.2 0.09l0.3 0a2.35 2.35 0 0 0 0.14 0.66 1.22 1.22 0 0 0 0.71 0.7 1.11 1.11 0 0 0 0.66 0.07 1.65 1.65 0 0 0 0.67 -0.35c0.05 0 0.14 -0.07 0.17 -0.1a1.06 1.06 0 0 0 0.29 0.27 0.94 0.94 0 0 0 0.43 0.1 1.14 1.14 0 0 0 1.1 -0.57 1.86 1.86 0 0 0 0.19 -0.77 2.19 2.19 0 0 0 0.25 0.37 2.91 2.91 0 0 0 0.3 0.31 4.08 4.08 0 0 0 0.33 0.25c0.29 0.19 0.57 0.34 0.87 0.52a0.33 0.33 0 1 0 0.44 -0.5c-0.2 -0.27 -0.38 -0.54 -0.6 -0.8 -0.09 -0.11 -0.19 -0.21 -0.29 -0.31a2.91 2.91 0 0 0 -0.33 -0.26l-0.16 -0.09a1.57 1.57 0 0 0 0.84 -0.57 1.72 1.72 0 0 0 0.33 -1 5.79 5.79 0 0 0 -0.12 -1.24 3.82 3.82 0 0 0 -0.48 -1.2L15.6 9l0.4 -0.24a1.74 1.74 0 0 0 0.31 -0.25Zm-0.78 3.87a0.87 0.87 0 0 1 -0.48 0.35l-0.1 0a0.3 0.3 0 0 0 -0.16 0l-0.63 0a0.36 0.36 0 0 0 -0.35 0.35 2.55 2.55 0 0 1 -0.08 1 0.48 0.48 0 0 1 -0.55 0.31c-0.18 0 -0.25 -0.15 -0.32 -0.23a0.67 0.67 0 0 0 -0.28 -0.18 0.48 0.48 0 0 0 -0.27 0 0.83 0.83 0 0 0 -0.33 0.12 2.18 2.18 0 0 1 -0.48 0.29 0.28 0.28 0 0 1 -0.2 0 0.41 0.41 0 0 1 -0.21 -0.31 6.19 6.19 0 0 1 0 -0.75 0.5 0.5 0 0 0 -0.47 -0.46l-0.43 0a0.28 0.28 0 0 1 -0.16 -0.05 3.73 3.73 0 0 1 -0.36 -0.32 1.27 1.27 0 0 1 -0.24 -0.33 1.56 1.56 0 0 1 -0.12 -1.08 2.78 2.78 0 0 1 0.5 -1.12 3.51 3.51 0 0 1 1.29 -1.08 3.74 3.74 0 0 1 1.65 -0.37 2.83 2.83 0 0 1 1.35 0.34 3.24 3.24 0 0 1 1 1 2.94 2.94 0 0 1 0.41 0.92 5.55 5.55 0 0 1 0.16 1.06 1 1 0 0 1 -0.14 0.54Z" fill="#020202" fill-rule="evenodd" stroke-width="1"></path>
    <path d="M6.16 18.35a16.53 16.53 0 0 1 2.64 -0.55 28.73 28.73 0 0 1 3.27 -0.3 16 16 0 0 1 3.22 0.17 20.23 20.23 0 0 1 5.54 2.07c0.38 -0.06 0.54 -0.24 0.43 -0.56a20.24 20.24 0 0 0 -5.78 -2.52 14.46 14.46 0 0 0 -3.48 -0.28 26 26 0 0 0 -3.39 0.37 18.92 18.92 0 0 0 -2.74 0.77c-1 0.37 -2 0.8 -2.92 1.25 -0.2 0.24 -0.17 0.45 0.28 0.59 0.98 -0.36 1.94 -0.72 2.93 -1.01Z" fill="#4C57E6" fill-rule="evenodd" stroke-width="1"></path>
    <path d="M23.92 15.8a1.31 1.31 0 0 0 -0.69 -0.79 6.18 6.18 0 0 1 -1 -0.64 5.64 5.64 0 0 1 -0.84 -0.85 6.2 6.2 0 0 1 -1.07 -2c-0.32 -0.93 -0.5 -2 -0.83 -3.43a0.29 0.29 0 0 0 -0.34 -0.23 0.3 0.3 0 0 0 -0.23 0.35 34.17 34.17 0 0 0 0.78 3.51 6.88 6.88 0 0 0 1.13 2.2 6.38 6.38 0 0 0 0.94 1 7.14 7.14 0 0 0 1.13 0.75 0.61 0.61 0 0 1 0.31 0.36 0.6 0.6 0 0 1 0 0.47s0.22 -0.5 -2.21 4.25a1 1 0 0 1 -0.58 0.48 1 1 0 0 1 -0.75 0c-1.33 -0.58 -2.67 -1.23 -3.95 -1.64a10.4 10.4 0 0 0 -2.9 -0.55 13.31 13.31 0 0 0 -2.74 0.25c-2 0.38 -4 1.09 -6 1.44a0.94 0.94 0 0 1 -0.59 -0.12 0.92 0.92 0 0 1 -0.41 -0.46c-0.12 -0.28 -0.95 -2.26 -1.17 -2.74s-0.33 -0.71 -0.49 -1.07c-0.3 -0.67 -0.56 -1.13 0.32 -1.4a4.66 4.66 0 0 0 1.37 -0.65 3.44 3.44 0 0 0 1.14 -1.6c0.84 -2.24 1.12 -3.8 1.59 -5.2a9.17 9.17 0 0 1 0.92 -2 6.35 6.35 0 0 1 5.93 -2.9 6.88 6.88 0 0 1 5.65 3.65 0.33 0.33 0 0 0 0.6 -0.24 7.59 7.59 0 0 0 -6.18 -4.14A7.15 7.15 0 0 0 6 5a9.51 9.51 0 0 0 -1 2.18c-0.49 1.38 -0.79 2.93 -1.66 5.14a2.49 2.49 0 0 1 -0.8 1.12A4.17 4.17 0 0 1 1.1 14a1.63 1.63 0 0 0 -0.59 0.34 1.66 1.66 0 0 0 -0.38 0.53 1.58 1.58 0 0 0 0 1.28l1.92 4.44a2 2 0 0 0 0.89 1 2.06 2.06 0 0 0 1.32 0.25c2 -0.36 4 -1.07 6 -1.46a11.82 11.82 0 0 1 2.51 -0.26 8.73 8.73 0 0 1 2.61 0.45c1.3 0.4 2.58 1 3.87 1.51a2 2 0 0 0 2.46 -0.9l2.12 -4.33a1.33 1.33 0 0 0 0.09 -1.05Z" fill="#020202" fill-rule="evenodd" stroke-width="1"></path>
  </g>
</svg>