<svg xmlns="http://www.w3.org/2000/svg" viewBox="0 0 24 24" id="Plant-Pot--Streamline-Freehand">
  <desc>
    Plant Pot Streamline Icon: https://streamlinehq.com
  </desc>
  <g>
    <path d="M11.26 12.14a3.27 3.27 0 0 0 -0.3 -0.35c-0.1 -0.11 -0.21 -0.21 -0.32 -0.31 -0.28 -0.22 -0.57 -0.39 -0.84 -0.62a0.28 0.28 0 0 0 -0.44 0.34 5.74 5.74 0 0 0 0.64 1.1 3.59 3.59 0 0 0 0.52 0.51c0.27 0.23 0.26 0.13 0.53 0.36 0.32 -0.05 0.46 -0.54 0.22 -1Z" fill="#4C57E6" fill-rule="evenodd" stroke-width="1"></path>
    <path d="M13.16 8.78c0.12 -0.12 0.23 -0.23 0.34 -0.36s0.2 -0.25 0.3 -0.38c0.23 -0.31 0.44 -0.63 0.67 -0.94a0.31 0.31 0 1 0 -0.47 -0.45 9.61 9.61 0 0 0 -1 0.72 3.15 3.15 0 0 0 -0.37 0.36 3 3 0 0 0 -0.31 0.39c-0.14 0.55 0 1.24 0.22 1.08s0.39 -0.2 0.62 -0.42Z" fill="#4C57E6" fill-rule="evenodd" stroke-width="1"></path>
    <path d="M18.43 17.17a2.34 2.34 0 0 0 -0.08 -0.35 0.8 0.8 0 0 0 -0.23 -0.3 0.62 0.62 0 0 0 -0.29 -0.11 6 6 0 0 0 -0.72 0l-2.23 0.09 -2.65 0.07c0 -5.13 0.1 -6.76 -0.13 -11.36a0.28 0.28 0 0 0 -0.56 0c0 0.1 -0.22 2.74 -0.07 9.61 0 0.59 0 1.18 0.08 1.77h-0.06c-0.51 0 -1 0.05 -1.52 0.1 -1.17 0.1 -2.33 0.24 -3.49 0.33a0.24 0.24 0 0 0 -0.21 0.15 0.28 0.28 0 0 0 -0.11 0.22 8 8 0 0 0 0.16 1.29 10.66 10.66 0 0 0 0.3 1.24l0.69 2.44c0.05 0.18 0.06 0.51 0.13 0.77a1.18 1.18 0 0 0 0.29 0.53 0.77 0.77 0 0 0 0.38 0.21 2.66 2.66 0 0 0 0.5 0.09 6.78 6.78 0 0 0 0.77 0.05l0.74 0 5.71 -0.3a0.31 0.31 0 0 0 0.31 -0.31 0.31 0.31 0 0 0 -0.32 -0.31c-1.33 0 -2.67 -0.09 -4 -0.11h-1.74l-1.33 -0.08c-0.41 0 -0.22 0.32 -0.47 -0.84l-0.92 -2.41A11.68 11.68 0 0 1 7 18.52a7.94 7.94 0 0 1 -0.2 -1c1.07 0 2.16 -0.05 3.25 -0.07l1.48 0c0.69 0 1.37 0.06 2.06 0.07l1.4 0 2.17 -0.1a3 3 0 0 1 0.34 -0.08 1.89 1.89 0 0 1 0 0.41c0 0.25 -0.06 0.5 -0.09 0.75s-0.09 0.61 -0.16 0.92c-0.15 0.73 -0.36 1.45 -0.53 2.19l-0.26 1.56a0.32 0.32 0 0 0 0.21 0.39 0.32 0.32 0 0 0 0.39 -0.22l0.35 -1.55c0.22 -0.74 0.47 -1.45 0.67 -2.17 0.09 -0.32 0.17 -0.65 0.23 -1a7.56 7.56 0 0 0 0.14 -0.83 2.43 2.43 0 0 0 -0.02 -0.62Z" fill="#020202" fill-rule="evenodd" stroke-width="1"></path>
    <path d="M17.55 9.23a6.55 6.55 0 0 0 0.67 -1.6 5.38 5.38 0 0 0 0.17 -1.76L18.23 5l-0.3 -0.71a1.63 1.63 0 0 0 -1.23 -0.86 5.55 5.55 0 0 0 -1.3 0.14l0 -0.14 -0.28 -1.06A4.36 4.36 0 0 0 14.16 1a3.22 3.22 0 0 0 -1.55 -0.94 3.15 3.15 0 0 0 -2.46 0.57 4.39 4.39 0 0 0 -1.46 2 4.44 4.44 0 0 0 -0.16 0.6l0 0.45 -0.2 0a4.54 4.54 0 0 0 -0.53 0.12 2.46 2.46 0 0 0 -1 0.59 3.81 3.81 0 0 0 -0.65 0.86 3 3 0 0 0 -0.35 1.67 5.24 5.24 0 0 0 0.76 2.25l0.26 0.36 -0.21 0.08a1.78 1.78 0 0 0 -0.68 0.57 2.12 2.12 0 0 0 -0.32 0.81 3.1 3.1 0 0 0 0.57 2.17 7.45 7.45 0 0 0 2.38 2.1 0.28 0.28 0 0 0 0.28 -0.48 6.57 6.57 0 0 1 -2.12 -2 2.38 2.38 0 0 1 -0.4 -1.7 1.3 1.3 0 0 1 0.21 -0.5 1.11 1.11 0 0 1 0.4 -0.31l0.36 -0.11a1 1 0 0 0 0.25 0 0.38 0.38 0 0 0 0.2 -0.16 0.41 0.41 0 0 0 0 -0.41l-0.56 -0.85a4.72 4.72 0 0 1 -0.54 -1.57 2.28 2.28 0 0 1 0.24 -1.47 2.53 2.53 0 0 1 0.49 -0.62A1.68 1.68 0 0 1 8 4.74l0.62 -0.1 0.26 0a0.57 0.57 0 0 0 0.41 -0.15 0.62 0.62 0 0 0 0.16 -0.32l0 -0.38c0 -0.02 0 -0.31 0.05 -0.47A3.71 3.71 0 0 1 9.67 3a3.25 3.25 0 0 1 1.1 -1.46 2.05 2.05 0 0 1 1.63 -0.4 2.19 2.19 0 0 1 1 0.6 3.29 3.29 0 0 1 0.71 1.06l0.24 0.88 0.08 0.38 0 0.14a0.56 0.56 0 0 0 0.5 0.44c0.58 0 1.12 -0.25 1.62 -0.2a0.74 0.74 0 0 1 0.55 0.39l0.22 0.5 0.13 0.66a4.35 4.35 0 0 1 -0.1 1.49 5.57 5.57 0 0 1 -0.55 1.41l-0.55 0.87 -0.18 0.26 0 -0.05s-0.23 0.31 -0.22 0.4a0.34 0.34 0 0 0 0.16 0.29c0.19 0.14 0.38 0.23 0.55 0.35a0.91 0.91 0 0 1 0.23 0.21 1.8 1.8 0 0 1 0.23 1.74 4.3 4.3 0 0 1 -1.02 1.6 0.31 0.31 0 0 0 0.43 0.46 4.57 4.57 0 0 0 1.45 -2.36 2.38 2.38 0 0 0 -0.4 -1.92 1.66 1.66 0 0 0 -0.29 -0.3 3.3 3.3 0 0 0 -0.3 -0.22l0.05 -0.06Z" fill="#020202" fill-rule="evenodd" stroke-width="1"></path>
  </g>
</svg>