<svg xmlns="http://www.w3.org/2000/svg" viewBox="0 0 24 24" id="Plant-Decoration-Pot-Desk-Top-Interior-Indoor-1--Streamline-Freehand">
  <desc>
    Plant Decoration Pot Desk Top Interior Indoor 1 Streamline Icon: https://streamlinehq.com
  </desc>
  <g>
    <path d="M13.17 5.93A4.06 4.06 0 0 0 15.81 9a7.12 7.12 0 0 0 3.46 0.36 4.15 4.15 0 0 0 2.89 -2.15 5.19 5.19 0 0 0 0.47 -2.72 5.68 5.68 0 0 0 -0.8 -2.49A4.18 4.18 0 0 0 20.61 0.8 4.56 4.56 0 0 0 19.1 0.12a4.87 4.87 0 0 0 -2.86 0.23 4.78 4.78 0 0 0 -3.07 5.58Zm3.35 -4.84A4 4 0 0 1 18.89 1a3.68 3.68 0 0 1 1.17 0.59 3.35 3.35 0 0 1 0.89 0.92 4.8 4.8 0 0 1 0.56 2.09 4 4 0 0 1 -0.33 2.05 3.11 3.11 0 0 1 -2.13 1.64 6.2 6.2 0 0 1 -3 -0.21 3.17 3.17 0 0 1 -2.15 -2.34 3.64 3.64 0 0 1 2.62 -4.65Z" fill="#4C57E6" stroke-width="1"></path>
    <path d="M22.56 12.84c-0.44 -0.08 -3 -0.09 -6.21 -0.05 -2.21 0 -4.72 0.07 -7 0.12 0.11 -0.08 0.23 -0.15 0.35 -0.25a3.17 3.17 0 0 0 1 -1.59 1.6 1.6 0 0 0 -0.28 -1.52 2.32 2.32 0 0 0 -1.14 -0.4 18.11 18.11 0 0 0 -2 -0.17l0.14 -0.44a2.89 2.89 0 0 0 0.53 -0.2 16.7 16.7 0 0 0 2 -1.26 0.34 0.34 0 0 0 0.13 -0.47 0.35 0.35 0 0 0 -0.47 -0.12c-0.34 0.15 -1.08 0.4 -1.7 0.63l-0.07 0c0 -0.12 0.09 -0.23 0.13 -0.37 0.1 -0.33 0.21 -0.69 0.31 -1.07l0 -0.13a1.58 1.58 0 0 0 0.23 -0.11c0.53 -0.32 1.32 -0.93 1.69 -1.22a0.34 0.34 0 1 0 -0.36 -0.58c-0.28 0.14 -0.78 0.37 -1.25 0.57A9.48 9.48 0 0 1 9 2.6a0.34 0.34 0 0 0 -0.49 -0.47A9.32 9.32 0 0 0 7.65 4c-0.48 -0.6 -1.08 -1.28 -1.13 -1.37a0.29 0.29 0 0 0 -0.38 -0.18 0.3 0.3 0 0 0 -0.18 0.39 15.64 15.64 0 0 0 0.88 1.93 4 4 0 0 0 0.38 0.57c-0.11 0.31 -0.3 1.33 -0.38 1.63a7.86 7.86 0 0 1 -0.9 -0.71c-0.36 -0.32 -0.8 -0.23 -0.62 0.23a12.82 12.82 0 0 0 1.13 1.63l0.12 0.13 -0.08 0.75H5.6c-0.49 0 -1 0 -1.44 0.06a0.14 0.14 0 0 0 0 -0.06S4.05 7.85 4 7.38a3.76 3.76 0 0 0 0.31 -0.54 12.27 12.27 0 0 0 0.79 -2.5 0.33 0.33 0 0 0 -0.25 -0.41 0.33 0.33 0 0 0 -0.41 0.24 10.09 10.09 0 0 1 -0.64 1.35c0 -0.37 -0.12 -0.77 -0.21 -1.18 0 -0.24 -0.1 -0.47 -0.15 -0.71a1.65 1.65 0 0 0 0.41 -0.52A20.64 20.64 0 0 0 4.66 1a0.35 0.35 0 0 0 -0.13 -0.46 0.35 0.35 0 0 0 -0.47 0.14c-0.11 0.15 -0.4 0.68 -0.71 1.2a3.45 3.45 0 0 0 -0.23 0.43C2.9 1.47 2.7 0.76 2.61 0.44A0.34 0.34 0 1 0 2 0.58c0 0.29 0.11 0.9 0.2 1.64C1.61 2 1 1.71 0.47 1.53a0.31 0.31 0 0 0 -0.4 0.14 0.31 0.31 0 0 0 0.14 0.41c0.65 0.4 1.43 1.08 2 1.43l0.13 0.07 0.15 1c0.09 0.57 0.2 1.11 0.31 1.57l0.08 0.29L1.21 6l-0.3 -0.08c-0.33 0 -0.4 0.19 -0.39 0.3a0.29 0.29 0 0 0 0.26 0.3s0.1 0 0.18 0.09a15.42 15.42 0 0 0 1.6 0.89 3.06 3.06 0 0 0 0.63 0.18c0.11 0.44 0.24 1 0.32 1.29a0.43 0.43 0 0 0 0.05 0.12c-0.6 0 -1.15 0.11 -1.57 0.18a2.26 2.26 0 0 0 -1.09 0.4A1.61 1.61 0 0 0 0.7 11a3.39 3.39 0 0 0 0.76 1.6 3.79 3.79 0 0 0 0.72 0.45l-0.12 0c-1.22 0.2 -1.87 0.95 -1.84 1.8a1.83 1.83 0 0 0 2 1.7l1.65 0.05c-0.19 0.37 -0.52 1 -0.89 1.76 -0.12 0.25 -0.25 0.52 -0.37 0.79s-0.32 0.82 -0.46 1.23a22.59 22.59 0 0 0 -0.89 3.27 0.34 0.34 0 1 0 0.68 0c0 -0.15 0.66 -1.42 1.27 -2.87 0 -0.12 0.09 -0.24 0.13 -0.36 2.2 0 4.58 0.14 6.93 0.16l4.32 0c2.44 0 4.65 -0.1 6.31 -0.1l0.12 0.29c0.61 1.46 1.25 2.73 1.27 2.88a0.34 0.34 0 0 0 0.34 0.34 0.34 0.34 0 0 0 0.34 -0.34 22.92 22.92 0 0 0 -0.89 -3.28c-0.14 -0.41 -0.3 -0.82 -0.47 -1.22s-0.24 -0.54 -0.36 -0.8c-0.28 -0.58 -0.54 -1.08 -0.74 -1.45 0.66 0 1.21 -0.07 1.6 -0.12A2 2 0 0 0 23.94 15a1.87 1.87 0 0 0 -1.38 -2.16ZM2 12a2.2 2.2 0 0 1 -0.36 -0.93 2.38 2.38 0 0 1 -0.07 -0.63 0.33 0.33 0 0 1 0 -0.1 1.61 1.61 0 0 1 0.61 -0.14 31.5 31.5 0 0 1 3.46 -0.11 30.86 30.86 0 0 1 3.36 0.18c0.27 0 0.59 0.12 0.59 0.19a2.07 2.07 0 0 1 -0.17 0.77 1.89 1.89 0 0 1 -0.44 0.7 1.59 1.59 0 0 1 -0.54 0.36 4.69 4.69 0 0 1 -1.12 0.2c-0.35 0 -0.89 0.08 -1.46 0.1a15.45 15.45 0 0 1 -3.18 -0.12A2.14 2.14 0 0 1 2 12Zm18.61 7.55a1.8 1.8 0 0 1 0.08 0.21c-1.59 -0.1 -3.61 -0.21 -5.85 -0.28l-2.71 0c-0.92 0 -1.8 0 -2.71 0.05 -2 0.06 -3.93 0.19 -5.77 0.3l0.09 -0.22c0.09 -0.28 0.18 -0.56 0.26 -0.83 0.27 -0.9 0.47 -1.65 0.59 -2l0 -0.1c2.82 0.11 7.59 0.29 11.53 0.31l3.67 0c0.12 0.4 0.3 1 0.53 1.8 0.07 0.21 0.15 0.46 0.25 0.75Zm2.24 -4.7a0.93 0.93 0 0 1 -0.84 0.78c-1 0.14 -3.27 0.18 -5.86 0.2 -5.64 0.06 -13 0 -13.88 0a1.18 1.18 0 0 1 -1.35 -1c-0.1 -1.56 0.81 -1.15 15.48 -1 3.08 0 5.56 0.06 6 0.15s0.46 0.48 0.41 0.86Z" fill="#020202" stroke-width="1"></path>
  </g>
</svg>