<svg xmlns="http://www.w3.org/2000/svg" viewBox="0 0 24 24" id="Plant-Decoration-Pot-6--Streamline-Freehand">
  <desc>
    Plant Decoration Pot 6 Streamline Icon: https://streamlinehq.com
  </desc>
  <g>
    <path d="M17.37 15.81a0.64 0.64 0 0 0 -0.25 -0.24 2.38 2.38 0 0 0 -0.69 -0.18c-0.23 0 -7.67 -0.34 -9.11 0.16a0.91 0.91 0 0 0 -0.7 0.66 16.7 16.7 0 0 0 0 4.51 4.51 4.51 0 0 0 1.84 2.76 10.28 10.28 0 0 0 3.52 0.52 8.9 8.9 0 0 0 3.58 -0.45A5.47 5.47 0 0 0 17.63 20a7.85 7.85 0 0 0 -0.26 -4.19Zm-1 4.62a4 4 0 0 1 -1.48 2.18 8.18 8.18 0 0 1 -2.93 0.31 9.56 9.56 0 0 1 -3 -0.24 3.53 3.53 0 0 1 -1.57 -2.18 7.88 7.88 0 0 1 0.12 -4.23A21.34 21.34 0 0 1 11 16a41.77 41.77 0 0 1 5.28 0.43l0.25 0.06a7.89 7.89 0 0 1 -0.19 3.94Z" fill="#020202" stroke-width="1"></path>
    <path d="M6.68 10.82c0.13 0.88 0.29 1.76 0.49 2.63 0 0.21 0.11 0.55 0.18 0.91 0.27 1 0.48 0.67 0.67 0a1.37 1.37 0 0 0 0.21 -0.21c0.21 -0.28 0.91 -1.14 0.86 -1.14s0.2 0.1 0.3 0.13c0.49 0.14 1.11 0.33 1.44 0.46l0.08 0 0.16 0.75c0.42 0.84 0.6 0.59 0.72 0v-0.09l-0.43 -2.45c-0.16 -0.74 -0.35 -1.48 -0.56 -2.22 0.15 -0.13 0.36 -0.32 0.38 -0.35l1.1 -1.12c0.15 0.15 0.31 0.34 0.34 0.36a4.63 4.63 0 0 0 0.6 0.43c-0.33 1.06 -0.63 2.12 -0.86 3.19L12 14.36c0.07 0.75 0.27 0.92 0.74 0l0.14 -0.63a4.83 4.83 0 0 0 0.44 -0.21s1.66 -0.85 1.71 -0.91a1.06 1.06 0 0 1 0.2 0.26c0.19 0.3 0.38 0.66 0.6 1 0 0.14 0 0.29 -0.07 0.46 0.16 0.81 0.38 0.87 0.68 0s0.48 -2.33 0.61 -3.25c0.19 -1.32 0.3 -2.65 0.4 -4 0 -0.39 0.05 -0.77 0.06 -1.16l0 -2.64s0 -0.79 -0.06 -1.08a0.67 0.67 0 0 0 -0.72 -0.58 0.76 0.76 0 0 0 -0.46 0.31 4.67 4.67 0 0 0 -0.35 0.63c-0.17 0.28 -0.33 0.57 -0.48 0.86s-0.41 0.86 -0.61 1.3 -0.48 1.12 -0.7 1.69C14 6.2 14 6 13.92 5.7c-0.15 -0.77 -0.34 -1.54 -0.55 -2.3 -0.13 -0.47 -0.26 -0.93 -0.42 -1.4q-0.16 -0.47 -0.36 -0.93a4.61 4.61 0 0 0 -0.3 -0.71 0.91 0.91 0 0 0 -0.37 -0.36 0.63 0.63 0 0 0 -0.8 0.34 8.77 8.77 0 0 0 -0.36 1c-0.16 0.68 -0.36 1.35 -0.52 2 -0.11 0.47 -0.21 0.94 -0.28 1.42l-0.21 1.75c-0.27 -0.69 -0.54 -1.37 -0.84 -2 -0.2 -0.44 -0.39 -0.87 -0.61 -1.3s-0.3 -0.61 -0.48 -0.89a4.09 4.09 0 0 0 -0.34 -0.64 0.83 0.83 0 0 0 -0.48 -0.3 0.66 0.66 0 0 0 -0.7 0.62c0 0.29 -0.07 1 -0.07 1.08l0 2.64 0 1.16c0.15 1.29 0.26 2.62 0.45 3.94Zm9.11 -5.57 0.53 -1 0 2.86c0 0.48 0 1 -0.05 1.45l0 -0.09a1 1 0 0 0 -0.58 -0.54c-0.25 -0.09 -0.55 0 -1 0.3l-0.24 0.19c0.38 -1.1 0.84 -2.16 1.34 -3.17ZM14 9.66A7.47 7.47 0 0 0 15.42 9l0.81 1c0 0.33 0 0.66 -0.06 1s-0.09 0.89 -0.15 1.33l-0.02 -0.14a1.64 1.64 0 0 0 -0.65 -0.72 0.6 0.6 0 0 0 -0.47 0 2.58 2.58 0 0 0 -0.54 0.31c-0.16 0.1 -0.32 0.2 -0.47 0.31s-0.53 0.45 -0.79 0.69l0.1 -0.44c0.19 -0.93 0.47 -1.81 0.82 -2.68Zm-3.56 -2.8c0.14 -0.63 0.29 -1.25 0.44 -1.87l0.91 -2.94 0.66 1.66c0.25 0.72 0.49 1.45 0.7 2.19s0.33 1.27 0.47 1.91c0 0.07 -0.05 0.14 -0.07 0.2a2.37 2.37 0 0 1 -0.31 -0.25 8.64 8.64 0 0 0 -0.71 -0.76 0.6 0.6 0 0 0 -0.69 0 2.27 2.27 0 0 0 -0.73 0.69c-0.24 0.35 -0.38 0.77 -0.57 1.07l-0.21 -0.68a2.49 2.49 0 0 0 -0.11 -0.29ZM10 10.17c0.2 0.61 0.38 1.22 0.53 1.83l0.13 0.57a7.26 7.26 0 0 0 -0.89 -0.51 1.86 1.86 0 0 0 -1 -0.2 1.09 1.09 0 0 0 -0.63 0.52 5.31 5.31 0 0 0 -0.35 0.83c-0.14 -0.82 -0.25 -1.66 -0.32 -2.49a0.13 0.13 0 0 1 0 -0.06c0.13 -0.11 1 -1.23 1 -1.23 0.21 0.09 0.59 0.26 0.94 0.44a4 4 0 0 1 0.59 0.3ZM7.37 3.93 7.9 5c0.54 1.11 1 2.27 1.49 3.45l0.14 0.39 -0.47 -0.36a2.7 2.7 0 0 0 -0.46 -0.28 0.66 0.66 0 0 0 -0.6 0.11 2.13 2.13 0 0 0 -0.51 0.56c0 0.06 -0.07 0.14 -0.11 0.21 0 -0.76 -0.07 -1.53 -0.08 -2.29Z" fill="#4C57E6" stroke-width="1"></path>
  </g>
</svg>