<svg xmlns="http://www.w3.org/2000/svg" viewBox="0 0 24 24" id="Plant-Decoration-Pot-9--Streamline-Freehand">
  <desc>
    Plant Decoration Pot 9 Streamline Icon: https://streamlinehq.com
  </desc>
  <g>
    <path d="M21 11.4c-0.53 0 -1.26 -0.08 -2.05 -0.08l0.35 -0.66c0.07 -0.11 0.25 -0.41 0.34 -0.54a0.28 0.28 0 0 0 0.08 -0.15s-0.31 -0.49 -0.58 -0.2c-0.12 0.12 -0.37 0.4 -0.46 0.51l-0.63 0.76c-0.41 -0.68 -0.83 -1.29 -1.06 -1.79a0.33 0.33 0 0 0 -0.4 -0.25 0.35 0.35 0 0 0 -0.21 0.44 12.34 12.34 0 0 0 0.71 2 13.61 13.61 0 0 0 -2.27 0.51 0.3 0.3 0 1 0 0.12 0.59l2.07 0a8.06 8.06 0 0 0 -0.39 0.71c-0.24 0.46 -0.45 0.95 -0.65 1.41 -0.31 1 0 1.14 1.11 0l0.54 -0.86 0.38 -0.67c0.43 0.67 0.86 1.22 1 1.58a0.31 0.31 0 0 0 0.38 0.19 0.3 0.3 0 0 0 0.19 -0.38 11 11 0 0 0 -0.74 -2.1h0.07c0.83 -0.11 1.6 -0.24 2.15 -0.32a0.34 0.34 0 0 0 0.32 -0.37 0.32 0.32 0 0 0 -0.37 -0.33Z" fill="#4C57E6" stroke-width="1"></path>
    <path d="M12.47 14.64c0.38 1.27 0.63 0.91 0.84 0a25.61 25.61 0 0 0 -1.2 -4c-0.29 -0.76 -0.62 -1.52 -1 -2.27 -0.18 -0.37 -0.37 -0.73 -0.57 -1.09 1.86 0.27 3.69 0.47 5.19 0.63a0.36 0.36 0 0 0 0.39 -0.3 0.36 0.36 0 0 0 -0.29 -0.39c-1.34 -0.25 -2.93 -0.62 -4.59 -0.94l-0.79 -0.15 0.55 -0.46c1.47 -1.23 2.71 -2.38 3.26 -2.94a0.35 0.35 0 0 0 0 -0.49 0.34 0.34 0 0 0 -0.48 0c-0.6 0.51 -2 1.51 -3.56 2.66l-0.22 0.17a1.23 1.23 0 0 1 0 -0.2c0.21 -1.71 0.35 -3.33 0.46 -4.48a0.36 0.36 0 0 0 -0.29 -0.39 0.36 0.36 0 0 0 -0.39 0.3c-0.21 1.14 -0.54 2.7 -0.85 4.41l0 0.08A10.06 10.06 0 0 0 5.84 2a0.29 0.29 0 0 0 -0.41 0.11 0.3 0.3 0 0 0 0.11 0.41 10.25 10.25 0 0 1 2.83 3.23l-0.21 0a32.11 32.11 0 0 0 -5.26 -0.31 0.3 0.3 0 0 0 0 0.6 46.08 46.08 0 0 1 4.59 0.72l0.27 0C6.11 8.15 4.7 9.46 4.1 10a0.3 0.3 0 0 0 0 0.42 0.32 0.32 0 0 0 0.43 0c0.6 -0.45 2 -1.37 3.56 -2.5l0.4 -0.3c0 0.28 -0.07 0.55 -0.11 0.82C8.12 10.39 8 12.06 7.9 13a0.31 0.31 0 0 0 0.26 0.35 0.3 0.3 0 0 0 0.34 -0.26c0.2 -0.88 0.58 -2.52 0.93 -4.39 0.05 -0.26 0.09 -0.54 0.14 -0.8 0.52 1 1 2 1.48 3a32 32 0 0 1 1.42 3.74Z" fill="#4C57E6" stroke-width="1"></path>
    <path d="M18.79 16.4a1 1 0 0 0 -0.32 -0.31 1.56 1.56 0 0 0 -0.54 -0.15c-1.79 -0.06 -5.65 -0.17 -7.16 0.33a1.07 1.07 0 0 0 -0.57 0.36 1.07 1.07 0 0 0 -0.1 0.52c0 0.44 0.13 1.35 0.29 2.35a21.07 21.07 0 0 0 0.89 3.84 1.19 1.19 0 0 0 0.54 0.43 7.39 7.39 0 0 0 1.89 0.23 17.31 17.31 0 0 0 2.76 -0.16 2.23 2.23 0 0 0 0.85 -0.27 5.31 5.31 0 0 0 0.79 -1.94 27.44 27.44 0 0 0 0.89 -4.29l0 -0.54a1.18 1.18 0 0 0 -0.21 -0.4Zm-1.41 3.83a22.82 22.82 0 0 1 -0.68 2.65 10.31 10.31 0 0 1 -2.44 0.32 23.07 23.07 0 0 1 -2.44 -0.12 13.29 13.29 0 0 1 -0.48 -2.43 35.42 35.42 0 0 1 -0.29 -3 1.94 1.94 0 0 1 0 -0.44h0.06A11.9 11.9 0 0 1 13 17c1.29 -0.06 2.78 -0.07 3.53 0l1.27 0.11h0.08c-0.04 0.08 -0.26 1.89 -0.5 3.12Z" fill="#020202" stroke-width="1"></path>
  </g>
</svg>