<svg xmlns="http://www.w3.org/2000/svg" viewBox="0 0 24 24" id="Plane-Trip-Land--Streamline-Freehand">
  <desc>
    Plane Trip Land Streamline Icon: https://streamlinehq.com
  </desc>
  <g>
    <path d="M23.16 18.41a12 12 0 0 0 -1 -2.17 18.63 18.63 0 0 0 -2.65 -3.52c0.07 -0.37 0.12 -0.75 0.16 -1.12s0.08 -0.88 0.09 -1.31V5.55a9.7 9.7 0 0 0 -0.18 -1.69A3.18 3.18 0 0 0 19 2.7a3.89 3.89 0 0 0 -1.63 -1 1.79 1.79 0 0 0 -1.48 0.1 1.66 1.66 0 0 0 -0.55 0.59c-0.22 0.37 -0.38 0.87 -0.56 1.15a7.62 7.62 0 0 0 -0.44 0.9c-0.38 0.9 -0.86 2.19 -1.18 2.93a15.69 15.69 0 0 1 -1.76 -1.73 0.64 0.64 0 0 1 -0.11 -0.56c0.16 -0.79 0.83 -1.65 0.85 -2.34a1.39 1.39 0 0 0 -0.26 -0.83 4.84 4.84 0 0 0 -1.09 -1c-0.2 -0.17 -0.46 -0.42 -0.72 -0.6A1.55 1.55 0 0 0 9.58 0a1.21 1.21 0 0 0 -0.73 0 4.13 4.13 0 0 0 -1 0.68 10.3 10.3 0 0 0 -1.07 0.89c-0.34 0.31 -0.65 0.63 -1 1L3.47 5.12a10.11 10.11 0 0 0 -0.89 1 1.61 1.61 0 0 0 -0.3 0.69 1.78 1.78 0 0 0 0.45 1 14.43 14.43 0 0 0 1.42 1.62l2.63 2.34a0.34 0.34 0 1 0 0.47 -0.49L4.67 8.91c-0.21 -0.21 -0.75 -0.74 -1.17 -1.25 -0.23 -0.29 -0.47 -0.55 -0.45 -0.72a1.08 1.08 0 0 1 0.27 -0.46c0.26 -0.33 0.59 -0.65 0.74 -0.82l2.35 -2.47c0.3 -0.31 0.61 -0.62 0.94 -0.91a10 10 0 0 1 1 -0.8A7.41 7.41 0 0 1 9 1a0.46 0.46 0 0 1 0.39 -0.1 0.7 0.7 0 0 1 0.28 0.17 7.26 7.26 0 0 1 0.56 0.49 5.75 5.75 0 0 1 0.81 0.72 0.62 0.62 0 0 1 0.17 0.39 2.51 2.51 0 0 1 -0.36 0.94 5.42 5.42 0 0 0 -0.51 1.24 1.57 1.57 0 0 0 0.32 1.4A12.52 12.52 0 0 0 12 7.68c1.13 1 2.49 2.05 3.4 2.8a35.78 35.78 0 0 1 3.2 2.92 18.71 18.71 0 0 1 2.56 3.42 11.89 11.89 0 0 1 0.91 2 6.93 6.93 0 0 1 0.37 2.06 2 2 0 0 1 -0.82 1.61 1.77 1.77 0 0 1 -1.73 0.3 8.17 8.17 0 0 1 -2 -1.2c-0.95 -0.73 -1.86 -1.61 -2.87 -2.43 -0.5 -0.41 -1.4 -1.2 -2 -1.66a2.64 2.64 0 0 0 -0.71 -0.43 2.08 2.08 0 0 0 -0.66 0c-1 0.17 -3.17 0.75 -3.85 0.84 -1.08 0.14 -2.75 0.45 -4 0.57a6.43 6.43 0 0 1 -1.13 0 1 1 0 0 1 -0.24 0c-0.13 -0.17 -0.27 -0.34 -0.39 -0.52s-0.24 -0.38 -0.34 -0.58a4.47 4.47 0 0 1 -0.5 -1.44 1.45 1.45 0 0 1 0.13 -0.85 1.11 1.11 0 0 1 0.48 -0.39c0.38 -0.2 0.83 -0.32 1.15 -0.47 0.82 -0.35 1.59 -0.67 2.35 -1s1.58 -0.58 2.39 -0.86a0.29 0.29 0 0 0 0.15 -0.37 0.3 0.3 0 0 0 -0.38 -0.19c-0.82 0.27 -1.62 0.53 -2.43 0.83s-1.56 0.58 -2.39 0.93a12.06 12.06 0 0 0 -1.41 0.58 1.7 1.7 0 0 0 -0.58 0.55A2 2 0 0 0 0.42 16 5.38 5.38 0 0 0 1 17.71a5.51 5.51 0 0 0 0.38 0.67 7 7 0 0 0 0.45 0.62 2 2 0 0 0 1.44 0.35c1.3 0 3.38 -0.39 4.65 -0.53L12 18a3.19 3.19 0 0 1 0.61 0.46c0.57 0.47 1.28 1.12 1.7 1.47 1 0.85 1.92 1.75 2.86 2.5a9.31 9.31 0 0 0 2.29 1.38 2.91 2.91 0 0 0 2.84 -0.44 3.16 3.16 0 0 0 1.28 -2.55 7.7 7.7 0 0 0 -0.42 -2.41Zm-4.22 -6.28c-0.87 -0.85 -1.81 -1.65 -2.86 -2.5 -0.63 -0.52 -1.49 -1.16 -2.33 -1.84 0.37 -0.71 1 -2.07 1.43 -3A6.66 6.66 0 0 1 15.6 4c0.18 -0.24 0.35 -0.66 0.56 -1a0.86 0.86 0 0 1 0.29 -0.35c0.23 -0.13 0.52 0 0.79 0.13a2.77 2.77 0 0 1 0.87 0.59 2 2 0 0 1 0.34 0.75 8.2 8.2 0 0 1 0.18 1.47l0.37 4.7 0 1.26c0 0.2 0 0.39 -0.06 0.58Z" fill="#020202" fill-rule="evenodd" stroke-width="1"></path>
    <g>
      <path d="M18.28 18.75a0.11 0.11 0 0 1 -0.12 0.05l-0.05 0 -0.11 -0.11 -0.15 -0.13c-0.13 -0.1 -0.25 -0.22 -0.37 -0.32a3.88 3.88 0 0 1 -0.42 -0.35 0.54 0.54 0 0 1 -0.15 -0.26 0.26 0.26 0 0 1 0 -0.1l0.15 -0.16 0.72 -1 0.06 0s0.1 0 0.17 0.09a3.59 3.59 0 0 1 0.27 0.25l0.16 0.13 0.19 0.18a5.76 5.76 0 0 1 0.56 0.48c0.05 0.08 0.13 0.12 0.1 0.19s-0.07 0.1 -0.08 0.13 -0.86 0.87 -0.93 0.93Z" fill="#4C57E6" fill-rule="evenodd" stroke-width="1"></path>
      <path d="M15.5 16.11s-0.08 0.06 -0.12 0.05a0.05 0.05 0 0 1 -0.05 0l-0.12 -0.16 -0.16 -0.12c-0.12 -0.11 -0.24 -0.22 -0.37 -0.32s-0.28 -0.22 -0.41 -0.35a0.47 0.47 0 0 1 -0.15 -0.26 0.11 0.11 0 0 1 0 -0.1c0 -0.06 0.11 -0.13 0.14 -0.17l0.72 -1 0.07 0a0.33 0.33 0 0 1 0.16 0.09l0.28 0.25 0.15 0.13 0.2 0.18a4.59 4.59 0 0 1 0.55 0.48c0.06 0.08 0.14 0.12 0.11 0.19l-0.09 0.12c-0.01 0.03 -0.84 0.88 -0.91 0.99Z" fill="#4C57E6" fill-rule="evenodd" stroke-width="1"></path>
      <path d="m12.47 11.35 0.06 0c0.06 0 0.1 0 0.16 0.09a2.59 2.59 0 0 1 0.28 0.24l0.16 0.14 0.19 0.17a7.26 7.26 0 0 1 0.56 0.48c0 0.08 0.13 0.12 0.1 0.19a1 1 0 0 1 -0.09 0.13c0 0.07 -0.88 1 -1 1s-0.07 0.06 -0.12 0.05l-0.05 0 -0.12 -0.09 -0.16 -0.13 -0.36 -0.32a3.11 3.11 0 0 1 -0.42 -0.35 0.44 0.44 0 0 1 -0.15 -0.26 0.18 0.18 0 0 1 0 -0.09l0.14 -0.17Z" fill="#4C57E6" fill-rule="evenodd" stroke-width="1"></path>
      <path d="M10.05 11.29s-0.08 0.06 -0.12 0.05a0.38 0.38 0 0 1 -0.12 -0.09l-0.21 -0.15c-0.12 -0.11 -0.24 -0.22 -0.37 -0.32s-0.28 -0.22 -0.41 -0.35a0.47 0.47 0 0 1 -0.15 -0.26s0 -0.06 0 -0.1 0.11 -0.12 0.14 -0.17 0.72 -1 0.72 -1l0.07 0a0.33 0.33 0 0 1 0.16 0.09l0.28 0.25 0.15 0.13 0.2 0.18A4.59 4.59 0 0 1 11 10c0.06 0.08 0.14 0.12 0.11 0.19a0.54 0.54 0 0 1 -0.09 0.12c-0.02 0.03 -0.9 0.91 -0.97 0.98Z" fill="#4C57E6" fill-rule="evenodd" stroke-width="1"></path>
    </g>
  </g>
</svg>