<svg xmlns="http://www.w3.org/2000/svg" viewBox="0 0 24 24" id="Plant-Pot-2--Streamline-Freehand">
  <desc>
    Plant Pot 2 Streamline Icon: https://streamlinehq.com
  </desc>
  <g>
    <path d="M8.81 7.3c0.93 1.14 1.93 2.18 2.83 3.32a16.21 16.21 0 0 1 1 1.51 0.32 0.32 0 0 0 0.43 0.11 0.31 0.31 0 0 0 0.11 -0.43 15.72 15.72 0 0 0 -1 -1.62L12.1 10a0.28 0.28 0 0 0 0.14 -0.12 10.71 10.71 0 0 1 1 -1.45c0.63 -0.84 1.11 -1.53 1.78 -2.32 0.5 -0.71 -0.23 -0.85 -0.64 -0.48 -0.65 0.89 -1.09 1.49 -1.69 2.41a11.58 11.58 0 0 0 -0.87 1.53c-0.72 -1 -1.48 -1.91 -2.2 -2.9 -0.13 -0.17 0 0 -0.15 -0.18a0.49 0.49 0 0 0 -0.79 0.56 2.18 2.18 0 0 0 0.13 0.25Z" fill="#4C57E6" fill-rule="evenodd" stroke-width="1"></path>
    <path d="M20.22 12.94a0.29 0.29 0 0 0 -0.27 -0.46h-2.2a8.59 8.59 0 0 0 1.3 -3.43 8.36 8.36 0 0 0 -0.37 -4.11 6.45 6.45 0 0 0 -0.47 -1 4.93 4.93 0 0 0 -0.64 -0.86 2.68 2.68 0 0 0 -0.51 -0.46 0.73 0.73 0 0 0 -0.43 -0.13 0.7 0.7 0 0 0 -0.5 0.22 6.29 6.29 0 0 0 -0.4 0.73l-0.68 1.43c-0.16 0.39 0.18 0.7 0.56 0.44L16.71 4a1 1 0 0 0 0.05 -0.16 5.17 5.17 0 0 1 0.92 1.49A7.46 7.46 0 0 1 18.21 9 7.63 7.63 0 0 1 17 12.46l-4.7 0 -3.28 0 -2.71 0.11a5.33 5.33 0 0 1 -0.64 -2.2 10 10 0 0 1 0.59 -3.85q0.15 -0.45 0.33 -0.9c0.11 -0.27 0.22 -0.53 0.34 -0.79 0.1 0.09 0.19 0.2 0.29 0.31A9.41 9.41 0 0 1 8 6.25c0.5 0.41 0.84 0.23 1 -0.29l1.31 -2.79 0.84 -1.59c0.07 -0.15 0.12 -0.36 0.17 -0.49l0.12 0.11 0.28 0.27 0.6 0.67 0.81 1 0.61 0.86c0.19 0.3 0.37 0.59 0.53 0.9a0.32 0.32 0 0 0 0.57 -0.28c-0.15 -0.33 -0.31 -0.66 -0.48 -1s-0.36 -0.64 -0.55 -0.95l-0.75 -1.14 -0.5 -0.75 -0.35 -0.37A1.18 1.18 0 0 0 11.15 0a0.93 0.93 0 0 0 -0.53 0.41 6.36 6.36 0 0 0 -0.34 0.69l-0.73 1.66 -0.9 2.57c-0.2 -0.3 -0.4 -0.59 -0.62 -0.86a4.58 4.58 0 0 0 -0.95 -0.88 0.6 0.6 0 0 0 -0.76 0.16l-0.12 0.19 -0.2 0.38c-0.14 0.31 -0.28 0.63 -0.4 0.95s-0.22 0.65 -0.32 1a11.13 11.13 0 0 0 -0.35 4.23 6 6 0 0 0 0.71 2.13h-0.07l-1.46 0a0.27 0.27 0 0 0 -0.27 0.2 0.25 0.25 0 0 0 -0.13 0.27c0.23 1.43 0.6 2.82 0.91 4.24 0.13 0.59 0.24 1.19 0.33 1.79a14.05 14.05 0 0 0 0.4 2.22 3.22 3.22 0 0 0 0.9 1.41A5.39 5.39 0 0 0 9.55 24a25.68 25.68 0 0 0 5 -0.44 16.22 16.22 0 0 0 2 -0.28 2.68 2.68 0 0 0 1.34 -0.76 5.6 5.6 0 0 0 0.93 -1.5 12.6 12.6 0 0 0 0.68 -2.41c0.22 -1.05 0.5 -2.14 0.68 -3.23a13.11 13.11 0 0 0 0.19 -2.24 0.3 0.3 0 0 0 -0.15 -0.2Zm-0.8 2.3c-0.22 1.07 -0.53 2.14 -0.78 3.17a11.49 11.49 0 0 1 -0.72 2.22 4.25 4.25 0 0 1 -0.8 1.21 1.73 1.73 0 0 1 -0.88 0.45 16.94 16.94 0 0 1 -1.85 0.22 26.23 26.23 0 0 1 -4.77 0.41A4.51 4.51 0 0 1 6.89 22a2.27 2.27 0 0 1 -0.67 -1 12 12 0 0 1 -0.46 -2c-0.08 -0.41 -0.17 -0.81 -0.27 -1.22 -0.38 -1.53 -0.86 -3 -1.19 -4.57 0.59 0.07 1.17 0.12 1.75 0.14 1 0.06 2 0.08 3 0.13 0.59 0 1.17 0.05 1.76 0.06l2.63 0c2.1 -0.06 4.18 -0.2 6.27 -0.36a11.79 11.79 0 0 1 -0.29 2.06Z" fill="#020202" fill-rule="evenodd" stroke-width="1"></path>
  </g>
</svg>