<svg xmlns="http://www.w3.org/2000/svg" viewBox="0 0 24 24" id="Plant-Pot-Cactus-1--Streamline-Freehand">
  <desc>
    Plant Pot Cactus 1 Streamline Icon: https://streamlinehq.com
  </desc>
  <g>
    <path d="M14.56 15.37c-0.6 0 -1.2 0 -1.79 0.06l-1.17 0.11a0.33 0.33 0 0 0 0.21 -0.07 0.33 0.33 0 0 0 0 -0.45 3.07 3.07 0 0 1 -0.4 -0.63c-0.17 -0.35 -0.31 -0.74 -0.44 -1.09a10.82 10.82 0 0 1 -0.57 -2.51 9.6 9.6 0 0 1 0.08 -2.56 19.49 19.49 0 0 0 0.63 -3.11 1.81 1.81 0 0 0 0 -0.23 3.7 3.7 0 0 0 0.47 0c0.1 0 0.2 0 0.3 -0.06l0.28 -0.12c0.22 -0.11 0.42 -0.23 0.65 -0.33a0.31 0.31 0 0 0 0.27 -0.38 0.32 0.32 0 0 0 -0.36 -0.28 3.75 3.75 0 0 0 -0.82 0l-0.33 0.06a1.05 1.05 0 0 0 -0.31 0.12 2.57 2.57 0 0 0 -0.32 0.22 2.91 2.91 0 0 0 -0.89 -1.18 2.66 2.66 0 0 0 -1.3 -0.56A5.55 5.55 0 0 0 9 1.81a2 2 0 0 0 0.06 -0.32l0 -0.33C9.06 0.89 9 0.65 9 0.39A0.31 0.31 0 0 0 8.77 0a0.31 0.31 0 0 0 -0.38 0.24 5.63 5.63 0 0 0 -0.33 0.76 1.87 1.87 0 0 0 -0.06 0.35 1.27 1.27 0 0 0 0 0.34 5.1 5.1 0 0 0 0.13 0.7 2.76 2.76 0 0 0 -0.74 0.28 3.89 3.89 0 0 0 -1.2 1.16c0 -0.08 -0.07 -0.16 -0.12 -0.25a0.87 0.87 0 0 0 -0.17 -0.22 1.29 1.29 0 0 0 -0.21 -0.19c-0.18 -0.14 -0.37 -0.23 -0.56 -0.37a0.34 0.34 0 0 0 -0.46 0 0.32 0.32 0 0 0 0 0.45 5.18 5.18 0 0 0 0.3 0.63 1.19 1.19 0 0 0 0.16 0.23l0.21 0.2a3.28 3.28 0 0 0 0.45 0.24 6.27 6.27 0 0 0 -0.49 1.21 18.21 18.21 0 0 0 -0.47 2.74c-0.08 -0.07 -0.15 -0.15 -0.24 -0.22a1.23 1.23 0 0 0 -0.25 -0.14A1.57 1.57 0 0 0 4 8a3 3 0 0 0 -0.73 0 0.32 0.32 0 0 0 -0.38 0.24 0.33 0.33 0 0 0 0.24 0.39c0.18 0.1 0.32 0.23 0.51 0.35a1.55 1.55 0 0 0 0.22 0.12 1.06 1.06 0 0 0 0.25 0.09c0.22 0 0.41 0 0.62 0.06a16.18 16.18 0 0 0 0 2 12 12 0 0 0 0.18 1.36c-0.23 0 -0.43 -0.09 -0.68 -0.1l-0.3 0 -0.3 0.1A3 3 0 0 0 3 13a0.31 0.31 0 0 0 -0.17 0.41 0.32 0.32 0 0 0 0.42 0.17l0.66 0a1.62 1.62 0 0 0 0.44 -0.07 3.61 3.61 0 0 0 0.65 -0.36A9.23 9.23 0 0 0 6.23 16l-0.52 0a0.28 0.28 0 0 0 -0.29 0.28s0 0.06 0 0.09a0.27 0.27 0 0 0 -0.29 0.25 4.86 4.86 0 0 0 0 1.14c0.07 0.55 0.19 1.09 0.27 1.6s0.17 1 0.28 1.5 0.22 1 0.36 1.48c0 0.15 0 0.45 0.09 0.64a0.79 0.79 0 0 0 0.23 0.38 2.08 2.08 0 0 0 1 0.49 11.65 11.65 0 0 0 2.1 0.08c0.66 0 1.32 0 2 -0.07 1.51 -0.11 3 -0.32 4.53 -0.43a0.31 0.31 0 0 0 0.27 -0.23 0.3 0.3 0 0 0 0.3 -0.19c0.32 -0.87 0.58 -1.75 0.81 -2.64s0.4 -1.79 0.56 -2.7a5.66 5.66 0 0 0 0.15 -1.63 0.92 0.92 0 0 0 -0.4 -0.69 0.91 0.91 0 0 0 -0.39 -0.11c-0.58 0.03 -1.87 0.16 -2.73 0.13Zm-9 -4.19A16.29 16.29 0 0 1 6.24 6a4.29 4.29 0 0 1 1.64 -2.4 1.28 1.28 0 0 1 1.51 0.17 1.69 1.69 0 0 1 0.72 1.36 19.27 19.27 0 0 1 -0.5 3 10.42 10.42 0 0 0 0 2.79 12 12 0 0 0 0.72 2.66c0.15 0.37 0.31 0.78 0.51 1.16a4.15 4.15 0 0 0 0.51 0.73 0.32 0.32 0 0 0 0.2 0.1c-1.56 0.16 -3.12 0.35 -4.69 0.46a9.64 9.64 0 0 1 -1.33 -4.85Zm11.22 5.23s0.49 -0.3 0.31 1.18c-0.11 0.9 -0.24 1.79 -0.4 2.67a25.76 25.76 0 0 1 -0.69 2.59c-1.52 0 -3 0.1 -4.54 0.12l-1.91 0 -1.67 0c-0.57 0 -0.57 -0.09 -0.8 -0.81S6.72 21 6.55 20.4c-0.11 -0.37 -0.21 -0.75 -0.31 -1.14s-0.29 -1 -0.4 -1.54a4.32 4.32 0 0 1 -0.11 -1 0.54 0.54 0 0 0 0 -0.1l2.69 0c1.24 0 2.48 -0.08 3.72 -0.13 0.82 0 1.64 -0.06 2.46 -0.05Z" fill="#020202" fill-rule="evenodd" stroke-width="1"></path>
    <path d="M21 9.44c-0.23 -0.09 -0.42 -0.2 -0.64 -0.29L20 9.06l-0.29 0a3.89 3.89 0 0 0 -0.49 0 1.61 1.61 0 0 0 0 -0.22 3.76 3.76 0 0 0 -0.35 -1.32 4.27 4.27 0 0 0 0.68 -0.33 1.12 1.12 0 0 0 0.28 -0.19l0.2 -0.24c0.14 -0.2 0.24 -0.41 0.38 -0.62a0.32 0.32 0 1 0 -0.41 -0.48c-0.23 0.12 -0.44 0.22 -0.66 0.36a2.23 2.23 0 0 0 -0.24 0.19 0.91 0.91 0 0 0 -0.2 0.24 3.39 3.39 0 0 0 -0.29 0.53 3.12 3.12 0 0 0 -0.75 -0.86 2.17 2.17 0 0 0 -1.12 -0.46c0 -0.09 0 -0.17 0.06 -0.27s0 -0.2 0 -0.3a1.54 1.54 0 0 0 0 -0.3c0 -0.26 -0.11 -0.48 -0.16 -0.73A0.32 0.32 0 1 0 16 4a6.57 6.57 0 0 0 -0.21 0.76 1.87 1.87 0 0 0 0 0.34 1.24 1.24 0 0 0 0 0.33 1.63 1.63 0 0 0 0.11 0.31 1.83 1.83 0 0 0 -0.25 0.08 2.21 2.21 0 0 0 -1 1 4.33 4.33 0 0 0 -0.36 0.82 3.59 3.59 0 0 0 -0.29 -0.35 1.89 1.89 0 0 0 -0.2 -0.2 1.23 1.23 0 0 0 -0.23 -0.09 5 5 0 0 0 -0.66 -0.18 0.28 0.28 0 1 0 -0.32 0.47c0.14 0.19 0.23 0.37 0.39 0.55a1 1 0 0 0 0.19 0.17 1.34 1.34 0 0 0 0.23 0.13c0.2 0.1 0.39 0.15 0.58 0.25 -0.09 0.32 -0.18 0.64 -0.26 0.89a11 11 0 0 1 -1 2.08 18.85 18.85 0 0 1 -1.35 1.92 0.28 0.28 0 1 0 0.43 0.36 18.37 18.37 0 0 0 1.79 -2.3 10.93 10.93 0 0 0 0.94 -1.75c0.21 -0.51 0.43 -1.3 0.77 -2a1.62 1.62 0 0 1 0.69 -0.8 1.2 1.2 0 0 1 1.4 0.42 3 3 0 0 1 0.77 1.68 4.6 4.6 0 0 1 -0.16 1.66A17.83 17.83 0 0 1 16.93 13a15.05 15.05 0 0 1 -0.82 1.6c-0.12 0.18 0.2 0.71 0.58 0.39a15.42 15.42 0 0 0 0.95 -1.63l0.16 -0.28a4 4 0 0 0 0.49 0.42 1.77 1.77 0 0 0 0.31 0.15 2.14 2.14 0 0 0 0.34 0.09 4 4 0 0 0 0.84 0 0.31 0.31 0 0 0 0.37 -0.25 0.32 0.32 0 0 0 -0.25 -0.37c-0.23 -0.11 -0.42 -0.26 -0.65 -0.38a4.32 4.32 0 0 0 -0.45 -0.19 4 4 0 0 0 -0.67 -0.09 13.31 13.31 0 0 0 0.78 -1.67 6 6 0 0 0 0.27 -1 2 2 0 0 0 0.33 0.19 1.32 1.32 0 0 0 0.3 0.09 1.63 1.63 0 0 0 0.31 0 3.84 3.84 0 0 0 0.76 -0.08 0.31 0.31 0 0 0 0.35 -0.28 0.32 0.32 0 0 0 -0.23 -0.27Z" fill="#4C57E6" fill-rule="evenodd" stroke-width="1"></path>
  </g>
</svg>