<svg xmlns="http://www.w3.org/2000/svg" viewBox="0 0 24 24" id="Playlist-Home--Streamline-Freehand">
  <desc>
    Playlist Home Streamline Icon: https://streamlinehq.com
  </desc>
  <g>
    <path d="M23.89 19.3c-1.87 -1.82 -5.09 -6.93 -6.61 -6.51a3.77 3.77 0 0 0 -1.3 0.84 56.45 56.45 0 0 0 -4.9 5.78c0 0.18 0.18 0.58 0.57 0.23 0.17 -0.14 0.55 -0.57 1.34 -1.41 -0.06 0.61 -0.37 4 -0.37 4 -0.09 0.83 -0.08 1.42 0.82 1.61 2.18 0.21 2.17 0.29 2.48 0.07 0.48 -0.34 0.26 -1.18 0.26 -1.46 0 -0.72 0.3 -1.84 1 -1.92 0.11 0 0.17 0.07 0.23 0.14a2.83 2.83 0 0 1 0.38 1.75c0 0.26 -0.15 0.75 0.09 1.09s0.88 0.3 1.17 0.34c2.27 0.26 2.16 -0.73 2.57 -4.91a0.34 0.34 0 0 0 -0.67 -0.15c-0.8 5.38 -0.65 4 -2.08 4.11l0 -0.42a3.27 3.27 0 0 0 -0.87 -2.86c-1.33 -1 -3.41 0.83 -2.83 3.27l-0.16 0c-1.85 -0.08 -1.59 0.12 -1.57 -0.67 0.1 -4.2 0.17 -3.72 0.2 -4.74a31 31 0 0 1 3.79 -3.56c0 0.06 0.22 0.09 0.33 0.17 1.25 0.94 4.37 4.54 5.63 5.69a0.34 0.34 0 0 0 0.5 -0.48Z" fill="#020202" fill-rule="evenodd" stroke-width="1"></path>
    <path d="M9.59 17.89a38.59 38.59 0 0 1 -8.3 -0.56C1.24 16.79 0.84 2 1 1.4c0 -0.16 -0.22 -0.07 1.07 -0.31A0.31 0.31 0 0 0 2 0.48a4.78 4.78 0 0 0 -0.74 0.08c-0.55 0.09 -0.87 0.14 -1 1 -0.16 1 -0.5 13.89 0 16.34a0.73 0.73 0 0 0 0.54 0.53 41 41 0 0 0 8.87 0.18 0.34 0.34 0 1 0 -0.08 -0.72Z" fill="#4C57E6" fill-rule="evenodd" stroke-width="1"></path>
    <path d="M16.77 1.48c-0.05 0.22 0.12 -0.46 0.37 1.78 0.22 2.06 0.47 6.45 0.47 7.84a0.3 0.3 0 1 0 0.6 0 28.9 28.9 0 0 0 0.18 -4.49A38.69 38.69 0 0 0 18.12 2a2.17 2.17 0 0 0 -0.7 -1.5C15.79 -0.35 10.69 0.13 8.24 0.18 4.12 0.35 2.1 0.26 2.55 0.66c-0.89 0.79 12.21 -0.03 14.22 0.82Z" fill="#4C57E6" fill-rule="evenodd" stroke-width="1"></path>
    <path d="M13.2 11.9c1.72 -0.94 1.05 -4.39 0.65 -6.31 -0.19 -0.92 -0.3 -2 -1.3 -2.1 -0.08 0 -1.87 0.07 -2.71 0.19a13.66 13.66 0 0 0 -3 0.78c-0.76 0.33 -1.37 0.77 -1.43 1.58 0 0.46 0.53 5.47 0.52 5.39a5.32 5.32 0 0 0 -1 -0.06c-1.87 0.33 -2.52 3 -0.39 3.66a1.53 1.53 0 0 0 2.09 -0.81c0.72 -1.5 0 -4.66 -0.08 -7.84 0 -0.24 -0.18 -0.46 0.75 -0.85a13.15 13.15 0 0 1 2.7 -0.71 7.78 7.78 0 0 1 2.45 -0.19 20.81 20.81 0 0 1 0.78 3.3c-1.56 0 -2.69 0.38 -3 1.9s1.65 2.8 2.97 2.07Zm-8.46 2.35a1 1 0 0 1 -0.8 -1.11c0.26 -1.59 1.77 -0.93 2 -1 0.06 1.28 -0.04 2.42 -1.2 2.11ZM11 10a1.43 1.43 0 0 1 0.74 -1.09 4.26 4.26 0 0 1 1.59 -0.28c0.07 0.79 0.12 2.11 -0.55 2.51S10.81 10.93 11 10Z" fill="#020202" fill-rule="evenodd" stroke-width="1"></path>
  </g>
</svg>