<svg xmlns="http://www.w3.org/2000/svg" viewBox="0 0 24 24" id="Plugin-Hand-Puzzle--Streamline-Freehand">
  <desc>
    Plugin Hand Puzzle Streamline Icon: https://streamlinehq.com
  </desc>
  <g>
    <path d="M21.06 17.16A2 2 0 0 0 18.31 15a9 9 0 0 0 -2.63 1.92c-0.54 0.44 -1.53 1.15 -2 1.47a0.87 0.87 0 0 0 -0.14 0.12 7 7 0 0 1 -2.23 -0.4c-0.3 -0.12 -0.46 -0.07 -0.1 -0.56 1.31 -1.81 3 -2.42 1.8 -4.23 -0.88 -1.36 -3.27 -0.06 -4.59 0.87A14.56 14.56 0 0 1 5.7 15.8c-0.09 0 -0.2 0 -0.21 0.06 -0.28 -2 -2.14 -1.55 -3 -1.55 -0.56 0 -2.38 -0.14 -2.1 0.56a0.32 0.32 0 0 0 0.41 0.17 4.84 4.84 0 0 1 1.65 0c1 0.1 1.82 -0.19 1.94 0.78l0 6.19c0 0.76 -0.09 1 -1.27 1.06A9.4 9.4 0 0 1 1 23a0.36 0.36 0 0 0 -0.14 0.7 10.49 10.49 0 0 0 2.3 0.28c1 0 1.77 -0.17 2.13 -1.09 0.09 0 -0.28 0.07 2.51 -0.55 3.9 1 9.28 1.22 12.71 -1 1.28 -0.83 2.75 -1.88 2 -3.25a1.6 1.6 0 0 0 -1.45 -0.93Zm-4.78 0.63c1.09 -0.67 2.49 -2.15 3.33 -1.8a1 1 0 0 1 0.66 1.25c-2 0.44 -3.11 0.9 -4.93 1.14 -0.4 0.05 -0.18 0.08 0.94 -0.59Zm3.58 2.65c-4.47 3.06 -12 1.17 -12.16 1.22 -2.64 0.67 -2.27 0.61 -2.26 0.49a36.63 36.63 0 0 0 0.08 -5.06c0 -1.08 -0.45 0.31 3.38 -2.22 0.71 -0.47 2.94 -1.73 3.36 -1 0.72 1.17 -0.55 1.42 -1.86 3.11 -0.64 0.84 -0.5 1.4 -0.11 1.8a4.57 4.57 0 0 0 2 0.79c2.47 0.62 6.62 -0.77 7.6 -1 0.75 -0.16 1.28 -0.5 1.62 0.13s-1.15 1.4 -1.65 1.74Z" fill="#020202" stroke-width="1"></path>
    <path d="M21.57 4.12C23.44 1 20 -0.55 18.71 0.43c-0.16 0.13 -0.47 0.25 -0.53 0.54s0.05 0.61 0.92 0a1.63 1.63 0 0 1 2.22 1.79 3.75 3.75 0 0 1 -0.57 1.16c-0.49 0.78 0.47 0.76 1.92 2.52a5.85 5.85 0 0 1 -1.21 1.23l-0.85 -0.49c-1.6 -0.65 -3.15 0.33 -3 1.59a6.3 6.3 0 0 0 0.56 1.3 2.11 2.11 0 0 0 0.18 0.33 7.6 7.6 0 0 1 -1.24 1.6 33.14 33.14 0 0 1 -5.9 -4.26c-0.2 -0.21 -0.25 -0.54 -0.39 -0.52a5.44 5.44 0 0 1 1.06 -1.72c1 0.66 1.6 1.22 2.66 0.75 2.11 -1 1.82 -3.27 -0.45 -4A8.07 8.07 0 0 1 15.15 0.79c0.24 -0.21 1.12 0.35 1.39 0.52a0.36 0.36 0 0 0 0.38 -0.6c-2 -1.34 -2.24 -0.7 -3.59 1.23 -0.19 0.29 -0.41 0.56 -0.2 0.88s0.86 0.31 1.11 0.43c0.6 0.28 1.08 1 0.69 1.51a1.47 1.47 0 0 1 -1.28 0.67C12.07 4.54 12 4 11.29 4.59a10.38 10.38 0 0 0 -1.2 1.56c-0.52 0.92 -0.45 1.37 -0.1 1.9 1.2 1.78 6.5 5.12 7.09 5.21 0.89 0.14 2.41 -2.3 2.45 -2.88 0 -0.4 -0.2 -0.55 -0.28 -0.76s-0.39 -0.63 -0.49 -0.95 0.25 -0.54 0.59 -0.6c1.24 -0.23 1.75 1 2.49 0.57a6.29 6.29 0 0 0 1.8 -2.17c0.11 -0.64 -0.88 -1.22 -2.07 -2.35Z" fill="#4C57E6" stroke-width="1"></path>
  </g>
</svg>