<svg xmlns="http://www.w3.org/2000/svg" viewBox="0 0 24 24" id="Podcast-Microphone-Woman--Streamline-Freehand">
  <desc>
    Podcast Microphone Woman Streamline Icon: https://streamlinehq.com
  </desc>
  <g>
    <path d="M6.59 11.89c-1.15 -1.77 -4.93 -1.8 -5.87 -0.05a8.28 8.28 0 0 0 -0.51 2.71 9.83 9.83 0 0 0 0.24 3.78c0.62 2.36 1.26 2.72 3 2.85a2.5 2.5 0 0 0 -0.06 1.74h-0.13a2.32 2.32 0 0 0 -1.75 0.23c-0.18 0.06 -0.16 0.21 -0.17 0.27s0 0.17 0.15 0.26a1.6 1.6 0 0 0 0.3 0.08 10.17 10.17 0 0 0 4.55 -0.09 0.34 0.34 0 0 0 0 -0.67 13.63 13.63 0 0 0 -2.08 -0.14 2.48 2.48 0 0 0 0 -1.68c1.78 -0.07 2.1 -0.71 2.51 -2.39a21.74 21.74 0 0 0 0.31 -5.29 3.77 3.77 0 0 0 -0.49 -1.61Zm-2.91 -0.24c2.63 0 2.68 1.55 2.54 5.6a13.12 13.12 0 0 0 -5 0.22 8.68 8.68 0 0 1 -0.07 -1.79c0.63 0.12 2.38 0.5 2.47 -0.14s-1.62 -0.68 -2.34 -0.69c0.05 -0.38 0.11 -0.93 0.14 -1.24a3.65 3.65 0 0 0 2.42 0 0.38 0.38 0 0 0 0.42 -0.32c0 -0.58 -1.71 -0.62 -2.71 -0.39a1.77 1.77 0 0 1 0.17 -0.49c0.28 -0.59 1.13 -0.78 1.96 -0.76Zm2.39 7c-0.4 1.93 -0.64 1.85 -1.58 1.88a6.5 6.5 0 0 1 -2.09 -0.3c-0.66 -0.25 -0.89 -1.38 -1 -2.06a7.36 7.36 0 0 1 1.59 0.1A23.68 23.68 0 0 0 6.17 18c-0.03 0.22 -0.06 0.42 -0.1 0.64Z" fill="#020202" stroke-width="1"></path>
    <path d="M14.23 9.82a1.81 1.81 0 0 0 -2.39 -0.31 1.37 1.37 0 0 0 -0.6 1.32 0.3 0.3 0 0 0 0.59 0c0.07 -0.27 0.46 -0.38 0.86 -0.5s0.81 -0.24 1.06 -0.05a0.34 0.34 0 0 0 0.48 -0.46Z" fill="#4C57E6" stroke-width="1"></path>
    <path d="M18.21 10.36a1.47 1.47 0 0 0 -0.66 -0.91c-1 -0.65 -2.2 0.46 -1.84 0.89s0.47 0 0.91 0a1.55 1.55 0 0 1 1 0.31 0.33 0.33 0 0 0 0.59 -0.29Z" fill="#4C57E6" stroke-width="1"></path>
    <path d="M16 12.41a1.27 1.27 0 0 1 -0.87 0 2.67 2.67 0 0 1 -1 -0.35A0.21 0.21 0 0 0 14 12c-0.13 -0.06 -0.21 0 -0.31 0.12 -0.36 0.33 0.64 1.76 1.83 1.43a1.75 1.75 0 0 0 0.94 -0.57 0.33 0.33 0 0 0 -0.46 -0.57Z" fill="#4C57E6" stroke-width="1"></path>
    <path d="M22.39 17a6 6 0 0 0 -4.2 -2.24 8.77 8.77 0 0 0 2.63 -3c1.13 0.78 2.31 0 2.79 -1.23 0.87 -2.36 -0.63 -4.74 -1.25 -4.18C22 3.91 19.48 1.41 17.21 0.49A6.45 6.45 0 0 0 10.08 2 6.72 6.72 0 0 0 8 6.45c-1.79 1 -2.53 5 0 5.75a1.44 1.44 0 0 0 1.27 -0.2 3.57 3.57 0 0 0 0.5 1.08 5 5 0 0 0 2 1.8 6.47 6.47 0 0 0 -2.61 1.68 5.46 5.46 0 0 0 -1.4 2.77 0.3 0.3 0 0 0 0.6 0.06 10.27 10.27 0 0 1 4.35 -4.07 5.5 5.5 0 0 0 4.72 0 7.57 7.57 0 0 1 3.43 1.84 8.07 8.07 0 0 1 2.31 2.69 0.33 0.33 0 0 0 0.63 -0.22A6.72 6.72 0 0 0 22.39 17Zm-2.33 -9a4.87 4.87 0 0 1 -1.92 -0.86c-0.19 -0.16 -0.41 -0.59 -0.64 -0.8 -0.73 -0.65 -1.5 0.23 -1.7 0.25s-0.44 -0.3 -0.72 -0.45c-1.4 -0.74 -1.46 1.72 -3.88 1.51 -0.3 0 -0.71 -0.22 -0.93 -0.12a5.69 5.69 0 0 0 -0.2 -0.79 0.34 0.34 0 0 0 -0.34 -0.22c0 -0.7 1.53 -2.31 3.32 -2.57 0.74 -0.12 1.31 0.39 2.21 0.19s1.18 -1.62 1.35 -0.64A1.75 1.75 0 0 0 17 4.64c0.44 0.39 0.7 0 0.91 -0.11a1.06 1.06 0 0 0 0.81 0.73c0.35 0.06 0.44 0 0.52 0.09 0.24 0.34 0.15 0.75 0.44 1.18s0.74 0.65 0.94 1a3 3 0 0 0 -0.33 0.63 0.31 0.31 0 0 0 -0.23 -0.16Zm2.94 0.39c0.13 2.4 -1.75 3.52 -1.92 1.48 -0.24 -2.66 1.78 -3.55 1.92 -1.48Zm-12.3 -5.7a6 6 0 0 1 6.11 -1.17A8.86 8.86 0 0 1 21.13 5a4.47 4.47 0 0 1 0.61 1.66 1.27 1.27 0 0 0 -0.63 0.33c-0.26 -0.4 -0.55 -0.56 -0.74 -0.89s-0.08 -0.74 -0.39 -1.25 -0.92 -0.41 -1.09 -0.53 -0.18 -0.9 -1 -0.76l-0.21 0a1.39 1.39 0 0 0 -0.94 -1.5c-1.07 -0.32 -1.54 0.9 -1.74 0.95 -0.95 0.23 -1.71 -0.85 -3.91 0.68a5.09 5.09 0 0 0 -2 2.54 1.16 1.16 0 0 0 -0.49 -0.06 5.44 5.44 0 0 1 2.1 -3.48ZM9.12 10.5c-0.14 0.34 -0.45 0.74 -0.81 0.62C7 10.75 7.37 8 8.23 7.19 9.46 6 10 8.47 9.12 10.5Zm6.62 4.12c-1.54 0.21 -4.25 -0.49 -5.37 -2 -0.7 -0.93 -0.61 -0.86 -0.31 -1.81a7.76 7.76 0 0 0 0.27 -2.76c0.14 0.05 -0.15 0.06 0.77 0.26a3.73 3.73 0 0 0 3.56 -1.23 1.27 1.27 0 0 0 1.7 0.46 1.25 1.25 0 0 0 0.47 -0.43 7.88 7.88 0 0 0 0.76 0.74 5.22 5.22 0 0 0 2.59 0.79 3.22 3.22 0 0 0 0.15 2.55 6.73 6.73 0 0 1 -4.59 3.43Z" fill="#020202" stroke-width="1"></path>
  </g>
</svg>