<svg xmlns="http://www.w3.org/2000/svg" viewBox="0 0 24 24" id="Pollution-Air-Purifier--Streamline-Freehand">
  <desc>
    Pollution Air Purifier Streamline Icon: https://streamlinehq.com
  </desc>
  <g>
    <path d="M17.38 20.13a0.85 0.85 0 1 0 0.05 -1.7 0.85 0.85 0 0 0 -0.05 1.7Z" fill="#020202" fill-rule="evenodd" stroke-width="1"></path>
    <path d="m19.88 15.23 -0.1 -3.88a6.9 6.9 0 0 0 -0.23 -1.35 2.84 2.84 0 0 0 -0.5 -0.94 3.14 3.14 0 0 0 -1.61 -1 6.86 6.86 0 0 0 -1.74 -0.18l0 -0.65a6.63 6.63 0 0 1 0 -0.89 5.23 5.23 0 0 1 0.15 -0.77 1.9 1.9 0 0 1 0.15 -0.45 1.81 1.81 0 0 1 0.18 -0.37 1 1 0 0 1 0.2 -0.3l0.35 -0.29c0.48 -0.25 0.72 0.22 0.8 0.63s0.09 0.69 -0.12 0.83a0.56 0.56 0 0 1 -0.51 0 0.35 0.35 0 0 0 -0.48 0.14 0.37 0.37 0 0 0 0.14 0.48 1.21 1.21 0 0 0 1.25 0.12 1.68 1.68 0 0 0 0.7 -1.65c-0.08 -1.14 -0.92 -2.15 -2.29 -1.59a1.68 1.68 0 0 0 -0.42 0.27 3.22 3.22 0 0 0 -0.32 0.32 1.8 1.8 0 0 0 -0.29 0.43 2.39 2.39 0 0 0 -0.26 0.67 3.52 3.52 0 0 0 -0.13 0.79 6.45 6.45 0 0 0 0 0.76 7 7 0 0 0 0.09 0.8q0.06 0.39 0.15 0.78H15l-6.49 0.21a8.11 8.11 0 0 0 -2.36 0.4 3.69 3.69 0 0 0 -1.42 0.88 0.33 0.33 0 0 0 0 0.45 0.31 0.31 0 0 0 0.44 0 2.9 2.9 0 0 1 1.2 -0.66A7 7 0 0 1 8.48 9l6.5 0.12a7.89 7.89 0 0 1 2.14 0.15 1.94 1.94 0 0 1 1 0.6 1.76 1.76 0 0 1 0.34 0.7 6.28 6.28 0 0 1 0.16 1l0.27 3.84a19.31 19.31 0 0 1 0.25 3.41 3.5 3.5 0 0 1 -0.64 2 0.32 0.32 0 0 0 0 0.34 0.35 0.35 0 0 0 -0.24 -0.08c-2.94 0.16 -4.74 0.19 -4.79 0.19 -1.59 0 -3.18 0 -4.76 -0.11a7.08 7.08 0 0 1 -1.91 -0.29 2.36 2.36 0 0 1 -1.32 -1 2.56 2.56 0 0 1 -0.28 -0.91c-0.09 -0.58 -0.1 -1.21 -0.14 -1.72C5 16 4.9 14.82 4.88 13.68s0 -2.29 0.07 -3.42a0.3 0.3 0 0 0 -0.28 -0.34 0.31 0.31 0 0 0 -0.34 0.28c-0.14 1.14 -0.23 2.3 -0.29 3.46S4 16 4 17.14l0 1.84a3.57 3.57 0 0 0 0.42 1.35 3.15 3.15 0 0 0 0.91 1 3.59 3.59 0 0 0 -0.12 0.93 2 2 0 0 0 0.31 1 1.88 1.88 0 0 0 1.17 0.74 1.53 1.53 0 0 0 1 -0.13 2 2 0 0 0 1.05 -1.63c1.26 0 2.54 0 3.81 -0.06 0.76 0 1.51 -0.13 2.26 -0.19a0.4 0.4 0 0 0 0 0.15 2 2 0 0 0 1.06 1.75 1.57 1.57 0 0 0 1 0.13 1.79 1.79 0 0 0 1.45 -1.72 4 4 0 0 0 -0.08 -0.59h0.14a0.36 0.36 0 0 0 0.33 -0.38s0 -0.05 0 -0.08a0.35 0.35 0 0 0 0.47 -0.05 4.21 4.21 0 0 0 0.9 -2.35 19.79 19.79 0 0 0 -0.2 -3.62ZM7.26 22.81a0.62 0.62 0 0 1 -0.33 0 1 1 0 0 1 -0.49 -0.31 1.18 1.18 0 0 1 -0.33 -0.56l0 -0.2a6.26 6.26 0 0 0 1.89 0.39 1.15 1.15 0 0 1 -0.74 0.68Zm10.1 -0.87a1 1 0 0 1 -0.33 0.56 0.89 0.89 0 0 1 -0.49 0.31 0.62 0.62 0 0 1 -0.33 0 1.16 1.16 0 0 1 -0.77 -0.84s0 -0.06 -0.06 -0.1c0.67 -0.06 1.34 -0.1 2 -0.17a1.5 1.5 0 0 1 -0.02 0.24Z" fill="#020202" fill-rule="evenodd" stroke-width="1"></path>
    <path d="M10.46 5.4a0.3 0.3 0 0 0 0.3 0.32 0.31 0.31 0 0 0 0.32 -0.3 13 13 0 0 0 0.26 -2.06 9.81 9.81 0 0 0 -0.06 -1.21c-0.07 -0.61 -0.2 -1.2 -0.28 -1.8a0.35 0.35 0 0 0 -0.36 -0.35 0.34 0.34 0 0 0 -0.34 0.36c-0.07 0.6 -0.13 1.19 -0.15 1.79l0 0.76a6.3 6.3 0 0 0 0 0.75c0.12 0.59 0.25 1.15 0.31 1.74Z" fill="#020202" fill-rule="evenodd" stroke-width="1"></path>
    <path d="M13.14 7.51a0.32 0.32 0 0 0 0.31 -0.31c0.08 -0.69 0.22 -1.36 0.29 -2.06a8.65 8.65 0 0 0 0 -0.88l0 -0.9a20.71 20.71 0 0 0 -0.25 -2.08 0.36 0.36 0 0 0 -0.37 -0.34 0.37 0.37 0 0 0 -0.34 0.38c0 0.7 -0.12 1.39 -0.16 2.1a10.86 10.86 0 0 0 0 1.4c0 0.8 0.14 1.58 0.22 2.37a0.32 0.32 0 0 0 0.3 0.32Z" fill="#020202" fill-rule="evenodd" stroke-width="1"></path>
    <path d="M6.77 9.68a0.31 0.31 0 0 0 -0.33 0.28c-0.06 0.44 -0.1 0.88 -0.12 1.33 0 0.65 -0.05 1.3 -0.08 2s0 1.24 0 1.87l0 1.27a5.28 5.28 0 0 0 0.1 0.94 1.72 1.72 0 0 0 0.21 0.52 2.15 2.15 0 0 0 1.32 0.89 6.49 6.49 0 0 0 2 0.08l6.6 -0.81a0.35 0.35 0 0 0 0.48 -0.13 2.84 2.84 0 0 0 0.43 -1.19A14.38 14.38 0 0 0 17.4 15c0 -0.73 0 -1.45 -0.12 -2.17 -0.14 -1.07 -0.4 -2.12 -0.64 -3.19a0.31 0.31 0 0 0 -0.34 -0.27 0.32 0.32 0 0 0 -0.28 0.35c0.06 1.08 0 2.15 0.08 3.22 0 0.71 0.14 1.41 0.2 2.12a12.79 12.79 0 0 1 0.16 1.58 2.41 2.41 0 0 1 -0.12 0.67l-6.61 0.36a6.08 6.08 0 0 1 -1.34 0 1.21 1.21 0 0 1 -0.86 -0.42 1.21 1.21 0 0 1 -0.09 -0.34c0 -0.21 -0.05 -0.42 -0.07 -0.59l-0.22 -3c-0.05 -0.65 -0.09 -1.3 -0.11 -1.94l0 -1.28a0.31 0.31 0 0 0 -0.27 -0.42Z" fill="#4C57E6" fill-rule="evenodd" stroke-width="1"></path>
    <path d="M8.72 11.84a6.91 6.91 0 0 1 1 -0.1l0.8 0h0.81c0.84 0 1.67 -0.09 2.51 -0.09a0.35 0.35 0 1 0 0.06 -0.7 17.38 17.38 0 0 0 -1.9 -0.36 6.57 6.57 0 0 0 -1.33 0 6.55 6.55 0 0 0 -2.15 0.67 0.3 0.3 0 0 0 -0.19 0.39 0.31 0.31 0 0 0 0.39 0.19Z" fill="#020202" fill-rule="evenodd" stroke-width="1"></path>
    <path d="M8.64 14c0.76 0 1.49 0.08 2.23 0.08 0.44 0 0.88 -0.05 1.32 -0.08 0.66 -0.06 1.31 -0.16 2 -0.2a0.35 0.35 0 0 0 0.37 -0.34 0.36 0.36 0 0 0 -0.34 -0.37 19.22 19.22 0 0 0 -2 -0.22 8 8 0 0 0 -0.85 0c-0.28 0 -0.56 0 -0.84 0.08 -0.66 0.1 -1.29 0.28 -1.95 0.43a0.32 0.32 0 0 0 0.07 0.63Z" fill="#020202" fill-rule="evenodd" stroke-width="1"></path>
    <path d="M11.73 15.14a7.77 7.77 0 0 0 -0.83 0.08c-0.65 0.11 -1.27 0.3 -1.91 0.47a0.31 0.31 0 0 0 0.08 0.62c0.65 0 1.28 0.05 1.92 0.05l0.81 0 0.81 -0.08c0.64 -0.08 1.27 -0.18 1.9 -0.24a0.36 0.36 0 0 0 0.36 -0.36 0.35 0.35 0 0 0 -0.35 -0.35c-0.66 -0.07 -1.3 -0.15 -1.95 -0.17a7.85 7.85 0 0 0 -0.84 -0.02Z" fill="#020202" fill-rule="evenodd" stroke-width="1"></path>
    <path d="M5.44 5.22a1 1 0 0 0 0.86 0.35 0.36 0.36 0 0 0 0 -0.71c-0.16 0 -0.25 -0.12 -0.33 -0.25A2.18 2.18 0 0 1 5.71 4a1.25 1.25 0 0 1 0.37 -1.19 0.86 0.86 0 0 1 1 -0.15 1.11 1.11 0 0 1 0.27 0.17 1.52 1.52 0 0 1 0.24 0.17 1.14 1.14 0 0 1 0.16 0.31c0 0.13 0.09 0.27 0.13 0.4s0.08 0.4 0.11 0.6 0.07 0.63 0.1 1l0.05 2.29a0.33 0.33 0 0 0 0.29 0.34 0.31 0.31 0 0 0 0.33 -0.29L9 5.28l0 -0.85a8.69 8.69 0 0 0 0 -0.89 3.06 3.06 0 0 0 -0.19 -0.72 1.8 1.8 0 0 0 -0.27 -0.49 2.27 2.27 0 0 0 -0.42 -0.46 2.58 2.58 0 0 0 -0.53 -0.32 1.93 1.93 0 0 0 -2.29 0.5 2.22 2.22 0 0 0 -0.43 2.17 2.71 2.71 0 0 0 0.57 1Z" fill="#020202" fill-rule="evenodd" stroke-width="1"></path>
  </g>
</svg>