<svg xmlns="http://www.w3.org/2000/svg" viewBox="0 0 24 24" id="Pollution-Dust-Pm--Streamline-Freehand">
  <desc>
    Pollution Dust Pm Streamline Icon: https://streamlinehq.com
  </desc>
  <g>
    <path d="M11.94 4a1 1 0 0 0 0.9 0.35c0.71 0 0.9 -0.44 1 -0.95a1.07 1.07 0 1 0 -1.88 0.6Z" fill="#020202" fill-rule="evenodd" stroke-width="1"></path>
    <path d="M20 19.51a0.8 0.8 0 0 0 0.48 0.57c0.47 0.25 0.74 0 1 -0.32a0.9 0.9 0 0 0 -0.39 -1.26 0.84 0.84 0 0 0 -1.09 1.01Z" fill="#020202" fill-rule="evenodd" stroke-width="1"></path>
    <path d="M3.82 4.38c0.7 0 0.89 -0.44 1 -0.95A1.09 1.09 0 0 0 3.6 2.27 1.09 1.09 0 0 0 2.91 4a1 1 0 0 0 0.91 0.38Z" fill="#020202" fill-rule="evenodd" stroke-width="1"></path>
    <path d="M16.51 16.28a0.82 0.82 0 0 0 0.48 0.58c0.47 0.25 0.75 0 1 -0.32a0.89 0.89 0 0 0 -0.39 -1.26 0.84 0.84 0 0 0 -1.09 1Z" fill="#020202" fill-rule="evenodd" stroke-width="1"></path>
    <path d="M8 2.23c0.71 0 0.9 -0.45 1 -1a1.07 1.07 0 1 0 -1.88 0.61 1 1 0 0 0 0.88 0.39Z" fill="#020202" fill-rule="evenodd" stroke-width="1"></path>
    <path d="M13.47 8.32a1.07 1.07 0 1 0 -1.88 0.61 1 1 0 0 0 0.9 0.34c0.71 -0.01 0.9 -0.44 0.98 -0.95Z" fill="#020202" fill-rule="evenodd" stroke-width="1"></path>
    <path d="M4.44 8.32a1.09 1.09 0 0 0 -1.18 -1.16 1.1 1.1 0 0 0 -0.7 1.77 1.06 1.06 0 0 0 0.91 0.34c0.7 -0.01 0.89 -0.44 0.97 -0.95Z" fill="#020202" fill-rule="evenodd" stroke-width="1"></path>
    <path d="M14.3 19.59a0.9 0.9 0 0 0 -0.39 -1.26 0.84 0.84 0 0 0 -1.06 1 0.82 0.82 0 0 0 0.48 0.58c0.47 0.25 0.74 0.01 0.97 -0.32Z" fill="#020202" fill-rule="evenodd" stroke-width="1"></path>
    <path d="M7.79 11.23c0.7 0 0.9 -0.44 1 -1a1.07 1.07 0 1 0 -1.89 0.6 1 1 0 0 0 0.89 0.4Z" fill="#020202" fill-rule="evenodd" stroke-width="1"></path>
    <path d="M16.06 22.43a0.84 0.84 0 0 0 0.48 0.58c0.47 0.25 0.75 0 1 -0.32a0.89 0.89 0 0 0 -0.39 -1.26c-0.64 -0.25 -1.15 0.36 -1.09 1Z" fill="#020202" fill-rule="evenodd" stroke-width="1"></path>
    <path d="M17.32 11.37a3.53 3.53 0 0 0 0.5 -0.28c1 -0.63 1.16 -0.59 1.14 -1 -0.05 -0.6 -1.25 -0.47 -1.67 -0.39a1.57 1.57 0 0 0 -0.46 0.16 1.66 1.66 0 0 0 -0.39 0.26c-0.11 0.09 -1 1.05 -0.74 1.41 0.02 0.06 0.11 0.47 1.62 -0.16Z" fill="#4C57E6" fill-rule="evenodd" stroke-width="1"></path>
    <path d="M20.67 5.25a3.65 3.65 0 0 0 0.33 -0.36 2.18 2.18 0 0 0 0.24 -0.42c0.67 -1.42 0.41 -1.57 0.28 -1.66s-0.35 -0.28 -1.47 0.82a2.24 2.24 0 0 0 -0.31 0.38 4.19 4.19 0 0 0 -0.24 0.42c-0.63 1.36 -0.56 1.52 -0.31 1.69s0.45 0.19 1.48 -0.87Z" fill="#4C57E6" fill-rule="evenodd" stroke-width="1"></path>
    <path d="M23.19 11.26c-0.17 -0.28 -0.31 -0.24 -1.41 -0.09a1.77 1.77 0 0 0 -0.32 0.05 1.34 1.34 0 0 0 -0.3 0.12c-1.18 0.6 -1.08 0.81 -1.06 0.93 0.06 0.39 1.15 0.5 1.4 0.5a1.23 1.23 0 0 0 0.39 -0.07 1.27 1.27 0 0 0 0.39 -0.18c1.05 -0.69 1.03 -1.04 0.91 -1.26Z" fill="#4C57E6" fill-rule="evenodd" stroke-width="1"></path>
    <path d="M8.07 18c0 -0.12 0.07 -0.25 0.1 -0.38a1.7 1.7 0 0 0 0 -0.39s-0.14 -1.35 -0.54 -1.41S6.75 17 6.74 17a2.36 2.36 0 0 0 -0.1 0.38l0 0.4c0.09 1.3 0.3 1.43 0.56 1.46s0.42 -0.01 0.87 -1.24Z" fill="#4C57E6" fill-rule="evenodd" stroke-width="1"></path>
    <path d="M11.07 14.06a2.57 2.57 0 0 0 -0.33 -0.33 2.33 2.33 0 0 0 -0.38 -0.26s-1.36 -0.63 -1.61 -0.26c-0.08 0.11 -0.28 0.27 0.71 1.42a2.13 2.13 0 0 0 0.31 0.29 2.64 2.64 0 0 0 0.35 0.23c1.25 0.73 1.34 0.69 1.55 0.49s0.33 -0.48 -0.6 -1.58Z" fill="#4C57E6" fill-rule="evenodd" stroke-width="1"></path>
    <path d="M2.61 15a1.9 1.9 0 0 0 -0.15 -0.42c-0.07 -0.14 -0.14 -0.27 -0.22 -0.4 -0.74 -1.25 -0.84 -1.33 -1.15 -1.24s-0.48 0.25 -0.2 1.76a3 3 0 0 0 0.17 0.5 1.66 1.66 0 0 0 0.25 0.45c0.18 0.25 1 1.25 1.43 1 0.12 -0.12 0.33 -0.12 -0.13 -1.65Z" fill="#4C57E6" fill-rule="evenodd" stroke-width="1"></path>
    <path d="M9.79 22.49a5.15 5.15 0 0 0 -0.78 0s-1.77 0.23 -1.77 0.72c0 0.16 0 0.46 1.58 0.77a3 3 0 0 0 0.52 0 3.31 3.31 0 0 0 0.54 -0.06c1.75 -0.36 1.63 -0.79 1.6 -1s-0.15 -0.3 -1.69 -0.43Z" fill="#4C57E6" fill-rule="evenodd" stroke-width="1"></path>
    <path d="M10 6.91c-0.14 -0.24 -0.3 -0.46 -0.45 -0.7l2.11 0c0.7 0 1.69 0.06 2.54 0.13a0.46 0.46 0 0 0 0.13 -0.91 43 43 0 0 0 -4.53 -0.67h-0.28c0.23 -0.3 0.46 -0.6 0.7 -0.89 0.86 -1 1.72 -2.09 2.64 -3.08a0.45 0.45 0 0 0 0 -0.64 0.46 0.46 0 0 0 -0.64 0 42.53 42.53 0 0 0 -3.51 3.3c-0.22 0.23 -0.42 0.49 -0.63 0.73 -0.14 -0.17 -0.27 -0.36 -0.41 -0.53A40.75 40.75 0 0 0 4.41 0.34a0.4 0.4 0 0 0 -0.57 0 0.4 0.4 0 0 0 0 0.56c1 1.22 1.89 2.53 2.81 3.83l-0.74 0c-1.51 0.12 -3 0.38 -4.5 0.65a0.42 0.42 0 0 0 -0.41 0.46 0.41 0.41 0 0 0 0.45 0.36c1.67 -0.06 3.33 0 5 0 -0.11 0.17 -0.24 0.32 -0.35 0.49a37.19 37.19 0 0 0 -2.36 4.22 0.4 0.4 0 1 0 0.68 0.41c1 -1.56 2.27 -3 3.44 -4.51L8 6.65c0.38 0.52 0.76 1 1.13 1.57 0.73 1.08 1.44 2.15 2.07 3.28a0.46 0.46 0 0 0 0.61 0.21 0.45 0.45 0 0 0 0.21 -0.61A31.33 31.33 0 0 0 10 6.91Z" fill="#020202" fill-rule="evenodd" stroke-width="1"></path>
    <path d="M19.92 17.09a0.45 0.45 0 0 0 -0.63 -0.1c-0.73 0.43 -1.46 0.85 -2.17 1.33l-0.48 -0.32c-0.46 -0.26 -0.9 -0.56 -1.37 -0.83a5.39 5.39 0 0 0 -1.07 -0.48 0.4 0.4 0 0 0 -0.32 0.74 3 3 0 0 1 0.57 0.44c0.46 0.41 0.85 0.89 1.3 1.32l0.16 0.12c-0.2 0.19 -0.41 0.38 -0.6 0.59a12.64 12.64 0 0 0 -1.51 2.25 0.41 0.41 0 0 0 0.09 0.56 0.41 0.41 0 0 0 0.57 -0.09 21.14 21.14 0 0 1 1.93 -1.72l0.77 -0.67a8.84 8.84 0 0 1 1.07 0.74 4.05 4.05 0 0 1 0.79 0.9 0.46 0.46 0 0 0 0.61 0.21 0.46 0.46 0 0 0 0.22 -0.61 5 5 0 0 0 -1.07 -1.7 5.44 5.44 0 0 0 -0.55 -0.52c0.54 -0.51 1.06 -1 1.6 -1.51a0.44 0.44 0 0 0 0.09 -0.65Z" fill="#020202" fill-rule="evenodd" stroke-width="1"></path>
  </g>
</svg>