<svg xmlns="http://www.w3.org/2000/svg" viewBox="0 0 24 24" id="Pollution-Flame-Fire-Smoke--Streamline-Freehand">
  <desc>
    Pollution Flame Fire Smoke Streamline Icon: https://streamlinehq.com
  </desc>
  <g>
    <path d="M19.18 14.1a2.24 2.24 0 0 0 -0.86 -1c-1.09 -0.61 -1.5 1 -2.21 1.28 -0.24 -0.6 -0.34 -1.27 -0.55 -1.89a5.36 5.36 0 0 0 -0.24 -0.6 7 7 0 0 0 -1.87 -2.33 9.2 9.2 0 0 0 -4.32 -1.84A2.66 2.66 0 0 0 7.75 8a1.11 1.11 0 0 0 -0.54 0.81 13.51 13.51 0 0 0 0.11 2c-0.2 4.87 -1.32 4.89 -1.38 5.07a4.55 4.55 0 0 0 -1.4 -1.58 1.73 1.73 0 0 0 -1.33 -0.3c-1.31 0.33 -2.09 6.6 0 9.68a0.3 0.3 0 1 0 0.5 -0.33c-1.15 -1.77 -1.24 -4.61 -0.86 -6.71 0.05 -0.25 0.1 -0.72 0.21 -1.15 0.07 -0.27 0.12 -0.57 0.32 -0.61a0.94 0.94 0 0 1 0.77 0.33 4.69 4.69 0 0 1 1.15 1.55c0.37 0.44 1 0.2 1.5 -0.26A4.78 4.78 0 0 0 8 14.32a13.26 13.26 0 0 0 0.32 -4.65 2.12 2.12 0 0 1 0 -0.72 1.77 1.77 0 0 1 0.89 0 5.66 5.66 0 0 1 1.2 0.33 8 8 0 0 1 2.27 1.24 5.82 5.82 0 0 1 1.61 1.92 14.78 14.78 0 0 1 0.71 2.13 5.42 5.42 0 0 0 0.26 0.6c0.34 0.66 1.38 0.25 1.82 -0.23 0.63 -0.7 0.64 -1.51 1.23 -0.38a8.1 8.1 0 0 1 0.49 1.4 11.42 11.42 0 0 1 0.48 3.36 13.33 13.33 0 0 1 -0.45 3.4 0.33 0.33 0 0 0 0.23 0.41 0.34 0.34 0 0 0 0.43 -0.24 14.46 14.46 0 0 0 0.56 -3.56 12.4 12.4 0 0 0 -0.42 -3.61 9.59 9.59 0 0 0 -0.45 -1.62Z" fill="#020202" stroke-width="1"></path>
    <path d="M13.22 16.44a11.18 11.18 0 0 0 -1.61 -2.22 0.6 0.6 0 0 0 -1 0.44l0 0.35 -0.07 0.54c-0.39 2.08 -1.9 3.35 -2.29 5.43a4.82 4.82 0 0 0 0.33 2.83A0.31 0.31 0 0 0 9 24a0.3 0.3 0 0 0 0.17 -0.39 4.05 4.05 0 0 1 -0.11 -2.44c0.45 -1.72 1.78 -2.83 2.36 -4.37a6.14 6.14 0 0 0 0.22 -0.73c0.25 0.36 0.48 0.73 0.72 1a12.27 12.27 0 0 1 2.21 3.14 2.78 2.78 0 0 1 -0.16 2.29 0.34 0.34 0 1 0 0.6 0.32c1.41 -2.4 -0.32 -4.29 -1.79 -6.38Z" fill="#020202" stroke-width="1"></path>
    <path d="M5.14 10.62a1.73 1.73 0 0 0 -0.91 -2.56 0.34 0.34 0 1 0 -0.23 0.62 1 1 0 0 1 0.38 1.45 1.59 1.59 0 0 1 -1.63 0.58 1.15 1.15 0 0 1 -1.23 -1.29A1.25 1.25 0 0 1 3 8.25a0.3 0.3 0 0 0 0.15 -0.58A2 2 0 0 0 0.53 9.28a2.16 2.16 0 0 0 2 2.58 2.61 2.61 0 0 0 2.61 -1.24Z" fill="#4C57E6" stroke-width="1"></path>
    <path d="M6 6.18a4 4 0 0 0 2.2 -0.38 3.57 3.57 0 0 0 1.62 -1.47 3.08 3.08 0 0 0 0.08 -2.56C9 -0.45 5.83 0 5.77 0.05A3.64 3.64 0 0 0 4.3 0.6a2.63 2.63 0 0 0 -1 3.34A3.66 3.66 0 0 0 6 6.18ZM4.8 1.32A2.82 2.82 0 0 1 6.21 0.74a2.76 2.76 0 0 1 2.92 1.31A2.26 2.26 0 0 1 9 3.84a2.75 2.75 0 0 1 -1.24 1A2.9 2.9 0 0 1 6.2 5a2.56 2.56 0 0 1 -1.9 -1.49 1.7 1.7 0 0 1 0.5 -2.19Z" fill="#4C57E6" stroke-width="1"></path>
    <path d="M21.52 0.85a4.2 4.2 0 0 0 -3.89 -0.53 3.59 3.59 0 0 0 -1.52 1.29 4.46 4.46 0 0 0 -0.72 1.8 0.35 0.35 0 0 0 0.68 0.12 3.77 3.77 0 0 1 0.65 -1.48 2.86 2.86 0 0 1 1.22 -1 3.32 3.32 0 0 1 3 0.58 3.08 3.08 0 0 1 1.43 2.59A3.46 3.46 0 0 1 21.7 6a2.46 2.46 0 0 1 -1.45 1c-0.22 0 -1.19 -0.08 -1.59 0a0.82 0.82 0 0 0 -0.54 0.29c-0.42 0.61 -0.64 1.28 -1.14 1.61A1.27 1.27 0 0 1 16 9a1.92 1.92 0 0 1 -1.6 -1.57c-0.08 -0.7 0.37 -1.37 1.39 -1.57a0.3 0.3 0 1 0 -0.1 -0.59 2.09 2.09 0 0 0 -2 2.22 2.72 2.72 0 0 0 2.05 2.36 2.19 2.19 0 0 0 1.79 -0.13A7.92 7.92 0 0 0 19 7.92a3 3 0 0 0 3.6 -1.21 4.58 4.58 0 0 0 0.89 -2.37A4.13 4.13 0 0 0 21.52 0.85Z" fill="#4C57E6" stroke-width="1"></path>
  </g>
</svg>