<svg xmlns="http://www.w3.org/2000/svg" viewBox="0 0 24 24" id="Pre-Historic-Animal-Dinosaur-Egg-Hatch--Streamline-Freehand">
  <desc>
    Pre Historic Animal Dinosaur Egg Hatch Streamline Icon: https://streamlinehq.com
  </desc>
  <g>
    <path d="M12.09 4.23a2 2 0 0 0 -0.54 0.64 1.07 1.07 0 0 0 0.2 1.37c0.76 0.45 2.62 0 1.91 -1.37 -0.48 -0.87 -0.94 -0.87 -1.57 -0.64Z" fill="#020202" stroke-width="1"></path>
    <path d="M12.28 23.34A13.08 13.08 0 0 1 7 22a6.34 6.34 0 0 1 -3.4 -3.81 9.66 9.66 0 0 1 -0.25 -1.55c-0.3 -3.1 0.26 -4 -0.76 -3.84 -0.16 0 -0.27 0.24 -0.34 0.46a3.82 3.82 0 0 0 -0.07 1 25 25 0 0 0 0.19 2.53 10.18 10.18 0 0 0 0.33 1.71 6.81 6.81 0 0 0 2.94 3.66 13 13 0 0 0 6.6 1.8 0.31 0.31 0 0 0 0.32 -0.3 0.3 0.3 0 0 0 -0.28 -0.32Z" fill="#020202" stroke-width="1"></path>
    <path d="M20.29 14.82a6.31 6.31 0 0 1 -0.05 1.37c-0.09 0.55 -0.19 1.1 -0.33 1.63a7.66 7.66 0 0 1 -0.37 1 8.58 8.58 0 0 1 -2.42 3.06 6 6 0 0 1 -3.56 1.41 0.34 0.34 0 0 0 -0.34 0.35 0.35 0.35 0 0 0 0.34 0.35 6.81 6.81 0 0 0 4 -1.48 9.52 9.52 0 0 0 2.73 -3.31 8.24 8.24 0 0 0 0.44 -1.13 12.9 12.9 0 0 0 0.4 -1.74 7.54 7.54 0 0 0 0.11 -1.25 11.41 11.41 0 0 0 -0.16 -1.83 6.13 6.13 0 0 0 -0.09 -0.74 1.09 1.09 0 0 0 -0.29 -0.51c-1.27 -1.19 -0.46 1.88 -0.41 2.82Z" fill="#020202" stroke-width="1"></path>
    <path d="M9.17 14.47a3.12 3.12 0 0 1 -0.65 0.45 2.52 2.52 0 0 1 -0.65 -0.26c-0.36 -0.2 -0.71 -0.38 -1.08 -0.56 -0.54 -0.27 -1.68 -0.72 -2.23 -1a3.65 3.65 0 0 0 -0.8 -0.29c-0.53 0 -0.35 0.75 0 1.17 0.85 0.39 3.55 1.58 3.55 1.58a7.63 7.63 0 0 0 0.91 0.53 1 1 0 0 0 0.5 0.07 1 1 0 0 0 0.49 -0.16c0.23 -0.19 0.5 -0.55 0.65 -0.67 0.4 -0.33 0.8 -0.67 1.19 -1s0.63 -0.57 0.93 -0.86l0.5 0.22a6.78 6.78 0 0 1 0.84 0.45l1.26 0.84a8.09 8.09 0 0 0 0.66 0.52 0.68 0.68 0 0 0 0.49 0.05 1.16 1.16 0 0 0 0.27 -0.14c0.19 -0.12 0.38 -0.33 0.55 -0.43 0 0 2 -1.4 2.5 -1.66 0.86 -0.48 0.78 -1.35 0.2 -1.14a3.14 3.14 0 0 0 -0.9 0.5L16 14.05l-0.37 0.28a2.78 2.78 0 0 0 -0.47 -0.28c-0.42 -0.29 -0.84 -0.59 -1.28 -0.87a8 8 0 0 0 -1 -0.52 6.47 6.47 0 0 0 -0.88 -0.37 0.61 0.61 0 0 0 -0.59 0.15c-0.29 0.28 -0.58 0.56 -0.88 0.83s0.83 -0.64 -1.36 1.2Z" fill="#4C57E6" stroke-width="1"></path>
    <path d="M21.48 4.82 21 5a5.54 5.54 0 0 0 -0.73 0.29 6.86 6.86 0 0 0 -0.63 0.47c-0.05 0 -0.61 0.69 -0.62 0.69 -0.06 -0.28 -0.13 -0.57 -0.21 -0.85a5.71 5.71 0 0 0 -0.65 -1.52l0.66 -0.35a5.14 5.14 0 0 0 0.53 -0.44c0.31 -0.36 1.23 -1.19 1.05 -1.52a0.34 0.34 0 0 0 -0.47 -0.16 3.63 3.63 0 0 0 -1.06 0.56 3.57 3.57 0 0 0 -0.43 0.34c-0.13 0.12 -0.23 0.25 -0.34 0.36l-0.44 0.59a6.38 6.38 0 0 0 -0.52 -0.52c-0.25 -0.22 -0.77 -0.66 -0.76 -0.67s0.51 -0.33 0.61 -0.4a2.74 2.74 0 0 0 0.38 -0.45c0.16 -0.26 0.22 -0.53 0.36 -0.79a0.35 0.35 0 0 0 -0.51 -0.48 3.56 3.56 0 0 0 -0.76 0.56 5 5 0 0 0 -0.34 0.46c0 0.13 -0.22 0.52 -0.27 0.7a0.25 0.25 0 0 0 0 0.08l-0.49 -0.33a4.35 4.35 0 0 0 -2.75 -0.5A5.93 5.93 0 0 0 10 2a3.21 3.21 0 0 0 -0.77 0.76A7.91 7.91 0 0 0 8.5 4a5.39 5.39 0 0 0 -2.42 0.31A12.3 12.3 0 0 0 2.7 5.79 3 3 0 0 0 2 7.84a7.84 7.84 0 0 0 0.26 2.26 1.69 1.69 0 0 0 0.39 0.73 4.11 4.11 0 0 0 2.7 0.68A16.4 16.4 0 0 0 8.73 11l0.08 0 0 0.66 0 0.41a4 4 0 0 0 0.1 0.59c0.06 0.31 0.11 0.61 0.21 1s0.76 0.16 0.95 -0.48l0 -0.65a4.11 4.11 0 0 0 -0.08 -0.6 2.22 2.22 0 0 0 -0.12 -0.39 7.73 7.73 0 0 0 -0.35 -0.94c-0.13 -0.36 -0.37 -0.26 -0.87 -0.18a14.8 14.8 0 0 1 -3.2 0.2A5 5 0 0 1 3.48 10s-0.13 -0.53 -0.14 -0.57h0.16a3.29 3.29 0 0 0 0.77 -0.06 3.19 3.19 0 0 0 0.78 -0.24l1.6 -1A2 2 0 0 1 7.88 8a5.29 5.29 0 0 1 1.41 0.43 0.35 0.35 0 0 0 0.48 -0.12 0.36 0.36 0 0 0 -0.12 -0.48A5.62 5.62 0 0 0 7.75 7a2.86 2.86 0 0 0 -1.57 0.08 2.8 2.8 0 0 0 -0.61 0.34c-0.37 0.25 -0.67 0.59 -1.05 0.83a2.64 2.64 0 0 1 -0.52 0.27 4.11 4.11 0 0 1 -0.57 0.17h-0.19l0 -0.82a3.54 3.54 0 0 1 0.1 -0.9 0.63 0.63 0 0 1 0.14 -0.34 11.1 11.1 0 0 1 2.88 -1.52 5.51 5.51 0 0 1 2 -0.45 1 1 0 0 0 0.89 -0.44 7.17 7.17 0 0 0 0.56 -0.86 2.1 2.1 0 0 1 0.61 -0.71 5 5 0 0 1 2.18 -0.55 3.28 3.28 0 0 1 2 0.46 15.24 15.24 0 0 1 1.64 1.23 5.18 5.18 0 0 1 0.88 0.94 4.48 4.48 0 0 1 0.59 1.2A12.23 12.23 0 0 1 18.29 8l0.21 2.21c0 1.12 -0.1 1.32 0.2 1.47a0.37 0.37 0 0 0 0.51 -0.3 2.45 2.45 0 0 0 0 -0.42l0 -0.76 -0.01 -2.3c0 -0.22 -0.05 -0.45 -0.08 -0.7 0.08 0 1 -0.53 1.06 -0.55 0.22 -0.12 0.47 -0.21 0.69 -0.35s0.38 -0.34 0.58 -0.51l0.5 -0.43c0.05 -0.04 0.05 -0.7 -0.47 -0.54Z" fill="#020202" stroke-width="1"></path>
  </g>
</svg>