<svg xmlns="http://www.w3.org/2000/svg" viewBox="0 0 24 24" id="Pre-Historic-Animal-Tiranosaurus-Rex-Fossil-Bones--Streamline-Freehand">
  <desc>
    Pre Historic Animal Tiranosaurus Rex Fossil Bones Streamline Icon: https://streamlinehq.com
  </desc>
  <g>
    <path d="M12.34 6.68a5.56 5.56 0 0 1 -0.82 0.25c-0.48 0.11 -1 0.2 -1.42 0.32a4 4 0 0 1 -0.41 0.16c0 -0.07 -0.24 -1.41 -0.24 -1.41a0.31 0.31 0 0 0 -0.31 -0.31 0.32 0.32 0 0 0 -0.31 0.31l0 1.28 0 0.38A1 1 0 0 0 9 8a0.73 0.73 0 0 0 0.52 0.24 3.26 3.26 0 0 0 0.74 0c0.55 -0.08 1.12 -0.1 1.67 -0.19a4.94 4.94 0 0 0 0.78 -0.19 2.15 2.15 0 0 0 1.25 -1 3.18 3.18 0 0 0 0.07 -2.18 5.56 5.56 0 0 0 -0.27 -0.94 0.79 0.79 0 0 0 -0.48 -0.44 1.1 1.1 0 0 0 -0.47 0 6.62 6.62 0 0 0 -0.89 0.4c-0.3 0.13 -0.57 0.27 -0.85 0.42s-0.81 0.46 -1.2 0.7a0.36 0.36 0 0 0 -0.14 0.48 0.35 0.35 0 0 0 0.48 0.13c0.34 -0.16 0.67 -0.33 1 -0.48s1.5 -0.44 1.71 -0.52A7 7 0 0 1 13 6a1 1 0 0 1 -0.66 0.68Z" fill="#020202" stroke-width="1"></path>
    <path d="M3.83 6.75a1.94 1.94 0 0 0 -0.2 0.33 0.87 0.87 0 0 0 -0.08 0.26 2.94 2.94 0 0 0 -0.15 0.75c0 0.28 0.1 0.41 0.24 0.41l0.15 0c0.06 0 0.73 -0.68 0.82 -0.81a2.12 2.12 0 0 0 0.27 -0.49 3.27 3.27 0 0 0 0.23 -0.9 0.36 0.36 0 0 0 -0.22 -0.44c-0.13 -0.04 -0.26 -0.14 -1.06 0.89Z" fill="#020202" stroke-width="1"></path>
    <path d="M18.63 17.27a7.36 7.36 0 0 0 1 -0.56 2.77 2.77 0 0 0 0.65 -0.57 11.44 11.44 0 0 0 1 -1.43 3.76 3.76 0 0 0 0.43 -1.16c0.06 -0.37 0.15 -2.56 0.17 -3.46v-0.37a0.48 0.48 0 0 0 0 -0.15 0.32 0.32 0 0 0 -0.36 -0.22 0.38 0.38 0 0 0 -0.26 0.16 0.34 0.34 0 0 0 0 0.24c-0.06 0 0 0.16 0 0.32 0 0.87 -0.19 3 -0.25 3.35a3 3 0 0 1 -0.37 0.88 10.61 10.61 0 0 1 -0.93 1.28 1.68 1.68 0 0 1 -0.45 0.37 5.91 5.91 0 0 1 -0.91 0.45 6.6 6.6 0 0 1 -2.44 0.44c-1.36 0 -2.77 -0.15 -4 -0.14s-2.52 0.16 -3.78 0.19l-1.56 0a10.15 10.15 0 0 1 -2.13 -0.35 2.85 2.85 0 0 1 -1.11 -0.57 0.9 0.9 0 0 1 -0.26 -0.8 0.55 0.55 0 0 1 0.45 -0.52 15 15 0 0 1 2.11 -0.19c1.73 0 3.44 0.14 5.17 0a1.83 1.83 0 0 0 1.13 -0.46 3.23 3.23 0 0 0 0.52 -1.13l0.27 -0.82c0 -0.09 0.53 -1.47 0.51 -1.5 0.18 -0.11 0.37 -0.26 0.58 -0.38a0.55 0.55 0 0 1 0.27 -0.12h0.33c0.33 0 0.66 0.11 1 0.12l2.27 0 1.52 0 1.6 -0.05a0.31 0.31 0 0 0 0 -0.62h-1.66l-1.48 0c-0.75 0 -1.5 -0.06 -2.24 -0.11 -0.3 0 -0.62 -0.11 -0.93 -0.14a2.79 2.79 0 0 0 -0.5 0 1.68 1.68 0 0 0 -0.47 0.14c-0.25 0.12 -0.49 0.31 -0.72 0.44a12.45 12.45 0 0 1 -1.25 0.68 4.6 4.6 0 0 1 -0.83 0.32 9.65 9.65 0 0 1 -2.6 0.32 29.24 29.24 0 0 1 -4.06 -0.34 6 6 0 0 1 -2.37 -0.56 1.1 1.1 0 0 1 -0.52 -1 4.4 4.4 0 0 1 0.06 -0.73c0.08 -0.4 0.19 -0.78 0.3 -1.17a12.48 12.48 0 0 1 0.55 -1.7 3.49 3.49 0 0 1 0.57 -0.88 3.4 3.4 0 0 1 1 -0.7 10.27 10.27 0 0 1 2 -0.65L11.9 2a28.29 28.29 0 0 1 3.33 -0.65 11.69 11.69 0 0 1 2.22 0 8.52 8.52 0 0 1 1.43 0.21 3.28 3.28 0 0 1 0.82 0.33 2.84 2.84 0 0 1 1 1.58 14 14 0 0 1 0.46 3.22s0 1.89 0 1.91a0.35 0.35 0 0 0 0.35 0.34 0.42 0.42 0 0 0 0.36 -0.38V6.62a15 15 0 0 0 -0.43 -3.41 3.6 3.6 0 0 0 -1.35 -2.08 3.83 3.83 0 0 0 -0.98 -0.45A9.22 9.22 0 0 0 17.53 0.4a12 12 0 0 0 -2.39 0 26.51 26.51 0 0 0 -3.47 0.6L5.41 2.25A11.17 11.17 0 0 0 3.19 3 4.67 4.67 0 0 0 1.8 4 4.49 4.49 0 0 0 1 5.11 14.6 14.6 0 0 0 0.39 7c-0.11 0.4 -0.23 0.83 -0.31 1.26A6 6 0 0 0 0 9.2a2.18 2.18 0 0 0 1.09 2 7.18 7.18 0 0 0 2.85 0.68 31.53 31.53 0 0 0 4.19 0.23 10.55 10.55 0 0 0 2.87 -0.44 5.73 5.73 0 0 0 1 -0.4l0.47 -0.26c-0.14 0.35 -0.3 0.74 -0.31 0.79l-0.3 0.8a2.22 2.22 0 0 1 -0.41 0.85c-0.15 0.15 -0.37 0.17 -0.79 0.19 -1.7 0.08 -3.4 -0.16 -5.11 -0.19a16 16 0 0 0 -2.28 0.12A1.6 1.6 0 0 0 1.83 15a2.11 2.11 0 0 0 0.58 1.82 4.14 4.14 0 0 0 1.59 0.81 10.57 10.57 0 0 0 2.38 0.4 15.83 15.83 0 0 0 1.68 0c1.26 0 2.51 -0.2 3.78 -0.23 1.47 0 3.17 0.16 4.73 0a7 7 0 0 0 2.06 -0.53Z" fill="#020202" stroke-width="1"></path>
    <path d="M2.23 19.69a4.77 4.77 0 0 0 -1.11 1.13c-0.19 0.27 -0.32 0.58 -0.48 0.84l-0.26 0.83a2.5 2.5 0 0 0 -0.13 0.51c0 0.2 0.08 0.3 0.16 0.33a0.27 0.27 0 0 0 0.34 0 6 6 0 0 0 0.86 -1.09 4.68 4.68 0 0 0 0.39 -0.63 9 9 0 0 1 0.72 -1.42 0.37 0.37 0 0 0 0 -0.5 0.36 0.36 0 0 0 -0.49 0Z" fill="#4C57E6" stroke-width="1"></path>
    <path d="M13.61 21.16a3.15 3.15 0 0 1 -1.68 0.56 2.59 2.59 0 0 1 -1.58 -0.47c-0.61 -0.39 -1.07 -0.92 -1.67 -1.22a2.66 2.66 0 0 0 -1.62 -0.29 3.15 3.15 0 0 0 -1.11 0.4 5 5 0 0 0 -1.23 1.06c-0.18 0.21 -0.6 0.7 -0.6 0.88a0.33 0.33 0 0 0 0.32 0.4c0.24 0 0.74 -0.71 0.8 -0.76a4.76 4.76 0 0 1 0.94 -0.65 2.42 2.42 0 0 1 1 -0.26 1.75 1.75 0 0 1 1 0.25c0.56 0.31 1 0.78 1.62 1.14a3.54 3.54 0 0 0 2.27 0.43 4.13 4.13 0 0 0 2 -0.91 0.35 0.35 0 1 0 -0.42 -0.56Z" fill="#4C57E6" stroke-width="1"></path>
    <path d="M23.1 18.05a8.09 8.09 0 0 0 0.9 -4.12 0.35 0.35 0 0 0 -0.7 0 7.57 7.57 0 0 1 -1.14 3.58A9.63 9.63 0 0 1 21 19a10 10 0 0 1 -1.4 1.27 7.94 7.94 0 0 1 -1 0.66c-0.36 0.2 -0.74 0.37 -1.13 0.54l-0.78 0.29 -0.4 0.07a0.34 0.34 0 0 0 -0.25 0.26 0.29 0.29 0 0 0 0.21 0.35 5.93 5.93 0 0 0 1.47 -0.25 11.48 11.48 0 0 0 1.53 -0.52 7 7 0 0 0 1 -0.51 9.36 9.36 0 0 0 1.64 -1.35 7.84 7.84 0 0 0 1.21 -1.76Z" fill="#4C57E6" stroke-width="1"></path>
    <path d="M23.75 20.77a0.35 0.35 0 0 0 -0.44 0.22 4.89 4.89 0 0 1 -0.69 0.76q-0.16 0.16 -0.3 0.33c-0.08 0.1 -0.14 0.22 -0.21 0.32 -1.11 1.6 -0.11 1.25 0 1.19s0.67 -0.4 0.74 -0.44a3.49 3.49 0 0 0 0.42 -0.36 2.43 2.43 0 0 0 0.33 -0.46 3.46 3.46 0 0 0 0.4 -1.11 0.37 0.37 0 0 0 -0.25 -0.45Z" fill="#4C57E6" stroke-width="1"></path>
  </g>
</svg>