<svg xmlns="http://www.w3.org/2000/svg" viewBox="0 0 24 24" id="Presentation-Statistics--Streamline-Freehand">
  <desc>
    Presentation Statistics Streamline Icon: https://streamlinehq.com
  </desc>
  <g>
    <path d="M23.11 20.9a2.85 2.85 0 0 0 -0.38 -0.53 4.23 4.23 0 0 0 -0.65 -0.52 2.88 2.88 0 0 0 0.74 -2.15 2.61 2.61 0 0 0 -2.62 -2.61 2.81 2.81 0 0 0 -2.89 2.68A2.4 2.4 0 0 0 18.59 20a5.35 5.35 0 0 0 -0.89 0.57 3.43 3.43 0 0 0 -0.75 0.87 2.82 2.82 0 0 0 -0.4 1.26 5.5 5.5 0 0 0 -0.19 -1.17 2.83 2.83 0 0 0 -0.25 -0.59 2.45 2.45 0 0 0 -0.38 -0.53 4.23 4.23 0 0 0 -0.65 -0.52 2.8 2.8 0 0 0 0.74 -2.15 2.6 2.6 0 0 0 -2.61 -2.61 2.81 2.81 0 0 0 -2.89 2.68A2.39 2.39 0 0 0 11.59 20a5.8 5.8 0 0 0 -0.89 0.57 3.88 3.88 0 0 0 -0.75 0.87 2.55 2.55 0 0 0 -0.33 2 0.32 0.32 0 0 0 0.36 0.27 0.32 0.32 0 0 0 0.26 -0.36 1.76 1.76 0 0 1 0.35 -1 5.19 5.19 0 0 1 0.67 -0.83c0.37 -0.44 0.73 -0.87 1.08 -1.21 1.65 0.36 1.81 0.19 2.11 0.05a7.28 7.28 0 0 1 0.48 0.7l0.26 0.43c0.08 0.15 0.17 0.29 0.25 0.45A8.69 8.69 0 0 1 16 23a0.31 0.31 0 0 0 0.37 0.25 0.29 0.29 0 0 0 0.23 -0.27 2.35 2.35 0 0 0 0.05 0.37 0.32 0.32 0 0 0 0.63 -0.09 1.82 1.82 0 0 1 0.34 -1 5.8 5.8 0 0 1 0.67 -0.83c0.38 -0.44 0.74 -0.87 1.09 -1.21 1.65 0.36 1.8 0.19 2.11 0.05 0.18 0.23 0.33 0.47 0.48 0.7l0.25 0.43c0.09 0.15 0.17 0.29 0.25 0.45A7.59 7.59 0 0 1 23 23a0.3 0.3 0 0 0 0.36 0.25 0.31 0.31 0 0 0 0.25 -0.37 5.7 5.7 0 0 0 -0.22 -1.41 2.81 2.81 0 0 0 -0.28 -0.57Zm-11.89 -3.08a1.88 1.88 0 0 1 2 -1.67 1.66 1.66 0 0 1 1.7 1.63c0.4 3.15 -3.92 2.35 -3.7 0.04Zm7 0a1.89 1.89 0 0 1 2 -1.67 1.67 1.67 0 0 1 1.71 1.63c0.38 3.15 -3.93 2.35 -3.72 0.04Z" fill="#020202" fill-rule="evenodd" stroke-width="1"></path>
    <path d="M9.88 17.14a8.86 8.86 0 0 0 -0.39 -2 4.26 4.26 0 0 0 -0.36 -0.82 3.67 3.67 0 0 0 -0.52 -0.74 5.47 5.47 0 0 0 -1 -0.86A3.89 3.89 0 0 0 8.73 9.6 3.57 3.57 0 0 0 5.15 6a3.87 3.87 0 0 0 -4 3.66 3.32 3.32 0 0 0 2 3.16 8.68 8.68 0 0 0 -1.45 1 5.52 5.52 0 0 0 -1 1.22 3.55 3.55 0 0 0 -0.54 2.71 0.3 0.3 0 0 0 0.28 0.25 0.3 0.3 0 0 0 0.26 -0.36 2.86 2.86 0 0 1 0.45 -1.57 7.72 7.72 0 0 1 1 -1.26 20.29 20.29 0 0 1 1.7 -1.71 5.3 5.3 0 0 0 1.1 0.16 0.28 0.28 0 0 0 0.29 -0.26 0.29 0.29 0 0 0 -0.24 -0.3c-2.11 -0.2 -3 -1.59 -2.93 -3a2.94 2.94 0 0 1 3.1 -2.61 2.63 2.63 0 0 1 2.68 2.58 2.72 2.72 0 0 1 -2.15 3.2 0.32 0.32 0 0 0 -0.28 0.35 0.31 0.31 0 0 0 0.35 0.28A3.07 3.07 0 0 0 7 13.13a8.82 8.82 0 0 1 0.83 1.07c0.14 0.21 0.27 0.43 0.4 0.65s0.25 0.44 0.36 0.67a10.51 10.51 0 0 1 0.69 1.74 0.3 0.3 0 0 0 0.37 0.24 0.31 0.31 0 0 0 0.23 -0.36Z" fill="#020202" fill-rule="evenodd" stroke-width="1"></path>
    <path d="M23.88 3.41a3 3 0 0 0 -0.82 -1.52 2.8 2.8 0 0 0 -1.23 -0.76 10.73 10.73 0 0 0 -1.9 -0.29c-0.68 -0.08 -1.36 -0.14 -2.05 -0.2L14.82 0.45c-1.31 -0.08 -2.63 -0.11 -4 -0.08C8.9 0.4 6.93 0.53 5 0.69A13.64 13.64 0 0 0 2.45 1a2.07 2.07 0 0 0 -1.09 0.66 0.94 0.94 0 0 0 -0.17 0.46 7.45 7.45 0 0 0 0 0.82l0 1.53c0 0.53 0.09 1 0.16 1.53a0.28 0.28 0 1 0 0.57 0c0 -0.5 -0.09 -1 -0.11 -1.48s0 -1 0 -1.48l0 -0.66a0.57 0.57 0 0 1 0.09 -0.28A1.74 1.74 0 0 1 3 1.66a15 15 0 0 1 2 -0.17c1.62 -0.08 3.24 -0.13 4.87 -0.14s3.24 0 4.85 0.15c1 0.06 2 0.12 3.05 0.2 0.67 0.05 1.35 0.11 2 0.19a10 10 0 0 1 1.71 0.23 1.94 1.94 0 0 1 0.83 0.49 2.1 2.1 0 0 1 0.58 1A8.06 8.06 0 0 1 23 5.72l0 5.12 -0.08 2.05 0 0.38a4.18 4.18 0 0 1 -0.71 0.09c-0.82 0 -1.7 -0.1 -2.44 0a0.32 0.32 0 0 0 -0.29 0.34 0.31 0.31 0 0 0 0.33 0.29c0.74 0 1.61 0.1 2.41 0.09a3.77 3.77 0 0 0 1.13 -0.15 0.4 0.4 0 0 0 0.26 -0.32 6 6 0 0 0 0.06 -0.6l0.14 -2.11 0.19 -5.15a8.73 8.73 0 0 0 -0.12 -2.34Z" fill="#020202" fill-rule="evenodd" stroke-width="1"></path>
    <path d="M12.73 12.17a0.31 0.31 0 0 0 0.31 -0.32c0.06 -0.56 0.13 -1.11 0.16 -1.68l0 -0.71 0 -0.71c0 -0.56 -0.14 -1.1 -0.19 -1.66a0.28 0.28 0 0 0 -0.55 0 15.66 15.66 0 0 0 -0.27 1.69 5.77 5.77 0 0 0 0 0.72l0 0.72c0 0.56 0.14 1.11 0.2 1.66a0.32 0.32 0 0 0 0.34 0.29Z" fill="#4C57E6" fill-rule="evenodd" stroke-width="1"></path>
    <path d="M16 12.08a0.31 0.31 0 0 0 0.32 -0.31c0.09 -1.1 0.16 -2.19 0.15 -3.3 0 -0.65 0 -1.31 -0.08 -2 -0.07 -1 -0.19 -1.94 -0.24 -2.92a0.28 0.28 0 1 0 -0.55 0 30.32 30.32 0 0 0 -0.23 3.3c0 0.66 0 1.31 0.09 2 0.07 1 0.19 1.94 0.23 2.92a0.31 0.31 0 0 0 0.31 0.31Z" fill="#4C57E6" fill-rule="evenodd" stroke-width="1"></path>
    <path d="M18.8 12a0.31 0.31 0 0 0 0.31 -0.31c0.07 -0.72 0.16 -1.43 0.21 -2.15 0 -0.31 0 -0.62 0.05 -0.93s0 -0.62 0 -0.93c0 -0.73 -0.14 -1.44 -0.24 -2.17a0.27 0.27 0 0 0 -0.28 -0.27 0.28 0.28 0 0 0 -0.27 0.28c-0.06 0.72 -0.17 1.43 -0.22 2.15l0 0.92 0 0.93c0 0.73 0.09 1.44 0.15 2.17a0.31 0.31 0 0 0 0.29 0.31Z" fill="#4C57E6" fill-rule="evenodd" stroke-width="1"></path>
  </g>
</svg>