<svg xmlns="http://www.w3.org/2000/svg" viewBox="0 0 24 24" id="Presentation-Projector-Screen-Programing--Streamline-Freehand">
  <desc>
    Presentation Projector Screen Programing Streamline Icon: https://streamlinehq.com
  </desc>
  <g>
    <path d="M23.93 2.73a2.31 2.31 0 0 0 -1.49 -2C21.11 0.18 19 0.57 17.45 0.6 14.88 0.67 10 0.74 6.27 0.84 3.78 0.9 1.83 1 1.42 1.06a3.83 3.83 0 0 0 -0.84 0.23 0.8 0.8 0 0 0 -0.42 0.36 2.28 2.28 0 0 0 -0.16 0.93c0 0.66 0.14 1.42 0.12 1.9a0.3 0.3 0 0 0 0.27 0.3 0.3 0.3 0 0 0 0.3 -0.27c0 -0.46 -0.1 -1.26 -0.08 -1.92a1.64 1.64 0 0 1 0.12 -0.67c0 -0.07 0.16 -0.07 0.28 -0.1a4.21 4.21 0 0 1 0.53 -0.11c0.31 -0.05 1.5 -0.07 3.14 -0.07l12.79 0a23.34 23.34 0 0 1 4 -0.08 1.42 1.42 0 0 1 1.38 1.28l0.07 0.75c0 0.15 -0.14 0.19 -0.25 0.22a2.92 2.92 0 0 1 -0.9 0c-1.3 0 -10.13 0.26 -15.62 0.36l-3.89 0a0.33 0.33 0 0 0 0 0.65l5.87 0c5.41 0 12.49 -0.06 13.65 0a3.55 3.55 0 0 0 1.46 -0.17 1.19 1.19 0 0 0 0.76 -0.99Z" fill="#4C57E6" fill-rule="evenodd" stroke-width="1"></path>
    <path d="M21.83 5a0.32 0.32 0 0 0 -0.34 0.3l-0.36 9.94a16.44 16.44 0 0 1 -0.15 2 2 2 0 0 1 -0.46 1 1.27 1.27 0 0 1 -0.72 0.36 7.6 7.6 0 0 1 -1.58 0l-5.85 -0.22c-0.92 0 -1.85 -0.12 -2.78 -0.14l-1.22 0 -2.75 0.08a14.39 14.39 0 0 1 -2.08 0A1.91 1.91 0 0 1 2.47 18a0.55 0.55 0 0 1 -0.13 -0.35 9 9 0 0 1 0 -1.05c0 -0.92 -0.07 -3.89 -0.06 -6.54 0 -1.94 0 -3.7 0.12 -4.33a0.28 0.28 0 1 0 -0.55 -0.08c-0.09 0.51 -0.16 1.79 -0.22 3.3 -0.11 2.87 -0.18 6.61 -0.19 7.67a7.59 7.59 0 0 0 0 1.35 1.36 1.36 0 0 0 0.38 0.73 2.57 2.57 0 0 0 1.18 0.53 12.06 12.06 0 0 0 2.62 0.15l2.77 -0.05h1.17l1.39 0.08a0.17 0.17 0 0 1 0 0.05 2.45 2.45 0 0 0 0 0.27 1.24 1.24 0 0 0 0 0.27 0.84 0.84 0 0 0 0.05 0.17 2.09 2.09 0 0 0 -1 0.57 1.89 1.89 0 0 0 -0.52 1A1.6 1.6 0 0 0 9.91 23a2.14 2.14 0 0 0 2.7 0.14 1.56 1.56 0 0 0 0.49 -0.59 1.62 1.62 0 0 0 -0.33 -1.81 1.87 1.87 0 0 0 -0.88 -0.54c0 -0.06 0 -0.13 0.07 -0.2a1.27 1.27 0 0 0 0 -0.28 1.23 1.23 0 0 0 0 -0.27l0.36 0 5.86 0.16a8.38 8.38 0 0 0 1.8 -0.07 2.22 2.22 0 0 0 1.24 -0.68 2.91 2.91 0 0 0 0.66 -1.49 14.62 14.62 0 0 0 0.12 -2.11c0.09 -2.18 0 -5.35 0.07 -8 0 -0.72 0 -1.39 0.06 -2a0.32 0.32 0 0 0 -0.3 -0.26Zm-9.49 17.25a0.83 0.83 0 0 1 -0.29 0.4c-0.07 0.05 -1 0.52 -1.51 -0.16a0.69 0.69 0 0 1 -0.09 -0.54 0.92 0.92 0 0 1 0.3 -0.45 1.31 1.31 0 0 1 0.5 -0.28 0.87 0.87 0 0 1 0.81 0.23 0.75 0.75 0 0 1 0.28 0.8Z" fill="#020202" fill-rule="evenodd" stroke-width="1"></path>
    <path d="M8.48 9a0.27 0.27 0 0 0 0 -0.4 0.28 0.28 0 0 0 -0.4 0l-2.32 2c-0.16 0.15 -0.51 0.4 -0.75 0.64a1.77 1.77 0 0 0 -0.36 0.53 1.45 1.45 0 0 0 0.2 1.23 7.41 7.41 0 0 0 1.36 1.35l1.45 1.12a0.31 0.31 0 0 0 0.45 -0.07 0.31 0.31 0 0 0 -0.06 -0.4c-0.22 -0.19 -0.44 -0.39 -0.64 -0.59s-0.41 -0.41 -0.6 -0.65a10.48 10.48 0 0 1 -0.81 -0.93 2.76 2.76 0 0 1 -0.28 -0.45c0 -0.07 -0.09 -0.13 -0.07 -0.19l0.81 -0.79Z" fill="#020202" fill-rule="evenodd" stroke-width="1"></path>
    <path d="M10.47 16.22a29.74 29.74 0 0 0 1.81 -3.32c0.23 -0.49 0.44 -1 0.63 -1.48s0.38 -1 0.54 -1.52c0.38 -1.18 0.68 -2.38 1 -3.59a0.29 0.29 0 0 0 -0.14 -0.31 0.27 0.27 0 0 0 -0.36 0.17c-0.57 1.31 -1.14 2.6 -1.67 3.92 -0.26 0.65 -0.5 1.32 -0.75 2s-0.48 1.31 -0.75 2 -0.55 1.29 -0.87 1.92a0.32 0.32 0 0 0 0.12 0.44 0.33 0.33 0 0 0 0.44 -0.23Z" fill="#020202" fill-rule="evenodd" stroke-width="1"></path>
    <path d="M18.24 12a5.91 5.91 0 0 1 -0.72 0.59l-1 0.73 -1.77 1.23a0.32 0.32 0 0 0 -0.11 0.44 0.32 0.32 0 0 0 0.44 0.11l1.89 -1 1.15 -0.65a4.75 4.75 0 0 0 1.22 -1 1.33 1.33 0 0 0 0.29 -0.94 0.86 0.86 0 0 0 -0.33 -0.51 6.33 6.33 0 0 0 -0.85 -0.53c-0.38 -0.22 -0.77 -0.41 -1.16 -0.6L15.54 9a0.3 0.3 0 0 0 -0.39 0.11 0.3 0.3 0 0 0 0.12 0.39c0.54 0.34 1.08 0.68 1.61 1 0.35 0.23 0.69 0.48 1 0.73a5.28 5.28 0 0 1 0.64 0.34c0.08 0.06 0.12 0.12 0.06 0.17s-0.06 -0.12 -0.06 -0.17c0.03 0.2 -0.14 0.32 -0.28 0.43Z" fill="#020202" fill-rule="evenodd" stroke-width="1"></path>
  </g>
</svg>