<svg xmlns="http://www.w3.org/2000/svg" viewBox="0 0 24 24" id="Presentation-Analytics--Streamline-Freehand">
  <desc>
    Presentation Analytics Streamline Icon: https://streamlinehq.com
  </desc>
  <g>
    <path d="M10.52 11.55a2.42 2.42 0 0 0 -0.33 -1.08 2.61 2.61 0 0 0 -0.52 -0.62 0.67 0.67 0 0 0 -0.55 -0.14 1 1 0 0 0 -0.59 0.51c-0.26 0.45 -0.52 1.27 -0.64 1.45a4.67 4.67 0 0 1 -1.16 1.27l-0.09 0.06c0.08 -0.13 0.16 -0.24 0.23 -0.37a3 3 0 0 0 0.19 -2.32 3.41 3.41 0 0 0 -1.43 -1.69 3.73 3.73 0 0 0 -2.14 -0.57A3.51 3.51 0 0 0 0.46 10a3 3 0 0 0 0.73 3.46 2.44 2.44 0 0 0 0.4 0.32 2.29 2.29 0 0 0 -0.31 0.16 3.43 3.43 0 0 0 -0.53 0.48 3.25 3.25 0 0 0 -0.65 1.3 3.13 3.13 0 0 0 0 1.46 2.31 2.31 0 0 0 1.69 1.77v0.13c0.07 0.65 0.2 1.28 0.28 1.9a0.33 0.33 0 0 0 0.33 0.33 0.33 0.33 0 0 0 0.3 -0.31c0.06 -0.7 0.12 -1.42 0.13 -2.15l0 -1.25a14.49 14.49 0 0 1 -0.05 -1.86 0.28 0.28 0 0 0 -0.22 -0.34 0.29 0.29 0 0 0 -0.34 0.22 7.65 7.65 0 0 0 -0.47 2.18l0 0.32a1.61 1.61 0 0 1 -0.53 -0.72 2.68 2.68 0 0 1 0 -1.46 3 3 0 0 1 0.31 -1 2.08 2.08 0 0 1 0.39 -0.53c0.12 -0.11 0.25 -0.2 0.37 -0.3l0.15 0.07a6.68 6.68 0 0 0 1.94 0.21 0.29 0.29 0 1 0 0 -0.58 5.61 5.61 0 0 1 -1.72 -0.31 1.9 1.9 0 0 1 -0.84 -0.6 2.15 2.15 0 0 1 -0.38 -2.45 2.5 2.5 0 0 1 2.14 -1.3 2.86 2.86 0 0 1 1.55 0.36 2.55 2.55 0 0 1 1.11 1.14 2.2 2.2 0 0 1 -0.06 1.65A2 2 0 0 1 5 13.5a0.32 0.32 0 0 0 -0.22 0.4 0.3 0.3 0 0 0 0.24 0.21 0.26 0.26 0 0 0 0.29 0.15 5.08 5.08 0 0 0 1.85 -0.73 5.82 5.82 0 0 0 1.47 -1.37c0.1 -0.14 0.32 -1 0.56 -1.39 0 0.09 0.08 0.2 0.09 0.23a1.45 1.45 0 0 1 0.16 0.78 3.32 3.32 0 0 1 -0.21 0.92 5 5 0 0 1 -0.7 1.3 6.71 6.71 0 0 1 -1 1.14c-0.23 0.22 -0.74 0.5 -1 0.78a1.51 1.51 0 0 0 -0.32 0.37 0.92 0.92 0 0 0 -0.07 0.49c0 0.3 0.18 0.77 0.2 0.93 0.06 0.48 0.12 1 0.14 1.46a11.69 11.69 0 0 1 0 1.45 0.33 0.33 0 1 0 0.65 0.07 13.25 13.25 0 0 0 0.09 -1.54l0 -1.52c0 -0.16 0.09 -0.81 -0.07 -1l1.13 -0.77a7.21 7.21 0 0 0 1.19 -1.27 6 6 0 0 0 0.84 -1.57 4 4 0 0 0 0.21 -1.47Z" fill="#020202" fill-rule="evenodd" stroke-width="1"></path>
    <path d="M18 4.91c-0.49 0.36 -1 0.7 -1.49 1a14.09 14.09 0 0 1 -1.5 0.89c-0.35 0.2 -0.71 0.37 -1.07 0.54s-0.74 0.36 -1.12 0.52 -1 0.42 -1.56 0.62a0.29 0.29 0 1 0 0.16 0.56A24 24 0 0 0 14 8.51a9.36 9.36 0 0 0 1.62 -0.71 11.94 11.94 0 0 0 1.23 -0.88c0.57 -0.47 1.1 -1 1.64 -1.5a0.33 0.33 0 0 0 -0.49 -0.51Z" fill="#4C57E6" fill-rule="evenodd" stroke-width="1"></path>
    <path d="M13.24 9.22a0.29 0.29 0 0 0 -0.35 0.21 6.52 6.52 0 0 0 -0.44 1.24 3.43 3.43 0 0 0 -0.08 0.56 5.09 5.09 0 0 0 0 0.55c0 0.44 0.12 0.85 0.19 1.27a0.33 0.33 0 1 0 0.66 0c0 -0.4 0.13 -0.8 0.19 -1.22a4.43 4.43 0 0 0 0.06 -0.51l0 -0.52c0 -0.42 -0.06 -0.81 0 -1.21a0.3 0.3 0 0 0 -0.23 -0.37Z" fill="#4C57E6" fill-rule="evenodd" stroke-width="1"></path>
    <path d="M16.14 8.13a0.29 0.29 0 0 0 -0.32 0.25 11.43 11.43 0 0 0 -0.41 1.62 5.85 5.85 0 0 0 -0.07 0.72l0 0.71c0 0.56 0.13 1.11 0.21 1.66a0.34 0.34 0 0 0 0.34 0.32 0.33 0.33 0 0 0 0.32 -0.34c0 -0.55 0.12 -1.08 0.17 -1.62 0 -0.23 0 -0.46 0.05 -0.69s0 -0.46 0 -0.69c0 -0.54 -0.07 -1.07 -0.07 -1.62a0.29 0.29 0 0 0 -0.22 -0.32Z" fill="#4C57E6" fill-rule="evenodd" stroke-width="1"></path>
    <path d="M18 8.88c0 0.29 -0.06 0.59 -0.08 0.89a8.81 8.81 0 0 0 0 0.89 13.43 13.43 0 0 0 0.29 2.1 0.31 0.31 0 0 0 0.36 0.28 0.33 0.33 0 0 0 0.29 -0.36c0 -0.69 0.06 -1.37 0.1 -2.06 0 -0.46 0.08 -0.92 0.08 -1.38 0 -0.79 -0.05 -1.57 -0.09 -2.35a0.29 0.29 0 0 0 -0.27 -0.31 0.28 0.28 0 0 0 -0.3 0.27c-0.16 0.67 -0.32 1.34 -0.38 2.03Z" fill="#4C57E6" fill-rule="evenodd" stroke-width="1"></path>
    <path d="M23.71 3.07a42.08 42.08 0 0 0 -4.21 -0.33l-3.14 0c-1.05 0 -2.09 0 -3.13 0.06l-2.15 0q-1.63 0 -3.27 0.12c-1.21 0.07 -2.42 0.18 -3.63 0.36a0.29 0.29 0 0 0 0.07 0.58C4.82 3.82 5.4 3.81 6 3.8a0.18 0.18 0 0 0 0 0.1 14 14 0 0 0 -0.24 1.44 4.15 4.15 0 0 0 0 0.61l0 0.62c0 0.48 0.14 0.95 0.21 1.43a0.34 0.34 0 0 0 0.34 0.32 0.32 0.32 0 0 0 0.27 -0.32c0.06 -0.48 0.13 -1 0.17 -1.44l0 -0.61 0 -0.61c0 -0.49 -0.16 -0.94 -0.24 -1.42l0 -0.13 0.48 0c1.26 0 2.52 0.06 3.78 0.09l2.54 0c0.84 0 1.95 0 2.93 -0.1 1.45 -0.06 2.91 -0.16 4.36 -0.17 0.61 0 1.21 0 1.81 0.07 -0.08 1.35 -0.16 2.7 -0.2 4.06l0 2.32 0 2.33c0 0.78 -0.08 1.54 -0.17 2.31a0.34 0.34 0 0 0 0.28 0.38 0.33 0.33 0 0 0 0.37 -0.28 31 31 0 0 0 0.62 -4.7c0 -0.94 0.05 -1.89 0 -2.83 0 -1.2 -0.15 -2.39 -0.23 -3.57l0.64 0a0.33 0.33 0 0 0 0.07 -0.65Z" fill="#020202" fill-rule="evenodd" stroke-width="1"></path>
    <path d="M21.52 14.64a22.62 22.62 0 0 1 -3.31 0.26l-3.1 0 -4.72 0a0.3 0.3 0 0 0 -0.31 0.27 0.29 0.29 0 0 0 0.27 0.31c1 0.13 2 0.27 2.94 0.39a1.43 1.43 0 0 0 -0.08 0.22 1.06 1.06 0 0 0 0 0.25 1.18 1.18 0 0 0 0 0.25 0.88 0.88 0 0 1 0 0.15 1.47 1.47 0 0 0 -0.93 1.13c0 0.05 -0.28 1.8 1.93 1.62 0.82 0 1.17 -0.71 1.14 -1.42a1.6 1.6 0 0 0 -1.17 -1.45 0.14 0.14 0 0 0 0 -0.06 1.07 1.07 0 0 0 0 -0.25 0.73 0.73 0 0 0 0 -0.25l0 -0.08c0.57 0.05 1.13 0.08 1.7 0.08s1.15 0 1.72 -0.05a21.82 21.82 0 0 0 4 -0.65 0.33 0.33 0 0 0 -0.14 -0.65Zm-7 3.47c0.06 0.28 0 0.6 -0.29 0.65 0 0 -1 0.5 -1 -0.57a0.64 0.64 0 0 1 0.2 -0.39 0.63 0.63 0 0 1 0.6 -0.19 0.57 0.57 0 0 1 0.48 0.5Z" fill="#020202" fill-rule="evenodd" stroke-width="1"></path>
  </g>
</svg>