<svg xmlns="http://www.w3.org/2000/svg" viewBox="0 0 24 24" id="Primitive-Symbols-Bull--Streamline-Freehand">
  <desc>
    Primitive Symbols Bull Streamline Icon: https://streamlinehq.com
  </desc>
  <g>
    <path d="M23.81 11.49a4.21 4.21 0 0 1 -0.79 -0.63c-0.11 -0.1 -0.2 -0.22 -0.31 -0.32s-0.29 -0.33 -0.44 -0.5a8.55 8.55 0 0 1 -0.56 -0.72 3.79 3.79 0 0 0 -0.12 -0.4 2.6 2.6 0 0 0 -0.82 -1.09 1.39 1.39 0 0 0 -0.7 -0.25 3.62 3.62 0 0 0 -1.1 0.21c-0.19 0 -0.37 0.11 -0.52 0A1.33 1.33 0 0 1 18 7a3.72 3.72 0 0 0 -0.34 -0.9 1.67 1.67 0 0 0 -1 -0.75 2.18 2.18 0 0 0 -0.94 -0.08 5.73 5.73 0 0 0 -1.51 0.51A1.72 1.72 0 0 1 13.2 6a0.94 0.94 0 0 1 -0.41 -0.31c-0.27 -0.33 -0.48 -0.75 -0.69 -1a3.69 3.69 0 0 0 -1.74 -1.34 2.44 2.44 0 0 0 -1.58 0 4.17 4.17 0 0 0 -1.84 1.18 13.82 13.82 0 0 0 -1.65 2.62c-0.28 0.53 -0.54 1.1 -0.81 1.67 -0.31 0.14 -0.63 0.28 -0.93 0.43l-0.88 0.43a9.56 9.56 0 0 1 -1.32 0.66 0.29 0.29 0 0 0 0.11 0.56A6.14 6.14 0 0 0 3 10.66a4.39 4.39 0 0 0 0.63 -0.26l0.13 -0.08c-0.35 0.76 -0.71 1.52 -1.12 2.24a10.24 10.24 0 0 1 -2.41 3s-0.46 0.41 -0.18 0.8a4.64 4.64 0 0 0 0.63 0.7 2.38 2.38 0 0 0 0.55 0.39 3 3 0 0 0 2 0.24 6.43 6.43 0 0 0 2.56 -1.19 11.06 11.06 0 0 0 0.9 -0.77c0.27 -0.27 0.53 -0.56 0.79 -0.86l0.22 -0.26c0 0.14 0.08 0.27 0.12 0.38a20.65 20.65 0 0 0 0.87 2.15 3.31 3.31 0 0 0 0.67 0.92 3.13 3.13 0 0 0 0.3 0.2 0.15 0.15 0 0 0 0 0.07c-0.06 0.26 -0.14 0.47 -0.18 0.74a1.5 1.5 0 0 0 0 0.3l0.06 0.31c0.08 0.24 0.17 0.45 0.26 0.69a0.34 0.34 0 0 0 0.35 0.29 0.33 0.33 0 0 0 0.29 -0.36c0 -0.25 0.1 -0.47 0.12 -0.72s0 -0.2 0 -0.3a1.45 1.45 0 0 0 -0.06 -0.3 2.32 2.32 0 0 0 -0.18 -0.46 1.52 1.52 0 0 0 0.2 0.06 5.24 5.24 0 0 0 1.12 0c0 0.24 -0.12 0.44 -0.15 0.68s0 0.2 0 0.3a1.36 1.36 0 0 0 0.06 0.29c0.06 0.25 0.16 0.46 0.24 0.7a0.34 0.34 0 0 0 0.35 0.29 0.33 0.33 0 0 0 0.3 -0.35c0 -0.25 0.1 -0.46 0.13 -0.71s0 -0.21 0 -0.31a1.57 1.57 0 0 0 0 -0.3 3.93 3.93 0 0 0 -0.3 -0.66l0.64 -0.06c1.34 -0.1 2.66 -0.2 4 -0.33 0.16 0 0.31 -0.05 0.47 -0.06a2.12 2.12 0 0 0 -0.13 0.38 0.65 0.65 0 0 0 0 0.24 1 1 0 0 0 0 0.24 5.31 5.31 0 0 0 0.23 0.55 0.32 0.32 0 0 0 0.34 0.3 0.32 0.32 0 0 0 0.3 -0.34c0.05 -0.2 0.12 -0.37 0.15 -0.57a0.65 0.65 0 0 0 0 -0.24 0.85 0.85 0 0 0 0 -0.23A3.29 3.29 0 0 0 18 18c0.49 -0.06 1 -0.11 1.47 -0.19a0.32 0.32 0 0 0 -0.09 -0.64c-0.88 0.1 -1.75 0.17 -2.62 0.22 -1.31 0.07 -2.62 0.11 -3.95 0.14 -0.52 0 -1.23 0.13 -1.87 0.09a1.32 1.32 0 0 1 -0.85 -0.31 3 3 0 0 1 -0.58 -0.91c-0.27 -0.6 -0.48 -1.28 -0.68 -1.77 -0.1 -0.26 -0.19 -0.6 -0.32 -0.89a1.66 1.66 0 0 0 -0.3 -0.46 0.54 0.54 0 0 0 -0.52 -0.19 0.55 0.55 0 0 0 -0.35 0.2c-0.07 0.08 -0.48 0.74 -0.67 1s-0.44 0.56 -0.68 0.82a7.71 7.71 0 0 1 -0.77 0.74A5.53 5.53 0 0 1 3.05 17a2.33 2.33 0 0 1 -1.5 -0.08 2.52 2.52 0 0 1 -0.44 -0.28c-0.2 -0.18 -0.38 -0.38 -0.57 -0.57L0.6 16a10.81 10.81 0 0 0 2.68 -3.12c0.93 -1.5 2.22 -4.25 2.82 -5.29a12.13 12.13 0 0 1 1.59 -2.37 3.24 3.24 0 0 1 1.41 -1 1.51 1.51 0 0 1 1.14 0.13 2.85 2.85 0 0 1 1 0.85 8.93 8.93 0 0 0 0.92 1.31A1.67 1.67 0 0 0 13 7a2.18 2.18 0 0 0 1 0 6.17 6.17 0 0 0 1.19 -0.45 1.88 1.88 0 0 1 1.32 -0.23 0.69 0.69 0 0 1 0.4 0.29 3.93 3.93 0 0 1 0.32 0.85 2.09 2.09 0 0 0 0.76 1.09 1.19 1.19 0 0 0 0.74 0.22 3.31 3.31 0 0 0 0.89 -0.19c0.25 -0.08 0.49 -0.2 0.72 0a1.69 1.69 0 0 1 0.55 0.7 5.53 5.53 0 0 1 0.4 1.52 11.6 11.6 0 0 1 -0.07 3.94 5.69 5.69 0 0 1 -1.05 2.32 0.32 0.32 0 0 0 0.05 0.45 0.33 0.33 0 0 0 0.45 0 6.42 6.42 0 0 0 1.25 -2.57 11.64 11.64 0 0 0 0.24 -3.53l0.2 0.17a4.31 4.31 0 0 0 1.31 0.55 0.32 0.32 0 1 0 0.24 -0.6Z" fill="#020202" fill-rule="evenodd" stroke-width="1"></path>
    <path d="M20.18 18a0.3 0.3 0 0 0 -0.32 -0.25 0.28 0.28 0 0 0 -0.24 0.32 5.27 5.27 0 0 0 -0.19 0.56 0.65 0.65 0 0 0 0 0.24 1.22 1.22 0 0 0 0.06 0.26 2.39 2.39 0 0 0 0.3 0.57 0.32 0.32 0 0 0 0.4 0.22 0.31 0.31 0 0 0 0.22 -0.39c0 -0.19 0.08 -0.34 0.1 -0.54a1.09 1.09 0 0 0 0 -0.36 2.15 2.15 0 0 0 -0.33 -0.63Z" fill="#020202" fill-rule="evenodd" stroke-width="1"></path>
  </g>
</svg>