<svg xmlns="http://www.w3.org/2000/svg" viewBox="0 0 24 24" id="Primitive-Symbols-Animal-1--Streamline-Freehand">
  <desc>
    Primitive Symbols Animal 1 Streamline Icon: https://streamlinehq.com
  </desc>
  <path d="M23.94 20.36a5 5 0 0 0 -1.43 -1.61 5 5 0 0 0 -0.93 -0.54 7.54 7.54 0 0 0 -1 -0.34 8.5 8.5 0 0 0 -1.16 -0.23h-0.06l0.07 -0.05a3.93 3.93 0 0 0 1.14 -3.76 5 5 0 0 0 -2.39 -3.14 9.47 9.47 0 0 0 -4.67 -1.06 11.87 11.87 0 0 0 -4.48 1 7.47 7.47 0 0 0 0.64 -0.63c0.44 -0.52 0.84 -1.08 1.31 -1.57s1.12 -1 1.63 -1.58a6.16 6.16 0 0 0 0.63 -0.8l0.28 -0.5c0.42 -0.91 0.05 -1.29 -0.41 -1.43a5.07 5.07 0 0 0 -2.51 0.6c-0.31 0.17 -0.56 0.3 -0.8 0.45s-0.48 0.31 -0.77 0.53a10.47 10.47 0 0 0 -0.89 0.73c0.15 -0.36 0.3 -0.72 0.43 -1.08S8.87 4.43 9 4a3.6 3.6 0 0 0 0.11 -1.33 0.69 0.69 0 0 0 -0.54 -0.67 1.33 1.33 0 0 0 -0.88 0.29 9.09 9.09 0 0 0 -1 1A16 16 0 0 0 4.21 6.5 9.08 9.08 0 0 0 3 10a4 4 0 0 0 -1.24 0.2 2.84 2.84 0 0 0 -1.36 1 1.85 1.85 0 0 0 -0.4 1.08 1.35 1.35 0 0 0 0.35 0.87 2.84 2.84 0 0 0 1 0.65c0.69 0.29 1.57 0.43 2.11 0.67a9.74 9.74 0 0 1 1.71 0.92l0.09 0.06a6 6 0 0 0 -1.48 0.09 4.09 4.09 0 0 0 -0.89 0.31 4.35 4.35 0 0 0 -0.8 0.48 7.37 7.37 0 0 0 -1.51 1.51 0.32 0.32 0 0 0 0.47 0.43 8.7 8.7 0 0 1 1.56 -1.1c0.24 -0.13 0.48 -0.24 0.71 -0.35s0.48 -0.21 0.73 -0.3a7 7 0 0 1 1.84 -0.47A0.26 0.26 0 0 0 6 16c0.25 0.2 0.5 0.39 0.73 0.59a0.32 0.32 0 1 0 0.44 -0.46 17.45 17.45 0 0 0 -1.87 -1.66 9.72 9.72 0 0 0 -1.45 -0.91c-0.55 -0.26 -1.42 -0.45 -2.12 -0.74a2.08 2.08 0 0 1 -0.62 -0.37 0.44 0.44 0 0 1 -0.11 -0.29 1.13 1.13 0 0 1 0.18 -0.5 2 2 0 0 1 0.9 -0.8c0.94 -0.45 1.55 0 1.55 -0.59a0.32 0.32 0 0 0 0 -0.09 8.35 8.35 0 0 1 1.2 -3.32 15.16 15.16 0 0 1 2.46 -2.92c0.1 -0.09 0.38 -0.39 0.68 -0.64a2 2 0 0 1 0 0.38c-0.14 0.45 -0.31 0.9 -0.48 1.34 -0.26 0.67 -0.55 1.34 -0.84 2L6.33 8c0 0.12 -0.2 0.42 -0.22 0.5a0.58 0.58 0 0 0 0.12 0.45A0.52 0.52 0 0 0 7 9c0.65 -0.56 1.22 -1.2 1.85 -1.8a10 10 0 0 1 0.77 -0.67c0.27 -0.21 0.47 -0.36 0.69 -0.51s0.45 -0.28 0.74 -0.44A5.57 5.57 0 0 1 12.6 5a0.47 0.47 0 0 1 0.17 0 0.36 0.36 0 0 1 0 0.19l-0.19 0.4a7.56 7.56 0 0 1 -0.74 0.95c-0.43 0.47 -0.91 0.9 -1.34 1.38S9.6 9 9.16 9.55a4.76 4.76 0 0 1 -0.57 0.62 0.32 0.32 0 0 0 0 0.45 0.31 0.31 0 0 0 0.33 0.06 0.28 0.28 0 0 0 0.25 0.49 11.24 11.24 0 0 1 4.37 -0.68 8.55 8.55 0 0 1 4.14 1.13 4 4 0 0 1 1.93 2.45 3.09 3.09 0 0 1 -0.76 2.93 3.47 3.47 0 0 1 -1.18 0.8c-1.67 0.71 -2.76 0.72 -5.1 0.59 -0.69 0 -1.39 -0.12 -2.07 -0.22A6.27 6.27 0 0 1 7.37 17 0.28 0.28 0 0 0 7 17a0.29 0.29 0 0 0 0 0.27c-0.31 0 -0.62 0.08 -0.93 0.15a5 5 0 0 0 -0.66 0.19 4.69 4.69 0 0 0 -0.74 0.38 5.16 5.16 0 0 0 -0.94 0.81 8.7 8.7 0 0 0 -1.53 2.55 0.32 0.32 0 0 0 0.14 0.43 0.33 0.33 0 0 0 0.43 -0.14 10.49 10.49 0 0 1 1.4 -1.8 9.35 9.35 0 0 1 0.8 -0.74 5.52 5.52 0 0 1 0.87 -0.63 4.07 4.07 0 0 1 0.66 -0.33c0.32 -0.13 0.66 -0.23 1 -0.36a6.45 6.45 0 0 0 2.9 1.4 9.88 9.88 0 0 0 2.24 0.2 19.52 19.52 0 0 0 3.95 -0.51 0.28 0.28 0 0 0 0.24 0.25 3.46 3.46 0 0 1 1.25 0.57c0.14 0.09 0.27 0.19 0.41 0.3l0.62 0.47a11 11 0 0 1 1.5 1.36 0.32 0.32 0 1 0 0.51 -0.37 8.16 8.16 0 0 0 -1.09 -1.56 4.38 4.38 0 0 0 -1 -0.82 4 4 0 0 0 -1.41 -0.47c0.14 0 0.29 -0.07 0.43 -0.12s0.39 -0.18 0.57 -0.27a0.25 0.25 0 0 0 0.17 0 1.43 1.43 0 0 1 0.6 0.1 7.53 7.53 0 0 1 1 0.44c0.36 0.15 0.7 0.32 1 0.48s0.67 0.31 1 0.5a4.56 4.56 0 0 1 1.12 0.95 0.32 0.32 0 0 0 0.52 -0.36Z" fill="#020202" fill-rule="evenodd" stroke-width="1"></path>
</svg>