<svg xmlns="http://www.w3.org/2000/svg" viewBox="0 0 24 24" id="Privacy-User-Content-Approval--Streamline-Freehand">
  <desc>
    Privacy User Content Approval Streamline Icon: https://streamlinehq.com
  </desc>
  <g>
    <path d="M22.19 15.54a0.32 0.32 0 0 0 -0.45 0 0.33 0.33 0 0 0 0 0.45 3.53 3.53 0 0 1 0.65 4.74 5.48 5.48 0 0 1 -4.62 2.19 5.55 5.55 0 0 1 -2.56 -0.71 3.48 3.48 0 0 1 -1.67 -1.91 3.91 3.91 0 0 1 1.09 -4.57 6 6 0 0 1 4.73 -0.91c-0.47 0.84 -0.93 1.7 -1.39 2.55 -0.66 1.4 -0.31 2.07 -1.49 1.16 -0.52 -0.39 -1 -0.9 -1.32 -1.09a0.29 0.29 0 0 0 -0.4 0.05 0.28 0.28 0 0 0 0 0.39c0.29 0.26 0.88 1 1.42 1.42a2 2 0 0 0 1 0.53 1 1 0 0 0 0.73 -0.39 10.9 10.9 0 0 0 1 -1.58c0.36 -0.7 0.73 -1.4 1.09 -2.11s0.67 -1.42 1 -2.12 0.63 -1.19 1 -1.76a0.32 0.32 0 0 0 -0.08 -0.44 0.32 0.32 0 0 0 -0.45 0.09c-0.65 0.9 -1.26 1.82 -1.83 2.78a6.59 6.59 0 0 0 -5.53 0.78 4.82 4.82 0 0 0 -1.59 5.57 4.55 4.55 0 0 0 2.13 2.5 6.79 6.79 0 0 0 3.15 0.85 6.41 6.41 0 0 0 5.31 -2.78 4.23 4.23 0 0 0 -0.92 -5.68Z" fill="#020202" stroke-width="1"></path>
    <path d="M3.94 13.24c0 -0.51 -0.07 -0.87 -0.09 -1.39 -0.17 -0.34 -1 -0.07 -1 0.24 0 0.48 0 0.74 0.07 1.22l0 0.51c0 0.25 0.78 0.08 1 -0.22 0.08 -0.2 0.08 -0.15 0.02 -0.36Z" fill="#020202" stroke-width="1"></path>
    <path d="M3.87 11.2a2.2 2.2 0 0 1 1.44 0 0.32 0.32 0 1 0 0.35 -0.54 2.58 2.58 0 0 0 -1.51 -0.6 5 5 0 0 0 -1.34 0.22 2.85 2.85 0 0 0 -0.31 0.12 4.92 4.92 0 0 0 -1.28 1.12 0.28 0.28 0 1 0 0.38 0.48 4.29 4.29 0 0 1 0.86 -0.42 6.28 6.28 0 0 1 1.41 -0.38Z" fill="#4C57E6" stroke-width="1"></path>
    <path d="M5.1 19.75a2.32 2.32 0 0 1 1.13 0.2 0.32 0.32 0 0 0 0.34 -0.54 3 3 0 0 0 -1.65 -0.66 2.55 2.55 0 0 0 -0.39 0 4 4 0 0 0 -1.07 0.2 5.74 5.74 0 0 0 -1.46 0.89 0.29 0.29 0 0 0 -0.11 0.39 0.29 0.29 0 0 0 0.39 0.1A8.8 8.8 0 0 1 3.75 20s1.25 -0.25 1.35 -0.25Z" fill="#4C57E6" stroke-width="1"></path>
    <path d="M5.55 15.69a0.32 0.32 0 1 0 0.38 -0.51 2.56 2.56 0 0 0 -1.57 -0.72 4.32 4.32 0 0 0 -0.94 0.08l-0.51 0.18a4.42 4.42 0 0 0 -1.29 1 0.27 0.27 0 0 0 0 0.39 0.29 0.29 0 0 0 0.4 0.05 5.33 5.33 0 0 1 1.73 -0.7 3.38 3.38 0 0 1 1.8 0.23Z" fill="#4C57E6" stroke-width="1"></path>
    <path d="M4.19 16.17c-0.13 -0.42 -0.77 -0.36 -0.92 0 0.1 0.72 0.16 1.17 0.29 1.88 0 0.28 0.75 0.12 0.84 -0.19 -0.09 -0.62 -0.14 -1.04 -0.21 -1.69Z" fill="#020202" stroke-width="1"></path>
    <path d="M3.81 4.85v-0.4a3 3 0 0 1 0.35 -1.57 2.6 2.6 0 0 1 1.13 -0.74 17 17 0 0 1 2.35 -0.58A18.71 18.71 0 0 1 10.75 1a38.53 38.53 0 0 1 4.79 0.1 12.82 12.82 0 0 1 2.2 0.11 1.7 1.7 0 0 1 1 0.6 4.87 4.87 0 0 1 0.77 2.41c0.26 2.15 0 4.82 0.06 6.43a0.33 0.33 0 0 0 0.65 0c-0.07 -1.62 0.27 -4.31 0.06 -6.49a5.74 5.74 0 0 0 -0.88 -2.82 2.52 2.52 0 0 0 -1.5 -0.93 12.86 12.86 0 0 0 -2.31 -0.18A37.21 37.21 0 0 0 10.68 0 19.34 19.34 0 0 0 7.4 0.53a17.92 17.92 0 0 0 -2.49 0.61 3.65 3.65 0 0 0 -1.6 1.07 3.33 3.33 0 0 0 -0.54 1.67l0 1c0.23 0.39 0.99 0.23 1.04 -0.03Z" fill="#020202" stroke-width="1"></path>
    <path d="M3.85 7.38v-0.32c-0.06 -0.23 -1.07 -0.22 -1.07 0.09v0.21l0 2.11c0.11 0.37 1 0.21 1.06 0 0 -0.78 -0.01 -1.36 0.01 -2.09Z" fill="#020202" stroke-width="1"></path>
    <path d="M4 6.57a2.63 2.63 0 0 1 0.36 0.08 1.73 1.73 0 0 1 0.37 0.16 0.32 0.32 0 1 0 0.38 -0.52 3.14 3.14 0 0 0 -1.33 -0.71 2.37 2.37 0 0 0 -1.08 -0.07l-0.18 0a3.14 3.14 0 0 0 -0.78 0.22A4.86 4.86 0 0 0 0.29 6.84a0.27 0.27 0 0 0 0 0.39 0.28 0.28 0 0 0 0.4 0 5.94 5.94 0 0 1 1.51 -0.56 4.76 4.76 0 0 1 0.61 -0.13S4 6.56 4 6.57Z" fill="#4C57E6" stroke-width="1"></path>
    <path d="M11.61 22.67c-0.44 0.06 -0.75 0.11 -1 0.13 -0.82 0.09 -0.91 0.05 -2.37 0.21a9.9 9.9 0 0 1 -1.51 0.15 1.35 1.35 0 0 1 -0.79 -0.25 2.84 2.84 0 0 1 -0.81 -1.32 9 9 0 0 1 -0.25 -0.89c-0.15 -0.51 -0.82 -0.45 -0.82 -0.07a10.79 10.79 0 0 0 0.36 1.23 3.62 3.62 0 0 0 1.09 1.62 2.06 2.06 0 0 0 1.19 0.36 11.08 11.08 0 0 0 1.62 -0.19c1.45 -0.2 1.55 -0.15 2.36 -0.26l1 -0.16a0.28 0.28 0 0 0 -0.09 -0.56Z" fill="#020202" stroke-width="1"></path>
    <path d="M12.52 9.45a4.5 4.5 0 0 1 1.49 0.8 5.72 5.72 0 0 1 0.53 0.45c0.17 0.17 0.33 0.33 0.48 0.51a5.78 5.78 0 0 1 0.91 1.46 0.33 0.33 0 0 0 0.41 0.21 0.33 0.33 0 0 0 0.21 -0.4 5.66 5.66 0 0 0 -0.71 -1.86 3.34 3.34 0 0 0 -0.55 -0.69 3 3 0 0 0 -0.72 -0.54A4 4 0 0 0 13 9a3 3 0 0 0 1.26 -3.17 2.73 2.73 0 0 0 -3.59 -2A3.06 3.06 0 0 0 8.36 7a2.51 2.51 0 0 0 1.81 2.26 4.28 4.28 0 0 0 -0.84 0.73 3.32 3.32 0 0 0 -0.73 1.67 4.35 4.35 0 0 0 0.24 2 0.33 0.33 0 0 0 0.63 -0.16 3.77 3.77 0 0 1 0.36 -2.34c0.1 -0.2 0.21 -0.41 0.33 -0.61a5.65 5.65 0 0 1 1 -1.22h0.1a0.29 0.29 0 0 0 0.29 -0.28c0 -0.65 -2.24 0 -2.27 -2.16A2.11 2.11 0 0 1 11 4.86 1.81 1.81 0 0 1 13.4 6a2.25 2.25 0 0 1 -1.27 2.7 0.32 0.32 0 0 0 -0.17 0.42 0.3 0.3 0 0 0 0.37 0.17 0.26 0.26 0 0 0 0.19 0.16Z" fill="#4C57E6" stroke-width="1"></path>
  </g>
</svg>