<svg xmlns="http://www.w3.org/2000/svg" viewBox="0 0 24 24" id="Privacy-Users-Approval--Streamline-Freehand">
  <desc>
    Privacy Users Approval Streamline Icon: https://streamlinehq.com
  </desc>
  <g>
    <path d="M22.38 15.35a0.33 0.33 0 0 0 -0.46 0 0.32 0.32 0 0 0 0 0.45 3.53 3.53 0 0 1 0.64 4.74A5.56 5.56 0 0 1 15.41 22a3.47 3.47 0 0 1 -1.67 -1.9 3.91 3.91 0 0 1 1.09 -4.56 6 6 0 0 1 4.73 -0.91c-0.48 0.84 -0.93 1.7 -1.4 2.54 -0.65 1.4 -0.3 2.07 -1.48 1.16 -0.51 -0.39 -1 -0.89 -1.32 -1.08a0.28 0.28 0 0 0 -0.35 0.43c0.29 0.26 0.87 1 1.41 1.42a2 2 0 0 0 1 0.53 1 1 0 0 0 0.73 -0.39 10.9 10.9 0 0 0 1 -1.57c0.36 -0.7 0.73 -1.41 1.08 -2.11s0.67 -1.42 1 -2.12 0.63 -1.18 1 -1.75a0.32 0.32 0 1 0 -0.54 -0.36c-0.65 0.9 -1.25 1.82 -1.82 2.78a6.56 6.56 0 0 0 -5.52 0.78 4.8 4.8 0 0 0 -1.59 5.56A4.46 4.46 0 0 0 14.88 23a6.64 6.64 0 0 0 3.12 0.8 6.42 6.42 0 0 0 5.29 -2.8 4.23 4.23 0 0 0 -0.91 -5.65Z" fill="#020202" fill-rule="evenodd" stroke-width="1"></path>
    <path d="M10.91 10.86a5.84 5.84 0 0 0 -1.83 -2.3 5.68 5.68 0 0 0 1.82 -3.65c0.25 -2.41 -1 -4.76 -4.05 -4.7a6.11 6.11 0 0 0 -3.34 1.15 5.41 5.41 0 0 0 -2 2.9A3.6 3.6 0 0 0 2.7 8a5.1 5.1 0 0 0 0.88 0.57 8 8 0 0 0 -2 1.84 6.6 6.6 0 0 0 -0.77 1.19 7.15 7.15 0 0 0 -0.49 1.26A8.42 8.42 0 0 0 0 16a0.34 0.34 0 0 0 0.33 0.31 0.32 0.32 0 0 0 0.35 -0.31 8.05 8.05 0 0 1 0.6 -2.77 11.91 11.91 0 0 1 0.49 -1.1q0.28 -0.54 0.6 -1.05a8.73 8.73 0 0 1 1.84 -2.22c3.15 1.07 4 0.3 4.31 0.09a6.15 6.15 0 0 1 1.4 2.3 10.61 10.61 0 0 1 0.5 1.88 14.3 14.3 0 0 1 0.23 3 0.32 0.32 0 0 0 0.64 0.06 12.67 12.67 0 0 0 0.14 -3.2 6.94 6.94 0 0 0 -0.52 -2.13ZM3.2 7.47a2.77 2.77 0 0 1 -0.84 -2.95 4.49 4.49 0 0 1 1.76 -2.29 5.16 5.16 0 0 1 2.77 -0.95C9.23 1.17 10.14 3 10 4.83c-0.28 4.22 -4.4 4.86 -6.8 2.64Z" fill="#020202" fill-rule="evenodd" stroke-width="1"></path>
    <path d="M13.53 8.22a3.64 3.64 0 0 1 1.13 1.19 6.47 6.47 0 0 1 0.55 1.19 19.23 19.23 0 0 1 0.61 2.05 0.32 0.32 0 0 0 0.37 0.27 0.33 0.33 0 0 0 0.27 -0.37 14 14 0 0 0 -0.27 -2.25 4.13 4.13 0 0 0 -0.65 -1.48 3.3 3.3 0 0 0 -1.21 -1 4 4 0 0 0 1.27 -1.41A4.54 4.54 0 0 0 16.1 5a4.2 4.2 0 0 0 -0.23 -2.23 3.63 3.63 0 0 0 -1.59 -1.63 4.86 4.86 0 0 0 -2.06 -0.57 0.28 0.28 0 0 0 -0.32 0.24 0.3 0.3 0 0 0 0.25 0.32 4.17 4.17 0 0 1 1.7 0.72 2.62 2.62 0 0 1 1 1.33A3.24 3.24 0 0 1 15 4.85 4.4 4.4 0 0 1 14.73 6a2.84 2.84 0 0 1 -2.14 1.75 0.32 0.32 0 0 0 -0.3 0.34 0.33 0.33 0 0 0 0.34 0.3 3.26 3.26 0 0 0 0.9 -0.17Z" fill="#4C57E6" fill-rule="evenodd" stroke-width="1"></path>
    <path d="M17.41 1.13a3.59 3.59 0 0 1 1.42 0.62 2.25 2.25 0 0 1 0.84 1.11 2.78 2.78 0 0 1 0.12 1.38 3.65 3.65 0 0 1 -0.25 0.93 2.59 2.59 0 0 1 -1.76 1.48 0.32 0.32 0 0 0 -0.3 0.34 0.34 0.34 0 0 0 0.34 0.3 2.69 2.69 0 0 0 0.76 -0.12 2.89 2.89 0 0 1 0.83 0.93 4.51 4.51 0 0 1 0.44 0.91c0.18 0.51 0.35 1.06 0.5 1.64a0.32 0.32 0 0 0 0.63 -0.09 9.8 9.8 0 0 0 -0.15 -1.84 3.12 3.12 0 0 0 -0.55 -1.23 2.82 2.82 0 0 0 -0.89 -0.73 3.43 3.43 0 0 0 1 -1.15 3.67 3.67 0 0 0 0.43 -1.2 3.53 3.53 0 0 0 -0.2 -1.94 2.92 2.92 0 0 0 -1.05 -1.21 4.07 4.07 0 0 0 -2.1 -0.69 0.28 0.28 0 1 0 -0.06 0.56Z" fill="#4C57E6" fill-rule="evenodd" stroke-width="1"></path>
  </g>
</svg>