<svg xmlns="http://www.w3.org/2000/svg" viewBox="0 0 24 24" id="Products-Shopping-Bags--Streamline-Freehand">
  <desc>
    Products Shopping Bags Streamline Icon: https://streamlinehq.com
  </desc>
  <g>
    <path d="M23.42 17.39c0 -0.08 -0.11 -2.4 -0.17 -2.48a6.44 6.44 0 0 0 -1.06 -0.9 0.29 0.29 0 1 0 -0.39 0.44c0.12 0.11 0.35 0.58 0.59 0.8 -0.4 0.18 -2.38 0.77 -2.77 0.87a9.27 9.27 0 0 0 -2.17 -1.49 19.67 19.67 0 0 0 3.07 -1c4 -2.08 0 -6.45 -2.78 -1.76 -1.08 -1.71 -3.73 -3.17 -5.22 -1.71s0.47 3 2.17 3.94a10.7 10.7 0 0 0 1.36 0.54c-1.05 0.4 -1.85 0.27 -2.65 0.89 -2 -1.22 -2 -1.38 -2.16 -1.43a2.48 2.48 0 0 1 0.89 -0.37 0.34 0.34 0 0 0 0 -0.68c-0.7 0 -1.95 0.22 -2 0.94a23.15 23.15 0 0 0 -0.18 3.63 7.48 7.48 0 0 0 0.4 2.71 30.8 30.8 0 0 0 4.38 3.12 2.17 2.17 0 0 0 1.78 0.52 22.27 22.27 0 0 0 2.66 -0.73A12.21 12.21 0 0 0 23 21.41c0.24 -0.16 0.93 -0.29 0.86 -1.11a24.22 24.22 0 0 1 -0.44 -2.91Zm-4.82 -4.75c1.4 -2.93 3.26 -1.77 2.53 -0.64a5 5 0 0 1 -2.92 1.72 9.83 9.83 0 0 0 0.39 -1.08Zm-5.42 -1.79c1 -0.9 3 0.54 3.61 1.64 0.34 0.58 0.43 1.37 -0.22 1.59a11.66 11.66 0 0 1 -1.5 -0.64c-0.89 -0.54 -2.67 -1.89 -1.89 -2.59Zm3.63 4.23c0.29 0.31 1.08 0.83 1.58 1.27 -2.59 0.38 -2 0.91 -4 -0.22 0.61 -0.34 2.12 -0.81 2.42 -1.05Zm-5.69 4a39.42 39.42 0 0 1 -0.24 -4.47 24.07 24.07 0 0 0 2.06 1.67 38 38 0 0 0 -0.45 4.58c-1.77 -1.53 -1.29 -1.15 -1.37 -1.8Zm2 2.27c0.16 -0.24 0.86 -4.24 0.87 -4.36a11.49 11.49 0 0 0 1.06 0.64 37.07 37.07 0 0 1 -0.18 4.22 5.53 5.53 0 0 0 0 0.91c-0.5 -0.39 -1.15 -0.9 -1.79 -1.43Zm3.13 1.6c-0.2 0.05 -0.32 0 -0.36 -0.09 -0.22 -0.55 0 -2.64 -0.16 -5a5.7 5.7 0 0 0 2.2 -0.29c0.45 -0.06 0.88 -0.12 1.31 -0.22a12.87 12.87 0 0 1 1.14 4.18 30.71 30.71 0 0 1 -4.17 1.4ZM21 21.29a7.94 7.94 0 0 0 -0.7 -4.29l2.07 -0.87c0.66 -0.22 0.07 0 0.33 1.28l0.3 2.75a11.75 11.75 0 0 1 -2 1.13Z" fill="#020202" fill-rule="evenodd" stroke-width="1"></path>
    <path d="M9.37 5.34c0.89 0 1.8 -0.09 2.69 -0.06 2.76 0.07 2.16 0.26 2.25 0.54l0.39 1.92a0.3 0.3 0 0 0 0.59 -0.08c-0.28 -2.57 -0.22 -2.77 -0.75 -3a10 10 0 0 0 -1.93 -0.44 4.5 4.5 0 0 0 -1 -2.85 2.73 2.73 0 0 0 -4 0 8.93 8.93 0 0 0 -1.38 3c0 0.14 0.3 0.07 -2.1 0.26a16.36 16.36 0 0 1 1 -2.83 1.91 1.91 0 0 1 2.06 -1 0.34 0.34 0 0 0 0.13 -0.67A3.09 3.09 0 0 0 5.78 0.07a2.94 2.94 0 0 0 -2.17 2.49 17.06 17.06 0 0 0 -0.22 2.15c-0.73 0 -0.82 0 -0.9 0.16s-0.21 0.13 -0.41 1.25c-0.76 3.12 -1 3.58 -1.31 4.93a23 23 0 0 0 -0.61 4.38c0.19 1.81 2.17 1.46 3.72 1.49l3.7 0.18a0.34 0.34 0 0 0 0.08 -0.67L5 16.17A20.79 20.79 0 0 0 4.94 14a64.72 64.72 0 0 0 -0.69 -8c0 -0.25 0 -0.38 -0.08 -0.56 2.18 0 2.83 0.02 5.2 -0.1ZM8.15 2.39c1.11 -1.32 3.26 -1 3.73 1.79a27.87 27.87 0 0 0 -4.94 0.25 11 11 0 0 1 1.21 -2.04Zm-3.83 13.7C3.41 16 2.77 16 2.1 15.93c-0.92 -0.15 -0.88 -0.34 -0.84 -0.92s0.57 -3.93 1.15 -6.49c0.53 -3.59 0.38 -3 0.77 -3.09h0.32a2.09 2.09 0 0 0 0.07 0.65c0 2 0 4 0.08 5.23 0.06 0.69 0.55 4.38 0.67 4.78Z" fill="#4C57E6" fill-rule="evenodd" stroke-width="1"></path>
  </g>
</svg>