<svg xmlns="http://www.w3.org/2000/svg" viewBox="0 0 24 24" id="Programming-Team-Chat-1--Streamline-Freehand">
  <desc>
    Programming Team Chat 1 Streamline Icon: https://streamlinehq.com
  </desc>
  <g>
    <path d="M15.59 15.51a0.3 0.3 0 0 0 -0.05 0.6c2.05 0.41 2.63 -0.18 3.95 -0.93a9.63 9.63 0 0 0 0.94 0.88 0.34 0.34 0 1 0 0.44 -0.51c-0.76 -0.81 -0.81 -1.71 -1.66 -1.47a9.34 9.34 0 0 0 -1.52 0.84 3.67 3.67 0 0 1 -2.1 0.59Z" fill="#020202" fill-rule="evenodd" stroke-width="1"></path>
    <path d="M2.9 15.51a0.3 0.3 0 0 0 0 0.6c2 0.41 2.63 -0.18 4 -0.93a9.54 9.54 0 0 0 0.93 0.88 0.34 0.34 0 0 0 0.45 -0.51c-0.77 -0.81 -0.81 -1.71 -1.66 -1.47a9.34 9.34 0 0 0 -1.62 0.84 3.71 3.71 0 0 1 -2.1 0.59Z" fill="#020202" fill-rule="evenodd" stroke-width="1"></path>
    <path d="M11.7 3.64a0.3 0.3 0 0 0 -0.36 -0.48c-0.29 0.17 -0.57 0.36 -0.86 0.56 -0.87 0.62 -2 1.5 -1.25 2.24 0.36 0.33 1.84 1.5 2.26 1.46a0.34 0.34 0 0 0 0.34 -0.34c0 -0.29 -0.18 -0.23 -0.51 -0.53a15.68 15.68 0 0 1 -1.12 -1.22l0.29 -0.22a9.73 9.73 0 0 1 1.21 -1.47Z" fill="#020202" fill-rule="evenodd" stroke-width="1"></path>
    <path d="M13.59 7.69C14.14 5.9 15 5.19 15 2.35a0.3 0.3 0 0 0 -0.59 -0.09c-0.38 1.35 -1.24 2.41 -1.52 5.3a0.34 0.34 0 1 0 0.7 0.13Z" fill="#020202" fill-rule="evenodd" stroke-width="1"></path>
    <path d="M16 6.93c-0.14 0.22 -0.07 0.69 0.49 0.45l0.27 -0.16c0.64 -0.39 1.95 -1.21 2.14 -1.94s-1 -1.44 -2 -2.2a0.29 0.29 0 0 0 -0.42 0c-0.3 0.29 0.13 0.48 1.19 2.08a2 2 0 0 0 -0.21 0.2C16 7.15 16.16 6.68 16 6.93Z" fill="#020202" fill-rule="evenodd" stroke-width="1"></path>
    <path d="M14.49 10.84a29.82 29.82 0 0 0 6 -0.26 0.89 0.89 0 0 0 0.44 -0.31c0.61 -0.93 0.68 -8.65 0.2 -9.44a1.11 1.11 0 0 0 -0.58 -0.41C18.62 -0.26 9.71 0 8 0.25a0.34 0.34 0 0 0 -0.3 0.37c0.07 0.64 0.48 0 8 0.24a29.56 29.56 0 0 1 4 0.34c0.31 0.06 0.56 0.3 0.65 0.2A49.24 49.24 0 0 1 20 9.47c-0.48 0 0.92 0.29 -5.2 0.25 -0.42 0 -0.87 -0.06 -1.09 0.24a12.08 12.08 0 0 1 -2.25 2.23c0 -0.08 0.07 -0.17 0.09 -0.28 0.12 -0.63 0.47 -1.34 0.2 -1.89 -0.17 -0.35 -0.52 -0.3 -0.91 -0.27s-3.08 0.26 -3.43 0c-0.36 -1.81 -0.15 -8.35 -0.18 -8.49a0.3 0.3 0 0 0 -0.1 -0.33s-0.45 0 -0.47 0.33c0 0.83 -0.42 8.34 0.09 9s3.14 0.54 4.09 0.49a7 7 0 0 0 -0.33 1.33c-0.06 0.9 0.65 1.39 1.64 0.86a10 10 0 0 0 2.34 -2.1Z" fill="#4C57E6" fill-rule="evenodd" stroke-width="1"></path>
    <g>
      <path d="M20.48 19.09c2.45 -1.61 2.23 -6 -0.79 -6.58a0.34 0.34 0 1 0 -0.15 0.66c2.87 0.7 2.27 6.37 -2.43 5.28 -3.08 -0.62 -2.62 -6 1.53 -5.71a0.3 0.3 0 0 0 0.05 -0.6A3.85 3.85 0 0 0 16 19.26c-2.46 1 -3.44 2.82 -3.21 4.45a0.3 0.3 0 0 0 0.6 0 3.18 3.18 0 0 1 0.74 -1.6 12.29 12.29 0 0 1 2 -2c0.89 -0.55 0.75 -0.44 0.82 -0.52a5.86 5.86 0 0 0 2.75 -0.13c0.06 0.09 0 0 0.83 0.55a12.31 12.31 0 0 1 2 2 3.22 3.22 0 0 1 0.74 1.6 0.3 0.3 0 0 0 0.6 0c0.2 -1.61 -0.66 -3.45 -3.39 -4.52Z" fill="#020202" stroke-width="1"></path>
      <path d="M17.69 20.44a4.78 4.78 0 0 0 0 2.51c0.05 0.19 0.05 0.62 0.43 0.51s0.31 -0.3 0.32 -0.59a5.59 5.59 0 0 0 0.17 -2.51c-0.06 -0.36 -0.8 -0.36 -0.92 0.08Z" fill="#020202" stroke-width="1"></path>
      <path d="M7.79 19.09c2.46 -1.61 2.24 -6 -0.79 -6.58a0.34 0.34 0 1 0 -0.14 0.66c2.87 0.7 2.27 6.37 -2.43 5.28 -3.08 -0.62 -2.62 -6 1.52 -5.71a0.3 0.3 0 0 0 0.06 -0.6 3.86 3.86 0 0 0 -2.66 7.12c-2.46 1 -3.43 2.82 -3.21 4.45a0.3 0.3 0 0 0 0.6 0 3.26 3.26 0 0 1 0.74 -1.6 12.71 12.71 0 0 1 2 -2c0.89 -0.55 0.76 -0.44 0.83 -0.52 0.3 0.05 0.59 0.09 0.86 0.11A4.5 4.5 0 0 0 7 19.46c0.07 0.09 0 0 0.84 0.55a12.7 12.7 0 0 1 2 2 3.14 3.14 0 0 1 0.74 1.6 0.3 0.3 0 0 0 0.6 0c0.21 -1.61 -0.65 -3.45 -3.39 -4.52Z" fill="#020202" stroke-width="1"></path>
      <path d="M5 23c0 0.19 0.06 0.62 0.44 0.51s0.3 -0.3 0.31 -0.59A6.14 6.14 0 0 0 6 20.28c0 -0.38 -0.83 -0.35 -0.93 0A5.44 5.44 0 0 0 5 23Z" fill="#020202" stroke-width="1"></path>
    </g>
  </g>
</svg>