<svg xmlns="http://www.w3.org/2000/svg" viewBox="0 0 24 24" id="Programming-User-Head-Matrix--Streamline-Freehand">
  <desc>
    Programming User Head Matrix Streamline Icon: https://streamlinehq.com
  </desc>
  <g>
    <path d="M0.82 5.9c0.93 0 1 0.55 3 0a0.36 0.36 0 1 0 0 -0.71c-0.2 0 -0.65 -0.16 -1.11 -0.23 0.09 -0.6 0.22 -1.2 0.27 -1.82s0 -2.09 -0.59 -2.35a0.47 0.47 0 0 0 -0.63 0.07c-0.85 1 -0.87 1.78 -0.49 1.59l0.53 -0.32A24.16 24.16 0 0 0 1.87 5a5.8 5.8 0 0 0 -1.17 0.27c-0.12 0.1 -0.21 0.19 -0.19 0.31a0.31 0.31 0 0 0 0.31 0.32Z" fill="#020202" fill-rule="evenodd" stroke-width="1"></path>
    <path d="M8.06 5.73a1.7 1.7 0 0 0 2.14 -0.68c0.71 -1.2 0.09 -3.77 -0.56 -4.23 -0.38 -0.47 -1.54 -0.08 -1.89 0.23 -1.6 1.41 -1.89 4.07 0.31 4.68Zm0.27 -4.11c0.33 -0.37 0.83 -0.44 1 0a4.49 4.49 0 0 1 0.06 2.58c-0.13 0.37 -0.43 0.54 -1 0.38a1 1 0 0 1 -0.77 -1.14 3.13 3.13 0 0 1 0.71 -1.82Z" fill="#020202" fill-rule="evenodd" stroke-width="1"></path>
    <path d="M16.14 5.87c2.78 -0.46 1.68 -5.55 -0.09 -5.51a1.89 1.89 0 0 0 -1.51 0.5 4 4 0 0 0 -0.72 3.56 2 2 0 0 0 2.32 1.45Zm-1 -4.49a2.46 2.46 0 0 1 1.29 0c0.57 0.91 0.57 3.14 -0.43 3.3 -1.46 0.21 -1.59 -2.43 -0.89 -3.3Z" fill="#020202" fill-rule="evenodd" stroke-width="1"></path>
    <path d="M20.29 2.77c0.38 0.19 0.44 -0.31 1 -0.92l0.2 2.42c0 0.05 0 0.49 0.05 0.86 -0.34 0 -1.16 -0.18 -1.35 0.35 0 0.08 0 0.16 0.1 0.28 0.56 1 2.4 0.29 2.49 0.29a0.36 0.36 0 0 0 0.22 -0.69 2.05 2.05 0 0 0 -0.61 -0.18c0.16 -1.57 0.44 -2.59 0 -4 -0.21 -0.41 -0.39 -0.56 -0.7 -0.54a0.77 0.77 0 0 0 -0.5 0.17 6.19 6.19 0 0 0 -1 1.54 0.3 0.3 0 0 0 0.1 0.42Z" fill="#020202" fill-rule="evenodd" stroke-width="1"></path>
    <path d="M1.54 14.23a1.94 1.94 0 0 0 1.94 -1 3.15 3.15 0 0 0 0.24 -2.86 0.36 0.36 0 1 0 -0.65 0.29c0.32 0.87 -0.28 2.58 -1.37 2.39 -0.84 -0.13 -0.7 -3.17 0.3 -3.35 0.21 0 0.37 0.13 0.64 0.17a0.31 0.31 0 0 0 0.14 -0.61C2.51 9.17 2.42 9 2 9c-2.15 0 -2.94 5 -0.46 5.23Z" fill="#020202" fill-rule="evenodd" stroke-width="1"></path>
    <path d="M23.76 13.67a3 3 0 0 0 -0.87 -0.29c0.09 -1.15 0.42 -3.83 -0.47 -4.54a0.55 0.55 0 0 0 -0.71 -0.08 1.51 1.51 0 0 0 -0.44 0.56c-0.09 0.16 -0.55 0.76 -0.31 1.08s0.56 0 0.81 -0.23c0.34 3.82 0.22 2.25 0.21 3.18l-0.09 0a7.61 7.61 0 0 0 -0.84 0.26c-0.2 0.13 -0.24 0.26 -0.21 0.34s0 0.15 0.1 0.19a0.19 0.19 0 0 0 0.19 0.08c0.54 0.08 0.77 0.31 1.37 0.27s0.88 -0.18 1 -0.17a0.35 0.35 0 0 0 0.26 -0.65Z" fill="#020202" fill-rule="evenodd" stroke-width="1"></path>
    <path d="m23.26 22.34 -0.62 -0.14a16.41 16.41 0 0 0 0.16 -1.72c0 -0.69 -0.1 -2.76 -0.76 -3s-0.65 0.09 -1.42 1.18a0.32 0.32 0 0 0 0.27 0.57 1.86 1.86 0 0 0 0.6 -0.48c0 0.38 0 -0.21 0.31 3.32a1.49 1.49 0 0 0 -0.56 0 9 9 0 0 0 -1 0.45c-0.15 0.13 -0.19 0.24 -0.17 0.29s0 0.3 0.24 0.3a6.77 6.77 0 0 0 3 -0.11 0.36 0.36 0 0 0 -0.05 -0.66Z" fill="#020202" fill-rule="evenodd" stroke-width="1"></path>
    <g>
      <path d="M7.37 13.45a12.92 12.92 0 0 0 2.17 0l0.45 -0.08a13.2 13.2 0 0 0 4.35 -1.85c0.13 -0.09 0.61 -0.22 0.63 -0.41a22.16 22.16 0 0 0 2.11 2.29 0.36 0.36 0 0 0 0.48 -0.53c-1.4 -1.32 -1.8 -3.23 -3 -2.84 -0.21 0.07 0.11 -0.05 -3 1.78a7.86 7.86 0 0 1 -4.55 1 0.32 0.32 0 0 0 -0.01 0.59l0.16 0Z" fill="#020202" stroke-width="1"></path>
      <path d="M5.49 15.55C5 11.45 8 7.89 13.2 8.32a0.32 0.32 0 0 0 0.07 -0.63C9 7.19 6.35 9 5.22 11.61a5.72 5.72 0 0 0 -0.54 4.07c0.2 0.66 0.74 0.32 0.81 -0.13Z" fill="#020202" stroke-width="1"></path>
      <path d="M19 15.71a2.5 2.5 0 0 0 -0.86 -1.36 2.74 2.74 0 0 0 -1.08 -0.56 0.36 0.36 0 0 0 -0.15 0.7c2 0.48 1.79 4.82 -1.86 4 -2.29 -0.51 -1.9 -4.6 1.16 -4.37a0.31 0.31 0 0 0 0.06 -0.62c-4.32 -0.54 -5 5.33 -1.48 6.17a5 5 0 0 0 1.52 0.08 5.57 5.57 0 0 0 1 -0.31A3.09 3.09 0 0 0 19 15.71Z" fill="#4C57E6" stroke-width="1"></path>
      <path d="M16.4 20.12A7.69 7.69 0 0 1 10 21a4.31 4.31 0 0 1 -2 -0.86c-0.43 -0.39 -2.2 -0.24 -1.08 0.66a6.89 6.89 0 0 0 2.78 1.41c4.27 0.94 6.56 0.33 8.14 -1.85 0.27 -0.36 -0.75 -0.75 -1.44 -0.24Z" fill="#020202" stroke-width="1"></path>
      <path d="M7.86 19.68c1.6 0.15 2.7 -0.07 3.41 -0.79 1.54 -1.56 1.1 -4.64 -1.13 -5.1a0.36 0.36 0 0 0 -0.16 0.7c2 0.48 1.79 4.82 -1.85 4 -2.3 -0.51 -1.9 -4.6 1.15 -4.37a0.3 0.3 0 0 0 0.33 -0.35c0 -0.31 -1.39 -0.31 -2.28 0A3.1 3.1 0 0 0 5.69 16 3.88 3.88 0 0 0 6 18.21a3 3 0 0 0 1.86 1.47Z" fill="#4C57E6" stroke-width="1"></path>
      <path d="M15.24 8.48a0.35 0.35 0 0 0 -0.15 0.69A5 5 0 0 1 17.84 11a5.26 5.26 0 0 1 1.1 3.55c0 0.39 0.73 0.89 0.86 0.36a5.45 5.45 0 0 0 -0.14 -3.14 5.66 5.66 0 0 0 -4.42 -3.29Z" fill="#020202" stroke-width="1"></path>
      <path d="M7.51 16.49a0.32 0.32 0 0 0 0.49 0.41c0.18 -0.12 1.32 -0.42 1.66 -0.19a0.36 0.36 0 0 0 0.53 -0.48 1.45 1.45 0 0 0 -2.68 0.26Z" fill="#020202" stroke-width="1"></path>
      <path d="M15 16.21a0.36 0.36 0 0 0 0.56 0.45 2.81 2.81 0 0 1 1.51 0.08 0.32 0.32 0 0 0 0.46 -0.44 1.36 1.36 0 0 0 -2.53 -0.09Z" fill="#020202" stroke-width="1"></path>
      <path d="M4.13 22.7a8.2 8.2 0 0 0 -1.33 -0.2 14.65 14.65 0 0 0 0.06 -3.73c0 -0.24 -0.07 -1.22 -0.46 -1.53 -0.23 -0.17 -0.46 -0.25 -0.69 0a2.74 2.74 0 0 0 -0.64 1.86 0.33 0.33 0 0 0 0.61 -0.1c0.45 3.92 0.46 3.47 0.27 3.48 -1.73 0.11 -2 0.8 -1.43 0.92a8.29 8.29 0 0 0 3.65 0.08c0.38 -0.01 0.57 -0.58 -0.04 -0.78Z" fill="#020202" stroke-width="1"></path>
    </g>
  </g>
</svg>