<svg xmlns="http://www.w3.org/2000/svg" viewBox="0 0 24 24" id="Programming-Language-Browser-Hash--Streamline-Freehand">
  <desc>
    Programming Language Browser Hash Streamline Icon: https://streamlinehq.com
  </desc>
  <g>
    <path d="M23.63 7.42c-0.13 -1.2 -0.07 -3.58 -0.9 -4.23 -1.92 -1.51 -6.12 -1.11 -8.81 -1.19 -3.5 -0.15 -7.19 0.14 -10.62 0.24a0.34 0.34 0 0 0 0 0.67c3.47 -0.05 7 -0.29 10.57 -0.09 2.46 0.15 6.67 -0.14 8.25 1.16 0.4 0.33 0.41 2.73 0.49 3.58a42 42 0 0 1 0.08 9 13.28 13.28 0 0 1 -0.45 3c-2.45 1.31 -19.67 2.27 -20.7 0.44a21 21 0 0 1 -0.65 -4.63 40.66 40.66 0 0 1 0.16 -7.86c0.08 0 7.31 0.33 12.57 0.24 2.33 0 4.68 -0.13 6.77 -0.21a0.33 0.33 0 0 0 0 -0.66c-2.14 0 -10.11 -0.25 -11.58 -0.23 -8 0.08 -7.73 0.46 -7.71 0.19 0 -0.52 0.1 -1 0.17 -1.57a7.21 7.21 0 0 1 0.21 -1.94 0.3 0.3 0 0 0 -0.48 -0.4C0.63 3.35 0.71 4.71 0.64 5.19S0.5 6.26 0.44 6.79a45.21 45.21 0 0 0 -0.36 8.64 22.18 22.18 0 0 0 0.66 5C2.24 23.22 22 22 23.19 20.07c0.61 -1 0.82 -6 0.81 -7.15 0 -1.85 -0.18 -3.71 -0.37 -5.5Z" fill="#020202" fill-rule="evenodd" stroke-width="1"></path>
    <path d="M4.54 5.25a0.84 0.84 0 0 0 -0.21 -1c-0.76 -0.41 -1.71 0.39 -1 1.1a0.83 0.83 0 0 0 1.21 -0.1Z" fill="#020202" fill-rule="evenodd" stroke-width="1"></path>
    <path d="M7.17 5a0.82 0.82 0 0 0 -0.2 -1c-0.77 -0.42 -1.71 0.39 -1 1.09A0.82 0.82 0 0 0 7.17 5Z" fill="#020202" fill-rule="evenodd" stroke-width="1"></path>
    <path d="M10.05 5a0.83 0.83 0 0 0 -0.21 -1c-0.76 -0.42 -1.71 0.39 -1 1.09A0.82 0.82 0 0 0 10.05 5Z" fill="#020202" fill-rule="evenodd" stroke-width="1"></path>
    <path d="M14.23 13a13.72 13.72 0 0 1 1.43 -0.09 0.34 0.34 0 0 0 0 -0.67c-0.46 0 -0.92 -0.08 -1.37 -0.1 0.08 -0.85 0.62 -2.48 0 -2.45A0.3 0.3 0 0 0 14 10a13.41 13.41 0 0 1 -0.65 2.13 25.54 25.54 0 0 0 -2.72 0.11 19.25 19.25 0 0 1 0.6 -2.38 0.29 0.29 0 0 0 -0.54 -0.23 17 17 0 0 0 -1.12 2.68c-0.36 0 -2.1 0.09 -2.38 0.4a0.31 0.31 0 0 0 0.23 0.55 12.88 12.88 0 0 1 1.85 0c-0.26 1 -0.41 1.73 -0.53 2.35a13.07 13.07 0 0 0 -2.18 0.29c-0.14 0.13 -0.15 0.28 0 0.44s0.38 0 1.94 0.23l-0.27 1.44a0.34 0.34 0 0 0 0.64 0.2s0.55 -1.7 0.57 -1.74a27.09 27.09 0 0 0 3.17 -0.54 9.51 9.51 0 0 1 -0.27 2.07 0.33 0.33 0 0 0 0.57 0.35 10.46 10.46 0 0 0 0.79 -2.71c0.41 -0.08 0.83 -0.15 1.25 -0.21a0.33 0.33 0 0 0 0 -0.66l-1 0a15.3 15.3 0 0 0 0.28 -1.77ZM10 15.33a17 17 0 0 0 0.41 -2 16.23 16.23 0 0 0 2.7 -0.32 16.54 16.54 0 0 0 -0.22 1.78 20.93 20.93 0 0 0 -2.89 0.54Z" fill="#4C57E6" fill-rule="evenodd" stroke-width="1"></path>
  </g>
</svg>