<svg xmlns="http://www.w3.org/2000/svg" viewBox="0 0 24 24" id="Project-Building-Shopping--Streamline-Freehand">
  <desc>
    Project Building Shopping Streamline Icon: https://streamlinehq.com
  </desc>
  <title>project-building-shopping</title>
  <g>
    <path d="M5.33 8.51Z" fill="#020202" fill-rule="evenodd" stroke-width="1"></path>
    <path d="m6.63 8.25 0 -0.43a0.53 0.53 0 0 0 -0.16 -0.28 0.4 0.4 0 0 0 -0.16 -0.09 1.48 1.48 0 0 0 -0.27 0 1 1 0 0 0 -0.3 0l0.08 -0.21 1.07 -1.91 0.32 -0.51 0.36 0 2.25 0.78 0.2 0.08 -0.12 0.09 -0.26 0.23a0.49 0.49 0 0 0 -0.24 0.52l0.44 0.87 0.58 1.19a0.35 0.35 0 1 0 0.58 -0.39L10.57 7l-0.2 -0.46 0.63 -0.34a1.35 1.35 0 0 0 0.26 -0.27 0.57 0.57 0 0 0 0.1 -0.36 0.49 0.49 0 0 0 -0.16 -0.35c-0.06 -0.06 -0.22 -0.15 -0.24 -0.17l-0.71 -0.38c-0.45 -0.21 -0.9 -0.42 -1.36 -0.6s-0.63 -0.24 -1 -0.34a2.47 2.47 0 0 0 -0.8 -0.18 1 1 0 0 0 -0.62 0.22l-0.27 0.41 -0.35 0.57c-0.18 0.33 -0.37 0.66 -0.54 1a8.73 8.73 0 0 0 -0.49 1.08l-0.27 0.91a1.47 1.47 0 0 0 0 0.31 0.54 0.54 0 0 0 0 0.27 0.46 0.46 0 0 0 0.25 0.26 1.53 1.53 0 0 0 0.5 -0.08l0.19 -0.08 0.34 -0.15 0 0.11 0.25 0.62c0.13 0.23 0.74 0.26 0.67 -0.08Z" fill="#020202" fill-rule="evenodd" stroke-width="1"></path>
    <path d="m16.93 3.8 0.46 -1.59a4.74 4.74 0 0 0 0.11 -0.49 0.63 0.63 0 0 0 -0.15 -0.47 0.79 0.79 0 0 0 -0.28 -0.25c-0.13 -0.06 -0.31 -0.09 -0.4 -0.13a7.83 7.83 0 0 0 -0.78 -0.25l-0.78 -0.15 -1 -0.21A7.08 7.08 0 0 0 12.88 0a1.37 1.37 0 0 0 -0.7 0.13 0.63 0.63 0 0 0 -0.29 0.25 2.27 2.27 0 0 0 -0.21 0.6l-0.42 1.63L11 4a0.31 0.31 0 0 0 0.6 0.14l0.4 -1.33 0.56 -1.55c0 -0.07 0.14 -0.19 0.15 -0.28a1.18 1.18 0 0 1 0.25 0c0.3 0.07 0.61 0.21 0.86 0.29l1.08 0.3 1.35 0.4 -0.4 1.53 -1.26 5.08c-0.07 0.5 0.47 0.62 0.62 0.28Z" fill="#4C57E6" fill-rule="evenodd" stroke-width="1"></path>
    <path d="M20.79 5.59a12.22 12.22 0 0 0 -1.42 0.07 1.69 1.69 0 0 0 -0.69 0.27 2.2 2.2 0 0 0 -0.68 0.84 16.94 16.94 0 0 0 -0.69 2c0 0.13 -0.09 0.26 -0.14 0.38a48.8 48.8 0 0 1 -5.46 -0.06l-2.21 0c-0.73 0 -1.26 0.05 -1.89 0.1l-4.34 0.41a0.29 0.29 0 0 0 -0.24 0 0.31 0.31 0 0 0 -0.12 0.42l2.38 5.21a10 10 0 0 0 0.78 1.57 1.78 1.78 0 0 0 0.82 0.6 4.2 4.2 0 0 0 1.23 0.24c0.87 0 1.79 -0.13 2.58 -0.16l4.1 -0.12 -0.2 0.75 -0.18 0.74a0.86 0.86 0 0 1 -0.46 0.27 5.41 5.41 0 0 1 -1.17 0.14c-0.67 0.06 -1.57 0.11 -2.49 0.14s-1.77 0 -2.48 0a0.35 0.35 0 0 0 -0.37 0.33s0 0 0 0.06a2.22 2.22 0 0 0 -0.61 0.4 2.39 2.39 0 0 0 -0.76 1.5 2 2 0 0 0 0.6 1.55 2.14 2.14 0 0 0 1.56 0.76 2.15 2.15 0 0 0 1.07 -3.75l1 0 2.53 0h0.59A2 2 0 0 0 13 22a2.26 2.26 0 0 0 0.86 1.3 2.12 2.12 0 0 0 1.57 0.35 1.73 1.73 0 0 0 1.37 -1.14 2 2 0 0 0 -0.17 -1.66 2 2 0 0 0 -0.8 -0.7 2.42 2.42 0 0 0 -1 -0.23l-0.1 0a1.75 1.75 0 0 0 0.46 -0.35 1.69 1.69 0 0 0 0.25 -0.44c0.09 -0.23 0.14 -0.52 0.2 -0.72l0.61 -2.07 0.75 -3.13 1.21 -4.11c0.13 -0.49 0.22 -1.16 0.42 -1.74a1.71 1.71 0 0 1 0.49 -0.84 1.11 1.11 0 0 1 0.56 -0.21c0.41 -0.07 0.85 -0.07 1.17 -0.1a0.3 0.3 0 0 0 0.27 -0.34 0.3 0.3 0 0 0 -0.33 -0.28ZM9.09 21.83c0 0.49 -0.31 1 -0.89 1a1 1 0 0 1 -0.67 -0.33 1 1 0 0 1 -0.4 -0.66 1.5 1.5 0 0 1 0.32 -1 1.65 1.65 0 0 1 0.43 -0.36 0.36 0.36 0 0 0 0.4 0.27c0.63 -0.07 0.85 0.53 0.81 1.08Zm5.76 -1.16a1.43 1.43 0 0 1 0.61 0.23 1 1 0 0 1 0.39 0.44 1 1 0 0 1 0 0.8 0.68 0.68 0 0 1 -0.54 0.39 1.22 1.22 0 0 1 -0.76 -2.27 0.35 0.35 0 0 0 0.3 0.41ZM5.27 13l-1.54 -2.75 4.85 0a18.54 18.54 0 0 0 -0.27 2.45l-3 0.2Zm3.26 3.56a3.78 3.78 0 0 1 -1.23 -0.19 0.87 0.87 0 0 1 -0.41 -0.37c-0.25 -0.38 -0.4 -0.85 -0.61 -1.23l-0.66 -1.16c0.91 0.07 1.82 0.14 2.73 0.19l0 0.62c0.07 0.72 0.19 1.42 0.29 2.14a0.66 0.66 0 0 0 -0.11 -0.03Zm1 -6.23 2.6 0a17.32 17.32 0 0 0 -0.26 2.38H9.45l0 -0.2c-0.07 -0.73 -0.18 -1.45 -0.23 -2.18Zm1.19 6.19 -1.3 0c0 -0.7 0.09 -1.4 0.1 -2.11v-0.58l2.22 0h0.2l0 0.38c0.07 0.77 0.21 1.53 0.31 2.3l0 0.06Zm4.44 -0.38 -0.15 0.57 -2.08 -0.09 0 -0.11c0 -0.76 0.09 -1.51 0.11 -2.27l0 -0.45 2.66 -0.14Zm1.13 -4.46c-0.14 0.41 -0.27 0.82 -0.39 1.24l-2.9 -0.18 0 -0.45c-0.07 -0.69 -0.16 -1.36 -0.21 -2h0.66c1.17 0 2.32 -0.14 3.46 -0.29 -0.23 0.51 -0.44 1.07 -0.64 1.65Z" fill="#020202" fill-rule="evenodd" stroke-width="1"></path>
    <path d="M13.5 4a0.87 0.87 0 0 0 0.19 0.1l0.22 0.06a5.24 5.24 0 0 0 0.56 0 0.35 0.35 0 1 0 0.29 -0.63 4 4 0 0 0 -0.41 -0.41 0.86 0.86 0 0 0 -0.2 -0.13 0.6 0.6 0 0 0 -0.23 -0.06 2.51 2.51 0 0 0 -0.61 0 0.3 0.3 0 0 0 -0.39 0.19 0.31 0.31 0 0 0 0.19 0.39 5.23 5.23 0 0 0 0.39 0.49Z" fill="#4C57E6" fill-rule="evenodd" stroke-width="1"></path>
    <path d="M12.33 5.88a0.31 0.31 0 0 0 0.21 0.38c0.14 0.14 0.19 0.26 0.33 0.38a0.59 0.59 0 0 0 0.17 0.1l0.2 0a4.52 4.52 0 0 0 0.52 0 0.36 0.36 0 0 0 0.45 -0.21 0.36 0.36 0 0 0 -0.21 -0.43 3.85 3.85 0 0 0 -0.35 -0.35 0.49 0.49 0 0 0 -0.18 -0.11 0.46 0.46 0 0 0 -0.2 0 1.75 1.75 0 0 0 -0.55 0.08 0.31 0.31 0 0 0 -0.39 0.16Z" fill="#4C57E6" fill-rule="evenodd" stroke-width="1"></path>
  </g>
</svg>