<svg xmlns="http://www.w3.org/2000/svg" viewBox="0 0 24 24" id="Public-Transportation-Bullet-Train-1--Streamline-Freehand">
  <desc>
    Public Transportation Bullet Train 1 Streamline Icon: https://streamlinehq.com
  </desc>
  <g>
    <path d="M23.68 8.46h-1c-0.94 -0.05 -1.86 -0.16 -2.79 -0.21l-1.25 0a7.54 7.54 0 0 0 -1.73 0.29 3.41 3.41 0 0 0 -1.13 0.64 6.27 6.27 0 0 0 -1.18 1.66 23.42 23.42 0 0 0 -1 2.59l-5.36 0 -0.85 0a6.57 6.57 0 0 0 -0.06 -2.46A5 5 0 0 0 7 9.87a4.48 4.48 0 0 0 -0.6 -0.95 4.84 4.84 0 0 0 -1.69 -1.26c0.37 -0.49 0.71 -0.92 0.94 -1.25a0.35 0.35 0 0 0 0.22 0.29 12.59 12.59 0 0 0 2.77 0.77 15.68 15.68 0 0 0 2.88 0.2l1.16 0a2.82 2.82 0 0 0 0.92 -0.25 0.64 0.64 0 0 0 0.32 -0.48l0 -0.68 0 -1.07a5.16 5.16 0 0 0 -0.06 -0.79 2.39 2.39 0 0 0 -0.21 -0.62 0.74 0.74 0 0 0 -0.33 -0.31 1 1 0 0 0 -0.33 -0.06c-0.16 0 -0.39 0.05 -0.49 0.05l-1.5 0.13c-0.66 0.05 -1.31 0.07 -2 0.06 -0.4 0 -0.79 0 -1.19 -0.07L8 3.4a7.62 7.62 0 0 1 1.88 -1.49 5.93 5.93 0 0 1 1.8 -0.57 24.58 24.58 0 0 1 3 -0.25C15.7 1 16.48 1 17.13 1 19 1 20 1.1 22.87 1a0.32 0.32 0 0 0 0.33 -0.31 0.34 0.34 0 0 0 -0.34 -0.34C20 0.35 19 0.22 17.13 0.2l-2.47 0a28.45 28.45 0 0 0 -3.13 0.2 7 7 0 0 0 -2.11 0.6 8.73 8.73 0 0 0 -2.18 1.66 23.93 23.93 0 0 0 -2.49 3.07c-0.73 1 -2.5 3.06 -2.9 4.83a2.56 2.56 0 0 0 0.77 2.68 5 5 0 0 0 2.24 1 18.42 18.42 0 0 0 3.36 0.23c3.43 0 6.84 -0.27 10.27 -0.36l4.37 0a0.3 0.3 0 0 0 0.31 -0.29 0.29 0.29 0 0 0 -0.28 -0.31c-1.47 -0.1 -2.94 -0.13 -4.41 -0.14s-2.8 0 -4.2 0a22.1 22.1 0 0 1 1.14 -2.12A5.36 5.36 0 0 1 16.53 10a2.28 2.28 0 0 1 0.76 -0.39 6.41 6.41 0 0 1 1.46 -0.26 11.35 11.35 0 0 1 1.15 -0.09c0.93 0 1.86 0 2.8 -0.06l0.94 -0.1a0.33 0.33 0 0 0 0.36 -0.28 0.34 0.34 0 0 0 -0.32 -0.36ZM9 4.41q1 0.11 2 0.12l1.58 0 0.17 0a0.2 0.2 0 0 1 0 0.08 4.09 4.09 0 0 1 0 0.61l0 1 0 0.29 -0.19 0c-0.38 0.06 -0.78 0.07 -1.09 0.09a14.32 14.32 0 0 1 -2.7 0 11.55 11.55 0 0 1 -2.65 -0.55 0.33 0.33 0 0 0 -0.22 0c0.43 -0.62 0.9 -1.28 1.41 -1.9 0.55 0.11 1.11 0.2 1.69 0.26Zm-5.6 8c-0.66 -0.58 -0.53 -1.4 -0.19 -2.23A10.5 10.5 0 0 1 4.3 8.23a5.18 5.18 0 0 1 1.17 1.34 8 8 0 0 1 0.45 0.81 6.55 6.55 0 0 1 0.37 0.86 6.24 6.24 0 0 1 0.41 2.12 12.44 12.44 0 0 1 -1.61 -0.21 3.87 3.87 0 0 1 -1.72 -0.76Z" fill="#020202" fill-rule="evenodd" stroke-width="1"></path>
    <path d="M0.29 16.92c2.6 0.13 5.21 0.28 7.82 0.36l3.35 0 3.35 0c2.6 0 5.21 -0.12 7.81 -0.18a0.34 0.34 0 0 0 0 -0.68c-2.6 -0.07 -5.2 -0.16 -7.81 -0.21l-3.35 -0.05H8.12c-2.61 0 -5.21 0.11 -7.82 0.14a0.3 0.3 0 0 0 0 0.6Z" fill="#4C57E6" fill-rule="evenodd" stroke-width="1"></path>
    <path d="M3.07 18.76a3.92 3.92 0 0 0 -1.13 -0.23 10.19 10.19 0 0 0 -1.57 0.1 0.31 0.31 0 0 0 -0.3 0.31 0.32 0.32 0 0 0 0.31 0.29 7.68 7.68 0 0 1 1.43 0.19 2.39 2.39 0 0 1 0.79 0.32 2.61 2.61 0 0 1 0.84 0.75 4.71 4.71 0 0 1 0.45 0.68 7.59 7.59 0 0 1 0.71 2.07 0.34 0.34 0 0 0 0.68 -0.07 6.84 6.84 0 0 0 -0.65 -2.91 3.38 3.38 0 0 0 -1.56 -1.5Z" fill="#4C57E6" fill-rule="evenodd" stroke-width="1"></path>
    <path d="M14.13 19.59a3.89 3.89 0 0 0 -3 -1.39 3.8 3.8 0 0 0 -3 1.45A3.57 3.57 0 0 0 7.55 21a11.5 11.5 0 0 0 -0.25 1.92 0.3 0.3 0 0 0 0.26 0.34 0.3 0.3 0 0 0 0.33 -0.26 10.8 10.8 0 0 1 0.43 -1.77 2.82 2.82 0 0 1 0.53 -0.93 3 3 0 0 1 2.26 -0.9 2.82 2.82 0 0 1 2.88 2 13 13 0 0 1 0.44 2.05 0.34 0.34 0 1 0 0.67 -0.08 12.37 12.37 0 0 0 -0.28 -2.22 3.87 3.87 0 0 0 -0.69 -1.56Z" fill="#4C57E6" fill-rule="evenodd" stroke-width="1"></path>
    <path d="M22.83 18.79a7 7 0 0 0 -3.48 0.53 3.32 3.32 0 0 0 -1.19 0.95 3.56 3.56 0 0 0 -0.51 0.87 6.33 6.33 0 0 0 -0.28 0.94c-0.1 0.45 -0.16 0.9 -0.23 1.36a0.3 0.3 0 0 0 0.59 0.13c0.13 -0.42 0.27 -0.83 0.44 -1.24a5.06 5.06 0 0 1 0.38 -0.73 3.62 3.62 0 0 1 0.59 -0.73 4.07 4.07 0 0 1 1.18 -0.79 8.09 8.09 0 0 1 2.52 -0.61 0.35 0.35 0 0 0 0.33 -0.35 0.34 0.34 0 0 0 -0.34 -0.33Z" fill="#4C57E6" fill-rule="evenodd" stroke-width="1"></path>
  </g>
</svg>