<svg xmlns="http://www.w3.org/2000/svg" viewBox="0 0 24 24" id="Public-Transportation-Train-Station-Passenger-1--Streamline-Freehand">
  <desc>
    Public Transportation Train Station Passenger 1 Streamline Icon: https://streamlinehq.com
  </desc>
  <g>
    <path d="M13.09 21.21a5.75 5.75 0 0 0 -0.34 -0.65c-0.12 -0.21 -0.25 -0.42 -0.39 -0.62s-0.42 -0.56 -0.64 -0.83l0.78 -0.05a0.35 0.35 0 0 0 0.32 -0.27 0.35 0.35 0 0 0 0.28 -0.31c0.15 -1.59 0.39 -3.17 0.54 -4.77 0.07 -0.69 0.11 -1.38 0.13 -2.08a14.32 14.32 0 0 0 -0.1 -2.35 5.47 5.47 0 0 0 -0.49 -1.61 3.66 3.66 0 0 0 -1.9 -1.82 10 10 0 0 0 -3.61 -0.49 12 12 0 0 0 -4.35 0.29A4.06 4.06 0 0 0 1 7.7a4.91 4.91 0 0 0 -0.54 1.64 18.4 18.4 0 0 0 -0.05 2.36l0 3.5c0 1.17 0 2.33 0.09 3.5a0.33 0.33 0 0 0 0.32 0.3 0.27 0.27 0 0 0 0.18 -0.08l0.79 0a6.35 6.35 0 0 0 -0.49 0.64c-0.14 0.2 -0.26 0.4 -0.38 0.61s-0.22 0.44 -0.31 0.66c-0.23 0.53 -0.4 1.06 -0.59 1.6a0.36 0.36 0 0 0 0.17 0.47 0.36 0.36 0 0 0 0.47 -0.17c0.22 -0.36 0.46 -0.7 0.7 -1 1.09 0.12 2.18 0.22 3.28 0.26l2.56 0 4.92 -0.24c0.33 0.47 0.69 0.91 1 1.38a0.35 0.35 0 0 0 0.47 0.15 0.36 0.36 0 0 0 0.14 -0.48c-0.18 -0.52 -0.39 -1.06 -0.64 -1.59ZM1.82 18.27l-0.67 0 0 -3.09 0 -1a37.82 37.82 0 0 0 4 0.26l2.24 0 2.22 -0.11 3 0.05c-0.1 1.33 -0.23 2.64 -0.32 4 -1.62 0 -3.25 -0.22 -4.88 -0.33C6.81 18 6.09 18 5.37 18c-1.17 0 -3.18 0.24 -3.55 0.27ZM12.7 9.72a15.58 15.58 0 0 1 0.13 1.91c0 0.68 0 1.35 -0.05 2l-3.11 -0.35 -2.42 0c0 -0.36 0.11 -0.73 0.15 -1.11a7 7 0 0 0 0.06 -1 11.56 11.56 0 0 0 -0.18 -1.44h1c0.83 0 1.67 -0.07 2.5 -0.07 0.68 -0.02 1.3 0.01 1.92 0.06Zm-6.41 2.47c0 0.38 0.08 0.75 0.14 1.12l-1.32 0c-1.29 0.07 -2.57 0.16 -3.86 0.18 0 -0.6 0 -1.21 0.07 -1.82a21.16 21.16 0 0 1 0.14 -2.13A9.32 9.32 0 0 1 3 9.5c0.94 0 1.87 0.15 2.84 0.21h0.76c-0.08 0.39 -0.17 0.78 -0.23 1.18 0 0.22 0 0.43 -0.05 0.65a4.71 4.71 0 0 0 -0.03 0.65Zm-2.6 -5.44a11.29 11.29 0 0 1 3.94 -0.22 9.54 9.54 0 0 1 3.21 0.37 2.64 2.64 0 0 1 1.39 1.27 3.33 3.33 0 0 1 0.31 0.79 28.9 28.9 0 0 0 -3.12 -0.35c-0.61 0 -1.21 -0.06 -1.82 -0.06l-1.8 0c-1 0 -1.93 0 -2.88 0.11a9.51 9.51 0 0 0 -1.3 0.21 3.73 3.73 0 0 1 0.28 -0.66 3 3 0 0 1 1.79 -1.46Zm3.52 14.09 -1.93 0C4.13 20.91 3 21 1.83 21c0 -0.08 0.09 -0.16 0.14 -0.24s0.22 -0.42 0.32 -0.63c0.17 -0.38 0.31 -0.77 0.45 -1.15l2.61 0.11 2.12 0.08 1.43 0c0.66 0 1.32 0 2 -0.05a13.19 13.19 0 0 0 0.63 1.57l0.16 0.29Z" fill="#020202" fill-rule="evenodd" stroke-width="1"></path>
    <g>
      <path d="M17.07 13a4.41 4.41 0 0 1 0.63 -2 1.18 1.18 0 0 1 0.81 -0.55 0.77 0.77 0 0 1 0.78 0.27 1.85 1.85 0 0 1 0.32 0.56 5.52 5.52 0 0 1 0.27 1.1l0.25 1.5c0.13 0.77 0.43 0.59 0.82 0l-0.13 -1.61a6.88 6.88 0 0 0 -0.19 -1.33 3.45 3.45 0 0 0 -0.43 -0.94 2 2 0 0 0 -0.38 -0.38l0.12 -0.08a2.43 2.43 0 0 0 0 -3.6 2 2 0 0 0 -2.7 -0.07 3.32 3.32 0 0 0 -0.53 0.33 2 2 0 0 0 -0.25 2.91 2.67 2.67 0 0 0 0.77 0.69 2.52 2.52 0 0 0 -0.5 0.58 5.21 5.21 0 0 0 -0.51 2.06 8.16 8.16 0 0 0 0.06 1.4c0.27 0.65 0.54 0.71 0.79 0a8.33 8.33 0 0 1 0 -0.84Zm0.1 -6.23 0.07 -0.07a0.35 0.35 0 0 0 0.25 -0.1 1.23 1.23 0 0 1 1.79 0 1.45 1.45 0 0 1 -0.13 2 1.73 1.73 0 0 1 -0.31 0.22 1.31 1.31 0 0 1 -1.6 -0.43 1.17 1.17 0 0 1 -0.07 -1.67Z" fill="#020202" fill-rule="evenodd" stroke-width="1"></path>
      <path d="M23.75 7.07a17.08 17.08 0 0 0 -0.56 -3.24 4.17 4.17 0 0 0 -1.33 -2 5.14 5.14 0 0 0 -2.1 -0.89A18.68 18.68 0 0 0 16.6 0.67l-1.92 0a18 18 0 0 0 -1.9 0.25 0.31 0.31 0 0 0 -0.25 0.36 0.3 0.3 0 0 0 0.35 0.25 14.23 14.23 0 0 1 1.83 -0.14c0.61 0 1.22 0 1.84 0.07a19.74 19.74 0 0 1 3 0.42 4.12 4.12 0 0 1 1.63 0.78 3.13 3.13 0 0 1 0.92 1.51 16.87 16.87 0 0 1 0.5 3A55.15 55.15 0 0 1 23 13l0 1.84 -1.17 0 -6.57 0a0.66 0.66 0 0 0 -0.46 0.55l0 0.7 0 2 0 0.7a0.68 0.68 0 0 0 0.49 0.6 7.54 7.54 0 0 0 1.35 0.07c0.63 0 1.27 -0.1 1.88 -0.14 0.78 -0.05 1.56 -0.08 2.35 -0.1l2.35 0a0.22 0.22 0 0 0 0.14 0 0.35 0.35 0 0 0 0.36 -0.33c0.17 -2.32 0.31 -4.69 0.3 -7 -0.02 -1.68 -0.11 -3.26 -0.27 -4.82ZM23 18.5l-4.54 -0.15 -1.86 0 -0.62 0c0 -0.12 -0.05 -0.23 -0.05 -0.24l0.05 -2 0 -0.23 0.3 0c0.66 -0.06 1.36 -0.05 2 -0.08l4.75 -0.27c0.02 0.97 -0.03 1.97 -0.03 2.97Z" fill="#4C57E6" fill-rule="evenodd" stroke-width="1"></path>
    </g>
  </g>
</svg>