<svg xmlns="http://www.w3.org/2000/svg" viewBox="0 0 24 24" id="Public-Transportation-Train-Station-4--Streamline-Freehand">
  <desc>
    Public Transportation Train Station 4 Streamline Icon: https://streamlinehq.com
  </desc>
  <g>
    <path d="M14.38 5.66Z" fill="#020202" fill-rule="evenodd" stroke-width="1"></path>
    <path d="M9.91 17.76c-1.07 0 -2.15 0 -3.24 -0.05l-2.17 0c-1.06 0 -2.11 0.13 -3.16 0.22 0 -1 -0.08 -2.28 -0.1 -3.59l0 -1.47c1.28 0 2.56 0.07 3.84 0.09l1.73 0c0.58 0 1.15 0 1.73 -0.06 1.34 -0.06 2.67 -0.17 4 -0.29 0 0.65 -0.09 1.29 -0.09 1.9a0.34 0.34 0 0 0 0.33 0.33 0.33 0.33 0 0 0 0.33 -0.33 51.25 51.25 0 0 0 0.31 -5.33 6.43 6.43 0 0 0 -0.61 -2.34 4.08 4.08 0 0 0 -2.44 -2 14.33 14.33 0 0 0 -4.43 -0.48 6 6 0 0 0 -1 0.07c-0.34 0 -0.67 0.11 -1 0.19a6.49 6.49 0 0 0 -1.83 0.75 3.35 3.35 0 0 0 -1 1A4.27 4.27 0 0 0 0.47 8a15 15 0 0 0 -0.12 2.32c0 0.84 0 2 0.1 3.27 0.08 1.59 0.2 3.28 0.3 4.47a0.29 0.29 0 0 0 -0.17 0.25c0 0.46 1 0.33 2 0.41 -0.19 0.37 -0.38 0.74 -0.56 1.13a2.6 2.6 0 0 1 -0.1 0.25l-0.75 0.07a0.29 0.29 0 0 0 -0.29 0.29 0.3 0.3 0 0 0 0.29 0.29l0.49 0c-0.08 0.22 -0.15 0.44 -0.21 0.67s-0.16 0.57 -0.23 0.85l-0.88 0a0.29 0.29 0 0 0 0 0.58L1 23c0 0.13 -0.07 0.26 -0.1 0.39a0.33 0.33 0 1 0 0.62 0.22c0.08 -0.18 0.17 -0.36 0.25 -0.53 0.6 0.05 1.19 0.1 1.8 0.13s0.94 0 1.41 0 1 0 1.42 -0.07c1.1 -0.08 2.19 -0.21 3.28 -0.33a0.33 0.33 0 0 0 0.32 -0.35 0.34 0.34 0 0 0 -0.35 -0.31c-1.09 0 -2.18 0 -3.28 -0.05H5l-1.41 0 -1.39 0.08c0.06 -0.14 0.14 -0.29 0.2 -0.44s0.23 -0.52 0.33 -0.79l0 -0.14c0.62 0.05 1.24 0.09 1.87 0.11l2.33 0 2.84 -0.18a0.33 0.33 0 0 0 0 -0.66L7 19.88c-0.78 0 -1.55 -0.06 -2.33 0 -0.54 0 -1.07 0.06 -1.6 0.1 0.1 -0.41 0.2 -0.82 0.28 -1.23l0.73 0.05 1.37 0c0.46 0 0.91 0 1.37 -0.05 1.07 -0.07 2.13 -0.19 3.18 -0.34a0.33 0.33 0 1 0 -0.05 -0.65Zm-8.68 -5.5c0 -0.75 0 -1.43 0.05 -2s0.07 -1.18 0.15 -1.77c1.49 0.12 3 0.22 4.45 0.22h0.47c0 0.3 -0.09 0.59 -0.11 0.9s0 0.41 0 0.62 0 0.41 0.06 0.62 0.11 0.65 0.18 1l-0.85 0c-1.47 0.08 -2.93 0.23 -4.4 0.41Zm11.32 -0.33c-1.39 0 -2.76 -0.06 -4.15 -0.08H7.26c0 -0.34 0.06 -0.68 0.08 -1s0 -0.41 0 -0.61a6 6 0 0 0 0 -0.61 8.24 8.24 0 0 0 -0.17 -0.89l1.45 -0.06c1.29 -0.06 2.56 -0.16 3.85 -0.18a8.2 8.2 0 0 1 0.15 1.5l0 2ZM2.87 6.15a5.52 5.52 0 0 1 1.28 -0.47A8.74 8.74 0 0 1 5 5.51a5.14 5.14 0 0 1 0.88 -0.07 13.6 13.6 0 0 1 4.12 0.35 3.16 3.16 0 0 1 2 1.46c0.09 0.17 0.16 0.35 0.23 0.52 -1.37 -0.1 -2.73 -0.18 -4.1 -0.18 -0.9 0 -1.81 0 -2.71 0.08 -1.29 0.07 -2.57 0.19 -3.86 0.25a3.29 3.29 0 0 1 0.41 -1 2.4 2.4 0 0 1 0.9 -0.77Z" fill="#020202" fill-rule="evenodd" stroke-width="1"></path>
    <path d="M5.91 16.59a1.61 1.61 0 0 0 1.6 0.12 1.58 1.58 0 0 0 0.86 -1.26 1.47 1.47 0 0 0 -0.63 -1.35 1.78 1.78 0 0 0 -1 -0.33 2.26 2.26 0 0 0 -1 0.29 0.33 0.33 0 0 0 -0.17 0.43l0.06 0.09a1.41 1.41 0 0 0 -0.25 0.54 1.39 1.39 0 0 0 0.53 1.47Zm0.42 -1.76a1.64 1.64 0 0 1 0.31 -0.28 1 1 0 0 1 0.52 0.27 0.58 0.58 0 0 1 -0.16 0.89 0.55 0.55 0 0 1 -0.54 0 0.48 0.48 0 0 1 -0.3 -0.47 0.69 0.69 0 0 1 0.17 -0.41Z" fill="#020202" fill-rule="evenodd" stroke-width="1"></path>
    <g>
      <path d="M23.3 21.16c0.07 -1.16 0.14 -2.33 0.2 -3.49a55.41 55.41 0 0 1 -5.66 -0.56 36.22 36.22 0 0 0 -5.27 0.27s-0.08 -0.05 -0.13 0a0.28 0.28 0 0 0 -0.27 0.3l0 2.75c0 0.11 -0.06 0.65 0 0.88a0.6 0.6 0 0 0 0.16 0.35 2.41 2.41 0 0 0 1.48 0.67 12.54 12.54 0 0 0 2.07 -0.07c0.68 -0.05 1.36 -0.07 2.05 -0.1 1 0 2.07 -0.1 3.11 -0.17 0.74 -0.05 1.49 -0.11 2.23 -0.21a0.33 0.33 0 0 0 0.3 -0.35 0.32 0.32 0 0 0 -0.27 -0.27Zm-0.65 -0.05c-1.81 0.06 -3.62 0 -5.43 0 -0.5 0 -1 0 -1.49 0.05a14 14 0 0 1 -1.91 0.14 1.78 1.78 0 0 1 -0.76 -0.19 4 4 0 0 1 -0.1 -0.69L12.75 18l5.05 0.25c1.12 0 2.25 0.12 3.37 0.13a12.37 12.37 0 0 0 1.49 -0.05l0.05 0Z" fill="#020202" fill-rule="evenodd" stroke-width="1"></path>
      <path d="M14.58 1.16h0.06c0 0.15 -0.08 0.3 -0.11 0.46a3 3 0 0 0 0 0.42 3.22 3.22 0 0 0 0 0.43 4.9 4.9 0 0 0 0.13 0.55 8.24 8.24 0 0 0 -0.89 0.19 0.3 0.3 0 0 0 -0.24 0.34s0.05 0.07 0.07 0.1a8.93 8.93 0 0 0 -0.22 1.64 2.1 2.1 0 0 0 0.18 0.89 1.17 1.17 0 0 0 0.71 0.52 4.86 4.86 0 0 0 1.34 0.12c0.56 0 1.12 -0.06 1.69 -0.12 0.85 -0.09 1.69 -0.22 2.51 -0.38A0.34 0.34 0 0 0 20.1 6s-0.05 -0.08 -0.07 -0.12a0.28 0.28 0 0 0 0.18 -0.25 7.74 7.74 0 0 0 0.07 -1.72 1.56 1.56 0 0 0 -0.43 -0.9 1 1 0 0 0 -0.54 -0.2 2.74 2.74 0 0 0 -0.64 0c0 -0.18 0.09 -0.36 0.12 -0.54a2.16 2.16 0 0 0 0 -0.35 2.17 2.17 0 0 0 0 -0.36c0 -0.13 -0.06 -0.26 -0.1 -0.39a7.48 7.48 0 0 1 2.17 0.19 2.42 2.42 0 0 1 1.22 0.79 3.78 3.78 0 0 1 0.75 2 32.49 32.49 0 0 1 0 3.71l0 6.63 0 1.93c0.18 0.87 0.65 0.9 0.84 0 0.06 -1.07 0.12 -2.15 0.16 -3.23 0.08 -1.77 0.13 -3.55 0.17 -5.32a30.66 30.66 0 0 0 0 -3.85 4.73 4.73 0 0 0 -1 -2.6A3.42 3.42 0 0 0 21.13 0.35a9.5 9.5 0 0 0 -2.82 -0.09c-4.06 0.23 -4.6 0.23 -5.42 0.35a8.71 8.71 0 0 0 -1.11 0.22 0.29 0.29 0 0 0 -0.21 0.35 0.28 0.28 0 0 0 0.35 0.21A7.62 7.62 0 0 1 13 1.23c0.5 -0.05 1 -0.07 1.58 -0.07Zm3.26 0a2.11 2.11 0 0 0 -0.1 0.38 2 2 0 0 0 0 0.36 2.2 2.2 0 0 0 0 0.36 3.41 3.41 0 0 0 0.14 0.55h-0.84c-0.36 0 -0.72 0 -1.09 0.07 -0.16 0 -0.31 0 -0.46 0.06 0 -0.15 0.05 -0.29 0.08 -0.44s0 -0.27 0 -0.41a2.75 2.75 0 0 0 0 -0.41c0 -0.17 -0.06 -0.33 -0.1 -0.49Zm-1.23 2.68c0.51 0 1 0 1.51 0.05 0.14 0 0.41 0 0.7 -0.08a3.73 3.73 0 0 1 0.48 0 1 1 0 0 1 0.16 0.46 7.37 7.37 0 0 1 0.1 1.31 0.5 0.5 0 0 0 0 0.13l-1.11 0 -1.74 0h-1.12a8.37 8.37 0 0 1 -0.85 0l-0.35 0A1.43 1.43 0 0 1 14.2 5a7.52 7.52 0 0 1 0 -1.25 15.46 15.46 0 0 1 2.41 0.09Z" fill="#4C57E6" fill-rule="evenodd" stroke-width="1"></path>
    </g>
  </g>
</svg>