<svg xmlns="http://www.w3.org/2000/svg" viewBox="0 0 24 24" id="Radiology-Scan-Mri--Streamline-Freehand">
  <desc>
    Radiology Scan Mri Streamline Icon: https://streamlinehq.com
  </desc>
  <g>
    <path d="M3.08 4.05a1.45 1.45 0 0 0 0.81 1.42 1.82 1.82 0 0 0 1.57 -0.07 1.63 1.63 0 0 0 0.68 -2.14c-0.75 -1.64 -2.35 -0.73 -2.75 -0.18a1.89 1.89 0 0 0 -0.31 0.97Zm2.07 -0.64a0.62 0.62 0 0 1 -0.15 0.92 0.79 0.79 0 0 1 -0.6 0.08 0.45 0.45 0 0 1 -0.4 -0.36c-0.1 -1.14 0.85 -1.14 1.15 -0.64Z" fill="#020202" fill-rule="evenodd" stroke-width="1"></path>
    <path d="M19.71 10.89A5.86 5.86 0 0 0 19 5.81a6.92 6.92 0 0 0 -4.26 -3 8.63 8.63 0 0 0 -4.7 0.33A8.26 8.26 0 0 0 6.25 6a7.36 7.36 0 0 0 -1.38 3.14 4.21 4.21 0 0 0 0.29 2.34A14.46 14.46 0 0 0 5.93 13a5.47 5.47 0 0 0 0.7 0.94 0.31 0.31 0 0 0 0.46 -0.42 5.6 5.6 0 0 1 -0.59 -0.85 13.46 13.46 0 0 1 -0.65 -1.47 3.6 3.6 0 0 1 0 -2.4 6.94 6.94 0 0 1 1.22 -2.2 7.3 7.3 0 0 1 3.35 -2.32A7.74 7.74 0 0 1 14.5 4a5.84 5.84 0 0 1 3.63 2.4 4.93 4.93 0 0 1 0.78 4.26 5.78 5.78 0 0 1 -0.67 1.5 6.55 6.55 0 0 1 -1.07 1.28 0.35 0.35 0 0 0 0 0.5 0.36 0.36 0 0 0 0.5 0 7.44 7.44 0 0 0 1.24 -1.39 6.27 6.27 0 0 0 0.8 -1.66Z" fill="#4C57E6" fill-rule="evenodd" stroke-width="1"></path>
    <path d="M16.62 18.82a0.36 0.36 0 0 0 -0.42 -0.28 0.35 0.35 0 0 0 -0.27 0.41c0 0.21 0.07 0.43 0.1 0.65a1.51 1.51 0 0 1 -0.03 0.4c-0.12 0.86 -1.12 0.84 -3.16 0.93a13.41 13.41 0 0 1 -2.2 0 7.16 7.16 0 0 1 -1.39 -0.19 3.76 3.76 0 0 1 -0.6 -0.19 0.85 0.85 0 0 1 -0.37 -0.27 1.12 1.12 0 0 1 -0.15 -0.49l0 -0.17 0.27 0 1.6 -0.19c1 -0.13 2.14 -0.35 3.24 -0.42a7.58 7.58 0 0 1 2.08 0.1 0.35 0.35 0 0 0 0.42 -0.26 0.35 0.35 0 0 0 -0.26 -0.43 8.41 8.41 0 0 0 -2.27 -0.3c-1.11 0 -2.25 0.11 -3.31 0.15l-1.11 0.11 0.21 -0.57c0.22 -0.95 0.46 -1.89 0.66 -2.84a17.19 17.19 0 0 0 0.27 -1.75 11.88 11.88 0 0 0 1.48 0.09c0.33 0 0.65 0 1 -0.06a4.67 4.67 0 0 1 1.4 0 0.36 0.36 0 1 0 0.19 -0.65 4.53 4.53 0 0 0 -2.89 -0.42 9.85 9.85 0 0 0 -1.13 0.31 2.82 2.82 0 0 1 -1.22 -2 2.58 2.58 0 0 1 0.48 -2.19 4 4 0 0 1 3.11 -1.4 3.55 3.55 0 0 1 2.93 1.6 2.54 2.54 0 0 1 0.39 0.85 2.85 2.85 0 0 1 0.12 1 2.24 2.24 0 0 1 -0.33 1 4.32 4.32 0 0 1 -0.8 0.91 0.32 0.32 0 0 0 -0.09 0.34s-0.08 0 -0.11 0a0.3 0.3 0 0 0 -0.23 0.37 19.53 19.53 0 0 0 0.3 2.17c0.09 0.41 0.23 0.82 0.35 1.22 0.19 0.6 0.42 1.19 0.57 1.82a0.34 0.34 0 0 0 0.39 0.3 0.34 0.34 0 0 0 0.3 -0.39 12.39 12.39 0 0 0 -0.14 -1.95c-0.06 -0.27 -0.11 -0.54 -0.18 -0.81a5.88 5.88 0 0 0 -0.25 -0.78c-0.21 -0.56 -0.47 -1.1 -0.7 -1.67a0.33 0.33 0 0 0 0.25 -0.08 4.68 4.68 0 0 0 1.16 -1.27 2.76 2.76 0 0 0 0.39 -1.16 4.33 4.33 0 0 0 -0.07 -1.24A3.75 3.75 0 0 0 16.14 8a4.47 4.47 0 0 0 -3.77 -2.23 4.91 4.91 0 0 0 -3.94 1.86 3.51 3.51 0 0 0 -0.54 3 3.69 3.69 0 0 0 1.45 2.17c0 0.05 -0.05 0.08 -0.05 0.13 -0.13 0.62 -0.3 1.23 -0.49 1.83 -0.29 0.92 -0.63 1.82 -0.94 2.74l-0.35 0.94a3.2 3.2 0 0 0 -0.15 0.34 0.54 0.54 0 0 0 0.12 0.61 3.49 3.49 0 0 0 -0.07 0.43 1.74 1.74 0 0 0 0.15 0.84 1.61 1.61 0 0 0 0.51 0.59 2.93 2.93 0 0 0 0.63 0.33 2.23 2.23 0 0 0 0 0.37 1.26 1.26 0 0 0 0.05 0.33 2.85 2.85 0 0 0 0.12 0.31c0.12 0.25 0.26 0.46 0.4 0.7a0.35 0.35 0 1 0 0.68 -0.19l0 -0.79a1.88 1.88 0 0 0 0 -0.33 0.08 0.08 0 0 0 0 -0.05 5.73 5.73 0 0 0 0.69 0.16 12 12 0 0 0 2.4 0l1 -0.1a1.12 1.12 0 0 0 0 0.13 2.17 2.17 0 0 0 -0.11 0.42 9.18 9.18 0 0 0 -0.13 1 0.34 0.34 0 0 0 0.23 0.44 0.35 0.35 0 0 0 0.44 -0.23c0.16 -0.29 0.35 -0.56 0.51 -0.86 0.06 -0.13 0.12 -0.25 0.17 -0.38a2.12 2.12 0 0 0 0.12 -0.41 1.86 1.86 0 0 0 0 -0.34 3 3 0 0 0 0.86 -0.34 1.7 1.7 0 0 0 0.7 -1.42 2.47 2.47 0 0 0 0 -0.54c-0.09 -0.19 -0.16 -0.46 -0.21 -0.64Z" fill="#020202" fill-rule="evenodd" stroke-width="1"></path>
    <path d="m23.32 10.62 0 -2.55 0 -3.05a10.22 10.22 0 0 0 -0.1 -1.92 3.44 3.44 0 0 0 -0.54 -1.34 2.56 2.56 0 0 0 -1.44 -1 12.16 12.16 0 0 0 -2.19 -0.3c-1.23 -0.17 -2.46 -0.29 -3.7 -0.35C13.51 0 11.66 0 9.81 0a15.22 15.22 0 0 0 -5.62 0.73 5.7 5.7 0 0 0 -2.88 2.54s0 0 0 0.06a25 25 0 0 0 -0.75 4.5 36 36 0 0 0 0 4.53 17.09 17.09 0 0 0 0.69 4.5A3.72 3.72 0 0 0 3.6 19.1a5.23 5.23 0 0 0 0.89 0.2c0.42 0.07 0.85 0.1 1.28 0.15a0.36 0.36 0 0 0 0.39 -0.31 0.35 0.35 0 0 0 -0.3 -0.39c-0.41 -0.07 -0.83 -0.12 -1.23 -0.21a5.37 5.37 0 0 1 -0.75 -0.23 2.82 2.82 0 0 1 -1.66 -1.82 15.83 15.83 0 0 1 -0.47 -4.23c-0.07 -0.68 -0.1 -1.39 -0.14 -2.1 -0.06 -1.05 -0.09 -2.11 -0.06 -3.16a24.3 24.3 0 0 1 0.33 -3.46 5 5 0 0 1 2.58 -2.12A14.22 14.22 0 0 1 9.79 0.94c1.54 0.05 3.06 0.12 4.58 0.22s3 0.24 4.53 0.45a12 12 0 0 1 2 0.26 1.5 1.5 0 0 1 0.81 0.56 2.33 2.33 0 0 1 0.35 0.89A8.88 8.88 0 0 1 22.15 5l0.11 3.06 0 2.53c0 1.7 0.61 4.59 0.18 6.45 -0.2 0.83 -0.61 1.43 -1.5 1.47 -0.51 0 -1.22 0.13 -1.85 0.17a6.37 6.37 0 0 1 -0.74 0 0.35 0.35 0 1 0 -0.05 0.7 5.87 5.87 0 0 0 0.84 0c0.62 0 1.32 -0.1 1.83 -0.11a2.35 2.35 0 0 0 2.3 -2.05c0.51 -1.85 0.02 -4.84 0.05 -6.6Z" fill="#020202" fill-rule="evenodd" stroke-width="1"></path>
  </g>
</svg>