<svg xmlns="http://www.w3.org/2000/svg" viewBox="0 0 24 24" id="Radio-Search-Station--Streamline-Freehand">
  <desc>
    Radio Search Station Streamline Icon: https://streamlinehq.com
  </desc>
  <g>
    <path d="M17.67 1.39a0.37 0.37 0 0 0 -0.05 -0.51A1.19 1.19 0 0 0 16.18 0c-0.79 0.18 0.97 2 1.49 1.39Z" fill="#4C57E6" fill-rule="evenodd" stroke-width="1"></path>
    <path d="M20.41 0A1.2 1.2 0 0 0 19 0.88a0.36 0.36 0 0 0 0 0.51C19.43 2 21.19 0.18 20.41 0Z" fill="#4C57E6" fill-rule="evenodd" stroke-width="1"></path>
    <path d="M22.13 3.06a0.38 0.38 0 0 0 0.37 -0.4c-0.06 -0.39 -1 -0.68 -2 0.09 -0.22 0.14 0.5 0.96 1.63 0.31Z" fill="#4C57E6" fill-rule="evenodd" stroke-width="1"></path>
    <path d="M16 3.06a0.38 0.38 0 0 0 0.37 -0.4c-0.06 -0.39 -1 -0.68 -2 0.09 -0.26 0.14 0.47 0.96 1.63 0.31Z" fill="#4C57E6" fill-rule="evenodd" stroke-width="1"></path>
    <path d="M23.77 10.94a3.9 3.9 0 0 0 -0.3 -2.3c-0.58 -0.79 -1.95 -0.88 -3.3 -1a17.19 17.19 0 0 0 -0.52 -3.87C19.15 2.22 17.36 2 17.14 5c-0.06 0.73 0 1 0 2.45a68.88 68.88 0 0 0 -11.49 0 0.36 0.36 0 0 0 0 0.72 74.61 74.61 0 0 1 14.56 0.49c3 0.32 2.47 0.52 2.46 2.33 -0.05 7 0.2 9.24 -1.24 10.81 -1.55 1.72 -17.43 0.76 -19.05 0.2s-1.2 -2.48 -1.26 -4.22C1 14.5 0.37 9.2 3.31 8.2c1 -0.35 1.19 -0.15 1.21 -0.16a0.32 0.32 0 0 0 0.13 -0.43c-0.22 -0.42 -2 -0.25 -3.07 1S0.3 11.7 0.21 13.24c-0.07 1 0 6.69 0 6.77 0.1 1.43 0.52 2.49 1.8 3s17.99 2.2 20.36 -0.43A5.29 5.29 0 0 0 23.59 20c0.26 -1.27 0.26 -1.73 0.18 -9.06ZM18 7.48a6.48 6.48 0 0 1 0.21 -2.37 4.91 4.91 0 0 1 0.3 -1c0.4 1.25 0.79 3 0.87 3.48 -0.38 -0.03 -0.7 -0.05 -1.38 -0.11Z" fill="#020202" fill-rule="evenodd" stroke-width="1"></path>
    <path d="M21.21 11.71c-0.47 -2.16 -3.38 -2.52 -4.86 -0.73s0.36 3.77 2.46 3.62a2.47 2.47 0 0 0 2.4 -2.89Zm-1.42 1.48c-1.35 1 -4.11 -0.36 -2.44 -2 2.05 -2.03 4.13 0.81 2.44 2Z" fill="#020202" fill-rule="evenodd" stroke-width="1"></path>
    <path d="M5.14 10a0.32 0.32 0 0 0 0 -0.63 2.56 2.56 0 0 0 -2.33 4c0.67 0.91 2 1 3.07 1.07a49.24 49.24 0 0 0 5.49 0.19c1.64 0 3 -0.24 3.49 -1.81s-0.63 -3 -2.29 -3.4a17.12 17.12 0 0 0 -6.06 -0.2 0.36 0.36 0 0 0 0 0.71c1.11 -0.05 2 -0.09 2.94 0a6 6 0 0 0 -0.1 3.37 0.35 0.35 0 0 0 0 0.14c-3.86 0 -5.35 0.08 -5.9 -0.59A1.78 1.78 0 0 1 5.14 10Zm5 3.29c0 -0.09 0.56 -2.45 0.18 -3.31a13.28 13.28 0 0 1 2 0.41c1 0.28 1.82 1 1.44 2.07s-1.36 1 -2.41 1c-1.5 -0.01 -1.22 0.04 -1.21 -0.14Z" fill="#020202" fill-rule="evenodd" stroke-width="1"></path>
    <path d="M4.27 16.73C3.61 17.81 4 20.51 4 20.6a0.36 0.36 0 0 0 0.72 0c0.92 -4.07 -0.08 -4.47 -0.45 -3.87Z" fill="#4C57E6" fill-rule="evenodd" stroke-width="1"></path>
    <path d="M7.32 16.61c-0.06 -0.08 -0.15 -0.08 -0.21 -0.1 -0.55 -0.13 -0.76 2.24 -0.75 2.63s0.08 1 0.12 1.46a0.36 0.36 0 0 0 0.72 0c0.11 -0.48 0.25 -0.94 0.33 -1.43a6.26 6.26 0 0 0 -0.21 -2.56Z" fill="#4C57E6" fill-rule="evenodd" stroke-width="1"></path>
    <path d="M9.83 16.61c-0.06 -0.08 -0.15 -0.08 -0.21 -0.1 -0.53 -0.12 -0.75 2 -0.75 2.63s0.13 0.97 0.13 1.46a0.36 0.36 0 0 0 0.72 0c0.11 -0.48 0.26 -0.94 0.33 -1.43a6.08 6.08 0 0 0 -0.22 -2.56Z" fill="#4C57E6" fill-rule="evenodd" stroke-width="1"></path>
    <path d="M12.81 16.51c-0.53 -0.12 -0.76 2 -0.76 2.63s0.08 1 0.13 1.46a0.36 0.36 0 0 0 0.71 0c0.21 -0.87 0.84 -3.86 -0.08 -4.09Z" fill="#4C57E6" fill-rule="evenodd" stroke-width="1"></path>
    <path d="M15.28 20.6a0.36 0.36 0 0 0 0.72 0 7.82 7.82 0 0 0 0.39 -2.41 12.88 12.88 0 0 0 -0.27 -1.63c-0.06 -0.08 -0.15 -0.08 -0.21 -0.1 -0.77 -0.13 -0.75 2.74 -0.63 4.14Z" fill="#4C57E6" fill-rule="evenodd" stroke-width="1"></path>
    <path d="M19.62 16.61a0.32 0.32 0 0 0 -0.2 -0.1c-0.8 -0.18 -0.74 2.84 -0.63 4.09a0.36 0.36 0 0 0 0.71 0 14.1 14.1 0 0 0 0.33 -1.43 5.88 5.88 0 0 0 -0.21 -2.56Z" fill="#4C57E6" fill-rule="evenodd" stroke-width="1"></path>
  </g>
</svg>