<svg xmlns="http://www.w3.org/2000/svg" viewBox="0 0 24 24" id="Radio-Antenna-Handle--Streamline-Freehand">
  <desc>
    Radio Antenna Handle Streamline Icon: https://streamlinehq.com
  </desc>
  <g>
    <path d="M17.26 11.16a0.34 0.34 0 0 0 0.48 0c0.49 -0.3 0.56 -1.44 0.36 -2a0.51 0.51 0 0 0 -1 0 4 4 0 0 0 0.16 2Z" fill="#4C57E6" stroke-width="1"></path>
    <path d="M23.81 6.72c-0.1 -1.4 0 -2.8 -1 -3.88C20.42 0.19 16.65 0.65 13.28 0.63c-1.75 0 -8.89 0.53 -11.6 2.23A2.72 2.72 0 0 0 0.27 4.67c-0.46 2.52 -0.45 7.23 1 10a0.29 0.29 0 0 0 0.39 0.14 20.55 20.55 0 0 0 -0.06 4.83c0.07 0.53 0.07 1.12 0.16 1.66 0.39 2.32 2.65 2.05 5.28 2.08 9.79 0.09 9.23 -0.42 11 -0.18a6.81 6.81 0 0 0 3.17 -0.11c1.12 -0.42 1.95 -1.43 2 -3.4a46 46 0 0 0 -0.72 -6.46c-0.18 -1.33 -0.06 -2.83 -0.59 -3.8C20.4 6.71 9.52 7.78 4.6 7.84a15.46 15.46 0 0 1 2.8 -0.69 82.58 82.58 0 0 0 11.8 -3.07c0.5 -0.17 0.08 -0.71 0 -0.71s0.29 -0.07 -1.27 0.31C12.42 5 4.85 6.33 3 8c-0.18 -0.06 -0.62 0 -0.71 0.89L2 11.5c-0.06 0.89 -0.16 1.79 -0.26 2.69C0.18 10.76 1 4.9 1.34 4.41c1.16 -1.67 5.08 -2 10.26 -2.54a38.07 38.07 0 0 1 7.4 0.06c1.58 0.31 3.3 1.13 3.7 2.68a38.8 38.8 0 0 1 0.42 8.4 12.47 12.47 0 0 0 -0.27 1.89 0.34 0.34 0 0 0 0.68 0 12.83 12.83 0 0 1 0.31 -1.78 28 28 0 0 0 -0.03 -6.4Zm-21.2 4.81 0.27 -2.6c0.12 -0.42 4.54 -0.72 8.64 -0.63a64.08 64.08 0 0 1 7.21 0.44c1.39 0.32 2.12 0.45 2.42 1.56a13.5 13.5 0 0 1 0.24 2.56c-2.85 0.75 -2.94 -0.64 -18.85 -0.17 0.03 -0.38 0.06 -0.77 0.07 -1.16Zm-0.12 1.87a4 4 0 0 0 0.41 -0.06c2.17 0.09 16.55 1 18.55 0.24 0.46 4 0.89 6.27 0.4 7.42 -0.62 1.43 -2.1 1.26 -3.64 1.06 -1.82 -0.23 -2.41 0.22 -11.2 0.3 -5 0.06 -4.19 -0.18 -4.6 -2.84a26.15 26.15 0 0 1 0.08 -6.12Z" fill="#020202" stroke-width="1"></path>
    <path d="M11.78 10.66a0.34 0.34 0 0 0 0.68 0 2.73 2.73 0 0 0 0 -2c-0.06 -0.35 -0.6 -0.32 -0.73 0a2.36 2.36 0 0 0 0.05 2Z" fill="#4C57E6" stroke-width="1"></path>
    <path d="M8.77 10.3c0.23 0.89 0.38 0.74 0.49 0.78s0.25 0.11 0.48 -0.78a3.68 3.68 0 0 0 -0.14 -1.68c-0.1 -0.33 -0.43 -0.18 -0.59 0a2.38 2.38 0 0 0 -0.25 0.65 1.58 1.58 0 0 0 0.01 1.03Z" fill="#4C57E6" stroke-width="1"></path>
    <path d="M14.44 10.68c0.1 0.14 0.17 0.21 0.23 0.21s0.27 0.06 0.36 -0.09a2.34 2.34 0 0 0 0 -2c-0.16 -0.28 -0.74 -0.26 -0.78 0.07 -0.16 0.9 -0.25 1.13 0.19 1.81Z" fill="#4C57E6" stroke-width="1"></path>
    <path d="M10.59 17.41c-0.55 -2.49 -2 -3.23 -3.7 -3.15 -4.44 0.19 -4.06 4.9 -1.51 6.38 1.72 0.95 5.94 0.17 5.21 -3.23ZM7 19.88a2.66 2.66 0 0 1 -2.4 -2.19c0 -0.07 -0.66 -2.53 2.66 -2.74 1.15 -0.08 1.87 0.38 2.37 2.17a2.33 2.33 0 0 1 0 1.61C9.19 19.8 7.35 19.89 7 19.88Z" fill="#4C57E6" stroke-width="1"></path>
    <path d="M20.72 18.9a8.11 8.11 0 0 0 -1.4 -0.12c-2.26 -0.15 -2.23 -0.57 -6.32 0 -0.57 0 -1.14 -0.09 -1 0.41 0 0.28 0.37 0.27 1 0.32 2.75 0.21 7.14 0.17 7.77 0.17 0.39 -0.03 0.52 -0.61 -0.05 -0.78Z" fill="#020202" stroke-width="1"></path>
    <path d="M14.49 17.15c0.38 0 1.85 0.11 2.79 0.14l3.39 0a0.34 0.34 0 0 0 0.34 -0.34c0 -0.53 -4.57 -1 -6.58 -0.76l-1.54 0.2c-0.59 0.05 -1.13 -0.08 -1 0.41 0 0.25 0.23 0.31 2.6 0.35Z" fill="#020202" stroke-width="1"></path>
  </g>
</svg>