<svg xmlns="http://www.w3.org/2000/svg" viewBox="0 0 24 24" id="Ranking-Hand-Star--Streamline-Freehand">
  <desc>
    Ranking Hand Star Streamline Icon: https://streamlinehq.com
  </desc>
  <g>
    <path d="m9.18 8.3 1.45 -1 0.7 0.48c0.26 0.18 0.53 0.35 0.76 0.48a2.33 2.33 0 0 0 1.31 0.18 0.75 0.75 0 0 0 0.54 -0.62 2.41 2.41 0 0 0 0 -0.8 13.17 13.17 0 0 0 -0.44 -1.34l-0.1 -0.33a14.91 14.91 0 0 0 1.47 -1.53 0.73 0.73 0 0 0 0.13 -0.73 0.52 0.52 0 0 0 -0.35 -0.23l-2.46 -0.24 -0.4 -0.92a6 6 0 0 0 -0.41 -0.78 2.57 2.57 0 0 0 -0.42 -0.54C10.34 -0.13 10 0.7 9.88 0.9l-1 1.77 -2.21 0.18a0.49 0.49 0 0 0 -0.37 0.24 0.74 0.74 0 0 0 0.12 0.79A14.27 14.27 0 0 0 7.91 5.4l-0.1 0.33a10.7 10.7 0 0 0 -0.44 1.35 2.12 2.12 0 0 0 0 0.79 0.75 0.75 0 0 0 0.54 0.61 2.21 2.21 0 0 0 1.27 -0.18ZM7.64 3.72l1.55 -0.2a0.43 0.43 0 0 0 0.34 -0.23l1 -2a1.67 1.67 0 0 0 0.15 -0.17l0.08 0.15a7.76 7.76 0 0 1 0.32 0.72c0.22 0.55 0.42 1.15 0.42 1.15a0.41 0.41 0 0 0 0.32 0.26l1.84 0.29c-0.53 0.5 -1.3 1.11 -1.3 1.11a0.55 0.55 0 0 0 -0.17 0.57l0.17 0.69c0.09 0.32 0.23 0.7 0.32 1.08l0 0.07L11 6.08a0.63 0.63 0 0 0 -0.76 0L8.58 7.22l0 -0.08c0.09 -0.38 0.24 -0.76 0.33 -1.08l0.18 -0.69a0.56 0.56 0 0 0 -0.19 -0.57s-0.73 -0.58 -1.26 -1.08Z" fill="#020202" fill-rule="evenodd" stroke-width="1"></path>
    <path d="M18.15 15.87a1.54 1.54 0 0 0 -1.48 -0.32 1.87 1.87 0 0 0 -1.29 -1 1.75 1.75 0 0 0 -0.51 0 1.8 1.8 0 0 0 -0.43 -0.63 1.7 1.7 0 0 0 -1.06 -0.46 1.84 1.84 0 0 0 -0.83 0.16c0 -0.31 0.07 -0.62 0.07 -0.93a7.37 7.37 0 0 0 -0.31 -2.31 3.38 3.38 0 0 0 -0.18 -0.44 3.87 3.87 0 0 0 -0.27 -0.43l-0.5 -0.46a1.31 1.31 0 0 0 -1.75 0A2.45 2.45 0 0 0 9 10.22a6.76 6.76 0 0 0 -0.19 1.62l0 0.91q0.06 0.66 0.15 1.32c0.07 0.45 0.14 0.88 0.23 1.32a0.34 0.34 0 0 0 0.37 0.28 0.34 0.34 0 0 0 0.28 -0.38c0 -0.43 -0.07 -0.86 -0.08 -1.28s0 -0.86 0 -1.29l0.07 -0.83a5.55 5.55 0 0 1 0.38 -1.53 0.76 0.76 0 0 1 0.24 -0.36c0.06 0 0.11 0 0.2 0.11l0.23 0.21 0.27 0.48a6.46 6.46 0 0 1 0.43 1.94 16.43 16.43 0 0 1 -0.12 3.16 0.39 0.39 0 0 0 0.06 0.24 5.58 5.58 0 0 0 -1.89 -0.38 2.07 2.07 0 0 0 -1.63 0.76 2.15 2.15 0 0 0 -0.34 0.77 5.25 5.25 0 0 0 -0.11 1 4.25 4.25 0 0 0 0.05 0.71c0 0.2 0.08 0.41 0.13 0.63s0.16 0.6 0.26 0.9a9.28 9.28 0 0 0 0.37 0.86 9.71 9.71 0 0 0 0.78 1.28 10.15 10.15 0 0 0 1 1.12 0.32 0.32 0 0 0 0.46 0 0.33 0.33 0 0 0 0 -0.47 9.37 9.37 0 0 1 -0.78 -1.12 9 9 0 0 1 -0.57 -1.2c-0.09 -0.26 -0.16 -0.53 -0.23 -0.8s-0.11 -0.53 -0.15 -0.81l-0.08 -1.07a5.26 5.26 0 0 1 0.07 -0.63 0.91 0.91 0 0 1 0.14 -0.41 1.16 1.16 0 0 1 1 -0.3 7.22 7.22 0 0 1 2.07 0.47 1.24 1.24 0 0 1 -0.11 0.17 1 1 0 0 1 -0.4 0.43 1.12 1.12 0 0 1 -0.58 0.11 0.39 0.39 0 0 0 -0.43 0.32 0.37 0.37 0 0 0 0.32 0.42 1.67 1.67 0 0 0 1 -0.12 1.83 1.83 0 0 0 0.72 -0.61 1.13 1.13 0 0 0 0.38 0.19 1 1 0 0 0 0.3 0.05c0.1 0 0.19 -0.05 0.29 -0.07a1.7 1.7 0 0 0 0.25 0.63 1.15 1.15 0 0 0 0.35 0.31 1 1 0 0 0 0.3 0.14 1.57 1.57 0 0 0 0.88 -0.1 1.65 1.65 0 0 0 0.62 0.86 1.47 1.47 0 0 0 0.63 0.24 2.64 2.64 0 0 0 0.28 0 8.28 8.28 0 0 0 -0.8 1.07 3.85 3.85 0 0 0 -0.36 0.9 11.24 11.24 0 0 0 -0.23 1.29 0.38 0.38 0 0 0 0.28 0.45 0.39 0.39 0 0 0 0.45 -0.29 11.33 11.33 0 0 1 0.36 -1.17 2.8 2.8 0 0 1 0.35 -0.63 10.61 10.61 0 0 1 1 -1 3.86 3.86 0 0 0 0.44 -0.62 4.37 4.37 0 0 0 0.38 -1.09 7 7 0 0 0 0.26 -1.61 2.55 2.55 0 0 0 -0.85 -1.85Zm-4.82 1.3 -0.24 0a0.52 0.52 0 0 0 -0.29 -0.45c-0.24 -0.12 -0.55 -0.25 -0.89 -0.39a0.34 0.34 0 0 0 0.28 -0.27c0.09 -0.45 0.18 -0.93 0.25 -1.41a1 1 0 0 1 0.6 -0.14 0.76 0.76 0 0 1 0.4 0.22 1.08 1.08 0 0 1 0.26 0.37 2.49 2.49 0 0 1 0.27 1c0.13 1.57 0.07 1.3 -0.25 1.27 -0.08 0 -0.12 -0.09 -0.2 -0.11Zm1.87 1.3c-0.08 0 -0.11 -0.12 -0.18 -0.15l-0.2 -0.13c-0.14 -0.09 -0.29 -0.14 -0.41 -0.22a2.6 2.6 0 0 0 0.34 -0.57 9.42 9.42 0 0 0 0.3 -1.6 1.86 1.86 0 0 0 -0.05 -0.34c0.24 0 0.4 0.28 0.49 0.58a2.84 2.84 0 0 1 0.27 1.18c0.09 1.02 0.24 1.49 -0.56 1.25Zm1.12 0.63a1.05 1.05 0 0 1 -0.11 -0.07 0.35 0.35 0 0 0 0.28 -0.24 6.1 6.1 0 0 0 0.43 -1.88 3.94 3.94 0 0 0 -0.05 -0.6 0.84 0.84 0 0 1 0.65 0.22 1.55 1.55 0 0 1 0.29 1.17 10.39 10.39 0 0 1 -0.15 1.15c0 0.13 -0.09 0.25 -0.12 0.38l-0.08 0a0.86 0.86 0 0 1 -0.28 0c-0.05 0 -0.1 0 -0.15 -0.05l-0.32 -0.07a2.24 2.24 0 0 1 -0.39 -0.01Z" fill="#020202" fill-rule="evenodd" stroke-width="1"></path>
    <path d="M6.93 5.81c-0.14 -0.23 -1 -0.07 -1 0a0.43 0.43 0 0 0 -0.21 0.09 0.85 0.85 0 0 0 -0.22 0.1c-0.5 0.66 -0.5 0.81 -0.42 1s0.29 0.24 1.07 0a0.67 0.67 0 0 0 0.21 -0.09 0.8 0.8 0 0 0 0.17 -0.15c0.05 -0.05 0.54 -0.71 0.4 -0.95Z" fill="#4C57E6" fill-rule="evenodd" stroke-width="1"></path>
    <path d="M14.73 5.83c-0.16 0.19 0.24 0.94 0.25 1a0.35 0.35 0 0 0 0.13 0.14 0.54 0.54 0 0 0 0.18 0.1c0.82 0.3 0.93 0.17 1 0s0.19 -0.25 -0.29 -1a0.76 0.76 0 0 0 -0.13 -0.17 0.56 0.56 0 0 0 -0.17 -0.09c-0.87 -0.27 -0.96 0 -0.97 0.02Z" fill="#4C57E6" fill-rule="evenodd" stroke-width="1"></path>
    <path d="M14.29 1.34a0.65 0.65 0 0 0 0.18 -0.15 0.71 0.71 0 0 0 0.12 -0.19c0.38 -0.76 0.38 -0.89 0.22 -1.07s-0.27 -0.23 -1.08 0.25a1.49 1.49 0 0 0 -0.2 0.15 2.43 2.43 0 0 0 -0.14 0.2c0 0.08 -0.33 0.88 -0.12 1.06s1.01 -0.24 1.02 -0.25Z" fill="#4C57E6" fill-rule="evenodd" stroke-width="1"></path>
    <path d="m6.37 1.05 0.14 0.15 0.19 0.09c0.91 0.2 1 0 1 -0.05S7.39 0.3 7.38 0.28a0.4 0.4 0 0 0 -0.16 -0.13A1.11 1.11 0 0 0 7 0.06c-0.77 -0.19 -0.9 -0.2 -1 0s-0.18 0.31 0.37 0.99Z" fill="#4C57E6" fill-rule="evenodd" stroke-width="1"></path>
  </g>
</svg>