<svg xmlns="http://www.w3.org/2000/svg" viewBox="0 0 24 24" id="Rating-Three-Star--Streamline-Freehand">
  <desc>
    Rating Three Star Streamline Icon: https://streamlinehq.com
  </desc>
  <g>
    <path d="M14.43 9.54c0.1 0 0.18 -0.24 0.31 -0.36 0.35 -0.32 0.79 -0.63 1 -0.83a1.14 1.14 0 0 0 0.3 -0.33 0.54 0.54 0 0 0 0 -0.57 0.9 0.9 0 0 0 -0.58 -0.37A14.46 14.46 0 0 0 14 7h-0.3c0 -0.08 -0.2 -0.21 -0.3 -0.36 -0.29 -0.46 -0.66 -1.06 -0.89 -1.36a1.09 1.09 0 0 0 -0.51 -0.42 0.58 0.58 0 0 0 -0.5 0.14 1.3 1.3 0 0 0 -0.24 0.3c-0.19 0.3 -0.52 0.91 -0.81 1.35 -0.11 0.17 -0.34 0.3 -0.28 0.38a17.39 17.39 0 0 1 -1.78 0.38 0.68 0.68 0 0 0 -0.51 0.45 0.79 0.79 0 0 0 0.29 0.56c0.34 0.28 1.18 0.87 1.29 1.18a4 4 0 0 1 -0.27 1.11c-0.14 0.5 -0.3 1 -0.39 1.29a0.29 0.29 0 0 0 0.18 0.38 0.3 0.3 0 0 0 0.37 -0.14 0.34 0.34 0 0 0 0.29 -0.05A17.8 17.8 0 0 1 11.73 11h0.07c0.64 0.28 1.83 1.18 2.42 1.45a0.8 0.8 0 0 0 0.78 0 0.69 0.69 0 0 0 0.24 -0.71 17.19 17.19 0 0 0 -0.81 -2.2Zm-0.81 -0.78a1.17 1.17 0 0 0 -0.28 0.79c0 0.23 0.52 1.15 0.79 1.84A22 22 0 0 0 12 10.23a1.44 1.44 0 0 0 -0.82 0.22c-0.43 0.22 -1 0.59 -1.47 0.88 0.15 -0.42 0.31 -0.88 0.41 -1.23a1.71 1.71 0 0 0 0.08 -0.74 4.45 4.45 0 0 0 -1 -1.19 7.46 7.46 0 0 0 1.5 -0.28 7.34 7.34 0 0 0 1.21 -1.55l0.67 1.08a2.15 2.15 0 0 0 0.46 0.52 1.76 1.76 0 0 0 0.66 0.16l0.57 0a5.34 5.34 0 0 0 -0.65 0.66Z" fill="#020202" fill-rule="evenodd" stroke-width="1"></path>
    <path d="M7.6 13.42a12.17 12.17 0 0 0 -1.52 -0.13h-0.26c0 -0.09 -0.2 -0.22 -0.3 -0.37 -0.29 -0.45 -0.66 -1.06 -0.9 -1.36a1 1 0 0 0 -0.48 -0.37 0.54 0.54 0 0 0 -0.52 0.12 1.58 1.58 0 0 0 -0.24 0.3c-0.19 0.31 -0.52 0.91 -0.81 1.35 -0.11 0.17 -0.34 0.31 -0.28 0.38a15 15 0 0 1 -1.78 0.39 0.66 0.66 0 0 0 -0.51 0.44 0.73 0.73 0 0 0 0.29 0.56c0.33 0.28 1.18 0.88 1.29 1.19A4.42 4.42 0 0 1 1.31 17c-0.14 0.5 -0.31 1 -0.39 1.29a0.31 0.31 0 0 0 0.18 0.39 0.31 0.31 0 0 0 0.37 -0.15 0.34 0.34 0 0 0 0.29 0 17.66 17.66 0 0 1 2.08 -1.15h0.07c0.65 0.28 1.84 1.18 2.43 1.45a0.83 0.83 0 0 0 0.78 0 0.74 0.74 0 0 0 0.24 -0.72 19.79 19.79 0 0 0 -0.81 -2.23c0.1 0 0.18 -0.25 0.31 -0.37 0.35 -0.31 0.79 -0.63 1 -0.82a1.62 1.62 0 0 0 0.31 -0.33 0.61 0.61 0 0 0 0 -0.58 0.9 0.9 0 0 0 -0.57 -0.36Zm-1.86 1.67a1.15 1.15 0 0 0 -0.28 0.8c0 0.23 0.52 1.14 0.79 1.83a19.79 19.79 0 0 0 -2.16 -1.15 1.31 1.31 0 0 0 -0.82 0.21c-0.43 0.22 -1 0.6 -1.47 0.88 0.15 -0.41 0.31 -0.88 0.4 -1.23a1.61 1.61 0 0 0 0.09 -0.74 4.49 4.49 0 0 0 -1 -1.19 6.8 6.8 0 0 0 1.51 -0.28A7.34 7.34 0 0 0 4 12.67l0.67 1.08a2 2 0 0 0 0.46 0.52 1.69 1.69 0 0 0 0.65 0.16l0.58 0a5.34 5.34 0 0 0 -0.62 0.66Z" fill="#020202" fill-rule="evenodd" stroke-width="1"></path>
    <path d="M23.92 14a0.86 0.86 0 0 0 -0.58 -0.36 12.17 12.17 0 0 0 -1.52 -0.13h-0.26c0 -0.08 -0.2 -0.21 -0.3 -0.36 -0.29 -0.45 -0.66 -1.06 -0.9 -1.36a1 1 0 0 0 -0.48 -0.37 0.54 0.54 0 0 0 -0.52 0.12 1.3 1.3 0 0 0 -0.24 0.3c-0.19 0.3 -0.52 0.91 -0.81 1.35 -0.11 0.17 -0.35 0.31 -0.28 0.38 -0.34 0.17 -1.37 0.26 -1.78 0.39a0.66 0.66 0 0 0 -0.51 0.44 0.73 0.73 0 0 0 0.26 0.6c0.33 0.28 1.18 0.88 1.29 1.19a4.42 4.42 0 0 1 -0.27 1.1c-0.14 0.5 -0.31 1 -0.39 1.29a0.3 0.3 0 0 0 0.55 0.24 0.34 0.34 0 0 0 0.29 0 17.66 17.66 0 0 1 2.08 -1.15h0.07c0.65 0.28 1.84 1.18 2.42 1.45a0.83 0.83 0 0 0 0.78 0 0.72 0.72 0 0 0 0.25 -0.72 20.73 20.73 0 0 0 -0.81 -2.24c0.1 0 0.17 -0.24 0.31 -0.36 0.35 -0.31 0.79 -0.63 1 -0.82a1.25 1.25 0 0 0 0.3 -0.33 0.59 0.59 0 0 0 0.05 -0.65Zm-2.44 1.31a1.15 1.15 0 0 0 -0.28 0.8c0 0.22 0.52 1.14 0.78 1.83a20.91 20.91 0 0 0 -2.15 -1.16A1.43 1.43 0 0 0 19 17c-0.43 0.22 -1 0.6 -1.47 0.88 0.15 -0.41 0.31 -0.88 0.4 -1.23a1.61 1.61 0 0 0 0.09 -0.74 4.34 4.34 0 0 0 -1 -1.19 6.8 6.8 0 0 0 1.51 -0.28 7.34 7.34 0 0 0 1.21 -1.55c0.22 0.35 0.47 0.78 0.67 1.08a2 2 0 0 0 0.46 0.52 1.69 1.69 0 0 0 0.65 0.16l0.58 0a4.67 4.67 0 0 0 -0.62 0.68Z" fill="#020202" fill-rule="evenodd" stroke-width="1"></path>
  </g>
</svg>