<svg xmlns="http://www.w3.org/2000/svg" viewBox="0 0 24 24" id="Rating-Star-Three--Streamline-Freehand">
  <desc>
    Rating Star Three Streamline Icon: https://streamlinehq.com
  </desc>
  <g>
    <path d="M16.54 11a0.73 0.73 0 0 0 0.25 -0.45 2.15 2.15 0 0 0 -0.09 -0.85c-0.27 -1 -1.07 -2.61 -1.1 -3l0.08 -0.11a2.91 2.91 0 0 1 0.24 -0.31 19.7 19.7 0 0 1 1.66 -1.43 1.51 1.51 0 0 0 0.36 -0.41 0.58 0.58 0 0 0 0 -0.56 1 1 0 0 0 -0.66 -0.42c-0.47 -0.1 -1.4 -0.13 -2.1 -0.18s-0.43 0.19 -0.8 -0.38S13.34 1.13 13 0.63a1.27 1.27 0 0 0 -0.55 -0.46 0.56 0.56 0 0 0 -0.55 0.14 1.66 1.66 0 0 0 -0.29 0.38c-0.27 0.45 -0.74 1.33 -1.15 2a2.25 2.25 0 0 1 -0.43 0.6 19.28 19.28 0 0 1 -2.6 0.58 0.77 0.77 0 0 0 -0.57 0.49 0.44 0.44 0 0 0 0.09 0.36l0.22 0.28c0.48 0.39 1.69 1.34 1.83 1.81a5.39 5.39 0 0 1 -0.29 1.35c-0.21 0.84 -0.5 1.84 -0.65 2.29a0.31 0.31 0 0 0 0.19 0.38 0.32 0.32 0 0 0 0.38 -0.19l0 -0.1a0.33 0.33 0 0 0 0.39 0c0.26 -0.18 0.76 -0.5 1.29 -0.82a17.1 17.1 0 0 1 1.59 -0.87c0.09 0 0.21 0 0.25 -0.07 0.9 0.4 2.61 1.72 3.44 2.12a1 1 0 0 0 0.95 0.1Zm-5.23 -2.71c-0.72 0.4 -1.79 1.09 -2.4 1.52 0.24 -0.71 0.53 -1.6 0.7 -2.24a2.46 2.46 0 0 0 0.12 -1 4.83 4.83 0 0 0 -1.07 -1.36l-0.6 -0.59a11.8 11.8 0 0 0 2.43 -0.48 12.25 12.25 0 0 0 1.8 -2.51c0.34 0.53 0.76 1.28 1.09 1.8a2.89 2.89 0 0 0 0.6 0.76 2.17 2.17 0 0 0 0.83 0.2l1.44 0.08c-0.25 0.21 -0.53 0.45 -0.78 0.69a2.5 2.5 0 0 0 -0.93 1.62c0 0.39 1 2.16 1.24 3.17 -0.95 -0.49 -2.62 -1.67 -3.44 -2a1.85 1.85 0 0 0 -1.03 0.34Z" fill="#020202" fill-rule="evenodd" stroke-width="1"></path>
    <path d="M10.46 16.26a16.65 16.65 0 0 0 -2.1 -0.18c-0.57 0 -0.44 0.18 -0.8 -0.39s-1 -1.75 -1.41 -2.24A1.29 1.29 0 0 0 5.6 13a0.56 0.56 0 0 0 -0.55 0.14 1.66 1.66 0 0 0 -0.29 0.38c-0.27 0.45 -0.74 1.33 -1.15 2a2.55 2.55 0 0 1 -0.43 0.61 21 21 0 0 1 -2.6 0.57 0.75 0.75 0 0 0 -0.57 0.49 0.46 0.46 0 0 0 0.09 0.37 2.78 2.78 0 0 0 0.25 0.25c0.48 0.39 1.65 1.34 1.85 1.81A5.31 5.31 0 0 1 1.91 21c-0.23 0.85 -0.53 1.82 -0.67 2.29a0.29 0.29 0 0 0 0.19 0.38 0.3 0.3 0 0 0 0.37 -0.19l0 -0.09a0.33 0.33 0 0 0 0.39 0c0.26 -0.18 0.76 -0.5 1.29 -0.81a15.33 15.33 0 0 1 1.59 -0.88c0.09 0 0.21 0 0.25 -0.06 0.89 0.4 2.6 1.71 3.43 2.11a1 1 0 0 0 0.93 0.05 0.71 0.71 0 0 0 0.25 -0.44 2.25 2.25 0 0 0 -0.1 -0.86c-0.26 -1 -1.06 -2.6 -1.09 -3 0 0 0.05 -0.06 0.08 -0.11a2.1 2.1 0 0 1 0.24 -0.3 20 20 0 0 1 1.66 -1.44 1.73 1.73 0 0 0 0.36 -0.41 0.55 0.55 0 0 0 0 -0.56 0.93 0.93 0 0 0 -0.62 -0.42ZM8.64 18a2.48 2.48 0 0 0 -0.92 1.62c0 0.39 1 2.16 1.24 3.17 -1 -0.49 -2.63 -1.67 -3.44 -2a1.9 1.9 0 0 0 -1 0.31 28.32 28.32 0 0 0 -2.4 1.51c0.24 -0.71 0.53 -1.6 0.7 -2.24a2.86 2.86 0 0 0 0.12 -1A4.71 4.71 0 0 0 1.84 18l-0.6 -0.59A12 12 0 0 0 3.67 17a12 12 0 0 0 1.8 -2.51c0.33 0.53 0.76 1.28 1.08 1.8a3 3 0 0 0 0.61 0.77 2.21 2.21 0 0 0 0.84 0.14c0.41 0 1 0.05 1.45 0.08 -0.28 0.21 -0.56 0.45 -0.81 0.72Z" fill="#020202" fill-rule="evenodd" stroke-width="1"></path>
    <path d="M23.92 16.57a1 1 0 0 0 -0.65 -0.42c-0.48 -0.1 -1.4 -0.13 -2.1 -0.18s-0.44 0.19 -0.8 -0.38 -1 -1.75 -1.41 -2.25a1.17 1.17 0 0 0 -0.55 -0.46 0.56 0.56 0 0 0 -0.55 0.14 1.66 1.66 0 0 0 -0.29 0.38c-0.28 0.44 -0.74 1.33 -1.15 2a2.25 2.25 0 0 1 -0.42 0.6 19.28 19.28 0 0 1 -2.6 0.58c-0.39 0.12 -0.55 0.35 -0.57 0.49a0.44 0.44 0 0 0 0.09 0.36 2.51 2.51 0 0 0 0.25 0.26c0.48 0.43 1.68 1.37 1.85 1.85a5.93 5.93 0 0 1 -0.29 1.35c-0.23 0.85 -0.53 1.81 -0.68 2.29a0.3 0.3 0 0 0 0.19 0.37 0.29 0.29 0 0 0 0.38 -0.19l0 -0.09a0.35 0.35 0 0 0 0.4 0c0.26 -0.18 0.76 -0.5 1.29 -0.82a17.1 17.1 0 0 1 1.59 -0.87c0.08 0 0.2 0 0.24 -0.07 0.9 0.4 2.61 1.72 3.44 2.12a0.93 0.93 0 0 0 0.92 0 0.65 0.65 0 0 0 0.26 -0.44 2.2 2.2 0 0 0 -0.1 -0.85c-0.26 -1 -1.06 -2.61 -1.09 -3 0 0 0 -0.07 0.08 -0.12s0.15 -0.19 0.24 -0.3c0.5 -0.53 1.28 -1.11 1.66 -1.44a1.56 1.56 0 0 0 0.36 -0.4 0.57 0.57 0 0 0 0.01 -0.51Zm-2.47 1.3a2.44 2.44 0 0 0 -0.92 1.62c0 0.39 1 2.16 1.24 3.17 -1 -0.49 -2.63 -1.67 -3.44 -2a1.85 1.85 0 0 0 -1 0.3c-0.73 0.4 -1.8 1.09 -2.4 1.51 0.24 -0.7 0.53 -1.59 0.7 -2.24a2.52 2.52 0 0 0 0.11 -1 4.46 4.46 0 0 0 -1.06 -1.37c-0.21 -0.22 -0.42 -0.42 -0.61 -0.59a13.63 13.63 0 0 0 2.44 -0.48 12.25 12.25 0 0 0 1.8 -2.51c0.33 0.53 0.76 1.28 1.08 1.8a3.07 3.07 0 0 0 0.61 0.76 2.16 2.16 0 0 0 0.82 0.2c0.41 0 1 0 1.45 0.08 -0.27 0.27 -0.57 0.51 -0.82 0.75Z" fill="#020202" fill-rule="evenodd" stroke-width="1"></path>
  </g>
</svg>