<svg xmlns="http://www.w3.org/2000/svg" viewBox="0 0 24 24" id="Read-Book-Blind-Braille-1--Streamline-Freehand">
  <desc>
    Read Book Blind Braille 1 Streamline Icon: https://streamlinehq.com
  </desc>
  <g>
    <path d="m16.87 18.84 -0.05 0s0.04 0.03 0.05 0Z" fill="#020202" fill-rule="evenodd" stroke-width="1"></path>
    <path d="m23.73 11.27 0 -1.12c0 -0.37 -0.55 -2.38 -0.55 -2.38a0.3 0.3 0 0 0 -0.4 0.06 19.41 19.41 0 0 0 -1.17 1.64c-0.33 0.5 -0.65 1 -0.95 1.52 -0.2 0.34 -0.38 0.68 -0.58 1 -0.28 0.51 -0.57 1 -0.84 1.52 -0.65 1.19 -1.24 2.41 -1.83 3.63a0.33 0.33 0 0 0 0.13 0.44 0.32 0.32 0 0 0 0.44 -0.13c0.7 -1.15 1.46 -2.27 2.17 -3.42 0.3 -0.49 0.59 -1 0.88 -1.5 0.16 -0.3 0.33 -0.61 0.49 -0.93 0.34 -0.72 0.65 -1.46 1 -2.18 0.05 -0.1 0.12 -0.19 0.17 -0.29l0 0.88a8 8 0 0 0 0 1.1 10.19 10.19 0 0 0 0.34 1.8c-0.55 0.82 -1.12 1.63 -1.67 2.46 -0.29 0.44 -0.57 0.89 -0.86 1.35s-0.54 0.91 -0.81 1.38c-0.57 1 -1.11 2 -1.65 3 0.18 -1.47 0.07 -2.45 -0.48 -3.06a1.09 1.09 0 0 0 -0.6 -0.28 8.35 8.35 0 0 0 -1.44 0c-0.62 0 -1.24 0 -1.87 0.06l-6 0.48a5.25 5.25 0 0 0 -1.28 0.44c0.18 -0.31 0.33 -0.62 0.52 -0.93 0.5 -0.81 1 -1.59 1.55 -2.38s1 -1.64 1.51 -2.55a20.53 20.53 0 0 1 1.59 -2.38 5.39 5.39 0 0 1 2.85 -2.08 8.74 8.74 0 0 1 1.53 -0.26c0.81 -0.08 1.64 -0.1 2.45 -0.19 0.63 0.03 1.27 -0.07 1.91 -0.11l1.28 0a0.32 0.32 0 0 0 0.33 -0.31 0.32 0.32 0 0 0 -0.3 -0.34l-1.33 0c-0.66 0 -1.31 0 -2 0.08 -1 0 -1.92 0 -2.88 0.08a9.53 9.53 0 0 0 -1.29 0.18 6.42 6.42 0 0 0 -3.46 2.38A16.11 16.11 0 0 0 9 12.43c-0.5 0.92 -0.92 1.84 -1.35 2.61s-1 1.65 -1.4 2.49c-0.3 0.57 -0.59 1.15 -0.84 1.74a3.54 3.54 0 0 0 -0.7 1.89 2 2 0 0 0 1.7 1.93 7.21 7.21 0 0 0 1.39 0.15c0.65 0 1.3 -0.07 1.95 -0.09 0.87 0 1.74 -0.08 2.61 -0.14s1.74 -0.14 2.61 -0.23c0.48 -0.05 1 -0.15 1.51 -0.2a4.25 4.25 0 0 1 0.94 0 0.32 0.32 0 1 0 0.09 -0.64 5.47 5.47 0 0 0 -0.82 -0.05c-0.6 0 -1.22 0.1 -1.79 0.13s-1.37 0.06 -2.06 0.08l-3.1 0 -1.92 0a5.2 5.2 0 0 1 -1.14 -0.1 1 1 0 0 1 -0.88 -0.91 1.57 1.57 0 0 1 0.68 -1.33 4.46 4.46 0 0 1 1.85 -0.73 33.08 33.08 0 0 1 7.17 -0.14c0.16 0 0.48 0 0.8 -0.06s0.38 -0.1 0.57 0c0.51 0.53 0.44 2.67 0.44 2.7a0.33 0.33 0 0 0 0.29 0.36s0.78 -0.07 0.84 -0.17c0.71 -1.06 1.46 -2.1 2.17 -3.17 0.46 -0.71 0.93 -1.43 1.36 -2.17 0.72 -1.24 1.33 -2.53 2 -3.82 0.18 -0.37 -0.24 -0.81 -0.24 -1.29Z" fill="#020202" fill-rule="evenodd" stroke-width="1"></path>
    <path d="M19.49 10.37a1.35 1.35 0 0 0 0.16 -0.8 0.62 0.62 0 0 0 -0.55 -0.41c-0.28 0 -1 0 -1 -0.05a11.87 11.87 0 0 0 -1.19 0.07c-0.89 0.11 -1.75 0.34 -2.64 0.42a0.69 0.69 0 0 0 -0.64 0.52l-0.65 1.11a1.62 1.62 0 0 1 -0.19 0.17 0.92 0.92 0 0 0 -0.17 0.27 0.55 0.55 0 0 0 0.12 0.54 1.15 1.15 0 0 0 0.71 0.39 6.47 6.47 0 0 0 1.24 0c0.52 0 1 -0.1 1.54 -0.18 0.77 -0.11 1.52 -0.27 2.29 -0.45a0.33 0.33 0 0 0 0.26 -0.38s0 -0.07 -0.06 -0.1c0.18 -0.33 0.57 -0.72 0.77 -1.12Zm-4.91 1.14 -0.91 0.07 0.45 -1.25a0.28 0.28 0 0 0 0 -0.2 0.22 0.22 0 0 0 0.11 0c0.66 0.06 1.31 0.07 2 0.07h0.95l0.93 0s0.37 -0.12 0.64 -0.16a0.42 0.42 0 0 1 -0.06 0.14c-0.15 0.36 -0.4 0.71 -0.52 1a0.25 0.25 0 0 0 0 0.17Z" fill="#4C57E6" fill-rule="evenodd" stroke-width="1"></path>
    <path d="M7.64 9a6.47 6.47 0 0 0 2.22 -0.62 7.49 7.49 0 0 0 1.39 -0.93 13.86 13.86 0 0 0 1.64 -1.77 0.33 0.33 0 1 0 -0.49 -0.43A13 13 0 0 1 11 6.53a6.17 6.17 0 0 1 -1.57 0.94 5.65 5.65 0 0 1 -1.52 0.38 9.76 9.76 0 0 1 -2.41 0l-0.31 0L6 6.84l0.42 0.16a2.29 2.29 0 0 0 0.64 0 2.2 2.2 0 0 0 0.66 -0.16 3 3 0 0 0 1.39 -1.27 1.78 1.78 0 0 0 0.14 -1.39 2.28 2.28 0 0 0 -0.75 -1c0.2 -0.37 0.41 -0.73 0.62 -1.1a5.89 5.89 0 0 1 1.72 0.74 9.25 9.25 0 0 1 1.23 0.9 3.65 3.65 0 0 1 0.61 0.74 0.33 0.33 0 0 0 0.44 0.14 0.32 0.32 0 0 0 0.13 -0.44 3.55 3.55 0 0 0 -0.67 -0.95 9.16 9.16 0 0 0 -1.25 -1.07 6.64 6.64 0 0 0 -3 -1.3 7.32 7.32 0 0 0 -3.25 0.23A8.84 8.84 0 0 0 0.16 5s-0.22 0.66 -0.13 0.77c0.23 0.28 0.45 0.57 0.69 0.84a5.58 5.58 0 0 0 0.56 0.53 9 9 0 0 0 4.09 1.75A8.66 8.66 0 0 0 7.64 9Zm-0.47 -5.56c-0.27 0.37 -0.53 0.75 -0.77 1.14s-0.4 0.64 -0.59 1a1 1 0 0 1 -0.32 -0.66 1.39 1.39 0 0 1 1.68 -1.48Zm1.11 1a0.84 0.84 0 0 1 -0.23 0.74 1.88 1.88 0 0 1 -0.75 0.61 1 1 0 0 1 -0.3 0.12h-0.25c0.34 -0.46 0.68 -0.92 1 -1.4 0.1 -0.16 0.19 -0.33 0.28 -0.49a1 1 0 0 1 0.25 0.45ZM1.2 6.11C1 5.88 0.72 5.63 0.49 5.38a0.23 0.23 0 0 0 0.15 -0.1 8.45 8.45 0 0 1 4.75 -3.16 7.58 7.58 0 0 1 2.8 -0.22l0.18 0c-0.22 0.26 -0.44 0.53 -0.65 0.8a3 3 0 0 0 -0.82 -0.21 1.7 1.7 0 0 0 -0.81 0.15 2.78 2.78 0 0 0 -1.45 2.29 1.92 1.92 0 0 0 0.64 1.46l-0.73 1.17 0 0.08a8 8 0 0 1 -2.84 -1.12 4 4 0 0 1 -0.51 -0.41Z" fill="#020202" fill-rule="evenodd" stroke-width="1"></path>
  </g>
</svg>