<svg xmlns="http://www.w3.org/2000/svg" viewBox="0 0 24 24" id="Real-Estate-Market-Calculator-House--Streamline-Freehand">
  <desc>
    Real Estate Market Calculator House Streamline Icon: https://streamlinehq.com
  </desc>
  <title>real-estate-market-calculator-house</title>
  <g>
    <path d="M17.86 16c-0.09 -0.9 -0.21 -1.8 -0.33 -2.69a0.35 0.35 0 0 0 -0.39 -0.33 0.34 0.34 0 0 0 -0.2 0.09c-0.88 -0.07 -1.74 -0.15 -2.62 -0.19l-1.13 0 -1.14 0c-0.75 0.07 -1.49 0.17 -2.24 0.26a16.5 16.5 0 0 0 -1.71 -1.69 23.84 23.84 0 0 0 -1.92 -1.53l-0.83 -0.58 0.41 0a4.9 4.9 0 0 0 0.77 0c0.27 0 0.51 -0.1 0.77 -0.14l0.78 -0.2a0.36 0.36 0 0 0 0.37 -0.35 0.37 0.37 0 0 0 -0.35 -0.38l-0.81 -0.08a7.43 7.43 0 0 0 -0.81 -0.09 4.33 4.33 0 0 0 -0.8 0 10.12 10.12 0 0 0 -1.55 0.42c-0.2 0 0.11 -0.13 -1.25 1.34 -0.4 0.48 -0.78 1 -1.17 1.45 -0.51 0.67 -1 1.35 -1.49 2C0 13.64 0 13.63 0 15c0 1.06 0.15 2.16 0.2 3.17l0 0.74a8.23 8.23 0 0 0 0 1.15 0.77 0.77 0 0 0 0.2 0.4 0.67 0.67 0 0 0 0.42 0.14l0.37 0h1.4l5.13 -0.21c5 -0.07 2.7 -0.1 7.42 -0.21l1.35 0.05a2.24 2.24 0 0 0 0.63 0 0.81 0.81 0 0 0 0.31 -0.21A2.1 2.1 0 0 0 17.9 19a6.71 6.71 0 0 0 0.1 -1.13c0 -0.62 -0.08 -1.23 -0.14 -1.87Zm-8.55 3.15 0 0.1 -1.42 0.05c-1.56 0 -5.09 0.19 -5.15 0.19l-1.47 0c0 -0.27 0.06 -0.59 0.05 -0.64l-0.09 -0.73c-0.1 -0.85 -0.3 -1.77 -0.39 -2.67a7.05 7.05 0 0 1 0 -1.59c0.45 -0.5 0.91 -1 1.37 -1.48s1.07 -1.08 1.62 -1.61a6.75 6.75 0 0 1 0.46 -0.65 2 2 0 0 1 0.39 0.19c0.34 0.19 0.66 0.44 0.94 0.62a15.35 15.35 0 0 1 2 1.3c1.47 1.19 1.3 1.15 1.4 1.67s0.17 1.16 0.23 1.74c0.07 0.9 0.1 1.8 0.15 2.68a4.94 4.94 0 0 1 -0.09 0.83Zm7.52 -1.33a9 9 0 0 1 -0.1 1 0.75 0.75 0 0 1 -0.05 0.16h-0.07l-1.35 0c-0.56 0 -1.1 0 -1.65 0.08 -1.1 0.11 -2.19 0.28 -3.3 0.36l0 -0.17a8.76 8.76 0 0 0 -0.07 -1c-0.11 -0.87 -0.2 -1.78 -0.32 -2.68 -0.08 -0.55 -0.17 -1.09 -0.29 -1.62 0.8 0.07 1.6 0.16 2.41 0.2h1.14l1.13 0c0.83 -0.06 1.66 -0.15 2.49 -0.22 0 0.75 0.06 1.49 0.07 2.24 0.03 0.49 0.01 1.07 -0.04 1.65Z" fill="#020202" fill-rule="evenodd" stroke-width="1"></path>
    <path d="M6.64 16a2.69 2.69 0 0 0 -2.11 -1.21 1.61 1.61 0 0 0 -1.58 1 3.89 3.89 0 0 0 -0.19 1.46A9.6 9.6 0 0 0 3 18.9c0.16 0.46 0.7 0.48 0.69 0a7.87 7.87 0 0 1 0 -1.31A3.23 3.23 0 0 1 4 16.27c0.15 -0.29 0.46 -0.29 0.74 -0.24a1.57 1.57 0 0 1 1 0.55 1.86 1.86 0 0 1 0.31 0.87c0.06 0.43 0.07 0.88 0.1 1.3a0.39 0.39 0 1 0 0.77 0 11.53 11.53 0 0 0 0.08 -1.7A2.67 2.67 0 0 0 6.64 16Z" fill="#4C57E6" fill-rule="evenodd" stroke-width="1"></path>
    <path d="M22.73 4.67a6 6 0 0 0 -2.59 -1.07 25.48 25.48 0 0 0 -7.14 0.19 4.86 4.86 0 0 0 -2 0.85 4.21 4.21 0 0 0 -1.4 2.72 3.21 3.21 0 0 0 1.1 3 4.44 4.44 0 0 0 2.19 0.81 21.27 21.27 0 0 0 3.19 0l3.57 -0.25c0.5 0 1.05 0 1.57 -0.06a2.85 2.85 0 0 0 1.19 -0.4A3.65 3.65 0 0 0 24 7.63a3.3 3.3 0 0 0 -1.27 -2.96ZM16 9.93a19.88 19.88 0 0 1 -3 0 3.3 3.3 0 0 1 -1.67 -0.53 2.14 2.14 0 0 1 -0.78 -2 3.22 3.22 0 0 1 1 -2.15 4.13 4.13 0 0 1 1.65 -0.77 13.69 13.69 0 0 1 2.95 -0.29l0.11 0c-0.07 0.68 -0.16 1.35 -0.2 2l0 1 0 1c0 0.57 0.1 1.15 0.15 1.72Zm7 -2.4a2.56 2.56 0 0 1 -1.18 1.93 1.91 1.91 0 0 1 -0.74 0.21c-0.49 0.05 -1 0 -1.49 0L17 9.86c0.06 -0.55 0.12 -1.11 0.15 -1.67l0 -1 0 -1c-0.06 -0.7 -0.18 -1.39 -0.28 -2.1a14.4 14.4 0 0 1 3.1 0.3 5.16 5.16 0 0 1 2.18 1 2.32 2.32 0 0 1 0.78 2.14Z" fill="#020202" fill-rule="evenodd" stroke-width="1"></path>
    <path d="m13.71 6.3 -0.32 0a1.22 1.22 0 0 0 -0.33 0c-1.16 0.15 -1.13 0.37 -1.14 0.47 0 0.34 1 0.66 1.06 0.68a1.28 1.28 0 0 0 0.34 0.06l0.34 0c1.1 -0.16 1.16 -0.32 1.17 -0.53s-0.05 -0.42 -1.12 -0.68Z" fill="#020202" fill-rule="evenodd" stroke-width="1"></path>
    <path d="M20.52 6.47c-0.25 -1.09 -0.34 -1.17 -0.52 -1.17s-0.32 0.11 -0.53 1.14c-1.32 0.22 -1.29 0.35 -1.3 0.52s0 0.37 1.3 0.62c0.2 1.08 0.26 1.26 0.56 1.26s0.37 -0.09 0.55 -1.27c1 -0.16 1.23 -0.15 1.26 -0.48s-0.12 -0.4 -1.32 -0.62Z" fill="#020202" fill-rule="evenodd" stroke-width="1"></path>
  </g>
</svg>