<svg xmlns="http://www.w3.org/2000/svg" viewBox="0 0 24 24" id="Real-Estate-Sign-Building-Sale--Streamline-Freehand">
  <desc>
    Real Estate Sign Building Sale Streamline Icon: https://streamlinehq.com
  </desc>
  <title>real-estate-sign-building-sale</title>
  <g>
    <path d="M15 7.82c0 -0.06 -0.06 0 -0.11 0s0.11 0.05 0.11 0Z" fill="none" stroke-width="1"></path>
    <path d="M14.74 8.12c0.06 0 0.06 -0.06 0 -0.13s-0.07 0.13 0 0.13Z" fill="none" stroke-width="1"></path>
    <path d="m13.09 8.11 1.61 -0.29a0.84 0.84 0 0 1 0 -0.1 7.87 7.87 0 0 0 0 -1 0.9 0.9 0 0 0 0 -0.24c-0.21 0.23 -1.15 0 -1.32 0a2.38 2.38 0 0 1 -0.44 0l0 0.62a3.17 3.17 0 0 1 0.15 1.01Z" fill="none" stroke-width="1"></path>
    <path d="M10.89 23.14a1.48 1.48 0 0 1 0 0.23 0.34 0.34 0 0 1 0 -0.17Z" fill="none" stroke-width="1"></path>
    <path d="M14.75 12s-0.01 0 0 0Z" fill="none" stroke-width="1"></path>
    <path d="M13 13.41c0 -0.06 -0.07 -0.13 -0.08 -0.08s0 0.1 0.1 0.11Z" fill="none" stroke-width="1"></path>
    <path d="M10.44 19a1.89 1.89 0 0 0 -0.25 -0.49 0.33 0.33 0 0 0 -0.23 -0.15 0.34 0.34 0 0 0 -0.22 0.07 2.47 2.47 0 0 0 -0.35 0.37 2.77 2.77 0 0 0 -0.5 1.1 5.86 5.86 0 0 0 -0.13 0.75l0.49 -0.15a4.43 4.43 0 0 1 0.63 0 5.17 5.17 0 0 1 0.86 0.22q0 -0.36 -0.06 -0.72a4.74 4.74 0 0 0 -0.24 -1Z" fill="none" stroke-width="1"></path>
    <path d="M14.64 13.46c0.06 0 0.07 0 0.07 -0.13l-0.05 0.08s-0.04 0.04 -0.02 0.05Z" fill="none" stroke-width="1"></path>
    <path d="M14.89 13.2c0 -0.09 -0.1 0 -0.16 0.1 0.1 0 0.18 -0.02 0.16 -0.1Z" fill="none" stroke-width="1"></path>
    <path d="M8.57 23.43s0 -0.05 -0.05 -0.06 0.02 0.07 0.05 0.06Z" fill="none" stroke-width="1"></path>
    <path d="M8.76 11.81c0 -0.09 -0.11 0 -0.19 0 0.09 0.07 0.2 0.07 0.19 0Z" fill="none" stroke-width="1"></path>
    <path d="M8.31 12.24c0.07 0 0.07 -0.08 0 -0.17 -0.04 0.08 -0.09 0.17 0 0.17Z" fill="none" stroke-width="1"></path>
    <path d="M8.33 11.17c0 -0.07 0 -0.11 -0.1 -0.09s0.02 0.06 0.1 0.09Z" fill="none" stroke-width="1"></path>
    <path d="m6.58 11.49 -0.07 0Z" fill="none" stroke-width="1"></path>
    <path d="M8.48 23.31Z" fill="none" stroke-width="1"></path>
    <path d="M6.87 12.31c0 0.09 0 0.16 0.1 0.15s-0.06 -0.12 -0.1 -0.15Z" fill="none" stroke-width="1"></path>
    <path d="m13 13.44 0.01 0.02 -0.01 -0.02z" fill="none" stroke-width="1"></path>
    <path d="M8.27 11.82a6.21 6.21 0 0 0 0.07 -0.64 3.64 3.64 0 0 0 -0.59 0l-0.55 0a0.32 0.32 0 0 1 -0.2 0.12c0.07 0.07 0 0.36 0 0.42a4.5 4.5 0 0 1 -0.1 0.45H7l1.28 -0.28Z" fill="none" stroke-width="1"></path>
    <path d="m12.74 12.18 -0.01 0 0.01 0z" fill="none" stroke-width="1"></path>
    <path d="m20.12 23.53 0.01 0.01 -0.01 -0.02 0 0.01z" fill="none" stroke-width="1"></path>
    <path d="m20.14 23.55 0 0.01 -0.01 -0.01 0.01 0z" fill="none" stroke-width="1"></path>
    <path d="m17.89 20.78 0.07 0h-0.15a0.47 0.47 0 0 1 -0.06 0.15l0.06 -0.05Z" fill="none" stroke-width="1"></path>
    <path d="M10.81 15.12Z" fill="none" stroke-width="1"></path>
    <path d="M10.75 4.35c0 0.05 0.08 0 0.11 -0.07 -0.07 0 -0.12 0.02 -0.11 0.07Z" fill="none" stroke-width="1"></path>
    <path d="m10.81 15.12 -0.06 0a0.33 0.33 0 0 1 0.06 0Z" fill="none" stroke-width="1"></path>
    <path d="m12.91 12.53 0 0.69a0.58 0.58 0 0 0 0 0.19 7.17 7.17 0 0 0 1.2 -0.22c0.07 0 0.32 0.07 0.5 0.08 0 -0.14 -0.08 -0.32 -0.08 -0.41s0.05 -0.38 0.08 -0.6a1.36 1.36 0 0 1 0 -0.17c-0.11 0 -0.25 -0.09 -0.31 -0.1l-1.54 -0.14a0.41 0.41 0 0 1 0 0.11c0.24 0.04 0.15 0.49 0.15 0.57Z" fill="none" stroke-width="1"></path>
    <path d="m12.42 12.16 0.01 0.01 -0.02 -0.01 0.01 0z" fill="none" stroke-width="1"></path>
    <path d="m12.45 12.18 0 0.01 -0.01 -0.02 0.01 0.01z" fill="none" stroke-width="1"></path>
    <path d="m12.7 12.2 0.01 -0.01 -0.01 0.01z" fill="none" stroke-width="1"></path>
    <path d="M4.51 12.15 4.79 15a0.31 0.31 0 0 0 0.33 0.28 0.32 0.32 0 0 0 0.28 -0.34l0.09 -2.85 0 -2.17c0 -0.32 -0.07 -0.66 -0.06 -1a1.54 1.54 0 0 1 0.06 -0.48s0 0.12 -0.07 0.09 0.46 -0.13 0.62 -0.16l3.33 -0.27a0.35 0.35 0 0 0 0.31 -0.38 0.35 0.35 0 0 0 -0.37 -0.32l-3.38 -0.07A3.54 3.54 0 0 0 5 7.5a1 1 0 0 0 -0.56 0.5 2.49 2.49 0 0 0 -0.16 0.87A9.3 9.3 0 0 0 4.35 10Z" fill="#4C57E6" stroke-width="1"></path>
    <path d="M10.81 15.12c0.11 0 0.08 -0.06 0 -0.11a0.09 0.09 0 0 1 0 0.11Z" fill="#020202" stroke-width="1"></path>
    <path d="M16.76 4.34a6.66 6.66 0 0 1 0.08 1c0.06 0.71 0.12 2.19 0.18 3.8 0.07 2.26 0.13 4.76 0.15 5.75a0.35 0.35 0 1 0 0.69 0c0 -1.14 0.08 -4.26 0.08 -6.72l0 -2.9a4.49 4.49 0 0 0 -0.16 -1.5A1.35 1.35 0 0 0 16.62 3a7 7 0 0 0 -0.93 -0.07l-1.29 0c-0.42 0 -0.84 0 -1.31 0.05 -0.68 0 -1.39 0.12 -1.93 0.19a4 4 0 0 0 -0.69 0.1 0.9 0.9 0 0 0 -0.37 0.19 0.66 0.66 0 0 0 -0.2 0.5l0 0.94c0 2.12 0.19 7 0.27 9.19l0 1a0.44 0.44 0 0 0 0.32 0.41 0.3 0.3 0 0 0 0.3 -0.31 0.33 0.33 0 0 0 -0.05 -0.12l0.06 0v-1c0 -2.21 0.13 -7.06 0.19 -9.17l0 -0.6h0.26c0.44 0 1 -0.1 1.56 -0.14s1.19 -0.09 1.59 -0.09l1.28 0a6.68 6.68 0 0 1 0.78 0 0.32 0.32 0 0 1 0.3 0.27Zm-5.9 -0.06s-0.09 0.12 -0.11 0.07 0 -0.07 0.11 -0.07Z" fill="#020202" stroke-width="1"></path>
    <path d="M12.37 6.4a7.14 7.14 0 0 0 -0.12 0.72 9.23 9.23 0 0 0 -0.17 1.13 0.83 0.83 0 0 0 0.2 0.56 1.38 1.38 0 0 0 1 0.33A12.85 12.85 0 0 0 14.84 9a4.77 4.77 0 0 0 0.5 0 0.89 0.89 0 0 0 0.33 -0.19 0.84 0.84 0 0 0 0.22 -0.43 2.83 2.83 0 0 0 0 -0.6 6.45 6.45 0 0 0 -0.11 -1.36 1.41 1.41 0 0 0 -0.41 -0.7 0.92 0.92 0 0 0 -0.65 -0.19 10.44 10.44 0 0 0 -1.38 0.26s-0.26 0 -0.29 0h-0.11a0.35 0.35 0 0 0 -0.35 0.34v0.06a0.27 0.27 0 0 0 -0.22 0.21ZM15 7.82l-0.11 0c-0.11 0 0.11 -0.06 0.11 0Zm-0.29 0.3c-0.07 0 0 -0.07 0 -0.13s0.09 0.14 0.03 0.13ZM13 6.5a2.38 2.38 0 0 0 0.44 0c0.17 0 1.11 0.24 1.32 0a0.9 0.9 0 0 1 0 0.24 7.87 7.87 0 0 1 0 1 0.84 0.84 0 0 0 0 0.1l-1.61 0.29a3.17 3.17 0 0 0 -0.13 -1C13 7 13 6.66 13 6.5Z" fill="#020202" stroke-width="1"></path>
    <path d="m8.79 13 -0.1 0 0.1 0Z" fill="#4C57E6" stroke-width="1"></path>
    <path d="M8.69 13c0 -0.16 0.49 -0.11 0.54 -0.15a0.6 0.6 0 0 0 0.23 -0.39 3.05 3.05 0 0 0 -0.06 -0.79 5.72 5.72 0 0 0 -0.18 -0.91 0.79 0.79 0 0 0 -0.42 -0.47 1.78 1.78 0 0 0 -0.76 0 6 6 0 0 0 -1.37 0.35c-0.2 0.1 -0.25 0.23 -0.24 0.34a0.24 0.24 0 0 0 -0.08 0.09 2.61 2.61 0 0 0 -0.1 0.69c0 0.15 -0.16 0.54 -0.17 0.8a0.65 0.65 0 0 0 0.21 0.5 0.67 0.67 0 0 0 0.33 0.14 2.49 2.49 0 0 0 0.54 0c0.32 0 0.63 0 0.93 -0.05a5.79 5.79 0 0 0 0.6 -0.15Zm-2.08 -1.51h-0.05l0.07 0Zm2.15 0.32c0 0.07 -0.1 0.07 -0.19 0 0.08 -0.01 0.18 -0.09 0.19 0Zm-0.45 0.43c-0.09 0 0 -0.09 0 -0.17 0.07 0.09 0.07 0.17 0 0.17Zm-0.08 -1.16c0.06 0 0.09 0 0.1 0.09s-0.17 -0.08 -0.1 -0.09ZM7 12.46c-0.08 0 -0.1 -0.06 -0.1 -0.15s0.1 0.13 0.1 0.15Zm0.06 -0.3h-0.19a4.5 4.5 0 0 0 0.1 -0.45l0 -0.42H7a0.32 0.32 0 0 0 0.23 -0.09l0.55 0a3.64 3.64 0 0 1 0.59 0 6.21 6.21 0 0 1 -0.07 0.64l0 0.06Z" fill="#4C57E6" stroke-width="1"></path>
    <path d="M14.2 14.36a5.48 5.48 0 0 0 0.91 0 0.8 0.8 0 0 0 0.58 -0.39 1.17 1.17 0 0 0 0.12 -0.48 5.32 5.32 0 0 0 0 -0.6 7.51 7.51 0 0 0 0 -1 1.07 1.07 0 0 0 -0.33 -0.65 0.73 0.73 0 0 0 -0.34 -0.17 3 3 0 0 0 -0.67 0l-1.69 0.06a0.35 0.35 0 0 0 -0.35 0.35 0.32 0.32 0 0 0 0 0.14 0.36 0.36 0 0 0 -0.15 0.28 4.71 4.71 0 0 0 -0.06 0.59c0 0.23 -0.1 0.55 -0.1 0.84a1.16 1.16 0 0 0 0.1 0.51 0.85 0.85 0 0 0 0.61 0.4 9.16 9.16 0 0 0 1.37 0.12Zm0.44 -0.9 0 -0.05 0.05 -0.08c0.02 0.09 0.01 0.15 -0.05 0.13Zm0.25 -0.26c0 0.08 -0.06 0.1 -0.16 0.1 0.06 -0.09 0.14 -0.19 0.16 -0.1Zm-0.14 -1.2Zm-1.86 -0.15 1.54 0.14c0.06 0 0.2 0.08 0.31 0.1a1.36 1.36 0 0 0 0 0.17c0 0.22 -0.07 0.44 -0.08 0.6s0.06 0.27 0.08 0.41c-0.18 0 -0.43 -0.08 -0.5 -0.08a7.17 7.17 0 0 1 -1.2 0.22c-0.08 0 -0.12 0 -0.1 -0.11s0 0 0.08 0.08a0.58 0.58 0 0 1 0 -0.19l0 -0.69c0 -0.19 0.11 -0.54 0 -0.54a0.41 0.41 0 0 0 -0.13 -0.08Zm-0.47 0.28Zm0 0Zm0.25 0Zm0 0Z" fill="#020202" stroke-width="1"></path>
    <path d="m12.99 13.43 0.01 0.01 -0.02 -0.03 0.01 0.02z" fill="#020202" stroke-width="1"></path>
    <path d="M14.38 2.44a0.31 0.31 0 0 0 0.62 -0.09c0 -0.23 0.16 -0.4 0.21 -0.65a1.24 1.24 0 0 0 0 -0.27 1.37 1.37 0 0 0 0 -0.29A4.91 4.91 0 0 0 15 0.43a0.35 0.35 0 0 0 -0.7 0c-0.06 0.22 -0.16 0.42 -0.22 0.66s0 0.2 0 0.3a1.05 1.05 0 0 0 0 0.31 2.54 2.54 0 0 0 0.3 0.74Z" fill="#020202" stroke-width="1"></path>
    <path d="M12 2.36a0.31 0.31 0 1 0 0.61 -0.09c0 -0.23 0.16 -0.4 0.21 -0.64a1.33 1.33 0 0 0 0 -0.28 2.64 2.64 0 0 0 0 -0.29c0 -0.26 -0.12 -0.48 -0.18 -0.71a0.35 0.35 0 0 0 -0.7 0c-0.06 0.22 -0.16 0.42 -0.22 0.66a1.57 1.57 0 0 0 -0.05 0.3 1.72 1.72 0 0 0 0 0.32 3 3 0 0 0 0.33 0.73Z" fill="#020202" stroke-width="1"></path>
    <path d="m5 19.5 -0.6 -0.23a0.68 0.68 0 0 1 0.08 -0.8 1.89 1.89 0 0 1 0.94 -0.74 1.16 1.16 0 0 1 0.37 0 1.84 1.84 0 0 1 0.42 0.09s0.18 0.18 0.26 0.2a0.32 0.32 0 0 0 0.39 -0.2 0.3 0.3 0 0 0 -0.12 -0.34c-0.07 0.06 -0.15 -0.18 -0.23 -0.22a2.56 2.56 0 0 0 -0.57 -0.2 2 2 0 0 0 -0.64 0 2.76 2.76 0 0 0 -1.75 1.2 1.57 1.57 0 0 0 -0.06 1.68 1.15 1.15 0 0 0 0.38 0.38 4.13 4.13 0 0 0 0.71 0.33 4.45 4.45 0 0 1 1.1 0.65c0.24 0.21 0.48 0.43 0.43 0.73a0.93 0.93 0 0 1 -0.48 0.62 2 2 0 0 1 -1 0.32 1.32 1.32 0 0 1 -0.29 0 0.91 0.91 0 0 1 -0.26 -0.13L4 22.68a0.36 0.36 0 0 0 -0.33 -0.23 0.44 0.44 0 0 0 -0.33 0.1 0.34 0.34 0 0 0 -0.05 0.52 2.33 2.33 0 0 0 0.35 0.27 1.5 1.5 0 0 0 0.45 0.27 2.08 2.08 0 0 0 0.52 0.11 3.08 3.08 0 0 0 1.7 -0.46 1.87 1.87 0 0 0 0.81 -1.09 1.75 1.75 0 0 0 -0.46 -1.56A4.79 4.79 0 0 0 5 19.5Z" fill="#020202" stroke-width="1"></path>
    <path d="m6.61 17.39 0.08 0s-0.05 0.01 -0.08 0Z" fill="#020202" stroke-width="1"></path>
    <path d="M11 17.62a1.41 1.41 0 0 0 -0.88 -0.44 1.34 1.34 0 0 0 -0.87 0.18 2.57 2.57 0 0 0 -0.75 0.72 3.63 3.63 0 0 0 -0.61 1.6 12.64 12.64 0 0 0 0 2.3l0.08 1.26a1.52 1.52 0 0 0 0.08 0.44 0.34 0.34 0 0 0 0.28 0.19 0.3 0.3 0 0 0 0.33 -0.28 0.41 0.41 0 0 0 0 -0.16l0 -0.06 0.06 0 0 -0.15L8.64 22l0 -0.61 0.53 0.18a4.44 4.44 0 0 0 0.63 0 4.8 4.8 0 0 0 0.91 -0.21 1.28 1.28 0 0 1 0 0.19l0 1.25a1.83 1.83 0 0 1 0 0.19l0 0.07 0 0.28a0.2 0.2 0 0 0 0 0.11c0 0.15 0.67 0.52 0.68 -0.12l0 -0.06 0 -0.46 0.08 -1.25a16.58 16.58 0 0 0 0 -1.73 5.63 5.63 0 0 0 -0.19 -1.22 2.69 2.69 0 0 0 -0.28 -0.99Zm-1.12 2.83a4.43 4.43 0 0 0 -0.63 0l-0.49 0.15a5.86 5.86 0 0 1 0.13 -0.75 2.77 2.77 0 0 1 0.5 -1.1 2.47 2.47 0 0 1 0.35 -0.37 0.34 0.34 0 0 1 0.22 -0.07 0.33 0.33 0 0 1 0.23 0.15 1.89 1.89 0 0 1 0.25 0.49 4.74 4.74 0 0 1 0.24 1q0 0.36 0.06 0.72a5.17 5.17 0 0 0 -0.86 -0.22Zm1 2.9a1.48 1.48 0 0 0 0 -0.23 0.34 0.34 0 0 0 0 0.23Z" fill="#020202" stroke-width="1"></path>
    <path d="M8.59 23.43c0.05 0 0 -0.05 -0.05 -0.09s0.03 0.07 0.05 0.09Z" fill="#020202" stroke-width="1"></path>
    <path d="M15.42 23c-0.08 -0.07 -0.34 0 -0.42 0a3.86 3.86 0 0 1 -0.77 0 0.53 0.53 0 0 1 -0.39 -0.15 0.64 0.64 0 0 1 -0.07 -0.27 5.54 5.54 0 0 1 0 -0.7l0 -2.91c0 -0.19 0.19 -1 0 -1.15a0.34 0.34 0 0 0 0.1 -0.13 0.3 0.3 0 0 0 -0.18 -0.39 0.37 0.37 0 0 0 -0.5 0.18 5.54 5.54 0 0 0 -0.31 1.39c-0.1 0.51 -0.2 1 -0.25 1.52a10.29 10.29 0 0 0 0 1.57 6.39 6.39 0 0 0 0.11 0.85 1.58 1.58 0 0 0 0.35 0.68 1.24 1.24 0 0 0 0.73 0.39 4 4 0 0 0 1.34 -0.12l0.46 0a0.49 0.49 0 0 0 0.33 -0.21 0.36 0.36 0 0 0 0 -0.4 0.35 0.35 0 0 0 -0.53 -0.15Z" fill="#020202" stroke-width="1"></path>
    <path d="M20.67 23.11a0.34 0.34 0 0 0 -0.46 0c-0.13 -0.06 -0.47 0.06 -0.56 0.06a8.15 8.15 0 0 1 -1.08 0 1.31 1.31 0 0 1 -0.55 -0.16c-0.06 0 -0.07 -0.1 -0.1 -0.16a2.59 2.59 0 0 1 -0.09 -0.4l-0.09 -1.31 0.24 0.06a1.29 1.29 0 0 0 0.21 0.07 1.12 1.12 0 0 0 0.32 0 2.72 2.72 0 0 0 0.56 -0.09l0.28 -0.08h0.16a0.15 0.15 0 0 0 0.15 0c1.08 -0.27 1.78 -0.9 -0.09 -0.67 -0.05 -0.08 -0.1 -0.11 -0.13 0l-0.36 -0.12a4.54 4.54 0 0 0 -0.53 -0.12 2.67 2.67 0 0 0 -0.56 0.06l-0.29 0.1 0 -1.54 0 -0.54a2.36 2.36 0 0 1 0.66 -0.24 4.91 4.91 0 0 1 0.77 -0.09l0.78 0a0.4 0.4 0 0 0 0.3 -0.15 0.28 0.28 0 0 0 0 -0.34 0.3 0.3 0 0 0 -0.36 -0.13c0 -0.18 -0.67 -0.06 -0.72 -0.06a5.57 5.57 0 0 0 -1.08 0 2.84 2.84 0 0 0 -0.76 0.2 1 1 0 0 0 -0.45 0.38 2.18 2.18 0 0 0 -0.26 0.91c0 0.33 -0.08 0.67 -0.09 1s0 0.67 0 1 0 0.79 0.08 1.18a7.25 7.25 0 0 0 0.16 0.81 2.72 2.72 0 0 0 0.29 0.75 1.3 1.3 0 0 0 0.52 0.46 2.6 2.6 0 0 0 0.92 0.18 10.46 10.46 0 0 0 1.19 -0.08 2.83 2.83 0 0 0 1 -0.25 0.36 0.36 0 0 0 0.02 -0.69Zm-2.86 -2.38H18l-0.07 0 -0.08 0 -0.06 0.05a0.47 0.47 0 0 0 0.02 -0.05Zm2.31 2.8Zm0 0Z" fill="#020202" stroke-width="1"></path>
  </g>
</svg>