<svg xmlns="http://www.w3.org/2000/svg" viewBox="0 0 24 24" id="Real-Estate-Sign-Board-Sale--Streamline-Freehand">
  <desc>
    Real Estate Sign Board Sale Streamline Icon: https://streamlinehq.com
  </desc>
  <title>real-estate-sign-board-sale</title>
  <g>
    <path d="M8.24 19.09Z" fill="none" stroke-width="1"></path>
    <path d="M10.64 18.93a1.28 1.28 0 0 1 0 0.22 0.34 0.34 0 0 1 0 -0.17Z" fill="none" stroke-width="1"></path>
    <path d="m8.33 19.21 0 -0.06s-0.03 0.07 0 0.06Z" fill="none" stroke-width="1"></path>
    <path d="M10.19 14.78a2 2 0 0 0 -0.25 -0.5 0.35 0.35 0 0 0 -0.22 -0.14 0.32 0.32 0 0 0 -0.22 0.07 1.75 1.75 0 0 0 -0.35 0.37 2.53 2.53 0 0 0 -0.5 1.09 6.18 6.18 0 0 0 -0.13 0.75l0.48 -0.15a4.43 4.43 0 0 1 0.63 0 5.17 5.17 0 0 1 0.86 0.22c0 -0.24 0 -0.48 -0.06 -0.71a4.59 4.59 0 0 0 -0.24 -1Z" fill="none" stroke-width="1"></path>
    <path d="m1.16 11 0.06 0a0.1 0.1 0 0 1 -0.06 0Z" fill="none" stroke-width="1"></path>
    <path d="M1.21 10.91s0 -0.04 0 0Z" fill="none" stroke-width="1"></path>
    <path d="M12.44 4a2.8 2.8 0 0 0 1.73 -0.39 0.87 0.87 0 0 0 0.39 -0.46 1.46 1.46 0 0 0 0 -0.7 1.93 1.93 0 0 0 -1 -1.36 2.48 2.48 0 0 0 -1.73 0c-0.39 0.1 -0.54 0.47 -0.63 0.83a2.42 2.42 0 0 0 0 1.3 1.29 1.29 0 0 0 1.24 0.78Z" fill="none" stroke-width="1"></path>
    <path d="m19.84 19.32 0 -0.02 0 0.01 0 0.01z" fill="none" stroke-width="1"></path>
    <path d="m19.86 19.34 -0.01 -0.01 0.01 0 0 0.01z" fill="none" stroke-width="1"></path>
    <path d="m17.62 16.57 0.07 0h-0.15a0.34 0.34 0 0 1 -0.07 0.15l0.07 -0.05Z" fill="none" stroke-width="1"></path>
    <path d="M5.35 18.37a2.12 2.12 0 0 1 -1 0.31 0.9 0.9 0 0 1 -0.29 0 1 1 0 0 1 -0.26 -0.12 0.59 0.59 0 0 1 -0.08 -0.08 0.35 0.35 0 0 0 -0.32 -0.23 0.46 0.46 0 0 0 -0.33 0.1 0.34 0.34 0 0 0 0 0.52 2.24 2.24 0 0 0 0.34 0.27 1.63 1.63 0 0 0 0.45 0.27 2.08 2.08 0 0 0 0.52 0.11A3.1 3.1 0 0 0 6.07 19a1.82 1.82 0 0 0 0.8 -1 1.71 1.71 0 0 0 -0.46 -1.55 4.77 4.77 0 0 0 -1.65 -1.1l-0.6 -0.23a0.68 0.68 0 0 1 0.08 -0.8 1.89 1.89 0 0 1 0.94 -0.74 1.14 1.14 0 0 1 0.37 0 2 2 0 0 1 0.42 0.09s-0.06 0 0 0 0.19 0.18 0.26 0.2a0.3 0.3 0 0 0 0.39 -0.19 0.31 0.31 0 0 0 -0.11 -0.34c-0.08 0.06 -0.15 -0.18 -0.24 -0.22a2.48 2.48 0 0 0 -0.56 -0.2 2 2 0 0 0 -0.64 0A2.83 2.83 0 0 0 3.27 14a1.59 1.59 0 0 0 -0.06 1.67 1.41 1.41 0 0 0 0.38 0.39 5 5 0 0 0 0.71 0.32 4.45 4.45 0 0 1 1.1 0.62c0.24 0.2 0.48 0.42 0.43 0.73a1 1 0 0 1 -0.48 0.64Z" fill="#020202" stroke-width="1"></path>
    <path d="m6.38 13.19 0.08 0s-0.06 0.01 -0.08 0Z" fill="#020202" stroke-width="1"></path>
    <path d="M11.44 15.66a5.54 5.54 0 0 0 -0.19 -1.22 2.84 2.84 0 0 0 -0.53 -1 1.38 1.38 0 0 0 -0.88 -0.44 1.43 1.43 0 0 0 -0.87 0.18 2.66 2.66 0 0 0 -0.74 0.72 3.59 3.59 0 0 0 -0.61 1.6 12.42 12.42 0 0 0 0 2.28L7.69 19a1.52 1.52 0 0 0 0.08 0.44 0.33 0.33 0 0 0 0.28 0.19 0.3 0.3 0 0 0 0.33 -0.28 0.29 0.29 0 0 0 0 -0.16l0 -0.06 0 -0.16 0.07 -1.2 0 -0.61 0.53 0.17a4.32 4.32 0 0 0 0.62 0.05 5.83 5.83 0 0 0 0.92 -0.21v0.19l0 1.24 0 0.19 0 0.07 0 0.28a0.2 0.2 0 0 0 0 0.11c0 0.15 0.66 0.52 0.67 -0.12v-0.06c0.09 0 0 -0.39 0 -0.46l0.07 -1.24a16.48 16.48 0 0 0 0.18 -1.71Zm-1.81 0.58a4.43 4.43 0 0 0 -0.63 0l-0.48 0.15a6.18 6.18 0 0 1 0.13 -0.75 2.53 2.53 0 0 1 0.5 -1.09 1.75 1.75 0 0 1 0.35 -0.37 0.32 0.32 0 0 1 0.22 -0.07 0.35 0.35 0 0 1 0.22 0.14 2 2 0 0 1 0.25 0.5 4.59 4.59 0 0 1 0.24 1c0 0.23 0.05 0.47 0.06 0.71a5.17 5.17 0 0 0 -0.86 -0.22Zm1 2.89a1.28 1.28 0 0 0 0 -0.22 0.34 0.34 0 0 0 0 0.22Z" fill="#020202" stroke-width="1"></path>
    <path d="M8.34 19.21c0.06 0 0 -0.05 0 -0.08Z" fill="#020202" stroke-width="1"></path>
    <path d="M13.34 13.17c-0.19 -0.09 -0.35 0 -0.5 0.18a5.51 5.51 0 0 0 -0.3 1.39c-0.1 0.5 -0.21 1 -0.26 1.51a11.6 11.6 0 0 0 0 1.56 5.08 5.08 0 0 0 0.12 0.86 1.48 1.48 0 0 0 0.34 0.67 1.24 1.24 0 0 0 0.73 0.39 4.06 4.06 0 0 0 1.34 -0.12l0.45 0a0.51 0.51 0 0 0 0.34 -0.21 0.4 0.4 0 0 0 0 -0.4 0.36 0.36 0 0 0 -0.47 -0.16c-0.08 -0.06 -0.35 0 -0.43 0a4.79 4.79 0 0 1 -0.76 0c-0.16 0 -0.31 0 -0.38 -0.15a0.5 0.5 0 0 1 -0.08 -0.27 5.54 5.54 0 0 1 0 -0.7l0 -2.9c0 -0.18 0.19 -1 0 -1.14a0.27 0.27 0 0 0 0.1 -0.13 0.3 0.3 0 0 0 -0.24 -0.38Z" fill="#020202" stroke-width="1"></path>
    <path d="M17.44 14a2.61 2.61 0 0 1 0.66 -0.24 5.18 5.18 0 0 1 0.78 -0.09l0.77 0a0.4 0.4 0 0 0 0.3 -0.15 0.28 0.28 0 0 0 0 -0.34 0.3 0.3 0 0 0 -0.35 -0.18c0 -0.18 -0.67 -0.06 -0.71 -0.06a5 5 0 0 0 -1.09 0 2.76 2.76 0 0 0 -0.75 0.19 0.94 0.94 0 0 0 -0.45 0.38 2.18 2.18 0 0 0 -0.26 0.9q-0.06 0.51 -0.09 1l0 1c0 0.33 0 0.79 0.08 1.18a7.73 7.73 0 0 0 0.16 0.81 2.78 2.78 0 0 0 0.29 0.74 1.23 1.23 0 0 0 0.52 0.46 2.6 2.6 0 0 0 0.92 0.18 10.43 10.43 0 0 0 1.18 -0.08 2.83 2.83 0 0 0 1 -0.25 0.35 0.35 0 0 0 0 -0.56 0.33 0.33 0 0 0 -0.45 0c-0.13 -0.06 -0.47 0.06 -0.56 0.06a10.14 10.14 0 0 1 -1.08 0 1.49 1.49 0 0 1 -0.54 -0.17 0.25 0.25 0 0 1 -0.1 -0.15 1.87 1.87 0 0 1 -0.09 -0.41l-0.09 -1.3a1.36 1.36 0 0 1 0.24 0.06l0.2 0.07a1.16 1.16 0 0 0 0.32 0 2.72 2.72 0 0 0 0.56 -0.09l0.28 -0.08 0.16 0a0.15 0.15 0 0 0 0.15 0c1.08 -0.27 1.78 -0.9 -0.08 -0.67 -0.06 -0.08 -0.11 -0.11 -0.14 0L18.8 16a3.3 3.3 0 0 0 -0.52 -0.13 3.55 3.55 0 0 0 -0.56 0.06l-0.3 0.1 0 -1.54Zm2.42 5.39Zm0 0Zm-2.3 -2.8h0.15l-0.07 0 -0.08 0.05 -0.07 0.05a0.34 0.34 0 0 0 0.05 -0.17Z" fill="#020202" stroke-width="1"></path>
    <path d="M1.24 10.89s0.05 -0.05 0 -0.06Z" fill="#020202" stroke-width="1"></path>
    <path d="M23.45 10.66a1.22 1.22 0 0 0 -0.55 -0.66 5.38 5.38 0 0 0 -1.73 -0.4 20.47 20.47 0 0 0 -2.22 0l-0.09 -0.16 -0.29 -0.94A10.27 10.27 0 0 0 18 7.06a7 7 0 0 0 -0.85 -1.21l-1 -1.1a0.3 0.3 0 0 0 -0.42 -0.07 0.31 0.31 0 0 0 -0.07 0.43l0.71 1.32 1.29 2.37 0.4 0.74h-0.68l-11.33 0.14 0.59 -0.68c0.3 -0.38 0.63 -0.73 0.93 -1.11s0.56 -0.81 0.83 -1.21l1.25 -1.9a0.35 0.35 0 0 0 -0.53 -0.45L7.51 6.08c-0.34 0.48 -0.72 0.92 -1 1.41 -0.21 0.34 -0.39 0.69 -0.58 1l-0.49 0.86a0.88 0.88 0 0 1 -0.18 0.21s-0.06 0.05 -0.06 0.07l-3 0a0.35 0.35 0 0 0 -0.35 0.35 0.34 0.34 0 0 0 0.35 0.34l15.25 0.1 3.18 0a5.46 5.46 0 0 1 1.82 0.34 4.63 4.63 0 0 1 0.21 0.8 27.82 27.82 0 0 1 0.14 5 27.23 27.23 0 0 1 -0.58 4.91 3 3 0 0 1 -0.31 0.85l-0.06 0a19.94 19.94 0 0 1 -2.78 0.3l-3.53 0.05c-1.83 0.1 -3.76 0.18 -5.68 0.18 -1.27 0 -2.54 0 -3.76 -0.15 -0.85 -0.06 -1.94 0 -2.93 -0.15a4.2 4.2 0 0 1 -1.7 -0.46 0.7 0.7 0 0 1 -0.25 -0.27 5 5 0 0 1 -0.22 -0.77 27.18 27.18 0 0 1 0 -3.41c0.07 -2.08 0.21 -4.44 0.29 -5.29v-1.29l0 -0.14 -0.06 0a0.1 0.1 0 0 0 0.05 0s0 -0.06 0 -0.06a0.28 0.28 0 0 0 0.05 -0.27 0.3 0.3 0 0 0 -0.38 -0.2 0.41 0.41 0 0 0 -0.25 0.22 1.59 1.59 0 0 0 -0.06 0.45v1.22c-0.12 1 -0.34 4 -0.45 6.21a18.44 18.44 0 0 0 0 2.77 6.61 6.61 0 0 0 0.22 1 1.47 1.47 0 0 0 0.57 0.66 4.18 4.18 0 0 0 1.54 0.55c1.12 0.22 2.46 0.21 3.46 0.31 1.24 0.13 2.54 0.2 3.84 0.23 1.93 0 3.89 0 5.74 -0.09l3.55 0c0.39 0 1.8 -0.1 2.65 -0.25a1.92 1.92 0 0 0 0.93 -0.38 3.79 3.79 0 0 0 0.69 -1.68 32 32 0 0 0 0.55 -6.17 17.68 17.68 0 0 0 -0.48 -4.78Z" fill="#020202" stroke-width="1"></path>
    <path d="M11.87 5a3.71 3.71 0 0 0 2.79 -0.68 1.66 1.66 0 0 0 0.63 -0.93 2.22 2.22 0 0 0 0 -1A2.66 2.66 0 0 0 14 0.37a3.46 3.46 0 0 0 -2.34 -0.3 1.89 1.89 0 0 0 -1.38 1.17 3.59 3.59 0 0 0 -0.08 2.43A2.22 2.22 0 0 0 11.87 5Zm-0.63 -3.06c0.09 -0.36 0.24 -0.73 0.63 -0.83a2.48 2.48 0 0 1 1.73 0 1.93 1.93 0 0 1 1 1.36 1.46 1.46 0 0 1 0 0.7 0.87 0.87 0 0 1 -0.39 0.46 2.8 2.8 0 0 1 -1.77 0.37 1.29 1.29 0 0 1 -1.18 -0.79 2.42 2.42 0 0 1 -0.02 -1.28Z" fill="#4C57E6" stroke-width="1"></path>
  </g>
</svg>