<svg xmlns="http://www.w3.org/2000/svg" viewBox="0 0 24 24" id="Real-Estate-Message-Building-1--Streamline-Freehand">
  <desc>
    Real Estate Message Building 1 Streamline Icon: https://streamlinehq.com
  </desc>
  <title>real-estate-message-building-1</title>
  <g>
    <path d="M14.33 7.06c-0.07 0 0 0.05 0 0.11s0.04 -0.11 0 -0.11Z" fill="none" stroke-width="1"></path>
    <path d="m13.48 7.32 -0.09 0 0 0.31 0 0.55 0.06 0 0.78 0a1.59 1.59 0 0 1 0 -0.23l0.06 -0.52 -0.76 -0.12Z" fill="none" stroke-width="1"></path>
    <path d="M14.21 8.4c0.07 0 0.07 -0.05 0.06 -0.15 -0.07 0.06 -0.13 0.14 -0.06 0.15Z" fill="none" stroke-width="1"></path>
    <path d="M13.64 11.39s0.02 0 0 0Z" fill="none" stroke-width="1"></path>
    <path d="m13.57 11.51 0.06 0a0.22 0.22 0 0 1 -0.06 0Z" fill="none" stroke-width="1"></path>
    <path d="M13.43 12.67c0 0.05 0.05 0 0.1 0s-0.1 -0.05 -0.1 0Z" fill="none" stroke-width="1"></path>
    <path d="M16.23 4.43s0 -0.09 -0.05 -0.08 0 0 0 0.06Z" fill="none" stroke-width="1"></path>
    <path d="m12.22 3.7 -0.07 0a0.32 0.32 0 0 1 -0.27 0 0.27 0.27 0 0 0 0.34 0Z" fill="none" stroke-width="1"></path>
    <path d="m14.7 11.5 0.11 0.05a0.09 0.09 0 0 0 -0.11 -0.05Z" fill="none" stroke-width="1"></path>
    <path d="m10.82 7.74 0.01 0 -0.01 0z" fill="none" stroke-width="1"></path>
    <path d="m13.3 8.22 0.07 0c0.07 0 -0.07 -0.05 -0.07 0Z" fill="none" stroke-width="1"></path>
    <path d="M8 11a0.38 0.38 0 0 1 0 0.15 0.16 0.16 0 0 0 0 -0.15Z" fill="none" stroke-width="1"></path>
    <path d="M7 15.93a10.84 10.84 0 0 0 2.19 0.12 9.44 9.44 0 0 0 2 -0.23 3.34 3.34 0 0 1 0.06 -1l0 -1.49 -0.12 -3.43a4 4 0 0 0 0 -0.69c0 -0.08 0 -0.17 -0.12 -0.21a1.89 1.89 0 0 0 -0.77 -0.17 5.8 5.8 0 0 0 -0.94 0L8 9l-0.91 0 0 0.74 0 3.85C7 14.53 7 15.38 7 15.93ZM9.6 14a7.93 7.93 0 0 1 -0.83 0.25 0.71 0.71 0 0 1 -0.29 0 1.57 1.57 0 0 1 -0.29 -0.08c-0.12 -0.05 -0.35 -0.07 -0.48 -0.21s-0.26 -0.19 -0.25 -0.35a0.31 0.31 0 0 1 0.23 -0.37 0.29 0.29 0 0 1 0.35 0.19s0 -0.09 0 -0.1 0.14 -0.09 0.19 -0.11 0.17 -0.07 0.27 -0.09a1.31 1.31 0 0 1 0.28 0 4.18 4.18 0 0 1 0.86 0.22 0.35 0.35 0 0 1 0.35 0.34 0.35 0.35 0 0 1 -0.39 0.31Zm-2.12 -3.2a0.32 0.32 0 0 1 0.33 0s0.49 -0.09 0.52 -0.09a2.07 2.07 0 0 1 0.22 0 1.29 1.29 0 0 1 0.34 0 7.37 7.37 0 0 1 0.9 0.22 0.35 0.35 0 0 1 0 0.69 7.79 7.79 0 0 1 -0.92 0.24 1.28 1.28 0 0 1 -0.39 0l-0.26 -0.08s-0.42 -0.21 -0.57 -0.3c-0.37 -0.33 -0.25 -0.65 -0.17 -0.68Z" fill="none" stroke-width="1"></path>
    <path d="M7.94 10.92a0.15 0.15 0 0 0 -0.09 -0.12l0.05 0a0.16 0.16 0 0 1 0.04 0.12Z" fill="none" stroke-width="1"></path>
    <path d="M22.73 1.8c0.07 0.13 0.16 0.26 0.19 0.12s-0.06 -0.1 -0.19 -0.12Z" fill="none" stroke-width="1"></path>
    <path d="M6.93 18.43s-0.08 0 -0.09 0.13 0.16 -0.12 0.09 -0.13Z" fill="none" stroke-width="1"></path>
    <path d="m14.77 12.51 0.11 0c-0.01 0 -0.06 -0.05 -0.11 0Z" fill="none" stroke-width="1"></path>
    <path d="m6.46 18.57 0.01 0 -0.02 -0.02 0.01 0.02z" fill="none" stroke-width="1"></path>
    <path d="M14.6 12.8c0.05 0 0 -0.07 0 -0.15s-0.08 0.14 0 0.15Z" fill="none" stroke-width="1"></path>
    <path d="m6.44 18.53 0.01 0.02 -0.02 -0.02 0.01 0z" fill="none" stroke-width="1"></path>
    <path d="m6.48 18.59 -0.01 -0.01 0.01 0.01z" fill="none" stroke-width="1"></path>
    <path d="m13.63 11.41 -0.01 0 0 0.01 0 0.01 0.01 -0.01 0 -0.01z" fill="none" stroke-width="1"></path>
    <path d="m14.81 11.56 -0.01 0 0.01 0z" fill="none" stroke-width="1"></path>
    <path d="M14.81 11.56a0.37 0.37 0 0 1 -0.11 -0.05l-0.11 0 -0.63 0 -0.3 0 0.09 0.74 0 0.36 0.75 -0.13h0.09a4.83 4.83 0 0 0 0.22 -0.92Z" fill="none" stroke-width="1"></path>
    <path d="M6.2 13c0.08 1.3 0.17 2.6 0.25 3.23a0.33 0.33 0 0 0 0.23 0.3 11.15 11.15 0 0 0 2.56 0.29 8.62 8.62 0 0 0 2.63 -0.29 0.57 0.57 0 0 0 0.34 -0.45 7.23 7.23 0 0 0 0 -1.29l0 -1.49V9.9a3.08 3.08 0 0 0 -0.18 -1.35 1.29 1.29 0 0 0 -0.6 -0.6 2.71 2.71 0 0 0 -0.68 -0.21c0 -0.11 0.08 -0.27 0.08 -0.33l0 -0.81a0.49 0.49 0 0 1 0.17 -0.3 0.65 0.65 0 0 1 0.24 -0.15c0.21 -0.09 0.44 -0.15 0.61 -0.21l0.93 -0.39 2.53 -0.72c0.21 0 0.45 -0.14 0.68 -0.2a1.09 1.09 0 0 1 0.24 0 0.33 0.33 0 0 0 0 0.1c0 0.2 0.1 2.74 0.23 5.38 0.1 2 0.25 4.15 0.33 5.29a14.45 14.45 0 0 1 -3.75 0.27 0.35 0.35 0 0 0 -0.36 0.33 0.33 0.33 0 0 0 0.32 0.36 19.43 19.43 0 0 0 3.58 0 2 2 0 0 0 0.87 -0.29 0.62 0.62 0 0 0 0.25 -0.52c0 -1.28 -0.06 -4.1 -0.13 -6.56 -0.08 -2.28 -0.2 -4.26 -0.24 -4.44a2.6 2.6 0 0 0 -0.05 -0.39 0.86 0.86 0 0 0 -0.16 -0.35 0.68 0.68 0 0 0 -0.31 -0.23 1.35 1.35 0 0 0 -0.49 0 2.06 2.06 0 0 0 -0.48 0.07c-0.28 0.07 -0.57 0.2 -0.81 0.28l-0.28 0.07c0 -0.11 0.08 -0.2 0.1 -0.31a1.55 1.55 0 0 0 0 -0.31 4.87 4.87 0 0 0 -0.1 -0.65l-0.15 -0.54a0.35 0.35 0 0 0 -0.35 -0.35 0.35 0.35 0 0 0 -0.34 0.35l-0.12 0.54a4.37 4.37 0 0 0 -0.11 0.63 1.17 1.17 0 0 0 0 0.32 2 2 0 0 0 0.1 0.32c0 0.07 0 0.19 0.08 0.3l-1.43 0.51 -0.14 0.07a0.27 0.27 0 0 0 -0.16 -0.1l0.11 0a0.06 0.06 0 0 0 0.06 0c0.07 0 0.1 -0.11 0.13 -0.22a1.36 1.36 0 0 0 0.08 -0.32 1.24 1.24 0 0 0 -0.05 -0.41c0 -0.06 -0.09 -0.41 -0.18 -0.4a0.38 0.38 0 0 0 0 -0.18c0 -0.12 -0.14 -0.14 -0.17 -0.17s-0.36 -0.09 -0.52 0.32c0 0.09 -0.09 0.37 -0.11 0.43a1.77 1.77 0 0 0 -0.11 0.39 1.36 1.36 0 0 0 0.12 0.49 1.75 1.75 0 0 0 0.22 0.39l-0.17 0.09a4.91 4.91 0 0 0 -0.8 0.34 1.13 1.13 0 0 0 -0.36 0.32 1 1 0 0 0 -0.18 0.55c0 0.31 0.06 0.67 0 0.89a3.57 3.57 0 0 0 0 0.37 6.46 6.46 0 0 0 -1.09 0l-1.34 0.21c-0.31 0 -0.61 0 -0.9 0.06a1.59 1.59 0 0 0 -0.55 0.17 0.58 0.58 0 0 0 -0.23 0.21 2 2 0 0 0 -0.1 0.52l0 0.95c0.01 0.64 0.13 1.94 0.21 3.22Zm10 -8.59s-0.06 0 0 -0.06 0.03 0.03 0.03 0.08Zm-4.08 -0.69 0.07 0a0.27 0.27 0 0 1 -0.34 0 0.32 0.32 0 0 0 0.3 0.02ZM7 9.78l0 -0.74 0.91 0 1.31 -0.17a5.8 5.8 0 0 1 0.94 0A1.89 1.89 0 0 1 11 9c0.09 0 0.1 0.13 0.12 0.21a4 4 0 0 1 0 0.69l0.09 3.43 0 1.49a3.34 3.34 0 0 0 -0.06 1 9.44 9.44 0 0 1 -2 0.23A10.84 10.84 0 0 1 7 15.93l0 -2.3 0 -3.85Z" fill="#020202" stroke-width="1"></path>
    <path d="M13.06 6.7a0.33 0.33 0 0 0 -0.06 0.1c-0.11 0 -0.22 0.09 -0.28 0.29a4 4 0 0 0 -0.06 0.57c0 0.23 -0.09 0.48 -0.1 0.72a1.34 1.34 0 0 0 0.09 0.46 0.53 0.53 0 0 0 0.27 0.28 1.29 1.29 0 0 0 0.56 0.12c0.23 0 0.61 0.09 0.92 0.08a1.31 1.31 0 0 0 0.6 -0.19 0.74 0.74 0 0 0 0.31 -0.48 4 4 0 0 0 0 -0.59l0 -0.79a1.5 1.5 0 0 0 0 -0.35 0.6 0.6 0 0 0 -0.15 -0.29 0.53 0.53 0 0 0 -0.29 -0.14c-0.1 0 -0.44 -0.08 -0.43 0l-0.87 0a0.68 0.68 0 0 0 -0.51 0.21Zm0.24 1.52c0 -0.05 0 0 0.07 0s-0.07 0.03 -0.07 0Zm0.91 0.18c-0.07 0 0 -0.09 0.06 -0.15 0.01 0.1 0.01 0.17 -0.06 0.15Zm0.12 -1.34 0 0.11c0 0.05 -0.07 -0.11 0 -0.11Zm-0.11 0.87a1.59 1.59 0 0 0 0 0.23l-0.78 0 -0.06 0 0 -0.55 0 -0.31 0.09 0 0.76 0.12Z" fill="#020202" stroke-width="1"></path>
    <path d="m14.81 11.56 -0.11 -0.05a0.37 0.37 0 0 0 0.11 0.05Z" fill="#020202" stroke-width="1"></path>
    <path d="M15.66 11.22a0.84 0.84 0 0 0 -0.43 -0.5 1.21 1.21 0 0 0 -0.48 -0.1 6.63 6.63 0 0 0 -0.79 0.07l-0.23 0 -0.21 0a0.34 0.34 0 0 0 -0.39 0.32 0.28 0.28 0 0 0 0 0.09 0.27 0.27 0 0 0 -0.07 0.08 1 1 0 0 0 -0.07 0.33l-0.05 0.74 -0.11 0.61 0 0.35a0.5 0.5 0 0 0 0.15 0.31 0.65 0.65 0 0 0 0.41 0.18 3.7 3.7 0 0 0 0.49 0l0.76 -0.05 0.48 0a0.9 0.9 0 0 0 0.45 -0.24 0.73 0.73 0 0 0 0.18 -0.3 2.32 2.32 0 0 0 0 -0.59 4.63 4.63 0 0 0 -0.09 -1.3Zm-2.23 1.45c0 -0.05 0.05 0 0.1 0s-0.1 0.05 -0.1 0Zm0.32 -0.08 0 -0.36 -0.09 -0.74 -0.06 0a0.22 0.22 0 0 0 0 -0.08l0.3 0 0.63 0 0.11 0a0.09 0.09 0 0 1 0.11 0.06 4.83 4.83 0 0 1 -0.22 0.91h-0.03Zm0.85 0.21c-0.08 0 0 -0.09 0 -0.15s0.05 0.15 0 0.15Zm0.17 -0.29c0.05 0 0.11 -0.09 0.11 0s-0.04 0.01 -0.11 0Z" fill="#020202" stroke-width="1"></path>
    <path d="M13.65 11.43Z" fill="#020202" stroke-width="1"></path>
    <path d="M24 5.32a21.17 21.17 0 0 0 -0.27 -4.15 0.76 0.76 0 0 0 -0.52 -0.38 10 10 0 0 0 -1.29 -0.16C19.56 0.45 14.43 0.29 9.84 0.33a51.92 51.92 0 0 0 -8.11 0.52 1.67 1.67 0 0 0 -1.14 0.6C0.29 2 0.08 4.86 0 8c-0.08 4.26 0.07 9.13 0.34 9.73a1.65 1.65 0 0 0 1.3 0.71 17 17 0 0 0 2.77 0 7.91 7.91 0 0 0 1.28 -0.08 0.43 0.43 0 0 0 0.36 -0.4 0.35 0.35 0 0 0 -0.35 -0.35 0.37 0.37 0 0 0 -0.2 0.07c-0.1 -0.24 -1 0.06 -1.09 0.06a21.56 21.56 0 0 1 -2.3 0 3.16 3.16 0 0 1 -0.82 -0.15c-0.12 -0.05 -0.22 -0.09 -0.26 -0.18a49.64 49.64 0 0 1 -0.18 -7.8C1 6.2 1.12 2.77 1.43 2a5.59 5.59 0 0 1 0.92 -0.23 48.48 48.48 0 0 1 5.27 -0.3c4.87 -0.08 11.14 0.11 14 0.33l1.09 0a31 31 0 0 1 0.14 3.53l0 9.17a19.48 19.48 0 0 1 -0.05 2.32 3.14 3.14 0 0 1 -0.16 0.79 0.44 0.44 0 0 1 -0.15 0.23 8.67 8.67 0 0 1 -3 0.37c-2.45 0 -5.52 -0.17 -6.93 -0.18a2.15 2.15 0 0 0 -1 0.18c-0.38 0.37 -1.23 1.23 -2.08 2.19A20.2 20.2 0 0 0 8.09 22c-0.07 0.1 -0.89 0.49 -1.11 0.82a3.82 3.82 0 0 1 -0.07 -0.88c0 -0.82 0.08 -1.76 0.08 -2.16 0 -0.15 -0.16 -0.77 -0.16 -1.1a0.3 0.3 0 0 0 0.17 -0.42 0.33 0.33 0 0 0 -0.46 -0.26 0.34 0.34 0 0 0 -0.21 0.31l0 1.4c0 0.47 -0.14 1.64 -0.1 2.54a2.16 2.16 0 0 0 0.34 1.24 0.62 0.62 0 0 0 0.8 0 6.79 6.79 0 0 0 1.3 -1.09c0.38 -0.49 0.82 -1 1.27 -1.5 0.8 -0.86 1.6 -1.64 2 -2a4.43 4.43 0 0 1 0.55 0c1.41 0 4.48 0.3 7 0.3a9.25 9.25 0 0 0 3.49 -0.42 1.86 1.86 0 0 0 0.82 -1.37 18.16 18.16 0 0 0 0.16 -2.87c-0.04 -1.8 0.04 -6.03 0.04 -9.22ZM6.93 18.43c0.1 0 0 0.09 -0.09 0.13s0.04 -0.14 0.09 -0.13Zm-0.49 0.1Zm0 0Zm0 0ZM22.73 1.8c0.13 0 0.21 0.05 0.19 0.12s-0.12 0.01 -0.19 -0.12Z" fill="#020202" stroke-width="1"></path>
    <path d="M7.64 11.38c0.15 0.09 0.53 0.28 0.57 0.3l0.26 0.08a1.28 1.28 0 0 0 0.39 0 7.79 7.79 0 0 0 0.92 -0.24 0.35 0.35 0 0 0 0 -0.69 7.37 7.37 0 0 0 -0.9 -0.22 1.29 1.29 0 0 0 -0.34 0 2.07 2.07 0 0 0 -0.22 0s-0.53 -0.06 -0.52 0.09a0.32 0.32 0 0 0 -0.33 0c-0.07 0.13 -0.19 0.45 0.17 0.68ZM8 11a0.16 0.16 0 0 1 0 0.15 0.38 0.38 0 0 0 0 -0.15Zm0 -0.06a0.16 0.16 0 0 0 0 -0.07l-0.05 0a0.15 0.15 0 0 1 -0.01 0.05Z" fill="#4C57E6" stroke-width="1"></path>
    <path d="M9.6 13.31a4.18 4.18 0 0 0 -0.86 -0.22 1.31 1.31 0 0 0 -0.28 0c-0.1 0 -0.17 0.06 -0.27 0.09s-0.19 0 -0.19 0.11l0 0.1a0.29 0.29 0 0 0 -0.35 -0.19 0.31 0.31 0 0 0 -0.23 0.37c0 0.16 0.13 0.24 0.25 0.35s0.36 0.16 0.48 0.21a1.57 1.57 0 0 0 0.29 0.08 0.71 0.71 0 0 0 0.29 0A7.93 7.93 0 0 0 9.6 14a0.35 0.35 0 0 0 0.35 -0.35 0.35 0.35 0 0 0 -0.35 -0.34Z" fill="#4C57E6" stroke-width="1"></path>
  </g>
</svg>