<svg xmlns="http://www.w3.org/2000/svg" viewBox="0 0 24 24" id="Real-Estate-Action-Building-Star--Streamline-Freehand">
  <desc>
    Real Estate Action Building Star Streamline Icon: https://streamlinehq.com
  </desc>
  <title>real-estate-action-building-star</title>
  <g>
    <path d="M7.33 18.47a2 2 0 0 0 0.37 -0.07c0.38 -0.05 0.78 -0.17 1 -0.21l0.21 -0.06c0 -0.22 -0.07 -0.48 -0.06 -0.53 0 -0.23 0.07 -0.47 0.08 -0.7l0 -0.19a2 2 0 0 0 -0.47 -0.09c-0.29 0 -0.57 0 -0.87 -0.05l0 0.07a1.81 1.81 0 0 1 0 0.22c0 0.24 -0.08 0.76 -0.09 1.21 -0.23 0.12 -0.27 0.45 -0.17 0.4Z" fill="none" stroke-width="1"></path>
    <path d="M8.56 12.72c0.08 0 0.1 -0.07 0.1 -0.21 -0.11 0.08 -0.22 0.18 -0.1 0.21Z" fill="none" stroke-width="1"></path>
    <path d="M2.83 12.75a1.88 1.88 0 0 0 0.36 -0.07c0.38 -0.06 0.78 -0.17 1 -0.21l0.22 -0.06c0 -0.22 -0.07 -0.48 -0.07 -0.54 0 -0.22 0.07 -0.46 0.09 -0.7a1.2 1.2 0 0 0 0 -0.19 2.13 2.13 0 0 0 -0.48 -0.09c-0.29 0 -0.57 0 -0.87 -0.05H3l0 0.06 0 0.23c0 0.24 -0.09 0.75 -0.1 1.21 -0.13 0.14 -0.17 0.47 -0.07 0.41Z" fill="none" stroke-width="1"></path>
    <path d="M4.26 12.74c0.08 0 0.11 -0.08 0.11 -0.21 -0.12 0.08 -0.23 0.18 -0.11 0.21Z" fill="none" stroke-width="1"></path>
    <path d="M4.24 6.66c0.08 0 0.11 -0.07 0.11 -0.21 -0.12 0.08 -0.23 0.18 -0.11 0.21Z" fill="none" stroke-width="1"></path>
    <path d="m8.15 4.73 -0.87 0a0.25 0.25 0 0 1 0 0.07 1.49 1.49 0 0 1 -0.14 0.2c0 0.24 -0.08 0.76 -0.09 1.21 0 0.2 0 0.53 0.06 0.48a2 2 0 0 0 0.36 -0.07c0.38 0 0.78 -0.17 1 -0.21l0.22 -0.06c0 -0.22 -0.08 -0.47 -0.07 -0.53 0 -0.23 0.07 -0.47 0.09 -0.7v-0.27a1.79 1.79 0 0 0 -0.56 -0.12Z" fill="none" stroke-width="1"></path>
    <path d="m3.85 4.75 -0.87 0 0 0.06 0 0.23c0 0.24 -0.09 0.76 -0.1 1.21 0 0.2 0 0.53 0.06 0.48a1.88 1.88 0 0 0 0.36 -0.07c0.38 0 0.78 -0.17 1 -0.21l0.22 -0.06c0 -0.22 -0.07 -0.48 -0.07 -0.53 0 -0.23 0.07 -0.47 0.09 -0.7v-0.29a2.13 2.13 0 0 0 -0.69 -0.12Z" fill="none" stroke-width="1"></path>
    <path d="m7.13 12.74 0 -0.05a2 2 0 0 0 0.36 -0.07c0.38 0 0.78 -0.17 1 -0.21l0.22 -0.06c0 -0.22 -0.07 -0.48 -0.07 -0.53 0 -0.23 0.07 -0.47 0.09 -0.7v-0.19a2.23 2.23 0 0 0 -0.48 -0.09c-0.29 0 -0.57 0 -0.87 -0.05l0 0.07a1.49 1.49 0 0 1 0 0.22c0 0.24 -0.08 0.76 -0.09 1.21 -0.22 0.17 -0.29 0.5 -0.16 0.45Z" fill="none" stroke-width="1"></path>
    <path d="M1.22 3c-0.09 0 -0.13 0 -0.1 0.09s0.08 0.04 0.1 -0.09Z" fill="none" stroke-width="1"></path>
    <path d="M14.33 21.29s0 0.05 0 0Z" fill="none" stroke-width="1"></path>
    <path d="M8.54 6.64c0.08 0 0.1 -0.07 0.1 -0.21 -0.11 0.08 -0.22 0.18 -0.1 0.21Z" fill="none" stroke-width="1"></path>
    <path d="M14.28 21.25h-0.05Z" fill="none" stroke-width="1"></path>
    <path d="M14.4 16.86c-0.07 0 -0.09 0.07 -0.09 0.18 0.06 -0.04 0.17 -0.16 0.09 -0.18Z" fill="none" stroke-width="1"></path>
    <path d="m14.3 17.05 0.01 -0.01 -0.01 0.01z" fill="none" stroke-width="1"></path>
    <path d="M8.77 18.45c0.07 0 0.1 -0.07 0.1 -0.21 -0.11 0.08 -0.22 0.18 -0.1 0.21Z" fill="none" stroke-width="1"></path>
    <path d="m17.86 1.19 0.08 0c-0.02 0 -0.05 -0.03 -0.08 0Z" fill="none" stroke-width="1"></path>
    <path d="M3 18.48a2 2 0 0 0 0.36 -0.07c0.38 -0.06 0.78 -0.17 1 -0.21l0.21 -0.06c0 -0.22 -0.07 -0.48 -0.06 -0.54 0 -0.22 0.07 -0.46 0.08 -0.69a1.34 1.34 0 0 0 0 -0.2 2 2 0 0 0 -0.47 -0.09l-0.87 0 0 0.06c0 0.09 -0.05 0.2 -0.05 0.23 -0.13 0.09 -0.2 0.64 -0.2 1.09 0 0.21 -0.07 0.54 0 0.48Z" fill="none" stroke-width="1"></path>
    <path d="M21.7 23Z" fill="none" stroke-width="1"></path>
    <path d="M4.47 18.47c0.08 0 0.1 -0.08 0.1 -0.21 -0.11 0.08 -0.22 0.18 -0.1 0.21Z" fill="none" stroke-width="1"></path>
    <path d="M21.7 23h-0.07l-0.07 0.11a0.36 0.36 0 0 1 0.14 -0.11Z" fill="none" stroke-width="1"></path>
    <path d="m22.83 4.81 0 -0.06c0 -0.06 -0.01 0.03 0 0.06Z" fill="none" stroke-width="1"></path>
    <path d="M23.22 3.87a17 17 0 0 0 -2.42 -0.32 1.73 1.73 0 0 0 -0.45 -0.08l-0.56 -1.13 -0.58 -0.89 -0.46 -0.65c-0.38 -0.49 -0.72 -0.63 -1 -0.61a0.75 0.75 0 0 0 -0.5 0.2 2.83 2.83 0 0 0 -0.56 0.88l-0.84 1.92c0 0.09 -0.19 0.25 -0.24 0.38a3.05 3.05 0 0 0 -0.36 0l-1.06 0a5.93 5.93 0 0 0 -0.72 0.1 2.91 2.91 0 0 0 -0.83 0.23 0.8 0.8 0 0 0 -0.38 0.5 1.18 1.18 0 0 0 0.33 1 8.49 8.49 0 0 0 1.56 1.2 6 6 0 0 0 0.74 0.42 1.42 1.42 0 0 0 0.46 0.13 0.35 0.35 0 1 0 0 -0.69L14.58 6a12.21 12.21 0 0 1 -1.24 -0.85c-0.16 -0.14 -0.3 -0.29 -0.28 -0.46 0.13 0.13 0.46 -0.12 0.59 -0.14a4.5 4.5 0 0 1 0.63 -0.07l1 0a5.26 5.26 0 0 0 0.52 0.08 0.8 0.8 0 0 0 0.33 -0.09 0.83 0.83 0 0 0 0.33 -0.34 3.56 3.56 0 0 0 0.27 -0.57l0.89 -1.86c0.06 -0.12 0.12 -0.28 0.18 -0.39a0.57 0.57 0 0 1 0.11 0.11l0.41 0.62 0.54 0.88c0.17 0.28 0.33 0.78 0.49 1.11a1.88 1.88 0 0 0 0.25 0.39 0.88 0.88 0 0 0 0.45 0.24 4.36 4.36 0 0 0 0.6 0c0.51 0.08 1.08 0.11 1.57 0.17a1.34 1.34 0 0 1 0.4 0.13 4.61 4.61 0 0 1 -0.67 0.47c-0.64 0.39 -1.34 0.72 -1.47 0.79a0.71 0.71 0 0 0 -0.26 0.74c0.05 0.2 0.21 0.72 0.21 0.76 0.08 0.44 0.18 0.86 0.24 1.28a5.4 5.4 0 0 1 0.08 0.69l-0.14 0a7.34 7.34 0 0 1 -1.22 -0.86 12.8 12.8 0 0 1 -1.12 -1.07 0.51 0.51 0 0 0 -0.72 0 9.59 9.59 0 0 0 -0.81 0.94 7.81 7.81 0 0 1 -1.23 1.37 1.19 1.19 0 0 1 -0.8 0.35c0 -0.1 0.05 -0.31 0.07 -0.41a3.2 3.2 0 0 1 0.15 -0.54c0.16 -0.44 0.37 -0.79 0.56 -1.32a0.31 0.31 0 0 0 -0.19 -0.39 0.3 0.3 0 0 0 -0.39 0.18c-0.2 0.52 -0.42 0.86 -0.6 1.29a5.9 5.9 0 0 0 -0.2 0.63 2.12 2.12 0 0 0 -0.09 0.79 0.57 0.57 0 0 0 0.43 0.44 1.54 1.54 0 0 0 1.21 -0.21 7.29 7.29 0 0 0 1.74 -1.65 4.76 4.76 0 0 0 0.6 -0.47 12.54 12.54 0 0 0 1 1 7.92 7.92 0 0 0 1.11 0.8 3.6 3.6 0 0 0 1 0.48 0.62 0.62 0 0 0 0.53 -0.2 0.68 0.68 0 0 0 0.17 -0.41 4.27 4.27 0 0 0 0 -0.61 7.5 7.5 0 0 0 -0.06 -1c-0.05 -0.44 -0.15 -0.88 -0.22 -1.33l-0.13 -0.48a10.76 10.76 0 0 0 2 -1.27 1.38 1.38 0 0 0 0.53 -1 1 1 0 0 0 -0.71 -0.87Zm-5.36 -2.68 0.08 0c0.03 0 -0.02 0.01 -0.08 0Zm5 3.62 0 -0.06c0 0.01 -0.01 0.04 -0.03 0.06Z" fill="#020202" stroke-width="1"></path>
    <path d="M21.9 23a0.25 0.25 0 0 0 -0.17 0 0.36 0.36 0 0 0 -0.14 0.11l0.07 -0.11 -1.1 0c-1.59 -0.05 -4.4 -0.22 -6.84 -0.3s-4.54 -0.07 -4.63 -0.06c-0.54 0.07 -1.09 0.11 -1.64 0.15 -1.31 0.08 -2.63 0.11 -3.93 0.2 -0.37 0 -1.84 0.14 -2.45 0.14l-0.16 0a0.33 0.33 0 0 0 -0.24 0 0.35 0.35 0 0 0 -0.2 0.45 0.73 0.73 0 0 0 0.58 0.26l2.5 0 3.94 0c0.57 0 1.14 0 1.71 -0.07 0.09 0 2.4 0.07 5 0.06 1.75 0 3.63 -0.07 5.08 -0.11l2.3 -0.08a0.64 0.64 0 0 0 0.53 -0.24 0.31 0.31 0 0 0 -0.21 -0.4Z" fill="#020202" stroke-width="1"></path>
    <path d="M21.7 23c0 -0.08 -0.05 -0.06 -0.1 0h0.07Z" fill="#020202" stroke-width="1"></path>
    <path d="M0.86 22.31c0 -1.9 0 -7.14 0.11 -11.72C1 7.08 1.13 4 1.24 3l0.67 0a37.81 37.81 0 0 1 4.76 -0.34 30.26 30.26 0 0 1 3.16 0.05l0.4 0.06 0.11 0.82c0.08 0.66 0.24 4.87 0.39 9.09S11 21 11 21.75a0.35 0.35 0 0 0 0.33 0.36 0.34 0.34 0 0 0 0.36 -0.33l0 -8.42c0.46 0 1.32 0 2.35 0.06h1l1.14 -0.06c0.95 -0.07 1.88 -0.17 2.66 -0.24a0.35 0.35 0 0 0 0.34 -0.35 0.34 0.34 0 0 0 -0.35 -0.34c-0.8 0 -1.76 -0.15 -2.74 -0.18l-1.84 0a15.52 15.52 0 0 0 -2.59 0.38l0 -1.88c0 -3.58 -0.11 -6.78 -0.16 -7.35 0 -0.27 0 -0.64 -0.09 -0.94a1.41 1.41 0 0 0 -0.26 -0.58 1.62 1.62 0 0 0 -0.95 -0.37 38.38 38.38 0 0 0 -5.56 0A18.07 18.07 0 0 0 0.85 2a1 1 0 0 0 -0.71 0.66c-0.1 0.53 -0.15 3 -0.14 6 0 5 0.15 11.53 0.24 13.7a0.31 0.31 0 0 0 0.32 0.3 0.3 0.3 0 0 0 0.3 -0.35ZM1.22 3c0 0.09 -0.06 0.15 -0.1 0.09s0.01 -0.03 0.1 -0.09Z" fill="#020202" stroke-width="1"></path>
    <path d="M19.72 22.37a0.34 0.34 0 0 0 0.36 -0.33c0 -0.35 0.17 -1.64 0.26 -3.24 0 -0.45 0.05 -0.91 0.06 -1.39s0 -0.92 0 -1.38c-0.05 -1.18 -0.17 -2.32 -0.23 -3.24a0.31 0.31 0 0 0 -0.62 0c-0.07 0.92 -0.2 2.05 -0.27 3.22l0 1.39 0 1.38c0.05 1.59 0.13 2.88 0.14 3.23a0.35 0.35 0 0 0 0.3 0.36Z" fill="#020202" stroke-width="1"></path>
    <path d="M2.79 6.63z" fill="#020202" stroke-width="1"></path>
    <path d="M5.33 4.9a1.85 1.85 0 0 0 -0.12 -0.49 0.59 0.59 0 0 0 -0.21 -0.27A1.35 1.35 0 0 0 4.53 4 2.92 2.92 0 0 0 4 4L3 4a0.33 0.33 0 0 0 -0.31 0.17 0.38 0.38 0 0 0 -0.33 0.09 1.78 1.78 0 0 0 -0.21 0.65 11.39 11.39 0 0 0 -0.35 1.65 1.12 1.12 0 0 0 0.2 0.7 1.19 1.19 0 0 0 0.91 0.44 5.87 5.87 0 0 0 1.45 -0.2l0.42 0A0.79 0.79 0 0 0 5 7.39a0.67 0.67 0 0 0 0.35 -0.49 7.49 7.49 0 0 0 0 -1.1c-0.01 -0.29 0.02 -0.61 -0.02 -0.9ZM4.24 6.66c-0.12 0 0 -0.13 0.11 -0.21 0 0.14 -0.03 0.23 -0.11 0.21Zm0.12 -1.6c0 0.23 -0.07 0.47 -0.09 0.7 0 0 0.05 0.31 0.07 0.53l-0.22 0.06c-0.19 0 -0.59 0.16 -1 0.21a1.88 1.88 0 0 1 -0.36 0.07s-0.06 -0.28 -0.06 -0.48c0 -0.45 0.09 -1 0.1 -1.21l0 -0.23 0 -0.06H3l0.87 0a2.13 2.13 0 0 1 0.48 0.09Z" fill="#020202" stroke-width="1"></path>
    <path d="M2.77 6.59s0 -0.01 0 0Z" fill="#020202" stroke-width="1"></path>
    <path d="M3 18.4s0 -0.01 0 0Z" fill="#020202" stroke-width="1"></path>
    <path d="M3.12 19.5a5.93 5.93 0 0 0 1.45 -0.19l0.41 0a0.85 0.85 0 0 0 0.28 -0.1 0.66 0.66 0 0 0 0.34 -0.49 6.32 6.32 0 0 0 0 -1.1 6.93 6.93 0 0 0 0 -0.91 1.89 1.89 0 0 0 -0.13 -0.48 0.5 0.5 0 0 0 -0.27 -0.23 1.64 1.64 0 0 0 -0.44 -0.15 3 3 0 0 0 -0.51 0c-0.34 0 -0.66 0.05 -1 0.06a0.34 0.34 0 0 0 -0.31 0.16 0.4 0.4 0 0 0 -0.34 0.1 2 2 0 0 0 -0.21 0.65A11.53 11.53 0 0 0 2 18.38a1.12 1.12 0 0 0 0.17 0.69 1.14 1.14 0 0 0 0.95 0.43Zm1.35 -1c-0.12 0 0 -0.13 0.1 -0.21 0 0.1 -0.02 0.2 -0.1 0.18ZM3 18c0 -0.46 0.09 -1 0.09 -1.21 0 0 0 -0.14 0.05 -0.23l0 -0.06 0.87 0a2 2 0 0 1 0.47 0.09 1.34 1.34 0 0 1 0 0.2c0 0.23 -0.06 0.47 -0.08 0.69 0 0.06 0 0.32 0.06 0.54l-0.21 0.06c-0.19 0 -0.59 0.15 -1 0.21a2 2 0 0 1 -0.36 0.07S3 18.21 3 18Z" fill="#020202" stroke-width="1"></path>
    <path d="m3.02 18.44 -0.01 0 0.01 0z" fill="#020202" stroke-width="1"></path>
    <path d="M2.81 12.71z" fill="#020202" stroke-width="1"></path>
    <path d="M2.91 13.77a5.86 5.86 0 0 0 1.45 -0.19l0.42 0a0.79 0.79 0 0 0 0.27 -0.1 0.67 0.67 0 0 0 0.35 -0.48 7.49 7.49 0 0 0 0 -1.1l0 -0.91a1.88 1.88 0 0 0 -0.12 -0.48 0.54 0.54 0 0 0 -0.28 -0.29 1.69 1.69 0 0 0 -0.45 -0.15 2.89 2.89 0 0 0 -0.5 0c-0.34 0 -0.66 0.05 -1 0.06a0.34 0.34 0 0 0 -0.31 0.16 0.38 0.38 0 0 0 -0.33 0.1 1.78 1.78 0 0 0 -0.21 0.65 11.39 11.39 0 0 0 -0.35 1.65 1.12 1.12 0 0 0 0.17 0.69 1.15 1.15 0 0 0 0.89 0.39Zm1.35 -1c-0.12 0 0 -0.13 0.11 -0.21 0 0.1 -0.03 0.2 -0.11 0.18Zm-1.49 -0.46c0 -0.46 0.09 -1 0.1 -1.21l0 -0.23 0 -0.06H3c0.3 0 0.58 0 0.87 0.05a2.13 2.13 0 0 1 0.48 0.09 1.2 1.2 0 0 1 0 0.19c0 0.24 -0.06 0.48 -0.09 0.7 0 0.06 0 0.32 0.07 0.54l-0.22 0.06c-0.19 0 -0.59 0.15 -1 0.21a1.88 1.88 0 0 1 -0.36 0.07s0.02 -0.24 0.02 -0.44Z" fill="#020202" stroke-width="1"></path>
    <path d="M2.79 12.67Z" fill="#020202" stroke-width="1"></path>
    <path d="M9.63 4.88a1.61 1.61 0 0 0 -0.13 -0.49 0.56 0.56 0 0 0 -0.22 -0.27A1.35 1.35 0 0 0 8.83 4a3 3 0 0 0 -0.5 0c-0.35 0 -0.67 0.06 -1 0.06a0.34 0.34 0 0 0 -0.33 0.1 0.35 0.35 0 0 0 -0.33 0.1c-0.1 0.07 -0.19 0.52 -0.22 0.64a11.4 11.4 0 0 0 -0.34 1.66 1.1 1.1 0 0 0 0.17 0.68 1.14 1.14 0 0 0 0.91 0.44 5.87 5.87 0 0 0 1.45 -0.2l0.42 0a1.07 1.07 0 0 0 0.27 -0.09 0.72 0.72 0 0 0 0.35 -0.5 7.49 7.49 0 0 0 0 -1.1c-0.04 -0.3 -0.01 -0.62 -0.05 -0.91ZM8.54 6.64c-0.12 0 0 -0.13 0.1 -0.21 0 0.14 -0.02 0.23 -0.1 0.21ZM8.66 5c0 0.23 -0.07 0.47 -0.09 0.7 0 0.06 0 0.31 0.07 0.53l-0.22 0.06c-0.19 0 -0.59 0.16 -1 0.21a2 2 0 0 1 -0.36 0.07S7 6.29 7 6.09c0 -0.45 0.09 -1 0.09 -1.21a1.49 1.49 0 0 0 0.05 -0.22 0.25 0.25 0 0 0 0 -0.07l0.87 0a1.79 1.79 0 0 1 0.48 0.1Z" fill="#020202" stroke-width="1"></path>
    <path d="m7.09 6.61 0 0.01 0 -0.01z" fill="#020202" stroke-width="1"></path>
    <path d="M7.06 6.57s0.01 -0.01 0 0Z" fill="#020202" stroke-width="1"></path>
    <path d="M7.29 18.38s0.01 -0.01 0 0Z" fill="#020202" stroke-width="1"></path>
    <path d="M7.42 19.49a6 6 0 0 0 1.45 -0.2l0.41 0a0.94 0.94 0 0 0 0.28 -0.1 0.64 0.64 0 0 0 0.34 -0.49 7.49 7.49 0 0 0 0 -1.1 6.76 6.76 0 0 0 0 -0.9 1.6 1.6 0 0 0 -0.12 -0.49 0.54 0.54 0 0 0 -0.23 -0.27 1.3 1.3 0 0 0 -0.44 -0.14 3 3 0 0 0 -0.51 0c-0.34 0 -0.66 0.06 -1 0.06a0.34 0.34 0 0 0 -0.31 0.17 0.4 0.4 0 0 0 -0.34 0.09 1.78 1.78 0 0 0 -0.21 0.65 12.92 12.92 0 0 0 -0.35 1.65 1.11 1.11 0 0 0 0.18 0.69 1.17 1.17 0 0 0 0.85 0.38Zm1.35 -1c-0.12 0 0 -0.13 0.1 -0.21 0 0.1 -0.03 0.19 -0.1 0.17ZM7.28 18c0 -0.45 0.08 -1 0.09 -1.21a1.81 1.81 0 0 0 0 -0.22l0 -0.07c0.3 0 0.58 0 0.87 0.05a2 2 0 0 1 0.47 0.09l0 0.19c0 0.23 -0.06 0.47 -0.08 0.7 0 0.05 0 0.31 0.06 0.53l-0.21 0.06c-0.19 0 -0.59 0.16 -1 0.21a2 2 0 0 1 -0.37 0.07s0.16 -0.21 0.17 -0.4Z" fill="#020202" stroke-width="1"></path>
    <path d="m7.31 18.42 0.01 0 -0.01 0z" fill="#020202" stroke-width="1"></path>
    <path d="M7.08 12.65s0.01 -0.01 0 0Z" fill="#020202" stroke-width="1"></path>
    <path d="M7.11 12.69z" fill="#020202" stroke-width="1"></path>
    <path d="M7.21 13.76a5.87 5.87 0 0 0 1.45 -0.2l0.42 0a0.79 0.79 0 0 0 0.27 -0.1 0.68 0.68 0 0 0 0.35 -0.46 7.49 7.49 0 0 0 0 -1.1l0 -0.9a2 2 0 0 0 -0.12 -0.49 0.66 0.66 0 0 0 -0.23 -0.27 1.35 1.35 0 0 0 -0.45 -0.14 2.92 2.92 0 0 0 -0.5 -0.05c-0.35 0 -0.67 0.06 -1 0.06a0.34 0.34 0 0 0 -0.31 0.17 0.38 0.38 0 0 0 -0.33 0.09 1.78 1.78 0 0 0 -0.21 0.65 11.39 11.39 0 0 0 -0.35 1.65 1.12 1.12 0 0 0 0.17 0.69 1.17 1.17 0 0 0 0.84 0.4Zm1.35 -1c-0.12 0 0 -0.13 0.1 -0.21 0 0.1 -0.02 0.19 -0.1 0.17Zm-1.49 -0.46c0 -0.45 0.09 -1 0.09 -1.21a1.49 1.49 0 0 0 0 -0.22l0 -0.07c0.3 0 0.58 0 0.87 0.05a2.23 2.23 0 0 1 0.48 0.09v0.19c0 0.23 -0.07 0.47 -0.09 0.7 0 0 0.05 0.31 0.07 0.53l-0.22 0.06c-0.19 0 -0.59 0.16 -1 0.21a2 2 0 0 1 -0.36 0.07s0 0 0 0.05 0.16 -0.29 0.16 -0.49Z" fill="#020202" stroke-width="1"></path>
    <path d="m14.31 17.04 0.01 -0.01 0 0.01 -0.01 0z" fill="#4C57E6" stroke-width="1"></path>
    <path d="m14.33 21.29 0 -0.05Z" fill="#4C57E6" stroke-width="1"></path>
    <path d="M16.71 17.77c0.05 0.71 0.11 1.45 0.14 2.18l0 1.44a0.35 0.35 0 0 0 0.7 0l0.15 -3.67a5.41 5.41 0 0 0 0 -0.89 1 1 0 0 0 -0.35 -0.61 2.36 2.36 0 0 0 -0.85 -0.43 5.74 5.74 0 0 0 -1.2 -0.12 3.58 3.58 0 0 0 -1.11 0.13 1.62 1.62 0 0 0 -0.8 0.52 0.74 0.74 0 0 0 -0.13 0.34 5.93 5.93 0 0 0 0 0.75q0 0.58 0.06 1.2t0.15 1.17c0 0.17 0.11 1.21 0.21 1.6a0.73 0.73 0 0 0 0.11 0.26 0.3 0.3 0 0 0 0.46 0.06 0.32 0.32 0 0 0 0.07 -0.41c-0.05 -0.39 0 -1.38 0 -1.54l0 -1.12c0 -0.38 0 -0.76 0.07 -1.12l0 -0.45c0 -0.11 0 -0.19 0.09 -0.18s0 0.12 -0.08 0.17a0.8 0.8 0 0 1 0.34 -0.11 2.27 2.27 0 0 1 0.61 -0.05 5.09 5.09 0 0 1 1 0.07 1.15 1.15 0 0 1 0.37 0.15c-0.25 0.09 -0.02 0.48 -0.01 0.66Z" fill="#4C57E6" stroke-width="1"></path>
  </g>
</svg>