<svg xmlns="http://www.w3.org/2000/svg" viewBox="0 0 24 24" id="Real-Estate-Action-House-Settings--Streamline-Freehand">
  <desc>
    Real Estate Action House Settings Streamline Icon: https://streamlinehq.com
  </desc>
  <title>real-estate-action-house-settings</title>
  <g>
    <path d="M3.9 6.11Z" fill="none" stroke-width="1"></path>
    <path d="M11.08 5a1.29 1.29 0 0 0 -1.29 0 1.25 1.25 0 0 0 -0.53 0.81 0.87 0.87 0 0 0 0.12 0.85 1 1 0 0 0 0.49 0.2 2.39 2.39 0 0 0 0.7 0 1.78 1.78 0 0 0 0.69 -0.24 0.94 0.94 0 0 0 0.4 -0.5A1.16 1.16 0 0 0 11.08 5Z" fill="none" stroke-width="1"></path>
    <path d="M3.9 6.11A0.35 0.35 0 0 0 4 6s-0.11 0.06 -0.1 0.11Z" fill="none" stroke-width="1"></path>
    <path d="M16.59 4.8v0.07a0.17 0.17 0 0 1 0 -0.07Z" fill="none" stroke-width="1"></path>
    <path d="m16.46 1.44 0 0.02 0 -0.02z" fill="none" stroke-width="1"></path>
    <path d="M16.46 1.46v0.06s0.03 -0.04 0 -0.06Z" fill="none" stroke-width="1"></path>
    <path d="M13.59 20.93c0.05 0.05 0.05 -0.06 0.05 -0.13s-0.09 0.09 -0.05 0.13Z" fill="none" stroke-width="1"></path>
    <path d="m16.36 21.52 0 -0.06Z" fill="none" stroke-width="1"></path>
    <path d="M13 14.13c0 -0.47 0.08 -1 0.1 -1.45a4.85 4.85 0 0 0 0 -0.66 3.4 3.4 0 0 0 -1.54 -2.5 2.6 2.6 0 0 0 -3 0.15 2.8 2.8 0 0 0 -0.79 1 4.33 4.33 0 0 0 -0.35 1.66 5.44 5.44 0 0 0 0 0.57c0 0.39 0.12 0.78 0.15 1.17a1.19 1.19 0 0 0 0.06 0.53 0.38 0.38 0 0 0 0.36 0.2 0.31 0.31 0 0 0 0.29 -0.32 0.27 0.27 0 0 0 -0.06 -0.17s0 -0.19 0 -0.24l0 -1.66a3.74 3.74 0 0 1 0.31 -1.07 1.8 1.8 0 0 1 0.63 -0.72 1.56 1.56 0 0 1 1.78 -0.1 2.45 2.45 0 0 1 1.24 1.63 6.48 6.48 0 0 1 0.07 0.77l0 1.24a0.35 0.35 0 0 0 0.34 0.35 0.35 0.35 0 0 0 0.41 -0.38Z" fill="#020202" stroke-width="1"></path>
    <path d="M11.5 15.51c-0.61 0 -1.22 -0.07 -1.82 -0.14 -0.91 -0.09 -1.82 -0.23 -2.68 -0.37 -0.46 -0.07 -1 -0.1 -1.49 -0.19a2 2 0 0 1 -0.75 -0.25 0.54 0.54 0 0 1 -0.22 -0.33 6.87 6.87 0 0 1 -0.2 -1.11 11.76 11.76 0 0 1 -0.2 -1.9l0 -3L4 6.36s0 -0.15 -0.06 -0.24l0 -0.08H4a0.3 0.3 0 0 0 0 -0.1c1.57 -1.18 3.34 -2.54 4.71 -3.5 0.53 -0.44 1.02 -0.74 1.39 -0.95 0.19 -0.11 0.46 -0.11 0.44 -0.22s-0.07 0 -0.07 0 0.31 0.16 0.55 0.32c0.71 0.49 1.75 1.35 2.86 2.3 0.85 0.74 1.74 1.53 2.54 2.26a0.24 0.24 0 0 0 -0.09 0.15v0.05c0 0.07 0 0.21 -0.05 0.42s-0.13 0.75 -0.17 1.27l0 0.85 0 0.42c0.05 0.59 0.16 1.16 0.23 1.7a0.3 0.3 0 0 0 0.3 0.31 0.31 0.31 0 0 0 0.31 -0.29c0.09 -0.55 0.22 -1.12 0.28 -1.7l0 -0.43 0 -0.85c0 -0.52 -0.11 -1 -0.15 -1.27v-0.06l2 1.84a0.34 0.34 0 1 0 0.48 -0.49c-0.77 -0.79 -4.38 -4.51 -6.73 -6.52A11.52 11.52 0 0 0 11.22 0.36a1.6 1.6 0 0 0 -0.72 -0.25A6.78 6.78 0 0 0 8 1.5C5.34 3.49 1.25 7.24 0.25 7.93a0.29 0.29 0 0 0 -0.08 0.42 0.31 0.31 0 0 0 0.42 0.09c0.43 -0.27 1.47 -1 2.73 -2l-0.08 1.75C3.19 9.35 3 10.55 3 11.73a9.42 9.42 0 0 0 0.14 1.6 5.52 5.52 0 0 0 0.35 1.53 1.57 1.57 0 0 0 0.62 0.68 2.77 2.77 0 0 0 0.89 0.32c0.6 0.14 1.26 0.14 1.82 0.14 0.78 0.07 1.55 0.13 2.33 0.16s1.56 0.06 2.34 0a0.34 0.34 0 0 0 0.35 -0.34 0.35 0.35 0 0 0 -0.34 -0.31Z" fill="#020202" stroke-width="1"></path>
    <path d="M3.9 6.12C4 6.08 4 6 4 6a0.35 0.35 0 0 1 -0.05 0.08Z" fill="#020202" stroke-width="1"></path>
    <path d="M18.1 18.12c-0.68 0.14 -1.2 0.94 -0.63 1.49a1.34 1.34 0 0 0 0.6 0.34 1 1 0 0 0 1.27 -0.69 1.83 1.83 0 0 0 -0.15 -0.68 1 1 0 0 0 -1.09 -0.46Z" fill="#020202" stroke-width="1"></path>
    <path d="M23.8 20.15a1.79 1.79 0 0 0 -0.53 -0.44c-0.4 -0.26 -1 -0.61 -1.43 -0.86l0.72 -0.47a3.85 3.85 0 0 0 0.59 -0.4 1 1 0 0 0 0.28 -0.36 0.85 0.85 0 0 0 0.09 -0.41 1.85 1.85 0 0 0 -0.07 -0.41 3.33 3.33 0 0 0 -1 -1.69 1.11 1.11 0 0 0 -1.16 -0.11l-1.07 0.6 0 -0.51a2.88 2.88 0 0 0 0 -0.71 1.27 1.27 0 0 0 -0.18 -0.46 1.34 1.34 0 0 0 -0.33 -0.3 2.44 2.44 0 0 0 -0.41 -0.18 4.47 4.47 0 0 0 -2 -0.27 1.11 1.11 0 0 0 -0.93 1c0 0.3 -0.07 0.61 -0.08 0.92s0 0.4 0 0.6L15.05 15a1.17 1.17 0 0 0 -1.24 0.07 3.42 3.42 0 0 0 -1.05 1.71 1.93 1.93 0 0 0 -0.09 0.43 1 1 0 0 0 0.38 0.84 5 5 0 0 0 0.59 0.42l0.43 0.31a2.17 2.17 0 0 0 0 0.36 1.84 1.84 0 0 0 0 0.33l-0.44 0.29a5.05 5.05 0 0 0 -0.74 0.52 0.79 0.79 0 0 0 -0.24 0.52 1.27 1.27 0 0 0 0.09 0.33c0.08 0.16 0.25 0.4 0.27 0.44l0.31 0.62a0.64 0.64 0 0 0 0.1 0.13 3.81 3.81 0 0 0 0.72 0.65 1.08 1.08 0 0 0 0.62 0.12 2.14 2.14 0 0 0 0.82 -0.31 7.44 7.44 0 0 0 0.75 -0.54v0.25a3.55 3.55 0 0 0 0 0.85 0.62 0.62 0 0 0 0.26 0.37 0.76 0.76 0 0 0 0.26 0.09c0.2 0 0.52 0.05 0.57 0.07l0.77 0.12h0.11a4.65 4.65 0 0 0 0.94 -0.14 0.86 0.86 0 0 0 0.46 -0.36 2.31 2.31 0 0 0 0.18 -0.36 1.77 1.77 0 0 0 0 -0.59 0.32 0.32 0 0 0 -0.33 -0.28 0.31 0.31 0 0 0 -0.28 0.33l0 0.35c0 0.07 -0.06 0.1 -0.13 0.22a0.33 0.33 0 0 1 -0.22 0.11 5.43 5.43 0 0 1 -0.67 0l-0.7 -0.14 -0.49 -0.07c0.07 -0.14 -0.05 -0.48 0 -0.61l0 -1.05 -0.39 0.39c0 -0.06 0.33 -0.68 0.14 -0.76 -0.42 -0.17 -0.17 0.68 -0.14 0.76l-0.38 -0.39 0 0.06v-0.07a0.38 0.38 0 0 1 0.16 -0.33c-0.33 0.21 -0.74 0.55 -1.15 0.8a1.59 1.59 0 0 1 -0.67 0.29c-0.09 0 -0.15 -0.06 -0.22 -0.12s-0.23 -0.26 -0.33 -0.37l-0.26 -0.54a1.45 1.45 0 0 0 -0.15 -0.45c0.15 -0.07 0.35 -0.12 0.42 -0.17l0.91 -0.4a0.52 0.52 0 0 0 0.21 -0.61 2 2 0 0 1 -0.07 -0.42 1.61 1.61 0 0 1 0.07 -0.43 0.55 0.55 0 0 0 -0.19 -0.56l-0.75 -0.57 -0.43 -0.32 0 -0.14a2.86 2.86 0 0 1 0.31 -0.72 1.22 1.22 0 0 1 0.24 -0.3s0.08 -0.07 0.14 0l1.65 1a0.59 0.59 0 0 0 0.56 0l0.26 -0.1a0.59 0.59 0 0 0 0.39 -0.54l0 -1.29q0 -0.39 0.06 -0.78l0.12 0a2.2 2.2 0 0 1 0.44 0 4.82 4.82 0 0 1 0.84 0.21l0.19 0.06 0 0.49 0.11 1.42a0.54 0.54 0 0 0 0.31 0.49 0.51 0.51 0 0 0 0.54 0.01l1.71 -1c0.16 -0.08 0.26 0.07 0.35 0.2a3.3 3.3 0 0 1 0.42 0.9l0 0.18 -0.49 0.36 -0.89 0.62a0.48 0.48 0 0 0 -0.2 0.32l-0.06 0.5a0.43 0.43 0 0 0 0.21 0.44l1.94 1.08a1.11 1.11 0 0 1 0 0.23 2.51 2.51 0 0 1 -0.29 0.66 2 2 0 0 1 -0.42 0.55c-0.05 0 -0.07 0.11 -0.11 0.1a6.73 6.73 0 0 1 -0.76 -0.38c-0.4 -0.23 -0.8 -0.49 -1.12 -0.7a0.35 0.35 0 0 0 -0.48 0.1 0.34 0.34 0 0 0 0.1 0.48c0.32 0.22 0.73 0.5 1.14 0.74a7.54 7.54 0 0 0 0.83 0.44c0.37 0.16 0.91 -0.12 1.32 -0.67a3.75 3.75 0 0 0 0.63 -1.36 0.93 0.93 0 0 0 -0.03 -0.64Zm-10.21 0.78s0 -0.09 0.05 -0.13 0 0.2 -0.05 0.13Z" fill="#020202" stroke-width="1"></path>
    <path d="M11.56 4.3A2.27 2.27 0 0 0 9.31 4a2.32 2.32 0 0 0 -1.18 1.58 1.91 1.91 0 0 0 0.55 2 1.91 1.91 0 0 0 0.88 0.34 3.15 3.15 0 0 0 1.2 -0.08 2.47 2.47 0 0 0 1.13 -0.64 1.59 1.59 0 0 0 0.45 -0.81 1.91 1.91 0 0 0 -0.78 -2.09Zm0.1 1.88a0.94 0.94 0 0 1 -0.4 0.5 1.78 1.78 0 0 1 -0.69 0.24 2.39 2.39 0 0 1 -0.7 0 1 1 0 0 1 -0.49 -0.2 0.87 0.87 0 0 1 -0.12 -0.85A1.25 1.25 0 0 1 9.79 5a1.29 1.29 0 0 1 1.29 0 1.16 1.16 0 0 1 0.62 1.17Z" fill="#4C57E6" stroke-width="1"></path>
    <path d="M13.88 2.37a0.31 0.31 0 0 0 0.34 -0.26l0.24 -0.93c0 -0.08 0.1 -0.09 0.18 -0.12a1.37 1.37 0 0 1 0.61 0 2.86 2.86 0 0 1 1 0.29 2.42 2.42 0 0 1 0.23 0.12s0 0 0 0.06c0 0.45 0.07 1.83 0.1 2.68 -0.23 -1.49 -1.76 0.13 0 0.59v0.12a0.33 0.33 0 0 0 0.08 0.18 0.34 0.34 0 0 0 0.57 -0.09 0.29 0.29 0 0 0 0 -0.1c0.05 0 0 -0.15 0 -0.31 0.08 -0.81 0.29 -2.78 0.3 -3.19a1.11 1.11 0 0 0 -0.5 -0.87A2.89 2.89 0 0 0 15.7 0c-1 -0.09 -1.88 0.26 -2 1l-0.09 1a0.3 0.3 0 0 0 0.27 0.37Zm2.71 2.43a0.17 0.17 0 0 0 0 0.07Z" fill="#020202" stroke-width="1"></path>
    <path d="M16.46 1.46Z" fill="#020202" stroke-width="1"></path>
  </g>
</svg>