<svg xmlns="http://www.w3.org/2000/svg" viewBox="0 0 24 24" id="Real-Estate-Update-Building-Refresh--Streamline-Freehand">
  <desc>
    Real Estate Update Building Refresh Streamline Icon: https://streamlinehq.com
  </desc>
  <title>real-estate-update-building-refresh</title>
  <g>
    <path d="M14.54 11c-0.07 0 0 0.06 0 0.12s0.05 -0.12 0 -0.12Z" fill="none" stroke-width="1"></path>
    <path d="M13.81 15.19s0.02 0 0 0Z" fill="none" stroke-width="1"></path>
    <path d="M14.43 12.27c0.07 0 0.08 -0.07 0.07 -0.16 -0.09 0.07 -0.16 0.15 -0.07 0.16Z" fill="none" stroke-width="1"></path>
    <path d="M14.83 16.56c0.06 0 0.05 -0.08 0 -0.16 -0.03 0.07 -0.08 0.15 0 0.16Z" fill="none" stroke-width="1"></path>
    <path d="m13.74 15.31 0.06 -0.05a0.22 0.22 0 0 1 -0.06 0.05Z" fill="none" stroke-width="1"></path>
    <path d="m13.6 16.43 0.1 0c0.1 0 -0.1 -0.06 -0.1 0Z" fill="none" stroke-width="1"></path>
    <path d="m7.77 14.6 0.07 0.06a0.13 0.13 0 0 0 -0.07 -0.06Z" fill="none" stroke-width="1"></path>
    <path d="m13.46 12.08 0.07 0c0.07 0 -0.07 -0.08 -0.07 0Z" fill="none" stroke-width="1"></path>
    <path d="M7.89 14.93a0.15 0.15 0 0 0 0 -0.16 0.43 0.43 0 0 1 0 0.16Z" fill="none" stroke-width="1"></path>
    <path d="M16.52 8.41c0 -0.05 0 -0.08 -0.05 -0.08s0 0.06 0.05 0.08Z" fill="none" stroke-width="1"></path>
    <path d="m9.27 12.74 -1.37 0.16 -1 0 -0.05 0.7 0 3.77c0 0.87 0 1.68 0.06 2.22a12.63 12.63 0 0 0 2.29 0.12 11 11 0 0 0 2.07 -0.24 3.69 3.69 0 0 1 0.05 -0.94l0 -1.46 -0.09 -3.35a3 3 0 0 0 0 -0.66 0.23 0.23 0 0 0 -0.11 -0.19 2.4 2.4 0 0 0 -0.83 -0.17 6.3 6.3 0 0 0 -1.02 0.04Zm0.34 5a6.64 6.64 0 0 1 -0.87 0.25 0.76 0.76 0 0 1 -0.3 0 1.47 1.47 0 0 1 -0.3 -0.08c-0.16 -0.06 -0.46 -0.1 -0.59 -0.28s-0.17 -0.16 -0.16 -0.28a0.31 0.31 0 0 1 0.61 -0.18s0 -0.08 0 -0.09 0.15 -0.08 0.21 -0.11 0.18 -0.07 0.28 -0.08a1 1 0 0 1 0.29 0 5.63 5.63 0 0 1 0.9 0.22 0.36 0.36 0 0 1 0 0.71Zm0.18 -2.4a8.26 8.26 0 0 1 -0.95 0.24 1.4 1.4 0 0 1 -0.41 0 1.2 1.2 0 0 1 -0.27 -0.08s-0.43 -0.2 -0.59 -0.3c-0.37 -0.22 -0.24 -0.56 -0.16 -0.59a0.31 0.31 0 0 1 0.32 0c0 -0.15 0.51 -0.09 0.55 -0.1a1.85 1.85 0 0 1 0.23 0 2 2 0 0 1 0.35 0 7.58 7.58 0 0 1 0.94 0.23 0.35 0.35 0 0 1 0.35 0.35 0.35 0.35 0 0 1 -0.36 0.26Z" fill="none" stroke-width="1"></path>
    <path d="m13.68 11.21 -0.1 0 0 0.29 0 0.52 0.07 0 0.83 0a1.36 1.36 0 0 1 0 -0.2l0.05 -0.48Z" fill="none" stroke-width="1"></path>
    <path d="m12.28 7.73 -0.01 0 0.01 0z" fill="none" stroke-width="1"></path>
    <path d="M15 16.26c0.06 0 0.11 0 0.11 -0.05s-0.06 0.01 -0.11 0.05Z" fill="none" stroke-width="1"></path>
    <path d="m15 15.35 0.06 0Z" fill="none" stroke-width="1"></path>
    <path d="M12.27 7.73a0.37 0.37 0 0 1 -0.23 0 0.29 0.29 0 0 0 0.23 0Z" fill="none" stroke-width="1"></path>
    <path d="M15 15.34a0.41 0.41 0 0 0 -0.16 0l-0.65 0 -0.32 0 0.09 0.72 0 0.34 0.79 -0.13h0.1c0 -0.11 0 -0.28 0.07 -0.46s0.1 -0.32 0.1 -0.41Z" fill="none" stroke-width="1"></path>
    <path d="m13.8 15.22 -0.01 0 0 0.01 0.01 -0.01z" fill="none" stroke-width="1"></path>
    <path d="M14.94 15.31s0.06 -0.01 0 0Z" fill="none" stroke-width="1"></path>
    <path d="M13.24 10.58a0.44 0.44 0 0 0 -0.08 0.11 0.38 0.38 0 0 0 -0.29 0.29 4 4 0 0 0 -0.06 0.57 5.28 5.28 0 0 0 -0.1 0.71 1.23 1.23 0 0 0 0.1 0.46 0.66 0.66 0 0 0 0.29 0.28 1.58 1.58 0 0 0 0.55 0.11c0.24 0 0.63 0.09 1 0.08a1.38 1.38 0 0 0 0.65 -0.18 0.73 0.73 0 0 0 0.32 -0.47 4.12 4.12 0 0 0 0 -0.6l0 -0.77a1.58 1.58 0 0 0 0 -0.36 0.61 0.61 0 0 0 -0.17 -0.3 0.49 0.49 0 0 0 -0.29 -0.13c-0.1 0 -0.45 -0.07 -0.43 0l-0.91 0a0.76 0.76 0 0 0 -0.58 0.2Zm0.22 1.5c0 -0.05 0 0 0.07 0s-0.07 0.03 -0.07 0ZM14.54 11c0.05 0 0 0.07 0 0.12s-0.07 -0.12 0 -0.12Zm-0.11 1.31c-0.09 0 0 -0.09 0.07 -0.16 0.01 0.05 0 0.13 -0.07 0.12Zm0.05 -0.26 -0.83 0 -0.07 0 0 -0.52 0 -0.29 0.1 0 0.81 0.12 -0.05 0.48a1.36 1.36 0 0 0 0.04 0.16Z" fill="#020202" stroke-width="1"></path>
    <path d="M15.9 15a0.77 0.77 0 0 0 -0.44 -0.49 1.53 1.53 0 0 0 -0.49 -0.1c-0.27 0 -0.57 0.06 -0.82 0.08l-0.25 0 -0.21 0a0.33 0.33 0 0 0 -0.38 0.28 0.25 0.25 0 0 0 0 0.13l-0.06 0.07a0.81 0.81 0 0 0 -0.08 0.34l-0.05 0.72 -0.12 0.57 0 0.35a0.45 0.45 0 0 0 0.16 0.31 0.68 0.68 0 0 0 0.41 0.18 3.81 3.81 0 0 0 0.5 0l0.8 -0.05a4 4 0 0 0 0.49 0 0.88 0.88 0 0 0 0.46 -0.23 0.71 0.71 0 0 0 0.18 -0.31 2.4 2.4 0 0 0 0 -0.59 4.24 4.24 0 0 0 -0.1 -1.26Zm-2.3 1.43c0 -0.06 0.05 0 0.1 0s-0.1 0.04 -0.1 0Zm1.23 0.13c-0.08 0 0 -0.09 0 -0.16 0.05 0.08 0.06 0.16 0 0.16Zm0.06 -0.8c0 0.18 -0.06 0.35 -0.07 0.46h-0.1l-0.79 0.13 0 -0.34 -0.09 -0.72 -0.06 0.05a0.22 0.22 0 0 0 0 -0.08l0.32 0 0.65 0a0.41 0.41 0 0 1 0.16 0s-0.05 0 0 0l0.05 0 0.06 0 -0.06 0c0.04 0.18 -0.05 0.38 -0.07 0.5Zm0.12 0.5s0.1 -0.09 0.11 -0.05 -0.05 0.06 -0.12 0.05Z" fill="#020202" stroke-width="1"></path>
    <path d="M13.82 15.23Z" fill="#020202" stroke-width="1"></path>
    <path d="m14.96 15.34 0.03 0.02 0 -0.01 -0.03 -0.01z" fill="#020202" stroke-width="1"></path>
    <path d="M14 7.92a2.55 2.55 0 0 1 0.08 0.28l-1.48 0.49 -0.17 0.08a0.34 0.34 0 0 0 -0.17 -0.11c0.05 0 0.1 0 0.12 0.05s0 0 0.06 0 0.1 -0.09 0.14 -0.2a1.57 1.57 0 0 0 0.08 -0.31 1.56 1.56 0 0 0 0 -0.4c0 -0.06 -0.1 -0.39 -0.18 -0.39a0.31 0.31 0 0 0 -0.05 -0.18 0.26 0.26 0 0 0 -0.15 -0.16c-0.12 -0.12 -0.36 -0.11 -0.54 0.31 0 0.09 -0.09 0.36 -0.11 0.42a1.26 1.26 0 0 0 -0.11 0.38 1.1 1.1 0 0 0 0.12 0.48 2.19 2.19 0 0 0 0.2 0.38l-0.15 0.07a6.11 6.11 0 0 0 -0.82 0.33 1.24 1.24 0 0 0 -0.39 0.31 1 1 0 0 0 -0.18 0.55c0 0.3 0.06 0.66 0 0.88l0 0.33a7.08 7.08 0 0 0 -1.14 0l-1.39 0.21c-0.32 0.05 -0.64 0 -0.94 0.05a1.88 1.88 0 0 0 -0.56 0.16 0.58 0.58 0 0 0 -0.23 0.21c-0.08 0.11 -0.27 0.52 -0.12 0.53l0 0.88c0 0.63 0.09 1.9 0.17 3.17s0.18 2.54 0.26 3.16a0.35 0.35 0 0 0 0.24 0.31 12 12 0 0 0 2.66 0.28 9.39 9.39 0 0 0 2.75 -0.21 0.58 0.58 0 0 0 0.36 -0.45 7 7 0 0 0 0 -1.27l0 -1.46 0 -3.35a3.56 3.56 0 0 0 -0.11 -1.12 1.27 1.27 0 0 0 -0.71 -0.8 3 3 0 0 0 -0.71 -0.21c0 -0.11 0.08 -0.26 0.09 -0.31s0 -0.51 0 -0.79a0.5 0.5 0 0 1 0.06 -0.26 0.66 0.66 0 0 1 0.26 -0.15 5 5 0 0 1 0.63 -0.2l1 -0.38 2.64 -0.7c0.21 -0.05 0.46 -0.14 0.71 -0.19l0.27 0 0 0.09c0 0.2 0.1 2.67 0.24 5.25 0.1 2 0.25 4 0.33 5.13a16.17 16.17 0 0 1 -3.91 0.27 0.35 0.35 0 0 0 -0.37 0.34 0.35 0.35 0 0 0 0.33 0.36 22 22 0 0 0 3.72 0 2.23 2.23 0 0 0 0.89 -0.27 0.64 0.64 0 0 0 0.28 -0.54c0 -1.26 -0.06 -4 -0.15 -6.4 -0.07 -2.24 -0.2 -4.17 -0.24 -4.34a2.73 2.73 0 0 0 -0.05 -0.4 0.9 0.9 0 0 0 -0.18 -0.35 0.71 0.71 0 0 0 -0.32 -0.22 2 2 0 0 0 -0.49 0 2.14 2.14 0 0 0 -0.49 0.07c-0.29 0.07 -0.59 0.2 -0.84 0.27l-0.29 0.1a1.66 1.66 0 0 0 0.1 -0.29 1 1 0 0 0 0 -0.3 4.69 4.69 0 0 0 -0.05 -0.71l-0.16 -0.53a0.35 0.35 0 0 0 -0.35 -0.35 0.35 0.35 0 0 0 -0.35 0.35l-0.14 0.53c0 0.21 -0.1 0.4 -0.12 0.61a1.63 1.63 0 0 0 0 0.31 3 3 0 0 0 0.12 0.32Zm-1.76 -0.19a0.29 0.29 0 0 1 -0.23 0 0.37 0.37 0 0 0 0.26 0Zm-1.08 5.34a3 3 0 0 1 0 0.66l0.09 3.35 0 1.46a3.69 3.69 0 0 0 -0.05 0.94 11 11 0 0 1 -2.07 0.24 12.63 12.63 0 0 1 -2.29 -0.12c0 -0.54 0 -1.35 -0.06 -2.22l0 -3.77 0.05 -0.7 1 0 1.37 -0.16a6.3 6.3 0 0 1 1 0 2.4 2.4 0 0 1 0.83 0.17 0.23 0.23 0 0 1 0.16 0.15Zm5.33 -4.66s-0.08 -0.07 -0.05 -0.08 0.09 0.03 0.08 0.08Z" fill="#020202" stroke-width="1"></path>
    <path d="M9.79 14.65a7.58 7.58 0 0 0 -0.94 -0.23 2 2 0 0 0 -0.35 0 1.85 1.85 0 0 0 -0.23 0s-0.56 0 -0.55 0.1a0.31 0.31 0 0 0 -0.32 0c-0.08 0 -0.21 0.37 0.16 0.59 0.16 0.1 0.55 0.28 0.59 0.3a1.2 1.2 0 0 0 0.27 0.08 1.4 1.4 0 0 0 0.41 0 8.26 8.26 0 0 0 0.95 -0.24 0.35 0.35 0 0 0 0.35 -0.35 0.35 0.35 0 0 0 -0.34 -0.25Zm-1.95 0 -0.07 -0.06a0.13 0.13 0 0 1 0.09 0.1Zm0 0.27a0.43 0.43 0 0 0 0 -0.16 0.15 0.15 0 0 1 0.05 0.17Z" fill="#020202" stroke-width="1"></path>
    <path d="M9.61 17a5.63 5.63 0 0 0 -0.9 -0.22 1 1 0 0 0 -0.29 0c-0.1 0 -0.18 0.06 -0.28 0.08s-0.22 0 -0.21 0.11 0 0.05 0 0.09a0.31 0.31 0 0 0 -0.59 0.19c0 0.12 0.09 0.19 0.16 0.28s0.43 0.22 0.59 0.28a1.47 1.47 0 0 0 0.3 0.08 0.76 0.76 0 0 0 0.3 0 6.64 6.64 0 0 0 0.87 -0.25 0.36 0.36 0 0 0 0 -0.71Z" fill="#020202" stroke-width="1"></path>
    <path d="M21.07 18a0.35 0.35 0 0 0 -0.46 0.18 8.51 8.51 0 0 1 -4.1 3.93 10.09 10.09 0 0 1 -5.66 0.78 10.41 10.41 0 0 1 -5.94 -3.07 9 9 0 0 1 -2.65 -6l0 -0.94c0 -0.32 0 -0.65 0.08 -1a10.19 10.19 0 0 1 1.79 -4.77A8.38 8.38 0 0 1 8.22 4a20.57 20.57 0 0 1 2.64 -0.73 11.15 11.15 0 0 1 1.2 -0.17l-0.1 0.08c-0.52 0.68 -2.22 2.4 -3 3.14l-0.34 0.34s0.24 0.61 0.23 0.61a0.32 0.32 0 0 0 0.24 -0.09l0.38 -0.31c0.83 -0.68 2.75 -2.28 3.35 -2.93a3.45 3.45 0 0 0 0.65 -0.8 0.73 0.73 0 0 0 -0.15 -0.83 11.49 11.49 0 0 0 -1.28 -0.74c-0.92 -0.46 -2.15 -1 -2.79 -1.33C9.11 0.19 9 0 8.92 0.08A0.23 0.23 0 0 0 8.8 0c-0.28 -0.08 -0.8 0.2 -0.23 0.6L9 0.86c0.59 0.39 1.68 1.13 2.54 1.67 -0.25 0 -0.5 0.06 -0.75 0.11A21.77 21.77 0 0 0 8 3.3a9.26 9.26 0 0 0 -4.64 3.24 11.19 11.19 0 0 0 -2.13 5.25c-0.05 0.32 -0.08 0.67 -0.1 1a9 9 0 0 0 0 1 10 10 0 0 0 3 6.82 11.31 11.31 0 0 0 6.66 3.27 11 11 0 0 0 6.16 -1 9.33 9.33 0 0 0 4.37 -4.42 0.36 0.36 0 0 0 -0.25 -0.46Z" fill="#020202" stroke-width="1"></path>
    <path d="M22.77 12.58a0.36 0.36 0 0 0 -0.71 0c-0.06 0.38 -0.17 0.75 -0.26 1.15 0 0.16 -0.07 0.32 -0.1 0.47s-0.05 0.32 -0.07 0.48a6.72 6.72 0 0 1 -0.15 1.12 0.31 0.31 0 1 0 0.54 0.29 3.76 3.76 0 0 0 0.7 -1.14 2.55 2.55 0 0 0 0.15 -0.54 3.52 3.52 0 0 0 0 -0.56 8.66 8.66 0 0 0 -0.1 -1.27Z" fill="#4C57E6" stroke-width="1"></path>
    <path d="M22.34 10.48a0.3 0.3 0 0 0 0.3 -0.31 3.89 3.89 0 0 0 -0.09 -1.57A3.59 3.59 0 0 0 22 7.43a3.17 3.17 0 0 0 -1.22 -1.06 0.35 0.35 0 0 0 -0.35 0.61 2 2 0 0 1 0.39 0.53c0.11 0.2 0.19 0.43 0.31 0.67s0.2 0.45 0.32 0.67a6 6 0 0 1 0.55 1.33 0.3 0.3 0 0 0 0.34 0.3Z" fill="#4C57E6" stroke-width="1"></path>
    <path d="M15.66 3.73a2.24 2.24 0 0 1 0.6 0.22c0.15 0.08 0.28 0.19 0.46 0.28l0.46 0.26a6 6 0 0 1 1.42 0.83 0.35 0.35 0 0 0 0.53 -0.47 5 5 0 0 0 -0.93 -1.08 3.38 3.38 0 0 0 -0.51 -0.36 2.77 2.77 0 0 0 -0.57 -0.24 3 3 0 0 0 -1.51 -0.06 0.3 0.3 0 0 0 -0.28 0.33 0.31 0.31 0 0 0 0.33 0.29Z" fill="#4C57E6" stroke-width="1"></path>
  </g>
</svg>