<svg xmlns="http://www.w3.org/2000/svg" viewBox="0 0 24 24" id="Real-Estate-App-Building-Smartphone--Streamline-Freehand">
  <desc>
    Real Estate App Building Smartphone Streamline Icon: https://streamlinehq.com
  </desc>
  <title>real-estate-app-building-smartphone</title>
  <g>
    <path d="m12.68 8.58 0.05 0a0.13 0.13 0 0 0 -0.05 0Z" fill="none" stroke-width="1"></path>
    <path d="M14.26 11.46a0.17 0.17 0 0 0 0 -0.18 0.28 0.28 0 0 1 0 0.18Z" fill="none" stroke-width="1"></path>
    <path d="M12.88 7.58Z" fill="none" stroke-width="1"></path>
    <path d="m14.15 11.12 0.08 0.08a0.13 0.13 0 0 0 -0.08 -0.08Z" fill="none" stroke-width="1"></path>
    <path d="M8.43 13.28a0.37 0.37 0 0 1 0 0.18 0.15 0.15 0 0 0 0 -0.18Z" fill="none" stroke-width="1"></path>
    <path d="M8.39 13.2a0.11 0.11 0 0 0 0 -0.07Z" fill="none" stroke-width="1"></path>
    <path d="M16.07 8.91c0 -0.06 -0.09 0 -0.15 0s0.15 0.09 0.15 0Z" fill="none" stroke-width="1"></path>
    <path d="M14.21 14a0.13 0.13 0 0 0 -0.09 -0.11l0.08 0.08Z" fill="none" stroke-width="1"></path>
    <path d="M14.24 14a0.32 0.32 0 0 1 0 0.17 0.14 0.14 0 0 0 0 -0.17Z" fill="none" stroke-width="1"></path>
    <path d="M19.35 16.07c-0.22 -4.22 -0.61 -9.8 -0.89 -12.78a0.32 0.32 0 1 0 -0.63 0c0.18 2.56 0.41 7.05 0.54 10.94 0.1 2.84 0.16 5.35 0.12 6.55l0 0.54a2.57 2.57 0 0 1 -1.39 0.71 19.8 19.8 0 0 1 -4.57 0.7 16.84 16.84 0 0 1 -5.21 -0.38c-0.35 -0.11 -0.64 -0.19 -0.71 -0.38 -0.36 -0.92 -0.79 -6.81 -1 -12 -0.14 -3.72 -0.16 -7.07 0.15 -8 0.08 -0.25 0.44 -0.4 0.91 -0.57A13.87 13.87 0 0 1 10 0.89a23.33 23.33 0 0 1 7.41 0.5 0.36 0.36 0 0 0 0.45 -0.23 0.36 0.36 0 0 0 -0.23 -0.45A24.32 24.32 0 0 0 10 0.05a12.21 12.21 0 0 0 -4.15 0.77 1.75 1.75 0 0 0 -1 0.91c-0.4 1.1 -0.46 5.74 -0.3 10.37a68.74 68.74 0 0 0 0.88 10.35 2.23 2.23 0 0 0 1.48 1.1 17.92 17.92 0 0 0 5.64 0.4 17.86 17.86 0 0 0 5.52 -1.09 2.59 2.59 0 0 0 1.33 -1.06 2.26 2.26 0 0 0 0.11 -0.76c0.03 -0.89 -0.04 -2.74 -0.16 -4.97Z" fill="#020202" stroke-width="1"></path>
    <path d="M9.13 4.58a12.3 12.3 0 0 0 1.43 0.11l1.39 0A8.26 8.26 0 0 0 14 4.31a1.92 1.92 0 0 0 0.59 -0.71c0.25 -0.47 0.41 -1.09 0.64 -1.48a0.37 0.37 0 0 0 -0.09 -0.5 0.35 0.35 0 0 0 -0.49 0.09c-0.29 0.37 -0.54 1 -0.85 1.42a1 1 0 0 1 -0.32 0.32l-4.22 0.12c0 -0.16 -0.34 -0.29 -0.49 -0.53a9.15 9.15 0 0 1 -0.49 -1 0.32 0.32 0 0 0 -0.39 -0.21 0.31 0.31 0 0 0 -0.21 0.39 8.36 8.36 0 0 0 0.59 1.67 1.31 1.31 0 0 0 0.86 0.69Z" fill="#4C57E6" stroke-width="1"></path>
    <path d="M13.77 13.84c-0.08 0 -0.24 0.34 0.11 0.61 0.13 0.1 0.45 0.29 0.48 0.31a1.15 1.15 0 0 0 0.23 0.1 1 1 0 0 0 0.34 0 4.79 4.79 0 0 0 0.75 -0.17c0 1.1 0 2.09 0.05 2.68a0.36 0.36 0 0 0 0.72 0c0.06 -1.17 0.27 -3.94 0.36 -6 0.06 -1.42 0.06 -2.54 0.05 -2.67s0 -0.21 0 -0.32A0.81 0.81 0 0 0 16.7 8a0.72 0.72 0 0 0 -0.3 -0.25 1.7 1.7 0 0 0 -0.44 0 1.54 1.54 0 0 0 -0.42 0l-0.41 0.11 0 -0.11a0.93 0.93 0 0 0 0.05 -0.29 3.05 3.05 0 0 0 -0.06 -0.6L15 6.35a0.36 0.36 0 1 0 -0.71 -0.05l-0.16 0.5c0 0.19 -0.12 0.37 -0.15 0.56a1.51 1.51 0 0 0 0 0.3c0 0.11 0.05 0.2 0.08 0.31s0 0.11 0 0.19L13 8.51a1.11 1.11 0 0 0 0.1 -0.29 1.24 1.24 0 0 0 0 -0.38c0 -0.06 -0.07 -0.39 -0.16 -0.38a0.37 0.37 0 0 0 0 -0.18 0.27 0.27 0 0 0 -0.17 -0.19s-0.07 0 -0.11 0 -0.21 0 -0.37 0.17 0 0.08 -0.07 0.17 -0.11 0.32 -0.14 0.38a1 1 0 0 0 -0.13 0.35 1.14 1.14 0 0 0 0.09 0.46l0.13 0.3a4.19 4.19 0 0 0 -0.66 0.25 1.09 1.09 0 0 0 -0.33 0.26 0.87 0.87 0 0 0 -0.18 0.48l0 0.7a0.57 0.57 0 0 0 0 0.16 5.78 5.78 0 0 0 -0.82 0L9 10.8l-0.72 0a1.76 1.76 0 0 0 -0.49 0.12 0.68 0.68 0 0 0 -0.27 0.21 2.26 2.26 0 0 0 -0.14 0.49 0.21 0.21 0 0 1 0 -0.06l-0.06 0.77 0 2.57c0 1.03 0 2.07 0.09 2.57a0.31 0.31 0 0 0 0.32 0.31 0.32 0.32 0 0 0 0.31 -0.33c0 -0.34 0 -0.92 0.07 -1.57l0.27 0.11 0.25 0.11a0.7 0.7 0 0 0 0.25 0 5.26 5.26 0 0 0 0.75 -0.21 0.34 0.34 0 0 0 0.37 -0.33 0.36 0.36 0 0 0 -0.33 -0.38A4.11 4.11 0 0 0 9 14.9a0.49 0.49 0 0 0 -0.24 0 2.33 2.33 0 0 0 -0.25 0.07s-0.17 0 -0.16 0.1 0 0.06 0.05 0.11a0.33 0.33 0 0 0 -0.17 -0.16c0 -0.41 0.06 -0.82 0.1 -1.2l0.24 0.16a1.09 1.09 0 0 0 0.23 0.09 1 1 0 0 0 0.34 0 6.07 6.07 0 0 0 0.8 -0.07 0.37 0.37 0 0 0 0.38 -0.34 0.36 0.36 0 0 0 -0.34 -0.37 5.46 5.46 0 0 0 -0.77 -0.29 1.36 1.36 0 0 0 -0.29 0l-0.19 0a2.83 2.83 0 0 0 -0.35 0c0 -0.24 0 -0.45 0.07 -0.61L8.5 12h0.6l1 -0.08a3.49 3.49 0 0 1 0.72 0 1.45 1.45 0 0 1 0.56 0.15c0.06 0 0.05 0.09 0.05 0.15l0 0.45 0 2.71 0 1.18c0 0.1 -0.21 0.8 0 0.87a0.39 0.39 0 0 0 0 0.3 0.36 0.36 0 0 0 0.45 0.23 0.46 0.46 0 0 0 0.28 -0.33 6.09 6.09 0 0 0 0.1 -1l0.12 -1.17 0.25 -2.7a2.54 2.54 0 0 0 -0.07 -1.13 1.11 1.11 0 0 0 -0.48 -0.56 2.18 2.18 0 0 0 -0.49 -0.2 1.14 1.14 0 0 0 0.06 -0.15l0.1 -0.8 0.65 -0.2 0.76 -0.24 2 -0.41 0.55 -0.1 0 2.23A3.53 3.53 0 0 0 15 11a1.33 1.33 0 0 0 -0.28 0 1.42 1.42 0 0 0 -0.2 0s-0.47 0 -0.46 0.09a0.33 0.33 0 0 0 -0.32 0c-0.08 0 -0.23 0.33 0.12 0.61 0.13 0.1 0.44 0.29 0.48 0.31l0.22 0.1a1 1 0 0 0 0.35 0 3.44 3.44 0 0 0 0.69 -0.16l0 1.95a3.87 3.87 0 0 0 -0.65 -0.23 1.36 1.36 0 0 0 -0.29 0l-0.19 0s-0.47 0 -0.46 0.09a0.31 0.31 0 0 0 -0.24 0.08Zm-5.34 -0.56a0.15 0.15 0 0 1 0 0.18 0.37 0.37 0 0 0 0 -0.18Zm0 -0.06a0.11 0.11 0 0 1 -0.03 0Zm4.48 -5.64Zm-0.2 1a0.13 0.13 0 0 1 0.09 0Zm1.55 2.62 -0.08 -0.08a0.13 0.13 0 0 1 0.09 0.1Zm0 0.26a0.28 0.28 0 0 0 0 -0.18 0.17 0.17 0 0 1 0 0.18Zm1.81 -2.55c0 0.07 -0.07 0.05 -0.15 0s0.15 -0.06 0.15 0ZM14.24 14a0.14 0.14 0 0 1 0 0.17 0.32 0.32 0 0 0 0 -0.17Zm0 -0.06 -0.08 -0.08a0.13 0.13 0 0 1 0.05 0.14Z" fill="#020202" stroke-width="1"></path>
  </g>
</svg>