<svg xmlns="http://www.w3.org/2000/svg" viewBox="0 0 24 24" id="Real-Estate-Deal-Pay-House--Streamline-Freehand">
  <desc>
    Real Estate Deal Pay House Streamline Icon: https://streamlinehq.com
  </desc>
  <title>real-estate-deal-pay-house</title>
  <g>
    <path d="M23.45 5.61c-0.19 -0.16 -0.39 -0.29 -0.56 -0.45 -0.43 -0.44 -0.28 -0.26 -0.3 -1.16V2.55l0.11 -1.15a2.53 2.53 0 0 0 0.09 -0.5 0.71 0.71 0 0 0 -0.31 -0.49 0.75 0.75 0 0 0 -0.33 -0.11l-0.79 0c-0.6 0 -1.25 -0.14 -1.87 -0.16a3.82 3.82 0 0 0 -1 0.07 0.66 0.66 0 0 0 -0.49 0.52 4.27 4.27 0 0 0 0 0.62l0 1.22 -0.77 0.13a25.23 25.23 0 0 1 -3 0.38c-1.89 0.13 -1.52 0 -2 -0.12a0.73 0.73 0 0 0 -0.6 0.18c-0.21 0.18 -0.66 0.73 -0.73 0.8l-1 1.31a18.23 18.23 0 0 0 -1.64 2.4 6.47 6.47 0 0 0 -0.39 1.06 1.72 1.72 0 0 0 0 0.5 2.61 2.61 0 0 0 0 0.48c0.06 0.31 0.17 0.63 0.29 1.06a0.36 0.36 0 0 0 0.39 0.32 0.35 0.35 0 0 0 0.32 -0.38c0 -0.43 0.1 -0.75 0.12 -1.06L9 9.2l0 -0.41c-0.12 -1.43 -0.6 -0.65 1.32 -2.62 0.48 -0.49 1 -1 1.46 -1.44a4.73 4.73 0 0 1 0.38 -0.55 2.1 2.1 0 0 1 0.3 0.15c0.3 0.18 0.6 0.4 0.84 0.56 0.61 0.36 1.2 0.73 1.77 1.14 1.16 0.84 1.29 0.93 1.41 3 0 0.81 0.05 1.61 0.07 2.39a4.58 4.58 0 0 1 0 0.74l-1.21 0 -0.5 0a8.62 8.62 0 0 0 0.16 -1.33 2.46 2.46 0 0 0 -0.27 -1 2.45 2.45 0 0 0 -1.93 -1.1 1.47 1.47 0 0 0 -1.45 0.91 3.28 3.28 0 0 0 -0.22 1.36 7.46 7.46 0 0 0 0.33 1.76s0.12 0.41 0.39 0.41l3.53 0.16c4.35 0.19 3.8 -0.2 6.26 -0.17l1.11 0.05a2.31 2.31 0 0 0 0.58 0 0.66 0.66 0 0 0 0.29 -0.22 1.88 1.88 0 0 0 0.34 -0.85 7.39 7.39 0 0 0 0 -1c0 -0.55 -0.1 -1.1 -0.09 -1.65 0.13 -2.72 0.38 -3.2 -0.42 -3.88ZM12 11.29a2.65 2.65 0 0 1 0.28 -1.13c0.12 -0.24 0.37 -0.23 0.6 -0.18a1.27 1.27 0 0 1 0.84 0.46 1.52 1.52 0 0 1 0.28 0.75 11.16 11.16 0 0 1 0.09 1.14l-2.06 0.19a7 7 0 0 1 -0.03 -1.23Zm7 -8.06a2 2 0 0 0 0.13 -0.67c0 -0.37 -0.05 -0.78 0 -1.09a0.28 0.28 0 0 0 0 -0.09h0.27c0.64 0 1.31 0.16 1.93 0.15l0.18 0 0 1 0.1 1.47c-0.14 0 -0.31 0.12 -0.39 0.13 -0.79 0.08 -0.74 0.12 -1.07 0L19 3.37a0.7 0.7 0 0 0 0.06 -0.14Zm-5 0.69 -0.11 -0.08h0.47a30.47 30.47 0 0 0 3.08 -0.14c0.9 -0.1 0.36 -0.32 2.36 1.14A2.53 2.53 0 0 0 20 5a0.62 0.62 0 0 0 0.33 0.08l0.92 0A3.55 3.55 0 0 0 22 5a3.37 3.37 0 0 0 0.36 0.61 5 5 0 0 0 0.58 0.65 0.27 0.27 0 0 1 0.08 0.11l-0.92 0 -1.69 0.06c-1.1 0.07 -2.19 0.18 -3.29 0.29a14.73 14.73 0 0 0 -1.44 -1.42c-0.55 -0.49 -1.13 -0.94 -1.68 -1.38ZM22.77 12l-1.09 0c-0.46 0 -0.92 0 -1.37 0.08 -0.85 0.1 -1.69 0.24 -2.54 0.32l0 -0.1a5 5 0 0 0 -0.06 -0.94c-0.11 -0.78 -0.21 -1.59 -0.34 -2.39 -0.09 -0.48 -0.18 -1 -0.3 -1.42 1.11 0 2.22 0.07 3.33 0.08l1.69 0 0.81 0 0 1.92c0 0.64 0 1 -0.07 1.56a6.91 6.91 0 0 1 -0.09 0.88s0.04 0.01 0.03 0.01Z" fill="#020202" fill-rule="evenodd" stroke-width="1"></path>
    <path d="M7.24 17a2.35 2.35 0 0 0 -0.54 0l0 -0.87 -0.06 -0.77a3.47 3.47 0 0 1 0.94 0.15 0.33 0.33 0 0 0 0.42 -0.19 0.32 0.32 0 0 0 -0.17 -0.41 4.89 4.89 0 0 0 -1.27 -0.31l-0.09 -0.73a0.32 0.32 0 1 0 -0.63 0l0 0.63a2.79 2.79 0 0 0 -0.84 0.1 2 2 0 0 0 -1.29 1.2 1.83 1.83 0 0 0 0.18 1.78 1.42 1.42 0 0 0 0.61 0.48 2.48 2.48 0 0 0 0.94 0.16h0.11l0 0.58c0 0.44 0.09 0.88 0.14 1.31a4.7 4.7 0 0 1 -1.3 -0.21 0.35 0.35 0 0 0 -0.45 0.23 0.35 0.35 0 0 0 0.23 0.44 5.38 5.38 0 0 0 1.61 0.38l0.06 0.61a0.36 0.36 0 1 0 0.71 0l0 -0.66a3.25 3.25 0 0 0 1 -0.35 2.22 2.22 0 0 0 1.13 -1.65 1.65 1.65 0 0 0 -0.55 -1.4 1.85 1.85 0 0 0 -0.89 -0.5Zm-1.82 0A1.12 1.12 0 0 1 5 17a0.43 0.43 0 0 1 -0.21 -0.11 0.77 0.77 0 0 1 -0.12 -0.73 1.1 1.1 0 0 1 0.55 -0.69 1.67 1.67 0 0 1 0.45 -0.1c0 0.36 -0.08 0.73 -0.11 1.1l0 0.56Zm2.18 2a1.26 1.26 0 0 1 -0.52 0.74 3.32 3.32 0 0 1 -0.41 0.22l0 -1.18 0 -0.58h0.1a1 1 0 0 1 0.56 0.18 0.59 0.59 0 0 1 0.27 0.62Z" fill="#020202" fill-rule="evenodd" stroke-width="1"></path>
    <path d="M9 12.8a5 5 0 0 0 -2.12 -0.8 6 6 0 0 0 -1.19 0 5.56 5.56 0 0 0 -2.5 0.7A7.28 7.28 0 0 0 1 14.92l-0.47 0.94A7.66 7.66 0 0 0 0 18.12a5.58 5.58 0 0 0 0.31 2.36 5.08 5.08 0 0 0 3.12 2.94 7.11 7.11 0 0 0 4.25 0.15 5.88 5.88 0 0 0 3.87 -4 5.64 5.64 0 0 0 -1 -5.4A8.12 8.12 0 0 0 9 12.8Zm1.56 6.46a4.73 4.73 0 0 1 -3.14 3.16 6 6 0 0 1 -3.52 -0.12 4 4 0 0 1 -2.53 -2.2A4.58 4.58 0 0 1 1 18.17a7.21 7.21 0 0 1 0.37 -2l0.36 -0.81a6.31 6.31 0 0 1 1.85 -2 2.8 2.8 0 0 1 0.6 -0.3l0.37 -0.06 1.22 -0.17a4.34 4.34 0 0 1 1 0 4 4 0 0 1 1.68 0.72 6.65 6.65 0 0 1 1.39 1.29 4.64 4.64 0 0 1 0.67 4.42Z" fill="#020202" fill-rule="evenodd" stroke-width="1"></path>
    <path d="M20.65 16.43a0.35 0.35 0 0 0 -0.46 0.2 5.35 5.35 0 0 1 -1.75 1.92 7.2 7.2 0 0 1 -1 0.58 8.28 8.28 0 0 1 -1 0.46 6.27 6.27 0 0 1 -1.95 0.45l1.05 -1.19a0.31 0.31 0 0 0 0 -0.44 0.32 0.32 0 0 0 -0.44 0l-1.65 1a4.16 4.16 0 0 0 -0.44 0.38 0.76 0.76 0 0 0 -0.21 0.44 0.61 0.61 0 0 0 0.08 0.41 2.9 2.9 0 0 0 0.51 0.53l1.37 1a0.35 0.35 0 0 0 0.5 0 0.36 0.36 0 0 0 0 -0.5l-0.71 -0.86a5.51 5.51 0 0 0 2.17 -0.13 5.72 5.72 0 0 0 1.24 -0.49 5.91 5.91 0 0 0 1.09 -0.76 5.8 5.8 0 0 0 1.71 -2.54 0.36 0.36 0 0 0 -0.11 -0.46Z" fill="#4C57E6" fill-rule="evenodd" stroke-width="1"></path>
    <path d="M1.65 10.69a0.31 0.31 0 0 0 0.29 -0.33 6.72 6.72 0 0 1 0.84 -2.92 9.45 9.45 0 0 1 0.68 -1.09 8.62 8.62 0 0 1 0.84 -1 5 5 0 0 1 1.91 -1.13l-0.8 1.22a0.35 0.35 0 0 0 0 0.5 0.36 0.36 0 0 0 0.59 -0.06l1.2 -1.1c0.11 -0.1 0.27 -0.17 0.39 -0.27a1.35 1.35 0 0 0 0.26 -0.28 0.58 0.58 0 0 0 0.1 -0.52 0.65 0.65 0 0 0 -0.22 -0.34c-0.08 -0.06 -0.62 -0.31 -0.75 -0.37a6.3 6.3 0 0 0 -0.72 -0.28l-0.89 -0.25a0.32 0.32 0 0 0 -0.39 0.21 0.33 0.33 0 0 0 0.22 0.39l0.62 0.42a5.51 5.51 0 0 0 -2.21 1A5.58 5.58 0 0 0 2.5 5.64 6.09 6.09 0 0 0 1.75 7a6.64 6.64 0 0 0 -0.43 3.45 0.31 0.31 0 0 0 0.33 0.24Z" fill="#4C57E6" fill-rule="evenodd" stroke-width="1"></path>
  </g>
</svg>