<svg xmlns="http://www.w3.org/2000/svg" viewBox="0 0 24 24" id="Real-Estate-Sign-Board-Rent--Streamline-Freehand">
  <desc>
    Real Estate Sign Board Rent Streamline Icon: https://streamlinehq.com
  </desc>
  <title>real-estate-sign-board-rent</title>
  <g>
    <path d="M4.91 14.76a1 1 0 0 0 -0.91 0.68 3.72 3.72 0 0 0 -0.2 1.13h0.07l0.35 0 0.45 -0.1a2.88 2.88 0 0 0 0.7 -0.31 1.21 1.21 0 0 0 0.44 -0.43c0.11 -0.21 0 -0.43 -0.19 -0.61a0.94 0.94 0 0 0 -0.71 -0.36Z" fill="none" stroke-width="1"></path>
    <path d="M1.21 10.91s0 -0.04 0 0Z" fill="none" stroke-width="1"></path>
    <path d="m9.16 14.75 0 0.05c0 0.05 0.02 -0.04 0 -0.05Z" fill="none" stroke-width="1"></path>
    <path d="m1.16 11 0.06 0a0.1 0.1 0 0 1 -0.06 0Z" fill="none" stroke-width="1"></path>
    <path d="M12.44 4a2.8 2.8 0 0 0 1.73 -0.39 0.87 0.87 0 0 0 0.39 -0.46 1.46 1.46 0 0 0 0 -0.7 1.93 1.93 0 0 0 -1 -1.36 2.48 2.48 0 0 0 -1.73 0c-0.39 0.1 -0.54 0.47 -0.63 0.83a2.42 2.42 0 0 0 0 1.3 1.29 1.29 0 0 0 1.24 0.78Z" fill="none" stroke-width="1"></path>
    <path d="M15.72 18.93c0.07 0 0.1 0 0.11 -0.15s-0.18 0.11 -0.11 0.15Z" fill="none" stroke-width="1"></path>
    <path d="M21.16 13.83a0.32 0.32 0 0 0 -0.09 0.33 0.34 0.34 0 0 1 0.09 -0.33Z" fill="none" stroke-width="1"></path>
    <path d="M1.24 10.89s0.05 -0.05 0 -0.06Z" fill="#020202" stroke-width="1"></path>
    <path d="M23.45 10.66a1.22 1.22 0 0 0 -0.55 -0.66 5.38 5.38 0 0 0 -1.73 -0.4 20.47 20.47 0 0 0 -2.22 0l-0.09 -0.16 -0.29 -0.94A10.27 10.27 0 0 0 18 7.06a7 7 0 0 0 -0.85 -1.21l-1 -1.1a0.3 0.3 0 0 0 -0.42 -0.07 0.31 0.31 0 0 0 -0.07 0.43l0.71 1.32 1.29 2.37 0.4 0.74h-0.68l-11.33 0.14 0.59 -0.68c0.3 -0.38 0.63 -0.73 0.93 -1.11s0.56 -0.81 0.83 -1.21l1.25 -1.9a0.35 0.35 0 0 0 -0.53 -0.45L7.51 6.08c-0.34 0.48 -0.72 0.92 -1 1.41 -0.21 0.34 -0.39 0.69 -0.58 1l-0.49 0.86a0.88 0.88 0 0 1 -0.18 0.21s-0.06 0.05 -0.06 0.07l-3 0a0.35 0.35 0 0 0 -0.35 0.35 0.34 0.34 0 0 0 0.35 0.34l15.25 0.1 3.18 0a5.46 5.46 0 0 1 1.82 0.34 4.63 4.63 0 0 1 0.21 0.8 27.82 27.82 0 0 1 0.14 5 27.23 27.23 0 0 1 -0.58 4.91 3 3 0 0 1 -0.31 0.85l-0.06 0a19.94 19.94 0 0 1 -2.78 0.3l-3.53 0.05c-1.83 0.1 -3.76 0.18 -5.68 0.18 -1.27 0 -2.54 0 -3.76 -0.15 -0.85 -0.06 -1.94 0 -2.93 -0.15a4.2 4.2 0 0 1 -1.7 -0.46 0.7 0.7 0 0 1 -0.25 -0.27 5 5 0 0 1 -0.22 -0.77 27.18 27.18 0 0 1 0 -3.41c0.07 -2.08 0.21 -4.44 0.29 -5.29v-1.29l0 -0.14 -0.06 0a0.1 0.1 0 0 0 0.05 0s0 -0.06 0 -0.06a0.28 0.28 0 0 0 0.05 -0.27 0.3 0.3 0 0 0 -0.38 -0.2 0.41 0.41 0 0 0 -0.25 0.22 1.59 1.59 0 0 0 -0.06 0.45v1.22c-0.12 1 -0.34 4 -0.45 6.21a18.44 18.44 0 0 0 0 2.77 6.61 6.61 0 0 0 0.22 1 1.47 1.47 0 0 0 0.57 0.66 4.18 4.18 0 0 0 1.54 0.55c1.12 0.22 2.46 0.21 3.46 0.31 1.24 0.13 2.54 0.2 3.84 0.23 1.93 0 3.89 0 5.74 -0.09l3.55 0c0.39 0 1.8 -0.1 2.65 -0.25a1.92 1.92 0 0 0 0.93 -0.38 3.79 3.79 0 0 0 0.69 -1.68 32 32 0 0 0 0.55 -6.17 17.68 17.68 0 0 0 -0.48 -4.78Z" fill="#020202" stroke-width="1"></path>
    <path d="M11.87 5a3.71 3.71 0 0 0 2.79 -0.68 1.66 1.66 0 0 0 0.63 -0.93 2.22 2.22 0 0 0 0 -1A2.66 2.66 0 0 0 14 0.37a3.46 3.46 0 0 0 -2.34 -0.3 1.89 1.89 0 0 0 -1.38 1.17 3.59 3.59 0 0 0 -0.08 2.43A2.22 2.22 0 0 0 11.87 5Zm-0.63 -3.06c0.09 -0.36 0.24 -0.73 0.63 -0.83a2.48 2.48 0 0 1 1.73 0 1.93 1.93 0 0 1 1 1.36 1.46 1.46 0 0 1 0 0.7 0.87 0.87 0 0 1 -0.39 0.46 2.8 2.8 0 0 1 -1.77 0.37 1.29 1.29 0 0 1 -1.18 -0.79 2.42 2.42 0 0 1 -0.02 -1.28Z" fill="#4C57E6" stroke-width="1"></path>
    <path d="M6.8 16.32a1.67 1.67 0 0 0 -0.3 -2 2.15 2.15 0 0 0 -1.71 -0.76A2 2 0 0 0 3 15.11 8 8 0 0 0 3 18l0.11 1.35s0 0.31 0.05 0.42c0 0.42 0.22 0.45 0.38 0.35s0.26 -0.05 0.24 -0.33l0 -0.5V18l0 -0.37c0.15 0.09 0.31 0.18 0.34 0.21l1.48 1.34c0.08 0.07 0.34 0.45 0.46 0.38a0.34 0.34 0 0 0 0.31 0.18 0.34 0.34 0 0 0 0.34 -0.34 0.48 0.48 0 0 0 -0.1 -0.28c-0.1 -0.13 -0.41 -0.37 -0.49 -0.46L5 17.46A3.65 3.65 0 0 0 6.11 17a2.17 2.17 0 0 0 0.69 -0.68Zm-1 -0.57a1.21 1.21 0 0 1 -0.44 0.43 2.88 2.88 0 0 1 -0.7 0.31l-0.45 0.1c0 -0.08 -0.28 0 -0.35 0H3.8a3.72 3.72 0 0 1 0.2 -1.15 1 1 0 0 1 0.91 -0.68 0.94 0.94 0 0 1 0.71 0.38c0.16 0.18 0.3 0.4 0.19 0.61Z" fill="#020202" stroke-width="1"></path>
    <path d="M8.08 17.88a3.13 3.13 0 0 0 0.54 1.58 0.73 0.73 0 0 0 0.37 0.27 3 3 0 0 0 0.48 0.05 12.77 12.77 0 0 0 1.76 0c0.47 -0.08 0.52 -0.41 0.42 -0.58a0.35 0.35 0 0 0 -0.46 -0.16l-0.06 0a11.57 11.57 0 0 1 -1.55 -0.2c-0.05 0 -0.15 -0.08 -0.22 -0.08a2.56 2.56 0 0 1 -0.15 -0.7 6.71 6.71 0 0 1 0 -0.9h0.18l0.24 0.05a2.28 2.28 0 0 0 0.37 0 7.75 7.75 0 0 0 1 -0.22 0.35 0.35 0 1 0 0 -0.69 8.12 8.12 0 0 0 -1 -0.25 1.4 1.4 0 0 0 -0.41 0 1.47 1.47 0 0 0 -0.28 0.08l-0.07 0 0 -0.52c0 -0.16 0 -0.37 -0.06 -0.61 0 -0.08 0 -0.21 -0.06 -0.29l0.41 -0.15a12.77 12.77 0 0 1 1.28 -0.24 3.22 3.22 0 0 1 0.81 0 0.3 0.3 0 0 0 0.36 -0.24 0.32 0.32 0 0 0 -0.24 -0.36 4.72 4.72 0 0 0 -1 -0.1c-0.48 0 -1 0 -1.38 0.05a2.86 2.86 0 0 0 -0.55 0.09 1.22 1.22 0 0 0 -0.48 0.25 1.16 1.16 0 0 0 -0.29 0.68 7.45 7.45 0 0 0 0 0.95 17.57 17.57 0 0 0 0.04 2.24Zm1.08 -3.13 0 0.05c0 0.05 -0.03 -0.06 0 -0.05Z" fill="#020202" stroke-width="1"></path>
    <path d="M15.91 17.28c-0.16 -0.33 -0.32 -0.66 -0.49 -1s-0.5 -0.87 -0.77 -1.3l-0.5 -0.84a1.44 1.44 0 0 0 -0.33 -0.39 0.54 0.54 0 0 0 -0.71 0.09 1.21 1.21 0 0 0 -0.3 0.57 3.2 3.2 0 0 0 0 1.07l0.09 1.88v1.52a2.3 2.3 0 0 0 0 0.53 0.34 0.34 0 0 0 0.21 0.24 0.37 0.37 0 0 0 0.31 0 0.31 0.31 0 0 0 0.14 -0.41l0 -0.34 0.12 -1.49 0.07 -1.66c0.27 0.44 0.52 0.9 0.77 1.36s0.35 0.68 0.51 1l0.43 1a1.48 1.48 0 0 0 0.16 0.33 0.75 0.75 0 0 0 0.27 0.22 0.56 0.56 0 0 0 0.49 0 0.78 0.78 0 0 0 0.38 -0.55 7.59 7.59 0 0 0 0.05 -1l0 -1.35c0 -0.45 0 -0.9 -0.07 -1.34l-0.18 -1.11v-0.05a0.41 0.41 0 0 0 0 -0.22l0 -0.09 0 -0.08 -0.08 -0.19a0.33 0.33 0 0 0 -0.42 -0.08 0.35 0.35 0 0 0 -0.2 0.29s0 0.19 0 0.25l0 0.29 0.1 1 0 1.29Zm-0.19 1.65c-0.07 0 0 -0.11 0.11 -0.15s-0.04 0.22 -0.11 0.15Z" fill="#020202" stroke-width="1"></path>
    <path d="M17.93 13.76a0.25 0.25 0 0 0 -0.17 0.05c-0.07 0 -0.09 0.09 -0.13 0.14s-0.06 0.2 0.07 0.39a0.51 0.51 0 0 0 0.29 0.16 3.05 3.05 0 0 0 0.55 0.06c0.16 0 0.32 0.06 0.48 0.07l0.3 0 -0.12 0.85c0 0.36 -0.07 0.71 -0.09 1.07s0 0.52 0 0.78l0 0.78 0.06 0.87 0 0.36c0 0.5 0.16 0.6 0.34 0.52 0.18 0.08 0.36 0 0.35 -0.52l0 -0.36 0.11 -0.75a8.23 8.23 0 0 0 0.21 -1.38c0 -0.46 0 -0.91 -0.06 -1.37l-0.13 -0.89 0.49 -0.07c0.1 0 0.7 0 0.73 -0.14a0.31 0.31 0 0 0 0.35 -0.08c0.2 -0.15 0.24 -0.49 -0.26 -0.63 -0.2 -0.06 -0.76 -0.11 -0.88 -0.13s-0.39 -0.05 -0.59 -0.06a4.14 4.14 0 0 0 -0.61 0 5.91 5.91 0 0 0 -0.84 0.15c-0.08 0 -0.36 0 -0.37 0.13s-0.01 0 -0.08 0Zm3.23 0.07a0.34 0.34 0 0 0 -0.09 0.33 0.32 0.32 0 0 1 0.09 -0.33Z" fill="#020202" stroke-width="1"></path>
  </g>
</svg>