<svg xmlns="http://www.w3.org/2000/svg" viewBox="0 0 24 24" id="Real-Estate-Settings-Building-Cog-2--Streamline-Freehand">
  <desc>
    Real Estate Settings Building Cog 2 Streamline Icon: https://streamlinehq.com
  </desc>
  <title>real-estate-settings-building-cog-2</title>
  <g>
    <path d="M14.74 4.84c-0.07 0 -0.05 0 0 0.12s0.05 -0.11 0 -0.12Z" fill="none" stroke-width="1"></path>
    <path d="M14.64 6.06c0.07 0 0.07 -0.06 0.06 -0.16 -0.08 0.1 -0.15 0.15 -0.06 0.16Z" fill="none" stroke-width="1"></path>
    <path d="m13.77 10 0.09 0c0.09 0 -0.1 -0.1 -0.09 0Z" fill="none" stroke-width="1"></path>
    <path d="M13.84 5.08a0.33 0.33 0 0 1 -0.13 0l0 0.26 0 0.46a0.3 0.3 0 0 1 0.11 0l0.85 0a0.5 0.5 0 0 1 0 -0.18l0 -0.43Z" fill="none" stroke-width="1"></path>
    <path d="m13.62 5.88 0.06 0c0.06 0 -0.06 -0.05 -0.06 0Z" fill="none" stroke-width="1"></path>
    <path d="M12.06 1.79z" fill="none" stroke-width="1"></path>
    <path d="m17 2.61 -0.13 0c-0.07 0 0.13 0.06 0.13 0Z" fill="none" stroke-width="1"></path>
    <path d="M15 10.08c0.06 0 0.05 -0.07 0 -0.15l0 0.15Z" fill="none" stroke-width="1"></path>
    <path d="M7 12.93a13.16 13.16 0 0 0 2.33 0.1 11.7 11.7 0 0 0 2.11 -0.22 3.16 3.16 0 0 1 0 -0.87l0 -1.37 -0.04 -3.13a2.63 2.63 0 0 0 0 -0.62 0.2 0.2 0 0 0 -0.11 -0.16 2.35 2.35 0 0 0 -0.67 -0.15 6.72 6.72 0 0 0 -1.19 0L8 6.67l-1 0 0 0.65 0 3.53 0 2.08Zm2.72 -1.72a7.19 7.19 0 0 1 -0.88 0.24 0.76 0.76 0 0 1 -0.3 0 1.77 1.77 0 0 1 -0.31 -0.08 1.33 1.33 0 0 1 -0.56 -0.25c-0.08 -0.09 -0.18 -0.15 -0.17 -0.27a0.29 0.29 0 0 1 0.2 -0.37 0.3 0.3 0 0 1 0.31 0.1c0 -0.09 0.16 -0.1 0.22 -0.12s0.19 -0.07 0.29 -0.09a1.43 1.43 0 0 1 0.29 0 5.71 5.71 0 0 1 0.91 0.21 0.34 0.34 0 0 1 0 0.68Zm-2.21 -3a0.29 0.29 0 0 1 0.31 0s0.52 -0.09 0.55 -0.1a2 2 0 0 1 0.24 0 1.36 1.36 0 0 1 0.35 0 7.7 7.7 0 0 1 0.95 0.22 0.34 0.34 0 1 1 0 0.67 6.38 6.38 0 0 1 -1 0.23 1.42 1.42 0 0 1 -0.41 0l-0.21 -0.13s-0.43 -0.2 -0.59 -0.29c-0.37 -0.2 -0.23 -0.55 -0.16 -0.57Z" fill="none" stroke-width="1"></path>
    <path d="M8 8.38a0.31 0.31 0 0 1 0 0.19 0.17 0.17 0 0 0 0 -0.19Z" fill="none" stroke-width="1"></path>
    <path d="m8 8.32 -0.09 -0.09a0.13 0.13 0 0 1 0.09 0.09Z" fill="none" stroke-width="1"></path>
    <path d="m13.95 8.84 0 0.01 0.01 -0.01 -0.01 0z" fill="none" stroke-width="1"></path>
    <path d="m4.43 19.34 0 0.1c0 0.05 0.05 -0.12 0 -0.1Z" fill="none" stroke-width="1"></path>
    <path d="m15.21 9.79 0.1 0s-0.07 -0.03 -0.1 0Z" fill="none" stroke-width="1"></path>
    <path d="M15.19 9s0 -0.05 0 0 -0.04 0 0 0Z" fill="none" stroke-width="1"></path>
    <path d="M14.33 8.89 14 8.84l0.09 0.67v0.32l0.79 -0.12H15c0 -0.11 0 -0.26 0.06 -0.43s0.09 -0.27 0.1 -0.36a0.65 0.65 0 0 0 -0.2 0c-0.2 -0.02 -0.44 -0.02 -0.63 -0.03Z" fill="none" stroke-width="1"></path>
    <path d="M14 8.8Z" fill="none" stroke-width="1"></path>
    <path d="M13.91 8.91Z" fill="none" stroke-width="1"></path>
    <path d="M6.2 10.29c0.09 1.19 0.18 2.38 0.26 3a0.32 0.32 0 0 0 0.23 0.29 12.85 12.85 0 0 0 2.67 0.27 9.88 9.88 0 0 0 2.74 -0.25 0.56 0.56 0 0 0 0.36 -0.42 6.37 6.37 0 0 0 0 -1.21l0 -1.37V7.44a3.37 3.37 0 0 0 -0.11 -1.09 1.24 1.24 0 0 0 -0.71 -0.73 3 3 0 0 0 -0.64 -0.19 2.26 2.26 0 0 1 0.07 -0.28l0 -0.74a0.39 0.39 0 0 1 0.06 -0.23 0.64 0.64 0 0 1 0.29 -0.18 6.28 6.28 0 0 1 0.64 -0.18l1 -0.35 2.66 -0.65 0.72 -0.19 0.3 0 0 0.08c0 0.18 0.11 2.5 0.24 4.9 0.11 1.85 0.25 3.74 0.33 4.8a18.34 18.34 0 0 1 -4 0.26 0.34 0.34 0 1 0 0 0.67 23.22 23.22 0 0 0 3.73 0 2.16 2.16 0 0 0 0.87 -0.25 0.58 0.58 0 0 0 0.31 -0.53c0 -1.18 -0.07 -3.75 -0.16 -6 -0.08 -2.1 -0.2 -3.91 -0.24 -4.07a2.47 2.47 0 0 0 -0.05 -0.38 0.93 0.93 0 0 0 -0.18 -0.34 0.72 0.72 0 0 0 -0.32 -0.2 2 2 0 0 0 -0.48 0 2.67 2.67 0 0 0 -0.47 0.07c-0.29 0.07 -0.6 0.18 -0.85 0.26l-0.32 0.1a2.14 2.14 0 0 0 0.09 -0.27 1.35 1.35 0 0 0 0 -0.28c0 -0.2 -0.06 -0.39 -0.09 -0.59L15 0.34a0.34 0.34 0 1 0 -0.67 0l-0.12 0.5a5.48 5.48 0 0 0 -0.1 0.56 0.93 0.93 0 0 0 0 0.29 2.63 2.63 0 0 0 0.09 0.3 2.33 2.33 0 0 1 0.06 0.25l-1.48 0.46 -0.2 0.09a0.33 0.33 0 0 0 -0.15 -0.11s0.1 0 0.11 0l0.06 0c0.06 0 0.09 -0.09 0.11 -0.17a0.74 0.74 0 0 0 0.08 -0.29 1.17 1.17 0 0 0 0 -0.38c0 -0.06 -0.06 -0.41 -0.17 -0.36a0.34 0.34 0 0 0 0 -0.2 0.35 0.35 0 0 0 -0.13 -0.14c-0.06 -0.06 -0.13 0 -0.18 -0.05s-0.23 0.05 -0.35 0.34a4.1 4.1 0 0 0 -0.11 0.4 1.15 1.15 0 0 0 -0.1 0.35 0.93 0.93 0 0 0 0.11 0.47 2.44 2.44 0 0 0 0.17 0.33l-0.13 0.06a7.56 7.56 0 0 0 -0.82 0.31 1.22 1.22 0 0 0 -0.39 0.3 0.86 0.86 0 0 0 -0.19 0.52c0 0.28 0.06 0.62 0 0.82s0 0.19 0 0.3a8.8 8.8 0 0 0 -1.16 0l-1.4 0.21 -0.95 0a1.82 1.82 0 0 0 -0.54 0.15 0.56 0.56 0 0 0 -0.31 0.33 2.23 2.23 0 0 0 0 0.36l0 0.88c-0.09 0.69 -0.02 1.88 0.06 3.07ZM17 2.61c0 0.06 -0.06 0 -0.13 0s0.13 -0.05 0.13 0Zm-4.94 -0.82ZM7 7.33l0 -0.65 1 0 1.4 -0.16a6.72 6.72 0 0 1 1.19 0 2.35 2.35 0 0 1 0.67 0.15 0.2 0.2 0 0 1 0.11 0.16 2.63 2.63 0 0 1 0 0.62l0.09 3.13 0 1.37a3.16 3.16 0 0 0 0 0.87 11.7 11.7 0 0 1 -2.1 0.18A13.16 13.16 0 0 1 7 12.93c0 -0.51 0 -1.27 -0.06 -2.08C7 9.49 7 8 7 7.33Z" fill="#020202" stroke-width="1"></path>
    <path d="M13.46 4.45a0.49 0.49 0 0 0 -0.12 0.13c-0.11 0 -0.22 0.08 -0.29 0.27a3.71 3.71 0 0 0 -0.06 0.54c0 0.21 -0.09 0.45 -0.09 0.67a1.09 1.09 0 0 0 0.1 0.44 0.62 0.62 0 0 0 0.29 0.26 1.51 1.51 0 0 0 0.54 0.1 7.69 7.69 0 0 0 0.95 0.09 1.57 1.57 0 0 0 0.63 -0.16 0.71 0.71 0 0 0 0.33 -0.45 3.74 3.74 0 0 0 0 -0.57l0 -0.73 0 -0.35a0.6 0.6 0 0 0 -0.17 -0.29 0.61 0.61 0 0 0 -0.28 -0.12c-0.11 0 -0.44 -0.07 -0.43 0l-0.94 0a0.67 0.67 0 0 0 -0.46 0.17Zm0.16 1.43 0.06 0c0.06 0 -0.06 0.03 -0.06 0Zm1 0.18c-0.09 0 0 -0.09 0.06 -0.16 0.03 0.1 0.03 0.17 -0.04 0.16Zm0.1 -1.22 0 0.12c0 0.05 -0.05 -0.12 0.02 -0.12Zm-0.06 1 -0.85 0a0.3 0.3 0 0 0 -0.11 0l0 -0.46 0 -0.26a0.33 0.33 0 0 0 0.13 0l0.85 0.12 0 0.43a0.5 0.5 0 0 0 0 0.14Z" fill="#020202" stroke-width="1"></path>
    <path d="M16.07 8.6a0.83 0.83 0 0 0 -0.44 -0.46 1.85 1.85 0 0 0 -0.48 -0.08c-0.27 0 -0.58 0.06 -0.82 0.08h-0.26l-0.21 0a0.36 0.36 0 0 0 -0.35 0.2 0.42 0.42 0 0 0 0 0.18 0.46 0.46 0 0 0 -0.11 0.16 1.12 1.12 0 0 0 0 0.24l0 0.67 -0.1 0.55 0 0.34a0.45 0.45 0 0 0 0.16 0.3 0.61 0.61 0 0 0 0.38 0.15 2.74 2.74 0 0 0 0.5 0l0.8 0 0.48 0a0.85 0.85 0 0 0 0.45 -0.21 0.61 0.61 0 0 0 0.19 -0.29 2.26 2.26 0 0 0 0 -0.57 3.87 3.87 0 0 0 -0.19 -1.26Zm-2.3 1.4c0 -0.06 0 0 0.09 0l-0.09 0Zm1.27 0.12c-0.08 0 0 -0.08 0 -0.15 0.05 0.03 0.06 0.11 -0.04 0.11Zm0.05 -0.75c0 0.17 -0.05 0.32 -0.06 0.43h-0.13l-0.79 0.12v-0.35L14 8.9a0.21 0.21 0 0 0 0 -0.06l0.35 0.05 0.66 0a0.65 0.65 0 0 1 0.2 0s-0.08 0 0 0 -0.1 0.34 -0.12 0.44Zm0.12 0.46s0.09 -0.08 0.1 0 -0.04 -0.03 -0.1 -0.04Z" fill="#020202" stroke-width="1"></path>
    <path d="m13.98 8.84 -0.02 0 -0.01 0.01 0.01 0.02 0.01 -0.02 0.01 -0.01z" fill="#020202" stroke-width="1"></path>
    <path d="M15.34 15a3.4 3.4 0 0 1 -1.85 1.7 4.17 4.17 0 0 1 -1 0.24 3.15 3.15 0 0 1 -1.44 -0.08 3.42 3.42 0 0 1 -1.43 -0.74 3.22 3.22 0 0 1 -0.93 -1.36 0.34 0.34 0 0 0 -0.42 -0.23 0.34 0.34 0 0 0 -0.23 0.42A4 4 0 0 0 9 16.73a4.42 4.42 0 0 0 1.72 1.17 4 4 0 0 0 2 0.14 4.32 4.32 0 0 0 1.23 -0.44 4.06 4.06 0 0 0 2 -2.4 0.3 0.3 0 1 0 -0.55 -0.22Z" fill="#020202" stroke-width="1"></path>
    <path d="M7.7 8.81c0.16 0.09 0.55 0.27 0.59 0.29l0.27 0.08a1.42 1.42 0 0 0 0.41 0 6.38 6.38 0 0 0 1 -0.23 0.34 0.34 0 1 0 0 -0.67A7.7 7.7 0 0 0 9 8.07a1.36 1.36 0 0 0 -0.35 0 2 2 0 0 0 -0.24 0s-0.56 -0.06 -0.55 0.1a0.29 0.29 0 0 0 -0.31 0c-0.08 0.09 -0.22 0.44 0.15 0.64Zm0.3 -0.24a0.31 0.31 0 0 0 0 -0.19 0.17 0.17 0 0 1 0 0.19Zm0 -0.25a0.13 0.13 0 0 0 -0.09 -0.09Z" fill="#4C57E6" stroke-width="1"></path>
    <path d="M9.75 10.53a5.71 5.71 0 0 0 -0.91 -0.21 1.43 1.43 0 0 0 -0.29 0c-0.1 0 -0.19 0.06 -0.29 0.09s-0.22 0 -0.22 0.12a0.3 0.3 0 0 0 -0.31 -0.1 0.29 0.29 0 0 0 -0.2 0.37c0 0.12 0.09 0.18 0.17 0.27a1.33 1.33 0 0 0 0.56 0.25 1.77 1.77 0 0 0 0.31 0.08 0.76 0.76 0 0 0 0.3 0 7.19 7.19 0 0 0 0.88 -0.24 0.34 0.34 0 0 0 0 -0.68Z" fill="#4C57E6" stroke-width="1"></path>
    <path d="M22.76 11.73a0.58 0.58 0 0 0 -0.37 -0.35l-2.79 -0.17a0.3 0.3 0 0 0 -0.32 0.28 0.29 0.29 0 0 0 0.28 0.31l2.55 0.22c0 0.07 0.1 0.2 0.12 0.32a6.3 6.3 0 0 1 -0.09 2.4 8.72 8.72 0 0 1 -0.89 0c-0.49 0 -1 0 -1.55 -0.08a0.42 0.42 0 0 0 -0.44 0.32 7.39 7.39 0 0 1 -0.41 1.23 8.71 8.71 0 0 1 -0.63 1.14 0.45 0.45 0 0 0 0.06 0.56l0.87 1c0.16 0.19 0.3 0.36 0.41 0.51a3.06 3.06 0 0 1 -0.26 0.32 6 6 0 0 1 -1.48 1.14l-1.18 -1.21a0.56 0.56 0 0 0 -0.69 -0.09 6.49 6.49 0 0 1 -1.15 0.56 8.77 8.77 0 0 1 -1.26 0.34 0.57 0.57 0 0 0 -0.46 0.54L13 22.71a5.56 5.56 0 0 1 -2.15 0.1l-0.06 -1.74a0.57 0.57 0 0 0 -0.44 -0.55c-0.39 -0.09 -0.84 -0.19 -1.3 -0.33a8.92 8.92 0 0 1 -1.2 -0.46 0.53 0.53 0 0 0 -0.63 0.11l-1 1a5.89 5.89 0 0 1 -1.48 -1.14l-0.28 -0.28 1.06 -1.27a0.47 0.47 0 0 0 0.07 -0.55A5.87 5.87 0 0 1 5 16.39 6.79 6.79 0 0 1 4.71 15a0.44 0.44 0 0 0 -0.46 -0.38c-0.5 0 -1 0.06 -1.49 0.07a7.77 7.77 0 0 1 -0.84 0 6 6 0 0 1 -0.08 -2.38 1.77 1.77 0 0 1 0.07 -0.29l2.74 -0.22a0.34 0.34 0 1 0 0 -0.68l-3 0.19a0.64 0.64 0 0 0 -0.39 0.38A6.3 6.3 0 0 0 1 13.81a3.93 3.93 0 0 0 0.21 1.28 0.66 0.66 0 0 0 0.51 0.44 10 10 0 0 0 1.06 0l1.12 0a7.3 7.3 0 0 0 0.27 1.12 7.94 7.94 0 0 0 0.45 1.14L3.56 19a0.79 0.79 0 0 0 0 0.84 4.75 4.75 0 0 0 1 1.16 4.7 4.7 0 0 0 1.57 1 0.7 0.7 0 0 0 0.6 -0.1l1 -1a7.38 7.38 0 0 0 0.73 0.29c0.42 0.14 0.83 0.25 1.21 0.35l0 0.8c0 0.25 0 0.67 0.07 0.88a0.8 0.8 0 0 0 0.53 0.62 3.7 3.7 0 0 0 1.33 0.16 5.72 5.72 0 0 0 2.09 -0.34 0.77 0.77 0 0 0 0.45 -0.54l0 -1.63a9.75 9.75 0 0 0 1 -0.3 8 8 0 0 0 1 -0.45l1.14 1.13a0.73 0.73 0 0 0 0.61 0.11 4.9 4.9 0 0 0 1.52 -1 4.91 4.91 0 0 0 1 -1.17 0.77 0.77 0 0 0 0 -0.83 8.67 8.67 0 0 0 -0.61 -0.73q-0.32 -0.36 -0.69 -0.75a7.29 7.29 0 0 0 0.47 -1 7.06 7.06 0 0 0 0.35 -1l1.23 0a8.48 8.48 0 0 0 1.1 0 0.65 0.65 0 0 0 0.49 -0.42 4.27 4.27 0 0 0 0.2 -1.28 6.31 6.31 0 0 0 -0.19 -2.07ZM4.43 19.34c0.05 0 0 0 0 0.1s-0.04 -0.09 0 -0.1Z" fill="#020202" stroke-width="1"></path>
  </g>
</svg>