<svg xmlns="http://www.w3.org/2000/svg" viewBox="0 0 24 24" id="Real-Estate-Message-House--Streamline-Freehand">
  <desc>
    Real Estate Message House Streamline Icon: https://streamlinehq.com
  </desc>
  <title>real-estate-message-house</title>
  <g>
    <path d="m12.45 5.1 -0.09 0 0.09 0Z" fill="none" stroke-width="1"></path>
    <path d="M7.5 8.64Z" fill="none" stroke-width="1"></path>
    <path d="M7.42 8.74Z" fill="none" stroke-width="1"></path>
    <path d="m12.73 5.32 -0.24 -0.19s-0.19 0.06 -0.29 0.11c-0.28 0.17 -0.64 0.42 -1.06 0.72 -1.05 0.73 -2.42 1.75 -3.62 2.65l0 0.09 0 0.15 0 1.4 0 2.31A7.76 7.76 0 0 0 7.74 14c0 0.21 0.07 0.48 0.14 0.73a0.48 0.48 0 0 0 0.19 0.3 1.71 1.71 0 0 0 0.54 0.14c0.38 0.05 0.79 0.05 1.15 0.09 1 0.12 2 0.21 3.07 0.25a18.15 18.15 0 0 0 3 -0.11 0.57 0.57 0 0 0 0.48 -0.28 4.17 4.17 0 0 0 0.22 -1.41c0.08 -0.83 0.17 -3.34 0.2 -4.42l0 -0.44a0.19 0.19 0 0 1 0 -0.08c-0.6 -0.54 -1.27 -1.12 -1.9 -1.67 -0.77 -0.77 -1.56 -1.41 -2.1 -1.78Zm2 9.09a0.35 0.35 0 1 1 -0.69 0l0 -1.08a4.93 4.93 0 0 0 -0.07 -0.66 2.07 2.07 0 0 0 -1 -1.35 1.24 1.24 0 0 0 -1.43 0.07 1.54 1.54 0 0 0 -0.51 0.6 3.35 3.35 0 0 0 -0.28 0.9l-0.05 1.44 0 0.21a0.42 0.42 0 0 1 0 0.15 0.32 0.32 0 0 1 -0.3 0.32 0.37 0.37 0 0 1 -0.35 -0.2 1.29 1.29 0 0 1 -0.06 -0.48l-0.16 -1.51a3.54 3.54 0 0 1 0.29 -1.47 2.49 2.49 0 0 1 0.68 -0.88 2.28 2.28 0 0 1 2.71 -0.12 3 3 0 0 1 1.33 2.22Z" fill="none" stroke-width="1"></path>
    <path d="M13.46 10.35a2.28 2.28 0 0 0 -2.71 0.12 2.49 2.49 0 0 0 -0.68 0.88 3.54 3.54 0 0 0 -0.29 1.47l0.16 1.51a1.29 1.29 0 0 0 0.06 0.48 0.37 0.37 0 0 0 0.35 0.2 0.32 0.32 0 0 0 0.3 -0.32 0.42 0.42 0 0 0 0 -0.15l0 -0.21 0.05 -1.44a3.35 3.35 0 0 1 0.28 -0.9 1.54 1.54 0 0 1 0.51 -0.6 1.24 1.24 0 0 1 1.43 -0.07 2.07 2.07 0 0 1 1 1.35 4.93 4.93 0 0 1 0.07 0.66l0 1.08a0.35 0.35 0 1 0 0.69 0l0.1 -1.84a3 3 0 0 0 -1.32 -2.22Z" fill="#4C57E6" stroke-width="1"></path>
    <path d="M14.27 5.06a9.21 9.21 0 0 0 -1.21 -0.92 1.3 1.3 0 0 0 -0.63 -0.21 5.32 5.32 0 0 0 -2 1.09c-2 1.53 -5.12 4.43 -5.87 5a0.31 0.31 0 0 0 -0.09 0.42 0.32 0.32 0 0 0 0.43 0.09c0.32 -0.19 1.06 -0.74 2 -1.41l0 1.16c0 0.88 -0.14 1.81 -0.15 2.71a8.48 8.48 0 0 0 0.09 1.23A4.41 4.41 0 0 0 7 15.38a1.29 1.29 0 0 0 0.49 0.57 2.39 2.39 0 0 0 0.7 0.28c0.45 0.11 1 0.11 1.39 0.18a28.89 28.89 0 0 0 3.82 0.29 17.3 17.3 0 0 0 2.6 -0.22 1.53 1.53 0 0 0 1.24 -0.89 5.17 5.17 0 0 0 0.24 -1.8l0 -4.48c0.67 0.6 1.2 1.08 1.42 1.29a0.36 0.36 0 0 0 0.5 0 0.35 0.35 0 0 0 0 -0.49c-0.61 -0.62 -3.34 -3.5 -5.13 -5.05Zm-1.82 0 -0.09 0c0.01 0 0.04 0.01 0.09 0.04Zm4.33 3.7 0 0.44c0 1.08 -0.12 3.59 -0.2 4.42a4.17 4.17 0 0 1 -0.22 1.41 0.57 0.57 0 0 1 -0.48 0.28 18.15 18.15 0 0 1 -3 0.11c-1 0 -2.05 -0.13 -3.07 -0.25 -0.36 0 -0.77 0 -1.15 -0.09a1.71 1.71 0 0 1 -0.59 -0.08 0.48 0.48 0 0 1 -0.19 -0.3c-0.07 -0.25 -0.09 -0.52 -0.14 -0.73a7.76 7.76 0 0 1 -0.16 -1.45l0 -2.31 0 -1.4 0 -0.15 0.06 -0.06v0.1s0.08 -0.08 0 -0.09c1.2 -0.9 2.57 -1.92 3.62 -2.65 0.42 -0.3 0.78 -0.55 1.06 -0.72 0.1 0 0.25 -0.06 0.29 -0.11l0.24 0.19c0.54 0.37 1.33 1 2.18 1.73 0.63 0.55 1.3 1.13 1.9 1.67a0.19 0.19 0 0 0 -0.15 0.08Z" fill="#020202" stroke-width="1"></path>
    <path d="M23.7 9.67A9.1 9.1 0 0 0 21 4.79a0.35 0.35 0 0 0 -0.42 0.56 8.24 8.24 0 0 1 2.34 4.5 7.57 7.57 0 0 1 -0.38 5 11.23 11.23 0 0 1 -3.48 3.91 9.73 9.73 0 0 1 -4.83 1.83 14.93 14.93 0 0 1 -1.77 0 8.7 8.7 0 0 1 -1.72 -0.27 9.86 9.86 0 0 0 -1 -0.43 0.65 0.65 0 0 0 -0.62 0.17 14.81 14.81 0 0 1 -1.62 1.5 3.78 3.78 0 0 1 -1.17 0.62 3.23 3.23 0 0 1 -0.45 0.09l-0.16 0c0 -0.18 0.07 -0.44 0.09 -0.5A17.19 17.19 0 0 0 6.49 20a1.87 1.87 0 0 0 0 -1.19 1.31 1.31 0 0 0 -0.51 -0.47 9.86 9.86 0 0 0 -1.41 -0.61c-2 -0.71 -3 -2.9 -3.33 -5.25A9.24 9.24 0 0 1 2.61 6a11.63 11.63 0 0 1 7.48 -4.55 11.22 11.22 0 0 1 8.5 2.25 0.3 0.3 0 0 0 0.43 0 0.31 0.31 0 0 0 0 -0.44A12 12 0 0 0 10 0.64a12.5 12.5 0 0 0 -8.17 4.71 10.29 10.29 0 0 0 -1.77 7.23c0.3 2.82 1.65 5.42 4.08 6.23 0.15 0.06 1.53 0.27 1.3 0.59a1.49 1.49 0 0 1 -0.11 0.57c-0.18 0.56 -0.47 1.16 -0.58 1.51a5 5 0 0 0 -0.18 1 0.91 0.91 0 0 0 0.22 0.61 1.25 1.25 0 0 0 0.71 0.34 3.28 3.28 0 0 0 1.21 -0.14 4.91 4.91 0 0 0 1.53 -0.81 13.71 13.71 0 0 0 1.52 -1.4l0.76 0.32a10.2 10.2 0 0 0 1.93 0.27 15.29 15.29 0 0 0 1.92 0 10.72 10.72 0 0 0 5.31 -2.1 12.08 12.08 0 0 0 3.69 -4.3 8.36 8.36 0 0 0 0.33 -5.6Z" fill="#020202" stroke-width="1"></path>
  </g>
</svg>