<svg xmlns="http://www.w3.org/2000/svg" viewBox="0 0 24 24" id="Real-Estate-Action-Building-Key--Streamline-Freehand">
  <desc>
    Real Estate Action Building Key Streamline Icon: https://streamlinehq.com
  </desc>
  <title>real-estate-action-building-key</title>
  <g>
    <path d="M8.86 18.68c0.07 0 0.1 -0.08 0.1 -0.21 -0.11 0.08 -0.22 0.18 -0.1 0.21Z" fill="none" stroke-width="1"></path>
    <path d="M4.37 7c0.08 0 0.1 -0.07 0.1 -0.2 -0.11 0.05 -0.22 0.2 -0.1 0.2Z" fill="none" stroke-width="1"></path>
    <path d="M4.59 18.7c0.08 0 0.11 -0.08 0.11 -0.21 -0.12 0.08 -0.23 0.18 -0.11 0.21Z" fill="none" stroke-width="1"></path>
    <path d="M7.23 13a3.21 3.21 0 0 0 0.36 -0.07c0.38 -0.06 0.78 -0.18 1 -0.22l0.22 0c0 -0.23 -0.07 -0.48 -0.07 -0.53 0 -0.22 0.07 -0.46 0.09 -0.7v-0.19a2.13 2.13 0 0 0 -0.48 -0.09l-0.86 0 -0.05 0.06a1.71 1.71 0 0 1 0 0.23c0 0.24 -0.08 0.75 -0.1 1.2 -0.17 0.04 -0.21 0.37 -0.11 0.31Z" fill="none" stroke-width="1"></path>
    <path d="M3 13a2.18 2.18 0 0 0 0.36 -0.08c0.37 -0.05 0.77 -0.17 1 -0.21l0.21 0c0 -0.23 -0.07 -0.48 -0.06 -0.53 0 -0.23 0.07 -0.47 0.08 -0.7a1.21 1.21 0 0 0 0 -0.19 2 2 0 0 0 -0.59 -0.17l-0.86 0h-0.05l0 0.06 0 0.23c0 0.24 -0.08 0.75 -0.09 1.2 -0.09 0.14 -0.13 0.47 0 0.39Z" fill="none" stroke-width="1"></path>
    <path d="M8.65 13c0.08 0 0.11 -0.07 0.11 -0.2 -0.12 0.06 -0.23 0.2 -0.11 0.2Z" fill="none" stroke-width="1"></path>
    <path d="m4 5.09 -0.86 0h-0.07L3 5.1l0 0.23c0 0.24 -0.08 0.74 -0.09 1.2 0 0.19 0 0.52 0.06 0.47 0.07 0 0.25 -0.06 0.36 -0.08 0.37 0 0.77 -0.17 1 -0.21l0.21 -0.06c0 -0.22 -0.07 -0.47 -0.06 -0.53 0 -0.22 0.07 -0.46 0.08 -0.69a1.21 1.21 0 0 0 0 -0.19A2 2 0 0 0 4 5.09Z" fill="none" stroke-width="1"></path>
    <path d="M4.39 13c0.08 0 0.1 -0.07 0.1 -0.2 -0.11 0.08 -0.22 0.2 -0.1 0.2Z" fill="none" stroke-width="1"></path>
    <path d="M7.44 18.69a2 2 0 0 0 0.36 -0.07c0.37 0 0.77 -0.17 1 -0.21l0.2 -0.1c0 -0.22 -0.07 -0.47 -0.06 -0.53 0 -0.22 0.07 -0.46 0.08 -0.69C9 17 9 17 9 16.9a2.83 2.83 0 0 0 -0.47 -0.1l-0.86 0h-0.11a0.43 0.43 0 0 1 0 0.07l0 0.22c0 0.24 -0.08 0.75 -0.09 1.2 -0.1 0.13 -0.14 0.46 -0.03 0.4Z" fill="none" stroke-width="1"></path>
    <path d="m14.37 21.49 0 0.05Z" fill="none" stroke-width="1"></path>
    <path d="M1.38 3.39c-0.1 0 -0.14 0 -0.11 0.09s0.08 0 0.11 -0.09Z" fill="none" stroke-width="1"></path>
    <path d="M11.74 13.18Z" fill="none" stroke-width="1"></path>
    <path d="M14.44 17.1c-0.06 0 -0.08 0.07 -0.08 0.18 0.06 -0.06 0.16 -0.16 0.08 -0.18Z" fill="none" stroke-width="1"></path>
    <path d="M8.24 5.07C8 5 7.68 5.05 7.38 5l0 0.06a1.71 1.71 0 0 1 0 0.23c0 0.24 -0.09 0.75 -0.1 1.2 0 0.19 0 0.52 0.06 0.47a3.21 3.21 0 0 0 0.36 -0.07c0.38 -0.06 0.78 -0.18 1 -0.22l0.22 -0.05c0 -0.23 -0.07 -0.48 -0.07 -0.53 0 -0.23 0.07 -0.46 0.09 -0.7v-0.21a2.13 2.13 0 0 0 -0.7 -0.11Z" fill="none" stroke-width="1"></path>
    <path d="M14.33 21.45Z" fill="none" stroke-width="1"></path>
    <path d="m14.35 17.29 0.01 -0.01 -0.01 0.01z" fill="none" stroke-width="1"></path>
    <path d="M8.63 7c0.08 0 0.11 -0.07 0.11 -0.2 -0.12 0.03 -0.23 0.13 -0.11 0.2Z" fill="none" stroke-width="1"></path>
    <path d="M22.42 0.91a4 4 0 0 0 -0.64 0.1 5.75 5.75 0 0 0 -0.66 0.21l-0.62 0.7 -1.95 2.27 -1.24 1.31a0.38 0.38 0 0 1 -0.37 0.09 3 3 0 0 0 -1.36 -0.11 4.07 4.07 0 0 0 -1.29 0.52 2.42 2.42 0 0 0 -1.11 2.89 3.65 3.65 0 0 0 0.25 0.53c0.1 0.18 0.21 0.36 0.32 0.52a3.11 3.11 0 0 0 2.46 1.29 2.61 2.61 0 0 0 2.38 -1.12 3.25 3.25 0 0 0 0.41 -0.88 2.12 2.12 0 0 0 0 -0.86l-0.36 -1 -0.23 -0.3a0.57 0.57 0 0 1 0 -0.72 5.56 5.56 0 0 1 0.48 -0.55 1.49 1.49 0 0 1 0.41 -0.29 1.83 1.83 0 0 1 0.5 -0.12l0.84 0a3.85 3.85 0 0 1 -0.3 -0.34 1.2 1.2 0 0 1 -0.22 -0.49 0.57 0.57 0 0 1 0.3 -0.56 2.63 2.63 0 0 1 0.69 -0.1c0.06 0 0.5 0.1 0.85 0.14a7.22 7.22 0 0 1 -0.47 -0.9 0.8 0.8 0 0 1 0 -0.45 0.76 0.76 0 0 1 0.6 -0.55 3.73 3.73 0 0 1 0.77 0L22.51 0.9Zm-5.49 8.44a1.4 1.4 0 0 1 -1.35 0.14 1.91 1.91 0 0 1 -0.75 -1.12c-0.14 -0.71 0.84 -1.34 1.5 -1.15a1.25 1.25 0 0 1 0.6 2.13Z" fill="none" stroke-width="1"></path>
    <path d="M21.69 23.18Z" fill="none" stroke-width="1"></path>
    <path d="M21.69 23.18h-0.07a0.41 0.41 0 0 0 -0.07 0.11 0.21 0.21 0 0 1 0.14 -0.11Z" fill="none" stroke-width="1"></path>
    <path d="M21.24 4.31c-0.08 0.05 -0.06 0.13 0 0.23a0.17 0.17 0 0 0 0 -0.12s0.04 -0.14 0 -0.11Z" fill="none" stroke-width="1"></path>
    <path d="M22.2 4c0.13 0 0.21 0 0.19 -0.13s-0.13 0.07 -0.19 0.13Z" fill="none" stroke-width="1"></path>
    <path d="M3.17 18.71a1.88 1.88 0 0 0 0.36 -0.07c0.38 -0.06 0.78 -0.17 1 -0.21l0.22 -0.06c0 -0.22 -0.07 -0.47 -0.07 -0.53 0 -0.22 0.07 -0.46 0.09 -0.69v-0.19a1.72 1.72 0 0 0 -0.48 -0.1l-0.86 0 0 0.07a1.81 1.81 0 0 1 0 0.22c0 0.24 -0.09 0.75 -0.1 1.2 -0.22 0.09 -0.26 0.42 -0.16 0.36Z" fill="none" stroke-width="1"></path>
    <path d="M20.8 5.72c0.08 0 0.06 -0.09 0 -0.18 -0.09 0.11 -0.11 0.22 0 0.18Z" fill="none" stroke-width="1"></path>
    <path d="M16.33 7.22c-0.66 -0.19 -1.64 0.44 -1.5 1.15a1.91 1.91 0 0 0 0.75 1.12 1.4 1.4 0 0 0 1.35 -0.14 1.25 1.25 0 0 0 -0.6 -2.13Z" fill="#020202" stroke-width="1"></path>
    <path d="M19.8 6.57Z" fill="#020202" stroke-width="1"></path>
    <path d="M23.82 2.21c-0.09 -0.45 -0.46 -1.55 -0.49 -1.73A0.48 0.48 0 0 0 23 0a1.72 1.72 0 0 0 -0.6 0 3.57 3.57 0 0 0 -0.66 0.12 6.76 6.76 0 0 0 -0.9 0.3 1.39 1.39 0 0 0 -0.41 0.32c-0.18 0.2 -0.36 0.48 -0.49 0.65L18 3.76l-1 1.16a3.72 3.72 0 0 0 -1.51 -0.12 4.8 4.8 0 0 0 -1.58 0.5 3.26 3.26 0 0 0 -1.5 1.63 3.22 3.22 0 0 0 -0.1 2.23 5.79 5.79 0 0 0 0.29 0.68 6 6 0 0 0 0.35 0.61 4.13 4.13 0 0 0 3.18 1.81 3.66 3.66 0 0 0 3.39 -1.56 3.94 3.94 0 0 0 0.51 -1.18 3.19 3.19 0 0 0 0.09 -1.36c0 -0.12 -0.09 -0.34 -0.17 -0.56s-0.22 -0.61 -0.29 -0.76a0.41 0.41 0 0 0 -0.07 -0.11c0.08 -0.12 0.16 -0.2 0.2 -0.14a8.61 8.61 0 0 1 1.21 -0.1 2.25 2.25 0 0 0 0.48 -0.12 0.72 0.72 0 0 0 0.43 -1 1.2 1.2 0 0 0 -0.28 -0.37 5.06 5.06 0 0 0 1 0 0.62 0.62 0 0 0 0.54 -0.67 4.28 4.28 0 0 0 -0.37 -1.24 2.85 2.85 0 0 0 0.7 -0.1 0.64 0.64 0 0 0 0.32 -0.78Zm-3 3.51c-0.11 0 -0.09 -0.07 0 -0.18 0.04 0.09 0.06 0.16 -0.02 0.18Zm0.46 -1.3a0.17 0.17 0 0 1 0 0.12c-0.06 -0.1 -0.08 -0.18 0 -0.23s-0.02 0.09 -0.02 0.11ZM22.2 4c0.06 -0.08 0.17 -0.24 0.19 -0.13s-0.06 0.13 -0.19 0.13ZM22 2.11a0.76 0.76 0 0 0 -0.6 0.55 0.8 0.8 0 0 0 0 0.45 7.22 7.22 0 0 0 0.47 0.9c-0.35 0 -0.79 -0.15 -0.85 -0.14a2.63 2.63 0 0 0 -0.69 0.1 0.57 0.57 0 0 0 -0.29 0.58 1.2 1.2 0 0 0 0.22 0.49 3.85 3.85 0 0 0 0.3 0.34l-0.84 0a1.83 1.83 0 0 0 -0.5 0.12 1.49 1.49 0 0 0 -0.41 0.29 5.56 5.56 0 0 0 -0.48 0.55 0.57 0.57 0 0 0 0 0.72l0.23 0.3 0.36 1a2.12 2.12 0 0 1 -0.05 0.86 3.25 3.25 0 0 1 -0.36 0.87 2.61 2.61 0 0 1 -2.38 1.12 3.11 3.11 0 0 1 -2.46 -1.29c-0.11 -0.16 -0.22 -0.34 -0.32 -0.52a3.65 3.65 0 0 1 -0.25 -0.53A2.42 2.42 0 0 1 14.29 6a4.07 4.07 0 0 1 1.32 -0.47 3 3 0 0 1 1.39 0.1 0.38 0.38 0 0 0 0.37 -0.09l1.24 -1.31 1.89 -2.31 0.62 -0.7a5.75 5.75 0 0 1 0.66 -0.22 4 4 0 0 1 0.64 -0.1h0.09l0.29 1.17a3.73 3.73 0 0 0 -0.8 0.04Z" fill="#020202" stroke-width="1"></path>
    <path d="M21.69 23.18c0 -0.08 -0.06 -0.05 -0.1 0h0.07Z" fill="#020202" stroke-width="1"></path>
    <path d="M21.88 23.17a0.29 0.29 0 0 0 -0.16 0 0.21 0.21 0 0 0 -0.14 0.1 0.41 0.41 0 0 1 0.07 -0.11l-1.09 0c-1.58 0 -4.37 -0.22 -6.79 -0.3s-4.5 -0.06 -4.59 -0.05c-0.54 0.06 -1.09 0.11 -1.63 0.14 -1.3 0.09 -2.61 0.12 -3.9 0.2 -0.37 0 -1.82 0.14 -2.42 0.14l-0.17 0a0.4 0.4 0 0 0 -0.24 0 0.34 0.34 0 0 0 -0.19 0.44 0.7 0.7 0 0 0 0.57 0.26l2.48 0 3.91 0c0.57 0 1.14 0 1.7 -0.07 0.09 0 2.38 0.07 5 0.06 1.73 0 3.6 -0.08 5 -0.12 1.05 0 1.88 -0.05 2.28 -0.07a0.73 0.73 0 0 0 0.53 -0.24 0.32 0.32 0 0 0 -0.22 -0.38Z" fill="#020202" stroke-width="1"></path>
    <path d="M1 22.5c0 -1.88 0 -7.07 0.12 -11.62 0.06 -3.48 0.15 -6.58 0.26 -7.49l0.67 -0.09A38.88 38.88 0 0 1 6.77 3a29.41 29.41 0 0 1 3.14 0l0.4 0 0.11 0.82c0.07 0.65 0.24 4.83 0.38 9s0.27 8.32 0.24 9a0.35 0.35 0 0 0 0.33 0.36 0.35 0.35 0 0 0 0.36 -0.33l0 -8.58a3.16 3.16 0 0 0 0.91 0.07 3.24 3.24 0 0 0 0.69 0c0.38 -0.06 0.72 -0.17 1 -0.24a0.34 0.34 0 1 0 0 -0.68 8.76 8.76 0 0 0 -1.05 -0.18 3.27 3.27 0 0 0 -0.7 0 3.85 3.85 0 0 0 -0.87 0.25l0 -1.51c0 -3.56 -0.1 -6.73 -0.15 -7.3 0 -0.26 0 -0.63 -0.09 -0.92a1.41 1.41 0 0 0 -0.26 -0.58 1.59 1.59 0 0 0 -0.94 -0.36 37.45 37.45 0 0 0 -5.51 0A18.66 18.66 0 0 0 1 2.36c-0.48 0.17 -0.67 0.46 -0.7 0.64 -0.1 0.54 -0.15 2.94 -0.14 5.93 0 4.91 0.15 11.43 0.24 13.59a0.32 0.32 0 0 0 0.31 0.3 0.32 0.32 0 0 0 0.29 -0.32Zm10.73 -9.32ZM1.38 3.39c0 0.09 -0.07 0.15 -0.11 0.09s0.01 -0.07 0.11 -0.09Z" fill="#020202" stroke-width="1"></path>
    <path d="M19.91 22.57a0.35 0.35 0 0 0 0.36 -0.33c0 -0.29 0.13 -1.4 0.18 -2.76l0 -1.18 0 -1.18c-0.08 -1 -0.22 -2 -0.32 -2.74a0.31 0.31 0 1 0 -0.61 0c0 0.78 -0.14 1.74 -0.18 2.74l0 1.18c0 0.39 0 0.8 0.05 1.17 0.09 1.35 0.21 2.43 0.22 2.72a0.35 0.35 0 0 0 0.3 0.38Z" fill="#020202" stroke-width="1"></path>
    <path d="M2.9 6.91s0.01 -0.01 0 0Z" fill="#020202" stroke-width="1"></path>
    <path d="m2.93 6.96 0 -0.01 0 0.01z" fill="#020202" stroke-width="1"></path>
    <path d="M5.45 5.23a1.55 1.55 0 0 0 -0.13 -0.48 0.51 0.51 0 0 0 -0.22 -0.27 1.3 1.3 0 0 0 -0.44 -0.14 3 3 0 0 0 -0.5 0c-0.34 0 -0.66 0.06 -1 0.06a0.34 0.34 0 0 0 -0.31 0.17 0.35 0.35 0 0 0 -0.33 0.1c-0.1 0.07 -0.19 0.51 -0.21 0.63A13.3 13.3 0 0 0 2 6.9a1.1 1.1 0 0 0 0.18 0.68A1.13 1.13 0 0 0 3 8a6.45 6.45 0 0 0 1.44 -0.19l0.41 0a1.07 1.07 0 0 0 0.27 -0.09 0.72 0.72 0 0 0 0.35 -0.49 7.2 7.2 0 0 0 0 -1.09 6.78 6.78 0 0 0 -0.02 -0.91ZM4.37 7c-0.12 0 0 -0.13 0.1 -0.2 0 0.11 -0.02 0.2 -0.1 0.2Zm0.11 -1.59c0 0.23 -0.06 0.47 -0.08 0.69 0 0.06 0 0.31 0.06 0.53l-0.21 0.06c-0.19 0 -0.59 0.16 -1 0.21 -0.07 0 -0.25 0.1 -0.32 0.1L3 7s-0.06 -0.28 -0.06 -0.47c0 -0.46 0.09 -1 0.09 -1.2l0 -0.23 0 -0.06h0.05l0.86 0a2 2 0 0 1 0.47 0.09 1.21 1.21 0 0 1 0.07 0.26Z" fill="#020202" stroke-width="1"></path>
    <path d="M3.15 18.67z" fill="#020202" stroke-width="1"></path>
    <path d="M3.25 19.72a5.77 5.77 0 0 0 1.44 -0.19l0.41 0a0.94 0.94 0 0 0 0.28 -0.1 0.64 0.64 0 0 0 0.34 -0.48 7.31 7.31 0 0 0 0 -1.09l0 -0.9a1.47 1.47 0 0 0 -0.12 -0.48 0.61 0.61 0 0 0 -0.23 -0.28 2 2 0 0 0 -0.44 -0.14 2.89 2.89 0 0 0 -0.5 0c-0.34 0 -0.66 0 -1 0.06a0.35 0.35 0 0 0 -0.31 0.16 0.39 0.39 0 0 0 -0.33 0.1 2.19 2.19 0 0 0 -0.21 0.64 12.9 12.9 0 0 0 -0.34 1.64 1.08 1.08 0 0 0 0.17 0.68 1.13 1.13 0 0 0 0.84 0.38Zm1.34 -1c-0.12 0 0 -0.13 0.11 -0.21 0 0.11 -0.03 0.21 -0.11 0.19Zm-1.48 -0.46c0 -0.45 0.09 -1 0.1 -1.2a1.81 1.81 0 0 0 0 -0.22l0 -0.07 0.86 0a1.72 1.72 0 0 1 0.48 0.1v0.19c0 0.23 -0.07 0.47 -0.09 0.69 0 0.06 0 0.31 0.07 0.53l-0.22 0.06c-0.18 0 -0.58 0.15 -1 0.21a1.88 1.88 0 0 1 -0.36 0.07s0.16 -0.18 0.16 -0.38Z" fill="#020202" stroke-width="1"></path>
    <path d="M3.13 18.63s0 -0.02 0 0Z" fill="#020202" stroke-width="1"></path>
    <path d="M3.05 14a6.45 6.45 0 0 0 1.44 -0.19l0.41 0a0.62 0.62 0 0 0 0.27 -0.09 0.7 0.7 0 0 0 0.35 -0.49 7.35 7.35 0 0 0 0 -1.09l0 -0.9a1.55 1.55 0 0 0 -0.13 -0.48 0.51 0.51 0 0 0 -0.22 -0.27 1.57 1.57 0 0 0 -0.44 -0.14 3 3 0 0 0 -0.5 0c-0.34 0 -0.66 0.06 -1 0.06a0.34 0.34 0 0 0 -0.31 0.17 0.35 0.35 0 0 0 -0.33 0.1c-0.1 0.07 -0.19 0.51 -0.21 0.63A11.83 11.83 0 0 0 2 12.93a1 1 0 0 0 0.17 0.68 1.13 1.13 0 0 0 0.88 0.39Zm1.34 -1c-0.12 0 0 -0.13 0.1 -0.2 0 0.14 -0.02 0.2 -0.1 0.2Zm-1.48 -0.45c0 -0.45 0.09 -1 0.09 -1.2l0 -0.23 0 -0.06h0.05l0.86 0a2 2 0 0 1 0.47 0.09 1.21 1.21 0 0 1 0 0.19c0 0.23 -0.06 0.47 -0.08 0.7 0 0.05 0 0.3 0.06 0.53l-0.21 0c-0.19 0 -0.59 0.16 -1 0.21A2.18 2.18 0 0 1 3 13s-0.09 -0.25 -0.09 -0.44Z" fill="#020202" stroke-width="1"></path>
    <path d="m2.95 12.98 0 0.01 0 -0.01z" fill="#020202" stroke-width="1"></path>
    <path d="M2.92 12.94s0.01 -0.01 0 0Z" fill="#020202" stroke-width="1"></path>
    <path d="M7.17 6.9s0 -0.02 0 0Z" fill="#020202" stroke-width="1"></path>
    <path d="m7.19 6.94 0 -0.01 0 0.01z" fill="#020202" stroke-width="1"></path>
    <path d="M9.71 5.21a1.54 1.54 0 0 0 -0.12 -0.48 0.59 0.59 0 0 0 -0.23 -0.27 1.57 1.57 0 0 0 -0.44 -0.14 2.89 2.89 0 0 0 -0.5 0l-1 0a0.38 0.38 0 0 0 -0.31 0.17 0.36 0.36 0 0 0 -0.33 0.1 2 2 0 0 0 -0.21 0.63 13.48 13.48 0 0 0 -0.34 1.65 1.1 1.1 0 0 0 0.17 0.68 1.13 1.13 0 0 0 0.9 0.43 6.29 6.29 0 0 0 1.43 -0.18l0.41 0a0.71 0.71 0 0 0 0.28 -0.09 0.66 0.66 0 0 0 0.34 -0.49 7.35 7.35 0 0 0 0 -1.09c-0.04 -0.3 -0.01 -0.62 -0.05 -0.92ZM8.63 7c-0.12 0 0 -0.13 0.11 -0.2 0 0.09 -0.03 0.2 -0.11 0.2Zm0.12 -1.59c0 0.24 -0.07 0.47 -0.09 0.7 0 0 0.05 0.3 0.07 0.53l-0.22 0.05c-0.18 0 -0.58 0.16 -1 0.22a3.21 3.21 0 0 1 -0.36 0.07s-0.06 -0.28 -0.06 -0.47c0 -0.45 0.09 -1 0.1 -1.2a1.71 1.71 0 0 0 0 -0.23l0 -0.06c0.3 0 0.58 0 0.86 0.05a2.13 2.13 0 0 1 0.48 0.09Z" fill="#020202" stroke-width="1"></path>
    <path d="M7.52 19.71a6.38 6.38 0 0 0 1.48 -0.2l0.41 0a1.07 1.07 0 0 0 0.27 -0.09 0.69 0.69 0 0 0 0.34 -0.49 7.35 7.35 0 0 0 0 -1.09 6.76 6.76 0 0 0 0 -0.9 1.89 1.89 0 0 0 -0.13 -0.48 0.59 0.59 0 0 0 -0.22 -0.28 1.9 1.9 0 0 0 -0.53 -0.18 4.21 4.21 0 0 0 -0.5 0c-0.34 0 -0.65 0 -1 0.06a0.34 0.34 0 0 0 -0.31 0.16 0.38 0.38 0 0 0 -0.33 0.1 1.73 1.73 0 0 0 -0.21 0.64 12.72 12.72 0 0 0 -0.35 1.64 1.21 1.21 0 0 0 0.17 0.69 1.2 1.2 0 0 0 0.91 0.42Zm1.34 -1c-0.12 0 0 -0.13 0.1 -0.21 0.04 0.1 -0.03 0.2 -0.1 0.18Zm-1.48 -0.46c0 -0.45 0.09 -1 0.09 -1.2l0 -0.22a0.43 0.43 0 0 0 0 -0.07h0.05l0.86 0a2.83 2.83 0 0 1 0.47 0.1C9 17 9 17 9 17.09c0 0.23 -0.06 0.47 -0.08 0.69 0 0.06 0 0.31 0.06 0.53l-0.21 0.06c-0.19 0 -0.59 0.16 -1 0.21a2 2 0 0 1 -0.36 0.07s-0.04 -0.23 -0.03 -0.43Z" fill="#020202" stroke-width="1"></path>
    <path d="M7.39 18.61s0.01 -0.01 0 0Z" fill="#020202" stroke-width="1"></path>
    <path d="M7.42 18.65z" fill="#020202" stroke-width="1"></path>
    <path d="M7.31 14a6.29 6.29 0 0 0 1.44 -0.19l0.41 0a0.7 0.7 0 0 0 0.62 -0.58 7.35 7.35 0 0 0 0 -1.09l0 -0.9a1.54 1.54 0 0 0 -0.12 -0.48 0.59 0.59 0 0 0 -0.23 -0.27 2 2 0 0 0 -0.44 -0.14 2.89 2.89 0 0 0 -0.5 0c-0.34 0 -0.66 0 -1 0.06a0.35 0.35 0 0 0 -0.31 0.16 0.36 0.36 0 0 0 -0.33 0.1 2 2 0 0 0 -0.21 0.64 12.9 12.9 0 0 0 -0.34 1.64 1.1 1.1 0 0 0 0.17 0.68 1.13 1.13 0 0 0 0.84 0.37Zm1.34 -1c-0.12 0 0 -0.13 0.11 -0.2 0 0.12 -0.03 0.2 -0.11 0.2Zm-1.48 -0.45c0 -0.45 0.09 -1 0.1 -1.2a1.71 1.71 0 0 0 0 -0.23l0.05 -0.06 0.86 0a2.13 2.13 0 0 1 0.48 0.09v0.19c0 0.24 -0.06 0.48 -0.09 0.7 0 0.05 0.05 0.3 0.07 0.53l-0.22 0c-0.18 0 -0.58 0.16 -1 0.22a3.21 3.21 0 0 1 -0.36 0.07s0.11 -0.13 0.11 -0.32Z" fill="#020202" stroke-width="1"></path>
    <path d="M7.19 12.93s0 -0.02 0 0Z" fill="#020202" stroke-width="1"></path>
    <path d="m7.21 12.97 0 -0.01 0 0.01z" fill="#020202" stroke-width="1"></path>
    <path d="m14.37 21.49 0 -0.06Z" fill="#4C57E6" stroke-width="1"></path>
    <path d="m14.36 17.28 0.01 -0.01 0 0.01 -0.01 0z" fill="#4C57E6" stroke-width="1"></path>
    <path d="M16.74 18c0.05 0.71 0.11 1.44 0.14 2.16l0 1.43a0.35 0.35 0 0 0 0.69 0l0.19 -3.59a5.29 5.29 0 0 0 0 -0.88 1 1 0 0 0 -0.35 -0.6 2.24 2.24 0 0 0 -0.84 -0.43 5.74 5.74 0 0 0 -1.2 -0.12 3.46 3.46 0 0 0 -1.09 0.13 1.55 1.55 0 0 0 -0.79 0.52 0.57 0.57 0 0 0 -0.14 0.33l0 0.75c0 0.38 0 0.78 0.06 1.18s0.08 0.79 0.14 1.17c0 0.17 0.11 1.2 0.21 1.58a0.73 0.73 0 0 0 0.11 0.26q0.22 0.25 0.45 0.06a0.3 0.3 0 0 0 0.08 -0.4s0 0 0 -0.05l0 -1.52 0 -1.12c0 -0.38 0 -0.75 0.06 -1.1l0 -0.45c0 -0.11 0 -0.19 0.08 -0.18s0 0.12 -0.07 0.17a0.8 0.8 0 0 1 0.33 -0.11 2.23 2.23 0 0 1 0.6 -0.05 5 5 0 0 1 1 0.07 1.15 1.15 0 0 1 0.37 0.15c-0.27 0.08 -0.04 0.47 -0.03 0.64Z" fill="#4C57E6" stroke-width="1"></path>
  </g>
</svg>