<svg xmlns="http://www.w3.org/2000/svg" viewBox="0 0 24 24" id="Religion-Islamics-Kaaba--Streamline-Freehand">
  <desc>
    Religion Islamics Kaaba Streamline Icon: https://streamlinehq.com
  </desc>
  <path d="M16 14.28c0.86 -0.5 1.72 -1 2.55 -1.55 1.23 -0.81 2.4 -1.68 3.53 -2.55 0.28 -0.41 0.08 -0.71 -0.28 -0.54 -1.15 0.69 -2.1 1.12 -3.31 1.82l-1.59 1c-0.53 0.33 -1 0.67 -1.57 1 -0.75 0.5 -2.26 1.35 -3.09 1.81a1.23 1.23 0 0 1 -1.15 0c-0.8 -0.39 -2.18 -1.07 -2.87 -1.47s-1.62 -0.94 -2.45 -1.38c-1.13 -0.61 -1.87 -0.91 -3 -1.47 -0.56 -0.27 -0.72 0.4 -0.1 0.75 0.8 0.53 1.26 0.88 2.08 1.39 0.5 0.31 1 0.6 1.53 0.89s1 0.56 1.56 0.82c0.8 0.4 2.48 1.16 3.35 1.56a1.24 1.24 0 0 0 1.11 0c0.88 -0.54 2.76 -1.55 3.7 -2.08Z" fill="#4C57E6" fill-rule="evenodd" stroke-width="1"></path>
  <path d="m23 8.91 0 -3.1a0.4 0.4 0 0 0 -0.24 -0.38C20.09 4.19 17.58 2.9 15 1.64 13.88 1.11 12.76 0.58 11.61 0.06a0.54 0.54 0 0 0 -0.52 0.06C8.81 1.73 4.31 4.67 2.33 6c-0.43 0.28 -0.75 0.48 -0.89 0.59a0.79 0.79 0 0 0 -0.35 0.67l0.06 10.36a0.55 0.55 0 0 0 0.27 0.47L12 24a0.46 0.46 0 0 0 0.44 0c1.58 -1 3 -1.93 4.31 -2.87s6.11 -4.48 6.29 -4.75c0.09 -0.15 -0.04 -5.38 -0.04 -7.47Zm-20 -2c1.92 -1.27 6.17 -4.11 8.51 -5.77 0.67 0.28 1.33 0.57 2 0.87 2.79 1.26 5.45 2.56 8.29 3.82 -1.1 0.62 -2.22 1.21 -3.32 1.83 -0.86 0.48 -1.72 1 -2.56 1.5 -1.42 0.87 -2.78 1.81 -4.14 2.77 -0.36 -0.13 -0.72 -0.38 -3.37 -1.81 -0.51 -0.28 -1 -0.56 -1.56 -0.83s-1 -0.53 -1.58 -0.78L2.45 7.26Zm13.31 13.52c-1.2 0.82 -2.45 1.63 -3.83 2.47l0 -3c0.35 -0.15 0.69 -0.27 1 -0.44a3 3 0 0 0 0.42 -0.26 3 3 0 0 0 0.39 -0.31c0.3 -0.26 0.57 -0.54 0.85 -0.82a0.34 0.34 0 0 0 -0.39 -0.55c-0.36 0.17 -0.71 0.31 -1.06 0.49l-0.43 0.25a3.68 3.68 0 0 0 -0.39 0.3 4.67 4.67 0 0 0 -0.44 0.45c0 -0.44 -0.16 -1.32 -0.19 -1.7 -0.18 -1 -0.93 -0.68 -0.93 -0.14l0 1.87 -0.31 -0.22a5.7 5.7 0 0 0 -0.69 -0.37 9.63 9.63 0 0 0 -1.29 -0.4 0.3 0.3 0 0 0 -0.28 0.53c0.31 0.26 0.58 0.52 0.91 0.76a3.78 3.78 0 0 0 0.43 0.26 3.9 3.9 0 0 0 0.47 0.2c0.28 0.1 0.57 0.17 0.85 0.24 0.09 0.9 0.19 1.8 0.29 2.72l-9.46 -5.48V15.5l0.06 0.05a3.73 3.73 0 0 0 0.39 0.25 4 4 0 0 0 0.43 0.19c0.43 0.17 0.81 0.27 1.08 0.35a0.34 0.34 0 0 0 0.45 -0.16 0.34 0.34 0 0 0 -0.15 -0.45c-0.22 -0.16 -0.51 -0.42 -0.87 -0.67a2.65 2.65 0 0 0 -0.39 -0.26 2.39 2.39 0 0 0 -0.43 -0.2 5.27 5.27 0 0 0 -0.57 -0.18c0 -1.61 -0.23 -4.65 -0.23 -6.25 0.79 0.51 1.86 0.83 2.7 1.33 0.52 0.29 1 0.56 1.57 0.83s1.06 0.52 1.6 0.76c1.14 0.52 2.3 1 3.45 1.49 0 0.93 -0.07 1.1 -0.08 2s0.77 0.82 0.79 0.13c-0.08 -0.89 0 -1.08 0 -2a0.32 0.32 0 0 0 0.14 -0.14 0.29 0.29 0 0 0 0 -0.09c1.27 -0.74 2.57 -1.41 3.84 -2.12 0.87 -0.48 1.74 -1 2.58 -1.49 1.26 -0.79 2.47 -1.66 3.66 -2.55l0 1.56c0 0.56 0.13 4.07 0.16 5a0.34 0.34 0 0 0 -0.17 0.05c-0.32 0.14 -0.62 0.26 -0.93 0.43 -0.12 0.07 -0.25 0.14 -0.36 0.22a3 3 0 0 0 -0.33 0.28c-0.25 0.25 -0.43 0.52 -0.66 0.79a0.3 0.3 0 0 0 0.35 0.48 10 10 0 0 0 0.95 -0.4 2.21 2.21 0 0 0 0.36 -0.23c0.12 -0.09 0.22 -0.18 0.33 -0.28s0.33 -0.35 0.49 -0.53l0 2.33c-2.2 1.62 -4.1 3.03 -6.13 4.41Z" fill="#020202" fill-rule="evenodd" stroke-width="1"></path>
</svg>