<svg xmlns="http://www.w3.org/2000/svg" viewBox="0 0 24 24" id="Religion-Shinto-Shrine-Gate--Streamline-Freehand">
  <desc>
    Religion Shinto Shrine Gate Streamline Icon: https://streamlinehq.com
  </desc>
  <g>
    <path d="M2.18 1.23a18.33 18.33 0 0 0 3 0.87c1.54 0.32 3.12 0.49 4.64 0.68a37.57 37.57 0 0 0 4 0.21 25.82 25.82 0 0 0 2.66 -0.18A18.81 18.81 0 0 0 22.86 0.93 0.32 0.32 0 0 0 23 0.5a0.31 0.31 0 0 0 -0.42 -0.14 17.64 17.64 0 0 1 -4.93 1.35 26.08 26.08 0 0 1 -3.85 0.21c-1.3 0 -2.59 -0.06 -3.88 -0.17 -1.51 -0.09 -3.07 -0.17 -4.6 -0.39a18.48 18.48 0 0 1 -3 -0.65 0.28 0.28 0 1 0 -0.18 0.52Z" fill="#020202" fill-rule="evenodd" stroke-width="1"></path>
    <path d="M3.13 10.62a1.85 1.85 0 0 0 -0.62 0 2.22 2.22 0 0 1 -0.66 0c-0.56 0 -0.64 0 -0.7 0.56 0 0.3 -0.08 0.75 -0.16 1.39l0 0.41a1.8 1.8 0 0 0 0.13 0.89 1.05 1.05 0 0 0 0.94 0.54 0.32 0.32 0 0 0 0.14 -0.62 0.67 0.67 0 0 1 -0.3 -0.2s0 -0.05 0 -0.08a1 1 0 0 1 0.1 -0.16 5.83 5.83 0 0 0 0.09 -0.69c0 -0.25 0 -0.49 -0.05 -0.73s0 -0.2 -0.07 -0.31a4.68 4.68 0 0 0 0.54 0.07h0.37l0.38 -0.07a0.52 0.52 0 0 0 -0.13 -1Z" fill="#4C57E6" fill-rule="evenodd" stroke-width="1"></path>
    <path d="M4.44 8.06a0.28 0.28 0 0 0 -0.3 0.26 31.47 31.47 0 0 1 -0.73 4c-0.23 1 -0.5 2 -0.79 2.95s-0.57 2 -0.89 2.93 -0.5 1.8 -0.83 2.67a5.93 5.93 0 0 1 -0.83 1.55 0.31 0.31 0 0 0 0 0.44 0.31 0.31 0 0 0 0.44 0 6.56 6.56 0 0 0 1 -1.66c0.41 -0.86 0.7 -1.78 1 -2.62 0.25 -0.65 0.5 -1.3 0.71 -2a25.05 25.05 0 0 0 0.8 -3 29.14 29.14 0 0 0 0.56 -5.2 0.28 0.28 0 0 0 -0.14 -0.32Z" fill="#020202" fill-rule="evenodd" stroke-width="1"></path>
    <path d="M7.37 13.77A38.29 38.29 0 0 0 7 8.52a0.28 0.28 0 0 0 -0.56 0l0 2.22c0 0.75 -0.09 1.73 -0.13 2.59s-0.06 1.74 -0.09 2.6c0 1.13 -0.15 2.29 -0.13 3.43a7.85 7.85 0 0 0 0.16 1.45 0.21 0.21 0 0 0 -0.13 0 10 10 0 0 1 -2.12 0.98c-0.29 0.1 -0.59 0.2 -0.88 0.32l-0.59 0.25c-0.53 0.24 -1 0.49 -1.57 0.78a0.27 0.27 0 0 0 -0.15 0.36 0.29 0.29 0 0 0 0.36 0.16c0.67 -0.19 1.35 -0.29 2 -0.47a9 9 0 0 0 1.32 -0.47c1.28 -0.59 2.43 -1.63 2.38 -1.9a6.56 6.56 0 0 1 0 -1.4c0.07 -1.15 0.32 -2.29 0.41 -3.41 0.12 -2.73 0.09 -2.14 0.09 -2.24Z" fill="#020202" fill-rule="evenodd" stroke-width="1"></path>
    <path d="M10.35 10a2.16 2.16 0 0 0 0 -0.36 2 2 0 0 0 -0.06 -0.35 3.93 3.93 0 0 0 -0.38 -0.77 0.28 0.28 0 0 0 -0.32 -0.22 0.29 0.29 0 0 0 -0.22 0.34c0 0.28 -0.08 0.52 -0.09 0.79a1.82 1.82 0 0 0 0 0.33 1.8 1.8 0 0 1 0.06 0.32 0.68 0.68 0 0 0 0.19 0.54c0.2 0.37 0.42 0.34 0.65 0a3.33 3.33 0 0 0 0.17 -0.62Z" fill="#020202" fill-rule="evenodd" stroke-width="1"></path>
    <path d="M13.26 10.28a4.22 4.22 0 0 0 0 -0.62c0 -0.37 -0.14 -0.71 -0.2 -1.07a0.28 0.28 0 0 0 -0.26 -0.3 0.27 0.27 0 0 0 -0.29 0.27 7.69 7.69 0 0 0 -0.29 0.93 2.83 2.83 0 0 0 0 0.41 3 3 0 0 0 0 0.42c0.16 0.82 1 0.29 1.04 -0.04Z" fill="#020202" fill-rule="evenodd" stroke-width="1"></path>
    <path d="M7.6 11.26a0.39 0.39 0 0 0 -0.14 0.05c-0.14 0.18 -0.2 0.35 0.06 0.48l0.07 0a21.55 21.55 0 0 0 2.79 0.15c0.61 0 1.22 -0.06 1.83 -0.08l2.94 -0.13c0.45 -0.09 0.3 -0.59 -0.25 -0.66a21.27 21.27 0 0 0 -7.3 0.19Z" fill="#4C57E6" fill-rule="evenodd" stroke-width="1"></path>
    <path d="M20.74 12a0.7 0.7 0 0 1 0.38 0.38 2.72 2.72 0 0 1 0.28 0.77 4.5 4.5 0 0 1 0.11 0.64c0 0.23 0 0.45 0.06 0.68a0.32 0.32 0 0 0 0.31 0.32 0.32 0.32 0 0 0 0.33 -0.31l0.1 -1.45a3.07 3.07 0 0 0 -0.24 -1.13A1.5 1.5 0 0 0 21 11a2.74 2.74 0 0 0 -1.59 0.25c-0.34 0.22 -0.19 0.65 0.21 0.68a2.26 2.26 0 0 1 1.12 0.07Z" fill="#4C57E6" fill-rule="evenodd" stroke-width="1"></path>
    <path d="M20.89 15.92h0.18a0.52 0.52 0 0 0 0.16 -0.06c0.69 -0.32 0.68 -0.45 0.67 -0.59s-0.06 -0.28 -0.8 -0.4a0.55 0.55 0 0 0 -0.18 0 0.59 0.59 0 0 0 -0.19 0.05 1 1 0 0 0 -0.22 0.16c-0.36 0.41 -0.36 0.71 0.28 0.81Z" fill="#4C57E6" fill-rule="evenodd" stroke-width="1"></path>
    <path d="M23.9 21.64a15.57 15.57 0 0 1 -2.9 -4.27 25 25 0 0 1 -1.43 -4.2A19.56 19.56 0 0 1 19 8.05h0.11a4.1 4.1 0 0 0 0.75 0 1 1 0 0 0 0.52 -0.17 5.13 5.13 0 0 0 0.83 -0.88A15.38 15.38 0 0 0 22 5.61l1.83 -3.47a0.32 0.32 0 0 0 -0.13 -0.43 0.33 0.33 0 0 0 -0.43 0.14l-1.91 3.38a11 11 0 0 1 -0.83 1.3c-0.39 0.52 -0.46 0.65 -1.38 0.6l-1.68 0H15.8c-1.32 0 -2.64 0.07 -4 0.08s-2.63 0 -3.95 0c-0.77 0 -1.75 0.08 -2.69 0C4 7.18 3.73 7.2 3.38 6c-0.26 -0.84 -0.53 -1.67 -0.78 -2.51 -0.17 -0.49 -0.33 -1.09 -0.47 -1.65a0.28 0.28 0 0 0 -0.33 -0.22 0.29 0.29 0 0 0 -0.21 0.38l1.06 4.22a7.79 7.79 0 0 0 0.25 1 0.83 0.83 0 0 0 0.34 0.44 5.63 5.63 0 0 0 1.9 0.42c1 0.08 2 0 2.73 0.07 1.33 0 2.66 0.06 4 0.05s2.41 -0.06 3.62 -0.11l0 2c0.07 2.58 0.09 1.76 0.11 3.23 0 0.45 0.15 3.2 0.2 3.84 0.09 1.3 0.22 2.59 0.42 3.87a0.31 0.31 0 0 0 0.35 0.28l0.06 0a0.27 0.27 0 0 0 0.17 0.14c0.69 0.29 1.32 0.7 2 1l0.55 0.22a10.8 10.8 0 0 0 1.05 0.33c0.82 0.16 1.65 0.22 2.45 0.42a0.32 0.32 0 0 0 0.41 -0.19 0.34 0.34 0 0 0 -0.2 -0.41c-0.45 -0.2 -0.92 -0.35 -1.39 -0.51l-1 -0.32c-0.33 -0.1 -0.67 -0.18 -1 -0.29 -0.55 -0.14 -1.07 -0.32 -1.6 -0.48 -0.38 -0.11 -0.75 -0.21 -1.14 -0.29l-0.11 0c0 -0.49 0 -1 -0.07 -1.47l0 -3.69c0 -0.83 -0.06 -1.65 -0.1 -2.48 -0.12 -1.26 -0.32 -2.5 -0.45 -3.76 -0.06 -0.47 -0.1 -0.95 -0.13 -1.43l1.44 -0.06h1a18 18 0 0 0 0.08 5.33 15 15 0 0 0 0.6 2.28 14.25 14.25 0 0 0 0.94 2.16 15.09 15.09 0 0 0 3.4 4.28 0.31 0.31 0 0 0 0.43 -0.46Z" fill="#020202" fill-rule="evenodd" stroke-width="1"></path>
    <path d="m12.72 14.52 -1.2 0 -1.19 0c-0.94 0 -1.86 0.13 -2.79 0.18a0.37 0.37 0 0 0 0 0.53l0.06 0c0.93 0.1 1.86 0.22 2.8 0.28l1.2 0 1.2 0c0.92 0 1.75 -0.14 2.68 -0.22 0.36 -0.1 0.2 -0.56 -0.16 -0.64 -0.99 -0.03 -1.69 -0.1 -2.6 -0.13Z" fill="#4C57E6" fill-rule="evenodd" stroke-width="1"></path>
  </g>
</svg>