<svg xmlns="http://www.w3.org/2000/svg" viewBox="0 0 24 24" id="Religion-Islamics-Couple--Streamline-Freehand">
  <desc>
    Religion Islamics Couple Streamline Icon: https://streamlinehq.com
  </desc>
  <g>
    <path d="M10 6.3c-0.29 -0.09 -0.56 -0.19 -0.83 -0.3a4.42 4.42 0 0 1 -0.75 -0.39l-0.7 -0.51c-0.25 -0.14 -1 0.4 -1.24 0.58a3.66 3.66 0 0 1 -0.66 0.45c-0.83 0.42 -1.18 0.37 -1.18 0.69s0 0.94 -0.06 1.41a8 8 0 0 0 0 1 3.59 3.59 0 0 0 0.11 0.72 1.73 1.73 0 0 0 0.29 0.53 3.25 3.25 0 0 0 2.4 1.08 3.14 3.14 0 0 0 2.41 -1 3.45 3.45 0 0 0 0.7 -1.39 5.47 5.47 0 0 0 0 -2.17s-0.24 -0.66 -0.49 -0.7Zm-0.24 2.29a2.32 2.32 0 0 1 -0.67 1.23 2.25 2.25 0 0 1 -1.67 0.59 2.29 2.29 0 0 1 -1.66 -0.62 1.06 1.06 0 0 1 -0.17 -0.26 3.74 3.74 0 0 1 -0.12 -0.45 8.49 8.49 0 0 1 -0.14 -0.88c0 -0.39 -0.06 -0.78 -0.09 -1.17a7.48 7.48 0 0 0 1 -0.18A4.93 4.93 0 0 0 7 6.57l0.47 -0.3 0.53 0.28a5.36 5.36 0 0 0 0.77 0.23 8.19 8.19 0 0 0 1.09 0.16s0 0.06 0 0.09a4.81 4.81 0 0 1 -0.1 1.56Z" fill="#020202" fill-rule="evenodd" stroke-width="1"></path>
    <path d="M14.67 15.09a5.64 5.64 0 0 0 -0.49 -1.54 4.79 4.79 0 0 0 -0.67 -1c-0.34 -0.37 -0.72 -0.71 -1.1 -1.05l0.11 -3.5a11.77 11.77 0 0 0 0 -2 4 4 0 0 0 -0.42 -1.36A5.16 5.16 0 0 0 8.1 2a4.6 4.6 0 0 0 -4.37 2A5.59 5.59 0 0 0 3 5.83a13.54 13.54 0 0 0 -0.15 2.84l0 1.32c0 0.25 0 0.5 0.07 0.75a3.9 3.9 0 0 0 -1.23 0.18 2.64 2.64 0 0 0 -1.16 0.81 2.14 2.14 0 0 0 -0.47 2 1.87 1.87 0 0 0 1.07 1.14 7.11 7.11 0 0 0 -0.51 1.76 8.46 8.46 0 0 0 -0.11 0.88l0 1.28c0 0.61 0 1.25 0.06 1.89A9.09 9.09 0 0 0 0.72 22a0.33 0.33 0 1 0 0.66 -0.08l0 -0.9c0.05 -0.73 0.16 -1.47 0.23 -2.17l0 -1.49a11.37 11.37 0 0 1 0 -1.43 7.93 7.93 0 0 1 0.14 -0.85c2.35 0.24 3.08 -2.73 1.57 -3.93a0.27 0.27 0 0 0 0.18 -0.28 8.1 8.1 0 0 1 0 -0.85l0 -1.3A12.55 12.55 0 0 1 3.87 6a4.22 4.22 0 0 1 0.69 -1.49A3.65 3.65 0 0 1 8 3.14a4.19 4.19 0 0 1 3.23 2 2.73 2.73 0 0 1 0.37 1A10.75 10.75 0 0 1 11.68 8l0.06 3.67A0.31 0.31 0 0 0 12 12a11.57 11.57 0 0 1 0.89 1.1 3.88 3.88 0 0 1 0.44 0.86 9.4 9.4 0 0 1 0.31 3.45c0 0.91 0 1.83 0.08 2.74 0 0.62 0.07 1.24 0.13 1.84a0.33 0.33 0 0 0 0.35 0.32 0.33 0.33 0 0 0 0.31 -0.35c0 -0.6 0 -1.2 0.06 -1.8 0 -0.91 0.12 -1.82 0.18 -2.72a12.64 12.64 0 0 0 -0.08 -2.35ZM3.18 13.27a1.06 1.06 0 0 1 -1.24 0.67 0.94 0.94 0 0 1 -0.81 -0.57 1.23 1.23 0 0 1 0.16 -1.11 1.7 1.7 0 0 1 0.71 -0.65c1.28 -0.61 1.48 0.96 1.18 1.66Z" fill="#020202" fill-rule="evenodd" stroke-width="1"></path>
    <path d="M10.27 15c-0.84 -0.13 -1.68 -0.29 -2.5 -0.47a11.49 11.49 0 0 1 -3.1 -1c-0.47 -0.11 -0.8 0.19 -0.41 0.54A10.22 10.22 0 0 0 7 15.38a13 13 0 0 0 1.63 0.42 15.37 15.37 0 0 0 1.66 0.21 23.45 23.45 0 0 0 2.9 0.07c0.56 0 0.33 -0.69 -0.11 -0.8 -1.08 -0.08 -1.81 -0.18 -2.81 -0.28Z" fill="#4C57E6" fill-rule="evenodd" stroke-width="1"></path>
    <path d="M18 8.22a2.34 2.34 0 0 0 -0.81 -0.22 2.41 2.41 0 0 0 -0.79 0.12 4.84 4.84 0 0 0 -0.66 0.28c-0.51 0.28 -0.4 0.2 -0.84 0.13s-0.48 0.31 -0.17 0.68l0.18 0.09a2.48 2.48 0 0 0 0.35 0.13 0.6 0.6 0 0 0 0.27 0 4.43 4.43 0 0 0 0.56 -0.15 5.15 5.15 0 0 1 0.68 -0.15 1.64 1.64 0 0 1 0.38 0 1.29 1.29 0 0 1 0.48 0.1 4.43 4.43 0 0 1 0.83 0.38 0.77 0.77 0 0 0 0.34 0.09 3.61 3.61 0 0 0 0.48 -0.1l0.44 -0.15c0.33 -0.14 0.39 -0.82 0 -0.78l-0.59 0.06c-0.37 0.05 -0.47 -0.24 -1.13 -0.51Z" fill="#4C57E6" fill-rule="evenodd" stroke-width="1"></path>
    <path d="M23.38 9.29a8.59 8.59 0 0 0 -0.4 -0.87 6.79 6.79 0 0 0 -0.5 -0.81 16.37 16.37 0 0 0 -1.18 -1.46l1 -0.06a0.33 0.33 0 0 0 0.32 -0.34 0.34 0.34 0 0 0 -0.34 -0.33l-0.76 0a4.69 4.69 0 0 0 -1.15 -2.31A4.41 4.41 0 0 0 17.9 1.8a3.75 3.75 0 0 0 -1.79 0.2 3.89 3.89 0 0 0 -1.45 1 4.16 4.16 0 0 0 -1.15 2.64l-0.29 0a0.3 0.3 0 0 0 -0.29 0.3 0.29 0.29 0 0 0 0.29 0.29l0.71 0a14 14 0 0 0 -0.18 2.65 3.91 3.91 0 0 0 0.58 1.85 4.16 4.16 0 0 0 2.3 1.36l0 1.13a2 2 0 0 0 0 0.34c0 0.28 0.12 0.53 0.18 0.8a0.34 0.34 0 1 0 0.67 0c0.06 -0.27 0.15 -0.51 0.21 -0.79l0 -0.33 0 -1.1a4.2 4.2 0 0 0 2.23 -0.92 5.16 5.16 0 0 1 2 2.86 13.67 13.67 0 0 1 0.57 3c0.12 1.08 0.19 2.16 0.25 3.14l0 1.55a0.33 0.33 0 1 0 0.66 -0.05l0.11 -1.5c0 -1 0.11 -2.12 0 -3.23a10.33 10.33 0 0 0 -0.51 -3.27 5.53 5.53 0 0 0 -2.67 -3 0.87 0.87 0 0 1 0.09 -0.11A4.49 4.49 0 0 0 21 8.85a9.19 9.19 0 0 0 0 -2c0.26 0.51 0.5 1 0.76 1.54l0.57 1.05c0.2 0.35 0.41 0.68 0.59 1s0.34 0.72 0.48 1.1a0.35 0.35 0 0 0 0.42 0.23 0.33 0.33 0 0 0 0.23 -0.41 12 12 0 0 0 -0.67 -2.07Zm-3.75 0.71a2.69 2.69 0 0 1 -2.25 1.09A3.36 3.36 0 0 1 14.93 10c-0.83 -1 -0.43 -3.7 -0.43 -3.75 0.6 0 1.2 0.08 1.81 0.09s1.36 0 2 0l1.88 -0.13s0.3 2.53 -0.56 3.79Zm-1.28 -4.8 -2.06 0c-0.68 0 -1.42 0.12 -2.13 0.19a3.41 3.41 0 0 1 1.17 -1.86A3.17 3.17 0 0 1 16.47 3a2.76 2.76 0 0 1 1.25 -0.12 3.5 3.5 0 0 1 2 0.85 3.93 3.93 0 0 1 1.07 1.62Z" fill="#020202" fill-rule="evenodd" stroke-width="1"></path>
  </g>
</svg>