<svg xmlns="http://www.w3.org/2000/svg" viewBox="0 0 24 24" id="Renewable-Energy-Earth--Streamline-Freehand">
  <desc>
    Renewable Energy Earth Streamline Icon: https://streamlinehq.com
  </desc>
  <g>
    <path d="M23.25 15a3.74 3.74 0 0 0 -0.47 -2.2 1.24 1.24 0 0 0 -1.27 -0.38c-1.09 0.22 -2.23 1.51 -3 2.34a2 2 0 0 1 -0.27 0.18c0.16 -1.93 0.29 -2.58 -0.22 -2.92s-1.09 0.06 -1.49 0.25a18.94 18.94 0 0 0 -3.36 2.43 9.62 9.62 0 0 1 -0.73 0.78c-0.41 -0.21 0 -2.75 -0.34 -3.27s-1.27 -0.17 -1.84 0.26S7.67 15 7.43 15.24c-0.66 -3.59 -0.33 -1.62 -0.7 -6 -0.05 -0.58 -0.12 -1.16 -0.2 -1.73C6.33 6.27 6.31 5 5 4.78a5.4 5.4 0 0 0 -1.34 0 1.64 1.64 0 0 0 -1.55 1 24.56 24.56 0 0 0 -0.88 4C1 11.53 0.84 13.28 0.74 15.12c0 0.08 0.17 7.17 0.67 8.12 0.67 1.25 3.43 0.55 4.84 0.64a124.86 124.86 0 0 0 14.68 -0.27c2.58 -0.14 2.33 -0.79 2.32 -8.61Zm-10.78 0.48c-0.07 0.05 -0.12 0.05 -0.14 0s0.09 -0.07 0.14 -0.05ZM2.38 8.81c3.73 -0.25 3.23 -0.43 3.29 -0.06 0.12 0.81 0.21 1.63 0.3 2.44 -1.32 0 -2.55 -0.46 -4 -0.21 0.09 -0.58 0.12 -0.92 0.41 -2.17Zm1.56 -2.94a4.85 4.85 0 0 1 0.87 0c0.55 0.08 0.56 1.19 0.69 1.86a5.17 5.17 0 0 0 -2.86 0.07C3.18 5.93 3 6 3.94 5.87ZM22.14 15c0 8.13 0.08 7.48 -1.29 7.57 -5.38 0.35 -10.85 0.67 -14.55 0.5 -1.23 -0.06 -3 0.41 -4.06 0s-0.52 -10.48 -0.52 -10.56c0 -0.26 0.09 -0.52 0.13 -0.78a10 10 0 0 0 4.23 0.39c0.13 1 0.67 4 0.75 4.09 0.34 0.36 1.09 -0.56 1.91 -1.35s1.78 -2 2.73 -2.21c-0.05 0.13 0.08 0.41 0.08 0.55a10.92 10.92 0 0 0 0 2c0.11 0.74 0.54 1.32 1.22 0.95a8 8 0 0 0 0.93 -0.77c2.35 -1.73 1.07 -1.13 3.78 -2.38a16.21 16.21 0 0 0 -0.24 2c0 0.46 -0.24 1.16 0.38 1.38 1.15 0.39 2.65 -2.67 4.11 -2.95 0.47 -0.08 0.41 1.02 0.41 1.57Z" fill="#020202" fill-rule="evenodd" stroke-width="1"></path>
    <path d="M8.34 17.42a3.18 3.18 0 0 0 -1.11 -0.1c-1.69 0.14 -2.43 0 -2.77 1.41 -0.1 0.45 -0.14 1 -0.2 1.33s-0.25 0.63 0 1.06c0.56 0.93 2.33 0.78 3.4 0.6 0.31 -0.06 0.84 0 1.17 -0.34 0.48 -0.48 0.26 -1.32 0.22 -1.82s0.05 -1.92 -0.71 -2.14Zm-0.91 3.21c-0.51 0.12 -2.09 0.37 -2.41 0a20.7 20.7 0 0 0 0.32 -2.29c0.61 0 1.28 -0.18 1.93 -0.18 0.89 0 0.68 0.1 0.7 0.47s0 0.82 0 1c0.08 1.59 0.37 0.81 -0.54 1Z" fill="#020202" fill-rule="evenodd" stroke-width="1"></path>
    <path d="M16.73 18.69c-0.33 -2 -2 -1.4 -3.33 -1.43l-0.85 0c-0.9 0 -0.5 1.08 -0.6 3.36a0.59 0.59 0 0 0 0.41 0.63c0.07 0 3.37 0.23 3.64 0.17a1.09 1.09 0 0 0 0.64 -0.4c0.26 -0.35 0.14 -0.62 0.09 -2.33Zm-1.43 1.7c-0.31 0 -0.62 -0.05 -0.78 -0.06 -1.7 0.07 -1.48 0 -1.62 0.08l0 -2.5 0.48 0.11c1.17 0.13 2.25 -0.27 2.34 0.8 0 0.08 0.05 1.6 -0.42 1.57Z" fill="#020202" fill-rule="evenodd" stroke-width="1"></path>
    <path d="M8.81 12.26a0.3 0.3 0 0 0 0.19 -0.35c-0.19 -1.54 2.32 -3.73 3.43 -3.91a13.06 13.06 0 0 0 4.18 -1.3 7.12 7.12 0 0 0 2.3 -1.92 0.33 0.33 0 0 0 -0.52 -0.42c-1.46 1.75 -4.05 2.16 -6.17 2.54a5.27 5.27 0 0 0 -2.73 2c-1.35 1.75 -1.3 3.48 -0.68 3.36Z" fill="#4C57E6" fill-rule="evenodd" stroke-width="1"></path>
    <path d="M9.15 7.91a1.57 1.57 0 0 1 0 -1A3.68 3.68 0 0 1 11 4.74c4.3 -2.22 4.54 0.09 8.39 -3.2 0.11 -0.1 0.49 -0.21 0.51 -0.38a3.41 3.41 0 0 1 1.15 2.74 6 6 0 0 1 -3 5.78 5.22 5.22 0 0 1 -4.83 0 0.26 0.26 0 0 0 -0.21 -0.06c-0.09 0 -0.5 0.44 -0.08 0.65a5.93 5.93 0 0 0 5.59 0.14 6.93 6.93 0 0 0 3.59 -6.58 4.94 4.94 0 0 0 -0.64 -2.51A3.28 3.28 0 0 0 20.1 0c-1 -0.25 -1.69 1.33 -3.52 2.17 -1.43 0.67 -2.82 0.07 -5.93 1.86a4.47 4.47 0 0 0 -2.07 2.68 4 4 0 0 0 -0.08 1.2c0.13 0.45 0.66 0.35 0.65 0Z" fill="#020202" fill-rule="evenodd" stroke-width="1"></path>
  </g>
</svg>