<svg xmlns="http://www.w3.org/2000/svg" viewBox="0 0 24 24" id="Resize-Expand--Streamline-Freehand">
  <desc>
    Resize Expand Streamline Icon: https://streamlinehq.com
  </desc>
  <g>
    <path d="M18.38 6c-0.51 -1 -6.76 -0.44 -8.77 -0.75A15.47 15.47 0 0 0 7 5a0.33 0.33 0 1 0 0 0.66 15.18 15.18 0 0 1 2.52 0.27c1.89 0.34 3.93 0.06 5.81 0.27 2.64 0.29 2 0.36 2.31 0.38a13 13 0 0 1 -0.05 1.53c0 3 -0.18 3.43 -0.55 9 0 0.28 0 0.86 -0.16 1a7.29 7.29 0 0 1 -2.3 -0.13c-2.29 -0.23 -4.19 -0.07 -6.33 -0.24 -0.48 0 -1.85 0.2 -2.47 0.1 -0.27 -0.05 -0.28 0 -0.29 -0.85 0 -0.59 0.08 -1.09 0.09 -2.44 0 -1.67 -0.1 -3.35 0 -5 0 -0.08 0.12 -3.94 0 -4 -0.33 -0.37 -0.56 -0.18 -0.66 0a4.18 4.18 0 0 0 0 1.06c-0.28 10.35 -0.2 7.41 -0.22 8 -0.1 2.46 -0.64 4.07 1 4.28 0.74 0.1 1.92 -0.1 2.4 -0.05 2.22 0.24 4.21 0.11 6.31 0.33 1.28 0.12 3 0.64 3.5 -0.65a110.25 110.25 0 0 0 0.65 -11.82 1.93 1.93 0 0 0 -0.18 -0.7Z" fill="#4C57E6" fill-rule="evenodd" stroke-width="1"></path>
    <path d="M4.2 23.06a11.73 11.73 0 0 1 -2.35 -0.25c-0.59 -0.16 -0.42 0.21 -0.54 -0.57 -0.08 -0.54 -0.09 -1.16 -0.16 -1.62A4.92 4.92 0 0 1 1 19.45c0 -0.38 -0.53 -0.65 -0.71 -0.09a3.52 3.52 0 0 0 -0.06 0.45c0 1.84 -0.08 1.73 -0.06 2.3s0.17 1.32 0.72 1.55a9 9 0 0 0 3.3 0.07 0.34 0.34 0 0 0 0.01 -0.67Z" fill="#020202" fill-rule="evenodd" stroke-width="1"></path>
    <path d="M4.2 0.3C3.22 0.23 0.93 -0.13 0.44 0.78a5.33 5.33 0 0 0 -0.2 2.55A5.38 5.38 0 0 0 0.3 4.66c0.18 0.57 0.7 0.34 0.7 -0.08a4.92 4.92 0 0 1 0.14 -1.17c0.07 -0.46 0.08 -1.09 0.16 -1.63 0.12 -0.77 -0.05 -0.4 0.54 -0.57a5.18 5.18 0 0 1 0.88 -0.15c1.37 -0.14 1.8 0 1.8 -0.43A0.33 0.33 0 0 0 4.2 0.3Z" fill="#020202" fill-rule="evenodd" stroke-width="1"></path>
    <path d="M23.68 19.9a3.2 3.2 0 0 0 -0.06 -0.44c-0.18 -0.57 -0.69 -0.29 -0.72 0.08a4.91 4.91 0 0 1 -0.13 1.17c-0.07 0.46 -0.08 1.09 -0.16 1.63 -0.12 0.77 0.05 0.4 -0.55 0.57a12.67 12.67 0 0 1 -2.34 0.25 0.33 0.33 0 0 0 0 0.66c1 0.07 3.27 0.43 3.76 -0.48s0.2 -1.42 0.2 -3.44Z" fill="#020202" fill-rule="evenodd" stroke-width="1"></path>
    <path d="M19.72 1.06a11.79 11.79 0 0 1 2.34 0.25c0.6 0.16 0.43 -0.21 0.55 0.57 0.08 0.54 0.09 1.16 0.16 1.62a4.91 4.91 0 0 1 0.13 1.17c0 0.38 0.54 0.65 0.72 0.09a3.52 3.52 0 0 0 0.06 -0.45c0 -1.84 0.08 -1.73 0.06 -2.3 -0.08 -2.18 -1.59 -1.8 -4 -1.62a0.34 0.34 0 0 0 -0.02 0.67Z" fill="#020202" fill-rule="evenodd" stroke-width="1"></path>
    <path d="M10.75 1a0.4 0.4 0 0 0 0 -0.79C8.93 -0.2 7.24 0.1 7.36 0.59c0.3 1.24 3.29 0.41 3.39 0.41Z" fill="#020202" fill-rule="evenodd" stroke-width="1"></path>
    <path d="M16.6 1a0.4 0.4 0 0 0 0 -0.79C14.78 -0.2 13.09 0.1 13.21 0.59c0.31 1.24 3.29 0.41 3.39 0.41Z" fill="#020202" fill-rule="evenodd" stroke-width="1"></path>
    <path d="M10.41 22.9c-1.82 -0.36 -3.51 -0.07 -3.39 0.43 0.3 1.24 3.29 0.37 3.39 0.36a0.4 0.4 0 0 0 0 -0.79Z" fill="#020202" fill-rule="evenodd" stroke-width="1"></path>
    <path d="M16.46 22.9c-1.82 -0.36 -3.51 -0.07 -3.39 0.43 0.3 1.24 3.29 0.37 3.39 0.36a0.4 0.4 0 0 0 0 -0.79Z" fill="#020202" fill-rule="evenodd" stroke-width="1"></path>
    <path d="M23.38 7.58c-0.42 -0.06 -0.47 0.46 -0.54 0.93a3.36 3.36 0 0 0 0 1.62c0.74 2.71 1.49 0 1.05 -1.69 -0.13 -0.44 -0.12 -0.87 -0.51 -0.86Z" fill="#020202" fill-rule="evenodd" stroke-width="1"></path>
    <path d="M23.68 13.16a0.4 0.4 0 0 0 -0.65 0 8.12 8.12 0 0 0 -0.3 1.56 2.67 2.67 0 0 0 0.09 0.82c0.74 2.71 1.49 0 1.05 -1.69a2.84 2.84 0 0 0 -0.19 -0.69Z" fill="#020202" fill-rule="evenodd" stroke-width="1"></path>
    <path d="M0.09 9.93c0.74 2.71 1.49 0 1 -1.69a2.73 2.73 0 0 0 -0.09 -0.7 0.4 0.4 0 0 0 -0.65 0A8.06 8.06 0 0 0 0 9.12a2.67 2.67 0 0 0 0.09 0.81Z" fill="#020202" fill-rule="evenodd" stroke-width="1"></path>
    <path d="M1.14 13.87C1 13.45 1 13 0.66 13s-0.48 0.46 -0.54 0.92a3.38 3.38 0 0 0 0 1.63c0.71 2.72 1.46 -0.03 1.02 -1.68Z" fill="#020202" fill-rule="evenodd" stroke-width="1"></path>
  </g>
</svg>