<svg xmlns="http://www.w3.org/2000/svg" viewBox="0 0 24 24" id="Resize-Arrow-Corner--Streamline-Freehand">
  <desc>
    Resize Arrow Corner Streamline Icon: https://streamlinehq.com
  </desc>
  <g>
    <path d="M21.44 5a0.33 0.33 0 0 0 -0.28 -0.36c-1.34 -0.22 -5.8 -0.51 -9.75 -0.57a38.49 38.49 0 0 0 -6.62 0.29 0.62 0.62 0 0 0 -0.44 0.41 2.65 2.65 0 0 0 -0.09 0.42c-0.06 0.5 -0.13 1.56 -0.18 2.91 -0.16 4.08 0.15 12.53 0.39 14.44a2.71 2.71 0 0 1 -0.55 -0.41 23.31 23.31 0 0 1 -1.77 -2.05s-1 -1.72 -1.36 -1.87a0.38 0.38 0 0 0 -0.42 0.06 0.45 0.45 0 0 0 -0.09 0.5 14.64 14.64 0 0 0 1.17 1.87A19.45 19.45 0 0 0 3.08 23a3.34 3.34 0 0 0 2 1 1.33 1.33 0 0 0 1 -0.27 3 3 0 0 0 0.7 -0.9c0.37 -0.7 0.71 -1.38 1.08 -2.05 0.24 -0.44 0.49 -0.87 0.78 -1.3a11.78 11.78 0 0 0 0.68 -1 1.34 1.34 0 0 0 0.2 -0.66 0.37 0.37 0 0 0 -0.37 -0.37c-0.3 0 -0.57 0.36 -1.21 1.48 -0.27 0.48 -0.65 0.86 -0.94 1.29 -0.43 0.64 -0.82 1.29 -1.26 2a3.83 3.83 0 0 1 -0.28 0.42 0.35 0.35 0 0 1 -0.2 0.12 0.4 0.4 0 0 0 0 -0.11c-0.26 -1.5 -0.16 -12.42 0.12 -16.1 0 -0.46 0.06 -0.84 0.09 -1.1 0.87 -0.13 2.47 -0.2 4.33 -0.25l3.2 -0.08c3.44 0 6.9 0 8.05 0.13a0.33 0.33 0 0 0 0.39 -0.25Z" fill="#020202" fill-rule="evenodd" stroke-width="1"></path>
    <path d="M23.73 5.2a3.55 3.55 0 0 0 -0.91 -1.5c-0.81 -0.85 -2 -1.59 -2.6 -2.24C18.92 0.05 19.12 0.06 18.78 0s-0.56 0.2 -0.28 0.66 1 1.25 1 1.36a11.45 11.45 0 0 0 2.38 2.49c1 0.72 0.32 0.8 -0.25 1.14a13.36 13.36 0 0 0 -1.28 0.91c-0.6 0.48 -1.17 1 -1.74 1.51a6 6 0 0 0 -0.67 0.67 1 1 0 0 0 -0.24 0.57 0.37 0.37 0 0 0 0.36 0.37c0.26 0 1.06 -0.94 1.08 -1 0.61 -0.45 1.2 -0.89 1.82 -1.31 0.41 -0.26 0.82 -0.51 1.25 -0.74a5.11 5.11 0 0 0 1.2 -0.62 0.85 0.85 0 0 0 0.32 -0.81Z" fill="#020202" fill-rule="evenodd" stroke-width="1"></path>
  </g>
</svg>