<svg xmlns="http://www.w3.org/2000/svg" viewBox="0 0 24 24" id="Restaurant-Seat--Streamline-Freehand">
  <desc>
    Restaurant Seat Streamline Icon: https://streamlinehq.com
  </desc>
  <g>
    <path d="M6.19 18.58a1.73 1.73 0 0 0 -0.62 -0.69 6.17 6.17 0 0 0 -2 -0.6 22.55 22.55 0 0 0 -2.87 -0.16 0.3 0.3 0 0 0 -0.32 0.28 0.3 0.3 0 0 0 0.28 0.32c0.69 0.11 1.75 0.3 2.73 0.56a5.63 5.63 0 0 1 1.61 0.59 0.64 0.64 0 0 1 0.25 0.33 2.49 2.49 0 0 1 0.2 0.62 12.18 12.18 0 0 1 0.29 1.62 13.19 13.19 0 0 1 0.09 1.66 0.36 0.36 0 0 0 0.32 0.36 0.34 0.34 0 0 0 0.36 -0.32 14.42 14.42 0 0 0 0.11 -1.75 14.76 14.76 0 0 0 -0.1 -1.77 3.78 3.78 0 0 0 -0.33 -1.05Z" fill="#4C57E6" stroke-width="1"></path>
    <path d="M3.31 6.86a4.16 4.16 0 0 0 1.26 -0.1 3.32 3.32 0 0 0 1.18 -0.53 3.69 3.69 0 0 0 1.38 -3.54c-0.6 -3.84 -5 -2.58 -5.71 -2A3.49 3.49 0 0 0 0.08 2.77a3.56 3.56 0 0 0 0.69 2.74 3.64 3.64 0 0 0 2.54 1.35ZM1.9 1.23c0.51 -0.45 4 -1.36 4.3 1.58a2.68 2.68 0 0 1 -1.1 2.5 2.23 2.23 0 0 1 -0.79 0.34 3.06 3.06 0 0 1 -0.9 0.06 2.53 2.53 0 0 1 -1.78 -0.9A2.61 2.61 0 0 1 1 2.88a2.58 2.58 0 0 1 0.9 -1.65Z" fill="#020202" stroke-width="1"></path>
    <path d="M11.34 13.44a9.46 9.46 0 0 0 -2.14 -0.88 9.57 9.57 0 0 0 -2.27 -0.39 2 2 0 0 1 -1.06 -0.34 1.25 1.25 0 0 1 -0.56 -0.83 16.11 16.11 0 0 0 -0.21 -2.55c-0.47 -1.24 -2.76 -1.55 -3.64 0.34A8.42 8.42 0 0 0 1 12.15a3.44 3.44 0 0 0 1 2.25 5.55 5.55 0 0 0 1.94 1.35c0.88 0.38 2.2 0.14 3.18 0.46a1.19 1.19 0 0 1 0.73 0.6 5.83 5.83 0 0 1 0.56 2.05 10.94 10.94 0 0 1 0 2.22 3.1 3.1 0 0 0 0.62 2.21 2 2 0 0 0 1.52 0.69 2.52 2.52 0 0 0 1.74 -0.64 2.8 2.8 0 0 0 0.91 -1.57 14.28 14.28 0 0 0 0 -5.17 4.67 4.67 0 0 0 -1.86 -3.16Zm0.66 8.12a1.65 1.65 0 0 1 -0.54 0.92 1.41 1.41 0 0 1 -0.93 0.36 0.94 0.94 0 0 1 -0.83 -0.47 2.09 2.09 0 0 1 -0.23 -1.18 11.94 11.94 0 0 0 0 -2.46 7 7 0 0 0 -0.73 -2.41 2.2 2.2 0 0 0 -1.35 -1.08c-1 -0.29 -2.26 0 -3.13 -0.35a4.64 4.64 0 0 1 -1.66 -1.08 2.64 2.64 0 0 1 -0.78 -1.67 7.69 7.69 0 0 1 0.36 -3.05c0.57 -1.3 2.1 -1.2 2.37 -0.42a14.05 14.05 0 0 1 0.1 2.39 2 2 0 0 0 0.83 1.39A2.72 2.72 0 0 0 6.9 13a8.83 8.83 0 0 1 2 0.42 8.53 8.53 0 0 1 1.88 0.85 3.73 3.73 0 0 1 1.27 2.55 13.33 13.33 0 0 1 -0.05 4.74Z" fill="#020202" stroke-width="1"></path>
    <path d="M19.42 8a2.32 2.32 0 0 0 0.58 -0.13 2.64 2.64 0 0 0 1.16 -1 1.39 1.39 0 0 0 0.16 -0.51c0.05 -0.4 0 -1 0 -1.18a3.45 3.45 0 0 0 0 -0.73 2.38 2.38 0 0 0 -0.1 -0.58 0.91 0.91 0 0 0 -0.57 -0.51A5.29 5.29 0 0 0 19 3.27a7.87 7.87 0 0 0 -1.24 0.13 1.07 1.07 0 0 0 -0.67 0.37 0.35 0.35 0 0 0 0.1 0.47 0.35 0.35 0 0 0 0.46 -0.07s0.07 0 0.11 0a2 2 0 0 1 0.43 0l0.82 0c0.73 0 1.3 0.15 1.29 0.13l-0.11 2a1.51 1.51 0 0 1 -0.64 0.59 1.44 1.44 0 0 1 -0.88 0.14 1 1 0 0 1 -0.57 -0.3 2 2 0 0 1 -0.44 -0.73 2.58 2.58 0 0 1 -0.15 -0.67 2.92 2.92 0 0 1 0 -0.69 0.3 0.3 0 1 0 -0.58 -0.12 3.12 3.12 0 0 0 -0.06 0.86 3.57 3.57 0 0 0 0.09 0.86 2.78 2.78 0 0 0 0.67 1.19 1.85 1.85 0 0 0 0.89 0.51l0.23 0a4.49 4.49 0 0 0 -0.15 1c0.08 0.4 0.91 0.62 1 0a5 5 0 0 0 -0.18 -0.94Z" fill="#020202" stroke-width="1"></path>
    <path d="m17.76 17.4 0 1.53 0 1.51 0.13 3.11a0.34 0.34 0 0 0 0.68 0l0.24 -3a17.89 17.89 0 0 0 0.07 -2.55c-0.06 -1.14 -0.23 -2.25 -0.32 -3.38 0 -0.36 -0.58 -0.29 -0.65 0 -0.08 0.92 -0.13 1.84 -0.15 2.78Z" fill="#4C57E6" stroke-width="1"></path>
    <path d="M23.61 13.32h-2c-0.85 0 -1.64 -0.07 -2.45 -0.06a15.88 15.88 0 0 0 -1.66 0.1 8.46 8.46 0 0 1 -1.46 0.06 1.24 1.24 0 0 1 -0.67 -0.2 0.66 0.66 0 0 1 -0.21 -0.37 2.58 2.58 0 0 1 -0.06 -0.65 2.75 2.75 0 0 1 0.09 -0.95c0 -0.13 0.14 -0.17 0.27 -0.25a5 5 0 0 1 1.57 -0.37c0.92 -0.12 2 -0.19 2.71 -0.23l1.9 0c0.68 0 1.38 0 1.92 0.06a0.3 0.3 0 0 0 0.05 -0.6c-0.54 -0.06 -1.24 -0.13 -1.94 -0.18a28 28 0 0 0 -5.23 0 4.7 4.7 0 0 0 -1.53 0.38 1.52 1.52 0 0 0 -0.79 0.83 4.09 4.09 0 0 0 -0.12 1.3 3.12 3.12 0 0 0 0.17 1.15 1.67 1.67 0 0 0 0.55 0.75 2 2 0 0 0 1 0.39 7 7 0 0 0 2 -0.13l1.56 -0.18c0.79 -0.05 1.57 -0.05 2.41 -0.08l2 -0.09a0.34 0.34 0 0 0 0.32 -0.35 0.33 0.33 0 0 0 -0.4 -0.33Z" fill="#4C57E6" stroke-width="1"></path>
  </g>
</svg>