<svg xmlns="http://www.w3.org/2000/svg" viewBox="0 0 24 24" id="Retouch-Brightness--Streamline-Freehand">
  <desc>
    Retouch Brightness Streamline Icon: https://streamlinehq.com
  </desc>
  <g>
    <path d="M14 9a5.59 5.59 0 0 0 -1.68 1c-0.15 0.21 -0.09 0.65 0.22 0.62a6.42 6.42 0 0 0 1.88 -1.06c0.22 -0.23 -0.13 -0.67 -0.42 -0.56Z" fill="#4C57E6" stroke-width="1"></path>
    <path d="M15.76 11.37c0.33 -0.43 0.13 -0.8 -0.29 -0.64a14.2 14.2 0 0 0 -2.86 1.63c-0.34 0.26 -0.35 0.84 0 0.78 0.51 -0.24 0.91 -0.34 1.42 -0.58a8.45 8.45 0 0 0 1.73 -1.19Z" fill="#4C57E6" stroke-width="1"></path>
    <path d="M15.18 8.29a5.16 5.16 0 0 0 -8.3 3.12 4.66 4.66 0 0 0 3.6 5.59 4.85 4.85 0 0 0 5.14 -1.16 4.79 4.79 0 0 0 -0.44 -7.55Zm-3.71 -0.06a28.67 28.67 0 0 0 0.46 8.48C5.62 16 7 8.69 11.47 8.23Zm1.13 8.47a50.57 50.57 0 0 1 -0.53 -8.49 5.08 5.08 0 0 1 3.77 2.19 1.83 1.83 0 0 1 0.33 0.65c1.01 2.56 -1.31 5.47 -3.57 5.65Z" fill="#020202" stroke-width="1"></path>
    <path d="M15.31 13.5a5.52 5.52 0 0 0 -2.52 1.58c-0.33 0.23 -0.17 0.74 0.07 0.55 1.86 -0.67 1.2 -0.49 2.73 -1.58a0.31 0.31 0 0 0 -0.28 -0.55Z" fill="#4C57E6" stroke-width="1"></path>
    <path d="M11.7 4.49c0 0.14 0 0.31 0.21 0.38s0.44 0 0.42 -0.34a5.36 5.36 0 0 0 0 -2.83c0 -0.25 0 -0.41 -0.16 -0.51a0.28 0.28 0 0 0 -0.36 0.12A4.54 4.54 0 0 0 11.47 3a8.82 8.82 0 0 0 0.23 1.49Z" fill="#4C57E6" stroke-width="1"></path>
    <path d="M17.63 7a10.37 10.37 0 0 0 1.42 -1.17 5.55 5.55 0 0 0 0.83 -1.31 0.28 0.28 0 0 0 -0.34 -0.18 4.36 4.36 0 0 0 -1 0.63 4.21 4.21 0 0 0 -0.75 0.76c0 0.06 -0.54 0.78 -0.58 0.85 -0.33 0.22 0.04 0.81 0.42 0.42Z" fill="#4C57E6" stroke-width="1"></path>
    <path d="M22.83 11.8a4.88 4.88 0 0 0 -1.72 -0.32 9.24 9.24 0 0 0 -1.46 0.23c-0.14 0 -0.3 0 -0.38 0.21s0 0.45 0.34 0.43a9.64 9.64 0 0 0 1.83 0.16 5.71 5.71 0 0 0 1.56 -0.35 0.26 0.26 0 0 0 -0.17 -0.36Z" fill="#4C57E6" stroke-width="1"></path>
    <path d="M6.37 7A10.37 10.37 0 0 1 5 5.81a5.55 5.55 0 0 1 -0.88 -1.31 0.28 0.28 0 0 1 0.34 -0.18A4.36 4.36 0 0 1 5.5 5a4.21 4.21 0 0 1 0.75 0.76c0 0.06 0.54 0.78 0.58 0.85 0.29 0.19 -0.08 0.78 -0.46 0.39Z" fill="#4C57E6" stroke-width="1"></path>
    <path d="M1.17 11.8a4.88 4.88 0 0 1 1.72 -0.32 9.24 9.24 0 0 1 1.46 0.23c0.14 0 0.3 0 0.38 0.21s0 0.45 -0.34 0.43a5.39 5.39 0 0 1 -2.83 0c-0.26 0 -0.41 0 -0.51 -0.17a0.26 0.26 0 0 1 0.12 -0.38Z" fill="#4C57E6" stroke-width="1"></path>
    <path d="M12.3 19.51c0 -0.14 0 -0.31 -0.21 -0.38s-0.44 0 -0.42 0.34a10 10 0 0 0 -0.17 1.83 5.71 5.71 0 0 0 0.35 1.51 0.28 0.28 0 0 0 0.36 -0.12 4 4 0 0 0 0.29 -1.19 5.53 5.53 0 0 0 -0.2 -1.99Z" fill="#4C57E6" stroke-width="1"></path>
    <path d="M6.37 17A10.37 10.37 0 0 0 5 18.19a5.55 5.55 0 0 0 -0.83 1.31 0.28 0.28 0 0 0 0.34 0.18 4.36 4.36 0 0 0 1 -0.63 4.21 4.21 0 0 0 0.75 -0.76c0 -0.06 0.54 -0.78 0.58 -0.85 0.28 -0.24 -0.09 -0.83 -0.47 -0.44Z" fill="#4C57E6" stroke-width="1"></path>
    <path d="M17.63 17a5.48 5.48 0 0 1 2 2c0.06 0.07 0.14 0.12 0.11 0.15a0.27 0.27 0 0 1 -0.2 0.51 4.36 4.36 0 0 1 -1 -0.63 4.21 4.21 0 0 1 -0.75 -0.76c0 -0.06 -0.54 -0.78 -0.58 -0.85 -0.33 -0.22 0.04 -0.81 0.42 -0.42Z" fill="#4C57E6" stroke-width="1"></path>
  </g>
</svg>