<svg xmlns="http://www.w3.org/2000/svg" viewBox="0 0 24 24" id="Retouch-Smile--Streamline-Freehand">
  <desc>
    Retouch Smile Streamline Icon: https://streamlinehq.com
  </desc>
  <g>
    <path d="M11.56 4.39a7.5 7.5 0 0 0 -6.89 6.49C4.41 13 5 16 6.82 17.22a0.3 0.3 0 0 0 0.42 -0.08c0.31 -0.45 -0.47 -0.39 -1.12 -1.66A7.87 7.87 0 0 1 5.5 11 6.55 6.55 0 1 1 18 14.53c-1.41 3.53 -5.64 4.75 -8.69 3.76a0.35 0.35 0 0 0 -0.22 0.67c3.46 1.21 8.17 -0.13 9.85 -4a7.6 7.6 0 0 0 -7.38 -10.57Z" fill="#020202" fill-rule="evenodd" stroke-width="1"></path>
    <path d="M12.33 14.41c-1.3 0.16 -2.49 -0.61 -2.67 -0.36 -0.46 0.61 1.13 1.41 1.89 1.53a2.79 2.79 0 0 0 2.36 -0.75c1 -0.81 0.71 -1.33 0.32 -1.33s-0.23 0.72 -1.9 0.91Z" fill="#020202" fill-rule="evenodd" stroke-width="1"></path>
    <path d="M9.38 11.1c0 0.14 0.2 0.09 0.29 0.13s0.13 -0.06 0.24 -0.11c0.3 -0.14 0.2 -1.17 0.11 -1.6s-1.26 -0.22 -0.64 1.58Z" fill="#020202" fill-rule="evenodd" stroke-width="1"></path>
    <path d="M14.5 11.12a0.35 0.35 0 0 0 0.35 -0.35c0.43 -0.95 -0.11 -1.64 -0.57 -1.49s-0.28 1.84 0.22 1.84Z" fill="#020202" fill-rule="evenodd" stroke-width="1"></path>
    <path d="M5.57 3.17C7.62 1.65 8.73 1.71 8.9 1.42A0.31 0.31 0 0 0 8.85 1C8.57 0.76 7.61 0.85 7.13 0.93a3.75 3.75 0 0 0 -2 1.74 0.35 0.35 0 0 0 0.44 0.5Z" fill="#4C57E6" fill-rule="evenodd" stroke-width="1"></path>
    <path d="M3.35 5.41A0.3 0.3 0 0 0 3.2 5c-0.38 -0.26 -1.36 0.68 -1.63 1 -0.73 0.88 -1.23 2.63 -0.48 2.63a0.35 0.35 0 0 0 0.35 -0.35c0.06 -0.39 1.63 -2.22 1.91 -2.87Z" fill="#4C57E6" fill-rule="evenodd" stroke-width="1"></path>
    <path d="M1.06 13.78a5.91 5.91 0 0 1 -0.11 -2c0.1 -0.26 -0.06 -0.33 -0.23 -0.37s-0.28 0 -0.41 0.19A7.17 7.17 0 0 0 0 13.18a3.92 3.92 0 0 0 0.82 2.46 1.81 1.81 0 0 0 0.3 0.41 0.34 0.34 0 0 0 0.46 0c0.28 -0.39 -0.37 -1.58 -0.52 -2.27Z" fill="#4C57E6" fill-rule="evenodd" stroke-width="1"></path>
    <path d="M4.34 20a20.24 20.24 0 0 0 -1.51 -1.73c-0.24 0 -0.29 0.16 -0.34 0.31A5 5 0 0 0 3.88 21a5.53 5.53 0 0 0 2 1 0.35 0.35 0 0 0 0.35 -0.35c-0.04 -0.2 -1.44 -1.1 -1.89 -1.65Z" fill="#4C57E6" fill-rule="evenodd" stroke-width="1"></path>
    <path d="m12.24 23 -3.83 -0.52s-0.45 0.33 -0.15 0.6c1.61 1.41 3.15 0.74 4 0.62a0.35 0.35 0 0 0 -0.02 -0.7Z" fill="#4C57E6" fill-rule="evenodd" stroke-width="1"></path>
    <path d="M18.81 20.44a7.82 7.82 0 0 1 -1.46 0.83c-2 1 -0.89 0.59 -2.05 1 -0.09 0 -0.58 0.73 0.79 0.63a4.24 4.24 0 0 0 3.21 -1.94 0.35 0.35 0 0 0 -0.49 -0.52Z" fill="#4C57E6" fill-rule="evenodd" stroke-width="1"></path>
    <path d="M22.37 15.4c-0.21 1.45 -3.95 4.84 -1.41 3.48a10.32 10.32 0 0 0 1 -0.74 2.85 2.85 0 0 0 1.14 -2.74 0.35 0.35 0 1 0 -0.73 0Z" fill="#4C57E6" fill-rule="evenodd" stroke-width="1"></path>
    <path d="M23 7.59a0.35 0.35 0 0 0 -0.35 0.35 4.44 4.44 0 0 0 0 1.15c0 0.08 0.32 2.28 0.34 2.36s-0.05 0.55 0.09 0.66a0.3 0.3 0 0 0 0.29 0.09c0.18 0 0.27 0 0.61 -1.7A4.76 4.76 0 0 0 23 7.59Z" fill="#4C57E6" fill-rule="evenodd" stroke-width="1"></path>
    <path d="M21 5.63a0.35 0.35 0 1 0 0.62 -0.31c-0.49 -1.4 -1.23 -2.77 -3 -2.93a0.65 0.65 0 0 0 -0.49 0.09 0.31 0.31 0 0 0 -0.07 0.43c0.19 0.27 0.05 -0.34 1.68 1.32A8.24 8.24 0 0 1 21 5.63Z" fill="#4C57E6" fill-rule="evenodd" stroke-width="1"></path>
    <path d="M12.53 1.13a8.53 8.53 0 0 1 2.59 0.5 0.4 0.4 0 0 0 0.27 0c0.16 -0.06 0.3 -0.14 0.27 -0.34 0 -0.51 -1.52 -1.11 -2 -1.21S11 0 11.11 0.56c-0.03 0.17 -0.11 0.28 1.42 0.57Z" fill="#4C57E6" fill-rule="evenodd" stroke-width="1"></path>
  </g>
</svg>