<svg xmlns="http://www.w3.org/2000/svg" viewBox="0 0 24 24" id="Rhinoceros-Body--Streamline-Freehand">
  <desc>
    Rhinoceros Body Streamline Icon: https://streamlinehq.com
  </desc>
  <g>
    <path d="M7.68 6.66a0.28 0.28 0 0 0 -0.2 0 1.45 1.45 0 0 0 -1 1.75c0.15 0.47 0.64 0.81 1.5 0.63a1.41 1.41 0 0 0 1.07 -1.46 1.05 1.05 0 0 0 -1.37 -0.92ZM7.72 8a0.92 0.92 0 0 1 -0.26 0s0 0 -0.07 0a0.32 0.32 0 0 1 -0.08 -0.25 0.89 0.89 0 0 1 0.24 -0.52 0.47 0.47 0 0 0 0.17 0 0.41 0.41 0 0 1 0.45 0.24c0.07 0.26 -0.17 0.53 -0.45 0.53Z" fill="#020202" fill-rule="evenodd" stroke-width="1"></path>
    <path d="M23.82 10.16a5.9 5.9 0 0 0 -0.67 -1.77 5.7 5.7 0 0 0 -3.53 -2.45 7.36 7.36 0 0 0 -4 0.2 4 4 0 0 0 -0.62 -0.32 3.08 3.08 0 0 0 -0.85 -0.19 2.83 2.83 0 0 0 -0.87 0 3.18 3.18 0 0 0 -0.79 0.26c0.14 -0.2 0.28 -0.41 0.4 -0.62a4.53 4.53 0 0 0 0.5 -1.11 1.58 1.58 0 0 0 0 -0.38 2.57 2.57 0 0 0 -0.11 -0.48 2.33 2.33 0 0 0 -0.08 -0.3 0.66 0.66 0 0 0 -0.2 -0.17 1.49 1.49 0 0 0 -0.74 -0.09 3.37 3.37 0 0 0 -0.82 0.21l-0.94 0.47a5.46 5.46 0 0 0 -0.68 0.47 5.13 5.13 0 0 0 -0.53 0.51 0.35 0.35 0 0 0 -0.15 -0.17 1.78 1.78 0 0 0 -0.54 -0.17 2.54 2.54 0 0 0 -0.79 0.07 6.63 6.63 0 0 0 -2 0.75C4.3 5.84 4 6.73 2.48 8.41 1.9 9.05 0.8 8.81 0.86 9.55a0.28 0.28 0 0 0 0.29 0.26 0.26 0.26 0 0 0 -0.26 0.25 3.47 3.47 0 0 0 -0.05 1.53 1.78 1.78 0 0 0 0.36 0.68l0.16 0.15a8.74 8.74 0 0 0 0.25 0.94 2.2 2.2 0 0 0 0.44 0.74 2.46 2.46 0 0 0 0.93 0.59 4.4 4.4 0 0 0 1 0.22 6.28 6.28 0 0 0 3.42 -0.8c0 0.6 0 1.52 0.13 2.44s0.19 1.83 0.26 2.42c0.05 0.26 0.05 0.6 0.11 0.9a2.18 2.18 0 0 0 0.1 0.53 0.55 0.55 0 0 0 0.43 0.31l0.36 0.05 1.1 0.07c0.12 0 0.52 0.05 0.78 0a0.83 0.83 0 0 0 0.43 -0.14 1.44 1.44 0 0 0 0.42 -0.49 6.69 6.69 0 0 0 0.3 -0.7 10.39 10.39 0 0 0 0.35 -1.17 14.51 14.51 0 0 0 0.27 -1.77l0.78 0 0.92 0c0.73 0 1.44 -0.11 2.17 -0.21a0.31 0.31 0 0 0 0.3 -0.33 2.37 2.37 0 0 0 0.33 0.22s0 0 0.08 0c0 0.63 0.14 1.27 0.2 1.91l0 0.78L17 20.4a0.63 0.63 0 0 0 0.32 0.55 2.28 2.28 0 0 0 0.78 0.26 5.22 5.22 0 0 0 1.3 0 2 2 0 0 0 1 -0.33 1.41 1.41 0 0 0 0.39 -0.45 7.13 7.13 0 0 0 0.39 -1l0.95 -2.43a3.61 3.61 0 0 0 0.76 -0.8A8.07 8.07 0 0 0 24 12a9 9 0 0 0 -0.18 -1.84Zm-1.63 5.55A2.41 2.41 0 0 1 20.27 17a2.34 2.34 0 0 1 -0.46 0 4.42 4.42 0 0 1 -0.5 -0.1 0.31 0.31 0 0 0 -0.38 0.23 0.3 0.3 0 0 0 0.22 0.38 4.14 4.14 0 0 0 0.68 0.15 2 2 0 0 0 0.49 0 3.06 3.06 0 0 0 0.88 -0.16l-0.06 0.15c-0.24 0.51 -0.5 1 -0.75 1.5 -0.11 0.22 -0.22 0.49 -0.36 0.73a0.83 0.83 0 0 1 -0.23 0.26 1.32 1.32 0 0 1 -0.65 0.1 5.39 5.39 0 0 1 -0.88 0H18c0 -0.27 0.08 -0.56 0.09 -0.84l0 -0.35a8.36 8.36 0 0 0 -0.14 -0.85c-0.13 -0.63 -0.31 -1.25 -0.42 -1.87a2.57 2.57 0 0 0 -0.26 -0.48 2 2 0 0 1 -0.55 -1.34 5.62 5.62 0 0 1 0 -0.92 4.43 4.43 0 0 1 0.22 -1.46 0.29 0.29 0 0 0 -0.11 -0.38 0.28 0.28 0 0 0 -0.38 0.11 4 4 0 0 0 -0.73 1.56 2.72 2.72 0 0 0 -0.06 0.75 2.76 2.76 0 0 0 0.14 0.77l0.07 0.15 -0.18 -0.1 -0.42 -0.29 -0.39 -0.31a2.17 2.17 0 0 1 -0.72 -0.92 0.27 0.27 0 0 0 -0.31 -0.23 0.28 0.28 0 0 0 -0.23 0.32 2.45 2.45 0 0 0 0.52 1.44 2.59 2.59 0 0 0 0.51 0.48 2.56 2.56 0 0 0 0.4 0.22l-0.93 -0.08c-0.49 0 -1 -0.06 -1.46 -0.06 -0.83 0 -1.64 0.12 -2.47 0.21a0.27 0.27 0 0 0 -0.27 0.27 0.27 0.27 0 0 0 0.28 0.28l1.63 0.2a12.38 12.38 0 0 1 -0.31 1.37 7.35 7.35 0 0 1 -0.49 1.3 4.2 4.2 0 0 1 -0.29 0.55 0.64 0.64 0 0 1 -0.1 0.13c0 0.19 -0.6 -0.07 -0.7 -0.09l-1 -0.08 -0.16 -0.88c-0.17 -0.78 -0.46 -2.13 -0.66 -3.29C8 15 8 14.5 7.94 14.13a0.27 0.27 0 0 0 -0.19 -0.23 8.14 8.14 0 0 0 0.75 -0.5 0.32 0.32 0 1 0 -0.36 -0.52 7.59 7.59 0 0 1 -2 0.79 6.12 6.12 0 0 1 -2.07 0.19 3.67 3.67 0 0 1 -0.93 -0.14 1.59 1.59 0 0 1 -0.51 -0.24 1.22 1.22 0 0 1 -0.36 -0.42 2.39 2.39 0 0 1 -0.13 -0.28 2 2 0 0 0 0.61 0l0.36 -0.05c0.16 0 0.31 -0.09 0.48 -0.15a0.32 0.32 0 0 0 0.23 -0.38 0.33 0.33 0 0 0 -0.39 -0.2 2.07 2.07 0 0 1 -0.35 0 1.54 1.54 0 0 1 -0.3 0 1.38 1.38 0 0 1 -0.56 -0.24 1 1 0 0 1 -0.34 -0.35 3 3 0 0 1 -0.44 -1.31 0.27 0.27 0 0 0 -0.25 -0.28A3.09 3.09 0 0 0 3 9a10.19 10.19 0 0 0 1.27 -1.21c0.26 -0.29 0.49 -0.6 0.7 -0.85A6 6 0 0 1 6.31 5.7 7.38 7.38 0 0 1 8 4.85a1.73 1.73 0 0 1 0.45 -0.11 0.78 0.78 0 0 1 0.4 0.06s0.64 0.15 0.74 0.06a4.07 4.07 0 0 1 0.59 -0.4 5.37 5.37 0 0 1 0.65 -0.29l0.88 -0.26a4.88 4.88 0 0 1 0.53 -0.11l0.16 0 0 0.25a4.35 4.35 0 0 1 -0.37 1.12 5.64 5.64 0 0 1 -0.6 1.11c-0.23 0.27 0.15 0.61 0.4 1.78 0 0.21 0.08 0.42 0.11 0.64s0.06 0.28 0.07 0.43a2.47 2.47 0 0 1 0 0.94 0.32 0.32 0 0 0 0.17 0.4 0.3 0.3 0 0 0 0.41 -0.16A3.06 3.06 0 0 0 13 8.93a3.12 3.12 0 0 0 0 -0.61 2.48 2.48 0 0 0 -0.17 -0.59 3.12 3.12 0 0 0 -0.61 -0.86 3.91 3.91 0 0 1 1.22 -0.21l0.66 0a4.55 4.55 0 0 1 0.66 0.1 3.2 3.2 0 0 1 1.44 0.65 0.31 0.31 0 0 0 0.44 0 0.32 0.32 0 0 0 0 -0.45 3.59 3.59 0 0 0 -0.38 -0.4 6.51 6.51 0 0 1 3.13 0.15 4.78 4.78 0 0 1 2.84 2.18 5 5 0 0 1 0.54 1.47A8.1 8.1 0 0 1 23 12a7.14 7.14 0 0 1 -0.81 3.71Z" fill="#020202" fill-rule="evenodd" stroke-width="1"></path>
    <path d="M1 7.47a5.78 5.78 0 0 1 0 -1.81l0 -0.17 0.16 0.15a10.72 10.72 0 0 0 1.17 0.91 6.38 6.38 0 0 0 0.85 0.45c0.24 0.08 0.75 -0.37 0.43 -0.52a7.36 7.36 0 0 1 -0.7 -0.55 9.78 9.78 0 0 1 -1 -1l-0.58 -0.67A1.75 1.75 0 0 0 1.07 4a0.72 0.72 0 0 0 -0.33 0 0.57 0.57 0 0 0 -0.49 0.33c-0.25 0.4 0.02 -0.12 -0.25 1.2a6 6 0 0 0 0.2 2.11 4.46 4.46 0 0 0 0.51 1.14c0.16 0.3 0.92 0.34 0.64 -0.18A4.72 4.72 0 0 1 1 7.47Z" fill="#4C57E6" fill-rule="evenodd" stroke-width="1"></path>
  </g>
</svg>