<svg xmlns="http://www.w3.org/2000/svg" viewBox="0 0 24 24" id="Rioter-Protester-Flag-Waving--Streamline-Freehand">
  <desc>
    Rioter Protester Flag Waving Streamline Icon: https://streamlinehq.com
  </desc>
  <title>rioter-protester-flag-waving</title>
  <g>
    <path d="M11.11 4.17a2.12 2.12 0 0 1 1.07 -0.35A3.41 3.41 0 0 1 13.4 4a0.29 0.29 0 0 0 0.2 -0.54 3.94 3.94 0 0 0 -1.41 -0.34 3 3 0 0 0 -1.5 0.33 3 3 0 0 0 -1.64 2.66 3.15 3.15 0 0 0 1.65 2.74 2.8 2.8 0 0 0 3.73 -1.13A2.83 2.83 0 0 0 14.11 4a0.34 0.34 0 0 0 -0.47 0 0.32 0.32 0 0 0 0 0.47 2.08 2.08 0 0 1 0 2.74 1.81 1.81 0 0 1 -2.43 0.66 2.15 2.15 0 0 1 -0.13 -3.7Z" fill="#020202" fill-rule="evenodd" stroke-width="1"></path>
    <path d="M6.7 2.16a26.19 26.19 0 0 1 3 -0.75 15.24 15.24 0 0 1 3 -0.3 9.63 9.63 0 0 1 2 0.22 16.15 16.15 0 0 1 2 0.53c0.53 0.17 1.1 0.4 1.67 0.55a4 4 0 0 0 1.28 0.13 4.33 4.33 0 0 0 1.25 -0.31 6.11 6.11 0 0 0 1 -0.49 5.89 5.89 0 0 1 -1 2.12 5.53 5.53 0 0 1 -1.38 1.24 4.79 4.79 0 0 1 -1 0.6 4 4 0 0 1 -0.95 0.28 7.18 7.18 0 0 1 -1 0.1 0.3 0.3 0 0 0 0 0.59 8.84 8.84 0 0 0 1.36 0 5 5 0 0 0 0.94 -0.14A4.87 4.87 0 0 0 20.13 6a5.09 5.09 0 0 0 1.55 -1.55 5.86 5.86 0 0 0 0.87 -3.36 0.34 0.34 0 0 0 0 -0.28 0.3 0.3 0 0 0 -0.29 -0.12 0.42 0.42 0 0 0 -0.16 0 6.78 6.78 0 0 1 -1.23 0.69 3.69 3.69 0 0 1 -1.29 0.3 3.17 3.17 0 0 1 -1 -0.16C18 1.41 17.45 1.15 17 1a16.88 16.88 0 0 0 -2.56 -0.8 9.8 9.8 0 0 0 -1.78 -0.2 17 17 0 0 0 -5.08 0.82 35.2 35.2 0 0 0 -6.31 2.87c-0.3 0.35 -0.09 0.49 0.39 0.51A41.42 41.42 0 0 1 6.7 2.16Z" fill="#020202" fill-rule="evenodd" stroke-width="1"></path>
    <path d="M6.32 10.06c0.19 -0.11 0.37 -0.23 0.55 -0.35l0.52 -0.39c0.41 -0.31 0.79 -0.64 1.21 -1a0.33 0.33 0 0 0 -0.33 -0.58c-0.49 0.21 -1 0.4 -1.45 0.65 -0.2 0.1 -0.39 0.22 -0.58 0.34a5.56 5.56 0 0 0 -0.54 0.42c-0.11 0.09 -0.2 0.2 -0.3 0.3 -0.13 0.52 0.06 0.78 0.67 0.7Z" fill="#020202" fill-rule="evenodd" stroke-width="1"></path>
    <path d="M22.85 20.08a18.69 18.69 0 0 0 -2.06 -1 2.32 2.32 0 0 1 -0.6 -0.52 9.73 9.73 0 0 1 -0.73 -1.15 29.5 29.5 0 0 1 -1.39 -2.64A25.89 25.89 0 0 1 17 12a7.43 7.43 0 0 0 -0.67 -1.69 2.23 2.23 0 0 0 -1 -0.92 0.35 0.35 0 0 0 -0.17 0 2.05 2.05 0 0 0 -0.78 -0.11 4 4 0 0 0 -1.28 0.29c-0.81 0.31 -1.56 0.73 -2.36 1.07a5.79 5.79 0 0 1 -1 0.34 3.2 3.2 0 0 1 -0.86 0.1 12.62 12.62 0 0 0 -2.3 0 2 2 0 0 0 -1.76 1.52 1.41 1.41 0 0 0 0.37 1.5A3.65 3.65 0 0 0 7 15c1.83 0.42 1.1 0.3 3.27 0.05a7.39 7.39 0 0 0 2.53 -0.87l0.62 1.54a9.8 9.8 0 0 0 -1.47 0.68 4.54 4.54 0 0 0 -2.21 3.49 4.59 4.59 0 0 0 0.26 2.73A2.17 2.17 0 0 0 11.91 24a2.33 2.33 0 0 0 2 -1.24 3.39 3.39 0 0 0 0.32 -1c0.11 -0.53 0.18 -1.17 0.26 -1.62l1.13 -0.49a13.15 13.15 0 0 0 1.19 2 5.72 5.72 0 0 0 1.44 1.4 5.15 5.15 0 0 0 3.49 0.58 2.12 2.12 0 0 0 1.76 -1.83 1.74 1.74 0 0 0 -0.65 -1.72Zm-0.25 1.61a1.23 1.23 0 0 1 -1.07 1 4.09 4.09 0 0 1 -2.74 -0.5 4.64 4.64 0 0 1 -1.13 -1.16 11.26 11.26 0 0 1 -1.26 -2.28 0.55 0.55 0 0 0 -0.3 -0.3 0.58 0.58 0 0 0 -0.41 0l-1.92 0.83a0.57 0.57 0 0 0 -0.29 0.37c-0.11 0.43 -0.19 1.24 -0.33 1.9a2.28 2.28 0 0 1 -0.19 0.62 1.22 1.22 0 0 1 -1 0.68 1.1 1.1 0 0 1 -0.95 -0.74 3.43 3.43 0 0 1 -0.12 -2 4.94 4.94 0 0 1 0.79 -2 2.93 2.93 0 0 1 0.88 -0.76 10.74 10.74 0 0 1 1.8 -0.82 0.57 0.57 0 0 0 0.3 -0.29 0.55 0.55 0 0 0 0 -0.42l-1.07 -2.55a0.5 0.5 0 0 0 -0.32 -0.28 0.46 0.46 0 0 0 -0.41 0.05 8.39 8.39 0 0 1 -2.71 1.09 7.26 7.26 0 0 1 -2.9 0A2.91 2.91 0 0 1 6 13.64a0.81 0.81 0 0 1 -0.38 -0.87 1.54 1.54 0 0 1 1.11 -1 13.11 13.11 0 0 1 2.17 0 4.12 4.12 0 0 0 1 -0.13 10 10 0 0 0 1.08 -0.4c0.78 -0.35 1.52 -0.79 2.31 -1.11a4.11 4.11 0 0 1 0.91 -0.26 1.7 1.7 0 0 1 0.71 0 0.27 0.27 0 0 0 0.12 0.09 1.58 1.58 0 0 1 0.67 0.66 7.52 7.52 0 0 1 0.58 1.55 22.34 22.34 0 0 0 1 2.88 30.41 30.41 0 0 0 1.37 2.74 9 9 0 0 0 0.79 1.27 3.18 3.18 0 0 0 0.81 0.74 18.58 18.58 0 0 1 1.95 0.94 0.92 0.92 0 0 1 0.4 0.95Z" fill="#020202" fill-rule="evenodd" stroke-width="1"></path>
    <path d="M10.12 16.92c-0.11 -0.18 -0.23 -0.35 -0.35 -0.52s-0.26 -0.33 -0.4 -0.48a3.83 3.83 0 0 0 -0.29 -0.28c-0.49 -0.21 -0.81 -0.22 -0.83 0.07 0.14 0.26 0.29 0.51 0.45 0.77a5.6 5.6 0 0 0 0.36 0.49 5.84 5.84 0 0 0 0.39 0.48L10 18c0.36 0.07 0.45 -0.21 0.41 -0.66 -0.12 -0.14 -0.2 -0.28 -0.29 -0.42Z" fill="#4C57E6" fill-rule="evenodd" stroke-width="1"></path>
    <path d="M4.41 9C4 8.33 3.62 7.72 3.19 7.13 1.05 4.09 1 3.77 0.63 4.09a0.29 0.29 0 0 0 -0.1 0.4c0.5 1 1 1.91 1.53 2.84 0.23 0.4 0.48 0.78 0.74 1.16s0.53 0.76 0.81 1.12c0.52 0.68 1 1 1.5 1.68 0.3 0.36 0.76 -0.06 0.52 -0.44S4.89 9.74 4.41 9Z" fill="#4C57E6" fill-rule="evenodd" stroke-width="1"></path>
  </g>
</svg>