<svg xmlns="http://www.w3.org/2000/svg" viewBox="0 0 24 24" id="Road-Sign-Speed-Limit-50--Streamline-Freehand">
  <desc>
    Road Sign Speed Limit 50 Streamline Icon: https://streamlinehq.com
  </desc>
  <g>
    <path d="M24.58 10.27a13.8 13.8 0 0 0 -1.19 -3.89A9.85 9.85 0 0 0 21 3.07a12.35 12.35 0 0 0 -1.49 -1c-0.85 -0.52 -1.81 -1 -2.31 -1.28a0.36 0.36 0 0 0 -0.5 0.21 0.37 0.37 0 0 0 0.17 0.48c0.41 0.2 1.15 0.61 1.86 1.05a14.85 14.85 0 0 1 1.74 1.18 9.17 9.17 0 0 1 2.15 3.08 13 13 0 0 1 1.05 3.65 10.92 10.92 0 0 1 -4.29 9.72A11.38 11.38 0 0 1 9 22.37c-0.69 -0.21 -1.39 -0.46 -2.08 -0.74a14 14 0 0 1 -1.93 -1A10.13 10.13 0 0 1 1 15a10.52 10.52 0 0 1 0 -7 11.27 11.27 0 0 1 5.55 -6.2A14 14 0 0 1 15 1a0.32 0.32 0 0 0 0.37 -0.26 0.32 0.32 0 0 0 -0.26 -0.37 14.78 14.78 0 0 0 -8.91 0.72A12.24 12.24 0 0 0 0.09 7.62a11.62 11.62 0 0 0 -0.23 7.72 11.25 11.25 0 0 0 4.5 6.33 14.31 14.31 0 0 0 2.1 1.08 23.08 23.08 0 0 0 2.2 0.78A12.49 12.49 0 0 0 20.08 21a11.87 11.87 0 0 0 4.5 -10.73Z" fill="#4C57E6" stroke-width="1"></path>
    <path d="M7.34 8.21s0.02 0.01 0 0Z" fill="#020202" stroke-width="1"></path>
    <path d="M9.31 13.16a2.37 2.37 0 0 1 -1.39 0.21l-0.76 -0.23a0.37 0.37 0 1 0 -0.73 0 0.79 0.79 0 0 0 0.34 0.61 3.57 3.57 0 0 0 0.93 0.4 3.45 3.45 0 0 0 2.3 -0.26 2.1 2.1 0 0 0 1.17 -1.3 2.62 2.62 0 0 0 -0.91 -2.46 3.08 3.08 0 0 0 -2.45 -0.88 1.18 1.18 0 0 0 -0.44 0.29c-0.12 -0.47 -0.39 -1.4 -0.06 -1.33a0.56 0.56 0 0 1 0.24 -0.07 4.13 4.13 0 0 1 0.56 -0.05 7.22 7.22 0 0 1 0.93 0c0.5 0 1 0.1 1.45 0.16a0.32 0.32 0 0 0 0.11 -0.63c-0.48 -0.1 -1 -0.21 -1.47 -0.29 -0.34 0 -0.68 -0.09 -1 -0.11a4.18 4.18 0 0 0 -1 0 1.16 1.16 0 0 0 -0.54 0.28 1.48 1.48 0 0 0 -0.33 0.87 10.64 10.64 0 0 0 0 1.45l0 0.61A0.62 0.62 0 0 0 7 11a0.9 0.9 0 0 0 0.38 -0.09c0.13 -0.07 0.31 -0.2 0.49 -0.32a0.86 0.86 0 0 1 0.13 -0.14 1.9 1.9 0 0 1 1.48 0.55 1.53 1.53 0 0 1 0.66 1.33c-0.06 0.4 -0.43 0.67 -0.83 0.83ZM6.79 9.83c0 -0.06 0.12 0 0.16 0H7c-0.08 0.06 -0.16 0.09 -0.21 0Zm0.71 0.38c-0.06 0 -0.07 -0.1 -0.07 -0.23 0.16 0.09 0.25 0.18 0.07 0.23Z" fill="#020202" stroke-width="1"></path>
    <path d="M11.89 10a4.07 4.07 0 0 0 -0.26 2.65 2.84 2.84 0 0 0 1.1 1.58 3.12 3.12 0 0 0 1.73 0.6 2.62 2.62 0 0 0 2.67 -2.23c0.41 -1.7 -0.2 -3.9 -1.64 -4.48 -1.49 -0.67 -2.94 0.4 -3.6 1.88Zm3.33 -1.25c0.89 0.44 1.2 1.74 1.06 2.89s-0.65 2.05 -1.72 2a2.28 2.28 0 0 1 -0.59 -0.11 2.39 2.39 0 0 1 -0.52 -0.28 1.83 1.83 0 0 1 -0.77 -1.25 3.32 3.32 0 0 1 0.13 -1.65c0.38 -1.08 1.29 -2.01 2.41 -1.57Z" fill="#020202" stroke-width="1"></path>
  </g>
</svg>