<svg xmlns="http://www.w3.org/2000/svg" viewBox="0 0 24 24" id="Road-Sign-Road-Widens--Streamline-Freehand">
  <desc>
    Road Sign Road Widens Streamline Icon: https://streamlinehq.com
  </desc>
  <g>
    <path d="M23.8 11.06A8 8 0 0 0 23 10c-1.87 -2 -6.46 -6.52 -8.54 -8.56l-1 -0.93a0.12 0.12 0 0 0 -0.05 0 0.34 0.34 0 0 0 -0.29 -0.17S12.68 0.65 13 1l1 1c2 2.06 6.52 6.59 8.33 8.7 0.26 0.3 0.42 0.71 0.55 0.83 -0.08 0.14 -0.21 0.32 -0.33 0.5 -1 1.41 -3.47 4.32 -5.78 6.79A33.45 33.45 0 0 1 13 22.37a2.68 2.68 0 0 1 -0.75 0.46c0 -0.12 -0.34 -0.18 -0.58 -0.38a37.5 37.5 0 0 1 -2.91 -2.72c-2.6 -2.61 -5.79 -6.11 -7.12 -7.8 -0.16 -0.2 -0.35 -0.39 -0.47 -0.54C2.34 10.16 4.52 8 6.68 5.85S11 1.73 12 0.91c0.16 -0.12 0.31 -0.26 0.4 -0.32l0.09 0a0.25 0.25 0 0 0 0.2 -0.06 0.3 0.3 0 0 0 0 -0.43c-0.07 -0.09 -0.33 -0.2 -0.69 0A22 22 0 0 0 9.76 2C6.79 4.6 2.08 9.12 0.25 10.9a0.54 0.54 0 0 0 -0.13 0.53 2.61 2.61 0 0 0 0.38 0.69c0.64 0.91 2.17 2.76 3.92 4.71a71.12 71.12 0 0 0 6.48 6.53 2.52 2.52 0 0 0 1.22 0.64 3 3 0 0 0 1.53 -0.7 32.49 32.49 0 0 0 3.9 -3.77 86.63 86.63 0 0 0 5.75 -7 3.79 3.79 0 0 0 0.6 -1.09 0.84 0.84 0 0 0 -0.1 -0.38Zm-22.74 0.11c0.12 -0.05 0.09 0.05 0 0.17 -0.06 -0.08 -0.06 -0.15 0 -0.17Z" fill="#4C57E6" stroke-width="1"></path>
    <path d="M12.43 0.59c0.05 0 0.1 0.05 0.1 0h-0.1Z" fill="#4C57E6" stroke-width="1"></path>
    <path d="M11.72 14.52a2.38 2.38 0 0 0 -0.17 -0.93 1.59 1.59 0 0 0 -0.32 -0.46c-0.2 -0.21 -0.47 -0.38 -0.66 -0.58L9.08 11c0.05 0 0.07 0.11 0 0.12S9 11 9 10.91l0 -0.07 0.06 0.07c0 -0.2 0.14 -0.47 0.14 -0.51 0 -0.28 0.05 -0.57 0.06 -0.86s0 -0.86 0 -1.28A1 1 0 0 0 9.2 8a0.19 0.19 0 0 0 0 -0.09 0.3 0.3 0 0 0 -0.2 -0.36 0.33 0.33 0 0 0 -0.43 0.19 1.57 1.57 0 0 0 -0.06 0.52c0 0.34 -0.06 0.67 -0.1 1s-0.11 0.65 -0.19 1A5.94 5.94 0 0 0 8 11a0.76 0.76 0 0 0 0.18 0.59l1.55 1.77 0.83 0.7a1.67 1.67 0 0 1 0.15 0.72l0 1.48 0 0.75a1.94 1.94 0 0 0 0.09 0.52 0.34 0.34 0 0 0 0.29 0.15 0.32 0.32 0 0 0 0.26 -0.11 0.33 0.33 0 0 0 0.09 -0.35 1.41 1.41 0 0 0 0 -0.21l0 -0.75c0.14 -0.44 0.28 -1.14 0.28 -1.74ZM11 17.1a0.25 0.25 0 0 1 0.26 -0.1 0.3 0.3 0 0 0 -0.26 0.1Z" fill="#020202" stroke-width="1"></path>
    <path d="m9.08 10.97 -0.02 -0.03 -0.03 -0.03 0.05 0.06z" fill="#020202" stroke-width="1"></path>
    <path d="M15.58 11c0 0.11 0 0.19 -0.06 0.18s0 -0.06 0 -0.12L14 12.63c-0.19 0.19 -0.46 0.37 -0.66 0.57a1.91 1.91 0 0 0 -0.32 0.46 2.39 2.39 0 0 0 -0.17 0.94c0 0.59 0.14 1.29 0.17 1.75l0 0.75a1.21 1.21 0 0 0 0 0.2 0.35 0.35 0 0 0 0.09 0.36 0.36 0.36 0 0 0 0.26 0.11 0.35 0.35 0 0 0 0.29 -0.16 1.93 1.93 0 0 0 0.09 -0.51l0 -0.75 0 -1.48a1.72 1.72 0 0 1 0.15 -0.73l0.83 -0.7 1.55 -1.76a0.77 0.77 0 0 0 0.18 -0.59 5.51 5.51 0 0 0 -0.21 -0.78c-0.08 -0.32 -0.14 -0.64 -0.19 -1s-0.08 -0.67 -0.1 -1a1.6 1.6 0 0 0 0.04 -0.5 0.34 0.34 0 0 0 -0.43 -0.19 0.31 0.31 0 0 0 -0.22 0.37 0.3 0.3 0 0 0 0 0.1 1 1 0 0 0 0 0.25c0 0.42 -0.05 0.84 0 1.27s0 0.58 0.06 0.87c0 0 0.11 0.31 0.14 0.5l0.06 -0.06Zm-2.18 6.07a0.25 0.25 0 0 1 0.26 0.1 0.33 0.33 0 0 0 -0.26 -0.1Z" fill="#020202" stroke-width="1"></path>
    <path d="m15.53 11.04 0.05 -0.06 -0.03 0.03 -0.02 0.03z" fill="#020202" stroke-width="1"></path>
  </g>
</svg>