<svg xmlns="http://www.w3.org/2000/svg" viewBox="0 0 24 24" id="Road-Sign-Deadend--Streamline-Freehand">
  <desc>
    Road Sign Deadend Streamline Icon: https://streamlinehq.com
  </desc>
  <g>
    <path d="M23.63 6.92c-0.07 -0.83 -0.11 -2.37 -0.29 -3.53a3.33 3.33 0 0 0 -0.61 -1.68A5.28 5.28 0 0 0 20.08 0.47a45.28 45.28 0 0 0 -6.35 -0.38C12.65 0 11.56 0 10.47 0 7.93 0.06 5.38 0.24 2.91 0.31a0.34 0.34 0 0 0 -0.33 0.34 0.35 0.35 0 0 0 0.34 0.35C5 1 7.22 0.83 9.4 0.8c1.43 0 2.86 0 4.28 0.1s3.57 0 5.36 0.29a5.25 5.25 0 0 1 3 1.19 2.33 2.33 0 0 1 0.32 1.15c0.17 1.14 0.17 2.65 0.24 3.48 0.15 1.85 0.25 3.68 0.27 5.51a46.13 46.13 0 0 1 -0.21 5.5c-0.11 1.16 -0.16 2.11 -0.25 2.84a3.89 3.89 0 0 1 -0.23 1c0 0.07 -0.14 0.08 -0.26 0.14a5.82 5.82 0 0 1 -0.87 0.26 41.31 41.31 0 0 1 -6.69 0.57C9.09 23 3 22.78 1.91 22.42c0 0 -0.08 -0.1 -0.11 -0.18a5.91 5.91 0 0 1 -0.29 -1.09 56 56 0 0 1 -0.63 -6.89C0.64 9.08 0.66 3.12 0.82 1.21A0.31 0.31 0 0 0 0.55 0.88a0.3 0.3 0 0 0 -0.32 0.27 150.86 150.86 0 0 0 -0.07 15.33 28.53 28.53 0 0 0 0.7 6 1.33 1.33 0 0 0 0.6 0.83c1 0.45 9.16 0.89 15.11 0.61a26.9 26.9 0 0 0 5.19 -0.63 2.25 2.25 0 0 0 1.46 -0.89 4.32 4.32 0 0 0 0.34 -1.4c0.09 -0.74 0.14 -1.7 0.25 -2.88 0.14 -1.51 0.2 -3 0.19 -4.49 0 -2.23 -0.16 -4.45 -0.37 -6.71Z" fill="#4C57E6" stroke-width="1"></path>
    <path d="M4.68 6.18a1.57 1.57 0 0 0 -0.59 -0.3 6.74 6.74 0 0 0 -0.94 0h-0.08a0.36 0.36 0 0 0 -0.25 0.12 1.17 1.17 0 0 0 -0.16 0.58 32.86 32.86 0 0 0 -0.13 3.71 1.32 1.32 0 0 0 0.23 0.76 1 1 0 0 0 0.65 0.21 5.58 5.58 0 0 0 1.43 -0.2A1.9 1.9 0 0 0 6.1 9.4a4.19 4.19 0 0 0 -0.82 -2.56 3.38 3.38 0 0 0 -0.6 -0.66Zm-1.31 0Zm0 3.94c0 -0.07 0.11 0.06 0.14 0.08 -0.1 0.06 -0.17 0.03 -0.16 -0.05Zm0.28 0.31s-0.07 -0.06 -0.07 -0.17c0.06 0.09 0.16 0.18 0.05 0.2Zm0.8 -0.46a3.6 3.6 0 0 1 -0.87 0.25l0 -0.44a30.29 30.29 0 0 1 -0.25 -3.19 3.13 3.13 0 0 0 0.58 0 1 1 0 0 1 0.37 0.27 4.73 4.73 0 0 1 0.32 0.46A3.67 3.67 0 0 1 5 9a1 1 0 0 1 -0.57 1Z" fill="#020202" stroke-width="1"></path>
    <path d="M6.74 9.88a1.31 1.31 0 0 0 0.24 0.86 1.19 1.19 0 0 0 0.75 0.4 7 7 0 0 0 1.32 0 3.53 3.53 0 0 0 0.6 0 0.38 0.38 0 0 0 0.35 -0.44 0.34 0.34 0 0 0 -0.34 -0.33l-0.13 0c0 -0.09 -0.39 0 -0.44 0 -0.2 0 -0.53 0 -0.84 -0.06s-0.36 -0.05 -0.43 -0.16L8 9l0.28 0.08 0.27 0.05a2.35 2.35 0 0 0 0.37 0 2.63 2.63 0 0 0 0.75 -0.23 0.34 0.34 0 0 0 0.27 -0.39 0.33 0.33 0 0 0 -0.39 -0.27A4.73 4.73 0 0 1 8.73 8a1.69 1.69 0 0 0 -0.45 0l-0.23 0.07C8 7.87 8 7.65 8 7.44a1.12 1.12 0 0 1 0 -0.51c0.07 -0.2 0.28 -0.31 0.72 -0.39l0.76 -0.06a0.3 0.3 0 0 0 -0.07 -0.59l-0.75 -0.06a1.55 1.55 0 0 0 -1.51 0.68 1.8 1.8 0 0 0 -0.2 1 7.67 7.67 0 0 1 0 1.09c-0.03 0.29 -0.2 0.84 -0.21 1.28Z" fill="#020202" stroke-width="1"></path>
    <path d="M13.35 5.72a0.75 0.75 0 0 0 -0.49 -0.21 0.71 0.71 0 0 0 -0.59 0.4 7.58 7.58 0 0 0 -0.56 1.32 13.8 13.8 0 0 0 -0.71 3.54 0.31 0.31 0 0 0 0.27 0.32 0.3 0.3 0 0 0 0.32 -0.28A7.77 7.77 0 0 1 12 9.38a4.68 4.68 0 0 0 0.51 0.14l0.25 0.05a2.36 2.36 0 0 0 0.38 0 7.71 7.71 0 0 0 0.93 -0.25 9.7 9.7 0 0 1 0.5 1.53 0.34 0.34 0 0 0 0.39 0.27 0.34 0.34 0 0 0 0.28 -0.38 13.67 13.67 0 0 0 -1 -3.62 4.53 4.53 0 0 0 -0.89 -1.4Zm-0.09 0.74c0.11 0.07 0 0.11 -0.1 0.14s0.06 -0.17 0.1 -0.14Zm-0.16 2a1.53 1.53 0 0 0 -0.37 0 1 1 0 0 0 -0.25 0.06l-0.16 0 0.43 -1q0.12 -0.25 0.21 -0.48a13.26 13.26 0 0 1 0.81 1.5 4.67 4.67 0 0 0 -0.67 -0.1Z" fill="#020202" stroke-width="1"></path>
    <path d="M16.76 11.22a2.62 2.62 0 0 0 2.51 -1.7 3.09 3.09 0 0 0 -0.45 -3.11 2.37 2.37 0 0 0 -1.2 -0.76 2.32 2.32 0 0 0 -0.87 -0.09 0.68 0.68 0 0 0 -0.39 0.16 0.73 0.73 0 0 0 -0.22 0.38 6.32 6.32 0 0 0 -0.06 1.44c0.05 1.07 0.2 2.43 0.3 3.05a0.9 0.9 0 0 0 0.26 0.57 0.24 0.24 0 0 0 0.12 0.06Zm0.45 -4.82c0.05 0 0 0.08 -0.07 0.12s0.02 -0.14 0.07 -0.12Zm-0.1 0.59 0 -0.3a1.34 1.34 0 0 1 0.83 0.44 2.07 2.07 0 0 1 0.45 2.06A1.89 1.89 0 0 1 17 10.52s0 -0.09 0 -0.13A31.13 31.13 0 0 1 17.11 7Z" fill="#020202" stroke-width="1"></path>
    <path d="M6.22 18s-0.03 0 0 0Z" fill="#020202" stroke-width="1"></path>
    <path d="M5.33 13.72a0.49 0.49 0 0 0 -0.17 0.33 3.7 3.7 0 0 0 0 0.59l0 1.87a9.69 9.69 0 0 0 0 1.36 1.28 1.28 0 0 0 0.37 0.86 1.16 1.16 0 0 0 0.61 0.23 11.53 11.53 0 0 0 1.6 0l0.82 -0.05 0 -0.65 0.06 0 -0.06 0v-0.05a0.31 0.31 0 0 0 -0.23 0l-0.56 0c-0.19 0 -0.56 0 -0.93 -0.06s-0.72 0 -0.65 -0.13a2.37 2.37 0 0 1 0 -0.43c0 -0.28 0 -0.58 0.06 -0.8a3.52 3.52 0 0 0 0.77 0.16 1.67 1.67 0 0 0 0.39 0c0.15 0 0.28 -0.08 0.36 -0.09s0.44 -0.14 0.57 -0.2l0.09 0c0.13 -0.08 0.19 -0.15 0.19 -0.19s0.08 -0.33 -0.15 -0.43a0.38 0.38 0 0 0 -0.17 0h-0.07c0 -0.1 -0.36 -0.05 -0.44 -0.07a2.58 2.58 0 0 0 -0.42 -0.07 2.82 2.82 0 0 0 -0.4 0 5 5 0 0 0 -0.72 0.24l-0.08 -1.37s-0.1 -0.21 -0.13 -0.34a1 1 0 0 1 0.2 -0.12c0.22 -0.1 0.47 -0.18 0.7 -0.26a0.72 0.72 0 0 1 0.28 -0.05 2.29 2.29 0 0 1 0.34 0.07 0.3 0.3 0 0 0 0.19 -0.56 1.91 1.91 0 0 0 -0.55 -0.16 1.28 1.28 0 0 0 -0.43 0c-0.28 0 -0.57 0.09 -0.83 0.16a1.87 1.87 0 0 0 -0.61 0.21Zm2.77 2.75a0.37 0.37 0 0 0 0.12 0.07c-0.17 -0.02 -0.17 0.01 -0.12 -0.07Zm-2 -2.31c0.08 0 0 0.07 0 0.13s-0.1 -0.13 -0.03 -0.13Z" fill="#020202" stroke-width="1"></path>
    <path d="M10 13.56a0.6 0.6 0 0 0 -0.39 -0.14 0.56 0.56 0 0 0 -0.51 0.58c0 0.18 0.07 0.62 0.08 0.66L9.43 17c0 0.16 0.13 1 0.19 1.32a1.71 1.71 0 0 0 0.05 0.18 0.28 0.28 0 0 0 0.45 0.15 0.27 0.27 0 0 0 0.11 -0.34h0.05c0 -0.33 -0.06 -1.12 -0.06 -1.28v-1.64a3.55 3.55 0 0 1 0.23 0.31 14.2 14.2 0 0 1 0.88 1.38l0.54 0.8s0.16 0.28 0.22 0.36A0.53 0.53 0 0 0 13 18a5.89 5.89 0 0 0 -0.06 -0.82l0 -2.13a10.42 10.42 0 0 0 -0.24 -1.13 0.38 0.38 0 0 0 -0.11 -0.26s-0.62 0 -0.54 0.43a9.59 9.59 0 0 1 0.14 1l-0.13 1.24c-0.2 -0.36 -0.4 -0.69 -0.62 -1a8.52 8.52 0 0 0 -1 -1.16 4.33 4.33 0 0 0 -0.44 -0.61Zm-0.65 0.83s0.09 0 0.14 0.08 -0.17 -0.02 -0.12 -0.08Zm2.73 3.26c0 0.1 0 0.18 -0.08 0.16s0 -0.11 0.1 -0.16Z" fill="#020202" stroke-width="1"></path>
    <path d="M10.22 18.3c0.13 0 0.09 -0.06 0 -0.09Z" fill="#020202" stroke-width="1"></path>
    <path d="M14.85 13.55a0.91 0.91 0 0 0 -0.64 0.39 0.84 0.84 0 0 0 -0.08 0.39c0 0.17 0.09 0.42 0.09 0.53l0.12 1.95c0 0.22 0.09 1.13 0.13 1.51a1.06 1.06 0 0 0 0 0.18 0.31 0.31 0 0 0 0.11 0.2 0.34 0.34 0 0 0 0.28 0.21h0.18a5.18 5.18 0 0 0 0.79 0 1.9 1.9 0 0 0 0.93 -0.43 2.82 2.82 0 0 0 0.65 -0.74 3.92 3.92 0 0 0 0.26 -2.74 1.92 1.92 0 0 0 -1.53 -1.47 5.67 5.67 0 0 0 -1.29 0.02Zm-0.24 4.68a0.25 0.25 0 0 1 0.36 0 0.3 0.3 0 0 0 -0.36 0Zm0.41 0Zm0 -3.63c0 -0.07 0 -0.1 0.14 -0.11s-0.16 0.23 -0.16 0.15Zm1.74 1a2.92 2.92 0 0 1 0 1.65 2 2 0 0 1 -0.4 0.56 1.17 1.17 0 0 1 -0.54 0.33 4.62 4.62 0 0 1 -0.66 0.06l0 -1.46 0.12 -1.95 0 -0.33c0.27 0 0.64 0.11 0.72 0.12 0.44 0.12 0.61 0.61 0.72 1.09Z" fill="#020202" stroke-width="1"></path>
  </g>
</svg>