<svg xmlns="http://www.w3.org/2000/svg" viewBox="0 0 24 24" id="Road-Sign-Speed-Limit-60--Streamline-Freehand">
  <desc>
    Road Sign Speed Limit 60 Streamline Icon: https://streamlinehq.com
  </desc>
  <g>
    <path d="M24.58 10.27a13.8 13.8 0 0 0 -1.19 -3.89A10 10 0 0 0 21 3.06a13.85 13.85 0 0 0 -1.49 -1c-0.85 -0.52 -1.81 -1 -2.31 -1.28a0.36 0.36 0 0 0 -0.5 0.22 0.37 0.37 0 0 0 0.17 0.48c0.41 0.2 1.15 0.61 1.86 1.05a14.85 14.85 0 0 1 1.74 1.18 9.31 9.31 0 0 1 2.15 3.08 13 13 0 0 1 1.05 3.65 10.92 10.92 0 0 1 -4.29 9.72A11.38 11.38 0 0 1 9 22.37c-0.69 -0.21 -1.39 -0.46 -2.08 -0.74a14 14 0 0 1 -1.93 -1A10.13 10.13 0 0 1 1 15a10.52 10.52 0 0 1 0 -7 11.27 11.27 0 0 1 5.55 -6.2A14 14 0 0 1 15 1a0.32 0.32 0 0 0 0.37 -0.26 0.32 0.32 0 0 0 -0.26 -0.37 14.78 14.78 0 0 0 -8.91 0.72A12.24 12.24 0 0 0 0.09 7.62a11.62 11.62 0 0 0 -0.23 7.72 11.25 11.25 0 0 0 4.5 6.33 14.83 14.83 0 0 0 2.1 1.08 23.08 23.08 0 0 0 2.2 0.78A12.49 12.49 0 0 0 20.08 21a11.87 11.87 0 0 0 4.5 -10.73Z" fill="#4C57E6" stroke-width="1"></path>
    <path d="M8.2 9a0.61 0.61 0 0 0 -0.49 -0.2 0.65 0.65 0 0 0 -0.45 0.2 10.64 10.64 0 0 0 -0.73 1.79 5 5 0 0 0 0.11 4.47A2.43 2.43 0 0 0 9.8 16a1.64 1.64 0 0 0 1.06 -1.43 2.66 2.66 0 0 0 -0.86 -2.11 2.06 2.06 0 0 0 -1.67 -0.67 2.51 2.51 0 0 0 -1.27 0.65 4.34 4.34 0 0 1 0.25 -1.28c0.14 -0.38 0.7 -1.23 0.58 -1.58a0.35 0.35 0 0 0 0.27 -0.11A0.36 0.36 0 0 0 8.2 9Zm0 3.71c0.48 -0.16 0.81 0.11 1.16 0.5a1.6 1.6 0 0 1 0.38 1.06 0.61 0.61 0 0 1 -0.36 0.66 1.38 1.38 0 0 1 -2 -0.76 3.81 3.81 0 0 1 -0.21 -0.79 3 3 0 0 1 1.02 -0.71Z" fill="#020202" stroke-width="1"></path>
    <path d="M14.79 8.66a3 3 0 0 0 -1 0.44 6.16 6.16 0 0 0 -2 3.82 2.28 2.28 0 0 0 1.81 2.63A3.29 3.29 0 0 0 17 14a3.86 3.86 0 0 0 0.51 -3.55 3.89 3.89 0 0 0 -0.51 -0.84 10.16 10.16 0 0 0 -1 -0.92 0.41 0.41 0 0 0 -0.19 -0.08 2.3 2.3 0 0 0 -1.02 0.05Zm1.59 1.43a2.52 2.52 0 0 1 0.3 0.67 2.92 2.92 0 0 1 -0.6 2.6 2.19 2.19 0 0 1 -2.2 1c-1 -0.2 -1 -1.07 -0.88 -1.95a5.31 5.31 0 0 1 1.31 -2.7 2.52 2.52 0 0 1 0.69 -0.37 1.73 1.73 0 0 1 0.61 -0.09 7.1 7.1 0 0 1 0.77 0.84Z" fill="#020202" stroke-width="1"></path>
  </g>
</svg>