<svg xmlns="http://www.w3.org/2000/svg" viewBox="0 0 24 24" id="Road-Turning-Signs--Streamline-Freehand">
  <desc>
    Road Turning Signs Streamline Icon: https://streamlinehq.com
  </desc>
  <g>
    <path d="M8.33 12.29c1.07 -0.68 2.16 -1.32 3.28 -1.89a29.63 29.63 0 0 1 7.1 -2.59 0.33 0.33 0 0 0 0.29 -0.39 0.34 0.34 0 0 0 -0.39 -0.26c-0.61 0.11 -1.21 0.23 -1.81 0.37a3.12 3.12 0 0 0 0.15 -0.43 1.36 1.36 0 0 0 0.05 -0.29l0 -0.3a1.6 1.6 0 0 0 -0.11 -0.39 2.54 2.54 0 0 0 0.49 0 1.4 1.4 0 0 0 0.77 -0.4 1.84 1.84 0 0 0 0.46 -0.87 4.1 4.1 0 0 0 0 -1.21l-0.18 -0.83c-0.16 -0.64 -0.24 -1.15 -0.58 -1.41a1.41 1.41 0 0 0 -1.11 -0.25l-0.57 0 -1 0.2a0.35 0.35 0 0 0 -0.26 0.39 0.27 0.27 0 0 0 0.07 0.14 0.29 0.29 0 0 0 -0.27 0.27l-0.11 1.76a8.32 8.32 0 0 0 0 1.06 1.24 1.24 0 0 0 0.23 0.64 1.07 1.07 0 0 0 0.38 0.29 2.44 2.44 0 0 0 0.74 0.15l0.15 0a2.15 2.15 0 0 0 -0.15 0.38 1.45 1.45 0 0 0 0 0.29 1.38 1.38 0 0 0 0 0.29c0 0.25 0.1 0.46 0.15 0.69a29.63 29.63 0 0 0 -4.89 1.75 31.69 31.69 0 0 0 -3.42 1.88c-1.08 0.69 -2.12 1.46 -3.16 2.28a20 20 0 0 0 -3.12 3.06A8.53 8.53 0 0 0 0 19.28a0.3 0.3 0 0 0 0.19 0.37 0.3 0.3 0 0 0 0.37 -0.18A7.39 7.39 0 0 1 2 17.17a19.29 19.29 0 0 1 3.16 -2.73c1.06 -0.78 2.11 -1.44 3.17 -2.15ZM15.32 2l0.91 -0.11h0.56a0.75 0.75 0 0 1 0.49 0.11 0.52 0.52 0 0 1 0.08 0.23c0 0.2 0.05 0.45 0.1 0.72l0.06 0.43a1.05 1.05 0 0 0 -0.27 -0.29c-0.13 -0.09 -0.31 -0.16 -0.41 -0.23l-1.21 -0.73a0.27 0.27 0 0 0 -0.34 0 0.14 0.14 0 0 0 0 -0.11Zm0.09 2.45 0 -0.57 0 -1.22 0.85 1Zm0.46 0.56 1.24 -0.66a1.8 1.8 0 0 0 0.39 -0.27l0.06 -0.08a2.22 2.22 0 0 1 0 0.45 0.83 0.83 0 0 1 -0.2 0.48 0.74 0.74 0 0 1 -0.48 0.13l-0.86 0Z" fill="#020202" fill-rule="evenodd" stroke-width="1"></path>
    <path d="M23.56 9.3a20.81 20.81 0 0 0 -6.28 3.5 35.78 35.78 0 0 0 -2.7 2.35c-0.88 0.85 -1.7 1.74 -2.47 2.57s-1.67 1.78 -2.44 2.72a13.7 13.7 0 0 0 -1.41 2 0.3 0.3 0 0 0 0.1 0.4 0.29 0.29 0 0 0 0.4 -0.11 11.87 11.87 0 0 1 1.47 -1.84c0.82 -0.88 1.74 -1.68 2.6 -2.52s2 -1.94 3 -2.93 2.06 -1.9 3.16 -2.75a19.16 19.16 0 0 1 4.76 -2.81 0.33 0.33 0 0 0 0.25 -0.38 0.32 0.32 0 0 0 -0.44 -0.2Z" fill="#020202" fill-rule="evenodd" stroke-width="1"></path>
    <path d="M7.29 16.59a14.18 14.18 0 0 0 -1.48 1.1 7.41 7.41 0 0 0 -0.58 0.54 6.05 6.05 0 0 0 -0.52 0.6 14.1 14.1 0 0 0 -1 1.57 0.28 0.28 0 0 0 0.06 0.4 0.29 0.29 0 0 0 0.41 -0.05c0.41 -0.42 0.86 -0.8 1.3 -1.22L6 19c0.17 -0.18 0.34 -0.38 0.5 -0.56 0.4 -0.46 0.77 -0.91 1.17 -1.34a0.32 0.32 0 0 0 0 -0.46 0.33 0.33 0 0 0 -0.38 -0.05Z" fill="#4C57E6" fill-rule="evenodd" stroke-width="1"></path>
    <path d="M11.33 13a2.66 2.66 0 0 0 -0.46 0.35 10.66 10.66 0 0 0 -0.9 1 0.29 0.29 0 1 0 0.38 0.44c0.42 -0.24 0.87 -0.42 1.3 -0.68 0.24 -0.15 0.47 -0.32 0.69 -0.49s0.68 -0.53 1.05 -0.75a0.33 0.33 0 1 0 -0.26 -0.61 7.06 7.06 0 0 0 -1.29 0.45 3.15 3.15 0 0 0 -0.51 0.29Z" fill="#4C57E6" fill-rule="evenodd" stroke-width="1"></path>
    <path d="M18 9.08a3.25 3.25 0 0 0 -0.51 0.3 10.14 10.14 0 0 0 -1.05 0.9 0.29 0.29 0 0 0 -0.1 0.4 0.28 0.28 0 0 0 0.4 0.09c0.47 -0.19 1 -0.33 1.44 -0.54 0.26 -0.12 0.52 -0.27 0.78 -0.42s0.76 -0.49 1.16 -0.7a0.33 0.33 0 1 0 -0.22 -0.62 10.29 10.29 0 0 0 -1.35 0.35 5.38 5.38 0 0 0 -0.55 0.24Z" fill="#4C57E6" fill-rule="evenodd" stroke-width="1"></path>
    <path d="m1 9.85 0 0.76a1.56 1.56 0 0 0 0.09 0.45 0.89 0.89 0 0 0 0.38 0.43 1.63 1.63 0 0 0 0.82 0.18l0.84 0a3.68 3.68 0 0 0 -0.18 0.5 2.28 2.28 0 0 0 0 0.26 1.09 1.09 0 0 0 0 0.26c0 0.22 0.12 0.4 0.19 0.62a0.33 0.33 0 0 0 0.33 0.33 0.33 0.33 0 0 0 0.33 -0.34 6.17 6.17 0 0 0 0.2 -0.64 2.51 2.51 0 0 0 0 -0.27 1.24 1.24 0 0 0 0 -0.27 2.78 2.78 0 0 0 -0.21 -0.5H4a4.46 4.46 0 0 0 1.59 -0.12 1.42 1.42 0 0 0 0.87 -1.09l0.13 -0.87v-1L6.47 7.2a7 7 0 0 0 -0.25 -2.34 1.7 1.7 0 0 0 -0.8 -0.93 2.49 2.49 0 0 0 -1.26 -0.24c-0.83 0 -1.72 0.4 -2.49 0.47a0.36 0.36 0 0 0 -0.18 0.07 0.29 0.29 0 0 0 -0.33 0.24A8.63 8.63 0 0 0 1 5.69l0 1.82Zm4.49 -0.39 -0.1 0.67a0.42 0.42 0 0 1 -0.34 0.36 7.33 7.33 0 0 1 -1.06 0l-1.73 0.12c-0.08 0 -0.24 -0.09 -0.3 0s0 -0.09 0 -0.14v-0.19a0.35 0.35 0 0 0 0.17 -0.06 7.18 7.18 0 0 1 0.85 -0.53c0.46 -0.26 0.94 -0.47 1.4 -0.68a8.06 8.06 0 0 0 0.86 -0.45 2 2 0 0 0 0.27 -0.23v1.13ZM1.67 4.82c0.66 0 1.42 -0.27 2.15 -0.33A1.86 1.86 0 0 1 5 4.68a1 1 0 0 1 0.43 0.74 8.24 8.24 0 0 1 0 1.64L5 6.66c-0.66 -0.4 -1.33 -0.73 -2 -1.14A5.06 5.06 0 0 1 2.22 5a0.3 0.3 0 0 0 -0.41 0 0.31 0.31 0 0 0 0 0.42 8.59 8.59 0 0 0 1 0.94c0.5 0.42 1 0.79 1.53 1.22l0.21 0.11c-0.23 0.17 -0.48 0.32 -0.68 0.44 -0.44 0.28 -0.9 0.57 -1.34 0.9a7.64 7.64 0 0 0 -0.62 0.51l-0.16 -2c-0.05 -0.6 -0.1 -1.18 -0.1 -1.77 -0.03 -0.35 -0.01 -0.65 0.02 -0.95Z" fill="#020202" fill-rule="evenodd" stroke-width="1"></path>
    <path d="M8 7.78a1.19 1.19 0 0 0 0.73 0.47 2.89 2.89 0 0 0 1.17 0 0.75 0.75 0 0 0 0 0.16 0.93 0.93 0 0 0 0 0.23 1.39 1.39 0 0 0 0.24 0.57 0.32 0.32 0 0 0 0.4 0.23 0.33 0.33 0 0 0 0.24 -0.44c0 -0.13 0.13 -0.2 0.17 -0.34A1.28 1.28 0 0 0 11 8.4a1.13 1.13 0 0 0 -0.08 -0.34A3.83 3.83 0 0 0 12 7.8a1.67 1.67 0 0 0 1 -1.31l0.08 -0.83L13 4.5a7 7 0 0 0 -0.21 -2 1.26 1.26 0 0 0 -0.79 -0.81 3.94 3.94 0 0 0 -1.35 -0.17c-0.63 0 -1.28 0.13 -1.85 0.18a0.33 0.33 0 0 0 -0.31 0.35 0.33 0.33 0 0 0 0.35 0.31l0.65 0a0.25 0.25 0 0 0 -0.12 0 0.3 0.3 0 0 0 -0.1 0.4 5.68 5.68 0 0 0 0.41 0.77c0.23 0.36 0.48 0.7 0.73 1l0.24 0.24 -0.38 0.31c-0.49 0.38 -1 0.75 -1.44 1.11 0 0 -0.07 0.09 -0.1 0.14l0 -1.16 0 -1.16c0 -0.39 0 -0.76 0.06 -1.15a0.28 0.28 0 0 0 -0.26 -0.32 0.29 0.29 0 0 0 -0.32 0.25L8 5.19l-0.12 1.65a3.49 3.49 0 0 0 0 0.56 0.89 0.89 0 0 0 0.12 0.38ZM10.32 3a7.19 7.19 0 0 1 -0.51 -0.59 0.27 0.27 0 0 0 -0.17 -0.13l1 0a3.32 3.32 0 0 1 1.06 0.19c0.19 0.08 0.21 0.31 0.25 0.53a6.6 6.6 0 0 1 0 1.41 0.49 0.49 0 0 0 -0.11 -0.14 4 4 0 0 0 -0.67 -0.44c-0.26 -0.25 -0.56 -0.51 -0.85 -0.83ZM9.23 6.77c0.58 -0.32 1.29 -0.61 1.9 -1a5.71 5.71 0 0 0 0.79 -0.62A0.37 0.37 0 0 0 12 5v0.59l-0.08 0.67a0.63 0.63 0 0 1 -0.35 0.49 8.33 8.33 0 0 1 -1.57 0.37 5.09 5.09 0 0 1 -0.78 0.16c-0.15 0 -0.31 0 -0.4 -0.08s0 -0.27 0 -0.39v-0.13a0.34 0.34 0 0 0 0.41 0.09Z" fill="#020202" fill-rule="evenodd" stroke-width="1"></path>
  </g>
</svg>