<svg xmlns="http://www.w3.org/2000/svg" viewBox="0 0 24 24" id="Road-Sign-Stop-Direction--Streamline-Freehand">
  <desc>
    Road Sign Stop Direction Streamline Icon: https://streamlinehq.com
  </desc>
  <g>
    <path d="M9.93 5.24c1 -0.14 1 -0.7 0 -0.81 -0.54 0 -1.07 -0.07 -1.59 -0.08s-0.84 0 -1.24 0a1.14 1.14 0 0 1 -0.56 -0.19 3.74 3.74 0 0 1 -0.64 -0.51 1.4 1.4 0 0 1 -0.25 -0.32c0.11 0 0.23 -0.27 0.29 -0.33L7 1.85a1.33 1.33 0 0 1 0.2 0c0.47 0 0.92 0.13 1.39 0.19s0.91 0.08 1.37 0.1c1.17 0 1.16 -0.85 0 -1 -0.24 0 -0.48 -0.09 -0.73 -0.11A7.25 7.25 0 0 0 8.27 1a6 6 0 0 0 -1.91 0.33c-0.23 0.05 0.07 0 -1.44 1.39a0.74 0.74 0 0 0 -0.2 0.31A1.35 1.35 0 0 0 5 4.12a3.94 3.94 0 0 0 1 0.93 2.2 2.2 0 0 0 1 0.36 12.65 12.65 0 0 0 1.36 -0.07c0.51 -0.04 1.04 -0.08 1.57 -0.1Z" fill="#4C57E6" fill-rule="evenodd" stroke-width="1"></path>
    <path d="M19.21 5.37c-2 -1.89 -1.66 -1.84 -2.18 -1.86s-1.27 0.05 -1.82 0.05l-1 0a4.91 4.91 0 0 0 -0.67 0.06h-0.05c-1 0.39 -1.26 0.93 0 0.9l0.65 0.06 1.1 0 1.61 -0.25s0 0.08 0.05 0.1c0.12 0.22 0.18 0.42 0.31 0.62a2 2 0 0 0 0.19 0.22l0.23 0.18a4.78 4.78 0 0 0 0.64 0.32c-0.23 0.24 -0.46 0.48 -0.71 0.7a2.76 2.76 0 0 1 -0.78 0.53 0.83 0.83 0 0 1 -0.36 0l-0.86 0 -2.09 0c-1.15 0.07 -1.06 0.67 0 0.81l1 0.17a10.36 10.36 0 0 0 1.12 0.08 9.83 9.83 0 0 0 1.08 0A1.79 1.79 0 0 0 17.3 8a3 3 0 0 0 0.7 -0.64c0.45 -0.48 0.8 -1.05 1.2 -1.54a0.32 0.32 0 0 0 0.01 -0.45Z" fill="#4C57E6" fill-rule="evenodd" stroke-width="1"></path>
    <path d="M17.17 13.59v-1.84a0.58 0.58 0 0 0 -0.15 -0.37 2.8 2.8 0 0 0 -0.44 -0.36l-1.23 -1a3.32 3.32 0 0 0 -1.69 -0.7 7 7 0 0 0 -1.52 0 41.78 41.78 0 0 0 -0.35 -9.06 0.29 0.29 0 0 0 -0.3 -0.26 0.28 0.28 0 0 0 -0.26 0.3c0 6 -0.14 4.68 0.26 9.09l-0.26 0 -1.12 0a1.26 1.26 0 0 0 -0.63 0.23 7 7 0 0 0 -1.22 1.28 9 9 0 0 0 -0.77 1.16s0 0.06 -0.07 0.1a1.29 1.29 0 0 1 -0.09 0.16 0.27 0.27 0 0 0 0 0.26c-0.07 0.63 -0.2 1.4 -0.21 2.11a4.81 4.81 0 0 0 0.13 1.13 1.18 1.18 0 0 0 0.27 0.46c0.16 0.18 0.41 0.35 0.51 0.45a8.33 8.33 0 0 0 0.87 0.7c0.35 0.25 0.71 0.46 1.07 0.68a0.3 0.3 0 0 0 -0.08 0.22 0.27 0.27 0 0 0 0.31 0.25c0.51 0 1 0.12 1.49 0.16h0.14a6.08 6.08 0 0 0 -0.34 2.05 6 6 0 0 0 0.15 1.21c0.11 0.6 0.29 1.16 0.41 1.72a0.32 0.32 0 1 0 0.63 -0.06l0 -2c0 -0.38 -0.06 -0.76 -0.11 -1.13a9.6 9.6 0 0 1 -0.14 -1.68s0 -0.06 0 -0.09l0.63 0a10.11 10.11 0 0 0 1.55 -0.3 0.29 0.29 0 0 0 0.21 -0.14 0.29 0.29 0 0 0 0.33 0 3.85 3.85 0 0 0 0.5 -0.49c0.36 -0.38 0.68 -0.81 1 -1.18 0.12 -0.13 0.35 -0.32 0.5 -0.51a1.49 1.49 0 0 0 0.24 -0.38 1.7 1.7 0 0 0 0.06 -0.77c-0.1 -0.52 -0.26 -1.05 -0.28 -1.4Zm-0.63 1.84 -0.54 0.67c-0.3 0.39 -0.6 0.83 -0.92 1.23a4.47 4.47 0 0 1 -0.42 0.45s0 0 0 0.07a0.29 0.29 0 0 0 -0.18 -0.05c-0.51 0 -1 -0.06 -1.52 -0.09a8.85 8.85 0 0 0 -1 0 8.23 8.23 0 0 0 -1.21 0.19 0.29 0.29 0 0 0 -0.07 -0.12c-0.39 -0.33 -0.79 -0.66 -1.17 -1a9.35 9.35 0 0 1 -0.72 -0.78c-0.1 -0.11 -0.69 -0.41 -0.5 -0.51a6.61 6.61 0 0 1 -0.18 -1.2C8.05 13.64 8 13 8 12.4a9.74 9.74 0 0 1 0.82 -1.06 6.22 6.22 0 0 1 1.17 -1 0.69 0.69 0 0 1 0.39 -0.06c0.33 0 0.69 0.06 0.95 0.06a11 11 0 0 1 2.23 0 2.4 2.4 0 0 1 1.17 0.49l1.24 1a1.11 1.11 0 0 0 0.22 0.22l0.09 1.6c0 0.35 0.23 0.89 0.3 1.36a0.78 0.78 0 0 1 -0.04 0.42Z" fill="#020202" fill-rule="evenodd" stroke-width="1"></path>
  </g>
</svg>