<svg xmlns="http://www.w3.org/2000/svg" viewBox="0 0 24 24" id="Road-Sign-Oneway-Right--Streamline-Freehand">
  <desc>
    Road Sign Oneway Right Streamline Icon: https://streamlinehq.com
  </desc>
  <g>
    <path d="M24 3a0.8 0.8 0 0 0 -0.35 -0.57 15.94 15.94 0 0 0 -2 -0.17c-3.49 -0.15 -11.25 -0.4 -16.22 -0.48l-4.08 0 -0.47 0a0.66 0.66 0 0 0 -0.53 0.36 1.52 1.52 0 0 0 -0.1 0.34c-0.05 0.24 0 0.55 -0.08 0.75C0.06 3.8 0 6.38 0 8.63a23.6 23.6 0 0 0 0.19 3.75 0.75 0.75 0 0 0 0.62 0.37c0.23 0 0.73 0 1.4 0.06 1.77 0 4.83 0.06 7.64 0.06a0.87 0.87 0 0 0 0 0.14l-0.1 1.18c0 0.48 -0.08 1 -0.1 1.43l0 1c0 0.81 0.07 1.61 0.1 2.41l0.11 1.41a5.24 5.24 0 0 0 0.07 0.74 0.41 0.41 0 0 0 0.38 0.35 0.4 0.4 0 0 0 0.29 -0.12 0.36 0.36 0 0 0 0.09 -0.39c0.1 -0.07 0 -0.5 0 -0.58l0.09 -1.44c0 -0.38 0.07 -0.77 0.08 -1.15a17 17 0 0 0 0 -1.75c0 -0.65 -0.12 -1.29 -0.2 -1.94L10.57 13a0.59 0.59 0 0 1 0 -0.14l3 0a13.4 13.4 0 0 0 -0.38 2.79l0 1.47c0 0.47 0.07 1 0.08 1.43l0.1 2.06 0.07 0.92c0 0.61 0.19 0.75 0.38 0.67 0.18 0.08 0.37 -0.06 0.37 -0.67l0.07 -0.92 0.2 -2.06 0 -2.36c0 -0.8 -0.17 -1.52 -0.19 -2.28a9.32 9.32 0 0 1 0 -1.06l1.53 -0.05c1.12 -0.06 2.24 -0.11 3.36 -0.14l2.23 0h1.2s0.23 0.05 0.27 0H23a0.35 0.35 0 0 0 0.34 -0.21h0.12a0.22 0.22 0 0 0 0.22 -0.12 0.09 0.09 0 0 0 0 -0.05v-0.11l0 -0.85 0.1 -2 0.2 -5A6.47 6.47 0 0 0 24 3ZM10 20.84a0.32 0.32 0 0 1 0.36 -0.1 0.38 0.38 0 0 0 -0.36 0.1ZM23 9.26l-0.06 2 0 0.62a3.56 3.56 0 0 0 -0.37 0l-1.2 0h-2.19c-1.13 0 -2.25 0 -3.38 0.07 -1.93 0.07 -10.14 -0.1 -13.55 -0.25l-1 -0.06c-0.05 -0.92 0 -2.9 0 -4.68 0 -1.59 0.07 -3 0.13 -3.4l0 -0.42h1.77c2.82 0 7.82 0 12.15 0.09 3.16 0 6 0.06 7.28 0.1l0.4 0a4.58 4.58 0 0 0 0.13 1Z" fill="#4C57E6" stroke-width="1"></path>
    <path d="M19.27 7.1c-0.67 -0.52 -2.38 -1.73 -2.56 -1.88a0.37 0.37 0 1 0 -0.53 0.53c0.12 0.14 1 1 1.67 1.69h-1c-0.39 0 -0.78 -0.06 -1.17 -0.1 -0.59 -0.07 -1.18 -0.17 -1.77 -0.26 -0.87 -0.11 -1.74 -0.19 -2.62 -0.24l-1.56 0 -2.32 0c-0.49 0 -1.08 0.12 -1.61 0.16a1.78 1.78 0 0 1 -0.57 0 0.33 0.33 0 0 0 -0.41 0.22 0.33 0.33 0 0 0 0.22 0.42 2.64 2.64 0 0 0 0.77 0.12l1.51 0c0.9 0.09 1.76 0.24 2.68 0.24 1.29 0.09 2.58 0.09 3.85 0.23 0.61 0 1.22 0.07 1.83 0.08l1.24 0 0.71 -0.07c-0.49 0.4 -1 0.84 -1.26 1 0 0 -0.62 0.47 -0.81 0.67a0.45 0.45 0 0 0 -0.16 0.46 0.33 0.33 0 0 0 0.42 0.2 0.34 0.34 0 0 0 0.18 -0.15c0.14 0.21 0.77 -0.41 0.82 -0.44a16.2 16.2 0 0 0 1.72 -0.94 4.71 4.71 0 0 0 1.2 -1 0.64 0.64 0 0 0 -0.17 -0.78Zm-0.66 0.34 0 0.08 -0.05 0s0.03 -0.11 0.05 -0.08Zm-0.11 0.72 0.08 0c0.02 0 0.13 0.09 0.1 0.12s-0.17 0.02 -0.18 -0.12Z" fill="#020202" stroke-width="1"></path>
  </g>
</svg>