<svg xmlns="http://www.w3.org/2000/svg" viewBox="0 0 24 24" id="Road-Sign-Right-Curve-Ahead--Streamline-Freehand">
  <desc>
    Road Sign Right Curve Ahead Streamline Icon: https://streamlinehq.com
  </desc>
  <g>
    <path d="M23.8 11.06A7.47 7.47 0 0 0 23 10c-1.87 -2 -6.46 -6.52 -8.54 -8.56l-1 -0.93a0.12 0.12 0 0 0 -0.05 0 0.34 0.34 0 0 0 -0.29 -0.17S12.68 0.65 13 1l1 1c2 2.06 6.52 6.59 8.33 8.7 0.26 0.3 0.42 0.71 0.55 0.83 -0.08 0.14 -0.21 0.32 -0.33 0.5 -1 1.42 -3.47 4.32 -5.78 6.79A33.45 33.45 0 0 1 13 22.37a2.45 2.45 0 0 1 -0.75 0.46c0 -0.12 -0.34 -0.18 -0.58 -0.38a39.06 39.06 0 0 1 -2.91 -2.71c-2.6 -2.62 -5.79 -6.12 -7.12 -7.81 -0.16 -0.2 -0.35 -0.39 -0.47 -0.54C2.33 10.16 4.52 8 6.68 5.85S11 1.73 12 0.91c0.16 -0.12 0.31 -0.26 0.4 -0.32l0.09 0a0.25 0.25 0 0 0 0.2 -0.06 0.3 0.3 0 0 0 0 -0.43c-0.07 -0.09 -0.33 -0.2 -0.69 0A22 22 0 0 0 9.76 2C6.79 4.6 2.08 9.12 0.25 10.9a0.54 0.54 0 0 0 -0.13 0.53 2.61 2.61 0 0 0 0.38 0.69c0.64 0.91 2.17 2.76 3.92 4.71a71.12 71.12 0 0 0 6.48 6.53 2.52 2.52 0 0 0 1.22 0.64 3 3 0 0 0 1.53 -0.7 32.49 32.49 0 0 0 3.9 -3.77 86.63 86.63 0 0 0 5.75 -7 3.79 3.79 0 0 0 0.6 -1.09 0.84 0.84 0 0 0 -0.1 -0.38Zm-22.74 0.11c0.12 -0.05 0.09 0.06 0 0.17 -0.06 -0.08 -0.06 -0.15 0 -0.17Z" fill="#4C57E6" stroke-width="1"></path>
    <path d="M12.43 0.59c0.05 0 0.1 0.05 0.1 0h-0.1Z" fill="#4C57E6" stroke-width="1"></path>
    <path d="M10.88 17.74c-0.09 0.06 -0.13 0.1 0 0.11v-0.06Z" fill="#020202" stroke-width="1"></path>
    <path d="M15.52 10.66a0.34 0.34 0 0 0 0.53 0.42A14.84 14.84 0 0 0 16.84 9c0.16 -0.52 0.3 -1 0.37 -1.34a2.21 2.21 0 0 0 0.07 -0.43 0.56 0.56 0 0 0 -0.42 -0.61 4 4 0 0 0 -1.16 0c-0.7 0.08 -1.7 0.3 -2.2 0.38l-0.31 0.06c-0.4 0 -0.66 0.35 -0.4 0.51a0.55 0.55 0 0 0 0.47 0.1h0.34l1.9 0c-0.89 0.54 -1.77 0.92 -2.59 1.51a6.7 6.7 0 0 0 -1.8 1.92 3.66 3.66 0 0 0 -0.39 1.48l0 1.34c0 1.36 0.16 2.83 0.21 3.52l0 0.21 0 0.07a0.3 0.3 0 0 0 0.27 0.33 0.36 0.36 0 0 0 0.35 -0.35l0 -0.6c0 -0.93 0.12 -2.67 0.28 -4a4.35 4.35 0 0 1 0.29 -1.44A6.09 6.09 0 0 1 13.5 10c0.78 -0.65 1.61 -1.11 2.44 -1.73 -0.12 0.74 -0.27 1.63 -0.36 2.1 -0.03 0.15 -0.1 0.27 -0.06 0.29Zm0.6 -3.52 0 0.17c-0.12 -0.1 -0.18 -0.18 0 -0.17Z" fill="#020202" stroke-width="1"></path>
  </g>
</svg>