<svg xmlns="http://www.w3.org/2000/svg" viewBox="0 0 24 24" id="Road-Turnabout--Streamline-Freehand">
  <desc>
    Road Turnabout Streamline Icon: https://streamlinehq.com
  </desc>
  <g>
    <path d="M15.23 14a3.35 3.35 0 0 0 1 -1.28 4 4 0 0 0 -0.21 -3.53 4 4 0 0 0 -2.78 -2.08 2.73 2.73 0 0 0 -1 0 5.76 5.76 0 0 0 -1.21 0.42A3.55 3.55 0 0 0 8.7 9.44a4.11 4.11 0 0 0 -0.34 3.16 3.72 3.72 0 0 0 1.93 2.08 4.07 4.07 0 0 0 2.83 0.27 6.4 6.4 0 0 0 2.11 -0.95Zm-4.55 -0.11a2.87 2.87 0 0 1 -1.56 -1.52 3.36 3.36 0 0 1 0.16 -2.59A3 3 0 0 1 11 8.06a0.31 0.31 0 0 0 0.25 0 5.63 5.63 0 0 1 1.16 -0.36 1.8 1.8 0 0 1 0.73 0 3.35 3.35 0 0 1 2.21 1.81 3.1 3.1 0 0 1 0.07 2.77 2.67 2.67 0 0 1 -1 1.09 5.94 5.94 0 0 1 -1.54 0.65 3.19 3.19 0 0 1 -2.2 -0.18Z" fill="#020202" fill-rule="evenodd" stroke-width="1"></path>
    <path d="M13.05 3a0.28 0.28 0 1 0 0.56 -0.08c0 -0.32 0.05 -0.62 0.07 -0.93l0 -0.4a1.72 1.72 0 0 0 0 -0.39c-0.05 -0.31 -0.14 -0.6 -0.2 -0.92a0.25 0.25 0 0 0 -0.5 0 8 8 0 0 0 -0.22 1 2.8 2.8 0 0 0 0 0.41l0 0.42a8.37 8.37 0 0 0 0.29 0.89Z" fill="#020202" fill-rule="evenodd" stroke-width="1"></path>
    <path d="M13.36 3.73a0.25 0.25 0 0 0 0.27 0.23 5.51 5.51 0 0 1 2.37 0.53 7.92 7.92 0 0 1 0.9 0.5 7.1 7.1 0 0 1 0.8 0.65 5.83 5.83 0 0 1 1.41 2 0.29 0.29 0 0 0 0.2 0.17 0.22 0.22 0 0 0 0.22 0.07 8.38 8.38 0 0 1 1.57 0.05l0.77 0 0.79 0c0.26 0 0.52 0.06 0.78 0.11a0.27 0.27 0 0 0 0.38 -0.04 0.3 0.3 0 0 0 -0.18 -0.37 6.53 6.53 0 0 0 -1.43 -0.5 4.84 4.84 0 0 0 -0.65 -0.13 4.68 4.68 0 0 0 -0.65 0 5.23 5.23 0 0 0 -1.28 0.33A6.21 6.21 0 0 0 18.37 5a5 5 0 0 0 -0.91 -0.81 4.56 4.56 0 0 0 -1.1 -0.56 5.61 5.61 0 0 0 -2.78 -0.18 0.23 0.23 0 0 0 -0.22 0.28Z" fill="#020202" fill-rule="evenodd" stroke-width="1"></path>
    <path d="M7 9.88c0.12 0 0.12 0 0.58 -0.51a0.41 0.41 0 0 0 0.1 -0.13c0.43 -0.86 0.27 -0.92 0.22 -1S7.73 8 7 8.56a1 1 0 0 0 -0.16 0.19 0.52 0.52 0 0 0 -0.1 0.23c0 0.16 -0.04 0.87 0.26 0.9Z" fill="#4C57E6" fill-rule="evenodd" stroke-width="1"></path>
    <path d="M9.17 6a0.72 0.72 0 0 0 -0.2 0.09 0.57 0.57 0 0 0 -0.16 0.15c0 0.06 -0.42 0.65 -0.19 0.85 0 0 0.08 0.14 0.76 -0.13l0.14 -0.07c0.72 -0.6 0.53 -0.81 0.52 -0.82S10 5.78 9.17 6Z" fill="#4C57E6" fill-rule="evenodd" stroke-width="1"></path>
    <path d="M11.48 3c0.19 0 0.22 -0.13 0.35 -0.77a1.1 1.1 0 0 0 0 -0.18 1.37 1.37 0 0 0 0 -0.19c-0.23 -0.79 -0.45 -0.71 -0.46 -0.71 -0.21 0 -0.44 0.65 -0.46 0.72a0.5 0.5 0 0 0 0 0.21 0.52 0.52 0 0 0 0 0.21c0.27 0.77 0.5 0.71 0.57 0.71Z" fill="#4C57E6" fill-rule="evenodd" stroke-width="1"></path>
    <path d="M21.47 9a0.79 0.79 0 0 0 -0.22 0A0.87 0.87 0 0 0 21 9c-0.08 0 -0.76 0.22 -0.76 0.46 0 0.07 0 0.24 0.73 0.46a0.69 0.69 0 0 0 0.2 0 0.62 0.62 0 0 0 0.19 0c0.68 -0.09 0.75 -0.1 0.8 -0.28s0.13 -0.32 -0.69 -0.64Z" fill="#4C57E6" fill-rule="evenodd" stroke-width="1"></path>
    <path d="M13.22 19.23A0.25 0.25 0 0 0 13 19a0.25 0.25 0 0 0 -0.25 0.25 4.84 4.84 0 0 0 -0.22 0.61 2.45 2.45 0 0 0 0 0.27 2.51 2.51 0 0 0 0 0.27 3.9 3.9 0 0 0 0.23 0.63 0.28 0.28 0 1 0 0.56 -0.09c0 -0.2 0.08 -0.37 0.12 -0.58a2 2 0 0 0 0 -0.25 1.07 1.07 0 0 0 0 -0.25 4 4 0 0 0 -0.22 -0.63Z" fill="#4C57E6" fill-rule="evenodd" stroke-width="1"></path>
    <path d="M2.92 10.07a1.55 1.55 0 0 0 -0.43 0 2.79 2.79 0 0 0 -0.74 0.24 0.23 0.23 0 0 0 -0.22 0.27 0.25 0.25 0 0 0 0.27 0.23c0.21 0 0.38 0.14 0.6 0.19a1.23 1.23 0 0 0 0.27 0A1.27 1.27 0 0 0 3 11a2.66 2.66 0 0 0 0.67 -0.23 0.28 0.28 0 0 0 0.23 -0.33 0.29 0.29 0 0 0 -0.33 -0.23c-0.26 -0.04 -0.44 -0.11 -0.65 -0.14Z" fill="#4C57E6" fill-rule="evenodd" stroke-width="1"></path>
    <path d="M13.84 4.81c-0.55 0 -1.22 0.37 -1.05 0.71s0.13 0 0.88 0.21l0.23 0c1.13 0.15 1.17 0.21 1.28 0 0.21 -0.37 -0.77 -0.84 -0.79 -0.85a1.3 1.3 0 0 0 -0.55 -0.07Z" fill="#4C57E6" fill-rule="evenodd" stroke-width="1"></path>
    <path d="M17.66 8c0.06 0 0.27 -0.13 -0.1 -0.92a0.9 0.9 0 0 0 -0.14 -0.2 0.58 0.58 0 0 0 -0.18 -0.17c-0.07 0 -0.76 -0.4 -0.93 -0.12 -0.06 0.11 -0.09 0.14 0.28 0.77a0.42 0.42 0 0 0 0.11 0.15c0.07 0.11 0.73 0.69 0.96 0.49Z" fill="#4C57E6" fill-rule="evenodd" stroke-width="1"></path>
    <path d="M18 13.23a0.71 0.71 0 0 0 0.12 -0.18 0.57 0.57 0 0 0 0.07 -0.22c0 -0.07 0.09 -0.79 -0.13 -0.88s-0.21 -0.11 -0.71 0.51a1 1 0 0 0 -0.1 0.17 0.76 0.76 0 0 0 -0.06 0.2c-0.18 0.74 -0.1 0.82 0 0.89s0.28 0.18 0.81 -0.49Z" fill="#4C57E6" fill-rule="evenodd" stroke-width="1"></path>
    <path d="M15.07 16.22a0.85 0.85 0 0 0 0.23 0 0.75 0.75 0 0 0 0.2 -0.1c0.1 -0.08 0.62 -0.52 0.5 -0.74 0 -0.07 -0.05 -0.21 -0.83 -0.12l-0.19 0a0.8 0.8 0 0 0 -0.16 0.08c-0.6 0.34 -0.66 0.41 -0.63 0.59s0.01 0.33 0.88 0.29Z" fill="#4C57E6" fill-rule="evenodd" stroke-width="1"></path>
    <path d="M6.85 13.86a0.75 0.75 0 0 0 0.1 0.2l0.16 0.16c0.67 0.52 0.81 0.34 0.86 0.29s0.13 -0.23 -0.14 -0.85l-0.09 -0.17a0.86 0.86 0 0 0 -0.13 -0.14c-0.58 -0.51 -0.68 -0.41 -0.74 -0.38 -0.23 0.12 -0.06 0.79 -0.02 0.89Z" fill="#4C57E6" fill-rule="evenodd" stroke-width="1"></path>
    <path d="M9.46 16.7a1.22 1.22 0 0 0 0.33 0.14 2.39 2.39 0 0 0 0.84 0.09 0.29 0.29 0 0 0 0.32 -0.24 0.28 0.28 0 0 0 -0.24 -0.33 2.8 2.8 0 0 1 -0.56 -0.36l-0.38 -0.23c-0.26 -0.12 -0.52 -0.17 -0.76 -0.28a0.25 0.25 0 0 0 -0.36 0 0.24 0.24 0 0 0 0 0.35 3.3 3.3 0 0 0 0.5 0.63 1.1 1.1 0 0 0 0.31 0.23Z" fill="#4C57E6" fill-rule="evenodd" stroke-width="1"></path>
    <path d="M23.66 11.4a13.63 13.63 0 0 0 -1.44 -0.31l-0.63 -0.09a4.42 4.42 0 0 0 -0.59 0c-0.5 0 -1 0.14 -1.46 0.22a0.25 0.25 0 0 0 -0.24 0.26 0.26 0.26 0 0 0 0.26 0.25l0.15 0a22.38 22.38 0 0 1 -1.05 2.5 10 10 0 0 1 -0.92 1.51 6.2 6.2 0 0 1 -2.28 1.85 0.29 0.29 0 1 0 0.21 0.53 6.44 6.44 0 0 0 2.5 -1.48 5.42 5.42 0 0 0 0.8 -1 6.08 6.08 0 0 0 0.56 -1.11 14.84 14.84 0 0 0 0.69 -2.74c0.32 0 0.64 0.09 1 0.12s0.65 0 1 0l1.46 0a0.29 0.29 0 1 0 0.08 -0.57Z" fill="#020202" fill-rule="evenodd" stroke-width="1"></path>
    <path d="M11.8 20.16c-0.09 -0.64 -0.23 -1.27 -0.27 -1.92a0.26 0.26 0 0 0 -0.24 -0.27 0.25 0.25 0 0 0 -0.26 0.24l0 0.14a0.26 0.26 0 0 0 -0.22 -0.27A7.57 7.57 0 0 1 8.22 17a9 9 0 0 1 -0.93 -0.7 9.31 9.31 0 0 1 -0.82 -0.84 10.11 10.11 0 0 1 -1.53 -2.36 0.25 0.25 0 0 0 -0.47 0.18A9 9 0 0 0 5.75 16a5.72 5.72 0 0 0 0.91 1 6 6 0 0 0 1.1 0.76 7.84 7.84 0 0 0 2.94 0.86 0.27 0.27 0 0 0 0.3 -0.2 9.5 9.5 0 0 0 0.07 3.35c0.12 0.65 0.28 1.28 0.38 1.93a0.29 0.29 0 1 0 0.57 0 18.62 18.62 0 0 0 -0.02 -2.24c-0.08 -0.46 -0.13 -0.87 -0.2 -1.3Z" fill="#020202" fill-rule="evenodd" stroke-width="1"></path>
    <path d="m15.29 21.21 0 -1.12c-0.05 -0.65 -0.17 -1.27 -0.24 -1.9a0.26 0.26 0 0 0 -0.26 -0.25 0.25 0.25 0 0 0 -0.25 0.25c-0.07 0.56 -0.16 1.11 -0.19 1.68a5.9 5.9 0 0 0 0 0.73 6 6 0 0 0 0.07 0.73 13.41 13.41 0 0 0 0.33 1.67 0.28 0.28 0 0 0 0.32 0.24 0.3 0.3 0 0 0 0.24 -0.33c-0.04 -0.56 -0.01 -1.12 -0.02 -1.7Z" fill="#020202" fill-rule="evenodd" stroke-width="1"></path>
    <path d="M1.21 9.25a6 6 0 0 0 1.79 0.3 6.36 6.36 0 0 0 1.07 -0.1c0.54 -0.09 1.05 -0.23 1.55 -0.31a0.28 0.28 0 0 0 0.27 -0.3 0.27 0.27 0 0 0 -0.15 -0.22 9.23 9.23 0 0 1 1 -1.54c0.2 -0.24 0.41 -0.48 0.62 -0.7s0.44 -0.44 0.68 -0.64A7.78 7.78 0 0 1 10 4.51a0.28 0.28 0 0 0 0.17 -0.37A0.29 0.29 0 0 0 10 4a0.29 0.29 0 0 0 0.19 -0.28c0 -0.39 0 -0.77 0.05 -1.16a4 4 0 0 0 0 -0.49 4.1 4.1 0 0 0 -0.06 -0.49c-0.08 -0.39 -0.21 -0.75 -0.31 -1.13a0.25 0.25 0 0 0 -0.5 0c0 0.4 -0.1 0.77 -0.11 1.17l0 0.49a4.33 4.33 0 0 0 0.08 0.5c0.07 0.38 0.18 0.75 0.28 1.13a0.29 0.29 0 0 0 0.12 0.26 7.62 7.62 0 0 0 -2.19 1 6.7 6.7 0 0 0 -0.81 0.69 5.33 5.33 0 0 0 -0.67 0.82 7.33 7.33 0 0 0 -0.88 2l-1.35 0 -1 0.08a10.11 10.11 0 0 1 -1.52 0.14 0.25 0.25 0 1 0 -0.08 0.49Z" fill="#020202" fill-rule="evenodd" stroke-width="1"></path>
    <path d="M4.9 12.29a0.29 0.29 0 0 0 -0.29 -0.29 13.38 13.38 0 0 0 -1.55 0l-0.66 0a4.67 4.67 0 0 0 -0.65 0.13c-0.5 0.13 -1 0.32 -1.46 0.49a0.24 0.24 0 0 0 -0.19 0.29 0.25 0.25 0 0 0 0.3 0.2c0.57 0 1.14 0 1.72 -0.09 0.34 0 0.67 -0.1 1 -0.16 0.51 -0.1 1 -0.22 1.5 -0.28a0.3 0.3 0 0 0 0.28 -0.29Z" fill="#020202" fill-rule="evenodd" stroke-width="1"></path>
  </g>
</svg>