<svg xmlns="http://www.w3.org/2000/svg" viewBox="0 0 24 24" id="Road-Sign-Bike-Lane--Streamline-Freehand">
  <desc>
    Road Sign Bike Lane Streamline Icon: https://streamlinehq.com
  </desc>
  <g>
    <path d="M23.63 6.92c-0.07 -0.83 -0.11 -2.37 -0.29 -3.53a3.33 3.33 0 0 0 -0.61 -1.68A5.38 5.38 0 0 0 20.08 0.46a46.78 46.78 0 0 0 -6.35 -0.37C12.65 0 11.56 0 10.47 0 7.93 0.06 5.38 0.24 2.91 0.31a0.34 0.34 0 0 0 -0.33 0.34 0.35 0.35 0 0 0 0.34 0.35C5 1 7.22 0.83 9.4 0.8c1.43 0 2.86 0 4.28 0.1s3.57 0 5.36 0.29a5.25 5.25 0 0 1 3 1.19 2.33 2.33 0 0 1 0.32 1.15c0.17 1.14 0.17 2.66 0.24 3.48 0.15 1.85 0.25 3.68 0.27 5.51a46.13 46.13 0 0 1 -0.21 5.5c-0.11 1.16 -0.16 2.11 -0.25 2.84a3.89 3.89 0 0 1 -0.23 1c0 0.07 -0.14 0.08 -0.26 0.13a4.14 4.14 0 0 1 -0.87 0.26 40 40 0 0 1 -6.69 0.58C9.09 23 3 22.78 1.91 22.42c0 0 -0.08 -0.1 -0.11 -0.18a5.91 5.91 0 0 1 -0.29 -1.09 56 56 0 0 1 -0.63 -6.89C0.64 9.09 0.66 3.12 0.82 1.21A0.31 0.31 0 0 0 0.55 0.88a0.3 0.3 0 0 0 -0.32 0.27 150.86 150.86 0 0 0 -0.07 15.33 28.53 28.53 0 0 0 0.7 6 1.33 1.33 0 0 0 0.6 0.83c1 0.45 9.16 0.89 15.11 0.61a26.9 26.9 0 0 0 5.19 -0.63 2.25 2.25 0 0 0 1.46 -0.89 4.39 4.39 0 0 0 0.34 -1.4c0.09 -0.74 0.14 -1.7 0.25 -2.88 0.14 -1.51 0.2 -3 0.19 -4.49 0 -2.23 -0.16 -4.45 -0.37 -6.71Z" fill="#4C57E6" stroke-width="1"></path>
    <path d="M3.63 9.8a0.63 0.63 0 0 0 0.16 0.34 0.8 0.8 0 0 0 0.38 0.2c0.2 0 0.51 0 0.62 0.05a7.78 7.78 0 0 0 1.5 0.15 2.77 2.77 0 0 0 1.13 -0.28 1.87 1.87 0 0 0 0.24 -3.19 4.25 4.25 0 0 0 -0.46 -0.27 1.45 1.45 0 0 0 0.21 -0.22 1.18 1.18 0 0 0 0.2 -1.21 2 2 0 0 0 -0.85 -1.11A2.39 2.39 0 0 0 5.44 4c-0.18 0 -0.81 0.1 -1.05 0.14 -0.46 0.08 -0.57 0.28 -0.49 0.45a0.71 0.71 0 0 0 -0.06 0.22 16.35 16.35 0 0 0 0 1.75l-0.15 2.29a5.87 5.87 0 0 0 -0.06 0.95Zm3.69 -1.15a0.75 0.75 0 0 1 -0.4 0.62 1.79 1.79 0 0 1 -0.69 0.19 7.38 7.38 0 0 1 -1.32 -0.06 1.16 1.16 0 0 0 -0.26 0 4.1 4.1 0 0 0 -0.08 -0.53V7.7l0.85 -0.1 0.22 -0.06a2.85 2.85 0 0 1 0.66 0.11A2.44 2.44 0 0 1 7 8a0.73 0.73 0 0 1 0.32 0.65Zm-1.88 -4a1.67 1.67 0 0 1 0.9 0.23 1.24 1.24 0 0 1 0.47 0.72c0.09 0.3 -0.15 0.47 -0.41 0.61a2.75 2.75 0 0 1 -0.5 0.2l-0.42 0a4 4 0 0 0 -0.48 0.1l-0.37 0.09v-0.08c0 -0.25 0.25 -1.46 0 -1.77a7.62 7.62 0 0 1 0.81 -0.06Zm-1 4.78c-0.07 0 -0.11 0 -0.1 -0.08s0.1 0.09 0.12 0.12Z" fill="#020202" stroke-width="1"></path>
    <path d="M10.61 4.65a0.33 0.33 0 0 0 0.38 0.06 0.38 0.38 0 0 0 0.27 -0.53c0 -0.09 -0.14 -0.2 -0.4 -0.28a3.46 3.46 0 0 0 -0.86 -0.13 2.08 2.08 0 0 0 -0.35 0 1.61 1.61 0 0 0 -0.37 0.07 3.71 3.71 0 0 0 -0.86 0.37 0.62 0.62 0 0 0 -0.2 0.11c-0.14 0.18 -0.16 0.3 -0.07 0.4s0.08 0.15 0.23 0.15a0.3 0.3 0 0 0 0.19 0c0.15 0 0.42 0.06 0.75 0.07l0 0.87 0 1c0 0.33 0 0.69 0.06 1l0.07 1v0.07a3.22 3.22 0 0 0 -0.77 0.31c-0.49 0.29 -0.06 0.7 0.13 0.6a1.92 1.92 0 0 1 0.57 0h0.07c-0.12 2.51 0.11 2.84 0.36 1.87 0.24 1 0.47 0.65 0.36 -1.8l0.33 0 0.5 -0.03 0.73 -0.14c0.39 0.05 0.69 0.07 0.94 0.09l0 0.3c0 0.6 0.17 0.71 0.37 0.59 0.16 0.06 0.31 0 0.31 -0.5a0.13 0.13 0 0 0 0 -0.06l0 -0.38c0 -0.17 0.15 -0.12 0 -0.21s0 -0.28 0 -0.41 0.05 -0.09 0 -0.13a2.42 2.42 0 0 0 0 -0.28l0 -0.23a3.78 3.78 0 0 0 0.22 0.33 6.8 6.8 0 0 0 0.71 0.71c0.1 0.09 0.4 0.38 0.52 0.51s0 0 0.06 0.07 0.69 -0.09 0.46 -0.51c-0.09 -0.17 -0.3 -0.58 -0.39 -0.71s-0.18 -0.32 -0.28 -0.48a4.71 4.71 0 0 0 -0.07 -0.39c-0.17 -0.21 -0.36 -0.38 -0.54 -0.57s-0.19 -0.19 -0.32 -0.3l0.1 -0.08 0.38 -0.21a3.66 3.66 0 0 0 0.5 -0.38 10.14 10.14 0 0 0 0.71 -0.76c0.08 -0.09 0.4 -0.51 0.5 -0.63 2.25 -1.82 2.48 -2.36 1.19 -1.6 0.77 -1.22 0.13 -1.09 -1.65 1.09l-0.66 0.44c-0.27 0.2 -0.56 0.38 -0.82 0.59s-0.29 0.25 -0.43 0.38l0 -0.35a7.56 7.56 0 0 1 0 -1.17v-0.07a0.13 0.13 0 0 0 0 -0.06c0 -0.29 -0.26 -0.52 -0.49 -0.26a0.26 0.26 0 0 0 -0.09 0.16 0.49 0.49 0 0 0 0 0.11 10.81 10.81 0 0 0 -0.3 1.33c0 0.25 0 0.5 -0.05 0.76s0 0.5 0 0.76c0 0.51 0.06 1 0.08 1.53a2.1 2.1 0 0 1 0 0.21c-0.24 0 -0.52 0 -0.88 0.08L11 8.86c-0.25 0 -0.49 -0.06 -0.74 -0.06l0.15 -1c0 -0.35 0.06 -0.7 0 -1a9.35 9.35 0 0 0 -0.11 -1c-0.06 -0.31 -0.19 -0.6 -0.23 -0.85a3.13 3.13 0 0 0 0.54 -0.3Zm0.16 0 0 0.02Zm-2 0v0.06a0.19 0.19 0 0 0 0 -0.07Zm-0.14 4.61Zm0.23 0.51A0.22 0.22 0 0 0 9 9.65a0.17 0.17 0 0 1 -0.14 0.12ZM9 9.46Z" fill="#020202" stroke-width="1"></path>
    <path d="M8.79 9.82Z" fill="#020202" stroke-width="1"></path>
    <path d="M20.12 4.87a0.29 0.29 0 0 0 0.27 -0.32 0.31 0.31 0 0 0 -0.33 -0.27c-0.59 0 -1.2 -0.22 -1.79 -0.23a1.93 1.93 0 0 0 -1 0.22 0.86 0.86 0 0 0 -0.39 0.45 3.47 3.47 0 0 0 -0.14 0.77 5.16 5.16 0 0 0 -0.08 0.79c0 0.54 0.05 1.09 0 1.62a13.86 13.86 0 0 0 -0.16 1.48 1 1 0 0 0 0.24 0.71 1.27 1.27 0 0 0 0.77 0.28 16.73 16.73 0 0 0 2 -0.23 2.56 2.56 0 0 0 0.88 -0.14 0.38 0.38 0 0 0 0.21 -0.35 0.34 0.34 0 0 0 -0.33 -0.34 0.35 0.35 0 0 0 -0.22 0.08c-0.06 -0.13 -0.46 0 -0.54 0 -0.27 0 -0.93 0.06 -1.5 0a4.21 4.21 0 0 1 -0.51 0s0 0.05 0 0.05a0.09 0.09 0 0 1 -0.12 -0.09A6 6 0 0 1 17.81 8l0 -0.3 0.33 0 0.7 0c0.23 0 0.72 -0.17 1.09 -0.24a0.34 0.34 0 0 0 0 -0.67 6.46 6.46 0 0 0 -1.14 -0.19 4.13 4.13 0 0 0 -0.78 0.08l-0.22 0.1a7.36 7.36 0 0 1 0 -1.15c0 -0.15 -0.13 -0.54 0 -0.56a1.16 1.16 0 0 1 0.5 -0.18c0.6 -0.09 1.24 0.11 1.83 -0.02Z" fill="#020202" stroke-width="1"></path>
    <path d="M17.82 5.06Z" fill="#020202" stroke-width="1"></path>
    <path d="M17.56 9.44a0.29 0.29 0 0 1 -0.08 -0.07s0.02 0.07 0.08 0.07Z" fill="#020202" stroke-width="1"></path>
    <path d="M3.87 18a0.79 0.79 0 0 0 0.65 0.39 7.68 7.68 0 0 0 1.17 -0.16c0.11 0 0.81 0 1.08 -0.08s0.4 -0.29 0.4 -0.38a0.34 0.34 0 0 0 -0.34 -0.34 0.42 0.42 0 0 0 -0.15 0c0 -0.25 -0.89 -0.07 -1 -0.08s-0.63 0.11 -0.9 0.09a2 2 0 0 1 -0.08 -0.66c0 -0.41 0 -0.85 0.06 -1.26a5.92 5.92 0 0 0 0 -0.95c0 -0.23 0.2 -1.27 0 -1.44a0.29 0.29 0 0 0 -0.09 -0.51c-0.19 -0.09 -0.37 0 -0.51 0.24a6.6 6.6 0 0 0 -0.27 1.71c0 0.25 -0.1 0.53 -0.15 0.83a7.55 7.55 0 0 0 -0.11 1.42A2.6 2.6 0 0 0 3.87 18Zm2.67 -0.4Zm-1.75 -0.12c-0.12 0 -0.19 0 -0.16 -0.11s0.11 0 0.16 0.08Z" fill="#020202" stroke-width="1"></path>
    <path d="M8.38 17.8Z" fill="#020202" stroke-width="1"></path>
    <path d="m8.89 16.27 0.31 0.11a2.54 2.54 0 0 0 0.78 0 7.1 7.1 0 0 0 0.82 -0.25c0.07 0.17 0.14 0.34 0.2 0.51l0.38 0.84 0 0.07a0.34 0.34 0 0 0 0.12 0.36 0.24 0.24 0 0 1 0.06 0.11 0.4 0.4 0 0 0 0.28 0.18 0.5 0.5 0 0 0 0.29 -0.29 0.22 0.22 0 0 0 0 -0.14l0 -0.06c0 -0.06 -0.09 -0.35 -0.14 -0.48l-0.28 -0.85c-0.14 -0.52 -0.28 -1.06 -0.48 -1.59a6.12 6.12 0 0 0 -0.5 -1.07 3.65 3.65 0 0 0 -0.66 -1 0.78 0.78 0 0 0 -0.78 -0.11 1 1 0 0 0 -0.41 0.3 2.43 2.43 0 0 0 -0.27 0.57 5.7 5.7 0 0 0 -0.36 1.08c-0.11 0.52 -0.17 1.05 -0.26 1.56 0 0.16 -0.27 1.2 -0.31 1.61a0.5 0.5 0 0 0 0.1 0.41 0.3 0.3 0 0 0 0.51 -0.27c0.18 -0.48 0.55 -1.45 0.6 -1.6Zm1 -2.69 -0.07 0.05c-0.03 -0.05 -0.01 -0.07 0.04 -0.05Zm-0.27 0.08c-0.06 0 -0.11 0 -0.08 -0.06s0.02 0 0.05 0.06Zm0.12 0.28a3.61 3.61 0 0 0 0.19 0.39 5.67 5.67 0 0 1 0.5 0.86l0.06 0.14a3.43 3.43 0 0 0 -0.56 0l-0.58 0 -0.15 0c0.05 -0.18 0.11 -0.37 0.17 -0.55a5 5 0 0 1 0.34 -0.84ZM8.13 17.6Zm0 0Z" fill="#020202" stroke-width="1"></path>
    <path d="m19.06 13.49 0.68 -0.09c0.14 0 0.67 0 0.66 -0.18a0.3 0.3 0 0 0 0.24 -0.54 0.72 0.72 0 0 0 -0.33 -0.06c-0.18 0 -0.46 0.09 -0.57 0.08l-0.76 0a1.39 1.39 0 0 0 -1.37 0.78 2 2 0 0 0 -0.16 0.89l0 1 0 0.14a5 5 0 0 0 -1 0.24l-0.06 -1.31 0 -1a0.11 0.11 0 0 0 0 -0.05 0.31 0.31 0 0 0 -0.39 -0.19 0.29 0.29 0 0 0 -0.3 0.11v0.05l0 1 -0.06 1.42c-0.18 -0.42 -0.34 -0.82 -0.55 -1.2a5.13 5.13 0 0 0 -0.61 -0.88l-0.52 -0.56s-0.35 -0.4 -0.48 -0.43a0.56 0.56 0 0 0 -0.45 0.05 0.53 0.53 0 0 0 -0.23 0.3 4.1 4.1 0 0 0 -0.12 1c0 0.72 0.14 1.53 0.17 2.13l0 1.24a0.53 0.53 0 0 0 0.09 0.27 0.29 0.29 0 0 0 0.29 0.12 0.32 0.32 0 0 0 0.22 -0.17 0.26 0.26 0 0 0 0 -0.23c0 -0.31 0.08 -1.07 0.09 -1.19l0 -1.8a3.34 3.34 0 0 1 0.45 0.68c0.22 0.4 0.4 0.82 0.6 1.25a10.74 10.74 0 0 0 0.76 1.18 0.6 0.6 0 0 0 0.86 0.13 1 1 0 0 0 0.23 -0.47 5.17 5.17 0 0 0 0 -0.65l0 -0.57a2.43 2.43 0 0 0 0.52 0c-0.68 0.66 -0.71 1 0.45 0.27l0 0.33a2.55 2.55 0 0 0 0.27 1.07 0.52 0.52 0 0 0 0.43 0.28l0.6 0a8.06 8.06 0 0 0 1.66 -0.13c0.36 -0.11 0.54 -0.33 0.53 -0.58a0.33 0.33 0 0 0 -0.64 -0.14c-0.08 -0.07 -0.3 0.05 -0.49 0 -0.42 0 -0.89 -0.09 -1.06 -0.1h-0.19a1.37 1.37 0 0 1 0 -0.29 8.49 8.49 0 0 1 0 -0.87A2.19 2.19 0 0 0 19 16a3.19 3.19 0 0 0 0.42 0c0.24 0 0.59 -0.22 0.69 -0.2a0.34 0.34 0 0 0 0.26 0.12 0.33 0.33 0 0 0 0.34 -0.33c0.05 -0.24 -0.28 -0.52 -0.84 -0.65a3.11 3.11 0 0 0 -0.76 -0.08 1.76 1.76 0 0 0 -0.43 0.07l-0.08 0c0 -0.24 0 -0.47 -0.06 -0.68a1.54 1.54 0 0 1 0 -0.48c0.05 -0.11 0.21 -0.22 0.52 -0.28Zm-3.55 3.62s0 -0.05 0.05 -0.07c0.03 0.04 0.01 0.09 -0.05 0.07Zm0.7 -0.11c-0.06 0.05 -0.13 0 -0.2 -0.1s0.29 0.03 0.2 0.1Zm3.86 -1.23s-0.02 -0.02 0 0Zm-1.77 1.32c0 -0.13 0.13 0 0.21 0.07 -0.11 0 -0.22 -0.01 -0.21 -0.07Z" fill="#020202" stroke-width="1"></path>
    <path d="M20.1 15.82Z" fill="#020202" stroke-width="1"></path>
  </g>
</svg>