<svg xmlns="http://www.w3.org/2000/svg" viewBox="0 0 24 24" id="Road-Sign-No-Parking-Allowed--Streamline-Freehand">
  <desc>
    Road Sign No Parking Allowed Streamline Icon: https://streamlinehq.com
  </desc>
  <g>
    <path d="M23.9 10.36a13.08 13.08 0 0 0 -1.13 -3.68 9.43 9.43 0 0 0 -2.2 -3.06 0.34 0.34 0 0 0 -0.34 -0.34h-0.12c-0.28 -0.2 -0.64 -0.43 -1 -0.66 -0.81 -0.49 -1.72 -1 -2.19 -1.22a0.34 0.34 0 0 0 -0.45 0.17 0.34 0.34 0 0 0 0.16 0.45c0.39 0.19 1.08 0.58 1.76 1 0.34 0.21 0.67 0.42 1 0.62l-0.39 0.24a7.44 7.44 0 0 0 -0.68 0.58c-0.24 0.25 -0.42 0.5 -0.54 0.64s-0.65 0.74 -0.84 1 -0.16 0.25 -0.15 0.3 0.05 0.3 0.22 0.32a0.29 0.29 0 0 0 0.35 -0.14c0.27 -0.19 1 -0.57 1.14 -0.68a7.33 7.33 0 0 0 0.63 -0.63c0.3 -0.34 0.58 -0.77 0.86 -1l0.01 -0.14A8.5 8.5 0 0 1 22 7a12.32 12.32 0 0 1 1 3.46 10.32 10.32 0 0 1 -4 9.21 10.76 10.76 0 0 1 -9.83 2.13 16.4 16.4 0 0 1 -2 -0.7 12.57 12.57 0 0 1 -1.83 -0.93 7.56 7.56 0 0 1 -0.79 -0.57l0.74 -0.53 0.71 -0.58q0.32 -0.3 0.6 -0.63c0.61 -0.69 1.17 -1.41 1.68 -2a0.33 0.33 0 0 0 0 -0.48 0.34 0.34 0 0 0 -0.48 0c-0.61 0.51 -1.35 1.06 -2 1.71a6.25 6.25 0 0 0 -0.61 0.65c-0.2 0.23 -0.37 0.48 -0.54 0.72a6 6 0 0 1 -0.57 0.63 10.57 10.57 0 0 1 -2.45 -4.23 10 10 0 0 1 0 -6.61 10.73 10.73 0 0 1 5.23 -5.89 13.24 13.24 0 0 1 8 -0.79A0.3 0.3 0 1 0 15 1a13.92 13.92 0 0 0 -8.42 0.69A11.58 11.58 0 0 0 0.73 7.86a11 11 0 0 0 -0.21 7.3 10.65 10.65 0 0 0 4.25 6 14.36 14.36 0 0 0 2 1 20.65 20.65 0 0 0 2.08 0.74 11.83 11.83 0 0 0 10.8 -2.42 11.23 11.23 0 0 0 4.25 -10.12Zm-6.65 -4.14a0.2 0.2 0 0 1 0.1 0.2 0.32 0.32 0 0 0 -0.1 -0.2Z" fill="#4C57E6" stroke-width="1"></path>
    <path d="M10.75 6.28c-0.05 -0.09 -0.09 -0.13 -0.1 0l0.1 0Z" fill="#020202" stroke-width="1"></path>
    <path d="M11.33 6.26h-0.45l-0.13 0 -0.11 0a0.28 0.28 0 0 0 -0.18 0 0.36 0.36 0 0 0 -0.35 -0.16 0.34 0.34 0 0 0 -0.27 0.21 3.58 3.58 0 0 0 -0.07 0.76L9.65 9.3c0 0.58 -0.08 1.15 -0.12 1.73s0 1.16 -0.06 1.75c0 0.78 0 1.56 0.08 2.35l0.11 1.8 0 0.91a0.36 0.36 0 0 0 0.35 0.36 0.39 0.39 0 0 0 0.34 -0.29 1.8 1.8 0 0 1 0 -0.19 0.41 0.41 0 0 0 0 -0.22l0 -0.56 0.08 -1.83c0 -0.68 0.06 -1.34 0.09 -2l0 -0.54 0.25 0.08 0.49 0.06c0.29 0 0.56 0.05 0.84 0.05a4.06 4.06 0 0 0 0.6 0 7.18 7.18 0 0 0 2.94 -0.65 2.41 2.41 0 0 0 1.15 -2 3.42 3.42 0 0 0 -1.08 -2.91 4.72 4.72 0 0 0 -2.82 -1Zm-0.56 6.32a0.35 0.35 0 0 0 0.32 -0.31c0.01 0.13 -0.09 0.29 -0.32 0.31Zm5 -2.56a1.38 1.38 0 0 1 -0.58 1.17 6.47 6.47 0 0 1 -2.49 0.71 3.86 3.86 0 0 1 -0.49 0.06l-0.79 0L11 12l-0.11 0a0.26 0.26 0 0 0 -0.15 0h-0.09l0 -0.84c0 -0.59 0 -1.18 -0.05 -1.77l-0.15 -2.24 0 -0.23 0.25 0 0.62 0.06 1.46 0.12A4 4 0 0 1 15 8a2.39 2.39 0 0 1 0.74 2Z" fill="#020202" stroke-width="1"></path>
  </g>
</svg>