<svg xmlns="http://www.w3.org/2000/svg" viewBox="0 0 24 24" id="Role-Playing-Games-Icon-Party--Streamline-Freehand">
  <desc>
    Role Playing Games Icon Party Streamline Icon: https://streamlinehq.com
  </desc>
  <title>role-playing-games-icon-party</title>
  <g>
    <path d="M8.9 11.19A3.74 3.74 0 0 0 8.71 16a3.13 3.13 0 0 0 0.54 0.55 4.18 4.18 0 0 0 0.63 0.4 6 6 0 0 0 0.86 0.37 3.2 3.2 0 0 0 0.67 0.14 4.39 4.39 0 0 0 2.53 -0.46 3.83 3.83 0 0 0 1.74 -1.91 4.17 4.17 0 0 0 0 -3.07c-1.18 -3.11 -5.37 -2.38 -6.78 -0.83Zm5.91 3.46A2.9 2.9 0 0 1 13.46 16a3.48 3.48 0 0 1 -1.93 0.3 2.12 2.12 0 0 1 -0.55 -0.14 4.41 4.41 0 0 1 -0.59 -0.26 3 3 0 0 1 -0.44 -0.28 2 2 0 0 1 -0.36 -0.35 2.75 2.75 0 0 1 0 -3.51c1.35 -1.69 4.59 -1.85 5.37 0.49a3.31 3.31 0 0 1 -0.15 2.4Z" fill="#020202" fill-rule="evenodd" stroke-width="1"></path>
    <path d="M2 15.85a2.44 2.44 0 0 0 0.43 0.28 3.61 3.61 0 0 0 0.57 0.24 2.52 2.52 0 0 0 0.46 0.1 3.06 3.06 0 0 0 1.71 -0.32 2.63 2.63 0 0 0 1.16 -1.31 2.79 2.79 0 0 0 0 -2.05c-0.82 -2 -3.58 -1.58 -4.54 -0.55a2.53 2.53 0 0 0 -0.16 3.23 2.28 2.28 0 0 0 0.37 0.38Zm0.45 -3c0.69 -0.89 2.63 -1.25 3.11 0.25a1.92 1.92 0 0 1 -0.1 1.38 1.62 1.62 0 0 1 -0.78 0.75 2 2 0 0 1 -1.1 0.16l-0.64 -0.23 -0.44 -0.34a1.55 1.55 0 0 1 -0.09 -2.01Z" fill="#4C57E6" fill-rule="evenodd" stroke-width="1"></path>
    <path d="M17.94 12.13a2.53 2.53 0 0 0 -0.16 3.24 2.16 2.16 0 0 0 0.37 0.37 2.87 2.87 0 0 0 0.43 0.28 3.72 3.72 0 0 0 0.58 0.24 1.8 1.8 0 0 0 0.46 0.1 3 3 0 0 0 1.7 -0.32 2.58 2.58 0 0 0 1.17 -1.3 2.87 2.87 0 0 0 0 -2.06c-0.83 -2.01 -3.59 -1.57 -4.55 -0.55Zm3.67 2.21a1.71 1.71 0 0 1 -0.78 0.75 2 2 0 0 1 -1.1 0.15L19.1 15l-0.44 -0.34a1.53 1.53 0 0 1 -0.05 -2c0.69 -0.89 2.63 -1.24 3.1 0.26a1.88 1.88 0 0 1 -0.1 1.42Z" fill="#4C57E6" fill-rule="evenodd" stroke-width="1"></path>
    <path d="M17.1 20.89a7.82 7.82 0 0 0 -2.18 -2 5.68 5.68 0 0 0 -3.58 -0.54 6.59 6.59 0 0 0 -3.23 1.51 6.85 6.85 0 0 0 -1.32 1.67A8.26 8.26 0 0 0 6 23.46a0.3 0.3 0 0 0 0.19 0.37 0.31 0.31 0 0 0 0.38 -0.19 7 7 0 0 1 0.86 -1.7 5.85 5.85 0 0 1 1.28 -1.35 6 6 0 0 1 2.8 -1.12 5 5 0 0 1 2.92 0.36 6.76 6.76 0 0 1 2 1.61 7.91 7.91 0 0 1 1.42 2.22 0.33 0.33 0 0 0 0.43 0.2 0.34 0.34 0 0 0 0.2 -0.43 9.1 9.1 0 0 0 -1.38 -2.54Z" fill="#020202" fill-rule="evenodd" stroke-width="1"></path>
    <path d="M6.9 19.46a0.33 0.33 0 0 0 0 -0.47 5.76 5.76 0 0 0 -0.53 -0.57 3.5 3.5 0 0 0 -0.63 -0.48 3.59 3.59 0 0 0 -2.33 -0.46 4.16 4.16 0 0 0 -2.14 1 4.54 4.54 0 0 0 -0.79 1.12A5.17 5.17 0 0 0 0 20.86a0.3 0.3 0 0 0 0.58 0.14 4.27 4.27 0 0 1 0.58 -1 3.4 3.4 0 0 1 0.8 -0.76 3.72 3.72 0 0 1 1.65 -0.67 3 3 0 0 1 1.75 0.11 3.43 3.43 0 0 1 0.56 0.31 5.05 5.05 0 0 1 0.51 0.43 0.32 0.32 0 0 0 0.47 0.04Z" fill="#4C57E6" fill-rule="evenodd" stroke-width="1"></path>
    <path d="M24 20.68a5.51 5.51 0 0 0 -0.86 -1.68 4.91 4.91 0 0 0 -1.41 -1.33 3.23 3.23 0 0 0 -1.19 -0.36 3.71 3.71 0 0 0 -1.19 0.09 4.16 4.16 0 0 0 -2 1.09 0.29 0.29 0 0 0 0.38 0.45 3.71 3.71 0 0 1 1.78 -0.57 3.83 3.83 0 0 1 0.9 0.05 2.25 2.25 0 0 1 0.81 0.25 4 4 0 0 1 1.21 0.92 5.23 5.23 0 0 1 0.93 1.32 0.34 0.34 0 1 0 0.63 -0.23Z" fill="#4C57E6" fill-rule="evenodd" stroke-width="1"></path>
    <path d="M2.88 10.06a0.28 0.28 0 0 0 0.3 0.28 0.29 0.29 0 0 0 0.29 -0.3c0 -1.09 0.13 -2.16 0.15 -3.25l0 -1.39 0 -0.12c1.35 0 2.47 0.07 3.58 0.07l2 0 2 0a9.3 9.3 0 0 1 2.3 0 1.59 1.59 0 0 1 0.94 0.65 5.14 5.14 0 0 0 -0.95 0.35 2.82 2.82 0 0 0 -0.82 0.33 0.93 0.93 0 0 0 -0.34 0.44 1.18 1.18 0 0 0 0.49 1.48 3.79 3.79 0 0 0 1.84 0.63l1.63 0c0.55 0 0.86 0 1.29 -0.08 1.67 -0.14 3.35 -0.35 4.94 -0.32a0.31 0.31 0 0 0 0.32 0s0 -0.06 0.06 -0.09a0.33 0.33 0 0 0 0.1 -0.29 0.34 0.34 0 0 0 -0.2 -0.33 14.82 14.82 0 0 0 -0.92 -1.27c-0.26 -0.32 -0.53 -0.63 -0.79 -0.91 0.55 -0.37 1 -0.62 1.43 -0.91a8.34 8.34 0 0 0 0.81 -0.62 0.58 0.58 0 0 0 -0.33 -1 25.41 25.41 0 0 0 -2.89 -0.07c-0.95 0 -1.89 0.16 -2.84 0.28 -0.54 0.06 -1.07 0.1 -1.59 0.18l-0.17 0a6.8 6.8 0 0 0 0.07 -1.09 3.1 3.1 0 0 0 -0.42 -1.62A2.17 2.17 0 0 0 14 0.29a10.8 10.8 0 0 0 -2.8 -0.16l-1.62 0c-0.43 0 -0.85 0.04 -1.58 0.09 -1 0.07 -2 0.2 -2.92 0.26A13.22 13.22 0 0 1 3.19 0.5 0.4 0.4 0 0 0 3 0.44a0.34 0.34 0 0 0 -0.33 0.34C2.59 1.87 2.52 2.94 2.5 4l0 1.39 0 1.4c0.12 1.11 0.26 2.21 0.38 3.27ZM16 4.44h1.36l3.37 0 0.72 0 -1.34 1a0.48 0.48 0 0 0 0 0.73 12.59 12.59 0 0 1 1.23 1.14c0.2 0.22 0.4 0.44 0.58 0.66 -0.82 0.03 -1.63 0.03 -2.46 0.03l-2.41 0c-0.8 0 -1.6 0.08 -2.37 0.07a2.94 2.94 0 0 1 -1.11 -0.22c-0.25 -0.11 -0.51 -0.23 -0.43 -0.5a0.29 0.29 0 0 1 0.15 -0.16 2.84 2.84 0 0 1 0.45 -0.2 8.41 8.41 0 0 0 1.07 -0.45 1.06 1.06 0 0 0 0.19 -0.15 0.34 0.34 0 0 0 0.21 -0.28c0.05 -0.45 0.17 -1 0.28 -1.62ZM5.1 1.23l2.9 0 3.18 0a16.37 16.37 0 0 1 2.21 0 1.38 1.38 0 0 1 1 0.43 2.58 2.58 0 0 1 0.37 1.54A14.91 14.91 0 0 1 14.6 5a2.42 2.42 0 0 0 -0.86 -0.51 9.81 9.81 0 0 0 -2.51 -0.27C10 4.22 9 4.19 8 4.24c-1.39 0.07 -2.71 0.25 -4.37 0.39l0 -0.62c-0.06 -1 -0.14 -1.93 -0.22 -2.9a15 15 0 0 0 1.69 0.12Z" fill="#020202" fill-rule="evenodd" stroke-width="1"></path>
  </g>
</svg>