<svg xmlns="http://www.w3.org/2000/svg" viewBox="0 0 24 24" id="Role-Playing-Games-Icon-Elemental-Resistance-Cold-Ice--Streamline-Freehand">
  <desc>
    Role Playing Games Icon Elemental Resistance Cold Ice Streamline Icon: https://streamlinehq.com
  </desc>
  <title>role-playing-games-icon-elemental-resistance-cold-ice</title>
  <g>
    <path d="m23.17 17.73 -1.64 -0.12c0.43 -0.51 0.83 -1 1.26 -1.52a0.31 0.31 0 0 0 0 -0.43 0.3 0.3 0 0 0 -0.43 0c-0.6 0.44 -1.19 0.89 -1.76 1.38l-0.56 0.5 -0.69 0h-1.22l0 -0.86 0 -0.59c0.22 -0.21 0.45 -0.41 0.66 -0.63 0.57 -0.58 1.1 -1.19 1.64 -1.8a0.34 0.34 0 0 0 0 -0.48 0.35 0.35 0 0 0 -0.49 0c-0.63 0.5 -1.28 1 -1.91 1.48 0 -0.59 -0.09 -1.17 -0.12 -1.77a0.3 0.3 0 0 0 -0.3 -0.3 0.29 0.29 0 0 0 -0.3 0.3l-0.12 1.63c-0.51 -0.42 -1 -0.82 -1.52 -1.25a0.3 0.3 0 0 0 -0.45 0.4c0.45 0.61 0.9 1.2 1.39 1.77l0.49 0.56 0 0.69 0 0.88 -0.88 0 -0.54 0c-0.16 -0.17 -0.32 -0.34 -0.49 -0.49 -0.52 -0.47 -1.07 -0.88 -1.6 -1.33a0.29 0.29 0 0 0 -0.42 0 0.3 0.3 0 0 0 0 0.42c0.37 0.51 0.72 1 1.11 1.51l-1.83 0.14a0.34 0.34 0 0 0 -0.33 0.35 0.33 0.33 0 0 0 0.35 0.33l1.82 0.06L13 19.91a0.36 0.36 0 0 0 0 0.49 0.34 0.34 0 0 0 0.48 0c0.53 -0.43 1.06 -0.84 1.56 -1.29 0.18 -0.16 0.35 -0.33 0.52 -0.5l0.54 0 0.87 0 0 1.25 0 0.53c-0.17 0.17 -0.34 0.32 -0.5 0.5 -0.46 0.51 -0.87 1.06 -1.32 1.59a0.3 0.3 0 0 0 0.41 0.45c0.51 -0.37 1 -0.72 1.51 -1.11 0 0.61 0.09 1.21 0.14 1.82a0.35 0.35 0 0 0 0.35 0.34 0.33 0.33 0 0 0 0.33 -0.35l0.06 -1.82L19.42 23a0.35 0.35 0 0 0 0.49 0 0.36 0.36 0 0 0 0 -0.49c-0.43 -0.52 -0.84 -1 -1.3 -1.56 -0.15 -0.18 -0.32 -0.34 -0.49 -0.51l0 -0.54 0 -1.23 1.23 0 0.59 0c0.21 0.22 0.41 0.45 0.63 0.66 0.58 0.58 1.19 1.1 1.8 1.64a0.34 0.34 0 0 0 0.48 0 0.35 0.35 0 0 0 0 -0.49c-0.51 -0.63 -1 -1.28 -1.49 -1.91 0.58 0 1.17 -0.09 1.76 -0.12a0.3 0.3 0 1 0 0 -0.6Z" fill="#020202" fill-rule="evenodd" stroke-width="1"></path>
    <path d="M12.8 23.19a4.93 4.93 0 0 1 -2.13 0 11 11 0 0 1 -3 -1.27 19.38 19.38 0 0 1 -2.48 -1.61 10.11 10.11 0 0 1 -2 -2.05 5.7 5.7 0 0 1 -0.9 -2 16.15 16.15 0 0 1 -0.4 -3.44c-0.06 -1.3 -0.1 -2.62 -0.12 -3.94s0 -2.63 0 -3.94a1.48 1.48 0 0 1 0.41 -1 1.46 1.46 0 0 1 1 -0.46 22.64 22.64 0 0 0 4.54 -0.68 8.46 8.46 0 0 0 2.86 -1.39 1.51 1.51 0 0 1 0.91 -0.34 1.56 1.56 0 0 1 0.94 0.31A10.49 10.49 0 0 0 15.78 3a15.6 15.6 0 0 0 3.72 0.48 1.62 1.62 0 0 1 1.6 1.65c0 1.15 0 2.42 -0.1 3.58a20.14 20.14 0 0 1 -0.27 2.29 0.34 0.34 0 0 0 0.26 0.4 0.34 0.34 0 0 0 0.41 -0.27 22.22 22.22 0 0 0 0.33 -2.42c0.11 -1.18 0.16 -2.46 0.18 -3.63a2.48 2.48 0 0 0 -2.38 -2.53A14.79 14.79 0 0 1 16 2 9.4 9.4 0 0 1 12.93 0.53 2.53 2.53 0 0 0 11.38 0a2.61 2.61 0 0 0 -1.57 0.53A7.31 7.31 0 0 1 7.3 1.7a22.6 22.6 0 0 1 -4.3 0.61 2.6 2.6 0 0 0 -1.71 0.82 2.59 2.59 0 0 0 -0.74 1.75l0 4c0 1.34 0.1 2.66 0.19 4a17.46 17.46 0 0 0 0.52 3.64 7.05 7.05 0 0 0 1.11 2.29 10.33 10.33 0 0 0 1.77 1.79 19.75 19.75 0 0 0 3.12 2 12.24 12.24 0 0 0 3.27 1.26 5.41 5.41 0 0 0 2.4 -0.05 0.3 0.3 0 1 0 -0.14 -0.58Z" fill="#020202" fill-rule="evenodd" stroke-width="1"></path>
    <path d="M17.92 10.58a0.35 0.35 0 0 0 0.39 -0.29A9.9 9.9 0 0 0 18.5 8a3.58 3.58 0 0 0 -0.43 -1.62 0.85 0.85 0 0 0 -0.5 -0.42 2.33 2.33 0 0 0 -0.69 -0.08c-0.36 0 -0.73 0 -1.09 -0.07s-0.71 -0.1 -1.07 -0.16a25.59 25.59 0 0 1 -2.63 -1 4.05 4.05 0 0 0 -1.38 -0.2 3.33 3.33 0 0 0 -0.92 0.18c-0.57 0.18 -1.14 0.5 -1.69 0.68a7.13 7.13 0 0 1 -0.91 0.23 11.33 11.33 0 0 1 -1.44 0.17 1.9 1.9 0 0 0 -1 0.3 2 2 0 0 0 -0.66 0.74 6 6 0 0 0 -0.37 1.92 21 21 0 0 0 0.16 2.73 19 19 0 0 0 0.53 3 7.7 7.7 0 0 0 0.85 2 6.42 6.42 0 0 0 1.4 1.53 12.58 12.58 0 0 0 2.59 1.51 8.94 8.94 0 0 0 1.19 0.52 3.12 3.12 0 0 0 0.91 0.17 0.31 0.31 0 0 0 0 -0.61 2.22 2.22 0 0 1 -0.72 -0.16 9.26 9.26 0 0 1 -1.1 -0.53 12.05 12.05 0 0 1 -2.37 -1.52A5.7 5.7 0 0 1 6.05 16a6.65 6.65 0 0 1 -0.65 -1.8 16.86 16.86 0 0 1 -0.4 -2.89 17.58 17.58 0 0 1 -0.1 -2.57 4.94 4.94 0 0 1 0.28 -1.52 0.78 0.78 0 0 1 0.26 -0.28 0.63 0.63 0 0 1 0.35 -0.11c0.44 0 0.88 -0.08 1.31 -0.16a7.83 7.83 0 0 0 1.33 -0.33c0.54 -0.19 1.11 -0.53 1.68 -0.73a2 2 0 0 1 0.61 -0.15 3.34 3.34 0 0 1 1 0.13 26.18 26.18 0 0 0 2.76 0.91c0.39 0.06 0.77 0.1 1.16 0.13s0.76 0 1.15 0a1.71 1.71 0 0 1 0.39 0 0.12 0.12 0 0 1 0.11 0.05A3 3 0 0 1 17.75 8a9.41 9.41 0 0 1 -0.11 2.17 0.34 0.34 0 0 0 0.28 0.41Z" fill="#4C57E6" fill-rule="evenodd" stroke-width="1"></path>
  </g>
</svg>