<svg xmlns="http://www.w3.org/2000/svg" viewBox="0 0 24 24" id="Role-Playing-Games-Icon-Elemental-Resistance-Fire-Flame--Streamline-Freehand">
  <desc>
    Role Playing Games Icon Elemental Resistance Fire Flame Streamline Icon: https://streamlinehq.com
  </desc>
  <title>role-playing-games-icon-elemental-resistance-fire-flame</title>
  <g>
    <path d="M23.07 15.84a0.53 0.53 0 0 0 -0.79 -0.53 8.39 8.39 0 0 0 -0.81 0.5c-0.13 0.09 -0.26 0.18 -0.38 0.28 -0.06 -0.21 -0.12 -0.42 -0.19 -0.62a19.28 19.28 0 0 0 -0.9 -2.12 0.59 0.59 0 0 0 -1.09 0.09 3.19 3.19 0 0 1 -0.35 0.8c-0.72 1.18 -1.95 2.09 -2.51 3.38a5.4 5.4 0 0 0 -0.16 3.76 3 3 0 0 0 1.77 1.89 5.2 5.2 0 0 0 1.29 0.3 5.7 5.7 0 0 0 2.4 -0.26 3.47 3.47 0 0 0 0.69 -0.3 2.77 2.77 0 0 0 1.46 -2c0.31 -1.61 -0.67 -3.63 -0.43 -5.17Zm-0.37 5a2 2 0 0 1 -1 1.52 4.38 4.38 0 0 1 -2.62 0.54 4.27 4.27 0 0 1 -1.08 -0.3 2.39 2.39 0 0 1 -1.35 -2A4.58 4.58 0 0 1 17 18a16 16 0 0 1 2.23 -2.72l0.25 -0.34c0.11 0.28 0.22 0.57 0.32 0.86a7.52 7.52 0 0 1 0.34 1.34 0.57 0.57 0 0 0 0.92 0.35c0.32 -0.27 0.64 -0.54 1 -0.79a13.52 13.52 0 0 0 0.35 1.7 6.92 6.92 0 0 1 0.29 2.45Z" fill="#020202" fill-rule="evenodd" stroke-width="1"></path>
    <path d="m14.91 22.3 -0.59 0.22a4.72 4.72 0 0 1 -3.39 0.73 10.22 10.22 0 0 1 -3.39 -1.33 19.77 19.77 0 0 1 -2.48 -1.61 10.42 10.42 0 0 1 -2 -2 6.12 6.12 0 0 1 -0.9 -2 16.83 16.83 0 0 1 -0.4 -3.45c-0.07 -1.31 -0.11 -2.63 -0.13 -4s0 -2.64 0 -3.95A1.49 1.49 0 0 1 3 3.46a23.38 23.38 0 0 0 4.54 -0.68 8.39 8.39 0 0 0 2.86 -1.4 1.56 1.56 0 0 1 0.9 -0.38 1.51 1.51 0 0 1 0.93 0.31A10.61 10.61 0 0 0 15.71 3a16.12 16.12 0 0 0 3.72 0.48 1.62 1.62 0 0 1 1.14 0.49A1.67 1.67 0 0 1 21 5.09c0 1.16 0 2.43 -0.1 3.59a19.73 19.73 0 0 1 -0.24 2.32 0.34 0.34 0 0 0 0.27 0.41 0.34 0.34 0 0 0 0.4 -0.27 20.33 20.33 0 0 0 0.34 -2.43c0.1 -1.18 0.15 -2.47 0.17 -3.64a2.46 2.46 0 0 0 -2.38 -2.53A14.71 14.71 0 0 1 16 2.05 9.29 9.29 0 0 1 12.85 0.53 2.54 2.54 0 0 0 11.29 0a2.61 2.61 0 0 0 -1.57 0.53A7.31 7.31 0 0 1 7.21 1.7a22.81 22.81 0 0 1 -4.33 0.61A2.66 2.66 0 0 0 0.43 4.89l0 4c0 1.34 0.1 2.67 0.18 4a17.65 17.65 0 0 0 0.52 3.66 7.1 7.1 0 0 0 1.11 2.3A11.22 11.22 0 0 0 4 20.63a19.84 19.84 0 0 0 3.13 2 9.64 9.64 0 0 0 4.5 1.37 5.45 5.45 0 0 0 3 -1l0.49 -0.19a0.29 0.29 0 0 0 0.15 -0.39 0.29 0.29 0 0 0 -0.36 -0.12Z" fill="#020202" fill-rule="evenodd" stroke-width="1"></path>
    <path d="m17.13 6.71 0.15 0a3.9 3.9 0 0 1 0.39 2.11c-0.05 1.24 -0.37 2.56 -0.5 3.54a0.34 0.34 0 0 0 0.68 0.1 24.82 24.82 0 0 0 0.62 -4.23A4.12 4.12 0 0 0 18 6.32a0.91 0.91 0 0 0 -0.52 -0.43 2.71 2.71 0 0 0 -0.69 -0.08c-0.37 0 -0.73 0 -1.09 -0.07s-0.72 -0.09 -1.07 -0.16a24.73 24.73 0 0 1 -2.64 -1 4.15 4.15 0 0 0 -1.39 -0.21 3.33 3.33 0 0 0 -0.92 0.18c-0.57 0.19 -1.14 0.52 -1.69 0.7a7.58 7.58 0 0 1 -0.91 0.23 11.77 11.77 0 0 1 -1.44 0.17 1.91 1.91 0 0 0 -1 0.3 2 2 0 0 0 -0.64 0.77 6 6 0 0 0 -0.35 1.98 19.45 19.45 0 0 0 0.15 2.73 18.3 18.3 0 0 0 0.52 3.06 7.55 7.55 0 0 0 0.84 2A6.3 6.3 0 0 0 6.57 18a13.22 13.22 0 0 0 2.6 1.53c0.39 0.18 0.79 0.38 1.19 0.52a3.32 3.32 0 0 0 0.93 0.17 4.12 4.12 0 0 0 1.1 -0.16 8 8 0 0 0 1.47 -0.62 0.3 0.3 0 1 0 -0.28 -0.54 7.62 7.62 0 0 1 -1.13 0.46 3.47 3.47 0 0 1 -1.14 0.17 2.52 2.52 0 0 1 -0.71 -0.16c-0.37 -0.14 -0.73 -0.35 -1.09 -0.53a12.12 12.12 0 0 1 -2.38 -1.52A5.43 5.43 0 0 1 6 16a6.47 6.47 0 0 1 -0.66 -1.74 18 18 0 0 1 -0.41 -2.89 21.07 21.07 0 0 1 -0.13 -2.62 4.94 4.94 0 0 1 0.28 -1.52 0.78 0.78 0 0 1 0.26 -0.23 0.63 0.63 0 0 1 0.35 -0.11 11.59 11.59 0 0 0 1.32 -0.15 8 8 0 0 0 1.32 -0.33c0.55 -0.19 1.12 -0.52 1.69 -0.73a2.24 2.24 0 0 1 0.61 -0.14 2.84 2.84 0 0 1 1 0.13 29 29 0 0 0 2.77 0.92c0.39 0.06 0.77 0.1 1.16 0.13s0.76 0 1.15 0a1.93 1.93 0 0 1 0.42 -0.01Z" fill="#4C57E6" fill-rule="evenodd" stroke-width="1"></path>
  </g>
</svg>