<svg xmlns="http://www.w3.org/2000/svg" viewBox="0 0 24 24" id="Room-Service-Plate-Serve--Streamline-Freehand">
  <desc>
    Room Service Plate Serve Streamline Icon: https://streamlinehq.com
  </desc>
  <g>
    <path d="M14.64 6.44c0.68 0.1 1.35 0.2 2 0.27s1.14 0.12 1.71 0.15a7.52 7.52 0 0 0 1.17 -0.06c0.57 -0.06 1.13 -0.17 1.69 -0.28 0.16 0 0.45 0 0.68 -0.09 0.95 -0.25 0.89 -0.93 1 -1.4A12.1 12.1 0 0 0 23 3.44a8.74 8.74 0 0 0 0 -1.51 1.45 1.45 0 0 0 -0.4 -0.87 3 3 0 0 0 -1.36 -0.69 25.67 25.67 0 0 0 -3.06 -0.21A11.63 11.63 0 0 0 15.4 0.05a2.36 2.36 0 0 0 -1.4 0.62 3 3 0 0 0 -0.72 1.86 16.58 16.58 0 0 0 0.18 2.54c0.09 0.49 -0.15 1.41 1.18 1.37Zm-0.17 -3.83a1.83 1.83 0 0 1 0.41 -1.15 1.49 1.49 0 0 1 1 -0.3 13.34 13.34 0 0 1 2.17 0.13c0.74 0.07 1.7 0 2.57 0.07a2.25 2.25 0 0 1 1.29 0.47c0.1 0.08 0.1 0.24 0.11 0.4a10.89 10.89 0 0 1 0 1.2 8.78 8.78 0 0 1 0 1.45 1.39 1.39 0 0 1 -0.26 0.7c-0.12 -0.15 -0.49 0.08 -0.65 0.12 -0.58 0.12 -1.11 0.3 -1.66 0.3a6.12 6.12 0 0 1 -1.05 0.09c-0.56 0 -1.11 0 -1.66 -0.08s-1.4 -0.14 -2.09 -0.22l0 -0.85a15.55 15.55 0 0 1 -0.18 -2.33Z" fill="#4C57E6" fill-rule="evenodd" stroke-width="1"></path>
    <path d="M22.3 13.9a6.29 6.29 0 0 0 -2.06 -2.22 2.06 2.06 0 0 0 -0.26 -0.12 6 6 0 0 0 2.07 -1.78 4.92 4.92 0 0 0 0.69 -1.64 4 4 0 0 0 0.1 -1.28c-0.08 -0.66 -0.69 -0.43 -0.62 0.17A3.18 3.18 0 0 1 22 8a3.82 3.82 0 0 1 -0.62 1.37 5.46 5.46 0 0 1 -2.76 1.86l-0.28 0.07a1.37 1.37 0 0 0 -0.28 0l-0.4 0.08a2.67 2.67 0 0 1 -2 -0.64 3.08 3.08 0 0 1 -0.94 -2 9.66 9.66 0 0 1 -0.08 -1.71 0.54 0.54 0 0 0 -1.08 0 8 8 0 0 0 0.29 2.56A3.71 3.71 0 0 0 15 11.46a3.22 3.22 0 0 0 1 0.54 12.77 12.77 0 0 0 -2.44 1.86 11.91 11.91 0 0 1 -1.24 1 8 8 0 0 1 -1.35 0.8 3 3 0 0 1 -2.07 -0.06 5.06 5.06 0 0 0 -1.84 -0.26 2.5 2.5 0 0 0 -1.84 1.18 2.17 2.17 0 0 0 0.14 2.83 5.62 5.62 0 0 0 3.47 1.68 5.44 5.44 0 0 0 2.32 -0.14 8.41 8.41 0 0 0 2.42 -1.21 2.3 2.3 0 0 1 0.29 -0.16 1.31 1.31 0 0 1 0.51 0.46 2.52 2.52 0 0 1 0.3 0.82 6.93 6.93 0 0 1 0 1.33 8.52 8.52 0 0 1 -0.18 1.36 0.34 0.34 0 1 0 0.66 0.18 10.19 10.19 0 0 0 0.24 -1.47 7.91 7.91 0 0 0 0.05 -1.54 3.23 3.23 0 0 0 -0.44 -1.05 2.06 2.06 0 0 0 -0.92 -0.82 0.73 0.73 0 0 0 -0.66 0.06 9.75 9.75 0 0 1 -2.52 1.22 4.85 4.85 0 0 1 -2 0.07 4.65 4.65 0 0 1 -2.81 -1.41 1.17 1.17 0 0 1 0 -1.53 1.45 1.45 0 0 1 1.06 -0.7 6 6 0 0 1 1.85 0.35 3.64 3.64 0 0 0 2.41 -0.09 9.79 9.79 0 0 0 1.59 -0.92 13.6 13.6 0 0 0 1.37 -1.11A11.65 11.65 0 0 1 16.61 13a5.11 5.11 0 0 1 1.66 -0.66 2.26 2.26 0 0 1 1.82 0.46 6 6 0 0 1 1.44 1.61 10.06 10.06 0 0 1 1.41 3.48 25.1 25.1 0 0 1 0.29 5.81 0.3 0.3 0 1 0 0.6 0 25.44 25.44 0 0 0 -0.13 -6 10.75 10.75 0 0 0 -1.4 -3.8Z" fill="#020202" fill-rule="evenodd" stroke-width="1"></path>
    <path d="M1.39 11.35a0.3 0.3 0 0 0 0.26 -0.35 5.57 5.57 0 0 1 0.41 -2.55 4.47 4.47 0 0 1 1.49 -2 3.79 3.79 0 0 1 2.52 -0.62 4.51 4.51 0 0 1 2.5 0.92 3 3 0 0 1 0.89 1.39A10.25 10.25 0 0 1 9.83 11a0.34 0.34 0 0 0 0.68 0 10.71 10.71 0 0 0 -0.21 -3 3.82 3.82 0 0 0 -1.06 -2 5.29 5.29 0 0 0 -3 -1.29l0.06 -0.13a1.38 1.38 0 0 0 0 -0.2c0 -0.24 -0.13 -0.43 -0.16 -0.71a0.35 0.35 0 0 0 -0.28 -0.4 0.34 0.34 0 0 0 -0.39 0.28 2.54 2.54 0 0 0 -0.28 0.54 2 2 0 0 0 0 0.24 0.72 0.72 0 0 0 0 0.25 0.61 0.61 0 0 0 0 0.12 4.5 4.5 0 0 0 -2.38 0.9 5.46 5.46 0 0 0 -1.54 2.58 6.45 6.45 0 0 0 -0.22 2.91 0.31 0.31 0 0 0 0.34 0.26Z" fill="#4C57E6" fill-rule="evenodd" stroke-width="1"></path>
    <path d="M5.57 13.49c0.92 0 1.74 -0.15 3 -0.19l2.63 -0.18a0.35 0.35 0 0 0 0.33 -0.35 0.36 0.36 0 0 0 -0.35 -0.34l-2.61 -0.09c-0.59 0 -1.09 -0.05 -1.54 -0.05 -0.74 0 -1.37 0 -2.12 0.06l-1.39 0.05 -3.17 0.12a0.3 0.3 0 0 0 0 0.6l3.15 0.3c0.83 0.05 1.5 0.08 2.07 0.07Z" fill="#020202" fill-rule="evenodd" stroke-width="1"></path>
  </g>
</svg>