<svg xmlns="http://www.w3.org/2000/svg" viewBox="0 0 24 24" id="Safety-Exit-Sign--Streamline-Freehand">
  <desc>
    Safety Exit Sign Streamline Icon: https://streamlinehq.com
  </desc>
  <g>
    <path d="M0.51 15.19a1.56 1.56 0 0 0 0.4 0.84 2.53 2.53 0 0 0 1.51 0.5 14.48 14.48 0 0 0 3.12 -0.38 0.34 0.34 0 0 0 -0.1 -0.68 16.89 16.89 0 0 1 -2.54 0.19 2 2 0 0 1 -1.28 -0.36s0 -0.12 -0.05 -0.2a3.87 3.87 0 0 1 -0.06 -0.64c0 -0.73 0 -1.56 -0.05 -1.85l-0.07 -0.5a4.33 4.33 0 0 0 0.63 0 3.79 3.79 0 0 0 0.66 -0.11 8.42 8.42 0 0 1 1 -0.24 0.35 0.35 0 0 0 0.32 -0.31 0.34 0.34 0 0 0 -0.32 -0.36 5 5 0 0 0 -1.09 -0.16 3.39 3.39 0 0 0 -0.45 0 2.16 2.16 0 0 0 -0.44 0.1c-0.16 0 -0.3 0.11 -0.45 0.17l-0.07 -0.47 -0.11 -1.31a1.38 1.38 0 0 1 0.51 -1.26 5.49 5.49 0 0 1 2.53 -0.5 0.31 0.31 0 0 0 0.29 -0.31 0.3 0.3 0 0 0 -0.31 -0.3 6.25 6.25 0 0 0 -3 0.38 2.23 2.23 0 0 0 -1.1 2 6.27 6.27 0 0 0 0 0.75c0 0.25 0 0.5 0.05 0.74l0.27 1.91c0.07 0.32 0.04 1.59 0.2 2.36Z" fill="#020202" fill-rule="evenodd" stroke-width="1"></path>
    <path d="M11.63 7.75a0.3 0.3 0 0 0 -0.41 0.13c-0.44 0.68 -0.91 1.36 -1.35 2.08l-0.12 -0.15a21 21 0 0 0 -2.34 -2.13 0.3 0.3 0 0 0 -0.43 0 0.31 0.31 0 0 0 0 0.43c0.38 0.42 0.75 0.87 1.12 1.34s0.55 0.75 0.83 1.13l0.33 0.42 -0.22 0.41c-0.18 0.38 -0.34 0.77 -0.49 1.16a15.33 15.33 0 0 0 -0.74 2.87 0.34 0.34 0 1 0 0.66 0.15 15.88 15.88 0 0 1 0.56 -1.5c0.22 -0.49 0.47 -1 0.7 -1.45 0.11 -0.21 0.2 -0.42 0.31 -0.63 0.8 1 1.6 2 2.27 3a0.34 0.34 0 1 0 0.59 -0.34A29.07 29.07 0 0 0 11.39 12c-0.25 -0.38 -0.5 -0.75 -0.78 -1.11 0.4 -0.9 0.77 -1.81 1.15 -2.68a0.31 0.31 0 0 0 -0.13 -0.46Z" fill="#020202" fill-rule="evenodd" stroke-width="1"></path>
    <path d="M15.9 11.19c-0.08 -1 -0.25 -2.09 -0.4 -3.23a0.3 0.3 0 0 0 -0.32 -0.28 0.29 0.29 0 0 0 -0.29 0.31c0 1 -0.11 1.92 -0.13 2.83l0 1.22c0 0.41 0.05 0.81 0.09 1.21 0.09 0.92 0.24 1.84 0.41 2.83a0.34 0.34 0 0 0 0.37 0.31A0.35 0.35 0 0 0 16 16l0 -2.89c0 -0.64 -0.06 -1.28 -0.1 -1.92Z" fill="#020202" fill-rule="evenodd" stroke-width="1"></path>
    <path d="M23.58 7.1a11.91 11.91 0 0 0 -2.53 -0.1 14.16 14.16 0 0 0 -1.46 0.15c-0.72 0.11 -1.41 0.28 -2.14 0.32a0.31 0.31 0 0 0 -0.32 0.29 0.3 0.3 0 0 0 0.29 0.32 11.83 11.83 0 0 0 2.52 0.17l0.36 0 0 2.62c0 0.39 0 0.78 0.07 1.16s0.08 0.78 0.13 1.16c0.12 0.91 0.28 1.81 0.42 2.71a0.35 0.35 0 0 0 0.38 0.31 0.36 0.36 0 0 0 0.31 -0.37l0 -2.73q0 -0.58 -0.06 -1.17c0 -0.39 -0.06 -0.78 -0.12 -1.16 -0.12 -0.88 -0.31 -1.74 -0.48 -2.6l0.47 -0.06a16.91 16.91 0 0 1 2.14 -0.27 0.34 0.34 0 0 0 0.36 -0.32 0.34 0.34 0 0 0 -0.34 -0.43Z" fill="#020202" fill-rule="evenodd" stroke-width="1"></path>
    <path d="M23.74 3.73a6.56 6.56 0 0 0 -1.52 -0.21l-2.2 0 -3.77 0c-1.25 0 -2.51 0.07 -3.77 0.12s-2.3 0.08 -3.39 0.1c-1.73 0 -3.4 0.06 -5.13 0.13 -1.18 0 -2.4 0.12 -3.68 0.26A0.3 0.3 0 0 0 0 4.4a0.29 0.29 0 0 0 0.32 0.27c3.5 -0.17 6.46 0.13 9.75 0.14 0.8 0 1.61 0 2.46 -0.08 1.5 -0.1 3 -0.18 4.49 -0.26 1 0 2 -0.09 3 -0.12 0.66 0 1.43 -0.08 2.18 -0.08a6 6 0 0 1 1.37 0.13 0.35 0.35 0 0 0 0.43 -0.25 0.34 0.34 0 0 0 -0.26 -0.42Z" fill="#4C57E6" fill-rule="evenodd" stroke-width="1"></path>
    <path d="m23.29 19.07 -1.59 0c-1.2 0 -2.3 0.15 -3.63 0.13 -1.07 0 -2.13 -0.16 -3.2 -0.21H14c-0.7 0 -1.39 0.05 -2.08 0.1 -1.59 0.13 -3.16 0.34 -4.75 0.44 -0.71 0 -1.39 0.09 -2 0.11 -1.65 0.07 -3.19 0.06 -4.82 0.14a0.3 0.3 0 0 0 -0.3 0.31 0.3 0.3 0 0 0 0.31 0.29c1.63 0 3.16 0.13 4.81 0.17l2.09 0c0.46 0 0.92 0 1.38 -0.05 1.81 -0.11 3.61 -0.34 5.43 -0.39l4 0c1.35 -0.05 2.45 -0.23 3.66 -0.32 0.49 0 1 -0.07 1.53 -0.07a0.34 0.34 0 1 0 0 -0.68Z" fill="#4C57E6" fill-rule="evenodd" stroke-width="1"></path>
  </g>
</svg>