<svg xmlns="http://www.w3.org/2000/svg" viewBox="0 0 24 24" id="Safety-Helmet-1--Streamline-Freehand">
  <desc>
    Safety Helmet 1 Streamline Icon: https://streamlinehq.com
  </desc>
  <g>
    <path d="M6.77 3.22a11.23 11.23 0 0 0 -2.1 1.31 12.51 12.51 0 0 0 -1.54 1.35 10.39 10.39 0 0 0 -2.77 5.47c0 0.33 -0.07 0.66 -0.08 1 0 0.73 0.07 1.47 0.06 2.19a0.35 0.35 0 0 0 0.33 0.36 0.34 0.34 0 0 0 0.33 -0.34c0.05 -0.62 0.05 -1.25 0.08 -1.87a7.2 7.2 0 0 1 0.16 -1.16 10.29 10.29 0 0 1 1.53 -3.4A16.52 16.52 0 0 1 4 6.65 15.51 15.51 0 0 1 5.3 5.3a10.65 10.65 0 0 1 1.8 -1.42 3.19 3.19 0 0 1 1.1 -0.4c0.31 -0.06 0.43 -0.5 0.17 -0.63a3.62 3.62 0 0 0 -1.6 0.37Z" fill="#020202" fill-rule="evenodd" stroke-width="1"></path>
    <path d="M18.92 14.11c-0.37 -1.53 -1 -3.08 -1.34 -4.51 -0.15 -0.54 -0.28 -1.09 -0.39 -1.64 -0.26 -1.31 -0.47 -2.63 -0.76 -3.94l-0.38 -1.38 -0.44 -1A2.2 2.2 0 0 0 14.09 0.37a6 6 0 0 0 -2.52 0.21 6.18 6.18 0 0 0 -1.41 0.42 1.89 1.89 0 0 0 -0.89 0.76 21.36 21.36 0 0 0 -1.43 5.49C7.49 9.11 7 11 6.52 12.8c-0.18 0.81 -0.37 1.61 -0.49 2.43a0.31 0.31 0 0 0 0.25 0.35 0.29 0.29 0 0 0 0.34 -0.25c0.16 -0.79 0.36 -1.58 0.57 -2.36 0.52 -1.84 1.15 -3.67 1.58 -5.53 0.22 -1 0.38 -2.12 0.66 -3.2a6.38 6.38 0 0 1 0.78 -1.84 1.37 1.37 0 0 1 0.62 -0.4 6.08 6.08 0 0 1 1 -0.26 4.89 4.89 0 0 1 2 -0.22 1.16 1.16 0 0 1 0.78 0.65L15 3l0.39 1.3c0.35 1.28 0.59 2.59 0.89 3.88 0.14 0.57 0.29 1.13 0.46 1.69 0.38 1.21 0.89 2.5 1.3 3.81a10.21 10.21 0 0 1 0.33 1.32c0.15 0.54 0.7 0.5 0.67 0s-0.04 -0.54 -0.12 -0.89Z" fill="#4C57E6" fill-rule="evenodd" stroke-width="1"></path>
    <path d="M23.83 14.52a7.13 7.13 0 0 0 -0.08 -2.36 23.7 23.7 0 0 0 -1 -3.3 17.73 17.73 0 0 0 -1.09 -2.47 8.7 8.7 0 0 0 -1.7 -2.19 5.4 5.4 0 0 0 -3.36 -1.62 0.32 0.32 0 0 0 -0.35 0.26 0.31 0.31 0 0 0 0.27 0.34 4.77 4.77 0 0 1 2.75 1.61 9.68 9.68 0 0 1 1.36 2.06 21.4 21.4 0 0 1 1.05 2.32 26 26 0 0 1 1.2 3.1 7.07 7.07 0 0 1 0.23 1.92 1.69 1.69 0 0 0 -0.47 0.15c-0.26 0.12 -0.56 0.33 -0.77 0.43a6.76 6.76 0 0 1 -0.92 0.36 5.1 5.1 0 0 1 -1 0.19c-4.15 0.5 -6.85 0.61 -6.92 0.61a51.94 51.94 0 0 1 -6.93 -0.13c-1.17 -0.1 -2.34 -0.2 -3.49 -0.4a16 16 0 0 1 -2.21 -0.55 0.29 0.29 0 0 0 -0.4 0.15 0.29 0.29 0 0 0 0.18 0.38l0.23 0.08a12 12 0 0 0 2.62 4.43 15.75 15.75 0 0 0 4.22 2.93 11.23 11.23 0 0 0 4.45 0.83 15.93 15.93 0 0 0 4.48 -0.42 13.56 13.56 0 0 0 3.82 -1.7 11 11 0 0 0 3 -3 7.05 7.05 0 0 0 0.82 -1.59 3.74 3.74 0 0 0 0.18 -1.25 4 4 0 0 0 -0.17 -1.17Zm-1.24 2.27a6.92 6.92 0 0 1 -0.6 1.1 9.85 9.85 0 0 1 -2.64 2.7 12.72 12.72 0 0 1 -3.46 1.65 15.29 15.29 0 0 1 -4.15 0.46 10.48 10.48 0 0 1 -4.07 -0.64 14.67 14.67 0 0 1 -4.06 -2.69 10.24 10.24 0 0 1 -2.33 -3.62c0.41 0.11 0.83 0.21 1.24 0.29 1.18 0.24 2.35 0.37 3.54 0.51a50.69 50.69 0 0 0 7 0.32c2.32 0 4.63 -0.21 7 -0.44a6.66 6.66 0 0 0 1.15 -0.22 7.05 7.05 0 0 0 1.08 -0.41l0.47 -0.24a1 1 0 0 0 0 0.11 3.12 3.12 0 0 1 -0.17 1.12Z" fill="#020202" fill-rule="evenodd" stroke-width="1"></path>
  </g>
</svg>