<svg xmlns="http://www.w3.org/2000/svg" viewBox="0 0 24 24" id="Safety-Exit-Left--Streamline-Freehand">
  <desc>
    Safety Exit Left Streamline Icon: https://streamlinehq.com
  </desc>
  <g>
    <path d="M11.83 8.07a4.76 4.76 0 0 0 1.45 0.4 4 4 0 0 0 0.85 0 3.5 3.5 0 0 0 0.87 -0.22 3.46 3.46 0 0 0 1.86 -2.13 3.63 3.63 0 0 0 -0.17 -2.77 2.72 2.72 0 0 0 -0.5 -0.67 4.61 4.61 0 0 0 -0.96 -0.68c-4 -2.22 -5.07 2.23 -5.13 2.53a3.23 3.23 0 0 0 0.5 2.55 3 3 0 0 0 1.23 0.99ZM11 4.68c0 -0.29 0.85 -4 3.84 -2a4.17 4.17 0 0 1 0.62 0.49 2.14 2.14 0 0 1 0.4 0.58 2.71 2.71 0 0 1 0 2 2.38 2.38 0 0 1 -1.24 1.44 2.61 2.61 0 0 1 -0.55 0.14 3.12 3.12 0 0 1 -0.61 0 3.72 3.72 0 0 1 -1.12 -0.26 2.12 2.12 0 0 1 -0.86 -0.61A2.27 2.27 0 0 1 11 4.68Z" fill="#020202" fill-rule="evenodd" stroke-width="1"></path>
    <path d="M23.68 10.9a5.45 5.45 0 0 0 -2.21 -2 10.33 10.33 0 0 0 -1 -0.46 3 3 0 0 0 -0.86 -0.18 4.67 4.67 0 0 0 -1.51 0.21c-1 0.29 -2 0.85 -2.92 1.13a5.51 5.51 0 0 1 -1.29 0.2 8.75 8.75 0 0 1 -1.36 0 2.55 2.55 0 0 1 -0.8 -0.24 11.11 11.11 0 0 1 -1.26 -0.72 3.52 3.52 0 0 0 -1.15 -0.53 1.6 1.6 0 0 0 -1 0.13 1.67 1.67 0 0 0 -0.94 2.06 4.48 4.48 0 0 0 1.74 2.46 5.7 5.7 0 0 0 2.7 0.9 9.94 9.94 0 0 0 2.7 -0.23 3.87 3.87 0 0 1 0.21 0.34 0.19 0.19 0 0 1 0 0.23 0.67 0.67 0 0 1 -0.36 0.22c-0.33 0.11 -0.7 0.15 -1 0.27a4.9 4.9 0 0 0 -1.06 0.62 3 3 0 0 0 -0.85 1 5.3 5.3 0 0 0 -0.6 2.52 4.8 4.8 0 0 0 0.74 2.55 3.13 3.13 0 0 0 1.28 1.12 2.15 2.15 0 0 0 1.23 0.17l0.65 -0.21a1.3 1.3 0 0 0 0.79 -1.15 2.37 2.37 0 0 0 -0.23 -1 9.62 9.62 0 0 1 -0.47 -1.11 1.09 1.09 0 0 1 0.12 -0.84 2.73 2.73 0 0 1 0.71 -0.77 1.94 1.94 0 0 1 0.7 -0.27 1.88 1.88 0 0 1 0.57 -0.06A12.07 12.07 0 0 0 18 19.6a8.65 8.65 0 0 0 1.86 2.33 2.17 2.17 0 0 0 1.92 0.46 1.37 1.37 0 0 0 0.85 -1.28 3.75 3.75 0 0 0 -0.29 -1.65 13.79 13.79 0 0 0 -1 -2c-0.82 -1.41 -1.51 -2.42 -2.18 -3.6 -0.24 -0.43 -0.49 -0.89 -0.73 -1.4a1.06 1.06 0 0 1 1.09 -0.31 7.37 7.37 0 0 1 2.1 1.2 1.8 1.8 0 0 0 1.31 0.37 1.22 1.22 0 0 0 0.8 -0.66 2.14 2.14 0 0 0 -0.05 -2.16ZM23 12.66c-0.09 0.18 -0.19 0.27 -0.32 0.27a1.33 1.33 0 0 1 -0.63 -0.22 7.75 7.75 0 0 0 -2.37 -1.21 1.65 1.65 0 0 0 -1.82 0.71 0.28 0.28 0 0 0 -0.05 0.29c0.32 0.83 0.65 1.54 1 2.22 0.5 1 1 2 1.61 3.21a14.31 14.31 0 0 1 0.87 1.89 2.85 2.85 0 0 1 0.19 1.18c0 0.21 -0.07 0.34 -0.2 0.35a1.28 1.28 0 0 1 -0.8 -0.26 8.1 8.1 0 0 1 -1.76 -2 11.53 11.53 0 0 1 -1.24 -2.41c-0.11 -0.32 -1.1 -0.21 -1.29 -0.18a2.76 2.76 0 0 0 -1 0.34 3.13 3.13 0 0 0 -1.12 1.17 1.91 1.91 0 0 0 -0.16 1.2c0.08 0.49 0.45 1.15 0.53 1.71a0.36 0.36 0 0 1 -0.23 0.42l-0.32 0.09a1.18 1.18 0 0 1 -0.75 -0.19 2.13 2.13 0 0 1 -0.64 -0.63 3.72 3.72 0 0 1 -0.59 -1.94 4.49 4.49 0 0 1 0.37 -2.05 2.17 2.17 0 0 1 0.55 -0.74 3.93 3.93 0 0 1 0.84 -0.55c0.31 -0.16 0.75 -0.21 1.09 -0.38a1.38 1.38 0 0 0 0.52 -0.44 0.86 0.86 0 0 0 0.15 -0.64 2.86 2.86 0 0 0 -0.53 -0.87 0.32 0.32 0 0 0 -0.36 -0.13 0.42 0.42 0 0 0 -0.16 0 9.61 9.61 0 0 1 -2.56 0.15 5.06 5.06 0 0 1 -2.3 -0.86 3.64 3.64 0 0 1 -1.18 -1.56c-0.19 -0.52 -0.22 -1.06 0.35 -1.31a0.57 0.57 0 0 1 0.48 0 2.53 2.53 0 0 1 0.66 0.37 12.8 12.8 0 0 0 1.37 0.83 4 4 0 0 0 1.14 0.36 9.94 9.94 0 0 0 1.55 0.07 6.35 6.35 0 0 0 1.57 -0.25c0.94 -0.28 1.93 -0.84 2.92 -1.14a3.5 3.5 0 0 1 1.14 -0.19 1.89 1.89 0 0 1 0.56 0.1c0.34 0.11 0.67 0.26 1 0.38a4.24 4.24 0 0 1 1.82 1.53 1.29 1.29 0 0 1 0.1 1.31Z" fill="#020202" fill-rule="evenodd" stroke-width="1"></path>
    <path d="M5.85 10.07c-0.56 0 -1.08 0 -1.61 -0.07h-0.69l-0.7 0c-0.5 0 -1 0.11 -1.5 0.19 0.11 -0.24 0.24 -0.49 0.38 -0.74 0.4 -0.71 0.84 -1.38 0.93 -1.56a0.3 0.3 0 1 0 -0.5 -0.33 16.41 16.41 0 0 0 -1.7 1.98A2.35 2.35 0 0 0 0 10.89 2.65 2.65 0 0 0 0.56 12a13.17 13.17 0 0 0 1.79 1.7 0.34 0.34 0 0 0 0.48 -0.49c-0.31 -0.36 -0.83 -1 -1.24 -1.53a3 3 0 0 1 -0.41 -0.75c0.58 0.05 1.12 0.16 1.69 0.19a7.36 7.36 0 0 0 1.15 0A8.88 8.88 0 0 0 6 10.66a0.3 0.3 0 0 0 -0.11 -0.59Z" fill="#4C57E6" fill-rule="evenodd" stroke-width="1"></path>
  </g>
</svg>