<svg xmlns="http://www.w3.org/2000/svg" viewBox="0 0 24 24" id="Safety-Danger-Mudslide--Streamline-Freehand">
  <desc>
    Safety Danger Mudslide Streamline Icon: https://streamlinehq.com
  </desc>
  <g>
    <path d="M15 17.61a25.46 25.46 0 0 0 -2.92 -1.81 2.33 2.33 0 0 1 -0.76 -0.88 2.56 2.56 0 0 1 -0.24 -0.77c-0.23 -1.28 0 -2.78 -0.44 -4a3 3 0 0 0 -0.42 -0.74 11 11 0 0 0 -1 -1 2.06 2.06 0 0 1 -0.62 -0.92c-0.19 -0.77 0 -1.69 -0.13 -2.51A2.51 2.51 0 0 0 8 3.8a2.35 2.35 0 0 0 -0.54 -0.5C7 3 6.51 2.79 6.13 2.57c-0.71 -0.42 -1.27 -0.88 -1.92 -1.25a5.73 5.73 0 0 0 -0.93 -0.45 0.3 0.3 0 0 0 -0.39 0.18 0.31 0.31 0 0 0 0.17 0.39 5 5 0 0 1 0.83 0.42c0.63 0.4 1.17 0.88 1.87 1.32 0.31 0.19 0.71 0.39 1.06 0.62a2.28 2.28 0 0 1 0.51 0.46 1.73 1.73 0 0 1 0.29 0.84c0.1 0.86 -0.12 1.8 0 2.61a2.6 2.6 0 0 0 0.38 0.78c0.46 0.72 1.36 1.18 1.64 2 0.39 1.15 0.1 2.59 0.3 3.81a4 4 0 0 0 0.32 1.1 3.5 3.5 0 0 0 1.11 1.29 24.67 24.67 0 0 1 2.8 1.72 2.77 2.77 0 0 1 0.58 1.34 18.57 18.57 0 0 1 0.31 2.07c-0.51 0.06 -1 0.15 -1.54 0.21 -0.28 0 -0.56 0.05 -0.85 0.06 -1.74 0 -3.47 -0.18 -5.21 -0.22l-1.34 0c-1.34 0 -2.7 0.18 -4 0.19A13.89 13.89 0 0 1 0.38 22a0.35 0.35 0 0 0 -0.38 0.3 0.34 0.34 0 0 0 0.3 0.38 15.2 15.2 0 0 0 1.78 0.12c1.35 0 2.71 -0.07 4.07 -0.07l1.28 0c1.75 0.09 3.49 0.34 5.25 0.37l1 0c0.7 -0.07 1.38 -0.18 2.09 -0.22a0.55 0.55 0 0 0 0.39 -0.2 0.56 0.56 0 0 0 0.12 -0.43 23.08 23.08 0 0 0 -0.48 -3.2 3.28 3.28 0 0 0 -0.8 -1.44Z" fill="#020202" fill-rule="evenodd" stroke-width="1"></path>
    <path d="M24 15.76c-0.45 -2.92 -2.65 -2.39 -3.32 -2a4 4 0 0 0 -1.88 2.2 2.58 2.58 0 0 0 2.71 3.34 2.84 2.84 0 0 0 2.18 -1.52 3.15 3.15 0 0 0 0.31 -2.02Zm-1.13 1.49a1.87 1.87 0 0 1 -1.46 0.88A1.45 1.45 0 0 1 20 17.4a1.6 1.6 0 0 1 -0.07 -1.53 3.16 3.16 0 0 1 1.14 -1.42c0.43 -0.28 1.91 -0.86 2.08 1.4a2.36 2.36 0 0 1 -0.32 1.4Z" fill="#4C57E6" fill-rule="evenodd" stroke-width="1"></path>
    <path d="M13.84 9.61a1.78 1.78 0 0 0 0.64 2.27 2.42 2.42 0 0 0 2.26 -0.09 1.44 1.44 0 0 0 0.78 -1.47 1.66 1.66 0 0 0 -0.47 -0.93c-1.35 -1.39 -2.69 -0.88 -3.21 0.22ZM16 10.89a1.22 1.22 0 0 1 -0.94 0 0.76 0.76 0 0 1 -0.37 -1c0.49 -1.65 1.87 -0.08 1.88 0.46 0.02 0.34 -0.28 0.46 -0.57 0.54Z" fill="#4C57E6" fill-rule="evenodd" stroke-width="1"></path>
    <path d="M11.62 4a3.46 3.46 0 0 0 0.31 0.47 5.62 5.62 0 0 0 1 0.93 0.34 0.34 0 1 0 0.5 -0.47 10.74 10.74 0 0 1 -0.55 -1.07c-0.12 -0.24 -0.23 -0.49 -0.37 -0.72 -0.26 -0.41 -0.56 -0.76 -0.81 -1.15a0.3 0.3 0 0 0 -0.4 -0.16 0.29 0.29 0 0 0 -0.16 0.39 10 10 0 0 0 0.28 1.27 2.93 2.93 0 0 0 0.2 0.51Z" fill="#4C57E6" fill-rule="evenodd" stroke-width="1"></path>
    <path d="M19.86 6.65c0.11 0.3 0.23 0.59 0.35 0.88s0.25 0.58 0.35 0.88a5.88 5.88 0 0 1 0.26 0.91 0.36 0.36 0 0 0 0.38 0.32 0.35 0.35 0 0 0 0.31 -0.38 8 8 0 0 0 -0.17 -1.83 5.11 5.11 0 0 0 -0.23 -0.76 5.05 5.05 0 0 0 -0.33 -0.67 11.9 11.9 0 0 0 -1.07 -1.5 0.31 0.31 0 0 0 -0.42 -0.09 0.29 0.29 0 0 0 -0.1 0.41c0.26 0.6 0.44 1.18 0.67 1.83Z" fill="#4C57E6" fill-rule="evenodd" stroke-width="1"></path>
    <path d="M4.36 16.22a0.3 0.3 0 0 0 0.29 0.31c0.22 0 0.43 0.06 0.65 0.11a3.33 3.33 0 0 1 0.56 0.18 2.35 2.35 0 0 1 0.54 0.33 2 2 0 0 1 0.59 0.64 5.78 5.78 0 0 1 0.59 1.7 0.34 0.34 0 0 0 0.42 0.31 0.35 0.35 0 0 0 0.31 -0.38 4.65 4.65 0 0 0 -0.51 -2.56 2.18 2.18 0 0 0 -0.8 -0.68 3 3 0 0 0 -0.91 -0.3 4.1 4.1 0 0 0 -0.61 0c-0.28 0 -0.56 0 -0.83 0.06a0.3 0.3 0 0 0 -0.29 0.28Z" fill="#020202" fill-rule="evenodd" stroke-width="1"></path>
    <path d="M3.34 8.4a0.78 0.78 0 0 0 0.16 0.2c0.23 0.23 0.5 0.38 0.7 0.61a0.35 0.35 0 0 0 0.47 0.13 0.35 0.35 0 0 0 0.14 -0.47 3 3 0 0 0 -0.26 -0.75 1.32 1.32 0 0 0 -0.19 -0.29 1.13 1.13 0 0 0 -0.26 -0.23 2 2 0 0 0 -0.8 -0.28 0.31 0.31 0 0 0 -0.3 0.54 4.09 4.09 0 0 1 0.34 0.54Z" fill="#020202" fill-rule="evenodd" stroke-width="1"></path>
  </g>
</svg>