<svg xmlns="http://www.w3.org/2000/svg" viewBox="0 0 24 24" id="Saving-Money-Tree--Streamline-Freehand">
  <desc>
    Saving Money Tree Streamline Icon: https://streamlinehq.com
  </desc>
  <g>
    <path d="M16.6 14.85a9.48 9.48 0 0 0 -2.6 -1.49 0.33 0.33 0 0 0 -0.46 0.15 0.34 0.34 0 0 0 0.16 0.46 9.69 9.69 0 0 1 1.8 1.34A3.7 3.7 0 0 1 16.65 17a1 1 0 0 1 -0.42 1.15 3 3 0 0 1 -1.58 0.68 9.57 9.57 0 0 1 -1.19 0.11 13.67 13.67 0 0 1 -4.33 -0.13A3.07 3.07 0 0 1 7.66 18a0.34 0.34 0 0 1 -0.08 -0.32 2.72 2.72 0 0 1 0.21 -0.68 4.77 4.77 0 0 1 1.1 -1.88 6.62 6.62 0 0 1 1.84 -1.36 0.35 0.35 0 0 0 0.18 -0.45 0.34 0.34 0 0 0 -0.45 -0.18 6.94 6.94 0 0 0 -2.27 1.26 5.91 5.91 0 0 0 -1.61 2.15 3.46 3.46 0 0 0 -0.31 1.35A1.55 1.55 0 0 0 6.79 19a4.22 4.22 0 0 0 2.12 0.88c1.77 0.26 2 -0.17 4.8 0l1 0a3.79 3.79 0 0 0 2.68 -1.11 2.15 2.15 0 0 0 0.46 -2.19 4.62 4.62 0 0 0 -1.25 -1.73Z" fill="#4C57E6" fill-rule="evenodd" stroke-width="1"></path>
    <path d="m12.26 11.92 0 0.4a2.62 2.62 0 0 0 -0.45 -0.49 2.85 2.85 0 0 0 -1.72 -0.73 0.39 0.39 0 0 0 -0.44 0.32 0.38 0.38 0 0 0 0.32 0.44 2.31 2.31 0 0 1 1 0.83l0.33 0.47c0.11 0.15 0.21 0.31 0.31 0.47a4.24 4.24 0 0 1 0.36 0.75 9.71 9.71 0 0 1 -0.63 2 0.33 0.33 0 0 0 0.12 0.46 0.34 0.34 0 0 0 0.47 -0.11 8.84 8.84 0 0 0 1.27 -2.43 6.17 6.17 0 0 0 0.26 -1.19 7 7 0 0 0 0 -1.21 5.81 5.81 0 0 0 -0.39 -1.9c-0.2 -0.55 -0.94 -0.21 -0.87 0.33a5.59 5.59 0 0 1 0.06 1.59Z" fill="#4C57E6" fill-rule="evenodd" stroke-width="1"></path>
    <path d="M14.22 1.26A4.33 4.33 0 0 0 11.77 0.14a6.18 6.18 0 0 0 -2.6 0.24 4.59 4.59 0 0 0 -3 3.9 5.25 5.25 0 0 0 1.54 4.6 3.85 3.85 0 0 0 2 0.88 8.09 8.09 0 0 0 3.23 -0.35 0.33 0.33 0 0 0 0.07 -0.27 0.32 0.32 0 0 0 -0.39 -0.27 7.76 7.76 0 0 1 -2.76 0.06 2.83 2.83 0 0 1 -1.46 -0.76 4.27 4.27 0 0 1 -1 -3.71 3.39 3.39 0 0 1 2.15 -2.84 5.37 5.37 0 0 1 2.07 -0.22 3.24 3.24 0 0 1 1.82 0.73 4.68 4.68 0 0 1 1.63 3.25 3.07 3.07 0 0 1 -1.64 3.05 0.39 0.39 0 0 0 0.35 0.69A3.91 3.91 0 0 0 16 5.35a5.8 5.8 0 0 0 -1.78 -4.09Z" fill="#020202" fill-rule="evenodd" stroke-width="1"></path>
    <path d="M12.89 6.44a1.23 1.23 0 0 0 0.21 -1.1 1.37 1.37 0 0 0 -0.75 -0.92 6.1 6.1 0 0 0 -1.85 -0.22 3 3 0 0 1 -0.4 0 1.12 1.12 0 0 1 0.09 -0.2 1.3 1.3 0 0 1 0.92 -0.44 2 2 0 0 1 1.16 0.36 0.35 0.35 0 0 0 0.48 -0.06 0.34 0.34 0 0 0 -0.06 -0.48 2.78 2.78 0 0 0 -1.34 -0.64c0 -0.06 0.07 -0.1 0.09 -0.17a0.29 0.29 0 0 0 0 -0.16c-0.31 -0.8 -0.56 -0.74 -0.57 -0.74 -0.26 0 -0.63 0.62 -0.67 0.69a0.33 0.33 0 0 0 0 0.17 0.35 0.35 0 0 0 0 0.17 0.35 0.35 0 0 1 0.05 0.08A2.24 2.24 0 0 0 9 3.63a1.17 1.17 0 0 0 -0.18 0.6 1.06 1.06 0 0 0 0.37 0.77 2.27 2.27 0 0 0 1.17 0.48l1.18 0c0.17 0 0.33 0 0.39 0.18a0.17 0.17 0 0 1 -0.07 0.18 1.14 1.14 0 0 1 -0.37 0.22 2.24 2.24 0 0 1 -1 0.19 1.66 1.66 0 0 1 -0.9 -0.35 0.38 0.38 0 0 0 -0.49 0.1 0.39 0.39 0 0 0 0 0.55 2.4 2.4 0 0 0 1.24 0.64 0.28 0.28 0 0 0 0 0.13 0.62 0.62 0 0 0 0.07 0.19c0.35 0.76 0.55 0.78 0.71 0.75 0.36 0 0.52 -1 0.52 -1.07l0.16 0a2.17 2.17 0 0 0 1.09 -0.75Z" fill="#020202" fill-rule="evenodd" stroke-width="1"></path>
    <path d="M23.83 14.71a1.23 1.23 0 0 0 -1.59 -0.66 8 8 0 0 0 0.25 -1.54 6.91 6.91 0 0 0 -0.26 -2.34A1.91 1.91 0 0 0 20.91 9a1.26 1.26 0 0 0 -1.33 0.55 0.69 0.69 0 0 0 0 0.13 1.11 1.11 0 0 0 -1.32 -0.08 1.65 1.65 0 0 0 -0.51 0.65l-0.38 -0.08a2 2 0 0 0 -0.91 0.15 1.35 1.35 0 0 0 -0.55 0.42 1.67 1.67 0 0 0 -0.33 0.65 3.3 3.3 0 0 0 0 1.44 0.39 0.39 0 1 0 0.77 0 4.35 4.35 0 0 1 0.34 -1 1.25 1.25 0 0 1 0.33 -0.39 1.26 1.26 0 0 1 0.48 -0.34 7.55 7.55 0 0 0 -0.05 1.28l0 0.76a0.38 0.38 0 0 0 0.36 0.41 0.39 0.39 0 0 0 0.42 -0.35l0.14 -0.74a10.13 10.13 0 0 1 0.41 -1.46c0.16 -0.39 0 -0.64 0.5 -0.36l0 0.87c0 0.66 0 1.32 -0.1 2 0 0.44 -0.07 0.88 -0.13 1.32a0.39 0.39 0 0 0 0.77 0.13c0.13 -0.55 0.24 -1.11 0.34 -1.66s0.19 -1.12 0.27 -1.67c0 -0.23 0 -0.53 0.08 -0.84a0.91 0.91 0 0 1 0.1 -0.43c0.05 -0.06 0.11 0 0.17 0a0.48 0.48 0 0 1 0.24 0.27 5.64 5.64 0 0 1 0.47 1.92 7.49 7.49 0 0 1 -0.11 2.06l-0.26 0.21c-1 1 -2.34 2.82 -2.7 3.24a0.39 0.39 0 1 0 0.56 0.53c0.3 -0.29 1.25 -1.37 2.16 -2.26a4.31 4.31 0 0 1 1.35 -1.1c0.27 -0.06 0.22 0.21 0.22 0.45a4.18 4.18 0 0 1 -0.29 1.44 12.05 12.05 0 0 1 -1.66 3 17.94 17.94 0 0 1 -2.34 2.61 0.34 0.34 0 0 0 0 0.48 0.34 0.34 0 0 0 0.48 0.05 17.32 17.32 0 0 0 3.2 -3.05 12.57 12.57 0 0 0 1.57 -2.57 4.76 4.76 0 0 0 0.16 -2.93Z" fill="#020202" fill-rule="evenodd" stroke-width="1"></path>
    <path d="m6.58 13.07 0 -0.76A8.12 8.12 0 0 0 6.56 11c0.07 0 0.12 -0.05 0.2 -0.06a0.28 0.28 0 0 1 0.3 0.22 1.74 1.74 0 0 1 0.16 0.47 5.45 5.45 0 0 1 0.14 0.58 5.08 5.08 0 0 1 0 0.86 0.38 0.38 0 1 0 0.75 0.16 4.77 4.77 0 0 0 0.33 -1.51 2.71 2.71 0 0 0 -0.24 -1.14 1.31 1.31 0 0 0 -1.13 -0.7 1.88 1.88 0 0 0 -0.82 0.23 1.44 1.44 0 0 0 -0.5 -0.6 1.08 1.08 0 0 0 -1.31 0.08s0 -0.09 0 -0.13a1.27 1.27 0 0 0 -1.33 -0.55 1.89 1.89 0 0 0 -1.32 1.18 6.88 6.88 0 0 0 -0.26 2.34A7.38 7.38 0 0 0 1.76 14a1.23 1.23 0 0 0 -1.59 0.66 4.72 4.72 0 0 0 0.18 2.84 12.31 12.31 0 0 0 1.57 2.57 17 17 0 0 0 3.2 3.05 0.34 0.34 0 0 0 0.48 0 0.34 0.34 0 0 0 0 -0.48A18 18 0 0 1 3.22 20a12 12 0 0 1 -1.66 -3 4.23 4.23 0 0 1 -0.29 -1.44c0 -0.24 -0.05 -0.52 0.22 -0.45s0.79 0.54 1.35 1.09c0.91 0.9 1.86 2 2.16 2.27a0.39 0.39 0 1 0 0.56 -0.47c-0.36 -0.42 -1.71 -2.24 -2.7 -3.24a2.39 2.39 0 0 0 -0.26 -0.21 7.81 7.81 0 0 1 -0.12 -2.05 6.07 6.07 0 0 1 0.52 -2 0.54 0.54 0 0 1 0.25 -0.27c0.06 0 0.12 -0.09 0.17 0a0.88 0.88 0 0 1 0.1 0.43c0 0.3 0 0.61 0.07 0.84 0.09 0.55 0.18 1.11 0.28 1.67s0.21 1.1 0.34 1.66a0.39 0.39 0 0 0 0.77 -0.13c-0.06 -0.45 -0.1 -0.88 -0.13 -1.32 -0.06 -0.66 -0.09 -1.32 -0.1 -2l0 -0.87c0.35 -0.21 0.32 -0.06 0.5 0.36a9.8 9.8 0 0 1 0.44 1.52l0.14 0.73a0.39 0.39 0 0 0 0.78 0Z" fill="#020202" fill-rule="evenodd" stroke-width="1"></path>
    <path d="M10.9 21.45s-0.59 -1.23 -1 -1.1c0 0 -0.42 0 -0.19 1.56a3.22 3.22 0 0 0 0.16 0.61c0.39 1.2 0.45 1.29 0.72 1.28s0.53 0 0.49 -1.47a2.22 2.22 0 0 0 -0.05 -0.45 1.66 1.66 0 0 0 -0.13 -0.43Z" fill="#020202" fill-rule="evenodd" stroke-width="1"></path>
    <path d="M14.47 20.45c-0.39 -0.12 -1 1.08 -1 1.11a1.88 1.88 0 0 0 -0.14 0.42 2.3 2.3 0 0 0 -0.05 0.45c0 1.48 0.36 1.47 0.49 1.48s0.33 -0.09 0.72 -1.28a3.73 3.73 0 0 0 0.17 -0.61c0.23 -1.59 -0.16 -1.56 -0.19 -1.57Z" fill="#020202" fill-rule="evenodd" stroke-width="1"></path>
  </g>
</svg>