<svg xmlns="http://www.w3.org/2000/svg" viewBox="0 0 24 24" id="Saving-Coin-Wing-Fly--Streamline-Freehand">
  <desc>
    Saving Coin Wing Fly Streamline Icon: https://streamlinehq.com
  </desc>
  <g>
    <path d="M10.69 16.58A0.38 0.38 0 0 0 11 17a0.37 0.37 0 0 0 0.45 -0.26c0.08 -0.2 0.17 -0.4 0.24 -0.6a4.27 4.27 0 0 0 0.77 0.13 2 2 0 0 0 2.21 -1.95 1.53 1.53 0 0 0 -0.6 -1.32 3.17 3.17 0 0 0 -1 -0.53l0 -0.1c0.13 -0.42 0.24 -0.82 0.36 -1.23a2.68 2.68 0 0 1 0.84 0.61 0.33 0.33 0 0 0 0.46 0 0.32 0.32 0 0 0 0 -0.45 3.81 3.81 0 0 0 -1.13 -0.95c0 -0.15 0.09 -0.31 0.13 -0.46a0.32 0.32 0 0 0 -0.16 -0.43 0.33 0.33 0 0 0 -0.43 0.17c-0.08 0.13 -0.14 0.27 -0.22 0.4a3.12 3.12 0 0 0 -0.87 -0.2 1.62 1.62 0 0 0 -1.83 1.47 1.48 1.48 0 0 0 0.38 1.38 2.5 2.5 0 0 0 0.84 0.52c-0.09 0.27 -0.18 0.54 -0.25 0.82s-0.14 0.64 -0.21 1A2.64 2.64 0 0 1 9.7 13.9a0.37 0.37 0 1 0 -0.67 0.31 3.55 3.55 0 0 0 1.81 1.68c-0.04 0.23 -0.1 0.46 -0.15 0.69Zm2.72 -2.3c0 0.82 -0.69 1.05 -1.4 1 0.12 -0.28 0.23 -0.56 0.34 -0.84l0.3 -0.78c0.35 0.11 0.78 0.19 0.76 0.62Zm-0.95 -3.48 0.1 0c-0.2 0.37 -0.42 0.72 -0.59 1.11l-0.06 0.15c-0.31 -0.11 -0.58 -0.24 -0.53 -0.61 0.05 -0.6 0.55 -0.73 1.08 -0.65Z" fill="#020202" fill-rule="evenodd" stroke-width="1"></path>
    <path d="M4.93 12.64a3.66 3.66 0 0 0 0.38 -0.5 7.35 7.35 0 0 0 0.84 -2 0.36 0.36 0 0 0 -0.22 -0.47 0.35 0.35 0 0 0 -0.47 0.21 9.37 9.37 0 0 1 -1.31 1.8 6.35 6.35 0 0 1 -0.58 0.58 2.48 2.48 0 0 1 -0.36 0.31 0.94 0.94 0 0 1 -0.58 0.13 1.9 1.9 0 0 0 0.21 -0.19 8.28 8.28 0 0 0 0.89 -1.62c0.25 -0.55 0.5 -1.1 0.72 -1.66 0.16 -0.38 0.29 -0.76 0.42 -1.15a0.37 0.37 0 1 0 -0.7 -0.24q-0.21 0.54 -0.45 1.08c-0.24 0.54 -0.51 1.07 -0.78 1.58a7.41 7.41 0 0 1 -0.87 1.42 2.28 2.28 0 0 1 -0.73 0.62 2.32 2.32 0 0 1 -0.22 0.08 2.46 2.46 0 0 1 0.1 -0.62 9.62 9.62 0 0 1 0.55 -1.36 27.51 27.51 0 0 1 1.72 -3.38A11.1 11.1 0 0 1 5 5.3a5.21 5.21 0 0 1 0.91 -0.78 3 3 0 0 1 1 -0.43c0.76 -0.09 0.41 0.25 0.65 1.21a11.43 11.43 0 0 0 0.69 2.07c0.23 0.5 0.77 0.23 0.67 -0.27 -0.12 -0.67 -0.39 -1.32 -0.51 -2 -0.05 -0.27 0 -0.7 -0.09 -1.06a1.75 1.75 0 0 0 -0.18 -0.61 0.74 0.74 0 0 0 -0.44 -0.32 2.71 2.71 0 0 0 -0.92 0 3.6 3.6 0 0 0 -1.2 0.35 5.63 5.63 0 0 0 -1.45 1 11.92 11.92 0 0 0 -1.69 2.15 23 23 0 0 0 -1.78 3.54 9.79 9.79 0 0 0 -0.55 1.56A3.34 3.34 0 0 0 0 13a0.78 0.78 0 0 0 0.62 0.68 2.15 2.15 0 0 0 1.17 -0.19c0.07 0 0.11 -0.13 0.18 -0.17a1.61 1.61 0 0 0 2 0.16 1.47 1.47 0 0 0 0.55 0.38 0.7 0.7 0 0 0 0.62 0.07 0.77 0.77 0 0 0 0.32 -1.12 0.77 0.77 0 0 0 -0.53 -0.17Z" fill="#4C57E6" fill-rule="evenodd" stroke-width="1"></path>
    <path d="M23.8 10.86a6 6 0 0 0 -0.61 -1.74 4.25 4.25 0 0 0 -0.75 -1 3.09 3.09 0 0 0 -0.75 -0.55 0.68 0.68 0 0 0 -0.57 0 1.68 1.68 0 0 0 -0.49 0.39c-0.23 0.25 -0.44 0.6 -0.64 0.79a10.5 10.5 0 0 1 -1.49 1.19 1.38 1.38 0 0 1 -0.42 0.21 0.33 0.33 0 0 0 0.21 0.63 1.86 1.86 0 0 0 0.59 -0.23 10.63 10.63 0 0 0 1.69 -1.24c0.4 -0.34 0.92 -1.68 1.75 0.52a5.39 5.39 0 0 1 0.32 1.24 12.91 12.91 0 0 1 0.12 2.52 30.32 30.32 0 0 1 -0.45 3.85 12.24 12.24 0 0 1 -0.31 1.44 3.67 3.67 0 0 1 -0.22 0.53 2.34 2.34 0 0 1 -0.13 -0.22 2.74 2.74 0 0 1 -0.26 -1 8.16 8.16 0 0 1 0.06 -1.72c0.06 -0.59 0.14 -1.19 0.23 -1.78 0.06 -0.39 0.13 -0.78 0.22 -1.16a0.37 0.37 0 0 0 -0.26 -0.45 0.38 0.38 0 0 0 -0.46 0.27c-0.11 0.39 -0.19 0.79 -0.28 1.2 -0.13 0.6 -0.23 1.2 -0.32 1.8a9.14 9.14 0 0 0 -0.16 1.9l0 0.22a1.17 1.17 0 0 1 -0.34 -0.49 3.8 3.8 0 0 1 -0.13 -0.51c-0.06 -0.26 -0.1 -0.55 -0.14 -0.84a10.29 10.29 0 0 1 -0.09 -2.29 0.37 0.37 0 1 0 -0.72 -0.16 7.61 7.61 0 0 0 -0.41 2.17 4.87 4.87 0 0 0 0 0.54c-0.51 -0.4 -0.77 -0.15 -0.77 -0.15 -0.31 0.54 -0.27 0.79 -0.16 1a1.18 1.18 0 0 0 0.41 0.36 1.46 1.46 0 0 0 0.85 0.12 1.72 1.72 0 0 0 1.67 1.15c0 0.09 0 0.2 0.07 0.29a2.15 2.15 0 0 0 0.76 0.86 0.75 0.75 0 0 0 1 -0.15 3.11 3.11 0 0 0 0.63 -1.1 11.94 11.94 0 0 0 0.4 -1.59 26.44 26.44 0 0 0 0.49 -4 13.11 13.11 0 0 0 -0.14 -2.82Z" fill="#4C57E6" fill-rule="evenodd" stroke-width="1"></path>
    <path d="M17.79 15.46C18 15 19 8.87 14.45 7.25a6.41 6.41 0 0 0 -4.68 0.2 6.85 6.85 0 0 0 -3.33 3.23 4.41 4.41 0 0 0 -0.28 0.87c0 0.14 -0.08 0.27 -0.1 0.4a11.29 11.29 0 0 0 -0.54 3.22A6.25 6.25 0 0 0 6 17.7a6.24 6.24 0 0 0 4.45 3.4 6.17 6.17 0 0 0 5.4 -1.45 5.92 5.92 0 0 0 1.36 -2 10.15 10.15 0 0 0 0.58 -2.19Zm-1.1 0.08A5 5 0 0 1 14.23 18a5 5 0 0 1 -3.48 0.32 0.36 0.36 0 0 0 -0.46 0.24 0.37 0.37 0 0 0 0.23 0.47 5.77 5.77 0 0 0 4.06 -0.23 6.08 6.08 0 0 0 1.48 -0.91 4.54 4.54 0 0 1 -0.88 1 5.22 5.22 0 0 1 -4.46 1A5.26 5.26 0 0 1 7 17.22a4.91 4.91 0 0 1 -0.52 -1.68 5.63 5.63 0 0 0 3.29 3.28 0.32 0.32 0 0 0 0.41 -0.2 0.32 0.32 0 0 0 -0.2 -0.41 4.88 4.88 0 0 1 -2.74 -3 5 5 0 0 1 0.15 -4 5.61 5.61 0 0 1 2.86 -2.59 5.3 5.3 0 0 1 3.8 -0.14 4.64 4.64 0 0 1 2.64 3 5.69 5.69 0 0 1 0 4.06Z" fill="#020202" fill-rule="evenodd" stroke-width="1"></path>
    <path d="M2.88 4c0.39 -0.3 0.83 -0.52 1.27 -0.8 0.2 -0.12 0.38 -0.26 0.58 -0.39a5.81 5.81 0 0 1 0.57 -0.4 3.26 3.26 0 0 1 0.63 -0.28 0.36 0.36 0 0 0 0.32 -0.41 0.37 0.37 0 0 0 -0.41 -0.32 3.79 3.79 0 0 0 -1.52 0.27 3.19 3.19 0 0 0 -0.58 0.3 2.43 2.43 0 0 0 -0.49 0.41 5.75 5.75 0 0 0 -0.85 1.14 0.33 0.33 0 0 0 0 0.46 0.32 0.32 0 0 0 0.48 0.02Z" fill="#020202" fill-rule="evenodd" stroke-width="1"></path>
    <path d="M16.64 20.66c-0.2 0.13 -0.4 0.21 -0.6 0.32s-0.39 0.21 -0.58 0.32c-1.45 0.86 -1.55 0.8 -1.48 1.1 0.11 0.52 1.77 0.08 1.8 0.07a2 2 0 0 0 0.58 -0.25 2.54 2.54 0 0 0 0.51 -0.37c0.32 -0.29 1.28 -1.29 0.85 -1.65s-0.46 0.06 -1.08 0.46Z" fill="#020202" fill-rule="evenodd" stroke-width="1"></path>
  </g>
</svg>