<svg xmlns="http://www.w3.org/2000/svg" viewBox="0 0 24 24" id="Saving-Safe--Streamline-Freehand">
  <desc>
    Saving Safe Streamline Icon: https://streamlinehq.com
  </desc>
  <g>
    <path d="M8.41 12.71a1.53 1.53 0 0 0 -1.16 0.29 1.29 1.29 0 0 0 -0.46 1.15 1.18 1.18 0 0 0 0.38 0.74 1.35 1.35 0 0 0 1 0.34 1.14 1.14 0 0 0 0.74 -0.15 1.63 1.63 0 0 0 0.5 -0.48 1.35 1.35 0 0 0 -1 -2Zm0 1.74a0.29 0.29 0 0 1 -0.2 0.11 0.6 0.6 0 0 1 -0.32 -0.21 0.27 0.27 0 0 1 0 -0.23c0 -0.09 0.11 -0.11 0.18 -0.15a0.38 0.38 0 0 1 0.2 0.03 0.17 0.17 0 0 1 0.12 0c0 0.06 0.15 0.15 0.09 0.16a0.55 0.55 0 0 1 -0.1 0.29Z" fill="#020202" fill-rule="evenodd" stroke-width="1"></path>
    <path d="M14.66 11.14a1 1 0 0 0 -0.74 0.21 0.81 0.81 0 0 0 -0.29 0.74 0.72 0.72 0 0 0 0.24 0.47 1 1 0 0 0 1.09 0.15 1 1 0 0 0 0.32 -0.31 0.82 0.82 0 0 0 0 -0.77 0.84 0.84 0 0 0 -0.62 -0.49Z" fill="#4C57E6" fill-rule="evenodd" stroke-width="1"></path>
    <path d="M17.67 11a1 1 0 0 0 -0.74 0.21 0.82 0.82 0 0 0 -0.29 0.73 0.76 0.76 0 0 0 0.24 0.47 1 1 0 0 0 1.12 0.19 1 1 0 0 0 0.32 -0.31 0.82 0.82 0 0 0 0 -0.77 0.8 0.8 0 0 0 -0.65 -0.52Z" fill="#4C57E6" fill-rule="evenodd" stroke-width="1"></path>
    <path d="M14.66 13.82a1 1 0 0 0 -0.74 0.21 0.81 0.81 0 0 0 -0.29 0.74 0.72 0.72 0 0 0 0.24 0.47 0.9 0.9 0 0 0 1.41 -0.16 0.82 0.82 0 0 0 0 -0.77 0.84 0.84 0 0 0 -0.62 -0.49Z" fill="#4C57E6" fill-rule="evenodd" stroke-width="1"></path>
    <path d="M17.67 13.7a0.92 0.92 0 0 0 -0.74 0.21 0.81 0.81 0 0 0 -0.29 0.73 0.76 0.76 0 0 0 0.24 0.47 1 1 0 0 0 1.09 0.15 1 1 0 0 0 0.32 -0.31 0.82 0.82 0 0 0 0 -0.77 0.8 0.8 0 0 0 -0.62 -0.48Z" fill="#4C57E6" fill-rule="evenodd" stroke-width="1"></path>
    <path d="M21 10.17c0 -0.31 0.08 -0.66 0.07 -1a1.77 1.77 0 0 0 -0.07 -0.55 0.67 0.67 0 0 0 -0.47 -0.43 6.69 6.69 0 0 0 -0.94 -0.12C19.14 8 18.71 8 18.28 8l-1.93 0c-1.76 0.06 -3.51 0.12 -5.28 0.21 -10.07 0.55 -8.31 -0.55 -8.52 4.43l0 1.56c0 0.56 0 1 0.06 1.56 0.07 1.23 0.21 2.44 0.38 3.65a0.38 0.38 0 0 0 0.4 0.35 0.37 0.37 0 0 0 0.28 -0.2 0.32 0.32 0 0 0 0.3 0.15 24 24 0 0 1 2.67 -0.13c1 0 2.09 0.09 3.13 0.14s2.11 0.07 3.18 0.09 2 0 3 -0.12c1.48 -0.11 3 -0.28 4.42 -0.46a0.33 0.33 0 0 0 0.31 -0.32 0.35 0.35 0 0 0 0.26 -0.33c0 -1.39 -0.06 -2.79 -0.06 -4.19 0 -0.59 0 -1.18 0.05 -1.77Zm-8.07 8.39 -2.25 0 -2.28 0a27.3 27.3 0 0 0 -4.56 0.5 0.29 0.29 0 0 0 -0.13 0.08l0 -3.49 0 -2.48c0 -1.24 -0.17 -2.47 -0.29 -3.7 1.23 0 2.45 -0.07 3.69 -0.09l5.52 0 3.69 -0.06 3.1 0 0.41 0v0.07l0 0.79v2.46l0 1.83c0.06 1.36 0.18 2.72 0.24 4.08 -1.17 0.05 -2.35 0.09 -3.54 0.1s-2.4 -0.04 -3.6 -0.09Z" fill="#4C57E6" fill-rule="evenodd" stroke-width="1"></path>
    <path d="M8 10.73a3.31 3.31 0 0 0 -2.08 0.95 3.61 3.61 0 0 0 -1 1.94 2.53 2.53 0 0 0 0.67 2.3 2.39 2.39 0 0 0 2.23 0.65 0.11 0.11 0 0 0 0.08 0s0 0.07 0 0.11a0.39 0.39 0 0 0 0.39 0.37 4.37 4.37 0 0 0 1.72 -0.35 2.48 2.48 0 0 0 1 -0.79 3 3 0 0 0 -0.01 -3.44 3.55 3.55 0 0 0 -3 -1.74Zm2.18 4.62a1.7 1.7 0 0 1 -0.82 0.64 3.39 3.39 0 0 1 -1.15 0.28 0.43 0.43 0 0 0 -0.17 0 0.24 0.24 0 0 0 0 -0.12 0.33 0.33 0 0 0 -0.38 -0.27 1.67 1.67 0 0 1 -1.5 -0.57 1.63 1.63 0 0 1 -0.27 -1.51 2.63 2.63 0 0 1 0.86 -1.26A2.14 2.14 0 0 1 8 12a2.32 2.32 0 0 1 2 1.1 2 2 0 0 1 0.17 2.25Z" fill="#020202" fill-rule="evenodd" stroke-width="1"></path>
    <path d="M1.08 6.06c0.17 -0.41 0.38 -0.8 0.58 -1.2 0.32 -0.6 0.66 -1.19 1 -1.78a5.87 5.87 0 0 1 0.24 -0.73c0.68 -0.09 3.13 0 6 0l6.11 0c2.09 0 3.85 -0.06 4.69 0a2.8 2.8 0 0 1 0.36 0 1.91 1.91 0 0 1 0.14 0.21c0.16 0.27 0.3 0.58 0.44 0.79l1.45 2.46a0.38 0.38 0 0 0 0.67 -0.35l-1.4 -2.62c-0.13 -0.25 -0.28 -0.64 -0.47 -0.95a1.82 1.82 0 0 0 -0.38 -0.47 4.13 4.13 0 0 0 -1.16 -0.17c-1.49 -0.08 -4.67 -0.19 -7.86 -0.21 -1.19 0 -2.4 0 -3.5 0.05a43.86 43.86 0 0 0 -5.31 0.36 0.58 0.58 0 0 0 -0.37 0.27 7.46 7.46 0 0 0 -0.42 1c-0.29 0.62 -0.6 1.23 -0.88 1.85 -0.2 0.43 -0.38 0.81 -0.54 1.25a0.32 0.32 0 0 0 0.18 0.43 0.33 0.33 0 0 0 0.43 -0.19Zm2 -3.82c0.08 0.06 -0.1 0.1 -0.18 0.11s0.1 -0.15 0.17 -0.11Z" fill="#020202" fill-rule="evenodd" stroke-width="1"></path>
    <path d="M24 14.24c0 -0.77 -0.08 -1.54 -0.15 -2.31 -0.15 -1.81 -0.42 -3.6 -0.67 -5.37 0 -0.08 0.35 -0.28 -3.5 -0.6 -1.46 -0.12 -2.93 -0.17 -4.4 -0.24l-3.7 0c-1.24 0 -2.45 0.09 -3.69 0.19 -9 0.75 -7.73 -0.34 -7.85 6.26l0 3.09c0 0.68 0.06 1.37 0.09 2.05 0.07 1.08 0 2.18 0.06 3.27A10.08 10.08 0 0 0 0.36 22a0.33 0.33 0 0 0 0.21 0.26s0 0 0 0.07a0.33 0.33 0 0 0 0.32 0.34c2.4 0.15 4.77 0.26 7.15 0.28l4.74 0 9.63 -0.27a0.38 0.38 0 0 0 0.37 -0.37 0.37 0.37 0 0 0 -0.37 -0.38c-1.93 -0.07 -3.85 -0.14 -5.79 -0.19l-3.85 -0.05c-1.2 0 -2.38 0 -3.56 0.07 -2.71 0.09 -5.38 0.25 -8.11 0.27l0 -0.11a10.16 10.16 0 0 1 -0.1 -1.38c0 -1.09 0.2 -2.19 0.24 -3.28l0 -4.11C1.19 11.26 1 9.38 1 7.49c1.34 -0.13 2.68 -0.24 4 -0.32C6.71 7.08 8.42 7 10.13 7s3.4 -0.11 5.11 -0.11l4.37 0c1 0 1.93 0.07 2.89 0.18 0.06 1.88 0.08 3.78 0.14 5.7 0 1 0.07 2 0.12 3.06s0.11 2 0.15 3.06 0 2.05 0 3.07a0.38 0.38 0 0 0 0.35 0.39 0.38 0.38 0 0 0 0.4 -0.36c0.15 -1.79 0.26 -3.6 0.28 -5.41 0.06 -0.79 0.06 -1.58 0.06 -2.34Z" fill="#020202" fill-rule="evenodd" stroke-width="1"></path>
  </g>
</svg>