<svg xmlns="http://www.w3.org/2000/svg" viewBox="0 0 24 24" id="Science-Apple-Gravity--Streamline-Freehand">
  <desc>
    Science Apple Gravity Streamline Icon: https://streamlinehq.com
  </desc>
  <g>
    <path d="M17.21 15.62a0.31 0.31 0 0 0 -0.41 0.18c-0.45 0.92 -0.92 1.77 -1.41 2.61 -0.19 0.33 -0.38 0.67 -0.58 1s-0.26 0.44 -0.41 0.65a2.41 2.41 0 0 1 -2.4 1.37 1.78 1.78 0 0 1 -0.5 -0.14c-0.8 -0.36 -1.45 -1.13 -2.32 -1.3a0.85 0.85 0 0 0 -0.73 0.2c-0.25 0.19 -0.42 0.58 -0.69 0.77a3.54 3.54 0 0 1 -1 0.52 2 2 0 0 1 -1.07 0 4.57 4.57 0 0 1 -2 -1.33A8.59 8.59 0 0 1 2.12 18a9.21 9.21 0 0 1 -1 -4.12 6.74 6.74 0 0 1 1.22 -4 4.08 4.08 0 0 1 2.15 -1.54 4 4 0 0 1 2.71 0.12c0.43 0.2 1.09 0.88 1.66 1.15a1.23 1.23 0 0 0 0.67 0.15 0.41 0.41 0 0 0 0.29 -0.22c0.1 -0.15 0.29 -0.55 0.3 -0.57a7.6 7.6 0 0 1 0.7 -0.82 4 4 0 0 1 0.84 -0.66 0.28 0.28 0 0 0 0.11 -0.38 0.29 0.29 0 0 0 -0.38 -0.11 4.45 4.45 0 0 0 -1 0.71 7.23 7.23 0 0 0 -0.8 0.88l-0.28 0.49a1.41 1.41 0 0 1 -0.31 -0.2C8.46 8.53 7.91 8 7.52 7.77a4.52 4.52 0 0 0 -2.45 -0.43 4.59 4.59 0 0 1 -0.58 -1.2 6.06 6.06 0 0 1 -0.2 -1.76l0 -0.62a1.47 1.47 0 0 1 0 -0.21A5.1 5.1 0 0 1 6.07 4a5.59 5.59 0 0 1 1.59 1A14.54 14.54 0 0 1 8.8 6.42c0.11 0.13 0.22 0.26 0.34 0.38a0.32 0.32 0 0 0 0.47 -0.44 14.32 14.32 0 0 1 -1 -1.56c-0.1 -0.14 -0.21 -0.28 -0.32 -0.41a6.08 6.08 0 0 0 -1.78 -1.31 5.5 5.5 0 0 0 -2.16 -0.61 1 1 0 0 0 -0.92 0.43 1.38 1.38 0 0 0 -0.19 0.76c0 0.25 0 0.53 0.07 0.75a6.71 6.71 0 0 0 0.46 2 5.06 5.06 0 0 0 0.6 1.06l-0.12 0a5 5 0 0 0 -2.76 1.85A7.7 7.7 0 0 0 0 13.86a10.23 10.23 0 0 0 1.18 4.59 9 9 0 0 0 2.07 2.77 5.06 5.06 0 0 0 2.11 1.12 2.76 2.76 0 0 0 1.54 0 4.23 4.23 0 0 0 1.29 -0.68 5.34 5.34 0 0 0 0.64 -0.77c0.05 -0.05 0.09 -0.11 0.17 -0.1 0.81 0.13 1.42 0.85 2.17 1.17a2.35 2.35 0 0 0 0.74 0.17c1.82 0.11 2.37 -0.32 3.51 -1.74a8.43 8.43 0 0 0 0.63 -0.93c0.18 -0.32 0.34 -0.65 0.49 -1a23.51 23.51 0 0 0 0.85 -2.46 0.31 0.31 0 0 0 -0.18 -0.38ZM4.32 3.5s-0.02 -0.01 0 0Z" fill="#020202" fill-rule="evenodd" stroke-width="1"></path>
    <path d="m17.47 9 -0.71 1a4.81 4.81 0 0 1 -0.51 0.58c0.06 -0.95 0.09 -1.92 0.06 -2.9 0 -0.42 0 -0.83 -0.08 -1.24s-0.09 -0.82 -0.16 -1.23c-0.15 -1 -0.36 -1.89 -0.52 -2.82a0.29 0.29 0 1 0 -0.57 0.05c0 1.08 0 2.18 0.1 3.29 0.05 0.65 0.13 1.3 0.21 2 0.1 0.89 0.23 1.77 0.29 2.65l-0.69 -0.74c-0.43 -0.44 -0.87 -0.84 -1.32 -1.22a0.28 0.28 0 0 0 -0.39 0 0.28 0.28 0 0 0 0 0.4l1.7 2.37a6.77 6.77 0 0 0 0.62 0.71 0.64 0.64 0 0 0 0.6 0.12 2.07 2.07 0 0 0 0.73 -0.53 5.1 5.1 0 0 0 0.62 -0.94L18 9.28a0.33 0.33 0 0 0 -0.13 -0.44 0.32 0.32 0 0 0 -0.4 0.16Z" fill="#4C57E6" fill-rule="evenodd" stroke-width="1"></path>
    <path d="M23.84 8.23a0.31 0.31 0 0 0 -0.43 0.12c-0.23 0.34 -0.46 0.67 -0.7 1s-0.42 0.55 -0.63 0.81l0 -2.7C22 6.75 22 6 22 5.33a26 26 0 0 0 -0.6 -3.53 0.28 0.28 0 0 0 -0.56 0.09c0.09 1.05 0.07 2.1 0.1 3.15 0 0.71 0.05 1.41 0.11 2.12 0.09 1.15 0.25 2.29 0.44 3.43 -0.27 -0.29 -0.58 -0.76 -0.64 -0.83l-0.88 -1.11a0.28 0.28 0 0 0 -0.39 -0.1 0.29 0.29 0 0 0 -0.09 0.39l0.68 1.33a8.35 8.35 0 0 0 0.91 1.2 1 1 0 0 0 0.73 0.31 1.12 1.12 0 0 0 0.52 -0.24 3.19 3.19 0 0 0 0.53 -0.64c0.17 -0.29 0.34 -0.59 0.5 -0.89s0.45 -0.9 0.65 -1.35a0.31 0.31 0 0 0 -0.17 -0.43Z" fill="#4C57E6" fill-rule="evenodd" stroke-width="1"></path>
  </g>
</svg>