<svg xmlns="http://www.w3.org/2000/svg" viewBox="0 0 24 24" id="Scooter-Problem-Warning-Sign--Streamline-Freehand">
  <desc>
    Scooter Problem Warning Sign Streamline Icon: https://streamlinehq.com
  </desc>
  <g>
    <path d="M23.89 16.56a4.84 4.84 0 0 0 -3.22 -1.4 1.81 1.81 0 0 0 -0.23 0c-0.42 -1.41 -0.77 -2.83 -1.12 -4.24 -0.25 -1 -0.49 -2.06 -0.75 -3.09 -0.41 -1.54 -0.85 -3.07 -1.27 -4.61h0.47c1.12 0 2.22 -0.15 3.34 -0.29a0.32 0.32 0 0 0 0.3 -0.34 0.33 0.33 0 0 0 -0.35 -0.31c-1 0 -2 -0.08 -3 -0.12l-2 0a31 31 0 0 0 -3.33 0.33 0.29 0.29 0 0 0 -0.27 0.31 0.3 0.3 0 0 0 0.3 0.27c1 0 2 0.12 3 0.16h0.88c0.23 1.41 0.44 2.81 0.72 4.21 0.13 0.66 0.28 1.31 0.44 2s0.35 1.29 0.54 1.93c0.4 1.32 0.87 2.62 1.38 3.92a4 4 0 0 0 -1.47 0.72c-1.58 0 -3.17 -0.05 -4.75 0 -0.69 0 -1.39 0 -2.08 0.05s-1.4 0.07 -2.09 0.12c-1.53 0.13 -3 0.3 -4.57 0.46A5.82 5.82 0 0 0 2.08 16a0.28 0.28 0 0 0 -0.3 0.27 0.3 0.3 0 0 0 0.28 0.3 5.39 5.39 0 0 1 2 0.49 3.16 3.16 0 0 1 1.44 1.29 9.53 9.53 0 0 1 0.25 1.14 1.07 1.07 0 0 0 0.25 0.47 0.67 0.67 0 0 0 0.38 0.16A3.52 3.52 0 0 0 7 20l2 -0.08 4.71 -0.22 2.21 -0.1 0.67 0a1.05 1.05 0 0 0 0.34 -0.09 0.78 0.78 0 0 0 0.29 -0.29c0.09 -0.15 0.2 -0.41 0.24 -0.49 0.16 -0.3 0.3 -0.61 0.46 -0.92a4.59 4.59 0 0 1 0.33 -0.52A3.24 3.24 0 0 1 20.68 16a4.13 4.13 0 0 1 2.78 1.1 0.33 0.33 0 0 0 0.43 -0.49Zm-6.89 0.82c-0.18 0.31 -0.34 0.62 -0.51 0.92 0 0.06 -0.22 0.25 -0.24 0.37 -0.15 0 -0.35 -0.1 -0.43 -0.1l-2.24 0.07 -4.71 0.28 -2 0.18 -0.35 0 0 -0.08c-0.07 -0.23 -0.13 -0.52 -0.19 -0.74a2.2 2.2 0 0 0 -0.16 -0.39 3.47 3.47 0 0 0 -0.58 -0.68l3.8 0c0.7 0 1.39 0 2.08 -0.07s1.4 -0.14 2.09 -0.14l4 -0.29 -0.05 0.06a4.37 4.37 0 0 0 -0.51 0.61Z" fill="#020202" fill-rule="evenodd" stroke-width="1"></path>
    <path d="M3.74 18.13a2.62 2.62 0 0 0 -0.61 -0.35 0.26 0.26 0 0 0 -0.2 -0.18 2.23 2.23 0 0 0 -0.72 -0.13 1.94 1.94 0 0 0 -0.53 0.05A2.23 2.23 0 0 0 0 19.67 2.33 2.33 0 0 0 1.64 22 2.27 2.27 0 0 0 4 21.3a2.22 2.22 0 0 0 0.39 -2.3 1.93 1.93 0 0 0 -0.65 -0.87Zm-0.48 2.49a1.25 1.25 0 0 1 -1.3 0.32 1.35 1.35 0 0 1 -1 -1.28 1.44 1.44 0 0 1 0.9 -1.48 1.63 1.63 0 0 1 0.43 -0.08h0.15a0.32 0.32 0 0 0 0.2 0.19 2.2 2.2 0 0 1 0.62 0.38 1.2 1.2 0 0 1 0.34 0.56 1.35 1.35 0 0 1 -0.34 1.39Z" fill="#4C57E6" fill-rule="evenodd" stroke-width="1"></path>
    <path d="M22 17.68a2.55 2.55 0 0 0 -0.54 -0.15 0.31 0.31 0 0 0 -0.22 -0.15 2.76 2.76 0 0 0 -1.18 0.05 2.33 2.33 0 0 0 -1.06 0.64 2.49 2.49 0 0 0 -0.46 2.47 2.33 2.33 0 0 0 2.05 1.6A2.55 2.55 0 0 0 23 20.86a2.26 2.26 0 0 0 -0.14 -2.61 2 2 0 0 0 -0.86 -0.57Zm0.07 2.65a1.52 1.52 0 0 1 -1.41 0.72 1.33 1.33 0 0 1 -1.16 -0.87 1.63 1.63 0 0 1 0.11 -1.6 1.43 1.43 0 0 1 0.66 -0.51l0.2 -0.06a0.34 0.34 0 0 0 0.2 0.09 3.14 3.14 0 0 1 0.87 0.19 1.3 1.3 0 0 1 0.6 0.46 1.37 1.37 0 0 1 -0.05 1.58Z" fill="#4C57E6" fill-rule="evenodd" stroke-width="1"></path>
    <path d="M5.64 7.45c0.23 0 0.31 -0.12 0.38 -1.32a2.83 2.83 0 0 0 0 -0.65c0 -0.12 -0.22 -1.38 -0.58 -1.36 -0.12 0 -0.31 0 -0.48 1.25a3 3 0 0 0 0 0.42l0 0.41c0.25 1.15 0.44 1.29 0.68 1.25Z" fill="#4C57E6" fill-rule="evenodd" stroke-width="1"></path>
    <path d="M5.34 9.89a0.73 0.73 0 0 0 0.78 -0.1 0.94 0.94 0 0 0 0.25 -1c-0.13 -0.25 -0.28 -0.47 -0.55 -0.45h-0.14a0.3 0.3 0 0 0 -0.37 0.05 1.39 1.39 0 0 0 -0.31 0.34 0.77 0.77 0 0 0 -0.13 0.41 0.8 0.8 0 0 0 0.47 0.75Z" fill="#4C57E6" fill-rule="evenodd" stroke-width="1"></path>
    <path d="M1.77 11.63a4.43 4.43 0 0 0 1.54 0.25c0.68 0 1.36 0 2.05 -0.07 1 -0.08 2 -0.2 3 -0.28a5.72 5.72 0 0 0 1.64 -0.31 2.07 2.07 0 0 0 1 -0.86 1.78 1.78 0 0 0 0.19 -1.24 9.41 9.41 0 0 0 -0.94 -2 15.92 15.92 0 0 0 -1.43 -2.46 11.68 11.68 0 0 0 -2 -2.06A4.63 4.63 0 0 0 6 2a2 2 0 0 0 -0.74 -0.19 1.38 1.38 0 0 0 -1 0.45 14.35 14.35 0 0 0 -1.71 2.98c-0.41 0.76 -0.81 1.59 -1.22 2.48a7 7 0 0 0 -0.62 1.69 2.4 2.4 0 0 0 0.13 1.38 1.71 1.71 0 0 0 0.93 0.84ZM1.6 9.55a6.59 6.59 0 0 1 0.47 -1.5c0.37 -0.9 0.72 -1.71 1.1 -2.51a12.73 12.73 0 0 1 1.59 -2.75 0.7 0.7 0 0 1 0.5 -0.22 1.14 1.14 0 0 1 0.43 0.14 3.77 3.77 0 0 1 0.66 0.49 10.64 10.64 0 0 1 1.75 2 13.74 13.74 0 0 1 1.31 2.29 14.69 14.69 0 0 1 0.74 1.58 0.93 0.93 0 0 1 0 0.75 1 1 0 0 1 -0.52 0.39 4.85 4.85 0 0 1 -1.33 0.24c-1.16 0.09 -2.33 0.23 -3.5 0.32 -0.49 0 -1 0.06 -1.48 0.07a3.92 3.92 0 0 1 -1 -0.08 0.84 0.84 0 0 1 -0.6 -0.38 1.37 1.37 0 0 1 -0.12 -0.83Z" fill="#020202" fill-rule="evenodd" stroke-width="1"></path>
  </g>
</svg>