<svg xmlns="http://www.w3.org/2000/svg" viewBox="0 0 24 24" id="Screen-Curved--Streamline-Freehand">
  <desc>
    Screen Curved Streamline Icon: https://streamlinehq.com
  </desc>
  <g>
    <path d="M23.55 3.93a1.14 1.14 0 0 0 -0.55 -0.86C16.3 0.85 7.54 0.29 1.62 3.35a0.34 0.34 0 0 0 0.31 0.65c5.78 -2.87 14.2 -2.15 20.51 0 0 0.08 0.49 0.56 0.41 7.7 0 1.71 -0.08 3.3 -0.19 4.3a3.29 3.29 0 0 1 -0.13 0.52c-1 -0.19 -3.77 -1.08 -6.38 -1.57 -3.11 -0.58 -5.61 -0.64 -10.42 0.65 -1.89 0.51 -3.34 1.05 -4.25 1.34a3.78 3.78 0 0 1 -0.61 0.1L0.7 4.71a0.31 0.31 0 0 0 -0.62 0v10.64c0 0.54 -0.24 1.93 0.12 2.38 0.65 0.82 2.9 -0.87 8.58 -1.78C8.78 16 9 19 9 19c0 1 0.59 1 1.66 0.9l2.21 0a2.71 2.71 0 0 0 1.13 -0.31c0.24 -0.16 0.32 -0.21 0.38 -1.05s0.12 -2.24 0.13 -2.74c4.83 0.68 8.1 2.36 8.85 1.72 0.96 -0.82 0.64 -11.45 0.19 -13.59ZM13.4 18.69c-0.28 0.11 0.42 0.07 -2.85 0.11l-0.57 0.05c-0.36 -1.69 -0.52 -2.54 -0.61 -3a15 15 0 0 1 4.45 -0.15Z" fill="#020202" fill-rule="evenodd" stroke-width="1"></path>
    <path d="M16.85 19.41c-0.07 -0.14 -0.58 -1.14 -0.67 -1.26 -0.32 -0.4 -0.76 -0.23 -0.76 0.11a3.8 3.8 0 0 0 0.47 0.9 6.55 6.55 0 0 1 0.76 2.31c-11.19 0.22 -9.25 0.41 -10 0.08l0 -0.22c0.7 -1.86 0.46 -1.26 1 -2.66 0.2 -0.35 -0.34 -0.65 -0.52 -0.3 -0.75 1.4 -0.43 0.81 -1.31 2.7 -0.12 0.33 -0.31 0.55 -0.17 0.91s0.62 0.5 0.88 0.6c1.17 0.46 9.78 0 10.29 -0.18 0.75 -0.22 0.86 -0.93 0.56 -1.59 -0.14 -0.45 -0.32 -0.94 -0.53 -1.4Z" fill="#020202" fill-rule="evenodd" stroke-width="1"></path>
    <path d="M20.92 6.82c-0.21 -2 -1.52 -2.66 -3.5 -2.64a0.3 0.3 0 0 0 -0.06 0.6C19 5.1 19.6 5.84 19.84 7c0.4 2 0.09 2.64 0.64 2.64a0.34 0.34 0 0 0 0.34 -0.34 14.41 14.41 0 0 0 0.1 -2.48Z" fill="#4C57E6" fill-rule="evenodd" stroke-width="1"></path>
    <path d="M20.4 11.7c-0.23 0 -0.67 0.78 -0.59 1.33a1.6 1.6 0 0 0 0.29 0.75c0.15 0.17 0.25 0.28 0.38 0.24 0.33 0 0.36 -0.35 0.45 -1a1.27 1.27 0 0 0 0 -0.39c-0.02 -0.13 -0.25 -0.93 -0.53 -0.93Z" fill="#4C57E6" fill-rule="evenodd" stroke-width="1"></path>
  </g>
</svg>