<svg xmlns="http://www.w3.org/2000/svg" viewBox="0 0 24 24" id="Sea-Transport-Ship--Streamline-Freehand">
  <desc>
    Sea Transport Ship Streamline Icon: https://streamlinehq.com
  </desc>
  <g>
    <path d="M23.87 18a0.33 0.33 0 0 0 -0.46 0.07A4.66 4.66 0 0 1 22 19.65a1.64 1.64 0 0 1 -1.23 0.05 1.27 1.27 0 0 1 -0.32 -0.13 1.61 1.61 0 0 1 -0.31 -0.19 2 2 0 0 1 -0.36 -0.34c-0.19 -0.22 -0.35 -0.47 -0.52 -0.7a1.86 1.86 0 0 0 -0.37 -0.41 0.49 0.49 0 0 0 -0.3 -0.07 0.47 0.47 0 0 0 -0.39 0.2 1 1 0 0 0 -0.12 0.4l-0.33 0.52a1.85 1.85 0 0 1 -0.64 0.57 2.59 2.59 0 0 1 -0.88 0.25 3.18 3.18 0 0 1 -1.07 -0.05 2.29 2.29 0 0 1 -0.91 -0.42l-0.85 -0.74a1.54 1.54 0 0 0 -0.34 -0.22 0.6 0.6 0 0 0 -0.41 0 1 1 0 0 0 -0.4 0.24c-0.18 0.18 -0.4 0.5 -0.52 0.61a4.1 4.1 0 0 1 -1 0.73 2.53 2.53 0 0 1 -1.16 0.22A4.19 4.19 0 0 1 8.55 20a2.73 2.73 0 0 1 -0.82 -0.36L6.84 19a1.45 1.45 0 0 0 -0.29 -0.15 0.5 0.5 0 0 0 -0.41 0 1 1 0 0 0 -0.29 0.28c-0.13 0.2 -0.22 0.53 -0.34 0.66a3.11 3.11 0 0 1 -0.65 0.6 3.16 3.16 0 0 1 -0.78 0.39 2.46 2.46 0 0 1 -2 -0.21 4.78 4.78 0 0 1 -1.55 -1.42 0.29 0.29 0 0 0 -0.48 0.32 5.11 5.11 0 0 0 2.18 2 3.17 3.17 0 0 0 2.06 0.16 4.13 4.13 0 0 0 1 -0.45 4.4 4.4 0 0 0 0.86 -0.71 1.67 1.67 0 0 0 0.39 -0.47l0.6 0.49a3.71 3.71 0 0 0 1.13 0.51 5.6 5.6 0 0 0 1.18 0.2 3.55 3.55 0 0 0 1.66 -0.3 5.15 5.15 0 0 0 1.33 -0.9c0.08 -0.07 0.31 -0.22 0.46 -0.37l0.65 0.57a3.42 3.42 0 0 0 1.35 0.6 4.28 4.28 0 0 0 1.43 0 3.44 3.44 0 0 0 1.22 -0.4 2.76 2.76 0 0 0 0.95 -0.91l0.21 -0.38c0.13 0.16 0.25 0.33 0.39 0.48a2.66 2.66 0 0 0 0.53 0.46 2.86 2.86 0 0 0 0.42 0.24 2.48 2.48 0 0 0 0.48 0.17 2.4 2.4 0 0 0 1.76 -0.17 5.29 5.29 0 0 0 1.64 -1.81 0.33 0.33 0 0 0 -0.06 -0.48Z" fill="#4C57E6" fill-rule="evenodd" stroke-width="1"></path>
    <path d="M2.41 15.6a8.39 8.39 0 0 0 0.78 1c0.24 0.26 0.48 0.53 0.74 0.78a3.82 3.82 0 0 0 0.6 0.46 0.33 0.33 0 0 0 0.38 -0.54 3 3 0 0 1 -0.42 -0.45c-0.2 -0.26 -0.38 -0.55 -0.55 -0.82s-0.4 -0.65 -0.58 -1l0.13 0c0.33 0 0.67 0 1 0.06l3.14 0.24c1.32 0.06 2.64 0.16 4 0.21s2.66 0 4 0 2.46 -0.17 3.69 -0.18l1.12 0 -0.39 0.81c-0.1 0.24 -0.2 0.48 -0.28 0.73a0.31 0.31 0 0 0 0.15 0.39 0.29 0.29 0 0 0 0.38 -0.15c0.34 -0.57 0.8 -1 1.18 -1.57a4.34 4.34 0 0 0 0.28 -0.46 5.87 5.87 0 0 0 0.44 -1.3 7.36 7.36 0 0 0 0.05 -2 0.32 0.32 0 0 0 -0.32 -0.33s0 0 0 -0.06a0.32 0.32 0 0 0 -0.27 -0.37q-0.33 0 -0.66 -0.06c-0.49 0 -1 0 -1.46 -0.05s-1 0 -1.55 0a0.31 0.31 0 0 0 0.18 -0.27c0.07 -0.38 0.16 -0.76 0.22 -1.16a3.86 3.86 0 0 0 0.06 -0.49l0 -0.49c0 -0.4 -0.09 -0.77 -0.1 -1.16a0.28 0.28 0 0 0 -0.16 -0.29 0.35 0.35 0 0 0 0.1 -0.18 0.33 0.33 0 0 0 -0.29 -0.32 26.43 26.43 0 0 0 -3 -0.3l-0.8 0 0 -0.79c0 -0.46 0.09 -0.93 0.14 -1.4 0 -0.08 0 -0.31 -0.06 -0.51h0.05l1 0 1.34 -0.12 0.22 0c0.08 0 0 0.23 0 0.29a13.82 13.82 0 0 1 0.14 1.47 7.61 7.61 0 0 1 0 1 0.32 0.32 0 0 0 0.26 0.38 0.33 0.33 0 0 0 0.38 -0.27 6.15 6.15 0 0 0 0.14 -1.06l0 -1.56a3.22 3.22 0 0 0 -0.12 -0.75 1 1 0 0 0 -0.29 -0.42 0.61 0.61 0 0 0 -0.28 -0.12 3 3 0 0 0 -0.54 0l-2.33 0.13a2.81 2.81 0 0 0 -0.47 0 0.62 0.62 0 0 0 -0.35 0.22 0.82 0.82 0 0 0 -0.15 0.47c0 0.27 0.07 0.68 0.07 0.85q0 0.72 0.06 1.44c0 0.26 0 0.51 0.07 0.77l-1.66 0 -0.19 -2.45a3.89 3.89 0 0 0 -0.02 -0.85 0.79 0.79 0 0 0 -0.28 -0.4 0.67 0.67 0 0 0 -0.33 -0.1 1.63 1.63 0 0 0 -0.35 0l-0.95 0.13c-0.37 0.08 -0.81 0.1 -1.2 0.2a2.55 2.55 0 0 0 -0.62 0.23 0.61 0.61 0 0 0 -0.3 0.46 8.49 8.49 0 0 0 0 0.92l0 2a2.56 2.56 0 0 0 -0.58 0.39 1.75 1.75 0 0 0 -0.36 0.43c-0.16 0.27 -0.29 0.62 -0.41 0.84 -0.36 0.62 -0.72 1.28 -1 2a12.29 12.29 0 0 0 -0.5 1.35l-2.24 0a5.88 5.88 0 0 0 -0.71 0.07 0.29 0.29 0 0 0 -0.25 0.32s0 0.05 0 0.08a6.53 6.53 0 0 0 0.36 2.54 5.64 5.64 0 0 0 0.52 1.14ZM8.48 4l0.27 -0.06c0.4 -0.08 0.84 -0.1 1.21 -0.18l0.81 -0.14 0 0.3 0.44 2.25h-0.58a10.73 10.73 0 0 0 -2.15 0.08l-0.2 0 0.2 -1.72a5.52 5.52 0 0 1 0 -0.53ZM7 8.57c0.13 -0.18 0.27 -0.45 0.42 -0.69a1.07 1.07 0 0 1 0.21 -0.25 2.5 2.5 0 0 1 1 -0.32 13.36 13.36 0 0 1 2 0c1.09 0 2.19 0 3.29 -0.09l1.77 0c0.58 0 1.4 0 2.08 0.1l0 0.09a8 8 0 0 0 -0.39 1.17 3.85 3.85 0 0 0 -0.05 1c0 0.41 0.11 0.8 0.16 1.19a0.32 0.32 0 0 0 0.2 0.28h-0.25a4.94 4.94 0 0 0 -1.45 0.32 1.52 1.52 0 0 0 -0.54 0.4 9.07 9.07 0 0 0 -0.54 0.83c-0.08 0.12 -0.15 0.25 -0.29 0.24l-4 -0.12 -1.05 0a2.09 2.09 0 0 1 -0.56 -0.06c-0.21 0 -0.29 -0.24 -0.38 -0.41a3.57 3.57 0 0 0 -0.45 -0.67 1.44 1.44 0 0 0 -0.53 -0.35 1.21 1.21 0 0 0 -0.34 0l-0.48 0 -1.53 0.18a9.85 9.85 0 0 1 0.48 -1c0.4 -0.66 0.81 -1.27 1.22 -1.84Zm-4.5 3.48c0.91 0 1.83 0.17 2.76 0.12l1.68 -0.08h0.44c0.22 0.1 0.28 0.32 0.38 0.52a2.38 2.38 0 0 0 0.44 0.7 1.41 1.41 0 0 0 0.58 0.35 3.47 3.47 0 0 0 0.63 0.11l1.26 0 4 0.07a1.15 1.15 0 0 0 0.74 -0.26 2.29 2.29 0 0 0 0.55 -0.76c0.13 -0.24 0.22 -0.53 0.46 -0.64a3.68 3.68 0 0 1 1.16 -0.31 14.55 14.55 0 0 1 2 -0.07l1.47 0 0.59 0s-0.05 0.07 -0.05 0.11a7.31 7.31 0 0 1 -0.21 1.2 6.75 6.75 0 0 1 -0.28 0.83 6.36 6.36 0 0 1 -0.33 0.79l0 0.08c-0.46 -0.06 -0.92 -0.11 -1.39 -0.13 -1.24 -0.06 -2.49 0 -3.71 -0.05 -0.92 0 -1.84 -0.07 -2.77 -0.1s-1.9 -0.09 -2.9 -0.1 -1.59 0 -2.39 0H4.5l-1 0a3 3 0 0 1 -0.52 0c-0.14 -0.26 -0.28 -0.51 -0.4 -0.78a7.5 7.5 0 0 1 -0.51 -1.56Z" fill="#020202" fill-rule="evenodd" stroke-width="1"></path>
    <path d="M8.72 11a1.44 1.44 0 0 0 1.37 0.1 1.59 1.59 0 0 0 0.77 -1.48c-0.06 -0.63 -0.4 -1.2 -1.09 -1.15a0.38 0.38 0 0 0 -0.22 0.07 0.38 0.38 0 0 0 0 -0.17 0.3 0.3 0 0 0 -0.4 -0.1 1.87 1.87 0 0 0 -0.71 0.6 1.63 1.63 0 0 0 -0.32 1 1.42 1.42 0 0 0 0.6 1.13Zm0.33 -1.75a1.15 1.15 0 0 1 0.36 -0.48 0.33 0.33 0 0 0 0.32 0.34c0.23 0 0.25 0.27 0.23 0.48a0.59 0.59 0 0 1 -0.32 0.49 0.41 0.41 0 0 1 -0.36 0A0.48 0.48 0 0 1 9 9.73a0.78 0.78 0 0 1 0.05 -0.5Z" fill="#020202" fill-rule="evenodd" stroke-width="1"></path>
    <path d="M13.86 11.4a2 2 0 0 0 1.36 -0.74 1.13 1.13 0 0 0 -0.34 -1.84 2.48 2.48 0 0 0 -1 -0.23 0.37 0.37 0 0 0 -0.21 0.06h-0.16a1.32 1.32 0 0 0 -1.06 1.44 1.42 1.42 0 0 0 1.41 1.31Zm-0.22 -2.19a0.34 0.34 0 0 0 0.14 0.05 1.83 1.83 0 0 1 0.59 0.21 0.4 0.4 0 0 1 0.23 0.28s0 0.07 -0.06 0.11a1.26 1.26 0 0 1 -0.32 0.28 0.91 0.91 0 0 1 -0.4 0.17 0.49 0.49 0 0 1 -0.57 -0.51 0.59 0.59 0 0 1 0.39 -0.59Z" fill="#020202" fill-rule="evenodd" stroke-width="1"></path>
  </g>
</svg>