<svg xmlns="http://www.w3.org/2000/svg" viewBox="0 0 24 24" id="Sea-Transport-Ship-Cargo--Streamline-Freehand">
  <desc>
    Sea Transport Ship Cargo Streamline Icon: https://streamlinehq.com
  </desc>
  <g>
    <path d="M23.84 20.08a0.34 0.34 0 0 0 -0.47 0.1 3.57 3.57 0 0 1 -2.29 1.41 3.91 3.91 0 0 1 -2.65 -0.44 2.13 2.13 0 0 1 -0.46 -0.37c-0.4 -0.4 -0.64 -0.88 -1.06 -1.3a0.49 0.49 0 0 0 -0.47 -0.14c-0.12 0 -0.46 0.5 -0.46 0.5l0 -0.08 -0.11 0.17a1.82 1.82 0 0 1 -0.27 0.29l-0.34 0.25a6.64 6.64 0 0 1 -1.4 0.73 5.48 5.48 0 0 1 -1.5 0.33 5.33 5.33 0 0 1 -1.79 -0.2 6.18 6.18 0 0 1 -1.68 -0.72l-1.15 -0.79s-0.31 -0.2 -0.43 -0.25a0.55 0.55 0 0 0 -0.45 0 0.65 0.65 0 0 0 -0.3 0.23c-0.07 0.11 -0.15 0.3 -0.19 0.35a5 5 0 0 1 -0.39 0.41 3 3 0 0 1 -0.44 0.34l-0.83 0.45a2.56 2.56 0 0 1 -1.65 0.13A10.52 10.52 0 0 1 0.69 20a0.31 0.31 0 0 0 -0.42 0.09 0.3 0.3 0 0 0 0.1 0.42 11.26 11.26 0 0 0 2.49 1.66 3.34 3.34 0 0 0 2.16 0l1 -0.48a4.89 4.89 0 0 0 0.58 -0.39 4.72 4.72 0 0 0 0.51 -0.48l0.06 -0.08 1.13 0.86a7.28 7.28 0 0 0 2 0.88 6.3 6.3 0 0 0 2.17 0.24 5.81 5.81 0 0 0 1.84 -0.41 7.87 7.87 0 0 0 1.62 -0.88 4.09 4.09 0 0 0 0.44 -0.37 2.44 2.44 0 0 0 0.27 -0.29 7.8 7.8 0 0 0 0.66 0.76 2.83 2.83 0 0 0 0.7 0.47 4.68 4.68 0 0 0 3.26 0.4A4.34 4.34 0 0 0 24 20.55a0.34 0.34 0 0 0 -0.16 -0.47Z" fill="#4C57E6" stroke-width="1"></path>
    <path d="M1.13 17.1a14.47 14.47 0 0 0 1.14 1.75 4.12 4.12 0 0 0 0.68 0.82 2.21 2.21 0 0 0 0.63 0.41 0.3 0.3 0 0 0 0.4 -0.15 0.3 0.3 0 0 0 -0.15 -0.4 1.77 1.77 0 0 1 -0.56 -0.43 4.66 4.66 0 0 1 -0.46 -0.63l-0.3 -0.47c1.3 0 3.78 0.08 6.55 0.12l2.86 0 2.86 0c3.36 -0.08 6.17 -0.18 6.68 -0.19a0.35 0.35 0 0 0 0.34 -0.35 0.34 0.34 0 0 0 -0.34 -0.34c-0.51 0 -3.32 -0.14 -6.68 -0.21l-2.87 0c-0.97 0 -1.91 -0.03 -2.86 -0.03 -2.87 0.09 -5.43 0.26 -6.69 0.38a0.26 0.26 0 0 0 -0.17 0.07c-0.14 -0.24 -0.28 -0.48 -0.4 -0.72a10.81 10.81 0 0 1 -0.7 -1.84 6 6 0 0 1 -0.19 -0.8 0.71 0.71 0 0 1 0 -0.21h0.76c0.7 -0.05 1.43 0 2.15 -0.05a7.89 7.89 0 0 0 1 -0.11 6.65 6.65 0 0 1 0.77 -0.21c0.1 0 0.16 0 0.14 0.08s0 0 -0.06 0a14.38 14.38 0 0 0 1.45 1.31 7.37 7.37 0 0 0 1.21 0.79 1 1 0 0 0 0.42 0.1 5.27 5.27 0 0 0 0.8 -0.1h1.29l6.28 -0.16 3.89 -0.12a5.7 5.7 0 0 1 1.09 0 0.73 0.73 0 0 1 0.46 0.23 1.07 1.07 0 0 1 0.26 0.84 4.3 4.3 0 0 1 -0.52 1.61c-0.08 0.15 -0.33 0.48 -0.46 0.7a1 1 0 0 0 -0.13 0.37 0.35 0.35 0 0 0 0.34 0.35 0.34 0.34 0 0 0 0.34 -0.3c0.2 0.1 0.42 -0.61 0.52 -0.77a5.13 5.13 0 0 0 0.67 -1.91 1.8 1.8 0 0 0 -0.45 -1.48 1.62 1.62 0 0 0 -0.89 -0.49 3.37 3.37 0 0 0 -0.79 0s0 0 0 -0.08c0.08 -0.64 0.2 -1.27 0.22 -1.93a4.83 4.83 0 0 0 0 -0.76c0 -0.17 -0.06 -0.34 -0.08 -0.51a3.24 3.24 0 0 0 -0.09 -0.76l2 -0.13a0.34 0.34 0 0 0 0 -0.68C22 9.59 20.5 9.47 19 9.48c-1 0 -1.95 0.08 -2.93 0.15l-2.18 0.22 -0.85 0.12V9.8a14.22 14.22 0 0 0 -0.22 -1.69 5.25 5.25 0 0 0 -0.17 -0.87 1.06 1.06 0 0 0 -0.46 -0.55l-0.56 -0.26c0.1 0 0.18 -0.18 0.21 -0.42s0 -1 0.05 -1.2l0 -1.83a3.14 3.14 0 0 0 -0.12 -1 1 1 0 0 0 -0.85 -0.6L9.68 1.3l-0.8 0.07a4.65 4.65 0 0 0 -1 0.09 1.14 1.14 0 0 0 -0.6 0.31 1.52 1.52 0 0 0 -0.35 0.93c0 0.52 0.07 1.18 0 1.52A9.13 9.13 0 0 0 7 5.53c0 0.18 0 0.36 0.07 0.52 -0.37 0 -0.74 0.06 -1.1 0.11a7.61 7.61 0 0 0 -1.31 0.25 0.93 0.93 0 0 0 -0.56 0.42 1.55 1.55 0 0 0 -0.12 0.46 7.39 7.39 0 0 0 0 0.8l0 1.11 0 1.64 0.02 1.55a3.23 3.23 0 0 0 0.07 0.38l-0.25 0c-0.72 0.06 -1.47 0.06 -2.17 0.14l-0.7 0a1.3 1.3 0 0 0 -0.47 0.12 0.87 0.87 0 0 0 -0.43 0.83 4.93 4.93 0 0 0 0.29 1.24 11.46 11.46 0 0 0 0.79 2Zm12 -6.49h0.76l2.25 0.09c1 0 1.92 0 2.88 -0.08 0.53 0 1.06 0 1.58 -0.09 0 0.26 -0.06 0.6 -0.08 0.72s-0.06 0.34 -0.08 0.52 0 0.43 0 0.65h-0.08c0 -0.1 -0.33 -0.09 -0.36 -0.1l-1.15 -0.1c-0.4 0 -0.79 -0.09 -1.19 -0.13s-0.78 -0.09 -1.19 -0.09l-1.06 0c-0.36 0 -0.84 -0.05 -1.28 0a1.88 1.88 0 0 0 -0.65 0.12 0.31 0.31 0 0 0 -0.19 0.38 0.3 0.3 0 0 0 0.38 0.19 1.25 1.25 0 0 1 0.43 0c0.43 0.07 0.89 0.24 1.24 0.31l0.69 0.12c0.35 0.05 0.7 0.08 1.06 0.1a15.31 15.31 0 0 0 1.79 0l1 -0.09a4 4 0 0 0 0.56 0l0.08 0c0.06 0.45 0.13 0.9 0.19 1.35l0 0.08h-7.79A3.28 3.28 0 0 0 13 14l0 -0.82 0.11 -1.72 0 -0.88Zm-1.38 -4.73Zm0 0ZM8 3a1.1 1.1 0 0 1 0 -0.41c-0.11 -0.22 0.64 -0.07 0.84 -0.07l0.8 -0.06h1.1a0.39 0.39 0 0 1 0.06 0.13l0 0.46 0.2 0.95a12.79 12.79 0 0 0 -1.53 -0.15 5.07 5.07 0 0 0 -0.55 0c-0.19 0 -0.37 0.06 -0.55 0.09l-0.5 0.11c0.02 -0.29 0.03 -0.68 0.13 -1.05Zm-0.3 2.51a5.9 5.9 0 0 1 0.06 -0.59 3.41 3.41 0 0 0 0.65 0 5.41 5.41 0 0 0 0.53 0.08 3.75 3.75 0 0 0 0.58 0c0.53 -0.06 1 -0.19 1.56 -0.27v0.1c0 0.19 0.07 0.83 0.07 1.11a0.32 0.32 0 0 0 0 0.3l0 0.06a3.39 3.39 0 0 0 -0.55 -0.13A16.62 16.62 0 0 0 8.28 6l-0.62 0a4 4 0 0 1 -0.01 -0.48Zm-3.1 7 0 -0.21 0 -1.47c0 -0.53 0 -1.07 0.08 -1.61 0 -0.35 0.06 -0.7 0.11 -1.05 0 -0.19 0 -0.43 0.07 -0.65v-0.05c0.23 0.17 1 -0.19 1.16 -0.2a18 18 0 0 1 2.22 -0.11 18 18 0 0 1 2.22 0.12 3.26 3.26 0 0 1 0.6 0.14 5.36 5.36 0 0 1 0.53 0.2c-0.15 0.15 0.16 0.56 0.2 0.72a14.11 14.11 0 0 1 0.3 1.55 14.18 14.18 0 0 1 0.12 1.6v1.72l0 0.82a3.53 3.53 0 0 0 0 0.5H9.43c-0.14 0 -0.67 0.28 -0.64 0.1a7 7 0 0 1 -1 -0.63 14.21 14.21 0 0 1 -1.45 -1.28 0.91 0.91 0 0 0 -0.61 -0.23 5.83 5.83 0 0 0 -1.12 0.18s0 -0.05 0 -0.07l0 -0.08Z" fill="#020202" stroke-width="1"></path>
    <path d="m8.8 14.63 0.06 0Z" fill="#020202" stroke-width="1"></path>
    <path d="m5.6 13.53 0.08 0.07 -0.08 -0.07Z" fill="#020202" stroke-width="1"></path>
    <path d="m4.62 12.6 -0.06 -0.08Z" fill="#020202" stroke-width="1"></path>
    <path d="M5.4 11.47a0.33 0.33 0 0 0 0.26 0.08 2.51 2.51 0 0 0 0.56 0.09 3.56 3.56 0 0 0 0.58 0.06l1.22 0a2.38 2.38 0 0 0 0.85 0 0.81 0.81 0 0 0 0.47 -0.58 1.29 1.29 0 0 0 0.05 -0.4 4.54 4.54 0 0 0 -0.05 -0.66 3.9 3.9 0 0 0 -0.22 -1.41 1.19 1.19 0 0 0 -0.69 -0.55 2.79 2.79 0 0 0 -0.9 -0.1 6.08 6.08 0 0 0 -1.21 0.16c-0.08 0 -0.48 0 -0.63 0.09a0.34 0.34 0 0 0 -0.29 0.4 0.31 0.31 0 0 0 0.36 0.23c0 0.14 0.52 0 0.59 0a6.38 6.38 0 0 1 1.07 0 2.08 2.08 0 0 1 0.58 0.19c0.11 0 0.1 0.16 0.11 0.26l0 0.86 0.05 0.52a0.82 0.82 0 0 0 -0.21 0l-1.7 0.15c-0.1 0 -0.54 -0.12 -0.72 -0.12a0.46 0.46 0 0 0 -0.35 0.12 0.34 0.34 0 0 0 -0.06 0.44c0.11 0.03 0.24 0.23 0.28 0.17Zm3 -0.79c0 0.05 0 0.06 -0.14 0s0.18 -0.07 0.19 0Z" fill="#4C57E6" stroke-width="1"></path>
  </g>
</svg>