<svg xmlns="http://www.w3.org/2000/svg" viewBox="0 0 24 24" id="Search-Magnifier-Square--Streamline-Freehand">
  <desc>
    Search Magnifier Square Streamline Icon: https://streamlinehq.com
  </desc>
  <g>
    <path d="M23.89 6.91a40.29 40.29 0 0 0 -0.38 -5.15 1.72 1.72 0 0 0 -0.32 -0.76 2.66 2.66 0 0 0 -1.27 -0.53A59.8 59.8 0 0 0 11.86 0a76.14 76.14 0 0 0 -10 0.68 2.45 2.45 0 0 0 -1.25 0.52C0.2 1.79 0 5.58 0 9.84c0 5.69 0.37 12.21 0.72 12.9a1.7 1.7 0 0 0 1.09 0.58 49.75 49.75 0 0 0 7.87 0.62c3.74 0.09 7.85 0 10.46 -0.2a9 9 0 0 0 2.8 -0.5 1.83 1.83 0 0 0 0.75 -1 7.07 7.07 0 0 0 0.31 -2.12c0 -1.26 0.06 -8.12 -0.11 -13.21ZM22.82 20.1a7 7 0 0 1 -0.09 1.33c-0.06 0.33 -0.13 0.68 -0.37 0.82a7 7 0 0 1 -1.89 0.32c-2.08 0.2 -5.35 0.3 -8.61 0.3a68.81 68.81 0 0 1 -9.64 -0.45 4.84 4.84 0 0 1 -0.69 -0.19c-0.35 -0.94 -0.7 -7 -0.8 -12.4 -0.08 -4.07 0 -7.7 0.39 -8.24 0.07 -0.1 0.38 -0.13 0.83 -0.21a76.38 76.38 0 0 1 9.92 -0.52 72.77 72.77 0 0 1 8.8 0.37 5.22 5.22 0 0 1 1.8 0.4 7.26 7.26 0 0 1 0.15 0.84c0.12 1 0.19 2.62 0.23 4.47 0.15 5.06 0.01 11.9 -0.03 13.16Z" fill="#4C57E6" fill-rule="evenodd" stroke-width="1"></path>
    <path d="M15.42 13.17a0.3 0.3 0 0 0 -0.14 -0.22 0.34 0.34 0 0 0 -0.47 0.08A5.15 5.15 0 0 1 14 14a8 8 0 0 1 -1 0.74 5.19 5.19 0 0 1 -5.23 0.38 4.63 4.63 0 0 1 -2.37 -4.46 5.31 5.31 0 0 1 2.19 -3.93A5.15 5.15 0 0 1 12 5.94 3.93 3.93 0 0 1 13.88 7a6.24 6.24 0 0 1 1.26 1.84 5.42 5.42 0 0 1 0.4 1.57 4.05 4.05 0 0 1 -0.19 1.6 0.3 0.3 0 1 0 0.57 0.19 4.63 4.63 0 0 0 0.28 -1.83 5.87 5.87 0 0 0 -0.38 -1.8 7.24 7.24 0 0 0 -1.33 -2.16A4.93 4.93 0 0 0 12.3 5a6.06 6.06 0 0 0 -5.36 0.79 6.38 6.38 0 0 0 -2.73 4.75 5.67 5.67 0 0 0 3.06 5.38 6 6 0 0 0 6 -0.58 11.81 11.81 0 0 0 2.53 2.79 1.69 1.69 0 0 0 2.2 0.07 1.7 1.7 0 0 0 0.15 -2.2 13 13 0 0 0 -2.73 -2.83Zm1.78 4.19c-0.11 0.11 -0.26 0.08 -0.42 0A3.27 3.27 0 0 1 16 17a14.93 14.93 0 0 1 -2.19 -2 6.67 6.67 0 0 0 0.64 -0.53 6.77 6.77 0 0 0 0.63 -0.69 14.79 14.79 0 0 1 1.9 2.3 2.56 2.56 0 0 1 0.34 0.82 0.42 0.42 0 0 1 -0.12 0.46Z" fill="#020202" fill-rule="evenodd" stroke-width="1"></path>
    <path d="M11.5 7.53a3.9 3.9 0 0 0 -0.88 -0.22 2.89 2.89 0 0 0 -1.73 0.56 1.13 1.13 0 0 0 -0.18 0.13 0.29 0.29 0 0 0 0 0.45 0.24 0.24 0 0 0 0.26 0 0.28 0.28 0 0 0 0.15 -0.08l0.06 0a1.85 1.85 0 0 1 1.22 0 3.12 3.12 0 0 1 0.75 0.26 2.1 2.1 0 0 1 0.63 0.37 3.34 3.34 0 0 1 0.61 0.92 0.34 0.34 0 1 0 0.64 -0.22 3.13 3.13 0 0 0 -0.76 -1.64 2.6 2.6 0 0 0 -0.77 -0.53Z" fill="#020202" fill-rule="evenodd" stroke-width="1"></path>
  </g>
</svg>