<svg xmlns="http://www.w3.org/2000/svg" viewBox="0 0 24 24" id="Search-Magnifier-Remove--Streamline-Freehand">
  <desc>
    Search Magnifier Remove Streamline Icon: https://streamlinehq.com
  </desc>
  <g>
    <path d="M15.53 14.5a0.3 0.3 0 0 0 0 0.43 0.31 0.31 0 0 0 0.43 0 5.9 5.9 0 0 0 1.27 -2.07 7.35 7.35 0 0 0 0.46 -2.38 6.87 6.87 0 0 0 -0.52 -3A6.4 6.4 0 0 0 15.34 5a8.34 8.34 0 0 0 -6.43 -2 7.23 7.23 0 0 0 -5.54 4 7.76 7.76 0 0 0 0.46 7.92c1.43 1.94 4 3.1 7.4 2.49a10.66 10.66 0 0 0 1.77 -0.54 8 8 0 0 0 1.66 -0.82 0.35 0.35 0 0 0 0.1 -0.47 0.34 0.34 0 0 0 -0.47 -0.1 7.14 7.14 0 0 1 -1.53 0.7 9.47 9.47 0 0 1 -1.65 0.39c-3 0.45 -5.26 -0.57 -6.48 -2.31a6.7 6.7 0 0 1 -0.23 -6.84 6.14 6.14 0 0 1 4.66 -3.35 7.4 7.4 0 0 1 5.69 1.71 5.67 5.67 0 0 1 1.66 2 6.24 6.24 0 0 1 0.59 2.66 7 7 0 0 1 -0.35 2.17 5.34 5.34 0 0 1 -1.12 1.89Z" fill="#020202" fill-rule="evenodd" stroke-width="1"></path>
    <path d="M13.5 7.72a0.34 0.34 0 1 0 -0.27 -0.63 12.11 12.11 0 0 0 -2.59 1.82l-0.21 0.2 -0.55 -0.51c-0.15 -0.12 -2.11 -1.53 -2.12 -1.53a0.29 0.29 0 0 0 -0.31 0.11 0.3 0.3 0 0 0 0 0.34 1.3 1.3 0 0 0 0.21 0.25c0.34 0.35 1.17 1.16 1.49 1.55 0.13 0.14 0.29 0.34 0.47 0.55a12.2 12.2 0 0 0 -0.85 0.91A16 16 0 0 0 7 13.34a0.3 0.3 0 1 0 0.5 0.33 28.62 28.62 0 0 1 2.37 -2.45l0.5 -0.5 0.28 0.31c0.55 0.58 1.15 1.16 1.57 1.66a3.22 3.22 0 0 1 0.61 0.81 0.34 0.34 0 0 0 0.67 -0.16 10.26 10.26 0 0 0 -1.63 -2.6c-0.23 -0.29 -0.46 -0.57 -0.7 -0.83 0.39 -0.41 0.75 -0.8 1.09 -1.13a7.2 7.2 0 0 1 1.24 -1.06Z" fill="#020202" fill-rule="evenodd" stroke-width="1"></path>
    <path d="M23.57 19.89c-0.92 -1.74 -3.19 -3.62 -4.1 -4.43a9.73 9.73 0 0 0 0 -10.3C17.74 2.38 14.41 0.43 9.9 0.6a14.18 14.18 0 0 0 -2.42 0.29 10.2 10.2 0 0 0 -2.34 0.77 0.34 0.34 0 0 0 0.29 0.61 10.15 10.15 0 0 1 2.19 -0.67 13.07 13.07 0 0 1 2.3 -0.24c4.14 -0.07 7.18 1.73 8.76 4.32a8.75 8.75 0 0 1 -0.39 9.53 10 10 0 0 1 -7.39 4.13A9.69 9.69 0 0 1 3 16.28a7.53 7.53 0 0 1 -1.89 -3.55A11.45 11.45 0 0 1 0.88 8.6a9.66 9.66 0 0 1 0.88 -2.87 7.4 7.4 0 0 1 1.83 -2.35 0.3 0.3 0 0 0 0 -0.43 0.3 0.3 0 0 0 -0.42 0 8.09 8.09 0 0 0 -2 2.5 10.3 10.3 0 0 0 -1 3.06 12.36 12.36 0 0 0 0.11 4.44 8.55 8.55 0 0 0 2 4A10.61 10.61 0 0 0 11 20.47a11.42 11.42 0 0 0 5.36 -1.85 18.7 18.7 0 0 0 4 4.2c1.12 0.71 2.22 0.82 3 0.11a2.4 2.4 0 0 0 0.21 -3.04Zm-1 2.2a1 1 0 0 1 -1 0.1 5.62 5.62 0 0 1 -1.32 -0.72 22 22 0 0 1 -3.37 -3.19A9.77 9.77 0 0 0 19.09 16a24.26 24.26 0 0 1 3.13 3.64 4.43 4.43 0 0 1 0.61 1.38 1 1 0 0 1 -0.26 1.07Z" fill="#4C57E6" fill-rule="evenodd" stroke-width="1"></path>
  </g>
</svg>