<svg xmlns="http://www.w3.org/2000/svg" viewBox="0 0 24 24" id="Season-Spring--Streamline-Freehand">
  <desc>
    Season Spring Streamline Icon: https://streamlinehq.com
  </desc>
  <g>
    <path d="M18.9 16.13c-3.14 1.7 -5.18 3.65 -5.65 7.22a0.3 0.3 0 0 0 0.59 0.12c0.76 -2.58 3.24 -5.2 5.42 -6.76a0.34 0.34 0 0 0 -0.36 -0.58Z" fill="#020202" fill-rule="evenodd" stroke-width="1"></path>
    <path d="M23.55 12.55c-0.33 -0.33 -0.73 -0.21 -1.07 -0.17A20.37 20.37 0 0 0 17 13.52a5.93 5.93 0 0 0 -3.19 3.15c-0.29 1 0.13 2.46 0.68 2.15a0.31 0.31 0 0 0 0.11 -0.41c-0.57 -1.06 0 -2.05 0.87 -2.83 1.53 -1.37 3.3 -1.58 5.28 -1.81 0.81 -0.09 1.29 -0.19 2.1 -0.24 0.25 0.78 -1.39 6.12 -4.23 6.77a1.48 1.48 0 0 1 -0.93 0 0.34 0.34 0 0 0 -0.45 0.17c-0.35 0.79 2.27 1.35 4.54 -1.46A11.37 11.37 0 0 0 24 13.74a1.61 1.61 0 0 0 -0.45 -1.19Z" fill="#020202" fill-rule="evenodd" stroke-width="1"></path>
    <path d="M5.44 3.76C8 -0.52 13.14 1.55 13.22 6.2a0.46 0.46 0 0 0 0.46 0.52c0.38 0 0.28 -0.13 1.33 -0.93 1.44 -0.94 2.56 -0.4 3.17 1.06l0.27 0.91c0.07 0.33 -0.08 1 1 0.66a4.87 4.87 0 0 1 1.3 -0.53c1.32 0 2.06 1.5 2.14 2.83a0.34 0.34 0 0 0 0.68 0c-0.11 -2.62 -1.9 -3.93 -3.33 -3.48 -0.33 0.1 -0.64 0.31 -0.95 0.43L19 6.53c-0.84 -2.18 -2.79 -2.82 -4.81 -1.31 -0.54 -4 -4.38 -6 -7.47 -4.32a7 7 0 0 0 -3.28 5.24c-0.06 0.52 0 1.07 0 1.68h-0.17C1.78 8.05 0.42 10.13 0.11 11.69c-0.73 3.69 2.38 5.1 6.11 4.94L12 16.2a0.3 0.3 0 0 0 0 -0.6l-5.72 0.28c-5.72 0.08 -6.94 -3.49 -2.8 -7A1.81 1.81 0 0 0 4 9a0.61 0.61 0 0 0 0.5 -0.49c0.29 -1.25 -0.42 -2.44 0.94 -4.75Z" fill="#020202" fill-rule="evenodd" stroke-width="1"></path>
    <path d="M3.07 18.24a9.63 9.63 0 0 0 -2.68 4 0.34 0.34 0 0 0 0.6 0.32c0.33 -0.46 0.7 -0.87 1.05 -1.32a10 10 0 0 0 1.53 -2.65 0.3 0.3 0 0 0 -0.5 -0.35Z" fill="#4C57E6" fill-rule="evenodd" stroke-width="1"></path>
    <path d="M7.83 18.12a14.15 14.15 0 0 0 -2.69 4.31 0.34 0.34 0 0 0 0.58 0.37 11 11 0 0 0 2.63 -4.39 0.3 0.3 0 1 0 -0.52 -0.29Z" fill="#4C57E6" fill-rule="evenodd" stroke-width="1"></path>
    <path d="M11.18 18.19a8.49 8.49 0 0 0 -1.7 4.13 0.34 0.34 0 0 0 0.65 0.21c0.23 -0.48 0.5 -0.92 0.73 -1.4a9.45 9.45 0 0 0 0.88 -2.71 0.3 0.3 0 0 0 -0.56 -0.23Z" fill="#4C57E6" fill-rule="evenodd" stroke-width="1"></path>
  </g>
</svg>