<svg xmlns="http://www.w3.org/2000/svg" viewBox="0 0 24 24" id="Season-Autumn-Fall--Streamline-Freehand">
  <desc>
    Season Autumn Fall Streamline Icon: https://streamlinehq.com
  </desc>
  <g>
    <path d="M18.24 16.61c-3 1.65 -5.12 3.55 -5.47 7a0.3 0.3 0 0 0 0.59 0.11c0.64 -2.47 3.2 -5.09 5.25 -6.57a0.34 0.34 0 0 0 -0.37 -0.54Z" fill="#020202" fill-rule="evenodd" stroke-width="1"></path>
    <path d="M22.81 13c-0.34 -0.29 -0.74 -0.15 -1.07 -0.1a23.07 23.07 0 0 0 -5.55 1.33c-2.12 1 -4.2 3.19 -2.79 5.06a0.3 0.3 0 0 0 0.49 -0.34c-1 -1.55 1 -3.14 2.69 -3.82s3.59 -0.71 5.59 -1.14c0.19 0.35 -0.16 1.5 -0.28 1.87a7.55 7.55 0 0 1 -2.78 4.21 2.51 2.51 0 0 1 -1.94 0.46 0.34 0.34 0 0 0 -0.23 0.64 3.15 3.15 0 0 0 2.59 -0.43 8.32 8.32 0 0 0 3.37 -4.53c0.39 -1.08 0.81 -2.46 -0.09 -3.21Z" fill="#020202" fill-rule="evenodd" stroke-width="1"></path>
    <path d="M11.5 14c1.2 -0.91 3 -1.56 5.15 -3.77a0.34 0.34 0 0 0 -0.45 -0.52c-1.53 1.12 -2.89 1.4 -4.72 3.38 -0.11 -6.17 0.17 -6.73 -0.14 -8.36a0.34 0.34 0 0 0 -0.67 0.1c0.25 2 -0.37 3.36 -0.31 8.29a20.9 20.9 0 0 0 -5.11 -3.81 0.34 0.34 0 0 0 -0.37 0.57C6.93 11.47 7 12.12 10.37 14c0 0.75 0 1 0.09 1.77a0.52 0.52 0 0 0 1 -0.09c-0.01 -0.59 0.06 -0.86 0.04 -1.68Z" fill="#4C57E6" fill-rule="evenodd" stroke-width="1"></path>
    <path d="M21.33 4c-2.5 -0.16 -6.11 2.36 -6.58 2.6C14.59 4.68 12.86 0.07 11 0c-0.87 0 -1.41 0.91 -1.85 1.62 -1.64 2.61 -1.53 4.46 -1.93 4.79 -0.78 -0.13 -1 -0.49 -3.19 -1C3 5.19 1.26 4.79 0.8 5.75A11.16 11.16 0 0 0 2 12.57a4.91 4.91 0 0 0 2.5 2.18c0.41 0.12 0.87 0.14 1.27 0.24A14.28 14.28 0 0 0 4 18c-0.17 0.48 -0.25 1.14 0.24 1.3a2.72 2.72 0 0 0 1.45 -0.22 19.19 19.19 0 0 0 4.9 -2 26.08 26.08 0 0 0 0.64 5.18 0.3 0.3 0 0 0 0.58 -0.15c-0.29 -1.23 -0.27 -1.82 -0.31 -5.7a0.71 0.71 0 0 0 -1 0 14.49 14.49 0 0 1 -2.1 1c-0.42 0.13 -3.26 1.09 -3.79 1.14 0.24 -1.25 1.84 -3 2.19 -3.62a0.44 0.44 0 0 0 -0.15 -0.6c-0.71 -0.42 -1.58 -0.3 -2.22 -0.67C2.11 12.39 1.65 9 1.8 6.29a8.5 8.5 0 0 1 2.28 0.32c1.76 0.45 2.26 0.82 2.8 0.92a1.27 1.27 0 0 0 1.48 -0.77 7.13 7.13 0 0 0 0.38 -1.29 12.45 12.45 0 0 1 1.84 -4c0.21 -0.28 0.28 -0.49 0.71 -0.13a7.8 7.8 0 0 1 1.45 2.14 12.37 12.37 0 0 1 1 3.07c0.12 0.7 -0.06 0.86 0.25 1.09 0.61 0.45 1.92 -0.67 2.46 -1 1.34 -0.75 3.28 -1.9 4.84 -1.83 0.79 0 0.74 4 -2.94 6.82a0.34 0.34 0 0 0 0.41 0.55 9.19 9.19 0 0 0 3.63 -5.41c0.22 -1.27 0.22 -2.72 -1.06 -2.77Z" fill="#020202" fill-rule="evenodd" stroke-width="1"></path>
  </g>
</svg>