<svg xmlns="http://www.w3.org/2000/svg" viewBox="0 0 24 24" id="Security-Database-Lock--Streamline-Freehand">
  <desc>
    Security Database Lock Streamline Icon: https://streamlinehq.com
  </desc>
  <g>
    <path d="M21.4 8.32a1.48 1.48 0 0 0 -0.56 -0.32l-0.13 0.8a2.28 2.28 0 0 1 0.92 1.27c0.28 0.92 -3.16 0.74 -4.35 0.76A107.68 107.68 0 0 1 3 10.92c-0.74 -0.07 -0.41 -0.26 -0.29 -0.83 0.18 -0.8 0.21 -1.07 0.77 -1.36a0.3 0.3 0 0 0 -0.13 -0.57c-0.89 0.33 -1.05 0.78 -1.35 1.75 -0.1 0.39 -0.41 0.84 -0.12 1.3 0.56 0.61 2.86 0.73 5.31 1 3.85 0.35 6.69 -0.15 10.11 -0.33 1.27 -0.09 3.25 0 4.42 -0.6 1.36 -0.68 0.81 -2.01 -0.32 -2.96Z" fill="#4C57E6" fill-rule="evenodd" stroke-width="1"></path>
    <path d="M4 9.07a0.35 0.35 0 0 0 0.33 0.34c0.59 0 0.22 -0.78 0.38 -3A6 6 0 0 1 5 4.71c1.19 -3.15 5.3 -4.19 8.33 -3.58a6.12 6.12 0 0 1 3.14 1.31 4.33 4.33 0 0 1 1.35 1.11 6 6 0 0 1 1.12 2.54 9.85 9.85 0 0 1 0.22 2.63 4 4 0 0 0 -1.09 0c-0.15 -0.38 0.06 -7.08 -7.32 -6.35a5.69 5.69 0 0 0 -3.32 1.78 5.59 5.59 0 0 0 -1 2.14 11.6 11.6 0 0 0 0 3.15 4.61 4.61 0 0 1 -1.79 0.29c-0.14 0 -0.68 0.86 1 0.72 2.15 -0.18 1.63 -0.44 1.62 -2.33l0 -1.07a3.76 3.76 0 0 1 2.07 -3.3 5.62 5.62 0 0 1 6.17 1c2 2.11 0.71 4.46 2.13 5.06 0.74 0.32 2.33 0.25 2.53 -0.51a15.3 15.3 0 0 0 -0.1 -3.3 6.18 6.18 0 0 0 -1.32 -3 4.88 4.88 0 0 0 -1.37 -1.2A7.6 7.6 0 0 0 13.51 0.14a10.34 10.34 0 0 0 -6.63 1.14 6.23 6.23 0 0 0 -2.57 3.17C3.78 5.8 4 8.88 4 9.07Z" fill="#020202" fill-rule="evenodd" stroke-width="1"></path>
    <path d="M15.56 7.87a0.3 0.3 0 0 0 0.07 -0.59 21.25 21.25 0 0 0 -7.63 0.2c-0.55 0.21 -0.41 0.63 0 0.6l0.49 0a60.58 60.58 0 0 0 7.07 -0.21Z" fill="#4C57E6" fill-rule="evenodd" stroke-width="1"></path>
    <path d="M22.36 14.57a15.11 15.11 0 0 0 -0.28 -2.1c0 -0.18 0 -0.7 -0.43 -0.7a0.34 0.34 0 0 0 -0.33 0.34c0 0.06 0.34 3.54 0.36 3.54a21 21 0 0 1 -0.51 5.26 1.85 1.85 0 0 1 -1.55 1.41c-0.34 0.08 -2.46 0.37 -3.06 0.39 -1 0 -2 0 -2.93 0.05a39.52 39.52 0 0 1 -6.25 0 30.59 30.59 0 0 1 -3.55 -0.12c-1.71 -0.38 -1.55 -3 -1.52 -3s0.12 -6.43 0.15 -7.46c0 -0.23 -0.47 -0.69 -0.63 -0.15a71.41 71.41 0 0 0 -0.3 8.74c0.37 3.23 3.39 2.81 5.74 3.06a35.59 35.59 0 0 0 6.45 0.05 31.44 31.44 0 0 0 4.2 -0.25c1.85 -0.39 3.18 -0.14 4 -2.11a5.66 5.66 0 0 0 0.4 -1.78 27.06 27.06 0 0 0 0.04 -5.17Z" fill="#020202" fill-rule="evenodd" stroke-width="1"></path>
    <path d="M4.07 16.91c2.65 0.55 12.88 0.53 15.43 0.39a11.55 11.55 0 0 0 1.63 -0.21 0.38 0.38 0 0 0 -0.17 -0.73c-4.12 0.43 -3.41 -0.23 -13.5 -0.09a22.31 22.31 0 0 1 -3.27 -0.05l-1 -0.14c-0.38 0.09 -0.32 0.47 0 0.65Z" fill="#4C57E6" fill-rule="evenodd" stroke-width="1"></path>
    <path d="M3.83 14.18c0 1.09 2 1.11 2 0s-2.03 -1.18 -2 0Z" fill="#020202" fill-rule="evenodd" stroke-width="1"></path>
    <path d="M7.26 14.18c0 1.09 2 1.11 2 0s-2.02 -1.18 -2 0Z" fill="#020202" fill-rule="evenodd" stroke-width="1"></path>
    <path d="M3.83 19.44c0 1.16 2 1.18 2 0s-2.03 -1.23 -2 0Z" fill="#020202" fill-rule="evenodd" stroke-width="1"></path>
    <path d="M7.26 19.44c0 1.16 2 1.18 2 0s-2.02 -1.23 -2 0Z" fill="#020202" fill-rule="evenodd" stroke-width="1"></path>
  </g>
</svg>