<svg xmlns="http://www.w3.org/2000/svg" viewBox="0 0 24 24" id="Security-It-Service--Streamline-Freehand">
  <desc>
    Security It Service Streamline Icon: https://streamlinehq.com
  </desc>
  <g>
    <path d="M9.18 21.63a2.88 2.88 0 0 1 -0.58 -0.52L8.42 21l0.84 -0.9 0.76 -0.84a0.31 0.31 0 0 0 0.09 -0.44 0.32 0.32 0 0 0 -0.45 -0.09l-1.05 0.69c-0.23 0.17 -0.65 0.37 -1 0.61a1.77 1.77 0 0 0 -0.45 0.53 0.77 0.77 0 0 0 0 0.67 2.67 2.67 0 0 0 0.61 0.79 4.34 4.34 0 0 0 0.68 0.43c0.49 0.23 1 0.38 1.5 0.61a0.37 0.37 0 0 0 0.5 -0.13 0.35 0.35 0 0 0 -0.13 -0.5c-0.32 -0.32 -0.76 -0.54 -1.14 -0.8Z" fill="#020202" fill-rule="evenodd" stroke-width="1"></path>
    <path d="M13.15 17.4a0.33 0.33 0 0 0 -0.41 0.19c-0.33 0.64 -0.7 1.24 -1 1.89a8.84 8.84 0 0 0 -0.36 0.84c-0.1 0.29 -0.2 0.58 -0.28 0.87 -0.2 0.7 -0.34 1.4 -0.48 2.11a0.36 0.36 0 0 0 0.24 0.45 0.37 0.37 0 0 0 0.46 -0.24c0.28 -0.67 0.61 -1.3 0.9 -2 0.19 -0.45 0.37 -0.89 0.52 -1.35 0.26 -0.78 0.41 -1.58 0.6 -2.37a0.32 0.32 0 0 0 -0.19 -0.39Z" fill="#020202" fill-rule="evenodd" stroke-width="1"></path>
    <path d="M16.1 19.54a8.8 8.8 0 0 0 -1 -0.53 7.66 7.66 0 0 0 -1 -0.39 0.32 0.32 0 0 0 -0.43 0.16 0.31 0.31 0 0 0 0.16 0.42 7.27 7.27 0 0 1 0.79 0.58 7.49 7.49 0 0 1 0.71 0.66l0.12 0.06a4 4 0 0 1 -0.38 0.51l-0.49 0.56 -0.86 0.87a0.37 0.37 0 0 0 -0.11 0.51 0.38 0.38 0 0 0 0.51 0.1l1.12 -0.74 0.66 -0.5a4.77 4.77 0 0 0 0.59 -0.66 1.59 1.59 0 0 0 0.27 -0.71 0.61 0.61 0 0 0 -0.16 -0.52 3.19 3.19 0 0 0 -0.5 -0.38Z" fill="#020202" fill-rule="evenodd" stroke-width="1"></path>
    <path d="M14.19 8.44a0.62 0.62 0 0 0 -0.69 -0.71 0.68 0.68 0 0 0 0 1.35 0.61 0.61 0 0 0 0.69 -0.64Z" fill="#020202" fill-rule="evenodd" stroke-width="1"></path>
    <path d="M10.54 8.54a0.62 0.62 0 0 0 -0.69 -0.71 0.68 0.68 0 0 0 0 1.35 0.63 0.63 0 0 0 0.69 -0.64Z" fill="#020202" fill-rule="evenodd" stroke-width="1"></path>
    <path d="M10.56 11.74a1.75 1.75 0 0 0 0.7 0.23 1.9 1.9 0 0 0 0.71 -0.05 2.39 2.39 0 0 0 1.32 -0.87 0.37 0.37 0 0 0 0 -0.52 0.37 0.37 0 0 0 -0.52 0 1.74 1.74 0 0 1 -1.36 0.21 2.41 2.41 0 0 1 -0.37 -0.07 1.3 1.3 0 0 1 -0.81 -0.5 0.33 0.33 0 0 0 -0.43 -0.17 0.31 0.31 0 0 0 -0.17 0.42 1.91 1.91 0 0 0 0.93 1.32Z" fill="#020202" fill-rule="evenodd" stroke-width="1"></path>
    <path d="M4.68 18.63a7.85 7.85 0 0 0 -0.09 1.19 11.89 11.89 0 0 0 0 1.19 15.46 15.46 0 0 0 0.5 2.73 0.36 0.36 0 0 0 0.42 0.29 0.35 0.35 0 0 0 0.29 -0.42c0 -0.5 -0.07 -1 -0.08 -1.51s0 -1 0 -1.5l0 -1.5 0 -1.78c0 -0.78 -0.84 -0.07 -1 0.5 0.04 0.33 0.01 0.48 -0.04 0.81Z" fill="#4C57E6" fill-rule="evenodd" stroke-width="1"></path>
    <path d="M15.14 14.46a0.38 0.38 0 0 0 -0.49 0.18 2.7 2.7 0 0 1 -2.18 1.23 3.75 3.75 0 0 1 -1.53 -0.13 2.47 2.47 0 0 1 -0.89 -0.44 1.68 1.68 0 0 1 -0.44 -0.57c0 -0.09 -0.14 -0.17 -0.41 0 0 0 -0.34 0.36 -0.29 0.49a2.13 2.13 0 0 0 0.44 0.81 3.24 3.24 0 0 0 1.53 1 3.87 3.87 0 0 0 1.76 0.07 3.52 3.52 0 0 0 2.69 -2.12 0.36 0.36 0 0 0 -0.19 -0.52Z" fill="#4C57E6" fill-rule="evenodd" stroke-width="1"></path>
    <path d="M18.1 18.74c0 0.6 0.14 1.2 0.22 1.8 0.13 0.89 0.29 1.77 0.4 2.68a0.36 0.36 0 1 0 0.72 0c0 -0.91 0.08 -1.8 0 -2.7 0 -0.39 0 -0.77 -0.09 -1.15a9 9 0 0 0 -0.18 -1.14 6.58 6.58 0 0 0 -0.17 -0.74c-0.1 -0.4 -0.86 -1.12 -1.06 -0.59 0.06 0.79 0.06 1.04 0.16 1.84Z" fill="#4C57E6" fill-rule="evenodd" stroke-width="1"></path>
    <path d="M23.19 21.7a11.12 11.12 0 0 0 -0.62 -1.82 12.74 12.74 0 0 0 -1.68 -2.7A12.61 12.61 0 0 0 18.56 15a10 10 0 0 0 -3.95 -1.67 5 5 0 0 0 0.9 -1 7 7 0 0 0 1.14 -4 0.37 0.37 0 0 0 -0.74 0 6.24 6.24 0 0 1 -0.91 2.94A3.65 3.65 0 0 1 12.88 13a3.93 3.93 0 0 1 -2.39 -0.13 4.65 4.65 0 0 1 -1.44 -0.8A4.37 4.37 0 0 1 7.5 8.29a0.31 0.31 0 0 0 -0.27 -0.36 0.33 0.33 0 0 0 -0.37 0.28 5.15 5.15 0 0 0 1.45 4.69 4.88 4.88 0 0 0 0.68 0.54A10.29 10.29 0 0 0 5.44 15a12.61 12.61 0 0 0 -2.33 2.16 12.74 12.74 0 0 0 -1.68 2.7 11.12 11.12 0 0 0 -0.62 1.82 6.17 6.17 0 0 0 -0.2 1.94 0.32 0.32 0 0 0 0.33 0.38 0.32 0.32 0 0 0 0.31 -0.33 5.35 5.35 0 0 1 0.34 -1.69 9.77 9.77 0 0 1 0.74 -1.6A13.16 13.16 0 0 1 4 18.08c0.29 -0.35 1.43 -1.34 1.95 -1.87a12.44 12.44 0 0 1 1.17 -0.89 22 22 0 0 1 3.13 -1.25 5 5 0 0 0 3 0.12c0.1 0 0.19 -0.12 0.29 -0.16a12.18 12.18 0 0 1 1.43 0.35 9.56 9.56 0 0 1 2 0.93A15 15 0 0 1 20 18.07a16.67 16.67 0 0 1 1.64 2.26 9.77 9.77 0 0 1 0.74 1.6 5.35 5.35 0 0 1 0.34 1.69 0.32 0.32 0 0 0 0.31 0.33 0.32 0.32 0 0 0 0.33 -0.31 6.17 6.17 0 0 0 -0.17 -1.94Z" fill="#020202" fill-rule="evenodd" stroke-width="1"></path>
    <path d="M4.7 8.19a10 10 0 0 1 1.53 -0.35c0.79 -0.13 1.6 -0.2 2.39 -0.28 1 -0.12 1.88 -0.18 2.8 -0.24s1.87 -0.12 2.8 -0.11a25.24 25.24 0 0 1 3.78 0.31 0.37 0.37 0 0 0 0.16 -0.72c-0.22 -0.06 -0.43 -0.08 -0.65 -0.13a3.62 3.62 0 0 0 0.14 -1 6.07 6.07 0 0 0 -0.38 -1.71 6.89 6.89 0 0 0 -0.63 -1.24 5 5 0 0 0 -0.94 -1.06 4.19 4.19 0 0 0 -2.2 -0.94 2.7 2.7 0 0 0 -1.17 -0.67 3.82 3.82 0 0 0 -2.24 0.2 3.3 3.3 0 0 0 -1 0.61 1.59 1.59 0 0 0 -0.15 0.21A5.26 5.26 0 0 0 6.85 2.4a5.14 5.14 0 0 0 -0.76 1 5.41 5.41 0 0 0 -0.51 1.19 5.54 5.54 0 0 0 0 2.59 9.64 9.64 0 0 0 -1.07 0.37 0.33 0.33 0 0 0 -0.22 0.45 0.31 0.31 0 0 0 0.41 0.19Zm10.56 -5.25a8.32 8.32 0 0 1 0.91 1.44 6 6 0 0 1 0.49 1.11 2.51 2.51 0 0 1 0.07 1 21.25 21.25 0 0 0 -2.93 -0.4c0.09 -0.32 0.2 -0.65 0.26 -1a17 17 0 0 0 0.24 -1.48 7.31 7.31 0 0 0 0 -1.24 2.51 2.51 0 0 0 -0.15 -0.6c0.12 0.08 0.24 0.16 0.35 0.25a6.43 6.43 0 0 1 0.76 0.92Zm-4.71 -1.55A2.62 2.62 0 0 1 12 1.24a1.54 1.54 0 0 1 1.08 0.8 1.83 1.83 0 0 1 0.2 0.69 5.17 5.17 0 0 1 0 0.88c0 0.52 -0.05 1 -0.1 1.42a8.71 8.71 0 0 1 -0.21 1 19.71 19.71 0 0 0 -2.17 0c-0.37 0 -0.75 0.11 -1.12 0.17 -0.09 -0.38 -0.17 -0.75 -0.22 -1.12a13 13 0 0 1 -0.06 -1.45 7.2 7.2 0 0 1 0 -1 1.67 1.67 0 0 1 0.17 -0.52 1 1 0 0 1 0.35 -0.38 2.88 2.88 0 0 1 0.63 -0.34ZM7.16 4.05a6 6 0 0 1 0.58 -0.9 5 5 0 0 1 0.62 -0.68 6.93 6.93 0 0 0 0.09 1.2 13.87 13.87 0 0 0 0.29 1.61 11 11 0 0 0 0.32 1.08l-0.6 0.09c-0.74 0.18 -1.46 0.34 -2.19 0.55a5.83 5.83 0 0 1 0.43 -2 10.59 10.59 0 0 1 0.46 -0.95Z" fill="#4C57E6" fill-rule="evenodd" stroke-width="1"></path>
  </g>
</svg>