<svg xmlns="http://www.w3.org/2000/svg" viewBox="0 0 24 24" id="Security-Collaboration-Star--Streamline-Freehand">
  <desc>
    Security Collaboration Star Streamline Icon: https://streamlinehq.com
  </desc>
  <g>
    <path d="M8.17 4.54A13.36 13.36 0 0 0 9.9 5.72l0.14 0.1 0 0.11c-0.13 0.33 -0.68 1.36 -0.89 2 -0.15 0.47 0 0.82 0.1 0.92a1.52 1.52 0 0 0 1.28 0.15 6.85 6.85 0 0 0 2 -1.26A7.47 7.47 0 0 0 14.7 9a1.57 1.57 0 0 0 1.37 -0.11 0.5 0.5 0 0 0 0.21 -0.36 1.7 1.7 0 0 0 -0.1 -0.59c-0.21 -0.65 -0.77 -1.68 -0.91 -2l0 -0.13 0.12 -0.07a15.06 15.06 0 0 0 1.72 -1.17 2.1 2.1 0 0 0 0.79 -1.19 0.52 0.52 0 0 0 -0.48 -0.53h-0.31a18.73 18.73 0 0 1 -2.68 -0.15l-0.22 -0.44c-0.2 -0.4 -0.4 -0.81 -0.62 -1.2a8.09 8.09 0 0 0 -0.5 -0.79 0.52 0.52 0 0 0 -0.46 -0.27 0.56 0.56 0 0 0 -0.45 0.24 8 8 0 0 0 -0.49 0.79c-0.22 0.39 -0.42 0.79 -0.62 1.2l-0.23 0.44a20.05 20.05 0 0 1 -2.67 0.15h-0.31a0.51 0.51 0 0 0 -0.48 0.53 2 2 0 0 0 0.79 1.19Zm2.93 -0.84a1 1 0 0 0 0.49 -0.29 3.05 3.05 0 0 0 0.43 -0.7c0.19 -0.39 0.39 -0.77 0.61 -1.15 0.22 0.37 0.41 0.76 0.61 1.15a2.74 2.74 0 0 0 0.43 0.7 1.09 1.09 0 0 0 0.49 0.28 14.47 14.47 0 0 0 2.37 0.11l-0.31 0.26c-0.57 0.46 -1.26 0.88 -1.57 1.09a1.15 1.15 0 0 0 -0.33 0.33 0.52 0.52 0 0 0 0 0.29 2.42 2.42 0 0 0 0.22 0.48 17.22 17.22 0 0 1 1 2.09 1.4 1.4 0 0 1 -0.91 -0.14 6 6 0 0 1 -1.65 -1 0.39 0.39 0 0 0 -0.51 0 9.06 9.06 0 0 1 -1.77 1.14 1.2 1.2 0 0 1 -0.94 0.07 15.44 15.44 0 0 1 1 -2.11 3.41 3.41 0 0 0 0.24 -0.54 0.56 0.56 0 0 0 0 -0.27 0.94 0.94 0 0 0 -0.33 -0.33C10.29 5 9.6 4.52 9 4.06l-0.3 -0.25a15.62 15.62 0 0 0 2.4 -0.11Z" fill="#4C57E6" stroke-width="1"></path>
    <path d="M22.47 17.42a0.31 0.31 0 0 0 -0.38 -0.24c-0.53 0.07 -1.05 0.09 -1.56 0.18a6 6 0 0 0 -1 0.26 6.9 6.9 0 0 0 -1.59 0.88 0.27 0.27 0 0 0 -0.15 0.22 2.6 2.6 0 0 0 -0.23 -0.68 6.08 6.08 0 0 0 -0.87 -1.18l-0.93 -1.07a0.28 0.28 0 0 0 -0.39 -0.06 0.28 0.28 0 0 0 -0.07 0.39l0.7 1.24a9.51 9.51 0 0 1 0.6 1.14 2.37 2.37 0 0 1 0.21 0.7 1.1 1.1 0 0 1 -0.22 0.89 1.15 1.15 0 0 1 -0.46 0.33l-0.13 -0.11a6.78 6.78 0 0 0 -0.61 -0.78l-1.22 -1.43a0.32 0.32 0 1 0 -0.52 0.36l1 1.67c0.15 0.23 0.32 0.47 0.46 0.72a1.59 1.59 0 0 1 0.19 0.42 0.53 0.53 0 0 1 -0.13 0.61 1 1 0 0 1 -0.45 0.2s0 -0.06 0 -0.08a3.93 3.93 0 0 0 -0.35 -0.57c-0.2 -0.25 -0.41 -0.49 -0.64 -0.73s-0.43 -0.46 -0.67 -0.69a0.28 0.28 0 0 0 -0.43 0.36c0.14 0.21 0.26 0.42 0.39 0.63s0.34 0.64 0.5 1l0.24 0.6 -0.12 0.22a0.78 0.78 0 0 1 -0.55 0.37 1 1 0 0 1 -0.73 -0.15 0.32 0.32 0 0 0 -0.45 0 0.33 0.33 0 0 0 0 0.46 1.75 1.75 0 0 0 2.49 0 1.9 1.9 0 0 0 0.31 -0.45 1 1 0 0 0 0.08 -0.25 1.8 1.8 0 0 0 0.83 -0.18 1.43 1.43 0 0 0 0.7 -1.47 1.89 1.89 0 0 0 0.85 -0.42 2.06 2.06 0 0 0 0.65 -1.61l0 -0.2a0.28 0.28 0 0 0 0.37 0.11c0.48 -0.15 1 -0.22 1.44 -0.32l0.61 -0.15 0.6 -0.2c0.48 -0.16 1 -0.34 1.44 -0.53a0.31 0.31 0 0 0 0.19 -0.41Z" fill="#020202" stroke-width="1"></path>
    <path d="M4.91 10.31s0.1 0 0.2 0.1c0.55 0.28 1.69 1 2.47 1.39a2.48 2.48 0 0 0 1 0.32l1 -0.19a4.44 4.44 0 0 1 1.42 -0.14 1.85 1.85 0 0 1 1 0.44l-0.62 0.64a5.92 5.92 0 0 0 -0.84 1.07 2.12 2.12 0 0 0 -0.3 1 1.27 1.27 0 0 0 0.39 1.06 1.78 1.78 0 0 0 1.48 0.33 2.91 2.91 0 0 0 1.22 -0.57 7.52 7.52 0 0 0 1 -0.95 4.28 4.28 0 0 0 1.41 0.34 2.51 2.51 0 0 0 0.67 0 2.7 2.7 0 0 0 0.65 -0.17 4.07 4.07 0 0 0 1.3 -0.87 0.3 0.3 0 0 0 0.07 -0.39 0.29 0.29 0 0 0 -0.4 -0.07 5.34 5.34 0 0 1 -1.26 0.35c-0.24 0 -0.49 0.09 -0.74 0.12l-0.5 0.08a5.65 5.65 0 0 1 -0.82 0s0 -0.09 -0.05 -0.12a0.27 0.27 0 0 0 -0.39 0A12.07 12.07 0 0 1 13 15.2a2.26 2.26 0 0 1 -1 0.37 1.05 1.05 0 0 1 -0.69 -0.12 0.42 0.42 0 0 1 -0.14 -0.45 1.24 1.24 0 0 1 0.22 -0.56 4.64 4.64 0 0 1 0.75 -0.84c0.43 -0.43 0.87 -0.88 1.33 -1.3a7.87 7.87 0 0 1 0.92 -0.72 4.1 4.1 0 0 1 0.54 -0.3 1.42 1.42 0 0 1 0.51 -0.13 1.87 1.87 0 0 1 0.58 0c0.36 0.08 0.71 0.21 1.07 0.31a4.84 4.84 0 0 0 1 0.17 7.41 7.41 0 0 0 0.94 0 2.49 2.49 0 0 0 0.82 -0.16 5.86 5.86 0 0 0 1 -0.52l1.52 -0.95a0.31 0.31 0 0 0 0.11 -0.43 0.3 0.3 0 0 0 -0.48 -0.05l-1.56 0.86a5.88 5.88 0 0 1 -0.89 0.41 2.1 2.1 0 0 1 -0.56 0.08 7.53 7.53 0 0 1 -0.83 -0.07 4.8 4.8 0 0 1 -0.79 -0.19c-0.37 -0.12 -0.72 -0.28 -1.09 -0.38a2.94 2.94 0 0 0 -0.89 -0.12 2.63 2.63 0 0 0 -0.7 0.13 4.37 4.37 0 0 0 -0.86 0.44 7.22 7.22 0 0 0 -1.07 0.82l-0.26 0.26a2.53 2.53 0 0 0 -1.4 -0.76 4.88 4.88 0 0 0 -1.66 -0.06c-0.32 0 -0.81 0.2 -0.93 0.2a5.54 5.54 0 0 1 -0.76 -0.31c-0.52 -0.2 -1 -0.41 -1.57 -0.63a6.21 6.21 0 0 0 -1.28 -0.4 0.28 0.28 0 0 0 -0.24 0.31 0.29 0.29 0 0 0 0.25 0.2Z" fill="#020202" stroke-width="1"></path>
    <path d="M12 21.65a0.34 0.34 0 0 0 -0.42 -0.19 0.32 0.32 0 0 0 -0.19 0.41 0.85 0.85 0 0 1 -0.16 0.75 0.93 0.93 0 0 1 -0.62 0.4 0.93 0.93 0 0 1 -0.45 -0.09 1.2 1.2 0 0 1 -0.41 -0.26 1.33 1.33 0 0 1 -0.21 -0.26 0.42 0.42 0 0 1 -0.1 -0.2 0.6 0.6 0 0 1 0 -0.4 1.92 1.92 0 0 0 0.32 -0.43 0.91 0.91 0 0 1 0.16 -0.11 1.16 1.16 0 0 1 1.3 0 0.29 0.29 0 0 0 0.4 -0.41 1.78 1.78 0 0 0 -1.62 -0.47 1.8 1.8 0 0 0 -0.1 -0.4 0.32 0.32 0 0 0 -0.6 0.22 0.79 0.79 0 0 1 0 0.43 1.87 1.87 0 0 0 -0.68 0.69 0.29 0.29 0 0 1 -0.1 0 0.81 0.81 0 0 1 -0.52 -0.06 1 1 0 0 1 -0.39 -0.27 1.31 1.31 0 0 1 -0.22 -0.25 0.58 0.58 0 0 1 -0.1 -0.21 0.75 0.75 0 0 1 0.16 -0.63 1.07 1.07 0 0 0 0.18 -0.19l0.17 -0.12a1.2 1.2 0 0 1 1.31 0 0.28 0.28 0 0 0 0.39 -0.4 1.66 1.66 0 0 0 -1.41 -0.52A1.34 1.34 0 0 0 8 18a0.31 0.31 0 0 0 -0.4 -0.2 0.32 0.32 0 0 0 -0.2 0.41 0.91 0.91 0 0 1 -0.14 0.73 2 2 0 0 0 -0.53 0.38l-0.11 0.05a1 1 0 0 1 -0.45 -0.1 1.1 1.1 0 0 1 -0.42 -0.27 1.78 1.78 0 0 1 -0.22 -0.26 0.81 0.81 0 0 1 -0.1 -0.21 0.85 0.85 0 0 1 0.51 -0.93 1.16 1.16 0 0 1 1.3 0 0.29 0.29 0 0 0 0.41 0 0.28 0.28 0 0 0 0 -0.39 1.86 1.86 0 0 0 -2 -0.38 2 2 0 0 0 -0.44 0.23c-0.3 -0.3 -0.57 -0.62 -0.88 -0.93a5.45 5.45 0 0 0 -0.46 -0.38 5.54 5.54 0 0 0 -0.51 -0.33 7.78 7.78 0 0 0 -1.36 -0.6 0.32 0.32 0 1 0 -0.29 0.57c0.38 0.26 0.7 0.58 1.06 0.88s0.47 0.39 0.73 0.57a9.58 9.58 0 0 0 1.22 0.66 1.73 1.73 0 0 0 -0.32 1.23 1.37 1.37 0 0 0 0.19 0.51 2 2 0 0 0 0.44 0.53 2 2 0 0 0 0.83 0.46 2.7 2.7 0 0 0 0.41 0.07 1.6 1.6 0 0 0 0 0.44 1.57 1.57 0 0 0 0.19 0.51 2.22 2.22 0 0 0 0.43 0.53 2.13 2.13 0 0 0 0.84 0.46 2.37 2.37 0 0 0 0.64 0.07v0.08a1.63 1.63 0 0 0 0.19 0.52 2.44 2.44 0 0 0 0.43 0.53 2.34 2.34 0 0 0 0.84 0.46 1.93 1.93 0 0 0 1 0 1.84 1.84 0 0 0 1.03 -0.9 1.61 1.61 0 0 0 0.14 -1.35Z" fill="#020202" stroke-width="1"></path>
  </g>
</svg>