<svg xmlns="http://www.w3.org/2000/svg" viewBox="0 0 24 24" id="Security-Network-Chain--Streamline-Freehand">
  <desc>
    Security Network Chain Streamline Icon: https://streamlinehq.com
  </desc>
  <g>
    <path d="M13.42 16.12a2.13 2.13 0 0 0 -1.74 2.32 1.82 1.82 0 0 0 2.14 1.67A0.25 0.25 0 0 0 14 20a0.3 0.3 0 0 0 0.38 0.15 2.79 2.79 0 0 0 1 -0.56 1.76 1.76 0 0 0 0.48 -0.69 2 2 0 0 0 -0.43 -2 2.25 2.25 0 0 0 -2.01 -0.78Zm1.68 2.58a1.11 1.11 0 0 1 -0.33 0.52 2.21 2.21 0 0 1 -0.61 0.4 0.3 0.3 0 0 0 -0.13 0.09 0.26 0.26 0 0 0 -0.24 -0.13 1.18 1.18 0 0 1 -1.27 -1.2 1.25 1.25 0 0 1 1.1 -1.26 1.29 1.29 0 0 1 1.09 0.43 1.22 1.22 0 0 1 0.39 1.15Z" fill="#4C57E6" stroke-width="1"></path>
    <path d="M6.38 18.62a2.11 2.11 0 0 0 -1.74 2.31 1.82 1.82 0 0 0 2.15 1.67 0.24 0.24 0 0 0 0.21 -0.07 0.3 0.3 0 0 0 0.38 0.15 3.05 3.05 0 0 0 1 -0.56 1.91 1.91 0 0 0 0.48 -0.69 2 2 0 0 0 -0.44 -2 2.21 2.21 0 0 0 -2.04 -0.81Zm1.68 2.57a1.08 1.08 0 0 1 -0.34 0.53 2.46 2.46 0 0 1 -0.61 0.4L7 22.2a0.29 0.29 0 0 0 -0.25 -0.13 1.18 1.18 0 0 1 -1.26 -1.2 1.24 1.24 0 0 1 2.18 -0.82 1.2 1.2 0 0 1 0.39 1.14Z" fill="#4C57E6" stroke-width="1"></path>
    <path d="M23.2 17.88a3.33 3.33 0 0 0 -2.1 -1.13c0.13 -1.32 0.23 -2.65 0.24 -4l0 -2.7c0 -1.24 -0.12 -2.47 -0.13 -3.7a0.26 0.26 0 0 0 0.12 -0.24 0.28 0.28 0 0 0 -0.16 -0.23c-0.14 -0.27 -1.91 0.22 -2 -1.71a1.8 1.8 0 0 1 1.58 -1.87 1.84 1.84 0 0 1 1.62 0.7 1.77 1.77 0 0 1 0.54 1.69 1.66 1.66 0 0 1 -0.5 0.75 3.56 3.56 0 0 1 -0.86 0.55 0.28 0.28 0 0 0 -0.17 0.38 0.3 0.3 0 0 0 0.39 0.18A3.9 3.9 0 0 0 23 5.77a2.3 2.3 0 0 0 0.6 -0.88 2.57 2.57 0 0 0 -0.58 -2.56 2.82 2.82 0 0 0 -2.49 -1 2.7 2.7 0 0 0 -2.23 2.92 2.52 2.52 0 0 0 0.37 1.11c-0.69 0.45 -1.38 0.91 -2.06 1.41l-0.84 0.67c-0.27 0.24 -0.54 0.48 -0.79 0.73 -0.49 0.49 -0.93 1 -1.36 1.52a3 3 0 0 0 -2.4 -0.76 3.29 3.29 0 0 0 -1.68 0.91C9.03 9.3 8.6 8.78 8.17 8.3S7.44 7.47 7 7.07A19 19 0 0 0 5.23 5.6a2.2 2.2 0 0 0 0.45 -0.71 2.57 2.57 0 0 0 -0.57 -2.56 2.84 2.84 0 0 0 -2.5 -1A2.7 2.7 0 0 0 0.38 4.25a2.34 2.34 0 0 0 2.73 2.17 0.27 0.27 0 0 0 0.24 -0.28 0.26 0.26 0 0 0 -0.28 -0.25A1.7 1.7 0 0 1 1.22 4.2a1.81 1.81 0 0 1 1.59 -1.87A1.85 1.85 0 0 1 4.42 3 1.74 1.74 0 0 1 5 4.66 2.48 2.48 0 0 1 3.59 6a0.29 0.29 0 0 0 -0.17 0.38 0.3 0.3 0 0 0 0.39 0.18A4 4 0 0 0 4.75 6c0.51 0.55 0.94 1.07 1.38 1.55s0.76 0.83 1.17 1.22a21 21 0 0 0 1.86 1.61 3 3 0 0 0 -0.41 1.8 1.87 1.87 0 0 0 0 0.25c-0.33 0 -0.75 0.07 -1.2 0.15 -0.22 0 -0.44 0.08 -0.66 0.14l-0.64 0.2c-0.32 0.12 -0.61 0.25 -0.85 0.36a2.79 2.79 0 0 0 -0.7 -1.56 2.81 2.81 0 0 0 -2.49 -1A2.7 2.7 0 0 0 0 13.65a2.35 2.35 0 0 0 2.73 2.17 0.27 0.27 0 0 0 0.27 -0.29 0.27 0.27 0 0 0 -0.28 -0.24 1.72 1.72 0 0 1 -1.86 -1.7 1.81 1.81 0 0 1 1.59 -1.86 1.87 1.87 0 0 1 1.61 0.63 1.76 1.76 0 0 1 0.54 1.69 1.69 1.69 0 0 1 -0.5 0.76 3.23 3.23 0 0 1 -0.86 0.54 0.29 0.29 0 0 0 -0.17 0.39 0.31 0.31 0 0 0 0.39 0.17 3.86 3.86 0 0 0 1.27 -0.74 2.36 2.36 0 0 0 0.59 -0.88c0 -0.09 0.05 -0.17 0.07 -0.25a11.94 11.94 0 0 0 1.39 -0.22 8.94 8.94 0 0 0 1 -0.29c0.47 -0.15 0.89 -0.32 1.21 -0.43a2.56 2.56 0 0 0 2.79 1.52 0.27 0.27 0 1 0 0 -0.53 2 2 0 0 1 -2.16 -1.95 2.12 2.12 0 0 1 1.84 -2.2 2.19 2.19 0 0 1 1.89 0.75 2.06 2.06 0 0 1 0.61 2 1.83 1.83 0 0 1 -0.59 0.87 3.2 3.2 0 0 1 -1 0.62 0.29 0.29 0 0 0 -0.16 0.39 0.28 0.28 0 0 0 0.38 0.17 4.23 4.23 0 0 0 1.41 -0.86 2.56 2.56 0 0 0 0.67 -1 2.84 2.84 0 0 0 -0.59 -2.76c0.51 -0.42 1 -0.82 1.57 -1.24l0.8 -0.68 0.79 -0.7c0.61 -0.56 1.21 -1.13 1.82 -1.67a2.27 2.27 0 0 0 1.53 0.61c-0.14 1.37 -0.25 2.73 -0.27 4.1l0 2.7c0 1.18 0.08 2.35 0.08 3.53A3 3 0 0 0 17.93 20 2.63 2.63 0 0 0 21 22.44a0.27 0.27 0 0 0 0.24 -0.28 0.26 0.26 0 0 0 -0.28 -0.25A2 2 0 0 1 18.78 20a2.12 2.12 0 0 1 1.85 -2.2 2.19 2.19 0 0 1 1.88 0.75 2.06 2.06 0 0 1 0.61 2 2 2 0 0 1 -0.58 0.87 3.45 3.45 0 0 1 -1 0.62 0.31 0.31 0 0 0 -0.18 0.39 0.3 0.3 0 0 0 0.39 0.17 4 4 0 0 0 1.42 -0.84 2.46 2.46 0 0 0 0.67 -1 2.84 2.84 0 0 0 -0.64 -2.88Z" fill="#020202" stroke-width="1"></path>
    <path d="M12 5.81a0.38 0.38 0 0 0 0.17 -0.08 0.29 0.29 0 0 0 0.38 0.15 2.82 2.82 0 0 0 1 -0.56 1.73 1.73 0 0 0 0.45 -0.69 2 2 0 0 0 -0.43 -2 2.26 2.26 0 0 0 -2 -0.79A2.14 2.14 0 0 0 9.8 4.13 1.83 1.83 0 0 0 12 5.81Zm-0.2 -3a1.25 1.25 0 0 1 1.08 0.43 1.19 1.19 0 0 1 0.39 1.15 1.11 1.11 0 0 1 -0.33 0.52 2.46 2.46 0 0 1 -0.61 0.4 0.36 0.36 0 0 0 -0.12 0.08 0.27 0.27 0 0 0 -0.25 -0.12 1.2 1.2 0 0 1 -1.27 -1.2 1.25 1.25 0 0 1 1.06 -1.25Z" fill="#4C57E6" stroke-width="1"></path>
  </g>
</svg>