<svg xmlns="http://www.w3.org/2000/svg" viewBox="0 0 24 24" id="Select-Invert-Frame--Streamline-Freehand">
  <desc>
    Select Invert Frame Streamline Icon: https://streamlinehq.com
  </desc>
  <g>
    <path d="M15.29 7.23a2.32 2.32 0 0 0 1.1 0.43 10.52 10.52 0 0 0 1.87 0.09c1.83 -0.06 3.86 -0.47 4.07 -0.75a0.41 0.41 0 0 0 0 -0.59c-0.25 -0.23 -0.44 0 -0.83 0a16 16 0 0 1 -1.93 0A24.07 24.07 0 0 1 17 6.15C16.23 6 16.33 6 16.33 6l-0.08 -0.4a9.13 9.13 0 0 1 -0.09 -0.92L16 0.47a0.47 0.47 0 0 0 -0.49 -0.47 0.48 0.48 0 0 0 -0.51 0.47l-0.35 4.2a6.23 6.23 0 0 0 0.1 1.63 1.86 1.86 0 0 0 0.54 0.93Z" fill="#020202" fill-rule="evenodd" stroke-width="1"></path>
    <path d="M8.94 0.88a0.48 0.48 0 0 0 -0.94 0l-0.18 4.19a6.93 6.93 0 0 1 -0.1 0.92 1.71 1.71 0 0 1 0 0.4c0 0.08 -0.39 0.11 -0.7 0.16a24.53 24.53 0 0 1 -2.52 0.28C1.64 7 2 6.53 1.68 6.82a0.42 0.42 0 0 0 0 0.59 10.67 10.67 0 0 0 4.07 0.75 11.76 11.76 0 0 0 1.88 -0.09 2.31 2.31 0 0 0 1.09 -0.44 1.82 1.82 0 0 0 0.48 -0.93 7.16 7.16 0 0 0 0.1 -1.63Z" fill="#020202" fill-rule="evenodd" stroke-width="1"></path>
    <path d="m22 16.19 -4.19 -0.35a6.23 6.23 0 0 0 -1.63 0.1 1.86 1.86 0 0 0 -0.93 0.51 2.32 2.32 0 0 0 -0.43 1.1 10.52 10.52 0 0 0 -0.09 1.87c0 1.82 0.47 3.86 0.75 4.07a0.41 0.41 0 0 0 0.59 0c0.23 -0.26 0 -0.44 0 -0.83a16 16 0 0 1 0 -1.93 24.07 24.07 0 0 1 0.27 -2.52c0.14 -0.8 -0.13 -0.65 0.56 -0.76a9.13 9.13 0 0 1 0.92 -0.09l4.18 -0.22a0.47 0.47 0 0 0 0.48 -0.47 0.48 0.48 0 0 0 -0.48 -0.48Z" fill="#020202" fill-rule="evenodd" stroke-width="1"></path>
    <path d="M8.74 16.86a1.86 1.86 0 0 0 -0.93 -0.52 6.23 6.23 0 0 0 -1.63 -0.1L2 16.6a0.48 0.48 0 1 0 0 0.95l4.19 0.17a7.11 7.11 0 0 1 0.92 0.1c0.69 0.11 0.42 -0.06 0.56 0.75a22.14 22.14 0 0 1 0.27 2.52c0.15 2.75 -0.27 2.48 0 2.77a0.41 0.41 0 0 0 0.59 0c0.28 -0.2 0.7 -2.24 0.75 -4.06a10.69 10.69 0 0 0 -0.11 -1.8 2.22 2.22 0 0 0 -0.43 -1.14Z" fill="#020202" fill-rule="evenodd" stroke-width="1"></path>
  </g>
</svg>