<svg xmlns="http://www.w3.org/2000/svg" viewBox="0 0 24 24" id="Send-Email-Monitor--Streamline-Freehand">
  <desc>
    Send Email Monitor Streamline Icon: https://streamlinehq.com
  </desc>
  <g>
    <path d="M23.56 5.05a0.93 0.93 0 0 0 -0.43 -0.19 3.76 3.76 0 0 0 -0.59 0l-1.82 0.18c-1 0.08 -2 0.13 -3.08 0.15 -1.55 0 -4.18 -0.29 -4.64 0a7.91 7.91 0 0 0 -0.94 1.71l-2 3.59a4.69 4.69 0 0 0 -0.49 1.31 0.94 0.94 0 0 0 0.47 1 1.58 1.58 0 0 0 0.53 0.14 7.45 7.45 0 0 0 0.82 0h2.15c1.66 0 3.35 0.25 5 0.32a20.55 20.55 0 0 0 2.22 0 1.23 1.23 0 0 0 0.89 -0.52 6.32 6.32 0 0 0 0.59 -1.34l1.51 -4.1A4.26 4.26 0 0 0 24 6.07a1.31 1.31 0 0 0 -0.44 -1.02ZM17.65 6l3.12 0 0.95 -0.07 -3.14 2.15c-0.22 0.15 -0.6 0.48 -1 0.72 -0.18 0.11 -0.33 0.22 -0.47 0.19l-0.57 -0.61 -1.9 -1.87c-0.12 -0.13 -0.32 -0.4 -0.55 -0.62 1.2 0.04 2.38 0.11 3.56 0.11Zm5.35 0.2a3.26 3.26 0 0 1 -0.23 0.78l-1.6 4.08c-0.06 0.15 -0.36 0.67 -0.5 1a0.22 0.22 0 0 1 -0.2 0.14l-1.91 0c-1.69 -0.09 -3.39 -0.29 -5.06 -0.33h-2.9A4.74 4.74 0 0 1 11 11s2.37 -4.15 2.44 -4.43L16 9c0.12 0.11 0.33 0.37 0.54 0.55a1.06 1.06 0 0 0 0.48 0.25 1.34 1.34 0 0 0 0.86 -0.21A12.9 12.9 0 0 0 19 8.75s3.76 -2.76 4 -3a0.54 0.54 0 0 1 0 0.45Z" fill="#4C57E6" stroke-width="1"></path>
    <path d="M8.05 7.18a0.35 0.35 0 0 0 0.34 -0.35 0.35 0.35 0 0 0 -0.39 -0.34c-1.67 -0.2 -4.1 0.15 -4.16 0.5a0.31 0.31 0 0 0 0.25 0.36C6 8 7 7.37 8.05 7.18Z" fill="#4C57E6" stroke-width="1"></path>
    <path d="M2.85 9.79a0.3 0.3 0 0 0 0.33 0.28c0.66 0 1.31 0.11 2 0.13l0.84 0 0.84 -0.07c0.66 -0.06 1.31 -0.15 2 -0.22a0.35 0.35 0 0 0 0 -0.7c-0.66 -0.06 -1.32 -0.14 -2 -0.18C6.53 9 6.25 9 6 9s-0.57 0 -0.85 0.06c-0.68 0.09 -1.32 0.24 -2 0.38a0.3 0.3 0 0 0 -0.3 0.35Z" fill="#4C57E6" stroke-width="1"></path>
    <path d="M6.92 14.79c-1.44 0 -3 -0.21 -4.43 -0.1l-0.71 0c-0.15 -0.79 -0.3 -1.57 -0.42 -2.36a18.86 18.86 0 0 1 -0.18 -2l0 -2.48c0 -0.82 0.13 -1.65 0.24 -2.48a5.73 5.73 0 0 1 0.2 -1.09 1.27 1.27 0 0 1 0.46 -0.69A4.49 4.49 0 0 1 3.57 3a25.66 25.66 0 0 1 2.57 -0.46c1 -0.17 2.08 -0.29 3.12 -0.39C10.83 2 12.41 1.89 14 1.8c0.69 0 1.4 -0.07 2.09 -0.05q0.69 0 1.38 0.09a6.45 6.45 0 0 1 0.73 0.11 1.36 1.36 0 0 1 0.4 0.14 1.73 1.73 0 0 1 0.69 0.56 2.18 2.18 0 0 1 0.18 0.91 0.31 0.31 0 0 0 0.32 0.29 0.3 0.3 0 0 0 0.29 -0.32 2.7 2.7 0 0 0 -0.23 -1.19 2.31 2.31 0 0 0 -0.92 -0.83 2.18 2.18 0 0 0 -0.57 -0.22c-0.27 -0.07 -0.55 -0.1 -0.8 -0.14 -0.47 -0.07 -1 -0.11 -1.44 -0.14C15.39 1 14.67 1 14 1c-1.6 0 -3.19 0.08 -4.78 0.18 -1.06 0.07 -2.13 0.16 -3.19 0.31 -0.88 0.12 -1.82 0.2 -2.7 0.41a5.84 5.84 0 0 0 -1.8 0.76 2.33 2.33 0 0 0 -0.81 1 6.06 6.06 0 0 0 -0.41 1.58c-0.12 0.85 -0.2 1.7 -0.25 2.56S0 9.52 0 10.38a16.69 16.69 0 0 0 0.2 2.13c0.15 1 0.38 2.06 0.58 3.09a6.22 6.22 0 0 0 0.46 1.57 2.36 2.36 0 0 0 0.86 1 5.48 5.48 0 0 0 1.9 0.62 20.64 20.64 0 0 0 2.83 0.21l2.58 0A5.84 5.84 0 0 0 9 20a6.42 6.42 0 0 0 -0.14 0.86c0 0.42 0 0.79 -0.07 1.07 -0.85 0.1 -1.69 0.23 -2.51 0.38a0.31 0.31 0 0 0 0.07 0.61l2 0L9.8 23c0.49 0 1 0 1.45 0.05s0.92 0 1.41 0c1 0 2.12 -0.18 3.22 -0.26a0.35 0.35 0 0 0 0.34 -0.35 0.35 0.35 0 0 0 -0.35 -0.35L13.63 22c0 -0.29 -0.07 -0.64 -0.14 -1a6.52 6.52 0 0 0 -0.22 -0.87 7.51 7.51 0 0 0 -0.54 -1.13c6 -0.11 6.85 0.27 7.18 -1.32 0.73 -3.6 0.14 -2.68 -12.99 -2.89Zm5.2 5.38a3.65 3.65 0 0 0 0.13 0.55 4.72 4.72 0 0 0 0.18 0.53c0.1 0.24 0.2 0.45 0.29 0.65l-1.42 -0.06 -1.62 0a7 7 0 0 0 0.28 -0.75 3.29 3.29 0 0 0 0.14 -0.54 3.6 3.6 0 0 0 0.07 -0.55l0 -1.06 1.84 0c0.04 0.31 0.04 0.74 0.11 1.23Zm7.08 -2.69a0.91 0.91 0 0 1 -0.27 0.52l-0.75 0 -1.27 0 -1.95 0 -4.87 0c-1.09 0 -2.15 0 -3.23 -0.06a20 20 0 0 1 -2.65 -0.2 4.27 4.27 0 0 1 -1.52 -0.55 1.15 1.15 0 0 1 -0.43 -0.52A3.65 3.65 0 0 1 2 15.8a43.86 43.86 0 0 1 4.89 0.2l6.8 0.2c1.09 0.06 2.29 0 3.46 0.07a15.37 15.37 0 0 1 1.71 0.21l0.35 0a4.57 4.57 0 0 1 -0.01 1Z" fill="#020202" stroke-width="1"></path>
  </g>
</svg>