<svg xmlns="http://www.w3.org/2000/svg" viewBox="0 0 24 24" id="Server-Check--Streamline-Freehand">
  <desc>
    Server Check Streamline Icon: https://streamlinehq.com
  </desc>
  <g>
    <path d="M5.9 11.66a0.89 0.89 0 0 0 -0.2 -1.19 0.79 0.79 0 0 0 -1 1.24c0.37 0.43 0.84 0.29 1.2 -0.05Z" fill="#4C57E6" fill-rule="evenodd" stroke-width="1"></path>
    <path d="M4.73 16.61c0.34 0.43 0.81 0.33 1.16 -0.06a0.86 0.86 0 0 0 -0.19 -1.18 0.79 0.79 0 0 0 -0.97 1.24Z" fill="#4C57E6" fill-rule="evenodd" stroke-width="1"></path>
    <path d="M4.83 21.24c0.35 0.42 0.81 0.33 1.17 -0.06A0.87 0.87 0 0 0 5.8 20a0.79 0.79 0 0 0 -0.97 1.24Z" fill="#4C57E6" fill-rule="evenodd" stroke-width="1"></path>
    <path d="M3.36 11.88a0.87 0.87 0 0 0 -0.19 -1.19 0.79 0.79 0 0 0 -1 1.24c0.37 0.43 0.83 0.33 1.19 -0.05Z" fill="#4C57E6" fill-rule="evenodd" stroke-width="1"></path>
    <path d="M2.3 16.59a0.72 0.72 0 0 0 1.17 -0.06 0.86 0.86 0 0 0 -0.19 -1.18 0.8 0.8 0 0 0 -0.98 1.24Z" fill="#4C57E6" fill-rule="evenodd" stroke-width="1"></path>
    <path d="M2.41 21.21c0.34 0.43 0.81 0.33 1.16 -0.05A0.86 0.86 0 0 0 3.38 20a0.79 0.79 0 0 0 -0.97 1.21Z" fill="#4C57E6" fill-rule="evenodd" stroke-width="1"></path>
    <path d="M14.93 13.57c-0.33 6.25 -0.36 8.3 -0.84 8.75a3.27 3.27 0 0 1 -1.46 0.57c-0.62 0.09 -0.47 0.06 -8.11 -0.05 -0.49 0 -2.77 0.12 -3 -0.4 -0.42 -0.81 -0.39 -3.14 -0.4 -4.05 0.42 0.08 0.52 0 0.84 0a38.75 38.75 0 0 0 7.68 0.36c1.16 -0.09 4.32 -0.24 4.59 -0.63 0.14 -0.2 0.13 -0.37 -0.09 -0.5a5.79 5.79 0 0 0 -1.64 0.1c-2.23 0 -9.1 -0.12 -11.32 0.05 -0.11 0 -0.06 0.58 -0.17 -6.65C1 9.9 1.14 9.91 0.94 9.75a0.28 0.28 0 0 0 -0.36 0c-0.27 0.19 -0.21 0.47 -0.45 10.38a8 8 0 0 0 0.38 2.81c0.56 1.17 2.72 1.07 4 1.07 7.37 0 7.72 0.05 8.55 -0.14a3.73 3.73 0 0 0 1.79 -1c0.73 -0.87 0.6 -3.1 0.75 -9.3a0.34 0.34 0 0 0 -0.67 0Z" fill="#020202" fill-rule="evenodd" stroke-width="1"></path>
    <path d="M2 9.3a59.26 59.26 0 0 0 9.21 -0.3 0.3 0.3 0 0 0 0 -0.6 33.55 33.55 0 0 0 -4.64 -0.22c-2 0.06 -4.42 0.4 -4.59 0.41A0.34 0.34 0 0 0 2 9.3Z" fill="#020202" fill-rule="evenodd" stroke-width="1"></path>
    <path d="M13 13.88a0.34 0.34 0 0 0 0 -0.68s-4.52 -0.13 -5.43 -0.14c-1.21 0 -4.95 0.08 -5.27 0.13a0.3 0.3 0 0 0 -0.16 0.58c0.08 0 3.74 0.44 5.43 0.44 2.09 -0.01 3.98 -0.21 5.43 -0.33Z" fill="#020202" fill-rule="evenodd" stroke-width="1"></path>
    <path d="M22.56 2a5.71 5.71 0 0 0 -9.14 0.57c-1.62 2.39 -0.78 5.89 0.83 6.93a0.3 0.3 0 0 0 0.33 -0.5c-1.28 -0.9 -1.86 -4 -0.41 -5.89a4.82 4.82 0 0 1 7.51 -0.39c2.37 2.81 1 7.08 -3.21 7.57a5.53 5.53 0 0 1 -2.29 -0.16 0.34 0.34 0 0 0 -0.21 0.64 6.18 6.18 0 0 0 2.57 0.28A5.47 5.47 0 0 0 22.56 2Z" fill="#020202" fill-rule="evenodd" stroke-width="1"></path>
    <path d="M16.84 7.87c1.16 0.06 2.46 -3.07 2.94 -4.09a1 1 0 0 0 0.27 -0.57 0.35 0.35 0 0 0 -0.64 -0.21c-0.24 0.28 -2.68 3.83 -2.62 3.91 -0.19 0 -1.17 -1.14 -1.32 -1.24s-0.57 0.17 -0.35 0.51c0.39 0.62 1.06 1.65 1.72 1.69Z" fill="#020202" fill-rule="evenodd" stroke-width="1"></path>
  </g>
</svg>