<svg xmlns="http://www.w3.org/2000/svg" viewBox="0 0 24 24" id="Server-Favorite-Heart--Streamline-Freehand">
  <desc>
    Server Favorite Heart Streamline Icon: https://streamlinehq.com
  </desc>
  <g>
    <path d="M23.15 1.55a3.12 3.12 0 0 0 -3.68 -0.14 4 4 0 0 0 -1.31 1.11 4.14 4.14 0 0 0 -0.51 -0.58 2.39 2.39 0 0 0 -2.15 -0.85 4.62 4.62 0 0 0 -2.07 0.73C11.81 3 12.26 5.36 13.62 7a15.34 15.34 0 0 0 4.15 3.14 0.27 0.27 0 0 0 0.23 -0.44 16 16 0 0 1 -3.83 -3.14 3.8 3.8 0 0 1 -0.83 -3.17 2.24 2.24 0 0 1 1.96 -1.26 1.5 1.5 0 0 1 1.63 0.55c0.61 0.59 0.49 0.77 0.78 1.08a0.57 0.57 0 0 0 0.95 -0.1c0.08 -0.11 0.15 -0.32 0.21 -0.39A3.39 3.39 0 0 1 20.66 2a1.74 1.74 0 0 1 2.42 2.06c-0.49 2.11 -2.32 3.84 -4.1 5a0.3 0.3 0 0 0 0.33 0.51A12.52 12.52 0 0 0 23 6.29c1 -1.58 1.57 -3.49 0.15 -4.74Z" fill="#020202" fill-rule="evenodd" stroke-width="1"></path>
    <path d="M5.68 11a0.86 0.86 0 0 0 -0.19 -1.2 0.78 0.78 0 0 0 -1 1.21c0.38 0.42 0.84 0.33 1.19 -0.01Z" fill="#4C57E6" fill-rule="evenodd" stroke-width="1"></path>
    <path d="M4.53 15.83c0.34 0.42 0.8 0.33 1.15 -0.05a0.85 0.85 0 0 0 -0.2 -1.16 0.77 0.77 0 0 0 -0.95 1.21Z" fill="#4C57E6" fill-rule="evenodd" stroke-width="1"></path>
    <path d="M4.63 20.39c0.34 0.42 0.8 0.32 1.15 -0.06a0.86 0.86 0 0 0 -0.19 -1.16 0.78 0.78 0 0 0 -0.96 1.22Z" fill="#4C57E6" fill-rule="evenodd" stroke-width="1"></path>
    <path d="M3.19 11.18A0.86 0.86 0 0 0 3 10a0.78 0.78 0 0 0 -1 1.22c0.38 0.43 0.84 0.33 1.19 -0.04Z" fill="#4C57E6" fill-rule="evenodd" stroke-width="1"></path>
    <path d="M2.14 15.81c0.34 0.42 0.8 0.33 1.15 -0.05a0.85 0.85 0 0 0 -0.19 -1.17 0.78 0.78 0 0 0 -0.96 1.22Z" fill="#4C57E6" fill-rule="evenodd" stroke-width="1"></path>
    <path d="M2.25 20.37c0.34 0.42 0.79 0.32 1.14 -0.06a0.84 0.84 0 0 0 -0.19 -1.16 0.78 0.78 0 0 0 -0.95 1.22Z" fill="#4C57E6" fill-rule="evenodd" stroke-width="1"></path>
    <path d="M14.57 12.85c-0.32 6.14 -0.36 8.16 -0.83 8.6a3.17 3.17 0 0 1 -1.43 0.57c-0.61 0.08 -0.48 0.06 -8 -0.05 -0.47 0 -2.72 0.11 -3 -0.4 -0.41 -0.79 -0.38 -3.08 -0.39 -4a6 6 0 0 0 0.83 0 37.55 37.55 0 0 0 7.6 0.43c1.14 -0.09 4.24 -0.24 4.51 -0.62 0.14 -0.2 0.13 -0.36 -0.09 -0.49a5.6 5.6 0 0 0 -1.61 0.1c-2.19 0 -9 -0.12 -11.14 0.05 -0.11 0 -0.06 0.57 -0.17 -6.55 0 -1.22 0.15 -1.21 0 -1.37a0.28 0.28 0 0 0 -0.35 0c-0.32 0.13 -0.26 0.41 -0.5 10.16a7.81 7.81 0 0 0 0.38 2.77c0.55 1.15 2.68 1.05 3.94 1.05 7.26 0 7.61 0 8.42 -0.14a3.68 3.68 0 0 0 1.77 -0.96c0.72 -0.86 0.58 -3.06 0.73 -9.16a0.34 0.34 0 0 0 -0.67 0.01Z" fill="#020202" fill-rule="evenodd" stroke-width="1"></path>
    <path d="M1.84 8.64a57.61 57.61 0 0 0 9.07 -0.27 0.29 0.29 0 0 0 0 -0.58 32.42 32.42 0 0 0 -4.56 -0.22C4.39 7.63 2 8 1.84 8a0.34 0.34 0 0 0 0 0.64Z" fill="#020202" fill-rule="evenodd" stroke-width="1"></path>
    <path d="M12.66 13.15a0.34 0.34 0 0 0 0 -0.67l-5.35 -0.14c-1.2 0 -4.88 0.07 -5.19 0.13A0.3 0.3 0 0 0 2 13c0.08 0 3.68 0.44 5.35 0.43 2.06 0.03 3.92 -0.16 5.31 -0.28Z" fill="#020202" fill-rule="evenodd" stroke-width="1"></path>
  </g>
</svg>