<svg xmlns="http://www.w3.org/2000/svg" viewBox="0 0 24 24" id="Server-Disable--Streamline-Freehand">
  <desc>
    Server Disable Streamline Icon: https://streamlinehq.com
  </desc>
  <g>
    <path d="M22.78 2.17c-2 -2.56 -5.8 -2.53 -8.08 -0.92a0.34 0.34 0 0 0 0.38 0.56C17.09 0.5 20.34 0.53 22 2.76a4.91 4.91 0 0 1 -2.84 7.64 4.65 4.65 0 0 1 -3.88 -0.8c0.41 -0.6 1.78 -1.86 3 -3.42 0.84 -1.11 1.59 -2.3 2.51 -3.3a0.34 0.34 0 0 0 -0.48 -0.48 33.82 33.82 0 0 0 -5.56 6.75c-1.46 -1.4 -2 -4.39 -0.9 -5.77a0.3 0.3 0 0 0 -0.49 -0.38c-1.12 1.27 -0.95 3.62 -0.36 5.1a5.67 5.67 0 0 0 6.42 3.38 5.87 5.87 0 0 0 3.36 -9.31Z" fill="#020202" fill-rule="evenodd" stroke-width="1"></path>
    <path d="M6 11.07a0.9 0.9 0 0 0 -0.2 -1.23 0.83 0.83 0 0 0 -1 1.29 0.74 0.74 0 0 0 1.2 -0.06Z" fill="#4C57E6" fill-rule="evenodd" stroke-width="1"></path>
    <path d="M4.77 16.21c0.36 0.44 0.84 0.34 1.21 -0.06a0.91 0.91 0 0 0 -0.2 -1.23 0.83 0.83 0 0 0 -1.01 1.29Z" fill="#4C57E6" fill-rule="evenodd" stroke-width="1"></path>
    <path d="M4.88 21c0.36 0.44 0.84 0.34 1.21 -0.06a0.91 0.91 0 0 0 -0.2 -1.23A0.83 0.83 0 0 0 4.88 21Z" fill="#4C57E6" fill-rule="evenodd" stroke-width="1"></path>
    <path d="M3.36 11.3a0.91 0.91 0 0 0 -0.21 -1.23 0.82 0.82 0 0 0 -1 1.29c0.35 0.44 0.85 0.34 1.21 -0.06Z" fill="#4C57E6" fill-rule="evenodd" stroke-width="1"></path>
    <path d="M2.26 16.18c0.36 0.45 0.84 0.34 1.21 -0.06a0.89 0.89 0 0 0 -0.2 -1.22 0.82 0.82 0 0 0 -1.01 1.28Z" fill="#4C57E6" fill-rule="evenodd" stroke-width="1"></path>
    <path d="M2.37 21c0.35 0.44 0.84 0.34 1.21 -0.06a0.9 0.9 0 0 0 -0.21 -1.22 0.82 0.82 0 0 0 -1 1.28Z" fill="#4C57E6" fill-rule="evenodd" stroke-width="1"></path>
    <path d="M15.35 13.06c-0.34 6.48 -0.37 8.61 -0.87 9.06a3.26 3.26 0 0 1 -1.51 0.6c-0.64 0.09 -0.49 0.06 -8.42 0 -0.5 0 -2.86 0.12 -3.13 -0.42C1 21.42 1 19 1 18.05a6.68 6.68 0 0 0 0.87 0 39.69 39.69 0 0 0 8 0.38c1.2 -0.1 4.47 -0.25 4.76 -0.66a0.31 0.31 0 0 0 -0.1 -0.51 5.78 5.78 0 0 0 -1.69 0.1c-2.32 0 -9.45 -0.13 -11.75 0.05 -0.11 0 -0.06 0.6 -0.18 -6.9 0 -1.29 0.17 -1.27 -0.05 -1.44a0.28 0.28 0 0 0 -0.36 0c-0.29 0.2 -0.22 0.49 -0.48 10.76a8.19 8.19 0 0 0 0.4 2.92C1 24 3.22 23.86 4.55 23.87c7.65 0 8 0.05 8.88 -0.15a3.89 3.89 0 0 0 1.86 -1c0.75 -0.9 0.61 -3.2 0.77 -9.65a0.36 0.36 0 0 0 -0.71 -0.01Z" fill="#020202" fill-rule="evenodd" stroke-width="1"></path>
    <path d="M1.94 8.63a63.1 63.1 0 0 0 9.55 -0.28 0.31 0.31 0 0 0 0 -0.62 36 36 0 0 0 -4.8 -0.24c-2.09 0.07 -4.59 0.42 -4.76 0.43a0.36 0.36 0 0 0 0.01 0.71Z" fill="#020202" fill-rule="evenodd" stroke-width="1"></path>
    <path d="M13.34 13.38a0.36 0.36 0 0 0 0 -0.71s-4.69 -0.13 -5.64 -0.14c-1.26 0 -5.14 0.07 -5.47 0.13a0.31 0.31 0 0 0 -0.16 0.6c0.08 0 3.88 0.46 5.63 0.45 2.19 -0.01 4.15 -0.21 5.64 -0.33Z" fill="#020202" fill-rule="evenodd" stroke-width="1"></path>
  </g>
</svg>