<svg xmlns="http://www.w3.org/2000/svg" viewBox="0 0 24 24" id="Settings-Cog-Search--Streamline-Freehand">
  <desc>
    Settings Cog Search Streamline Icon: https://streamlinehq.com
  </desc>
  <g>
    <path d="M22 21a2.9 2.9 0 0 0 -0.68 -1.34 17.69 17.69 0 0 0 -1.32 -1.3c-0.37 -0.36 -0.73 -0.75 -1.12 -1.11a6.64 6.64 0 0 0 -0.71 -0.58 13.25 13.25 0 0 0 1.55 -1.47 7.15 7.15 0 0 0 1.15 -2.46 11.33 11.33 0 0 0 0.39 -2.65 10.25 10.25 0 0 0 -2.18 -6.49A9.08 9.08 0 0 0 13.17 0.06a8.66 8.66 0 0 0 -2.68 0.11A12.75 12.75 0 0 0 8 0.94a10.34 10.34 0 0 0 -5.64 6.43A8.5 8.5 0 0 0 4 15.67a8.54 8.54 0 0 0 4 2.47 11.74 11.74 0 0 0 4.64 0.4 11.08 11.08 0 0 0 1.81 -0.3 5.72 5.72 0 0 0 0.68 -0.28c0.14 0.5 0.3 1 0.47 1.48s0.48 1.22 0.74 1.82a10.7 10.7 0 0 0 0.66 1.41 3.32 3.32 0 0 0 0.77 0.89 2.69 2.69 0 0 0 2.9 0A2.47 2.47 0 0 0 22 21Zm-1.94 1.51a1.5 1.5 0 0 1 -1.6 0.08 2.48 2.48 0 0 1 -0.56 -0.56 13.09 13.09 0 0 1 -0.73 -1.22c-0.36 -0.68 -0.72 -1.36 -1 -2.06 -0.17 -0.37 -0.32 -0.75 -0.47 -1.13a0.33 0.33 0 0 0 0 -0.33c-0.26 -0.43 -0.87 0.14 -1.46 0.28a10.54 10.54 0 0 1 -1.7 0.24 11.15 11.15 0 0 1 -4.33 -0.48A7.92 7.92 0 0 1 4.69 15a7.54 7.54 0 0 1 -1.22 -7.28 9.23 9.23 0 0 1 5 -5.67 10.92 10.92 0 0 1 2.25 -0.7A7.45 7.45 0 0 1 13 1.23a8 8 0 0 1 5.23 3 9.38 9.38 0 0 1 2.06 5.83 10.4 10.4 0 0 1 -0.29 2.46 6.32 6.32 0 0 1 -1 2.21 13.49 13.49 0 0 1 -1.47 1.43 3.9 3.9 0 0 1 -1.09 0.69 0.35 0.35 0 0 0 -0.23 0.45 0.34 0.34 0 0 0 0.44 0.23 3 3 0 0 0 0.84 -0.44 5.13 5.13 0 0 1 0.72 0.68c0.36 0.38 0.69 0.79 1 1.18s0.88 0.86 1.23 1.34a1.78 1.78 0 0 1 0.38 0.89 1.35 1.35 0 0 1 -0.73 1.36Z" fill="#4C57E6" fill-rule="evenodd" stroke-width="1"></path>
    <path d="M16.76 13.43a5.19 5.19 0 0 0 0.4 -0.76 2.59 2.59 0 0 0 0.36 -0.87 0.79 0.79 0 0 0 -0.1 -0.54 2.24 2.24 0 0 0 -0.49 -0.48c-0.35 -0.23 -0.77 -0.42 -1.06 -0.61a0.32 0.32 0 0 0 -0.45 0 0.31 0.31 0 0 0 0 0.44c0.19 0.23 0.47 0.48 0.73 0.74s0.15 0.34 -0.08 0.7c-0.39 0.84 -0.22 0.67 -0.4 0.65l-1.17 -0.07a0.32 0.32 0 0 0 -0.36 0 4.06 4.06 0 0 0 -1 0.36 0.28 0.28 0 0 0 -0.22 0.17 0.28 0.28 0 0 0 -0.06 0.09l-0.44 1a0.22 0.22 0 0 0 0 0.09c-1.22 0.11 -1.16 0.23 -1.5 -0.3 -0.14 -0.21 -0.25 -0.43 -0.38 -0.66l-0.08 -0.08a0.33 0.33 0 0 0 -0.27 -0.21c-0.21 -0.1 -1 -0.42 -1.18 -0.48a0.33 0.33 0 0 0 -0.45 0s0 0.06 0 0.09l-0.67 0c-0.27 0 -0.08 0.19 -0.44 -0.28l-0.29 -0.41C7.1 12 7 12 7 11.87a0.33 0.33 0 0 1 0 -0.19l0.2 -0.29 0.34 -0.46a0.38 0.38 0 0 0 0.1 -0.27 0.34 0.34 0 0 0 0.05 -0.31c0 -0.52 0 -0.91 0.06 -1.3a0.29 0.29 0 0 0 0 -0.16 0.33 0.33 0 0 0 -0.18 -0.41h-0.05l-0.36 -0.58c-0.2 -0.27 -0.23 0 0 -0.54L7.37 7c0 -0.06 0 -0.14 0.09 -0.17a0.52 0.52 0 0 1 0.2 -0.08l0.36 0 0.34 0a0.31 0.31 0 0 0 0.44 0c0.17 0 0.92 -0.3 1.12 -0.34s0.09 0 0.14 0a0.31 0.31 0 0 0 0.38 -0.23L11 5.09c0.17 -0.35 -0.11 -0.27 0.55 -0.25h0.6s0.11 0.09 0.13 0.13a2.91 2.91 0 0 1 0.21 0.48c0.06 0.21 0.1 0.42 0.14 0.63a0.3 0.3 0 0 0 -0.07 0.23 0.31 0.31 0 0 0 0.33 0.29 5.14 5.14 0 0 0 1.18 0.27 0.3 0.3 0 0 0 0.37 0.14l0.66 -0.13 0.46 0 0.19 0 0.34 0.71c0.15 0.25 0.38 0.43 0.13 0.84s-0.47 0.65 -0.64 0.9a0.37 0.37 0 0 0 0 0.5 0.35 0.35 0 0 0 0.5 0 9.77 9.77 0 0 0 1 -1 1.83 1.83 0 0 0 0.36 -0.67 1 1 0 0 0 0 -0.55 4.79 4.79 0 0 0 -0.26 -0.61c-0.1 -0.2 -0.19 -0.42 -0.3 -0.62s-0.13 -0.2 -0.21 -0.3a1.57 1.57 0 0 0 -0.36 -0.29 0.66 0.66 0 0 0 -0.44 -0.07l-1 0.38 -0.25 0.12a2.86 2.86 0 0 0 -0.62 -0.43 0.84 0.84 0 0 0 -0.27 -0.08 0.71 0.71 0 0 0 -0.29 0l-0.09 0 0 -0.47a3.35 3.35 0 0 0 -0.13 -0.69 2.34 2.34 0 0 0 -0.19 -0.44 1 1 0 0 0 -0.35 -0.34 1.26 1.26 0 0 0 -0.45 -0.15 4.24 4.24 0 0 0 -0.71 0 2.13 2.13 0 0 0 -0.75 0.07 1 1 0 0 0 -0.45 0.3 1.14 1.14 0 0 0 -0.18 0.33c0 0.14 -0.05 0.3 -0.07 0.4l-0.2 1a1.66 1.66 0 0 0 -0.55 -0.15 1 1 0 0 0 -0.3 0 0.66 0.66 0 0 0 -0.26 0.14 1.35 1.35 0 0 0 -0.15 0.29l-0.39 -0.15 -0.48 -0.15a1.21 1.21 0 0 0 -1 0.17 2.22 2.22 0 0 0 -0.71 1 2.17 2.17 0 0 0 -0.2 0.67A1 1 0 0 0 6 8a0.92 0.92 0 0 0 0.18 0.3c0.1 0.09 0.22 0.16 0.31 0.24L7 9a1.41 1.41 0 0 0 -0.21 0.31 0.69 0.69 0 0 0 -0.06 0.31 0.69 0.69 0 0 0 0 0.32 1.76 1.76 0 0 0 0.29 0.58l-0.38 0.32 -0.35 0.31a1.17 1.17 0 0 0 -0.34 1 2.81 2.81 0 0 0 0.48 1.08 2.27 2.27 0 0 0 0.45 0.48 1.15 1.15 0 0 0 0.51 0.22 0.73 0.73 0 0 0 0.3 0l0.31 -0.21 0.78 -0.28a1.58 1.58 0 0 0 0.15 0.24 0.82 0.82 0 0 0 0.25 0.16 0.94 0.94 0 0 0 0.29 0.06 2.32 2.32 0 0 0 0.46 -0.06c0.06 0.21 0.11 0.42 0.18 0.62a3.29 3.29 0 0 0 0.27 0.57 3.51 3.51 0 0 0 0.29 0.38 0.84 0.84 0 0 0 0.43 0.2 5.28 5.28 0 0 0 0.58 0 4.85 4.85 0 0 0 0.58 -0.07 3.71 3.71 0 0 0 0.49 -0.14 1.07 1.07 0 0 0 0.43 -0.3 0.55 0.55 0 0 0 0.16 -0.28l0 -0.3 0.1 -0.79a1.12 1.12 0 0 0 0.29 0.07 0.41 0.41 0 0 0 0.22 0 0.72 0.72 0 0 0 0.21 -0.12 2.91 2.91 0 0 0 0.24 -0.27l1.09 0.31a1.75 1.75 0 0 0 0.46 0.1 0.87 0.87 0 0 0 0.44 -0.09 1 1 0 0 0 0.37 -0.3Z" fill="#020202" fill-rule="evenodd" stroke-width="1"></path>
    <path d="M11.07 7.37A3.84 3.84 0 0 0 10 8a2.7 2.7 0 0 0 -0.89 1 2 2 0 0 0 0.34 2.23 2.93 2.93 0 0 0 3.35 0.42 1.8 1.8 0 0 0 1.07 -1 2.57 2.57 0 0 0 0.22 -1.44A2.41 2.41 0 0 0 13 7.64a2.31 2.31 0 0 0 -1.93 -0.27Zm2 3a1.68 1.68 0 0 1 -2.69 0.54 1 1 0 0 1 -0.24 -1.36 1.65 1.65 0 0 1 0.51 -0.6 3 3 0 0 1 0.78 -0.4 1.18 1.18 0 0 1 1 0.08 1.36 1.36 0 0 1 0.7 0.82 1.63 1.63 0 0 1 -0.03 0.88Z" fill="#020202" fill-rule="evenodd" stroke-width="1"></path>
  </g>
</svg>