<svg xmlns="http://www.w3.org/2000/svg" viewBox="0 0 24 24" id="Settings-Cog-Play--Streamline-Freehand">
  <desc>
    Settings Cog Play Streamline Icon: https://streamlinehq.com
  </desc>
  <g>
    <path d="M17.13 8.34a5.59 5.59 0 0 0 -1.52 -1.61 6.1 6.1 0 0 0 -2 -1 6.38 6.38 0 0 0 -3.89 0.19 7.88 7.88 0 0 0 -3.14 2.27 6.35 6.35 0 0 0 -1 5.48 5.49 5.49 0 0 0 3.68 4.11 9.52 9.52 0 0 0 4.45 0.37 5 5 0 0 0 2.7 -1.42 0.34 0.34 0 0 0 -0.48 -0.48 4.3 4.3 0 0 1 -2.35 1.14 8.72 8.72 0 0 1 -4.06 -0.48 4.55 4.55 0 0 1 -2.89 -3.49 5.26 5.26 0 0 1 0.87 -4.49 6.82 6.82 0 0 1 2.67 -2 5.46 5.46 0 0 1 3.26 -0.26 5.31 5.31 0 0 1 1.69 0.78 4.61 4.61 0 0 1 1.34 1.29 6.49 6.49 0 0 1 0.89 2.55 8.25 8.25 0 0 1 -0.08 2.76 0.3 0.3 0 1 0 0.58 0.14 8.76 8.76 0 0 0 0.2 -3 7.44 7.44 0 0 0 -0.92 -2.85Z" fill="#020202" fill-rule="evenodd" stroke-width="1"></path>
    <path d="M23.06 14.27c-0.29 -0.22 -0.82 -0.49 -1.62 -1l-0.27 -0.18 0 -0.9c0 -0.29 0 -0.62 -0.06 -0.92l0.21 -0.15c0.39 -0.28 0.87 -0.63 1.31 -1a7.81 7.81 0 0 0 0.82 -0.8 1 1 0 0 0 0.22 -0.65 3.94 3.94 0 0 0 -0.46 -1.52 10.32 10.32 0 0 0 -2.57 -3.38 0.45 0.45 0 0 0 -0.46 0l-2.55 1.42c-0.36 -0.24 -0.8 -0.52 -1.24 -0.76a9 9 0 0 0 -0.83 -0.43 17 17 0 0 0 -0.27 -2.36 2.6 2.6 0 0 0 -0.51 -1.2A5.12 5.12 0 0 0 12.45 0a9.74 9.74 0 0 0 -3.38 0.3 2.16 2.16 0 0 0 -0.48 1.2 22.66 22.66 0 0 0 -0.25 2.26 6.3 6.3 0 0 0 -1 0.38 7 7 0 0 0 -0.88 0.51c-0.35 -0.19 -1 -0.53 -1.62 -0.81a7.4 7.4 0 0 0 -1.33 -0.48 0.54 0.54 0 0 0 -0.43 0.13 5.56 5.56 0 0 0 -1 1.21 24.58 24.58 0 0 0 -1.67 3 1.1 1.1 0 0 0 -0.13 0.61 4 4 0 0 0 1 1.35A14.83 14.83 0 0 0 3 10.91a10.19 10.19 0 0 0 -0.07 1.24c0 0.39 0 0.79 0.06 1.19a15.56 15.56 0 0 0 -1.47 0.78 3.43 3.43 0 0 0 -0.74 0.63 0.69 0.69 0 0 0 -0.12 0.51 7.15 7.15 0 0 0 0.57 1.55A27.69 27.69 0 0 0 2.93 20a1.26 1.26 0 0 0 0.54 0.49 2.08 2.08 0 0 0 1.22 -0.09 8.33 8.33 0 0 0 1.74 -0.94c0.4 0.28 0.86 0.6 1.33 0.88a5.31 5.31 0 0 0 0.86 0.43 10.27 10.27 0 0 0 -0.07 1.5 2.57 2.57 0 0 0 0.24 1 1.36 1.36 0 0 0 0.88 0.55 12.17 12.17 0 0 0 2.53 0.18 17.8 17.8 0 0 0 2.8 -0.16 0.85 0.85 0 0 0 0.71 -0.54c0.1 -0.43 0.24 -1.11 0.32 -1.73 0 -0.3 0.07 -0.59 0.09 -0.84a8.11 8.11 0 0 0 0.78 -0.49c0.43 -0.3 0.86 -0.64 1.14 -0.87 0.47 0.29 1.06 0.75 1.52 1a2.23 2.23 0 0 0 0.72 0.28 0.85 0.85 0 0 0 0.61 -0.18 2.88 2.88 0 0 0 0.73 -0.88 20.43 20.43 0 0 0 1.86 -4.44 0.92 0.92 0 0 0 -0.42 -0.88Zm-2.44 4.84c-0.09 0.14 -0.23 0.3 -0.3 0.39s-0.24 -0.14 -0.39 -0.23c-0.56 -0.36 -1.23 -0.88 -1.69 -1.11a0.59 0.59 0 0 0 -0.62 0.09s-0.68 0.58 -1.36 1.05a3.48 3.48 0 0 1 -0.88 0.51 0.58 0.58 0 0 0 -0.39 0.59 5.74 5.74 0 0 1 -0.07 1c-0.06 0.46 -0.15 0.94 -0.23 1.33l-0.15 0a18.85 18.85 0 0 1 -4.18 0 4.26 4.26 0 0 1 -0.62 -0.14 2.1 2.1 0 0 1 -0.09 -0.69c0 -0.58 0.08 -1.21 0.08 -1.55a0.56 0.56 0 0 0 -0.38 -0.53 5.07 5.07 0 0 1 -1 -0.47c-0.57 -0.33 -1.12 -0.72 -1.57 -1a0.51 0.51 0 0 0 -0.58 0 10.85 10.85 0 0 1 -1.54 0.95 1.63 1.63 0 0 1 -0.76 0.2 6.55 6.55 0 0 1 -0.41 -0.6 22.57 22.57 0 0 1 -1.79 -3.47 0.76 0.76 0 0 1 -0.06 -0.2 3.67 3.67 0 0 1 0.63 -0.46c0.55 -0.33 1.17 -0.61 1.44 -0.76a0.45 0.45 0 0 0 0.23 -0.46 10.85 10.85 0 0 1 -0.11 -1.39 10.85 10.85 0 0 1 0.09 -1.4 0.44 0.44 0 0 0 -0.23 -0.44A12.47 12.47 0 0 1 2 9a3.66 3.66 0 0 1 -0.8 -0.86 2.34 2.34 0 0 1 0.11 -0.3c0.21 -0.46 0.58 -1.16 1 -1.84a15.6 15.6 0 0 1 1.05 -1.71l0.16 -0.17a8 8 0 0 1 1.06 0.39 16.28 16.28 0 0 1 1.74 0.86 0.36 0.36 0 0 0 0.4 0 5.85 5.85 0 0 1 1 -0.6 6.94 6.94 0 0 1 1.05 -0.41c0.37 -0.1 0.09 -0.26 0.43 -2.36a5.58 5.58 0 0 1 0.15 -1c0 -0.09 0.05 -0.17 0.09 -0.2a7.79 7.79 0 0 1 2.45 -0.11A12.06 12.06 0 0 1 14 0.88c0.15 0 0.27 0 0.31 0.09a2.57 2.57 0 0 1 0.36 1.19 21.22 21.22 0 0 1 0.16 2.18 0.4 0.4 0 0 0 0.27 0.34 6.19 6.19 0 0 1 0.94 0.46c0.5 0.29 1 0.63 1.39 0.89a0.4 0.4 0 0 0 0.42 0l2.56 -1.38a9 9 0 0 1 1.42 1.95 7.93 7.93 0 0 1 0.8 1.7 1.78 1.78 0 0 1 0.05 0.4 7.21 7.21 0 0 1 -0.69 0.65c-0.43 0.35 -0.89 0.68 -1.25 0.94l-0.46 0.32a0.53 0.53 0 0 0 -0.23 0.49c0 0.36 0.06 0.73 0.07 1.12s0 0.73 0 1.12a0.56 0.56 0 0 0 0.23 0.48l0.54 0.37c0.65 0.42 1.32 0.67 1.55 0.84a16.58 16.58 0 0 1 -0.74 2 16.09 16.09 0 0 1 -1.08 2.08Z" fill="#4C57E6" fill-rule="evenodd" stroke-width="1"></path>
    <path d="M9.83 9.06a0.31 0.31 0 0 0 -0.32 0.28c-0.15 1.41 -0.29 3.23 -0.28 4.38a4.31 4.31 0 0 0 0.12 1.13 0.74 0.74 0 0 0 0.19 0.3 1 1 0 0 0 0.76 0.21 5.06 5.06 0 0 0 1.54 -0.5 22 22 0 0 0 3.37 -2 2.07 2.07 0 0 0 0.38 -0.33 0.53 0.53 0 0 0 0.15 -0.35 2 2 0 0 0 -0.85 -1.3A24.81 24.81 0 0 0 11 8.4a0.34 0.34 0 0 0 -0.46 0.14 0.34 0.34 0 0 0 0.15 0.46A26.54 26.54 0 0 1 13 10.57a12.26 12.26 0 0 1 1.45 1.25 0.69 0.69 0 0 1 0.13 0.2l-0.1 0.07a24.66 24.66 0 0 1 -3.7 2c-0.14 0.06 -0.32 0.16 -0.45 0.21a0.65 0.65 0 0 1 0 -0.13 19.91 19.91 0 0 1 -0.14 -2.11l0 -2.7a0.3 0.3 0 0 0 -0.36 -0.3Z" fill="#020202" fill-rule="evenodd" stroke-width="1"></path>
  </g>
</svg>