<svg xmlns="http://www.w3.org/2000/svg" viewBox="0 0 24 24" id="Settings-Cog--Streamline-Freehand">
  <desc>
    Settings Cog Streamline Icon: https://streamlinehq.com
  </desc>
  <g>
    <path d="M10.17 6.94a5.06 5.06 0 0 0 -2.69 1.88 4.94 4.94 0 0 0 -0.63 3.94 4.33 4.33 0 0 0 2.7 3.05 5.79 5.79 0 0 0 2.82 0.24A6.54 6.54 0 0 0 14.94 15a5.69 5.69 0 0 0 0.86 -0.71 3.38 3.38 0 0 0 0.5 -0.66 3.25 3.25 0 0 0 0.32 -1 4.83 4.83 0 0 0 0 -1.47 6 6 0 0 0 -1.06 -2.56 4.78 4.78 0 0 0 -5.39 -1.66ZM14.88 9a4.93 4.93 0 0 1 0.81 2.23 3.65 3.65 0 0 1 0 1 2.21 2.21 0 0 1 -0.27 0.87 2 2 0 0 1 -0.46 0.51 4.39 4.39 0 0 1 -0.63 0.46 5.3 5.3 0 0 1 -2.15 0.83 4.54 4.54 0 0 1 -2.25 -0.2 3.27 3.27 0 0 1 -2 -2.25 4 4 0 0 1 0.34 -3.16 4.11 4.11 0 0 1 2.13 -1.63A3.6 3.6 0 0 1 14.88 9Z" fill="#4C57E6" stroke-width="1"></path>
    <path d="M24 10.47a3.18 3.18 0 0 0 -0.08 -0.78 1 1 0 0 0 -0.21 -0.43 1.26 1.26 0 0 0 -0.59 -0.38 3.67 3.67 0 0 0 -0.76 -0.13 3 3 0 0 1 -1.25 -0.2 0.76 0.76 0 0 1 -0.37 -0.55l-0.22 -1 -0.16 -0.62c0.09 -0.32 0.51 -0.53 0.7 -0.82a1 1 0 0 0 0.14 -0.84 1.86 1.86 0 0 0 -0.47 -0.72c-0.4 -0.42 -1 -0.73 -1.37 -1.07 -0.22 -0.19 -0.47 -0.49 -0.74 -0.71a1.81 1.81 0 0 0 -0.47 -0.29 1.07 1.07 0 0 0 -0.93 0.05c-0.42 0.23 -0.74 0.79 -1.07 1a0.46 0.46 0 0 1 -0.33 0 3.47 3.47 0 0 1 -0.53 -0.12 3.22 3.22 0 0 1 -0.86 -0.34 0.69 0.69 0 0 1 -0.3 -0.35l-0.31 -1.14a1.81 1.81 0 0 0 -0.08 -0.42 0.5 0.5 0 0 0 -0.17 -0.24 1.21 1.21 0 0 0 -0.41 -0.17 1.62 1.62 0 0 0 -0.59 -0.06 0.34 0.34 0 0 0 0.06 0.68 1.13 1.13 0 0 1 0.3 0l0.17 0 0 0.25 0.33 1.27a1.46 1.46 0 0 0 0.56 0.7 3.89 3.89 0 0 0 1.05 0.44 3.72 3.72 0 0 0 0.81 0.18 1.17 1.17 0 0 0 0.69 -0.17c0.28 -0.18 0.56 -0.62 0.9 -0.88a0.38 0.38 0 0 1 0.38 -0.09 1.42 1.42 0 0 1 0.36 0.26c0.22 0.21 0.43 0.46 0.63 0.63s0.78 0.55 1.14 0.88a1.2 1.2 0 0 1 0.41 0.59c0 0.14 -0.09 0.22 -0.19 0.32s-0.29 0.27 -0.42 0.42a1.43 1.43 0 0 0 -0.25 0.45 1.08 1.08 0 0 0 0 0.44 5.1 5.1 0 0 0 0.17 0.65l0.21 1a1.67 1.67 0 0 0 0.73 1.07 4.09 4.09 0 0 0 1.63 0.35 2.14 2.14 0 0 1 0.48 0.07 0.36 0.36 0 0 1 0.23 0.11l0.06 0.6A11.11 11.11 0 0 1 23 12a1.07 1.07 0 0 1 -0.22 0.62l-0.4 0.08a3.24 3.24 0 0 0 -0.7 0.29 1.78 1.78 0 0 0 -0.45 0.36 4.29 4.29 0 0 0 -0.59 0.85 11.77 11.77 0 0 0 -0.64 1.3 3.1 3.1 0 0 0 -0.25 1.23 2.89 2.89 0 0 0 0.36 1.27c0.11 0.22 0.31 0.5 0.42 0.78 0 0.09 0.09 0.17 0 0.24L19 20.16l-0.43 0.28 -0.84 -0.57a2.61 2.61 0 0 0 -1.2 -0.29 4.15 4.15 0 0 0 -1.63 0.44 4 4 0 0 0 -0.89 0.52 1.24 1.24 0 0 0 -0.39 0.56l-0.26 1.45 -0.06 0.12a2.92 2.92 0 0 1 -0.59 0c-0.43 -0.06 -0.86 -0.16 -1.26 -0.21l-0.45 -0.09a0.35 0.35 0 0 1 -0.2 -0.07c-0.32 -0.28 -0.35 -0.72 -0.58 -1a1.54 1.54 0 0 0 -0.7 -0.53L8 20.28c-0.25 -0.09 -0.52 -0.23 -0.79 -0.31a1.69 1.69 0 0 0 -0.5 -0.08 1.25 1.25 0 0 0 -0.54 0.12 2.17 2.17 0 0 0 -0.55 0.36 1.22 1.22 0 0 1 -0.31 0.25 5.38 5.38 0 0 0 -0.37 -0.3c-0.37 -0.28 -0.79 -0.54 -1.15 -0.85a2.14 2.14 0 0 1 -0.5 -0.58 0.57 0.57 0 0 1 0 -0.51c0.2 -0.49 0.59 -1 0.72 -1.42a1.63 1.63 0 0 0 0 -0.7 6.49 6.49 0 0 0 -0.39 -1.09l-0.26 -0.53a1.4 1.4 0 0 0 -0.67 -0.56A2.27 2.27 0 0 0 2 14a1 1 0 0 1 -0.46 -0.1c0 -0.07 -0.07 -0.32 -0.11 -0.43 -0.11 -0.47 -0.28 -0.87 -0.43 -1.29a2.66 2.66 0 0 1 0 -0.75 0.55 0.55 0 0 1 0.19 -0.43 9.81 9.81 0 0 0 1.25 -0.7 1.22 1.22 0 0 0 0.24 -0.3c0.11 -0.17 0.19 -0.37 0.28 -0.53s0.36 -0.6 0.52 -0.9a3.65 3.65 0 0 0 0.29 -0.71 1.47 1.47 0 0 0 -0.09 -1.06 8.32 8.32 0 0 0 -0.73 -1 1.2 1.2 0 0 1 -0.16 -0.27c0 -0.07 -0.07 -0.15 0 -0.22a4 4 0 0 1 0.53 -0.64 10.32 10.32 0 0 1 1 -0.86 2.28 2.28 0 0 1 0.43 -0.28 0.85 0.85 0 0 1 0.4 -0.1l0.35 0.28a3.9 3.9 0 0 0 0.56 0.42 2.18 2.18 0 0 0 0.47 0.21 1.24 1.24 0 0 0 0.71 0 8.19 8.19 0 0 0 1.08 -0.59l0.47 -0.27 0.37 -0.26a0.91 0.91 0 0 0 0.34 -0.62 1.67 1.67 0 0 0 -0.07 -0.6 0.83 0.83 0 0 1 0 -0.47l0.31 -0.15a3.18 3.18 0 0 1 0.77 -0.22A11.81 11.81 0 0 1 11.76 1a0.3 0.3 0 1 0 0 -0.6 9.2 9.2 0 0 0 -1.36 0.19 4.92 4.92 0 0 0 -0.93 0.25A2.6 2.6 0 0 0 9 1a0.63 0.63 0 0 0 -0.21 0.28c-0.15 0.42 0.09 0.8 0 1.16a0.26 0.26 0 0 1 -0.11 0.18l-0.28 0.19 -0.4 0.27c-0.23 0.11 -0.54 0.34 -0.86 0.47a0.67 0.67 0 0 1 -0.4 0.08 2 2 0 0 1 -0.38 -0.2c-0.13 -0.09 -0.26 -0.2 -0.38 -0.3a2.54 2.54 0 0 0 -0.43 -0.37 0.8 0.8 0 0 0 -0.35 -0.11 1.43 1.43 0 0 0 -0.63 0.11 2.94 2.94 0 0 0 -0.72 0.41 13.12 13.12 0 0 0 -1.1 0.9 4.6 4.6 0 0 0 -0.65 0.75 0.9 0.9 0 0 0 -0.1 0.69 1.71 1.71 0 0 0 0.32 0.74 6.47 6.47 0 0 1 0.64 0.91 0.68 0.68 0 0 1 0 0.47 2.65 2.65 0 0 1 -0.25 0.54c-0.16 0.3 -0.35 0.58 -0.52 0.86l-0.34 0.6c-0.44 0.38 -1.06 0.46 -1.42 0.82a1.36 1.36 0 0 0 -0.41 0.91 3.31 3.31 0 0 0 0.09 1c0.1 0.45 0.27 0.89 0.41 1.33a4 4 0 0 0 0.14 0.55 0.83 0.83 0 0 0 0.3 0.39 1.77 1.77 0 0 0 0.84 0.37 2 2 0 0 1 0.5 0.08 0.37 0.37 0 0 1 0.17 0.16l0.17 0.36a6.94 6.94 0 0 1 0.25 0.67 0.8 0.8 0 0 1 0.07 0.44c-0.16 0.52 -0.66 1 -0.81 1.61a1.54 1.54 0 0 0 0.13 1.14 3.25 3.25 0 0 0 0.75 0.9c0.37 0.32 0.81 0.59 1.19 0.89a3.51 3.51 0 0 0 0.58 0.44 1 1 0 0 0 0.62 0.11 1.66 1.66 0 0 0 0.48 -0.19 3.91 3.91 0 0 0 0.47 -0.36c0.09 -0.07 0.18 -0.18 0.3 -0.18a0.88 0.88 0 0 1 0.27 0.06c0.22 0.08 0.44 0.19 0.65 0.27l1.52 0.44a0.44 0.44 0 0 1 0.18 0.14c0.27 0.38 0.36 0.89 0.74 1.22a1.47 1.47 0 0 0 0.47 0.27 5.12 5.12 0 0 0 0.84 0.15c0.47 0.06 1 0.19 1.49 0.23a4 4 0 0 0 0.77 0 0.88 0.88 0 0 0 0.46 -0.21 1.73 1.73 0 0 0 0.4 -0.58 2.38 2.38 0 0 0 0.16 -0.58 8.42 8.42 0 0 1 0.14 -1c0 -0.09 0.15 -0.12 0.25 -0.18s0.3 -0.14 0.41 -0.19a3.39 3.39 0 0 1 1 -0.33 1.46 1.46 0 0 1 0.85 0.14c0.23 0.12 0.55 0.43 0.84 0.56a1 1 0 0 0 0.46 0.12 1.07 1.07 0 0 0 0.49 -0.09 3 3 0 0 0 0.63 -0.39l1.6 -1.27a1.11 1.11 0 0 0 0.39 -0.93 4.29 4.29 0 0 0 -0.59 -1.39 1.65 1.65 0 0 1 -0.23 -0.78 2.05 2.05 0 0 1 0.17 -0.83 11.3 11.3 0 0 1 0.52 -1.21A3.48 3.48 0 0 1 22 14a0.9 0.9 0 0 1 0.27 -0.2 2.47 2.47 0 0 1 0.39 -0.16c0.13 0 0.3 -0.05 0.44 -0.1a1.06 1.06 0 0 0 0.33 -0.19 1.79 1.79 0 0 0 0.51 -1 9.76 9.76 0 0 0 0.06 -1.88Z" fill="#020202" stroke-width="1"></path>
  </g>
</svg>