<svg xmlns="http://www.w3.org/2000/svg" viewBox="0 0 24 24" id="Shape-Circle-Add--Streamline-Freehand">
  <desc>
    Shape Circle Add Streamline Icon: https://streamlinehq.com
  </desc>
  <g>
    <path d="M23.61 19.52a11.53 11.53 0 0 0 -1.67 -0.19 14.9 14.9 0 0 0 -2 0c0 -0.93 -0.33 -3.25 -0.35 -3.34s-0.56 -1.42 -0.74 1.54c0 0.63 -0.08 1.26 -0.09 1.9 -4.17 0.41 -3.5 0.32 -3.75 0.38s-1.29 0.64 0.68 0.64a18.93 18.93 0 0 0 3.09 0.16c0.1 1.91 -0.08 3.16 0.49 3.31a0.37 0.37 0 0 0 0.45 -0.3c0.08 -0.23 0.21 -3 0.21 -3.1a21.59 21.59 0 0 1 3.2 -0.27c0.13 0 0.66 0.16 0.81 -0.14a0.39 0.39 0 0 0 -0.33 -0.59Z" fill="#020202" fill-rule="evenodd" stroke-width="1"></path>
    <path d="M13.54 17.24a0.46 0.46 0 0 0 -0.44 0.11c-2.22 2 -9.69 1 -11.32 -4.14a11.76 11.76 0 0 1 -0.55 -5c0.71 -5.8 7.38 -7.6 10.25 -6.86 4.42 1.14 8.07 5.73 6.52 11a2.14 2.14 0 0 0 -0.07 0.48 0.36 0.36 0 0 0 0.71 0c0 -0.08 3.05 -9.74 -6.88 -12.53C9.6 -0.3 6.73 0.45 4.67 1.45A7.65 7.65 0 0 0 0.06 8.07a12.89 12.89 0 0 0 0.71 5.47c2 5.83 11.33 6.78 12.89 4.12a0.31 0.31 0 0 0 -0.12 -0.42Z" fill="#4C57E6" fill-rule="evenodd" stroke-width="1"></path>
  </g>
</svg>