<svg xmlns="http://www.w3.org/2000/svg" viewBox="0 0 24 24" id="Shapes--Streamline-Freehand">
  <desc>
    Shapes Streamline Icon: https://streamlinehq.com
  </desc>
  <g>
    <path d="M23.13 17.52a2.3 2.3 0 0 0 0.87 -1.33 0.62 0.62 0 0 0 -0.58 -0.64l-0.35 0c-3.42 -0.09 -2.58 0.22 -3.79 -1.93a9.16 9.16 0 0 0 -0.55 -0.88 0.67 0.67 0 0 0 -1.07 0 9.16 9.16 0 0 0 -0.55 0.88c-0.25 0.43 -0.46 0.87 -0.69 1.32 -0.08 0.15 -0.12 0.58 -0.24 0.45a23.52 23.52 0 0 1 -2.87 0.16l-0.34 0a0.61 0.61 0 0 0 -0.58 0.64 2.27 2.27 0 0 0 0.88 1.33 15 15 0 0 0 1.91 1.29l0.12 0.08 0 0.09a18.88 18.88 0 0 0 -1.06 2.55 0.71 0.71 0 0 0 0.21 0.71 1.72 1.72 0 0 0 1.5 0.17 7.63 7.63 0 0 0 2.22 -1.36 8.09 8.09 0 0 0 2.33 1.34 1.82 1.82 0 0 0 1.5 -0.12 0.71 0.71 0 0 0 0.23 -0.75A17.62 17.62 0 0 0 21.14 19a0.19 0.19 0 0 1 0 -0.1l0.1 -0.05a16.68 16.68 0 0 0 1.89 -1.33Zm-2.93 1.85a19.44 19.44 0 0 1 1.09 2.23 1.55 1.55 0 0 1 -0.93 -0.16c-1.5 -0.57 -1.92 -1.45 -2.41 -1.13A9.41 9.41 0 0 1 16 21.54a1.29 1.29 0 0 1 -1 0.1 17.87 17.87 0 0 1 1.11 -2.27 2.9 2.9 0 0 0 0.24 -0.55 0.66 0.66 0 0 0 0 -0.33 1.14 1.14 0 0 0 -0.37 -0.38c-0.35 -0.23 -1.09 -0.7 -1.71 -1.2l-0.21 -0.18a15.09 15.09 0 0 0 2.45 -0.12 1.2 1.2 0 0 0 0.57 -0.32 3.44 3.44 0 0 0 0.47 -0.79c0.2 -0.39 0.4 -0.78 0.62 -1.17 0.21 0.39 0.4 0.78 0.6 1.17a3 3 0 0 0 0.49 0.78 1.18 1.18 0 0 0 0.56 0.33 15.09 15.09 0 0 0 2.45 0.12l-0.21 0.18c-0.62 0.5 -1.37 1 -1.71 1.19a1.1 1.1 0 0 0 -0.38 0.39 0.58 0.58 0 0 0 0 0.34 3.56 3.56 0 0 0 0.23 0.54Z" fill="#4C57E6" fill-rule="evenodd" stroke-width="1"></path>
    <path d="M9.43 5.78c-0.16 -0.32 -0.33 -0.63 -0.51 -0.94s-0.37 -0.61 -0.57 -0.9c-0.47 -0.67 -1 -1.29 -1.47 -2a0.28 0.28 0 0 0 -0.09 -0.19 0.35 0.35 0 0 0 -0.48 0c-1 1 -2 2.06 -2.94 3.11l-1.9 2.19c-0.05 0.06 -1 1 -1.28 1.48a0.87 0.87 0 0 0 -0.12 0.89 0.92 0.92 0 0 0 0.67 0.4 14.31 14.31 0 0 0 2.12 -0.13C4 9.57 5 9.52 6.08 9.5s2.16 0 3.26 0a0.4 0.4 0 0 0 0.41 -0.36 0.39 0.39 0 0 0 -0.37 -0.41c-1.33 -0.13 -2.63 -0.23 -3.94 -0.28 -0.88 0 -1.77 -0.05 -2.66 0 -0.13 0 -0.58 0.14 -1 0.21l0.69 -0.78 4 -5.14c0.31 0.73 0.61 1.46 1 2.16 0.27 0.5 0.58 1 0.88 1.45 0.46 0.71 1 1.38 1.39 2.11a0.39 0.39 0 0 0 0.7 -0.34c-0.33 -0.8 -0.64 -1.58 -1.01 -2.34Z" fill="#020202" fill-rule="evenodd" stroke-width="1"></path>
    <path d="M16.56 9.34a0.34 0.34 0 0 0 0 -0.68 2.44 2.44 0 0 1 -2.3 -1.45 3.13 3.13 0 0 1 0.33 -2.75A3.23 3.23 0 0 1 16 3.23a4.45 4.45 0 0 1 1.9 -0.48 2.87 2.87 0 0 1 3 3A3 3 0 0 1 18.05 9a0.39 0.39 0 0 0 0 0.77A3.86 3.86 0 0 0 22 5.68a4 4 0 0 0 -4.07 -4.24 5.56 5.56 0 0 0 -2.48 0.65 4.25 4.25 0 0 0 -1.88 1.82 4.13 4.13 0 0 0 -0.13 3.68 3.19 3.19 0 0 0 3.12 1.75Z" fill="#020202" fill-rule="evenodd" stroke-width="1"></path>
    <path d="m7.86 21.6 -1.37 0c-0.46 0 -0.89 0 -1.33 -0.09l-1.62 -0.26L2.39 21a1.1 1.1 0 0 1 -0.88 -0.68 10 10 0 0 1 0 -2.53l0 -1.5c0 -0.33 0 -0.66 0.08 -1a0.34 0.34 0 0 0 -0.67 -0.13c-0.08 0.34 -0.15 0.68 -0.2 1 -0.09 0.51 -0.15 1 -0.21 1.53 -0.07 0.68 -0.24 1.34 -0.28 1.93a3.31 3.31 0 0 0 0.09 1A2.22 2.22 0 0 0 2.1 22.2l1.32 0.23 1.72 0.09 1.14 0c0.56 0 1.13 -0.09 1.68 -0.15a0.39 0.39 0 0 0 0 -0.78Z" fill="#020202" fill-rule="evenodd" stroke-width="1"></path>
    <path d="M8.82 13.9a13.79 13.79 0 0 0 -1.72 0c-1.36 0 -2.69 0.13 -4 0.13Q2.21 14 1.35 14a0.35 0.35 0 0 0 -0.38 0.3 0.34 0.34 0 0 0 0.3 0.38c0.78 0.14 1.55 0.22 2.33 0.29 1.16 0.11 2.31 0.16 3.48 0.23 1 0 1.77 -0.88 2 1.24 0.1 0.93 0 1.95 0 2.68 0 0.56 0.05 1.13 0.06 1.69a10 10 0 0 1 0 1.1 0.39 0.39 0 0 0 0.34 0.43 0.37 0.37 0 0 0 0.43 -0.34 11.12 11.12 0 0 0 0.09 -1.19c0 -0.57 0.05 -1.14 0.08 -1.71a17.27 17.27 0 0 0 0.15 -3.29 3 3 0 0 0 -0.65 -1.57 1.3 1.3 0 0 0 -0.76 -0.34Z" fill="#020202" fill-rule="evenodd" stroke-width="1"></path>
  </g>
</svg>