<svg xmlns="http://www.w3.org/2000/svg" viewBox="0 0 24 24" id="Shipment-Management-Disable--Streamline-Freehand">
  <desc>
    Shipment Management Disable Streamline Icon: https://streamlinehq.com
  </desc>
  <g>
    <path d="M16.85 12.47a6.42 6.42 0 0 0 -2.5 1 0.35 0.35 0 1 0 0.39 0.58 5.72 5.72 0 0 1 2.26 -0.79c4.33 -0.66 6.94 3.21 5.32 6.71A5 5 0 0 1 15 21.86c0.22 -0.31 0.07 0 1.87 -2 2.18 -2.42 2.5 -3.32 3.75 -4.72a0.35 0.35 0 0 0 -0.5 -0.49 32.87 32.87 0 0 0 -5.7 6.77c-1.75 -1.63 -1.89 -4.61 -0.93 -5.77a0.31 0.31 0 0 0 -0.47 -0.41c-1.33 1.49 -1.2 5.23 1.08 7.18a5.93 5.93 0 0 0 9.33 -1.95 5.7 5.7 0 0 0 -6.58 -8Z" fill="#020202" fill-rule="evenodd" stroke-width="1"></path>
    <path d="m5.52 5.85 -3.75 0 -0.44 0 0.06 -0.14c0.37 -0.63 0.6 -1.3 0.93 -1.94A4.63 4.63 0 0 1 2.77 3c0.83 -1.37 1 -1.55 0.64 -1.74a0.32 0.32 0 0 0 -0.31 0c-0.09 0.05 -0.18 0.19 -0.9 1.26a6.16 6.16 0 0 0 -0.57 0.8C1.26 3.9 1 4.53 0.57 5.12l-0.39 0.73a1.19 1.19 0 0 0 -0.08 0.46 0.48 0.48 0 0 0 0.19 0.31v7.66c0 2.09 -0.54 2.31 3.75 2.44 2.14 0.07 4.86 0 6.53 0a0.36 0.36 0 1 0 0 -0.71c-1.43 0 -3.62 -0.15 -5.55 -0.28a33.16 33.16 0 0 1 -3.53 -0.35s-0.1 -2.65 -0.14 -3.46 -0.12 -1.62 -0.2 -2.41l-0.1 -2.61 0.62 0.07c0.48 0 1 0.09 1.44 0.11l1.41 0s7.68 -0.32 10.26 -0.46a0.35 0.35 0 0 0 0.35 -0.36 0.36 0.36 0 0 0 -0.36 -0.35h-3.45l-1.21 0H5.52Zm4.73 -4.66 3.92 0.11c0.14 0.26 1.83 4.81 1.83 4.89l0.36 5.46a0.32 0.32 0 1 0 0.63 0V6.07a0.61 0.61 0 0 0 0 -0.14s-0.85 -2.77 -1.4 -4.35c-0.16 -0.46 -0.29 -0.82 -0.37 -1A1.06 1.06 0 0 0 15 0.26a1.06 1.06 0 0 0 -0.58 -0.15h-1.97c-2.6 0 -6.86 0.15 -8.59 0.2a0.36 0.36 0 0 0 0 0.71c0.72 0 1.87 0.05 3.15 0.09l0.71 0 1.78 0Z" fill="#020202" fill-rule="evenodd" stroke-width="1"></path>
    <path d="M5.44 11.51c0.09 0.4 -0.06 1 0.21 1.38s0.68 0.31 1 0.3L8 13.13l2.69 0c1 0 0.86 -3.14 0.93 -4.47 -0.1 -1.22 -1 -1 -1 0s-0.11 2.36 -0.08 2.76 0.05 0.55 0.06 0.74l-2.63 0 -1.38 -0.07 0 -3.46c-0.2 -1 -1.24 -1.21 -1.25 0 0.04 0.94 0.07 2.73 0.1 2.88Z" fill="#4C57E6" fill-rule="evenodd" stroke-width="1"></path>
    <path d="M7.14 4.84c0.17 -0.82 0.33 -1.7 0.48 -2.43 -0.2 -1.14 -0.47 -1.29 -0.86 0C6.51 3.16 6.23 4 6 4.84c-0.39 1.06 0.49 0.97 1.14 0Z" fill="#4C57E6" fill-rule="evenodd" stroke-width="1"></path>
    <path d="m10.18 4.63 0 0.21c0.23 1 1.36 1 1.24 0 0 -0.14 0 -0.28 -0.08 -0.43 -0.15 -0.67 -0.33 -1.38 -0.49 -2 -0.71 -1.31 -1 -1.12 -1 0 0.15 0.67 0.22 1.48 0.33 2.22Z" fill="#4C57E6" fill-rule="evenodd" stroke-width="1"></path>
  </g>
</svg>