<svg xmlns="http://www.w3.org/2000/svg" viewBox="0 0 24 24" id="Shipment-Package-1--Streamline-Freehand">
  <desc>
    Shipment Package 1 Streamline Icon: https://streamlinehq.com
  </desc>
  <g>
    <path d="M24 14.57c-0.08 -3.31 -0.23 -6.65 -0.4 -7.49a22.35 22.35 0 0 0 -1.12 -3.75A11.13 11.13 0 0 0 21.23 0.82a0.79 0.79 0 0 0 -0.42 -0.11L5.19 0.71a0.35 0.35 0 0 0 0 0.7l5.46 0.05c-0.1 0.23 -0.2 0.47 -0.23 0.52 -0.13 0.25 -0.36 0.62 -0.59 1.07q-0.16 0.36 -0.33 0.75c-0.12 0.28 -0.23 0.57 -0.33 0.86 -0.27 0.77 -0.5 1.47 -0.6 1.81h-6.5l-0.87 0c0.06 -0.08 1.45 -1.94 1.52 -2a6.11 6.11 0 0 1 0.66 -0.7c0.26 -0.21 1.25 -1.22 1.24 -1.47s-0.18 -0.47 -0.5 -0.22c-0.09 0.06 -0.08 0.08 -0.34 0.43L3 3.19a6.3 6.3 0 0 0 -0.79 0.74C2.07 4 0.63 5.77 0.09 6.45c-0.23 0.79 -0.06 -1.37 0.11 4.23v2.62c0.06 1.08 0.1 2.18 0.12 3.29s0 2.22 0 3.29c0 2.49 -0.1 2.45 1 2.67a143.44 143.44 0 0 0 15.48 0.77 30.42 30.42 0 0 0 6.07 -0.43 1.33 1.33 0 0 0 1 -0.68 63.65 63.65 0 0 0 0.13 -7.64ZM20.68 1.64a23 23 0 0 1 1.06 2.63 21.17 21.17 0 0 1 0.72 2.54c-1.92 0 -4.73 -0.1 -7.52 -0.17 0.05 -0.49 0.09 -1 0.11 -1.46l0 -0.53c0 -0.37 0 -0.73 -0.07 -1.06 -0.07 -0.65 -0.17 -1.2 -0.23 -1.58 0 -0.22 -0.05 -0.37 -0.06 -0.47 0.96 0.01 5.01 0.06 5.99 0.1Zm-6.42 6.08 0 1.6a26 26 0 0 1 -0.26 3.32 2.59 2.59 0 0 1 -0.52 -0.23 10.88 10.88 0 0 1 -1.35 -0.94 1.07 1.07 0 0 0 -0.8 -0.24 5.28 5.28 0 0 0 -0.87 0.58c-0.41 0.31 -0.92 0.72 -1.31 0.95a0.52 0.52 0 0 1 0 -0.11l0.15 -2.81 -0.08 -2.17h5Zm-4.09 -2.6a12.66 12.66 0 0 0 0.71 -1.6c0.17 -0.49 0.27 -0.92 0.34 -1.2a2.66 2.66 0 0 0 0.25 -0.82l2.5 0c-0.05 1.1 -0.1 1.4 -0.11 2.11l0 1.06a5 5 0 0 0 0 0.53c0.05 0.46 0.14 0.93 0.22 1.39l-4.66 -0.08c0.2 -0.34 0.47 -0.84 0.75 -1.39Zm11.4 16.78a66 66 0 0 1 -7 0.24c-9.85 0 -13.23 -0.55 -13.33 -0.56s-0.09 -1.84 -0.09 -1.73c0 -1.08 0 -2.2 -0.07 -3.31S1 14.31 0.94 13.22L0.81 7.39c0.38 0.05 2 0.18 3.28 0.22l2.07 0 2.4 0v0.06l0 1c0 0.31 0 0.68 -0.07 1l-0.4 2.82a1.94 1.94 0 0 0 0.08 0.92 0.82 0.82 0 0 0 0.55 0.47 1.53 1.53 0 0 0 1 -0.25c0.57 -0.34 1.38 -1 1.76 -1.28a11.8 11.8 0 0 0 1.35 0.88 2.6 2.6 0 0 0 1.58 0.35 0.88 0.88 0 0 0 0.55 -0.77A24.4 24.4 0 0 0 15 9.3l0 -1.6c2.85 0 5.71 -0.09 7.63 -0.15 0.13 1.11 0.21 4.09 0.24 7.07 0.06 8.29 0.2 7.11 -1.3 7.28Z" fill="#020202" fill-rule="evenodd" stroke-width="1"></path>
    <path d="M21.15 16.48c-0.43 -0.35 -1.24 -0.35 -2.49 -0.32l-1.43 0.12c-0.08 0 -2.88 0.07 -3 0.62 0 0.28 -0.09 1 -0.09 1.07 0 0.3 -0.2 0.78 -0.23 1.19a1.31 1.31 0 0 0 0.13 0.73 0.86 0.86 0 0 0 0.45 0.39 4.14 4.14 0 0 0 0.86 0.2 5.85 5.85 0 0 0 1.25 0.15c0.91 0 1.84 -0.1 2.74 -0.07a10.77 10.77 0 0 0 1.44 0c1.27 -0.16 0.83 -1.3 0.82 -2 -0.07 -1.1 -0.05 -1.75 -0.45 -2.08Zm-1.77 2.91c-0.9 0 -1.83 0.18 -2.74 0.22a6.58 6.58 0 0 1 -1.09 0l-0.75 -0.1a0.71 0.71 0 0 1 -0.06 -0.42c0 -0.38 0.13 -0.79 0.13 -1.05 0 -1.47 0.23 -0.76 4.77 -0.87a4 4 0 0 1 0.82 0.14c0.08 0.08 0 -0.37 0 1.29s1.1 0.79 -1.08 0.79Z" fill="#4C57E6" fill-rule="evenodd" stroke-width="1"></path>
    <path d="M3.28 17.05a7.54 7.54 0 0 0 1.84 0.38 9.77 9.77 0 0 0 1.78 -0.28c0.46 0.14 1.54 -1.07 -2 -0.89 -0.24 0 -0.2 0 -1.55 0.17 -0.52 0.05 -0.35 0.62 -0.07 0.62Z" fill="#4C57E6" fill-rule="evenodd" stroke-width="1"></path>
    <path d="M8.88 19.13c-0.13 0 -2.09 -0.3 -3.06 -0.32s-1.72 0.09 -2.57 0.19a0.31 0.31 0 0 0 -0.32 0.29 0.32 0.32 0 0 0 0.3 0.32c0.84 0.11 1.67 0.3 2.52 0.38 0.57 0.06 1.14 0 1.7 0.06L9 19.94c0.09 0 0.83 -0.1 0.94 -0.41a0.33 0.33 0 0 0 0 -0.35c-0.23 -0.18 -0.94 -0.07 -1.06 -0.05Z" fill="#4C57E6" fill-rule="evenodd" stroke-width="1"></path>
  </g>
</svg>