<svg xmlns="http://www.w3.org/2000/svg" viewBox="0 0 24 24" id="Shipment-Weight-Scale--Streamline-Freehand">
  <desc>
    Shipment Weight Scale Streamline Icon: https://streamlinehq.com
  </desc>
  <g>
    <path d="M7.86 5.44s-0.38 -0.16 0.71 2.62a21.8 21.8 0 0 0 1 2.2 5.18 5.18 0 0 0 0.93 1.33 2.75 2.75 0 0 0 1.06 0.63 2.57 2.57 0 0 0 2.07 -0.35A2.32 2.32 0 0 0 14.74 10a2.41 2.41 0 0 0 -0.25 -1.15 3.52 3.52 0 0 0 -1 -1.22 10.27 10.27 0 0 0 -2.07 -1.14C8 5 8 5.36 7.86 5.44Zm3.13 2a9.48 9.48 0 0 1 1.75 1.13 2.83 2.83 0 0 1 0.57 0.71 1.47 1.47 0 0 1 0.18 0.74 1.08 1.08 0 0 1 -0.56 0.81 1.29 1.29 0 0 1 -1 0.23 1.71 1.71 0 0 1 -0.76 -0.45 6 6 0 0 1 -0.66 -0.87 20.74 20.74 0 0 1 -1.15 -2c-0.22 -0.45 -0.42 -0.9 -0.61 -1.37 0.58 0.23 1.43 0.63 2.25 1.04Z" fill="#4C57E6" fill-rule="evenodd" stroke-width="1"></path>
    <path d="M11.47 5.07c0.22 0 0.38 -0.07 0.56 -1.2a2.07 2.07 0 0 0 0 -0.35 1.39 1.39 0 0 0 0 -0.35s-0.3 -1.17 -0.64 -1.12 -0.58 1.13 -0.58 1.16a1.35 1.35 0 0 0 0 0.35 1.33 1.33 0 0 0 0.05 0.34c0.23 1.1 0.38 1.18 0.61 1.17Z" fill="#020202" fill-rule="evenodd" stroke-width="1"></path>
    <path d="m16.85 5.83 0.27 -0.24a1.48 1.48 0 0 0 0.22 -0.29c0.62 -1 0.43 -1.18 0.35 -1.26 -0.27 -0.25 -1.23 0.43 -1.25 0.45a2 2 0 0 0 -0.26 0.24A3.06 3.06 0 0 0 16 5c-0.61 1 -0.56 1.12 -0.39 1.28s0.32 0.24 1.24 -0.45Z" fill="#020202" fill-rule="evenodd" stroke-width="1"></path>
    <path d="M18.68 8.32a2.17 2.17 0 0 0 -0.36 0 2.14 2.14 0 0 0 -0.35 0.06c-1.13 0.26 -1.19 0.4 -1.19 0.63s0.1 0.4 1.24 0.56a1.45 1.45 0 0 0 0.36 0 1.47 1.47 0 0 0 0.36 0c1.18 -0.3 1.14 -0.54 1.13 -0.65 -0.01 -0.41 -1.17 -0.6 -1.19 -0.6Z" fill="#020202" fill-rule="evenodd" stroke-width="1"></path>
    <path d="m5.77 8.36 -0.36 -0.06a2 2 0 0 0 -0.35 0s-1.19 0.19 -1.2 0.56c0 0.11 0 0.35 1.14 0.65a1.34 1.34 0 0 0 0.35 0 1.45 1.45 0 0 0 0.36 0C6.86 9.39 7 9.22 7 9s-0.11 -0.38 -1.23 -0.64Z" fill="#020202" fill-rule="evenodd" stroke-width="1"></path>
    <path d="M8.12 22.79c0.09 -1.14 0.18 -2.28 0.17 -3.44 0 -0.68 0 -1.37 -0.07 -2 -0.06 -0.91 -0.15 -1.81 -0.17 -2.71 0.72 0.05 1.43 0.13 2.15 0.2l0 0.78v1.81a3.55 3.55 0 0 0 0 0.36 0.58 0.58 0 0 0 0.34 0.53 0.67 0.67 0 0 0 0.34 0.06 3.53 3.53 0 0 0 0.54 -0.14l1.11 -0.11h0.84c0 0.16 0.4 0.05 0.51 0a0.59 0.59 0 0 0 0.45 -0.55 9.37 9.37 0 0 0 0 -1.06c0 -0.54 -0.1 -1.09 -0.15 -1.63 0.67 0 1.33 -0.07 2 -0.13a0.37 0.37 0 0 0 0.37 -0.39 0.38 0.38 0 0 0 -0.39 -0.37c-0.81 0 -1.61 -0.13 -2.42 -0.2l-0.57 0c-0.67 -0.05 -1.35 -0.09 -2 -0.08a30.12 30.12 0 0 0 -3.41 0.27 0.33 0.33 0 0 0 -0.32 0.34A22.81 22.81 0 0 0 7 17.67c0 0.69 0 1.38 0.09 2.06 0.08 1 0.22 2 0.28 3.05a0.38 0.38 0 0 0 0.76 0Zm3.76 -7.88h1.41l0 1.24c0 0.25 0 0.48 -0.06 0.71l-0.71 0 -0.71 0a5.24 5.24 0 0 0 -0.53 0.08L11.1 16l-0.1 -0.45 0 -0.55v-0.1Z" fill="#020202" fill-rule="evenodd" stroke-width="1"></path>
    <path d="M17.35 14.24a0.32 0.32 0 0 0 -0.34 -0.31 0.32 0.32 0 0 0 -0.32 0.33c-0.08 1.15 -0.19 2.29 -0.19 3.44 0 0.69 0.05 1.37 0.1 2.05 0.07 1 0.18 2 0.23 3.06a0.44 0.44 0 0 0 0.06 0.16c-1 0 -2 -0.12 -3 -0.18 -0.74 -0.05 -1.48 -0.1 -2.23 -0.09a23.75 23.75 0 0 0 -3.76 0.4 0.34 0.34 0 0 0 -0.3 0.37 0.33 0.33 0 0 0 0.36 0.3c1.12 0 2.2 0.09 3.31 0.16 0.73 0.07 1.49 0.07 2.23 0.07a29.58 29.58 0 0 0 3.76 -0.27 0.38 0.38 0 0 0 0.36 -0.4 0.39 0.39 0 0 0 -0.14 -0.26 0.44 0.44 0 0 0 0.11 -0.25c0.09 -1 0.18 -2 0.2 -3l0 -1.29c0 -0.43 0 -0.86 -0.08 -1.28 -0.08 -1.02 -0.25 -2.01 -0.36 -3.01Z" fill="#020202" fill-rule="evenodd" stroke-width="1"></path>
    <path d="M21.7 6.27A9.93 9.93 0 0 0 15.23 0.41 13.27 13.27 0 0 0 10.1 0.13a9.48 9.48 0 0 0 -4.81 2 11.52 11.52 0 0 0 -3 4 8.86 8.86 0 0 0 -0.7 4.87 7.54 7.54 0 0 0 0.58 2.13 14.38 14.38 0 0 0 1.64 2.78 0.33 0.33 0 1 0 0.54 -0.37 15.68 15.68 0 0 1 -1.27 -2.23 7.16 7.16 0 0 1 -0.64 -2.4 7.91 7.91 0 0 1 0.76 -4.4 10.43 10.43 0 0 1 2.88 -3.45 8.25 8.25 0 0 1 4.2 -1.67 12.37 12.37 0 0 1 4.64 0.22 8.82 8.82 0 0 1 5.86 5.06 8.84 8.84 0 0 1 -0.17 7.83 0.37 0.37 0 0 0 0.14 0.51 0.37 0.37 0 0 0 0.51 -0.14 9.64 9.64 0 0 0 0.44 -8.6Z" fill="#020202" fill-rule="evenodd" stroke-width="1"></path>
  </g>
</svg>