<svg xmlns="http://www.w3.org/2000/svg" viewBox="0 0 24 24" id="Shipment-Touch--Streamline-Freehand">
  <desc>
    Shipment Touch Streamline Icon: https://streamlinehq.com
  </desc>
  <g>
    <path d="M24 16.52A13.87 13.87 0 0 0 22.33 14a4 4 0 0 0 -1.75 -1.18 1.64 1.64 0 0 0 -1 0.07c-0.5 0.16 -1.11 0.46 -1.64 0.66 -0.3 0.11 -0.56 0.24 -0.72 0.13a2.64 2.64 0 0 1 -0.51 -0.54c-0.41 -0.56 -0.75 -1.28 -1.11 -1.76a5.44 5.44 0 0 0 -1.55 -1.5 1.69 1.69 0 0 0 -1.76 -0.08 1.73 1.73 0 0 0 -0.82 1 2.52 2.52 0 0 0 0.1 1.75 6.43 6.43 0 0 0 0.76 1.29 27 27 0 0 1 1.93 2.51c0.17 0.29 0.36 0.58 0.53 0.88a4.32 4.32 0 0 1 0.19 0.45A19 19 0 0 0 13 17a1.76 1.76 0 0 0 -0.94 0.09 1.18 1.18 0 0 0 -0.72 1 3.57 3.57 0 0 0 0.56 2.06 4.33 4.33 0 0 0 1.45 1.34c1.21 0.68 2.64 0.72 4.06 1.37a0.28 0.28 0 0 0 0.38 -0.14 0.28 0.28 0 0 0 -0.13 -0.38c-1.18 -0.59 -2.39 -0.73 -3.45 -1.21a3.62 3.62 0 0 1 -1.65 -1.42 2.9 2.9 0 0 1 -0.36 -1.09c0 -0.27 -0.06 -0.57 0.19 -0.66a1.14 1.14 0 0 1 0.74 0.07 9.71 9.71 0 0 0 2.49 0.86 0.53 0.53 0 0 0 0.53 -0.52 4.35 4.35 0 0 0 -0.08 -0.78 3.75 3.75 0 0 0 -0.3 -0.76c-0.16 -0.32 -0.36 -0.63 -0.53 -0.93a26.09 26.09 0 0 0 -2 -2.62 5.12 5.12 0 0 1 -0.64 -1.08 1.54 1.54 0 0 1 -0.12 -0.82 0.76 0.76 0 0 1 0.36 -0.55c0.32 -0.18 0.65 0 1 0.2a5.68 5.68 0 0 1 1 1.05c0.38 0.48 0.73 1.18 1.16 1.73a3.14 3.14 0 0 0 0.74 0.72 1.36 1.36 0 0 0 1.07 0.09 14.06 14.06 0 0 0 1.68 -0.7 1.55 1.55 0 0 1 0.85 -0.24 3.25 3.25 0 0 1 1.45 0.92 13.51 13.51 0 0 1 1.59 2.33 0.33 0.33 0 0 0 0.45 0.11 0.31 0.31 0 0 0 0.17 -0.52Z" fill="#020202" fill-rule="evenodd" stroke-width="1"></path>
    <path d="M13.68 7.26c0.63 0 1.26 -0.07 1.9 -0.16a0.27 0.27 0 0 0 0.16 -0.1 1.64 1.64 0 0 0 0 0.22c0.05 0.23 0.12 0.42 0.19 0.64a0.33 0.33 0 0 0 0.32 0.33 0.34 0.34 0 0 0 0.34 -0.33c0.06 -0.22 0.13 -0.42 0.18 -0.64a1.45 1.45 0 0 0 0 -0.28 1.24 1.24 0 0 0 0 -0.27 0.33 0.33 0 0 0 0.05 -0.42c-0.4 -0.67 -0.68 -1.38 -1.06 -2.06 -0.17 -0.3 -0.37 -0.57 -0.57 -0.86s-0.69 -0.69 -1 -1.07a2.49 2.49 0 0 1 -0.33 -0.47 0.28 0.28 0 0 0 -0.37 -0.16 0.2 0.2 0 0 0 -0.08 0.08 32.06 32.06 0 0 0 -3.71 -0.47c-0.53 0 -1.06 -0.05 -1.58 -0.05s-1.07 0 -1.6 0.05c-1.23 0.08 -2.45 0.24 -3.66 0.36a0.26 0.26 0 0 0 -0.17 0.07 0.3 0.3 0 0 0 -0.31 0.11 7.82 7.82 0 0 0 -1 1.66A7.25 7.25 0 0 0 1 4.52C0.82 5.06 0.72 5.6 0.55 6.14a0.33 0.33 0 0 0 0.16 0.43 0.33 0.33 0 0 0 0.43 -0.16A13.24 13.24 0 0 0 2 4.7c0.14 -0.35 0.26 -0.7 0.37 -1.05s0.26 -1 0.45 -1.49c1.31 0 2.64 0.1 4 0.12a11.93 11.93 0 0 0 -0.71 1.38c-0.08 0.2 -0.16 0.41 -0.23 0.62a4.14 4.14 0 0 0 -0.15 0.63c-0.1 0.49 -0.14 1 -0.23 1.46 -1.27 0.11 -2.54 0.23 -3.82 0.29a0.29 0.29 0 0 0 -0.26 0.34 0.29 0.29 0 0 0 0.28 0.28c1.28 0.07 2.55 0.09 3.82 0.09h0.08l-0.08 0.82 -0.12 0.91 0 0.46a2.33 2.33 0 0 0 0 0.28 1.35 1.35 0 0 0 0.92 1 2.59 2.59 0 0 0 1 0.08c0.44 0 0.87 -0.17 1.22 -0.19a7.49 7.49 0 0 0 0.85 -0.07l0.54 -0.09a0.32 0.32 0 1 0 0.64 -0.11 11.55 11.55 0 0 1 0.1 -1.3l0 -0.9a7.78 7.78 0 0 0 -0.11 -1c1.11 0.02 2.11 0.04 3.12 0Zm-0.37 -4.92a0.74 0.74 0 0 0 0.14 0 4.55 4.55 0 0 0 0.26 0.55c0.2 0.38 0.43 0.74 0.62 1.09s0.47 0.74 0.71 1.1 0.58 0.78 0.89 1.15c0 0.13 -0.1 0.25 -0.14 0.39a0.33 0.33 0 0 0 -0.28 -0.13l-1.83 0c-1 0 -2.07 -0.12 -3.11 -0.18 -0.07 -0.41 -0.06 -0.82 -0.09 -1.24A9.3 9.3 0 0 0 10.35 4a6.44 6.44 0 0 0 -0.6 -1.71c1.25 -0.03 2.39 -0.04 3.56 0.05ZM6.83 5c0.12 -0.32 0.2 -0.65 0.29 -1 0.12 -0.5 0.19 -1 0.34 -1.49a0.31 0.31 0 0 0 0 -0.25h1.63a0.26 0.26 0 0 0 0 0.15A8.62 8.62 0 0 1 9.27 4a9.29 9.29 0 0 0 0.12 1 5.7 5.7 0 0 0 0.43 1.22l-0.52 0c-0.77 0 -1.53 0 -2.3 0.06l-0.78 0.07A10.52 10.52 0 0 0 6.83 5Zm2.88 4.2c0 0.22 0.06 0.44 0.1 0.66l-0.4 0a7 7 0 0 1 -0.78 -0.05c-0.48 -0.05 -1.2 0.07 -1.76 0 -0.19 0 -0.37 -0.08 -0.44 -0.3l0 -0.45 -0.07 -0.91 -0.06 -0.83h1.12l1.88 0h0.57c0 0.24 -0.11 0.49 -0.15 0.74a5.65 5.65 0 0 0 0 0.58 4 4 0 0 0 -0.01 0.56Z" fill="#4C57E6" fill-rule="evenodd" stroke-width="1"></path>
    <path d="M10.11 17.19c-0.9 0 -1.79 -0.06 -2.68 -0.13 -1.35 -0.1 -2.69 -0.26 -4 -0.39 -0.38 0 -1 0 -1.47 -0.05a0.89 0.89 0 0 1 -0.57 -0.2 1.85 1.85 0 0 1 -0.26 -1 17.72 17.72 0 0 1 0 -2.08c0 -0.9 0.07 -1.67 0.07 -2.41l0 -3.6A0.33 0.33 0 0 0 0.78 7a0.32 0.32 0 0 0 -0.32 0.33C0.41 8.67 0.37 9.74 0.3 10.87c0 0.73 -0.11 1.49 -0.2 2.37a13.49 13.49 0 0 0 0 2.62 2.52 2.52 0 0 0 0.48 1.31 1.77 1.77 0 0 0 1 0.49 11.76 11.76 0 0 0 1.83 0.07c1.36 0 2.72 0.08 4.07 0.1 0.92 0 1.82 0 2.74 -0.06a0.3 0.3 0 0 0 0.28 -0.3 0.3 0.3 0 0 0 -0.39 -0.28Z" fill="#4C57E6" fill-rule="evenodd" stroke-width="1"></path>
  </g>
</svg>