<svg xmlns="http://www.w3.org/2000/svg" viewBox="0 0 24 24" id="Shipment-Crack-Symbol--Streamline-Freehand">
  <desc>
    Shipment Crack Symbol Streamline Icon: https://streamlinehq.com
  </desc>
  <g>
    <path d="M10.43 1.19A0.36 0.36 0 0 0 10.6 0.9a0.39 0.39 0 0 0 -0.39 -0.39c-0.36 -0.07 -0.47 0.41 -0.72 0.85L8.44 3.6c0 0.11 -0.28 0.47 -0.37 0.71a1 1 0 0 0 0 0.63 1.55 1.55 0 0 0 0.85 0.82 6 6 0 0 0 1.74 0.42h0.12c0 0.62 -0.18 1.52 -0.32 2.4s-0.28 1.58 -0.42 2.09l0 0.05a0.38 0.38 0 0 0 0 0.4 0.42 0.42 0 0 0 0.59 0.18 21 21 0 0 0 4.15 -3 10.89 10.89 0 0 0 2.3 -2.73 7.77 7.77 0 0 0 0.34 -0.77 4.85 4.85 0 0 0 0.16 -0.63 3.6 3.6 0 0 0 0 -0.56 0.83 0.83 0 0 0 -0.26 -0.48A0.79 0.79 0 0 0 17 3a2.82 2.82 0 0 0 -0.43 0l-0.93 0a12.54 12.54 0 0 1 -1.27 -0.07l-0.3 0a0.9 0.9 0 0 1 0 -0.16s0.2 -0.9 0.33 -1.31 0 -0.85 -0.15 -0.8a0.37 0.37 0 0 0 -0.49 0.23l-0.62 1.59c0 0.06 -0.16 0.38 -0.2 0.52a0.57 0.57 0 0 0 0.1 0.44 1.69 1.69 0 0 0 0.81 0.57 8.7 8.7 0 0 0 1.62 0.32L16 4.3l-0.26 0.63a12.08 12.08 0 0 1 -2.45 3c-0.69 0.66 -1.37 1.28 -2 1.78 0.19 -0.62 0.39 -1.31 0.55 -2a17.48 17.48 0 0 0 0.45 -2.28 0.71 0.71 0 0 0 -0.22 -0.53c-0.07 -0.08 -2 -0.33 -2.34 -0.41 -0.62 -0.15 -0.35 0.07 -0.16 -0.5Z" fill="#4C57E6" fill-rule="evenodd" stroke-width="1"></path>
    <path d="M23.25 3.77c-0.09 -0.54 -0.17 -1.1 -0.31 -1.65A7.51 7.51 0 0 0 22.59 1a0.39 0.39 0 0 0 -0.25 -0.22 0.4 0.4 0 0 0 -0.34 -0.26c-0.9 -0.16 -1.81 -0.34 -2.75 -0.45 -0.41 0 -0.8 -0.06 -1.2 -0.07s-0.81 0 -1.22 0.05c-0.19 0 -0.37 0.06 -0.56 0.09 -1.22 0.62 -1 1 -0.33 1.27l0.94 0 1.16 0 1.16 0c0.9 0 1.79 -0.06 2.68 -0.06a5.34 5.34 0 0 1 0.2 0.88c0.08 0.54 0.11 1.08 0.14 1.61a12.68 12.68 0 0 1 -0.39 3.73 12.21 12.21 0 0 1 -1.4 3.43c-2.93 4.75 -6.4 3 -6.4 4s-0.1 2.08 0 3.12a8.88 8.88 0 0 0 0.4 2.13c0.1 0.31 0.21 0.6 0.33 0.89s0.34 0.77 0.51 1.13h-0.57c-1.26 0 -2.52 0.13 -3.79 0.16l-1.55 0 -0.84 -0.15 0.83 -1.56a10.4 10.4 0 0 0 0.73 -2.74c0.88 -6.33 -2.35 -0.27 -6.51 -7a12.21 12.21 0 0 1 -1.4 -3.42 12.68 12.68 0 0 1 -0.39 -3.73c0 -0.53 0.06 -1.07 0.14 -1.61a6.86 6.86 0 0 1 0.22 -1c0.9 0.09 1.79 0.2 2.69 0.27 0.41 0 0.82 0.05 1.24 0.06s0.82 0 1.23 0l0.35 0c1.61 -0.44 2 -0.87 0.68 -1.27l-1 -0.11 -1.23 0 -1.25 0C3.88 0.2 2.92 0.29 2 0.37c-0.13 0 -0.41 -0.16 -0.89 1.75 -0.19 0.55 -0.27 1.11 -0.36 1.65a12.08 12.08 0 0 0 0 4.15 10.66 10.66 0 0 0 1.54 3.9 8.76 8.76 0 0 0 7.07 4 14.8 14.8 0 0 1 -0.26 2.12 10.09 10.09 0 0 1 -0.84 2.42L6.89 22.5a0.8 0.8 0 0 0 0.4 1l0.42 0.17c0.24 0.07 0.5 0.15 0.75 0.21a7.32 7.32 0 0 0 0.8 0.11A15.9 15.9 0 0 0 11 24c1.26 0 2.53 -0.17 3.77 -0.2l1.23 -0.08 0.37 0a0.76 0.76 0 0 0 0.67 -0.61 1.06 1.06 0 0 0 -0.1 -0.52c-0.11 -0.24 -0.35 -0.54 -0.43 -0.69L15.5 20a7.94 7.94 0 0 1 -0.5 -1.91 20.46 20.46 0 0 1 -0.11 -2.37 8.71 8.71 0 0 0 6.75 -3.9 10.66 10.66 0 0 0 1.54 -3.9 12.08 12.08 0 0 0 0.07 -4.15Z" fill="#020202" fill-rule="evenodd" stroke-width="1"></path>
  </g>
</svg>