<svg xmlns="http://www.w3.org/2000/svg" viewBox="0 0 24 24" id="Shipment-Receive--Streamline-Freehand">
  <desc>
    Shipment Receive Streamline Icon: https://streamlinehq.com
  </desc>
  <g>
    <path d="M23.77 4a0.32 0.32 0 0 0 -0.15 -0.13 1.88 1.88 0 0 1 -0.69 -0.52 2.1 2.1 0 0 1 -0.39 -0.74c-0.27 -1.09 -0.13 -1.25 -0.51 -1.48a0.65 0.65 0 0 0 -0.77 0.05 1.24 1.24 0 0 0 -0.37 0.47c-0.15 0.31 -0.26 0.83 -0.36 1a1.83 1.83 0 0 1 -0.62 0.79 3.11 3.11 0 0 1 -1.07 0.45 0.35 0.35 0 0 0 0.09 0.69 0.41 0.41 0 0 0 0.2 0.28 4 4 0 0 1 0.77 0.58 2.21 2.21 0 0 1 0.47 0.7l0.21 0.67 0.11 0.28s0 0.13 0.07 0.12c0.08 0.49 0.88 0.45 1.08 0.13a1.31 1.31 0 0 0 0.26 -0.47c0.07 -0.2 0.1 -0.45 0.16 -0.61a2.85 2.85 0 0 1 0.49 -1 1.68 1.68 0 0 1 0.91 -0.61 0.34 0.34 0 0 0 0.3 -0.38 0.33 0.33 0 0 0 -0.19 -0.27Zm-1.69 0.52a3.56 3.56 0 0 0 -0.77 0.9 2.51 2.51 0 0 0 -0.56 -0.57 4.49 4.49 0 0 0 -0.69 -0.44 3.23 3.23 0 0 0 0.59 -0.22 3.05 3.05 0 0 0 1 -0.87 2.73 2.73 0 0 0 0.65 0.74c0.09 0.08 0.23 0.1 0.33 0.17a3.35 3.35 0 0 0 -0.55 0.29Z" fill="#4C57E6" fill-rule="evenodd" stroke-width="1"></path>
    <path d="M7.62 21.48c-0.44 0.67 -1.26 0.63 -2.11 0.41a10.17 10.17 0 0 1 -2.88 -1.4c-0.44 -0.29 -0.46 0.19 -1.21 -2.3a6.37 6.37 0 0 1 -0.3 -1.37A5.37 5.37 0 0 1 2 13.58a0.67 0.67 0 0 0 0.06 -0.12c0.13 -0.19 0.06 -0.07 -0.21 -1.07 0 -0.12 -0.09 -0.23 -0.14 -0.35a3.28 3.28 0 0 0 -0.2 -0.31c-0.71 -1 -0.81 -1 -1 -0.93s-0.44 0.1 -0.09 1.45a2 2 0 0 0 0.33 0.71 4.84 4.84 0 0 0 0.5 0.51A6.16 6.16 0 0 0 0 16.85a6.49 6.49 0 0 0 0.19 1.67A14.59 14.59 0 0 0 1 20.79a1.73 1.73 0 0 0 0.55 0.55 10.83 10.83 0 0 0 3.74 1.55c1.28 0.23 2.45 0 3 -1a0.39 0.39 0 1 0 -0.67 -0.4Z" fill="#020202" fill-rule="evenodd" stroke-width="1"></path>
    <path d="M23 12.94a2.33 2.33 0 0 0 0.2 -0.34 1.63 1.63 0 0 0 0.13 -0.37c0.35 -1.35 0 -1.4 -0.09 -1.45s-0.32 -0.09 -1 0.93A3.28 3.28 0 0 0 22 12a2.48 2.48 0 0 0 -0.13 0.35c-0.26 0.93 -0.36 0.87 -0.22 1.07l0.06 0.12a5.42 5.42 0 0 1 0.86 3.25 6.37 6.37 0 0 1 -0.3 1.37c-0.75 2.49 -0.78 2 -1.21 2.3a10.17 10.17 0 0 1 -2.88 1.4c-0.85 0.22 -1.67 0.26 -2.11 -0.41a0.39 0.39 0 1 0 -0.67 0.4c0.56 1 1.73 1.24 3 1a10.83 10.83 0 0 0 3.74 -1.55 1.73 1.73 0 0 0 0.55 -0.55 14.59 14.59 0 0 0 0.81 -2.27 6.49 6.49 0 0 0 0.19 -1.67 6.16 6.16 0 0 0 -1.21 -3.4 4.84 4.84 0 0 0 0.52 -0.47Z" fill="#020202" fill-rule="evenodd" stroke-width="1"></path>
    <g>
      <path d="M20.9 16.48a0.39 0.39 0 0 0 -0.43 0.34 3.78 3.78 0 0 1 -0.2 0.71 1.32 1.32 0 0 1 -0.33 0.5 0.43 0.43 0 0 1 -0.43 0.14c-0.12 0 -0.17 -0.19 -0.22 -0.37l-0.09 -0.56a5.12 5.12 0 0 1 0.18 -1.11c0.09 -0.4 0.18 -0.84 0.31 -1.25a10 10 0 0 0 1.07 -3.6l0 -0.73a6 6 0 0 0 0 -0.73c-0.06 -0.58 -0.19 -1.13 -0.29 -1.71a0.34 0.34 0 0 0 -0.34 -0.34 0.37 0.37 0 0 0 -0.2 -0.09c-1.5 -0.18 -3 -0.33 -4.49 -0.42s-3 -0.12 -4.5 -0.17 -2.81 0 -4.22 0.12a16 16 0 0 0 -2.82 0.47 0.34 0.34 0 0 0 -0.47 0.32c-0.1 0.58 -0.24 1.13 -0.31 1.71a6 6 0 0 0 -0.05 0.73l0 0.74c0 0.58 0.14 1.14 0.22 1.72l0 0.36A9 9 0 0 1 4 14.88c0.13 0.42 0.22 0.85 0.31 1.25a4.12 4.12 0 0 1 0.18 1.11l-0.09 0.56c0 0.18 -0.09 0.33 -0.22 0.37a0.43 0.43 0 0 1 -0.46 -0.17 1.45 1.45 0 0 1 -0.33 -0.5 4.72 4.72 0 0 1 -0.2 -0.71 0.39 0.39 0 0 0 -0.43 -0.34 0.39 0.39 0 0 0 -0.34 0.44A4 4 0 0 0 2.59 18a2.28 2.28 0 0 0 0.37 0.73 1.5 1.5 0 0 0 1.46 0.6A1.62 1.62 0 0 0 5.6 18.2l0.18 -0.9a5.69 5.69 0 0 0 -0.47 -2c-0.73 -1.76 -1.2 -1.94 -1.21 -2.42s0.18 -1.12 0.24 -1.7l0 -0.73a6 6 0 0 0 0 -0.73c0 -0.48 -0.13 -0.94 -0.2 -1.41a18 18 0 0 1 2.55 -0.16c0.12 0 -0.38 0 4.16 0.22l8.84 0.05a13 13 0 0 0 -0.22 1.37 6.11 6.11 0 0 0 0 0.74c0 0.25 0 0.49 0.06 0.74 0.06 0.53 0.16 1 0.25 1.56l-0.05 0a11.7 11.7 0 0 0 -1.38 2.44 5.63 5.63 0 0 0 -0.46 2l0.17 0.9a2.11 2.11 0 0 0 0.48 0.74 2.5 2.5 0 0 1 -1.65 0.84 25.39 25.39 0 0 1 -4 -0.09l-2.13 0 -2.62 0.34a3 3 0 0 1 -1.29 -0.12 2.39 2.39 0 0 1 -1 -0.74 0.35 0.35 0 0 0 -0.48 -0.05 0.34 0.34 0 0 0 -0.06 0.48 3.22 3.22 0 0 0 1.26 1.09 3.9 3.9 0 0 0 1.58 0.34l2.59 0.05 2.15 0c1.39 -0.08 3.46 0.16 4.92 -0.44a2.9 2.9 0 0 0 1.42 -1.26 1.5 1.5 0 0 0 1.46 -0.6 2.28 2.28 0 0 0 0.37 -0.73 4 4 0 0 0 0.17 -1.06 0.39 0.39 0 0 0 -0.33 -0.48Z" fill="#020202" fill-rule="evenodd" stroke-width="1"></path>
      <path d="M8.58 11.21a18.34 18.34 0 0 0 0.2 3.61 0.73 0.73 0 0 0 0.47 0.49 6.66 6.66 0 0 0 1.09 0.16l1.3 0c2.07 -0.12 2.31 0.3 2.33 -0.28s0.22 -2.62 0.29 -3.32c0 -0.3 0.06 -0.6 0.07 -0.9s0 -0.6 0 -0.91l0 -0.27c-0.08 -1.07 -1.24 -1.14 -1.2 0l0 0.25c0 0.3 -0.05 0.6 -0.05 0.9a8.81 8.81 0 0 0 0 0.89c0 0.48 0.07 2.18 0.11 2.64l-1.19 0a11.42 11.42 0 0 1 -1.46 -0.18c-0.56 -0.09 -0.53 -0.89 -0.64 -2.52 0 -0.65 -0.06 -1.32 -0.08 -2 -0.07 -1 -1 -0.92 -1 0 -0.15 0.49 -0.21 0.96 -0.24 1.44Z" fill="#4C57E6" fill-rule="evenodd" stroke-width="1"></path>
    </g>
  </g>
</svg>