<svg xmlns="http://www.w3.org/2000/svg" viewBox="0 0 24 24" id="Shipment-Management-Package-Condition--Streamline-Freehand">
  <desc>
    Shipment Management Package Condition Streamline Icon: https://streamlinehq.com
  </desc>
  <g>
    <path d="M21 10.92a0.35 0.35 0 0 0 0 -0.33l0 -0.07a0.32 0.32 0 0 0 -0.2 -0.27c-0.33 -0.57 -0.83 -1.5 -1.32 -2.24a4.36 4.36 0 0 0 -1 -1.13 0.93 0.93 0 0 0 -0.32 -0.11l-0.57 0 -1.85 -0.11c-1.18 0 -2.36 -0.12 -3.55 -0.17l-2.41 0 -2.85 0.22a5.06 5.06 0 0 0 -0.78 0.07 0.93 0.93 0 0 0 -0.4 0.2 3.66 3.66 0 0 0 -0.58 0.87c-0.35 0.68 -0.63 1.5 -0.86 2a0.35 0.35 0 0 0 0.15 0.46 0.34 0.34 0 0 0 0.45 -0.15c0.23 -0.42 0.51 -1.07 0.84 -1.65 0.74 -1.28 0.74 -0.81 1.26 -0.81h2.76l1 0L10 9.12c-0.09 0.18 -0.24 0.41 -0.33 0.63a1.2 1.2 0 0 0 -0.06 0.24c-0.93 0.07 -1.85 0.14 -2.76 0.25 -0.74 0.09 -1.47 0.2 -2.2 0.35a0.32 0.32 0 0 0 -0.25 0.32 0.32 0.32 0 0 0 -0.34 0.21 15.91 15.91 0 0 0 -0.71 3.37c-0.17 1.68 -0.18 3.4 -0.27 5.06 0 0.55 -0.13 2.11 -0.13 2.77a1.26 1.26 0 0 0 0.19 0.75 0.86 0.86 0 0 0 0.42 0.22 7.85 7.85 0 0 0 1 0 8.85 8.85 0 0 0 1 0c0.76 0 1.52 -0.1 2.28 -0.13 2.77 -0.13 5.51 0 8.27 0 1.19 0 2.38 -0.06 3.58 -0.19a0.38 0.38 0 0 0 0.35 -0.41 0.37 0.37 0 0 0 -0.41 -0.35c-1.17 0.07 -2.35 0.06 -3.51 0 -2.78 -0.1 -5.53 -0.39 -8.32 -0.37L4.69 22c-0.06 0 -0.26 -0.05 -0.45 -0.08l0 -2.37c0 -1.65 -0.11 -3.36 0 -5a15.19 15.19 0 0 1 0.49 -3.24s0 -0.05 0 -0.08l0.07 0c0.71 -0.08 1.42 -0.12 2.14 -0.13l2.67 0v0.13l0 0.76a1.58 1.58 0 0 0 0.13 0.53 0.94 0.94 0 0 0 0.32 0.35 2.5 2.5 0 0 0 0.65 0.24 4.83 4.83 0 0 0 0.84 0.11l1.12 0a8.27 8.27 0 0 0 1 -0.12 4 4 0 0 0 0.68 -0.18s0.06 -0.06 0.09 -0.08a0.38 0.38 0 0 0 0.33 -0.34c0.08 -0.46 0.2 -0.93 0.3 -1.4l2.09 0c1 0 2 0 3 0.12a0.38 0.38 0 0 0 0.15 0c0 1.23 -0.08 2.44 0 3.67 0 0.95 0.11 1.91 0.15 2.85a27 27 0 0 1 0.22 2.7 9.26 9.26 0 0 1 -0.15 1.73 0.38 0.38 0 0 0 0.26 0.47 0.39 0.39 0 0 0 0.48 -0.27 8.76 8.76 0 0 0 0.36 -1.89 26.3 26.3 0 0 0 0.08 -2.81c0 -0.94 -0.08 -1.9 -0.16 -2.85 -0.18 -1.35 -0.38 -2.62 -0.55 -3.9Zm-7.55 -3.14 0.42 2.11 -0.69 0c-0.77 0 -1.51 0 -2.26 0.06L11 9.5l0.53 -1.78Zm0.55 4.44a4 4 0 0 1 -0.58 0.07 6.27 6.27 0 0 1 -0.75 0c-0.34 0 -0.68 0 -1 -0.09a5.47 5.47 0 0 1 -0.58 -0.15l-0.16 0 0 -0.76v-0.05l2.79 0H14Zm1.18 -2.29a3 3 0 0 0 -0.18 -0.82 10 10 0 0 0 -0.65 -1.31l1.35 0 1.8 0c0.11 0 0.47 0.14 0.49 0a3.53 3.53 0 0 1 0.66 0.73c0.45 0.59 0.92 1.32 1.28 1.87a47.72 47.72 0 0 0 -4.74 -0.47Z" fill="#020202" fill-rule="evenodd" stroke-width="1"></path>
    <path d="m13.59 4.08 -0.35 0.14a1.79 1.79 0 0 0 -0.32 0.19c-1.1 0.77 -1 0.92 -0.92 1 0.13 0.36 1.31 0.11 1.43 0.08a2.38 2.38 0 0 0 0.4 -0.16 2.82 2.82 0 0 0 0.36 -0.24c1.1 -0.92 0.87 -1.14 0.8 -1.24 -0.19 -0.23 -0.34 -0.16 -1.4 0.23Z" fill="#4C57E6" fill-rule="evenodd" stroke-width="1"></path>
    <path d="M1.14 7.52a18.26 18.26 0 0 0 3.24 -1 7.3 7.3 0 0 0 1.62 -1 6.22 6.22 0 0 0 0.87 0 11.12 11.12 0 0 0 3.43 -1.07 37.38 37.38 0 0 0 4.4 -2.73 0.37 0.37 0 0 0 0.13 -0.52 0.39 0.39 0 0 0 -0.5 -0.2 35.06 35.06 0 0 1 -4.44 2.46A9.9 9.9 0 0 1 7 4.24a2.13 2.13 0 0 0 0 -1.7 1.61 1.61 0 0 0 -2 -0.73 2 2 0 0 0 -1.61 1.5 1.54 1.54 0 0 0 0.64 1.52 2.48 2.48 0 0 0 0.68 0.4A5.25 5.25 0 0 1 4 5.7a17.47 17.47 0 0 1 -3 1.17 0.33 0.33 0 0 0 -0.23 0.41 0.35 0.35 0 0 0 0.37 0.24Zm3.57 -4.06a0.87 0.87 0 0 1 0.6 -0.41C5.71 3 6 3 6 3.26a1.56 1.56 0 0 1 -0.21 1l-0.07 0a1.86 1.86 0 0 1 -0.85 -0.37c-0.15 -0.18 -0.21 -0.3 -0.16 -0.43Z" fill="#4C57E6" fill-rule="evenodd" stroke-width="1"></path>
    <path d="M17.62 5.13a0.34 0.34 0 0 0 0.35 0 0.37 0.37 0 0 0 0.29 0.37 2.34 2.34 0 0 0 2.27 -0.58 3.76 3.76 0 0 0 1.15 -2 4.09 4.09 0 0 0 0 -1.32 1.26 1.26 0 0 0 -0.45 -0.76 0.63 0.63 0 0 0 -0.43 -0.15 0.68 0.68 0 0 0 -0.5 0.18 10 10 0 0 1 -0.89 0.65c-0.62 0.32 -2.14 0.84 -2.58 1.61a1.22 1.22 0 0 0 0.22 1.59Zm0.17 -1.69a9.25 9.25 0 0 1 2.13 -0.79l0.61 -0.32 0 0.38a2.76 2.76 0 0 1 -0.64 1.51 1.52 1.52 0 0 1 -1.41 0.53 0.41 0.41 0 0 0 -0.31 0.06 0.35 0.35 0 0 0 -0.17 -0.25l-0.33 -0.34a0.5 0.5 0 0 1 0.12 -0.78Z" fill="#4C57E6" fill-rule="evenodd" stroke-width="1"></path>
    <path d="M23.92 7.13c-0.21 -0.27 -0.44 -0.14 -1.52 0.4a4 4 0 0 0 -0.4 0.22 2.8 2.8 0 0 0 -0.35 0.25c-1.15 0.95 -1 1 -1 1.16 0.18 0.41 1.46 0 1.6 -0.1a4.5 4.5 0 0 0 0.43 -0.23 2.33 2.33 0 0 0 0.38 -0.31c1 -0.94 1.04 -1.16 0.86 -1.39Z" fill="#4C57E6" fill-rule="evenodd" stroke-width="1"></path>
    <path d="M2.92 10.6c-0.17 -0.19 -0.26 -0.23 -1.42 0.3a2.39 2.39 0 0 0 -0.54 0.3s-1.13 0.87 -0.94 1.24c0.07 0.11 0.18 0.34 1.43 -0.09a1.46 1.46 0 0 0 0.38 -0.18 2.11 2.11 0 0 0 0.35 -0.26c1.07 -0.91 0.82 -1.21 0.74 -1.31Z" fill="#4C57E6" fill-rule="evenodd" stroke-width="1"></path>
    <path d="M7 16a5.06 5.06 0 0 0 1 -0.06 1.88 1.88 0 0 0 0.42 -0.14 1.09 1.09 0 0 0 0.38 -0.25 2.68 2.68 0 0 0 0.62 -0.86 0.34 0.34 0 0 0 0 -0.47 0.34 0.34 0 0 0 -0.48 0 5.06 5.06 0 0 1 -0.77 0.27l-0.29 0.13c-0.34 0.19 -0.63 0.43 -1 0.62A0.38 0.38 0 1 0 7 16Z" fill="#020202" fill-rule="evenodd" stroke-width="1"></path>
    <path d="M17.83 15.65a0.38 0.38 0 0 0 -0.28 -0.47 6.8 6.8 0 0 1 -0.71 -0.48l-0.3 -0.18a2.22 2.22 0 0 0 -0.32 -0.14c-0.29 -0.1 -0.57 -0.13 -0.84 -0.24a0.33 0.33 0 0 0 -0.47 0 0.34 0.34 0 0 0 0 0.48 4.08 4.08 0 0 0 0.65 0.79 1.65 1.65 0 0 0 0.36 0.22 1.9 1.9 0 0 0 0.4 0.14 4.32 4.32 0 0 0 1 0.11 0.39 0.39 0 0 0 0.51 -0.23Z" fill="#020202" fill-rule="evenodd" stroke-width="1"></path>
    <path d="M7 17.63c0.32 0 0.62 0.05 1 0a2.56 2.56 0 0 0 0.39 0l0.38 -0.08c0.32 -0.09 0.6 -0.19 0.91 -0.25a0.38 0.38 0 1 0 0 -0.76 5.13 5.13 0 0 0 -1.05 -0.2 1.7 1.7 0 0 0 -0.45 0 1.65 1.65 0 0 0 -0.44 0.1 4.44 4.44 0 0 0 -0.94 0.56 0.32 0.32 0 0 0 -0.22 0.42 0.33 0.33 0 0 0 0.42 0.21Z" fill="#020202" fill-rule="evenodd" stroke-width="1"></path>
    <path d="m14.56 17.78 0.44 0.12a2.3 2.3 0 0 0 0.45 0.05l1.11 0a0.34 0.34 0 0 0 0.41 -0.25 0.34 0.34 0 0 0 -0.25 -0.41 8.88 8.88 0 0 0 -1 -0.52 2.49 2.49 0 0 0 -0.47 -0.12 2.52 2.52 0 0 0 -0.48 0 10.55 10.55 0 0 0 -1.13 0.07 0.38 0.38 0 0 0 -0.09 0.75c0.33 0.06 0.66 0.2 1.01 0.31Z" fill="#020202" fill-rule="evenodd" stroke-width="1"></path>
    <path d="M9.69 20.29a4 4 0 0 1 1.15 -0.2l0.65 0 0.43 0a2.52 2.52 0 0 1 0.94 0.17 0.37 0.37 0 0 0 0.52 -0.1 0.38 0.38 0 0 0 -0.1 -0.53 3 3 0 0 0 -1.37 -0.73 2.57 2.57 0 0 0 -0.68 -0.06 2.07 2.07 0 0 0 -0.65 0.12 3.25 3.25 0 0 0 -1.27 0.84 0.33 0.33 0 0 0 -0.09 0.46 0.34 0.34 0 0 0 0.47 0.03Z" fill="#020202" fill-rule="evenodd" stroke-width="1"></path>
  </g>
</svg>