<svg xmlns="http://www.w3.org/2000/svg" viewBox="0 0 24 24" id="Shipment-Online-Monitor--Streamline-Freehand">
  <desc>
    Shipment Online Monitor Streamline Icon: https://streamlinehq.com
  </desc>
  <g>
    <path d="M8 12.18c0.07 0.63 0.18 1.25 0.23 1.88a0.32 0.32 0 0 0 0.32 0.33 0.32 0.32 0 0 0 0.32 -0.31A17.45 17.45 0 0 0 9 11.91c0 -0.42 0 -0.84 -0.06 -1.26S8.83 9.58 8.8 9l1.88 0.17 0 0.7v1.57l0 0.31a0.52 0.52 0 0 0 0.28 0.44 0.67 0.67 0 0 0 0.3 0.06 2.56 2.56 0 0 0 0.46 -0.12l1 -0.11c1 0 0.78 0.15 1.17 0a0.5 0.5 0 0 0 0.38 -0.46 7.06 7.06 0 0 0 0 -0.92c0 -0.48 -0.08 -1 -0.13 -1.43 0.59 0 1.17 -0.06 1.76 -0.11a0.32 0.32 0 0 0 0.31 -0.33 0.32 0.32 0 0 0 -0.33 -0.31c-0.69 0 -1.39 -0.11 -2.08 -0.17h-0.05l-0.48 0c-0.59 0 -1.18 -0.08 -1.76 -0.08a29.07 29.07 0 0 0 -2.95 0.23 0.28 0.28 0 0 0 -0.27 0.3 10.23 10.23 0 0 0 -0.31 2.13c-0.07 0.45 0.02 0.88 0.02 1.31Zm4.15 -2.87h1.22l0 1.09c0 0.21 0 0.43 -0.05 0.64l-0.63 0 -0.61 0 -0.47 0.08 -0.13 -0.82 -0.06 -0.41 -0.06 -0.51v-0.12Z" fill="#020202" fill-rule="evenodd" stroke-width="1"></path>
    <path d="M16.76 14.41a0.31 0.31 0 0 0 0.32 -0.31 17.2 17.2 0 0 0 0.18 -1.9l0 -0.81c0 -0.28 0 -0.53 -0.07 -0.8 -0.08 -0.63 -0.22 -1.23 -0.31 -1.85a0.27 0.27 0 0 0 -0.28 -0.27 0.28 0.28 0 0 0 -0.28 0.28c-0.06 0.72 -0.15 1.43 -0.15 2.16 0 0.43 0 0.85 0.07 1.28 0.07 0.64 0.16 1.26 0.21 1.89a0.32 0.32 0 0 0 0.31 0.33Z" fill="#020202" fill-rule="evenodd" stroke-width="1"></path>
    <path d="M4 4.22a0.72 0.72 0 0 0 -0.76 0.8 0.75 0.75 0 0 0 1.22 0.48 0.69 0.69 0 0 0 0.25 -0.4 0.64 0.64 0 0 0 -0.13 -0.63 0.77 0.77 0 0 0 -0.58 -0.25Z" fill="#020202" fill-rule="evenodd" stroke-width="1"></path>
    <path d="M6.83 4.06a0.72 0.72 0 0 0 -0.76 0.81 0.75 0.75 0 0 0 1.47 0.07 0.65 0.65 0 0 0 -0.13 -0.63 0.82 0.82 0 0 0 -0.58 -0.25Z" fill="#020202" fill-rule="evenodd" stroke-width="1"></path>
    <path d="M9.05 16.47a0.71 0.71 0 0 0 -0.76 0.8 0.76 0.76 0 0 0 1.23 0.48 0.78 0.78 0 0 0 0.25 -0.41 0.68 0.68 0 0 0 -0.14 -0.63 0.76 0.76 0 0 0 -0.58 -0.24Z" fill="#4C57E6" fill-rule="evenodd" stroke-width="1"></path>
    <path d="M12.33 16.47a0.71 0.71 0 0 0 -0.76 0.8 0.76 0.76 0 0 0 1.23 0.48 0.85 0.85 0 0 0 0.25 -0.41 0.68 0.68 0 0 0 -0.14 -0.63 0.76 0.76 0 0 0 -0.58 -0.24Z" fill="#4C57E6" fill-rule="evenodd" stroke-width="1"></path>
    <path d="M15.84 16.47a0.72 0.72 0 0 0 -0.77 0.8 0.76 0.76 0 0 0 1.23 0.48 0.78 0.78 0 0 0 0.25 -0.41 0.7 0.7 0 0 0 -0.13 -0.63 0.8 0.8 0 0 0 -0.58 -0.24Z" fill="#4C57E6" fill-rule="evenodd" stroke-width="1"></path>
    <path d="M23.89 5.29a13 13 0 0 0 0 -1.59 1.25 1.25 0 0 0 -0.62 -0.93 4.69 4.69 0 0 0 -0.8 -0.26c-0.57 -0.12 -1.19 -0.15 -1.71 -0.22s-2.94 -0.17 -5.94 -0.16c-1.84 0 -3.91 0.07 -5.88 0.16 -3.41 0.16 -6.54 0.46 -7.85 1l-0.05 0s-0.06 0.05 -0.07 0.09 0 0 -0.05 0.06a21.55 21.55 0 0 0 -0.84 7c0 1.34 0.1 2.75 0.23 4.18 0.19 2.06 0.48 4.16 0.68 6.21A0.17 0.17 0 0 0 1 21s0.05 0 0.08 0.05 0 0 0.07 0h0.06c2.34 0.19 4.66 0.45 7 0.6 1.55 0.1 3.12 0.14 4.72 0.15l3.55 -0.08c2.8 -0.09 5.29 -0.21 5.29 -0.21a0.32 0.32 0 1 0 0 -0.63l-8.84 -0.13 -11.47 -0.18c-0.06 -2.32 -0.14 -4.71 -0.26 -7 -0.09 -1.7 -0.2 -3.32 -0.2 -4.84l0 -1.19a0.28 0.28 0 0 0 0.12 0c1.17 -0.09 2.33 -0.15 3.5 -0.19 1.36 0 2.71 0 4.08 -0.06l4.09 -0.08c2.1 -0.09 4.2 -0.16 6.3 -0.18l3.91 0c0.08 1.45 0.13 3.4 0.16 5.37 0.05 3 0.05 5.91 0 7.13a0.32 0.32 0 0 0 0.3 0.34 0.31 0.31 0 0 0 0.33 -0.3c0.11 -1.22 0.2 -4.19 0.23 -7.17s-0.02 -5.89 -0.13 -7.11ZM18 6.2l-5.27 0c-1 0 -1.95 0 -2.93 0.08s-2 0.1 -2.93 0.17c-2 0.13 -3.9 0.32 -5.85 0.59a15.53 15.53 0 0 1 0.41 -3.32A27.27 27.27 0 0 1 7 3.16c2.63 -0.09 5.66 -0.05 8.2 0 2.73 0 4.91 0.12 5.4 0.19s0.95 0.09 1.43 0.16a4 4 0 0 1 0.74 0.2 1.66 1.66 0 0 1 0.12 0.65l0 1c0 0.17 0.06 0.65 0.09 1.08 -1.66 -0.11 -3.3 -0.2 -4.98 -0.24Z" fill="#020202" fill-rule="evenodd" stroke-width="1"></path>
    <path d="M5.07 17.72a1.75 1.75 0 0 0 0.28 0.85 1.42 1.42 0 0 0 0.76 0.5 7.71 7.71 0 0 0 1.65 0.16c1.27 0.09 5.18 0.17 8.11 0.12 1.41 0 2.6 -0.07 3.17 -0.14a1.29 1.29 0 0 0 0.57 -0.16 1 1 0 0 0 0.43 -0.71 4 4 0 0 0 -0.04 -1.12l-0.09 -1.3a1 1 0 0 0 -0.78 -0.75 9.7 9.7 0 0 0 -2.36 -0.3c-3.6 -0.13 -9.74 0.43 -11.21 0.49a0.27 0.27 0 0 0 -0.27 0.28v0.06a0.33 0.33 0 0 0 -0.17 0.31c0 0.47 -0.12 1.14 -0.05 1.71Zm12.12 -1.81c0.42 0 0.79 0.08 1.09 0.14s0.42 0.06 0.54 0.1l0.08 1.19 0 0.78a5.61 5.61 0 0 1 -0.79 0.1c-1.1 0.07 -2.83 0.13 -4.59 0.17 -2.38 0.06 -4.8 0.09 -5.75 0.06a10.37 10.37 0 0 1 -1.31 -0.05 0.81 0.81 0 0 1 -0.56 -0.24 1.08 1.08 0 0 1 -0.18 -0.52c-0.07 -0.56 0 -1.23 0 -1.69 0.47 0 2.48 0.06 3.44 0Z" fill="#4C57E6" fill-rule="evenodd" stroke-width="1"></path>
  </g>
</svg>