<svg xmlns="http://www.w3.org/2000/svg" viewBox="0 0 24 24" id="Shop-Supermarket--Streamline-Freehand">
  <desc>
    Shop Supermarket Streamline Icon: https://streamlinehq.com
  </desc>
  <g>
    <path d="M11.44 10.85c-1.77 0.53 -2.7 2.68 -0.94 3.93 2.67 1.78 5.31 -1.71 3.51 -3.42a2.91 2.91 0 0 0 -2.57 -0.51Zm2 2.62a1.51 1.51 0 0 1 -1.94 0.53c-0.81 -0.3 -1 -0.83 -0.88 -1.32 0.6 -1.99 4.24 -1.23 2.77 0.79Z" fill="#4C57E6" stroke-width="1"></path>
    <path d="M6.31 16.25a15 15 0 0 0 -1.76 0.22 0.91 0.91 0 0 0 -0.58 0.39c0 0.13 -0.12 0.54 -0.13 0.61 -0.15 0.67 -0.46 1.3 0.2 1.68a5.9 5.9 0 0 0 2 0.18c1.38 -0.14 1 -1 1 -1.64 -0.12 -0.26 -0.04 -1.39 -0.73 -1.44Zm-1.83 2.1a7.35 7.35 0 0 1 0.1 -1.22l1.39 0A4.35 4.35 0 0 0 6 18.21c-0.21 0.06 -0.84 0.05 -1.52 0.14Z" fill="#4C57E6" stroke-width="1"></path>
    <path d="M20.57 16.53c-0.19 -0.3 -0.48 -0.34 -0.9 -0.34 -1.54 0.09 -1.57 0 -1.69 0.24 -0.49 0.2 -0.45 1 -0.48 1.41s-0.54 1.3 0.37 1.48a2.88 2.88 0 0 0 0.6 0l1.12 0c1 0 1.13 -0.29 1.1 -1.08 -0.01 -0.38 0.17 -1.24 -0.12 -1.71Zm-1 1.67c-1.29 0.09 -1.19 0.06 -1.27 0.1 0 -0.16 -0.23 -1.28 -0.08 -1.37 1.63 0.15 1.21 0 1.49 0.15Z" fill="#4C57E6" stroke-width="1"></path>
    <path d="M24 12.37a0.64 0.64 0 0 0 -0.11 -0.31 1.2 1.2 0 0 0 -0.76 -0.3 37.48 37.48 0 0 0 -6.39 0.19s-0.2 0.54 0.19 0.56a45.18 45.18 0 0 0 6.11 0.23c0 0.35 0.07 0.9 0.07 1.22l-0.57 0.09c-0.47 -0.86 -3.12 -0.33 -4.57 -0.18l-1.5 0.08c0 -0.94 0.13 -3.3 0.09 -4.23a0.3 0.3 0 0 0 0.22 0.12 1.75 1.75 0 0 0 0.46 0 0.53 0.53 0 0 0 0.45 -0.34c0 -0.09 0 0 0.05 -1.19 0 -0.45 0.14 -1 -0.26 -1.28S16.31 7 15.91 6.9a25.35 25.35 0 0 0 -5.46 -0.1c-0.23 -4.14 -0.44 -4.11 -0.07 -4.15s1.07 0 1.59 0c2.35 0 3.12 -0.05 3.17 0s0.13 1.95 0.12 2 -0.09 0.17 0 0.13c-0.24 0.15 -2.11 -0.52 -3.82 0.12 -0.2 0.08 -0.2 0.44 0.06 0.42a7.76 7.76 0 0 1 2 -0.11c1 0 1.45 0.26 1.81 0.23 1 -0.07 0.85 -1.06 0.85 -2a4.09 4.09 0 0 0 0 -1c-0.16 -0.7 -0.85 -0.7 -1.43 -0.68 -3.06 0.08 -3.42 0.08 -4.08 0.13s-1.06 0.25 -1.15 0.85a39.46 39.46 0 0 0 0.49 4.19C9.17 7 6.6 7 6.07 7.51a0.68 0.68 0 0 0 -0.17 0.41 9.26 9.26 0 0 0 0 2c0.18 0.24 0.37 0.14 0.61 0.13 0.47 0 0.43 0.07 1 0 0 0.2 0 1.84 0.07 2.39 -2 -0.08 -6.18 0.13 -6.26 0.14 -1.65 0.24 -1.42 1 -1.35 2.09l0 0.38a0.61 0.61 0 0 0 0.3 0.46 2.31 2.31 0 0 0 0.84 0.08l0.35 -0.05a8.22 8.22 0 0 0 0.09 0.9c0.23 5 0.13 5.09 0.33 5.27l-0.75 0.06a0.29 0.29 0 0 0 0 0.58l2.84 0c9.17 0.11 5.53 -0.14 16.9 -0.14a19.55 19.55 0 0 0 2.51 -0.21c0.53 -0.1 0.34 -0.81 -0.43 -0.66 0 -0.15 -0.09 -0.39 -0.09 -0.46 0 -4.12 0.22 -4.17 -0.19 -6.15 0.75 0 1.12 0 1.23 -0.51a11 11 0 0 0 0.1 -1.85ZM11.42 17.7a17.6 17.6 0 0 0 0.12 3.63l-1.61 0c0.14 -1.1 0.09 -2.94 0.12 -3.53 0.01 -0.23 -0.15 -0.17 1.37 -0.1Zm0.89 0 1.48 0.05c0 0.15 0.22 3.44 0.24 3.53l-1.86 0a11.24 11.24 0 0 0 0.14 -3.55Zm2.46 0.77c0 -0.81 0 -1.13 -0.23 -1.38s-0.79 -0.29 -1.2 -0.3c-3.91 -0.06 -4.07 -0.22 -4 1.59a26.67 26.67 0 0 0 0.15 3l-1.05 0c0.18 -0.17 0.07 0.19 0.23 -11.07 0.5 -0.11 5.67 -0.41 6.79 -0.41 0.25 1.36 0 8.15 0.08 11.4H15c0 -0.08 -0.22 -2.71 -0.23 -2.8ZM6.61 9.35l0.09 -0.69a4 4 0 0 0 0.11 -0.5c0.51 -0.23 6.63 -0.39 7.22 -0.39 1.5 0 1 0.05 2.94 0.05l0 1.35 -0.15 0a0.32 0.32 0 0 0 -0.33 0.18 0.6 0.6 0 0 0 -0.42 -0.48c-0.84 -0.19 -8.91 0.45 -9.46 0.48ZM1.2 14.91c-0.56 0 -0.34 -0.09 -0.33 -0.27 0.05 -0.84 -0.4 -0.92 0.66 -1l1.7 0c1.8 -0.17 2.33 -0.34 4.45 -0.48l0 1.17c-0.62 0 -0.83 0.11 -1.19 0.12a20.64 20.64 0 0 0 -3 0c-0.6 0.11 -1.28 0 -1.7 0.46a3.75 3.75 0 0 1 -0.59 0Zm1.29 6.73c0.22 -0.3 0 0.11 0.24 -5.23 0 -1.48 -0.46 -0.61 1 -0.92s1.56 -0.07 4 -0.58c0.24 6.82 0.14 6.36 0.29 6.49 -2.02 0.06 -3.75 0.12 -5.53 0.24Zm13.59 -0.32c0.09 -0.14 0.35 -6.59 0.35 -6.67a44.92 44.92 0 0 1 4.66 0l0.48 0c0 0.16 -0.05 0 0.17 1 0.3 1.75 0.21 4 0.48 5.74 0 0.01 -3.15 -0.06 -6.14 -0.07Z" fill="#020202" stroke-width="1"></path>
  </g>
</svg>