<svg xmlns="http://www.w3.org/2000/svg" viewBox="0 0 24 24" id="Shopping-Bag-Biodegradable-1--Streamline-Freehand">
  <desc>
    Shopping Bag Biodegradable 1 Streamline Icon: https://streamlinehq.com
  </desc>
  <g>
    <path d="M16.35 8.7a9.35 9.35 0 0 1 -1 0.46 3.11 3.11 0 0 1 -0.66 0.14c-1 0.1 -1.9 -0.08 -2.81 0.1a3.71 3.71 0 0 0 -1.31 0.55 3.67 3.67 0 0 0 -1.29 1.53 4.07 4.07 0 0 0 -0.33 1.91 3.4 3.4 0 0 0 1.2 2.42c-0.06 0.2 -0.14 0.4 -0.19 0.61a0.36 0.36 0 0 0 0.19 0.47 0.37 0.37 0 0 0 0.47 -0.2c0.09 -0.17 0.22 -0.29 0.32 -0.45a8.7 8.7 0 0 0 2.1 0.12 5 5 0 0 0 1 -0.18 4.73 4.73 0 0 0 1.89 -1 4.09 4.09 0 0 0 1.17 -1.85c0.36 -1.21 0.12 -5.12 -0.75 -4.63Zm-0.52 4.19a3.84 3.84 0 0 1 -1.07 1.53 4.61 4.61 0 0 1 -1.1 0.7 4.39 4.39 0 0 1 -1 0.29 10.27 10.27 0 0 1 -1.1 0.12 0.39 0.39 0 0 0 -0.2 0.08c0.18 -0.23 0.34 -0.49 0.52 -0.71l0.6 -0.72c0.2 -0.23 0.4 -0.47 0.61 -0.7a14.8 14.8 0 0 1 1.6 -1.56 0.41 0.41 0 0 0 0.12 -0.56 0.42 0.42 0 0 0 -0.57 -0.12 11.47 11.47 0 0 0 -2 1.31 7.6 7.6 0 0 0 -0.76 0.74 5.87 5.87 0 0 0 -0.62 0.86 6.13 6.13 0 0 0 -0.35 0.73 2.65 2.65 0 0 1 -0.39 -1.51 3.3 3.3 0 0 1 0.26 -1.06 2.67 2.67 0 0 1 1 -1.24 2.82 2.82 0 0 1 1.16 -0.47c0.76 -0.14 1.55 -0.12 2.35 -0.29a4.26 4.26 0 0 0 0.85 -0.29c0.15 -0.07 0.3 -0.17 0.45 -0.26a6.06 6.06 0 0 1 -0.36 3.13Z" fill="#4C57E6" fill-rule="evenodd" stroke-width="1"></path>
    <path d="M22.86 7.28a5.33 5.33 0 0 0 1 -2.66 3.77 3.77 0 0 0 0 -0.58 3.71 3.71 0 0 0 -0.11 -0.58 2.44 2.44 0 0 0 -2.14 -1.87 4.34 4.34 0 0 0 -3.43 1.55 0.36 0.36 0 1 0 0.52 0.49 3.69 3.69 0 0 1 2.3 -0.94 1.35 1.35 0 0 1 1.44 1.13l0.06 0.72a4.28 4.28 0 0 1 -0.68 2.07A11.92 11.92 0 0 1 20.8 8c-0.23 -1 -0.49 -2 -0.8 -3a0.36 0.36 0 0 0 -0.43 -0.27 0.33 0.33 0 0 0 -0.24 0.23c-0.4 0 -0.8 0 -1.2 -0.07s-1 -0.12 -1.52 -0.18a5.54 5.54 0 0 0 0 -0.71 4.46 4.46 0 0 0 -0.8 -2.1A4.65 4.65 0 0 0 11.62 0a4.17 4.17 0 0 0 -3.47 3 6.74 6.74 0 0 0 -0.27 1.86l0 0.19 -1.37 0.2a0.36 0.36 0 0 0 -0.34 0.38s0 0 0 0.08 -0.08 0.07 -0.1 0.12C5.93 6.4 5.76 7 5.6 7.57c-0.36 1.34 -0.65 2.7 -1 4 -0.2 0.71 -0.4 1.42 -0.56 2.14 -0.12 0.48 -0.21 1 -0.29 1.47l-0.37 3.06a10.11 10.11 0 0 0 -0.17 1.36 2 2 0 0 0 0.19 0.79 1.9 1.9 0 0 0 1 0.89 4.14 4.14 0 0 0 1.13 0.25 6.05 6.05 0 0 1 -2.08 1 2.41 2.41 0 0 1 -0.48 0.08 2.17 2.17 0 0 1 -0.44 0c-0.86 -0.1 -1.29 -0.54 -1.35 -1.14a3.25 3.25 0 0 1 0.76 -2.22 0.34 0.34 0 0 0 0 -0.5 0.37 0.37 0 0 0 -0.51 0 3.75 3.75 0 0 0 -1.25 3.47A2.48 2.48 0 0 0 2.25 24a3.14 3.14 0 0 0 0.61 0.05 4.22 4.22 0 0 0 0.86 -0.11 7.68 7.68 0 0 0 2.91 -1.6c0.24 -0.2 0.45 -0.44 0.67 -0.66 0.82 0 1.64 0.05 2.46 0 1.6 0 3.2 -0.14 4.77 -0.2 1.39 -0.06 2.87 0 4.33 -0.08a15.44 15.44 0 0 0 2.93 -0.4 0.41 0.41 0 0 0 0.31 -0.49 0.46 0.46 0 0 0 -0.17 -0.24c0 -1.77 -0.05 -3.54 -0.15 -5.3 -0.05 -0.78 -0.11 -1.56 -0.19 -2.33s-0.19 -1.56 -0.32 -2.33c-0.07 -0.36 -0.15 -0.72 -0.23 -1.08a13.9 13.9 0 0 0 1.82 -1.95ZM9.22 3.38a3.07 3.07 0 0 1 2.56 -2 3.5 3.5 0 0 1 3.09 1.23 3.39 3.39 0 0 1 0.72 1.53c0 0.14 0 0.29 0.05 0.44 -0.2 0 -0.4 0 -0.61 -0.06 -1.15 0 -2.29 0 -3.43 0.07 -0.92 0.07 -1.83 0.19 -2.74 0.32a5.59 5.59 0 0 1 0.36 -1.53Zm9.61 17.07c-1.45 0 -2.93 -0.1 -4.32 -0.1l-4.76 0 -1.16 0c0.44 -0.49 0.86 -1 1.26 -1.42a0.42 0.42 0 0 0 0 -0.58 0.43 0.43 0 0 0 -0.58 0c-0.66 0.61 -1.4 1.29 -2.16 2l-0.49 0a9.39 9.39 0 0 1 -1.33 -0.1c-0.28 -0.05 -0.57 -0.1 -0.68 -0.34a0.76 0.76 0 0 1 -0.06 -0.37c0 -0.34 0.11 -0.69 0.14 -1l0.25 -3.08c0 -0.47 0.12 -0.93 0.2 -1.4 0.12 -0.71 0.27 -1.41 0.43 -2.11 0.3 -1.35 0.52 -2.74 0.81 -4.1 0.12 -0.57 0.26 -1.14 0.43 -1.7l0 -0.09h1.13a15.33 15.33 0 0 0 0.2 1.59 0.35 0.35 0 0 0 0.4 0.31 0.36 0.36 0 0 0 0.31 -0.4 14.78 14.78 0 0 1 0 -1.5c4.68 0 4 -0.11 6.22 -0.14l0.72 0 0 1.22a0.41 0.41 0 0 0 0.81 0c0 -0.4 0.07 -0.84 0.09 -1.27l1.46 0 1.29 0c0.13 0.81 0.25 1.62 0.34 2.43 0 0.32 0.06 0.65 0.1 1l-0.32 0.36a0.42 0.42 0 0 0 0 0.58 0.39 0.39 0 0 0 0.4 0.06l0 0.49c0.09 0.81 0.17 1.63 0.27 2.44 0.29 2.39 0.61 4.78 0.84 7.19a14.19 14.19 0 0 1 -2.24 0.03Z" fill="#020202" fill-rule="evenodd" stroke-width="1"></path>
  </g>
</svg>