<svg xmlns="http://www.w3.org/2000/svg" viewBox="0 0 24 24" id="Shopping-Bag-Purse-Favorite-Heart--Streamline-Freehand">
  <desc>
    Shopping Bag Purse Favorite Heart Streamline Icon: https://streamlinehq.com
  </desc>
  <g>
    <path d="M12.39 20.48c0.74 0 0.79 -0.78 0.35 -0.88 -1.82 -0.4 -3.42 -0.91 -4.57 -2.57a4.34 4.34 0 0 1 -0.77 -2.69 2.2 2.2 0 0 1 1 -2 1.4 1.4 0 0 1 1.21 0.25 3.93 3.93 0 0 1 2.18 2.58 0.66 0.66 0 0 0 0.94 0.12c0.56 -0.43 -0.15 -0.86 1 -2 0.91 -0.87 2.34 -1.24 2.74 -0.63a2.35 2.35 0 0 1 0.19 1.73 14 14 0 0 1 -1.55 3.74c-0.88 1.34 -1.06 0.58 -1.06 1.16 0 0.79 1.12 0.69 2.29 -1.54 0.92 -1.73 2.09 -4 1.09 -5.69s-3.95 -0.79 -5.19 0.95c-0.9 -1.19 -3 -2.6 -4.45 -1.88 -2.11 1.11 -1.91 4.57 -0.41 6.48a8.76 8.76 0 0 0 5.01 2.87Z" fill="#020202" fill-rule="evenodd" stroke-width="1"></path>
    <path d="M7.06 9s0.47 -3.36 0.68 -3.83c1.2 -2.76 1.46 -4 5.56 -3.92 1.48 0 2.23 0.43 2.62 1.08s1.53 5.89 1.57 6a0.36 0.36 0 0 0 0.69 -0.2c0 -1 -1.1 -6.22 -1.86 -7a4.27 4.27 0 0 0 -3 -1.07C11.16 0 9.85 0.31 9 0.94c-1.15 0.86 -1.51 2.21 -2.1 3.85a27.39 27.39 0 0 0 -0.48 4.3c0.15 0.5 0.81 0.27 0.64 -0.09Z" fill="#020202" fill-rule="evenodd" stroke-width="1"></path>
    <path d="M8.86 6.52a0.36 0.36 0 0 0 0 0.71 20.73 20.73 0 0 0 7.08 -0.17 0.32 0.32 0 0 0 0 -0.63c-3.26 -0.15 -1.49 -0.38 -7.08 0.09Z" fill="#4C57E6" fill-rule="evenodd" stroke-width="1"></path>
    <path d="M23.4 17.16c0 -2.07 -0.09 -7.79 -1.11 -9.6A1.46 1.46 0 0 0 21 6.93c-2.81 -0.18 -2.06 0.8 -1.39 0.79 0.43 0 1.75 -0.22 2 0.21 0.89 1.65 0.84 7.39 0.82 9.23 0 1.19 0.6 3.74 -0.06 4.75 -0.48 0.72 -1.88 0.46 -2.88 0.59a87.18 87.18 0 0 1 -10 0.27c-0.91 0 -7.79 -0.16 -8.09 -0.51 0.11 -6.79 -0.15 -5.67 0.86 -11.75 0.2 -1.21 0 -2.86 1.57 -3.23 0.88 -0.21 1.94 0.24 1.92 -0.36a0.31 0.31 0 0 0 -0.32 -0.31 10.11 10.11 0 0 0 -1.75 0c-2.08 0.44 -1.95 2.55 -2.18 3.74C0.4 16 0.55 15.56 0.34 21.16c0 0.4 -0.2 1.23 0.14 1.71 0.55 0.79 1.62 0.72 2.35 0.78 4.55 0.37 12.78 0.57 16.83 0 1.18 -0.18 2.81 0.13 3.61 -1.13 0.92 -1.46 0.15 -3.99 0.13 -5.36Z" fill="#4C57E6" fill-rule="evenodd" stroke-width="1"></path>
  </g>
</svg>