<svg xmlns="http://www.w3.org/2000/svg" viewBox="0 0 24 24" id="Shopping-Bag-Side--Streamline-Freehand">
  <desc>
    Shopping Bag Side Streamline Icon: https://streamlinehq.com
  </desc>
  <g>
    <path d="M4.8 19.43c-0.71 -0.63 -1 -0.75 -2.14 0.07 -0.5 0.37 -1.06 0.88 -1.51 1.23C1.65 17 1.8 18.28 3 8c0 -0.2 0.36 -1.21 0.13 -1.35 0.23 -0.39 -0.46 -0.82 -0.64 -0.16s0.27 -1 -0.87 5.15C1.46 12.83 -0.24 20.34 0 21.6a0.66 0.66 0 0 0 0.32 0.47c0.74 0.42 1.6 -0.69 2.62 -1.58a3.21 3.21 0 0 1 0.88 -0.66 0.27 0.27 0 0 1 0.12 0.06c2.24 1.64 2.55 2.74 3 2.79a0.35 0.35 0 0 0 0.37 -0.32c0.11 -0.42 -2.16 -2.61 -2.51 -2.93Z" fill="#4C57E6" fill-rule="evenodd" stroke-width="1"></path>
    <path d="M5.75 6.19c0.51 0.09 0.64 -1.73 0.7 -1.89a5.59 5.59 0 0 1 1 -1.65c1.74 -2.09 3 -0.49 3.18 -0.61 0.28 0.45 1.28 -0.11 0 -0.89a2.85 2.85 0 0 0 -2 -0.51C6.83 1 6 2.33 5.57 4c-0.14 0.68 -0.49 2.13 0.18 2.19Z" fill="#020202" fill-rule="evenodd" stroke-width="1"></path>
    <g>
      <path d="M22.71 7a0.84 0.84 0 0 0 -0.48 -0.55A11.73 11.73 0 0 0 18.46 6a6.75 6.75 0 0 0 -1.14 -3.14c-1.59 -2.2 -4.54 -2 -5.61 -0.12a10.44 10.44 0 0 0 -0.86 3.36c-1 0 -3.31 0.06 -3.53 0.32s0 2.68 0 3.31C7.24 12.45 8 22.37 8 22.45c0.12 0.62 0.41 0.67 1 0.73 0.86 0.09 4.71 0.28 6.07 0.2 0.65 0 1.3 -0.11 1.95 -0.18 1 -0.11 3 0.12 4.52 0 0.76 -0.08 2.17 -0.38 2.35 -1.12 0.31 -1.02 -0.49 -13.15 -1.18 -15.08Zm-10 -3.71A2.11 2.11 0 0 1 15 2.53c1.43 0.28 2.33 2.06 2.6 3.5a36.32 36.32 0 0 1 -5.83 0.11 9.47 9.47 0 0 1 0.9 -2.82Zm10.11 18.35c-1.09 0.7 -4.58 0.28 -5.87 0.44a21.89 21.89 0 0 1 -3.13 0.25c-4.89 -0.07 -4.84 0.15 -4.92 -1 -0.75 -8.75 -0.9 -10 -0.9 -11.58l0 -2.86c1 0 2 -0.07 2.66 0 -0.35 2.07 -0.36 2.23 -0.3 2.35a0.41 0.41 0 0 0 0.33 0.26c0.44 0.06 0.28 -0.23 0.78 -2.56a38.87 38.87 0 0 0 6.18 0c0.38 2.18 0.34 2.4 0.52 2.53a0.32 0.32 0 0 0 0.43 0A9.08 9.08 0 0 0 18.56 7a11.86 11.86 0 0 1 3.12 0.43c0 0.1 0.13 0.3 0.17 0.49a128.16 128.16 0 0 1 0.97 13.72Z" fill="#020202" fill-rule="evenodd" stroke-width="1"></path>
      <path d="m6.42 6.29 -2 0.11c-1.17 0.18 -0.77 0.52 -0.59 0.56A17.4 17.4 0 0 0 6.42 7c0.78 -0.25 0.72 -0.48 0 -0.71Z" fill="#4C57E6" fill-rule="evenodd" stroke-width="1"></path>
    </g>
  </g>
</svg>