<svg xmlns="http://www.w3.org/2000/svg" viewBox="0 0 24 24" id="Shop-Basket--Streamline-Freehand">
  <desc>
    Shop Basket Streamline Icon: https://streamlinehq.com
  </desc>
  <g>
    <path d="M8.38 11.49c8.15 -0.14 8.08 0.31 8.12 -0.21a15.24 15.24 0 0 0 0.5 -2.47c0 -0.44 -0.06 -0.85 -0.07 -1.25a0.3 0.3 0 0 0 -0.59 -0.1 6.3 6.3 0 0 0 -0.51 3.46 93.05 93.05 0 0 0 -13.3 -0.31 5.92 5.92 0 0 0 -0.45 -3 0.3 0.3 0 1 0 -0.59 0 5.68 5.68 0 0 0 0.26 3.14 2.66 2.66 0 0 0 -1.54 0.52 0.94 0.94 0 0 0 -0.14 0.61 23.16 23.16 0 0 0 1 5.23 0.72 0.72 0 0 0 0.42 0.34c1.14 0.39 6.83 0.29 8 0.26a0.34 0.34 0 0 0 0 -0.68 65.66 65.66 0 0 1 -7.17 -0.39 3.59 3.59 0 0 1 -0.45 -0.14 27.13 27.13 0 0 1 -0.64 -4.59c0.24 0 0.65 0 1 -0.07 1.42 -0.22 3.77 -0.31 6.15 -0.35Z" fill="#4C57E6" fill-rule="evenodd" stroke-width="1"></path>
    <path d="M23.85 17.57a0.86 0.86 0 0 0 -0.77 -0.45c-0.27 -2.11 -0.5 -3.82 -2.42 -3.49 0 -0.93 -0.61 -1.05 -1.52 -1.08 -3.11 0 -3.56 0.09 -4 0.88a2.18 2.18 0 0 0 -2.35 1.81 5.83 5.83 0 0 0 -0.15 2 0.33 0.33 0 0 0 0.11 0.65l1.91 0c0 0.39 0.13 0.9 0.2 1.62a19.06 19.06 0 0 0 -2.17 0.07 10.65 10.65 0 0 0 -0.48 -1.41 0.3 0.3 0 0 0 -0.36 0c-0.25 0.17 -0.18 0.14 0.85 4a2.88 2.88 0 0 0 0.42 1.19c0.44 0.46 1.67 0.33 2.18 0.34a47.13 47.13 0 0 0 5.06 -0.08c0.59 -0.05 2 0.28 2.41 -0.51a14.72 14.72 0 0 0 0.95 -3.41c0.11 -0.7 0.49 -1.43 0.13 -2.13Zm-7.76 -4.17a27.22 27.22 0 0 0 3.55 0.23c0 0.33 0 0.27 -0.09 0.65 0 0 -3.51 0.09 -3.71 0s-0.2 -0.09 -0.21 -0.17a0.69 0.69 0 0 1 0.46 -0.71Zm-2.84 3.75a10.64 10.64 0 0 1 0.52 -1.39c0.55 -1.39 0.25 -1.13 1.13 -1.58a1 1 0 0 0 0.6 0.86 4.23 4.23 0 0 0 1.64 0.28c1.92 0.14 3.28 0.48 3.45 -1l0.33 0.05c0.08 0 0.72 -0.06 1.39 2.59a67 67 0 0 0 -9.06 0.19Zm5.21 2.34c-1.19 -0.1 -1.49 0 -2.52 -0.06q-0.07 -0.3 -0.18 -0.6c-0.48 -1.09 -0.42 -0.9 -0.44 -1 1.35 0 2.1 -0.05 3.29 0a10.2 10.2 0 0 0 -0.15 1.66Zm4.15 -0.17c-0.17 0.67 -0.28 1.34 -0.45 2 -0.47 1.79 0 0.9 -1.92 1.08 -0.5 0.05 -6.34 0.47 -6.55 0.26l-0.8 -2.45a14 14 0 0 1 2.11 0.22 9.21 9.21 0 0 0 0.61 1.77c0.57 0.52 0.53 -1.57 0.52 -1.66a21.12 21.12 0 0 0 2.39 0c0.06 0.55 0.08 1.71 0.6 1.54s0.27 -0.26 0.41 -1.55a6.77 6.77 0 0 0 2 -0.18 0.34 0.34 0 0 0 0 -0.68 4.61 4.61 0 0 1 -2 -0.06c0 -0.56 -0.07 -0.13 -0.14 -1.77a30 30 0 0 1 3.47 0.4 5.87 5.87 0 0 1 -0.25 1.08Z" fill="#020202" fill-rule="evenodd" stroke-width="1"></path>
    <path d="M4.37 6.1c0.51 0.72 0.77 1.24 1.88 1.38a3.49 3.49 0 0 0 2 -0.41 2.88 2.88 0 0 0 1 -0.83c1.1 1.6 3.57 2 4.51 -0.08A2.87 2.87 0 0 0 18 5.59a3.46 3.46 0 0 0 -0.32 -3 4.21 4.21 0 0 0 -1.87 -2C15.17 0.16 8.52 0.53 2.74 0.49a0.34 0.34 0 0 0 0 0.67c1.68 0.06 12.21 -0.22 12.63 0.08a3.39 3.39 0 0 1 1.51 1.68 2.72 2.72 0 0 1 0.27 2.25 1.9 1.9 0 0 1 -2.57 0.35 6.69 6.69 0 0 1 -0.69 -0.83 0.56 0.56 0 0 0 -0.94 0.16c0 0.11 -0.26 1.49 -1.11 1.59 -1.5 0.19 -2 -1.57 -2.32 -1.81 0 0 -0.69 -0.28 -0.9 0.27a2.15 2.15 0 0 1 -1.74 1.47l-0.52 0a0.94 0.94 0 0 1 -0.84 -0.48c-0.21 -0.37 0.08 -1 -0.24 -1.25s-0.52 -0.59 -1.58 0.78S-0.51 6.39 1.29 3a14.57 14.57 0 0 1 0.83 -1.6A0.29 0.29 0 0 0 2 1C1.66 0.87 1.57 1 0.71 2.63 -1.67 6.8 2.54 8.07 4.37 6.1Z" fill="#020202" fill-rule="evenodd" stroke-width="1"></path>
  </g>
</svg>