<svg xmlns="http://www.w3.org/2000/svg" viewBox="0 0 24 24" id="Shopping-Basket-Search--Streamline-Freehand">
  <desc>
    Shopping Basket Search Streamline Icon: https://streamlinehq.com
  </desc>
  <g>
    <path d="M23.8 23.43a9.77 9.77 0 0 0 -2.95 -3.3A4.14 4.14 0 0 0 18.94 13a4.59 4.59 0 0 0 -5.49 4.73c0.1 2.25 2.25 3.95 3.73 3.79a0.31 0.31 0 0 0 0 -0.61 3.24 3.24 0 0 1 -2.75 -3.19 3.7 3.7 0 0 1 4.3 -3.58c2.61 0.52 3.6 3.55 1.35 5.73a4.38 4.38 0 0 1 -1.44 1 0.35 0.35 0 0 0 0.24 0.65 4.65 4.65 0 0 0 1.45 -0.8 13.41 13.41 0 0 0 3 3.24 0.34 0.34 0 0 0 0.47 -0.53Z" fill="#020202" fill-rule="evenodd" stroke-width="1"></path>
    <path d="M12.21 17.61A24.81 24.81 0 0 1 4.74 17c-1.65 -0.44 -2.08 -2.9 -2.38 -4.61C1.87 9.81 2 10.62 2 10.21c1.65 0.29 13.9 0.2 14 0.2a3 3 0 0 0 -0.38 1.24c-0.05 0.4 -0.23 1.22 0.27 1.15a0.34 0.34 0 0 0 0.34 -0.3c0.77 -1.66 0.77 -1.74 0.65 -2.15a5.15 5.15 0 0 0 0.93 -0.16 1.59 1.59 0 0 0 0.36 -2.71A3.41 3.41 0 0 0 17 7.19c0.28 -3.45 -1.64 -5.42 -3.28 -5.55a1.6 1.6 0 0 0 -0.57 -1.2C12.31 -0.21 11.26 0 7.4 0.17a0.35 0.35 0 0 0 0 0.7c4.83 0.13 5.23 -0.12 5.12 1.23 -0.31 0.71 -2.21 0.43 -3.06 0.51 -0.61 0.08 -2.48 0.44 -2.78 0a1.36 1.36 0 0 1 0.05 -1.36 0.31 0.31 0 1 0 -0.44 -0.43A2.07 2.07 0 0 0 6 3c0.52 1 2.41 0.73 3.53 0.68s3.69 0.53 4.11 -1.35c0.1 0 0.28 0.07 0.32 0.1a7.81 7.81 0 0 1 2.3 4.68 0.35 0.35 0 0 0 0 0.7c1.38 0.19 1.84 0.16 1.72 1a0.61 0.61 0 0 1 -0.38 0.55 17.06 17.06 0 0 1 -4 0C0.47 9.19 2.82 9.16 1.31 8.83c-0.15 -0.16 0.08 -0.6 0.29 -0.7a4 4 0 0 1 1.59 -0.31c0.48 0 7.51 -0.35 11.57 -0.18a0.31 0.31 0 0 0 0 -0.61c-3.53 -0.29 -11.91 -0.3 -12 -0.29a12.17 12.17 0 0 1 2 -3.57c0.92 -0.7 0.85 -0.72 0.85 -0.84 0 -1.36 -4 1.46 -3.58 4.44v0.05a4.74 4.74 0 0 0 -0.94 0.27A1.7 1.7 0 0 0 0.42 9.6a1.7 1.7 0 0 0 0.84 0.46c0 0.29 0 -0.48 0.25 2.47 0.48 5.32 1.64 5.84 6.47 6a25.8 25.8 0 0 0 4.31 -0.27 0.35 0.35 0 1 0 -0.08 -0.65Z" fill="#020202" fill-rule="evenodd" stroke-width="1"></path>
    <path d="M5.07 11.93c-0.91 -0.36 0.17 4.43 1.07 4.05a0.35 0.35 0 0 0 0.25 -0.22c0.18 -0.38 -0.84 -4.05 -1.32 -3.83Z" fill="#4C57E6" fill-rule="evenodd" stroke-width="1"></path>
    <path d="M13.1 11.93c-0.48 -0.22 -1.5 3.45 -1.33 3.83A0.36 0.36 0 0 0 12 16c0.92 0.36 2 -4.43 1.1 -4.07Z" fill="#4C57E6" fill-rule="evenodd" stroke-width="1"></path>
    <path d="M9 11.61c-0.07 0 -0.17 0 -0.22 0.14a8 8 0 0 0 -0.13 3.95 0.4 0.4 0 0 0 0.35 0.44c0.8 0 0.46 -3.3 0.3 -4.3 -0.1 -0.2 -0.2 -0.26 -0.3 -0.23Z" fill="#4C57E6" fill-rule="evenodd" stroke-width="1"></path>
  </g>
</svg>