<svg xmlns="http://www.w3.org/2000/svg" viewBox="0 0 24 24" id="Shopping-Basket-Disable--Streamline-Freehand">
  <desc>
    Shopping Basket Disable Streamline Icon: https://streamlinehq.com
  </desc>
  <g>
    <path d="M22.85 14.59a5.71 5.71 0 0 0 -7.6 -0.86 0.32 0.32 0 0 0 0.35 0.53 4.93 4.93 0 0 1 6.52 0.89 4.63 4.63 0 0 1 -2.67 7.19 4.39 4.39 0 0 1 -3.66 -0.75c0.39 -0.56 1.68 -1.76 2.8 -3.22A39 39 0 0 1 21 15.26a0.31 0.31 0 1 0 -0.45 -0.44 31.34 31.34 0 0 0 -5.23 6.35c-1.38 -1.32 -1.91 -4.13 -0.86 -5.43 0.24 -0.29 -0.19 -0.65 -0.42 -0.36 -1.06 1.2 -0.9 3.4 -0.34 4.8a5.33 5.33 0 0 0 6 3.18 5.53 5.53 0 0 0 3.15 -8.77Z" fill="#020202" fill-rule="evenodd" stroke-width="1"></path>
    <path d="M14.56 10.08a2.78 2.78 0 0 0 -0.35 1.14c-0.1 0.9 -0.16 1.55 -0.15 1.47a0.32 0.32 0 0 0 0.64 0.06 4.56 4.56 0 0 0 0.67 -2.75 5.33 5.33 0 0 0 0.86 -0.14 1.46 1.46 0 0 0 0.33 -2.49 3.12 3.12 0 0 0 -1.08 -0.27 5.1 5.1 0 0 0 -1.2 -4.1 3.27 3.27 0 0 0 -1.81 -1A1.5 1.5 0 0 0 12 0.92c-0.74 -0.6 -1.71 -0.4 -5.26 -0.25a0.33 0.33 0 0 0 0 0.65c4.39 0.13 4.76 -0.12 4.65 1.13 -0.28 0.65 -2 0.39 -2.8 0.46C8 3 6.3 3.32 6 2.91a1.26 1.26 0 0 1 0 -1.25 0.28 0.28 0 0 0 -0.4 -0.4 1.92 1.92 0 0 0 -0.25 2c0.48 0.9 2.21 0.67 3.24 0.63s3.38 0.48 3.77 -1.25c0.1 0 0.26 0.07 0.3 0.09a7.32 7.32 0 0 1 2.11 4.31 0.32 0.32 0 0 0 0 0.63c1.27 0.19 1.7 0.15 1.58 0.94 0 0.23 -0.13 0.46 -0.34 0.51a16 16 0 0 1 -3.72 0C0.33 9 2.49 8.92 1.1 8.63c-0.14 -0.16 0.08 -0.56 0.27 -0.64a3.52 3.52 0 0 1 1.45 -0.3c0.45 0 6.9 -0.31 10.63 -0.16a0.28 0.28 0 1 0 0 -0.56c-3.24 -0.27 -10.93 -0.27 -11 -0.27a11.08 11.08 0 0 1 1.88 -3.27c0.84 -0.65 0.77 -0.66 0.77 -0.78C5.1 1.41 1.46 4 1.81 6.73A4.73 4.73 0 0 0 1 7a1.56 1.56 0 0 0 -0.66 2.3 1.47 1.47 0 0 0 0.76 0.42A22.55 22.55 0 0 1 1.28 12c0.45 4.89 1.51 5.36 5.94 5.55a23.67 23.67 0 0 0 4 -0.25 0.32 0.32 0 1 0 -0.07 -0.64 22.76 22.76 0 0 1 -6.86 -0.52c-1.51 -0.4 -1.91 -2.67 -2.19 -4.24 -0.44 -2.4 -0.31 -1.66 -0.34 -2 1.48 0.25 12.72 0.18 12.8 0.18Z" fill="#020202" fill-rule="evenodd" stroke-width="1"></path>
    <path d="M4.55 11.47c-0.84 -0.33 0.16 4.07 1 3.72a0.33 0.33 0 0 0 0.24 -0.2c0.14 -0.35 -0.79 -3.72 -1.24 -3.52Z" fill="#4C57E6" fill-rule="evenodd" stroke-width="1"></path>
    <path d="M11.93 11.47c-0.45 -0.2 -1.38 3.17 -1.22 3.52a0.32 0.32 0 0 0 0.23 0.2c0.83 0.35 1.82 -4.05 0.99 -3.72Z" fill="#4C57E6" fill-rule="evenodd" stroke-width="1"></path>
    <path d="M8.18 11.18c-0.06 0 -0.16 0 -0.2 0.13a7.32 7.32 0 0 0 -0.12 3.63 0.37 0.37 0 0 0 0.32 0.4c0.74 0 0.43 -3 0.28 -3.95 -0.11 -0.18 -0.21 -0.24 -0.28 -0.21Z" fill="#4C57E6" fill-rule="evenodd" stroke-width="1"></path>
  </g>
</svg>