<svg xmlns="http://www.w3.org/2000/svg" viewBox="0 0 24 24" id="Shopping-Bag-Cash-Back--Streamline-Freehand">
  <desc>
    Shopping Bag Cash Back Streamline Icon: https://streamlinehq.com
  </desc>
  <g>
    <path d="M2.06 11.24a8.56 8.56 0 0 0 2 0.39 22.12 22.12 0 0 0 2.58 0c1.29 -0.06 2.59 -0.22 3.81 -0.35a0.29 0.29 0 0 0 0.26 -0.31 0.28 0.28 0 0 0 -0.3 -0.26l-3.78 0a21.67 21.67 0 0 1 -2.46 -0.2 11.26 11.26 0 0 1 -1.27 -0.19 2.74 2.74 0 0 1 -0.63 -0.22s-0.11 -0.05 -0.13 -0.1a1.1 1.1 0 0 1 0 -0.39 17.28 17.28 0 0 1 0.5 -2.49 14.06 14.06 0 0 1 1.1 -3 0.32 0.32 0 0 0 0 -0.3l0.05 0h1.13l0 0.44c0 0.43 0 0.86 0.06 1.28a0.29 0.29 0 0 0 0.3 0.27 0.28 0.28 0 0 0 0.27 -0.3 9.66 9.66 0 0 1 0.07 -1.2c0 -0.15 0.07 -0.31 0.1 -0.46C6.56 4 7.49 4 8.33 4l1.14 0h0.58a10.89 10.89 0 0 1 0.12 1.19 0.34 0.34 0 0 0 0.33 0.32 0.33 0.33 0 0 0 0.32 -0.33l0 -1.13 0.31 0 0.16 0a3.84 3.84 0 0 1 0.65 1.26 18.11 18.11 0 0 1 0.67 2.32 0.34 0.34 0 0 0 0.38 0.26 0.32 0.32 0 0 0 0.26 -0.38 17.85 17.85 0 0 0 -0.6 -2.87A4 4 0 0 0 12 3.39a1.68 1.68 0 0 0 -0.9 -0.42c-0.14 0 -0.28 0 -0.43 -0.06s0 -0.21 0 -0.31A3.73 3.73 0 0 0 9.86 0.92 2.32 2.32 0 0 0 7.3 0.12 3 3 0 0 0 6 1a4.28 4.28 0 0 0 -1 2 0.76 0.76 0 0 1 0 0.2c-0.43 0 -0.84 0.08 -1.19 0.13a0.28 0.28 0 0 0 -0.26 0.31s0 0 0 0.07a0.3 0.3 0 0 0 -0.33 0.11 16.43 16.43 0 0 0 -1.6 3.71 13.1 13.1 0 0 0 -0.52 2.13 1.71 1.71 0 0 0 0 0.76 1.52 1.52 0 0 0 0.96 0.82Zm5.19 -9.9a1.38 1.38 0 0 1 1.87 0.27 2.77 2.77 0 0 1 0.68 1.21s0 0 0 0.06h-0.4L8.07 3l-2 0.15 -0.19 0a3.4 3.4 0 0 1 1.37 -1.81Z" fill="#020202" fill-rule="evenodd" stroke-width="1"></path>
    <path d="M22.83 15.15a6.81 6.81 0 0 0 -6 -5 7.24 7.24 0 0 0 -6.34 3.21 7.42 7.42 0 0 0 -0.71 7 5.33 5.33 0 0 0 0.59 1.08 5.19 5.19 0 0 0 0.84 0.91 8.22 8.22 0 0 0 1.08 0.78 7.06 7.06 0 0 0 1.22 0.57 4.25 4.25 0 0 0 1.23 0.24 12.26 12.26 0 0 0 1.8 -0.09 0.3 0.3 0 0 0 0.26 -0.31 0.28 0.28 0 0 0 -0.31 -0.26 10.81 10.81 0 0 1 -1.7 0 3.6 3.6 0 0 1 -1.05 -0.23 5.7 5.7 0 0 1 -1.07 -0.55 7.84 7.84 0 0 1 -1 -0.75 4.25 4.25 0 0 1 -0.67 -0.79 5.07 5.07 0 0 1 -0.47 -0.93A6.58 6.58 0 0 1 11.4 14a6.25 6.25 0 0 1 5.42 -2.72A5.81 5.81 0 0 1 22 15.44a5.61 5.61 0 0 1 -1.72 6.44 4.87 4.87 0 0 1 -1 0.59 4 4 0 0 1 -1.07 0.32 0.32 0.32 0 0 0 -0.28 0.36 0.32 0.32 0 0 0 0.36 0.28 4.2 4.2 0 0 0 1.26 -0.34 5.47 5.47 0 0 0 1.12 -0.64 6.39 6.39 0 0 0 2.16 -7.3Z" fill="#020202" fill-rule="evenodd" stroke-width="1"></path>
    <path d="M14.39 18.62a0.31 0.31 0 0 0 -0.35 -0.29 0.31 0.31 0 0 0 -0.29 0.34 1.68 1.68 0 0 0 1.66 1.74l0 1.24a0.31 0.31 0 0 0 0.29 0.35 0.32 0.32 0 0 0 0.35 -0.29c0.07 -0.46 0.12 -0.91 0.17 -1.37a2.69 2.69 0 0 0 2.05 -1.95 1.69 1.69 0 0 0 -0.48 -1.63 3.09 3.09 0 0 0 -1.45 -0.66v-0.18c0 -0.46 -0.05 -0.92 -0.08 -1.38a4.26 4.26 0 0 1 0.71 0 6.35 6.35 0 0 1 0.86 0.12 0.29 0.29 0 0 0 0.35 -0.21 0.3 0.3 0 0 0 -0.21 -0.35c-0.31 -0.08 -0.62 -0.15 -0.93 -0.2a5.29 5.29 0 0 0 -0.8 0l0 -1.11a0.28 0.28 0 0 0 -0.26 -0.31 0.29 0.29 0 0 0 -0.31 0.26c-0.07 0.4 -0.11 0.81 -0.16 1.22l-0.58 0.07a1.83 1.83 0 0 0 -1.47 0.97c-0.13 0.46 0.07 1.07 1 1.64a2.94 2.94 0 0 0 0.87 0.31l0 1.48c0 0.48 0 0.77 0.05 1.16a1 1 0 0 1 -0.99 -0.97Zm2.45 -1.22a0.72 0.72 0 0 1 0.42 0.83 1.58 1.58 0 0 1 -1 1.18c0 -0.44 0.06 -0.89 0.07 -1.33l0 -0.84a3.24 3.24 0 0 1 0.51 0.16Zm-2.38 -2c0 -0.05 -0.07 -0.08 -0.07 -0.12 0 -0.23 0.35 -0.38 0.74 -0.5l0.26 -0.06c0 0.39 -0.06 0.78 -0.07 1.18a2.12 2.12 0 0 1 -0.36 -0.13 1.66 1.66 0 0 1 -0.5 -0.39Z" fill="#020202" fill-rule="evenodd" stroke-width="1"></path>
    <path d="M15.33 2a4.48 4.48 0 0 1 2.43 0.6 5.7 5.7 0 0 1 0.88 0.6 6.7 6.7 0 0 1 0.77 0.74 7.08 7.08 0 0 1 1.23 1.89l-0.06 0.09c-0.28 -0.14 -0.55 -0.28 -0.82 -0.4s-0.49 -0.21 -0.74 -0.3a10.33 10.33 0 0 0 -2 -0.57 0.29 0.29 0 1 0 -0.15 0.55 8.18 8.18 0 0 1 1 0.46c0.49 0.26 0.93 0.55 1.4 0.83 0.31 0.18 0.64 0.35 1 0.52A0.63 0.63 0 0 0 21 7a2.86 2.86 0 0 0 0.49 -0.44 3.54 3.54 0 0 0 0.44 -0.65 9.64 9.64 0 0 0 0.44 -1 7.66 7.66 0 0 0 0.27 -0.72 6.93 6.93 0 0 0 0.2 -0.75 0.32 0.32 0 0 0 -0.23 -0.4 0.31 0.31 0 0 0 -0.39 0.23 5.17 5.17 0 0 1 -0.28 0.64 6.08 6.08 0 0 1 -0.33 0.62c-0.13 0.21 -0.26 0.42 -0.4 0.63a7 7 0 0 0 -0.95 -1.86 4.91 4.91 0 0 0 -0.88 -0.94 4.58 4.58 0 0 0 -1.11 -0.69 4.82 4.82 0 0 0 -3 -0.23 0.28 0.28 0 0 0 -0.25 0.32 0.31 0.31 0 0 0 0.31 0.24Z" fill="#4C57E6" fill-rule="evenodd" stroke-width="1"></path>
    <path d="M7.69 20.46a4.57 4.57 0 0 1 -2.19 -1.22 5.92 5.92 0 0 1 -0.69 -0.8 7 7 0 0 1 -0.56 -0.92 7.45 7.45 0 0 1 -0.69 -2.14l0.08 -0.07c0.23 0.2 0.46 0.41 0.69 0.6s0.42 0.33 0.64 0.48a10.76 10.76 0 0 0 1.74 1.06 0.29 0.29 0 0 0 0.39 -0.1A0.28 0.28 0 0 0 7 17a10.74 10.74 0 0 1 -0.89 -0.72c-0.4 -0.37 -0.75 -0.77 -1.13 -1.16s-0.53 -0.51 -0.81 -0.76a0.66 0.66 0 0 0 -0.61 -0.13 2.68 2.68 0 0 0 -0.59 0.29 4.88 4.88 0 0 0 -0.59 0.52 10.42 10.42 0 0 0 -0.68 0.84 7.17 7.17 0 0 0 -0.45 0.63c-0.14 0.22 -0.27 0.44 -0.39 0.67a0.33 0.33 0 1 0 0.56 0.33 5.79 5.79 0 0 1 0.43 -0.55c0.15 -0.18 0.32 -0.35 0.49 -0.52s0.35 -0.33 0.54 -0.5a7.27 7.27 0 0 0 0.43 2 5.2 5.2 0 0 0 0.61 1.14 4.51 4.51 0 0 0 0.9 1 4.78 4.78 0 0 0 2.8 1 0.27 0.27 0 0 0 0.32 -0.24 0.28 0.28 0 0 0 -0.25 -0.38Z" fill="#4C57E6" fill-rule="evenodd" stroke-width="1"></path>
  </g>
</svg>