<svg xmlns="http://www.w3.org/2000/svg" viewBox="0 0 24 24" id="Shopping-Cart-Trolley-Remove--Streamline-Freehand">
  <desc>
    Shopping Cart Trolley Remove Streamline Icon: https://streamlinehq.com
  </desc>
  <g>
    <path d="M10.69 2.08a5.84 5.84 0 0 0 -9.36 0.58c-1.66 2.45 -0.81 6 0.84 7.1a0.31 0.31 0 0 0 0.35 -0.51c-1.31 -0.91 -1.91 -4.06 -0.42 -6a4.92 4.92 0 0 1 7.69 -0.39c2.44 2.88 1 7.25 -3.29 7.76a5.76 5.76 0 0 1 -2.34 -0.17 0.35 0.35 0 0 0 -0.22 0.66 6.56 6.56 0 0 0 2.64 0.29 5.6 5.6 0 0 0 4.11 -9.32Z" fill="#020202" fill-rule="evenodd" stroke-width="1"></path>
    <path d="M5.62 5.48A9.58 9.58 0 0 0 3.82 8 0.88 0.88 0 0 0 4 9c0.53 0.49 0.11 -0.46 1.55 -1.81 0.33 -0.36 0.7 -0.7 1.06 -1 0.53 0.43 1.62 1.33 1.67 2a0.35 0.35 0 0 0 0.7 0c0.08 -1 -0.84 -2.13 -1.54 -2.84A10.71 10.71 0 0 1 9.31 3.9 0.35 0.35 0 0 0 9 3.28a10.68 10.68 0 0 0 -2.39 1.35C6.08 4.2 4.42 3 4.15 2.77c-0.75 -0.73 -0.87 0.06 -0.54 0.35 0.09 0.15 1 1.14 1.26 1.44 0.99 1 0.91 0.75 0.75 0.92Z" fill="#020202" fill-rule="evenodd" stroke-width="1"></path>
    <g>
      <path d="m9.75 14.45 2.19 -0.13a8.69 8.69 0 0 0 0.3 1.76s0 0.07 0 0.13c0.36 0.55 0.67 0.6 1 0.06 0 -0.33 -0.06 -0.76 -0.09 -1.36 0 -0.21 0 -0.44 -0.07 -0.66 0.8 -0.05 1.53 -0.1 2.89 -0.23 0 1 0.07 1.75 0.16 2.92a0.34 0.34 0 0 0 0.68 0c0.08 -1.13 0.21 -1.88 0.27 -3l1.66 -0.16c0.83 -0.22 0.81 -0.49 0.06 -0.8h-1.71a6.38 6.38 0 0 0 -0.1 -1.57c-0.18 -1 -0.79 -0.7 -0.83 0C16 13 16 12.26 16 13a26.46 26.46 0 0 0 -3.11 0.23c-0.12 -0.52 -0.25 -1 -0.36 -1.41a0.3 0.3 0 0 0 -0.59 0.08l0 1.48c-1 0.18 -1.73 0.24 -2.37 0.41 -0.57 0.28 -0.95 0.61 0.18 0.66Z" fill="#4C57E6" stroke-width="1"></path>
      <path d="M23.54 5.92c-0.37 -0.77 -2.46 1.14 -3.29 3.61a25.26 25.26 0 0 0 -7 -0.1 0.34 0.34 0 0 0 0 0.67 31.88 31.88 0 0 0 6.8 0.13 33.29 33.29 0 0 0 -0.66 5.18c-0.06 0.58 -0.05 1.24 -0.11 1.88 -0.56 0 -2 0.12 -2.36 0.13a54.4 54.4 0 0 1 -7.23 -0.77c-0.5 -0.34 -0.81 -1.09 -1.13 -2.8A0.29 0.29 0 0 0 8 14c0.27 2 0.43 3.24 1.62 3.77a10.18 10.18 0 0 0 2.31 0.38 21.86 21.86 0 0 0 7.24 -0.15 1.51 1.51 0 0 1 -1 1.23 5.39 5.39 0 0 1 -1.81 0.28c-1.24 0 -2.5 0.11 -3.76 0.09a34 34 0 0 1 -3.86 -0.33 0.3 0.3 0 1 0 -0.19 0.56 11.66 11.66 0 0 0 1.48 0.24c0.33 0.07 0.32 0 0.14 0.08a2 2 0 0 0 0.31 3.78c1.55 0.39 3.25 -0.94 2.73 -2.46a1.92 1.92 0 0 0 -0.78 -1 3.31 3.31 0 0 0 -0.33 -0.15c1.63 0.15 2.4 0.12 4.26 0.18 1.49 0 0.9 -0.29 0.43 0.68 -1.25 2.56 2.73 3.58 3.64 2.09A2.49 2.49 0 0 0 19.05 20c2 -1.21 1.1 -3.92 1.68 -8.48a8.3 8.3 0 0 1 1.44 -4 3.82 3.82 0 0 1 1.21 -1.15 0.34 0.34 0 0 0 0.16 -0.45Zm-12.81 16.9c-0.55 -0.13 -0.87 -0.43 -0.92 -0.82 -0.14 -1.06 1.1 -1.48 2 -0.95 1.19 0.77 0.12 2.06 -1.08 1.77ZM19.14 21c2.16 2.24 -2.23 2.52 -1.53 0.58a1.16 1.16 0 0 1 1.15 -0.87 1.59 1.59 0 0 1 0.38 0.29Z" fill="#020202" stroke-width="1"></path>
    </g>
  </g>
</svg>