<svg xmlns="http://www.w3.org/2000/svg" viewBox="0 0 24 24" id="Shopping-Bag-Purse-Download--Streamline-Freehand">
  <desc>
    Shopping Bag Purse Download Streamline Icon: https://streamlinehq.com
  </desc>
  <g>
    <path d="M7.06 9s0.47 -3.36 0.68 -3.83c1.2 -2.76 1.46 -4 5.56 -3.92 1.48 0 2.23 0.43 2.62 1.08s1.53 5.89 1.57 6a0.36 0.36 0 0 0 0.69 -0.2c0 -1 -1.1 -6.22 -1.86 -7a4.27 4.27 0 0 0 -3 -1.07C11.16 0 9.85 0.31 9 0.94c-1.15 0.86 -1.51 2.21 -2.1 3.85a27.39 27.39 0 0 0 -0.48 4.3c0.15 0.49 0.81 0.27 0.64 -0.09Z" fill="#020202" fill-rule="evenodd" stroke-width="1"></path>
    <path d="M8.86 6.52a0.36 0.36 0 0 0 0 0.71 20.73 20.73 0 0 0 7.08 -0.17 0.32 0.32 0 0 0 0 -0.63c-3.26 -0.15 -1.49 -0.38 -7.08 0.09Z" fill="#4C57E6" fill-rule="evenodd" stroke-width="1"></path>
    <path d="M23.4 17.16c0 -2.07 -0.09 -7.79 -1.11 -9.6A1.46 1.46 0 0 0 21 6.93c-2.81 -0.18 -2.06 0.8 -1.39 0.79 0.43 0 1.75 -0.22 2 0.21 0.89 1.65 0.84 7.39 0.82 9.23 0 1.19 0.6 3.75 -0.06 4.75 -0.48 0.72 -1.88 0.46 -2.88 0.59a87.18 87.18 0 0 1 -10 0.27c-0.91 0 -7.79 -0.16 -8.1 -0.51 0.12 -6.79 -0.14 -5.67 0.87 -11.75 0.2 -1.21 0 -2.86 1.57 -3.23 0.88 -0.21 1.94 0.24 1.92 -0.36a0.31 0.31 0 0 0 -0.32 -0.31 10.11 10.11 0 0 0 -1.75 0c-2.07 0.44 -1.95 2.55 -2.18 3.74C0.4 16 0.55 15.56 0.34 21.16c0 0.4 -0.2 1.23 0.14 1.71 0.55 0.79 1.62 0.72 2.35 0.78 4.56 0.37 12.79 0.57 16.83 0 1.19 -0.18 2.81 0.13 3.61 -1.13 0.92 -1.46 0.15 -3.99 0.13 -5.36Z" fill="#4C57E6" fill-rule="evenodd" stroke-width="1"></path>
    <path d="M9 15.23c-0.05 0 -0.07 0 0 0.06s0 -0.04 0 -0.06Zm5.22 -4.41c-1.26 0.15 -3.86 -0.69 -3.57 0.7l0.44 2.48c0.27 0.67 0.36 0.92 0.1 1.2 -0.44 0.44 -1.15 -0.29 -2.21 0.08 -0.06 0.2 0.24 0.67 0.38 0.95 2.53 4.15 1.48 5 6.28 -0.74 -0.4 -0.07 -0.94 0 -1.39 -0.12s-1 -0.37 -0.93 -0.85 0.25 -0.9 0.54 -2.39c0.14 -1 0.03 -1.13 0.34 -1.31ZM10 14a28.46 28.46 0 0 1 -0.43 -3.06c0.09 -0.69 1.11 -1 1.76 -1 1 -0.05 2.06 0.39 3 0.19a0.34 0.34 0 0 1 0.4 0.25 32.56 32.56 0 0 1 -0.46 4c0.62 0.18 3.38 -0.26 2.55 1.39a7.17 7.17 0 0 1 -1 1.26c-2.07 2.31 -2.94 3.4 -3.61 3.73a1.46 1.46 0 0 1 -1.73 -0.37 4 4 0 0 1 -0.63 -0.94c-0.5 -0.94 -2 -2.78 -2.15 -3.87 -0.15 -1.3 0.98 -1.68 2.3 -1.58Z" fill="#020202" fill-rule="evenodd" stroke-width="1"></path>
  </g>
</svg>