<svg xmlns="http://www.w3.org/2000/svg" viewBox="0 0 24 24" id="Show-Truck--Streamline-Freehand">
  <desc>
    Show Truck Streamline Icon: https://streamlinehq.com
  </desc>
  <title>show-truck</title>
  <g>
    <path d="M0.7 3.39c-0.26 0.29 0.61 1.91 0.79 2.28l0.92 2c0.07 0.17 0.14 0.43 0.24 0.65a1.24 1.24 0 0 0 0.23 0.36 0.4 0.4 0 0 0 0.59 0 3.36 3.36 0 0 0 0.29 -0.4l0.59 -1S6 5.08 6.14 5c0.16 0.12 1.24 1.13 1.71 1.52a7.8 7.8 0 0 0 1 0.74 5.09 5.09 0 0 0 0.74 0.47 0.71 0.71 0 0 0 0.47 0 0.69 0.69 0 0 0 0.35 -0.28 2.84 2.84 0 0 0 0.17 -0.38l0.52 -1.12c0.21 -0.4 0.42 -0.8 0.65 -1.2s0.46 -0.78 0.71 -1.17l0.38 -0.65 0.62 0.4 2.33 1.89a6.23 6.23 0 0 0 0.69 0.56 1.15 1.15 0 0 0 0.57 0.2 0.49 0.49 0 0 0 0.44 -0.35 8.3 8.3 0 0 0 0.21 -0.82l0.67 -2.87c0.23 -0.89 0.43 -1.39 0.33 -1.59a0.35 0.35 0 0 0 -0.6 0.05c0 0.1 -0.12 0.38 -0.13 0.42l-0.8 3s-0.18 0.76 -0.25 1a2 2 0 0 1 -0.52 -0.3l-2.28 -2 -0.57 -0.4 0.69 -0.2c0.79 -0.22 1.58 -0.53 2.38 -0.78a9.27 9.27 0 0 1 1 -0.27 0.33 0.33 0 0 0 0.27 -0.39 0.32 0.32 0 0 0 -0.39 -0.27 10.34 10.34 0 0 0 -1.08 0.22c-0.8 0.19 -1.61 0.44 -2.4 0.62l-3.24 0.69 -2.15 0.45c-1.19 0.24 -2.38 0.49 -3.59 0.64A14.34 14.34 0 0 1 3 3a7.8 7.8 0 0 1 -1.39 -0.1S0.77 2.61 0.5 2.83a0.29 0.29 0 0 0 0 0.41 0.56 0.56 0 0 0 0.2 0.15Zm8.15 -0.09c0.73 -0.14 1.46 -0.3 2.18 -0.48l0.76 -0.21 -0.22 0.39q-0.39 0.6 -0.75 1.2c-0.24 0.41 -0.47 0.83 -0.69 1.25l-0.43 0.92 -0.24 -0.1a7.3 7.3 0 0 1 -0.9 -0.64c-0.45 -0.36 -0.87 -0.76 -1.3 -1.16a5.15 5.15 0 0 0 -0.85 -0.77l-0.06 0c0.84 -0.13 1.65 -0.24 2.5 -0.4Zm-5.91 0.48a13.47 13.47 0 0 0 2.2 0l0.55 0c-0.06 0 -0.54 0.8 -0.64 1L3.61 6.87l-0.4 0.73 -1.14 -2.23a19.94 19.94 0 0 0 -0.91 -1.9c0.2 0.03 1.28 0.27 1.78 0.31Z" fill="#020202" stroke-width="1"></path>
    <path d="M23.84 15.72c0.1 -1.7 0.16 -4.44 0.16 -5.8l0 -0.75a0.57 0.57 0 0 0 -0.32 -0.52 2.79 2.79 0 0 0 -0.94 -0.19l-1.83 0c-1.12 -0.07 -2.22 -0.09 -3.32 -0.05s-2.19 0.1 -3.31 0.22c-0.39 0 -0.78 0.06 -1.18 0.07l-1.81 0s-1.39 -0.07 -1.52 0.11a2.67 2.67 0 0 0 -0.17 0.84l0 0.56 -0.6 -0.07c-0.54 -0.06 -1.24 -0.14 -1.9 -0.14a3.6 3.6 0 0 0 -1.39 0.2 2.16 2.16 0 0 0 -1 1A5.37 5.37 0 0 0 4 12.94l-0.1 0.86h-0.34c-0.39 0 -0.83 0.07 -1.25 0.15a3 3 0 0 0 -0.91 0.33 1.78 1.78 0 0 0 -0.61 0.61 4.68 4.68 0 0 0 -0.41 0.89A5.41 5.41 0 0 0 0 17.26a9.28 9.28 0 0 0 0.08 2.17 6.57 6.57 0 0 0 0.17 0.89 2.18 2.18 0 0 0 0.34 0.68 1.49 1.49 0 0 0 0.78 0.5 5.48 5.48 0 0 0 1.38 0.18 1.67 1.67 0 0 0 0.08 0.32 2.72 2.72 0 0 0 1.44 1.51 3.32 3.32 0 0 0 2.57 0 2.44 2.44 0 0 0 1.43 -1.7c0.83 0.08 1.71 0.18 2.64 0.22l1.23 0c0.42 0 0.81 0 1.22 -0.05 0.77 0 1.53 -0.12 2.28 -0.19a2 2 0 0 0 0.08 0.35 2.69 2.69 0 0 0 1.45 1.5 3.32 3.32 0 0 0 2.57 0 2.51 2.51 0 0 0 1.49 -2.06 0.31 0.31 0 0 0 0 -0.1 7.29 7.29 0 0 0 2 -0.11 0.69 0.69 0 0 0 0.51 -0.61 11.3 11.3 0 0 0 0 -1.48c0 -0.61 -0.11 -1.24 -0.16 -1.74l0.07 -0.11a7.7 7.7 0 0 0 0.19 -1.71ZM5.06 13.93c0.05 -0.28 0 -0.61 0.05 -0.83a4.69 4.69 0 0 1 0.31 -1.27 1.48 1.48 0 0 1 0.65 -0.83 2.79 2.79 0 0 1 1 -0.22 17.36 17.36 0 0 1 1.83 0.06c0.12 0 0.34 0.06 0.57 0.09l0 0.37c-0.05 0.86 -0.09 1.74 -0.11 2.62l0 0.82 -0.71 -0.08c-0.43 -0.05 -0.86 -0.12 -1.3 -0.16s-0.87 -0.05 -1.3 -0.08l-1.16 0a1.34 1.34 0 0 0 0.17 -0.49Zm3.29 7.17a2.49 2.49 0 0 0 0 -0.72 2.24 2.24 0 0 0 -0.42 -1 0.34 0.34 0 0 0 -0.54 0.4 1.33 1.33 0 0 1 0.22 0.67 2.4 2.4 0 0 1 -0.05 0.76 1.63 1.63 0 0 1 -1.07 1.24 2.24 2.24 0 0 1 -1.71 -0.06 1.74 1.74 0 0 1 -0.89 -0.88 1.38 1.38 0 0 1 0 -1.2 2.69 2.69 0 0 1 0.55 -0.75A1.78 1.78 0 0 1 6 19.07a0.31 0.31 0 0 0 0.29 -0.31 0.35 0.35 0 0 0 -0.29 -0.33 3.52 3.52 0 0 0 -1 0 3 3 0 0 0 -1.1 0.53 3.31 3.31 0 0 0 -0.85 0.9 2.46 2.46 0 0 0 -0.39 1.05 5.28 5.28 0 0 1 -0.9 -0.14 1 1 0 0 1 -0.57 -0.32 1.07 1.07 0 0 1 -0.14 -0.38 3.45 3.45 0 0 1 -0.1 -0.76A9.86 9.86 0 0 1 1 17.7a4.8 4.8 0 0 1 0.38 -1.5c0.08 -0.18 0.18 -0.41 0.29 -0.61a0.84 0.84 0 0 1 0.28 -0.33 2 2 0 0 1 0.6 -0.2 11.18 11.18 0 0 1 1.13 -0.13l0.44 0a2.68 2.68 0 0 0 0.38 0.19 4.39 4.39 0 0 0 0.61 0.21c0.29 0.08 0.59 0.13 0.89 0.2s0.89 0.09 1.33 0.1 0.89 0 1.34 -0.07a5.61 5.61 0 0 0 0.75 0v0.2c0 0.23 -0.08 2.91 -0.07 3.21s0.06 0.61 0.09 0.92c0 0 0.05 1.16 0.08 1.2Zm14.3 -1.89 0 1.3a10.49 10.49 0 0 1 -1.38 0.27 2.45 2.45 0 0 0 0 -0.27 2.11 2.11 0 0 0 -0.43 -1 0.33 0.33 0 0 0 -0.46 -0.08 0.34 0.34 0 0 0 -0.08 0.47 1.49 1.49 0 0 1 0.23 0.68 2.35 2.35 0 0 1 0 0.75 1.68 1.68 0 0 1 -1.08 1.25 2.26 2.26 0 0 1 -1.7 -0.07 1.65 1.65 0 0 1 -0.89 -0.87 1.36 1.36 0 0 1 0 -1.21 2.85 2.85 0 0 1 0.55 -0.74 1.69 1.69 0 0 1 0.79 -0.5c0.38 -0.07 1 0 1 -0.34 0 -0.13 -0.07 -0.27 -0.29 -0.34a4.61 4.61 0 0 0 -0.95 0 3.22 3.22 0 0 0 -1.1 0.54A3.6 3.6 0 0 0 16 20a2.4 2.4 0 0 0 -0.36 1l-2.27 -0.11 -1.22 0 -1.22 0 -0.73 0.06 0.16 -3.43 0.54 0c1.7 0.07 5.41 0.16 8.3 0.18l3.57 0c-0.04 0.47 -0.1 1 -0.12 1.51Zm0.06 -3.56c0 0.38 0 0.71 -0.05 0.92l-0.85 0c-2.56 0 -8.19 0.08 -10.64 0.06l-0.91 0 0 -0.16 0 -0.87c-0.05 -0.57 -0.08 -1.14 -0.1 -1.71a32.68 32.68 0 0 1 0.18 -4.51l1 0.07h1.76c3 0 1.76 -0.17 4.49 -0.17 0.05 0 3 0.12 3.24 0.14l1.83 0 0.53 0c-0.04 1.18 -0.19 2.68 -0.48 6.23Z" fill="#020202" stroke-width="1"></path>
    <path d="M21.82 11.49a1 1 0 0 1 -1.55 -0.19 3.08 3.08 0 0 1 -0.4 -0.78 3.94 3.94 0 0 0 -0.29 -0.76c-0.19 -0.32 -0.5 -0.54 -1 -0.12a2.65 2.65 0 0 0 -0.42 0.48 8.58 8.58 0 0 1 -0.7 1 1 1 0 0 1 -0.82 0.26 1.38 1.38 0 0 1 -0.83 -0.23 1.67 1.67 0 0 1 -0.55 -0.72l-0.41 -0.74c-0.1 -0.33 -0.86 -0.31 -0.93 0.07a2.42 2.42 0 0 1 -0.17 0.55 4.57 4.57 0 0 1 -0.59 0.78 1.56 1.56 0 0 1 -0.82 0.59 1.29 1.29 0 0 1 -1.23 -0.51c-1 -1.2 -1 -0.2 -0.54 0.44a2 2 0 0 0 1.94 0.87 2.21 2.21 0 0 0 1.11 -0.58 3.62 3.62 0 0 0 0.71 -0.86 2.73 2.73 0 0 0 0.83 1 2.47 2.47 0 0 0 1.45 0.45A2.15 2.15 0 0 0 18 12.2a4.2 4.2 0 0 0 1 -1.29 4.5 4.5 0 0 0 0.61 1 1.81 1.81 0 0 0 2.26 0.51 2.7 2.7 0 0 0 1 -1c0.2 -0.37 0.17 -0.91 -0.33 -0.65 -0.17 0.05 -0.42 0.49 -0.72 0.72Z" fill="#4C57E6" stroke-width="1"></path>
  </g>
</svg>