<svg xmlns="http://www.w3.org/2000/svg" viewBox="0 0 24 24" id="Skiing-Snow-Ice-Sledge-Hockey--Streamline-Freehand">
  <desc>
    Skiing Snow Ice Sledge Hockey Streamline Icon: https://streamlinehq.com
  </desc>
  <title>skiing-snow-ice-sledge-hockey</title>
  <g>
    <path d="M2.93 11a7 7 0 0 0 1.07 0.74 3 3 0 0 0 0.92 0.35 1.48 1.48 0 0 0 0.8 -0.2 15.19 15.19 0 0 0 1.8 -1.12C8 10.4 8.57 10 9 9.58a17.81 17.81 0 0 0 1.43 -1.35L11.71 7l0.06 0a6.84 6.84 0 0 0 2.62 1.92 20.49 20.49 0 0 0 4.21 1.52l0.57 1.22 -3.83 -1.09a8 8 0 0 0 -1.34 -0.21 1.57 1.57 0 0 0 -0.78 0.13l-2.63 1.56 -1 0.82a4.12 4.12 0 0 0 -0.82 0.69 1.93 1.93 0 0 0 -0.41 0.77 2.19 2.19 0 0 0 0.36 2.08 2.56 2.56 0 0 0 2 0.67 4.69 4.69 0 0 0 1.74 -0.37 9.75 9.75 0 0 0 2.14 -1.27c0.15 -0.11 0.36 -0.32 0.59 -0.52a2.61 2.61 0 0 1 0.24 -0.23l1.25 0.64c0.91 0.38 1.43 0.84 2.14 1.12a4.21 4.21 0 0 0 1.17 0.26 3.45 3.45 0 0 0 2.91 -0.92c1.31 -1.34 1.11 -3.79 1 -4.24a9.86 9.86 0 0 0 -1.19 -3.68 3.54 3.54 0 0 0 -1.4 -1.27 2.36 2.36 0 0 0 1.06 -1.08 2.73 2.73 0 0 0 0.31 -1.64 4.45 4.45 0 0 0 -1 -1.95 3.37 3.37 0 0 0 -2 -1.11 3.9 3.9 0 0 0 -2 0.3 2.47 2.47 0 0 0 -1.13 1A3.52 3.52 0 0 0 16 3.93a3.75 3.75 0 0 0 0.45 1.7c-0.36 -0.21 -0.75 -0.45 -1.2 -0.76 -0.63 -0.43 -1.09 -1.16 -1.74 -1.47a1.91 1.91 0 0 0 -1.29 -0.1 1.27 1.27 0 0 0 -0.63 0.39 2.12 2.12 0 0 0 -0.43 0.74 2.2 2.2 0 0 0 -0.13 1.2 1.86 1.86 0 0 0 0.31 0.73 1.38 1.38 0 0 0 -0.17 0.15L9.82 7.57l-4.76 3.52a2.38 2.38 0 0 1 -0.64 -0.18 6.73 6.73 0 0 1 -1 -0.57c-0.12 -0.09 -0.34 -0.34 -0.51 -0.45a0.64 0.64 0 0 0 -0.4 -0.1 0.36 0.36 0 0 0 -0.31 0.4c0.01 0.14 -0.01 0.13 0.73 0.81ZM17.5 2.73a1.46 1.46 0 0 1 0.81 -0.6A2.73 2.73 0 0 1 19.5 2a2.21 2.21 0 0 1 1.39 0.67 3.55 3.55 0 0 1 0.91 1.42 1.57 1.57 0 0 1 -0.16 1.1c-0.7 1.22 -3.05 1.51 -3.89 0.56a2.59 2.59 0 0 1 -0.55 -1.81 2.57 2.57 0 0 1 0.3 -1.21Zm-5.17 2.1 0.24 -0.4a0.91 0.91 0 0 1 0.75 0.08c0.51 0.31 0.95 0.84 1.49 1.14s1 0.55 1.46 0.74A13.51 13.51 0 0 0 17.8 7a0.28 0.28 0 0 0 0.2 0 3.54 3.54 0 0 0 2.28 0s0.06 0.06 0.11 0.07a2.56 2.56 0 0 1 1.7 1.25 8.81 8.81 0 0 1 1 3.38 5.1 5.1 0 0 1 -0.52 3 2.31 2.31 0 0 1 -2.44 1 2.94 2.94 0 0 1 -0.85 -0.21c-0.7 -0.29 -1.2 -0.77 -2.11 -1.16l-1.35 -0.72a1 1 0 0 0 -0.78 0.06 7.67 7.67 0 0 0 -1.12 0.88A8.66 8.66 0 0 1 12 15.59a3.45 3.45 0 0 1 -1.28 0.29 1.44 1.44 0 0 1 -1.08 -0.28c-0.19 -0.2 -0.21 -0.54 -0.1 -1a0.92 0.92 0 0 1 0.23 -0.37 3 3 0 0 1 0.49 -0.42l0.92 -0.84 2.52 -1.63a1.26 1.26 0 0 1 0.62 0 6.7 6.7 0 0 1 0.86 0.13l4.58 1.11a0.36 0.36 0 0 0 0.37 -0.11 0.37 0.37 0 0 0 0 -0.39L19.1 9.92a0.3 0.3 0 0 0 -0.31 -0.15A21.13 21.13 0 0 1 14.91 8a6 6 0 0 1 -2.07 -1.6 5.32 5.32 0 0 1 -0.55 -0.86 1 1 0 0 1 0.04 -0.71Z" fill="#020202" stroke-width="1"></path>
    <path d="M4.41 17.69a9.29 9.29 0 0 0 -1.18 0c-0.55 0 -1.09 0.12 -1.63 0.12l-0.86 0.08c-0.81 0 -1.15 0.91 0 1.1l0.86 0.08a9.31 9.31 0 0 0 1.18 0c0.54 -0.05 1.09 -0.15 1.63 -0.17a0.58 0.58 0 0 0 0.59 -0.62 0.59 0.59 0 0 0 -0.59 -0.59Z" fill="#020202" stroke-width="1"></path>
    <path d="m7.36 17.82 0.07 0.05 -0.07 -0.06Z" fill="#020202" stroke-width="1"></path>
    <path d="m7.43 17.87 0 -0.01 0 0.01z" fill="#020202" stroke-width="1"></path>
    <path d="m7.36 17.81 0.07 0.06s-0.05 -0.09 -0.07 -0.06Z" fill="#020202" stroke-width="1"></path>
    <path d="M21 19.37c0.41 1.42 1 2.32 1.39 2.33 0.12 0 0.41 -0.13 0.35 -0.55 0 -0.19 -0.18 -0.65 -0.19 -0.71 -0.08 -0.25 -0.11 -0.5 -0.2 -0.75s-0.23 -0.46 -0.34 -0.7l-0.28 -0.42c-0.25 -0.38 -1 -0.24 -0.84 0.08Z" fill="#4C57E6" stroke-width="1"></path>
    <path d="M23.48 17.06a10 10 0 0 0 -1.37 0.19l-2.87 0.12c-0.86 0 -1.73 0.05 -2.6 0.1l-3.64 0.19c-0.81 0.05 -1.61 0.12 -2.42 0.15l-2.25 0.07h-0.8a5.19 5.19 0 0 1 -0.57 -1 3.07 3.07 0 0 1 -0.19 -0.56c-0.08 -0.31 -0.15 -0.63 -0.2 -0.93a7.28 7.28 0 0 0 -0.15 -0.76 0.43 0.43 0 0 0 -0.08 -0.17c-0.21 -0.24 -0.4 -0.2 -0.54 0s-0.2 0.07 0 2.07a5.4 5.4 0 0 0 0.14 0.72A6.38 6.38 0 0 0 7 19.3a10.77 10.77 0 0 0 1.63 1.61 5.65 5.65 0 0 0 0.75 0.48 6.84 6.84 0 0 0 0.81 0.35c0.07 0 0.65 0.16 0.78 0.08a0.31 0.31 0 0 0 0.18 -0.42c-0.28 -0.3 -0.15 0.15 -1.31 -0.73a4.26 4.26 0 0 1 -0.53 -0.5c-0.23 -0.24 -0.44 -0.5 -0.67 -0.77s-0.43 -0.53 -0.64 -0.81l0.29 0 2.25 0.14c1.17 0.05 2.34 0.08 3.51 0.05 0.73 0 4.57 -0.33 5.23 -0.4a29.79 29.79 0 0 0 3.78 -0.51l0.47 -0.11a0.54 0.54 0 0 0 0.13 -0.06c0.22 -0.11 0.49 -0.7 -0.18 -0.64Zm-16 0.81s-0.08 0 -0.07 -0.05 0 0 0.07 0.06Z" fill="#020202" stroke-width="1"></path>
    <path d="M16 19.51a4.59 4.59 0 0 0 -0.17 0.48c-0.18 0.61 -0.39 1.28 -0.43 1.46 -0.1 -0.05 -0.44 -0.12 -0.8 -1a0.28 0.28 0 0 0 -0.29 -0.2c-0.36 0 -0.38 0.4 -0.21 0.77 0.64 1 0.64 1.63 3.42 2a11.22 11.22 0 0 0 1.3 0.13 12.38 12.38 0 0 0 2.66 -0.15 12.25 12.25 0 0 0 1.42 -0.2 1.46 1.46 0 0 0 0.72 -0.4 0.36 0.36 0 0 0 -0.54 -0.48c-0.1 0.11 -0.31 0.11 -0.52 0.13l-1.19 0a14.42 14.42 0 0 1 -1.47 0l-3.49 -0.29a2.82 2.82 0 0 1 -0.31 -0.07c0.14 0.06 0.91 -1.46 1 -1.56a4.09 4.09 0 0 0 0.18 -0.49c0.05 -0.17 0.08 -0.33 0.13 -0.5V19c0.05 -0.27 -0.94 -0.19 -1.15 0.1a3.23 3.23 0 0 0 -0.26 0.41Z" fill="#4C57E6" stroke-width="1"></path>
  </g>
</svg>