<svg xmlns="http://www.w3.org/2000/svg" viewBox="0 0 24 24" id="Skiing-Board-Slide--Streamline-Freehand">
  <desc>
    Skiing Board Slide Streamline Icon: https://streamlinehq.com
  </desc>
  <title>skiing-board-slide</title>
  <g>
    <path d="M22.61 10A22.13 22.13 0 0 0 19 7.92a16.3 16.3 0 0 0 -1.59 -0.86 11.64 11.64 0 0 0 -1.08 -0.45A4.3 4.3 0 0 0 18 5.14a3 3 0 0 0 0.13 -3.4A3.71 3.71 0 0 0 16.63 0.6c-3.83 -1.79 -5.14 1 -5.3 1.36a3.66 3.66 0 0 0 0 3h-0.41a17.52 17.52 0 0 1 -2.3 0.04 2 2 0 0 1 -1.28 -1c-0.52 -0.78 -0.83 -1.81 -1.27 -2.61a2 2 0 0 0 -1.55 -1A2.23 2.23 0 0 0 2.76 1a1.73 1.73 0 0 0 -0.5 1.13 4.3 4.3 0 0 0 0.18 1.48 12 12 0 0 0 1.09 2.71 8.76 8.76 0 0 0 1.83 2.32 3.75 3.75 0 0 0 1.07 0.62 15.43 15.43 0 0 0 1.7 0.5l0.24 0.06c-0.17 0.56 -0.56 1.54 -0.72 2A2.78 2.78 0 0 0 7.54 13c0 0.56 0.21 1.13 0.28 1.56a2 2 0 0 1 0 0.31c-0.34 0.32 -1 1 -1.84 1.75 -0.4 0.37 -0.84 0.75 -1.3 1.11a0.3 0.3 0 0 0 -0.06 0.43 0.31 0.31 0 0 0 0.43 0.06c0.49 -0.35 1 -0.72 1.38 -1.08 0.9 -0.74 1.62 -1.42 2 -1.71a0.78 0.78 0 0 0 0.25 -0.56c0.05 -0.58 -0.45 -1.8 -0.11 -2.67 0.2 -0.55 0.74 -1.71 0.88 -2.24a0.83 0.83 0 0 0 -0.09 -0.75 1.3 1.3 0 0 0 -0.49 -0.33c-0.61 -0.27 -2 -0.42 -2.72 -1.09a7.66 7.66 0 0 1 -1.57 -2 11.44 11.44 0 0 1 -1 -2.42 3.85 3.85 0 0 1 -0.17 -0.92 0.79 0.79 0 0 1 0.16 -0.59 1.06 1.06 0 0 1 0.87 -0.28A1 1 0 0 1 5.2 2 16.14 16.14 0 0 0 7 5a2.58 2.58 0 0 0 1.52 0.81 18 18 0 0 0 2.46 -0.13 4.78 4.78 0 0 1 0.85 0 3.48 3.48 0 0 0 1.33 1 4.59 4.59 0 0 0 2 0.31l0.4 0s1.16 0.47 1.65 0.72a15.94 15.94 0 0 1 1.47 0.89c0.57 0.4 2 1 2.94 1.82 0.55 0.44 1 0.89 0.89 1.42a1 1 0 0 1 -0.5 0.66 1.15 1.15 0 0 1 -0.84 0.1 9.4 9.4 0 0 1 -1.54 -0.66 21.22 21.22 0 0 1 -2.31 -1.28 4 4 0 0 0 -1.73 -0.81 1.34 1.34 0 0 0 -1.09 0.34 7 7 0 0 0 -0.95 1.59 2.16 2.16 0 0 0 -0.24 1 2 2 0 0 0 0.74 0.83c0.76 0.56 2.07 1.36 2.53 1.68a8.42 8.42 0 0 1 1.21 1.92 30.15 30.15 0 0 1 1.57 3.34 0.34 0.34 0 0 0 0.44 0.21 0.34 0.34 0 0 0 0.22 -0.44 32.25 32.25 0 0 0 -1.48 -3.49A9.12 9.12 0 0 0 17 14.49c-0.5 -0.37 -2.09 -1.42 -2.69 -2a6.63 6.63 0 0 1 0.87 -1.49c0.13 -0.11 0.3 0 0.49 0a5 5 0 0 1 0.9 0.53A22.4 22.4 0 0 0 19 13a10.66 10.66 0 0 0 1.81 0.72 2.22 2.22 0 0 0 1.66 -0.26 2.09 2.09 0 0 0 1 -1.4 2.15 2.15 0 0 0 -0.86 -2.06ZM15 5.83a3.72 3.72 0 0 1 -1.47 -0.21 2.29 2.29 0 0 1 -1.11 -0.82 2.7 2.7 0 0 1 -0.29 -2.5c0.21 -0.55 1.15 -2.39 3.79 -1.17a3 3 0 0 1 1.38 1.11 2.08 2.08 0 0 1 -0.3 2.27 2.9 2.9 0 0 1 -2 1.32Z" fill="#020202" stroke-width="1"></path>
    <path d="M8.59 20c0.58 -0.26 0.91 -0.33 1.48 -0.6a10 10 0 0 0 1 -0.52 1.66 1.66 0 0 0 0.55 -0.63c0.23 -0.41 0.41 -1 0.56 -1.27l0 -0.06a4.08 4.08 0 0 1 0.75 0.43 7.24 7.24 0 0 1 1.4 1.12 9.58 9.58 0 0 1 0.79 1.12c0.33 0.56 0.63 1.14 1 1.89a0.3 0.3 0 0 0 0.41 0.14 0.31 0.31 0 0 0 0.15 -0.41c-0.32 -0.79 -0.55 -1.42 -0.82 -2a10.15 10.15 0 0 0 -0.71 -1.33 7 7 0 0 0 -1.6 -1.49 3.44 3.44 0 0 0 -1.49 -0.65 0.85 0.85 0 0 0 -0.58 0.21 1.68 1.68 0 0 0 -0.39 0.59c-0.11 0.27 -0.22 0.73 -0.36 1.12a1 1 0 0 1 -0.23 0.44c-0.35 0.26 -0.62 0.43 -0.85 0.57 -0.53 0.32 -0.85 0.42 -1.4 0.73a0.35 0.35 0 0 0 0.32 0.62Z" fill="#020202" stroke-width="1"></path>
    <path d="M21.87 21.43a0.36 0.36 0 0 0 -0.49 0.1 3.36 3.36 0 0 1 -2 1.45 10.17 10.17 0 0 1 -4.05 -0.27c-2 -0.32 -4 -0.71 -6 -1.19 -1.31 -0.31 -2.62 -0.64 -3.9 -1.08a21.5 21.5 0 0 1 -2.79 -0.88 2.25 2.25 0 0 1 -1.23 -1.11 2.66 2.66 0 0 1 -0.17 -0.79 9.7 9.7 0 0 1 0 -1.33A0.32 0.32 0 0 0 1 16a0.32 0.32 0 0 0 -0.34 0.28 10.79 10.79 0 0 0 -0.1 1.42 3.34 3.34 0 0 0 0.16 1A2.7 2.7 0 0 0 1.74 20 15.13 15.13 0 0 0 5 21.43a36.13 36.13 0 0 0 5 1.47c1.69 0.37 3.4 0.61 5.11 0.84a11.17 11.17 0 0 0 4.42 0A4.15 4.15 0 0 0 22 21.91a0.35 0.35 0 0 0 -0.13 -0.48Z" fill="#4C57E6" stroke-width="1"></path>
  </g>
</svg>