<svg xmlns="http://www.w3.org/2000/svg" viewBox="0 0 24 24" id="Slide-Right--Streamline-Freehand">
  <desc>
    Slide Right Streamline Icon: https://streamlinehq.com
  </desc>
  <g>
    <path d="M12.35 16.23a0.31 0.31 0 0 0 -0.3 0.29l0 1.45c0 0.32 -0.06 0.64 -0.17 1.42a1.22 1.22 0 0 1 -0.6 0.93 3.91 3.91 0 0 1 -2 0.32l-4.76 -0.08c-0.46 0 -1.28 0 -2 -0.06a1.84 1.84 0 0 1 -1 -0.24 2 2 0 0 1 -0.39 -1.15 12.7 12.7 0 0 1 -0.05 -2.27l0.58 -11.33a4.59 4.59 0 0 1 0.06 -0.89A1 1 0 0 1 2 4.06a2 2 0 0 1 0.86 -0.38 7.3 7.3 0 0 0 0.3 1.67 2 2 0 0 0 0.41 0.82 1.27 1.27 0 0 0 0.43 0.25 3.94 3.94 0 0 0 0.86 0.12h2l1.68 0.08a2 2 0 0 0 0.64 0 1.15 1.15 0 0 0 0.53 -0.23 5.06 5.06 0 0 0 0.82 -1.18 4.34 4.34 0 0 0 0.55 -1.34 0.33 0.33 0 0 0 -0.31 -0.36 0.34 0.34 0 0 0 -0.36 0.31 3.92 3.92 0 0 1 -0.57 1 4.1 4.1 0 0 1 -0.72 0.86l-0.4 0a7.87 7.87 0 0 0 -0.93 -0.16l-0.94 0 -2 0.1 -0.74 0a2.14 2.14 0 0 1 -0.4 -0.8 4.7 4.7 0 0 1 -0.29 -1s0 -0.07 0 -0.1a10.28 10.28 0 0 1 1.42 -0.09L8 3.43a20.65 20.65 0 0 1 2.25 0 2.28 2.28 0 0 1 1.22 0.31 1.48 1.48 0 0 1 0.44 0.56 2.4 2.4 0 0 1 0.23 0.76c0 0.24 0.07 0.91 0.09 1.64l0 2.52a0.34 0.34 0 1 0 0.67 0l0 -2.57c0 -0.77 0 -1.48 -0.07 -1.74a3.32 3.32 0 0 0 -0.27 -1 2.39 2.39 0 0 0 -0.56 -0.82 2.6 2.6 0 0 0 -1.27 -0.48A17.08 17.08 0 0 0 8 2.53l-3.11 0a10 10 0 0 0 -2.11 0.14 3.3 3.3 0 0 0 -1.45 0.61 1.88 1.88 0 0 0 -0.58 0.91 4.86 4.86 0 0 0 -0.19 1.3L0 16.8a12.48 12.48 0 0 0 0.2 2.89A2.61 2.61 0 0 0 0.86 21a2.29 2.29 0 0 0 1.23 0.44 20.48 20.48 0 0 0 2.43 0l4.8 -0.07a4.85 4.85 0 0 0 2.31 -0.48 1.91 1.91 0 0 0 0.9 -1.46 12.12 12.12 0 0 0 0.13 -1.43l0 -1.46a0.3 0.3 0 0 0 -0.31 -0.31Z" fill="#020202" fill-rule="evenodd" stroke-width="1"></path>
    <path d="M23.58 11a1.76 1.76 0 0 0 -1.08 -0.77 1.81 1.81 0 0 0 -1.41 -0.6 3.43 3.43 0 0 0 -2.25 0.94A2.79 2.79 0 0 0 18 13a3.18 3.18 0 0 0 1.45 2.18 2.92 2.92 0 0 0 2.84 0.13 3.06 3.06 0 0 0 1.71 -2.2 3.11 3.11 0 0 0 -0.42 -2.11Zm-0.5 1.93a2.09 2.09 0 0 1 -1.23 1.43 1.86 1.86 0 0 1 -1.78 -0.13 2.16 2.16 0 0 1 -1 -1.4 1.87 1.87 0 0 1 0.41 -1.63 2.58 2.58 0 0 1 1.31 -0.8 1.37 1.37 0 0 1 1.09 0.13 0.33 0.33 0 0 0 0.29 0.34 1 1 0 0 1 0.83 0.75 2.44 2.44 0 0 1 0.08 1.31Z" fill="#020202" fill-rule="evenodd" stroke-width="1"></path>
    <path d="M16.17 12a10.41 10.41 0 0 0 -0.76 -0.74l-0.87 -0.92a0.3 0.3 0 0 0 -0.5 0.32l0.69 1.16c0.13 0.2 0.29 0.42 0.43 0.65l-0.47 0c-0.49 0 -1 -0.09 -1.46 -0.13l-1.81 -0.14c-0.6 0 -1.2 -0.06 -1.81 -0.08l-3.64 0a0.3 0.3 0 1 0 0 0.6c1.21 0.18 2.41 0.39 3.63 0.51 0.61 0.06 1.22 0.09 1.83 0.1s1.22 0 1.84 0l2.12 -0.1 -0.39 0.27 -0.72 0.6 -0.85 0.8a0.34 0.34 0 0 0 -0.11 0.47 0.35 0.35 0 0 0 0.46 0.11l1 -0.66 0.81 -0.47 0.48 -0.34a1.26 1.26 0 0 0 0.45 -1.12 1.74 1.74 0 0 0 -0.35 -0.89Z" fill="#4C57E6" fill-rule="evenodd" stroke-width="1"></path>
  </g>
</svg>