<svg xmlns="http://www.w3.org/2000/svg" viewBox="0 0 24 24" id="Smart-House-Door-Locker-Unlock--Streamline-Freehand">
  <desc>
    Smart House Door Locker Unlock Streamline Icon: https://streamlinehq.com
  </desc>
  <g>
    <path d="M2 6.73c-0.07 1 -0.11 2.12 -0.13 3.31l0.09 0A24.58 24.58 0 0 1 2 6.73Z" fill="none" stroke-width="1"></path>
    <path d="M15.78 10.12c0 1.3 1.9 1.2 2 0.18 0.08 -0.76 -0.14 -1.21 -0.81 -1.26 -0.36 -0.04 -1.17 -0.13 -1.19 1.08Z" fill="#020202" stroke-width="1"></path>
    <path d="M20.83 7.9c-0.12 -0.56 -0.24 -1.12 -0.41 -1.67a0.27 0.27 0 0 0 -0.34 -0.2 0.26 0.26 0 0 0 -0.19 0.34c0.13 0.55 0.24 1.09 0.32 1.64 0.13 0.84 0.21 1.67 0.31 2.51 0 0.33 0.14 0.71 0.15 1.08a0.77 0.77 0 0 1 -0.13 0.49 1.57 1.57 0 0 1 -0.65 0.45 10.84 10.84 0 0 1 -2.24 0.62 21.54 21.54 0 0 1 -4 0.41c-0.69 0 -0.76 0.36 -1 -1.46a36.61 36.61 0 0 1 -0.35 -4.24l0 -0.33c0.61 -0.15 1.24 -0.28 1.87 -0.39 1.75 -0.31 3.52 -0.5 5.25 -0.85a0.32 0.32 0 0 0 0.25 -0.37 0.31 0.31 0 0 0 -0.37 -0.26c-1.73 0.29 -3.51 0.42 -5.26 0.66a1.38 1.38 0 0 1 -0.2 0 19.61 19.61 0 0 1 -0.47 -2.64A2.82 2.82 0 0 1 13.59 2a2 2 0 0 1 1.4 -1 1.94 1.94 0 0 1 1.69 0.44 2.38 2.38 0 0 1 0.57 0.71 3.77 3.77 0 0 1 0.31 0.93 0.29 0.29 0 0 0 0.33 0.23 0.3 0.3 0 0 0 0.23 -0.31 4.78 4.78 0 0 0 -0.26 -1.1 2.91 2.91 0 0 0 -0.62 -1 2.8 2.8 0 0 0 -2.41 -0.9 3 3 0 0 0 -2.16 1.47 3.72 3.72 0 0 0 -0.34 2.33A18.74 18.74 0 0 0 13 6.47c-0.47 0.08 -0.94 0.16 -1.4 0.27a0.48 0.48 0 0 0 -0.36 0.44 2.66 2.66 0 0 0 0 0.34 30.56 30.56 0 0 0 0.07 3.14 8 8 0 0 0 0.84 3.64 1.22 1.22 0 0 0 0.74 0.31 16.47 16.47 0 0 0 4.11 -0.29c1.95 -0.35 3.83 -1 4.28 -1.79a1.54 1.54 0 0 0 0.21 -0.72 6.84 6.84 0 0 0 -0.21 -1.39c-0.16 -0.84 -0.28 -1.68 -0.45 -2.52Z" fill="#020202" stroke-width="1"></path>
    <path d="M22.83 3.45a3.93 3.93 0 0 0 -0.82 0.2 1.77 1.77 0 0 0 -0.31 0.15 1.39 1.39 0 0 0 -0.27 0.21c-0.2 0.2 -0.33 0.41 -0.5 0.61a0.28 0.28 0 0 0 -0.08 0.39 0.27 0.27 0 0 0 0.38 0.08 5.51 5.51 0 0 0 0.87 -0.28 2.86 2.86 0 0 0 0.4 -0.28c0.21 -0.16 0.36 -0.35 0.56 -0.49a0.31 0.31 0 0 0 0.18 -0.41 0.31 0.31 0 0 0 -0.41 -0.18Z" fill="#4C57E6" stroke-width="1"></path>
    <path d="M20.06 3.52a6.65 6.65 0 0 0 0.72 -0.69 2.35 2.35 0 0 0 0.22 -0.37 1.94 1.94 0 0 0 0.19 -0.46 3.46 3.46 0 0 0 0.13 -1 0.32 0.32 0 0 0 -0.63 -0.1 4.32 4.32 0 0 1 -0.44 0.78 5.29 5.29 0 0 0 -0.29 0.52c-0.16 0.35 -0.24 0.69 -0.37 1a0.28 0.28 0 0 0 0.47 0.31Z" fill="#4C57E6" stroke-width="1"></path>
    <path d="M13.81 21.15a0.29 0.29 0 0 0 -0.29 0.27c0 0.7 0.13 1.2 -0.07 1.52s-0.5 0.3 -1.29 0.31c-0.48 0 -3.48 0 -6.09 -0.12a26.42 26.42 0 0 1 -3.18 -0.29c-0.21 0 -0.41 -0.21 -0.49 -0.17s0 -0.12 -0.06 -0.18a13.47 13.47 0 0 1 -0.25 -1.83c-0.22 -2.38 -0.32 -6.16 -0.28 -9.6 0 -0.12 0.22 -5 0.19 -5 0 -0.49 0.09 -1 0.15 -1.33a2.84 2.84 0 0 1 0.33 -1.27 4.37 4.37 0 0 1 2.92 -1 41.29 41.29 0 0 1 5.09 0.52 0.31 0.31 0 0 0 0.34 -0.29 0.32 0.32 0 0 0 -0.28 -0.35 43.72 43.72 0 0 0 -5.17 -0.64 5.23 5.23 0 0 0 -3.47 1.09A4.35 4.35 0 0 0 1.2 5a62.77 62.77 0 0 0 -0.47 8.1 74.09 74.09 0 0 0 0.37 8.1 5.09 5.09 0 0 0 0.59 2.24 1.34 1.34 0 0 0 0.59 0.29 10.11 10.11 0 0 0 1.72 0.19c2.8 0.18 7.57 0 8.19 0 1.13 0 1.6 -0.3 1.8 -0.65a4.4 4.4 0 0 0 0.1 -1.81 0.27 0.27 0 0 0 -0.28 -0.31Z" fill="#020202" stroke-width="1"></path>
    <path d="M3.85 6.76h0.65c0.36 0 0.72 0 1.08 -0.08 0.52 -0.05 1 -0.14 1.54 -0.14a4.18 4.18 0 0 1 1 0.12 0.32 0.32 0 0 0 0.2 -0.61 5.42 5.42 0 0 0 -1.59 -0.37 9.4 9.4 0 0 0 -1.19 0l-1.13 0c-0.63 0.07 -1.13 -0.15 -1.64 0.12 -0.26 0.1 -0.6 0.81 0.14 0.86 0.49 0.02 0.49 0.08 0.94 0.1Z" fill="#020202" stroke-width="1"></path>
    <path d="m4.09 10.64 1.32 -0.09c0.45 0 0.88 -0.08 1.31 -0.07a6.88 6.88 0 0 1 1.28 0.11 0.31 0.31 0 0 0 0.39 -0.22 0.31 0.31 0 0 0 -0.21 -0.37 8.52 8.52 0 0 0 -2.8 -0.48 10.32 10.32 0 0 0 -1.66 0.13 8.51 8.51 0 0 0 -0.93 0.18c-0.44 0.18 -0.61 0.81 0.17 0.87 0.54 -0.03 0.57 -0.03 1.13 -0.06Z" fill="#020202" stroke-width="1"></path>
    <path d="M19.69 17.37a1.8 1.8 0 0 0 -0.65 -0.32c-0.4 -0.12 -0.88 -0.13 -1.22 -0.2l-3.26 -0.79a17.94 17.94 0 0 0 -2.15 -0.38 17.43 17.43 0 0 0 -2.17 -0.12c0 -0.07 -0.05 -0.15 -0.08 -0.22a3.19 3.19 0 0 0 -4.42 -1.44 3.57 3.57 0 0 0 -1.94 2.55 3.07 3.07 0 0 0 2.62 3.59c3.61 0.51 4.36 -2.31 4 -3.91a13.59 13.59 0 0 1 1.92 0.22 16.24 16.24 0 0 1 2 0.5l1.93 0.62c0.44 0.14 0.88 0.26 1.33 0.37 0.28 0.07 0.66 0.1 1 0.18a1 1 0 0 1 0.41 0.17 0.75 0.75 0 0 1 0.1 1.09 2 2 0 0 1 -1.26 0.86 6 6 0 0 1 -1.74 -0.14c-0.92 -0.19 -1.8 -0.51 -2.76 -0.73 -0.53 -0.12 -1.15 -0.2 -1.74 -0.34a4.17 4.17 0 0 1 -1 -0.35 0.31 0.31 0 0 0 -0.43 0.11 0.32 0.32 0 0 0 0.12 0.44 4 4 0 0 0 0.87 0.38c0.66 0.22 1.4 0.34 2 0.52 0.95 0.27 1.82 0.64 2.74 0.88a6.53 6.53 0 0 0 2 0.21 3.05 3.05 0 0 0 2.31 -1.73 1.67 1.67 0 0 0 -0.53 -2.02Zm-12.85 2a2.4 2.4 0 0 1 -1.42 -0.61 2.21 2.21 0 0 1 -0.64 -2.14 2.56 2.56 0 0 1 1.39 -1.77 2.25 2.25 0 0 1 3.16 0.88c0.67 1.27 0.58 4.03 -2.49 3.67Z" fill="#4C57E6" stroke-width="1"></path>
  </g>
</svg>