<svg xmlns="http://www.w3.org/2000/svg" viewBox="0 0 24 24" id="Smart-Watch-Circle-Sound-Alternate--Streamline-Freehand">
  <desc>
    Smart Watch Circle Sound Alternate Streamline Icon: https://streamlinehq.com
  </desc>
  <g>
    <path d="M6.09 8.87a0.91 0.91 0 0 0 0.76 -0.11 8.17 8.17 0 0 0 1.52 -1.55 16.86 16.86 0 0 0 1 -1.6 3.88 3.88 0 0 0 0.55 -0.94c0.12 -0.62 -0.4 -1 -1 -1a20.22 20.22 0 0 0 -2.24 0c-0.63 -0.29 -0.8 0.53 -0.32 0.62a13.06 13.06 0 0 1 2.49 0.28c0.12 0.06 -0.23 0.25 -0.37 0.47a23.7 23.7 0 0 1 -2.06 2.77s-1 -1.87 -1.1 -2.25c-0.05 -0.19 0.8 -0.82 0.7 -1.17a0.33 0.33 0 0 0 -0.59 -0.14c-0.09 0.09 -0.21 0.32 -0.29 0.41 -0.27 0.3 -0.63 0.53 -0.55 1s0.92 2.31 1 2.6a1 1 0 0 0 0.5 0.61Z" fill="#020202" fill-rule="evenodd" stroke-width="1"></path>
    <path d="M10.32 6.29c-0.38 0.08 0 0.21 -0.62 0.77 -0.77 0.72 -0.86 0.21 -0.89 0.82 0 0.15 0.14 0.21 0.36 0.31a1.25 1.25 0 0 0 1.56 -1.63 0.34 0.34 0 0 0 -0.41 -0.27Z" fill="#020202" fill-rule="evenodd" stroke-width="1"></path>
    <path d="M9.78 9.89a2.6 2.6 0 0 0 2.82 -2.6 11.43 11.43 0 0 0 -0.21 -1.44c0 -0.31 -0.5 -0.45 -0.67 0 -0.08 0.23 0.27 2.74 -2 3.33a0.34 0.34 0 0 0 0.06 0.71Z" fill="#020202" fill-rule="evenodd" stroke-width="1"></path>
    <path d="M9.91 15.07c5.45 -0.66 8.77 -5.8 6.2 -9.94 -0.77 -1.23 -4.2 -5.19 -10.84 -3.3a0.34 0.34 0 0 0 0.18 0.66c3.18 -0.82 8.15 0 9.91 3.37 -0.44 3.61 -4.29 5.52 -7.92 5.48a9 9 0 0 1 -6.39 -2.6A6 6 0 0 1 1.84 5c0.72 -1.1 1.52 -1 1.26 -1.47a0.3 0.3 0 0 0 -0.41 -0.12c-2.48 1.33 -3.23 5.35 -1.54 8 0.7 1.59 4.07 4.24 8.76 3.66Zm5.93 -7.84a5.21 5.21 0 0 1 -1.65 4.65c-3.52 3.55 -11 2.47 -12.81 -1.93C6 14.26 14.17 12.77 15.84 7.23Z" fill="#4C57E6" fill-rule="evenodd" stroke-width="1"></path>
    <path d="M22.43 3.9a12.08 12.08 0 0 0 -3 -2.36A12 12 0 0 0 16 0.12a9.49 9.49 0 0 0 -5 0.68c-0.54 0.53 -0.05 0.59 1.3 0.27a7.47 7.47 0 0 1 3.54 -0.22A11.49 11.49 0 0 1 19 2.26a11.62 11.62 0 0 1 2.6 2.06c0.17 0.35 0 0 -1 -0.38a5.91 5.91 0 0 0 -3.83 0.14c-0.87 0.52 -0.53 1.09 0.54 0.84 0.25 0 0.5 -0.06 0.75 -0.07a8.36 8.36 0 0 1 0.2 4.64 21.56 21.56 0 0 1 -2.69 6 7.7 7.7 0 0 1 -6.71 4 0.34 0.34 0 0 0 0 0.68 8.49 8.49 0 0 0 7.67 -4.06 16.55 16.55 0 0 0 2.67 -6.45 9.47 9.47 0 0 0 -0.45 -4.82 4.32 4.32 0 0 1 3.53 1.28c1.27 4.48 -0.6 8.93 -3.57 12.58 -2.18 2.7 -5.92 4 -9.39 4.26l0 -0.06c-0.71 -0.69 -0.82 -0.26 -1.57 -1.63A11 11 0 0 1 6.6 15.9c0 -0.67 -0.78 -0.78 -0.81 -0.13A7.73 7.73 0 0 0 5.71 19 7.25 7.25 0 0 0 8 22.91a21.21 21.21 0 0 1 -4.78 -2.24c-1.87 -1.75 -2 -4.58 -1.7 -7.2 0.11 -0.78 -0.41 -1 -0.7 -0.35 -0.44 3 -0.3 6.15 1.79 8.18a10 10 0 0 0 2 1.24C7.31 23.89 8 24 9 24c3.86 0 8.11 -1.54 10.59 -4.58 3.76 -4.64 5.61 -10.19 2.84 -15.52Z" fill="#020202" fill-rule="evenodd" stroke-width="1"></path>
  </g>
</svg>