<svg xmlns="http://www.w3.org/2000/svg" viewBox="0 0 24 24" id="Smart-Watch-Square-Temperature--Streamline-Freehand">
  <desc>
    Smart Watch Square Temperature Streamline Icon: https://streamlinehq.com
  </desc>
  <g>
    <path d="M9.09 7.89c-0.36 0 -0.64 0.31 -0.79 0.75A1.09 1.09 0 0 0 9 10c0.74 0.19 1.31 -0.87 1.19 -1.39 -0.19 -0.92 -0.75 -0.67 -1.1 -0.72Z" fill="#020202" fill-rule="evenodd" stroke-width="1"></path>
    <path d="M15.31 12.85c-0.45 0.87 -1.6 1.59 -2.48 1.09a1.81 1.81 0 0 1 -1.09 -2 2.69 2.69 0 0 1 2 -2.28c1.27 -0.19 1.28 0.92 1.63 0.27 0.2 -0.37 -0.5 -1.08 -1.7 -1.05 -2.79 0.07 -4.7 4.47 -1.3 6 1.44 0.63 3 -0.42 3.56 -1.72a0.34 0.34 0 1 0 -0.62 -0.31Z" fill="#020202" fill-rule="evenodd" stroke-width="1"></path>
    <path d="M6.89 3.28A4.8 4.8 0 0 1 7 2.47c0.14 -0.8 0.14 -0.79 0.79 -1 1.86 -0.62 4.4 -0.16 7.15 -0.29 0.72 0 2.35 -0.15 2.84 0.4 0.24 0.28 0 1.69 0.08 2.13a0.35 0.35 0 0 0 0.69 0C18.52 2 19.81 0.09 14.9 0.09 13.63 0.11 9.58 -0.39 7.26 0.8a1.4 1.4 0 0 0 -0.91 1.39 9 9 0 0 0 -0.07 1.11 0.31 0.31 0 0 0 0.61 -0.02Z" fill="#020202" fill-rule="evenodd" stroke-width="1"></path>
    <path d="M17.64 21.3a5 5 0 0 1 -0.07 0.8c-0.19 0.37 -1.46 0.66 -1.88 0.72 -0.66 0.09 -4.16 0 -5.54 0 -0.81 0.07 -2.37 0.17 -2.88 -0.48a2.25 2.25 0 0 1 -0.17 -1.04c0.05 -1.9 -0.84 -1.76 -0.75 0s0.39 2.7 3.85 2.64c2.21 -0.1 5.23 0.51 7.38 -0.8 0.73 -0.45 0.85 -0.92 0.87 -1.84 0 -1.64 -0.95 -2.03 -0.81 0Z" fill="#020202" fill-rule="evenodd" stroke-width="1"></path>
    <path d="M21 15.51c0 -10.18 0.08 -8.62 -0.22 -9.55S20 4.7 18.63 4.54C17 4.36 14 4.49 8.56 4.35a23.2 23.2 0 0 1 -2.87 0.06C1.55 4 3.19 9.73 3.18 15.62c0 2.67 0.61 3.75 3.23 3.79 10.19 -0.45 14 1.26 14.65 -1.82a6.5 6.5 0 0 0 -0.06 -2.08Zm-0.9 1.59c-0.08 0.72 -0.39 1.2 -1.47 1.29a15.54 15.54 0 0 1 -1.82 -0.12H6.1c-1.63 0 -1.77 -1 -1.79 -2.66 0 -2.52 -0.48 -5.8 -0.29 -8.61 0.08 -1.16 0.43 -1.85 1.59 -1.75a24.4 24.4 0 0 0 3 -0.13c1.48 0 9.2 -0.07 10.3 0.16C20.6 5.64 20.17 7 20.06 12l0 3.53a7.36 7.36 0 0 1 0.04 1.57Z" fill="#4C57E6" fill-rule="evenodd" stroke-width="1"></path>
  </g>
</svg>