<svg xmlns="http://www.w3.org/2000/svg" viewBox="0 0 24 24" id="Smart-Watch-Circle-Dumbbell--Streamline-Freehand">
  <desc>
    Smart Watch Circle Dumbbell Streamline Icon: https://streamlinehq.com
  </desc>
  <g>
    <path d="M14.22 15.2c0.39 0.33 0.83 0.14 1.06 0.13a2.79 2.79 0 0 0 2.1 -1.14c0.63 -1.06 0.16 -2.48 -0.08 -3.67a2.24 2.24 0 0 0 -0.38 -1.1 8 8 0 0 0 -1.9 0.07 1.69 1.69 0 0 0 -1.09 1.31c-0.36 1.53 0.39 0.46 -1.72 0.46a16 16 0 0 0 -1.82 0.19c0 -0.47 -0.06 -0.61 -0.22 -1.76a0.9 0.9 0 0 0 -0.29 -0.55c-0.21 -0.22 -0.11 0 -1 -0.05a1.45 1.45 0 0 0 -1.36 0.73 7.45 7.45 0 0 0 -0.68 3c-0.09 0.93 -0.06 1.79 0.84 2a2 2 0 0 0 1.06 -0.06c1.26 -0.35 1.67 -1.33 1.68 -2.61a4.35 4.35 0 0 0 1.66 0.21l1.59 -0.15c-0.19 1.12 -0.29 2.27 0.55 2.99Zm0.61 -4.56a0.87 0.87 0 0 1 0.45 -0.51 1.11 1.11 0 0 1 0.84 0c0.27 0.18 0.29 0 0.43 0.5s0.37 2.39 -0.05 3a2 2 0 0 1 -1.27 0.57c-0.17 0 -0.49 0.4 -0.59 -0.7a17.21 17.21 0 0 1 0.19 -2.86Zm-6.35 3c-0.67 0.08 -0.52 0.09 -0.54 -0.07a3.47 3.47 0 0 1 0 -0.72 9.4 9.4 0 0 1 0.13 -2.37c0.13 -0.42 0 -0.77 0.46 -0.8h0.94c0.06 1.56 0.35 3.74 -0.99 4.01Z" fill="#020202" fill-rule="evenodd" stroke-width="1"></path>
    <path d="M16 5.33a7.88 7.88 0 0 0 -7.86 0l-0.78 0.48a8 8 0 0 0 -1.43 12c3.1 3.34 8.42 3 11.51 0.56a0.31 0.31 0 1 0 -0.37 -0.49c-2.88 2.12 -7.75 2.4 -10.49 -0.68a7.23 7.23 0 0 1 3.58 -11.65A7.28 7.28 0 0 1 18.56 9a8.49 8.49 0 0 1 0.91 4.84c-0.24 1.51 -1 1.72 -0.63 2a0.27 0.27 0 0 0 0.38 0c1.7 -2.21 1.13 -7.4 -2.22 -9.84Z" fill="#4C57E6" fill-rule="evenodd" stroke-width="1"></path>
    <path d="M7.76 4.37c1.15 -3 1.44 -3.07 1.48 -3.16a36.78 36.78 0 0 1 6 0.17 16.86 16.86 0 0 1 1.27 3.29s0.81 0.44 0.68 -0.09a27.29 27.29 0 0 0 -1 -3.51 1.29 1.29 0 0 0 -0.39 -0.54c-0.57 -0.38 -6.58 -1 -7.29 0a22.49 22.49 0 0 0 -1.6 4.37c-0.14 0.68 0.53 0.38 0.85 -0.53Z" fill="#020202" fill-rule="evenodd" stroke-width="1"></path>
    <path d="M16.4 20.43c-0.6 -0.17 -0.35 0.8 -1.31 2.2 -0.33 0.09 -5.86 0.43 -6.05 0.15a18.44 18.44 0 0 1 -1.14 -2.34 0.3 0.3 0 0 0 -0.56 0.2c0.25 0.84 0.81 2.82 1.33 3 1.82 0.7 6.5 0.07 7 -0.25s0.76 -1.69 1 -2.58a0.36 0.36 0 0 0 -0.27 -0.38Z" fill="#020202" fill-rule="evenodd" stroke-width="1"></path>
  </g>
</svg>