<svg xmlns="http://www.w3.org/2000/svg" viewBox="0 0 24 24" id="Smart-Watch-Circle--Streamline-Freehand">
  <desc>
    Smart Watch Circle Streamline Icon: https://streamlinehq.com
  </desc>
  <g>
    <g>
      <path d="M17.52 5.13c-0.33 -0.24 -0.22 0 -0.35 -0.55a27.29 27.29 0 0 0 -1 -3.51 1.29 1.29 0 0 0 -0.39 -0.54c-0.57 -0.38 -6.58 -1 -7.29 0A22.49 22.49 0 0 0 6.91 4.9a8.81 8.81 0 0 0 -1.57 13.17c3.4 3.66 9.22 3.23 12.61 0.61a0.34 0.34 0 0 0 -0.41 -0.54c-3.14 2.33 -8.47 2.63 -11.47 -0.74A7.91 7.91 0 0 1 10 4.64a8 8 0 0 1 9.2 3.76 9.18 9.18 0 0 1 1 5.3c-0.25 1.65 -1.13 1.89 -0.68 2.22a0.3 0.3 0 0 0 0.42 -0.05c1.83 -2.38 1.2 -8.06 -2.42 -10.74Zm-9.76 -0.76c1.15 -3 1.44 -3.07 1.48 -3.16a36.78 36.78 0 0 1 6 0.17c-0.16 -0.09 0 -0.51 1.15 3a8.67 8.67 0 0 0 -8.63 -0.01Z" fill="#020202" fill-rule="evenodd" stroke-width="1"></path>
      <path d="M16.4 20.43c-0.6 -0.17 -0.35 0.8 -1.31 2.2 -0.33 0.09 -5.86 0.43 -6.05 0.15a18.44 18.44 0 0 1 -1.14 -2.34 0.3 0.3 0 0 0 -0.56 0.2c0.25 0.84 0.81 2.82 1.33 3 1.82 0.7 6.5 0.07 7 -0.25s0.76 -1.69 1 -2.58a0.36 0.36 0 0 0 -0.27 -0.38Z" fill="#020202" fill-rule="evenodd" stroke-width="1"></path>
    </g>
    <path d="M11.51 5.61c0 0.35 0 0.68 -0.06 1l0 0.5a1.33 1.33 0 0 0 0.08 0.79 0.69 0.69 0 0 0 0.58 0.33 0.65 0.65 0 0 0 0.58 -0.33 0.77 0.77 0 0 0 0.1 -0.47l0 -0.21 0 -0.22 -0.09 -0.51 -0.2 -0.49 0 -0.13c0 -0.11 0 0.09 0 0l0 -0.27a0.5 0.5 0 0 0 -0.14 -0.33 0.44 0.44 0 0 0 -0.36 -0.12 0.47 0.47 0 0 0 -0.46 0.46Z" fill="#4C57E6" stroke-width="1"></path>
    <path d="M16.24 7.2a9.86 9.86 0 0 1 -0.76 0.69l-0.39 0.33a1.3 1.3 0 0 0 -0.5 0.61 0.68 0.68 0 0 0 0.18 0.65 0.65 0.65 0 0 0 0.65 0.17 0.75 0.75 0 0 0 0.39 -0.26 1.09 1.09 0 0 0 0.13 -0.17l0.13 -0.22 0.29 -0.43c0.1 -0.13 0.19 -0.27 0.28 -0.41a1 1 0 0 0 0.08 -0.11c0.05 -0.08 -0.06 0.07 0 0l0.17 -0.21a0.52 0.52 0 0 0 0.11 -0.31 0.47 0.47 0 0 0 -0.14 -0.33 0.48 0.48 0 0 0 -0.66 0Z" fill="#4C57E6" stroke-width="1"></path>
    <path d="M7 7.83c0.25 0.25 0.46 0.51 0.69 0.77l0.36 0.4a1.3 1.3 0 0 0 0.61 0.5 0.7 0.7 0 0 0 0.65 -0.17 0.66 0.66 0 0 0 0.17 -0.65 0.82 0.82 0 0 0 -0.26 -0.4l-0.17 -0.12L8.86 8l-0.42 -0.3L8 7.43l-0.11 -0.07c-0.09 -0.06 0.07 0.06 0 0l-0.21 -0.18a0.48 0.48 0 0 0 -0.66 0 0.48 0.48 0 0 0 0 0.66Z" fill="#4C57E6" stroke-width="1"></path>
    <path d="M17.33 16.35a9.86 9.86 0 0 1 -0.69 -0.76l-0.33 -0.39a1.3 1.3 0 0 0 -0.61 -0.5 0.68 0.68 0 0 0 -0.65 0.18 0.64 0.64 0 0 0 -0.17 0.64 0.78 0.78 0 0 0 0.26 0.4l0.17 0.13 0.18 0.13 0.43 0.29 0.41 0.28 0.11 0.08c0.08 0.05 -0.07 -0.06 0 0l0.21 0.17a0.52 0.52 0 0 0 0.33 0.14 0.47 0.47 0 0 0 0.33 -0.14 0.48 0.48 0 0 0 0 -0.66Z" fill="#4C57E6" stroke-width="1"></path>
    <path d="M7 16.35c0.25 -0.24 0.46 -0.5 0.69 -0.76l0.33 -0.39a1.3 1.3 0 0 1 0.61 -0.5 0.68 0.68 0 0 1 0.65 0.18 0.64 0.64 0 0 1 0.17 0.64 0.78 0.78 0 0 1 -0.26 0.4l-0.17 0.13 -0.19 0.13 -0.42 0.29 -0.41 0.28 -0.11 0.08c-0.09 0.05 0.07 -0.06 0 0l-0.2 0.17a0.52 0.52 0 0 1 -0.33 0.14A0.47 0.47 0 0 1 7 17a0.48 0.48 0 0 1 0 -0.66Z" fill="#4C57E6" stroke-width="1"></path>
    <path d="M18.81 11.73c-0.35 0 -0.69 0 -1 -0.06l-0.51 0a1.23 1.23 0 0 0 -0.78 0.09 0.66 0.66 0 0 0 -0.34 0.58 0.68 0.68 0 0 0 0.34 0.58 0.77 0.77 0 0 0 0.48 0.08l0.2 0 0.23 0 0.5 -0.09 0.49 -0.09 0.13 0c0.1 0 -0.09 0 0 0l0.28 0a0.45 0.45 0 0 0 0.32 -0.14 0.45 0.45 0 0 0 0.14 -0.33 0.47 0.47 0 0 0 -0.46 -0.46Z" fill="#4C57E6" stroke-width="1"></path>
    <path d="M13 18.57c0 -0.35 0 -0.69 0.06 -1l0 -0.51a1.23 1.23 0 0 0 -0.09 -0.78 0.66 0.66 0 0 0 -0.58 -0.34 0.68 0.68 0 0 0 -0.58 0.34 0.77 0.77 0 0 0 -0.09 0.47l0 0.2a1.85 1.85 0 0 0 0 0.23l0.09 0.5 0.09 0.49 0 0.13c0 0.1 0 -0.09 0 0l0 0.28a0.45 0.45 0 0 0 0.14 0.32 0.42 0.42 0 0 0 0.33 0.14 0.47 0.47 0 0 0 0.46 -0.46Z" fill="#4C57E6" stroke-width="1"></path>
    <path d="M5.39 12.91c0.34 0 0.68 0 1 0.05l0.5 0a1.19 1.19 0 0 0 0.79 -0.08 0.68 0.68 0 0 0 0.32 -0.54 0.65 0.65 0 0 0 -0.33 -0.58 0.77 0.77 0 0 0 -0.47 -0.09l-0.21 0 -0.22 0.05 -0.51 0.09 -0.48 0.09 -0.14 0c-0.1 0 0.1 0 0 0l-0.27 0a0.49 0.49 0 0 0 -0.33 0.13 0.52 0.52 0 0 0 -0.14 0.33 0.49 0.49 0 0 0 0.47 0.47Z" fill="#4C57E6" stroke-width="1"></path>
  </g>
</svg>