<svg xmlns="http://www.w3.org/2000/svg" viewBox="0 0 24 24" id="Smart-Lighting-Wireless-Control-Lamp-Iot--Streamline-Freehand">
  <desc>
    Smart Lighting Wireless Control Lamp Iot Streamline Icon: https://streamlinehq.com
  </desc>
  <g>
    <g>
      <path d="M16.44 6.82a3.79 3.79 0 0 0 -0.91 -0.56 3.93 3.93 0 0 0 -0.67 -0.19 3.07 3.07 0 0 0 -0.68 -0.07 2.83 2.83 0 0 0 -0.38 0 0.35 0.35 0 0 0 -0.31 0.26c-0.08 0.45 0.42 0.25 1.12 0.58a3 3 0 0 1 0.45 0.27 4.74 4.74 0 0 1 0.75 0.64 4 4 0 0 1 0.65 0.72 1.82 1.82 0 0 1 0.39 1.15 0.34 0.34 0 1 0 0.66 0.12 2.68 2.68 0 0 0 -0.38 -2.14 3.2 3.2 0 0 0 -0.69 -0.78Z" fill="#4C57E6" stroke-width="1"></path>
      <path d="M18.7 4.35a6.65 6.65 0 0 0 -1.38 -0.9 5.28 5.28 0 0 0 -1 -0.33 5.1 5.1 0 0 0 -1 -0.13l-0.59 0a0.36 0.36 0 0 0 -0.33 0.26c-0.09 0.52 0.64 0.22 1.72 0.66a4.84 4.84 0 0 1 0.78 0.41 7.32 7.32 0 0 1 1.32 1 6.5 6.5 0 0 1 1.07 1.27 3.19 3.19 0 0 1 0.56 2.05 0.34 0.34 0 0 0 0.27 0.39 0.34 0.34 0 0 0 0.39 -0.27 4.14 4.14 0 0 0 -0.67 -3.24 5.84 5.84 0 0 0 -1.14 -1.17Z" fill="#4C57E6" stroke-width="1"></path>
      <path d="M22.53 3.91a9.23 9.23 0 0 0 -1.6 -1.81 10 10 0 0 0 -2 -1.34 8.7 8.7 0 0 0 -1.49 -0.53A7.63 7.63 0 0 0 15.91 0a7.93 7.93 0 0 0 -0.85 0 0.41 0.41 0 0 0 -0.37 0.27c-0.1 0.61 0.86 0.15 2.51 0.76a6.79 6.79 0 0 1 1.24 0.61 11.18 11.18 0 0 1 2.06 1.6 9.82 9.82 0 0 1 1.64 2 5 5 0 0 1 0.79 3.24 0.34 0.34 0 1 0 0.66 0.12 6.13 6.13 0 0 0 -1.06 -4.69Z" fill="#4C57E6" stroke-width="1"></path>
    </g>
    <path d="M12.08 6.09a2.07 2.07 0 0 0 -0.44 -0.9 13.35 13.35 0 0 0 -4.21 -0.81 19.77 19.77 0 0 0 -4.14 0.09 0.35 0.35 0 0 0 0.08 0.69 18.35 18.35 0 0 1 4 0A14.39 14.39 0 0 1 11 5.9a3 3 0 0 1 0.12 0.36 44 44 0 0 1 1 5.26 16.79 16.79 0 0 1 0.2 3.09l0 0.33a2.38 2.38 0 0 1 -0.81 0.21c-1.09 0.15 -2.83 0.24 -4.57 0.29s-3.49 0 -4.59 -0.07a2.75 2.75 0 0 1 -0.88 -0.13 0.57 0.57 0 0 1 -0.22 -0.43 5.49 5.49 0 0 1 0.1 -1.22c0.08 -1 0.21 -2 0.38 -2.95s0.37 -2 0.57 -2.93L2.68 6a0.3 0.3 0 1 0 -0.58 -0.16l-0.46 1.72c-0.3 1.17 -0.58 2.35 -0.81 3.53 -0.15 0.8 -0.28 1.6 -0.38 2.4A6.69 6.69 0 0 0 0.3 14.9 1.47 1.47 0 0 0 0.85 16a3.15 3.15 0 0 0 1.37 0.39 37.77 37.77 0 0 0 4 0.2 10.68 10.68 0 0 0 -0.28 1.51 6.69 6.69 0 0 0 0 1c0 0.61 0.15 1.15 0.2 1.5a0.37 0.37 0 0 0 0.05 0.18l-0.77 0.07 -1.35 0.15a3.91 3.91 0 0 0 -1.07 0.28 2.36 2.36 0 0 0 -0.67 0.46c-0.09 0.09 -0.41 0.5 -0.53 0.67l0 0.05s-0.05 0 -0.06 0.1c0 0.4 0.53 0.3 0.6 0.19s0.4 -0.46 0.47 -0.52a1.48 1.48 0 0 1 0.63 -0.33 4.61 4.61 0 0 1 0.78 -0.1l1.31 0a18 18 0 0 1 3.97 0.2c0.76 0.17 1.44 0.38 1.54 1a18.37 18.37 0 0 1 -2.23 0c-1.17 0.05 -4.07 0.21 -5.32 0.28l-0.57 0c-0.22 0 -0.23 0.21 -0.19 0.37 0.18 0.33 0.54 0.31 0.8 0.32l5.31 0a15.19 15.19 0 0 0 2.49 -0.08c0.65 -0.14 0.91 -0.54 0.9 -0.91a2.2 2.2 0 0 0 -1.73 -1.95 7.56 7.56 0 0 0 -2.09 -0.34l-1.63 0a0.24 0.24 0 0 0 0 -0.12c0 -0.35 0.16 -0.89 0.21 -1.49a6.59 6.59 0 0 0 0 -1c0 -0.66 -0.18 -1.21 -0.2 -1.49l0 -0.08h0.11a32.6 32.6 0 0 0 5.33 -0.39 1.71 1.71 0 0 0 0.84 -0.38 1.55 1.55 0 0 0 0.34 -0.88 12.28 12.28 0 0 0 -0.09 -2.55 45.61 45.61 0 0 0 -1.24 -6.22Z" fill="#020202" stroke-width="1"></path>
  </g>
</svg>