<svg xmlns="http://www.w3.org/2000/svg" viewBox="0 0 24 24" id="Smart-House-Door-Pin-1--Streamline-Freehand">
  <desc>
    Smart House Door Pin 1 Streamline Icon: https://streamlinehq.com
  </desc>
  <g>
    <path d="M17 3.64c0.06 -0.57 -0.11 -0.9 -0.61 -0.94 -0.26 0 -0.87 -0.1 -0.89 0.81s1.4 0.89 1.5 0.13Z" fill="#020202" fill-rule="evenodd" stroke-width="1"></path>
    <path d="M17 6.42c0.06 -0.57 -0.11 -0.91 -0.61 -0.94 -0.26 0 -0.87 -0.1 -0.89 0.8s1.4 0.9 1.5 0.14Z" fill="#020202" fill-rule="evenodd" stroke-width="1"></path>
    <path d="M17 9.2c0.06 -0.57 -0.11 -0.91 -0.61 -0.94 -0.26 0 -0.87 -0.1 -0.89 0.81s1.4 0.93 1.5 0.13Z" fill="#020202" fill-rule="evenodd" stroke-width="1"></path>
    <path d="M19.73 3.64c0.05 -0.57 -0.11 -0.9 -0.61 -0.94 -0.27 0 -0.87 -0.1 -0.89 0.81s1.42 0.89 1.5 0.13Z" fill="#020202" fill-rule="evenodd" stroke-width="1"></path>
    <path d="M19.73 6.42c0.05 -0.57 -0.11 -0.91 -0.61 -0.94 -0.27 0 -0.87 -0.1 -0.89 0.8s1.42 0.9 1.5 0.14Z" fill="#020202" fill-rule="evenodd" stroke-width="1"></path>
    <path d="M19.73 9.2c0.05 -0.57 -0.11 -0.91 -0.61 -0.94 -0.27 0 -0.87 -0.1 -0.89 0.81s1.42 0.93 1.5 0.13Z" fill="#020202" fill-rule="evenodd" stroke-width="1"></path>
    <path d="m22.08 8.62 -0.26 -3.48a21.42 21.42 0 0 0 0 -3.22A1.86 1.86 0 0 0 21 0.48 4.87 4.87 0 0 0 19.14 0c-1.68 -0.13 -3.63 0.21 -4 0.13a0.33 0.33 0 0 0 -0.38 0.25 0.32 0.32 0 0 0 0.24 0.4c0.34 0.08 2 -0.13 3.51 -0.05a5.06 5.06 0 0 1 2.07 0.46c0.36 0.2 0.42 0.71 0.44 1.27 0 1 -0.16 2.15 -0.15 2.71l0.18 3.54a6.66 6.66 0 0 1 0 1.48 2 2 0 0 1 -0.3 0.78 1.73 1.73 0 0 1 -1.2 0.54c-0.92 0.13 -2 0 -2.62 0.08l-0.69 0a3.35 3.35 0 0 1 -0.63 0 3.12 3.12 0 0 1 -0.77 -0.22 1 1 0 0 1 -0.51 -0.36 0.79 0.79 0 0 1 -0.1 -0.37l0 -0.9c0 -0.77 -0.14 -3.67 -0.17 -6l0 -2.55a0.26 0.26 0 0 0 -0.24 -0.3 0.27 0.27 0 0 0 -0.31 0.24c-0.08 0.61 -0.12 1.56 -0.14 2.61 -0.06 2.35 0 5.24 -0.07 6a7.19 7.19 0 0 0 0 1.16 1.51 1.51 0 0 0 0.2 0.63 1.9 1.9 0 0 0 0.72 0.65 4.12 4.12 0 0 0 1.18 0.43 4.62 4.62 0 0 0 0.65 0.07 7.22 7.22 0 0 0 0.93 0 16.59 16.59 0 0 0 3.2 -0.16 2.44 2.44 0 0 0 1.42 -0.89 2.82 2.82 0 0 0 0.47 -1.22 7.24 7.24 0 0 0 0.01 -1.79Z" fill="#020202" fill-rule="evenodd" stroke-width="1"></path>
    <path d="M8.08 15.23a0.27 0.27 0 0 0 0.28 -0.23 7.58 7.58 0 0 0 0.24 -1.15 3.75 3.75 0 0 0 0 -0.67c0 -0.35 -0.1 -0.67 -0.13 -1a0.31 0.31 0 1 0 -0.62 -0.07 7.26 7.26 0 0 0 -0.26 1 3.37 3.37 0 0 0 0 0.44 2.16 2.16 0 0 0 0 0.44c0 0.35 0.16 0.66 0.23 1a0.27 0.27 0 0 0 0.26 0.24Z" fill="#020202" fill-rule="evenodd" stroke-width="1"></path>
    <g>
      <path d="M18 15.11a0.32 0.32 0 0 0 -0.33 -0.3 0.32 0.32 0 0 0 -0.3 0.34c0 0.4 0 1.87 -0.15 3.16a5.45 5.45 0 0 1 -0.3 1.82 0.78 0.78 0 0 1 -0.49 0.33 5.7 5.7 0 0 1 -1.37 0 4.77 4.77 0 0 0 -2.1 0.08c-0.67 0.25 -0.81 0.59 -0.09 0.72a14 14 0 0 0 2.15 0.22 6.09 6.09 0 0 0 1.65 0 1.75 1.75 0 0 0 1.12 -0.77 4.52 4.52 0 0 0 0.33 -1.83 35.6 35.6 0 0 0 -0.12 -3.77Z" fill="#4C57E6" stroke-width="1"></path>
      <path d="m11.45 19.8 0 -1.9 0 -4.38 0 -4c0 -0.46 0.1 -1.09 0.07 -1.65a2.6 2.6 0 0 0 -0.11 -0.87 2.83 2.83 0 0 0 -1 -1.09A13.34 13.34 0 0 0 8.58 5l-5 -2.52c-0.46 -0.07 -0.49 0.09 -0.52 0.13a0.49 0.49 0 0 0 0 0.27c0.06 0.17 -0.12 0 5.16 2.8a13.42 13.42 0 0 1 1.66 0.9 1.88 1.88 0 0 1 0.73 0.76 1.93 1.93 0 0 1 0.1 0.74c0 0.48 -0.09 1 -0.11 1.36l-0.12 4.06 -0.13 6.26a9.07 9.07 0 0 1 -0.13 1.64 2 2 0 0 1 -0.35 0.85 1.59 1.59 0 0 1 -1.77 0.64 14.33 14.33 0 0 1 -3.38 -1.64 11.37 11.37 0 0 1 -1.4 -0.75 1.27 1.27 0 0 1 -0.53 -0.6 0.83 0.83 0 0 1 0 -0.28c0 -0.37 0.1 -0.8 0.1 -1.09l-0.09 -4.31c0 -1.75 -0.05 -4 0 -6A21.83 21.83 0 0 1 3 5.66a0.27 0.27 0 0 0 -0.23 -0.31 0.28 0.28 0 0 0 -0.32 0.23 24.49 24.49 0 0 0 -0.25 2.59c-0.11 2 -0.08 4.26 -0.18 6L2 18.5c0 0.29 -0.11 0.7 -0.13 1.06a2.11 2.11 0 0 0 0.06 0.64 2.16 2.16 0 0 0 0.61 0.88 8.79 8.79 0 0 0 1.75 1.06 15.29 15.29 0 0 0 3.65 1.78 2.58 2.58 0 0 0 2.84 -1.05 3.28 3.28 0 0 0 0.54 -1.26c0 -0.09 0.12 -1.53 0.13 -1.81Z" fill="#020202" stroke-width="1"></path>
      <path d="M7.58 3.29h1.27c1 0 1.91 -0.08 3 -0.14a0.32 0.32 0 0 0 0 -0.63c-1.1 -0.07 -2.09 -0.18 -3.05 -0.24a11.8 11.8 0 0 0 -1.33 0 16.78 16.78 0 0 0 -1.68 0.06c-0.82 0.12 -0.16 0.65 0.51 0.91a4.22 4.22 0 0 0 1.28 0.04Z" fill="#4C57E6" stroke-width="1"></path>
    </g>
  </g>
</svg>