<svg xmlns="http://www.w3.org/2000/svg" viewBox="0 0 24 24" id="Smart-Watch-Circle-Bell--Streamline-Freehand">
  <desc>
    Smart Watch Circle Bell Streamline Icon: https://streamlinehq.com
  </desc>
  <g>
    <path d="M16.62 13.5c-0.19 -0.49 -0.65 -0.26 -1 -1.29 -0.25 -0.64 -0.31 -1.76 -0.55 -2.56 -0.34 -1.17 -1.35 -2.54 -2.46 -2.18a0.3 0.3 0 0 0 0.15 0.58 0.65 0.65 0 0 1 0.56 0.23c1.13 1.05 0.4 4.1 2.17 5.38 0.43 0.2 0.23 0.08 0.24 0.22a39.11 39.11 0 0 1 -6.84 -0.28c-0.34 -0.09 -0.29 0 -0.12 -0.12a2.86 2.86 0 0 0 1.09 -0.77c0.66 -1.13 0.23 -2.31 0.39 -3.37a1.77 1.77 0 0 1 0.9 -1.11 0.3 0.3 0 0 0 0.19 -0.37c-0.23 -0.71 -1.62 0.56 -1.83 1.33 -0.27 1 -0.08 2.2 -0.58 2.91 -0.1 0.15 -0.75 0.3 -1.14 0.69a1 1 0 0 0 0 1.51 3.16 3.16 0 0 0 1.9 0.49h0.6a3.45 3.45 0 0 0 0.63 1.76 1.68 1.68 0 0 0 0.77 0.46 2 2 0 0 0 2.14 -0.51 1.78 1.78 0 0 0 0.41 -1c0 -1 -0.95 -0.61 -0.72 -0.13 -0.08 0.73 -0.88 0.74 -1.58 0.57a0.79 0.79 0 0 1 -0.38 -0.18c-0.53 -0.49 -0.34 -0.54 -0.54 -1 0.47 0 5.19 -0.32 5.23 -0.35a0.78 0.78 0 0 0 0.37 -0.91Z" fill="#020202" fill-rule="evenodd" stroke-width="1"></path>
    <path d="M16 5.33a7.88 7.88 0 0 0 -7.86 0l-0.78 0.48a8 8 0 0 0 -1.43 12c3.1 3.34 8.42 3 11.51 0.56a0.31 0.31 0 1 0 -0.37 -0.49c-2.88 2.12 -7.75 2.4 -10.49 -0.68a7.23 7.23 0 0 1 3.58 -11.65A7.28 7.28 0 0 1 18.56 9a8.49 8.49 0 0 1 0.91 4.84c-0.24 1.51 -1 1.72 -0.63 2a0.27 0.27 0 0 0 0.38 0c1.7 -2.21 1.13 -7.4 -2.22 -9.84Z" fill="#4C57E6" fill-rule="evenodd" stroke-width="1"></path>
    <path d="M7.76 4.37c1.15 -3 1.44 -3.07 1.48 -3.16a36.78 36.78 0 0 1 6 0.17 16.86 16.86 0 0 1 1.27 3.29s0.81 0.44 0.68 -0.09a27.29 27.29 0 0 0 -1 -3.51 1.29 1.29 0 0 0 -0.39 -0.54c-0.57 -0.38 -6.58 -1 -7.29 0a22.49 22.49 0 0 0 -1.6 4.37c-0.14 0.68 0.53 0.38 0.85 -0.53Z" fill="#020202" fill-rule="evenodd" stroke-width="1"></path>
    <path d="M16.4 20.43c-0.6 -0.17 -0.35 0.8 -1.31 2.2 -0.33 0.09 -5.86 0.43 -6.05 0.15a18.44 18.44 0 0 1 -1.14 -2.34 0.3 0.3 0 0 0 -0.56 0.2c0.25 0.84 0.81 2.82 1.33 3 1.82 0.7 6.5 0.07 7 -0.25s0.76 -1.69 1 -2.58a0.36 0.36 0 0 0 -0.27 -0.38Z" fill="#020202" fill-rule="evenodd" stroke-width="1"></path>
  </g>
</svg>