<svg xmlns="http://www.w3.org/2000/svg" viewBox="0 0 24 24" id="Smart-Watch-Circle-Cloud--Streamline-Freehand">
  <desc>
    Smart Watch Circle Cloud Streamline Icon: https://streamlinehq.com
  </desc>
  <g>
    <path d="M7.79 15.07a5.17 5.17 0 0 0 1.6 0.45 28.13 28.13 0 0 0 3.79 0.3 8.45 8.45 0 0 0 2.61 -0.4 3.29 3.29 0 0 0 0.76 -0.35 3.39 3.39 0 0 0 0.46 -0.39 2.57 2.57 0 0 0 0.43 -2.76 1.79 1.79 0 0 0 -2.27 -1 5.38 5.38 0 0 0 -1 -1.59A3.37 3.37 0 0 0 13 8.49a3.14 3.14 0 0 0 -1.86 -0.09A2.86 2.86 0 0 0 10 9a3.47 3.47 0 0 0 -1.21 2.27 0.84 0.84 0 0 0 -0.14 -0.06 1.43 1.43 0 0 0 -1.65 0.53 2.52 2.52 0 0 0 -0.16 2.48 2 2 0 0 0 0.95 0.85Zm-0.31 -2.67a0.83 0.83 0 0 1 1 -0.6 1 1 0 0 1 0.38 0.15 3.68 3.68 0 0 1 0.39 0.3 0.28 0.28 0 1 0 0.37 -0.43 3.56 3.56 0 0 0 -0.31 -0.26 2.74 2.74 0 0 1 1.25 -1.78 2.41 2.41 0 0 1 0.79 -0.33 2.36 2.36 0 0 1 1.26 0 2.59 2.59 0 0 1 1.15 0.69 4.34 4.34 0 0 1 0.79 1l-0.05 0a3.64 3.64 0 0 0 -0.46 0.42 0.33 0.33 0 1 0 0.47 0.45 2.92 2.92 0 0 1 0.32 -0.28 1.09 1.09 0 0 1 0.32 -0.17 1.1 1.1 0 0 1 1.52 0.59 1.64 1.64 0 0 1 -0.36 1.85 1.23 1.23 0 0 1 -0.36 0.25 2.07 2.07 0 0 1 -0.47 0.18 8.22 8.22 0 0 1 -2.31 0.29c-1.26 0 -2.56 -0.14 -3.67 -0.25a4.89 4.89 0 0 1 -1.11 -0.21 1.34 1.34 0 0 1 -0.78 -0.49 1.77 1.77 0 0 1 -0.13 -1.37Z" fill="#020202" fill-rule="evenodd" stroke-width="1"></path>
    <path d="M16 5.33a7.88 7.88 0 0 0 -7.86 0l-0.78 0.48a8 8 0 0 0 -1.43 12c3.1 3.34 8.42 3 11.51 0.56a0.31 0.31 0 1 0 -0.37 -0.49c-2.88 2.12 -7.75 2.4 -10.49 -0.68a7.23 7.23 0 0 1 3.58 -11.65A7.28 7.28 0 0 1 18.56 9a8.49 8.49 0 0 1 0.91 4.84c-0.24 1.51 -1 1.72 -0.63 2a0.27 0.27 0 0 0 0.38 0c1.7 -2.21 1.13 -7.4 -2.22 -9.84Z" fill="#4C57E6" fill-rule="evenodd" stroke-width="1"></path>
    <path d="M7.76 4.37c1.15 -3 1.44 -3.07 1.48 -3.16a36.78 36.78 0 0 1 6 0.17 16.86 16.86 0 0 1 1.27 3.29s0.81 0.44 0.68 -0.09a27.29 27.29 0 0 0 -1 -3.51 1.29 1.29 0 0 0 -0.39 -0.54c-0.57 -0.38 -6.58 -1 -7.29 0a22.49 22.49 0 0 0 -1.6 4.37c-0.14 0.68 0.53 0.38 0.85 -0.53Z" fill="#020202" fill-rule="evenodd" stroke-width="1"></path>
    <path d="M16.4 20.43c-0.6 -0.17 -0.35 0.8 -1.31 2.2 -0.33 0.09 -5.86 0.43 -6.05 0.15a18.44 18.44 0 0 1 -1.14 -2.34 0.3 0.3 0 0 0 -0.56 0.2c0.25 0.84 0.81 2.82 1.33 3 1.82 0.7 6.5 0.07 7 -0.25s0.76 -1.69 1 -2.58a0.36 0.36 0 0 0 -0.27 -0.38Z" fill="#020202" fill-rule="evenodd" stroke-width="1"></path>
  </g>
</svg>