<svg xmlns="http://www.w3.org/2000/svg" viewBox="0 0 24 24" id="Smartphone-App-Widget-Add--Streamline-Freehand">
  <desc>
    Smartphone App Widget Add Streamline Icon: https://streamlinehq.com
  </desc>
  <g>
    <path d="M8.13 14.23a5.64 5.64 0 0 0 -3 -0.67 5.88 5.88 0 0 0 -4.76 4 4.42 4.42 0 0 0 2 5.66 3.67 3.67 0 0 0 1.14 0.39 8.06 8.06 0 0 0 1.7 0 0.27 0.27 0 0 0 0.27 -0.29 0.27 0.27 0 0 0 -0.29 -0.27A7.59 7.59 0 0 1 3.54 23a3.11 3.11 0 0 1 -0.9 -0.35 3.67 3.67 0 0 1 -1.39 -4.73 4.89 4.89 0 0 1 3.92 -3.29 4.63 4.63 0 0 1 2.46 0.51 4.35 4.35 0 0 1 1.83 1.73 5 5 0 0 1 0.58 3.4 3 3 0 0 1 -2.21 2.38 0.33 0.33 0 0 0 -0.24 0.38 0.32 0.32 0 0 0 0.39 0.24 3.63 3.63 0 0 0 2.83 -2.82 5.77 5.77 0 0 0 -0.52 -4 5.24 5.24 0 0 0 -2.16 -2.22Z" fill="#020202" stroke-width="1"></path>
    <path d="M8.13 0.7a5.65 5.65 0 0 0 -3 -0.68 5.9 5.9 0 0 0 -4.76 4 4.44 4.44 0 0 0 2 5.67 3.41 3.41 0 0 0 1.14 0.38 8.06 8.06 0 0 0 1.7 0.05 0.29 0.29 0 0 0 0 -0.57 7.59 7.59 0 0 1 -1.57 -0.11 2.63 2.63 0 0 1 -0.9 -0.35 3.67 3.67 0 0 1 -1.49 -4.7A4.91 4.91 0 0 1 5.17 1.1a4.64 4.64 0 0 1 2.46 0.52 4.29 4.29 0 0 1 1.83 1.73A5 5 0 0 1 10 6.74a3 3 0 0 1 -2.17 2.38 0.33 0.33 0 0 0 -0.24 0.39 0.32 0.32 0 0 0 0.41 0.24 3.64 3.64 0 0 0 2.83 -2.83 5.77 5.77 0 0 0 -0.52 -4A5.21 5.21 0 0 0 8.13 0.7Z" fill="#020202" stroke-width="1"></path>
    <path d="M23.33 3A5.23 5.23 0 0 0 21.16 0.75a5.74 5.74 0 0 0 -3 -0.68 5.91 5.91 0 0 0 -4.76 4 4.44 4.44 0 0 0 2 5.67 3.41 3.41 0 0 0 1.14 0.38 7.44 7.44 0 0 0 1.7 0 0.29 0.29 0 1 0 0 -0.57 7.44 7.44 0 0 1 -1.56 -0.1 2.75 2.75 0 0 1 -0.91 -0.36 3.68 3.68 0 0 1 -1.39 -4.73 4.91 4.91 0 0 1 3.82 -3.2 4.67 4.67 0 0 1 2.47 0.51A4.41 4.41 0 0 1 22.5 3.4a5 5 0 0 1 0.57 3.4 2.93 2.93 0 0 1 -2.2 2.37 0.33 0.33 0 0 0 -0.24 0.39 0.32 0.32 0 0 0 0.37 0.24A3.63 3.63 0 0 0 23.84 7a5.79 5.79 0 0 0 -0.51 -4Z" fill="#020202" stroke-width="1"></path>
    <path d="M23.47 16.94c-1.52 0.12 -3 0.28 -4.59 0.46 0.08 -1.77 0 -3.21 0.1 -5a0.27 0.27 0 0 0 -0.25 -0.3 0.28 0.28 0 0 0 -0.31 0.25 38.82 38.82 0 0 0 -0.61 5.17l-1.43 0.18c-0.58 0.07 -1.16 0.15 -1.74 0.2a17.8 17.8 0 0 1 -2.19 0.06 0.3 0.3 0 0 0 -0.32 0.26 0.3 0.3 0 0 0 0.26 0.31 20.16 20.16 0 0 0 4.53 0.18l0.85 -0.1 0 1.09c0 1.34 0.09 2.67 0.19 4a0.32 0.32 0 1 0 0.64 0c0 -1.34 0.13 -2.69 0.2 -4.05l0 -1.14 0.78 -0.13c1.32 -0.23 2.63 -0.54 3.93 -0.76a0.32 0.32 0 0 0 0.28 -0.36 0.32 0.32 0 0 0 -0.32 -0.32Z" fill="#4C57E6" stroke-width="1"></path>
  </g>
</svg>