<svg xmlns="http://www.w3.org/2000/svg" viewBox="0 0 24 24" id="Smiley-Drool-1--Streamline-Freehand">
  <desc>
    Smiley Drool 1 Streamline Icon: https://streamlinehq.com
  </desc>
  <g>
    <path d="M11.94 23a13.85 13.85 0 0 1 -3.76 -0.74 10.1 10.1 0 0 1 -3.3 -1.81 11.55 11.55 0 0 1 -3.63 -7.16A10.54 10.54 0 0 1 3 5.53a11.32 11.32 0 0 1 3.1 -2.95 9.3 9.3 0 0 1 4 -1.44c0.7 -0.08 1.4 -0.14 2.1 -0.15a10.9 10.9 0 0 1 1.39 0.08 0.29 0.29 0 0 0 0.34 -0.25 0.31 0.31 0 0 0 -0.25 -0.34A12.18 12.18 0 0 0 12.2 0.34c-0.73 0 -1.45 0 -2.18 0.08a10.21 10.21 0 0 0 -4.4 1.39 12.58 12.58 0 0 0 -3.44 3.08 11.41 11.41 0 0 0 -2.05 8.53 12.36 12.36 0 0 0 4.15 7.71A10.91 10.91 0 0 0 7.93 23a15 15 0 0 0 4 0.67 0.33 0.33 0 0 0 0.35 -0.33 0.34 0.34 0 0 0 -0.34 -0.34Z" fill="#4C57E6" stroke-width="1"></path>
    <path d="M23.92 10.11a12.79 12.79 0 0 0 -0.68 -3 10 10 0 0 0 -3.43 -4.49 10.69 10.69 0 0 0 -5.2 -2 0.33 0.33 0 0 0 -0.38 0.29 0.34 0.34 0 0 0 0.29 0.38 9.85 9.85 0 0 1 4.71 2.11 9.08 9.08 0 0 1 2.94 4.13 13.55 13.55 0 0 1 0.62 2.73 16 16 0 0 1 0.11 2.83 11.65 11.65 0 0 1 -0.75 3.43 10.67 10.67 0 0 1 -1.74 3.07 0.3 0.3 0 0 0 0 0.43 0.29 0.29 0 0 0 0.42 0 11.09 11.09 0 0 0 2 -3.17 12.3 12.3 0 0 0 1 -3.65 15.45 15.45 0 0 0 0.09 -3.09Z" fill="#4C57E6" stroke-width="1"></path>
    <path d="M6.64 6.56c-1 0.6 -1.61 2.18 -0.46 3A2.07 2.07 0 0 0 9 8.72a1.77 1.77 0 0 0 -0.73 -2.28 1.71 1.71 0 0 0 -1.63 0.12Z" fill="#020202" stroke-width="1"></path>
    <path d="M15.7 9.53a1.67 1.67 0 0 0 2.55 -1.22 1.68 1.68 0 0 0 -0.84 -1.81c-1.7 -0.73 -3.36 1.12 -2.33 2.51a1.73 1.73 0 0 0 0.62 0.52Z" fill="#020202" stroke-width="1"></path>
    <path d="M16.79 12.36a7.84 7.84 0 0 0 -3.38 -1.09 6.87 6.87 0 0 0 -3.41 0.49 9.33 9.33 0 0 0 -2.85 1.85 3.68 3.68 0 0 0 -1.13 2 2.4 2.4 0 0 0 0.81 2.25 1.68 1.68 0 0 0 1.22 0.45 3.89 3.89 0 0 0 1.56 -0.49 8.19 8.19 0 0 1 2.85 -0.71 3.06 3.06 0 0 1 1.66 0.29 2.53 2.53 0 0 1 0 0.72 8.86 8.86 0 0 1 -0.36 1.13 4.28 4.28 0 0 0 -0.36 1.84 2.57 2.57 0 0 0 0.43 1.29 2.11 2.11 0 0 0 2 1 2.44 2.44 0 0 0 1.88 -1.25 5.3 5.3 0 0 0 0.6 -2.55 8.29 8.29 0 0 0 -0.4 -2.5 2.11 2.11 0 0 0 0.62 -1.23 3.51 3.51 0 0 0 -0.18 -1.55 3.77 3.77 0 0 0 -1.56 -1.94Zm-0.09 9.3a1.36 1.36 0 0 1 -1 0.75 1.18 1.18 0 0 1 -1.12 -0.51 1.89 1.89 0 0 1 -0.35 -1.07 4.12 4.12 0 0 1 0.24 -1.26 8.52 8.52 0 0 0 0.33 -1.28c0.16 -1.13 0 -1.86 -2.34 -1.87l-0.53 0a2 2 0 0 1 0.38 -0.39 3.2 3.2 0 0 1 0.85 -0.42 3 3 0 0 1 2.3 0.11 2.73 2.73 0 0 1 1.38 1.74 7.47 7.47 0 0 1 0.3 2.16 4.34 4.34 0 0 1 -0.44 2.04Zm-0.86 -6.76a3.76 3.76 0 0 0 -3 0 3.86 3.86 0 0 0 -1.16 0.74 2 2 0 0 0 -0.53 0.82 8.53 8.53 0 0 0 -1.91 0.54 3.69 3.69 0 0 1 -1 0.33 0.8 0.8 0 0 1 -0.7 -0.23 1.37 1.37 0 0 1 -0.41 -1.32 2.61 2.61 0 0 1 0.82 -1.37 8.57 8.57 0 0 1 2.5 -1.63 5.91 5.91 0 0 1 2.87 -0.51 7 7 0 0 1 3 0.81 2.89 2.89 0 0 1 1.24 1.48 2.65 2.65 0 0 1 0.2 1.19 1.39 1.39 0 0 1 -0.21 0.62 3.55 3.55 0 0 0 -1.71 -1.47Z" fill="#020202" stroke-width="1"></path>
  </g>
</svg>