<svg xmlns="http://www.w3.org/2000/svg" viewBox="0 0 24 24" id="Smiley-Lol-Sideways--Streamline-Freehand">
  <desc>
    Smiley Lol Sideways Streamline Icon: https://streamlinehq.com
  </desc>
  <g>
    <path d="M7.3 18.43a0.84 0.84 0 0 0 0.21 0.67A4.79 4.79 0 0 0 9 20.18a8 8 0 0 0 3.23 0.92 8.2 8.2 0 0 0 6.07 -2.48 9.3 9.3 0 0 0 2.45 -6.13 8.08 8.08 0 0 0 -0.84 -3.67 4.87 4.87 0 0 0 -1.51 -1.91 0.81 0.81 0 0 0 -0.73 -0.06 7.41 7.41 0 0 0 -0.81 0.77c-1.11 1.17 -3.45 3.73 -5.53 6.05S7.3 18.43 7.3 18.43Zm3.59 -3.11c2.3 -2.41 5.3 -5.43 6.67 -6.82L18 8a5.86 5.86 0 0 1 1.26 2.3 6.83 6.83 0 0 1 0.32 2.12 8.28 8.28 0 0 1 -2.05 5.46 7.37 7.37 0 0 1 -5.33 2.34 6.5 6.5 0 0 1 -2.43 -0.54 6.13 6.13 0 0 1 -1.53 -0.85c-0.11 -0.09 -0.34 -0.32 -0.34 -0.32a37.86 37.86 0 0 1 2.99 -3.19Z" fill="#020202" stroke-width="1"></path>
    <path d="M0.74 14.59a0.35 0.35 0 0 0 0.28 -0.4 12.09 12.09 0 0 1 0.09 -4.49A9.71 9.71 0 0 1 3 5.71a12.09 12.09 0 0 1 3.12 -2.9 9.65 9.65 0 0 1 4 -1.49 18.94 18.94 0 0 1 2.12 -0.18 10.93 10.93 0 0 1 1.4 0.06 0.29 0.29 0 0 0 0.26 -0.2 0.29 0.29 0 0 0 -0.25 -0.34 10.63 10.63 0 0 0 -1.48 -0.21l-2.2 0a10 10 0 0 0 -4.48 1.41A12.37 12.37 0 0 0 2 5 10.72 10.72 0 0 0 0.2 9.53a12.82 12.82 0 0 0 0.14 4.78 0.35 0.35 0 0 0 0.4 0.28Z" fill="#4C57E6" stroke-width="1"></path>
    <path d="M23.81 10.33a13.61 13.61 0 0 0 -0.73 -2.94 0.33 0.33 0 0 0 -0.43 -0.21 0.35 0.35 0 0 0 -0.21 0.44 13.47 13.47 0 0 1 0.56 2.81 15.28 15.28 0 0 1 0 2.87 10.54 10.54 0 0 1 -0.68 2.75A12.24 12.24 0 0 1 21 18.56a9.78 9.78 0 0 1 -4.47 3.55 13.2 13.2 0 0 1 -5.76 1 13.19 13.19 0 0 1 -2 -0.27A12.46 12.46 0 0 1 7 22.25a0.3 0.3 0 0 0 -0.4 0.15 0.32 0.32 0 0 0 0.16 0.4 11.21 11.21 0 0 0 2 0.72 13 13 0 0 0 2.05 0.4 13.26 13.26 0 0 0 6.19 -0.79 10.46 10.46 0 0 0 5 -3.94 13.33 13.33 0 0 0 1.35 -2.79 11.2 11.2 0 0 0 0.62 -3 16.47 16.47 0 0 0 -0.16 -3.07Z" fill="#4C57E6" stroke-width="1"></path>
    <path d="M6.69 15.57c0.25 -0.88 0.6 -1.74 0.88 -2.61 0.12 -0.39 0.23 -0.79 0.32 -1.19A4.28 4.28 0 0 0 8 10.6a1.26 1.26 0 0 0 -0.29 -0.71 0.69 0.69 0 0 0 -0.68 -0.17L6 10a10.43 10.43 0 0 0 -1.52 0.57 21.66 21.66 0 0 0 -2.07 1.17 0.31 0.31 0 0 0 0.29 0.54c0.61 -0.28 1.18 -0.53 1.76 -0.74a9.87 9.87 0 0 1 1.78 -0.45l0.69 -0.15c0 0.24 -0.06 0.48 -0.08 0.66 0 0.37 -0.11 0.75 -0.19 1.12 -0.18 0.9 -0.43 1.8 -0.59 2.7a0.35 0.35 0 0 0 0.26 0.41 0.33 0.33 0 0 0 0.36 -0.26Z" fill="#020202" stroke-width="1"></path>
    <path d="m11.1 4.7 0.25 -1.8a0.3 0.3 0 0 0 -0.21 -0.37 0.31 0.31 0 0 0 -0.37 0.21l-0.51 1.77c-0.14 0.49 -0.56 1.57 -0.75 2.26a2.29 2.29 0 0 0 -0.11 0.88 0.69 0.69 0 0 0 0.65 0.51A8.12 8.12 0 0 0 12 7.77c0.66 -0.19 1.28 -0.39 1.92 -0.55A12.39 12.39 0 0 1 15.16 7a0.35 0.35 0 0 0 0.3 -0.38 0.33 0.33 0 0 0 -0.37 -0.3c-0.47 0 -0.92 0.07 -1.37 0.13 -0.66 0.09 -1.3 0.22 -2 0.33a10.6 10.6 0 0 1 -1.2 0.39c0.06 -0.19 0.16 -0.43 0.21 -0.64 0.16 -0.7 0.27 -1.44 0.37 -1.83Z" fill="#020202" stroke-width="1"></path>
    <path d="M4.86 19.59c-0.3 -0.52 -0.72 -1 -1 -1.49a2.17 2.17 0 0 1 -0.22 -0.6 7.74 7.74 0 0 1 -0.1 -1.07 0.33 0.33 0 0 0 -0.35 -0.33 0.25 0.25 0 0 0 -0.12 0 0.28 0.28 0 0 0 0 -0.25 0.29 0.29 0 0 0 -0.4 -0.13 2.92 2.92 0 0 0 -1 0.74 4.57 4.57 0 0 0 -0.65 1 5.38 5.38 0 0 0 -0.5 3.34 2.76 2.76 0 0 0 1.51 2 2.3 2.3 0 0 0 2.3 -0.22 2 2 0 0 0 0.85 -2.14 2.82 2.82 0 0 0 -0.32 -0.85Zm-1.14 2.05a1.22 1.22 0 0 1 -1.17 0.11 1.92 1.92 0 0 1 -1 -1.64 4.81 4.81 0 0 1 0.27 -2.32 3.47 3.47 0 0 1 0.46 -0.87 2.55 2.55 0 0 1 0.65 -0.62 0.35 0.35 0 0 0 0 0.14 9.31 9.31 0 0 0 0 1.18 3.08 3.08 0 0 0 0.23 0.84c0.24 0.53 0.63 1 0.89 1.57a2.1 2.1 0 0 1 0.19 0.6 1 1 0 0 1 -0.52 1.01Z" fill="#020202" stroke-width="1"></path>
    <path d="M15 3.53a0.29 0.29 0 0 0 0.38 -0.19 4 4 0 0 1 2.49 -2.13 2.33 2.33 0 0 1 2.76 0.64 2.83 2.83 0 0 1 0.54 1.36c0 0.36 0 0.71 -0.42 0.8A2.59 2.59 0 0 1 19 3.65a6.25 6.25 0 0 0 -2.16 -0.78 2.55 2.55 0 0 0 -1.22 0.2 0.34 0.34 0 0 0 -0.2 0.44 0.35 0.35 0 0 0 0.45 0.2 1.87 1.87 0 0 1 1.34 0c0.69 0.24 1.32 0.73 2 1a2.91 2.91 0 0 0 1.79 0.34 1.55 1.55 0 0 0 1.3 -1.47 3.9 3.9 0 0 0 -0.78 -2.45 3.13 3.13 0 0 0 -3.2 -1 4.91 4.91 0 0 0 -3.52 3.02 0.3 0.3 0 0 0 0.2 0.38Z" fill="#020202" stroke-width="1"></path>
  </g>
</svg>