<svg xmlns="http://www.w3.org/2000/svg" viewBox="0 0 24 24" id="Smiley-Fever--Streamline-Freehand">
  <desc>
    Smiley Fever Streamline Icon: https://streamlinehq.com
  </desc>
  <g>
    <path d="M22.3 16.24a0.34 0.34 0 0 0 -0.44 0.17 9.32 9.32 0 0 1 -0.47 0.95c-0.17 0.32 -0.36 0.62 -0.55 0.91a9.47 9.47 0 0 1 -4.5 3.46 12.29 12.29 0 0 1 -5.67 0.78 11.63 11.63 0 0 1 -3.11 -0.73 9.29 9.29 0 0 1 -2.7 -1.59 11.29 11.29 0 0 1 -3.64 -7 10.37 10.37 0 0 1 1.7 -7.66A11.54 11.54 0 0 1 6 2.63a9.17 9.17 0 0 1 4 -1.4 20.56 20.56 0 0 1 2 -0.14 10.47 10.47 0 0 1 1.36 0.09 0.29 0.29 0 1 0 0.1 -0.58A10.28 10.28 0 0 0 12 0.47c-0.71 0 -1.43 0 -2.15 0.08a10 10 0 0 0 -4.3 1.39A12.29 12.29 0 0 0 2.18 5a11.29 11.29 0 0 0 -2.07 8.36 12.24 12.24 0 0 0 4 7.67 9.94 9.94 0 0 0 3.05 1.74 12.46 12.46 0 0 0 3.39 0.73 13.3 13.3 0 0 0 6.08 -1 10.35 10.35 0 0 0 4.78 -3.86c0.19 -0.31 0.38 -0.63 0.56 -1s0.33 -0.66 0.48 -1a0.34 0.34 0 0 0 -0.15 -0.4Z" fill="#4C57E6" stroke-width="1"></path>
    <path d="M14.3 1.37a10.05 10.05 0 0 1 3.33 1.3 10.74 10.74 0 0 1 1.25 0.87 12 12 0 0 1 1.14 1 9 9 0 0 1 2.07 2.9 0.3 0.3 0 1 0 0.56 -0.2 9 9 0 0 0 -1.84 -3.44 8.52 8.52 0 0 0 -1.24 -1.16 8.36 8.36 0 0 0 -1.43 -0.89 10.05 10.05 0 0 0 -3.75 -1A0.35 0.35 0 0 0 14 1a0.34 0.34 0 0 0 0.3 0.37Z" fill="#4C57E6" stroke-width="1"></path>
    <path d="M6.08 10.12a2 2 0 0 0 2.8 -0.79 1.76 1.76 0 0 0 -0.73 -2.25 1.71 1.71 0 0 0 -1.62 0.13c-0.94 0.59 -1.53 2.14 -0.45 2.91Z" fill="#020202" stroke-width="1"></path>
    <path d="M17.15 7.14c-1.67 -0.71 -3.32 1.11 -2.3 2.49a1.64 1.64 0 0 0 0.61 0.5A1.65 1.65 0 0 0 18 8.93a1.68 1.68 0 0 0 -0.85 -1.79Z" fill="#020202" stroke-width="1"></path>
    <path d="M6.82 5.74a5.41 5.41 0 0 1 1.29 -0.32 0.33 0.33 0 0 0 0.35 -0.31 0.34 0.34 0 0 0 -0.32 -0.36 4.86 4.86 0 0 0 -1.57 0 3.25 3.25 0 0 0 -0.68 0.18 2.3 2.3 0 0 0 -0.61 0.35 3 3 0 0 0 -1 1.32 0.29 0.29 0 0 0 0.1 0.4 0.31 0.31 0 0 0 0.41 -0.1 2.88 2.88 0 0 1 1 -0.71 4 4 0 0 1 0.47 -0.21Z" fill="#020202" stroke-width="1"></path>
    <path d="M18.78 7.28a0.34 0.34 0 1 0 0.64 -0.2 2.91 2.91 0 0 0 -0.84 -1.49 2.77 2.77 0 0 0 -0.58 -0.44 2.53 2.53 0 0 0 -0.65 -0.29 3.62 3.62 0 0 0 -1.65 -0.1 0.31 0.31 0 0 0 -0.29 0.31 0.29 0.29 0 0 0 0.3 0.28 4.36 4.36 0 0 1 1.24 0.5c0.22 0.12 0.45 0.25 0.67 0.39s0.3 0.17 0.44 0.27a2.2 2.2 0 0 1 0.72 0.77Z" fill="#020202" stroke-width="1"></path>
    <path d="M23.81 10.33a1.78 1.78 0 0 0 -2 -1 5.63 5.63 0 0 0 -2 0.74 14.21 14.21 0 0 0 -2.31 1.83 11 11 0 0 0 -0.82 0.85c-0.52 0.58 -1 1.19 -1.51 1.78A5.6 5.6 0 0 0 11.83 13 6.34 6.34 0 0 0 8 14.49a6.16 6.16 0 0 0 -2.08 3.43 0.29 0.29 0 0 0 0.57 0.15 5.59 5.59 0 0 1 2.09 -2.84 5.52 5.52 0 0 1 3.25 -1.09 4.82 4.82 0 0 1 3.08 1.34 6.24 6.24 0 0 1 2 2.89 0.33 0.33 0 0 0 0.4 0.25 0.33 0.33 0 0 0 0.25 -0.4 3.11 3.11 0 0 0 -0.15 -0.56c0.92 -0.63 1.87 -1.23 2.78 -1.88a18.62 18.62 0 0 0 1.84 -1.48 10.91 10.91 0 0 0 1 -1 4.94 4.94 0 0 0 0.6 -0.84 2.42 2.42 0 0 0 0.18 -2.13Zm-1.09 1.59a4.23 4.23 0 0 1 -0.44 0.69c-0.28 0.35 -0.59 0.67 -0.89 1a17 17 0 0 1 -1.67 1.5c-0.82 0.65 -1.72 1.27 -2.52 1.89a7.26 7.26 0 0 0 -0.51 -0.89A18.74 18.74 0 0 0 18.4 15c0.33 -0.26 0.66 -0.55 1 -0.84 0.59 -0.55 1.08 -1.09 1.36 -1.32a0.34 0.34 0 0 0 0.09 -0.46 0.33 0.33 0 0 0 -0.46 -0.1 14.94 14.94 0 0 0 -1.63 1c-0.21 0.15 -0.43 0.31 -0.64 0.49a6.1 6.1 0 0 0 -0.59 0.54c-0.55 0.55 -1 1.05 -1.17 1.28 -0.2 -0.24 -0.41 -0.48 -0.63 -0.7 0.45 -0.47 0.89 -0.95 1.35 -1.41a12.65 12.65 0 0 1 1.09 -1A14 14 0 0 1 20.4 11a4.76 4.76 0 0 1 1.6 -0.6 0.71 0.71 0 0 1 0.78 0.4 1.27 1.27 0 0 1 -0.06 1.12Z" fill="#020202" stroke-width="1"></path>
  </g>
</svg>