<svg xmlns="http://www.w3.org/2000/svg" viewBox="0 0 24 24" id="Smiley-Crazy-Tongue--Streamline-Freehand">
  <desc>
    Smiley Crazy Tongue Streamline Icon: https://streamlinehq.com
  </desc>
  <g>
    <path d="M17.15 18.59a6.9 6.9 0 0 0 1.92 -3.19 3.07 3.07 0 0 0 0.1 -1.63 0.61 0.61 0 0 0 -0.35 -0.37c-0.05 0 -1.84 -0.09 -4.12 -0.06 -1.24 0 -2.63 0.05 -3.94 0.11 -1.68 0.08 -3.23 0.2 -4.21 0.3a4.86 4.86 0 0 0 -1.26 0.25 0.79 0.79 0 0 0 -0.3 0.51 2.9 2.9 0 0 0 0.15 1.29 7.23 7.23 0 0 0 1.67 2.94 0.21 0.21 0 0 0 0.13 0.05 5.6 5.6 0 0 0 1.27 3.62A4.31 4.31 0 0 0 11.7 24a6.32 6.32 0 0 0 3.53 -1.64 4.58 4.58 0 0 0 1.69 -3.58 0.29 0.29 0 0 0 0 -0.09 0.35 0.35 0 0 0 0.23 -0.1Zm-2.68 2.93a5.23 5.23 0 0 1 -2.8 1.48 3.43 3.43 0 0 1 -2.83 -1.14c-0.22 -0.25 -2.35 -2.94 -0.56 -4a3 3 0 0 1 1.36 -0.39 2.11 2.11 0 0 1 0.74 0.2 10.25 10.25 0 0 1 1.07 0.54 0.76 0.76 0 0 0 0.37 0.11c0.15 0 0.81 -0.4 1.56 -0.62a2.18 2.18 0 0 1 0.84 -0.1 2.25 2.25 0 0 1 1 0.44 1.1 1.1 0 0 1 0.51 0.77 3.46 3.46 0 0 1 -1.26 2.71Zm1.74 -4.11a3.24 3.24 0 0 0 -1.89 -0.82 3 3 0 0 0 -1.25 0.2 7.27 7.27 0 0 0 -1.21 0.58l-0.08 0a10.29 10.29 0 0 0 -1.11 -0.47 2.78 2.78 0 0 0 -1.07 -0.2 3.89 3.89 0 0 0 -2 0.79 2.2 2.2 0 0 0 -0.54 0.61 5.89 5.89 0 0 1 -0.78 -1.31 6.28 6.28 0 0 1 -0.5 -1.75 1.15 1.15 0 0 1 0.06 -0.34c0.5 -0.05 1.53 -0.06 2.8 -0.09 1.42 0 3.12 -0.08 4.72 -0.14 2 -0.07 3.84 -0.17 4.71 -0.2h0.16a0.76 0.76 0 0 1 0 0.34 6 6 0 0 1 -1.62 3.41 2.36 2.36 0 0 0 -0.4 -0.61Z" fill="#020202" stroke-width="1"></path>
    <path d="M1.15 13a12.14 12.14 0 0 1 0.21 -4.08A9.68 9.68 0 0 1 3 5.23a11.74 11.74 0 0 1 3.09 -2.94 9.42 9.42 0 0 1 4 -1.46c0.7 -0.08 1.4 -0.15 2.11 -0.16a10.85 10.85 0 0 1 1.38 0.08 0.3 0.3 0 0 0 0.31 -0.25 0.28 0.28 0 0 0 -0.25 -0.34A10.46 10.46 0 0 0 12.17 0c-0.73 0 -1.45 0 -2.18 0.07a9.88 9.88 0 0 0 -4.42 1.38 12.52 12.52 0 0 0 -3.45 3.09 10.32 10.32 0 0 0 -1.86 4.1 12.37 12.37 0 0 0 -0.11 4.46 12.29 12.29 0 0 0 4.18 7.62 0.34 0.34 0 0 0 0.48 0 0.34 0.34 0 0 0 0 -0.48A11.62 11.62 0 0 1 1.15 13Z" fill="#4C57E6" stroke-width="1"></path>
    <path d="M23.9 9.79a13.9 13.9 0 0 0 -0.68 -3 10.11 10.11 0 0 0 -3.44 -4.49 10.77 10.77 0 0 0 -5.2 -2 0.35 0.35 0 0 0 -0.38 0.29 0.34 0.34 0 0 0 0.3 0.38 10 10 0 0 1 4.72 2.11 9.06 9.06 0 0 1 2.94 4.14 12.84 12.84 0 0 1 0.6 2.74 14.89 14.89 0 0 1 0.09 2.82 10.72 10.72 0 0 1 -0.54 2.75 12.36 12.36 0 0 1 -1.21 2.57 8.15 8.15 0 0 1 -1.1 1.36 8.64 8.64 0 0 1 -1.33 1.16 0.3 0.3 0 0 0 -0.08 0.42 0.31 0.31 0 0 0 0.42 0.08A11.19 11.19 0 0 0 20.52 20a10 10 0 0 0 1.24 -1.44 13.28 13.28 0 0 0 1.45 -2.68 11.55 11.55 0 0 0 0.74 -3 15.52 15.52 0 0 0 -0.05 -3.09Z" fill="#4C57E6" stroke-width="1"></path>
    <path d="M6.82 9.82c-0.55 0.25 -1.08 0.46 -1.63 0.67a0.34 0.34 0 0 0 0.2 0.65c0.59 -0.16 1.16 -0.32 1.75 -0.51A17.32 17.32 0 0 0 8.85 10 3.89 3.89 0 0 0 10 9.12a0.93 0.93 0 0 0 0.24 -0.69 0.81 0.81 0 0 0 -0.41 -0.43l-1 -0.59C8.17 7 7.44 6.53 6.7 6.13a16.42 16.42 0 0 0 -1.53 -0.74 0.3 0.3 0 1 0 -0.26 0.54 11.72 11.72 0 0 1 1 0.66c0.79 0.55 1.58 1.18 2.34 1.73l0.59 0.38a4.63 4.63 0 0 1 -0.51 0.3 16.61 16.61 0 0 1 -1.51 0.82Z" fill="#020202" stroke-width="1"></path>
    <path d="M18.53 5.53a0.3 0.3 0 0 0 -0.3 -0.52l-2 1.11A8.56 8.56 0 0 0 15 7a8 8 0 0 0 -1.2 1.19 0.7 0.7 0 0 0 0.11 0.84 7.83 7.83 0 0 0 1.81 1.1c0.43 0.18 0.86 0.36 1.35 0.53s0.88 0.3 1.39 0.44a0.34 0.34 0 0 0 0.43 -0.22 0.35 0.35 0 0 0 -0.21 -0.43 13.19 13.19 0 0 1 -1.28 -0.56c-0.45 -0.22 -0.85 -0.44 -1.24 -0.66a9.35 9.35 0 0 1 -1.22 -0.62l1.79 -1.72Z" fill="#020202" stroke-width="1"></path>
  </g>
</svg>