<svg xmlns="http://www.w3.org/2000/svg" viewBox="0 0 24 24" id="Smiley-Crazy--Streamline-Freehand">
  <desc>
    Smiley Crazy Streamline Icon: https://streamlinehq.com
  </desc>
  <g>
    <path d="M17.15 18.59a6.9 6.9 0 0 0 1.92 -3.19 3.07 3.07 0 0 0 0.1 -1.63 0.61 0.61 0 0 0 -0.35 -0.37c-0.05 0 -1.84 -0.09 -4.12 -0.06 -1.24 0 -2.63 0.05 -3.94 0.11 -1.68 0.08 -3.23 0.2 -4.21 0.3a4.86 4.86 0 0 0 -1.26 0.25 0.79 0.79 0 0 0 -0.3 0.51 2.9 2.9 0 0 0 0.15 1.29 7.23 7.23 0 0 0 1.67 2.94 0.21 0.21 0 0 0 0.13 0.05s0 0.07 0 0.1a5.1 5.1 0 0 0 1.28 3.52A4.7 4.7 0 0 0 11.7 24a6.32 6.32 0 0 0 3.53 -1.64 4.58 4.58 0 0 0 1.69 -3.58 0.29 0.29 0 0 0 0 -0.09 0.35 0.35 0 0 0 0.23 -0.1Zm-2.68 2.93a5.23 5.23 0 0 1 -2.8 1.48 3.44 3.44 0 0 1 -2.83 -1.14 8.75 8.75 0 0 1 -1.32 -3 1.21 1.21 0 0 1 0.76 -1 3 3 0 0 1 1.36 -0.39 2.11 2.11 0 0 1 0.74 0.2 10.25 10.25 0 0 1 1.07 0.54 0.76 0.76 0 0 0 0.37 0.11c0.15 0 0.81 -0.4 1.56 -0.62a2.2 2.2 0 0 1 0.84 -0.1 2.25 2.25 0 0 1 1 0.44 1.1 1.1 0 0 1 0.51 0.77 3.46 3.46 0 0 1 -1.26 2.71Zm1.74 -4.11a3.24 3.24 0 0 0 -1.89 -0.82 3.17 3.17 0 0 0 -1.25 0.19 8.07 8.07 0 0 0 -1.21 0.59l-0.08 0a10.06 10.06 0 0 0 -1.11 -0.48 3 3 0 0 0 -1.07 -0.19 3.89 3.89 0 0 0 -2 0.79 2.2 2.2 0 0 0 -0.54 0.61 5.89 5.89 0 0 1 -0.78 -1.31 6.28 6.28 0 0 1 -0.5 -1.75 1.59 1.59 0 0 1 0.06 -0.34c0.49 -0.05 1.52 -0.06 2.79 -0.09l4.72 -0.14c2 -0.07 3.84 -0.17 4.71 -0.2h0.16a1.21 1.21 0 0 1 0.05 0.34 5.88 5.88 0 0 1 -0.57 1.89 5.58 5.58 0 0 1 -1.06 1.52 2.36 2.36 0 0 0 -0.43 -0.61Z" fill="#020202" stroke-width="1"></path>
    <path d="M1.16 13a11.89 11.89 0 0 1 0.2 -4.08A9.68 9.68 0 0 1 3 5.23a11.74 11.74 0 0 1 3.09 -2.94 9.42 9.42 0 0 1 4 -1.46c0.7 -0.08 1.4 -0.15 2.11 -0.16a10.75 10.75 0 0 1 1.38 0.08 0.3 0.3 0 0 0 0.31 -0.25 0.29 0.29 0 0 0 -0.25 -0.34A10.46 10.46 0 0 0 12.17 0c-0.73 0 -1.45 0 -2.18 0.07a9.88 9.88 0 0 0 -4.42 1.38 12.52 12.52 0 0 0 -3.45 3.09 10.32 10.32 0 0 0 -1.86 4.1 12.37 12.37 0 0 0 -0.11 4.46 12.34 12.34 0 0 0 4.18 7.62 0.34 0.34 0 0 0 0.48 0 0.34 0.34 0 0 0 0 -0.48A11.55 11.55 0 0 1 1.16 13Z" fill="#4C57E6" stroke-width="1"></path>
    <path d="M23.9 9.79a13.9 13.9 0 0 0 -0.68 -3 10.11 10.11 0 0 0 -3.44 -4.49 10.77 10.77 0 0 0 -5.2 -2 0.35 0.35 0 0 0 -0.38 0.29 0.34 0.34 0 0 0 0.3 0.38 10 10 0 0 1 4.72 2.11 9.06 9.06 0 0 1 2.94 4.14 12.84 12.84 0 0 1 0.6 2.74 14.89 14.89 0 0 1 0.09 2.82 10.33 10.33 0 0 1 -0.55 2.75 11.85 11.85 0 0 1 -1.2 2.57 8.92 8.92 0 0 1 -2.4 2.55 0.3 0.3 0 0 0 -0.08 0.42 0.31 0.31 0 0 0 0.42 0.08A11.19 11.19 0 0 0 20.52 20a9.43 9.43 0 0 0 1.24 -1.44 13.28 13.28 0 0 0 1.45 -2.68 11.55 11.55 0 0 0 0.74 -3 15.52 15.52 0 0 0 -0.05 -3.09Z" fill="#4C57E6" stroke-width="1"></path>
    <path d="M8 6.6a0.93 0.93 0 0 0 -0.91 0.07c-0.53 0.33 -0.89 1.2 -0.25 1.63a1.13 1.13 0 0 0 1.56 -0.44A1 1 0 0 0 8 6.6Z" fill="#020202" stroke-width="1"></path>
    <path d="M8.45 4.43a3 3 0 0 0 -1.07 -0.13 3.66 3.66 0 0 0 -1 0.24A3.75 3.75 0 0 0 4.57 6a4.71 4.71 0 0 0 -0.69 2.16 3.62 3.62 0 0 0 0.19 1.43 2.47 2.47 0 0 0 0.93 1.2 2.67 2.67 0 0 0 0.71 0.32A5.15 5.15 0 0 0 9 10.86a3.38 3.38 0 0 0 1.7 -1.61 3.63 3.63 0 0 0 0.19 -2.6 2.94 2.94 0 0 0 -2.44 -2.22ZM9.86 8.8a2.47 2.47 0 0 1 -1.29 1.08 4 4 0 0 1 -1.76 0.24 3.5 3.5 0 0 1 -0.65 -0.12 1.6 1.6 0 0 1 -0.51 -0.2 1.41 1.41 0 0 1 -0.52 -0.67 2.52 2.52 0 0 1 -0.16 -1 3.73 3.73 0 0 1 0.41 -1.72 2.9 2.9 0 0 1 1.27 -1.2 2.26 2.26 0 0 1 0.8 -0.21 2.07 2.07 0 0 1 0.82 0 0.73 0.73 0 0 1 0.26 0.11c0.75 0.53 1.26 0.28 1.58 1.68a2.76 2.76 0 0 1 -0.25 2.01Z" fill="#020202" stroke-width="1"></path>
    <path d="M13.35 9.14a0.3 0.3 0 0 0 0.35 -0.24 4.12 4.12 0 0 1 0.91 -1.62 1.82 1.82 0 0 1 1.39 -0.6 2.18 2.18 0 0 1 1.69 0.64 3.17 3.17 0 0 1 0.88 1.78 0.34 0.34 0 0 0 0.36 0.32 0.34 0.34 0 0 0 0.32 -0.35 3.81 3.81 0 0 0 -0.84 -2.41A3.11 3.11 0 0 0 16 5.54a2.67 2.67 0 0 0 -1.83 0.77 4.53 4.53 0 0 0 -1.09 2.48 0.3 0.3 0 0 0 0.27 0.35Z" fill="#020202" stroke-width="1"></path>
  </g>
</svg>