<svg xmlns="http://www.w3.org/2000/svg" viewBox="0 0 24 24" id="Smiley-Disapointed--Streamline-Freehand">
  <desc>
    Smiley Disapointed Streamline Icon: https://streamlinehq.com
  </desc>
  <g>
    <path d="M6.4 7.63c0.23 -0.14 0.45 -0.3 0.66 -0.45 0.67 -0.48 1.22 -0.93 1.48 -1.12a0.34 0.34 0 1 0 -0.33 -0.59c-0.31 0.13 -1 0.41 -1.71 0.79 -0.23 0.12 -0.47 0.24 -0.7 0.38s-0.46 0.29 -0.67 0.44C4.52 7.52 4 8 3.66 8.24a0.3 0.3 0 0 0 -0.11 0.41 0.3 0.3 0 0 0 0.45 0.11c0.37 -0.16 1 -0.4 1.7 -0.76 0.23 -0.1 0.47 -0.23 0.7 -0.37Z" fill="#020202" stroke-width="1"></path>
    <path d="M17 7.25c0.21 0.18 0.44 0.35 0.67 0.51s0.47 0.33 0.71 0.48c0.57 0.36 1.15 0.69 1.7 1a0.35 0.35 0 0 0 0.48 -0.06 0.34 0.34 0 0 0 -0.06 -0.48c-0.48 -0.45 -1 -0.93 -1.48 -1.37 -0.22 -0.19 -0.44 -0.37 -0.67 -0.54s-0.47 -0.33 -0.71 -0.48c-0.61 -0.36 -1.22 -0.65 -1.79 -0.94a0.31 0.31 0 0 0 -0.42 0.08 0.3 0.3 0 0 0 0.08 0.42c0.49 0.46 0.98 0.93 1.49 1.38Z" fill="#020202" stroke-width="1"></path>
    <path d="M4.47 11.3a4.37 4.37 0 0 0 2 0.4 2.93 2.93 0 0 0 0.88 -0.18 2.94 2.94 0 0 0 0.81 -0.41 3.37 3.37 0 0 0 1.28 -1.65 0.34 0.34 0 0 0 -0.17 -0.46 0.34 0.34 0 0 0 -0.45 0.16 2.74 2.74 0 0 1 -1.21 1 4.35 4.35 0 0 1 -0.63 0.25 6.36 6.36 0 0 1 -0.66 0.18 4.26 4.26 0 0 1 -1.67 0.11 0.32 0.32 0 0 0 -0.38 0.21 0.31 0.31 0 0 0 0.2 0.39Z" fill="#020202" stroke-width="1"></path>
    <path d="M15.05 9a0.29 0.29 0 0 0 -0.21 0.37 3.64 3.64 0 0 0 0.72 1.85 2.56 2.56 0 0 0 0.68 0.59 3.06 3.06 0 0 0 0.8 0.36 6.3 6.3 0 0 0 1.89 0.21 0.33 0.33 0 0 0 0.37 -0.3 0.34 0.34 0 0 0 -0.3 -0.38 5.76 5.76 0 0 1 -2.14 -0.86c-0.17 -0.12 -0.34 -0.24 -0.5 -0.37a3.47 3.47 0 0 1 -0.94 -1.26 0.31 0.31 0 0 0 -0.37 -0.21Z" fill="#020202" stroke-width="1"></path>
    <path d="M9.44 17.16c0.56 0.06 1.09 0.16 1.64 0.22l0.69 0 0.7 0c0.54 0 1.08 -0.05 1.64 -0.06a0.34 0.34 0 0 0 0.38 -0.3 0.35 0.35 0 0 0 -0.3 -0.38c-0.57 -0.13 -1.11 -0.26 -1.66 -0.34l-0.72 -0.06a5.77 5.77 0 0 0 -0.72 0 16.75 16.75 0 0 0 -1.68 0.27 0.31 0.31 0 1 0 0 0.61Z" fill="#020202" stroke-width="1"></path>
    <path d="M23.87 10a13.16 13.16 0 0 0 -0.69 -3 10 10 0 0 0 -3.38 -4.5A10.74 10.74 0 0 0 14.63 0.43a0.36 0.36 0 0 0 -0.39 0.3 0.35 0.35 0 0 0 0.3 0.38 9.92 9.92 0 0 1 4.79 2.05 9.13 9.13 0 0 1 3 4.18 12.83 12.83 0 0 1 0.67 2.79A16.14 16.14 0 0 1 23 13a10.47 10.47 0 0 1 -0.65 2.75 12.29 12.29 0 0 1 -1.29 2.53 9.64 9.64 0 0 1 -4.51 3.5 12.57 12.57 0 0 1 -5.74 0.85 12 12 0 0 1 -3.16 -0.71 9.45 9.45 0 0 1 -2.77 -1.6A11.58 11.58 0 0 1 1.1 13.2a10.67 10.67 0 0 1 1.78 -7.87A11.65 11.65 0 0 1 6 2.36 9.3 9.3 0 0 1 10.07 1c0.71 -0.07 1.42 -0.13 2.12 -0.13a9.4 9.4 0 0 1 1.4 0.09 0.3 0.3 0 1 0 0.09 -0.59A10.7 10.7 0 0 0 12.2 0.19c-0.73 0 -1.46 0 -2.19 0.09a10.23 10.23 0 0 0 -4.39 1.44 12.58 12.58 0 0 0 -3.42 3.1 11.49 11.49 0 0 0 -2.09 8.51 12.56 12.56 0 0 0 4.05 7.85A10.47 10.47 0 0 0 7.26 23a13.59 13.59 0 0 0 3.48 0.78 13.79 13.79 0 0 0 6.26 -0.96 10.58 10.58 0 0 0 4.95 -4 13.16 13.16 0 0 0 1.37 -2.76 11.58 11.58 0 0 0 0.65 -3 16.41 16.41 0 0 0 -0.1 -3.06Z" fill="#4C57E6" stroke-width="1"></path>
  </g>
</svg>