<svg xmlns="http://www.w3.org/2000/svg" viewBox="0 0 24 24" id="Smiley-Sick-Contageous--Streamline-Freehand">
  <desc>
    Smiley Sick Contageous Streamline Icon: https://streamlinehq.com
  </desc>
  <g>
    <path d="M9.17 5.59a5.9 5.9 0 0 0 -2.1 0.68 3.94 3.94 0 0 0 -0.77 0.57 4 4 0 0 0 -0.63 0.73 8 8 0 0 0 -1 1.93 0.34 0.34 0 0 0 0.62 0.3A9.47 9.47 0 0 1 6.5 8.25c0.19 -0.2 0.38 -0.38 0.58 -0.56a7.34 7.34 0 0 1 0.6 -0.51 6.84 6.84 0 0 1 1.64 -1 0.3 0.3 0 0 0 -0.15 -0.59Z" fill="#020202" stroke-width="1"></path>
    <path d="M16.71 7c0.22 0.16 0.43 0.32 0.64 0.5a6.66 6.66 0 0 1 0.62 0.56 8.16 8.16 0 0 1 1.27 1.55 0.34 0.34 0 0 0 0.45 0.16 0.34 0.34 0 0 0 0.17 -0.45 7.41 7.41 0 0 0 -1.08 -2 4.64 4.64 0 0 0 -0.68 -0.72 4.13 4.13 0 0 0 -3.12 -1 0.3 0.3 0 1 0 0 0.6 4.09 4.09 0 0 1 1.73 0.8Z" fill="#020202" stroke-width="1"></path>
    <path d="M16.39 15.44c-1 -0.1 -1.93 -0.22 -2.91 -0.28l-1.26 0 -1.25 0c-1 0.06 -2 0.21 -2.92 0.35a0.3 0.3 0 1 0 0 0.6c0.95 0 1.92 0.11 2.9 0.14l1.23 0 1.24 0c1 0 1.94 -0.09 2.9 -0.11a0.35 0.35 0 0 0 0.36 -0.33 0.35 0.35 0 0 0 -0.29 -0.37Z" fill="#020202" stroke-width="1"></path>
    <path d="M16 19c-0.46 0 -1.54 -0.1 -2.77 -0.17l-1.19 -0.05 -1.2 0c-1.3 0 -2.41 0.15 -2.8 0.16a0.3 0.3 0 0 0 -0.32 0.29 0.31 0.31 0 0 0 0.28 0.27c0.4 0.05 1.51 0.23 2.81 0.33 0.39 0 0.8 0.05 1.21 0.05l1.2 0c1.26 -0.05 2.37 -0.16 2.84 -0.23a0.34 0.34 0 0 0 0.31 -0.37A0.33 0.33 0 0 0 16 19Z" fill="#020202" stroke-width="1"></path>
    <g>
      <path d="M1.79 15.69a12.64 12.64 0 0 1 -0.67 -2.5 14.19 14.19 0 0 1 1.76 -7.86A11.65 11.65 0 0 1 6 2.36 9.25 9.25 0 0 1 10.07 1c0.71 -0.07 1.41 -0.13 2.12 -0.13a11 11 0 0 1 1.4 0.09 0.3 0.3 0 0 0 0.34 -0.25 0.29 0.29 0 0 0 -0.25 -0.34A10.7 10.7 0 0 0 12.2 0.19a20 20 0 0 0 -2.2 0.09 10.23 10.23 0 0 0 -4.38 1.44 12.44 12.44 0 0 0 -3.42 3.1 11.49 11.49 0 0 0 -2.09 8.51 12.56 12.56 0 0 0 4.05 7.85A10.47 10.47 0 0 0 7.26 23a13.59 13.59 0 0 0 3.48 0.78 13.79 13.79 0 0 0 6.26 -0.96 10.62 10.62 0 0 0 4.95 -4 13.48 13.48 0 0 0 1.37 -2.77 11.58 11.58 0 0 0 0.65 -3 16.41 16.41 0 0 0 -0.1 -3 14.11 14.11 0 0 0 -0.69 -3 9.93 9.93 0 0 0 -3.38 -4.5A10.74 10.74 0 0 0 14.63 0.43a0.36 0.36 0 0 0 -0.39 0.3 0.35 0.35 0 0 0 0.3 0.38 10 10 0 0 1 4.8 2.05 9.18 9.18 0 0 1 3 4.18l0.46 1.85c0.06 0.79 0.36 4.51 -0.45 6.55l-1.3 2.53a9.72 9.72 0 0 1 -4.51 3.5 12.57 12.57 0 0 1 -5.74 0.85 12 12 0 0 1 -3.16 -0.71 9.45 9.45 0 0 1 -2.77 -1.6 9.66 9.66 0 0 1 -3.08 -4.62Z" fill="#4C57E6" stroke-width="1"></path>
      <path d="M21.08 10.43a5.8 5.8 0 0 0 -0.55 0.56 8 8 0 0 0 -0.82 1.1 0.84 0.84 0 0 0 -0.25 -0.11 10.28 10.28 0 0 0 -1.86 -0.3c-1.55 -0.15 -3.63 -0.24 -4.63 -0.25 -1.18 0 -3.81 0.07 -5.78 0.29a10 10 0 0 0 -2.36 0.5 12.23 12.23 0 0 0 -1 -1.11 6.91 6.91 0 0 0 -0.57 -0.51 6.5 6.5 0 0 0 -0.61 -0.46c-0.27 -0.18 -0.52 -0.35 -0.76 -0.49 -0.44 0 -0.89 0 -0.14 1.11L2 11c0.18 0.17 0.36 0.34 0.56 0.5s0.39 0.32 0.58 0.47c0.43 0.3 0.83 0.55 1.12 0.75a3.56 3.56 0 0 0 -0.44 0.92 8.16 8.16 0 0 0 -0.32 1.86 14 14 0 0 0 0 1.56c-0.16 1.79 0.25 1.74 0.8 1.15a24.26 24.26 0 0 1 0 -2.64 7.43 7.43 0 0 1 0.36 -1.63 2.23 2.23 0 0 1 0.5 -0.82 0.74 0.74 0 0 1 0.28 -0.12 12.21 12.21 0 0 1 1.86 -0.2c1.93 -0.16 4.51 -0.23 5.67 -0.22 0.85 0 2.48 0 3.9 0.12 0.82 0.05 2.49 0.11 2.55 0.35a12.36 12.36 0 0 1 0.28 2 26.13 26.13 0 0 1 0.05 3.17c0.21 0.64 0.5 0.48 0.83 -0.74l0 -2.47a7.8 7.8 0 0 0 -0.15 -1.69 2.68 2.68 0 0 0 -0.27 -0.68c0.27 -0.24 0.69 -0.54 1.12 -0.89 0.19 -0.16 0.38 -0.32 0.57 -0.5l0.27 -0.26c0.75 -1.21 0.57 -1.52 -0.19 -1.26l-0.25 0.18a6.89 6.89 0 0 0 -0.6 0.52Z" fill="#020202" stroke-width="1"></path>
    </g>
  </g>
</svg>