<svg xmlns="http://www.w3.org/2000/svg" viewBox="0 0 24 24" id="Smiley-Silent--Streamline-Freehand">
  <desc>
    Smiley Silent Streamline Icon: https://streamlinehq.com
  </desc>
  <g>
    <path d="M23.87 10a13.16 13.16 0 0 0 -0.69 -3 9.93 9.93 0 0 0 -3.38 -4.5A10.74 10.74 0 0 0 14.63 0.43a0.36 0.36 0 0 0 -0.39 0.3 0.35 0.35 0 0 0 0.3 0.38 9.92 9.92 0 0 1 4.79 2.05 9.13 9.13 0 0 1 3 4.18 12.83 12.83 0 0 1 0.67 2.79A16.14 16.14 0 0 1 23 13a10.47 10.47 0 0 1 -0.65 2.75 12.29 12.29 0 0 1 -1.29 2.53 9.64 9.64 0 0 1 -4.51 3.5 12.57 12.57 0 0 1 -5.74 0.85 12 12 0 0 1 -3.16 -0.71 9.45 9.45 0 0 1 -2.77 -1.6A11.53 11.53 0 0 1 1.1 13.2a10.67 10.67 0 0 1 1.78 -7.87A11.65 11.65 0 0 1 6 2.36 9.3 9.3 0 0 1 10.07 1c0.71 -0.07 1.41 -0.13 2.12 -0.13a9.4 9.4 0 0 1 1.4 0.09 0.3 0.3 0 1 0 0.09 -0.59A10.7 10.7 0 0 0 12.2 0.19c-0.73 0 -1.46 0 -2.19 0.09a10.23 10.23 0 0 0 -4.39 1.44 12.58 12.58 0 0 0 -3.42 3.1 11.49 11.49 0 0 0 -2.09 8.51 12.56 12.56 0 0 0 4.05 7.85A10.47 10.47 0 0 0 7.26 23a13.59 13.59 0 0 0 3.48 0.78 13.79 13.79 0 0 0 6.26 -0.96 10.58 10.58 0 0 0 4.95 -4 13.16 13.16 0 0 0 1.37 -2.76 11.58 11.58 0 0 0 0.65 -3 16.41 16.41 0 0 0 -0.1 -3.06Z" fill="#4C57E6" stroke-width="1"></path>
    <path d="M8.26 6.31a1.74 1.74 0 0 0 -1.66 0.13c-1 0.6 -1.61 2.18 -0.46 3A2.07 2.07 0 0 0 9 8.61a1.78 1.78 0 0 0 -0.74 -2.3Z" fill="#020202" stroke-width="1"></path>
    <path d="M15.72 9.42a1.69 1.69 0 0 0 2.57 -1.23 1.7 1.7 0 0 0 -0.85 -1.82c-1.7 -0.73 -3.38 1.13 -2.34 2.53a1.73 1.73 0 0 0 0.62 0.52Z" fill="#020202" stroke-width="1"></path>
    <path d="m12.29 14.59 -0.51 -0.48c-1.17 -1 -2.23 -1.88 -2.6 -2.23a0.31 0.31 0 0 0 -0.43 0 0.3 0.3 0 0 0 0 0.43c0.35 0.44 1.37 1.67 2.61 3l0.12 0.12c-0.29 0.29 -0.57 0.58 -0.84 0.89a25.34 25.34 0 0 0 -2 2.65 0.34 0.34 0 1 0 0.55 0.41q0.57 -0.67 1.26 -1.35c0.43 -0.43 0.89 -0.85 1.34 -1.28l0.53 -0.52 0.76 0.71c1.05 1 2.05 1.83 2.59 2.37a0.34 0.34 0 0 0 0.48 0 0.35 0.35 0 0 0 0 -0.49c-0.47 -0.6 -1.3 -1.58 -2.26 -2.62l-0.79 -0.81c0.93 -0.94 1.78 -1.88 2.58 -2.67a0.3 0.3 0 1 0 -0.39 -0.46c-0.81 0.6 -1.73 1.25 -2.63 2 -0.13 0.1 -0.25 0.22 -0.37 0.33Z" fill="#020202" stroke-width="1"></path>
  </g>
</svg>