<svg xmlns="http://www.w3.org/2000/svg" viewBox="0 0 24 24" id="Smiley-Smile-2--Streamline-Freehand">
  <desc>
    Smiley Smile 2 Streamline Icon: https://streamlinehq.com
  </desc>
  <g>
    <path d="M23.87 10a13.16 13.16 0 0 0 -0.69 -3 10 10 0 0 0 -3.38 -4.5A10.74 10.74 0 0 0 14.63 0.43a0.36 0.36 0 0 0 -0.39 0.3 0.35 0.35 0 0 0 0.3 0.38 10 10 0 0 1 4.8 2.05 9.18 9.18 0 0 1 3 4.18 12.83 12.83 0 0 1 0.66 2.79A16.13 16.13 0 0 1 23 13a10.47 10.47 0 0 1 -0.65 2.75 12.29 12.29 0 0 1 -1.29 2.53 9.64 9.64 0 0 1 -4.51 3.5 12.57 12.57 0 0 1 -5.74 0.85 12 12 0 0 1 -3.16 -0.71 9.45 9.45 0 0 1 -2.77 -1.6A11.58 11.58 0 0 1 1.1 13.2a10.67 10.67 0 0 1 1.78 -7.87A11.65 11.65 0 0 1 6 2.36 9.3 9.3 0 0 1 10.07 1c0.71 -0.07 1.42 -0.13 2.12 -0.13a9.4 9.4 0 0 1 1.4 0.09 0.3 0.3 0 1 0 0.09 -0.59A10.7 10.7 0 0 0 12.2 0.19c-0.73 0 -1.46 0 -2.19 0.09a10.23 10.23 0 0 0 -4.39 1.44 12.58 12.58 0 0 0 -3.42 3.1 11.49 11.49 0 0 0 -2.09 8.51 12.56 12.56 0 0 0 4.05 7.85A10.47 10.47 0 0 0 7.26 23a13.59 13.59 0 0 0 3.48 0.78 13.79 13.79 0 0 0 6.26 -0.96 10.58 10.58 0 0 0 4.95 -4 13.16 13.16 0 0 0 1.37 -2.76 11.58 11.58 0 0 0 0.65 -3 16.41 16.41 0 0 0 -0.1 -3.06Z" fill="#4C57E6" stroke-width="1"></path>
    <path d="M6.14 9.41A2.07 2.07 0 0 0 9 8.61a1.78 1.78 0 0 0 -0.74 -2.3 1.74 1.74 0 0 0 -1.66 0.13C5.64 7 5 8.62 6.14 9.41Z" fill="#020202" stroke-width="1"></path>
    <path d="M15.72 9.42a1.69 1.69 0 0 0 2.57 -1.23 1.7 1.7 0 0 0 -0.84 -1.82c-1.71 -0.73 -3.39 1.13 -2.35 2.53a1.73 1.73 0 0 0 0.62 0.52Z" fill="#020202" stroke-width="1"></path>
    <path d="M9.33 18.52a6 6 0 0 1 -1.68 -1.05 5.36 5.36 0 0 1 -1.76 -4.56 0.3 0.3 0 0 0 -0.26 -0.33 0.3 0.3 0 0 0 -0.34 0.26A6.09 6.09 0 0 0 7 18.16a6.55 6.55 0 0 0 1.91 1.37 6.91 6.91 0 0 0 3.46 0.58 8 8 0 0 0 5 -2.54 7.05 7.05 0 0 0 1.91 -5.15 0.33 0.33 0 0 0 -0.35 -0.33 0.34 0.34 0 0 0 -0.33 0.35 6.25 6.25 0 0 1 -1.93 4.46 7 7 0 0 1 -4.43 2.1 6 6 0 0 1 -2.91 -0.48Z" fill="#020202" stroke-width="1"></path>
  </g>
</svg>