<svg xmlns="http://www.w3.org/2000/svg" viewBox="0 0 24 24" id="Sofa-Modern--Streamline-Freehand">
  <desc>
    Sofa Modern Streamline Icon: https://streamlinehq.com
  </desc>
  <g>
    <path d="M11.32 10.34a7.47 7.47 0 0 0 0 -1.16 2.09 2.09 0 0 0 -0.3 -0.91 1.88 1.88 0 0 0 -1.09 -0.77 13.4 13.4 0 0 0 -2.44 -0.06 4.78 4.78 0 0 0 -1.12 0 1.53 1.53 0 0 0 -0.37 0.15c-0.72 0.48 -1 1.37 0.24 0.94l0.09 -0.1c0.1 -0.07 0.26 0 0.41 0s0.51 0.06 0.68 0.08c0.57 0 1.33 -0.07 2 0a1.07 1.07 0 0 1 0.79 0.38 1 1 0 0 1 0.18 0.45 7.15 7.15 0 0 1 0.06 1l0.07 1.66c0 2.09 0.73 1.27 0.76 0Z" fill="#4C57E6" fill-rule="evenodd" stroke-width="1"></path>
    <path d="M16.28 8.47c0.17 0 0.43 -0.07 0.68 -0.08s0.31 0 0.41 0a3.74 3.74 0 0 1 0.58 0.4c1.29 0.54 1.31 -0.34 -0.07 -1.13a1.35 1.35 0 0 0 -0.56 -0.23 4.78 4.78 0 0 0 -1.12 0 13.4 13.4 0 0 0 -2.44 0.06 1.88 1.88 0 0 0 -1.11 0.77 2.09 2.09 0 0 0 -0.3 0.91 7.47 7.47 0 0 0 0 1.16l0 1.66c0.08 1.88 0.74 1.57 0.76 0l0.09 -1.67a7.15 7.15 0 0 1 0.06 -1 1 1 0 0 1 0.19 -0.45 1 1 0 0 1 0.78 -0.38c0.77 -0.09 1.48 0.03 2.05 -0.02Z" fill="#4C57E6" fill-rule="evenodd" stroke-width="1"></path>
    <path d="M23.73 8.19a3.87 3.87 0 0 0 -2.5 -1.44 2.11 2.11 0 0 0 -2 0.75 3.12 3.12 0 0 0 -0.27 0.43c-0.13 0.5 -0.86 3.63 -1 4a1.84 1.84 0 0 1 -1.16 1.14c-2 0.73 -9.09 0.32 -10.28 -0.23a1.16 1.16 0 0 1 -0.52 -0.47 2.63 2.63 0 0 1 -0.22 -0.55v-0.06a5.69 5.69 0 0 1 -0.18 -0.86c-0.19 -1 -0.45 -2.3 -0.48 -2.47a2.38 2.38 0 0 0 -1 -1.17A2.3 2.3 0 0 0 2.86 7c0 -0.17 -0.07 -0.34 -0.09 -0.51s0 -0.47 -0.06 -0.71a2.41 2.41 0 0 1 0.72 -2 7.16 7.16 0 0 1 3.33 -1 23.37 23.37 0 0 1 4.35 -0.37 33.76 33.76 0 0 1 4.4 0.25 18.53 18.53 0 0 1 2.94 0.41 3.61 3.61 0 0 1 1.55 0.86 1.27 1.27 0 0 1 0.39 0.77 9.23 9.23 0 0 1 0 1.58 0.32 0.32 0 0 0 0.32 0.32 0.32 0.32 0 0 0 0.32 -0.31 14 14 0 0 0 0.05 -1.7 2.07 2.07 0 0 0 -0.55 -1.18 4.3 4.3 0 0 0 -1.89 -1.13 18.28 18.28 0 0 0 -3.05 -0.57 29.66 29.66 0 0 0 -4.53 -0.36 22.39 22.39 0 0 0 -4.55 0.48c-1.45 0.34 -2.83 0.61 -3.65 1.4a3.07 3.07 0 0 0 -0.83 2.59 6.17 6.17 0 0 0 0.08 0.62 6.39 6.39 0 0 0 0.13 0.63 3.86 3.86 0 0 0 -0.66 0.2A2.33 2.33 0 0 0 0 9.09a5.27 5.27 0 0 0 0.4 2.16 23.37 23.37 0 0 0 1.4 2.83 0.29 0.29 0 0 0 0.38 0.11 0.27 0.27 0 0 0 0.11 -0.38A21.25 21.25 0 0 1 1 11a4.77 4.77 0 0 1 -0.33 -1.9c0 -0.57 0.61 -1 1.23 -1.22a2.28 2.28 0 0 1 1.81 0A1.75 1.75 0 0 1 4.48 9c0.38 1.22 0.18 2.8 0.75 3.84a2.07 2.07 0 0 0 0.91 0.82 5.29 5.29 0 0 0 1.54 0.34c1.16 0.17 2.41 0.35 3.65 0.42a16 16 0 0 0 2.5 0 14.74 14.74 0 0 0 3.33 -0.4A2.82 2.82 0 0 0 19 12.27c0.34 -0.94 0.35 -2.09 0.64 -3.1a2.73 2.73 0 0 1 0.48 -1 1.24 1.24 0 0 1 1.36 -0.3 2.76 2.76 0 0 1 1.43 0.93 1 1 0 0 1 0 0.75 6.22 6.22 0 0 1 -0.36 1.06 15.13 15.13 0 0 1 -1.83 3.66 8.45 8.45 0 0 1 -3 2.56 27.73 27.73 0 0 1 -9.39 0.76c-2.36 -0.26 -4.47 -1 -5.2 -2.69a0.32 0.32 0 1 0 -0.58 0.25 3.83 3.83 0 0 0 1.18 1.53c0 0.66 -0.05 1.31 -0.05 2s0 1.35 0.07 2a8.9 8.9 0 0 0 0.15 1.1 1.58 1.58 0 0 0 0.3 0.61 0.82 0.82 0 0 0 1 0.18 3.21 3.21 0 0 0 1 -0.83 4.26 4.26 0 0 0 0.6 -1.59 13 13 0 0 0 0.13 -2.05c0.43 0.09 0.86 0.17 1.31 0.23a30.16 30.16 0 0 0 7.86 -0.24 13 13 0 0 0 0.13 2.06 4.1 4.1 0 0 0 0.6 1.59 3.15 3.15 0 0 0 1 0.83 0.83 0.83 0 0 0 1 -0.18 1.45 1.45 0 0 0 0.29 -0.61 7.33 7.33 0 0 0 0.15 -1.1c0.05 -0.68 0.07 -1.36 0.08 -2s0 -1.12 -0.05 -1.69a9.27 9.27 0 0 0 2.24 -2.1 15.94 15.94 0 0 0 2 -3.85A5.59 5.59 0 0 0 24 9.2a1.63 1.63 0 0 0 -0.27 -1.01ZM5.91 20a3 3 0 0 1 -0.57 1.18 3.37 3.37 0 0 1 -0.43 0.44 1.17 1.17 0 0 1 0 -0.2c-0.07 -0.29 -0.1 -0.62 -0.13 -0.83q-0.18 -1 -0.3 -1.95c-0.06 -0.49 -0.1 -1 -0.14 -1.48a7.92 7.92 0 0 0 1.94 0.82A11.94 11.94 0 0 1 5.91 20Zm12.58 -1.36c-0.08 0.65 -0.18 1.3 -0.29 1.95 0 0.21 -0.06 0.54 -0.13 0.83 0 0.07 0 0.14 -0.05 0.2a3.37 3.37 0 0 1 -0.43 -0.44A3.18 3.18 0 0 1 17 20a13.78 13.78 0 0 1 -0.31 -2 8 8 0 0 0 1.37 -0.33c0.2 -0.1 0.36 -0.2 0.54 -0.31q-0.04 0.64 -0.11 1.23Z" fill="#020202" fill-rule="evenodd" stroke-width="1"></path>
  </g>
</svg>