<svg xmlns="http://www.w3.org/2000/svg" viewBox="0 0 24 24" id="Spa-Liquid-Scent--Streamline-Freehand">
  <desc>
    Spa Liquid Scent Streamline Icon: https://streamlinehq.com
  </desc>
  <g>
    <path d="M10.16 5.19A1.52 1.52 0 0 1 10 6.3a0.33 0.33 0 0 0 0.11 0.46 0.34 0.34 0 0 0 0.47 -0.11A2.16 2.16 0 0 0 11.05 5a4.08 4.08 0 0 0 -0.78 -1.7 6.52 6.52 0 0 1 -0.48 -0.76 2.53 2.53 0 0 1 -0.19 -0.48 1.06 1.06 0 0 1 0.06 -0.73 6.24 6.24 0 0 1 0.52 -0.85 0.29 0.29 0 0 0 0 -0.42 0.29 0.29 0 0 0 -0.42 0 4.9 4.9 0 0 0 -0.9 1 1.86 1.86 0 0 0 -0.25 1.08A3.69 3.69 0 0 0 9.34 4a4.32 4.32 0 0 1 0.82 1.19Z" fill="#4C57E6" fill-rule="evenodd" stroke-width="1"></path>
    <path d="M14.23 3.87a10.82 10.82 0 0 1 0.88 1 1.17 1.17 0 0 1 0.24 0.62 2.23 2.23 0 0 1 -0.1 0.8 0.33 0.33 0 0 0 0.2 0.44 0.34 0.34 0 0 0 0.44 -0.2 3 3 0 0 0 0.3 -1.25 2 2 0 0 0 -0.19 -0.96 6.47 6.47 0 0 0 -0.89 -1.21 4.81 4.81 0 0 1 -0.72 -1 1.09 1.09 0 0 1 -0.09 -0.82 1 1 0 0 1 0.13 -0.29c0.08 -0.13 0.17 -0.26 0.26 -0.38a0.3 0.3 0 0 0 0 -0.42 0.31 0.31 0 0 0 -0.43 0 6.09 6.09 0 0 0 -0.44 0.44 2 2 0 0 0 -0.26 0.38 1.78 1.78 0 0 0 -0.16 1.51 3.57 3.57 0 0 0 0.83 1.34Z" fill="#4C57E6" fill-rule="evenodd" stroke-width="1"></path>
    <path d="M13.92 18.5c-0.13 -0.23 -0.25 -0.74 -0.35 -0.91a3.63 3.63 0 0 0 -1.11 -1.17 2.54 2.54 0 0 0 -1.09 -0.42 0.65 0.65 0 0 0 -0.68 0.59l0 1.31a3.07 3.07 0 0 1 -0.29 0.9 2.48 2.48 0 0 1 -0.58 0.69 1.08 1.08 0 0 1 -0.54 0.28 0.58 0.58 0 0 1 -0.47 -0.1c-0.11 -0.08 -0.24 -0.27 -0.37 -0.38a0.72 0.72 0 0 0 -0.28 -0.16 0.48 0.48 0 0 0 -0.46 0.09 2.52 2.52 0 0 0 -0.39 0.61 3 3 0 0 0 -0.25 1 2.74 2.74 0 0 0 0.16 1.06A2.44 2.44 0 0 0 8 23a4.88 4.88 0 0 0 1.75 0.72 9.24 9.24 0 0 0 2 0.24 12.19 12.19 0 0 0 2 -0.07 7.38 7.38 0 0 0 1.06 -0.22 2.24 2.24 0 0 0 0.74 -0.37 3.45 3.45 0 0 0 1.22 -1.56 3.84 3.84 0 0 0 0.2 -2 6.74 6.74 0 0 0 -1.24 -2.2 0.75 0.75 0 0 0 -0.92 -0.22c-0.13 0.08 -0.6 0.88 -0.91 1.13Zm2 2.93a2.66 2.66 0 0 1 -0.92 1.19 1.63 1.63 0 0 1 -0.47 0.25 7.17 7.17 0 0 1 -0.94 0.23 11.46 11.46 0 0 1 -1.86 0.14 8.18 8.18 0 0 1 -1.84 -0.15 5 5 0 0 1 -1.27 -0.51 1.69 1.69 0 0 1 -0.73 -0.94 2.05 2.05 0 0 1 -0.07 -0.74 2 2 0 0 1 0.18 -0.62l0.19 0.13a1.52 1.52 0 0 0 1.17 0.32 2.11 2.11 0 0 0 1 -0.45 3.27 3.27 0 0 0 0.86 -1 4 4 0 0 0 0.45 -1.18c0 -0.11 -0.05 -0.53 -0.06 -0.87a2.1 2.1 0 0 1 0.33 0.22 2.39 2.39 0 0 1 0.6 0.68c0.14 0.25 0.35 0.74 0.53 1a1.12 1.12 0 0 0 0.47 0.41 0.77 0.77 0 0 0 0.66 -0.08 5.12 5.12 0 0 0 0.92 -0.9A4.48 4.48 0 0 1 16 20a2.76 2.76 0 0 1 -0.11 1.43Z" fill="#4C57E6" fill-rule="evenodd" stroke-width="1"></path>
    <path d="M22.09 18a9.71 9.71 0 0 0 -1.43 -2.48 9.18 9.18 0 0 0 -2.13 -1.91 4.53 4.53 0 0 0 -0.48 -0.27c-0.22 -0.11 -0.46 -0.21 -0.69 -0.31l0.54 -0.39a6.67 6.67 0 0 0 2.63 -4.16 0.34 0.34 0 0 0 -0.31 -0.37 0.11 0.11 0 0 0 -0.08 0 1.69 1.69 0 0 0 -0.09 -1.44A3.44 3.44 0 0 0 17.79 5a0.35 0.35 0 0 0 -0.4 0.28 0.34 0.34 0 0 0 0.28 0.39 2.7 2.7 0 0 1 1.49 1 1 1 0 0 1 0 1.37 3.75 3.75 0 0 1 -1.37 0.76 15.92 15.92 0 0 1 -2.5 0.56 15 15 0 0 1 -2.53 0.26 20.56 20.56 0 0 1 -2.58 -0.08A17.53 17.53 0 0 1 8 9.34 5.43 5.43 0 0 1 6.74 9 1.47 1.47 0 0 1 6 8.25a0.73 0.73 0 0 1 0.12 -0.83 4.74 4.74 0 0 1 1.24 -1 4.9 4.9 0 0 1 1.5 -0.56 0.3 0.3 0 0 0 0.26 -0.33 0.31 0.31 0 0 0 -0.34 -0.26A5.28 5.28 0 0 0 7 5.81a6 6 0 0 0 -1.5 1.06A1.52 1.52 0 0 0 5 8.13a0.32 0.32 0 0 0 -0.12 0.32 6.87 6.87 0 0 0 3 4.58l0.06 0a8 8 0 0 0 -4 2.26 8.38 8.38 0 0 0 -1.24 1.59 9.62 9.62 0 0 0 -0.87 1.8 9.52 9.52 0 0 0 -0.52 4.6 0.33 0.33 0 0 0 0.37 0.31 0.34 0.34 0 0 0 0.3 -0.37 9.24 9.24 0 0 1 0.85 -4.14 11.86 11.86 0 0 1 1.91 -3.05 7.69 7.69 0 0 1 3.4 -2.43 0.29 0.29 0 0 0 0.21 -0.32 7.93 7.93 0 0 0 2.11 0.83 10.55 10.55 0 0 0 2.78 0.26 8.12 8.12 0 0 0 3.46 -1l0.84 0.48a3.54 3.54 0 0 1 0.49 0.34 9.38 9.38 0 0 1 1.72 1.94A11.84 11.84 0 0 1 21 18.4a10 10 0 0 1 0.84 5.09 0.34 0.34 0 1 0 0.67 0.11 10 10 0 0 0 -0.42 -5.6Zm-8.86 -4.71a9.58 9.58 0 0 1 -3 -0.32 7.39 7.39 0 0 1 -1.83 -0.74A6 6 0 0 1 6 9.63l0.3 0.2a6.38 6.38 0 0 0 1.5 0.54 18 18 0 0 0 2.25 0.33 22.55 22.55 0 0 0 2.7 0.09 15.44 15.44 0 0 0 2.72 -0.34 16.84 16.84 0 0 0 2.62 -0.72 4.55 4.55 0 0 0 1.64 -1s0 0 0.06 -0.07a6 6 0 0 1 -2.47 3.23 7.25 7.25 0 0 1 -4.09 1.37Z" fill="#020202" fill-rule="evenodd" stroke-width="1"></path>
  </g>
</svg>