<svg xmlns="http://www.w3.org/2000/svg" viewBox="0 0 24 24" id="Spa-Lotus-1--Streamline-Freehand">
  <desc>
    Spa Lotus 1 Streamline Icon: https://streamlinehq.com
  </desc>
  <g>
    <path d="M4.62 12.2A5.74 5.74 0 0 0 10 13a4.26 4.26 0 0 0 0.85 0.51 3.6 3.6 0 0 0 1.65 0.34 3.65 3.65 0 0 0 1.59 -0.43l0.12 0.05A6.49 6.49 0 0 0 19.3 13a5.79 5.79 0 0 0 2.34 -4.64 9.18 9.18 0 0 0 -0.08 -1.81 4.39 4.39 0 0 0 -0.38 -1.23 2.82 2.82 0 0 0 -0.43 -0.63 1.15 1.15 0 0 0 -0.59 -0.36 0.63 0.63 0 0 0 -0.32 0 6 6 0 0 0 -0.94 0.34 14.06 14.06 0 0 0 -2.15 1.11 6.48 6.48 0 0 0 -1 0.85l-0.16 0.18a6.29 6.29 0 0 0 -0.3 -0.79c-0.3 -0.61 -0.58 -1.12 -0.87 -1.59C14 3.65 13.47 3 12.9 2.19a0.34 0.34 0 0 0 -0.48 -0.09 0.35 0.35 0 0 0 -0.09 0.47c0.53 0.81 1 1.47 1.4 2.24a16.24 16.24 0 0 1 0.77 1.56 6.52 6.52 0 0 1 0.36 1.19l0 0.13A0.29 0.29 0 0 0 15 8a13.79 13.79 0 0 1 0.2 1.45 3.21 3.21 0 0 1 -0.69 2.24 2.69 2.69 0 0 1 -2 1 2.6 2.6 0 0 1 -1.14 -0.24 3.47 3.47 0 0 1 -1 -0.69 2.77 2.77 0 0 1 -0.75 -1.38 5.64 5.64 0 0 1 -0.13 -1.74 8.59 8.59 0 0 1 0.15 -1.34A5.46 5.46 0 0 1 10 6.07 22 22 0 0 1 11 4a13.23 13.23 0 0 1 1.28 -1.91 0.3 0.3 0 0 0 0 -0.43 0.31 0.31 0 0 0 -0.42 0 13.68 13.68 0 0 0 -1.44 2c-0.44 0.7 -0.84 1.43 -1.17 2.09a6.52 6.52 0 0 0 -0.5 1.15 6.72 6.72 0 0 0 -1.06 -1.21 5.33 5.33 0 0 0 -2.14 -1.25A4.5 4.5 0 0 0 4 4.25a1.14 1.14 0 0 0 -0.86 0.48 4.16 4.16 0 0 0 -0.51 1.08A4.31 4.31 0 0 0 2.44 7a7.81 7.81 0 0 0 0.48 2.83 5.63 5.63 0 0 0 1.7 2.37Zm10.72 0.18a4.21 4.21 0 0 0 0.82 -3 15.36 15.36 0 0 0 -0.36 -1.83l0.42 -0.41a6.13 6.13 0 0 1 1 -0.7 10.51 10.51 0 0 1 1.16 -0.53 12.54 12.54 0 0 1 1.61 -0.54 0.78 0.78 0 0 1 0.1 0.15 2.53 2.53 0 0 1 0.14 0.29A3.7 3.7 0 0 1 20.46 7a7.41 7.41 0 0 1 0 1.33 4.73 4.73 0 0 1 -1.73 3.88 5.4 5.4 0 0 1 -3.88 0.72 3.87 3.87 0 0 0 0.49 -0.55ZM3.73 6.14a3.78 3.78 0 0 1 0.33 -0.83c0.07 -0.1 0.24 -0.06 0.41 -0.06a4.79 4.79 0 0 1 0.84 0.12 4.5 4.5 0 0 1 1.85 0.93 6.46 6.46 0 0 1 1.37 1.56c0 0.24 -0.07 0.49 -0.1 0.74a6.27 6.27 0 0 0 0.17 2.48 3.72 3.72 0 0 0 0.82 1.44 4.85 4.85 0 0 1 -4.14 -1.08A4.8 4.8 0 0 1 4 9.43 7.07 7.07 0 0 1 3.59 7a3.14 3.14 0 0 1 0.14 -0.86Z" fill="#020202" fill-rule="evenodd" stroke-width="1"></path>
    <path d="M23.22 13.69a3.79 3.79 0 0 0 -1.84 -1.61 0.34 0.34 0 1 0 -0.18 0.66 3 3 0 0 1 1.39 1.35 3.57 3.57 0 0 1 0.6 1.89 3.15 3.15 0 0 1 -0.77 1.87 8 8 0 0 1 -2.63 2 12.75 12.75 0 0 1 -3.46 1.13 25.69 25.69 0 0 1 -5.55 0.32 26.18 26.18 0 0 1 -3.43 -0.3 16.31 16.31 0 0 1 -3.29 -0.88 7.81 7.81 0 0 1 -1.55 -0.79 3.92 3.92 0 0 1 -1.17 -1.16 4.59 4.59 0 0 1 -0.55 -1.93 3.53 3.53 0 0 1 0.37 -2 4.55 4.55 0 0 1 0.93 -1 6.26 6.26 0 0 1 1.17 -0.78 0.3 0.3 0 1 0 -0.26 -0.55 6.63 6.63 0 0 0 -1.32 0.81 4.94 4.94 0 0 0 -1.11 1.14A4.25 4.25 0 0 0 0 16.22a5.4 5.4 0 0 0 0.58 2.35 4.51 4.51 0 0 0 1.06 1.24 8.2 8.2 0 0 0 2 1.21 16.39 16.39 0 0 0 3.48 1 25.37 25.37 0 0 0 3.59 0.35 25.59 25.59 0 0 0 5.84 -0.37 13.26 13.26 0 0 0 3.7 -1.34 9 9 0 0 0 2.87 -2.29A4 4 0 0 0 24 16a4.4 4.4 0 0 0 -0.78 -2.31Z" fill="#4C57E6" fill-rule="evenodd" stroke-width="1"></path>
    <path d="M5.87 14.37A0.3 0.3 0 0 0 5.8 14a0.29 0.29 0 0 0 -0.42 0.06 2.86 2.86 0 0 0 -0.28 0.4 3.18 3.18 0 0 0 -0.16 0.32 1.56 1.56 0 0 0 0.31 1.69 5 5 0 0 0 2 1.25 13.48 13.48 0 0 0 2.26 0.68 16.44 16.44 0 0 0 2.34 0.28 17.78 17.78 0 0 0 4.66 -0.46 4 4 0 0 0 2.13 -1.06 2.25 2.25 0 0 0 0.54 -1.59 2.38 2.38 0 0 0 -0.07 -0.59 1.48 1.48 0 0 0 -0.2 -0.42 0.34 0.34 0 1 0 -0.56 0.4 0.53 0.53 0 0 1 0.08 0.25 1.38 1.38 0 0 1 0 0.35 1.42 1.42 0 0 1 -0.62 1.21 3.9 3.9 0 0 1 -1.51 0.5 18.29 18.29 0 0 1 -4.41 0.25c-0.74 0 -1.47 -0.11 -2.19 -0.22a14.93 14.93 0 0 1 -2.15 -0.48 4.17 4.17 0 0 1 -1.72 -0.86 0.92 0.92 0 0 1 -0.26 -1Z" fill="#4C57E6" fill-rule="evenodd" stroke-width="1"></path>
  </g>
</svg>