<svg xmlns="http://www.w3.org/2000/svg" viewBox="0 0 24 24" id="Spa-Sign--Streamline-Freehand">
  <desc>
    Spa Sign Streamline Icon: https://streamlinehq.com
  </desc>
  <g>
    <path d="M23.89 16.27 24 13l-0.11 -2.11 -0.16 -2a4.32 4.32 0 0 0 0 -0.8 0.84 0.84 0 0 0 -0.21 -0.41 1.32 1.32 0 0 0 -0.58 -0.32 4.52 4.52 0 0 0 -1.07 -0.11l-1 0h-1.2l0 -0.48a17.63 17.63 0 0 0 -0.05 -2.18c-0.09 -0.92 -0.26 -1.82 -0.42 -2.71l2.08 0.08c0.48 0 1 -0.09 1.54 -0.09a2.12 2.12 0 0 1 0.57 0.06 0.35 0.35 0 0 0 0.42 -0.24 0.34 0.34 0 0 0 -0.24 -0.42 2.94 2.94 0 0 0 -0.74 -0.11l-1.52 0L17 0.68C15.59 0.59 14.2 0.51 12.8 0.49s-2.8 0 -4.17 0.07a78.87 78.87 0 0 0 -8.3 0.9 0.3 0.3 0 0 0 -0.27 0.33 0.3 0.3 0 0 0 0.34 0.26c1.2 -0.11 2.41 -0.18 3.6 -0.24 0 0.88 -0.06 1.76 0 2.65 0 0.68 0.07 1.37 0.09 2l0.12 1.14c-0.8 0 -1.62 0.07 -2.43 0.16a10 10 0 0 0 -1.47 0.27 0.34 0.34 0 0 0 -0.31 0.46 0.38 0.38 0 0 0 0.09 0.15c0 0.5 0 1 0.07 1.51 0.11 1.32 0.33 2.64 0.39 3.94s0 2.46 0 3.68c0 0.55 0 1.09 0.06 1.63l0.23 2.49 0 0.72a0.74 0.74 0 0 0 0.1 0.39 1.42 1.42 0 0 0 1 0.49 11.86 11.86 0 0 0 1.85 0l7.17 -0.16 8.83 -0.17 1.26 0a7 7 0 0 1 0.8 0 3.92 3.92 0 0 0 0.78 0 1.07 1.07 0 0 0 0.53 -0.2 1.83 1.83 0 0 0 0.61 -0.89 4.91 4.91 0 0 0 0.23 -1.23l0 -1.41c0 -1.05 -0.1 -2.11 -0.11 -3.16ZM7 1.69c1.65 -0.05 3.31 -0.05 5 -0.05s3.31 0 5 0.05l1.63 0.06 0 1.74 0 1.26 0 1.86 0 0.52 -2.33 -0.08c-0.87 0 -1.75 -0.09 -2.63 -0.11s-1.76 0 -2.63 0c-0.6 0 -1.2 0.08 -1.8 0.14 -1.33 0.14 -2.66 0.33 -4 0.45l0 -1.15c0 -0.5 -0.08 -1 -0.14 -1.53 -0.12 -1 -0.28 -2.07 -0.37 -3.11 0.73 0.01 1.5 -0.03 2.27 -0.05Zm15.82 19.07a4.28 4.28 0 0 1 -0.12 0.82 0.86 0.86 0 0 1 -0.22 0.46c0.05 0.17 -0.38 0 -0.53 0l-0.9 0 -1.31 0 -8.83 0.25 -7.15 0.3c-0.32 0 -0.95 0.11 -1.51 0.09a1.24 1.24 0 0 1 -0.54 -0.07c0.15 -0.1 0 -0.62 0 -0.74l-0.28 -2.48c-0.06 -0.52 -0.08 -1 -0.09 -1.55 0 -1.24 0.05 -2.49 0 -3.72s-0.33 -2.64 -0.46 -4a13.53 13.53 0 0 1 -0.17 -1.45 11.62 11.62 0 0 1 1.57 -0.21c0.66 -0.05 1.33 -0.06 2 -0.09 0 0.21 0 0.43 0.09 0.64A13.17 13.17 0 0 0 5 11.5a0.33 0.33 0 0 0 0.42 0.22 0.33 0.33 0 0 0 0.23 -0.42 13.68 13.68 0 0 1 -0.29 -1.92c0 -0.35 0 -0.7 -0.07 -1.06 1.36 -0.09 2.7 -0.26 4.05 -0.38 0.58 -0.05 1.17 -0.09 1.76 -0.11l2.57 0c0.86 0 1.72 0.08 2.58 0.15l2.38 0.12 0 0.28c0.07 0.75 0.2 1.59 0.35 2.58a0.34 0.34 0 0 0 0.37 0.31 0.33 0.33 0 0 0 0.31 -0.37l0 -2.14 0 -0.62 1.19 0 0.95 0 0.63 0a0.66 0.66 0 0 1 0.25 0.06 5 5 0 0 0 0 0.54l0.13 2.11 0.08 2 -0.09 3.34c0 1.06 0.08 2.12 0.1 3.18 -0.05 0.52 -0.05 0.96 -0.08 1.39Z" fill="#020202" fill-rule="evenodd" stroke-width="1"></path>
    <path d="M8.14 16.4a6 6 0 0 0 -1.48 -0.59 1.87 1.87 0 0 1 -1 -0.52 0.29 0.29 0 0 1 0 -0.31 1 1 0 0 1 0.19 -0.32 1.36 1.36 0 0 1 0.81 -0.42 2.87 2.87 0 0 1 1 0.06 0.3 0.3 0 0 0 0.37 -0.21 0.31 0.31 0 0 0 -0.21 -0.38 3.62 3.62 0 0 0 -1.56 -0.17 2.2 2.2 0 0 0 -1 0.48 1.86 1.86 0 0 0 -0.59 1 1.16 1.16 0 0 0 0.16 0.92 2.77 2.77 0 0 0 1.45 1 5.74 5.74 0 0 1 1.22 0.48A1 1 0 0 1 8 18c0.16 0.62 -0.34 0.94 -0.91 1.06a2.37 2.37 0 0 1 -2 -0.36 0.34 0.34 0 0 0 -0.5 0.47 3.3 3.3 0 0 0 3.16 0.65 1.71 1.71 0 0 0 1.3 -2.05 2 2 0 0 0 -0.91 -1.37Z" fill="#4C57E6" fill-rule="evenodd" stroke-width="1"></path>
    <path d="M14.12 12.92a2.37 2.37 0 0 0 -1.4 -0.43 3 3 0 0 0 -1.37 0.31 2.36 2.36 0 0 0 -0.66 0.49 1.73 1.73 0 0 0 -0.35 0.54 1.49 1.49 0 0 0 0 0.82c0.09 0.39 0.32 0.82 0.36 1.1 0.13 1.05 0.12 2.1 0.21 3.16a7.46 7.46 0 0 0 0.1 0.81 0.29 0.29 0 0 0 0.33 0.26 0.31 0.31 0 0 0 0.27 -0.33 11.23 11.23 0 0 1 0 -1.16c0 -0.64 0.07 -1.28 0.09 -1.92l0.87 0a3.89 3.89 0 0 0 0.65 -0.12 3.8 3.8 0 0 0 0.47 -0.18 3 3 0 0 0 0.46 -0.26 1.85 1.85 0 0 0 0 -3.07Zm-0.55 2.35 -0.66 0.37a2.85 2.85 0 0 1 -0.48 0.13c-0.25 0 -0.5 0.05 -0.76 0.08v-0.17l-0.27 -1.45a0.48 0.48 0 0 1 0.16 -0.19 1.3 1.3 0 0 1 0.31 -0.21 2 2 0 0 1 0.85 -0.19 1.28 1.28 0 0 1 0.77 0.19 0.85 0.85 0 0 1 0.42 0.67 1 1 0 0 1 -0.34 0.77Z" fill="#4C57E6" fill-rule="evenodd" stroke-width="1"></path>
    <path d="M19.81 14.86a3.72 3.72 0 0 0 -1.07 -1.06 1 1 0 0 0 -1.1 0 1.78 1.78 0 0 0 -0.62 0.77 5.87 5.87 0 0 0 -0.35 1.08 18.46 18.46 0 0 0 -0.38 1.94c-0.1 0.64 -0.17 1.28 -0.22 1.94a0.3 0.3 0 0 0 0.25 0.34 0.3 0.3 0 0 0 0.34 -0.26c0.13 -0.63 0.27 -1.24 0.44 -1.85a9.2 9.2 0 0 0 1 0.07 4.71 4.71 0 0 0 0.53 0 4.51 4.51 0 0 0 0.53 -0.09l1.06 -0.27 0.15 0.28a4 4 0 0 1 0.43 1.6 0.34 0.34 0 1 0 0.68 0 4.78 4.78 0 0 0 -0.32 -2 11 11 0 0 0 -1.35 -2.49Zm-1.55 -0.06 -0.08 0s0.04 -0.02 0.08 0Zm0.74 1.84a4.87 4.87 0 0 0 -0.54 0 5.07 5.07 0 0 0 -0.54 0.09l-0.57 0.17c0.1 -0.31 0.2 -0.61 0.32 -0.92s0.17 -0.5 0.29 -0.77a1.13 1.13 0 0 1 0.29 -0.43 2.89 2.89 0 0 1 0.24 0.25 3.84 3.84 0 0 1 0.42 0.49 10 10 0 0 1 0.83 1.14c-0.23 0 -0.47 -0.02 -0.74 -0.02Z" fill="#4C57E6" fill-rule="evenodd" stroke-width="1"></path>
  </g>
</svg>