<svg xmlns="http://www.w3.org/2000/svg" viewBox="0 0 24 24" id="Space-Exploration-Spaceship--Streamline-Freehand">
  <desc>
    Space Exploration Spaceship Streamline Icon: https://streamlinehq.com
  </desc>
  <g>
    <path d="M8.65 14.36a2.23 2.23 0 0 0 1.67 -1.31 1.4 1.4 0 0 0 -0.24 -1.5s-1.53 -1.42 -2.89 -0.73a1.43 1.43 0 0 0 -0.66 0.65 2.1 2.1 0 0 0 0.2 2 2 2 0 0 0 1.92 0.89ZM7.3 11.77a0.59 0.59 0 0 1 0.25 -0.33c0.57 -0.4 1.82 0.52 1.88 0.61a0.62 0.62 0 0 1 -0.1 0.77 1.19 1.19 0 0 1 -0.82 0.45 1 1 0 0 1 -0.92 -0.41 1.23 1.23 0 0 1 -0.29 -1.09Z" fill="#020202" fill-rule="evenodd" stroke-width="1"></path>
    <path d="M7.86 8a1.62 1.62 0 0 0 0.31 0l0.3 0c1 -0.22 1 -0.32 1 -0.51s-0.07 -0.37 -1.06 -0.53a1.08 1.08 0 0 0 -0.31 0 1.45 1.45 0 0 0 -0.3 0c-1 0.25 -1 0.44 -1 0.54 0.04 0.27 0.96 0.5 1.06 0.5Z" fill="#020202" fill-rule="evenodd" stroke-width="1"></path>
    <path d="M14.61 6.17a6.51 6.51 0 0 0 -0.85 0 0.58 0.58 0 0 0 -0.36 0.18 2.25 2.25 0 0 0 -0.58 1.16 6.22 6.22 0 0 0 0 1.67l0 0.25a0.81 0.81 0 0 0 0 0.39 0.62 0.62 0 0 0 0.57 0.44 4.42 4.42 0 0 0 0.62 0c0.4 0 0.82 -0.16 1.2 -0.2s0.87 -0.08 1.31 -0.11 0.84 0.07 1.26 0c0.14 0 0.49 0 0.58 -0.16 0.52 -0.66 -1.64 -0.66 -1.86 -0.67 -0.45 0 -0.9 -0.06 -1.35 -0.05s-0.82 0.08 -1.25 0.1a0.58 0.58 0 0 0 0 -0.1 5.84 5.84 0 0 1 0 -1.39c0.16 -1 0.25 -0.53 0.73 -0.56s1 0 1.48 -0.06c0.23 0 0.92 0.21 1 -0.13A0.35 0.35 0 0 0 17 6.6c-0.29 -0.32 -0.79 -0.3 -1.18 -0.33s-0.82 -0.08 -1.21 -0.1Z" fill="#4C57E6" fill-rule="evenodd" stroke-width="1"></path>
    <path d="M22.6 22.15c-0.34 -0.09 -0.65 -0.19 -1 -0.25h-0.1l0 -0.06c-0.15 -0.7 -0.28 -1.4 -0.44 -2.1 -0.06 -0.29 -0.14 -0.59 -0.22 -0.88s-0.18 -0.59 -0.28 -0.87c-0.23 -0.6 -0.49 -1.18 -0.73 -1.76l1.17 -0.08s0.76 -0.39 0.61 -0.74c-0.93 -2.26 -1.53 -4.65 -2.36 -7 -0.22 -0.59 -0.45 -1.17 -0.69 -1.75a15.29 15.29 0 0 0 -1.09 -2.26 2.42 2.42 0 0 0 -1 -0.88 2.29 2.29 0 0 0 -0.78 -0.17 8.31 8.31 0 0 0 -1.06 -1.61A5.39 5.39 0 0 0 11.32 0a4.84 4.84 0 0 0 -2.73 0.51A5 5 0 0 0 5.92 4s0 0 0 0.06c-1.73 0.21 -1 -1.31 -2.8 7.16 -0.12 0.58 -0.24 1.16 -0.34 1.74s-0.34 1.42 -0.44 2.16a4.38 4.38 0 0 0 0 1.08 0.63 0.63 0 0 0 0.49 0.49 7.34 7.34 0 0 0 0.78 0.09A11 11 0 0 0 3 18.46 12.62 12.62 0 0 0 2.66 20c-0.12 0.72 -0.18 1.44 -0.3 2.16h-0.09c-0.31 0.07 -0.57 0.18 -0.88 0.26a0.29 0.29 0 0 0 0 0.58 5.49 5.49 0 0 0 1.07 0.22 2.53 2.53 0 0 0 0.61 -0.06c0.31 -0.05 0.59 -0.16 0.9 -0.22a0.33 0.33 0 0 0 0.33 -0.33 0.32 0.32 0 0 0 -0.3 -0.34 7.08 7.08 0 0 0 -0.9 -0.16c0.25 -0.72 0.49 -1.44 0.67 -2.17 0.12 -0.49 0.23 -1 0.32 -1.49l0.24 -1.34L5.5 19c0.07 0.11 0.29 0.59 0.43 0.77a0.62 0.62 0 0 0 0.26 0.21 5 5 0 0 0 1.25 0.26c0.61 0.06 1.24 0 1.78 0l2.4 0 0 0.58c0 0.69 0.11 1.38 0.13 2.07h-0.14a9.07 9.07 0 0 0 -1.14 0.29 0.29 0.29 0 1 0 0 0.57c0.38 0.06 0.75 0.15 1.14 0.19a3.85 3.85 0 0 0 0.48 0l0.48 0c0.39 -0.05 0.75 -0.12 1.13 -0.18a0.32 0.32 0 0 0 0.34 -0.31 0.34 0.34 0 0 0 -0.32 -0.34 11.05 11.05 0 0 0 -1.15 -0.2h-0.1a19.61 19.61 0 0 0 0.17 -2l0 -0.66 1.88 -0.15 1.92 -0.18 0.53 0a0.86 0.86 0 0 0 0.3 -0.11 3.61 3.61 0 0 0 0.86 -0.88c0.43 -0.58 0.78 -1.27 1.16 -1.83 0.07 0.41 0.14 0.82 0.23 1.22a8.93 8.93 0 0 0 0.23 0.89c0.09 0.29 0.19 0.58 0.29 0.87 0.23 0.62 0.48 1.22 0.73 1.82h-0.06c-0.35 0 -0.66 0.14 -1 0.21a0.28 0.28 0 0 0 -0.29 0.28 0.29 0.29 0 0 0 0.28 0.3c0.34 0.09 0.64 0.2 1 0.26a3 3 0 0 0 0.42 0.05l0.42 0c0.34 0 0.65 -0.09 1 -0.13a0.33 0.33 0 0 0 0.35 -0.3 0.33 0.33 0 0 0 -0.29 -0.42ZM9 1.46a4.62 4.62 0 0 1 2.19 -0.34 5 5 0 0 1 1.47 0.34 4.29 4.29 0 0 1 1.4 0.88A6.6 6.6 0 0 1 15 3.41l-0.82 0c-1 0 -2 0 -3 0.08 -0.67 0 -1.34 0.09 -2 0.17L6.54 4A4.41 4.41 0 0 1 9 1.46Zm2.53 17.6v0.1l-2.35 0.09c-0.52 0 -1.12 0.08 -1.7 0.07a4.85 4.85 0 0 1 -0.88 -0.09c0 -0.17 -0.4 -0.55 -0.47 -0.65l-1.26 -1.76a1.2 1.2 0 0 1 0.19 0c0.62 0 1.23 -0.06 1.84 -0.09 1.34 -0.08 3 -0.14 4.73 -0.2 -0.05 0.84 -0.1 1.68 -0.08 2.53Zm7.52 -2.75c-0.51 0.56 -1 1.41 -1.52 2.08a3 3 0 0 1 -0.64 0.6c0 -0.12 -0.4 0 -0.5 0l-1.93 0.06 -1.85 0.06 0 -0.5c-0.08 -0.71 -0.2 -1.41 -0.29 -2.11l4.46 -0.15 2.43 -0.11s-0.11 0.03 -0.14 0.07Zm-9.39 -0.75c-1 0 -2 0 -2.83 0.07l-3 0.09 -0.47 0a2.72 2.72 0 0 1 0 -0.49c0.08 -0.73 0.28 -1.53 0.36 -2.15s0.2 -1.08 0.28 -1.67C4.38 9.2 4.86 7 5.16 4.79l4.06 -0.26 1.95 0c1 0 2 0 3 0.06 0.35 0 0.84 -0.06 1.31 -0.06a1.48 1.48 0 0 1 0.61 0.08 1.82 1.82 0 0 1 0.68 0.76c0.2 0.35 1.52 3.3 1.59 3.48 0.77 1.87 1.61 4.48 2.61 6.69 -3.05 0.05 -7.61 -0.02 -11.29 0.02Z" fill="#020202" fill-rule="evenodd" stroke-width="1"></path>
  </g>
</svg>