<svg xmlns="http://www.w3.org/2000/svg" viewBox="0 0 24 24" id="Space-Exploration-Spaceship-Parachute--Streamline-Freehand">
  <desc>
    Space Exploration Spaceship Parachute Streamline Icon: https://streamlinehq.com
  </desc>
  <g>
    <path d="M21.16 5.66a9.22 9.22 0 0 0 -3.23 -4.07A10.46 10.46 0 0 0 10.44 0.15a10.9 10.9 0 0 0 -6.7 3.61 9.14 9.14 0 0 0 -1.62 3.47A13.3 13.3 0 0 0 1.79 11a0.28 0.28 0 0 0 0.29 0.28 9.59 9.59 0 0 1 2.13 1.53c0.3 0.29 0.61 0.57 0.93 0.85s0.64 0.54 1 0.81c0.76 0.6 1.56 1.17 2.37 1.73 -0.21 0.57 -0.39 1.14 -0.56 1.72s-0.35 1.29 -0.5 2l-0.21 0.93c0 0.06 -0.09 0.3 -0.1 0.41a0.57 0.57 0 0 0 0.15 0.4 1.2 1.2 0 0 0 0.67 0.29 3.51 3.51 0 0 0 0.58 0l0.64 1.2a4 4 0 0 0 0.17 0.4 0.64 0.64 0 0 0 0.16 0.19 1.24 1.24 0 0 0 0.61 0.23 9.5 9.5 0 0 0 1 0.05l1.57 0c0.57 0 1 -0.08 1.54 -0.13 0.18 0 0.51 0 0.76 -0.05a1.26 1.26 0 0 0 0.52 -0.19 3 3 0 0 0 0.6 -0.67c0.29 -0.45 0.52 -1 0.79 -1.41l0.46 0c0.07 0 0.67 -0.58 0.57 -0.82l-1.26 -3.5a8.77 8.77 0 0 0 -0.42 -1.12c0.62 -0.54 1.27 -1.07 1.92 -1.63l0.82 -0.69c0.27 -0.24 0.54 -0.47 0.8 -0.72 2.6 -2.38 2.5 -2.2 2.49 -2.36a15.84 15.84 0 0 0 -1.12 -5.07ZM5.23 12.25c-0.71 -0.58 -1.46 -1.11 -2.23 -1.65a6.17 6.17 0 0 1 2.83 -2.18 3.75 3.75 0 0 1 3.47 0.44 6.16 6.16 0 0 1 0.8 0.63 8.38 8.38 0 0 1 0.73 0.73c0.1 0.12 0.27 0.44 0.42 0.63a1 1 0 0 0 0.29 0.25c0 0.27 -0.06 0.54 -0.08 0.82a8.61 8.61 0 0 0 0 0.88 8.87 8.87 0 0 0 0.06 0.89c0.07 0.67 0.19 1.33 0.32 2l-0.82 0c-0.65 0 -1.29 0.07 -1.94 0.13a0.38 0.38 0 0 0 -0.11 -0.18c-0.75 -0.68 -1.45 -1.4 -2.18 -2.08 -0.54 -0.42 -1.04 -0.88 -1.56 -1.31Zm10.15 10.2a2.09 2.09 0 0 1 -0.45 0.4l-0.82 0 -3 0.11 -1 0.08c0 -0.1 -0.2 -0.27 -0.25 -0.33l-0.57 -0.79h0.29c1 0 2.42 -0.07 3.87 -0.13 0.89 0 1.77 -0.08 2.55 -0.14 -0.22 0.24 -0.41 0.54 -0.62 0.8Zm1.85 -1.6 -7.7 -0.09a10.8 10.8 0 0 1 -1.29 0.2l0.13 -0.96c0.09 -0.66 0.18 -1.3 0.3 -1.95s0.24 -1.11 0.39 -1.66l4.8 0.28c2.24 -0.13 1.23 -0.27 1.81 0.9Zm1.84 -8.65c-0.3 0.22 -0.59 0.46 -0.86 0.7s-0.55 0.51 -0.8 0.77c-0.6 0.63 -1.14 1.29 -1.69 1.93a1.31 1.31 0 0 0 -0.5 -0.09c-0.43 0 -1.07 0.09 -1.33 0.09l-1.39 0.05c0 -0.69 0 -1.37 0.05 -2.06l0 -1.39c0 -0.46 -0.08 -0.9 -0.14 -1.34 0.19 -0.19 0.43 -0.47 0.47 -0.51a9.42 9.42 0 0 1 1 -0.91A5.35 5.35 0 0 1 15 8.72a3.44 3.44 0 0 1 3.27 0A7.8 7.8 0 0 1 20.82 11c-0.62 0.41 -1.25 0.84 -1.75 1.2Zm2.33 -1.49a7.72 7.72 0 0 0 -3.55 -3.12 4.39 4.39 0 0 0 -3.35 0.2 7.44 7.44 0 0 0 -1.32 0.79L11.77 9.7a0.86 0.86 0 0 0 -0.12 -0.22 9 9 0 0 0 -0.82 -0.81A7.27 7.27 0 0 0 9.88 8a4.67 4.67 0 0 0 -4.35 -0.32 6.87 6.87 0 0 0 -3 2.61s-0.07 0 -0.12 0a12.29 12.29 0 0 1 0.45 -2.8 7.92 7.92 0 0 1 1.58 -3.16 10.11 10.11 0 0 1 6.17 -3.08 9.63 9.63 0 0 1 6.76 1.16A8.42 8.42 0 0 1 20.4 6a14.86 14.86 0 0 1 1.16 4.64Z" fill="#020202" fill-rule="evenodd" stroke-width="1"></path>
    <path d="M13.7 18.36c-0.34 -0.07 -0.67 -0.15 -1 -0.2a3.24 3.24 0 0 0 -0.44 0 2.18 2.18 0 0 0 -0.44 0 8.73 8.73 0 0 0 -1 0.28 0.3 0.3 0 0 0 -0.28 0.31 0.29 0.29 0 0 0 0.31 0.27c0.34 0.06 0.66 0.16 1 0.2h0.43l0.42 0c0.35 -0.06 0.66 -0.14 1 -0.19a0.32 0.32 0 0 0 0.3 -0.33 0.32 0.32 0 0 0 -0.3 -0.34Z" fill="#4C57E6" fill-rule="evenodd" stroke-width="1"></path>
  </g>
</svg>