<svg xmlns="http://www.w3.org/2000/svg" viewBox="0 0 24 24" id="Speaker-Bluetooth-1--Streamline-Freehand">
  <desc>
    Speaker Bluetooth 1 Streamline Icon: https://streamlinehq.com
  </desc>
  <g>
    <path d="M10.27 3.08C9.44 3 9 3.12 8.89 3.72c0 0.32 -0.16 1 1.16 1.15a0.9 0.9 0 1 0 0.22 -1.79Z" fill="#4C57E6" fill-rule="evenodd" stroke-width="1"></path>
    <path d="M13.91 3.86c-0.83 -0.13 -1.32 0 -1.38 0.64 0 0.31 -0.16 1 1.17 1.15a0.9 0.9 0 1 0 0.21 -1.79Z" fill="#4C57E6" fill-rule="evenodd" stroke-width="1"></path>
    <path d="M24 12.31c0 -0.79 -0.05 -1.59 -0.1 -2.38 -0.1 -1.86 -0.25 -3.71 -0.39 -5.57a0.33 0.33 0 0 0 -0.19 -0.27 0.38 0.38 0 0 0 -0.23 -0.37 70.49 70.49 0 0 0 -6.84 -2c-1 -0.24 -2.06 -0.46 -3 -0.62a22 22 0 0 0 -3.11 -0.31 3.19 3.19 0 0 0 -1.6 0.27 6.22 6.22 0 0 0 -1.41 1.4 39.33 39.33 0 0 0 -2.25 3.66 0.32 0.32 0 0 0 0 0.4c-0.08 0.66 -0.14 1.31 -0.21 2 0 0.52 -0.12 1.05 -0.17 1.57 -0.1 1.24 -0.18 2.48 -0.24 3.73 0 0.34 -0.16 1.15 -0.18 1.79a2.23 2.23 0 0 0 0.2 1.08 3.18 3.18 0 0 0 1.35 1.17 14.93 14.93 0 0 0 2.15 0.77 28.25 28.25 0 0 0 5 1 23.45 23.45 0 0 0 5.09 0.06 0.36 0.36 0 0 0 0.31 -0.29 0.37 0.37 0 0 0 0.17 0.1 0.39 0.39 0 0 0 0.43 -0.34c0.23 -1.22 0.42 -2.44 0.54 -3.67 0.05 -0.53 0.09 -1.06 0.11 -1.59s0 -1.06 0 -1.59c0 -1.16 -0.19 -2.3 -0.33 -3.44a2.08 2.08 0 0 0 0.94 -0.19 5.28 5.28 0 0 0 1.18 -1.14c0.56 -0.71 1 -1.52 1.53 -2.25 0 1.54 -0.1 3.08 -0.12 4.62l0 2.39a18.74 18.74 0 0 1 0 2.26 3.35 3.35 0 0 1 -0.31 1.28 4.26 4.26 0 0 1 -1 1.23 14.34 14.34 0 0 1 -2.22 1.42 0.38 0.38 0 1 0 0.35 0.68A14.73 14.73 0 0 0 22 17.88a5 5 0 0 0 1.4 -1.44 4.26 4.26 0 0 0 0.56 -1.71 18 18 0 0 0 0.04 -2.42Zm-5.76 0.55c0 0.83 0 1.67 -0.06 2.5 0 3.14 -0.09 3.64 -0.09 3.67a0.48 0.48 0 0 0 -0.21 -0.07 28.28 28.28 0 0 1 -4.88 -0.31 28.53 28.53 0 0 1 -4.75 -1.23l-2 -0.71a1.94 1.94 0 0 1 -0.81 -0.71 1.61 1.61 0 0 1 0 -0.66c0 -5.44 0.09 -7 0.21 -8.93 3.64 1 6.06 1.43 6.12 1.44 1.23 0.23 6.17 1 6.69 1 -0.05 0.53 -0.22 3.48 -0.24 4.01Zm2.26 -5.92a4.4 4.4 0 0 1 -1 0.86s-0.1 0 -0.17 0a5.69 5.69 0 0 1 -0.93 -0.1c-0.89 -0.15 -1.89 -0.4 -2.21 -0.45 -1.27 -0.16 -2.51 -0.34 -3.74 -0.51S10 6.45 8.72 6.26c-0.93 -0.14 -1.86 -0.26 -2.79 -0.48 0.47 -0.7 1 -1.49 1.6 -2.23A6.1 6.1 0 0 1 9.14 2a3.61 3.61 0 0 1 1.37 0c1 0.1 2.42 0.33 3.92 0.59 2.93 0.52 6.25 1.2 8.08 1.72 -0.63 0.81 -1.28 1.82 -2.01 2.63Z" fill="#020202" fill-rule="evenodd" stroke-width="1"></path>
    <path d="M4.6 2.71a0.33 0.33 0 0 0 -0.41 -0.24 2.35 2.35 0 0 0 -1.3 0.36 1.56 1.56 0 0 0 -0.44 0.41 2 2 0 0 0 -0.29 0.52A2.75 2.75 0 0 0 2 5.1a0.39 0.39 0 0 0 0.37 0.39 0.38 0.38 0 0 0 0.4 -0.37 2.24 2.24 0 0 1 0.35 -0.71l0.22 -0.26a3.68 3.68 0 0 1 0.31 -0.38 2.44 2.44 0 0 1 0.67 -0.65 0.34 0.34 0 0 0 0.28 -0.41Z" fill="#4C57E6" fill-rule="evenodd" stroke-width="1"></path>
    <path d="M18.92 21.64a1.58 1.58 0 0 0 0.56 -0.21 1.92 1.92 0 0 0 0.48 -0.37 2.63 2.63 0 0 0 0.62 -1.18 0.38 0.38 0 0 0 -0.18 -0.51 0.4 0.4 0 0 0 -0.52 0.18 1.94 1.94 0 0 1 -0.59 0.52c-0.1 0.06 -0.21 0.1 -0.3 0.16l-0.44 0.23a2.77 2.77 0 0 1 -0.87 0.34 0.34 0.34 0 0 0 -0.38 0.28 0.33 0.33 0 0 0 0.29 0.38 2.48 2.48 0 0 0 1.33 0.18Z" fill="#4C57E6" fill-rule="evenodd" stroke-width="1"></path>
    <path d="M4.45 1.2a0.4 0.4 0 0 0 0.34 -0.43 0.39 0.39 0 0 0 -0.42 -0.34A4.12 4.12 0 0 0 2 1.22a4.26 4.26 0 0 0 -0.78 0.78 5 5 0 0 0 -0.56 0.88A8 8 0 0 0 0 5.11a0.35 0.35 0 0 0 0.23 0.42 0.34 0.34 0 0 0 0.43 -0.23 11.07 11.07 0 0 1 1.09 -1.88 8.9 8.9 0 0 1 0.84 -1.06A3.53 3.53 0 0 1 4.45 1.2Z" fill="#4C57E6" fill-rule="evenodd" stroke-width="1"></path>
    <path d="M21.94 20.23a10.24 10.24 0 0 1 -1.74 1.3 8.72 8.72 0 0 1 -1.19 0.66 3.6 3.6 0 0 1 -2.16 0.34 0.39 0.39 0 0 0 -0.48 0.26 0.39 0.39 0 0 0 0.26 0.48 4.14 4.14 0 0 0 3.49 -0.19 4.53 4.53 0 0 0 0.86 -0.59 7.88 7.88 0 0 0 1.48 -1.84 0.33 0.33 0 0 0 0 -0.47 0.34 0.34 0 0 0 -0.52 0.05Z" fill="#4C57E6" fill-rule="evenodd" stroke-width="1"></path>
    <path d="m13.65 13.71 -0.74 -0.48 -0.38 -0.23 0.69 -0.24 0.62 -0.28a3.31 3.31 0 0 0 0.64 -0.45 0.6 0.6 0 0 0 0.12 -0.55 1 1 0 0 0 -0.24 -0.35c-0.15 -0.14 -0.42 -0.32 -0.49 -0.39a11.75 11.75 0 0 0 -1.23 -1.2 1.74 1.74 0 0 0 -1 -0.32 0.75 0.75 0 0 0 -0.62 0.63c0 0.16 -0.06 0.56 -0.07 0.62 -0.09 0.42 -0.16 0.83 -0.21 1.24l0 0.11a12.2 12.2 0 0 0 -1.14 -0.58 0.34 0.34 0 0 0 -0.45 0.16 0.34 0.34 0 0 0 0.16 0.45 11.45 11.45 0 0 1 1.26 0.77l0.09 0.06 0 0.23 -1.08 0.6a0.38 0.38 0 1 0 0.31 0.7l0.68 -0.33a6.15 6.15 0 0 0 0 1.49 1.73 1.73 0 0 0 0.46 1 0.68 0.68 0 0 0 0.83 0.05c0.14 -0.09 0.49 -0.36 0.5 -0.37a11.92 11.92 0 0 0 1.23 -0.87 1.74 1.74 0 0 0 0.51 -0.67 0.54 0.54 0 0 0 -0.21 -0.67ZM12 11.82a10.82 10.82 0 0 1 0.17 -1.12c0.35 0.28 0.66 0.65 0.94 0.88l0.08 0.08 -1.19 0.51Zm0.66 2.6c-0.31 0.21 -0.68 0.4 -0.95 0.55a12 12 0 0 1 0.12 -1.38l0.46 0.39 0.48 0.36Z" fill="#020202" fill-rule="evenodd" stroke-width="1"></path>
  </g>
</svg>