<svg xmlns="http://www.w3.org/2000/svg" viewBox="0 0 24 24" id="Speaker--Streamline-Freehand">
  <desc>
    Speaker Streamline Icon: https://streamlinehq.com
  </desc>
  <g>
    <path d="M20.23 14.78a8.33 8.33 0 0 0 -2.73 -9.45 0.34 0.34 0 0 0 -0.43 0.52 7.55 7.55 0 0 1 2.33 8.6c-2.4 6 -12.17 6.41 -14.73 -0.38S9.86 1.5 15.86 5a0.3 0.3 0 0 0 0.3 -0.51C9.61 0.44 0.88 6.89 3.63 14.46s13.95 7.37 16.6 0.32Z" fill="#020202" fill-rule="evenodd" stroke-width="1"></path>
    <path d="M15.39 7.3A5.32 5.32 0 0 1 17 13.36c-1.68 4.14 -8.51 4.46 -10.31 -0.28s3.61 -8.83 7.84 -6.43a0.29 0.29 0 1 0 0.3 -0.5C10.06 3.2 3.65 7.91 5.65 13.46s10.25 5.42 12.18 0.22a6.09 6.09 0 0 0 -2 -6.9 0.33 0.33 0 0 0 -0.44 0.52Z" fill="#4C57E6" fill-rule="evenodd" stroke-width="1"></path>
    <path d="M11.32 9a2.62 2.62 0 0 0 -2.42 3.39 2.77 2.77 0 0 0 5.17 0.06A2.76 2.76 0 0 0 11.32 9Zm1.91 3.18A1.83 1.83 0 0 1 9.94 12a1.73 1.73 0 0 1 1.44 -2.34 1.79 1.79 0 0 1 1.85 2.47Z" fill="#020202" fill-rule="evenodd" stroke-width="1"></path>
    <path d="M24 5.24c0 -1 0.16 -2.52 -0.51 -3.45C21.89 -0.36 15.75 0.54 12.42 0.47 11.64 0.45 6.8 0.25 5.54 0.28a4.38 4.38 0 0 0 -4.49 3.45 28.89 28.89 0 0 0 -0.79 4.6C0 11.4 0 17.8 0 18.41c0.11 2 0.44 3.32 2.09 4a11.65 11.65 0 0 0 3.38 0.62c2.2 0.23 4.43 0.52 6.65 0.63a41.7 41.7 0 0 0 6.92 -0.29 5.41 5.41 0 0 0 4.31 -4c0.56 -1.9 0.39 -4.14 0.5 -6.15 0.15 -2.7 0.15 -5.28 0.15 -7.98Zm-0.93 0c0 2.58 -0.05 5.3 -0.22 7.88 -0.22 3.39 0.31 7 -2.67 8.72 -0.95 0.57 -2.47 0.53 -3.61 0.64 -3.59 0.36 -7.34 -0.17 -11 -0.52a11.32 11.32 0 0 1 -3.09 -0.49C1.28 21 1.1 20 1 18.35c0 -0.57 -0.2 -6.75 0.05 -10a30 30 0 0 1 0.69 -4.49A3.72 3.72 0 0 1 5.56 0.9c1 0 5.58 0.25 6.85 0.3 2.73 0.1 9.14 -0.58 10.34 1.11 0.47 0.69 0.3 2.11 0.3 2.94Z" fill="#020202" fill-rule="evenodd" stroke-width="1"></path>
    <path d="M6 4.3c1.14 -2 -2 -2.77 -2.83 -0.9C2.54 4.9 5.09 6 6 4.3Zm-1.82 -0.76A1 1 0 0 1 4.7 3c0.45 -0.13 0.8 0.15 0.63 0.57a0.76 0.76 0 0 1 -0.92 0.43c-0.28 -0.1 -0.33 -0.29 -0.23 -0.46Z" fill="#4C57E6" fill-rule="evenodd" stroke-width="1"></path>
    <path d="M21.26 2.36a2.61 2.61 0 0 0 -1.32 0.17 1.84 1.84 0 0 0 -0.83 0.87C18.46 4.9 21 6 22 4.3a1.24 1.24 0 0 0 -0.74 -1.94Zm0 1.24a0.76 0.76 0 0 1 -0.92 0.41c-0.28 -0.11 -0.32 -0.3 -0.23 -0.47 0.46 -0.85 1.41 -0.54 1.14 0.06Z" fill="#4C57E6" fill-rule="evenodd" stroke-width="1"></path>
    <path d="M2.78 18.19c-0.91 0.45 -1.5 1.74 -0.08 2.5A1.68 1.68 0 0 0 4.79 20c0.81 -1.51 -0.64 -2.5 -2.01 -1.81Zm1.31 1.07a0.75 0.75 0 0 1 -0.92 0.4c-0.28 -0.11 -0.32 -0.29 -0.23 -0.46 0.51 -0.92 1.4 -0.55 1.15 0.06Z" fill="#4C57E6" fill-rule="evenodd" stroke-width="1"></path>
    <path d="M18.7 18.19c-0.91 0.45 -1.5 1.74 -0.08 2.5a1.68 1.68 0 0 0 2.09 -0.69c0.81 -1.51 -0.64 -2.5 -2.01 -1.81Zm1.3 1.07a0.77 0.77 0 0 1 -0.93 0.4c-0.27 -0.11 -0.32 -0.29 -0.22 -0.46 0.53 -0.93 1.41 -0.55 1.15 0.06Z" fill="#4C57E6" fill-rule="evenodd" stroke-width="1"></path>
  </g>
</svg>