<svg xmlns="http://www.w3.org/2000/svg" viewBox="0 0 24 24" id="Sport-Rafting-Equipment-2--Streamline-Freehand">
  <desc>
    Sport Rafting Equipment 2 Streamline Icon: https://streamlinehq.com
  </desc>
  <title>sport-rafting-equipment-2</title>
  <g>
    <path d="m23.26 3.52 -0.2 -1.29A2.16 2.16 0 0 0 22 0.93a2.79 2.79 0 0 0 -1.6 -0.3c-0.28 0 -0.66 0 -1 0.08a2.22 2.22 0 0 0 -0.55 0.13 2.64 2.64 0 0 0 -1.62 2 14.92 14.92 0 0 0 0 3.41 4.79 4.79 0 0 0 0.13 1.09 2.67 2.67 0 0 0 0.27 0.73 3.13 3.13 0 0 0 1.35 1 3.71 3.71 0 0 0 1.19 0.29l0 0.24c0 0.84 -0.08 2.83 -0.11 3.4l0 2.59c0.05 1.29 0.27 7.8 0.37 8.09a0.31 0.31 0 0 0 0.6 0c0.07 -0.3 0.12 -8.4 0.09 -9.17 0 -0.51 -0.06 -1 -0.08 -1.53s-0.18 -2.58 -0.25 -3.42l0 -0.16a3.32 3.32 0 0 0 1.13 -0.33A3.15 3.15 0 0 0 23 8.36a1.93 1.93 0 0 0 0.32 -0.66c0.08 -0.3 0.11 -0.63 0.16 -0.92a9.35 9.35 0 0 0 0.08 -1.62 6.06 6.06 0 0 0 -0.3 -1.64Zm-0.66 3.16a4.71 4.71 0 0 1 -0.1 0.82 1 1 0 0 1 -0.16 0.41 2.54 2.54 0 0 1 -0.8 0.63 2.15 2.15 0 0 1 -2.29 0 2.51 2.51 0 0 1 -1 -0.78 2.41 2.41 0 0 1 -0.18 -0.7 5.17 5.17 0 0 1 0 -0.79 14.86 14.86 0 0 1 0.15 -3.17 1.66 1.66 0 0 1 1 -1.26 1.15 1.15 0 0 1 0.28 -0.06c0.33 -0.05 0.7 0 1 -0.08a1.7 1.7 0 0 1 1 0.17 1.1 1.1 0 0 1 0.6 0.65l0.27 1.3a5.35 5.35 0 0 1 0.28 1.39 7.87 7.87 0 0 1 -0.05 1.47Z" fill="#020202" stroke-width="1"></path>
    <path d="M16.09 7.09a18.81 18.81 0 0 0 -0.71 -2.64 13.38 13.38 0 0 0 -0.6 -1.55 3.7 3.7 0 0 0 -0.71 -1 5.54 5.54 0 0 0 -1.42 -1 7.87 7.87 0 0 0 -1.57 -0.65A6.12 6.12 0 0 0 10 0a8.35 8.35 0 0 0 -1.14 0 18.14 18.14 0 0 0 -2.07 0.22 5.42 5.42 0 0 0 -1.41 0.46A14.27 14.27 0 0 0 4 1.44a4.66 4.66 0 0 0 -0.85 0.73 6.91 6.91 0 0 0 -1.38 2.64A34.18 34.18 0 0 0 1 9c-0.12 0.65 -0.22 1.3 -0.3 2s-0.14 1.32 -0.18 2a17.78 17.78 0 0 0 0 2.92 12 12 0 0 0 0.6 2.89 9.78 9.78 0 0 0 0.63 1.52 3.63 3.63 0 0 0 0.67 0.94 4.39 4.39 0 0 0 2 1.09c1 0.27 2.07 0.27 3.13 0.48a0.28 0.28 0 0 0 0.33 -0.23 0.28 0.28 0 0 0 -0.22 -0.33c-1 -0.22 -2.1 -0.24 -3.06 -0.53a3.68 3.68 0 0 1 -1.64 -0.95c0.05 0 0.84 -0.46 1 -0.53a3.65 3.65 0 0 0 0.54 -0.39c0.32 -0.3 0.58 -0.66 0.89 -0.91a2.75 2.75 0 0 0 0.56 0.23c0.61 0.18 1.27 0.18 1.92 0.31h0.08c0.36 0 0.93 0.12 1.41 0.15a2.1 2.1 0 0 0 0.74 -0.08l1.73 -0.88a0.27 0.27 0 0 0 0.14 -0.37 0.28 0.28 0 0 0 -0.37 -0.15l-1.7 0.8a1.28 1.28 0 0 1 -0.49 0c-0.49 0 -1 -0.18 -1.41 -0.2 -0.62 -0.14 -1.25 -0.16 -1.82 -0.35a2 2 0 0 1 -0.89 -0.58 2.55 2.55 0 0 1 -0.29 -0.51 8.36 8.36 0 0 1 -0.27 -0.8c1 0.05 1.93 0.19 2.91 0.24a18.45 18.45 0 0 0 2.23 -0.05l1.83 -0.28 0.75 -0.14a4 4 0 0 1 -0.23 0.84 0.34 0.34 0 0 0 0.18 0.43 0.37 0.37 0 0 0 -0.12 0.31c0 0.16 0.42 0.62 0.47 0.71a3.49 3.49 0 0 0 0.49 0.45 3.54 3.54 0 0 0 0.33 0.19c0.17 0.07 0.35 0.11 0.52 0.18s0.62 0.3 0.62 0.3a5.18 5.18 0 0 1 -0.59 0.93 3.67 3.67 0 0 1 -1.11 0.89 12 12 0 0 1 -2.14 0.8 5.82 5.82 0 0 1 -1 0.21 10.53 10.53 0 0 1 -1.5 0.08 0.33 0.33 0 1 0 0 0.65 13.65 13.65 0 0 0 1.63 -0.06 6.17 6.17 0 0 0 1.08 -0.22 13 13 0 0 0 2.28 -0.82 4.4 4.4 0 0 0 1.35 -1A5.9 5.9 0 0 0 16 18.56a33.6 33.6 0 0 0 0.37 -4.09c0.07 -0.76 0.12 -1.54 0.14 -2.33s0 -1.58 0 -2.35a23.43 23.43 0 0 0 -0.42 -2.7Zm-1.7 -2.28a16.5 16.5 0 0 1 0.71 2.48 23.73 23.73 0 0 1 0.36 2.57l0 1 -0.22 0a2.61 2.61 0 0 0 -0.74 0 3.47 3.47 0 0 0 -0.5 0.14 4.11 4.11 0 0 1 -0.59 0.2l0 -0.5a14.64 14.64 0 0 0 -0.19 -1.79 12.43 12.43 0 0 0 -0.41 -1.76 9.11 9.11 0 0 0 -0.36 -1 2.86 2.86 0 0 0 -0.4 -0.64c0.2 -0.17 0.65 -0.51 0.75 -0.58a3.08 3.08 0 0 0 0.37 -0.44 10.17 10.17 0 0 0 0.6 -1.18s0.06 0.07 0.08 0.11a13.22 13.22 0 0 1 0.54 1.39Zm-2.55 7 -1.66 0c-0.71 0.06 -1.43 0.11 -2.15 0.22s-1.39 0.28 -2.1 0.41l-1 0.14 -0.31 0a29.45 29.45 0 0 1 0.35 -3.25c0.16 0 1.9 -0.1 1.9 -0.1a9 9 0 0 0 1 0c0.46 -0.05 0.92 -0.13 1.37 -0.2 0.29 0 0.58 -0.1 0.88 -0.12l1.38 -0.18 0.49 0a0.38 0.38 0 0 0 0.19 -0.16c0.05 0.21 0.13 0.42 0.17 0.63a15.29 15.29 0 0 1 0.22 1.69l0 1ZM5.93 6.24a2.15 2.15 0 0 1 0.35 -0.32A5.57 5.57 0 0 1 7 5.48a2 2 0 0 1 0.62 -0.22 8.65 8.65 0 0 1 1.14 -0.13h0.52a3 3 0 0 1 0.52 0.1 3.92 3.92 0 0 1 0.8 0.34 2.7 2.7 0 0 1 0.66 0.49 1.65 1.65 0 0 1 0.29 0.45 8 8 0 0 1 0.35 0.93c0.06 0.19 0.07 0.26 0.13 0.45a3.78 3.78 0 0 0 -0.63 0l-1.29 0a8.17 8.17 0 0 0 -1.4 0c-0.4 0 -0.79 0.1 -1.19 0.17l-0.75 0.13 -1.38 0.32 -0.39 0.1c0.06 -0.32 0.11 -0.63 0.19 -0.93a3.94 3.94 0 0 1 0.74 -1.44Zm-0.07 -4.59A4.14 4.14 0 0 1 7 1.29a15.92 15.92 0 0 1 1.93 -0.19 5.72 5.72 0 0 1 1.85 0.19 7.78 7.78 0 0 1 1.37 0.54 4.93 4.93 0 0 1 1.16 0.82c0.08 0.07 -0.82 0.94 -1 1.14s-0.21 0.26 -0.32 0.39 -0.32 0.59 -0.45 0.87a3.83 3.83 0 0 0 -0.44 -0.36 4.77 4.77 0 0 0 -1 -0.44 3.63 3.63 0 0 0 -0.71 -0.16 4.27 4.27 0 0 0 -0.72 0 11.5 11.5 0 0 0 -1.29 0.13 3.43 3.43 0 0 0 -0.91 0.33l-0.07 0c-0.08 -0.14 -0.18 -0.27 -0.22 -0.35a5.14 5.14 0 0 0 -0.37 -0.54c-0.11 -0.14 -0.23 -0.27 -0.35 -0.4s-0.16 -0.14 -0.23 -0.22 -0.51 -0.45 -0.67 -0.6l0.11 -0.09a10.76 10.76 0 0 1 1.19 -0.7ZM4.13 18.73a4.48 4.48 0 0 0 -0.44 0.32c-0.13 0.11 -0.24 0.25 -0.36 0.36s-0.45 0.57 -0.59 0.76c0 0 -0.05 0.08 -0.06 0.07a1.15 1.15 0 0 1 -0.28 -0.3 9.74 9.74 0 0 1 -0.55 -1.43 11 11 0 0 1 -0.5 -2.72 16.41 16.41 0 0 1 0 -2.8c0.05 -0.63 0.13 -1.28 0.22 -1.92s0.2 -1.28 0.33 -1.9a36.27 36.27 0 0 1 0.81 -4A6.14 6.14 0 0 1 4 2.88l0.09 -0.07c0.09 0.2 0.29 0.65 0.35 0.8a2.6 2.6 0 0 0 0.4 0.58c0.22 0.22 0.49 0.38 0.72 0.59 0 0 0.11 0.13 0.19 0.21l-0.1 0.06a2.91 2.91 0 0 0 -0.54 0.51 4.88 4.88 0 0 0 -0.91 1.82c-0.24 0.89 -0.32 1.85 -0.47 2.76 -0.07 0.43 -0.13 0.87 -0.18 1.31l0 0.45 -0.35 0c-0.12 0 -0.37 0 -0.54 0.05l-0.54 0.17a2.32 2.32 0 0 0 -0.36 0.16c-0.1 0.07 -0.16 0.12 -0.17 0.17s-0.05 0.22 0.06 0.3 0 0.07 0.11 0.08 0.57 0 0.9 0.11l0.3 0.05a2.37 2.37 0 0 0 0.46 0l0.06 0a13.52 13.52 0 0 0 0 1.8 8.76 8.76 0 0 0 0.39 1.95 7.58 7.58 0 0 0 0.39 1 2.62 2.62 0 0 0 0.45 0.67 4.18 4.18 0 0 0 -0.58 0.32Zm7.45 -3.05 -1.79 0 -1.34 0H7.1c-0.86 0 -1.7 0.1 -2.54 0.2a9.07 9.07 0 0 1 -0.17 -1.26 13 13 0 0 1 0 -1.53l0.44 0L6 13.2c0.58 0 1.16 0 1.73 -0.11S8.61 13 9 12.9s0.92 -0.1 1.35 -0.17c0 0 2.21 -0.22 2.23 -0.24l0 1.26c0 0.63 0 1.27 -0.08 1.88h-0.06c-0.2 0.03 -0.7 0.04 -0.86 0.05Zm3.87 -1.28a32.31 32.31 0 0 1 -0.28 4 6.09 6.09 0 0 1 -0.21 0.73 0.13 0.13 0 0 0 0 -0.05 2.26 2.26 0 0 0 -0.41 -0.41c-0.19 -0.15 -0.36 -0.31 -0.56 -0.45l-0.31 -0.22c-0.09 -0.05 -0.19 -0.09 -0.28 -0.15a4.08 4.08 0 0 0 -0.64 -0.39s0.07 0 0.09 -0.09a5.31 5.31 0 0 0 0.37 -1.46c0.09 -0.69 0.09 -1.42 0.15 -2.14 0 -0.5 0.08 -1 0.09 -1.54l0 -0.38a2.19 2.19 0 0 0 0.7 0.11 2.82 2.82 0 0 0 0.65 -0.08c0.2 -0.05 0.36 -0.15 0.52 -0.18l0.25 -0.05 0 0.45c-0.04 0.79 -0.07 1.56 -0.13 2.3Z" fill="#020202" stroke-width="1"></path>
  </g>
</svg>