<svg xmlns="http://www.w3.org/2000/svg" viewBox="0 0 24 24" id="Sport-Wind-Surfing-1--Streamline-Freehand">
  <desc>
    Sport Wind Surfing 1 Streamline Icon: https://streamlinehq.com
  </desc>
  <title>sport-wind-surfing-1</title>
  <g>
    <path d="m8.94 11.41 0.33 0.08 0.35 0a4.71 4.71 0 0 0 1 0 0.35 0.35 0 0 0 0.34 -0.35c0 -0.14 0 -0.3 -1.09 -0.69l-0.42 -0.1c-0.69 -0.1 -1.1 0.75 -0.57 1Z" fill="#4C57E6" stroke-width="1"></path>
    <path d="m10.52 9.1 0.33 0.08 2.9 0.71a2.43 2.43 0 0 0 0.95 -0.05 0.34 0.34 0 0 0 0.3 -0.34c0 -0.15 0 -0.3 -1.1 -0.69 -0.12 0 -2.81 -0.75 -3 -0.77 -0.69 -0.11 -1.1 0.74 -0.57 1Z" fill="#4C57E6" stroke-width="1"></path>
    <path d="m23 23.33 -0.78 -0.13 -1.81 -0.31a2.17 2.17 0 0 0 0.69 -0.58 1.5 1.5 0 0 0 0.19 -1.13 5.46 5.46 0 0 0 -0.76 -1.85L19.6 18l0 -0.08a35.34 35.34 0 0 0 1.43 -3.49 3.94 3.94 0 0 0 -0.03 -1.35 3.34 3.34 0 0 0 -0.66 -1.2 1.43 1.43 0 0 0 -0.26 -0.23c-0.15 -0.1 -0.33 -0.17 -0.48 -0.28l-0.42 -0.18 0.15 0a1.63 1.63 0 0 0 1.05 -0.8 2.91 2.91 0 0 0 0.36 -2.09 2.12 2.12 0 0 0 -0.95 -1.3 2.53 2.53 0 0 0 -0.87 -0.35 3.61 3.61 0 0 0 -0.87 0 2.72 2.72 0 0 0 -1.6 0.67A1.62 1.62 0 0 0 16 8.46a3 3 0 0 0 0.31 1.54 2.49 2.49 0 0 0 0.53 0.6 11.88 11.88 0 0 0 -1.37 -0.08 13.57 13.57 0 0 0 -2 0.11 6.2 6.2 0 0 0 -1.62 0.28A1.66 1.66 0 0 0 11 12a1.31 1.31 0 0 0 0 0.9 1.35 1.35 0 0 0 0.67 0.72 3.16 3.16 0 0 0 0.8 0.16l1 0h1.42c0.17 0 0.61 -0.14 0.87 -0.16 -0.07 0.31 -0.15 0.68 -0.25 1a3.11 3.11 0 0 1 -0.19 0.62c-0.32 0.24 -0.95 0.53 -1.3 0.78a2.71 2.71 0 0 0 -0.53 0.48c-0.2 0.27 -0.64 0.88 -1 1.45a9.34 9.34 0 0 0 -0.62 1.09 5.35 5.35 0 0 0 -0.6 2.21 2 2 0 0 0 0.07 0.23c-0.6 -0.09 -1.21 -0.18 -1.8 -0.25 -1.33 -0.17 -2.6 -0.31 -3.75 -0.42 0.07 -0.52 0.12 -1.11 0.12 -1.11 0 -0.38 0.08 -0.76 0.14 -1.13 0.08 -0.57 0.18 -1.13 0.28 -1.69s0.24 -1 0.39 -1.57c0.38 0.08 1 0.26 1.68 0.42 0.27 0.06 0.56 0.12 0.85 0.16s0.58 0.08 0.86 0.1a19.43 19.43 0 0 0 2.1 0.12 0.34 0.34 0 0 0 0 -0.68c-0.15 0 -1 -0.3 -2 -0.52a10.47 10.47 0 0 0 -1.38 -0.24 11.69 11.69 0 0 0 -1.91 0A23.68 23.68 0 0 1 8.4 11c1 -2.1 2 -3.89 5.51 -6.6 0.7 -0.55 1.31 -1.21 2 -1.81 0.43 -0.38 0.88 -0.76 1.34 -1.12a4.51 4.51 0 0 1 0.9 -0.7 4.79 4.79 0 0 1 0.21 1.62c0 0.9 -0.13 1.87 -0.2 2.76a0.32 0.32 0 0 0 0.27 0.33 0.3 0.3 0 0 0 0.33 -0.27A28.51 28.51 0 0 0 19.08 2a4.66 4.66 0 0 0 -0.2 -1.5 0.61 0.61 0 0 0 -0.73 -0.5 4.55 4.55 0 0 0 -1.46 0.73c-0.5 0.35 -1 0.72 -1.45 1.1 -0.7 0.56 -1.37 1.15 -2.06 1.73a24.17 24.17 0 0 0 -5 5.91 20.1 20.1 0 0 0 -2.63 7.26c-0.08 0.58 -0.16 1.15 -0.22 1.73 0 0.39 -0.08 0.78 -0.1 1.17 0 0.19 -0.07 0.47 -0.08 0.71a1.15 1.15 0 0 0 0 0.39l-2.75 -0.28 -1.19 -0.12c-0.44 -0.05 -0.43 0.35 -0.46 0.25 0.06 0.23 0 0.3 1.56 0.55s4.15 0.75 7.07 1.2c1.55 0.24 3.17 0.46 4.73 0.66 3.37 0.43 6.46 0.74 7.92 0.9 0.58 0.07 0.84 0.1 1 -0.08s0.24 -0.43 -0.03 -0.48ZM16.9 8.52a0.71 0.71 0 0 1 0.39 -0.52 1.72 1.72 0 0 1 0.82 -0.21 2.24 2.24 0 0 1 0.58 0 1.4 1.4 0 0 1 0.48 0.18 1.12 1.12 0 0 1 0.54 0.79 2.1 2.1 0 0 1 -0.18 1.24 0.85 0.85 0 0 1 -0.65 0.48 5.46 5.46 0 0 1 -1.18 0 1.53 1.53 0 0 1 -0.7 -0.8 2.29 2.29 0 0 1 -0.1 -1.16Zm3.36 13.2c-0.21 0.32 -0.39 0.47 -0.6 0.43a3.47 3.47 0 0 1 -1.39 -1 5.14 5.14 0 0 1 -0.53 -0.44c-0.38 -0.44 -0.43 -0.86 -0.8 -0.72a0.32 0.32 0 0 0 -0.21 0.33c0 0.09 0.17 0.31 0.21 0.41a1.45 1.45 0 0 0 0.25 0.36c0.17 0.2 0.41 0.39 0.57 0.57a9 9 0 0 0 1 1c-1.31 -0.22 -2.82 -0.47 -4.4 -0.71a7.65 7.65 0 0 0 1.14 -1.33l0.46 -0.73c0.92 -1.35 0.93 -1.3 0.93 -1.45a0.35 0.35 0 0 0 -0.34 -0.35 0.38 0.38 0 0 0 -0.28 0.13 2 2 0 0 0 -0.24 0.34l-0.69 0.93 -0.46 0.68a5.29 5.29 0 0 1 -1.45 1.41 0.83 0.83 0 0 1 -0.92 0 0.56 0.56 0 0 1 -0.24 -0.59 6.7 6.7 0 0 1 0.62 -1.54 7.1 7.1 0 0 1 0.54 -0.87c0.36 -0.52 0.79 -1.09 1 -1.33a1.52 1.52 0 0 1 0.3 -0.26c0.37 -0.25 0.8 -0.45 1.13 -0.7l0.33 -0.22a1.28 1.28 0 0 0 0.2 -0.25 4.43 4.43 0 0 0 0.24 -0.65c0.14 -0.44 0.24 -1 0.34 -1.37a0.84 0.84 0 0 0 -0.53 -1.13 5 5 0 0 0 -1.49 0l-0.79 0h-0.63l-1 0c-0.34 0 -0.74 -0.17 -0.63 -0.42a0.92 0.92 0 0 1 0.34 -0.51 5 5 0 0 1 1.34 -0.26 13.72 13.72 0 0 1 1.89 -0.2 10.34 10.34 0 0 1 1.89 0.06 4.15 4.15 0 0 1 1.74 0.62l0.56 0.41a2.23 2.23 0 0 1 0.42 0.9 2.85 2.85 0 0 1 0 1c-0.05 0.33 -1.11 2.31 -1.51 3.13 -0.08 0.17 -0.14 0.31 -0.16 0.37a0.58 0.58 0 0 0 0.12 0.65l1 1.5a5.21 5.21 0 0 1 0.54 1 2.62 2.62 0 0 1 0.17 0.58c0.02 0.12 0.05 0.18 0.02 0.22Z" fill="#020202" stroke-width="1"></path>
  </g>
</svg>