<svg xmlns="http://www.w3.org/2000/svg" viewBox="0 0 24 24" id="Sport-Fish-Swordfish--Streamline-Freehand">
  <desc>
    Sport Fish Swordfish Streamline Icon: https://streamlinehq.com
  </desc>
  <g>
    <path d="M17 12.23a6.33 6.33 0 0 1 0 0.87 7 7 0 0 1 -0.23 1.07 13 13 0 0 1 -0.57 1.57c-0.23 0.58 -0.5 1.17 -0.8 1.75a9.13 9.13 0 0 1 -1 1.6c-1.4 1.68 -2.3 1.48 -2.4 1.77L11.33 22l-0.44 0.64 -0.31 0.31 -0.1 0.07a6.55 6.55 0 0 0 0 -0.72c0 -0.26 -0.11 -0.51 -0.18 -0.76s-0.24 -0.72 -0.38 -1.08 -0.26 -0.57 -0.4 -0.84c-0.32 -0.6 -0.69 -1.17 -1 -1.79 -0.05 -0.1 -0.12 -0.22 -0.17 -0.34a3.6 3.6 0 0 1 0.88 0.38 13.14 13.14 0 0 1 1.26 0.92c0.23 0.2 0.33 0.55 0.64 0.35a7 7 0 0 0 1.07 -0.75 3.94 3.94 0 0 0 1 -1.44 5.89 5.89 0 0 0 0.29 -0.8 4.4 4.4 0 0 0 0.13 -0.63 3.39 3.39 0 0 0 0 -0.64 4.34 4.34 0 0 0 -0.65 -2.32 10.65 10.65 0 0 0 -2.4 -2.56c-1.33 -1.05 -2.7 -2.06 -3 -3.81A0.26 0.26 0 0 0 7.41 6L4.74 2.43c-0.42 -0.46 -0.87 -0.9 -1.26 -1.38a3.15 3.15 0 0 1 -0.22 -0.29c0.18 0.08 0.36 0.14 0.54 0.23 1.42 0.69 2.75 1.58 4.2 2.16a3.24 3.24 0 0 0 0.73 0.18 23.74 23.74 0 0 1 2.53 0.2 6.88 6.88 0 0 1 2.25 1 14.06 14.06 0 0 1 2.55 2.34c0.45 0.31 0.73 0.34 0.78 0 -0.47 -0.61 -0.94 -1.19 -1.44 -1.73 0.72 0 1.46 0.05 2.19 0.12a8.1 8.1 0 0 1 1.84 0.36l0.35 0.11 -0.36 0.16a5 5 0 0 0 -1.16 0.71 5.89 5.89 0 0 0 -0.45 0.42c0.07 0.34 0.35 0.42 0.82 0.24l0.07 0a4.18 4.18 0 0 1 1 -0.5c0.24 -0.08 0.49 -0.14 0.73 -0.23a2.65 2.65 0 0 0 0.57 -0.4 2.26 2.26 0 0 0 0.35 -0.28 0.52 0.52 0 0 0 0.06 -0.6 0.61 0.61 0 0 0 -0.24 -0.25c-0.11 -0.06 -0.38 -0.15 -0.43 -0.17l-1 -0.34a8.17 8.17 0 0 0 -2.1 -0.27c-0.95 0 -1.91 0.13 -2.83 0.21 -0.25 -0.23 -0.5 -0.45 -0.76 -0.65a7.8 7.8 0 0 0 -2.5 -1.29 4.48 4.48 0 0 0 -0.73 -0.14 10.53 10.53 0 0 1 -2.46 -0.2C6.88 1.72 5.5 1 4.06 0.4 3.68 0.26 3.31 0.12 2.92 0 2.78 0 2.05 0 3 1.69c0.28 0.46 0.59 0.91 0.87 1.37S4.63 4 5 4.46a26 26 0 0 0 1.93 1.88 0.41 0.41 0 0 0 0.15 0.07 3.5 3.5 0 0 0 0.72 2 24.4 24.4 0 0 0 3.09 3.19 6.58 6.58 0 0 1 1.34 1.51 3.56 3.56 0 0 1 0.59 1.79 2.26 2.26 0 0 1 0 0.52 4.34 4.34 0 0 1 -0.27 1.22 3.5 3.5 0 0 1 -0.3 0.65 3.19 3.19 0 0 1 -0.59 0.71c-0.2 0.18 -0.43 0.34 -0.66 0.51a0.39 0.39 0 0 0 -0.06 -0.13A14.42 14.42 0 0 0 9.7 17.3a4.16 4.16 0 0 0 -1 -0.57s-0.5 -0.15 -0.7 -0.19a0.5 0.5 0 0 0 -0.55 0.35 1.64 1.64 0 0 0 0 0.66 4.55 4.55 0 0 0 0.26 0.71L9 20.88c0.11 0.27 0.22 0.54 0.32 0.82a7.81 7.81 0 0 1 0.26 0.82c0.06 0.21 0.06 0.5 0.1 0.73a1.13 1.13 0 0 0 0.24 0.55c0.2 0.19 0.51 0.34 1 0l0.23 -0.2 0.37 -0.43 0.46 -0.78 0.55 -1.16 0.14 0a6.12 6.12 0 0 0 2.81 -2.07 13.11 13.11 0 0 0 1.66 -3 11.9 11.9 0 0 0 0.45 -1.44 6.9 6.9 0 0 0 0.17 -1.53 6 6 0 0 0 0 -0.74c-0.06 -0.54 -0.15 -0.87 -0.23 -1.41 -0.24 -0.29 -0.44 -0.35 -0.55 0.07s0.02 0.68 0.02 1.12Z" fill="#020202" fill-rule="evenodd" stroke-width="1"></path>
    <path d="M14.42 7.39a0.28 0.28 0 0 0 -0.26 0.29 0.29 0.29 0 0 0 0.3 0.26A15.1 15.1 0 0 1 16.7 8a4.93 4.93 0 0 1 2 0.7 5.82 5.82 0 0 1 0.66 0.44l0.25 0.2c-0.26 0 -0.52 0 -0.73 0.06a11.32 11.32 0 0 0 -1.61 0.36 10.81 10.81 0 0 0 -1.53 0.6 0.32 0.32 0 0 0 -0.16 0.42 0.31 0.31 0 0 0 0.42 0.22 10.21 10.21 0 0 1 3 -0.62l1.22 0a2.29 2.29 0 0 0 0.65 -0.16 0.57 0.57 0 0 0 0.13 -0.86c-0.08 -0.12 -0.31 -0.41 -0.31 -0.41a6.13 6.13 0 0 0 -0.69 -0.63 8.09 8.09 0 0 0 -0.79 -0.5c-1.48 -0.72 -2.78 -0.68 -4.79 -0.43Z" fill="#4C57E6" fill-rule="evenodd" stroke-width="1"></path>
    <path d="M8.07 10.68a9.46 9.46 0 0 0 -1 1.9 5.78 5.78 0 0 0 -0.17 0.69l0 0.68c0 0.23 -0.09 0.78 0.16 1a0.49 0.49 0 0 0 0.58 0.08 3.91 3.91 0 0 0 0.87 -0.61c0.56 -0.49 1 -1.1 1.58 -1.57a0.32 0.32 0 1 0 -0.39 -0.5c-0.57 0.39 -1.12 0.92 -1.72 1.34l0 -0.26a3.21 3.21 0 0 1 0.11 -0.52 8.89 8.89 0 0 1 0.62 -1.82 3.77 3.77 0 0 1 0.5 -0.73c-0.08 -0.34 -0.36 -0.41 -0.66 -0.21a2.31 2.31 0 0 0 -0.48 0.53Z" fill="#4C57E6" fill-rule="evenodd" stroke-width="1"></path>
  </g>
</svg>