<svg xmlns="http://www.w3.org/2000/svg" viewBox="0 0 24 24" id="Sport-Kayaking-2--Streamline-Freehand">
  <desc>
    Sport Kayaking 2 Streamline Icon: https://streamlinehq.com
  </desc>
  <title>sport-kayaking-2</title>
  <g>
    <path d="m23.66 22.29 -1 0.06a3.73 3.73 0 0 1 -1.5 -0.56 7 7 0 0 1 -1.31 -1l-0.23 -0.42a0.42 0.42 0 0 0 -0.53 -0.09c-0.3 0.14 -0.28 0.34 -0.8 0.9a5.71 5.71 0 0 1 -1 0.58 2.83 2.83 0 0 1 -1 0.26 2.66 2.66 0 0 1 -1.29 -0.31 4.12 4.12 0 0 1 -1.18 -0.81c-0.7 -0.87 -0.63 -0.94 -0.78 -1a0.64 0.64 0 0 0 -0.69 0.1 9.83 9.83 0 0 0 -0.69 0.74 7.62 7.62 0 0 1 -0.91 0.67 3.82 3.82 0 0 1 -1 0.44 4.46 4.46 0 0 1 -3.25 -0.29 3.11 3.11 0 0 1 -0.5 -0.29c-0.33 -0.24 -0.19 -0.33 -0.57 -0.63s-0.6 0 -0.9 0.27 -0.39 0.51 -0.6 0.72C2 23.48 1.06 23.11 0.73 23.17c-0.49 0.09 -0.45 0.51 0 0.57a3.46 3.46 0 0 0 1.62 -0.18 8.14 8.14 0 0 0 2.07 -1.36c0.19 -0.17 0.36 -0.4 0.55 -0.6a1.47 1.47 0 0 0 0.54 0.47c0.21 0.12 0.44 0.23 0.65 0.34a6.07 6.07 0 0 0 1.9 0.63 5.08 5.08 0 0 0 2 -0.12 4.59 4.59 0 0 0 1 -0.41 7.19 7.19 0 0 0 1.3 -0.91s0.13 -0.2 0.24 -0.37a4.17 4.17 0 0 0 1.92 1.49 3.59 3.59 0 0 0 3.19 -0.11 6.1 6.1 0 0 0 1.09 -0.73l0.45 -0.45a6 6 0 0 0 3.3 1.64l1 -0.1a0.35 0.35 0 0 0 0.33 -0.35 0.34 0.34 0 0 0 -0.22 -0.33Z" fill="#4C57E6" stroke-width="1"></path>
    <path d="M23.27 11.41a6.73 6.73 0 0 0 -3.44 -2.21 9 9 0 0 0 -2.36 0.6 1.21 1.21 0 0 0 -1 -0.74 1.5 1.5 0 0 0 -0.36 0c-0.4 -0.27 0.32 0 -2.36 -1.49 -0.29 -0.16 -0.59 -0.32 -0.9 -0.47s-0.82 -0.41 -1.21 -0.58c-0.91 -0.41 -1.66 -0.68 -1.86 -0.78s-0.68 -0.21 -0.86 -0.21A2.7 2.7 0 0 0 8.75 5c-0.25 -0.53 -1.13 -0.88 -2.06 -0.11 -0.09 -0.55 0 -0.66 -0.07 -1.2A1.76 1.76 0 0 0 6.47 3a2 2 0 0 0 -0.4 -0.54c-0.3 -0.3 -0.7 -0.57 -1 -0.82A6.55 6.55 0 0 0 3.45 0.38C2.33 -0.09 1.54 0.59 0.58 1.47A2 2 0 0 0 0.33 4a6.72 6.72 0 0 0 3.38 2.3A3.16 3.16 0 0 0 5.15 6l0.68 -0.18A6.56 6.56 0 0 0 4.84 9a7.3 7.3 0 0 0 0.93 3.47 1.68 1.68 0 0 0 0.09 0.22l-1.31 2a5.6 5.6 0 0 0 -1.85 -0.77 1.29 1.29 0 0 0 -1.56 0.83 4.87 4.87 0 0 0 -0.08 2.17l0.16 0.75 0.36 1.11c0.22 0.58 0.31 0.65 0.44 0.68s0.41 0 0.35 -0.34c0 0 -0.18 -0.5 -0.2 -0.55l-0.27 -1 -0.11 -0.7a4 4 0 0 1 0.15 -1.74 0.46 0.46 0 0 1 0.59 -0.24 2.47 2.47 0 0 1 0.54 0.19c0.32 0.16 1.45 0.9 2.49 1.46a16 16 0 0 0 4 1.51 17.62 17.62 0 0 0 2.95 0.4l2.64 0c0.27 0 0.6 -0.06 0.91 -0.06a1.39 1.39 0 0 1 0.47 0.05 0.35 0.35 0 0 1 0.24 0.3c0.11 0.53 -0.29 0.91 -0.28 1.17a0.35 0.35 0 0 0 0.63 0.19 2.7 2.7 0 0 0 0.25 -0.52 1.77 1.77 0 0 0 0.08 -1.18 1.09 1.09 0 0 0 -0.64 -0.69 1.92 1.92 0 0 0 -0.56 -0.12l-1.11 0 -2.56 -0.15c-0.23 0 -0.46 -0.07 -0.69 -0.1a0.6 0.6 0 0 1 -0.08 -0.16l-0.29 -1.63c0 -0.09 0.06 -0.29 0.08 -0.46l0.16 0a2.27 2.27 0 0 0 0.45 0c0.3 0 0.6 -0.12 0.89 -0.18a3.59 3.59 0 0 0 1.08 -0.39 5.31 5.31 0 0 0 0.91 -0.6c0.41 -0.33 0.89 -0.6 1.3 -1a3.51 3.51 0 0 0 0.66 -0.74 1.38 1.38 0 0 0 0.53 1c0.31 0.29 0.72 0.55 1 0.79a6.87 6.87 0 0 0 1.67 1.25c1.13 0.43 1.89 -0.25 2.85 -1.18a2 2 0 0 0 0.17 -2.63ZM9 6.26a0.33 0.33 0 0 0 0 -0.1l0.44 0.23a25.67 25.67 0 0 0 3.84 2.19c0.82 0.37 1.55 0.67 2 0.83 -1.71 0.84 -1.74 1.55 -2.66 2 1.57 -2.57 -2.29 -5.12 -4.19 -2.79A11.3 11.3 0 0 0 9 6.26Zm2.49 5.33a2.11 2.11 0 0 1 -0.75 0.15 1.6 1.6 0 0 1 -0.91 -0.18 1.73 1.73 0 0 1 -0.7 -0.56 1.22 1.22 0 0 1 -0.13 -0.81c0 -0.61 0.25 -1.13 1.45 -1.35a1.74 1.74 0 0 1 1.55 0.84 1.39 1.39 0 0 1 -0.52 1.91ZM3.9 5.49a6.1 6.1 0 0 1 -2.6 -2.06 1 1 0 0 1 0 -1.06l1 -0.88c0.78 -0.51 1.34 0.24 2.18 0.89 1.25 1 1.36 0.64 1.42 2.08a1.49 1.49 0 0 0 0.14 0.63 9.54 9.54 0 0 1 -2.14 0.4Zm12.1 6.1a2.71 2.71 0 0 1 -0.54 0.53c-0.36 0.28 -0.76 0.53 -1.11 0.82a5.06 5.06 0 0 1 -0.73 0.53 2.83 2.83 0 0 1 -0.76 0.33l-1.15 0.27a5.18 5.18 0 0 0 -0.63 0 0.65 0.65 0 0 0 -0.28 0.15 0.78 0.78 0 0 0 -0.19 0.43 4.16 4.16 0 0 0 0.06 0.92l0.38 1.56q-0.64 -0.12 -1.26 -0.27A16.5 16.5 0 0 1 7.18 16c-0.37 -0.16 -0.73 -0.34 -1.1 -0.52L5.16 15c0.06 -0.11 0.11 -0.23 0.13 -0.26a11.43 11.43 0 0 1 1.17 -1.45 2.74 2.74 0 0 0 0.29 -0.46 0.44 0.44 0 0 0 0 -0.4c0 -0.07 -0.49 -1.24 -0.63 -1.66A4.54 4.54 0 0 1 6 9.06a6.2 6.2 0 0 1 0.87 -2.73 3.38 3.38 0 0 1 0.73 -0.83l0.32 -0.09c0.51 0.9 0 2.09 -0.27 3.23 -0.09 0.45 -0.21 1.25 0.25 1.32a1.13 1.13 0 0 0 0 0.18c0 2.14 2.57 3.09 4.13 2 0.19 0.29 0.67 0.06 1.09 -0.16 0.81 -0.43 1 -1 2.09 -1.51 0.9 -0.41 1.29 -0.6 1.43 0 0.01 0.29 -0.41 0.85 -0.64 1.12Zm6.31 1.47 -1 0.9c-0.75 0.53 -1.34 -0.2 -2.2 -0.82 -1.75 -1.29 -1.28 -0.57 -1.5 -2.73a5.39 5.39 0 0 1 0.93 -0.21c1.1 -0.22 0.78 -0.44 2 0.27A4.87 4.87 0 0 1 22.32 12a1 1 0 0 1 0.02 1.06Z" fill="#020202" stroke-width="1"></path>
  </g>
</svg>