<svg xmlns="http://www.w3.org/2000/svg" viewBox="0 0 24 24" id="Sport-Indoor-Skydiving--Streamline-Freehand">
  <desc>
    Sport Indoor Skydiving Streamline Icon: https://streamlinehq.com
  </desc>
  <title>sport-indoor-skydiving</title>
  <g>
    <path d="M22.58 6.12c0.07 -1.34 0.32 -2.66 0.47 -4a17.56 17.56 0 0 0 0.13 -1.76 0.35 0.35 0 0 0 -0.34 -0.36 0.35 0.35 0 0 0 -0.36 0.33c0 0.57 -0.12 1.13 -0.21 1.69 -0.24 1.34 -0.57 2.66 -0.73 4 -0.12 1.14 -0.21 2.27 -0.24 3.4s0 2 0 3.05c0 0.67 0.05 1.35 0.08 2v1.7a3.31 3.31 0 0 0 -0.27 -0.26 4.46 4.46 0 0 0 -0.56 -0.41 7.3 7.3 0 0 0 -0.87 -0.47c-0.29 -0.13 -0.59 -0.25 -0.89 -0.36a15.22 15.22 0 0 0 -3.16 -0.67 28.51 28.51 0 0 0 -4.8 -0.08C10 14 9.2 14 8.4 14a13.35 13.35 0 0 0 -1.66 0.27 10.71 10.71 0 0 0 -3.65 1.5 3.25 3.25 0 0 0 -1 1.16c0 -0.38 -0.07 -0.75 -0.08 -1.13 0 -1.15 0 -2.32 0.05 -3.47s0.08 -2.37 0.09 -3.52a6.28 6.28 0 0 0 0 -0.75c-0.15 -0.89 -0.32 -1.81 -0.32 -2.74 0 -1.08 0.08 -2.17 0 -3.25a9.75 9.75 0 0 0 -0.1 -1.43 0.36 0.36 0 0 0 -0.39 -0.3 0.35 0.35 0 0 0 -0.29 0.4 10.58 10.58 0 0 1 0 1.78C1 3.45 0.89 4.37 0.84 5.3a6.26 6.26 0 0 0 0 0.75C0.86 7 1 7.9 1 8.84c0 1.16 -0.07 2.38 -0.06 3.6 0 0.81 0.06 1.63 0.12 2.44 0.11 1.38 0.39 6.55 0.4 6.9 0 0.62 0.09 1.17 0.07 1.52a0.35 0.35 0 0 0 0.26 0.41 0.34 0.34 0 0 0 0.41 -0.27 6.77 6.77 0 0 0 0.4 -3.27 32.52 32.52 0 0 0 9.4 1 2.74 2.74 0 0 0 -0.1 0.55 3.39 3.39 0 0 0 0 0.45 3.49 3.49 0 0 0 0 0.44c0.07 0.42 0.17 0.77 0.21 1a0.35 0.35 0 0 0 0.69 0 10.76 10.76 0 0 0 0.2 -1 3.15 3.15 0 0 0 0 -0.44 2.12 2.12 0 0 0 0 -0.44 2.48 2.48 0 0 0 -0.13 -0.55l2.78 -0.26 1.5 -0.11a21.41 21.41 0 0 0 2.24 -0.2A5 5 0 0 0 21 20.1a3.36 3.36 0 0 0 0.65 -0.45l0 0.7c0 0.25 0 0.5 0.07 0.75s0.08 0.49 0.12 0.73c0.12 0.62 0.27 1.19 0.36 1.71a0.35 0.35 0 0 0 0.37 0.32 0.34 0.34 0 0 0 0.32 -0.37c0 -0.53 0.06 -1.14 0 -1.78 0 -0.25 0 -0.51 -0.05 -0.76s-0.1 -0.5 -0.13 -0.75a27.71 27.71 0 0 1 -0.34 -5.7Zm-2.18 13a4.3 4.3 0 0 1 -1.21 0.4c-0.7 0.13 -1.43 0.16 -2.13 0.22l-1.44 0.15c-6.19 0.32 -7.11 0.46 -9.62 0.09a24.17 24.17 0 0 1 -3.48 -0.8 2.51 2.51 0 0 1 1 -2.73 9.66 9.66 0 0 1 3.4 -1.27 11.48 11.48 0 0 1 1.53 -0.21c0.79 0 1.59 0 2.4 -0.06a31.11 31.11 0 0 1 3.86 0.11 15 15 0 0 1 3.69 0.81 7.68 7.68 0 0 1 0.79 0.32 6.44 6.44 0 0 1 0.73 0.4 5 5 0 0 1 0.44 0.32c0.13 0.12 0.26 0.24 0.39 0.38a1.23 1.23 0 0 1 0.42 1c-0.04 0.32 -0.33 0.59 -0.77 0.83Z" fill="#020202" stroke-width="1"></path>
    <path d="M5.49 3.79a8.89 8.89 0 0 0 0.77 1.5 1.9 1.9 0 0 0 0.38 0.44 8 8 0 0 0 0.87 0.64 6.44 6.44 0 0 0 1.24 0.41 0.26 0.26 0 0 1 0.13 0.1 1.55 1.55 0 0 1 0.12 0.43 1.17 1.17 0 0 1 0 0.41A11.79 11.79 0 0 1 8.62 9a2.59 2.59 0 0 0 -0.09 0.42 2.08 2.08 0 0 0 0.23 1.28 1.28 1.28 0 0 0 0.9 0.6A1.92 1.92 0 0 0 11 11a4.68 4.68 0 0 0 1.09 -1 4.26 4.26 0 0 0 1 0.86 2 2 0 0 0 1.32 0.31 1.29 1.29 0 0 0 0.9 -0.6 2 2 0 0 0 0.22 -1.28 2.07 2.07 0 0 0 -0.08 -0.42c-0.12 -0.43 -0.35 -0.82 -0.43 -1.26a1.22 1.22 0 0 1 0 -0.42 2 2 0 0 1 0.15 -0.43 0.26 0.26 0 0 1 0.13 -0.1 7.32 7.32 0 0 0 1.25 -0.41 10.65 10.65 0 0 0 0.87 -0.64 2.11 2.11 0 0 0 0.37 -0.44 8.88 8.88 0 0 0 0.78 -1.49 4.12 4.12 0 0 0 0.28 -1.15 2.63 2.63 0 0 0 -0.11 -1.16 1.07 1.07 0 0 0 -0.42 -0.56 1.37 1.37 0 0 0 -1.21 -0.13 2.18 2.18 0 0 0 -0.85 0.7A5.85 5.85 0 0 0 15.63 3a0.87 0.87 0 0 1 -0.31 0.39 0.72 0.72 0 0 1 -0.27 0.1 1.92 1.92 0 0 1 -0.38 0.07l-0.29 0.05A2.15 2.15 0 0 0 14.31 2 2.86 2.86 0 0 0 12.68 0.54a1.77 1.77 0 0 0 -0.61 -0.09 3.09 3.09 0 0 0 -0.77 0.14 4.85 4.85 0 0 0 -0.78 0.3 1.92 1.92 0 0 0 -0.52 0.47A2.58 2.58 0 0 0 9.57 3a2.94 2.94 0 0 0 0.13 0.73l-0.31 -0.06L9 3.58a0.91 0.91 0 0 1 -0.28 -0.11 1 1 0 0 1 -0.32 -0.4 5.63 5.63 0 0 0 -0.62 -1.59 2.11 2.11 0 0 0 -0.84 -0.69 1.32 1.32 0 0 0 -1.19 0.15 1.14 1.14 0 0 0 -0.47 0.72 2.89 2.89 0 0 0 -0.07 1 4.88 4.88 0 0 0 0.28 1.13Zm5.44 -1.73a0.69 0.69 0 0 1 0.25 -0.2 3.43 3.43 0 0 1 0.48 -0.19 2.19 2.19 0 0 1 0.41 -0.13 1 1 0 0 1 0.29 0 1.91 1.91 0 0 1 1.18 0.84 1.33 1.33 0 0 1 -0.49 1.82 2 2 0 0 1 -0.72 0.13 2.36 2.36 0 0 1 -0.88 0 0.83 0.83 0 0 1 -0.53 -0.38 1.78 1.78 0 0 1 -0.2 -1 1.53 1.53 0 0 1 0.21 -0.89ZM6.08 2c0 -0.13 0 -0.27 0.1 -0.33a0.63 0.63 0 0 1 0.5 -0.11 1.23 1.23 0 0 1 0.51 0.44c0.38 0.44 0.36 1 0.57 1.41a1.58 1.58 0 0 0 0.57 0.59 1.48 1.48 0 0 0 0.42 0.19l0.56 0.09 0.7 0.12 0.06 0.11a1.82 1.82 0 0 0 0.95 0.62 2.94 2.94 0 0 0 1.47 -0.05 2.66 2.66 0 0 0 1 -0.39 1.93 1.93 0 0 0 0.35 -0.35l0.83 -0.13a4.31 4.31 0 0 0 0.56 -0.09 1.36 1.36 0 0 0 0.52 -0.12 1.63 1.63 0 0 0 0.57 -0.67c0.21 -0.44 0.18 -1 0.56 -1.4a1.23 1.23 0 0 1 0.51 -0.43 0.58 0.58 0 0 1 0.48 0.11c0.11 0.07 0.1 0.26 0.11 0.42a1.71 1.71 0 0 1 0 0.46 4.12 4.12 0 0 1 -0.25 0.92A9.38 9.38 0 0 1 17 4.69a1.59 1.59 0 0 1 -0.29 0.29c-0.23 0.17 -0.49 0.32 -0.69 0.45a6.24 6.24 0 0 1 -1.07 0.29 1.27 1.27 0 0 0 -0.66 0.53 2.61 2.61 0 0 0 -0.34 1.57l0.47 1.63a1.46 1.46 0 0 1 0 0.42c0 0.09 -0.07 0.18 -0.17 0.2a1 1 0 0 1 -0.69 -0.29 3.23 3.23 0 0 1 -0.72 -0.71l-0.28 -0.45a0.57 0.57 0 0 0 -0.62 -0.13 1.78 1.78 0 0 0 -0.35 0.22l-0.27 0.44a3.49 3.49 0 0 1 -0.72 0.72 1 1 0 0 1 -0.69 0.28 0.22 0.22 0 0 1 -0.21 -0.15 1.19 1.19 0 0 1 0 -0.42l0.48 -1.63a2.66 2.66 0 0 0 -0.05 -0.83 2.94 2.94 0 0 0 -0.29 -0.75 1.36 1.36 0 0 0 -0.67 -0.54 5.43 5.43 0 0 1 -1.07 -0.28c-0.2 -0.12 -0.46 -0.28 -0.69 -0.45a1.3 1.3 0 0 1 -0.29 -0.28 8.48 8.48 0 0 1 -0.75 -1.32 3.73 3.73 0 0 1 -0.26 -0.93A2.09 2.09 0 0 1 6.08 2Z" fill="#020202" stroke-width="1"></path>
    <path d="M5 10a1.32 1.32 0 0 0 0.25 -0.28 1.35 1.35 0 0 0 0.19 -0.33 4.68 4.68 0 0 0 0.25 -0.83 0.35 0.35 0 0 0 -0.15 -0.47 0.36 0.36 0 0 0 -0.54 0.12c-0.18 0.2 -0.36 0.36 -0.55 0.55L4.26 9a2.26 2.26 0 0 0 -0.16 0.26c-0.5 0.89 -0.5 1 -0.38 1.12S4.7 10.16 5 10Z" fill="#4C57E6" stroke-width="1"></path>
    <path d="M6.84 9.54a13.55 13.55 0 0 1 -1.24 2l-0.41 0.64c-0.15 0.22 -0.26 0.45 -0.41 0.66a6.28 6.28 0 0 1 -0.59 0.77 0.32 0.32 0 0 0 0 0.44 0.31 0.31 0 0 0 0.43 0A7.14 7.14 0 0 0 6 12.87a5.05 5.05 0 0 0 0.49 -0.63 6 6 0 0 0 0.38 -0.71 9 9 0 0 0 0.58 -1.75 0.35 0.35 0 0 0 -0.21 -0.44 0.33 0.33 0 0 0 -0.4 0.2Z" fill="#4C57E6" stroke-width="1"></path>
    <path d="M17.87 11.36c-0.06 -0.12 -0.13 -0.23 -0.2 -0.35 -0.17 -0.29 -0.37 -0.54 -0.54 -0.83a0.34 0.34 0 1 0 -0.65 0.23 7.58 7.58 0 0 0 0.19 1 3.66 3.66 0 0 0 0.15 0.43 2.55 2.55 0 0 0 0.24 0.39 3.84 3.84 0 0 0 0.81 0.75 0.3 0.3 0 0 0 0.43 0.05 0.3 0.3 0 0 0 0 -0.43c-0.14 -0.3 -0.19 -0.6 -0.31 -0.91a2.43 2.43 0 0 0 -0.12 -0.33Z" fill="#4C57E6" stroke-width="1"></path>
    <path d="M18.74 9.46s0.26 0 0 -1a0.68 0.68 0 0 0 -0.07 -0.2 1 1 0 0 0 -0.13 -0.18c-0.51 -0.61 -0.62 -0.67 -0.83 -0.59s-0.32 0.17 -0.16 1.06a1.09 1.09 0 0 0 0.07 0.24 1 1 0 0 0 0.15 0.21s0.71 0.63 0.97 0.46Z" fill="#4C57E6" stroke-width="1"></path>
    <path d="m8.93 17.34 -0.01 -0.01 0 0.01 0.01 0z" fill="#020202" stroke-width="1"></path>
    <path d="M15.68 16.56a2.57 2.57 0 0 0 -0.74 -0.47 4.58 4.58 0 0 0 -1.19 -0.25 0.34 0.34 0 0 0 -0.38 0.3 0.35 0.35 0 0 0 0.3 0.39 3.71 3.71 0 0 1 0.81 0.21 1.56 1.56 0 0 1 0.61 0.42 0.8 0.8 0 0 1 0.16 0.19 3.06 3.06 0 0 1 -1.3 0.57 8.92 8.92 0 0 1 -2.39 0.14 6.36 6.36 0 0 1 -1.21 -0.12 3.11 3.11 0 0 1 -1 -0.36 1.43 1.43 0 0 1 -0.35 -0.22s0 0.06 0 0.05l0 -0.05 0 -0.1a2.34 2.34 0 0 1 0.53 -0.21l0.73 -0.15c0.29 0 0.58 -0.07 0.88 -0.09l0.89 0a0.29 0.29 0 0 0 0.32 -0.28 0.31 0.31 0 0 0 -0.29 -0.33c-0.3 0 -0.62 -0.05 -0.93 -0.06s-0.63 0 -0.94 0l-0.85 0.08a2 2 0 0 0 -1.34 0.69c-0.25 0.39 -0.23 1 0.68 1.61a3.83 3.83 0 0 0 1.15 0.48 6.74 6.74 0 0 0 1.71 0.22 9.64 9.64 0 0 0 2.67 -0.3 3.7 3.7 0 0 0 1.68 -0.92 0.76 0.76 0 0 0 0.22 -0.78 1.61 1.61 0 0 0 -0.43 -0.66Z" fill="#020202" stroke-width="1"></path>
  </g>
</svg>