<svg xmlns="http://www.w3.org/2000/svg" viewBox="0 0 24 24" id="Sport-Water-Wakeboarding-1--Streamline-Freehand">
  <desc>
    Sport Water Wakeboarding 1 Streamline Icon: https://streamlinehq.com
  </desc>
  <title>sport-water-wakeboarding-1</title>
  <g>
    <path d="m5.08 8 0.36 0.33a15.05 15.05 0 0 0 4.1 2.8 0.72 0.72 0 0 0 0.32 0.1 0.33 0.33 0 0 0 0.33 -0.33c0 -0.37 -0.71 -0.59 -3.09 -2.55 -0.13 -0.08 -0.82 -0.55 -1.23 -0.75l0.45 -0.4C7 6.61 7.73 6 8.41 5.46 10.6 3.71 10 4.1 10.49 3.83a0.32 0.32 0 0 0 -0.2 -0.57 2.77 2.77 0 0 0 -0.9 0.49C9.29 3.82 7 5.33 5.94 6.1A10.35 10.35 0 0 0 5 7c-0.12 0 -4.17 0.28 -4.27 0.29 -0.74 0.07 -0.39 0.62 -0.05 0.63 2.5 0.08 3.19 0 3.53 0Z" fill="#020202" stroke-width="1"></path>
    <path d="M9.48 7c0 0.61 0.63 1.12 1.51 1.44a14.93 14.93 0 0 0 4.18 0.66 7.74 7.74 0 0 1 1 0.14l-0.21 1 0 0.24 -1 0.33a9.13 9.13 0 0 0 -3 1.24 8.23 8.23 0 0 0 -1.82 5.37 1.63 1.63 0 0 0 1.64 1.71 1.49 1.49 0 0 0 1.44 -0.72 5.17 5.17 0 0 0 0.44 -0.95c0.16 -0.46 0.89 -2 0.89 -2l0.66 -0.2a3.52 3.52 0 0 0 -0.37 1.86 15 15 0 0 0 2.38 3.23 2.89 2.89 0 0 0 0.8 0.6 1.27 1.27 0 0 0 0.86 0.09 1.9 1.9 0 0 0 1.26 -1c0.63 -1.31 0 -2 -1.58 -4.72A35.11 35.11 0 0 0 20.13 10c0.06 -0.41 0.2 -0.84 0.24 -1.27a2.23 2.23 0 0 0 0 -0.63 2.47 2.47 0 0 0 -0.8 -1.39 1 1 0 0 1 -0.13 -0.09 2.48 2.48 0 0 0 1.54 -1.18 3 3 0 0 0 -0.06 -3.24 2.89 2.89 0 0 0 -5 0.89 2.28 2.28 0 0 0 0.21 1.8 3.28 3.28 0 0 0 1 1c-1 -0.11 -2.6 -0.28 -3.9 -0.37C11.37 5.4 9.38 5.21 9.48 7Zm8.13 -4.61A1.9 1.9 0 0 1 20.2 5c-1.4 2.72 -5.38 -1.14 -2.59 -2.58Zm-6.45 3.79a17.45 17.45 0 0 1 2.69 0.06c4.07 0.27 4.54 0.33 5.24 1 1 0.89 0.47 1.85 0.33 2.67A33.79 33.79 0 0 1 17.74 15c-0.25 0.51 0.41 1.31 0.6 1.7s0.58 0.91 0.83 1.39a2.16 2.16 0 0 1 0.21 0.55 1.34 1.34 0 0 1 -0.09 0.93c-0.53 1 -1.22 0.35 -1.91 -0.49 -1.67 -2.06 -1.67 -2.16 -1.51 -2.71 0.38 -1.27 1 -2 0.56 -2.4s-0.72 0 -1.07 0.07l-0.95 0.31a1.36 1.36 0 0 0 -0.69 0.39c-0.7 1 -0.53 1.43 -1.48 3.12 -0.14 0.27 -0.78 0.18 -1 -0.07 -0.29 -0.43 0 -2.4 0.43 -3.36 0.72 -1.71 1 -1.78 1.82 -2.11a17.52 17.52 0 0 0 3.21 -1.21 0.57 0.57 0 0 0 0.14 -0.26A16 16 0 0 0 17.2 9a0.62 0.62 0 0 0 -0.5 -0.62 11.59 11.59 0 0 0 -1.53 -0.19 15.71 15.71 0 0 1 -3.38 -0.36c-0.46 -0.11 -1.51 -0.43 -1.55 -0.89 -0.06 -0.71 0.36 -0.61 0.92 -0.76Z" fill="#020202" stroke-width="1"></path>
    <path d="M23.22 18.36c-2.11 -1.8 -2.44 -0.2 -1.74 -0.2a2.8 2.8 0 0 1 1.49 1 2.52 2.52 0 0 1 -0.36 1.75 1.68 1.68 0 0 1 -0.78 0.66 5.48 5.48 0 0 1 -1.55 0.37 7.3 7.3 0 0 1 -1.62 0l-2.2 -0.06c-2.27 -0.23 -8.89 -1.44 -11 -2.58 -0.77 -0.41 -1.13 -0.85 -1.2 -1.3a1.68 1.68 0 0 1 0.83 -1.49 3 3 0 0 1 1.33 -0.23 14.12 14.12 0 0 1 2.26 0.11 0.28 0.28 0 0 0 0.35 -0.21 0.29 0.29 0 0 0 -0.21 -0.34A15 15 0 0 0 6 15.58a2.9 2.9 0 0 0 -1.32 0.27c-1.61 1 -1.86 2.91 0.3 4.21 2.54 1.49 8.46 2.52 11.33 2.8h2.2c1.59 0.14 3.88 -0.1 4.73 -1.55 0.51 -0.79 0.85 -2.22 -0.02 -2.95Z" fill="#4C57E6" stroke-width="1"></path>
  </g>
</svg>