<svg xmlns="http://www.w3.org/2000/svg" viewBox="0 0 24 24" id="Stamps-Image--Streamline-Freehand">
  <desc>
    Stamps Image Streamline Icon: https://streamlinehq.com
  </desc>
  <g>
    <path d="M23.7 1a0.55 0.55 0 0 0 -0.54 -0.51L19.63 0.4a0.6 0.6 0 0 0 -0.5 0.27 5.42 5.42 0 0 1 -0.91 1.08 2 2 0 0 1 -1.08 0.54 2.43 2.43 0 0 1 -1 -0.12 1.46 1.46 0 0 1 -0.69 -0.57l-0.67 -1a0.58 0.58 0 0 0 -0.47 -0.24H9a0.56 0.56 0 0 0 -0.47 0.26l-0.63 1a1.2 1.2 0 0 1 -0.61 0.55 1.88 1.88 0 0 1 -0.9 0.13 1.15 1.15 0 0 1 -0.79 -0.5A3.64 3.64 0 0 1 5 0.75a0.55 0.55 0 0 0 -0.52 -0.37L0.81 0.54a0.52 0.52 0 0 0 -0.5 0.46s-0.13 0.88 -0.22 1.71C0 3.18 0 3.63 0 3.91l0 0.86a0.51 0.51 0 0 0 0.29 0.44l1.31 0.65a1.34 1.34 0 0 1 0.53 0.86 3.31 3.31 0 0 1 0 1.21 1.72 1.72 0 0 1 -0.13 0.63 1.57 1.57 0 0 1 -0.53 0.44l-0.66 0.32a0.46 0.46 0 0 0 -0.28 0.42l-0.1 3.44a0.46 0.46 0 0 0 0.2 0.4l1.19 0.82a2.35 2.35 0 0 1 0.63 1.11 2.83 2.83 0 0 1 0 1.32 1.37 1.37 0 0 1 -0.61 0.77 3.69 3.69 0 0 1 -1.07 0.46 0.43 0.43 0 0 0 -0.32 0.4l0 4.39a0.37 0.37 0 0 0 0.29 0.38l1 0.16 2.86 0.09a0.36 0.36 0 0 0 0.34 -0.19 3.41 3.41 0 0 1 0.66 -0.79 2.39 2.39 0 0 1 0.86 -0.5 1.38 1.38 0 0 1 0.7 0 2.19 2.19 0 0 1 0.71 0.27 2 2 0 0 1 0.37 0.39 6.5 6.5 0 0 1 0.5 0.79 0.35 0.35 0 0 0 0.3 0.16l5.24 0a0.32 0.32 0 0 0 0.28 -0.17 6.22 6.22 0 0 1 0.54 -0.78 2 2 0 0 1 0.42 -0.4 2.23 2.23 0 0 1 0.78 -0.26 1.71 1.71 0 0 1 0.78 0 2.79 2.79 0 0 1 1 0.52 3.13 3.13 0 0 1 0.72 0.8 0.36 0.36 0 0 0 0.34 0.18l4.07 -0.23a0.39 0.39 0 0 0 0.37 -0.4l-0.05 -4.4a0.42 0.42 0 0 0 -0.34 -0.41 4.17 4.17 0 0 1 -1.19 -0.44 1.35 1.35 0 0 1 -0.67 -0.76 2.56 2.56 0 0 1 0.06 -1.31 2.21 2.21 0 0 1 0.67 -1.08l1.28 -0.82a0.47 0.47 0 0 0 0.23 -0.43l-0.1 -3.45a0.51 0.51 0 0 0 -0.32 -0.45L22.44 9a1.79 1.79 0 0 1 -0.52 -0.47 1.63 1.63 0 0 1 -0.27 -0.62 3 3 0 0 1 0 -1.19 1.28 1.28 0 0 1 0.57 -0.81l1.41 -0.66A0.55 0.55 0 0 0 24 4.7Zm-2 4a2.29 2.29 0 0 0 -0.93 1.14 3.81 3.81 0 0 0 -0.14 2 2.66 2.66 0 0 0 0.46 1.05 2.7 2.7 0 0 0 0.84 0.74l0.55 0.25 0.12 2.82 -1.15 0.76a3.09 3.09 0 0 0 -0.94 1.55 3.48 3.48 0 0 0 -0.05 1.78 2.18 2.18 0 0 0 0.82 1.12 4.6 4.6 0 0 0 1.36 0.63l0.09 3.7 -3.48 0.25a3.91 3.91 0 0 0 -0.77 -0.8 3.59 3.59 0 0 0 -1.2 -0.63 2.43 2.43 0 0 0 -1.11 0 3.29 3.29 0 0 0 -1 0.38 2.82 2.82 0 0 0 -0.56 0.54 5.67 5.67 0 0 0 -0.5 0.73L9.26 23a7.39 7.39 0 0 0 -0.47 -0.75 2.5 2.5 0 0 0 -0.54 -0.54 2.59 2.59 0 0 0 -1 -0.39 2.1 2.1 0 0 0 -1.06 0 3.2 3.2 0 0 0 -1.08 0.68 4.06 4.06 0 0 0 -0.7 0.79l-2.69 -0.12 -0.49 -0.09 0.08 -3.77a3.94 3.94 0 0 0 1.29 -0.66 2.06 2.06 0 0 0 0.72 -1.08 3.67 3.67 0 0 0 0 -1.74 3.27 3.27 0 0 0 -0.88 -1.55L1.34 13l0.11 -2.92 0.55 -0.23a2.69 2.69 0 0 0 0.78 -0.76 2.48 2.48 0 0 0 0.41 -1A4 4 0 0 0 3 6.17 2.13 2.13 0 0 0 2.18 5L1 4.43l0 -0.52c0 -0.25 0.05 -0.66 0.1 -1.08s0.12 -0.92 0.16 -1.25l2.86 -0.1A4.48 4.48 0 0 0 5 2.75a2.13 2.13 0 0 0 1.33 0.65 3 3 0 0 0 1.42 -0.2 2.46 2.46 0 0 0 1.13 -1l0.45 -0.71H14l0.49 0.73a2.58 2.58 0 0 0 1.23 1 3.39 3.39 0 0 0 1.48 0.19 2.79 2.79 0 0 0 1.46 -0.59 6.21 6.21 0 0 0 1.23 -1.29l2.73 0.08 0.24 2.81Z" fill="#4C57E6" stroke-width="1"></path>
    <path d="M18.84 6.76a2.47 2.47 0 0 0 -0.17 -0.71 0.61 0.61 0 0 0 -0.26 -0.27 15.75 15.75 0 0 0 -4 -0.17c-3.48 0.1 -8.15 0.43 -8.81 0.46s-0.6 0.29 -0.6 0.52c0 2.34 -0.06 8.44 -0.06 11.07l0 1.13a0.72 0.72 0 0 0 0.1 0.36 1.47 1.47 0 0 0 0.84 0.29c0.85 0.09 2.67 0.17 4.67 0.21 2.65 0.05 5.61 0 7 0a7.1 7.1 0 0 0 0.76 -0.05 0.7 0.7 0 0 0 0.37 -0.16 1.79 1.79 0 0 0 0.32 -1c0.12 -1.1 0.17 -3.48 0.14 -5.85s-0.14 -4.73 -0.3 -5.83ZM18 13.89c0 1.94 -0.08 3.72 -0.19 4.55l-0.85 0c-2.5 0.07 -8 0.11 -10.38 0l-0.74 0 0 -0.91c-0.07 -2.56 -0.12 -8.45 -0.24 -10.9 0.12 0 5.19 -0.25 8.86 -0.27a23.55 23.55 0 0 1 3.35 0.11 4 4 0 0 1 0.1 0.43c0.09 1.44 0.16 4.37 0.09 6.99Z" fill="#020202" stroke-width="1"></path>
    <path d="m16.43 12.64 -0.3 -0.53a1 1 0 0 0 -1.13 -0.47 1.93 1.93 0 0 0 -0.93 0.8c-0.11 0.17 -0.17 0.47 -0.3 0.23s-0.12 -0.22 -0.19 -0.33a1.23 1.23 0 0 0 -0.31 -0.33 1.15 1.15 0 0 0 -1.48 -0.01 2.3 2.3 0 0 0 -0.79 1.51 0.29 0.29 0 0 0 0.58 0.07 1.6 1.6 0 0 1 0.5 -0.83 0.31 0.31 0 0 1 0.46 0.05c0.1 0.09 0.11 0.23 0.16 0.35a1.61 1.61 0 0 0 0.32 0.48 1 1 0 0 0 0.79 0.3 1.47 1.47 0 0 0 1.05 -0.81 5.4 5.4 0 0 1 0.3 -0.47c0.29 -0.34 0.6 0.5 0.74 0.9a0.33 0.33 0 1 0 0.65 -0.12 3.25 3.25 0 0 0 -0.06 -0.45 2.19 2.19 0 0 0 -0.06 -0.34Z" fill="#020202" stroke-width="1"></path>
    <path d="M15 14.38a2 2 0 0 0 -0.93 0.81c-0.18 0.26 -0.18 0.46 -0.3 0.23s-0.12 -0.22 -0.19 -0.33a1.45 1.45 0 0 0 -0.31 -0.34 1.16 1.16 0 0 0 -1.45 -0.05 2.3 2.3 0 0 0 -0.82 1.56 0.28 0.28 0 0 0 0.26 0.32 0.28 0.28 0 0 0 0.32 -0.25 1.6 1.6 0 0 1 0.5 -0.83 0.31 0.31 0 0 1 0.46 0.05c0.1 0.08 0.11 0.23 0.16 0.35a1.61 1.61 0 0 0 0.32 0.48 1 1 0 0 0 0.79 0.3 1.47 1.47 0 0 0 1.05 -0.81c0.32 -0.5 0.4 -0.73 0.61 -0.45a2.82 2.82 0 0 1 0.43 0.88 0.33 0.33 0 1 0 0.65 -0.12c-0.09 -1.13 -0.69 -2.03 -1.55 -1.8Z" fill="#020202" stroke-width="1"></path>
    <path d="M10.93 8.75a0.34 0.34 0 0 0 -0.47 -0.07 0.34 0.34 0 0 0 -0.07 0.47 1.17 1.17 0 0 1 0.13 1 1.52 1.52 0 0 1 -0.69 0.81 1.55 1.55 0 0 1 -0.91 0.16 1.59 1.59 0 0 1 -0.86 -0.33 1.11 1.11 0 0 1 -0.14 -1.62 1.57 1.57 0 0 1 1.81 -0.78 0.28 0.28 0 0 0 0.39 -0.12 0.3 0.3 0 0 0 -0.12 -0.4 2.28 2.28 0 0 0 -2.83 0.73 2.09 2.09 0 0 0 0.19 3.08 2.69 2.69 0 0 0 1.49 0.53 2.39 2.39 0 0 0 2.45 -1.85 1.89 1.89 0 0 0 -0.37 -1.61Z" fill="#020202" stroke-width="1"></path>
  </g>
</svg>