<svg xmlns="http://www.w3.org/2000/svg" viewBox="0 0 24 24" id="Stove-Pan--Streamline-Freehand">
  <desc>
    Stove Pan Streamline Icon: https://streamlinehq.com
  </desc>
  <g>
    <path d="m15.53 22.49 -1.48 -0.06 0 -1a4.55 4.55 0 0 0 -0.1 -1 1.57 1.57 0 0 0 -0.51 -0.77 1.4 1.4 0 0 0 -0.89 -0.13c-0.63 0.07 -1.61 0.32 -2.08 0.4a0.32 0.32 0 0 0 -0.29 0.31 0.3 0.3 0 0 0 0.31 0.29c0.43 0 1.28 0.1 1.91 0.12h0.43a0.88 0.88 0 0 1 0.11 0.24 6.75 6.75 0 0 1 0.19 0.66l0.2 0.85 -2 0 -2.79 0h-0.07a3.14 3.14 0 0 0 0 -0.53 5.55 5.55 0 0 0 -0.13 -0.8c-0.06 -0.26 -0.13 -0.51 -0.18 -0.78a0.3 0.3 0 0 0 -0.28 -0.29 0.3 0.3 0 0 0 -0.29 0.31 7.8 7.8 0 0 0 -0.09 0.83 5.47 5.47 0 0 0 0 0.81 3.4 3.4 0 0 0 0.09 0.46H6.17c-0.81 0 -1.62 0 -2.42 0.06l-1.5 0.07c0.06 -0.47 0.11 -1.06 0.16 -1.44l0.51 -0.1 2 -0.21a0.34 0.34 0 0 0 0.34 -0.34 0.35 0.35 0 0 0 -0.35 -0.34l-2 -0.21A2.77 2.77 0 0 0 2 20a1.09 1.09 0 0 0 -0.53 0.34 0.9 0.9 0 0 0 -0.16 0.58c0 0.38 0.16 1.13 0.23 1.66l-1 0.08a0.31 0.31 0 1 0 0 0.61l1.24 0 0.05 0 0.09 0c1.41 0 2.82 0.17 4.23 0.23l2.45 0 6.94 -0.35a0.35 0.35 0 0 0 0.34 -0.34 0.35 0.35 0 0 0 -0.35 -0.32Z" fill="#020202" fill-rule="evenodd" stroke-width="1"></path>
    <path d="M24 12.31a1.69 1.69 0 0 0 -0.88 -1 3.61 3.61 0 0 0 -1.41 -0.31c-0.95 -0.09 -1.94 0.16 -2.9 0.16a4.29 4.29 0 0 1 -0.71 0 2.16 2.16 0 0 1 -0.61 -0.19 8.06 8.06 0 0 0 -0.78 -0.53 0.86 0.86 0 0 0 -0.62 -0.08 1.08 1.08 0 0 0 -0.45 0.29 6.15 6.15 0 0 0 -0.56 0.71 0.29 0.29 0 0 0 0 0.42 0.3 0.3 0 0 0 0.42 0c0.12 -0.14 0.29 -0.37 0.47 -0.55a0.56 0.56 0 0 1 0.25 -0.17c0.07 0 0.13 0.05 0.2 0.1 0.23 0.16 0.44 0.4 0.62 0.52a2.9 2.9 0 0 0 0.67 0.31 5.27 5.27 0 0 0 1 0.17c0.8 0.05 1.63 0 2.44 0a2.94 2.94 0 0 1 1.31 0.34 1.43 1.43 0 0 1 0.24 0.16s0.08 0.05 0.08 0.09 -0.07 0.13 -0.16 0.21a2 2 0 0 1 -1 0.3 19.35 19.35 0 0 1 -2 0.25c-0.61 0 -1.47 0.07 -2.33 0.08s-1.43 0 -2 0a7.78 7.78 0 0 0 -0.07 -0.78 3 3 0 0 0 -0.21 -0.87 1.34 1.34 0 0 0 -0.53 -0.6 1 1 0 0 0 -0.46 -0.14l-0.61 0 -1 0 -1.41 -0.15 -3.24 0.12c-1.55 0.06 -2.91 0.17 -4.36 0.23l-1.86 0a0.3 0.3 0 0 0 0 0.6l1.89 0c1.44 0 2.81 -0.06 4.36 -0.05l3.23 0 1.47 0c0.31 0 0.61 0 0.92 0.05s0.56 -0.23 0.71 0.21a2 2 0 0 1 0.08 0.48 6.43 6.43 0 0 1 0 1.81 1.34 1.34 0 0 1 -0.38 0.82 2.79 2.79 0 0 1 -1 0.44 14.55 14.55 0 0 1 -1.93 0.3c-0.53 0.06 -1 0.09 -1.4 0.12 -0.68 0 -1.31 0.06 -2.14 0.09s-1.5 0.16 -2.27 0.18a5.33 5.33 0 0 1 -0.89 0c-0.54 -0.07 -1.35 0 -2.07 -0.1a1.53 1.53 0 0 1 -1 -0.43 2.06 2.06 0 0 1 -0.4 -1.38c0 -0.89 0.2 -1.88 0.22 -2.6a0.34 0.34 0 0 0 -0.32 -0.36 0.35 0.35 0 0 0 -0.32 0.42 24 24 0 0 0 -0.3 3.07 2.52 2.52 0 0 0 0.52 1.45 2.07 2.07 0 0 0 1.08 0.65 16.65 16.65 0 0 0 2.45 0.26 6.19 6.19 0 0 0 1.05 0.08c0.76 0 1.51 -0.1 2.28 -0.11s1.48 0 2.16 0c0.45 0 0.91 -0.05 1.46 -0.11a12.56 12.56 0 0 0 2.1 -0.31 3.87 3.87 0 0 0 1.45 -0.65 2.37 2.37 0 0 0 0.8 -1.51 5.05 5.05 0 0 0 0.06 -0.67c0.59 0.06 1.29 0.11 2 0.15 0.89 0.06 1.76 0.09 2.4 0.08a16.65 16.65 0 0 0 2.46 -0.19 2.68 2.68 0 0 0 1.22 -0.52 1.32 1.32 0 0 0 0.51 -1.36Z" fill="#020202" fill-rule="evenodd" stroke-width="1"></path>
    <path d="M2.15 5.43a9.41 9.41 0 0 1 1 1.28 1.59 1.59 0 0 1 0.09 1.55 4.36 4.36 0 0 1 -0.24 0.41 0.34 0.34 0 0 0 0.09 0.47 0.33 0.33 0 0 0 0.47 -0.08A4 4 0 0 0 4 8.52a2.23 2.23 0 0 0 0.21 -0.44 2.48 2.48 0 0 0 -0.1 -1.81A7.17 7.17 0 0 0 3 4.69a3.62 3.62 0 0 1 -0.8 -1.28 1.5 1.5 0 0 1 -0.05 -0.93A6 6 0 0 1 3 0.94a0.3 0.3 0 0 0 0 -0.42 0.31 0.31 0 0 0 -0.43 0 7 7 0 0 0 -1.2 1.6 2.41 2.41 0 0 0 -0.17 1.52 4.44 4.44 0 0 0 0.95 1.79Z" fill="#4C57E6" fill-rule="evenodd" stroke-width="1"></path>
    <path d="M7.25 5.8a2.17 2.17 0 0 1 0.25 0.45 1.83 1.83 0 0 1 0.08 0.92 3.78 3.78 0 0 1 -0.37 1 0.35 0.35 0 0 0 0.12 0.47 0.34 0.34 0 0 0 0.47 -0.11 4.08 4.08 0 0 0 0.66 -1.4A2.64 2.64 0 0 0 8.47 6a2.55 2.55 0 0 0 -0.31 -0.78c-0.26 -0.44 -0.65 -0.8 -0.91 -1.26A1.86 1.86 0 0 1 7 2.51a2.51 2.51 0 0 1 0.83 -1.41 0.29 0.29 0 0 0 0.07 -0.42 0.31 0.31 0 0 0 -0.42 -0.07 3.16 3.16 0 0 0 -1.4 1.63 2.79 2.79 0 0 0 0.18 2.28c0.28 0.48 0.68 0.84 0.99 1.28Z" fill="#4C57E6" fill-rule="evenodd" stroke-width="1"></path>
    <path d="M11.16 5.52A5 5 0 0 1 12 6.81a1.48 1.48 0 0 1 0.06 0.83 3.59 3.59 0 0 1 -0.36 0.92 0.35 0.35 0 0 0 0.12 0.47 0.34 0.34 0 0 0 0.47 -0.11 4.28 4.28 0 0 0 0.63 -1.31 2.41 2.41 0 0 0 0 -1.07 5.28 5.28 0 0 0 -0.78 -1.66 6 6 0 0 1 -0.73 -1.29 1.73 1.73 0 0 1 0 -1.08 2.85 2.85 0 0 1 0.12 -0.31 1.59 1.59 0 0 1 0.18 -0.27 3.81 3.81 0 0 1 0.44 -0.46 5.08 5.08 0 0 1 0.51 -0.41 0.29 0.29 0 0 0 0.04 -0.41 0.3 0.3 0 0 0 -0.41 -0.1c-0.21 0.11 -0.41 0.24 -0.62 0.37a4.92 4.92 0 0 0 -0.58 0.44 2.37 2.37 0 0 0 -0.34 0.37 1.9 1.9 0 0 0 -0.26 0.43 2.53 2.53 0 0 0 -0.22 1.73 4.68 4.68 0 0 0 0.89 1.63Z" fill="#4C57E6" fill-rule="evenodd" stroke-width="1"></path>
  </g>
</svg>