<svg xmlns="http://www.w3.org/2000/svg" viewBox="0 0 24 24" id="Strategy-Maze--Streamline-Freehand">
  <desc>
    Strategy Maze Streamline Icon: https://streamlinehq.com
  </desc>
  <g>
    <path d="M16.89 15.65a0.38 0.38 0 0 0 -0.39 -0.37l-1.29 0 -0.59 -0.09 -0.31 -0.07 -0.06 -0.45 -0.32 -2.17a0.33 0.33 0 0 0 -0.31 -0.36 0.34 0.34 0 0 0 -0.36 0.32c-0.09 0.46 -0.15 0.91 -0.2 1.37l-0.06 0.92 0 0.61a1.78 1.78 0 0 0 0 0.29 0.58 0.58 0 0 0 0.16 0.26 1.57 1.57 0 0 0 0.9 0.44 4.69 4.69 0 0 0 1.07 0l1.32 -0.24a0.38 0.38 0 0 0 0.44 -0.46Z" fill="#020202" fill-rule="evenodd" stroke-width="1"></path>
    <path d="M10.09 14.18a4 4 0 0 0 0 -0.6c-0.07 -0.48 -2.11 -0.26 -2.57 -0.29a7.31 7.31 0 0 0 -0.81 0 7.38 7.38 0 0 0 -0.82 0c-0.63 0.07 -1.24 0.2 -1.87 0.27a0.34 0.34 0 0 0 -0.35 0.33 0.34 0.34 0 0 0 0.33 0.35 16.09 16.09 0 0 0 2.18 0.3 11.12 11.12 0 0 0 1.29 0l1.38 -0.13 0 0.42c0.07 0.47 0.17 0.93 0.25 1.39a0.39 0.39 0 0 0 0.39 0.38 0.38 0.38 0 0 0 0.38 -0.39c0.06 -0.47 0.16 -0.92 0.2 -1.4q0.02 -0.33 0.02 -0.63Z" fill="#020202" fill-rule="evenodd" stroke-width="1"></path>
    <path d="M12.12 17.31a0.34 0.34 0 0 0 -0.36 -0.32 0.33 0.33 0 0 0 -0.32 0.35c-0.06 0.69 -0.16 1.36 -0.21 2.05a8.42 8.42 0 0 0 0 0.87 8.46 8.46 0 0 0 0 0.87c0.05 0.69 0.14 1.36 0.19 2a0.4 0.4 0 0 0 0.38 0.4 0.39 0.39 0 0 0 0.39 -0.38c0.1 -0.69 0.2 -1.37 0.25 -2.06l0 -0.89a8.64 8.64 0 0 0 0 -0.88c-0.05 -0.66 -0.2 -1.32 -0.32 -2.01Z" fill="#4C57E6" fill-rule="evenodd" stroke-width="1"></path>
    <path d="M9.44 4.35c0.42 -0.33 0.85 -0.6 1.26 -0.94a5.33 5.33 0 0 0 0.49 -0.41c0.15 -0.17 0.3 -0.34 0.44 -0.52l0.11 -0.18c0 0.27 -0.09 0.55 -0.12 0.83s-0.06 0.64 -0.08 1 0 0.64 0 1c0 0.76 0.12 1.49 0.15 2.24a0.35 0.35 0 0 0 0.31 0.23 0.34 0.34 0 0 0 0.36 -0.31c0.16 -0.75 0.32 -1.48 0.42 -2.24 0 -0.32 0.05 -0.64 0.07 -1s0 -0.64 0 -1 0 -0.61 -0.05 -0.92c0 0.06 0.06 0.12 0.1 0.17a5.09 5.09 0 0 0 0.65 0.82A8.21 8.21 0 0 0 15 4.28a0.35 0.35 0 0 0 0.48 0 0.35 0.35 0 0 0 0 -0.48c-0.32 -0.4 -0.54 -0.82 -0.81 -1.23l-0.38 -0.49c-0.14 -0.17 -0.29 -0.32 -0.44 -0.47 -0.36 -0.36 -0.74 -0.69 -1.13 -1a0.36 0.36 0 0 0 -0.44 -0.07 0.36 0.36 0 0 0 -0.35 0.12c-0.37 0.37 -0.79 0.67 -1.19 1a10.49 10.49 0 0 0 -0.74 0.75 13.82 13.82 0 0 0 -1 1.52 0.35 0.35 0 0 0 0 0.48 0.34 0.34 0 0 0 0.44 -0.06Z" fill="#4C57E6" fill-rule="evenodd" stroke-width="1"></path>
    <path d="m24 20.2 -0.15 -2.47a0.38 0.38 0 0 0 -0.11 -0.24 28.4 28.4 0 0 0 -1.24 -4.64 21.87 21.87 0 0 0 -1.2 -2.71c-0.3 -0.59 -0.65 -1.15 -1 -1.71s-0.68 -1.24 -1.06 -1.85c-0.67 -1.08 -0.44 -1.11 -0.76 -1.14s-0.82 -0.24 -1.25 -0.33a3.47 3.47 0 0 0 -0.56 -0.11 3.62 3.62 0 0 0 -0.57 0 7.44 7.44 0 0 0 -1.3 0.31c-0.67 0.05 0.06 0.34 -0.06 1.51a3.1 3.1 0 0 0 0 0.43 3.28 3.28 0 0 0 0 0.43c0 0.25 0.06 1.13 0.1 1.38l-0.88 0L12.74 9l-1.58 0c-0.05 0 -1.83 0.25 -1.91 0.5a4.25 4.25 0 0 0 -0.44 0.74 2.42 2.42 0 0 0 -0.1 0.36 1.09 1.09 0 0 0 0 0.36s0.22 1.18 0.65 1.15c0.2 0 0.26 -0.06 0.59 -1a1.47 1.47 0 0 0 0.05 -0.29 5.77 5.77 0 0 0 0 -0.82c0.86 0 0.69 0.17 1.56 0.22l1.22 0 1.31 -0.15 1.29 -0.22a0.38 0.38 0 0 0 0.41 -0.35c0 -0.08 0.14 -1.46 0.2 -1.78a2 2 0 0 0 0 -0.48 2 2 0 0 0 0.01 -0.46 3.85 3.85 0 0 0 -0.2 -0.57 3 3 0 0 0 0.32 0.06 4.35 4.35 0 0 0 0.52 0.06h0.53c0.36 0 0.69 -0.06 1 -0.09a6 6 0 0 1 0.38 0.71c0.25 0.55 0.59 1.68 0.82 2.23l-2 0.11c-1.22 0.52 -1.15 0.88 0.17 1.1l2.19 -0.39c0.15 0.34 0.16 0.11 0.32 0.46l0.69 1.54c0.47 1 0.93 2 1.33 3.07 0.31 0.8 0.58 1.6 0.82 2.4 -0.74 -0.13 -1.47 -0.26 -2.21 -0.33l0.19 -0.94a4.36 4.36 0 0 0 0 -0.51c-0.06 -0.38 -0.22 -0.7 -0.27 -1.09a0.34 0.34 0 0 0 -0.3 -0.37c-0.11 0 -1.05 -0.07 -1.39 -0.15a1.37 1.37 0 0 0 0.05 -0.19c0 -0.21 -0.32 -2 -0.32 -2a0.34 0.34 0 0 0 -0.68 0l-0.29 2.09a4 4 0 0 0 0 0.51 0.94 0.94 0 0 0 0.07 0.3 0.67 0.67 0 0 0 0.4 0.41 2.48 2.48 0 0 0 0.6 0.08l1 0c0 0.14 -0.09 0.27 -0.11 0.42s0 0.43 0 0.64l0.16 0.86 -0.99 -0.2a3.92 3.92 0 0 0 -1.37 0.18 1.62 1.62 0 0 0 -0.93 0.79 3.22 3.22 0 0 0 -0.27 1.23c-0.08 3.58 0.23 2.72 2.29 2.78 1 0 2.06 -0.09 3 -0.09a7.22 7.22 0 0 0 1.48 -0.08 1.64 1.64 0 0 0 0.76 -0.45A0.59 0.59 0 0 0 24 21a5.38 5.38 0 0 0 0 -0.8Zm-2.48 0.41c-0.35 0 -0.72 0.05 -1.09 0.1 -0.79 0.1 -1.59 0.27 -2.39 0.3a6.82 6.82 0 0 1 -0.79 -0.07l0 -1.32a2.47 2.47 0 0 1 0.3 -1.08c0.08 -0.13 0.25 -0.14 0.4 -0.18a4 4 0 0 1 0.82 -0.05l1 0c0.75 0 1.49 -0.07 2.24 -0.08l1.12 0 0 0.72c-0.25 2.1 0.06 1.6 -1.63 1.66Z" fill="#020202" fill-rule="evenodd" stroke-width="1"></path>
    <path d="M7.08 17a5.21 5.21 0 0 0 -1.52 -0.26c-0.62 0 -1.24 0.06 -1.86 0.12 -0.85 0.09 -1.68 0.23 -2.52 0.39 0.23 -0.74 0.47 -1.47 0.75 -2.2C2.33 14 2.79 13 3.26 12L4 10.48c0.16 -0.37 0.08 -0.09 0.24 -0.45l0.77 0.12c0.28 0.06 1 0.12 1.27 0.22l0.61 0.08h0.21a0.79 0.79 0 0 0 0.36 -0.2 0.76 0.76 0 0 0 0.16 -0.25 3.19 3.19 0 0 0 0.09 -0.31l0.09 -0.84 0.09 -0.85a0.39 0.39 0 0 0 -0.77 -0.08l-0.5 1.19 -0.13 0a9.54 9.54 0 0 0 -1.31 0c-0.22 0 -0.43 0.08 -0.65 0.12 0.23 -0.55 0.68 -1.74 0.93 -2.29a6 6 0 0 1 0.38 -0.71c0.34 0 0.67 0.07 1 0.09h0.56a4.35 4.35 0 0 0 0.52 -0.06c0.42 -0.06 0.81 -0.19 1.23 -0.24a0.34 0.34 0 1 0 0 -0.68A7.44 7.44 0 0 0 7.9 5a3.62 3.62 0 0 0 -0.57 0 3.47 3.47 0 0 0 -0.55 0.08c-0.43 0.09 -0.83 0.22 -1.25 0.33s-0.09 0.06 -0.76 1.14c-0.38 0.61 -0.68 1.26 -1.06 1.85s-0.69 1.12 -1 1.71a21.87 21.87 0 0 0 -1.2 2.71 28.4 28.4 0 0 0 -1.23 4.67 0.38 0.38 0 0 0 -0.11 0.24L0 20.2a5.38 5.38 0 0 0 0 0.8 0.59 0.59 0 0 0 0.19 0.35 1.64 1.64 0 0 0 0.76 0.45 7.22 7.22 0 0 0 1.47 0.09c1 0 2 0.13 3 0.09 2.54 -0.07 2.72 0.1 2.65 -3a3.21 3.21 0 0 0 -0.26 -1.23 1.56 1.56 0 0 0 -0.73 -0.75Zm-3.49 3.71c-0.37 -0.05 -0.74 -0.08 -1.09 -0.1 -1.69 -0.06 -1.38 0.44 -1.58 -1.61 0 -0.32 0 -0.65 -0.06 -1A0.29 0.29 0 0 0 1 18l1.38 0c0.75 0 1.49 0.06 2.24 0.08l1 0a3.88 3.88 0 0 1 0.82 0.05c0.16 0 0.33 0.05 0.41 0.18a2.62 2.62 0 0 1 0.3 1.08c0.05 0.53 0 1.06 0 1.54A5.62 5.62 0 0 1 6 21c-0.82 0 -1.62 -0.19 -2.41 -0.29Z" fill="#020202" fill-rule="evenodd" stroke-width="1"></path>
  </g>
</svg>