<svg xmlns="http://www.w3.org/2000/svg" viewBox="0 0 24 24" id="Study-Learning-Kids-Block-Toys-Lego--Streamline-Freehand">
  <desc>
    Study Learning Kids Block Toys Lego Streamline Icon: https://streamlinehq.com
  </desc>
  <g>
    <path d="M23.72 16.15a1.83 1.83 0 0 0 -0.42 -0.54 2.17 2.17 0 0 0 -0.58 -0.36h-0.19c0 -0.14 -0.08 -0.3 -0.09 -0.36a4.18 4.18 0 0 0 -0.16 -0.58c-0.1 -0.26 -0.22 -0.52 -0.34 -0.77a8 8 0 0 0 -0.88 -1.37 4.33 4.33 0 0 0 -0.82 -0.78 5.41 5.41 0 0 0 -0.61 -0.36c-0.45 -0.23 -0.93 -0.4 -1.37 -0.63l-1.21 -0.24a5 5 0 0 0 -3.13 0.7 5.53 5.53 0 0 0 -2.18 2.3 2.2 2.2 0 0 0 -0.17 0.45c-0.1 0.4 -0.11 0.85 -0.24 1.22l-0.5 0.11a2 2 0 0 0 -0.63 0.38 2.37 2.37 0 0 0 -0.43 0.57 2.25 2.25 0 0 0 -0.08 2.16 2.35 2.35 0 0 0 1.6 1.2 4.6 4.6 0 0 0 2.77 3.34 6.44 6.44 0 0 0 2.34 0.57 6 6 0 0 0 2.39 -0.37 4.76 4.76 0 0 0 1.91 -1.38 5.11 5.11 0 0 0 1 -1.94 2.73 2.73 0 0 0 1.86 -0.93 2.14 2.14 0 0 0 0.16 -2.39ZM22.88 18a2 2 0 0 1 -1.44 0.8 0.3 0.3 0 0 0 -0.24 0.18 0.25 0.25 0 0 0 -0.1 0.15 4.69 4.69 0 0 1 -1 1.68 3.84 3.84 0 0 1 -1.63 1 5.52 5.52 0 0 1 -2.4 0.18 6.11 6.11 0 0 1 -2.32 -0.72 3.53 3.53 0 0 1 -1.91 -2.46 0.29 0.29 0 0 0 -0.32 -0.26c-0.42 0 -1 -0.45 -1.14 -0.85a1.5 1.5 0 0 1 0.14 -1.41 1.3 1.3 0 0 1 0.28 -0.34 1.25 1.25 0 0 1 0.36 -0.2l0.52 -0.06a0.57 0.57 0 0 0 0.4 -0.24 3.07 3.07 0 0 0 0.2 -0.45 8.29 8.29 0 0 1 0.39 -1.4 4.63 4.63 0 0 1 1.82 -1.8 4 4 0 0 1 2.44 -0.56 2.62 2.62 0 0 1 1 0.32 1.69 1.69 0 0 1 0.67 0.68 1.25 1.25 0 0 1 -0.11 1.12 1.52 1.52 0 0 1 -1 0.78 0.94 0.94 0 0 1 -0.87 -0.19 0.78 0.78 0 0 1 -0.16 -0.84 0.92 0.92 0 0 1 0.22 -0.35 2.44 2.44 0 0 1 0.43 -0.25 0.29 0.29 0 0 0 0.14 -0.39 0.29 0.29 0 0 0 -0.39 -0.14 2.13 2.13 0 0 0 -0.67 0.41 1.57 1.57 0 0 0 -0.33 0.47 1.46 1.46 0 0 0 0.24 1.59 1.71 1.71 0 0 0 1.54 0.48 2.37 2.37 0 0 0 1.59 -1.1 2.24 2.24 0 0 0 0.25 -2c0.08 0.07 0.17 0.12 0.24 0.19a3.85 3.85 0 0 1 0.58 0.7A7.77 7.77 0 0 1 21 14a6.69 6.69 0 0 1 0.27 0.67c0 0.13 0.08 0.28 0.11 0.42s0 0.35 0 0.52a1 1 0 0 0 0.11 0.35 0.63 0.63 0 0 0 0.45 0.26 0.88 0.88 0 0 1 0.68 0.19 0.73 0.73 0 0 1 0.21 0.22 1.26 1.26 0 0 1 0.05 1.37Z" fill="#020202" stroke-width="1"></path>
    <path d="M15.72 17a0.33 0.33 0 0 0 -0.05 -0.46 2.13 2.13 0 0 0 -0.8 -0.65 1.1 1.1 0 0 0 -0.5 -0.11 1 1 0 0 0 -0.54 0.13 1.39 1.39 0 0 0 -0.67 0.91 0.29 0.29 0 0 0 0.51 0.29 1 1 0 0 1 0.48 -0.22 0.57 0.57 0 0 0 0.13 0h0.2a2 2 0 0 1 0.77 0.16 0.34 0.34 0 0 0 0.47 -0.05Z" fill="#020202" stroke-width="1"></path>
    <path d="M19 16.12a1.29 1.29 0 0 0 -0.91 -0.12 1.79 1.79 0 0 0 -0.42 0.25 2.43 2.43 0 0 0 -0.4 0.45 0.29 0.29 0 0 0 -0.05 0.41 0.3 0.3 0 0 0 0.41 0A2.26 2.26 0 0 1 18 17a1 1 0 0 1 0.29 0 0.44 0.44 0 0 1 0.17 0 1.18 1.18 0 0 1 0.27 0.06 2.42 2.42 0 0 1 0.45 0.24 0.32 0.32 0 0 0 0.46 0.06 0.33 0.33 0 0 0 0.05 -0.47 2.12 2.12 0 0 0 -0.69 -0.77Z" fill="#020202" stroke-width="1"></path>
    <path d="M17.85 19.1a2.13 2.13 0 0 1 -0.89 0.44 1.44 1.44 0 0 1 -0.62 0 1.35 1.35 0 0 1 -0.63 -0.15 1.5 1.5 0 0 1 -0.25 -0.15 2.19 2.19 0 0 1 -0.23 -0.21 0.29 0.29 0 0 0 -0.4 -0.08 0.3 0.3 0 0 0 -0.09 0.4 2.89 2.89 0 0 0 0.19 0.35 2.12 2.12 0 0 0 1 0.89 1.7 1.7 0 0 0 1 0 2.52 2.52 0 0 0 1.39 -1.12 0.32 0.32 0 0 0 0 -0.46 0.33 0.33 0 0 0 -0.47 0.09Z" fill="#020202" stroke-width="1"></path>
    <path d="M7.41 4a4.21 4.21 0 0 0 1.05 0.14A4.75 4.75 0 0 0 9.87 4a2.26 2.26 0 0 0 0.93 -0.54 1.27 1.27 0 0 0 0.39 -1.19A1.62 1.62 0 0 0 10 1.08 2.73 2.73 0 0 0 7.84 1a3.2 3.2 0 0 0 -1 0.49 1.43 1.43 0 0 0 -0.59 1 1.19 1.19 0 0 0 0.45 1.13 2.19 2.19 0 0 0 0.71 0.38Zm0 -1.79a2.33 2.33 0 0 1 0.9 -0.54c0.49 -0.16 1.76 0 2 0.61a0.36 0.36 0 0 1 -0.17 0.43 1.1 1.1 0 0 1 -0.55 0.23A3.73 3.73 0 0 1 8.5 3a3.7 3.7 0 0 1 -0.66 0 1.3 1.3 0 0 1 -0.49 -0.2 0.23 0.23 0 0 1 -0.12 -0.25 0.59 0.59 0 0 1 0.16 -0.35Z" fill="#020202" stroke-width="1"></path>
    <path d="M2.35 5.7A2.06 2.06 0 0 0 3 6a3.66 3.66 0 0 0 0.92 0.14 4 4 0 0 0 1.41 -0.24 2.05 2.05 0 0 0 0.89 -0.61 1 1 0 0 0 0 -1.44 3.33 3.33 0 0 0 -2.83 -0.73 2.81 2.81 0 0 0 -1 0.43 1.46 1.46 0 0 0 -0.61 1.23 1.22 1.22 0 0 0 0.57 0.92ZM3 4.25a2.14 2.14 0 0 1 0.84 -0.46c0.47 -0.16 1.58 0.4 1.68 0.48a0.34 0.34 0 0 1 0.12 0.18c0 0.08 -0.05 0.14 -0.14 0.23a1.24 1.24 0 0 1 -0.67 0.32 3.08 3.08 0 0 1 -0.89 0 2.64 2.64 0 0 1 -0.55 0A1.23 1.23 0 0 1 3 4.8a0.23 0.23 0 0 1 -0.13 -0.24 0.62 0.62 0 0 1 0.13 -0.31Z" fill="#020202" stroke-width="1"></path>
    <path d="m10.31 5.76 -0.68 -0.2c-0.09 0 -2 -0.07 -2.07 -0.06a2 2 0 0 0 -0.8 0.24A1.28 1.28 0 0 0 6 7.13a1.59 1.59 0 0 0 1.14 1.13 3.93 3.93 0 0 0 0.68 0.15 7.88 7.88 0 0 0 1 0.05 3 3 0 0 0 0.92 -0.14 2.4 2.4 0 0 0 0.87 -0.45 1.23 1.23 0 0 0 0.49 -1.19 1.33 1.33 0 0 0 -0.79 -0.92ZM10 7.07a1.42 1.42 0 0 1 -0.54 0.21 2.41 2.41 0 0 1 -0.64 0.07 7.69 7.69 0 0 1 -0.83 0 4.54 4.54 0 0 1 -0.51 -0.09c-0.25 -0.07 -0.46 -0.15 -0.51 -0.31s0 -0.33 0.25 -0.49a1.3 1.3 0 0 1 0.48 -0.22c0.55 -0.13 0.51 0 1.83 0.1l0.42 0.18a0.46 0.46 0 0 1 0.25 0.34c-0.02 0.06 -0.11 0.14 -0.2 0.21Z" fill="#020202" stroke-width="1"></path>
    <path d="m8.2 15.08 -0.42 -0.28L6 13.77l-3.95 -2.14 -0.83 -0.46 -0.05 -0.06 -0.36 -4C0.75 6.59 0.76 6.25 0.73 6c0.16 -0.13 0.53 -0.49 0.59 -0.54a0.31 0.31 0 0 0 0 -0.42A0.3 0.3 0 0 0 0.93 5a7.13 7.13 0 0 0 -0.6 0.42 0.63 0.63 0 0 0 -0.22 0.29 2.21 2.21 0 0 0 -0.11 0.47l0 0.91 0 1.75c0 1 0.07 2.06 0.08 2.58a0.81 0.81 0 0 0 0.11 0.32 2.11 2.11 0 0 0 0.38 0.33l0.92 0.52c0.54 0.3 1.08 0.59 1.63 0.85 0.82 0.4 1.66 0.75 2.49 1.12l1.81 0.87c0.14 0.07 0.36 0.24 0.56 0.33a0.85 0.85 0 0 0 0.4 0.13c0.62 -0.01 0.31 -0.6 -0.18 -0.81Z" fill="#020202" stroke-width="1"></path>
    <path d="m8.73 9.42 -0.18 -0.15 -1.46 -0.6 -3.62 -1.48C2.93 7 2.6 6.77 2.2 6.57a4.84 4.84 0 0 1 -0.8 -0.37c-0.4 -0.2 -0.72 0.22 -0.4 0.47s0.38 0.25 0.59 0.38c0.5 0.31 1 0.58 1.56 0.87s1.17 0.63 1.76 0.92 1.2 0.57 1.82 0.84l1.27 0.58s0.27 0.17 0.39 0.23c-0.06 0.33 -0.13 0.69 -0.19 1.08s-0.06 0.54 -0.08 0.82 0 0.55 0 0.82l0 1.23c0 0.45 0.48 0.85 0.69 0.44s0.21 -0.93 0.31 -1.6c0 -0.27 0.07 -0.54 0.09 -0.82s0 -0.55 0 -0.82a11 11 0 0 0 -0.07 -1.22c0.44 -0.19 1.22 -0.54 2.13 -1 2 -0.95 4.38 -2.15 5.08 -2.52 0.43 -0.19 0.2 -0.7 -0.44 -0.48Zm0 0 0.12 0Z" fill="#4C57E6" stroke-width="1"></path>
    <path d="M17.68 6.09a3.62 3.62 0 0 0 -0.36 -0.31l-0.91 -0.73A0.3 0.3 0 0 0 16 5a0.28 0.28 0 0 0 0 0.41s0.23 0.3 0.47 0.59a2.11 2.11 0 0 1 0.46 1.28v0.85a0.33 0.33 0 0 0 0.34 0.32 0.32 0.32 0 0 0 0.32 -0.33c0.06 -0.39 0.17 -0.75 0.23 -1.13a3.26 3.26 0 0 0 0 -0.54 0.61 0.61 0 0 0 -0.14 -0.36Z" fill="#020202" stroke-width="1"></path>
    <path d="M10.81 5a1.28 1.28 0 0 0 0.77 1.05l0.67 0.21a5 5 0 0 0 0.56 0.09 3.62 3.62 0 0 0 0.57 0 3.87 3.87 0 0 0 0.88 -0.09 2.09 2.09 0 0 0 0.66 -0.3 1.46 1.46 0 0 0 0.56 -1.24 1.44 1.44 0 0 0 -0.66 -1.13 1.63 1.63 0 0 0 -0.58 -0.21 5.86 5.86 0 0 0 -2.15 0.12 2.2 2.2 0 0 0 -0.74 0.39A1.29 1.29 0 0 0 10.81 5Zm1.09 -0.48c0.41 -0.42 0.89 -0.61 2 -0.39a0.86 0.86 0 0 1 0.4 0.18 0.51 0.51 0 0 1 0.18 0.45 0.42 0.42 0 0 1 -0.22 0.36 1 1 0 0 1 -0.39 0.11 3.63 3.63 0 0 1 -0.56 0l-0.9 -0.08 -0.41 -0.06c-0.16 0 -0.28 -0.1 -0.27 -0.22a0.49 0.49 0 0 1 0.17 -0.33Z" fill="#020202" stroke-width="1"></path>
  </g>
</svg>