<svg xmlns="http://www.w3.org/2000/svg" viewBox="0 0 24 24" id="Study-Class-Time-Schedule-2--Streamline-Freehand">
  <desc>
    Study Class Time Schedule 2 Streamline Icon: https://streamlinehq.com
  </desc>
  <g>
    <g>
      <path d="M20.42 3.24C17.09 0.25 12.09 -0.3 8.48 0.27A10 10 0 0 0 0.62 7.52a14.34 14.34 0 0 0 0.92 10.79c2.13 4 7.54 6.06 12.54 5.54C26.34 22.57 25.75 8 20.42 3.24Zm0.47 16.54c-0.25 0.42 -0.58 0.56 -1.05 1A10.93 10.93 0 0 1 14 23c-0.3 0 -5.8 0.54 -9.64 -2.88a3 3 0 0 1 -0.81 -0.84 10 10 0 0 1 -1 -1.44 13.26 13.26 0 0 1 -0.8 -9.92A10.46 10.46 0 0 1 4.94 3a8.22 8.22 0 0 1 3.72 -1.66 14.71 14.71 0 0 1 4.05 -0.18s5 1 6.69 2.46a10.58 10.58 0 0 1 3.1 4.72 21.74 21.74 0 0 1 0.81 4.42 10.2 10.2 0 0 1 -2.42 7.02Z" fill="#020202" stroke-width="1"></path>
      <g>
        <path d="M12.63 2.16s-0.06 1.75 -0.53 1.75c-0.15 0 -0.27 -0.08 -0.4 -0.25a2.85 2.85 0 0 1 -0.21 -0.81 3.52 3.52 0 0 1 0.07 -0.93c0.1 -0.29 0.26 -0.42 0.41 -0.42 0.66 0 0.64 0.5 0.66 0.66Z" fill="#4C57E6" stroke-width="1"></path>
        <path d="M3.81 11.61a0.38 0.38 0 0 1 0.37 0.38 0.51 0.51 0 0 1 -0.49 0.5 3.76 3.76 0 0 1 -0.83 0c-0.29 0 -0.57 -0.09 -0.87 -0.09l-0.41 -0.09a0.59 0.59 0 0 1 -0.08 -0.72c0.24 -0.38 1.84 -0.05 2.31 0.02Z" fill="#4C57E6" stroke-width="1"></path>
        <path d="M5.85 4.79c0.17 0.17 0.3 0.35 0.44 0.49a1.15 1.15 0 0 1 0.17 0.19 0.63 0.63 0 0 1 0.15 0.25 0.37 0.37 0 0 1 -0.24 0.46 0.94 0.94 0 0 1 -0.71 -0.06 3.61 3.61 0 0 1 -0.48 -0.29l-0.42 -0.33c-0.11 -0.1 -0.22 -0.22 -0.32 -0.33a0.4 0.4 0 0 1 -0.12 -0.27c-0.05 -0.45 0.15 -0.67 0.71 -0.65 0.14 0.07 0.15 0 0.29 0.11a4.52 4.52 0 0 1 0.53 0.43Z" fill="#4C57E6" stroke-width="1"></path>
        <path d="M20.51 11.66a0.37 0.37 0 0 0 -0.37 0.37 0.51 0.51 0 0 0 0.49 0.5 3.2 3.2 0 0 0 0.83 0c0.29 0 0.57 -0.09 0.87 -0.09l0.41 -0.09a0.59 0.59 0 0 0 0.08 -0.72c-0.24 -0.38 -1.82 -0.05 -2.31 0.03Z" fill="#4C57E6" stroke-width="1"></path>
        <path d="M18.2 5.22c-0.16 0.17 -0.29 0.36 -0.42 0.51a1 1 0 0 0 -0.16 0.2 0.58 0.58 0 0 0 -0.14 0.25 0.37 0.37 0 0 0 0.26 0.46 1 1 0 0 0 0.71 -0.1 3.43 3.43 0 0 0 0.47 -0.31c0.13 -0.1 0.27 -0.22 0.4 -0.34s0.21 -0.23 0.31 -0.34a0.41 0.41 0 0 0 0.11 -0.28c0 -0.46 -0.19 -0.67 -0.74 -0.62 -0.14 0.07 -0.15 0 -0.28 0.12a4.54 4.54 0 0 0 -0.52 0.45Z" fill="#4C57E6" stroke-width="1"></path>
        <path d="M12.63 21.6s-0.06 -1.76 -0.53 -1.76c-0.15 0 -0.27 0.08 -0.4 0.25a2.94 2.94 0 0 0 -0.21 0.81 3.49 3.49 0 0 0 0.07 0.93c0.1 0.29 0.26 0.42 0.41 0.42 0.66 0 0.64 -0.45 0.66 -0.65Z" fill="#4C57E6" stroke-width="1"></path>
        <path d="M5.85 19c0.17 -0.16 0.3 -0.34 0.44 -0.48a1.31 1.31 0 0 0 0.17 -0.2 0.63 0.63 0 0 0 0.15 -0.32 0.37 0.37 0 0 0 -0.24 -0.46 0.91 0.91 0 0 0 -0.71 0.07 3.49 3.49 0 0 0 -0.48 0.28q-0.21 0.15 -0.42 0.33l-0.32 0.33a0.4 0.4 0 0 0 -0.12 0.28c-0.05 0.45 0.15 0.67 0.71 0.64 0.14 -0.06 0.15 0 0.29 -0.11a3.12 3.12 0 0 0 0.53 -0.36Z" fill="#4C57E6" stroke-width="1"></path>
        <path d="M18.2 18.53c-0.16 -0.17 -0.29 -0.36 -0.42 -0.51a1.19 1.19 0 0 1 -0.16 -0.19 0.67 0.67 0 0 1 -0.14 -0.26 0.36 0.36 0 0 1 0.26 -0.45 0.92 0.92 0 0 1 0.71 0.09 3.43 3.43 0 0 1 0.47 0.31 4.17 4.17 0 0 1 0.4 0.35 3.39 3.39 0 0 1 0.31 0.34 0.39 0.39 0 0 1 0.11 0.28c0 0.45 -0.19 0.66 -0.74 0.61 -0.14 -0.07 -0.15 0 -0.28 -0.12a3.73 3.73 0 0 1 -0.52 -0.45Z" fill="#4C57E6" stroke-width="1"></path>
      </g>
    </g>
    <path d="M17.37 7.82a1.12 1.12 0 0 0 -0.64 -0.27 6.25 6.25 0 0 0 -1 0 11.29 11.29 0 0 0 -2.45 0.4 4 4 0 0 0 -1.22 0.62A4 4 0 0 0 10.84 8a10.72 10.72 0 0 0 -2.45 -0.4 5.37 5.37 0 0 0 -1 0 1.08 1.08 0 0 0 -0.64 0.26 0.53 0.53 0 0 0 -0.14 0.32 2.17 2.17 0 0 0 0 0.49l0.08 1.23a6.45 6.45 0 0 1 0 0.76c0 1.09 -0.17 2.2 -0.08 3.28 0 0.25 0 0.9 0.08 1.16a0.47 0.47 0 0 0 0.42 0.43 9.51 9.51 0 0 1 2.4 0.41 18.79 18.79 0 0 1 2.22 0.87 0.27 0.27 0 0 0 0.28 -0.05 5.8 5.8 0 0 1 1.76 -0.8 10.81 10.81 0 0 1 2.87 -0.45 0.43 0.43 0 0 0 0.4 -0.41 11.37 11.37 0 0 0 0.05 -1.16l0.19 -4 0.08 -1.23a1.68 1.68 0 0 0 0.06 -0.49 0.48 0.48 0 0 0 -0.05 -0.4Zm-3.69 7.52a5.18 5.18 0 0 0 -1.65 0.88 9.88 9.88 0 0 0 -2.23 -1 11.39 11.39 0 0 0 -2.38 -0.51c0 -0.26 0.09 -0.73 0.08 -0.89 -0.06 -1.07 0.15 -2.15 0.19 -3.21a8.14 8.14 0 0 0 0 -0.86l0 -1.31c0.23 0 0.58 0.1 0.68 0.11a9.82 9.82 0 0 1 2.23 0.38 7.4 7.4 0 0 1 1.28 0.74c0 0.33 -0.11 0.95 -0.13 1.12s-0.06 0.48 -0.07 0.73a5.93 5.93 0 0 0 0 0.73c0 0.5 0.06 1 0.1 1.48 0 0.06 0.09 1 0.38 1.24 0.17 0 0.28 -0.08 0.33 -0.38s0.07 -0.8 0.08 -0.86c0 -0.35 0.08 -0.7 0.11 -1.05a5.61 5.61 0 0 0 0 -0.71c0 -0.39 0 -0.79 -0.06 -1.18 0 -0.18 -0.12 -0.82 -0.16 -1.15a7 7 0 0 1 1.23 -0.7 10.5 10.5 0 0 1 2.23 -0.37c0.1 0 0.44 -0.1 0.68 -0.11l-0.05 1.31 0 1.24c0 0.94 0.05 1.88 0 2.82 0 0.16 0.11 0.65 0.11 0.91a12.44 12.44 0 0 0 -2.98 0.6Z" fill="#020202" stroke-width="1"></path>
  </g>
</svg>