<svg xmlns="http://www.w3.org/2000/svg" viewBox="0 0 24 24" id="Style-Three-Pin-Car--Streamline-Freehand">
  <desc>
    Style Three Pin Car Streamline Icon: https://streamlinehq.com
  </desc>
  <title>style-three-pin-car</title>
  <g>
    <path d="M21 7.22a7.53 7.53 0 0 0 -0.49 -1.76 8.76 8.76 0 0 0 -0.87 -1.59A8.92 8.92 0 0 0 10.3 0.21 9.35 9.35 0 0 0 3 7.18a8.54 8.54 0 0 0 -0.21 2.14A12.25 12.25 0 0 0 3 11.41a13.47 13.47 0 0 0 1.18 3.44 20.79 20.79 0 0 0 1.87 3.07A29.11 29.11 0 0 0 8.63 21a16.29 16.29 0 0 0 3.12 2.55 0.34 0.34 0 0 0 0.35 0 0.34 0.34 0 0 0 0.07 0.32 0.36 0.36 0 0 0 0.51 0 23 23 0 0 0 3 -3.05 39.24 39.24 0 0 0 2.47 -3.51A26.9 26.9 0 0 0 20 14.06a14 14 0 0 0 0.86 -2.4 9.65 9.65 0 0 0 0.31 -2.22A13 13 0 0 0 21 7.22Zm-1.1 4.19a14.07 14.07 0 0 1 -1 2.81 27.28 27.28 0 0 1 -1.46 2.66 36.19 36.19 0 0 1 -2.34 3.48 21.41 21.41 0 0 1 -2.86 3 0.34 0.34 0 0 0 -0.15 -0.34 15.3 15.3 0 0 1 -2.93 -2.52 27.41 27.41 0 0 1 -2.41 -3.06 19.91 19.91 0 0 1 -1.72 -3 12.51 12.51 0 0 1 -1 -3.23 12.33 12.33 0 0 1 -0.16 -1.92 8.4 8.4 0 0 1 0.23 -1.87 8.27 8.27 0 0 1 6.46 -6 7.83 7.83 0 0 1 8.18 3.12 8.56 8.56 0 0 1 0.78 1.38A6.85 6.85 0 0 1 20 7.4a11.64 11.64 0 0 1 0.17 2 8.51 8.51 0 0 1 -0.27 2.01Z" fill="#020202" fill-rule="evenodd" stroke-width="1"></path>
    <path d="M17 11.4a2.57 2.57 0 0 0 -0.63 -1.93 2.07 2.07 0 0 0 -0.42 -0.31 0.34 0.34 0 0 0 0 -0.28l-0.45 -1.32a5.92 5.92 0 0 0 -0.28 -0.64 2.45 2.45 0 0 0 -0.3 -0.44 2.51 2.51 0 0 0 -1.31 -0.75 7.75 7.75 0 0 0 -2 -0.14 5.21 5.21 0 0 0 -1.36 0.2 2 2 0 0 0 -0.93 0.59 3.12 3.12 0 0 0 -0.53 1.22 9.89 9.89 0 0 0 -0.19 1.56l-0.31 0.26a3.81 3.81 0 0 0 -1 1.79 1.51 1.51 0 0 0 0.6 1.55 10.08 10.08 0 0 0 0 1.39 1.42 1.42 0 0 0 0.4 0.85 1.49 1.49 0 0 0 0.6 0.33 2.43 2.43 0 0 0 0.81 0 2.08 2.08 0 0 0 1 -0.27 1.15 1.15 0 0 0 0.4 -1l-0.06 -0.53s0 -0.08 -0.07 -0.13c0.75 0 1.52 -0.11 2.23 -0.17l0.33 0a3.46 3.46 0 0 0 -0.09 0.72 1.49 1.49 0 0 0 0.21 0.72 1.17 1.17 0 0 0 0.56 0.43 2 2 0 0 0 0.8 0.09 2.14 2.14 0 0 0 1.18 -0.31 1.18 1.18 0 0 0 0.45 -0.87l0 -0.49 0 -0.6a0.34 0.34 0 0 0 -0.22 -0.29A1.58 1.58 0 0 0 17 11.4ZM9.63 7.87a2.06 2.06 0 0 1 0.5 -0.76 1.13 1.13 0 0 1 0.64 -0.23 6.06 6.06 0 0 1 0.92 -0.07 7.94 7.94 0 0 1 1.68 0 1.61 1.61 0 0 1 0.83 0.33 1.57 1.57 0 0 1 0.21 0.24 4.27 4.27 0 0 1 0.3 0.51l0.35 0.77c-0.64 0 -1.28 -0.09 -1.93 -0.12a12.85 12.85 0 0 0 -1.52 0A16.11 16.11 0 0 0 9.32 9a6.58 6.58 0 0 1 0.31 -1.13Zm0.55 6.13c0 0.11 -0.12 0.19 -0.14 0.25s-0.08 0 -0.12 0a3.07 3.07 0 0 0 -0.34 0l-0.41 0a0.37 0.37 0 0 1 -0.17 -0.16 0.91 0.91 0 0 1 -0.26 -0.51c0 -0.15 -0.07 -0.3 -0.1 -0.44a6 6 0 0 0 1.65 0.26 0.3 0.3 0 0 0 0 0.21ZM13 12c-0.82 0.08 -1.7 0.2 -2.56 0.22a5.93 5.93 0 0 1 -1.58 -0.1L8.41 12a0.69 0.69 0 0 1 -0.26 -0.86 3.27 3.27 0 0 1 0.65 -1.26l0.2 -0.19 0.12 0c0.74 0 1.45 0.08 2.18 0.11h0.94c0.32 0 0.63 0 0.94 -0.06 0.49 0 1 -0.1 1.45 -0.18a3 3 0 0 1 0.48 0.15 1.68 1.68 0 0 1 0.57 0.38 1.61 1.61 0 0 1 0.28 1c0 0.28 -0.07 0.56 -0.31 0.66l-1 0.1Zm2.73 1.36 -0.12 0.39a0.39 0.39 0 0 1 -0.13 0.17s-0.09 0 -0.14 0h-0.93a0.48 0.48 0 0 1 -0.15 -0.27 3.9 3.9 0 0 1 -0.08 -0.57l0.62 -0.08c0.27 0 0.57 -0.06 0.86 -0.12l0.2 -0.07 0 0.09Z" fill="#4C57E6" fill-rule="evenodd" stroke-width="1"></path>
  </g>
</svg>