<svg xmlns="http://www.w3.org/2000/svg" viewBox="0 0 24 24" id="Surveillance-Radar--Streamline-Freehand">
  <desc>
    Surveillance Radar Streamline Icon: https://streamlinehq.com
  </desc>
  <title>surveillance-radar</title>
  <g>
    <path d="M13.71 4.24c-0.58 0 -1.16 0.11 -1.73 0.17 -0.4 0 -0.79 0 -1.16 0.08a2.52 2.52 0 0 0 -0.84 0.24 0.28 0.28 0 0 0 -0.14 0.37 0.29 0.29 0 0 0 0.37 0.15 1.65 1.65 0 0 1 0.65 -0.11c0.38 0 0.75 0.06 1.14 0.07 0.56 0 1.13 0 1.69 0.06a5.11 5.11 0 0 1 1 0.14A2.43 2.43 0 0 1 16 5.8a0.42 0.42 0 0 0 0.38 -0.75 2.91 2.91 0 0 0 -1.58 -0.64 4.87 4.87 0 0 0 -1.09 -0.17Z" fill="#4C57E6" fill-rule="evenodd" stroke-width="1"></path>
    <path d="M23.83 8.61A9.23 9.23 0 0 0 23 6.19a6.37 6.37 0 0 0 -1.53 -2.1 8.3 8.3 0 0 0 -0.82 -0.61c-0.64 -0.42 -1.33 -0.79 -2 -1.19a13.37 13.37 0 0 0 -4.65 -2C11.8 -0.1 7.86 0.91 7.48 1a9.29 9.29 0 0 0 -3.23 1.71A12.36 12.36 0 0 0 0.44 9a12.2 12.2 0 0 0 0.29 7.43 11 11 0 0 0 3.06 4.32 12.74 12.74 0 0 0 4.65 2.5 13.12 13.12 0 0 0 2.64 0.49 11.06 11.06 0 0 0 2.71 -0.13 14.34 14.34 0 0 0 4.3 -1.61 11.84 11.84 0 0 0 3.51 -3 5.54 5.54 0 0 0 0.58 -1c0.22 -0.49 0.4 -1 0.59 -1.5a17.52 17.52 0 0 0 1.07 -3.86 12.39 12.39 0 0 0 -0.01 -4.03Zm-0.92 3.88a17.49 17.49 0 0 1 -1.06 3.64c-0.2 0.48 -0.37 1 -0.59 1.44a4.48 4.48 0 0 1 -0.49 0.81 10.48 10.48 0 0 1 -3.21 2.7 13 13 0 0 1 -4 1.5 9.67 9.67 0 0 1 -2.42 0.11 12.38 12.38 0 0 1 -2.41 -0.44A11.72 11.72 0 0 1 4.46 20a9.94 9.94 0 0 1 -2.83 -3.9 11.31 11.31 0 0 1 -0.4 -6.87 11.71 11.71 0 0 1 3.47 -6 8.67 8.67 0 0 1 3 -1.6A16.84 16.84 0 0 1 13.9 1a12.8 12.8 0 0 1 4.41 2l1 0.64 -0.06 0a29.74 29.74 0 0 0 -5.73 5.83c-1.15 -0.66 -2.11 -1 -3.43 -0.16a3.37 3.37 0 0 0 -1.45 2.11 3.11 3.11 0 0 0 0.71 2.44 3.37 3.37 0 0 0 2.21 1.24 3 3 0 0 0 3.1 -3A2.93 2.93 0 0 0 14 9.77c0.69 -0.63 1.4 -1.22 2.09 -1.84A44.05 44.05 0 0 0 19.73 4a0.3 0.3 0 0 0 0.08 -0.18l0.43 0.28c0.26 0.18 0.51 0.36 0.75 0.56a5.79 5.79 0 0 1 1.29 1.84A8.71 8.71 0 0 1 23 8.75a11.45 11.45 0 0 1 -0.09 3.74ZM13.8 12c-0.16 1.07 -0.92 2.16 -2.11 2a2.37 2.37 0 0 1 -1.5 -0.86 2.13 2.13 0 0 1 -0.6 -1.61 2.5 2.5 0 0 1 1 -1.65A2.13 2.13 0 0 1 13.8 12Z" fill="#020202" fill-rule="evenodd" stroke-width="1"></path>
    <path d="M18.77 9a0.31 0.31 0 0 0 0.23 -0.39 4.81 4.81 0 0 0 -0.94 -2c-0.41 -0.22 -0.77 0.2 -0.55 0.61a3.91 3.91 0 0 1 0.87 1.58 0.32 0.32 0 0 0 0.39 0.2Z" fill="#4C57E6" fill-rule="evenodd" stroke-width="1"></path>
    <path d="M17.35 10.88a1.37 1.37 0 0 0 -0.81 1.22A1.71 1.71 0 0 0 18 13.92a1.42 1.42 0 0 0 1.54 -1.52c-0.01 -1.9 -1.96 -1.6 -2.19 -1.52Zm1.19 1.75a0.33 0.33 0 0 1 -0.38 0.22 0.77 0.77 0 0 1 -0.7 -0.74c-0.05 -1 1.14 -0.79 1.2 0a1.17 1.17 0 0 1 -0.12 0.52Z" fill="#020202" fill-rule="evenodd" stroke-width="1"></path>
    <path d="M8.63 20A1.29 1.29 0 0 0 10 21.36a1.54 1.54 0 0 0 1.65 -1.43 1.49 1.49 0 1 0 -3.02 0.07Zm2.07 -0.15a0.6 0.6 0 0 1 -0.68 0.47c-0.48 0 -0.51 -0.45 -0.37 -0.8 0.42 -1.12 1.16 -0.26 1.05 0.3Z" fill="#020202" fill-rule="evenodd" stroke-width="1"></path>
    <path d="M9.1 6.56a1.48 1.48 0 1 0 -2.7 1.1 1.29 1.29 0 0 0 1.91 0.65 1.51 1.51 0 0 0 0.79 -1.75Zm-1.23 0.77A0.41 0.41 0 0 1 7.22 7c-0.35 -1.5 1 -1 1 -0.3a0.55 0.55 0 0 1 -0.35 0.63Z" fill="#020202" fill-rule="evenodd" stroke-width="1"></path>
    <path d="M5.52 14.77a8.31 8.31 0 0 1 -0.43 -1.45 9.36 9.36 0 0 1 -0.2 -1.49 6.33 6.33 0 0 1 0.72 -3.43 0.28 0.28 0 0 0 -0.48 -0.3 6.64 6.64 0 0 0 -1.27 3.73A7.66 7.66 0 0 0 4 13.55a7.06 7.06 0 0 0 0.56 1.62 7.26 7.26 0 0 0 2.58 3 0.32 0.32 0 1 0 0.38 -0.52 6.82 6.82 0 0 1 -2 -2.88Z" fill="#4C57E6" fill-rule="evenodd" stroke-width="1"></path>
    <path d="M17.57 15.21a6.48 6.48 0 0 1 -1.46 1.63c-0.23 0.21 -0.48 0.4 -0.73 0.59s-0.51 0.36 -0.77 0.54a5.38 5.38 0 0 1 -1.95 0.91 0.29 0.29 0 0 0 0.05 0.57 5.52 5.52 0 0 0 2.42 -0.59 6.17 6.17 0 0 0 0.9 -0.57 6.66 6.66 0 0 0 0.78 -0.72 6.57 6.57 0 0 0 1.34 -2.08 0.34 0.34 0 0 0 -0.15 -0.43 0.33 0.33 0 0 0 -0.43 0.15Z" fill="#4C57E6" fill-rule="evenodd" stroke-width="1"></path>
  </g>
</svg>