<svg xmlns="http://www.w3.org/2000/svg" viewBox="0 0 24 24" id="Surveillance-Camera--Streamline-Freehand">
  <desc>
    Surveillance Camera Streamline Icon: https://streamlinehq.com
  </desc>
  <title>surveillance-camera</title>
  <g>
    <path d="M16.6 15.82a8.84 8.84 0 0 1 -0.89 -0.2 1.45 1.45 0 0 1 -0.25 -0.1 2.25 2.25 0 0 0 0 -0.4l-0.09 -1.72a7.85 7.85 0 0 0 -1.47 -4.56 3.77 3.77 0 0 0 -3.13 -1.28 3.65 3.65 0 0 0 -3 1.79 13.32 13.32 0 0 0 -1.55 4.57c-0.09 0.42 -0.1 1 -0.21 1.58s0 0.84 -1.17 0.81c-0.77 0 -1.53 0.06 -2.29 0.09h-0.1c-0.36 0.3 -0.15 0.48 0.27 0.6 0.7 0 1.4 -0.05 2.1 0a4.74 4.74 0 0 0 1 0 0.75 0.75 0 0 0 0.41 -0.19 2.26 2.26 0 0 0 0.52 -0.81c0.19 -0.6 0.23 -1.35 0.35 -1.83a12.82 12.82 0 0 1 1.57 -4.23 2.64 2.64 0 0 1 2.14 -1.29 2.73 2.73 0 0 1 2.29 0.9 6.85 6.85 0 0 1 1.31 3.92l0.15 1.7 0 0.59a0.56 0.56 0 0 0 0.16 0.28 1.74 1.74 0 0 0 0.56 0.31 6.86 6.86 0 0 0 1.18 0.24 13.14 13.14 0 0 0 1.65 0.15l1.59 0c0.22 0 0.38 -0.44 0.18 -0.67 -0.58 0 -1.15 0 -1.72 -0.08s-1.04 -0.08 -1.56 -0.17Z" fill="#4C57E6" fill-rule="evenodd" stroke-width="1"></path>
    <path d="M23.89 0.64a0.34 0.34 0 0 0 -0.46 0c-0.75 0.85 -1.42 2.05 -2.26 2.95a4.2 4.2 0 0 1 -1.17 0.92 1.14 1.14 0 0 1 -0.5 0.09c-0.54 0 -1.16 -0.13 -1.62 -0.12l-2.31 0c-1.8 0 -3.61 -0.14 -5.42 -0.2a15.47 15.47 0 0 0 -1.8 0.06c-1.35 0.12 -2.69 0.36 -4 0.43a7.9 7.9 0 0 1 -1.39 0 1.15 1.15 0 0 1 -0.67 -0.26 3.59 3.59 0 0 1 -0.6 -0.85C1.25 2.86 1 1.89 0.53 1.19a0.27 0.27 0 0 0 -0.38 -0.11 0.28 0.28 0 0 0 -0.15 0.39c0.38 0.72 0.63 1.68 1 2.5A4.08 4.08 0 0 0 1.73 5a1.94 1.94 0 0 0 1.08 0.53 4.63 4.63 0 0 0 0.74 0.07 13 13 0 0 0 -2.66 5.78 10.64 10.64 0 0 0 0.57 6.41 10.16 10.16 0 0 0 5.59 4.81 11.17 11.17 0 0 0 7.32 0.38 9.86 9.86 0 0 0 2.68 -1.38 10.12 10.12 0 0 0 4.34 -6.6 12.44 12.44 0 0 0 0.22 -2.37 12.35 12.35 0 0 0 -0.24 -2.36 10.63 10.63 0 0 0 -2.27 -4.79h0.46a1.91 1.91 0 0 0 0.85 -0.21 4.61 4.61 0 0 0 1.34 -1.12c0.82 -0.94 1.45 -2.15 2.17 -3.05a0.33 0.33 0 0 0 -0.03 -0.46Zm-3.54 9.84a18 18 0 0 1 0.17 2.2 13.36 13.36 0 0 1 -0.14 2.19A7.84 7.84 0 0 1 16.63 21a9.09 9.09 0 0 1 -2.51 1.2 10.52 10.52 0 0 1 -6.68 -0.58 9.26 9.26 0 0 1 -5 -4.28 10.15 10.15 0 0 1 -0.72 -5.81A12.45 12.45 0 0 1 4 6a0.26 0.26 0 0 0 0 -0.34h0.36c1.56 0 3.11 -0.23 4.67 -0.28l1.12 0c1.56 0 3.11 0.13 4.66 0.15 1 0 2.09 0 3.13 -0.07a4.14 4.14 0 0 1 0.6 0 0.29 0.29 0 0 0 0 0.27 10.41 10.41 0 0 1 1.81 4.75Z" fill="#020202" fill-rule="evenodd" stroke-width="1"></path>
    <path d="M11.72 11.93c-2.28 -0.68 -3.07 2 -3.09 2.58a2.35 2.35 0 0 0 0.94 2 2.28 2.28 0 0 0 2.23 0.28 2.68 2.68 0 0 0 1.64 -2.49 2.37 2.37 0 0 0 -1.72 -2.37Zm-0.33 3.83a1.28 1.28 0 0 1 -1.22 -0.12 1.47 1.47 0 0 1 -0.68 -1.13c-0.1 -2.15 3.06 -2.69 2.95 -0.26a1.7 1.7 0 0 1 -1.05 1.51Z" fill="#020202" fill-rule="evenodd" stroke-width="1"></path>
  </g>
</svg>