<svg xmlns="http://www.w3.org/2000/svg" viewBox="0 0 24 24" id="Swan-Body--Streamline-Freehand">
  <desc>
    Swan Body Streamline Icon: https://streamlinehq.com
  </desc>
  <g>
    <path d="M23.18 8.5a1.16 1.16 0 0 0 -0.6 -0.9 1 1 0 0 0 -0.7 -0.06 4.08 4.08 0 0 0 -0.88 0.36c-0.29 0.13 -0.59 0.25 -0.88 0.35 -0.46 0.16 -0.93 0.29 -1.4 0.41 -0.94 0.25 -1.91 0.34 -2.86 0.53l-0.75 0.19a13 13 0 0 0 -1.59 0.57c-0.76 0.33 -1.48 0.71 -2.23 1.12a11.44 11.44 0 0 0 -1.83 1.19l-0.5 0.46a2.91 2.91 0 0 1 0.15 -0.89A10.45 10.45 0 0 1 10 10a24.57 24.57 0 0 0 2.1 -4.09 6 6 0 0 0 0.22 -3.25A3.63 3.63 0 0 0 9.13 0a4.09 4.09 0 0 0 -3.77 1.47 1.56 1.56 0 0 0 -1.29 0.31 2.53 2.53 0 0 0 -0.92 1.42 1.87 1.87 0 0 0 0.22 1.4L1.73 5.92a3.54 3.54 0 0 0 -0.68 0.49 0.92 0.92 0 0 0 0.11 1.38 3.54 3.54 0 0 0 1.5 0.59 5.24 5.24 0 0 0 1.89 0A8.08 8.08 0 0 0 6 8a24.63 24.63 0 0 0 -1.7 2.63 18.45 18.45 0 0 0 -1.47 3.24 13.38 13.38 0 0 0 -0.66 2.56 6.52 6.52 0 0 0 0 1.82 6.18 6.18 0 0 0 0.21 1 6.41 6.41 0 0 0 0.36 1 5.93 5.93 0 0 0 0.46 0.78 7.22 7.22 0 0 0 0.56 0.68 6.68 6.68 0 0 0 3.44 2 18 18 0 0 0 5.72 0 22.4 22.4 0 0 0 3.39 -0.56 11.68 11.68 0 0 0 2.19 -0.8 6.63 6.63 0 0 0 2.61 -2.28A9.21 9.21 0 0 0 22.46 17a3.92 3.92 0 0 0 0 -2 1.67 1.67 0 0 0 -0.82 -1 4.92 4.92 0 0 0 0.16 -2.21 4.11 4.11 0 0 0 1.06 -1.49 3.92 3.92 0 0 0 0.32 -1.8ZM5.9 6.92a7.15 7.15 0 0 1 -1.85 0.55 4.22 4.22 0 0 1 -1.23 0 3.79 3.79 0 0 1 -0.88 -0.19c-0.18 -0.07 -0.37 -0.12 -0.36 -0.31s0.08 -0.12 0.15 -0.18a3.16 3.16 0 0 1 0.4 -0.3C2.59 6.08 4 5 4 4.89a0.32 0.32 0 0 0 0 -0.45 1.14 1.14 0 0 1 -0.21 -1.07 1.75 1.75 0 0 1 0.69 -1 0.81 0.81 0 0 1 0.68 -0.12 0.75 0.75 0 0 1 0.45 0.47l0.09 0.53a1.26 1.26 0 0 1 -0.08 0.43 4 4 0 0 1 -0.21 0.47c-0.06 0.13 -0.18 0.29 -0.26 0.45a1.16 1.16 0 0 0 -0.06 0.4 0.56 0.56 0 0 0 0.39 0.54l0.25 0.07 0.27 0.11a2.65 2.65 0 0 1 0.54 0.36 1.51 1.51 0 0 1 0.21 0.23s0 0.07 0 0.11a0.86 0.86 0 0 1 -0.31 0.25 4.58 4.58 0 0 1 -0.54 0.25ZM22.27 9a4.2 4.2 0 0 1 -0.08 1 3.49 3.49 0 0 1 -0.6 1.27 1 1 0 0 0 -0.21 0.61 4.13 4.13 0 0 1 -0.12 1.85 0.67 0.67 0 0 0 0.06 0.67 5.85 5.85 0 0 1 0.53 0.82 3.34 3.34 0 0 1 -0.08 1.66 8.64 8.64 0 0 1 -1.32 2.83 5.84 5.84 0 0 1 -2.34 1.94 10.07 10.07 0 0 1 -2 0.67 21.55 21.55 0 0 1 -3.25 0.46 17.3 17.3 0 0 1 -5.38 0 5.76 5.76 0 0 1 -2.93 -1.65 6.41 6.41 0 0 1 -0.55 -0.65 3.51 3.51 0 0 1 -0.39 -0.61 5.09 5.09 0 0 1 -0.3 -0.87 7.32 7.32 0 0 1 -0.21 -0.9 5.65 5.65 0 0 1 0 -1.59 13.4 13.4 0 0 1 0.53 -2.42A17.67 17.67 0 0 1 4.91 11a26.82 26.82 0 0 1 1.8 -3 0.27 0.27 0 0 0 0 -0.26l0.39 -0.2A1.81 1.81 0 0 0 7.68 7a1.07 1.07 0 0 0 0.05 -1.08 2.83 2.83 0 0 0 -1.3 -1.14l-0.12 0 0.05 -0.11a4 4 0 0 0 0.27 -0.75 2.45 2.45 0 0 0 0.06 -0.6 3.18 3.18 0 0 0 -0.06 -0.43 2.34 2.34 0 0 0 -0.13 -0.4 1.62 1.62 0 0 0 -0.58 -0.72A3.44 3.44 0 0 1 9 0.85a2.73 2.73 0 0 1 2.33 2.05 5.15 5.15 0 0 1 -0.21 2.69 25.85 25.85 0 0 1 -1.82 4 11.84 11.84 0 0 0 -0.87 2 3.64 3.64 0 0 0 -0.09 1.55c0.07 0.49 0.06 0.48 0.16 0.55a0.27 0.27 0 0 0 0.39 -0.05 5.56 5.56 0 0 1 1.25 -1.11 11.75 11.75 0 0 1 1.51 -0.82c0.74 -0.34 1.47 -0.67 2.22 -0.94a12 12 0 0 1 1.51 -0.45c0.94 -0.24 1.91 -0.31 2.87 -0.49 0.25 0 0.5 -0.1 0.75 -0.17 0.42 -0.11 0.83 -0.22 1.24 -0.36a10.83 10.83 0 0 0 1.22 -0.51c0.15 -0.08 0.68 -0.1 0.72 -0.32 0.11 0.14 0.1 0.34 0.09 0.53Z" fill="#020202" fill-rule="evenodd" stroke-width="1"></path>
    <path d="M19.71 15.23a6.68 6.68 0 0 1 -1.5 1.14 14.59 14.59 0 0 1 -2.27 0.8 3.62 3.62 0 0 1 -1.06 0.16 0.31 0.31 0 0 0 -0.34 0.29 0.33 0.33 0 0 0 0.29 0.34 4.61 4.61 0 0 0 1.29 0 14.67 14.67 0 0 0 2.56 -0.68 6.21 6.21 0 0 0 1.32 -0.84 4.93 4.93 0 0 0 1 -1.15 1.74 1.74 0 0 0 0.14 -0.27c0.28 -0.59 -0.27 -1.1 -0.64 -0.72a5.4 5.4 0 0 1 -0.79 0.93Z" fill="#4C57E6" fill-rule="evenodd" stroke-width="1"></path>
    <path d="m20.8 11.69 -0.28 0.25a10.4 10.4 0 0 1 -2.92 1.47 0.32 0.32 0 0 0 -0.25 0.37 0.33 0.33 0 0 0 0.38 0.25 10.78 10.78 0 0 0 3.13 -1.42c0.53 -0.38 0.53 -1.25 -0.06 -0.92Z" fill="#4C57E6" fill-rule="evenodd" stroke-width="1"></path>
    <path d="M9.65 3.53c0.17 -0.85 -0.78 -0.86 -0.9 -0.84a0.7 0.7 0 0 0 -0.49 0.39 0.85 0.85 0 0 0 0 0.66 0.8 0.8 0 0 0 0.56 0.41 0.76 0.76 0 0 0 0.83 -0.62Z" fill="#020202" fill-rule="evenodd" stroke-width="1"></path>
  </g>
</svg>