<svg xmlns="http://www.w3.org/2000/svg" viewBox="0 0 24 24" id="Swimming-Waterpolo--Streamline-Freehand">
  <desc>
    Swimming Waterpolo Streamline Icon: https://streamlinehq.com
  </desc>
  <title>swimming-waterpolo</title>
  <g>
    <path d="M9.62 9.08a2.16 2.16 0 0 0 -0.95 2.84 2.57 2.57 0 0 0 2.53 1.65 2.72 2.72 0 0 0 0.72 -0.15 2.47 2.47 0 0 0 0.66 -0.36 2.55 2.55 0 0 0 1 -1.73A2.72 2.72 0 0 0 11.3 8.8a2.6 2.6 0 0 0 -1.68 0.28Zm3.14 2.16a1.6 1.6 0 0 1 -0.76 1 1.21 1.21 0 0 1 -0.4 0.17 1.72 1.72 0 0 1 -0.44 0.06 1.58 1.58 0 0 1 -1.46 -1 1.22 1.22 0 0 1 0.37 -1.62 1.79 1.79 0 0 1 1.13 -0.33 1.59 1.59 0 0 1 1.56 1.72Z" fill="#020202" stroke-width="1"></path>
    <path d="M18.44 7a3.58 3.58 0 0 0 0.93 -0.22 3.1 3.1 0 0 0 0.83 -0.48A3.43 3.43 0 0 0 21.5 4c0.22 -2 -1.85 -3.18 -2.87 -3.33a3.32 3.32 0 0 0 -2.14 0.44 2.94 2.94 0 0 0 -1.26 3.64A3.19 3.19 0 0 0 18.44 7ZM17 1.88a2.11 2.11 0 0 1 1.6 -0.17c1.26 0.15 2.33 1.11 2.15 2.21a2.62 2.62 0 0 1 -1.1 1.61 2.23 2.23 0 0 1 -0.58 0.28 2.11 2.11 0 0 1 -0.65 0.11 2.16 2.16 0 0 1 -2.09 -1.54 2 2 0 0 1 0.67 -2.5Z" fill="#020202" stroke-width="1"></path>
    <path d="M3.75 17.3a0.28 0.28 0 0 0 0.39 -0.12 11.87 11.87 0 0 1 1.33 -1.77 14.45 14.45 0 0 1 1.6 -1.54 0.49 0.49 0 0 0 0.15 -0.34 0.47 0.47 0 0 0 -0.13 -0.35 3.83 3.83 0 0 1 -0.44 -0.76 3.24 3.24 0 0 1 -0.29 -0.78 3.25 3.25 0 0 1 0.14 -1.39A4.55 4.55 0 0 1 7.2 9a12.74 12.74 0 0 1 1.74 -2 2.34 2.34 0 0 1 1.32 -0.75 0.87 0.87 0 0 1 0.59 0.27 0.29 0.29 0 0 1 0 0.41c-0.3 0.35 -0.4 0.54 -0.55 0.71a1.65 1.65 0 0 1 -0.23 0.22 0.35 0.35 0 0 0 -0.06 0.47 0.33 0.33 0 0 0 0.47 0.06A2 2 0 0 0 10.8 8c0.16 -0.16 0.28 -0.34 0.59 -0.67a1 1 0 0 0 0.23 -1.17 1.71 1.71 0 0 0 -1.35 -0.88 3.17 3.17 0 0 0 -2 0.86 12.84 12.84 0 0 0 -2 2.13 5.61 5.61 0 0 0 -0.87 1.61 4.19 4.19 0 0 0 -0.15 1.87 3.8 3.8 0 0 0 0.36 0.92 7 7 0 0 0 0.48 0.78c-0.43 0.45 -0.85 0.94 -1.24 1.44a12.28 12.28 0 0 0 -1.25 2 0.28 0.28 0 0 0 0.15 0.41Z" fill="#020202" stroke-width="1"></path>
    <path d="M14 10.86a0.35 0.35 0 0 0 0.46 -0.11 8.7 8.7 0 0 1 0.64 -0.82l0.71 -0.78a0.36 0.36 0 0 1 0.47 0 0.74 0.74 0 0 1 0.37 0.49 1.32 1.32 0 0 1 -0.18 0.63 7.5 7.5 0 0 1 -0.68 1.07 15.16 15.16 0 0 1 -1.32 1.52 10.66 10.66 0 0 1 -1 0.88A2.18 2.18 0 0 1 13 14a2.29 2.29 0 0 1 -0.57 0.12 0.59 0.59 0 0 0 -0.45 0.5c-0.08 0.33 -0.17 1.05 -0.39 2.12a0.3 0.3 0 0 0 0.22 0.36 0.29 0.29 0 0 0 0.35 -0.21c0.29 -0.95 0.44 -1.62 0.55 -2a2.35 2.35 0 0 0 0.6 -0.09 3.73 3.73 0 0 0 0.72 -0.35 8.85 8.85 0 0 0 1.45 -1.16A11.42 11.42 0 0 0 16.65 12a4 4 0 0 0 1 -2.49 1.85 1.85 0 0 0 -1.23 -1.3 1.17 1.17 0 0 0 -1.24 0.39c-0.25 0.31 -0.55 0.7 -0.8 1.06s-0.39 0.56 -0.5 0.75a0.33 0.33 0 0 0 0.12 0.45Z" fill="#020202" stroke-width="1"></path>
    <path d="M23.85 17.22a0.34 0.34 0 0 0 -0.46 0.09 3.58 3.58 0 0 1 -2.32 1.35 4 4 0 0 1 -2.66 -0.42 2.21 2.21 0 0 1 -0.47 -0.35c-0.4 -0.39 -0.65 -0.85 -1.06 -1.25a0.54 0.54 0 0 0 -0.43 -0.14c-0.12 0 -0.46 0.49 -0.46 0.49s-0.26 0.27 -0.36 0.35l-0.34 0.25a6.47 6.47 0 0 1 -1.42 0.7 5.26 5.26 0 0 1 -1.51 0.31 6.06 6.06 0 0 1 -1.81 -0.18 6.75 6.75 0 0 1 -1.7 -0.7L7.7 17a4.19 4.19 0 0 0 -0.43 -0.25 0.56 0.56 0 0 0 -0.42 0 0.74 0.74 0 0 0 -0.29 0.22c-0.08 0.1 -0.15 0.28 -0.2 0.33a2.87 2.87 0 0 1 -0.39 0.39 3 3 0 0 1 -0.44 0.33l-0.84 0.43a2.68 2.68 0 0 1 -1.69 0.08 10.57 10.57 0 0 1 -2.4 -1.39 0.29 0.29 0 0 0 -0.4 0.1 0.29 0.29 0 0 0 0.1 0.4 11.09 11.09 0 0 0 2.52 1.59 3.45 3.45 0 0 0 2.13 0l1 -0.45a4.35 4.35 0 0 0 0.57 -0.38 3.17 3.17 0 0 0 0.59 -0.55l1.14 0.83a8 8 0 0 0 2 0.85 6.76 6.76 0 0 0 2.16 0.22 6.61 6.61 0 0 0 1.82 -0.38 7.22 7.22 0 0 0 1.63 -0.86 3 3 0 0 0 0.44 -0.34q0.16 -0.15 0.3 -0.3a9.4 9.4 0 0 0 0.68 0.75 2.89 2.89 0 0 0 0.68 0.46 5 5 0 0 0 3.24 0.39 4.33 4.33 0 0 0 2.72 -1.75 0.33 0.33 0 0 0 -0.07 -0.5Z" fill="#4C57E6" stroke-width="1"></path>
    <path d="M23.23 21a3.6 3.6 0 0 1 -2.32 1.35 4 4 0 0 1 -2.66 -0.43 1.86 1.86 0 0 1 -0.46 -0.35c-0.41 -0.39 -0.66 -0.85 -1.07 -1.25a0.47 0.47 0 0 0 -0.42 -0.13c-0.13 0 -0.45 0.42 -0.44 0.4s-0.29 0.35 -0.39 0.44l-0.34 0.24a6.47 6.47 0 0 1 -1.42 0.7 5.19 5.19 0 0 1 -1.51 0.31 5.66 5.66 0 0 1 -1.8 -0.18 6.8 6.8 0 0 1 -1.7 -0.69l-1.16 -0.81 -0.43 -0.25a0.53 0.53 0 0 0 -0.41 0 0.69 0.69 0 0 0 -0.3 0.22c-0.07 0.1 -0.15 0.28 -0.2 0.34a2.82 2.82 0 0 1 -0.39 0.38 3 3 0 0 1 -0.44 0.33l-0.84 0.38a2.77 2.77 0 0 1 -1.67 0.14 10.71 10.71 0 0 1 -2.41 -1.4 0.31 0.31 0 0 0 -0.41 0.1 0.29 0.29 0 0 0 0.1 0.4 11.74 11.74 0 0 0 2.52 1.6 3.53 3.53 0 0 0 2.13 0l1 -0.46a4 4 0 0 0 0.6 -0.38 3.94 3.94 0 0 0 0.52 -0.47 0.25 0.25 0 0 0 0.09 -0.09l1.14 0.83a7.62 7.62 0 0 0 2 0.85 6.76 6.76 0 0 0 2.16 0.22 6.27 6.27 0 0 0 1.79 -0.34 7.62 7.62 0 0 0 1.63 -0.85 4 4 0 0 0 0.44 -0.35q0.16 -0.15 0.3 -0.3a7.94 7.94 0 0 0 0.68 0.75 2.89 2.89 0 0 0 0.68 0.46 4.91 4.91 0 0 0 3.24 0.39 4.29 4.29 0 0 0 2.72 -1.75 0.32 0.32 0 0 0 -0.08 -0.46 0.33 0.33 0 0 0 -0.47 0.11Z" fill="#020202" stroke-width="1"></path>
  </g>
</svg>