<svg xmlns="http://www.w3.org/2000/svg" viewBox="0 0 24 24" id="Sync-Location-Refresh-1--Streamline-Freehand">
  <desc>
    Sync Location Refresh 1 Streamline Icon: https://streamlinehq.com
  </desc>
  <title>sync-location-refresh-1</title>
  <g>
    <path d="M22.81 19.79a7.63 7.63 0 0 1 -1.06 1.15 7.79 7.79 0 0 1 -1.23 0.93 7.43 7.43 0 0 1 -2.53 0.86 5.52 5.52 0 0 1 -2.59 -0.1 5.91 5.91 0 0 1 -1.91 -0.91 6.5 6.5 0 0 1 -1.33 -1.34l1 0.19a0.35 0.35 0 0 0 0.47 -0.17 0.34 0.34 0 0 0 -0.17 -0.46l-1.23 -0.69a2.91 2.91 0 0 0 -0.49 -0.2 1 1 0 0 0 -0.49 0 0.66 0.66 0 0 0 -0.37 0.35 2.62 2.62 0 0 0 -0.1 0.41 6.32 6.32 0 0 0 -0.06 0.76 2.87 2.87 0 0 0 0.08 0.78 0.32 0.32 0 0 0 0.32 0.3 0.31 0.31 0 0 0 0.29 -0.33 2.9 2.9 0 0 1 0.14 -0.48c0 -0.06 0.05 -0.11 0.08 -0.18A7 7 0 0 0 13 22.39a6.69 6.69 0 0 0 2.11 1.29 6.14 6.14 0 0 0 3.13 0.21A7.68 7.68 0 0 0 21 22.7a8.23 8.23 0 0 0 1.3 -1.17 7.93 7.93 0 0 0 1.06 -1.36 0.35 0.35 0 0 0 -0.11 -0.49 0.36 0.36 0 0 0 -0.44 0.11Z" fill="#020202" fill-rule="evenodd" stroke-width="1"></path>
    <path d="M23.63 12.76a0.36 0.36 0 0 0 -0.31 -0.39 0.36 0.36 0 0 0 -0.39 0.31l-0.15 0.76a4.21 4.21 0 0 0 -0.34 -0.52 6 6 0 0 0 -1.28 -1.23 8.66 8.66 0 0 0 -1.51 -0.86 6 6 0 0 0 -1.35 -0.41 5.61 5.61 0 0 0 -1.42 0 7.14 7.14 0 0 0 -1.91 0.48 9.91 9.91 0 0 0 -1.7 0.92 4.57 4.57 0 0 0 -1 0.88 8.12 8.12 0 0 0 -1 1.58 0.35 0.35 0 0 0 0.62 0.34 7.6 7.6 0 0 1 0.81 -1.15 3.76 3.76 0 0 1 1 -0.84 8.21 8.21 0 0 1 1.57 -0.69 6.75 6.75 0 0 1 1.73 -0.38 5.29 5.29 0 0 1 2.23 0.3 8.24 8.24 0 0 1 1.42 0.62 5 5 0 0 1 1.21 0.93l0.26 0.31h-0.71a0.3 0.3 0 0 0 -0.39 0.19 0.31 0.31 0 0 0 0.2 0.39l0.74 0.33c0.21 0.08 0.42 0.27 0.65 0.36a1.43 1.43 0 0 0 0.49 0.1 0.59 0.59 0 0 0 0.57 -0.35 2.82 2.82 0 0 0 0.12 -0.71Z" fill="#020202" fill-rule="evenodd" stroke-width="1"></path>
    <path d="M16.91 21.38a0.35 0.35 0 0 0 0.5 0 8.53 8.53 0 0 0 1.1 -1.07 11.91 11.91 0 0 0 0.93 -1.22 8.11 8.11 0 0 0 0.61 -1 5.36 5.36 0 0 0 0.3 -0.79 3.26 3.26 0 0 0 0.12 -0.76 4.65 4.65 0 0 0 0 -0.74 2.66 2.66 0 0 0 -0.17 -0.63 3.06 3.06 0 0 0 -0.3 -0.57 3.14 3.14 0 0 0 -3.29 -1.3 3.24 3.24 0 0 0 -2.51 2.46 3 3 0 0 0 -0.06 0.74 4.06 4.06 0 0 0 0.09 0.7 4.36 4.36 0 0 0 0.41 1.13 6.46 6.46 0 0 0 0.63 1 9.05 9.05 0 0 0 1 1.14 5 5 0 0 0 0.64 0.5 0.35 0.35 0 0 0 0 0.41Zm-0.33 -1.6a7.54 7.54 0 0 1 -0.69 -0.94 5.42 5.42 0 0 1 -0.48 -0.89 4 4 0 0 1 -0.26 -0.92 3.09 3.09 0 0 1 0 -0.53 2 2 0 0 1 0.05 -0.5 2.18 2.18 0 0 1 1.72 -1.55 2 2 0 0 1 2.11 0.79 1.55 1.55 0 0 1 0.21 0.35 1.63 1.63 0 0 1 0.13 0.37 3.55 3.55 0 0 1 0.06 0.56 2.44 2.44 0 0 1 -0.05 0.53 3.85 3.85 0 0 1 -0.27 0.81 7.53 7.53 0 0 1 -0.41 0.8 12.77 12.77 0 0 1 -0.79 1.18c-0.18 0.22 -0.36 0.44 -0.55 0.64a4.73 4.73 0 0 1 -0.78 -0.7Z" fill="#020202" fill-rule="evenodd" stroke-width="1"></path>
    <path d="M18.19 16.32a1 1 0 0 0 -0.61 -0.85l-0.12 0a0.93 0.93 0 0 0 -0.46 1.76c0.58 0.21 1.19 -0.38 1.19 -0.91Z" fill="#020202" fill-rule="evenodd" stroke-width="1"></path>
    <path d="M15.5 5.67c-0.93 0 -1.87 -0.15 -2.81 -0.21l0 -0.26 0 -1.25c0 -0.79 -0.22 -1.42 -0.28 -2.2 -0.22 -0.44 -0.52 -0.25 -0.66 0.09a14.14 14.14 0 0 0 -0.19 1.72l0 1.63a1.85 1.85 0 0 1 0 0.23h-0.07l-2.55 0c-0.58 0 -1.15 0 -1.73 0.09l-0.31 0c-0.07 -1.39 -0.18 -2.48 -0.24 -3.87C6.45 1.34 6 1.36 6 2c-0.07 1.41 -0.13 2.33 -0.16 3.74 -0.8 0.08 -1.59 0.17 -2.39 0.23C2.81 6 2.51 6 1.89 6c-0.37 0.12 -0.47 0.51 0 0.68 0.65 0 1 0.08 1.61 0.09s1.55 0 2.33 0v0.19c0 1.24 0 2.48 0.08 3.73l0 0.71h-0.34c-1.11 0 -2.17 0.18 -3.68 0.15 -0.51 0.17 -0.37 0.67 0 0.73a7.56 7.56 0 0 0 3.72 0.28l0.32 0c0.06 1.13 0.13 2 0.16 3.15 0.09 0.51 0.65 0.48 0.73 0 0 -1.16 0.08 -2.07 0.11 -3.23 0.62 -0.07 1.24 -0.14 1.87 -0.15a0.35 0.35 0 0 0 0 -0.7A17 17 0 0 0 7 11.4l0 -0.59 0 -2.34 0 -1.75h0.33l4.26 -0.18h0.06l0 0.68a12.84 12.84 0 0 0 0.15 1.39 0.34 0.34 0 0 0 0.38 0.32 0.35 0.35 0 0 0 0.31 -0.38l0 -1c0 -0.35 0.07 -0.72 0.1 -1.08l2.9 0 1 0c0.42 0 0.25 -0.75 -0.11 -0.72a8.08 8.08 0 0 1 -0.88 -0.08Z" fill="#4C57E6" fill-rule="evenodd" stroke-width="1"></path>
    <path d="M17.79 2.16a2 2 0 0 0 -0.35 -1 0.85 0.85 0 0 0 -0.38 -0.26 6.22 6.22 0 0 0 -1 -0.17c-0.38 -0.06 -0.77 -0.11 -1.15 -0.14 -0.86 -0.08 -1.73 -0.1 -2.59 -0.2S10.79 0.2 10 0.11C9.49 0.05 9 0 8.41 0s-1.36 0 -2 0.05c-1 0.06 -2 0.17 -3 0.27a7.37 7.37 0 0 0 -1.8 0.32 2 2 0 0 0 -0.81 0.56 1.71 1.71 0 0 0 -0.36 0.8 14.51 14.51 0 0 0 -0.08 1.53C0.29 4.33 0.25 5.14 0.23 6l0 3.61 0.12 5.38a6.55 6.55 0 0 0 0.15 1.5 1.18 1.18 0 0 0 0.55 0.72 0.8 0.8 0 0 0 0.36 0.1l0.49 0 1.73 -0.11c1.35 -0.06 2.69 -0.24 4 -0.32l1.69 0a0.33 0.33 0 0 0 0.33 -0.3 0.31 0.31 0 0 0 -0.3 -0.32 17 17 0 0 0 -1.75 0c-3.6 0.1 -1.84 0.16 -4 0.19l-1.7 0h-0.43c-0.15 -0.08 -0.15 -0.31 -0.17 -0.53a7.88 7.88 0 0 1 0 -1l0 -5.35c0 -0.06 0 -3.94 0.21 -5.93 0 -0.29 0 -0.78 0.05 -1.22A0.93 0.93 0 0 1 1.7 2a1 1 0 0 1 0.51 -0.28 8.39 8.39 0 0 1 1.29 -0.23 46.11 46.11 0 0 1 4.91 -0.39 12.55 12.55 0 0 1 1.5 0.07c0.62 0.05 4.15 0.32 5 0.37 0.36 0 0.72 0.05 1.08 0.1l0.83 0.12a1.19 1.19 0 0 1 0.17 0.51 6.26 6.26 0 0 1 0 1.15c0 0.94 -0.06 3.52 -0.07 3.79a11.12 11.12 0 0 1 -0.06 1.16 0.35 0.35 0 0 0 0.7 0.09c0 -0.31 0.06 -0.62 0.08 -0.93l0 -2.1 0.13 -2a7 7 0 0 0 0.02 -1.27Z" fill="#020202" fill-rule="evenodd" stroke-width="1"></path>
  </g>
</svg>