<svg xmlns="http://www.w3.org/2000/svg" viewBox="0 0 24 24" id="Synchronize-Arrow-2--Streamline-Freehand">
  <desc>
    Synchronize Arrow 2 Streamline Icon: https://streamlinehq.com
  </desc>
  <g>
    <path d="M15 14.28a3.25 3.25 0 0 0 1.43 -3.16 3.51 3.51 0 0 0 -2.21 -2.8 3.51 3.51 0 0 0 -3.14 0.46 3.46 3.46 0 0 0 -1.4 2.76 3.09 3.09 0 0 0 0.66 2.06 3 3 0 0 0 1.83 1.07 0.31 0.31 0 1 0 0.13 -0.6 2.36 2.36 0 0 1 -1.3 -0.93 2.23 2.23 0 0 1 -0.34 -1.53 2.48 2.48 0 0 1 1.11 -1.87 2.37 2.37 0 0 1 3.67 1.54 2.33 2.33 0 0 1 -0.88 2.34 2.3 2.3 0 0 1 -0.43 0.25 6.16 6.16 0 0 1 -0.8 0.26 0.35 0.35 0 0 0 0.16 0.68 6.5 6.5 0 0 0 0.92 -0.23 3.23 3.23 0 0 0 0.59 -0.3Z" fill="#4C57E6" fill-rule="evenodd" stroke-width="1"></path>
    <path d="M6.74 8.44a0.35 0.35 0 0 0 -0.48 0.12c-0.58 0.81 -1.29 1.79 -1.91 2.62 -0.37 0.51 -0.7 1 -0.94 1.25 -0.79 -0.7 -2.35 -2.33 -2.88 -2.77a0.31 0.31 0 0 0 -0.44 0 0.3 0.3 0 0 0 0 0.44c0.49 0.54 1.89 2.55 2.6 3.26a1.41 1.41 0 0 0 0.58 0.39 0.61 0.61 0 0 0 0.53 -0.09 5.92 5.92 0 0 0 1.2 -1.4c0.62 -1 1.32 -2.28 1.89 -3.33a0.36 0.36 0 0 0 -0.15 -0.49Z" fill="#020202" fill-rule="evenodd" stroke-width="1"></path>
    <path d="M21.31 4.53A10.23 10.23 0 0 0 12.1 1a12.21 12.21 0 0 0 -6.42 2.84 8 8 0 0 0 -3 6.23 0.32 0.32 0 0 0 0.63 0 7.29 7.29 0 0 1 2.9 -5.59 11.06 11.06 0 0 1 6 -2.39 9.2 9.2 0 0 1 8.18 3.21 10.88 10.88 0 0 1 2.39 8.62A10.49 10.49 0 0 1 20 19.47a9.64 9.64 0 0 1 -5.52 2.86 0.35 0.35 0 0 0 0.1 0.7 10.51 10.51 0 0 0 6 -3 11.46 11.46 0 0 0 3.17 -6 11.9 11.9 0 0 0 -2.44 -9.5Z" fill="#020202" fill-rule="evenodd" stroke-width="1"></path>
  </g>
</svg>