<svg xmlns="http://www.w3.org/2000/svg" viewBox="0 0 24 24" id="Table--Streamline-Freehand">
  <desc>
    Table Streamline Icon: https://streamlinehq.com
  </desc>
  <g>
    <path d="M21.49 8.8a1.23 1.23 0 0 0 -0.77 -0.9 2.7 2.7 0 0 0 -1.1 -0.23 11.78 11.78 0 0 0 -1.62 0.08c-1 0.11 -13 -0.17 -14.52 -0.09a0.32 0.32 0 0 0 -0.31 0.34 0.32 0.32 0 0 0 0.33 0.3l3.67 0c1.23 0 2.45 0.12 3.66 0.21s2.63 0.19 3.94 0.24c0.88 0 1.76 0.06 2.65 0.05 0.52 0 1.21 -0.1 1.86 -0.1a2.42 2.42 0 0 1 1 0.16 0.23 0.23 0 0 1 0.13 0.33 2.6 2.6 0 0 1 -0.58 0.8A11.8 11.8 0 0 1 17 11.93a11.12 11.12 0 0 1 -3.51 1 13.55 13.55 0 0 1 -3.7 0 11.05 11.05 0 0 1 -3.91 -1.17A7.35 7.35 0 0 1 3 8.92a0.28 0.28 0 0 0 -0.48 0.28 8 8 0 0 0 3 3.19 12 12 0 0 0 4.12 1.4 7 7 0 0 0 0.82 0.11l-0.36 3.92 0 1.51a2.24 2.24 0 0 1 -0.19 0.83 3.83 3.83 0 0 1 -0.72 1 6.62 6.62 0 0 1 -1 0.81 4.13 4.13 0 0 0 -0.74 0.6 0.57 0.57 0 0 0 -0.08 0.55 1.16 1.16 0 0 0 0.63 0.6 4 4 0 0 0 1.28 0.23c0.88 0 1.83 0.11 2.76 0.09a9.24 9.24 0 0 0 1.91 -0.23 12.36 12.36 0 0 0 1.33 -0.22 0.9 0.9 0 0 0 0.6 -0.51 1.11 1.11 0 0 0 -0.11 -0.81 2.09 2.09 0 0 0 -0.59 -0.65c-0.4 -0.28 -0.91 -0.54 -1.34 -0.87a1.84 1.84 0 0 1 -0.56 -0.65 2.26 2.26 0 0 1 -0.2 -0.73A11.4 11.4 0 0 1 13 18v-4l0 -0.08 0.62 0a12.06 12.06 0 0 0 3.86 -1A10.7 10.7 0 0 0 21 10.23a1.9 1.9 0 0 0 0.49 -1.43ZM13 21.21a14.59 14.59 0 0 0 1.57 1.15 0.8 0.8 0 0 1 0.16 0.16c0.06 0.06 0.15 0.12 0.15 0.19a7.6 7.6 0 0 1 -1.21 0 7.84 7.84 0 0 1 -1.7 0.18c-0.9 0 -1.83 0 -2.69 -0.07a5.13 5.13 0 0 1 -0.66 -0.07l0.11 -0.05A7.52 7.52 0 0 0 10 21.54a4.4 4.4 0 0 0 0.63 -1 2.71 2.71 0 0 0 0.21 -0.87c0.05 -0.6 0 -1.27 0 -1.81l0.18 -3.9a12.27 12.27 0 0 0 1.36 0l-0.15 4a12.85 12.85 0 0 0 0 1.38 4 4 0 0 0 0.23 1 2.75 2.75 0 0 0 0.54 0.87Z" fill="#020202" fill-rule="evenodd" stroke-width="1"></path>
    <path d="m8 6.56 0.14 -0.72 0.3 -1.14c0.11 -0.48 0.24 -1 0.38 -1.42s0.29 -0.93 0.46 -1.39a3.11 3.11 0 0 1 0.22 -0.53 0.58 0.58 0 0 1 0.28 -0.23 1.16 1.16 0 0 1 0.57 -0.08c0.64 0 1.37 0.2 1.89 0.22l2 0 0.25 0a1.14 1.14 0 0 1 0.07 0.64 14.17 14.17 0 0 1 -0.34 1.39q-0.17 0.7 -0.27 1.41c-0.1 0.64 -0.18 1.28 -0.27 1.91 -0.07 1.42 0.22 1.17 0.72 0 0.11 -0.59 0.22 -1.17 0.34 -1.76 0.05 -0.22 0.11 -0.44 0.17 -0.67 0.1 0.39 0.19 0.78 0.32 1.17a6.46 6.46 0 0 0 0.27 0.64c0.09 0.2 0.19 0.39 0.29 0.57 1.11 1.34 1.29 1 1.08 0l-0.14 -0.36c-0.14 -0.36 -0.28 -0.73 -0.45 -1.07a17.76 17.76 0 0 0 -1 -1.71 0.23 0.23 0 0 0 -0.15 -0.14 7 7 0 0 0 0.42 -1.59 1.91 1.91 0 0 0 -0.18 -1A0.79 0.79 0 0 0 15 0.33a1.87 1.87 0 0 0 -0.73 -0.12h-2c-0.53 0 -1.27 -0.2 -1.92 -0.2a2.35 2.35 0 0 0 -1 0.2 1.5 1.5 0 0 0 -0.59 0.52 3 3 0 0 0 -0.37 0.88c-0.14 0.49 -0.26 1 -0.37 1.47s-0.21 1 -0.29 1.48l-0.19 1.15 -0.11 0.85c-0.11 0.94 0.39 1.08 0.57 0Zm6.53 -5.31 -0.07 0c-0.07 0 0.11 -0.04 0.11 0Z" fill="#4C57E6" fill-rule="evenodd" stroke-width="1"></path>
  </g>
</svg>