<svg xmlns="http://www.w3.org/2000/svg" viewBox="0 0 24 24" id="Table-Candle--Streamline-Freehand">
  <desc>
    Table Candle Streamline Icon: https://streamlinehq.com
  </desc>
  <g>
    <path d="M22.45 12a0.92 0.92 0 0 0 -0.53 -0.27 15.89 15.89 0 0 0 -2.09 -0.13l-4.74 0c0 -0.53 0.05 -1.07 0.07 -1.6a5.65 5.65 0 0 0 1 -0.07A2.46 2.46 0 0 0 18 8.8a4 4 0 0 0 0.39 -1.8 18 18 0 0 0 -0.22 -2.49 0.32 0.32 0 0 0 -0.34 -0.3 0.33 0.33 0 0 0 -0.3 0.35 15.67 15.67 0 0 1 0 2.38 3 3 0 0 1 -0.43 1.35 1.56 1.56 0 0 1 -1.1 0.62 4.1 4.1 0 0 1 -0.79 0l0 -0.63 0 -1.1C15.1 6.37 15 5.53 15 4.67a0.28 0.28 0 0 0 -0.27 -0.29 0.29 0.29 0 0 0 -0.3 0.27c-0.1 0.87 -0.22 1.72 -0.26 2.58l0 1.11 0 0.53 -0.58 -0.11a2.09 2.09 0 0 1 -0.59 -0.18 1 1 0 0 1 -0.39 -0.3A2.48 2.48 0 0 1 12.18 7c-0.09 -0.81 0 -1.67 0 -2.37a0.29 0.29 0 1 0 -0.57 0 17.58 17.58 0 0 0 -0.17 2.87 3.11 3.11 0 0 0 0.42 1.32 2 2 0 0 0 0.68 0.65 3.36 3.36 0 0 0 0.81 0.33l0.9 0.16c0 0.56 0.11 1.12 0.17 1.69l-3.48 0.08c-2.1 0 -4.2 0.29 -6.3 0.43 -0.89 0.06 -1.78 0.1 -2.67 0.1a0.72 0.72 0 0 0 -0.65 0.71 2.63 2.63 0 0 0 0.63 1.6 2.13 2.13 0 0 0 1 0.73 6.77 6.77 0 0 0 0.75 0.19l-0.54 3.22 -0.38 2.05 -0.08 0.54a7 7 0 0 0 0 2.23 0.69 0.69 0 0 0 0.77 0.46 1.28 1.28 0 0 0 0.79 -0.61l0.3 -0.48L5 22c0.24 -0.59 0.45 -1.2 0.64 -1.81 0.42 -1.4 0.74 -2.82 1.22 -4.19l0 -0.14c1.64 0.09 3.54 0.1 5.44 0.06 1.6 0 3.18 -0.12 4.59 -0.23a0.3 0.3 0 0 0 -0.07 0.31c0.47 1.37 0.79 2.79 1.22 4.19a16.92 16.92 0 0 0 0.65 1.81l0.46 0.93 0.3 0.48a1.26 1.26 0 0 0 0.79 0.61 0.68 0.68 0 0 0 0.76 -0.46 6.71 6.71 0 0 0 0 -2.23l0 -0.57 -0.39 -2.05 -0.61 -3.38a6.26 6.26 0 0 0 1.8 -0.48 2.77 2.77 0 0 0 0.86 -1.54 1.62 1.62 0 0 0 -0.21 -1.31ZM4.77 19.86c-0.22 0.57 -0.45 1.13 -0.71 1.68l-0.45 0.83 -0.06 0.1c0 -0.42 0.14 -0.91 0.15 -1.06l0 -0.52 0.3 -2.06 0.27 -3.24c0.58 0.09 1.26 0.15 2 0.2 -0.58 1.33 -0.99 2.72 -1.5 4.07Zm15.31 2.51 -0.44 -0.83a17.6 17.6 0 0 1 -0.71 -1.68c-0.52 -1.37 -0.94 -2.78 -1.5 -4.12a0.29 0.29 0 0 0 -0.11 -0.11c0.79 -0.07 1.51 -0.14 2.13 -0.22l0.29 3.42 0.26 2.06 0.05 0.52c0 0.15 0.11 0.64 0.15 1.06Zm1.48 -9.1a1.49 1.49 0 0 1 -0.32 0.66 12 12 0 0 1 -3.06 0.55c-2.15 0.25 -5 0.46 -7.75 0.54a29.7 29.7 0 0 1 -7.3 -0.39 1.51 1.51 0 0 1 -0.81 -0.63 2.77 2.77 0 0 1 -0.39 -1.09s0 0 0 -0.06l1.81 0c2.39 -0.05 4.78 -0.28 7.17 -0.25 1.39 0 7.47 0 10 0.14 0.29 0 0.58 0 0.75 0.07a1.26 1.26 0 0 1 -0.1 0.46Z" fill="#020202" fill-rule="evenodd" stroke-width="1"></path>
    <path d="M11.92 3.67a0.29 0.29 0 0 0 0.06 -0.4 0.68 0.68 0 0 1 -0.09 -0.49c0 -0.06 0.09 -0.06 0.13 -0.1s0.18 -0.13 0.27 -0.21a3.2 3.2 0 0 0 0.71 -0.71 1.42 1.42 0 0 0 0.2 -0.64 2.8 2.8 0 0 0 -0.07 -0.83 0.32 0.32 0 1 0 -0.64 0.07 2.29 2.29 0 0 1 -0.09 0.5 0.77 0.77 0 0 1 -0.19 0.31 7.05 7.05 0 0 1 -0.6 0.51 1.51 1.51 0 0 0 -0.45 0.65 1.13 1.13 0 0 0 0.41 1.29 0.3 0.3 0 0 0 0.35 0.05Z" fill="#4C57E6" fill-rule="evenodd" stroke-width="1"></path>
    <path d="M15 3.67a0.29 0.29 0 0 0 0.06 -0.4 0.68 0.68 0 0 1 -0.06 -0.49c0 -0.06 0.09 -0.06 0.13 -0.1s0.18 -0.13 0.27 -0.21a3.2 3.2 0 0 0 0.66 -0.71 1.56 1.56 0 0 0 0.21 -0.64 3.16 3.16 0 0 0 -0.08 -0.83 0.32 0.32 0 1 0 -0.64 0.07 2.29 2.29 0 0 1 -0.09 0.5 0.77 0.77 0 0 1 -0.19 0.31 7.05 7.05 0 0 1 -0.6 0.51 1.51 1.51 0 0 0 -0.45 0.65 1.14 1.14 0 0 0 0.42 1.29 0.28 0.28 0 0 0 0.36 0.05Z" fill="#4C57E6" fill-rule="evenodd" stroke-width="1"></path>
    <path d="M18.12 3.67a0.29 0.29 0 0 0 0.06 -0.4 0.68 0.68 0 0 1 -0.09 -0.49c0 -0.06 0.09 -0.06 0.14 -0.1a3 3 0 0 1 0.26 -0.21 3.5 3.5 0 0 0 0.67 -0.71 1.71 1.71 0 0 0 0.2 -0.64 2.79 2.79 0 0 0 -0.08 -0.83 0.32 0.32 0 0 0 -0.35 -0.29 0.33 0.33 0 0 0 -0.29 0.36 2.26 2.26 0 0 1 -0.08 0.5 0.92 0.92 0 0 1 -0.2 0.31 7.05 7.05 0 0 1 -0.6 0.51 1.6 1.6 0 0 0 -0.45 0.65 1.14 1.14 0 0 0 0.42 1.29 0.28 0.28 0 0 0 0.39 0.05Z" fill="#4C57E6" fill-rule="evenodd" stroke-width="1"></path>
  </g>
</svg>