<svg xmlns="http://www.w3.org/2000/svg" viewBox="0 0 24 24" id="Tags-1--Streamline-Freehand">
  <desc>
    Tags 1 Streamline Icon: https://streamlinehq.com
  </desc>
  <g>
    <path d="M22.53 15.08a8.56 8.56 0 0 0 -1.14 -1.83A29.75 29.75 0 0 0 19.32 11l-7.09 -7.41c-0.23 -0.23 -1.17 -1.45 -1.84 -2.07A1.6 1.6 0 0 0 9.55 1 9.06 9.06 0 0 1 8 0.89C7.2 0.74 6.42 0.53 5.63 0.32L4.18 0.1a0.35 0.35 0 0 0 -0.49 0 0.35 0.35 0 0 0 0 0.49 1.13 1.13 0 0 0 0.48 0.22C4.55 0.9 5.19 1 5.44 1c0.81 0.22 1.61 0.45 2.41 0.61a10.17 10.17 0 0 0 1.65 0.19 0.57 0.57 0 0 1 0.16 0.11 5.48 5.48 0 0 1 0.64 0.64c0.56 0.64 1.15 1.42 1.33 1.6l7 7.5a26.21 26.21 0 0 1 2 2.22 7.2 7.2 0 0 1 1 1.61 4.39 4.39 0 0 1 0.25 0.62c0 0.07 0.1 0.17 0 0.2a1 1 0 0 1 -0.5 0c-0.39 -0.1 -0.78 -0.28 -1.14 -0.38 -1 -0.27 -2 -0.45 -3 -0.71q-0.62 -0.15 -1.23 -0.36a11.63 11.63 0 0 0 -1.57 -0.51 2.13 2.13 0 0 0 -1 0 0.9 0.9 0 0 0 -0.61 0.68 4.36 4.36 0 0 0 0.25 1.7c0.15 0.51 0.28 1 0.39 1.54 0.28 1.24 0.5 2.49 0.79 3.72 0 0.06 -0.12 0.35 -0.16 0.6a10.71 10.71 0 0 1 -2 -1.78c-1.2 -1.3 -2.31 -2.82 -3.29 -3.94L3.44 11c-0.16 -0.18 -0.69 -0.63 -1.11 -1.07A3.2 3.2 0 0 1 2 9.5c0 -0.06 -0.1 -0.09 -0.1 -0.13l0 -2.95c0 -0.66 0 -1.33 0.08 -2S1.93 2.89 2 2.09a2.09 2.09 0 0 1 0.21 -0.86 0.3 0.3 0 0 0 -0.12 -0.41 0.31 0.31 0 0 0 -0.42 0.1A2.81 2.81 0 0 0 1.37 2c-0.08 0.8 0 1.79 0 2.38s-0.1 1.31 -0.13 2c-0.05 1 -0.07 2.05 -0.1 3a1.28 1.28 0 0 0 0.3 0.68c0.4 0.53 1.21 1.23 1.4 1.47l5.14 6c1.13 1.33 2.41 3.23 3.85 4.67A9.22 9.22 0 0 0 14 23.88a0.79 0.79 0 0 0 1 -0.17 1.66 1.66 0 0 0 0.32 -0.87 4.74 4.74 0 0 0 0 -1.1c-0.29 -1.23 -0.51 -2.48 -0.78 -3.71 -0.12 -0.54 -0.25 -1.08 -0.4 -1.61 0 -0.13 -0.16 -0.7 -0.21 -1a3 3 0 0 1 0.36 0.08 10.58 10.58 0 0 1 1.22 0.42c0.44 0.15 0.88 0.27 1.33 0.38 1 0.25 2 0.43 3 0.69 0.44 0.11 0.94 0.35 1.41 0.42a1.87 1.87 0 0 0 0.85 -0.06 1 1 0 0 0 0.75 -0.73 2.87 2.87 0 0 0 -0.32 -1.54Z" fill="#020202" fill-rule="evenodd" stroke-width="1"></path>
    <path d="M6.29 5.06a0.31 0.31 0 0 0 0.3 -0.31 0.3 0.3 0 0 0 -0.31 -0.3 2.28 2.28 0 0 0 -1.67 1 2.47 2.47 0 0 0 -0.56 1.93 3.89 3.89 0 0 0 1 2 2.82 2.82 0 0 0 2.2 0.79A2.7 2.7 0 0 0 9.31 9a3.4 3.4 0 0 0 0.59 -2.13 5.53 5.53 0 0 0 -0.59 -2c-0.21 -0.32 -0.46 -0.47 -0.7 -0.43a0.36 0.36 0 0 0 -0.31 0.39s0.72 2 0.72 2a2.51 2.51 0 0 1 -0.55 1.48A1.65 1.65 0 0 1 7.2 9a1.74 1.74 0 0 1 -1.34 -0.47A2.88 2.88 0 0 1 5 7.13a1.6 1.6 0 0 1 0.25 -1.25 1.56 1.56 0 0 1 1.04 -0.82Z" fill="#020202" fill-rule="evenodd" stroke-width="1"></path>
  </g>
</svg>