<svg xmlns="http://www.w3.org/2000/svg" viewBox="0 0 24 24" id="Tape-Cassette--Streamline-Freehand">
  <desc>
    Tape Cassette Streamline Icon: https://streamlinehq.com
  </desc>
  <g>
    <path d="M23.87 10a6.88 6.88 0 0 0 -0.1 -0.9 5.55 5.55 0 0 0 -0.22 -0.87 7.78 7.78 0 0 0 -0.44 -1A2.5 2.5 0 0 0 22.73 6a3.51 3.51 0 0 0 -2.05 -0.86c-1.59 -0.27 -3.78 -0.33 -4.24 -0.39 -0.76 -0.09 -1.5 -0.22 -2.25 -0.34L11.94 4c-1.84 -0.35 -3.69 -0.61 -5.53 -0.92 -0.79 -0.14 -1.57 -0.29 -2.35 -0.45a0.3 0.3 0 0 0 -0.36 0.23 0.3 0.3 0 0 0 -0.32 0.14c-0.17 0.48 -0.32 1 -0.46 1.45 -0.56 1.93 -1 3.9 -1.59 5.81a19.45 19.45 0 0 0 -0.85 2.21 1.92 1.92 0 0 0 0 0.62C0.33 13.64 0.2 14.2 0.1 14.77a6.13 6.13 0 0 0 -0.1 1.46 1.68 1.68 0 0 0 0.83 1.1 10.12 10.12 0 0 0 2.45 1.07c1.35 0.41 2.73 0.76 4.11 1.05 2.06 0.43 4.15 0.75 6.21 1.15 1 0.19 2.06 0.37 3.1 0.5 0.7 0.08 1.41 0.14 2.11 0.16a12.85 12.85 0 0 0 1.41 0.12 1.18 1.18 0 0 0 0.58 -0.15 2.91 2.91 0 0 0 1 -1.18 13.81 13.81 0 0 0 0.64 -1.91c0.36 -1.22 0.71 -2.45 1 -3.68 0.7 -2.4 0.61 -1.46 0.43 -4.46Zm-4.59 8.5a5.4 5.4 0 0 0 0.09 0.58c0.07 0.4 0.18 0.79 0.26 1.18l-0.76 -0.08c-0.85 -0.06 -1.69 -0.17 -2.53 -0.3s-1.7 -0.28 -2.53 -0.44C11.41 19 9 18.67 6.57 18.2c-1 -0.2 -2 -0.41 -3 -0.67a10.36 10.36 0 0 1 -2 -0.7c-0.4 -0.21 -0.78 -0.4 -0.82 -0.68a5 5 0 0 1 0 -1.28c0 -0.33 0.1 -0.65 0.16 -1a4.19 4.19 0 0 0 1 0.71 18.21 18.21 0 0 0 3.41 1.12 37.55 37.55 0 0 0 3.95 0.71c3.05 0.39 6.16 0.48 9.18 0.91a0.33 0.33 0 0 0 0.39 -0.28 0.34 0.34 0 0 0 -0.28 -0.4c-3 -0.55 -6.11 -0.8 -9.14 -1.28a35.24 35.24 0 0 1 -3.81 -0.78 21.55 21.55 0 0 1 -2.76 -0.84 3.08 3.08 0 0 1 -1.32 -0.85 11 11 0 0 1 0.75 -2.35C2.74 8.87 3 7.12 3.4 5.39c0.16 -0.72 0.34 -1.45 0.56 -2.17H4L11.73 5a23.51 23.51 0 0 0 2.71 0.61c2.28 0.24 2.85 0.28 5.47 0.62a8.65 8.65 0 0 1 1.56 0.3c0.15 0 0.28 0.07 0.33 0.14a1.78 1.78 0 0 1 0.28 1.24 14.64 14.64 0 0 1 -0.6 2.35l-0.72 2.63c-0.18 0.73 -0.37 1.47 -0.58 2.2a28.48 28.48 0 0 0 -0.92 2.88c0 0.16 0.01 0.36 0.02 0.55Zm3.47 -4.27c-0.38 1.21 -0.77 2.42 -1.17 3.62a11.05 11.05 0 0 1 -0.65 1.73 2 2 0 0 1 -0.57 0.69c0 -0.43 0.08 -0.85 0.09 -1.28a3.88 3.88 0 0 0 0 -0.59 5.54 5.54 0 0 0 -0.07 -0.57c0 -0.2 -0.1 -0.4 -0.15 -0.59 0.25 -0.66 0.48 -1.32 0.7 -2s0.47 -1.46 0.67 -2.2l0.81 -2.57c0.09 -0.25 0.19 -0.55 0.29 -0.85l0.09 0.46c0.13 0.67 0.28 1.33 0.36 2a0.29 0.29 0 0 0 0.15 0.25Z" fill="#020202" fill-rule="evenodd" stroke-width="1"></path>
    <path d="M8 5.37a2.18 2.18 0 0 0 0.19 0.74 1.62 1.62 0 0 0 0.7 0.74 5.32 5.32 0 0 0 1.21 0.44l1.51 0.42c0.52 0.14 1.05 0.25 1.57 0.34 0.37 0 1.3 0.31 2.05 0.36a2 2 0 0 0 1.15 -0.19 2.36 2.36 0 0 0 0.74 -0.86 9.93 9.93 0 0 0 0.5 -1c0.06 -0.31 -0.67 -0.42 -0.82 -0.12a5.89 5.89 0 0 1 -0.42 0.7 1.47 1.47 0 0 1 -0.49 0.5c-0.16 0.09 -0.48 0 -0.82 -0.07 -0.65 -0.13 -1.37 -0.36 -1.69 -0.42l-3 -0.64a4.44 4.44 0 0 1 -1 -0.23 0.83 0.83 0 0 1 -0.4 -0.32 1.84 1.84 0 0 1 -0.21 -0.65l0 -0.41c0 -0.35 -0.61 -0.41 -0.69 -0.1a5.54 5.54 0 0 0 -0.08 0.77Z" fill="#4C57E6" fill-rule="evenodd" stroke-width="1"></path>
    <path d="M16.79 10.77c-0.72 -0.73 -0.79 -0.49 -4 -1.44 -0.65 -0.19 -1.31 -0.37 -2 -0.51 0 0 -3.4 -0.64 -4.19 -0.38a2.39 2.39 0 0 0 -1 0.67 2.58 2.58 0 0 0 -0.64 2.23 2.17 2.17 0 0 0 1.74 1.71 2.74 2.74 0 0 0 0.86 0 21.09 21.09 0 0 0 2.22 0.68 20.22 20.22 0 0 0 2.2 0.38c0.65 0.09 1.3 0.14 2 0.2a2.28 2.28 0 0 0 0.71 0.38 2.14 2.14 0 0 0 2.32 -0.75 2.6 2.6 0 0 0 0.38 -2.27 2 2 0 0 0 -0.6 -0.9ZM6.25 9.66a1.59 1.59 0 0 1 0.61 -0.55c0.68 -0.31 1.87 0.83 1.51 2a1.19 1.19 0 0 1 -1.46 0.83 1.14 1.14 0 0 1 -0.9 -0.84 1.66 1.66 0 0 1 0.24 -1.44Zm5.52 3.28c-0.72 -0.14 -1.44 -0.28 -2.16 -0.4l-0.91 -0.15a2.23 2.23 0 0 0 0.19 -2.93l1.31 0.38c0.65 0.18 1.3 0.35 2 0.49s1.26 0.22 1.89 0.31a2.49 2.49 0 0 0 -0.89 1.27 2.3 2.3 0 0 0 0 1.35c-0.5 -0.11 -0.96 -0.26 -1.43 -0.32Zm4.29 0.29a1.08 1.08 0 0 1 -1.16 0.33 1.11 1.11 0 0 1 -0.82 -1.41 1.36 1.36 0 0 1 2 -1 1.36 1.36 0 0 1 0.35 0.72 1.71 1.71 0 0 1 -0.37 1.36Z" fill="#4C57E6" fill-rule="evenodd" stroke-width="1"></path>
  </g>
</svg>