<svg xmlns="http://www.w3.org/2000/svg" viewBox="0 0 24 24" id="Task-List-Multiple--Streamline-Freehand">
  <desc>
    Task List Multiple Streamline Icon: https://streamlinehq.com
  </desc>
  <g>
    <path d="M8.51 8.93a9.29 9.29 0 0 0 -0.72 1.12c-0.3 0.56 -0.57 1.14 -0.87 1.7a3.68 3.68 0 0 0 -0.13 0.48L5.28 11a0.34 0.34 0 0 0 -0.48 0 0.35 0.35 0 0 0 0 0.48l1.26 1.63s0.21 0.32 0.3 0.43a0.66 0.66 0 0 0 0.8 0.17 1.46 1.46 0 0 0 0.52 -0.53c0.17 -0.3 0.3 -0.71 0.39 -0.9 0.25 -0.7 0.45 -1.41 0.71 -2.11a7.86 7.86 0 0 1 0.36 -0.84 0.38 0.38 0 1 0 -0.65 -0.4Z" fill="#020202" fill-rule="evenodd" stroke-width="1"></path>
    <path d="M8.51 14.88A9.29 9.29 0 0 0 7.79 16c-0.3 0.56 -0.57 1.14 -0.87 1.7a3.68 3.68 0 0 0 -0.13 0.48l-1.51 -1.25a0.34 0.34 0 0 0 -0.48 0 0.35 0.35 0 0 0 0 0.48l1.26 1.63 0.3 0.43a0.66 0.66 0 0 0 0.8 0.17 1.46 1.46 0 0 0 0.52 -0.53c0.17 -0.3 0.3 -0.71 0.39 -0.9 0.25 -0.7 0.45 -1.42 0.71 -2.11a7.86 7.86 0 0 1 0.36 -0.84 0.38 0.38 0 1 0 -0.65 -0.4Z" fill="#020202" fill-rule="evenodd" stroke-width="1"></path>
    <path d="M17.52 7.27a3.44 3.44 0 0 0 -1.3 -2.1 3.67 3.67 0 0 0 -1.68 -0.54 21.27 21.27 0 0 0 -2.26 0c-1 0 -1.92 0.07 -2.88 0.15 -2.2 0.22 -4.4 0.53 -6.59 0.71a0.34 0.34 0 0 0 -0.32 0.35 0.36 0.36 0 0 0 0.13 0.24 0.32 0.32 0 0 0 -0.28 0.28C2.19 7.44 2.1 8.53 2 9.61s-0.11 2.18 -0.12 3.27l0 1.67c0 0.84 0.05 1.67 0.1 2.51l0.2 4.24a6.53 6.53 0 0 0 0 1.19 1 1 0 0 0 0.35 0.65 4.17 4.17 0 0 0 1.77 0.7 15.27 15.27 0 0 0 2.55 0.16c1 0 2 -0.05 3 -0.13 2.28 -0.19 4.53 -0.52 6.83 -0.66a0.37 0.37 0 0 0 0.34 -0.32 0.38 0.38 0 0 0 0.37 -0.4l0 -2.39c0.07 -3.21 0.29 -6.41 0.32 -9.62a15.09 15.09 0 0 0 -0.19 -3.21ZM9.77 22.81c-1 0 -1.92 0.05 -2.89 0a15.54 15.54 0 0 1 -2.32 -0.23c-1 -0.2 -1 -0.2 -1.06 -1.32 0 -0.72 0 -1.44 -0.09 -2.16s-0.1 -1.43 -0.17 -2.15l-0.31 -4.09c-0.05 -1.08 -0.07 -2.15 -0.06 -3.23s0 -2.14 0.14 -3.21a0.33 0.33 0 0 0 -0.11 -0.27c2.19 -0.06 4.37 -0.27 6.56 -0.35l2.8 0c0.63 0 1.41 0 2.14 0.07a2.42 2.42 0 0 1 1.09 0.35 2.16 2.16 0 0 1 0.77 1.35 14.33 14.33 0 0 1 0.21 2.93c0.09 2.8 0 5.6 0.06 8.39 0 1.19 0 2.36 0.09 3.55 -2.3 0.04 -4.56 0.28 -6.85 0.37Z" fill="#020202" fill-rule="evenodd" stroke-width="1"></path>
    <path d="M22 3.65a10.84 10.84 0 0 0 -0.28 -2.32A2 2 0 0 0 21 0.16a1.82 1.82 0 0 0 -0.67 -0.16l-3 0c-2.64 0 -6.19 0.14 -7.63 0.21a9.44 9.44 0 0 0 -1.88 0.2 1.56 1.56 0 0 0 -0.89 0.48 0.85 0.85 0 0 0 -0.14 0.45 9.77 9.77 0 0 0 0.1 1.09 0.33 0.33 0 0 0 0.1 0.23 7.14 7.14 0 0 0 -1.24 0.22 1.57 1.57 0 0 0 -0.92 0.57 0.82 0.82 0 0 0 -0.11 0.4l0 0.56a0.34 0.34 0 0 0 0.68 0l0 -0.57c0.11 -0.17 0.43 -0.22 0.76 -0.28a11.23 11.23 0 0 1 1.63 -0.13c1 0 2 -0.06 3 0 1.52 0 3 0.07 4.55 0.12l1.88 0a1.94 1.94 0 0 1 0.91 0.21 1.19 1.19 0 0 1 0.46 0.77 8 8 0 0 1 0 1.95l0 2.37c0 1.82 0.14 3.64 0.18 5.46l0 1.86c0 0.43 0 0.85 0.08 1.27s0.19 1 0.25 1.5a2.24 2.24 0 0 1 0 0.78c-0.23 -0.22 -0.93 0.36 -1.19 0.43a0.4 0.4 0 0 0 -0.27 0.47 0.38 0.38 0 0 0 0.47 0.27 6.24 6.24 0 0 0 1.34 -0.41 0.92 0.92 0 0 0 0.42 -0.44 2.88 2.88 0 0 0 0.12 -0.9 13.68 13.68 0 0 0 -0.16 -1.48 9.65 9.65 0 0 0 1 -0.08 2.44 2.44 0 0 0 0.5 -0.13 0.72 0.72 0 0 0 0.38 -0.54 6.2 6.2 0 0 0 0 -1.24c0.05 -0.73 0.09 -1.45 0.11 -2.18s0 -1.46 0 -2.19c0 -1.76 0.08 -3.53 0.07 -5.3q0.21 -1.19 0.11 -2.35Zm-1 11.94c0 0.09 -0.24 0.91 0 1.13l-0.28 0.05c-0.28 0.05 -0.58 0.06 -0.84 0.09l0 -0.76 0 -1.85 0.12 -7.78a9.22 9.22 0 0 0 -0.1 -2.27 2.43 2.43 0 0 0 -1 -1.56 2.61 2.61 0 0 0 -1.19 -0.38 21.82 21.82 0 0 0 -2.32 0c-1.52 0 -3 0 -4.56 0.1 -1 0 -2 0.1 -3.06 0.2l-0.26 0a0.36 0.36 0 0 0 0.07 -0.18l-0.07 -1.05c0.11 -0.14 0.4 -0.17 0.71 -0.21a12.68 12.68 0 0 1 1.5 -0.06c1.88 0 7.43 0.15 9.8 0.24 0.35 0 0.71 0.12 0.86 0.1l0 0.07a3.13 3.13 0 0 1 0.19 0.76c0.1 0.62 0.11 1.27 0.13 1.52 0.06 0.75 0.09 1.49 0.12 2.24 0 1.76 0 3.54 0.13 5.3 0 0.72 0.05 1.43 0.06 2.15S21 14.87 21 15.59Z" fill="#4C57E6" fill-rule="evenodd" stroke-width="1"></path>
    <path d="M14.7 11.17a7.6 7.6 0 0 0 -1.7 -0.24 4.53 4.53 0 0 0 -0.74 0.05 4.18 4.18 0 0 0 -0.72 0.15 9.34 9.34 0 0 0 -1.57 0.7 0.33 0.33 0 0 0 -0.22 0.42 0.34 0.34 0 0 0 0.43 0.22c0.58 -0.09 1.19 -0.08 1.82 -0.15 0.35 0 0.7 -0.11 1 -0.17a11.44 11.44 0 0 1 1.59 -0.22 0.38 0.38 0 0 0 0.09 -0.76Z" fill="#020202" fill-rule="evenodd" stroke-width="1"></path>
    <path d="M14.7 17.12a7.6 7.6 0 0 0 -1.7 -0.24 4.53 4.53 0 0 0 -0.74 0.05 4.18 4.18 0 0 0 -0.72 0.15 9.34 9.34 0 0 0 -1.57 0.7 0.33 0.33 0 0 0 -0.22 0.42 0.34 0.34 0 0 0 0.43 0.22c0.58 -0.09 1.19 -0.08 1.82 -0.15 0.35 0 0.7 -0.11 1 -0.17a11.44 11.44 0 0 1 1.59 -0.22 0.38 0.38 0 0 0 0.42 -0.34 0.37 0.37 0 0 0 -0.31 -0.42Z" fill="#020202" fill-rule="evenodd" stroke-width="1"></path>
  </g>
</svg>