<svg xmlns="http://www.w3.org/2000/svg" viewBox="0 0 24 24" id="Task-List-Clipboard-Warning--Streamline-Freehand">
  <desc>
    Task List Clipboard Warning Streamline Icon: https://streamlinehq.com
  </desc>
  <g>
    <path d="M22.14 11.77a2.15 2.15 0 0 0 -1.77 -1.26 2.52 2.52 0 0 0 -2 0.72 4.58 4.58 0 0 0 -1 1.94 14.8 14.8 0 0 0 -0.39 3 13.94 13.94 0 0 0 0 1.94c0 0.64 0.13 1.28 0.24 1.91a0.28 0.28 0 1 0 0.56 -0.08 16.61 16.61 0 0 1 -0.13 -1.86 12.69 12.69 0 0 1 0.1 -1.84 15.37 15.37 0 0 1 0.54 -2.78 3.54 3.54 0 0 1 0.8 -1.47 1.42 1.42 0 0 1 1.14 -0.4 1.08 1.08 0 0 1 0.92 0.62 2.94 2.94 0 0 1 0.26 1.47 5.16 5.16 0 0 1 -0.32 1.58 8.51 8.51 0 0 1 -1.14 2A16.86 16.86 0 0 1 18.4 19a0.33 0.33 0 0 0 0 0.45 0.32 0.32 0 0 0 0.45 0 16.1 16.1 0 0 0 2.05 -2.15 8.29 8.29 0 0 0 1.05 -1.75 6 6 0 0 0 0.49 -1.84 4.1 4.1 0 0 0 -0.3 -1.94Z" fill="#020202" fill-rule="evenodd" stroke-width="1"></path>
    <path d="M15.85 21.92a1.62 1.62 0 0 0 1 2.09 1.81 1.81 0 0 0 2.17 -1c1.15 -2.3 -2.47 -3.01 -3.17 -1.09Zm2.39 0.69a0.85 0.85 0 0 1 -1 0.4 0.69 0.69 0 0 1 -0.52 -0.84c0.28 -1.24 2.41 -0.95 1.52 0.44Z" fill="#020202" fill-rule="evenodd" stroke-width="1"></path>
    <g>
      <path d="M6.26 1.21a1.51 1.51 0 0 0 -0.3 0 1.25 1.25 0 0 0 -1.13 0.34c-0.4 0.66 -0.45 1.1 -1.1 5.47 -0.2 1.36 -0.55 2.6 -0.79 3.79s-0.49 2.58 -0.75 3.77a24.3 24.3 0 0 0 -0.62 2.64 0.81 0.81 0 0 0 0.28 0.79 14.89 14.89 0 0 0 2.83 0.8c2.5 0.54 9.23 1.68 9.8 1.77a0.31 0.31 0 0 0 0.38 -0.25 0.33 0.33 0 0 0 -0.25 -0.38c-0.57 -0.12 -7.25 -1.4 -9.71 -2a21.41 21.41 0 0 1 -2.27 -0.68c0.12 -0.74 0.59 -2.31 0.62 -2.42 0.17 -0.81 0.35 -1.66 0.5 -2.54 0.51 -2.9 0.79 -5.55 1.58 -9.5 0 0 0.09 -0.49 0.09 -0.51a1.06 1.06 0 0 1 0.36 -0.17C6 2 6.19 2.07 6.27 2c0.24 -0.18 0.25 -0.72 -0.01 -0.79Z" fill="#020202" fill-rule="evenodd" stroke-width="1"></path>
      <path d="M19.61 8c0.05 -0.34 0.09 -0.67 0.13 -1 0.08 -0.71 0.13 -1.47 0.2 -2.38a0.29 0.29 0 0 0 0 -0.16 0.34 0.34 0 0 0 0.06 -0.19 0.32 0.32 0 0 0 -0.24 -0.38 2.28 2.28 0 0 0 -0.9 -0.3c-0.29 0 -0.64 0.5 -0.42 0.75a0.64 0.64 0 0 0 0.38 0.21l0.48 0c-0.21 0.86 -0.4 1.57 -0.56 2.26 -0.07 0.33 -0.14 0.66 -0.2 1s0 1.22 -0.07 2.13a0.28 0.28 0 0 0 0.23 0.33 0.29 0.29 0 0 0 0.3 -0.27c0.08 -0.24 0.55 -1.7 0.61 -2Z" fill="#020202" fill-rule="evenodd" stroke-width="1"></path>
      <path d="M22.18 3.62a2.38 2.38 0 0 0 -0.48 -1 2.23 2.23 0 0 0 -2.18 -0.88l-0.37 -0.07C18 1.41 17.2 1.15 16.08 0.9c-0.4 -0.09 -0.84 -0.17 -1.34 -0.26S13.52 0.46 12.93 0.4C8.66 -0.06 8.52 -0.48 7.41 0.51a2.3 2.3 0 0 0 -0.35 0.41C6.32 2.1 6.17 4.17 4.7 12c-0.11 0.59 -0.49 1.55 -0.61 2.38a2.88 2.88 0 0 0 0 1.26 1.18 1.18 0 0 0 0.87 0.66c1.13 0.33 6.79 1.07 8.88 1.49a0.33 0.33 0 0 0 0.39 -0.25 0.32 0.32 0 0 0 -0.24 -0.38c-1.47 -0.38 -6.25 -1.26 -7.53 -1.5 -0.7 -0.14 -1.63 -0.2 -1.46 -0.42 0 0 0.06 0.07 0.07 0.11a2.62 2.62 0 0 1 0.13 -1.15c0.17 -0.72 0.44 -1.48 0.56 -2 0.19 -0.86 0.42 -1.7 0.54 -2.56 1 -6.76 0.54 -6 1.39 -7.68a4.19 4.19 0 0 1 0.48 -0.73 2.08 2.08 0 0 1 1 -0.69c0.88 0.26 1.74 0.47 2.61 0.65s1.83 0.32 2.78 0.51c1.42 0.18 2.33 0.36 3.34 0.51l0.42 0.06c-1.21 1 -1.18 1.56 -2.13 5 -0.09 0.3 -0.15 0.61 -0.21 0.91s-0.11 0.62 -0.15 0.93c-0.09 0.73 -1 6.34 -1.1 7.07a0.32 0.32 0 0 0 0.64 0.11c0.18 -0.71 1.28 -6.28 1.46 -7 0.08 -0.3 0.15 -0.6 0.22 -0.91s0.12 -0.61 0.15 -0.91C17.47 5 18.27 3.36 18.81 3a1.36 1.36 0 0 1 2.06 0.3 1.67 1.67 0 0 1 0.28 0.78 8.6 8.6 0 0 1 0 1A8 8 0 0 1 21 7.75s-0.46 1.54 0 1.86c0.2 0.15 0.39 -0.08 0.45 -0.2a3 3 0 0 0 0.04 -0.41s0.39 -1.29 0.51 -1.93a18.9 18.9 0 0 0 0.25 -1.93 5.42 5.42 0 0 0 -0.07 -1.52Z" fill="#4C57E6" fill-rule="evenodd" stroke-width="1"></path>
      <path d="M16.21 5a0.34 0.34 0 0 0 -0.23 -0.4c-0.91 -0.32 -1.83 -0.61 -2.77 -0.84 -0.4 -0.1 -0.81 -0.19 -1.22 -0.25a12.15 12.15 0 0 0 -1.23 -0.16c-1 -0.08 -1.93 -0.06 -2.89 0a0.29 0.29 0 0 0 0 0.57C8.9 4 10 4.27 11 4.46c0.64 0.11 1.28 0.2 1.92 0.3 1 0.15 1.92 0.28 2.87 0.47a0.32 0.32 0 0 0 0.42 -0.23Z" fill="#4C57E6" fill-rule="evenodd" stroke-width="1"></path>
      <path d="M14.26 8.25a0.33 0.33 0 0 0 -0.16 -0.43 3.73 3.73 0 0 0 -0.68 -0.28c-0.34 -0.1 -0.69 -0.18 -1 -0.25a6.93 6.93 0 0 0 -1.94 -0.21 9.36 9.36 0 0 0 -2 0.33 0.29 0.29 0 0 0 -0.24 0.32 0.27 0.27 0 0 0 0.38 0.27l0.74 0c0.5 0 1 0.12 1.46 0.16s1 0 1.47 0.1c0.3 0 0.64 0 1 0.05a2.62 2.62 0 0 1 0.57 0.11 0.33 0.33 0 0 0 0.4 -0.17Z" fill="#4C57E6" fill-rule="evenodd" stroke-width="1"></path>
      <path d="M11.64 10.72a8.27 8.27 0 0 0 -0.83 -0.19 5.83 5.83 0 0 0 -0.84 -0.09 13.14 13.14 0 0 0 -2 0.1 0.27 0.27 0 0 0 -0.28 0.28 0.28 0.28 0 0 0 0.31 0.28c0.73 0.1 1.4 0.28 2.11 0.42l1.26 0.19c0.64 0.1 1.27 0.17 1.91 0.31a0.33 0.33 0 0 0 0.41 -0.21 0.32 0.32 0 0 0 -0.21 -0.4 15.29 15.29 0 0 0 -1.84 -0.69Z" fill="#4C57E6" fill-rule="evenodd" stroke-width="1"></path>
    </g>
  </g>
</svg>