<svg xmlns="http://www.w3.org/2000/svg" viewBox="0 0 24 24" id="Task-List-Clipboard--Streamline-Freehand">
  <desc>
    Task List Clipboard Streamline Icon: https://streamlinehq.com
  </desc>
  <g>
    <path d="M21.58 4a1 1 0 0 0 -0.18 -0.45c-0.73 -0.82 -3.93 -0.65 -5.6 -0.88 -0.27 -1 -0.94 -2.23 -1.89 -2.51a4.78 4.78 0 0 0 -3.52 0.42 4.29 4.29 0 0 0 -1.45 2.35 0.3 0.3 0 0 0 0.58 0.16 3.76 3.76 0 0 1 1.22 -2 4.1 4.1 0 0 1 3 -0.28c0.71 0.22 1.27 1.49 1.41 2.22 0.05 0.3 0.35 0.34 0.62 0.38 1.77 0.27 4.23 0.22 5 0.66 0.14 1 -0.15 4.4 -1.05 17.79a6 6 0 0 1 -0.64 0.23c-2.54 0.52 -13.24 1.4 -15.14 0 -0.34 -0.25 -0.49 -3.37 -0.5 -3.88A102.56 102.56 0 0 1 3.9 4.12a30.1 30.1 0 0 1 3.94 -0.5A0.34 0.34 0 0 0 8 3a26.09 26.09 0 0 0 -4.52 0.53 0.43 0.43 0 0 0 -0.24 0.26c0 0.08 -0.53 3.08 -0.5 2.88 -0.18 3.39 -0.48 9.73 -0.28 13.12 0 0.87 0.14 2.71 0.8 3.21 2.28 1.74 13.27 1 16.35 0.22 0.56 -0.13 1.18 -0.33 1.19 -0.87 -0.03 -0.14 1.1 -16.42 0.78 -18.35Z" fill="#020202" fill-rule="evenodd" stroke-width="1"></path>
    <path d="M15.16 5.88c-2.08 -0.2 -7.3 -0.25 -8.87 0.27 -0.62 0.21 -0.67 0.64 -0.8 1.78A67.31 67.31 0 0 0 5.56 19c0.05 0.4 0.14 0.66 0.52 0.79C7 20.11 14 20 15 20c0.27 0 0.13 0 3.15 -2.39a0.52 0.52 0 0 0 0.19 -0.36c0.41 -8.93 0.5 -10.39 0.21 -10.71A3.25 3.25 0 0 0 16.66 6a0.31 0.31 0 0 0 0 0.61A3.43 3.43 0 0 1 18 6.9c0.08 0.64 0 1.88 -0.66 10l-2.56 1.95c-1.38 0 -6.68 0.05 -8 -0.12C6 9.26 6.58 7 6.57 7.06s0.32 -0.15 0.56 -0.19a26.94 26.94 0 0 1 3.52 -0.34c4.32 -0.19 4.78 0.31 4.83 -0.29a0.34 0.34 0 0 0 -0.32 -0.36Z" fill="#4C57E6" fill-rule="evenodd" stroke-width="1"></path>
    <path d="M15.88 10.41c-1.82 -0.1 -2.27 2.12 -3.58 -0.47 -0.23 -0.45 -0.79 -0.51 -1.34 0.25 -0.38 0.54 -0.94 2.33 -1.83 0.83 -0.25 -0.42 0.2 -0.87 -0.27 -1 -1.67 -0.44 0.36 4.21 2.36 1.84 0.55 -0.66 0.14 -0.6 0.59 -0.16a1.87 1.87 0 0 0 2 0.35c0.72 -0.27 1.32 -1 2.07 -1a0.34 0.34 0 0 0 0 -0.64Z" fill="#020202" fill-rule="evenodd" stroke-width="1"></path>
    <path d="M11 16.34a1.34 1.34 0 0 0 1.31 0.77c1.08 -0.16 1.77 -1.05 2.59 -1.54a0.34 0.34 0 0 0 -0.31 -0.61C13.81 15.28 13 16 12.22 16c-0.14 0 -0.16 -0.14 -0.22 -0.24a2.87 2.87 0 0 0 -0.46 -0.61 1.09 1.09 0 0 0 -1.29 -0.15c-0.86 0.53 -0.59 1.55 -1.14 0.07 -0.15 -0.54 -0.64 -0.09 -0.6 0.2 0.13 0.85 0.49 1.72 1.3 1.47s0.53 -1.4 1.19 -0.4Z" fill="#020202" fill-rule="evenodd" stroke-width="1"></path>
  </g>
</svg>