<svg xmlns="http://www.w3.org/2000/svg" viewBox="0 0 24 24" id="Task-List-Clipboard-Settings--Streamline-Freehand">
  <desc>
    Task List Clipboard Settings Streamline Icon: https://streamlinehq.com
  </desc>
  <g>
    <path d="M17 16a2.09 2.09 0 0 0 -1.85 2.27c0.24 1.87 2.76 2 3.83 1.15a1.64 1.64 0 0 0 0.53 -0.68 1.84 1.84 0 0 0 -0.53 -2A2.42 2.42 0 0 0 17 16Zm1.74 2.46a1 1 0 0 1 -0.35 0.49 1.4 1.4 0 0 1 -2.35 -0.76A1.17 1.17 0 0 1 17.2 17a1.43 1.43 0 0 1 1.13 0.37 1 1 0 0 1 0.43 1.04Z" fill="#020202" fill-rule="evenodd" stroke-width="1"></path>
    <path d="M23.34 16.22a1.56 1.56 0 0 0 -0.05 -0.55 4.5 4.5 0 0 0 -0.19 -0.56 2.42 2.42 0 0 0 -0.49 -0.81 0.69 0.69 0 0 0 -0.59 -0.2 6.41 6.41 0 0 0 -0.94 0.3 5.08 5.08 0 0 0 -0.7 0.35 0.23 0.23 0 0 0 -0.09 -0.11 1.78 1.78 0 0 0 -0.45 -0.37 0.92 0.92 0 0 0 -0.23 -0.09 0.87 0.87 0 0 0 -0.23 0l-0.12 0a3.32 3.32 0 0 0 -0.09 -0.89 1.2 1.2 0 0 0 -0.53 -0.69 1.34 1.34 0 0 0 -0.44 -0.13l-0.6 0a2.54 2.54 0 0 0 -0.82 0 1.06 1.06 0 0 0 -0.5 0.28 0.65 0.65 0 0 0 -0.16 0.27c0 0.15 0 0.36 -0.06 0.45l-0.17 1.08a1.91 1.91 0 0 0 -0.6 -0.16 0.82 0.82 0 0 0 -0.27 0 1.34 1.34 0 0 0 -0.26 0.09l-0.2 0.16c-0.26 -0.11 -0.51 -0.24 -0.79 -0.34a2.27 2.27 0 0 0 -0.51 -0.14 4.36 4.36 0 0 0 -0.47 0 0.6 0.6 0 0 0 -0.35 0.15 1.42 1.42 0 0 0 -0.31 0.36 7.11 7.11 0 0 0 -0.34 0.67 2.74 2.74 0 0 0 -0.3 0.72 0.74 0.74 0 0 0 0.14 0.56l1.3 1.08 -0.12 0.24a0.92 0.92 0 0 0 0 0.29 1.27 1.27 0 0 0 0 0.28 2.43 2.43 0 0 0 0.27 0.62l0 0.05 -0.45 0.38a3.06 3.06 0 0 0 -0.29 0.21 0.85 0.85 0 0 0 -0.17 0.29 1.18 1.18 0 0 0 0 0.53 2.18 2.18 0 0 0 0.18 0.58 5.21 5.21 0 0 0 0.24 0.47 1.66 1.66 0 0 0 0.26 0.36 0.65 0.65 0 0 0 0.35 0.21 2.29 2.29 0 0 0 0.43 0 5.16 5.16 0 0 0 0.77 -0.08A3.42 3.42 0 0 0 15 22l0.09 0.13a0.57 0.57 0 0 0 0.18 0.12 0.71 0.71 0 0 0 0.21 0 1.84 1.84 0 0 0 0.41 -0.05l0.11 0.8a3.58 3.58 0 0 0 0.07 0.47 0.62 0.62 0 0 0 0.19 0.27 1 1 0 0 0 0.38 0.23 2.68 2.68 0 0 0 0.65 0.11 2.73 2.73 0 0 0 1.12 -0.1 1.14 1.14 0 0 0 0.68 -0.68l0.17 -0.6 0.07 -0.42h0.09a0.36 0.36 0 0 0 0.2 -0.06 0.4 0.4 0 0 0 0.16 -0.13 2 2 0 0 0 0.19 -0.28l1.17 0.39a2.68 2.68 0 0 0 0.48 0.1 0.49 0.49 0 0 0 0.35 -0.17 3.22 3.22 0 0 0 0.32 -0.32 5.87 5.87 0 0 0 0.39 -0.52 2.67 2.67 0 0 0 0.34 -0.77 0.74 0.74 0 0 0 -0.1 -0.67 2.57 2.57 0 0 0 -0.54 -0.5l-0.29 -0.2a1.54 1.54 0 0 0 0.27 -0.69 1.22 1.22 0 0 0 0 -0.33 1.47 1.47 0 0 0 -0.08 -0.3 1 1 0 0 0 -0.15 -0.25 4.33 4.33 0 0 0 0.83 -0.65 1.47 1.47 0 0 0 0.38 -0.71Zm-1.11 0.28a5.35 5.35 0 0 1 -0.51 0.55 0.26 0.26 0 0 0 -0.15 0c-0.26 0.09 -0.34 2.17 -0.31 2.19 0.2 0.23 0.41 0.44 0.62 0.68 0.4 0.56 0.2 0.36 -0.07 0.75l-0.42 0.64 -1.25 -0.14 -0.08 0c-0.32 -0.3 -1.5 0.35 -1.45 0.76 0 0.05 0.05 0.08 0.08 0.12l-0.16 0.41 -0.21 0.42a0.29 0.29 0 0 1 -0.2 0.11 2.12 2.12 0 0 1 -0.71 0c-0.71 0 -0.33 0.3 -0.51 -0.22l-0.54 -1.16c0 -0.1 -1.22 -0.64 -1.51 -0.36l0 0.11a3.73 3.73 0 0 1 -0.47 0 4.38 4.38 0 0 1 -0.62 -0.08l-0.1 -0.06 -0.28 -0.55c-0.31 -0.65 -0.22 -0.35 -0.06 -0.57l0.48 -0.73s0.28 -2.07 -0.21 -2.22a0.26 0.26 0 0 0 -0.26 0.08c-0.13 -0.15 -0.26 -0.31 -0.38 -0.47 -0.69 -0.89 -0.4 -0.57 -0.19 -0.93l0.33 -0.68 0.14 0a2.23 2.23 0 0 1 0.36 0c0.2 0 0.4 0.08 0.6 0.13 0.25 0.57 2.21 -0.23 2.24 -0.34l0.52 -1.21c0.32 -0.61 -0.18 -0.31 0.59 -0.21l0.71 0c0.13 0.05 0.19 0.21 0.24 0.38a6.54 6.54 0 0 1 0.13 0.67 0.28 0.28 0 0 0 0.11 0.23c0.18 0.34 1.78 0.52 1.8 0.51a3.76 3.76 0 0 1 0.66 -0.17c1.11 -0.21 0.89 -0.08 1 0.32l0.27 0.62a0.6 0.6 0 0 1 -0.23 0.42Z" fill="#020202" fill-rule="evenodd" stroke-width="1"></path>
    <g>
      <path d="M5.35 1.24a0.76 0.76 0 0 0 -0.3 0 1.3 1.3 0 0 0 -1.14 0.33c-0.39 0.65 -0.44 1.09 -1.09 5.43 -0.2 1.35 -0.55 2.59 -0.79 3.78s-0.49 2.59 -0.76 3.77a26.6 26.6 0 0 0 -0.62 2.65 0.84 0.84 0 0 0 0.29 0.8 14.89 14.89 0 0 0 2.83 0.79c2.5 0.55 5.84 1.13 6.41 1.23a0.32 0.32 0 0 0 0.38 -0.25 0.32 0.32 0 0 0 -0.25 -0.38c-0.57 -0.12 -3.87 -0.85 -6.33 -1.5a20.83 20.83 0 0 1 -2.26 -0.67c0.11 -0.74 0.59 -2.31 0.61 -2.42 0.18 -0.82 0.36 -1.66 0.51 -2.55 0.5 -2.89 0.79 -5.54 1.58 -9.49 0 0 0.08 -0.5 0.08 -0.51a1.2 1.2 0 0 1 0.37 -0.17c0.22 -0.06 0.41 0 0.49 -0.07 0.24 -0.16 0.25 -0.7 -0.01 -0.77Z" fill="#020202" fill-rule="evenodd" stroke-width="1"></path>
      <path d="M18.5 9c0.08 -0.34 0.14 -0.67 0.19 -1s0.1 -0.67 0.14 -1c0.08 -0.72 0.12 -1.47 0.2 -2.38a0.34 0.34 0 0 0 -0.03 -0.19 0.32 0.32 0 0 0 0.1 -0.13 0.33 0.33 0 0 0 -0.25 -0.39 2.38 2.38 0 0 0 -0.9 -0.29c-0.29 0 -0.63 0.5 -0.41 0.74a0.59 0.59 0 0 0 0.37 0.22l0.48 0c-0.2 0.85 -0.4 1.57 -0.55 2.25 -0.08 0.34 -0.14 0.67 -0.2 1s-0.11 0.66 -0.15 1c-0.07 0.71 -0.1 1.47 -0.17 2.38a0.29 0.29 0 0 0 0.23 0.33 0.28 0.28 0 0 0 0.33 -0.23c0.05 -0.26 0.54 -2 0.62 -2.31Z" fill="#020202" fill-rule="evenodd" stroke-width="1"></path>
      <path d="M21.27 3.64a2.59 2.59 0 0 0 -0.48 -1 2.23 2.23 0 0 0 -2.18 -0.89l-0.37 -0.07c-1.13 -0.23 -1.95 -0.49 -3.07 -0.73 -0.4 -0.1 -0.84 -0.17 -1.35 -0.26S12.61 0.49 12 0.43C7.75 0 7.6 -0.46 6.49 0.54a1.64 1.64 0 0 0 -0.34 0.4C5.41 2.13 5.25 4.19 3.79 12c-0.12 0.6 -0.49 1.55 -0.61 2.39a2.84 2.84 0 0 0 0 1.25 1.18 1.18 0 0 0 0.87 0.67c1.13 0.32 3.76 0.43 5.85 0.84a0.32 0.32 0 0 0 0.39 -0.24 0.33 0.33 0 0 0 -0.24 -0.39c-1.47 -0.37 -3.22 -0.61 -4.5 -0.86 -0.7 -0.13 -1.63 -0.2 -1.46 -0.41 0 -0.05 0.06 0.07 0.07 0.11a2.47 2.47 0 0 1 0.08 -1.12c0.16 -0.72 0.43 -1.49 0.55 -2 0.19 -0.85 0.42 -1.7 0.55 -2.56 1 -6.75 0.54 -6 1.39 -7.68a4 4 0 0 1 0.48 -0.73 2 2 0 0 1 1 -0.68c0.87 0.25 1.73 0.46 2.61 0.64s1.82 0.33 2.78 0.51c1.41 0.18 2.32 0.37 3.34 0.52l0.42 0.06c-1.22 1 -1.19 1.55 -2.14 5 -0.08 0.31 -0.15 0.61 -0.21 0.92s-0.1 0.61 -0.14 0.92c-0.1 0.73 -0.15 1.46 -0.21 2.19a0.32 0.32 0 0 0 0.26 0.37 0.33 0.33 0 0 0 0.38 -0.26c0.18 -0.71 0.39 -1.4 0.57 -2.1 0.08 -0.3 0.15 -0.61 0.21 -0.91s0.13 -0.61 0.16 -0.92C16.56 5 17.35 3.39 17.9 3a1.35 1.35 0 0 1 2.05 0.3 1.58 1.58 0 0 1 0.29 0.78 4.9 4.9 0 0 1 0 1c0 0.6 -0.09 1.23 -0.17 1.84a17.91 17.91 0 0 1 -0.32 1.83L19.47 10a1.54 1.54 0 0 0 -0.07 0.24h-0.25a1.3 1.3 0 0 1 -0.4 -0.09c-0.3 0 -0.52 0.45 0 0.66a1.24 1.24 0 0 0 1.18 0 0.4 0.4 0 0 0 0.2 -0.22 3 3 0 0 0 0.11 -0.42L20.62 9a16.48 16.48 0 0 0 0.47 -1.9c0.12 -0.64 0.19 -1.3 0.25 -1.93a5.42 5.42 0 0 0 -0.07 -1.53Z" fill="#4C57E6" fill-rule="evenodd" stroke-width="1"></path>
      <path d="M15.29 5a0.32 0.32 0 0 0 -0.22 -0.4c-0.91 -0.31 -1.83 -0.61 -2.77 -0.84 -0.4 -0.1 -0.81 -0.18 -1.22 -0.25s-0.82 -0.12 -1.23 -0.15A27.92 27.92 0 0 0 7 3.34a0.29 0.29 0 1 0 0 0.57c1 0.15 2 0.39 3.11 0.57 0.64 0.12 1.28 0.21 1.91 0.3 1 0.15 1.93 0.28 2.88 0.48a0.32 0.32 0 0 0 0.39 -0.26Z" fill="#4C57E6" fill-rule="evenodd" stroke-width="1"></path>
      <path d="M13.35 8.27a0.33 0.33 0 0 0 -0.16 -0.43 3.54 3.54 0 0 0 -0.69 -0.27c-0.33 -0.11 -0.68 -0.18 -1 -0.26s-0.51 -0.11 -0.77 -0.15a7.65 7.65 0 0 0 -1.15 -0.06 8.67 8.67 0 0 0 -1.95 0.34 0.28 0.28 0 0 0 0.08 0.56l0.74 0c0.5 0 1 0.12 1.46 0.17s1 0 1.47 0.1l1 0a2.62 2.62 0 0 1 0.57 0.11 0.33 0.33 0 0 0 0.4 -0.11Z" fill="#4C57E6" fill-rule="evenodd" stroke-width="1"></path>
      <path d="M10.72 10.75a5.74 5.74 0 0 0 -0.82 -0.19 6 6 0 0 0 -0.84 -0.1 13.14 13.14 0 0 0 -2 0.1 0.29 0.29 0 0 0 0 0.57c0.73 0.1 1.41 0.28 2.11 0.41 0.43 0.08 0.84 0.14 1.26 0.2 0.64 0.1 1.27 0.17 1.91 0.31a0.33 0.33 0 0 0 0.41 -0.21 0.33 0.33 0 0 0 -0.21 -0.41 15.66 15.66 0 0 0 -1.82 -0.68Z" fill="#4C57E6" fill-rule="evenodd" stroke-width="1"></path>
    </g>
  </g>
</svg>