<svg xmlns="http://www.w3.org/2000/svg" viewBox="0 0 24 24" id="Taxi-Passenger-Pickup--Streamline-Freehand">
  <desc>
    Taxi Passenger Pickup Streamline Icon: https://streamlinehq.com
  </desc>
  <g>
    <path d="M7.71 17a3.43 3.43 0 0 0 -0.49 -1.18 3 3 0 0 0 -1.34 -1.07l-0.18 -0.07a1.78 1.78 0 0 0 0.23 -0.33A2.45 2.45 0 0 0 6 12.29a2.64 2.64 0 0 0 -1 -1.21 1.74 1.74 0 0 0 -0.6 -0.25 0.09 0.09 0 0 0 0 -0.05 0.28 0.28 0 0 0 -0.26 -0.31 2.45 2.45 0 0 0 -2.62 1.94 2.38 2.38 0 0 0 0.68 2.5 0.3 0.3 0 0 0 -0.1 0.09A8.78 8.78 0 0 0 1 16a3 3 0 0 0 -0.54 1 2.84 2.84 0 0 0 -0.1 0.66l0 1.36A2.45 2.45 0 0 0 1 20.58a1.1 1.1 0 0 0 0.93 0.27l0 0.28a6.31 6.31 0 0 0 0.34 2 1.12 1.12 0 0 0 0.88 0.75 1.22 1.22 0 0 0 1 -0.31 0.24 0.24 0 0 0 0.06 -0.08 1.26 1.26 0 0 0 1.14 0.51 1.43 1.43 0 0 0 1.13 -0.81 3.16 3.16 0 0 0 0.25 -1.41c0 -0.62 -0.2 -1.27 -0.27 -1.83s-0.08 -0.84 -0.14 -1.26a5.78 5.78 0 0 0 -0.12 -0.57 0.32 0.32 0 0 0 -0.38 -0.25 0.33 0.33 0 0 0 -0.25 0.38 4.4 4.4 0 0 1 0 0.51l0 1.26c0 0.42 0.09 1.17 0.07 1.77a2.26 2.26 0 0 1 -0.19 0.94 0.37 0.37 0 0 1 -0.29 0.21 0.28 0.28 0 0 1 -0.3 -0.08 1 1 0 0 1 -0.13 -0.3c-0.06 -0.23 -0.08 -0.48 -0.12 -0.7l-0.24 -1.63a0.29 0.29 0 1 0 -0.57 0v1.7a7.36 7.36 0 0 0 0 0.81 0.66 0.66 0 0 1 -0.23 0.24 0.49 0.49 0 0 1 -0.28 0.07c-0.08 0 -0.13 -0.09 -0.15 -0.19a6.19 6.19 0 0 1 -0.08 -0.86C3 21.63 3 21.27 3 20.9c-0.07 -0.91 -0.13 -1.84 -0.28 -2.7a0.29 0.29 0 0 0 -0.31 -0.26 0.28 0.28 0 0 0 -0.26 0.31c0 0.6 -0.08 1.22 -0.14 1.85a0.4 0.4 0 0 1 -0.4 -0.1 1.43 1.43 0 0 1 -0.12 -0.94v-1.83a2.09 2.09 0 0 1 0.24 -0.73 8.14 8.14 0 0 1 0.77 -1.12 0.27 0.27 0 0 0 0.06 -0.26 2.78 2.78 0 0 0 0.65 0.29 4.17 4.17 0 0 0 0.51 0.09h0.39a2.42 2.42 0 0 0 1.07 -0.35l0.35 0.22a2.6 2.6 0 0 1 0.81 1 5.25 5.25 0 0 1 0.32 0.92c0.08 0.33 0.17 0.68 0.24 1a2.8 2.8 0 0 1 0.2 1.13 0.27 0.27 0 0 1 -0.28 0.24 0.33 0.33 0 1 0 0 0.65 0.93 0.93 0 0 0 1.05 -0.68 4 4 0 0 0 0 -1.5A9.89 9.89 0 0 0 7.71 17ZM4 14.42l-0.56 -0.07a1.39 1.39 0 0 1 -1 -1.74 1.91 1.91 0 0 1 1.24 -1.52 0.38 0.38 0 0 0 0 0.15 0.32 0.32 0 0 0 0.39 0.23 0.88 0.88 0 0 1 0.7 0.32 1.81 1.81 0 0 1 0.47 0.77 1.61 1.61 0 0 1 -0.16 1.3 1.25 1.25 0 0 1 -1.08 0.56Z" fill="#020202" fill-rule="evenodd" stroke-width="1"></path>
    <path d="m23.61 6.58 -0.08 -0.35 -0.18 -0.53a0.31 0.31 0 0 0 0 -0.32 5.07 5.07 0 0 0 -0.35 -0.45c-0.19 -0.22 -0.39 -0.42 -0.6 -0.63a0.34 0.34 0 0 0 0 -0.24l-0.8 -1.38c-0.11 -0.18 -0.22 -0.39 -0.36 -0.58a1.56 1.56 0 0 0 -0.46 -0.38 1.4 1.4 0 0 0 -0.5 -0.16 4.07 4.07 0 0 0 -0.61 -0.05l-0.58 0A3.47 3.47 0 0 0 19 1a1.82 1.82 0 0 0 -0.23 -0.6 0.89 0.89 0 0 0 -0.42 -0.28A2.78 2.78 0 0 0 17.8 0a2.74 2.74 0 0 0 -0.5 0 1.67 1.67 0 0 0 -0.3 0.05 1.09 1.09 0 0 0 -0.64 0.57 2.49 2.49 0 0 0 -0.19 0.93H16a3.66 3.66 0 0 0 -0.62 0.14 1.42 1.42 0 0 0 -0.49 0.25 1.7 1.7 0 0 0 -0.41 0.57 4.69 4.69 0 0 0 -0.26 0.81c-0.06 0.21 -0.11 0.42 -0.15 0.64a2.42 2.42 0 0 0 0 0.47 0.44 0.44 0 0 0 0 0.15l-0.87 0.57a3.52 3.52 0 0 0 -0.88 0.89 1.72 1.72 0 0 0 -0.21 1 2.17 2.17 0 0 0 0.15 0.8 1 1 0 0 0 0.4 0.4 1.08 1.08 0 0 0 0.32 0.09 3.28 3.28 0 0 0 0.46 0L14.61 8a1.29 1.29 0 0 0 1.53 0.94 2 2 0 0 0 1 -0.5 1.58 1.58 0 0 0 0.44 -0.85 0.26 0.26 0 0 0 0.27 0.11c0.18 0 0.3 0.12 0.49 0.16a0.5 0.5 0 0 0 0.21 0 1.66 1.66 0 0 0 0.45 -0.15 1.47 1.47 0 0 0 1.83 1 1.9 1.9 0 0 0 0.94 -0.71 2.06 2.06 0 0 0 0.23 -0.42c0.23 0 0.46 0.09 0.68 0.11a1.1 1.1 0 0 0 0.45 -0.09 0.9 0.9 0 0 0 0.49 -0.71ZM17 1.32a0.36 0.36 0 0 1 0.27 -0.23l0.45 0c0.26 0 0.36 -0.25 0.57 0.25l0 0.08h-0.21l-1.18 0a1 1 0 0 1 0.1 -0.1ZM15.22 2.9a0.79 0.79 0 0 1 0.23 -0.25l0.68 -0.1 2 0h1.52l0.74 0a0.79 0.79 0 0 1 0.25 0.19c0.11 0.13 0.2 0.28 0.29 0.4l0.37 0.55 -0.13 0 -0.9 0H17.9l-2.18 0.27c-0.24 0 -0.48 0 -0.72 0.08L14.73 4l0.18 -0.47a3.8 3.8 0 0 1 0.31 -0.63Zm1.21 4.75a1 1 0 0 1 -0.49 0.21c-0.39 0.1 -0.55 -0.28 -0.53 -0.61a0.7 0.7 0 0 1 0.43 -0.68 0.29 0.29 0 0 0 0.27 0 0.44 0.44 0 0 1 0.42 0.2 0.59 0.59 0 0 1 0.13 0.48 0.65 0.65 0 0 1 -0.23 0.4ZM21 7.38a0.87 0.87 0 0 1 -0.4 0.29c-0.49 0.16 -0.76 -0.27 -0.77 -0.68a0.89 0.89 0 0 1 0.34 -0.79 0.33 0.33 0 0 0 0.32 0.14 0.64 0.64 0 0 1 0.51 0.19 0.73 0.73 0 0 1 0.23 0.48c-0.03 0.13 -0.17 0.25 -0.23 0.37Zm1.69 -1.1c-0.14 0.68 -0.05 0.54 -0.55 0.67l0 -0.13a1.58 1.58 0 0 0 -0.66 -0.91 1.36 1.36 0 0 0 -1 -0.22 0.29 0.29 0 0 0 -0.32 -0.09A1.45 1.45 0 0 0 19 6.85a1.68 1.68 0 0 0 -0.24 -0.06 0.6 0.6 0 0 0 -0.23 0 0.67 0.67 0 0 0 -0.24 0 2.18 2.18 0 0 0 -0.52 0.33s-0.08 0.05 -0.12 0.09a1.47 1.47 0 0 0 -0.5 -1A1.12 1.12 0 0 0 15.9 6l-0.06 0h-0.13a1.37 1.37 0 0 0 -1.15 1.31l-1.19 0.06c-0.16 0 -0.15 0.07 -0.15 -0.42a1 1 0 0 1 0.14 -0.54 4.63 4.63 0 0 1 0.46 -0.65c0.15 -0.18 0.29 -0.36 0.45 -0.53a2.27 2.27 0 0 1 0.32 -0.3 0.28 0.28 0 0 0 0.1 -0.33l0.36 0 0.7 0 2.17 0h2.34c0.22 0 0.49 0 0.75 -0.06a1 1 0 0 1 0.34 0l0.48 0.3c0.18 0.14 0.36 0.28 0.52 0.42s0.24 0.23 0.36 0.35 0 0 0 0.06Z" fill="#020202" fill-rule="evenodd" stroke-width="1"></path>
    <path d="M12.57 18.75c-0.23 0 -0.43 -0.09 -0.66 -0.12a1 1 0 0 0 -0.29 0 1 1 0 0 0 -0.29 0 3.36 3.36 0 0 0 -0.68 0.28 0.3 0.3 0 0 0 -0.26 0.31 0.3 0.3 0 0 0 0.32 0.26c0.24 0.05 0.43 0.15 0.67 0.18a1.46 1.46 0 0 0 0.29 0l0.3 -0.05a5.17 5.17 0 0 0 0.69 -0.26 0.33 0.33 0 0 0 0.28 -0.37 0.33 0.33 0 0 0 -0.37 -0.23Z" fill="#4C57E6" fill-rule="evenodd" stroke-width="1"></path>
    <path d="M17.41 18.65c-0.29 0 -0.56 -0.08 -0.85 -0.1a2.32 2.32 0 0 0 -0.37 0 2.2 2.2 0 0 0 -0.37 0.06A4.9 4.9 0 0 0 15 19a0.28 0.28 0 0 0 0.1 0.56c0.29 0 0.55 0.1 0.85 0.13h0.36c0.12 0 0.24 0 0.36 -0.06a8.39 8.39 0 0 0 0.85 -0.27 0.33 0.33 0 0 0 -0.08 -0.65Z" fill="#4C57E6" fill-rule="evenodd" stroke-width="1"></path>
    <path d="M20.71 15.76a0.32 0.32 0 0 0 -0.31 0.33 3.6 3.6 0 0 1 -0.34 1.11 4 4 0 0 1 -0.17 0.36c0 0.07 -0.07 0.15 -0.12 0.23a1.42 1.42 0 0 1 -0.53 0.53 0.29 0.29 0 0 0 0.16 0.55 2 2 0 0 0 1.23 -0.54 1.72 1.72 0 0 0 0.34 -0.49 2 2 0 0 0 0.15 -0.55 3.6 3.6 0 0 0 -0.07 -1.22 0.32 0.32 0 0 0 -0.34 -0.31Z" fill="#4C57E6" fill-rule="evenodd" stroke-width="1"></path>
    <path d="M21.63 10.33 21 9.66s-0.25 -0.19 -0.36 -0.25a0.59 0.59 0 0 0 -0.41 -0.05 0.76 0.76 0 0 0 -0.39 0.26c-0.11 0.14 -0.23 0.41 -0.28 0.47l-0.76 1.3a0.28 0.28 0 0 0 0 0.4 0.27 0.27 0 0 0 0.4 0l0.93 -0.82 0 0.08a7.08 7.08 0 0 0 -0.16 0.9 2.41 2.41 0 0 0 0 0.38 1.49 1.49 0 0 0 0.05 0.36c0.08 0.3 0.2 0.54 0.29 0.83a0.3 0.3 0 0 0 0.3 0.28 0.29 0.29 0 0 0 0.27 -0.3 5.07 5.07 0 0 0 0.18 -1 2.29 2.29 0 0 0 -0.06 -0.58c-0.06 -0.29 -0.17 -0.55 -0.23 -0.84s-0.1 -0.34 0.34 -0.07l0.61 0.44a0.32 0.32 0 0 0 0.5 -0.41Z" fill="#4C57E6" fill-rule="evenodd" stroke-width="1"></path>
  </g>
</svg>