<svg xmlns="http://www.w3.org/2000/svg" viewBox="0 0 24 24" id="Taxi-Destination--Streamline-Freehand">
  <desc>
    Taxi Destination Streamline Icon: https://streamlinehq.com
  </desc>
  <g>
    <path d="M24 7.91a2.23 2.23 0 0 0 -0.63 -1.43 1.91 1.91 0 0 0 -0.57 -0.36c-0.06 -0.18 -0.11 -0.36 -0.18 -0.53a5 5 0 0 0 -0.43 -0.83c-0.19 -0.32 -0.27 -0.63 -0.44 -0.9a1.78 1.78 0 0 0 -0.65 -0.58A3.06 3.06 0 0 0 19.91 3a12 12 0 0 0 -1.6 0c-0.41 0 -1 0 -1.5 0.06 0 -0.1 0.07 -0.2 0.11 -0.3a0.67 0.67 0 0 1 0.23 -0.31l0.8 0a2.79 2.79 0 0 1 1.11 0 1.17 1.17 0 0 1 0.57 0.35 0.32 0.32 0 0 0 0.51 -0.37 1.91 1.91 0 0 0 -0.76 -0.74 3.39 3.39 0 0 0 -1.47 -0.27 4.2 4.2 0 0 0 -0.77 0.08 1.15 1.15 0 0 0 -0.62 0.37 1.2 1.2 0 0 0 -0.25 0.49 3.77 3.77 0 0 0 -0.08 0.86 2.49 2.49 0 0 0 -1.19 0.44 1.43 1.43 0 0 0 -0.35 0.45 6 6 0 0 0 -0.26 0.62l-0.32 0.89c0 0.2 -0.09 0.39 -0.12 0.59s0 0.31 0 0.47a2 2 0 0 0 -0.63 0.54 2.19 2.19 0 0 0 -0.43 1.29 16 16 0 0 0 0.21 1.78 0.28 0.28 0 0 0 0.22 0.23 0.33 0.33 0 0 0 0.21 0.09h0.21l-0.08 1.06a1.9 1.9 0 0 0 0 0.33 0.55 0.55 0 0 0 0.11 0.23 0.79 0.79 0 0 0 0.48 0.3 2.79 2.79 0 0 0 0.69 0 3 3 0 0 0 1.18 -0.19 0.85 0.85 0 0 0 0.43 -0.68v-0.36l-0.1 -0.52 0.54 0 0.86 0 1.46 0 0.94 0 -0.08 0.89a2.81 2.81 0 0 0 0 0.43 0.5 0.5 0 0 0 0.16 0.24 0.61 0.61 0 0 0 0.26 0.15 1.55 1.55 0 0 0 0.36 0.08 3.21 3.21 0 0 0 0.62 0 5.67 5.67 0 0 0 0.57 -0.1 1.68 1.68 0 0 0 0.36 -0.08 0.66 0.66 0 0 0 0.23 -0.17 0.84 0.84 0 0 0 0.17 -0.37 2.53 2.53 0 0 0 0 -0.38 4.18 4.18 0 0 0 0 -0.5 3.07 3.07 0 0 0 -0.07 -0.42l0.29 0a0.31 0.31 0 0 0 0.32 -0.31s0 0 0 -0.07a0.31 0.31 0 0 0 0.36 -0.17 7.07 7.07 0 0 0 0.2 -2.09Zm-9.4 -1.59a4 4 0 0 1 0.15 -0.49l0.39 -0.78a3.3 3.3 0 0 1 0.28 -0.51 0.7 0.7 0 0 1 0.18 -0.2 1.7 1.7 0 0 1 0.68 -0.21 20.14 20.14 0 0 1 2.1 -0.13 13.3 13.3 0 0 1 1.47 0 2.11 2.11 0 0 1 0.82 0.14 0.79 0.79 0 0 1 0.35 0.25c0.19 0.25 0.29 0.54 0.51 0.83a5.11 5.11 0 0 1 0.43 0.68 10.24 10.24 0 0 0 -1.51 -0.16 23 23 0 0 0 -3.32 0 8.16 8.16 0 0 0 -2.24 0.55l-0.32 0.14a0.17 0.17 0 0 1 0.01 -0.11Zm1.2 5c-0.1 0.39 0 0.24 -0.26 0.24l-0.63 0c-0.07 0 -0.27 0.08 -0.38 0.08v-0.07a2.93 2.93 0 0 1 -0.13 -0.51c0 -0.12 0 -0.25 -0.06 -0.37 0.49 0 1 0 1.48 0.08Zm6.36 -0.37a4.33 4.33 0 0 1 -0.08 0.5l0 0.09H22l-1 0.1 -0.16 -0.79 1.32 -0.14a2.18 2.18 0 0 1 -0.02 0.23Zm1 -1h-2.38L19 9.83l-1.82 0c-1.18 0 -2.35 0.13 -3.52 0.25a8.22 8.22 0 0 1 -0.06 -1.48 1.46 1.46 0 0 1 0.36 -0.85 1.22 1.22 0 0 1 0.41 -0.29 6.16 6.16 0 0 1 0.88 -0.31 7.76 7.76 0 0 1 2 -0.38c1.06 -0.08 2.13 0 3.21 0a8.69 8.69 0 0 1 1.54 0.04 1.69 1.69 0 0 1 0.81 0.29 1.47 1.47 0 0 1 0.45 0.91 6.28 6.28 0 0 1 -0.06 1.86 0.5 0.5 0 0 0 0 0.13s-0.04 0 -0.08 0Z" fill="#020202" fill-rule="evenodd" stroke-width="1"></path>
    <path d="m15.36 8.05 -0.19 0a0.41 0.41 0 0 0 -0.19 0s-0.7 0.32 -0.65 0.6c0 0 -0.05 0.21 0.73 0.4a0.47 0.47 0 0 0 0.17 0s0.9 -0.23 0.88 -0.56c0 -0.11 -0.03 -0.25 -0.75 -0.44Z" fill="#020202" fill-rule="evenodd" stroke-width="1"></path>
    <path d="M21.48 7.85a0.74 0.74 0 0 0 -0.21 0 0.54 0.54 0 0 0 -0.21 0s-0.7 0.37 -0.64 0.64c0 0 0 0.22 0.78 0.35a0.5 0.5 0 0 0 0.17 0s0.89 -0.26 0.9 -0.53 -0.03 -0.31 -0.79 -0.46Z" fill="#020202" fill-rule="evenodd" stroke-width="1"></path>
    <path d="M6.63 8.59a3.65 3.65 0 0 0 -4 -0.9 3.49 3.49 0 0 0 -0.74 0.39 5.17 5.17 0 0 0 -0.62 0.52 4.78 4.78 0 0 0 -0.47 0.54 3.94 3.94 0 0 0 -0.36 0.63 7.77 7.77 0 0 0 -0.33 0.92 4.25 4.25 0 0 0 -0.15 1 6.57 6.57 0 0 0 0.21 1.71 9.4 9.4 0 0 0 0.6 1.6 11.39 11.39 0 0 0 1 1.75 11 11 0 0 0 1.31 1.54 0.29 0.29 0 0 0 0.39 0 0.27 0.27 0 0 0 0 -0.39 9.52 9.52 0 0 1 -1.16 -1.5 9.61 9.61 0 0 1 -0.86 -1.69A8.93 8.93 0 0 1 1 13.23a5.37 5.37 0 0 1 -0.1 -1.5 2.92 2.92 0 0 1 0.16 -0.73 4.31 4.31 0 0 1 0.32 -0.77 2.11 2.11 0 0 1 0.28 -0.45A3.42 3.42 0 0 1 2 9.34 3 3 0 0 1 2.51 9a2.81 2.81 0 0 1 0.54 -0.29 2.66 2.66 0 0 1 2.85 0.68A3.54 3.54 0 0 1 7 12.26a5.1 5.1 0 0 1 -0.32 1.22 15.25 15.25 0 0 1 -0.88 1.82 16.25 16.25 0 0 1 -1.3 2.17 8.2 8.2 0 0 1 -1.13 1.23 0.31 0.31 0 0 0 0.4 0.48A9 9 0 0 0 5 17.9a16.15 16.15 0 0 0 1.49 -2.21 17 17 0 0 0 1 -1.88A6.13 6.13 0 0 0 8 12.39a4.48 4.48 0 0 0 -1.37 -3.8Z" fill="#020202" fill-rule="evenodd" stroke-width="1"></path>
    <path d="M5.19 12.07a1.46 1.46 0 0 0 -0.58 -1.67 1.1 1.1 0 0 0 -0.37 -0.16 1.58 1.58 0 0 0 -0.38 0 0.28 0.28 0 0 0 -0.31 -0.13 1.64 1.64 0 0 0 -1.23 1.15 1.54 1.54 0 0 0 0.6 1.74 1.76 1.76 0 0 0 0.37 0.17 1.54 1.54 0 0 0 0.43 0.06 1.61 1.61 0 0 0 1.47 -1.16Zm-0.89 -0.32a0.64 0.64 0 0 1 -0.62 0.38l-0.2 -0.06a0.64 0.64 0 0 1 -0.36 -0.67 1.06 1.06 0 0 1 0.39 -0.69 0.31 0.31 0 0 0 0.2 0.11c0.1 0 0.2 0 0.3 0.06a0.6 0.6 0 0 1 0.15 0.09 0.68 0.68 0 0 1 0.14 0.78Z" fill="#020202" fill-rule="evenodd" stroke-width="1"></path>
    <path d="m4.56 20.88 1.26 -1a0.32 0.32 0 0 0 -0.33 -0.54c-0.53 0.25 -1 0.49 -1.57 0.77a3.14 3.14 0 0 0 -0.31 0.18L3.13 20c-0.41 -0.17 -0.83 -0.37 -1.26 -0.53a3.91 3.91 0 0 0 -0.94 -0.23 0.26 0.26 0 0 0 -0.33 0.2 0.27 0.27 0 0 0 0.2 0.33 3.61 3.61 0 0 1 0.56 0.27 14.38 14.38 0 0 1 1.28 0.96 16.22 16.22 0 0 0 -1.27 1.22 0.27 0.27 0 0 0 0 0.38 0.28 0.28 0 0 0 0.39 0.05c0.5 -0.29 1 -0.54 1.51 -0.82l0.44 -0.27 0.19 0.1c0.63 0.32 1.26 0.59 1.9 0.89a0.31 0.31 0 0 0 0.28 -0.55c-0.51 -0.41 -1 -0.78 -1.52 -1.12Z" fill="#020202" fill-rule="evenodd" stroke-width="1"></path>
    <path d="M9.68 20.2c-0.24 0 -0.45 -0.08 -0.69 -0.1h-0.27a1.11 1.11 0 0 0 -0.26 0.07c-0.22 0.07 -0.37 0.19 -0.59 0.27a0.28 0.28 0 0 0 0 0.55 2.86 2.86 0 0 0 0.7 0.17 1.38 1.38 0 0 0 0.29 0 1.2 1.2 0 0 0 0.27 -0.08c0.21 -0.07 0.39 -0.18 0.6 -0.26a0.31 0.31 0 0 0 0.28 -0.34 0.31 0.31 0 0 0 -0.33 -0.28Z" fill="#4C57E6" fill-rule="evenodd" stroke-width="1"></path>
    <path d="M14.51 20.18c-0.22 -0.05 -0.42 -0.13 -0.66 -0.18a1.42 1.42 0 0 0 -0.29 0 1 1 0 0 0 -0.3 0 2.63 2.63 0 0 0 -0.68 0.31 0.29 0.29 0 0 0 -0.21 0.33 0.27 0.27 0 0 0 0.33 0.21c0.22 0 0.4 0.12 0.62 0.15a1.22 1.22 0 0 0 0.27 0 1.26 1.26 0 0 0 0.27 0 5.39 5.39 0 0 0 0.66 -0.18 0.31 0.31 0 0 0 0.31 -0.32 0.32 0.32 0 0 0 -0.32 -0.32Z" fill="#4C57E6" fill-rule="evenodd" stroke-width="1"></path>
    <path d="M19.2 17.55a0.31 0.31 0 0 0 -0.3 0.32 2.31 2.31 0 0 1 -0.53 1.3 2.1 2.1 0 0 1 -0.24 0.27 2 2 0 0 1 -0.87 0.5 0.27 0.27 0 0 0 -0.25 0.3 0.27 0.27 0 0 0 0.29 0.25 2.31 2.31 0 0 0 1.4 -0.23 1.44 1.44 0 0 0 0.51 -0.44 1.81 1.81 0 0 0 0.29 -0.59 3 3 0 0 0 0 -1.38 0.31 0.31 0 0 0 -0.3 -0.3Z" fill="#4C57E6" fill-rule="evenodd" stroke-width="1"></path>
    <path d="M18.93 15.58a0.29 0.29 0 0 0 0.28 -0.28 6 6 0 0 0 0.22 -0.59 2.28 2.28 0 0 0 0 -0.26 2.17 2.17 0 0 0 0 -0.25c-0.05 -0.21 -0.12 -0.38 -0.19 -0.59a0.31 0.31 0 0 0 -0.32 -0.31 0.33 0.33 0 0 0 -0.31 0.32 5.9 5.9 0 0 0 -0.17 0.6 1 1 0 0 0 0 0.25 1.07 1.07 0 0 0 0 0.25 4.24 4.24 0 0 0 0.23 0.59 0.28 0.28 0 0 0 0.26 0.27Z" fill="#4C57E6" fill-rule="evenodd" stroke-width="1"></path>
  </g>
</svg>