<svg xmlns="http://www.w3.org/2000/svg" viewBox="0 0 24 24" id="Tea-Kettle-1--Streamline-Freehand">
  <desc>
    Tea Kettle 1 Streamline Icon: https://streamlinehq.com
  </desc>
  <g>
    <path d="M10.51 18.5a2.24 2.24 0 0 0 2.63 -1.44 11.24 11.24 0 0 0 0.1 -4 11.29 11.29 0 0 0 -0.24 -2.63c-0.53 -1.68 -1.47 -1.6 -2.47 -1.69a2.54 2.54 0 0 0 -0.94 0.15 1.77 1.77 0 0 0 -0.82 0.64 2.73 2.73 0 0 0 -0.4 1.05 8.2 8.2 0 0 0 -0.09 1.54l0 1.33a9.27 9.27 0 0 0 0.61 3.89 2.15 2.15 0 0 0 1.62 1.16Zm1.61 -1.84c-0.21 0.51 -0.66 0.8 -1.49 0.7 -0.54 -0.06 -0.81 -0.48 -1 -1a11.34 11.34 0 0 1 -0.42 -3l0 -0.42a0.29 0.29 0 0 0 0.27 -0.07 1.75 1.75 0 0 1 0.5 -0.23 1.18 1.18 0 0 1 0.46 0 1.21 1.21 0 0 1 0.47 0.14 4.45 4.45 0 0 0 0.79 0.23 1.84 1.84 0 0 0 0.66 0 10.27 10.27 0 0 1 -0.24 3.65Zm-3 -5.95a2.21 2.21 0 0 1 0.23 -0.78 1.05 1.05 0 0 1 0.46 -0.4 1.72 1.72 0 0 1 0.67 -0.15c1.49 0 1.54 0.51 1.73 1.26a6.45 6.45 0 0 1 0.13 1.71 1.63 1.63 0 0 1 -0.66 -0.35 4.28 4.28 0 0 0 -0.7 -0.37 1.54 1.54 0 0 0 -0.64 -0.07 2.39 2.39 0 0 0 -0.66 0.26 2.53 2.53 0 0 0 -0.53 0.5v-0.24a6.92 6.92 0 0 1 -0.02 -1.37Z" fill="#4C57E6" stroke-width="1"></path>
    <path d="M23.17 11.24a11.38 11.38 0 0 0 -0.56 -2.81A2.55 2.55 0 0 0 21.13 7a6.73 6.73 0 0 0 -2.7 -0.43 21.56 21.56 0 0 0 -2.27 0.35l-0.27 0.08 -0.23 -0.23a3.52 3.52 0 0 0 -0.92 -2.38A5.84 5.84 0 0 0 12.45 3a8.74 8.74 0 0 0 -2 -0.46 3 3 0 0 0 0.19 -0.54 1.22 1.22 0 0 0 0 -0.33 1.19 1.19 0 0 0 -0.05 -0.32 1.21 1.21 0 0 0 0 -0.18h0.68l1.92 -0.24a0.34 0.34 0 0 0 0.32 -0.36 0.33 0.33 0 0 0 -0.35 -0.32l-1.9 -0.19c-0.47 0 -1 -0.07 -1.51 -0.06 -0.81 0 -1.61 0.16 -2.26 0.21a0.3 0.3 0 0 0 -0.31 0.29 0.3 0.3 0 0 0 0.29 0.31c0.61 0.09 1.35 0.24 2.12 0.3a1.69 1.69 0 0 0 -0.05 0.24 1.72 1.72 0 0 0 0 0.32 1.55 1.55 0 0 0 0 0.31 5.07 5.07 0 0 0 0.17 0.51l-0.61 0a6.09 6.09 0 0 0 -3.16 1.28 5.2 5.2 0 0 0 -0.94 0.94 5.23 5.23 0 0 0 -0.6 1.16 4.22 4.22 0 0 0 -0.24 0.67l-2.9 -0.03a0.3 0.3 0 0 0 -0.26 0.28 0.28 0.28 0 0 0 0.1 0.24 0.35 0.35 0 0 0 -0.23 0.27 3 3 0 0 0 0.29 1.76 20.6 20.6 0 0 0 2.61 3 31.34 31.34 0 0 0 -0.83 3 12 12 0 0 0 -0.23 2.25l0 1.25a6.11 6.11 0 0 0 0.08 0.86c0.07 0.46 0.12 1 0.24 1.44a3.69 3.69 0 0 0 0.41 1A3.92 3.92 0 0 0 6 23.61a23.83 23.83 0 0 0 4.23 0.33 20 20 0 0 0 4.52 -0.15 4.06 4.06 0 0 0 2 -0.85 4.06 4.06 0 0 0 1 -1.48 10.06 10.06 0 0 0 0.43 -1.78 9.6 9.6 0 0 0 1.93 0 3.52 3.52 0 0 0 1.57 -0.52 2.87 2.87 0 0 0 1.06 -1.38 7.88 7.88 0 0 0 0.36 -2.36 30.7 30.7 0 0 0 0.07 -4.18ZM5 6.16a4.36 4.36 0 0 1 0.61 -0.94 4.16 4.16 0 0 1 0.85 -0.69 5.5 5.5 0 0 1 2.72 -0.88 7.47 7.47 0 0 1 2.94 0.35 5 5 0 0 1 2 1 2.68 2.68 0 0 1 0.79 1.42l-0.06 0c-0.38 -0.05 -0.86 0 -1.1 -0.06a9.73 9.73 0 0 0 -1.43 -0.1c-1.07 0 -2.16 0.12 -3.2 0.15l-4.3 0.18c0.1 -0.22 0.18 -0.39 0.18 -0.43Zm-1.28 9.12c0.18 -1 0.48 -2 0.8 -3.14a0.87 0.87 0 0 0 -0.22 -0.66 8.93 8.93 0 0 0 -1.1 -1.09 4.45 4.45 0 0 1 -1.28 -1.31 2.47 2.47 0 0 1 -0.43 -1.67 0.34 0.34 0 0 0 -0.1 -0.3 59.61 59.61 0 0 0 7.75 0.06c0.89 0 1.82 -0.08 2.74 -0.08a10.12 10.12 0 0 1 1.74 0.13c0.21 0 0.61 0 1 0.08a0.74 0.74 0 0 1 0.36 0.08 2.83 2.83 0 0 1 0.68 1 10.3 10.3 0 0 1 0.66 1.9 28.75 28.75 0 0 1 1.08 5.19 11.52 11.52 0 0 1 -0.21 3.43c-0.08 0.36 -0.14 0.72 -0.21 1.07l-2.31 0.17 -6.67 0.11 -4.18 0.06c-0.07 -0.33 -0.13 -0.66 -0.18 -1a6.39 6.39 0 0 1 -0.09 -0.75l0 -1.21a11.27 11.27 0 0 1 0.17 -2.07ZM16.66 21a3.11 3.11 0 0 1 -0.66 1.12 3.86 3.86 0 0 1 -2 0.64 22.53 22.53 0 0 1 -3.67 0.08 23 23 0 0 1 -4.06 -0.23 3 3 0 0 1 -2 -1.2 2.86 2.86 0 0 1 -0.27 -0.47l4 0.36c1.09 0 2.22 0.05 3.35 0s2.26 -0.16 3.35 -0.3l2 -0.33c0.04 0.13 0 0.25 -0.04 0.33ZM22 15.37a7.47 7.47 0 0 1 -0.19 2.08 2.14 2.14 0 0 1 -0.68 1 2.68 2.68 0 0 1 -1.17 0.44 9 9 0 0 1 -1.68 0.1 12.22 12.22 0 0 0 0.19 -3.64A28.53 28.53 0 0 0 17.28 10a13.11 13.11 0 0 0 -0.78 -2.05c-0.07 -0.14 -0.15 -0.27 -0.23 -0.4a18.29 18.29 0 0 1 2.15 -0.19 6 6 0 0 1 2.3 0.52 1.55 1.55 0 0 1 0.88 0.9 11.11 11.11 0 0 1 0.4 2.54 39.13 39.13 0 0 1 0 4.05Z" fill="#020202" stroke-width="1"></path>
  </g>
</svg>