<svg xmlns="http://www.w3.org/2000/svg" viewBox="0 0 24 24" id="Teacher-Female-Woman-Mathemetic--Streamline-Freehand">
  <desc>
    Teacher Female Woman Mathemetic Streamline Icon: https://streamlinehq.com
  </desc>
  <g>
    <path d="M10 8.83a0.74 0.74 0 0 1 -0.14 -0.28 2.24 2.24 0 0 1 -0.08 -0.39c-0.09 -0.69 0 -1.41 -0.07 -2.11a4.41 4.41 0 0 0 -0.2 -1 4.35 4.35 0 0 0 -1.79 -2.23 4.5 4.5 0 0 0 -2.78 -0.77c-0.26 0 -0.51 0.06 -0.76 0.11a5.36 5.36 0 0 0 -0.78 0.23 6 6 0 0 0 -0.58 0.26 3.07 3.07 0 0 0 -0.56 0.35A3.82 3.82 0 0 0 1 5.08 32.21 32.21 0 0 0 0.6 8.3c0 0.21 -0.08 0.42 -0.13 0.63a5 5 0 0 1 -0.2 0.62 6.11 6.11 0 0 0 -0.23 0.59 0.89 0.89 0 0 0 0 0.39 0.39 0.39 0 0 0 0.25 0.32 2.22 2.22 0 0 0 0.37 0l0.48 0a4.67 4.67 0 0 0 -0.5 1.26 10.71 10.71 0 0 0 -0.2 1.62 5.22 5.22 0 0 0 0.32 2.47 1.89 1.89 0 0 0 1.41 1l-0.25 1.5c-0.12 0.62 -0.36 1.32 -0.48 2a4.22 4.22 0 0 0 -0.08 1 0.59 0.59 0 0 0 0.21 0.4 1.57 1.57 0 0 0 0.36 0.22 2 2 0 0 0 0.61 0.16 4.56 4.56 0 0 0 0.83 0c1.06 -0.07 2.13 0 3.2 -0.07l0.82 -0.06 0.86 -0.05a2.59 2.59 0 0 0 0.28 0A0.56 0.56 0 0 0 9 22a2.31 2.31 0 0 0 0.11 -1 12.56 12.56 0 0 0 -0.31 -1.7c-0.12 -0.69 -0.29 -1.37 -0.47 -2.05A2.62 2.62 0 0 0 9.7 15.2a6 6 0 0 0 0.06 -1.8 11.15 11.15 0 0 0 -0.37 -1.72 3.34 3.34 0 0 0 -0.39 -0.74 3.52 3.52 0 0 0 0.8 -0.32 1.62 1.62 0 0 0 0.68 -0.83 0.61 0.61 0 0 0 0 -0.4c-0.03 -0.2 -0.31 -0.39 -0.48 -0.56Zm-1.86 7.73c-0.13 -0.47 -0.26 -0.94 -0.37 -1.42a14.74 14.74 0 0 1 -0.32 -1.76 0.33 0.33 0 1 0 -0.65 0.07 14.25 14.25 0 0 0 0.2 1.84c0.26 1.39 0.64 2.76 0.82 4.16 0 0.41 0.18 0.92 0.22 1.41a2.41 2.41 0 0 1 0 0.38l-0.78 0 -4 0.12a3.13 3.13 0 0 1 -0.53 0l-0.34 -0.06a4.15 4.15 0 0 1 0 -0.49c0.08 -0.68 0.28 -1.39 0.36 -2l0.52 -5.41a0.28 0.28 0 0 0 -0.25 -0.32 0.29 0.29 0 0 0 -0.33 0.25l-0.51 3.26a1.18 1.18 0 0 1 -0.75 -0.71 4.21 4.21 0 0 1 0 -2 12.06 12.06 0 0 1 0.29 -1.75 4.08 4.08 0 0 1 0.39 -1 2.17 2.17 0 0 1 1.33 -1A2.13 2.13 0 0 1 4 10h0.3A2.24 2.24 0 0 0 6 9.91a6.17 6.17 0 0 1 1.19 0.48 2.12 2.12 0 0 1 0.64 0.56 2.06 2.06 0 0 1 0.25 0.4 2.83 2.83 0 0 1 0.25 0.65 12 12 0 0 1 0.35 1.55 6.08 6.08 0 0 1 0.12 1.53 2 2 0 0 1 -0.66 1.48ZM5 5.52a4.2 4.2 0 0 0 0.31 0.41 5.15 5.15 0 0 0 0.89 0.6 3.51 3.51 0 0 0 0.9 0.35 3 3 0 0 1 -1 1.73 1.48 1.48 0 0 1 -2 0 2 2 0 0 1 -0.82 -1.11 3.79 3.79 0 0 1 -0.16 -1.07 5.2 5.2 0 0 0 0.68 -0.17A3.62 3.62 0 0 0 4.51 6ZM9.44 10a3.13 3.13 0 0 1 -0.86 0.36l-0.05 -0.07a3.09 3.09 0 0 0 -1 -0.64 7.08 7.08 0 0 0 -0.82 -0.24 3.55 3.55 0 0 0 1.08 -3.1 0.33 0.33 0 0 0 -0.37 -0.31c-0.3 0 -0.08 0.33 -0.75 -0.2A6.77 6.77 0 0 1 6 5.17c-0.13 -0.13 -0.36 -0.48 -0.56 -0.66A0.9 0.9 0 0 0 5 4.29a0.62 0.62 0 0 0 -0.59 0.22c-0.16 0.17 -0.5 0.61 -0.54 0.64 -1.06 1 -1.34 0.13 -1.4 0.73a4.8 4.8 0 0 0 0 2.23 2.83 2.83 0 0 0 0.78 1.26 3 3 0 0 0 -1.8 1l-0.75 -0.1 0.18 -0.4c0.1 -0.22 0.18 -0.45 0.26 -0.68s0.14 -0.46 0.19 -0.69c0.22 -1 0.27 -2.11 0.58 -3.09a2.86 2.86 0 0 1 1 -1.48 2.42 2.42 0 0 1 0.4 -0.25 3.05 3.05 0 0 1 0.46 -0.2 3.38 3.38 0 0 1 0.6 -0.17c0.21 0 0.43 -0.07 0.65 -0.09a3.49 3.49 0 0 1 2.09 0.57 3.49 3.49 0 0 1 1.5 1.58 3.4 3.4 0 0 1 0.18 0.78c0.1 0.71 0.06 1.44 0.19 2.14a3 3 0 0 0 0.18 0.65 1.47 1.47 0 0 0 0.28 0.42c0.08 0.09 0.2 0.31 0.3 0.33a0.84 0.84 0 0 1 -0.3 0.31Z" fill="#020202" fill-rule="evenodd" stroke-width="1"></path>
    <path d="M23.89 8.54A26.48 26.48 0 0 0 24 5.72a9.17 9.17 0 0 0 -0.28 -1.94 4.86 4.86 0 0 0 -0.41 -1.1 2.15 2.15 0 0 0 -0.61 -0.7 3.22 3.22 0 0 0 -1.78 -0.48 19.29 19.29 0 0 0 -2.38 0.24c-1.8 0.21 -3.6 0.33 -5.39 0.53 -0.78 0.09 -1.55 0.2 -2.32 0.35a0.28 0.28 0 0 0 -0.24 0.33 0.29 0.29 0 0 0 0.34 0.24c0.75 -0.11 1.52 -0.19 2.28 -0.25 1.8 -0.14 3.61 -0.17 5.41 -0.31a15.61 15.61 0 0 1 2.27 -0.14 2.09 2.09 0 0 1 1.19 0.34 1.08 1.08 0 0 1 0.35 0.49 4.54 4.54 0 0 1 0.23 0.74 7.56 7.56 0 0 1 0.23 1.7c0 0.9 -0.05 1.81 -0.11 2.7 0 0.59 -0.06 1.17 -0.07 1.75s0 1.17 0 1.75a7.23 7.23 0 0 1 0 1.86 0.68 0.68 0 0 1 -0.52 0.54l-0.94 0.14 -1.59 0 -2.89 0c-0.89 0.05 -1.84 0.19 -2.77 0.24a7.5 7.5 0 0 1 -1.78 -0.08 0.33 0.33 0 1 0 -0.12 0.65 7.56 7.56 0 0 0 1.44 0.15c1.09 0 2.22 -0.13 3.26 -0.15l2.85 0 1.68 0 1.08 -0.13a1.61 1.61 0 0 0 1.13 -0.82 5.8 5.8 0 0 0 0.25 -2.57l0 -1.71c0 -0.58 0.05 -0.98 0.1 -1.54Z" fill="#4C57E6" fill-rule="evenodd" stroke-width="1"></path>
    <path d="M12.6 9.49a0.3 0.3 0 0 0 -0.38 0.46c0.21 0.19 0.42 0.39 0.62 0.61l0.87 1 0.42 0.5a0.53 0.53 0 0 0 0.66 0.09 1 1 0 0 0 0.25 -0.4 8.14 8.14 0 0 0 0.24 -0.87L16.16 8c0.29 -1.17 -0.58 -0.87 1.17 -1.1l3.39 -0.47A0.33 0.33 0 0 0 21 6a0.32 0.32 0 0 0 -0.36 -0.29l-3.43 0.18a8.16 8.16 0 0 0 -1 0.06 1.19 1.19 0 0 0 -0.63 0.29 1 1 0 0 0 -0.27 0.43 8.49 8.49 0 0 0 -0.21 1l-0.77 2.94a1.9 1.9 0 0 0 0 0.37Z" fill="#020202" fill-rule="evenodd" stroke-width="1"></path>
  </g>
</svg>