<svg xmlns="http://www.w3.org/2000/svg" viewBox="0 0 24 24" id="Teacher-Female-Woman-No-Class-Cancle--Streamline-Freehand">
  <desc>
    Teacher Female Woman No Class Cancle Streamline Icon: https://streamlinehq.com
  </desc>
  <g>
    <path d="M24 4.29a14.91 14.91 0 0 0 -0.17 -1.61 5.62 5.62 0 0 0 -0.18 -0.89 1.89 1.89 0 0 0 -0.41 -0.69 0.61 0.61 0 0 0 -0.42 -0.18c-0.19 0 -0.64 0.08 -0.72 0.08h-2.27l-4.64 0.09c-1 0 -2 0.14 -2.94 0.18l-1.23 0a0.31 0.31 0 0 0 -0.32 0.28 0.31 0.31 0 0 0 0.29 0.32l1.28 0c1 0 2 -0.07 2.93 -0.06l4.68 0.19 2.21 0.09 0.46 0a0.79 0.79 0 0 1 0.06 0.22 5.74 5.74 0 0 1 0.11 0.64 11.82 11.82 0 0 1 0.13 1.46l0 2.29v3l0 1.52 0 1.33c0 0.31 0.08 0.57 0 0.76s-0.12 0.07 -0.25 0.09l-0.43 0h-1l-1.59 0.11c-0.46 0.05 -0.93 0.09 -1.39 0.12l-1.41 0.07 -4.4 0.05a0.35 0.35 0 0 0 -0.33 0.36 0.34 0.34 0 0 0 0.35 0.32l4.39 0.08 1.44 0c0.44 0 1 0 1.44 -0.08l1.33 -0.15 1 0 0.6 0a1.28 1.28 0 0 0 0.94 -0.53 2.7 2.7 0 0 0 0.23 -1.27l0.07 -1.33 0.16 -1.54 0 -3 0 -2.32Z" fill="#4C57E6" fill-rule="evenodd" stroke-width="1"></path>
    <path d="M19.74 4.72a0.35 0.35 0 0 0 0 -0.49 0.34 0.34 0 0 0 -0.48 0l-1.83 2c-0.11 0.13 -0.23 0.25 -0.34 0.37 -0.2 -0.16 -0.41 -0.32 -0.6 -0.49l-1.86 -1.45a0.3 0.3 0 1 0 -0.4 0.44l1.51 1.8 0.58 0.55c-0.06 0.07 -0.12 0.13 -0.17 0.2A23 23 0 0 0 14.49 10a0.29 0.29 0 0 0 0.06 0.42 0.28 0.28 0 0 0 0.41 -0.06c0.65 -0.7 1.37 -1.31 2 -2 0.06 -0.07 0.12 -0.15 0.19 -0.22a24 24 0 0 1 2.14 1.75 0.35 0.35 0 0 0 0.48 0 0.34 0.34 0 0 0 0 -0.48 15.33 15.33 0 0 0 -1.6 -1.82l-0.33 -0.31c0.11 -0.13 0.22 -0.27 0.34 -0.4Z" fill="#020202" fill-rule="evenodd" stroke-width="1"></path>
    <path d="M10.88 8.71a1.14 1.14 0 0 1 -0.28 -0.38 1.82 1.82 0 0 1 -0.16 -0.5c-0.2 -0.9 -0.08 -1.85 -0.19 -2.75a5 5 0 0 0 -0.15 -0.77 4.17 4.17 0 0 0 -1.58 -2.14A4.27 4.27 0 0 0 6 1.34a4.36 4.36 0 0 0 -1 0.13 4.82 4.82 0 0 0 -0.9 0.32 7.58 7.58 0 0 0 -0.74 0.4 5 5 0 0 0 -0.69 0.52 4.26 4.26 0 0 0 -1.14 1.76c-0.46 1.35 -0.26 2.88 -0.69 4.32a2.44 2.44 0 0 1 -0.14 0.34 1.21 1.21 0 0 1 -0.2 0.3l-0.44 0.49a0.4 0.4 0 0 0 0 0.29 0.32 0.32 0 0 0 0.13 0.2s0.18 0.07 0.24 0.11l0.35 0.16a7.83 7.83 0 0 0 0.78 0.25A4.55 4.55 0 0 0 0.86 12a6.93 6.93 0 0 0 -0.46 1.78 4.74 4.74 0 0 0 0.19 2.53A2 2 0 0 0 2 17.4a0.43 0.43 0 0 0 0.16 0c-0.13 0.85 -0.24 1.7 -0.36 2.54l-0.15 1.6a3.84 3.84 0 0 0 0 0.49 0.6 0.6 0 0 0 0.16 0.3 1.86 1.86 0 0 0 0.73 0.46 5.27 5.27 0 0 0 1 0.23 8.7 8.7 0 0 0 1.61 0.05c0.77 0 1.54 -0.17 2.31 -0.28A10.64 10.64 0 0 0 9 22.63a0.78 0.78 0 0 0 0.48 -0.37A2.93 2.93 0 0 0 9.67 21a14.21 14.21 0 0 0 -0.21 -1.57l-0.37 -1.85a0.34 0.34 0 0 0 0.22 0 2.23 2.23 0 0 0 1.15 -1.11 4.94 4.94 0 0 0 0.32 -2.23 7.76 7.76 0 0 0 -0.24 -1.72 4.83 4.83 0 0 0 -0.75 -1.64 3.16 3.16 0 0 0 0.5 -0.22 4.32 4.32 0 0 0 0.78 -0.54 2.19 2.19 0 0 0 0.38 -0.41 0.71 0.71 0 0 0 0.1 -0.41 0.47 0.47 0 0 0 -0.23 -0.3c-0.11 -0.11 -0.4 -0.25 -0.44 -0.29Zm-1.19 7.44A1.51 1.51 0 0 1 9 17l-0.23 -1.13 -0.28 -2.47a0.34 0.34 0 0 0 -0.67 0.1L8 16l0.54 3.59c0 0.43 0.13 0.95 0.13 1.45 0 1.24 -0.3 0.49 -1.28 0.63 -0.74 0.1 -1.47 0.21 -2.21 0.25a9.65 9.65 0 0 1 -1.42 0 3.57 3.57 0 0 1 -0.66 -0.12 1.24 1.24 0 0 1 -0.32 -0.12 0.41 0.41 0 0 0 0 -0.12l0.06 -1.48c0.11 -1.32 0.17 -2.66 0.34 -4a19.08 19.08 0 0 1 0.49 -2.57 0.3 0.3 0 1 0 -0.57 -0.18A18.87 18.87 0 0 0 2.43 16c-0.05 0.27 -0.09 0.55 -0.13 0.82l-0.08 0a1.25 1.25 0 0 1 -0.85 -0.82 3.81 3.81 0 0 1 0.11 -2 7.57 7.57 0 0 1 0.44 -1.46 4.57 4.57 0 0 1 0.75 -1.25 4.13 4.13 0 0 1 2.26 -1.3 3.38 3.38 0 0 0 0.9 0.13A3.2 3.2 0 0 0 7 9.78a4.28 4.28 0 0 1 1.88 1.69 5.08 5.08 0 0 1 0.54 1.35 9.3 9.3 0 0 1 0.28 1.5 4.17 4.17 0 0 1 -0.01 1.83ZM3.76 5.48a5.1 5.1 0 0 0 0.68 -0.13A4.17 4.17 0 0 0 5.36 5a2 2 0 0 0 0.29 -0.32c0.18 0.23 0.37 0.6 0.45 0.67a2.47 2.47 0 0 0 0.82 0.39 5 5 0 0 0 1 0.11A5.48 5.48 0 0 1 7.83 7a2.75 2.75 0 0 1 -0.53 1.28 1.86 1.86 0 0 1 -1.5 0.64 1.83 1.83 0 0 1 -1.49 -0.6 2.32 2.32 0 0 1 -0.48 -1.15 8 8 0 0 1 -0.07 -1.69Zm6.79 4.08a3.78 3.78 0 0 1 -0.62 0.48 2.8 2.8 0 0 1 -0.65 0.27 4.69 4.69 0 0 0 -1.55 -1 2.49 2.49 0 0 0 0.4 -0.46 3.57 3.57 0 0 0 0.49 -1.38 6 6 0 0 0 -0.08 -2 0.35 0.35 0 0 0 -0.36 -0.29 4.66 4.66 0 0 1 -0.81 -0.23 1.39 1.39 0 0 1 -0.57 -0.39 3.26 3.26 0 0 1 -0.17 -0.29 3.68 3.68 0 0 0 -0.49 -0.6 0.71 0.71 0 0 0 -0.46 -0.21 0.68 0.68 0 0 0 -0.45 0.16c-0.13 0.11 -0.37 0.45 -0.46 0.52a3.39 3.39 0 0 1 -0.63 0.48c-0.56 0.32 -1.33 -0.87 -1.19 2.67A3.36 3.36 0 0 0 3.45 9a2.67 2.67 0 0 0 0.47 0.48 4.43 4.43 0 0 0 -1.87 1c-0.12 0 -0.25 -0.05 -0.37 -0.09a5.74 5.74 0 0 1 -0.68 -0.34L0.94 10l0.11 -0.1a2.65 2.65 0 0 0 0.33 -0.42A4 4 0 0 0 1.6 9c0.51 -1.39 0.4 -2.9 0.91 -4.21a3.16 3.16 0 0 1 0.92 -1.28A3.54 3.54 0 0 1 4 3.16a6.21 6.21 0 0 1 0.62 -0.33 3.53 3.53 0 0 1 0.69 -0.24 3 3 0 0 1 0.69 -0.1 3.11 3.11 0 0 1 1.87 0.6 3.1 3.1 0 0 1 1.25 1.53 4 4 0 0 1 0.18 0.92A17.4 17.4 0 0 0 9.59 8a2.81 2.81 0 0 0 0.26 0.68 1.93 1.93 0 0 0 0.5 0.6 1.37 1.37 0 0 0 0.23 0.2s-0.02 0.07 -0.03 0.08Z" fill="#020202" fill-rule="evenodd" stroke-width="1"></path>
  </g>
</svg>