<svg xmlns="http://www.w3.org/2000/svg" viewBox="0 0 24 24" id="Temperature-Thermometer-Down--Streamline-Freehand">
  <desc>
    Temperature Thermometer Down Streamline Icon: https://streamlinehq.com
  </desc>
  <g>
    <path d="M12.84 15a3 3 0 0 0 -1.09 -0.75 0.31 0.31 0 0 0 -0.25 0c0 -1 0.06 -2 0.07 -3s0 -2 -0.05 -3l-0.13 -3.35a20.61 20.61 0 0 0 -0.19 -2.17 3.34 3.34 0 0 0 -0.62 -1.54A2.5 2.5 0 0 0 8.11 0.53a2.66 2.66 0 0 0 -2 1.61 5.86 5.86 0 0 0 -0.27 1.78 67.8 67.8 0 0 0 0.25 8.26c0 0.49 0 1 0.11 1.46 0 0.13 0 0.26 0.06 0.4a2.61 2.61 0 0 0 -1.37 1.06 6.74 6.74 0 0 0 -1 2.35A5.26 5.26 0 0 0 9 24a5 5 0 0 0 4.2 -2.59 5.43 5.43 0 0 0 0.57 -4.81 5.37 5.37 0 0 0 -0.93 -1.6Zm-0.39 6a4 4 0 0 1 -3.38 2 4.57 4.57 0 0 1 -3.47 -1.64 4.65 4.65 0 0 1 -1 -3.77 5.92 5.92 0 0 1 0.76 -2.15 2.07 2.07 0 0 1 1 -0.88s0 0 0 0.08a0.28 0.28 0 0 0 0.34 0.17 0.27 0.27 0 0 0 0.3 -0.35 3.88 3.88 0 0 1 -0.16 -0.88l0 -1.44A68.3 68.3 0 0 1 6.85 4a5 5 0 0 1 0.25 -1.54 1.62 1.62 0 0 1 1.23 -0.92 1.47 1.47 0 0 1 1.46 0.33A2.34 2.34 0 0 1 10.22 3a19.71 19.71 0 0 1 0.24 2l0.24 3.3c0.08 1 0.13 2 0.16 2.95s0 2 0 3a0.3 0.3 0 0 0 0.3 0.31 0.35 0.35 0 0 0 0.14 0 0.28 0.28 0 0 0 0.18 0.26 2.47 2.47 0 0 1 1 0.84 6 6 0 0 1 0.62 1.27 4.64 4.64 0 0 1 -0.65 3.99Z" fill="#020202" stroke-width="1"></path>
    <path d="M10.33 16.3a3.64 3.64 0 0 0 -1.19 -0.4s-0.07 0 -0.11 0L9.2 12l0 -3.19C9.16 7.23 9 5.65 9 4.06a0.27 0.27 0 0 0 -0.54 0c-0.08 1.6 -0.19 3.19 -0.21 4.79l0 3.18 0.16 4a1.73 1.73 0 0 0 -1 0.42 3.06 3.06 0 0 0 -1 1.73A2.27 2.27 0 0 0 7 20a2.73 2.73 0 0 0 1.67 0.89 2.34 2.34 0 0 0 2.36 -1.35 2.76 2.76 0 0 0 0 -2.62 1.9 1.9 0 0 0 -0.7 -0.62Zm-0.12 2.81a1.4 1.4 0 0 1 -1.38 0.78 1.83 1.83 0 0 1 -1.08 -0.54 1.44 1.44 0 0 1 -0.46 -1.07 2.09 2.09 0 0 1 0.44 -1.15 1.1 1.1 0 0 1 1 -0.54 0.27 0.27 0 0 0 0.27 -0.11l0.06 0a2.82 2.82 0 0 1 0.8 0.31 1.25 1.25 0 0 1 0.53 0.51 1.94 1.94 0 0 1 -0.18 1.81Z" fill="#020202" stroke-width="1"></path>
    <path d="M17.06 5.4c0 0.39 -0.1 0.78 -0.12 1.18l0 0.49a3.86 3.86 0 0 0 0.06 0.49c0.07 0.38 0.19 0.74 0.26 1.12a0.27 0.27 0 0 0 0.54 0 7.68 7.68 0 0 0 0.2 -1.35 4.15 4.15 0 0 0 -0.08 -0.79c-0.06 -0.39 -0.17 -0.76 -0.24 -1.16a0.31 0.31 0 0 0 -0.61 0Z" fill="#4C57E6" stroke-width="1"></path>
    <path d="M16.7 2.75A0.26 0.26 0 0 0 17 3a0.27 0.27 0 0 0 0.29 -0.25 6.84 6.84 0 0 0 0.23 -0.89l0 -0.38c0 -0.13 0 -0.25 -0.05 -0.37 -0.06 -0.29 -0.15 -0.56 -0.22 -0.85a0.31 0.31 0 0 0 -0.36 -0.26 0.3 0.3 0 0 0 -0.29 0.32c-0.05 0.29 -0.11 0.57 -0.14 0.87a2.26 2.26 0 0 0 0 0.37 2.19 2.19 0 0 0 0 0.36c0.08 0.29 0.18 0.54 0.24 0.83Z" fill="#4C57E6" stroke-width="1"></path>
    <path d="M15.54 14.92a6.4 6.4 0 0 0 0.42 0.49c0.34 0.35 0.69 0.66 1 1a5.63 5.63 0 0 0 0.6 0.59 1.19 1.19 0 0 0 0.56 0.22 0.65 0.65 0 0 0 0.5 -0.18 0.86 0.86 0 0 0 0.19 -0.28 1.43 1.43 0 0 1 0.08 -0.22c0.26 -0.41 0.53 -0.81 0.78 -1.23s0.34 -0.58 0.49 -0.88a0.27 0.27 0 0 0 -0.46 -0.28c-0.14 0.19 -0.29 0.36 -0.45 0.54 -0.31 0.35 -0.63 0.68 -1 1 0.06 -0.41 0.12 -0.82 0.15 -1.24l0 -0.74c0 -0.25 0 -0.49 -0.06 -0.73 -0.06 -0.57 -0.16 -1.12 -0.24 -1.69a0.3 0.3 0 0 0 -0.31 -0.3 0.32 0.32 0 0 0 -0.3 0.32c0 0.57 -0.1 1.13 -0.12 1.71l0 0.73 0 0.72c0.05 0.42 0.12 0.84 0.17 1.26l-0.05 -0.05c-0.38 -0.28 -0.79 -0.53 -1.18 -0.82 -0.15 -0.12 -0.3 -0.24 -0.44 -0.37a0.32 0.32 0 0 0 -0.44 0 0.3 0.3 0 0 0 0.11 0.43Z" fill="#020202" stroke-width="1"></path>
  </g>
</svg>