<svg xmlns="http://www.w3.org/2000/svg" viewBox="0 0 24 24" id="Temperature-Fahrenheit-Low--Streamline-Freehand">
  <desc>
    Temperature Fahrenheit Low Streamline Icon: https://streamlinehq.com
  </desc>
  <g>
    <path d="M22.61 3.66a0.33 0.33 0 0 0 -0.46 -0.16c-0.94 0.45 1.91 2.05 0.77 7.25C21.11 19 9 18.17 7.62 10.19a9.12 9.12 0 0 1 0.19 -4 8.48 8.48 0 0 1 1.85 -2.88 6.75 6.75 0 0 1 2.92 -1.86 11.89 11.89 0 0 1 5.54 -0.3c3 0.66 3 2.24 3.56 1.79a0.3 0.3 0 0 0 0 -0.43C19.67 0 15.49 -0.22 12.34 0.61A7.68 7.68 0 0 0 9 2.62c-5.92 5.81 -1.39 15.55 7 15.02a8.11 8.11 0 0 0 7.71 -6.71 9.81 9.81 0 0 0 -1.1 -7.27Z" fill="#4C57E6" fill-rule="evenodd" stroke-width="1"></path>
    <path d="M17.16 4.11c-1 1.92 3.22 3.15 3.49 1s-2.71 -2.53 -3.49 -1Zm2.55 0.79c-0.07 0.26 -0.36 0.3 -0.85 0.16a1.24 1.24 0 0 1 -0.71 -0.33 0.24 0.24 0 0 1 -0.08 -0.23c0.29 -0.88 1.93 -0.88 1.64 0.4Z" fill="#020202" fill-rule="evenodd" stroke-width="1"></path>
    <path d="M12.37 7.14a16.37 16.37 0 0 1 3.81 -0.28 0.34 0.34 0 1 0 0.09 -0.68c-0.87 -0.13 -3.8 -0.4 -4.57 0.05s-0.53 1.45 -0.52 2.14a40.12 40.12 0 0 0 0.39 5.13 0.3 0.3 0 0 0 0.6 -0.06c0 -1.28 0.05 -2.33 0.11 -3.28a6.25 6.25 0 0 0 3.38 0.07 0.35 0.35 0 0 0 0 -0.69 8.4 8.4 0 0 0 -3.34 -0.19c0.02 -0.41 0 -0.09 0.05 -2.21Z" fill="#020202" fill-rule="evenodd" stroke-width="1"></path>
    <path d="M7.4 22.77c-1.87 0.21 -3.33 -0.44 -7.1 0a0.3 0.3 0 1 0 0 0.6c1.53 0.13 4.13 0.94 7.22 0.1a0.35 0.35 0 0 0 -0.12 -0.7Z" fill="#020202" fill-rule="evenodd" stroke-width="1"></path>
    <path d="M3.42 22.18c1.62 0.72 3 -2 3.77 -3.09a0.34 0.34 0 0 0 -0.53 -0.43A13.7 13.7 0 0 1 4.34 21a37.72 37.72 0 0 0 0.26 -6.22 21.41 21.41 0 0 0 -0.21 -3.16 0.34 0.34 0 0 0 -0.68 0.1c0.19 2 -0.55 2.1 -0.06 9.29 -0.08 -0.07 -1.67 -1.57 -2.16 -2.2a0.31 0.31 0 0 0 -0.51 0.34c1.58 2.34 1.8 2.76 2.44 3.03Z" fill="#020202" fill-rule="evenodd" stroke-width="1"></path>
  </g>
</svg>