<svg xmlns="http://www.w3.org/2000/svg" fill="none" viewBox="0 0 24 24" id="Temperature-Control-Package-1--Streamline-Freehand">
  <desc>
    Temperature Control Package 1 Streamline Icon: https://streamlinehq.com
  </desc>
  <path fill="#020202" fill-rule="evenodd" d="M16.22 0.162a0.38 0.38 0 0 1 0.15 0.155c0.666 1.12 2.511 4.295 2.838 5.95l0.014 0.015a0.39 0.39 0 0 1 0.097 0.284c0.045 0.158 0.082 0.26 0.111 0.342 0.102 0.28 0.123 0.34 0.123 1.677 0 0.104 0.003 0.227 0.008 0.362 0.02 0.639 0.047 1.545 -0.35 1.96a0.39 0.39 0 0 1 -0.553 0.01c-0.67 -0.643 -0.674 -2.458 -0.387 -3.648 -1.393 -0.072 -2.98 -0.034 -4.825 0.01 -1.091 0.027 -2.274 0.056 -3.56 0.065 -1.089 0.005 -2.064 0.013 -2.936 0.02 -3.039 0.025 -4.818 0.04 -5.786 -0.09 0.007 0.25 0.011 0.56 0.016 0.95 0.005 0.362 0.011 0.791 0.021 1.301 0.03 0.968 0.043 1.807 0.055 2.536 0.04 2.543 0.059 3.727 0.66 4.287 0.524 0.488 1.49 0.5 3.298 0.525 1.273 0.018 2.964 0.04 5.211 0.239a0.39 0.39 0 1 1 0 0.78c-0.505 0.024 -1.077 0.068 -1.686 0.114 -3.325 0.253 -7.755 0.59 -8.389 -1.724 -0.348 -1.237 -0.555 -7.172 -0.04 -9.28 -0.172 -0.15 -0.18 -0.353 -0.085 -0.632A22.32 22.32 0 0 1 3.533 0.496C3.86 0.052 9.154 0.086 12.974 0.11c1.242 0.008 2.328 0.014 3.037 0.004a0.377 0.377 0 0 1 0.21 0.048Zm1.732 5.875A36.117 36.117 0 0 0 15.797 0.91v0.003l-0.034 0C15.865 0.9 15.76 0.9 15.684 0.903c-0.077 0.003 -0.128 0.009 0.079 0.01 -0.212 0.025 -1.308 0.101 -5.363 0.306 0.263 1.6 0.247 3.234 -0.048 4.829l2.185 -0.014 0.001 0c2.634 -0.017 4.817 -0.031 5.414 0.003Zm-8.528 0.016c-2.96 0.013 -5.949 0.011 -7.645 -0.06a22.581 22.581 0 0 1 2.619 -4.482c2.04 -0.097 3.723 -0.179 5.11 -0.248a12.345 12.345 0 0 0 -0.084 4.79Z" clip-rule="evenodd" stroke-width="1"></path>
  <path fill="#4C57E6" fill-rule="evenodd" d="M17.584 13.998c0.056 -0.592 0.125 -1.182 0.204 -1.772a0.395 0.395 0 1 1 0.792 0.019c0.046 0.662 0.083 1.324 0.11 1.987 0.263 -0.225 0.673 -0.53 1.319 -0.923a0.387 0.387 0 0 1 0.538 0.557c-0.833 1.246 -1.369 2.004 -1.8 2.348 0.006 0.298 0.008 0.596 0.01 0.894 0.483 0.042 0.958 0.091 1.412 0.147 2.399 -2.957 2.791 -1.584 2.453 -1.226 -0.403 0.724 -0.713 1.17 -0.936 1.453 1.405 0.254 2.36 0.582 2.312 0.944 -0.052 0.402 -0.466 0.387 -1.807 0.34l-0.176 -0.007 -0.114 -0.007c0.206 0.288 0.457 0.703 0.75 1.306a0.388 0.388 0 1 1 -0.617 0.474 4.497 4.497 0 0 0 -0.306 -0.23c-0.168 -0.12 -0.358 -0.255 -0.538 -0.42a13.726 13.726 0 0 1 -1.182 -1.293c-0.388 -0.034 -0.813 -0.073 -1.26 -0.114 -0.008 0.496 -0.021 0.991 -0.039 1.486l0.13 0.173c0.576 0.76 1.623 2.142 1.105 2.524 -0.269 0.211 -0.54 -0.013 -1.143 -0.57a4.87 4.87 0 0 1 -0.188 -0.17 74.316 74.316 0 0 1 -0.116 1.578 0.392 0.392 0 0 1 -0.656 0.303 0.391 0.391 0 0 1 -0.125 -0.272c-0.07 -0.573 -0.13 -1.146 -0.177 -1.72a8.799 8.799 0 0 1 -1.08 0.898 0.388 0.388 0 0 1 -0.557 0.05c-0.56 -0.452 0.936 -2.178 1.52 -2.842a43.884 43.884 0 0 1 -0.034 -1.564l-1.19 -0.115c-0.47 0.453 -0.916 0.93 -1.337 1.428a9.177 9.177 0 0 1 -0.713 0.6 0.383 0.383 0 0 1 -0.542 0.067c-0.447 -0.34 0.373 -1.535 0.958 -2.259a95.896 95.896 0 0 1 -1.867 -0.209 0.387 0.387 0 1 1 -0.01 -0.775 16.057 16.057 0 0 1 1.726 -0.127c-0.535 -0.756 -1.212 -1.865 -0.807 -2.174 0.551 -0.405 1.79 1.269 2.44 2.173 0.443 0.01 0.9 0.029 1.357 0.054 0.009 -0.358 0.023 -0.715 0.04 -1.073 -0.242 -0.267 -0.517 -0.637 -0.86 -1.098 -0.212 -0.284 -0.45 -0.603 -0.72 -0.954a0.39 0.39 0 0 1 0.502 -0.598c0.562 0.27 0.95 0.507 1.22 0.709Z" clip-rule="evenodd" stroke-width="1"></path>
</svg>