<svg xmlns="http://www.w3.org/2000/svg" viewBox="0 0 24 24" id="Tennis-Forehand--Streamline-Freehand">
  <desc>
    Tennis Forehand Streamline Icon: https://streamlinehq.com
  </desc>
  <title>tennis-forehand</title>
  <g>
    <path d="M22.94 4.84A2.85 2.85 0 0 0 21.64 3c-1.3 -0.75 -4.27 -0.46 -5.38 1.17a3.41 3.41 0 0 0 0.06 3.74 2.68 2.68 0 0 0 0.68 0.57 5.48 5.48 0 0 0 1.09 0.46 4.46 4.46 0 0 0 1.16 0.18A5.91 5.91 0 0 0 20.37 9a3.26 3.26 0 0 0 2.18 -1.58 3.51 3.51 0 0 0 0.39 -2.58Zm-1.29 2a2.18 2.18 0 0 1 -1.46 1 5.42 5.42 0 0 1 -0.91 0.06 3.43 3.43 0 0 1 -0.85 -0.13 4.16 4.16 0 0 1 -0.74 -0.28 1.64 1.64 0 0 1 -0.55 -0.38A2.32 2.32 0 0 1 17 4.6a3.74 3.74 0 0 1 4.25 -0.94 2 2 0 0 1 0.82 1.4 2.48 2.48 0 0 1 -0.42 1.82Z" fill="#4C57E6" stroke-width="1"></path>
    <path d="M12.39 8.67C10.8 8 9.11 7.48 8 7.11a3.24 3.24 0 0 0 2.45 -0.91 4 4 0 0 0 0.91 -3.79 2.74 2.74 0 0 0 -0.48 -0.78A5.16 5.16 0 0 0 10 0.81 4.08 4.08 0 0 0 8.89 0.27 5.14 5.14 0 0 0 7.77 0a3.16 3.16 0 0 0 -2.63 1.09 3.87 3.87 0 0 0 -1 2.52 3.27 3.27 0 0 0 0.66 2.26 3.29 3.29 0 0 0 1.62 1c-2.32 0.36 -2.58 1.26 -3.48 2.6A14.52 14.52 0 0 0 1.11 13a3.43 3.43 0 0 0 0.1 2.33A12.72 12.72 0 0 0 2.91 18a1 1 0 0 1 0 0.14C2.54 19.05 1.39 21 1 21.65a2 2 0 0 0 0.6 1.9 1.26 1.26 0 0 0 1.46 0.34 8.1 8.1 0 0 0 2.45 -2.21 8.29 8.29 0 0 0 1.58 -2.91A3.19 3.19 0 0 0 6.91 17a2.25 2.25 0 0 1 -0.08 -0.24 15.12 15.12 0 0 1 1.46 0.76c0.15 0.1 0.26 0.29 0.33 0.26 0.08 0.35 0.14 1.93 0.44 3.23a5.55 5.55 0 0 0 0.56 1.55 1.43 1.43 0 0 0 1.63 0.56A1.71 1.71 0 0 0 12.53 22a10.37 10.37 0 0 0 0.07 -3.15 10.36 10.36 0 0 0 -0.71 -3.08 3.82 3.82 0 0 0 -0.83 -1.14 6.83 6.83 0 0 0 -1.71 -1L8 12.88l0.53 -1.32c0.77 0.19 2.44 0.6 3.8 0.87a10.93 10.93 0 0 0 1.93 0.27 1.69 1.69 0 0 0 1.42 -0.62 1.37 1.37 0 0 0 -0.06 -1.71 13.42 13.42 0 0 0 -3.23 -1.7Zm-7 -3.29A2.44 2.44 0 0 1 5 3.65a3 3 0 0 1 0.9 -1.83 2.07 2.07 0 0 1 1.72 -0.67 4.75 4.75 0 0 1 0.89 0.2 3 3 0 0 1 0.78 0.39 4.42 4.42 0 0 1 0.64 0.52 2 2 0 0 1 0.43 0.58 2.89 2.89 0 0 1 -0.53 2.78c-1.28 1.46 -3.73 0.73 -4.45 -0.24Zm9.46 6.26a1 1 0 0 1 -0.64 0.17 14.59 14.59 0 0 1 -2.33 -0.42c-1.69 -0.38 -3.57 -0.9 -3.57 -0.9a0.5 0.5 0 0 0 -0.59 0.29l-0.89 2.15a0.52 0.52 0 0 0 0.24 0.64l1.82 1a8 8 0 0 1 1.26 0.7 2.61 2.61 0 0 1 0.77 1 9.39 9.39 0 0 1 0.57 2.7 9.15 9.15 0 0 1 -0.06 2.76c0 0.14 -0.25 0.2 -0.43 0.24s-0.31 0.08 -0.39 0a5.46 5.46 0 0 1 -0.52 -1.68c-0.26 -1.4 -0.37 -2.9 -0.45 -3.07A1.72 1.72 0 0 0 9 16.6a13.34 13.34 0 0 0 -2 -1 5.3 5.3 0 0 0 -1 -0.4 0.66 0.66 0 0 0 -0.6 0.16 0.61 0.61 0 0 0 -0.17 0.46 1.5 1.5 0 0 0 0.17 0.47 3.72 3.72 0 0 1 0.71 2.24 7.19 7.19 0 0 1 -1.33 2.52 7.13 7.13 0 0 1 -2.07 2c-0.19 0.09 -0.35 -0.11 -0.5 -0.29a2.32 2.32 0 0 1 -0.31 -0.67c0.3 -0.61 1.18 -2.17 1.62 -3.15a2.85 2.85 0 0 0 0.24 -0.94 0.61 0.61 0 0 0 -0.1 -0.35 12 12 0 0 1 -1.74 -2.57 2.77 2.77 0 0 1 -0.12 -1.87 14.21 14.21 0 0 1 1.67 -3.38c0.81 -1.24 1.33 -2 2.92 -2.27a1.55 1.55 0 0 1 0.79 0c1 0.38 3 1 4.9 1.81A12.59 12.59 0 0 1 15 11s0 0.07 0 0.11a0.53 0.53 0 0 1 -0.16 0.53Z" fill="#020202" stroke-width="1"></path>
  </g>
</svg>