<svg xmlns="http://www.w3.org/2000/svg" viewBox="0 0 24 24" id="Text-Formating-Eraser-2--Streamline-Freehand">
  <desc>
    Text Formating Eraser 2 Streamline Icon: https://streamlinehq.com
  </desc>
  <g>
    <path d="M9 20.05a6.12 6.12 0 0 0 2.32 -0.71 1.78 1.78 0 0 0 0.68 -0.54c0.12 -0.18 0.31 -0.49 0.72 -1.08a3.3 3.3 0 0 0 0.87 0.29 1.52 1.52 0 0 0 1.27 -0.52 14.23 14.23 0 0 0 1.34 -1.78l4.2 -5.88c0.24 -0.32 0.78 -0.94 1.11 -1.48a2 2 0 0 0 0.36 -1.07 2.68 2.68 0 0 0 -0.8 -1.4 24.19 24.19 0 0 0 -3.8 -3.23C15.17 1.21 12.87 0 11.5 0a1.69 1.69 0 0 0 -1 0.65 31.81 31.81 0 0 0 -1.92 2.62c-0.3 0.41 -0.59 0.79 -0.86 1.14C6.46 6 5.45 7 4.08 8.91a0.38 0.38 0 0 0 0.61 0.45c0.31 -0.41 0.6 -0.78 0.89 -1.12 1.27 -1.53 2.31 -2.53 3.75 -4.42 0.17 -0.23 0.66 -0.94 1.18 -1.61a13.81 13.81 0 0 1 1.08 -1.16 23.07 23.07 0 0 1 4 1.89A27.34 27.34 0 0 1 20 6.55c0.32 0.34 0.43 0.89 0.63 0.83a2 2 0 0 1 -0.3 0.5c-0.32 0.45 -0.73 0.93 -0.93 1.19L15.25 15c-0.23 0.31 -0.59 1 -1 1.49a1.89 1.89 0 0 1 -0.34 0.35c-0.06 0.05 -0.1 0.11 -0.16 0.1a2.55 2.55 0 0 1 -0.89 -0.31c-0.74 -0.41 -1.41 -1 -2.22 -1.48l-4.79 -2.74c-0.39 -0.21 -0.79 -0.42 -1.18 -0.65s-0.51 -0.31 -0.74 -0.48 -0.38 -0.38 -0.51 -0.5a0.48 0.48 0 0 0 -0.28 -0.13 0.33 0.33 0 0 0 -0.34 0.35 8.16 8.16 0 0 0 0.72 0.86c0.17 0.13 0.35 0.24 0.54 0.36 -0.53 0.78 -1.12 1.51 -1.67 2.27 -0.27 0.37 -0.53 0.75 -0.76 1.14s-0.64 0.8 -0.9 1.25a1.72 1.72 0 0 0 -0.25 0.95 3.14 3.14 0 0 0 1.28 1.83 3.57 3.57 0 0 0 2.1 0.87c1.01 -0.22 3.33 -0.2 5.14 -0.48Zm-5.35 -0.8c0 0.09 -0.19 -0.05 -0.31 -0.1a4.75 4.75 0 0 1 -1.1 -0.71c-0.3 -0.26 -0.59 -0.51 -0.63 -0.78a0.87 0.87 0 0 1 0.17 -0.45c0.23 -0.41 0.55 -0.83 0.69 -1.12s0.41 -0.76 0.63 -1.13c0.49 -0.8 1 -1.59 1.49 -2.4l0.85 0.51L10.17 16c0.68 0.39 1.26 0.92 1.86 1.34 -0.4 0.52 -0.59 0.8 -0.72 1a1.06 1.06 0 0 1 -0.41 0.3 5.59 5.59 0 0 1 -2 0.44c-1.85 0.12 -4.16 0.03 -5.21 0.17Z" fill="#020202" fill-rule="evenodd" stroke-width="1"></path>
    <path d="M13.45 13.65c0.63 -0.67 1.37 -1.41 2.05 -2.25 0.38 -0.47 0.72 -1 1.06 -1.47 0.54 -0.81 1 -1.61 1.47 -2.28a0.37 0.37 0 0 0 -0.03 -0.52 0.38 0.38 0 0 0 -0.53 0c-0.55 0.58 -1.17 1.24 -1.79 2 -0.25 0.28 -0.48 0.58 -0.71 0.88s-0.45 0.62 -0.65 0.93c-0.51 0.8 -0.94 1.59 -1.36 2.28a0.33 0.33 0 0 0 0.52 0.4Z" fill="#020202" fill-rule="evenodd" stroke-width="1"></path>
    <path d="M23.08 22.25a26.14 26.14 0 0 1 -3.3 0.23c-1.3 0 -2.6 0 -3.9 -0.07s-2.63 0 -3.94 0c-0.8 0 -1.6 0.09 -2.41 0.17 -1.2 0.11 -2.39 0.26 -3.58 0.43l-1.79 0.33a0.33 0.33 0 0 0 0 0.66L6 23.81l2.39 -0.1c1.19 0 2.38 -0.06 3.56 -0.05s2.23 0 3.34 0 2.26 0 3.38 -0.11a30 30 0 0 0 4.54 -0.55 0.38 0.38 0 0 0 0.31 -0.43 0.39 0.39 0 0 0 -0.44 -0.32Z" fill="#4C57E6" fill-rule="evenodd" stroke-width="1"></path>
  </g>
</svg>