<svg xmlns="http://www.w3.org/2000/svg" viewBox="0 0 24 24" id="Ticket-Pay-Cash--Streamline-Freehand">
  <desc>
    Ticket Pay Cash Streamline Icon: https://streamlinehq.com
  </desc>
  <g>
    <path d="M18.44 17.57c-0.38 -0.1 -0.76 -0.11 -0.78 -0.21a0.51 0.51 0 0 1 0.13 -0.5 1.63 1.63 0 0 1 0.92 -0.38c0.56 0.07 0.53 0.31 0.75 0.12a0.34 0.34 0 0 0 0.12 -0.3 0.43 0.43 0 0 0 -0.13 -0.22 1 1 0 0 0 -0.26 -0.15 3.66 3.66 0 0 0 -0.44 -0.13h-0.07a1.15 1.15 0 0 0 0 -0.19 0.49 0.49 0 0 0 -0.06 -0.17c-0.41 -0.73 -0.63 -0.63 -0.65 -0.62 -0.26 0 -0.43 0.79 -0.43 0.81a0.54 0.54 0 0 0 0 0.18 0.51 0.51 0 0 0 0.07 0.17 1.79 1.79 0 0 0 -0.63 0.4 1.45 1.45 0 0 0 -0.39 1.09 1.08 1.08 0 0 0 0.32 0.74 2.62 2.62 0 0 0 1.19 0.47 1.41 1.41 0 0 1 0.72 0.43 0.51 0.51 0 0 1 0.09 0.58l-0.22 0.32 -0.26 0.17a1.23 1.23 0 0 1 -0.29 0.09 1.34 1.34 0 0 1 -0.34 0 0.82 0.82 0 0 1 -0.3 -0.07c-0.11 0 -0.22 -0.16 -0.34 -0.21a0.63 0.63 0 0 0 -0.38 0 0.34 0.34 0 0 0 -0.27 0.4c0 0.18 0.09 0.17 0.64 0.5a1.56 1.56 0 0 0 0.54 0.21H18a1.05 1.05 0 0 0 -0.06 0.21 0.6 0.6 0 0 0 0 0.19 1.22 1.22 0 0 0 0.07 0.17c0.36 0.69 0.47 0.68 0.61 0.67s0.32 0 0.45 -0.85a0.61 0.61 0 0 0 0 -0.19 0.49 0.49 0 0 0 -0.06 -0.17 0.53 0.53 0 0 0 -0.13 -0.16 3.26 3.26 0 0 0 0.38 -0.18 1.88 1.88 0 0 0 0.34 -0.28 1.83 1.83 0 0 0 0.25 -0.35 1.48 1.48 0 0 0 0.15 -1.43 2.27 2.27 0 0 0 -1.56 -1.16Z" fill="#020202" fill-rule="evenodd" stroke-width="1"></path>
    <path d="M6.11 9.28a2.09 2.09 0 0 0 0.28 0.24l0.32 0.19c0.27 0.14 0.54 0.24 0.82 0.36A0.33 0.33 0 0 0 8 10a0.34 0.34 0 0 0 -0.07 -0.47c-0.2 -0.24 -0.37 -0.47 -0.58 -0.69a2.26 2.26 0 0 0 -0.29 -0.25 1.4 1.4 0 0 0 -0.47 -0.26c-0.62 -0.19 -1 0.25 -0.78 0.61a3.07 3.07 0 0 0 0.3 0.34Z" fill="#4C57E6" fill-rule="evenodd" stroke-width="1"></path>
    <path d="M23.54 8.54a4.64 4.64 0 0 0 -0.6 -1 4.79 4.79 0 0 0 -0.9 -1 2.52 2.52 0 0 0 -0.87 -0.39 10.32 10.32 0 0 0 -2 -0.08 1.26 1.26 0 0 1 -0.83 -0.38 1.19 1.19 0 0 1 -0.37 -1c0.05 -0.8 0.44 -1.63 0.41 -2.34a1.82 1.82 0 0 0 -0.65 -1 11.75 11.75 0 0 0 -1.61 -1.2 1.24 1.24 0 0 0 -0.76 -0.15 3.14 3.14 0 0 0 -1.15 0.53 18.92 18.92 0 0 0 -1.63 1.07c-0.52 0.38 -1 0.78 -1.52 1.19C8.8 4.71 6.61 6.37 4.58 8.26a31.08 31.08 0 0 0 -3.85 4.19 0.31 0.31 0 0 0 0.05 0.43 0.3 0.3 0 0 0 0.42 -0.05 31.26 31.26 0 0 1 3.92 -4c1.63 -1.4 5 -3.91 6.65 -5.21 0.48 -0.39 1 -0.77 1.48 -1.13s1 -0.69 1.53 -1a6.08 6.08 0 0 1 0.59 -0.35 0.26 0.26 0 0 1 0.23 0 7.33 7.33 0 0 1 1.68 1.28c0 0.8 -0.45 1.77 -0.32 2.64a2.09 2.09 0 0 0 0.7 1.3 2.33 2.33 0 0 0 1.07 0.64c0.71 0.15 1.42 -0.16 2.22 0a1.66 1.66 0 0 1 0.72 0.33 7.83 7.83 0 0 1 0.62 0.69 3.78 3.78 0 0 1 0.44 0.69 1.35 1.35 0 0 1 0.2 0.63 2 2 0 0 1 -0.49 1 12.06 12.06 0 0 1 -1.4 1.3 0.34 0.34 0 0 0 0 0.48 0.34 0.34 0 0 0 0.48 0A13.22 13.22 0 0 0 23 10.8a2.8 2.8 0 0 0 0.69 -1.33 2 2 0 0 0 -0.15 -0.93Z" fill="#020202" fill-rule="evenodd" stroke-width="1"></path>
    <path d="M11.51 20.57c-0.15 0.15 -0.46 0.48 -0.77 0.75a1.4 1.4 0 0 1 -0.47 0.32c-0.31 0.09 -0.74 -0.23 -1.2 -0.58a13.61 13.61 0 0 1 -1.7 -1.61 3.27 3.27 0 0 1 0.29 -0.45 4.12 4.12 0 0 0 0.66 -1.94 1.85 1.85 0 0 0 -0.78 -1.43A2.77 2.77 0 0 0 5.77 15a3.54 3.54 0 0 0 -1.72 0.56l-0.68 0.5A0.67 0.67 0 0 1 3 16a4.3 4.3 0 0 1 -0.52 -0.36 6.93 6.93 0 0 1 -1 -0.92A8.8 8.8 0 0 1 0.7 13.6a0.34 0.34 0 0 0 -0.47 -0.12 0.33 0.33 0 0 0 -0.12 0.46 12.78 12.78 0 0 0 0.77 1.26 8.23 8.23 0 0 0 1 1.09 5.08 5.08 0 0 0 0.75 0.57 1.5 1.5 0 0 0 0.77 0.2 1.15 1.15 0 0 0 0.51 -0.14c0.22 -0.12 0.42 -0.32 0.63 -0.42a2.44 2.44 0 0 1 1.21 -0.34 1.71 1.71 0 0 1 1.06 0.43 0.77 0.77 0 0 1 0.33 0.76 4.2 4.2 0 0 1 -0.49 1.19 3.39 3.39 0 0 0 -0.35 0.91 0.77 0.77 0 0 0 0.18 0.64A12.83 12.83 0 0 0 9 22a2 2 0 0 0 1.54 0.33 2.14 2.14 0 0 0 0.57 -0.39c0.34 -0.32 0.72 -0.78 0.89 -1a0.3 0.3 0 0 0 -0.45 -0.41Z" fill="#020202" fill-rule="evenodd" stroke-width="1"></path>
    <path d="M9.29 10.84a0.3 0.3 0 0 0 0.07 0.42c0.2 0.24 0.36 0.49 0.58 0.71a1.68 1.68 0 0 0 0.29 0.24 2 2 0 0 0 0.31 0.2c0.26 0.14 0.52 0.25 0.77 0.4a0.36 0.36 0 0 0 0.49 0 0.34 0.34 0 0 0 0 -0.48 6 6 0 0 0 -0.57 -0.76 1.93 1.93 0 0 0 -0.3 -0.27 1.85 1.85 0 0 0 -0.33 -0.21 9 9 0 0 0 -0.87 -0.31 0.31 0.31 0 0 0 -0.44 0.06Z" fill="#4C57E6" fill-rule="evenodd" stroke-width="1"></path>
    <path d="M17.94 8.86c-0.44 0.29 -0.91 0.5 -1.36 0.78a6.61 6.61 0 0 0 -0.89 0.6 7.51 7.51 0 0 0 -1.24 1.39 0.3 0.3 0 0 0 0 0.42 0.29 0.29 0 0 0 0.42 0c0.43 -0.32 0.89 -0.53 1.33 -0.8a8.87 8.87 0 0 0 0.86 -0.61 11.29 11.29 0 0 0 1.32 -1.27 0.34 0.34 0 0 0 -0.45 -0.51Z" fill="#4C57E6" fill-rule="evenodd" stroke-width="1"></path>
    <path d="M14.24 7.24a1.65 1.65 0 0 0 0.5 -1.49 0.34 0.34 0 1 0 -0.68 0 0.92 0.92 0 0 1 -0.43 0.73 2.23 2.23 0 0 1 -0.55 0.2c-0.32 0.11 -0.68 0.2 -1 0.29a2.29 2.29 0 0 0 -1.29 0.89A1.45 1.45 0 0 0 10.66 9a0.3 0.3 0 0 0 0.34 0.25 0.3 0.3 0 0 0 0.26 -0.34 0.72 0.72 0 0 1 0.19 -0.52 1.47 1.47 0 0 1 0.89 -0.28 6.71 6.71 0 0 0 0.95 -0.26 2.69 2.69 0 0 0 0.95 -0.61Z" fill="#4C57E6" fill-rule="evenodd" stroke-width="1"></path>
    <path d="M22.56 14.83a5.29 5.29 0 0 0 -6.64 -0.95 6.37 6.37 0 0 0 -2.79 3.67 5.92 5.92 0 0 0 -0.13 2.83 4.2 4.2 0 0 0 1.56 2.49 4.45 4.45 0 0 0 0.68 0.45 6 6 0 0 0 0.73 0.33 6.11 6.11 0 0 0 1.48 0.33 6.18 6.18 0 0 0 1.49 -0.06 7.5 7.5 0 0 0 1.82 -0.51A5.15 5.15 0 0 0 24 18.6a5.41 5.41 0 0 0 -1.44 -3.77Zm-0.91 6.76a4.66 4.66 0 0 1 -1.32 0.8 7.18 7.18 0 0 1 -1.56 0.41 5 5 0 0 1 -1.22 0 4.29 4.29 0 0 1 -1.18 -0.26 4.41 4.41 0 0 1 -0.59 -0.26 6 6 0 0 1 -0.53 -0.34 3.26 3.26 0 0 1 -1.18 -1.84 4.84 4.84 0 0 1 0 -2.33 5.46 5.46 0 0 1 2.26 -3.26c3 -2 5.58 0.76 5.62 0.81A4.56 4.56 0 0 1 23 18.56a4.4 4.4 0 0 1 -1.35 3.03Z" fill="#020202" fill-rule="evenodd" stroke-width="1"></path>
  </g>
</svg>