<svg xmlns="http://www.w3.org/2000/svg" viewBox="0 0 24 24" id="Ticket-Day-30--Streamline-Freehand">
  <desc>
    Ticket Day 30 Streamline Icon: https://streamlinehq.com
  </desc>
  <g>
    <path d="M6 12.58a0.94 0.94 0 0 0 -0.29 0.58 15.87 15.87 0 0 0 -0.14 2.16l0.07 2a0.3 0.3 0 0 0 0.32 0.29l1 -0.1a1.7 1.7 0 0 0 0.67 -0.17A4 4 0 0 0 9.2 16.2a2 2 0 0 0 0.38 -1.46A2.29 2.29 0 0 0 9 13.46a3.27 3.27 0 0 0 -1.72 -0.92 3 3 0 0 0 -0.74 -0.11 1 1 0 0 0 -0.54 0.15Zm1 1.07a2.48 2.48 0 0 1 1 0.45 1.25 1.25 0 0 1 0.48 0.79 1.16 1.16 0 0 1 -0.25 0.95 3.72 3.72 0 0 1 -1 0.8 1.13 1.13 0 0 1 -0.4 0.14 3.44 3.44 0 0 1 -0.56 0l0.12 -1.49a12.37 12.37 0 0 1 0.33 -1.8 1.65 1.65 0 0 0 0.28 0.16Z" fill="#020202" fill-rule="evenodd" stroke-width="1"></path>
    <path d="M10.69 14a4 4 0 0 0 -0.42 1.46 7.32 7.32 0 0 0 0.07 2.07 0.3 0.3 0 0 0 0.33 0.27 0.31 0.31 0 0 0 0.27 -0.33 6.58 6.58 0 0 1 0.1 -1.19 1.92 1.92 0 0 0 0.42 0.16 1.59 1.59 0 0 0 0.37 0.06 1.62 1.62 0 0 0 0.38 0 2.57 2.57 0 0 0 0.4 -0.07 8.11 8.11 0 0 1 -0.15 1.39 0.36 0.36 0 0 0 0.25 0.42 0.34 0.34 0 0 0 0.41 -0.25 9.1 9.1 0 0 0 0.42 -2 3.86 3.86 0 0 0 -0.17 -1.51 3 3 0 0 0 -0.52 -1 1.09 1.09 0 0 0 -0.65 -0.36 1.25 1.25 0 0 0 -0.85 0.19 2.43 2.43 0 0 0 -0.66 0.69Zm1.16 0.35c0.05 0 0.11 -0.11 0.18 -0.1 0.13 -0.18 0.28 0.44 0.36 0.61a2.44 2.44 0 0 1 0.19 0.63l-0.3 -0.08 -0.34 -0.05h-0.35l-0.33 0.05a2.59 2.59 0 0 1 0.39 -0.78 1.84 1.84 0 0 1 0.2 -0.29Z" fill="#020202" fill-rule="evenodd" stroke-width="1"></path>
    <path d="M17.61 15.16a2.12 2.12 0 0 0 0.13 -0.51 3.65 3.65 0 0 0 0 -0.47c0 -0.17 0 -0.36 -0.06 -0.54a1.72 1.72 0 0 0 -0.13 -0.42 0.34 0.34 0 0 0 -0.45 -0.19 0.34 0.34 0 0 0 -0.18 0.45l0 0.69a1.55 1.55 0 0 1 -0.07 0.31 0.72 0.72 0 0 1 -0.12 0.23 0.82 0.82 0 0 1 -0.64 0.4 0.65 0.65 0 0 1 -0.63 -0.23 0.48 0.48 0 0 1 -0.12 -0.22 4.56 4.56 0 0 1 0 -0.51l0 -0.54a0.31 0.31 0 0 0 0 -0.43 0.3 0.3 0 0 0 -0.42 0.05 0.75 0.75 0 0 0 -0.17 0.32 4.31 4.31 0 0 0 -0.1 0.55 3.57 3.57 0 0 0 -0.1 0.74 1.25 1.25 0 0 0 0.2 0.67 1.78 1.78 0 0 0 0.85 0.66 3.31 3.31 0 0 0 -0.2 0.78 3.19 3.19 0 0 0 0 0.69c0 0.34 0.13 0.66 0.15 1a0.34 0.34 0 0 0 0.3 0.38 0.33 0.33 0 0 0 0.38 -0.3 5.85 5.85 0 0 0 0.25 -1 3.13 3.13 0 0 0 0 -0.43 3 3 0 0 0 0 -0.42c0 -0.2 -0.07 -0.39 -0.11 -0.58a1.83 1.83 0 0 0 1.24 -1.13Z" fill="#020202" fill-rule="evenodd" stroke-width="1"></path>
    <path d="M21.55 9.32a2.48 2.48 0 0 0 1.76 -0.45 1.61 1.61 0 0 0 0.69 -1.2l0 -1 0 -1.52a1.84 1.84 0 0 0 -0.32 -1 1.73 1.73 0 0 0 -0.88 -0.67 5.55 5.55 0 0 0 -0.8 -0.13l-1.67 0c-1.6 0 -3.05 -0.06 -4.57 -0.12 -1 0 -1.94 -0.1 -3 -0.21l-10 -0.41a0.3 0.3 0 1 0 0 0.6l9.93 0.57c1.09 0.14 2.09 0.22 3.06 0.27 1.52 0.09 3 0.12 4.57 0.21l1.43 0a3.78 3.78 0 0 1 0.85 0.12c0.09 0 0.2 0.14 0.3 0.28a1 1 0 0 1 0.15 0.46L23 7.6a0.66 0.66 0 0 1 -0.4 0.53 1.5 1.5 0 0 1 -0.89 0.14 2.49 2.49 0 0 0 -2.25 0.82 3.78 3.78 0 0 0 -0.79 2.12 4.43 4.43 0 0 0 0.47 2.79 2.92 2.92 0 0 0 1.54 1.28l1.85 0.75a0.53 0.53 0 0 1 0.23 0.16 0.55 0.55 0 0 1 0 0.24c0 0.4 -0.06 0.74 -0.11 1.09s-0.08 0.44 -0.14 0.69a8.63 8.63 0 0 1 -0.35 1.4 1.61 1.61 0 0 1 -0.42 0.57l-0.32 0.05a23.2 23.2 0 0 1 -2.41 0c-2.44 -0.1 -5.67 -0.37 -7.24 -0.46s-4.58 -0.21 -6.92 -0.35a20.13 20.13 0 0 1 -2.83 -0.26 1.47 1.47 0 0 1 -0.94 -0.64 2.88 2.88 0 0 1 -0.21 -1.28c0 -0.17 0 -0.51 0.06 -0.88s0.07 -0.67 0.12 -0.93c0 -0.1 0.1 -0.21 0.07 -0.24a1.94 1.94 0 0 1 0.52 -0.25 4.54 4.54 0 0 0 1.77 -1.18 3.58 3.58 0 0 0 0.77 -1.92 2.8 2.8 0 0 0 -0.49 -2 6 6 0 0 0 -2.28 -1.78s0 -0.09 0 -0.16a3 3 0 0 1 0 -0.61c0 -0.67 0.18 -1.44 0.21 -1.69s0.12 -0.8 0.24 -1.34a2.21 2.21 0 0 1 0.14 -0.7 0.34 0.34 0 0 0 0 -0.48 0.34 0.34 0 0 0 -0.48 0 2.12 2.12 0 0 0 -0.34 0.81C1 4.48 0.89 5.29 0.86 5.5A14.4 14.4 0 0 0 0.6 7.56 1.39 1.39 0 0 0 1 8.68 6.45 6.45 0 0 1 2.83 9.9a2.18 2.18 0 0 1 0.59 1.81 2.7 2.7 0 0 1 -0.62 1.47 3.49 3.49 0 0 1 -1.46 0.93 2.44 2.44 0 0 0 -0.89 0.52 2.26 2.26 0 0 0 -0.28 0.89 13.38 13.38 0 0 0 -0.17 1.7 3.82 3.82 0 0 0 0.29 1.7A2.35 2.35 0 0 0 1.75 20a12.93 12.93 0 0 0 2.08 0.27c2.37 0.2 6.18 0.4 7.91 0.52s5.83 0.5 8.31 0.54a10.83 10.83 0 0 0 1.75 -0.06 1.34 1.34 0 0 0 0.69 -0.26 3 3 0 0 0 0.77 -1 10.7 10.7 0 0 0 0.41 -1.59c0.07 -0.29 0.12 -0.55 0.16 -0.8s0.08 -0.74 0.11 -1.17a1.51 1.51 0 0 0 -0.22 -1 1.59 1.59 0 0 0 -0.76 -0.59l-1.89 -0.76A1.91 1.91 0 0 1 20 13.08a3.74 3.74 0 0 1 -0.22 -1.76 2.74 2.74 0 0 1 0.52 -1.53 1.44 1.44 0 0 1 1.25 -0.47Z" fill="#4C57E6" fill-rule="evenodd" stroke-width="1"></path>
    <path d="M9.07 9.83a1.82 1.82 0 0 1 -1.3 -0.63 0.35 0.35 0 0 0 -0.44 -0.2 0.34 0.34 0 0 0 -0.2 0.44 2.72 2.72 0 0 0 2.32 1.28A1.89 1.89 0 0 0 11 9.58a1.8 1.8 0 0 0 -0.09 -1.79 2 2 0 0 0 -0.38 -0.44 1.26 1.26 0 0 0 -0.41 -2.11 2.53 2.53 0 0 0 -0.95 -0.31 2.1 2.1 0 0 0 -1 0.13 1.58 1.58 0 0 0 -0.38 0.21 2.69 2.69 0 0 0 -0.32 0.27 0.3 0.3 0 0 0 0 0.42 0.28 0.28 0 0 0 0.42 0l0.51 -0.26a1.3 1.3 0 0 1 0.65 0 1.6 1.6 0 0 1 0.6 0.29c0.26 0.18 0.33 0.36 0.21 0.52 -0.25 0.36 -0.83 0.34 -0.92 0.36a0.53 0.53 0 0 0 -0.45 0.5A0.58 0.58 0 0 0 9 8c0.72 0 0.79 0.08 1 0.56a0.67 0.67 0 0 1 0 0.57 0.94 0.94 0 0 1 -0.93 0.7ZM9.11 8" fill="#020202" fill-rule="evenodd" stroke-width="1"></path>
    <path d="M13.85 6.63a2.15 2.15 0 0 1 0.54 -0.42 0.77 0.77 0 0 1 0.61 -0.07 0.3 0.3 0 0 0 0.34 -0.14 0.3 0.3 0 0 0 -0.18 -0.39 1.35 1.35 0 0 0 -0.84 -0.06 2.59 2.59 0 0 0 -1 0.55 3.23 3.23 0 0 0 -1 1.44 4.16 4.16 0 0 0 -0.15 1.75 2.44 2.44 0 0 0 0.46 1 2.26 2.26 0 0 0 0.88 0.74 2.47 2.47 0 0 0 2.08 -0.15 2.94 2.94 0 0 0 1.28 -1.5 2.74 2.74 0 0 0 0 -1.77 1.9 1.9 0 0 0 -1.19 -1.35 0.34 0.34 0 0 0 -0.43 0.21 0.35 0.35 0 0 0 0.21 0.44 1.19 1.19 0 0 1 0.63 0.9A1.86 1.86 0 0 1 16 9a2 2 0 0 1 -0.92 0.92 1.39 1.39 0 0 1 -1.15 0 1.14 1.14 0 0 1 -0.39 -0.35 1.42 1.42 0 0 1 -0.27 -0.49 3.24 3.24 0 0 1 0 -1.31 2.44 2.44 0 0 1 0.58 -1.14Z" fill="#020202" fill-rule="evenodd" stroke-width="1"></path>
  </g>
</svg>