<svg xmlns="http://www.w3.org/2000/svg" viewBox="0 0 24 24" id="Ticket-Pass--Streamline-Freehand">
  <desc>
    Ticket Pass Streamline Icon: https://streamlinehq.com
  </desc>
  <g>
    <path d="M7.32 14c0 -0.93 0 -1.87 0.09 -2.85a21.64 21.64 0 0 0 0.29 -3 3.16 3.16 0 0 0 -0.36 -1.49 1.76 1.76 0 0 0 -0.92 -0.81 7.15 7.15 0 0 0 -2.18 -0.19l-0.9 0a4.21 4.21 0 0 0 -0.62 0.05 10.38 10.38 0 0 0 -1.89 0.16 1.16 1.16 0 0 0 -0.68 0.52A1.33 1.33 0 0 0 0 7c0 0.33 0.08 0.71 0.1 1l0.06 2.93L0.3 16l0 4.68a0.31 0.31 0 0 0 0.34 0.32 0.3 0.3 0 0 0 0.36 -0.33L1.09 16c0 -0.53 0 -1 0.06 -1.54l0 -3.57 0 -3c-0.09 -1.29 -0.29 -1 0.59 -1l1 0 1.33 0a10.8 10.8 0 0 1 1.63 0.05 0.73 0.73 0 0 1 0.54 0.35 2.61 2.61 0 0 1 0.25 1.36c0 0.89 -0.2 1.83 -0.21 2.55l0.11 9.55a0.35 0.35 0 1 0 0.69 0c0.23 -4.84 0.1 -0.99 0.24 -6.75Z" fill="#020202" fill-rule="evenodd" stroke-width="1"></path>
    <path d="M23.92 8.32A12.13 12.13 0 0 0 24 7.07a2.85 2.85 0 0 0 -0.19 -1 1.15 1.15 0 0 0 -0.59 -0.63 3 3 0 0 0 -1.35 -0.09l-1 0c-0.83 0 -1.66 -0.09 -2.49 -0.08a3.26 3.26 0 0 0 -1.23 0.2 1.25 1.25 0 0 0 -0.59 0.49 1 1 0 0 0 -0.14 0.46c0 0.27 0.06 0.67 0.06 0.85 0 0.54 0 -1.38 -0.06 2.66 0 0.87 0 1.73 -0.05 2.6l0 1.76c0.17 4.21 0.13 3.73 0.13 3.76l0 2.5a0.31 0.31 0 0 0 0.61 0c0.07 -0.79 0.1 -1.65 0.12 -2.53l0 -3.79 0.22 -4.23 0.14 -2.68c0 -1 0 -0.79 0.29 -0.82a3 3 0 0 1 0.5 0c0.82 0 1.64 0.06 2.46 0.08l1.11 0c0.18 0 0.39 0 0.59 -0.06s0.18 0 0.22 0.06a1.54 1.54 0 0 1 0.11 0.58 10.39 10.39 0 0 1 0 1.13l0 2.77c0 2.34 0.2 4.55 0.24 6.81 0 0.95 0 1.91 -0.05 2.9a0.34 0.34 0 0 0 0.32 0.36 0.35 0.35 0 0 0 0.37 -0.32c0.08 -1 0.12 -2 0.13 -2.94l0 -6.81Z" fill="#020202" fill-rule="evenodd" stroke-width="1"></path>
    <path d="M15.3 15a1.27 1.27 0 0 1 -0.46 -0.13 4.33 4.33 0 0 1 -1.67 -1.38 4.36 4.36 0 0 1 -0.69 -2 7.82 7.82 0 0 1 -0.07 -1.25 1.34 1.34 0 0 1 0.25 -0.9 0.85 0.85 0 0 1 0.34 -0.14c0.35 0 0.74 -0.06 1 -0.07L15.84 9c0.64 0 0.42 -0.69 -0.05 -0.72l-1.85 -0.1a7.63 7.63 0 0 0 -1.27 0 1.52 1.52 0 0 0 -0.73 0.29 1.66 1.66 0 0 0 -0.31 0.38 1.21 1.21 0 0 0 -0.1 -0.14 1 1 0 0 0 -0.59 -0.27 7 7 0 0 0 -0.82 0l-1.93 0a0.36 0.36 0 0 0 -0.08 0.71l2 0.19c0.51 0.06 0.81 -0.34 0.86 0.69a7.44 7.44 0 0 1 0 1 3.8 3.8 0 0 1 -0.6 1.97A5 5 0 0 1 9 14.46a3.27 3.27 0 0 1 -0.91 0.47 1.28 1.28 0 0 1 -0.33 0.06c-0.35 0.08 -0.43 0.73 0 0.76a1 1 0 0 0 0.3 0 3.87 3.87 0 0 0 1.46 -0.52 5.64 5.64 0 0 0 1.86 -1.64 5.16 5.16 0 0 0 0.37 -0.7 4.33 4.33 0 0 0 0.66 1.24 5.14 5.14 0 0 0 2.17 1.52 2.24 2.24 0 0 0 0.75 0.16l0.66 0c0.35 0 0.31 -0.64 0 -0.72a5.78 5.78 0 0 1 -0.69 -0.09Z" fill="#4C57E6" fill-rule="evenodd" stroke-width="1"></path>
    <path d="M18.29 3.81a4 4 0 0 0 1.26 0.28 3.51 3.51 0 0 0 0.72 -0.09c0.35 -0.06 0.67 -0.18 1 -0.24a0.35 0.35 0 0 0 0.36 -0.33 0.36 0.36 0 0 0 -0.34 -0.36 6.51 6.51 0 0 0 -1.09 -0.16 3.38 3.38 0 0 0 -0.45 0 3.18 3.18 0 0 0 -0.43 0.06c-0.34 0.06 -0.64 0.18 -1 0.23a0.31 0.31 0 0 0 -0.33 0.27 0.29 0.29 0 0 0 0.3 0.34Z" fill="#020202" fill-rule="evenodd" stroke-width="1"></path>
    <path d="M21.21 9.44c-0.29 -0.06 -0.57 -0.14 -0.87 -0.19l-0.38 0a1.61 1.61 0 0 0 -0.39 0 4.61 4.61 0 0 0 -0.9 0.33 0.32 0.32 0 0 0 -0.25 0.35 0.3 0.3 0 0 0 0.35 0.25c0.29 0 0.55 0.13 0.85 0.17a2.17 2.17 0 0 0 0.36 0l0.36 0c0.31 -0.06 0.59 -0.14 0.88 -0.21a0.35 0.35 0 1 0 0 -0.69Z" fill="#020202" fill-rule="evenodd" stroke-width="1"></path>
  </g>
</svg>