<svg xmlns="http://www.w3.org/2000/svg" viewBox="0 0 24 24" id="Tiger-Head--Streamline-Freehand">
  <desc>
    Tiger Head Streamline Icon: https://streamlinehq.com
  </desc>
  <g>
    <path d="M18 17.67a0.32 0.32 0 0 0 -0.42 0.17 3.06 3.06 0 0 1 -1.26 1.4 1.86 1.86 0 0 1 -1.69 0.1 2.87 2.87 0 0 1 -0.74 -0.43 2.23 2.23 0 0 1 -0.54 -0.6l-0.29 -0.51a2.18 2.18 0 0 0 -0.22 -0.31 0.6 0.6 0 0 0 -1.05 0.12 4.23 4.23 0 0 1 -0.52 0.78 2.7 2.7 0 0 1 -0.86 0.72 2.66 2.66 0 0 1 -2.18 0.06 3.83 3.83 0 0 1 -1.91 -1.42 0.28 0.28 0 1 0 -0.48 0.28 4.52 4.52 0 0 0 2 1.83c-0.41 1.62 0.64 3 2.14 3.65a5.41 5.41 0 0 0 2.24 0.49 4 4 0 0 0 2.26 -0.65 2.8 2.8 0 0 0 0.91 -1 4.17 4.17 0 0 0 0.42 -1.9l0 -0.12a3 3 0 0 0 0.91 -0.38 3.8 3.8 0 0 0 1.46 -1.82 0.34 0.34 0 0 0 -0.18 -0.46Zm-2.78 2.7a4 4 0 0 1 -0.35 1.31 2.16 2.16 0 0 1 -0.85 0.9 3.63 3.63 0 0 1 -2.13 0.33 5.22 5.22 0 0 1 -2.14 -0.67 2.3 2.3 0 0 1 -1.32 -2.17 3.36 3.36 0 0 0 2.44 -0.07 3.69 3.69 0 0 0 1 -0.72 3.8 3.8 0 0 0 0.47 -0.59l0.12 0.19a3.2 3.2 0 0 0 0.82 0.82 4.18 4.18 0 0 0 1 0.5 2.8 2.8 0 0 0 0.93 0.14Z" fill="#020202" fill-rule="evenodd" stroke-width="1"></path>
    <path d="M13.54 16.59a7.3 7.3 0 0 0 0.72 -0.52 3.6 3.6 0 0 0 0.41 -0.37 2.84 2.84 0 0 0 0.37 -0.47l0.28 -0.69a1.36 1.36 0 0 0 -0.76 -1.7 5.77 5.77 0 0 0 -2.28 -0.37l-0.83 0 -0.46 0.08a3.68 3.68 0 0 0 -0.47 0.15 3.32 3.32 0 0 0 -1.35 1 1 1 0 0 0 -0.14 1 2.46 2.46 0 0 0 0.54 0.76 10.69 10.69 0 0 0 0.93 0.78 7.38 7.38 0 0 0 0.74 0.5c0.76 0.5 0.87 0.75 2.3 -0.15Zm-2 -0.32a3.73 3.73 0 0 1 -0.61 -0.52 6.49 6.49 0 0 1 -0.78 -0.79 1.48 1.48 0 0 1 -0.3 -0.53s0 -0.06 0 -0.09a1 1 0 0 1 0.23 -0.22 3.54 3.54 0 0 1 0.76 -0.4l0.66 -0.14 0.71 0a4.77 4.77 0 0 1 1.85 0.2 0.5 0.5 0 0 1 0.32 0.6l-0.14 0.48a1.61 1.61 0 0 1 -0.24 0.34 3.28 3.28 0 0 1 -0.31 0.34 6.23 6.23 0 0 1 -0.62 0.51 6.11 6.11 0 0 1 -0.67 0.46c-0.22 0.12 -0.22 0.12 -0.82 -0.24Z" fill="#4C57E6" fill-rule="evenodd" stroke-width="1"></path>
    <path d="m20.34 5 -0.09 -0.15h0.07a2.36 2.36 0 0 0 0.56 -0.16A2.25 2.25 0 0 0 22 1.33 2.66 2.66 0 0 0 20.41 0.08a2.4 2.4 0 0 0 -1.94 0.32 2.35 2.35 0 0 0 -0.47 0.36 2.12 2.12 0 0 0 -0.39 0.46 2.23 2.23 0 0 0 -0.28 0.61 2.71 2.71 0 0 0 -0.09 0.41 5.19 5.19 0 0 0 -0.73 -0.24 4.81 4.81 0 0 0 -0.76 -0.12 6.86 6.86 0 0 0 -1.11 0 7 7 0 0 0 -1.31 0.18 8.88 8.88 0 0 1 -1.33 0.17 6 6 0 0 0 -4 0.14 8.7 8.7 0 0 0 -0.88 0.39 0.25 0.25 0 0 0 0 -0.12 5.28 5.28 0 0 0 -0.4 -0.83 3.48 3.48 0 0 0 -0.41 -0.52 2.84 2.84 0 0 0 -1 -0.61A2.18 2.18 0 0 0 4.08 0.59 3.09 3.09 0 0 0 2 2.65a2.16 2.16 0 0 0 1.1 2.66 4.71 4.71 0 0 0 0.52 0.21l0.38 0.07A10.93 10.93 0 0 0 2.82 8a24.12 24.12 0 0 0 -1 5.52c-0.06 0.92 -0.19 2 -0.16 3.07a6.1 6.1 0 0 0 0.36 2.13 4.91 4.91 0 0 0 1.23 1.79A7.81 7.81 0 0 0 5 21.73a0.33 0.33 0 0 0 0.43 -0.13 0.31 0.31 0 0 0 -0.13 -0.43A6.73 6.73 0 0 1 3.8 20a4.15 4.15 0 0 1 -1 -1.55 5.59 5.59 0 0 1 -0.23 -1.86c0 -0.56 0.07 -1.14 0.14 -1.69a1.9 1.9 0 0 0 0.28 0.29 1.45 1.45 0 0 0 0.36 0.22 1.38 1.38 0 0 0 0.39 0.13 2.76 2.76 0 0 0 1 0 0.32 0.32 0 1 0 0 -0.63 3.63 3.63 0 0 1 -0.7 -0.37l-0.46 -0.23a7.6 7.6 0 0 1 -0.76 -0.31c0 -0.14 0 -0.29 0.05 -0.44 0.06 -0.61 0.14 -1.25 0.23 -1.89a3.6 3.6 0 0 0 0.54 0.63 2.44 2.44 0 0 0 0.43 0.28 2.53 2.53 0 0 0 0.48 0.19 5.5 5.5 0 0 0 1.16 0.23 0.33 0.33 0 0 0 0.38 -0.25 0.32 0.32 0 0 0 -0.25 -0.38L3.3 11a0.25 0.25 0 0 0 -0.09 0 18.12 18.12 0 0 1 0.63 -2.64A9.89 9.89 0 0 1 5.4 5.25a7.2 7.2 0 0 1 2.87 -2.17c0.82 -0.35 2.61 -0.84 3.76 -0.16 -0.09 0.45 -0.18 0.9 -0.26 1.35a8.53 8.53 0 0 0 -1.41 0.63 0.29 0.29 0 0 0 -0.17 0.36 0.28 0.28 0 0 0 0.36 0.17q0.51 -0.09 1 -0.15h0.05l0 0.47a8.17 8.17 0 0 0 0 0.86c0 0.68 0.13 1.34 0.23 2a0.31 0.31 0 0 0 0.33 0.3 0.32 0.32 0 0 0 0.31 -0.33c0 -0.68 0.1 -1.35 0.14 -2 0 -0.44 0.06 -0.88 0 -1.33a1.67 1.67 0 0 1 0.32 0 2.52 2.52 0 0 1 0.56 0.09c0.32 0.09 0.63 0.22 1 0.31a0.33 0.33 0 0 0 0.51 -0.19 0.32 0.32 0 0 0 -0.18 -0.41c-0.36 -0.2 -0.67 -0.44 -1 -0.62a3.43 3.43 0 0 0 -0.56 -0.22 4.93 4.93 0 0 0 -0.54 0c0 -0.4 -0.05 -0.81 -0.06 -1.22l0 -0.07c0.29 -0.08 0.58 -0.16 0.88 -0.22a7.88 7.88 0 0 1 1.2 -0.1 8.08 8.08 0 0 1 0.85 0.05 4.47 4.47 0 0 1 0.81 0.16 5.15 5.15 0 0 1 3.15 2.72 15.52 15.52 0 0 1 1.42 5.4c-0.29 0.22 -0.58 0.42 -0.86 0.65s-0.34 0.32 -0.51 0.48a7 7 0 0 1 -0.8 0.73 0.33 0.33 0 0 0 -0.16 0.43 0.32 0.32 0 0 0 0.43 0.14 4.75 4.75 0 0 0 1.13 -0.48 2.53 2.53 0 0 0 0.42 -0.31 2.11 2.11 0 0 0 0.35 -0.38L21 12l0.21 2.22c-0.25 0.23 -0.48 0.4 -0.7 0.59l-0.43 0.35 -0.28 0.25a4 4 0 0 1 -0.72 0.45 0.33 0.33 0 0 0 -0.23 0.39 0.32 0.32 0 0 0 0.4 0.22 3.47 3.47 0 0 0 1.18 -0.29 2.08 2.08 0 0 0 0.46 -0.29 1.81 1.81 0 0 0 0.36 -0.37 9.18 9.18 0 0 1 -0.63 3.6 3.06 3.06 0 0 1 -2.2 1.88 0.33 0.33 0 0 0 -0.25 0.38 0.32 0.32 0 0 0 0.37 0.25 3.72 3.72 0 0 0 2.77 -2.19 11.66 11.66 0 0 0 0.88 -5.1l-0.14 -2.45A18.08 18.08 0 0 0 20.34 5ZM4.66 4.65c-0.11 0.13 -0.2 0.27 -0.3 0.4S4.3 5 4.26 5a1.79 1.79 0 0 1 -0.41 -0.13 1.9 1.9 0 0 1 -0.37 -0.2A1.33 1.33 0 0 1 3 3a2.12 2.12 0 0 1 1.36 -1.41 1.29 1.29 0 0 1 0.7 0 2 2 0 0 1 0.73 0.32 2 2 0 0 1 0.44 0.44 3.88 3.88 0 0 1 0.36 0.57 0.26 0.26 0 0 0 0.12 0.08 7.62 7.62 0 0 0 -2.05 1.65Zm15.17 -0.43a5.78 5.78 0 0 0 -2 -1.72 3 3 0 0 1 0.09 -0.32 1.81 1.81 0 0 1 0.3 -0.52 2 2 0 0 1 0.31 -0.27 2 2 0 0 1 0.38 -0.21 1.54 1.54 0 0 1 1.2 -0.08 1.85 1.85 0 0 1 0.93 0.77A1.42 1.42 0 0 1 20.56 4a2.05 2.05 0 0 1 -0.38 0.16 2 2 0 0 1 -0.35 0.06Z" fill="#020202" fill-rule="evenodd" stroke-width="1"></path>
    <path d="M15.27 11.11a1.46 1.46 0 0 0 1.17 0.27 1.38 1.38 0 0 0 1 -1.09 1.35 1.35 0 0 0 -2.4 -1.12 1.48 1.48 0 0 0 -0.38 0.87 1.31 1.31 0 0 0 0.61 1.07Zm1.24 -1.06a0.35 0.35 0 0 1 -0.3 0.27 0.48 0.48 0 0 1 -0.35 -0.07c-0.11 -0.07 -0.24 -0.12 -0.25 -0.22 -0.1 -0.89 1.17 -0.88 0.9 0.02Z" fill="#020202" fill-rule="evenodd" stroke-width="1"></path>
    <path d="M9.2 11.24a1.38 1.38 0 0 0 0.43 -1.53 1.41 1.41 0 0 0 -1.12 -1 1.18 1.18 0 0 0 -1.32 0.58A1.52 1.52 0 0 0 7 10a1.48 1.48 0 0 0 0.65 1.31 1.31 1.31 0 0 0 1.55 -0.07ZM8.69 10a0.41 0.41 0 0 1 -0.14 0.43 0.38 0.38 0 0 1 -0.48 0c-0.8 -0.73 0.42 -1.43 0.62 -0.43Z" fill="#020202" fill-rule="evenodd" stroke-width="1"></path>
  </g>
</svg>