<svg xmlns="http://www.w3.org/2000/svg" viewBox="0 0 24 24" id="Tiger-Body--Streamline-Freehand">
  <desc>
    Tiger Body Streamline Icon: https://streamlinehq.com
  </desc>
  <g>
    <path d="M4.55 8.54a0.66 0.66 0 0 0 0.15 1 0.82 0.82 0 0 0 0.64 0.11 0.77 0.77 0 0 0 0.52 -0.77c-0.05 -0.79 -0.86 -0.81 -1.31 -0.34Z" fill="#020202" fill-rule="evenodd" stroke-width="1"></path>
    <path d="m16.43 9.77 0 0.77 0 0.78a6.84 6.84 0 0 1 0 0.79 0.31 0.31 0 0 0 0.23 0.39 0.32 0.32 0 0 0 0.38 -0.23 6.14 6.14 0 0 0 0.42 -1.48 4.62 4.62 0 0 0 0.05 -0.65 4.91 4.91 0 0 0 -0.06 -0.66 4.15 4.15 0 0 0 -0.31 -0.92c-0.23 -0.33 -0.83 -0.27 -0.73 0.09s0.02 0.63 0.02 1.12Z" fill="#4C57E6" fill-rule="evenodd" stroke-width="1"></path>
    <path d="M19.18 10.73c0 0.31 0.08 0.62 0.1 0.94s0 0.62 0 0.95a0.33 0.33 0 0 0 0.28 0.36 0.31 0.31 0 0 0 0.35 -0.28 10.07 10.07 0 0 0 0.3 -1.74 5 5 0 0 0 0 -0.77 4.82 4.82 0 0 0 -0.1 -0.75 8.92 8.92 0 0 0 -0.41 -1.27c-0.25 -0.18 -0.7 -0.17 -0.64 0.31s0 0.77 0.05 1.33c0.02 0.31 0.05 0.61 0.07 0.92Z" fill="#4C57E6" fill-rule="evenodd" stroke-width="1"></path>
    <path d="M9.11 16.3a3.05 3.05 0 0 0 0.8 -0.05 0.34 0.34 0 0 0 0.34 -0.3 0.32 0.32 0 0 0 -0.3 -0.34 6.55 6.55 0 0 1 -0.8 -0.39 1.09 1.09 0 0 0 -0.24 -0.07 1.58 1.58 0 0 0 -0.57 0c-0.32 0.1 -0.28 0.57 0.21 0.94a1 1 0 0 0 0.23 0.12 1.3 1.3 0 0 0 0.33 0.09Z" fill="#4C57E6" fill-rule="evenodd" stroke-width="1"></path>
    <path d="M9.72 18.34a5.79 5.79 0 0 0 -0.72 -0.07 0.28 0.28 0 1 0 -0.25 0.51 3.35 3.35 0 0 0 0.54 0.5 1.08 1.08 0 0 0 0.29 0.13 1.28 1.28 0 0 0 0.33 0.06h0.06a0.72 0.72 0 0 0 0.32 -0.9 0.68 0.68 0 0 0 -0.17 -0.09 2.67 2.67 0 0 0 -0.4 -0.14Z" fill="#4C57E6" fill-rule="evenodd" stroke-width="1"></path>
    <path d="M20.63 18.73a0.64 0.64 0 0 0 0.18 -0.1 2.12 2.12 0 0 0 0.34 -0.33 0.32 0.32 0 0 0 0.17 -0.42 0.32 0.32 0 0 0 -0.42 -0.17 5.72 5.72 0 0 0 -0.58 0 0.61 0.61 0 0 0 -0.14 0.07c-0.12 0.08 -0.17 0.18 -0.28 0.26 -0.13 0.33 -0.09 0.55 0.16 0.64a1.26 1.26 0 0 0 0.36 0.1 0.76 0.76 0 0 0 0.21 -0.05Z" fill="#4C57E6" fill-rule="evenodd" stroke-width="1"></path>
    <path d="M22.93 6a5.1 5.1 0 0 0 -1.46 -0.56 9.41 9.41 0 0 1 -1.29 -0.34A2.09 2.09 0 0 1 19 4.17a1.73 1.73 0 0 1 -0.12 -1.48 0.28 0.28 0 1 0 -0.52 -0.23 2.46 2.46 0 0 0 -0.07 2.05A3 3 0 0 0 19.79 6a10.24 10.24 0 0 0 1.42 0.45 5.12 5.12 0 0 1 1.18 0.4A1.42 1.42 0 0 1 23.14 8a3.11 3.11 0 0 1 0 0.43l0 0.45c0 0.15 -0.05 0.26 -0.08 0.39a5 5 0 0 0 -0.48 -0.68A4.84 4.84 0 0 0 21.2 7.5a4.16 4.16 0 0 0 -1.72 -0.5 5.25 5.25 0 0 0 -1 0c-0.71 0.09 -1.41 0.27 -2.1 0.38l-3.74 0.5 -0.05 0a2.29 2.29 0 0 1 -0.37 -0.12c-0.35 -0.15 -0.67 -0.36 -1 -0.52a5.37 5.37 0 0 0 -0.89 -0.24 6.07 6.07 0 0 0 -0.94 -0.13 5.49 5.49 0 0 1 -0.81 0 0.48 0.48 0 0 1 -0.2 -0.07c0.06 0 0 -0.22 0 -0.33A3.1 3.1 0 0 0 8 5.32a1.43 1.43 0 0 0 -0.72 -0.65 0.87 0.87 0 0 0 -0.45 0 2.67 2.67 0 0 0 -0.54 0.24 3.85 3.85 0 0 0 -0.8 0.5 2.93 2.93 0 0 0 -0.64 0.72 0.27 0.27 0 0 0 0 0.23 4 4 0 0 0 -1.66 1 3.36 3.36 0 0 0 -0.88 1.82L2 9.4a5.72 5.72 0 0 1 -0.46 0.37c-0.17 0.11 -0.34 0.22 -0.52 0.32a2.93 2.93 0 0 0 -0.58 0.33 1 1 0 0 0 -0.37 0.58 1.59 1.59 0 0 0 0 0.75 2.67 2.67 0 0 0 0.35 0.89A4.46 4.46 0 0 0 1.69 14a3.11 3.11 0 0 0 1.91 0.62 3 3 0 0 0 0.66 -0.09c0.28 -0.07 0.57 -0.17 0.83 -0.26 0.69 -0.22 0.17 -0.29 0.72 0.11a10.29 10.29 0 0 1 0.82 0.66 3.14 3.14 0 0 1 0.42 0.48 1.1 1.1 0 0 1 0.17 0.5 5.16 5.16 0 0 1 0 1 11.69 11.69 0 0 1 -0.1 1.19c-0.11 0.91 -0.29 1.81 -0.41 2.7 -0.34 0.64 0.65 0.43 2 0.54a5.93 5.93 0 0 0 0.61 0 1.06 1.06 0 0 0 0.37 -0.09 1.62 1.62 0 0 0 0.55 -0.43 4.89 4.89 0 0 0 0.5 -0.75l0.51 -1 0.87 -2.06a0.9 0.9 0 0 0 0.06 -0.22 1.18 1.18 0 0 1 0.19 0l1.24 0.14a14.24 14.24 0 0 0 1.46 0c0.48 0 1 0 1.44 -0.08 0.26 0 0.57 -0.12 0.87 -0.14a0.61 0.61 0 0 1 0.33 0A2.61 2.61 0 0 1 18.83 18a4.15 4.15 0 0 1 0.4 1.7 4.94 4.94 0 0 1 0 0.68 0.47 0.47 0 0 1 -0.06 0.27s-0.15 0.6 -0.15 0.6a0.31 0.31 0 0 0 0.33 0.3c0.39 0 0.82 0.05 1.23 0a2.43 2.43 0 0 0 0.6 -0.1 2 2 0 0 0 1.09 -1 7.37 7.37 0 0 0 0.73 -1.61l0.2 -1.07a6.11 6.11 0 0 0 -0.23 -1.41 1.54 1.54 0 0 1 0 -0.43 2.47 2.47 0 0 1 0.03 -0.43c0.12 -0.39 0.3 -0.77 0.4 -1.18a8 8 0 0 0 0.21 -3.51 5.67 5.67 0 0 0 -0.2 -0.67 4.16 4.16 0 0 0 0.24 -0.47 5 5 0 0 0 0.19 -0.62 3.1 3.1 0 0 0 0.1 -0.53A3.51 3.51 0 0 0 24 8a2.24 2.24 0 0 0 -1.07 -2Zm-0.5 8.09c-0.09 0.39 -0.24 0.76 -0.35 1.14a4 4 0 0 0 -0.12 0.6 2.41 2.41 0 0 0 0 0.71 5.45 5.45 0 0 1 0.27 1.21l-0.12 0.91a6.57 6.57 0 0 1 -0.49 1.63 1.25 1.25 0 0 1 -0.65 0.65 1.91 1.91 0 0 1 -0.58 0.1h-0.62a1.24 1.24 0 0 0 0.12 -0.32 4.42 4.42 0 0 0 0 -0.88 3 3 0 0 0 -0.45 -2 5.13 5.13 0 0 0 -1.4 -1.72 0.76 0.76 0 0 0 -0.55 -0.19 7.63 7.63 0 0 0 -1.09 0.09l-1.38 0c-0.45 0 -0.9 0 -1.35 -0.06l-1.19 -0.14c-0.11 0 -0.32 -0.06 -0.47 -0.06a0.77 0.77 0 0 0 -0.27 0 0.57 0.57 0 0 0 -0.31 0.24 5 5 0 0 0 -0.28 0.59 5.65 5.65 0 0 0 -0.29 0.67c-0.17 0.44 -0.66 1.89 -0.91 2.51a4.11 4.11 0 0 1 -0.29 0.54 1 1 0 0 1 -0.34 0.35 0.48 0.48 0 0 1 -0.17 0.05H7.4c0.16 -0.81 0.34 -1.62 0.48 -2.43 0.08 -0.42 0.14 -0.83 0.18 -1.25 0.12 -1.24 0.17 -1.82 -0.75 -2.76a8.05 8.05 0 0 0 -0.88 -0.78 3.09 3.09 0 0 0 -0.5 -0.37 0.91 0.91 0 0 0 -0.45 -0.14 0.74 0.74 0 0 0 -0.25 0 4.79 4.79 0 0 0 -0.46 0.16L4 13.5l-0.44 0.06a2.12 2.12 0 0 1 -1.28 -0.43 3.51 3.51 0 0 1 -1 -1.05 1.19 1.19 0 0 1 -0.09 -0.15 0.86 0.86 0 0 0 0.21 0.07 1 1 0 0 0 0.29 0 3.76 3.76 0 0 0 0.64 -0.15 0.32 0.32 0 0 0 0.32 -0.32 0.31 0.31 0 0 0 -0.31 -0.32c-0.25 -0.06 -0.46 -0.21 -0.73 -0.28a1.25 1.25 0 0 0 -0.19 0l0.1 -0.07c0.19 -0.12 0.38 -0.26 0.57 -0.4a5.91 5.91 0 0 0 0.48 -0.46 2.14 2.14 0 0 0 0.34 -0.42 0.8 0.8 0 0 0 0.09 -0.36 2.57 2.57 0 0 1 0.6 -1.47A3.34 3.34 0 0 1 5 6.84c0.2 -0.08 0.11 -0.17 0.29 -0.43a2.47 2.47 0 0 1 0.57 -0.5 3.47 3.47 0 0 1 0.71 -0.31A3.18 3.18 0 0 0 7 5.51a0.68 0.68 0 0 1 0.21 0.37 2.88 2.88 0 0 1 0.1 0.69 2.82 2.82 0 0 0 0.07 0.6 1 1 0 0 0 0.25 0.39 1.54 1.54 0 0 0 0.82 0.37 19.12 19.12 0 0 1 2.53 0.18c0.42 0.14 0.83 0.35 1.26 0.46 0.88 0.22 4.47 -0.35 6.1 -0.62a3.2 3.2 0 0 1 2.41 0.43 4.11 4.11 0 0 1 1.95 3.14 8 8 0 0 1 -0.27 2.56Z" fill="#020202" fill-rule="evenodd" stroke-width="1"></path>
    <path d="M19.91 16.15a2.46 2.46 0 0 0 0 -1 0.32 0.32 0 1 0 -0.63 -0.07 5.77 5.77 0 0 1 -0.35 0.61c-0.13 0.21 -0.18 0.25 -0.2 0.37a0.52 0.52 0 0 0 0.57 0.7c0.18 0 0.17 -0.06 0.32 -0.19a0.94 0.94 0 0 0 0.29 -0.42Z" fill="#4C57E6" fill-rule="evenodd" stroke-width="1"></path>
    <path d="M13 11.14a8.85 8.85 0 0 1 0.08 0.9 5.35 5.35 0 0 1 0 0.89 0.31 0.31 0 0 0 0.22 0.39 0.33 0.33 0 0 0 0.39 -0.23 5.85 5.85 0 0 0 0.31 -1.74 6.25 6.25 0 0 0 0 -0.75c0 -0.24 -0.06 -0.49 -0.11 -0.73 -0.09 -0.42 -0.29 -0.61 -0.41 -1 -0.35 -0.23 -0.61 -0.23 -0.58 0.27s0 0.6 0 1.11c0.03 0.29 0.1 0.59 0.1 0.89Z" fill="#4C57E6" fill-rule="evenodd" stroke-width="1"></path>
    <path d="m9.54 9.4 0 0.78a10.71 10.71 0 0 1 -0.15 2 0.31 0.31 0 0 0 0.21 0.4 0.33 0.33 0 0 0 0.4 -0.21 8 8 0 0 0 0.54 -1.76 4.22 4.22 0 0 0 0.07 -0.79 3.1 3.1 0 0 0 -0.06 -0.82 2.33 2.33 0 0 0 -0.23 -0.64c-0.22 -0.42 -0.91 -0.22 -0.83 0.08a2.14 2.14 0 0 1 0 0.45c0.06 0.17 0.05 0.34 0.05 0.51Z" fill="#4C57E6" fill-rule="evenodd" stroke-width="1"></path>
  </g>
</svg>