<svg xmlns="http://www.w3.org/2000/svg" viewBox="0 0 24 24" id="Time-Clock-Square--Streamline-Freehand">
  <desc>
    Time Clock Square Streamline Icon: https://streamlinehq.com
  </desc>
  <g>
    <path d="M23.69 2.73a2.58 2.58 0 0 0 -0.38 -1.32A5.24 5.24 0 0 0 21 0.62 61.67 61.67 0 0 0 12 0C7.25 0 2.42 0.38 0.92 1.39a2.18 2.18 0 0 0 -0.54 1.4 36.46 36.46 0 0 0 -0.32 5.07C0 13.82 0.56 22 0.94 22.71A1.73 1.73 0 0 0 2 23.3a48.8 48.8 0 0 0 7.8 0.7c3.69 0.1 7.75 0.05 10.33 -0.15a8.61 8.61 0 0 0 2.77 -0.5 0.77 0.77 0 0 0 0.29 -0.32 4.88 4.88 0 0 0 0.26 -1.1c0.24 -1.8 0.42 -5.69 0.47 -9.58a93.13 93.13 0 0 0 -0.23 -9.62Zm-0.85 7.44c-0.05 4.33 -0.23 9.14 -0.51 11.34 0 0.34 -0.12 0.69 -0.16 0.85a9.49 9.49 0 0 1 -1.71 0.25c-2.06 0.19 -5.28 0.27 -8.5 0.26a69.28 69.28 0 0 1 -9.52 -0.48 3.86 3.86 0 0 1 -0.68 -0.19c-0.34 -0.93 -0.82 -7 -1 -12.25a51.41 51.41 0 0 1 0.18 -6.66c0.09 -0.73 0.16 -1.24 0.34 -1.36C2.76 1 7.42 0.74 12 0.83a60.1 60.1 0 0 1 8.76 0.73 5.34 5.34 0 0 1 1.78 0.5c0 0.09 0.08 0.34 0.11 0.57 0.19 1.37 0.23 4.37 0.19 7.54Z" fill="#020202" fill-rule="evenodd" stroke-width="1"></path>
    <path d="M10 4.11a6.56 6.56 0 0 0 -5.2 4.76 9.25 9.25 0 0 0 0.65 7A7.47 7.47 0 0 0 11 19.33 8.6 8.6 0 0 0 17.28 18a0.34 0.34 0 0 0 -0.4 -0.56 7.81 7.81 0 0 1 -5.78 1 6.58 6.58 0 0 1 -4.76 -3.12 8.25 8.25 0 0 1 -0.45 -6.16 5.47 5.47 0 0 1 4.25 -4 8.67 8.67 0 0 1 6.93 1.54c1.5 1.29 2.44 3.42 2.08 6.75a6.56 6.56 0 0 1 -0.33 1.55 5.22 5.22 0 0 1 -0.71 1.32 0.31 0.31 0 0 0 0.06 0.43 0.31 0.31 0 0 0 0.43 -0.07 5.68 5.68 0 0 0 0.82 -1.45 6.63 6.63 0 0 0 0.42 -1.62c0.53 -3.69 -0.51 -6.08 -2.14 -7.56A9.7 9.7 0 0 0 10 4.11Z" fill="#020202" fill-rule="evenodd" stroke-width="1"></path>
    <path d="m12.6 11.75 0 -0.65c-0.08 -1 -0.28 -2.32 -0.31 -2.63a0.3 0.3 0 0 0 -0.3 -0.3 0.3 0.3 0 0 0 -0.31 0.3c0 0.31 -0.17 1.65 -0.19 2.66l0 1.14a0.56 0.56 0 0 0 0.52 0.55s0.58 0 1.35 0l2 0a0.35 0.35 0 0 0 0 -0.69Z" fill="#4C57E6" fill-rule="evenodd" stroke-width="1"></path>
  </g>
</svg>