<svg xmlns="http://www.w3.org/2000/svg" viewBox="0 0 24 24" id="Time-Clock-Six-Forty-Five-2--Streamline-Freehand">
  <desc>
    Time Clock Six Forty Five 2 Streamline Icon: https://streamlinehq.com
  </desc>
  <g>
    <g>
      <path d="M18.91 4.82c-2.73 -2.46 -6.84 -2.9 -9.79 -2.44a8.23 8.23 0 0 0 -6.45 6 11.7 11.7 0 0 0 0.75 8.84c1.74 3.26 6.19 5 10.28 4.55 10.06 -1.1 9.58 -13.03 5.21 -16.95Zm0.38 13.56c-0.21 0.34 -0.47 0.46 -0.86 0.8a8.92 8.92 0 0 1 -4.8 1.8c-0.24 0 -4.75 0.44 -7.9 -2.36a2.6 2.6 0 0 1 -0.67 -0.69 9.66 9.66 0 0 1 -0.83 -1.18 10.89 10.89 0 0 1 -0.65 -8.14 8.51 8.51 0 0 1 2.63 -4 6.59 6.59 0 0 1 3.05 -1.35 11.73 11.73 0 0 1 3.32 -0.15s4.1 0.81 5.49 2A8.66 8.66 0 0 1 20.61 9a19.15 19.15 0 0 1 0.67 3.62 8.4 8.4 0 0 1 -1.99 5.76Z" fill="#020202" stroke-width="1"></path>
      <path d="M20.42 3.24C17.09 0.25 12.09 -0.3 8.48 0.27A10 10 0 0 0 0.62 7.52a14.34 14.34 0 0 0 0.92 10.79c2.13 4 7.54 6.06 12.54 5.54C26.34 22.57 25.75 8 20.42 3.24Zm0.47 16.54c-0.25 0.42 -0.58 0.56 -1.05 1A10.93 10.93 0 0 1 14 23c-0.3 0 -5.8 0.54 -9.64 -2.88a3 3 0 0 1 -0.81 -0.84 10 10 0 0 1 -1 -1.44 13.26 13.26 0 0 1 -0.8 -9.92A10.46 10.46 0 0 1 4.94 3a8.22 8.22 0 0 1 3.72 -1.66 14.71 14.71 0 0 1 4.05 -0.18s5 1 6.69 2.46a10.58 10.58 0 0 1 3.1 4.72 21.74 21.74 0 0 1 0.81 4.42 10.2 10.2 0 0 1 -2.42 7.02Z" fill="#020202" stroke-width="1"></path>
      <g>
        <path d="M6 11.83a0.31 0.31 0 0 1 0.3 0.31 0.42 0.42 0 0 1 -0.4 0.41 2.43 2.43 0 0 1 -0.69 0c-0.23 0 -0.47 -0.07 -0.71 -0.07l-0.35 -0.07a0.5 0.5 0 0 1 -0.07 -0.6c0.21 -0.3 1.53 -0.04 1.92 0.02Z" fill="#4C57E6" stroke-width="1"></path>
        <path d="M12.07 18.14a0.31 0.31 0 0 1 0.29 -0.32 0.42 0.42 0 0 1 0.44 0.38 2.54 2.54 0 0 1 0 0.68c0 0.24 -0.05 0.48 0 0.73l-0.06 0.34a0.49 0.49 0 0 1 -0.59 0.11c-0.3 -0.18 -0.15 -1.52 -0.08 -1.92Z" fill="#4C57E6" stroke-width="1"></path>
        <path d="M8.62 18.08c0.09 -0.18 0.14 -0.35 0.21 -0.5a0.77 0.77 0 0 0 0.09 -0.2 0.6 0.6 0 0 0 0.08 -0.23 0.31 0.31 0 0 0 -0.32 -0.3 0.76 0.76 0 0 0 -0.53 0.24 3.63 3.63 0 0 0 -0.3 0.35 2.92 2.92 0 0 0 -0.24 0.37 3.78 3.78 0 0 0 -0.17 0.35 0.33 0.33 0 0 0 0 0.24c0.08 0.37 0.3 0.49 0.73 0.32 0.09 -0.09 0.11 -0.06 0.19 -0.17a2.94 2.94 0 0 0 0.26 -0.47Z" fill="#4C57E6" stroke-width="1"></path>
        <path d="M5.93 15.69a7.64 7.64 0 0 0 0.6 -0.51c0.08 -0.07 0.14 -0.12 0.15 -0.18a0.29 0.29 0 0 0 -0.13 -0.42 1.68 1.68 0 0 0 -1 0.15 3.59 3.59 0 0 0 -0.38 0.21 3.37 3.37 0 0 0 -0.31 0.21 0.34 0.34 0 0 0 -0.14 0.21c-0.1 0.36 0 0.57 0.49 0.64a1.23 1.23 0 0 0 0.23 0 2.87 2.87 0 0 0 0.49 -0.31Z" fill="#4C57E6" stroke-width="1"></path>
      </g>
    </g>
    <path d="m12.7 12 -2.11 0c-1 0 -1.46 0 -2.42 0.07a0.34 0.34 0 1 0 0 0.67c1 0.07 1.48 0.15 2.49 0.18l1.75 0v2.78a0.31 0.31 0 0 0 0.3 0.3 0.3 0.3 0 0 0 0.3 -0.3l0.26 -3.18a0.56 0.56 0 0 0 -0.57 -0.52Z" fill="#020202" stroke-width="1"></path>
  </g>
</svg>