<svg xmlns="http://www.w3.org/2000/svg" viewBox="0 0 24 24" id="Time-Clock-Past-2--Streamline-Freehand">
  <desc>
    Time Clock Past 2 Streamline Icon: https://streamlinehq.com
  </desc>
  <g>
    <path d="M0.69 10.68A13.37 13.37 0 0 1 1 9.16c0.13 -0.46 0.3 -0.91 0.44 -1.35a11.76 11.76 0 0 1 0.76 -2 0.28 0.28 0 0 0 -0.07 -0.41 0.27 0.27 0 0 0 -0.4 0.07A7 7 0 0 0 0.6 7.05a5.56 5.56 0 0 0 -0.32 0.8 5.87 5.87 0 0 0 -0.19 0.83 9.33 9.33 0 0 0 -0.07 2 0.35 0.35 0 0 0 0.33 0.32 0.34 0.34 0 0 0 0.34 -0.32Z" fill="#4C57E6" stroke-width="1"></path>
    <g>
      <path d="M23.85 12.05a0.33 0.33 0 0 0 -0.66 0.06 9.61 9.61 0 0 1 -0.27 2.12c-0.07 0.29 -0.15 0.58 -0.23 0.87l-0.27 0.85a11.69 11.69 0 0 1 -0.63 1.55 1.86 1.86 0 0 0 -0.86 -0.41 2.58 2.58 0 0 0 -1.57 0.19 0.35 0.35 0 0 0 -0.21 0.3 0.28 0.28 0 0 0 -0.29 0 1.64 1.64 0 0 0 -0.57 0.68 1.91 1.91 0 0 0 -0.17 0.89 2.24 2.24 0 0 0 1 2 2.73 2.73 0 0 0 2.3 0.09 1.92 1.92 0 0 0 1.13 -1.35 2.52 2.52 0 0 0 -0.3 -1.89 7.74 7.74 0 0 0 1.16 -1.68 5 5 0 0 0 0.36 -1 5.36 5.36 0 0 0 0.19 -1 8.52 8.52 0 0 0 -0.11 -2.27ZM21 20.23a1.73 1.73 0 0 1 -1.38 0.06 1.45 1.45 0 0 1 -0.75 -1.18 1.06 1.06 0 0 1 0.33 -1 0.27 0.27 0 0 0 0.11 -0.2 0.33 0.33 0 0 0 0.29 0 1.92 1.92 0 0 1 0.95 -0.08 1.13 1.13 0 0 1 0.71 0.4 1.64 1.64 0 0 1 0.29 1.19 0.94 0.94 0 0 1 -0.55 0.81Z" fill="#020202" stroke-width="1"></path>
      <path d="M20.16 5c0.19 0.3 0.36 0.63 0.54 1s0.35 0.62 0.56 0.94c0.36 0.6 0.77 1.21 1.13 1.91a0.29 0.29 0 0 0 0.39 0.17 0.29 0.29 0 0 0 0.22 -0.42 14.13 14.13 0 0 0 -0.6 -2 6.49 6.49 0 0 0 -0.4 -0.79 6.39 6.39 0 0 0 -0.5 -0.74A11.22 11.22 0 0 0 20 3.63a0.34 0.34 0 0 0 -0.48 0 0.35 0.35 0 0 0 0 0.48 10.24 10.24 0 0 1 0.64 0.89Z" fill="#020202" stroke-width="1"></path>
      <path d="M15.31 0.61a4 4 0 0 0 -0.83 -0.2 6 6 0 0 0 -0.84 -0.09 11.7 11.7 0 0 0 -2 0.17 0.34 0.34 0 0 0 0.05 0.67 13.36 13.36 0 0 1 1.55 0.17c0.47 0.07 0.94 0.17 1.41 0.26a12.14 12.14 0 0 1 2.16 0.41 0.29 0.29 0 0 0 0.39 -0.15 0.3 0.3 0 0 0 -0.13 -0.39 7.87 7.87 0 0 0 -1.76 -0.85Z" fill="#4C57E6" stroke-width="1"></path>
      <path d="M4.44 3.71c0.45 -0.23 0.95 -0.41 1.45 -0.64a8.94 8.94 0 0 0 1 -0.43c0.52 -0.27 1 -0.6 1.55 -0.87a0.29 0.29 0 1 0 -0.18 -0.55 10.55 10.55 0 0 0 -1.6 0.33 4.51 4.51 0 0 0 -0.66 0.26 6 6 0 0 0 -0.61 0.35 11.22 11.22 0 0 0 -1.29 1 0.33 0.33 0 0 0 -0.1 0.46 0.34 0.34 0 0 0 0.44 0.09Z" fill="#4C57E6" stroke-width="1"></path>
      <path d="M16.17 21.89a13.68 13.68 0 0 1 -5.48 0.8 8.84 8.84 0 0 1 -5 -1.77 12.67 12.67 0 0 1 -2.95 -3.16 13.34 13.34 0 0 1 -1.78 -4 0.29 0.29 0 0 0 -0.35 -0.22 0.3 0.3 0 0 0 -0.23 0.35A13.73 13.73 0 0 0 2 18.23a13.28 13.28 0 0 0 3 3.57 9.63 9.63 0 0 0 5.67 1.87 14 14 0 0 0 5.76 -1.15 0.34 0.34 0 0 0 -0.24 -0.63Z" fill="#4C57E6" stroke-width="1"></path>
      <path d="m11.96 11.49 0.01 0.02 0.02 0.02 -0.03 -0.04z" fill="#020202" stroke-width="1"></path>
      <path d="M13.62 13.42c0.8 0.9 1.79 1.95 2.76 3a0.32 0.32 0 0 0 0.46 0 0.34 0.34 0 0 0 0.05 -0.47c-1 -1.35 -2.06 -2.76 -2.87 -3.78s-1.25 -1.48 -1.34 -1.59a0.63 0.63 0 0 0 -0.37 -0.16l-0.44 0 -4.41 0.3c-0.18 0 -0.43 0.52 0.11 0.58l0.44 0 3.43 0.17a3.75 3.75 0 0 0 0.53 0Z" fill="#020202" stroke-width="1"></path>
    </g>
  </g>
</svg>