<svg xmlns="http://www.w3.org/2000/svg" viewBox="0 0 24 24" id="Toilet-Baby-Seat-1--Streamline-Freehand">
  <desc>
    Toilet Baby Seat 1 Streamline Icon: https://streamlinehq.com
  </desc>
  <g>
    <path d="M16.67 15.27a2 2 0 0 0 -0.68 -0.2c-0.4 -0.05 -0.9 0 -1.19 0C13.88 15 13 15 12.06 15s-1.8 0.09 -2.71 0.16c-0.25 0 -0.73 0.15 -1.16 0.22l-0.13 0 0 -0.77 -0.27 -2.84a6 6 0 0 0 -0.16 -1 0.86 0.86 0 0 0 -0.32 -0.48 0.81 0.81 0 0 0 -0.43 -0.13l-0.58 0a10.37 10.37 0 0 0 -1.12 0.06 8.56 8.56 0 0 0 -1.18 0.2 16.62 16.62 0 0 0 -1.76 0.43 3.61 3.61 0 0 0 -1.2 0.63 0.68 0.68 0 0 0 -0.21 0.37 2.82 2.82 0 0 0 0 0.54 8.24 8.24 0 0 0 0 1.11 10 10 0 0 0 0.07 1.1c0.18 1.65 0.3 3.32 0.51 5A28.78 28.78 0 0 0 2 22.88a0.28 0.28 0 0 0 0.35 0.21 0.29 0.29 0 0 0 0.22 -0.35 25.51 25.51 0 0 1 -0.5 -3.25c-0.16 -1.65 -0.22 -3.31 -0.34 -5l0 -1c0 -0.31 0 -0.67 0.07 -1 0 0 0 -0.4 0.24 -0.52a2.7 2.7 0 0 1 0.57 -0.17c0.56 -0.17 1.17 -0.25 1.67 -0.35a8.69 8.69 0 0 1 1 -0.12l1 0a1.7 1.7 0 0 0 0.4 0.06l0 0.57 0.25 2.77 0 1.15a0.69 0.69 0 0 0 0.36 0.57 1.41 1.41 0 0 0 0.63 0.1c0.49 0 1.18 -0.25 1.51 -0.28 1.07 -0.1 2.12 -0.19 3.18 -0.22l2.1 0 1 0a1.06 1.06 0 0 1 0.44 0.07c0.19 0.1 0.2 0.4 0.23 0.7a5.42 5.42 0 0 1 0 1.1 5.54 5.54 0 0 1 -0.12 0.71 6.2 6.2 0 0 1 -0.23 0.69 7.86 7.86 0 0 1 -0.61 1.19 7.71 7.71 0 0 1 -0.81 1.07 6.65 6.65 0 0 1 -1.24 1 9.73 9.73 0 0 1 -1.47 0.77 0.34 0.34 0 0 0 -0.18 0.44 0.33 0.33 0 0 0 0.44 0.17 11.73 11.73 0 0 0 1.59 -0.78 7.07 7.07 0 0 0 1.41 -1.13 7.86 7.86 0 0 0 0.92 -1.15 8.25 8.25 0 0 0 0.72 -1.3 5.71 5.71 0 0 0 0.28 -0.79 4.59 4.59 0 0 0 0.17 -0.82 5.43 5.43 0 0 0 0 -1.84 1.44 1.44 0 0 0 -0.58 -0.88Z" fill="#020202" fill-rule="evenodd" stroke-width="1"></path>
    <path d="M22.85 4.49A6.79 6.79 0 0 0 20.11 0.8a6.53 6.53 0 0 0 -4.56 -0.63 3.29 3.29 0 0 0 -1.33 0.68 0.29 0.29 0 0 0 -0.3 0 9.4 9.4 0 0 0 -2 1.23 5 5 0 0 0 -1.06 1.23 8 8 0 0 0 -1.1 4.83 5.61 5.61 0 0 0 2.55 4.33 6.18 6.18 0 0 0 1.94 0.74 9.26 9.26 0 0 0 2 0.15A7.69 7.69 0 0 0 20 12a7.58 7.58 0 0 0 2.7 -2.92 6.35 6.35 0 0 0 0.15 -4.59ZM21.7 8.63a6.61 6.61 0 0 1 -2.3 2.48 6.76 6.76 0 0 1 -3.19 1.15 8.18 8.18 0 0 1 -1.78 -0.09 5.19 5.19 0 0 1 -1.63 -0.57A4.66 4.66 0 0 1 10.58 8a7.07 7.07 0 0 1 0.85 -4.38 4.56 4.56 0 0 1 1.17 -1.3 8.34 8.34 0 0 1 1 -0.66 2.88 2.88 0 0 0 -0.23 0.83 3 3 0 0 0 1.4 2.73 1.79 1.79 0 0 0 2.13 -0.07 3.18 3.18 0 0 0 0.83 -1.34 0.76 0.76 0 0 0 -0.28 -0.89A0.33 0.33 0 0 0 17 3a0.34 0.34 0 0 0 0.1 0.46c0.06 0 0 0.09 0 0.15a1.58 1.58 0 0 1 -0.2 0.44 2 2 0 0 1 -0.39 0.5 1.21 1.21 0 0 1 -1.62 -0.24 2.17 2.17 0 0 1 -0.68 -1.74A1.89 1.89 0 0 1 15.77 1a5.46 5.46 0 0 1 3.81 0.61 5.75 5.75 0 0 1 2.23 3.18 5.3 5.3 0 0 1 -0.11 3.84Z" fill="#020202" fill-rule="evenodd" stroke-width="1"></path>
    <path d="M15.09 7.57a0.33 0.33 0 0 0 -0.09 -0.46 2.61 2.61 0 0 0 -1 -0.58 1.24 1.24 0 0 0 -0.57 0 1.14 1.14 0 0 0 -0.56 0.19 1.94 1.94 0 0 0 -0.74 1 0.3 0.3 0 0 0 0.08 0.41 0.29 0.29 0 0 0 0.38 -0.13 1.58 1.58 0 0 1 0.7 -0.33c0.09 0 0.17 0 0.25 -0.05a2 2 0 0 1 1.1 0.08 0.32 0.32 0 0 0 0.45 -0.13Z" fill="#4C57E6" fill-rule="evenodd" stroke-width="1"></path>
    <path d="M18.92 6.23a1.43 1.43 0 0 0 -0.41 0 1.28 1.28 0 0 0 -0.51 0.27 2.35 2.35 0 0 0 -0.73 1 0.3 0.3 0 0 0 0.07 0.41 0.29 0.29 0 0 0 0.41 -0.06 2.33 2.33 0 0 1 0.76 -0.37 2.54 2.54 0 0 1 0.37 -0.1 1.43 1.43 0 0 1 0.22 0 0.87 0.87 0 0 1 0.55 0.19 0.34 0.34 0 0 0 0.47 0.06 0.33 0.33 0 0 0 0.05 -0.47 1.5 1.5 0 0 0 -1.25 -0.93Z" fill="#4C57E6" fill-rule="evenodd" stroke-width="1"></path>
    <path d="M17.75 9.44a2.06 2.06 0 0 1 -1.51 0.44 1.94 1.94 0 0 1 -0.42 -0.07 2.08 2.08 0 0 1 -1 -0.54 0.29 0.29 0 0 0 -0.41 -0.08 0.3 0.3 0 0 0 -0.07 0.41 2.45 2.45 0 0 0 1.11 1.21 1.77 1.77 0 0 0 0.74 0.19 1.8 1.8 0 0 0 0.76 -0.11 2.73 2.73 0 0 0 1.29 -1 0.34 0.34 0 0 0 0 -0.48 0.33 0.33 0 0 0 -0.49 0.03Z" fill="#4C57E6" fill-rule="evenodd" stroke-width="1"></path>
  </g>
</svg>