<svg xmlns="http://www.w3.org/2000/svg" viewBox="0 0 24 24" id="Toilet-Seat-1--Streamline-Freehand">
  <desc>
    Toilet Seat 1 Streamline Icon: https://streamlinehq.com
  </desc>
  <g>
    <path d="M19.73 12.55v-0.5l-0.14 -0.72c0 -0.48 -0.44 -0.83 -1.1 -1a10.79 10.79 0 0 0 -2.66 -0.21l-3.06 0 -3.66 0.08a11.16 11.16 0 0 0 -2.22 0.18 2.39 2.39 0 0 0 -1.45 0.82 1.75 1.75 0 0 0 -0.33 0.76A5 5 0 0 0 5 13a0.3 0.3 0 0 0 0.26 0.3 0.33 0.33 0 0 0 -0.11 0.18 6.79 6.79 0 0 0 0 2.55 6 6 0 0 0 0.91 2.42 4.92 4.92 0 0 0 2 1.45 25.44 25.44 0 0 0 -1.1 2.57 1.1 1.1 0 0 0 0.25 1 2.29 2.29 0 0 0 1.44 0.53c0.87 0.05 2 -0.09 2.87 -0.09l2.67 0 1.83 0a0.82 0.82 0 0 0 0.54 -0.2 1.11 1.11 0 0 0 0.23 -0.49 3.11 3.11 0 0 0 0 -0.86 5.72 5.72 0 0 0 -0.28 -1.18A8.65 8.65 0 0 0 16 20a8 8 0 0 0 1.54 -1.18 8.72 8.72 0 0 0 2.5 -4.5A3.4 3.4 0 0 0 20 13a1.29 1.29 0 0 0 -0.27 -0.45Zm-4.05 8.6a5.1 5.1 0 0 1 0.23 1.27 2.32 2.32 0 0 1 0 0.45v0.06c-0.45 0 -1.32 -0.09 -1.68 -0.1l-2.73 -0.09c-0.86 0.05 -2 0.21 -2.81 0.23 -0.38 0 -0.7 0 -0.86 -0.1s0 -0.14 0 -0.24a3 3 0 0 1 0.14 -0.58c0.21 -0.63 0.54 -1.35 0.69 -1.91l0.66 0.25a10.09 10.09 0 0 0 3.65 0.57 7.68 7.68 0 0 0 2.47 -0.65 7.59 7.59 0 0 1 0.24 0.84Zm-9.43 -7.82 5.06 0.26 2.84 0c0.94 0 1.9 -0.06 2.84 -0.11 0.37 0 1.36 -0.11 1.88 -0.13 -0.14 0.19 0.07 0.62 0 0.8A7.62 7.62 0 0 1 16.74 18a6.45 6.45 0 0 1 -3.93 1.92 8.94 8.94 0 0 1 -3.26 -0.42 5.79 5.79 0 0 1 -2.8 -1.5 5.22 5.22 0 0 1 -0.84 -2.07 6.08 6.08 0 0 1 0 -2.28 0.34 0.34 0 0 0 -0.26 -0.4 0.36 0.36 0 0 0 0 -0.25 4.27 4.27 0 0 1 0.11 -0.92 1.25 1.25 0 0 1 0.24 -0.46 1.74 1.74 0 0 1 1 -0.44 10.55 10.55 0 0 1 2 0c0.62 0 1.23 0.05 1.85 0.06s1.24 0 1.85 0l3.09 -0.1a12.05 12.05 0 0 1 2.09 0 2 2 0 0 1 0.68 0.17c0.07 0 0.14 0.06 0.14 0.12l0.19 0.74v0.12h-0.05c-0.49 0 -1.61 0.18 -2 0.21 -0.93 0.09 -1.87 0.16 -2.8 0.22s-1.87 0.09 -2.8 0.11l-5.07 -0.06A0.3 0.3 0 0 0 6 13a0.29 0.29 0 0 0 0.25 0.33Z" fill="#020202" fill-rule="evenodd" stroke-width="1"></path>
    <path d="m5 4.14 0.19 1a3.35 3.35 0 0 0 -0.71 0c-0.31 0.06 -0.6 0.19 -0.91 0.26a0.34 0.34 0 1 0 0.08 0.68 4.39 4.39 0 0 0 0.81 0 8.7 8.7 0 0 0 0.87 -0.26l0.53 2.62a0.32 0.32 0 0 0 0.35 0.25 0.31 0.31 0 0 0 0.25 -0.36L5.75 4c-0.07 -0.3 -0.85 -0.25 -0.75 0.14Z" fill="#020202" fill-rule="evenodd" stroke-width="1"></path>
    <path d="M20.75 3.62a4.54 4.54 0 0 0 -0.08 -1.46 2.48 2.48 0 0 0 -0.47 -1 2.31 2.31 0 0 0 -1.12 -0.7 6.75 6.75 0 0 0 -1.73 -0.19l-2.15 0 -3.22 0 -1.31 0C9.63 0.21 8.6 0.1 7.54 0a4.87 4.87 0 0 0 -1.37 0.08 1.68 1.68 0 0 0 -1 0.6 2.57 2.57 0 0 0 -0.54 1.43 4.84 4.84 0 0 0 0.1 1.25 0.44 0.44 0 0 0 0.45 0.35l1.78 0c1.23 0.08 2.45 0.27 3.66 0.35s2.24 0.11 3.36 0.15l2.27 0s3.72 0.06 4.12 0c0.28 -0.02 0.35 -0.35 0.38 -0.59Zm-4.41 -0.34c-0.94 -0.07 -1.87 -0.17 -2.81 -0.24S11.64 3 10.69 3C9.48 3 8.25 2.92 7 3c-0.48 0 -1 0 -1.43 0.1a3.47 3.47 0 0 1 0 -0.85A1.72 1.72 0 0 1 6 1.29a0.82 0.82 0 0 1 0.57 -0.24 4.59 4.59 0 0 1 0.91 0c0.9 0.09 1.79 0.21 2.69 0.29 0.61 0.05 1.22 0.08 1.85 0.07l5.34 -0.1a5 5 0 0 1 1.45 0.09 1.37 1.37 0 0 1 0.67 0.38 1.61 1.61 0 0 1 0.35 0.76 3.43 3.43 0 0 1 0.06 0.84Z" fill="#4C57E6" fill-rule="evenodd" stroke-width="1"></path>
    <path d="M19.61 4.63c-0.08 0.3 -0.11 0.35 -0.2 0.64l-0.95 3.11a0.35 0.35 0 0 0 0.21 0.44 0.35 0.35 0 0 0 0.44 -0.21l1.07 -3.08c0.13 -0.37 0.16 -0.46 0.32 -0.94 0.09 -0.32 -0.79 -0.32 -0.89 0.04Z" fill="#020202" fill-rule="evenodd" stroke-width="1"></path>
  </g>
</svg>