<svg xmlns="http://www.w3.org/2000/svg" viewBox="0 0 24 24" id="Tools-Hammer--Streamline-Freehand">
  <desc>
    Tools Hammer Streamline Icon: https://streamlinehq.com
  </desc>
  <g>
    <path d="M22.82 19.79a20.86 20.86 0 0 0 -1.82 -2c-1.28 -1.4 -2.59 -2.83 -3.87 -4.28 -0.76 -0.85 -1.49 -1.72 -2.21 -2.59l0.6 -0.51c0.35 -0.31 0.68 -0.62 1.06 -1a12.35 12.35 0 0 0 1.17 -1.2 2.23 2.23 0 0 0 0.42 -0.85 2.55 2.55 0 0 0 -0.26 -1.44 14.59 14.59 0 0 0 -1.55 -2.25c-0.23 -0.33 -0.53 -0.71 -0.86 -1.1C15 2 14.54 1.43 14.17 1 14 0.82 13.88 0.58 13.7 0.4a1.44 1.44 0 0 0 -0.41 -0.3 1.51 1.51 0 0 0 -1.09 0 7.44 7.44 0 0 0 -1.59 0.9c-1 0.63 -1.95 1.27 -2.89 2A9.48 9.48 0 0 0 7 1.75c-0.17 -0.24 -0.37 -0.48 -0.61 -0.76a0.67 0.67 0 0 0 -0.54 -0.18 2.68 2.68 0 0 0 -0.85 0.25 6.19 6.19 0 0 0 -1 0.58 9.2 9.2 0 0 0 -0.83 0.69 5.74 5.74 0 0 0 -0.46 0.37 1 1 0 0 0 -0.19 0.3 1 1 0 0 0 0 0.58 2.52 2.52 0 0 0 0.48 0.77 5.63 5.63 0 0 0 0.63 0.78 4.62 4.62 0 0 0 0.78 0.62c-0.89 0.82 -1.9 1.74 -2.66 2.57 -1.5 1.63 -1.59 2 -0.28 3.81 0.8 1.1 2 2.46 2.84 3.4a6.88 6.88 0 0 0 1.19 1.25 1.43 1.43 0 0 0 0.94 0.25 3.08 3.08 0 0 0 0.92 -0.29A8.11 8.11 0 0 0 8.41 16l2.42 -1.86 0.41 -0.32c0.33 0.58 0.71 1.15 1.1 1.72 0.67 1 1.39 1.89 2.09 2.82 0.57 0.74 1.18 1.49 1.82 2.2a24.44 24.44 0 0 0 2.05 2 7.35 7.35 0 0 0 1.5 1 3.84 3.84 0 0 0 1.27 0.36 2.13 2.13 0 0 0 2.41 -2.24 3.62 3.62 0 0 0 -0.66 -1.89ZM4.77 5.2a4.06 4.06 0 0 1 -0.58 -0.6 3.81 3.81 0 0 1 -0.43 -0.72c-0.22 -0.28 -0.37 -0.23 0.24 -0.7a11.53 11.53 0 0 1 0.93 -0.73c0.2 -0.14 0.42 -0.29 0.62 -0.41a1.35 1.35 0 0 1 0.37 -0.16 6.71 6.71 0 0 1 0.61 0.55c0.22 0.25 0.43 0.51 0.7 0.87 -0.66 0.51 -1.31 1 -1.93 1.62l-0.45 0.41a0.29 0.29 0 0 0 -0.08 -0.13Zm5.44 8.16 -2.37 1.93a6.5 6.5 0 0 1 -0.93 0.67 1.86 1.86 0 0 1 -0.61 0.22 0.72 0.72 0 0 1 -0.53 -0.18 9.91 9.91 0 0 1 -0.92 -1c-0.73 -0.77 -1.73 -1.82 -2.5 -2.78 -1.45 -1.75 -1.7 -1.72 -0.1 -3.4 1.06 -1.09 2.58 -2.35 3.62 -3.27A24.56 24.56 0 0 1 7.88 4c1 -0.75 2.14 -1.43 3.27 -2.11 0.23 -0.14 0.61 -0.41 1 -0.6s0.51 -0.27 0.71 -0.18l0.49 0.63 2.1 2.62a18.13 18.13 0 0 1 1.28 1.79 1.77 1.77 0 0 1 0.32 1 1.48 1.48 0 0 1 -0.34 0.5c-0.31 0.36 -0.7 0.71 -0.92 0.92l-2.62 2.35ZM22 22.59a1.09 1.09 0 0 1 -0.85 0.26 2.7 2.7 0 0 1 -1.09 -0.36 6.63 6.63 0 0 1 -1.06 -0.73 23.12 23.12 0 0 1 -2 -1.86c-0.65 -0.67 -1.26 -1.37 -1.84 -2.08 -0.73 -0.88 -1.48 -1.79 -2.17 -2.7 -0.43 -0.57 -0.83 -1.14 -1.19 -1.71l2.11 -1.65 0.55 -0.46c0.69 0.9 1.38 1.79 2.1 2.68 1.22 1.51 2.46 3 3.67 4.47a19.52 19.52 0 0 1 1.66 2 2.4 2.4 0 0 1 0.45 1.35 1 1 0 0 1 -0.34 0.79Z" fill="#020202" fill-rule="evenodd" stroke-width="1"></path>
    <path d="M8.07 5.6c0.17 -0.14 1.16 -1 1.32 -1.09s0.58 -0.46 0.92 -0.71a9.29 9.29 0 0 1 1.1 -0.8 1.49 1.49 0 0 1 0.73 -0.21 1.89 1.89 0 0 1 1.09 0.39 10.53 10.53 0 0 1 1.47 1.46c0.41 0.7 -0.33 1 -0.65 0.63a12 12 0 0 0 -1.13 -1.13 1.46 1.46 0 0 0 -0.78 -0.4 1.26 1.26 0 0 0 -0.44 0.2 7.36 7.36 0 0 0 -0.85 0.61L8.64 6.29l-2.32 2 -1.06 0.91c-0.41 0.19 -0.91 -0.06 -0.62 -0.47l1.13 -1Z" fill="#4C57E6" fill-rule="evenodd" stroke-width="1"></path>
  </g>
</svg>