<svg xmlns="http://www.w3.org/2000/svg" viewBox="0 0 24 24" id="Tools-Vice-Grip--Streamline-Freehand">
  <desc>
    Tools Vice Grip Streamline Icon: https://streamlinehq.com
  </desc>
  <g>
    <path d="M8.85 6.3Z" fill="#4C57E6" fill-rule="evenodd" stroke-width="1"></path>
    <path d="M14.69 11.06A17.62 17.62 0 0 0 13 9.65c-1.13 -0.47 -1.51 -0.19 -3.21 0.68a41.82 41.82 0 0 0 -5.24 4.88c-0.7 0.76 -1.4 1.55 -2.08 2.38A18.12 18.12 0 0 0 0.72 20c-0.85 1.47 -0.86 2.1 -0.27 3a2.55 2.55 0 0 0 0.76 0.8 2.29 2.29 0 0 0 1.4 0.15 4.58 4.58 0 0 0 1.75 -0.9c1.47 -1.05 2.78 -2.24 4.15 -3.34l0.08 0.08a13.54 13.54 0 0 0 1.17 1.05 2.19 2.19 0 0 0 0.78 0.32 2.1 2.1 0 0 0 1.58 -0.56 6.86 6.86 0 0 0 1.12 -1.32 2.4 2.4 0 0 0 2.76 -0.11 3.69 3.69 0 0 0 1.36 -2.63c0.18 -2.16 -1.3 -3.94 -2.67 -5.48Zm-3 8.49a7 7 0 0 1 -0.61 0.35 0.86 0.86 0 0 1 -0.44 0.15 1.47 1.47 0 0 1 -0.6 -0.17c-0.37 -0.18 -0.71 -0.42 -1 -0.6l0.08 -0.07a25.42 25.42 0 0 1 2.11 -1.47s0.07 0 0.12 0a1.82 1.82 0 0 1 0.35 0.2 12.36 12.36 0 0 1 1 0.89c-0.35 0.28 -0.7 0.52 -0.97 0.72Zm3.61 -1.29a1.39 1.39 0 0 1 -1.72 0A17.26 17.26 0 0 0 12 16.93a1.27 1.27 0 0 0 -1.35 0c-0.76 0.5 -1.45 1 -2.14 1.59 -1.55 1.29 -3 2.68 -4.62 4a3.87 3.87 0 0 1 -1.46 0.82 1.56 1.56 0 0 1 -1 -0.08 2 2 0 0 1 -0.5 -0.55c-0.16 -0.23 -0.7 -0.51 0.37 -2.28a18.46 18.46 0 0 1 1.75 -2.33c0.69 -0.8 1.39 -1.55 2.1 -2.28 1.09 -1.1 2.21 -2.15 3.39 -3.24a12.11 12.11 0 0 1 1.78 -1.37 5.5 5.5 0 0 1 1.29 -0.59 1.37 1.37 0 0 1 1.15 0.17 5 5 0 0 1 1.08 1 12.24 12.24 0 0 1 2 2.68 3.79 3.79 0 0 1 0.44 2 2.52 2.52 0 0 1 -0.94 1.79Z" fill="#020202" fill-rule="evenodd" stroke-width="1"></path>
    <path d="M23.17 3.19A5.56 5.56 0 0 0 20.23 0.47a13.39 13.39 0 0 0 -4.91 -0.41 4.69 4.69 0 0 0 -1.77 0.43 1 1 0 0 0 -0.54 0.66 2.1 2.1 0 0 0 0.52 1.55c0.63 0.82 1.8 1.69 2.5 2.5 0.3 0.34 0.55 0.65 0.45 1a3.69 3.69 0 0 1 -0.87 1.23c-0.69 0.75 -1.42 1.38 -2.06 2 -0.22 0.32 0 0.65 0.32 0.56 0.67 -0.55 1.57 -1.29 2.28 -2a4.57 4.57 0 0 0 1.12 -1.52 1.71 1.71 0 0 0 -0.4 -1.53 27.87 27.87 0 0 0 -2.08 -2.23 2.32 2.32 0 0 1 -0.74 -1.15c0.07 0 0.17 -0.11 0.29 -0.14a10.94 10.94 0 0 1 3 -0.18 9.25 9.25 0 0 1 2.47 0.39 4.42 4.42 0 0 1 2.34 2.16A5.57 5.57 0 0 1 22.88 7a8.29 8.29 0 0 1 -2.14 3.2 40 40 0 0 1 -3.51 3.37c-0.43 0.36 -0.06 1 0.3 0.71a39.87 39.87 0 0 0 4.57 -4.26 7.36 7.36 0 0 0 1.8 -2.94 6.65 6.65 0 0 0 -0.73 -3.89Z" fill="#020202" fill-rule="evenodd" stroke-width="1"></path>
    <path d="M7.77 9.68a4.48 4.48 0 0 1 0.15 -2.09 3 3 0 0 1 0.39 -0.74 2.24 2.24 0 0 1 0.4 -0.46 1.27 1.27 0 0 1 0.12 -0.1 4.89 4.89 0 0 1 1.31 1.2c0.46 0.54 0.9 1.14 1.29 1.7 0.19 0.34 0.88 0.07 0.67 -0.36a16.14 16.14 0 0 0 -1.5 -2.36 4.37 4.37 0 0 0 -1.31 -1.21A1.22 1.22 0 0 0 8 5.5a4.22 4.22 0 0 0 -1.16 1.8 5.29 5.29 0 0 0 0 2.06 6.78 6.78 0 0 0 0.74 2.11 0.36 0.36 0 0 0 0.63 -0.32 7.11 7.11 0 0 1 -0.44 -1.47Z" fill="#4C57E6" fill-rule="evenodd" stroke-width="1"></path>
  </g>
</svg>