<svg xmlns="http://www.w3.org/2000/svg" viewBox="0 0 24 24" id="Tools-Hex-Key-Chain--Streamline-Freehand">
  <desc>
    Tools Hex Key Chain Streamline Icon: https://streamlinehq.com
  </desc>
  <g>
    <path d="M7.35 0.32a8.32 8.32 0 0 0 -3.63 0.59A5.6 5.6 0 0 0 1 3.5a9.39 9.39 0 0 0 0 8.41 4.13 4.13 0 0 0 1.33 1.51c0.25 0.18 0.68 -0.78 0.22 -1.18a4.57 4.57 0 0 1 -1.09 -2 8.68 8.68 0 0 1 0.33 -6.31A4.86 4.86 0 0 1 4 1.56 7.82 7.82 0 0 1 7.35 0.92a0.29 0.29 0 0 0 0.3 -0.29 0.31 0.31 0 0 0 -0.3 -0.31Z" fill="#4C57E6" fill-rule="evenodd" stroke-width="1"></path>
    <path d="M3.83 8.9a0.3 0.3 0 0 0 -0.31 -0.29 0.3 0.3 0 0 0 -0.29 0.31c0 0.84 -0.09 1.69 -0.17 2.54 0 0.36 -0.42 3.17 -0.47 3.56 -0.11 0.81 -0.18 1.61 -0.27 2.4L2 20.7c0 0.23 -0.12 0.59 -0.14 0.9a1.25 1.25 0 0 0 0.14 0.63 2.25 2.25 0 0 0 1.24 0.77c0.89 0.3 2.12 0.46 2.61 0.64a0.32 0.32 0 0 0 0.43 -0.19 0.33 0.33 0 0 0 -0.18 -0.45c-0.48 -0.22 -1.69 -0.46 -2.57 -0.82a1.4 1.4 0 0 1 -0.68 -0.44l0.21 -0.94c0.08 -0.55 0.17 -1.1 0.24 -1.65s0.12 -1.1 0.17 -1.66c0.06 -0.84 0.16 -1.7 0.22 -2.55a43.8 43.8 0 0 0 0.14 -6.04Z" fill="#020202" fill-rule="evenodd" stroke-width="1"></path>
    <path d="M6 13.56a3 3 0 0 1 -1.59 -0.18c-0.65 0 -0.52 0.93 0 1.12a3.8 3.8 0 0 0 1.69 0.21 5.41 5.41 0 0 0 2.3 -0.61 0.56 0.56 0 0 0 -0.55 -0.9 4.07 4.07 0 0 1 -1.85 0.36Z" fill="#4C57E6" fill-rule="evenodd" stroke-width="1"></path>
    <path d="M7.38 10.35a0.3 0.3 0 1 0 -0.48 0.36 50 50 0 0 1 3.1 5.34c0.36 0.7 0.7 1.41 1.07 2.11 0.24 0.47 0.5 0.93 0.76 1.39 0.14 0.24 0.28 0.63 0.48 0.92a1.2 1.2 0 0 0 0.49 0.44 2.47 2.47 0 0 0 1.39 0.16 7.25 7.25 0 0 0 1.81 -0.55 0.34 0.34 0 0 0 0.19 -0.44 0.33 0.33 0 0 0 -0.44 -0.19 6.66 6.66 0 0 1 -1.58 0.37 1.57 1.57 0 0 1 -0.88 -0.15 0.49 0.49 0 0 1 -0.16 -0.25c-0.14 -0.27 -0.23 -0.58 -0.32 -0.78l-1.72 -3.55c-0.43 -0.72 -3.09 -4.48 -3.71 -5.18Z" fill="#020202" fill-rule="evenodd" stroke-width="1"></path>
    <path d="M10.25 11.48a3.57 3.57 0 0 1 -0.68 0.72c-0.37 0.42 -0.12 1.16 0.42 0.87a5.22 5.22 0 0 0 1.08 -0.91A5.29 5.29 0 0 0 12.23 10c-0.07 -0.68 -0.68 -0.74 -0.83 -0.26a5.16 5.16 0 0 1 -1.15 1.74Z" fill="#4C57E6" fill-rule="evenodd" stroke-width="1"></path>
    <path d="M10.37 8.48a0.3 0.3 0 0 0 -0.35 0.25 0.31 0.31 0 0 0 0.26 0.34c0.41 0.09 2.6 0.35 2.79 0.37 0.69 0.05 1.37 0.09 2.06 0.12s1.35 0 2 0.09l1.51 0a1.15 1.15 0 0 1 0.66 0.16 1.57 1.57 0 0 1 0.41 1.05 9.21 9.21 0 0 1 -0.12 2.17 0.34 0.34 0 0 0 0.68 0.11 11.39 11.39 0 0 0 0.32 -2.33A2.62 2.62 0 0 0 20 9.12a1.81 1.81 0 0 0 -0.94 -0.46 13.87 13.87 0 0 0 -1.84 -0.16c-0.76 0 -1.5 -0.06 -2.25 0 0.03 -0.04 -3.5 0.1 -4.6 -0.02Z" fill="#020202" fill-rule="evenodd" stroke-width="1"></path>
    <path d="M12 6.87a3.8 3.8 0 0 1 -0.09 1c0.07 0.67 0.51 0.62 0.83 0.06a4.34 4.34 0 0 0 0.17 -1.07 6 6 0 0 0 -0.28 -2c-0.25 -0.45 -0.89 -0.3 -0.8 0.2A6.23 6.23 0 0 1 12 6.87Z" fill="#4C57E6" fill-rule="evenodd" stroke-width="1"></path>
    <path d="M11.82 2.8A5 5 0 0 0 8.36 0.43 0.35 0.35 0 0 0 8 0.69a0.34 0.34 0 0 0 0.27 0.4 4.32 4.32 0 0 1 2.92 2.12c0.08 0.14 0.17 0.16 0.23 0.32s0.77 -0.06 0.63 -0.32 -0.13 -0.21 -0.23 -0.41Z" fill="#4C57E6" fill-rule="evenodd" stroke-width="1"></path>
    <path d="M24 5.2a18.85 18.85 0 0 0 -0.88 -2.92 2.84 2.84 0 0 0 -1 -1.13A2 2 0 0 0 20.87 1a21.38 21.38 0 0 0 -2.14 0.53c-1.23 0.32 -2.48 0.66 -3.71 1.07 -1.55 0.52 0.55 -0.21 -5.39 2a0.3 0.3 0 1 0 0.18 0.57l3.43 -0.94 0.32 -0.13 -0.32 0.13L19 2.63c0.3 -0.08 1.06 -0.37 1.75 -0.54 0.36 -0.09 0.69 -0.2 0.86 -0.11a2.25 2.25 0 0 1 0.89 1.07c0.36 0.78 0.57 1.7 0.83 2.38a0.35 0.35 0 0 0 0.44 0.21 0.35 0.35 0 0 0 0.23 -0.44Z" fill="#020202" fill-rule="evenodd" stroke-width="1"></path>
  </g>
</svg>