<svg xmlns="http://www.w3.org/2000/svg" viewBox="0 0 24 24" id="Tools-Kitchen-Serving-Dome--Streamline-Freehand">
  <desc>
    Tools Kitchen Serving Dome Streamline Icon: https://streamlinehq.com
  </desc>
  <g>
    <path d="M23.8 16.61A1.12 1.12 0 0 0 23 16a6 6 0 0 0 -1.38 0h-0.08a0.34 0.34 0 0 0 0.31 -0.34 11.59 11.59 0 0 0 -0.44 -2.94A16.16 16.16 0 0 0 20.27 10a14.43 14.43 0 0 0 -1.14 -1.95 9.18 9.18 0 0 0 -1.56 -1.65 8.48 8.48 0 0 0 -1.75 -1.11 12.26 12.26 0 0 0 -1.91 -0.72c-0.37 -0.11 -0.77 -0.22 -1.16 -0.3 -0.2 0 -0.4 -0.06 -0.6 -0.08l0 -0.05a1.23 1.23 0 0 0 0 -0.27 1.09 1.09 0 0 0 0 -0.26 3 3 0 0 0 -0.15 -0.32h0.09a12 12 0 0 0 1.45 -0.54 0.33 0.33 0 0 0 0.25 -0.41 0.34 0.34 0 0 0 -0.41 -0.25l-2.06 0.17 -0.42 0c-0.24 0 -0.47 0 -0.71 0.09a4.15 4.15 0 0 0 -0.85 0.18 0.29 0.29 0 0 0 -0.24 0.34 0.3 0.3 0 0 0 0.35 0.25 11.18 11.18 0 0 1 1.5 0.25h0.16c0 0.08 -0.05 0.16 -0.07 0.25a1.24 1.24 0 0 0 0 0.27 0.75 0.75 0 0 0 0 0.26 8.73 8.73 0 0 0 -5.6 2.61 13 13 0 0 0 -3.36 6 16.25 16.25 0 0 0 -0.54 2.64 5.62 5.62 0 0 0 0.06 1.36h-0.37l-0.89 0A0.29 0.29 0 0 0 0 17a0.32 0.32 0 0 0 0 0.17 0.5 0.5 0 0 0 0 0.13 1.12 1.12 0 0 0 0.17 0.77 1.75 1.75 0 0 0 0.85 0.66c0.52 0.19 1.28 0.16 1.9 0.32a1.16 1.16 0 0 1 0.53 0.27l0.61 0.75a1.86 1.86 0 0 0 0.5 0.64 4.77 4.77 0 0 0 0.86 0.6 4.7 4.7 0 0 0 1.81 0.49 37.37 37.37 0 0 0 4 0.06 32.27 32.27 0 0 0 3.63 -0.22 12.12 12.12 0 0 0 2.5 -0.48 7 7 0 0 0 0.72 -0.39c0.32 -0.21 0.62 -0.43 0.94 -0.65a9.32 9.32 0 0 0 0.77 -0.77 0.54 0.54 0 0 1 0.16 -0.1l0.9 -0.15c0.31 0 0.66 0 1 -0.06a3.41 3.41 0 0 0 0.73 -0.2 2.52 2.52 0 0 0 1.27 -1 1.38 1.38 0 0 0 -0.05 -1.23ZM2.2 15.48A15.49 15.49 0 0 1 2.82 13a12.48 12.48 0 0 1 3.35 -5.47 7.77 7.77 0 0 1 5.68 -2.23 4.1 4.1 0 0 1 0.68 0.09c0.36 0.07 0.73 0.17 1.07 0.26a11.15 11.15 0 0 1 1.76 0.62 7.82 7.82 0 0 1 1.57 0.93 7.65 7.65 0 0 1 1.44 1.46 13.44 13.44 0 0 1 1.13 1.78A14.76 14.76 0 0 1 20.64 13a10.55 10.55 0 0 1 0.5 2.75 0.33 0.33 0 0 0 0.32 0.31c-1.16 0.06 -2.3 0 -3.45 0 -0.53 0 -1.06 0 -1.6 0.07s-1.19 0.09 -1.79 0.12c-1.43 0.06 -2.86 0.06 -4.28 0.16 -1.16 0.08 -2.32 0.15 -3.48 0.2s-2.32 0.08 -3.48 0.1l-1.16 0a4.9 4.9 0 0 1 -0.02 -1.23Zm20.61 2a2 2 0 0 1 -0.66 0.38 1.43 1.43 0 0 1 -0.45 0.12 6.44 6.44 0 0 1 -0.86 0.06l-0.6 0.06a6.22 6.22 0 0 0 -0.61 0.14 1.65 1.65 0 0 0 -0.57 0.35 8.57 8.57 0 0 1 -0.66 0.69c-0.3 0.22 -0.59 0.43 -0.89 0.63a5.66 5.66 0 0 1 -0.59 0.34 10.7 10.7 0 0 1 -2.16 0.43 31.26 31.26 0 0 1 -3.5 0.29c-0.8 0 -2.15 0.13 -3.39 0.08a4.93 4.93 0 0 1 -2 -0.38 4.5 4.5 0 0 1 -0.74 -0.49 1.17 1.17 0 0 1 -0.31 -0.36 1.58 1.58 0 0 0 -0.23 -0.35 6 6 0 0 0 -0.59 -0.65 1.81 1.81 0 0 0 -0.89 -0.46c-0.6 -0.14 -1.34 -0.09 -1.84 -0.26a1.11 1.11 0 0 1 -0.45 -0.28 0.56 0.56 0 0 1 -0.14 -0.4l0.54 0 2.15 0h3.5c1.17 0 2.34 -0.05 3.51 -0.1 1.42 -0.05 2.84 0 4.25 0 0.62 0 1.24 0 1.86 -0.08l1 0c1.39 0 2.74 0.13 4.15 0.06l1.16 0c0.05 -0.01 0.07 0.07 0.01 0.14Z" fill="#020202" fill-rule="evenodd" stroke-width="1"></path>
    <path d="M5.26 14.52a0.37 0.37 0 0 0 0.23 0 0.34 0.34 0 0 0 0.24 0 2.07 2.07 0 0 0 0.71 -0.66c0.35 -0.49 0.47 -1.1 1 -1.55a2.58 2.58 0 0 1 0.5 -0.31c0.54 -0.25 1.15 -0.39 1.66 -0.69a3.56 3.56 0 0 0 0.76 -0.58 1.67 1.67 0 0 0 0.38 -0.69 1.53 1.53 0 0 0 -0.35 -1.42 2.27 2.27 0 0 0 -1.81 -0.75 3.79 3.79 0 0 0 -2.21 1.02 6.67 6.67 0 0 0 -1.69 3 3.94 3.94 0 0 0 -0.14 1.64 1.3 1.3 0 0 0 0.72 0.99Zm0.18 -2.41A6.28 6.28 0 0 1 6.74 10a3.05 3.05 0 0 1 1.95 -1 1.08 1.08 0 0 1 0.73 0.25 0.52 0.52 0 0 1 0.24 0.52 0.75 0.75 0 0 1 -0.18 0.31 2.86 2.86 0 0 1 -0.43 0.35c-0.46 0.31 -1 0.48 -1.52 0.75a2.79 2.79 0 0 0 -0.71 0.51 8.19 8.19 0 0 0 -1 1.77 1.57 1.57 0 0 1 -0.43 0.47 0.74 0.74 0 0 1 -0.19 -0.49 3.23 3.23 0 0 1 0.24 -1.33Z" fill="#4C57E6" fill-rule="evenodd" stroke-width="1"></path>
  </g>
</svg>