<svg xmlns="http://www.w3.org/2000/svg" viewBox="0 0 24 24" id="Tools-Hammer-Hold--Streamline-Freehand">
  <desc>
    Tools Hammer Hold Streamline Icon: https://streamlinehq.com
  </desc>
  <g>
    <path d="M18.66 14.63A30.21 30.21 0 0 0 16 11.11a0.34 0.34 0 0 0 -0.53 0.37c0.14 0.19 0.29 0.4 0.44 0.64 0.52 0.79 1.05 1.78 1.65 2.8 0.36 0.62 0.73 1.25 1.11 1.86 1.24 2 2.42 3.81 2.89 4.6a0.33 0.33 0 0 0 0.46 0.14 0.34 0.34 0 0 0 0.14 -0.46 62.55 62.55 0 0 0 -3.5 -6.43Z" fill="#4C57E6" stroke-width="1"></path>
    <path d="M23.94 13.76a0.33 0.33 0 0 0 -0.47 -0.09l-1 0.49c-0.19 0.09 -0.58 0.17 -0.83 0.3a1.21 1.21 0 0 0 -0.32 0.24 1.46 1.46 0 0 0 -0.22 0.33 4.35 4.35 0 0 0 -0.22 0.54 1.12 1.12 0 0 1 -0.14 0.32c-0.25 0.38 -1.17 1.15 -0.23 1.4 0.14 -0.08 0.29 -0.15 0.43 -0.24a6.8 6.8 0 0 0 0.6 -0.46 1.73 1.73 0 0 0 0.33 -0.45 3.27 3.27 0 0 1 0.32 -0.71l0.76 -0.49 0.88 -0.71a0.34 0.34 0 0 0 0.11 -0.47Z" fill="#020202" stroke-width="1"></path>
    <path d="M10.19 9.32c-0.13 -0.21 -0.27 -0.43 -0.43 -0.64 -0.32 -0.42 -0.59 -0.52 -0.92 -0.92 -0.3 0 -0.58 0 -0.36 0.7a6.94 6.94 0 0 0 0.35 0.8c0.13 0.24 0.26 0.46 0.4 0.68a5.19 5.19 0 0 0 0.45 0.64c0.71 0.84 1 -0.52 0.79 -0.78s-0.17 -0.32 -0.28 -0.48Z" fill="#4C57E6" stroke-width="1"></path>
    <path d="M23.61 8.29a0.34 0.34 0 0 0 -0.45 -0.16c-0.63 0.29 -1.84 1.2 -2.9 1.72a2.09 2.09 0 0 1 -1.09 0.31 1.49 1.49 0 0 1 -0.72 -0.39 10.3 10.3 0 0 1 -0.92 -1.15 3.19 3.19 0 0 0 -1 -0.8 2.51 2.51 0 0 0 -1 -0.27 4.5 4.5 0 0 0 -1.36 0.11 4.63 4.63 0 0 0 -1.92 0.83c-2.07 1.66 -2 2.86 -1.67 3.28a3.16 3.16 0 0 0 -1.07 0.5 2.93 2.93 0 0 0 -1.1 2.45 2.08 2.08 0 0 0 1.15 1.63 1.73 1.73 0 0 0 0.79 0.19 2.62 2.62 0 0 0 1 -0.21 6.27 6.27 0 0 0 1.64 -0.94 4.36 4.36 0 0 0 0.62 -0.67h0.05c0.28 -0.07 0.51 -0.16 0.76 -0.2a1.15 1.15 0 0 1 0.41 0 0.56 0.56 0 0 1 0.44 0.53 1.4 1.4 0 0 1 -0.19 0.88A4.62 4.62 0 0 1 14 17.24a7.94 7.94 0 0 1 -1.57 1 2.4 2.4 0 0 1 -1 0.29 1.12 1.12 0 0 1 -0.84 -0.32 0.73 0.73 0 0 1 -0.19 -0.29 1.94 1.94 0 0 1 0 -0.45 0.3 0.3 0 0 0 -0.28 -0.32 0.31 0.31 0 0 0 -0.32 0.28 2.07 2.07 0 0 0 0 0.76 1.24 1.24 0 0 0 0.27 0.5 1.87 1.87 0 0 0 1 0.67 2.56 2.56 0 0 0 1.34 -0.07c-0.08 0.19 -0.16 0.37 -0.17 0.42a1.53 1.53 0 0 0 -0.08 0.52 1.6 1.6 0 0 0 0.09 0.53 1.33 1.33 0 0 0 0.77 0.82 2.42 2.42 0 0 0 1.49 0.07 4.26 4.26 0 0 0 2.79 -2.3 2.54 2.54 0 0 0 0.26 -1.22 1.28 1.28 0 0 0 -0.38 -0.89 1.25 1.25 0 0 0 -0.46 -0.29 1.77 1.77 0 0 0 -0.69 -0.13 0.31 0.31 0 0 0 -0.17 0.05 3.19 3.19 0 0 0 0.26 -0.38 2.33 2.33 0 0 0 0.07 -1.9 1.34 1.34 0 0 0 -1.12 -0.82 1.89 1.89 0 0 0 -0.68 0l-0.24 0.09a1.66 1.66 0 0 0 -0.06 -1.15 1 1 0 0 0 -0.38 -0.42s2.29 -1.36 2 -2a0.29 0.29 0 0 0 -0.4 -0.13 7.28 7.28 0 0 1 -2 1.46 1.64 1.64 0 0 1 -1.32 0 0.56 0.56 0 0 1 -0.34 -0.44 1 1 0 0 1 0.16 -0.65 3.39 3.39 0 0 1 1.16 -1.13 4.8 4.8 0 0 1 1.56 -0.65 3.55 3.55 0 0 1 0.86 -0.1 1.55 1.55 0 0 1 0.72 0.14c0.75 0.36 1.1 1.2 1.72 1.71a2.37 2.37 0 0 0 1.24 0.56 3 3 0 0 0 1.64 -0.48c1 -0.58 2.18 -1.54 2.79 -1.87a0.33 0.33 0 0 0 0.11 -0.42ZM16 17.46a1.38 1.38 0 0 1 0.39 0.11 0.63 0.63 0 0 1 0.24 0.18 0.57 0.57 0 0 1 0.08 0.48 2 2 0 0 1 -0.27 0.62 3.66 3.66 0 0 1 -1 1 3.76 3.76 0 0 1 -1.25 0.66 1.54 1.54 0 0 1 -0.72 0.12 0.58 0.58 0 0 1 -0.46 -0.26 0.8 0.8 0 0 1 -0.09 -0.26 0.94 0.94 0 0 1 0 -0.29 7.4 7.4 0 0 1 0.26 -0.87 7 7 0 0 0 1.5 -0.84 5.55 5.55 0 0 0 1 -1 0.33 0.33 0 0 0 0.32 0.35Zm-3.24 -4.85a0.77 0.77 0 0 1 0.69 0.55 1.2 1.2 0 0 1 -0.22 0.75 3.2 3.2 0 0 1 -0.94 0.81 6.46 6.46 0 0 1 -1.2 0.55 1.66 1.66 0 0 1 -0.51 0.12 0.71 0.71 0 0 1 -0.38 -0.06 1.07 1.07 0 0 1 -0.69 -1.05 2.05 2.05 0 0 1 1.38 -1.95 0.35 0.35 0 0 0 0.18 -0.22l0.06 0a1.58 1.58 0 0 0 0.53 0.35 2.36 2.36 0 0 0 1.05 0.15Z" fill="#020202" stroke-width="1"></path>
    <path d="M16.67 21.77a4.65 4.65 0 0 0 0.32 0.5c0.11 0.15 0.23 0.31 0.36 0.46 0.29 0.35 0.61 0.69 0.92 1.05a0.34 0.34 0 1 0 0.57 -0.36c-0.2 -0.45 -0.38 -0.88 -0.6 -1.29 -0.1 -0.18 -0.2 -0.35 -0.31 -0.52a4.45 4.45 0 0 0 -0.38 -0.48 5.55 5.55 0 0 0 -0.55 -0.54c-0.4 -0.22 -0.74 0.22 -0.64 0.61 0.1 0.18 0.19 0.37 0.31 0.57Z" fill="#4C57E6" stroke-width="1"></path>
    <path d="M14.08 1.88a5.08 5.08 0 0 0 -6.94 -0.81c-0.42 0.31 -1.24 1 -2 1.67A10.56 10.56 0 0 0 4 4a0.13 0.13 0 0 0 0 0.06 4.32 4.32 0 0 0 -0.57 -0.28 1.53 1.53 0 0 0 -0.77 -0.12A3.48 3.48 0 0 0 1 4.54 3.11 3.11 0 0 0 0 6.1a2 2 0 0 0 0.07 0.9 5.1 5.1 0 0 0 0.42 1 9.82 9.82 0 0 0 0.82 1.36 16.19 16.19 0 0 0 1.53 1.77A3.69 3.69 0 0 0 4 12.1a1.29 1.29 0 0 0 0.93 0 5.19 5.19 0 0 0 2 -1.48 2.36 2.36 0 0 0 0.61 -1.73 2.45 2.45 0 0 0 -0.28 -0.75 0.33 0.33 0 0 0 0.47 0 19.48 19.48 0 0 1 1.8 -1.85A6.14 6.14 0 0 1 13 4.72a1.61 1.61 0 0 0 0.64 -0.32 2.05 2.05 0 0 0 0.81 -1.4 1.48 1.48 0 0 0 -0.37 -1.12ZM13.31 3a1 1 0 0 1 -0.33 0.51 1.65 1.65 0 0 1 -0.37 0.2 13.07 13.07 0 0 0 -2.21 0.75A8.39 8.39 0 0 0 9 5.69c-0.63 0.66 -1.23 1.4 -1.73 2a0.3 0.3 0 0 0 0 0.34 8.91 8.91 0 0 0 -0.74 -1l-1 -1.21A0.35 0.35 0 0 0 5 5.8a0.34 0.34 0 0 0 0 0.48l0.9 1.24a9.16 9.16 0 0 1 0.63 0.92 1.6 1.6 0 0 1 0.18 0.56A1.67 1.67 0 0 1 6 10.24a4.13 4.13 0 0 1 -1.4 0.84c-0.14 0 -0.24 -0.05 -0.35 -0.13a8.21 8.21 0 0 1 -0.59 -0.62c-0.42 -0.44 -0.83 -0.9 -1.21 -1.38a9.39 9.39 0 0 1 -1 -1.47 6 6 0 0 1 -0.35 -0.67 1 1 0 0 1 -0.1 -0.56 2.21 2.21 0 0 1 0.6 -1.12 2.77 2.77 0 0 1 1.15 -0.76 1.17 1.17 0 0 1 0.54 0.1 1.77 1.77 0 0 1 0.56 0.3 0.3 0.3 0 0 0 0.42 0 0.27 0.27 0 0 0 0.05 -0.32 0.45 0.45 0 0 0 0.12 -0.06 8.78 8.78 0 0 1 1.19 -1.12 24.58 24.58 0 0 1 2 -1.47 4.32 4.32 0 0 1 3 -0.61 4.11 4.11 0 0 1 2.6 1.43 0.4 0.4 0 0 1 0.08 0.38Z" fill="#020202" stroke-width="1"></path>
    <path d="M11.07 6.38a2 2 0 0 0 0.14 0.25 5.48 5.48 0 0 0 0.34 0.46c0.23 0.27 0.46 0.47 0.61 0.62s0.18 0.19 0.22 0.22a0.49 0.49 0 0 0 0.21 0.14c0.17 0 0.28 0 0.34 -0.11a0.34 0.34 0 0 0 0.07 -0.17 11.05 11.05 0 0 0 -0.55 -1.31 4.94 4.94 0 0 0 -0.3 -0.49 1.92 1.92 0 0 0 -0.15 -0.22 5 5 0 0 0 -0.39 -0.4 0.61 0.61 0 0 0 -0.76 0.44 4.38 4.38 0 0 0 0.22 0.57Z" fill="#4C57E6" stroke-width="1"></path>
  </g>
</svg>