<svg xmlns="http://www.w3.org/2000/svg" viewBox="0 0 24 24" id="Tool-Helmet-Lock--Streamline-Freehand">
  <desc>
    Tool Helmet Lock Streamline Icon: https://streamlinehq.com
  </desc>
  <g>
    <path d="M24 20.47a0.39 0.39 0 0 0 -0.18 -0.2 0.39 0.39 0 0 0 0.1 -0.25c0 -0.64 0.07 -1.28 0.09 -1.93l0 -1.31a5 5 0 0 0 -0.13 -1.07 2.14 2.14 0 0 0 -0.43 -0.8 1.43 1.43 0 0 0 -0.84 -0.44 2.69 2.69 0 0 0 -0.57 0s0 0 0 -0.07a4.26 4.26 0 0 0 -0.41 -1.85 2.65 2.65 0 0 0 -2.71 -1.45 2.77 2.77 0 0 0 -1.59 0.87 3.38 3.38 0 0 0 -0.82 3.03l-0.44 0.09a0.32 0.32 0 0 0 -0.27 0.37 0.33 0.33 0 0 0 0.38 0.27c0.49 0 1 -0.07 1.47 -0.08l3.48 0c0.26 0 0.61 -0.05 0.94 -0.05 0.17 0 0.35 0 0.45 0.08a0.93 0.93 0 0 1 0.24 0.42 4.68 4.68 0 0 1 0.14 0.71c0.06 0.41 0.11 0.81 0.14 1.23 0.05 0.63 0.08 1.27 0.11 1.9a0.38 0.38 0 0 0 0.12 0.27 5.72 5.72 0 0 1 -0.95 0.14l-1.92 0 -2 0 -1.3 0 -0.63 0a3.58 3.58 0 0 1 -0.42 0c-0.08 0 0 -0.19 0 -0.31l0 -0.67 -0.05 -0.96 -0.13 -2.41a0.33 0.33 0 0 0 -0.34 -0.32 0.32 0.32 0 0 0 -0.32 0.33L15 18.4l0 1.18c0 0.43 -0.09 0.78 -0.08 1.05a1.16 1.16 0 0 0 0.32 0.77 1.76 1.76 0 0 0 1.35 0.39l0.66 0 1.28 -0.07 2 -0.2c0.61 -0.05 1.3 -0.09 2 -0.19a5.73 5.73 0 0 0 1.34 -0.35 0.36 0.36 0 0 0 0.13 -0.51Zm-2.89 -6c-0.83 0.07 -1.67 0.12 -2.5 0.22 -0.48 0 -1 0.12 -1.43 0.2a2.61 2.61 0 0 1 1 -2.14 1.84 1.84 0 0 1 0.95 -0.46 1.64 1.64 0 0 1 1 0.15 1.77 1.77 0 0 1 0.78 0.75 3.73 3.73 0 0 1 0.39 1.21s0 0 0 0.05Z" fill="#020202" fill-rule="evenodd" stroke-width="1"></path>
    <path d="M15.12 7.71A2.21 2.21 0 0 0 13 5.5a0.3 0.3 0 0 0 -0.27 0.08l-0.19 0a1.47 1.47 0 0 0 -1 0.22 2 2 0 0 0 -0.94 2.4 2.45 2.45 0 0 0 2.07 1.62 2.07 2.07 0 0 0 2.45 -2.11Zm-3.48 0.06A1.09 1.09 0 0 1 12 6.46a0.63 0.63 0 0 1 0.43 -0.17c0.37 0 0.71 0.2 1.1 0.23a0.14 0.14 0 0 0 0.09 0 1.36 1.36 0 0 1 0.5 1.16 1.06 1.06 0 0 1 -1.36 0.91 1.35 1.35 0 0 1 -1.12 -0.82Z" fill="#4C57E6" stroke-width="1"></path>
    <path d="M12.06 10.66a0.31 0.31 0 1 0 -0.46 -0.41 4 4 0 0 0 -0.8 1 3.25 3.25 0 0 0 -0.3 1.31 17.13 17.13 0 0 0 0.25 1.75 0.91 0.91 0 0 1 -0.07 0.44 1.48 1.48 0 0 1 -0.36 0.43c-0.3 0.26 -0.66 0.47 -1 0.69a8.9 8.9 0 0 1 -1.65 1c-0.6 0.29 -1.22 0.56 -1.86 0.8 -0.23 0.09 -0.53 0.16 -0.79 0.25a2 2 0 0 0 -0.42 0.2c-0.1 0.07 -0.74 0.59 -1 0.77a0.36 0.36 0 0 0 0.09 0.7 0.66 0.66 0 0 0 0.3 -0.1c0.31 -0.16 1 -0.62 1.11 -0.68l1.08 -0.27a16.5 16.5 0 0 0 2.42 -0.85 8.43 8.43 0 0 0 1.52 -0.92c0.31 -0.25 0.7 -0.47 1 -0.76a2.49 2.49 0 0 0 0.62 -0.86 1.94 1.94 0 0 0 0.08 -1c-0.1 -0.55 -0.4 -1.12 -0.43 -1.62a2.56 2.56 0 0 1 0.1 -1 3.69 3.69 0 0 1 0.57 -0.87Z" fill="#4C57E6" stroke-width="1"></path>
    <path d="m13.28 17.64 -0.82 0.2c-0.59 0.28 -1.22 0.57 -1.85 0.84a10 10 0 0 1 -1.21 0.46c-0.46 0.17 -0.93 0.29 -1.39 0.44A8.18 8.18 0 0 0 7 20a11.46 11.46 0 0 0 -1.1 0.59 6.81 6.81 0 0 0 -1 0.78 0.76 0.76 0 0 1 -0.19 0.12l-0.29 0.09c-0.06 0 -0.39 0.05 -0.37 0.14l-0.07 0c-0.1 0.07 -1 1.31 2.43 -0.32a11.13 11.13 0 0 1 1.06 -0.4l2.33 -0.74a11.14 11.14 0 0 0 1.29 -0.65c0.6 -0.35 1.17 -0.76 1.73 -1.12l0.77 -0.31a0.31 0.31 0 0 0 0.12 -0.42 0.31 0.31 0 0 0 -0.43 -0.12Z" fill="#020202" stroke-width="1"></path>
    <path d="m3.52 21.14 0.11 0s-0.04 -0.01 -0.11 0Z" fill="#020202" stroke-width="1"></path>
    <g>
      <path d="M9.38 7.25a3.14 3.14 0 0 0 -0.85 0.08c-0.59 0.12 -1.19 0.35 -1.71 0.46s-0.76 0.16 -1.14 0.26A15.35 15.35 0 0 0 4 8.56a9.57 9.57 0 0 0 -1.59 0.73c-1.11 0.82 -1.15 1.14 -0.2 1 0.33 -0.14 0.66 -0.27 1 -0.38 0.51 -0.15 1 -0.26 1.56 -0.39s0.8 -0.2 1.19 -0.32 0.81 -0.26 1.2 -0.4 1 -0.51 1.61 -0.7a2.2 2.2 0 0 1 0.61 -0.1 0.36 0.36 0 1 0 0 -0.71Z" fill="#4C57E6" stroke-width="1"></path>
      <path d="M16.18 2.85a10.28 10.28 0 0 0 -6.27 -1.67 11.34 11.34 0 0 0 -6.68 3A9.8 9.8 0 0 0 0 10.74a17.69 17.69 0 0 0 0.32 4.33 20.31 20.31 0 0 0 1.28 4.11 6.73 6.73 0 0 0 0.54 1c0.2 0.32 0.42 0.63 0.65 0.93 0.09 0.11 0.35 0.56 0.5 0.62a0.35 0.35 0 0 0 0.43 -0.11 0.32 0.32 0 0 0 0 -0.44l-0.07 0s-0.07 0 -0.11 -0.06c-0.07 -0.12 -0.13 -0.35 -0.16 -0.39a8.6 8.6 0 0 1 -0.58 -0.9 5.41 5.41 0 0 1 -0.45 -0.94 20.12 20.12 0 0 1 -1.08 -4C0.45 9.91 1.88 7.05 4.05 5a10.4 10.4 0 0 1 6 -2.76 9.24 9.24 0 0 1 5.68 1.33 5.75 5.75 0 0 1 2.89 4.83 0.36 0.36 0 0 0 0.71 0 6.54 6.54 0 0 0 -3.15 -5.55Z" fill="#020202" stroke-width="1"></path>
    </g>
  </g>
</svg>