<svg xmlns="http://www.w3.org/2000/svg" viewBox="0 0 24 24" id="Touch-Id-Fingerprint-Desktop--Streamline-Freehand">
  <desc>
    Touch Id Fingerprint Desktop Streamline Icon: https://streamlinehq.com
  </desc>
  <g>
    <path d="M18.72 15.85c-1.38 0.08 -2.76 0.13 -4.14 0.13 -2.06 0 -4.11 -0.11 -6.18 -0.14l-4.95 -0.08h-0.82c-0.27 0 -0.54 0 -0.81 0.08a3.66 3.66 0 0 0 -0.52 0l0 0.83A2.91 2.91 0 0 0 1.72 18c0.05 0.08 0.16 0.1 0.26 0.13a4.46 4.46 0 0 0 0.59 0.09c0.46 0.05 0.93 0.07 1.4 0.09l2.17 0c1.64 0 3.28 0 4.92 -0.08 2.46 -0.09 4.92 -0.23 7.4 -0.36l2.54 0a2.38 2.38 0 0 0 1.28 -0.33 1.06 1.06 0 0 0 0.31 -0.5 4.64 4.64 0 0 0 0.15 -1.2l0 -0.4 -0.83 0.06c-1.05 0.09 -2.11 0.28 -3.19 0.35Z" fill="none" stroke-width="1"></path>
    <path d="M24 8.78c-0.06 -1.33 -0.18 -2.67 -0.3 -4a10 10 0 0 0 -0.22 -1.92A2 2 0 0 0 23 2a1.56 1.56 0 0 0 -0.52 -0.34 6.9 6.9 0 0 0 -1.1 -0.29c-0.53 -0.12 -1.07 -0.2 -1.61 -0.27 -0.8 -0.1 -1.6 -0.15 -2.41 -0.19C15.7 0.81 14.08 0.8 12.45 0.85c-2.74 0.08 -2.67 0.15 -9.52 0.67 -0.7 0.05 -1.2 0.1 -1.27 0.12A2 2 0 0 0 1 2a2.64 2.64 0 0 0 -0.45 0.56A4.22 4.22 0 0 0 0.11 4 15.33 15.33 0 0 0 0 6.13l0 3.32c0.07 1.64 0.19 3.29 0.27 4.93a25.11 25.11 0 0 0 0.06 2.85 3.6 3.6 0 0 0 0.46 1.3 1.2 1.2 0 0 0 0.51 0.46 3.41 3.41 0 0 0 1.09 0.26c0.49 0.06 1 0.1 1.48 0.12 0.73 0 1.47 0 2.19 0.05l3.81 0 -0.15 0.58c-0.05 0.29 -0.12 0.58 -0.15 0.87a12.52 12.52 0 0 0 0 1.37l-0.75 0.07 -0.49 0a0.3 0.3 0 0 0 -0.2 0.37 0.33 0.33 0 0 0 0.29 0.23l0.4 0c0.52 0.05 1.48 0.16 2.57 0.2h1.11c0.37 0 0.74 0 1.1 -0.05 1.08 -0.07 2 -0.19 2.56 -0.24l0.38 0a0.4 0.4 0 0 0 0.36 -0.34c0 -0.43 -0.5 -0.34 -0.76 -0.35l-1 0a9.71 9.71 0 0 0 0 -1.2 5.32 5.32 0 0 0 -0.06 -0.56 4.75 4.75 0 0 0 -0.08 -0.57c-0.07 -0.21 -0.16 -0.4 -0.24 -0.58l3.79 -0.2c0.71 0 2 0.05 3 -0.1a2.91 2.91 0 0 0 1.45 -0.57 2.21 2.21 0 0 0 0.64 -1 5.93 5.93 0 0 0 0.18 -1.48l0.18 -4.39 0 -2.7ZM13.58 22l-1.1 0 -1.09 0c-0.35 0 -0.76 0.06 -1.1 0.09 0.12 -0.38 0.27 -0.75 0.37 -1.14a8.7 8.7 0 0 0 0.15 -0.89l0 -0.75h0.32l2.77 -0.12 0 0.77c0 0.28 0 0.35 0.08 0.53s0.08 0.34 0.13 0.52 0.2 0.64 0.29 1Zm9.16 -6.22a4.64 4.64 0 0 1 -0.15 1.2 1.06 1.06 0 0 1 -0.31 0.5 2.38 2.38 0 0 1 -1.28 0.33c-0.92 0.07 -1.95 0 -2.54 0 -2.48 0.13 -4.94 0.27 -7.4 0.36 -1.64 0.06 -3.28 0.09 -4.92 0.08l-2.17 0c-0.47 0 -0.94 0 -1.4 -0.09a4.46 4.46 0 0 1 -0.57 -0.04c-0.1 0 -0.21 -0.05 -0.26 -0.13a2.91 2.91 0 0 1 -0.39 -1.29l0 -0.83a3.66 3.66 0 0 1 0.52 0c0.27 0 0.54 -0.06 0.81 -0.08h0.82l5 0.08c2.07 0 4.12 0.14 6.18 0.14 1.38 0 2.76 -0.05 4.14 -0.13 1.08 -0.07 2.14 -0.26 3.21 -0.38l0.83 -0.06Zm0.2 -4.37 -0.15 3.26h-0.46c-1.21 0.06 -2.42 0.23 -3.64 0.24l-1.86 0h-0.72S6 14.87 6 14.89L3.45 15a8.47 8.47 0 0 0 -0.88 0.07 6.56 6.56 0 0 0 -0.87 0.14l-0.4 0.09 0 -1C1.17 12.69 1 11 0.91 9.4 0.85 8.31 0.8 7.22 0.8 6.13a15.2 15.2 0 0 1 0 -2 3.44 3.44 0 0 1 0.36 -1.18 1.4 1.4 0 0 1 0.3 -0.39 1.3 1.3 0 0 1 0.44 -0.26c2.44 -0.22 6.77 -0.65 10.57 -0.71 1.6 0 3.2 0 4.79 0.13 0.79 0.05 1.57 0.11 2.35 0.22 0.51 0.07 1 0.16 1.52 0.28a7.21 7.21 0 0 1 0.83 0.21 0.91 0.91 0 0 1 0.35 0.19 1.39 1.39 0 0 1 0.3 0.71 12.6 12.6 0 0 1 0.1 1.53c0.11 1.32 0.2 2.64 0.24 4 0.05 0.83 0.05 1.71 -0.01 2.58Z" fill="#020202" stroke-width="1"></path>
    <path d="M14.53 13.68a3.74 3.74 0 0 0 0.48 -0.93 5 5 0 0 0 0.33 -2.36 6.41 6.41 0 0 0 -0.65 -2.22 3 3 0 0 0 -0.91 -1.12 1.66 1.66 0 0 0 -1 -0.29 3 3 0 0 0 -0.49 0 0.88 0.88 0 0 0 -0.35 0.17 0.34 0.34 0 0 0 0 0.48 0.35 0.35 0 0 0 0.44 0c0 0.1 0.31 0 0.4 0a1 1 0 0 1 0.67 0.31 2.22 2.22 0 0 1 0.47 0.75 5.43 5.43 0 0 1 0.43 1.92 2.81 2.81 0 0 1 -0.26 1.61 5.24 5.24 0 0 1 -0.32 0.62 1.14 1.14 0 0 1 -0.34 0.38 1.06 1.06 0 0 1 -0.81 0.1 1.35 1.35 0 0 1 -0.74 -0.53 1.86 1.86 0 0 1 -0.5 -1.27 1.93 1.93 0 0 1 0.52 -1.48 0.43 0.43 0 0 1 0.39 -0.08 0.58 0.58 0 0 1 0.36 0.31l0.06 0.52 0 0.32a0.32 0.32 0 0 0 0.33 0.33c0.48 0 0.33 -1 0.32 -1.08a1 1 0 0 0 -0.08 -0.37 1.29 1.29 0 0 0 -0.73 -0.72 1.17 1.17 0 0 0 -1.08 0.11 2.73 2.73 0 0 0 -1 2.08 3.83 3.83 0 0 0 0.44 2.26 2.55 2.55 0 0 0 3.62 0.18Z" fill="#4C57E6" stroke-width="1"></path>
    <path d="M9 12.66a9.42 9.42 0 0 1 0.12 -1.51 10.58 10.58 0 0 1 0.27 -1.5 9.31 9.31 0 0 1 0.26 -1.05 2.05 2.05 0 0 1 0.26 -0.6 0.49 0.49 0 0 1 0.09 -0.08 2.6 2.6 0 0 0 0.47 -0.24 0.3 0.3 0 1 0 -0.32 -0.5c-0.16 0.09 -0.35 0.09 -0.52 0.17a0.93 0.93 0 0 0 -0.3 0.2 2.71 2.71 0 0 0 -0.52 0.71 11.05 11.05 0 0 0 -0.47 1.08A7.84 7.84 0 0 0 8 10.73a6.8 6.8 0 0 0 0 1.43c0 0.66 -0.12 1.53 0.4 1.88 0.18 0.12 0.73 0.18 0.84 0S9 13.14 9 12.66Z" fill="#4C57E6" stroke-width="1"></path>
    <path d="M17 13.7c0.06 -0.39 0.18 -0.76 0.25 -1.17a11.62 11.62 0 0 0 0.07 -2.43 13.81 13.81 0 0 0 -0.47 -2.37 10.71 10.71 0 0 0 -0.59 -1.49 7.5 7.5 0 0 0 -0.85 -1.36 0.33 0.33 0 0 0 -0.41 -0.08 0.34 0.34 0 0 0 -0.08 0.48 6.43 6.43 0 0 1 0.62 1.29A9.08 9.08 0 0 1 15.9 8a21.75 21.75 0 0 1 0.32 2.25 15.21 15.21 0 0 1 0.11 2.24 9.84 9.84 0 0 1 -0.07 1.1c-0.14 0.91 0.74 0.51 0.74 0.11Z" fill="#4C57E6" stroke-width="1"></path>
    <path d="M6.9 13.33a3.11 3.11 0 0 0 -0.05 -0.33c-0.28 -1.2 -0.26 -1.06 -0.3 -1.11 -0.14 -0.22 -0.42 -0.22 -0.6 0.27a4 4 0 0 0 -0.2 0.91l0 0.37c0.24 1.21 1.06 0.72 1.15 0.61s0 -0.72 0 -0.72Z" fill="#4C57E6" stroke-width="1"></path>
    <path d="M6 11.09a0.35 0.35 0 0 0 0.34 -0.34c0 -0.09 0.08 -0.78 0.1 -0.86 0.12 -0.53 0.24 -1 0.4 -1.53A5.32 5.32 0 0 1 7.51 7a6.92 6.92 0 0 1 1.26 -1.43 3.87 3.87 0 0 1 1.58 -0.93 8.42 8.42 0 0 1 1.7 -0.28 3.71 3.71 0 0 1 1.11 0.09 0.3 0.3 0 1 0 0.18 -0.57 4.85 4.85 0 0 0 -1.28 -0.26 9.2 9.2 0 0 0 -1.91 0.07 4.13 4.13 0 0 0 -1.75 0.72 6.9 6.9 0 0 0 -1.82 2A5.92 5.92 0 0 0 6 7.77a12.72 12.72 0 0 0 -0.35 2 4.71 4.71 0 0 0 -0.08 1 0.4 0.4 0 0 0 0.43 0.32Z" fill="#4C57E6" fill-rule="evenodd" stroke-width="1"></path>
  </g>
</svg>