<svg xmlns="http://www.w3.org/2000/svg" viewBox="0 0 24 24" id="Touch-Id-Fingerprint-Smartphone-2--Streamline-Freehand">
  <desc>
    Touch Id Fingerprint Smartphone 2 Streamline Icon: https://streamlinehq.com
  </desc>
  <g>
    <path d="M17.69 9a5.75 5.75 0 0 0 -1.54 -1.53A2.91 2.91 0 0 0 14.89 7a1.55 1.55 0 0 0 -1 0.22 2.07 2.07 0 0 0 -0.39 0.25 0.64 0.64 0 0 0 -0.21 0.31A0.34 0.34 0 0 0 14 8c0.08 0.08 0.24 -0.13 0.32 -0.17a0.85 0.85 0 0 1 0.66 0 2.39 2.39 0 0 1 0.71 0.4 5.11 5.11 0 0 1 1.2 1.37 3.65 3.65 0 0 1 0.53 1.65 4.56 4.56 0 0 1 0 0.65 1 1 0 0 1 -0.1 0.43 0.92 0.92 0 0 1 -0.58 0.43 1.21 1.21 0 0 1 -0.81 -0.1 2.47 2.47 0 0 1 -1 -1.09 1.67 1.67 0 0 1 -0.25 -1.4 0.34 0.34 0 0 1 0.25 -0.22 0.56 0.56 0 0 1 0.41 0.08l0.28 0.39s0.1 0.21 0.14 0.27a0.33 0.33 0 0 0 0.45 0.13c0.3 -0.2 -0.21 -1 -0.22 -1.06a1.05 1.05 0 0 0 -0.24 -0.27 1.23 1.23 0 0 0 -0.94 -0.27 1.1 1.1 0 0 0 -0.85 0.59A2.57 2.57 0 0 0 14 12a3.55 3.55 0 0 0 1.4 1.66 2.31 2.31 0 0 0 1.56 0.22 2 2 0 0 0 1.57 -1.75 5.27 5.27 0 0 0 0 -1A4.66 4.66 0 0 0 17.69 9Z" fill="#4C57E6" fill-rule="evenodd" stroke-width="1"></path>
    <path d="M14.38 15.69a0.36 0.36 0 0 0 0.48 -0.11 0.34 0.34 0 0 0 -0.11 -0.47 4.39 4.39 0 0 1 -1.17 -1.42 8.6 8.6 0 0 1 -0.58 -1.27 11.11 11.11 0 0 1 -0.45 -1.34c-0.09 -0.29 -0.21 -0.62 -0.28 -0.95a1.87 1.87 0 0 1 0 -0.57 0.47 0.47 0 0 1 0 -0.14c0.09 -0.15 0.21 -0.27 0.28 -0.42a0.31 0.31 0 0 0 -0.13 -0.41 0.3 0.3 0 0 0 -0.41 0.13c-0.09 0.14 -0.24 0.22 -0.35 0.36a1.28 1.28 0 0 0 -0.15 0.31 2.43 2.43 0 0 0 -0.11 0.82 9.19 9.19 0 0 0 0.1 1.09 6.58 6.58 0 0 0 0.34 1.3 6.41 6.41 0 0 0 0.6 1.2 5.34 5.34 0 0 0 1.94 1.89Z" fill="#4C57E6" fill-rule="evenodd" stroke-width="1"></path>
    <path d="M20.45 8.72a10 10 0 0 0 -0.8 -1.37 9.25 9.25 0 0 0 -1 -1.23C17.53 5 16.26 4.21 15.3 4.33a0.35 0.35 0 0 0 0 0.69 3 3 0 0 1 1.87 1.1A14 14 0 0 1 18.7 8c0.27 0.4 0.53 0.81 0.77 1.22 0.69 1.19 1.2 2.31 1 3a0.3 0.3 0 0 0 0.16 0.4 0.3 0.3 0 0 0 0.39 -0.16c0.37 -0.78 0.13 -2.25 -0.57 -3.74Z" fill="#4C57E6" fill-rule="evenodd" stroke-width="1"></path>
    <path d="M10.19 8.06A3.58 3.58 0 0 1 11 6.62a7.41 7.41 0 0 1 1.25 -1 3.9 3.9 0 0 1 0.93 -0.43 0.3 0.3 0 0 0 0.24 -0.35 0.3 0.3 0 0 0 -0.36 -0.24 4.7 4.7 0 0 0 -1.13 0.4 8 8 0 0 0 -1.54 0.91 3.78 3.78 0 0 0 -1.11 1.35 6.3 6.3 0 0 0 -0.56 2.49 5.61 5.61 0 0 0 0.16 1.32 13 13 0 0 0 0.62 1.78 3.88 3.88 0 0 0 0.39 0.85 0.39 0.39 0 0 0 0.51 0.11c0.4 -0.22 0 -0.68 -0.16 -1.22s-0.27 -0.94 -0.36 -1.42a5.17 5.17 0 0 1 -0.06 -1.37 6.86 6.86 0 0 1 0.37 -1.74Z" fill="#4C57E6" fill-rule="evenodd" stroke-width="1"></path>
    <path d="M11.21 15.83a3.07 3.07 0 0 0 0.38 0.42 4.42 4.42 0 0 0 0.68 0.48 0.34 0.34 0 0 0 0.48 0 0.35 0.35 0 0 0 0 -0.49l-0.58 -1a1.83 1.83 0 0 0 -0.2 -0.26c-0.08 -0.09 -1.36 -1.63 -1.17 -0.25a3.31 3.31 0 0 0 0.23 0.85 1.81 1.81 0 0 0 0.18 0.25Z" fill="#4C57E6" fill-rule="evenodd" stroke-width="1"></path>
    <path d="M17.06 15.9c-1.51 0.17 -0.9 -0.18 -1.32 -0.11a0.3 0.3 0 0 0 -0.25 0.34c0 0.2 0.14 0.33 0.32 0.46a3.58 3.58 0 0 0 1.21 0.32 3.25 3.25 0 0 0 0.82 0 2.41 2.41 0 0 0 1.2 -0.5 2.76 2.76 0 0 0 1 -1.8 0.34 0.34 0 0 0 -0.66 -0.19 2.35 2.35 0 0 1 -0.72 1 2.4 2.4 0 0 1 -0.74 0.34 3.2 3.2 0 0 1 -0.86 0.14Z" fill="#4C57E6" fill-rule="evenodd" stroke-width="1"></path>
    <path d="m19.58 17.45 -0.57 0.47a2.88 2.88 0 0 1 -1.13 0.41 6.36 6.36 0 0 1 -0.75 0.08 5.21 5.21 0 0 1 -1.12 0 1.71 1.71 0 0 1 -0.5 -0.1 8.76 8.76 0 0 1 -0.87 -0.35 3.91 3.91 0 0 1 -0.44 -0.26c-0.36 -0.22 -0.53 0.36 -0.46 0.42s0.4 0.38 0.53 0.47a8.83 8.83 0 0 0 0.83 0.6 3.26 3.26 0 0 0 0.72 0.31 5.13 5.13 0 0 0 1.95 0 3.69 3.69 0 0 0 1.76 -0.93l0.38 -0.49a0.35 0.35 0 0 0 0.14 -0.47 0.35 0.35 0 0 0 -0.47 -0.16Z" fill="#4C57E6" fill-rule="evenodd" stroke-width="1"></path>
    <path d="M22.23 14a0.35 0.35 0 0 0 -0.47 -0.14c-0.15 0.09 0 -0.12 -0.47 1.4a2.91 2.91 0 0 0 -0.1 0.59 2.73 2.73 0 0 1 -0.17 0.67 0.34 0.34 0 0 0 0.58 0.25 3.24 3.24 0 0 0 0.61 -0.72c0 -0.13 0.14 -0.28 0.19 -0.47a2.09 2.09 0 0 0 0.08 -0.61 1.44 1.44 0 0 0 -0.25 -0.97Z" fill="#4C57E6" fill-rule="evenodd" stroke-width="1"></path>
    <path d="M15.64 21.23a0.35 0.35 0 0 0 -0.43 0.23A2.91 2.91 0 0 1 15 22a1.6 1.6 0 0 1 -0.3 0.42 1.27 1.27 0 0 1 -0.56 0.3 6.62 6.62 0 0 1 -1.13 0.18c-0.73 0.07 -1.45 0.12 -2.16 0.16s-1.43 0 -2.16 0a25 25 0 0 1 -2.84 0 3.09 3.09 0 0 1 -1.56 -0.53 3 3 0 0 1 -0.91 -1.23A6.54 6.54 0 0 1 3 19.84a18.49 18.49 0 0 0 3.1 0.5 11.63 11.63 0 0 0 1.77 0c0.87 -0.06 1.73 -0.22 2.61 -0.34a0.35 0.35 0 1 0 0 -0.69c-1.15 0 -2.3 -0.05 -3.45 -0.08H5.89l-1.13 0c-0.38 0 -1.29 0 -1.8 -0.06l0 -0.46a36.9 36.9 0 0 1 -0.23 -4.94c0 -2.51 0.2 -5 0.31 -7.51a28.37 28.37 0 0 1 0.07 -3.14 3.25 3.25 0 0 1 0.6 -1.72 0.79 0.79 0 0 1 0.29 -0.21A2.6 2.6 0 0 1 4.56 1a8.09 8.09 0 0 1 1.3 -0.11l2 0 2.36 0c0.78 0 1.55 0.1 2.34 0.19a6 6 0 0 1 1.44 0.25 1.42 1.42 0 0 1 0.67 0.49 0.31 0.31 0 0 0 0.43 0.07 0.3 0.3 0 0 0 0.06 -0.42 2 2 0 0 0 -0.93 -0.73 6.63 6.63 0 0 0 -1.54 -0.32C11.88 0.3 11.09 0.21 10.3 0.15S8.72 0.06 7.9 0L5.83 0a9.87 9.87 0 0 0 -1.44 0.12 3.67 3.67 0 0 0 -0.86 0.23 1.62 1.62 0 0 0 -0.62 0.42 3.84 3.84 0 0 0 -0.77 1.64 21.36 21.36 0 0 0 -0.27 3.8c-0.12 2.49 -0.33 5 -0.34 7.55a34.52 34.52 0 0 0 0.29 5.09 11.68 11.68 0 0 0 0.59 2.8 3.91 3.91 0 0 0 1.27 1.63 4 4 0 0 0 2.06 0.72 25.81 25.81 0 0 0 2.94 0c0.75 0 1.48 -0.05 2.21 -0.1s1.45 -0.13 2.19 -0.22a6.64 6.64 0 0 0 1.28 -0.23 2 2 0 0 0 0.84 -0.5 2.73 2.73 0 0 0 0.35 -0.47 3.67 3.67 0 0 0 0.31 -0.76 0.34 0.34 0 0 0 -0.22 -0.49Z" fill="#020202" fill-rule="evenodd" stroke-width="1"></path>
    <path d="M10.12 3.48c0.45 0 0.87 -0.15 1.31 -0.24a0.35 0.35 0 0 0 0.33 -0.36 0.35 0.35 0 0 0 -0.37 -0.33c-0.43 0 -0.84 -0.11 -1.27 -0.16l-0.54 0a4.87 4.87 0 0 0 -0.54 0c-0.44 0 -0.85 0.1 -1.28 0.12a0.31 0.31 0 0 0 -0.35 0.25 0.3 0.3 0 0 0 0.26 0.34A7.74 7.74 0 0 0 9 3.46a3.66 3.66 0 0 0 0.57 0 5.49 5.49 0 0 0 0.55 0.02Z" fill="#020202" fill-rule="evenodd" stroke-width="1"></path>
  </g>
</svg>