<svg xmlns="http://www.w3.org/2000/svg" viewBox="0 0 24 24" id="Toy-Hand-Puppet--Streamline-Freehand">
  <desc>
    Toy Hand Puppet Streamline Icon: https://streamlinehq.com
  </desc>
  <title>toy-hand-puppet</title>
  <g>
    <path d="M6.79 2.68a1.1 1.1 0 0 0 -0.23 0.49 0.49 0.49 0 0 0 0.09 0.44c0.87 0.83 1.51 0.46 1.75 -0.11 0.6 -1.33 -0.85 -1.76 -1.61 -0.82Z" fill="#4C57E6" fill-rule="evenodd" stroke-width="1"></path>
    <path d="M22.53 12.82a2.51 2.51 0 0 0 -1.21 -0.12l0.16 -0.2a3.58 3.58 0 0 0 0.78 -2.2 1.78 1.78 0 0 0 -1 -1.52 1.16 1.16 0 0 0 -1.26 0.1l-0.14 0.12a2.53 2.53 0 0 0 0 -0.38 1.94 1.94 0 0 0 -1.21 -1.46 1.38 1.38 0 0 0 -1.44 0.25 2.76 2.76 0 0 0 -0.29 0.3 2.81 2.81 0 0 0 -0.78 -1.34 1.21 1.21 0 0 0 -1.52 0 1.17 1.17 0 0 0 -0.45 0.58 6.56 6.56 0 0 0 -0.21 1l-0.33 2.57 0 0.27a3.36 3.36 0 0 0 -1.49 -1 1 1 0 0 0 -1.05 0.37 1.28 1.28 0 0 0 -0.18 1.22 7.6 7.6 0 0 0 1 1.78l0.31 0.49c0 0.05 0.16 0.17 0.24 0.28 -0.19 0 -0.33 0.57 -0.38 0.67l-0.76 1.55c-0.61 1.24 -1.27 2.48 -1.82 3.76a17.53 17.53 0 0 0 -0.92 2.67 0.31 0.31 0 0 0 0.23 0.38 0.32 0.32 0 0 0 0.38 -0.23 15.17 15.17 0 0 1 0.94 -2.54c0.57 -1.26 1.26 -2.47 1.89 -3.69l0.79 -1.5c0.06 -0.1 0.31 -0.42 0.43 -0.65a0.83 0.83 0 0 0 0.1 -0.39 0.79 0.79 0 0 0 -0.09 -0.3c-0.07 -0.14 -0.22 -0.36 -0.27 -0.44l-0.31 -0.53a9.67 9.67 0 0 1 -0.82 -1.35c-0.08 -0.22 -0.17 -0.42 -0.05 -0.56s0.23 0 0.36 0.08a3.17 3.17 0 0 1 0.7 0.63l0.44 0.51a1.06 1.06 0 0 0 0.17 0.26 0.52 0.52 0 0 0 0.35 0.17 0.51 0.51 0 0 0 0.51 -0.26 2.46 2.46 0 0 0 0.22 -0.52 6.59 6.59 0 0 0 0.14 -1L15 8.11c0.05 -0.22 0 -1 0.21 -0.86 0.18 -0.09 0.27 0.11 0.36 0.28a3.33 3.33 0 0 1 0.31 1.19l0 0.91v0.29a1.68 1.68 0 0 0 0 0.2 0.57 0.57 0 0 0 0.27 0.49 0.54 0.54 0 0 0 0.6 0 0.55 0.55 0 0 0 0.29 -0.32c0.16 -0.44 0.3 -1 0.51 -1.42a1.88 1.88 0 0 1 0.45 -0.59c0.1 -0.09 0.23 0 0.34 0a0.66 0.66 0 0 1 0.34 0.45 2 2 0 0 1 0 0.65c-0.12 0.66 -0.42 1.27 -0.51 1.94a0.54 0.54 0 0 0 0.17 0.52 0.56 0.56 0 0 0 0.47 0.17 0.58 0.58 0 0 0 0.39 -0.19l0.19 -0.29 0.39 -0.56c0.12 -0.17 0.3 -0.48 0.53 -0.77a1.88 1.88 0 0 1 0.31 -0.32c0.05 -0.05 0.09 -0.14 0.16 -0.1a0.76 0.76 0 0 1 0.42 0.81 2.86 2.86 0 0 1 -0.54 1.25l-0.68 0.87 -0.28 0.29a2.88 2.88 0 0 0 -0.27 0.39 0.53 0.53 0 0 0 0.57 0.61 1.17 1.17 0 0 0 0.32 0 4.71 4.71 0 0 0 0.48 -0.13 3.67 3.67 0 0 1 1.2 -0.16c0.1 0 0.2 0 0.24 0.08a0.46 0.46 0 0 1 0 0.32c0 0.12 -0.19 0.2 -0.33 0.29a6.75 6.75 0 0 1 -0.69 0.33c-0.79 0.36 -1.67 0.51 -2.46 0.84a4.65 4.65 0 0 0 -1.08 0.62 7.79 7.79 0 0 0 -1.74 2c-1 1.64 -1.64 3.62 -2.62 5.26a0.36 0.36 0 0 0 0.12 0.49 0.35 0.35 0 0 0 0.48 -0.12c1 -1.62 1.66 -3.58 2.72 -5.19a6.8 6.8 0 0 1 1.58 -1.76 3.37 3.37 0 0 1 0.87 -0.48c0.82 -0.32 1.71 -0.46 2.51 -0.8a5.09 5.09 0 0 0 1.08 -0.59 1.28 1.28 0 0 0 0.46 -0.62c0.28 -0.9 -0.08 -1.38 -0.61 -1.56Z" fill="#020202" fill-rule="evenodd" stroke-width="1"></path>
    <path d="M8 18.61a26.76 26.76 0 0 0 -2.79 -0.22 4.62 4.62 0 0 0 -1.83 0.41l0 -1.43c0 -1 0 -2 0.08 -2.93 0 -0.79 0.17 -1.59 0.22 -2.38A9.93 9.93 0 0 0 3.6 11l0 -0.56a1.25 1.25 0 0 0 -0.1 -0.37 0.83 0.83 0 0 0 -0.27 -0.32c-0.13 -0.09 -0.36 -0.21 -0.45 -0.27a3.13 3.13 0 0 1 -0.5 -0.48A1 1 0 0 1 2 8.61l0 -0.16c0.18 0 0.41 0 0.47 -0.08l2 -0.89a7.68 7.68 0 0 0 0.79 -0.28 1.3 1.3 0 0 0 0.35 -0.28 0.59 0.59 0 0 0 0.1 -0.54 0.57 0.57 0 0 0 -0.24 -0.33 5.79 5.79 0 0 0 -0.93 -0.37l-2.33 -1L2 4.57c0.17 -0.16 0.39 -0.33 0.43 -0.38A5.89 5.89 0 0 1 3.8 3.08a9.78 9.78 0 0 1 1.43 -0.62 0.27 0.27 0 0 0 0.15 0.13 0.29 0.29 0 0 0 0.39 -0.19A2.41 2.41 0 0 1 7.49 1a1.78 1.78 0 0 1 1.83 0.65 1 1 0 0 1 0.2 0.4 1.39 1.39 0 0 1 0 0.5c0 0.08 -0.1 0.35 -0.12 0.48a0.63 0.63 0 0 0 0 0.36 2.37 2.37 0 0 0 0.41 0.67c0.29 0.35 0.69 0.66 0.92 1a5.62 5.62 0 0 1 0.74 1.63 9 9 0 0 1 0.33 1.83 0.34 0.34 0 0 0 0.36 0.34 0.35 0.35 0 0 0 0.34 -0.36 9.29 9.29 0 0 0 -0.17 -2 6.79 6.79 0 0 0 -0.7 -2 14.8 14.8 0 0 0 -0.9 -1.18l-0.12 -0.16a1.41 1.41 0 0 0 0.07 -0.51 2.59 2.59 0 0 0 -0.07 -0.92 2.12 2.12 0 0 0 -0.46 -0.86 2.78 2.78 0 0 0 -3 -0.76 3.16 3.16 0 0 0 -1.77 1.65 11 11 0 0 0 -1.86 0.68 6.21 6.21 0 0 0 -1.73 1.17 5.52 5.52 0 0 0 -0.75 0.8 0.78 0.78 0 0 0 -0.13 0.59 0.49 0.49 0 0 0 0.27 0.34 5.32 5.32 0 0 0 0.7 0.28l1.89 0.91L2 7.26c-0.11 0 -0.49 0.15 -0.72 0.26a0.87 0.87 0 0 0 -0.38 0.29 0.82 0.82 0 0 0 -0.15 0.44A2.73 2.73 0 0 0 0.89 9a2.26 2.26 0 0 0 0.38 0.72 3.87 3.87 0 0 0 0.79 0.72c0.07 0 0.26 0.27 0.38 0.29l0 0.36a7.64 7.64 0 0 1 0 1c0 0.8 -0.1 1.61 -0.11 2.4 0 1 0 2 0.06 3 0 0.65 0.09 1.31 0.15 2a1.39 1.39 0 0 0 -0.27 0.7 2 2 0 0 0 0.9 1.66 4.18 4.18 0 0 0 1.66 0.63 10.49 10.49 0 0 0 2.44 0 0.32 0.32 0 0 0 0 -0.63 9 9 0 0 1 -2.22 -0.31 3 3 0 0 1 -1.18 -0.61 1 1 0 0 1 -0.39 -0.58c0 -0.13 0.05 -0.24 0.21 -0.33a3.5 3.5 0 0 1 1.49 -0.49c0.91 -0.11 1.88 -0.06 2.71 -0.08a0.36 0.36 0 1 0 0 -0.71Z" fill="#020202" fill-rule="evenodd" stroke-width="1"></path>
  </g>
</svg>