<svg xmlns="http://www.w3.org/2000/svg" viewBox="0 0 24 24" id="Toys-Yoyo--Streamline-Freehand">
  <desc>
    Toys Yoyo Streamline Icon: https://streamlinehq.com
  </desc>
  <title>toys-yoyo</title>
  <g>
    <path d="M8 19.14a1.87 1.87 0 0 0 2 0.16 3.09 3.09 0 0 0 1.33 -1.39 4 4 0 0 0 0.38 -1.78 2.07 2.07 0 0 0 -0.52 -1.39s-1.68 -1.66 -3.37 0.68a3.52 3.52 0 0 0 -0.69 2A2.22 2.22 0 0 0 8 19.14Zm0.55 -3.27a1.14 1.14 0 0 1 0.94 -0.76 2.57 2.57 0 0 1 0.4 -0.07 0.71 0.71 0 0 1 0.65 0.28 1.18 1.18 0 0 1 0.2 0.79 3.17 3.17 0 0 1 -0.39 1.28 2 2 0 0 1 -0.86 0.85 0.74 0.74 0 0 1 -0.8 0 1.14 1.14 0 0 1 -0.49 -0.83 2.51 2.51 0 0 1 0.33 -1.54Z" fill="#4C57E6" fill-rule="evenodd" stroke-width="1"></path>
    <path d="M22.31 5.47a3 3 0 0 0 -0.45 0l-0.35 0.1a0.24 0.24 0 0 0 -0.07 -0.13 0.31 0.31 0 0 0 -0.44 0 5.06 5.06 0 0 0 -1.08 1 2.78 2.78 0 0 0 -0.44 1 1.56 1.56 0 0 0 0.25 1.21 6.4 6.4 0 0 1 -0.49 0.42 6.18 6.18 0 0 1 -0.53 0.36l-0.39 0.21a1.64 1.64 0 0 1 -0.39 0.14c-0.65 0.17 -1 -0.11 -1.08 -0.57A7.57 7.57 0 0 1 17 6.35l0.2 -1.47 0 -0.83a6.13 6.13 0 0 0 -0.09 -0.85 2.28 2.28 0 0 0 -1.78 -2 3.3 3.3 0 0 0 -2.5 0.71 9.33 9.33 0 0 0 -0.77 0.64q-0.36 0.35 -0.69 0.72c-0.29 0.34 -0.57 0.7 -0.83 1.07s-0.51 0.74 -0.74 1.12a14.86 14.86 0 0 0 -1.06 2 13 13 0 0 0 -0.62 1.75 3.09 3.09 0 0 0 -1.4 -0.46 5 5 0 0 0 -2.81 0.85 8.62 8.62 0 0 0 -2.94 3 7.39 7.39 0 0 0 -1 4.1 4.66 4.66 0 0 0 1.54 3.21 3.11 3.11 0 0 0 3.25 0.46 4.46 4.46 0 0 0 3.65 2.55 5.26 5.26 0 0 0 4.32 -1.7 8.9 8.9 0 0 0 2 -3.48 6.79 6.79 0 0 0 -0.05 -4 4.14 4.14 0 0 0 -3.82 -3 7.12 7.12 0 0 0 -6.36 5.17 6.57 6.57 0 0 0 0.06 3.88 2.37 2.37 0 0 1 -2.45 -0.51 3.6 3.6 0 0 1 -1 -2.61A6.54 6.54 0 0 1 2 13.13a8 8 0 0 1 2.46 -2.69 4.07 4.07 0 0 1 2.23 -0.85 2.53 2.53 0 0 1 2 1.08 0.35 0.35 0 0 0 0.5 0.07 0.36 0.36 0 0 0 0.06 -0.5 4.08 4.08 0 0 0 -0.57 -0.65 12.47 12.47 0 0 1 0.76 -1.84 14.58 14.58 0 0 1 1.12 -1.84q0.38 -0.53 0.78 -1a12.54 12.54 0 0 1 0.83 -0.95c0.21 -0.21 0.43 -0.41 0.65 -0.6s0.46 -0.37 0.71 -0.54a2.11 2.11 0 0 1 1.58 -0.47c0.43 0.09 0.74 0.44 0.86 1.09a5.4 5.4 0 0 1 0.08 0.69l0 0.72L16 6.19c-0.12 0.87 -0.4 3 0.28 3.94a1.54 1.54 0 0 0 1.9 0.5 3 3 0 0 0 0.52 -0.22 4.25 4.25 0 0 0 0.46 -0.27 6.17 6.17 0 0 0 0.57 -0.44 6.15 6.15 0 0 0 0.53 -0.49 1.64 1.64 0 0 0 0.22 0.14 2.36 2.36 0 0 0 2 0 2.74 2.74 0 0 0 1 -0.8 2.62 2.62 0 0 0 0.52 -1.8c-0.09 -0.69 -0.52 -1.31 -1.69 -1.28ZM5.28 16a6.3 6.3 0 0 1 5.55 -4.5 3.21 3.21 0 0 1 2.88 2.5 5.76 5.76 0 0 1 -0.08 3.39 8.07 8.07 0 0 1 -1.73 3 4.22 4.22 0 0 1 -3.35 1.35 3.46 3.46 0 0 1 -2.94 -2A5.57 5.57 0 0 1 5.28 16Zm17.36 -8.4a1.87 1.87 0 0 1 -0.73 0.62 1.28 1.28 0 0 1 -1 0 0.65 0.65 0 0 1 -0.48 -0.65 1.83 1.83 0 0 1 0.28 -0.88 3.9 3.9 0 0 1 0.51 -0.63 0.37 0.37 0 0 0 0.41 0.21l0.37 -0.02a1.67 1.67 0 0 1 0.3 0c0.5 0 0.73 0.25 0.73 0.54a1.53 1.53 0 0 1 -0.39 0.84Z" fill="#020202" fill-rule="evenodd" stroke-width="1"></path>
  </g>
</svg>