<svg xmlns="http://www.w3.org/2000/svg" viewBox="0 0 24 24" id="Toys-Nintendo-Switch--Streamline-Freehand">
  <desc>
    Toys Nintendo Switch Streamline Icon: https://streamlinehq.com
  </desc>
  <title>toys-nintendo-switch</title>
  <g>
    <path d="M11.26 1.48a1.67 1.67 0 0 0 -0.56 -0.59 1.74 1.74 0 0 0 -0.78 -0.2c-0.71 -0.06 -1.87 0 -2.15 0a8.51 8.51 0 0 0 -1 0 7.75 7.75 0 0 0 -1 0.19 6.2 6.2 0 0 0 -4.49 3.81C0.2 7.21 0.24 10.51 0.1 13.14a23.24 23.24 0 0 0 0 4.78A6.27 6.27 0 0 0 1.42 21a5.67 5.67 0 0 0 3.11 1.83 18.3 18.3 0 0 0 5.19 0.24 0.37 0.37 0 0 0 0.3 -0.19 1.8 1.8 0 0 0 0.81 -0.95 9.43 9.43 0 0 0 0.25 -3l0.05 -1.19 0.47 -12.44c0 -0.55 0.06 -1.11 0.06 -1.67a6.92 6.92 0 0 0 -0.08 -1.2 3.33 3.33 0 0 0 -0.32 -0.95Zm-0.75 3.81 -0.14 12.39v1.19a12.82 12.82 0 0 1 0 2.46 1.33 1.33 0 0 1 -0.67 1A16.88 16.88 0 0 1 4.73 22a4.83 4.83 0 0 1 -2.62 -1.59 5.47 5.47 0 0 1 -1 -2.67 22.48 22.48 0 0 1 0.06 -4.58c0.17 -2.5 0.17 -5.65 1.22 -8A5.12 5.12 0 0 1 6 2a6.15 6.15 0 0 1 0.84 -0.16 5.88 5.88 0 0 1 0.85 0l2.36 0a0.57 0.57 0 0 1 0.21 0.27 1.84 1.84 0 0 1 0.15 0.49 4.87 4.87 0 0 1 0.09 1c0.04 0.59 0.01 1.15 0.01 1.69Z" fill="#020202" fill-rule="evenodd" stroke-width="1"></path>
    <path d="M23.83 6a6.32 6.32 0 0 0 -1.29 -3.1 5.72 5.72 0 0 0 -3.07 -1.82 17.16 17.16 0 0 0 -5.13 -0.23A0.39 0.39 0 0 0 14 1a1.78 1.78 0 0 0 -0.81 1A9.4 9.4 0 0 0 13 5l0 1.19 -0.37 12.4c0 0.55 -0.06 1.11 0 1.67a6.78 6.78 0 0 0 0.09 1.2 3 3 0 0 0 0.33 0.95 1.67 1.67 0 0 0 0.56 0.59 1.9 1.9 0 0 0 0.76 0.23c0.47 0.06 1.07 0.07 1.33 0.08a12.72 12.72 0 0 0 1.38 0 9 9 0 0 0 1.36 -0.23 6.23 6.23 0 0 0 4.45 -3.87c1.05 -2.53 1 -5.83 1.11 -8.46A23.44 23.44 0 0 0 23.83 6Zm-1 4.73c-0.15 2.51 -0.13 5.65 -1.15 8a5.13 5.13 0 0 1 -3.64 3.18 7.16 7.16 0 0 1 -1.2 0.2 8.25 8.25 0 0 1 -1.22 0l-0.89 0a1.8 1.8 0 0 1 -0.62 -0.09 0.62 0.62 0 0 1 -0.22 -0.26 2.24 2.24 0 0 1 -0.16 -0.5 6.64 6.64 0 0 1 -0.09 -1l0 -1.65 0 -12.39V5.05a13.57 13.57 0 0 1 0 -2.46 1.31 1.31 0 0 1 0.66 -1 16 16 0 0 1 4.85 0.31 4.79 4.79 0 0 1 2.6 1.59 5.41 5.41 0 0 1 1 2.65 21.86 21.86 0 0 1 0.12 4.55Z" fill="#020202" fill-rule="evenodd" stroke-width="1"></path>
    <path d="M7.19 14.26a2.55 2.55 0 0 0 -1 -0.33A0.3 0.3 0 0 0 6 14h-0.06A2.08 2.08 0 0 0 4 15.08a2.49 2.49 0 0 0 0 2.36 1.9 1.9 0 0 0 0.65 0.7 3 3 0 0 0 1.23 0.43 2.82 2.82 0 0 0 0.82 0 2.29 2.29 0 0 0 0.81 -0.32A2 2 0 0 0 8.27 17 2.78 2.78 0 0 0 8 15a2.08 2.08 0 0 0 -0.81 -0.74Zm0.1 2.25a1 1 0 0 1 -0.46 0.73 1.2 1.2 0 0 1 -0.39 0.13 2.48 2.48 0 0 1 -0.47 0 2.06 2.06 0 0 1 -0.63 -0.18 1 1 0 0 1 -0.42 -0.33 1.52 1.52 0 0 1 -0.14 -1.41 1.35 1.35 0 0 1 1.16 -0.9H6a0.26 0.26 0 0 0 0.13 0.06 1.94 1.94 0 0 1 0.67 0.3 1.37 1.37 0 0 1 0.41 0.53 1.89 1.89 0 0 1 0.08 1.07Z" fill="#020202" fill-rule="evenodd" stroke-width="1"></path>
    <path d="M15.82 8.68a2.7 2.7 0 0 0 0.39 0.27 2.6 2.6 0 0 0 0.68 0.3 3.45 3.45 0 0 0 0.7 0.13 2.38 2.38 0 0 0 2.63 -2.33 2.51 2.51 0 0 0 -1.93 -2.75 0.25 0.25 0 0 0 -0.17 0 0.3 0.3 0 0 0 -0.16 0 3 3 0 0 0 -2.44 1.18 2.35 2.35 0 0 0 0 2.88 2.44 2.44 0 0 0 0.3 0.32Zm0.45 -2.74a2.17 2.17 0 0 1 1.67 -1.06 0.42 0.42 0 0 0 0.18 0.11 1.68 1.68 0 0 1 1.11 2A1.34 1.34 0 0 1 17.7 8.2a2.83 2.83 0 0 1 -0.47 -0.1 1.54 1.54 0 0 1 -0.42 -0.17l-0.42 -0.33a1.35 1.35 0 0 1 -0.12 -1.66Z" fill="#020202" fill-rule="evenodd" stroke-width="1"></path>
    <path d="M17.51 15.28a0.81 0.81 0 0 0 0.32 0 0.64 0.64 0 0 0 0.28 -0.16c0.21 -0.25 0.35 -0.53 0.22 -0.77s-0.21 -0.48 -0.48 -0.49 -0.23 -0.05 -0.36 0a0.36 0.36 0 0 0 -0.27 0.19 1.67 1.67 0 0 0 -0.32 0.42c-0.07 0.1 0 0.19 0 0.29 -0.05 0.25 0.19 0.35 0.4 0.5a0.52 0.52 0 0 0 0.21 0.02Z" fill="#4C57E6" fill-rule="evenodd" stroke-width="1"></path>
    <path d="M6 5.72a0.71 0.71 0 0 0 0.23 0 1 1 0 0 0 0.31 0 0.69 0.69 0 0 0 0.28 -0.16C7 5.31 7.17 5 7 4.79s-0.2 -0.48 -0.48 -0.49c-0.11 0 -0.22 -0.06 -0.36 0a0.35 0.35 0 0 0 -0.26 0.19 1.67 1.67 0 0 0 -0.32 0.42c-0.07 0.09 0 0.19 0 0.29 -0.03 0.27 0.2 0.36 0.42 0.52Z" fill="#4C57E6" fill-rule="evenodd" stroke-width="1"></path>
    <path d="M15.91 15.93c-0.12 0 -0.24 -0.06 -0.38 0a0.34 0.34 0 0 0 -0.24 0.18l-0.24 0.18c-0.1 0.08 -0.08 0.19 -0.14 0.29 -0.12 0.26 0.08 0.49 0.28 0.7a0.73 0.73 0 0 0 0.81 0.05 0.7 0.7 0 0 0 0.26 -0.22 0.78 0.78 0 0 0 0.12 -0.71c-0.12 -0.21 -0.2 -0.46 -0.47 -0.47Z" fill="#4C57E6" fill-rule="evenodd" stroke-width="1"></path>
    <path d="M4.72 7.84A0.67 0.67 0 0 0 5 7.62a0.76 0.76 0 0 0 0.13 -0.71c-0.12 -0.24 -0.21 -0.48 -0.47 -0.49a0.56 0.56 0 0 0 -0.38 0 0.34 0.34 0 0 0 -0.28 0.2 3 3 0 0 0 -0.24 0.18c-0.09 0.08 -0.08 0.19 -0.13 0.29 -0.12 0.26 0.08 0.49 0.28 0.69a0.72 0.72 0 0 0 0.81 0.06Z" fill="#4C57E6" fill-rule="evenodd" stroke-width="1"></path>
    <path d="M18.11 18.3c-0.09 0 -0.17 -0.08 -0.27 0a0.32 0.32 0 0 0 -0.33 0.16c-0.07 0 -0.12 0.08 -0.18 0.1 -0.27 0.11 -0.23 0.36 -0.3 0.58s0 0.15 0.06 0.23c0.06 0.31 0.42 0.45 1 0.34a0.66 0.66 0 0 0 0.27 -0.19c0.12 -0.2 0.25 -0.4 0.18 -0.61s-0.16 -0.58 -0.43 -0.61Z" fill="#4C57E6" fill-rule="evenodd" stroke-width="1"></path>
    <path d="M6.82 8.78c-0.08 0 -0.16 -0.07 -0.27 0a0.37 0.37 0 0 0 -0.33 0.17c-0.06 0 -0.11 0.07 -0.18 0.1 -0.26 0.11 -0.23 0.36 -0.29 0.58s0 0.15 0.06 0.23c0.06 0.31 0.41 0.45 1 0.34A0.73 0.73 0 0 0 7 10c0.12 -0.2 0.25 -0.4 0.18 -0.61s-0.08 -0.57 -0.36 -0.61Z" fill="#4C57E6" fill-rule="evenodd" stroke-width="1"></path>
    <path d="M20.24 16c-0.1 0 -0.19 -0.09 -0.32 0a0.33 0.33 0 0 0 -0.15 0 1.22 1.22 0 0 0 -0.34 0.11c-0.13 0 -0.15 0.16 -0.26 0.26 -0.2 0.25 0 0.53 0.12 0.77a0.7 0.7 0 0 0 0.75 0.22c0.13 -0.05 0.29 -0.09 0.36 -0.23s0.26 -0.45 0.17 -0.66 -0.11 -0.47 -0.33 -0.47Z" fill="#4C57E6" fill-rule="evenodd" stroke-width="1"></path>
    <path d="M9 6.44c-0.09 0 -0.19 -0.09 -0.32 0a0.23 0.23 0 0 0 -0.14 0 1.33 1.33 0 0 0 -0.34 0.1c-0.13 0 -0.15 0.17 -0.26 0.27s0 0.52 0.11 0.77a0.75 0.75 0 0 0 1.12 0c0.12 -0.22 0.25 -0.45 0.17 -0.66s-0.16 -0.45 -0.34 -0.48Z" fill="#4C57E6" fill-rule="evenodd" stroke-width="1"></path>
  </g>
</svg>