<svg xmlns="http://www.w3.org/2000/svg" viewBox="0 0 24 24" id="Transfusion-Bag--Streamline-Freehand">
  <desc>
    Transfusion Bag Streamline Icon: https://streamlinehq.com
  </desc>
  <g>
    <path d="M22.52 12.66a0.34 0.34 0 0 0 -0.41 -0.25 3.24 3.24 0 0 0 -2.39 2.41c-0.37 1.6 -0.1 3.26 -0.36 4.84a4.38 4.38 0 0 1 -0.63 1.72 3.24 3.24 0 0 1 -2.24 1.53 3.55 3.55 0 0 1 -2.72 -0.69 4.22 4.22 0 0 1 -1 -1.21 8.2 8.2 0 0 1 -0.45 -1 2.85 2.85 0 0 0 0.92 -0.32 0.64 0.64 0 0 0 0.29 -0.56 6 6 0 0 0 -0.22 -0.85c-0.17 -0.53 -0.41 -1.12 -0.57 -1.53a7.41 7.41 0 0 0 0.7 -0.31 6.32 6.32 0 0 0 0.85 -0.53 4.48 4.48 0 0 0 0.45 -0.41c0.2 -0.21 0.37 -0.43 0.55 -0.66a6 6 0 0 0 1.31 -3.52 16.81 16.81 0 0 0 -1 -5.37 21 21 0 0 0 -0.86 -2.68 3.62 3.62 0 0 0 -1.34 -1.64 2.56 2.56 0 0 0 -0.83 -0.29 5.17 5.17 0 0 0 -1.17 -0.05 10.13 10.13 0 0 0 -2.07 0.29c-0.35 0.09 -0.68 0.24 -1 0.36l0 -0.26a1.58 1.58 0 0 0 0 -0.38 1.56 1.56 0 0 0 -0.1 -0.37A1.44 1.44 0 0 0 7 0a1.81 1.81 0 0 0 -1 0.2 1.67 1.67 0 0 0 -0.58 0.47 1.21 1.21 0 0 0 0.1 1.75 1.33 1.33 0 0 0 0.26 0.21 7.73 7.73 0 0 0 -1 0.28 10 10 0 0 0 -1.58 0.69 3.5 3.5 0 0 0 -1 0.75 3.68 3.68 0 0 0 -0.77 2.81 19.52 19.52 0 0 0 1 3.89 16.12 16.12 0 0 0 1.79 4.3A4.62 4.62 0 0 0 7 17.22a8.19 8.19 0 0 0 1 0.2c0.32 0 0.65 0.08 1 0.1a7.24 7.24 0 0 0 1.14 0c0.05 0.38 0.13 1 0.21 1.44a5.38 5.38 0 0 0 0.23 0.85 0.71 0.71 0 0 0 0.52 0.33 3.52 3.52 0 0 0 0.64 0 6.89 6.89 0 0 0 0.67 1.59 4.3 4.3 0 0 0 1 1.19 4.37 4.37 0 0 0 3.4 1.1 4.22 4.22 0 0 0 3.06 -2 5.15 5.15 0 0 0 0.76 -2.16c0.21 -1.58 -0.19 -3.23 0.1 -4.83a2.39 2.39 0 0 1 1.72 -1.93 0.33 0.33 0 0 0 0.07 -0.44Zm-11.17 6.48a7.26 7.26 0 0 1 -0.29 -0.7c-0.15 -0.39 -0.28 -0.77 -0.39 -1.07 0.18 0 0.37 -0.05 0.54 -0.09a0.34 0.34 0 0 0 0.27 -0.4 0.33 0.33 0 0 0 -0.4 -0.27c-0.36 0.06 -0.72 0.11 -1.08 0.14a7.5 7.5 0 0 1 -1.06 0 8.49 8.49 0 0 1 -0.88 -0.14c-0.29 -0.06 -0.58 -0.14 -0.87 -0.23a3.81 3.81 0 0 1 -2.07 -1.61 19.42 19.42 0 0 1 -1.55 -4.07 19 19 0 0 1 -1 -3.64 2.78 2.78 0 0 1 0.4 -2.14 2.78 2.78 0 0 1 0.7 -0.62A9.6 9.6 0 0 1 5 3.59a8.14 8.14 0 0 1 0.87 -0.31 3.86 3.86 0 0 1 0.88 -0.15 0.31 0.31 0 0 0 0.3 -0.31 0.3 0.3 0 0 0 -0.31 -0.29h-0.13a0.29 0.29 0 0 0 -0.14 -0.24 1.81 1.81 0 0 1 -0.23 -0.18A0.75 0.75 0 0 1 6.1 2c-0.22 -0.34 0.1 -0.58 0.41 -0.71A0.92 0.92 0 0 1 7 1.14a0.52 0.52 0 0 1 0.4 0.2c0.18 0.42 0.15 0.24 0.11 0.75l0 0.11 -0.15 0a0.3 0.3 0 0 0 -0.16 0.39 0.3 0.3 0 0 0 0.39 0.16 10.07 10.07 0 0 1 1.89 -0.53 8.83 8.83 0 0 1 1.93 -0.15 4.78 4.78 0 0 1 0.82 0.07 1.87 1.87 0 0 1 0.65 0.24 2.67 2.67 0 0 1 0.86 1.25 21.67 21.67 0 0 1 0.76 2.58 20.13 20.13 0 0 1 1.06 5 5.27 5.27 0 0 1 -1 3.05 6 6 0 0 1 -0.46 0.63 2.19 2.19 0 0 1 -0.34 0.34 5 5 0 0 1 -0.72 0.51c-0.38 0.22 -1.21 0.48 -1.08 0.94s0.22 1 0.32 1.52c0.09 0.32 0.46 1.17 -0.93 0.94Z" fill="#020202" fill-rule="evenodd" stroke-width="1"></path>
    <path d="M6.59 12.72a6.74 6.74 0 0 1 2 -0.2l2.22 0a7.15 7.15 0 0 0 2.91 -0.92 6.59 6.59 0 0 0 1.47 -1.22c0.34 -0.52 0 -1 -0.32 -0.67a4.65 4.65 0 0 1 -1.59 1.07 6.11 6.11 0 0 1 -2.54 0.6l-2.19 0a6.83 6.83 0 0 0 -2.31 0.46 3.19 3.19 0 0 0 -1.54 1.33c0 0.48 0.07 0.76 0.37 0.76a2.44 2.44 0 0 1 1.52 -1.21Z" fill="#4C57E6" fill-rule="evenodd" stroke-width="1"></path>
    <path d="M9.83 10.15a2.16 2.16 0 0 0 1 -3.32 2.67 2.67 0 0 0 -0.47 -0.48 2.8 2.8 0 0 0 -0.5 -0.35 5.7 5.7 0 0 0 -0.68 -0.29c-0.66 -0.24 -1.52 -0.5 -1.52 -0.5a0.41 0.41 0 0 0 -0.27 0 0.33 0.33 0 0 0 -0.17 0.18c-0.13 0.37 -0.26 0.74 -0.37 1.11a7.38 7.38 0 0 0 -0.19 0.78 6.55 6.55 0 0 0 -0.1 0.89 4.44 4.44 0 0 0 0 0.63c0.35 1.7 1.99 1.98 3.27 1.35ZM7.5 7.41a5.9 5.9 0 0 1 0.09 -0.72c0 -0.24 0.1 -0.49 0.16 -0.73 0.24 0.1 0.59 0.24 0.91 0.39a5.36 5.36 0 0 1 0.74 0.38 3.47 3.47 0 0 1 0.37 0.3 1.93 1.93 0 0 1 0.28 0.36c0.5 0.76 -0.07 1.41 -0.73 1.73s-1.54 0.38 -1.73 -0.47a3 3 0 0 1 -0.09 -0.6c-0.01 -0.21 -0.01 -0.43 0 -0.64Z" fill="#020202" fill-rule="evenodd" stroke-width="1"></path>
  </g>
</svg>