<svg xmlns="http://www.w3.org/2000/svg" viewBox="0 0 24 24" id="Transform-Left--Streamline-Freehand">
  <desc>
    Transform Left Streamline Icon: https://streamlinehq.com
  </desc>
  <g>
    <path d="M10.42 15.11a0.34 0.34 0 0 0 0.34 -0.34 18 18 0 0 0 0 -2.09c-0.11 -0.5 -0.12 -1.08 -0.55 -1A0.34 0.34 0 0 0 10 12a3.78 3.78 0 0 0 -0.1 2.26 2.12 2.12 0 0 0 0.08 0.54c0.02 0.2 0.16 0.36 0.44 0.31Z" fill="#4C57E6" fill-rule="evenodd" stroke-width="1"></path>
    <path d="M10.57 19.45a0.34 0.34 0 0 0 0.34 -0.34 7.74 7.74 0 0 0 -0.27 -2.68 0.35 0.35 0 0 0 -0.23 -0.12c-0.15 -0.07 -0.38 0 -0.48 0.42a2.78 2.78 0 0 0 -0.16 0.73c-0.05 0.59 0.23 2.09 0.8 1.99Z" fill="#4C57E6" fill-rule="evenodd" stroke-width="1"></path>
    <path d="M15.69 9.35c-0.25 0.16 -0.11 0.54 0 0.54a12.12 12.12 0 0 0 3.42 0.32 0.34 0.34 0 0 0 0 -0.48c-0.54 -0.87 -3.32 -0.48 -3.42 -0.38Z" fill="#4C57E6" fill-rule="evenodd" stroke-width="1"></path>
    <path d="M23.65 9.49C22.7 9 21.89 9.41 21 9.41a2.33 2.33 0 0 0 -1.05 0.1 0.3 0.3 0 0 0 0.23 0.55c1.76 0.34 2.42 0.26 2.82 0.41 0 0.08 -0.23 2.49 0 2.73s0.54 0.13 0.69 -0.43a6.53 6.53 0 0 0 0.1 -1.15c0.12 -0.82 0.46 -1.81 -0.14 -2.13Z" fill="#4C57E6" fill-rule="evenodd" stroke-width="1"></path>
    <path d="M23.18 14.23c-0.22 0 -0.5 0.89 -0.54 1.11 -0.1 0.52 0.28 1.82 0.7 1.73a0.34 0.34 0 0 0 0.34 -0.34c0 -0.39 -0.12 -2 -0.16 -2.25a0.29 0.29 0 0 0 -0.34 -0.25Z" fill="#4C57E6" fill-rule="evenodd" stroke-width="1"></path>
    <path d="M8.78 7.75a0.34 0.34 0 0 0 0.49 -0.47C8.41 6.36 6.9 6.06 6 5.48c-0.23 -0.14 -0.39 -0.27 -0.64 -0.45 0.2 0 0.61 0 0.76 0.08 1.26 0.27 13.54 0.53 12.44 -0.15 0.42 -0.26 -0.14 -0.43 -4.07 -0.55 -4.49 -0.63 -6.49 0.16 -8.32 0.01h-0.69a4.71 4.71 0 0 1 0.42 -0.52c1.33 -1.41 3.35 -2.66 3.41 -3a0.38 0.38 0 0 0 -0.48 -0.43A9.65 9.65 0 0 0 7.21 1.6a19.25 19.25 0 0 0 -2.1 1.51C4.38 3.79 3.7 5 4.44 5.72c1.14 1.17 3.44 1.16 4.34 2.03Z" fill="#020202" fill-rule="evenodd" stroke-width="1"></path>
    <g>
      <path d="M21.85 22.87a14.66 14.66 0 0 0 -2.22 -0.17c-0.09 0 -8.44 0 -8.53 -0.06 -1.84 -2.94 -2 -2.08 -4.5 -5.49 -1.07 -1.44 -2 -2.95 -3.12 -4.42C2.92 12 2 11.2 1.46 10.44c0.08 0 -0.09 -0.07 3.7 -0.17 2.09 0 3.91 0.31 6.21 0.28a12.64 12.64 0 0 1 2.23 -0.2c-0.1 0.12 3.65 5.11 3.81 5.31 1.51 1.88 3 3.48 3.76 4.54a7 7 0 0 1 0.56 1c0.67 0.8 0.91 0.11 0 -1.39 -0.81 -1.19 -2.09 -2.59 -3.67 -4.62 -1 -1.26 -1 -1.35 -3.22 -4.63 -0.18 -0.26 -0.37 -0.8 -0.72 -1 -0.77 -0.43 -2.08 0 -2.75 0C8 9.5 -0.9 8.19 0.07 10.33c0.59 1.27 1.76 2.07 2.5 3.07 1.09 1.46 2.08 3 3.18 4.4 2.62 3.38 1.93 1.69 4.61 5.33a1 1 0 0 0 0.32 0.29s9.44 -0.07 10 0c2.11 0.1 1.42 0.16 1.7 0.17a0.29 0.29 0 0 0 0.3 -0.3c0.03 -0.42 -0.56 -0.37 -0.83 -0.42Z" fill="#020202" fill-rule="evenodd" stroke-width="1"></path>
      <path d="M23.37 19.38c-0.37 -1.1 -0.82 0.52 -0.83 1.62 0.05 0.44 0.18 1.49 0.23 1.77a0.34 0.34 0 0 0 0.67 0 7.58 7.58 0 0 0 0.22 -1.95 10.16 10.16 0 0 0 -0.29 -1.44Z" fill="#4C57E6" fill-rule="evenodd" stroke-width="1"></path>
    </g>
  </g>
</svg>