<svg xmlns="http://www.w3.org/2000/svg" viewBox="0 0 24 24" id="Transfer-Pictures-Laptop--Streamline-Freehand">
  <desc>
    Transfer Pictures Laptop Streamline Icon: https://streamlinehq.com
  </desc>
  <g>
    <path d="M10.42 3c-0.38 0.24 -0.48 0.78 -0.91 1.56 -0.71 0.26 -2.13 -0.11 -2.92 0.4 -0.4 0.27 -0.39 1.14 -0.41 1.65 0 4.26 -0.1 3.21 -0.07 3.87 0.09 1.63 1 1.4 8.48 1.63 0.65 0 2.08 0.27 2.75 -0.25 0.82 -0.64 0.64 -1.74 0.7 -2.61 0 -2.24 0.27 -4.19 -1.68 -4.48l-2.27 -0.24c-0.55 -1.14 -0.43 -1.53 -1.16 -1.63a8.18 8.18 0 0 0 -2.51 0.1Zm2.58 0.6c0.86 2 -0.07 1.46 3.25 2 0.23 0 0.45 0.22 0.51 0.15 0.22 0.3 0.55 0.67 0.3 3.43 0 0.39 0 0.91 -0.11 1.36s-0.33 0.56 -0.86 0.56 -1.18 -0.1 -1.48 -0.1c-0.63 0 -6.87 -0.11 -7.45 -0.33 -0.13 -0.35 0.11 -5 0 -5.07 0.56 -0.26 2.19 -0.12 2.76 -0.41 0.3 -0.16 0.6 -1.19 0.84 -1.57A3.78 3.78 0 0 1 13 3.6Z" fill="#4C57E6" fill-rule="evenodd" stroke-width="1"></path>
    <path d="M9.85 8.74A2.17 2.17 0 0 0 13 10c1.82 -0.81 1.53 -3.17 -0.43 -3.89a0.29 0.29 0 0 0 -0.24 0.53c1.33 0.7 1.21 2 0.24 2.35a1.29 1.29 0 0 1 -1.92 -1.28c0.2 -1 1.2 -0.72 1.18 -1.25 0.02 -1.02 -2.76 0.21 -1.98 2.28Z" fill="#4C57E6" fill-rule="evenodd" stroke-width="1"></path>
    <path d="M24 18.61a10 10 0 0 0 -0.76 -1.43A25.83 25.83 0 0 0 20.81 14c-0.51 -0.6 -0.28 0.44 0.3 -2.4a68.5 68.5 0 0 0 1.13 -7.8 6.07 6.07 0 0 0 -0.2 -2 1.4 1.4 0 0 0 -0.9 -0.8C18.45 -0.06 5.27 0.06 2.54 1.74a1.42 1.42 0 0 0 -0.7 0.89C1.36 4.8 3.34 12.62 4 13.94c0.18 0.36 0.56 -0.12 0 0.48 -1 1 -3.16 3.27 -3.7 4a1.81 1.81 0 0 0 -0.12 1.72 2.56 2.56 0 0 0 -0.08 1.3 2.17 2.17 0 0 0 0.29 1.31c1.17 1.25 20.64 1 22.11 0.67 1.06 -0.24 1 -1 1.16 -2a0.33 0.33 0 0 0 -0.65 -0.09c-0.13 0.74 -0.05 1.22 -0.66 1.33 -0.1 0 -21 0 -21.46 -0.43a7.2 7.2 0 0 1 -0.23 -1.63c2.39 1 18.52 0.43 21.09 0.33a0.35 0.35 0 0 0 0.33 -0.34c0 -0.52 0.61 -0.26 -15.14 -0.55C4.42 20 2.3 20 1.31 19.82c-0.28 -0.05 -0.38 0.12 -0.4 -0.44a0.71 0.71 0 0 1 0.09 -0.45 50.74 50.74 0 0 1 3.42 -4.09c0.88 -0.94 -0.13 0.25 -1.48 -7.68a13.69 13.69 0 0 1 -0.27 -4.34c0.18 -0.75 4.21 -1.19 4.89 -1.25 1.64 -0.14 11.26 -0.41 13.26 0.5 0.67 0.3 0.12 3.62 0.05 4.47a56.26 56.26 0 0 1 -1.09 6.57c-0.19 0 -0.61 0.14 -1 0.16 -2.9 0.13 -12.42 0.17 -13.26 0.19a0.47 0.47 0 0 0 -0.52 0.34c0 0.42 0.49 0.32 1.06 0.32 0.87 0 13.53 0.06 14 0a30.59 30.59 0 0 0 3.12 4.74l0.24 1.14a0.29 0.29 0 0 0 0.58 0Z" fill="#020202" fill-rule="evenodd" stroke-width="1"></path>
    <path d="M18.15 15.81c-0.1 0 -3.43 -0.19 -3.53 -0.19 -0.26 -1.11 -0.19 -0.93 -0.25 -1.15s-0.84 -0.33 -0.79 0a5.74 5.74 0 0 0 0 1.11c-0.88 0 -1.75 -0.06 -3 0a5.25 5.25 0 0 0 0.34 -1.08c0 -0.33 -0.5 -0.33 -0.8 0a3.14 3.14 0 0 0 -0.73 1.13c-1.29 0.06 -2.34 0.13 -2.85 0.17 0.23 -0.54 0.85 -1 0.46 -1.24s-0.57 0.38 -0.93 0.77c-0.53 0.8 -1.71 2.29 -1 2.8 1.06 0.78 11.64 0.88 14.55 0.23 0.46 -0.1 0.42 -0.53 0.23 -1 -0.35 -0.84 -1.25 -2.39 -1.47 -2.83s-0.8 -0.32 -0.7 0.07c-0.01 0.22 0.15 0.52 0.47 1.21Zm-9.69 1.81c-0.45 0 -2.27 -0.05 -2.72 -0.1a3.42 3.42 0 0 0 0.52 -1.19c0.08 0 2.55 0.19 2.63 0.2 -0.07 0.15 -0.31 0.75 -0.43 1.09Zm0.87 0c0.14 -0.2 0.39 -0.53 0.7 -1 1.4 0.07 2.29 0.08 3.67 0.05 0.28 1 0.21 0.8 0.28 1 -1.98 -0.02 -3.33 -0.02 -4.65 -0.04Zm9.58 -0.09c-1 0.09 -3 0.1 -4.05 0.1 0 -0.24 -0.1 -0.41 -0.12 -1 1.34 0 2.55 -0.12 3.39 -0.14a0.33 0.33 0 0 0 0.26 -0.14c0.21 0.43 0.4 0.86 0.52 1.19Z" fill="#020202" fill-rule="evenodd" stroke-width="1"></path>
  </g>
</svg>