<svg xmlns="http://www.w3.org/2000/svg" viewBox="0 0 24 24" id="Transportation-Problem-Limitation-No-Fuel--Streamline-Freehand">
  <desc>
    Transportation Problem Limitation No Fuel Streamline Icon: https://streamlinehq.com
  </desc>
  <g>
    <path d="M23 10.59c0 -0.16 -0.05 -0.28 -1 -0.36a1 1 0 0 0 -0.24 0 1.06 1.06 0 0 0 -0.23 0l-0.05 0a10 10 0 0 1 -0.07 -2.61 2.05 2.05 0 0 1 1.27 -1.74 0.33 0.33 0 0 0 0.19 -0.43 0.33 0.33 0 0 0 -0.43 -0.19 2.73 2.73 0 0 0 -1.79 2.23 20.7 20.7 0 0 0 0 4v2.61l-0.07 2.18a9.78 9.78 0 0 1 -0.17 2.18c-0.09 0.36 -0.21 0.68 -0.51 0.78s-0.54 -0.21 -0.66 -0.55a5.89 5.89 0 0 1 -0.25 -1.63v-0.77l0 -1.57v-1a12.41 12.41 0 0 0 -0.11 -2.6 2.26 2.26 0 0 0 -1 -1.64 3.26 3.26 0 0 0 -1.34 -0.32l0 -1.91a0.34 0.34 0 1 0 -0.68 0c0 0.61 -0.06 1.26 -0.09 1.91 -0.48 0 -0.93 0 -1.24 0.06a0.31 0.31 0 0 0 -0.29 0.31 0.3 0.3 0 0 0 0.32 0.28l1.18 0c-0.06 1.29 -0.11 2.62 -0.17 3.95 -0.08 1.48 -0.16 2.95 -0.3 4.3a14.12 14.12 0 0 1 -0.39 2.93 2.65 2.65 0 0 1 -0.88 1.47 2 2 0 0 1 -0.64 0.28 6.87 6.87 0 0 1 -1.24 0.18c-0.82 0.07 -1.65 0.13 -2.47 0.14l-1.64 0c-0.92 -0.05 -2.19 0.11 -3.22 0a2.34 2.34 0 0 1 -1.16 -0.35 0.31 0.31 0 0 0 -0.42 0.06 0.3 0.3 0 0 0 0.06 0.42 3.07 3.07 0 0 0 1.44 0.52c1 0.16 2.32 0.08 3.24 0.17 0.7 0.07 1.41 0.11 2.12 0.13s1.41 0 2.11 0a8.14 8.14 0 0 0 1.45 -0.16 3.1 3.1 0 0 0 1 -0.44A3.59 3.59 0 0 0 16 21.42a14.71 14.71 0 0 0 0.42 -3.19c0.06 -1 0.1 -2.14 0.12 -3.28l0 -5a2.43 2.43 0 0 1 1 0.27 1.56 1.56 0 0 1 0.62 1.16 12 12 0 0 1 0 2.42l-0.05 1 0 1.55 0 0.78a5 5 0 0 0 0.63 2.87 1.41 1.41 0 0 0 1.6 0.43 1.76 1.76 0 0 0 1.13 -1.14 8.86 8.86 0 0 0 0.32 -2.88v-2.24l-0.11 -2.63a1.36 1.36 0 0 1 0 -0.21l0.05 0H22a1 1 0 0 0 0.25 -0.07c0.83 -0.32 0.83 -0.51 0.75 -0.67Z" fill="#020202" stroke-width="1"></path>
    <g>
      <path d="M1.92 14.83c0 1.13 0 2.25 0.08 3.36 0 0.35 0 0.69 0.09 1 0.16 0.61 0.34 0.65 0.6 -0.8a2.45 2.45 0 0 1 0 -0.27c0 -1.1 0 -2.21 0.06 -3.33l0.1 -5c1 0.08 2 0.15 3 0.17l2.34 0c0.53 0 1.08 0 1.62 -0.06 1.32 -0.23 1.24 -0.54 0.75 -0.86 -0.8 0 -1.6 -0.14 -2.38 -0.18s-1.57 0 -2.35 0c-1 0.05 -2 0.16 -2.95 0.24l0.05 -2.4 0 -2.21A11.49 11.49 0 0 1 3 3.15a4.36 4.36 0 0 1 0.11 -0.68A1.22 1.22 0 0 1 3.34 2a1.67 1.67 0 0 1 0.71 -0.47 6 6 0 0 1 1.51 -0.33q0.6 -0.07 1.2 -0.09l1.89 0L12.54 1l1.81 0a1.57 1.57 0 0 1 0.91 0.3 1.18 1.18 0 0 1 0.34 0.59 2.76 2.76 0 0 1 0.08 0.8v0.43c0.3 0.75 0.55 0.67 0.72 -0.84a2.6 2.6 0 0 0 -0.13 -0.78 1.87 1.87 0 0 0 -0.47 -0.77 2 2 0 0 0 -1 -0.5 13.76 13.76 0 0 0 -2.23 -0.15L8.65 0.06C8 0.06 7.38 0 6.74 0c-0.43 0 -0.87 0 -1.31 0.07a7 7 0 0 0 -1.8 0.4 2.69 2.69 0 0 0 -1.16 0.8 1.92 1.92 0 0 0 -0.38 0.73 5 5 0 0 0 -0.19 1c-0.07 0.51 -0.1 1 -0.12 1.54l0 2.26Z" fill="#020202" stroke-width="1"></path>
      <path d="M20.48 0.09a0.29 0.29 0 0 0 -0.42 0C19.09 1 18.17 2 17.28 2.92l-7.4 8.3q-1.43 1.63 -2.83 3.3c-1.41 1.67 -2.78 3.36 -4.14 5.05l-0.72 0.89c-0.38 0.48 -0.78 1 -1.16 1.46a0.33 0.33 0 0 0 0 0.47 0.34 0.34 0 0 0 0.48 0c2.85 -3.38 5.87 -6.66 8.83 -10 1.26 -1.43 2.5 -2.89 3.74 -4.33S16.59 5 17.86 3.44c0.84 -1 1.7 -2 2.62 -2.93a0.3 0.3 0 0 0 0 -0.42Z" fill="#4C57E6" stroke-width="1"></path>
      <path d="M14.21 4.28a1.68 1.68 0 0 0 -0.36 -1 1 1 0 0 0 -0.63 -0.3 7.8 7.8 0 0 0 -0.94 0c-0.72 0 -1.44 -0.07 -2.16 -0.09l-1.46 0a8.31 8.31 0 0 0 -3 0.38c-0.69 0.35 -1 0.89 -0.87 2.32a1.45 1.45 0 0 0 0.22 0.7 1.46 1.46 0 0 0 0.65 0.45A6.43 6.43 0 0 0 7 7c0.7 0.06 1.68 0.14 2.71 0.15 0.87 0 1.76 0 2.56 -0.11 1.16 -0.11 1.2 -0.42 0.72 -0.84l-1.26 0c-0.75 0 -1.56 -0.11 -2.33 -0.15S7.71 6 7.1 5.93a9.14 9.14 0 0 1 -1 0 0.7 0.7 0 0 1 -0.42 -0.13 0.9 0.9 0 0 1 -0.15 -0.43 7.47 7.47 0 0 1 -0.08 -0.77c0.07 -0.46 0.44 -0.63 0.87 -0.7a10.45 10.45 0 0 1 2.34 0.1c0.72 0 1.43 0 2.15 0.06l1.47 0c0.47 0 1.06 -0.11 1.13 0.56 0 0.36 0 0.75 0.05 1.08 0.44 0.39 0.67 0 0.76 -0.88a3.11 3.11 0 0 0 -0.01 -0.54Z" fill="#4C57E6" stroke-width="1"></path>
    </g>
  </g>
</svg>