<svg xmlns="http://www.w3.org/2000/svg" viewBox="0 0 24 24" id="Trees-Forest-Flood--Streamline-Freehand">
  <desc>
    Trees Forest Flood Streamline Icon: https://streamlinehq.com
  </desc>
  <g>
    <path d="M3.27 15.06a0.3 0.3 0 0 0 0.23 -0.22c0.06 0 0.12 -0.16 0.14 -0.19l0.46 -0.87c0.42 -0.76 1 -1.5 1.38 -2.28A9.67 9.67 0 0 0 6 10.41a0.56 0.56 0 0 0 -0.18 -0.67 0.62 0.62 0 0 0 -0.34 -0.13 1.71 1.71 0 0 0 -0.32 0l-0.26 0 0.1 -0.28L6.73 6c0.34 0.54 0.68 1.07 1 1.62s0.49 0.86 0.72 1.3l0.21 0.34 -0.51 0.08 -0.33 0.06a0.6 0.6 0 0 0 -0.46 0.59 0.92 0.92 0 0 0 0.07 0.26c0.06 0.13 0.17 0.27 0.22 0.37l0.6 1.06c0.41 0.67 0.79 1.36 1.2 2a12.41 12.41 0 0 0 0.92 1.32 0.32 0.32 0 1 0 0.52 -0.38 10.76 10.76 0 0 1 -0.76 -1.32c-0.36 -0.7 -0.67 -1.42 -1 -2.11l-0.4 -0.85 0.28 0a2.47 2.47 0 0 0 0.36 -0.11 2.28 2.28 0 0 0 0.44 -0.27 0.53 0.53 0 0 0 0.14 -0.6A1.53 1.53 0 0 0 9.72 9c-0.13 -0.19 -0.3 -0.36 -0.42 -0.54 -0.3 -0.46 -0.58 -0.9 -0.89 -1.31C8 6.54 7.47 6 7 5.35a0.28 0.28 0 0 0 -0.17 -0.11 0.28 0.28 0 0 0 -0.38 0.13c-0.21 0.36 -0.43 0.7 -0.65 1 -0.56 0.84 -1.13 1.63 -1.67 2.44l-0.46 0.77 -0.12 0.19a0.55 0.55 0 0 0 0.08 0.66 0.56 0.56 0 0 0 0.23 0.14 2.45 2.45 0 0 0 0.43 0.06l0.47 0c-0.06 0.14 -0.11 0.27 -0.17 0.4 -0.37 0.81 -0.81 1.6 -1.16 2.39l-0.37 0.87a1.48 1.48 0 0 0 -0.17 0.29 0.52 0.52 0 0 0 0 0.21 0.32 0.32 0 0 0 0.38 0.27Z" fill="#020202" fill-rule="evenodd" stroke-width="1"></path>
    <path d="M12.54 13.09a7.92 7.92 0 0 1 0.85 -0.05 5.77 5.77 0 0 1 0.83 0 4.5 4.5 0 0 0 0.69 0 0.56 0.56 0 0 0 0.41 -0.3 0.54 0.54 0 0 0 -0.05 -0.59c-0.06 -0.08 -0.25 -0.27 -0.29 -0.31l-0.79 -0.73 0.91 -0.27c0.84 -0.23 1.73 -0.37 2.59 -0.61a11 11 0 0 0 1.14 -0.41 0.55 0.55 0 0 0 0.34 -0.6 0.62 0.62 0 0 0 -0.17 -0.32 1.56 1.56 0 0 0 -0.23 -0.22l-0.17 -0.21 0.3 -0.08 3.6 -1.13c-0.13 0.49 -0.25 1 -0.38 1.48s-0.33 1.2 -0.53 1.79l-0.09 0.38 -0.4 -0.28a2.85 2.85 0 0 0 -0.28 -0.18 0.56 0.56 0 0 0 -0.7 0.08 0.63 0.63 0 0 0 -0.13 0.23c0 0.13 -0.06 0.3 -0.09 0.42l-0.32 1.17c-0.16 0.68 -0.2 0.9 -0.25 1.09a5.64 5.64 0 0 1 -0.21 0.69 0.32 0.32 0 0 0 0.59 0.24c0.19 -0.4 0.24 -0.55 0.31 -0.72s0.13 -0.4 0.37 -1.06l0.35 -0.9 0.27 0.21a1.74 1.74 0 0 0 0.33 0.18 2 2 0 0 0 0.49 0.14 0.54 0.54 0 0 0 0.54 -0.33 1.79 1.79 0 0 0 0.13 -0.41c0 -0.22 0.05 -0.47 0.1 -0.67 0.08 -0.39 0.16 -0.77 0.22 -1.15 0.18 -0.88 0.18 -1.77 0.32 -2.66 0 -0.09 -0.06 -0.51 -0.39 -0.41s-0.8 0.19 -1.2 0.27c-1 0.19 -1.93 0.34 -2.88 0.53l-0.87 0.21 -0.23 0.05a0.54 0.54 0 0 0 -0.41 0.51 0.58 0.58 0 0 0 0.06 0.27 1.68 1.68 0 0 0 0.26 0.35l0.3 0.35 -0.4 0.16c-0.83 0.31 -1.7 0.54 -2.51 0.85l-0.88 0.35a1.36 1.36 0 0 0 -0.32 0.08c-0.05 0 -0.46 0.32 -0.27 0.58l0.53 0.91a5.13 5.13 0 0 0 -0.66 0.13c-0.3 0.08 -0.59 0.17 -0.89 0.28a0.32 0.32 0 0 0 -0.23 0.39 0.31 0.31 0 0 0 0.39 0.23Z" fill="#020202" fill-rule="evenodd" stroke-width="1"></path>
    <path d="M23.8 15.21a0.32 0.32 0 0 0 -0.42 0.17 3.49 3.49 0 0 1 -1.69 1.7 2.65 2.65 0 0 1 -2.27 0.05 1.49 1.49 0 0 1 -0.49 -0.4 3.15 3.15 0 0 1 -0.39 -0.63c-0.07 -0.15 -0.15 -0.39 -0.25 -0.58a1.38 1.38 0 0 0 -0.29 -0.36 0.57 0.57 0 0 0 -0.44 -0.09 0.55 0.55 0 0 0 -0.3 0.2c-0.07 0.1 -0.13 0.36 -0.2 0.48l-0.43 0.61a3.16 3.16 0 0 1 -0.86 0.81 1.84 1.84 0 0 1 -1 0.3 1.59 1.59 0 0 1 -0.76 -0.22 3.25 3.25 0 0 1 -0.73 -0.53 7.24 7.24 0 0 0 -0.62 -0.62 1.29 1.29 0 0 0 -0.55 -0.25 0.66 0.66 0 0 0 -0.59 0.32l-0.4 0.63a3.08 3.08 0 0 1 -0.53 0.49 2.17 2.17 0 0 1 -0.63 0.31 3.48 3.48 0 0 1 -1.34 0.16 1.59 1.59 0 0 1 -1.06 -0.46c-0.21 -0.23 -0.41 -0.72 -0.64 -1a1.17 1.17 0 0 0 -0.35 -0.3 0.45 0.45 0 0 0 -0.41 -0.06 0.46 0.46 0 0 0 -0.26 0.19c0 0.07 -0.22 0.29 -0.12 0.33l-0.28 0.4a3.82 3.82 0 0 1 -0.51 0.55 2.14 2.14 0 0 1 -0.6 0.39 2.64 2.64 0 0 1 -2.08 0 4.38 4.38 0 0 1 -1.8 -1.34 0.3 0.3 0 0 0 -0.4 -0.05 0.29 0.29 0 0 0 0 0.4 5 5 0 0 0 2 1.6 3.45 3.45 0 0 0 2.64 0.11 3.53 3.53 0 0 0 0.76 -0.52 4.91 4.91 0 0 0 0.65 -0.64l0.18 -0.23 0.47 0.81a2.46 2.46 0 0 0 1.33 0.79 4.2 4.2 0 0 0 2.12 -0.1 3.34 3.34 0 0 0 0.93 -0.45 3.5 3.5 0 0 0 0.75 -0.69l0.22 -0.33 0.37 0.35a4.16 4.16 0 0 0 1.2 0.81 2.66 2.66 0 0 0 1 0.22 2.87 2.87 0 0 0 1.6 -0.54 4.11 4.11 0 0 0 1.08 -1.08l0.31 -0.48 0 0.06a4.86 4.86 0 0 0 0.65 0.91 2 2 0 0 0 0.68 0.46 3.44 3.44 0 0 0 2.95 -0.13 4.21 4.21 0 0 0 2 -2.12 0.32 0.32 0 0 0 -0.2 -0.41Z" fill="#4C57E6" fill-rule="evenodd" stroke-width="1"></path>
  </g>
</svg>