<svg xmlns="http://www.w3.org/2000/svg" viewBox="0 0 24 24" id="Trekking-Direction-Map--Streamline-Freehand">
  <desc>
    Trekking Direction Map Streamline Icon: https://streamlinehq.com
  </desc>
  <title>trekking-direction-map</title>
  <g>
    <path d="M21.76 3.63a0.35 0.35 0 0 0 -0.49 0.05L20.9 4l-0.06 0a8.2 8.2 0 0 0 -1.16 -0.55 0.3 0.3 0 0 0 -0.35 0.49c0.27 0.3 0.51 0.6 0.79 0.89a2.18 2.18 0 0 0 -0.22 0.31c-0.69 1.22 -0.51 1.32 -0.4 1.4s0.27 0.25 1.28 -0.72a2.1 2.1 0 0 0 0.22 -0.31c0.33 0.22 0.67 0.41 1 0.63a0.34 0.34 0 1 0 0.47 -0.5 12.51 12.51 0 0 0 -0.81 -1l-0.09 -0.09 0.22 -0.45a0.34 0.34 0 0 0 -0.03 -0.47Z" fill="#4C57E6" fill-rule="evenodd" stroke-width="1"></path>
    <path d="M18.55 9a1.54 1.54 0 0 1 -0.67 -0.57 0.29 0.29 0 0 0 -0.39 -0.17 0.31 0.31 0 0 0 -0.17 0.4 2.07 2.07 0 0 0 1.35 1.51 1.7 1.7 0 0 0 1.51 -0.36 2.4 2.4 0 0 0 0.54 -0.81A3.82 3.82 0 0 0 21 7.83a0.35 0.35 0 0 0 -0.68 -0.14 3.06 3.06 0 0 1 -0.35 0.73 1.35 1.35 0 0 1 -0.49 0.46 0.7 0.7 0 0 1 -0.51 0.17 1 1 0 0 1 -0.42 -0.05Z" fill="#4C57E6" fill-rule="evenodd" stroke-width="1"></path>
    <path d="m13.39 4.85 0.36 0c1 -0.13 1.11 0.06 1.24 -0.25 0.22 -0.55 -1.09 -0.86 -1.11 -0.86a1.7 1.7 0 0 0 -0.45 0 1.53 1.53 0 0 0 -0.42 0.11s-1.11 0.58 -0.91 1c0.1 0.15 0.14 0.09 1.29 0Z" fill="#4C57E6" fill-rule="evenodd" stroke-width="1"></path>
    <path d="M17.27 5.82a1.27 1.27 0 0 0 -0.18 -0.29c-0.19 -0.21 -0.82 -0.76 -1.09 -0.53s-0.2 0.17 0.1 1.12a1.86 1.86 0 0 0 0.1 0.25l0.15 0.24c0.53 0.78 0.61 0.87 0.85 0.79s0.37 -0.21 0.16 -1.21a1.28 1.28 0 0 0 -0.09 -0.37Z" fill="#4C57E6" fill-rule="evenodd" stroke-width="1"></path>
    <path d="M6.89 6.2A2.84 2.84 0 0 0 8.18 3 0.34 0.34 0 0 0 8 2.77a3.67 3.67 0 0 0 -1.2 -1.12 2.64 2.64 0 0 0 -1.71 -0.32A2.48 2.48 0 0 0 3.18 3a3.19 3.19 0 0 0 0.18 2.52 2.35 2.35 0 0 0 3.53 0.68ZM4.26 3.37a1.49 1.49 0 0 1 1 -1.13 1.76 1.76 0 0 1 1.18 0.09 3 3 0 0 1 1.06 0.81s0 0 0 0.06a2 2 0 0 1 -1.12 2.18 1.34 1.34 0 0 1 -2 -0.41 2.06 2.06 0 0 1 -0.12 -1.6Z" fill="#020202" fill-rule="evenodd" stroke-width="1"></path>
    <path d="M23.94 4.62a9 9 0 0 0 -0.22 -2.86 2.18 2.18 0 0 0 -0.88 -1.22 3 3 0 0 0 -1.2 -0.39 20.13 20.13 0 0 0 -2.47 0l-2.74 0c-2.11 0.08 -4.22 0.24 -6.33 0.27a0.3 0.3 0 0 0 -0.31 0.3 0.31 0.31 0 0 0 0.3 0.31c2.12 0.06 4.24 0 6.36 0 0.9 0 1.8 0 2.69 0.07 0.61 0 1.36 -0.06 2.05 0a2.15 2.15 0 0 1 1 0.31 1.33 1.33 0 0 1 0.48 1 10.12 10.12 0 0 1 0.06 2.17c0 1.43 0.06 2.82 0.06 4.23a17.44 17.44 0 0 1 -0.05 1.77 6.05 6.05 0 0 1 -0.29 1.71 2.43 2.43 0 0 1 -1 1.2 3.08 3.08 0 0 1 -0.86 0.36c-0.52 0.12 -1.06 0.15 -1.6 0.23s-1 0.1 -1.46 0.12c-2 0.1 -4 -0.08 -6 0.14a0.35 0.35 0 1 0 0.06 0.69c2 -0.16 4 0.08 6 0.05 0.52 0 1 0 1.54 -0.08l1 -0.1a19.76 19.76 0 0 0 -0.13 2.89 16.57 16.57 0 0 0 0.11 1.86c0.09 0.93 0.25 1.84 0.35 2.76a0.35 0.35 0 1 0 0.69 0c0 -1 0.08 -2.06 0.06 -3.1 0 -0.61 -0.05 -1.23 -0.09 -1.84 -0.07 -0.88 -0.18 -1.74 -0.21 -2.62a3.86 3.86 0 0 0 1.19 -0.46 3.5 3.5 0 0 0 1.25 -1.26 6.08 6.08 0 0 0 0.61 -2.42c0 -0.62 0.08 -1.24 0.08 -1.85 -0.04 -1.44 -0.13 -2.86 -0.1 -4.24Z" fill="#020202" fill-rule="evenodd" stroke-width="1"></path>
    <path d="M13.24 12.43a5.33 5.33 0 0 0 1.61 -1.11 3.33 3.33 0 0 0 0.88 -2.23 2 2 0 0 0 -0.73 -1.6 1.54 1.54 0 0 0 -0.83 -0.33 2.24 2.24 0 0 0 -1.17 0.23c-0.52 0.23 -0.94 0.63 -1.42 0.9a1.32 1.32 0 0 1 -0.74 0.19 3.3 3.3 0 0 1 -0.84 -0.16c-0.73 -0.22 -1.4 -0.59 -2.14 -0.82a8.37 8.37 0 0 0 -2.76 -0.31 7 7 0 0 0 -2.72 0.69 3.79 3.79 0 0 0 -1.8 2.19 15.07 15.07 0 0 0 -0.53 3.81 7.78 7.78 0 0 0 0 1.68 2.26 2.26 0 0 0 0.45 1.19 1.48 1.48 0 0 0 1.2 0.55 1.28 1.28 0 0 0 0.85 -0.36l-0.12 1.75a20 20 0 0 0 -0.09 2.06 4.63 4.63 0 0 0 0.29 1.48 3.3 3.3 0 0 0 0.47 0.84 2.42 2.42 0 0 0 0.52 0.49 2.08 2.08 0 0 0 1.62 0.27 1.76 1.76 0 0 0 1.08 -0.77 2.34 2.34 0 0 0 1 0.62 1.68 1.68 0 0 0 1.58 -0.34 1.57 1.57 0 0 0 0.37 -0.47 3 3 0 0 0 0.27 -0.72 6.68 6.68 0 0 0 0.17 -1.09l0 -1.56c0 -0.56 0 -1.31 -0.06 -2 -0.06 -1 -0.18 -1.93 -0.22 -2.89l0 -1.64a3.69 3.69 0 0 0 0.56 0.11 4.72 4.72 0 0 0 1.44 -0.08 8.85 8.85 0 0 0 1.81 -0.57Zm-3 0a2.36 2.36 0 0 1 -1 -0.18 0.35 0.35 0 0 0 -0.46 0.17 0.37 0.37 0 0 0 0 0.23 20.68 20.68 0 0 0 -0.25 2.71c0 0.7 -0.05 1.4 0 2.1s0 1.38 0 2.06l0 1.75a5.35 5.35 0 0 1 -0.07 0.7 2.22 2.22 0 0 1 -0.1 0.41 0.84 0.84 0 0 1 -0.15 0.28 0.82 0.82 0 0 1 -1 0.16 1.51 1.51 0 0 1 -0.68 -0.57c0 -0.1 0.05 -0.18 0.06 -0.28l0 -1.05 0 -1.49c0 -0.74 -0.09 -1.47 -0.16 -2.21a0.35 0.35 0 1 0 -0.69 0l0 1.81c0 0.6 0 1.2 -0.07 1.8 0 0.32 0 0.64 -0.1 1a2.46 2.46 0 0 1 -0.15 0.53 0.71 0.71 0 0 1 -0.53 0.41 1 1 0 0 1 -0.73 -0.16 1.11 1.11 0 0 1 -0.3 -0.31 2.32 2.32 0 0 1 -0.24 -0.47 4 4 0 0 1 -0.23 -1.13c-0.05 -0.66 0 -1.33 0 -2l0.01 -5.16a2.64 2.64 0 0 0 0 -0.29 0.31 0.31 0 0 0 -0.61 0l0 0.75c-0.07 0.43 -0.16 0.85 -0.26 1.26a5.47 5.47 0 0 1 -0.15 0.58 1 1 0 0 1 -0.13 0.3 0.61 0.61 0 0 1 -0.52 0.3 0.68 0.68 0 0 1 -0.55 -0.29 1.47 1.47 0 0 1 -0.24 -0.78A8.66 8.66 0 0 1 1 14a14.43 14.43 0 0 1 0.63 -3.53A2.67 2.67 0 0 1 2.89 8.9a5.93 5.93 0 0 1 2.28 -0.55 7.08 7.08 0 0 1 2.36 0.27c0.73 0.21 1.41 0.58 2.13 0.79a4.09 4.09 0 0 0 1.1 0.19 2.22 2.22 0 0 0 1.05 -0.21c0.57 -0.26 1 -0.77 1.61 -1.06a1.52 1.52 0 0 1 0.58 -0.16 0.69 0.69 0 0 1 0.41 0.11 1.2 1.2 0 0 1 0.41 1.12 2.41 2.41 0 0 1 -0.57 1.32 4.5 4.5 0 0 1 -1.32 1 7.66 7.66 0 0 1 -1.63 0.56 4.4 4.4 0 0 1 -1.06 0.12Z" fill="#020202" fill-rule="evenodd" stroke-width="1"></path>
  </g>
</svg>