<svg xmlns="http://www.w3.org/2000/svg" viewBox="0 0 24 24" id="Trekking-Person--Streamline-Freehand">
  <desc>
    Trekking Person Streamline Icon: https://streamlinehq.com
  </desc>
  <title>trekking-person</title>
  <g>
    <path d="M7.25 6.3a3.32 3.32 0 0 0 2.55 0.19 3.81 3.81 0 0 0 2 -1.51 3.39 3.39 0 0 0 0.52 -2.38 0.41 0.41 0 0 0 -0.08 -0.19 3.33 3.33 0 0 0 -1.65 -2A3.36 3.36 0 0 0 7.61 0.3a3.29 3.29 0 0 0 -1.2 1 4.11 4.11 0 0 0 -0.67 1.32 3.64 3.64 0 0 0 -0.15 0.8 3.85 3.85 0 0 0 0 0.83A2.92 2.92 0 0 0 7.25 6.3Zm-0.36 -3.4a3.2 3.2 0 0 1 0.45 -0.9 2.32 2.32 0 0 1 0.74 -0.69 2.39 2.39 0 0 1 2.11 -0.12 2.52 2.52 0 0 1 1.38 1.41v0.09a2.59 2.59 0 0 1 -0.52 1.8 2.83 2.83 0 0 1 -1.54 1 2.38 2.38 0 0 1 -1.73 -0.25A1.79 1.79 0 0 1 6.82 4a2.51 2.51 0 0 1 0 -0.55 2.74 2.74 0 0 1 0.07 -0.55Z" fill="#020202" fill-rule="evenodd" stroke-width="1"></path>
    <path d="M23.38 8.49a11.34 11.34 0 0 0 -0.32 -1.56 11.11 11.11 0 0 0 -1.72 -3.81A2.62 2.62 0 0 0 18.63 2a0.51 0.51 0 0 0 -0.16 0.09 3.38 3.38 0 0 0 -1.8 3 12.51 12.51 0 0 0 1.08 5 4.39 4.39 0 0 0 1.7 2.12 2.33 2.33 0 0 0 2 0.16 2.61 2.61 0 0 0 1.18 -0.88 4.07 4.07 0 0 0 0.74 -1.87 5.43 5.43 0 0 0 0.01 -1.13ZM18.66 2.7h0.13a1.86 1.86 0 0 1 1.88 1 6.5 6.5 0 0 1 0.66 1.19c-0.46 0.14 -0.9 0.26 -1.35 0.41 -0.24 0.08 -0.47 0.16 -0.7 0.26a6 6 0 0 0 -0.68 0.32c-0.34 0.18 -0.67 0.39 -1 0.6a5.87 5.87 0 0 1 -0.14 -1.3 2.69 2.69 0 0 1 1.2 -2.48Zm3.56 6.76a3.06 3.06 0 0 1 -0.4 1.13 1.5 1.5 0 0 1 -0.78 0.66 1.26 1.26 0 0 1 -1.28 -0.25 3.59 3.59 0 0 1 -1 -1.35 16.82 16.82 0 0 1 -1 -2.44c0.41 -0.1 0.83 -0.2 1.24 -0.34a5.89 5.89 0 0 0 0.7 -0.26c0.23 -0.1 0.45 -0.21 0.67 -0.33 0.41 -0.22 0.8 -0.46 1.19 -0.7A13.74 13.74 0 0 1 22 7.17a9.54 9.54 0 0 1 0.22 1.42 3.63 3.63 0 0 1 0 0.87Z" fill="#020202" fill-rule="evenodd" stroke-width="1"></path>
    <path d="M3.07 18.43c-0.23 -1.05 -0.42 -2.1 -0.67 -3.15 -0.36 -1.57 -0.79 -3.12 -1.18 -4.7a0.32 0.32 0 0 0 -0.37 -0.25 0.32 0.32 0 0 0 -0.25 0.37c0.21 1.61 0.38 3.22 0.66 4.82 0.18 1.06 0.44 2.11 0.67 3.17l1.44 4.79a0.36 0.36 0 0 0 0.7 -0.15Z" fill="#4C57E6" fill-rule="evenodd" stroke-width="1"></path>
    <path d="M21.34 18.43a9.8 9.8 0 0 0 -1.58 -0.69 3.08 3.08 0 0 1 -0.72 -0.42 3.58 3.58 0 0 1 -0.62 -0.61 0.36 0.36 0 0 0 -0.58 0.43 5.07 5.07 0 0 0 0.68 0.78 4 4 0 0 0 0.86 0.62 9.14 9.14 0 0 1 1.35 0.73 1 1 0 0 1 0.36 0.59l0 0.42a1.08 1.08 0 0 1 -0.56 0.85 2 2 0 0 1 -1.21 0.19 4.73 4.73 0 0 1 -1.13 -0.23 3.11 3.11 0 0 1 -1 -0.49 3.3 3.3 0 0 1 -0.56 -0.56c-0.27 -0.33 -0.51 -0.71 -0.74 -1.05a0.31 0.31 0 0 0 -0.43 -0.11 0.32 0.32 0 0 0 -0.11 0.44c0.21 0.38 0.41 0.79 0.66 1.17a3.72 3.72 0 0 0 0.6 0.76 4.06 4.06 0 0 0 1.2 0.8 6.15 6.15 0 0 0 1.35 0.42 3.12 3.12 0 0 0 1.95 -0.28 2.2 2.2 0 0 0 1.15 -1.77 3.65 3.65 0 0 0 0 -0.47 2.25 2.25 0 0 0 -0.06 -0.36 2 2 0 0 0 -0.86 -1.16Z" fill="#020202" fill-rule="evenodd" stroke-width="1"></path>
    <path d="M17.06 15.1a2.46 2.46 0 0 0 0.06 -0.53 3.11 3.11 0 0 0 0 -0.53 5.54 5.54 0 0 0 -0.12 -0.71c-0.11 -0.5 -0.27 -1 -0.39 -1.48A12.39 12.39 0 0 0 15.3 8.1a3.33 3.33 0 0 0 -2.49 -1.58 3.71 3.71 0 0 0 -0.58 0 5 5 0 0 0 -0.56 0.07 4.86 4.86 0 0 0 -1.38 0.55c-0.88 0.5 -1.67 1.23 -2.52 1.71a4.8 4.8 0 0 1 -0.83 0.38 3.82 3.82 0 0 1 -0.88 0.18l-1.46 0a3.59 3.59 0 0 0 -0.72 0.11 2.06 2.06 0 0 0 -1.1 0.7 1.87 1.87 0 0 0 -0.4 1.26 1.94 1.94 0 0 0 0.9 1.52 4.49 4.49 0 0 0 2.24 0.65 11.37 11.37 0 0 0 3.7 -0.37A6.79 6.79 0 0 0 12 11.76l0.52 1.75c-0.41 0.3 -0.83 0.61 -1.23 0.93a8.68 8.68 0 0 0 -2.37 3A9.49 9.49 0 0 0 8 19.89 5.54 5.54 0 0 0 8.35 23a1.69 1.69 0 0 0 2.12 1 1.9 1.9 0 0 0 0.4 -0.14 1.9 1.9 0 0 0 0.37 -0.2 2.63 2.63 0 0 0 0.7 -0.78 6.89 6.89 0 0 0 0.55 -1.26c0.23 -0.66 0.44 -1.35 0.73 -2a4.93 4.93 0 0 1 0.68 -1.12c0.65 -0.79 1.72 -1.16 2.4 -1.87a2.86 2.86 0 0 0 0.76 -1.53Zm-1.16 -0.23a1.77 1.77 0 0 1 -0.45 0.87c-0.69 0.75 -1.77 1.16 -2.42 2a6.07 6.07 0 0 0 -0.8 1.37c-0.29 0.68 -0.49 1.41 -0.73 2.1a5.4 5.4 0 0 1 -0.43 1.08 1.45 1.45 0 0 1 -0.4 0.48l-0.45 0.22a0.83 0.83 0 0 1 -1 -0.44A4.55 4.55 0 0 1 8.89 20a8.45 8.45 0 0 1 0.75 -2.26 8.75 8.75 0 0 1 1.32 -2 9.32 9.32 0 0 1 0.79 -0.74c0.43 -0.36 0.89 -0.71 1.32 -1a0.36 0.36 0 0 0 0.08 -0.48L12.47 11a0.35 0.35 0 0 0 -0.26 -0.24 0.33 0.33 0 0 0 -0.33 0.11A5.88 5.88 0 0 1 9 12.56a10.24 10.24 0 0 1 -3.42 0.24 3.89 3.89 0 0 1 -1.52 -0.39 1.11 1.11 0 0 1 -0.7 -1 0.86 0.86 0 0 1 0.2 -0.59 1.06 1.06 0 0 1 0.57 -0.33 3.21 3.21 0 0 1 0.53 -0.07l1.47 0a4.88 4.88 0 0 0 1.14 -0.21 5.41 5.41 0 0 0 1.05 -0.44c0.86 -0.47 1.66 -1.19 2.54 -1.67a3.39 3.39 0 0 1 1 -0.4l0.77 0a2.17 2.17 0 0 1 1.62 1 11.07 11.07 0 0 1 1.14 3.38c0.12 0.48 0.28 1 0.4 1.45 0 0.19 0.07 0.38 0.1 0.57Z" fill="#020202" fill-rule="evenodd" stroke-width="1"></path>
  </g>
</svg>