<svg xmlns="http://www.w3.org/2000/svg" viewBox="0 0 24 24" id="Trends-Hot-Circle--Streamline-Freehand">
  <desc>
    Trends Hot Circle Streamline Icon: https://streamlinehq.com
  </desc>
  <g>
    <path d="m8.73 12.47 0 -1.37A27.94 27.94 0 0 1 8.62 8a0.3 0.3 0 0 0 -0.57 -0.2 17.15 17.15 0 0 0 -0.46 3.75v0.15c-0.36 0 -0.72 -0.11 -1.09 -0.14a8.8 8.8 0 0 0 -1.14 -0.06 3.87 3.87 0 0 0 -0.49 0.05l0 -0.52c-0.06 -1.42 -0.2 -2.62 -0.18 -2.87a0.29 0.29 0 0 0 -0.24 -0.34 0.3 0.3 0 0 0 -0.35 0.24 26.45 26.45 0 0 0 -0.32 3l0 0.7 -0.33 0.06a0.29 0.29 0 0 0 -0.27 0.32 0.3 0.3 0 0 0 0.31 0.28l0.28 0 0 1.12c0.08 1.6 0.23 2.93 0.26 3a0.34 0.34 0 0 0 0.43 0.22 0.33 0.33 0 0 0 0.22 -0.42c0 -0.09 0.1 -1.33 0.16 -2.82l0 -0.95 0.21 0c0.23 0 0.47 0 0.71 0.05s0.47 0 0.71 0 0.72 -0.06 1.08 -0.1l0 1.21a29.73 29.73 0 0 0 0.31 3.33 0.34 0.34 0 0 0 0.38 0.3 0.36 0.36 0 0 0 0.36 -0.36c0 -0.29 0.05 -1.61 0.1 -3.16 0.02 -0.45 0.03 -0.91 0.03 -1.37Z" fill="#020202" fill-rule="evenodd" stroke-width="1"></path>
    <path d="M11.84 9.76a1.53 1.53 0 0 1 1 -0.51 0.29 0.29 0 0 0 0.34 -0.25 0.29 0.29 0 0 0 -0.25 -0.33 2 2 0 0 0 -1.29 0.33 3.8 3.8 0 0 0 -1.29 1.38 5.69 5.69 0 0 0 -0.35 3.85 2.81 2.81 0 0 0 1.85 2.13A2.22 2.22 0 0 0 14.34 15a6.15 6.15 0 0 0 0.57 -3.65 3.17 3.17 0 0 0 -0.34 -1 4.81 4.81 0 0 0 -0.57 -0.82 0.34 0.34 0 0 0 -0.52 0.44 3.79 3.79 0 0 1 0.45 0.72 2.19 2.19 0 0 1 0.2 0.78 5.48 5.48 0 0 1 -0.44 2.58c-0.33 0.76 -0.81 1.38 -1.51 1.2s-1 -1 -1.18 -1.85a4.82 4.82 0 0 1 0.13 -2.63 2.91 2.91 0 0 1 0.71 -1.01Z" fill="#020202" fill-rule="evenodd" stroke-width="1"></path>
    <path d="M20.88 8.64a0.35 0.35 0 0 0 0.4 -0.27A0.35 0.35 0 0 0 21 8a12.25 12.25 0 0 0 -2.09 -0.19 11.81 11.81 0 0 0 -1.33 0 16.92 16.92 0 0 0 -2 0.36 0.81 0.81 0 0 0 -0.44 0.18 0.29 0.29 0 0 0 0.07 0.41 0.33 0.33 0 0 0 0.25 0.05s0.09 0 0.17 0c0.37 0 1.14 0.12 2 0.13h0.23c-0.08 0.58 -0.17 1.44 -0.23 2.4l0 1.26 0 1.26c0.07 1.35 0.18 2.52 0.21 2.94a0.35 0.35 0 0 0 0.35 0.33 0.32 0.32 0 0 0 0.33 -0.34c0 -0.42 0.13 -1.58 0.19 -2.93l0 -1.26 0 -1.25c0 -1 -0.12 -1.87 -0.16 -2.44l0.39 0c0.97 -0.13 1.77 -0.29 1.94 -0.27Z" fill="#020202" fill-rule="evenodd" stroke-width="1"></path>
    <path d="M23.23 6.59a10.75 10.75 0 0 0 -3.32 -3.74 13.44 13.44 0 0 0 -3 -1.73 7.67 7.67 0 0 0 -1.43 -0.41A0.43 0.43 0 0 0 15 1a0.43 0.43 0 0 0 0.29 0.53c0.32 0.13 0.63 0.31 1 0.49A18.14 18.14 0 0 1 20 4.35a8.72 8.72 0 0 1 2.25 2.73 10.21 10.21 0 0 1 0.67 4.27 15.54 15.54 0 0 1 -0.69 4.39 11.19 11.19 0 0 1 -2.83 4.56 9.34 9.34 0 0 1 -4.68 2.46 12.82 12.82 0 0 1 -6.47 -0.36 9.9 9.9 0 0 1 -5.13 -3.77 12.36 12.36 0 0 1 -2 -5.53 12.08 12.08 0 0 1 0.76 -5.83 9.57 9.57 0 0 1 2.82 -3.7A12.38 12.38 0 0 1 8.82 1.3 12.49 12.49 0 0 1 12 0.92a8.8 8.8 0 0 1 2.15 0.13 0.32 0.32 0 0 0 0.4 -0.21 0.31 0.31 0 0 0 -0.21 -0.39A10 10 0 0 0 11.46 0a11.48 11.48 0 0 0 -2.93 0.36A12.94 12.94 0 0 0 4 2.77 10.42 10.42 0 0 0 0.89 6.89a13.13 13.13 0 0 0 -0.8 6.33 13.28 13.28 0 0 0 2.23 6A10.84 10.84 0 0 0 8 23.3a13.83 13.83 0 0 0 7 0.38A10.3 10.3 0 0 0 20.11 21a12.36 12.36 0 0 0 3.1 -4.94 16.56 16.56 0 0 0 0.79 -4.68 11.23 11.23 0 0 0 -0.77 -4.79Z" fill="#4C57E6" fill-rule="evenodd" stroke-width="1"></path>
  </g>
</svg>