<svg xmlns="http://www.w3.org/2000/svg" viewBox="0 0 24 24" id="Truck-Empty-1--Streamline-Freehand">
  <desc>
    Truck Empty 1 Streamline Icon: https://streamlinehq.com
  </desc>
  <g>
    <path d="M22.56 16.22a3 3 0 0 0 -0.18 -0.77 1.42 1.42 0 0 0 -0.36 -0.54 1.78 1.78 0 0 0 -0.92 -0.35c-0.59 -0.08 -1.34 0 -1.67 0l-1.74 -0.08 -1.76 0a24.86 24.86 0 0 0 -3.52 0.36 0.28 0.28 0 0 0 -0.25 0.31 0.28 0.28 0 0 0 0.32 0.25 25.31 25.31 0 0 1 2.75 0c0.69 0 1.38 0.09 2.07 0.14s1.38 0.08 2.08 0.12l1.41 0a1.16 1.16 0 0 1 0.6 0.07 0.61 0.61 0 0 1 0.19 0.26 2.75 2.75 0 0 1 0.13 0.47c0.1 0.48 0.21 1 0.28 1.55a9.16 9.16 0 0 1 0.06 1 0.32 0.32 0 1 0 0.63 0 8.29 8.29 0 0 0 0 -1.12c0.01 -0.59 -0.06 -1.16 -0.12 -1.67Z" fill="#020202" fill-rule="evenodd" stroke-width="1"></path>
    <path d="M21.85 19.17a8 8 0 0 1 -1 -0.12 3.2 3.2 0 0 0 -0.69 0 3.68 3.68 0 0 0 -0.75 0.13 1.89 1.89 0 0 0 0 -0.67 1.86 1.86 0 0 0 -2.26 -1.66 0.32 0.32 0 0 0 -0.27 0.21 2.09 2.09 0 0 0 -1.41 1.05 1.46 1.46 0 0 0 -1.81 -1 0.32 0.32 0 0 0 -0.25 0.38 0.33 0.33 0 0 0 0.39 0.25c0.56 -0.1 0.86 0.37 0.92 0.87a1 1 0 0 1 -0.59 1.15 1.3 1.3 0 0 1 -0.9 -0.06c-0.29 -0.1 -0.6 -0.24 -0.68 -0.5a0.93 0.93 0 0 1 -0.06 -0.41l0 -0.25a1.55 1.55 0 0 1 0 -0.23 1.78 1.78 0 0 1 0.55 -0.83 0.27 0.27 0 0 0 0.09 -0.39 0.28 0.28 0 0 0 -0.38 -0.09l-0.19 0.12a1.55 1.55 0 0 0 -0.17 -0.68 1.17 1.17 0 0 0 -0.45 -0.43 1.83 1.83 0 0 0 -0.33 -0.11 0.32 0.32 0 0 0 0.17 -0.26c0 -1.29 0 -2.66 0.05 -4a11.7 11.7 0 0 1 0.5 -2.64 4 4 0 0 1 0.33 -0.83 3.51 3.51 0 0 1 0.5 -0.73 4.84 4.84 0 0 0 0.75 -0.86 0.61 0.61 0 0 0 0 -0.61 0.94 0.94 0 0 0 -0.24 -0.25 3.41 3.41 0 0 0 -0.42 -0.28 5.41 5.41 0 0 0 -0.86 -0.44 0.92 0.92 0 0 0 -0.7 0 3.49 3.49 0 0 0 -1.41 1 3.71 3.71 0 0 0 -0.56 0.94 0.29 0.29 0 0 0 -0.25 0.26v0.07a1.85 1.85 0 0 0 -0.78 -0.16 6.12 6.12 0 0 0 -1.08 0.14 9.92 9.92 0 0 0 -1.11 0.27 2.11 2.11 0 0 0 -0.79 0.48 1.61 1.61 0 0 0 -0.34 0.54c-0.13 0.32 -0.21 0.72 -0.32 1 -0.2 0.65 -0.46 1.27 -0.69 1.91A11.13 11.13 0 0 0 4 12.71c-0.24 0.1 -0.47 0.19 -0.68 0.3 -0.45 0.22 -0.88 0.48 -1.34 0.74a7 7 0 0 0 -1.16 0.69 1.68 1.68 0 0 0 -0.49 0.56 3.08 3.08 0 0 0 -0.28 0.89 6.88 6.88 0 0 0 0 1.28 6.11 6.11 0 0 0 0 1.19 1.1 1.1 0 0 0 0.49 0.64 2.76 2.76 0 0 0 1.24 0.35 14 14 0 0 0 2.53 -0.26A2 2 0 0 0 5.83 21a1.78 1.78 0 0 0 1.81 -0.65 2.31 2.31 0 0 0 0.36 -0.68s0.05 0.06 0.1 0.06a10.84 10.84 0 0 0 1.29 0.21 11.38 11.38 0 0 0 1.31 0.08 3.45 3.45 0 0 0 0.78 0 1 1 0 0 0 0.39 -0.15 2.23 2.23 0 0 0 1 0.81 2.28 2.28 0 0 0 1.7 0.05 1.84 1.84 0 0 0 0.83 -0.85 2 2 0 0 0 2.32 1.05 2.15 2.15 0 0 0 1.43 -1.05c0.28 0.05 0.54 0.14 0.83 0.19l0.44 0a3.52 3.52 0 0 0 0.45 0A4.4 4.4 0 0 0 22 19.8a0.31 0.31 0 0 0 0.25 -0.37 0.31 0.31 0 0 0 -0.4 -0.26ZM10.8 6.43c1.26 -1.31 1.53 -0.44 1.89 -0.16l0.17 0.14c-0.18 0.15 -0.45 0.31 -0.49 0.35a4.42 4.42 0 0 0 -0.67 1 5.16 5.16 0 0 0 -0.4 1.06 11.61 11.61 0 0 0 -0.3 2.73c0 1.36 0.19 2.74 0.24 4a0.26 0.26 0 0 0 0.07 0.17l-0.23 0a8.52 8.52 0 0 0 -1.13 0 0.29 0.29 0 0 0 0.07 -0.22c0 -1 0 -2 0.06 -3 0 -0.67 0.05 -1.33 0.05 -2 0 -1 -0.06 -1.9 -0.1 -2.85a2.81 2.81 0 0 1 0.77 -1.22ZM6 9.91c0.08 -0.2 0.15 -0.45 0.23 -0.69l0.59 0.07a0.75 0.75 0 0 1 0.41 0.13s0 0.07 0 0.12l0 0.58 0 0.89a5.77 5.77 0 0 1 -0.07 1.22 1.16 1.16 0 0 1 -0.22 0.56 0.14 0.14 0 0 1 -0.1 0.05 2.83 2.83 0 0 1 -0.4 0.08 8.59 8.59 0 0 1 -1.23 0.23 4.17 4.17 0 0 1 -0.79 0l0.06 0a0.29 0.29 0 0 0 0.15 -0.37s0.11 -0.25 0.17 -0.37c0.36 -0.9 0.85 -1.67 1.2 -2.5Zm0.84 9.8a0.81 0.81 0 0 1 -0.8 0.27 1 1 0 0 1 -0.86 -1.11 1.49 1.49 0 0 1 0.93 -1.43 0.24 0.24 0 0 0 0.1 -0.05 0.29 0.29 0 0 0 0.16 0.26 2.83 2.83 0 0 1 0.62 0.5 0.94 0.94 0 0 1 0.23 0.6 1.3 1.3 0 0 1 -0.34 0.96Zm4.75 -2.48c0 0.32 -0.07 0.66 -0.09 0.89a4.58 4.58 0 0 1 -0.09 0.58 0.58 0.58 0 0 1 -0.13 0.31 0.44 0.44 0 0 1 -0.17 0.07l-0.48 0.05q-0.62 0.07 -1.23 0.09l-1.24 0 -0.08 0a1.92 1.92 0 0 0 -0.4 -1.4 3.07 3.07 0 0 0 -1 -0.71 0.32 0.32 0 0 0 -0.37 0A0.29 0.29 0 0 0 6 16.9a2.14 2.14 0 0 0 -1.61 1.61 0.15 0.15 0 0 0 -0.07 0 15.84 15.84 0 0 1 -2.12 0.07 2.08 2.08 0 0 1 -1.12 -0.33C1 18.16 1 18 1 17.93c0 -0.29 0.05 -0.58 0 -0.79v-0.08l0.57 0.08a1.71 1.71 0 0 0 0.32 0l0.33 -0.05c0.27 -0.07 0.51 -0.16 0.77 -0.24a0.32 0.32 0 0 0 0.3 -0.34 0.32 0.32 0 0 0 -0.29 -0.31c-0.27 0 -0.52 -0.11 -0.8 -0.13a1.36 1.36 0 0 0 -0.35 0 1.35 1.35 0 0 0 -0.34 0.06 2.87 2.87 0 0 0 -0.44 0.17l0 -0.23a1.78 1.78 0 0 1 0.16 -0.6 1 1 0 0 1 0.29 -0.39 8.73 8.73 0 0 1 0.84 -0.6c0.42 -0.31 0.8 -0.61 1.22 -0.88 0.14 -0.1 0.31 -0.18 0.46 -0.27a0.28 0.28 0 0 0 0.23 0.33 4.78 4.78 0 0 0 0.91 0.14 10.44 10.44 0 0 0 1.37 0 4 4 0 0 0 0.69 -0.07 1 1 0 0 0 0.41 -0.25 1.92 1.92 0 0 0 0.53 -1.05A6.23 6.23 0 0 0 8.27 11l-0.08 -0.88c-0.06 -0.73 -0.12 -1.12 -0.38 -1.3a1.52 1.52 0 0 0 -0.89 -0.25h-0.27a1.7 1.7 0 0 1 0.23 -0.17 7.87 7.87 0 0 1 1 -0.35 4.17 4.17 0 0 1 0.89 -0.25 1.11 1.11 0 0 1 0.51 0 0.29 0.29 0 0 0 0.16 0c-0.1 0.74 -0.2 1.49 -0.26 2.24q0 0.63 -0.06 1.26t0 1.26a28.9 28.9 0 0 0 0.31 3 0.29 0.29 0 0 0 0.11 0.19c-0.38 0 -0.75 0.08 -1.12 0.15a0.32 0.32 0 0 0 -0.28 0.36 0.33 0.33 0 0 0 0.36 0.28 10.85 10.85 0 0 1 1.27 0 8.55 8.55 0 0 1 1.24 0.13l0.38 0.1c0.1 0 0.2 0.06 0.24 0.14a0.88 0.88 0 0 1 0 0.32Zm5.9 2.63a1 1 0 0 1 -1.38 -0.72 1.4 1.4 0 0 1 1 -1.59 0.23 0.23 0 0 0 0.16 -0.11 1.14 1.14 0 0 1 1.27 1.12 1.21 1.21 0 0 1 -1.01 1.3Z" fill="#020202" fill-rule="evenodd" stroke-width="1"></path>
    <path d="M17.41 9.08a1.65 1.65 0 0 0 0.85 -1.69 1.26 1.26 0 0 0 -1.36 -1.16l-0.11 0a0.27 0.27 0 0 0 -0.06 -0.16 0.27 0.27 0 0 0 -0.39 -0.07 3.22 3.22 0 0 0 -0.81 0.68 1.6 1.6 0 0 0 -0.33 0.77 1.64 1.64 0 0 0 0.59 1.43 1.51 1.51 0 0 0 1.62 0.2ZM16.22 7a2.56 2.56 0 0 1 0.36 -0.44 0.32 0.32 0 0 0 0.32 0.3 0.54 0.54 0 0 1 0.49 0.6 0.66 0.66 0 0 1 -0.43 0.64 0.53 0.53 0 0 1 -0.53 0 0.72 0.72 0 0 1 -0.35 -0.54 0.84 0.84 0 0 1 0.14 -0.56Z" fill="#4C57E6" fill-rule="evenodd" stroke-width="1"></path>
    <path d="M23.84 4.26A2.12 2.12 0 0 0 21.26 3a0.31 0.31 0 0 0 -0.24 0.23 0.3 0.3 0 0 0 -0.26 0A2.24 2.24 0 0 0 19.91 6a1.93 1.93 0 0 0 2.79 1.05 2.18 2.18 0 0 0 1.14 -2.79Zm-1.62 1.82a1 1 0 0 1 -1.48 -0.45 1.54 1.54 0 0 1 0.35 -1.9 0.29 0.29 0 0 0 0.1 -0.12 0.27 0.27 0 0 0 0.2 0 1.39 1.39 0 0 1 1.6 0.94 1.24 1.24 0 0 1 -0.77 1.53Z" fill="#4C57E6" fill-rule="evenodd" stroke-width="1"></path>
  </g>
</svg>