<svg xmlns="http://www.w3.org/2000/svg" viewBox="0 0 24 24" id="Tv-Retro--Streamline-Freehand">
  <desc>
    Tv Retro Streamline Icon: https://streamlinehq.com
  </desc>
  <g>
    <path d="M23.89 16c-0.09 -0.75 -0.16 -1.48 -0.21 -2.21s-0.09 -1.46 -0.1 -2.22l0 -4.48 0 -1.95a9.55 9.55 0 0 0 -0.08 -1.71 1.5 1.5 0 0 0 -0.54 -0.89 2.87 2.87 0 0 0 -1.35 -0.49 19.57 19.57 0 0 0 -2.89 0l-3 0.06 -4.72 0.38L5 3c-1 0.06 -1.95 0.06 -2.92 0.16a9.23 9.23 0 0 0 -1.28 0.21 0.33 0.33 0 0 0 -0.26 0.32 0.32 0.32 0 0 0 -0.29 -0.19 0.3 0.3 0 0 0 -0.25 0.28C0.07 5.9 0.12 8 0.21 10.1c0.06 1.41 0.13 2.82 0.25 4.23L0.67 17l0 0.67a1 1 0 0 0 0.2 0.48 1.75 1.75 0 0 0 0.9 0.52 6.68 6.68 0 0 0 1.76 0.13 3.87 3.87 0 0 0 -0.47 0.52 4.19 4.19 0 0 0 -0.46 0.83c-0.2 0.44 -0.33 0.89 -0.49 1.31a0.34 0.34 0 0 0 0.14 0.46 0.34 0.34 0 0 0 0.47 -0.13c0.25 -0.34 0.54 -0.69 0.81 -1.08 0.11 -0.15 0.21 -0.31 0.31 -0.47s0.19 -0.32 0.27 -0.48c0.17 -0.35 0.3 -0.68 0.47 -1l5.61 -0.09c2.21 0 4.42 -0.09 6.63 -0.12l2.81 0h0.77c0.07 0.29 0.13 0.59 0.23 0.88a4.4 4.4 0 0 0 0.21 0.5q0.12 0.24 0.27 0.48c0.23 0.36 0.49 0.69 0.76 1a0.34 0.34 0 0 0 0.46 0.13 0.34 0.34 0 0 0 0.14 -0.46c-0.15 -0.4 -0.25 -0.79 -0.39 -1.19 -0.06 -0.17 -0.13 -0.33 -0.2 -0.5s-0.16 -0.32 -0.25 -0.47a3.91 3.91 0 0 0 -0.3 -0.41h0.93l0.71 0a1.25 1.25 0 0 0 0.55 -0.23 1.39 1.39 0 0 0 0.45 -0.82 5 5 0 0 0 -0.08 -1.46Zm-13.71 1.6 -6.46 0.22a9.58 9.58 0 0 1 -1.51 0 1.19 1.19 0 0 1 -0.65 -0.25c0.16 -0.09 0 -0.51 0 -0.66l-0.26 -2.68c-0.14 -1.4 -0.25 -2.8 -0.34 -4.19C0.8 8 0.71 5.89 0.61 3.79A0.33 0.33 0 0 0 1 4a10.47 10.47 0 0 1 1.59 -0.2c0.84 0 1.69 0 2.5 -0.09L11 3.32l4 -0.19a10.34 10.34 0 0 1 0.11 2c0 1.11 -0.16 2.22 -0.22 3.33l0 2.75c0 0.62 0.07 1.23 0.12 1.84a42.16 42.16 0 0 0 0.62 4.41c-1.8 0.06 -3.63 0.14 -5.45 0.18Zm12.65 -0.23c0.05 0.2 -0.47 0 -0.63 0h-2.55l-2.86 0h-0.43c-0.14 -1.15 -0.22 -2.34 -0.26 -3.53l0 -2.71 0 -2.71c0 -1.12 0 -2.25 -0.08 -3.37a12.75 12.75 0 0 0 -0.3 -2h3c0.64 0 1.55 -0.09 2.38 0a2.33 2.33 0 0 1 1.25 0.36c0.13 0.09 0.14 0.28 0.16 0.47a12.18 12.18 0 0 1 0 1.34l0 6.42c0 0.77 0 1.52 0.09 2.27s0.12 1.51 0.22 2.27a8.55 8.55 0 0 1 0.1 0.86c0 0.14 0 0.29 -0.06 0.38s-0.03 -0.03 -0.03 -0.01Z" fill="#020202" fill-rule="evenodd" stroke-width="1"></path>
    <path d="M19.24 4.83a0.19 0.19 0 0 0 -0.13 0c-1.27 -0.09 -1.79 1 -1.65 2a2 2 0 0 0 2.18 1.81 1.75 1.75 0 0 0 1.48 -2.34 1.89 1.89 0 0 0 -1.88 -1.47Zm0.28 2.65a1 1 0 0 1 -1.11 -0.84 0.94 0.94 0 0 1 0.4 -1.15 0.32 0.32 0 0 0 0.25 0.06 1.07 1.07 0 0 1 1.12 1 0.74 0.74 0 0 1 -0.66 0.93Z" fill="#4C57E6" fill-rule="evenodd" stroke-width="1"></path>
    <path d="M19 11.91a1.08 1.08 0 0 0 0.31 0 1.06 1.06 0 0 0 0.31 -0.05 6.23 6.23 0 0 0 0.73 -0.24 0.34 0.34 0 1 0 -0.05 -0.68c-0.26 0 -0.48 -0.12 -0.73 -0.16l-0.31 0a1.1 1.1 0 0 0 -0.31 0 6.3 6.3 0 0 0 -0.72 0.28 0.31 0.31 0 0 0 -0.28 0.32 0.3 0.3 0 0 0 0.32 0.29c0.26 0.1 0.47 0.19 0.73 0.24Z" fill="#4C57E6" fill-rule="evenodd" stroke-width="1"></path>
    <path d="M20.66 14.2a5.71 5.71 0 0 0 -0.81 -0.18h-0.34a1.86 1.86 0 0 0 -0.34 0.06c-0.24 0.08 -0.44 0.21 -0.72 0.33a0.3 0.3 0 0 0 -0.27 0.33 0.31 0.31 0 0 0 0.33 0.28 5.72 5.72 0 0 0 0.9 0.16 2.15 2.15 0 0 0 0.5 -0.07c0.24 0 0.45 -0.15 0.74 -0.22a0.35 0.35 0 0 0 0 -0.69Z" fill="#4C57E6" fill-rule="evenodd" stroke-width="1"></path>
  </g>
</svg>