<svg xmlns="http://www.w3.org/2000/svg" viewBox="0 0 24 24" id="Underwear-Boxers--Streamline-Freehand">
  <desc>
    Underwear Boxers Streamline Icon: https://streamlinehq.com
  </desc>
  <g>
    <path d="M10 7.1c0.08 0 8.39 0.35 9.68 0.35a13.72 13.72 0 0 0 1.87 -0.21c0.79 -0.14 0.46 -1 -0.12 -0.85a15.29 15.29 0 0 1 -1.75 0.12l-2.81 0L10 6.34l-2.86 0c-2 0 -3.61 0.13 -5.67 0.18 -0.55 0 -0.42 0.72 0.12 0.64 2 0 3.62 -0.09 5.57 -0.11s2.77 0.05 2.84 0.05Z" fill="#4C57E6" fill-rule="evenodd" stroke-width="1"></path>
    <path d="m24 12.39 -0.08 -2.58a8.41 8.41 0 0 0 -0.27 -2.4 2.57 2.57 0 0 0 -0.3 -0.57 0.37 0.37 0 0 0 0.12 -0.25c0 -0.61 0.1 -1.09 0.13 -1.61a10.82 10.82 0 0 0 0 -1.12 6.08 6.08 0 0 0 -0.09 -1.27A1.2 1.2 0 0 0 23.1 2a1.29 1.29 0 0 0 -0.54 -0.25 8.47 8.47 0 0 0 -0.95 -0.13 13.73 13.73 0 0 0 -1.5 -0.14l-2.2 0 -5.09 0.18c-1.74 0 -3.49 -0.08 -5.24 -0.11l-2.26 0a17.68 17.68 0 0 0 -3.48 0.15 2.93 2.93 0 0 0 -1.5 0.75 1.33 1.33 0 0 0 -0.27 0.69l0 1.21a9.84 9.84 0 0 0 0 1.09c0 0.44 0.06 0.86 0.09 1.58a0.3 0.3 0 0 0 0.31 0.3c0.07 0 0.42 0 0.27 -1.9a6.34 6.34 0 0 1 0.05 -1l0 -1C0.83 3.2 0.84 3 0.91 3a2.48 2.48 0 0 1 1.55 -0.52 25.35 25.35 0 0 1 2.86 0.08l7.5 0.22 1 0c1.35 -0.07 2.7 -0.25 4.05 -0.28 0.78 0 1.47 -0.06 2.18 -0.05a13.8 13.8 0 0 1 1.4 0.07c0.19 0 0.5 0 0.78 0.06 0.11 0 0.22 0 0.28 0.08a0.5 0.5 0 0 1 0.18 0.34 8.38 8.38 0 0 1 0.07 1 6.15 6.15 0 0 1 0.05 1 3.22 3.22 0 0 1 -0.15 1.1 2.21 2.21 0 0 0 -0.15 1.56 22 22 0 0 1 0.32 2.22l0 2.54 -0.19 7.13a6.49 6.49 0 0 1 0 1.25 0.65 0.65 0 0 1 -0.48 0.52 4.16 4.16 0 0 1 -1.11 0.14c-1 0 -2.17 -0.13 -3 -0.12 -0.28 0 -0.6 0.05 -0.9 0a0.76 0.76 0 0 1 -0.34 -0.06 2.47 2.47 0 0 1 -0.71 -0.66 11 11 0 0 1 -0.9 -1.48c-0.44 -0.79 -1.34 -2.95 -2.08 -4.16l-0.12 -0.36a3.68 3.68 0 0 0 0.47 -0.15 4.23 4.23 0 0 0 0.86 -0.46 2.44 2.44 0 0 0 0.53 -0.47 8.77 8.77 0 0 0 1.61 -3 12.59 12.59 0 0 0 0.48 -2.71 0.37 0.37 0 0 0 -0.73 -0.1 11.66 11.66 0 0 1 -0.59 2.53A7.65 7.65 0 0 1 14 12.82a1.61 1.61 0 0 1 -0.43 0.32 3.78 3.78 0 0 1 -0.54 0.26 3.19 3.19 0 0 1 -0.44 0.13 3 3 0 0 1 -0.43 0.06 2.62 2.62 0 0 1 -2.22 -0.89 5.12 5.12 0 0 1 -1.15 -2.43 16.68 16.68 0 0 1 -0.31 -2l0 -0.65c-0.07 -0.54 -0.59 -0.42 -0.64 0a4.5 4.5 0 0 0 -0.07 0.63 16 16 0 0 0 0.13 2.15 5.9 5.9 0 0 0 1.18 3A3.59 3.59 0 0 0 11 14.63a5.23 5.23 0 0 0 -0.3 0.54c-0.7 1.41 -1.5 3.94 -1.89 4.93a4.94 4.94 0 0 1 -0.32 0.73 1 1 0 0 1 -0.32 0.46 2.66 2.66 0 0 1 -1 0.3 10.8 10.8 0 0 1 -1.76 -0.08c-0.81 -0.05 -1.38 -0.17 -2.06 -0.23l-0.93 0h-1.1a1.53 1.53 0 0 1 -0.4 -0.9 12.48 12.48 0 0 1 -0.07 -1.88V14l0.07 -6.39a0.35 0.35 0 0 0 -0.35 -0.34 0.36 0.36 0 0 0 -0.34 0.35L0.09 14 0 18.48a9.38 9.38 0 0 0 0.12 2.38 2.17 2.17 0 0 0 0.59 1.06 1.31 1.31 0 0 0 0.66 0.24 9.06 9.06 0 0 0 1.05 0 5.57 5.57 0 0 1 0.84 0c0.68 0.06 1.26 0.19 2.07 0.26a13 13 0 0 0 1.92 0.1 3.52 3.52 0 0 0 1.36 -0.39 1.78 1.78 0 0 0 0.55 -0.52 7 7 0 0 0 0.58 -1.17 41.18 41.18 0 0 1 2.16 -5.34l0.07 0.08a10.91 10.91 0 0 1 0.75 1.34c0.58 1.17 1.18 2.56 1.51 3.16a12.8 12.8 0 0 0 1 1.63 3.65 3.65 0 0 0 1.08 1 1.76 1.76 0 0 0 0.66 0.2 10.45 10.45 0 0 0 1.13 0c0.84 0 2 0.14 3 0.12a5.21 5.21 0 0 0 1.43 -0.19 1.68 1.68 0 0 0 1.15 -1 5 5 0 0 0 0.17 -1.83Z" fill="#020202" fill-rule="evenodd" stroke-width="1"></path>
  </g>
</svg>