<svg xmlns="http://www.w3.org/2000/svg" viewBox="0 0 24 24" id="Upload-Dash-Arrow--Streamline-Freehand">
  <desc>
    Upload Dash Arrow Streamline Icon: https://streamlinehq.com
  </desc>
  <g>
    <path d="M10.78 16.69c0.41 0 0.74 -1 0.21 -2.11a0.36 0.36 0 0 0 -0.71 0.09c-0.14 0.65 -0.06 2.05 0.5 2.02Z" fill="#4C57E6" fill-rule="evenodd" stroke-width="1"></path>
    <path d="M11.31 18a0.36 0.36 0 0 0 -0.71 0.09c-0.14 0.65 -0.06 2.05 0.5 2 0.41 -0.03 0.74 -1.04 0.21 -2.09Z" fill="#4C57E6" fill-rule="evenodd" stroke-width="1"></path>
    <path d="M11.08 22c-0.14 0.64 -0.06 2 0.5 2 0.41 0 0.74 -1 0.21 -2.1a0.36 0.36 0 1 0 -0.71 0.1Z" fill="#4C57E6" fill-rule="evenodd" stroke-width="1"></path>
    <path d="M13.74 14.58c-0.52 1.08 -0.2 2.09 0.21 2.11 0.56 0 0.64 -1.37 0.5 -2a0.36 0.36 0 0 0 -0.71 -0.11Z" fill="#4C57E6" fill-rule="evenodd" stroke-width="1"></path>
    <path d="M13.42 18c-0.52 1.08 -0.19 2.09 0.21 2.11 0.56 0 0.64 -1.37 0.5 -2a0.36 0.36 0 0 0 -0.71 -0.11Z" fill="#4C57E6" fill-rule="evenodd" stroke-width="1"></path>
    <path d="M12.94 21.9c-0.52 1.07 -0.19 2.08 0.21 2.1 0.56 0 0.64 -1.37 0.51 -2a0.36 0.36 0 1 0 -0.72 -0.1Z" fill="#4C57E6" fill-rule="evenodd" stroke-width="1"></path>
    <path d="M20.49 10.22C20 7.9 15.39 0.21 13.13 0 9.77 -0.29 4.31 7.14 3.56 10.62c-0.24 1.09 -0.07 2.36 1 2.2a12 12 0 0 0 5.3 -3.45 0.69 0.69 0 0 1 0.12 -0.1 29.75 29.75 0 0 1 0.25 3.78 0.32 0.32 0 0 0 0.64 0l-0.06 -2.89c-0.13 -1.27 -0.07 -1.79 -0.66 -1.83 -0.29 0 -0.77 0.42 -0.93 0.63a11.31 11.31 0 0 1 -4.76 2.92C3.73 9.94 10.28 1 13 1.21c0.43 0 1.4 1 1.69 1.39a32.34 32.34 0 0 1 4.62 7.15c0.39 1.06 0.44 1.42 -0.7 0.88A12.87 12.87 0 0 1 16 9c-0.22 -0.18 -0.69 -0.72 -1.06 -0.72 -0.7 0 -0.3 1.09 -0.87 4.3a0.36 0.36 0 0 0 0.71 0.13c0.16 -0.82 0.35 -2.37 0.46 -3.27a11.22 11.22 0 0 0 4.05 2.34c1.03 0.27 1.39 -0.56 1.2 -1.56Z" fill="#020202" fill-rule="evenodd" stroke-width="1"></path>
  </g>
</svg>