<svg xmlns="http://www.w3.org/2000/svg" viewBox="0 0 24 24" id="Upload-Laptop--Streamline-Freehand">
  <desc>
    Upload Laptop Streamline Icon: https://streamlinehq.com
  </desc>
  <g>
    <path d="M3.46 15.87c0.21 1.18 0.53 2.44 0.81 3.49a0.31 0.31 0 0 0 0.6 -0.13c-0.1 -0.65 -0.7 -6.44 -0.48 -6.77a1.8 1.8 0 0 1 1 -0.61c1.74 -0.59 2.61 -0.26 2.52 -0.85a0.35 0.35 0 0 0 -0.37 -0.31c-4.2 0.31 -4.87 0.75 -4.08 5.18Z" fill="#4C57E6" fill-rule="evenodd" stroke-width="1"></path>
    <path d="M14.92 10.52a0.31 0.31 0 0 0 0 0.61c0.94 0 3.84 0.17 4.36 0.95s-0.08 5.8 -0.48 7.41a0.34 0.34 0 0 0 0.66 0.18 29.63 29.63 0 0 0 1 -4.74c0.09 -0.85 0.24 -2.82 -0.28 -3.51 -0.86 -1.2 -3.65 -1.03 -5.26 -0.9Z" fill="#4C57E6" fill-rule="evenodd" stroke-width="1"></path>
    <path d="M21.25 21.18c-0.16 -0.56 -1.76 -0.6 -2.15 -0.48s-0.41 0.65 0.19 0.66c0.25 0 1 0.35 1.27 0.21a1.72 1.72 0 0 1 -0.9 1.37c-2.6 0 -13.36 0 -15.37 -0.35 -0.47 -0.59 -0.51 -1 -0.45 -1.16s0.56 0 0.89 0c2.91 -0.23 9.88 -0.16 12.79 -0.1a0.31 0.31 0 0 0 0 -0.61c-2.95 -0.17 -9.92 -0.52 -12.88 -0.4 -0.55 0 -1.45 0.05 -1.73 0.45a2.36 2.36 0 0 0 0.78 2.86c1.17 0.73 15.84 0.27 16.24 0.11a2.41 2.41 0 0 0 1.32 -2.56Z" fill="#020202" fill-rule="evenodd" stroke-width="1"></path>
    <path d="M5.79 8.66c0.92 0.09 3.13 -1.32 3.85 -2 0.21 2.12 0.84 8.47 1.12 9.31a0.31 0.31 0 0 0 0.58 -0.19c-0.33 -1.07 -0.72 -8.84 -0.87 -9.88 -0.1 -0.76 -0.88 -0.67 -1.35 -0.06a7.83 7.83 0 0 1 -3 1.76c0 0.09 0 -1.13 2.14 -3.59 0.8 -0.92 3.21 -3.46 4.11 -2.64a20 20 0 0 1 3.78 6 17.42 17.42 0 0 1 -3 -2.13 0.76 0.76 0 0 0 -0.33 -0.24 0.55 0.55 0 0 0 -0.45 0.59c0.14 1.44 0.31 -1 -0.86 10.17a0.35 0.35 0 0 0 0.69 0c0 0.08 1.37 -7.07 1.17 -9.3 0.81 0.67 1.87 1.77 3.12 1.81a0.69 0.69 0 0 0 0.67 -0.27c0.3 -0.68 -0.37 -1.8 -0.55 -2.23a17.88 17.88 0 0 0 -2.81 -4.53C13.29 0.66 12.9 -0.07 11.88 0 9.36 0.19 3.81 6.59 5.32 8.42a0.67 0.67 0 0 0 0.47 0.24Z" fill="#020202" fill-rule="evenodd" stroke-width="1"></path>
  </g>
</svg>