<svg xmlns="http://www.w3.org/2000/svg" viewBox="0 0 24 24" id="Various-Camping-Van--Streamline-Freehand">
  <desc>
    Various Camping Van Streamline Icon: https://streamlinehq.com
  </desc>
  <g>
    <path d="M3.44 13.26a0.29 0.29 0 0 0 0.16 0.38 2 2 0 0 0 0.92 0.44 1.43 1.43 0 0 0 0.58 0 4 4 0 0 0 0.58 -0.21 0.31 0.31 0 0 0 0.22 0.13 0.33 0.33 0 0 0 0.35 -0.31l0.15 -1.16c0 -0.28 0.06 -0.57 0 -0.86a10.19 10.19 0 0 0 -0.13 -1.11 0.32 0.32 0 0 0 0.22 -0.29 0.33 0.33 0 0 0 -0.33 -0.33 3 3 0 0 0 -1.55 0.16 2.15 2.15 0 0 0 -0.9 0.75 2 2 0 0 0 -0.19 0.36 5.08 5.08 0 0 0 -0.15 0.52 3.78 3.78 0 0 0 -0.13 0.85 1.49 1.49 0 0 0 0.12 0.64s0.07 0.02 0.08 0.04Zm0.56 -0.57a3 3 0 0 1 0.31 -0.59l0.38 -0.64a1.24 1.24 0 0 1 0.57 -0.56 2.21 2.21 0 0 1 0.27 -0.12 4.11 4.11 0 0 0 -0.2 0.84 5.78 5.78 0 0 0 0 0.93l0.11 0.52C5.22 13 5 13 4.72 13a1.23 1.23 0 0 0 -0.27 0c-0.17 0 -0.32 0.07 -0.49 0.09l0 -0.06a0.87 0.87 0 0 1 0.04 -0.34Z" fill="#020202" fill-rule="evenodd" stroke-width="1"></path>
    <path d="M7.66 14.05a0.52 0.52 0 0 0 0.38 0.16 3.29 3.29 0 0 0 0.76 -0.06c0.5 -0.09 1 -0.29 1.48 -0.37 0.33 -0.06 0.65 -0.07 1 -0.13a3.43 3.43 0 0 0 0.46 -0.11 0.32 0.32 0 0 0 0.26 -0.34 0.36 0.36 0 0 0 0.24 0.13 0.33 0.33 0 0 0 0.36 -0.3l0.24 -1.83 0.14 -1a0.6 0.6 0 0 0 -0.55 -0.53h-0.29l-1 0c-0.66 0.08 -1.32 0.16 -2 0.2l-0.84 0a0.28 0.28 0 0 0 -0.27 0.17 0.5 0.5 0 0 0 -0.13 0 0.3 0.3 0 0 0 -0.26 0.33l0 0.8c0 0.26 0 0.8 -0.08 1.2s-0.15 1.44 0.1 1.68Zm2 -3.3c0.49 0.05 1 0.07 1.46 0.1l0.68 0v0.33l0.09 1.82a0.3 0.3 0 0 0 -0.34 -0.12H10.2L8.59 13l0 -0.64 -0.3 -1.86a11.9 11.9 0 0 0 1.4 0.25Z" fill="#020202" fill-rule="evenodd" stroke-width="1"></path>
    <g>
      <path d="M14.2 7.46a13.52 13.52 0 0 0 1.17 -0.81c0.25 -0.2 0.48 -0.41 0.71 -0.63a11.59 11.59 0 0 0 1.51 -1.82c0 0.07 0.06 0.15 0.1 0.23 0.17 0.34 0.38 0.66 0.57 1a9.92 9.92 0 0 0 0.69 1 7.33 7.33 0 0 0 0.82 0.85A16.63 16.63 0 0 0 22 8.81l-0.34 0 -2 0c-0.67 0 -1.08 0 -1.62 0.06L16.93 9c-0.63 0.07 -1.26 0.13 -1.89 0.17 -0.69 0.44 -0.64 0.69 0.25 0.75A16.57 16.57 0 0 0 17 10l1.37 0h0.05a0.3 0.3 0 0 0 0.06 0.41A9.82 9.82 0 0 0 20 11.63a9.12 9.12 0 0 0 1 0.53c0.4 0.2 0.79 0.38 1.17 0.59a1.09 1.09 0 0 0 0 0.18c0 0.86 0 1.72 0.06 2.58s0.21 1.67 0.25 2.51c0.1 1 0.39 0.86 0.84 0l0 -2.56c0 -0.85 0 -1.7 -0.08 -2.55 -0.07 -1.22 -0.2 -2.43 -0.34 -3.64a0.38 0.38 0 0 0 0.22 -0.14 0.32 0.32 0 0 0 -0.12 -0.46c-0.59 -0.49 -1.14 -1 -1.69 -1.48 -0.4 -0.37 -0.78 -0.76 -1.17 -1.15s-0.77 -0.75 -1.14 -1.17 -0.5 -0.54 -0.72 -0.83a3.87 3.87 0 0 1 -0.38 -0.58 0.29 0.29 0 0 0 -0.54 0.2 0.31 0.31 0 0 0 -0.29 0.1A10.71 10.71 0 0 1 15.77 5c-0.35 0.28 -0.71 0.52 -1.08 0.79s-0.71 0.53 -1.09 0.79 -0.76 0.61 -1.15 0.89c-0.43 0.52 -0.26 0.77 1 0.4Zm8 4.29a7.47 7.47 0 0 0 -1.8 -1.16c-0.49 -0.23 -1 -0.39 -1.47 -0.64l0.83 -0.08c0.63 -0.08 1.28 -0.25 1.93 -0.31a3.74 3.74 0 0 1 0.58 0c-0.05 0.73 -0.07 1.44 -0.1 2.19Z" fill="#4C57E6" fill-rule="evenodd" stroke-width="1"></path>
      <path d="M23.64 19.36c-2 0.14 -4.13 0 -6.17 0.07l-6.47 0.15a1.34 1.34 0 0 0 0.4 -0.45 2 2 0 0 0 0.16 -0.49c0.35 0.08 0.7 0.21 1.06 0.28a1.77 1.77 0 0 0 0.65 0 1.33 1.33 0 0 0 1.12 -1.21v-0.92a0.32 0.32 0 0 0 -0.29 -0.34 0.61 0.61 0 0 0 0.05 -0.12 20.89 20.89 0 0 0 0.42 -3.09c0.08 -1.52 0 -3.27 -1 -4.37a1.8 1.8 0 0 0 -0.71 -0.34 51.43 51.43 0 0 0 -5.23 -0.46 14.79 14.79 0 0 0 -1.75 0.1c-0.51 0.07 -1.08 0.07 -1.61 0.17a3.82 3.82 0 0 0 -0.77 0.23 2.43 2.43 0 0 0 -1.22 1.37A5.48 5.48 0 0 0 2 12.37a2.45 2.45 0 0 0 -1.5 1.32 5.11 5.11 0 0 0 -0.5 1.67A9.06 9.06 0 0 0 0.05 17l0.16 1.09a1.32 1.32 0 0 0 0.06 0.39 0.64 0.64 0 0 0 0.19 0.3 1.46 1.46 0 0 0 0.89 0.33A6.52 6.52 0 0 0 2.78 19a1.31 1.31 0 0 0 0.39 0.73l-1.25 0.05c-0.41 0 -0.82 0.05 -1.22 0.1a0.3 0.3 0 1 0 0.05 0.59l1.19 0 1.8 0 6 0.27c1.3 0 2.6 0 3.91 -0.06s2.6 -0.17 3.88 -0.25 2.88 -0.13 4.32 -0.22c0.63 0 1.25 -0.09 1.87 -0.16a0.33 0.33 0 0 0 0.3 -0.36 0.33 0.33 0 0 0 -0.38 -0.33ZM4.4 18.83a0.41 0.41 0 0 1 -0.41 0.11 0.32 0.32 0 0 1 -0.22 -0.27 1 1 0 0 1 0 -0.43c0.06 -0.24 0.16 -0.48 0.4 -0.54a0.33 0.33 0 0 0 0.11 0.23 1.57 1.57 0 0 1 0.25 0.35 0.55 0.55 0 0 1 0.07 0.28c-0.01 0.11 -0.11 0.19 -0.2 0.27Zm0.6 0.84a1.49 1.49 0 0 0 0.47 -0.93 3.76 3.76 0 0 0 1.1 0.21 8.34 8.34 0 0 0 0.85 -0.07l1.28 -0.28a1.65 1.65 0 0 0 0.22 0.53 1.43 1.43 0 0 0 0.55 0.48Zm5.62 -2.37a1.16 1.16 0 0 1 0.06 1.13 0.41 0.41 0 0 1 -0.59 0.26 0.61 0.61 0 0 1 -0.36 -0.34 1 1 0 0 1 -0.07 -0.64 0.81 0.81 0 0 1 0.62 -0.64 0.3 0.3 0 0 0 0.26 -0.32 0.31 0.31 0 0 0 -0.32 -0.27A1.6 1.6 0 0 0 8.7 17.8a0.34 0.34 0 0 0 0 0.1l-1.36 -0.11a4.48 4.48 0 0 0 -0.64 0.05 7.86 7.86 0 0 1 -1.37 0.24L5.24 18a2.52 2.52 0 0 0 -0.51 -0.52 0.37 0.37 0 0 0 -0.33 -0.07 0.3 0.3 0 0 0 -0.33 -0.24 1.43 1.43 0 0 0 -1.25 1.16 11.23 11.23 0 0 1 -1.19 0c-0.55 0 -0.42 0 -0.48 -1.38a0.61 0.61 0 0 1 0 -0.14 1.35 1.35 0 0 0 0.36 0.08 1.37 1.37 0 0 0 0.4 -0.05c0.2 -0.06 0.35 -0.16 0.55 -0.21a0.34 0.34 0 1 0 0 -0.67 2.93 2.93 0 0 0 -0.66 -0.18 1.15 1.15 0 0 0 -0.26 0 1 1 0 0 0 -0.25 0l-0.2 0.1 0 -0.44a5.32 5.32 0 0 1 0.2 -1.4 1.67 1.67 0 0 1 1.16 -1.2 0.29 0.29 0 0 0 0.23 -0.34 0.27 0.27 0 0 0 -0.16 -0.2 5.14 5.14 0 0 1 0.34 -1.7 1.72 1.72 0 0 1 1 -1.07 3.61 3.61 0 0 1 0.57 -0.12c0.53 -0.07 1.09 -0.08 1.59 -0.14a20.4 20.4 0 0 1 2 -0.2l2.09 0L11.39 9s0.09 0.06 0.14 0.05a4.24 4.24 0 0 1 1 0.15 1.2 1.2 0 0 1 0.64 0.43 1.33 1.33 0 0 1 0.18 0.54c0.07 0.37 0.07 0.77 0.1 1.1 0.05 0.48 0.07 1 0.1 1.47s0.06 1 0.06 1.49c0 0.68 0 1.34 -0.08 2a0.34 0.34 0 0 0 0.28 0.38 0.31 0.31 0 0 0 -0.07 0.14l-0.21 0.74a0.49 0.49 0 0 1 -0.44 0.33l-0.4 0.06c-0.35 0 -0.72 0.06 -1.06 0.12a1.7 1.7 0 0 0 -0.52 -1.16 0.33 0.33 0 0 0 -0.47 0 0.34 0.34 0 0 0 -0.02 0.46Z" fill="#020202" fill-rule="evenodd" stroke-width="1"></path>
    </g>
  </g>
</svg>