<svg xmlns="http://www.w3.org/2000/svg" viewBox="0 0 24 24" id="Various-Building-Oil-Rig--Streamline-Freehand">
  <desc>
    Various Building Oil Rig Streamline Icon: https://streamlinehq.com
  </desc>
  <title>various-building-oil-rig</title>
  <g>
    <path d="M6.85 15.15c0.12 0.17 0.13 0.11 0.07 0h-0.06l0 0.05 0.91 0.06 2.81 -0.06 2.55 0.11 2.56 0c1.14 0 2.27 0 3.41 -0.08l2.45 -0.06 0.86 0 0.43 0a0.35 0.35 0 0 0 0.18 -0.07s0.26 -0.63 -0.24 -0.63l-0.34 0 -0.86 0 -2.45 -0.12 -2.55 -0.11c-0.85 0 -1.7 -0.05 -2.55 -0.05 -1.14 0 -2.28 0 -3.42 0.07l-2.81 0.32h-0.9a0.7 0.7 0 0 0 -0.5 0.22 0.3 0.3 0 0 0 -0.09 0.26 0.27 0.27 0 0 0 0.18 0.25 0.28 0.28 0 0 0 0.27 0 0.22 0.22 0 0 0 0.09 -0.16Z" fill="#020202" fill-rule="evenodd" stroke-width="1"></path>
    <path d="M8.59 15.27a0.21 0.21 0 0 0 0.26 0.09 0.3 0.3 0 0 1 -0.26 -0.09Zm0.51 -0.15a0.33 0.33 0 0 0 0 -0.17 0.27 0.27 0 0 0 -0.1 -0.18c-0.14 -0.12 -0.28 -0.08 -0.42 0.05a2.65 2.65 0 0 0 -0.15 0.54l-0.22 1c0 0.23 -0.09 0.49 -0.13 0.77a6.23 6.23 0 0 0 -0.05 0.77c0 0.83 0.05 1.69 0.05 2.32a0.35 0.35 0 0 0 0.31 0.38 0.34 0.34 0 0 0 0.38 -0.31c0.13 -0.62 0.32 -1.48 0.42 -2.31a6.78 6.78 0 0 0 0.05 -0.77l0 -0.77 -0.08 -1s0 -0.28 -0.06 -0.32Z" fill="#020202" fill-rule="evenodd" stroke-width="1"></path>
    <path d="M12.75 18.63a0.28 0.28 0 0 0 -0.37 0.05 0.36 0.36 0 0 1 0.37 -0.05Zm0.18 0.2c0 -0.34 0.25 -1.16 0.3 -1.35a5.82 5.82 0 0 0 0.06 -1c0 -0.32 -0.11 -0.63 -0.16 -0.95 0 -0.06 0 -0.43 -0.08 -0.47l0.06 -0.12a0.32 0.32 0 0 0 -0.22 -0.38c-0.24 -0.1 -0.38 0 -0.5 0.25a2.39 2.39 0 0 0 -0.13 0.72c0 0.26 -0.1 0.51 -0.12 0.77s0 0.72 0 1.08a14.69 14.69 0 0 0 0.09 1.49 0.73 0.73 0 0 0 0.15 0.39 0.33 0.33 0 0 0 0.47 0 0.34 0.34 0 0 0 0.08 -0.43Z" fill="#020202" fill-rule="evenodd" stroke-width="1"></path>
    <path d="M15.7 19.76a0.29 0.29 0 0 0 0.34 0.12 0.3 0.3 0 0 0 0.28 -0.11s0 0 0 -0.05v-0.05a0.15 0.15 0 0 0 0 -0.07c0 -0.24 0.09 -0.8 0.13 -1a12 12 0 0 0 0.17 -1.2 7.38 7.38 0 0 0 -0.08 -1.24l-0.22 -0.93 0 -0.18a0.2 0.2 0 0 0 0 -0.11 0.31 0.31 0 0 0 -0.28 -0.34c-0.17 0 -0.28 0.07 -0.37 0.23a1.46 1.46 0 0 0 -0.07 0.4l-0.08 1c0 0.23 0 0.45 -0.07 0.68s0 0.46 0 0.69l0 0.94c0 0.31 0.09 0.82 0.12 1.08 0.12 0.09 0.12 0.12 0.13 0.14Z" fill="#020202" fill-rule="evenodd" stroke-width="1"></path>
    <path d="M19.74 14.91a0.39 0.39 0 0 1 -0.06 0.11c0.05 0.05 0.02 0.06 0.06 -0.11Zm-0.11 5V20a0.39 0.39 0 0 0 0 -0.09Zm0 0.08Zm-0.46 -5.12c-0.08 0 0 0.3 0 0.37V16l0 1.12c0 0.38 0 0.55 0.08 0.83s0.09 0.54 0.11 0.81l0.18 0.93c0 0.07 0.05 0.32 0.06 0.4l0 0.07a0.34 0.34 0 0 0 0.27 0.25 0.35 0.35 0 0 0 0.43 -0.41c0.06 0 0 -0.25 0 -0.3l0 -0.93a10.41 10.41 0 0 0 0 -1.48 4.33 4.33 0 0 0 -0.12 -0.72 7.35 7.35 0 0 0 -0.2 -0.71l-0.2 -0.67c0 -0.07 -0.06 -0.3 -0.08 -0.38a0.3 0.3 0 0 0 0 -0.11c-0.11 -0.19 -0.24 -0.21 -0.32 -0.19a0.31 0.31 0 0 0 -0.23 0.14 0.24 0.24 0 0 0 0 0.13 0.41 0.41 0 0 0 0 0.09Z" fill="#020202" fill-rule="evenodd" stroke-width="1"></path>
    <path d="M13.28 14.08a0.23 0.23 0 0 0 -0.17 0.14 0.26 0.26 0 0 1 0.17 -0.14Zm0.37 0.17 0 0.08Zm0 0.08 0 -0.09 0 -0.14v-0.73l0.11 -1.86a5.79 5.79 0 0 1 1 -3 2.33 2.33 0 0 1 2.48 -1 2.37 2.37 0 0 1 1.56 1.27 6.51 6.51 0 0 1 0.8 2.22l0.23 1 0.19 1.84a6.05 6.05 0 0 1 0 0.63 0.11 0.11 0 0 0 0 0.05v0.17a20 20 0 0 0 0.06 2.07c0.06 0.84 0.15 1.16 0.25 1 0.19 0.06 0.38 -0.95 0.39 -3.14v-0.07l0 -0.79 -0.08 -1.74 -0.16 -1.06a7.07 7.07 0 0 0 -1.08 -3.14 3.22 3.22 0 0 0 -2 -1.4 3.31 3.31 0 0 0 -3.1 0.94 6.21 6.21 0 0 0 -1.3 4.15l0 1.86 0 0.73 0 0.29a0.31 0.31 0 0 0 0.07 0.18c0.08 0.1 0.42 0.32 0.54 -0.11a0.62 0.62 0 0 0 0.07 -0.13Z" fill="#020202" fill-rule="evenodd" stroke-width="1"></path>
    <path d="M15.86 6.33c0.06 0 0 -0.14 0 -0.17l0 -0.51c0 -0.28 0 -0.66 0.1 -0.61s0.1 0 0.15 0h0.5a1 1 0 0 1 0.43 0c0.08 0 0.15 0 0.18 0.09a3.39 3.39 0 0 1 0.25 1.17 0.35 0.35 0 0 0 0.7 0A2.9 2.9 0 0 0 18 4.34a1.51 1.51 0 0 0 -1.54 -0.43l-0.62 0.09c-0.46 0.2 -0.66 0.38 -0.75 0.62a2.51 2.51 0 0 0 0 1.06l0.1 0.51 0 0.28a0.33 0.33 0 0 0 0.22 0.26 0.28 0.28 0 0 0 0.32 -0.09 0.29 0.29 0 0 0 0.13 -0.31Z" fill="#020202" fill-rule="evenodd" stroke-width="1"></path>
    <path d="M23.14 0.84a0.35 0.35 0 0 0 0.61 -0.23 0.49 0.49 0 0 0 -0.34 -0.46 3.65 3.65 0 0 0 -0.84 -0.15 1.62 1.62 0 0 0 -0.89 0.24 14.58 14.58 0 0 1 -1.25 0.85c-0.11 0 -0.22 -0.06 -0.34 -0.12 -0.28 -0.15 -0.55 -0.35 -0.72 -0.46a1.63 1.63 0 0 0 -1.28 -0.16 2.49 2.49 0 0 0 -1.27 1 2 2 0 0 0 -0.26 0.5 0.93 0.93 0 0 0 0 0.46 0.3 0.3 0 0 0 0.34 0.27 0.31 0.31 0 0 0 0.27 -0.34l0.27 -0.42a1.79 1.79 0 0 1 0.77 -0.46 0.65 0.65 0 0 1 0.59 0.12 4.66 4.66 0 0 0 1.2 0.71 1.26 1.26 0 0 0 0.94 -0.07c0.43 -0.25 0.81 -0.77 1.25 -1.1a0.91 0.91 0 0 1 0.39 -0.2c0.1 0 0.48 0.18 0.56 0.02Z" fill="#4C57E6" fill-rule="evenodd" stroke-width="1"></path>
    <path d="M22.26 4c0 -0.11 -0.24 -0.08 -0.31 -0.11a1.4 1.4 0 0 1 -0.38 -0.3 2.18 2.18 0 0 0 -0.7 -0.41 1.27 1.27 0 0 0 -0.88 0 1.74 1.74 0 0 0 -0.58 0.27 0.56 0.56 0 0 0 -0.21 0.38 0.32 0.32 0 0 0 0.24 0.37 0.3 0.3 0 0 0 0.36 -0.23s0 0.06 0 0.06l0.33 0c0.17 0 0.25 0.13 0.36 0.21a3.83 3.83 0 0 0 0.67 0.43 1.31 1.31 0 0 0 0.52 0.15 1.48 1.48 0 0 0 0.95 -0.17 0.59 0.59 0 0 0 0.28 -0.57 0.35 0.35 0 0 0 -0.65 -0.08Z" fill="#4C57E6" fill-rule="evenodd" stroke-width="1"></path>
    <path d="m12 13.88 0.07 0ZM4.54 6.53l3.88 4.35 2.32 2.41 0.66 0.84s0.17 0.27 0.26 0.31l0.13 0.1a0.37 0.37 0 0 0 0.43 0 0.37 0.37 0 0 0 0 -0.53l-0.22 -0.28 -0.67 -0.92 -2.23 -2.53c-1 -1.13 -4.23 -5.11 -5.65 -6.75C3.16 3.2 3 3 2.84 2.86a0.69 0.69 0 0 0 -0.49 -0.25 0.58 0.58 0 0 0 -0.55 0.31 0.63 0.63 0 0 0 -0.08 0.47 3.48 3.48 0 0 0 0.28 0.47C2 4 3.12 6.16 4.29 8.34c1 1.78 2 3.59 2.43 4.38l0.86 1.46a3.16 3.16 0 0 0 0.22 0.35 0.59 0.59 0 0 0 0.24 0.19 0.3 0.3 0 0 0 0.4 -0.15 0.32 0.32 0 0 0 -0.15 -0.41l-0.16 -0.3 -0.78 -1.49Z" fill="#020202" fill-rule="evenodd" stroke-width="1"></path>
    <path d="M3.09 18.8c0.08 0 0 -0.36 0 -0.4l0 -1.91c0 -1.42 0.09 -2.85 0.06 -4.28q0 -1.28 -0.12 -2.55c0 -0.57 -0.1 -1.14 -0.16 -1.71l-0.3 -3.13 0 -1s0.07 -0.36 0 -0.39a0.25 0.25 0 0 0 0 -0.12 0.31 0.31 0 0 0 -0.31 -0.31 0.3 0.3 0 0 0 -0.38 0.23 4.69 4.69 0 0 0 0 0.53l-0.05 1 0 1c0 0.74 0.06 1.48 0.07 2.23l0.39 8.46 0.1 1.91 0 0.56a0.37 0.37 0 0 0 0.37 0.31 0.35 0.35 0 0 0 0.35 -0.34 0.28 0.28 0 0 0 -0.02 -0.09Z" fill="#020202" fill-rule="evenodd" stroke-width="1"></path>
    <path d="M6.31 21.53a3.06 3.06 0 0 1 -0.36 0.36 3.7 3.7 0 0 1 -0.43 0.32l-0.82 0.42a2.68 2.68 0 0 1 -1.62 0.14A10.88 10.88 0 0 1 0.72 21.4a0.31 0.31 0 0 0 -0.42 0.11 0.3 0.3 0 0 0 0.1 0.42 11.29 11.29 0 0 0 2.47 1.57 3.54 3.54 0 0 0 2.11 0L6 23a5.65 5.65 0 0 0 0.57 -0.38 3.73 3.73 0 0 0 0.51 -0.45l0 -0.07 1.12 0.81a7.39 7.39 0 0 0 1.94 0.84 6.77 6.77 0 0 0 2.16 0.25 6.4 6.4 0 0 0 1.8 -0.38 7.35 7.35 0 0 0 1.6 -0.84 3.08 3.08 0 0 0 0.44 -0.35 1.72 1.72 0 0 0 0.27 -0.27 6.22 6.22 0 0 0 0.65 0.71 2.82 2.82 0 0 0 0.67 0.46 4.91 4.91 0 0 0 3.2 0.38A4.26 4.26 0 0 0 23.61 22a0.35 0.35 0 0 0 -0.09 -0.49 0.36 0.36 0 0 0 -0.49 0.1 3.51 3.51 0 0 1 -2.26 1.31 3.89 3.89 0 0 1 -2.59 -0.42 2.31 2.31 0 0 1 -0.45 -0.34c-0.4 -0.38 -0.64 -0.83 -1 -1.22a0.55 0.55 0 0 0 -0.45 -0.15c-0.12 0 -0.48 0.5 -0.48 0.5l0 -0.09 -0.1 0.16 -0.6 0.5a6.33 6.33 0 0 1 -1.38 0.68 5.06 5.06 0 0 1 -1.48 0.31 6.06 6.06 0 0 1 -1.76 -0.18A6.65 6.65 0 0 1 8.81 22l-1.13 -0.73a3.86 3.86 0 0 0 -0.42 -0.27 0.56 0.56 0 0 0 -0.44 0 0.76 0.76 0 0 0 -0.3 0.22c-0.07 0.06 -0.2 0.3 -0.21 0.31Z" fill="#4C57E6" fill-rule="evenodd" stroke-width="1"></path>
  </g>
</svg>