<svg xmlns="http://www.w3.org/2000/svg" viewBox="0 0 24 24" id="Vectors-Laptop--Streamline-Freehand">
  <desc>
    Vectors Laptop Streamline Icon: https://streamlinehq.com
  </desc>
  <g>
    <path d="M23.93 4.25c-0.55 -1.81 -2.62 -1.22 -3.13 -0.7a1.16 1.16 0 0 0 -0.28 0.6 4.24 4.24 0 0 0 -2.11 0.11 3.7 3.7 0 0 0 -1.8 1.44s0 0 0 0.06l0 -0.68 0 -0.9c-0.06 -0.7 -0.15 -1.38 -0.22 -2.08a0.38 0.38 0 0 0 -0.39 -0.38 0.39 0.39 0 0 0 -0.39 0.38c-0.07 0.7 -0.17 1.38 -0.22 2.09l0 0.89a8.83 8.83 0 0 0 0 0.89c0 0.44 0.11 0.88 0.17 1.31h-0.17c-1.45 0.2 -2 1 -1.92 1.88a2.49 2.49 0 0 0 1.58 2 5.25 5.25 0 0 1 -1 1.75 5.56 5.56 0 0 1 -0.6 0.59 3.42 3.42 0 0 1 -2.52 0.87c-0.73 -1.51 -2.54 -0.9 -3 -0.43a1.36 1.36 0 0 0 -0.31 1.15 1.68 1.68 0 0 0 0.74 1.37 2 2 0 0 0 1.49 0.14 1.56 1.56 0 0 0 1.27 -1.41 4.27 4.27 0 0 0 2.12 -0.11A3.7 3.7 0 0 0 15 13.63a4.39 4.39 0 0 0 0.49 -1.1 2.66 2.66 0 0 1 0 0.28l0 0.83c0 0.28 0 0.55 0.06 0.82 0.09 0.65 0.24 1.26 0.35 1.9a0.34 0.34 0 0 0 0.67 0c0.08 -0.74 0.2 -1.47 0.21 -2.21a11.38 11.38 0 0 0 -0.07 -1.31c-0.05 -0.54 -0.13 -1.07 -0.19 -1.61l0.2 -0.07a3.2 3.2 0 0 0 0.57 -0.32 1.73 1.73 0 0 0 0.66 -2.59 2.3 2.3 0 0 0 -1 -0.75 6 6 0 0 1 0.72 -1.06 4.77 4.77 0 0 1 0.6 -0.59A3.47 3.47 0 0 1 20.52 5a1.6 1.6 0 0 0 0.71 1.1 2 2 0 0 0 1.49 0.14 1.52 1.52 0 0 0 1.21 -1.99ZM9.52 15.34c-0.35 0.08 -0.55 0.09 -0.67 0a0.8 0.8 0 0 1 -0.22 -0.44c-0.05 -0.17 -0.08 -0.32 0 -0.41s1.18 -0.9 1.33 0.37a0.46 0.46 0 0 1 -0.44 0.48ZM17 9c0.27 0.32 0.23 0.75 -0.27 1.23a2.12 2.12 0 0 1 -0.38 0.29l-0.14 0.07s-0.08 -0.06 -0.13 -0.06l-0.11 0a1.65 1.65 0 0 1 -1.33 -1.07c-0.15 -0.45 0.12 -0.86 0.88 -0.91A1.7 1.7 0 0 1 17 9Zm5.49 -4c-0.35 0.08 -0.55 0.09 -0.68 0a0.85 0.85 0 0 1 -0.21 -0.44c-0.05 -0.18 -0.08 -0.32 0 -0.42s1.18 -0.89 1.32 0.38c0.08 0.18 -0.12 0.39 -0.46 0.48Z" fill="#4C57E6" fill-rule="evenodd" stroke-width="1"></path>
    <path d="m21.92 18.33 -1.62 -0.07c0.09 -0.94 0.24 -1.87 0.36 -2.82 0.1 -0.75 0.18 -1.5 0.25 -2.26 0.1 -1.28 0.12 -2.56 0.1 -3.84a0.38 0.38 0 0 0 -0.76 0c-0.13 1.13 -0.36 2.24 -0.53 3.37 -0.11 0.75 -0.22 1.51 -0.27 2.28a22.43 22.43 0 0 0 0.08 3.28c-1.77 -0.07 -3.55 -0.15 -5.32 -0.2s-3.44 -0.09 -5.16 -0.06c-2 0 -3.88 0.16 -5.82 0.33 -0.12 -1.47 -0.29 -3 -0.39 -4.46a24.9 24.9 0 0 1 0 -3.23c0.08 -2.59 -0.27 -2 1.57 -2.46a8.65 8.65 0 0 1 1 -0.22c0.8 -0.12 1.77 -0.21 2.71 -0.27 2.11 -0.14 4.13 -0.14 4.13 -0.14a0.38 0.38 0 0 0 0.39 -0.37 0.39 0.39 0 0 0 -0.37 -0.39s-2 -0.12 -4.18 -0.12c-1 0 -2 0 -2.82 0.12a8.86 8.86 0 0 0 -1.15 0.17A11.27 11.27 0 0 0 3 7.21a3.69 3.69 0 0 0 -0.67 0.22 1.2 1.2 0 0 0 -0.47 0.41 2.81 2.81 0 0 0 -0.25 1c-0.07 0.64 -0.05 1.45 -0.06 1.78a23.87 23.87 0 0 0 0.16 2.53c0.2 1.77 0.56 3.53 0.84 5.26 -0.69 0.06 -1.38 0.11 -2.07 0.19a0.34 0.34 0 0 0 -0.3 0.33 2 2 0 0 0 0.71 2.42 7.19 7.19 0 0 0 3.5 0.83c1.3 0.06 2.6 0.1 3.9 0.1 1.5 0 3 -0.05 4.52 -0.09s3 -0.09 4.48 -0.06h1c0.84 0 2.34 0.12 3.19 -0.4a1.61 1.61 0 0 0 0.81 -1.44c-0.15 -1.55 0.2 -1.97 -0.37 -1.96Zm-1.22 2.74a8.54 8.54 0 0 1 -2.42 0l-1 -0.06c-1.3 -0.07 -2.61 -0.12 -3.91 -0.11 -1.51 0 -3 0.05 -4.52 0.1s-3 0.14 -4.5 0.14a6.13 6.13 0 0 1 -3.07 -0.46 1.31 1.31 0 0 1 -0.51 -1.46c2.47 -0.09 4.94 0 7.42 0l5.13 0c2.19 0 4.37 -0.06 6.55 -0.12l1.44 0 0 1.16a0.86 0.86 0 0 1 -0.61 0.81Z" fill="#020202" fill-rule="evenodd" stroke-width="1"></path>
  </g>
</svg>