<svg xmlns="http://www.w3.org/2000/svg" viewBox="0 0 24 24" id="Vectors-Anchor-Square-1--Streamline-Freehand">
  <desc>
    Vectors Anchor Square 1 Streamline Icon: https://streamlinehq.com
  </desc>
  <g>
    <path d="M3.82 1.1a0.34 0.34 0 1 0 0 0.67c0.58 0 0.75 0.79 0.25 1.24A2 2 0 0 1 2 3.42C0.78 3 1 1.65 1.8 1 2.4 0.51 2.86 0.87 3.61 0.94A0.29 0.29 0 1 0 3.7 0.36C3 0.19 2.31 -0.32 1.31 0.29c-1.7 1.05 -1.82 3.58 0.34 4.22a2.92 2.92 0 0 0 3.07 -0.85 1.46 1.46 0 0 0 -0.9 -2.56Z" fill="#020202" fill-rule="evenodd" stroke-width="1"></path>
    <path d="M3.82 20.45a0.34 0.34 0 0 0 0 0.68c0.58 0 0.75 0.78 0.25 1.23a2 2 0 0 1 -2.07 0.42c-1.2 -0.36 -1 -1.78 -0.2 -2.43 0.6 -0.49 1.06 -0.13 1.81 -0.05a0.3 0.3 0 0 0 0.09 -0.59c-0.78 -0.17 -1.39 -0.68 -2.39 -0.06 -1.7 1.05 -1.82 3.57 0.34 4.21A2.91 2.91 0 0 0 4.72 23a1.46 1.46 0 0 0 -0.9 -2.55Z" fill="#020202" fill-rule="evenodd" stroke-width="1"></path>
    <path d="M23.91 21.42c-0.32 -1.11 -1.65 -1.21 -1.65 -0.63a0.35 0.35 0 0 0 0.34 0.34c0.81 0 0.84 1.42 -0.74 1.74 -0.76 0.15 -1.9 -0.17 -1.94 -1.09a1.62 1.62 0 0 1 1.23 -1.68c0.66 0 1.5 0.48 1.58 -0.05a0.29 0.29 0 0 0 -0.25 -0.34 9.56 9.56 0 0 0 -1.32 -0.35 2.49 2.49 0 0 0 -2.34 2.44c0 1.71 1.83 2.51 3.29 2.09 1.12 -0.32 2.12 -1.34 1.8 -2.47Z" fill="#020202" fill-rule="evenodd" stroke-width="1"></path>
    <path d="M20.32 4.51a2.92 2.92 0 0 0 3.07 -0.85 1.46 1.46 0 0 0 -0.9 -2.56 0.34 0.34 0 1 0 0 0.67c0.58 0 0.74 0.79 0.25 1.24a2 2 0 0 1 -2.09 0.41c-1.2 -0.38 -1 -1.77 -0.18 -2.43 0.6 -0.48 1.06 -0.12 1.81 -0.05a0.29 0.29 0 1 0 0.09 -0.58C21.62 0.19 21 -0.32 20 0.29c-1.72 1.05 -1.84 3.58 0.32 4.22Z" fill="#020202" fill-rule="evenodd" stroke-width="1"></path>
    <path d="M1.6 14.85c0.06 3.32 0 2.83 0 3.14s0.53 0.5 0.69 0.17c0 -0.07 0.48 -5.89 0.48 -6a35.3 35.3 0 0 0 -0.36 -6 0.34 0.34 0 0 0 -0.67 0.12c0.04 4.05 0.08 2.01 -0.14 8.57Z" fill="#4C57E6" fill-rule="evenodd" stroke-width="1"></path>
    <path d="M22.37 12.2c0 -0.85 0.1 -6.4 -0.75 -6.24a0.34 0.34 0 0 0 -0.29 0.35c0 4 0 2 -0.18 8.54 0.06 3.2 0 2.87 0 3.14 0.06 0.42 0.53 0.51 0.69 0.17a0.34 0.34 0 0 0 0 -0.24c0.17 -0.09 0.05 -0.9 0.06 -1 0.31 -3.32 0.41 -3.3 0.47 -4.72Z" fill="#4C57E6" fill-rule="evenodd" stroke-width="1"></path>
    <path d="M18.26 21.25c-4 0 -2 0 -8.53 -0.18 -3.18 0.1 -2.86 0 -3.13 0.08a0.36 0.36 0 0 0 -0.16 0.69c0.08 0 5.87 0.44 6 0.44a35.64 35.64 0 0 0 5.91 -0.44 0.3 0.3 0 1 0 -0.09 -0.59Z" fill="#4C57E6" fill-rule="evenodd" stroke-width="1"></path>
    <path d="M6.52 2.46a46.31 46.31 0 0 0 8 0.34l2.88 -0.47a0.3 0.3 0 0 0 -0.07 -0.59c-2.81 0.13 -3.08 0.07 -7.7 -0.06 -3 0.13 -2.64 0 -2.9 0.1a0.37 0.37 0 0 0 -0.21 0.68Z" fill="#4C57E6" fill-rule="evenodd" stroke-width="1"></path>
  </g>
</svg>