<svg xmlns="http://www.w3.org/2000/svg" viewBox="0 0 24 24" id="Vectors-Pen-1--Streamline-Freehand">
  <desc>
    Vectors Pen 1 Streamline Icon: https://streamlinehq.com
  </desc>
  <g>
    <path d="M14.16 13.22a2.81 2.81 0 0 0 -4.68 -0.38c-1.35 1.77 -0.06 4.44 1.76 4.35 -0.07 1.66 -0.05 3.79 0 5 0.11 1 0.39 0.58 0.74 -0.5 0.07 -1.3 0.18 -2.86 0.18 -2.92s0.29 -2.33 0.28 -2.42c-0.08 -0.73 -1.17 -0.53 -1.1 -0.34a1.05 1.05 0 0 1 -0.49 -0.06 1.91 1.91 0 0 1 -0.76 -1.42 1.81 1.81 0 0 1 3.33 -1 1.56 1.56 0 0 1 -0.23 2 0.34 0.34 0 0 0 0.44 0.53 2.32 2.32 0 0 0 0.53 -2.84Z" fill="#4C57E6" fill-rule="evenodd" stroke-width="1"></path>
    <path d="M17.91 2.18c1.22 -2.42 0.21 -2 0.09 -1.76a29.94 29.94 0 0 1 -2.32 3.72c-0.58 0.71 0.06 0.42 -3.75 0.33C8.4 4.39 8.24 5.34 6.71 2A13.2 13.2 0 0 1 6.09 0.3a0.31 0.31 0 0 0 -0.59 0.16c0.34 1.27 1.13 3.9 2.18 4.7a2.58 2.58 0 0 0 1 0.38 8.56 8.56 0 0 0 0.12 2.91 5.6 5.6 0 0 0 0.2 0.89 4.71 4.71 0 0 0 -2.4 2.1c-1.34 2.33 -0.33 4.64 0.41 7.06l0.48 1.09a16.3 16.3 0 0 0 2.76 4.13 0.3 0.3 0 0 0 0.42 -0.43 17 17 0 0 1 -3.71 -8.95A4.06 4.06 0 0 1 7.49 12c2 -2.15 4 -2.5 6.06 -1.8a3.42 3.42 0 0 1 2.2 1.94 12.38 12.38 0 0 1 -0.89 7.16c-0.94 1.93 -3.16 3.93 -3.28 4.28s0.58 0.53 1.09 0.07a14 14 0 0 0 3.88 -6.41 13.29 13.29 0 0 0 0.24 -5.42 4.11 4.11 0 0 0 -2.48 -2.54s0 0 0 -0.07c0.32 0.1 0.55 -2.26 0.39 -3.53 1.11 -0.02 1.51 -0.1 3.21 -3.5ZM13.63 9a6.49 6.49 0 0 0 -4 0.07c0.08 -0.12 0 -0.47 0 -0.7a8.25 8.25 0 0 0 -0.12 -2.76l1.08 0 3.23 0A11 11 0 0 0 13.63 9Z" fill="#020202" fill-rule="evenodd" stroke-width="1"></path>
  </g>
</svg>