<svg xmlns="http://www.w3.org/2000/svg" viewBox="0 0 24 24" id="Vegan-Food-Rabbit-1--Streamline-Freehand">
  <desc>
    Vegan Food Rabbit 1 Streamline Icon: https://streamlinehq.com
  </desc>
  <g>
    <path d="M21.62 7.94a8.54 8.54 0 0 0 2 -3.62 5.9 5.9 0 0 0 0.05 -1.11 3.91 3.91 0 0 0 -0.22 -1.12 2.76 2.76 0 0 0 -2.2 -1.78 4.18 4.18 0 0 0 -2.73 0.48A7.55 7.55 0 0 0 16 3.3a27.46 27.46 0 0 0 -2.14 4.22 6.53 6.53 0 0 0 -2.4 -0.21 9.12 9.12 0 0 0 -2.1 0.48 15.54 15.54 0 0 0 -0.47 -1.65A17.14 17.14 0 0 0 7.93 4 9.07 9.07 0 0 0 5.12 0.51a2.79 2.79 0 0 0 -3.26 0 3.15 3.15 0 0 0 -0.48 0.49 3.17 3.17 0 0 0 -0.4 0.49 4.11 4.11 0 0 0 -0.37 0.76A4.33 4.33 0 0 0 0.42 3a5.88 5.88 0 0 0 -0.07 1 7.11 7.11 0 0 0 0.13 1 9.44 9.44 0 0 0 0.68 2 11.79 11.79 0 0 0 1.07 1.85A11.43 11.43 0 0 0 4 10.77a18.06 18.06 0 0 0 1.77 1.36l-0.08 1.39a5.25 5.25 0 0 0 -2.19 3.16 2.59 2.59 0 0 0 -0.39 -0.25 1.75 1.75 0 0 0 -0.32 -0.12 1.48 1.48 0 0 0 -0.35 0 6.18 6.18 0 0 0 -0.86 0 0.33 0.33 0 0 0 -0.38 0.27 0.35 0.35 0 0 0 0.28 0.39c0.25 0.1 0.45 0.23 0.7 0.34a2.85 2.85 0 0 0 0.31 0.12 1.65 1.65 0 0 0 0.32 0.06 5.47 5.47 0 0 0 0.57 0 0.11 0.11 0 0 1 0 0.05 5.11 5.11 0 0 0 0.08 1 2.67 2.67 0 0 0 -0.47 0.07 1.33 1.33 0 0 0 -0.33 0.13 1.81 1.81 0 0 0 -0.29 0.19 5.51 5.51 0 0 0 -0.62 0.57 0.33 0.33 0 0 0 -0.1 0.45 0.32 0.32 0 0 0 0.45 0.11c0.26 -0.08 0.51 -0.12 0.76 -0.2l0.3 -0.11a1.61 1.61 0 0 0 0.28 -0.17 1.88 1.88 0 0 0 0.26 -0.22 4.49 4.49 0 0 0 2.14 2.31 3 3 0 0 0 2.1 0.22c0.2 0 0.39 -0.12 0.59 -0.18l0 0.31A2.78 2.78 0 0 0 9 23a2.25 2.25 0 0 0 0.48 0.44 3.21 3.21 0 0 0 0.83 0.36 6.37 6.37 0 0 0 2.55 0.05 2.45 2.45 0 0 0 1.59 -1 2 2 0 0 0 0.35 -1l0 -0.32a9 9 0 0 0 1.13 0.15 3.53 3.53 0 0 0 3 -1.15 4.79 4.79 0 0 0 0.72 -1.27l0.16 0.19a2 2 0 0 0 0.27 0.22 1.75 1.75 0 0 0 0.29 0.18c0.24 0.14 0.48 0.24 0.72 0.39a0.33 0.33 0 0 0 0.46 0 0.32 0.32 0 0 0 0 -0.47 4.85 4.85 0 0 0 -0.53 -0.75 3.45 3.45 0 0 0 -0.28 -0.26 1.55 1.55 0 0 0 -0.32 -0.2 4.3 4.3 0 0 0 -0.57 -0.2 3.69 3.69 0 0 0 0 -1.05 5.31 5.31 0 0 0 0.67 -0.08 2.22 2.22 0 0 0 0.37 -0.09 1.94 1.94 0 0 0 0.36 -0.15c0.29 -0.13 0.56 -0.28 0.85 -0.4A0.34 0.34 0 0 0 22 16c-0.34 0 -0.65 0 -1 0.05a2.7 2.7 0 0 0 -0.41 0.08l-0.4 0.16a3.54 3.54 0 0 0 -0.51 0.35 3.59 3.59 0 0 0 -2.28 -2.29l0 -2.29a39.07 39.07 0 0 0 4.22 -4.12Zm-7.56 13.85a1.24 1.24 0 0 1 -0.3 0.56 1.69 1.69 0 0 1 -1.08 0.48 6 6 0 0 1 -2.12 0 2.08 2.08 0 0 1 -0.48 -0.11 1.28 1.28 0 0 1 -0.38 -0.21 1.94 1.94 0 0 1 -0.44 -0.64 3.37 3.37 0 0 1 -0.1 -0.34c0.9 -0.37 1.79 -0.87 2.56 -1.19a9.36 9.36 0 0 0 2.35 1.06 1.6 1.6 0 0 1 -0.01 0.39Zm2.68 -7.23a0.35 0.35 0 0 0 0.26 0.35 3 3 0 0 1 2.12 2.15 3.47 3.47 0 0 1 -0.74 3 2.79 2.79 0 0 1 -2.4 0.82 8.1 8.1 0 0 1 -3.85 -1.38 2.22 2.22 0 0 0 0 -1.57 0.35 0.35 0 0 0 -0.68 -0.06 2.2 2.2 0 0 0 -0.13 1.64c-0.91 0.38 -2 1 -3 1.33a2.5 2.5 0 0 1 -2 0 3.44 3.44 0 0 1 -1.91 -3.27 4.18 4.18 0 0 1 2.09 -3.29 0.53 0.53 0 0 0 0.26 -0.43l0.14 -1.95a0.56 0.56 0 0 0 -0.24 -0.49 18.59 18.59 0 0 1 -1.94 -1.47A10.06 10.06 0 0 1 3.14 8.2a10.31 10.31 0 0 1 -1 -1.63 8 8 0 0 1 -0.56 -1.77 4.48 4.48 0 0 1 -0.1 -0.8 4.35 4.35 0 0 1 0.05 -0.81 4 4 0 0 1 0.14 -0.6 2.81 2.81 0 0 1 0.26 -0.52 2.72 2.72 0 0 1 0.25 -0.32 3.88 3.88 0 0 1 0.31 -0.26 1.76 1.76 0 0 1 2 0A7.89 7.89 0 0 1 7 4.48a17.21 17.21 0 0 1 0.89 2 14 14 0 0 1 0.57 2.11 0.56 0.56 0 0 0 0.22 0.41 0.59 0.59 0 0 0 0.47 0 7.79 7.79 0 0 1 2.38 -0.68 5.49 5.49 0 0 1 2.4 0.25 0.48 0.48 0 0 0 0.61 -0.26 34 34 0 0 1 2.18 -4.53 6.86 6.86 0 0 1 2.22 -2.26 3.33 3.33 0 0 1 2.17 -0.43 2 2 0 0 1 1.59 1.27 3.09 3.09 0 0 1 0.2 0.9 5 5 0 0 1 0 1 7.59 7.59 0 0 1 -1.76 3.3c-2.08 2.58 -4.26 4.06 -4.26 4.42 -0.04 0.1 -0.06 0.68 -0.14 2.58Z" fill="#020202" fill-rule="evenodd" stroke-width="1"></path>
    <path d="m12.48 17.32 0.35 -0.24 0.21 -0.26a0.68 0.68 0 0 0 -0.18 -1 2.55 2.55 0 0 0 -1.19 -0.25l-0.28 0 -0.44 0.09c-0.49 0.23 -0.72 0.52 -0.69 0.79a0.69 0.69 0 0 0 0.4 0.63 2.56 2.56 0 0 0 1.82 0.24Z" fill="#4C57E6" fill-rule="evenodd" stroke-width="1"></path>
    <path d="M9.9 12.37a0.33 0.33 0 0 0 -0.39 0.14 1.06 1.06 0 0 0 -0.38 0.16c-0.12 0.07 -0.16 0.18 -0.24 0.3s0 0.5 0.12 0.75a0.78 0.78 0 0 0 0.68 0.33c0.54 -0.1 0.87 -0.43 0.87 -0.83s-0.17 -0.8 -0.66 -0.85Z" fill="#020202" fill-rule="evenodd" stroke-width="1"></path>
    <path d="M13.87 12.35a0.31 0.31 0 0 0 -0.31 0.13 0.17 0.17 0 0 0 -0.1 0 1.17 1.17 0 0 0 -0.37 0.22 0.79 0.79 0 0 0 -0.2 0.33 0.74 0.74 0 0 0 0.23 0.84 0.87 0.87 0 0 0 0.88 0.15 1 1 0 0 0 0.33 -0.22 0.94 0.94 0 0 0 0.24 -0.71c-0.06 -0.37 -0.23 -0.77 -0.7 -0.74Z" fill="#020202" fill-rule="evenodd" stroke-width="1"></path>
    <path d="M6.44 6.77c-0.16 -0.36 -0.35 -0.71 -0.54 -1a9.33 9.33 0 0 0 -0.66 -1 12.33 12.33 0 0 0 -1.93 -2 0.29 0.29 0 0 0 -0.41 0.41A14.34 14.34 0 0 1 4.17 5l0.42 0.71c0.22 0.35 0.43 0.71 0.64 1.07 0.54 0.9 1.07 1.8 1.53 2.75a0.33 0.33 0 0 0 0.43 0.19 0.32 0.32 0 0 0 0.18 -0.43 22.13 22.13 0 0 0 -0.93 -2.52Z" fill="#020202" fill-rule="evenodd" stroke-width="1"></path>
    <path d="M19.27 5a15.61 15.61 0 0 1 1.51 -1.72 0.32 0.32 0 0 0 0.06 -0.46 0.34 0.34 0 0 0 -0.47 -0.06 12.28 12.28 0 0 0 -2.14 1.88 11.55 11.55 0 0 0 -0.76 0.94 11 11 0 0 0 -0.65 1 26.28 26.28 0 0 0 -1.2 2.52 0.29 0.29 0 0 0 0.11 0.4 0.3 0.3 0 0 0 0.4 -0.12c0.59 -0.89 1.26 -1.76 1.9 -2.66 0.42 -0.53 0.81 -1.13 1.24 -1.72Z" fill="#020202" fill-rule="evenodd" stroke-width="1"></path>
  </g>
</svg>