<svg xmlns="http://www.w3.org/2000/svg" viewBox="0 0 24 24" id="Vegan-Food-Carrot--Streamline-Freehand">
  <desc>
    Vegan Food Carrot Streamline Icon: https://streamlinehq.com
  </desc>
  <g>
    <path d="M16.4 12.91a0.34 0.34 0 0 0 -0.36 0.31 12.91 12.91 0 0 1 -0.59 2.88 4 4 0 0 1 -0.91 1.54 2.36 2.36 0 0 1 -0.87 0.5 5 5 0 0 1 -1.07 0.24l-0.4 0 0 -1 0 -1.08c-0.05 -0.85 -0.15 -1.68 -0.22 -2.53a0.3 0.3 0 0 0 -0.3 -0.3 0.29 0.29 0 0 0 -0.3 0.29c-0.1 0.85 -0.21 1.68 -0.26 2.54l0 1.08 0 1h-0.08A3 3 0 0 1 8.75 17a7.49 7.49 0 0 1 -0.94 -3 0.31 0.31 0 0 0 -0.33 -0.27 0.3 0.3 0 0 0 -0.26 0.33A7.3 7.3 0 0 0 8.36 18a4 4 0 0 0 2.51 1.5l0.34 0c0 0.51 0.09 2.77 0.13 3.29a0.34 0.34 0 0 0 0.67 0c0 -0.5 0.07 -2.75 0.11 -3.25 0.21 0 0.42 0 0.63 -0.06a5.17 5.17 0 0 0 1.58 -0.44 3.34 3.34 0 0 0 1 -0.7 5.19 5.19 0 0 0 1 -2 13.78 13.78 0 0 0 0.41 -3.1 0.34 0.34 0 0 0 -0.34 -0.33Z" fill="#020202" fill-rule="evenodd" stroke-width="1"></path>
    <path d="M7.56 9.5q0 -0.36 -0.09 -0.72A16.25 16.25 0 0 0 7 7.15a0.31 0.31 0 0 0 -0.34 -0.25 0.29 0.29 0 0 0 -0.24 0.34l0 1.89c0 0.37 0.06 0.74 0.1 1.11s0.14 0.38 0.18 0.67c0.27 0.39 0.66 0.4 0.79 0.05a5.67 5.67 0 0 0 0.1 -0.72 6.09 6.09 0 0 0 -0.03 -0.74Z" fill="#4C57E6" fill-rule="evenodd" stroke-width="1"></path>
    <path d="M12.18 4.43c0.07 0.25 0.13 0.49 0.18 0.74A10.06 10.06 0 0 1 12.58 7a0.34 0.34 0 0 0 0.31 0.36 0.32 0.32 0 0 0 0.36 -0.31 8.63 8.63 0 0 0 0.17 -2 5 5 0 0 0 -0.13 -0.88 3.6 3.6 0 0 0 -0.29 -0.86 4.81 4.81 0 0 0 -0.7 -1c-0.47 -0.53 -1 -0.38 -0.86 0.07A6.3 6.3 0 0 1 12 3.71c0.05 0.29 0.12 0.48 0.18 0.72Z" fill="#4C57E6" fill-rule="evenodd" stroke-width="1"></path>
    <path d="M23.78 3.83a1.57 1.57 0 0 0 -0.81 -0.7A2.85 2.85 0 0 0 22 3a1.57 1.57 0 0 0 0 -0.5 1.11 1.11 0 0 0 -0.27 -0.67 1.23 1.23 0 0 0 -0.68 -0.39 2.2 2.2 0 0 0 -1 0 5.54 5.54 0 0 0 -1.19 0.56 13.76 13.76 0 0 0 -1.43 1c-0.07 -0.09 -0.13 -0.2 -0.2 -0.29a0.29 0.29 0 0 0 -0.11 -0.27A7.56 7.56 0 0 0 11.57 0.88a19.17 19.17 0 0 0 -8 3 9.7 9.7 0 0 0 -3 2.68 3 3 0 0 0 -0.29 2.97 4.15 4.15 0 0 0 0.35 0.57 5.06 5.06 0 0 0 0.41 0.49 4.86 4.86 0 0 0 1.61 1.08 12.18 12.18 0 0 0 2.63 0.64 32.26 32.26 0 0 0 3.83 0.4 19.28 19.28 0 0 0 3.89 -0.23 14.76 14.76 0 0 0 1.7 -0.37 6 6 0 0 0 1.12 -0.46 5.61 5.61 0 0 0 2.37 -2.88 0.56 0.56 0 0 0 0 -0.12c0.63 0.16 1.28 0.36 1.93 0.48a5.13 5.13 0 0 0 1.61 0.07 1.71 1.71 0 0 0 1.4 -1 1.22 1.22 0 0 0 -0.36 -1.2l-0.2 -0.15 0.43 -0.31a2.79 2.79 0 0 0 1 -1.4 1.74 1.74 0 0 0 -0.22 -1.31Zm-6.35 4.63a4.72 4.72 0 0 1 -2.06 2.39 4.33 4.33 0 0 1 -0.95 0.36 10.49 10.49 0 0 1 -1.58 0.3 18 18 0 0 1 -3.68 0.13c-1.12 -0.06 -3.65 -0.43 -3.69 -0.44a11.18 11.18 0 0 1 -2.38 -0.58 3.73 3.73 0 0 1 -1.23 -0.82 2.83 2.83 0 0 1 -0.32 -0.37 2.14 2.14 0 0 1 -0.23 -0.38 1.88 1.88 0 0 1 0.17 -1.89 8.54 8.54 0 0 1 2.6 -2.4c3.72 -2.5 10.77 -5.38 13.29 -0.62a4.63 4.63 0 0 1 0.43 1.12 5.56 5.56 0 0 1 -0.37 3.2ZM22.79 5a1.85 1.85 0 0 1 -0.53 0.68 7.76 7.76 0 0 0 -1.21 0.85 0.5 0.5 0 0 0 0.16 0.64l0.85 0.52c0.13 0.12 0.21 0.21 0.15 0.31a1 1 0 0 1 -0.6 0.33 4 4 0 0 1 -1.34 0c-0.62 -0.07 -1.27 -0.22 -1.84 -0.33a5.91 5.91 0 0 0 0.08 -2.89A4.85 4.85 0 0 0 18 3.8l-0.22 -0.32a9 9 0 0 1 1.42 -0.83 4.6 4.6 0 0 1 1.1 -0.37 1.29 1.29 0 0 1 0.48 0 0.44 0.44 0 0 1 0.27 0.14c0.05 0.07 0 0.15 0 0.24 -0.07 0.35 -0.23 0.37 -0.41 0.67a0.53 0.53 0 0 0 -0.05 0.34 0.51 0.51 0 0 0 0.33 0.4 0.81 0.81 0 0 0 0.33 0.06l0.5 0a2.41 2.41 0 0 1 0.71 0 0.53 0.53 0 0 1 0.34 0.25 0.69 0.69 0 0 1 -0.01 0.62Z" fill="#020202" fill-rule="evenodd" stroke-width="1"></path>
  </g>
</svg>