<svg xmlns="http://www.w3.org/2000/svg" viewBox="0 0 24 24" id="Vegetable-Cilantro-Coriander--Streamline-Freehand">
  <desc>
    Vegetable Cilantro Coriander Streamline Icon: https://streamlinehq.com
  </desc>
  <g>
    <path d="M11 16.89a5.12 5.12 0 0 0 -0.58 -0.28l-0.6 -0.21c-0.39 -0.11 -0.46 0 -0.84 -0.14s-0.39 0.41 -0.17 0.71a5.28 5.28 0 0 0 0.8 0.53 7.9 7.9 0 0 0 0.92 0.35 0.76 0.76 0 0 0 0.42 0.08 0.63 0.63 0 0 0 0.28 -0.89c-0.13 -0.04 -0.23 -0.11 -0.23 -0.15Z" fill="#4C57E6" fill-rule="evenodd" stroke-width="1"></path>
    <path d="M14.23 16.39q-0.3 0.09 -0.6 0.21a3.67 3.67 0 0 0 -0.76 0.46c-0.37 0.3 -0.1 1 0.22 0.87s1.05 -0.29 1.35 -0.43a6.87 6.87 0 0 0 0.83 -0.48c0.26 -0.45 0.14 -0.81 -0.3 -0.76s-0.39 0.04 -0.74 0.13Z" fill="#4C57E6" fill-rule="evenodd" stroke-width="1"></path>
    <path d="M23.57 13.35a2.62 2.62 0 0 0 -1.67 -1 2.89 2.89 0 0 0 -0.83 0 3.12 3.12 0 0 0 -0.44 0.09s0 -0.07 0 -0.11a2.26 2.26 0 0 0 -0.21 -0.58 1.68 1.68 0 0 0 -1.21 -0.93 2.47 2.47 0 0 0 -2 0.57 4.88 4.88 0 0 0 -1.41 2 5.7 5.7 0 0 0 -0.34 2.73 1.74 1.74 0 0 0 0.16 0.68 4.27 4.27 0 0 0 1.65 2.2 5.69 5.69 0 0 0 3.62 1.06 2.92 2.92 0 0 0 0.94 -0.22 1.73 1.73 0 0 0 0.61 -0.45 1.91 1.91 0 0 0 0.41 -1.39 2.91 2.91 0 0 0 -0.34 -1.18 3.65 3.65 0 0 0 0.71 -0.53 2.54 2.54 0 0 0 0.64 -1 2.06 2.06 0 0 0 -0.29 -1.94ZM22.8 15a1.64 1.64 0 0 1 -0.51 0.66 3 3 0 0 1 -0.82 0.49 0.57 0.57 0 0 0 -0.34 0.4 0.56 0.56 0 0 0 0.15 0.51 1.84 1.84 0 0 1 0.48 0.88 1 1 0 0 1 -0.12 0.84 0.8 0.8 0 0 1 -0.32 0.22 2 2 0 0 1 -0.52 0.13 4.81 4.81 0 0 1 -3.07 -0.76 3.48 3.48 0 0 1 -1.27 -4.66 4 4 0 0 1 1.27 -1.6 1.72 1.72 0 0 1 1.07 -0.35 0.79 0.79 0 0 1 0.72 0.49 1.77 1.77 0 0 1 0.11 0.44 3 3 0 0 1 0 0.52 0.54 0.54 0 0 0 0.22 0.45 0.53 0.53 0 0 0 0.49 0.06 6.05 6.05 0 0 1 0.73 -0.2 2.08 2.08 0 0 1 0.66 0 1.5 1.5 0 0 1 0.93 0.57 0.94 0.94 0 0 1 0.14 0.91Z" fill="#020202" fill-rule="evenodd" stroke-width="1"></path>
    <path d="M19.59 4.1a2.65 2.65 0 0 0 -2.12 -0.1 1 1 0 0 0 -1.19 -0.75 2.24 2.24 0 0 0 -1 0.46v-0.14a4.14 4.14 0 0 0 -0.2 -1A3.44 3.44 0 0 0 13 0.27a2.6 2.6 0 0 0 -3 1.11 4 4 0 0 0 -0.69 1.55 4.83 4.83 0 0 0 -0.12 0.85l-0.08 0a1.11 1.11 0 0 0 -1.35 0 1.41 1.41 0 0 0 -0.42 0.58 2 2 0 0 0 -1.77 0.37A1.84 1.84 0 0 0 5.31 7a4.2 4.2 0 0 0 1.14 1.42 38.77 38.77 0 0 0 3.58 2 7.28 7.28 0 0 0 1.43 0.48 4 4 0 0 0 0.59 0.09c-0.17 1.36 -0.38 2.72 -0.52 4.09a38.51 38.51 0 0 0 -0.2 3.89 43.2 43.2 0 0 0 0.24 4.55 0.35 0.35 0 0 0 0.36 0.31 0.34 0.34 0 0 0 0.32 -0.36c0 -1.52 0.06 -3 0.15 -4.6 0 -0.22 0.16 -2.6 0.18 -3.07 0.08 -1.61 0.09 -3.22 0.11 -4.81a6.06 6.06 0 0 0 1.19 -0.21 15.85 15.85 0 0 0 3.18 -1.4 8.69 8.69 0 0 0 2.2 -1.64 3.79 3.79 0 0 0 1 -1.7 1.69 1.69 0 0 0 -0.67 -1.94Zm-0.34 1.74a2.7 2.7 0 0 1 -0.71 1.27 7.5 7.5 0 0 1 -1.91 1.5 15.09 15.09 0 0 1 -3 1.42 4.19 4.19 0 0 1 -2 0.16 6.05 6.05 0 0 1 -1.31 -0.4 20.83 20.83 0 0 1 -3.43 -1.88A3.45 3.45 0 0 1 6 6.66c-0.25 -0.63 -0.19 -1.1 0.12 -1.36a1.37 1.37 0 0 1 1.41 0 0.41 0.41 0 0 0 0.4 0 0.43 0.43 0 0 0 0.2 -0.35 0.57 0.57 0 0 1 0.2 -0.43c0.08 -0.06 0.19 0 0.31 0A1.26 1.26 0 0 1 9 4.9a3.4 3.4 0 0 1 0.29 0.57 0.49 0.49 0 0 0 0.93 -0.23 7.78 7.78 0 0 1 0.06 -1.74 3.06 3.06 0 0 1 0.59 -1.5 1.55 1.55 0 0 1 1.74 -0.7A2.36 2.36 0 0 1 14 2.92a4.09 4.09 0 0 1 0.15 0.76 11 11 0 0 1 0 1.28 0.57 0.57 0 0 0 0.38 0.55 0.58 0.58 0 0 0 0.64 -0.21 3.14 3.14 0 0 1 1.07 -0.94l0.13 0c0.08 0 0.12 0.24 0.13 0.44a0.55 0.55 0 0 0 0.85 0.43 2 2 0 0 1 1.45 -0.29c0.36 0.06 0.56 0.36 0.45 0.9Z" fill="#020202" fill-rule="evenodd" stroke-width="1"></path>
    <path d="M8.19 13.39a4.88 4.88 0 0 0 -1.41 -2 2.54 2.54 0 0 0 -2 -0.57 1.73 1.73 0 0 0 -1.21 0.93 2.19 2.19 0 0 0 -0.21 0.59s0 0.07 0 0.11l-0.44 -0.1a2.89 2.89 0 0 0 -0.83 0 2.59 2.59 0 0 0 -1.67 1 2 2 0 0 0 -0.29 2 2.62 2.62 0 0 0 0.64 0.95 4.1 4.1 0 0 0 0.71 0.53A2.87 2.87 0 0 0 1.15 18a1.91 1.91 0 0 0 0.41 1.37 1.6 1.6 0 0 0 0.61 0.44 2.92 2.92 0 0 0 0.94 0.22A5.68 5.68 0 0 0 6.73 19c0.66 -0.48 2.78 -2.19 1.46 -5.61Zm-1.92 4.93a4.75 4.75 0 0 1 -3.07 0.76 2.44 2.44 0 0 1 -0.52 -0.08 0.8 0.8 0 0 1 -0.32 -0.22 1 1 0 0 1 -0.12 -0.84 1.84 1.84 0 0 1 0.48 -0.94 0.57 0.57 0 0 0 -0.19 -0.92 3 3 0 0 1 -0.82 -0.48 1.79 1.79 0 0 1 -0.51 -0.6 1 1 0 0 1 0.14 -1 1.48 1.48 0 0 1 0.93 -0.56 1.83 1.83 0 0 1 0.66 0 3.76 3.76 0 0 1 0.73 0.2 0.53 0.53 0 0 0 0.49 -0.07 0.52 0.52 0 0 0 0.22 -0.44 3.13 3.13 0 0 1 0 -0.53 1.7 1.7 0 0 1 0.11 -0.43 0.82 0.82 0 0 1 0.72 -0.5 1.85 1.85 0 0 1 1.07 0.35 4.11 4.11 0 0 1 1.27 1.6 3.48 3.48 0 0 1 -1.27 4.7Z" fill="#020202" fill-rule="evenodd" stroke-width="1"></path>
  </g>
</svg>