<svg xmlns="http://www.w3.org/2000/svg" viewBox="0 0 24 24" id="Vegetable-Cerery--Streamline-Freehand">
  <desc>
    Vegetable Cerery Streamline Icon: https://streamlinehq.com
  </desc>
  <g>
    <path d="M23.78 11.55a2.24 2.24 0 0 0 -0.4 -2 2.79 2.79 0 0 0 -1.09 -0.81 3 3 0 0 0 0.52 -0.6 2.31 2.31 0 0 0 -0.22 -2.67 2.4 2.4 0 0 0 -0.43 -0.47 2.75 2.75 0 0 0 -0.26 -0.22 3.59 3.59 0 0 0 0.15 -2.55A2.56 2.56 0 0 0 19.43 0.51a3.57 3.57 0 0 0 -1.56 0.36 4.68 4.68 0 0 0 -0.87 0.53 2.25 2.25 0 0 0 -1.87 -0.47 2.9 2.9 0 0 0 -0.65 -0.45 2.57 2.57 0 0 0 -1 -0.22 2.27 2.27 0 0 0 -0.86 0.16 3.32 3.32 0 0 0 -0.68 0.34 2.33 2.33 0 0 0 -2.5 -0.65 2.77 2.77 0 0 0 -1.83 1.64 3.34 3.34 0 0 0 -2.1 0.6 2.78 2.78 0 0 0 -1.16 2.46A2.89 2.89 0 0 0 4.75 6a4 4 0 0 0 0.35 0.49 2.52 2.52 0 0 0 -0.84 1.36 3.87 3.87 0 0 0 0.39 2.74 13.15 13.15 0 0 0 -2.37 2.31 8.78 8.78 0 0 0 -2.13 5.79 5.59 5.59 0 0 0 2 4A5.7 5.7 0 0 0 6.46 24a6.86 6.86 0 0 0 2.62 -1 10.45 10.45 0 0 0 2.14 -1.64 17.12 17.12 0 0 0 1.53 -1.78 3.46 3.46 0 0 0 2 0.44 2.39 2.39 0 0 0 1.61 -0.87 2.85 2.85 0 0 0 2.69 0 3.35 3.35 0 0 0 1.66 -2 2.82 2.82 0 0 0 2.58 -1.49 3.62 3.62 0 0 0 0.14 -3.14 3.73 3.73 0 0 0 0.16 -0.35 3.43 3.43 0 0 0 0.19 -0.62Zm-7.22 -9a0.56 0.56 0 0 0 0.77 0.05 4.57 4.57 0 0 1 1 -0.66 2.44 2.44 0 0 1 1.08 -0.24 1.49 1.49 0 0 1 1.54 1 2.56 2.56 0 0 1 -0.28 2.07 0.59 0.59 0 0 0 -0.07 0.43 0.56 0.56 0 0 0 0.26 0.34 4.87 4.87 0 0 1 0.47 0.32 1.66 1.66 0 0 1 0.35 0.35 1.27 1.27 0 0 1 -0.05 1.81 3 3 0 0 1 -2.16 0.79 0.48 0.48 0 0 0 -0.4 0.17 0.49 0.49 0 0 0 -0.09 0.42 2.62 2.62 0 0 1 -0.29 2.15 1.42 1.42 0 0 1 -1.87 0.31 0.42 0.42 0 0 0 -0.46 0.1 4.43 4.43 0 0 1 -1.57 1.18 4 4 0 0 1 -1.93 0.3 0.33 0.33 0 0 0 -0.28 0.12 0.36 0.36 0 0 0 -0.34 -0.21 1.8 1.8 0 0 1 -1.24 -0.54 1.74 1.74 0 0 1 -0.63 -1.19 0.4 0.4 0 0 0 -0.15 -0.29l-0.14 -0.07a4 4 0 0 1 0.07 -0.92A3.35 3.35 0 0 1 10.71 9a0.34 0.34 0 0 0 -0.05 -0.45 2.11 2.11 0 0 1 -0.47 -2.43 1.76 1.76 0 0 1 2.12 -0.9 0.44 0.44 0 0 0 0.37 -0.07 0.46 0.46 0 0 0 0.2 -0.32 4.15 4.15 0 0 1 1.5 -2.4 1.49 1.49 0 0 1 2.18 0.08Zm-11.63 6A1.73 1.73 0 0 1 6 7a0.47 0.47 0 0 0 0.15 -0.77 3 3 0 0 1 -0.53 -0.73 1.91 1.91 0 0 1 -0.2 -0.77 1.7 1.7 0 0 1 0.75 -1.48 2.14 2.14 0 0 1 1.71 -0.34 0.54 0.54 0 0 0 0.46 -0.09 0.56 0.56 0 0 0 0.24 -0.39 1.66 1.66 0 0 1 1.17 -1.34 1.38 1.38 0 0 1 1.67 0.51 0.43 0.43 0 0 0 0.29 0.2 0.47 0.47 0 0 0 0.35 -0.08 4.19 4.19 0 0 1 0.69 -0.47 1.83 1.83 0 0 1 0.72 -0.25 1.76 1.76 0 0 1 0.72 0.12l0.13 0.07a5.12 5.12 0 0 0 -2.27 3 2.54 2.54 0 0 0 -2.6 1.54A2.84 2.84 0 0 0 10 8.87a4.16 4.16 0 0 0 -0.49 1.35 4 4 0 0 0 -0.05 1 1.86 1.86 0 0 1 -0.58 -0.29A4.61 4.61 0 0 1 7.7 9.36a0.48 0.48 0 0 0 -0.63 -0.22 13.55 13.55 0 0 0 -1.91 1.12 3.12 3.12 0 0 1 -0.23 -1.77Zm7.8 9.9a17 17 0 0 1 -2.1 2.39 10 10 0 0 1 -2 1.46 6.22 6.22 0 0 1 -2.27 0.7 4.68 4.68 0 0 1 -2 -0.28A5.77 5.77 0 0 1 2 20.82a4.42 4.42 0 0 1 -0.72 -2.19 7.74 7.74 0 0 1 1.86 -5 13 13 0 0 1 3.93 -3.38 5 5 0 0 0 1.24 1.4 2.73 2.73 0 0 0 0.72 0.37c-0.09 0 0.49 0.42 0.63 0.33a2.65 2.65 0 0 0 1.91 1.62c-0.06 0.09 0.54 0.45 0.59 0.35a3.73 3.73 0 0 0 0.84 1.05 2.78 2.78 0 0 0 1.28 0.7 23.54 23.54 0 0 1 -1.55 2.32Zm10.2 -7a2.78 2.78 0 0 1 -0.18 0.48 4.25 4.25 0 0 1 -0.27 0.46 0.51 0.51 0 0 0 0 0.45 2.63 2.63 0 0 1 -0.14 2.39 1.79 1.79 0 0 1 -2 0.87 0.6 0.6 0 0 0 -0.45 0.1 0.61 0.61 0 0 0 -0.23 0.4 2.29 2.29 0 0 1 -1.15 1.74 1.92 1.92 0 0 1 -2.05 0 0.39 0.39 0 0 0 -0.36 -0.07 0.42 0.42 0 0 0 -0.28 0.22 1.6 1.6 0 0 1 -1.21 0.95 2.61 2.61 0 0 1 -1.49 -0.21c0.07 -0.1 0.16 -0.19 0.23 -0.29A29 29 0 0 0 15.06 16a0.29 0.29 0 0 0 0 -0.3 0.37 0.37 0 0 0 -0.3 -0.15 2 2 0 0 1 -1.35 -0.62 2.9 2.9 0 0 1 -0.58 -0.86 4.64 4.64 0 0 0 2.27 -0.3 5.15 5.15 0 0 0 1.68 -1.12 2.14 2.14 0 0 0 2.63 -0.65A3.39 3.39 0 0 0 20 9.68a4.23 4.23 0 0 0 1.58 -0.46 2.32 2.32 0 0 1 1.17 0.81 1.45 1.45 0 0 1 0.18 1.31Z" fill="#020202" fill-rule="evenodd" stroke-width="1"></path>
    <path d="M7.44 20.87a25.83 25.83 0 0 0 2.17 -2.55 34.83 34.83 0 0 0 2.25 -3.48c0.14 -0.51 -0.37 -0.65 -0.59 -0.39 -0.68 1.07 -1.18 1.77 -1.87 2.69a24.3 24.3 0 0 1 -2.69 3 6.38 6.38 0 0 1 -1.79 1.26c-1.26 0.51 -0.06 1.26 0.44 1a7.21 7.21 0 0 0 2.08 -1.53Z" fill="#4C57E6" fill-rule="evenodd" stroke-width="1"></path>
    <path d="M3.62 18.6a12.27 12.27 0 0 1 2.56 -3.54A17.66 17.66 0 0 1 9 12.8c0.25 -0.27 0.1 -0.64 -0.46 -0.48a18.35 18.35 0 0 0 -2.94 2.11 13.53 13.53 0 0 0 -3 3.67 5.94 5.94 0 0 0 -0.57 1.77c0 0.9 0.67 1.12 0.94 0.7a11.68 11.68 0 0 1 0.65 -1.97Z" fill="#4C57E6" fill-rule="evenodd" stroke-width="1"></path>
  </g>
</svg>