<svg xmlns="http://www.w3.org/2000/svg" viewBox="0 0 24 24" id="Vegetables-Mushroom--Streamline-Freehand">
  <desc>
    Vegetables Mushroom Streamline Icon: https://streamlinehq.com
  </desc>
  <g>
    <path d="M22.29 3.6A5.77 5.77 0 0 0 21.1 3c-0.58 -0.22 -1.2 -0.37 -1.78 -0.53 -1.06 -0.29 -2.14 -0.54 -3.24 -0.73a26.58 26.58 0 0 0 -3.31 -0.36 11.62 11.62 0 0 0 -3.34 0.37 32.3 32.3 0 0 0 -4.59 1.68c-0.63 0.27 -1.32 0.52 -2 0.83A7 7 0 0 0 1.58 5 4.23 4.23 0 0 0 0.32 6.61a3.81 3.81 0 0 0 -0.29 2 2.57 2.57 0 0 0 0.49 1.24 1.65 1.65 0 0 0 0.8 0.56A2.56 2.56 0 0 0 3 10.26a4.64 4.64 0 0 0 0.43 -0.26 2.32 2.32 0 0 1 1.3 1 8.08 8.08 0 0 1 1.07 2.49 39.16 39.16 0 0 0 1.49 5.6A6.22 6.22 0 0 0 10 22.25a3.1 3.1 0 0 0 2.65 0.15 5.44 5.44 0 0 0 2.65 -2.6 5.68 5.68 0 0 0 0.36 -0.94c0.13 -0.43 0.23 -0.88 0.36 -1.33 0.19 -0.66 0.4 -1.32 0.59 -2q0.2 -0.69 0.33 -1.38c0.12 -0.6 0.16 -1.22 0.25 -1.82a5.62 5.62 0 0 1 0.16 -0.71 4.26 4.26 0 0 1 0.8 -1.5 7.8 7.8 0 0 1 1.26 -1.22 0.3 0.3 0 0 0 0.1 -0.33c0.18 0 0.35 0.1 0.52 0.13a5.58 5.58 0 0 0 1.82 0.06 4.05 4.05 0 0 0 0.47 -0.12 2.09 2.09 0 0 0 0.41 -0.17 2 2 0 0 0 1.27 -2 4.15 4.15 0 0 0 -1.71 -2.87Zm-4.73 6.06a5.28 5.28 0 0 0 -1 1.72 8 8 0 0 0 -0.21 0.81c-0.11 0.59 -0.17 1.19 -0.31 1.78 -0.1 0.43 -0.23 0.86 -0.36 1.29 -0.21 0.66 -0.44 1.31 -0.66 2 -0.14 0.45 -0.25 0.89 -0.4 1.31a5.69 5.69 0 0 1 -0.32 0.77 4.61 4.61 0 0 1 -1.66 1.82 2.07 2.07 0 0 1 -2.11 0.11 5.21 5.21 0 0 1 -2.25 -2.54 43.09 43.09 0 0 1 -1.69 -5.38 8.91 8.91 0 0 0 -1.29 -2.7 3.46 3.46 0 0 0 -1.17 -1l0.76 -0.46A15.73 15.73 0 0 1 7.44 8a8.7 8.7 0 0 1 2.73 -0.56s2.29 -0.06 4.5 0.12a14.4 14.4 0 0 1 2.9 0.47l1.36 0.43a8.08 8.08 0 0 0 -1.37 1.2Zm4.76 -2 -0.62 0.22a4.57 4.57 0 0 1 -1.52 0 20.08 20.08 0 0 1 -2.37 -0.62 14.13 14.13 0 0 0 -3.08 -0.44c-2.26 -0.14 -4.58 0 -4.58 0a10 10 0 0 0 -2.93 0.61 16.6 16.6 0 0 0 -2.7 1.2 13 13 0 0 1 -1.83 1 1.71 1.71 0 0 1 -1.11 0.1 0.84 0.84 0 0 1 -0.44 -0.39 1.58 1.58 0 0 1 -0.21 -0.69A2.76 2.76 0 0 1 1.19 7a3.11 3.11 0 0 1 1 -1.18 6.54 6.54 0 0 1 1.12 -0.62c0.64 -0.29 1.32 -0.51 1.95 -0.76A29.27 29.27 0 0 1 9.7 2.87a10.49 10.49 0 0 1 3 -0.33 26 26 0 0 1 3.17 0.33c1.13 0.18 2.13 0.41 3.13 0.68 0.56 0.14 1.14 0.27 1.7 0.47a4 4 0 0 1 1 0.46 3.2 3.2 0 0 1 1.24 1.65 1.15 1.15 0 0 1 -0.62 1.48Z" fill="#020202" fill-rule="evenodd" stroke-width="1"></path>
    <path d="M10.57 17.17a27.89 27.89 0 0 1 -0.71 -2.76 17.06 17.06 0 0 0 -1 -2.85 7.24 7.24 0 0 0 -0.72 -1.13A11.69 11.69 0 0 0 6.84 9a0.3 0.3 0 0 0 -0.43 0 0.31 0.31 0 0 0 0 0.43 10.59 10.59 0 0 1 0.93 1.19A5.55 5.55 0 0 1 8 12a21.26 21.26 0 0 1 0.66 2.33 22.11 22.11 0 0 0 0.72 2.44 8.23 8.23 0 0 0 1.81 3 0.34 0.34 0 1 0 0.51 -0.45 7 7 0 0 1 -1.13 -2.15Z" fill="#4C57E6" fill-rule="evenodd" stroke-width="1"></path>
    <path d="M11.36 9.55a0.31 0.31 0 0 0 -0.36 -0.23 0.32 0.32 0 0 0 -0.23 0.37 14.3 14.3 0 0 1 0 2.07l0 1.4a14.88 14.88 0 0 0 0.32 2.4 0.33 0.33 0 0 0 0.38 0.3 0.34 0.34 0 0 0 0.3 -0.37c0 -0.71 0.08 -1.4 0.11 -2.1a11.53 11.53 0 0 0 0 -1.44 9.07 9.07 0 0 0 -0.52 -2.4Z" fill="#4C57E6" fill-rule="evenodd" stroke-width="1"></path>
    <path d="M15.92 9a4.69 4.69 0 0 0 -2.4 2.51 7.36 7.36 0 0 0 -0.52 1.6 9.37 9.37 0 0 0 -0.16 1.7c0 0.6 0.08 1.21 0.09 1.82a4.52 4.52 0 0 1 -0.11 1.1 0.34 0.34 0 0 0 0.65 0.21 4.56 4.56 0 0 0 0.24 -1c0.11 -0.7 0.1 -1.42 0.18 -2.13a13 13 0 0 1 0.3 -1.82 10.33 10.33 0 0 1 0.54 -1.74 3.86 3.86 0 0 1 1.46 -1.81 0.3 0.3 0 0 0 0.13 -0.41 0.29 0.29 0 0 0 -0.4 -0.03Z" fill="#4C57E6" fill-rule="evenodd" stroke-width="1"></path>
  </g>
</svg>