<svg xmlns="http://www.w3.org/2000/svg" viewBox="0 0 24 24" id="Vegetable-Cucumber-Slice-2--Streamline-Freehand">
  <desc>
    Vegetable Cucumber Slice 2 Streamline Icon: https://streamlinehq.com
  </desc>
  <g>
    <path d="M23.84 14.69a7 7 0 0 0 -4.12 -5.37 0.32 0.32 0 0 0 -0.35 0.07 0.3 0.3 0 0 0 -0.17 -0.22 6.36 6.36 0 0 0 -6.08 0.37 7.12 7.12 0 0 0 -3.36 5.21 7.59 7.59 0 0 0 1.11 5 8.29 8.29 0 0 0 4 3.29 7.44 7.44 0 0 0 4 0.41 5.71 5.71 0 0 0 3.5 -2.06 8.39 8.39 0 0 0 1.47 -6.7Zm-2.27 6.08a4.73 4.73 0 0 1 -2.91 1.62 6.37 6.37 0 0 1 -3.4 -0.37 7.33 7.33 0 0 1 -3.46 -2.84 6.69 6.69 0 0 1 -1.07 -4.32 6.24 6.24 0 0 1 2.8 -4.66A5.68 5.68 0 0 1 19 9.7a0.29 0.29 0 0 0 0.31 0 0.33 0.33 0 0 0 0.2 0.28A6.2 6.2 0 0 1 23 14.84a7.45 7.45 0 0 1 -1.43 5.93Z" fill="#020202" fill-rule="evenodd" stroke-width="1"></path>
    <path d="M15.44 10.68a0.33 0.33 0 1 0 0.19 0.63 4 4 0 0 1 4.1 1.13A4.9 4.9 0 0 1 21 16.58a5.12 5.12 0 0 1 -0.51 1.64 2.52 2.52 0 0 1 -1.05 1.12 3.71 3.71 0 0 1 -0.8 0.32 5.31 5.31 0 0 1 -0.87 0.16 5 5 0 0 1 -1.68 -0.12 3.48 3.48 0 0 1 -1.49 -0.7 4.83 4.83 0 0 1 -1.6 -3.63 4.62 4.62 0 0 1 1.58 -3.7 0.29 0.29 0 1 0 -0.35 -0.47 5.27 5.27 0 0 0 -2 4.16 5.78 5.78 0 0 0 1.71 4.41 4.34 4.34 0 0 0 1.87 1 5.94 5.94 0 0 0 2.05 0.17 5.72 5.72 0 0 0 1.07 -0.19 5.24 5.24 0 0 0 1 -0.41 3.46 3.46 0 0 0 1.28 -1.24 6.05 6.05 0 0 0 -0.88 -7.24 4.72 4.72 0 0 0 -4.89 -1.18Z" fill="#020202" fill-rule="evenodd" stroke-width="1"></path>
    <path d="M16.9 15.11a0.33 0.33 0 0 0 0.32 -0.34 3.86 3.86 0 0 0 0.17 -0.58 2.29 2.29 0 0 0 0 -0.25 0.67 0.67 0 0 0 0 -0.24 5.36 5.36 0 0 0 -0.26 -0.54 0.3 0.3 0 0 0 -0.3 -0.29 0.29 0.29 0 0 0 -0.29 0.3 4.19 4.19 0 0 0 -0.22 0.59 0.65 0.65 0 0 0 0 0.24 0.6 0.6 0 0 0 0.05 0.24 5.25 5.25 0 0 0 0.22 0.55 0.32 0.32 0 0 0 0.31 0.32Z" fill="#4C57E6" fill-rule="evenodd" stroke-width="1"></path>
    <path d="M15.47 17.58c0.16 -0.11 0.32 -0.17 0.48 -0.29l0.17 -0.14a0.8 0.8 0 0 0 0.13 -0.19 3.81 3.81 0 0 0 0.19 -0.57A0.29 0.29 0 0 0 16 16a3.39 3.39 0 0 0 -0.55 0.24 0.73 0.73 0 0 0 -0.18 0.17 0.86 0.86 0 0 0 -0.13 0.2 2.92 2.92 0 0 0 -0.21 0.56 0.34 0.34 0 0 0 0.53 0.41Z" fill="#4C57E6" fill-rule="evenodd" stroke-width="1"></path>
    <path d="M18.06 17a0.61 0.61 0 0 0 0.16 0.16 1.13 1.13 0 0 0 0.21 0.12c0.18 0.08 0.35 0.11 0.54 0.18a0.33 0.33 0 0 0 0.47 0 0.34 0.34 0 0 0 -0.05 -0.47 4.19 4.19 0 0 0 -0.31 -0.5 0.91 0.91 0 0 0 -0.17 -0.17 0.86 0.86 0 0 0 -0.2 -0.13 3.77 3.77 0 0 0 -0.58 -0.14 0.3 0.3 0 0 0 -0.36 0.47 2.65 2.65 0 0 0 0.29 0.48Z" fill="#4C57E6" fill-rule="evenodd" stroke-width="1"></path>
    <path d="M7.53 8.32a6.44 6.44 0 0 0 -1.9 -1.84C6.32 6.25 7 6 7.69 5.74c1 -0.36 2 -0.71 3 -1.1a20.63 20.63 0 0 0 2 -0.91 26.48 26.48 0 0 1 3.61 -1.85 5.29 5.29 0 0 1 2.48 -0.31 4.25 4.25 0 0 1 2.89 1.62A6.67 6.67 0 0 1 23 6.45a5.17 5.17 0 0 1 0 1.92 2.28 2.28 0 0 1 -0.54 1.06 0.3 0.3 0 0 0 0 0.41 0.29 0.29 0 0 0 0.42 0 2.92 2.92 0 0 0 0.75 -1.31 5.85 5.85 0 0 0 0.15 -2.16 7.48 7.48 0 0 0 -1.35 -3.77A5.2 5.2 0 0 0 18.92 0.47a6.2 6.2 0 0 0 -3 0.35 25.21 25.21 0 0 0 -3.77 2c-0.6 0.34 -1.21 0.65 -1.84 0.93 -1 0.43 -1.94 0.82 -2.92 1.22 -0.74 0.3 -1.46 0.64 -2.21 0.9l-0.62 0.19a2.82 2.82 0 0 0 -1.8 0.42 6.26 6.26 0 0 0 -2.18 2.6l-0.29 0.86a8.49 8.49 0 0 0 -0.14 3.79 9.73 9.73 0 0 0 1.41 3.46 7.47 7.47 0 0 0 1.35 1.55 5.79 5.79 0 0 0 1.76 1.05 3.62 3.62 0 0 0 0.56 0.17 5.67 5.67 0 0 0 0.57 0.1A3.57 3.57 0 0 0 7 20a2.4 2.4 0 0 0 1.1 -0.56 0.29 0.29 0 0 0 0 -0.41 0.3 0.3 0 0 0 -0.41 0 1.79 1.79 0 0 1 -0.85 0.38 2.64 2.64 0 0 1 -1 0 2.4 2.4 0 0 1 -0.48 -0.11 2.29 2.29 0 0 1 -0.36 -0.21 5 5 0 0 1 -1.48 -1 6.54 6.54 0 0 1 -1.1 -1.42 9 9 0 0 1 -1.14 -3.15 7.74 7.74 0 0 1 0.13 -3.29l0.23 -0.72a5.06 5.06 0 0 1 1.65 -2.18 1.83 1.83 0 0 1 1.56 -0.27 5.63 5.63 0 0 1 2 1.71 9.59 9.59 0 0 1 1.28 2.53 0.33 0.33 0 1 0 0.63 -0.21 10.08 10.08 0 0 0 -1.23 -2.77Z" fill="#020202" fill-rule="evenodd" stroke-width="1"></path>
    <path d="m6 10.75 -0.22 -0.41 -0.2 -0.3a2.64 2.64 0 0 0 -0.74 -0.84 1 1 0 0 0 -0.94 0 0.35 0.35 0 0 0 -0.13 0.11l-0.08 0.06a3.71 3.71 0 0 0 -1.06 2.2 6.94 6.94 0 0 0 0.6 3.55l0.23 0.47 0.25 0.39A3.08 3.08 0 0 0 5.1 17a1.37 1.37 0 0 0 1.43 -0.32 1.9 1.9 0 0 0 0.47 -0.89 3.44 3.44 0 0 0 0.07 -1.27 9.36 9.36 0 0 0 -0.39 -1.95A12.35 12.35 0 0 0 6 10.75Zm0 4.6a0.93 0.93 0 0 1 -0.26 0.5c-0.14 0.14 -0.31 0.08 -0.47 0a2 2 0 0 1 -0.7 -0.58L4.38 15l-0.21 -0.36a6 6 0 0 1 -0.79 -3 3.05 3.05 0 0 1 0.68 -1.81l0.11 0a0.31 0.31 0 0 1 0.36 0.1 2.55 2.55 0 0 1 0.39 0.58l0.16 0.29 0.16 0.36a10.9 10.9 0 0 1 0.56 1.73 8.78 8.78 0 0 1 0.25 1.76 3.37 3.37 0 0 1 -0.05 0.7Z" fill="#4C57E6" fill-rule="evenodd" stroke-width="1"></path>
    <path d="M17.6 4.23a4.92 4.92 0 0 0 -0.65 0.21 5.71 5.71 0 0 0 -0.6 0.31 15 15 0 0 0 -1.27 0.87 0.32 0.32 0 0 0 -0.14 0.45 0.33 0.33 0 0 0 0.45 0.13c0.54 -0.21 1.08 -0.36 1.61 -0.57 0.3 -0.11 0.6 -0.24 0.91 -0.37a11.78 11.78 0 0 1 1.36 -0.57 0.29 0.29 0 1 0 -0.07 -0.58 6.08 6.08 0 0 0 -1.6 0.12Z" fill="#020202" fill-rule="evenodd" stroke-width="1"></path>
  </g>
</svg>