<svg xmlns="http://www.w3.org/2000/svg" viewBox="0 0 24 24" id="Vegetables-Cucumber-1--Streamline-Freehand">
  <desc>
    Vegetables Cucumber 1 Streamline Icon: https://streamlinehq.com
  </desc>
  <g>
    <path d="M23.73 3.43a2.21 2.21 0 0 0 -1.64 -0.78h-0.24a4 4 0 0 1 0.24 -0.33A4.22 4.22 0 0 1 23.73 1 0.33 0.33 0 0 0 24 0.61a0.34 0.34 0 0 0 -0.43 -0.22 5.21 5.21 0 0 0 -2.47 1.75 3.16 3.16 0 0 0 -0.51 0.91 3.43 3.43 0 0 0 -1.5 1.47 6.56 6.56 0 0 0 -2.2 -0.77 3.89 3.89 0 0 0 -2.08 0.25 6.6 6.6 0 0 0 -0.74 0.39 5 5 0 0 0 -0.69 0.49l-0.76 0.75 -0.62 -0.07a1.84 1.84 0 0 0 -0.69 0.08 2.25 2.25 0 0 0 -0.61 0.33 1.15 1.15 0 0 0 -0.35 0.48c-0.1 0.25 -0.06 0.54 -0.21 0.78a1.62 1.62 0 0 1 -0.32 0.32c-0.24 0.19 -0.51 0.35 -0.73 0.5s-0.55 0.41 -0.86 0.61a2 2 0 0 1 -0.52 0.27c-0.49 0.14 -1 0.09 -1.43 0.24a1.83 1.83 0 0 0 -0.7 0.44 1.72 1.72 0 0 0 -0.38 0.54A3 3 0 0 0 5 11a1.42 1.42 0 0 1 -0.22 0.8 4.46 4.46 0 0 1 -0.79 0.77 12 12 0 0 1 -1.43 1 6.92 6.92 0 0 0 -1 0.55 1.4 1.4 0 0 0 -0.41 0.6 1.43 1.43 0 0 0 -0.1 0.62c0 0.29 0.19 0.53 0.2 0.87a1.67 1.67 0 0 1 -0.21 0.69c-0.22 0.47 -0.52 0.92 -0.7 1.32a3.7 3.7 0 0 0 -0.24 2.42 4.15 4.15 0 0 0 1.18 2 3.26 3.26 0 0 0 1.61 0.84 6.72 6.72 0 0 0 2.49 0l0.85 -0.26a7.81 7.81 0 0 0 1.66 0 1.92 1.92 0 0 0 0.82 -0.41 2 2 0 0 0 0.45 -0.55c0.2 -0.35 0.24 -0.74 0.44 -1.15a1.35 1.35 0 0 1 0.28 -0.35 3.83 3.83 0 0 1 0.46 -0.33l0.71 -0.39c0.49 -0.09 0.86 0 1.25 -0.1a2.15 2.15 0 0 0 1 -0.46 2.26 2.26 0 0 0 0.7 -0.91c0.25 -0.58 0.17 -1.25 0.7 -1.77l0.55 -0.48c0.39 -0.14 0.77 -0.12 1.12 -0.26a1.45 1.45 0 0 0 0.57 -0.35 2 2 0 0 0 0.54 -0.84 7.07 7.07 0 0 1 0.49 -1.66 5.61 5.61 0 0 1 0.51 -0.66 1.73 1.73 0 0 1 0.36 -0.32c0.3 -0.18 0.66 -0.29 0.94 -0.49a1.3 1.3 0 0 0 0.42 -0.42 1.24 1.24 0 0 0 0.22 -0.71c0 -0.38 -0.3 -0.71 -0.28 -1.14l0.27 -1.14a6.16 6.16 0 0 0 0.09 -1.81 3.85 3.85 0 0 0 -0.62 -1.75s-0.07 0 -0.1 -0.08a2.48 2.48 0 0 1 0.69 -0.68s0 0.11 0 0.17a1.89 1.89 0 0 0 1.39 1.44 1.72 1.72 0 0 0 1.92 -0.74 1.25 1.25 0 0 0 -0.05 -1.45Zm-4.09 4.82c-0.05 0.27 -0.16 0.54 -0.23 0.8a3.49 3.49 0 0 0 -0.07 0.43 3.77 3.77 0 0 0 0.24 1.1 0.46 0.46 0 0 1 -0.08 0.36 0.75 0.75 0 0 1 -0.31 0.25c-0.26 0.15 -0.56 0.24 -0.81 0.39a2.32 2.32 0 0 0 -0.55 0.46 5.47 5.47 0 0 0 -0.6 0.75 8.16 8.16 0 0 0 -0.63 1.84 1.24 1.24 0 0 1 -0.31 0.48 0.8 0.8 0 0 1 -0.38 0.19 10 10 0 0 0 -1 0.2 1.22 1.22 0 0 0 -0.37 0.2 6.3 6.3 0 0 0 -0.53 0.47c-0.65 0.61 -0.64 1.37 -0.95 2.06a1.47 1.47 0 0 1 -0.41 0.51 1.17 1.17 0 0 1 -0.53 0.24c-0.39 0.07 -0.76 0 -1.25 0.09a1.76 1.76 0 0 0 -0.41 0.13 6.75 6.75 0 0 0 -0.66 0.38 3.9 3.9 0 0 0 -0.74 0.54 2.19 2.19 0 0 0 -0.43 0.57c-0.17 0.34 -0.23 0.67 -0.37 1A0.79 0.79 0 0 1 8 22a0.84 0.84 0 0 1 -0.49 0.21c-0.41 0 -0.82 -0.11 -1.29 -0.1a1.65 1.65 0 0 0 -0.31 0c-0.23 0.06 -0.48 0.18 -0.7 0.22a6.32 6.32 0 0 1 -1.74 0.08 2.25 2.25 0 0 1 -1.38 -0.6 3 3 0 0 1 -0.85 -1.48 2.51 2.51 0 0 1 0.14 -1.64c0.2 -0.47 0.59 -1 0.8 -1.56a2.5 2.5 0 0 0 0.19 -0.94 4.28 4.28 0 0 0 -0.2 -0.87 0.31 0.31 0 0 1 0 -0.21 0.47 0.47 0 0 1 0.16 -0.2c0.24 -0.16 0.54 -0.25 0.79 -0.41a12.35 12.35 0 0 0 1.54 -1.11 6.89 6.89 0 0 0 0.93 -0.95 1.85 1.85 0 0 0 0.29 -0.6A4 4 0 0 0 6 11a1.09 1.09 0 0 1 0.25 -0.74 1 1 0 0 1 0.48 -0.26c0.39 -0.1 0.82 -0.09 1.24 -0.22a2.42 2.42 0 0 0 0.58 -0.29c0.37 -0.23 0.75 -0.55 1 -0.76a8.88 8.88 0 0 0 0.89 -0.66 1.7 1.7 0 0 0 0.37 -0.44 5 5 0 0 0 0.27 -0.93 0.24 0.24 0 0 1 0.09 -0.14 1.08 1.08 0 0 1 0.35 -0.19 1 1 0 0 1 0.38 -0.07 3.91 3.91 0 0 0 0.64 0.07 0.9 0.9 0 0 0 0.46 -0.07 1.49 1.49 0 0 0 0.35 -0.3c0.18 -0.18 0.33 -0.41 0.51 -0.57a5.32 5.32 0 0 1 0.59 -0.43 6 6 0 0 1 0.66 -0.35 3.35 3.35 0 0 1 2.15 -0.18c2.62 0.54 2.47 1.9 2.49 2.17a5.81 5.81 0 0 1 -0.11 1.61Zm3.16 -3.94a0.61 0.61 0 0 1 -0.68 0.25 0.77 0.77 0 0 1 -0.62 -0.56 1.1 1.1 0 0 1 0 -0.36 2.27 2.27 0 0 1 0.58 0 1.22 1.22 0 0 1 0.59 0.25c0.12 0.11 0.25 0.25 0.13 0.42Z" fill="#020202" fill-rule="evenodd" stroke-width="1"></path>
    <path d="M17 9.26a2.93 2.93 0 0 1 -0.66 0.26 1.18 1.18 0 0 1 -0.59 0 1 1 0 0 1 -0.28 -0.11s-0.08 0 -0.08 0a0.51 0.51 0 0 1 0 -0.23l0.25 -0.43 0.48 -0.55a0.3 0.3 0 0 0 0.12 -0.41 0.29 0.29 0 0 0 -0.4 -0.12l-0.77 0.46 -0.52 0.48a1.16 1.16 0 0 0 -0.12 1.39 1.53 1.53 0 0 0 1.18 0.58 2 2 0 0 0 0.84 -0.14 3 3 0 0 0 0.95 -0.63 0.35 0.35 0 0 0 0.07 -0.48 0.34 0.34 0 0 0 -0.47 -0.07Z" fill="#4C57E6" fill-rule="evenodd" stroke-width="1"></path>
    <path d="M10.43 13.51a4.9 4.9 0 0 1 -0.61 0.21 0.69 0.69 0 0 1 -0.42 -0.05c-0.28 -0.05 -0.29 -0.25 -0.23 -0.45a1.53 1.53 0 0 1 0.37 -0.7 0.3 0.3 0 0 0 0.12 -0.41 0.3 0.3 0 0 0 -0.41 -0.11 2 2 0 0 0 -1 0.89 1.35 1.35 0 0 0 -0.19 0.66 1.2 1.2 0 0 0 1.12 1.18 1.51 1.51 0 0 0 0.8 -0.11 3.85 3.85 0 0 0 0.8 -0.51 0.34 0.34 0 0 0 -0.34 -0.6Z" fill="#4C57E6" fill-rule="evenodd" stroke-width="1"></path>
    <path d="M6.84 17.86a4.77 4.77 0 0 1 -0.81 0.61 1.18 1.18 0 0 1 -0.73 0.15 0.66 0.66 0 0 1 -0.3 -0.06c-0.1 -0.06 -0.22 -0.08 -0.27 -0.18a0.41 0.41 0 0 1 0 -0.45 0.3 0.3 0 1 0 -0.45 -0.41A1.13 1.13 0 0 0 4 19a1.49 1.49 0 0 0 1.3 0.82 2.06 2.06 0 0 0 1.12 -0.35 4 4 0 0 0 1 -1.13 0.35 0.35 0 0 0 0 -0.49 0.34 0.34 0 0 0 -0.58 0.01Z" fill="#4C57E6" fill-rule="evenodd" stroke-width="1"></path>
  </g>
</svg>