<svg xmlns="http://www.w3.org/2000/svg" viewBox="0 0 24 24" id="Vegetables-Radish--Streamline-Freehand">
  <desc>
    Vegetables Radish Streamline Icon: https://streamlinehq.com
  </desc>
  <g>
    <path d="M19 13.83a6.75 6.75 0 0 0 -1.46 -1.92 8.09 8.09 0 0 0 -3.63 -2c0.37 -0.35 0.76 -0.67 1.12 -1a19.24 19.24 0 0 0 2.42 -3 9 9 0 0 0 1.06 -2.41 3.87 3.87 0 0 0 0.02 -1.5 2.12 2.12 0 0 0 -0.44 -1 1.8 1.8 0 0 0 -1.8 -0.48 2.09 2.09 0 0 0 -1.43 1 0.3 0.3 0 1 0 0.53 0.29 1.41 1.41 0 0 1 1 -0.54 1 1 0 0 1 0.95 0.31 1.32 1.32 0 0 1 0.17 0.75 3.07 3.07 0 0 1 -0.14 0.89 9.47 9.47 0 0 1 -1 2.1 22.83 22.83 0 0 1 -2.1 2.95c-0.27 0.32 -0.56 0.62 -0.84 0.92 0.17 -0.77 0.35 -1.53 0.5 -2.31 0.09 -0.44 0.17 -0.89 0.24 -1.34a11.44 11.44 0 0 0 0.12 -2.44 4.56 4.56 0 0 0 -0.46 -1.69A2.56 2.56 0 0 0 11.94 0a2.34 2.34 0 0 0 -2.17 1.1 3.26 3.26 0 0 0 -0.49 1.24 6.17 6.17 0 0 0 0 1.82 15.54 15.54 0 0 0 0.48 2.35 18.79 18.79 0 0 0 0.79 2.25c0.14 0.32 0.27 0.66 0.42 1a8.2 8.2 0 0 0 -0.86 0.18c-0.84 -0.69 -1.82 -1.41 -2.68 -2.2A5.57 5.57 0 0 1 6 5.82a1.35 1.35 0 0 1 0.47 -1.71 2.14 2.14 0 0 1 2.09 -0.4 0.31 0.31 0 0 0 0.27 -0.55 3 3 0 0 0 -3.39 0.6 2.26 2.26 0 0 0 -0.5 2.51 5.43 5.43 0 0 0 1.24 1.79 20.3 20.3 0 0 0 3 2.14 7.52 7.52 0 0 0 -2.25 1.27A7 7 0 0 0 5 13.86 3.87 3.87 0 0 0 4.66 16a4.22 4.22 0 0 0 0.54 1.52 4.67 4.67 0 0 0 1 1.24c1 0.83 2.48 1.57 3.57 2.55a4.91 4.91 0 0 1 1.11 1.35 0.35 0.35 0 0 0 0.46 0.15 0.34 0.34 0 0 0 0.15 -0.46 5.77 5.77 0 0 0 -1.22 -1.59c-1.09 -1 -2.56 -1.85 -3.51 -2.67a3.36 3.36 0 0 1 -0.78 -1 3.2 3.2 0 0 1 -0.39 -1.19 3.07 3.07 0 0 1 0.52 -2 6.57 6.57 0 0 1 1.5 -1.61 6.87 6.87 0 0 1 4.63 -1.48 7 7 0 0 1 4.48 1.9 5.78 5.78 0 0 1 1.28 1.6 3 3 0 0 1 0.32 1.85 3 3 0 0 1 -0.7 1.59c-0.11 0.14 -2.25 1.79 -2.26 1.8a15.22 15.22 0 0 0 -2.72 2.09 6.57 6.57 0 0 0 -1.33 1.93 0.3 0.3 0 1 0 0.54 0.26 6.22 6.22 0 0 1 1.26 -1.71 14.13 14.13 0 0 1 2.67 -1.89 10.51 10.51 0 0 0 2.54 -1.89 4 4 0 0 0 1 -2 4 4 0 0 0 -0.32 -2.51Zm-5.7 -8.39c-0.05 0.58 -0.13 1.17 -0.22 1.74 -0.13 0.86 -0.29 1.7 -0.42 2.55 -0.12 0 -0.23 -0.05 -0.35 -0.05l-0.64 0a1.19 1.19 0 0 1 -0.08 -0.16c-0.15 -0.34 -0.26 -0.7 -0.38 -1a22 22 0 0 1 -0.61 -2.22 16.53 16.53 0 0 1 -0.3 -2.24 5.47 5.47 0 0 1 0.08 -1.5 2 2 0 0 1 0.33 -0.79 1.25 1.25 0 0 1 1.12 -0.61A1.44 1.44 0 0 1 12.9 2a3.32 3.32 0 0 1 0.4 1.27 10.2 10.2 0 0 1 0 2.17Z" fill="#020202" fill-rule="evenodd" stroke-width="1"></path>
    <path d="M14.62 17.35a2.49 2.49 0 0 0 -0.68 -0.13 2.66 2.66 0 0 0 -0.75 0.05 9.65 9.65 0 0 0 -1.3 0.37 3.16 3.16 0 0 1 -1.09 0.22 9.2 9.2 0 0 1 -1.55 -0.29 2.63 2.63 0 0 0 -0.49 0 2.22 2.22 0 0 0 -0.71 0.16 3.12 3.12 0 0 0 -0.55 0.27c-0.18 0.25 0.14 0.53 0.55 0.43l0.06 0a1.7 1.7 0 0 1 0.63 -0.07 8.2 8.2 0 0 1 1.52 0.5 4 4 0 0 0 0.5 0.09 3.94 3.94 0 0 0 0.77 -0.05 10.24 10.24 0 0 0 1.3 -0.4 3.57 3.57 0 0 1 1.1 -0.28 1.75 1.75 0 0 1 0.46 0 9.8 9.8 0 0 1 1.26 0.42c0.45 0.19 1 -0.32 0.67 -0.52 -0.6 -0.2 -1.12 -0.58 -1.7 -0.77Z" fill="#4C57E6" fill-rule="evenodd" stroke-width="1"></path>
  </g>
</svg>