<svg xmlns="http://www.w3.org/2000/svg" viewBox="0 0 24 24" id="Vegetable-Mushroom-Shiitake--Streamline-Freehand">
  <desc>
    Vegetable Mushroom Shiitake Streamline Icon: https://streamlinehq.com
  </desc>
  <g>
    <path d="M22.89 5.93a14.11 14.11 0 0 0 -4 -3.51A13.18 13.18 0 0 0 14 0.56a13.37 13.37 0 0 0 -6.29 0.86 15.3 15.3 0 0 0 -5.35 3.37l-0.78 0.83a7.23 7.23 0 0 0 -1.53 3 1.93 1.93 0 0 0 0.86 2.18 2.15 2.15 0 0 0 0.76 0.27c0.35 0.07 0.72 0.08 1.06 0.13 1.31 0.16 3.41 0.31 5.78 0.41 -0.24 1.55 -0.58 3.25 -0.72 4.93a13.59 13.59 0 0 0 0.14 3.68 4.51 4.51 0 0 0 3.53 3.2 3.85 3.85 0 0 0 4.4 -1.8 8.68 8.68 0 0 0 0.7 -4.28 41.26 41.26 0 0 0 -0.86 -5.59h0.93c3.07 0 5.53 -0.28 6.15 -0.65A2.44 2.44 0 0 0 24 9a5.36 5.36 0 0 0 -1.11 -3.07Zm-7.26 11.43a7.57 7.57 0 0 1 -0.73 3.74 2.79 2.79 0 0 1 -3.2 1.19A3.41 3.41 0 0 1 9 20a12.25 12.25 0 0 1 -0.3 -3.4c0.06 -1.68 0.31 -3.39 0.47 -4.95 1.92 0.07 4 0.11 5.88 0.11a41 41 0 0 1 0.58 5.6Zm6.58 -7.2c-0.68 0.43 -3.9 0.6 -7.58 0.67 -4.4 0.07 -9.44 -0.06 -11.82 -0.31 -0.33 -0.05 -0.69 -0.07 -1 -0.14a2 2 0 0 1 -0.55 -0.21A1.32 1.32 0 0 1 0.72 8.7a6.36 6.36 0 0 1 1.44 -2.57l0.76 -0.77A14.46 14.46 0 0 1 8 2.33a12.45 12.45 0 0 1 5.81 -0.68 12.22 12.22 0 0 1 4.52 1.74A13 13 0 0 1 22 6.61a4.58 4.58 0 0 1 0.88 2 1.46 1.46 0 0 1 -0.67 1.55Z" fill="#020202" fill-rule="evenodd" stroke-width="1"></path>
    <path d="M9.89 15.78c0.06 1.07 0.16 2.14 0.24 3.21 0.06 0.37 0.73 0.27 0.73 -0.13 0.05 -1 -0.15 -1.8 -0.1 -2.8a27 27 0 0 0 -0.1 -3.86 0.4 0.4 0 0 0 -0.74 0.17 13.55 13.55 0 0 0 -0.03 3.41Z" fill="#4C57E6" fill-rule="evenodd" stroke-width="1"></path>
    <path d="M12.09 17.17c0.07 1.07 0.16 2.15 0.24 3.22 0.06 0.36 0.73 0.27 0.73 -0.14 0 -1 -0.15 -1.79 -0.09 -2.8a28.51 28.51 0 0 0 -0.1 -3.86 0.41 0.41 0 0 0 -0.75 0.17 13.56 13.56 0 0 0 -0.03 3.41Z" fill="#4C57E6" fill-rule="evenodd" stroke-width="1"></path>
  </g>
</svg>