<svg xmlns="http://www.w3.org/2000/svg" viewBox="0 0 24 24" id="Vegetable-Lettuce-2--Streamline-Freehand">
  <desc>
    Vegetable Lettuce 2 Streamline Icon: https://streamlinehq.com
  </desc>
  <g>
    <path d="M15.48 13.9a4.6 4.6 0 0 0 -0.65 -0.25c-0.5 -0.15 -1.07 -0.24 -1.61 -0.41a1.82 1.82 0 0 1 -0.75 -0.4 3.64 3.64 0 0 1 -0.78 -1 2 2 0 0 1 -0.27 -1.15L11.86 9c0.07 -0.57 0 -1.08 0.11 -1.58a1.19 1.19 0 0 1 0.11 -0.42c0.14 -0.28 -0.5 -0.45 -0.66 0a1.16 1.16 0 0 0 -0.12 0.34c-0.13 0.5 -0.15 1 -0.29 1.58a9.32 9.32 0 0 1 -0.49 1.19 2.52 2.52 0 0 0 -0.12 0.39 2.75 2.75 0 0 0 0.14 1.5c0 0.09 0.07 0.17 0.11 0.26l-0.05 0a12.16 12.16 0 0 0 -1.16 0.74c-0.34 0.22 -0.7 0.39 -1 0.6a9.33 9.33 0 0 0 -1.06 0.71 2.57 2.57 0 0 0 -0.49 0.44c-0.34 0.36 0 0.91 0.4 0.75s0.55 -0.31 0.91 -0.5 0.79 -0.41 1.18 -0.65a6.66 6.66 0 0 0 0.7 -0.52c0.27 -0.24 0.52 -0.56 0.82 -0.82l0.16 -0.12a4.57 4.57 0 0 0 0.69 0.8 2.84 2.84 0 0 0 0.91 0.52 17.1 17.1 0 0 0 2 0.38 3.68 3.68 0 0 1 0.54 0.16c0.46 0.16 0.91 0.39 1.38 0.56a1.65 1.65 0 0 0 0.56 0.14c0.43 0 0.34 -0.44 0.06 -0.72 -0.52 -0.21 -1.27 -0.62 -1.72 -0.83Z" fill="#4C57E6" fill-rule="evenodd" stroke-width="1"></path>
    <path d="M18.53 14.9a14.31 14.31 0 0 0 0.81 -1.49 4.53 4.53 0 0 0 0.09 -2.41 8.26 8.26 0 0 0 -1.52 -3 5.88 5.88 0 0 0 -1.8 -1.62 6.33 6.33 0 0 0 -2.28 -0.76 3.51 3.51 0 0 0 -1.37 0 1.59 1.59 0 0 0 -0.7 0.42 2.85 2.85 0 0 0 -1.31 -0.37 4.6 4.6 0 0 0 -2.14 0.55A9.79 9.79 0 0 0 5.84 8a6.09 6.09 0 0 0 -1.62 2.65A6.84 6.84 0 0 0 3.87 13a3.34 3.34 0 0 0 0.59 1.63 15.19 15.19 0 0 0 1.17 1.24 2.93 2.93 0 0 1 0.19 0.26 13.27 13.27 0 0 1 0.71 1.7 3.74 3.74 0 0 0 0.5 0.83 6.9 6.9 0 0 0 3.09 2 8.48 8.48 0 0 0 3.62 0.4 6.4 6.4 0 0 0 3 -1.23 4.53 4.53 0 0 0 1.8 -2.8 2.22 2.22 0 0 0 0 -0.51c0 -0.45 -0.28 -0.87 -0.17 -1.32a1.42 1.42 0 0 1 0.16 -0.3Zm-0.9 -0.43a2.33 2.33 0 0 0 -0.11 0.28c-0.05 0 -0.19 0.72 -0.12 0.72a5.35 5.35 0 0 1 0.13 1.34 3.53 3.53 0 0 1 -1.43 2.13 5.38 5.38 0 0 1 -2.51 1 7.42 7.42 0 0 1 -3.12 -0.35A5.76 5.76 0 0 1 7.88 18a2.49 2.49 0 0 1 -0.35 -0.58c-0.26 -0.53 -0.43 -1.1 -0.71 -1.61 0.08 -0.06 -0.42 -0.58 -0.43 -0.59a14.93 14.93 0 0 1 -1.13 -1.12 2.43 2.43 0 0 1 -0.47 -1.48 6.56 6.56 0 0 1 0.27 -1.73A5.4 5.4 0 0 1 6.39 8.5a9.06 9.06 0 0 1 2.25 -1.68 4.08 4.08 0 0 1 1.49 -0.52c1.12 -0.12 1.29 0.4 2.16 0.19a1 1 0 0 1 0.53 -0.24 3 3 0 0 1 0.9 0 5.49 5.49 0 0 1 2 0.72 5 5 0 0 1 1.53 1.44 8.07 8.07 0 0 1 1.17 2.28 3.83 3.83 0 0 1 0 2.39 12.33 12.33 0 0 1 -0.79 1.39Z" fill="#020202" fill-rule="evenodd" stroke-width="1"></path>
    <path d="M5.23 6.85a0.31 0.31 0 0 0 0.2 -0.37 3.78 3.78 0 0 1 -0.13 -0.67 1.27 1.27 0 0 1 0.09 -0.58l0.71 -1.15 0.63 -1.49a2.91 2.91 0 0 1 0.85 -0.9 3.31 3.31 0 0 1 1.16 -0.48 3.62 3.62 0 0 1 1.57 0 23 23 0 0 1 2.53 0.79 3.87 3.87 0 0 0 0.59 0.13 10.82 10.82 0 0 1 2 0.23 3.84 3.84 0 0 1 1.87 1.38 2.6 2.6 0 0 1 0.43 2.2 0.34 0.34 0 0 0 0.64 0.21A3.35 3.35 0 0 0 18 3.28a4.64 4.64 0 0 0 -2.22 -1.84 3 3 0 0 0 -0.58 -0.17 14.61 14.61 0 0 1 -2 -0.33 21 21 0 0 0 -2.68 -0.85 4.7 4.7 0 0 0 -2 0.05A4.09 4.09 0 0 0 7 0.88a3.46 3.46 0 0 0 -1.07 1.29l-0.55 1.59L4.74 5a1.72 1.72 0 0 0 -0.09 0.71 3.65 3.65 0 0 0 0.21 1 0.3 0.3 0 0 0 0.37 0.14Z" fill="#020202" fill-rule="evenodd" stroke-width="1"></path>
    <path d="M8.71 21.67A4.54 4.54 0 0 1 7 23a3 3 0 0 1 -2 0l-1.66 -0.77a10.74 10.74 0 0 1 -1.39 -0.59 1.23 1.23 0 0 1 -0.5 -0.53 1.78 1.78 0 0 1 -0.17 -0.74 11.57 11.57 0 0 1 0.1 -1.42l0 -0.64c0 -0.44 -0.11 -0.87 -0.11 -1.3a6.23 6.23 0 0 1 0.07 -0.86c0.07 -0.45 0.18 -0.9 0.28 -1.34 0.18 -0.7 0.24 -1.42 0.41 -2.05a2.24 2.24 0 0 1 0.58 -1.07 0.3 0.3 0 0 0 0 -0.42 0.29 0.29 0 0 0 -0.41 0 2.74 2.74 0 0 0 -0.69 1 21.57 21.57 0 0 0 -0.7 2.37c-0.15 0.46 -0.3 0.92 -0.41 1.39a5.73 5.73 0 0 0 -0.15 1l0 1.88a11.83 11.83 0 0 0 -0.12 1.56 2.78 2.78 0 0 0 0.29 1.19 2.32 2.32 0 0 0 0.94 1 10.92 10.92 0 0 0 1.56 0.6c0.41 0.15 0.8 0.35 1.21 0.51 0.19 0.07 0.38 0.14 0.57 0.19a3.83 3.83 0 0 0 2.63 -0.1 5.38 5.38 0 0 0 2 -1.61 0.33 0.33 0 0 0 0 -0.47 0.32 0.32 0 0 0 -0.62 -0.11Z" fill="#020202" fill-rule="evenodd" stroke-width="1"></path>
    <path d="M23.73 18.53c-0.17 -1.07 -0.12 -2.31 -0.4 -3.41A3.62 3.62 0 0 0 22.07 13l-0.54 -0.39a5 5 0 0 0 -0.6 -0.32 0.34 0.34 0 0 0 -0.45 0.16 0.34 0.34 0 0 0 0.16 0.45 3.31 3.31 0 0 1 0.5 0.3 5.07 5.07 0 0 1 0.45 0.36 3 3 0 0 1 0.9 1.75c0.2 1.09 0.08 2.31 0.18 3.36a8.42 8.42 0 0 1 0.15 2 1.5 1.5 0 0 1 -0.47 0.91 2 2 0 0 1 -1 0.49c-1 0.24 -2.25 0 -3.26 0.28l-1.43 0.38a3.2 3.2 0 0 1 -1.48 -0.17 4.29 4.29 0 0 1 -1.34 -0.81 0.3 0.3 0 1 0 -0.4 0.44 5.07 5.07 0 0 0 1.47 1 3.9 3.9 0 0 0 1.82 0.35l1.56 -0.29c1 -0.19 2.23 0.11 3.29 -0.1a3 3 0 0 0 1.51 -0.76 2.42 2.42 0 0 0 0.8 -1.58 9.27 9.27 0 0 0 -0.16 -2.28Z" fill="#020202" fill-rule="evenodd" stroke-width="1"></path>
  </g>
</svg>