<svg xmlns="http://www.w3.org/2000/svg" viewBox="0 0 24 24" id="Vegetables-Corn--Streamline-Freehand">
  <desc>
    Vegetables Corn Streamline Icon: https://streamlinehq.com
  </desc>
  <g>
    <path d="M21.57 11.93a7.45 7.45 0 0 0 -1.06 -0.31 10.67 10.67 0 0 0 -2.37 -0.36 18.19 18.19 0 0 0 -2.34 0c-0.88 0.06 -1.78 0 -2.66 0.11a4.48 4.48 0 0 0 -1.17 0.3 0.3 0.3 0 0 0 -0.17 0.39 0.31 0.31 0 0 0 0.39 0.17 4.13 4.13 0 0 1 1.38 -0.23c0.75 0 1.52 0.05 2.26 0a19.23 19.23 0 0 1 2.25 0.09 11.37 11.37 0 0 1 2.15 0.43 3.47 3.47 0 0 1 0.41 0.25l-0.88 0.52a8.82 8.82 0 0 0 -0.91 0.73c-0.62 0.57 -1.2 1.25 -1.77 1.83 -1.3 1.35 -2.51 2.75 -3.89 3.95a12.82 12.82 0 0 1 -3 2 6.46 6.46 0 0 1 -2.19 0.66A3.58 3.58 0 0 1 5.84 22a2 2 0 0 1 -0.42 -0.34c-0.16 -0.15 -0.3 -0.32 -0.45 -0.48a10.6 10.6 0 0 0 2.29 -1.71 17.86 17.86 0 0 0 1.93 -2.22 16.2 16.2 0 0 0 1.4 -2.21 9 9 0 0 0 0.66 -1.65 10.8 10.8 0 0 0 0.34 -1.94 17.76 17.76 0 0 0 0 -1.93l0 -0.77c-0.07 -0.57 -0.17 -1.12 -0.23 -1.68s-0.08 -1.07 -0.14 -1.6a6.46 6.46 0 0 0 -0.11 -0.75c-0.06 -0.25 -0.12 -0.49 -0.2 -0.73a4.67 4.67 0 0 0 -0.23 -0.51 3.72 3.72 0 0 0 -0.22 -0.33 0.58 0.58 0 0 0 -0.57 -0.21 0.61 0.61 0 0 0 -0.45 0.41c0 0.06 -0.11 0.22 -0.06 0.24L9 4.37a8 8 0 0 1 -0.81 1.27 7.59 7.59 0 0 1 -1 1.09C5.76 8 4.08 9 2.69 10.23a9.3 9.3 0 0 0 -1.64 2 7.46 7.46 0 0 0 -1 3 6.83 6.83 0 0 0 0.29 3.11A5.05 5.05 0 0 0 1.44 20a4.25 4.25 0 0 0 -0.37 0.47 1.7 1.7 0 0 0 -0.27 0.74 1.84 1.84 0 0 0 0.21 1 3.26 3.26 0 0 0 0.52 0.73 2.5 2.5 0 0 0 1.7 0.82 1.67 1.67 0 0 0 0.88 -0.29c0.27 -0.19 0.48 -0.46 0.78 -0.69a0.34 0.34 0 1 0 -0.37 -0.58c-0.31 0.17 -0.55 0.39 -0.84 0.52a0.82 0.82 0 0 1 -0.42 0 1 1 0 0 1 -0.43 -0.22 2.87 2.87 0 0 1 -0.46 -0.4 3.42 3.42 0 0 1 -0.37 -0.44 1.1 1.1 0 0 1 -0.23 -0.44 0.79 0.79 0 0 1 0 -0.4 2 2 0 0 1 0.23 -0.33 5.25 5.25 0 0 0 2.22 1.19 0.29 0.29 0 0 0 0.25 -0.07c0.16 0.2 0.32 0.39 0.49 0.57a2.69 2.69 0 0 0 0.54 0.45 4.14 4.14 0 0 0 2.06 0.65 7.25 7.25 0 0 0 3.09 -0.59 13.45 13.45 0 0 0 3.27 -2c1.44 -1.19 2.69 -2.6 4 -3.95 0.48 -0.5 1 -1 1.48 -1.56a7.56 7.56 0 0 1 1 -0.88l1.29 -0.84a2.86 2.86 0 0 0 0.46 -0.43 0.54 0.54 0 0 0 0 -0.62 1.37 1.37 0 0 0 -0.58 -0.48Zm-19.24 8a2.41 2.41 0 0 1 -0.21 -0.24s0 0 0 -0.06a4.5 4.5 0 0 1 -1 -1.59 6 6 0 0 1 -0.21 -2.74 6.7 6.7 0 0 1 1 -2.58A8.66 8.66 0 0 1 3.39 11c1.41 -1.24 3.1 -2.16 4.55 -3.4a8.77 8.77 0 0 0 1.19 -1.25A8.64 8.64 0 0 0 10 5a4 4 0 0 1 0.1 0.59c0.06 0.54 0.07 1.07 0.14 1.62l0.34 2.36 0 1.82a9.59 9.59 0 0 1 -0.26 1.76A8.54 8.54 0 0 1 9.6 15a16.52 16.52 0 0 1 -1.09 1.75A16.93 16.93 0 0 1 6.73 19c-2.38 2.35 -2.73 2.54 -4.4 0.93Z" fill="#020202" fill-rule="evenodd" stroke-width="1"></path>
    <path d="M24 2.23a2.08 2.08 0 0 0 -0.9 -1.46 3.43 3.43 0 0 0 -1.77 -0.52 7.21 7.21 0 0 0 -2.44 0.34 24.27 24.27 0 0 0 -4 1.68 25.84 25.84 0 0 0 -3.58 2.32 0.3 0.3 0 0 0 -0.01 0.41 0.29 0.29 0 0 0 0.42 0.07 3 3 0 0 0 0.19 1 10.65 10.65 0 0 0 0.65 1.31c0.18 0.28 0.34 0.57 0.54 0.84a9.46 9.46 0 0 0 0.64 0.78 9.8 9.8 0 0 0 1.53 1.34 0.3 0.3 0 0 0 0.42 0 0.31 0.31 0 0 0 0 -0.43c-0.17 -0.19 -0.32 -0.38 -0.48 -0.59 -0.3 -0.41 -0.54 -0.85 -0.83 -1.27s-0.6 -0.84 -0.88 -1.26a8.65 8.65 0 0 1 -0.8 -1.06 2.17 2.17 0 0 1 -0.3 -0.73 0.41 0.41 0 0 0 -0.11 -0.24 24.64 24.64 0 0 1 3 -1.67 25.1 25.1 0 0 1 2.44 -0.95 6.46 6.46 0 0 0 0.39 1.09 4.8 4.8 0 0 0 0.32 0.54 3.72 3.72 0 0 0 0.4 0.49 5.8 5.8 0 0 0 1.19 0.86 0.29 0.29 0 0 0 0.42 0 0.3 0.3 0 0 0 0 -0.42 12.91 12.91 0 0 1 -0.83 -1.25c-0.16 -0.25 -0.35 -0.48 -0.52 -0.72s-0.39 -0.52 -0.57 -0.78c0.22 -0.07 0.44 -0.15 0.67 -0.21a7.28 7.28 0 0 1 1.73 -0.27 2.65 2.65 0 0 1 1.5 0.35 1 1 0 0 1 0.41 0.69 5.27 5.27 0 0 1 -0.07 1.74 8.31 8.31 0 0 1 -0.37 1.36c-0.24 0.69 -0.55 1.37 -0.85 2a21.89 21.89 0 0 1 -1 2c-0.08 0.13 -0.18 0.26 -0.27 0.39l-2.42 -2.6a6 6 0 0 1 -0.56 -0.57 1.7 1.7 0 0 1 -0.24 -0.39 0.29 0.29 0 0 0 -0.36 -0.22 0.3 0.3 0 0 0 -0.22 0.36 2.2 2.2 0 0 0 0.19 0.63c0.12 0.26 0.27 0.5 0.42 0.76a6.26 6.26 0 0 0 0.48 0.74 6.07 6.07 0 0 0 0.59 0.65 15.45 15.45 0 0 0 1.65 1.24 1.53 1.53 0 0 1 -0.11 0.16 0.34 0.34 0 0 0 0.53 0.44c0.07 -0.08 0.81 -1.06 0.94 -1.25 0.42 -0.64 0.79 -1.31 1.16 -2s0.71 -1.35 1 -2.06a10.18 10.18 0 0 0 0.48 -1.51A6.27 6.27 0 0 0 24 2.23Z" fill="#4C57E6" fill-rule="evenodd" stroke-width="1"></path>
  </g>
</svg>