<svg xmlns="http://www.w3.org/2000/svg" viewBox="0 0 24 24" id="Vest-Female--Streamline-Freehand">
  <desc>
    Vest Female Streamline Icon: https://streamlinehq.com
  </desc>
  <g>
    <path d="M11.45 8.94a3.92 3.92 0 0 1 -0.22 -0.47c-0.37 -0.87 -0.73 -1.73 -1.08 -2.59a13 13 0 0 1 -0.6 -1.69c-0.16 -0.54 -0.32 -1 -0.44 -1.53C9 2.33 9 2 8.9 1.63a0.3 0.3 0 0 0 -0.32 -0.28 0.3 0.3 0 0 0 -0.28 0.33 12.31 12.31 0 0 0 0.06 1.38c0 0.45 0.09 0.88 0.15 1.36a8.62 8.62 0 0 0 0.57 1.91 24.9 24.9 0 0 0 1.4 2.51 5.31 5.31 0 0 0 0.4 0.61l0.12 0.15c0.23 0.27 0.7 -0.18 0.56 -0.47 -0.03 -0.07 -0.08 -0.13 -0.11 -0.19Z" fill="#4C57E6" stroke-width="1"></path>
    <path d="M20.55 19.84a9.61 9.61 0 0 0 -0.67 -1c-0.18 -0.29 -0.36 -0.6 -0.52 -0.91 -0.26 -0.47 -0.5 -1 -0.74 -1.43 -0.1 -0.19 -0.25 -0.43 -0.37 -0.68a0.61 0.61 0 0 1 -0.11 -0.3l0.19 -0.82 0.61 -2.42a34.08 34.08 0 0 0 1 -4.48 15.17 15.17 0 0 0 0.16 -3.1c0 -0.44 0 -0.91 -0.06 -1.38a4.07 4.07 0 0 0 -0.22 -1 2 2 0 0 0 -0.75 -0.61c-0.8 -0.44 -2.28 -1.09 -2.45 -1.26a0.36 0.36 0 0 0 -0.49 0 0.34 0.34 0 0 0 0 0.49 1.88 1.88 0 0 0 0.38 0.26c0.54 0.3 1.63 0.83 2.28 1.22l0.36 0.25a3.1 3.1 0 0 1 0.13 0.74l0 1.35a14.25 14.25 0 0 1 -0.21 2.93A34.07 34.07 0 0 1 18 12l-0.69 2.47c0 0.2 -0.14 0.44 -0.19 0.68a1.68 1.68 0 0 0 0 0.44 1.73 1.73 0 0 0 0.14 0.54c0.12 0.3 0.32 0.61 0.43 0.84 0.24 0.49 0.47 1 0.72 1.47s0.35 0.67 0.55 1c0.1 0.17 0.31 0.41 0.47 0.67a2.22 2.22 0 0 1 0.17 0.31c-0.23 0.13 -0.8 0.24 -0.92 0.31 -0.57 0.32 -1.12 0.64 -1.69 0.93 -0.38 0.18 -1.49 0.78 -1.67 0.91 -0.06 -0.16 -0.37 -0.36 -0.42 -0.42l-1.59 -1.85 -1.35 -1.48 -0.57 -0.58a1.18 1.18 0 0 1 -0.09 -0.52l0 -1.15 0.08 -3.78 0 -1.05a1.86 1.86 0 0 1 0.09 -0.55c0.07 -0.19 1 -1.34 1.62 -2.34a6.87 6.87 0 0 0 0.64 -1.19 28 28 0 0 0 0.77 -2.93c0.35 -1.63 0.68 -3.41 0.87 -4.38a0.3 0.3 0 0 0 -0.24 -0.35 0.3 0.3 0 0 0 -0.36 0.24c-0.21 1 -0.58 2.73 -1 4.34A26.66 26.66 0 0 1 13 7.4a5.78 5.78 0 0 1 -0.59 1l-0.07 0.09c-0.19 0.29 -1.66 2.27 -1.7 2.38a2.32 2.32 0 0 0 -0.16 0.63c-0.05 0.42 0 0.89 -0.06 1.25q-0.08 1 -0.12 1.92t-0.06 1.92c0 0.38 -0.08 0.92 -0.06 1.39a2.24 2.24 0 0 0 0.18 0.78 2.6 2.6 0 0 0 0.25 0.36c0.16 0.18 0.36 0.34 0.5 0.5l0.57 0.64 -3.37 2.44a3.91 3.91 0 0 1 -0.42 0.27c-0.13 0.07 -0.27 0.19 -0.37 0.14a1.83 1.83 0 0 1 -0.38 -0.23c-0.33 -0.24 -0.64 -0.54 -1 -0.78s-0.89 -0.57 -1.33 -1a1.35 1.35 0 0 1 -0.49 -0.61l0.41 -1 1.18 -3c0.08 -0.2 0.26 -0.47 0.36 -0.72a1.22 1.22 0 0 0 0.11 -0.6 2.06 2.06 0 0 0 -0.16 -0.65c-0.13 -0.35 -0.35 -0.72 -0.45 -1 -0.27 -0.8 -0.54 -1.62 -0.79 -2.44 -0.17 -0.54 -0.33 -1.08 -0.46 -1.62a8.17 8.17 0 0 1 -0.22 -2c0 -1.07 0.12 -2.15 0.15 -3.24l0 -0.69a1.78 1.78 0 0 1 0.1 -0.69c0.09 -0.14 0.26 -0.21 0.57 -0.37 0.13 -0.07 2 -1.22 2.69 -1.68l0.32 -0.21a0.45 0.45 0 0 0 0.1 -0.15c0.05 -0.18 0 -0.32 -0.16 -0.36 -0.56 -0.23 -2.29 1.25 -3.23 1.7a2.07 2.07 0 0 0 -0.9 0.61 2.19 2.19 0 0 0 -0.26 1.05l-0.06 0.72c-0.09 1.1 -0.26 2.18 -0.31 3.26a9.35 9.35 0 0 0 0.17 2.29c0.12 0.57 0.27 1.13 0.43 1.7 0.24 0.83 0.52 1.65 0.78 2.47 0.1 0.33 0.33 0.73 0.47 1.1a1.41 1.41 0 0 1 0.09 0.32l-0.39 0.81 -1.14 3.08c-0.07 0.22 -0.27 0.6 -0.36 0.93a1.31 1.31 0 0 0 0 0.7 2.14 2.14 0 0 0 0.62 0.92 13.17 13.17 0 0 0 1.68 1.16c0.33 0.22 0.64 0.51 1 0.74a3.29 3.29 0 0 0 0.55 0.3 1 1 0 0 0 0.71 0 3.89 3.89 0 0 0 0.94 -0.56l3.33 -2.6 0.26 0.3L14 22.92a5.08 5.08 0 0 0 0.52 0.63 0.88 0.88 0 0 0 0.55 0.24 1.07 1.07 0 0 0 0.43 -0.09c0.26 -0.1 0.59 -0.33 0.77 -0.41 0.43 -0.18 0.83 -0.37 1.23 -0.57 0.59 -0.3 1.17 -0.63 1.75 -1a9.11 9.11 0 0 0 1.06 -0.52 1 1 0 0 0 0.41 -0.57 1.3 1.3 0 0 0 -0.17 -0.79Z" fill="#020202" stroke-width="1"></path>
    <path d="M14 12.25a0.31 0.31 0 1 0 0.07 -0.61 1.14 1.14 0 0 0 -1.12 0.3 1.35 1.35 0 0 0 -0.4 0.59 1.18 1.18 0 0 0 -0.06 0.57 1.22 1.22 0 0 0 0.31 0.62 1.31 1.31 0 0 0 0.8 0.42 1 1 0 0 0 1.27 -0.7 0.33 0.33 0 0 0 -0.18 -0.45 0.34 0.34 0 0 0 -0.45 0.17c-0.07 0.11 -0.19 0.07 -0.3 0.05s-0.14 -0.11 -0.22 -0.18a0.25 0.25 0 0 1 -0.08 -0.14 0.49 0.49 0 0 1 0.07 -0.44c0.04 -0.08 0.11 -0.19 0.29 -0.2Z" fill="#4C57E6" stroke-width="1"></path>
    <path d="M13.59 18.16a1.68 1.68 0 0 0 1.1 -0.22 1.19 1.19 0 0 0 0.44 -0.73 0.35 0.35 0 0 0 -0.23 -0.43 0.33 0.33 0 0 0 -0.43 0.23 0.48 0.48 0 0 1 -0.23 0.22c-0.1 0.05 -0.21 0 -0.3 -0.05 -1 -0.28 -0.38 -0.86 0.63 -0.93 0.17 0 0.25 -0.22 0.2 -0.38s-0.26 -0.35 -0.54 -0.41a2 2 0 0 0 -1 0.15 1.67 1.67 0 0 0 -0.77 1.6 1 1 0 0 0 1.13 0.95Z" fill="#4C57E6" stroke-width="1"></path>
  </g>
</svg>