<svg xmlns="http://www.w3.org/2000/svg" viewBox="0 0 24 24" id="Vibrate-Smartphone-1--Streamline-Freehand">
  <desc>
    Vibrate Smartphone 1 Streamline Icon: https://streamlinehq.com
  </desc>
  <g>
    <path d="M21.34 11.72c0.21 -0.59 0.51 -1.23 0.72 -1.86a6.26 6.26 0 0 0 0.21 -0.86 10 10 0 0 0 -0.05 -2.56 14 14 0 0 0 -0.58 -2.47 4.77 4.77 0 0 0 -0.56 -0.77 3.17 3.17 0 0 0 -1 -0.6l-2.81 -1.14c-0.57 -0.22 -1.14 -0.46 -1.72 -0.61S14.39 0.49 13.79 0.33c-0.34 -0.09 -0.7 -0.21 -1.06 -0.27a3 3 0 0 0 -0.85 0 2.69 2.69 0 0 0 -1.27 0.55 7.61 7.61 0 0 0 -1.27 1.22c-0.67 0.83 -1.3 1.7 -1.9 2.6S6.3 6.25 5.79 7.18c-0.79 1.44 -1.69 3 -2.39 4.6 -0.41 0.93 -1.14 3.12 -1.14 3.15 0 0.69 -0.15 1.61 -0.13 2.47a4.32 4.32 0 0 0 0.36 1.74 3.58 3.58 0 0 0 1 1.13 16.88 16.88 0 0 0 1.77 1.06A31.64 31.64 0 0 0 8.5 23a12.24 12.24 0 0 0 2.4 0.77 6.74 6.74 0 0 0 1.7 0.18 3.24 3.24 0 0 0 1.22 -0.29A6 6 0 0 0 15.89 22 27.89 27.89 0 0 0 18 18.85c0.69 -1.15 1.31 -2.3 1.88 -3.48a39.36 39.36 0 0 0 1.46 -3.65Zm-5.91 3.85 -0.1 0.18a21.82 21.82 0 0 0 -2.77 -1.84c-0.56 -0.32 -1.12 -0.62 -1.68 -0.89s-1.15 -0.54 -1.71 -0.79 -1.34 -0.56 -2 -0.83c0.63 -0.33 1.26 -0.65 1.9 -1 0.93 -0.43 1.88 -0.81 2.83 -1.21s1.84 -0.78 2.79 -1.19c1.21 -0.56 2.43 -1.13 3.67 -1.66 0.65 -0.28 1.3 -0.53 2 -0.76a10.51 10.51 0 0 1 -0.67 1.82c-0.35 0.81 -0.71 1.62 -1.09 2.42s-0.78 1.59 -1.21 2.35c-0.68 1.15 -1.3 2.28 -1.96 3.4ZM10.1 2.46a6.32 6.32 0 0 1 1.11 -1.07 1.67 1.67 0 0 1 0.79 -0.33 2.05 2.05 0 0 1 0.55 0.05c0.33 0.07 0.66 0.18 1 0.27 0.58 0.17 1.14 0.34 1.69 0.54 0.28 0.09 0.56 0.2 0.83 0.3 -1 0.33 -2 0.66 -3 1q-0.83 0.31 -1.65 0.66c-0.54 0.24 -1.07 0.48 -1.6 0.75C9 5 8.28 5.44 7.57 5.85l0.62 -0.91c0.6 -0.86 1.24 -1.69 1.91 -2.48ZM6.5 7.58l0.3 -0.5c1.13 -0.49 2.26 -1 3.38 -1.41L11.79 5l1.59 -0.71c1.22 -0.56 2.44 -1.12 3.69 -1.65l2.55 1a2.78 2.78 0 0 1 0.57 0.3 0.49 0.49 0 0 1 0.19 0.31 3 3 0 0 1 0.05 0.59c-0.81 0.21 -1.6 0.45 -2.39 0.73 -1.28 0.43 -2.54 0.91 -3.79 1.43 -0.82 0.34 -1.64 0.68 -2.45 1 -0.54 0.26 -1.07 0.53 -1.6 0.81a40 40 0 0 0 -3.83 2.3 9.24 9.24 0 0 0 -1.68 -0.38c0.58 -1.08 1.23 -2.15 1.81 -3.15ZM4 12.06l0.37 -0.75a8.05 8.05 0 0 1 1.75 0.6c0.88 0.4 1.73 0.91 2.55 1.34s1.56 0.75 2.37 1.12 1.59 0.7 2.35 1.1c0.53 0.28 1 0.59 1.54 0.91 -0.29 0.46 -0.57 0.91 -0.88 1.36a10.69 10.69 0 0 1 -0.92 1.34 1.6 1.6 0 0 1 -0.71 0.5 1.2 1.2 0 0 1 -0.38 0 5.7 5.7 0 0 1 -0.74 -0.14c-0.47 -0.1 -0.9 -0.21 -1.34 -0.34a9.27 9.27 0 0 1 -1.26 -0.48c-0.42 -0.2 -0.84 -0.42 -1.25 -0.65s-0.81 -0.49 -1.2 -0.75c-0.66 -0.46 -1.52 -0.9 -2.24 -1.43A13.35 13.35 0 0 0 3 15a14.59 14.59 0 0 1 1 -2.94Zm13 6.19a28.19 28.19 0 0 1 -2 3 4.81 4.81 0 0 1 -1.65 1.4 2.25 2.25 0 0 1 -1 0.22 8.55 8.55 0 0 1 -1.2 -0.15 11.89 11.89 0 0 1 -2.22 -0.63 32.29 32.29 0 0 1 -3.21 -1.54A14.51 14.51 0 0 1 4 19.62a2.56 2.56 0 0 1 -0.81 -0.83 3.3 3.3 0 0 1 -0.34 -1.42 13.23 13.23 0 0 1 0 -1.67 5.17 5.17 0 0 0 0.77 0.69c0.72 0.54 1.57 1 2.23 1.48 0.39 0.28 0.81 0.55 1.23 0.81s0.86 0.49 1.3 0.71a10.46 10.46 0 0 0 1.36 0.55c0.45 0.15 0.91 0.27 1.39 0.38a7.7 7.7 0 0 0 0.86 0.18 2.05 2.05 0 0 0 0.7 -0.05 2.49 2.49 0 0 0 1.15 -0.74 11.94 11.94 0 0 0 1 -1.42c0.51 -0.72 1 -1.45 1.44 -2.2 0.68 -1.1 1.32 -2.23 2 -3.36 0.37 -0.62 0.72 -1.26 1.05 -1.91 0.48 -1 0.93 -2 1.37 -2.94a14.55 14.55 0 0 0 0.69 -1.83c0 0.14 0.05 0.28 0.07 0.43a9.28 9.28 0 0 1 0 2.36 4.63 4.63 0 0 1 -0.29 1c-0.21 0.54 -0.48 1.07 -0.68 1.57a38.3 38.3 0 0 1 -1.58 3.51c-0.6 1.08 -1.23 2.23 -1.91 3.33Z" fill="#020202" stroke-width="1"></path>
    <path d="M8.1 17.51a2.11 2.11 0 0 0 1 0 1.56 1.56 0 0 0 0.92 -0.6 1.5 1.5 0 0 0 0.14 -1.41 1.66 1.66 0 0 0 -1.85 -1 1.48 1.48 0 0 0 -0.73 0.34 1.72 1.72 0 0 0 -0.6 1.4 1.44 1.44 0 0 0 1.12 1.27Zm0.15 -2.07a0.61 0.61 0 0 1 0.36 -0.24 0.66 0.66 0 0 1 0.77 0.56 0.57 0.57 0 0 1 -0.13 0.53 0.65 0.65 0 0 1 -0.36 0.13 1.05 1.05 0 0 1 -0.47 0 0.39 0.39 0 0 1 -0.33 -0.42 0.82 0.82 0 0 1 0.16 -0.56Z" fill="#4C57E6" stroke-width="1"></path>
    <path d="M3.05 7.77a1.48 1.48 0 0 0 0.47 -0.52 2.45 2.45 0 0 0 0.22 -1.16 4.34 4.34 0 0 1 0 -0.81 0.68 0.68 0 0 1 0.26 -0.37 0.88 0.88 0 0 1 0.54 -0.15 4 4 0 0 0 0.72 -0.09 1.14 1.14 0 0 0 0.86 -0.85c0.07 -0.3 0 -0.65 0.09 -0.9a0.83 0.83 0 0 1 0.37 -0.6 1.56 1.56 0 0 1 0.8 -0.27 0.35 0.35 0 1 0 0 -0.69 2.3 2.3 0 0 0 -1.4 0.46 1.56 1.56 0 0 0 -0.58 0.93c0 0.2 -0.07 0.48 -0.12 0.72a0.39 0.39 0 0 1 -0.1 0.19c-0.1 0.09 -0.26 0 -0.42 0a4 4 0 0 0 -0.91 0.07 1.4 1.4 0 0 0 -0.57 0.29 1.71 1.71 0 0 0 -0.58 1 5.17 5.17 0 0 0 0 1 1.3 1.3 0 0 1 -0.09 0.64 0.53 0.53 0 0 1 -0.46 0.34c-0.27 0.12 -0.56 0.21 -0.81 0.34a1.7 1.7 0 0 0 -0.48 0.35 1.13 1.13 0 0 0 -0.26 0.45A3.11 3.11 0 0 0 0.5 9l0 1.33c0 0.45 0.06 0.89 0.11 1.32a0.3 0.3 0 0 0 0.33 0.27 0.3 0.3 0 0 0 0.28 -0.32l0 -1.27c0 -0.43 0.07 -0.84 0.12 -1.25a4.63 4.63 0 0 1 0.08 -0.47 0.42 0.42 0 0 1 0.1 -0.2 2 2 0 0 1 0.73 -0.27 2.66 2.66 0 0 0 0.8 -0.37Z" fill="#4C57E6" stroke-width="1"></path>
    <path d="M23.3 14.12a5.53 5.53 0 0 0 -0.83 -1.48 0.3 0.3 0 0 0 -0.42 -0.06 0.29 0.29 0 0 0 -0.05 0.42 4.51 4.51 0 0 1 0.51 1.12 2 2 0 0 1 0.1 1.06c-0.06 0.22 -0.26 0.25 -0.44 0.32a3.33 3.33 0 0 0 -0.72 0.31 1.3 1.3 0 0 0 -0.47 0.54 1.47 1.47 0 0 0 -0.14 0.84c0 0.39 0.26 0.76 0.19 1.14 0 0.09 -0.11 0.09 -0.18 0.11a5.67 5.67 0 0 0 -0.55 0.24 1.15 1.15 0 0 0 -0.46 0.44 1.17 1.17 0 0 0 -0.11 0.73 4 4 0 0 0 0.16 0.53 0.51 0.51 0 0 1 0.07 0.26 1 1 0 0 1 -0.5 0.69 5 5 0 0 1 -1.06 0.49 0.35 0.35 0 0 0 -0.23 0.43 0.35 0.35 0 0 0 0.43 0.23 5 5 0 0 0 1.52 -0.62 1.77 1.77 0 0 0 0.76 -1.08 1 1 0 0 0 0 -0.43 3.57 3.57 0 0 0 -0.11 -0.47 0.29 0.29 0 0 1 0 -0.24s0.05 0 0.08 0l0.23 -0.08a2.53 2.53 0 0 0 0.56 -0.23 1.16 1.16 0 0 0 0.54 -0.77 2.11 2.11 0 0 0 0 -0.56 4.72 4.72 0 0 0 -0.15 -0.65 0.8 0.8 0 0 1 0 -0.53c0.06 -0.15 0.23 -0.2 0.38 -0.27a3.29 3.29 0 0 0 0.59 -0.35 1.26 1.26 0 0 0 0.51 -0.83 2.62 2.62 0 0 0 -0.21 -1.25Z" fill="#4C57E6" stroke-width="1"></path>
  </g>
</svg>