<svg xmlns="http://www.w3.org/2000/svg" viewBox="0 0 24 24" id="Video-Player--Streamline-Freehand">
  <desc>
    Video Player Streamline Icon: https://streamlinehq.com
  </desc>
  <g>
    <path d="M23.77 4.78C22.65 1.1 17.74 2 16 1.91c-3.06 -0.09 -5.51 -0.17 -8.61 -0.14a0.35 0.35 0 0 0 0 0.7c3.15 0 5.37 0.13 8.58 0.27 2 0.09 6.07 -0.57 6.89 2.31a12.93 12.93 0 0 1 0.14 3.5 44.19 44.19 0 0 1 -0.84 9 3.73 3.73 0 0 1 -2.29 2.52c-3.68 1.78 -8.31 0.63 -12.35 0.49 -2.56 -0.08 -5.25 -0.06 -6 -2.36 -0.98 -2.74 -0.52 -9.81 -0.3 -12.69a2.87 2.87 0 0 1 2.35 -2.83C5.22 2.61 6 2.82 6 2.3a0.33 0.33 0 0 0 -0.36 -0.3C5 2.06 4.11 2 3.55 2A3.52 3.52 0 0 0 0.49 5.44c-0.32 3 -0.92 10.15 0 13.07s3.92 3 6.93 3.19c4.12 0.17 9.31 1.5 13.36 -0.8a4.67 4.67 0 0 0 2.44 -3c0.66 -2.3 0.78 -6.93 0.76 -9.33a14.31 14.31 0 0 0 -0.21 -3.79Z" fill="#4C57E6" stroke-width="1"></path>
    <path d="M8.24 9.35A41.87 41.87 0 0 0 7.87 15c0 0.73 0.3 1.31 1 1.33s1.73 -0.94 5.57 -3.59c0.59 -0.41 1.81 -0.86 1.66 -1.57s-0.89 -0.85 -1.32 -1.13c-1.89 -1.18 -5.53 -3.12 -5.59 -3.16 -0.92 -0.57 -0.83 1.12 -0.95 2.47Zm0.88 -1.44c0 -0.24 5.08 3.1 5.61 3.37 -2.93 1.39 -2.57 1.52 -5.07 3.26a7.27 7.27 0 0 1 -0.53 0.5c-0.13 -0.48 -0.05 -5.87 -0.01 -7.13Z" fill="#020202" stroke-width="1"></path>
  </g>
</svg>