<svg xmlns="http://www.w3.org/2000/svg" viewBox="0 0 24 24" id="Video-File-Shield--Streamline-Freehand">
  <desc>
    Video File Shield Streamline Icon: https://streamlinehq.com
  </desc>
  <g>
    <path d="M22.09 15.29a1.84 1.84 0 0 0 -0.43 -0.95 7.38 7.38 0 0 0 -7.37 -1.16 3.71 3.71 0 0 0 -1.46 0.81A2 2 0 0 0 12 15.1c0 0.21 -0.19 4.35 0.61 5.46A13.2 13.2 0 0 0 15 22.78a10.59 10.59 0 0 0 2.07 1 6.44 6.44 0 0 0 4.63 -3.58c0.06 -0.52 0.47 -4.42 0.39 -4.91Zm-1.26 4.6A5.52 5.52 0 0 1 19.3 22a9.27 9.27 0 0 1 -2.19 1.14 10.16 10.16 0 0 1 -3.7 -3.14 9.55 9.55 0 0 1 -0.31 -3.47l0 -1.08c0.15 -1.21 4.94 -2.49 7.33 -0.63 0.74 0.6 0.57 0.11 0.4 5.07Z" fill="#020202" stroke-width="1"></path>
    <path d="M19.19 17.44c-0.1 0 -1 -0.18 -1.46 -0.2 -0.05 -0.39 -0.14 -0.75 -0.2 -1.13a0.32 0.32 0 0 0 -0.64 0c-0.1 0.38 -0.22 0.76 -0.29 1.16a14.55 14.55 0 0 0 -1.47 0.28 0.32 0.32 0 1 0 0 0.64c0.11 0 1.08 0.24 1.45 0.26 0 0.27 0.17 1 0.22 1.3a0.37 0.37 0 0 0 0.73 0c0.08 -0.5 0.15 -0.76 0.21 -1.31a13.63 13.63 0 0 0 1.45 -0.23 0.37 0.37 0 0 0 0 -0.77Z" fill="#020202" stroke-width="1"></path>
    <path d="M9.57 18.18c-1.71 0 -5.43 0.51 -7.14 -0.36a10.76 10.76 0 0 0 1 -3.85c0.21 -1.84 1 -12.08 0.94 -12a4.23 4.23 0 0 1 0.95 -0.21c4.8 -0.89 5.83 -1 6.75 -0.7 0.44 0.17 1.11 -0.84 -1.31 -0.81 -0.54 0 -5.75 0.5 -6.57 0.73a1 1 0 0 0 -0.78 0.66c-0.17 0.36 -0.92 10.18 -1.18 12.67a9 9 0 0 1 -0.69 3c-0.11 0.24 -0.52 0.82 0 1.18 1.93 1.3 5.94 0.48 8 0.44a0.36 0.36 0 1 0 0.03 -0.75Z" fill="#020202" stroke-width="1"></path>
    <path d="M13.36 5.47c0.9 0.6 3.95 0.56 4.83 0.3 -0.08 1.25 -0.11 0.23 0.18 4.61a0.31 0.31 0 1 0 0.62 0l0.25 -3.58c0 -0.66 0.39 -1.82 0 -2.64a4.61 4.61 0 0 0 -1.61 -1.45l-2.47 -2c-0.73 -0.46 -1 0.67 -1.2 1.07 -0.42 0.74 -1.96 2.77 -0.6 3.69Zm1.5 -4.08 2.06 2.12c0.76 0.72 1.25 0.89 1.29 1.46a12.29 12.29 0 0 1 -3.48 -0.29c-1.3 -0.28 -0.86 -0.16 0.13 -3.29Z" fill="#020202" stroke-width="1"></path>
    <path d="M13.77 12c0.3 -0.76 -0.44 -1.27 -1 -1.74A19.87 19.87 0 0 0 9 8a0.35 0.35 0 1 0 -0.34 0.62A18.44 18.44 0 0 1 12.1 11a5.08 5.08 0 0 1 0.65 0.52 39.68 39.68 0 0 0 -4.5 2.33l0.1 -4.12c0 -0.29 0.23 -0.78 -0.1 -0.81 -0.25 -0.25 -0.47 0 -0.48 0.36 0 0.12 -0.08 0.37 -0.09 0.42 -0.5 4.77 -0.55 4.75 -0.5 5 0.09 0.44 0.48 0.7 1.07 0.46 0.12 0 -0.36 0.16 2.14 -1.14s3.17 -1.45 3.38 -2.02Z" fill="#4C57E6" stroke-width="1"></path>
    <path d="M19.89 1.43a5.8 5.8 0 0 1 1.91 2.91c0 1.37 -0.67 5.07 -0.76 6.4a0.28 0.28 0 1 0 0.56 0.06c0.13 -1.14 1 -4.92 1.11 -6.44A4.69 4.69 0 0 0 20.45 0.72c-0.93 -0.45 -1.01 0.46 -0.56 0.71Z" fill="#4C57E6" fill-rule="evenodd" stroke-width="1"></path>
  </g>
</svg>