<svg xmlns="http://www.w3.org/2000/svg" viewBox="0 0 24 24" id="Video-Game-Goomba--Streamline-Freehand">
  <desc>
    Video Game Goomba Streamline Icon: https://streamlinehq.com
  </desc>
  <title>video-game-goomba</title>
  <g>
    <path d="M14.66 7.75c-0.6 0.66 -1.1 1.4 -1.63 2.1a0.3 0.3 0 0 0 0 0.44 0.31 0.31 0 0 0 0.44 0c0.66 -0.57 1.34 -1.12 2 -1.71 0.42 -0.38 0.82 -0.79 1.25 -1.15s0.89 -0.81 1.32 -1.23a5.3 5.3 0 0 0 0.56 -0.6 0.35 0.35 0 0 0 0 -0.5 0.36 0.36 0 0 0 -0.5 0c-0.19 0.16 -0.39 0.3 -0.59 0.44 -0.5 0.35 -1 0.65 -1.52 1a13.94 13.94 0 0 0 -1.33 1.21Z" fill="#4C57E6" fill-rule="evenodd" stroke-width="1"></path>
    <path d="M5.2 6.78c0.21 0.24 0.43 0.48 0.66 0.7s0.46 0.41 0.69 0.61c0.43 0.33 0.84 0.68 1.27 1s0.9 0.65 1.36 1a0.36 0.36 0 1 0 0.43 -0.57L7.33 7.2l-1 -0.83c-0.33 -0.26 -0.68 -0.49 -1 -0.77a4.74 4.74 0 0 1 -0.72 -0.77 0.32 0.32 0 0 0 -0.43 -0.1 0.31 0.31 0 0 0 -0.11 0.43A7.43 7.43 0 0 0 5.2 6.78Z" fill="#4C57E6" fill-rule="evenodd" stroke-width="1"></path>
    <path d="M6.91 4.54a7.31 7.31 0 0 1 3.73 -2.27 5.71 5.71 0 0 1 2.1 -0.14 5.27 5.27 0 0 1 2 0.66 3.44 3.44 0 0 1 0.74 0.58 6.87 6.87 0 0 1 0.68 0.75 0.35 0.35 0 0 0 0.49 0.07 0.34 0.34 0 0 0 0.07 -0.49A7.79 7.79 0 0 0 16 2.65a4.1 4.1 0 0 0 -0.74 -0.65 5.85 5.85 0 0 0 -2.35 -1 5.63 5.63 0 0 0 -2.58 0.15 7.53 7.53 0 0 0 -3.91 3 0.31 0.31 0 1 0 0.49 0.38Z" fill="#020202" fill-rule="evenodd" stroke-width="1"></path>
    <path d="M24 12.83a6.07 6.07 0 0 0 -1.59 -3.58 4 4 0 0 0 -0.94 -0.72 12.16 12.16 0 0 0 -1.51 -0.68 0.36 0.36 0 0 0 -0.28 0.66 12.16 12.16 0 0 1 1.41 0.66 3.35 3.35 0 0 1 0.75 0.61 5.25 5.25 0 0 1 1.28 3.12 4.8 4.8 0 0 1 -0.86 3.2 4.32 4.32 0 0 1 -0.94 0.92 7.73 7.73 0 0 1 -1.19 0.67 6.55 6.55 0 0 1 -2.16 0.55c-1.18 0.1 -2.37 0 -3.58 0 -2.1 0 -4.33 0.14 -6.51 0.05a16.54 16.54 0 0 1 -4.17 -0.6 3.78 3.78 0 0 1 -2.6 -2.53 5.64 5.64 0 0 1 0.22 -3.89A5.35 5.35 0 0 1 2.35 9.6a2.22 2.22 0 0 1 1 -0.62 0.32 0.32 0 0 0 0.24 -0.37 0.32 0.32 0 0 0 -0.37 -0.24 2.92 2.92 0 0 0 -1.38 0.75A6.11 6.11 0 0 0 0.63 11a6.48 6.48 0 0 0 -0.41 4.44 4.72 4.72 0 0 0 2.44 3 2.3 2.3 0 0 0 -0.34 0.12 2.47 2.47 0 0 0 -1.26 1.67 1.76 1.76 0 0 0 0.4 1.53 1.44 1.44 0 0 0 0.57 0.41 5.47 5.47 0 0 0 1.16 0.29 10.53 10.53 0 0 0 1.81 0.18 14 14 0 0 0 1.83 -0.08A6.79 6.79 0 0 0 8 22.4a1.62 1.62 0 0 0 0.57 -0.29 2.11 2.11 0 0 0 0.59 -0.83 8.48 8.48 0 0 0 0.36 -1.79c1.24 0 2.48 0 3.68 -0.06a7.17 7.17 0 0 0 0.09 1.36 2.33 2.33 0 0 0 0.45 1 2.42 2.42 0 0 0 0.62 0.51 5.65 5.65 0 0 0 1 0.42 9 9 0 0 0 3.32 0.3 4.25 4.25 0 0 0 2.22 -0.85 1.8 1.8 0 0 0 0.7 -1.81 2.77 2.77 0 0 0 -1.22 -1.66l0.18 -0.07a8.83 8.83 0 0 0 1.35 -0.82A5.46 5.46 0 0 0 23 16.68a5.82 5.82 0 0 0 1 -3.85ZM8.48 20.72a1.41 1.41 0 0 1 -0.47 0.65 0.84 0.84 0 0 1 -0.36 0.1 8.42 8.42 0 0 1 -0.86 0 15.89 15.89 0 0 1 -1.69 0 11.61 11.61 0 0 1 -1.66 -0.22c-0.27 0 -0.58 -0.07 -0.87 -0.15a0.64 0.64 0 0 1 -0.3 -0.14 0.85 0.85 0 0 1 -0.21 -0.85 1.68 1.68 0 0 1 0.65 -0.93 2.56 2.56 0 0 1 0.48 -0.18 3.76 3.76 0 0 1 0.6 -0.15 17.68 17.68 0 0 0 4 0.65l1 0a9.42 9.42 0 0 1 -0.31 1.22Zm11.11 -1.61a2.2 2.2 0 0 1 1.05 1.16 0.91 0.91 0 0 1 -0.39 1.11 3.62 3.62 0 0 1 -1.7 0.5 9.11 9.11 0 0 1 -2.92 -0.16 3.56 3.56 0 0 1 -0.81 -0.24 1.13 1.13 0 0 1 -0.41 -0.25 1.36 1.36 0 0 1 -0.36 -0.63 5 5 0 0 1 -0.2 -1.18h0.5a32.47 32.47 0 0 0 3.7 -0.05 8.47 8.47 0 0 0 1.48 -0.31Z" fill="#020202" fill-rule="evenodd" stroke-width="1"></path>
    <path d="M7.23 10a1.21 1.21 0 0 0 -2.32 0.3 1.3 1.3 0 0 0 0.45 1.13 1.05 1.05 0 0 0 1 0.23A1.27 1.27 0 0 0 7.23 10Zm-1.4 0.35 0 -0.15A1 1 0 0 1 6 10a0.41 0.41 0 0 1 0.24 0.18c0.14 0.21 -0.39 0.44 -0.41 0.12Z" fill="#020202" fill-rule="evenodd" stroke-width="1"></path>
    <path d="M17.9 11.22a1.2 1.2 0 0 0 0.23 -1.69 1.34 1.34 0 0 0 -2.23 0.18 1.36 1.36 0 0 0 -0.18 0.59 1 1 0 0 0 0.63 1 1.6 1.6 0 0 0 1.55 -0.08ZM17 9.88c0.12 -0.07 0.22 0 0.29 0.08a0.19 0.19 0 0 1 -0.06 0.29c-0.11 0.07 -1.04 0.15 -0.23 -0.37Z" fill="#020202" fill-rule="evenodd" stroke-width="1"></path>
    <path d="m15.35 13.73 0.05 -0.07a1.83 1.83 0 0 1 0.06 0.19 2.58 2.58 0 0 1 0.22 0.7 10.37 10.37 0 0 1 0.11 1.25 0.35 0.35 0 0 0 0.33 0.37 0.35 0.35 0 0 0 0.37 -0.33 8.86 8.86 0 0 0 0.16 -1.36 3.82 3.82 0 0 0 -0.11 -1 2.88 2.88 0 0 0 -0.37 -0.78 1 1 0 0 0 -0.48 -0.36 0.64 0.64 0 0 0 -0.57 0.06 3.79 3.79 0 0 0 -0.53 0.51 8.2 8.2 0 0 0 -0.65 0.87c-0.13 0.21 -0.25 0.43 -0.36 0.64a5.29 5.29 0 0 0 -1 -0.36 4.24 4.24 0 0 0 -2.09 0.06A5.67 5.67 0 0 0 9.26 13a1.79 1.79 0 0 0 -1.39 -0.28 0.62 0.62 0 0 0 -0.43 0.4 5.12 5.12 0 0 0 -0.16 0.8 8.77 8.77 0 0 0 0 1 9.54 9.54 0 0 0 0.15 1.51 0.3 0.3 0 0 0 0.22 0.26 0.31 0.31 0 0 0 0.44 0 13.76 13.76 0 0 1 1.15 -0.86 4.45 4.45 0 0 1 1.22 -0.54 3.55 3.55 0 0 1 1.19 -0.18 4.61 4.61 0 0 1 1.23 0.15 6.17 6.17 0 0 1 2.32 1.22 0.35 0.35 0 0 0 0.5 0 0.36 0.36 0 0 0 0 -0.5 7.33 7.33 0 0 0 -1.44 -1.23 5.62 5.62 0 0 1 0.41 -0.44 8.19 8.19 0 0 1 0.68 -0.58ZM8.92 15a9 9 0 0 0 -0.83 0.8l0 -0.3a10.32 10.32 0 0 1 0.31 -1.36s0 -0.19 0 -0.32a1.46 1.46 0 0 1 0.55 0.17 4.85 4.85 0 0 1 0.73 0.48 4.62 4.62 0 0 0 -0.76 0.53Z" fill="#020202" fill-rule="evenodd" stroke-width="1"></path>
  </g>
</svg>