<svg xmlns="http://www.w3.org/2000/svg" viewBox="0 0 24 24" id="Video-Games-Cloud-Gaming-Nvidia-Geforce-Now--Streamline-Freehand">
  <desc>
    Video Games Cloud Gaming Nvidia Geforce Now Streamline Icon: https://streamlinehq.com
  </desc>
  <g>
    <path d="M7.43 14.92a8.27 8.27 0 0 0 3.29 0.29 7.08 7.08 0 0 0 2.64 -1 13.21 13.21 0 0 0 3.12 -2.71 0.29 0.29 0 1 0 -0.43 -0.38 13.36 13.36 0 0 1 -2.48 2.16 6.76 6.76 0 0 1 -3 1.17 7.37 7.37 0 0 1 -2.95 -0.36 12.67 12.67 0 0 1 -2.76 -1.27c-0.44 -0.27 -0.88 -0.57 -1.3 -0.88a14.53 14.53 0 0 1 -1.19 -1c-0.5 -0.5 -0.23 -0.59 -0.22 -0.6 0.24 -0.34 0.49 -0.68 0.76 -1s0.35 -0.43 0.53 -0.63a7.77 7.77 0 0 1 3.92 -2.25 9.18 9.18 0 0 1 4.54 0 5.09 5.09 0 0 1 1.33 0.57 4.7 4.7 0 0 1 1.08 1l0.31 0.39a4.73 4.73 0 0 1 -2.24 2A6.81 6.81 0 0 1 9 11a5.65 5.65 0 0 1 -1.68 -0.46 1.56 1.56 0 0 0 -0.27 -0.16 1.61 1.61 0 0 1 0.23 -0.35 3.93 3.93 0 0 1 0.56 -0.61 3.49 3.49 0 0 1 1.56 -0.78 2.69 2.69 0 0 1 1.69 0.17 0.34 0.34 0 0 0 0.44 -0.17 0.33 0.33 0 0 0 -0.17 -0.43A3.48 3.48 0 0 0 9.29 8a4.24 4.24 0 0 0 -1.89 0.9 4.18 4.18 0 0 0 -0.93 1.1 1.09 1.09 0 0 0 -0.15 0.83 0.46 0.46 0 0 0 0.16 0.23 3.21 3.21 0 0 0 0.52 0.24 9.19 9.19 0 0 0 0.92 0.35 5.52 5.52 0 0 0 1 0.21 7.71 7.71 0 0 0 3.82 -0.63 5.54 5.54 0 0 0 2.9 -2.67 0.61 0.61 0 0 0 -0.05 -0.56c-0.11 -0.17 -0.42 -0.54 -0.48 -0.62a5.76 5.76 0 0 0 -1.3 -1.22 5.85 5.85 0 0 0 -1.63 -0.73 10 10 0 0 0 -5.08 -0.04A8.73 8.73 0 0 0 2.68 8q-0.3 0.34 -0.57 0.69c-0.27 0.35 -0.53 0.71 -0.78 1.07 -0.11 0.16 -0.31 0.3 -0.38 0.47a0.73 0.73 0 0 0 0 0.39 1.13 1.13 0 0 0 0.24 0.53 5.08 5.08 0 0 0 0.57 0.57A12.23 12.23 0 0 0 3 12.74a15.22 15.22 0 0 0 1.41 0.9 13.49 13.49 0 0 0 3.02 1.28Z" fill="#020202" fill-rule="evenodd" stroke-width="1"></path>
    <path d="M22.94 3.09a6.12 6.12 0 0 0 -0.37 -1.44 2 2 0 0 0 -0.77 -1A4.72 4.72 0 0 0 20 0.14C19.16 0 18.21 0.05 17.5 0l-5.12 0C11.24 0.09 10.11 0.18 9 0.33a13.1 13.1 0 0 0 -1.68 0.3A5.65 5.65 0 0 0 6.19 1a4.24 4.24 0 0 0 -0.74 0.37 1.2 1.2 0 0 0 -0.33 0.35 0.78 0.78 0 0 0 -0.07 0.3c0 0.23 0.06 0.57 0.06 0.71l0.24 2.07a0.29 0.29 0 0 0 0.33 0.25 0.29 0.29 0 0 0 0.25 -0.32l-0.19 -2L5.7 2c0 -0.09 0.16 -0.14 0.28 -0.2s0.36 -0.16 0.48 -0.21a6.27 6.27 0 0 1 1 -0.31A13.84 13.84 0 0 1 9 1.08C10.17 1 11.29 0.92 12.4 0.9c1.68 0 3.36 0 5.07 0.13 0.68 0 1.58 0 2.41 0.17a3.4 3.4 0 0 1 1.35 0.42 1 1 0 0 1 0.34 0.46 6 6 0 0 1 0.29 1.2 12.22 12.22 0 0 1 0.14 2.1c0 1.08 -0.14 2.18 -0.26 3.25 -0.09 0.9 -0.16 1.8 -0.21 2.71s-0.06 1.81 -0.06 2.72c0 0.36 0.11 0.9 0.12 1.41a1.29 1.29 0 0 1 -0.1 0.64 1.64 1.64 0 0 1 -1 0.68 7.39 7.39 0 0 1 -2.3 0.15c-1 -0.05 -1.95 -0.17 -2.92 -0.24q-0.64 -0.06 -1.29 -0.06l-2 0c-1.52 0.06 -3 0.18 -4.54 0.23a0.34 0.34 0 0 0 -0.33 0.34 0.33 0.33 0 0 0 0.34 0.32c1.52 0 3 -0.11 4.55 -0.14l1.93 0 1.24 0.09c1 0.09 2 0.24 2.94 0.31a8.27 8.27 0 0 0 2.59 -0.12 2.59 2.59 0 0 0 1.63 -1.09 1.94 1.94 0 0 0 0.25 -0.9c0 -0.56 -0.08 -1.23 -0.08 -1.65 0 -0.9 0.06 -1.78 0.11 -2.67s0.13 -1.77 0.23 -2.66c0.12 -1.1 0.25 -2.22 0.27 -3.35a12.66 12.66 0 0 0 -0.17 -2.26Z" fill="#4C57E6" fill-rule="evenodd" stroke-width="1"></path>
    <path d="M8.64 19.64a0.34 0.34 0 0 0 -0.32 -0.34 0.34 0.34 0 0 0 -0.34 0.33l0 1.62 0 0.63 -0.37 -0.39a9.11 9.11 0 0 0 -1.51 -1.26 2.41 2.41 0 0 0 -1.46 -0.38 0.51 0.51 0 0 0 -0.51 0.47 2.94 2.94 0 0 0 0.08 0.49l0.12 1.45 0.22 1.23a0.29 0.29 0 0 0 0.33 0.25 0.28 0.28 0 0 0 0.24 -0.33l-0.06 -1.2 0.05 -1.29a4.23 4.23 0 0 1 0.41 0.23 8.76 8.76 0 0 1 1.26 1.13l0.74 0.67c0.1 0.09 0.23 0.31 0.33 0.37a0.55 0.55 0 0 0 0.36 0.1 0.5 0.5 0 0 0 0.4 -0.22 0.9 0.9 0 0 0 0.16 -0.38 6.46 6.46 0 0 0 0 -0.85 6 6 0 0 0 0 -0.74c-0.03 -0.53 -0.12 -1.06 -0.13 -1.59Z" fill="#020202" fill-rule="evenodd" stroke-width="1"></path>
    <path d="M15.15 19.44a2.55 2.55 0 0 0 -2.27 -0.7c-2.14 0.36 -2.24 1.7 -2.08 3.32a2.11 2.11 0 0 0 0.39 1.11 1.59 1.59 0 0 0 0.56 0.44 3.85 3.85 0 0 0 0.85 0.28 2.92 2.92 0 0 0 2.07 -0.15 2.15 2.15 0 0 0 1 -1.94 6.65 6.65 0 0 0 -0.07 -1.36 2.05 2.05 0 0 0 -0.45 -1Zm-0.59 2.29c0 0.55 -0.16 0.89 -0.44 1.06a2 2 0 0 1 -1.33 0.1 3.69 3.69 0 0 1 -0.56 -0.11 0.77 0.77 0 0 1 -0.37 -0.19 1.69 1.69 0 0 1 -0.33 -0.93c-0.25 -2.1 1.42 -2.12 1.46 -2.12a1.62 1.62 0 0 1 1.42 0.54 1.14 1.14 0 0 1 0.16 0.52 5.22 5.22 0 0 1 -0.01 1.13Z" fill="#020202" fill-rule="evenodd" stroke-width="1"></path>
    <path d="M21.26 19.66a0.33 0.33 0 0 0 -0.4 0.25L20.59 21l-0.17 0.64 0 0.08c-0.25 -0.5 -0.4 -1.1 -0.65 -1.6a4.27 4.27 0 0 0 -0.3 -0.51 0.53 0.53 0 0 0 -0.58 -0.23 0.57 0.57 0 0 0 -0.36 0.22 1.87 1.87 0 0 0 -0.16 0.32l-0.42 0.73c-0.13 0.29 -0.27 0.68 -0.44 1l-0.28 -2a0.29 0.29 0 1 0 -0.58 0.06l0.07 2.05s0.08 0.7 0.11 1a0.56 0.56 0 0 0 0 0.1l0 0.07a0.44 0.44 0 0 0 0.67 0.22 2.18 2.18 0 0 0 0.63 -0.59 10.86 10.86 0 0 0 0.78 -1.43L19 21c0.14 0.32 0.28 0.65 0.43 1a4 4 0 0 0 0.3 0.49c0 0.05 0.27 0.37 0.38 0.5a0.57 0.57 0 0 0 0.65 0.17 0.88 0.88 0 0 0 0.29 -0.39 5.65 5.65 0 0 0 0.19 -0.95l0.12 -0.65 0.18 -1.09a0.33 0.33 0 0 0 -0.28 -0.42Z" fill="#020202" fill-rule="evenodd" stroke-width="1"></path>
  </g>
</svg>