<svg xmlns="http://www.w3.org/2000/svg" viewBox="0 0 24 24" id="Video-Edit-Camera-Compress--Streamline-Freehand">
  <desc>
    Video Edit Camera Compress Streamline Icon: https://streamlinehq.com
  </desc>
  <g>
    <path d="M23.65 10.9c-0.9 -0.13 -0.95 -0.09 -2.94 -0.24a14.71 14.71 0 0 0 -4.22 -0.15 2.34 2.34 0 0 0 -1.92 1.37 1.65 1.65 0 0 0 1.13 2 4.61 4.61 0 0 0 3.81 -0.4 2.48 2.48 0 0 0 0.27 -1.94l2.95 0 0.9 0a0.29 0.29 0 0 0 0.37 -0.18 0.42 0.42 0 0 0 -0.35 -0.46Zm-4.54 1.29c0 0.78 -0.09 0.64 -0.76 0.84 -2.91 0.58 -4.59 -1.69 0.73 -1.55a5.24 5.24 0 0 1 0.03 0.71Z" fill="#020202" stroke-width="1"></path>
    <path d="M20.23 12.89a0.35 0.35 0 0 0 0.18 0.5l0.25 0.1c1.33 0.5 1 0.29 2.43 0.15a0.34 0.34 0 0 0 0.07 -0.67 4.9 4.9 0 0 0 -1.56 -0.33 7.54 7.54 0 0 0 -1.37 0.25Z" fill="#020202" stroke-width="1"></path>
    <path d="M20 15.05c0.12 0.28 0 0.19 1.18 0.49a4.7 4.7 0 0 0 0.65 0c0.34 0 0.65 -0.14 1 -0.2a0.34 0.34 0 0 0 0 -0.67 3.1 3.1 0 0 0 -2.26 0 2.57 2.57 0 0 0 -0.41 0.09c-0.09 0.07 -0.16 0.16 -0.16 0.29Z" fill="#020202" stroke-width="1"></path>
    <path d="M22.76 16.64c-0.3 -0.07 -0.56 -0.18 -0.86 -0.23s-0.37 0 -0.56 0a1.85 1.85 0 0 0 -0.92 0.16s-0.42 0.11 0 0.54a4.71 4.71 0 0 0 0.9 0.39 2.8 2.8 0 0 0 1.48 -0.18 0.34 0.34 0 0 0 -0.04 -0.68Z" fill="#020202" stroke-width="1"></path>
    <path d="M23.42 19.11a5 5 0 0 0 -1.85 0l-1.76 0c-0.66 -2 -3.74 -3 -5 -1.16a1.45 1.45 0 0 0 0.81 2.23c1.07 0.33 5.23 -0.21 6 -0.35a4 4 0 0 0 -0.2 1.06c0 0.73 0.16 0.41 -0.6 0.31a2.35 2.35 0 0 0 -1.24 0.35c-0.15 0.18 -0.25 0.28 -0.07 0.63s0.72 0.31 2 0a4.41 4.41 0 0 1 0.14 1.34c-0.13 0.44 0.85 1.13 0.92 -1.31a6.19 6.19 0 0 0 -0.11 -1.35 2.78 2.78 0 0 1 -0.12 -1.17 2.06 2.06 0 0 1 0.8 -0.06 0.29 0.29 0 1 0 0.28 -0.52ZM15.75 19c-0.27 -0.45 0.43 -0.95 0.89 -1a2.57 2.57 0 0 1 2.41 1.19c-2.46 0.02 -3.13 0.11 -3.3 -0.19Z" fill="#020202" stroke-width="1"></path>
    <path d="M16.08 3.43c1.16 0.19 1.1 0.56 1.19 5.85a0.34 0.34 0 0 0 0.67 0c0 -5.24 0.19 -6.31 -1.71 -6.67 -1.32 -0.25 -3.29 0.28 -4 -0.2 -0.25 -0.16 -0.14 -1 -0.27 -1.5 -0.31 -1.2 -1.33 -0.86 -2.08 -0.83 -1.66 0.06 -4.46 -0.33 -5.15 1 -0.31 0.57 -0.29 1.5 -0.53 1.68 -0.46 0.34 -1.91 0.12 -2.8 0.43S0.28 4.24 0.17 5.16C0.11 5.66 0 9.27 0 9.79a14.31 14.31 0 0 0 0.39 3.76 1.77 1.77 0 0 0 1.7 1.3c0.7 0 -2.47 0 9.14 -0.37 0.27 0 1 0.16 1.35 0a0.3 0.3 0 0 0 -0.32 -0.5c-1.47 -0.1 0.11 -0.25 -8.7 -0.07C1.31 13.92 0.78 15 1.2 6.92a7.37 7.37 0 0 1 0.32 -2.51c0.35 -0.72 3.14 0.31 3.83 -1.42 0.23 -0.56 0.23 -1.42 0.46 -1.52 0.9 -0.42 2.39 -0.27 5.14 -0.42 0.22 0.37 -0.12 1.62 0.75 2.15 1.11 0.68 3.09 0.02 4.38 0.23Z" fill="#020202" stroke-width="1"></path>
    <path d="M4.11 5.51a1 1 0 0 0 -1.54 0.34 1 1 0 0 0 0.94 1.3 1.16 1.16 0 0 0 1.34 -0.91c0.02 -0.5 -0.5 -1.06 -0.74 -0.73Z" fill="#4C57E6" stroke-width="1"></path>
    <path d="M11.57 6.17a23.15 23.15 0 0 0 -2.49 0.14 3.52 3.52 0 0 0 -2.33 4.55c1 2.34 5 1.6 5.78 -1.06a2.62 2.62 0 0 0 -1.08 -3l0.19 0a0.3 0.3 0 0 0 -0.07 -0.63Zm0.07 3.35C11 11.4 8 11.76 7.65 10a2.65 2.65 0 0 1 1.64 -2.94 4.64 4.64 0 0 1 0.81 -0.16l0.12 0.07a2 2 0 0 1 1.42 2.55Z" fill="#4C57E6" stroke-width="1"></path>
  </g>
</svg>