<svg xmlns="http://www.w3.org/2000/svg" viewBox="0 0 24 24" id="Video-Edit-Split--Streamline-Freehand">
  <desc>
    Video Edit Split Streamline Icon: https://streamlinehq.com
  </desc>
  <g>
    <path d="M7.89 10.57a10 10 0 0 0 2.33 0.14 0.34 0.34 0 0 0 -0.07 -0.67 9.14 9.14 0 0 1 -2.1 -0.44c-2 -0.4 -5.15 -0.74 -5.23 -0.76 -0.43 0 -0.74 0.58 -0.32 0.74a25.09 25.09 0 0 0 5.39 0.99Z" fill="#4C57E6" stroke-width="1"></path>
    <path d="M5.69 8.63a0.34 0.34 0 0 0 0.67 0.13c0.39 -0.82 0.26 -0.1 0.57 -1.51 0 -0.36 -0.68 -0.5 -0.84 -0.21 -0.42 0.96 -0.44 0.77 -0.4 1.59Z" fill="#4C57E6" stroke-width="1"></path>
    <path d="M4.34 17.29a14.14 14.14 0 0 0 -0.13 1.83c0.17 0.39 0.56 0.53 0.76 0.07a2.27 2.27 0 0 0 0.22 -1.28c-0.09 -0.68 -0.11 -0.57 0 -0.56 1.24 0 2.48 -0.07 3.7 0a0.34 0.34 0 0 0 0.11 -0.66 42.08 42.08 0 0 0 -7.44 -0.57c-0.41 0 -0.43 0.42 -0.09 0.66a27.24 27.24 0 0 0 2.87 0.51Z" fill="#4C57E6" stroke-width="1"></path>
    <path d="M10.66 6.89c-0.1 0 -6.94 -1.8 -8.36 -1.07a1.16 1.16 0 0 0 -0.51 0.77A33.93 33.93 0 0 0 0.06 18.91c0.39 1.86 3.61 1.33 9.23 2.09a0.34 0.34 0 0 0 0 -0.68c-5.92 -1 -7.6 -0.71 -8.23 -1.46a23 23 0 0 1 0.22 -4.42 33.42 33.42 0 0 1 1.45 -7.5c0 -0.07 0.14 -0.2 0.09 -0.25a15.77 15.77 0 0 1 4.67 0.28c3.07 0.55 3 0.48 3.12 0.62 0.39 0.29 1 -0.36 0.05 -0.7Z" fill="#020202" stroke-width="1"></path>
    <path d="M16.67 9.84a9.3 9.3 0 0 1 -2.14 0.24 0.34 0.34 0 1 0 -0.13 0.66 9.66 9.66 0 0 0 2.33 0.08 24.85 24.85 0 0 0 5.37 -0.45c0.54 -0.12 0.5 -0.7 0 -0.73 -0.03 0.01 -3.4 -0.01 -5.43 0.2Z" fill="#4C57E6" stroke-width="1"></path>
    <path d="M24 12.1a25.53 25.53 0 0 0 -0.72 -4.64 1.15 1.15 0 0 0 -0.43 -0.82c-0.92 -0.6 -4.29 -0.27 -5.38 -0.13 -3.39 0.43 -2.77 0.32 -3.05 0.39 -1 0.25 -0.41 0.95 0 0.67 0.17 -0.13 0.24 -0.09 3.17 -0.32 0 0 2.62 -0.11 3.58 0s1.08 0 1.16 0.43l0.26 1.44a48.07 48.07 0 0 1 0.22 9.65c-0.08 0.75 0.17 1.14 -1.11 1.31 -2.07 0.27 -3.76 0.1 -7.37 0.29a0.34 0.34 0 0 0 0 0.68c5.91 -0.2 8.82 0.62 9.4 -1.16 0.27 -1.19 0.33 -6.06 0.27 -7.79Z" fill="#020202" stroke-width="1"></path>
    <path d="M19.56 17.86a22.23 22.23 0 0 0 2.77 -0.28c0.45 0.14 0.51 -0.42 0.06 -0.61a37.06 37.06 0 0 0 -7.46 -0.16 0.34 0.34 0 0 0 0 0.68c1.34 0 2.9 0.3 3.71 0.34a4.73 4.73 0 0 0 0 1.87 0.49 0.49 0 0 0 0.92 0.09 4.52 4.52 0 0 0 0 -1.93Z" fill="#4C57E6" stroke-width="1"></path>
    <path d="M18.45 9.17a0.34 0.34 0 0 0 0.67 -0.05 3.69 3.69 0 0 0 -0.05 -1.61 0.48 0.48 0 0 0 -0.87 0.11 3 3 0 0 0 0.25 1.55Z" fill="#4C57E6" stroke-width="1"></path>
    <path d="M15.56 1.17c0 -0.48 -0.45 -0.71 -0.93 -0.8a22.25 22.25 0 0 0 -5 0.38 0.69 0.69 0 0 0 -0.27 1c0.12 0.23 0.81 1.13 2.1 3.17 0.39 0.74 0.93 0.74 1.13 0.51a9.56 9.56 0 0 0 2.47 -3.11 2.74 2.74 0 0 0 0.5 -1.15Zm-1.34 0.71a8.4 8.4 0 0 1 -2 3c-0.5 -0.72 -1.33 -2.64 -1.87 -3.34 0.29 0 0.69 0.07 0.75 0.06 4.36 -0.24 3.4 -0.26 3.12 0.28Z" fill="#020202" stroke-width="1"></path>
    <path d="M12.5 6.22c-0.06 -0.06 -0.37 -0.1 -0.53 0.27a9 9 0 0 0 -0.31 0.91 4.66 4.66 0 0 0 0.17 1.92 0.34 0.34 0 0 0 0.67 0 4.51 4.51 0 0 0 0.23 -1.92s0.01 -0.99 -0.23 -1.18Z" fill="#020202" stroke-width="1"></path>
    <path d="M12.34 11.27s-0.47 -0.07 -0.53 0.32 -0.16 0.87 -0.18 1a6.46 6.46 0 0 0 0.31 1.92 0.34 0.34 0 0 0 0.68 0 4.7 4.7 0 0 0 0.1 -2 2.61 2.61 0 0 0 -0.38 -1.24Z" fill="#020202" stroke-width="1"></path>
    <path d="M12.5 18.69a10.38 10.38 0 0 0 0.21 -1.22 7.28 7.28 0 0 0 -0.26 -1.76c-0.09 -0.17 -0.17 -0.28 -0.33 -0.23a0.72 0.72 0 0 0 -0.42 0.6 5.22 5.22 0 0 0 0.12 2.61 0.34 0.34 0 0 0 0.68 0Z" fill="#020202" stroke-width="1"></path>
    <path d="M12.51 20.87c-0.3 -0.64 -0.67 -0.23 -0.72 0a3.5 3.5 0 0 0 0.09 2.44 0.34 0.34 0 0 0 0.68 0 3.5 3.5 0 0 0 -0.05 -2.44Z" fill="#020202" stroke-width="1"></path>
  </g>
</svg>