<svg xmlns="http://www.w3.org/2000/svg" viewBox="0 0 24 24" id="Video-Player-Smartphone-Horizontal--Streamline-Freehand">
  <desc>
    Video Player Smartphone Horizontal Streamline Icon: https://streamlinehq.com
  </desc>
  <g>
    <path d="M13.35 11C10.53 8.62 9.92 8.83 7.4 7.28a0.34 0.34 0 0 0 -0.47 0.1c-0.11 0.16 -0.23 7 -0.23 7a2.53 2.53 0 0 0 0.19 1.22c0.45 0.69 1.46 0.31 2.18 -0.09s2.39 -1.65 3.8 -2.74c0.23 -0.17 0.91 -0.5 1 -1s-0.27 -0.58 -0.52 -0.77ZM9.9 13.52a8.94 8.94 0 0 1 -2.07 1.3c0 -0.15 -0.12 -6.47 -0.12 -6.51 2.45 1.54 2.76 1.43 4.88 3.37 -0.16 0.08 -2.69 1.84 -2.69 1.84Z" fill="#4C57E6" stroke-width="1"></path>
    <path d="M19.76 9.93a1.79 1.79 0 0 0 -0.24 3.27 1.71 1.71 0 0 0 2.33 -0.74c1.02 -2.73 -1.49 -2.76 -2.09 -2.53Zm1.28 2a0.76 0.76 0 0 1 -1.39 -0.42 1.08 1.08 0 0 1 0.45 -0.88c0.37 -0.23 1.83 0.12 0.9 1.3Z" fill="#020202" stroke-width="1"></path>
    <path d="M3.23 9.61c0 -0.34 -0.52 -0.55 -0.62 0a7.68 7.68 0 0 0 0 3.63 0.34 0.34 0 0 0 0.68 0 6.22 6.22 0 0 0 -0.06 -3.63Z" fill="#020202" stroke-width="1"></path>
    <path d="M16.78 19.43a0.35 0.35 0 0 0 0.69 0l0.43 -14.78c0.05 -0.76 -0.67 -0.67 -0.64 0a103.39 103.39 0 0 0 -0.48 14.78Z" fill="#020202" stroke-width="1"></path>
    <path d="M23.67 5.25a3.55 3.55 0 0 0 -2.83 -2C17.91 2.62 8.65 3 4.22 3.21c-1.38 0.06 -2.74 0.08 -3.5 1.29C-0.23 6 0 10.56 0 12.9s-0.29 5.75 1.52 7c1.6 1.13 5.59 0.95 8.18 1.07a65.64 65.64 0 0 0 8.76 -0.08c1.38 -0.11 3.58 -0.19 4.49 -1.26s0.85 -7.13 0.89 -8.28c0.16 -3.48 0.3 -4.97 -0.17 -6.1Zm-0.45 6.09c0 1 -0.28 7.16 -0.83 7.8 -1.3 1.47 -10.66 1 -12.62 0.86 -1.77 -0.1 -3.62 -0.07 -5.36 -0.33 -1.92 -0.27 -2.71 -0.48 -3.08 -2.36a22.24 22.24 0 0 1 -0.15 -4.4c0 -1.85 -0.09 -3.71 0.07 -5.54 0.23 -2.67 0.34 -2.89 3 -3S16 3.11 20.49 4A3.2 3.2 0 0 1 23 5.55c0.4 0.98 0.31 2.32 0.22 5.79Z" fill="#020202" stroke-width="1"></path>
  </g>
</svg>