<svg xmlns="http://www.w3.org/2000/svg" viewBox="0 0 24 24" id="Video-Game-The-Sims--Streamline-Freehand">
  <desc>
    Video Game The Sims Streamline Icon: https://streamlinehq.com
  </desc>
  <title>video-game-the-sims</title>
  <g>
    <path d="M4.45 20.78a9.27 9.27 0 0 0 -1.15 -0.21h-0.13l0 -0.37C3.1 19.56 3 19 2.9 18.32a0.29 0.29 0 0 0 -0.58 0c-0.08 0.63 -0.18 1.24 -0.22 1.88l0 0.44 -0.86 0.2a0.29 0.29 0 0 0 -0.29 0.29 0.28 0.28 0 0 0 0.28 0.29l0.9 0.18 0 0.21c0.06 0.63 0.16 1.25 0.24 1.87a0.33 0.33 0 0 0 0.66 0c0 -0.63 0.11 -1.24 0.14 -1.87l0 -0.17h0.1c0.38 0 0.74 -0.13 1.12 -0.17a0.33 0.33 0 0 0 0.35 -0.31 0.32 0.32 0 0 0 -0.29 -0.38Z" fill="#4C57E6" fill-rule="evenodd" stroke-width="1"></path>
    <path d="m19.79 11 -1.2 -1.65c-1 -1.54 -2.1 -3.1 -3.21 -4.64l-2.3 -3.17a0.29 0.29 0 0 0 -0.4 0.05c-0.6 0.73 -1.18 1.47 -1.75 2.21C9.61 5.52 8.34 7.28 7 9l-1.45 2.05c-0.06 0.08 -0.45 0.51 -0.57 0.71a0.69 0.69 0 0 0 -0.08 0.55 4.07 4.07 0 0 0 0.51 1c0.41 0.6 1 1.18 1.31 1.73s0.73 1.07 1.15 1.62c1.56 2 3.51 4.17 4.79 6.12 0.22 0.35 1.85 -0.55 3.31 -3 0.88 -1.48 1.55 -3.11 2.33 -4.5 0.36 -0.64 1 -1.36 1.43 -2.08a4.05 4.05 0 0 0 0.51 -1.2 0.63 0.63 0 0 0 0 -0.38 3 3 0 0 0 -0.45 -0.62Zm-2.11 -1.08 1.21 1.72s0.16 0.13 0.24 0.21 -0.05 0.11 -0.07 0.17a0.29 0.29 0 0 0 -0.27 -0.19c-1 -0.06 -2 -0.17 -3 -0.28a2.76 2.76 0 0 0 -0.08 -0.27c-0.2 -0.58 -0.56 -1.24 -0.68 -1.63 -0.46 -1.35 -1 -2.71 -1.43 -4.09 -0.21 -0.66 -0.38 -1.33 -0.53 -2l0.19 -0.62c0.51 0.73 1 1.46 1.5 2.22 0.99 1.57 1.97 3.18 2.92 4.76Zm-4.85 -4.15c0.34 1.41 0.78 2.8 1.14 4.19 0.1 0.35 0.38 0.93 0.59 1.47l-0.72 -0.06c-0.72 -0.06 -1.44 -0.07 -2.16 -0.07l-1.25 0a1.85 1.85 0 0 1 0.13 -0.47c0.27 -0.7 0.75 -1.48 0.91 -2l1.17 -4c0.06 0.37 0.12 0.66 0.19 0.94Zm-5 3.87C9.11 7.85 10.28 6 11.52 4.21c0.26 -0.38 0.54 -0.76 0.81 -1.15l0.06 0.39 -1.9 5.11c-0.17 0.5 -0.68 1.24 -1 1.91a2.88 2.88 0 0 0 -0.21 1c-0.6 0.05 -1.2 0.11 -1.81 0.14l-1 0Zm-0.22 4.79c-0.34 -0.56 -0.9 -1.17 -1.31 -1.78a2.73 2.73 0 0 1 -0.22 -0.41 19.39 19.39 0 0 0 2 0.14h1.4c0 0.16 0.1 0.33 0.16 0.49 0.31 0.84 0.78 1.67 1 2.48 0.48 1.39 0.79 2.83 1.22 4.24a17.46 17.46 0 0 0 0.62 1.71c-1.11 -1.7 -2.59 -3.53 -3.8 -5.3 -0.39 -0.51 -0.74 -1 -1.05 -1.57Zm5.48 6.07 -0.06 0.27c-0.15 -0.45 -0.29 -0.91 -0.4 -1.37 -0.36 -1.45 -0.59 -2.92 -1 -4.35 -0.24 -0.82 -0.67 -1.69 -1 -2.54l0 -0.11 1 0 2 0 1.08 0c0 0.39 -0.11 0.78 -0.19 1.18 -0.26 1.2 -0.66 2.42 -0.91 3.55s-0.29 2.27 -0.5 3.37Zm4.27 -5.76c-0.71 1.41 -1.3 3.07 -2.11 4.59a10.61 10.61 0 0 1 -1.84 2.56 8.52 8.52 0 0 0 0.39 -1.24c0.27 -1.07 0.42 -2.21 0.71 -3.24s0.66 -2 0.94 -3a11.3 11.3 0 0 0 0.37 -1.93h0.79l2.15 0 0.06 0 -0.06 0.11c-0.42 0.72 -1.03 1.48 -1.38 2.15Z" fill="#020202" fill-rule="evenodd" stroke-width="1"></path>
    <path d="M22.75 2.72c-0.39 -0.09 -0.77 -0.19 -1.18 -0.25h-0.1a3.62 3.62 0 0 0 0 -0.47c-0.06 -0.58 -0.18 -1.14 -0.29 -1.71a0.28 0.28 0 0 0 -0.3 -0.28 0.3 0.3 0 0 0 -0.28 0.3c0 0.57 -0.15 1.13 -0.19 1.71l0 0.44c-0.34 0 -0.67 0.13 -1 0.19a0.29 0.29 0 0 0 0 0.58c0.36 0.08 0.7 0.18 1.06 0.24 0 0.57 0.11 1.12 0.15 1.69a0.32 0.32 0 0 0 0.32 0.34 0.32 0.32 0 0 0 0.34 -0.31c0.08 -0.56 0.17 -1.11 0.22 -1.67h0.09c0.4 0 0.79 -0.1 1.18 -0.13a0.33 0.33 0 0 0 0.35 -0.31 0.33 0.33 0 0 0 -0.37 -0.36Z" fill="#4C57E6" fill-rule="evenodd" stroke-width="1"></path>
  </g>
</svg>