<svg xmlns="http://www.w3.org/2000/svg" viewBox="0 0 24 24" id="Video-Edit-Flip-Scene--Streamline-Freehand">
  <desc>
    Video Edit Flip Scene Streamline Icon: https://streamlinehq.com
  </desc>
  <g>
    <path d="M12.69 9.92c0.59 0 2 0.23 2.44 -0.33a2.1 2.1 0 0 0 0.25 -1.32c0.11 -4 0.38 -6.1 -1 -6.91C12.91 0.46 7.62 0 5.69 0 1.91 0.11 1 1.33 0.76 3.35a17.82 17.82 0 0 0 -0.08 2.5c0 0.92 -0.28 3 0.39 3.09a0.29 0.29 0 0 0 0.1 0.55c1.56 0.2 9.09 0.56 11.52 0.43ZM1.3 8.88a0.35 0.35 0 0 0 0.12 -0.37 12.75 12.75 0 0 1 0 -3.12 6.13 6.13 0 0 0 2.73 -0.21c0 1.31 0.08 2.3 0.12 3.61a0.31 0.31 0 0 0 0.1 0.25C2.11 9 1.61 8.86 1.3 8.88ZM5.7 1a33.3 33.3 0 0 1 5.35 0.59C11 2 11 2.65 10.93 2.8a32.63 32.63 0 0 0 -0.08 5.84 0.34 0.34 0 0 0 0.67 0c0.13 -1.1 0.27 -2.19 0.34 -3.29 0.87 0.53 0.83 0.41 1.73 0.24a0.34 0.34 0 0 0 0.06 -0.59 3.42 3.42 0 0 0 -0.7 -0.3c-0.41 -0.11 -0.68 0.09 -1.06 0.12a12.49 12.49 0 0 0 0 -1.94c0 -0.12 0.11 -0.67 0.09 -1.07 1.28 0.29 2 0.48 2.15 0.85 0.29 0.72 0.23 1.22 0.21 5.63 0 0.12 0.08 0.44 0.08 0.61 -0.17 -0.42 -1.5 0.07 -1.76 0.09 -2 0.18 -4.51 0.13 -7.78 0.1A0.38 0.38 0 0 0 5 8.81C5.73 0.52 5 1 5.7 1ZM4.64 1l-0.32 1.92a10.53 10.53 0 0 0 -0.13 1.63 11.4 11.4 0 0 0 -1.29 -0.22 2.9 2.9 0 0 0 -1.45 0.37c0.11 -2.79 0.77 -3.45 3.19 -3.7Z" fill="#020202" stroke-width="1"></path>
    <path d="M23.36 15.36c-0.15 -1.24 -1.5 -0.88 -2.62 -1 -2.7 -0.26 -10.52 -0.18 -11.53 -0.08a0.29 0.29 0 0 0 -0.12 0.54c-0.67 0 -0.48 2.15 -0.53 3.08 -0.08 1.81 -0.27 4 1.17 5.05 2.2 1.62 8.51 1 11.14 0.44 0.83 -0.19 1.61 -0.37 2 -1.18a8.26 8.26 0 0 0 0.43 -3.1 29 29 0 0 0 0.06 -3.75Zm-14 -0.46c0.34 0 0.77 -0.08 3.09 0a0.35 0.35 0 0 0 -0.12 0.24c-0.09 1.3 -0.21 2.3 -0.26 3.6 0 0 -1 -0.28 -1.2 -0.31 -0.64 -0.13 -1.13 0.06 -1.52 0a13.33 13.33 0 0 1 0.11 -3.12 0.31 0.31 0 0 0 -0.15 -0.41Zm0 4.17a2.84 2.84 0 0 0 1.43 0.44 10.08 10.08 0 0 0 1.3 -0.16 11.64 11.64 0 0 0 -0.01 1.65s0.24 1.84 0.25 1.89c-2.49 -0.35 -3.05 -1.12 -3.04 -3.82Zm13 -2.95c-0.16 4.66 -0.07 5.62 -0.84 5.94a13.57 13.57 0 0 1 -1.78 0.43c0 -0.4 -0.06 -0.95 0 -1.07a13.44 13.44 0 0 0 0.12 -1.94c0.05 0 0.36 0.09 0.58 0.14a1.77 1.77 0 0 0 1.19 -0.24 0.34 0.34 0 0 0 0 -0.67c-0.94 -0.24 -0.83 -0.31 -1.73 0.16 0 -1.11 -0.12 -2.2 -0.21 -3.31a0.34 0.34 0 0 0 -0.67 0 33.13 33.13 0 0 0 -0.16 5.83 11.67 11.67 0 0 0 0.07 1.23 30.83 30.83 0 0 1 -5.67 0.32c-0.13 -0.54 0.12 -1.93 0.05 -4.31 0 -1.17 -0.11 -2.34 -0.18 -3.51a0.3 0.3 0 0 0 -0.09 -0.24c3.27 0.12 5.83 0.19 7.77 0.45 0.26 0 1.57 0.59 1.75 0.17 -0.18 0.18 -0.28 0.5 -0.29 0.62Z" fill="#020202" stroke-width="1"></path>
    <path d="M7.73 17.64c-0.16 0 -0.79 0.58 -2 -0.42a4 4 0 0 1 -1.15 -1.56c-0.67 -1.66 0 -2.35 -0.62 -2.44a0.33 0.33 0 0 0 -0.38 0.27c-0.61 2.56 0.69 4.64 2.55 5a2.43 2.43 0 0 0 1.66 -0.21c0.37 -0.28 0.21 -0.63 -0.06 -0.64Z" fill="#4C57E6" stroke-width="1"></path>
    <path d="M5.9 14.1a0.34 0.34 0 0 0 -0.07 -0.47c-0.72 -0.65 -1.92 -2.54 -3 -1.75 -0.63 0.46 -2.51 3.71 -1.46 3.71a0.3 0.3 0 0 0 0.29 -0.3 10.74 10.74 0 0 1 1.73 -2.48c1.37 0.55 2.09 1.83 2.51 1.29Z" fill="#4C57E6" stroke-width="1"></path>
    <path d="M16.35 5.38c2.26 -0.28 3.17 3.5 3 6a23.43 23.43 0 0 0 -1.75 -1.96s-0.08 -0.17 -0.14 -0.18a0.31 0.31 0 0 0 -0.6 0.15 7.73 7.73 0 0 0 0.77 1.22c0.45 0.65 0.91 1.92 1.88 2.27s1.54 -1.12 2.79 -3.51a0.33 0.33 0 0 0 -0.57 -0.37c-3.47 4.85 0.06 1 -2.31 -2.81a3.73 3.73 0 0 0 -2 -1.46 5.62 5.62 0 0 0 -1.1 0c-0.56 0.09 -0.39 0.7 0.03 0.65Z" fill="#4C57E6" stroke-width="1"></path>
  </g>
</svg>