<svg xmlns="http://www.w3.org/2000/svg" viewBox="0 0 24 24" id="Video-Games-Device-Arcade-Pacman--Streamline-Freehand">
  <desc>
    Video Games Device Arcade Pacman Streamline Icon: https://streamlinehq.com
  </desc>
  <title>video-games-device-arcade-pacman</title>
  <g>
    <path d="M22.59 16.31a1.27 1.27 0 0 0 -0.22 -0.52c-0.22 -0.32 -0.65 -0.73 -0.75 -0.89l-2.24 -3.17 0 -0.08c0 -0.03 -0.09 -7 -0.09 -7.47a14 14 0 0 0 -0.08 -2.48 2.7 2.7 0 0 0 -0.46 -1.15A1.6 1.6 0 0 0 17.58 0a16.08 16.08 0 0 0 -2.11 0.15c-1.85 0.09 -3.74 0 -5.61 0.11C9 0.3 8.22 0.37 7.42 0.48c-0.52 0.08 -1 0.14 -1.57 0.24A7.91 7.91 0 0 0 4.78 1a4.27 4.27 0 0 0 -0.65 0.21 0.59 0.59 0 0 0 -0.34 0.4 5.67 5.67 0 0 0 -0.09 1c0 0.75 0.11 1.56 0.14 2.21 0.05 1.18 0.16 2.4 0.25 3.59s0.24 2.28 0.4 3.41a13.73 13.73 0 0 0 -1 1.35c-0.52 0.78 -1 1.6 -1.41 2.39 0 0 -0.41 0.79 -0.56 1.1a1.14 1.14 0 0 0 -0.06 0.14s0 0.61 0 2.7a12.21 12.21 0 0 0 0.07 1.35c0 0.45 0.13 0.89 0.19 1.33l0.17 1.08a3.58 3.58 0 0 0 0 0.4 0.44 0.44 0 0 0 0.12 0.25 0.35 0.35 0 0 0 0.5 0 0.34 0.34 0 0 0 0.07 -0.32c0.09 0 0 -0.29 0 -0.33l0 -1.12 0 -1.07 0 -1.05c0 -0.35 -0.05 -0.63 -0.08 -0.95 0 -0.5 -0.1 -1 -0.15 -1.47a7.05 7.05 0 0 0 1.4 0.18c1.51 0.06 3.14 -0.21 4.47 -0.22s2.95 -0.1 4.42 -0.17c2.21 -0.11 4.41 -0.25 6.61 -0.33C20 17 20.68 17 21.39 17l-0.1 1.75 0.32 4.76a0.35 0.35 0 0 0 0.7 0l0.11 -4.75c0 -0.5 0.12 -1.05 0.17 -1.57a5.61 5.61 0 0 0 0 -0.88ZM4.76 2.08l0.3 -0.08c0.32 -0.08 0.65 -0.14 1 -0.19l1.54 -0.19c0.77 -0.1 1.56 -0.15 2.34 -0.18 1.87 -0.08 3.76 0 5.61 -0.14 0.36 0 1.09 -0.19 1.74 -0.22 0.27 0 0.54 -0.05 0.66 0.1a2.06 2.06 0 0 1 0.37 1c0.1 0.68 0.06 1.43 0.09 2 0.06 1.64 0.18 3.28 0.26 4.92 0 0.69 0.05 1.39 0.06 2.09l0 0.06c-1.52 -0.12 -3.06 -0.21 -4.6 -0.22l-2.12 0c-0.7 0 -1.42 0.06 -2.12 0.12 -1.61 0.12 -3.19 0.33 -4.77 0.51 -0.12 -1.08 -0.22 -2.19 -0.28 -3.3S4.75 6 4.75 4.81l0 -1.88a7.73 7.73 0 0 1 0.01 -0.85Zm10.33 14.13c-2.3 0 -4.6 0.11 -6.9 0.14 -1.32 0 -2.93 0.34 -4.42 0.35a8.28 8.28 0 0 1 -1.24 -0.07l0.29 -0.63c0.38 -0.79 0.77 -1.62 1.24 -2.4a12.08 12.08 0 0 1 0.85 -1.26s0 0 0.08 0l5.63 0c1.12 0 2.25 -0.08 3.37 -0.12 1.6 -0.07 3.2 -0.15 4.79 -0.17l1.91 3.48c0.07 0.13 0.55 0.5 0.73 0.77 -2.1 -0.11 -4.22 -0.12 -6.33 -0.09Z" fill="#020202" fill-rule="evenodd" stroke-width="1"></path>
    <path d="M7.89 13.78a5.09 5.09 0 0 0 -0.77 -0.19 1.74 1.74 0 0 0 -0.32 0 1.06 1.06 0 0 0 -0.31 0.05 7.1 7.1 0 0 0 -0.69 0.28 0.32 0.32 0 0 0 -0.31 0.31 0.31 0.31 0 0 0 0.31 0.31 4.35 4.35 0 0 0 0.76 0.22h0.32l0.3 -0.05c0.24 -0.07 0.44 -0.16 0.68 -0.22a0.34 0.34 0 0 0 0.36 -0.34 0.35 0.35 0 0 0 -0.33 -0.37Z" fill="#4C57E6" fill-rule="evenodd" stroke-width="1"></path>
    <path d="M12 13.84a6.35 6.35 0 0 0 -0.89 -0.26l-0.39 0a1.74 1.74 0 0 0 -0.39 0 6.55 6.55 0 0 0 -0.85 0.34 0.31 0.31 0 0 0 -0.26 0.35 0.3 0.3 0 0 0 0.34 0.26c0.31 0 0.56 0.14 0.85 0.17h0.35l0.34 0c0.27 0 0.52 -0.12 0.82 -0.15a0.35 0.35 0 0 0 0.38 -0.31 0.34 0.34 0 0 0 -0.3 -0.4Z" fill="#4C57E6" fill-rule="evenodd" stroke-width="1"></path>
    <path d="M17.2 12.77a1.59 1.59 0 0 0 -1.77 0.64 1.38 1.38 0 0 0 0.59 2 1.73 1.73 0 0 0 1.42 0.08 1.54 1.54 0 0 0 0.48 -2.37 1.4 1.4 0 0 0 -0.72 -0.35Zm0 1.41a0.38 0.38 0 0 1 -0.2 0.26 0.7 0.7 0 0 1 -0.49 0c-0.15 -0.06 -0.32 -0.11 -0.35 -0.27 -0.2 -0.83 0.82 -0.72 1 -0.39 0.12 0.09 0.07 0.22 0.03 0.4Z" fill="#4C57E6" fill-rule="evenodd" stroke-width="1"></path>
    <path d="M7.44 9.83a3.84 3.84 0 0 0 2.18 0.29 3.73 3.73 0 0 0 2 -1 2.72 2.72 0 0 0 0.31 -0.38 6.52 6.52 0 0 0 0.43 -0.85 0.53 0.53 0 0 0 0 -0.35 0.57 0.57 0 0 0 -0.26 -0.3c-0.16 -0.08 -0.55 -0.17 -0.64 -0.22l-1.17 -0.69a1.83 1.83 0 0 1 0.11 -0.26l0.43 -0.45a7.76 7.76 0 0 0 0.59 -0.62c0.5 -0.45 -1.08 -1.34 -2 -1.43a4.74 4.74 0 0 0 -2.2 0.4 3 3 0 0 0 -1.6 3 3.32 3.32 0 0 0 1.82 2.86Zm0.12 -5a3.83 3.83 0 0 1 1.77 -0.47 2.37 2.37 0 0 1 1.34 0.42l-0.41 0.34 -0.54 0.51a4.53 4.53 0 0 0 -0.4 0.53 0.73 0.73 0 0 0 -0.09 0.35 0.53 0.53 0 0 0 0.14 0.3 3.24 3.24 0 0 0 0.38 0.19l1.25 0.86 0.18 0.12 -0.07 0.12a1.27 1.27 0 0 1 -0.22 0.25A2.63 2.63 0 0 1 9.45 9a2.72 2.72 0 0 1 -1.53 -0.23 2.19 2.19 0 0 1 -1.21 -1.91 2 2 0 0 1 0.85 -2.07Z" fill="#020202" fill-rule="evenodd" stroke-width="1"></path>
    <path d="M13.5 6.85a0.67 0.67 0 1 0 -0.5 -1.23 0.63 0.63 0 0 0 -0.27 0.31 0.62 0.62 0 0 0 0.09 0.65 0.68 0.68 0 0 0 0.68 0.27Z" fill="#020202" fill-rule="evenodd" stroke-width="1"></path>
    <path d="M16.16 6.66a0.63 0.63 0 0 0 0.49 -0.86 0.62 0.62 0 0 0 -0.95 -0.36 0.65 0.65 0 0 0 -0.27 0.3 0.68 0.68 0 0 0 0.73 0.92Z" fill="#020202" fill-rule="evenodd" stroke-width="1"></path>
  </g>
</svg>