<svg xmlns="http://www.w3.org/2000/svg" viewBox="0 0 24 24" id="Video-Edit-Peel--Streamline-Freehand">
  <desc>
    Video Edit Peel Streamline Icon: https://streamlinehq.com
  </desc>
  <g>
    <path d="M4.71 10.37a18.37 18.37 0 0 0 3.54 -0.08L7.5 11c-0.25 0.27 -0.84 0.73 -0.83 1s0.18 0.35 0.34 0.35 0.16 0 1.06 -0.67c0.43 -0.31 1.53 -0.8 1.59 -1.65S8.09 8 7.25 7.54a0.34 0.34 0 0 0 -0.36 0.57A5 5 0 0 1 8.2 9.49a18.82 18.82 0 0 0 -5.47 0c-0.31 0.05 -0.39 0.34 -0.22 0.49a7.5 7.5 0 0 0 2.2 0.39Z" fill="#020202" stroke-width="1"></path>
    <path d="M9.74 16.51a19.38 19.38 0 0 0 -4.21 -0.13L4 16.53a8.79 8.79 0 0 1 1.39 -1.1 0.29 0.29 0 0 0 0 -0.42c-0.25 -0.25 -0.82 0.14 -0.94 0.2 -0.78 0.38 -1.51 0.65 -1.83 1.43 -0.34 1 0.84 1.7 1.63 2.24 0.2 0.13 0.81 0.68 1.17 0.65a0.34 0.34 0 0 0 0 -0.67c-2.52 -2.66 -1.89 -1.24 1.8 -1.43 0.85 0 1.67 -0.17 2.52 -0.25a0.34 0.34 0 0 0 0 -0.67Z" fill="#020202" stroke-width="1"></path>
    <path d="M18.21 3.54A5.76 5.76 0 0 0 13.93 0.67c-0.27 0 -0.48 -0.07 -0.63 0s-0.4 -0.19 -0.5 0.17c0 0.1 -0.1 1.89 -0.13 2.64 -0.31 -0.48 -7.78 -0.74 -10.13 -0.81a4.76 4.76 0 0 0 -1.42 0.13c-0.19 0.05 -0.44 0 -0.62 0.27s-0.12 1 -0.14 1.33C0.08 10.21 0 9.68 0 11.51 0 11.8 0.27 21.7 0.28 21.8c0.1 0.58 0.33 1.06 0.9 1.17 0.1 0 9.39 0.37 9.49 0.37 2.16 0.07 2.9 0 4.85 0 0 0 1.66 0.13 1.23 -0.59a0.27 0.27 0 0 0 -0.07 -0.08 5.22 5.22 0 0 0 1.08 -2.73c0.17 -2.26 -1.27 -3.46 -3.32 -4.18 -0.17 -0.06 -0.74 -0.05 -1 -0.12 0.06 -0.08 0 -0.32 0 -0.38 0.26 -4.38 0.16 -1.9 0 -14a4.83 4.83 0 0 1 4 2.68c0.42 1 0.86 1.35 0.91 5.31 0.06 2 0 4.73 0 6.08a23 23 0 0 1 -0.31 4.91 0.34 0.34 0 0 0 0.65 0.19 24.05 24.05 0 0 0 0.58 -5c0.24 -2.72 0.54 -8.19 -0.43 -10.75a5.38 5.38 0 0 0 -0.63 -1.14ZM14.1 16.75a4.12 4.12 0 0 1 2.48 1.6c0.75 1.35 0.22 3 -0.72 4.24 -4.42 0.24 -11.27 -0.54 -14.47 -0.64 -0.15 -0.26 0 0 -0.26 -12.26l0.12 -2.82s0.09 -3.17 0.11 -3.17c1.14 -0.33 8 0 9.19 0 1.95 0.14 1.93 0.31 2.11 0.08 -0.24 6.14 -0.12 6.08 -0.38 11.36a1.24 1.24 0 0 0 0.14 1c0.4 0.49 1.25 0.47 1.68 0.61Z" fill="#020202" stroke-width="1"></path>
    <path d="m23.51 5.45 0 -0.52c0 -0.85 -0.13 -1.2 -1.31 -1.33 -0.64 -0.06 -1.61 -0.07 -3.05 -0.05 -0.51 0 -0.62 0.67 0.29 0.61a2.26 2.26 0 0 0 0.49 0 18.17 18.17 0 0 1 2 0.16c0.95 0.18 0.71 0.49 0.71 1.13 0.1 17.86 1.36 16.34 -1.45 16.64s-2.32 0.31 -3.91 0.09a0.34 0.34 0 0 0 0 0.67c1.59 0.29 1 0.26 4 0.07 1.57 -0.11 2 0.06 2.51 -1.44 0.54 -1.68 -0.22 -14.9 -0.28 -16.03Z" fill="#4C57E6" stroke-width="1"></path>
  </g>
</svg>