<svg xmlns="http://www.w3.org/2000/svg" viewBox="0 0 24 24" id="Video-File-Question--Streamline-Freehand">
  <desc>
    Video File Question Streamline Icon: https://streamlinehq.com
  </desc>
  <g>
    <path d="M21.75 13.94a5.92 5.92 0 0 0 -9.73 0.62c-1.71 2.65 -0.81 6.53 0.89 7.68a0.32 0.32 0 0 0 0.36 -0.52c-1.36 -1 -2 -4.44 -0.44 -6.6a5 5 0 0 1 8 -0.45 5.14 5.14 0 0 1 -3.41 8.5A5.72 5.72 0 0 1 15 23a0.36 0.36 0 0 0 -0.23 0.68 6.67 6.67 0 0 0 2.74 0.31c5.25 -0.47 7.21 -6.16 4.24 -10.05Z" fill="#020202" stroke-width="1"></path>
    <path d="M19 16.84a1.86 1.86 0 0 0 -2.08 -2.2c-1.83 0.25 -2.2 2.65 -1.1 2.53a0.33 0.33 0 0 0 0.31 -0.33 0.79 0.79 0 0 1 0 -0.76 1.1 1.1 0 0 1 0.84 -0.34 0.82 0.82 0 0 1 0.84 1 7.26 7.26 0 0 1 -1.19 1.71c-0.3 0.48 -0.12 0.93 0.45 0.89 0.41 0 0.45 -0.52 0.82 -1a4.85 4.85 0 0 0 1.11 -1.5Z" fill="#020202" stroke-width="1"></path>
    <path d="M17.44 20c-1.08 -0.72 -1.74 1.5 -0.44 1.37 0.26 0 0.54 0 0.69 -0.26a0.85 0.85 0 0 0 -0.25 -1.11Z" fill="#020202" stroke-width="1"></path>
    <path d="M9.15 18c-1.72 0 -5.44 0.51 -7.15 -0.36a10.51 10.51 0 0 0 1 -3.85c0.21 -1.83 1 -12.08 0.95 -12a4 4 0 0 1 0.94 -0.21c4.8 -0.89 5.83 -1 6.75 -0.69 0.44 0.11 1.1 -0.89 -1.32 -0.89 -0.54 0 -5.74 0.5 -6.56 0.73a1 1 0 0 0 -0.76 0.66c-0.16 0.44 -0.91 10.23 -1.17 12.71a8.9 8.9 0 0 1 -0.69 3c-0.11 0.24 -0.52 0.83 0 1.19 1.93 1.29 5.93 0.47 8 0.44a0.36 0.36 0 0 0 0.01 -0.73Z" fill="#020202" stroke-width="1"></path>
    <path d="M12.94 5.27c0.9 0.59 4 0.55 4.82 0.29 -0.08 1.25 -0.1 0.23 0.18 4.61a0.32 0.32 0 0 0 0.63 0l0.24 -3.59c0 -0.66 0.39 -1.82 0 -2.64a4.71 4.71 0 0 0 -1.63 -1.44l-2.46 -2c-0.74 -0.46 -1 0.68 -1.21 1.08 -0.4 0.73 -1.97 2.76 -0.57 3.69Zm1.49 -4.09 2.06 2.12c0.76 0.72 1.25 0.9 1.29 1.46a11.94 11.94 0 0 1 -3.48 -0.29c-1.3 -0.28 -0.86 -0.15 0.13 -3.29Z" fill="#020202" stroke-width="1"></path>
    <path d="M13.34 11.83c0.3 -0.76 -0.43 -1.28 -1 -1.75A19.87 19.87 0 0 0 8.6 7.76a0.35 0.35 0 0 0 -0.34 0.62 18.85 18.85 0 0 1 3.42 2.45c0.09 0.1 0.5 0.35 0.65 0.52a39.17 39.17 0 0 0 -4.51 2.34l0.1 -4.12c0 -0.29 0.23 -0.78 -0.1 -0.82 -0.24 -0.24 -0.47 0.05 -0.48 0.36 0 0.12 -0.08 0.37 -0.09 0.42 -0.5 4.77 -0.55 4.75 -0.5 5 0.09 0.43 0.48 0.69 1.08 0.46A17 17 0 0 1 10 13.86c2.46 -1.3 3.13 -1.49 3.34 -2.03Z" fill="#4C57E6" stroke-width="1"></path>
    <path d="M19.46 1.22a5.8 5.8 0 0 1 1.91 2.91c0 1.37 -0.67 5.07 -0.76 6.41a0.28 0.28 0 0 0 0.56 0.05c0.14 -1.14 1 -4.92 1.11 -6.44A4.68 4.68 0 0 0 20 0.52c-0.9 -0.45 -1 0.48 -0.54 0.7Z" fill="#4C57E6" fill-rule="evenodd" stroke-width="1"></path>
  </g>
</svg>