<svg xmlns="http://www.w3.org/2000/svg" viewBox="0 0 24 24" id="Video-Player-Monitor--Streamline-Freehand">
  <desc>
    Video Player Monitor Streamline Icon: https://streamlinehq.com
  </desc>
  <g>
    <path d="M14.67 6.45c-1.51 -1 -3.55 -1.62 -4.66 -2.28a0.33 0.33 0 0 0 -0.45 0.1 0.28 0.28 0 0 0 0 0.2 0.29 0.29 0 0 0 -0.27 0.27c-0.06 0.68 -0.1 1.37 -0.12 2.05 0 1 0 2.05 -0.07 3.07a13 13 0 0 0 -0.1 1.38 0.63 0.63 0 0 0 0.4 0.55 1.31 1.31 0 0 0 0.68 0 8.2 8.2 0 0 0 1 -0.35 41.09 41.09 0 0 0 4.71 -2.27 3.22 3.22 0 0 0 0.53 -0.37 0.52 0.52 0 0 0 0.11 -0.65 5.08 5.08 0 0 0 -1.76 -1.7Zm0.59 1.81a49.39 49.39 0 0 1 -4.56 2.19l-0.87 0.33c0 -0.35 0.12 -0.85 0.12 -0.93 0 -1 -0.1 -2 -0.13 -3l0 -2c1.09 0.68 3 1.42 4.35 2.4a4.85 4.85 0 0 1 1.12 1Z" fill="#4C57E6" stroke-width="1"></path>
    <path d="M23.64 4.21A6 6 0 0 0 23 2.26a1.26 1.26 0 0 0 -1 -0.69c-1.65 0 -3.85 0 -6.21 0.06 -1.35 0 -2.76 0.07 -4.14 0.12 -0.16 0 -10.32 0.22 -10.5 0.59a6.89 6.89 0 0 0 -0.54 2.15 33.25 33.25 0 0 0 -0.24 3.79l-0.28 6.08A16 16 0 0 0 0 16a1.91 1.91 0 0 0 0.26 0.9 1.49 1.49 0 0 0 0.8 0.59 5.41 5.41 0 0 0 1.08 0.18c0.41 0 0.81 0.06 1.22 0.08 0.91 0 1.83 0 2.75 0.06a28.84 28.84 0 0 0 2.94 0l1 -0.08c-0.09 0.18 -0.18 0.35 -0.26 0.53 -0.35 0.78 -0.67 1.58 -1 2.37a8.35 8.35 0 0 0 -0.46 1 0.65 0.65 0 0 0 0 0.45 0.53 0.53 0 0 0 0.34 0.31 2.39 2.39 0 0 0 0.42 0.07 4 4 0 0 0 0.6 0 8.33 8.33 0 0 0 0.86 -0.08 26.57 26.57 0 0 1 3.09 -0.38l1.82 0 0 0.12a0.32 0.32 0 0 0 0.63 -0.13 13.94 13.94 0 0 0 -0.32 -1.88 6.82 6.82 0 0 0 -0.23 -0.77q-0.13 -0.39 -0.3 -0.75c-0.21 -0.42 -0.44 -0.81 -0.67 -1.19l8.35 -0.4a0.32 0.32 0 0 0 0.3 -0.33 0.31 0.31 0 0 0 -0.33 -0.31l-9.54 0.18c-1.69 0.06 -3.37 0.19 -5.06 0.23l-2.13 0c-0.92 0 -1.83 0 -2.75 -0.06 -0.38 0 -0.77 0 -1.15 -0.08a6.94 6.94 0 0 1 -0.74 -0.08c-0.14 0 -0.28 -0.07 -0.35 -0.19a1.11 1.11 0 0 1 -0.12 -0.6l0 -1.09a14 14 0 0 1 1.45 -0.13c1.38 -0.06 2.77 0 4.15 0 1.09 0 2.19 -0.05 3.29 -0.09 1.65 0 3.3 -0.09 4.94 -0.16 2.76 -0.11 5.51 -0.28 8.26 -0.53l0.07 0 0 1.28a0.32 0.32 0 1 0 0.64 0c0.05 -0.9 0.4 -7.33 -0.21 -10.83ZM13.39 17.46l0.5 0c0.17 0.59 0.31 1.19 0.5 1.79 0.13 0.39 0.28 0.78 0.44 1.16s0.25 0.62 0.37 0.92a16.48 16.48 0 0 0 -2.1 -0.15 26.46 26.46 0 0 0 -2.66 0.13c-0.21 0 -0.85 0.07 -1 0.06 0.11 -0.18 0.72 -2.05 1 -2.87 0.09 -0.27 0.19 -0.55 0.3 -0.82 0.89 -0.1 1.77 -0.17 2.65 -0.22Zm9.75 -4.38c-2.69 0.12 -5.38 0.11 -8.08 0.13 -1.15 0 -2.31 0 -3.47 0.07 -1.65 0.06 -3.31 0.17 -5 0.29 -1.37 0.13 -2.77 0.13 -4.14 0.28a12.92 12.92 0 0 0 -1.39 0.2l0.06 -5.76a33.52 33.52 0 0 1 0.1 -3.72 11.33 11.33 0 0 1 0.29 -1.68c0.56 -0.06 2 -0.1 3.88 -0.13l8.26 0c3.11 0 6.15 -0.09 8.26 -0.09 0.09 0 0.13 0.09 0.19 0.18a2.91 2.91 0 0 1 0.28 0.61A16.89 16.89 0 0 1 23 7c0.18 2.12 0.22 4.49 0.22 6.11Z" fill="#020202" stroke-width="1"></path>
  </g>
</svg>