<svg xmlns="http://www.w3.org/2000/svg" viewBox="0 0 24 24" id="Video-File-Share--Streamline-Freehand">
  <desc>
    Video File Share Streamline Icon: https://streamlinehq.com
  </desc>
  <g>
    <path d="M23.46 19.79a2.38 2.38 0 0 0 -4 0.55A11 11 0 0 0 17.22 19a13.52 13.52 0 0 1 -1.48 -0.76 2.36 2.36 0 0 0 -0.07 -1.48l0.07 0c2.77 -1.09 0.85 -0.2 3.32 -2a1.75 1.75 0 0 0 0.22 0.43c0.67 0.89 1.14 0.06 0.74 -0.2a1.41 1.41 0 0 1 1.08 -2.29 1.35 1.35 0 0 1 1.32 1.74 1.56 1.56 0 0 1 -1.86 0.87c-0.56 -0.18 -1 0.94 0.8 0.86a2.32 2.32 0 0 0 1.74 -3.82A2.37 2.37 0 0 0 18.89 14c-0.19 0 -1.76 0.78 -1.87 0.83A16 16 0 0 0 15.28 16a2.51 2.51 0 0 0 -2 -0.85 2.37 2.37 0 0 0 -1.77 3.69c0.67 0.88 1.14 0.07 0.75 -0.2a1.39 1.39 0 0 1 1.07 -2.26 1.37 1.37 0 1 1 -0.57 2.62c-0.45 -0.13 -1 0.67 0.28 0.84a2.42 2.42 0 0 0 2.37 -1A6.38 6.38 0 0 0 19.09 21a0.44 0.44 0 0 0 0.15 0 2.49 2.49 0 0 0 0.11 0.91c0.58 1.75 1.56 0.77 1 0.42a1.39 1.39 0 0 1 1.08 -2.26 1.35 1.35 0 0 1 1.32 1.74 1.57 1.57 0 0 1 -1.87 0.87c-0.56 -0.17 -1 0.93 0.8 0.85a2.32 2.32 0 0 0 1.78 -3.74Z" fill="#020202" stroke-width="1"></path>
    <g>
      <path d="M8.29 18.35c-1.72 0 -5.44 0.51 -7.15 -0.36a10.27 10.27 0 0 0 1 -3.85c0.21 -1.84 1 -12.08 1 -12a4.11 4.11 0 0 1 1 -0.21c4.8 -0.89 5.82 -1 6.74 -0.7 0.45 0.17 1.11 -0.84 -1.3 -0.81 -0.55 0 -5.75 0.49 -6.57 0.73a1 1 0 0 0 -0.79 0.66C2 2.21 1.21 12 0.94 14.48a8.71 8.71 0 0 1 -0.69 3c-0.1 0.24 -0.52 0.82 0 1.18 1.93 1.3 5.93 0.48 8 0.44a0.36 0.36 0 0 0 0.04 -0.75Z" fill="#020202" stroke-width="1"></path>
      <path d="M12.08 5.64c0.9 0.6 4 0.56 4.83 0.3 -0.08 1.25 -0.11 0.23 0.17 4.61a0.32 0.32 0 0 0 0.63 0L18 7c0 -0.66 0.38 -1.83 0 -2.64a4.79 4.79 0 0 0 -1.61 -1.45l-2.47 -2c-0.74 -0.46 -1 0.67 -1.21 1.07 -0.45 0.71 -2.02 2.74 -0.63 3.66Zm1.5 -4.08 2.06 2.12c0.75 0.72 1.24 0.89 1.28 1.46a12.29 12.29 0 0 1 -3.48 -0.29c-1.29 -0.28 -0.85 -0.16 0.14 -3.29Z" fill="#020202" stroke-width="1"></path>
      <path d="M12.49 12.2c0.29 -0.76 -0.44 -1.27 -1 -1.74a20.19 20.19 0 0 0 -3.74 -2.32 0.35 0.35 0 1 0 -0.34 0.62 18 18 0 0 1 3.41 2.45 7 7 0 0 1 0.65 0.52A38.86 38.86 0 0 0 7 14.06l0.09 -4.12c0 -0.29 0.23 -0.78 -0.09 -0.81 -0.25 -0.25 -0.47 0 -0.48 0.36a4.12 4.12 0 0 0 -0.09 0.42c-0.5 4.77 -0.55 4.75 -0.5 5 0.08 0.44 0.47 0.7 1.07 0.46 0.11 0 -0.36 0.16 2.13 -1.14s3.15 -1.49 3.36 -2.03Z" fill="#4C57E6" stroke-width="1"></path>
      <path d="M18.6 1.6a5.8 5.8 0 0 1 1.91 2.91c0 1.37 -0.53 4.71 -0.62 6a0.28 0.28 0 1 0 0.56 0.06c0.13 -1.14 0.89 -4.56 1 -6.08a4.75 4.75 0 0 0 -2.28 -3.6c-0.93 -0.45 -1.02 0.46 -0.57 0.71Z" fill="#4C57E6" fill-rule="evenodd" stroke-width="1"></path>
    </g>
  </g>
</svg>