<svg xmlns="http://www.w3.org/2000/svg" viewBox="0 0 24 24" id="Vintage-Tv-3--Streamline-Freehand">
  <desc>
    Vintage Tv 3 Streamline Icon: https://streamlinehq.com
  </desc>
  <g>
    <path d="M23 3.9a3.37 3.37 0 0 0 -0.63 -2.07c-0.54 -0.56 -1.74 -0.39 -2.28 -0.42a129.21 129.21 0 0 0 -15.45 0.2C1.3 2 0.28 1.15 0 10.71a55.46 55.46 0 0 0 0.12 6.45c0 0.56 0 1.75 0.44 2.25a1.48 1.48 0 0 0 1.52 0c0.12 -0.24 0 -0.52 -0.5 -0.53s-0.59 0.3 -0.69 -0.55a73.35 73.35 0 0 1 0.3 -12.76c0.43 -3.1 1 -2.76 3.53 -3A149.89 149.89 0 0 1 20 2.53c1.63 0.12 1.66 -0.46 1.86 1.48 0.66 6.26 0.83 6.72 1 8.7 0.11 1.62 0.1 4.46 0.07 4.77a1.29 1.29 0 0 1 -1 1.33c-1.51 0.54 -2.27 -0.16 -2.64 1.07 -0.11 0.38 -0.21 1.33 -0.34 1.38 -0.35 0.16 -0.89 0 -11.92 0.55 -0.58 0 -2.33 0.51 -2.73 0.13s-0.69 -2.25 -1.07 -2.32a0.32 0.32 0 0 0 -0.35 0.42c0 0.15 0.17 0.49 0.23 0.67a9.55 9.55 0 0 0 0.39 1.18c0.69 1.39 2.34 0.65 3.56 0.61 9 -0.31 11.28 -0.23 11.74 -0.28a1.13 1.13 0 0 0 1.05 -0.69c0.14 -0.31 0.32 -1.43 0.38 -1.5a5.14 5.14 0 0 0 0.75 0c3.44 -0.45 3 -2.17 3.05 -4.21 0.09 -3.51 -0.46 -6.59 -1.03 -11.92Z" fill="#020202" stroke-width="1"></path>
    <path d="M8.8 18.12c-2.6 -0.17 -2.58 -0.16 -3 -0.05 -1.12 0.32 -1.51 2.26 -0.25 2.71a5.51 5.51 0 0 0 4.15 -0.15 1.52 1.52 0 0 0 -0.31 -2.42 2.73 2.73 0 0 0 -0.59 -0.09Zm0.38 1.59a6.15 6.15 0 0 1 -3.3 0.08c-0.28 -0.08 -0.26 -0.88 0.27 -1a2.88 2.88 0 0 1 0.85 0.01c0.6 0.16 1.14 0 1.67 0.14s0.46 0.07 0.5 0.39c0.03 0.16 -0.01 0.4 0.01 0.38Z" fill="#020202" stroke-width="1"></path>
    <path d="M14.2 19.79c0.81 0 0.52 0 1.27 -0.31a0.34 0.34 0 0 0 -0.06 -0.67c-1.12 -0.22 -0.64 -0.13 -1.24 -0.1 -0.11 0.05 -0.54 0.13 -0.64 0.18 -0.93 0.5 0.6 0.88 0.67 0.9Z" fill="#020202" stroke-width="1"></path>
    <path d="M16.38 19c-0.13 0.26 0.78 0.63 0.79 0.64 0.42 0 0.35 0.08 1 -0.28a0.33 0.33 0 0 0 -0.09 -0.66 5.18 5.18 0 0 0 -0.56 -0.17c-0.06 0.02 -0.89 0.02 -1.14 0.47Z" fill="#020202" stroke-width="1"></path>
    <path d="M4.49 7.31a11 11 0 0 1 1 -2.47s-0.34 -0.43 -0.56 -0.12C3.28 6.94 2.61 13 4.6 16.46c0.77 1.33 9.36 1 10.86 0.9s2.91 -0.17 3.63 -1.56c1.21 -2.32 1.16 -4.81 0.79 -7.4 -0.07 -0.5 -0.58 -3.11 -1.05 -3.46C17.54 4 8.2 4.21 6.41 4.21c-0.42 0 -0.47 0.7 0 0.7 7.92 0.09 6.56 0 9.49 0.33a15.53 15.53 0 0 1 2.28 0.41c0 0.26 0 -0.53 0.46 1.64 0.51 2.44 0.67 5.67 -0.55 8a1.39 1.39 0 0 1 -0.76 0.66c-1.19 0.48 -10.23 0.71 -11.94 0 -1.39 -2.34 -1.48 -6.19 -0.9 -8.64Z" fill="#4C57E6" stroke-width="1"></path>
  </g>
</svg>