<svg xmlns="http://www.w3.org/2000/svg" viewBox="0 0 24 24" id="Vip-Rectangle--Streamline-Freehand">
  <desc>
    Vip Rectangle Streamline Icon: https://streamlinehq.com
  </desc>
  <g>
    <path d="M24 10.31A18.61 18.61 0 0 0 23.48 6a1.87 1.87 0 0 0 -0.81 -1.2 34 34 0 0 0 -6.4 -0.15c-5.81 0.15 -13.68 0.6 -14.48 0.75a0.3 0.3 0 0 0 -0.24 0.35 0.3 0.3 0 0 0 0.35 0.25c0.7 -0.12 6.91 -0.35 12.32 -0.43 4 -0.05 7.53 -0.06 8 0.17 0.13 0.06 0.15 0.28 0.23 0.56a17.68 17.68 0 0 1 0.4 4 49.09 49.09 0 0 1 -0.26 6.17 9.48 9.48 0 0 1 -0.17 1 0.66 0.66 0 0 1 0 0.15 8.72 8.72 0 0 1 -0.9 0.19 106.31 106.31 0 0 1 -11.81 0.43 56 56 0 0 1 -7.83 -0.43 3.5 3.5 0 0 1 -0.6 -0.17 2.05 2.05 0 0 1 -0.19 -0.64 23.87 23.87 0 0 1 -0.29 -3.58 64.84 64.84 0 0 1 0.25 -6.91 0.36 0.36 0 0 0 -0.29 -0.39 0.36 0.36 0 0 0 -0.39 0.3A67.17 67.17 0 0 0 0 14.6a8.35 8.35 0 0 0 0.6 3.69 2.58 2.58 0 0 0 1.29 0.49 73.06 73.06 0 0 0 10 0.57 82.24 82.24 0 0 0 10 -0.39 2.55 2.55 0 0 0 1.41 -0.5 2.56 2.56 0 0 0 0.35 -1 42.67 42.67 0 0 0 0.35 -7.15Z" fill="#4C57E6" fill-rule="evenodd" stroke-width="1"></path>
    <path d="M6.41 15.38a2.6 2.6 0 0 0 1.74 -1.5 10.63 10.63 0 0 0 1.27 -4.3 0.33 0.33 0 0 0 -0.33 -0.35 0.35 0.35 0 0 0 -0.35 0.34 9.23 9.23 0 0 1 -0.94 2.74 8.43 8.43 0 0 1 -0.91 1.45c-0.5 0.62 -0.53 0.62 -0.92 0.05a7.91 7.91 0 0 1 -0.77 -1.43 14.29 14.29 0 0 1 -0.9 -2.66 0.3 0.3 0 0 0 -0.3 -0.28 0.31 0.31 0 0 0 -0.28 0.32 14.18 14.18 0 0 0 1 4.1A3.67 3.67 0 0 0 5.53 15a1.16 1.16 0 0 0 0.88 0.38Z" fill="#020202" fill-rule="evenodd" stroke-width="1"></path>
    <path d="M11.7 12.46c0 0.29 0 0.58 0.05 0.86 0.08 0.81 0.21 1.55 0.29 2a0.34 0.34 0 0 0 0.36 0.32 0.34 0.34 0 0 0 0.32 -0.36c0 -0.48 0.08 -1.2 0.11 -2l0 -0.86 0 -0.85c-0.08 -0.86 -0.21 -1.59 -0.25 -2a0.3 0.3 0 0 0 -0.3 -0.31 0.29 0.29 0 0 0 -0.3 0.29 17.84 17.84 0 0 0 -0.25 2 8.35 8.35 0 0 0 -0.03 0.91Z" fill="#020202" fill-rule="evenodd" stroke-width="1"></path>
    <path d="M18.82 12.59a1.85 1.85 0 0 0 1.23 -1.8 2.32 2.32 0 0 0 -1.85 -2 3.89 3.89 0 0 0 -2.11 0.05 1.23 1.23 0 0 0 -0.7 0.5 2.18 2.18 0 0 0 -0.05 0.87c0.12 1.22 0.61 4 0.57 5a0.3 0.3 0 0 0 0.27 0.33 0.29 0.29 0 0 0 0.33 -0.27 15.77 15.77 0 0 0 0 -2.27 4.7 4.7 0 0 0 2.31 -0.41Zm-2.31 -0.3c0 -0.77 -0.06 -1.52 -0.07 -2l0 -0.34 0.32 -0.05a2.83 2.83 0 0 1 1.53 0.15A1.23 1.23 0 0 1 19 11c0.09 0.45 -0.39 0.79 -1 1a3.91 3.91 0 0 1 -1.49 0.29Z" fill="#020202" fill-rule="evenodd" stroke-width="1"></path>
  </g>
</svg>