<svg xmlns="http://www.w3.org/2000/svg" viewBox="0 0 24 24" id="Vip-Crown-1--Streamline-Freehand">
  <desc>
    Vip Crown 1 Streamline Icon: https://streamlinehq.com
  </desc>
  <g>
    <path d="M21.87 8.85a3.56 3.56 0 0 0 -3.81 0.66 6.07 6.07 0 0 0 -3.75 -2.86c-0.94 -0.26 -5.88 -0.94 -8.06 2.77a3.3 3.3 0 0 0 -2.36 -1.21 3.05 3.05 0 0 0 -2.63 1.3 6.44 6.44 0 0 0 -1.21 3 7.05 7.05 0 0 0 0.38 3.2 9.61 9.61 0 0 0 3.67 4.78 0.29 0.29 0 0 0 0.3 0.29c0.65 0 2.91 0.18 5.54 0.25l2.38 0 2.38 0c2.6 -0.07 4.82 -0.18 5.5 -0.22a0.33 0.33 0 0 0 0.33 -0.07 13.13 13.13 0 0 0 2.39 -3.91A12.15 12.15 0 0 0 24 12.3a3.77 3.77 0 0 0 -2.13 -3.45Zm0.13 7.61a13.58 13.58 0 0 1 -1.83 3.65c-0.71 0 -2.9 -0.11 -5.46 -0.17l-2.38 0 -2.38 0c-2.28 0.06 -4.28 0.17 -5.2 0.22 0 -0.05 0 -0.11 -0.11 -0.14a8.88 8.88 0 0 1 -3.18 -4.63 6.77 6.77 0 0 1 -0.26 -2.73 5.69 5.69 0 0 1 0.92 -2.56A2.15 2.15 0 0 1 3.88 9a2.57 2.57 0 0 1 2 0.91S6 10 6 10s-0.11 0.2 -0.15 0.31a7.68 7.68 0 0 0 0.75 7 0.3 0.3 0 0 0 0.51 -0.32 7 7 0 0 1 -0.39 -6.29 5.35 5.35 0 0 1 5.05 -3.18c2.84 -0.12 4.69 1.07 5.6 2.75a6.49 6.49 0 0 1 -0.37 6.39 0.35 0.35 0 0 0 0.09 0.47 0.35 0.35 0 0 0 0.48 -0.09 7.31 7.31 0 0 0 0.74 -7s0.06 0 0.08 0a2.7 2.7 0 0 1 4.45 2.35 11.49 11.49 0 0 1 -0.84 4.07Z" fill="#020202" fill-rule="evenodd" stroke-width="1"></path>
    <path d="M14 5.79a6.65 6.65 0 0 0 1.24 -1 2 2 0 0 0 0.57 -1.52 2.94 2.94 0 0 0 -1.38 -2.05 4.06 4.06 0 0 0 -2.3 -0.67 4.18 4.18 0 0 0 -2.34 0.82 2.83 2.83 0 0 0 -1.22 2.24 2.31 2.31 0 0 0 1 1.83 2.05 2.05 0 0 0 0.74 0.48A5.76 5.76 0 0 0 14 5.79ZM13.21 5a0.35 0.35 0 0 0 -0.22 0.08 12.12 12.12 0 0 0 -1.24 -0.06c-0.29 0 -0.56 0 -0.83 0.09a2 2 0 0 1 -0.92 -0.43 1.41 1.41 0 0 1 -0.5 -1.16 1.82 1.82 0 0 1 0.92 -1.28 3 3 0 0 1 1.66 -0.54 3 3 0 0 1 1.66 0.38 1.9 1.9 0 0 1 1 1.2 1.32 1.32 0 0 1 -0.46 1 2 2 0 0 1 -1.07 0.72Z" fill="#4C57E6" fill-rule="evenodd" stroke-width="1"></path>
    <path d="M20 22.39c-0.67 0 -2.87 -0.06 -5.42 -0.09l-2.33 0c-0.79 0 -1.57 0 -2.32 0.05 -2.6 0.1 -4.82 0.24 -5.4 0.23a0.29 0.29 0 0 0 -0.32 0.27 0.31 0.31 0 0 0 0.28 0.33c0.58 0.07 2.82 0.21 5.45 0.26l2.33 0c0.79 0 1.57 0 2.32 -0.07 2.56 -0.1 4.77 -0.25 5.43 -0.3a0.34 0.34 0 0 0 0 -0.68Z" fill="#020202" fill-rule="evenodd" stroke-width="1"></path>
  </g>
</svg>