<svg xmlns="http://www.w3.org/2000/svg" viewBox="0 0 24 24" id="Virtual-Reality-Vr-360--Streamline-Freehand">
  <desc>
    Virtual Reality Vr 360 Streamline Icon: https://streamlinehq.com
  </desc>
  <g>
    <path d="m19.32 9.82 -0.16 -0.55 -0.54 -1.5a6 6 0 0 0 -0.69 -1.41 1.85 1.85 0 0 0 -1.09 -0.69 1.08 1.08 0 0 0 -0.69 0.14c-0.34 0.18 -0.75 0.66 -1 0.76a3.87 3.87 0 0 1 -1.07 0.13l-1.88 0 -1.88 0a4.31 4.31 0 0 1 -1.1 -0.13c-0.24 -0.08 -0.29 -0.27 -0.39 -0.39a1.17 1.17 0 0 0 -0.33 -0.3 1.07 1.07 0 0 0 -0.9 0 2.77 2.77 0 0 0 -1.2 1 8.67 8.67 0 0 0 -1.81 6.44 3.51 3.51 0 0 0 0.8 2.18 7.37 7.37 0 0 0 3.33 0.86 34.2 34.2 0 0 0 4.7 0.15 17.38 17.38 0 0 0 4.22 -0.57 2.25 2.25 0 0 0 1.16 -0.68 4.13 4.13 0 0 0 0.72 -2.26 17.81 17.81 0 0 0 -0.2 -3.18ZM6.85 7.67a2.2 2.2 0 0 1 1 -0.84S8 6.93 8 7a1.6 1.6 0 0 0 0.79 0.7 5.13 5.13 0 0 0 1.44 0.27l2 0 1.93 0a4.89 4.89 0 0 0 1.43 -0.29 2.91 2.91 0 0 0 0.66 -0.49c0.63 -0.6 0.79 -0.38 1 -0.18a4.78 4.78 0 0 1 0.64 1.12l0.5 1.14c-0.45 -0.06 -0.9 -0.1 -1.34 -0.12 -1 -0.05 -2.09 0 -3.12 -0.09 -0.73 0 -1.48 -0.09 -2.23 -0.11s-1.5 0 -2.25 0a24 24 0 0 0 -3.63 0.44 16.21 16.21 0 0 1 1.03 -1.72Zm11.74 5.21a3.14 3.14 0 0 1 -0.59 1.64c-0.16 0.19 -0.57 0.26 -1.11 0.36a23.86 23.86 0 0 1 -3.48 0.25A49.58 49.58 0 0 1 8.05 15a13.4 13.4 0 0 1 -1.54 -0.19 1.3 1.3 0 0 1 -0.39 -0.09 2.62 2.62 0 0 1 -0.68 -1.56 11.84 11.84 0 0 1 0.17 -3c0.66 0 1.33 -0.09 2 -0.09 1 0 2.06 0.08 3.09 0.11s2.11 0 3.13 0 2.09 -0.16 3.14 -0.2l1.3 0a0.36 0.36 0 0 0 0.27 -0.08 14.43 14.43 0 0 1 0.05 2.98Z" fill="#020202" fill-rule="evenodd" stroke-width="1"></path>
    <path d="M7.93 6.83H8Z" fill="#020202" fill-rule="evenodd" stroke-width="1"></path>
    <path d="M8 19.56a1.56 1.56 0 0 0 0.07 -0.85A1.34 1.34 0 0 0 6 17.8a4.42 4.42 0 0 0 -0.6 0.34 3.24 3.24 0 0 0 -0.53 0.45 0.32 0.32 0 0 0 0 0.47 0.33 0.33 0 0 0 0.47 0 4.2 4.2 0 0 1 0.48 -0.3 3 3 0 0 1 0.52 -0.2c0.35 -0.11 0.58 0 0.67 0.14s0 0.53 -0.38 0.66l-0.22 0.05c-1.85 0.63 -1.17 1.54 0.3 1.25s0.14 0 0.19 0h0.39a1.1 1.1 0 0 1 0.49 0.23 0.72 0.72 0 0 1 0.26 0.36 0.74 0.74 0 0 1 -0.42 0.78 1.49 1.49 0 0 1 -1.21 0.14 0.37 0.37 0 0 0 -0.5 0.18 0.38 0.38 0 0 0 0.18 0.51 2.39 2.39 0 0 0 2.3 -0.16 1.68 1.68 0 0 0 0.79 -1.6 1.8 1.8 0 0 0 -0.56 -1.1 2.52 2.52 0 0 0 -0.62 -0.44Z" fill="#020202" fill-rule="evenodd" stroke-width="1"></path>
    <path d="m12.91 21.06 -0.68 -0.27 -0.86 -0.07 0 -0.13a3.45 3.45 0 0 1 0.18 -0.57 4.89 4.89 0 0 1 0.35 -0.77 4.82 4.82 0 0 1 0.48 -0.7 0.33 0.33 0 1 0 -0.47 -0.47 5.09 5.09 0 0 0 -0.68 0.71 7.62 7.62 0 0 0 -0.56 0.8 5.46 5.46 0 0 0 -0.32 0.64 3.62 3.62 0 0 0 -0.24 0.7 3.33 3.33 0 0 0 -0.1 0.55 2.7 2.7 0 0 0 0 0.57 1.6 1.6 0 0 0 2.28 1.48c0.8 -0.29 1.38 -1.05 1.19 -1.7a1.23 1.23 0 0 0 -0.57 -0.77Zm-0.52 1.08a1 1 0 0 1 -0.69 0.24c-0.21 0 -0.37 -0.14 -0.4 -0.45v-0.44l0.68 0.14 0.38 0.21a0.41 0.41 0 0 1 0.13 0.18c0.02 0.06 -0.06 0.08 -0.1 0.12Z" fill="#020202" fill-rule="evenodd" stroke-width="1"></path>
    <path d="M15 19.1a2.86 2.86 0 0 0 -0.72 1.32 3 3 0 0 0 0.5 2.11 2 2 0 0 0 1.45 0.84 2.33 2.33 0 0 0 2.3 -2.22c0.22 -2.15 -1.87 -3.76 -3.53 -2.05Zm2.44 1.9c-0.13 0.6 -0.52 1.16 -1.18 1.1 -0.27 0 -0.47 -0.24 -0.63 -0.5a1.8 1.8 0 0 1 -0.34 -1 1.71 1.71 0 0 1 0.33 -0.92c1.18 -1.68 2.05 0.21 1.82 1.32Z" fill="#020202" fill-rule="evenodd" stroke-width="1"></path>
    <path d="M23 7.59C21.11 3.29 16.81 0 12.1 0.38A15.27 15.27 0 0 0 6 2.44 11.5 11.5 0 0 0 1.45 7.1a11.52 11.52 0 0 0 -1.31 7.1 11.74 11.74 0 0 0 3.61 6.19 0.34 0.34 0 0 0 0.48 0 0.35 0.35 0 0 0 0 -0.48A11 11 0 0 1 1 14.06 10.53 10.53 0 0 1 2.44 7.6 10.35 10.35 0 0 1 6.6 3.52a14.61 14.61 0 0 1 5.62 -1.86c4.21 -0.45 8 2.56 9.78 6.37s1.46 8.29 -2.47 11.28a0.38 0.38 0 0 0 -0.08 0.53 0.37 0.37 0 0 0 0.53 0.08c4.4 -3.18 4.82 -8.18 3.02 -12.33Z" fill="#4C57E6" fill-rule="evenodd" stroke-width="1"></path>
    <path d="M7.77 11.29a0.34 0.34 0 1 0 -0.67 0 4.71 4.71 0 0 0 -0.32 0.81 1.37 1.37 0 0 0 0 0.36 1.47 1.47 0 0 0 0 0.36 4.71 4.71 0 0 0 0.22 0.78 0.38 0.38 0 1 0 0.76 -0.08c0 -0.27 0.14 -0.5 0.18 -0.77a1.86 1.86 0 0 0 0 -0.33 1.22 1.22 0 0 0 0 -0.33c0.06 -0.28 -0.09 -0.51 -0.17 -0.8Z" fill="#020202" fill-rule="evenodd" stroke-width="1"></path>
    <path d="M16.85 11.55a0.34 0.34 0 0 0 -0.32 -0.35 0.32 0.32 0 0 0 -0.35 0.32 5.24 5.24 0 0 0 -0.31 0.68 0.92 0.92 0 0 0 0 0.29 1.53 1.53 0 0 0 0 0.3c0 0.25 0.12 0.45 0.18 0.7a0.38 0.38 0 1 0 0.76 0c0.09 -0.24 0.19 -0.43 0.26 -0.68a1.5 1.5 0 0 0 0.06 -0.29 1.51 1.51 0 0 0 0 -0.3 5.83 5.83 0 0 0 -0.28 -0.67Z" fill="#020202" fill-rule="evenodd" stroke-width="1"></path>
  </g>
</svg>