<svg xmlns="http://www.w3.org/2000/svg" viewBox="0 0 24 24" id="Virtual-Reality-Vr-User-Box-Human--Streamline-Freehand">
  <desc>
    Virtual Reality Vr User Box Human Streamline Icon: https://streamlinehq.com
  </desc>
  <g>
    <path d="M4.18 7.63a2.34 2.34 0 0 0 0.74 -0.53 15 15 0 0 0 1.67 1.16A15.38 15.38 0 0 0 8.06 9c0.67 0.29 1.36 0.55 2 0.84a1.83 1.83 0 0 0 0.47 1.55 2.46 2.46 0 0 0 1 0.64 3.51 3.51 0 0 0 -0.15 0.49 2.42 2.42 0 0 0 0 0.47 3.88 3.88 0 0 0 0 0.48 10.12 10.12 0 0 0 0.25 1.09 0.39 0.39 0 1 0 0.77 0c0.06 -0.37 0.16 -0.71 0.21 -1.08a3.42 3.42 0 0 0 0 -0.45 2.33 2.33 0 0 0 0 -0.46c0 -0.13 -0.05 -0.25 -0.08 -0.37a2.44 2.44 0 0 0 0.66 -0.15 1.85 1.85 0 0 0 1.11 -2.32c0.63 -0.29 1.27 -0.52 1.91 -0.79 0.45 -0.19 0.9 -0.37 1.34 -0.59 0.76 -0.35 1.45 -0.84 2.12 -1.26a2.51 2.51 0 0 0 1.12 0.66 2.11 2.11 0 0 0 0.25 0c-0.09 0.78 -0.21 1.54 -0.27 2.32l0 1.06 0 1.06c0.06 0.83 0.18 1.65 0.3 2.48a0.38 0.38 0 0 0 0.41 0.37 0.39 0.39 0 0 0 0.37 -0.41c0 -0.84 0.13 -1.67 0.16 -2.52l0 -1.69c-0.05 -0.9 -0.18 -1.78 -0.28 -2.67a2.78 2.78 0 0 0 0.5 -0.11 1.9 1.9 0 0 0 0.9 -2.85 1.94 1.94 0 0 0 -2.7 -0.76l-0.71 0.52c-0.51 -0.35 -1 -0.71 -1.56 -1a9.94 9.94 0 0 0 -0.92 -0.47c-0.3 -0.15 -0.61 -0.28 -0.94 -0.41 -0.65 -0.26 -1.3 -0.49 -2 -0.74a2.12 2.12 0 0 0 -0.29 -0.9c-1.31 -2.22 -3.77 -0.3 -4.01 0.66 -0.7 0.23 -1.4 0.46 -2.09 0.73 -0.36 0.15 -0.72 0.3 -1.07 0.47s-0.7 0.35 -1 0.54S5 4 4.59 4.21C2.81 2.73 1.09 5.19 1 5.44A1.79 1.79 0 0 0 1.5 7a2.36 2.36 0 0 0 0.55 0.45c-0.05 0.71 -0.12 1.34 -0.15 1.91l0 1.11 0 1.12c0 0.39 0.1 1.13 0.16 1.8a1.69 1.69 0 0 0 -0.4 0.13c-1.2 0.59 -1.31 1.23 -1.35 1.42a1.78 1.78 0 0 0 0.47 1.55 2.52 2.52 0 0 0 1.22 0.73 2.35 2.35 0 0 0 1.46 -0.1c0.09 0 0.13 -0.1 0.2 -0.14 0.22 0.2 0.42 0.4 0.66 0.59a8.32 8.32 0 0 0 0.68 0.53 7.22 7.22 0 0 0 0.72 0.46 18.52 18.52 0 0 0 1.81 0.91 0.35 0.35 0 0 0 0.48 -0.1 0.34 0.34 0 0 0 -0.09 -0.47 17.07 17.07 0 0 0 -1.48 -1.36 7.71 7.71 0 0 0 -0.7 -0.54c-0.23 -0.16 -0.47 -0.31 -0.72 -0.46l-0.61 -0.34a1.89 1.89 0 0 0 0 -2A2.16 2.16 0 0 0 3 13.3c0.09 -0.62 0.16 -1.2 0.2 -1.71s0 -0.75 0 -1.12 0 -0.74 -0.05 -1.13S3 8.33 3 7.75a2.33 2.33 0 0 0 1.18 -0.12Zm8.58 3.19a1.21 1.21 0 0 1 -0.68 0 1.34 1.34 0 0 1 -0.67 -0.31 0.73 0.73 0 0 1 -0.32 -0.56 0.7 0.7 0 0 1 0.38 -0.58c0.71 -0.29 1.27 -0.67 1.72 0.29a0.77 0.77 0 0 1 -0.43 1.16ZM20.48 5l0.68 -0.27s0.62 -0.34 1.05 0.56a0.76 0.76 0 0 1 -0.43 1.11 1.22 1.22 0 0 1 -0.68 0 1.51 1.51 0 0 1 -0.68 -0.31 0.72 0.72 0 0 1 -0.31 -0.57ZM11.4 1.25c0.73 -0.29 1.27 -0.67 1.73 0.29a0.77 0.77 0 0 1 -0.44 1.12 1.13 1.13 0 0 1 -0.68 0 1.42 1.42 0 0 1 -0.67 -0.31 0.69 0.69 0 0 1 -0.29 -0.64 0.75 0.75 0 0 1 0.35 -0.46ZM6.73 4.43A17.29 17.29 0 0 0 8.4 3.6c0.59 -0.31 1.17 -0.64 1.76 -1a1.81 1.81 0 0 0 0.34 0.6 2.47 2.47 0 0 0 1.21 0.8 2.35 2.35 0 0 0 1.46 -0.1 1.94 1.94 0 0 0 1.06 -1.1c0.52 0.33 1 0.66 1.58 1 0.29 0.17 0.6 0.33 0.9 0.48s0.62 0.29 0.93 0.41c0.53 0.21 1.06 0.39 1.58 0.58a2.4 2.4 0 0 0 -0.11 0.23 1.53 1.53 0 0 0 0.17 1c-0.64 0.19 -1.28 0.34 -1.92 0.56a6.63 6.63 0 0 0 -0.87 0.36c-0.28 0.13 -0.56 0.28 -0.83 0.44A15.58 15.58 0 0 0 14 9c-1.48 -1.92 -3.44 0.06 -3.48 0.1 -0.6 -0.41 -1.2 -0.82 -1.83 -1.19a9.84 9.84 0 0 0 -0.9 -0.5c-0.3 -0.16 -0.61 -0.3 -0.92 -0.43 -0.5 -0.22 -1 -0.41 -1.52 -0.62A1.94 1.94 0 0 0 5.17 5c0.52 -0.19 1.05 -0.35 1.56 -0.57ZM3.41 14.79c0.47 1 -1.09 1.17 -1.12 1.16a1.42 1.42 0 0 1 -0.67 -0.31 0.64 0.64 0 0 1 0.06 -1.14c1.26 -0.5 1.58 0 1.73 0.29ZM2.35 6.15A0.75 0.75 0 0 1 2 5.59c0.14 -2.15 3.46 0.2 1.67 0.83a1.13 1.13 0 0 1 -0.68 0 1.34 1.34 0 0 1 -0.64 -0.27Z" fill="#4C57E6" fill-rule="evenodd" stroke-width="1"></path>
    <path d="M23.3 16.4c-1.49 -0.16 -3.09 -0.3 -4.74 -0.35l-2 0c-0.65 0 -1.36 0.05 -2 0.11 -1.66 0.14 -3.25 0.39 -4.71 0.63a0.34 0.34 0 0 0 -0.3 0.38 0.33 0.33 0 0 0 0.37 0.3c1.66 -0.08 3.48 0 5.37 -0.07 1.06 0 2.14 -0.07 3.2 -0.1 1.43 -0.05 2.81 -0.1 4.13 -0.1a21.22 21.22 0 0 1 0.23 3 2.85 2.85 0 0 1 -0.39 1.71 2.63 2.63 0 0 1 -1.33 0.82 3.15 3.15 0 0 1 -1.49 0c0 0.06 -0.17 -0.14 -0.3 -0.26a24.52 24.52 0 0 0 -1.88 -1.64 1.34 1.34 0 0 0 -1.46 -0.24c-0.45 0.3 -1.21 0.95 -1.9 1.45a6.28 6.28 0 0 1 -0.75 0.51 4 4 0 0 1 -1.51 0.14 2.79 2.79 0 0 1 -1.46 -0.3c-0.31 -0.25 -0.37 -0.86 -0.4 -1.52a26.38 26.38 0 0 1 0.16 -3 0.35 0.35 0 0 0 -0.32 -0.37 0.34 0.34 0 0 0 -0.37 0.31 22 22 0 0 0 -0.33 3.56 2.5 2.5 0 0 0 0.6 1.73 3.72 3.72 0 0 0 2 0.68 5.3 5.3 0 0 0 2.14 -0.15 7 7 0 0 0 1 -0.59c0.58 -0.42 1.23 -0.95 1.67 -1.27a16.6 16.6 0 0 1 1.87 1.56 2.6 2.6 0 0 0 0.81 0.54 4.2 4.2 0 0 0 2.21 -0.13 3.66 3.66 0 0 0 1.82 -1.26 3.3 3.3 0 0 0 0.51 -1.81c-0.01 -0.25 -0.2 -4.25 -0.45 -4.27Zm-6.91 5.35 0.05 0c-0.02 0.06 -0.07 0.06 -0.05 0Z" fill="#020202" fill-rule="evenodd" stroke-width="1"></path>
  </g>
</svg>