<svg xmlns="http://www.w3.org/2000/svg" viewBox="0 0 24 24" id="Voice-Id-Lock--Streamline-Freehand">
  <desc>
    Voice Id Lock Streamline Icon: https://streamlinehq.com
  </desc>
  <g>
    <path d="M7.19 12.42a0.33 0.33 0 0 0 -0.37 0.28c-0.15 0.51 -0.32 1 -0.42 1.51a4.93 4.93 0 0 0 -0.07 0.66 5 5 0 0 0 0 0.67 13.26 13.26 0 0 0 0.21 1.54 0.37 0.37 0 0 0 0.38 0.36 0.38 0.38 0 0 0 0.36 -0.38c0.06 -0.5 0.15 -1 0.21 -1.49 0 -0.21 0.06 -0.42 0.07 -0.63s0 -0.43 0 -0.64c0 -0.52 -0.09 -1 -0.12 -1.52a0.33 0.33 0 0 0 -0.25 -0.36Z" fill="#4C57E6" fill-rule="evenodd" stroke-width="1"></path>
    <path d="M10 11a0.33 0.33 0 0 0 -0.35 0.31c-0.15 1 -0.34 2.07 -0.45 3.11 -0.05 0.45 -0.09 0.89 -0.12 1.34s0 0.9 0 1.35l0 3.14a0.37 0.37 0 1 0 0.74 0c0.12 -1 0.27 -2.07 0.39 -3.12 0 -0.44 0.09 -0.89 0.11 -1.33s0.06 -0.9 0.06 -1.35c0 -1 -0.06 -2.09 -0.08 -3.14A0.35 0.35 0 0 0 10 11Z" fill="#4C57E6" fill-rule="evenodd" stroke-width="1"></path>
    <path d="M12.34 12.9a0.33 0.33 0 0 0 -0.33 0.33c-0.08 0.54 -0.19 1 -0.26 1.59l0 0.68 0 0.68c0 0.54 0.11 1.06 0.16 1.6a0.38 0.38 0 0 0 0.37 0.38 0.37 0.37 0 0 0 0.38 -0.36c0.09 -0.53 0.19 -1.05 0.26 -1.59q0 -0.35 0.06 -0.69l0 -0.69c-0.06 -0.55 -0.18 -1.07 -0.28 -1.61a0.32 0.32 0 0 0 -0.36 -0.32Z" fill="#4C57E6" fill-rule="evenodd" stroke-width="1"></path>
    <path d="M15.58 9.9a0.34 0.34 0 0 0 -0.36 0.3c-0.2 1.43 -0.4 2.83 -0.49 4.26 -0.06 0.85 -0.06 1.71 -0.05 2.56 0 1.28 0.09 2.55 0.12 3.83a0.37 0.37 0 0 0 0.35 0.39 0.36 0.36 0 0 0 0.38 -0.36c0.13 -1.24 0.25 -2.48 0.33 -3.72 0 -0.54 0.06 -1.07 0.08 -1.6S16 14.5 16 14c0 -1.24 -0.09 -2.47 -0.08 -3.72a0.33 0.33 0 0 0 -0.34 -0.38Z" fill="#4C57E6" fill-rule="evenodd" stroke-width="1"></path>
    <path d="M17.78 13.08a0.32 0.32 0 0 0 -0.33 0.32c-0.1 0.49 -0.23 1 -0.3 1.46l0 0.63 0 0.63c0.05 0.5 0.13 1 0.2 1.46a0.37 0.37 0 0 0 0.36 0.38 0.38 0.38 0 0 0 0.38 -0.36c0.08 -0.5 0.18 -1 0.24 -1.47l0 -0.63 0 -0.62c-0.06 -0.5 -0.17 -1 -0.25 -1.47a0.31 0.31 0 0 0 -0.3 -0.33Z" fill="#4C57E6" fill-rule="evenodd" stroke-width="1"></path>
    <path d="M22 8.54a0.37 0.37 0 1 0 -0.74 0.05 77 77 0 0 1 -0.12 8.13 32.27 32.27 0 0 1 -0.49 4.28 2.49 2.49 0 0 1 -0.27 0.78 2.26 2.26 0 0 1 -1.29 0.53 23.61 23.61 0 0 1 -2.64 0.23c-1.55 0.14 -3.08 0.21 -4.6 0.23s-3.07 0 -4.62 -0.11a10 10 0 0 1 -2.62 -0.47 3.29 3.29 0 0 1 -1.36 -0.81 1.76 1.76 0 0 1 -0.37 -1.06c-0.07 -0.76 0 -1.61 0 -2.17 0 -1.92 0 -3.84 0.13 -5.75a30.7 30.7 0 0 1 0.52 -3.66c1.13 -0.05 2.24 -0.07 3.35 -0.07l2.8 0 2.79 0c2.79 0 5.57 0 8.4 0.07a0.39 0.39 0 0 0 0.4 -0.35 0.38 0.38 0 0 0 -0.33 -0.39c-0.84 -0.08 -1.67 -0.13 -2.51 -0.2a18.62 18.62 0 0 0 -0.09 -3.51A4.41 4.41 0 0 0 17 1.91 8 8 0 0 0 11.74 0a6.24 6.24 0 0 0 -5.08 2.33 5.41 5.41 0 0 0 -0.83 2.27 10.77 10.77 0 0 0 0 3.17C5 7.86 4.2 8 3.36 8.06a0.34 0.34 0 0 0 -0.25 0.18 0.32 0.32 0 0 0 -0.18 0.21 34.08 34.08 0 0 0 -0.67 3.85c-0.21 1.93 -0.28 3.87 -0.32 5.81a13.67 13.67 0 0 0 -0.07 2.68 2.58 2.58 0 0 0 0.54 1.29 4.26 4.26 0 0 0 1.8 1.18 11.14 11.14 0 0 0 2.94 0.6c1.58 0.11 3.15 0.16 4.72 0.13s3.11 -0.11 4.69 -0.26a20 20 0 0 0 3.24 -0.43 2.8 2.8 0 0 0 1.44 -0.85 10.9 10.9 0 0 0 0.81 -4.3A77.94 77.94 0 0 0 22 8.54Zm-9.84 -1.08 -2.65 0 -1.09 0.08a10.73 10.73 0 0 1 0.18 -1.82 3 3 0 0 1 0.57 -1.3 2.76 2.76 0 0 1 1 -0.71A4.44 4.44 0 0 1 12 3.3a3.52 3.52 0 0 1 2.85 1.09 2.57 2.57 0 0 1 0.5 1.23 12.08 12.08 0 0 1 0.09 2l-0.66 -0.06c-0.85 -0.06 -1.78 -0.1 -2.62 -0.1ZM6.6 5.28A4.85 4.85 0 0 1 7.49 3a5.3 5.3 0 0 1 4.25 -1.71 7.18 7.18 0 0 1 4.51 1.49 3.46 3.46 0 0 1 1.17 1.8 16.49 16.49 0 0 1 0.25 3.24c-0.48 0 -1 -0.09 -1.45 -0.12a12.73 12.73 0 0 0 0.08 -2.15 3.64 3.64 0 0 0 -0.58 -1.75A4.49 4.49 0 0 0 12 2.05a4.63 4.63 0 0 0 -3.7 1.72 3.89 3.89 0 0 0 -0.6 1.81 12.61 12.61 0 0 0 0 2c-0.4 0 -0.8 0 -1.2 0.08a10.05 10.05 0 0 1 0.1 -2.38Z" fill="#020202" fill-rule="evenodd" stroke-width="1"></path>
  </g>
</svg>