<svg xmlns="http://www.w3.org/2000/svg" viewBox="0 0 24 24" id="Volume-Control-Remove-1--Streamline-Freehand">
  <desc>
    Volume Control Remove 1 Streamline Icon: https://streamlinehq.com
  </desc>
  <g>
    <path d="M22.67 14.46a5.76 5.76 0 0 0 -9.23 0.58c-1.63 2.4 -0.79 5.94 0.84 7a0.3 0.3 0 0 0 0.34 -0.5c-1.29 -0.91 -1.88 -4 -0.42 -6a4.86 4.86 0 0 1 7.59 -0.39c2.39 2.84 1 7.14 -3.25 7.64a5.55 5.55 0 0 1 -2.3 -0.16 0.34 0.34 0 1 0 -0.22 0.64 6.35 6.35 0 0 0 2.6 0.29 5.52 5.52 0 0 0 4.05 -9.1Z" fill="#020202" stroke-width="1"></path>
    <path d="M17.67 17.81c-0.79 0.79 -2.49 2.78 -1.6 3.47 0.52 0.48 0.11 -0.45 1.52 -1.79 0.33 -0.35 0.69 -0.68 1.05 -1 0.52 0.43 1.59 1.31 1.65 2a0.34 0.34 0 0 0 0.68 0c0.08 -1 -0.83 -2.09 -1.52 -2.8a11.75 11.75 0 0 1 1.85 -1.44 0.34 0.34 0 0 0 -0.3 -0.61A10.57 10.57 0 0 0 18.65 17c-0.52 -0.42 -2.15 -1.61 -2.42 -1.83 -0.74 -0.71 -0.86 0.06 -0.53 0.35 0.09 0.14 1 1.12 1.24 1.42 0.97 0.95 0.89 0.7 0.73 0.87Z" fill="#020202" stroke-width="1"></path>
    <path d="M11.44 6.71c1.38 1.17 1.55 3.94 0.08 4.74a0.34 0.34 0 0 0 0.29 0.62c2.14 -0.82 2.67 -4.64 0.22 -6.16a4.38 4.38 0 0 0 -1.71 -0.6c-0.35 0.29 -0.36 0.54 0 0.75a3.08 3.08 0 0 1 1.12 0.65Z" fill="#4C57E6" fill-rule="evenodd" stroke-width="1"></path>
    <path d="M16 6.64c-0.5 -1.85 -1.75 -4.49 -3.29 -5.64 -0.4 -0.3 -1.34 -0.76 -1.72 -0.6a15.41 15.41 0 0 0 -1.53 0.38 11.84 11.84 0 0 0 -5.12 4 7.65 7.65 0 0 0 -0.94 1.9A2.82 2.82 0 0 0 0.6 8.09c-1.45 2.39 -0.25 7 3.22 6 0.26 -0.07 0.91 -0.2 1.1 -0.44a7.74 7.74 0 0 0 6.39 2.07 0.33 0.33 0 0 0 0.33 -0.35c0 -0.59 -0.67 -0.12 -2.69 -0.55a5.36 5.36 0 0 1 -4.13 -3.25C3.06 7.84 5.16 4.2 8.59 2a9.88 9.88 0 0 1 1.25 -0.67c-2.13 3.33 -1.16 8.62 1 12.46a0.34 0.34 0 1 0 0.6 -0.32 15 15 0 0 1 -1.37 -10.69c0.43 -1.72 0.88 -1.41 0.87 -1.7a0.3 0.3 0 0 0 0.26 0 4 4 0 0 1 2.19 2.23 32.76 32.76 0 0 1 1.87 4.41c1 3.06 0.71 3.44 1.19 3.38a0.3 0.3 0 0 0 0.27 -0.34A20.34 20.34 0 0 0 16 6.64ZM4.51 13.17l-0.82 0.19A1.8 1.8 0 0 1 1.43 12a5.12 5.12 0 0 1 0.06 -3.41 1.92 1.92 0 0 1 1.72 -1.27 7 7 0 0 0 1.3 5.85Z" fill="#020202" fill-rule="evenodd" stroke-width="1"></path>
  </g>
</svg>