<svg xmlns="http://www.w3.org/2000/svg" viewBox="0 0 24 24" id="Volume-Control-Full-1--Streamline-Freehand">
  <desc>
    Volume Control Full 1 Streamline Icon: https://streamlinehq.com
  </desc>
  <g>
    <path d="M17.28 10.15a3.64 3.64 0 0 0 -0.61 -1 0.59 0.59 0 0 0 -0.42 -0.15 0.31 0.31 0 0 0 -0.2 0.53c0.38 0.39 0.36 1.59 0.33 2.14a2.13 2.13 0 0 1 -0.6 1.55 0.35 0.35 0 0 0 0.38 0.59 2.8 2.8 0 0 0 1.12 -3.66Z" fill="#4C57E6" fill-rule="evenodd" stroke-width="1"></path>
    <path d="M20.31 12.38c0.41 -3.31 -1.7 -6.53 -2.27 -5.7 -0.37 0.33 0.3 0.51 0.52 1.06 1 2.48 1 6.71 -1.3 8.38a0.35 0.35 0 0 0 0.38 0.59 5.85 5.85 0 0 0 2.67 -4.33Z" fill="#4C57E6" fill-rule="evenodd" stroke-width="1"></path>
    <path d="M22.27 5.32c-0.11 -0.2 -1.41 -1.86 -1.69 -1.28 -0.45 0.29 0.68 0.86 1 1.61 1.73 4.08 1.73 10.8 -2.13 13.39a0.35 0.35 0 1 0 0.38 0.59c4.52 -2.82 5.1 -9.38 2.44 -14.31Z" fill="#4C57E6" fill-rule="evenodd" stroke-width="1"></path>
    <path d="M4.77 9.15a1.11 1.11 0 0 0 -0.38 0C1.87 9.11 -0.54 11.1 0.31 13.62a3 3 0 0 0 2.32 2A5.87 5.87 0 0 0 4 15.8c1.93 -0.09 1.7 -0.18 1.1 -5.6 0 -0.29 -0.65 -0.36 -0.57 0.35a23.18 23.18 0 0 1 0 4.16c-0.32 0 -0.07 0 -1.09 -0.07l-0.92 -0.23c-1.29 -0.49 -2.11 -2.76 0.16 -4.07C4 9.55 4.45 10.07 5 9.58c0 0 0.09 -0.34 -0.23 -0.43Z" fill="#4C57E6" fill-rule="evenodd" stroke-width="1"></path>
    <path d="M12.15 4.54c-1.6 -2 -5.82 1.49 -7.16 4 -0.13 0.32 0 0.44 0.39 0.45a1 1 0 0 0 0.19 -0.25 9.75 9.75 0 0 1 3.88 -3.36c0.52 -0.27 1.55 -0.71 1.89 -0.24 0.86 1.21 1.09 10.82 0.05 13.13 -0.29 0.66 -0.7 1.06 -1.4 0.87a13.29 13.29 0 0 1 -4.39 -3.21 0.34 0.34 0 0 0 -0.5 0.45 16.47 16.47 0 0 0 3.42 3 2.93 2.93 0 0 0 2.31 0.66c1.46 -0.38 1.89 -2.35 2.1 -3.85 0.29 -2.31 0.63 -9.81 -0.78 -11.65Z" fill="#020202" fill-rule="evenodd" stroke-width="1"></path>
  </g>
</svg>