<svg xmlns="http://www.w3.org/2000/svg" viewBox="0 0 24 24" id="Volume-Control-Low-1--Streamline-Freehand">
  <desc>
    Volume Control Low 1 Streamline Icon: https://streamlinehq.com
  </desc>
  <g>
    <path d="M23.86 10.62A5.69 5.69 0 0 0 22.12 8c-0.24 -0.16 -0.8 -0.24 -0.94 0 -0.44 0.78 0.9 0.26 1.23 3a4.36 4.36 0 0 1 -0.14 2.15c-0.69 1.77 -2 1.54 -1.7 2.28a0.45 0.45 0 0 0 0.6 0.23 4 4 0 0 0 2.69 -5.04Z" fill="#4C57E6" fill-rule="evenodd" stroke-width="1"></path>
    <path d="M16.21 1.9C14 -0.95 7.55 4.85 6 8.19a0.48 0.48 0 0 0 -0.23 -0.07c-3.4 0 -6.65 2.62 -5.51 6a4.08 4.08 0 0 0 3.13 2.73 8.61 8.61 0 0 0 1.78 0.21c2.6 -0.12 2.29 -0.24 1.48 -7.55 -0.07 -0.4 -0.88 -0.49 -0.76 0.47a32 32 0 0 1 0 5.61c-0.45 0 -0.1 0 -1.47 -0.1l-1.24 -0.31c-1.72 -0.64 -2.84 -3.73 0.22 -5.48 2 -1.18 2.64 -0.08 3.57 -1.57A16 16 0 0 1 12.56 3c0.71 -0.37 2.09 -1 2.55 -0.32 1.15 1.61 1.47 14.58 0.07 17.7 -0.4 0.89 -0.95 1.43 -1.89 1.18 -1.42 -0.38 -4.26 -2.53 -5.92 -4.33a0.45 0.45 0 0 0 -0.68 0.6 22.43 22.43 0 0 0 4.61 4 4 4 0 0 0 3.12 0.9c2 -0.52 2.55 -3.18 2.83 -5.2 0.4 -3.04 0.85 -13.15 -1.04 -15.63Z" fill="#020202" fill-rule="evenodd" stroke-width="1"></path>
  </g>
</svg>