<svg xmlns="http://www.w3.org/2000/svg" viewBox="0 0 24 24" id="Volume-Control-Bluetooth--Streamline-Freehand">
  <desc>
    Volume Control Bluetooth Streamline Icon: https://streamlinehq.com
  </desc>
  <g>
    <g>
      <path d="m23.4 8.57 -0.8 -0.49 -1.37 -0.71 -0.5 -0.37c0.53 -0.34 1.32 -0.69 1.94 -1.08a3.8 3.8 0 0 0 0.84 -0.7 0.59 0.59 0 0 0 0.1 -0.48 2 2 0 0 0 -0.33 -0.65 6.2 6.2 0 0 0 -0.9 -1 9.41 9.41 0 0 0 -1 -0.79l-0.81 -0.52a0.65 0.65 0 0 0 -0.57 0.01 1.41 1.41 0 0 0 -0.51 0.52 2.66 2.66 0 0 0 -0.29 0.83 7.12 7.12 0 0 0 -0.2 1.23c0 0.46 0 0.93 0.06 1.39 -0.75 -0.61 -1.48 -1.23 -2.06 -1.61a0.31 0.31 0 0 0 -0.44 0.08 0.32 0.32 0 0 0 0.08 0.44c0.68 0.48 1.59 1.31 2.46 2.06l0 0.56c-0.59 0.48 -1.15 1 -1.76 1.41a13.94 13.94 0 0 1 -1.3 0.86 0.29 0.29 0 0 0 -0.11 0.38 0.29 0.29 0 0 0 0.38 0.11 13.53 13.53 0 0 0 1.39 -0.85c0.5 -0.35 1 -0.71 1.45 -1.08l0 0.57a13.39 13.39 0 0 1 -0.06 1.67 7.34 7.34 0 0 0 -0.05 0.81l0 1.18 0 0.51a0.58 0.58 0 0 0 0.44 0.53 0.73 0.73 0 0 0 0.31 0 3.3 3.3 0 0 0 0.55 -0.34l0.62 -0.44c0.3 -0.23 0.58 -0.47 0.86 -0.71l1.1 -1c0.51 -0.45 0.92 -0.83 1 -1.21a1.25 1.25 0 0 0 -0.52 -1.12Zm-3.23 -5.23a1.72 1.72 0 0 1 0.13 -0.45l0.54 0.32a9.68 9.68 0 0 1 0.94 0.68 5 5 0 0 1 0.8 0.8 1.91 1.91 0 0 1 0.1 0.23 3.56 3.56 0 0 1 -0.45 0.37c-0.61 0.41 -1.39 0.79 -1.91 1.15l-0.14 0.1 0 -0.47c0 -0.55 -0.07 -1.11 -0.08 -1.68a5 5 0 0 1 0.07 -1.05ZM23 9.69c-0.15 0.14 -0.35 0.29 -0.56 0.46l-1.11 1 -1.15 0.85 0 -0.79c0 -0.26 0 -0.47 0.06 -0.71a13.85 13.85 0 0 0 0.07 -1.82c0 -0.34 0 -0.68 -0.05 -1 0.2 0.15 0.4 0.29 0.58 0.4l1.38 0.78 0.65 0.41c0.16 0.14 0.27 0.21 0.26 0.3s-0.08 0.06 -0.13 0.12Z" fill="#4C57E6" stroke-width="1"></path>
      <path d="M18.09 18.49a0.28 0.28 0 0 0 -0.18 0.35 3.9 3.9 0 0 1 0.26 1.95 1.09 1.09 0 0 1 -0.71 0.8 1.81 1.81 0 0 1 -1.25 -0.25 5.51 5.51 0 0 1 -1.75 -1.24 4 4 0 0 0 -3.19 -1.64 12.44 12.44 0 0 0 -5 1.29 3.41 3.41 0 0 1 -4.16 -0.81 4.35 4.35 0 0 1 -0.71 -4.34 2.54 2.54 0 0 1 0.7 -0.93 18.11 18.11 0 0 1 1.68 -1.22c1.35 -0.95 2.72 -1.24 3.51 -2.16A3.31 3.31 0 0 0 8 8.43a12 12 0 0 1 0.7 -3.08 2.63 2.63 0 0 1 1.05 -1.47c0.22 -0.11 0.46 0 0.81 0.35A11.43 11.43 0 0 1 12.44 7 88.13 88.13 0 0 1 17 17.64a0.31 0.31 0 0 0 0.41 0.19 0.32 0.32 0 0 0 0.19 -0.41c-2.3 -6.5 -4 -10.28 -5.25 -12.31a6.18 6.18 0 0 0 -1.61 -1.91 1.32 1.32 0 0 0 -1.4 -0.2 3.59 3.59 0 0 0 -1.57 2 13.76 13.76 0 0 0 -0.83 3.34 2.17 2.17 0 0 1 -0.85 1.61c-0.77 0.59 -1.88 0.89 -3 1.66a15.9 15.9 0 0 0 -1.78 1.29 3.66 3.66 0 0 0 -1 1.33 5.44 5.44 0 0 0 0.93 5.42 4.33 4.33 0 0 0 5.31 1 11.77 11.77 0 0 1 4.65 -1.35 3.36 3.36 0 0 1 2.65 1.29 6.31 6.31 0 0 0 2 1.41 2.47 2.47 0 0 0 1.75 0.22 1.66 1.66 0 0 0 1.07 -1.27 4.57 4.57 0 0 0 -0.32 -2.25 0.27 0.27 0 0 0 -0.26 -0.21Z" fill="#020202" stroke-width="1"></path>
    </g>
    <path d="M6.26 17.83c0.46 -0.65 -0.18 -1.59 -1.71 -4.94 -0.13 -0.26 -0.73 -0.16 -0.45 0.5 0.68 2 0.72 2.5 1.15 3.73 0.3 0.32 0.57 0.88 1.01 0.71Z" fill="#4C57E6" fill-rule="evenodd" stroke-width="1"></path>
  </g>
</svg>