<svg xmlns="http://www.w3.org/2000/svg" viewBox="0 0 24 24" id="Waiting-Room-Lamp--Streamline-Freehand">
  <desc>
    Waiting Room Lamp Streamline Icon: https://streamlinehq.com
  </desc>
  <g>
    <path d="M10.21 19.66a3.5 3.5 0 0 0 -0.3 -1 1.61 1.61 0 0 0 -0.56 -0.66 4.82 4.82 0 0 0 -1.72 -0.62c-0.86 -0.16 -1.79 -0.2 -2.51 -0.27A6.71 6.71 0 0 1 3.91 17a0.84 0.84 0 0 1 -0.48 -0.23c-0.11 -0.11 -0.07 -0.31 -0.06 -0.51 0 -0.36 0.09 -0.73 0.11 -1 0 -0.64 0.11 -1.29 0.15 -1.94l0 -1.33a3.06 3.06 0 0 0 -0.22 -1.08 1.49 1.49 0 0 0 -0.52 -0.66 2.34 2.34 0 0 0 -1.08 -0.3A5.79 5.79 0 0 0 0.33 10a0.31 0.31 0 0 0 -0.23 0.36 0.3 0.3 0 0 0 0.35 0.23 4.35 4.35 0 0 1 1.09 0 2 2 0 0 1 0.94 0.26 0.74 0.74 0 0 1 0.24 0.46 2.46 2.46 0 0 1 0.06 0.65c0 0.32 0 0.63 -0.09 0.94 -0.08 0.75 -0.21 1.49 -0.31 2.23a7.86 7.86 0 0 0 -0.14 1.49 1.49 1.49 0 0 0 0.35 0.89 1.81 1.81 0 0 0 0.79 0.48 6.13 6.13 0 0 0 1.62 0.24c0.7 0 1.6 0 2.43 0.15a4 4 0 0 1 1.41 0.4 0.73 0.73 0 0 1 0.31 0.38 3.28 3.28 0 0 1 0.21 0.65 12.61 12.61 0 0 1 0.22 1.3 11.09 11.09 0 0 1 0 1.32 0.34 0.34 0 0 0 0.32 0.36 0.33 0.33 0 0 0 0.36 -0.31 12.31 12.31 0 0 0 0 -1.42 12.25 12.25 0 0 0 -0.05 -1.4Z" fill="#4C57E6" fill-rule="evenodd" stroke-width="1"></path>
    <path d="M7.15 6.86a4.16 4.16 0 0 0 1.26 -0.1 3.57 3.57 0 0 0 1.18 -0.52A3.72 3.72 0 0 0 11 2.69c-0.6 -3.84 -5 -2.58 -5.71 -2a3.49 3.49 0 0 0 -1.37 2.08 3.53 3.53 0 0 0 0.7 2.74 3.6 3.6 0 0 0 2.53 1.35ZM5.74 1.23c0.51 -0.45 4 -1.36 4.3 1.58a2.68 2.68 0 0 1 -1.1 2.5 2.23 2.23 0 0 1 -0.79 0.34 3.06 3.06 0 0 1 -0.9 0.06 2.53 2.53 0 0 1 -1.78 -0.9 2.61 2.61 0 0 1 -0.63 -1.93 2.58 2.58 0 0 1 0.9 -1.65Z" fill="#020202" fill-rule="evenodd" stroke-width="1"></path>
    <path d="M15.18 13.44a9.46 9.46 0 0 0 -2.18 -0.88 9.57 9.57 0 0 0 -2.27 -0.39 2 2 0 0 1 -1.06 -0.34 1.26 1.26 0 0 1 -0.52 -0.83 16 16 0 0 0 -0.21 -2.5c-0.47 -1.25 -2.76 -1.55 -3.64 0.33a8.44 8.44 0 0 0 -0.51 3.37 3.44 3.44 0 0 0 1 2.24 5.64 5.64 0 0 0 1.94 1.35c0.88 0.38 2.2 0.14 3.18 0.46a1.17 1.17 0 0 1 0.73 0.6 5.83 5.83 0 0 1 0.56 2.05 10.94 10.94 0 0 1 0 2.22 3.1 3.1 0 0 0 0.62 2.21 2.06 2.06 0 0 0 1.52 0.69 2.49 2.49 0 0 0 1.66 -0.68 2.8 2.8 0 0 0 0.91 -1.57 14.28 14.28 0 0 0 0 -5.17 4.67 4.67 0 0 0 -1.73 -3.16Zm0.62 8.12a1.61 1.61 0 0 1 -0.54 0.92 1.41 1.41 0 0 1 -0.93 0.36 0.94 0.94 0 0 1 -0.83 -0.47 2.09 2.09 0 0 1 -0.23 -1.18 11.3 11.3 0 0 0 0 -2.46 6.75 6.75 0 0 0 -0.72 -2.41 2.17 2.17 0 0 0 -1.35 -1.08c-1 -0.29 -2.26 0 -3.13 -0.35a4.64 4.64 0 0 1 -1.66 -1.08 2.64 2.64 0 0 1 -0.78 -1.67A7.69 7.69 0 0 1 6 9.09c0.58 -1.31 2.1 -1.2 2.37 -0.42a14.05 14.05 0 0 1 0.1 2.39 2 2 0 0 0 0.83 1.39 2.72 2.72 0 0 0 1.48 0.53 8.37 8.37 0 0 1 2 0.43 8.1 8.1 0 0 1 1.88 0.84 3.76 3.76 0 0 1 1.27 2.55 13.33 13.33 0 0 1 -0.13 4.76Z" fill="#020202" fill-rule="evenodd" stroke-width="1"></path>
    <path d="M23.57 5.26a5.44 5.44 0 0 0 -2 -2.25 5 5 0 0 0 -2.34 -0.78 4.42 4.42 0 0 0 0.17 -0.55l0 -0.3a2.91 2.91 0 0 0 0 -0.31c-0.05 -0.25 -0.13 -0.46 -0.2 -0.71a0.34 0.34 0 0 0 -0.68 0c-0.07 0.25 -0.15 0.47 -0.2 0.72a1.71 1.71 0 0 0 0 0.31 1.73 1.73 0 0 0 0 0.32 3.29 3.29 0 0 0 0.21 0.55 5 5 0 0 0 -1.88 0.6 4.52 4.52 0 0 0 -1.55 1.43 4.56 4.56 0 0 0 -0.57 1.55 2.14 2.14 0 0 0 0 1.25 0.29 0.29 0 0 0 0.2 0.14 0.24 0.24 0 0 0 0 0.08 0.3 0.3 0 0 0 0.29 0.31c0.54 0 0.92 0.06 1.3 0.06l1.29 0 1.54 0a7.83 7.83 0 0 1 1 0c0.47 0.06 2.12 0.18 2.82 0.2a1.35 1.35 0 0 0 0.67 -0.15 1.24 1.24 0 0 0 0.36 -1 4.44 4.44 0 0 0 -0.43 -1.47Zm-3.42 1.48a8.93 8.93 0 0 0 -1.09 0c-0.61 0 -1.28 0.1 -1.56 0.13 -0.5 0.13 -0.87 0.13 -1.26 0.13l-1.15 0a3 3 0 0 0 0 -0.52 6 6 0 0 1 0.24 -1 3.23 3.23 0 0 1 0.38 -0.79A3.76 3.76 0 0 1 17 3.66a4.38 4.38 0 0 1 1.67 -0.42 3.77 3.77 0 0 1 2.26 0.76 4.27 4.27 0 0 1 1.59 1.76 3.53 3.53 0 0 1 0.24 0.83l0 0.21c-0.67 -0.02 -2.17 -0.03 -2.61 -0.06Z" fill="#020202" fill-rule="evenodd" stroke-width="1"></path>
  </g>
</svg>