<svg xmlns="http://www.w3.org/2000/svg" viewBox="0 0 24 24" id="Walking-Forbidden-Symbol--Streamline-Freehand">
  <desc>
    Walking Forbidden Symbol Streamline Icon: https://streamlinehq.com
  </desc>
  <g>
    <path d="M11.94 7a0.34 0.34 0 1 0 0.26 -0.63 2.69 2.69 0 0 1 -1.3 -1.71 2.86 2.86 0 0 1 0.1 -2.07 2.06 2.06 0 0 1 0.46 -0.59 4.39 4.39 0 0 1 0.63 -0.51 4.13 4.13 0 0 1 1.56 -0.72 0.74 0.74 0 0 1 0.81 0.25 0.27 0.27 0 0 0 0.34 0.13l0.27 0.49 1.11 1.65a0.3 0.3 0 0 0 0.36 0.23 0.31 0.31 0 0 0 0.23 -0.36A3.54 3.54 0 0 0 16.56 2a2.24 2.24 0 0 0 -0.36 -0.64 2.81 2.81 0 0 0 -0.34 -0.36c-0.18 -0.14 -0.34 -0.32 -0.53 -0.47A1.42 1.42 0 0 0 15 0.28a0.34 0.34 0 0 0 -0.36 0A1.57 1.57 0 0 0 13.58 0a5.33 5.33 0 0 0 -2 0.62 4.12 4.12 0 0 0 -0.85 0.58 2.82 2.82 0 0 0 -0.68 0.89A3.83 3.83 0 0 0 10 5a3.41 3.41 0 0 0 1.94 2Z" fill="#020202" fill-rule="evenodd" stroke-width="1"></path>
    <path d="M1.73 13.38A2.59 2.59 0 0 0 3.38 13a10 10 0 0 1 2.8 -1.45 1.61 1.61 0 0 1 1.68 0.45 0.3 0.3 0 0 0 0.46 -0.38A2.24 2.24 0 0 0 6 10.77a10.94 10.94 0 0 0 -3.15 1.32 2 2 0 0 1 -0.85 0.25 0.55 0.55 0 0 1 -0.42 -0.34 1.24 1.24 0 0 1 0.16 -1.44A5.82 5.82 0 0 1 4.09 8.8a12.44 12.44 0 0 1 1.27 -0.51 3.53 3.53 0 0 1 0.82 -0.17 5.83 5.83 0 0 1 1.65 0.17c0.85 0.2 1.7 0.52 2.53 0.8a0.35 0.35 0 0 0 0.44 -0.21 0.34 0.34 0 0 0 -0.21 -0.43c-0.83 -0.34 -1.69 -0.71 -2.55 -1a6.52 6.52 0 0 0 -1.89 -0.29 4.44 4.44 0 0 0 -1.06 0.15c-0.49 0.12 -1 0.31 -1.4 0.46A7 7 0 0 0 0.8 9.93a2.3 2.3 0 0 0 -0.18 2.69 1.57 1.57 0 0 0 1.11 0.76Z" fill="#020202" fill-rule="evenodd" stroke-width="1"></path>
    <path d="M22.43 7.26a2.14 2.14 0 0 0 -1.17 -0.07 4.8 4.8 0 0 0 -1.42 0.65 0.3 0.3 0 0 0 0.3 0.52 4.45 4.45 0 0 1 1 -0.42 1.39 1.39 0 0 1 0.94 0.08 1 1 0 0 1 0.61 1.3 3.66 3.66 0 0 1 -0.69 1.26 4.27 4.27 0 0 1 -1.11 1 7.61 7.61 0 0 1 -3.23 1.07 15.67 15.67 0 0 1 -3.55 -0.09l-0.13 0a0.33 0.33 0 0 0 -0.43 0.09 3.14 3.14 0 0 0 -0.71 1.06 0.89 0.89 0 0 0 0.2 0.75 1.58 1.58 0 0 0 0.69 0.49c0.46 0.21 1 0.27 1.47 0.45a5.66 5.66 0 0 1 1.19 0.65 2.86 2.86 0 0 1 0.83 0.93 4.76 4.76 0 0 1 0.54 2.48 4.05 4.05 0 0 1 -0.81 2.33 3 3 0 0 1 -1 0.83 2.08 2.08 0 0 1 -1.18 0.23l-0.53 -0.13c-0.33 -0.13 -0.43 -0.33 -0.39 -0.57 0.11 -0.68 0.65 -1.47 0.77 -2.06a2 2 0 0 0 -0.24 -1.46 4.11 4.11 0 0 0 -1.46 -1.33 4.24 4.24 0 0 0 -1.33 -0.38 4.38 4.38 0 0 0 -1.14 0 0.35 0.35 0 0 0 -0.44 0.2 14.18 14.18 0 0 1 -1.56 2.38l-0.67 0.92 -0.44 0.58A8.42 8.42 0 0 1 6 22.53a0.31 0.31 0 0 0 -0.1 0.47 0.29 0.29 0 0 0 0.42 0.08 7.85 7.85 0 0 0 2 -1.57 8.2 8.2 0 0 0 0.7 -0.84c0.21 -0.3 0.4 -0.61 0.58 -0.93a10.81 10.81 0 0 0 0.91 -2.18 3.6 3.6 0 0 1 0.91 0.07 3.74 3.74 0 0 1 1 0.34 4.4 4.4 0 0 1 1 0.91 1.29 1.29 0 0 1 0.21 1.07 11.24 11.24 0 0 1 -0.64 1.33 2.59 2.59 0 0 0 -0.3 1.27 1.5 1.5 0 0 0 1 1.25l0.82 0.23a3.17 3.17 0 0 0 1.83 -0.33 4.15 4.15 0 0 0 1.39 -1.14 5.11 5.11 0 0 0 1 -3 5.83 5.83 0 0 0 -0.79 -3 3.75 3.75 0 0 0 -0.9 -1 6.57 6.57 0 0 0 -1.66 -0.88c-0.43 -0.16 -1 -0.2 -1.5 -0.38a0.9 0.9 0 0 1 -0.4 -0.24c-0.1 -0.11 0 -0.22 0 -0.33a5.2 5.2 0 0 1 0.52 -0.53 14.28 14.28 0 0 0 4.5 0.3 8.47 8.47 0 0 0 3 -1 5.38 5.38 0 0 0 2.29 -3 1.82 1.82 0 0 0 -1.36 -2.24Z" fill="#020202" fill-rule="evenodd" stroke-width="1"></path>
    <path d="M10.85 13.37c1.15 -1.13 2.32 -2.23 3.48 -3.37 1.75 -1.67 3.49 -3.36 5.22 -5C20.78 3.75 22 2.52 23.2 1.27a0.34 0.34 0 1 0 -0.48 -0.48C19.43 4 15.93 7 12.55 10.15c-0.84 0.79 -1.67 1.59 -2.5 2.4s-1.62 1.65 -2.4 2.51c-1.79 2 -3.5 4.07 -5.33 6 -0.66 0.69 -1.33 1.37 -2 2a0.31 0.31 0 0 0 0 0.43 0.31 0.31 0 0 0 0.43 0c1.09 -0.95 2.13 -1.95 3.15 -3 1.65 -1.66 3.26 -3.38 4.89 -5.07 0.65 -0.64 1.35 -1.36 2.06 -2.05Z" fill="#4C57E6" fill-rule="evenodd" stroke-width="1"></path>
  </g>
</svg>