<svg xmlns="http://www.w3.org/2000/svg" viewBox="0 0 24 24" id="Warehouse-Storage-3--Streamline-Freehand">
  <desc>
    Warehouse Storage 3 Streamline Icon: https://streamlinehq.com
  </desc>
  <g>
    <path d="M24 10.57a10.51 10.51 0 0 0 -0.32 -3.29 2.25 2.25 0 0 0 -0.68 -0.63c-0.95 -0.73 -3.08 -2.08 -5.25 -3.36s-4.36 -2.5 -5.45 -3a2.73 2.73 0 0 0 -0.8 -0.29 3.62 3.62 0 0 0 -1.5 0.46 37.57 37.57 0 0 0 -4.42 2.67C3.22 4.74 1 6.56 0.53 7.34a4.8 4.8 0 0 0 -0.51 2c-0.06 1 0 2.11 0.06 2.91 0.05 3.05 0.41 6.09 0.55 9.14 0 0.76 0.05 1.52 0.05 2.28A0.29 0.29 0 0 0 1 24a0.28 0.28 0 0 0 0.29 -0.28l0 -2.3c-0.07 -3 -0.35 -6.08 -0.33 -9.12 0 -0.79 -0.08 -1.85 0 -2.84a3.89 3.89 0 0 1 0.42 -1.64c0.43 -0.72 2.6 -2.32 4.83 -3.8a38.16 38.16 0 0 1 4.29 -2.58 2.76 2.76 0 0 1 0.94 -0.35 6.15 6.15 0 0 1 1 0.48c1.18 0.59 3 1.59 4.78 2.63 2.15 1.24 4.26 2.51 5.21 3.21 0.4 0.29 0.6 0 0.66 3.17 0.06 3.67 -0.27 9.5 -0.1 12.47a0.32 0.32 0 0 0 0.34 0.31 0.33 0.33 0 0 0 0.31 -0.34c-0.08 -2.97 0.36 -8.78 0.36 -12.45Z" fill="#4C57E6" fill-rule="evenodd" stroke-width="1"></path>
    <path d="m20.26 22.83 -0.71 0a20.16 20.16 0 0 0 0.16 -2.21l0 -1.09a10 10 0 0 0 -0.11 -1.07c-0.11 -0.73 -0.27 -1.44 -0.41 -2.15a0.6 0.6 0 0 0 0.06 -0.11 0.33 0.33 0 0 0 -0.31 -0.34c-0.85 -0.11 -1.69 -0.25 -2.55 -0.32l-0.55 0a19.39 19.39 0 0 0 0.14 -2l0 -1.08c0 -0.36 -0.06 -0.71 -0.11 -1.07 -0.11 -0.73 -0.27 -1.44 -0.41 -2.15a0.26 0.26 0 0 0 0 -0.12 0.32 0.32 0 0 0 -0.3 -0.34c-0.85 -0.1 -1.69 -0.25 -2.55 -0.32a12.46 12.46 0 0 0 -1.73 0A13.36 13.36 0 0 0 8 8.8a0.29 0.29 0 0 0 -0.23 0.33s0 0 0 0.06a0.22 0.22 0 0 0 -0.06 0.14c-0.08 0.79 -0.15 1.57 -0.16 2.37l0 1c0 0.33 0 0.67 0.07 1 0.06 0.58 0.14 1.16 0.22 1.74h-0.59a13.92 13.92 0 0 0 -2.86 0.49 0.28 0.28 0 0 0 -0.24 0.32s0 0 0 0.06a0.28 0.28 0 0 0 -0.06 0.14C4.05 17.25 4 18 4 18.83l0 1c0 0.33 0 0.67 0.06 1 0.09 0.78 0.22 1.54 0.3 2.33 -0.32 0.05 -0.63 0.07 -0.95 0.13a0.28 0.28 0 0 0 0.07 0.56c1 -0.09 2 -0.13 2.94 -0.15 1.15 0 2.29 0 3.45 0.05s2.3 0 3.46 0c1.62 -0.06 3.23 -0.18 4.86 -0.25 0.69 0 1.38 -0.05 2.07 -0.05a0.32 0.32 0 0 0 0 -0.64ZM10.09 9.36 10 10.82a3.52 3.52 0 0 0 0 0.65 1.1 1.1 0 0 0 0.14 0.42 2.06 2.06 0 0 0 1.6 0.66 1.17 1.17 0 0 0 1.14 -0.68A2.93 2.93 0 0 0 13 11a9.71 9.71 0 0 0 -0.1 -1.22 0.32 0.32 0 0 0 -0.34 -0.3 0.33 0.33 0 0 0 -0.31 0.34 5.88 5.88 0 0 1 -0.08 1.1 2.08 2.08 0 0 1 -0.2 0.61s-0.08 0 -0.12 0a1.64 1.64 0 0 1 -0.43 0c-0.16 0 -0.32 0 -0.38 -0.13l-0.04 -0.63 -0.19 -1.39 1.51 0c0.83 0 1.66 0 2.49 -0.06l0 2.4c0 0.56 0.08 1.12 0.13 1.68s0.13 1.35 0.16 2h-0.44a14.13 14.13 0 0 0 -2.87 0.49 0.27 0.27 0 0 0 -0.22 -0.12c-0.85 -0.11 -1.69 -0.25 -2.55 -0.32l-0.4 0c0.06 -0.72 0.12 -1.43 0.12 -2.15 0 -0.54 0 -1.07 -0.09 -1.6 -0.06 -0.79 -0.16 -1.58 -0.21 -2.37 0.56 0 1.08 0.01 1.65 0.03ZM8.36 22.77c-1.15 0.06 -2.3 0.18 -3.44 0.33 0.08 -0.88 0.16 -1.75 0.16 -2.64 0 -0.53 0 -1.07 -0.09 -1.6 -0.06 -0.79 -0.17 -1.57 -0.21 -2.37a15.69 15.69 0 0 1 1.68 0L6.38 18a2.82 2.82 0 0 0 0 0.65 1 1 0 0 0 0.14 0.42 2 2 0 0 0 1.6 0.66A1.17 1.17 0 0 0 9.26 19a3.4 3.4 0 0 0 0.16 -0.9 8.15 8.15 0 0 0 -0.11 -1.23 0.31 0.31 0 0 0 -0.33 -0.3 0.33 0.33 0 0 0 -0.31 0.34A6 6 0 0 1 8.59 18a2 2 0 0 1 -0.2 0.6h-0.15a1.75 1.75 0 0 1 -0.44 0c-0.15 0 -0.32 0 -0.37 -0.13l-0.09 -0.54 -0.19 -1.39 1.51 0c0.95 0 1.89 0 2.84 -0.07 -0.08 0.79 -0.14 1.57 -0.16 2.36l0 1c0 0.33 0 0.67 0.07 1 0.06 0.63 0.16 1.24 0.24 1.86h-1.3c-0.67 0.02 -1.35 0.05 -1.99 0.08Zm9.11 0 -4.16 0 -1 0c0.07 -0.74 0.13 -1.49 0.13 -2.24 0 -0.53 0 -1.07 -0.08 -1.6 -0.07 -0.79 -0.17 -1.57 -0.22 -2.37a15.88 15.88 0 0 1 1.69 0L13.76 18a3.52 3.52 0 0 0 0 0.65 1.3 1.3 0 0 0 0.14 0.42 2 2 0 0 0 1.6 0.66 1.17 1.17 0 0 0 1.14 -0.73 3 3 0 0 0 0.16 -0.9 9.72 9.72 0 0 0 -0.1 -1.23 0.32 0.32 0 0 0 -0.34 -0.3 0.32 0.32 0 0 0 -0.3 0.34A7.11 7.11 0 0 1 16 18a2 2 0 0 1 -0.2 0.6h-0.11a1.68 1.68 0 0 1 -0.44 0c-0.16 0 -0.32 0 -0.38 -0.13l-0.09 -0.54 -0.19 -1.39 1.51 0c0.83 0 1.66 0 2.49 -0.06l0 2.4c0 0.56 0.09 1.12 0.13 1.68 0.07 0.75 0.15 1.49 0.18 2.22 -0.51 -0.01 -0.97 -0.04 -1.43 -0.04Z" fill="#020202" fill-rule="evenodd" stroke-width="1"></path>
  </g>
</svg>