<svg xmlns="http://www.w3.org/2000/svg" viewBox="0 0 24 24" id="Water-Container--Streamline-Freehand">
  <desc>
    Water Container Streamline Icon: https://streamlinehq.com
  </desc>
  <g>
    <path d="m18.26 20.34 0 -3.59c0 -0.76 -0.07 -1.54 -0.15 -2.41a10.23 10.23 0 0 0 -0.29 -1.94 3 3 0 0 0 -0.75 -1.3 1.19 1.19 0 0 0 -0.41 -0.26 1.55 1.55 0 0 0 0.19 -0.24 4.33 4.33 0 0 0 0.54 -1.67 12.59 12.59 0 0 0 0.06 -2.5 15.8 15.8 0 0 0 -0.61 -4.69 2 2 0 0 0 -0.6 -0.76 4.17 4.17 0 0 0 -1.86 -0.85 16.16 16.16 0 0 0 -2.8 -0.13A16.9 16.9 0 0 0 8.3 0.15a3 3 0 0 0 -2.09 1.36 3.5 3.5 0 0 0 -0.34 1.05A13.48 13.48 0 0 0 5.73 4l0 1c0 0.74 0.12 1.45 0.14 2.23a11 11 0 0 0 0.22 2.15 5.12 5.12 0 0 0 0.5 1.41 3.12 3.12 0 0 0 0.43 0.58l0.2 0.18a3.11 3.11 0 0 0 -0.54 0.35 1.68 1.68 0 0 0 -0.5 0.86 5.42 5.42 0 0 0 -0.12 1.15l0 1.33c0 1 0.11 2 0.13 3 0 0.46 0 0.93 0.06 1.42 0.07 1 0.18 2.07 0.25 3.24a0.3 0.3 0 0 0 0.32 0.29 0.3 0.3 0 0 0 0.28 -0.31c0 -1.18 -0.11 -2.26 -0.15 -3.26l0 -1.37 0 -3 0 -1.27a5.51 5.51 0 0 1 0.1 -0.82 0.84 0.84 0 0 1 0.24 -0.5 2.21 2.21 0 0 1 1.06 -0.4c0.7 -0.11 1.44 -0.07 2.08 -0.14 0.45 -0.05 0.88 -0.09 1.31 -0.11s0.57 0 0.86 0l2.93 -0.11a4.73 4.73 0 0 1 0.53 0 0.34 0.34 0 0 1 0.22 0.07 1.81 1.81 0 0 1 0.45 0.81 8.74 8.74 0 0 1 0.27 1.67c0.08 0.84 0.13 1.6 0.17 2.34 0.05 1.13 0.06 2.24 0.08 3.55l0 1.26a3.33 3.33 0 0 1 -0.08 0.67 0.74 0.74 0 0 1 -0.06 0.18 3.54 3.54 0 0 1 -0.92 0.39 7.1 7.1 0 0 1 -1.11 0.17c-0.81 0.08 -1.55 0.13 -2.27 0.16 -1.12 0 -2.2 0.07 -3.45 0.08l-2 -0.06a0.34 0.34 0 0 0 -0.38 0.29 0.33 0.33 0 0 0 0.29 0.38l2.1 0.14 3.46 0c0.74 0 1.5 0 2.32 -0.1a7.17 7.17 0 0 0 1.51 -0.23 3.59 3.59 0 0 0 1 -0.43 1.45 1.45 0 0 0 0.52 -1 12.34 12.34 0 0 0 0.08 -1.9Zm-2.74 -9.64 -2.92 0.13c-0.39 0 -0.78 0 -1.16 0.06L10.3 11a21 21 0 0 0 -2.4 0.27 1.82 1.82 0 0 1 -0.42 -0.35 2 2 0 0 1 -0.32 -0.48 4.14 4.14 0 0 1 -0.37 -1.22 11.77 11.77 0 0 1 -0.11 -2l0 -2.24c0 -0.3 0 -0.6 0.06 -0.91a10 10 0 0 1 0.18 -1.31 2 2 0 0 1 0.25 -0.7 1.93 1.93 0 0 1 1.39 -0.8 15.16 15.16 0 0 1 3.05 -0.09 15 15 0 0 1 2.6 0.06 3 3 0 0 1 1.41 0.58 1 1 0 0 1 0.39 0.54 14.78 14.78 0 0 1 0.62 4.16 11.78 11.78 0 0 1 0 2.33 3.6 3.6 0 0 1 -0.39 1.39l-0.44 0.47Z" fill="#020202" stroke-width="1"></path>
    <path d="M8.61 18.62a0.29 0.29 0 0 0 0.32 0.27l1.6 0.1 0.92 0 0.91 0c0.59 0 1.21 -0.14 1.81 -0.21l1.5 -0.19a0.34 0.34 0 1 0 -0.08 -0.67l-1.47 -0.07 -1.83 0c-0.32 0 -0.62 0 -0.92 0.08l-0.9 0.14 -1.59 0.25a0.29 0.29 0 0 0 -0.27 0.3Z" fill="#020202" stroke-width="1"></path>
    <path d="M10.09 14.29a4.7 4.7 0 0 0 0.07 1.11 1.91 1.91 0 0 0 0.34 0.78 0.77 0.77 0 0 0 0.51 0.25 6.09 6.09 0 0 0 1 0 4.18 4.18 0 0 0 1.06 -0.13 1.31 1.31 0 0 0 0.58 -0.36 1 1 0 0 0 0.26 -0.66 3 3 0 0 0 -0.15 -1 3.25 3.25 0 0 0 -0.28 -0.71 0.69 0.69 0 0 0 -0.7 -0.37c-0.22 0 -0.56 0.12 -0.66 0.14l-1.49 0.3a0.59 0.59 0 0 0 -0.54 0.65Zm2.15 -0.11a2.12 2.12 0 0 0 0.44 -0.06c0 0.12 0.21 1.06 0.09 1.09s-0.62 0.12 -0.85 0.15a6.6 6.6 0 0 1 -0.95 0.09 4.87 4.87 0 0 1 -0.2 -1.15 0.22 0.22 0 0 0 0 -0.08Z" fill="#020202" stroke-width="1"></path>
    <path d="M15.83 4.47a0.33 0.33 0 0 0 -0.46 -0.13c-0.22 0.1 -0.48 0.24 -0.76 0.34a1.33 1.33 0 0 1 -0.44 0.09 3.41 3.41 0 0 1 -1.47 -0.38 12.06 12.06 0 0 0 -1.7 -0.66 3.47 3.47 0 0 0 -1 -0.1 4.84 4.84 0 0 0 -1.84 0.63 2.38 2.38 0 0 0 -1 0.94 0.3 0.3 0 0 0 0.13 0.4 0.3 0.3 0 0 0 0.4 -0.12A1.61 1.61 0 0 1 8.5 5a3.68 3.68 0 0 1 1.5 -0.31 4.09 4.09 0 0 1 1.28 0.31 13.14 13.14 0 0 0 1.49 0.52 3.55 3.55 0 0 0 1.49 0.09 2.42 2.42 0 0 0 0.67 -0.23 8.67 8.67 0 0 0 0.77 -0.47 0.34 0.34 0 0 0 0.13 -0.44Z" fill="#4C57E6" stroke-width="1"></path>
    <path d="M14 6.9c-0.6 0.11 -1 1.52 0.18 1.3a1 1 0 0 0 0.35 -0.11A0.66 0.66 0 0 0 14 6.9Z" fill="#4C57E6" stroke-width="1"></path>
    <path d="M11.13 6.11c-0.6 0.11 -1 1.52 0.18 1.3a0.86 0.86 0 0 0 0.35 -0.12 0.66 0.66 0 0 0 -0.53 -1.18Z" fill="#4C57E6" stroke-width="1"></path>
    <path d="M12.05 8.56c-0.46 0.08 -0.76 1.15 0.13 1a0.61 0.61 0 0 0 0.26 -0.08 0.5 0.5 0 0 0 -0.39 -0.92Z" fill="#4C57E6" stroke-width="1"></path>
  </g>
</svg>