<svg xmlns="http://www.w3.org/2000/svg" viewBox="0 0 24 24" id="Water-Pitcher-2--Streamline-Freehand">
  <desc>
    Water Pitcher 2 Streamline Icon: https://streamlinehq.com
  </desc>
  <g>
    <path d="M23.81 2.5a0.3 0.3 0 0 0 -0.39 0.17 8.57 8.57 0 0 1 -0.57 1c-1 1.52 -2.7 3.76 -2.75 4A12.18 12.18 0 0 0 20 9.4c0 1.88 0.06 4.82 0 6.7 0 0.73 0.14 2 0.08 3.11a2.83 2.83 0 0 1 -0.44 1.66 1.9 1.9 0 0 1 -1.08 0.48c-0.69 0.15 -1.49 0.2 -2.24 0.32a14.65 14.65 0 0 1 -1.68 0.18 15.6 15.6 0 0 1 -1.68 0 28 28 0 0 1 -2.93 -0.31A3.86 3.86 0 0 1 8.48 21a2.87 2.87 0 0 1 -0.73 -1.84 47.55 47.55 0 0 1 0 -5.6l0 -4.7c0 -0.31 0.36 -5 0.36 -5A1.79 1.79 0 0 1 8.37 3a1.32 1.32 0 0 1 0.54 -0.21c0.46 -0.12 1 -0.19 1.24 -0.25a16.66 16.66 0 0 1 2.47 -0.39c1.22 -0.12 2.46 -0.14 3.81 -0.2 1.1 0 2 -0.15 3 -0.16a13.15 13.15 0 0 1 1.93 0.12c0.3 0 0.72 0 1.1 0.11a1.32 1.32 0 0 1 0.55 0.17 0.35 0.35 0 1 0 0.39 -0.57 1.9 1.9 0 0 0 -0.63 -0.26c-0.43 -0.1 -0.94 -0.1 -1.3 -0.15a13.78 13.78 0 0 0 -2 -0.17c-1 0 -1.9 0.07 -3 0.11 -1.37 0 -2.62 0 -3.86 0.13A18.11 18.11 0 0 0 10 1.6c-0.31 0.07 -1 0.15 -1.5 0.3a2.41 2.41 0 0 0 -0.5 0.16 0.36 0.36 0 0 0 -0.18 0l-3.25 0.49a15.49 15.49 0 0 0 -2.79 0.56A2.61 2.61 0 0 0 0.25 4.66 3.88 3.88 0 0 0 0 6.19a10.86 10.86 0 0 0 0.46 2.1c0.3 1.1 0.57 2.09 0.9 3.05a30 30 0 0 0 1.17 3 20.43 20.43 0 0 0 1.12 2.43 3.1 3.1 0 0 0 0.85 1 1.71 1.71 0 0 0 0.82 0.28c0.39 0.05 0.82 0 1.2 0a10.28 10.28 0 0 0 0.09 1.28 3.94 3.94 0 0 0 1.11 2.57 4 4 0 0 0 1.63 0.69 24.55 24.55 0 0 0 3.58 0.42 13.66 13.66 0 0 0 1.81 0 14.32 14.32 0 0 0 1.8 -0.21 26.32 26.32 0 0 0 2.7 -0.48 2.64 2.64 0 0 0 1.22 -0.73 3.25 3.25 0 0 0 0.61 -1.74A30 30 0 0 0 21 16.1c0 -1.88 -0.16 -4.82 -0.19 -6.71a11 11 0 0 1 0 -1.6c0 -0.21 1.33 -1.91 2.24 -3.31A11 11 0 0 0 24 2.9a0.31 0.31 0 0 0 -0.19 -0.4ZM5.43 17.24a1 1 0 0 1 -0.43 -0.18 2.72 2.72 0 0 1 -0.73 -1c-0.33 -0.7 -0.57 -1.5 -0.79 -2.07 -0.33 -0.82 -0.59 -1.59 -0.83 -2.35 -0.37 -1.15 -0.69 -2.29 -1 -3.6a9.84 9.84 0 0 1 -0.44 -1.86A2.76 2.76 0 0 1 1.28 5a1.62 1.62 0 0 1 0.92 -1 14.56 14.56 0 0 1 2.58 -0.69l2.63 -0.55a3.21 3.21 0 0 0 -0.18 0.68S6.77 8 6.73 8.78c-0.09 1.57 -0.1 3.13 -0.12 4.76 0 1.15 -0.09 2.5 -0.1 3.77a7.83 7.83 0 0 1 -1.08 -0.07Z" fill="#020202" stroke-width="1"></path>
    <path d="M18.77 11.82a4 4 0 0 1 -1.63 0.56 3.72 3.72 0 0 1 -1.67 -0.12c-0.7 -0.2 -1.52 -0.59 -2.4 -0.83a6.2 6.2 0 0 0 -1.81 -0.23 3.61 3.61 0 0 0 -2.78 1.28 0.3 0.3 0 0 0 0.43 0.43 2.91 2.91 0 0 1 2.32 -0.72 6.7 6.7 0 0 1 1.52 0.35c0.87 0.27 1.72 0.59 2.43 0.77a4.81 4.81 0 0 0 2.13 -0.06 4.69 4.69 0 0 0 1.89 -0.89 0.35 0.35 0 0 0 0.05 -0.49 0.34 0.34 0 0 0 -0.48 -0.05Z" fill="#4C57E6" stroke-width="1"></path>
  </g>
</svg>