<svg xmlns="http://www.w3.org/2000/svg" viewBox="0 0 24 24" id="Wealth-Diamond--Streamline-Freehand">
  <desc>
    Wealth Diamond Streamline Icon: https://streamlinehq.com
  </desc>
  <g>
    <path d="M11.27 15.33a0.39 0.39 0 0 0 -0.41 0.38 0.69 0.69 0 0 1 -0.44 0.6 1.65 1.65 0 0 1 -1 0 7 7 0 0 1 -2 -0.78A4.93 4.93 0 0 1 5.8 14.3c-0.34 -0.37 -0.55 -0.69 -0.45 -1s0.47 -0.46 1 -0.49a0.35 0.35 0 0 0 0.35 -0.35 0.34 0.34 0 0 0 -0.34 -0.34 1.81 1.81 0 0 0 -1.78 0.88 2.05 2.05 0 0 0 0.35 2.11 5.56 5.56 0 0 0 0.47 0.51c-0.36 0.41 -0.72 0.83 -1.05 1.28 -0.18 0.26 -0.35 0.5 -0.51 0.75s-0.44 0.78 -0.67 1.15c-0.36 0.77 -0.79 1.53 -1.14 2.3a12.29 12.29 0 0 0 -0.65 1.65 0.38 0.38 0 0 0 0.21 0.5 0.4 0.4 0 0 0 0.52 -0.25c0.18 -0.37 0.39 -0.73 0.6 -1.09 0.52 -0.85 1.1 -1.67 1.63 -2.51 0.19 -0.36 0.4 -0.72 0.58 -1.1 0.26 -0.54 0.49 -1.11 0.77 -1.65 0.09 -0.18 0.2 -0.35 0.3 -0.53a5.34 5.34 0 0 0 0.89 0.6 6.49 6.49 0 0 0 0.92 0.36c-0.51 0.5 -1 1 -1.5 1.53 -0.29 0.34 -0.57 0.69 -0.83 1s-0.52 0.71 -0.77 1.09c-0.57 0.86 -1.09 1.75 -1.63 2.63a0.39 0.39 0 0 0 0.08 0.55 0.41 0.41 0 0 0 0.56 -0.08c0.66 -0.8 1.34 -1.56 2 -2.36 0.29 -0.34 0.56 -0.69 0.83 -1s0.53 -0.71 0.77 -1.07c0.47 -0.69 0.92 -1.39 1.39 -2.08 0.2 0 0.4 0.1 0.6 0.12a2.43 2.43 0 0 0 1.81 -0.41 1.52 1.52 0 0 0 0.54 -1.23 0.39 0.39 0 0 0 -0.38 -0.44Z" fill="#020202" fill-rule="evenodd" stroke-width="1"></path>
    <path d="M17.35 6.59a3.51 3.51 0 0 0 -0.52 -0.36l-1.54 -1.07a15.87 15.87 0 0 0 -2.92 -1.6 4.08 4.08 0 0 0 -2.45 -0.22 4.66 4.66 0 0 0 -0.92 0.43c-0.65 0.38 -1.29 0.89 -1.83 1.22a1.13 1.13 0 0 0 -0.3 0.56c0 1 0 2 0.12 3C7 9 7 9.39 7.1 9.81s0.15 0.86 0.26 1.28a17.42 17.42 0 0 0 1 2.84c0 0.06 0.07 0.08 0.1 0.12a0.34 0.34 0 0 0 0.37 0.18 18.08 18.08 0 0 0 2.94 -0.61 11.61 11.61 0 0 0 1.2 -0.44c0.39 -0.15 0.76 -0.34 1.14 -0.53C14.24 12.61 17 11.1 17 11c0.12 -0.79 0.49 -1.81 0.62 -2.75a3.6 3.6 0 0 0 -0.1 -1.4 0.84 0.84 0 0 0 -0.17 -0.26Zm-1.19 0.62c0.17 0.11 0.43 0 0.42 1a9.87 9.87 0 0 1 -0.21 1.7L14.56 9l0 -0.52 0.2 -2.06Zm-6.34 5.06 0.59 -3.21 0.09 -1 0.56 0.38a20.21 20.21 0 0 0 1.85 1l-0.05 0.05c-0.3 0.25 -0.62 0.49 -0.89 0.72 -0.56 0.52 -1.12 1 -1.67 1.58ZM13 8.05l-1.68 -1a9.42 9.42 0 0 1 1.16 -0.83 9.33 9.33 0 0 1 1.19 -0.58l0.39 0.25 -0.06 0.29c-0.18 0.69 -0.4 1.35 -0.59 2v0.07ZM9.12 4.72a3.73 3.73 0 0 1 1 -0.37 3.22 3.22 0 0 1 1.74 0.39c0.29 0.13 0.55 0.29 0.83 0.44a5.49 5.49 0 0 0 -0.69 0.21 9.45 9.45 0 0 0 -1.66 0.81c-0.1 0.07 -0.25 0.15 -0.39 0.23L7.89 5.37c0.39 -0.21 0.81 -0.44 1.23 -0.65Zm-0.85 4.06c-0.15 -0.87 -0.34 -1.78 -0.51 -2.63l1.56 1.13a1.35 1.35 0 0 0 -0.13 0.37c-0.06 0.44 0 1 -0.06 1.26l-0.23 3.91c-0.11 -0.7 -0.21 -1.39 -0.31 -2.07s-0.21 -1.31 -0.32 -1.97Zm5.39 2.73c-0.39 0.14 -0.77 0.3 -1.15 0.45l-1.14 0.48 -0.68 0.28 0.26 -0.2c0.6 -0.46 1.22 -0.89 1.84 -1.33 0.32 -0.27 0.75 -0.54 1.09 -0.85a2.3 2.3 0 0 0 0.3 -0.33l1.74 0.63Z" fill="#4C57E6" fill-rule="evenodd" stroke-width="1"></path>
    <path d="M15.92 3.19a4.19 4.19 0 0 0 0.26 -0.33 2.06 2.06 0 0 0 0.23 -0.37c0.54 -1.21 0.49 -1.37 0.27 -1.51s-0.37 -0.15 -1.29 0.78c-0.1 0.1 -0.19 0.22 -0.28 0.33a3.17 3.17 0 0 0 -0.23 0.36c-0.59 1.32 -0.36 1.39 -0.25 1.46s0.28 0.24 1.29 -0.72Z" fill="#4C57E6" fill-rule="evenodd" stroke-width="1"></path>
    <path d="M21.21 7.34a3.71 3.71 0 0 0 -0.47 0 1.8 1.8 0 0 0 -0.46 0.05c-1.4 0.29 -1.37 0.56 -1.36 0.7s0 0.39 1.41 0.56a3.17 3.17 0 0 0 0.44 0l0.44 0c1.32 -0.25 1.43 -0.31 1.44 -0.6s0.1 -0.47 -1.44 -0.71Z" fill="#4C57E6" fill-rule="evenodd" stroke-width="1"></path>
    <path d="M16.22 13.79c-0.13 0 -0.3 0 -0.25 1.44a3.41 3.41 0 0 0 0.06 0.43 3.71 3.71 0 0 0 0.12 0.41c0.46 1.23 0.66 1.33 0.94 1.26s0.38 0 0.28 -1.53a2.49 2.49 0 0 0 -0.11 -0.7c-0.05 -0.1 -0.61 -1.48 -1.04 -1.31Z" fill="#4C57E6" fill-rule="evenodd" stroke-width="1"></path>
    <path d="M3.17 9.6c0.12 0 0.25 0 0.37 -0.06l0.37 -0.13c1.26 -0.58 1.15 -0.75 1.09 -0.87 0 -0.39 -1.25 -0.36 -1.38 -0.35a1.93 1.93 0 0 0 -0.42 0.06 3.33 3.33 0 0 0 -0.4 0.16c-1.15 0.59 -1.18 0.83 -1.07 1.07s0.32 0.24 1.44 0.12Z" fill="#4C57E6" fill-rule="evenodd" stroke-width="1"></path>
    <path d="M5.92 1.35c0 0.11 0 0.21 0.08 0.32a1.83 1.83 0 0 0 0.14 0.33s0.65 0.94 1 0.85 0.23 -1.26 0.22 -1.29 0 -0.22 -0.08 -0.33 -0.14 -0.23 -0.2 -0.35C6.43 -0.08 6.24 0 6 0s-0.26 0.2 -0.08 1.35Z" fill="#4C57E6" fill-rule="evenodd" stroke-width="1"></path>
  </g>
</svg>