<svg xmlns="http://www.w3.org/2000/svg" viewBox="0 0 24 24" id="Wealth-Treasure-Chest-Close--Streamline-Freehand">
  <desc>
    Wealth Treasure Chest Close Streamline Icon: https://streamlinehq.com
  </desc>
  <g>
    <path d="m1.75 20.45 0.07 0.08s-0.04 -0.07 -0.07 -0.08Z" fill="#020202" fill-rule="evenodd" stroke-width="1"></path>
    <path d="m22.64 20 0.05 -0.06s-0.04 0.06 -0.05 0.06Z" fill="#020202" fill-rule="evenodd" stroke-width="1"></path>
    <path d="m23.85 16.51 -0.4 -6.9a0.36 0.36 0 0 0 0.28 -0.16 0.35 0.35 0 0 0 0.09 -0.26 10.84 10.84 0 0 0 -0.94 -3.08 9 9 0 0 0 -1.83 -2.69 5.57 5.57 0 0 0 -3 -1 57.49 57.49 0 0 0 -7 0c-1.26 0 -2.46 0 -3.57 0.1A9.39 9.39 0 0 0 2.2 4.07C0.9 5.13 0.15 6.86 0.29 9.78l0 0.07a0.27 0.27 0 0 0 -0.19 0.22A21 21 0 0 0 0 12.3c0 0.74 0 1.48 0.06 2.22l0.42 4.09a11.17 11.17 0 0 0 0.16 1.47 2.46 2.46 0 0 0 0.47 1 2.46 2.46 0 0 0 1.36 0.41 87 87 0 0 0 9.78 0.17A90.26 90.26 0 0 0 22 21a2.57 2.57 0 0 0 1.31 -0.47 3 3 0 0 0 0.69 -1.64 14.25 14.25 0 0 0 -0.15 -2.38ZM8.17 3.53l2.88 0c1.01 0 2.26 -0.12 3.72 -0.17 0.26 0.75 0.49 1.49 0.74 2.22 0.2 0.58 0.42 1.14 0.59 1.73a14.08 14.08 0 0 1 0.34 1.46h-1c-1.15 0 -2.31 0 -3.45 0.06s-2.31 0.09 -3.46 0.17l-2.16 0.17a9.64 9.64 0 0 1 0.38 -1.77c0.18 -0.58 0.41 -1.14 0.62 -1.71 0.27 -0.69 0.52 -1.44 0.8 -2.16Zm-5.46 1.2a7.53 7.53 0 0 1 4 -1.14l0.67 0c-0.27 0.42 -0.53 0.84 -0.76 1.28a8.2 8.2 0 0 0 -0.42 1 8.54 8.54 0 0 0 -0.29 1 9.26 9.26 0 0 0 -0.17 2.36c-1.68 0.16 -3.3 0.35 -4.82 0.56 -0.06 -2.64 0.6 -4.17 1.79 -5.06ZM23.09 18.8a2.16 2.16 0 0 1 -0.4 1.1c0.06 0.13 -0.42 0.11 -0.82 0.16 -0.93 0.14 -2.41 0.24 -4.17 0.33l0 -2.75 0 -1.42c0 -0.48 -0.06 -0.94 -0.11 -1.41 -0.07 -0.65 -0.16 -0.91 -0.26 -1.56s-0.79 -0.39 -0.78 0l0 1.62c0 0.47 0 0.94 0.05 1.41s0.07 0.94 0.11 1.41c0.08 0.91 0.19 1.82 0.29 2.73 -1.49 0.07 -3.12 0.13 -4.77 0.17 -1.83 0 -3.66 0.08 -5.29 0.09 0 -1 -0.07 -2 -0.12 -3 0 -0.42 -0.05 -0.85 -0.08 -1.28l-0.12 -1.28c-0.08 -0.73 -0.07 -0.85 -0.15 -1.58 -0.31 -0.51 -0.53 -0.42 -0.71 0a14.79 14.79 0 0 0 -0.19 1.63c0 0.43 0 0.87 0.06 1.3s0.1 0.86 0.16 1.29c0.13 1 0.32 1.92 0.49 2.88 -1.56 0 -2.87 0 -3.73 -0.11 -0.39 0 -0.87 0 -0.81 -0.12a2.16 2.16 0 0 1 -0.25 -0.58 11 11 0 0 1 -0.18 -1.36l-0.55 -4C0.7 13.74 0.65 13 0.64 12.29a18 18 0 0 1 0.06 -1.94c2.49 -0.19 15.14 -0.62 15.9 -0.64 2.16 -0.06 4.24 -0.11 6.18 -0.1l0.24 7a13.67 13.67 0 0 1 0.07 2.19ZM17.17 8.73a10.54 10.54 0 0 0 -0.17 -2 9.6 9.6 0 0 0 -0.27 -1 8.18 8.18 0 0 0 -0.39 -1 14 14 0 0 0 -0.79 -1.41 20.6 20.6 0 0 1 2.38 0.06 4.7 4.7 0 0 1 2.56 0.72 8.06 8.06 0 0 1 1.74 2.38 10 10 0 0 1 0.9 2.48c-1.87 -0.13 -3.88 -0.2 -5.96 -0.23Z" fill="#020202" fill-rule="evenodd" stroke-width="1"></path>
    <path d="M18.46 12.69c0.48 0 0.95 0 1.43 -0.08 0.95 -0.07 1.33 -0.17 2.28 -0.25 0.78 -0.1 0.62 -0.71 0 -0.72 -0.94 0 -1.33 -0.06 -2.29 -0.06l-1.43 0a25.58 25.58 0 0 0 -4 0.3 5.78 5.78 0 0 0 -0.09 -1.63c-0.15 -0.41 -0.84 -0.31 -0.7 0.13a4.27 4.27 0 0 1 -0.79 3.24 1.86 1.86 0 0 1 -1.32 0.53 1.65 1.65 0 0 1 -1.3 -0.43 1.56 1.56 0 0 1 -0.39 -0.61 7.32 7.32 0 0 1 -0.42 -2.24l0 -0.49c0 -0.43 -0.58 -0.41 -0.69 0.12a4.93 4.93 0 0 0 -0.07 0.66l0 0.72c-0.74 -0.05 -1.47 -0.09 -2.2 -0.11H5.21c-0.43 0 -3.62 0.17 -4 0.22 -0.66 0.08 -0.43 0.58 -0.07 0.63s6.9 0.08 7.68 0a4.37 4.37 0 0 0 0.24 1 2.7 2.7 0 0 0 0.46 0.81 2.72 2.72 0 0 0 2.14 0.79 2.91 2.91 0 0 0 2 -0.94 3.7 3.7 0 0 0 0.74 -1.73c0.71 0.08 3.68 0.15 4.06 0.14Z" fill="#4C57E6" fill-rule="evenodd" stroke-width="1"></path>
  </g>
</svg>