<svg xmlns="http://www.w3.org/2000/svg" viewBox="0 0 24 24" id="Wearable-Device-Ring-1--Streamline-Freehand">
  <desc>
    Wearable Device Ring 1 Streamline Icon: https://streamlinehq.com
  </desc>
  <g>
    <path d="M23.92 5.83a10.28 10.28 0 0 0 -0.4 -2.06 5.07 5.07 0 0 0 -0.66 -1.34 3.32 3.32 0 0 0 -1.39 -1.08 9.75 9.75 0 0 0 -2.29 -0.61c-0.5 -0.08 -1 -0.13 -1.51 -0.16 -0.74 0 -1.49 0 -2.22 -0.07a12.51 12.51 0 0 0 -4.31 0.37 3.75 3.75 0 0 0 -2.25 2.06 4.51 4.51 0 0 0 -0.36 1.33c-0.09 0.66 -0.09 1.34 -0.12 1.93a12.5 12.5 0 0 0 0.13 3 2.77 2.77 0 0 0 1.1 1.8 2 2 0 0 0 0.74 0.26 4.31 4.31 0 0 0 0.8 0.06c0 0.68 -0.08 2.07 0 2.66a0.62 0.62 0 0 0 0.38 0.58 0.9 0.9 0 0 0 0.48 -0.1c0.35 -0.16 0.85 -0.52 1 -0.6a2.55 2.55 0 0 0 0.46 -0.35 16.13 16.13 0 0 1 1.29 -1.26h0.05c0.48 0 1.63 0.29 1.78 0.3l1.74 0a9.85 9.85 0 0 0 3.17 -0.55 3.74 3.74 0 0 0 1.84 -1.42 3.23 3.23 0 0 0 0.39 -1A8.47 8.47 0 0 0 24 8.24l0 -1.21c0 -0.4 0 -0.8 -0.08 -1.2Zm-1 2.34a6.52 6.52 0 0 1 -0.14 1.22 2.26 2.26 0 0 1 -0.25 0.67 2.91 2.91 0 0 1 -1.35 1.07 9 9 0 0 1 -2.85 0.62h-1.68c-0.14 0 -1 -0.17 -1.53 -0.24a1.75 1.75 0 0 0 -0.62 0 2.27 2.27 0 0 0 -0.5 0.38 11.24 11.24 0 0 1 -1.33 1.34c-0.11 0.06 -0.58 0.39 -0.83 0.34l0 -2.22s0.1 -0.61 -0.39 -0.59a4.45 4.45 0 0 1 -0.95 -0.06 1.48 1.48 0 0 1 -0.52 -0.2 2.19 2.19 0 0 1 -0.78 -1.45 11.12 11.12 0 0 1 0 -2.82c0 -0.58 0.06 -1.23 0.16 -1.86a4.31 4.31 0 0 1 0.3 -1.07 2.84 2.84 0 0 1 1.78 -1.53 11.57 11.57 0 0 1 4 -0.21c0.72 0 1.45 0 2.17 0.09 0.47 0 0.94 0.09 1.4 0.17a8.83 8.83 0 0 1 2 0.53 2.27 2.27 0 0 1 0.95 0.71 4.08 4.08 0 0 1 0.51 1.05A9.61 9.61 0 0 1 22.84 6a10.19 10.19 0 0 1 0.09 1.1c0 0.33 0 0.69 -0.03 1.07Z" fill="#020202" fill-rule="evenodd" stroke-width="1"></path>
    <path d="M20.29 5.49a6.8 6.8 0 0 0 -1 0 5 5 0 0 0 -1 0.17 3.59 3.59 0 0 0 -0.48 0.17l-0.42 -1.07 -0.16 -0.34S17 4 16.91 3.91a0.49 0.49 0 0 0 -0.55 -0.17 0.56 0.56 0 0 0 -0.36 0.35 9 9 0 0 0 -0.25 0.92c-0.14 0.52 -0.3 1 -0.46 1.57 -0.08 0.25 -0.16 0.49 -0.26 0.74l-0.81 -2.23 -0.4 -0.77c-0.05 -0.08 -0.12 -0.25 -0.17 -0.32a0.49 0.49 0 0 0 -0.24 -0.19 0.41 0.41 0 0 0 -0.57 0.29c-0.14 0.45 -0.13 1 -0.23 1.52a1.46 1.46 0 0 1 -0.12 0.37l-0.29 0 -1.29 0.2a0.3 0.3 0 0 0 -0.26 0.32 0.29 0.29 0 0 0 0.32 0.25l1.34 -0.12a3.39 3.39 0 0 0 0.46 0A0.52 0.52 0 0 0 13 6.5a2.07 2.07 0 0 0 0.34 -0.7c0 -0.07 0 -0.14 0.05 -0.21l0.8 2.56a7.2 7.2 0 0 0 0.3 0.73 0.6 0.6 0 0 0 0.63 0.33 0.67 0.67 0 0 0 0.42 -0.29A6.89 6.89 0 0 0 16 8c0.14 -0.35 0.26 -0.72 0.37 -1.09s0.26 -1 0.37 -1.46l0.32 0.69c0 0.08 0.17 0.4 0.25 0.52a0.49 0.49 0 0 0 0.39 0.22 0.72 0.72 0 0 0 0.3 -0.14c0.16 -0.1 0.35 -0.32 0.5 -0.37a3.94 3.94 0 0 1 0.84 -0.19 4.52 4.52 0 0 1 0.9 0 0.33 0.33 0 0 0 0.34 -0.31 0.32 0.32 0 0 0 -0.29 -0.38Z" fill="#4C57E6" fill-rule="evenodd" stroke-width="1"></path>
    <path d="M6.46 13.47c0 -0.16 0 -0.32 -0.89 -0.51l-0.24 0a0.93 0.93 0 0 0 -0.24 0.05c-0.1 0 -0.82 0.34 -0.78 0.61 0 0 -0.07 0.26 0.86 0.43h0.22a0.79 0.79 0 0 0 0.22 0c0.81 -0.29 0.85 -0.41 0.85 -0.58Z" fill="#4C57E6" fill-rule="evenodd" stroke-width="1"></path>
    <path d="M7.05 16.81a1.78 1.78 0 0 0 0.33 -0.09 1.27 1.27 0 0 0 0.46 -0.3 0.93 0.93 0 0 0 0.16 -0.48c0.06 -0.35 0 -0.89 0 -1.11 0.06 -0.82 0.28 -1.74 0.28 -2.62a4.42 4.42 0 0 0 -0.15 -1.27A1.56 1.56 0 0 0 7 9.88a6.72 6.72 0 0 0 -2.76 0.17 3.19 3.19 0 0 0 -0.74 0.24 1.47 1.47 0 0 0 -0.5 0.38 1.52 1.52 0 0 0 -0.28 0.57 5.69 5.69 0 0 0 -0.12 1.11A15.71 15.71 0 0 0 2.59 14c0 0.51 0 1 0.06 1.52a0.27 0.27 0 0 0 -0.12 0.06 0.33 0.33 0 0 0 0 0.46 1.89 1.89 0 0 0 0.94 0.58 10.68 10.68 0 0 0 1.22 0.2 23.7 23.7 0 0 0 2.36 -0.01Zm-3.86 -1a0.33 0.33 0 0 0 0.05 -0.16l0 -1.63c0 -0.54 0.09 -1.06 0.17 -1.6a6 6 0 0 1 0.13 -0.84 0.68 0.68 0 0 1 0.16 -0.33 0.58 0.58 0 0 1 0.3 -0.13 2.73 2.73 0 0 1 0.44 -0.1 7.8 7.8 0 0 1 2 -0.15c0.3 0 0.59 0.11 0.67 0.39a3.26 3.26 0 0 1 0.12 1c0 0.85 -0.16 1.76 -0.19 2.56C7.17 16 6.8 16 6.8 16a1.56 1.56 0 0 1 -0.33 0.05h-0.15a15.65 15.65 0 0 1 -2.11 0 2.45 2.45 0 0 1 -1.02 -0.22Z" fill="#4C57E6" stroke-width="1"></path>
    <path d="m3.1 18.76 -0.05 0.38c-0.28 -0.17 -0.56 -0.37 -0.86 -0.52a2.79 2.79 0 0 0 -0.85 -0.26 1.08 1.08 0 0 0 -1 0.41 1.58 1.58 0 0 0 -0.34 1.3 3.22 3.22 0 0 0 0.6 1.07c0.48 0.63 1.16 1.14 1.58 1.79a0.33 0.33 0 0 0 0.57 -0.32c-0.36 -0.7 -1 -1.3 -1.41 -2a2.22 2.22 0 0 1 -0.34 -0.76 0.57 0.57 0 0 1 0.06 -0.28c0 -0.06 0 -0.14 0.12 -0.12a6 6 0 0 1 1.59 0.71 2.78 2.78 0 0 0 0.56 0.17 0.54 0.54 0 0 0 0.47 -0.11 0.56 0.56 0 0 0 0.2 -0.32l0 -0.43 0 -0.65 0 -1.55c-0.05 -0.37 -0.61 -0.43 -0.63 -0.13Z" fill="#020202" stroke-width="1"></path>
    <path d="M10.69 19.39a4.06 4.06 0 0 0 -1.27 -0.9A10.93 10.93 0 0 0 8.07 18l-1.26 -0.33 -0.12 -0.05 0 -0.23c0 -0.23 -0.67 -0.31 -0.72 0l0 0.51a0.45 0.45 0 0 0 0.21 0.39c0.08 0.07 0.27 0.08 0.38 0.13l1.22 0.51c0.37 0.15 0.79 0.33 1.21 0.53a4.69 4.69 0 0 1 1 0.66 1.41 1.41 0 0 1 0.5 1.23 2.94 2.94 0 0 1 -0.16 0.65c-0.12 0.35 -0.28 0.7 -0.41 1a0.32 0.32 0 0 0 0.16 0.44 0.33 0.33 0 0 0 0.43 -0.16c0.17 -0.33 0.37 -0.67 0.54 -1a3.72 3.72 0 0 0 0.28 -0.79 2.21 2.21 0 0 0 -0.64 -2.1Z" fill="#020202" stroke-width="1"></path>
  </g>
</svg>