<svg xmlns="http://www.w3.org/2000/svg" viewBox="0 0 24 24" id="Wearable-Device-Smart-Band-2--Streamline-Freehand">
  <desc>
    Wearable Device Smart Band 2 Streamline Icon: https://streamlinehq.com
  </desc>
  <g>
    <path d="M13.44 16.75a2 2 0 0 0 -0.4 -0.06l-0.71 0 0 -0.18 0.07 -1.16 0 -1.29v-1.24a5 5 0 0 0 -0.7 -2.56 1.86 1.86 0 0 0 -1.9 -0.74 2.29 2.29 0 0 0 -0.55 0.16 1.55 1.55 0 0 0 -0.41 0.25 2.43 2.43 0 0 0 -0.67 1.23A8.48 8.48 0 0 0 8 12.91l0 2.34 0 2.33c0 0.28 0.06 0.6 0.09 0.92L8 18.43a2.73 2.73 0 0 0 -1.22 -0.52 2.1 2.1 0 0 0 -1.35 0.21 1.24 1.24 0 0 0 -0.71 1.16 4.84 4.84 0 0 0 1.19 2.26l1.45 1.78a0.29 0.29 0 1 0 0.46 -0.32l-1.38 -1.85a5.82 5.82 0 0 1 -0.94 -1.63 0.56 0.56 0 0 1 0.31 -0.7 1.3 1.3 0 0 1 0.83 -0.09 2 2 0 0 1 0.81 0.39l0.58 0.53c0 0.05 0.11 0.17 0.15 0.21a0.53 0.53 0 0 0 0.3 0.14 0.43 0.43 0 0 0 0.52 -0.36 2.65 2.65 0 0 0 0.09 -0.71c0 -0.46 -0.09 -1 -0.09 -1.36L9.1 13a9.42 9.42 0 0 1 0.15 -1.53 1.38 1.38 0 0 1 0.34 -0.67l0.4 -0.14a0.88 0.88 0 0 1 1 0.55 4.67 4.67 0 0 1 0.36 1.7l0.05 1.21v1.25l0 1.15c0 0.17 -0.1 0.41 -0.08 0.55a0.58 0.58 0 0 0 0.3 0.43 1.32 1.32 0 0 0 0.49 0.13 8.2 8.2 0 0 1 1.13 0 5.1 5.1 0 0 1 2.38 1.19 2.5 2.5 0 0 1 0.61 2.37A4.32 4.32 0 0 1 16 22a6.71 6.71 0 0 1 -0.35 0.77 0.34 0.34 0 0 0 0.13 0.46 0.35 0.35 0 0 0 0.45 -0.13c0.15 -0.28 0.29 -0.56 0.41 -0.85a5.37 5.37 0 0 0 0.29 -0.91 3.19 3.19 0 0 0 -0.73 -3.06 5.9 5.9 0 0 0 -2.76 -1.53Z" fill="#020202" stroke-width="1"></path>
    <path d="M8 6.05a1.39 1.39 0 0 0 -0.9 -0.24 0.32 0.32 0 0 0 -0.1 -0.25 0.3 0.3 0 0 0 -0.41 0A2.11 2.11 0 0 0 6 6a1.22 1.22 0 0 0 -0.19 0.6 1.06 1.06 0 0 0 0.67 1 1.23 1.23 0 0 0 1.22 -0.14c0.77 -0.61 0.64 -1.13 0.3 -1.41Z" fill="#4C57E6" stroke-width="1"></path>
    <path d="M23.78 5.23a7 7 0 0 0 -1.2 -2.79 4.48 4.48 0 0 0 -2.4 -1.62 14.45 14.45 0 0 0 -4 -0.23 14.19 14.19 0 0 0 -2.32 0.15 4.2 4.2 0 0 0 -1.54 0.6A5.72 5.72 0 0 0 11 2.63c-0.2 0.28 -0.21 0.27 -0.39 0.56 -0.4 0.54 -0.28 1.27 0.13 1.06a10.4 10.4 0 0 1 0.81 -1.19A4.84 4.84 0 0 1 12.72 2 3.23 3.23 0 0 1 14 1.57a13.31 13.31 0 0 1 2.18 0 13.72 13.72 0 0 1 3.71 0.34 3.46 3.46 0 0 1 1.82 1.25 6.53 6.53 0 0 1 1.13 3 12.62 12.62 0 0 1 0 3.36 5.26 5.26 0 0 1 -0.39 1.48 2.4 2.4 0 0 1 -1 1.09 5 5 0 0 1 -2.11 0.59c-1.19 0.1 -2.43 -0.05 -3.58 0a0.34 0.34 0 0 0 -0.33 0.34 0.34 0.34 0 0 0 0.34 0.33c0.88 0 1.81 0.11 2.74 0.14a3.85 3.85 0 0 1 -1.63 1 4.46 4.46 0 0 1 -0.74 0.19 6 6 0 0 1 -1.91 0.07 0.29 0.29 0 0 0 -0.35 0.22 0.29 0.29 0 0 0 0.21 0.35 5.56 5.56 0 0 0 2.17 0.42 3 3 0 0 0 1 -0.2 3.07 3.07 0 0 0 0.89 -0.48 4.66 4.66 0 0 0 1.27 -1.61 5.73 5.73 0 0 0 2.46 -0.61 3.2 3.2 0 0 0 1.21 -1.08 5.32 5.32 0 0 0 0.74 -2.19 12.48 12.48 0 0 0 -0.05 -4.34Z" fill="#020202" stroke-width="1"></path>
    <path d="M10 4.36a2.58 2.58 0 0 0 -0.32 -1.2 2.45 2.45 0 0 0 -0.91 -0.6 7.07 7.07 0 0 0 -2.64 -0.46 2.9 2.9 0 0 0 -1.88 0.62 3 3 0 0 0 -0.83 1.62c0 0.25 -0.14 1.45 -0.13 1.45l0 0.93c0 0.6 0.05 1.18 0.1 1.77 0.08 0.87 0.19 1.74 0.29 2.6a19.31 19.31 0 0 0 0.25 2.22l0.16 0.5a2.16 2.16 0 0 0 1.43 1.25l1.07 0.21A0.34 0.34 0 0 0 7 15a0.33 0.33 0 0 0 -0.28 -0.37l-0.94 -0.22a1.44 1.44 0 0 1 -1 -0.93A10.14 10.14 0 0 1 4.6 11c-0.06 -0.86 -0.12 -1.73 -0.16 -2.59 0 -0.57 -0.05 -1.13 -0.05 -1.7a10.77 10.77 0 0 1 0.13 -2.15A1.94 1.94 0 0 1 5 3.52a2.24 2.24 0 0 1 1.53 -0.36 6.33 6.33 0 0 1 1.84 0.26 1.77 1.77 0 0 1 0.53 0.27 0.46 0.46 0 0 1 0.2 0.32l0.23 4.3a0.3 0.3 0 0 0 0.59 0Z" fill="#4C57E6" stroke-width="1"></path>
    <path d="M3.31 13.09a4.94 4.94 0 0 0 -0.55 -0.15 4.6 4.6 0 0 0 -0.52 -0.06 4.51 4.51 0 0 0 -0.52 0c-0.41 0 -0.8 0.08 -1.21 0.12a0.32 0.32 0 0 0 -0.35 0.3 0.33 0.33 0 0 0 0.3 0.36c0.4 0.09 0.79 0.2 1.2 0.27a4.43 4.43 0 0 0 0.51 0.06 4.13 4.13 0 0 0 0.5 0c0.28 0 0.55 0 0.82 -0.07a0.55 0.55 0 0 0 -0.18 -0.83Z" fill="#020202" stroke-width="1"></path>
    <path d="M2.42 4.9a3.91 3.91 0 0 0 -0.49 0 3.88 3.88 0 0 0 -0.48 0c-0.39 0 -0.75 0.14 -1.13 0.22a0.32 0.32 0 0 0 -0.32 0.35 0.34 0.34 0 0 0 0.35 0.32L1.46 6l0.47 0 0.48 0 0.33 -0.07c0.37 -0.35 0.33 -0.66 0 -0.93Z" fill="#020202" stroke-width="1"></path>
  </g>
</svg>