<svg xmlns="http://www.w3.org/2000/svg" viewBox="0 0 24 24" id="Wearable-Device-Headset--Streamline-Freehand">
  <desc>
    Wearable Device Headset Streamline Icon: https://streamlinehq.com
  </desc>
  <g>
    <path d="M22.88 9.16a5.22 5.22 0 0 0 -0.41 -1.25 0.77 0.77 0 0 0 -0.64 -0.45c-0.29 0 -2 0.14 -2.31 0.18 -1.1 0.16 -2.2 0.38 -3.28 0.55a3 3 0 0 0 -1.66 -0.38 4.1 4.1 0 0 0 -1.17 0.29 5.39 5.39 0 0 0 -0.88 0.48 2.15 2.15 0 0 0 -0.6 0.45 3.48 3.48 0 0 0 -0.45 4.3 3.73 3.73 0 0 0 1.07 1.13l-0.31 0.39a2.52 2.52 0 0 1 -0.45 0.42l-0.58 0.19 -1.16 0.54a5.58 5.58 0 0 0 -0.69 0.35L9.17 16a2 2 0 0 0 -2.56 -0.42 0.33 0.33 0 0 0 -0.17 0.44l0 0.05a1.66 1.66 0 0 0 -0.32 1.68 1.61 1.61 0 0 0 2.33 0.9 1.77 1.77 0 0 0 1.09 -1.74l2 -0.43c0.16 -0.06 0.4 -0.11 0.58 -0.19a1.24 1.24 0 0 0 0.36 -0.23 2.84 2.84 0 0 0 0.4 -0.56c0.12 -0.23 0.22 -0.47 0.32 -0.71a3.21 3.21 0 0 0 2.46 -0.11 3.38 3.38 0 0 0 0.41 -0.24l3.38 -0.27h0.22c0.22 0 1.16 -0.1 1.39 -0.14a3.46 3.46 0 0 0 1.15 -0.43 2.06 2.06 0 0 0 0.79 -1.4 9.64 9.64 0 0 0 -0.12 -3.04ZM8 17.67a0.67 0.67 0 0 1 -1 -0.23 0.89 0.89 0 0 1 0.38 -1.22 0.27 0.27 0 0 0 0.13 -0.1 1.15 1.15 0 0 1 0.91 0.5c0.23 0.38 0.13 0.8 -0.42 1.05Zm8.46 -5.11a3 3 0 0 1 -1.22 1.13 2.24 2.24 0 0 1 -2.92 -0.88 2.69 2.69 0 0 1 0.11 -3.31 1.88 1.88 0 0 1 0.25 -0.24l0.08 0a4.89 4.89 0 0 1 0.92 -0.45 3.34 3.34 0 0 1 1 -0.19 2.36 2.36 0 0 1 1.67 0.73A2.26 2.26 0 0 1 17 11a3.27 3.27 0 0 1 -0.55 1.56Zm5.53 -0.9c0 0.45 -0.08 0.88 -0.34 1.07a2.28 2.28 0 0 1 -0.77 0.32 13.94 13.94 0 0 1 -1.49 0.24l-2.33 0.33a5.85 5.85 0 0 0 0.34 -0.48A4.26 4.26 0 0 0 18 11a3.18 3.18 0 0 0 -1 -2.28c0.87 -0.09 1.75 -0.18 2.64 -0.24a15.89 15.89 0 0 1 2.07 0 4.47 4.47 0 0 1 0.12 0.89 10.42 10.42 0 0 1 0.17 2.29Z" fill="#020202" stroke-width="1"></path>
    <path d="M19.63 3a7.84 7.84 0 0 0 -1.73 -1.67 8.1 8.1 0 0 0 -2.15 -1A10.16 10.16 0 0 0 13.21 0a16.92 16.92 0 0 0 -3.73 0.44 0.3 0.3 0 0 0 -0.22 0.28 6.8 6.8 0 0 0 -3.81 2 6.82 6.82 0 0 0 -0.84 1.1 6.28 6.28 0 0 0 -0.56 1.27 11.58 11.58 0 0 0 -0.37 1.61c-0.12 0.82 -0.17 1.66 -0.22 2.47l-0.61 0.83c-0.36 0.57 -0.73 1.17 -1.06 1.79a11.61 11.61 0 0 0 -0.61 1.29 5.11 5.11 0 0 0 -0.26 0.81 1.42 1.42 0 0 0 0.08 0.79 1.73 1.73 0 0 0 0.67 0.77 3.91 3.91 0 0 0 1.16 0.44 0.75 0.75 0 0 0 0.2 0c0.09 0.44 0.21 1 0.24 1.18a8 8 0 0 0 0.54 2.44 2.86 2.86 0 0 0 1.26 1.35 4 4 0 0 0 1.83 0.45 23.86 23.86 0 0 0 2.56 -0.25c0.21 0 0.58 -0.13 0.92 -0.17 0.14 0 0.28 -0.06 0.36 0a0.7 0.7 0 0 1 0.28 0.4 4.33 4.33 0 0 1 0.2 1v1.33a0.33 0.33 0 1 0 0.66 0.06 8.46 8.46 0 0 0 0 -0.87 5.86 5.86 0 0 0 0 -0.59 4.83 4.83 0 0 0 -0.2 -1.21 1.51 1.51 0 0 0 -0.59 -0.81 1.22 1.22 0 0 0 -0.67 -0.13c-0.37 0 -0.84 0.14 -1.07 0.15a19.92 19.92 0 0 1 -2.46 0.17A3 3 0 0 1 5.54 20a1.92 1.92 0 0 1 -0.82 -0.93 7.74 7.74 0 0 1 -0.38 -2.15 8.5 8.5 0 0 0 -0.15 -1.29 1.18 1.18 0 0 0 -0.26 -0.54 0.84 0.84 0 0 0 -0.33 -0.19 4.64 4.64 0 0 0 -0.52 -0.1 3.23 3.23 0 0 1 -0.7 -0.24 0.65 0.65 0 0 1 -0.38 -0.3 0.46 0.46 0 0 1 0 -0.26c0 -0.18 0.12 -0.35 0.18 -0.51a11.26 11.26 0 0 1 0.55 -1.17c0.31 -0.6 0.66 -1.18 1 -1.74 0.1 -0.17 0.36 -0.47 0.52 -0.76a1.36 1.36 0 0 0 0.2 -0.6c0 -0.79 0 -1.6 0.12 -2.4a11.13 11.13 0 0 1 0.27 -1.53 5.35 5.35 0 0 1 0.44 -1.11A5.1 5.1 0 0 1 6 3.2a6 6 0 0 1 1.62 -1.28 6.68 6.68 0 0 1 2 -0.68 0.29 0.29 0 0 0 0.2 -0.24 16.69 16.69 0 0 1 2.75 -0.12 10 10 0 0 1 2.86 0.5 7.55 7.55 0 0 1 1.86 0.88 7.43 7.43 0 0 1 1.57 1.33 5.57 5.57 0 0 1 1.47 3.35c0.07 0.38 0.69 0.17 0.69 -0.11A6.34 6.34 0 0 0 19.63 3Z" fill="#4C57E6" stroke-width="1"></path>
    <path d="M18.8 15.89a4.42 4.42 0 0 0 -0.34 1.11 6.25 6.25 0 0 0 0 1.88c0.23 1.34 0.81 2.66 1.05 3.94a0.32 0.32 0 0 0 0.37 0.28 0.33 0.33 0 0 0 0.29 -0.37c-0.1 -1.29 -0.44 -2.67 -0.61 -4a7.18 7.18 0 0 1 -0.07 -1.6 3.33 3.33 0 0 1 0.16 -0.86c0.15 -0.53 0.22 -0.69 0.39 -1.19 0.13 -0.31 -0.45 -0.49 -0.77 0a9.1 9.1 0 0 0 -0.47 0.81Z" fill="#4C57E6" stroke-width="1"></path>
  </g>
</svg>