<svg xmlns="http://www.w3.org/2000/svg" viewBox="0 0 24 24" id="Weather-Cloud-Snow-Thunder--Streamline-Freehand">
  <desc>
    Weather Cloud Snow Thunder Streamline Icon: https://streamlinehq.com
  </desc>
  <g>
    <path d="M4.48 15.49a0.35 0.35 0 0 0 0.19 -0.68 5.18 5.18 0 0 1 -2.86 -1.93c-1.67 -2.23 0.44 -7.06 2.6 -5.2a0.31 0.31 0 0 0 0.43 -0.45c-3.4 -3.48 -8.75 6.19 -0.36 8.26Z" fill="#020202" fill-rule="evenodd" stroke-width="1"></path>
    <path d="M19.69 7c0.89 -3.62 -3.32 -5.89 -6 -4.74a5.4 5.4 0 0 0 -1.48 1 3.54 3.54 0 0 0 -4.79 -1.05A6.62 6.62 0 0 0 6 3.39c-0.6 0.64 -1.47 3.3 -0.45 2.87A0.34 0.34 0 0 0 5.7 6a4.92 4.92 0 0 1 0.82 -2.11 4.47 4.47 0 0 1 2.25 -1.27 2.87 2.87 0 0 1 2.31 0.81c0.54 0.55 -0.11 1.18 0.54 1.45a0.53 0.53 0 0 0 0.59 -0.14 5.71 5.71 0 0 1 1.89 -1.4 3.87 3.87 0 0 1 3.36 0.59c1.9 1.35 0.91 3.23 0.88 3.69a0.63 0.63 0 0 0 0.54 0.68c0.19 0 0.76 -0.15 1.27 -0.18a3.08 3.08 0 0 1 2.45 1.16 2.58 2.58 0 0 1 0.4 2.3c-1.11 4 -3.56 2.85 -3.51 3.61a0.31 0.31 0 0 0 0.33 0.29c2.12 -0.09 3.32 -1.61 4 -3.65A3.75 3.75 0 0 0 19.69 7Z" fill="#020202" fill-rule="evenodd" stroke-width="1"></path>
    <path d="M13.21 17.69a5.68 5.68 0 0 1 -1.56 -0.12c0.56 -0.57 -0.31 0.57 2.43 -3.18a0.31 0.31 0 0 0 -0.49 -0.39l-2.44 2.61c-0.26 0.29 -0.85 0.68 -0.75 1.23a1.25 1.25 0 0 0 0.93 0.86 5.46 5.46 0 0 0 1.83 0.16c-0.31 0.47 0.05 0 -2 2.66a0.35 0.35 0 0 0 0.52 0.47c2.31 -2.5 1.83 -2 2.46 -2.72 0.3 -0.51 0.51 -0.95 0.1 -1.35a1.89 1.89 0 0 0 -1.03 -0.23Z" fill="#020202" fill-rule="evenodd" stroke-width="1"></path>
    <path d="M4.43 20.68a1.18 1.18 0 0 0 0.72 1.52 1.06 1.06 0 0 0 1.34 -0.39c0.77 -1.32 -1.37 -2.75 -2.06 -1.13Z" fill="#4C57E6" fill-rule="evenodd" stroke-width="1"></path>
    <path d="M17.79 21.51a1.18 1.18 0 0 0 1.92 -0.05 1.14 1.14 0 0 0 0.15 -1.09c-0.69 -1.62 -2.86 -0.19 -2.07 1.14Z" fill="#4C57E6" fill-rule="evenodd" stroke-width="1"></path>
    <path d="M1.6 17.85a1.19 1.19 0 0 0 0.72 1.53A1.1 1.1 0 0 0 3.67 19c0.76 -1.35 -1.37 -2.8 -2.07 -1.15Z" fill="#4C57E6" fill-rule="evenodd" stroke-width="1"></path>
    <path d="M20.62 18.68a1.18 1.18 0 0 0 1.92 -0.05 1.17 1.17 0 0 0 0.15 -1.09c-0.69 -1.65 -2.83 -0.19 -2.07 1.14Z" fill="#4C57E6" fill-rule="evenodd" stroke-width="1"></path>
    <path d="M6.71 16.5a1.2 1.2 0 0 0 0.73 1.5 1.08 1.08 0 0 0 1.34 -0.39c0.78 -1.34 -1.37 -2.74 -2.07 -1.11Z" fill="#4C57E6" fill-rule="evenodd" stroke-width="1"></path>
    <path d="M17.57 16.2c-0.69 -1.63 -2.82 -0.19 -2.07 1.13a1.07 1.07 0 0 0 1.35 0.39 1.19 1.19 0 0 0 0.72 -1.52Z" fill="#4C57E6" fill-rule="evenodd" stroke-width="1"></path>
  </g>
</svg>