<svg xmlns="http://www.w3.org/2000/svg" viewBox="0 0 24 24" id="Weather-Cloud-Rainbow--Streamline-Freehand">
  <desc>
    Weather Cloud Rainbow Streamline Icon: https://streamlinehq.com
  </desc>
  <g>
    <path d="M18.22 5.53a5.83 5.83 0 0 1 4.91 0.53 0.35 0.35 0 1 0 0.42 -0.56c-2.8 -2.35 -7.14 -1.44 -9.42 1.24a2.7 2.7 0 0 0 -0.35 0.44c-0.07 0.37 0.58 0.52 0.83 0.25a8.57 8.57 0 0 1 3.61 -1.9Z" fill="#4C57E6" fill-rule="evenodd" stroke-width="1"></path>
    <path d="M23.81 2.55C18.66 -0.32 11.16 2.2 9.33 7.63A3.31 3.31 0 0 0 5 8.74a5.47 5.47 0 0 0 -0.41 1.41 0.38 0.38 0 0 0 0.7 -0.1c0.26 -0.67 0.16 -1.11 1.13 -1.68a2.45 2.45 0 0 1 2.08 -0.25c1.87 0.65 0.65 1.56 1.36 1.85 0.32 0.13 0.48 -0.11 0.75 -0.42a5 5 0 0 1 1.34 -1 3.16 3.16 0 0 1 2.89 0.55c2.32 1.78 -0.68 4.24 1.72 3.85a2.46 2.46 0 0 1 2.53 1c1.34 2 -1.75 5.88 -3.95 5.07 -1.1 -0.4 -0.8 -1.48 -1.63 -1.31 -0.6 0.12 -0.55 1 -0.59 1a7.76 7.76 0 0 1 -0.75 1.26 4 4 0 0 1 -5 0.95 2.73 2.73 0 0 1 -1 -2.91c0 -0.45 -0.29 -0.5 -0.48 -0.5s-0.86 0.56 -1.05 0.65a3.43 3.43 0 0 1 -3.21 -1.11 2.88 2.88 0 0 1 -0.7 -1.54 4.14 4.14 0 0 1 1.57 -3.25c1.31 -0.91 2.13 -0.19 2.18 -0.8a0.31 0.31 0 0 0 -0.29 -0.33 3.47 3.47 0 0 0 -2.19 0.68 4.92 4.92 0 0 0 -2 3.85c0.14 2.61 3.51 4.19 5.11 3.42a3.7 3.7 0 0 0 1.43 2.78 5 5 0 0 0 6.94 -1.63c0.62 -1 0 -0.52 1.25 -0.05 3.66 1.35 8.34 -5.24 4.26 -7.78 1.06 -0.87 2.82 -0.78 4.07 -0.5a0.35 0.35 0 0 0 0.23 -0.67c-2 -0.9 -3.94 -1.08 -5.05 0.82a2.94 2.94 0 0 0 -1.49 -0.17 3.28 3.28 0 0 0 -0.16 -2 6.09 6.09 0 0 1 1.41 -0.8c1.33 -0.56 4.05 -0.82 5 -0.29a0.35 0.35 0 0 0 0.37 -0.59 5 5 0 0 0 -2.18 -0.7 5.36 5.36 0 0 0 -5 1.69 4.09 4.09 0 0 0 -3.28 -1.68 3.45 3.45 0 0 0 -2.43 1c-0.32 0.29 0 0.14 -0.61 -0.44 1.86 -4.59 9.21 -7 13.58 -4.88a0.35 0.35 0 0 0 0.36 -0.64Z" fill="#020202" fill-rule="evenodd" stroke-width="1"></path>
  </g>
</svg>