<svg xmlns="http://www.w3.org/2000/svg" viewBox="0 0 24 24" id="Weather-App-Cloudy--Streamline-Freehand">
  <desc>
    Weather App Cloudy Streamline Icon: https://streamlinehq.com
  </desc>
  <g>
    <path d="M7.77 11.05c2 1.25 4.93 -1.92 3.49 -3.77a2.25 2.25 0 0 0 -1.47 -0.82h-0.23c0.19 -1.66 -2.16 -3 -3.74 -1.71A1.8 1.8 0 0 0 5 4.22c-1.7 -0.48 -2.74 1.24 -2.5 1.36 -0.24 0.39 0.42 0.77 0.64 0.26a3.44 3.44 0 0 1 0.17 -0.46 1.27 1.27 0 0 1 1.84 -0.16l0.07 0.15 0 0.14a0.42 0.42 0 0 0 0.72 0.3l0.14 -0.15a1.74 1.74 0 0 1 1.12 -0.51c0.63 0 1.31 0.4 1.38 1l-0.07 0.47a2.45 2.45 0 0 0 -0.1 0.38 0.53 0.53 0 0 0 0.46 0.57l0.76 0c2.25 0.39 -0.4 3.71 -1.5 2.33A0.57 0.57 0 0 0 7 9.94s-0.1 0.18 -0.06 0.21l-0.35 0.56c-0.84 0.93 -2.67 1 -2.94 -0.28l0.06 -0.54c0 -0.43 -0.28 -0.48 -0.49 -0.47s-0.52 0.32 -0.32 0.16l-0.12 0.08 -0.3 0.15a1.91 1.91 0 0 1 -1.44 -0.53c-0.8 -0.94 0.16 -2.89 1 -2.14a0.3 0.3 0 0 0 0.41 -0.44 1.26 1.26 0 0 0 -2 0.43 2.27 2.27 0 0 0 2.09 3.57l0.2 0c0.43 2.3 3.79 2.35 5.03 0.35Z" fill="#020202" fill-rule="evenodd" stroke-width="1"></path>
    <path d="M7 2.67c0.05 -0.11 0.13 -0.38 0.18 -0.45a1.34 1.34 0 0 1 0.9 -0.45A1.12 1.12 0 0 1 9 2.1l0 0.11 0 0.12a0.48 0.48 0 0 0 0.84 0.36c-0.08 0.1 0.56 -0.65 1.21 -0.6s1.23 0.37 1.31 1l-0.06 0.44a1.68 1.68 0 0 0 -0.07 0.33c0 0.74 0.94 0.71 0.92 0.58l0.35 0a1 1 0 0 1 1 1.19 2.38 2.38 0 0 1 -1.71 1.73 0.3 0.3 0 0 0 0 0.6 3.14 3.14 0 0 0 2.51 -2.07 1.93 1.93 0 0 0 -1.79 -2.54A2.36 2.36 0 0 0 9.7 1.49a2.09 2.09 0 0 0 -3.12 0.34c0 0.09 -0.33 0.52 -0.2 0.58a0.35 0.35 0 1 0 0.62 0.26Z" fill="#020202" fill-rule="evenodd" stroke-width="1"></path>
    <path d="M23.28 9.33s-0.09 0.75 -0.13 1c-0.21 1.12 -9.15 11.33 -10.34 11.58 -2.19 0.49 -9.13 -3.71 -9.18 -4.79a3.86 3.86 0 0 1 0 -1.14c0 -0.64 -0.17 -0.77 -0.53 -0.61a3.9 3.9 0 0 0 -0.23 1.78C2.9 19 10.49 23.51 13 23c2.25 -0.45 10.63 -11.23 10.82 -12.59a3.9 3.9 0 0 0 0 -1.83c-0.13 -0.36 -0.52 0.18 -0.54 0.75Z" fill="#4C57E6" fill-rule="evenodd" stroke-width="1"></path>
    <path d="M13.05 20.4c0.62 -0.25 10.49 -10.78 10.62 -12.47a0.88 0.88 0 0 0 0 -0.42c-0.71 -1.4 -6 -3.29 -7.25 -3.63a0.29 0.29 0 0 0 -0.37 0.2c-0.15 0.52 0.41 0.19 3.83 1.92 0.48 0.24 0.93 0.49 1.35 0.73L20 7.11c-0.37 0 -0.91 -0.59 -3 -1.25a0.3 0.3 0 1 0 -0.25 0.54c0.43 0.28 2 1.7 2.94 1.77 0.54 0 0.65 -0.11 1.53 -0.61l0.45 -0.21a0.4 0.4 0 0 0 0.2 -0.21 5.37 5.37 0 0 1 0.64 0.45 1.52 1.52 0 0 1 0.25 0.3c-0.31 0.44 0.58 -0.18 -2.63 3.49 -2 2.29 -7.25 7.92 -7.5 8 -1.06 0.45 -6.51 -2.25 -8.14 -4.15 -0.22 -0.26 -0.4 -0.45 -0.34 -0.62a5 5 0 0 1 0.7 -1 0.34 0.34 0 0 0 -0.52 -0.45 5.2 5.2 0 0 0 -0.86 1.16 0.52 0.52 0 0 0 0 0.21c-0.59 1.37 7.31 6.77 9.58 5.87Z" fill="#020202" fill-rule="evenodd" stroke-width="1"></path>
  </g>
</svg>