<svg xmlns="http://www.w3.org/2000/svg" viewBox="0 0 24 24" id="Weather-Daily-Temperature--Streamline-Freehand">
  <desc>
    Weather Daily Temperature Streamline Icon: https://streamlinehq.com
  </desc>
  <g>
    <path d="M23 9.55a3 3 0 0 0 -1.6 -1.7 1.7 1.7 0 0 0 -1.4 0v-0.4a4.14 4.14 0 0 0 -0.2 -1.5c-0.1 -0.3 -0.2 -0.5 -0.3 -0.8s-0.3 -0.5 -0.4 -0.7a5.61 5.61 0 0 0 -4 -2.2 6.52 6.52 0 0 0 -4.4 1.3 8.52 8.52 0 0 0 -1.6 1.7 5.84 5.84 0 0 0 -0.8 2.2 4.82 4.82 0 0 0 0 1.2c0 0.1 0.1 0.2 0.1 0.3a2.45 2.45 0 0 0 -1.2 0.4 2.62 2.62 0 0 0 -1.2 2.8 2.73 2.73 0 0 0 1.3 1.5 5.44 5.44 0 0 0 2.7 0.7 59.14 59.14 0 0 0 6 0.2c1.6 -0.1 6 -0.1 7 -3.1a2.5 2.5 0 0 0 0 -1.9Zm-0.7 1.7c-0.6 2.5 -6.1 2.3 -6.2 2.3a57.58 57.58 0 0 1 -5.9 -0.1 4.79 4.79 0 0 1 -2.3 -0.5 2 2 0 0 1 -1 -1 1.81 1.81 0 0 1 0.8 -2 1.43 1.43 0 0 1 2 0.2c0.1 0.1 0.3 0.2 0.4 0.1s0.2 -0.3 0.1 -0.4a1.89 1.89 0 0 0 -1 -0.8 1.45 1.45 0 0 1 -0.2 -0.7 2 2 0 0 1 0.1 -0.8 3.7 3.7 0 0 1 0.8 -1.8 6.73 6.73 0 0 1 1.5 -1.4 5.12 5.12 0 0 1 3.7 -1 4.69 4.69 0 0 1 3.4 1.7 2.09 2.09 0 0 1 0.4 0.6l0.3 0.6a5 5 0 0 1 0.2 1.2 4.87 4.87 0 0 1 -0.1 1.2 3 3 0 0 0 -0.4 1c-0.1 0.2 0 0.3 0.2 0.4s0.3 0 0.4 -0.2a2 2 0 0 1 0.4 -0.8c0.1 -0.1 0.2 -0.3 0.3 -0.4a0.92 0.92 0 0 1 1.2 0.1 3.13 3.13 0 0 1 0.9 1.1 3.3 3.3 0 0 1 0.01 1.4Z" fill="#020202" stroke-width="1"></path>
    <path d="M5.11 5.55a3 3 0 0 1 0.5 -0.7 2.39 2.39 0 0 1 1.3 -0.7 2.15 2.15 0 0 1 1.5 0.4 0.28 0.28 0 0 0 0.4 -0.4 2.73 2.73 0 0 0 -1.9 -0.8A3.12 3.12 0 0 0 4.21 5a3.58 3.58 0 0 0 -0.4 1.1 3.22 3.22 0 0 0 0.1 1.7 2.19 2.19 0 0 0 1.2 1.3c0.1 0.1 0.3 0 0.4 -0.1s0 -0.3 -0.1 -0.4a1.69 1.69 0 0 1 -0.7 -1 2.88 2.88 0 0 1 0.1 -1.3c0.1 -0.25 0.19 -0.55 0.3 -0.75Z" fill="#020202" stroke-width="1"></path>
    <path d="M1.71 9.65c-0.1 0.1 -0.2 0.3 -0.1 0.4s0.5 0.6 1.6 -0.5c0.2 0 0.3 -0.2 0.2 -0.4 -0.3 -0.5 -1.2 -0.4 -1.7 0.5Z" fill="#4C57E6" stroke-width="1"></path>
    <path d="M2.51 6.15a0.3 0.3 0 0 0 0 -0.6s-1.7 -0.7 -1.7 0.2a1.28 1.28 0 0 0 1.7 0.4Z" fill="#4C57E6" stroke-width="1"></path>
    <path d="M4.11 3.25a0.28 0.28 0 1 0 0.4 -0.4 2.09 2.09 0 0 0 -0.4 -0.6l-0.4 -0.4 -0.6 -0.3a0.3 0.3 0 0 0 -0.4 0 0.3 0.3 0 0 0 0 0.4 2.7 2.7 0 0 0 1.4 1.3Z" fill="#4C57E6" stroke-width="1"></path>
    <path d="M7.51 2.15a0.3 0.3 0 1 0 0.6 0 2.17 2.17 0 0 0 0 -1.8 0.3 0.3 0 1 0 -0.6 0 2 2 0 0 0 0 1.8Z" fill="#4C57E6" stroke-width="1"></path>
    <path d="M9.68 23.35a0.3 0.3 0 0 0 0 0.6 22.19 22.19 0 0 0 3.9 -0.2 0.27 0.27 0 0 0 0.3 -0.3c0 -0.1 -0.6 -1 -4.2 -0.1Z" fill="#020202" stroke-width="1"></path>
    <path d="M10.08 20.65a0.3 0.3 0 0 0 0 0.4c0.2 0.3 0.4 0.5 0.6 0.8l0.5 0.5 0.3 0.3c0.3 0.2 0.5 0.2 0.6 0.1a1.47 1.47 0 0 0 0.6 -0.5c0.3 -0.4 0.5 -0.9 0.7 -1.2a0.29 0.29 0 1 0 -0.5 -0.3c-0.2 0.2 -0.4 0.5 -0.6 0.7l-0.1 0.1v-0.1a13.55 13.55 0 0 1 0.2 -2v-1.3a18.1 18.1 0 0 0 -0.3 -2.3 0.3 0.3 0 1 0 -0.6 0 13.55 13.55 0 0 1 -0.2 2v1.6a11 11 0 0 0 0.2 1.8l-1.1 -0.7a0.49 0.49 0 0 0 -0.3 0.1Z" fill="#020202" stroke-width="1"></path>
    <path d="M16.08 16.25a0.92 0.92 0 0 0 -0.9 -1 1.11 1.11 0 0 0 -1.3 1.1 1.49 1.49 0 0 0 0.4 0.9 1.45 1.45 0 0 0 0.7 0.2c0.7 -0.2 1.1 -0.6 1.1 -1.2Zm-1.1 0.1a0.22 0.22 0 0 1 -0.2 -0.2c0 -0.4 0.4 -0.4 0.4 0a0.22 0.22 0 0 1 -0.18 0.2Z" fill="#020202" stroke-width="1"></path>
    <path d="M18.88 19.45c-0.1 0.1 -1.3 0.9 -2 0.2a0.91 0.91 0 0 1 -0.3 -0.7 1.11 1.11 0 0 1 1.8 -1 0.28 0.28 0 0 0 0.4 -0.4 2 2 0 0 0 -1.4 -0.6 1.91 1.91 0 0 0 -1.4 0.7 2.39 2.39 0 0 0 -0.5 1.4 1.71 1.71 0 0 0 0.7 1.3 2.19 2.19 0 0 0 0.5 0.3 2.6 2.6 0 0 0 2.2 -0.4 1.76 1.76 0 0 0 0.5 -0.4 0.3 0.3 0 0 0 0 -0.4 0.45 0.45 0 0 0 -0.5 0Z" fill="#020202" stroke-width="1"></path>
  </g>
</svg>