<svg xmlns="http://www.w3.org/2000/svg" viewBox="0 0 24 24" id="Weather-App-Cloud-Location--Streamline-Freehand">
  <desc>
    Weather App Cloud Location Streamline Icon: https://streamlinehq.com
  </desc>
  <g>
    <path d="M11.33 16.73c-1.89 0 -3.88 -1 -4.19 -2.92 -0.09 -0.54 0.39 -1.21 0.05 -1.63s-1.07 -0.06 -1 0.09c-0.56 0.34 -1.12 0.85 -3 0.13a3.8 3.8 0 0 1 -1.53 -1c-2 -2.32 0.45 -7 2.63 -5.1a0.3 0.3 0 0 0 0.42 -0.44C2 3.17 -1.71 8.77 0.87 12.11c1.13 1.41 3.87 2.24 5.25 1.51 0 2 2.26 4 5.24 3.8a0.35 0.35 0 1 0 -0.03 -0.69Z" fill="#020202" fill-rule="evenodd" stroke-width="1"></path>
    <path d="M19.78 5.76a3.63 3.63 0 0 0 -1.51 -4.14A5.09 5.09 0 0 0 13.79 1a5.25 5.25 0 0 0 -1.52 1A3.66 3.66 0 0 0 8.7 0.44a4.2 4.2 0 0 0 -2.78 1.69 6.06 6.06 0 0 0 -0.48 1.55 0.39 0.39 0 0 0 0.7 -0.11c0.31 -0.73 0.2 -1.25 1.4 -1.87a3.07 3.07 0 0 1 2.55 -0.24 2.31 2.31 0 0 1 1.24 0.89c0.15 0.31 0 0.48 0 0.67a0.53 0.53 0 0 0 0.91 0.39A5.91 5.91 0 0 1 14.21 2a4 4 0 0 1 3.42 0.55c2 1.34 1 3.22 1 3.66a0.54 0.54 0 0 0 0.47 0.59 2.72 2.72 0 0 0 0.59 -0.09 5.06 5.06 0 0 1 0.68 -0.1c1.67 -0.11 3.16 1.2 3 3.6a0.31 0.31 0 0 0 0.61 0c0.31 -2.9 -1.69 -4.74 -4.2 -4.45Z" fill="#020202" fill-rule="evenodd" stroke-width="1"></path>
    <path d="M22.74 12.27c-1.93 -2.88 -6.44 -2.47 -8.45 0.23a5.41 5.41 0 0 0 -0.55 4.06c0.46 2.86 1.92 6.12 4.68 7a0.3 0.3 0 0 0 0.2 -0.57 5.65 5.65 0 0 1 -3 -3c-0.76 -1.7 -1.6 -5.34 -0.47 -6.78 1.52 -2 5.13 -2.5 6.65 -0.3a5.45 5.45 0 0 1 0.67 3c0 2.11 -1.74 4.63 -3.17 6.47a0.35 0.35 0 0 0 0.54 0.43c1.65 -2 3.5 -4.54 3.59 -6.88a6.3 6.3 0 0 0 -0.69 -3.66Z" fill="#020202" fill-rule="evenodd" stroke-width="1"></path>
    <path d="M20.16 14.37a2.21 2.21 0 0 0 -4.25 0.16c-0.86 3.54 5.53 3.21 4.25 -0.16Zm-3.16 0.47a1.21 1.21 0 0 1 2.3 -0.09c0.93 1.97 -3 2.19 -2.3 0.09Z" fill="#020202" fill-rule="evenodd" stroke-width="1"></path>
    <path d="M15 4.32a3 3 0 0 0 -3 1.07 3 3 0 0 0 -4 -1.16c-0.28 0.36 -0.26 0.61 0.18 0.71a2.26 2.26 0 0 1 3.26 1c0.13 0.26 0.22 0.52 0.5 0.55 0.46 0 0.52 -0.58 1.13 -1a2 2 0 0 1 3.05 0.73 3.78 3.78 0 0 1 0.26 0.74c0.28 0.41 0.81 0.4 0.89 0A3.21 3.21 0 0 0 15 4.32Z" fill="#4C57E6" fill-rule="evenodd" stroke-width="1"></path>
  </g>
</svg>