<svg xmlns="http://www.w3.org/2000/svg" viewBox="0 0 24 24" id="Web-Services-Mastodon-Alternate-1--Streamline-Freehand">
  <desc>
    Web Services Mastodon Alternate 1 Streamline Icon: https://streamlinehq.com
  </desc>
  <g>
    <path d="M22.88 5.22a5 5 0 0 0 -1.43 -2.62 6 6 0 0 0 -1.9 -1.18A17.62 17.62 0 0 0 16.5 0.57 20.29 20.29 0 0 0 7.29 0.51a8.21 8.21 0 0 0 -5.06 3.71 8.84 8.84 0 0 0 -1.13 3 23.41 23.41 0 0 0 -0.1 4.64c0 1.38 0 2.86 0.11 4.3a12.68 12.68 0 0 0 0.53 2.91 6.31 6.31 0 0 0 2.56 3.31 9.25 9.25 0 0 0 3.85 1.42c0.42 0.06 0.85 0.14 1.28 0.18a4.13 4.13 0 0 0 0.93 0 3.82 3.82 0 0 0 0.62 -0.09 0.45 0.45 0 0 0 0.3 -0.23 4 4 0 0 0 0.31 -1.13 9 9 0 0 0 0.08 -1.66 0.44 0.44 0 0 0 -0.4 -0.36l-0.6 -0.05 -0.79 -0.11 -0.78 -0.18a4.08 4.08 0 0 1 -1.86 -1.06 2.85 2.85 0 0 1 -0.77 -1.75 9.53 9.53 0 0 0 1.63 0.55 19.32 19.32 0 0 0 2.49 0.4 19 19 0 0 0 7 -0.13 6.59 6.59 0 0 0 3.95 -2.63 8.34 8.34 0 0 0 1.36 -3A15.75 15.75 0 0 0 23 9.4a20 20 0 0 0 -0.12 -4.18Zm-1 7.18a7.53 7.53 0 0 1 -1.18 2.68 5.77 5.77 0 0 1 -3.44 2.35 18.17 18.17 0 0 1 -6.67 0.23 21.07 21.07 0 0 1 -2.44 -0.35c-0.46 -0.1 -2.51 -0.9 -2.47 -0.08a3.54 3.54 0 0 0 0.94 2.36 4.64 4.64 0 0 0 2.17 1.28c0.27 0.08 0.55 0.14 0.83 0.2l0.83 0.13 0.34 0.09c0 0.26 0 0.57 -0.06 0.86a4.79 4.79 0 0 1 -0.21 1l-0.38 0a3.23 3.23 0 0 1 -0.76 0c-0.38 -0.03 -0.8 -0.15 -1.2 -0.15a8.49 8.49 0 0 1 -3.48 -1.36 5.34 5.34 0 0 1 -2.16 -2.85 11.46 11.46 0 0 1 -0.45 -2.7c-0.1 -1.42 0 -2.89 -0.06 -4.25a22.54 22.54 0 0 1 0.15 -4.42 7.93 7.93 0 0 1 1 -2.63A7.2 7.2 0 0 1 7.6 1.6a19.06 19.06 0 0 1 8.67 0.07 15.69 15.69 0 0 1 2.87 0.77 4.86 4.86 0 0 1 1.57 0.94 4 4 0 0 1 1.17 2.07 18.5 18.5 0 0 1 0.19 4 14.44 14.44 0 0 1 -0.17 2.95Z" fill="#4C57E6" fill-rule="evenodd" stroke-width="1"></path>
    <path d="M4.59 10.05A1.55 1.55 0 0 0 6.4 11.5a2.09 2.09 0 0 0 1.8 -2.11c-0.06 -2.73 -3.85 -1.81 -3.61 0.66Zm1.69 0.32c-0.68 0.11 -0.86 -0.58 -0.68 -1.1 0.34 -1 1.73 -1.08 1.64 0.09a1.06 1.06 0 0 1 -0.96 1.01Z" fill="#020202" fill-rule="evenodd" stroke-width="1"></path>
    <path d="M10.85 8.38a2 2 0 0 0 -0.4 0.87 1.75 1.75 0 0 0 0.55 1.64 1.72 1.72 0 0 0 1.78 0.26 1.7 1.7 0 0 0 1 -2.26c-0.13 -0.41 -1.43 -2.41 -2.93 -0.51Zm1.51 1.71a0.66 0.66 0 0 1 -0.66 -0.09 0.8 0.8 0 0 1 -0.34 -0.68c0 -1.12 1.2 -1.51 1.56 -0.16a0.72 0.72 0 0 1 -0.56 0.93Z" fill="#020202" fill-rule="evenodd" stroke-width="1"></path>
    <path d="M19.13 7.71a1.85 1.85 0 0 0 -0.7 -0.23c-0.82 -0.09 -1.38 0.06 -1.76 1.46a2.13 2.13 0 0 0 0 0.91 1.44 1.44 0 0 0 1.14 1.2 2 2 0 0 0 1.58 -0.37A1.87 1.87 0 0 0 20 9.11a1.72 1.72 0 0 0 -0.87 -1.4Zm-0.49 2.08A0.83 0.83 0 0 1 18 10a0.54 0.54 0 0 1 -0.47 -0.34 1.41 1.41 0 0 1 -0.06 -0.7c0.14 -0.78 0.32 -0.76 0.74 -0.7a1 1 0 0 1 0.47 0.22 0.82 0.82 0 0 1 0.25 0.7 0.78 0.78 0 0 1 -0.29 0.61Z" fill="#020202" fill-rule="evenodd" stroke-width="1"></path>
  </g>
</svg>