<svg xmlns="http://www.w3.org/2000/svg" viewBox="0 0 24 24" id="Web-Application-Tool-Microsoft-Net--Streamline-Freehand">
  <desc>
    Web Application Tool Microsoft Net Streamline Icon: https://streamlinehq.com
  </desc>
  <path d="M20.77 6.78A4 4 0 0 1 23.64 6a0.34 0.34 0 0 0 0.36 -0.29 0.34 0.34 0 0 0 -0.3 -0.35 4.71 4.71 0 0 0 -3.37 0.84c-1.34 1 -2 2.7 -2.7 4.32l-1.44 3.8c-0.08 -0.29 -0.18 -0.58 -0.26 -0.87 -0.59 -2.07 -1.11 -4.22 -1.66 -6.26a3.67 3.67 0 0 0 -1.6 -2.36 2.65 2.65 0 0 0 -2.89 0.42 3.78 3.78 0 0 0 -0.78 0.81 3.58 3.58 0 0 0 -0.29 -0.46 2.37 2.37 0 0 0 -3.09 -0.84 3.94 3.94 0 0 0 -0.71 0.41 3.07 3.07 0 0 0 -0.58 0.56 5 5 0 0 0 -0.58 0.88c-0.24 0.43 -0.44 0.9 -0.64 1.34s-0.52 1.19 -0.76 1.81 -0.41 1.24 -0.61 1.84c-0.34 1.05 -0.63 2.12 -0.9 3.2S0.4 16.73 0.21 17.71a0.27 0.27 0 0 0 -0.21 0.22c-0.08 0.69 2.38 0.34 2.43 0.33a2.71 2.71 0 0 0 1.42 -0.65A7.36 7.36 0 0 0 5 16c0.51 -0.88 1 -1.87 1.28 -2.5 0.87 -1.88 1.72 -3.75 2.53 -5.19 0.39 1.31 0.65 2.8 0.94 4l0.62 2.41c0.16 0.62 0.34 1.24 0.55 1.84a9.34 9.34 0 0 0 0.51 1.21c0.76 1.49 1.65 1.87 2.44 1.71a3.87 3.87 0 0 0 2.21 -2.25c0.09 0.22 0.17 0.45 0.26 0.67 0.68 1.6 1.64 1.78 2.52 1.36A6 6 0 0 0 21.24 16l1.2 -4 1.29 -4.41a0.33 0.33 0 0 0 -0.21 -0.41 0.32 0.32 0 0 0 -0.41 0.21l-1.39 4.39 -1.29 3.94a5 5 0 0 1 -2 2.63c-0.46 0.21 -0.86 0 -1.19 -0.87 -0.22 -0.56 -0.42 -1.13 -0.61 -1.71l1.75 -5c0.62 -1.45 1.18 -3.06 2.39 -3.99ZM8.1 7.56c-0.8 1.5 -1.68 3.56 -2.58 5.64 -0.28 0.63 -0.71 1.61 -1.18 2.48a7 7 0 0 1 -1 1.46 2 2 0 0 1 -1.07 0.5 5.91 5.91 0 0 1 -1.5 0.08c0.2 -0.93 0.42 -1.85 0.67 -2.75 0.29 -1.06 0.61 -2.11 1 -3.12 0.21 -0.61 0.44 -1.21 0.68 -1.79s0.5 -1.17 0.77 -1.74c0.21 -0.42 0.42 -0.86 0.66 -1.26a4.36 4.36 0 0 1 0.5 -0.72 2.34 2.34 0 0 1 0.44 -0.4A1.79 1.79 0 0 1 6 5.67c1.15 -0.46 1.81 0.24 2.3 1.28a0.69 0.69 0 0 1 0 0.13c-0.02 0.16 -0.11 0.31 -0.2 0.48Zm7.48 8.36c-0.47 1.24 -1.13 2.37 -1.91 2.52 -0.46 0.08 -0.85 -0.31 -1.27 -1.17a10.4 10.4 0 0 1 -0.4 -1.09c-0.2 -0.57 -0.36 -1.17 -0.51 -1.75L10.83 12a44.14 44.14 0 0 0 -1.31 -4.88 3.77 3.77 0 0 1 0.87 -1 1.66 1.66 0 0 1 1.76 -0.33 2.66 2.66 0 0 1 1.06 1.68c0.56 2.06 1.07 4.21 1.68 6.28 0.22 0.74 0.45 1.46 0.7 2.16Z" fill="#020202" fill-rule="evenodd" stroke-width="1"></path>
</svg>