<svg xmlns="http://www.w3.org/2000/svg" viewBox="0 0 24 24" id="Website-Development-Code-Flowchart--Streamline-Freehand">
  <desc>
    Website Development Code Flowchart Streamline Icon: https://streamlinehq.com
  </desc>
  <g>
    <path d="M20.66 12.46a3.68 3.68 0 0 0 -0.74 0.57 0.3 0.3 0 0 0 -0.06 0.42c0.24 0.33 0.51 -0.06 1 -0.25 0.88 -0.34 2.11 0.79 2.1 1.33a2.23 2.23 0 0 1 -0.55 1.54c0.08 0 -2.06 -1.68 -2.64 -2.22a0.34 0.34 0 0 0 -0.48 0c-0.41 0.42 0.31 0.67 2.51 2.79 -0.41 0.6 -0.74 0.85 -4 4.25a3.78 3.78 0 0 0 -2.16 -2c1 -1.22 2.33 -2.73 3.26 -3.84a0.3 0.3 0 0 0 -0.36 -0.47c-0.09 0 -0.12 0.09 -0.55 0.55 -2.5 2.58 -4.13 4.25 -4.19 4.73 -0.25 2.2 -0.4 3.24 -0.09 3.57 0.61 0.66 3.06 -0.08 3.59 -0.4a71.61 71.61 0 0 0 6.31 -7.2c1.46 -2.36 -1.32 -4.24 -2.95 -3.37Zm-4 9.56a6.22 6.22 0 0 1 -2 0.53c0 -1.81 0.1 -2.43 0.11 -2.51a2.58 2.58 0 0 1 0.41 -0.58 12.38 12.38 0 0 0 2.09 2c-0.36 0.31 -0.58 0.54 -0.62 0.54Z" fill="#020202" fill-rule="evenodd" stroke-width="1"></path>
    <path d="M11.47 20.73c-3.32 0 -7.57 -0.19 -9.47 -0.43a4.67 4.67 0 0 1 -0.64 -0.17c-0.2 -1 -0.24 -2.49 -0.32 -14.26 0 -4.55 0.14 -4.57 0 -4.68a0.3 0.3 0 0 0 -0.43 0c-0.38 0.37 -1.1 17.3 -0.23 19.58a0.76 0.76 0 0 0 0.62 0.43c1.48 0.41 9 0.25 10.53 0.21a0.34 0.34 0 0 0 -0.06 -0.68Z" fill="#020202" fill-rule="evenodd" stroke-width="1"></path>
    <path d="M2.14 1.25c1.09 0.15 7.6 0.16 10.41 0.21 -0.22 1 -0.66 3.37 0 4.16 0.39 0.45 3.32 0.7 3.92 0.66a0.34 0.34 0 0 0 0 -0.68c-3.66 -0.26 -3.07 -0.85 -3.12 -1.37a23.21 23.21 0 0 1 -0.09 -2.76h0.34l3.2 3.1a53.11 53.11 0 0 1 0.05 9.25 0.3 0.3 0 0 0 0.6 0c0.16 -1.54 1.05 -9.16 0.18 -10C13.94 0.14 14.21 0.38 13.76 0.35 12.39 0.25 3.53 0.69 2.22 0.57a0.34 0.34 0 0 0 -0.08 0.68Z" fill="#020202" fill-rule="evenodd" stroke-width="1"></path>
    <path d="M3.59 6.32a5.1 5.1 0 0 1 3.29 -0.38 0.3 0.3 0 0 0 0.26 -0.54 6 6 0 0 0 -3.95 0 1.9 1.9 0 0 0 -0.87 2.26c0.33 0.7 0.92 0.77 1.61 0.9a9.39 9.39 0 0 0 2.85 0 3.57 3.57 0 0 0 1.59 -0.45c1.09 -0.77 0.19 -2.25 -0.82 -2.25a0.35 0.35 0 0 0 0 0.69c0.35 0 0.74 0.61 0.36 0.83 -0.55 0.32 -4.34 0.25 -4.55 -0.19a1.08 1.08 0 0 1 0.23 -0.87Z" fill="#4C57E6" fill-rule="evenodd" stroke-width="1"></path>
    <path d="M3.22 13.31A6.64 6.64 0 0 0 7.94 13c0.93 -0.5 1.52 -1.56 0.76 -2.31a0.34 0.34 0 0 0 -0.49 0.47c0.34 0.36 -0.18 0.86 -0.64 1.06a6.4 6.4 0 0 1 -4 0c-0.17 -0.05 -0.18 -0.23 -0.18 -0.4 0 -1.32 1.8 -1.43 3.11 -1.37 0.24 0 0.94 0.18 1.21 0.05a0.3 0.3 0 0 0 -0.24 -0.55c-1.55 -0.35 -3.36 -0.72 -4.62 0.39 -0.85 0.76 -0.85 2.56 0.37 2.97Z" fill="#4C57E6" fill-rule="evenodd" stroke-width="1"></path>
    <path d="M2.94 17.58c1.36 1 4.21 0.64 5.59 -0.12A1.32 1.32 0 0 0 9 15.77a3.19 3.19 0 0 0 -0.65 -0.67 0.34 0.34 0 0 0 -0.47 0.5l0.46 0.53a0.51 0.51 0 0 1 -0.22 0.55c-1.32 0.58 -5 0.58 -4.67 -0.48a0.92 0.92 0 0 1 0.55 -0.58 7.9 7.9 0 0 1 2.82 -0.54 0.3 0.3 0 1 0 0.18 -0.56c-0.79 -0.32 -2.61 0.07 -3.32 0.2a1.65 1.65 0 0 0 -0.74 2.86Z" fill="#4C57E6" fill-rule="evenodd" stroke-width="1"></path>
    <path d="M14.75 11.66a0.34 0.34 0 0 0 0 -0.68 14.43 14.43 0 0 0 -1.7 -0.14c0 -0.58 0 -1.17 -0.06 -1.75a4.92 4.92 0 0 0 -0.44 -2.29A2.59 2.59 0 0 0 10 6.09a0.3 0.3 0 0 0 0.11 0.59 1.92 1.92 0 0 1 1.76 0.6 5.38 5.38 0 0 1 0.06 1.85l0 1.78c-0.63 0.07 -0.81 0.18 -1.67 0.29 -0.22 0 -0.22 0.23 -0.17 0.39s0.26 0.25 0.57 0.29a5.07 5.07 0 0 0 1.24 0.12c0 0.61 0 1.23 -0.09 1.84s0 1.28 0 1.92c0 0.85 -0.08 0.83 -0.36 0.92 -0.88 0.28 -1.53 -0.11 -1.55 0.45a0.38 0.38 0 0 0 0.24 0.36 3.84 3.84 0 0 0 1.9 -0.19c0.88 -0.43 0.64 -1.9 0.83 -3.37 0.06 -0.66 0.12 -1.32 0.15 -2 0.63 -0.06 1.21 -0.21 1.73 -0.27Z" fill="#4C57E6" fill-rule="evenodd" stroke-width="1"></path>
  </g>
</svg>