<svg xmlns="http://www.w3.org/2000/svg" viewBox="0 0 24 24" id="Wedding-Invitation-Card--Streamline-Freehand">
  <desc>
    Wedding Invitation Card Streamline Icon: https://streamlinehq.com
  </desc>
  <g>
    <path d="M20.32 18.57c-0.08 -0.91 -0.13 -1.81 -0.16 -2.71 -0.08 -2.14 -0.09 -4.28 -0.19 -6.41l-0.06 -3a7.89 7.89 0 0 0 0 -0.85 0.51 0.51 0 0 0 -0.25 -0.4 0.72 0.72 0 0 0 -0.34 -0.07 12.11 12.11 0 0 1 -2.65 0.09 0.36 0.36 0 1 0 0 0.72A14.48 14.48 0 0 1 19 6c0 0.18 0.06 0.38 0.06 0.41l0 3.06c0 2.13 -0.07 4.27 0 6.4 0 0.93 0.05 1.86 0.12 2.78 0 0.62 0.1 1.23 0.12 1.84a11.81 11.81 0 0 1 0 1.19l0 0.63a4.3 4.3 0 0 1 -0.51 -0.07l-2.86 0.23c-2.52 0.22 -5.11 0.25 -7.65 0.52Q7 23.12 6 23.33c0.19 -0.09 0.39 -0.18 0.58 -0.29a19.42 19.42 0 0 0 2 -1.48c0.4 -0.3 0.82 -0.6 1.24 -0.88 1.71 -1.15 3.5 -2.17 5.17 -3.38a0.34 0.34 0 0 0 0.09 -0.49 0.35 0.35 0 0 0 -0.49 -0.1c-1.72 1.13 -3.55 2.06 -5.31 3.13 -0.45 0.28 -0.89 0.56 -1.32 0.85A23.53 23.53 0 0 1 6 22a3.57 3.57 0 0 1 -0.67 0.29l-0.06 -0.19L5 19.72c-0.22 -2.23 -0.43 -4.49 -0.57 -6.75 -0.09 -1.51 -0.16 -3 -0.16 -4.5a0.43 0.43 0 0 0 0 -0.11 5.08 5.08 0 0 1 0.56 -0.46c0.45 -0.31 0.93 -0.57 1.37 -0.87l2.56 -1.77 3.09 -2c0.68 -0.45 1.37 -0.89 2.06 -1.3l0.79 -0.45a3.6 3.6 0 0 1 0.3 1.13 24.72 24.72 0 0 1 0 3.09c0 2.61 0.3 5.19 0.33 7.78a30.33 30.33 0 0 1 -0.12 3.3 0.36 0.36 0 0 0 0.71 0.08 31.83 31.83 0 0 0 0.25 -3.37c0.07 -2.59 -0.08 -5.18 0 -7.78a18.94 18.94 0 0 0 -0.07 -3.81 3.62 3.62 0 0 0 -0.79 -1.7 0.62 0.62 0 0 0 -0.4 -0.22c-0.49 -0.07 -0.54 0.26 -1.63 0.9 -0.7 0.44 -1.39 0.91 -2.07 1.39 -1 0.73 -2 1.48 -3 2.21l-2.44 1.9c-0.5 0.38 -1.06 0.71 -1.55 1.12s-0.78 -0.08 -0.63 6.61c0 1.89 0.15 3.79 0.24 5.67l0.17 2.4s0.05 0.58 0.09 0.8c0.26 1.53 2.47 0.86 4.11 0.75 2.54 -0.16 5.13 -0.07 7.65 -0.18l2.87 -0.14s0.66 0 0.91 -0.05a0.72 0.72 0 0 0 0.53 -0.3 1.39 1.39 0 0 0 0.18 -0.51c0.05 -0.27 0 -0.59 0.06 -0.8l0 -1.32c0.03 -0.63 -0.03 -1.26 -0.08 -1.89Z" fill="#020202" fill-rule="evenodd" stroke-width="1"></path>
    <path d="M10.18 14.69a0.36 0.36 0 0 0 0.55 0.46 19 19 0 0 0 2 -2.54 6.36 6.36 0 0 0 0.88 -2.12 2.49 2.49 0 0 0 -0.85 -2.29 2 2 0 0 0 -2.5 -0.2 2 2 0 0 0 -0.62 0.73 6.38 6.38 0 0 0 -0.3 0.87l-0.26 -0.15a2.69 2.69 0 0 0 -1 -0.26A2.41 2.41 0 0 0 7 9.41 1.78 1.78 0 0 0 5.94 12a7.41 7.41 0 0 0 2.59 2.7l1 0.56a0.32 0.32 0 0 0 0.43 -0.11 0.31 0.31 0 0 0 -0.11 -0.43l-0.9 -0.6a6.36 6.36 0 0 1 -2.09 -2.47c-0.18 -0.48 0 -0.92 0.63 -1.19a1.12 1.12 0 0 1 0.51 -0.08 1.43 1.43 0 0 1 0.57 0.16c0.17 0.11 0.57 0.44 0.66 0.49a0.63 0.63 0 0 0 0.81 -0.18 7.81 7.81 0 0 0 0.67 -1.55A0.79 0.79 0 0 1 11 9a0.89 0.89 0 0 1 1.13 0.07 1.44 1.44 0 0 1 0.57 1.25 5.41 5.41 0 0 1 -0.7 1.83 18.88 18.88 0 0 1 -1.82 2.54Z" fill="#4C57E6" fill-rule="evenodd" stroke-width="1"></path>
  </g>
</svg>