<svg xmlns="http://www.w3.org/2000/svg" viewBox="0 0 24 24" id="Wedding-Arc--Streamline-Freehand">
  <desc>
    Wedding Arc Streamline Icon: https://streamlinehq.com
  </desc>
  <path d="M11.16 9.55c0.05 -0.41 0.13 -2.06 0.12 -2.47s0 -0.8 -0.06 -1.2c-0.05 -0.66 -0.09 -0.69 -0.16 -1.34 -0.17 -0.94 -0.68 -0.75 -0.87 0.25 0 0.28 -0.09 0.83 -0.1 1.11s0 0.82 0 1.22 0 0.81 0.08 1.21c0.06 0.69 0.19 0.73 0.29 1.4s0.62 0.63 0.7 -0.18Z" fill="#4C57E6" fill-rule="evenodd" stroke-width="1"></path>
  <path d="M14.22 10.51a2.19 2.19 0 0 0 -1.73 -0.74 1.82 1.82 0 0 0 -0.83 0.28 2.18 2.18 0 0 0 -0.42 0.33c-0.26 0.17 -0.48 0.38 -0.47 0.46a4.4 4.4 0 0 0 -1.66 -0.77 2 2 0 0 0 -1.19 0.25 1.45 1.45 0 0 0 -0.68 0.89 2.29 2.29 0 0 0 0.09 1.4 4.16 4.16 0 0 0 1.33 1.74 6.61 6.61 0 0 0 1.84 1 0.31 0.31 0 0 0 0.36 -0.09l0 0.07a0.36 0.36 0 0 0 0.49 0.11 12.68 12.68 0 0 0 2.12 -1.53 4.4 4.4 0 0 0 1.08 -1.51 1.72 1.72 0 0 0 -0.33 -1.89ZM13.68 12a3.63 3.63 0 0 1 -0.79 1.27A11.18 11.18 0 0 1 11 14.82a0.43 0.43 0 0 0 -0.09 0.1 0.3 0.3 0 0 0 -0.17 -0.16 6 6 0 0 1 -1.58 -1 3.36 3.36 0 0 1 -0.94 -1.47 1.33 1.33 0 0 1 0 -0.66 0.48 0.48 0 0 1 0.24 -0.36 1.06 1.06 0 0 1 0.7 0 2.16 2.16 0 0 1 0.74 0.41s0.4 0.46 0.55 0.61a0.73 0.73 0 0 0 0.66 0.22 0.69 0.69 0 0 0 0.37 -0.27c0.12 -0.16 0.29 -0.58 0.36 -0.68a1.53 1.53 0 0 1 0.38 -0.42 0.67 0.67 0 0 1 0.4 -0.18 1 1 0 0 1 0.85 0.32 0.73 0.73 0 0 1 0.21 0.72Z" fill="#020202" fill-rule="evenodd" stroke-width="1"></path>
  <path d="M23.65 21.05 22 21a60.81 60.81 0 0 0 -0.33 -8.75A18.34 18.34 0 0 0 20 6.41a9.24 9.24 0 0 0 -2.8 -3.2 9.49 9.49 0 0 0 -3.92 -1.67 12 12 0 0 0 -6.28 0.6 9.37 9.37 0 0 0 -4.84 4A10.54 10.54 0 0 0 1 9.72a23.27 23.27 0 0 0 -0.1 5.52c0.1 1.2 0.21 2.41 0.36 3.61 0.11 1 0.26 1.93 0.42 2.89 -0.48 0.08 -1 0.17 -1.43 0.28a0.29 0.29 0 0 0 -0.24 0.36 0.3 0.3 0 0 0 0.36 0.24s1.59 -0.25 3.48 -0.34 3.54 -0.08 5.3 -0.09l14.5 -0.44a0.35 0.35 0 0 0 0.35 -0.35 0.35 0.35 0 0 0 -0.35 -0.35ZM13.05 2.7a8.53 8.53 0 0 1 3.47 1.43A8.14 8.14 0 0 1 19 6.9a13.79 13.79 0 0 1 1 2.3 0.54 0.54 0 0 0 -0.27 -0.07c-0.1 0 -0.32 0.07 -0.44 0.07l-0.93 0a4.79 4.79 0 0 1 -1.27 -0.26 6.82 6.82 0 0 1 -1.22 -0.57 8.84 8.84 0 0 1 -3 -2.63 10 10 0 0 1 -1.45 -3.14 10.18 10.18 0 0 1 1.63 0.1ZM2 9.88a9.43 9.43 0 0 1 1.13 -3.21 8.36 8.36 0 0 1 4.32 -3.43 11.11 11.11 0 0 1 2.68 -0.62 11.71 11.71 0 0 1 -1.76 3.45 11.13 11.13 0 0 1 -2.69 2.66 6.47 6.47 0 0 1 -1.09 0.61 8.53 8.53 0 0 1 -1.18 0.47c-0.3 0.08 -1.11 0.23 -1.2 0.24a0.77 0.77 0 0 0 -0.28 0.08C2 10.05 2 10 2 9.88Zm1.79 11.56 -1.48 0.2c-0.14 -0.95 -0.26 -1.9 -0.34 -2.86 -0.11 -1.2 -0.19 -2.4 -0.25 -3.59a26.67 26.67 0 0 1 0.05 -3.78c0.1 0.25 0.24 0.5 0.33 0.7l1.28 2.73a18 18 0 0 1 0.75 2.54 37.77 37.77 0 0 1 0.58 4ZM18 20.66a0.33 0.33 0 0 0 0.14 0.26l-3.17 0C13 20.89 11 21 9.11 21c-1.24 0.08 -2.47 0.16 -3.7 0.26A39.4 39.4 0 0 0 5 17.22a18.67 18.67 0 0 0 -0.65 -2.73c-0.1 -0.3 -0.22 -0.6 -0.34 -0.89 -0.27 -0.66 -0.59 -1.3 -0.86 -2 -0.06 -0.14 -0.15 -0.3 -0.23 -0.47l0.83 -0.23a11.93 11.93 0 0 0 1.35 -0.5 8.29 8.29 0 0 0 1.24 -0.77 12.32 12.32 0 0 0 2.75 -3.07 23.47 23.47 0 0 0 1.68 -3.5 12.22 12.22 0 0 0 1.44 3.13 10 10 0 0 0 3.08 3.12 7.5 7.5 0 0 0 1.42 0.7 5 5 0 0 0 1.6 0.34l0.59 0c-0.19 0.4 -0.42 0.78 -0.6 1.2a4.35 4.35 0 0 0 -0.33 1 17.3 17.3 0 0 0 -0.3 3.27c0 1.64 0.16 3.24 0.33 4.84Zm0.55 0.27a0.38 0.38 0 0 0 0.15 -0.3c-0.05 -1.59 -0.13 -3.17 -0.05 -4.74a15.87 15.87 0 0 1 0.35 -3.06 4.12 4.12 0 0 1 0.18 -0.53c0.32 -0.77 0.8 -1.45 1.06 -2.21a21.52 21.52 0 0 1 0.51 2.31 62.39 62.39 0 0 1 0.55 8.6Z" fill="#020202" fill-rule="evenodd" stroke-width="1"></path>
</svg>