<svg xmlns="http://www.w3.org/2000/svg" viewBox="0 0 24 24" id="Whale-Tail--Streamline-Freehand">
  <desc>
    Whale Tail Streamline Icon: https://streamlinehq.com
  </desc>
  <g>
    <path d="M5.9 6.89a4.33 4.33 0 0 0 1.86 1.48c0.38 0.16 1 0.23 1.42 0.39l0.2 0.07 0 0.09L9 10.74a16 16 0 0 1 -1.38 3.64 12.17 12.17 0 0 1 -2.32 3.11 0.29 0.29 0 0 0 0 0.4 0.31 0.31 0 0 0 0.41 0A12.62 12.62 0 0 0 8.2 14.7a16.72 16.72 0 0 0 1.56 -3.76l0.44 -1.84a2.41 2.41 0 0 0 0.13 -0.41 0.51 0.51 0 0 0 -0.18 -0.39 1.72 1.72 0 0 0 -0.68 -0.38c-0.44 -0.16 -1 -0.23 -1.34 -0.39a3.57 3.57 0 0 1 -1.42 -1.21 3.86 3.86 0 0 1 -0.64 -1.77l0 -0.62c0 -0.26 0.21 -0.53 0.1 -0.62a0.6 0.6 0 0 1 0.24 -0.05 4.88 4.88 0 0 1 0.56 0 4.54 4.54 0 0 1 1.49 0.42 7.64 7.64 0 0 1 1.35 0.88c0.19 0.16 0.4 0.46 0.62 0.65a1.46 1.46 0 0 0 0.32 0.21 0.92 0.92 0 0 0 0.74 0 5.62 5.62 0 0 0 1.11 -0.8 13.11 13.11 0 0 1 1.55 -1 5.49 5.49 0 0 1 1.1 -0.44c0.28 -0.08 0.49 -0.21 0.66 -0.14s0.1 0.11 0.14 0.23a2.47 2.47 0 0 1 -0.29 2A5.61 5.61 0 0 1 14.31 7a9 9 0 0 1 -0.82 0.41 1.25 1.25 0 0 0 -0.47 0.47 2.11 2.11 0 0 0 -0.16 1.25 8.08 8.08 0 0 0 0.49 1.53 10.31 10.31 0 0 0 1.93 3.18 12.41 12.41 0 0 0 2.81 2.39 0.33 0.33 0 0 0 0.45 -0.1 0.33 0.33 0 0 0 -0.1 -0.45 11.76 11.76 0 0 1 -2.61 -2.31 9.56 9.56 0 0 1 -1.72 -3A6.86 6.86 0 0 1 13.7 9a1.2 1.2 0 0 1 0.1 -0.73s0.08 -0.08 0.13 -0.11a6.86 6.86 0 0 0 0.94 -0.47 6.61 6.61 0 0 0 2 -2.52A3.24 3.24 0 0 0 17 2.86a1.32 1.32 0 0 0 -0.7 -0.86 2.16 2.16 0 0 0 -1.36 0.07 6.17 6.17 0 0 0 -1.31 0.52 11.44 11.44 0 0 0 -1.71 1.12c-0.13 0.1 -0.77 0.31 -0.91 0.56l-0.53 -0.56a8.52 8.52 0 0 0 -1.58 -1A5.86 5.86 0 0 0 7 2.2a3.57 3.57 0 0 0 -1 0.05 1.29 1.29 0 0 0 -0.57 0.29 1.3 1.3 0 0 0 -0.43 0.78 5 5 0 0 0 0 1.36 4.71 4.71 0 0 0 0.9 2.21Z" fill="#020202" fill-rule="evenodd" stroke-width="1"></path>
    <path d="M23.83 18.74a0.32 0.32 0 0 0 -0.44 0.13 3.2 3.2 0 0 1 -1.6 1.5 2.43 2.43 0 0 1 -2.06 -0.26A11.15 11.15 0 0 1 18.52 19a2.44 2.44 0 0 0 -0.43 -0.28 0.49 0.49 0 0 0 -0.35 0 0.54 0.54 0 0 0 -0.26 0.17c-0.05 0.06 -0.25 0.28 -0.15 0.32l-0.34 0.54a3.11 3.11 0 0 1 -0.63 0.67 2.09 2.09 0 0 1 -0.77 0.35 1.68 1.68 0 0 1 -0.94 -0.09 5.29 5.29 0 0 1 -1.44 -0.84c-0.05 0 -0.68 -0.55 -1 -0.72a0.65 0.65 0 0 0 -0.66 -0.05 1 1 0 0 0 -0.28 0.23c-0.16 0.18 -0.32 0.47 -0.43 0.6a3.31 3.31 0 0 1 -0.8 0.64 2.25 2.25 0 0 1 -0.92 0.32A2.49 2.49 0 0 1 8 20.68a5.87 5.87 0 0 1 -1.14 -0.6l-0.86 -0.7a1.33 1.33 0 0 0 -0.26 -0.21 0.46 0.46 0 0 0 -0.52 0.09 6.84 6.84 0 0 0 -0.77 1.11 1.5 1.5 0 0 1 -0.29 0.33 2.76 2.76 0 0 1 -1.88 0.67 2.26 2.26 0 0 1 -1.73 -0.95 0.29 0.29 0 0 0 -0.4 -0.07 0.28 0.28 0 0 0 -0.07 0.39A2.9 2.9 0 0 0 2.2 22a3.51 3.51 0 0 0 2.43 -0.73 2.94 2.94 0 0 0 0.31 -0.3c0.23 -0.26 0.39 -0.57 0.6 -0.84l0.82 0.69a6.33 6.33 0 0 0 1.6 0.87 3.16 3.16 0 0 0 1.32 0.18 3.4 3.4 0 0 0 1.35 -0.43 4.13 4.13 0 0 0 1.06 -0.85 1.31 1.31 0 0 0 0.16 -0.3 4.4 4.4 0 0 0 0.71 0.38 6.45 6.45 0 0 0 1.76 1 2.74 2.74 0 0 0 1.5 0.07A2.89 2.89 0 0 0 17 21.2a4.19 4.19 0 0 0 0.81 -0.91l0.28 -0.48c0.3 0.23 0.56 0.53 0.86 0.76a3.74 3.74 0 0 0 0.42 0.27 3.16 3.16 0 0 0 2.72 0.21A3.82 3.82 0 0 0 24 19.18a0.32 0.32 0 0 0 -0.17 -0.44ZM12.13 20l-0.09 0 0.11 0 -0.02 0Z" fill="#4C57E6" fill-rule="evenodd" stroke-width="1"></path>
  </g>
</svg>