<svg xmlns="http://www.w3.org/2000/svg" viewBox="0 0 24 24" id="Wifi-Settings--Streamline-Freehand">
  <desc>
    Wifi Settings Streamline Icon: https://streamlinehq.com
  </desc>
  <g>
    <path d="M18.5 18c-0.57 0.12 -1 0.82 -0.53 1.29a1.15 1.15 0 0 0 0.51 0.3c1.52 0.32 1.33 -1.86 0.02 -1.59Z" fill="#020202" fill-rule="evenodd" stroke-width="1"></path>
    <path d="M23.92 19.91a8.52 8.52 0 0 0 -1.85 -1.26c0.86 -0.58 1.59 -0.86 1.59 -1.6a3.47 3.47 0 0 0 -1 -2.06c-0.68 -0.5 -1.16 -0.11 -2.13 0.45 0 -0.81 0.11 -1.48 -0.55 -1.89a4.21 4.21 0 0 0 -2.32 -0.44c-1 0.24 -1 1.14 -1 2.38l-1.06 -0.65c-1.09 -0.56 -1.91 0.57 -2.24 1.75 -0.23 0.87 0.1 1.19 0.86 1.67s0.27 0.09 0.42 0.95c-1.79 1.2 -1.55 1 -0.69 2.7a3.4 3.4 0 0 0 0.79 0.76 1.33 1.33 0 0 0 1.4 -0.18c0.76 -0.47 0.66 -0.64 0.66 -0.29s0 1 0.3 1.19c0.56 0.35 2.6 0.47 3 -0.21a1.06 1.06 0 0 0 0.17 -0.93 0.31 0.31 0 0 0 -0.62 0.05c0 0.47 0 0.32 -0.11 0.55s-1.64 -0.11 -1.9 -0.15l0 -1.51a0.4 0.4 0 0 0 -0.64 -0.33c-0.48 0.32 -1.26 1 -1.71 1.05s-0.74 -1.2 -0.85 -1.41c0.53 -0.23 0 0.1 1.12 -0.62a0.53 0.53 0 0 0 0.22 -0.61c-0.22 -0.67 0.25 -1 -0.19 -1.38 -0.86 -0.68 -0.61 -0.49 -1.11 -0.86a2.93 2.93 0 0 1 0.46 -1.03s0.07 -0.11 0.13 -0.08c2 1.25 1.71 1.19 2.39 0.93s0.37 -2.57 0.47 -2.59a4 4 0 0 1 1.42 0.3c0.06 2.13 0.17 2.2 0.43 2.33a0.58 0.58 0 0 0 0.57 0c1.75 -1.11 1.64 -1.07 1.76 -1s0.29 0.3 0.57 1.17c-1.33 1 -1.46 1 -1.5 1.27 -0.13 1 -0.28 0.7 2 2a2.38 2.38 0 0 1 -0.81 1.46 13.37 13.37 0 0 1 -1.75 -1 0.35 0.35 0 0 0 -0.39 0.59 13.8 13.8 0 0 0 1.87 1.15c0.9 0.35 2.24 -1.83 1.82 -2.62Z" fill="#020202" fill-rule="evenodd" stroke-width="1"></path>
    <path d="M13.73 13.55a2.11 2.11 0 0 0 -1.37 -1.09 2.52 2.52 0 0 0 -3.13 1.17 2.26 2.26 0 0 0 1.67 3.26 0.33 0.33 0 0 0 0.16 -0.65c-1.87 -0.6 -1 -3.29 1.09 -2.95 0.5 0.07 0.93 0.25 1 0.45a0.3 0.3 0 0 0 0.58 -0.19Z" fill="#4C57E6" fill-rule="evenodd" stroke-width="1"></path>
    <path d="M14 10.7a10.12 10.12 0 0 1 1.36 0.65 0.34 0.34 0 0 0 0.37 -0.57A6.67 6.67 0 0 0 11 9.25a8.19 8.19 0 0 0 -2.46 0.82 5.62 5.62 0 0 0 -2.15 2.33 0.29 0.29 0 0 0 0.3 0.29c0.24 0 0.22 -0.17 0.41 -0.38A6.73 6.73 0 0 1 14 10.7Z" fill="#020202" fill-rule="evenodd" stroke-width="1"></path>
    <path d="M16.25 7.31c2.61 1.28 2.89 2.5 3.35 2a0.34 0.34 0 0 0 0 -0.48 12 12 0 0 0 -2.92 -2.34c-4.32 -2.45 -7.2 -1.25 -9.91 -0.13 -1.11 0.48 -3.21 2.81 -3.19 3.27a0.29 0.29 0 0 0 0.31 0.29c0.24 0 0.16 -0.13 0.44 -0.47a9.9 9.9 0 0 1 2.77 -2.2c2.67 -0.95 5.27 -1.84 9.15 0.06Z" fill="#020202" fill-rule="evenodd" stroke-width="1"></path>
    <path d="M13.46 1.63a16 16 0 0 1 4.85 1.52 16.54 16.54 0 0 1 4.17 3 0.34 0.34 0 0 0 0.52 -0.48A16.74 16.74 0 0 0 13.64 0.53C10 -0.09 8 0.79 4.56 2.18 3.11 2.78 -1.18 7 0.31 7c0.3 0 0.18 -0.2 0.53 -0.64A15.08 15.08 0 0 1 4.89 3c3.11 -1.08 5.3 -1.91 8.57 -1.37Z" fill="#020202" fill-rule="evenodd" stroke-width="1"></path>
  </g>
</svg>