<svg xmlns="http://www.w3.org/2000/svg" viewBox="0 0 24 24" id="Wild-Bird-Hunt--Streamline-Freehand">
  <desc>
    Wild Bird Hunt Streamline Icon: https://streamlinehq.com
  </desc>
  <g>
    <path d="M10.42 15.23a0.88 0.88 0 0 0 0.15 0.12 0.3 0.3 0 0 0 0.43 0 0.31 0.31 0 0 0 0 -0.44c-0.15 -0.19 -0.31 -0.38 -0.44 -0.58a2.63 2.63 0 0 1 -0.31 -0.57c-0.11 -0.23 -0.16 -0.52 -0.28 -0.77a1.51 1.51 0 0 0 -0.27 -0.42 0.66 0.66 0 0 0 -0.31 -0.19 4.37 4.37 0 0 0 -0.45 0 3.58 3.58 0 0 1 -0.43 -0.08 0.61 0.61 0 0 0 -0.08 -0.49 3.41 3.41 0 0 0 -0.52 -0.54 8.24 8.24 0 0 1 -0.86 -0.81 2.48 2.48 0 0 1 -0.39 -0.6 0.29 0.29 0 0 0 -0.31 -0.17 2.57 2.57 0 0 1 0.73 -1 3.77 3.77 0 0 1 0.84 -0.51 3.25 3.25 0 0 1 1.37 -0.36 3.19 3.19 0 0 1 0.92 0.08 13.33 13.33 0 0 1 1.47 0.49 0.3 0.3 0 0 0 0.41 -0.15 0.31 0.31 0 0 0 -0.15 -0.41 11.31 11.31 0 0 0 -1.48 -0.73 4 4 0 0 0 -1.16 -0.29A3.78 3.78 0 0 0 8 7a3.82 3.82 0 0 0 -1.14 0.66A3.06 3.06 0 0 0 5.69 10a0.33 0.33 0 0 0 0 0.15 4 4 0 0 0 -0.53 0.78 6.64 6.64 0 0 0 -0.56 1.7c-0.06 0.39 -0.28 1.49 -0.09 1.76a0.47 0.47 0 0 0 0.7 0.13 2 2 0 0 0 0.4 -0.3c0.22 -0.21 0.42 -0.46 0.64 -0.65a2.45 2.45 0 0 1 0.37 -0.26 6.61 6.61 0 0 1 0.7 -0.36l0.68 -0.27 0.25 0.21c0.17 0.11 0.34 0.19 0.49 0.28s0.24 0 0.69 1.05a3.37 3.37 0 0 0 0.46 0.54l0.07 0.05a5.63 5.63 0 0 0 -0.72 0.57 4.15 4.15 0 0 0 -0.42 0.52l-0.32 0.49 -0.16 -0.1c-0.23 -0.09 -0.53 -0.12 -0.66 -0.17L7 16a0.27 0.27 0 0 0 -0.19 0.51l0.42 0.33c0.29 0.22 0.64 0.1 0.62 0.6l0 0.33c0 0.11 -0.09 0.49 -0.12 0.66a0.31 0.31 0 1 0 0.6 0.18 4.73 4.73 0 0 0 0.52 -1.15 1 1 0 0 0 0 -0.38c0.21 -0.15 0.42 -0.3 0.62 -0.47a3 3 0 0 0 0.31 -0.31 2.78 2.78 0 0 0 0.26 -0.34 6.61 6.61 0 0 0 0.38 -0.73ZM7 12a8.67 8.67 0 0 0 -0.83 0.36 4 4 0 0 0 -0.54 0.38l-0.09 0.08v-0.1a5.81 5.81 0 0 1 0.3 -1.56 2.81 2.81 0 0 1 0.4 -0.77c0.09 0.15 0.18 0.3 0.28 0.44a9.25 9.25 0 0 0 0.82 1l0 0.09Z" fill="#020202" fill-rule="evenodd" stroke-width="1"></path>
    <path d="M12.57 15.63c-0.22 0.16 -0.45 0.27 -0.66 0.45a1.79 1.79 0 0 0 -0.23 0.25 1.83 1.83 0 0 0 -0.18 0.3 2.13 2.13 0 0 0 -0.14 0.35l-0.07 0 -0.82 -0.41a0.28 0.28 0 0 0 -0.38 0.08 0.27 0.27 0 0 0 0.08 0.38l0.57 0.69c0.1 0.1 0.19 -0.05 0.25 0.81 0 0.31 0 0.62 0.07 0.91a0.3 0.3 0 0 0 0.28 0.33 0.31 0.31 0 0 0 0.34 -0.28 7.14 7.14 0 0 0 0.32 -1.37 2.26 2.26 0 0 0 -0.08 -0.53l0.41 -0.39a1.15 1.15 0 0 0 0.21 -0.23 1.51 1.51 0 0 0 0.18 -0.26A6.59 6.59 0 0 0 13 16a0.26 0.26 0 0 0 0 -0.38 0.28 0.28 0 0 0 -0.43 0.01Z" fill="#020202" fill-rule="evenodd" stroke-width="1"></path>
    <path d="M16.72 13.41a4.61 4.61 0 0 1 0.08 1c0 0.29 -0.07 0.64 -0.06 1a1.92 1.92 0 0 0 0.11 0.54 3.56 3.56 0 0 0 0.35 0.67 14.34 14.34 0 0 1 0.8 1.28l0.17 0.35c-0.16 0 -0.42 0 -0.48 0.07l-1 0.4a6.75 6.75 0 0 1 -0.68 0.2 1.67 1.67 0 0 1 -0.4 0.07h-0.14c0 -0.09 -0.08 -0.27 -0.09 -0.34 0 -0.24 -0.06 -0.47 -0.08 -0.72s0 -0.3 0 -0.46a4.63 4.63 0 0 0 0.91 -0.21 0.31 0.31 0 0 0 -0.05 -0.62 11.58 11.58 0 0 1 -1.16 -0.21l-0.32 0a3.94 3.94 0 0 1 -0.77 -0.06 0.27 0.27 0 1 0 -0.28 0.46 2.33 2.33 0 0 0 0.83 0.57 1 1 0 0 0 0.24 0.05l0 1.28a2.65 2.65 0 0 0 0 0.54 0.52 0.52 0 0 0 0.17 0.29 1.07 1.07 0 0 0 0.55 0.25 2.24 2.24 0 0 0 0.73 0 7.55 7.55 0 0 0 0.8 -0.16c0.37 -0.09 0.73 -0.22 1.1 -0.33a5.29 5.29 0 0 0 0.76 -0.26 0.72 0.72 0 0 0 0.37 -0.39 1 1 0 0 0 0.05 -0.51 2.55 2.55 0 0 0 -0.27 -0.7 3.91 3.91 0 0 0 -0.26 -0.44 11.78 11.78 0 0 1 -1 -1.4 1.05 1.05 0 0 1 -0.08 -0.36l0 -0.81a5.85 5.85 0 0 0 -0.2 -1.17 4.19 4.19 0 0 0 -0.26 -0.7c-0.24 -0.45 -0.74 -0.3 -0.63 0.11a3.86 3.86 0 0 1 0.19 0.72Z" fill="#020202" fill-rule="evenodd" stroke-width="1"></path>
    <path d="M23.08 5.67a2.15 2.15 0 0 0 -0.56 -0.07l-0.69 0 -2 0.11 -1.46 0a2.69 2.69 0 0 0 -0.74 0.19 4.4 4.4 0 0 0 -0.8 0.49c-0.52 0.39 -1 0.89 -1.51 1.22a5.49 5.49 0 0 1 -0.84 0.42c-0.46 0.17 -0.94 0.3 -1.41 0.44a0.29 0.29 0 0 0 -0.2 0.34 0.28 0.28 0 0 0 0.34 0.19 15.19 15.19 0 0 0 1.48 -0.36 4.74 4.74 0 0 0 1 -0.39c0.57 -0.3 1.1 -0.76 1.66 -1.12a3 3 0 0 1 0.65 -0.27 2 2 0 0 1 0.65 -0.1l1.24 0 1.94 -0.11 0.64 0a1.22 1.22 0 0 1 0.32 0c0.2 0 0.23 0.23 0.21 0.41a1.58 1.58 0 0 1 -0.37 0.85 3.36 3.36 0 0 1 -1.57 0.8 7.3 7.3 0 0 1 -1.88 0.2 0.31 0.31 0 0 0 -0.33 0.29 0.31 0.31 0 0 0 0.29 0.33 7.93 7.93 0 0 0 1.29 0l-0.16 0.12a3.55 3.55 0 0 1 -0.81 0.35 4.84 4.84 0 0 1 -0.83 0.22 6.46 6.46 0 0 1 -1.87 0 0.3 0.3 0 0 0 -0.37 0.23 0.3 0.3 0 0 0 0.23 0.37l0.61 0.19 -0.43 0.18a2 2 0 0 1 -0.63 0.15 1.27 1.27 0 0 1 -0.39 0 1.21 1.21 0 0 1 -0.37 -0.11c-0.22 -0.1 -0.44 -0.24 -0.67 -0.34a0.31 0.31 0 0 0 -0.42 0.11 0.32 0.32 0 0 0 0.1 0.43c0.24 0.18 0.37 0.29 0.6 0.48a2.63 2.63 0 0 0 0.63 0.26 2.42 2.42 0 0 0 2.55 -1 3.37 3.37 0 0 0 0.55 0A3.09 3.09 0 0 0 19.9 11a3.13 3.13 0 0 0 0.91 -0.7 3 3 0 0 0 0.28 -0.34c0.1 -0.17 0.19 -0.34 0.29 -0.5 0.1 0 0.2 0 0.3 -0.06a4 4 0 0 0 1.58 -0.79A2.53 2.53 0 0 0 24 6.87a1.17 1.17 0 0 0 -0.92 -1.2Z" fill="#4C57E6" fill-rule="evenodd" stroke-width="1"></path>
    <path d="M5.05 9a0.31 0.31 0 0 0 -0.31 -0.31H4a2.14 2.14 0 0 1 -0.69 -0.26L3 8.23l-0.25 -0.14A5 5 0 0 0 3.44 8c0.48 -0.07 1 -0.18 1.45 -0.24a0.32 0.32 0 0 0 0.28 -0.34 0.31 0.31 0 0 0 -0.34 -0.28c-0.48 0 -1 0.1 -1.46 0.12H2.8a4 4 0 0 1 -0.92 -0.2 2.19 2.19 0 0 1 -0.74 -0.4c-0.06 -0.06 -0.2 -0.2 -0.13 -0.21s0.18 -0.07 0.29 -0.09c0.35 -0.07 0.74 -0.08 1 -0.14A7 7 0 0 0 3.23 6a8 8 0 0 0 0.88 -0.43 9 9 0 0 1 0.79 -0.46A1.19 1.19 0 0 1 5.35 5a0.29 0.29 0 0 1 0.17 0c0.1 0.1 0.19 0.22 0.32 0.34L7 6.33a0.27 0.27 0 0 0 0.39 0 0.28 0.28 0 0 0 0 -0.39l-1 -1c-0.15 -0.17 -0.24 -0.34 -0.37 -0.46a1 1 0 0 0 -0.55 -0.24 2 2 0 0 0 -0.81 0.09 9.52 9.52 0 0 0 -0.92 0.41 8.33 8.33 0 0 1 -0.88 0.26 6.41 6.41 0 0 1 -0.86 0.28c-0.29 0.07 -0.77 0.07 -1.14 0.18a1.33 1.33 0 0 0 -0.67 0.4 0.92 0.92 0 0 0 -0.19 0.79 1.39 1.39 0 0 0 0.51 0.79 2.8 2.8 0 0 0 0.88 0.44c0.11 0 0.22 0 0.33 0.08a2.31 2.31 0 0 0 0.78 1.15 1.91 1.91 0 0 0 0.72 0.34 2.38 2.38 0 0 0 0.8 0l0.72 -0.21A0.31 0.31 0 0 0 5.05 9Z" fill="#4C57E6" fill-rule="evenodd" stroke-width="1"></path>
    <path d="M8.07 9.53a0.67 0.67 0 0 0 0.69 0.75 0.7 0.7 0 0 0 0.61 -0.5 0.66 0.66 0 0 0 -0.2 -0.7c-0.09 -0.08 -0.98 -0.46 -1.1 0.45Z" fill="#020202" fill-rule="evenodd" stroke-width="1"></path>
  </g>
</svg>