<svg xmlns="http://www.w3.org/2000/svg" viewBox="0 0 24 24" id="Wind-South--Streamline-Freehand">
  <desc>
    Wind South Streamline Icon: https://streamlinehq.com
  </desc>
  <g>
    <path d="M9.42 19c2.15 -0.59 2.78 -2.24 2 -3.53a1.92 1.92 0 0 0 -3.3 -0.1c-0.41 0.65 0.13 1.21 0.48 0.95a0.33 0.33 0 0 0 0.08 -0.47 1.11 1.11 0 0 1 1.93 0.08c0.51 1 -0.39 1.68 -1.47 2a16.26 16.26 0 0 1 -2.73 0.31 31.91 31.91 0 0 1 -5.57 0.19 0.3 0.3 0 0 0 -0.11 0.57c2.09 0.35 6.96 0.47 8.69 0Z" fill="#020202" fill-rule="evenodd" stroke-width="1"></path>
    <path d="M13.76 20.68c-2.57 -0.55 -9.85 -0.14 -12.77 0.22a0.3 0.3 0 0 0 0.06 0.6c1.18 -0.1 5.24 0.05 6.75 0.06 4.49 0.05 5.89 -0.07 6.46 0.31a0.68 0.68 0 0 1 0 1.24l-0.76 0.2a0.34 0.34 0 0 0 -0.61 0.31c0.26 0.55 1.05 0.39 1.63 0.21 1.42 -0.46 1.42 -2.7 -0.76 -3.15Z" fill="#020202" fill-rule="evenodd" stroke-width="1"></path>
    <path d="M15.62 0.21A9.9 9.9 0 0 0 9.35 1C2.3 4.22 2 11.43 5.8 15.63a0.3 0.3 0 1 0 0.45 -0.4C2.89 11.35 3.12 4.91 9.8 2a8.91 8.91 0 0 1 5.55 -0.68c8.82 2 10 14.08 0.86 16.93a0.34 0.34 0 0 0 0.2 0.65 9.39 9.39 0 0 0 7.1 -8.28A10 10 0 0 0 15.62 0.21Z" fill="#4C57E6" fill-rule="evenodd" stroke-width="1"></path>
    <path d="M15.89 10.07a23.18 23.18 0 0 1 -1.32 2.42 0.35 0.35 0 0 0 0.59 0.36 16.3 16.3 0 0 0 2.52 -5.29c0.37 -1.67 -0.25 -3.1 -1.68 -2.56a12 12 0 0 0 -2.5 1.62 3.4 3.4 0 0 0 -0.4 -0.28c-2.58 -1.94 -4.21 -1.07 -3.78 0.25a11.24 11.24 0 0 0 0.86 1.77c1.11 2 1.88 4.24 3.26 6.11a0.3 0.3 0 1 0 0.49 -0.35c-1.27 -1.92 -1.87 -4.12 -2.87 -6.21a7.35 7.35 0 0 1 -0.84 -1.53c0.45 -0.3 1.72 0.53 2.18 0.88 0.17 0.13 0.47 0.64 1 0.61 0.85 -0.07 2 -1.56 3 -1.91 0.1 0 0.18 -0.1 0.25 0 0.66 0.4 -0.4 3.31 -0.76 4.11Z" fill="#020202" fill-rule="evenodd" stroke-width="1"></path>
  </g>
</svg>