<svg xmlns="http://www.w3.org/2000/svg" viewBox="0 0 24 24" id="Wireless-Signal-Rss-Feed--Streamline-Freehand">
  <desc>
    Wireless Signal Rss Feed Streamline Icon: https://streamlinehq.com
  </desc>
  <g>
    <path d="M4.37 18.21a3.19 3.19 0 0 0 -2.82 0.24 3 3 0 0 0 -1.4 2.39 2.7 2.7 0 0 0 2.12 2.89 0.3 0.3 0 1 0 0.16 -0.57 2.09 2.09 0 0 1 -1.14 -0.87A1.91 1.91 0 0 1 1.05 21a2.07 2.07 0 0 1 1.06 -1.6 2.11 2.11 0 0 1 1.82 -0.15 2.14 2.14 0 0 1 1.35 1.65 2 2 0 0 1 -0.86 2 1.41 1.41 0 0 1 -0.39 0.19 4.44 4.44 0 0 1 -0.71 0.19 0.33 0.33 0 0 0 -0.28 0.39 0.34 0.34 0 0 0 0.39 0.27 5.62 5.62 0 0 0 0.82 -0.16 2.27 2.27 0 0 0 0.58 -0.23 2.83 2.83 0 0 0 1.42 -2.75 3.18 3.18 0 0 0 -1.88 -2.59Z" fill="#4C57E6" fill-rule="evenodd" stroke-width="1"></path>
    <path d="M20.28 9.15A19.23 19.23 0 0 0 15 3.7a21 21 0 0 0 -7 -3A23.67 23.67 0 0 0 4.23 0.13 22 22 0 0 0 0.42 0.18 0.29 0.29 0 0 0 0.15 0.5a0.3 0.3 0 0 0 0.32 0.27 20 20 0 0 1 3.7 0.08 21.61 21.61 0 0 1 3.63 0.69 20.82 20.82 0 0 1 6.54 3.08 19.59 19.59 0 0 1 5 5.14 24.16 24.16 0 0 1 3.96 13.83 0.34 0.34 0 0 0 0.33 0.34 0.33 0.33 0 0 0 0.34 -0.32 24.61 24.61 0 0 0 -3.69 -14.46Z" fill="#020202" fill-rule="evenodd" stroke-width="1"></path>
    <path d="M10.32 9.7a14.16 14.16 0 0 0 -4.81 -2 16.57 16.57 0 0 0 -2.61 -0.42 15.29 15.29 0 0 0 -2.63 0.06 0.3 0.3 0 0 0 -0.27 0.32 0.31 0.31 0 0 0 0.32 0.27A13.24 13.24 0 0 1 2.83 8a15.3 15.3 0 0 1 2.46 0.49 14.4 14.4 0 0 1 4.4 2.12 13.57 13.57 0 0 1 3.39 3.46 16.48 16.48 0 0 1 2.73 9.36 0.34 0.34 0 0 0 0.33 0.34 0.33 0.33 0 0 0 0.34 -0.32 17 17 0 0 0 -2.48 -10 13.16 13.16 0 0 0 -3.68 -3.75Z" fill="#020202" fill-rule="evenodd" stroke-width="1"></path>
  </g>
</svg>