<svg xmlns="http://www.w3.org/2000/svg" viewBox="0 0 24 24" id="Wireless-Satellite-1--Streamline-Freehand">
  <desc>
    Wireless Satellite 1 Streamline Icon: https://streamlinehq.com
  </desc>
  <g>
    <path d="M17.86 19.43a13 13 0 0 1 -3.36 0.93 0.35 0.35 0 0 0 0 0.7 19.44 19.44 0 0 0 2.14 -0.19c0.37 -0.06 1.69 -0.41 1.77 -0.44a5 5 0 0 0 1.88 -1.66 9.63 9.63 0 0 0 0.83 -1.7 5.18 5.18 0 0 0 -0.12 -2.86 0.31 0.31 0 0 0 -0.44 0c-0.22 0.22 0.12 0.07 -0.12 1.66a2.58 2.58 0 0 1 -0.21 0.8 8.73 8.73 0 0 1 -1.1 1.68 4.59 4.59 0 0 1 -1.27 1.08Z" fill="#4C57E6" stroke-width="1"></path>
    <path d="M23.69 13.67a0.31 0.31 0 0 0 -0.44 0c-0.19 0.19 0 0.26 0 0.69a9.24 9.24 0 0 1 -0.39 3 14.47 14.47 0 0 1 -1.61 2.71A8.82 8.82 0 0 1 17 22.75c-2.56 0.73 -3.42 0 -3.45 0.7a0.35 0.35 0 0 0 0.34 0.36 10.42 10.42 0 0 0 3.33 -0.14 8.6 8.6 0 0 0 4.94 -2.82 13.68 13.68 0 0 0 1.56 -3c0.44 -1.05 0.28 -3.85 -0.03 -4.18Z" fill="#4C57E6" stroke-width="1"></path>
    <path d="M14 16a4 4 0 0 0 1.81 1.69A1.79 1.79 0 0 0 18 16.23c0.08 -1 -0.69 -1.73 -1.39 -2.47 0.89 -0.8 3.2 -1.65 1 -3.19a5.88 5.88 0 0 0 -3.08 -1.31 3.87 3.87 0 0 0 -2.85 1.21c-0.37 -0.92 -0.64 -1.13 -1.23 -1.38a8.65 8.65 0 0 0 0.89 -0.82c0.16 -0.18 0.53 -0.24 0.62 -0.61s-0.34 -0.66 -0.46 -0.82c-0.5 -0.66 -0.5 -0.57 -0.5 -0.62 0.66 -0.2 0.76 -0.18 1.39 -1 0.23 0.54 0.48 1 1.06 1.07a2.31 2.31 0 0 0 1.2 -0.5 7.08 7.08 0 0 0 2.25 -1.61c0.36 -0.42 0.88 -1.13 0.69 -1.65A5.88 5.88 0 0 0 16.52 0.74c-0.3 -0.36 -0.65 -0.76 -1.13 -0.57a2 2 0 0 0 -0.58 0.39c-2.63 1.9 -3.25 2.3 -3.07 2.71a0.36 0.36 0 0 0 0.64 0c0.06 0 0.19 -0.18 0.21 -0.19 1.05 -0.71 0.37 -0.28 2.93 -1.83a4.82 4.82 0 0 1 0.71 1c0.31 0.57 0.24 0.51 0.27 0.6a8.8 8.8 0 0 1 -2.35 2c-0.17 0.12 -0.32 0.27 -0.49 0.38s-0.18 0.21 -0.46 -0.26c-0.19 -0.31 -0.35 -0.66 -0.47 -0.82 -0.53 -0.69 -0.55 -0.71 -0.64 -0.72a0.21 0.21 0 0 0 -0.19 0c-0.16 0.06 -0.31 0.19 -0.2 0.4 0 0.06 0.25 0.39 0.4 0.62 -0.18 0.1 -0.59 0.18 -0.87 0.32s-0.49 0.45 -0.73 0.82C8.77 3.89 9 3.64 7.94 2.49S5.8 0.79 4.58 1.61c-1.94 1.31 -0.78 3.63 0.71 5.44 0.4 0.49 0.45 0.48 1.38 1.56a3.37 3.37 0 0 0 -0.67 0.25c-0.39 0.25 -0.51 0.62 -0.76 1 -0.07 0 0 0.14 -0.48 -0.46 -0.33 -0.37 -0.66 0.18 -0.55 0.32l0.52 0.7c0.16 0.2 1.14 1 1 1 0 0.16 -0.44 0.39 -0.62 0.54a9 9 0 0 1 -1.95 1.43c-0.79 0.37 -0.68 0.33 -1.12 -0.09a5 5 0 0 1 -0.8 -0.94C3.43 10.16 4 9.7 4 9.51a0.35 0.35 0 0 0 -0.5 -0.37 4.2 4.2 0 0 0 -1 0.84C-0.07 12.05 0.25 11.75 0.13 11.91c-0.31 0.43 0 0.88 0.26 1.25a6.12 6.12 0 0 0 1.45 1.51c0.46 0.32 1.28 0 1.78 -0.25a7.05 7.05 0 0 0 2.12 -1.76c0.25 -0.26 0.69 -0.54 0.8 -1s-0.31 -0.94 -0.77 -1.3a2 2 0 0 0 1.38 -1.19c1 1.19 0.71 0.88 0.9 1.09 0.58 0.65 0.95 -0.08 0.58 -0.31l-1.94 -2.6c-0.76 -0.87 -2.11 -2.88 -2 -3.95 0 -0.61 0.84 -1.19 1.37 -0.91C7.38 3.18 8.21 4.9 9.36 6c1.79 1.66 1.2 1.29 1.55 1.5a10.64 10.64 0 0 1 -2.08 2 0.35 0.35 0 0 0 0.43 0.56l0.59 -0.43a1.79 1.79 0 0 0 0.68 1c0.15 0.11 0.58 0.35 0.64 0.4a4.17 4.17 0 0 0 -0.76 0.93 4.43 4.43 0 0 0 0.59 5.17 0.37 0.37 0 0 0 0.54 -0.52 3.44 3.44 0 0 1 -0.09 -4.1 7.34 7.34 0 0 1 2 -1.59c1.52 -0.69 2.57 0.41 3.61 0.92 -0.35 0.33 -0.81 0.63 -1.16 1a21.91 21.91 0 0 1 -4 3.57 0.42 0.42 0 1 0 0.52 0.67c0.52 -0.38 1.07 -0.72 1.61 -1.09Zm2 -1.62c0.15 0.23 0.06 0.09 0.5 0.86a1.64 1.64 0 0 1 0.21 0.61c0 0.32 -0.38 0.56 -0.67 0.47a4.17 4.17 0 0 1 -1.34 -0.82 12.85 12.85 0 0 0 1.3 -1.15Z" fill="#020202" stroke-width="1"></path>
  </g>
</svg>