<svg xmlns="http://www.w3.org/2000/svg" viewBox="0 0 24 24" id="Wireless-Wifi-Signal-Pole--Streamline-Freehand">
  <desc>
    Wireless Wifi Signal Pole Streamline Icon: https://streamlinehq.com
  </desc>
  <g>
    <path d="M5 17.21a9.14 9.14 0 0 1 -3.35 -5.12 12.73 12.73 0 0 1 -0.46 -3.7A10.12 10.12 0 0 1 1.47 6 9.36 9.36 0 0 1 2.6 3.33a8.3 8.3 0 0 1 1.91 -2.12 0.35 0.35 0 0 0 0.07 -0.48 0.34 0.34 0 0 0 -0.47 -0.07 8.87 8.87 0 0 0 -2.22 2.19A10.45 10.45 0 0 0 0.47 5.66 10.17 10.17 0 0 0 0 8.36a11.73 11.73 0 0 0 0.57 4 9.56 9.56 0 0 0 4.05 5.31 0.31 0.31 0 0 0 0.42 -0.09 0.29 0.29 0 0 0 -0.04 -0.37Z" fill="#4C57E6" fill-rule="evenodd" stroke-width="1"></path>
    <path d="M23.53 5.58a10.24 10.24 0 0 0 -1.42 -2.8 8.91 8.91 0 0 0 -2.22 -2.2 0.34 0.34 0 0 0 -0.47 0.07 0.35 0.35 0 0 0 0.07 0.48 8.3 8.3 0 0 1 1.91 2.12 9.36 9.36 0 0 1 1.13 2.62 10.14 10.14 0 0 1 0.32 2.45 12.66 12.66 0 0 1 -0.46 3.68A9.11 9.11 0 0 1 19 17.13a0.29 0.29 0 0 0 -0.09 0.41 0.31 0.31 0 0 0 0.42 0.09 9.56 9.56 0 0 0 4.05 -5.31 11.73 11.73 0 0 0 0.57 -4 10.17 10.17 0 0 0 -0.42 -2.74Z" fill="#4C57E6" fill-rule="evenodd" stroke-width="1"></path>
    <path d="M6.67 6.08a4.83 4.83 0 0 1 1 -1.24 0.36 0.36 0 0 0 0.06 -0.48 0.34 0.34 0 0 0 -0.48 -0.06A5.68 5.68 0 0 0 6 5.6a6.35 6.35 0 0 0 -0.87 1.68 6 6 0 0 0 -0.31 2 6.55 6.55 0 0 0 0.3 1.95 6.08 6.08 0 0 0 2.18 3.12 0.3 0.3 0 1 0 0.38 -0.46 5.58 5.58 0 0 1 -1.57 -3 8 8 0 0 1 -0.2 -1.68 6 6 0 0 1 0.17 -1.66 5.46 5.46 0 0 1 0.59 -1.47Z" fill="#4C57E6" fill-rule="evenodd" stroke-width="1"></path>
    <path d="M19.23 9.16a6 6 0 0 0 -0.31 -2 6.14 6.14 0 0 0 -0.87 -1.67 5.54 5.54 0 0 0 -1.34 -1.31 0.35 0.35 0 0 0 -0.48 0.06 0.36 0.36 0 0 0 0.06 0.48 4.83 4.83 0 0 1 1 1.24 5.59 5.59 0 0 1 0.59 1.49 6 6 0 0 1 0.17 1.66 8 8 0 0 1 -0.2 1.68 5.54 5.54 0 0 1 -1.57 3 0.29 0.29 0 0 0 0 0.42 0.3 0.3 0 0 0 0.42 0 6.11 6.11 0 0 0 2.23 -3.17 6.5 6.5 0 0 0 0.3 -1.88Z" fill="#4C57E6" fill-rule="evenodd" stroke-width="1"></path>
    <path d="M13 7.4a3.28 3.28 0 0 0 -3.06 0.83 3.14 3.14 0 0 0 -0.94 3 3.6 3.6 0 0 0 1.5 2 2.25 2.25 0 0 0 1.18 0.38c0 0.71 -0.12 1.68 -0.17 2.73l0 1.46 0 1.46c0 1.43 0.15 2.71 0.2 3.4 0 0.52 0 0.66 0.12 0.75s0.29 0.15 0.43 0 0.07 -0.06 0.12 -0.86 0.18 -2.05 0.24 -3.49l0 -2.33c0 -1.66 -0.13 -3.17 -0.16 -3.88l0 -0.39c0 -0.2 -0.19 -0.21 -0.35 -0.17s-0.29 0 -0.32 0.17l0 0.49a1.76 1.76 0 0 1 -1.05 -0.57A2.58 2.58 0 0 1 9.92 11a2.21 2.21 0 0 1 0.79 -2 2.27 2.27 0 0 1 2 -0.57 1.86 1.86 0 0 1 1.2 0.72 2.6 2.6 0 0 1 0.41 1.48 2 2 0 0 1 -0.2 1.07 2.65 2.65 0 0 1 -0.83 0.8 0.34 0.34 0 0 0 -0.11 0.47 0.35 0.35 0 0 0 0.47 0.11 3.32 3.32 0 0 0 1.11 -1 2.65 2.65 0 0 0 0.43 -1.46 3.58 3.58 0 0 0 -0.43 -2.05A2.93 2.93 0 0 0 13 7.4Z" fill="#020202" fill-rule="evenodd" stroke-width="1"></path>
  </g>
</svg>