<svg xmlns="http://www.w3.org/2000/svg" viewBox="0 0 24 24" id="Wolf-Body--Streamline-Freehand">
  <desc>
    Wolf Body Streamline Icon: https://streamlinehq.com
  </desc>
  <g>
    <path d="M24 6.29a5.19 5.19 0 0 0 -0.92 -2.42 2.33 2.33 0 0 0 -1.66 -1 0.57 0.57 0 0 0 -0.58 0.63c0 0.19 0.12 0.66 0.12 0.72A6 6 0 0 1 21 5a6.16 6.16 0 0 1 0 0.75 5.23 5.23 0 0 1 -1.26 2.58 2.41 2.41 0 0 1 -2 0.89 26.23 26.23 0 0 0 -2.66 0 6.16 6.16 0 0 1 -1.05 -0.05 9 9 0 0 1 -1.23 -0.26 6.48 6.48 0 0 1 -1.14 -0.42c-0.49 -0.23 -0.94 -0.54 -1.42 -0.79a4.94 4.94 0 0 0 -0.7 -0.33 3.86 3.86 0 0 0 -0.58 -0.17 17.6 17.6 0 0 1 -2.07 -0.4 0.88 0.88 0 0 1 -0.27 -0.16c-0.27 -0.26 -0.45 -0.61 -0.76 -0.87a2.16 2.16 0 0 0 -0.45 -0.28 0.77 0.77 0 0 0 -0.47 0 0.53 0.53 0 0 0 -0.33 0.22 1.63 1.63 0 0 0 -0.2 0.43c-0.08 0.25 -0.19 0.51 -0.27 0.77a4.6 4.6 0 0 0 -0.13 0.5l-1.22 0.77c-0.1 0.07 -0.27 0.15 -0.4 0.25a0.69 0.69 0 0 0 -0.22 0.23 1 1 0 0 0 -0.26 0.34c0 0.19 0 0.4 -0.07 0.61l-0.36 0.39 -0.9 0.72a1.76 1.76 0 0 0 -0.48 0.46 1 1 0 0 0 -0.1 0.46c0 0.1 0 0.2 0.05 0.3a1.46 1.46 0 0 0 0.16 0.36 1.64 1.64 0 0 0 0.9 0.78 3.18 3.18 0 0 0 0.89 0.12 2.77 2.77 0 0 1 1 0.15 17.28 17.28 0 0 1 2.77 2c0.18 0.12 0.37 0.22 0.55 0.32a3.48 3.48 0 0 0 -0.39 0.38 1.31 1.31 0 0 0 -0.27 0.46 1.16 1.16 0 0 0 0 0.49 2.21 2.21 0 0 0 0.17 0.57 6.32 6.32 0 0 0 0.36 0.74 11.24 11.24 0 0 0 0.7 1 3.67 3.67 0 0 0 1.57 1.27 1.25 1.25 0 0 0 1.42 -0.51 0.31 0.31 0 0 0 0 -0.44 0.33 0.33 0 0 0 -0.45 0 0.6 0.6 0 0 1 -0.7 0.18c-0.42 -0.18 -0.73 -0.73 -1 -1.14l-1.05 -1.52 -0.21 -0.46a0.76 0.76 0 0 1 0.12 -0.31c0.11 -0.16 0.24 -0.31 0.35 -0.44 0.2 -0.48 0.25 -0.66 0 -0.8 -1 -0.63 -1.75 -1.53 -2.68 -2.23a5.13 5.13 0 0 0 -0.84 -0.52 3.48 3.48 0 0 0 -1.16 -0.24 2.78 2.78 0 0 1 -0.83 -0.1 0.65 0.65 0 0 1 -0.36 -0.3L1 11.54c0.05 0 0.14 -0.07 0.17 -0.11l0.91 -0.87a4 4 0 0 0 0.37 -0.42 0.93 0.93 0 0 0 0.15 -0.34l0.08 -0.8 0.41 -0.32 1.15 -0.86s0 -0.06 0.06 -0.09a0.28 0.28 0 0 0 0.14 -0.18 4.42 4.42 0 0 1 0.15 -0.48c0.1 -0.25 0.22 -0.49 0.33 -0.74 0 0 0.09 -0.1 0.12 -0.16l0.22 0.17c0.29 0.27 0.42 0.62 0.67 0.89a1.52 1.52 0 0 0 0.53 0.39 3.73 3.73 0 0 0 0.56 0.2 19.68 19.68 0 0 1 2 0.53l2 1.1a6.87 6.87 0 0 0 1.34 0.47 9.2 9.2 0 0 0 1.38 0.21 7.12 7.12 0 0 0 0.8 0c1 0 2 -0.25 3 -0.23a3.25 3.25 0 0 1 0.85 0.11 0.77 0.77 0 0 1 0.38 0.22 8.21 8.21 0 0 1 1.34 1.91 3.46 3.46 0 0 1 0.29 2.29 1.41 1.41 0 0 1 -0.3 0.49 4.59 4.59 0 0 0 -0.49 0.72 1.26 1.26 0 0 0 -0.14 0.57 1.66 1.66 0 0 0 0.12 0.67 6.66 6.66 0 0 0 0.5 0.95 1.28 1.28 0 0 1 0.23 0.66 0.86 0.86 0 0 1 -0.1 0.38 2.34 2.34 0 0 1 -0.26 0.43 1.74 1.74 0 0 1 -0.6 0.65 1.2 1.2 0 0 1 -0.8 0.05h-0.1l0 -0.11a2.28 2.28 0 0 0 0.54 -1.37 1.53 1.53 0 0 0 -0.6 -0.91c-0.43 -0.33 -1 -0.66 -1.43 -1a3.46 3.46 0 0 1 -0.72 -0.77 2.44 2.44 0 0 1 -0.19 -0.44c-0.09 -0.26 -0.14 -0.52 -0.21 -0.78a0.31 0.31 0 0 0 -0.61 0.14 7.65 7.65 0 0 0 0.18 0.83 1.8 1.8 0 0 0 0.08 0.21 0.34 0.34 0 0 0 -0.19 -0.07 8.89 8.89 0 0 0 -0.88 -0.13H14l-0.36 0c-0.3 0.07 -0.55 0.19 -0.84 0.28a0.25 0.25 0 0 0 -0.24 0.21V16c0.05 -0.51 0.2 -1.05 0.22 -1.45a0.31 0.31 0 1 0 -0.62 -0.06c-0.07 0.46 -0.32 1.1 -0.39 1.66a1.86 1.86 0 0 0 0.1 0.93 1.71 1.71 0 0 0 0.72 0.74 2.29 2.29 0 0 1 0.51 0.36 0.25 0.25 0 0 1 0 0.19l-0.1 0.29c-0.1 0.21 -0.36 0.16 -0.61 0.14a7.86 7.86 0 0 1 -1.19 -0.25 2.3 2.3 0 0 1 -0.43 -0.12 0.4 0.4 0 0 1 -0.21 -0.12 11.89 11.89 0 0 1 -0.74 -1.76 1.41 1.41 0 0 0 -0.28 -0.55c-0.28 -0.24 -0.65 0 -0.49 0.27a1.63 1.63 0 0 1 0.21 0.48 13.61 13.61 0 0 0 0.58 2 1.29 1.29 0 0 0 0.45 0.45 3.23 3.23 0 0 0 0.67 0.29 5.25 5.25 0 0 0 2 0.34 1.27 1.27 0 0 0 1 -0.72l0.15 -0.51a1.11 1.11 0 0 0 -0.26 -1.08 2.39 2.39 0 0 0 -0.65 -0.44c-0.21 -0.11 -0.45 -0.18 -0.56 -0.38a1.17 1.17 0 0 1 -0.08 -0.51 0.27 0.27 0 0 0 0.26 0.22 7 7 0 0 0 0.89 0.18 2.41 2.41 0 0 0 0.38 0l0.37 -0.06c0.29 -0.06 0.55 -0.16 0.84 -0.23a0.32 0.32 0 0 0 0.28 -0.27l0 0.09a3.39 3.39 0 0 0 0.6 0.78c0.49 0.49 1.12 0.92 1.6 1.34 0.21 0.18 0.29 0.33 0.27 0.48a2.55 2.55 0 0 1 -0.37 0.74 2.14 2.14 0 0 0 -0.25 0.9 0.6 0.6 0 0 0 0.36 0.52l0.64 0.15a2.22 2.22 0 0 0 1.45 -0.11 3 3 0 0 0 1 -1 3.29 3.29 0 0 0 0.42 -0.76 2 2 0 0 0 0.13 -0.67 2.08 2.08 0 0 0 -0.12 -0.66 6 6 0 0 0 -0.53 -1 1.26 1.26 0 0 1 -0.26 -0.66 0.75 0.75 0 0 1 0.17 -0.43 6.15 6.15 0 0 0 0.45 -0.68 1.51 1.51 0 0 0 0.17 -0.49 4 4 0 0 0 -0.27 -2.29 6.77 6.77 0 0 0 -0.88 -1.45 4.44 4.44 0 0 0 2.69 -1.4A4.26 4.26 0 0 0 24 6.29Zm-4.15 4.06 -0.08 0c-0.63 -0.7 -0.47 -0.64 -0.78 -0.83a3.6 3.6 0 0 0 1.18 -0.76 6.17 6.17 0 0 0 1.69 -2.91A7.56 7.56 0 0 0 22 5a7.18 7.18 0 0 0 0 -0.8 2.38 2.38 0 0 1 0.43 0.55A4.2 4.2 0 0 1 23 6.4a3.36 3.36 0 0 1 -0.72 2.6 3.71 3.71 0 0 1 -2.44 1.35Z" fill="#020202" fill-rule="evenodd" stroke-width="1"></path>
    <path d="M9.24 15.25a3.24 3.24 0 0 1 -0.58 -0.76 6.4 6.4 0 0 1 -0.57 -1.38S8.05 13 8 13l0.6 0a1.9 1.9 0 0 0 0.47 -0.07 0.53 0.53 0 0 0 0.35 -0.45 0.69 0.69 0 0 0 -0.07 -0.38 3.33 3.33 0 0 0 -0.35 -0.5 5.44 5.44 0 0 0 -1 -1.06 4.63 4.63 0 0 0 -1.15 -0.74 0.28 0.28 0 0 0 -0.38 0.12 0.28 0.28 0 0 0 0.13 0.37 4.16 4.16 0 0 1 0.94 0.8 3.94 3.94 0 0 1 0.58 0.84 7.05 7.05 0 0 0 -0.77 -0.06 0.55 0.55 0 0 0 -0.46 0.37 0.9 0.9 0 0 0 0 0.47 5.68 5.68 0 0 0 0.31 0.73 7.57 7.57 0 0 0 0.8 1.47 3.69 3.69 0 0 0 0.53 0.58 3.43 3.43 0 0 1 -0.53 -0.06l-0.6 -0.13c-0.23 0 -0.5 0.35 -0.11 0.72a4.21 4.21 0 0 0 0.62 0.09c1.89 0.23 1.36 -0.83 1.33 -0.86Z" fill="#4C57E6" fill-rule="evenodd" stroke-width="1"></path>
    <path d="M4.17 9a0.65 0.65 0 0 0 -0.52 0.17 0.48 0.48 0 0 0 -0.14 0.23 0.5 0.5 0 0 0 0.13 0.46 0.55 0.55 0 0 0 0.47 0.15 0.6 0.6 0 0 0 0.43 -0.48c0.03 -0.25 -0.06 -0.53 -0.37 -0.53Z" fill="#020202" fill-rule="evenodd" stroke-width="1"></path>
  </g>
</svg>