<svg xmlns="http://www.w3.org/2000/svg" fill="none" viewBox="0 0 24 24" id="Work-From-Home-User-Sit--Streamline-Freehand">
  <desc>
    Work From Home User Sit Streamline Icon: https://streamlinehq.com
  </desc>
  <path fill="#020202" fill-rule="evenodd" d="M13.4861 11.5752c-9.19585 -0.5691 -9.245 -0.3622 -9.41055 -0.9028 -0.41387 -1.34251 -1.21051 -2.8454 -0.38017 -3.16615 1.17719 -0.25023 2.37937 -0.36301 3.58256 -0.33621 1.33993 0.05949 1.91162 0.29743 2.35654 1.44335 0.59752 1.53651 0.46042 2.77551 1.15362 2.57121 0.0513 -0.0146 0.0993 -0.0391 0.1411 -0.0723 0.0418 -0.0331 0.0766 -0.0741 0.1025 -0.1207 0.026 -0.0466 0.0425 -0.0979 0.0487 -0.1509 0.0061 -0.053 0.0017 -0.1067 -0.0129 -0.158 -0.6156 -2.43666 -0.3543 -4.39734 -3.71709 -4.67412 -1.448 -0.10602 -2.9035 0.03476 -4.30432 0.41641 -1.7745 0.86397 -0.61563 3.17136 -0.16554 4.61991 0.4863 1.5521 2.18059 1.2934 5.46057 1.3244 5.28728 0.0336 5.50458 0.0854 5.52008 -0.3983 0.0014 -0.0506 -0.0072 -0.1011 -0.0253 -0.1484 -0.0181 -0.0472 -0.0454 -0.0905 -0.0802 -0.1272 -0.0349 -0.0368 -0.0766 -0.0663 -0.1229 -0.0869 -0.0462 -0.0206 -0.0961 -0.032 -0.1467 -0.0333Z" clip-rule="evenodd" stroke-width="1"></path>
  <path fill="#4C57E6" fill-rule="evenodd" d="M14.1482 8.09827c-0.4619 0.19127 -0.8676 0.49666 -1.1793 0.88754 -0.3751 0.48113 -1.4874 -0.21731 0.3595 -1.44083 0.7026 -0.42833 1.5189 -0.63272 2.3405 -0.5859 0.8215 0.04682 1.6094 0.34261 2.2588 0.84798 0.6494 0.50538 1.1296 1.19646 1.3768 1.98134 0.2472 0.7849 0.2496 1.6264 0.007 2.4127 -0.4834 2.2243 -1.6906 4.2256 -3.4326 5.6908 -0.5003 0.3429 -1.0692 0.5729 -1.6673 0.6743 -0.598 0.1014 -1.2109 0.0717 -1.7964 -0.0871 -1.4838 -0.3298 -1.7964 -0.777 -2.0443 -0.7437 -0.2189 0.0295 -0.38739 0.4334 -1.26667 1.6231 -1.65849 2.1706 -3.2183 2.2359 -4.0084 1.4194 -0.42188 0.2813 -1.21821 0.3864 -2.04486 -0.113 -3.0109574 -1.8262 0.55877 -6.8652 2.97219 -7.1652 0.09732 -0.0151 0.19671 0.0076 0.2778 0.0635 0.08108 0.0559 0.13767 0.1407 0.15819 0.237 0.02052 0.0963 0.00342 0.1969 -0.04783 0.2809 -0.05126 0.0841 -0.13281 0.1454 -0.22783 0.1713 -1.24163 0.3802 -2.55823 2.76 -2.94883 3.7947 -0.14794 0.291 -0.18572 0.6256 -0.10633 0.9422s0.27058 0.5938 0.5383 0.7806c0.44977 0.3524 0.76343 0.3505 1.00432 0.29 -0.231 -0.7009 -0.1269 -1.6145 0.45751 -2.4759 4.14653 -6.0891 4.80094 -3.2851 3.97577 -3.104 -0.63718 0.1518 -1.04116 0.6841 -1.43569 1.204 -0.04913 0.0647 -0.09812 0.1293 -0.14738 0.1929 -3.47657 4.4698 -1.33215 5.3622 0.60531 2.7522 0.28488 -0.3908 0.52297 -0.7389 0.72874 -1.0397 0.71352 -1.0431 1.03855 -1.5183 1.57859 -1.2392 1.1043 0.7205 2.4154 1.0568 3.7301 0.9571 1.404 -0.688 2.5381 -1.8251 3.2222 -3.2309 0.6842 -1.4059 0.8793 -3 0.5544 -4.52933 -0.2167 -0.45053 -0.5442 -0.83869 -0.9518 -1.12814 -0.4077 -0.28944 -0.8821 -0.47068 -1.3789 -0.52677 -0.4968 -0.05609 -0.9997 0.01484 -1.4616 0.20611Z" clip-rule="evenodd" stroke-width="1"></path>
  <path fill="#020202" fill-rule="evenodd" d="M17.8833 6.73532c0.662 -0.095 1.3373 -0.0115 1.9562 0.24179s1.1589 0.66721 1.5644 1.19903c0.7958 1.78429 1.0555 3.76156 0.7475 5.69086 -0.1474 2.7135 -0.1267 5.6416 -2.3099 7.2816 -2.8454 2.1237 -7.5015 1.5675 -11.00397 1.5986 -1.93106 0.095 -3.86637 -0.0527 -5.76062 -0.4397 -0.49993 -0.1905 -0.92942 -0.5297 -1.23053 -0.9719 -0.30112 -0.4422 -0.45939 -0.9661 -0.45344 -1.501 0.01509 -0.1067 -0.01284 -0.2151 -0.0776 -0.3012 -0.06476 -0.0861 -0.16108 -0.1429 -0.26776 -0.158 -0.106684 -0.0151 -0.214978 0.0128 -0.301084 0.0776 -0.086106 0.0647 -0.142946 0.1611 -0.158039 0.2677 -0.054285 0.7114 0.111453 1.4222 0.474673 2.0362 0.36321 0.614 0.90636 1.1015 1.55592 1.3964 2.02382 0.5681 4.12273 0.8228 6.22369 0.7553 3.83096 0 8.46636 0.6959 11.75146 -1.7537 2.6178 -1.9789 2.5868 -4.9769 2.7342 -8.2284 0.2923 -2.177 -0.1058 -4.39093 -1.1381 -6.32978 -0.523 -0.6424 -1.209 -1.13253 -1.9862 -1.4192 -0.7772 -0.28667 -1.6171 -0.35937 -2.432 -0.21046 -0.1019 0.01475 -0.1937 0.06942 -0.2553 0.15189 -0.0616 0.08246 -0.088 0.18602 -0.0732 0.28789 0.0147 0.10188 0.0694 0.19369 0.1518 0.2553 0.0825 0.06161 0.1861 0.08792 0.2879 0.07318Z" clip-rule="evenodd" stroke-width="1"></path>
  <path fill="#4C57E6" fill-rule="evenodd" d="M16.6518 0.534996c-0.3505 -0.237731 -0.746 -0.401222 -1.1621 -0.4803542 -0.4161 -0.0791321 -0.8441 -0.0722462 -1.2575 0.0202088 -0.4133 0.0924554 -0.8034 0.2685104 -1.1462 0.5173774 -0.3428 0.248867 -0.631 0.565252 -0.8469 0.929682 -0.2159 0.36443 -0.3549 0.76922 -0.4085 1.1894 -0.0536 0.42018 -0.0206 0.84686 0.0969 1.25382s0.317 0.78557 0.5863 1.11251c0.2694 0.32694 0.6028 0.59527 0.9797 0.78854 0.7865 0.38034 1.6897 0.44171 2.5204 0.17122 0.8308 -0.27049 1.5247 -0.85179 1.9365 -1.62231 0.2811 -0.53342 0.3872 -1.14182 0.3032 -1.73891 -0.0841 -0.59708 -0.3539 -1.15255 -0.7714 -1.58765 -0.0783 -0.06676 -0.1791 -0.101298 -0.2819 -0.096625 -0.1028 0.004674 -0.2 0.048215 -0.2719 0.121805 -0.072 0.07359 -0.1132 0.17175 -0.1156 0.27464 -0.0023 0.10288 0.0344 0.20281 0.1029 0.2796 0.2286 0.31701 0.3577 0.69479 0.3711 1.08536 0.0133 0.39057 -0.0897 0.77629 -0.2961 1.10817 -0.2919 0.4553 -0.7304 0.79731 -1.2431 0.96947 -0.5127 0.17216 -1.0689 0.16414 -1.5764 -0.02273 -2.191 -1.39684 -0.7554 -4.7932033 2.147 -3.57744 0.0922 0.04425 0.1983 0.05006 0.2949 0.0161 0.0478 -0.01681 0.0918 -0.0429 0.1295 -0.07673 0.0378 -0.03382 0.0684 -0.07477 0.0903 -0.12046 0.0219 -0.04569 0.0347 -0.095208 0.0375 -0.145804 0.0027 -0.050596 -0.0045 -0.10124 -0.0214 -0.14904 -0.0168 -0.0478 -0.0429 -0.091815 -0.0767 -0.129542 -0.0338 -0.037726 -0.0748 -0.068398 -0.1205 -0.090308Z" clip-rule="evenodd" stroke-width="1"></path>
</svg>