<svg xmlns="http://www.w3.org/2000/svg" viewBox="0 0 24 24" id="Worldwide-Web-Upload--Streamline-Freehand">
  <desc>
    Worldwide Web Upload Streamline Icon: https://streamlinehq.com
  </desc>
  <g>
    <path d="M19.3 12.94a0.3 0.3 0 0 0 0 0.6c1.56 0.07 3.7 2.34 3.52 4.75a4.82 4.82 0 0 1 -6.13 4.37c-3.52 -1.1 -4.63 -5.45 -1.36 -8.12a5.48 5.48 0 0 1 2 -1.09 0.34 0.34 0 0 0 -0.17 -0.66 6.39 6.39 0 0 0 -2.32 1.15 5.48 5.48 0 0 0 1.49 9.8 5.71 5.71 0 0 0 7.4 -5.4c0.07 -2.88 -2.51 -5.34 -4.43 -5.4Z" fill="#020202" fill-rule="evenodd" stroke-width="1"></path>
    <path d="M20.05 18.44a0.3 0.3 0 1 0 0.54 -0.25 6.3 6.3 0 0 0 -1.34 -2.27c-0.46 -0.43 -1.25 -0.77 -1.78 -0.4a1.93 1.93 0 0 0 -0.53 0.68 7.37 7.37 0 0 0 -0.81 2 1.45 1.45 0 0 0 0 0.37 0.34 0.34 0 1 0 0.67 0 5.44 5.44 0 0 1 1 -1.7 7.47 7.47 0 0 0 0.26 3.8c0.11 0.44 0 0.67 0.3 0.73 0.51 0.1 0.41 -0.86 0.46 -1.5a8 8 0 0 0 -0.12 -2.32 5.06 5.06 0 0 0 0 -0.81 5.69 5.69 0 0 1 1.35 1.67Z" fill="#020202" fill-rule="evenodd" stroke-width="1"></path>
    <path d="M11.64 20.76a15.51 15.51 0 0 1 -3.27 -0.35 5.35 5.35 0 0 1 -1.46 -0.53l-0.22 -0.14c-9 -4.15 -5.07 -17.87 3 -19a6 6 0 0 1 2.46 -0.1 0.3 0.3 0 0 0 -0.15 -0.53C6.6 -0.67 2.79 2.74 0.87 7.88a9.92 9.92 0 0 0 5.29 12.56 10.12 10.12 0 0 0 5.55 1 0.34 0.34 0 0 0 -0.07 -0.68Z" fill="#020202" fill-rule="evenodd" stroke-width="1"></path>
    <g>
      <path d="M11.52 16.37a18.92 18.92 0 0 1 -4.18 -0.46A17.14 17.14 0 0 1 7 11.52a61.21 61.21 0 0 0 12.51 -0.24c1 -0.17 0.85 -0.82 -0.06 -0.76 -1.14 0.11 -2.61 0.14 -4.23 0.14a16.31 16.31 0 0 0 -0.63 -4.77l3.47 0a0.34 0.34 0 0 0 0 -0.67c-1 0 -2.33 -0.17 -3.8 -0.3 -0.25 -0.7 -0.53 -1.39 -0.79 -2.09a0.3 0.3 0 0 0 -0.57 0.16c0.12 0.62 0.23 1.23 0.35 1.85 -1.8 -0.14 -3.45 -0.24 -5.15 -0.21a6.61 6.61 0 0 1 2.05 -3c0 -0.32 -0.22 -0.45 -1.5 0.47a8.57 8.57 0 0 0 -1.57 2.57c-0.78 0 -1.52 0.1 -2.2 0.19 -1.25 0.39 -1.27 0.64 -0.62 0.84 0.84 -0.06 1.71 -0.06 2.48 0a22.45 22.45 0 0 0 -0.82 4.79c-1.19 0 -2.26 -0.09 -3.19 -0.16 -1 0.36 -1 0.61 0 0.73s2 0.28 3.15 0.4a15.86 15.86 0 0 0 0.44 4.33l-2.73 -0.4c-0.76 0.1 -1.1 0.65 0.81 1.09 0.34 0.09 0.68 0.19 1 0.27 1.81 0.42 0.87 -0.24 1.81 1.57a10.51 10.51 0 0 0 0.6 1c0.46 1 0.85 0.94 1.2 0.31a7.63 7.63 0 0 1 -1.36 -2.5 12 12 0 0 0 3.92 0 0.34 0.34 0 0 0 -0.05 -0.76ZM7.76 5.7c1.32 0 5 0.16 5.68 0.17 0.29 1.49 0.73 2.35 1.07 4.79 -1.65 0 -6.72 -0.15 -7.48 -0.17a26.07 26.07 0 0 1 0.73 -4.79Z" fill="#4C57E6" fill-rule="evenodd" stroke-width="1"></path>
      <path d="M18.31 2.78a21 21 0 0 0 -3.25 -2 0.34 0.34 0 1 0 -0.3 0.6 19 19 0 0 1 1.79 1.21 7.36 7.36 0 0 1 2.81 3.64 11.25 11.25 0 0 1 1.16 5.32 0.3 0.3 0 0 0 0.59 0.06 10.25 10.25 0 0 0 -2.8 -8.83Z" fill="#020202" fill-rule="evenodd" stroke-width="1"></path>
    </g>
  </g>
</svg>