<svg xmlns="http://www.w3.org/2000/svg" viewBox="0 0 24 24" id="Worldwide-Web-Subtract--Streamline-Freehand">
  <desc>
    Worldwide Web Subtract Streamline Icon: https://streamlinehq.com
  </desc>
  <g>
    <path d="M22.59 15.17a5.52 5.52 0 0 0 -8.85 0.55c-1.56 2.31 -0.76 5.69 0.8 6.7a0.29 0.29 0 0 0 0.33 -0.48c-1.24 -0.87 -1.79 -3.84 -0.4 -5.7a4.66 4.66 0 0 1 7.27 -0.37c2.29 2.72 1 6.84 -3.11 7.32a5.3 5.3 0 0 1 -2.21 -0.19 0.33 0.33 0 0 0 -0.21 0.62 6 6 0 0 0 2.49 0.27 5.29 5.29 0 0 0 3.89 -8.72Z" fill="#020202" fill-rule="evenodd" stroke-width="1"></path>
    <path d="M17.79 19.26a31.16 31.16 0 0 1 3.16 0 0.33 0.33 0 0 0 0.14 -0.64 8.24 8.24 0 0 0 -5.55 0.09 0.29 0.29 0 0 0 0.1 0.57c0.63 -0.08 1.36 -0.03 2.15 -0.02Z" fill="#020202" fill-rule="evenodd" stroke-width="1"></path>
    <path d="M11.46 20.74a11.44 11.44 0 0 1 -5.11 -1.09C-3.08 15.13 1.82 -0.27 11.75 0.75a0.3 0.3 0 0 0 0.07 -0.59C6.43 -0.62 2.64 2.78 0.73 7.91c-1.5 4.24 0 9.24 3.53 11.58a13.78 13.78 0 0 0 3.56 1.6 9 9 0 0 0 3.71 0.32 0.34 0.34 0 0 0 -0.07 -0.67Z" fill="#020202" fill-rule="evenodd" stroke-width="1"></path>
    <path d="M19.19 11.3c1 -0.06 0.54 -0.78 0.06 -0.77 -1.13 0.11 -2.59 0.14 -4.21 0.15a19.21 19.21 0 0 0 -0.72 -4.63c-0.08 -0.29 -0.32 0 3.52 -0.13a0.34 0.34 0 0 0 0 -0.67c-1 0 -2.37 -0.18 -3.87 -0.3 -0.23 -0.7 -0.46 -1.38 -0.7 -2.07a0.29 0.29 0 0 0 -0.57 0.12c0.11 0.62 0.21 1.23 0.31 1.85a48.65 48.65 0 0 0 -5.09 -0.2A6.75 6.75 0 0 1 8.75 3a8.92 8.92 0 0 1 1 -1.12c0.34 -0.41 -0.26 -0.78 -0.88 -0.13a8.29 8.29 0 0 0 -1.92 3c-0.74 0 -1.44 0.1 -2.09 0.18 -1.93 0.14 -1.38 0.94 -1 0.87a25 25 0 0 1 2.71 -0.06 22.25 22.25 0 0 0 -0.82 4.78c-1.28 -0.05 -2.45 -0.1 -3.42 -0.18 -0.92 0.08 -0.65 0.68 0 0.7 1 0.16 2.12 0.31 3.38 0.44a15.91 15.91 0 0 0 0.38 4.11c-1.37 -0.14 -1.94 -0.16 -2.77 -0.25 -0.84 0.22 -0.32 0.8 0.44 1a15.76 15.76 0 0 0 2.67 0.46 10.3 10.3 0 0 0 1.14 2.36c0.25 0.54 0.87 0.9 1.12 0.25a8.12 8.12 0 0 1 -1.27 -2.55 32.36 32.36 0 0 0 3.53 -0.06 0.34 0.34 0 1 0 0 -0.67 38 38 0 0 1 -3.82 -0.38 16.91 16.91 0 0 1 -0.29 -4.13 62.36 62.36 0 0 0 7.52 0.17l0 0.28a0.34 0.34 0 0 0 0.67 0v-0.27a41.05 41.05 0 0 0 4.16 -0.5Zm-12.32 -0.8a27.15 27.15 0 0 1 0.72 -4.77c1.28 0 4.89 0.16 5.61 0.17 0.51 2.82 0.5 1.85 1 4.77 -1.62 -0.01 -6.58 -0.15 -7.33 -0.17Z" fill="#4C57E6" fill-rule="evenodd" stroke-width="1"></path>
    <path d="M18.11 2.82a21.15 21.15 0 0 0 -3.24 -2 0.33 0.33 0 1 0 -0.31 0.59 19.54 19.54 0 0 1 1.8 1.21 7.25 7.25 0 0 1 2.79 3.63 11.75 11.75 0 0 1 1.16 5.3 0.29 0.29 0 1 0 0.58 0.06 10.17 10.17 0 0 0 -2.78 -8.79Z" fill="#020202" fill-rule="evenodd" stroke-width="1"></path>
  </g>
</svg>