<svg xmlns="http://www.w3.org/2000/svg" viewBox="0 0 24 24" id="Worldwide-Web-Warning--Streamline-Freehand">
  <desc>
    Worldwide Web Warning Streamline Icon: https://streamlinehq.com
  </desc>
  <g>
    <path d="M18.15 21.63a0.91 0.91 0 0 0 1.34 -0.05 0.86 0.86 0 0 0 -0.22 -1.1c-0.84 -0.43 -1.87 0.41 -1.12 1.15Z" fill="#020202" fill-rule="evenodd" stroke-width="1"></path>
    <path d="M24 21.46a26 26 0 0 0 -2.53 -5.84 8.91 8.91 0 0 0 -1 -1.3c-0.14 -0.06 -0.56 -0.07 -0.4 0.39 0.23 0.65 0.19 0 1.3 2.14a32.67 32.67 0 0 1 1.48 3.74c0.13 0.37 0.4 1.1 0.21 1.46 -0.4 0.75 -1.51 0.8 -2.37 0.84a13.88 13.88 0 0 1 -6 -0.67c-1 -0.42 -0.25 -1.23 0.17 -2.21 0.68 -1.61 3.45 -6.44 4.41 -6.06a0.26 0.26 0 1 0 0.2 -0.47c-1.54 -0.68 -4.72 4.76 -5.4 6.17 -0.47 1 -1.65 2.59 0.23 3.46a13.54 13.54 0 0 0 6.43 0.74c1.25 -0.09 2.54 -0.27 3.09 -1.41a1.69 1.69 0 0 0 0.18 -0.98Z" fill="#020202" fill-rule="evenodd" stroke-width="1"></path>
    <path d="M19.28 17.45a10.81 10.81 0 0 0 -0.34 -1.4c-0.06 -0.12 -0.35 -0.21 -0.48 0.17 0 0.12 -0.13 0.68 -0.16 0.81a6.54 6.54 0 0 0 0.34 2.17c0.56 0.28 0.72 -1.11 0.64 -1.75Z" fill="#020202" fill-rule="evenodd" stroke-width="1"></path>
    <path d="M11.34 20.78a11.4 11.4 0 0 1 -5.1 -1.1C-3.2 15.16 1.7 -0.23 11.64 0.78a0.29 0.29 0 0 0 0.07 -0.58C6.32 -0.58 2.52 2.82 0.61 7.94c-1.5 4.24 0 9.24 3.53 11.59a14.41 14.41 0 0 0 3.57 1.6 8.81 8.81 0 0 0 3.71 0.31 0.33 0.33 0 0 0 -0.08 -0.66Z" fill="#020202" fill-rule="evenodd" stroke-width="1"></path>
    <path d="M19.07 11.34c1.05 -0.07 0.55 -0.79 0.07 -0.77 -1.14 0.1 -2.6 0.14 -4.21 0.14a19.38 19.38 0 0 0 -0.72 -4.63c-0.08 -0.29 -0.32 0 3.52 -0.13a0.34 0.34 0 0 0 0 -0.67c-1 0 -2.37 -0.17 -3.87 -0.3l-0.7 -2.07a0.3 0.3 0 0 0 -0.58 0.15c0.12 0.61 0.22 1.23 0.32 1.84 -1.76 -0.14 -3.4 -0.23 -5.1 -0.2A7.14 7.14 0 0 1 8.64 3a8.15 8.15 0 0 1 1 -1.11c0.34 -0.41 -0.26 -0.79 -0.88 -0.14a8.36 8.36 0 0 0 -1.93 3c-0.73 0 -1.43 0.09 -2.08 0.18 -1.94 0.13 -1.39 0.94 -1 0.86a22.71 22.71 0 0 1 2.72 0 22.27 22.27 0 0 0 -0.82 4.77c-1.29 0 -2.45 -0.1 -3.42 -0.17s-0.66 0.68 0 0.7c1 0.16 2.11 0.31 3.38 0.43A15.55 15.55 0 0 0 6 15.58c-1.37 -0.15 -1.95 -0.17 -2.78 -0.26 -0.84 0.22 -0.32 0.8 0.44 1a16.82 16.82 0 0 0 2.68 0.45 9.53 9.53 0 0 0 1.11 2.33c0.24 0.54 0.87 0.9 1.12 0.26a8.13 8.13 0 0 1 -1.28 -2.55c1.23 0.05 5.31 -0.11 6.62 -0.2a0.34 0.34 0 1 0 0 -0.67c-1.27 0 -5.64 -0.09 -6.9 -0.24a17 17 0 0 1 -0.3 -4.14 60.28 60.28 0 0 0 7.52 0.18c0 0.09 0.24 2.91 0.25 3 0 0.44 0.75 0.34 0.73 -0.1 0 -0.09 -0.2 -2.89 -0.2 -3a40.64 40.64 0 0 0 4.06 -0.3Zm-12.32 -0.8a27.29 27.29 0 0 1 0.72 -4.78c1.29 0.06 4.89 0.16 5.61 0.18 0.52 2.81 0.51 1.84 1 4.77 -1.61 -0.02 -6.57 -0.15 -7.33 -0.17Z" fill="#4C57E6" fill-rule="evenodd" stroke-width="1"></path>
    <path d="M18 2.85a21.87 21.87 0 0 0 -3.23 -2 0.34 0.34 0 0 0 -0.31 0.6 19 19 0 0 1 1.78 1.25A7.2 7.2 0 0 1 19 6.33a11.59 11.59 0 0 1 1.16 5.3 0.3 0.3 0 0 0 0.59 0.06A10.23 10.23 0 0 0 18 2.85Z" fill="#020202" fill-rule="evenodd" stroke-width="1"></path>
  </g>
</svg>