<svg xmlns="http://www.w3.org/2000/svg" viewBox="0 0 24 24" id="Worldwide-Web-Network-Www--Streamline-Freehand">
  <desc>
    Worldwide Web Network Www Streamline Icon: https://streamlinehq.com
  </desc>
  <g>
    <path d="M16.59 9.79a2.24 2.24 0 0 0 -0.11 -0.55c-0.16 -0.22 -0.54 -0.14 -0.58 0.24a2.1 2.1 0 0 0 0 0.56c0.27 3 0.2 3.33 0.63 3.57a0.75 0.75 0 0 0 1 -0.28 6 6 0 0 0 0.64 -1.33 9.34 9.34 0 0 0 1.5 1.75 0.57 0.57 0 0 0 0.85 -0.5c0 -0.23 0 0.41 -0.09 -2.58l0 -1.4c-0.05 -0.24 -0.54 -0.58 -0.67 0 -0.06 0.29 -0.18 2.38 -0.2 2.68a12.22 12.22 0 0 1 -0.73 -1.11 0.76 0.76 0 0 0 -1.07 -0.26 2.21 2.21 0 0 0 -0.53 0.71c-0.05 0.12 -0.14 0.43 -0.26 0.75a4.74 4.74 0 0 0 -0.38 -2.25Z" fill="#020202" fill-rule="evenodd" stroke-width="1"></path>
    <path d="M9.69 9.79a2.24 2.24 0 0 0 -0.11 -0.55C9.42 9 9 9.1 9 9.48A2.62 2.62 0 0 0 9 10c0.27 3 0.2 3.33 0.63 3.57a0.75 0.75 0 0 0 1 -0.28 6.54 6.54 0 0 0 0.65 -1.29 9.1 9.1 0 0 0 1.49 1.75 0.57 0.57 0 0 0 0.85 -0.5c0 -0.23 0 0.41 -0.09 -2.58l0 -1.4c0 -0.24 -0.54 -0.58 -0.67 0 -0.06 0.29 -0.18 2.37 -0.2 2.68a12.22 12.22 0 0 1 -0.73 -1.11 0.76 0.76 0 0 0 -1.07 -0.26 2 2 0 0 0 -0.52 0.71c-0.06 0.12 -0.15 0.43 -0.27 0.75a4.74 4.74 0 0 0 -0.38 -2.25Z" fill="#020202" fill-rule="evenodd" stroke-width="1"></path>
    <path d="M3.17 9.79c0 -0.09 0 -0.45 -0.12 -0.55s-0.54 -0.14 -0.58 0.24a2.1 2.1 0 0 0 0 0.56c0.26 3 0.19 3.33 0.63 3.57a0.74 0.74 0 0 0 1 -0.28A5.68 5.68 0 0 0 4.75 12a9.34 9.34 0 0 0 1.5 1.75 0.57 0.57 0 0 0 0.84 -0.5c0 -0.22 0 0.41 -0.08 -2.58l0 -1.4c0 -0.24 -0.54 -0.58 -0.67 0 -0.06 0.29 -0.18 2.37 -0.2 2.68 -0.74 -1 -0.56 -0.88 -0.74 -1.11a0.76 0.76 0 0 0 -1.07 -0.26 2.32 2.32 0 0 0 -0.52 0.71c-0.06 0.12 -0.15 0.43 -0.26 0.75a4.86 4.86 0 0 0 -0.38 -2.25Z" fill="#020202" fill-rule="evenodd" stroke-width="1"></path>
    <path d="M15.27 5.51c0 0.2 -2.42 -0.26 -6.57 -0.19a10.68 10.68 0 0 1 1.06 -1.76C10 3.14 11 2.47 11.07 2.08S10 1.74 9.66 2.1a6.42 6.42 0 0 0 -2.09 3.25c-0.87 0 -1.7 0.11 -2.47 0.2 -1 0.15 -1.69 0.7 -0.78 0.86 1 -0.07 2.07 -0.07 3 0 -0.11 0.49 -0.2 1 -0.26 1.43a0.34 0.34 0 0 0 0.66 0.14 14.94 14.94 0 0 1 0.54 -1.54l7.17 0.21c0 0.4 0.09 0.8 0.14 1.21a0.34 0.34 0 0 0 0.68 0c0 -0.4 0.08 -0.79 0.12 -1.19l3.9 0a0.34 0.34 0 0 0 0 -0.68c-1 0 -2.37 -0.15 -3.85 -0.27A4.4 4.4 0 0 0 15 2.29a0.3 0.3 0 1 0 -0.47 0.36 7.15 7.15 0 0 1 0.74 2.86Z" fill="#4C57E6" fill-rule="evenodd" stroke-width="1"></path>
    <path d="M16.92 17.29a11.13 11.13 0 0 0 0 -2.17 0.3 0.3 0 0 0 -0.6 0 12.55 12.55 0 0 1 -0.38 2.19 75.21 75.21 0 0 1 -8.22 0C7 15.4 7.3 14.93 6.83 15a0.29 0.29 0 0 0 -0.26 0.32 13.72 13.72 0 0 0 0.16 1.94c-1.85 -0.13 -3.09 -0.38 -3.76 -0.38s-0.09 0.89 0.8 0.87c1 0.2 2.07 0.39 3.16 0.53A7.93 7.93 0 0 0 8.26 21c0.42 0.57 1.42 1.1 1.54 0.39a11.7 11.7 0 0 1 -1.68 -3 35 35 0 0 0 7.46 0c-0.7 1.7 -0.7 1.93 -1 2.5l0 0.11c0 0.93 0.81 0.67 1.29 -0.41a10.17 10.17 0 0 0 0.92 -2.32c1 -0.12 1.72 -0.23 2.42 -0.38 1.22 -0.18 1.67 -1 0.92 -1a21.33 21.33 0 0 1 -3.21 0.4Z" fill="#4C57E6" fill-rule="evenodd" stroke-width="1"></path>
    <path d="M23.9 10.38a12.19 12.19 0 0 0 -3.49 -7 25.69 25.69 0 0 0 -3.65 -2.21 0.34 0.34 0 0 0 -0.3 0.61A24.24 24.24 0 0 1 19.91 4a11.32 11.32 0 0 1 3 6.55c0.88 7.19 -7 14.77 -16.07 11C2.92 19.92 0.78 17 1 12.37 1.19 6.33 6.68 0.48 13.17 1a0.3 0.3 0 0 0 0.07 -0.6C2.57 -1 -3.09 11.16 1.75 18.57c1.6 2.46 4 3.73 6.84 4.65C16.51 25.67 25 18.49 23.9 10.38Z" fill="#020202" fill-rule="evenodd" stroke-width="1"></path>
  </g>
</svg>