<svg xmlns="http://www.w3.org/2000/svg" viewBox="0 0 24 24" id="Worldwide-Web-Favorite-Star--Streamline-Freehand">
  <desc>
    Worldwide Web Favorite Star Streamline Icon: https://streamlinehq.com
  </desc>
  <g>
    <path d="M24 18.24c0.08 -1.08 -1.66 -1.2 -2.81 -1.51a1.38 1.38 0 0 0 -0.42 -0.14A10 10 0 0 0 19.58 14c-0.57 -1 -1.26 -0.81 -1.92 0.15l-1 1.61c-0.05 0.08 -0.21 0.21 -0.27 0.32A2.6 2.6 0 0 0 16 16a7.26 7.26 0 0 0 -2.46 0c-0.57 0.21 -0.63 0.86 -0.25 1.4a8.61 8.61 0 0 0 1.29 1.16 3 3 0 0 0 1 0.64 0.31 0.31 0 0 0 0.09 -0.62l-0.68 -0.5c-0.53 -0.53 -0.9 -0.63 -1.25 -1.37 0 0 2.15 0.18 2.58 0.24 0.65 0.08 0.7 -0.46 2.28 -2.65a9.48 9.48 0 0 1 0.81 1.61 8.79 8.79 0 0 0 0.5 1.44c0.24 0.35 0.74 0.32 0.93 0.37a10.78 10.78 0 0 1 1.85 0.52 10.81 10.81 0 0 1 -2.2 0.85 0.62 0.62 0 0 0 -0.34 0.63 11.16 11.16 0 0 1 0.14 2.52 7.54 7.54 0 0 1 -2.1 -2.11 0.46 0.46 0 0 0 -0.63 -0.1c-0.68 0.38 -2.08 2.17 -3 2 0.09 -0.13 -0.06 -0.22 0.28 -0.83s1 -1.25 0.59 -1.48a0.29 0.29 0 0 0 -0.38 0.11c-0.26 0.44 -0.5 0.71 -0.72 1.07a2.84 2.84 0 0 0 -0.46 1.25c0.06 0.59 0.86 0.64 1.46 0.42a6.72 6.72 0 0 0 1.84 -1.24 5 5 0 0 0 0.61 -0.34 9.38 9.38 0 0 0 1.78 1.94c0.48 0.36 0.93 0.79 1.37 0.45 0.28 -0.22 0.26 -0.68 0.3 -0.9a10.22 10.22 0 0 0 0 -2.53c0.91 -0.27 2.67 -0.79 2.77 -1.71Z" fill="#020202" fill-rule="evenodd" stroke-width="1"></path>
    <path d="M11.35 21.18a11.44 11.44 0 0 1 -5.11 -1.09C-3.19 15.57 1.71 0.17 11.64 1.18a0.29 0.29 0 0 0 0.08 -0.58C6.33 -0.18 2.53 3.22 0.62 8.34c-1.5 4.25 0 9.24 3.53 11.59a14.41 14.41 0 0 0 3.57 1.6 8.77 8.77 0 0 0 3.7 0.31 0.33 0.33 0 1 0 -0.07 -0.66Z" fill="#020202" fill-rule="evenodd" stroke-width="1"></path>
    <path d="M11.45 16.29c-1.69 0 -3.65 -0.1 -4.43 -0.19a17 17 0 0 1 -0.3 -4.1 62.41 62.41 0 0 0 7.52 0.17c0 0.09 0.24 2.92 0.25 3 0 0.44 0.75 0.34 0.72 -0.1 0 -0.09 -0.19 -2.89 -0.19 -3a40.64 40.64 0 0 0 4.06 -0.33c1.05 -0.07 0.54 -0.79 0.07 -0.77 -1.14 0.11 -2.6 0.14 -4.22 0.14a19.39 19.39 0 0 0 -0.71 -4.63c-0.08 -0.29 -0.33 0 3.52 -0.12a0.34 0.34 0 0 0 0 -0.67c-1 0 -2.37 -0.18 -3.87 -0.31 -0.23 -0.69 -0.47 -1.38 -0.71 -2.07a0.29 0.29 0 0 0 -0.57 0.15c0.11 0.62 0.22 1.23 0.32 1.84 -1.76 -0.13 -3.4 -0.23 -5.1 -0.19a6.75 6.75 0 0 1 0.83 -1.68 8.41 8.41 0 0 1 1 -1.12c0.33 -0.41 -0.26 -0.78 -0.88 -0.13a8.32 8.32 0 0 0 -1.93 3c-0.73 0 -1.43 0.1 -2.08 0.18 -1.94 0.14 -1.39 0.94 -1 0.86a22.71 22.71 0 0 1 2.72 0 22.27 22.27 0 0 0 -0.82 4.77c-1.29 0 -2.45 -0.09 -3.42 -0.17 -0.93 0.07 -0.66 0.68 0 0.7 1 0.16 2.11 0.31 3.38 0.43A15.52 15.52 0 0 0 6 16c-1.37 -0.15 -1.95 -0.16 -2.78 -0.26 -0.84 0.23 -0.32 0.8 0.44 1a17.94 17.94 0 0 0 2.68 0.46 9.8 9.8 0 0 0 1.11 2.3c0.25 0.55 0.88 0.9 1.13 0.26a8.13 8.13 0 0 1 -1.28 -2.55c0.74 0 2.49 0 4.07 -0.07 1.15 -0.14 1.18 -0.79 0.08 -0.85Zm-4.69 -5.35a27 27 0 0 1 0.72 -4.77c1.28 0 4.89 0.15 5.61 0.17 0.51 2.81 0.51 1.84 1 4.77 -1.61 -0.01 -6.57 -0.11 -7.33 -0.17Z" fill="#4C57E6" fill-rule="evenodd" stroke-width="1"></path>
    <path d="M18 3.25a22.87 22.87 0 0 0 -3.24 -2 0.34 0.34 0 0 0 -0.3 0.6 19 19 0 0 1 1.79 1.25A7.2 7.2 0 0 1 19 6.73 11.59 11.59 0 0 1 20.2 12a0.3 0.3 0 0 0 0.59 0.06A10.23 10.23 0 0 0 18 3.25Z" fill="#020202" fill-rule="evenodd" stroke-width="1"></path>
  </g>
</svg>