<svg xmlns="http://www.w3.org/2000/svg" viewBox="0 0 24 24" id="Worldwide-Web-Search--Streamline-Freehand">
  <desc>
    Worldwide Web Search Streamline Icon: https://streamlinehq.com
  </desc>
  <g>
    <path d="M23.69 23.45a9.71 9.71 0 0 0 -2.84 -3.19A4 4 0 0 0 19 13.35a4.43 4.43 0 0 0 -5.29 4.55c0.1 2.17 2.17 3.81 3.6 3.66a0.29 0.29 0 1 0 0 -0.58 3.12 3.12 0 0 1 -2.65 -3.08 3.56 3.56 0 0 1 4.14 -3.45c2.52 0.5 3.48 3.42 1.31 5.52a4 4 0 0 1 -1.39 0.92 0.34 0.34 0 0 0 0.23 0.64 4.67 4.67 0 0 0 1.4 -0.78 12.41 12.41 0 0 0 2.87 3.12c0.23 0.35 0.78 -0.08 0.47 -0.42Z" fill="#020202" fill-rule="evenodd" stroke-width="1"></path>
    <path d="M11.58 20.75a14.59 14.59 0 0 1 -3.26 -0.36 5 5 0 0 1 -1.46 -0.52 1.64 1.64 0 0 1 -0.22 -0.14c-9 -4.15 -5.07 -17.87 3 -19a6 6 0 0 1 2.45 -0.09 0.3 0.3 0 0 0 -0.09 -0.53C6.54 -0.67 2.74 2.74 0.82 7.88A9.91 9.91 0 0 0 6.1 20.43a10.14 10.14 0 0 0 5.55 1 0.34 0.34 0 0 0 -0.07 -0.68Z" fill="#020202" fill-rule="evenodd" stroke-width="1"></path>
    <g>
      <path d="M12.23 16.25a26.42 26.42 0 0 1 -4.95 -0.35 17.13 17.13 0 0 1 -0.34 -4.39 60.31 60.31 0 0 0 12.49 -0.24c1.05 -0.17 0.85 -0.81 -0.05 -0.76 -1.14 0.11 -2.61 0.15 -4.23 0.15a16.26 16.26 0 0 0 -0.63 -4.77l3.47 0a0.34 0.34 0 0 0 0 -0.68c-1 0 -2.33 -0.17 -3.8 -0.29 -0.25 -0.7 -0.53 -1.4 -0.79 -2.09a0.3 0.3 0 1 0 -0.57 0.16c0.12 0.62 0.23 1.23 0.35 1.84 -1.8 -0.14 -3.44 -0.23 -5.15 -0.2a6.77 6.77 0 0 1 2.05 -3c0 -0.31 -0.21 -0.44 -1.5 0.48A8.49 8.49 0 0 0 7 4.66c-0.78 0 -1.52 0.11 -2.21 0.2 -1.25 0.39 -1.26 0.64 -0.61 0.84 0.84 -0.06 1.71 -0.06 2.47 0a22.24 22.24 0 0 0 -0.82 4.79c-1.18 0 -2.26 -0.09 -3.18 -0.16 -1 0.36 -1 0.6 0 0.72s2 0.28 3.15 0.4a15.46 15.46 0 0 0 0.43 4.33l-2.72 -0.4c-0.76 0.1 -1.1 0.65 0.8 1.09 0.34 0.09 0.68 0.19 1 0.27 1.81 0.42 0.88 -0.24 1.82 1.57a8.72 8.72 0 0 0 0.6 1c0.46 1 0.84 0.94 1.19 0.31a7.82 7.82 0 0 1 -1.36 -2.5 17.6 17.6 0 0 0 4.69 -0.13 0.34 0.34 0 0 0 -0.02 -0.74ZM7.7 5.7c1.32 0 5 0.15 5.68 0.17 0.29 1.49 0.73 2.34 1.07 4.78 -1.65 0 -6.72 -0.15 -7.47 -0.17A27.14 27.14 0 0 1 7.7 5.7Z" fill="#4C57E6" fill-rule="evenodd" stroke-width="1"></path>
      <path d="M18.25 2.77A21.74 21.74 0 0 0 15 0.81a0.34 0.34 0 1 0 -0.3 0.6 19 19 0 0 1 1.79 1.21 7.29 7.29 0 0 1 2.8 3.64 11.08 11.08 0 0 1 1.17 5.31 0.29 0.29 0 1 0 0.58 0.06 10.24 10.24 0 0 0 -2.79 -8.86Z" fill="#020202" fill-rule="evenodd" stroke-width="1"></path>
    </g>
  </g>
</svg>