<svg xmlns="http://www.w3.org/2000/svg" viewBox="0 0 24 24" id="Zip-File-Question--Streamline-Freehand">
  <desc>
    Zip File Question Streamline Icon: https://streamlinehq.com
  </desc>
  <g>
    <path d="M19.27 11a3.26 3.26 0 0 0 -3.89 1.65 1.94 1.94 0 0 0 1 2.8 2.21 2.21 0 0 0 2.77 -0.84 0.29 0.29 0 0 0 -0.07 -0.4 0.3 0.3 0 0 0 -0.4 0.08 1.58 1.58 0 0 1 -2 0.49 1.16 1.16 0 0 1 -0.5 -1.71A2.33 2.33 0 0 1 19 12a2.45 2.45 0 0 1 2 2.26 2.56 2.56 0 0 1 -0.57 1.74c-1 1.31 -2.81 2 -3.45 3.61a0.33 0.33 0 0 0 0.18 0.42 0.32 0.32 0 0 0 0.42 -0.17 4.3 4.3 0 0 1 1.55 -1.67 10.41 10.41 0 0 0 2 -1.62 3.5 3.5 0 0 0 0.87 -2.28A3.45 3.45 0 0 0 19.27 11Z" fill="#020202" fill-rule="evenodd" stroke-width="1"></path>
    <path d="M17.79 21.44a0.31 0.31 0 0 0 -0.41 0.16 0.3 0.3 0 0 0 -0.22 -0.1 1.3 1.3 0 0 0 -1.52 1c-0.13 0.6 0.25 1.29 1.26 1.52a1.63 1.63 0 0 0 1.72 -0.9 1.15 1.15 0 0 0 -0.83 -1.68Zm0.08 1.12a0.63 0.63 0 0 1 -0.8 0.35 0.65 0.65 0 0 1 -0.42 -0.16c-0.08 -0.09 -0.15 -0.19 -0.11 -0.29a0.74 0.74 0 0 1 0.62 -0.39 0.31 0.31 0 0 0 0.25 -0.14 0.3 0.3 0 0 0 0.14 0.1 0.51 0.51 0 0 1 0.32 0.53Z" fill="#020202" fill-rule="evenodd" stroke-width="1"></path>
    <path d="m20.71 5.39 0 -0.48a0.52 0.52 0 0 0 -0.16 -0.31c-0.63 -0.59 -1.79 -1.79 -3 -2.8A10.44 10.44 0 0 0 15.22 0.17 17.58 17.58 0 0 0 11.55 0c-3.2 0.07 -7.49 0.36 -8 0.4a0.29 0.29 0 0 0 -0.24 -0.4 0.3 0.3 0 0 0 -0.31 0.24A55.24 55.24 0 0 0 2.06 10l0 4.18a26.51 26.51 0 0 0 0.55 5.45c0.21 0.66 0.62 0.85 0.87 0.83a7.11 7.11 0 0 1 1.07 -0.05c0.92 0 1.94 0.08 2.68 0.05 1.1 -0.05 2.3 -0.06 3.39 -0.05 1.88 0 3.4 0.07 3.4 0.07a0.32 0.32 0 0 0 0.34 -0.3 0.32 0.32 0 0 0 -0.31 -0.34s-1.91 -0.14 -4.09 -0.22c-0.91 0 -1.87 -0.06 -2.75 -0.05 -0.73 0 -1.73 -0.1 -2.64 -0.15l-1 0c0 -0.15 0 -0.4 -0.08 -0.61a53.05 53.05 0 0 1 -0.4 -6.31c0 -1.38 -0.07 -2.84 -0.06 -4.26A56.74 56.74 0 0 1 3.43 1S7.4 1 10.4 1l2.76 0.06a8.94 8.94 0 0 1 1.63 0.09 8.15 8.15 0 0 1 1.58 1c1.25 1 2.64 2.25 3.43 2.93 0 0.08 0.05 0.19 0.06 0.3 0.09 1.23 0.2 4.37 0.2 4.37a0.34 0.34 0 0 0 0.33 0.32 0.33 0.33 0 0 0 0.32 -0.34s0.03 -3.1 0 -4.34Z" fill="#020202" fill-rule="evenodd" stroke-width="1"></path>
    <path d="M6.8 2.48c-0.43 0.06 -0.81 0.22 -1.23 0.32a0.29 0.29 0 0 0 -0.27 0.3 0.28 0.28 0 0 0 0.3 0.27 11.7 11.7 0 0 0 1.17 0.15v0.15l0 1.06c-0.3 0.06 -0.59 0.14 -0.89 0.18a0.29 0.29 0 0 0 0 0.57c0.31 0.08 0.62 0.16 0.93 0.21v0.63l0 0.62a7.22 7.22 0 0 0 -1 0.4 0.29 0.29 0 0 0 -0.21 0.35 0.28 0.28 0 0 0 0.34 0.21 8.32 8.32 0 0 1 0.87 0c0 0.63 0.07 1.25 0.1 1.87a1.91 1.91 0 0 0 -1.41 1.28A2 2 0 0 0 5.78 13a1.42 1.42 0 0 0 0.69 0.44 3.54 3.54 0 0 0 1 0.1 0.27 0.27 0 0 0 0.24 -0.12 0.3 0.3 0 0 0 0.21 0 1.53 1.53 0 0 0 1.28 -2.14 2.24 2.24 0 0 0 -1.64 -1.49q0.08 -1 0.12 -1.92l0.16 0c0.36 0 0.71 -0.12 1.09 -0.13a0.33 0.33 0 0 0 0.36 -0.28 0.33 0.33 0 0 0 -0.29 -0.39 6.64 6.64 0 0 0 -1.16 -0.24h-0.11l0 -0.51 0 -0.61c0.37 0 0.71 -0.14 1.08 -0.19a0.32 0.32 0 0 0 0.35 -0.3 0.32 0.32 0 0 0 -0.31 -0.34 8.47 8.47 0 0 0 -1.12 -0.2l0 -1V3.5l1.11 -0.09a0.32 0.32 0 0 0 0.33 -0.31 0.34 0.34 0 0 0 -0.32 -0.33l-1.19 -0.3 0 -1.05c0 -0.47 -0.73 -0.48 -0.69 0Zm1.55 9.11a0.82 0.82 0 0 1 -0.55 1.2 0.35 0.35 0 0 0 -0.22 0.17h-0.07a2.92 2.92 0 0 1 -0.69 -0.14 0.7 0.7 0 0 1 -0.41 -0.31 1.12 1.12 0 0 1 0 -1.08 0.86 0.86 0 0 1 0.71 -0.6 1.22 1.22 0 0 1 1.23 0.76Z" fill="#4C57E6" fill-rule="evenodd" stroke-width="1"></path>
  </g>
</svg>