<svg xmlns="http://www.w3.org/2000/svg" viewBox="0 0 24 24" id="Zip-File-Share--Streamline-Freehand">
  <desc>
    Zip File Share Streamline Icon: https://streamlinehq.com
  </desc>
  <g>
    <path d="M22.09 20.33a2.69 2.69 0 0 0 -1.31 -0.24 2.19 2.19 0 0 0 -1.08 0.39 3.08 3.08 0 0 0 -0.68 0.62l-0.58 -0.41a3.1 3.1 0 0 0 -0.47 -0.26c-0.21 -0.1 -0.44 -0.17 -0.65 -0.27s-0.69 -0.24 -1 -0.33h-0.12a1.56 1.56 0 0 0 -0.07 -1.61c0.26 -0.08 0.52 -0.16 0.78 -0.26a6.65 6.65 0 0 0 0.61 -0.27c0.2 -0.1 0.4 -0.22 0.59 -0.34s0.63 -0.42 0.94 -0.64l0.14 0.13a2.12 2.12 0 0 0 0.36 0.21 2.35 2.35 0 0 0 0.37 0.14 2.64 2.64 0 0 0 0.49 0.08 3.85 3.85 0 0 0 0.48 0 0.3 0.3 0 0 0 0.26 -0.31 0.28 0.28 0 0 0 -0.31 -0.26 2.31 2.31 0 0 1 -0.37 0 1.39 1.39 0 0 1 -0.33 -0.1l-0.46 -0.3a1 1 0 0 1 -0.12 -0.16s0 0 0 -0.07a0.7 0.7 0 0 1 0 -0.58 1.69 1.69 0 0 1 0.58 -0.61 1.53 1.53 0 0 1 0.72 -0.32 2.1 2.1 0 0 1 0.83 0.14 1.15 1.15 0 0 1 0.6 0.43 1.12 1.12 0 0 1 0.07 1 1.16 1.16 0 0 1 -0.81 0.7 0.33 0.33 0 0 0 -0.28 0.37 0.33 0.33 0 0 0 0.36 0.28 1.89 1.89 0 0 0 1.44 -1 2 2 0 0 0 0.07 -1.81 2 2 0 0 0 -1 -1 2.71 2.71 0 0 0 -1.31 -0.25 2.19 2.19 0 0 0 -1.08 0.39 2.7 2.7 0 0 0 -1 1.24 1.68 1.68 0 0 0 0 1.06c-0.32 0.12 -0.65 0.23 -1 0.36a6.65 6.65 0 0 0 -0.61 0.27 6.63 6.63 0 0 0 -0.59 0.31c-0.31 0.19 -0.6 0.4 -0.88 0.61a3.36 3.36 0 0 0 -1.13 -0.53 3 3 0 0 0 -1.78 0.09 2 2 0 0 0 -1.19 1.34 1.87 1.87 0 0 0 0.45 1.72 3 3 0 0 0 1.3 0.82 2.86 2.86 0 0 0 1.48 0 0.26 0.26 0 0 0 0.17 -0.09 0.29 0.29 0 0 0 0.24 0 3.07 3.07 0 0 0 0.42 -0.28 2.08 2.08 0 0 0 0.21 -0.21 0.2 0.2 0 0 1 0.08 0c0.25 0.15 0.47 0.33 0.71 0.48l0.34 0.19a4.29 4.29 0 0 0 0.5 0.19c0.22 0.07 0.44 0.1 0.66 0.18l0.63 0.23a1.45 1.45 0 0 0 0.53 1.78 1.31 1.31 0 0 0 0.36 0.21 2.39 2.39 0 0 0 0.37 0.15 2.64 2.64 0 0 0 0.49 0.08 3.85 3.85 0 0 0 0.48 0 0.3 0.3 0 0 0 0.26 -0.31 0.28 0.28 0 0 0 -0.31 -0.26 2.31 2.31 0 0 1 -0.37 0 2.07 2.07 0 0 1 -0.33 -0.1l-0.46 -0.3a0.68 0.68 0 0 1 -0.13 -0.85 1.69 1.69 0 0 1 0.58 -0.61 1.53 1.53 0 0 1 0.72 -0.32 2.1 2.1 0 0 1 0.83 0.14 1.15 1.15 0 0 1 0.6 0.43 1.12 1.12 0 0 1 0.07 1 1.16 1.16 0 0 1 -0.81 0.7 0.33 0.33 0 0 0 -0.28 0.37 0.32 0.32 0 0 0 0.36 0.27 1.87 1.87 0 0 0 1.44 -1 2 2 0 0 0 0.07 -1.81 2.09 2.09 0 0 0 -1.14 -1.03Zm-7.31 0.05a0.23 0.23 0 0 0 -0.12 0.12h-0.07a2.17 2.17 0 0 1 -1.14 -0.14 2 2 0 0 1 -0.84 -0.7 1 1 0 0 1 -0.13 -0.87 1 1 0 0 1 0.59 -0.61 2.08 2.08 0 0 1 1.14 -0.07 2.16 2.16 0 0 1 1.06 0.48c0.59 0.59 0.07 1.41 -0.49 1.79Z" fill="#020202" fill-rule="evenodd" stroke-width="1"></path>
    <path d="M6.34 9.88c0 -0.65 0.09 -1.3 0.12 -2l0.17 0c0.37 0 0.72 -0.12 1.11 -0.13a0.33 0.33 0 1 0 0.08 -0.66 6.21 6.21 0 0 0 -1.18 -0.25h-0.13l0 -0.52v-0.61c0.38 0 0.73 -0.15 1.11 -0.2A0.33 0.33 0 0 0 8 5.2a0.34 0.34 0 0 0 -0.31 -0.35 11.05 11.05 0 0 0 -1.15 -0.2l0 -1v-0.2l1.13 -0.08A0.33 0.33 0 0 0 8 3.05a0.33 0.33 0 0 0 -0.32 -0.34L6.43 2.4l0 -0.83c-0.07 -0.49 -0.73 -0.59 -0.8 -0.07l0 0.91c-0.44 0.07 -0.83 0.23 -1.26 0.33a0.3 0.3 0 0 0 -0.37 0.31 0.29 0.29 0 0 0 0.31 0.27c0.41 0.06 0.79 0.14 1.2 0.16v0.14l0 1.09c-0.31 0.06 -0.6 0.14 -0.92 0.19a0.28 0.28 0 0 0 -0.31 0.26 0.31 0.31 0 0 0 0.27 0.32c0.32 0.08 0.63 0.16 1 0.21v0.64l0 0.64a8.29 8.29 0 0 0 -1 0.41 0.31 0.31 0 0 0 -0.21 0.36 0.29 0.29 0 0 0 0.3 0.26 6.43 6.43 0 0 1 0.88 0c0 0.63 0.07 1.27 0.1 1.9a2 2 0 0 0 -1.44 1.31 2.09 2.09 0 0 0 0.33 2 1.45 1.45 0 0 0 0.71 0.44 3.75 3.75 0 0 0 1 0.11 0.28 0.28 0 0 0 0.24 -0.13 0.28 0.28 0 0 0 0.22 0A1.55 1.55 0 0 0 8 11.41a2.29 2.29 0 0 0 -1.66 -1.53ZM6.58 13a0.35 0.35 0 0 0 -0.22 0.17h-0.07a2.81 2.81 0 0 1 -0.7 -0.14 0.73 0.73 0 0 1 -0.43 -0.32 1.16 1.16 0 0 1 0 -1.1 0.91 0.91 0 0 1 0.73 -0.62 1.24 1.24 0 0 1 1.24 0.8 0.82 0.82 0 0 1 -0.55 1.21Z" fill="#4C57E6" fill-rule="evenodd" stroke-width="1"></path>
    <path d="m19.25 5.57 0 -0.61a0.51 0.51 0 0 0 -0.17 -0.35c-0.75 -0.69 -2.22 -2.21 -3.58 -3.3A8.7 8.7 0 0 0 13.61 0.09a11.92 11.92 0 0 0 -3.2 -0.19c-3.26 0.1 -7.64 0.36 -8.2 0.4A0.3 0.3 0 0 0 2 -0.09a0.28 0.28 0 0 0 -0.34 0.22 56 56 0 0 0 -0.94 9.94l0 4.27a28.51 28.51 0 0 0 0.58 5.56c0.21 0.67 0.63 0.87 0.87 0.84s1 0 1.84 0c2.59 0 5.86 0.13 6.67 0.09a0.32 0.32 0 0 0 0.32 -0.33 0.35 0.35 0 0 0 -0.34 -0.33c-0.8 0 -4 -0.27 -6.63 -0.37 -0.68 0 -1.24 -0.05 -1.62 0a5.33 5.33 0 0 1 -0.22 -0.65 53.1 53.1 0 0 1 -0.4 -6.45c0 -1.41 -0.06 -2.9 -0.05 -4.36A57.27 57.27 0 0 1 2.12 0.86l7.07 0C10.49 0.93 11.11 1 12 1a6.55 6.55 0 0 1 1.21 0.09 8.44 8.44 0 0 1 1.6 1c1.27 1 2.67 2.29 3.48 3 0 0.1 0.07 0.27 0.08 0.44 0.11 1.61 0.26 6.09 0.26 6.09a0.32 0.32 0 0 0 0.33 0.32 0.34 0.34 0 0 0 0.33 -0.34s0 -4.42 -0.04 -6.03Z" fill="#020202" fill-rule="evenodd" stroke-width="1"></path>
  </g>
</svg>