<svg xmlns="http://www.w3.org/2000/svg" viewBox="0 0 24 24" id="Zip-File-1--Streamline-Freehand">
  <desc>
    Zip File 1 Streamline Icon: https://streamlinehq.com
  </desc>
  <g>
    <g>
      <path d="M20.92 5.4c0 -1.41 -0.87 -1.65 -1.88 -2.5S17.32 1.2 16.39 0.48A0.3 0.3 0 0 0 16 1c0.88 0.7 1.72 1.67 2.6 2.43s1.59 1 1.6 2c0 0.66 -0.15 1.43 -0.16 1.87a59.41 59.41 0 0 1 -0.43 8.79 18.62 18.62 0 0 1 -0.7 3.12 2.37 2.37 0 0 1 -0.62 0.7 4 4 0 0 1 -1.82 0.29c-0.67 0 -6.81 -0.07 -9 -0.22 -1.7 -0.13 -3.37 -0.32 -5.23 -0.5C4.2 14.6 3.85 4.66 4.35 1.71c0.43 -0.37 7.48 -1.13 7.91 -1.15a4.49 4.49 0 0 1 1.58 0.17 0.27 0.27 0 0 0 0.16 -0.5A5.09 5.09 0 0 0 12.24 0c-0.72 0 -6.88 0.65 -7.8 0.9 -0.51 0.14 -0.69 0.35 -0.78 0.61C3.12 3 3.19 16 1.11 19.65a0.5 0.5 0 0 0 0.39 0.75 90.3 90.3 0 0 0 10 0.71c1.73 0 6.42 0.35 7.43 -0.5a3.1 3.1 0 0 0 1.19 -2.16c0.95 -4.41 0.68 -7.59 0.7 -11.17 -0.03 -0.44 0.11 -1.22 0.1 -1.88Z" fill="#020202" stroke-width="1"></path>
      <path d="M15.08 6.32a8.42 8.42 0 0 0 4.06 -0.51c1.08 -0.55 0.3 -1.19 0 -0.78a0.59 0.59 0 0 1 -0.28 0.18c-0.43 0.17 -3.38 0.39 -3.56 0.07a1.51 1.51 0 0 1 -0.09 -0.82c0.11 -1.64 0.62 -2.78 0.17 -2.93s-0.49 0.63 -0.61 1.12c-0.2 0.87 -1.28 3.12 0.31 3.67Z" fill="#020202" stroke-width="1"></path>
    </g>
    <path d="M22.92 9.25c-0.14 -0.68 -0.76 -0.55 -0.85 0.46a2.88 2.88 0 0 0 0 0.39 58.08 58.08 0 0 1 -0.43 8.79 19 19 0 0 1 -0.7 3.13 2.49 2.49 0 0 1 -0.62 0.69 3.79 3.79 0 0 1 -1.82 0.3c-0.67 0 -6.81 -0.07 -9 -0.23 -1.38 -0.1 -2.93 -0.33 -4.38 -0.47 -0.75 -0.06 -1.3 1 -0.17 1.06a71 71 0 0 0 8.49 0.57c1.73 0 6.42 0.34 7.43 -0.51a3.1 3.1 0 0 0 1.19 -2.15A48.46 48.46 0 0 0 23 10.13a4.92 4.92 0 0 0 -0.08 -0.88Z" fill="#4C57E6" stroke-width="1"></path>
    <path d="M6.67 13.8c-0.36 0.7 0.06 1.13 0.64 1.14a4.22 4.22 0 0 0 0.76 -0.08l2.28 -0.35a0.3 0.3 0 0 0 -0.08 -0.6 11.94 11.94 0 0 0 -2.69 0.22c0.89 -1.23 2.71 -3.17 2.46 -4S8.51 9.47 7.6 9.6a3.23 3.23 0 0 0 -1.08 0.25 0.27 0.27 0 0 0 0.12 0.45 9.92 9.92 0 0 1 2.52 0C8 12.05 7.32 12.71 6.67 13.8Z" fill="#020202" stroke-width="1"></path>
    <path d="M11.2 13.9a0.27 0.27 0 0 0 0 0.38c0.13 0.21 0.36 0.07 0.72 0.15a3.28 3.28 0 0 0 1.75 -0.13 0.31 0.31 0 0 0 0 -0.61 8.56 8.56 0 0 0 -1 -0.19 7.34 7.34 0 0 0 0 -3.24 3.63 3.63 0 0 1 0.45 -0.1 0.3 0.3 0 0 0 0 -0.6 3.07 3.07 0 0 0 -1.35 -0.2 4.29 4.29 0 0 0 -0.86 0.32c-0.1 0.11 -0.2 0.19 -0.16 0.31 0.13 0.47 0.23 0.21 0.76 0.32a1.2 1.2 0 0 0 0.47 0 7.23 7.23 0 0 0 0 3.21 2.93 2.93 0 0 0 -0.78 0.38Z" fill="#020202" stroke-width="1"></path>
    <path d="M17.63 10.16c-0.87 -0.94 -2.84 -1.19 -3.15 0.13a3.19 3.19 0 0 0 0 1.07 16 16 0 0 0 0.84 3.44 0.27 0.27 0 0 0 0.5 -0.21 9.44 9.44 0 0 1 -0.33 -2.39c2.05 0.4 3.09 -0.98 2.14 -2.04Zm-2.2 1.42a4.52 4.52 0 0 1 0 -1.05c0.09 -0.38 1.73 0.12 1.65 0.54a0.44 0.44 0 0 1 -0.24 0.3 2.26 2.26 0 0 1 -1 0.23 3.1 3.1 0 0 1 -0.41 -0.02Z" fill="#020202" stroke-width="1"></path>
  </g>
</svg>