<svg xmlns="http://www.w3.org/2000/svg" viewBox="0 0 24 24" id="Zoom-Out-Magnifier-1--Streamline-Freehand">
  <desc>
    Zoom Out Magnifier 1 Streamline Icon: https://streamlinehq.com
  </desc>
  <g>
    <path d="M16.2 7.86A5.73 5.73 0 0 0 15 5.2c-0.19 -0.23 -0.39 -0.5 -0.62 -0.73a2.4 2.4 0 0 0 -0.62 -0.47 0.36 0.36 0 0 0 -0.47 0.16 0.35 0.35 0 0 0 0.15 0.46 1.44 1.44 0 0 1 0.39 0.31 6.64 6.64 0 0 1 0.55 0.69A5.05 5.05 0 0 1 15.4 8a6.15 6.15 0 0 1 -0.24 2.56 5.55 5.55 0 0 1 -2.33 3.09 6.42 6.42 0 0 1 -3.76 1 6.57 6.57 0 0 1 -1.39 -0.2 3.54 3.54 0 0 1 -1.21 -0.57c-0.35 -0.26 -4 -3.12 -0.69 -7.82A7.61 7.61 0 0 1 6.7 5a3.73 3.73 0 0 1 1.14 -0.76 5.4 5.4 0 0 1 1.87 -0.33 12.64 12.64 0 0 1 3 0.35 0.3 0.3 0 0 0 0.15 -0.59 13.77 13.77 0 0 0 -3.11 -0.48 6.25 6.25 0 0 0 -2.15 0.3 4.6 4.6 0 0 0 -1.19 0.66c-2 1.53 -5.54 7 -0.59 10.72a4.74 4.74 0 0 0 1.59 0.75 6.72 6.72 0 0 0 1.59 0.2 7.45 7.45 0 0 0 4.37 -1.31A6.43 6.43 0 0 0 16 10.79a6.7 6.7 0 0 0 0.2 -2.93Z" fill="#020202" stroke-width="1"></path>
    <path d="M23.24 20.58a3.58 3.58 0 0 0 -0.18 -0.64 4.23 4.23 0 0 0 -0.54 -1 11.47 11.47 0 0 0 -1 -1.25 17.1 17.1 0 0 0 -1.7 -1.61c-0.83 -0.68 -1.7 -1.31 -2.58 -2a10.3 10.3 0 0 0 0.65 -1.58 17.27 17.27 0 0 0 0.56 -2.5 12.2 12.2 0 0 0 0.22 -2.47 5.57 5.57 0 0 0 -0.29 -1.7 11.77 11.77 0 0 0 -0.57 -1.45 5.23 5.23 0 0 0 -0.57 -0.94 6.72 6.72 0 0 0 -1.32 -1.29A11.52 11.52 0 0 0 13.55 0.86a12.8 12.8 0 0 0 -1.8 -0.63 7.23 7.23 0 0 0 -2 -0.23 8.6 8.6 0 0 0 -2.43 0.49 12.85 12.85 0 0 0 -2.21 1.05c-7.22 4.27 -4.63 14.91 0.81 16.68a13 13 0 0 0 2.12 0.5 7.08 7.08 0 0 0 1.49 0.09 9.23 9.23 0 0 0 2.28 -0.44 14.33 14.33 0 0 0 2.08 -0.92 6 6 0 0 1 0.38 0.5c0.43 0.66 0.77 1.37 1.17 2a14.66 14.66 0 0 0 0.91 1.25c0.34 0.4 0.69 0.78 1 1.12A6.54 6.54 0 0 0 20.87 24a2 2 0 0 0 2.33 -1.66 4.51 4.51 0 0 0 0.09 -0.53 4.84 4.84 0 0 0 0 -0.53 3.83 3.83 0 0 0 -0.05 -0.7Zm-1.16 1.47a1 1 0 0 1 -1.14 0.79 5.5 5.5 0 0 1 -2.84 -1.25 13.75 13.75 0 0 1 -1 -1 10.22 10.22 0 0 1 -0.92 -1.09c-0.44 -0.62 -0.84 -1.32 -1.3 -1.94a5.9 5.9 0 0 0 -0.39 -0.46l0.13 -0.09a6 6 0 0 0 0.63 -0.52 0.35 0.35 0 0 0 -0.49 -0.49 4.25 4.25 0 0 1 -0.54 0.43 5.55 5.55 0 0 1 -0.6 0.37 15.49 15.49 0 0 1 -2 0.84 8.52 8.52 0 0 1 -2.1 0.35 6.93 6.93 0 0 1 -1.64 -0.17 12 12 0 0 1 -1.64 -0.45C1.56 15.76 -0.61 6.26 5.7 2.54a11 11 0 0 1 2 -1 7.18 7.18 0 0 1 2.11 -0.45 6.24 6.24 0 0 1 1.67 0.18 11.09 11.09 0 0 1 1.66 0.54 11.25 11.25 0 0 1 1.86 0.93A5.51 5.51 0 0 1 16.49 4a4.29 4.29 0 0 1 0.49 0.76 10.23 10.23 0 0 1 0.57 1.33 5.27 5.27 0 0 1 0.29 1.44 13.15 13.15 0 0 1 -0.15 2.33 16.09 16.09 0 0 1 -0.38 2 8.54 8.54 0 0 1 -0.69 1.91 6.73 6.73 0 0 1 -0.57 1 6.36 6.36 0 0 1 -0.72 0.85 0.3 0.3 0 1 0 0.42 0.44 7.73 7.73 0 0 0 0.81 -0.92c0.11 -0.15 0.2 -0.31 0.3 -0.47 0.81 0.68 1.62 1.32 2.38 2a13.59 13.59 0 0 1 1.52 1.6 10.64 10.64 0 0 1 0.88 1.18 3.73 3.73 0 0 1 0.38 0.81 2.78 2.78 0 0 1 0.11 0.5 2.61 2.61 0 0 1 0.05 0.48Z" fill="#4C57E6" stroke-width="1"></path>
    <path d="M9 8.78a17.77 17.77 0 0 0 -2.73 0.64 0.3 0.3 0 0 0 -0.27 0.35 0.29 0.29 0 0 0 0.36 0.24c0.78 -0.07 1.57 0 2.37 -0.08l1 -0.06 1 -0.11c0.81 -0.1 1.6 -0.23 2.39 -0.36a0.32 0.32 0 0 0 0.38 -0.4 0.34 0.34 0 0 0 -0.36 -0.32c-0.82 0 -1.65 -0.06 -2.48 -0.05A13.1 13.1 0 0 0 9 8.78Z" fill="#020202" stroke-width="1"></path>
  </g>
</svg>