<svg width="1900" height="371" viewBox="0 0 1900 371" fill="none" xmlns="http://www.w3.org/2000/svg">
<path d="M-13 9H1906.15L1906.15 227V371H-13V9Z" fill="#DCEFF9"/>
<path d="M1590.21 0C1598.17 3.0261 1606.12 3.0041 1614.09 4.50293C1614.26 4.6661 1614.45 4.84651 1614.65 5.03906C1616.35 5.06566 1618.05 5.11088 1619.76 5.17871C1626 4.74539 1632.21 4.23303 1638.43 3.82812C1640.26 3.70737 1642.08 3.58715 1643.98 3.81445C1644.34 3.85701 1644.7 3.89203 1645.06 3.92383C1650.02 3.62215 1655.04 3.72697 1660.08 4.08496C1660.34 3.93376 1660.6 3.79538 1660.9 3.7793C1663.01 3.66566 1665.12 3.57288 1667.21 3.2959C1669.27 3.02596 1671.28 3.53774 1673.34 2.97656C1673.48 2.94109 1673.66 3.1037 1673.83 3.14648C1677.94 4.10544 1682.13 4.3688 1686.33 4.16992C1687.84 4.09178 1689.23 4.38951 1690.66 4.65234C1691.35 4.78033 1692.02 5.27796 1692.68 5.23535C1696.83 4.95832 1700.99 4.674 1705.11 4.17676C1706.8 3.97075 1708.35 3.69373 1710.14 3.58008C1716.65 3.17519 1723.15 2.94788 1729.65 2.46484C1730.32 2.41511 1731.18 2.0882 1731.62 2.36523C1732.93 3.18211 1734.25 3.02605 1735.47 2.82715C1736.84 2.60708 1738 3.23152 1739.3 3.1748C1745.93 2.89066 1752.5 2.16665 1759.19 2.64258C1762.35 2.86989 1765.51 2.46441 1768.76 2.89062C1771.31 3.21731 1773.96 2.77689 1776.59 2.84082C1779.76 2.91903 1782.97 3.89293 1786.15 3.26074C1786.43 3.20388 1786.83 3.08313 1786.99 3.21094C1788.03 4.0065 1789.25 3.23867 1790.23 3.56543C1791.45 3.96317 1792.6 3.864 1793.79 3.79297C1794.08 3.77167 1794.43 3.63694 1794.64 3.74316C1797.1 4.96495 1799.82 4.38271 1802.4 4.72363C1803.77 4.90216 1805.16 4.92499 1806.59 4.90234C1811.54 4.53846 1816.48 4.15012 1821.43 3.82812C1823.26 3.70737 1825.08 3.58715 1826.98 3.81445C1829.5 4.11276 1832.07 4.09823 1834.62 4.44629C1835.64 4.58826 1836.72 4.31174 1837.77 4.25488C1838.91 4.19096 1840.34 3.72921 1841.11 4.21191C1842.43 5.04303 1842.98 3.82902 1843.9 3.7793C1846.01 3.66566 1848.12 3.57288 1850.21 3.2959C1852.27 3.02596 1854.28 3.53774 1856.34 2.97656C1856.48 2.94109 1856.66 3.1037 1856.83 3.14648C1860.94 4.10544 1865.13 4.3688 1869.33 4.16992C1870.84 4.09178 1872.23 4.38951 1873.66 4.65234C1874.35 4.78033 1875.02 5.27796 1875.68 5.23535C1879.83 4.95832 1883.99 4.674 1888.11 4.17676C1889.8 3.97075 1891.35 3.69373 1893.14 3.58008C1899.65 3.17519 1906.15 2.94788 1912.65 2.46484C1913.32 2.41511 1914.18 2.0882 1914.62 2.36523C1915.93 3.18211 1917.25 3.02605 1918.47 2.82715C1919.84 2.60708 1921 3.23152 1922.3 3.1748C1928.93 2.89066 1935.5 2.16665 1942.19 2.64258C1945.35 2.86989 1948.51 2.46441 1951.76 2.89062C1954.31 3.21731 1956.96 2.77689 1959.59 2.84082C1962.76 2.91903 1965.97 3.89293 1969.15 3.26074C1969.43 3.20388 1969.83 3.08313 1969.99 3.21094C1971.03 4.0065 1972.25 3.23867 1973.23 3.56543C1974.45 3.96317 1975.6 3.864 1976.79 3.79297C1977.08 3.77167 1977.43 3.63694 1977.64 3.74316C1980.1 4.96495 1982.82 4.38271 1985.4 4.72363C1988.24 5.09302 1991.16 4.80176 1994.29 4.80176C1994.53 5.37 1994.79 5.98077 1995.01 6.49219C1994.37 6.9255 1993.94 7.24543 1993.5 7.52246C1991.91 8.52405 1990.37 9.54657 1988.33 9.63184C1987.62 9.66025 1986.94 10.3422 1986.21 10.7471C1985.97 10.5339 1985.71 10.1581 1985.25 10.7617C1985.09 10.9676 1984.56 10.9388 1984.2 10.9814C1983.73 11.0381 1983.27 11.0594 1983.21 11.0596C1982.15 11.6207 1981.48 12.2104 1980.74 12.3027C1979.49 12.459 1979.48 13.4187 1979.18 13.9443C1978.33 14.2284 1977.66 14.498 1976.97 14.6826C1976.44 14.8247 1975.74 15.1227 1975.36 14.9238C1973.88 14.1641 1972.4 14.7826 1970.94 14.7471C1969.57 14.7187 1968.2 14.711 1966.4 14.6826C1966.11 14.846 1965.43 15.2581 1964.58 15.7695C1963.09 15.8832 1961.37 15.5992 1959.65 15.6631C1957.99 15.7271 1956.31 16.3092 1954.67 15.5137C1954.45 15.4144 1953.95 15.4499 1953.85 15.5918C1953.16 16.5437 1952.11 16.1249 1951.23 16.3096C1949.84 16.6007 1948.48 15.7134 1947.11 15.6279C1945.09 15.5001 1943.04 15.5564 1941 15.4854C1940.67 15.471 1940.37 15.1305 1940.03 15.0879C1938.25 14.8677 1936.56 14.1929 1934.82 13.9727C1932.88 13.724 1930.85 13.6175 1928.86 13.7383C1927.14 13.8377 1925.42 13.9864 1923.7 14.1143C1923.22 14.1498 1922.6 14.3844 1922.29 14.1855C1921.4 13.6175 1920.5 13.887 1919.59 13.8516C1918.6 13.8089 1917.57 13.425 1916.63 13.5742C1912.8 14.1922 1909.05 12.3036 1905.24 12.6445C1904.92 12.6729 1904.58 12.417 1904.23 12.3672C1903.79 12.3033 1903.08 12.1324 1902.91 12.3311C1902.16 13.219 1901.15 12.9638 1900.27 12.9922C1899.01 13.0276 1897.72 12.7225 1896.45 12.7793C1893.78 12.9001 1891.12 12.5444 1888.8 12.7148C1888.05 13.1695 1887.61 13.4822 1887.13 13.6953C1886.72 13.8728 1886.25 13.9016 1885.83 14.0508C1884.24 14.5977 1882.61 15.0875 1881.06 15.748C1879 16.6217 1876.81 17.3682 1874.63 17.0273C1870.78 16.4165 1866.86 15.7273 1863.22 14.4346C1859.17 12.9926 1854.98 13.2905 1850.83 12.708C1848.92 12.4381 1846.95 12.601 1845.01 12.5371C1844.76 12.5299 1844.51 12.3533 1844.26 12.2822C1841.6 11.5506 1838.92 11.0032 1836.12 11.543C1835.66 11.6353 1835.18 11.6216 1834.94 11.6357C1833.06 12.8078 1831.33 13.6743 1829.23 13.7383C1827.32 13.7951 1825.41 14.0076 1823.49 14.1426C1822.57 14.2065 1821.72 14.0438 1820.8 13.8662C1817.89 13.2908 1814.97 12.1328 1811.91 13.3262C1811.51 13.4823 1810.87 13.5174 1810.54 13.3115C1809.44 12.6083 1808.33 13.2332 1807.24 13.1338C1806.15 13.0343 1805.07 12.9143 1803.98 12.8291C1801.48 12.9964 1798.97 13.1555 1796.45 13.3096C1796.35 13.5389 1796.28 13.7664 1796.18 13.9443C1795.33 14.2284 1794.66 14.498 1793.97 14.6826C1793.44 14.8247 1792.74 15.1227 1792.36 14.9238C1790.88 14.1641 1789.4 14.7826 1787.94 14.7471C1786.57 14.7187 1785.2 14.711 1783.4 14.6826C1783.11 14.846 1782.43 15.2581 1781.58 15.7695C1780.09 15.8832 1778.37 15.5992 1776.65 15.6631C1774.99 15.7271 1773.31 16.3092 1771.67 15.5137C1771.45 15.4144 1770.95 15.4499 1770.85 15.5918C1770.16 16.5437 1769.11 16.1249 1768.23 16.3096C1766.84 16.6007 1765.48 15.7134 1764.11 15.6279C1762.09 15.5001 1760.04 15.5564 1758 15.4854C1757.67 15.471 1757.37 15.1305 1757.03 15.0879C1756.54 15.0271 1756.05 14.9303 1755.57 14.8193C1747.11 14.8636 1738.69 14.7011 1730.35 14.2568C1726.42 14.0434 1722.5 13.4606 1718.61 12.9863C1718.16 13.0304 1717.7 12.9783 1717.27 12.9922C1716.67 13.009 1716.06 12.9483 1715.46 12.8867C1710.87 14.9039 1706.27 13.8879 1701.68 14.4365C1700.46 14.8418 1699.24 15.2455 1698.06 15.748C1696 16.6217 1693.81 17.3682 1691.63 17.0273C1688.04 16.4582 1684.4 15.8201 1680.98 14.6904C1670.09 13.8665 1659.27 13.0737 1648.63 13.2959C1647.87 13.5521 1647.08 13.7124 1646.23 13.7383C1644.32 13.7951 1642.41 14.0076 1640.49 14.1426C1639.64 14.2022 1638.83 14.0632 1637.98 13.9004C1632.62 14.4202 1627.31 15.293 1622.08 16.6504C1615.48 16.1446 1608.49 14.9456 1601.46 13.9746C1590.55 14.512 1579.59 14.8498 1568.7 14.8232C1566.83 15.4437 1565 16.2091 1563.23 17.1475C1558.45 17.1617 1553.68 17.1765 1548.68 16.1465C1543.79 15.5853 1538.87 14.9387 1533.99 14.5693C1524.25 13.8377 1514.7 14.2492 1505.97 18.8594C1502.79 17.3464 1501.19 15.8269 1498.01 15.834C1490.06 17.3896 1480.52 17.4175 1472.17 15.7695C1468.33 16.2597 1464.45 15.4215 1460.6 16.0537C1459.19 16.2881 1457.74 16.2951 1456.3 16.3945C1455.83 16.43 1455.35 16.5017 1454.89 16.4307C1452.06 15.9831 1450.61 16.1107 1448.13 16.9062C1447.67 17.0554 1447.08 16.7716 1446.57 16.8213C1446.11 16.864 1445.67 17.1338 1445.2 17.2119C1444.64 17.3043 1443.84 17.5594 1443.52 17.3037C1442.53 16.5014 1441.51 17.0484 1440.52 17.0342C1439.66 17.0272 1438.7 17.4176 1437.96 17.1621C1435.49 16.3097 1433.09 17.3681 1430.68 17.1621C1430.09 17.113 1429.77 18.369 1429.12 17.3896C1427.45 17.7093 1425.83 17.0268 1424.18 17.1475C1422.69 17.2611 1421.31 16.8206 1419.92 16.501C1412.98 14.9311 1415.08 15.0311 1408.5 15.5283C1403.81 15.8835 1399.12 16.2242 1394.44 16.5723C1393.87 16.6149 1393.12 16.8987 1392.75 16.6572C1391.56 15.862 1390.18 16.8207 1389.23 16.3311C1387.95 15.6634 1386.83 16.679 1385.65 16.5869C1385.27 16.5585 1384.77 16.7997 1384.53 16.6367C1383.68 16.0743 1382.82 16.1689 1381.95 16.2959C1381.37 16.5629 1380.8 16.846 1380.23 17.1475C1376.62 17.1582 1373.02 17.1681 1369.32 16.7295C1368.96 16.8574 1368.6 16.7367 1368.24 16.5869C1367.71 16.5122 1367.18 16.4295 1366.66 16.334C1365.29 16.5119 1363.93 15.6345 1362.53 16.082C1362.08 15.8821 1361.62 15.7301 1361.17 15.6162C1360.32 15.5156 1359.46 15.4155 1358.61 15.3184C1357.09 15.3028 1355.55 15.5112 1354.02 15.6064C1353.17 15.6562 1352.21 15.9405 1351.48 15.6777C1349.38 14.9319 1347.37 15.8118 1345.32 15.6982C1344.73 16.4796 1343.84 16.4092 1343.02 16.4092C1342.1 16.4093 1341.23 16.7212 1340.24 16.3662C1339.64 16.1531 1338.61 16.97 1338.07 16.7285C1336.65 16.0965 1335.31 16.5508 1333.93 16.5508C1333.46 16.5511 1332.78 17.0975 1332.55 16.8848C1331.51 15.9255 1330.23 16.8273 1329.04 16.334C1326.98 16.9837 1324.95 17.8123 1322.97 18.8594C1319.79 17.3464 1318.19 15.8269 1315.01 15.834C1307.06 17.3896 1297.52 17.4175 1289.17 15.7695C1285.33 16.2597 1281.45 15.4215 1277.6 16.0537C1276.19 16.2881 1274.74 16.2951 1273.3 16.3945C1272.83 16.43 1272.35 16.5017 1271.89 16.4307C1269.06 15.9831 1267.61 16.1107 1265.13 16.9062C1264.67 17.0554 1264.08 16.7716 1263.57 16.8213C1263.11 16.864 1262.67 17.1338 1262.2 17.2119C1261.64 17.3043 1260.84 17.5594 1260.52 17.3037C1259.53 16.5014 1258.51 17.0484 1257.52 17.0342C1256.66 17.0272 1255.7 17.4176 1254.96 17.1621C1252.49 16.3097 1250.09 17.3681 1247.68 17.1621C1247.09 17.113 1246.77 18.369 1246.12 17.3896C1244.45 17.7093 1242.83 17.0268 1241.18 17.1475C1239.69 17.2611 1238.31 16.8206 1236.92 16.501C1235.1 16.0901 1233.9 15.7948 1233.01 15.5898C1231.53 15.4834 1230.04 15.3393 1228.56 15.5352C1228.44 15.5535 1228.3 15.3781 1228.16 15.3193C1227.46 15.3743 1226.6 15.445 1225.5 15.5283C1220.81 15.8835 1216.12 16.2242 1211.44 16.5723C1210.87 16.6149 1210.12 16.8987 1209.75 16.6572C1208.56 15.862 1207.18 16.8207 1206.23 16.3311C1204.95 15.6634 1203.83 16.679 1202.65 16.5869C1202.27 16.5585 1201.77 16.7997 1201.53 16.6367C1200.17 15.7346 1198.77 16.5223 1197.4 16.4229C1196.03 16.3234 1194.66 16.1885 1193.29 16.1885C1192.14 16.1885 1191 16.3589 1189.85 16.4229C1188.87 16.4726 1187.87 16.7921 1186.94 16.1885C1186 17.5877 1184.94 16.054 1183.92 16.2881C1182.46 16.629 1181.02 15.6062 1179.53 16.082C1176.75 14.8531 1173.88 15.4288 1171.02 15.6064C1170.17 15.6562 1169.21 15.9405 1168.48 15.6777C1166.38 14.9319 1164.37 15.8118 1162.32 15.6982C1161.73 16.4796 1160.84 16.4092 1160.02 16.4092C1159.1 16.4093 1158.23 16.7212 1157.24 16.3662C1156.64 16.1531 1155.61 16.97 1155.07 16.7285C1153.65 16.0965 1152.31 16.5508 1150.93 16.5508C1150.46 16.5511 1149.78 17.0975 1149.55 16.8848C1148.45 15.8619 1147.06 16.9556 1145.8 16.2168C1144.83 15.6486 1143.31 16.0045 1142.04 15.834C1140.63 15.6422 1139.2 15.4287 1137.86 14.9883C1137.34 14.8108 1136.9 15.0596 1136.31 15.0596C1134.46 15.0525 1132.54 15.2653 1130.79 14.832C1129.57 14.5337 1128.42 14.768 1127.27 14.5195C1126.81 14.4202 1126.36 14.3023 1125.91 14.1855C1123.22 14.3557 1120.49 15.1122 1117.84 13.9883C1117.82 13.9898 1117.79 13.9928 1117.77 13.9941C1116.04 14.0936 1114.33 14.2638 1112.6 14.3633C1112.06 14.3988 1111.43 14.4699 1110.98 14.2568C1109.93 13.7596 1109.08 14.0082 1108.31 14.5693C1107.69 14.3136 1107.11 14.0714 1106.48 13.8086C1106.36 13.9293 1106.18 14.1142 1106 14.2988C1105.22 13.255 1103.95 14.1148 1102.88 13.5537C1101.96 13.0708 1100.46 14.0083 1099.22 13.9941C1097.76 13.987 1096.27 13.9649 1094.86 13.6523C1093.74 13.3966 1092.66 13.0064 1091.48 12.9141C1090.41 12.8288 1089.2 12.8502 1088.33 12.3672C1088.21 12.3002 1088.08 12.2535 1087.95 12.2217C1087.56 12.3662 1087.16 12.5432 1086.75 12.665C1086.33 12.7929 1085.75 12.4168 1085.24 12.2676H1085.27C1085.26 12.2122 1085.26 12.1569 1085.25 12.1016C1085.11 12.0284 1084.98 11.9286 1084.85 11.792C1084.7 11.6357 1083.95 11.7279 1083.79 11.9268C1083.15 12.7578 1082.21 12.367 1081.43 12.5801C1080.74 12.7718 1080.08 13.0136 1079.61 13.1699C1078.93 13.035 1078.4 12.8077 1077.9 12.8574C1076.22 13.0349 1074.67 12.7787 1073.06 12.5869C1069.78 12.1962 1066.46 11.3584 1063.2 12.1113C1061.6 12.4807 1059.98 12.7365 1058.61 12.9141C1057.2 14.1856 1055.91 15.1018 1054.26 15.457C1051.37 16.075 1048.46 15.1516 1045.56 15.5352C1045.41 15.5565 1045.25 15.3151 1045.09 15.3008C1042.48 15.038 1039.96 13.873 1037.25 14.498C1036.45 14.6756 1035.68 14.5554 1034.89 15.1592C1034.34 15.585 1033.19 15.5491 1032.38 15.3857C1029.75 14.8673 1027.12 14.6759 1024.44 14.8818C1023.94 14.9245 1023.42 14.6255 1022.89 14.5332C1020.18 14.0645 1017.41 14.4269 1014.69 14.0078C1014.09 13.9155 1013.41 14.3705 1012.76 14.4131C1012.04 14.4628 1011.3 14.2491 1010.58 14.2988C1009.86 14.3485 1009.2 14.4269 1008.47 14.8174C1007.32 15.4283 1005.7 16.0327 1004.59 15.7061C1003.3 15.3296 1002.18 15.6421 1001.01 15.5498C999.733 15.4504 998.453 15.3503 997.181 15.2793C996.271 15.2296 995.294 15.7268 994.502 14.917C992.556 15.1727 990.714 14.335 988.864 14.335C987.37 14.335 985.956 14.3848 984.469 14.4346C983.004 14.4843 981.465 14.5551 980.089 14.1787C978.195 13.6673 976.027 14.3916 974.828 13.1982C973.519 13.3829 972.66 13.5535 971.795 13.6104C971.469 13.6317 971.106 13.2474 970.803 13.29C967.177 13.7943 963.752 12.999 960.341 11.9619C959.941 11.8341 959.305 11.82 959.017 12.04C957.196 13.411 955.021 13.2908 952.92 13.5039C952.313 13.5607 951.721 13.7734 951.092 13.9297C949.213 13.1132 946.949 14.6825 945.129 13.5605C944.522 13.795 944.041 14.143 943.545 14.1572C940.511 14.2283 937.426 15.2932 934.444 13.8086C934.23 13.6952 933.889 13.8086 933.608 13.8086C931.566 13.7802 929.531 13.7526 927.489 13.71C927.223 13.7029 926.92 13.6878 926.698 13.5742C925.056 12.7218 923.316 12.8857 921.562 13.042C921.185 13.0775 920.771 13.1621 920.438 13.0557C918.781 12.53 917.042 12.3392 915.355 12.4883C914.727 12.5451 914.408 11.5854 913.668 12.2744C913.276 12.6367 912.255 12.8362 911.848 12.5947C911.204 12.2113 910.65 12.1754 909.991 12.2393C909.081 12.3316 908.119 11.06 907.261 12.3457C905.988 11.5076 904.915 12.3169 903.754 12.665C903.332 12.7929 902.747 12.4168 902.236 12.2676H902.267C902.178 11.1667 902.089 10.0658 902 8.96484C902.303 8.73586 902.449 8.44015 902.538 8.12012C901.266 8.89593 899.957 9.56373 898.326 9.63184C897.616 9.66025 896.942 10.3422 896.21 10.7471C895.973 10.5339 895.714 10.1581 895.248 10.7617C895.093 10.9676 894.56 10.9388 894.197 10.9814C893.733 11.0381 893.268 11.0594 893.214 11.0596C892.148 11.6207 891.482 12.2104 890.742 12.3027C889.492 12.459 889.484 13.4187 889.181 13.9443C888.33 14.2284 887.664 14.498 886.969 14.6826C886.436 14.8247 885.74 15.1227 885.355 14.9238C883.876 14.1641 882.403 14.7826 880.938 14.7471C879.57 14.7187 878.201 14.711 876.396 14.6826C876.114 14.846 875.433 15.2581 874.575 15.7695C873.088 15.8832 871.371 15.5992 869.647 15.6631C867.99 15.7271 866.31 16.3092 864.668 15.5137C864.453 15.4144 863.95 15.4499 863.847 15.5918C863.159 16.5437 862.108 16.1249 861.228 16.3096C859.837 16.6007 858.483 15.7134 857.114 15.6279C855.087 15.5001 853.037 15.5564 851.002 15.4854C850.669 15.471 850.366 15.1305 850.025 15.0879C848.25 14.8677 846.555 14.1929 844.824 13.9727C842.878 13.724 840.851 13.6175 838.86 13.7383C837.137 13.8377 835.42 13.9864 833.696 14.1143C833.223 14.1498 832.601 14.3844 832.29 14.1855C831.402 13.6175 830.5 13.887 829.59 13.8516C828.598 13.8089 827.57 13.425 826.63 13.5742C822.797 14.1922 819.046 12.3036 815.243 12.6445C814.918 12.6729 814.577 12.417 814.229 12.3672C813.786 12.3033 813.083 12.1324 812.912 12.3311C812.165 13.219 811.151 12.9638 810.271 12.9922C809.005 13.0276 807.718 12.7225 806.453 12.7793C803.782 12.9001 801.119 12.5444 798.803 12.7148C798.048 13.1695 797.611 13.4822 797.13 13.6953C796.723 13.8728 796.25 13.9016 795.828 14.0508C794.237 14.5977 792.61 15.0875 791.063 15.748C788.999 16.6217 786.809 17.3682 784.634 17.0273C780.779 16.4165 776.865 15.7273 773.225 14.4346C769.17 12.9926 764.982 13.2905 760.831 12.708C758.922 12.4381 756.954 12.601 755.008 12.5371C754.756 12.5299 754.512 12.3533 754.261 12.2822C751.597 11.5506 748.919 11.0032 746.122 11.543C745.656 11.6353 745.175 11.6216 744.938 11.6357C743.059 12.8078 741.327 13.6743 739.226 13.7383C737.317 13.7951 735.408 14.0076 733.492 14.1426C732.575 14.2065 731.716 14.0438 730.799 13.8662C727.891 13.2908 724.968 12.1328 721.912 13.3262C721.513 13.4823 720.869 13.5174 720.544 13.3115C719.442 12.6083 718.331 13.2332 717.236 13.1338C716.149 13.0343 715.068 12.9143 713.98 12.8291C689.638 14.4558 664.6 15.5497 640.354 14.2568C635.507 13.994 630.683 13.1698 625.911 12.6797C619.563 15.7555 613.184 12.722 606.836 15.7979C581.376 14.3487 555.917 10.4633 532.077 16.6504C512.98 15.1871 490.687 7.92725 473.226 17.1475C468.453 17.1617 463.68 17.1765 458.679 16.1465C453.788 15.5853 448.868 14.9387 443.992 14.5693C434.248 13.8377 424.702 14.2492 415.972 18.8594C412.79 17.3464 411.192 15.8269 408.011 15.834C400.057 17.3896 390.52 17.4175 382.174 15.7695C378.326 16.2597 374.449 15.4215 370.602 16.0537C369.188 16.2881 367.738 16.2951 366.303 16.3945C365.829 16.43 365.348 16.5017 364.89 16.4307C362.056 15.9831 360.613 16.1107 358.127 16.9062C357.668 17.0554 357.083 16.7716 356.565 16.8213C356.107 16.864 355.67 17.1338 355.204 17.2119C354.642 17.3043 353.835 17.5594 353.524 17.3037C352.526 16.5014 351.512 17.0484 350.521 17.0342C349.662 17.0272 348.701 17.4176 347.961 17.1621C345.49 16.3097 343.092 17.3681 340.68 17.1621C340.088 17.113 339.77 18.369 339.119 17.3896C337.454 17.7093 335.827 17.0268 334.177 17.1475C332.69 17.2611 331.313 16.8206 329.915 16.501C322.982 14.9311 325.076 15.0311 318.498 15.5283C313.815 15.8835 309.124 16.2242 304.44 16.5723C303.871 16.6149 303.115 16.8987 302.753 16.6572C301.562 15.862 300.178 16.8207 299.231 16.3311C297.952 15.6634 296.827 16.679 295.65 16.5869C295.273 16.5585 294.77 16.7997 294.525 16.6367C293.171 15.7346 291.765 16.5223 290.396 16.4229C289.028 16.3234 287.659 16.1885 286.29 16.1885C285.143 16.1885 283.996 16.3589 282.85 16.4229C281.873 16.4726 280.867 16.7921 279.942 16.1885C278.995 17.5877 277.937 16.054 276.916 16.2881C275.458 16.629 274.023 15.6062 272.528 16.082C269.754 14.8531 266.875 15.4288 264.02 15.6064C263.169 15.6562 262.214 15.9405 261.481 15.6777C259.38 14.9319 257.368 15.8118 255.318 15.6982C254.734 16.4796 253.838 16.4092 253.017 16.4092C252.099 16.4093 251.227 16.7212 250.235 16.3662C249.643 16.1531 248.614 16.97 248.074 16.7285C246.654 16.0965 245.307 16.5508 243.931 16.5508C243.457 16.5511 242.777 17.0975 242.548 16.8848C241.445 15.8619 240.062 16.9556 238.804 16.2168C237.834 15.6486 236.31 16.0045 235.045 15.834C233.632 15.6422 232.203 15.4287 230.864 14.9883C230.339 14.8108 229.895 15.0596 229.311 15.0596C227.461 15.0525 225.537 15.2653 223.791 14.832C222.57 14.5337 221.416 14.768 220.27 14.5195C219.226 14.2922 218.212 13.9723 217.169 13.7734C216.178 13.5817 215.223 14.3844 214.121 13.9941C213.137 13.6461 211.893 13.9302 210.769 13.9941C209.045 14.0936 207.328 14.2638 205.604 14.3633C205.064 14.3988 204.428 14.4699 203.977 14.2568C202.926 13.7596 202.083 14.0082 201.306 14.5693C200.692 14.3136 200.115 14.0714 199.479 13.8086C199.36 13.9293 199.182 14.1142 198.997 14.2988C198.22 13.255 196.947 14.1148 195.882 13.5537C194.964 13.0708 193.463 14.0083 192.22 13.9941C190.762 13.987 189.267 13.9649 187.861 13.6523C186.737 13.3966 185.657 13.0064 184.48 12.9141C183.408 12.8288 182.201 12.8502 181.328 12.3672C180.181 11.7423 178.857 12.8574 177.851 11.792C177.703 11.6357 176.948 11.7279 176.793 11.9268C176.149 12.7578 175.209 12.367 174.433 12.5801C173.745 12.7718 173.079 13.0136 172.605 13.1699C171.932 13.035 171.399 12.8077 170.896 12.8574C169.223 13.0349 167.669 12.7787 166.057 12.5869C162.779 12.1962 159.457 11.3584 156.201 12.1113C154.596 12.4807 152.976 12.7365 151.614 12.9141C150.201 14.1856 148.914 15.1018 147.264 15.457C144.371 16.075 141.463 15.1516 138.562 15.5352C138.415 15.5565 138.252 15.3151 138.089 15.3008C135.477 15.038 132.961 13.873 130.246 14.498C129.454 14.6756 128.677 14.5554 127.893 15.1592C127.337 15.585 126.191 15.5491 125.377 15.3857C122.751 14.8673 120.117 14.6759 117.438 14.8818C116.935 14.9245 116.417 14.6255 115.892 14.5332C113.176 14.0645 110.409 14.4269 107.687 14.0078C107.087 13.9155 106.414 14.3705 105.763 14.4131C105.038 14.4628 104.298 14.2491 103.58 14.2988C102.863 14.3485 102.204 14.4269 101.472 14.8174C100.318 15.4283 98.7042 16.0327 97.5869 15.7061C96.2996 15.3296 95.1822 15.6421 94.0059 15.5498C92.7333 15.4504 91.4532 15.3503 90.1807 15.2793C89.2706 15.2296 88.2936 15.7268 87.502 14.917C85.5561 15.1727 83.7139 14.335 81.8643 14.335C80.3697 14.335 78.9559 14.3848 77.4688 14.4346C76.0039 14.4843 74.465 14.5551 73.0889 14.1787C71.1948 13.6673 69.0268 14.3916 67.8281 13.1982C66.5187 13.3829 65.6605 13.5535 64.7949 13.6104C64.4694 13.6317 64.1061 13.2474 63.8027 13.29C60.1773 13.7943 56.7517 12.999 53.3408 11.9619C52.9413 11.8341 52.3052 11.82 52.0166 12.04C50.1965 13.411 48.0212 13.2908 45.9199 13.5039C45.3132 13.5607 44.7207 13.7734 44.0918 13.9297C42.2126 13.1132 39.9489 14.6825 38.1289 13.5605C37.5222 13.795 37.0407 14.143 36.5449 14.1572C33.5114 14.2283 30.426 15.2932 27.4443 13.8086C27.2297 13.6952 26.8894 13.8086 26.6084 13.8086C24.5663 13.7802 22.5314 13.7526 20.4893 13.71C20.223 13.7029 19.9201 13.6878 19.6982 13.5742C18.0557 12.7218 16.3161 12.8857 14.5625 13.042C14.1853 13.0775 13.7713 13.1621 13.4385 13.0557C11.7812 12.53 10.0423 12.3392 8.35547 12.4883C7.72656 12.5451 7.40785 11.5854 6.66797 12.2744C6.27582 12.6367 5.2546 12.8362 4.84766 12.5947C4.20409 12.2113 3.64955 12.1754 2.99121 12.2393C2.08115 12.3316 1.11902 11.06 0.260742 12.3457C-1.01173 11.5076 -2.08461 12.3169 -3.24609 12.665C-3.66784 12.7929 -4.25314 12.4168 -4.76367 12.2676H-4.7334C-4.82218 11.1667 -4.91122 10.0658 -5 8.96484C-4.03084 8.23326 -4.65939 6.82672 -3.67578 6.08789C-2.1294 6.44307 -0.582519 6.80498 0.963867 7.16016C2.28816 7.27376 3.66426 7.08904 5.01074 7.65723C6.63112 8.33917 8.39235 8.20453 9.96094 7.77832C11.8106 7.27399 13.8751 6.93296 15.1699 5.26367C16.3685 5.07197 17.5377 5.41956 18.6992 5.45508C21.0742 5.54029 23.4864 5.26362 25.8613 4.97949C28.1624 4.7025 30.5894 5.13521 32.7646 3.95605C33.1494 3.75022 33.7709 3.70048 34.1777 3.84961C36.3234 4.63807 38.4545 3.89941 40.5928 3.89941C41.0736 3.89221 41.6656 3.63643 42.0059 3.82812C43.3746 4.60945 44.8244 3.77209 46.1191 4.09863C47.6136 4.47509 48.8347 4.34 50.2773 3.81445C51.5647 3.33853 53.1263 3.59438 54.5469 3.39551C55.9009 3.21082 57.2183 2.67775 58.5723 2.59961C61.5614 2.42207 64.5656 2.99005 67.5547 2.4502C69.4784 3.25988 71.4389 2.5926 73.3848 2.57129C73.6733 2.57129 73.9768 2.45755 74.2432 2.52148C77.1509 3.2247 80.1032 2.94788 83.0332 2.46484C85.6746 2.02448 88.2498 2.77055 90.8838 2.53613C92.06 2.42977 93.3028 3.03299 94.5752 3.32422C94.8268 3.12532 95.0785 2.75552 95.3818 2.71289C96.6543 2.52822 97.9565 2.61393 99.1328 1.88965C99.5619 1.62683 100.42 1.52709 100.798 1.76855C101.893 2.4647 103.018 2.18025 104.076 2.00977C107.642 1.44876 111.23 2.32951 114.789 1.79688C116.113 2.4717 117.771 1.63376 118.829 2.18066C120.102 2.84129 121.316 2.18047 122.596 2.75586C123.728 3.26709 125.4 2.59917 126.835 2.58496C128.108 2.57786 129.388 2.83451 130.66 2.82031C134.426 2.77059 138.185 2.63549 141.943 2.56445C142.284 2.56445 142.631 2.74187 142.972 2.82715C145.554 3.48775 148.114 3.85723 150.837 3.60156C157.992 2.94094 165.169 2.14489 172.346 1.66895C175.083 1.48426 177.688 2.18027 180.699 3.35938C182.024 3.07523 183.815 2.52835 185.635 2.37207C187.262 2.22999 188.868 1.87546 190.629 2.4082C192.131 2.86277 193.892 2.10989 195.579 2.25195C197.399 2.40118 198.864 3.06127 200.699 3.66504C202.734 3.51587 205.028 3.34528 207.321 3.1748C209.519 3.01142 211.716 2.77709 213.921 2.70605C216.148 2.63502 218.39 2.55737 220.609 2.4082C223.665 2.2022 226.684 2.09568 229.695 2.84863C230.739 3.11146 231.871 2.77736 232.937 2.69922C236.651 2.42927 240.35 1.80419 244.027 2.69922C244.294 2.76314 244.768 2.76999 244.856 2.62793C245.367 1.84688 246.166 2.00311 246.898 1.94629C250.724 1.65505 254.541 1.30702 258.374 1.11523C260.364 1.0158 262.31 1.42767 263.871 2.20898C267.489 2.18057 270.871 2.01035 274.237 2.20215C275.465 2.27318 276.797 2.26575 277.988 2.62793C280.741 3.47324 283.575 3.29598 286.379 3.42383C287.422 3.46645 288.495 3.36704 289.531 3.18945C291.647 2.82016 293.504 3.37398 295.391 4.46777C297.351 3.73613 299.475 4.26184 301.702 3.6084C305.128 2.59263 308.864 2.99772 312.356 3.39551C315.316 3.73648 318.35 3.46613 321.258 4.26172C324.913 3.72186 328.598 4.67359 332.253 4.00586C332.815 3.90646 333.393 3.90661 333.97 3.87109C334.798 3.82855 335.545 3.94246 336.381 4.17676C338.941 4.88708 341.597 5.26323 344.298 4.78027C345.334 4.59558 346.414 4.68122 347.45 4.51074C348.523 4.34026 349.552 3.82902 350.617 3.7793C353.133 3.66566 355.663 3.86411 358.164 3.68652C359.681 3.58 361.072 3.85746 362.478 4.21973C364.298 4.68855 366.14 5.24948 368.005 5.18555C372.178 5.03636 376.343 4.62416 380.509 4.2832C393.657 5.22797 406.368 2.13068 419.102 3.61523C428.113 2.05958 437.303 1.69035 446.552 1.71875C451.176 1.73296 455.816 1.8463 460.447 1.95996C473.173 0.390095 487.505 6.15131 500.209 0C508.17 3.0261 516.125 3.0041 524.086 4.50293C525.684 6.02309 528.873 9.06374 532.055 9.05664C557.463 -1.71227 586.126 6.74064 613.177 9.70996C614.768 8.17559 616.344 5.11453 619.525 5.10742C620.586 5.10268 621.703 5.03606 622.877 4.9082C626.68 4.7022 630.661 5.52649 633.835 3.99219C660.886 8.48872 686.323 4.12739 712.76 5.17871C718.997 4.74539 725.205 4.23303 731.428 3.82812C733.263 3.70737 735.076 3.58715 736.984 3.81445C739.5 4.11276 742.075 4.09823 744.62 4.44629C745.641 4.58826 746.721 4.31174 747.771 4.25488C748.911 4.19096 750.339 3.72921 751.108 4.21191C752.425 5.04303 752.981 3.82902 753.898 3.7793C756.007 3.66566 758.123 3.57288 760.209 3.2959C762.273 3.02596 764.279 3.53774 766.336 2.97656C766.476 2.94109 766.661 3.1037 766.831 3.14648C770.945 4.10544 775.133 4.3688 779.328 4.16992C780.838 4.09178 782.229 4.38951 783.657 4.65234C784.345 4.78033 785.018 5.27796 785.677 5.23535C789.828 4.95832 793.986 4.674 798.114 4.17676C799.801 3.97075 801.348 3.69373 803.139 3.58008C809.65 3.17519 816.146 2.94788 822.649 2.46484C823.323 2.41511 824.181 2.0882 824.625 2.36523C825.935 3.18211 827.252 3.02605 828.473 2.82715C829.841 2.60708 831.003 3.23152 832.305 3.1748C838.934 2.89066 845.505 2.16665 852.193 2.64258C855.353 2.86989 858.505 2.46441 861.761 2.89062C864.306 3.21731 866.962 2.77689 869.589 2.84082C872.755 2.91903 875.974 3.89293 879.148 3.26074C879.43 3.20388 879.828 3.08313 879.991 3.21094C881.027 4.0065 882.248 3.23867 883.232 3.56543C884.453 3.96317 885.6 3.864 886.791 3.79297C887.079 3.77167 887.427 3.63694 887.642 3.74316C890.098 4.96495 892.821 4.38271 895.403 4.72363C898.237 5.09302 901.16 4.80176 904.29 4.80176C904.524 5.36345 904.787 5.96684 905 6.47461C905.988 6.70359 906.976 6.93327 907.964 7.16016C909.288 7.27376 910.664 7.08904 912.011 7.65723C913.631 8.33917 915.392 8.20453 916.961 7.77832C918.811 7.27399 920.875 6.93296 922.17 5.26367C923.368 5.07197 924.538 5.41956 925.699 5.45508C928.074 5.54029 930.486 5.26362 932.861 4.97949C935.162 4.7025 937.589 5.13521 939.765 3.95605C940.149 3.75022 940.771 3.70048 941.178 3.84961C943.323 4.63807 945.454 3.89941 947.593 3.89941C948.074 3.89221 948.666 3.63643 949.006 3.82812C950.375 4.60945 951.824 3.77209 953.119 4.09863C954.614 4.47509 955.835 4.34 957.277 3.81445C958.565 3.33853 960.126 3.59438 961.547 3.39551C962.901 3.21082 964.218 2.67775 965.572 2.59961C968.561 2.42207 971.566 2.99005 974.555 2.4502C976.478 3.25988 978.439 2.5926 980.385 2.57129C980.673 2.57129 980.977 2.45755 981.243 2.52148C984.151 3.2247 987.103 2.94788 990.033 2.46484C992.675 2.02448 995.25 2.77055 997.884 2.53613C999.06 2.42977 1000.3 3.03299 1001.58 3.32422C1001.83 3.12532 1002.08 2.75552 1002.38 2.71289C1003.65 2.52822 1004.96 2.61393 1006.13 1.88965C1006.56 1.62683 1007.42 1.52709 1007.8 1.76855C1008.89 2.4647 1010.02 2.18025 1011.08 2.00977C1014.64 1.44876 1018.23 2.32951 1021.79 1.79688C1023.11 2.4717 1024.77 1.63376 1025.83 2.18066C1027.1 2.84129 1028.32 2.18047 1029.6 2.75586C1030.73 3.26709 1032.4 2.59917 1033.83 2.58496C1035.11 2.57786 1036.39 2.83451 1037.66 2.82031C1041.43 2.77059 1045.18 2.63549 1048.94 2.56445C1049.28 2.56445 1049.63 2.74187 1049.97 2.82715C1052.55 3.48775 1055.11 3.85723 1057.84 3.60156C1064.99 2.94094 1072.17 2.14489 1079.35 1.66895C1082.08 1.48426 1084.69 2.18027 1087.7 3.35938C1089.02 3.07523 1090.81 2.52835 1092.63 2.37207C1094.26 2.22999 1095.87 1.87546 1097.63 2.4082C1099.13 2.86277 1100.89 2.10989 1102.58 2.25195C1104.4 2.40118 1105.86 3.06127 1107.7 3.66504C1109.73 3.51587 1112.03 3.34528 1114.32 3.1748C1116.52 3.01142 1118.72 2.77709 1120.92 2.70605C1123.15 2.63502 1125.39 2.55737 1127.61 2.4082C1130.67 2.2022 1133.68 2.09568 1136.7 2.84863C1137.74 3.11146 1138.87 2.77736 1139.94 2.69922C1143.45 2.4436 1146.96 1.86965 1150.44 2.56934C1150.92 2.57768 1151.39 2.59719 1151.86 2.61621C1152.38 1.84849 1153.17 2.00282 1153.9 1.94629C1157.72 1.65505 1161.54 1.30702 1165.37 1.11523C1167.36 1.0158 1169.31 1.42767 1170.87 2.20898C1174.49 2.18057 1177.87 2.01035 1181.24 2.20215C1182.47 2.27318 1183.8 2.26575 1184.99 2.62793C1185.1 2.66316 1185.22 2.69381 1185.33 2.72559C1185.35 2.72147 1185.37 2.71519 1185.38 2.71289C1186.65 2.52822 1187.96 2.61393 1189.13 1.88965C1189.56 1.62683 1190.42 1.52709 1190.8 1.76855C1191.89 2.4647 1193.02 2.18025 1194.08 2.00977C1197.64 1.44876 1201.23 2.32951 1204.79 1.79688C1206.11 2.4717 1207.77 1.63376 1208.83 2.18066C1210.1 2.84129 1211.32 2.18047 1212.6 2.75586C1213.73 3.26709 1215.4 2.59917 1216.83 2.58496C1218.11 2.57786 1219.39 2.83451 1220.66 2.82031C1224.43 2.77059 1228.18 2.63549 1231.94 2.56445C1232.28 2.56445 1232.63 2.74187 1232.97 2.82715C1235.55 3.48775 1238.11 3.85723 1240.84 3.60156C1247.99 2.94094 1255.17 2.14489 1262.35 1.66895C1265.08 1.48426 1267.69 2.18027 1270.7 3.35938C1272.02 3.07523 1273.81 2.52835 1275.63 2.37207C1277.26 2.22999 1278.87 1.87546 1280.63 2.4082C1282.13 2.86277 1283.89 2.10989 1285.58 2.25195C1287.4 2.40118 1288.86 3.06127 1290.7 3.66504C1292.73 3.51587 1295.03 3.34528 1297.32 3.1748C1299.52 3.01142 1301.72 2.77709 1303.92 2.70605C1306.15 2.63502 1308.39 2.55737 1310.61 2.4082C1313.67 2.2022 1316.68 2.09568 1319.7 2.84863C1320.74 3.11146 1321.87 2.77736 1322.94 2.69922C1326.49 2.44109 1330.03 1.85885 1333.54 2.59082C1334.03 2.53942 1334.51 2.48937 1335 2.44336C1335.51 1.87375 1336.23 1.9981 1336.9 1.94629C1340.72 1.65505 1344.54 1.30702 1348.37 1.11523C1349.89 1.03934 1351.39 1.26192 1352.7 1.71875C1352.99 1.71885 1353.27 1.71788 1353.55 1.71875C1358.18 1.73296 1362.82 1.8463 1367.45 1.95996C1380.17 0.390095 1394.51 6.15131 1407.21 0C1415.17 3.0261 1423.12 3.0041 1431.09 4.50293C1431.24 4.65338 1431.42 4.81834 1431.61 4.99414C1432.5 5.00515 1433.4 4.94172 1434.3 4.78027C1435.33 4.59558 1436.41 4.68122 1437.45 4.51074C1438.52 4.34026 1439.55 3.82902 1440.62 3.7793C1443.13 3.66566 1445.66 3.86411 1448.16 3.68652C1449.68 3.58 1451.07 3.85746 1452.48 4.21973C1453.14 4.39058 1453.81 4.57274 1454.48 4.7334C1462.96 3.41116 1471.68 3.55571 1480.47 4.36035C1490.13 3.94731 1499.61 2.50853 1509.1 3.61523C1518.11 2.05958 1527.3 1.69035 1536.55 1.71875C1541.18 1.73296 1545.82 1.8463 1550.45 1.95996C1563.17 0.390095 1577.51 6.15131 1590.21 0Z" fill="#DCEFF9"/>
</svg>
