<svg width="441" height="7" viewBox="0 0 441 7" fill="none" xmlns="http://www.w3.org/2000/svg">
<path d="M4.18865 3.80076C10.3276 3.99484 16.7291 4.71456 23.1597 4.50026C25.3032 4.42748 27.4504 4.476 29.5903 4.26979C33.6987 3.76842 38.4014 4.24553 42.3057 2.4705C44.657 2.53519 47.0084 2.74949 49.3597 2.76566C76.7992 3.18617 105.011 4.662 132.644 3.72394C134.824 3.80885 136.997 3.94632 139.17 4.15253C140.289 4.3264 141.856 3.9625 142.636 3.95845C144.204 3.94228 146.563 4.61752 148.134 5.47067C150.478 4.58113 152.847 7.16484 154.397 4.5407C157.138 4.51644 159.861 4.53665 162.555 4.58518C175.562 5.2119 188.876 3.60668 202.225 6.95863C204.577 6.93841 206.735 6.87372 208.886 6.84137C227.288 4.72669 246.893 6.53812 265.689 4.62561C272.762 7.16484 279.006 3.89376 286.1 4.58518C286.829 4.46387 287.613 4.60539 288.247 4.33853C288.915 4.05954 289.516 4.22127 290.143 4.15253C291.547 3.77246 293.114 3.76033 294.682 3.74416C294.687 4.3237 294.428 4.61617 293.905 4.62156C294.689 4.61348 295.473 4.60539 296.257 4.60135L295.473 4.60944C297.033 3.72394 299.399 5.44237 300.952 3.68755C300.161 2.82631 298.615 5.44641 298.593 2.84248C307.084 2.76162 316.117 2.85057 324.793 3.27108C326.529 3.35599 328.249 3.46112 329.944 3.59455C327.99 4.26171 325.985 4.26979 323.951 4.22127C317.852 4.07571 311.517 1.85186 305.658 4.51644C304.867 3.6552 303.3 3.67137 302.516 3.67542C301.747 5.42215 300.172 4.56496 299.388 4.57304C299.395 5.44237 300.179 5.43428 300.963 5.42619L301.739 4.54878C302.523 4.5407 304.098 5.39385 304.882 5.3898C308.024 6.23082 310.346 2.72927 313.503 5.30894C314.287 5.30085 315.847 4.4194 316.631 4.41131C319.117 4.82373 321.6 5.06634 324.082 5.18764C326.561 5.30894 329.044 5.66071 331.523 5.6041C356.596 4.38301 381.681 5.01782 406.518 3.26299C409.015 3.19426 411.512 3.13361 414.005 3.08913C416.499 3.04465 418.996 3.00826 421.486 2.99613C423.028 3.17404 424.526 2.68479 426.057 2.80609C426.637 2.85057 427.235 3.01231 427.807 2.5918C427.986 2.46241 428.449 2.51902 428.591 2.68884C428.853 3.00422 429.149 2.54328 429.455 2.89505C429.666 3.13765 430.268 3.00826 430.687 2.97187C431.033 2.93953 431.369 2.73736 431.715 2.72118C432.327 2.69288 432.969 2.88292 433.549 2.73736C434.128 2.5918 434.631 2.79801 435.164 2.85057C435.601 2.89101 436.02 3.14978 436.458 3.18213C437.635 3.26704 438.82 3.29939 440.001 3.31152C440.296 3.31152 440.595 3.15787 440.92 3.06487C440.945 3.08104 440.975 3.08913 441.004 3.10935C440.956 2.65649 440.913 2.20768 440.865 1.75482C438.127 1.66182 435.382 1.73056 432.659 1.20897C431.504 0.986581 430.293 1.09171 429.079 1.29388C427.745 1.51626 426.349 1.25749 424.978 1.20492C424.694 1.19279 424.329 1.05532 424.143 1.19684C423.48 1.71034 422.703 1.14427 422.131 1.45965C421.42 1.85186 420.764 1.62948 420.093 1.64161C419.284 2.05403 417.709 1.19684 416.925 1.20492C413.805 2.97187 411.439 1.25749 408.311 2.15511C406.346 1.30601 404.582 1.10384 402.814 1.12406C396.554 2.26833 389.497 1.4637 383.241 3.26299C379.297 -0.177908 374.612 2.47454 370.683 0.772283C369.899 0.780369 369.906 1.64969 369.122 1.65778C365.987 1.68608 363.629 0.84102 360.49 0C347.964 1.8559 335.405 -0.982538 323.678 2.60797C321.516 1.97721 319.362 1.66991 317.203 1.5567C310.736 1.20897 304.28 2.57562 297.81 1.98529C297.044 4.60135 295.466 2.87483 293.898 2.89101L293.107 2.02977C292.323 2.03786 290.763 2.91931 289.979 2.9274C289.979 2.9274 289.188 2.06616 288.864 2.36537C288.51 2.34919 288.149 2.43815 287.795 2.50689C287.405 2.58371 287.019 2.75353 286.629 2.76566C264.909 4.03528 242.978 5.45854 220.23 3.06487C216.304 2.23194 212.407 4.8763 208.871 4.24149C206.13 4.28192 203.388 4.35066 200.643 4.37896C197.493 2.66862 193.589 4.88034 190.443 3.17C181.045 4.12827 171.622 1.78312 162.216 2.54328C160.39 2.39367 158.56 2.19555 156.73 1.9206C155.177 3.67542 152.027 1.96507 150.474 3.7199C147.321 1.14023 143.413 3.263 139.979 1.88421C138.112 1.79525 136.348 1.76695 134.773 0.9138C132.436 2.67266 130.07 1.13214 127.708 2.03381C116.735 -0.48116 106.575 3.26704 95.5952 2.4988C92.4528 1.65778 89.3141 0.820803 86.179 0.849106C85.4025 1.72652 84.626 2.60393 83.8422 2.60797C83.0511 1.74673 82.2674 1.75482 81.4763 0.893584C70.5034 0.998711 60.3289 2.48263 49.6112 1.47583C47.3474 1.58096 45.0945 1.53648 42.8635 1.7063C40.6324 1.87612 38.4196 1.57287 36.2323 1.8559C33.9794 2.00955 31.7265 2.17937 29.4736 2.37345C27.2207 2.56349 24.9678 2.59988 22.7186 2.83844C18.7851 1.13619 14.097 2.74544 10.1745 1.91251C9.39803 2.78992 8.61425 2.79801 7.83047 2.80205L7.82318 1.93273C5.47914 2.82227 3.1424 4.32236 0 3.48538C0.791067 4.34662 1.57484 4.33853 2.43882 3.9908C3.00022 3.88163 3.61266 3.82502 4.185 3.80885L4.18865 3.80076ZM378.021 2.66458C379.432 2.7131 380.565 2.74544 381.699 2.77375C380.81 3.16191 379.88 2.90718 378.801 3.12956C378.717 3.077 378.498 2.94761 378.021 2.66053V2.66458ZM362.914 2.16724C366.775 2.54328 369.91 2.51497 373.829 2.47858C369.126 2.52306 363.647 3.44495 358.933 1.75078C359.717 1.74269 361.285 1.73056 362.371 2.1632C362.451 2.06616 362.739 2.11872 362.914 2.17129V2.16724ZM358.437 2.28046L351.008 2.02168C352.659 1.80738 355.003 0.9138 356.585 2.64032C353.45 2.66862 351.099 2.69288 348.143 2.92335C349.058 2.44219 350.1 2.51497 351.008 2.02573L358.437 2.28046ZM330.119 3.34791C335.424 1.79525 341.697 2.78183 347.184 2.72927C344.049 2.75757 340.13 2.79396 336.995 2.82631C334.669 6.32382 333.076 2.68884 330.55 3.90589C330.389 3.69968 330.272 3.55007 330.116 3.35195L330.119 3.34791Z" fill="#515151" fill-opacity="0.1"/>
</svg>
